<?xml version="1.0" encoding="UTF-8"?><svg id="Layer_2" xmlns="http://www.w3.org/2000/svg" viewBox="0 0 363.19 271.22"><defs><style>.cls-1{fill:#4dc2c1;}</style></defs><g id="Layer_1-2"><path class="cls-1" d="M361.51,137.88s-.02-.06-.03-.1c-.47-2.65-1.07-5.27-1.8-7.86-1.98-12.37.27-22.67,1.82-27.77,1.06-1.58,1.68-3.47,1.68-5.52,0-5.46-4.42-9.88-9.88-9.88-.8,0-1.57.11-2.32.29-7.84-1.32-20.32-3.82-24.61-6.93,0,0-.01,0-.02-.02-27.4-23.96-68.19-40.9-115.05-46.02-7.35-2.29-14.47-7.22-18.3-11.45-.47-.79-1.04-1.51-1.7-2.14,0,0,0-.01-.01-.02h0c-1.77-1.67-4.15-2.7-6.78-2.7-2.86,0-5.43,1.22-7.23,3.16-2.23,2.23-12.22,12-16.88,12.31h.09s-.08,0-.12.01h.03c-8.85.84-16.85-8.06-25.69-18.27-1.76-2.75-3.92-5.21-6.4-7.31,0,0-.01-.01-.02-.02h0c-5.65-4.77-12.95-7.65-20.92-7.65-6.37,0-12.3,1.84-17.31,5.01-31.89,18.93-33.11,59.99-42.54,66.28h0c-.53.38-1.06.77-1.58,1.16v-.02c-8.96,7.17-32.24,8.4-32.24,8.4-5.46,0-9.88,4.42-9.88,9.88,0,.77.1,1.52.27,2.24,1.07,10.17,1.06,26.52-1.21,37.66-.35,1.27-.65,2.55-.94,3.84-.01.04-.02.09-.04.13v-.02c-1.23,5.64-1.88,11.41-1.88,17.27,0,34.92,22.78,66.34,59.1,88.17h-.03c3.89,2.26,9.75,13.71,9.75,13.71h0c1.67,3.11,4.94,5.22,8.71,5.22,1.43,0,2.79-.31,4.02-.86h0s7.85-2.56,11.95-1.77l-.08-.04c26.05,9.52,56.03,14.95,87.94,14.95,26.44,0,51.56-3.73,74.22-10.42h-.01c7.2-.95,19.63,2.44,28.09.8,3.57,0,6.68-1.89,8.42-4.73,5.14-7.57,15.31-17.36,24.81-25.7l-.04.02c28.53-21.09,45.88-48.89,45.88-79.35,0-4.12-.32-8.19-.94-12.21.05-.32-.03-.89-.29-1.75Z"/></g></svg>