<?xml version="1.0" encoding="UTF-8"?><svg id="Layer_1" xmlns="http://www.w3.org/2000/svg" viewBox="0 0 56.69 85.04"><defs><style>.cls-1{fill:#231f20;}</style></defs><path class="cls-1" d="M48.33,19.43V5.63H8.36v13.8h4.23v58.91h31.55v-28.23h-.03v-30.69h4.23ZM19.8,64.24l-5.16,9.16v-18.33l5.16,9.16ZM15.38,52.18h11.21l-5.61,9.96-5.61-9.96ZM15.38,76.29l5.61-9.96,5.61,9.96h-11.21ZM27.32,73.4l-5.16-9.16,5.16-9.16v18.33ZM34.55,64.23l-5.14,9.11v-18.27l5.14,9.16ZM30.14,52.18h11.21l-5.62,9.96-5.59-9.96ZM30.11,76.29l5.62-9.96,5.59,9.96h-11.21ZM42.05,73.39l-5.14-9.16,5.14-9.11v18.27ZM42.05,50.12H14.65v-30.69h27.4v30.69ZM10.42,17.38V7.69h35.86v9.69H10.42Z"/></svg>