<?xml version="1.0" encoding="UTF-8"?><svg id="Layer_1" xmlns="http://www.w3.org/2000/svg" viewBox="0 0 283.46 178.36"><defs><style>.cls-1{fill:#020202;}</style></defs><path class="cls-1" d="M209.24,157.13c-.73-.31-1.47-.65-2.23-.87-4.75-1.38-7.77.26-8.9,5.15-.42,1.81-1.02,3.61-1.19,5.45-.35,3.89-7.25,6.62-3.58,10.15,2.29,2.21,7.93.94,13.57,1.34,5.29-.02,11.58-2.99,12.89-9.19,1.39-6.54-5.03-9.68-10.55-12.03Z"/><path class="cls-1" d="M254.69,92.28c-7.14,1.83-6.28,9.1-7.11,14.01-.83,4.91,5.24,3.8,8.46,5.02,4.63-.76,8.6-2.04,8.51-7.78-.07-4.5-6.34-12.16-9.85-11.26Z"/><path class="cls-1" d="M70.67,126.88c-3.22-2.17-6.09.23-8.95,1.47-1.47.64-2.89,1.41-4.3,2.19-1.3.71-3.69.91-2.88,3.01.47,1.22,2.26,2.26,3.67,2.69,1.74.54,3.7.37,5.38.5,3.06-.84,7.11,1.31,8.39-3.16.66-2.29,1.02-5.12-1.31-6.69Z"/><path class="cls-1" d="M184.01,146.05c-3.66-.21-6.08,1.93-6.54,5.62-.63,5.03,3.1,6.52,6.87,7.03,3.25.45,6.32-.68,7.58-5.25-2.12-2.69-3.06-7.12-7.92-7.4Z"/><path class="cls-1" d="M238.24,141.11c-4.94-.15-6.49,3.1-6.69,7.25-.09,1.8.16,3.91,3.4,3.96,1.82-3.06,8.06-1.44,8.18-6.99.06-2.93-2.19-4.13-4.89-4.22Z"/><path class="cls-1" d="M277.84,97.91c-3.62-.31-4.31,3.53-4.93,6.2-.82,3.52,2.62,3.59,4.67,4.08,3.16.76,4.69-1.58,5.89-4.19-.98-2.92-2.74-5.83-5.63-6.08Z"/><path class="cls-1" d="M7.85,93.21c-2.07,6.06-3.12,12.46-6.98,17.9-2.3,3.25.41,4.09,3.06,4.22,5.02.24,10.04.33,15.06.48,4.73-1.18,12.41,2.49,12.27-6.86-.17-11.22-12.03-19.03-23.41-15.74ZM27.02,107.57c-.39,4.39-3.47,4.74-7.37,4.41-3.84-2.24-11.77,2.06-12.4-5.73-.31-3.81.92-10.2,7.93-9.73,5.97.41,12.26,6.35,11.84,11.05Z"/><path class="cls-1" d="M236.42,106.75c-1.22-2.84-1.9-5.23,1.06-7.85,4.12-3.65,2.52-8.29.85-12.61-1.47-3.81-4.05-5.21-8.28-4.17-3.84.94-5.16-1.95-4.05-4.81,4.61-11.87-2.43-22.78-2.3-34.15.09-7.9-5.82-6.41-9.96-8.24-4.44-1.96-2.47-11.53-10.72-9.26,6.56,7.49,4.52,13.85-2.64,19.59-2.41-1.29-.01-7.31-5.43-5.63-2.88-6.39,5.41-8.87,5.03-14.38,0,0,0,0,0,0-4.81-7.55-14.37-3.99-20.62-8.85-3.1-2.41-5.94,2.64-9.19,3.57-2.48.71-5.02,3.24-7.51,1.16-2.13-1.78-.48-4.49-.12-6.79,1.32-8.43-2.13-13.35-9.93-14.21-8.86-.97-18.01,4.68-20.77,13.03-.65,1.96-1.64,3.19-3.53,4-6.53,2.8-11.51,11.96-20.44,4.82-.38-.3-1.51.26-2.25.53-7.43,2.7-15.52,4.62-14.1,15.61.25,1.94-2.01,4.2-3.12,6.31,0,0,.05.07.05.07,0,0,0,0,0,0-.02-.02-.03-.05-.05-.07-1.3-.29-2.65-.47-3.91-.89-16.66-5.49-21.55-2.21-22.73,14.97-.32,4.58-2.51,7.95-7.84,6.45-3.58-1.01-6.48.24-9.06,2.07-3.45,2.44-10.16,2.31-9.27,8.46.9,6.27,7.1,3.11,10.74,4.02,7.74,1.94,12.16,9.03,6.32,13.9-7.34,6.12-6.39,17.43-16.18,21.82,7.61-3.62,13.65,1.26,20.22,2.09,18.52,2.33,37.25,5.74,55.72,4.89,13.44-.62,26.3-1.49,39.53,1.64,9.84,2.33,20.31-2.03,30.02-.12,16.6,3.25,32.39.03,48.13-3.5,9.08-2.04,9.87-5.31,6.35-13.47ZM224.84,94.09c.38,2.8-.8,7.38-4.08,6.41-7.11-2.1-15.72.98-21.43-5.93.77-.34.95-.86.47-1.57,0,0,0,0,0,0,6.33-.31,12.76,1.12,18.77-2.7,3.43-2.18,5.85.68,6.27,3.79ZM208.83,79.24c1.73-.43,3.67-.07,6.16-.07,1.43-.4,3.45-.92,5.35.81,1.53,1.39,2.05,4.69,1.44,4.58-5.95-1.06-6.99,6.2-11.84,6.55-2.63.19-4.85-.2-5.1-3.51-.27-3.57-.52-7.23,3.99-8.36ZM214.74,41.35c3.13.65,4.85,2,5.47,4.88.66,3.06-1.28,4.23-3.83,5.08-3.25,1.08-6.12,3.46-9.87,2.66-1.68-1.28-3.35-2.57-3.8-4.83,2.37-5.1,5.13-9.24,12.03-7.8ZM206.41,63.96c2.39-.93,5.31-2.62,4.9-6.29,0,0,0,0,0,0,0,0,0,0,0,0,3.08.73,6.76.34,8.81,3.26,2.05,2.91,2.93,6.47,2.08,9.99-.98,4.02-4.71,3.78-7.85,4.21-4.79.66-9.6,1.3-14.37-.16,0,0,0,0,0,0-.27-5.07,1.07-8.92,6.43-11.01ZM198.13,76.7s0,0,0,0c3.23,2.71,4.46,5.42,0,8.13-1.56-3.99-5.29-4.78-9.76-6.08,4.15.35,7.48,1.21,9.77-2.05ZM159.58,57.07c6.27-1.23,3.9-6.1,3.21-9.18-1.12-5.02,1.81-9.94,1.04-14.83.32-.18.65-.39.98-.65,3.95-4.03,8.12-7.09,13.82-2.98.57.46,1.14.95,1.7,1.43-.26,1.32-.78,2.57-1.7,3.73,0,0,0,0,0,0,0,0,0,0,0,0,4.56,3.46-.89,4.59-1.6,6.82,0,.48.04.95.08,1.42,0,0,0,0,0,0-.56,1.53-1.11,3.07-1.67,4.6,0,0,0,0,0,0-1.15,1.06-2.41,3.12-3.44,3.02-4.55-.47-6.33,1.27-6.35,5.73,0,2.35-1.58,3.91-4.06,4.15-1.07.11-2.29.02-2.61-1.23-.16-.62.24-1.97.57-2.03ZM164.01,64.22c2.93-.11,2.84,2.87,2.51,3.78-1.02,2.77-2.61,7.16-4.42,7.39-3.1.38-2.26-3.11-1.48-5.81-.81-2.64-.73-5.2,3.39-5.36ZM138.55,17.52c-.28-5.14,4.52-9.64,10.24-9.45,5.64.19,6.31,4.24,5.72,8.42-.81,5.74,2.22,10.14,4.29,14.92.16.23.32.43.48.63-4.67,4.22-7.71-2.35-10.59-4.49-5.01-3.71,1.78-5.16,2.98-7.79-4.62-1.43-9.07-4.82-13.18-1.39.03-.28.07-.57.06-.86ZM154,49.26c-1.88,1.99-3.01,1.06-6.17-5.98-.33,12.2-3.01,14.57-13.16,13.2-1.7-.23-2.4-1.41-3.11-3.11-3.41-8.14,0-13.33,8.97-14.19,3.46-.33,6.83-.98,10.24-.17,3.87.93,5.88,7.44,3.23,10.24ZM129.31,25.25c1-1.15,2.33-1.75,3.7-2.29,3.22,1.34,6.52,2.62,10.47-1.33.14,4.89.85,9.93-2.98,10.56-6.12,1.01-12.86,5.87-18.92.35,3.52-1.34,5.02-5.02,7.73-7.3ZM113.58,38.93c4.95-1.82,9.63-.84,13.35,2.56,1.54,1.41-.64,3.88-1.87,4.7-3.86,2.57-6.62,5.34-5.2,10.41.04.15-.26.52-.47.59-.21.07-.51-.1-1.26-.28-1.63-4.81-1.92-10.83-7.8-13.52-.59-.27-1.27-1.34-1.18-1.93.37-2.56,2.81-1.94,4.42-2.53ZM54.14,76.07c-4.85.98-9.73,1.42-15.43-.38,4.31-5.21,9.25-6.53,14.57-6.7,1.83-.06,3.77.84,4,3.11.22,2.18-1.18,3.57-3.14,3.97ZM57.69,114.76c-2.62.27-7.26-.71-7.69-5.34-.34-3.61,6.17-13.05,8.93-13.02,4.6.06,6.68,2.68,6.6,8.07-1.07,3.96-1.84,9.67-7.84,10.29ZM65.54,56.42c-.47-4.13-.82-9.68,5.71-10.25,4.12-.35,8.48-1.16,12.26,1.64-4.64,3.26-2.88,7.4-1.6,11.49-2.8-1.05-5.64-1.42-8.45-.11-3.62,1.69-7.39,1.92-7.92-2.76ZM88.61,117.23c-5.01-.56-10.11-.37-15.12-.97-3.73-.45-6.56-2.36-6.23-6.83-.21-7.39,2.41-9.92,9.49-8.17,3.84.95,7.34.38,11.03-.06,5.06-.61,7.98,2.6,7.64,6.91-.29,3.73.76,9.97-6.82,9.13ZM96.54,97.01c-8.42.24-17.03.97-25.21-.51-5.68-1.03-3.12-6.72-2.32-10.88.8-4.15,2.45-6.51,7.02-5.08,1.49.46,2.96,1.55,4.11-.5,6.93,3.66,14.37,6.53,19.65,12.74,0,0,0,0,0,0-1.08,1.48-2.13,4.2-3.25,4.23ZM101.1,82.59c1.79-1.46,3.95.66,5.56,1.97,2.79,2.25,2.65,2.06,6.9.69,2.8-.9,4.8,2.09,7.36,2.6,3.29.66,5.8,2.5,8.39,4.41,1.88,1.38,6.47-.68,5.85,3.54-.52,3.53-4.47,3.13-7.31,3.61-.79.13-1.6.16-2.4.24-5-3.09-9.08-6.4-16.29-3.07-7.47,3.45-4.44-5.48-6.7-8.46.11-2.05-3.63-3.68-1.37-5.52ZM132.1,112.92c-2.9,4.83-8.15,5.5-13.39,5.77-5.53.28-10.83-.4-14.6-4.77-2.51-2.91-1.73-6.66-.42-9.96,1.34-3.38,4.47-3.23,7.49-3.22,4.8.01,9.31,2.8,14.23,1.46.6.65,1.22.67,1.87.06h0c1.01,3.86,7.99,5.35,4.81,10.65ZM146.69,102.59c-4.44,5.63-9.71,2.4-14.75,1.57,7.68-3.21,8.66-15.44,19.76-14.43,2.32.21,1.5-5.09,5.84-5.83-2.66,4.42-2.33,7.73,2.34,9.97,1.85.89,1.04,3.38.97,5.22-3.13,3.31-5.42,9.7-11.31,3-.35-.4-2.38-.1-2.85.5ZM171.68,120.53c-2.94-.09-5.89-.02-8.84-.02,0,.19,0,.38,0,.57-2.67-.15-5.4-.7-8-.36-6.91.91-6.07-3.33-6.07-7.87.01-5.88,3.58-5.02,6.94-4.05,5.57,1.6,8.9-3.74,14.19-3.97,6.15-.26,9.09,3.83,9.51,7.39.35,2.97-1.9,8.49-7.71,8.3ZM169.29,89.97c7.93,4.3,15.02-.71,22.44-2.02,0,0,0,0,0,0,4.51,7.79-2.58,9.05-6.78,11.29-10.47,5.57-15.98,2.15-15.65-9.27ZM193.45,121.37c-3.45,1.35-6.6.23-10.79-2.23,4.56-.76,7.71-3,10.91-.28.81.69,1.21,1.99-.12,2.51ZM190.47,115.34c-5-.29-7.81-1.1-4.25-6.71,4.26-6.72,12.36-9.46,19.17-5.58,3.11,1.77,2.27,3.88.05,5.7-4.45,3.64-9.61,5.71-14.97,6.59ZM215.62,118.93c-5.22,2.53-10.85.89-16.35,1.87,3.6-6.12,9.04-7.9,15.37-7.57,1.47.08,3.5.14,3.77,2.21.25,1.88-1.35,2.8-2.79,3.5ZM231.82,107.36c-.56,3.98-3.82,2.73-6.37,2.47-1.33-.13-2.63-.44-3.95-.63-2.97-.42-7.66.82-7.51-3.65.16-4.69,4.99-2.29,7.34-3.01,2.03.16,3.63.29,5.23.4,2.84.2,5.78.75,5.26,4.41Z"/></svg>