solid OpenSCAD_Model
  facet normal 0 0 1
    outer loop
      vertex 9.799999 88.5 2.999999
      vertex 11.299999 87 2.999999
      vertex 10.860659 88.06066 2.999999
    endloop
  endfacet
  facet normal 0 0 1
    outer loop
      vertex 11.299999 87 2.999999
      vertex 1.6999998 87 2.999999
      vertex 11.299999 12.549986 2.999999
    endloop
  endfacet
  facet normal 0 0 1
    outer loop
      vertex 11.299999 87 2.999999
      vertex 9.799999 88.5 2.999999
      vertex 1.6999998 87 2.999999
    endloop
  endfacet
  facet normal 0 0 1
    outer loop
      vertex 9.799999 1.5 2.999999
      vertex 11.299999 12.549986 2.999999
      vertex 1.6999998 8.799991 2.999999
    endloop
  endfacet
  facet normal 0 0 1
    outer loop
      vertex 1.6999998 87 2.999999
      vertex 9.799999 88.5 2.999999
      vertex 3.1999998 88.5 2.999999
    endloop
  endfacet
  facet normal 0 0 1
    outer loop
      vertex 11.299999 12.549986 2.999999
      vertex 9.799999 1.5 2.999999
      vertex 10.731239 1.8857331 2.999999
    endloop
  endfacet
  facet normal 0 0 1
    outer loop
      vertex 1.6999998 87 2.999999
      vertex 3.1999998 88.5 2.999999
      vertex 2.1393404 88.06066 2.999999
    endloop
  endfacet
  facet normal 0 0 1
    outer loop
      vertex 9.799999 1.5 2.999999
      vertex 1.6999998 8.799991 2.999999
      vertex 3.1999998 1.5 2.999999
    endloop
  endfacet
  facet normal 0 0 1
    outer loop
      vertex 2.055048 2.1428401 2.999999
      vertex 3.1999998 1.5 2.999999
      vertex 1.6999998 8.799991 2.999999
    endloop
  endfacet
  facet normal 0 0 1
    outer loop
      vertex 11.299999 12.549986 2.999999
      vertex 1.6999998 87 2.999999
      vertex 1.6999998 8.799991 2.999999
    endloop
  endfacet
  facet normal 0 0 1
    outer loop
      vertex 3.1999998 1.5 2.999999
      vertex 2.055048 2.1428401 2.999999
      vertex 2.1393404 1.9393406 2.999999
    endloop
  endfacet
  facet normal 0.9238791 -0.38268447 0
    outer loop
      vertex 11.299999 3 1.2999992
      vertex 11.165684 2.6757348 1.2999992
      vertex 11.299999 3 1.2115419
    endloop
  endfacet
  facet normal 0.38268417 -0.9238792 0
    outer loop
      vertex 9.799999 1.5 1.2999992
      vertex 10.731239 1.8857331 2.999999
      vertex 9.799999 1.5 2.999999
    endloop
  endfacet
  facet normal 0.38268417 -0.9238792 0
    outer loop
      vertex 10.731239 1.8857331 2.999999
      vertex 9.799999 1.5 1.2999992
      vertex 10.731239 1.8857331 1.2999992
    endloop
  endfacet
  facet normal -0.92387944 0.38268363 0
    outer loop
      vertex 1.6999998 87 1.2999992
      vertex 2.1393404 88.06066 2.999999
      vertex 2.1393404 88.06066 1.2999992
    endloop
  endfacet
  facet normal -0.92387944 0.38268363 0
    outer loop
      vertex 2.1393404 88.06066 2.999999
      vertex 1.6999998 87 1.2999992
      vertex 1.6999998 87 2.999999
    endloop
  endfacet
  facet normal -1 0 0
    outer loop
      vertex 1.6999998 8.799991 1.2999992
      vertex 1.6999998 87 2.999999
      vertex 1.6999998 87 1.2999992
    endloop
  endfacet
  facet normal -1 0 0
    outer loop
      vertex 1.6999998 87 2.999999
      vertex 1.6999998 8.799991 1.2999992
      vertex 1.6999998 8.799991 2.999999
    endloop
  endfacet
  facet normal -1 0 0
    outer loop
      vertex 1.6999998 3.0327382 1.2999992
      vertex 1.6999998 3 1.2953694
      vertex 1.6999998 3 1.2999992
    endloop
  endfacet
  facet normal 1 0 0
    outer loop
      vertex 11.299999 12.549986 2.999999
      vertex 11.299999 87 1.2999992
      vertex 11.299999 87 2.999999
    endloop
  endfacet
  facet normal 1 0 0
    outer loop
      vertex 11.299999 87 1.2999992
      vertex 11.299999 12.549986 2.999999
      vertex 11.299999 12.549986 1.2999992
    endloop
  endfacet
  facet normal 1 0 0
    outer loop
      vertex 11.299999 3 1.2999992
      vertex 11.299999 3 1.2115419
      vertex 11.299999 3.6254883 1.2999992
    endloop
  endfacet
  facet normal 0.92387944 0.38268363 0
    outer loop
      vertex 11.299999 87 2.999999
      vertex 10.860659 88.06066 1.2999992
      vertex 10.860659 88.06066 2.999999
    endloop
  endfacet
  facet normal 0.92387944 0.38268363 0
    outer loop
      vertex 10.860659 88.06066 1.2999992
      vertex 11.299999 87 2.999999
      vertex 11.299999 87 1.2999992
    endloop
  endfacet
  facet normal -0.38268423 -0.9238792 0
    outer loop
      vertex 2.1393404 1.9393406 1.2999992
      vertex 3.1999998 1.5 2.999999
      vertex 2.1393404 1.9393406 2.999999
    endloop
  endfacet
  facet normal -0.38268423 -0.9238792 0
    outer loop
      vertex 3.1999998 1.5 2.999999
      vertex 2.1393404 1.9393406 1.2999992
      vertex 3.1999998 1.5 1.2999992
    endloop
  endfacet
  facet normal 0.38268283 0.9238798 0
    outer loop
      vertex 10.860659 88.06066 1.2999992
      vertex 9.799999 88.5 2.999999
      vertex 10.860659 88.06066 2.999999
    endloop
  endfacet
  facet normal 0.3826834 0.92387956 4.2935926e-7
    outer loop
      vertex 9.800001 88.5 1.2999992
      vertex 9.799999 88.5 2.999999
      vertex 10.860659 88.06066 1.2999992
    endloop
  endfacet
  facet normal 0 1 0
    outer loop
      vertex 9.799999 88.5 2.999999
      vertex 9.800001 88.5 1.2999992
      vertex 9.799999 88.5 0.009999275
    endloop
  endfacet
  facet normal 0 -1 0
    outer loop
      vertex 3.1999998 1.5 1.2999992
      vertex 9.799999 1.5 2.999999
      vertex 3.1999998 1.5 2.999999
    endloop
  endfacet
  facet normal 0 -1 0
    outer loop
      vertex 9.799999 1.5 2.999999
      vertex 3.1999998 1.5 1.2999992
      vertex 9.799999 1.5 1.2999992
    endloop
  endfacet
  facet normal -0.9238793 -0.38268396 0
    outer loop
      vertex 2.1393404 1.9393406 1.2999992
      vertex 2.055048 2.1428401 2.999999
      vertex 2.055048 2.1428401 1.2999992
    endloop
  endfacet
  facet normal -0.9238793 -0.38268396 0
    outer loop
      vertex 2.055048 2.1428401 2.999999
      vertex 2.1393404 1.9393406 1.2999992
      vertex 2.1393404 1.9393406 2.999999
    endloop
  endfacet
  facet normal -0.9238782 -0.38268667 0
    outer loop
      vertex 1.6999998 3 1.2999992
      vertex 1.6999998 3 1.2953694
      vertex 1.7070299 2.983028 1.2999992
    endloop
  endfacet
  facet normal 0 0 -1
    outer loop
      vertex 1.4699998 0 0
      vertex 12.599999 12.618183 0
      vertex 11.3381815 0 0
    endloop
  endfacet
  facet normal 0 0 -1
    outer loop
      vertex 12.599999 12.618183 0
      vertex 1.4699998 0 0
      vertex 0 14.7000065 0
    endloop
  endfacet
  facet normal 0 0 -1
    outer loop
      vertex 12.599999 12.618183 0
      vertex 0 14.7000065 0
      vertex 12.599999 88.5 0
    endloop
  endfacet
  facet normal 0 0 -1
    outer loop
      vertex 12.599999 88.5 0
      vertex 0 14.7000065 0
      vertex 0 88.5 0
    endloop
  endfacet
  facet normal -0.38268283 0.9238798 5.366983e-7
    outer loop
      vertex 3.1999998 88.5 2.999999
      vertex 3.1999974 88.5 1.2999992
      vertex 2.1393404 88.06066 2.999999
    endloop
  endfacet
  facet normal 0 1 0
    outer loop
      vertex 3.1999974 88.5 1.2999992
      vertex 3.1999998 88.5 2.999999
      vertex 3.1999998 88.5 0.009999275
    endloop
  endfacet
  facet normal -0.38268355 0.9238795 0
    outer loop
      vertex 2.1393404 88.06066 2.999999
      vertex 3.1999974 88.5 1.2999992
      vertex 2.1393404 88.06066 1.2999992
    endloop
  endfacet
  facet normal 0 1 0
    outer loop
      vertex 12.599999 88.5 0
      vertex 9.799999 88.5 0.009999275
      vertex 12.599999 88.5 0.009999275
    endloop
  endfacet
  facet normal 0 1 0
    outer loop
      vertex 9.799999 88.5 0.009999275
      vertex 12.599999 88.5 0
      vertex 3.1999998 88.5 0.009999275
    endloop
  endfacet
  facet normal 0 1 0
    outer loop
      vertex 0 88.5 0
      vertex 3.1999998 88.5 0.009999275
      vertex 12.599999 88.5 0
    endloop
  endfacet
  facet normal 0 1 0
    outer loop
      vertex 3.1999998 88.5 0.009999275
      vertex 0 88.5 0
      vertex 0 88.5 0.009999275
    endloop
  endfacet
  facet normal 0 1 0
    outer loop
      vertex 9.799999 88.5 0.009999275
      vertex 3.1999998 88.5 2.999999
      vertex 9.799999 88.5 2.999999
    endloop
  endfacet
  facet normal 0 1 0
    outer loop
      vertex 3.1999998 88.5 2.999999
      vertex 9.799999 88.5 0.009999275
      vertex 3.1999998 88.5 0.009999275
    endloop
  endfacet
  facet normal -0.9985808 -0.053257667 0
    outer loop
      vertex 2.055048 2.1428401 1.2999992
      vertex 1.6999998 8.799991 2.999999
      vertex 1.6999998 8.799991 1.2999992
    endloop
  endfacet
  facet normal -0.9985808 -0.053257667 0
    outer loop
      vertex 1.6999998 8.799991 2.999999
      vertex 2.055048 2.1428401 1.2999992
      vertex 2.055048 2.1428401 2.999999
    endloop
  endfacet
  facet normal 0 0 1
    outer loop
      vertex 0.5 11.51802 1.2999992
      vertex 1.6999998 8.799991 1.2999992
      vertex 1.6999998 87 1.2999992
    endloop
  endfacet
  facet normal 0 0 1
    outer loop
      vertex 0.5 88.5 1.2999992
      vertex 2.1393404 88.06066 1.2999992
      vertex 3.1999974 88.5 1.2999992
    endloop
  endfacet
  facet normal 0 0 1
    outer loop
      vertex 0.5 88.5 1.2999992
      vertex 1.6999998 87 1.2999992
      vertex 2.1393404 88.06066 1.2999992
    endloop
  endfacet
  facet normal 0 0 1
    outer loop
      vertex 0.5 11.51802 1.2999992
      vertex 1.6999998 87 1.2999992
      vertex 0.5 88.5 1.2999992
    endloop
  endfacet
  facet normal 0 0 1
    outer loop
      vertex 1.6999998 8.799991 1.2999992
      vertex 0.5 11.51802 1.2999992
      vertex 1.6999998 3.0327382 1.2999992
    endloop
  endfacet
  facet normal 0 0 1
    outer loop
      vertex 11.299999 12.549986 1.2999992
      vertex 12.099999 88.5 1.2999992
      vertex 11.299999 87 1.2999992
    endloop
  endfacet
  facet normal 0 0 1
    outer loop
      vertex 12.099999 88.5 1.2999992
      vertex 10.860659 88.06066 1.2999992
      vertex 11.299999 87 1.2999992
    endloop
  endfacet
  facet normal 0 0 1
    outer loop
      vertex 10.860659 88.06066 1.2999992
      vertex 12.099999 88.5 1.2999992
      vertex 9.800001 88.5 1.2999992
    endloop
  endfacet
  facet normal 0 0 1
    outer loop
      vertex 12.099999 88.5 1.2999992
      vertex 11.299999 12.549986 1.2999992
      vertex 12.099999 9.282345 1.2999992
    endloop
  endfacet
  facet normal 0 0 1
    outer loop
      vertex 11.299999 12.549986 1.2999992
      vertex 11.299999 3.6254883 1.2999992
      vertex 12.099999 9.282345 1.2999992
    endloop
  endfacet
  facet normal 0 0 1
    outer loop
      vertex 10.731239 1.8857331 1.2999992
      vertex 11.299999 3.6254883 1.2999992
      vertex 11.299999 12.549986 1.2999992
    endloop
  endfacet
  facet normal 0 0 1
    outer loop
      vertex 11.299999 3.6254883 1.2999992
      vertex 10.731239 1.8857331 1.2999992
      vertex 11.165684 2.6757348 1.2999992
    endloop
  endfacet
  facet normal 0 0 1
    outer loop
      vertex 11.165684 2.6757348 1.2999992
      vertex 10.731239 1.8857331 1.2999992
      vertex 10.857988 0.5 1.2999992
    endloop
  endfacet
  facet normal 0 0 1
    outer loop
      vertex 9.799999 1.5 1.2999992
      vertex 10.857988 0.5 1.2999992
      vertex 10.731239 1.8857331 1.2999992
    endloop
  endfacet
  facet normal 0 0 1
    outer loop
      vertex 3.1999998 1.5 1.2999992
      vertex 10.857988 0.5 1.2999992
      vertex 9.799999 1.5 1.2999992
    endloop
  endfacet
  facet normal 0 0 1
    outer loop
      vertex 3.1999998 1.5 1.2999992
      vertex 2.058183 0.5 1.2999992
      vertex 10.857988 0.5 1.2999992
    endloop
  endfacet
  facet normal 0 0 1
    outer loop
      vertex 2.1393404 1.9393406 1.2999992
      vertex 2.058183 0.5 1.2999992
      vertex 3.1999998 1.5 1.2999992
    endloop
  endfacet
  facet normal 0 0 1
    outer loop
      vertex 2.055048 2.1428401 1.2999992
      vertex 2.058183 0.5 1.2999992
      vertex 2.1393404 1.9393406 1.2999992
    endloop
  endfacet
  facet normal 0 0 1
    outer loop
      vertex 2.055048 2.1428401 1.2999992
      vertex 1.7070299 2.983028 1.2999992
      vertex 2.058183 0.5 1.2999992
    endloop
  endfacet
  facet normal 0 0 1
    outer loop
      vertex 1.6999998 3.0327382 1.2999992
      vertex 2.055048 2.1428401 1.2999992
      vertex 1.6999998 8.799991 1.2999992
    endloop
  endfacet
  facet normal 0 0 1
    outer loop
      vertex 2.055048 2.1428401 1.2999992
      vertex 1.6999998 3.0327382 1.2999992
      vertex 1.7070299 2.983028 1.2999992
    endloop
  endfacet
  facet normal 0 0 1
    outer loop
      vertex 1.7070299 2.983028 1.2999992
      vertex 1.6999998 3.0327382 1.2999992
      vertex 1.6999998 3 1.2999992
    endloop
  endfacet
  facet normal 0 0 1
    outer loop
      vertex 11.299999 3 1.2999992
      vertex 11.299999 3.6254883 1.2999992
      vertex 11.165684 2.6757348 1.2999992
    endloop
  endfacet
  facet normal 0.9985808 -0.05325762 0
    outer loop
      vertex 10.731239 1.8857331 2.999999
      vertex 11.299999 12.549986 1.2999992
      vertex 11.299999 12.549986 2.999999
    endloop
  endfacet
  facet normal 0.9985808 -0.05325762 0
    outer loop
      vertex 11.299999 12.549986 1.2999992
      vertex 10.731239 1.8857331 2.999999
      vertex 10.731239 1.8857331 1.2999992
    endloop
  endfacet
  facet normal 0 1 0
    outer loop
      vertex 0 88.5 0.009999275
      vertex 0 88.5 0.79999924
      vertex 0.5 88.5 1.2999992
    endloop
  endfacet
  facet normal 0.70710677 0 0.70710677
    outer loop
      vertex 12.099999 88.5 1.2999992
      vertex 12.599999 12.618183 0.79999924
      vertex 12.599999 88.5 0.79999924
    endloop
  endfacet
  facet normal 0.70710677 0 0.70710677
    outer loop
      vertex 12.099999 9.282345 1.2999992
      vertex 12.599999 12.618183 0.79999924
      vertex 12.099999 88.5 1.2999992
    endloop
  endfacet
  facet normal 0.70710677 0 0.70710677
    outer loop
      vertex 12.599999 12.618183 0.79999924
      vertex 12.099999 9.282345 1.2999992
      vertex 12.266416 9.282345 1.1335831
    endloop
  endfacet
  facet normal 0 1 0
    outer loop
      vertex 12.599999 88.5 0.009999275
      vertex 12.099999 88.5 1.2999992
      vertex 12.599999 88.5 0.79999924
    endloop
  endfacet
  facet normal -1 0 0
    outer loop
      vertex 0 14.7000065 0
      vertex 0 88.5 0.009999275
      vertex 0 88.5 0
    endloop
  endfacet
  facet normal -1 0 0
    outer loop
      vertex 0 88.5 0.009999275
      vertex 0 14.7000065 0
      vertex 0 88.5 0.79999924
    endloop
  endfacet
  facet normal -1 0 0
    outer loop
      vertex 0 88.5 0.79999924
      vertex 0 14.7000065 0
      vertex 0 14.7000065 0.79999924
    endloop
  endfacet
  facet normal -0.70710677 0 0.70710677
    outer loop
      vertex 0 14.7000065 0.79999924
      vertex 0.5 88.5 1.2999992
      vertex 0 88.5 0.79999924
    endloop
  endfacet
  facet normal -0.70710677 0 0.70710677
    outer loop
      vertex 0.5 11.51802 1.2999992
      vertex 0 14.7000065 0.79999924
      vertex 0.31819844 11.51802 1.1181977
    endloop
  endfacet
  facet normal -0.70710677 0 0.70710677
    outer loop
      vertex 0 14.7000065 0.79999924
      vertex 0.5 11.51802 1.2999992
      vertex 0.5 88.5 1.2999992
    endloop
  endfacet
  facet normal 1 0 0
    outer loop
      vertex 12.599999 12.618183 0.79999924
      vertex 12.599999 88.5 0.009999275
      vertex 12.599999 88.5 0.79999924
    endloop
  endfacet
  facet normal 1 0 0
    outer loop
      vertex 12.599999 12.618183 0
      vertex 12.599999 88.5 0.009999275
      vertex 12.599999 12.618183 0.79999924
    endloop
  endfacet
  facet normal 1 0 0
    outer loop
      vertex 12.599999 88.5 0.009999275
      vertex 12.599999 12.618183 0
      vertex 12.599999 88.5 0
    endloop
  endfacet
  facet normal 0 1 0
    outer loop
      vertex 3.1999998 88.5 0.009999275
      vertex 0.5 88.5 1.2999992
      vertex 3.1999974 88.5 1.2999992
    endloop
  endfacet
  facet normal 0 1 0
    outer loop
      vertex 0.5 88.5 1.2999992
      vertex 3.1999998 88.5 0.009999275
      vertex 0 88.5 0.009999275
    endloop
  endfacet
  facet normal 0 1 0
    outer loop
      vertex 9.799999 88.5 0.009999275
      vertex 12.099999 88.5 1.2999992
      vertex 12.599999 88.5 0.009999275
    endloop
  endfacet
  facet normal 0 1 0
    outer loop
      vertex 12.099999 88.5 1.2999992
      vertex 9.799999 88.5 0.009999275
      vertex 9.800001 88.5 1.2999992
    endloop
  endfacet
  facet normal 0 -1 0
    outer loop
      vertex 11.3381815 0 0
      vertex 11.287278 0 0.79999924
      vertex 1.6288937 0 0.79999924
    endloop
  endfacet
  facet normal 0 -1 0
    outer loop
      vertex 1.4699998 0 0
      vertex 1.6288937 0 0.79999924
      vertex 1.4699998 0 0.64110535
    endloop
  endfacet
  facet normal 0 -1 0
    outer loop
      vertex 1.6288937 0 0.79999924
      vertex 1.4699998 0 0
      vertex 11.3381815 0 0
    endloop
  endfacet
  facet normal 0 -1 0
    outer loop
      vertex 11.287278 0 0.79999924
      vertex 11.3381815 0 0
      vertex 11.3381815 0 0.7490961
    endloop
  endfacet
  facet normal 0 -0.70710677 0.70710677
    outer loop
      vertex 1.6288937 0 0.79999924
      vertex 10.857988 0.5 1.2999992
      vertex 2.058183 0.5 1.2999992
    endloop
  endfacet
  facet normal 0 -0.70710677 0.70710677
    outer loop
      vertex 10.857988 0.5 1.2999992
      vertex 1.6288937 0 0.79999924
      vertex 11.287278 0 0.79999924
    endloop
  endfacet
  facet normal -0.70359755 -0.0995037 0.70359755
    outer loop
      vertex 0.31819844 11.51802 1.1181977
      vertex 1.6999998 3.0327382 1.2999992
      vertex 0.5 11.51802 1.2999992
    endloop
  endfacet
  facet normal -0.70359755 -0.0995037 0.70359755
    outer loop
      vertex 1.4699998 0 0.64110535
      vertex 1.6999998 3.0327382 1.2999992
      vertex 0.31819844 11.51802 1.1181977
    endloop
  endfacet
  facet normal -0.7035947 -0.09950453 0.7036003
    outer loop
      vertex 1.4699998 0 0.64110535
      vertex 1.7070299 2.983028 1.2999992
      vertex 1.6999998 3 1.2953694
    endloop
  endfacet
  facet normal -0.70360196 -0.099502444 0.7035933
    outer loop
      vertex 1.6999998 3.0327382 1.2999992
      vertex 1.4699998 0 0.64110535
      vertex 1.6999998 3 1.2953694
    endloop
  endfacet
  facet normal -0.7035976 -0.09950368 0.7035975
    outer loop
      vertex 1.7070299 2.983028 1.2999992
      vertex 1.4699998 0 0.64110535
      vertex 2.058183 0.5 1.2999992
    endloop
  endfacet
  facet normal -0.70359737 -0.0995041 0.70359766
    outer loop
      vertex 2.058183 0.5 1.2999992
      vertex 1.4699998 0 0.64110535
      vertex 1.6288937 0 0.79999924
    endloop
  endfacet
  facet normal 0.70359755 -0.0995037 0.70359755
    outer loop
      vertex 11.299999 3.6254883 1.2999992
      vertex 12.266416 9.282345 1.1335831
      vertex 12.099999 9.282345 1.2999992
    endloop
  endfacet
  facet normal 0.7035974 -0.09950367 0.70359766
    outer loop
      vertex 12.266416 9.282345 1.1335831
      vertex 11.299999 3.6254883 1.2999992
      vertex 11.299999 3 1.2115419
    endloop
  endfacet
  facet normal 0.70359725 -0.099503644 0.70359784
    outer loop
      vertex 12.266416 9.282345 1.1335831
      vertex 11.299999 3 1.2115419
      vertex 11.3381815 0 0.7490961
    endloop
  endfacet
  facet normal 0.7035971 -0.099503666 0.70359796
    outer loop
      vertex 11.165684 2.6757348 1.2999992
      vertex 11.3381815 0 0.7490961
      vertex 11.299999 3 1.2115419
    endloop
  endfacet
  facet normal 0.7035971 -0.099503666 0.70359796
    outer loop
      vertex 10.857988 0.5 1.2999992
      vertex 11.3381815 0 0.7490961
      vertex 11.165684 2.6757348 1.2999992
    endloop
  endfacet
  facet normal 0.7035962 -0.099505305 0.7035987
    outer loop
      vertex 11.3381815 0 0.7490961
      vertex 10.857988 0.5 1.2999992
      vertex 11.287278 0 0.79999924
    endloop
  endfacet
  facet normal -0.9950372 -0.099503644 0
    outer loop
      vertex 0 14.7000065 0
      vertex 0.31819844 11.51802 1.1181977
      vertex 0 14.7000065 0.79999924
    endloop
  endfacet
  facet normal -0.9950372 -0.09950366 -4.683154e-8
    outer loop
      vertex 1.4699998 0 0
      vertex 0.31819844 11.51802 1.1181977
      vertex 0 14.7000065 0
    endloop
  endfacet
  facet normal -0.9950372 -0.099503666 0
    outer loop
      vertex 0.31819844 11.51802 1.1181977
      vertex 1.4699998 0 0
      vertex 1.4699998 0 0.64110535
    endloop
  endfacet
  facet normal 0.9950372 -0.09950372 0
    outer loop
      vertex 12.266416 9.282345 1.1335831
      vertex 12.599999 12.618183 0
      vertex 12.599999 12.618183 0.79999924
    endloop
  endfacet
  facet normal 0.9950372 -0.09950368 0
    outer loop
      vertex 11.3381815 0 0
      vertex 12.266416 9.282345 1.1335831
      vertex 11.3381815 0 0.7490961
    endloop
  endfacet
  facet normal 0.9950372 -0.09950369 8.852261e-8
    outer loop
      vertex 12.266416 9.282345 1.1335831
      vertex 11.3381815 0 0
      vertex 12.599999 12.618183 0
    endloop
  endfacet
endsolid OpenSCAD_Model
