solid OpenSCAD_Model
  facet normal -1 0 0
    outer loop
      vertex 14 14.193959 54.13281
      vertex 14 13.66671 54.59441
      vertex 14 14.12132 54.22132
    endloop
  endfacet
  facet normal -1 0 0
    outer loop
      vertex 14 12.7249 55
      vertex 14 14.193959 54.13281
      vertex 14 14.796523 53.5
    endloop
  endfacet
  facet normal -1 0 0
    outer loop
      vertex 14 14.193959 54.13281
      vertex 14 12.7249 55
      vertex 14 13.66671 54.59441
    endloop
  endfacet
  facet normal -1 0 0
    outer loop
      vertex 14 13.66671 54.59441
      vertex 14 12.7249 55
      vertex 14 13.148049 54.87164
    endloop
  endfacet
  facet normal -1 0 0
    outer loop
      vertex 14 0 53.5
      vertex 14 12.7249 55
      vertex 14 14.796523 53.5
    endloop
  endfacet
  facet normal -1 0 0
    outer loop
      vertex 14 12.7249 55
      vertex 14 0 53.5
      vertex 14 0 55
    endloop
  endfacet
  facet normal -1 0 0
    outer loop
      vertex 14 14.796523 53.5
      vertex 14 14.193959 54.13281
      vertex 14 14.193959 54.146107
    endloop
  endfacet
  facet normal -1 0 0
    outer loop
      vertex 14 88.2 53.5
      vertex 14 77.2751 55
      vertex 14 88.2 55
    endloop
  endfacet
  facet normal -1 0 0
    outer loop
      vertex 14 75.203476 53.5
      vertex 14 77.2751 55
      vertex 14 88.2 53.5
    endloop
  endfacet
  facet normal -1 0 0
    outer loop
      vertex 14 75.80604 54.13281
      vertex 14 77.2751 55
      vertex 14 75.203476 53.5
    endloop
  endfacet
  facet normal -1 0 0
    outer loop
      vertex 14 77.2751 55
      vertex 14 76.33329 54.59441
      vertex 14 76.85195 54.87164
    endloop
  endfacet
  facet normal -1 0 0
    outer loop
      vertex 14 76.33329 54.59441
      vertex 14 75.80604 54.13281
      vertex 14 75.87868 54.22132
    endloop
  endfacet
  facet normal -1 0 0
    outer loop
      vertex 14 75.80604 54.13281
      vertex 14 75.203476 53.5
      vertex 14 75.80604 54.146107
    endloop
  endfacet
  facet normal -1 0 0
    outer loop
      vertex 14 76.33329 54.59441
      vertex 14 77.2751 55
      vertex 14 75.80604 54.13281
    endloop
  endfacet
  facet normal 0 0 1
    outer loop
      vertex 15 89 52
      vertex 12 79 52
      vertex 15 73.804565 52
    endloop
  endfacet
  facet normal 0 0 1
    outer loop
      vertex 1 89 52
      vertex 12 79 52
      vertex 15 89 52
    endloop
  endfacet
  facet normal 0 0 1
    outer loop
      vertex 12 79 52
      vertex 1 89 52
      vertex 2 79 52
    endloop
  endfacet
  facet normal 0 0 1
    outer loop
      vertex 1 73.804565 52
      vertex 2 79 52
      vertex 1 89 52
    endloop
  endfacet
  facet normal 0 0 1
    outer loop
      vertex 2 79 52
      vertex 1 73.804565 52
      vertex 2 73.804565 52
    endloop
  endfacet
  facet normal 0 0 1
    outer loop
      vertex 15 73.804565 52
      vertex 12 79 52
      vertex 12 73.804565 52
    endloop
  endfacet
  facet normal 0 0 1
    outer loop
      vertex 1 16.195436 52
      vertex 2 11 52
      vertex 2 16.195436 52
    endloop
  endfacet
  facet normal 0 0 1
    outer loop
      vertex 2 11 52
      vertex 1 16.195436 52
      vertex 1 0.41421396 52
    endloop
  endfacet
  facet normal 0 0 1
    outer loop
      vertex 2 11 52
      vertex 1 0.41421396 52
      vertex 2 0 52
    endloop
  endfacet
  facet normal 0 0 1
    outer loop
      vertex 12 11 52
      vertex 15 0.41421396 52
      vertex 15 16.195436 52
    endloop
  endfacet
  facet normal 0 0 1
    outer loop
      vertex 12 11 52
      vertex 15 16.195436 52
      vertex 12 16.195436 52
    endloop
  endfacet
  facet normal 0 0 1
    outer loop
      vertex 15 0.41421396 52
      vertex 12 11 52
      vertex 14 0 52
    endloop
  endfacet
  facet normal 0 0 1
    outer loop
      vertex 2 0 52
      vertex 12 11 52
      vertex 2 11 52
    endloop
  endfacet
  facet normal 0 0 1
    outer loop
      vertex 12 11 52
      vertex 2 0 52
      vertex 14 0 52
    endloop
  endfacet
  facet normal 1 0 0
    outer loop
      vertex 2 14.193959 54.13281
      vertex 2 14.796523 53.5
      vertex 2 14.193959 54.146107
    endloop
  endfacet
  facet normal 1 0 0
    outer loop
      vertex 2 13.66671 54.59441
      vertex 2 14.193959 54.13281
      vertex 2 14.12132 54.22132
    endloop
  endfacet
  facet normal 1 0 0
    outer loop
      vertex 2 12.7249 55
      vertex 2 14.193959 54.13281
      vertex 2 13.66671 54.59441
    endloop
  endfacet
  facet normal 1 0 0
    outer loop
      vertex 2 12.7249 55
      vertex 2 13.66671 54.59441
      vertex 2 13.148049 54.87164
    endloop
  endfacet
  facet normal 1 0 0
    outer loop
      vertex 2 14.193959 54.13281
      vertex 2 12.7249 55
      vertex 2 14.796523 53.5
    endloop
  endfacet
  facet normal 1 0 0
    outer loop
      vertex 2 0 53.5
      vertex 2 12.7249 55
      vertex 2 0 55
    endloop
  endfacet
  facet normal 1 0 0
    outer loop
      vertex 2 12.7249 55
      vertex 2 0 53.5
      vertex 2 14.796523 53.5
    endloop
  endfacet
  facet normal 1 0 0
    outer loop
      vertex 2 75.80604 54.146107
      vertex 2 75.203476 53.5
      vertex 2 75.80604 54.13281
    endloop
  endfacet
  facet normal 1 0 0
    outer loop
      vertex 2 77.2751 55
      vertex 2 88.2 53.5
      vertex 2 88.2 55
    endloop
  endfacet
  facet normal 1 0 0
    outer loop
      vertex 2 76.33329 54.59441
      vertex 2 77.2751 55
      vertex 2 76.85195 54.87164
    endloop
  endfacet
  facet normal 1 0 0
    outer loop
      vertex 2 77.2751 55
      vertex 2 76.33329 54.59441
      vertex 2 75.80604 54.13281
    endloop
  endfacet
  facet normal 1 0 0
    outer loop
      vertex 2 75.80604 54.13281
      vertex 2 76.33329 54.59441
      vertex 2 75.87868 54.22132
    endloop
  endfacet
  facet normal 1 0 0
    outer loop
      vertex 2 77.2751 55
      vertex 2 75.80604 54.13281
      vertex 2 75.203476 53.5
    endloop
  endfacet
  facet normal 1 0 0
    outer loop
      vertex 2 77.2751 55
      vertex 2 75.203476 53.5
      vertex 2 88.2 53.5
    endloop
  endfacet
  facet normal 0 -1 0
    outer loop
      vertex 2 88.2 53.5
      vertex 14 88.2 55
      vertex 2 88.2 55
    endloop
  endfacet
  facet normal 0 -1 0
    outer loop
      vertex 14 88.2 55
      vertex 2 88.2 53.5
      vertex 14 88.2 53.5
    endloop
  endfacet
  facet normal 0 0 -1
    outer loop
      vertex 2 75.203476 53.5
      vertex 1.5 75.203476 53.5
      vertex 2 88.2 53.5
    endloop
  endfacet
  facet normal 0 0 -1
    outer loop
      vertex 14 88.2 53.5
      vertex 14.5 75.203476 53.5
      vertex 14 75.203476 53.5
    endloop
  endfacet
  facet normal 0 0 -1
    outer loop
      vertex 14.5 75.203476 53.5
      vertex 14 88.2 53.5
      vertex 14.5 88.5 53.5
    endloop
  endfacet
  facet normal 0 0 -1
    outer loop
      vertex 2 88.2 53.5
      vertex 14.5 88.5 53.5
      vertex 14 88.2 53.5
    endloop
  endfacet
  facet normal 0 0 -1
    outer loop
      vertex 2 88.2 53.5
      vertex 1.5 88.5 53.5
      vertex 14.5 88.5 53.5
    endloop
  endfacet
  facet normal 0 0 -1
    outer loop
      vertex 1.5 88.5 53.5
      vertex 2 88.2 53.5
      vertex 1.5 75.203476 53.5
    endloop
  endfacet
  facet normal 0 0 -1
    outer loop
      vertex 1.5 0.20710698 53.5
      vertex 2 14.796523 53.5
      vertex 2 0 53.5
    endloop
  endfacet
  facet normal 0 0 -1
    outer loop
      vertex 2 14.796523 53.5
      vertex 1.5 0.20710698 53.5
      vertex 1.5 14.796523 53.5
    endloop
  endfacet
  facet normal 0 0 -1
    outer loop
      vertex 14 14.796523 53.5
      vertex 14.5 0.20710698 53.5
      vertex 14 0 53.5
    endloop
  endfacet
  facet normal 0 0 -1
    outer loop
      vertex 14.5 0.20710698 53.5
      vertex 14 14.796523 53.5
      vertex 14.5 14.796523 53.5
    endloop
  endfacet
  facet normal 0.70710677 0 -0.70710677
    outer loop
      vertex 1 74.737175 53
      vertex 1.5 88.5 53.5
      vertex 1.5 75.203476 53.5
    endloop
  endfacet
  facet normal 0.70710677 0 -0.70710677
    outer loop
      vertex 1.5 88.5 53.5
      vertex 1 74.737175 53
      vertex 1 89 53
    endloop
  endfacet
  facet normal 0.70710677 0 -0.70710677
    outer loop
      vertex 1.5 14.796523 53.5
      vertex 1 0.41421396 53
      vertex 1 15.262827 53
    endloop
  endfacet
  facet normal 0.70710677 0 -0.70710677
    outer loop
      vertex 1 0.41421396 53
      vertex 1.5 14.796523 53.5
      vertex 1.5 0.20710698 53.5
    endloop
  endfacet
  facet normal -0.70710677 0 -0.70710677
    outer loop
      vertex 15 74.737175 53
      vertex 14.5 88.5 53.5
      vertex 15 89 53
    endloop
  endfacet
  facet normal -0.70710677 0 -0.70710677
    outer loop
      vertex 14.5 88.5 53.5
      vertex 15 74.737175 53
      vertex 14.5 75.203476 53.5
    endloop
  endfacet
  facet normal -0.70710677 0 -0.70710677
    outer loop
      vertex 15 0.41421396 53
      vertex 14.5 14.796523 53.5
      vertex 15 15.262827 53
    endloop
  endfacet
  facet normal -0.70710677 0 -0.70710677
    outer loop
      vertex 14.5 14.796523 53.5
      vertex 15 0.41421396 53
      vertex 14.5 0.20710698 53.5
    endloop
  endfacet
  facet normal 1 0 0
    outer loop
      vertex 1 74.737175 53
      vertex 1 89 52
      vertex 1 89 53
    endloop
  endfacet
  facet normal 1 0 0
    outer loop
      vertex 1 89 52
      vertex 1 74.737175 53
      vertex 1 73.804565 52
    endloop
  endfacet
  facet normal 1 0 0
    outer loop
      vertex 1 0.41421396 52
      vertex 1 15.262827 53
      vertex 1 0.41421396 53
    endloop
  endfacet
  facet normal 1 0 0
    outer loop
      vertex 1 15.262827 53
      vertex 1 0.41421396 52
      vertex 1 16.195436 52
    endloop
  endfacet
  facet normal 0 -0.70710677 -0.70710677
    outer loop
      vertex 1 89 53
      vertex 14.5 88.5 53.5
      vertex 1.5 88.5 53.5
    endloop
  endfacet
  facet normal 0 -0.70710677 -0.70710677
    outer loop
      vertex 14.5 88.5 53.5
      vertex 1 89 53
      vertex 15 89 53
    endloop
  endfacet
  facet normal 0 -1 0
    outer loop
      vertex 1 89 52
      vertex 15 89 53
      vertex 1 89 53
    endloop
  endfacet
  facet normal 0 -1 0
    outer loop
      vertex 15 89 53
      vertex 1 89 52
      vertex 15 89 52
    endloop
  endfacet
  facet normal -1 0 0
    outer loop
      vertex 15 89 52
      vertex 15 74.737175 53
      vertex 15 89 53
    endloop
  endfacet
  facet normal -1 0 0
    outer loop
      vertex 15 74.737175 53
      vertex 15 89 52
      vertex 15 73.804565 52
    endloop
  endfacet
  facet normal -1 0 0
    outer loop
      vertex 15 0.41421396 52
      vertex 15 15.262827 53
      vertex 15 16.195436 52
    endloop
  endfacet
  facet normal -1 0 0
    outer loop
      vertex 15 15.262827 53
      vertex 15 0.41421396 52
      vertex 15 0.41421396 53
    endloop
  endfacet
  facet normal 0 -0.2902844 0.9569404
    outer loop
      vertex 14 77.2751 55
      vertex 16 76.85195 54.87164
      vertex 16 77.2751 55
    endloop
  endfacet
  facet normal 0 -0.2902844 0.9569404
    outer loop
      vertex 16 76.85195 54.87164
      vertex 14 77.2751 55
      vertex 14 76.85195 54.87164
    endloop
  endfacet
  facet normal 0 -0.2902844 0.9569404
    outer loop
      vertex 0 77.2751 55
      vertex 2 76.85195 54.87164
      vertex 2 77.2751 55
    endloop
  endfacet
  facet normal 0 -0.2902844 0.9569404
    outer loop
      vertex 2 76.85195 54.87164
      vertex 0 77.2751 55
      vertex 0 76.85195 54.87164
    endloop
  endfacet
  facet normal 0 -0.47139537 0.881922
    outer loop
      vertex 14 76.85195 54.87164
      vertex 16 76.33329 54.59441
      vertex 16 76.85195 54.87164
    endloop
  endfacet
  facet normal 0 -0.47139537 0.881922
    outer loop
      vertex 16 76.33329 54.59441
      vertex 14 76.85195 54.87164
      vertex 14 76.33329 54.59441
    endloop
  endfacet
  facet normal 0 -0.47139537 0.881922
    outer loop
      vertex 0 76.85195 54.87164
      vertex 2 76.33329 54.59441
      vertex 2 76.85195 54.87164
    endloop
  endfacet
  facet normal 0 -0.47139537 0.881922
    outer loop
      vertex 2 76.33329 54.59441
      vertex 0 76.85195 54.87164
      vertex 0 76.33329 54.59441
    endloop
  endfacet
  facet normal 0 -0.63439107 0.7730123
    outer loop
      vertex 14 76.33329 54.59441
      vertex 16 75.87868 54.22132
      vertex 16 76.33329 54.59441
    endloop
  endfacet
  facet normal 0 -0.63439107 0.7730123
    outer loop
      vertex 16 75.87868 54.22132
      vertex 14 76.33329 54.59441
      vertex 14 75.87868 54.22132
    endloop
  endfacet
  facet normal 0 -0.63439107 0.7730123
    outer loop
      vertex 0 76.33329 54.59441
      vertex 2 75.87868 54.22132
      vertex 2 76.33329 54.59441
    endloop
  endfacet
  facet normal 0 -0.63439107 0.7730123
    outer loop
      vertex 2 75.87868 54.22132
      vertex 0 76.33329 54.59441
      vertex 0 75.87868 54.22132
    endloop
  endfacet
  facet normal 0 -0.7730139 0.6343891
    outer loop
      vertex 14 75.80604 54.13281
      vertex 16 75.87868 54.22132
      vertex 14 75.87868 54.22132
    endloop
  endfacet
  facet normal 0 -0.7730139 0.6343891
    outer loop
      vertex 16 75.87868 54.22132
      vertex 14 75.80604 54.13281
      vertex 16 75.80604 54.13281
    endloop
  endfacet
  facet normal 0 -0.7730139 0.6343891
    outer loop
      vertex 0 75.80604 54.13281
      vertex 2 75.87868 54.22132
      vertex 0 75.87868 54.22132
    endloop
  endfacet
  facet normal 0 -0.7730139 0.6343891
    outer loop
      vertex 2 75.87868 54.22132
      vertex 0 75.80604 54.13281
      vertex 2 75.80604 54.13281
    endloop
  endfacet
  facet normal 0 1 0
    outer loop
      vertex 16 75.80604 54.13281
      vertex 14 75.80604 54.146107
      vertex 16 75.80604 54.146107
    endloop
  endfacet
  facet normal 0 1 0
    outer loop
      vertex 14 75.80604 54.146107
      vertex 16 75.80604 54.13281
      vertex 14 75.80604 54.13281
    endloop
  endfacet
  facet normal 0 1 0
    outer loop
      vertex 2 75.80604 54.13281
      vertex 0 75.80604 54.146107
      vertex 2 75.80604 54.146107
    endloop
  endfacet
  facet normal 0 1 0
    outer loop
      vertex 0 75.80604 54.146107
      vertex 2 75.80604 54.13281
      vertex 0 75.80604 54.13281
    endloop
  endfacet
  facet normal 0 -0.7313197 0.6820348
    outer loop
      vertex 12 73.804565 52
      vertex 12 66.93959 44.63895
      vertex 15 73.804565 52
    endloop
  endfacet
  facet normal 0 -0.73132116 0.6820333
    outer loop
      vertex 14.5 75.203476 53.5
      vertex 14 75.80604 54.146107
      vertex 14 75.203476 53.5
    endloop
  endfacet
  facet normal 0 -0.73132116 0.6820333
    outer loop
      vertex 14 75.80604 54.146107
      vertex 14.5 75.203476 53.5
      vertex 16 75.80604 54.146107
    endloop
  endfacet
  facet normal 5.375547e-7 -0.73132175 0.68203264
    outer loop
      vertex 15 74.737175 53
      vertex 16 75.80604 54.146107
      vertex 14.5 75.203476 53.5
    endloop
  endfacet
  facet normal -0.0000052410833 -0.73131925 0.6820353
    outer loop
      vertex 15 73.804565 52
      vertex 16 75.80604 54.146107
      vertex 15 74.737175 53
    endloop
  endfacet
  facet normal 0 -0.7313197 0.6820348
    outer loop
      vertex 16 66.93959 44.63895
      vertex 15 73.804565 52
      vertex 12 66.93959 44.63895
    endloop
  endfacet
  facet normal -0.0000023596474 -0.7313199 0.6820346
    outer loop
      vertex 15 73.804565 52
      vertex 16 66.93959 44.63895
      vertex 16 75.80604 54.146107
    endloop
  endfacet
  facet normal 0 -0.73132116 0.6820333
    outer loop
      vertex 0 75.80604 54.146107
      vertex 1.5 75.203476 53.5
      vertex 2 75.80604 54.146107
    endloop
  endfacet
  facet normal -5.375547e-7 -0.73132175 0.68203264
    outer loop
      vertex 0 75.80604 54.146107
      vertex 1 74.737175 53
      vertex 1.5 75.203476 53.5
    endloop
  endfacet
  facet normal 0.0000052410833 -0.73131925 0.6820353
    outer loop
      vertex 0 75.80604 54.146107
      vertex 1 73.804565 52
      vertex 1 74.737175 53
    endloop
  endfacet
  facet normal 0.0000023596474 -0.7313199 0.6820346
    outer loop
      vertex 0 66.93959 44.63895
      vertex 1 73.804565 52
      vertex 0 75.80604 54.146107
    endloop
  endfacet
  facet normal 0 -0.7313197 0.6820348
    outer loop
      vertex 2 66.93959 44.63895
      vertex 1 73.804565 52
      vertex 0 66.93959 44.63895
    endloop
  endfacet
  facet normal 0 -0.7313197 0.6820348
    outer loop
      vertex 1 73.804565 52
      vertex 2 66.93959 44.63895
      vertex 2 73.804565 52
    endloop
  endfacet
  facet normal 0 -0.73132116 0.6820333
    outer loop
      vertex 2 75.80604 54.146107
      vertex 1.5 75.203476 53.5
      vertex 2 75.203476 53.5
    endloop
  endfacet
  facet normal 0 1 0
    outer loop
      vertex 2 66.93959 44.63895
      vertex 0 66.93959 44.688236
      vertex 2 66.93959 44.688236
    endloop
  endfacet
  facet normal 0 1 0
    outer loop
      vertex 0 66.93959 44.688236
      vertex 2 66.93959 44.63895
      vertex 0 66.93959 44.63895
    endloop
  endfacet
  facet normal 0 1 0
    outer loop
      vertex 16 66.93959 44.63895
      vertex 12 66.93959 44.688236
      vertex 16 66.93959 44.688236
    endloop
  endfacet
  facet normal 0 1 0
    outer loop
      vertex 12 66.93959 44.688236
      vertex 16 66.93959 44.63895
      vertex 12 66.93959 44.63895
    endloop
  endfacet
  facet normal 1 0 0
    outer loop
      vertex 16 66.93959 44.688236
      vertex 16 66.2132 43.886795
      vertex 16 66.93959 44.63895
    endloop
  endfacet
  facet normal 1 0 0
    outer loop
      vertex 16 75.80604 54.146107
      vertex 16 66.93959 44.63895
      vertex 16 75.80604 54.13281
    endloop
  endfacet
  facet normal 1 0 0
    outer loop
      vertex 16 75.80604 54.13281
      vertex 16 88 55
      vertex 16 77.2751 55
    endloop
  endfacet
  facet normal 1 0 0
    outer loop
      vertex 16 76.33329 54.59441
      vertex 16 77.2751 55
      vertex 16 76.85195 54.87164
    endloop
  endfacet
  facet normal 1 0 0
    outer loop
      vertex 16 77.2751 55
      vertex 16 76.33329 54.59441
      vertex 16 75.80604 54.13281
    endloop
  endfacet
  facet normal 1 0 0
    outer loop
      vertex 16 75.80604 54.13281
      vertex 16 76.33329 54.59441
      vertex 16 75.87868 54.22132
    endloop
  endfacet
  facet normal 1 0 0
    outer loop
      vertex 16 88 55
      vertex 16 75.80604 54.13281
      vertex 16 66.93959 44.63895
    endloop
  endfacet
  facet normal 1 0 0
    outer loop
      vertex 16 88 55
      vertex 16 66.93959 44.63895
      vertex 16 88 0
    endloop
  endfacet
  facet normal 1 0 0
    outer loop
      vertex 16 66.2132 43.886795
      vertex 16 88 0
      vertex 16 66.93959 44.63895
    endloop
  endfacet
  facet normal 1 0 0
    outer loop
      vertex 16 64.0318 41.909687
      vertex 16 88 0
      vertex 16 66.2132 43.886795
    endloop
  endfacet
  facet normal 1 0 0
    outer loop
      vertex 16 61.667107 40.15591
      vertex 16 88 0
      vertex 16 64.0318 41.909687
    endloop
  endfacet
  facet normal 1 0 0
    outer loop
      vertex 16 59.141903 38.64236
      vertex 16 88 0
      vertex 16 61.667107 40.15591
    endloop
  endfacet
  facet normal 1 0 0
    outer loop
      vertex 16 56.480503 37.383614
      vertex 16 88 0
      vertex 16 59.141903 38.64236
    endloop
  endfacet
  facet normal 1 0 0
    outer loop
      vertex 16 53.70854 36.39179
      vertex 16 88 0
      vertex 16 56.480503 37.383614
    endloop
  endfacet
  facet normal 1 0 0
    outer loop
      vertex 16 50.852707 35.67644
      vertex 16 88 0
      vertex 16 53.70854 36.39179
    endloop
  endfacet
  facet normal 1 0 0
    outer loop
      vertex 16 47.940514 35.244457
      vertex 16 88 0
      vertex 16 50.852707 35.67644
    endloop
  endfacet
  facet normal 1 0 0
    outer loop
      vertex 16 45 35.1
      vertex 16 88 0
      vertex 16 47.940514 35.244457
    endloop
  endfacet
  facet normal 1 0 0
    outer loop
      vertex 16 2 0
      vertex 16 45 35.1
      vertex 16 42.059486 35.244457
    endloop
  endfacet
  facet normal 1 0 0
    outer loop
      vertex 16 2 0
      vertex 16 42.059486 35.244457
      vertex 16 39.147293 35.67644
    endloop
  endfacet
  facet normal 1 0 0
    outer loop
      vertex 16 2 0
      vertex 16 39.147293 35.67644
      vertex 16 36.29146 36.39179
    endloop
  endfacet
  facet normal 1 0 0
    outer loop
      vertex 16 2 0
      vertex 16 36.29146 36.39179
      vertex 16 33.519497 37.383614
    endloop
  endfacet
  facet normal 1 0 0
    outer loop
      vertex 16 2 0
      vertex 16 33.519497 37.383614
      vertex 16 30.858097 38.64236
    endloop
  endfacet
  facet normal 1 0 0
    outer loop
      vertex 16 2 0
      vertex 16 30.858097 38.64236
      vertex 16 28.332893 40.15591
    endloop
  endfacet
  facet normal 1 0 0
    outer loop
      vertex 16 23.060413 44.63895
      vertex 16 23.786797 43.886795
      vertex 16 23.060413 44.688236
    endloop
  endfacet
  facet normal 1 0 0
    outer loop
      vertex 16 14.193959 54.13281
      vertex 16 23.060413 44.63895
      vertex 16 14.193959 54.146107
    endloop
  endfacet
  facet normal 1 0 0
    outer loop
      vertex 16 13.66671 54.59441
      vertex 16 14.193959 54.13281
      vertex 16 14.12132 54.22132
    endloop
  endfacet
  facet normal 1 0 0
    outer loop
      vertex 16 12.7249 55
      vertex 16 14.193959 54.13281
      vertex 16 13.66671 54.59441
    endloop
  endfacet
  facet normal 1 0 0
    outer loop
      vertex 16 12.7249 55
      vertex 16 13.66671 54.59441
      vertex 16 13.148049 54.87164
    endloop
  endfacet
  facet normal 1 0 0
    outer loop
      vertex 16 14.193959 54.13281
      vertex 16 12.7249 55
      vertex 16 2 55
    endloop
  endfacet
  facet normal 1 0 0
    outer loop
      vertex 16 14.193959 54.13281
      vertex 16 2 55
      vertex 16 23.060413 44.63895
    endloop
  endfacet
  facet normal 1 0 0
    outer loop
      vertex 16 2 0
      vertex 16 23.060413 44.63895
      vertex 16 2 55
    endloop
  endfacet
  facet normal 1 0 0
    outer loop
      vertex 16 23.060413 44.63895
      vertex 16 2 0
      vertex 16 23.786797 43.886795
    endloop
  endfacet
  facet normal 1 0 0
    outer loop
      vertex 16 23.786797 43.886795
      vertex 16 2 0
      vertex 16 25.9682 41.909687
    endloop
  endfacet
  facet normal 1 0 0
    outer loop
      vertex 16 25.9682 41.909687
      vertex 16 2 0
      vertex 16 28.332893 40.15591
    endloop
  endfacet
  facet normal 1 0 0
    outer loop
      vertex 16 45 35.1
      vertex 16 2 0
      vertex 16 88 0
    endloop
  endfacet
  facet normal 0 0.2902844 0.9569404
    outer loop
      vertex 14 13.148049 54.87164
      vertex 16 12.7249 55
      vertex 16 13.148049 54.87164
    endloop
  endfacet
  facet normal 0 0.2902844 0.9569404
    outer loop
      vertex 16 12.7249 55
      vertex 14 13.148049 54.87164
      vertex 14 12.7249 55
    endloop
  endfacet
  facet normal 0 0.2902844 0.9569404
    outer loop
      vertex 0 13.148049 54.87164
      vertex 2 12.7249 55
      vertex 2 13.148049 54.87164
    endloop
  endfacet
  facet normal 0 0.2902844 0.9569404
    outer loop
      vertex 2 12.7249 55
      vertex 0 13.148049 54.87164
      vertex 0 12.7249 55
    endloop
  endfacet
  facet normal 0 0.47139603 0.88192165
    outer loop
      vertex 14 13.66671 54.59441
      vertex 16 13.148049 54.87164
      vertex 16 13.66671 54.59441
    endloop
  endfacet
  facet normal 0 0.47139603 0.88192165
    outer loop
      vertex 16 13.148049 54.87164
      vertex 14 13.66671 54.59441
      vertex 14 13.148049 54.87164
    endloop
  endfacet
  facet normal 0 0.47139603 0.88192165
    outer loop
      vertex 0 13.66671 54.59441
      vertex 2 13.148049 54.87164
      vertex 2 13.66671 54.59441
    endloop
  endfacet
  facet normal 0 0.47139603 0.88192165
    outer loop
      vertex 2 13.148049 54.87164
      vertex 0 13.66671 54.59441
      vertex 0 13.148049 54.87164
    endloop
  endfacet
  facet normal 0 0.63439345 0.7730103
    outer loop
      vertex 14 14.12132 54.22132
      vertex 16 13.66671 54.59441
      vertex 16 14.12132 54.22132
    endloop
  endfacet
  facet normal 0 0.63439345 0.7730103
    outer loop
      vertex 16 13.66671 54.59441
      vertex 14 14.12132 54.22132
      vertex 14 13.66671 54.59441
    endloop
  endfacet
  facet normal 0 0.63439345 0.7730103
    outer loop
      vertex 0 14.12132 54.22132
      vertex 2 13.66671 54.59441
      vertex 2 14.12132 54.22132
    endloop
  endfacet
  facet normal 0 0.63439345 0.7730103
    outer loop
      vertex 2 13.66671 54.59441
      vertex 0 14.12132 54.22132
      vertex 0 13.66671 54.59441
    endloop
  endfacet
  facet normal 0 0.7730139 0.6343891
    outer loop
      vertex 16 14.193959 54.13281
      vertex 14 14.12132 54.22132
      vertex 16 14.12132 54.22132
    endloop
  endfacet
  facet normal 0 0.7730139 0.6343891
    outer loop
      vertex 14 14.12132 54.22132
      vertex 16 14.193959 54.13281
      vertex 14 14.193959 54.13281
    endloop
  endfacet
  facet normal 0 0.7730139 0.6343891
    outer loop
      vertex 2 14.193959 54.13281
      vertex 0 14.12132 54.22132
      vertex 2 14.12132 54.22132
    endloop
  endfacet
  facet normal 0 0.7730139 0.6343891
    outer loop
      vertex 0 14.12132 54.22132
      vertex 2 14.193959 54.13281
      vertex 0 14.193959 54.13281
    endloop
  endfacet
  facet normal 0 -1 0
    outer loop
      vertex 14 14.193959 54.13281
      vertex 16 14.193959 54.146107
      vertex 14 14.193959 54.146107
    endloop
  endfacet
  facet normal 0 -1 0
    outer loop
      vertex 16 14.193959 54.146107
      vertex 14 14.193959 54.13281
      vertex 16 14.193959 54.13281
    endloop
  endfacet
  facet normal 0 -1 0
    outer loop
      vertex 0 14.193959 54.13281
      vertex 2 14.193959 54.146107
      vertex 0 14.193959 54.146107
    endloop
  endfacet
  facet normal 0 -1 0
    outer loop
      vertex 2 14.193959 54.146107
      vertex 0 14.193959 54.13281
      vertex 2 14.193959 54.13281
    endloop
  endfacet
  facet normal 0 0.7313201 0.68203443
    outer loop
      vertex 16 14.193959 54.146107
      vertex 14.5 14.796523 53.5
      vertex 14 14.193959 54.146107
    endloop
  endfacet
  facet normal -7.231661e-8 0.73131996 0.68203455
    outer loop
      vertex 16 14.193959 54.146107
      vertex 15 15.262827 53
      vertex 14.5 14.796523 53.5
    endloop
  endfacet
  facet normal -0.0000017538812 0.73131925 0.6820353
    outer loop
      vertex 16 14.193959 54.146107
      vertex 15 16.195436 52
      vertex 15 15.262827 53
    endloop
  endfacet
  facet normal 2.5495233e-8 0.73131967 0.68203485
    outer loop
      vertex 16 23.060413 44.63895
      vertex 15 16.195436 52
      vertex 16 14.193959 54.146107
    endloop
  endfacet
  facet normal 0 0.73131967 0.68203485
    outer loop
      vertex 12 23.060413 44.63895
      vertex 15 16.195436 52
      vertex 16 23.060413 44.63895
    endloop
  endfacet
  facet normal 0 0.73131967 0.68203485
    outer loop
      vertex 15 16.195436 52
      vertex 12 23.060413 44.63895
      vertex 12 16.195436 52
    endloop
  endfacet
  facet normal 0 0.7313201 0.68203443
    outer loop
      vertex 14 14.193959 54.146107
      vertex 14.5 14.796523 53.5
      vertex 14 14.796523 53.5
    endloop
  endfacet
  facet normal 0 0.73131967 0.68203485
    outer loop
      vertex 2 16.195436 52
      vertex 2 23.060413 44.63895
      vertex 1 16.195436 52
    endloop
  endfacet
  facet normal 0 0.7313201 0.68203443
    outer loop
      vertex 1.5 14.796523 53.5
      vertex 2 14.193959 54.146107
      vertex 2 14.796523 53.5
    endloop
  endfacet
  facet normal 0 0.7313201 0.68203443
    outer loop
      vertex 2 14.193959 54.146107
      vertex 1.5 14.796523 53.5
      vertex 0 14.193959 54.146107
    endloop
  endfacet
  facet normal 7.231661e-8 0.73131996 0.68203455
    outer loop
      vertex 1 15.262827 53
      vertex 0 14.193959 54.146107
      vertex 1.5 14.796523 53.5
    endloop
  endfacet
  facet normal 0.0000017538812 0.73131925 0.6820353
    outer loop
      vertex 1 16.195436 52
      vertex 0 14.193959 54.146107
      vertex 1 15.262827 53
    endloop
  endfacet
  facet normal 0 0.73131967 0.68203485
    outer loop
      vertex 0 23.060413 44.63895
      vertex 1 16.195436 52
      vertex 2 23.060413 44.63895
    endloop
  endfacet
  facet normal -2.5495233e-8 0.73131967 0.68203485
    outer loop
      vertex 1 16.195436 52
      vertex 0 23.060413 44.63895
      vertex 0 14.193959 54.146107
    endloop
  endfacet
  facet normal 0 -1 0
    outer loop
      vertex 0 23.060413 44.63895
      vertex 2 23.060413 44.688236
      vertex 0 23.060413 44.688236
    endloop
  endfacet
  facet normal 0 -1 0
    outer loop
      vertex 2 23.060413 44.688236
      vertex 0 23.060413 44.63895
      vertex 2 23.060413 44.63895
    endloop
  endfacet
  facet normal 0 -1 0
    outer loop
      vertex 12 23.060413 44.63895
      vertex 16 23.060413 44.688236
      vertex 12 23.060413 44.688236
    endloop
  endfacet
  facet normal 0 -1 0
    outer loop
      vertex 16 23.060413 44.688236
      vertex 12 23.060413 44.63895
      vertex 16 23.060413 44.63895
    endloop
  endfacet
  facet normal 0 -0.2429795 0.97003144
    outer loop
      vertex 12 53.70854 36.39179
      vertex 16 50.852707 35.67644
      vertex 16 53.70854 36.39179
    endloop
  endfacet
  facet normal 0 -0.2429795 0.97003144
    outer loop
      vertex 16 50.852707 35.67644
      vertex 12 53.70854 36.39179
      vertex 12 50.852707 35.67644
    endloop
  endfacet
  facet normal 0 -0.2429795 0.97003144
    outer loop
      vertex 0 53.70854 36.39179
      vertex 2 50.852707 35.67644
      vertex 2 53.70854 36.39179
    endloop
  endfacet
  facet normal 0 -0.2429795 0.97003144
    outer loop
      vertex 2 50.852707 35.67644
      vertex 0 53.70854 36.39179
      vertex 0 50.852707 35.67644
    endloop
  endfacet
  facet normal 0 0.3368903 0.9415439
    outer loop
      vertex 0 36.29146 36.39179
      vertex 2 33.519497 37.383614
      vertex 2 36.29146 36.39179
    endloop
  endfacet
  facet normal 0 0.3368903 0.9415439
    outer loop
      vertex 2 33.519497 37.383614
      vertex 0 36.29146 36.39179
      vertex 0 33.519497 37.383614
    endloop
  endfacet
  facet normal 0 0.3368903 0.9415439
    outer loop
      vertex 12 36.29146 36.39179
      vertex 16 33.519497 37.383614
      vertex 16 36.29146 36.39179
    endloop
  endfacet
  facet normal 0 0.3368903 0.9415439
    outer loop
      vertex 16 33.519497 37.383614
      vertex 12 36.29146 36.39179
      vertex 12 33.519497 37.383614
    endloop
  endfacet
  facet normal 0 0.5956995 0.8032074
    outer loop
      vertex 12 28.332893 40.15591
      vertex 16 25.9682 41.909687
      vertex 16 28.332893 40.15591
    endloop
  endfacet
  facet normal 0 0.5956995 0.8032074
    outer loop
      vertex 16 25.9682 41.909687
      vertex 12 28.332893 40.15591
      vertex 12 25.9682 41.909687
    endloop
  endfacet
  facet normal 0 0.5956995 0.8032074
    outer loop
      vertex 0 28.332893 40.15591
      vertex 2 25.9682 41.909687
      vertex 2 28.332893 40.15591
    endloop
  endfacet
  facet normal 0 0.5956995 0.8032074
    outer loop
      vertex 2 25.9682 41.909687
      vertex 0 28.332893 40.15591
      vertex 0 25.9682 41.909687
    endloop
  endfacet
  facet normal 0 0.6715587 0.74095136
    outer loop
      vertex 12 25.9682 41.909687
      vertex 16 23.786797 43.886795
      vertex 16 25.9682 41.909687
    endloop
  endfacet
  facet normal 0 0.6715587 0.74095136
    outer loop
      vertex 16 23.786797 43.886795
      vertex 12 25.9682 41.909687
      vertex 12 23.786797 43.886795
    endloop
  endfacet
  facet normal 0 0.6715587 0.74095136
    outer loop
      vertex 0 25.9682 41.909687
      vertex 2 23.786797 43.886795
      vertex 2 25.9682 41.909687
    endloop
  endfacet
  facet normal 0 0.6715587 0.74095136
    outer loop
      vertex 2 23.786797 43.886795
      vertex 0 25.9682 41.909687
      vertex 0 23.786797 43.886795
    endloop
  endfacet
  facet normal 0 -0.14673077 0.98917645
    outer loop
      vertex 12 50.852707 35.67644
      vertex 16 47.940514 35.244457
      vertex 16 50.852707 35.67644
    endloop
  endfacet
  facet normal 0 -0.14673077 0.98917645
    outer loop
      vertex 16 47.940514 35.244457
      vertex 12 50.852707 35.67644
      vertex 12 47.940514 35.244457
    endloop
  endfacet
  facet normal 0 -0.14673077 0.98917645
    outer loop
      vertex 0 50.852707 35.67644
      vertex 2 47.940514 35.244457
      vertex 2 50.852707 35.67644
    endloop
  endfacet
  facet normal 0 -0.14673077 0.98917645
    outer loop
      vertex 2 47.940514 35.244457
      vertex 0 50.852707 35.67644
      vertex 0 47.940514 35.244457
    endloop
  endfacet
  facet normal 0 -0.6715587 0.74095136
    outer loop
      vertex 12 66.2132 43.886795
      vertex 16 64.0318 41.909687
      vertex 16 66.2132 43.886795
    endloop
  endfacet
  facet normal 0 -0.6715587 0.74095136
    outer loop
      vertex 16 64.0318 41.909687
      vertex 12 66.2132 43.886795
      vertex 12 64.0318 41.909687
    endloop
  endfacet
  facet normal 0 -0.6715587 0.74095136
    outer loop
      vertex 0 66.2132 43.886795
      vertex 2 64.0318 41.909687
      vertex 2 66.2132 43.886795
    endloop
  endfacet
  facet normal 0 -0.6715587 0.74095136
    outer loop
      vertex 2 64.0318 41.909687
      vertex 0 66.2132 43.886795
      vertex 0 64.0318 41.909687
    endloop
  endfacet
  facet normal 0 0.049067877 0.99879545
    outer loop
      vertex 12 45 35.1
      vertex 16 42.059486 35.244457
      vertex 16 45 35.1
    endloop
  endfacet
  facet normal 0 0.049067877 0.99879545
    outer loop
      vertex 16 42.059486 35.244457
      vertex 12 45 35.1
      vertex 12 42.059486 35.244457
    endloop
  endfacet
  facet normal 0 0.049067877 0.99879545
    outer loop
      vertex 0 45 35.1
      vertex 2 42.059486 35.244457
      vertex 2 45 35.1
    endloop
  endfacet
  facet normal 0 0.049067877 0.99879545
    outer loop
      vertex 2 42.059486 35.244457
      vertex 0 45 35.1
      vertex 0 42.059486 35.244457
    endloop
  endfacet
  facet normal 0 -0.049067877 0.99879545
    outer loop
      vertex 12 47.940514 35.244457
      vertex 16 45 35.1
      vertex 16 47.940514 35.244457
    endloop
  endfacet
  facet normal 0 -0.049067877 0.99879545
    outer loop
      vertex 16 45 35.1
      vertex 12 47.940514 35.244457
      vertex 12 45 35.1
    endloop
  endfacet
  facet normal 0 -0.049067877 0.99879545
    outer loop
      vertex 0 47.940514 35.244457
      vertex 2 45 35.1
      vertex 2 47.940514 35.244457
    endloop
  endfacet
  facet normal 0 -0.049067877 0.99879545
    outer loop
      vertex 2 45 35.1
      vertex 0 47.940514 35.244457
      vertex 0 45 35.1
    endloop
  endfacet
  facet normal 0 -0.7409497 0.6715605
    outer loop
      vertex 12 66.2132 43.886795
      vertex 16 66.93959 44.688236
      vertex 12 66.93959 44.688236
    endloop
  endfacet
  facet normal 0 -0.7409497 0.6715605
    outer loop
      vertex 16 66.93959 44.688236
      vertex 12 66.2132 43.886795
      vertex 16 66.2132 43.886795
    endloop
  endfacet
  facet normal 0 -0.7409497 0.6715605
    outer loop
      vertex 0 66.2132 43.886795
      vertex 2 66.93959 44.688236
      vertex 0 66.93959 44.688236
    endloop
  endfacet
  facet normal 0 -0.7409497 0.6715605
    outer loop
      vertex 2 66.93959 44.688236
      vertex 0 66.2132 43.886795
      vertex 2 66.2132 43.886795
    endloop
  endfacet
  facet normal 0 0.7409515 0.67155856
    outer loop
      vertex 16 23.786797 43.886795
      vertex 12 23.060413 44.688236
      vertex 16 23.060413 44.688236
    endloop
  endfacet
  facet normal 0 0.7409515 0.67155856
    outer loop
      vertex 12 23.060413 44.688236
      vertex 16 23.786797 43.886795
      vertex 12 23.786797 43.886795
    endloop
  endfacet
  facet normal 0 0.7409515 0.67155856
    outer loop
      vertex 2 23.786797 43.886795
      vertex 0 23.060413 44.688236
      vertex 2 23.060413 44.688236
    endloop
  endfacet
  facet normal 0 0.7409515 0.67155856
    outer loop
      vertex 0 23.060413 44.688236
      vertex 2 23.786797 43.886795
      vertex 0 23.786797 43.886795
    endloop
  endfacet
  facet normal 0 0.42755473 0.90398943
    outer loop
      vertex 12 33.519497 37.383614
      vertex 16 30.858097 38.64236
      vertex 16 33.519497 37.383614
    endloop
  endfacet
  facet normal 0 0.42755473 0.90398943
    outer loop
      vertex 16 30.858097 38.64236
      vertex 12 33.519497 37.383614
      vertex 12 30.858097 38.64236
    endloop
  endfacet
  facet normal 0 0.42755473 0.90398943
    outer loop
      vertex 0 33.519497 37.383614
      vertex 2 30.858097 38.64236
      vertex 2 33.519497 37.383614
    endloop
  endfacet
  facet normal 0 0.42755473 0.90398943
    outer loop
      vertex 2 30.858097 38.64236
      vertex 0 33.519497 37.383614
      vertex 0 30.858097 38.64236
    endloop
  endfacet
  facet normal 0 -0.5956995 0.8032074
    outer loop
      vertex 12 64.0318 41.909687
      vertex 16 61.667107 40.15591
      vertex 16 64.0318 41.909687
    endloop
  endfacet
  facet normal 0 -0.5956995 0.8032074
    outer loop
      vertex 16 61.667107 40.15591
      vertex 12 64.0318 41.909687
      vertex 12 61.667107 40.15591
    endloop
  endfacet
  facet normal 0 -0.5956995 0.8032074
    outer loop
      vertex 0 64.0318 41.909687
      vertex 2 61.667107 40.15591
      vertex 2 64.0318 41.909687
    endloop
  endfacet
  facet normal 0 -0.5956995 0.8032074
    outer loop
      vertex 2 61.667107 40.15591
      vertex 0 64.0318 41.909687
      vertex 0 61.667107 40.15591
    endloop
  endfacet
  facet normal 0 -0.42755473 0.90398943
    outer loop
      vertex 12 59.141903 38.64236
      vertex 16 56.480503 37.383614
      vertex 16 59.141903 38.64236
    endloop
  endfacet
  facet normal 0 -0.42755473 0.90398943
    outer loop
      vertex 16 56.480503 37.383614
      vertex 12 59.141903 38.64236
      vertex 12 56.480503 37.383614
    endloop
  endfacet
  facet normal 0 -0.42755473 0.90398943
    outer loop
      vertex 0 59.141903 38.64236
      vertex 2 56.480503 37.383614
      vertex 2 59.141903 38.64236
    endloop
  endfacet
  facet normal 0 -0.42755473 0.90398943
    outer loop
      vertex 2 56.480503 37.383614
      vertex 0 59.141903 38.64236
      vertex 0 56.480503 37.383614
    endloop
  endfacet
  facet normal 0 -0.514103 0.8577285
    outer loop
      vertex 0 61.667107 40.15591
      vertex 2 59.141903 38.64236
      vertex 2 61.667107 40.15591
    endloop
  endfacet
  facet normal 0 -0.514103 0.8577285
    outer loop
      vertex 2 59.141903 38.64236
      vertex 0 61.667107 40.15591
      vertex 0 59.141903 38.64236
    endloop
  endfacet
  facet normal 0 -0.514103 0.8577285
    outer loop
      vertex 12 61.667107 40.15591
      vertex 16 59.141903 38.64236
      vertex 16 61.667107 40.15591
    endloop
  endfacet
  facet normal 0 -0.514103 0.8577285
    outer loop
      vertex 16 59.141903 38.64236
      vertex 12 61.667107 40.15591
      vertex 12 59.141903 38.64236
    endloop
  endfacet
  facet normal 0 0.2429795 0.97003144
    outer loop
      vertex 0 39.147293 35.67644
      vertex 2 36.29146 36.39179
      vertex 2 39.147293 35.67644
    endloop
  endfacet
  facet normal 0 0.2429795 0.97003144
    outer loop
      vertex 2 36.29146 36.39179
      vertex 0 39.147293 35.67644
      vertex 0 36.29146 36.39179
    endloop
  endfacet
  facet normal 0 0.2429795 0.97003144
    outer loop
      vertex 12 39.147293 35.67644
      vertex 16 36.29146 36.39179
      vertex 16 39.147293 35.67644
    endloop
  endfacet
  facet normal 0 0.2429795 0.97003144
    outer loop
      vertex 16 36.29146 36.39179
      vertex 12 39.147293 35.67644
      vertex 12 36.29146 36.39179
    endloop
  endfacet
  facet normal 0 0.14673077 0.98917645
    outer loop
      vertex 0 42.059486 35.244457
      vertex 2 39.147293 35.67644
      vertex 2 42.059486 35.244457
    endloop
  endfacet
  facet normal 0 0.14673077 0.98917645
    outer loop
      vertex 2 39.147293 35.67644
      vertex 0 42.059486 35.244457
      vertex 0 39.147293 35.67644
    endloop
  endfacet
  facet normal 0 0.14673077 0.98917645
    outer loop
      vertex 12 42.059486 35.244457
      vertex 16 39.147293 35.67644
      vertex 16 42.059486 35.244457
    endloop
  endfacet
  facet normal 0 0.14673077 0.98917645
    outer loop
      vertex 16 39.147293 35.67644
      vertex 12 42.059486 35.244457
      vertex 12 39.147293 35.67644
    endloop
  endfacet
  facet normal 0 -0.3368903 0.9415439
    outer loop
      vertex 12 56.480503 37.383614
      vertex 16 53.70854 36.39179
      vertex 16 56.480503 37.383614
    endloop
  endfacet
  facet normal 0 -0.3368903 0.9415439
    outer loop
      vertex 16 53.70854 36.39179
      vertex 12 56.480503 37.383614
      vertex 12 53.70854 36.39179
    endloop
  endfacet
  facet normal 0 -0.3368903 0.9415439
    outer loop
      vertex 0 56.480503 37.383614
      vertex 2 53.70854 36.39179
      vertex 2 56.480503 37.383614
    endloop
  endfacet
  facet normal 0 -0.3368903 0.9415439
    outer loop
      vertex 2 53.70854 36.39179
      vertex 0 56.480503 37.383614
      vertex 0 53.70854 36.39179
    endloop
  endfacet
  facet normal 0 0.514103 0.8577285
    outer loop
      vertex 12 30.858097 38.64236
      vertex 16 28.332893 40.15591
      vertex 16 30.858097 38.64236
    endloop
  endfacet
  facet normal 0 0.514103 0.8577285
    outer loop
      vertex 16 28.332893 40.15591
      vertex 12 30.858097 38.64236
      vertex 12 28.332893 40.15591
    endloop
  endfacet
  facet normal 0 0.514103 0.8577285
    outer loop
      vertex 0 30.858097 38.64236
      vertex 2 28.332893 40.15591
      vertex 2 30.858097 38.64236
    endloop
  endfacet
  facet normal 0 0.514103 0.8577285
    outer loop
      vertex 2 28.332893 40.15591
      vertex 0 30.858097 38.64236
      vertex 0 28.332893 40.15591
    endloop
  endfacet
  facet normal -1 0 0
    outer loop
      vertex 12 66.93959 44.63895
      vertex 12 79 52
      vertex 12 79 7
    endloop
  endfacet
  facet normal -1 0 0
    outer loop
      vertex 12 79 52
      vertex 12 66.93959 44.63895
      vertex 12 73.804565 52
    endloop
  endfacet
  facet normal -1 0 0
    outer loop
      vertex 12 66.93959 44.63895
      vertex 12 66.2132 43.886795
      vertex 12 66.93959 44.688236
    endloop
  endfacet
  facet normal -1 0 0
    outer loop
      vertex 12 79 7
      vertex 12 66.2132 43.886795
      vertex 12 66.93959 44.63895
    endloop
  endfacet
  facet normal -1 0 0
    outer loop
      vertex 12 79 7
      vertex 12 64.0318 41.909687
      vertex 12 66.2132 43.886795
    endloop
  endfacet
  facet normal -1 0 0
    outer loop
      vertex 12 79 7
      vertex 12 61.667107 40.15591
      vertex 12 64.0318 41.909687
    endloop
  endfacet
  facet normal -1 0 0
    outer loop
      vertex 12 79 7
      vertex 12 59.141903 38.64236
      vertex 12 61.667107 40.15591
    endloop
  endfacet
  facet normal -1 0 0
    outer loop
      vertex 12 79 7
      vertex 12 56.480503 37.383614
      vertex 12 59.141903 38.64236
    endloop
  endfacet
  facet normal -1 0 0
    outer loop
      vertex 12 79 7
      vertex 12 53.70854 36.39179
      vertex 12 56.480503 37.383614
    endloop
  endfacet
  facet normal -1 0 0
    outer loop
      vertex 12 79 7
      vertex 12 50.852707 35.67644
      vertex 12 53.70854 36.39179
    endloop
  endfacet
  facet normal -1 0 0
    outer loop
      vertex 12 79 7
      vertex 12 47.940514 35.244457
      vertex 12 50.852707 35.67644
    endloop
  endfacet
  facet normal -1 0 0
    outer loop
      vertex 12 79 7
      vertex 12 45 35.1
      vertex 12 47.940514 35.244457
    endloop
  endfacet
  facet normal -1 0 0
    outer loop
      vertex 12 11 7
      vertex 12 45 35.1
      vertex 12 79 7
    endloop
  endfacet
  facet normal -1 0 0
    outer loop
      vertex 12 45 35.1
      vertex 12 11 7
      vertex 12 42.059486 35.244457
    endloop
  endfacet
  facet normal -1 0 0
    outer loop
      vertex 12 42.059486 35.244457
      vertex 12 11 7
      vertex 12 39.147293 35.67644
    endloop
  endfacet
  facet normal -1 0 0
    outer loop
      vertex 12 39.147293 35.67644
      vertex 12 11 7
      vertex 12 36.29146 36.39179
    endloop
  endfacet
  facet normal -1 0 0
    outer loop
      vertex 12 36.29146 36.39179
      vertex 12 11 7
      vertex 12 33.519497 37.383614
    endloop
  endfacet
  facet normal -1 0 0
    outer loop
      vertex 12 33.519497 37.383614
      vertex 12 11 7
      vertex 12 30.858097 38.64236
    endloop
  endfacet
  facet normal -1 0 0
    outer loop
      vertex 12 30.858097 38.64236
      vertex 12 11 7
      vertex 12 28.332893 40.15591
    endloop
  endfacet
  facet normal -1 0 0
    outer loop
      vertex 12 11 7
      vertex 12 25.9682 41.909687
      vertex 12 28.332893 40.15591
    endloop
  endfacet
  facet normal -1 0 0
    outer loop
      vertex 12 11 7
      vertex 12 23.786797 43.886795
      vertex 12 25.9682 41.909687
    endloop
  endfacet
  facet normal -1 0 0
    outer loop
      vertex 12 11 7
      vertex 12 23.060413 44.63895
      vertex 12 23.786797 43.886795
    endloop
  endfacet
  facet normal -1 0 0
    outer loop
      vertex 12 11 52
      vertex 12 23.060413 44.63895
      vertex 12 11 7
    endloop
  endfacet
  facet normal -1 0 0
    outer loop
      vertex 12 23.060413 44.63895
      vertex 12 11 52
      vertex 12 16.195436 52
    endloop
  endfacet
  facet normal -1 0 0
    outer loop
      vertex 12 23.786797 43.886795
      vertex 12 23.060413 44.63895
      vertex 12 23.060413 44.688236
    endloop
  endfacet
  facet normal 0 0 1
    outer loop
      vertex 2 79 7
      vertex 12 11 7
      vertex 12 79 7
    endloop
  endfacet
  facet normal 0 0 1
    outer loop
      vertex 12 11 7
      vertex 2 79 7
      vertex 2 11 7
    endloop
  endfacet
  facet normal 1 0 0
    outer loop
      vertex 2 66.93959 44.688236
      vertex 2 66.2132 43.886795
      vertex 2 66.93959 44.63895
    endloop
  endfacet
  facet normal 1 0 0
    outer loop
      vertex 2 66.93959 44.63895
      vertex 2 79 52
      vertex 2 73.804565 52
    endloop
  endfacet
  facet normal 1 0 0
    outer loop
      vertex 2 79 52
      vertex 2 66.93959 44.63895
      vertex 2 79 7
    endloop
  endfacet
  facet normal 1 0 0
    outer loop
      vertex 2 66.2132 43.886795
      vertex 2 79 7
      vertex 2 66.93959 44.63895
    endloop
  endfacet
  facet normal 1 0 0
    outer loop
      vertex 2 64.0318 41.909687
      vertex 2 79 7
      vertex 2 66.2132 43.886795
    endloop
  endfacet
  facet normal 1 0 0
    outer loop
      vertex 2 61.667107 40.15591
      vertex 2 79 7
      vertex 2 64.0318 41.909687
    endloop
  endfacet
  facet normal 1 0 0
    outer loop
      vertex 2 59.141903 38.64236
      vertex 2 79 7
      vertex 2 61.667107 40.15591
    endloop
  endfacet
  facet normal 1 0 0
    outer loop
      vertex 2 56.480503 37.383614
      vertex 2 79 7
      vertex 2 59.141903 38.64236
    endloop
  endfacet
  facet normal 1 0 0
    outer loop
      vertex 2 53.70854 36.39179
      vertex 2 79 7
      vertex 2 56.480503 37.383614
    endloop
  endfacet
  facet normal 1 0 0
    outer loop
      vertex 2 50.852707 35.67644
      vertex 2 79 7
      vertex 2 53.70854 36.39179
    endloop
  endfacet
  facet normal 1 0 0
    outer loop
      vertex 2 47.940514 35.244457
      vertex 2 79 7
      vertex 2 50.852707 35.67644
    endloop
  endfacet
  facet normal 1 0 0
    outer loop
      vertex 2 45 35.1
      vertex 2 79 7
      vertex 2 47.940514 35.244457
    endloop
  endfacet
  facet normal 1 0 0
    outer loop
      vertex 2 11 7
      vertex 2 45 35.1
      vertex 2 42.059486 35.244457
    endloop
  endfacet
  facet normal 1 0 0
    outer loop
      vertex 2 11 7
      vertex 2 42.059486 35.244457
      vertex 2 39.147293 35.67644
    endloop
  endfacet
  facet normal 1 0 0
    outer loop
      vertex 2 11 7
      vertex 2 39.147293 35.67644
      vertex 2 36.29146 36.39179
    endloop
  endfacet
  facet normal 1 0 0
    outer loop
      vertex 2 11 7
      vertex 2 36.29146 36.39179
      vertex 2 33.519497 37.383614
    endloop
  endfacet
  facet normal 1 0 0
    outer loop
      vertex 2 11 7
      vertex 2 33.519497 37.383614
      vertex 2 30.858097 38.64236
    endloop
  endfacet
  facet normal 1 0 0
    outer loop
      vertex 2 11 7
      vertex 2 30.858097 38.64236
      vertex 2 28.332893 40.15591
    endloop
  endfacet
  facet normal 1 0 0
    outer loop
      vertex 2 23.060413 44.63895
      vertex 2 23.786797 43.886795
      vertex 2 23.060413 44.688236
    endloop
  endfacet
  facet normal 1 0 0
    outer loop
      vertex 2 11 52
      vertex 2 23.060413 44.63895
      vertex 2 16.195436 52
    endloop
  endfacet
  facet normal 1 0 0
    outer loop
      vertex 2 11 7
      vertex 2 23.060413 44.63895
      vertex 2 11 52
    endloop
  endfacet
  facet normal 1 0 0
    outer loop
      vertex 2 23.060413 44.63895
      vertex 2 11 7
      vertex 2 23.786797 43.886795
    endloop
  endfacet
  facet normal 1 0 0
    outer loop
      vertex 2 23.786797 43.886795
      vertex 2 11 7
      vertex 2 25.9682 41.909687
    endloop
  endfacet
  facet normal 1 0 0
    outer loop
      vertex 2 45 35.1
      vertex 2 11 7
      vertex 2 79 7
    endloop
  endfacet
  facet normal 1 0 0
    outer loop
      vertex 2 25.9682 41.909687
      vertex 2 11 7
      vertex 2 28.332893 40.15591
    endloop
  endfacet
  facet normal 0 -1 0
    outer loop
      vertex 2 79 7
      vertex 12 79 52
      vertex 2 79 52
    endloop
  endfacet
  facet normal 0 -1 0
    outer loop
      vertex 12 79 52
      vertex 2 79 7
      vertex 12 79 7
    endloop
  endfacet
  facet normal 0 1 0
    outer loop
      vertex 12 11 7
      vertex 2 11 52
      vertex 12 11 52
    endloop
  endfacet
  facet normal 0 1 0
    outer loop
      vertex 2 11 52
      vertex 12 11 7
      vertex 2 11 7
    endloop
  endfacet
  facet normal 0 -1 0
    outer loop
      vertex 2 0 0
      vertex 14 0 52
      vertex 2 0 52
    endloop
  endfacet
  facet normal 0 -1 0
    outer loop
      vertex 14 0 52
      vertex 2 0 0
      vertex 14 0 0
    endloop
  endfacet
  facet normal -1 0 0
    outer loop
      vertex 0 66.93959 44.63895
      vertex 0 88 55
      vertex 0 88 0
    endloop
  endfacet
  facet normal -1 0 0
    outer loop
      vertex 0 75.80604 54.13281
      vertex 0 88 55
      vertex 0 66.93959 44.63895
    endloop
  endfacet
  facet normal -1 0 0
    outer loop
      vertex 0 76.33329 54.59441
      vertex 0 77.2751 55
      vertex 0 75.80604 54.13281
    endloop
  endfacet
  facet normal -1 0 0
    outer loop
      vertex 0 77.2751 55
      vertex 0 76.33329 54.59441
      vertex 0 76.85195 54.87164
    endloop
  endfacet
  facet normal -1 0 0
    outer loop
      vertex 0 76.33329 54.59441
      vertex 0 75.80604 54.13281
      vertex 0 75.87868 54.22132
    endloop
  endfacet
  facet normal -1 0 0
    outer loop
      vertex 0 75.80604 54.13281
      vertex 0 66.93959 44.63895
      vertex 0 75.80604 54.146107
    endloop
  endfacet
  facet normal -1 0 0
    outer loop
      vertex 0 88 55
      vertex 0 75.80604 54.13281
      vertex 0 77.2751 55
    endloop
  endfacet
  facet normal -1 0 0
    outer loop
      vertex 0 66.93959 44.63895
      vertex 0 66.2132 43.886795
      vertex 0 66.93959 44.688236
    endloop
  endfacet
  facet normal -1 0 0
    outer loop
      vertex 0 88 0
      vertex 0 66.2132 43.886795
      vertex 0 66.93959 44.63895
    endloop
  endfacet
  facet normal -1 0 0
    outer loop
      vertex 0 88 0
      vertex 0 64.0318 41.909687
      vertex 0 66.2132 43.886795
    endloop
  endfacet
  facet normal -1 0 0
    outer loop
      vertex 0 88 0
      vertex 0 61.667107 40.15591
      vertex 0 64.0318 41.909687
    endloop
  endfacet
  facet normal -1 0 0
    outer loop
      vertex 0 88 0
      vertex 0 59.141903 38.64236
      vertex 0 61.667107 40.15591
    endloop
  endfacet
  facet normal -1 0 0
    outer loop
      vertex 0 88 0
      vertex 0 56.480503 37.383614
      vertex 0 59.141903 38.64236
    endloop
  endfacet
  facet normal -1 0 0
    outer loop
      vertex 0 88 0
      vertex 0 53.70854 36.39179
      vertex 0 56.480503 37.383614
    endloop
  endfacet
  facet normal -1 0 0
    outer loop
      vertex 0 88 0
      vertex 0 50.852707 35.67644
      vertex 0 53.70854 36.39179
    endloop
  endfacet
  facet normal -1 0 0
    outer loop
      vertex 0 88 0
      vertex 0 47.940514 35.244457
      vertex 0 50.852707 35.67644
    endloop
  endfacet
  facet normal -1 0 0
    outer loop
      vertex 0 88 0
      vertex 0 45 35.1
      vertex 0 47.940514 35.244457
    endloop
  endfacet
  facet normal -1 0 0
    outer loop
      vertex 0 2 0
      vertex 0 45 35.1
      vertex 0 88 0
    endloop
  endfacet
  facet normal -1 0 0
    outer loop
      vertex 0 45 35.1
      vertex 0 2 0
      vertex 0 42.059486 35.244457
    endloop
  endfacet
  facet normal -1 0 0
    outer loop
      vertex 0 42.059486 35.244457
      vertex 0 2 0
      vertex 0 39.147293 35.67644
    endloop
  endfacet
  facet normal -1 0 0
    outer loop
      vertex 0 39.147293 35.67644
      vertex 0 2 0
      vertex 0 36.29146 36.39179
    endloop
  endfacet
  facet normal -1 0 0
    outer loop
      vertex 0 36.29146 36.39179
      vertex 0 2 0
      vertex 0 33.519497 37.383614
    endloop
  endfacet
  facet normal -1 0 0
    outer loop
      vertex 0 33.519497 37.383614
      vertex 0 2 0
      vertex 0 30.858097 38.64236
    endloop
  endfacet
  facet normal -1 0 0
    outer loop
      vertex 0 14.193959 54.13281
      vertex 0 13.66671 54.59441
      vertex 0 14.12132 54.22132
    endloop
  endfacet
  facet normal -1 0 0
    outer loop
      vertex 0 2 55
      vertex 0 14.193959 54.13281
      vertex 0 23.060413 44.63895
    endloop
  endfacet
  facet normal -1 0 0
    outer loop
      vertex 0 12.7249 55
      vertex 0 14.193959 54.13281
      vertex 0 2 55
    endloop
  endfacet
  facet normal -1 0 0
    outer loop
      vertex 0 2 0
      vertex 0 23.060413 44.63895
      vertex 0 23.786797 43.886795
    endloop
  endfacet
  facet normal -1 0 0
    outer loop
      vertex 0 13.66671 54.59441
      vertex 0 12.7249 55
      vertex 0 13.148049 54.87164
    endloop
  endfacet
  facet normal -1 0 0
    outer loop
      vertex 0 30.858097 38.64236
      vertex 0 2 0
      vertex 0 28.332893 40.15591
    endloop
  endfacet
  facet normal -1 0 0
    outer loop
      vertex 0 2 0
      vertex 0 25.9682 41.909687
      vertex 0 28.332893 40.15591
    endloop
  endfacet
  facet normal -1 0 0
    outer loop
      vertex 0 2 0
      vertex 0 23.786797 43.886795
      vertex 0 25.9682 41.909687
    endloop
  endfacet
  facet normal -1 0 0
    outer loop
      vertex 0 23.060413 44.63895
      vertex 0 2 0
      vertex 0 2 55
    endloop
  endfacet
  facet normal -1 0 0
    outer loop
      vertex 0 14.193959 54.13281
      vertex 0 12.7249 55
      vertex 0 13.66671 54.59441
    endloop
  endfacet
  facet normal -1 0 0
    outer loop
      vertex 0 23.786797 43.886795
      vertex 0 23.060413 44.63895
      vertex 0 23.060413 44.688236
    endloop
  endfacet
  facet normal -1 0 0
    outer loop
      vertex 0 23.060413 44.63895
      vertex 0 14.193959 54.13281
      vertex 0 14.193959 54.146107
    endloop
  endfacet
  facet normal -0.38268268 0.92387986 0
    outer loop
      vertex 2 90 0
      vertex 0.5857868 89.414215 55
      vertex 2 90 55
    endloop
  endfacet
  facet normal -0.38268268 0.92387986 0
    outer loop
      vertex 0.5857868 89.414215 55
      vertex 2 90 0
      vertex 0.5857868 89.414215 0
    endloop
  endfacet
  facet normal 0.9238794 -0.38268372 0
    outer loop
      vertex 15.414213 0.5857868 55
      vertex 16 2 0
      vertex 16 2 55
    endloop
  endfacet
  facet normal 0.9238794 -0.38268372 0
    outer loop
      vertex 16 2 0
      vertex 15.414213 0.5857868 55
      vertex 15.414213 0.5857868 0
    endloop
  endfacet
  facet normal -0.9238794 -0.38268372 0
    outer loop
      vertex 0.5857868 0.5857868 0
      vertex 0 2 55
      vertex 0 2 0
    endloop
  endfacet
  facet normal -0.9238794 -0.38268372 0
    outer loop
      vertex 0 2 55
      vertex 0.5857868 0.5857868 0
      vertex 0.5857868 0.5857868 55
    endloop
  endfacet
  facet normal -0.92387956 0.3826833 0
    outer loop
      vertex 0 88 0
      vertex 0.5857868 89.414215 55
      vertex 0.5857868 89.414215 0
    endloop
  endfacet
  facet normal -0.92387956 0.3826833 0
    outer loop
      vertex 0.5857868 89.414215 55
      vertex 0 88 0
      vertex 0 88 55
    endloop
  endfacet
  facet normal 0.92387956 0.3826833 0
    outer loop
      vertex 16 88 55
      vertex 15.414213 89.414215 0
      vertex 15.414213 89.414215 55
    endloop
  endfacet
  facet normal 0.92387956 0.3826833 0
    outer loop
      vertex 15.414213 89.414215 0
      vertex 16 88 55
      vertex 16 88 0
    endloop
  endfacet
  facet normal 0 0 1
    outer loop
      vertex 2 90 55
      vertex 14 88.2 55
      vertex 14 90 55
    endloop
  endfacet
  facet normal 0 0 1
    outer loop
      vertex 2 90 55
      vertex 2 88.2 55
      vertex 14 88.2 55
    endloop
  endfacet
  facet normal 0 0 1
    outer loop
      vertex 0.5857868 89.414215 55
      vertex 2 88.2 55
      vertex 2 90 55
    endloop
  endfacet
  facet normal 0 0 1
    outer loop
      vertex 2 88.2 55
      vertex 0.5857868 89.414215 55
      vertex 0 88 55
    endloop
  endfacet
  facet normal 0 0 1
    outer loop
      vertex 2 88.2 55
      vertex 0 88 55
      vertex 2 77.2751 55
    endloop
  endfacet
  facet normal 0 0 1
    outer loop
      vertex 2 77.2751 55
      vertex 0 88 55
      vertex 0 77.2751 55
    endloop
  endfacet
  facet normal 0 0 1
    outer loop
      vertex 14 88.2 55
      vertex 16 88 55
      vertex 15.414213 89.414215 55
    endloop
  endfacet
  facet normal 0 0 1
    outer loop
      vertex 14 88.2 55
      vertex 15.414213 89.414215 55
      vertex 14 90 55
    endloop
  endfacet
  facet normal 0 0 1
    outer loop
      vertex 14 77.2751 55
      vertex 16 88 55
      vertex 14 88.2 55
    endloop
  endfacet
  facet normal 0 0 1
    outer loop
      vertex 16 88 55
      vertex 14 77.2751 55
      vertex 16 77.2751 55
    endloop
  endfacet
  facet normal 0 0 1
    outer loop
      vertex 0 2 55
      vertex 2 0 55
      vertex 2 12.7249 55
    endloop
  endfacet
  facet normal 0 0 1
    outer loop
      vertex 0 2 55
      vertex 2 12.7249 55
      vertex 0 12.7249 55
    endloop
  endfacet
  facet normal 0 0 1
    outer loop
      vertex 2 0 55
      vertex 0 2 55
      vertex 0.5857868 0.5857868 55
    endloop
  endfacet
  facet normal 0 0 1
    outer loop
      vertex 14 12.7249 55
      vertex 16 2 55
      vertex 16 12.7249 55
    endloop
  endfacet
  facet normal 0 0 1
    outer loop
      vertex 14 0 55
      vertex 16 2 55
      vertex 14 12.7249 55
    endloop
  endfacet
  facet normal 0 0 1
    outer loop
      vertex 16 2 55
      vertex 14 0 55
      vertex 15.414213 0.5857868 55
    endloop
  endfacet
  facet normal 0.38268375 -0.9238794 0
    outer loop
      vertex 14 0 52
      vertex 14 0 0
      vertex 15 0.41421396 52
    endloop
  endfacet
  facet normal 0.38268375 -0.9238794 0
    outer loop
      vertex 14.5 0.20710698 53.5
      vertex 14 0 55
      vertex 14 0 53.5
    endloop
  endfacet
  facet normal 0.38268372 -0.9238794 -3.4485563e-9
    outer loop
      vertex 14 0 55
      vertex 14.5 0.20710698 53.5
      vertex 15.414213 0.5857868 55
    endloop
  endfacet
  facet normal 0.38268372 -0.9238794 -6.060352e-9
    outer loop
      vertex 15 0.41421396 53
      vertex 15.414213 0.5857868 55
      vertex 14.5 0.20710698 53.5
    endloop
  endfacet
  facet normal 0.38268372 -0.92387944 0
    outer loop
      vertex 15 0.41421396 52
      vertex 15.414213 0.5857868 55
      vertex 15 0.41421396 53
    endloop
  endfacet
  facet normal 0.38268372 -0.9238794 1.9895519e-10
    outer loop
      vertex 15.414213 0.5857868 0
      vertex 15 0.41421396 52
      vertex 14 0 0
    endloop
  endfacet
  facet normal 0.38268372 -0.92387944 0
    outer loop
      vertex 15 0.41421396 52
      vertex 15.414213 0.5857868 0
      vertex 15.414213 0.5857868 55
    endloop
  endfacet
  facet normal -0.38268372 -0.9238794 -3.4485563e-9
    outer loop
      vertex 0.5857868 0.5857868 55
      vertex 1.5 0.20710698 53.5
      vertex 2 0 55
    endloop
  endfacet
  facet normal -0.38268372 -0.9238794 -6.060352e-9
    outer loop
      vertex 0.5857868 0.5857868 55
      vertex 1 0.41421396 53
      vertex 1.5 0.20710698 53.5
    endloop
  endfacet
  facet normal -0.38268372 -0.92387944 0
    outer loop
      vertex 0.5857868 0.5857868 55
      vertex 1 0.41421396 52
      vertex 1 0.41421396 53
    endloop
  endfacet
  facet normal -0.38268372 -0.92387944 0
    outer loop
      vertex 0.5857868 0.5857868 0
      vertex 1 0.41421396 52
      vertex 0.5857868 0.5857868 55
    endloop
  endfacet
  facet normal -0.38268375 -0.9238794 2.8136504e-10
    outer loop
      vertex 0.5857868 0.5857868 0
      vertex 2 0 52
      vertex 1 0.41421396 52
    endloop
  endfacet
  facet normal -0.38268372 -0.9238794 0
    outer loop
      vertex 2 0 52
      vertex 0.5857868 0.5857868 0
      vertex 2 0 0
    endloop
  endfacet
  facet normal -0.38268375 -0.9238794 0
    outer loop
      vertex 2 0 55
      vertex 1.5 0.20710698 53.5
      vertex 2 0 53.5
    endloop
  endfacet
  facet normal 0 0 -1
    outer loop
      vertex 14 0 0
      vertex 16 2 0
      vertex 15.414213 0.5857868 0
    endloop
  endfacet
  facet normal 0 0 -1
    outer loop
      vertex 16 2 0
      vertex 0 2 0
      vertex 16 88 0
    endloop
  endfacet
  facet normal 0 0 -1
    outer loop
      vertex 16 2 0
      vertex 14 0 0
      vertex 0 2 0
    endloop
  endfacet
  facet normal 0 0 -1
    outer loop
      vertex 0 88 0
      vertex 16 88 0
      vertex 0 2 0
    endloop
  endfacet
  facet normal 0 0 -1
    outer loop
      vertex 0 2 0
      vertex 14 0 0
      vertex 2 0 0
    endloop
  endfacet
  facet normal 0 0 -1
    outer loop
      vertex 14 90 0
      vertex 16 88 0
      vertex 0 88 0
    endloop
  endfacet
  facet normal 0 0 -1
    outer loop
      vertex 0 2 0
      vertex 2 0 0
      vertex 0.5857868 0.5857868 0
    endloop
  endfacet
  facet normal 0 0 -1
    outer loop
      vertex 16 88 0
      vertex 14 90 0
      vertex 15.414213 89.414215 0
    endloop
  endfacet
  facet normal 0 0 -1
    outer loop
      vertex 14 90 0
      vertex 0 88 0
      vertex 2 90 0
    endloop
  endfacet
  facet normal 0 0 -1
    outer loop
      vertex 2 90 0
      vertex 0 88 0
      vertex 0.5857868 89.414215 0
    endloop
  endfacet
  facet normal 0.38268268 0.92387986 0
    outer loop
      vertex 15.414213 89.414215 0
      vertex 14 90 55
      vertex 15.414213 89.414215 55
    endloop
  endfacet
  facet normal 0.38268268 0.92387986 0
    outer loop
      vertex 14 90 55
      vertex 15.414213 89.414215 0
      vertex 14 90 0
    endloop
  endfacet
  facet normal 0 1 0
    outer loop
      vertex 14 90 0
      vertex 2 90 55
      vertex 14 90 55
    endloop
  endfacet
  facet normal 0 1 0
    outer loop
      vertex 2 90 55
      vertex 14 90 0
      vertex 2 90 0
    endloop
  endfacet
endsolid OpenSCAD_Model
