solid OpenSCAD_Model
  facet normal -1 0 0
    outer loop
      vertex 214 0 10.499999
      vertex 214 87.2 11.499999
      vertex 214 87.2 10.499999
    endloop
  endfacet
  facet normal -1 0 0
    outer loop
      vertex 214 87.2 11.499999
      vertex 214 0 10.499999
      vertex 214 0 11.499999
    endloop
  endfacet
  facet normal 0 0 1
    outer loop
      vertex 206.90451 9.206107 9.5
      vertex 215.5 0.40192413 9.5
      vertex 215.5 88.5 9.5
    endloop
  endfacet
  facet normal 0 0 1
    outer loop
      vertex 206.90451 9.206107 9.5
      vertex 215.5 88.5 9.5
      vertex 206.90451 85.29389 9.5
    endloop
  endfacet
  facet normal 0 0 1
    outer loop
      vertex 215.5 88.5 9.5
      vertex 206.34549 85.475525 9.5
      vertex 206.90451 85.29389 9.5
    endloop
  endfacet
  facet normal 0 0 1
    outer loop
      vertex 215.5 88.5 9.5
      vertex 181.34549 85.475525 9.5
      vertex 206.34549 85.475525 9.5
    endloop
  endfacet
  facet normal 0 0 1
    outer loop
      vertex 165.90451 9.206107 9.5
      vertex 171 75 9.5
      vertex 165.90451 85.29389 9.5
    endloop
  endfacet
  facet normal 0 0 1
    outer loop
      vertex 171.34549 75.475525 9.5
      vertex 165.90451 85.29389 9.5
      vertex 171 75 9.5
    endloop
  endfacet
  facet normal 0 0 1
    outer loop
      vertex 181.34549 85.475525 9.5
      vertex 165.90451 85.29389 9.5
      vertex 171.34549 75.475525 9.5
    endloop
  endfacet
  facet normal 0 0 1
    outer loop
      vertex 165.34549 85.475525 9.5
      vertex 181.34549 85.475525 9.5
      vertex 215.5 88.5 9.5
    endloop
  endfacet
  facet normal 0 0 1
    outer loop
      vertex 181.34549 85.475525 9.5
      vertex 165.34549 85.475525 9.5
      vertex 165.90451 85.29389 9.5
    endloop
  endfacet
  facet normal 0 0 1
    outer loop
      vertex 215.5 88.5 9.5
      vertex 140.34549 85.475525 9.5
      vertex 165.34549 85.475525 9.5
    endloop
  endfacet
  facet normal 0 0 1
    outer loop
      vertex 124.90451 9.206107 9.5
      vertex 130 75 9.5
      vertex 124.90451 85.29389 9.5
    endloop
  endfacet
  facet normal 0 0 1
    outer loop
      vertex 130.34549 75.475525 9.5
      vertex 124.90451 85.29389 9.5
      vertex 130 75 9.5
    endloop
  endfacet
  facet normal 0 0 1
    outer loop
      vertex 140.34549 85.475525 9.5
      vertex 124.90451 85.29389 9.5
      vertex 130.34549 75.475525 9.5
    endloop
  endfacet
  facet normal 0 0 1
    outer loop
      vertex 124.34549 85.475525 9.5
      vertex 140.34549 85.475525 9.5
      vertex 215.5 88.5 9.5
    endloop
  endfacet
  facet normal 0 0 1
    outer loop
      vertex 140.34549 85.475525 9.5
      vertex 124.34549 85.475525 9.5
      vertex 124.90451 85.29389 9.5
    endloop
  endfacet
  facet normal 0 0 1
    outer loop
      vertex 215.5 88.5 9.5
      vertex 99.34549 85.475525 9.5
      vertex 124.34549 85.475525 9.5
    endloop
  endfacet
  facet normal 0 0 1
    outer loop
      vertex 83.90451 9.206107 9.5
      vertex 89 75 9.5
      vertex 83.90451 85.29389 9.5
    endloop
  endfacet
  facet normal 0 0 1
    outer loop
      vertex 89.34549 75.475525 9.5
      vertex 83.90451 85.29389 9.5
      vertex 89 75 9.5
    endloop
  endfacet
  facet normal 0 0 1
    outer loop
      vertex 99.34549 85.475525 9.5
      vertex 83.90451 85.29389 9.5
      vertex 89.34549 75.475525 9.5
    endloop
  endfacet
  facet normal 0 0 1
    outer loop
      vertex 1.5 88.5 9.5
      vertex 99.34549 85.475525 9.5
      vertex 215.5 88.5 9.5
    endloop
  endfacet
  facet normal 0 0 1
    outer loop
      vertex 99.34549 85.475525 9.5
      vertex 83.34549 85.475525 9.5
      vertex 83.90451 85.29389 9.5
    endloop
  endfacet
  facet normal 0 0 1
    outer loop
      vertex 99.34549 85.475525 9.5
      vertex 1.5 88.5 9.5
      vertex 83.34549 85.475525 9.5
    endloop
  endfacet
  facet normal 0 0 1
    outer loop
      vertex 42.904507 9.206107 9.5
      vertex 48 75 9.5
      vertex 42.904507 85.29389 9.5
    endloop
  endfacet
  facet normal 0 0 1
    outer loop
      vertex 48.34549 75.475525 9.5
      vertex 42.904507 85.29389 9.5
      vertex 48 75 9.5
    endloop
  endfacet
  facet normal 0 0 1
    outer loop
      vertex 58.34549 85.475525 9.5
      vertex 42.904507 85.29389 9.5
      vertex 48.34549 75.475525 9.5
    endloop
  endfacet
  facet normal 0 0 1
    outer loop
      vertex 83.34549 85.475525 9.5
      vertex 1.5 88.5 9.5
      vertex 58.34549 85.475525 9.5
    endloop
  endfacet
  facet normal 0 0 1
    outer loop
      vertex 58.34549 85.475525 9.5
      vertex 42.34549 85.475525 9.5
      vertex 42.904507 85.29389 9.5
    endloop
  endfacet
  facet normal 0 0 1
    outer loop
      vertex 58.34549 85.475525 9.5
      vertex 1.5 88.5 9.5
      vertex 42.34549 85.475525 9.5
    endloop
  endfacet
  facet normal 0 0 1
    outer loop
      vertex 1.5 0.40192413 9.5
      vertex 7 9.5 9.5
      vertex 7 75 9.5
    endloop
  endfacet
  facet normal 0 0 1
    outer loop
      vertex 42.34549 85.475525 9.5
      vertex 1.5 88.5 9.5
      vertex 17.345493 85.475525 9.5
    endloop
  endfacet
  facet normal 0 0 1
    outer loop
      vertex 1.5 88.5 9.5
      vertex 7.3454924 75.475525 9.5
      vertex 17.345493 85.475525 9.5
    endloop
  endfacet
  facet normal 0 0 1
    outer loop
      vertex 1.5 88.5 9.5
      vertex 7 75 9.5
      vertex 7.3454924 75.475525 9.5
    endloop
  endfacet
  facet normal 0 0 1
    outer loop
      vertex 1.5 0.40192413 9.5
      vertex 7 75 9.5
      vertex 1.5 88.5 9.5
    endloop
  endfacet
  facet normal 0 0 1
    outer loop
      vertex 7 9.5 9.5
      vertex 1.5 0.40192413 9.5
      vertex 3 0 9.5
    endloop
  endfacet
  facet normal 0 0 1
    outer loop
      vertex 215.5 0.40192413 9.5
      vertex 206.90451 9.206107 9.5
      vertex 214 0 9.5
    endloop
  endfacet
  facet normal 0 0 1
    outer loop
      vertex 201.90451 3.2061071 9.5
      vertex 214 0 9.5
      vertex 206.90451 9.206107 9.5
    endloop
  endfacet
  facet normal 0 0 1
    outer loop
      vertex 201.34549 3.0244713 9.5
      vertex 214 0 9.5
      vertex 201.90451 3.2061071 9.5
    endloop
  endfacet
  facet normal 0 0 1
    outer loop
      vertex 177.34549 3.0244713 9.5
      vertex 214 0 9.5
      vertex 201.34549 3.0244713 9.5
    endloop
  endfacet
  facet normal 0 0 1
    outer loop
      vertex 171 75 9.5
      vertex 165.90451 9.206107 9.5
      vertex 171 9.5 9.5
    endloop
  endfacet
  facet normal 0 0 1
    outer loop
      vertex 165.90451 9.206107 9.5
      vertex 171.34549 9.024471 9.5
      vertex 171 9.5 9.5
    endloop
  endfacet
  facet normal 0 0 1
    outer loop
      vertex 160.90451 3.2061071 9.5
      vertex 171.34549 9.024471 9.5
      vertex 165.90451 9.206107 9.5
    endloop
  endfacet
  facet normal 0 0 1
    outer loop
      vertex 171.34549 9.024471 9.5
      vertex 160.90451 3.2061071 9.5
      vertex 177.34549 3.0244713 9.5
    endloop
  endfacet
  facet normal 0 0 1
    outer loop
      vertex 160.34549 3.0244713 9.5
      vertex 177.34549 3.0244713 9.5
      vertex 160.90451 3.2061071 9.5
    endloop
  endfacet
  facet normal 0 0 1
    outer loop
      vertex 177.34549 3.0244713 9.5
      vertex 160.34549 3.0244713 9.5
      vertex 214 0 9.5
    endloop
  endfacet
  facet normal 0 0 1
    outer loop
      vertex 136.34549 3.0244713 9.5
      vertex 214 0 9.5
      vertex 160.34549 3.0244713 9.5
    endloop
  endfacet
  facet normal 0 0 1
    outer loop
      vertex 130 75 9.5
      vertex 124.90451 9.206107 9.5
      vertex 130 9.5 9.5
    endloop
  endfacet
  facet normal 0 0 1
    outer loop
      vertex 124.90451 9.206107 9.5
      vertex 130.34549 9.024471 9.5
      vertex 130 9.5 9.5
    endloop
  endfacet
  facet normal 0 0 1
    outer loop
      vertex 119.90451 3.2061071 9.5
      vertex 130.34549 9.024471 9.5
      vertex 124.90451 9.206107 9.5
    endloop
  endfacet
  facet normal 0 0 1
    outer loop
      vertex 130.34549 9.024471 9.5
      vertex 119.90451 3.2061071 9.5
      vertex 136.34549 3.0244713 9.5
    endloop
  endfacet
  facet normal 0 0 1
    outer loop
      vertex 119.34549 3.0244713 9.5
      vertex 136.34549 3.0244713 9.5
      vertex 119.90451 3.2061071 9.5
    endloop
  endfacet
  facet normal 0 0 1
    outer loop
      vertex 136.34549 3.0244713 9.5
      vertex 119.34549 3.0244713 9.5
      vertex 214 0 9.5
    endloop
  endfacet
  facet normal 0 0 1
    outer loop
      vertex 95.34549 3.0244713 9.5
      vertex 214 0 9.5
      vertex 119.34549 3.0244713 9.5
    endloop
  endfacet
  facet normal 0 0 1
    outer loop
      vertex 89 75 9.5
      vertex 83.90451 9.206107 9.5
      vertex 89 9.5 9.5
    endloop
  endfacet
  facet normal 0 0 1
    outer loop
      vertex 83.90451 9.206107 9.5
      vertex 89.34549 9.024471 9.5
      vertex 89 9.5 9.5
    endloop
  endfacet
  facet normal 0 0 1
    outer loop
      vertex 78.90451 3.2061071 9.5
      vertex 89.34549 9.024471 9.5
      vertex 83.90451 9.206107 9.5
    endloop
  endfacet
  facet normal 0 0 1
    outer loop
      vertex 89.34549 9.024471 9.5
      vertex 78.90451 3.2061071 9.5
      vertex 95.34549 3.0244713 9.5
    endloop
  endfacet
  facet normal 0 0 1
    outer loop
      vertex 78.34549 3.0244713 9.5
      vertex 95.34549 3.0244713 9.5
      vertex 78.90451 3.2061071 9.5
    endloop
  endfacet
  facet normal 0 0 1
    outer loop
      vertex 3 0 9.5
      vertex 95.34549 3.0244713 9.5
      vertex 78.34549 3.0244713 9.5
    endloop
  endfacet
  facet normal 0 0 1
    outer loop
      vertex 3 0 9.5
      vertex 78.34549 3.0244713 9.5
      vertex 54.34549 3.0244713 9.5
    endloop
  endfacet
  facet normal 0 0 1
    outer loop
      vertex 48 75 9.5
      vertex 42.904507 9.206107 9.5
      vertex 48 9.5 9.5
    endloop
  endfacet
  facet normal 0 0 1
    outer loop
      vertex 42.904507 9.206107 9.5
      vertex 48.34549 9.024471 9.5
      vertex 48 9.5 9.5
    endloop
  endfacet
  facet normal 0 0 1
    outer loop
      vertex 37.904507 3.2061071 9.5
      vertex 48.34549 9.024471 9.5
      vertex 42.904507 9.206107 9.5
    endloop
  endfacet
  facet normal 0 0 1
    outer loop
      vertex 48.34549 9.024471 9.5
      vertex 37.904507 3.2061071 9.5
      vertex 54.34549 3.0244713 9.5
    endloop
  endfacet
  facet normal 0 0 1
    outer loop
      vertex 37.34549 3.0244713 9.5
      vertex 54.34549 3.0244713 9.5
      vertex 37.904507 3.2061071 9.5
    endloop
  endfacet
  facet normal 0 0 1
    outer loop
      vertex 3 0 9.5
      vertex 54.34549 3.0244713 9.5
      vertex 37.34549 3.0244713 9.5
    endloop
  endfacet
  facet normal 0 0 1
    outer loop
      vertex 3 0 9.5
      vertex 37.34549 3.0244713 9.5
      vertex 13.345492 3.0244713 9.5
    endloop
  endfacet
  facet normal 0 0 1
    outer loop
      vertex 95.34549 3.0244713 9.5
      vertex 3 0 9.5
      vertex 214 0 9.5
    endloop
  endfacet
  facet normal 0 0 1
    outer loop
      vertex 7.3454924 9.024471 9.5
      vertex 3 0 9.5
      vertex 13.345492 3.0244713 9.5
    endloop
  endfacet
  facet normal 0 0 1
    outer loop
      vertex 3 0 9.5
      vertex 7.3454924 9.024471 9.5
      vertex 7 9.5 9.5
    endloop
  endfacet
  facet normal 1 0 0
    outer loop
      vertex 3 0 11.499999
      vertex 3 87.2 10.499999
      vertex 3 87.2 11.499999
    endloop
  endfacet
  facet normal 1 0 0
    outer loop
      vertex 3 87.2 10.499999
      vertex 3 0 11.499999
      vertex 3 0 10.499999
    endloop
  endfacet
  facet normal 0 -1 0
    outer loop
      vertex 3 87.2 10.499999
      vertex 214 87.2 11.499999
      vertex 3 87.2 11.499999
    endloop
  endfacet
  facet normal 0 -1 0
    outer loop
      vertex 214 87.2 11.499999
      vertex 3 87.2 10.499999
      vertex 214 87.2 10.499999
    endloop
  endfacet
  facet normal -1 0 0
    outer loop
      vertex 215.5 0.40192413 9.5
      vertex 215.5 88.5 9.509999
      vertex 215.5 88.5 9.5
    endloop
  endfacet
  facet normal -1 0 0
    outer loop
      vertex 215.5 88.5 9.509999
      vertex 215.5 0.40192413 9.5
      vertex 215.5 0.40192413 9.509999
    endloop
  endfacet
  facet normal 0.70710677 0 -0.70710677
    outer loop
      vertex 1.833333 88.166664 10.499999
      vertex 1.5 0.40192413 10.166666
      vertex 1.5 88.5 10.166666
    endloop
  endfacet
  facet normal 0.70710677 0 -0.70710677
    outer loop
      vertex 1.5 0.40192413 10.166666
      vertex 1.833333 88.166664 10.499999
      vertex 1.833333 0.31260774 10.499999
    endloop
  endfacet
  facet normal 0 -1 0
    outer loop
      vertex 1.5 88.5 9.509999
      vertex 215.5 88.5 10.166666
      vertex 1.5 88.5 10.166666
    endloop
  endfacet
  facet normal 0 -1 0
    outer loop
      vertex 215.5 88.5 10.166666
      vertex 1.5 88.5 9.509999
      vertex 215.5 88.5 9.509999
    endloop
  endfacet
  facet normal 0 0 -1
    outer loop
      vertex 3 0 10.499999
      vertex 1.833333 0.31260774 10.499999
      vertex 3 87.2 10.499999
    endloop
  endfacet
  facet normal 0 0 -1
    outer loop
      vertex 214 87.2 10.499999
      vertex 215.16667 0.3126075 10.499999
      vertex 214 0 10.499999
    endloop
  endfacet
  facet normal 0 0 -1
    outer loop
      vertex 215.16667 0.3126075 10.499999
      vertex 214 87.2 10.499999
      vertex 215.16667 88.166664 10.499999
    endloop
  endfacet
  facet normal 0 0 -1
    outer loop
      vertex 3 87.2 10.499999
      vertex 215.16667 88.166664 10.499999
      vertex 214 87.2 10.499999
    endloop
  endfacet
  facet normal 0 0 -1
    outer loop
      vertex 3 87.2 10.499999
      vertex 1.833333 88.166664 10.499999
      vertex 215.16667 88.166664 10.499999
    endloop
  endfacet
  facet normal 0 0 -1
    outer loop
      vertex 1.833333 88.166664 10.499999
      vertex 3 87.2 10.499999
      vertex 1.833333 0.31260774 10.499999
    endloop
  endfacet
  facet normal 0 -0.7071037 -0.7071098
    outer loop
      vertex 1.833333 88.166664 10.499999
      vertex 215.5 88.5 10.166666
      vertex 215.16667 88.166664 10.499999
    endloop
  endfacet
  facet normal 0 -0.7071037 -0.7071098
    outer loop
      vertex 215.5 88.5 10.166666
      vertex 1.833333 88.166664 10.499999
      vertex 1.5 88.5 10.166666
    endloop
  endfacet
  facet normal 0 -1 0
    outer loop
      vertex 1.5 88.5 9.5
      vertex 215.5 88.5 9.509999
      vertex 1.5 88.5 9.509999
    endloop
  endfacet
  facet normal 0 -1 0
    outer loop
      vertex 215.5 88.5 9.509999
      vertex 1.5 88.5 9.5
      vertex 215.5 88.5 9.5
    endloop
  endfacet
  facet normal -1 0 0
    outer loop
      vertex 215.5 0.40192413 9.509999
      vertex 215.5 88.5 10.166666
      vertex 215.5 88.5 9.509999
    endloop
  endfacet
  facet normal -1 0 0
    outer loop
      vertex 215.5 88.5 10.166666
      vertex 215.5 0.40192413 9.509999
      vertex 215.5 0.40192387 10.166666
    endloop
  endfacet
  facet normal -0.70711184 0 -0.7071017
    outer loop
      vertex 215.5 0.40192387 10.166666
      vertex 215.16667 88.166664 10.499999
      vertex 215.5 88.5 10.166666
    endloop
  endfacet
  facet normal -0.70711184 0 -0.7071017
    outer loop
      vertex 215.16667 88.166664 10.499999
      vertex 215.5 0.40192387 10.166666
      vertex 215.16667 0.3126075 10.499999
    endloop
  endfacet
  facet normal 0 0 0
    outer loop
      vertex 1.5 88.5 10.166666
      vertex 1.5 88.5 9.5
      vertex 1.5 88.5 9.509999
    endloop
  endfacet
  facet normal 1 0 0
    outer loop
      vertex 1.5 0.40192413 10.166666
      vertex 1.5 88.5 9.5
      vertex 1.5 88.5 10.166666
    endloop
  endfacet
  facet normal 1 0 0
    outer loop
      vertex 1.5 88.5 9.5
      vertex 1.5 0.40192413 10.166666
      vertex 1.5 0.40192413 9.5
    endloop
  endfacet
  facet normal 0 0 1
    outer loop
      vertex 7 75 3
      vertex 42.904507 85.29389 3
      vertex 42.34549 85.475525 3
    endloop
  endfacet
  facet normal 0 0 1
    outer loop
      vertex 42.904507 85.29389 3
      vertex 7 75 3
      vertex 42.904507 9.206107 3
    endloop
  endfacet
  facet normal 0 0 1
    outer loop
      vertex 7 9.5 3
      vertex 42.904507 9.206107 3
      vertex 7 75 3
    endloop
  endfacet
  facet normal 0 0 1
    outer loop
      vertex 7.3454924 75.475525 3
      vertex 42.34549 85.475525 3
      vertex 17.345493 85.475525 3
    endloop
  endfacet
  facet normal 0 0 1
    outer loop
      vertex 7.3454924 9.024471 3
      vertex 42.904507 9.206107 3
      vertex 7 9.5 3
    endloop
  endfacet
  facet normal 0 0 1
    outer loop
      vertex 42.34549 85.475525 3
      vertex 7.3454924 75.475525 3
      vertex 7 75 3
    endloop
  endfacet
  facet normal 0 0 1
    outer loop
      vertex 42.904507 9.206107 3
      vertex 37.34549 3.0244713 3
      vertex 37.904507 3.2061071 3
    endloop
  endfacet
  facet normal 0 0 1
    outer loop
      vertex 13.345492 3.0244713 3
      vertex 42.904507 9.206107 3
      vertex 7.3454924 9.024471 3
    endloop
  endfacet
  facet normal 0 0 1
    outer loop
      vertex 42.904507 9.206107 3
      vertex 13.345492 3.0244713 3
      vertex 37.34549 3.0244713 3
    endloop
  endfacet
  facet normal 0.8090166 0.58778584 0
    outer loop
      vertex 7.3454924 9.024471 9.5
      vertex 7 9.5 3
      vertex 7 9.5 9.5
    endloop
  endfacet
  facet normal 0.8090166 0.58778584 0
    outer loop
      vertex 7 9.5 3
      vertex 7.3454924 9.024471 9.5
      vertex 7.3454924 9.024471 3
    endloop
  endfacet
  facet normal 0.70710677 -0.7071068 0
    outer loop
      vertex 7.3454924 75.475525 3
      vertex 17.345493 85.475525 9.5
      vertex 7.3454924 75.475525 9.5
    endloop
  endfacet
  facet normal 0.70710677 -0.7071068 0
    outer loop
      vertex 17.345493 85.475525 9.5
      vertex 7.3454924 75.475525 3
      vertex 17.345493 85.475525 3
    endloop
  endfacet
  facet normal -1 0 0
    outer loop
      vertex 42.904507 9.206107 3
      vertex 42.904507 85.29389 9.5
      vertex 42.904507 85.29389 3
    endloop
  endfacet
  facet normal -1 0 0
    outer loop
      vertex 42.904507 85.29389 9.5
      vertex 42.904507 9.206107 3
      vertex 42.904507 9.206107 9.5
    endloop
  endfacet
  facet normal 0.70710677 0.70710677 0
    outer loop
      vertex 13.345492 3.0244713 9.5
      vertex 7.3454924 9.024471 3
      vertex 7.3454924 9.024471 9.5
    endloop
  endfacet
  facet normal 0.70710677 0.70710677 0
    outer loop
      vertex 7.3454924 9.024471 3
      vertex 13.345492 3.0244713 9.5
      vertex 13.345492 3.0244713 3
    endloop
  endfacet
  facet normal -0.76822126 0.6401844 0
    outer loop
      vertex 37.904507 3.2061071 3
      vertex 42.904507 9.206107 9.5
      vertex 42.904507 9.206107 3
    endloop
  endfacet
  facet normal -0.76822126 0.6401844 0
    outer loop
      vertex 42.904507 9.206107 9.5
      vertex 37.904507 3.2061071 3
      vertex 37.904507 3.2061071 9.5
    endloop
  endfacet
  facet normal 0 1 0
    outer loop
      vertex 37.34549 3.0244713 3
      vertex 13.345492 3.0244713 9.5
      vertex 37.34549 3.0244713 9.5
    endloop
  endfacet
  facet normal 0 1 0
    outer loop
      vertex 13.345492 3.0244713 9.5
      vertex 37.34549 3.0244713 3
      vertex 13.345492 3.0244713 3
    endloop
  endfacet
  facet normal 1 0 0
    outer loop
      vertex 7 9.5 9.5
      vertex 7 75 3
      vertex 7 75 9.5
    endloop
  endfacet
  facet normal 1 0 0
    outer loop
      vertex 7 75 3
      vertex 7 9.5 9.5
      vertex 7 9.5 3
    endloop
  endfacet
  facet normal 0 -1 0
    outer loop
      vertex 17.345493 85.475525 3
      vertex 42.34549 85.475525 9.5
      vertex 17.345493 85.475525 9.5
    endloop
  endfacet
  facet normal 0 -1 0
    outer loop
      vertex 42.34549 85.475525 9.5
      vertex 17.345493 85.475525 3
      vertex 42.34549 85.475525 3
    endloop
  endfacet
  facet normal 0.8090143 -0.58778894 0
    outer loop
      vertex 7 75 9.5
      vertex 7.3454924 75.475525 3
      vertex 7.3454924 75.475525 9.5
    endloop
  endfacet
  facet normal 0.8090143 -0.58778894 0
    outer loop
      vertex 7.3454924 75.475525 3
      vertex 7 75 9.5
      vertex 7 75 3
    endloop
  endfacet
  facet normal -0.30901283 -0.95105785 0
    outer loop
      vertex 42.34549 85.475525 3
      vertex 42.904507 85.29389 9.5
      vertex 42.34549 85.475525 9.5
    endloop
  endfacet
  facet normal -0.30901283 -0.95105785 0
    outer loop
      vertex 42.904507 85.29389 9.5
      vertex 42.34549 85.475525 3
      vertex 42.904507 85.29389 3
    endloop
  endfacet
  facet normal -0.30901724 0.9510564 0
    outer loop
      vertex 37.904507 3.2061071 3
      vertex 37.34549 3.0244713 9.5
      vertex 37.904507 3.2061071 9.5
    endloop
  endfacet
  facet normal -0.30901724 0.9510564 0
    outer loop
      vertex 37.34549 3.0244713 9.5
      vertex 37.904507 3.2061071 3
      vertex 37.34549 3.0244713 3
    endloop
  endfacet
  facet normal 0 0 1
    outer loop
      vertex 48 75 3
      vertex 83.90451 85.29389 3
      vertex 83.34549 85.475525 3
    endloop
  endfacet
  facet normal 0 0 1
    outer loop
      vertex 83.90451 85.29389 3
      vertex 48 75 3
      vertex 83.90451 9.206107 3
    endloop
  endfacet
  facet normal 0 0 1
    outer loop
      vertex 48 9.5 3
      vertex 83.90451 9.206107 3
      vertex 48 75 3
    endloop
  endfacet
  facet normal 0 0 1
    outer loop
      vertex 48.34549 75.475525 3
      vertex 83.34549 85.475525 3
      vertex 58.34549 85.475525 3
    endloop
  endfacet
  facet normal 0 0 1
    outer loop
      vertex 48.34549 9.024471 3
      vertex 83.90451 9.206107 3
      vertex 48 9.5 3
    endloop
  endfacet
  facet normal 0 0 1
    outer loop
      vertex 83.34549 85.475525 3
      vertex 48.34549 75.475525 3
      vertex 48 75 3
    endloop
  endfacet
  facet normal 0 0 1
    outer loop
      vertex 83.90451 9.206107 3
      vertex 78.34549 3.0244713 3
      vertex 78.90451 3.2061071 3
    endloop
  endfacet
  facet normal 0 0 1
    outer loop
      vertex 54.34549 3.0244713 3
      vertex 83.90451 9.206107 3
      vertex 48.34549 9.024471 3
    endloop
  endfacet
  facet normal 0 0 1
    outer loop
      vertex 83.90451 9.206107 3
      vertex 54.34549 3.0244713 3
      vertex 78.34549 3.0244713 3
    endloop
  endfacet
  facet normal 0.8090189 0.5877827 0
    outer loop
      vertex 48.34549 9.024471 9.5
      vertex 48 9.5 3
      vertex 48 9.5 9.5
    endloop
  endfacet
  facet normal 0.8090189 0.5877827 0
    outer loop
      vertex 48 9.5 3
      vertex 48.34549 9.024471 9.5
      vertex 48.34549 9.024471 3
    endloop
  endfacet
  facet normal 0.70710677 -0.70710677 0
    outer loop
      vertex 48.34549 75.475525 9.5
      vertex 58.34549 85.475525 3
      vertex 58.34549 85.475525 9.5
    endloop
  endfacet
  facet normal 0.70710677 -0.70710677 0
    outer loop
      vertex 58.34549 85.475525 3
      vertex 48.34549 75.475525 9.5
      vertex 48.34549 75.475525 3
    endloop
  endfacet
  facet normal -1 0 0
    outer loop
      vertex 83.90451 9.206107 3
      vertex 83.90451 85.29389 9.5
      vertex 83.90451 85.29389 3
    endloop
  endfacet
  facet normal -1 0 0
    outer loop
      vertex 83.90451 85.29389 9.5
      vertex 83.90451 9.206107 3
      vertex 83.90451 9.206107 9.5
    endloop
  endfacet
  facet normal 0.70710677 0.70710677 0
    outer loop
      vertex 54.34549 3.0244713 9.5
      vertex 48.34549 9.024471 3
      vertex 48.34549 9.024471 9.5
    endloop
  endfacet
  facet normal 0.70710677 0.70710677 0
    outer loop
      vertex 48.34549 9.024471 3
      vertex 54.34549 3.0244713 9.5
      vertex 54.34549 3.0244713 3
    endloop
  endfacet
  facet normal -0.76822126 0.6401844 0
    outer loop
      vertex 78.90451 3.2061071 3
      vertex 83.90451 9.206107 9.5
      vertex 83.90451 9.206107 3
    endloop
  endfacet
  facet normal -0.76822126 0.6401844 0
    outer loop
      vertex 83.90451 9.206107 9.5
      vertex 78.90451 3.2061071 3
      vertex 78.90451 3.2061071 9.5
    endloop
  endfacet
  facet normal 0 1 0
    outer loop
      vertex 78.34549 3.0244713 3
      vertex 54.34549 3.0244713 9.5
      vertex 78.34549 3.0244713 9.5
    endloop
  endfacet
  facet normal 0 1 0
    outer loop
      vertex 54.34549 3.0244713 9.5
      vertex 78.34549 3.0244713 3
      vertex 54.34549 3.0244713 3
    endloop
  endfacet
  facet normal 1 0 0
    outer loop
      vertex 48 9.5 9.5
      vertex 48 75 3
      vertex 48 75 9.5
    endloop
  endfacet
  facet normal 1 0 0
    outer loop
      vertex 48 75 3
      vertex 48 9.5 9.5
      vertex 48 9.5 3
    endloop
  endfacet
  facet normal 0 -1 0
    outer loop
      vertex 58.34549 85.475525 3
      vertex 83.34549 85.475525 9.5
      vertex 58.34549 85.475525 9.5
    endloop
  endfacet
  facet normal 0 -1 0
    outer loop
      vertex 83.34549 85.475525 9.5
      vertex 58.34549 85.475525 3
      vertex 83.34549 85.475525 3
    endloop
  endfacet
  facet normal 0.80901664 -0.5877857 0
    outer loop
      vertex 48 75 9.5
      vertex 48.34549 75.475525 3
      vertex 48.34549 75.475525 9.5
    endloop
  endfacet
  facet normal 0.80901664 -0.5877857 0
    outer loop
      vertex 48.34549 75.475525 3
      vertex 48 75 9.5
      vertex 48 75 3
    endloop
  endfacet
  facet normal -0.30901092 -0.9510585 0
    outer loop
      vertex 83.34549 85.475525 3
      vertex 83.90451 85.29389 9.5
      vertex 83.34549 85.475525 9.5
    endloop
  endfacet
  facet normal -0.30901092 -0.9510585 0
    outer loop
      vertex 83.90451 85.29389 9.5
      vertex 83.34549 85.475525 3
      vertex 83.90451 85.29389 3
    endloop
  endfacet
  facet normal -0.30901533 0.9510571 0
    outer loop
      vertex 78.90451 3.2061071 3
      vertex 78.34549 3.0244713 9.5
      vertex 78.90451 3.2061071 9.5
    endloop
  endfacet
  facet normal -0.30901533 0.9510571 0
    outer loop
      vertex 78.34549 3.0244713 9.5
      vertex 78.90451 3.2061071 3
      vertex 78.34549 3.0244713 3
    endloop
  endfacet
  facet normal 0 0 1
    outer loop
      vertex 89 75 3
      vertex 124.90451 85.29389 3
      vertex 124.34549 85.475525 3
    endloop
  endfacet
  facet normal 0 0 1
    outer loop
      vertex 124.90451 85.29389 3
      vertex 89 75 3
      vertex 124.90451 9.206107 3
    endloop
  endfacet
  facet normal 0 0 1
    outer loop
      vertex 89 9.5 3
      vertex 124.90451 9.206107 3
      vertex 89 75 3
    endloop
  endfacet
  facet normal 0 0 1
    outer loop
      vertex 89.34549 75.475525 3
      vertex 124.34549 85.475525 3
      vertex 99.34549 85.475525 3
    endloop
  endfacet
  facet normal 0 0 1
    outer loop
      vertex 89.34549 9.024471 3
      vertex 124.90451 9.206107 3
      vertex 89 9.5 3
    endloop
  endfacet
  facet normal 0 0 1
    outer loop
      vertex 124.34549 85.475525 3
      vertex 89.34549 75.475525 3
      vertex 89 75 3
    endloop
  endfacet
  facet normal 0 0 1
    outer loop
      vertex 124.90451 9.206107 3
      vertex 119.34549 3.0244713 3
      vertex 119.90451 3.2061071 3
    endloop
  endfacet
  facet normal 0 0 1
    outer loop
      vertex 95.34549 3.0244713 3
      vertex 124.90451 9.206107 3
      vertex 89.34549 9.024471 3
    endloop
  endfacet
  facet normal 0 0 1
    outer loop
      vertex 124.90451 9.206107 3
      vertex 95.34549 3.0244713 3
      vertex 119.34549 3.0244713 3
    endloop
  endfacet
  facet normal 0.8090189 0.5877827 0
    outer loop
      vertex 89.34549 9.024471 9.5
      vertex 89 9.5 3
      vertex 89 9.5 9.5
    endloop
  endfacet
  facet normal 0.8090189 0.5877827 0
    outer loop
      vertex 89 9.5 3
      vertex 89.34549 9.024471 9.5
      vertex 89.34549 9.024471 3
    endloop
  endfacet
  facet normal 0.70710677 -0.70710677 0
    outer loop
      vertex 89.34549 75.475525 9.5
      vertex 99.34549 85.475525 3
      vertex 99.34549 85.475525 9.5
    endloop
  endfacet
  facet normal 0.70710677 -0.70710677 0
    outer loop
      vertex 99.34549 85.475525 3
      vertex 89.34549 75.475525 9.5
      vertex 89.34549 75.475525 3
    endloop
  endfacet
  facet normal -1 0 0
    outer loop
      vertex 124.90451 9.206107 3
      vertex 124.90451 85.29389 9.5
      vertex 124.90451 85.29389 3
    endloop
  endfacet
  facet normal -1 0 0
    outer loop
      vertex 124.90451 85.29389 9.5
      vertex 124.90451 9.206107 3
      vertex 124.90451 9.206107 9.5
    endloop
  endfacet
  facet normal 0.70710677 0.70710677 0
    outer loop
      vertex 95.34549 3.0244713 9.5
      vertex 89.34549 9.024471 3
      vertex 89.34549 9.024471 9.5
    endloop
  endfacet
  facet normal 0.70710677 0.70710677 0
    outer loop
      vertex 89.34549 9.024471 3
      vertex 95.34549 3.0244713 9.5
      vertex 95.34549 3.0244713 3
    endloop
  endfacet
  facet normal -0.76822126 0.6401844 0
    outer loop
      vertex 119.90451 3.2061071 3
      vertex 124.90451 9.206107 9.5
      vertex 124.90451 9.206107 3
    endloop
  endfacet
  facet normal -0.76822126 0.6401844 0
    outer loop
      vertex 124.90451 9.206107 9.5
      vertex 119.90451 3.2061071 3
      vertex 119.90451 3.2061071 9.5
    endloop
  endfacet
  facet normal 0 1 0
    outer loop
      vertex 119.34549 3.0244713 3
      vertex 95.34549 3.0244713 9.5
      vertex 119.34549 3.0244713 9.5
    endloop
  endfacet
  facet normal 0 1 0
    outer loop
      vertex 95.34549 3.0244713 9.5
      vertex 119.34549 3.0244713 3
      vertex 95.34549 3.0244713 3
    endloop
  endfacet
  facet normal 1 0 0
    outer loop
      vertex 89 9.5 9.5
      vertex 89 75 3
      vertex 89 75 9.5
    endloop
  endfacet
  facet normal 1 0 0
    outer loop
      vertex 89 75 3
      vertex 89 9.5 9.5
      vertex 89 9.5 3
    endloop
  endfacet
  facet normal 0 -1 0
    outer loop
      vertex 99.34549 85.475525 3
      vertex 124.34549 85.475525 9.5
      vertex 99.34549 85.475525 9.5
    endloop
  endfacet
  facet normal 0 -1 0
    outer loop
      vertex 124.34549 85.475525 9.5
      vertex 99.34549 85.475525 3
      vertex 124.34549 85.475525 3
    endloop
  endfacet
  facet normal 0.80901664 -0.5877857 0
    outer loop
      vertex 89 75 9.5
      vertex 89.34549 75.475525 3
      vertex 89.34549 75.475525 9.5
    endloop
  endfacet
  facet normal 0.80901664 -0.5877857 0
    outer loop
      vertex 89.34549 75.475525 3
      vertex 89 75 9.5
      vertex 89 75 3
    endloop
  endfacet
  facet normal -0.30901092 -0.9510585 0
    outer loop
      vertex 124.34549 85.475525 3
      vertex 124.90451 85.29389 9.5
      vertex 124.34549 85.475525 9.5
    endloop
  endfacet
  facet normal -0.30901092 -0.9510585 0
    outer loop
      vertex 124.90451 85.29389 9.5
      vertex 124.34549 85.475525 3
      vertex 124.90451 85.29389 3
    endloop
  endfacet
  facet normal -0.30901533 0.9510571 0
    outer loop
      vertex 119.90451 3.2061071 3
      vertex 119.34549 3.0244713 9.5
      vertex 119.90451 3.2061071 9.5
    endloop
  endfacet
  facet normal -0.30901533 0.9510571 0
    outer loop
      vertex 119.34549 3.0244713 9.5
      vertex 119.90451 3.2061071 3
      vertex 119.34549 3.0244713 3
    endloop
  endfacet
  facet normal 0 0 1
    outer loop
      vertex 130 75 3
      vertex 165.90451 85.29389 3
      vertex 165.34549 85.475525 3
    endloop
  endfacet
  facet normal 0 0 1
    outer loop
      vertex 165.90451 85.29389 3
      vertex 130 75 3
      vertex 165.90451 9.206107 3
    endloop
  endfacet
  facet normal 0 0 1
    outer loop
      vertex 130 9.5 3
      vertex 165.90451 9.206107 3
      vertex 130 75 3
    endloop
  endfacet
  facet normal 0 0 1
    outer loop
      vertex 130.34549 75.475525 3
      vertex 165.34549 85.475525 3
      vertex 140.34549 85.475525 3
    endloop
  endfacet
  facet normal 0 0 1
    outer loop
      vertex 130.34549 9.024471 3
      vertex 165.90451 9.206107 3
      vertex 130 9.5 3
    endloop
  endfacet
  facet normal 0 0 1
    outer loop
      vertex 165.34549 85.475525 3
      vertex 130.34549 75.475525 3
      vertex 130 75 3
    endloop
  endfacet
  facet normal 0 0 1
    outer loop
      vertex 165.90451 9.206107 3
      vertex 160.34549 3.0244713 3
      vertex 160.90451 3.2061071 3
    endloop
  endfacet
  facet normal 0 0 1
    outer loop
      vertex 136.34549 3.0244713 3
      vertex 165.90451 9.206107 3
      vertex 130.34549 9.024471 3
    endloop
  endfacet
  facet normal 0 0 1
    outer loop
      vertex 165.90451 9.206107 3
      vertex 136.34549 3.0244713 3
      vertex 160.34549 3.0244713 3
    endloop
  endfacet
  facet normal 0.8090189 0.5877827 0
    outer loop
      vertex 130.34549 9.024471 9.5
      vertex 130 9.5 3
      vertex 130 9.5 9.5
    endloop
  endfacet
  facet normal 0.8090189 0.5877827 0
    outer loop
      vertex 130 9.5 3
      vertex 130.34549 9.024471 9.5
      vertex 130.34549 9.024471 3
    endloop
  endfacet
  facet normal 0.70710677 -0.70710677 0
    outer loop
      vertex 130.34549 75.475525 9.5
      vertex 140.34549 85.475525 3
      vertex 140.34549 85.475525 9.5
    endloop
  endfacet
  facet normal 0.70710677 -0.70710677 0
    outer loop
      vertex 140.34549 85.475525 3
      vertex 130.34549 75.475525 9.5
      vertex 130.34549 75.475525 3
    endloop
  endfacet
  facet normal -1 0 0
    outer loop
      vertex 165.90451 9.206107 3
      vertex 165.90451 85.29389 9.5
      vertex 165.90451 85.29389 3
    endloop
  endfacet
  facet normal -1 0 0
    outer loop
      vertex 165.90451 85.29389 9.5
      vertex 165.90451 9.206107 3
      vertex 165.90451 9.206107 9.5
    endloop
  endfacet
  facet normal 0.70710677 0.70710677 0
    outer loop
      vertex 136.34549 3.0244713 9.5
      vertex 130.34549 9.024471 3
      vertex 130.34549 9.024471 9.5
    endloop
  endfacet
  facet normal 0.70710677 0.70710677 0
    outer loop
      vertex 130.34549 9.024471 3
      vertex 136.34549 3.0244713 9.5
      vertex 136.34549 3.0244713 3
    endloop
  endfacet
  facet normal -0.76822126 0.6401844 0
    outer loop
      vertex 160.90451 3.2061071 3
      vertex 165.90451 9.206107 9.5
      vertex 165.90451 9.206107 3
    endloop
  endfacet
  facet normal -0.76822126 0.6401844 0
    outer loop
      vertex 165.90451 9.206107 9.5
      vertex 160.90451 3.2061071 3
      vertex 160.90451 3.2061071 9.5
    endloop
  endfacet
  facet normal 0 1 0
    outer loop
      vertex 160.34549 3.0244713 3
      vertex 136.34549 3.0244713 9.5
      vertex 160.34549 3.0244713 9.5
    endloop
  endfacet
  facet normal 0 1 0
    outer loop
      vertex 136.34549 3.0244713 9.5
      vertex 160.34549 3.0244713 3
      vertex 136.34549 3.0244713 3
    endloop
  endfacet
  facet normal 1 0 0
    outer loop
      vertex 130 9.5 9.5
      vertex 130 75 3
      vertex 130 75 9.5
    endloop
  endfacet
  facet normal 1 0 0
    outer loop
      vertex 130 75 3
      vertex 130 9.5 9.5
      vertex 130 9.5 3
    endloop
  endfacet
  facet normal 0 -1 0
    outer loop
      vertex 140.34549 85.475525 3
      vertex 165.34549 85.475525 9.5
      vertex 140.34549 85.475525 9.5
    endloop
  endfacet
  facet normal 0 -1 0
    outer loop
      vertex 165.34549 85.475525 9.5
      vertex 140.34549 85.475525 3
      vertex 165.34549 85.475525 3
    endloop
  endfacet
  facet normal 0.80901664 -0.5877857 0
    outer loop
      vertex 130 75 9.5
      vertex 130.34549 75.475525 3
      vertex 130.34549 75.475525 9.5
    endloop
  endfacet
  facet normal 0.80901664 -0.5877857 0
    outer loop
      vertex 130.34549 75.475525 3
      vertex 130 75 9.5
      vertex 130 75 3
    endloop
  endfacet
  facet normal -0.30901092 -0.9510585 0
    outer loop
      vertex 165.34549 85.475525 3
      vertex 165.90451 85.29389 9.5
      vertex 165.34549 85.475525 9.5
    endloop
  endfacet
  facet normal -0.30901092 -0.9510585 0
    outer loop
      vertex 165.90451 85.29389 9.5
      vertex 165.34549 85.475525 3
      vertex 165.90451 85.29389 3
    endloop
  endfacet
  facet normal -0.30901533 0.9510571 0
    outer loop
      vertex 160.90451 3.2061071 3
      vertex 160.34549 3.0244713 9.5
      vertex 160.90451 3.2061071 9.5
    endloop
  endfacet
  facet normal -0.30901533 0.9510571 0
    outer loop
      vertex 160.34549 3.0244713 9.5
      vertex 160.90451 3.2061071 3
      vertex 160.34549 3.0244713 3
    endloop
  endfacet
  facet normal 0 0 1
    outer loop
      vertex 171 75 3
      vertex 206.90451 85.29389 3
      vertex 206.34549 85.475525 3
    endloop
  endfacet
  facet normal 0 0 1
    outer loop
      vertex 206.90451 85.29389 3
      vertex 171 75 3
      vertex 206.90451 9.206107 3
    endloop
  endfacet
  facet normal 0 0 1
    outer loop
      vertex 171 9.5 3
      vertex 206.90451 9.206107 3
      vertex 171 75 3
    endloop
  endfacet
  facet normal 0 0 1
    outer loop
      vertex 171.34549 75.475525 3
      vertex 206.34549 85.475525 3
      vertex 181.34549 85.475525 3
    endloop
  endfacet
  facet normal 0 0 1
    outer loop
      vertex 171.34549 9.024471 3
      vertex 206.90451 9.206107 3
      vertex 171 9.5 3
    endloop
  endfacet
  facet normal 0 0 1
    outer loop
      vertex 206.34549 85.475525 3
      vertex 171.34549 75.475525 3
      vertex 171 75 3
    endloop
  endfacet
  facet normal 0 0 1
    outer loop
      vertex 206.90451 9.206107 3
      vertex 201.34549 3.0244713 3
      vertex 201.90451 3.2061071 3
    endloop
  endfacet
  facet normal 0 0 1
    outer loop
      vertex 177.34549 3.0244713 3
      vertex 206.90451 9.206107 3
      vertex 171.34549 9.024471 3
    endloop
  endfacet
  facet normal 0 0 1
    outer loop
      vertex 206.90451 9.206107 3
      vertex 177.34549 3.0244713 3
      vertex 201.34549 3.0244713 3
    endloop
  endfacet
  facet normal 0.8090189 0.5877827 0
    outer loop
      vertex 171.34549 9.024471 9.5
      vertex 171 9.5 3
      vertex 171 9.5 9.5
    endloop
  endfacet
  facet normal 0.8090189 0.5877827 0
    outer loop
      vertex 171 9.5 3
      vertex 171.34549 9.024471 9.5
      vertex 171.34549 9.024471 3
    endloop
  endfacet
  facet normal 0.70710677 -0.70710677 0
    outer loop
      vertex 171.34549 75.475525 9.5
      vertex 181.34549 85.475525 3
      vertex 181.34549 85.475525 9.5
    endloop
  endfacet
  facet normal 0.70710677 -0.70710677 0
    outer loop
      vertex 181.34549 85.475525 3
      vertex 171.34549 75.475525 9.5
      vertex 171.34549 75.475525 3
    endloop
  endfacet
  facet normal -1 0 0
    outer loop
      vertex 206.90451 9.206107 3
      vertex 206.90451 85.29389 9.5
      vertex 206.90451 85.29389 3
    endloop
  endfacet
  facet normal -1 0 0
    outer loop
      vertex 206.90451 85.29389 9.5
      vertex 206.90451 9.206107 3
      vertex 206.90451 9.206107 9.5
    endloop
  endfacet
  facet normal 0.70710677 0.70710677 0
    outer loop
      vertex 177.34549 3.0244713 9.5
      vertex 171.34549 9.024471 3
      vertex 171.34549 9.024471 9.5
    endloop
  endfacet
  facet normal 0.70710677 0.70710677 0
    outer loop
      vertex 171.34549 9.024471 3
      vertex 177.34549 3.0244713 9.5
      vertex 177.34549 3.0244713 3
    endloop
  endfacet
  facet normal -0.76822126 0.6401844 0
    outer loop
      vertex 201.90451 3.2061071 3
      vertex 206.90451 9.206107 9.5
      vertex 206.90451 9.206107 3
    endloop
  endfacet
  facet normal -0.76822126 0.6401844 0
    outer loop
      vertex 206.90451 9.206107 9.5
      vertex 201.90451 3.2061071 3
      vertex 201.90451 3.2061071 9.5
    endloop
  endfacet
  facet normal 0 1 0
    outer loop
      vertex 201.34549 3.0244713 3
      vertex 177.34549 3.0244713 9.5
      vertex 201.34549 3.0244713 9.5
    endloop
  endfacet
  facet normal 0 1 0
    outer loop
      vertex 177.34549 3.0244713 9.5
      vertex 201.34549 3.0244713 3
      vertex 177.34549 3.0244713 3
    endloop
  endfacet
  facet normal 1 0 0
    outer loop
      vertex 171 9.5 9.5
      vertex 171 75 3
      vertex 171 75 9.5
    endloop
  endfacet
  facet normal 1 0 0
    outer loop
      vertex 171 75 3
      vertex 171 9.5 9.5
      vertex 171 9.5 3
    endloop
  endfacet
  facet normal 0 -1 0
    outer loop
      vertex 181.34549 85.475525 3
      vertex 206.34549 85.475525 9.5
      vertex 181.34549 85.475525 9.5
    endloop
  endfacet
  facet normal 0 -1 0
    outer loop
      vertex 206.34549 85.475525 9.5
      vertex 181.34549 85.475525 3
      vertex 206.34549 85.475525 3
    endloop
  endfacet
  facet normal 0.80901664 -0.5877857 0
    outer loop
      vertex 171 75 9.5
      vertex 171.34549 75.475525 3
      vertex 171.34549 75.475525 9.5
    endloop
  endfacet
  facet normal 0.80901664 -0.5877857 0
    outer loop
      vertex 171.34549 75.475525 3
      vertex 171 75 9.5
      vertex 171 75 3
    endloop
  endfacet
  facet normal -0.30901092 -0.9510585 0
    outer loop
      vertex 206.34549 85.475525 3
      vertex 206.90451 85.29389 9.5
      vertex 206.34549 85.475525 9.5
    endloop
  endfacet
  facet normal -0.30901092 -0.9510585 0
    outer loop
      vertex 206.90451 85.29389 9.5
      vertex 206.34549 85.475525 3
      vertex 206.90451 85.29389 3
    endloop
  endfacet
  facet normal -0.30901533 0.9510571 0
    outer loop
      vertex 201.90451 3.2061071 3
      vertex 201.34549 3.0244713 9.5
      vertex 201.90451 3.2061071 9.5
    endloop
  endfacet
  facet normal -0.30901533 0.9510571 0
    outer loop
      vertex 201.34549 3.0244713 9.5
      vertex 201.90451 3.2061071 3
      vertex 201.34549 3.0244713 3
    endloop
  endfacet
  facet normal -0.25881925 -0.96592575 0
    outer loop
      vertex 1.5 0.40192413 0
      vertex 3 0 9.5
      vertex 1.5 0.40192413 9.5
    endloop
  endfacet
  facet normal -0.25881925 -0.96592575 0
    outer loop
      vertex 3 0 9.5
      vertex 1.5 0.40192413 0
      vertex 3 0 0
    endloop
  endfacet
  facet normal -0.25881925 -0.96592575 8.710078e-9
    outer loop
      vertex 1.5 0.40192413 11.499999
      vertex 1.833333 0.31260774 10.499999
      vertex 3 0 11.499999
    endloop
  endfacet
  facet normal -0.25881928 -0.96592575 0
    outer loop
      vertex 1.833333 0.31260774 10.499999
      vertex 1.5 0.40192413 11.499999
      vertex 1.5 0.40192413 10.166666
    endloop
  endfacet
  facet normal -0.25881925 -0.96592575 0
    outer loop
      vertex 3 0 11.499999
      vertex 1.833333 0.31260774 10.499999
      vertex 3 0 10.499999
    endloop
  endfacet
  facet normal 0 1 0
    outer loop
      vertex 214 90 0
      vertex 3 90 11.499999
      vertex 214 90 11.499999
    endloop
  endfacet
  facet normal 0 1 0
    outer loop
      vertex 3 90 11.499999
      vertex 214 90 0
      vertex 3 90 0
    endloop
  endfacet
  facet normal -0.25881925 0.96592575 0
    outer loop
      vertex 3 90 0
      vertex 1.5 89.598076 11.499999
      vertex 3 90 11.499999
    endloop
  endfacet
  facet normal -0.25881925 0.96592575 0
    outer loop
      vertex 1.5 89.598076 11.499999
      vertex 3 90 0
      vertex 1.5 89.598076 0
    endloop
  endfacet
  facet normal 0 0 1
    outer loop
      vertex 3 90 11.499999
      vertex 214 87.2 11.499999
      vertex 214 90 11.499999
    endloop
  endfacet
  facet normal 0 0 1
    outer loop
      vertex 3 90 11.499999
      vertex 3 87.2 11.499999
      vertex 214 87.2 11.499999
    endloop
  endfacet
  facet normal 0 0 1
    outer loop
      vertex 1.5 89.598076 11.499999
      vertex 3 87.2 11.499999
      vertex 3 90 11.499999
    endloop
  endfacet
  facet normal 0 0 1
    outer loop
      vertex 0.40192413 88.5 11.499999
      vertex 3 87.2 11.499999
      vertex 1.5 89.598076 11.499999
    endloop
  endfacet
  facet normal 0 0 1
    outer loop
      vertex 0 3 11.499999
      vertex 3 87.2 11.499999
      vertex 0 87 11.499999
    endloop
  endfacet
  facet normal 0 0 1
    outer loop
      vertex 3 87.2 11.499999
      vertex 0.40192413 88.5 11.499999
      vertex 0 87 11.499999
    endloop
  endfacet
  facet normal 0 0 1
    outer loop
      vertex 3 87.2 11.499999
      vertex 0 3 11.499999
      vertex 3 0 11.499999
    endloop
  endfacet
  facet normal 0 0 1
    outer loop
      vertex 3 0 11.499999
      vertex 0 3 11.499999
      vertex 1.5 0.40192413 11.499999
    endloop
  endfacet
  facet normal 0 0 1
    outer loop
      vertex 1.5 0.40192413 11.499999
      vertex 0 3 11.499999
      vertex 0.40192413 1.5 11.499999
    endloop
  endfacet
  facet normal 0 0 1
    outer loop
      vertex 214 87.2 11.499999
      vertex 217 87 11.499999
      vertex 216.59808 88.5 11.499999
    endloop
  endfacet
  facet normal 0 0 1
    outer loop
      vertex 217 87 11.499999
      vertex 214 87.2 11.499999
      vertex 217 3 11.499999
    endloop
  endfacet
  facet normal 0 0 1
    outer loop
      vertex 214 87.2 11.499999
      vertex 216.59808 88.5 11.499999
      vertex 215.5 89.598076 11.499999
    endloop
  endfacet
  facet normal 0 0 1
    outer loop
      vertex 214 0 11.499999
      vertex 217 3 11.499999
      vertex 214 87.2 11.499999
    endloop
  endfacet
  facet normal 0 0 1
    outer loop
      vertex 214 87.2 11.499999
      vertex 215.5 89.598076 11.499999
      vertex 214 90 11.499999
    endloop
  endfacet
  facet normal 0 0 1
    outer loop
      vertex 217 3 11.499999
      vertex 214 0 11.499999
      vertex 216.59808 1.5 11.499999
    endloop
  endfacet
  facet normal 0 0 1
    outer loop
      vertex 216.59808 1.5 11.499999
      vertex 214 0 11.499999
      vertex 215.5 0.40192413 11.499999
    endloop
  endfacet
  facet normal -1 0 0
    outer loop
      vertex 0 3 0
      vertex 0 87 11.499999
      vertex 0 87 0
    endloop
  endfacet
  facet normal -1 0 0
    outer loop
      vertex 0 87 11.499999
      vertex 0 3 0
      vertex 0 3 11.499999
    endloop
  endfacet
  facet normal 0 -1 0
    outer loop
      vertex 3 0 0
      vertex 214 0 9.5
      vertex 3 0 9.5
    endloop
  endfacet
  facet normal 0 -1 0
    outer loop
      vertex 214 0 9.5
      vertex 3 0 0
      vertex 214 0 0
    endloop
  endfacet
  facet normal -0.70710677 -0.70710677 0
    outer loop
      vertex 1.5 0.40192413 9.5
      vertex 0.40192413 1.5 0
      vertex 1.5 0.40192413 0
    endloop
  endfacet
  facet normal -0.70710677 -0.70710677 0
    outer loop
      vertex 0.40192413 1.5 0
      vertex 1.5 0.40192413 9.5
      vertex 0.40192413 1.5 11.499999
    endloop
  endfacet
  facet normal -0.70710677 -0.70710677 0
    outer loop
      vertex 1.5 0.40192413 10.166666
      vertex 0.40192413 1.5 11.499999
      vertex 1.5 0.40192413 9.5
    endloop
  endfacet
  facet normal -0.70710677 -0.70710677 0
    outer loop
      vertex 0.40192413 1.5 11.499999
      vertex 1.5 0.40192413 10.166666
      vertex 1.5 0.40192413 11.499999
    endloop
  endfacet
  facet normal 0.965927 -0.25881466 0
    outer loop
      vertex 216.59808 1.5 11.499999
      vertex 217 3 0
      vertex 217 3 11.499999
    endloop
  endfacet
  facet normal 0.965927 -0.25881466 0
    outer loop
      vertex 217 3 0
      vertex 216.59808 1.5 11.499999
      vertex 216.59808 1.5 0
    endloop
  endfacet
  facet normal 0.25881806 -0.9659261 0
    outer loop
      vertex 215.16667 0.3126075 10.499999
      vertex 214 0 11.499999
      vertex 214 0 10.499999
    endloop
  endfacet
  facet normal 0.25881925 -0.96592575 0.0000014731511
    outer loop
      vertex 214 0 11.499999
      vertex 215.16667 0.3126075 10.499999
      vertex 215.5 0.40192413 11.499999
    endloop
  endfacet
  facet normal 0.25882283 -0.9659248 1.9431097e-7
    outer loop
      vertex 215.5 0.40192413 11.499999
      vertex 215.16667 0.3126075 10.499999
      vertex 215.5 0.40192387 10.166666
    endloop
  endfacet
  facet normal 1 0 0
    outer loop
      vertex 215.5 0.40192413 9.509999
      vertex 215.5 0.40192413 11.499999
      vertex 215.5 0.40192387 10.166666
    endloop
  endfacet
  facet normal 0.25881925 -0.96592575 0
    outer loop
      vertex 214 0 0
      vertex 215.5 0.40192413 9.5
      vertex 214 0 9.5
    endloop
  endfacet
  facet normal 0.25881925 -0.96592575 0
    outer loop
      vertex 215.5 0.40192413 9.5
      vertex 214 0 0
      vertex 215.5 0.40192413 0
    endloop
  endfacet
  facet normal -0.96592575 -0.25881925 0
    outer loop
      vertex 0.40192413 1.5 0
      vertex 0 3 11.499999
      vertex 0 3 0
    endloop
  endfacet
  facet normal -0.96592575 -0.25881925 0
    outer loop
      vertex 0 3 11.499999
      vertex 0.40192413 1.5 0
      vertex 0.40192413 1.5 11.499999
    endloop
  endfacet
  facet normal -0.70710677 0.70710677 0
    outer loop
      vertex 0.40192413 88.5 0
      vertex 1.5 89.598076 11.499999
      vertex 1.5 89.598076 0
    endloop
  endfacet
  facet normal -0.70710677 0.70710677 0
    outer loop
      vertex 1.5 89.598076 11.499999
      vertex 0.40192413 88.5 0
      vertex 0.40192413 88.5 11.499999
    endloop
  endfacet
  facet normal -0.96592575 0.25881925 0
    outer loop
      vertex 0 87 0
      vertex 0.40192413 88.5 11.499999
      vertex 0.40192413 88.5 0
    endloop
  endfacet
  facet normal -0.96592575 0.25881925 0
    outer loop
      vertex 0.40192413 88.5 11.499999
      vertex 0 87 0
      vertex 0 87 11.499999
    endloop
  endfacet
  facet normal 0.7071043 -0.7071092 0
    outer loop
      vertex 215.5 0.40192413 9.509999
      vertex 216.59808 1.5 11.499999
      vertex 215.5 0.40192413 11.499999
    endloop
  endfacet
  facet normal 0.7071043 -0.7071092 0
    outer loop
      vertex 215.5 0.40192413 9.5
      vertex 216.59808 1.5 11.499999
      vertex 215.5 0.40192413 9.509999
    endloop
  endfacet
  facet normal 0.7071043 -0.7071092 0
    outer loop
      vertex 216.59808 1.5 0
      vertex 215.5 0.40192413 9.5
      vertex 215.5 0.40192413 0
    endloop
  endfacet
  facet normal 0.7071043 -0.7071092 0
    outer loop
      vertex 215.5 0.40192413 9.5
      vertex 216.59808 1.5 0
      vertex 216.59808 1.5 11.499999
    endloop
  endfacet
  facet normal 0.7071043 0.7071092 0
    outer loop
      vertex 216.59808 88.5 0
      vertex 215.5 89.598076 11.499999
      vertex 216.59808 88.5 11.499999
    endloop
  endfacet
  facet normal 0.7071043 0.7071092 0
    outer loop
      vertex 215.5 89.598076 11.499999
      vertex 216.59808 88.5 0
      vertex 215.5 89.598076 0
    endloop
  endfacet
  facet normal 1 0 0
    outer loop
      vertex 217 3 11.499999
      vertex 217 87 0
      vertex 217 87 11.499999
    endloop
  endfacet
  facet normal 1 0 0
    outer loop
      vertex 217 87 0
      vertex 217 3 11.499999
      vertex 217 3 0
    endloop
  endfacet
  facet normal 0 0 -1
    outer loop
      vertex 214 0 0
      vertex 217 3 0
      vertex 216.59808 1.5 0
    endloop
  endfacet
  facet normal 0 0 -1
    outer loop
      vertex 217 3 0
      vertex 214 0 0
      vertex 217 87 0
    endloop
  endfacet
  facet normal 0 0 -1
    outer loop
      vertex 214 0 0
      vertex 216.59808 1.5 0
      vertex 215.5 0.40192413 0
    endloop
  endfacet
  facet normal 0 0 -1
    outer loop
      vertex 214 90 0
      vertex 217 87 0
      vertex 214 0 0
    endloop
  endfacet
  facet normal 0 0 -1
    outer loop
      vertex 217 87 0
      vertex 214 90 0
      vertex 216.59808 88.5 0
    endloop
  endfacet
  facet normal 0 0 -1
    outer loop
      vertex 216.59808 88.5 0
      vertex 214 90 0
      vertex 215.5 89.598076 0
    endloop
  endfacet
  facet normal 0 0 -1
    outer loop
      vertex 3 0 0
      vertex 214 90 0
      vertex 214 0 0
    endloop
  endfacet
  facet normal 0 0 -1
    outer loop
      vertex 3 0 0
      vertex 3 90 0
      vertex 214 90 0
    endloop
  endfacet
  facet normal 0 0 -1
    outer loop
      vertex 0 3 0
      vertex 3 0 0
      vertex 1.5 0.40192413 0
    endloop
  endfacet
  facet normal 0 0 -1
    outer loop
      vertex 3 0 0
      vertex 0 3 0
      vertex 3 90 0
    endloop
  endfacet
  facet normal 0 0 -1
    outer loop
      vertex 0 3 0
      vertex 1.5 0.40192413 0
      vertex 0.40192413 1.5 0
    endloop
  endfacet
  facet normal 0 0 -1
    outer loop
      vertex 0 87 0
      vertex 3 90 0
      vertex 0 3 0
    endloop
  endfacet
  facet normal 0 0 -1
    outer loop
      vertex 3 90 0
      vertex 0 87 0
      vertex 1.5 89.598076 0
    endloop
  endfacet
  facet normal 0 0 -1
    outer loop
      vertex 1.5 89.598076 0
      vertex 0 87 0
      vertex 0.40192413 88.5 0
    endloop
  endfacet
  facet normal 0.25881925 0.96592575 0
    outer loop
      vertex 215.5 89.598076 0
      vertex 214 90 11.499999
      vertex 215.5 89.598076 11.499999
    endloop
  endfacet
  facet normal 0.25881925 0.96592575 0
    outer loop
      vertex 214 90 11.499999
      vertex 215.5 89.598076 0
      vertex 214 90 0
    endloop
  endfacet
  facet normal 0.965927 0.25881466 0
    outer loop
      vertex 217 87 11.499999
      vertex 216.59808 88.5 0
      vertex 216.59808 88.5 11.499999
    endloop
  endfacet
  facet normal 0.965927 0.25881466 0
    outer loop
      vertex 216.59808 88.5 0
      vertex 217 87 11.499999
      vertex 217 87 0
    endloop
  endfacet
endsolid OpenSCAD_Model
