solid OpenSCAD_Model
  facet normal -1 0 0
    outer loop
      vertex 105.5 0 16.833332
      vertex 105.5 77.7 18.333332
      vertex 105.5 77.7 16.833332
    endloop
  endfacet
  facet normal -1 0 0
    outer loop
      vertex 105.5 77.7 18.333332
      vertex 105.5 0 16.833332
      vertex 105.5 0 18.333332
    endloop
  endfacet
  facet normal 0 0 1
    outer loop
      vertex 105.5 3 15.333333
      vertex 107 79 15.333333
      vertex 105.5 77.5 15.333333
    endloop
  endfacet
  facet normal 0 0 1
    outer loop
      vertex 107 79 15.333333
      vertex 3 77.5 15.333333
      vertex 105.5 77.5 15.333333
    endloop
  endfacet
  facet normal 0 0 1
    outer loop
      vertex 1.5 79 15.333333
      vertex 3 3 15.333333
      vertex 3 77.5 15.333333
    endloop
  endfacet
  facet normal 0 0 1
    outer loop
      vertex 1.5 79 15.333333
      vertex 3 77.5 15.333333
      vertex 107 79 15.333333
    endloop
  endfacet
  facet normal 0 0 1
    outer loop
      vertex 3 3 15.333333
      vertex 1.5 79 15.333333
      vertex 1.5 0.40192413 15.333333
    endloop
  endfacet
  facet normal 0 0 1
    outer loop
      vertex 3 3 15.333333
      vertex 1.5 0.40192413 15.333333
      vertex 3 0 15.333333
    endloop
  endfacet
  facet normal 0 0 1
    outer loop
      vertex 107 79 15.333333
      vertex 105.5 3 15.333333
      vertex 107 0.40192413 15.333333
    endloop
  endfacet
  facet normal 0 0 1
    outer loop
      vertex 105.5 3 15.333333
      vertex 105.5 0 15.333333
      vertex 107 0.40192413 15.333333
    endloop
  endfacet
  facet normal 0 0 1
    outer loop
      vertex 3 3 15.333333
      vertex 105.5 0 15.333333
      vertex 105.5 3 15.333333
    endloop
  endfacet
  facet normal 0 0 1
    outer loop
      vertex 105.5 0 15.333333
      vertex 3 3 15.333333
      vertex 3 0 15.333333
    endloop
  endfacet
  facet normal 1 0 0
    outer loop
      vertex 3 0 18.333332
      vertex 3 77.7 16.833332
      vertex 3 77.7 18.333332
    endloop
  endfacet
  facet normal 1 0 0
    outer loop
      vertex 3 77.7 16.833332
      vertex 3 0 18.333332
      vertex 3 0 16.833332
    endloop
  endfacet
  facet normal 0 -1 0
    outer loop
      vertex 3 77.7 16.833332
      vertex 105.5 77.7 18.333332
      vertex 3 77.7 18.333332
    endloop
  endfacet
  facet normal 0 -1 0
    outer loop
      vertex 105.5 77.7 18.333332
      vertex 3 77.7 16.833332
      vertex 105.5 77.7 16.833332
    endloop
  endfacet
  facet normal -1 0 0
    outer loop
      vertex 107 0.40192413 15.333333
      vertex 107 79 16.333332
      vertex 107 79 15.333333
    endloop
  endfacet
  facet normal -1 0 0
    outer loop
      vertex 107 79 16.333332
      vertex 107 0.40192413 15.333333
      vertex 107 0.40192413 16.333332
    endloop
  endfacet
  facet normal 1 0 0
    outer loop
      vertex 1.5 0.40192413 16.333332
      vertex 1.5 79 15.333333
      vertex 1.5 79 16.333332
    endloop
  endfacet
  facet normal 1 0 0
    outer loop
      vertex 1.5 79 15.333333
      vertex 1.5 0.40192413 16.333332
      vertex 1.5 0.40192413 15.333333
    endloop
  endfacet
  facet normal 0 0 -1
    outer loop
      vertex 3 0 16.833332
      vertex 2 0.26794943 16.833332
      vertex 3 77.7 16.833332
    endloop
  endfacet
  facet normal 0 0 -1
    outer loop
      vertex 105.5 77.7 16.833332
      vertex 106.5 0.26794943 16.833332
      vertex 105.5 0 16.833332
    endloop
  endfacet
  facet normal 0 0 -1
    outer loop
      vertex 106.5 0.26794943 16.833332
      vertex 105.5 77.7 16.833332
      vertex 106.5 78.5 16.833332
    endloop
  endfacet
  facet normal 0 0 -1
    outer loop
      vertex 3 77.7 16.833332
      vertex 106.5 78.5 16.833332
      vertex 105.5 77.7 16.833332
    endloop
  endfacet
  facet normal 0 0 -1
    outer loop
      vertex 3 77.7 16.833332
      vertex 2 78.5 16.833332
      vertex 106.5 78.5 16.833332
    endloop
  endfacet
  facet normal 0 0 -1
    outer loop
      vertex 2 78.5 16.833332
      vertex 3 77.7 16.833332
      vertex 2 0.26794943 16.833332
    endloop
  endfacet
  facet normal 0.70710677 0 -0.70710677
    outer loop
      vertex 2 78.5 16.833332
      vertex 1.5 0.40192413 16.333332
      vertex 1.5 79 16.333332
    endloop
  endfacet
  facet normal 0.70710677 0 -0.70710677
    outer loop
      vertex 1.5 0.40192413 16.333332
      vertex 2 78.5 16.833332
      vertex 2 0.26794943 16.833332
    endloop
  endfacet
  facet normal 0 -1 0
    outer loop
      vertex 1.5 79 15.333333
      vertex 107 79 16.333332
      vertex 1.5 79 16.333332
    endloop
  endfacet
  facet normal 0 -1 0
    outer loop
      vertex 107 79 16.333332
      vertex 1.5 79 15.333333
      vertex 107 79 15.333333
    endloop
  endfacet
  facet normal 0 -0.70710677 -0.70710677
    outer loop
      vertex 1.5 79 16.333332
      vertex 106.5 78.5 16.833332
      vertex 2 78.5 16.833332
    endloop
  endfacet
  facet normal 0 -0.70710677 -0.70710677
    outer loop
      vertex 106.5 78.5 16.833332
      vertex 1.5 79 16.333332
      vertex 107 79 16.333332
    endloop
  endfacet
  facet normal -0.70710677 0 -0.70710677
    outer loop
      vertex 107 0.40192413 16.333332
      vertex 106.5 78.5 16.833332
      vertex 107 79 16.333332
    endloop
  endfacet
  facet normal -0.70710677 0 -0.70710677
    outer loop
      vertex 106.5 78.5 16.833332
      vertex 107 0.40192413 16.333332
      vertex 106.5 0.26794943 16.833332
    endloop
  endfacet
  facet normal 0.25881925 0.96592575 0
    outer loop
      vertex 107 80.098076 0
      vertex 105.5 80.5 18.333332
      vertex 107 80.098076 18.333332
    endloop
  endfacet
  facet normal 0.25881925 0.96592575 0
    outer loop
      vertex 105.5 80.5 18.333332
      vertex 107 80.098076 0
      vertex 105.5 80.5 0
    endloop
  endfacet
  facet normal 0.96592575 -0.25881925 0
    outer loop
      vertex 108.098076 1.5 18.333332
      vertex 108.5 3 0
      vertex 108.5 3 18.333332
    endloop
  endfacet
  facet normal 0.96592575 -0.25881925 0
    outer loop
      vertex 108.5 3 0
      vertex 108.098076 1.5 18.333332
      vertex 108.098076 1.5 0
    endloop
  endfacet
  facet normal 0 1 0
    outer loop
      vertex 105.5 80.5 0
      vertex 3 80.5 18.333332
      vertex 105.5 80.5 18.333332
    endloop
  endfacet
  facet normal 0 1 0
    outer loop
      vertex 3 80.5 18.333332
      vertex 105.5 80.5 0
      vertex 3 80.5 0
    endloop
  endfacet
  facet normal 0.96592575 0.25881925 0
    outer loop
      vertex 108.5 77.5 18.333332
      vertex 108.098076 79 0
      vertex 108.098076 79 18.333332
    endloop
  endfacet
  facet normal 0.96592575 0.25881925 0
    outer loop
      vertex 108.098076 79 0
      vertex 108.5 77.5 18.333332
      vertex 108.5 77.5 0
    endloop
  endfacet
  facet normal 0.25881925 -0.96592575 0
    outer loop
      vertex 105.5 0 0
      vertex 107 0.40192413 15.333333
      vertex 105.5 0 15.333333
    endloop
  endfacet
  facet normal 0.25881925 -0.96592575 0
    outer loop
      vertex 107 0.40192413 15.333333
      vertex 105.5 0 0
      vertex 107 0.40192413 0
    endloop
  endfacet
  facet normal 0.25881925 -0.96592575 0
    outer loop
      vertex 106.5 0.26794943 16.833332
      vertex 105.5 0 18.333332
      vertex 105.5 0 16.833332
    endloop
  endfacet
  facet normal 0.25881925 -0.96592575 -6.3970735e-9
    outer loop
      vertex 105.5 0 18.333332
      vertex 106.5 0.26794943 16.833332
      vertex 107 0.40192413 18.333332
    endloop
  endfacet
  facet normal 0.25881922 -0.96592575 0
    outer loop
      vertex 107 0.40192413 18.333332
      vertex 106.5 0.26794943 16.833332
      vertex 107 0.40192413 16.333332
    endloop
  endfacet
  facet normal -1 0 0
    outer loop
      vertex 0 3 0
      vertex 0 77.5 18.333332
      vertex 0 77.5 0
    endloop
  endfacet
  facet normal -1 0 0
    outer loop
      vertex 0 77.5 18.333332
      vertex 0 3 0
      vertex 0 3 18.333332
    endloop
  endfacet
  facet normal -0.96592575 0.25881925 0
    outer loop
      vertex 0 77.5 0
      vertex 0.40192413 79 18.333332
      vertex 0.40192413 79 0
    endloop
  endfacet
  facet normal -0.96592575 0.25881925 0
    outer loop
      vertex 0.40192413 79 18.333332
      vertex 0 77.5 0
      vertex 0 77.5 18.333332
    endloop
  endfacet
  facet normal 0 0 1
    outer loop
      vertex 3 80.5 18.333332
      vertex 105.5 77.7 18.333332
      vertex 105.5 80.5 18.333332
    endloop
  endfacet
  facet normal 0 0 1
    outer loop
      vertex 3 80.5 18.333332
      vertex 3 77.7 18.333332
      vertex 105.5 77.7 18.333332
    endloop
  endfacet
  facet normal 0 0 1
    outer loop
      vertex 1.5 80.098076 18.333332
      vertex 3 77.7 18.333332
      vertex 3 80.5 18.333332
    endloop
  endfacet
  facet normal 0 0 1
    outer loop
      vertex 0.40192413 79 18.333332
      vertex 3 77.7 18.333332
      vertex 1.5 80.098076 18.333332
    endloop
  endfacet
  facet normal 0 0 1
    outer loop
      vertex 0 3 18.333332
      vertex 3 77.7 18.333332
      vertex 0 77.5 18.333332
    endloop
  endfacet
  facet normal 0 0 1
    outer loop
      vertex 3 77.7 18.333332
      vertex 0.40192413 79 18.333332
      vertex 0 77.5 18.333332
    endloop
  endfacet
  facet normal 0 0 1
    outer loop
      vertex 3 77.7 18.333332
      vertex 0 3 18.333332
      vertex 3 0 18.333332
    endloop
  endfacet
  facet normal 0 0 1
    outer loop
      vertex 3 0 18.333332
      vertex 0 3 18.333332
      vertex 1.5 0.40192413 18.333332
    endloop
  endfacet
  facet normal 0 0 1
    outer loop
      vertex 1.5 0.40192413 18.333332
      vertex 0 3 18.333332
      vertex 0.40192413 1.5 18.333332
    endloop
  endfacet
  facet normal 0 0 1
    outer loop
      vertex 105.5 77.7 18.333332
      vertex 108.5 77.5 18.333332
      vertex 108.098076 79 18.333332
    endloop
  endfacet
  facet normal 0 0 1
    outer loop
      vertex 108.5 77.5 18.333332
      vertex 105.5 77.7 18.333332
      vertex 108.5 3 18.333332
    endloop
  endfacet
  facet normal 0 0 1
    outer loop
      vertex 105.5 77.7 18.333332
      vertex 108.098076 79 18.333332
      vertex 107 80.098076 18.333332
    endloop
  endfacet
  facet normal 0 0 1
    outer loop
      vertex 105.5 0 18.333332
      vertex 108.5 3 18.333332
      vertex 105.5 77.7 18.333332
    endloop
  endfacet
  facet normal 0 0 1
    outer loop
      vertex 105.5 77.7 18.333332
      vertex 107 80.098076 18.333332
      vertex 105.5 80.5 18.333332
    endloop
  endfacet
  facet normal 0 0 1
    outer loop
      vertex 108.5 3 18.333332
      vertex 105.5 0 18.333332
      vertex 108.098076 1.5 18.333332
    endloop
  endfacet
  facet normal 0 0 1
    outer loop
      vertex 108.098076 1.5 18.333332
      vertex 105.5 0 18.333332
      vertex 107 0.40192413 18.333332
    endloop
  endfacet
  facet normal 0 -1 0
    outer loop
      vertex 3 0 0
      vertex 105.5 0 15.333333
      vertex 3 0 15.333333
    endloop
  endfacet
  facet normal 0 -1 0
    outer loop
      vertex 105.5 0 15.333333
      vertex 3 0 0
      vertex 105.5 0 0
    endloop
  endfacet
  facet normal -0.70710677 0.70710677 0
    outer loop
      vertex 0.40192413 79 0
      vertex 1.5 80.098076 18.333332
      vertex 1.5 80.098076 0
    endloop
  endfacet
  facet normal -0.70710677 0.70710677 0
    outer loop
      vertex 1.5 80.098076 18.333332
      vertex 0.40192413 79 0
      vertex 0.40192413 79 18.333332
    endloop
  endfacet
  facet normal -0.25881925 0.96592575 0
    outer loop
      vertex 3 80.5 0
      vertex 1.5 80.098076 18.333332
      vertex 3 80.5 18.333332
    endloop
  endfacet
  facet normal -0.25881925 0.96592575 0
    outer loop
      vertex 1.5 80.098076 18.333332
      vertex 3 80.5 0
      vertex 1.5 80.098076 0
    endloop
  endfacet
  facet normal 1 0 0
    outer loop
      vertex 108.5 3 18.333332
      vertex 108.5 77.5 0
      vertex 108.5 77.5 18.333332
    endloop
  endfacet
  facet normal 1 0 0
    outer loop
      vertex 108.5 77.5 0
      vertex 108.5 3 18.333332
      vertex 108.5 3 0
    endloop
  endfacet
  facet normal -0.25881925 -0.96592575 0
    outer loop
      vertex 1.5 0.40192413 0
      vertex 3 0 15.333333
      vertex 1.5 0.40192413 15.333333
    endloop
  endfacet
  facet normal -0.25881925 -0.96592575 0
    outer loop
      vertex 3 0 15.333333
      vertex 1.5 0.40192413 0
      vertex 3 0 0
    endloop
  endfacet
  facet normal -0.25881925 -0.96592575 -6.3970735e-9
    outer loop
      vertex 1.5 0.40192413 18.333332
      vertex 2 0.26794943 16.833332
      vertex 3 0 18.333332
    endloop
  endfacet
  facet normal -0.25881922 -0.96592575 0
    outer loop
      vertex 2 0.26794943 16.833332
      vertex 1.5 0.40192413 18.333332
      vertex 1.5 0.40192413 16.333332
    endloop
  endfacet
  facet normal -0.25881925 -0.96592575 0
    outer loop
      vertex 3 0 18.333332
      vertex 2 0.26794943 16.833332
      vertex 3 0 16.833332
    endloop
  endfacet
  facet normal 0.70710677 -0.70710677 0
    outer loop
      vertex 107 0.40192413 16.333332
      vertex 108.098076 1.5 18.333332
      vertex 107 0.40192413 18.333332
    endloop
  endfacet
  facet normal 0.70710677 -0.70710677 0
    outer loop
      vertex 107 0.40192413 15.333333
      vertex 108.098076 1.5 18.333332
      vertex 107 0.40192413 16.333332
    endloop
  endfacet
  facet normal 0.70710677 -0.70710677 0
    outer loop
      vertex 108.098076 1.5 18.333332
      vertex 107 0.40192413 15.333333
      vertex 108.098076 1.5 0
    endloop
  endfacet
  facet normal 0.70710677 -0.70710677 0
    outer loop
      vertex 108.098076 1.5 0
      vertex 107 0.40192413 15.333333
      vertex 107 0.40192413 0
    endloop
  endfacet
  facet normal 0.70710677 0.70710677 0
    outer loop
      vertex 108.098076 79 18.333332
      vertex 107 80.098076 0
      vertex 107 80.098076 18.333332
    endloop
  endfacet
  facet normal 0.70710677 0.70710677 0
    outer loop
      vertex 107 80.098076 0
      vertex 108.098076 79 18.333332
      vertex 108.098076 79 0
    endloop
  endfacet
  facet normal -0.96592575 -0.25881925 0
    outer loop
      vertex 0.40192413 1.5 0
      vertex 0 3 18.333332
      vertex 0 3 0
    endloop
  endfacet
  facet normal -0.96592575 -0.25881925 0
    outer loop
      vertex 0 3 18.333332
      vertex 0.40192413 1.5 0
      vertex 0.40192413 1.5 18.333332
    endloop
  endfacet
  facet normal -0.70710677 -0.70710677 0
    outer loop
      vertex 1.5 0.40192413 15.333333
      vertex 0.40192413 1.5 0
      vertex 1.5 0.40192413 0
    endloop
  endfacet
  facet normal -0.70710677 -0.70710677 0
    outer loop
      vertex 0.40192413 1.5 0
      vertex 1.5 0.40192413 15.333333
      vertex 0.40192413 1.5 18.333332
    endloop
  endfacet
  facet normal -0.70710677 -0.70710677 0
    outer loop
      vertex 1.5 0.40192413 16.333332
      vertex 0.40192413 1.5 18.333332
      vertex 1.5 0.40192413 15.333333
    endloop
  endfacet
  facet normal -0.70710677 -0.70710677 0
    outer loop
      vertex 0.40192413 1.5 18.333332
      vertex 1.5 0.40192413 16.333332
      vertex 1.5 0.40192413 18.333332
    endloop
  endfacet
  facet normal 0 0 -1
    outer loop
      vertex 105.5 0 0
      vertex 108.5 3 0
      vertex 108.098076 1.5 0
    endloop
  endfacet
  facet normal 0 0 -1
    outer loop
      vertex 108.5 3 0
      vertex 105.5 0 0
      vertex 108.5 77.5 0
    endloop
  endfacet
  facet normal 0 0 -1
    outer loop
      vertex 105.5 0 0
      vertex 108.098076 1.5 0
      vertex 107 0.40192413 0
    endloop
  endfacet
  facet normal 0 0 -1
    outer loop
      vertex 105.5 80.5 0
      vertex 108.5 77.5 0
      vertex 105.5 0 0
    endloop
  endfacet
  facet normal 0 0 -1
    outer loop
      vertex 108.5 77.5 0
      vertex 105.5 80.5 0
      vertex 108.098076 79 0
    endloop
  endfacet
  facet normal 0 0 -1
    outer loop
      vertex 108.098076 79 0
      vertex 105.5 80.5 0
      vertex 107 80.098076 0
    endloop
  endfacet
  facet normal 0 0 -1
    outer loop
      vertex 3 0 0
      vertex 105.5 80.5 0
      vertex 105.5 0 0
    endloop
  endfacet
  facet normal 0 0 -1
    outer loop
      vertex 3 0 0
      vertex 3 80.5 0
      vertex 105.5 80.5 0
    endloop
  endfacet
  facet normal 0 0 -1
    outer loop
      vertex 0 3 0
      vertex 3 0 0
      vertex 1.5 0.40192413 0
    endloop
  endfacet
  facet normal 0 0 -1
    outer loop
      vertex 3 0 0
      vertex 0 3 0
      vertex 3 80.5 0
    endloop
  endfacet
  facet normal 0 0 -1
    outer loop
      vertex 0 3 0
      vertex 1.5 0.40192413 0
      vertex 0.40192413 1.5 0
    endloop
  endfacet
  facet normal 0 0 -1
    outer loop
      vertex 0 77.5 0
      vertex 3 80.5 0
      vertex 0 3 0
    endloop
  endfacet
  facet normal 0 0 -1
    outer loop
      vertex 3 80.5 0
      vertex 0 77.5 0
      vertex 1.5 80.098076 0
    endloop
  endfacet
  facet normal 0 0 -1
    outer loop
      vertex 1.5 80.098076 0
      vertex 0 77.5 0
      vertex 0.40192413 79 0
    endloop
  endfacet
  facet normal -0.5849795 -0.097616 0.80515224
    outer loop
      vertex 102.223946 71.5 3.6539602
      vertex 103.74264 71.5 4.7573586
      vertex 102.076355 72.38446 3.6539602
    endloop
  endfacet
  facet normal -0.07863885 0.9490366 0.30519742
    outer loop
      vertex 100.95478 3.255207 8.061393
      vertex 99.058525 3.6722202 6.2760563
      vertex 99.01062 3.0941105 8.061393
    endloop
  endfacet
  facet normal -0.08227091 0.9928694 0.08626674
    outer loop
      vertex 105.5 3 15.333333
      vertex 100.95478 3.255207 8.061393
      vertex 99.01062 3.0941105 8.061393
    endloop
  endfacet
  facet normal 0 0.8099718 0.5864688
    outer loop
      vertex 8.649645 4.7718496 4.7573586
      vertex 99.058525 3.6722202 6.2760563
      vertex 99.14964 4.7718496 4.7573586
    endloop
  endfacet
  facet normal 0 0.8099718 0.5864688
    outer loop
      vertex 99.058525 3.6722202 6.2760563
      vertex 8.649645 4.7718496 4.7573586
      vertex 8.558527 3.6722202 6.2760563
    endloop
  endfacet
  facet normal 0 -0.99991626 0.012940247
    outer loop
      vertex 99.01062 77.40589 8.061393
      vertex 3 77.5 15.333333
      vertex 8.510624 77.40589 8.061393
    endloop
  endfacet
  facet normal 0 -0.99991626 0.012940247
    outer loop
      vertex 3 77.5 15.333333
      vertex 99.01062 77.40589 8.061393
      vertex 105.5 77.5 15.333333
    endloop
  endfacet
  facet normal -0.8090163 0 0.5877862
    outer loop
      vertex 103.74264 9 4.7573586
      vertex 104.84604 71.5 6.2760563
      vertex 103.74264 71.5 4.7573586
    endloop
  endfacet
  facet normal -0.8090163 0 0.5877862
    outer loop
      vertex 104.84604 71.5 6.2760563
      vertex 103.74264 9 4.7573586
      vertex 104.84604 9 6.2760563
    endloop
  endfacet
  facet normal -0.63848794 0.69358265 0.33358106
    outer loop
      vertex 105.5 3 15.333333
      vertex 103.71877 5.7163944 6.2760563
      vertex 102.424 4.524475 6.2760563
    endloop
  endfacet
  facet normal -0.9393009 0.15674263 0.30519754
    outer loop
      vertex 105.105034 7.0757885 8.061393
      vertex 104.84604 9 6.2760563
      vertex 104.55637 7.264143 6.2760563
    endloop
  endfacet
  facet normal 0 0 1
    outer loop
      vertex 99.42249 72.4354 3.0738697
      vertex 100.43861 71.5 3.0738697
      vertex 100.38775 71.80476 3.0738697
    endloop
  endfacet
  facet normal 0 0 1
    outer loop
      vertex 100.43861 71.5 3.0738697
      vertex 99.42249 72.4354 3.0738697
      vertex 100.43861 9 3.0738697
    endloop
  endfacet
  facet normal 0 0 1
    outer loop
      vertex 99.42249 72.4354 3.0738697
      vertex 100.38775 71.80476 3.0738697
      vertex 100.24069 72.07651 3.0738697
    endloop
  endfacet
  facet normal 0 0 1
    outer loop
      vertex 99.42249 8.064598 3.0738697
      vertex 100.43861 9 3.0738697
      vertex 99.42249 72.4354 3.0738697
    endloop
  endfacet
  facet normal 0 0 1
    outer loop
      vertex 99.42249 72.4354 3.0738697
      vertex 100.24069 72.07651 3.0738697
      vertex 100.01337 72.28577 3.0738697
    endloop
  endfacet
  facet normal 0 0 1
    outer loop
      vertex 100.43861 9 3.0738697
      vertex 99.42249 8.064598 3.0738697
      vertex 100.38775 8.695234 3.0738697
    endloop
  endfacet
  facet normal 0 0 1
    outer loop
      vertex 99.42249 72.4354 3.0738697
      vertex 100.01337 72.28577 3.0738697
      vertex 99.730415 72.40988 3.0738697
    endloop
  endfacet
  facet normal 0 0 1
    outer loop
      vertex 100.38775 8.695234 3.0738697
      vertex 99.42249 8.064598 3.0738697
      vertex 100.24069 8.423495 3.0738697
    endloop
  endfacet
  facet normal 0 0 1
    outer loop
      vertex 100.24069 8.423495 3.0738697
      vertex 99.42249 8.064598 3.0738697
      vertex 100.01337 8.21423 3.0738697
    endloop
  endfacet
  facet normal 0 0 1
    outer loop
      vertex 100.01337 8.21423 3.0738697
      vertex 99.42249 8.064598 3.0738697
      vertex 99.730415 8.090114 3.0738697
    endloop
  endfacet
  facet normal 0 0 1
    outer loop
      vertex 8.92249 72.4354 3.0738697
      vertex 99.42249 8.064598 3.0738697
      vertex 99.42249 72.4354 3.0738697
    endloop
  endfacet
  facet normal 0 0 1
    outer loop
      vertex 8.92249 72.4354 3.0738697
      vertex 8.92249 8.064598 3.0738697
      vertex 99.42249 8.064598 3.0738697
    endloop
  endfacet
  facet normal 0 0 1
    outer loop
      vertex 8.074194 71.65449 3.0738697
      vertex 8.92249 72.4354 3.0738697
      vertex 8.622966 72.35955 3.0738697
    endloop
  endfacet
  facet normal 0 0 1
    outer loop
      vertex 8.92249 72.4354 3.0738697
      vertex 8.074194 71.65449 3.0738697
      vertex 8.92249 8.064598 3.0738697
    endloop
  endfacet
  facet normal 0 0 1
    outer loop
      vertex 8.074194 71.65449 3.0738697
      vertex 8.622966 72.35955 3.0738697
      vertex 8.364299 72.19055 3.0738697
    endloop
  endfacet
  facet normal 0 0 1
    outer loop
      vertex 8.074194 8.84551 3.0738697
      vertex 8.92249 8.064598 3.0738697
      vertex 8.074194 71.65449 3.0738697
    endloop
  endfacet
  facet normal 0 0 1
    outer loop
      vertex 8.074194 71.65449 3.0738697
      vertex 8.364299 72.19055 3.0738697
      vertex 8.17452 71.946724 3.0738697
    endloop
  endfacet
  facet normal 0 0 1
    outer loop
      vertex 8.92249 8.064598 3.0738697
      vertex 8.074194 8.84551 3.0738697
      vertex 8.622966 8.140449 3.0738697
    endloop
  endfacet
  facet normal 0 0 1
    outer loop
      vertex 8.622966 8.140449 3.0738697
      vertex 8.074194 8.84551 3.0738697
      vertex 8.364299 8.309444 3.0738697
    endloop
  endfacet
  facet normal 0 0 1
    outer loop
      vertex 8.364299 8.309444 3.0738697
      vertex 8.074194 8.84551 3.0738697
      vertex 8.17452 8.553272 3.0738697
    endloop
  endfacet
  facet normal -0.2118979 -0.23019212 0.9497952
    outer loop
      vertex 100.24069 72.07651 3.0738697
      vertex 100.98985 73.780396 3.6539602
      vertex 100.01337 72.28577 3.0738697
    endloop
  endfacet
  facet normal -0.8375123 0.4532396 0.3051999
    outer loop
      vertex 104.17655 5.360095 8.061393
      vertex 104.55637 7.264143 6.2760563
      vertex 103.71877 5.7163944 6.2760563
    endloop
  endfacet
  facet normal -0.07864163 -0.9490364 0.3051973
    outer loop
      vertex 99.058525 76.82778 6.2760563
      vertex 100.95478 77.24479 8.061393
      vertex 99.01062 77.40589 8.061393
    endloop
  endfacet
  facet normal -0.27516428 0.14891022 0.9497949
    outer loop
      vertex 102.076355 8.115537 3.6539602
      vertex 100.38775 8.695234 3.0738697
      vertex 100.24069 8.423495 3.0738697
    endloop
  endfacet
  facet normal 0.44457483 -0.6804752 0.5825004
    outer loop
      vertex 7.2957506 75.3853 4.7573586
      vertex 6.85252 76.39576 6.2760563
      vertex 5.3792257 75.43321 6.2760563
    endloop
  endfacet
  facet normal -0.9393004 -0.15674374 0.30519846
    outer loop
      vertex 105.42613 71.5 8.061393
      vertex 105.105034 73.42421 8.061393
      vertex 104.84604 71.5 6.2760563
    endloop
  endfacet
  facet normal 0.32437667 0.49649563 0.8051533
    outer loop
      vertex 7.2957506 5.114702 4.7573586
      vertex 7.9058037 6.5054855 3.6539602
      vertex 7.1551228 6.9959297 3.6539602
    endloop
  endfacet
  facet normal -0.99994844 0 0.010157397
    outer loop
      vertex 105.42613 9 8.061393
      vertex 105.5 77.5 15.333333
      vertex 105.42613 71.5 8.061393
    endloop
  endfacet
  facet normal -0.99994844 0 0.010157397
    outer loop
      vertex 105.5 77.5 15.333333
      vertex 105.42613 9 8.061393
      vertex 105.5 3 15.333333
    endloop
  endfacet
  facet normal -0.550515 0.5980185 0.5825007
    outer loop
      vertex 102.424 4.524475 6.2760563
      vertex 102.84804 6.3941154 4.7573586
      vertex 101.8205 5.448203 4.7573586
    endloop
  endfacet
  facet normal -0.8375142 0.45323768 0.30519745
    outer loop
      vertex 105.105034 7.0757885 8.061393
      vertex 104.55637 7.264143 6.2760563
      vertex 104.17655 5.360095 8.061393
    endloop
  endfacet
  facet normal -0.9760377 0.16287401 0.14430012
    outer loop
      vertex 105.5 3 15.333333
      vertex 105.42613 9 8.061393
      vertex 105.105034 7.0757885 8.061393
    endloop
  endfacet
  facet normal -0.9760376 -0.16287418 0.14430025
    outer loop
      vertex 105.42613 71.5 8.061393
      vertex 105.5 77.5 15.333333
      vertex 105.105034 73.42421 8.061393
    endloop
  endfacet
  facet normal -0.40167406 -0.43633294 0.8051531
    outer loop
      vertex 102.84804 74.10588 4.7573586
      vertex 101.8205 75.051796 4.7573586
      vertex 100.98985 73.780396 3.6539602
    endloop
  endfacet
  facet normal -0.32651 -0.74436796 0.5825011
    outer loop
      vertex 101.8205 75.051796 4.7573586
      vertex 102.424 75.975525 6.2760563
      vertex 100.81238 76.68245 6.2760563
    endloop
  endfacet
  facet normal 0.17112598 0.26192737 0.9497947
    outer loop
      vertex 8.622966 8.140449 3.0738697
      vertex 8.364299 8.309444 3.0738697
      vertex 7.1551228 6.9959297 3.6539602
    endloop
  endfacet
  facet normal 0.24078397 -0.9508354 0.19476944
    outer loop
      vertex 6.6195 76.926994 8.061393
      vertex 8.510624 77.40589 8.061393
      vertex 3 77.5 15.333333
    endloop
  endfacet
  facet normal 0.23377293 -0.92314935 0.30519742
    outer loop
      vertex 8.558527 76.82778 6.2760563
      vertex 8.510624 77.40589 8.061393
      vertex 6.6195 76.926994 8.061393
    endloop
  endfacet
  facet normal 0 0.9513663 0.3080619
    outer loop
      vertex 8.558527 3.6722202 6.2760563
      vertex 99.01062 3.0941105 8.061393
      vertex 99.058525 3.6722202 6.2760563
    endloop
  endfacet
  facet normal 0 0.9513663 0.3080619
    outer loop
      vertex 99.01062 3.0941105 8.061393
      vertex 8.558527 3.6722202 6.2760563
      vertex 8.510624 3.0941105 8.061393
    endloop
  endfacet
  facet normal 0 0.99991626 0.012940509
    outer loop
      vertex 99.01062 3.0941105 8.061393
      vertex 3 3 15.333333
      vertex 105.5 3 15.333333
    endloop
  endfacet
  facet normal 0 0.99991626 0.012940509
    outer loop
      vertex 3 3 15.333333
      vertex 99.01062 3.0941105 8.061393
      vertex 8.510624 3.0941105 8.061393
    endloop
  endfacet
  facet normal -0.23823208 0.54311466 0.80515337
    outer loop
      vertex 100.541504 4.887182 4.7573586
      vertex 100.98985 6.7196054 3.6539602
      vertex 100.168686 6.3594084 3.6539602
    endloop
  endfacet
  facet normal -0.23823208 0.54311466 0.80515337
    outer loop
      vertex 101.8205 5.448203 4.7573586
      vertex 100.98985 6.7196054 3.6539602
      vertex 100.541504 4.887182 4.7573586
    endloop
  endfacet
  facet normal -0.8017432 -0.13378832 0.58250195
    outer loop
      vertex 104.84604 71.5 6.2760563
      vertex 104.55637 73.235855 6.2760563
      vertex 103.74264 71.5 4.7573586
    endloop
  endfacet
  facet normal -0.082273796 -0.9928689 0.08626905
    outer loop
      vertex 100.95478 77.24479 8.061393
      vertex 105.5 77.5 15.333333
      vertex 99.01062 77.40589 8.061393
    endloop
  endfacet
  facet normal -0.2119034 0.23018928 0.94979465
    outer loop
      vertex 100.98985 6.7196054 3.6539602
      vertex 101.649574 7.3269196 3.6539602
      vertex 100.24069 8.423495 3.0738697
    endloop
  endfacet
  facet normal -0.067124784 -0.81005365 0.58250093
    outer loop
      vertex 100.541504 75.612816 4.7573586
      vertex 100.81238 76.68245 6.2760563
      vertex 99.058525 76.82778 6.2760563
    endloop
  endfacet
  facet normal 0.0768061 0.3033002 0.9497946
    outer loop
      vertex 8.775058 6.2853603 3.6539602
      vertex 8.92249 8.064598 3.0738697
      vertex 7.9058037 6.5054855 3.6539602
    endloop
  endfacet
  facet normal -0.9393005 0.15674359 0.3051985
    outer loop
      vertex 105.105034 7.0757885 8.061393
      vertex 105.42613 9 8.061393
      vertex 104.84604 9 6.2760563
    endloop
  endfacet
  facet normal -0.71486264 0.3868648 0.5825007
    outer loop
      vertex 103.71877 5.7163944 6.2760563
      vertex 104.55637 7.264143 6.2760563
      vertex 102.84804 6.3941154 4.7573586
    endloop
  endfacet
  facet normal -0.9510561 0 0.30901814
    outer loop
      vertex 104.84604 9 6.2760563
      vertex 105.42613 71.5 8.061393
      vertex 104.84604 71.5 6.2760563
    endloop
  endfacet
  facet normal -0.9510561 0 0.30901814
    outer loop
      vertex 105.42613 71.5 8.061393
      vertex 104.84604 9 6.2760563
      vertex 105.42613 9 8.061393
    endloop
  endfacet
  facet normal -0.7148624 -0.38686562 0.5825004
    outer loop
      vertex 103.512764 72.87758 4.7573586
      vertex 104.55637 73.235855 6.2760563
      vertex 102.84804 74.10588 4.7573586
    endloop
  endfacet
  facet normal -0.55051583 -0.59801763 0.5825008
    outer loop
      vertex 102.84804 74.10588 4.7573586
      vertex 102.424 75.975525 6.2760563
      vertex 101.8205 75.051796 4.7573586
    endloop
  endfacet
  facet normal 0.076806605 0.30329987 0.94979465
    outer loop
      vertex 8.92249 8.064598 3.0738697
      vertex 8.622966 8.140449 3.0738697
      vertex 7.9058037 6.5054855 3.6539602
    endloop
  endfacet
  facet normal 0.59306663 0 0.80515337
    outer loop
      vertex 4.8152227 72.19832 4.7573586
      vertex 6.3132076 8.551653 3.6539602
      vertex 6.3132076 71.94835 3.6539602
    endloop
  endfacet
  facet normal 0.59306663 0 0.80515337
    outer loop
      vertex 6.3132076 8.551653 3.6539602
      vertex 4.8152227 72.19832 4.7573586
      vertex 4.8152227 8.301683 4.7573586
    endloop
  endfacet
  facet normal 0.5186646 -0.79387844 0.31740206
    outer loop
      vertex 5.3792257 75.43321 6.2760563
      vertex 6.85252 76.39576 6.2760563
      vertex 3 77.5 15.333333
    endloop
  endfacet
  facet normal 0.07680552 -0.30330056 0.94979453
    outer loop
      vertex 8.92249 72.4354 3.0738697
      vertex 8.775058 74.21464 3.6539602
      vertex 7.9058037 73.994514 3.6539602
    endloop
  endfacet
  facet normal 0.23377293 0.92314935 0.30519742
    outer loop
      vertex 8.510624 3.0941105 8.061393
      vertex 8.558527 3.6722202 6.2760563
      vertex 6.6195 3.5730076 8.061393
    endloop
  endfacet
  facet normal 0.19953795 0.78795755 0.5825011
    outer loop
      vertex 8.649645 4.7718496 4.7573586
      vertex 7.2957506 5.114702 4.7573586
      vertex 6.85252 4.1042395 6.2760563
    endloop
  endfacet
  facet normal 0.44457588 0.68047374 0.5825013
    outer loop
      vertex 7.2957506 5.114702 4.7573586
      vertex 6.1265373 5.8785877 4.7573586
      vertex 5.3792257 5.0667906 6.2760563
    endloop
  endfacet
  facet normal 0 -0.5891011 0.80805933
    outer loop
      vertex 99.14964 75.72815 4.7573586
      vertex 8.775058 74.21464 3.6539602
      vertex 99.275055 74.21464 3.6539602
    endloop
  endfacet
  facet normal 0 -0.5891011 0.80805933
    outer loop
      vertex 8.775058 74.21464 3.6539602
      vertex 99.14964 75.72815 4.7573586
      vertex 8.649645 75.72815 4.7573586
    endloop
  endfacet
  facet normal -0.83751476 -0.4532367 0.3051975
    outer loop
      vertex 104.55637 73.235855 6.2760563
      vertex 105.105034 73.42421 8.061393
      vertex 104.17655 75.13991 8.061393
    endloop
  endfacet
  facet normal -0.8017452 -0.13378553 0.58249986
    outer loop
      vertex 103.74264 71.5 4.7573586
      vertex 104.55637 73.235855 6.2760563
      vertex 103.512764 72.87758 4.7573586
    endloop
  endfacet
  facet normal -0.0671233 -0.81005305 0.58250195
    outer loop
      vertex 99.14964 75.72815 4.7573586
      vertex 100.541504 75.612816 4.7573586
      vertex 99.058525 76.82778 6.2760563
    endloop
  endfacet
  facet normal -0.078641534 -0.9490364 0.3051972
    outer loop
      vertex 100.81238 76.68245 6.2760563
      vertex 100.95478 77.24479 8.061393
      vertex 99.058525 76.82778 6.2760563
    endloop
  endfacet
  facet normal -0.550515 0.5980186 0.5825007
    outer loop
      vertex 103.71877 5.7163944 6.2760563
      vertex 102.84804 6.3941154 4.7573586
      vertex 102.424 4.524475 6.2760563
    endloop
  endfacet
  facet normal 0 0.30997437 0.9507449
    outer loop
      vertex 8.92249 8.064598 3.0738697
      vertex 99.275055 6.2853603 3.6539602
      vertex 99.42249 8.064598 3.0738697
    endloop
  endfacet
  facet normal 0 0.30997437 0.9507449
    outer loop
      vertex 99.275055 6.2853603 3.6539602
      vertex 8.92249 8.064598 3.0738697
      vertex 8.775058 6.2853603 3.6539602
    endloop
  endfacet
  facet normal -0.38253033 0.87208056 0.30519828
    outer loop
      vertex 102.74129 4.038842 8.061393
      vertex 102.424 4.524475 6.2760563
      vertex 100.95478 3.255207 8.061393
    endloop
  endfacet
  facet normal -0.32651117 0.7443676 0.58250093
    outer loop
      vertex 102.424 4.524475 6.2760563
      vertex 101.8205 5.448203 4.7573586
      vertex 100.81238 3.8175478 6.2760563
    endloop
  endfacet
  facet normal 0.07680744 -0.30329937 0.94979477
    outer loop
      vertex 8.622966 72.35955 3.0738697
      vertex 8.92249 72.4354 3.0738697
      vertex 7.9058037 73.994514 3.6539602
    endloop
  endfacet
  facet normal -0.12568024 -0.2865207 0.9497949
    outer loop
      vertex 100.98985 73.780396 3.6539602
      vertex 100.168686 74.140594 3.6539602
      vertex 99.730415 72.40988 3.0738697
    endloop
  endfacet
  facet normal -0.3086063 0.051497217 0.9497948
    outer loop
      vertex 102.076355 8.115537 3.6539602
      vertex 102.223946 9 3.6539602
      vertex 100.43861 9 3.0738697
    endloop
  endfacet
  facet normal 0.24690117 0.19217137 0.9497947
    outer loop
      vertex 8.364299 8.309444 3.0738697
      vertex 8.17452 8.553272 3.0738697
      vertex 7.1551228 6.9959297 3.6539602
    endloop
  endfacet
  facet normal 0.17112781 -0.26192576 0.9497948
    outer loop
      vertex 8.364299 72.19055 3.0738697
      vertex 8.622966 72.35955 3.0738697
      vertex 7.1551228 73.50407 3.6539602
    endloop
  endfacet
  facet normal 0.14558804 -0.5749189 0.8051536
    outer loop
      vertex 8.775058 74.21464 3.6539602
      vertex 8.649645 75.72815 4.7573586
      vertex 7.2957506 75.3853 4.7573586
    endloop
  endfacet
  facet normal 0.4445758 -0.68047357 0.58250153
    outer loop
      vertex 6.1265373 74.621414 4.7573586
      vertex 7.2957506 75.3853 4.7573586
      vertex 5.3792257 75.43321 6.2760563
    endloop
  endfacet
  facet normal 0.46801302 -0.36426798 0.8051538
    outer loop
      vertex 7.1551228 73.50407 3.6539602
      vertex 6.1265373 74.621414 4.7573586
      vertex 5.268708 73.51927 4.7573586
    endloop
  endfacet
  facet normal -0.02584195 -0.311803 0.9497953
    outer loop
      vertex 99.730415 72.40988 3.0738697
      vertex 100.168686 74.140594 3.6539602
      vertex 99.42249 72.4354 3.0738697
    endloop
  endfacet
  facet normal 0.23377295 0.92314935 0.30519742
    outer loop
      vertex 8.558527 3.6722202 6.2760563
      vertex 6.85252 4.1042395 6.2760563
      vertex 6.6195 3.5730076 8.061393
    endloop
  endfacet
  facet normal 0.7454268 0.5801886 0.32820755
    outer loop
      vertex 5.3792257 5.0667906 6.2760563
      vertex 4.298299 6.4555664 6.2760563
      vertex 3 3 15.333333
    endloop
  endfacet
  facet normal -0.8389557 0.45401776 0.3000354
    outer loop
      vertex 105.5 3 15.333333
      vertex 105.105034 7.0757885 8.061393
      vertex 104.17655 5.360095 8.061393
    endloop
  endfacet
  facet normal -0.8177649 0.48692697 0.30685943
    outer loop
      vertex 105.5 3 15.333333
      vertex 104.17655 5.360095 8.061393
      vertex 103.71877 5.7163944 6.2760563
    endloop
  endfacet
  facet normal 0 0.5891013 0.80805916
    outer loop
      vertex 8.775058 6.2853603 3.6539602
      vertex 99.14964 4.7718496 4.7573586
      vertex 99.275055 6.2853603 3.6539602
    endloop
  endfacet
  facet normal 0 0.5891013 0.80805916
    outer loop
      vertex 99.14964 4.7718496 4.7573586
      vertex 8.775058 6.2853603 3.6539602
      vertex 8.649645 4.7718496 4.7573586
    endloop
  endfacet
  facet normal -0.40167266 0.4363344 0.805153
    outer loop
      vertex 102.84804 6.3941154 4.7573586
      vertex 101.649574 7.3269196 3.6539602
      vertex 100.98985 6.7196054 3.6539602
    endloop
  endfacet
  facet normal -0.3086063 -0.051497385 0.9497948
    outer loop
      vertex 102.223946 71.5 3.6539602
      vertex 102.076355 72.38446 3.6539602
      vertex 100.43861 71.5 3.0738697
    endloop
  endfacet
  facet normal -0.83751273 -0.4532387 0.30520007
    outer loop
      vertex 104.55637 73.235855 6.2760563
      vertex 104.17655 75.13991 8.061393
      vertex 103.71877 74.78361 6.2760563
    endloop
  endfacet
  facet normal -0.9393009 -0.15674281 0.30519754
    outer loop
      vertex 104.84604 71.5 6.2760563
      vertex 105.105034 73.42421 8.061393
      vertex 104.55637 73.235855 6.2760563
    endloop
  endfacet
  facet normal -0.3864925 -0.8811188 0.27249458
    outer loop
      vertex 102.74129 76.46116 8.061393
      vertex 105.5 77.5 15.333333
      vertex 100.95478 77.24479 8.061393
    endloop
  endfacet
  facet normal -0.71486247 -0.38686377 0.5825016
    outer loop
      vertex 104.55637 73.235855 6.2760563
      vertex 103.71877 74.78361 6.2760563
      vertex 102.84804 74.10588 4.7573586
    endloop
  endfacet
  facet normal -0.8177632 -0.4869296 0.30685976
    outer loop
      vertex 104.17655 75.13991 8.061393
      vertex 105.5 77.5 15.333333
      vertex 103.71877 74.78361 6.2760563
    endloop
  endfacet
  facet normal -0.8389563 -0.45401683 0.30003503
    outer loop
      vertex 105.105034 73.42421 8.061393
      vertex 105.5 77.5 15.333333
      vertex 104.17655 75.13991 8.061393
    endloop
  endfacet
  facet normal -0.38253018 -0.8720811 0.30519694
    outer loop
      vertex 102.424 75.975525 6.2760563
      vertex 100.95478 77.24479 8.061393
      vertex 100.81238 76.68245 6.2760563
    endloop
  endfacet
  facet normal -0.32650933 -0.74436796 0.58250153
    outer loop
      vertex 101.8205 75.051796 4.7573586
      vertex 100.81238 76.68245 6.2760563
      vertex 100.541504 75.612816 4.7573586
    endloop
  endfacet
  facet normal -0.6384874 -0.6935832 0.33358097
    outer loop
      vertex 103.71877 74.78361 6.2760563
      vertex 105.5 77.5 15.333333
      vertex 102.424 75.975525 6.2760563
    endloop
  endfacet
  facet normal -0.5505138 -0.5980182 0.5825021
    outer loop
      vertex 102.84804 74.10588 4.7573586
      vertex 103.71877 74.78361 6.2760563
      vertex 102.424 75.975525 6.2760563
    endloop
  endfacet
  facet normal 0 -0.30997467 0.9507448
    outer loop
      vertex 99.275055 74.21464 3.6539602
      vertex 8.92249 72.4354 3.0738697
      vertex 99.42249 72.4354 3.0738697
    endloop
  endfacet
  facet normal 0 -0.30997467 0.9507448
    outer loop
      vertex 8.92249 72.4354 3.0738697
      vertex 99.275055 74.21464 3.6539602
      vertex 8.775058 74.21464 3.6539602
    endloop
  endfacet
  facet normal 0 -0.8099711 0.58646977
    outer loop
      vertex 8.649645 75.72815 4.7573586
      vertex 99.058525 76.82778 6.2760563
      vertex 8.558527 76.82778 6.2760563
    endloop
  endfacet
  facet normal 0 -0.8099711 0.58646977
    outer loop
      vertex 99.058525 76.82778 6.2760563
      vertex 8.649645 75.72815 4.7573586
      vertex 99.14964 75.72815 4.7573586
    endloop
  endfacet
  facet normal -0.06712281 0.8100538 0.58250093
    outer loop
      vertex 100.541504 4.887182 4.7573586
      vertex 99.14964 4.7718496 4.7573586
      vertex 99.058525 3.6722202 6.2760563
    endloop
  endfacet
  facet normal -0.52158713 -0.28226945 0.80515265
    outer loop
      vertex 102.076355 72.38446 3.6539602
      vertex 102.84804 74.10588 4.7573586
      vertex 101.649574 73.17308 3.6539602
    endloop
  endfacet
  facet normal -0.2751644 -0.14891183 0.94979465
    outer loop
      vertex 102.076355 72.38446 3.6539602
      vertex 101.649574 73.17308 3.6539602
      vertex 100.24069 72.07651 3.0738697
    endloop
  endfacet
  facet normal -0.4016731 0.4363332 0.8051534
    outer loop
      vertex 101.8205 5.448203 4.7573586
      vertex 102.84804 6.3941154 4.7573586
      vertex 100.98985 6.7196054 3.6539602
    endloop
  endfacet
  facet normal -0.30860573 0.051498346 0.94979495
    outer loop
      vertex 102.076355 8.115537 3.6539602
      vertex 100.43861 9 3.0738697
      vertex 100.38775 8.695234 3.0738697
    endloop
  endfacet
  facet normal -0.5129575 0.800868 0.30900666
    outer loop
      vertex 102.74129 4.038842 8.061393
      vertex 105.5 3 15.333333
      vertex 102.424 4.524475 6.2760563
    endloop
  endfacet
  facet normal -0.3864944 0.8811177 0.27249527
    outer loop
      vertex 105.5 3 15.333333
      vertex 102.74129 4.038842 8.061393
      vertex 100.95478 3.255207 8.061393
    endloop
  endfacet
  facet normal -0.23823193 -0.54311526 0.805153
    outer loop
      vertex 100.98985 73.780396 3.6539602
      vertex 101.8205 75.051796 4.7573586
      vertex 100.541504 75.612816 4.7573586
    endloop
  endfacet
  facet normal 0.29592144 0.10159036 0.94979465
    outer loop
      vertex 8.17452 8.553272 3.0738697
      vertex 8.074194 8.84551 3.0738697
      vertex 6.6043634 7.7035456 3.6539602
    endloop
  endfacet
  facet normal 0.29592162 0.10159009 0.94979465
    outer loop
      vertex 6.6043634 7.7035456 3.6539602
      vertex 8.074194 8.84551 3.0738697
      vertex 6.3132076 8.551653 3.6539602
    endloop
  endfacet
  facet normal -0.27516514 -0.14890808 0.949795
    outer loop
      vertex 100.38775 71.80476 3.0738697
      vertex 102.076355 72.38446 3.6539602
      vertex 100.24069 72.07651 3.0738697
    endloop
  endfacet
  facet normal -0.30901632 0 0.9510567
    outer loop
      vertex 100.43861 71.5 3.0738697
      vertex 102.223946 9 3.6539602
      vertex 102.223946 71.5 3.6539602
    endloop
  endfacet
  facet normal -0.30901632 0 0.9510567
    outer loop
      vertex 102.223946 9 3.6539602
      vertex 100.43861 71.5 3.0738697
      vertex 100.43861 9 3.0738697
    endloop
  endfacet
  facet normal 0.24690117 -0.19217137 0.9497947
    outer loop
      vertex 8.17452 71.946724 3.0738697
      vertex 8.364299 72.19055 3.0738697
      vertex 7.1551228 73.50407 3.6539602
    endloop
  endfacet
  facet normal -0.5849795 0.09761569 0.8051523
    outer loop
      vertex 103.74264 9 4.7573586
      vertex 102.223946 9 3.6539602
      vertex 102.076355 8.115537 3.6539602
    endloop
  endfacet
  facet normal 0.48709494 -0.8176597 0.30687323
    outer loop
      vertex 6.85252 76.39576 6.2760563
      vertex 6.6195 76.926994 8.061393
      vertex 3 77.5 15.333333
    endloop
  endfacet
  facet normal 0.23377429 -0.9231486 0.30519885
    outer loop
      vertex 6.85252 76.39576 6.2760563
      vertex 8.558527 76.82778 6.2760563
      vertex 6.6195 76.926994 8.061393
    endloop
  endfacet
  facet normal 0.8056703 -0.5057301 0.30843538
    outer loop
      vertex 3.788124 74.320526 8.061393
      vertex 4.298299 74.04443 6.2760563
      vertex 3 77.5 15.333333
    endloop
  endfacet
  facet normal 0.90069145 -0.30920786 0.30519736
    outer loop
      vertex 4.298299 74.04443 6.2760563
      vertex 3.788124 74.320526 8.061393
      vertex 3.7268734 72.37993 6.2760563
    endloop
  endfacet
  facet normal 0.14558926 0.574919 0.80515337
    outer loop
      vertex 8.649645 4.7718496 4.7573586
      vertex 8.775058 6.2853603 3.6539602
      vertex 7.2957506 5.114702 4.7573586
    endloop
  endfacet
  facet normal -0.12568055 -0.28652042 0.94979495
    outer loop
      vertex 100.01337 72.28577 3.0738697
      vertex 100.98985 73.780396 3.6539602
      vertex 99.730415 72.40988 3.0738697
    endloop
  endfacet
  facet normal -0.025837313 0.31180534 0.94979465
    outer loop
      vertex 100.168686 6.3594084 3.6539602
      vertex 99.730415 8.090114 3.0738697
      vertex 99.42249 8.064598 3.0738697
    endloop
  endfacet
  facet normal -0.38253143 0.87208045 0.3051973
    outer loop
      vertex 100.95478 3.255207 8.061393
      vertex 102.424 4.524475 6.2760563
      vertex 100.81238 3.8175478 6.2760563
    endloop
  endfacet
  facet normal -0.07863896 0.94903654 0.30519754
    outer loop
      vertex 100.95478 3.255207 8.061393
      vertex 100.81238 3.8175478 6.2760563
      vertex 99.058525 3.6722202 6.2760563
    endloop
  endfacet
  facet normal -0.5129593 -0.80086666 0.30900705
    outer loop
      vertex 105.5 77.5 15.333333
      vertex 102.74129 76.46116 8.061393
      vertex 102.424 75.975525 6.2760563
    endloop
  endfacet
  facet normal -0.38252833 -0.87208134 0.3051986
    outer loop
      vertex 102.424 75.975525 6.2760563
      vertex 102.74129 76.46116 8.061393
      vertex 100.95478 77.24479 8.061393
    endloop
  endfacet
  facet normal 0 -0.9513663 0.3080619
    outer loop
      vertex 8.558527 76.82778 6.2760563
      vertex 99.01062 77.40589 8.061393
      vertex 8.510624 77.40589 8.061393
    endloop
  endfacet
  facet normal 0 -0.9513663 0.3080619
    outer loop
      vertex 99.01062 77.40589 8.061393
      vertex 8.558527 76.82778 6.2760563
      vertex 99.058525 76.82778 6.2760563
    endloop
  endfacet
  facet normal -0.23823364 -0.5431154 0.8051524
    outer loop
      vertex 100.98985 73.780396 3.6539602
      vertex 100.541504 75.612816 4.7573586
      vertex 100.168686 74.140594 3.6539602
    endloop
  endfacet
  facet normal -0.048975438 -0.5910422 0.8051525
    outer loop
      vertex 100.168686 74.140594 3.6539602
      vertex 100.541504 75.612816 4.7573586
      vertex 99.14964 75.72815 4.7573586
    endloop
  endfacet
  facet normal 0.19953659 -0.7879587 0.5825
    outer loop
      vertex 7.2957506 75.3853 4.7573586
      vertex 8.649645 75.72815 4.7573586
      vertex 6.85252 76.39576 6.2760563
    endloop
  endfacet
  facet normal 0.19953889 -0.7879568 0.5825018
    outer loop
      vertex 8.649645 75.72815 4.7573586
      vertex 8.558527 76.82778 6.2760563
      vertex 6.85252 76.39576 6.2760563
    endloop
  endfacet
  facet normal -0.58497894 0.09761386 0.8051529
    outer loop
      vertex 103.512764 7.6224165 4.7573586
      vertex 103.74264 9 4.7573586
      vertex 102.076355 8.115537 3.6539602
    endloop
  endfacet
  facet normal -0.5215865 0.28226975 0.80515295
    outer loop
      vertex 102.84804 6.3941154 4.7573586
      vertex 103.512764 7.6224165 4.7573586
      vertex 102.076355 8.115537 3.6539602
    endloop
  endfacet
  facet normal -0.8017432 0.13378817 0.58250195
    outer loop
      vertex 104.55637 7.264143 6.2760563
      vertex 104.84604 9 6.2760563
      vertex 103.74264 9 4.7573586
    endloop
  endfacet
  facet normal -0.048971657 -0.59104073 0.8051538
    outer loop
      vertex 99.275055 74.21464 3.6539602
      vertex 100.168686 74.140594 3.6539602
      vertex 99.14964 75.72815 4.7573586
    endloop
  endfacet
  facet normal -0.025835179 -0.31180573 0.9497946
    outer loop
      vertex 99.42249 72.4354 3.0738697
      vertex 100.168686 74.140594 3.6539602
      vertex 99.275055 74.21464 3.6539602
    endloop
  endfacet
  facet normal 0.31287402 0 0.94979465
    outer loop
      vertex 6.3132076 71.94835 3.6539602
      vertex 8.074194 8.84551 3.0738697
      vertex 8.074194 71.65449 3.0738697
    endloop
  endfacet
  facet normal 0.31287402 0 0.94979465
    outer loop
      vertex 8.074194 8.84551 3.0738697
      vertex 6.3132076 71.94835 3.6539602
      vertex 6.3132076 8.551653 3.6539602
    endloop
  endfacet
  facet normal 0.24690066 -0.19217172 0.94979477
    outer loop
      vertex 8.17452 71.946724 3.0738697
      vertex 7.1551228 73.50407 3.6539602
      vertex 6.6043634 72.796455 3.6539602
    endloop
  endfacet
  facet normal -0.5215868 -0.2822697 0.80515283
    outer loop
      vertex 103.512764 72.87758 4.7573586
      vertex 102.84804 74.10588 4.7573586
      vertex 102.076355 72.38446 3.6539602
    endloop
  endfacet
  facet normal -0.58497894 -0.0976142 0.8051529
    outer loop
      vertex 103.74264 71.5 4.7573586
      vertex 103.512764 72.87758 4.7573586
      vertex 102.076355 72.38446 3.6539602
    endloop
  endfacet
  facet normal -0.5215862 0.28226995 0.8051531
    outer loop
      vertex 102.84804 6.3941154 4.7573586
      vertex 102.076355 8.115537 3.6539602
      vertex 101.649574 7.3269196 3.6539602
    endloop
  endfacet
  facet normal -0.2751639 0.14891212 0.9497947
    outer loop
      vertex 101.649574 7.3269196 3.6539602
      vertex 102.076355 8.115537 3.6539602
      vertex 100.24069 8.423495 3.0738697
    endloop
  endfacet
  facet normal 0.5609325 -0.19256906 0.8051533
    outer loop
      vertex 6.3132076 71.94835 3.6539602
      vertex 5.268708 73.51927 4.7573586
      vertex 4.8152227 72.19832 4.7573586
    endloop
  endfacet
  facet normal 0.4680124 -0.364271 0.80515283
    outer loop
      vertex 6.6043634 72.796455 3.6539602
      vertex 7.1551228 73.50407 3.6539602
      vertex 5.268708 73.51927 4.7573586
    endloop
  endfacet
  facet normal 0.7687885 -0.2639255 0.5825011
    outer loop
      vertex 5.268708 73.51927 4.7573586
      vertex 4.298299 74.04443 6.2760563
      vertex 3.7268734 72.37993 6.2760563
    endloop
  endfacet
  facet normal 0.74542737 -0.58018786 0.32820737
    outer loop
      vertex 4.298299 74.04443 6.2760563
      vertex 5.3792257 75.43321 6.2760563
      vertex 3 77.5 15.333333
    endloop
  endfacet
  facet normal 0.90069133 -0.30920798 0.30519754
    outer loop
      vertex 3.7268734 72.37993 6.2760563
      vertex 3.788124 74.320526 8.061393
      vertex 3.1546946 72.47541 8.061393
    endloop
  endfacet
  facet normal 0.9187597 -0.31541088 0.23747958
    outer loop
      vertex 3.1546946 72.47541 8.061393
      vertex 3.788124 74.320526 8.061393
      vertex 3 77.5 15.333333
    endloop
  endfacet
  facet normal 0.14558935 0.5749189 0.80515337
    outer loop
      vertex 8.775058 6.2853603 3.6539602
      vertex 7.9058037 6.5054855 3.6539602
      vertex 7.2957506 5.114702 4.7573586
    endloop
  endfacet
  facet normal 0.1711258 0.2619276 0.94979465
    outer loop
      vertex 7.9058037 6.5054855 3.6539602
      vertex 8.622966 8.140449 3.0738697
      vertex 7.1551228 6.9959297 3.6539602
    endloop
  endfacet
  facet normal 0.64143735 0.4992504 0.58250076
    outer loop
      vertex 5.3792257 5.0667906 6.2760563
      vertex 5.268708 6.9807253 4.7573586
      vertex 4.298299 6.4555664 6.2760563
    endloop
  endfacet
  facet normal 0.9006915 0.30920774 0.30519724
    outer loop
      vertex 3.788124 6.179473 8.061393
      vertex 3.7268734 8.12007 6.2760563
      vertex 3.1546946 8.0245905 8.061393
    endloop
  endfacet
  facet normal -0.30860567 -0.051498655 0.94979495
    outer loop
      vertex 100.43861 71.5 3.0738697
      vertex 102.076355 72.38446 3.6539602
      vertex 100.38775 71.80476 3.0738697
    endloop
  endfacet
  facet normal -0.04897494 0.5910411 0.80515337
    outer loop
      vertex 100.541504 4.887182 4.7573586
      vertex 100.168686 6.3594084 3.6539602
      vertex 99.14964 4.7718496 4.7573586
    endloop
  endfacet
  facet normal -0.12568009 0.28652188 0.9497946
    outer loop
      vertex 100.168686 6.3594084 3.6539602
      vertex 100.98985 6.7196054 3.6539602
      vertex 99.730415 8.090114 3.0738697
    endloop
  endfacet
  facet normal -0.3265097 0.74436754 0.5825018
    outer loop
      vertex 100.81238 3.8175478 6.2760563
      vertex 101.8205 5.448203 4.7573586
      vertex 100.541504 4.887182 4.7573586
    endloop
  endfacet
  facet normal -0.067122586 0.8100537 0.5825011
    outer loop
      vertex 100.81238 3.8175478 6.2760563
      vertex 100.541504 4.887182 4.7573586
      vertex 99.058525 3.6722202 6.2760563
    endloop
  endfacet
  facet normal -0.025836827 0.31180555 0.9497946
    outer loop
      vertex 100.168686 6.3594084 3.6539602
      vertex 99.42249 8.064598 3.0738697
      vertex 99.275055 6.2853603 3.6539602
    endloop
  endfacet
  facet normal -0.048974838 0.591041 0.80515337
    outer loop
      vertex 100.168686 6.3594084 3.6539602
      vertex 99.275055 6.2853603 3.6539602
      vertex 99.14964 4.7718496 4.7573586
    endloop
  endfacet
  facet normal 0.14558809 -0.5749189 0.8051536
    outer loop
      vertex 7.9058037 73.994514 3.6539602
      vertex 8.775058 74.21464 3.6539602
      vertex 7.2957506 75.3853 4.7573586
    endloop
  endfacet
  facet normal 0.32437623 -0.49649456 0.80515414
    outer loop
      vertex 7.1551228 73.50407 3.6539602
      vertex 7.2957506 75.3853 4.7573586
      vertex 6.1265373 74.621414 4.7573586
    endloop
  endfacet
  facet normal -0.8017454 0.1337851 0.5824996
    outer loop
      vertex 104.55637 7.264143 6.2760563
      vertex 103.74264 9 4.7573586
      vertex 103.512764 7.6224165 4.7573586
    endloop
  endfacet
  facet normal -0.7148626 0.386866 0.5824999
    outer loop
      vertex 104.55637 7.264143 6.2760563
      vertex 103.512764 7.6224165 4.7573586
      vertex 102.84804 6.3941154 4.7573586
    endloop
  endfacet
  facet normal 0.2959214 -0.10159012 0.9497947
    outer loop
      vertex 8.074194 71.65449 3.0738697
      vertex 6.6043634 72.796455 3.6539602
      vertex 6.3132076 71.94835 3.6539602
    endloop
  endfacet
  facet normal -0.21190377 -0.23018932 0.94979453
    outer loop
      vertex 101.649574 73.17308 3.6539602
      vertex 100.98985 73.780396 3.6539602
      vertex 100.24069 72.07651 3.0738697
    endloop
  endfacet
  facet normal -0.40167344 -0.43633458 0.80515254
    outer loop
      vertex 101.649574 73.17308 3.6539602
      vertex 102.84804 74.10588 4.7573586
      vertex 100.98985 73.780396 3.6539602
    endloop
  endfacet
  facet normal -0.5877866 0 0.809016
    outer loop
      vertex 102.223946 71.5 3.6539602
      vertex 103.74264 9 4.7573586
      vertex 103.74264 71.5 4.7573586
    endloop
  endfacet
  facet normal -0.5877866 0 0.809016
    outer loop
      vertex 103.74264 9 4.7573586
      vertex 102.223946 71.5 3.6539602
      vertex 102.223946 9 3.6539602
    endloop
  endfacet
  facet normal 0.6414375 -0.49924946 0.5825015
    outer loop
      vertex 5.268708 73.51927 4.7573586
      vertex 5.3792257 75.43321 6.2760563
      vertex 4.298299 74.04443 6.2760563
    endloop
  endfacet
  facet normal 0.64143765 -0.49924937 0.58250135
    outer loop
      vertex 6.1265373 74.621414 4.7573586
      vertex 5.3792257 75.43321 6.2760563
      vertex 5.268708 73.51927 4.7573586
    endloop
  endfacet
  facet normal 0.29592106 -0.10159056 0.94979477
    outer loop
      vertex 8.074194 71.65449 3.0738697
      vertex 8.17452 71.946724 3.0738697
      vertex 6.6043634 72.796455 3.6539602
    endloop
  endfacet
  facet normal 0.1995378 0.78795767 0.58250093
    outer loop
      vertex 8.558527 3.6722202 6.2760563
      vertex 8.649645 4.7718496 4.7573586
      vertex 6.85252 4.1042395 6.2760563
    endloop
  endfacet
  facet normal 0.5609326 0.19256853 0.8051534
    outer loop
      vertex 6.6043634 7.7035456 3.6539602
      vertex 6.3132076 8.551653 3.6539602
      vertex 5.268708 6.9807253 4.7573586
    endloop
  endfacet
  facet normal 0.64143664 0.49925074 0.5825013
    outer loop
      vertex 5.3792257 5.0667906 6.2760563
      vertex 6.1265373 5.8785877 4.7573586
      vertex 5.268708 6.9807253 4.7573586
    endloop
  endfacet
  facet normal 0.24078397 0.95083535 0.19476968
    outer loop
      vertex 8.510624 3.0941105 8.061393
      vertex 6.6195 3.5730076 8.061393
      vertex 3 3 15.333333
    endloop
  endfacet
  facet normal 0.48709205 0.81766176 0.3068722
    outer loop
      vertex 6.6195 3.5730076 8.061393
      vertex 6.85252 4.1042395 6.2760563
      vertex 3 3 15.333333
    endloop
  endfacet
  facet normal -0.21190244 0.23018973 0.9497947
    outer loop
      vertex 100.98985 6.7196054 3.6539602
      vertex 100.24069 8.423495 3.0738697
      vertex 100.01337 8.21423 3.0738697
    endloop
  endfacet
  facet normal -0.12568158 0.2865206 0.94979477
    outer loop
      vertex 100.98985 6.7196054 3.6539602
      vertex 100.01337 8.21423 3.0738697
      vertex 99.730415 8.090114 3.0738697
    endloop
  endfacet
  facet normal 0.17112675 -0.261927 0.94979465
    outer loop
      vertex 8.622966 72.35955 3.0738697
      vertex 7.9058037 73.994514 3.6539602
      vertex 7.1551228 73.50407 3.6539602
    endloop
  endfacet
  facet normal 0.32437834 -0.49649432 0.8051534
    outer loop
      vertex 7.9058037 73.994514 3.6539602
      vertex 7.2957506 75.3853 4.7573586
      vertex 7.1551228 73.50407 3.6539602
    endloop
  endfacet
  facet normal 0.56093276 -0.19256881 0.8051532
    outer loop
      vertex 6.3132076 71.94835 3.6539602
      vertex 6.6043634 72.796455 3.6539602
      vertex 5.268708 73.51927 4.7573586
    endloop
  endfacet
  facet normal 0.95228916 0 0.3051972
    outer loop
      vertex 3.1546946 72.47541 8.061393
      vertex 3.7268734 8.12007 6.2760563
      vertex 3.7268734 72.37993 6.2760563
    endloop
  endfacet
  facet normal 0.95228916 0 0.3051972
    outer loop
      vertex 3.7268734 8.12007 6.2760563
      vertex 3.1546946 72.47541 8.061393
      vertex 3.1546946 8.0245905 8.061393
    endloop
  endfacet
  facet normal 0.76878864 -0.26392642 0.5825006
    outer loop
      vertex 4.8152227 72.19832 4.7573586
      vertex 5.268708 73.51927 4.7573586
      vertex 3.7268734 72.37993 6.2760563
    endloop
  endfacet
  facet normal 0.51866597 0.7938774 0.31740245
    outer loop
      vertex 6.85252 4.1042395 6.2760563
      vertex 5.3792257 5.0667906 6.2760563
      vertex 3 3 15.333333
    endloop
  endfacet
  facet normal 0.4445758 0.6804739 0.5825012
    outer loop
      vertex 6.85252 4.1042395 6.2760563
      vertex 7.2957506 5.114702 4.7573586
      vertex 5.3792257 5.0667906 6.2760563
    endloop
  endfacet
  facet normal 0.46801284 0.36426944 0.80515325
    outer loop
      vertex 6.1265373 5.8785877 4.7573586
      vertex 7.1551228 6.9959297 3.6539602
      vertex 5.268708 6.9807253 4.7573586
    endloop
  endfacet
  facet normal 0.3243769 0.4964956 0.80515325
    outer loop
      vertex 7.2957506 5.114702 4.7573586
      vertex 7.1551228 6.9959297 3.6539602
      vertex 6.1265373 5.8785877 4.7573586
    endloop
  endfacet
  facet normal 0.9997738 0 0.021267992
    outer loop
      vertex 3 77.5 15.333333
      vertex 3.1546946 8.0245905 8.061393
      vertex 3.1546946 72.47541 8.061393
    endloop
  endfacet
  facet normal 0.9997738 0 0.021267992
    outer loop
      vertex 3.1546946 8.0245905 8.061393
      vertex 3 77.5 15.333333
      vertex 3 3 15.333333
    endloop
  endfacet
  facet normal 0.24690154 0.19217111 0.94979465
    outer loop
      vertex 7.1551228 6.9959297 3.6539602
      vertex 8.17452 8.553272 3.0738697
      vertex 6.6043634 7.7035456 3.6539602
    endloop
  endfacet
  facet normal 0.46801296 0.36426896 0.8051534
    outer loop
      vertex 7.1551228 6.9959297 3.6539602
      vertex 6.6043634 7.7035456 3.6539602
      vertex 5.268708 6.9807253 4.7573586
    endloop
  endfacet
  facet normal 0.76878864 0.26392546 0.582501
    outer loop
      vertex 5.268708 6.9807253 4.7573586
      vertex 4.8152227 8.301683 4.7573586
      vertex 3.7268734 8.12007 6.2760563
    endloop
  endfacet
  facet normal 0.81283 0 0.582501
    outer loop
      vertex 3.7268734 72.37993 6.2760563
      vertex 4.8152227 8.301683 4.7573586
      vertex 4.8152227 72.19832 4.7573586
    endloop
  endfacet
  facet normal 0.81283 0 0.582501
    outer loop
      vertex 4.8152227 8.301683 4.7573586
      vertex 3.7268734 72.37993 6.2760563
      vertex 3.7268734 8.12007 6.2760563
    endloop
  endfacet
  facet normal 0.90069133 0.30920798 0.30519754
    outer loop
      vertex 3.788124 6.179473 8.061393
      vertex 4.298299 6.4555664 6.2760563
      vertex 3.7268734 8.12007 6.2760563
    endloop
  endfacet
  facet normal 0.7687887 0.2639257 0.5825008
    outer loop
      vertex 4.298299 6.4555664 6.2760563
      vertex 5.268708 6.9807253 4.7573586
      vertex 3.7268734 8.12007 6.2760563
    endloop
  endfacet
  facet normal 0.56093264 0.19256842 0.80515337
    outer loop
      vertex 5.268708 6.9807253 4.7573586
      vertex 6.3132076 8.551653 3.6539602
      vertex 4.8152227 8.301683 4.7573586
    endloop
  endfacet
  facet normal 0.8056697 0.50573087 0.30843562
    outer loop
      vertex 4.298299 6.4555664 6.2760563
      vertex 3.788124 6.179473 8.061393
      vertex 3 3 15.333333
    endloop
  endfacet
  facet normal 0.9187599 0.31541058 0.23747943
    outer loop
      vertex 3.788124 6.179473 8.061393
      vertex 3.1546946 8.0245905 8.061393
      vertex 3 3 15.333333
    endloop
  endfacet
endsolid OpenSCAD_Model
