solid OpenSCAD_Model
  facet normal -1 0 0
    outer loop
      vertex 214 0 12.499999
      vertex 214 87.2 13.499999
      vertex 214 87.2 12.499999
    endloop
  endfacet
  facet normal -1 0 0
    outer loop
      vertex 214 87.2 13.499999
      vertex 214 0 12.499999
      vertex 214 0 13.499999
    endloop
  endfacet
  facet normal 0 0 1
    outer loop
      vertex 19.059017 46.412216 11.5
      vertex 28.5 56 11.5
      vertex 28.207836 56 11.5
    endloop
  endfacet
  facet normal 0 0 1
    outer loop
      vertex 28.5 56 11.5
      vertex 19.059017 46.412216 11.5
      vertex 28.5 34 11.5
    endloop
  endfacet
  facet normal 0 0 1
    outer loop
      vertex 28.5 34 11.5
      vertex 19.059017 46.412216 11.5
      vertex 28.130968 34 11.5
    endloop
  endfacet
  facet normal 0 0 1
    outer loop
      vertex 19.059017 46.412216 11.5
      vertex 18.559017 43.951057 11.5
      vertex 28.130968 34 11.5
    endloop
  endfacet
  facet normal 0 0 1
    outer loop
      vertex 17.940983 46.048943 11.5
      vertex 18.559017 43.951057 11.5
      vertex 19.059017 46.412216 11.5
    endloop
  endfacet
  facet normal 0 0 1
    outer loop
      vertex 17.940983 46.048943 11.5
      vertex 17.440983 43.587784 11.5
      vertex 18.559017 43.951057 11.5
    endloop
  endfacet
  facet normal 0 0 1
    outer loop
      vertex 8.369032 56 11.5
      vertex 17.440983 43.587784 11.5
      vertex 17.940983 46.048943 11.5
    endloop
  endfacet
  facet normal 0 0 1
    outer loop
      vertex 8 56 11.5
      vertex 17.440983 43.587784 11.5
      vertex 8.369032 56 11.5
    endloop
  endfacet
  facet normal 0 0 1
    outer loop
      vertex 8 34 11.5
      vertex 17.440983 43.587784 11.5
      vertex 8 56 11.5
    endloop
  endfacet
  facet normal 0 0 1
    outer loop
      vertex 17.440983 43.587784 11.5
      vertex 8 34 11.5
      vertex 8.292164 34 11.5
    endloop
  endfacet
  facet normal 0 0 1
    outer loop
      vertex 41.559017 46.412216 11.5
      vertex 51 56 11.5
      vertex 50.707836 56 11.5
    endloop
  endfacet
  facet normal 0 0 1
    outer loop
      vertex 51 56 11.5
      vertex 41.559017 46.412216 11.5
      vertex 51 34 11.5
    endloop
  endfacet
  facet normal 0 0 1
    outer loop
      vertex 51 34 11.5
      vertex 41.559017 46.412216 11.5
      vertex 50.630966 34 11.5
    endloop
  endfacet
  facet normal 0 0 1
    outer loop
      vertex 41.559017 46.412216 11.5
      vertex 41.059017 43.951057 11.5
      vertex 50.630966 34 11.5
    endloop
  endfacet
  facet normal 0 0 1
    outer loop
      vertex 40.440983 46.048943 11.5
      vertex 41.059017 43.951057 11.5
      vertex 41.559017 46.412216 11.5
    endloop
  endfacet
  facet normal 0 0 1
    outer loop
      vertex 40.440983 46.048943 11.5
      vertex 39.940983 43.587784 11.5
      vertex 41.059017 43.951057 11.5
    endloop
  endfacet
  facet normal 0 0 1
    outer loop
      vertex 30.869032 56 11.5
      vertex 39.940983 43.587784 11.5
      vertex 40.440983 46.048943 11.5
    endloop
  endfacet
  facet normal 0 0 1
    outer loop
      vertex 30.5 56 11.5
      vertex 39.940983 43.587784 11.5
      vertex 30.869032 56 11.5
    endloop
  endfacet
  facet normal 0 0 1
    outer loop
      vertex 28.5 56 11.5
      vertex 39.940983 43.587784 11.5
      vertex 30.5 56 11.5
    endloop
  endfacet
  facet normal 0 0 1
    outer loop
      vertex 39.940983 43.587784 11.5
      vertex 30.5 34 11.5
      vertex 30.792164 34 11.5
    endloop
  endfacet
  facet normal 0 0 1
    outer loop
      vertex 64.05901 46.412216 11.5
      vertex 73.5 56 11.5
      vertex 73.20783 56 11.5
    endloop
  endfacet
  facet normal 0 0 1
    outer loop
      vertex 73.5 56 11.5
      vertex 64.05901 46.412216 11.5
      vertex 73.5 34 11.5
    endloop
  endfacet
  facet normal 0 0 1
    outer loop
      vertex 73.5 34 11.5
      vertex 64.05901 46.412216 11.5
      vertex 73.13097 34 11.5
    endloop
  endfacet
  facet normal 0 0 1
    outer loop
      vertex 64.05901 46.412216 11.5
      vertex 63.559017 43.951057 11.5
      vertex 73.13097 34 11.5
    endloop
  endfacet
  facet normal 0 0 1
    outer loop
      vertex 62.940983 46.048943 11.5
      vertex 63.559017 43.951057 11.5
      vertex 64.05901 46.412216 11.5
    endloop
  endfacet
  facet normal 0 0 1
    outer loop
      vertex 62.940983 46.048943 11.5
      vertex 62.440983 43.587784 11.5
      vertex 63.559017 43.951057 11.5
    endloop
  endfacet
  facet normal 0 0 1
    outer loop
      vertex 53.369034 56 11.5
      vertex 62.440983 43.587784 11.5
      vertex 62.940983 46.048943 11.5
    endloop
  endfacet
  facet normal 0 0 1
    outer loop
      vertex 53 56 11.5
      vertex 62.440983 43.587784 11.5
      vertex 53.369034 56 11.5
    endloop
  endfacet
  facet normal 0 0 1
    outer loop
      vertex 51 56 11.5
      vertex 62.440983 43.587784 11.5
      vertex 53 56 11.5
    endloop
  endfacet
  facet normal 0 0 1
    outer loop
      vertex 62.440983 43.587784 11.5
      vertex 53 34 11.5
      vertex 53.292164 34 11.5
    endloop
  endfacet
  facet normal 0 0 1
    outer loop
      vertex 86.55901 46.412216 11.5
      vertex 96 56 11.5
      vertex 95.70783 56 11.5
    endloop
  endfacet
  facet normal 0 0 1
    outer loop
      vertex 96 56 11.5
      vertex 86.55901 46.412216 11.5
      vertex 96 34 11.5
    endloop
  endfacet
  facet normal 0 0 1
    outer loop
      vertex 96 34 11.5
      vertex 86.55901 46.412216 11.5
      vertex 95.63097 34 11.5
    endloop
  endfacet
  facet normal 0 0 1
    outer loop
      vertex 86.55901 46.412216 11.5
      vertex 86.05901 43.951057 11.5
      vertex 95.63097 34 11.5
    endloop
  endfacet
  facet normal 0 0 1
    outer loop
      vertex 85.44099 46.048943 11.5
      vertex 86.05901 43.951057 11.5
      vertex 86.55901 46.412216 11.5
    endloop
  endfacet
  facet normal 0 0 1
    outer loop
      vertex 85.44099 46.048943 11.5
      vertex 84.94099 43.587784 11.5
      vertex 86.05901 43.951057 11.5
    endloop
  endfacet
  facet normal 0 0 1
    outer loop
      vertex 75.86903 56 11.5
      vertex 84.94099 43.587784 11.5
      vertex 85.44099 46.048943 11.5
    endloop
  endfacet
  facet normal 0 0 1
    outer loop
      vertex 75.5 56 11.5
      vertex 84.94099 43.587784 11.5
      vertex 75.86903 56 11.5
    endloop
  endfacet
  facet normal 0 0 1
    outer loop
      vertex 73.5 56 11.5
      vertex 84.94099 43.587784 11.5
      vertex 75.5 56 11.5
    endloop
  endfacet
  facet normal 0 0 1
    outer loop
      vertex 84.94099 43.587784 11.5
      vertex 75.5 34 11.5
      vertex 75.79217 34 11.5
    endloop
  endfacet
  facet normal 0 0 1
    outer loop
      vertex 215.5 88.5 11.5
      vertex 214 0 11.5
      vertex 215.5 0.40192413 11.5
    endloop
  endfacet
  facet normal 0 0 1
    outer loop
      vertex 130.75 56 11.5
      vertex 215.5 88.5 11.5
      vertex 130.75 87 11.5
    endloop
  endfacet
  facet normal 0 0 1
    outer loop
      vertex 215.5 88.5 11.5
      vertex 110.25 87 11.5
      vertex 130.75 87 11.5
    endloop
  endfacet
  facet normal 0 0 1
    outer loop
      vertex 110.25 87 11.5
      vertex 96 87 11.5
      vertex 110.25 56 11.5
    endloop
  endfacet
  facet normal 0 0 1
    outer loop
      vertex 215.5 88.5 11.5
      vertex 96 87 11.5
      vertex 110.25 87 11.5
    endloop
  endfacet
  facet normal 0 0 1
    outer loop
      vertex 215.5 88.5 11.5
      vertex 75.5 87 11.5
      vertex 96 87 11.5
    endloop
  endfacet
  facet normal 0 0 1
    outer loop
      vertex 73.5 56 11.5
      vertex 75.5 56 11.5
      vertex 75.5 87 11.5
    endloop
  endfacet
  facet normal 0 0 1
    outer loop
      vertex 73.5 34 11.5
      vertex 84.94099 43.587784 11.5
      vertex 73.5 56 11.5
    endloop
  endfacet
  facet normal 0 0 1
    outer loop
      vertex 73.5 56 11.5
      vertex 75.5 87 11.5
      vertex 73.5 87 11.5
    endloop
  endfacet
  facet normal 0 0 1
    outer loop
      vertex 1.5 88.5 11.5
      vertex 75.5 87 11.5
      vertex 215.5 88.5 11.5
    endloop
  endfacet
  facet normal 0 0 1
    outer loop
      vertex 75.5 87 11.5
      vertex 1.5 88.5 11.5
      vertex 73.5 87 11.5
    endloop
  endfacet
  facet normal 0 0 1
    outer loop
      vertex 51 56 11.5
      vertex 53 56 11.5
      vertex 53 87 11.5
    endloop
  endfacet
  facet normal 0 0 1
    outer loop
      vertex 51 34 11.5
      vertex 62.440983 43.587784 11.5
      vertex 51 56 11.5
    endloop
  endfacet
  facet normal 0 0 1
    outer loop
      vertex 51 56 11.5
      vertex 53 87 11.5
      vertex 51 87 11.5
    endloop
  endfacet
  facet normal 0 0 1
    outer loop
      vertex 73.5 87 11.5
      vertex 1.5 88.5 11.5
      vertex 53 87 11.5
    endloop
  endfacet
  facet normal 0 0 1
    outer loop
      vertex 53 87 11.5
      vertex 1.5 88.5 11.5
      vertex 51 87 11.5
    endloop
  endfacet
  facet normal 0 0 1
    outer loop
      vertex 28.5 56 11.5
      vertex 30.5 56 11.5
      vertex 30.5 87 11.5
    endloop
  endfacet
  facet normal 0 0 1
    outer loop
      vertex 28.5 34 11.5
      vertex 39.940983 43.587784 11.5
      vertex 28.5 56 11.5
    endloop
  endfacet
  facet normal 0 0 1
    outer loop
      vertex 28.5 56 11.5
      vertex 30.5 87 11.5
      vertex 28.5 87 11.5
    endloop
  endfacet
  facet normal 0 0 1
    outer loop
      vertex 51 87 11.5
      vertex 1.5 88.5 11.5
      vertex 30.5 87 11.5
    endloop
  endfacet
  facet normal 0 0 1
    outer loop
      vertex 30.5 87 11.5
      vertex 1.5 88.5 11.5
      vertex 28.5 87 11.5
    endloop
  endfacet
  facet normal 0 0 1
    outer loop
      vertex 1.5 88.5 11.5
      vertex 8 56 11.5
      vertex 8 87 11.5
    endloop
  endfacet
  facet normal 0 0 1
    outer loop
      vertex 8 56 11.5
      vertex 1.5 88.5 11.5
      vertex 8 34 11.5
    endloop
  endfacet
  facet normal 0 0 1
    outer loop
      vertex 1.5 0.40192413 11.5
      vertex 8 34 11.5
      vertex 1.5 88.5 11.5
    endloop
  endfacet
  facet normal 0 0 1
    outer loop
      vertex 28.5 87 11.5
      vertex 1.5 88.5 11.5
      vertex 8 87 11.5
    endloop
  endfacet
  facet normal 0 0 1
    outer loop
      vertex 8 34 11.5
      vertex 1.5 0.40192413 11.5
      vertex 8 3 11.5
    endloop
  endfacet
  facet normal 0 0 1
    outer loop
      vertex 8 3 11.5
      vertex 1.5 0.40192413 11.5
      vertex 3 0 11.5
    endloop
  endfacet
  facet normal 0 0 1
    outer loop
      vertex 215.5 88.5 11.5
      vertex 130.75 56 11.5
      vertex 214 0 11.5
    endloop
  endfacet
  facet normal 0 0 1
    outer loop
      vertex 121.30901 46.412216 11.5
      vertex 130.75 56 11.5
      vertex 130.45784 56 11.5
    endloop
  endfacet
  facet normal 0 0 1
    outer loop
      vertex 130.75 56 11.5
      vertex 121.30901 46.412216 11.5
      vertex 214 0 11.5
    endloop
  endfacet
  facet normal 0 0 1
    outer loop
      vertex 96 3 11.5
      vertex 121.30901 46.412216 11.5
      vertex 120.19099 46.048943 11.5
    endloop
  endfacet
  facet normal 0 0 1
    outer loop
      vertex 110.25 56 11.5
      vertex 120.19099 46.048943 11.5
      vertex 110.61903 56 11.5
    endloop
  endfacet
  facet normal 0 0 1
    outer loop
      vertex 96 56 11.5
      vertex 110.25 56 11.5
      vertex 96 87 11.5
    endloop
  endfacet
  facet normal 0 0 1
    outer loop
      vertex 96 34 11.5
      vertex 110.25 56 11.5
      vertex 96 56 11.5
    endloop
  endfacet
  facet normal 0 0 1
    outer loop
      vertex 110.25 56 11.5
      vertex 96 34 11.5
      vertex 120.19099 46.048943 11.5
    endloop
  endfacet
  facet normal 0 0 1
    outer loop
      vertex 96 3 11.5
      vertex 120.19099 46.048943 11.5
      vertex 96 34 11.5
    endloop
  endfacet
  facet normal 0 0 1
    outer loop
      vertex 121.30901 46.412216 11.5
      vertex 96 3 11.5
      vertex 214 0 11.5
    endloop
  endfacet
  facet normal 0 0 1
    outer loop
      vertex 3 0 11.5
      vertex 96 3 11.5
      vertex 75.5 3 11.5
    endloop
  endfacet
  facet normal 0 0 1
    outer loop
      vertex 84.94099 43.587784 11.5
      vertex 73.5 34 11.5
      vertex 75.5 34 11.5
    endloop
  endfacet
  facet normal 0 0 1
    outer loop
      vertex 75.5 34 11.5
      vertex 73.5 34 11.5
      vertex 75.5 3 11.5
    endloop
  endfacet
  facet normal 0 0 1
    outer loop
      vertex 73.5 3 11.5
      vertex 75.5 3 11.5
      vertex 73.5 34 11.5
    endloop
  endfacet
  facet normal 0 0 1
    outer loop
      vertex 3 0 11.5
      vertex 75.5 3 11.5
      vertex 73.5 3 11.5
    endloop
  endfacet
  facet normal 0 0 1
    outer loop
      vertex 3 0 11.5
      vertex 73.5 3 11.5
      vertex 53 3 11.5
    endloop
  endfacet
  facet normal 0 0 1
    outer loop
      vertex 62.440983 43.587784 11.5
      vertex 51 34 11.5
      vertex 53 34 11.5
    endloop
  endfacet
  facet normal 0 0 1
    outer loop
      vertex 53 34 11.5
      vertex 51 34 11.5
      vertex 53 3 11.5
    endloop
  endfacet
  facet normal 0 0 1
    outer loop
      vertex 51 3 11.5
      vertex 53 3 11.5
      vertex 51 34 11.5
    endloop
  endfacet
  facet normal 0 0 1
    outer loop
      vertex 3 0 11.5
      vertex 53 3 11.5
      vertex 51 3 11.5
    endloop
  endfacet
  facet normal 0 0 1
    outer loop
      vertex 3 0 11.5
      vertex 51 3 11.5
      vertex 30.5 3 11.5
    endloop
  endfacet
  facet normal 0 0 1
    outer loop
      vertex 39.940983 43.587784 11.5
      vertex 28.5 34 11.5
      vertex 30.5 34 11.5
    endloop
  endfacet
  facet normal 0 0 1
    outer loop
      vertex 30.5 34 11.5
      vertex 28.5 34 11.5
      vertex 30.5 3 11.5
    endloop
  endfacet
  facet normal 0 0 1
    outer loop
      vertex 28.5 3 11.5
      vertex 30.5 3 11.5
      vertex 28.5 34 11.5
    endloop
  endfacet
  facet normal 0 0 1
    outer loop
      vertex 3 0 11.5
      vertex 30.5 3 11.5
      vertex 28.5 3 11.5
    endloop
  endfacet
  facet normal 0 0 1
    outer loop
      vertex 3 0 11.5
      vertex 28.5 3 11.5
      vertex 8 3 11.5
    endloop
  endfacet
  facet normal 0 0 1
    outer loop
      vertex 96 3 11.5
      vertex 3 0 11.5
      vertex 214 0 11.5
    endloop
  endfacet
  facet normal 1 0 0
    outer loop
      vertex 3 0 13.499999
      vertex 3 87.2 12.499999
      vertex 3 87.2 13.499999
    endloop
  endfacet
  facet normal 1 0 0
    outer loop
      vertex 3 87.2 12.499999
      vertex 3 0 13.499999
      vertex 3 0 12.499999
    endloop
  endfacet
  facet normal 0 -1 0
    outer loop
      vertex 3 87.2 12.499999
      vertex 214 87.2 13.499999
      vertex 3 87.2 13.499999
    endloop
  endfacet
  facet normal 0 -1 0
    outer loop
      vertex 214 87.2 13.499999
      vertex 3 87.2 12.499999
      vertex 214 87.2 12.499999
    endloop
  endfacet
  facet normal 0 0 -1
    outer loop
      vertex 3 0 12.499999
      vertex 1.833333 0.31260774 12.499999
      vertex 3 87.2 12.499999
    endloop
  endfacet
  facet normal 0 0 -1
    outer loop
      vertex 214 87.2 12.499999
      vertex 215.16667 0.3126075 12.499999
      vertex 214 0 12.499999
    endloop
  endfacet
  facet normal 0 0 -1
    outer loop
      vertex 215.16667 0.3126075 12.499999
      vertex 214 87.2 12.499999
      vertex 215.16667 88.166664 12.499999
    endloop
  endfacet
  facet normal 0 0 -1
    outer loop
      vertex 3 87.2 12.499999
      vertex 215.16667 88.166664 12.499999
      vertex 214 87.2 12.499999
    endloop
  endfacet
  facet normal 0 0 -1
    outer loop
      vertex 3 87.2 12.499999
      vertex 1.833333 88.166664 12.499999
      vertex 215.16667 88.166664 12.499999
    endloop
  endfacet
  facet normal 0 0 -1
    outer loop
      vertex 1.833333 88.166664 12.499999
      vertex 3 87.2 12.499999
      vertex 1.833333 0.31260774 12.499999
    endloop
  endfacet
  facet normal 0 -1 0
    outer loop
      vertex 1.5 88.5 11.509999
      vertex 215.5 88.5 12.166666
      vertex 1.5 88.5 12.166666
    endloop
  endfacet
  facet normal 0 -1 0
    outer loop
      vertex 215.5 88.5 12.166666
      vertex 1.5 88.5 11.509999
      vertex 215.5 88.5 11.509999
    endloop
  endfacet
  facet normal -1 0 0
    outer loop
      vertex 215.5 0.40192413 11.5
      vertex 215.5 88.5 11.509999
      vertex 215.5 88.5 11.5
    endloop
  endfacet
  facet normal -1 0 0
    outer loop
      vertex 215.5 88.5 11.509999
      vertex 215.5 0.40192413 11.5
      vertex 215.5 0.40192413 11.509999
    endloop
  endfacet
  facet normal 0.70710677 0 -0.70710677
    outer loop
      vertex 1.833333 88.166664 12.499999
      vertex 1.5 0.40192413 12.166666
      vertex 1.5 88.5 12.166666
    endloop
  endfacet
  facet normal 0.70710677 0 -0.70710677
    outer loop
      vertex 1.5 0.40192413 12.166666
      vertex 1.833333 88.166664 12.499999
      vertex 1.833333 0.31260774 12.499999
    endloop
  endfacet
  facet normal -0.70711184 0 -0.7071017
    outer loop
      vertex 215.5 0.40192387 12.166666
      vertex 215.16667 88.166664 12.499999
      vertex 215.5 88.5 12.166666
    endloop
  endfacet
  facet normal -0.70711184 0 -0.7071017
    outer loop
      vertex 215.16667 88.166664 12.499999
      vertex 215.5 0.40192387 12.166666
      vertex 215.16667 0.3126075 12.499999
    endloop
  endfacet
  facet normal -1 0 0
    outer loop
      vertex 215.5 0.40192413 11.509999
      vertex 215.5 88.5 12.166666
      vertex 215.5 88.5 11.509999
    endloop
  endfacet
  facet normal -1 0 0
    outer loop
      vertex 215.5 88.5 12.166666
      vertex 215.5 0.40192413 11.509999
      vertex 215.5 0.40192387 12.166666
    endloop
  endfacet
  facet normal 0 -1 0
    outer loop
      vertex 1.5 88.5 11.5
      vertex 215.5 88.5 11.509999
      vertex 1.5 88.5 11.509999
    endloop
  endfacet
  facet normal 0 -1 0
    outer loop
      vertex 215.5 88.5 11.509999
      vertex 1.5 88.5 11.5
      vertex 215.5 88.5 11.5
    endloop
  endfacet
  facet normal 0 -0.7071037 -0.7071098
    outer loop
      vertex 1.833333 88.166664 12.499999
      vertex 215.5 88.5 12.166666
      vertex 215.16667 88.166664 12.499999
    endloop
  endfacet
  facet normal 0 -0.7071037 -0.7071098
    outer loop
      vertex 215.5 88.5 12.166666
      vertex 1.833333 88.166664 12.499999
      vertex 1.5 88.5 12.166666
    endloop
  endfacet
  facet normal 0 0 0
    outer loop
      vertex 1.5 88.5 12.166666
      vertex 1.5 88.5 11.5
      vertex 1.5 88.5 11.509999
    endloop
  endfacet
  facet normal 1 0 0
    outer loop
      vertex 1.5 0.40192413 12.166666
      vertex 1.5 88.5 11.5
      vertex 1.5 88.5 12.166666
    endloop
  endfacet
  facet normal 1 0 0
    outer loop
      vertex 1.5 88.5 11.5
      vertex 1.5 0.40192413 12.166666
      vertex 1.5 0.40192413 11.5
    endloop
  endfacet
  facet normal -1 0 0
    outer loop
      vertex 28.5 3 3
      vertex 28.5 34 11.5
      vertex 28.5 34 3
    endloop
  endfacet
  facet normal -1 0 0
    outer loop
      vertex 28.5 34 11.5
      vertex 28.5 3 3
      vertex 28.5 3 11.5
    endloop
  endfacet
  facet normal 0 0 1
    outer loop
      vertex 28.130968 34 3
      vertex 28.5 3 3
      vertex 28.5 34 3
    endloop
  endfacet
  facet normal 0 0 1
    outer loop
      vertex 17.440983 43.587784 3
      vertex 28.130968 34 3
      vertex 18.559017 43.951057 3
    endloop
  endfacet
  facet normal 0 0 1
    outer loop
      vertex 28.130968 34 3
      vertex 17.440983 43.587784 3
      vertex 8.292164 34 3
    endloop
  endfacet
  facet normal 0 0 1
    outer loop
      vertex 28.130968 34 3
      vertex 8.292164 34 3
      vertex 28.5 3 3
    endloop
  endfacet
  facet normal 0 0 1
    outer loop
      vertex 8 3 3
      vertex 8.292164 34 3
      vertex 8 34 3
    endloop
  endfacet
  facet normal 0 0 1
    outer loop
      vertex 8.292164 34 3
      vertex 8 3 3
      vertex 28.5 3 3
    endloop
  endfacet
  facet normal 1 0 0
    outer loop
      vertex 8 3 11.5
      vertex 8 34 3
      vertex 8 34 11.5
    endloop
  endfacet
  facet normal 1 0 0
    outer loop
      vertex 8 34 3
      vertex 8 3 11.5
      vertex 8 3 3
    endloop
  endfacet
  facet normal 0 -1 0
    outer loop
      vertex 8 34 3
      vertex 8.292164 34 11.5
      vertex 8 34 11.5
    endloop
  endfacet
  facet normal 0 -1 0
    outer loop
      vertex 8.292164 34 11.5
      vertex 8 34 3
      vertex 8.292164 34 3
    endloop
  endfacet
  facet normal 0 -1 0
    outer loop
      vertex 28.130968 34 3
      vertex 28.5 34 11.5
      vertex 28.130968 34 11.5
    endloop
  endfacet
  facet normal 0 -1 0
    outer loop
      vertex 28.5 34 11.5
      vertex 28.130968 34 3
      vertex 28.5 34 3
    endloop
  endfacet
  facet normal 0 1 0
    outer loop
      vertex 28.5 3 3
      vertex 8 3 11.5
      vertex 28.5 3 11.5
    endloop
  endfacet
  facet normal 0 1 0
    outer loop
      vertex 8 3 11.5
      vertex 28.5 3 3
      vertex 8 3 3
    endloop
  endfacet
  facet normal -0.7207018 -0.6932452 0
    outer loop
      vertex 28.130968 34 3
      vertex 18.559017 43.951057 11.5
      vertex 18.559017 43.951057 3
    endloop
  endfacet
  facet normal -0.7207018 -0.6932452 0
    outer loop
      vertex 18.559017 43.951057 11.5
      vertex 28.130968 34 3
      vertex 28.130968 34 11.5
    endloop
  endfacet
  facet normal 0.3090187 -0.95105594 0
    outer loop
      vertex 17.440983 43.587784 3
      vertex 18.559017 43.951057 11.5
      vertex 17.440983 43.587784 11.5
    endloop
  endfacet
  facet normal 0.3090187 -0.95105594 0
    outer loop
      vertex 18.559017 43.951057 11.5
      vertex 17.440983 43.587784 3
      vertex 18.559017 43.951057 3
    endloop
  endfacet
  facet normal 0.7234745 -0.6903511 0
    outer loop
      vertex 8.292164 34 11.5
      vertex 17.440983 43.587784 3
      vertex 17.440983 43.587784 11.5
    endloop
  endfacet
  facet normal 0.7234745 -0.6903511 0
    outer loop
      vertex 17.440983 43.587784 3
      vertex 8.292164 34 11.5
      vertex 8.292164 34 3
    endloop
  endfacet
  facet normal 1 0 0
    outer loop
      vertex 8 56 11.5
      vertex 8 87 3
      vertex 8 87 11.5
    endloop
  endfacet
  facet normal 1 0 0
    outer loop
      vertex 8 87 3
      vertex 8 56 11.5
      vertex 8 56 3
    endloop
  endfacet
  facet normal 0 0 1
    outer loop
      vertex 28.5 87 3
      vertex 28.207836 56 3
      vertex 28.5 56 3
    endloop
  endfacet
  facet normal 0 0 1
    outer loop
      vertex 8.369032 56 3
      vertex 28.207836 56 3
      vertex 28.5 87 3
    endloop
  endfacet
  facet normal 0 0 1
    outer loop
      vertex 28.207836 56 3
      vertex 8.369032 56 3
      vertex 19.059017 46.412216 3
    endloop
  endfacet
  facet normal 0 0 1
    outer loop
      vertex 19.059017 46.412216 3
      vertex 8.369032 56 3
      vertex 17.940983 46.048943 3
    endloop
  endfacet
  facet normal 0 0 1
    outer loop
      vertex 8 87 3
      vertex 8.369032 56 3
      vertex 28.5 87 3
    endloop
  endfacet
  facet normal 0 0 1
    outer loop
      vertex 8.369032 56 3
      vertex 8 87 3
      vertex 8 56 3
    endloop
  endfacet
  facet normal -1 0 0
    outer loop
      vertex 28.5 56 3
      vertex 28.5 87 11.5
      vertex 28.5 87 3
    endloop
  endfacet
  facet normal -1 0 0
    outer loop
      vertex 28.5 87 11.5
      vertex 28.5 56 3
      vertex 28.5 56 11.5
    endloop
  endfacet
  facet normal 0 1 0
    outer loop
      vertex 28.5 56 3
      vertex 28.207836 56 11.5
      vertex 28.5 56 11.5
    endloop
  endfacet
  facet normal 0 1 0
    outer loop
      vertex 28.207836 56 11.5
      vertex 28.5 56 3
      vertex 28.207836 56 3
    endloop
  endfacet
  facet normal 0 1 0
    outer loop
      vertex 8.369032 56 3
      vertex 8 56 11.5
      vertex 8.369032 56 11.5
    endloop
  endfacet
  facet normal 0 1 0
    outer loop
      vertex 8 56 11.5
      vertex 8.369032 56 3
      vertex 8 56 3
    endloop
  endfacet
  facet normal 0 -1 0
    outer loop
      vertex 8 87 3
      vertex 28.5 87 11.5
      vertex 8 87 11.5
    endloop
  endfacet
  facet normal 0 -1 0
    outer loop
      vertex 28.5 87 11.5
      vertex 8 87 3
      vertex 28.5 87 3
    endloop
  endfacet
  facet normal 0.7207018 0.6932452 0
    outer loop
      vertex 17.940983 46.048943 11.5
      vertex 8.369032 56 3
      vertex 8.369032 56 11.5
    endloop
  endfacet
  facet normal 0.7207018 0.6932452 0
    outer loop
      vertex 8.369032 56 3
      vertex 17.940983 46.048943 11.5
      vertex 17.940983 46.048943 3
    endloop
  endfacet
  facet normal -0.3090187 0.95105594 0
    outer loop
      vertex 19.059017 46.412216 3
      vertex 17.940983 46.048943 11.5
      vertex 19.059017 46.412216 11.5
    endloop
  endfacet
  facet normal -0.3090187 0.95105594 0
    outer loop
      vertex 17.940983 46.048943 11.5
      vertex 19.059017 46.412216 3
      vertex 17.940983 46.048943 3
    endloop
  endfacet
  facet normal -0.7234745 0.6903511 0
    outer loop
      vertex 19.059017 46.412216 3
      vertex 28.207836 56 11.5
      vertex 28.207836 56 3
    endloop
  endfacet
  facet normal -0.7234745 0.6903511 0
    outer loop
      vertex 28.207836 56 11.5
      vertex 19.059017 46.412216 3
      vertex 19.059017 46.412216 11.5
    endloop
  endfacet
  facet normal -1 0 0
    outer loop
      vertex 51 3 3
      vertex 51 34 11.5
      vertex 51 34 3
    endloop
  endfacet
  facet normal -1 0 0
    outer loop
      vertex 51 34 11.5
      vertex 51 3 3
      vertex 51 3 11.5
    endloop
  endfacet
  facet normal 0 0 1
    outer loop
      vertex 50.630966 34 3
      vertex 51 3 3
      vertex 51 34 3
    endloop
  endfacet
  facet normal 0 0 1
    outer loop
      vertex 39.940983 43.587784 3
      vertex 50.630966 34 3
      vertex 41.059017 43.951057 3
    endloop
  endfacet
  facet normal 0 0 1
    outer loop
      vertex 50.630966 34 3
      vertex 39.940983 43.587784 3
      vertex 30.792164 34 3
    endloop
  endfacet
  facet normal 0 0 1
    outer loop
      vertex 50.630966 34 3
      vertex 30.792164 34 3
      vertex 51 3 3
    endloop
  endfacet
  facet normal 0 0 1
    outer loop
      vertex 30.5 3 3
      vertex 30.792164 34 3
      vertex 30.5 34 3
    endloop
  endfacet
  facet normal 0 0 1
    outer loop
      vertex 30.792164 34 3
      vertex 30.5 3 3
      vertex 51 3 3
    endloop
  endfacet
  facet normal 1 0 0
    outer loop
      vertex 30.5 3 11.5
      vertex 30.5 34 3
      vertex 30.5 34 11.5
    endloop
  endfacet
  facet normal 1 0 0
    outer loop
      vertex 30.5 34 3
      vertex 30.5 3 11.5
      vertex 30.5 3 3
    endloop
  endfacet
  facet normal 0 -1 0
    outer loop
      vertex 30.5 34 3
      vertex 30.792164 34 11.5
      vertex 30.5 34 11.5
    endloop
  endfacet
  facet normal 0 -1 0
    outer loop
      vertex 30.792164 34 11.5
      vertex 30.5 34 3
      vertex 30.792164 34 3
    endloop
  endfacet
  facet normal 0 -1 0
    outer loop
      vertex 50.630966 34 3
      vertex 51 34 11.5
      vertex 50.630966 34 11.5
    endloop
  endfacet
  facet normal 0 -1 0
    outer loop
      vertex 51 34 11.5
      vertex 50.630966 34 3
      vertex 51 34 3
    endloop
  endfacet
  facet normal 0 1 0
    outer loop
      vertex 51 3 3
      vertex 30.5 3 11.5
      vertex 51 3 11.5
    endloop
  endfacet
  facet normal 0 1 0
    outer loop
      vertex 30.5 3 11.5
      vertex 51 3 3
      vertex 30.5 3 3
    endloop
  endfacet
  facet normal -0.7207019 -0.6932451 0
    outer loop
      vertex 50.630966 34 3
      vertex 41.059017 43.951057 11.5
      vertex 41.059017 43.951057 3
    endloop
  endfacet
  facet normal -0.7207019 -0.6932451 0
    outer loop
      vertex 41.059017 43.951057 11.5
      vertex 50.630966 34 3
      vertex 50.630966 34 11.5
    endloop
  endfacet
  facet normal 0.3090187 -0.95105594 0
    outer loop
      vertex 39.940983 43.587784 3
      vertex 41.059017 43.951057 11.5
      vertex 39.940983 43.587784 11.5
    endloop
  endfacet
  facet normal 0.3090187 -0.95105594 0
    outer loop
      vertex 41.059017 43.951057 11.5
      vertex 39.940983 43.587784 3
      vertex 41.059017 43.951057 3
    endloop
  endfacet
  facet normal 0.7234745 -0.6903511 0
    outer loop
      vertex 30.792164 34 11.5
      vertex 39.940983 43.587784 3
      vertex 39.940983 43.587784 11.5
    endloop
  endfacet
  facet normal 0.7234745 -0.6903511 0
    outer loop
      vertex 39.940983 43.587784 3
      vertex 30.792164 34 11.5
      vertex 30.792164 34 3
    endloop
  endfacet
  facet normal 1 0 0
    outer loop
      vertex 30.5 56 11.5
      vertex 30.5 87 3
      vertex 30.5 87 11.5
    endloop
  endfacet
  facet normal 1 0 0
    outer loop
      vertex 30.5 87 3
      vertex 30.5 56 11.5
      vertex 30.5 56 3
    endloop
  endfacet
  facet normal 0 0 1
    outer loop
      vertex 51 87 3
      vertex 50.707836 56 3
      vertex 51 56 3
    endloop
  endfacet
  facet normal 0 0 1
    outer loop
      vertex 30.869032 56 3
      vertex 50.707836 56 3
      vertex 51 87 3
    endloop
  endfacet
  facet normal 0 0 1
    outer loop
      vertex 50.707836 56 3
      vertex 30.869032 56 3
      vertex 41.559017 46.412216 3
    endloop
  endfacet
  facet normal 0 0 1
    outer loop
      vertex 41.559017 46.412216 3
      vertex 30.869032 56 3
      vertex 40.440983 46.048943 3
    endloop
  endfacet
  facet normal 0 0 1
    outer loop
      vertex 30.5 87 3
      vertex 30.869032 56 3
      vertex 51 87 3
    endloop
  endfacet
  facet normal 0 0 1
    outer loop
      vertex 30.869032 56 3
      vertex 30.5 87 3
      vertex 30.5 56 3
    endloop
  endfacet
  facet normal -1 0 0
    outer loop
      vertex 51 56 3
      vertex 51 87 11.5
      vertex 51 87 3
    endloop
  endfacet
  facet normal -1 0 0
    outer loop
      vertex 51 87 11.5
      vertex 51 56 3
      vertex 51 56 11.5
    endloop
  endfacet
  facet normal 0 1 0
    outer loop
      vertex 51 56 3
      vertex 50.707836 56 11.5
      vertex 51 56 11.5
    endloop
  endfacet
  facet normal 0 1 0
    outer loop
      vertex 50.707836 56 11.5
      vertex 51 56 3
      vertex 50.707836 56 3
    endloop
  endfacet
  facet normal 0 1 0
    outer loop
      vertex 30.869032 56 3
      vertex 30.5 56 11.5
      vertex 30.869032 56 11.5
    endloop
  endfacet
  facet normal 0 1 0
    outer loop
      vertex 30.5 56 11.5
      vertex 30.869032 56 3
      vertex 30.5 56 3
    endloop
  endfacet
  facet normal 0 -1 0
    outer loop
      vertex 30.5 87 3
      vertex 51 87 11.5
      vertex 30.5 87 11.5
    endloop
  endfacet
  facet normal 0 -1 0
    outer loop
      vertex 51 87 11.5
      vertex 30.5 87 3
      vertex 51 87 3
    endloop
  endfacet
  facet normal 0.7207018 0.6932452 0
    outer loop
      vertex 40.440983 46.048943 11.5
      vertex 30.869032 56 3
      vertex 30.869032 56 11.5
    endloop
  endfacet
  facet normal 0.7207018 0.6932452 0
    outer loop
      vertex 30.869032 56 3
      vertex 40.440983 46.048943 11.5
      vertex 40.440983 46.048943 3
    endloop
  endfacet
  facet normal -0.3090187 0.95105594 0
    outer loop
      vertex 41.559017 46.412216 3
      vertex 40.440983 46.048943 11.5
      vertex 41.559017 46.412216 11.5
    endloop
  endfacet
  facet normal -0.3090187 0.95105594 0
    outer loop
      vertex 40.440983 46.048943 11.5
      vertex 41.559017 46.412216 3
      vertex 40.440983 46.048943 3
    endloop
  endfacet
  facet normal -0.7234745 0.6903511 0
    outer loop
      vertex 41.559017 46.412216 3
      vertex 50.707836 56 11.5
      vertex 50.707836 56 3
    endloop
  endfacet
  facet normal -0.7234745 0.6903511 0
    outer loop
      vertex 50.707836 56 11.5
      vertex 41.559017 46.412216 3
      vertex 41.559017 46.412216 11.5
    endloop
  endfacet
  facet normal -1 0 0
    outer loop
      vertex 73.5 3 3
      vertex 73.5 34 11.5
      vertex 73.5 34 3
    endloop
  endfacet
  facet normal -1 0 0
    outer loop
      vertex 73.5 34 11.5
      vertex 73.5 3 3
      vertex 73.5 3 11.5
    endloop
  endfacet
  facet normal 0 0 1
    outer loop
      vertex 73.13097 34 3
      vertex 73.5 3 3
      vertex 73.5 34 3
    endloop
  endfacet
  facet normal 0 0 1
    outer loop
      vertex 62.440983 43.587784 3
      vertex 73.13097 34 3
      vertex 63.559017 43.951057 3
    endloop
  endfacet
  facet normal 0 0 1
    outer loop
      vertex 73.13097 34 3
      vertex 62.440983 43.587784 3
      vertex 53.292164 34 3
    endloop
  endfacet
  facet normal 0 0 1
    outer loop
      vertex 73.13097 34 3
      vertex 53.292164 34 3
      vertex 73.5 3 3
    endloop
  endfacet
  facet normal 0 0 1
    outer loop
      vertex 53 3 3
      vertex 53.292164 34 3
      vertex 53 34 3
    endloop
  endfacet
  facet normal 0 0 1
    outer loop
      vertex 53.292164 34 3
      vertex 53 3 3
      vertex 73.5 3 3
    endloop
  endfacet
  facet normal 1 0 0
    outer loop
      vertex 53 3 11.5
      vertex 53 34 3
      vertex 53 34 11.5
    endloop
  endfacet
  facet normal 1 0 0
    outer loop
      vertex 53 34 3
      vertex 53 3 11.5
      vertex 53 3 3
    endloop
  endfacet
  facet normal 0 -1 0
    outer loop
      vertex 53 34 3
      vertex 53.292164 34 11.5
      vertex 53 34 11.5
    endloop
  endfacet
  facet normal 0 -1 0
    outer loop
      vertex 53.292164 34 11.5
      vertex 53 34 3
      vertex 53.292164 34 3
    endloop
  endfacet
  facet normal 0 -1 0
    outer loop
      vertex 73.13097 34 3
      vertex 73.5 34 11.5
      vertex 73.13097 34 11.5
    endloop
  endfacet
  facet normal 0 -1 0
    outer loop
      vertex 73.5 34 11.5
      vertex 73.13097 34 3
      vertex 73.5 34 3
    endloop
  endfacet
  facet normal 0 1 0
    outer loop
      vertex 73.5 3 3
      vertex 53 3 11.5
      vertex 73.5 3 11.5
    endloop
  endfacet
  facet normal 0 1 0
    outer loop
      vertex 53 3 11.5
      vertex 73.5 3 3
      vertex 53 3 3
    endloop
  endfacet
  facet normal -0.7207019 -0.6932451 0
    outer loop
      vertex 73.13097 34 3
      vertex 63.559017 43.951057 11.5
      vertex 63.559017 43.951057 3
    endloop
  endfacet
  facet normal -0.7207019 -0.6932451 0
    outer loop
      vertex 63.559017 43.951057 11.5
      vertex 73.13097 34 3
      vertex 73.13097 34 11.5
    endloop
  endfacet
  facet normal 0.3090187 -0.95105594 0
    outer loop
      vertex 62.440983 43.587784 3
      vertex 63.559017 43.951057 11.5
      vertex 62.440983 43.587784 11.5
    endloop
  endfacet
  facet normal 0.3090187 -0.95105594 0
    outer loop
      vertex 63.559017 43.951057 11.5
      vertex 62.440983 43.587784 3
      vertex 63.559017 43.951057 3
    endloop
  endfacet
  facet normal 0.7234745 -0.6903511 0
    outer loop
      vertex 53.292164 34 11.5
      vertex 62.440983 43.587784 3
      vertex 62.440983 43.587784 11.5
    endloop
  endfacet
  facet normal 0.7234745 -0.6903511 0
    outer loop
      vertex 62.440983 43.587784 3
      vertex 53.292164 34 11.5
      vertex 53.292164 34 3
    endloop
  endfacet
  facet normal 1 0 0
    outer loop
      vertex 53 56 11.5
      vertex 53 87 3
      vertex 53 87 11.5
    endloop
  endfacet
  facet normal 1 0 0
    outer loop
      vertex 53 87 3
      vertex 53 56 11.5
      vertex 53 56 3
    endloop
  endfacet
  facet normal 0 0 1
    outer loop
      vertex 73.5 87 3
      vertex 73.20783 56 3
      vertex 73.5 56 3
    endloop
  endfacet
  facet normal 0 0 1
    outer loop
      vertex 53.369034 56 3
      vertex 73.20783 56 3
      vertex 73.5 87 3
    endloop
  endfacet
  facet normal 0 0 1
    outer loop
      vertex 73.20783 56 3
      vertex 53.369034 56 3
      vertex 64.05901 46.412216 3
    endloop
  endfacet
  facet normal 0 0 1
    outer loop
      vertex 64.05901 46.412216 3
      vertex 53.369034 56 3
      vertex 62.940983 46.048943 3
    endloop
  endfacet
  facet normal 0 0 1
    outer loop
      vertex 53 87 3
      vertex 53.369034 56 3
      vertex 73.5 87 3
    endloop
  endfacet
  facet normal 0 0 1
    outer loop
      vertex 53.369034 56 3
      vertex 53 87 3
      vertex 53 56 3
    endloop
  endfacet
  facet normal -1 0 0
    outer loop
      vertex 73.5 56 3
      vertex 73.5 87 11.5
      vertex 73.5 87 3
    endloop
  endfacet
  facet normal -1 0 0
    outer loop
      vertex 73.5 87 11.5
      vertex 73.5 56 3
      vertex 73.5 56 11.5
    endloop
  endfacet
  facet normal 0 1 0
    outer loop
      vertex 73.5 56 3
      vertex 73.20783 56 11.5
      vertex 73.5 56 11.5
    endloop
  endfacet
  facet normal 0 1 0
    outer loop
      vertex 73.20783 56 11.5
      vertex 73.5 56 3
      vertex 73.20783 56 3
    endloop
  endfacet
  facet normal 0 1 0
    outer loop
      vertex 53.369034 56 3
      vertex 53 56 11.5
      vertex 53.369034 56 11.5
    endloop
  endfacet
  facet normal 0 1 0
    outer loop
      vertex 53 56 11.5
      vertex 53.369034 56 3
      vertex 53 56 3
    endloop
  endfacet
  facet normal 0 -1 0
    outer loop
      vertex 53 87 3
      vertex 73.5 87 11.5
      vertex 53 87 11.5
    endloop
  endfacet
  facet normal 0 -1 0
    outer loop
      vertex 73.5 87 11.5
      vertex 53 87 3
      vertex 73.5 87 3
    endloop
  endfacet
  facet normal 0.7207019 0.6932451 0
    outer loop
      vertex 62.940983 46.048943 11.5
      vertex 53.369034 56 3
      vertex 53.369034 56 11.5
    endloop
  endfacet
  facet normal 0.7207019 0.6932451 0
    outer loop
      vertex 53.369034 56 3
      vertex 62.940983 46.048943 11.5
      vertex 62.940983 46.048943 3
    endloop
  endfacet
  facet normal -0.30901965 0.95105565 0
    outer loop
      vertex 64.05901 46.412216 3
      vertex 62.940983 46.048943 11.5
      vertex 64.05901 46.412216 11.5
    endloop
  endfacet
  facet normal -0.30901965 0.95105565 0
    outer loop
      vertex 62.940983 46.048943 11.5
      vertex 64.05901 46.412216 3
      vertex 62.940983 46.048943 3
    endloop
  endfacet
  facet normal -0.7234745 0.6903511 0
    outer loop
      vertex 64.05901 46.412216 3
      vertex 73.20783 56 11.5
      vertex 73.20783 56 3
    endloop
  endfacet
  facet normal -0.7234745 0.6903511 0
    outer loop
      vertex 73.20783 56 11.5
      vertex 64.05901 46.412216 3
      vertex 64.05901 46.412216 11.5
    endloop
  endfacet
  facet normal -1 0 0
    outer loop
      vertex 96 3 3
      vertex 96 34 11.5
      vertex 96 34 3
    endloop
  endfacet
  facet normal -1 0 0
    outer loop
      vertex 96 34 11.5
      vertex 96 3 3
      vertex 96 3 11.5
    endloop
  endfacet
  facet normal 0 0 1
    outer loop
      vertex 95.63097 34 3
      vertex 96 3 3
      vertex 96 34 3
    endloop
  endfacet
  facet normal 0 0 1
    outer loop
      vertex 84.94099 43.587784 3
      vertex 95.63097 34 3
      vertex 86.05901 43.951057 3
    endloop
  endfacet
  facet normal 0 0 1
    outer loop
      vertex 95.63097 34 3
      vertex 84.94099 43.587784 3
      vertex 75.79217 34 3
    endloop
  endfacet
  facet normal 0 0 1
    outer loop
      vertex 95.63097 34 3
      vertex 75.79217 34 3
      vertex 96 3 3
    endloop
  endfacet
  facet normal 0 0 1
    outer loop
      vertex 75.5 3 3
      vertex 75.79217 34 3
      vertex 75.5 34 3
    endloop
  endfacet
  facet normal 0 0 1
    outer loop
      vertex 75.79217 34 3
      vertex 75.5 3 3
      vertex 96 3 3
    endloop
  endfacet
  facet normal 1 0 0
    outer loop
      vertex 75.5 3 11.5
      vertex 75.5 34 3
      vertex 75.5 34 11.5
    endloop
  endfacet
  facet normal 1 0 0
    outer loop
      vertex 75.5 34 3
      vertex 75.5 3 11.5
      vertex 75.5 3 3
    endloop
  endfacet
  facet normal 0 -1 0
    outer loop
      vertex 75.5 34 3
      vertex 75.79217 34 11.5
      vertex 75.5 34 11.5
    endloop
  endfacet
  facet normal 0 -1 0
    outer loop
      vertex 75.79217 34 11.5
      vertex 75.5 34 3
      vertex 75.79217 34 3
    endloop
  endfacet
  facet normal 0 -1 0
    outer loop
      vertex 95.63097 34 3
      vertex 96 34 11.5
      vertex 95.63097 34 11.5
    endloop
  endfacet
  facet normal 0 -1 0
    outer loop
      vertex 96 34 11.5
      vertex 95.63097 34 3
      vertex 96 34 3
    endloop
  endfacet
  facet normal 0 1 0
    outer loop
      vertex 96 3 3
      vertex 75.5 3 11.5
      vertex 96 3 11.5
    endloop
  endfacet
  facet normal 0 1 0
    outer loop
      vertex 75.5 3 11.5
      vertex 96 3 3
      vertex 75.5 3 3
    endloop
  endfacet
  facet normal -0.72070175 -0.69324523 0
    outer loop
      vertex 95.63097 34 3
      vertex 86.05901 43.951057 11.5
      vertex 86.05901 43.951057 3
    endloop
  endfacet
  facet normal -0.72070175 -0.69324523 0
    outer loop
      vertex 86.05901 43.951057 11.5
      vertex 95.63097 34 3
      vertex 95.63097 34 11.5
    endloop
  endfacet
  facet normal 0.3090206 -0.95105535 0
    outer loop
      vertex 84.94099 43.587784 3
      vertex 86.05901 43.951057 11.5
      vertex 84.94099 43.587784 11.5
    endloop
  endfacet
  facet normal 0.3090206 -0.95105535 0
    outer loop
      vertex 86.05901 43.951057 11.5
      vertex 84.94099 43.587784 3
      vertex 86.05901 43.951057 3
    endloop
  endfacet
  facet normal 0.7234745 -0.6903511 0
    outer loop
      vertex 75.79217 34 11.5
      vertex 84.94099 43.587784 3
      vertex 84.94099 43.587784 11.5
    endloop
  endfacet
  facet normal 0.7234745 -0.6903511 0
    outer loop
      vertex 84.94099 43.587784 3
      vertex 75.79217 34 11.5
      vertex 75.79217 34 3
    endloop
  endfacet
  facet normal 1 0 0
    outer loop
      vertex 75.5 56 11.5
      vertex 75.5 87 3
      vertex 75.5 87 11.5
    endloop
  endfacet
  facet normal 1 0 0
    outer loop
      vertex 75.5 87 3
      vertex 75.5 56 11.5
      vertex 75.5 56 3
    endloop
  endfacet
  facet normal 0 0 1
    outer loop
      vertex 96 87 3
      vertex 95.70783 56 3
      vertex 96 56 3
    endloop
  endfacet
  facet normal 0 0 1
    outer loop
      vertex 75.86903 56 3
      vertex 95.70783 56 3
      vertex 96 87 3
    endloop
  endfacet
  facet normal 0 0 1
    outer loop
      vertex 95.70783 56 3
      vertex 75.86903 56 3
      vertex 86.55901 46.412216 3
    endloop
  endfacet
  facet normal 0 0 1
    outer loop
      vertex 86.55901 46.412216 3
      vertex 75.86903 56 3
      vertex 85.44099 46.048943 3
    endloop
  endfacet
  facet normal 0 0 1
    outer loop
      vertex 75.5 87 3
      vertex 75.86903 56 3
      vertex 96 87 3
    endloop
  endfacet
  facet normal 0 0 1
    outer loop
      vertex 75.86903 56 3
      vertex 75.5 87 3
      vertex 75.5 56 3
    endloop
  endfacet
  facet normal -1 0 0
    outer loop
      vertex 96 56 3
      vertex 96 87 11.5
      vertex 96 87 3
    endloop
  endfacet
  facet normal -1 0 0
    outer loop
      vertex 96 87 11.5
      vertex 96 56 3
      vertex 96 56 11.5
    endloop
  endfacet
  facet normal 0 1 0
    outer loop
      vertex 96 56 3
      vertex 95.70783 56 11.5
      vertex 96 56 11.5
    endloop
  endfacet
  facet normal 0 1 0
    outer loop
      vertex 95.70783 56 11.5
      vertex 96 56 3
      vertex 95.70783 56 3
    endloop
  endfacet
  facet normal 0 1 0
    outer loop
      vertex 75.86903 56 3
      vertex 75.5 56 11.5
      vertex 75.86903 56 11.5
    endloop
  endfacet
  facet normal 0 1 0
    outer loop
      vertex 75.5 56 11.5
      vertex 75.86903 56 3
      vertex 75.5 56 3
    endloop
  endfacet
  facet normal 0 -1 0
    outer loop
      vertex 75.5 87 3
      vertex 96 87 11.5
      vertex 75.5 87 11.5
    endloop
  endfacet
  facet normal 0 -1 0
    outer loop
      vertex 96 87 11.5
      vertex 75.5 87 3
      vertex 96 87 3
    endloop
  endfacet
  facet normal 0.72070175 0.69324523 0
    outer loop
      vertex 85.44099 46.048943 11.5
      vertex 75.86903 56 3
      vertex 75.86903 56 11.5
    endloop
  endfacet
  facet normal 0.72070175 0.69324523 0
    outer loop
      vertex 75.86903 56 3
      vertex 85.44099 46.048943 11.5
      vertex 85.44099 46.048943 3
    endloop
  endfacet
  facet normal -0.3090206 0.95105535 0
    outer loop
      vertex 86.55901 46.412216 3
      vertex 85.44099 46.048943 11.5
      vertex 86.55901 46.412216 11.5
    endloop
  endfacet
  facet normal -0.3090206 0.95105535 0
    outer loop
      vertex 85.44099 46.048943 11.5
      vertex 86.55901 46.412216 3
      vertex 85.44099 46.048943 3
    endloop
  endfacet
  facet normal -0.7234745 0.6903511 0
    outer loop
      vertex 86.55901 46.412216 3
      vertex 95.70783 56 11.5
      vertex 95.70783 56 3
    endloop
  endfacet
  facet normal -0.7234745 0.6903511 0
    outer loop
      vertex 95.70783 56 11.5
      vertex 86.55901 46.412216 3
      vertex 86.55901 46.412216 11.5
    endloop
  endfacet
  facet normal 1 0 0
    outer loop
      vertex 110.25 56 11.5
      vertex 110.25 87 1
      vertex 110.25 87 11.5
    endloop
  endfacet
  facet normal 1 0 0
    outer loop
      vertex 110.25 87 1
      vertex 110.25 56 11.5
      vertex 110.25 56 1
    endloop
  endfacet
  facet normal 0 0 1
    outer loop
      vertex 130.75 87 1
      vertex 130.45784 56 1
      vertex 130.75 56 1
    endloop
  endfacet
  facet normal 0 0 1
    outer loop
      vertex 110.61903 56 1
      vertex 130.45784 56 1
      vertex 130.75 87 1
    endloop
  endfacet
  facet normal 0 0 1
    outer loop
      vertex 130.45784 56 1
      vertex 110.61903 56 1
      vertex 121.30901 46.412216 1
    endloop
  endfacet
  facet normal 0 0 1
    outer loop
      vertex 121.30901 46.412216 1
      vertex 110.61903 56 1
      vertex 120.19099 46.048943 1
    endloop
  endfacet
  facet normal 0 0 1
    outer loop
      vertex 110.25 87 1
      vertex 110.61903 56 1
      vertex 130.75 87 1
    endloop
  endfacet
  facet normal 0 0 1
    outer loop
      vertex 110.61903 56 1
      vertex 110.25 87 1
      vertex 110.25 56 1
    endloop
  endfacet
  facet normal -1 0 0
    outer loop
      vertex 130.75 56 1
      vertex 130.75 87 11.5
      vertex 130.75 87 1
    endloop
  endfacet
  facet normal -1 0 0
    outer loop
      vertex 130.75 87 11.5
      vertex 130.75 56 1
      vertex 130.75 56 11.5
    endloop
  endfacet
  facet normal 0 1 0
    outer loop
      vertex 130.75 56 1
      vertex 130.45784 56 11.5
      vertex 130.75 56 11.5
    endloop
  endfacet
  facet normal 0 1 0
    outer loop
      vertex 130.45784 56 11.5
      vertex 130.75 56 1
      vertex 130.45784 56 1
    endloop
  endfacet
  facet normal 0 1 0
    outer loop
      vertex 110.61903 56 1
      vertex 110.25 56 11.5
      vertex 110.61903 56 11.5
    endloop
  endfacet
  facet normal 0 1 0
    outer loop
      vertex 110.25 56 11.5
      vertex 110.61903 56 1
      vertex 110.25 56 1
    endloop
  endfacet
  facet normal 0 -1 0
    outer loop
      vertex 110.25 87 1
      vertex 130.75 87 11.5
      vertex 110.25 87 11.5
    endloop
  endfacet
  facet normal 0 -1 0
    outer loop
      vertex 130.75 87 11.5
      vertex 110.25 87 1
      vertex 130.75 87 1
    endloop
  endfacet
  facet normal -0.3090206 0.95105535 0
    outer loop
      vertex 121.30901 46.412216 1
      vertex 120.19099 46.048943 11.5
      vertex 121.30901 46.412216 11.5
    endloop
  endfacet
  facet normal -0.3090206 0.95105535 0
    outer loop
      vertex 120.19099 46.048943 11.5
      vertex 121.30901 46.412216 1
      vertex 120.19099 46.048943 1
    endloop
  endfacet
  facet normal 0.72070175 0.69324523 0
    outer loop
      vertex 120.19099 46.048943 11.5
      vertex 110.61903 56 1
      vertex 110.61903 56 11.5
    endloop
  endfacet
  facet normal 0.72070175 0.69324523 0
    outer loop
      vertex 110.61903 56 1
      vertex 120.19099 46.048943 11.5
      vertex 120.19099 46.048943 1
    endloop
  endfacet
  facet normal -0.7234742 0.6903514 0
    outer loop
      vertex 121.30901 46.412216 1
      vertex 130.45784 56 11.5
      vertex 130.45784 56 1
    endloop
  endfacet
  facet normal -0.7234742 0.6903514 0
    outer loop
      vertex 130.45784 56 11.5
      vertex 121.30901 46.412216 1
      vertex 121.30901 46.412216 11.5
    endloop
  endfacet
  facet normal -0.96592575 -0.25881925 0
    outer loop
      vertex 0.40192413 1.5 0
      vertex 0 3 13.499999
      vertex 0 3 0
    endloop
  endfacet
  facet normal -0.96592575 -0.25881925 0
    outer loop
      vertex 0 3 13.499999
      vertex 0.40192413 1.5 0
      vertex 0.40192413 1.5 13.499999
    endloop
  endfacet
  facet normal 0 -1 0
    outer loop
      vertex 3 0 0
      vertex 214 0 11.5
      vertex 3 0 11.5
    endloop
  endfacet
  facet normal 0 -1 0
    outer loop
      vertex 214 0 11.5
      vertex 3 0 0
      vertex 214 0 0
    endloop
  endfacet
  facet normal 0.7071043 -0.7071092 0
    outer loop
      vertex 215.5 0.40192413 11.509999
      vertex 216.59808 1.5 13.499999
      vertex 215.5 0.40192413 13.499999
    endloop
  endfacet
  facet normal 0.7071043 -0.7071092 0
    outer loop
      vertex 215.5 0.40192413 11.5
      vertex 216.59808 1.5 13.499999
      vertex 215.5 0.40192413 11.509999
    endloop
  endfacet
  facet normal 0.7071043 -0.7071092 0
    outer loop
      vertex 216.59808 1.5 0
      vertex 215.5 0.40192413 11.5
      vertex 215.5 0.40192413 0
    endloop
  endfacet
  facet normal 0.7071043 -0.7071092 0
    outer loop
      vertex 215.5 0.40192413 11.5
      vertex 216.59808 1.5 0
      vertex 216.59808 1.5 13.499999
    endloop
  endfacet
  facet normal -0.25881925 0.96592575 0
    outer loop
      vertex 3 90 0
      vertex 1.5 89.598076 13.499999
      vertex 3 90 13.499999
    endloop
  endfacet
  facet normal -0.25881925 0.96592575 0
    outer loop
      vertex 1.5 89.598076 13.499999
      vertex 3 90 0
      vertex 1.5 89.598076 0
    endloop
  endfacet
  facet normal -0.70710677 -0.70710677 0
    outer loop
      vertex 1.5 0.40192413 11.5
      vertex 0.40192413 1.5 0
      vertex 1.5 0.40192413 0
    endloop
  endfacet
  facet normal -0.70710677 -0.70710677 0
    outer loop
      vertex 0.40192413 1.5 0
      vertex 1.5 0.40192413 11.5
      vertex 0.40192413 1.5 13.499999
    endloop
  endfacet
  facet normal -0.70710677 -0.70710677 0
    outer loop
      vertex 1.5 0.40192413 12.166666
      vertex 0.40192413 1.5 13.499999
      vertex 1.5 0.40192413 11.5
    endloop
  endfacet
  facet normal -0.70710677 -0.70710677 0
    outer loop
      vertex 0.40192413 1.5 13.499999
      vertex 1.5 0.40192413 12.166666
      vertex 1.5 0.40192413 13.499999
    endloop
  endfacet
  facet normal -0.25881925 -0.96592575 0
    outer loop
      vertex 1.5 0.40192413 0
      vertex 3 0 11.5
      vertex 1.5 0.40192413 11.5
    endloop
  endfacet
  facet normal -0.25881925 -0.96592575 0
    outer loop
      vertex 3 0 11.5
      vertex 1.5 0.40192413 0
      vertex 3 0 0
    endloop
  endfacet
  facet normal -0.25881925 -0.96592575 8.710078e-9
    outer loop
      vertex 1.5 0.40192413 13.499999
      vertex 1.833333 0.31260774 12.499999
      vertex 3 0 13.499999
    endloop
  endfacet
  facet normal -0.25881928 -0.96592575 0
    outer loop
      vertex 1.833333 0.31260774 12.499999
      vertex 1.5 0.40192413 13.499999
      vertex 1.5 0.40192413 12.166666
    endloop
  endfacet
  facet normal -0.25881925 -0.96592575 0
    outer loop
      vertex 3 0 13.499999
      vertex 1.833333 0.31260774 12.499999
      vertex 3 0 12.499999
    endloop
  endfacet
  facet normal -1 0 0
    outer loop
      vertex 0 3 0
      vertex 0 87 13.499999
      vertex 0 87 0
    endloop
  endfacet
  facet normal -1 0 0
    outer loop
      vertex 0 87 13.499999
      vertex 0 3 0
      vertex 0 3 13.499999
    endloop
  endfacet
  facet normal -0.70710677 0.70710677 0
    outer loop
      vertex 0.40192413 88.5 0
      vertex 1.5 89.598076 13.499999
      vertex 1.5 89.598076 0
    endloop
  endfacet
  facet normal -0.70710677 0.70710677 0
    outer loop
      vertex 1.5 89.598076 13.499999
      vertex 0.40192413 88.5 0
      vertex 0.40192413 88.5 13.499999
    endloop
  endfacet
  facet normal -0.96592575 0.25881925 0
    outer loop
      vertex 0 87 0
      vertex 0.40192413 88.5 13.499999
      vertex 0.40192413 88.5 0
    endloop
  endfacet
  facet normal -0.96592575 0.25881925 0
    outer loop
      vertex 0.40192413 88.5 13.499999
      vertex 0 87 0
      vertex 0 87 13.499999
    endloop
  endfacet
  facet normal 0.965927 0.25881466 0
    outer loop
      vertex 217 87 13.499999
      vertex 216.59808 88.5 0
      vertex 216.59808 88.5 13.499999
    endloop
  endfacet
  facet normal 0.965927 0.25881466 0
    outer loop
      vertex 216.59808 88.5 0
      vertex 217 87 13.499999
      vertex 217 87 0
    endloop
  endfacet
  facet normal 0.7071043 0.7071092 0
    outer loop
      vertex 216.59808 88.5 0
      vertex 215.5 89.598076 13.499999
      vertex 216.59808 88.5 13.499999
    endloop
  endfacet
  facet normal 0.7071043 0.7071092 0
    outer loop
      vertex 215.5 89.598076 13.499999
      vertex 216.59808 88.5 0
      vertex 215.5 89.598076 0
    endloop
  endfacet
  facet normal 1 0 0
    outer loop
      vertex 217 3 13.499999
      vertex 217 87 0
      vertex 217 87 13.499999
    endloop
  endfacet
  facet normal 1 0 0
    outer loop
      vertex 217 87 0
      vertex 217 3 13.499999
      vertex 217 3 0
    endloop
  endfacet
  facet normal 0 0 -1
    outer loop
      vertex 214 0 0
      vertex 217 3 0
      vertex 216.59808 1.5 0
    endloop
  endfacet
  facet normal 0 0 -1
    outer loop
      vertex 217 3 0
      vertex 214 0 0
      vertex 217 87 0
    endloop
  endfacet
  facet normal 0 0 -1
    outer loop
      vertex 214 0 0
      vertex 216.59808 1.5 0
      vertex 215.5 0.40192413 0
    endloop
  endfacet
  facet normal 0 0 -1
    outer loop
      vertex 214 90 0
      vertex 217 87 0
      vertex 214 0 0
    endloop
  endfacet
  facet normal 0 0 -1
    outer loop
      vertex 217 87 0
      vertex 214 90 0
      vertex 216.59808 88.5 0
    endloop
  endfacet
  facet normal 0 0 -1
    outer loop
      vertex 216.59808 88.5 0
      vertex 214 90 0
      vertex 215.5 89.598076 0
    endloop
  endfacet
  facet normal 0 0 -1
    outer loop
      vertex 3 0 0
      vertex 214 90 0
      vertex 214 0 0
    endloop
  endfacet
  facet normal 0 0 -1
    outer loop
      vertex 3 0 0
      vertex 3 90 0
      vertex 214 90 0
    endloop
  endfacet
  facet normal 0 0 -1
    outer loop
      vertex 0 3 0
      vertex 3 0 0
      vertex 1.5 0.40192413 0
    endloop
  endfacet
  facet normal 0 0 -1
    outer loop
      vertex 3 0 0
      vertex 0 3 0
      vertex 3 90 0
    endloop
  endfacet
  facet normal 0 0 -1
    outer loop
      vertex 0 3 0
      vertex 1.5 0.40192413 0
      vertex 0.40192413 1.5 0
    endloop
  endfacet
  facet normal 0 0 -1
    outer loop
      vertex 0 87 0
      vertex 3 90 0
      vertex 0 3 0
    endloop
  endfacet
  facet normal 0 0 -1
    outer loop
      vertex 3 90 0
      vertex 0 87 0
      vertex 1.5 89.598076 0
    endloop
  endfacet
  facet normal 0 0 -1
    outer loop
      vertex 1.5 89.598076 0
      vertex 0 87 0
      vertex 0.40192413 88.5 0
    endloop
  endfacet
  facet normal 0.965927 -0.25881466 0
    outer loop
      vertex 216.59808 1.5 13.499999
      vertex 217 3 0
      vertex 217 3 13.499999
    endloop
  endfacet
  facet normal 0.965927 -0.25881466 0
    outer loop
      vertex 217 3 0
      vertex 216.59808 1.5 13.499999
      vertex 216.59808 1.5 0
    endloop
  endfacet
  facet normal 0.25881806 -0.9659261 0
    outer loop
      vertex 215.16667 0.3126075 12.499999
      vertex 214 0 13.499999
      vertex 214 0 12.499999
    endloop
  endfacet
  facet normal 0.25881925 -0.96592575 0.0000014731511
    outer loop
      vertex 214 0 13.499999
      vertex 215.16667 0.3126075 12.499999
      vertex 215.5 0.40192413 13.499999
    endloop
  endfacet
  facet normal 0.25882283 -0.9659248 1.9431097e-7
    outer loop
      vertex 215.5 0.40192413 13.499999
      vertex 215.16667 0.3126075 12.499999
      vertex 215.5 0.40192387 12.166666
    endloop
  endfacet
  facet normal 1 0 0
    outer loop
      vertex 215.5 0.40192413 13.499999
      vertex 215.5 0.40192387 12.166666
      vertex 215.5 0.40192413 11.509999
    endloop
  endfacet
  facet normal 0.25881925 -0.96592575 0
    outer loop
      vertex 214 0 0
      vertex 215.5 0.40192413 11.5
      vertex 214 0 11.5
    endloop
  endfacet
  facet normal 0.25881925 -0.96592575 0
    outer loop
      vertex 215.5 0.40192413 11.5
      vertex 214 0 0
      vertex 215.5 0.40192413 0
    endloop
  endfacet
  facet normal 0.25881925 0.96592575 0
    outer loop
      vertex 215.5 89.598076 0
      vertex 214 90 13.499999
      vertex 215.5 89.598076 13.499999
    endloop
  endfacet
  facet normal 0.25881925 0.96592575 0
    outer loop
      vertex 214 90 13.499999
      vertex 215.5 89.598076 0
      vertex 214 90 0
    endloop
  endfacet
  facet normal 0 1 0
    outer loop
      vertex 214 90 0
      vertex 3 90 13.499999
      vertex 214 90 13.499999
    endloop
  endfacet
  facet normal 0 1 0
    outer loop
      vertex 3 90 13.499999
      vertex 214 90 0
      vertex 3 90 0
    endloop
  endfacet
  facet normal 0 0 1
    outer loop
      vertex 3 90 13.499999
      vertex 214 87.2 13.499999
      vertex 214 90 13.499999
    endloop
  endfacet
  facet normal 0 0 1
    outer loop
      vertex 3 90 13.499999
      vertex 3 87.2 13.499999
      vertex 214 87.2 13.499999
    endloop
  endfacet
  facet normal 0 0 1
    outer loop
      vertex 1.5 89.598076 13.499999
      vertex 3 87.2 13.499999
      vertex 3 90 13.499999
    endloop
  endfacet
  facet normal 0 0 1
    outer loop
      vertex 0.40192413 88.5 13.499999
      vertex 3 87.2 13.499999
      vertex 1.5 89.598076 13.499999
    endloop
  endfacet
  facet normal 0 0 1
    outer loop
      vertex 0 3 13.499999
      vertex 3 87.2 13.499999
      vertex 0 87 13.499999
    endloop
  endfacet
  facet normal 0 0 1
    outer loop
      vertex 3 87.2 13.499999
      vertex 0.40192413 88.5 13.499999
      vertex 0 87 13.499999
    endloop
  endfacet
  facet normal 0 0 1
    outer loop
      vertex 3 87.2 13.499999
      vertex 0 3 13.499999
      vertex 3 0 13.499999
    endloop
  endfacet
  facet normal 0 0 1
    outer loop
      vertex 3 0 13.499999
      vertex 0 3 13.499999
      vertex 1.5 0.40192413 13.499999
    endloop
  endfacet
  facet normal 0 0 1
    outer loop
      vertex 1.5 0.40192413 13.499999
      vertex 0 3 13.499999
      vertex 0.40192413 1.5 13.499999
    endloop
  endfacet
  facet normal 0 0 1
    outer loop
      vertex 214 87.2 13.499999
      vertex 217 87 13.499999
      vertex 216.59808 88.5 13.499999
    endloop
  endfacet
  facet normal 0 0 1
    outer loop
      vertex 217 87 13.499999
      vertex 214 87.2 13.499999
      vertex 217 3 13.499999
    endloop
  endfacet
  facet normal 0 0 1
    outer loop
      vertex 214 87.2 13.499999
      vertex 216.59808 88.5 13.499999
      vertex 215.5 89.598076 13.499999
    endloop
  endfacet
  facet normal 0 0 1
    outer loop
      vertex 214 0 13.499999
      vertex 217 3 13.499999
      vertex 214 87.2 13.499999
    endloop
  endfacet
  facet normal 0 0 1
    outer loop
      vertex 214 87.2 13.499999
      vertex 215.5 89.598076 13.499999
      vertex 214 90 13.499999
    endloop
  endfacet
  facet normal 0 0 1
    outer loop
      vertex 217 3 13.499999
      vertex 214 0 13.499999
      vertex 216.59808 1.5 13.499999
    endloop
  endfacet
  facet normal 0 0 1
    outer loop
      vertex 216.59808 1.5 13.499999
      vertex 214 0 13.499999
      vertex 215.5 0.40192413 13.499999
    endloop
  endfacet
endsolid OpenSCAD_Model
