<svg xmlns="http://www.w3.org/2000/svg" viewBox="0 0 770 858" width="770" height="858"><path d="M393.841,415.984c0.757,-1.475 0.088,-4.086 0.044,-5.702c-0.045,-4.672 -1.526,-8.974 -1.526,-13.786l-1.526,-2.508c-4.893,0 -11.316,0.981 -16.03,0.09c-2.02,-0.458 -3.053,-1.094 -5.208,-1.349c-2.425,-0.211 -5.208,0.089 -7.678,0.044c-3.1,-0.05 -3.913,-0.534 -4.626,1.795c-0.763,2.611 0.947,5.131 1.481,7.549c0.459,2.253 0.141,4.632 0.141,6.873c0,1.795 -0.993,5.969 -0.141,7.675c1.167,2.163 9.34,1.145 12.304,1.145c5.343,0 10.688,-0.089 15.986,-0.044c2.83,0.05 5.478,0.675 6.781,-1.795zM435.372,70.061c6.646,9.834 2.923,19.935 2.605,30.894c-0.315,10.462 -0.353,20.61 -1.346,31.073c-1.89,20.566 1.527,41.264 -1.661,61.741c-2.605,16.523 -9.523,32.419 -9.879,49.124c-0.318,13.694 -0.141,27.435 0,41.175c0.038,5.162 1.123,11.004 -0.585,16.121c-0.942,3.002 -3.362,5.472 -4.266,8.527c-1.401,4.896 -0.497,10.598 -0.497,15.626c0,5.977 -0.044,11.986 -0.044,17.917v65.918c0,6.51 0.459,13.156 0.141,19.621c-0.312,6.464 -2.064,12.483 -2.02,19.039c0.134,11.495 2.021,23.356 -5.03,33.946c-2.922,4.449 -1.797,8.942 -4.041,13.651c-2.603,5.52 -4.669,11.095 -7.364,16.568c-2.919,5.747 -6.959,11.183 -10.193,16.885c-2.066,3.64 -3.728,7.37 -5.928,10.959c-1.391,2.38 -3.592,3.998 -5.073,6.11c-1.303,1.847 -1.213,5.512 -4.131,6.021c-0.224,-3.627 -5.03,-8.794 -6.646,-12.028c-2.245,-4.493 -6.017,-8.184 -9.205,-12.219c-3.547,-4.487 -4.31,-9.833 -7.274,-14.594c-3.369,-5.344 -7.59,-10.231 -10.238,-15.895c-3.098,-6.645 -3.818,-13.738 -6.062,-20.611c-2.424,-7.363 -4.667,-15.045 -5.164,-22.72c-0.497,-8.397 -0.229,-16.834 0,-25.235c0.05,-3.413 0.229,-6.518 1.081,-9.84c2.012,-7.903 0.129,-16.21 1.21,-24.293c0.987,-7.903 2.831,-15.627 3.277,-23.62c0.582,-11.854 1.028,-23.804 1.346,-35.653c0.269,-9.834 -0.764,-20.204 2.335,-29.815c2.156,-6.824 5.299,-13.109 6.242,-20.25c0.764,-5.703 1.03,-11.405 2.29,-17.018c1.257,-5.477 2.874,-10.912 2.83,-16.525c-0.089,-5.789 -3.819,-10.777 -4.086,-16.569c-0.361,-6.736 0.362,-13.428 1.481,-20.072c1.797,-11.091 3.463,-22.502 3.997,-33.588c0.713,-13.381 -0.267,-26.762 0.267,-40.098c0.582,-14.235 2.515,-28.425 3.906,-42.568c0.678,-6.959 0.983,-13.963 1.391,-20.925c0.181,-2.521 1.129,-3.96 1.842,-6.289c1.58,-5.031 0.452,-11.445 0.408,-16.703c-0.089,-8.755 -0.408,-17.555 -0.318,-26.402c0.044,-8.577 -3.369,-15.713 0,-24.293c-0.989,2.571 3.768,-0.51 3.412,-0.255c0.138,-0.039 0.185,-0.082 0.229,-0.127c1.214,-0.827 1.079,-1.209 2.74,-1.845c1.212,-0.427 2.422,-0.472 3.682,-0.382c3.994,0.444 8.53,2.825 12.347,4.174c6.825,2.293 10.059,8.847 14.773,13.875c4.895,5.348 9.655,10.911 14.459,16.345c4.401,5.031 6.241,11.179 10.238,16.525c4.489,6.104 8.351,12.531 12.527,18.679z" /> <path d="M552.214,421.965c0.09,-1.21 0,-2.495 0,-3.768c0,-0.816 0.446,-2.457 -0.497,-2.966c-0.763,0.764 -4.492,0.255 -5.702,0.255c-3.639,0 -7.634,0.509 -11.137,-0.255c-2.56,-0.465 -5.208,-0.509 -7.768,-0.509c-1.796,0 -4.04,0.127 -5.478,1.145c-2.563,1.845 -1.391,6.325 -1.391,8.756c0.044,2.558 0.185,5.117 0.044,7.637c-0.135,2.062 -1.528,4.176 -1.438,6.059c2.469,0.382 3.727,1.018 5.793,1.527c2.47,0.546 6.017,-0.09 8.577,-0.09c4.13,0 10.552,0.981 14.503,0.09c4.356,-1.069 2.645,-5.028 3.053,-7.675c0.038,-0.89 0.217,-0.509 0.446,-1.145c0.134,-0.421 0,-0.93 0.044,-1.439c0.217,-0.942 0.446,-1.846 0.446,-2.737c0,-1.719 0.356,-3.196 0.497,-4.812zM583.046,241.888c0.444,13.248 -0.09,26.584 -0.09,39.875c0,17.559 -0.898,35.114 -3.188,52.626c-2.469,18.724 -1.705,37.046 -2.29,55.769c-0.225,8.353 -1.072,17.201 -1.976,25.551c-0.762,7.139 -3.548,14.098 -4.579,21.239c-1.936,13.381 -0.051,26.807 -0.764,40.188c-0.448,9.339 -5.389,17.245 -9.295,25.684c-3.547,7.768 -6.24,15.761 -9.07,23.754c-1.706,4.938 -5.927,7.587 -8.935,11.99c-1.526,2.329 -3.414,3.461 -4.895,5.702c-2.694,4.085 -4.758,7.14 -8.261,10.818c-3.459,-3.055 -3.594,-8.222 -6.377,-11.723c-3.457,-4.302 -5.434,-5.969 -6.465,-10.997c-0.807,-4.174 -3.274,-8.081 -3.771,-12.346c-0.267,-2.114 0.23,-3.947 -0.267,-6.059c-0.583,-2.38 -2.205,-4.582 -2.918,-6.962c-3.277,-10.732 -8.618,-20.97 -9.699,-32.196c-1.074,-11.538 0.898,-22.984 -1.303,-34.44c-1.523,-7.86 -0.36,-15.947 -1.841,-23.889c-1.711,-9.296 -0.364,-19.268 -0.408,-28.649c-0.089,-13.336 2.649,-25.73 5.613,-38.841c3.409,-15.088 2.517,-29.367 3.727,-44.589c1.167,-15.849 4.177,-31.656 5.208,-47.551c1.172,-17.782 0.141,-35.878 0.141,-53.66v-70.272c0,-8.981 -0.98,-18.722 -0.534,-28.065l-1.303,8.134c-1.166,-5.118 -7.139,-31.341 5.03,-32.105c10.104,-0.582 15.986,10.37 22.451,16.391c7.813,7.185 15.088,14.365 22.766,21.823c3.593,3.45 7.859,6.593 12.035,9.381c1.212,0.764 2.778,1.325 3.682,2.47c2.15,2.699 0.356,6.377 1.616,9.343c0.312,0.763 1.664,0.763 2.02,1.527c0.905,1.795 0.141,6.427 0.141,8.222c0,4.941 0.044,9.969 0.044,14.907c0,12.259 1.885,24.288 1.841,36.596c-0.044,6.192 0.044,12.481 0,18.679c-0.089,7.32 1.664,14.407 1.931,21.688z" /> <path d="M686.365,469.078c7.274,-0.088 7.364,-1.578 7.274,-5.613c-0.051,-2.113 0.803,-4.671 0.09,-6.695c-0.539,-1.654 -1.703,-3.004 -2.2,-4.62c-0.54,-1.757 1.256,-2.47 -1.886,-3.234c-1.751,-0.382 -5.343,0.127 -7.274,0c-3.279,-0.356 -7.993,-3.054 -11.675,-2.418l-6.242,-2.47c-2.295,2.825 -2.066,5.066 -2.066,8.35c0.091,4.493 -2.11,8.133 -2.11,12.665c0,4.113 -1.077,5.302 6.242,5.258c6.78,-0.128 12.976,-1.182 19.847,-1.273zM715.386,242.913c0.223,4.353 0.274,8.668 -0.044,13.021c-1.078,13.606 -2.11,27.257 -4.535,40.727c-6.107,33.632 3.008,68.431 -2.29,102.109c-3.014,19.217 -0.904,39.469 -0.904,58.822c0,9.878 -0.673,19.981 0.446,29.859c0.898,7.994 -4.94,18.004 -9.519,25.056c-4.176,6.471 -8.845,12.709 -12.976,19.174c-2.652,4.137 -5.929,7.511 -8.982,11.456c-2.201,2.928 -5.703,4.403 -8.083,6.873c-1.571,1.705 -2.066,3.996 -3.592,5.702c-4.176,-0.637 -5.703,-7.548 -6.646,-10.195c-2.515,-7.094 -4.042,-14.505 -7.993,-21.328c-10.731,-18.724 -8.755,-39.873 -8.755,-60.08c0,-14.145 -1.394,-28.917 0.179,-43.017c0.357,-3.677 1.613,-7.763 -0.318,-11.226c-1.571,-2.864 -3.46,-4.672 -3.906,-7.854c-0.717,-5.164 0.228,-10.548 1.438,-15.627c2.424,-9.834 3.502,-19.983 4.266,-29.949c0.583,-8.13 1.398,-16.211 2.021,-24.294c0.764,-9.654 3.007,-19.084 3.682,-28.783v-0.509c0.803,-12.438 1.84,-24.61 1.796,-37.135c0,-12.709 0.044,-25.376 0.044,-38.079c0,-10.146 0.047,-20.246 -0.044,-30.353c-0.135,-8.13 2.738,-14.505 6.869,-21.734c2.739,-4.837 1.751,-6.364 7.274,-5.473c2.379,0.406 4.489,1.298 6.465,2.647c2.11,1.489 5.882,3.959 7.498,6.021c0.993,1.298 0.852,1.528 1.616,3.234c1.438,3.271 2.65,6.873 4.266,9.966c2.828,5.117 7.139,9.379 9.744,14.637c3.277,6.691 7.363,14.817 13.111,19.578c1.751,1.426 3.729,2.863 4.939,4.799c1.837,3.196 2.689,8.351 2.918,11.902z" /> <path d="M239.033,423.125c0.23,-1.031 0.141,-2.125 0.141,-3.143c0,-1.083 0.267,-2.483 -0.089,-3.501c-0.812,-0.127 -1.218,-0.382 -1.931,-0.509c-0.897,-0.127 -2.464,0 -3.457,0c-1.168,0.127 -2.197,-0.127 -3.369,-0.382c-1.257,-0.128 -2.514,0 -3.817,-0.255c-3.906,-0.891 -7.992,-1.018 -11.989,-1.018c-0.762,0 -2.378,-0.291 -3.142,0.091c-2.919,1.298 -1.349,5.384 -1.616,7.229c-0.269,2.024 -2.107,4.086 -1.661,6.198c0.315,1.476 1.164,2.417 1.661,3.856c0.632,2.112 1.254,4.532 1.751,6.644c5.524,0.549 9.386,2.744 14.953,2.699c2.514,0 6.017,0.6 8.442,0.091c3.232,-0.676 2.29,-2.47 2.201,-5.079c-0.045,-2.418 1.031,-3.002 1.616,-4.938c0.534,-1.936 0.179,-3.907 0,-5.843c-0.038,-0.801 0.139,-1.386 0.318,-2.15zM263.171,89.603c3.682,-4.085 8.8,-2.52 14.055,-2.52c-1.841,7.274 -1.841,16.12 -1.841,24.876c0,15.312 -1.526,30.221 -4.086,45.353c-3.187,18.321 -8.845,36.013 -8.8,54.647c0.135,22.451 0.495,45.62 -1.841,67.981c-0.404,3.678 -1.526,7 -2.964,10.501c-3.639,9.252 -2.786,18.724 -2.201,28.335c1.032,5.658 2.065,11.322 3.008,16.973c1.082,9.248 0.363,18.907 0.318,28.198c0,14.64 2.249,31.299 -0.356,45.847c-1.617,8.844 -1.483,17.826 -1.438,26.761c0,7.679 -1.478,15.711 0.408,23.26c1.346,5.167 3.682,9.838 3.771,15.222c0.181,8.623 -3.501,16.347 -5.567,24.697c-2.965,11.854 -6.512,23.443 -10.104,35.204c-1.346,4.318 -2.695,11.905 -7.274,14.819c-3.188,1.961 -2.963,0.839 -5.523,-1.273c-6.554,-5.253 -8.935,-12.344 -12.841,-19.039c-3.098,-5.342 -6.826,-10.153 -9.609,-15.716c-3.412,-6.738 -6.869,-13.786 -10.686,-20.342c-2.513,-4.226 -3.412,-8.885 -5.837,-13.021c-5.523,-9.476 -2.828,-20.609 -2.828,-30.893c0,-9.431 1.485,-19.891 -0.446,-29.144c-1.124,-5.565 -1.036,-10.591 -1.303,-16.345c-0.225,-4.943 -2.065,-9.475 -1.976,-14.413c0.186,-13.291 0.045,-26.627 0.045,-39.918c0,-7.635 -0.444,-15.315 0.141,-22.902c0.579,-7.005 1.751,-13.693 1.751,-20.745c-0.186,-14.503 -0.045,-29.005 -0.045,-43.465c0,-16.658 0.987,-33.002 1.751,-49.527c0.18,-3.819 1.709,-7.408 1.976,-11.138c0.179,-3.093 1.349,-5.561 1.26,-8.527c-0.179,-7.185 -0.179,-14.374 0.267,-21.553c0.313,-5.023 -1.258,-11.274 3.143,-14.684c1.84,-1.475 3.547,-2.697 5.343,-4.174c2.517,-2.115 4.85,-4.086 7.186,-6.556c2.291,-2.291 5.028,-3.677 7.229,-5.88c2.064,-2.112 3.098,-4.708 5.433,-6.644c1.393,-1.209 2.965,-1.909 4.311,-3.182c2.29,-2.189 3.682,-5.029 6.107,-7.179c2.828,-2.558 5.926,-4.672 8.8,-7.052c5.435,-4.488 10.104,-10.686 14.19,-16.299c2.515,-3.424 4.266,-7.51 7.094,-10.603z" /> <path d="M104.774,468.984c0.675,-1.044 0,-3.806 -0.089,-5.079c-0.09,-2.241 -1.613,-4.136 -2.021,-6.377c-0.32,-1.618 0.482,-3.107 -0.141,-4.761c-4.265,-0.242 -6.645,-1.431 -10.956,-1.387c-2.155,0 -4.401,0.045 -6.511,0c-2.378,-0.127 -3.365,-0.763 -5.073,-1.018c-3.008,-0.382 -7.767,-2.138 -9.07,-0.255c-0.623,0.89 0.358,2.838 0.179,3.856c-0.27,1.527 -0.721,2.049 -1.573,3.322c-0.177,-1.082 -0.311,-2.1 -0.356,-3.373v3.768c0.177,-0.127 0.267,-0.255 0.356,-0.382c0.215,1.579 0.534,3.107 1.119,4.761c1.031,3.055 -0.671,6.325 0.675,9.291c4.984,0.7 8.172,-0.509 12.707,-1.145c4.803,-0.72 10.955,0.171 15.94,0.044c2.603,0 3.723,0.561 4.804,-1.145zM130.769,199.648c-0.446,4.804 0.318,9.691 0.318,14.503c-0.044,7.139 0.453,14.419 0.045,21.598c-0.852,15.402 -6.78,30.084 -8.935,45.261c-1.391,9.834 -1.532,20.113 -2.155,30.041c-0.45,6.959 -1.613,13.828 -1.931,20.79c-0.763,16.03 0.089,32.239 0.089,48.315c0,21.238 -0.674,42.523 1.661,63.672c1.437,12.976 1.302,28.067 -1.616,40.592c-1.346,5.75 -3.77,11.81 -5.478,17.69c-2.2,7.275 -4.176,13.645 -8.487,20.162c-2.65,3.96 -3.459,8.668 -6.242,12.487c-2.021,2.75 -4.536,3.819 -7.319,5.843c-5.659,3.997 -9.923,8.985 -13.022,14.548c0.809,-3.145 -1.391,-6.339 -2.155,-9.343c-1.436,-5.616 -4.176,-10.861 -5.568,-16.525c-1.795,-7.5 -5.298,-13.424 -8.755,-20.476c-2.74,-5.479 -4.132,-10.825 -9.205,-15.357c-2.651,-2.38 -4.305,-3.055 -3.682,-6.695c1.304,-7.049 3.676,-13.426 3.817,-20.745c0.315,-17.109 6.419,-34.082 5.388,-51.19c-0.947,-16.119 -1.622,-32.016 -1.481,-48.315c0.045,-5.973 -1.437,-11.498 -1.616,-17.467c-0.273,-8.216 0.045,-16.519 0.045,-24.741c0,-6.067 -0.674,-12.036 -0.585,-18.095c0.046,-3.36 -0.046,-6.962 1.392,-10.055c0.673,-1.477 1.62,-2.329 1.976,-3.997c1.121,-4.581 -0.044,-10.64 -0.089,-15.311c0,-5.888 0.089,-11.769 0.356,-17.649c0.225,-5.351 5.075,-9.563 7.723,-14.324c1.569,-2.787 2.378,-5.396 4.938,-7.458c7.813,-6.557 14.818,-15.802 22.272,-23.26c0.852,-0.942 1.84,-1.846 2.783,-2.737c7.093,-6.557 15.357,-12.526 20.924,-20.342c1.887,-2.649 3.323,-6.556 5.928,-8.618c4.4,-3.412 11.313,-1.389 11.046,4.9c-0.179,4.187 -2.024,8.134 -2.38,12.308z" /> <path d="M735.183,523.108c-4.305,3.322 -0.94,-2.062 0.141,-5.702c1.167,-3.767 2.111,-7.408 3.457,-11.086c1.751,-5.03 4.221,-10.732 7.409,-14.729c1.977,-2.418 3.952,-3.945 5.748,-6.733c0.852,-1.386 1.884,-4.95 3.592,-5.205c1.932,-0.305 5.478,5.346 6.781,6.695c2.873,2.787 4.175,4.494 4.939,8.935c2.385,13.695 0.806,27.346 1.481,41.086c0.406,6.825 1.666,13.692 1.081,20.565c-0.498,6.285 -1.211,12.624 -1.708,18.95c-0.583,6.735 -2.109,13.914 -3.547,20.52c-1.976,9.07 -3.817,18.238 -6.242,27.211c-4.489,16.748 -11.762,31.474 -23.169,43.197c-10.911,11.225 -21.328,22.629 -33.901,31.297c-12.215,8.397 -23.665,18.861 -35.519,27.975c-9.384,7.282 -19.218,14.052 -29.591,19.31c-13.829,7.09 -27.705,14.281 -42.478,17.782c-9.925,2.33 -19.937,4.938 -29.906,6.733c-18.052,3.233 -36.371,6.2 -54.512,8.312c-11.406,1.273 -22.226,2.864 -33.498,0.255c-12.304,-2.779 -22.586,-6.101 -33.229,-13.65c-8.8,-6.197 -18.14,-11.225 -26.761,-17.602c-1.661,-1.222 -3.322,-2.266 -5.073,-3.284c-2.828,-1.668 -5.479,-3.004 -7.589,-5.613c-3.459,-4.313 -5.163,-9.874 -8.532,-14.368c-3.367,-4.441 -7.768,-7.942 -11.45,-12.028c-7.812,-8.667 -15.221,-17.829 -23.439,-26.089c-6.196,-6.292 -12.213,-11.905 -20.52,-15.087c-8.623,-3.233 -17.871,-5.396 -26.853,-6.873c-5.972,-0.981 -11.045,-2.917 -17.197,-2.826c-4.803,0.09 -7.41,-1.699 -11.989,-1.654c-8.533,0.127 -17.423,-0.496 -24.697,4.709c-7.948,5.568 -17.601,10.15 -26.583,14.324c-5.118,2.379 -11.135,5.293 -15.761,8.527c-8.889,6.287 -16.388,13.831 -21.283,23.709c-3.77,7.634 -5.254,18.228 -6.6,26.717c-1.078,6.691 -0.583,12.889 3.188,18.681c2.47,3.781 5.747,6.926 9.116,9.84c4.446,3.909 8.398,8.401 12.933,12.169c3.277,2.685 6.869,4.799 10.866,6.148c2.154,0.674 4.04,2.738 6.33,2.647c0.947,-0.038 1.443,-1.35 2.066,-1.477c1.751,-0.211 2.828,-0.083 4.579,0.044c3.144,0.305 5.119,1.096 7.993,2.241c1.976,0.763 3.862,2.063 5.613,2.699c2.605,0.891 4.938,0.255 7.274,-0.127c3.771,-0.623 2.783,-0.305 2.828,4.048c0.089,4.403 0.726,8.081 0.497,12.575c-0.18,3.194 0.491,7.408 1.751,10.284c-3.547,3.704 -14.997,0 -19.083,-0.382c-6.916,-0.625 -12.976,-3.132 -19.892,-3.768c-8.127,-0.636 -16.75,-2.634 -24.876,-1.018c-6.87,1.4 -10.597,-0.585 -16.299,-5.117c-11.765,-9.295 -22.767,-20.612 -27.705,-36.641c-3.767,-12.349 -4.441,-27.706 -1.119,-40.547c2.874,-10.956 9.114,-20.256 13.605,-30.489c3.367,-7.588 4.715,-15.267 6.107,-23.439c2.021,-12.169 10.417,-21.596 20.745,-27.885c3.952,-2.38 8.083,-4.301 11.9,-7c5.477,-3.908 10.552,-7.408 17.556,-7.281c4.446,0.089 7.993,-1.324 12.259,-1.706c7.408,-0.725 14.323,-1.298 21.642,-3.143c8.621,-2.203 16.346,-4.379 25.146,-4.761c14.637,-0.726 28.962,-3.417 43.645,-3.373c12.752,0.039 24.159,-0.052 36.506,3.182c16.705,4.356 29.232,16.89 40.907,29.097c6.464,6.826 12.796,14.551 17.062,22.99c1.034,1.972 1.122,4.263 2.695,5.969c2.65,2.826 7.634,4.709 10.598,7c4.311,3.233 8.892,6.873 12.798,10.603c7.857,7.633 13.38,16.931 22.54,22.99c4.626,3.054 9.879,3.997 14.683,6.517c5.748,2.967 11.9,4.048 18.052,5.843c16.301,4.673 34.081,7.548 50.965,4.582c7.992,-1.437 15.222,-5.969 22.406,-10.055c7.677,-4.447 15.177,-9.525 22.675,-14.234c10.732,-6.606 22.091,-11.813 32.689,-18.546c11.045,-7.005 20.879,-15.67 31.387,-23.574c6.333,-4.8 12.798,-9.473 18.68,-14.907c5.254,-4.853 9.43,-11.32 15.447,-14.998c4.086,-2.506 8.8,-3.499 12.482,-6.733c3.233,-2.775 5.388,-6.733 7.409,-10.501c8.531,-15.985 14.593,-33.409 18.23,-51.369c1.834,-9.16 2.738,-19.581 2.648,-28.962c-0.09,-6.242 1.347,-17.023 -2.515,-22.228z" /> <path d="M118.93,709.666c-0.179,-2.291 -1.573,-3.272 -2.605,-4.99c-2.021,-3.322 -3.547,-7.319 -5.03,-11.086c-4.849,-12.169 -5.882,-32.959 -0.408,-45.756c5.073,-11.723 14.324,-19.218 22.182,-27.346c7.139,-7.37 14.279,-14.46 21.642,-21.329c16.255,-15.042 33.901,-30.399 52.492,-39.471c13.515,-6.606 26.224,-10.871 40.457,-12.933c9.519,-1.349 18.993,-3.907 28.514,-5.754c10.193,-1.973 20.431,-3.055 30.578,-5.931c21.868,-6.289 44.363,-10.322 66.547,-13.65c15.447,-2.329 29.995,-1.387 45.307,-0.127c18.904,1.527 37.404,4.174 53.165,17.647c2.783,2.38 6.017,2.914 8.982,4.99c2.828,1.936 5.253,4.174 8.173,5.792c6.33,3.463 12.707,6.289 18.95,10.145c8.038,4.938 17.154,8.35 23.888,15.986c4.849,5.384 9.16,10.501 13.336,16.703c3.188,4.709 8.173,7 10.643,12.525c1.708,3.819 2.244,8.439 2.515,12.752c0.229,2.647 0.267,5.295 0,7.904c-0.356,3.945 -1.573,7.726 -2.38,11.582c-1.081,5.525 -1.031,11.048 -1.661,16.615c-0.764,6.465 -3.412,7.942 -7.051,12.308c-4.669,5.702 -9.834,9.202 -15.492,13.068c-2.783,1.845 -5.343,5.258 -8.621,6.148c-2.29,0.636 -4.311,0.636 -6.6,1.527c-4.804,1.706 -9.564,3.768 -14.19,6.021c-1.616,0.764 -3.099,1.706 -4.895,1.744c-4.626,0.127 -9.384,-3.73 -13.426,-5.931c-2.515,-1.349 -5.613,-1.273 -8.396,-1.973c-5.12,-1.298 -8.712,-6.148 -13.65,-8.35c-3.053,-1.387 -3.457,-3.234 -5.748,-6.021c-1.708,-2.15 -3.503,-3.182 -5.073,-5.525c-3.862,-5.563 -7.903,-12.575 -10.373,-19.128c-0.993,-2.558 -2.47,-6.606 -1.573,-9.558c0.852,-2.737 6.152,-5.167 8.353,-6.911c1.931,-1.565 5.568,-6.415 8.038,-6.021c1.21,6.289 -0.267,13.381 2.918,19.174c3.412,6.148 8.218,10.871 14.144,12.798c4.266,1.387 7.723,4.353 12.079,5.88c5.03,1.757 9.789,1.845 15.042,1.795c4.041,-0.044 9.922,-0.764 11.989,-5.88c0.852,-2.062 0.497,-3.322 0.229,-5.434c-0.814,-5.434 -0.993,-10.818 -1.796,-16.255c-0.585,-4.086 0.585,-8.222 -1.346,-11.902c-1.346,-2.647 -4.041,-3.551 -5.613,-5.754c-2.155,-3.143 -2.11,-6.556 -2.783,-10.412c-0.904,-4.849 -4.311,-5.931 -7.004,-8.935c-11.45,-12.703 -28.917,-19.488 -43.106,-27.077c-9.16,-4.849 -18.5,-8.083 -28.244,-10.284c-5.613,-1.273 -11.225,-2.342 -16.973,-2.914c-9.205,-0.891 -17.647,1.018 -26.807,1.973c-14.279,1.565 -28.558,0.127 -42.882,2.241c-10.238,1.477 -20.385,3.73 -30.669,5.384c-11.585,1.845 -23.843,5.346 -35.025,10.501c-11.091,5.028 -22.766,9.611 -34.351,12.028c-12.752,2.647 -24.113,6.695 -35.697,14.502c-9.611,6.427 -19.083,12.028 -27.975,20.207c-3.369,3.093 -5.478,5.346 -7.948,9.84c-3.143,5.754 -7.274,9.432 -11.046,14.325c-5.388,6.911 -13.92,15.492 -16.39,25.056c-2.244,8.847 -2.335,20.611 -1.438,29.501c0.623,6.733 1.392,13.604 1.708,20.297c0.141,3.272 2.38,11.264 -0.446,13.65c-3.099,2.609 -12.439,-2.329 -14.368,-5.258c-2.918,-4.315 -6.287,-10.551 -8.218,-15.582c-2.11,-5.434 -2.38,-9.432 -2.648,-15.492c-0.408,-8.706 -3.503,-14.234 0.229,-22.9z" /> <path d="M251.217,742.199c-3.772,7.725 -4.939,6.503 -6.96,1.298c-1.531,-4.088 -1.392,-8.799 -2.244,-13.202c-1.121,-6.107 -1.794,-12.978 -0.713,-19.443c0.717,-4.576 1.749,-3.259 5.073,-4.532c2.648,-0.942 5.208,-1.922 8.126,-2.558c4.76,-1.043 10.374,0 15.223,0.255c5.163,0.254 10.688,-0.128 15.761,0.636c10.102,1.527 20.071,6.021 29.815,9.114c8.757,2.787 14.325,7.458 22.003,12.219c4.895,3.055 8.307,8.133 12.034,12.398c3.413,3.907 6.826,7.816 9.609,12.219c2.425,3.856 4.984,7.534 7.589,11.264c1.482,2.113 2.111,4.633 3.592,6.695c1.571,2.254 3.817,3.909 5.433,6.289c3.951,5.838 8.351,10.917 13.515,15.716c3.368,3.107 6.152,7.32 10.014,9.84c3.862,2.52 8.083,4.901 12.169,7.319c5.118,3.093 10.283,4.761 15.716,7.141c10.237,4.48 24.202,6.364 35.068,3.182c4.266,-1.235 7.364,-1.189 11.675,-1.145c5.661,0.178 4.716,1.616 6.107,6.911c1.345,4.715 7.409,14.633 2.605,17.917c-1.436,0.98 -5.027,0.98 -6.6,1.616c-2.064,0.726 -3.502,1.935 -5.388,2.699c-6.468,2.507 -12.798,3.805 -18.95,7.268c-7.947,4.442 -18.5,5.614 -27.525,3.678c-2.289,-0.497 -3.995,-1.642 -6.33,-2.024c-1.616,-0.255 -3.188,0.127 -4.804,-0.382c-3.143,-1.031 -5.658,-4.316 -8.173,-6.289c-3.007,-2.253 -6.421,-3.64 -9.429,-5.931c-12.797,-9.564 -23.213,-22.272 -32.689,-35.114c-3.099,-4.226 -6.691,-8.133 -9.699,-12.398c-1.798,-2.559 -3.1,-5.296 -5.255,-7.587c-5.927,-6.151 -9.699,-14.151 -16.928,-18.95c-8.351,-5.565 -13.92,-13.24 -23.439,-17.288c-7.59,-3.232 -15.269,-7.318 -23.395,-8.795c-10.958,-2.063 -21.644,0.419 -32.6,-0.09z" /> <path d="M620.144,529.841c0.713,3.055 -2.335,4.62 -4.132,6.556c-4.086,4.353 -6.735,8.935 -7.948,14.638c-3.412,15.492 0.318,32.374 3.188,47.596c1.616,8.706 6.375,16.076 10.598,23.754c1.526,2.788 2.155,6.059 5.03,7.763c2.29,1.349 6.826,2.558 9.34,3.093c4.804,1.145 10.463,0.255 15.401,0.382c2.918,0.044 8.935,-2.558 10.328,-0.764c1.346,1.706 0.044,8.222 0.09,10.463c0.044,4.99 -1.526,6.11 -6.375,6.517c-3.503,0.255 -6.287,0.764 -9.429,2.418c-2.38,1.145 -3.503,2.431 -6.017,2.38c-2.918,-0.045 -7.051,-1.145 -10.104,-1.527c-3.369,-0.382 -5.793,-1.757 -8.755,-3.284c-12.394,-6.377 -20.924,-14.998 -27.659,-27.434c-3.547,-6.517 -6.646,-13.158 -10.508,-19.488c-2.066,-3.322 -4.804,-6.236 -6.33,-9.928c-1.481,-3.73 -1.573,-7.675 -2.201,-11.635c-1.391,-8.172 -1.438,-15.089 0.179,-23.125c0.993,-5.028 1.26,-11.315 4.849,-15.357c5.658,-6.556 15.088,-9.699 21.24,-15.941c3.188,-3.272 6.107,-6.733 7.948,-11.086c2.47,3.284 5.433,5.258 7.274,9.114c1.481,2.966 2.244,4.532 3.997,6.873c1.438,1.936 2.874,3.551 0,-1.973z" /> <path d="M118.539,587.85c0.267,-1.477 2.244,-2.112 3.324,-3.143c5.928,-5.754 5.073,-15.536 0.446,-22.093c-2.066,-2.826 -3.817,-5.613 -7.139,-7.675c-2.201,-1.349 -4.266,-1.668 -6.556,-2.418c-1.841,-0.509 -3.457,-1.795 -5.478,-1.757c-3.099,0 -5.253,2.826 -8.126,3.501c-2.74,0.636 -5.343,0.509 -8.126,1.527c-3.053,1.018 -6.062,0.764 -8.982,1.565c-1.976,0.509 -2.74,1.527 -4.626,2.508c-2.828,1.477 -4.895,1.936 -7.633,3.997c-2.918,2.15 -5.793,3.997 -8.532,6.465c-7.364,6.556 -12.752,15.761 -16.793,24.786c-8.847,19.488 -2.783,46.969 7.051,64.166c1.886,3.234 3.053,6.236 5.613,8.897c1.931,2.112 4.535,4.938 0.045,6.11c-7.723,2.112 -17.826,-4.227 -23.304,-8.26c-6.465,-4.799 -10.551,-10.959 -13.74,-17.872c-2.828,-6.059 -7.498,-11.672 -8.755,-18.276c-1.392,-7.496 -3.547,-15.266 -4.311,-22.855c-0.764,-7.281 -4.579,-16.39 -1.708,-23.35c2.918,-7.09 6.375,-12.798 11.585,-18.589c5.748,-6.517 11.9,-12.525 17.243,-19.308c2.29,-2.914 4.266,-4.403 7.498,-6.148c4.626,-2.52 8.218,-6.326 12.798,-8.847c2.155,-1.145 4.491,-1.565 6.646,-2.788c5.208,-2.914 9.07,-6.733 14.864,-8.847c6.287,-2.241 11.272,-4.938 18.186,-5.028c7.274,-0.044 13.336,0.255 20.431,1.616c6.465,1.273 12.752,1.706 16.525,7.319c3.142,4.761 6.511,9.076 9.294,14.01c1.081,1.845 2.425,2.788 3.906,4.353c1.661,1.706 2.29,3.64 3.099,5.754c1.886,4.799 1.796,9.024 1.796,14.053c0,3.551 0.713,7.904 0.045,11.405c-0.497,2.647 -2.964,5.167 -4.626,7.229c-3.369,4.353 -7.139,9.47 -12.887,11.176c-1.796,0.509 -2.74,1.273 -4.176,1.883c-1.976,0.891 -2.513,1.018 -4.895,1.565c-3.547,0.764 -6.287,4.494 -7.004,-0.255c-0.534,-3.463 1.481,-4.441 3.862,-6.695c2.066,-1.936 6.691,-3.322 3.143,0.255z" /></svg>