<svg xmlns="http://www.w3.org/2000/svg" viewBox="0 0 634 896" width="634" height="896"><path d="M391.005,237.02c6.232,-5.157 10.026,-11.856 15.255,-17.942c4.01,-4.654 7.771,-9.67 11.064,-14.861c2.832,-4.477 6.374,-8.701 8.023,-13.822c1.182,-3.654 2.686,-7.055 4.153,-10.601c1.971,-4.832 4.982,-9.022 7.308,-13.642c2.937,-5.799 2.336,-11.495 2.364,-17.797c0.037,-6.912 -1.144,-13.14 -3.221,-19.765c-1.542,-4.87 -2.76,-10.168 -6.018,-14.215c-2.973,-3.726 -4.942,-7.771 -8.558,-10.922c-2.899,-2.544 -5.764,-5.124 -8.917,-7.308c-2.72,-1.898 -5.727,-3.293 -8.379,-5.298c-4.976,-3.76 -10.597,-6.124 -16.112,-9.025c-7.196,-3.831 -13.105,-9.237 -20.769,-12.21c-6.015,-2.364 -11.816,-5.551 -17.974,-7.448c-3.726,-1.148 -7.45,-2.257 -11.209,-3.26c-2.686,-0.718 -5.156,-0.398 -7.915,-0.466c-5.155,-0.108 -10.025,-1.59 -15.183,-1.683c-4.583,-0.108 -8.382,0.465 -12.785,1.647c-5.765,1.504 -11.57,2.58 -16.759,5.731c-5.158,3.153 -9.347,7.664 -13.502,11.998c-3.331,3.473 -5.264,7.912 -8.522,11.458c-6.052,6.553 -12.212,13.141 -17.008,20.694c-2.184,3.403 -4.226,6.875 -6.625,10.17c-0.931,1.288 -2.221,2.648 -2.973,4.116c-1.645,3.118 -2.075,7.38 -2.613,10.78c-0.426,2.686 -0.754,5.265 -0.822,7.985c-0.285,10.167 4.657,18.762 9.848,27.141c2.004,3.296 4.69,6.018 6.98,9.097c1.649,2.253 3.008,4.763 4.548,7.089c2.759,4.116 5.3,8.631 6.84,13.321c3.329,10.241 8.271,19.48 15.325,27.608c3.901,4.478 7.017,9.346 10.347,14.252c3.941,5.838 8.452,9.921 13.787,14.469c3.224,2.723 6.553,5.477 9.598,8.414c1.328,1.324 2.544,3.047 3.941,4.263c0.573,0.461 3.23,2.398 3.258,0.393c0.287,10.597 9.526,5.693 11.389,5.012c1.537,-0.504 3.148,-0.681 4.688,-1.148c2.04,-0.571 3.328,-1.751 4.977,-3.007c3.007,-2.29 6.124,-4.33 9.239,-6.479c2.042,-1.362 3.332,-2.223 5.838,-2.652c2.184,-0.393 4.007,-0.538 6.05,-1.469c2.901,-1.288 5.551,-3.331 8.452,-4.728c2.578,-1.254 5.084,-2.544 7.448,-4.153c5.264,-3.617 10.244,-7.664 15.148,-11.745zM632.659,356.203c1.173,6.016 1.037,11.639 1.037,17.547c0,3.688 -0.028,7.376 0,11.062c0.068,4.729 -0.86,8.987 -1.649,13.607c-0.653,3.616 -0.857,6.841 -0.789,10.455c0,0.75 0.681,7.016 -0.501,7.196c-2.222,-3.079 -5.585,-2.255 -8.917,-3.186c-2.791,-0.749 -5.121,-1.689 -8.128,-1.717c-3.079,0 -6.194,0.179 -9.273,0c-10.168,-0.536 -19.695,-4.262 -29.614,-6.16c-4.69,-0.896 -8.236,-0.754 -12.352,-3.367c-3.762,-2.399 -7.912,-3.615 -11.745,-5.799c-3.687,-2.113 -7.341,-4.511 -11.207,-6.3c-3.226,-1.503 -6.626,-1.936 -9.993,-2.865c-1.829,-0.501 -3.472,-1.253 -5.229,-2.005c-1.825,-0.81 -2.83,-0.649 -4.762,-0.717c-2.828,-0.14 -6.121,-0.965 -8.88,-1.609c-4.227,-0.931 -7.448,-3.295 -11.423,-4.904c-3.401,-1.361 -6.733,-1.469 -10.24,-2.364c-5.049,-1.29 -9.955,-3.08 -15.184,-3.761c-3.547,-0.464 -6.733,0 -10.24,0.322c-9.99,0.896 -20.732,-1.037 -30.616,-2.399c-9.239,-1.25 -19.125,-2.505 -28.398,-0.822c-3.293,0.613 -6.553,1.362 -9.846,2.043c-2.005,0.43 -3.762,0.682 -4.944,2.58c-0.749,1.183 -0.823,3.151 -1.216,4.583c-0.929,3.438 -2.327,6.626 -4.01,9.812c-3.186,6.052 -8.27,10.78 -10.706,17.259c-0.968,2.577 -0.575,6.015 -0.575,8.988c0.039,6.158 0.395,13.392 -2.111,19.23c-0.789,1.897 -1.684,3.508 -1.863,5.585c-0.291,3.405 0.136,6.947 0.068,10.387c-0.065,3.618 -0.224,7.234 0.028,10.886c0.322,5.011 1.411,10.062 1.504,15.111c0.068,4.122 -0.186,8.237 0.136,12.392c0.575,8.413 1.04,16.756 2.043,25.172c2.434,20.627 3.546,41.288 6.767,61.878c2.58,16.545 5.659,33.194 9.527,49.451c3.045,13.034 5.944,26.321 7.126,39.641c1.362,15.578 2.151,31.261 4.944,46.694c0.86,4.729 1.439,9.098 1.575,13.894c0.176,6.661 1.111,13.073 1.933,19.66c1.322,10.634 2.184,21.488 3.113,32.157c0.393,4.549 0.322,9.097 0.715,13.608c0.43,5.229 2.005,10.205 2.219,15.47c0.182,4.261 0.074,8.45 0.609,12.711c0.464,3.581 0.998,7.089 1.037,10.743c0.074,4.476 0.18,8.882 0.575,13.356c0.356,4.121 0.214,8.917 1.504,12.892c0.929,2.866 1.825,4.476 1.932,7.662c0.145,3.4 0.646,6.265 1.649,9.56c0.968,3.187 0.817,6.411 0.789,9.706c-0.043,2.937 0.579,6.659 -0.136,9.598c-4.764,0.501 -9.957,0.028 -14.755,0c-3.328,-0.037 -6.516,-0.109 -9.774,0.752c-4.62,1.22 -8.809,1.742 -13.573,1.649c-9.595,-0.175 -19.011,2.504 -28.645,2.436c-8.595,-0.035 -17.152,0.324 -25.71,-0.644c-4.476,-0.495 -8.88,0.22 -13.356,-0.068c-3.33,-0.214 -6.445,-1.751 -9.49,-3.007c-3.007,-1.217 -5.945,-2.758 -9.131,-3.367c-3.906,-0.786 -7.735,-0.996 -11.675,-0.968c-6.553,0.028 -13.142,-0.068 -19.693,0c-1.362,0.039 -2.794,0.608 -3.295,-0.715c-0.753,-2.115 2.184,-5.657 2.793,-7.306c2.646,-6.982 3.364,-14.682 4.904,-21.95c2.506,-11.998 2.005,-23.849 2.005,-36.025c0,-14.539 -0.387,-29.113 -0.028,-43.652c0.145,-5.874 1.398,-11.566 1.577,-17.439c0.247,-7.521 0.642,-14.969 1.323,-22.451c0.574,-6.271 0.254,-12.464 0.322,-18.731c0.069,-6.052 0.641,-12.244 1.037,-18.296c0.394,-6.266 0.967,-12.534 1.756,-18.799c0.822,-6.266 0.321,-12.606 0.822,-18.943c1.109,-13.929 0.86,-27.895 2.256,-41.789c0.896,-8.558 2.146,-17.008 3.007,-25.566c1.435,-14.109 5.303,-27.822 6.519,-41.897c0.537,-5.944 1.608,-11.603 1.54,-17.547c-0.034,-3.011 0.969,-5.873 1.148,-8.81c0.18,-3.437 -1.109,-7.27 -1.395,-10.743c-1.218,-14.755 -3.961,-29.724 -3.868,-44.548c0.096,-10.635 -0.186,-21.269 0.028,-31.87c0.145,-7.017 1.148,-14.108 2.471,-20.983c0.787,-4.082 0.929,-8.167 1.396,-12.284c0.356,-3.439 1.108,-6.947 1.108,-10.419c0,-2.079 -0.427,-3.543 -1.108,-5.587c-1.11,-3.331 -1.368,-5.19 -1.396,-8.63c-0.036,-3.974 -1.076,-7.988 -1.791,-11.889c-0.934,0.105 -2.256,2.432 -2.937,3.186c-1.968,2.075 -4.259,3.865 -6.302,5.908c-2.292,2.256 -4.155,3.901 -7.413,4.762c-4.656,1.182 -8.452,-0.217 -13.072,-0.861c-6.73,-0.932 -13.067,1.683 -19.8,1.504c-2.613,-0.07 -5.012,-0.176 -7.483,0.861c-3.828,1.614 -6.835,3.547 -11.062,3.94c-6.09,0.575 -12.283,0.467 -18.335,1.256c-3.4,0.462 -6.374,0.427 -9.56,-0.861c-3.794,-1.543 -5.834,-3.118 -10.061,-2.759c-3.33,0.287 -6.624,1.006 -9.919,0.754c-2.721,-0.219 -5.44,-0.789 -8.092,-1.256c-3.366,-0.538 -6.445,-1.395 -9.558,-2.757c-3.83,-1.682 -7.484,-2.471 -11.637,-3.186c-4.297,-0.752 -8.596,-1.863 -12.893,-2.292c-4.655,-0.495 -9.346,0.065 -13.966,-0.028c-7.161,-0.142 -13.967,-2.147 -21.021,-2.899c-5.945,-0.618 -12.462,-1.119 -18.37,-0.151c-4.19,0.647 -8.773,2.151 -12.606,3.94c-2.508,1.182 -4.441,3.295 -6.625,4.87c-3.474,2.471 -6.947,5.767 -10.994,6.912c-0.43,0.093 -1.111,-0.136 -1.504,0c-0.86,0.362 -2.757,2.618 -3.186,3.045c-1.612,1.544 -6.947,7.843 -9.667,6.733c-0.682,-0.285 -2.33,-3.151 -2.652,-3.58c-1.362,-1.934 -2.793,-3.797 -4.261,-5.622c-4.334,-5.445 -8.883,-10.675 -13.286,-16.044c-4.369,-5.37 -6.591,-11.101 -8.202,-17.762c-1.003,-4.082 -2.438,-8.524 -0.681,-12.532c1.684,-3.831 3.58,-7.231 4.295,-11.458c0.752,-4.69 1.466,-8.987 2.722,-13.607c1.036,-3.834 1.504,-7.809 2.72,-11.603c1.684,-5.192 3.759,-10.242 5.443,-15.433c0.93,-2.971 1.97,-6.087 3.975,-8.558c0.642,-0.749 1.362,-1.823 2.399,-2.111c2.222,-0.68 5.839,1.112 7.807,1.756c6.591,2.184 13.536,3.829 19.947,6.481c6.087,2.51 11.421,6.445 17.259,9.49c7.915,4.117 17.297,7.664 26.285,8.057c9.706,0.467 19.48,-0.214 29.184,0c4.296,0.109 8.558,0.802 12.892,0.895c5.729,0.151 11.456,-0.028 17.187,-0.028c10.528,0 20.947,0.288 31.476,0.681c6.699,0.287 13.144,1.745 19.839,1.717c7.195,-0.034 14.001,-0.034 21.09,1.148c4.511,0.752 9.025,0.322 13.534,0.536c3.722,0.18 7.34,0.761 11.064,0.789c2.899,0 6.159,0.288 8.917,-0.715c1.433,-0.501 5.73,-2.648 6.339,-4.117c0.93,-2.184 -4.263,-5.408 -5.516,-6.411c-9.453,-7.448 -19.41,-14.538 -29.078,-21.7c-8.81,-6.479 -18.156,-12.46 -26.211,-19.873c-5.517,-5.01 -10.349,-10.741 -15.578,-16.006c-6.304,-6.338 -11.137,-13.748 -15.757,-21.377c-3.007,-4.979 -4.549,-10.351 -5.587,-16.043c-1.216,-6.659 -2.364,-13.32 -1.897,-20.087c0.359,-6.015 2.326,-11.491 3.975,-17.222c1.897,-6.695 2.54,-13.715 3.688,-20.554c1.009,-6.088 1.538,-12.138 1.037,-18.298c-0.588,-7.38 -2.221,-14.395 -0.681,-21.808c1.539,-7.45 4.045,-15.112 7.196,-22.024c4.082,-8.879 10.135,-17.008 15.757,-24.923c9.059,-12.748 17.868,-26.211 30.114,-36.095c3.544,-2.899 7.59,-4.976 11.244,-7.769c4.084,-3.151 8.308,-5.406 12.964,-7.662c2.471,-1.216 4.835,-2.471 7.448,-3.4c3.045,-1.08 6.018,-1.08 9.239,-1.148c5.013,-0.074 9.849,-1.476 14.861,-1.504c3.546,-0.034 6.947,-0.034 10.421,-0.715c2.436,-0.501 4.583,-1.649 6.947,-2.258c2.758,-0.718 5.192,-2.364 7.949,-2.937c4.047,-0.861 7.952,0.894 11.676,2.29c1.502,0.542 3.293,1.296 4.942,1.364c1.003,0.028 2.044,-0.322 3.045,0c0.608,0.213 1.074,0.749 1.609,1.001c1.362,0.646 2.005,0.539 -1.074,-1.932c5.05,0.112 9.239,0.433 13.895,2.436c4.549,2.008 9.237,3.727 13.822,5.624c13.033,5.371 26.247,10.527 39.03,16.507c6.159,2.899 11.672,7.34 17.403,10.956c5.405,3.404 10.489,6.947 15.431,10.994c5.909,4.762 13.538,9.025 17.332,15.792c1.755,3.079 3.008,6.626 5.479,9.239c3.472,3.76 8.378,6.699 12.605,9.598c11.568,7.877 19.658,18.657 28.396,29.398c4.618,5.692 9.453,11.315 10.85,18.691c1.035,5.264 0.967,10.386 0.967,15.757c0,4.081 0.186,8.163 -0.028,12.246c-0.18,4.262 -1.538,7.915 -2.399,12.031c-0.647,2.973 -0.432,5.873 -2.364,8.344c-1.502,1.931 -2.47,3.722 -3.258,6.086c-1.503,4.437 -0.179,9.094 -1.217,13.642c-1.324,5.871 -5.118,10.238 -7.983,15.396c-1.898,3.401 -3.581,7.123 -5.158,10.669c-1.721,3.907 -2.616,8.166 -4.728,11.89c-3.366,6.015 -7.448,11.565 -11.349,17.222c-2.545,3.689 -5.124,7.308 -8.309,10.529c-2.759,2.832 -5.876,5.41 -8.202,8.596c-3.404,4.654 -8.274,9.097 -12.571,12.891c-4.796,4.263 -10.099,8.307 -15.576,11.637c-2.218,1.398 -4.51,1.933 -6.587,3.724c-2.973,2.576 -6.019,4.906 -9.205,7.196c-1.862,1.358 -3.366,2.4 -5.516,3.115c-0.932,0.322 -2.15,0.969 -3.151,1.037c0.394,1.362 1.897,2.077 2.865,3.153c2.433,2.758 3.367,5.155 7.662,4.728c3.724,-0.36 7.378,-1.862 11.172,-2.258c9.205,-1.006 19.086,-0.218 28.183,1.038c4.796,0.681 9.595,1.541 14.323,2.578c5.335,1.148 10.672,3.258 16.043,4.155c2.185,0.356 4.617,0.096 6.875,0.068c5.195,0 10.421,0 15.65,0.028c3.151,0.033 5.764,-0.034 8.843,-0.789c3.942,-0.93 7.95,-1.431 11.891,-2.399c2.831,-0.715 5.551,-1.789 8.416,-2.47c3.009,-0.754 5.978,-1.11 8.917,-2.184c3.148,-1.111 5.978,-2.078 9.273,-2.722c3.438,-0.718 6.018,-2.649 9.239,-3.831c2.9,-1.074 5.765,-1.146 8.664,-2.436c2.828,-1.254 5.371,-3.186 8.344,-4.153c4.869,-1.612 10.06,-3.013 15.109,-3.081c2.33,-0.037 3.584,-0.966 5.516,-2.256c2.472,-1.649 5.084,-2.258 7.877,-3.153c2.11,-0.719 4.942,-1.683 7.268,-1.148c1.862,0.429 1.862,2.434 2.471,4.117c0.86,2.365 1.93,4.336 3.186,6.446c0.753,1.327 1.04,2.507 1.468,4.047c1.076,3.621 2.935,6.807 4.69,10.1c3.045,5.73 4.622,11.781 7.128,17.689c2.291,5.442 4.583,10.959 5.731,16.76z" /></svg>