<svg xmlns="http://www.w3.org/2000/svg" viewBox="0 0 763 546" width="763" height="546"><path d="M0.359,304.741v-240.915l16.964,-15.848c64.314,-60.078 296.767,-63.516 358.728,-5.307l12.367,11.618l27.206,-16.793c41.963,-25.905 88.583,-35.598 169.131,-35.166c77.535,0.416 124.004,9.57 126.959,25.007c1.379,7.202 -0.767,8.888 -8.284,6.503c-9.79,-3.105 -9.789,-2.926 0.031,5.124c9.714,7.965 9.733,9.008 0.464,23.154c-8.237,12.571 -10.449,13.483 -14.621,6.027c-2.705,-4.832 -8.916,-8.786 -13.803,-8.786c-6.383,0 -4.431,4.127 6.928,14.655l15.813,14.655l-12.832,10.391c-17.694,14.328 -26.406,13.028 -32.96,-4.914c-3.082,-8.438 -5.788,-11.204 -6.029,-6.162c-0.754,15.705 -16.624,17.094 -20.465,1.791c-1.895,-7.544 -6.66,-13.718 -10.592,-13.718c-9.595,0 -15.02,-15.27 -6.637,-18.681c3.655,-1.486 1.989,-2.9 -3.7,-3.142c-8.113,-0.345 -9.643,2.353 -7.092,12.51c2.657,10.585 1.092,12.873 -8.573,12.523c-6.503,-0.234 -12.704,2.077 -13.782,5.139c-1.103,3.138 7.151,5.285 18.916,4.923c16.885,-0.52 21.452,1.607 23.887,11.131c1.7,6.651 8.356,12.548 15.294,13.551c10.508,1.52 11.407,3.416 6.214,13.121c-4.44,8.295 -7.727,9.688 -12.235,5.18c-8.826,-8.826 -15.271,-7.602 -11.515,2.185c5.524,14.398 -22.3,10.345 -28.67,-4.174c-3.94,-8.982 -10.214,-12.523 -22.192,-12.523c-9.184,0 -19.966,-3.757 -23.961,-8.349c-6.104,-7.015 -6.308,-6.376 -1.282,4.014c4.901,10.124 9.059,11.747 22.98,8.963c16.516,-3.303 16.946,-2.866 15.196,15.466c-1.369,14.331 -4.665,19.274 -13.718,20.566c-8.735,1.246 -11.706,5.328 -11.131,15.302c0.734,12.746 9.132,20.143 9.132,8.045c0,-11.127 17.096,-5.214 23.113,7.994c7.612,16.708 2.693,31.081 -11.947,34.911c-6.072,1.589 -10.137,4.481 -9.033,6.428c1.104,1.947 -2.381,8.045 -7.743,13.552c-9.074,9.314 -10.393,9.369 -18.96,0.802c-6.793,-6.793 -7.628,-11.114 -3.181,-16.471c3.616,-4.357 3.946,-8.55 0.825,-10.48c-9.681,-5.984 -11.934,20.94 -2.611,31.239c11.869,13.113 16.191,12.577 30.413,-3.778c6.563,-7.549 13.888,-12.517 16.275,-11.041c2.387,1.476 5.754,0.399 7.481,-2.393c5.179,-8.379 44.282,3.32 52.577,15.73c4.2,6.285 13.174,11.427 19.945,11.427c18.89,0 21.116,6.444 5.094,14.757c-17.109,8.877 -33.44,9.706 -38.24,1.939c-1.892,-3.062 -8.927,-5.406 -15.635,-5.213l-12.193,0.353l12.523,5.033c17.193,6.911 16.601,21.324 -0.737,18.011c-7.295,-1.393 -14.766,-0.098 -16.606,2.876c-1.84,2.974 4.306,6.942 13.657,8.812c14.449,2.891 16.469,5.289 13.46,15.984c-1.98,7.032 -1.537,9.776 0.997,6.222c2.497,-3.497 14.557,-6.98 26.801,-7.735c37.522,-2.317 38.656,-1.682 27.607,15.488l-9.851,15.305l11.993,-10.602c11.921,-10.541 11.993,-10.516 11.993,3.799c0,9.513 -3.778,15.6 -11.131,17.934c-6.122,1.943 -11.131,6.037 -11.131,9.099c0,3.077 -5.098,3.948 -11.399,1.947c-6.269,-1.989 -15.004,-0.626 -19.408,3.028c-4.51,3.744 -14.118,5.115 -21.997,3.137c-8.085,-2.03 -13.987,-1.118 -13.987,2.161c0,8.054 35.353,7.051 43.644,-1.239c5.504,-5.504 7.978,-5.22 12.159,1.392c7.613,12.042 6.584,22.217 -2.248,22.217c-4.217,0 -10.661,3.608 -14.323,8.02c-5.725,6.897 -4.263,7.117 10.449,1.563c9.624,-3.633 17.106,-10.493 17.106,-15.686c0,-11.606 9.649,-19.743 29.251,-24.664c16.007,-4.016 19.861,1.691 8.688,12.865c-3.623,3.623 -5.174,8 -3.445,9.726c1.729,1.726 7.016,-0.737 11.754,-5.473c11.146,-11.146 13.373,-10.873 20.541,2.517c7.432,13.887 -1.606,33.377 -15.501,33.43c-5.25,0.021 -17.057,5.013 -26.241,11.095c-11.938,7.907 -13.922,11.069 -6.956,11.095c5.357,0.021 9.74,-2.295 9.74,-5.141c0,-2.846 5.635,-6.012 12.523,-7.032c33.253,-4.92 66.438,40.047 49.395,66.933c-3.685,5.813 -7.872,4.476 -19.394,-6.205c-8.081,-7.491 -14.695,-16.315 -14.695,-19.609c0,-3.294 -2.142,-7.314 -4.762,-8.933c-2.619,-1.619 -3.635,2.95 -2.259,10.15c1.376,7.2 0.388,14.367 -2.195,15.925c-2.585,1.558 -20.978,-0.601 -40.875,-4.798c-100.87,-21.273 -245.855,1.593 -275.133,43.394l-8.717,12.444l-8.717,-12.444c-30.115,-42.994 -175.198,-65.127 -276.817,-42.227c-46.27,10.427 -67.326,19.905 -88.759,39.959l-15.305,14.321zM400.276,290.587c-1.534,-169.808 -3.514,-218.223 -8.929,-218.231c-5.447,-0.007 -6.956,47.294 -6.956,217.979c0,119.893 1.602,219.591 3.559,221.548c12.471,12.47 14.164,-17.937 12.327,-221.298z" /></svg>