<svg xmlns="http://www.w3.org/2000/svg" viewBox="0 0 870 848" width="870" height="848"><path d="M427.658,845.727c-7.957,-2.749 -97.368,-3.845 -112.515,-1.376c-11.269,1.836 -12.243,1.647 -21.312,-4.173c-10.983,-7.048 -27.991,-13.283 -41.829,-15.328c-5.305,-0.786 -19.162,-6.098 -30.792,-11.805c-11.63,-5.707 -26.859,-12.081 -33.838,-14.163c-9.639,-2.875 -15.066,-6.088 -22.566,-13.354c-5.431,-5.263 -11.104,-10.316 -12.605,-11.231c-1.501,-0.915 -6.111,-6.194 -10.243,-11.733c-20.875,-27.976 -74.347,-86.545 -83.459,-91.416c-3.971,-2.123 -4.419,-3.48 -3.26,-9.904c0.738,-4.094 2.188,-9.079 3.221,-11.077c2.264,-4.379 13.336,-11.414 16.486,-10.472c1.239,0.371 4.856,1.249 8.034,1.949c3.929,0.867 17.75,13.225 43.189,38.617c31.661,31.603 63.112,59.141 67.545,59.141c0.645,0 5.33,2.635 10.407,5.854c11.635,7.377 41.47,18.308 71.474,26.186c36.501,9.583 67.849,12.729 134.946,13.551c51.834,0.634 63.015,0.202 87.616,-3.389c15.509,-2.264 32.461,-5.373 37.674,-6.91c24.179,-7.13 90.113,-38.472 108.061,-51.37c6.253,-4.494 15.788,-11.031 21.191,-14.53c9.273,-6.007 33.158,-27.378 49.949,-44.693l7.592,-7.828l2.124,5.814c1.168,3.199 3.127,8.336 4.353,11.417c1.226,3.081 1.884,5.935 1.456,6.34c-0.427,0.404 -6.667,4.173 -13.866,8.373c-8.407,4.906 -19.577,14.502 -31.22,26.825c-9.971,10.554 -20.764,21.485 -23.986,24.292c-13.831,12.049 -48.383,48.079 -59.141,61.672c-6.711,8.481 -12.21,12.136 -38.375,25.513c-43.559,22.27 -40.825,21.612 -88.978,21.445c-22.866,-0.081 -43.985,-1.076 -47.333,-2.233zM367.551,746.093c-0.193,-0.194 -14.221,-1.801 -31.17,-3.571c-43.966,-4.591 -96.293,-19.246 -114.999,-32.208c-4.092,-2.837 -8.127,-5.157 -8.964,-5.157c-4.978,0 -71.448,-61.725 -80.713,-74.95c-1.713,-2.445 -8.62,-8.708 -15.352,-13.919c-6.732,-5.211 -12.33,-10.231 -12.445,-11.159c-0.113,-0.928 -2.707,-7.123 -5.763,-13.772c-3.056,-6.649 -6.989,-15.257 -8.738,-19.135c-1.75,-3.876 -6.353,-12.488 -10.231,-19.135c-10.356,-17.756 -19.108,-37.027 -21.492,-47.333c-1.651,-7.143 -3.009,-9.107 -6.399,-9.266c-12.038,-0.564 -27.578,-2.958 -31.853,-4.907c-2.647,-1.207 -7.4,-6.281 -10.56,-11.277c-6.889,-10.888 -7.374,-16.28 -7.868,-87.684c-0.329,-47.326 -0.149,-49.953 3.809,-55.264c6.432,-8.635 13.551,-13.073 21.654,-13.495c4.074,-0.213 7.46,-0.84 7.519,-1.393c0.058,-0.553 0.439,-4.631 0.84,-9.064c0.401,-4.433 5.341,-18.246 10.978,-30.699c5.637,-12.454 10.249,-23.711 10.249,-25.019c0,-1.308 1.265,-3.807 2.809,-5.555c3.664,-4.149 17.333,-30.553 17.333,-33.486c0,-1.247 3.07,-6.267 6.824,-11.158c3.754,-4.891 9.87,-14.428 13.596,-21.197c21.154,-38.444 51.483,-72.908 80.289,-91.235c9.415,-5.992 20.744,-13.814 25.177,-17.386c4.433,-3.572 17.575,-11.004 29.205,-16.516c25.435,-12.055 28.955,-13.392 48.34,-18.358c8.309,-2.127 21.451,-5.887 29.205,-8.354c30.875,-9.817 31.843,-9.986 51.361,-9.009c34.389,1.724 79.554,7.369 102.721,12.838c32.973,7.784 93.036,31.038 126.889,49.121c21.496,11.482 25.176,14.392 51.134,40.406c34.537,34.616 49.548,51.992 55.063,63.751c6.088,12.977 20.692,51.129 20.692,54.062c0,1.361 1.302,4.485 2.891,6.936c4.571,7.056 17.311,39.914 18.504,47.723c1.507,9.877 6.01,16.155 11.588,16.155c7.775,0 17.927,8.243 19.844,16.113c3.079,12.634 5.77,17.564 10.849,19.881c11.746,5.352 23.37,-0.47 26.838,-13.442c2.566,-9.601 2.491,-123.875 -0.086,-133.829c-1.141,-4.398 -4.329,-9.304 -7.639,-11.751c-4.097,-3.028 -6.34,-7.138 -8.036,-14.72c-3.491,-15.6 -11.391,-23.94 -28.93,-30.54c-15.522,-5.841 -20.09,-9.878 -29.499,-26.075c-10.153,-17.476 -12.638,-27.974 -12.556,-53.002c0.038,-12.535 0.696,-24.75 1.458,-27.146c2.547,-8.023 17.483,-25.748 25.812,-30.627c12.569,-7.365 30.208,-11.216 51.546,-11.256l19.134,-0.035l8.846,9.673c4.867,5.32 13.676,16.016 19.577,23.772c5.901,7.756 13.086,16.977 15.968,20.494c4.147,5.064 5.413,9.137 6.083,19.562c0.974,15.203 -1.08,21.996 -9.203,30.44c-3.199,3.323 -8.064,11.138 -10.817,17.369c-2.753,6.231 -7.104,13.028 -9.671,15.106c-5.085,4.116 -4.715,-0.764 -5.941,78.301c-0.237,15.336 1.248,36.684 4.061,58.411c4.867,37.558 5.998,87.771 2.291,101.54c-1.996,7.414 -2.857,8.246 -8.685,8.367c-17.879,0.377 -22.626,2.246 -45.569,17.96c-10.039,6.876 -10.247,7.221 -10.247,17.192c0,16.602 -7.824,55.052 -12.73,62.55c-4.951,7.572 -15.628,14.302 -24.572,15.492c-6.518,0.868 -6.041,-0.796 -9.865,34.427c-1.372,12.646 -10.063,40.965 -17.758,57.879c-4.937,10.853 -5.632,14.052 -3.793,17.492c1.239,2.314 2.253,5.442 2.253,6.95c0,5.457 -51.152,54.684 -69.113,66.51c-6.853,4.512 -15.065,10.359 -18.251,12.992c-6.42,5.309 -49.232,26.425 -75.784,37.374c-18.281,7.541 -40.576,12.846 -62.202,14.804c-11.767,1.066 -114.826,2.347 -115.732,1.438zM437.087,698.437c7.401,-3.041 18.278,-6.34 24.17,-7.33c5.892,-0.99 17.057,-3.244 24.811,-5.012c7.755,-1.767 18.177,-3.72 23.163,-4.342c4.986,-0.622 9.971,-1.835 11.078,-2.697c1.107,-0.862 6.882,-2.71 12.829,-4.103c16.304,-3.823 47.773,-20.979 58.824,-32.063c2.854,-2.862 13.048,-12.806 22.66,-22.101c9.612,-9.295 17.472,-18.093 17.472,-19.551c0,-1.461 3.213,-5.187 7.138,-8.278c19.792,-15.597 34.372,-53.787 35.367,-92.651c0.137,-5.308 1.106,-13.733 2.155,-18.716c2.594,-12.327 2.384,-114.667 -0.25,-121.594c-1.136,-2.988 -1.969,-6.085 -1.851,-6.876c0.697,-4.673 -1.08,-6.54 -8.009,-8.407c-10.574,-2.847 -23.366,-12.5 -29.55,-22.293c-3.108,-4.924 -8.086,-9.408 -12.621,-11.367c-12.253,-5.297 -47.534,-23.215 -50.792,-25.796c-19.603,-15.528 -55.155,-28.924 -96.263,-36.272c-9.188,-1.642 -21.423,-4.286 -27.191,-5.872c-5.768,-1.586 -18.189,-3.893 -27.606,-5.127c-9.415,-1.233 -23.181,-3.108 -30.592,-4.167c-11.25,-1.609 -15.569,-1.3 -26.184,1.869c-6.99,2.087 -22.681,5.318 -34.868,7.178c-35.437,5.413 -53.537,8.939 -66.389,12.935c-12.087,3.756 -27.271,14.381 -27.271,19.078c0,3.613 -9.706,12.223 -19.135,16.967c-4.432,2.232 -10.776,6.432 -14.099,9.335c-3.323,2.903 -10.63,7.887 -16.236,11.073c-5.607,3.187 -18.715,13.649 -29.13,23.247c-10.415,9.598 -23.274,20.263 -28.578,23.698c-5.305,3.438 -9.751,6.323 -9.881,6.413c-0.13,0.09 -1.026,19.652 -1.988,43.467c-0.961,23.817 -2.311,54.38 -2.993,67.915l-1.244,24.612l6.253,10.162c3.438,5.588 6.252,10.588 6.252,11.11c0,0.522 2.772,5.452 6.159,10.957c3.387,5.505 6.607,12.543 7.156,15.641c2.084,11.777 17.437,32.787 42.253,57.82c13.787,13.906 27.892,26.746 31.347,28.534c3.455,1.788 12.912,8.373 21.017,14.635c31.881,24.639 36.549,27.785 53.284,35.914c31.051,15.079 51.523,18.632 103.644,17.987c30.047,-0.372 33.135,-0.774 45.684,-5.929zM380.134,621.354l-4.844,-5.173l-0.029,-66.793c-0.02,-36.736 -1.145,-79.935 -2.511,-95.998c-4.646,-54.55 -5.342,-109.322 -1.691,-133.38c3.531,-23.279 6.204,-32.496 9.114,-31.44c1.013,0.366 9.497,6.974 18.858,14.679l17.017,14.012l-0.631,127.985c-0.404,81.785 -1.396,130.514 -2.749,134.99c-1.163,3.853 -2.711,14.155 -3.44,22.89c-1.283,15.394 -1.517,15.962 -7.561,18.407c-13.163,5.32 -16.406,5.293 -21.533,-0.179zM496.387,573.283c-4.293,-1.525 -8.534,-3.518 -9.425,-4.432c-0.891,-0.914 -2.732,-16.398 -4.089,-34.414c-1.918,-25.428 -1.947,-41.643 -0.126,-72.51c1.291,-21.867 2.339,-53.578 2.327,-70.471l-0.02,-30.716h5.761c3.169,0 9.123,-2.281 13.23,-5.068c4.107,-2.787 8.314,-4.548 9.345,-3.91c1.057,0.654 1.875,18.844 1.875,41.705c0,40.135 1.55,56.195 7.172,74.292c3.847,12.382 3.661,21.053 -1.027,47.978c-6.137,35.262 -10.314,52.199 -13.908,56.425c-3.041,3.572 -3.955,3.664 -11.12,1.12zM239.974,562.181c-3.235,-3.307 -10.719,-9.626 -16.635,-14.038c-9.305,-6.941 -11.911,-10.542 -19.341,-26.716c-16.701,-36.35 -24.374,-75.531 -18.32,-93.523c1.808,-5.37 6.132,-19.734 9.613,-31.919c8.897,-31.164 12.614,-38.257 24.701,-47.137c14.429,-10.605 31.013,-21 45.673,-28.628l12.53,-6.522l3.731,4.609c5.56,6.868 4.627,9.667 -4.829,14.482c-21.021,10.703 -30.374,22.549 -44.322,56.147c-13.007,31.33 -15.598,41.853 -15.598,63.369c0,31.197 8.248,53.157 29.022,77.281c9.062,10.524 9.247,11.018 9.247,24.674c0,13.336 -0.205,13.934 -4.797,13.934c-2.67,0 -7.405,-2.669 -10.676,-6.014zM596.927,516.148c-2.169,-0.426 -5.795,-1.984 -8.057,-3.464c-3.915,-2.56 -4.048,-3.975 -2.804,-29.479c0.721,-14.735 1.986,-41.501 2.816,-59.479c1.649,-35.673 2.443,-37.906 13.932,-39.166c4.121,-0.452 6.107,0.282 6.412,2.366c2.034,13.927 3.36,17.861 7.758,22.971c2.769,3.219 5.028,7.297 5.019,9.064c-0.038,8.729 -4.869,31.939 -11.354,54.571c-3.968,13.847 -7.79,29.275 -8.496,34.284c-1.078,7.651 -1.915,8.982 -5.227,8.331zM821.928,106.804c10.617,-2.831 14.277,-9.403 14.914,-26.785c0.499,-13.622 0.152,-14.9 -6.91,-25.248c-9.349,-13.702 -24.261,-21.536 -37.085,-19.484c-23.118,3.697 -28.644,11.15 -28.757,38.794c-0.086,21.216 3.168,28.097 15.219,32.191c8.57,2.911 32.576,3.213 42.618,0.535z" /></svg>