<svg xmlns="http://www.w3.org/2000/svg" viewBox="0 0 801 800" width="801" height="800"><path d="M228.84,207.597c-8.863,-3.849 -18.071,-4.624 -27.019,-8.518c-3.761,-1.59 -7.267,-3.457 -10.767,-5.313c-3.975,-2.12 -8.172,-2.293 -12.278,-3.849c-4.712,-1.855 -8.473,-3.93 -12.407,-6.869c-3.63,-2.687 -8.213,-3.586 -11.672,-6.443c-0.735,-0.565 -4.154,-3.332 -4.235,-4.369c-0.172,-2.998 4.842,-2.422 6.789,-2.767c7.175,-1.165 14.565,-1.648 21.095,-5.059c5.233,-2.64 8.948,-6.49 12.754,-10.765c3.759,-4.185 7.78,-6.963 13.183,-8.944c7.481,-2.936 10.55,-5.841 13.706,-13.401c1.729,-4.02 4.194,-6.74 6.875,-10.244c2.634,-3.423 5.358,-5.877 7.606,-9.6c4.801,-7.87 9.207,-16.387 12.147,-25.031c-2.894,2.512 -0.611,7.951 0,11.156c1.167,7.527 2.464,14.999 3.72,22.524c1.598,10.074 2.937,20.235 4.881,30.179c5.363,27.539 12.539,54.299 17.166,82.055c0.562,3.284 1.9,7.213 1.381,10.544c-2.634,-0.093 -3.761,-2.466 -4.972,-4.541c-8.512,-13.837 -21.656,-22.738 -35.837,-29.744c-0.738,-0.461 -1.382,-0.692 -2.119,-1.037z" /> <path d="M555.35,152.866c0.516,0.115 1.002,0.459 1.646,0.576c2.158,0.634 4.322,0.173 6.57,1.21c2.202,1.036 3.975,3.088 6.483,3.549c2.163,0.369 4.238,-0.881 6.269,-0.922c4.324,-0.175 6.615,2.419 10.506,3.456c-3.333,0.348 -7.697,0.564 -10.767,1.729c-5.837,2.202 -11.587,9.034 -16.689,12.883c-5.664,4.275 -10.243,7.779 -16.859,10.28c-5.057,1.994 -10.46,5.187 -15.173,8.044c-2.117,1.244 -3.76,3.122 -6.008,4.275c-2.423,1.117 -4.413,1.509 -6.444,3.456c-2.853,2.8 -4.797,6.775 -7.346,10.025c-1.991,2.625 -4.281,4.919 -6.919,6.994c-3.891,3.25 -9.338,4.149 -14.181,5.924c-3.369,1.245 -7.089,0.899 -10.545,1.821c-3.505,0.944 -6.358,3.122 -10.075,3.583c-5.577,0.818 -9.079,-3.963 -14.181,-3.157c-0.908,-2.385 4.276,-8.171 5.186,-10.51c2.724,-6.701 4.887,-13.742 8.343,-20.059c3.375,-6.18 6.012,-12.76 8.131,-19.454c2.074,-6.66 2.724,-13.796 5.056,-20.319c1.469,-4.115 4.194,-6.834 6.875,-10.165c1.598,-2.04 2.937,-4.104 4.106,-6.443c5.572,-10.896 9.593,-23.259 12.882,-35.021c0.965,-3.454 2.422,-8.731 1.253,-12.362c1.168,6.92 4.625,13.399 8.993,18.977c3.759,4.759 6.569,10.162 10.375,14.831c2.335,2.894 5.189,5.362 7.521,8.219c1.86,2.211 3.286,5.105 5.493,6.88c4.02,3.205 9.208,3.724 13.269,7.18c2.25,1.995 3.72,3.504 6.225,4.541z" /> <path d="M543.293,432.624c-6.269,-2.12 -11.325,-4.714 -16.689,-8.77c-3.115,-2.375 -6.784,-7.744 -10.675,-8.171c7.693,-0.576 15.219,-1.994 23.129,-2.028c14.221,-0.117 27.06,1.775 40.94,4.369c11.456,2.246 23.082,6.188 34.584,7.225c6.961,0.692 13.834,0.692 20.794,0.461c8.557,-0.231 17.42,-2.719 25.894,-4.056c6.574,-1.037 12.839,-3.205 19.153,-4.806c4.797,-1.21 8.126,-10.372 13.229,-8.818c-2.031,4.931 -6.744,8.47 -9.598,12.881c-4.581,7.18 -6.57,15.087 -11.627,22.006c-1.773,2.501 -4.235,5.185 -5.447,8.031c-0.819,2.075 -1.037,3.849 -2.204,5.877c-1.426,2.42 -3.766,3.756 -5.146,5.831c-1.469,2.246 -1.773,5.451 -2.031,8.044c-0.473,4.885 -2.248,9.555 -2.68,14.311c-0.243,3.331 0.772,6.649 1.295,9.944c0.865,5.278 5.838,19.108 -4.235,15.003c-3.07,-1.291 -6.7,-5.658 -9.254,-7.997c-3.675,-3.411 -7.477,-5.924 -11.281,-8.908c-4.195,-3.25 -5.924,-6.694 -10.81,-9.127c-5.014,-2.468 -9.294,-5.658 -14.135,-8.47c-6.008,-3.504 -12.319,-7.306 -16.339,-12.708c-4.843,-6.569 -10.375,-15.221 -18.245,-18.071c-9.682,-3.504 -18.804,-8.689 -28.619,-12.021z" /> <path d="M435.046,507.937c0.162,0.039 0.288,0.117 0.426,0.117c0.91,0.461 2.769,7.779 3.375,8.908c5.489,9.507 9.639,20.62 13.617,30.951c0.819,2.168 1.518,4.369 1.903,6.661c0.566,3.411 0.323,6.916 1.342,10.244c3.069,10.981 13.015,21.095 19.369,30.394c10.591,15.778 23.775,28.619 35.753,43.187c4.713,5.658 1.082,11.714 -6.483,10.072c-4.452,-1.037 -8.256,-3.723 -12.839,-4.322c-4.368,-0.692 -8.731,0.231 -13.099,-0.461c-5.447,-0.806 -8.953,-3.238 -14.571,-2.42c-12.669,1.902 -25.938,2.719 -36.748,9.854c-8.169,5.313 -14.395,12.369 -22.093,18.202c-4.322,3.283 -9.206,5.625 -9.811,11.502c-2.031,-7.997 0.404,-17.294 2.633,-24.944c1.731,-5.796 3.76,-11.409 2.338,-17.292c-0.956,-4.115 -1.903,-7.744 -1.472,-11.977c0.819,-8.689 5.056,-16.644 6.959,-25.118c3.806,-15.869 6.744,-31.775 12.494,-46.993c1.731,-4.494 2.725,-9.127 4.928,-13.444c3.244,-6.488 3.981,-12.929 4.756,-20.105c0.243,-2.546 3.5,-14.135 7.22,-13.144z" /> <path d="M224.449,478.524c-9.729,11.156 -19.107,21.575 -31.821,29.096c-5.794,3.411 -9.594,8.171 -13.575,13.489c-2.204,2.984 -5.186,5.485 -7.131,8.689c-1.211,2.028 -1.819,6.488 -4.368,7.26c-1.472,-3.067 -0.782,-8.989 -0.865,-12.407c-0.207,-7.525 -1.727,-21.052 -10.244,-23.775c-3.33,-1.037 -6.225,0.081 -9.254,-2.168c-1.556,-1.21 -2.158,-3.283 -3.76,-4.415c-1.857,-1.336 -4.235,-1.291 -6.139,-2.558c-2.379,-1.602 -3.844,-4.241 -5.619,-6.443c-4.325,-5.278 -7.695,-9.288 -13.229,-13.575c-2.555,-1.902 -9.294,-5.969 -9.469,-9.507c3.891,-2.075 8.431,-0.692 12.624,-0.692c4.021,0.039 7.651,-0.806 11.543,-1.429c10.29,-1.729 19.758,-5.358 30.089,-7.18c8.953,-1.602 17.38,-5.106 26.328,-6.742c7.176,-1.303 13.834,-2.767 20.45,-5.924c5.619,-2.719 11.631,-7.042 18.202,-6.269c26.113,2.939 3.07,36.574 -3.76,44.484z" /> <path d="M565.835,333.398c4.409,11.973 4.93,27.109 6.356,38c1.279,9.078 1.647,18.158 0.91,27.32c-1.212,15.998 -6.659,31.951 -13.359,46.476c-3.369,7.308 -6.614,15.307 -10.545,22.394c-5.447,9.942 -13.618,17.248 -22.437,24.035c-10.249,8 -21.875,13.012 -33.288,18.981c-11.803,6.264 -22.743,13.873 -33.765,21.526c-11.372,7.916 -23.734,12.676 -35.753,19.325c-13.057,7.177 -23.173,9.759 -37.959,10.681c-13.703,0.83 -27.149,4.322 -40.983,4.241c-11.369,-0.126 -21.743,-3.457 -32.163,-7.779c-18.806,-7.735 -36.533,-23.126 -51.619,-36.832c-19.498,-17.678 -32.12,-40.591 -46.688,-62.294c-6.875,-10.246 -7.091,-22.525 -9.079,-34.456c-2.162,-13.576 -4.109,-26.848 -5.277,-40.554c-1.253,-15.132 -6.612,-30.303 -5.575,-45.522c0.69,-11.027 3.89,-21.623 6.784,-32.167c4.282,-15.348 10.116,-27.667 18.503,-41.025c6.14,-9.943 14.44,-17.256 21.271,-26.499c8.906,-12.239 21.789,-22.052 33.808,-30.87c11.022,-8.042 19.799,-18.592 31.903,-25.161c8.517,-4.631 17.465,-7.132 26.979,-8.734c1.858,-0.345 3.845,-0.923 5.664,-0.806c-6.356,-2.812 -1.211,-3.619 3.975,-4.541c3.156,-0.427 6.184,-1.003 9.254,-1.464c2.855,-0.53 6.53,-0.45 9.249,0.806c2.508,1.131 3.328,3.158 5.406,4.714c3.891,2.893 10.675,3.813 15.388,3.93c11.241,0.378 20.707,-4.807 32.076,-2.168c6.446,1.385 9.905,3.413 9.905,10.419c-0.045,7.215 -4.112,13.184 -9.944,16.515c-3.245,1.902 -5.534,4.574 -8.692,6.649c-2.42,1.522 -5.186,2.513 -7.651,3.942c-6.616,3.928 -14.268,11.88 -22.394,10.544c-3.717,-0.565 -6.268,-3.192 -9.598,-4.621c-3.631,-1.671 -7.346,-1.671 -11.237,-1.21c-7.394,0.865 -14.616,2.882 -21.962,3.804c-4.971,0.647 -9.943,0.875 -14.786,2.028c-3.025,0.737 -6.008,1.659 -8.906,2.812c-6.615,2.51 -21.961,5.276 -23.299,13.401c0.558,0.116 1.161,0.23 1.727,0.461c-5.101,4.968 -9.338,8.737 -12.794,15.087c-3.068,5.624 -6.744,10.764 -9.598,16.515c-4.542,9.032 -5.79,15.167 -6.7,24.986c-1.514,15.348 -1.342,30.824 -2.424,46.217c-0.506,7.216 0.323,13.827 0.404,20.881c0.091,4.281 -0.945,8.603 -0.819,12.925c0.041,4.665 1.123,9.289 1.988,13.92c1.513,8.863 2.465,17.635 5.319,26.198c2.895,8.822 6.83,17.204 10.42,25.722c8.256,19.283 22.437,42.717 42.236,51.706c12.538,5.718 25.894,7.458 39.427,7.919c15.477,0.439 29.352,-2.155 44.525,-4.275c10.634,-1.509 22.006,-0.173 32.426,-3.456c10.418,-3.328 20.405,-11.191 28.836,-18.071c16.339,-13.098 32.293,-27.493 40.506,-47.468c4.675,-11.196 5.079,-22.697 4.756,-34.5c-0.129,-3.583 1.382,-6.096 2.119,-9.507c2.096,-9.899 2.338,-21.791 1.727,-31.863c-0.692,-11.845 -4.753,-22.308 -8.473,-33.464c-2.893,-8.558 -6.178,-17.723 -8.557,-26.457c-2.292,-8.644 0.907,-16.249 5.403,-23.82c2.94,-4.969 13.966,-7.997 19.369,-6.35c8.947,2.724 14.869,8.772 19.281,16.991c4.192,8.042 6.612,17.422 9.811,25.812c2.554,6.956 5.406,10.461 10.68,15.346c3.588,3.327 6.053,7.694 7.956,12.708z" /> <path d="M425.357,335.807c4.364,4.582 6.484,12.367 8.431,18.372c2.768,8.647 3.805,18.242 -0.126,26.632c-2.206,4.755 -5.187,11.196 -9.037,14.827c-6.442,6.062 -12.41,7.802 -20.967,7.571c-8.514,-0.12 -18.761,3.031 -26.933,-0.081c-3.461,-1.255 -4.713,-3.666 -7.045,-6.224c-2.638,-2.937 -6.055,-4.275 -9.555,-5.831c-8.648,-3.761 -12.147,-8.04 -13.834,-17.64c-2.38,-13.531 4.189,-28.488 8.731,-40.856c1.467,-3.933 3.371,-12.669 8.473,-13.706c-0.471,2.718 -0.83,4.239 -1.037,4.931c-0.288,0.806 -0.243,1.037 0,0c0.221,-0.437 0.461,-1.026 0.865,-1.602c2.028,-2.628 3.761,-3.481 6.57,-4.403c2.378,-0.817 3.631,-2.143 6.269,-2.719c4.796,-1.082 6.095,0.647 9.639,3.504c1.947,1.647 4.411,3.25 6.7,4.586c6.098,3.4 12.147,-1.707 18.071,0.461c4.542,1.64 11.503,8.82 14.786,12.231z" /> <path d="M513.235,700.812c-1.077,-7.958 -1.728,-16.348 -7.001,-22.743c-3.978,-4.758 -7.695,-11.973 -14.094,-13.875c-4.67,-1.268 -10.033,0.23 -14.918,-0.576c-3.63,-0.611 -6.961,-1.947 -10.461,-3.157c-7.651,-2.639 -13.877,-2.373 -20.967,1.902c-5.276,3.153 -8.302,7.993 -12.839,11.887c-3.505,3.112 -7.869,5.152 -11.586,8.171c-6.961,6.007 -14.223,14.444 -14.742,24.125c-0.304,4.835 1.383,9.549 2.594,14.135c0.863,3.112 1.645,6.269 2.289,9.381c0.819,4.618 1.34,9.158 3.544,13.399c2.988,5.532 9.08,15.911 15.219,18.286c5.277,2.042 11.065,5.395 16.558,6.317c8.04,1.429 18.416,-2.03 26.458,-3.411c3.974,-0.611 8.387,-0.701 12.193,-2.12c5.489,-1.993 8.774,-6.315 12.665,-10.337c4.495,-4.633 6.789,-8.078 9.037,-14.221c1.513,-4.07 4.108,-7.701 5.319,-11.676c1.429,-4.372 0.587,-9.937 0.91,-14.352c0.357,-4.114 0.357,-7.181 -0.162,-11.156zM513.982,646.652c36.441,38.607 39.6,97.057 2.332,140.2c-9.899,11.496 -17.12,13.329 -32.768,13.098c-16.298,-0.207 -30.348,1.474 -44.139,-5.313c-15.433,-7.653 -33.42,-12.707 -47.555,-21.962c-12.106,-7.954 -14.397,-17.593 -15.823,-30.131c-3.283,-29.265 -0.691,-66.446 19.799,-93.033c6.96,-9.078 15.392,-17.421 25.552,-23.909l-8.519,4.669c4.713,-2.813 6.223,-6.017 12.147,-7.919c1.121,-0.345 2.334,-0.575 3.59,-0.806c1.252,-0.646 2.422,-1.28 3.717,-1.856c0.081,-0.042 0.081,-0.081 0.207,-0.081l-3.459,1.869c3.459,-0.689 7.309,-0.92 10.465,-1.381c10.114,-1.3 21.225,0 30.78,2.294c15.262,3.629 34.109,14.222 43.664,24.294z" /> <path d="M131.01,536.556c4.192,-4.752 7.391,-9.386 7.35,-15.781c0,-13.66 -14.526,-21.831 -23.432,-30.175c-2.462,-2.246 -5.448,-6.245 -8.731,-7.398c-1.556,-0.689 -3.845,-0.345 -5.447,-0.806c-4.843,-0.992 -9.769,-3.1 -14.612,-3.676c-5.794,-0.689 -14.612,-0.299 -16.038,5.706c-11.847,2.118 -16.47,12.583 -21.141,22.608c-3.676,7.827 -8.126,14.869 -10.42,23.259c-2.289,8.561 -3.721,17.638 -4.713,26.372c-0.861,7.788 -1.64,11.936 6.616,15.219c4.41,1.821 9.512,3.118 14.225,3.157c5.014,0.045 8.993,-1.914 13.706,-3.205c4.841,-1.395 9.508,-0.381 14.221,-1.856c5.188,-1.694 9.293,-4.979 14.094,-7.525c2.549,-1.383 5.403,-2.075 7.952,-3.411c4.669,-2.419 8,-7.213 11.931,-10.544c2.118,-1.776 4.541,-2.547 6.789,-4.022c2.895,-2.028 5.319,-5.313 7.651,-7.952zM150.593,459.266c25.85,8.002 35.535,30.566 30.994,57.197c-2.289,13.14 -4.407,25.592 -14.176,35.192c-9.598,9.423 -16.732,20.626 -25.506,30.825c-10.374,12.015 -20.233,23.085 -36.097,27.233c-16.214,4.322 -35.796,4.553 -52.571,4.322c-20.579,-0.13 -49.846,-17.249 -51.619,-39.727c-3.199,-40.208 -5.271,-93.211 38.567,-112.358c21.396,-9.425 44.094,-12.627 67.138,-13.319c5.227,-0.15 9.984,-0.403 15.086,1.153c6.096,1.764 9.724,6.602 15.393,8.896c4.367,1.786 8.213,0.693 12.794,0.576z" /> <path d="M210.853,102.393c0.128,-8.042 -0.562,-12.58 -6.266,-18.286c-8.822,-8.864 -13.664,-19.716 -24.47,-26.458c-4.541,-2.86 -7.996,-5.727 -13.66,-5.844c-2.899,-0.012 -5.708,0.692 -8.606,1.153c-3.155,0.427 -12.448,4.621 -7.651,4.621c-6.353,8.864 -13.788,15.786 -17.594,26.458c-2.232,6.356 -2.936,12.245 -1.944,18.894c0.644,4.019 0.775,11.279 3.5,14.484c1.856,2.109 4.364,2.547 6.483,4.403c1.987,1.74 3.199,4.759 5.493,6.188c2.981,1.854 7.823,1.509 11.112,2.546c2.503,0.738 4.84,1.833 7.434,2.294c6.438,1.292 13.183,-0.482 19.582,-1.647c9.033,-1.555 15.042,-4.284 20.144,-12.236c3.715,-5.746 6.399,-9.469 6.44,-16.556zM240.556,61.358c8.732,6.529 5.795,15.13 7.176,24.685c0.651,4.317 -0.649,7.394 -1.168,11.542c-0.552,5.879 0.6,11.457 -0.956,17.381c-0.906,3.676 -2.247,7.225 -3.5,10.856c-0.995,2.779 -1.822,5.452 -2.248,8.264c-1.903,9.941 -7.183,12.142 -15.219,19.196c-7.136,6.265 -12.499,13.826 -20.625,18.978c-8.516,5.36 -20.319,10.465 -30.259,6.616c-5.275,-2.12 -9.642,-5.796 -15.131,-7.571c-6.57,-2.107 -13.405,-2.419 -19.975,-4.275c-14.222,-4.02 -30.389,-16.775 -36.618,-30.609c-5.832,-12.924 -6.483,-31.426 -8.557,-45.477c-4.498,-30.434 9.075,-52.53 39.381,-58.625c13.143,-2.639 25.896,-3.343 39.212,-3.804c8.69,-0.252 13.362,2.722 21.618,5.406c9.51,3.115 16.085,7.264 23.866,13.659c4.277,3.504 8.903,6.787 13.875,9.381c2.984,1.509 6.398,2.375 9.123,4.403z" /> <path d="M628.443,82.603c-0.998,-8.864 -2.68,-15.259 -9.079,-21.702c-9.163,-9.125 -16.86,-20.404 -30.694,-22.006c-7.522,-0.91 -14.227,0.173 -21.011,3.112c-2.42,1.073 -5.878,1.417 -7.434,3.93c-1.216,2.073 0.086,4.839 -1.988,6.395c-1.344,0.979 -3.676,0.404 -5.319,1.21c0,0.345 0.084,0.737 5.056,-0.692c-1.945,1.21 -3.755,3.295 -4.885,4.448c-2.937,2.547 -5.487,4.842 -7.606,8.125c-1.86,2.906 -4.887,5.844 -6.356,8.863c-1.674,3.418 -1.434,8.731 -2.078,12.407c-0.697,3.722 -1.141,7.306 -0.737,11.075c0.781,6.654 2.207,13.265 3.289,19.798c2.634,14.985 25.203,16.829 37.309,15.907c18.413,-1.343 34.627,-10.375 43.575,-26.719c3.981,-7.262 8.948,-15.604 7.956,-24.167zM655.98,63.228c5.446,5.706 4.975,13.4 6.356,20.925c1.425,8.557 1.812,13.917 -1.169,22.307c-3.936,11.025 -11.327,20.196 -14.356,31.431c-2.376,9.034 -5.098,18.324 -9.682,26.414c-2.377,4.32 -4.926,7.698 -9.769,9.034c-24.555,6.706 -49.673,6.834 -74.919,7.871c-15.563,0.645 -20.19,-3.286 -29.788,-14.442c-7.392,-8.558 -15.39,-15.48 -19.023,-26.589c-7.13,-21.872 -4.494,-46.172 3.981,-67.052c4.927,-11.888 11.106,-23.731 21.396,-31.602c3.504,-2.721 7.09,-5.878 10.981,-7.906c2.983,-1.557 5.706,-0.98 8.731,-1.902c3.719,-1.117 3.935,-3.927 5.838,-6.994c2.332,-3.814 5.88,-4.065 9.249,-6.533c2.6,-1.995 2.724,-2.629 6.444,-3.205c3.46,-0.564 6.915,-1.153 10.331,-1.729c6.097,-1.06 13.359,-3.722 19.153,-1.521c4.327,1.557 8.603,3.894 12.624,6.488c3.375,2.075 6.574,4.37 9.644,6.616c8.688,6.139 16.125,13.488 22.307,22.051c3.931,5.32 7.045,11.408 11.672,16.339z" /> <path d="M765.505,487.628c3.638,-7.652 5.364,-15.136 1.169,-22.915c-2.894,-5.402 -6.484,-10.853 -10.806,-15.128c-4.105,-4.103 -8.43,-7.133 -14.094,-8.689c-4.753,-1.382 -11.152,-2.926 -15.949,-3.157c-2.467,0 -4.755,1.025 -7.22,1.256c-2.422,0.345 -4.54,-0.344 -6.959,-0.461c-3.289,0 -6.27,1.037 -9.729,0.692c-6.271,-0.518 -9.638,2.375 -8.519,5.625c-3.499,2.291 -5.794,2.812 -8.427,6.095c-5.362,6.786 -8.215,16.727 -11.456,24.771c-2.508,6.089 -1.947,10.456 -0.865,16.599c0.562,3.539 0.389,11.411 2.894,14.395c1.474,1.729 4.716,2.754 6.66,3.676c8.171,3.802 17.075,4.102 25.331,7.606c6.358,2.756 10.378,3.895 17.339,2.639c7.215,-1.207 15.43,-2.857 21.786,-6.832c8.864,-5.402 14.612,-17.161 18.847,-26.069zM780.202,427.274c16.085,23.688 23.519,54.946 19.669,83.131c-3.845,28.06 -31.341,45.049 -57.669,50.018c-31.171,5.884 -66.146,3.031 -88.368,-22.738c-12.319,-14.222 -19.598,-35.277 -19.194,-54.991c-6.439,-12.279 -1.295,-24.856 6.055,-34.975c3.975,-5.535 8.04,-11.02 11.456,-16.944c4.498,-7.776 10.2,-9.987 17.206,-14.956c7.437,-5.192 13.4,-10.976 22.222,-13.489c10.116,-2.825 20.88,-2.133 31.211,-2.594c21.442,-1.035 44.961,9.339 57.414,27.541z" /> <path d="M205.591,69.711c-0.53,-3.286 -0.818,-6.707 -0.692,-9.381c0.176,-2.247 1.44,-4.368 1.602,-6.569c0.219,-2.121 -0.716,-4.102 -0.473,-6.177c0.388,-3.376 3.199,-6.913 5.273,-9.381c6.531,-7.731 19.106,-14.312 27.325,-18.587c10.244,-5.314 22.263,-8.426 33.288,-11.631c9.985,-2.905 20.316,-5.499 30.691,-6.88c11.242,-1.498 22.658,-0.725 33.939,-0.806c10.982,-0.076 21.877,-0.651 32.813,0.041c22.869,1.384 45.959,1.429 68.74,3.504c21.094,1.859 43.833,3.413 63.287,12.231c5.883,2.675 11.676,5.532 17.38,8.644c2.248,1.208 3.244,1.427 4.326,3.283c1.206,2.073 0.906,4.414 3.025,6.095c2.074,1.614 4.412,0.773 6.616,2.42c3.806,2.804 3.46,8.774 7.262,11.931c1.469,1.21 2.765,1.509 3.934,2.812c0.953,1.174 3.071,4.496 2.379,6.143c-0.261,0.645 -3.768,1.659 -4.412,2.12c-4.368,3.025 -9.512,9.122 -13.056,13.144c-2.553,2.973 -6.182,9.035 -7.651,12.839c-1.514,4.063 -1.427,7.006 -6.399,4.022c-2.163,-1.336 -5.103,-2.846 -7.091,-4.275c-2.161,-1.683 -2.766,-4.448 -4.235,-6.661c-3.329,-5.082 -7.867,-3.699 -13.144,-4.621c-7.736,-1.382 -15.388,-6.257 -22.478,-9.507c-7.657,-3.505 -15.439,-6.695 -23.565,-8.863c-7.781,-1.992 -15.779,-4.137 -23.775,-5.059c-7.825,-0.853 -15.52,-0.392 -23.432,-1.429c-8.211,-1.036 -16.643,-3.043 -24.986,-3.504c-8.906,-0.344 -19.499,1.21 -28.275,2.939c-10.029,1.992 -19.714,5.104 -29.744,7.132c-0.99,0.115 -2.122,0.345 -3.194,0.576c-13.359,2.34 -26.111,4.277 -38.735,9.555c-9.339,3.983 -18.462,8.857 -28.191,11.762c-8.471,2.581 -17.465,2.696 -26.239,3.157c-4.671,0.219 -9.037,1.131 -10.591,-4.275c-0.562,-1.935 -1.08,-4.226 -1.518,-6.694z" /> <path d="M65.809,474.915c-2.028,0.231 -4.021,0.576 -6.049,1.037c-6.138,1.417 -8.563,5.784 -14.094,9.288c-3.371,2.168 -5.663,4.148 -8.557,6.616c-1.686,1.396 -4.194,4.68 -7.133,3.205c-4.101,-2.03 -3.606,-12.108 -3.975,-15.864c-0.818,-7.306 -2.393,-14.483 -2.681,-21.962c-0.562,-17.204 -5.344,-33.763 -5.748,-50.969c-0.045,-2.04 -0.166,-4.113 -0.207,-6.188c-0.607,-21.829 0.738,-43.531 -1.426,-65.233c-2.294,-22.567 1.296,-47.512 13.92,-66.706c8.777,-13.316 15.822,-28.578 23.088,-42.713c2.372,-4.711 3.975,-9.735 6.483,-14.356c2.419,-4.194 5.881,-7.604 7.912,-12.019c1.209,-2.903 1.728,-6.096 2.465,-9.127c2.337,-8.821 7.567,-16.643 12.019,-24.468c2.639,-4.621 5.102,-9.335 7.567,-14.094c2.461,-4.883 6.223,-10.208 7.735,-15.393c0.519,-2.027 0.519,-3.929 1.211,-5.831c1.642,-4.109 4.279,-8.386 7.045,-11.762c2.812,-3.285 5.403,-5.325 9.644,-6.131c5.319,-1.084 11.759,-0.566 14.267,4.747c2.382,4.8 2.595,11.414 1.426,16.128c-0.82,3.283 -0.472,7.479 -1.602,10.636c-1.211,3.459 -4.926,5.879 -3.5,9.854c-1.474,-0.138 -3.412,3.666 -4.368,5.313c-4.197,6.57 -6.268,14.308 -10.68,20.751c-3.802,5.747 -5.187,12.451 -8.343,18.546c-3.155,5.964 -6.915,11.593 -10.03,17.55c-5.493,10.375 -8.776,22.175 -13.144,33.031c-3.157,7.737 -4.325,15.225 -6.356,23.256c-3.243,12.845 -7.047,25.509 -11.068,38.09c-3.286,10.067 -7.433,20.062 -8.563,30.734c-1.727,15.783 6.077,30.218 5.754,45.912c-0.129,8.348 2.678,16.395 7.606,23.044c6.182,8.347 10.464,18.972 14.786,28.491c3.631,8.127 9.078,15.345 14.006,22.698c1.901,2.939 2.937,6.315 5.231,9.034c1.817,2.201 4.667,3.332 5.838,5.313c-3.415,2.202 -8.17,-0.91 -11.676,-1.602c-5.488,-1.039 -10.545,-1.039 -15.908,-0.117c-4.276,0.772 -8.556,0.887 -12.882,1.348z" /> <path d="M609.152,160.298c0.434,-0.171 -1.907,-6.67 -1.469,-6.787c0.347,-10.245 8.257,-21.27 15.778,-27.494c2.25,-1.857 6.662,-4.08 9.856,-3.504c2.425,0.347 4.242,-5.924 5.969,-4.322c-1.426,-1.154 -3.113,-1.498 -4.756,-1.037c2.335,0.817 4.972,0.472 7.22,1.509c2.856,1.258 4.322,3.849 6.315,6.143c7.521,8.995 15.819,17.602 22.909,26.89c8.213,10.504 12.105,22.994 19.281,34.069c7.436,11.672 14.825,22.997 21.831,35.06c8.646,14.784 21.401,28.577 25.807,45.568c3.766,14.396 5.148,30 7.567,44.656c3.676,22.177 7.827,44.098 12.323,66.101c2.164,10.852 3.891,21.786 5.748,32.642c0.571,3.457 1.643,6.995 1.643,10.544c-4.537,1.258 -13.616,-2.81 -17.206,-5.185c-5.878,-3.849 -12.102,-6.949 -19.408,-6.488c-8.562,0.566 -17.033,1.441 -25.552,2.594c-8.128,0.952 -9.809,-5.27 -9.165,-11.931c1.035,-10.414 2.2,-21.134 1.727,-31.644c-0.521,-13.79 -2.508,-26.843 -4.797,-40.549c-3.416,-20.666 -6.012,-41.762 -12.844,-61.691c-4.58,-13.443 -10.328,-26.802 -16.944,-39.296c-5.707,-10.764 -10.636,-21.962 -17.42,-32.081c-4.411,-6.654 -9.037,-13.441 -15.306,-18.372c-4.236,-3.412 -9.118,-5.059 -13.53,-8.171c-3.719,-2.684 -5.801,-4.841 -6.008,-9.726c0.219,0.912 0.264,1.662 0.426,2.468z" /> <path d="M675.599,530.444c-8.02,-8.401 -7.813,-7.94 -7.651,-7.479c8.432,0.079 12.969,6.775 19.975,10.498c8.948,4.795 18.802,9.899 29.308,8.689c3.114,-0.345 5.099,-2.168 6.229,1.336c0.645,2.074 -0.566,5.579 -0.566,7.825c0,6.051 -2.027,13.527 -6.094,18.458c-2.511,3.032 -4.324,5.925 -6.055,9.681c-1.297,2.986 -1.858,6.961 -3.802,9.555c-1.556,2.04 -4.021,3.283 -5.447,5.451c-3.156,4.668 -4.368,11.285 -6.7,16.344c-3.589,7.692 -8.909,13.873 -14.14,20.406c-10.935,13.399 -21.702,26.804 -32.247,40.549c-3.159,4.113 -7.007,7.353 -10.551,11.029c-6.138,6.05 -10.72,13.312 -16.644,19.455c-9.382,9.775 -26.458,11.629 -38.651,16.469c-11.28,4.535 -23.258,8.039 -33.849,14.008c-4.19,2.386 -10.805,9.716 -16.684,8.563c-1.604,-2.975 -1.557,-7.688 -2.123,-11.019c-2.679,-16.389 -6.264,-32.726 -11.928,-48.42c-1.904,-5.235 -3.849,-12.36 -6.789,-16.991c-1.599,-2.592 -4.411,-3.93 -3.025,-7.606c2.073,1.812 1.468,3.725 3.155,5.706c0.994,1.153 2.675,1.383 3.844,2.075c2.854,1.729 5.84,2.812 9.123,3.504c5.144,1.07 12.018,3.056 17.381,2.939c4.585,-0.183 9.686,-1.752 14.267,-2.558c4.97,-0.866 11.196,-0.959 16.038,-2.468c7.521,-2.292 14.959,-9.382 20.84,-14.267c3.066,-2.639 6.567,-4.795 9.682,-7.479c2.762,-2.374 6.092,-3.411 8.731,-5.531c2.977,-2.246 4.364,-5.612 6.483,-8.596c6.962,-9.509 13.487,-19.237 18.893,-29.828c4.84,-9.684 10.113,-19.024 15.257,-28.531c5.101,-9.427 11.197,-18.586 15.781,-28.231c2.374,-4.844 4.669,-9.039 7.952,-13.533z" /> <path d="M124.892,614.748c-5.879,-4.548 -12.188,-8.213 -17.852,-13.144c-2.853,-2.546 -8.04,-5.484 -9.558,-9.207c3.029,-0.647 3.59,-3.239 5.277,-5.578c4.02,-5.622 8.817,-9.725 13.444,-14.656c4.497,-4.71 6.532,-12.144 13.316,-12.063c4.798,0.128 6.661,1.258 7.956,5.406c1.513,5.01 3.025,8.907 6.394,13.229c6.054,7.567 14.831,13.272 22.873,18.503c7.953,5.276 15.003,11.032 21.787,17.681c9.599,9.383 20.144,15.734 31.084,23.259c7.866,5.445 13.013,9.767 22.307,12.406c3.628,1.036 6.961,2.154 10.244,3.975c3.762,2.075 6.828,5.163 11.196,5.969c5.147,1.048 10.549,0.472 15.778,1.509c6.399,1.292 12.668,2.939 19.238,3.631c20.793,2.19 42.454,4.277 63.506,3.112c11.631,-0.649 31.392,-0.348 37.875,-12.194c2.809,-5.193 4.496,-7.612 8.864,-11.887c-3.658,6.011 -2.297,15.562 -3.289,22.394c-0.866,4.974 -0.773,10.424 -1.903,15.393c-1.166,5.452 -4.451,10.247 -6.094,15.432c-2.984,9.73 -1.382,20.975 -2.074,30.955c-0.865,12.275 -12.321,18.15 -20.84,7.906c-7.261,-8.817 -13.486,-17.723 -25.463,-20.49c-8.948,-2.075 -17.895,1.025 -26.759,1.947c-13.75,1.429 -27.97,-2.467 -41.375,-5.451c-9.076,-1.993 -15.648,-7.304 -23.644,-11.626c-11.455,-6.272 -23.649,-10.596 -35.02,-16.991c-10.634,-5.971 -21.095,-12.327 -31.385,-19.069c-3.069,-1.994 -5.317,-3.908 -8.948,-4.369c-2.937,-0.38 -6.181,1.5 -8.906,0.081c-3.026,-1.648 -4.929,-6.614 -7.567,-9.034c-3.414,-3.122 -7.39,-5.406 -10.806,-8.39c-8.994,-7.781 -16.73,-17.25 -25.552,-25.247c-1.381,-1.165 -2.72,-2.374 -4.106,-3.411z" /></svg>