<svg xmlns="http://www.w3.org/2000/svg" viewBox="0 0 864 970" width="864" height="970"><path d="M790.255,557.21c15.803,-30.458 29.322,-64.771 35.643,-106.217c4.741,-32 4.39,-68.627 -1.229,-108.916l-7.199,-50.699c1.756,-6.747 4.565,-13.88 5.794,-20.626c58.995,75.952 57.941,186.988 -33.009,286.458zM69.143,625.837c-1.756,-10.603 -3.161,-21.398 -2.809,-32.579c18.436,10.988 38.804,20.048 61.102,26.602c-19.489,2.699 -39.33,4.241 -58.293,5.976zM501.073,407.425c12.817,23.904 51.972,31.229 77.958,11.374c99.027,-75.374 151.877,-158.651 159.427,-228.434c1.756,-15.807 -25.284,-25.252 -52.674,-20.626l-234.928,39.325c-23.703,3.855 -44.071,23.712 -36.872,36.627l87.088,161.735zM142.709,437.114c-21.245,19.469 -32.833,48 -20.718,57.06c52.674,39.517 144.328,51.083 260.913,19.662c30.727,-8.096 51.621,-45.301 43.72,-71.518l-52.323,-178.314c-4.213,-14.457 -31.253,-10.794 -49.689,6.169l-181.901,166.94zM681.922,130.991c14.574,-5.59 35.819,-15.229 34.941,-24.096c-0.175,-1.156 -0.702,-2.506 -1.931,-3.855c-57.59,-63.808 -202.445,-53.205 -202.445,-53.205c-13.521,1.156 -22.299,2.313 -33.712,3.855c-53.2,7.326 -121.502,16.772 -126.418,45.109c-0.527,2.507 -0.703,7.326 2.458,14.073c5.617,10.41 11.236,20.819 16.855,31.229c1.404,3.469 2.985,6.554 4.916,9.253c23.703,34.506 83.576,22.169 93.233,20.241l212.102,-42.602zM327.248,104.39c-1.756,-2.121 -4.39,-4.628 -8.253,-6.362c-14.223,-6.555 -31.078,5.397 -39.506,11.566c-69.531,50.892 -103.769,89.639 -103.769,89.639c-14.573,16.578 -34.239,39.518 -56.537,68.627c0,0 -50.217,72.674 -46.003,137.831c0.878,12.531 21.773,7.711 40.911,-9.06l170.665,-148.048c10.534,-7.711 59.346,-44.145 56.537,-91.181c-0.351,-3.663 -0.877,-7.711 -1.931,-11.759c-4.038,-13.687 -8.077,-27.566 -12.115,-41.253zM350.775,41.933c74.973,-29.687 161.359,-46.651 232.118,-40.675c291.991,24.867 376.797,458.795 -296.205,572.53c-205.956,34.891 -301.647,-62.459 -284.441,-180.82c20.894,-142.65 194.368,-289.928 348.528,-351.036zM636.972,600.392c3.161,-3.855 5.97,-8.289 9.131,-12.144c-1.932,-4.433 -4.214,-10.217 -5.97,-14.458c-0.878,-2.121 -2.107,-5.204 -2.985,-7.518c-11.765,6.939 -22.123,14.457 -34.59,20.626c-11.062,6.36 -23.177,10.987 -34.59,16.963c3.336,7.71 6.848,16.77 9.833,23.903c3.16,7.132 6.672,16.385 10.008,24.289c16.856,-15.421 33.185,-31.808 49.163,-51.663zM472.98,733.21c32.658,-19.47 62.156,-38.169 89.195,-59.567c-4.39,-10.603 -8.955,-21.976 -12.818,-31.229c-2.985,-7.324 -6.672,-16.577 -10.008,-24.481c-31.429,15.229 -63.736,28.916 -96.921,41.253c3.688,8.674 7.726,19.277 11.238,27.566c6.144,14.072 12.465,29.301 19.313,46.458zM329.53,811.667c38.627,-21.011 77.606,-40.674 115.532,-62.457c-7.198,-17.928 -13.694,-33.542 -19.84,-48c-4.214,-10.023 -8.604,-20.048 -13.169,-31.036c-41.086,13.879 -83.225,25.638 -126.594,35.277c6.321,15.615 12.466,29.879 18.436,43.952c8.077,18.892 16.504,39.325 25.635,62.265zM175.897,894.945c42.315,-21.205 83.576,-45.494 125.54,-68.048c-9.306,-23.326 -17.909,-43.76 -25.986,-62.844c-6.847,-16 -13.87,-32.771 -21.245,-51.084c-46.354,8.867 -93.761,16 -142.397,20.048l64.087,161.928zM294.766,652.632c222.636,-37.783 389.614,-115.856 480.74,-223.422c-0.351,4.434 -0.878,8.482 -1.405,12.53c-11.939,79.614 -54.254,132.241 -91.653,178.506c-61.453,75.952 -123.257,115.278 -204.025,162.507c-111.142,64.964 -228.43,128.194 -348.703,187.181l-111.67,-281.639c76.904,-3.277 151.527,-13.687 234.576,-32l12.642,-0.771c9.657,-0.578 19.313,-1.158 29.497,-2.892z" /></svg>