<svg xmlns="http://www.w3.org/2000/svg" viewBox="0 0 1024 1024" width="1024" height="1024"><path d="M1024,512c0,282.77 -229.23,512 -512,512c-282.77,0 -512,-229.23 -512,-512c0,-282.77 229.23,-512 512,-512c282.77,0 512,229.23 512,512zM575.994,384.002c0,35.346 28.654,64 64,64c35.346,0 64,-28.654 64,-64c0,-16.854 -6.526,-32.176 -17.174,-43.606c18.414,-9.23 39.312,-16.9 56.936,-21.35c17.146,-4.288 27.57,-21.66 23.284,-38.806c-4.286,-17.146 -21.66,-27.572 -38.806,-23.284c-1.444,0.362 -35.806,9.05 -70.548,26.422c-36.382,18.19 -79.56,49.684 -81.592,97.138c-0.062,1.154 -0.098,2.316 -0.1,3.486zM280.24,319.044c17.626,4.45 38.522,12.12 56.936,21.35c-10.648,11.43 -17.174,26.752 -17.174,43.606c0,35.346 28.654,64 64,64c35.346,0 64,-28.654 64,-64c0,-1.17 -0.036,-2.33 -0.098,-3.484c-2.032,-47.454 -45.212,-78.946 -81.592,-97.138c-34.742,-17.37 -69.102,-26.06 -70.548,-26.422c-17.146,-4.288 -34.518,6.138 -38.806,23.284c-4.284,17.144 6.14,34.518 23.282,38.804zM786.426,731.344c-55.962,-93.07 -157.918,-155.344 -274.426,-155.344c-116.51,0 -218.466,62.274 -274.426,155.344l82.328,49.396c39.174,-65.148 110.542,-108.74 192.098,-108.74c81.554,0 152.924,43.592 192.098,108.74z" /></svg>