<svg xmlns="http://www.w3.org/2000/svg" viewBox="0 0 1024 1024" width="1024" height="1024"><path d="M0,512c0,-282.77 229.23,-512 512,-512c282.77,0 512,229.23 512,512c0,282.77 -229.23,512 -512,512c-282.77,0 -512,-229.23 -512,-512zM96,512c0,229.75 186.25,416 416,416c229.75,0 416,-186.25 416,-416c0,-229.75 -186.25,-416 -416,-416c-229.75,0 -416,186.25 -416,416zM704.098,780.74c-39.174,-65.148 -110.544,-108.74 -192.098,-108.74c-81.556,0 -152.924,43.592 -192.098,108.74l-82.328,-49.396c55.96,-93.07 157.916,-155.344 274.426,-155.344c116.508,0 218.464,62.274 274.426,155.344zM767.042,280.24c4.284,17.144 -6.14,34.518 -23.282,38.804c-17.626,4.45 -38.522,12.12 -56.936,21.35c10.648,11.43 17.174,26.752 17.174,43.606c0,35.346 -28.654,64 -64,64c-35.346,0 -64,-28.654 -64,-64c0,-1.17 0.036,-2.33 0.098,-3.484c2.032,-47.454 45.212,-78.946 81.592,-97.138c34.742,-17.37 69.102,-26.06 70.548,-26.422c17.146,-4.288 34.518,6.138 38.806,23.284zM256.958,280.24c4.288,-17.146 21.66,-27.572 38.806,-23.284c1.446,0.362 35.806,9.052 70.548,26.422c36.38,18.192 79.56,49.684 81.592,97.138c0.062,1.154 0.098,2.314 0.098,3.484c0,35.346 -28.654,64 -64,64c-35.346,0 -64,-28.654 -64,-64c0,-16.854 6.526,-32.176 17.174,-43.606c-18.414,-9.23 -39.31,-16.9 -56.936,-21.35c-17.142,-4.286 -27.566,-21.66 -23.282,-38.804z" /></svg>