<svg xmlns="http://www.w3.org/2000/svg" viewBox="0 0 832 832" width="832" height="832"><path d="M360.587,830.781c-179.094,-32.77 -308.957,-151.073 -352.171,-320.815c-10.014,-39.331 -10.014,-149.636 0,-188.969c11.147,-43.78 31.971,-92.602 54.567,-127.924c17.127,-26.773 107.837,-127.704 107.837,-119.985c0,1.56 8.951,-2.697 19.895,-9.457c33.177,-20.505 70.895,-37.264 114.484,-50.872c34.25,-10.692 53.54,-12.902 111.207,-12.75c72.148,0.19 93.324,4.101 156.279,28.856c121.946,47.951 217.889,159.307 251.705,292.132c10.014,39.331 10.014,149.636 0,188.969c-19.285,75.756 -53.638,137.323 -108.7,194.815c-77.252,80.664 -170.891,122.587 -282.539,126.499c-32.233,1.129 -64.884,0.903 -72.559,-0.5zM405.238,809.296c0,-4.088 -75.921,-216.429 -85.295,-238.556l-8.706,-20.556l-133,-1.771c-73.15,-0.974 -133.944,-1.246 -135.094,-0.606c-4.894,2.722 18.932,51.883 41.881,86.417c53.347,80.271 153.023,149.809 242.074,168.88c35.729,7.65 78.139,11.012 78.139,6.193zM502.914,803.417c91.391,-19.069 190.898,-87.847 244.784,-169.19c21.844,-32.974 42.648,-73.975 42.663,-84.077c0.005,-3.328 -268.773,-1.715 -272.122,1.632c-2.249,2.249 -90.677,252.483 -90.677,256.6c0,5.811 34.646,3.529 75.35,-4.965zM456.943,665.239c20.763,-59.087 37.717,-109.314 37.675,-111.616c-0.11,-6.032 -156.357,-5.18 -156.357,0.853c0,9.766 73.963,218.217 77.423,218.205c1.93,-0.005 20.494,-48.355 41.256,-107.442zM303.398,520.133c-1.412,-3.838 -10.783,-32.092 -20.827,-62.791c-10.044,-30.699 -20.211,-57.955 -22.6,-60.572c-2.387,-2.617 -12.661,1.15 -22.83,8.372c-39.267,27.884 -155.628,117.279 -155.628,119.563c0,1.321 50.501,2.404 112.225,2.404c87.43,0 111.659,-1.54 109.658,-6.976zM528.387,455.946c12.984,-39.139 24.678,-74.077 25.982,-77.638c2.573,-7.015 -127.663,-102.364 -139.82,-102.364c-5.453,0 -122.187,83.104 -135.661,96.578c-1.028,1.028 9.618,36.229 23.657,78.227l25.525,76.359h176.703zM383.06,484.566c-16.518,-18.814 -17.486,-22.158 -13.914,-48.132c2.112,-15.351 9.987,-45.812 17.5,-67.688c7.513,-21.876 16.466,-48.002 19.896,-58.054c7.369,-21.605 16.382,-20.803 21.911,1.952c2.182,8.979 10.132,34.226 17.664,56.102c7.532,21.876 15.424,52.337 17.536,67.688c3.572,25.973 2.606,29.318 -13.914,48.132c-12.445,14.174 -22.413,20.219 -33.339,20.219c-10.926,0 -20.897,-6.045 -33.339,-20.219zM442.54,420.016c-1.782,-4.452 -3.104,-3.129 -3.373,3.373c-0.241,5.883 1.076,9.181 2.931,7.325c1.855,-1.856 2.053,-6.669 0.44,-10.697zM751.286,524.976c0,-1.174 -37.046,-30.429 -82.325,-65.014c-45.279,-34.585 -85.221,-65.125 -88.763,-67.87c-4.572,-3.543 -12.487,13.263 -27.332,58.038c-11.492,34.664 -22.051,66.165 -23.462,70.003c-2,5.436 22.229,6.976 109.659,6.976c61.724,0 112.225,-0.959 112.225,-2.133zM148.252,439.409c55.217,-42.323 100.431,-80.721 100.476,-85.325c0.108,-10.988 -69.643,-244.758 -74.469,-249.584c-5.999,-5.999 -63.525,53.92 -89.579,93.305c-48.865,73.864 -68.243,148.676 -62.788,242.412c3.826,65.734 7.869,83.089 18.414,79.045c4.153,-1.593 52.731,-37.526 107.947,-79.852zM805.453,500.597c2.441,-11.511 4.309,-53.581 4.152,-93.489c-0.263,-66.098 -1.796,-76.84 -17.219,-120.659c-9.314,-26.455 -28.48,-65.384 -42.595,-86.511c-30.608,-45.811 -85.604,-101.705 -92.482,-93.993c-2.621,2.941 -13.867,36.743 -24.991,75.115c-11.124,38.372 -27.553,94.141 -36.51,123.934l-16.286,54.164l105.974,81.184c58.285,44.65 108.122,81.184 110.748,81.184c2.626,0 6.77,-9.418 9.211,-20.93zM364.56,282.371c15.999,-11.209 29.186,-21.768 29.303,-23.47c0.275,-4.002 -184.19,-129.75 -186.608,-127.211c-1.637,1.722 51.663,185.503 60.409,208.296c2.975,7.754 8.56,5.557 35.665,-14.022c17.675,-12.77 45.229,-32.388 61.229,-43.595zM592.371,250.829c14.475,-49.117 28.411,-96.437 30.973,-105.154c3.403,-11.582 2.845,-15.148 -2.073,-13.235c-12.148,4.725 -174.88,118.278 -176.247,122.986c-1.855,6.386 112.846,92.637 117.367,88.256c2.015,-1.953 15.506,-43.738 29.981,-92.852zM527.541,163.638c58.595,-40.28 106.535,-75.412 106.535,-78.071c0,-9.332 -78.732,-44.353 -124.241,-55.264c-89.842,-21.538 -191.001,-10.055 -272.365,30.92c-21.727,10.94 -38.6,22.6 -37.498,25.91c2.494,7.483 205.626,148.94 214.544,149.403c3.568,0.186 54.429,-32.62 113.024,-72.899z" /></svg>