<svg xmlns="http://www.w3.org/2000/svg" viewBox="0 0 834 1024" width="834" height="1024"><path d="M833.906,751.226c-1.198,3.588 -21.534,73.458 -70.924,145.626c-42.71,62.398 -86.918,124.5 -156.692,125.796c-68.622,1.288 -90.656,-40.67 -169.05,-40.67c-78.394,0 -102.914,39.37 -167.756,41.958c-67.334,2.496 -118.618,-67.376 -161.626,-129.58c-88.016,-127.086 -155.194,-359.228 -64.89,-515.926c44.754,-77.842 124.896,-127.088 211.812,-128.38c66.134,-1.202 128.584,44.552 168.952,44.552c40.47,0 116.324,-55.022 196.066,-46.948c33.392,1.394 127.09,13.452 187.242,101.472c-4.784,3.09 -111.836,65.284 -110.542,194.966c1.348,154.898 135.86,206.428 137.408,207.134zM415.658,235.986c-7.774,-58.81 21.232,-120.06 54.374,-158.436c36.932,-43.26 99.332,-75.454 150.81,-77.55c6.58,60.01 -17.542,120.164 -53.28,163.522c-35.776,43.26 -94.438,76.948 -151.904,72.464z" /></svg>