<svg xmlns="http://www.w3.org/2000/svg" viewBox="0 0 967 965" width="967" height="965"><path d="M1.782,463.448c0,-13.312 1.024,-25.6 2.048,-37.888c2.048,-12.288 4.096,-24.576 6.144,-36.864c2.048,-6.144 3.071,-12.288 4.095,-16.384c1.024,-4.096 3.072,-9.216 4.096,-13.312c0,-1.024 0,-2.048 1.024,-2.048c1.024,-1.024 1.024,-2.048 1.024,-4.096c1.024,-1.024 2.048,-1.024 5.12,0c2.048,1.024 3.072,2.048 5.12,2.048c2.048,1.024 3.073,2.048 5.121,2.048c12.288,8.192 24.576,17.408 35.84,26.624c11.264,9.216 22.528,18.432 32.768,26.624c29.696,21.504 58.368,41.984 88.064,62.464c28.672,20.48 58.368,40.96 87.04,63.488c4.096,2.048 6.144,4.096 7.168,6.144c2.048,2.048 2.048,3.072 1.024,4.096c0,3.072 -1.024,7.168 -2.048,12.288c-16.384,49.152 -31.744,97.28 -47.104,143.36c-15.36,47.104 -30.72,94.208 -46.08,143.36c-1.024,1.024 -1.024,2.048 -1.024,2.048c0,1.024 -1.024,2.048 -2.048,2.048c-2.048,2.048 -4.096,3.072 -7.168,2.048c-5.12,-2.048 -9.216,-4.096 -14.336,-7.168c-4.096,-3.072 -9.216,-7.168 -13.312,-11.264c-6.144,-6.144 -11.264,-11.264 -17.408,-16.384c-6.144,-5.12 -11.264,-10.24 -17.408,-16.384c-8.192,-9.216 -15.36,-18.432 -21.504,-28.672c-6.144,-10.24 -12.288,-19.456 -17.408,-29.696c-9.216,-14.336 -17.408,-28.672 -25.6,-45.056c-8.192,-16.384 -15.36,-31.744 -21.504,-46.08c-6.144,-20.48 -12.288,-40.96 -16.384,-60.416c-4.096,-19.456 -8.192,-38.912 -11.264,-57.344c-1.024,-13.312 -2.048,-25.6 -4.096,-35.84c-2.048,-10.24 -1.024,-20.48 0,-33.792zM194.294,315.992h-136.192c-2.048,0 -5.12,0 -8.192,0c-3.072,0 -6.144,0 -10.24,-1.024c-2.048,0 -3.071,-1.024 -4.095,-4.096c-1.024,-2.048 -1.024,-4.096 -1.024,-6.144c1.024,-2.048 1.024,-3.072 1.024,-4.096c0,-1.024 0,-3.072 1.024,-4.096c7.168,-17.408 16.384,-36.864 26.624,-57.344c6.144,-10.24 13.312,-20.48 20.48,-30.72c7.168,-10.24 14.336,-20.48 21.504,-31.744c30.72,-34.816 63.488,-65.536 99.328,-90.112c35.84,-24.576 75.776,-45.056 120.832,-60.416c12.288,-4.096 24.576,-8.192 37.888,-11.264c13.312,-3.072 26.624,-6.144 41.984,-8.192c8.192,-2.048 16.384,-3.072 24.576,-4.096c8.192,-1.024 18.432,-1.024 29.696,-1.024l4.096,4.096v10.24c-2.048,4.096 -3.072,7.168 -4.096,10.24c-1.024,3.072 -2.048,6.144 -2.048,10.24c-14.336,37.888 -26.624,74.752 -38.912,111.616c-12.288,36.864 -24.576,74.752 -37.888,112.64c-2.048,6.144 -5.12,13.312 -7.168,19.456c-2.048,6.144 -4.096,13.312 -6.144,19.456c-4.096,10.24 -10.24,16.384 -19.456,17.408h-18.432c-23.552,0 -47.104,0 -69.632,0c-22.528,0 -44.032,0 -65.536,-1.024zM253.687,372.312h72.704c6.144,0 10.24,0 12.288,1.024c3.072,0 5.12,3.072 5.12,10.24c-5.12,15.36 -10.24,30.72 -16.384,45.056c-6.144,14.336 -12.288,30.72 -18.432,48.128c0,2.048 -1.024,3.072 -2.048,4.096c-2.048,1.024 -3.072,0 -5.12,-1.024c-2.048,-1.024 -3.072,-1.024 -3.072,-2.048c0,0 -1.024,-1.024 -3.072,-2.048c-5.12,-3.072 -9.216,-6.144 -14.336,-10.24c-4.096,-3.072 -9.216,-6.144 -14.336,-10.24c-18.432,-14.336 -34.816,-26.624 -50.177,-36.864c-15.361,-10.24 -31.744,-21.504 -48.128,-32.768c-2.048,-2.048 -4.096,-6.144 -4.096,-10.24v-2.048c2.048,0 3.072,0 4.096,-1.024c1.024,-1.024 2.048,-1.024 4.096,-1.024h80.896v1.024zM429.815,964.184l-4.096,-4.096c-10.24,-3.072 -19.456,-5.12 -26.624,-6.144c-64.512,-11.264 -122.88,-34.816 -176.128,-68.608l-4.096,-4.096c-2.048,-2.048 -2.048,-4.096 0,-6.144c2.048,-1.024 3.072,-2.048 4.096,-2.048c1.024,-1.024 2.048,-2.048 4.096,-2.048c39.936,-30.72 80.896,-60.416 121.856,-90.112c40.96,-29.696 81.92,-59.392 120.832,-90.112c2.048,-1.024 6.144,-3.072 11.264,-6.144h4.096c2.048,1.024 3.072,2.048 5.12,3.072c2.048,1.024 3.072,3.072 5.12,4.096c26.624,19.456 52.224,38.912 78.848,57.344c26.624,18.432 51.2,36.864 75.776,56.32c14.336,10.24 29.696,20.48 44.032,31.744c14.336,11.264 29.696,22.528 44.032,31.744c4.096,2.048 6.144,5.12 7.168,7.168c1.024,2.048 1.024,3.072 0,4.096c-2.048,1.024 -4.096,3.072 -7.168,6.144c-18.432,13.312 -37.888,24.576 -56.32,32.768c-18.432,9.216 -38.912,16.384 -61.44,22.528c-14.336,5.12 -30.72,9.216 -51.2,12.288c-5.12,1.024 -9.216,2.048 -14.336,2.048c-5.12,0 -9.216,2.048 -14.336,4.096c-1.024,0 -1.024,1.024 -2.048,2.048c0,1.024 -1.024,2.048 -2.048,2.048zM428.791,647.768v4.096c-1.024,2.048 -3.072,5.12 -7.168,7.168c-9.216,6.144 -19.456,13.312 -31.744,20.48c-12.288,7.168 -22.528,14.336 -31.744,22.528c-9.216,8.192 -18.432,15.36 -28.672,22.528c-10.24,7.168 -20.48,13.312 -30.72,20.48c-2.048,2.048 -3.072,3.072 -4.096,3.072c-1.024,0 -3.072,1.024 -4.096,2.048c-2.048,2.048 -3.072,2.048 -4.096,0c-2.048,0 -2.048,-1.024 -2.048,-4.096c0,-2.048 1.024,-6.144 2.048,-11.264c5.12,-18.432 10.24,-35.84 15.36,-51.2c5.12,-15.36 11.264,-32.768 17.408,-50.176c2.048,-6.144 5.12,-13.312 8.192,-19.456c3.072,-6.144 5.12,-12.288 7.168,-19.456c1.024,-2.048 2.048,-5.12 4.096,-8.192c2.048,-3.072 3.072,-4.096 5.12,-2.048c1.024,2.048 1.024,2.048 2.048,2.048c1.024,0 1.024,0 2.048,1.024c12.288,9.216 25.6,17.408 38.912,26.624c14.336,8.192 26.624,18.432 38.912,28.672c1.024,0 1.024,1.024 1.024,2.048c1.024,1.024 1.024,2.048 2.048,3.072zM477.943,370.264c11.264,0 23.552,0 34.816,0c12.288,0 22.528,0 31.744,1.024c9.216,2.048 15.36,8.192 18.432,19.456c1.024,1.024 1.024,1.024 1.024,2.048c0,1.024 0,1.024 1.024,2.048c1.024,2.048 2.048,5.12 2.048,7.168c1.024,2.048 2.048,5.12 2.048,8.192c4.096,10.24 9.216,22.528 14.336,34.816c5.12,12.288 9.216,23.552 13.312,34.816c2.048,6.144 3.072,11.264 5.12,17.408c2.048,6.144 4.096,13.312 5.12,22.528c0,3.072 -1.024,5.12 -2.048,6.144c-3.072,3.072 -6.144,5.12 -7.168,6.144c-5.12,4.096 -11.264,8.192 -17.408,11.264c-7.168,3.072 -13.312,7.168 -17.408,11.264c-6.144,5.12 -13.312,10.24 -20.48,15.36c-7.168,5.12 -13.312,12.288 -20.48,20.48c-6.144,2.048 -11.264,3.072 -14.336,5.12c-3.072,2.048 -6.144,4.096 -8.192,5.12c-6.144,5.12 -12.288,6.144 -18.432,5.12c-2.048,0 -5.12,-1.024 -8.192,-2.048c-2.048,-2.048 -4.096,-3.072 -6.144,-4.096c-2.048,-1.024 -4.096,-2.048 -6.144,-4.096c-17.408,-13.312 -32.768,-24.576 -48.128,-35.84c-15.36,-11.264 -30.72,-20.48 -48.128,-30.72l-2.048,-2.048c-2.048,-2.048 -3.072,-7.168 -2.048,-14.336c2.048,-6.144 5.12,-13.312 7.168,-20.48c2.048,-7.168 4.096,-14.336 7.168,-20.48c4.096,-14.336 9.216,-28.672 14.336,-40.96c6.144,-12.288 10.24,-24.576 14.336,-35.84l2.048,-7.168c2.048,-8.192 6.144,-12.288 10.24,-13.312c3.072,-1.024 7.168,-1.024 12.288,-1.024c8.192,-1.024 17.408,-1.024 26.624,-1.024c9.216,-2.048 17.408,-2.048 23.552,-2.048zM481.015,312.92c-6.144,-1.024 -14.336,-1.024 -23.552,0c-9.216,1.024 -18.432,0 -26.624,-1.024c-2.048,0 -4.096,-2.048 -4.096,-6.144c0,-1.024 0,-1.024 1.024,-2.048c1.024,-1.024 1.024,-1.024 1.024,-3.072c1.024,-2.048 2.048,-7.168 4.096,-13.312c6.144,-21.504 13.312,-41.984 21.504,-62.464c8.192,-20.48 15.36,-41.984 21.504,-63.488c2.048,-2.048 3.072,-5.12 3.072,-7.168c0,-2.048 1.024,-5.12 3.072,-7.168c0,-3.072 1.024,-4.096 4.096,-1.024c1.024,0 1.024,0 1.024,1.024c0,1.024 0,1.024 1.024,1.024c1.024,2.048 1.024,3.072 1.024,3.072c0,0 0,1.024 1.024,3.072c6.144,18.432 11.264,37.888 17.408,56.32c6.144,18.432 12.288,37.888 20.48,57.344c2.048,6.144 5.12,13.312 7.168,20.48c2.048,7.168 4.096,13.312 7.168,20.48c0,1.024 0,2.048 -1.024,4.096c-1.024,2.048 -2.048,2.048 -2.048,2.048c-2.048,0 -3.072,0 -5.12,1.024c-2.048,0 -3.072,1.024 -5.12,1.024h-48.128zM773.879,315.992h-98.304c-6.144,0 -14.336,0 -22.528,0c-8.192,0 -16.384,0 -23.552,-1.024c-2.048,0 -5.12,0 -7.168,-1.024c-2.048,-1.024 -5.12,-1.024 -7.168,-1.024c-4.096,-2.048 -7.168,-4.096 -10.24,-7.168c-2.048,-1.024 -4.096,-2.048 -5.12,-5.12c-2.048,-3.072 -3.072,-6.144 -3.072,-9.216c0,-3.072 -1.024,-5.12 -3.072,-8.192c-11.264,-30.72 -21.504,-60.416 -30.72,-90.112c-9.216,-29.696 -18.432,-59.392 -26.624,-88.064c-4.096,-14.336 -9.216,-28.672 -16.384,-44.032c-7.168,-15.36 -12.288,-29.696 -16.384,-44.032c-1.024,-2.048 -1.024,-3.072 -1.024,-4.096c0,-1.024 0,-3.072 -1.024,-5.12c0,-3.072 1.024,-5.12 4.096,-5.12c1.024,0 1.024,0 1.024,-1.024c0,-1.024 0,-1.024 1.024,-1.024c11.264,0 21.504,0 29.696,1.024c8.192,0 17.408,1.024 25.6,3.072c22.528,3.072 43.008,8.192 62.464,14.336c19.456,6.144 37.888,13.312 57.344,22.528c65.536,32.768 120.832,73.728 165.888,123.904c10.24,11.264 20.48,23.552 28.672,35.84c8.192,12.288 17.408,24.576 25.6,36.864c6.144,11.264 11.264,22.528 15.36,32.768c4.096,10.24 9.216,20.48 13.312,30.72v7.168c0,1.024 -1.024,3.072 -2.048,6.144c-2.048,0 -4.096,0 -6.144,1.024zM681.719,749.144c-2.048,2.048 -3.072,2.048 -4.096,2.048c-2.048,0 -4.096,-1.024 -6.144,-2.048c-23.552,-15.36 -46.08,-31.744 -67.584,-47.104c-21.504,-16.384 -43.008,-30.72 -63.488,-45.056l-2.048,-5.12c-2.048,-2.048 -2.048,-4.096 0,-7.168c1.024,-1.024 3.072,-3.072 6.144,-7.168c11.264,-8.192 23.552,-16.384 35.84,-23.552c12.288,-8.192 24.576,-15.36 35.84,-23.552c2.048,-2.048 3.072,-2.048 4.096,-2.048c3.072,-4.096 6.144,-4.096 7.168,1.024c1.024,2.048 2.048,5.12 4.096,8.192c18.432,45.056 34.816,92.16 49.152,142.336c1.024,1.024 1.024,5.12 1.024,9.216zM714.487,372.312h81.92c3.072,0 5.12,0 6.144,1.024c0,1.024 0,1.024 1.024,1.024c0,0 1.024,0 1.024,1.024l-1.024,2.048c-2.048,4.096 -3.072,7.168 -5.12,9.216c-2.048,2.048 -4.096,4.096 -5.12,5.12c-21.504,12.288 -41.984,24.576 -60.416,37.888c-19.456,13.312 -37.888,27.648 -57.344,43.008l-5.12,5.12c-6.144,2.048 -9.216,1.024 -11.264,-4.096c-6.144,-16.384 -12.288,-31.744 -17.408,-47.104c-5.12,-14.336 -10.24,-28.672 -15.36,-43.008v-5.12c0,-4.096 1.024,-7.168 2.048,-8.192c2.048,-1.024 5.12,-1.024 7.168,-1.024c2.048,0 4.096,1.024 5.12,1.024h73.728zM966.391,480.856c-2.048,101.376 -30.72,192.512 -86.016,271.36c-11.264,18.432 -24.576,35.84 -38.912,51.2c-14.336,15.36 -29.696,29.696 -45.056,44.032c-1.024,2.048 -2.048,3.072 -4.096,4.096c-2.048,1.024 -3.072,2.048 -5.12,4.096c-1.024,2.048 -2.048,2.048 -4.096,1.024c-2.048,-1.024 -3.072,-2.048 -4.096,-2.048c-2.048,-2.048 -4.096,-5.12 -4.096,-8.192c-6.144,-18.432 -12.288,-35.84 -17.408,-53.248c-5.12,-17.408 -11.264,-34.816 -16.384,-52.224c-9.216,-28.672 -18.432,-57.344 -28.672,-87.04c-10.24,-29.696 -19.456,-58.368 -28.672,-87.04c-2.048,-6.144 -3.072,-12.288 -5.12,-16.384c0,-3.072 1.024,-6.144 4.096,-8.192c2.048,-2.048 3.072,-3.072 4.096,-4.096c1.024,-1.024 3.072,-2.048 4.096,-4.096c18.432,-14.336 36.864,-26.624 53.248,-38.912c16.384,-12.288 34.816,-23.552 53.248,-34.816c21.504,-17.408 43.008,-33.792 64.512,-49.152c21.504,-15.36 44.032,-32.768 66.56,-50.176c2.048,-1.024 3.072,-2.048 4.096,-2.048c1.024,-1.024 3.072,-2.048 4.096,-2.048c4.096,-2.048 7.168,-2.048 8.192,2.048c2.048,5.12 3.072,10.24 5.12,16.384c2.048,6.144 3.072,13.312 5.12,21.504c3.072,14.336 6.144,28.672 7.168,44.032c3.072,12.288 4.096,26.624 4.096,39.936z" /></svg>