<svg xmlns="http://www.w3.org/2000/svg" viewBox="0 0 893 960" width="893" height="960"><path d="M156.139,494.754c68.105,85.253 171.739,135.504 281.5,135.504c109.673,0 213.263,-50.252 281.367,-135.504c-67.973,-85.298 -171.563,-135.638 -281.367,-135.638c-109.894,0 -213.483,50.34 -281.5,135.638zM437.639,693.514c-137.929,0 -267.614,-67.532 -346.871,-180.599c-7.626,-10.888 -7.626,-25.346 0,-36.234c79.081,-113.199 208.766,-180.819 346.871,-180.819c138.017,0 267.658,67.62 346.783,180.819c7.626,10.888 7.583,25.346 -0.044,36.234c-79.257,113.067 -208.854,180.599 -346.739,180.599z" /> <path d="M389.151,510.266c10.314,-78.815 64.489,-124.44 77.229,-134.623c-2.513,-0.133 -4.98,-0.353 -7.538,-0.353c-75.246,0 -136.474,57.657 -136.474,128.54c0,53.514 34.911,99.446 84.37,118.798c-8.375,-18.117 -24.509,-59.598 -17.588,-112.362zM604.793,494.705c0,92.349 -74.849,167.198 -167.198,167.198c-92.349,0 -167.198,-74.849 -167.198,-167.198c0,-92.305 74.849,-167.154 167.198,-167.154c92.349,0 167.198,74.849 167.198,167.154z" /> <path d="M464.692,229.397c-21.864,-1.233 -38.218,-1.145 -60.611,0.398l-17.544,-223.358l113.772,-6.436l-35.618,229.396z" /> <path d="M356.598,235.11c-21.775,3.438 -43.243,8.243 -63.961,14.326l-63.653,-128.408l90.85,-22.922l36.763,137.003z" /> <path d="M92.757,363.102c-9.08,8.508 -17.851,17.368 -26.184,26.493l-66.783,-26.405l12.916,-43.904l80.05,43.816z" /> <path d="M169.466,304.356c-11.991,7.45 -23.76,15.472 -35.089,23.892l-69.075,-51.222l38.703,-43.728z" /> <path d="M252.669,262.914c-12.74,4.937 -25.259,10.315 -37.381,16.178l-111.878,-136.077l55.586,-42.67l93.671,162.57z" /> <path d="M806.922,388.745c-7.803,-8.464 -15.913,-16.707 -24.289,-24.597l97.683,-53.426l12.872,43.904l-86.266,34.118z" /> <path d="M733.755,323.553c-10.269,-7.362 -21.069,-14.503 -32.267,-21.291l79.037,-85.781l38.659,43.728z" /> <path d="M651.964,275.895c-11.726,-5.424 -23.54,-10.405 -35.265,-14.813l101.254,-175.662l55.542,42.67l-121.531,147.803z" /> <path d="M569.433,246.026c-20.586,-5.51 -41.302,-9.742 -61.845,-12.563l40.334,-150.315l90.85,22.922l-69.339,139.958z" /> <path d="M636.491,733.293c13.709,-5.818 27.198,-12.21 40.158,-19.131l96.846,117.784l-55.586,42.67l-81.417,-141.323z" /> <path d="M518.487,767.153c23.451,-3.747 46.682,-9.168 69.295,-16.133l50.958,102.929l-90.806,22.922l-29.446,-109.718z" /> <path d="M819.188,699.83l-38.703,43.728l-54.616,-59.288c12.168,-8.42 24.114,-17.5 35.663,-27.198z" /> <path d="M893.21,605.434l-12.916,43.904l-70.441,-38.528c8.199,-9.125 16.222,-18.779 23.98,-28.873z" /> <path d="M104.01,726.733l-38.703,-43.728l41.656,-30.901c12.299,10.624 25.126,20.631 38.262,29.888z" /> <path d="M190.842,710.684c13.358,7.362 27.465,14.238 42.143,20.63l-74.012,128.363l-55.542,-42.67l87.413,-106.323z" /> <path d="M400.773,772.348c25.743,1.939 44.301,2.029 70.397,0.176l29.138,187.476l-113.772,-6.392l14.238,-181.26z" /> <path d="M12.669,640.74l-12.872,-43.904l39.938,-15.781c8.111,10.624 16.751,20.939 25.699,30.813z" /> <path d="M274.456,747.255c23.099,7.713 46.99,13.841 71.235,18.249l-25.875,96.449l-90.806,-22.922l45.447,-91.778z" /></svg>