<svg xmlns="http://www.w3.org/2000/svg" viewBox="0 0 916 960" width="916" height="960"><path d="M321.963,953.711c-27.355,-8.197 -44.061,-25.347 -48.495,-49.786c-2.102,-11.582 -2.922,-69.768 -1.823,-129.303l1.997,-108.244l11.928,26.408c6.561,14.525 13.53,24.806 15.489,22.848c1.959,-1.958 -4.17,-18.101 -13.619,-35.872c-16.482,-30.999 -17.181,-37.047 -17.181,-148.919c0,-89.045 2.592,-124.634 10.967,-150.563c10.112,-31.309 10.112,-35.669 0,-55.939c-8.939,-17.919 -10.967,-45.412 -10.967,-148.733c0,-114.555 1.239,-128.282 12.885,-142.663c12.698,-15.682 13.09,-15.727 27.061,-3.083c7.796,7.056 14.176,18.446 14.176,25.311c0,6.865 3.044,12.482 6.765,12.482c3.721,0 6.765,11.998 6.765,26.662c0,14.664 2.636,28.291 5.857,30.282c6.98,4.313 1.881,37.625 -7.594,49.609c-4.464,5.647 -4.313,8.456 0.453,8.456c3.926,0 8.902,-5.561 11.06,-12.358c2.161,-6.809 15.275,-15.734 29.208,-19.877c19.429,-5.778 20.585,-6.813 4.99,-4.471c-16.933,2.543 -21.697,0.008 -28.752,-15.298c-4.651,-10.09 -8.456,-27.887 -8.456,-39.548c0,-11.661 -1.858,-23.06 -4.129,-25.33c-2.271,-2.271 -5.222,-18 -6.557,-34.954l-2.428,-30.826l86.049,0.101c90.507,0.107 104.984,3.537 102.766,24.335c-3.563,33.41 1.596,37.659 11.399,9.388c5.806,-16.744 11.546,-31.508 12.755,-32.809c1.209,-1.301 13.047,1.215 26.308,5.591c38.336,12.652 44.449,27.322 44.449,106.69c0,68.119 -0.383,69.843 -16.913,76.128c-9.926,3.773 -16.913,11.79 -16.913,19.404c0,7.136 -4.567,14.726 -10.147,16.868c-5.932,2.276 -10.147,12.413 -10.147,24.402c0,18.409 -2.139,20.508 -20.902,20.508c-13.51,0 -25.267,-5.383 -33.244,-15.222c-6.787,-8.372 -14.187,-13.385 -16.443,-11.139c-2.256,2.246 -4.801,22.789 -5.656,45.652c-0.964,25.753 -4.497,41.574 -9.288,41.583c-10.194,0.017 -17.167,18.756 -8.885,23.874c9.742,6.021 7.37,38.65 -3.893,53.542c-11.433,15.115 -13.048,30.842 -3.168,30.842c3.721,0 6.765,-7.432 6.765,-16.514c0,-9.082 3.33,-18.572 7.401,-21.087c4.073,-2.517 6.274,-16.386 4.895,-30.843c-1.669,-17.502 0.245,-26.27 5.731,-26.27c12.582,0 17.868,-13.035 9.416,-23.219c-4.626,-5.573 -5.826,-19.868 -3.1,-36.912c4.577,-28.624 11.854,-35.5 18.696,-17.669c2.444,6.369 12.789,10.147 27.785,10.147c15.91,0 23.89,3.148 23.89,9.424c0,5.183 4.33,11.086 9.623,13.117c5.293,2.031 10.967,10.729 12.609,19.328c2.629,13.766 3.096,13.386 3.907,-3.181c0.546,-11.156 -3.21,-20.402 -9.227,-22.711c-14.315,-5.493 -14.315,-63.334 0,-63.334c6.182,0 10.147,-6.302 10.147,-16.124c0,-10.434 4.775,-17.373 13.531,-19.662c13.352,-3.492 13.531,-0.208 13.531,248.477c0,238.04 -0.705,252.653 -12.715,263.523c-6.994,6.329 -14.738,24.155 -17.21,39.613c-2.472,15.458 -8.167,32.579 -12.654,38.046c-4.536,5.526 -8.16,29.712 -8.16,54.457c0,40.576 -1.305,44.703 -14.733,46.615c-11.63,1.657 -15.335,-1.907 -17.591,-16.913l-2.857,-19.011l-1.013,19.237c-0.74,14.046 2.638,20.193 12.517,22.777c7.961,2.082 13.726,9.479 14.006,17.971c0.261,7.938 2.955,20.522 5.986,27.964c6.217,15.263 7.782,-2.54 8.179,-93.022c0.127,-28.837 2.484,-52.431 5.239,-52.431c8.045,0 20.712,-32.788 20.712,-53.612c0,-10.532 4.567,-22.939 10.147,-27.571c8.948,-7.427 10.147,4.362 10.147,99.727c0,106.416 -0.272,108.422 -16.957,125.107c-9.327,9.327 -28.354,18.842 -42.283,21.143c-36.956,6.109 -211.474,4.154 -234.083,-2.621zM342.381,860.389c-6.179,-6.827 -11.587,-18.262 -12.019,-25.411c-0.652,-10.808 -1.293,-11.071 -3.802,-1.56c-3.137,11.894 17.267,49.172 23.502,42.937c1.954,-1.954 -1.503,-9.139 -7.682,-15.966zM348.314,770.437c2.497,-7.864 10.327,-12.727 20.497,-12.727c13.457,0 16.457,-3.403 16.457,-18.668c0,-11.994 -5.404,-22.043 -15.115,-28.108c-14.734,-9.202 -14.777,-9.572 -1.691,-14.682c22.891,-8.94 36.022,-6.725 40.315,6.803c2.269,7.148 16.063,19.219 30.653,26.824c23.152,12.067 27.774,12.581 36.32,4.035c5.386,-5.386 8.185,-15.934 6.222,-23.441c-2.426,-9.277 -0.266,-13.649 6.734,-13.649c6.973,0 9.159,-4.374 6.765,-13.531c-1.958,-7.489 -9.228,-13.531 -16.28,-13.531c-15.501,0 -15.964,-7.594 -2.186,-35.854l10.555,-21.652l-13.787,16.913c-17.617,21.611 -17.854,40.873 -0.558,45.397c15.767,4.123 18.249,15.49 3.382,15.49c-12.017,0 -12.5,3.26 -3.091,20.841c17.737,33.143 -33.729,17.115 -65.748,-20.476c-11.815,-13.872 -16.417,-15.611 -23.34,-8.822c-4.743,4.651 -14.103,8.456 -20.8,8.456c-16.391,0 -15.489,18.047 1.353,27.061c17.481,9.355 18.08,33.826 0.829,33.826c-6.986,0 -16.296,4.33 -20.689,9.622c-4.393,5.292 -17.338,12.883 -28.767,16.867l-20.781,7.244l3.86,-23.784c2.289,-14.104 1.269,-22.183 -2.505,-19.851c-7.98,4.931 -8.154,43.957 -0.25,56.433c3.247,5.128 9.29,7.231 13.427,4.675c4.137,-2.556 7.522,-0.959 7.522,3.551c0,10.594 25.407,-18.593 30.698,-35.266zM525.004,679.617c6.089,-15.867 -0.485,-17.73 -9.818,-2.783c-5.227,8.369 -5.676,13.222 -1.222,13.222c3.869,0 8.838,-4.698 11.041,-10.44zM403.93,553.868c-6.802,-11.515 -6.813,-15.03 -0.059,-17.477c13.978,-5.062 9.563,-19.554 -8.456,-27.765c-9.302,-4.238 -16.913,-5.082 -16.913,-1.875c0,3.207 6.263,7.469 13.92,9.472c11.933,3.121 12.746,5.519 5.697,16.806c-8.768,14.041 -4.383,35.254 7.289,35.254c4.407,0 3.855,-5.385 -1.478,-14.414zM374.347,461.363c-3.931,-2.588 -10.6,-10.795 -14.82,-18.236c-4.899,-8.64 -7.747,-10.055 -7.879,-3.915c-0.245,11.486 20.644,36.06 26.054,30.65c2.086,-2.086 0.576,-5.91 -3.355,-8.498zM345.817,404.35c-5.02,-5.02 -5.901,-2.379 -2.958,8.874c2.392,9.148 5.459,12.215 7.147,7.147c1.627,-4.881 -0.261,-12.091 -4.19,-16.022zM349.108,258.24c-6.158,-6.804 -11.197,-16.445 -11.197,-21.424c0,-4.979 -2.034,-7.017 -4.521,-4.531c-5.783,5.783 11.404,38.326 20.242,38.326c3.668,0 1.632,-5.568 -4.526,-12.372zM441.314,250.963c12.912,-21.859 15.187,-41.239 4.841,-41.239c-3.721,0 -6.765,7.029 -6.765,15.62c0,19.461 -12.705,36.375 -30.443,40.529c-10.929,2.559 -10.234,3.32 3.615,3.953c12.218,0.56 20.481,-4.861 28.752,-18.863zM400.732,201.304c-1.477,-2.77 -9.367,-8.542 -17.531,-12.824c-14.54,-7.627 -14.593,-7.502 -2.565,6.057c7.992,9.009 9.764,15.398 5.074,18.297c-3.963,2.45 -7.206,7.318 -7.206,10.82c0,3.502 5.606,1.038 12.457,-5.473c6.851,-6.512 11.248,-14.106 9.772,-16.877zM216.789,877.563c-18.414,-9.33 -16.344,-6.011 -58.953,-94.483c-17.472,-36.278 -33.807,-65.962 -36.3,-65.962c-2.493,0 -24.738,-22.893 -49.432,-50.872c-36.94,-41.854 -47.343,-59.074 -58.677,-97.134c-16.586,-55.693 -17.26,-85.014 -3.023,-131.481c16.157,-52.732 22.817,-63.574 50.17,-81.675c13.776,-9.116 43.759,-33.899 66.627,-55.072c46.647,-43.187 49.931,-55.035 27.462,-99.077c-15.376,-30.139 -13.694,-63.424 4.642,-91.894c10.414,-16.168 58.047,-49.025 71.075,-49.025c10.46,0 2.34,39.537 -11.189,54.487c-9.278,10.252 -8.93,14.919 3.463,46.36c16.065,40.758 17.303,88.723 3.754,145.461c-7.356,30.801 -16.222,46.932 -38.66,70.341c-16.013,16.705 -34.111,35.683 -40.218,42.172c-12.94,13.75 -22.67,73.091 -15.698,95.752c5.975,19.421 31.959,47.368 67.505,72.602c15.323,10.879 33.355,32.16 41.35,48.804c12.878,26.81 13.944,38.8 11.625,130.853c-2.802,111.258 -7.016,124.286 -35.522,109.844zM638.635,874.806c-9.991,-9.991 -11.04,-23.525 -8.261,-106.552c1.837,-54.916 6.724,-102.52 11.561,-112.647c8.335,-17.448 70.736,-60.262 87.832,-60.262c18.24,0 87.258,-43.464 98.062,-61.755c6.145,-10.402 13.02,-38.697 15.277,-62.877c6.615,-70.834 -17.415,-92.925 -74.934,-68.892c-41.722,17.433 -57.814,60.604 -31.111,83.467c31.22,26.731 6.287,38.844 -31.957,15.525c-31.179,-19.011 -43.992,-53.26 -35.222,-94.154c5.556,-25.905 12.96,-37.276 37.786,-58.028c27.607,-23.077 35.768,-26.159 77.087,-29.116c41.383,-2.961 49.497,-1.38 77.674,15.132c39.87,23.365 52.243,50.958 53.197,118.627c0.583,41.406 -2.922,59.808 -19.056,100.035c-16.561,41.294 -27.757,56.882 -68.97,96.031c-40.356,38.333 -51.082,53.073 -59.669,81.987c-20.524,69.111 -79.31,154.923 -106.131,154.923c-6.446,0 -16.87,-5.15 -23.165,-11.444z" /></svg>