<svg xmlns="http://www.w3.org/2000/svg" viewBox="0 0 712 988" width="712" height="988"><path d="M160.901,65.382c-2.73,0 -4.779,-0.341 -6.144,-1.024c-1.365,-0.683 -3.072,-1.024 -5.12,-1.024l-4.096,-1.024c-3.053,0 -6.106,1.365 -9.159,4.096c-0.361,0.322 -0.721,0.664 -1.081,1.024c-3.414,3.413 -5.12,7.851 -5.12,13.312c0.486,9.733 1.06,19.509 1.72,29.328c0.096,1.427 0.193,2.855 0.293,4.283c0.025,0.346 0.049,0.704 0.074,1.05l0.01,0.136c1.122,15.935 2.471,31.983 4.048,48.146c2.73,24.576 4.096,52.224 4.096,82.944c0,30.72 -1.366,58.368 -4.096,82.944c-2.731,27.988 -4.779,54.956 -6.144,80.896c-0.683,8.876 -1.024,22.528 -1.024,40.96c0,19.116 9.558,28.672 28.672,28.672c5.462,0 13.653,-4.436 24.576,-13.312c7.509,-7.508 25.94,-20.14 55.296,-37.888c20.48,-12.288 43.692,-18.432 69.632,-18.432c11.604,0 23.552,1.024 35.84,3.072c49.836,7.508 90.796,30.38 122.88,68.608c33.452,39.596 50.516,91.476 51.2,155.648c0,67.584 -16.384,119.808 -49.152,156.672c-33.452,38.228 -74.752,61.1 -123.904,68.608c-6.144,0.684 -15.36,1.024 -27.648,1.024c-41.644,0 -77.14,-13.996 -106.496,-41.984c-28.672,-27.988 -43.008,-61.78 -43.008,-101.376c0,-54.506 21.81,-91.143 65.43,-109.915c0.073,-0.029 0.143,-0.062 0.216,-0.091c0.976,-0.417 1.964,-0.827 2.962,-1.229c0.399,-0.157 0.797,-0.318 1.196,-0.472c3.562,-1.393 7.259,-2.669 11.092,-3.836c1.349,-0.413 2.714,-0.808 4.096,-1.192h1.024c11.604,-1.364 17.408,-9.216 17.408,-23.552c0,-13.802 -5.804,-21.537 -17.408,-23.208c-0.336,-0.048 -0.677,-0.091 -1.024,-0.128c-1.298,-0.143 -2.662,-0.216 -4.096,-0.216c-0.139,0 -0.282,0 -0.421,0c-2.896,-0.018 -5.797,-0.205 -8.693,-0.563c-1.057,-0.132 -2.117,-0.285 -3.174,-0.461h-11.264c-0.669,0 -1.338,0.003 -2.004,0.007c-44.177,0.362 -81.396,12.647 -111.66,36.857c-35.498,28.672 -53.931,74.068 -55.296,136.192c0,73.728 27.306,125.952 81.92,156.672c55.979,31.404 123.564,47.104 202.752,47.104c83.968,0 158.72,-31.744 224.256,-95.232c61.44,-59.392 92.16,-128.684 92.16,-207.872v-9.216c-0.684,-4.78 -1.024,-7.508 -1.024,-8.192c0,-98.304 -29.696,-176.128 -89.088,-233.472c-60.756,-59.392 -133.804,-89.429 -219.136,-90.112c-30.541,1.454 -60.047,5.834 -88.525,13.141c-0.337,0.087 -0.677,0.175 -1.017,0.263c-1.181,0.306 -2.359,0.616 -3.533,0.932c-9.037,2.427 -17.967,5.151 -26.792,8.172c-1.005,0.344 -2.011,0.692 -3.013,1.044c-2.732,1.365 -6.484,2.048 -11.264,2.048c-6.828,0 -10.24,-3.755 -10.24,-11.264c1.364,-4.096 2.048,-12.288 2.048,-24.576v-65.536c-0.684,-2.048 -1.024,-6.485 -1.024,-13.312c0,-6.827 6.144,-10.24 18.432,-10.24c25.26,-2.048 62.804,-3.072 112.64,-3.072c44.372,0 93.184,1.707 146.432,5.12c4.096,1.365 7.168,2.048 9.216,2.048h1.024c8.876,0 16.724,-0.341 23.552,-1.024c10.24,-1.365 18.772,-8.875 25.6,-22.528c7.461,-15.71 16.845,-31.42 28.149,-47.13c5.354,-7.44 11.136,-14.881 17.353,-22.322c0.099,-0.118 0.197,-0.237 0.296,-0.355c1.423,-1.697 2.863,-3.393 4.33,-5.09c2.019,-2.34 4.085,-4.681 6.192,-7.022c4.78,-5.461 7.168,-10.923 7.168,-16.384c0,-2.731 -1.024,-5.12 -3.072,-7.168c-4.096,-6.144 -11.948,-9.216 -23.552,-9.216c-4.166,1.389 -7.98,3.042 -11.44,4.961c-0.18,0.1 -0.359,0.201 -0.538,0.302c-3.131,1.779 -5.965,3.779 -8.503,6.001c-2.165,1.855 -4.747,3.5 -7.753,4.935c-3.628,1.733 -7.87,3.16 -12.727,4.281c-0.358,0.053 -0.717,0.104 -1.075,0.156c-32.505,4.675 -69.354,7.012 -110.541,7.012c-6.828,0 -17.748,-0.341 -32.768,-1.024c-15.7,-0.683 -27.308,-1.024 -34.816,-1.024c-37.076,-2.575 -82.311,-5.926 -135.702,-10.055c-13.407,-1.037 -27.328,-2.122 -41.763,-3.257c-4.179,-0.329 -8.401,-0.662 -12.666,-0.998c-0.111,-0.008 -0.222,-0.017 -0.333,-0.026v1.024l-6.144,-2.048zM359.508,25.888c8.639,0.053 20.532,0.432 35.204,1.07l0.106,0.004c14.928,0.679 24.788,0.968 30.277,0.968c37.932,0 71.15,-2.088 99.862,-6.049c10.909,-8.64 23.036,-14.674 35.368,-18.784c5.592,-1.864 11.451,-2.815 17.346,-2.815c18.158,0 47.173,4.526 66.399,29.723c9.293,11.142 15.082,25.498 15.082,41.518c0,22.599 -10.134,40.384 -20.74,52.508l-0.512,0.574c-21.764,24.182 -37.274,47.139 -47.543,68.759c-0.157,0.334 -0.318,0.666 -0.486,0.996c-10.833,21.668 -31.613,47.598 -67.416,52.371c-0.592,0.08 -1.192,0.149 -1.788,0.209c-9.077,0.907 -18.812,1.296 -29.012,1.296h-1.024c-7.051,0 -13.623,-1.221 -18.776,-2.542c-13.484,-0.836 -26.653,-1.558 -39.508,-2.166c64.537,14.963 122.305,47.033 172.284,95.85c71.372,68.976 105.095,161.041 105.713,269.779l0.08,0.618l0.399,2.856c0.369,2.567 0.552,5.189 0.552,7.786v9.187c0,95.319 -37.697,178.494 -108.891,247.314c-74.785,72.434 -162.886,110.647 -262.382,110.647c-86.415,0 -163.706,-17.159 -229.591,-54.118l-0.056,-0.029c-75.245,-42.327 -109.883,-115.119 -109.883,-204.485c0,-0.402 0.004,-0.805 0.013,-1.207c1.585,-72.115 23.497,-135.519 75.671,-177.66l0.2,-0.161c12.287,-9.83 25.32,-18.103 39.009,-24.883c-6.23,-3.324 -12.302,-7.669 -17.93,-13.297c-18.695,-18.695 -23.235,-42.284 -23.235,-60.295c0,-18.293 0.32,-33.438 1.133,-44.464c1.411,-26.628 3.512,-54.202 6.294,-82.719l0.076,-0.731c2.462,-22.152 3.761,-47.728 3.761,-76.886c0,-29.158 -1.3,-54.734 -3.761,-76.886l-0.076,-0.731c-2.812,-28.826 -4.925,-57.337 -6.335,-85.531c-0.045,-0.913 -0.068,-1.826 -0.068,-2.74c0,-17.927 6.101,-37.016 21.187,-52.102c9.392,-9.392 25.935,-21.187 49.029,-21.187c4.441,0 8.865,0.54 13.176,1.606c3.013,0.392 6.231,1.015 9.574,1.966c1.517,0.207 3.026,0.476 4.521,0.809c76.124,6.007 138.339,10.691 186.694,14.058zM227.086,501.02h8.565c3.021,0 6.038,0.249 9.019,0.746c1.155,0.194 2.234,0.278 3.269,0.278c16.603,0 38.974,4.465 56.539,22.828c17.127,17.905 20.846,39.87 20.846,55.581c0,13.645 -2.629,32.384 -15.093,49.247c-12.818,17.338 -30.724,25.647 -47.455,28.328c-16.538,5.226 -25.151,12.373 -30.139,19.226c-5.584,7.673 -10.737,20.655 -10.737,43.487c0,24.514 8.163,44.149 26.24,61.897c18.802,17.825 40.558,26.606 68.407,26.606c10.701,0 17.239,-0.288 20.626,-0.592c35.492,-5.695 64.804,-21.921 89.64,-50.308l0.282,-0.322c20.967,-23.585 35.251,-60.95 35.299,-119.932c-0.629,-54.389 -14.888,-92.891 -38.246,-120.539l-0.117,-0.135c-23.398,-27.882 -52.275,-44.09 -89.033,-49.627l-0.845,-0.135c-9.523,-1.587 -18.45,-2.326 -26.821,-2.326c-16.852,0 -30.131,3.866 -41.34,10.573c-14.156,8.565 -25.11,15.547 -33.126,21.04c-2.318,1.59 -4.22,2.947 -5.778,4.081z" /></svg>