<svg xmlns="http://www.w3.org/2000/svg" viewBox="0 0 1171 976" width="1171" height="976"><path d="M566.351,892.517c-2.837,-7.264 -16.454,-9.589 -24.114,-15.397c-25.818,-19.178 -51.068,-39.22 -77.169,-58.105c-10.213,-7.555 -21.278,-16.267 -32.91,-18.3c-44.825,-8.134 -73.195,-31.957 -85.111,-77.861c-2.553,-9.874 -16.171,-22.366 -25.817,-23.819c-54.472,-8.425 -104.971,-23.241 -149.797,-58.974c-13.334,-10.749 -36.031,-9.006 -54.188,-13.654c-59.861,-15.397 -91.921,-52.872 -101.85,-115.041c-2.837,-17.722 -9.93,-34.571 -14.753,-51.711v-153.098c10.213,-20.336 16.171,-44.448 31.208,-59.845c52.485,-54.907 91.069,-128.406 173.627,-146.417c4.823,-1.162 7.944,-8.715 12.767,-11.039c32.059,-15.978 63.267,-34.571 96.744,-45.61c53.052,-17.43 107.807,-29.341 161.995,-43.576h224.411c29.791,9.296 59.297,20.626 89.366,27.889c56.174,13.654 113.204,24.113 145.54,81.924c2.838,4.939 7.38,11.621 11.637,11.911c30.069,3.777 -1.317,31.876 47.44,31.876c48.765,18.492 134.978,127.323 149.168,198.788c6.81,34.571 19.288,66.818 26.383,100.517v20.916c-2.267,10.749 -5.39,21.499 -6.524,32.538c-3.123,28.47 1.419,59.845 -8.799,85.119c-27.801,67.688 -60.423,133.633 -93.052,199.001c-38.019,76.398 -117.167,91.217 -184.978,119.106c-29.506,12.2 -67.803,2.033 -106.101,2.033c-4.257,40.383 -43.974,47.646 -76.603,63.62c-11.63,-0.578 -22.975,-0.578 -34.321,-0.578h-0.008c-41.704,-15.104 -76.316,-38.057 -94.19,-82.213z" /></svg>