<svg xmlns="http://www.w3.org/2000/svg" viewBox="0 0 928 620" width="928" height="620"><path d="M928.081,619.915h-928.163l464.128,-619.829zM464.047,587.963c26.653,0 52.562,-2.666 77.851,-7.996c25.289,-5.33 49.276,-13.08 71.9,-23.244c22.655,-10.291 43.234,-22.655 61.86,-37.281c19.028,-14.659 35.485,-30.991 49.276,-49.276c-5.798,-31.952 -16.456,-61.27 -31.952,-87.892c-15.124,-26.621 -34.246,-49.4 -57.272,-68.522c-23.121,-19.493 -49.277,-34.865 -78.564,-45.991c-29.286,-11.033 -60.402,-16.612 -93.098,-16.612c-33.284,0 -64.648,5.578 -93.935,16.612c-29.286,11.126 -55.566,26.498 -78.563,45.991c-22.655,19.122 -41.777,41.902 -57.272,68.522c-15.124,26.622 -25.661,55.94 -31.239,87.892c13.574,18.285 29.907,34.619 48.564,49.276c18.996,14.628 39.948,26.994 62.572,37.281c22.655,10.165 46.61,17.913 71.931,23.244c25.29,5.332 51.322,7.996 77.944,7.996zM330.876,396.932c0,-19.989 3.286,-38.616 9.949,-55.94c7.002,-17.665 16.703,-33.285 28.666,-46.611c12.242,-13.326 26.653,-23.617 42.613,-31.239c16.24,-7.996 33.564,-11.994 51.942,-11.994c18.037,0 35.239,3.998 51.227,11.994c16.334,7.624 30.62,17.913 42.613,31.239c11.963,13.326 21.293,28.946 27.956,46.611c7.037,17.324 10.66,35.95 10.66,55.94c0,19.958 -3.628,38.958 -10.66,56.528c-6.669,17.293 -15.992,33.037 -27.956,46.611c-11.994,13.791 -26.279,24.328 -42.613,31.952c-15.991,7.5 -33.192,11.374 -51.227,11.374c-18.378,0 -35.704,-3.874 -51.942,-11.374c-15.961,-7.624 -30.371,-18.161 -42.613,-31.952c-11.963,-13.574 -21.663,-29.318 -28.666,-46.611c-6.669,-17.574 -9.949,-36.57 -9.949,-56.528z" /></svg>