<svg xmlns="http://www.w3.org/2000/svg" viewBox="0 0 903 802" width="903" height="802"><path d="M617,337.2l-40,32l-243.3,-303.9c-6.039,13.56 -7.891,16.347 -16.2,37.6c-16.745,42.834 -33.972,96.042 -37,130.7l-51,-4.4c4.002,-45.81 22.803,-100.243 40.3,-145c17.497,-44.757 34.1,-79.3 34.1,-79.3l43.1,-4.9zM847.7,241.4c0,0 -80.981,69.835 -166.4,144.5c-42.71,37.332 -86.49,75.932 -121.8,107.5c-35.31,31.568 -63.347,57.618 -69.7,64.5l-37.6,-34.8c11.646,-12.617 37.635,-36.104 73.2,-67.9c35.565,-31.796 79.51,-70.398 122.3,-107.8c51.573,-45.08 68.865,-59.907 100.4,-87.2c-53.316,9.563 -100.56,19.846 -167.2,24.8l-3.8,-51c95.19,-7.076 249,-37.1 249,-37.1zM450.7,252.7l4.6,51c-132.616,12.001 -295.811,-4.129 -372.2,-12.5c28.685,30.576 67.447,67.646 113.5,96.4l-27.2,43.5c-95.636,-59.713 -168.7,-156 -168.7,-156l23.4,-41c0,0 270.953,32.685 426.6,18.6zM442.9,364.8c0.445,17.612 -4.935,31.32 -8.1,42.3c-3.165,10.98 -3.958,18.469 -3.2,21.8c0.758,3.331 1.462,6.852 15.2,14l-23.6,45.4c-22.262,-11.583 -37.296,-29.187 -41.6,-48.1c-4.304,-18.913 0.515,-34.865 4.1,-47.3c3.585,-12.435 6.117,-22.168 6,-26.8c-0.117,-4.632 1.001,-4.841 -7.3,-10.6l29.2,-42.1c18.699,12.973 28.855,33.788 29.3,51.4zM363,378.8c-24.9,0 -28.4,10.906 -28.4,21.2c0,10.294 3.5,21.2 28.4,21.2v51.2c-47.1,0 -79.6,-35.866 -79.6,-72.4c0,-36.534 32.5,-72.4 79.6,-72.4zM550.6,400c0,36.534 -32.501,72.4 -79.6,72.4v-51.2c24.898,0 28.4,-10.906 28.4,-21.2c0,-10.294 -3.502,-21.2 -28.4,-21.2v-51.2c47.099,0 79.6,35.866 79.6,72.4zM261.9,340.4c-11.579,48.199 -8.211,87.055 -12.6,133.1l20.6,-28.8c0,0 242.649,164.543 539.4,206.4c-18.965,-18.818 -23.287,-22.783 -48.3,-48.1c-27.465,-27.799 -55.899,-57.047 -79.5,-82.2c-23.601,-25.153 -41.589,-44.914 -51.6,-59.5l42.2,-29c4.988,7.268 23.714,28.897 46.8,53.5c23.086,24.603 51.315,53.584 78.6,81.2c54.57,55.232 105.4,105.1 105.4,105.1l-19.3,43.8c-344.424,-18.862 -624.543,-217.115 -635.9,-225.2c-9.14,113.698 -12.689,190.871 -7.7,234.5c39.853,-41.473 112.398,-117.056 140.5,-146.3l37,35.5c-36,37.463 -180,187.3 -180,187.3l-43.8,-13.7c0,0 -37.109,-228.436 18.4,-459.5z" /></svg>