<svg xmlns="http://www.w3.org/2000/svg" viewBox="0 0 663 858" width="663" height="858"><path d="M331.609,0.143c76.46,0 150.868,38.912 223.232,116.736c71.68,75.776 107.52,179.54 107.52,311.296c-0.684,132.436 -35.84,236.884 -105.472,313.344c-69.632,77.14 -145.068,115.712 -226.304,115.712c-80.556,0 -155.648,-41.984 -225.28,-125.952c-69.632,-83.968 -104.448,-185.004 -104.448,-303.104c0,-117.42 35.84,-218.112 107.52,-302.08c71.68,-83.968 145.408,-125.952 221.184,-125.952zM326.489,61.583c-60.076,0.683 -103.424,36.864 -130.048,108.544c-26.624,71.68 -41.984,158.036 -46.08,259.072c0,5.46 0,11.604 0,18.432c-0.683,8.876 -1.024,14.336 -1.024,16.384c0,85.332 15.701,161.452 47.104,228.352c34.816,69.632 78.508,104.448 131.072,104.448c51.2,-4.096 92.16,-38.912 122.88,-104.448c30.72,-65.536 49.152,-153.26 55.296,-263.168c0,-6.828 0.34,-14.676 1.024,-23.552c0,-12.972 0,-20.48 0,-22.528c0,-88.748 -13.652,-161.451 -40.96,-218.112c-31.404,-67.584 -77.484,-101.376 -138.24,-101.376z" /></svg>