<svg xmlns="http://www.w3.org/2000/svg" viewBox="0 0 714 912" width="714" height="912"><path d="M309.375,849.197c-20.673,-34.545 -37.591,-66.56 -37.591,-71.15c0,-11.381 14.292,-38.155 25.209,-47.213c7.507,-6.229 12.981,-5.289 34.048,5.895l25.102,13.309l64.124,-32c72.153,-36.004 109.752,-62.306 163.334,-114.26c20.265,-19.65 43.16,-39.982 50.871,-45.172c16.712,-11.26 38.922,-11.935 52.535,-1.593c20.338,15.442 33.7,70.119 23.575,96.493c-4.04,10.524 -120.692,106.057 -189.777,155.412c-57.947,41.404 -158.036,103.082 -167.273,103.082c-3.611,0 -23.478,-28.262 -44.152,-62.805zM340.953,718.112c-3.739,-3.733 -6.806,-11.199 -6.806,-16.563c0,-12.815 -37.608,-44.623 -78.606,-66.476c-39.068,-20.824 -83.359,-66.025 -108.707,-110.944c-10.131,-17.952 -22.519,-34.142 -27.524,-35.975c-5.005,-1.836 -17.977,-10.539 -28.817,-19.351c-10.84,-8.812 -25.116,-16.018 -31.72,-16.018c-19.095,0 -31.048,-18.724 -36.73,-57.52c-2.898,-19.811 -9.123,-48.547 -13.827,-63.857c-10.067,-32.746 -11.003,-65.481 -2.407,-84.352c10.168,-22.315 42.305,-36.026 77.296,-32.984c6.677,0.538 100.63,121.031 114.047,146.215c9.293,17.436 8.199,44.431 -2.143,53.014c-4.812,3.991 -20.192,7.086 -34.177,6.868c-27.132,-0.402 -52.199,-17.542 -82.114,-56.121c-15.659,-20.199 -22.363,-19.518 -22.363,2.276c0,24.395 55.611,71.807 94.416,80.493c35.831,8.02 52.01,1.206 67.174,-28.07c7.63,-14.756 10.144,-16.049 19.641,-10.122c8.867,5.546 12.876,5.008 21.574,-2.868c5.877,-5.319 16.933,-9.667 24.568,-9.667c18.234,0 37.033,-13.61 47.948,-34.712c6.39,-12.36 12.203,-16.531 21.23,-15.247c11.061,1.567 12.616,5.668 14.114,37.2c1.475,30.987 3.102,35.43 12.933,35.43c12.066,0 13.879,-3.27 18.987,-34.243c5.038,-30.526 52.667,-88.092 91.943,-111.108l24.451,-14.332l16.729,11.905c18.135,12.91 27.524,7.716 18.048,-9.992c-4.607,-8.612 -1.641,-14.779 15.874,-33.004c16.906,-17.594 20.595,-24.972 17.139,-34.301c-7.369,-19.918 -13.774,-19.18 -36.604,4.189c-13.94,14.278 -27.052,22.441 -36.047,22.441c-7.774,0 -21.012,6.601 -29.43,14.657c-22.08,21.152 -77.639,26.254 -95.155,8.748c-6.636,-6.631 -12.058,-18.096 -12.058,-25.462c0,-10.63 5.197,-15.387 25.134,-22.999c18.553,-7.086 33.373,-19.669 56.596,-48.055c19.799,-24.196 39.906,-42.265 54.235,-48.725c14.668,-6.616 22.771,-13.997 22.771,-20.747c0,-8.574 4.448,-10.471 24.386,-10.471c22.786,0 27.797,3.187 76.411,48.546c58.282,54.383 67.635,73.434 61.018,124.226c-4.704,36.136 -36.54,131.979 -62.491,188.14c-10.976,23.762 -19.964,47.593 -19.964,52.955c0,5.357 6.469,19.288 14.385,30.941l14.385,21.193l-37.951,34.872c-68.2,62.668 -111.727,94.276 -173.194,125.77c-62.295,31.919 -76.899,35.905 -88.611,24.193zM242.367,368.076c-16.286,-3.376 -23.082,-11.73 -92.625,-113.938c-45.639,-67.073 -51.423,-87.102 -31.032,-107.492c7.413,-7.42 18.895,-11.343 33.169,-11.343c42.558,0 51.873,7.299 98.631,77.355c55.418,83.024 64.685,112.355 45.018,142.435c-6.469,9.894 -34.752,16.8 -53.162,12.975zM332.299,281.29c-7.568,-10.137 -38.56,-55.826 -68.867,-101.536c-58.91,-88.851 -60.281,-93.622 -33.998,-118.316c10.525,-9.894 22.505,-13.9 46.766,-15.653l32.61,-2.359l10.537,21.847c5.794,12.011 18.838,41.114 28.984,64.664l18.439,42.815l-16.107,9.241c-36.658,21.038 -19.874,63.905 35.096,89.653l29.145,13.651l-16.282,6.95c-30.126,12.868 -51.111,9.401 -66.319,-10.956zM371.654,140.717c-18.839,-22.392 -27.455,-52.32 -25.165,-87.431c1.617,-24.779 4.144,-29.712 21.101,-41.102c23.392,-15.715 41.167,-16.149 72.858,-1.753c33.27,15.102 39.676,31.207 26.316,66.182c-11.302,29.588 -56.826,81.375 -71.538,81.375c-4.976,0 -15.581,-7.769 -23.569,-17.263z" /></svg>