<svg xmlns="http://www.w3.org/2000/svg" viewBox="0 0 628 880" width="628" height="880"><path d="M240.995,879.983c-18.719,-112.255 -21.633,-106.063 -21.134,-154.83c-1.36,-21.615 -6.506,-16.61 -24.87,-32.422c-25.919,-13.219 12.345,-56.806 3.427,-59.046c-8.083,14.599 -7.729,-6.499 -60.06,9.627c-52.195,16.121 -105.227,1.71 -73.811,-131.807c-10.286,2.593 -16.823,-7.56 -18.72,-21.794c-2.244,-18.194 8.434,-22.14 17.528,-28.467c6.672,-4.655 -62.087,-11.337 -62.831,-33.654c-0.355,-17.657 25.041,-55.441 36.551,-70.207c28.332,-36.556 40.859,-55.583 64.714,-77.723c5.846,-5.491 -15.287,-12.697 -20.602,-21.44c-13.223,-21.31 10.642,-53.908 20.079,-72.627c9.451,-18.541 7.38,-31.06 10.982,-58.345c3.955,-29.701 49.073,-80.84 93.362,-98.504c106.059,-42.397 256.759,-42.22 348.234,29.878c64.844,51.141 73.508,149.997 73.635,235.274c0.135,139.009 -104.043,200.783 -97.491,266.689c8.921,93.06 13.052,57.34 31.593,104.527c-150.039,48.242 -215.245,142.791 -320.599,214.889z" /></svg>