<svg xmlns="http://www.w3.org/2000/svg" viewBox="0 0 565 867" width="565" height="867"><path d="M528.813,10.383c3.412,-0.683 9.556,-1.024 18.432,-1.024c11.604,0 17.408,4.096 17.408,12.288c0,4.779 -1.024,8.875 -3.072,12.288c-63.488,131.755 -120.492,261.12 -171.008,388.096c-53.932,134.484 -94.548,274.432 -121.856,419.84c-2.732,16.384 -10.924,24.576 -24.576,24.576c-0.684,0 -1.708,0 -3.072,0c-2.048,-0.684 -3.756,-1.024 -5.12,-1.024c-21.844,-3.412 -40.96,-5.12 -57.344,-5.12c-17.748,0 -36.864,1.708 -57.344,5.12c-7.509,0 -12.288,-2.388 -14.336,-7.168c-2.048,-4.096 -3.072,-7.852 -3.072,-11.264c0,-0.684 0.342,-1.708 1.024,-3.072c0,-1.364 0,-2.048 0,-2.048c35.499,-114.688 84.308,-231.084 146.432,-349.184c73.728,-140.628 132.78,-254.635 177.152,-342.016c2.048,-4.096 3.072,-7.509 3.072,-10.24c0,-9.557 -6.828,-14.336 -20.48,-14.336c-32.768,-3.413 -65.876,-5.12 -99.328,-5.12c-39.596,0 -70.316,1.024 -92.16,3.072c-73.728,4.779 -120.832,25.259 -141.312,61.44c-12.288,25.259 -30.72,37.888 -55.296,37.888c-9.558,0 -16.384,-3.754 -20.48,-11.264c-1.365,-2.048 -2.048,-5.12 -2.048,-9.216c0,-7.509 1.707,-13.312 5.12,-17.408c12.97,-20.48 26.624,-44.715 40.96,-72.704c11.605,-23.211 21.162,-47.787 28.672,-73.728c2.731,-10.923 10.581,-20.139 23.552,-27.648c12.971,-7.509 24.235,-11.264 33.792,-11.264h6.144c43.008,2.048 108.204,5.12 195.584,9.216c10.924,0 27.308,0.341 49.152,1.024c21.844,0.683 38.228,1.024 49.152,1.024c43.008,0 75.436,-0.683 97.28,-2.048z" /></svg>