<svg xmlns="http://www.w3.org/2000/svg" viewBox="0 0 946 929" width="946" height="929"><path d="M460.186,0.375l12.813,9.625l12.813,-9.625l140.187,186.875h223.313v16l15.625,3.562l-52.562,229l133.438,177.875l-194.313,87.5l-52.25,227.438l-226.25,-101.938l-226.25,101.938l-52.25,-227.438l-194.312,-87.5l133.437,-177.937l-52.562,-228.938l15.625,-3.562v-16h223.312l140.187,-186.875zM360.125,187.25h136.813c-11.084,-45.241 -22.786,-87.423 -31.813,-140zM529.625,187.25h56.25l-80.688,-107.625c7.444,38.753 15.861,73.138 24.438,107.625zM220.062,320.562l75.938,-101.312h-162.188c34.091,32.672 62.815,66.262 86.25,101.312zM336.064,219.252l-97.812,130.437c8.444,14.147 19.534,28.881 26.375,42.375c16.493,32.529 28.416,62.525 36.313,87.187c6.469,20.202 8.613,33.81 9.813,46.438c22.706,6.756 41.125,24.4 41.125,49.188c0,30.163 -24.776,54.938 -54.938,54.938c-30.163,0 -55,-24.777 -55,-54.938c0,-23.216 16.606,-39.502 37.125,-47.5c-0.957,-8.236 -2.564,-19.642 -8.562,-38.375c-7.336,-22.909 -18.721,-51.499 -34.438,-82.5c-4.759,-9.388 -12.803,-19.691 -18.375,-29.438l-49.5,66.062l54,235.5l250.812,113l250.813,-113l54,-235.5l-110.188,-146.938l-100.938,39c22.484,70.614 45.726,136.226 66.375,195.438v0.125l0.062,0.125c21.235,63.706 -1.978,114.064 -41.438,128.938c-35.566,13.407 -77.163,-7.91 -101.375,-53.25c-4.733,1.325 -9.013,3.813 -14.125,3.813c-30.165,0 -54.938,-24.839 -54.938,-55c0,-30.163 24.776,-54.938 54.938,-54.938c30.161,0 54.938,24.774 54.938,54.938c0,13.283 -10.07,21.76 -18,31.312c17.568,41.168 46.391,51.051 67.25,43.188c21.673,-8.17 40.097,-35.71 22.375,-88.875c-20.279,-58.143 -43.441,-123.836 -65.938,-194.313l-117.875,45.562c0.424,2.732 3.062,4.47 3.062,7.313c0,30.165 -24.839,54.938 -55,54.938c-30.163,0 -54.938,-24.776 -54.938,-54.938c0,-30.161 24.774,-54.938 54.938,-54.938c15.835,0 29.56,7.206 39.625,18.062l119.875,-46.25c-8.446,-27.765 -14.332,-66.575 -22.313,-97.188h-168.125zM556.376,304.875l91.312,-35.25l-37.75,-50.375h-73c7.023,26.543 12.047,61.239 19.438,85.625zM649.939,219.25l28.562,38.062l91.062,-38.062h-119.625zM826.813,230.001l-128.5,53.75l88.875,118.562l39.625,-172.313zM158.75,402.25l40.812,-54.312c-20.309,-31.568 -45.213,-61.496 -74.312,-91.5zM344.062,399.563c0,12.872 10.067,22.938 22.938,22.938c12.867,0 23,-10.068 23,-22.938c0,-12.866 -10.135,-22.938 -23,-22.938c-12.87,0 -22.938,10.071 -22.938,22.938zM49.812,600.938l135.75,61.187l-42.562,-185.5zM802.999,476.625l-42.562,185.5l135.75,-61.187l-93.187,-124.313zM453.249,555.376c0,12.867 10.068,23 22.938,23c4.241,0 8.124,-1.109 11.5,-3.062c6.858,-3.967 11.438,-11.314 11.438,-19.938c0,-12.87 -10.071,-22.938 -22.938,-22.938c-12.872,0 -22.938,10.067 -22.938,22.938zM273.938,574.876c0,12.867 10.132,22.938 23,22.938c12.866,0 22.938,-10.073 22.938,-22.938c0,-12.87 -10.071,-22.938 -22.938,-22.938c-12.869,0 -23,10.067 -23,22.938zM231.124,717.688l38.063,165.75l164.875,-74.313l-202.937,-91.438zM714.876,717.686l-202.938,91.438l164.875,74.313l38.062,-165.75z" /></svg>