<svg xmlns="http://www.w3.org/2000/svg" viewBox="0 0 952 959" width="952" height="959"><path d="M441.594,869.644c-18.928,-50.529 -35.137,-91.717 -36.022,-91.531c-0.885,0.186 -11.566,11.224 -23.739,24.526c-12.173,13.302 -33.387,36.269 -47.144,51.037l-25.013,26.853l2.222,-70.349c1.223,-38.692 1.544,-70.349 0.715,-70.349c-0.829,0 -40.372,17.653 -87.873,39.23c-47.501,21.578 -86.892,38.717 -87.534,38.091c-0.642,-0.626 15.53,-39.266 35.939,-85.866c20.408,-46.599 37.748,-86.353 38.528,-88.342c1.05,-2.672 -16.178,-3.236 -65.976,-2.161l-67.397,1.456l9.486,-8.507c5.217,-4.679 27.392,-26.019 49.279,-47.424l39.793,-38.917l-68.249,-25.965c-116.683,-44.393 -112.925,-42.752 -105.996,-46.275c3.371,-1.716 44.139,-17.788 90.596,-35.719l84.467,-32.603l-33.877,-32.002c-18.633,-17.601 -40.992,-38.791 -49.688,-47.089l-15.809,-15.087l67.188,1.012c36.953,0.558 67.188,0.663 67.188,0.234c0,-0.428 -17.622,-40.644 -39.16,-89.372c-21.538,-48.728 -38.862,-88.595 -38.498,-88.595c0.364,0 38.972,17.202 85.796,38.228c46.824,21.026 86.963,38.98 89.195,39.902c3.272,1.35 3.632,-11.731 1.855,-67.372l-2.205,-69.048l36.322,37.841c19.977,20.813 41.799,43.979 48.494,51.482c8.675,9.722 12.817,12.446 14.415,9.486c1.233,-2.286 16.727,-42.497 34.429,-89.359c17.702,-46.862 32.976,-86.483 33.942,-88.045c0.968,-1.563 17.147,37.28 35.957,86.318c18.81,49.038 34.776,89.735 35.479,90.438c1.122,1.122 31.286,-30.23 78.941,-82.052l14.998,-16.309l-2.046,68.856c-1.986,66.819 -1.868,68.788 3.973,66.573c3.31,-1.256 42.982,-18.99 88.161,-39.41c45.179,-20.42 82.496,-36.772 82.928,-36.34c0.432,0.432 -15.601,37.691 -35.631,82.797c-20.03,45.106 -37.146,84.888 -38.035,88.404c-1.592,6.287 -0.515,6.379 64.151,5.449l65.768,-0.947l-96.829,93.941l88.707,34.529c48.787,18.991 88.716,35.37 88.727,36.398c0.014,1.027 -25.235,11.547 -56.101,23.377c-30.866,11.83 -70.839,27.197 -88.827,34.147l-32.706,12.636l97.029,94.257l-65.847,-1.319c-65.837,-1.319 -65.847,-1.317 -64.112,5.387c0.952,3.688 18.042,43.674 37.972,88.858c19.93,45.184 35.848,82.541 35.372,83.018c-0.475,0.475 -35.596,-14.969 -78.045,-34.322c-42.449,-19.353 -82.022,-37.257 -87.939,-39.788l-10.76,-4.601l3.556,140.472l-7.162,-7.547c-3.939,-4.15 -24.653,-26.471 -46.029,-49.602c-21.376,-23.131 -39.839,-40.915 -41.026,-39.522c-1.187,1.395 -16.882,40.949 -34.882,87.902c-18,46.953 -33.685,86.516 -34.861,87.92c-1.176,1.402 -17.625,-38.791 -36.554,-89.32zM527.274,696.88c10.434,-2.465 31.776,-10.814 47.426,-18.555c115.072,-56.914 158.084,-181.418 102.727,-297.353c-24.518,-51.35 -61.341,-89.203 -109.051,-112.102c-33.715,-16.182 -53.591,-20.573 -93.272,-20.601c-38.91,-0.036 -65.582,6.966 -105.92,27.772c-34.159,17.621 -77.526,60.33 -94.346,92.914c-32.202,62.383 -32.371,137.183 -0.455,201.539c49.655,100.123 150.567,150.556 252.889,126.386z" /></svg>