<svg xmlns="http://www.w3.org/2000/svg" viewBox="0 0 836 928" width="836" height="928"><path d="M407.602,918.035c-44.961,-26.262 -7.8,-95.675 39.485,-74.146c31.923,14.523 35.356,58.741 5.616,74.517c-24.081,12.852 -22.086,12.852 -45.1,-0.369zM431.125,719.955c0,-68.161 -34.243,-102.774 -124.304,-125.602c-36.285,-9.093 -63.613,-29.185 -128.527,-94.469c-67.789,-67.789 -88.622,-82.823 -115.997,-83.379c-67.419,-1.624 -79.947,-14.291 -38.789,-39.485c52.384,-32.062 58.555,-29.928 136.506,45.285c98.042,94.654 194.273,133.073 233.805,93.355c34.057,-34.057 22.644,-169.265 -16.146,-190.469c-112.194,-61.293 -176.549,-118.922 -232.369,-208.287c-52.386,-83.519 -8.68,-76.651 68.531,10.903c67.975,76.651 144.256,123.236 172.883,105.466c25.566,-16.1 30.483,-101.846 7.8,-136.274c-29.371,-44.961 -17.028,-91.917 25.008,-96.093c79.018,-7.425 116.926,31.737 80.503,83.565c-28.627,40.971 -22.69,131.96 9.785,146.622c50.715,23.2 119.246,-16.657 156.411,-90.989c30.81,-61.433 32.247,-62.685 78.461,-65.237c46.955,-2.876 46.955,-2.876 18.699,15.219c-15.775,9.976 -37.723,39.347 -48.951,65.423c-28.627,66.537 -107.323,136.321 -153.721,136.321c-52.896,0 -101.475,79.018 -94.051,152.793c12.152,118.736 4.734,116.74 159.845,39.347c125.091,-62.547 144.998,-65.099 192.697,-25.38c24.824,20.648 24.824,20.648 -17.214,21.019c-112.936,0.881 -339.503,137.574 -339.503,204.621c0,30.809 -10.168,56.931 -21.948,56.931c-5.249,0 -9.418,-9.605 -9.418,-21.204zM675.836,715.039c-14.152,-21.576 -14.894,-29.185 -3.8,-42.409c35.496,-42.78 72.291,-41.667 92.612,2.552c25.567,56.189 -54.564,92.056 -88.807,39.857zM129.344,711.048c-19.905,-13.038 -7.049,-60.179 20.508,-74.842c32.247,-17.214 74.657,13.224 70.295,50.761c-3.433,30.067 -59.067,44.915 -90.803,24.081z" /></svg>