<svg xmlns="http://www.w3.org/2000/svg" width="145.301" height="145.3"><path d="m52.998 5.221.004.034c.296 2.402 3.728 30.418 5.657 54.034-18.437-.461-36.682-1.313-39.405-1.443l-.058-.003a7 7 0 0 0-.656-.012 5.27 5.27 0 0 0-4.479 2.863L.504 87.123a4.57 4.57 0 0 0 4.401 6.645c.11-.008.207-.02.315-.033l.034-.004c2.433-.301 31.171-3.821 54.977-5.734.59 19.437.576 39.866.573 41.702v.019a6.7 6.7 0 0 0 .631 2.916 6.6 6.6 0 0 0 3.049 3.133c5.147 2.555 18.376 8.994 22.067 9.521.52.074.975-.203 1.358-.563a4.18 4.18 0 0 0 1.311-2.821c.012-.22.001-.427-.011-.644l-.004-.07c-.184-3.49-1.687-32.441-1.998-54.664 19.669-.615 40.63-.6 42.492-.598h.02c.09 0 .17.001.261-.002a6.7 6.7 0 0 0 2.654-.628 6.6 6.6 0 0 0 3.133-3.049c2.555-5.147 8.994-18.377 9.522-22.068.074-.52-.203-.975-.563-1.358a4.18 4.18 0 0 0-2.821-1.311 6 6 0 0 0-.644.011l-.07.004c-3.442.182-31.668 1.647-53.766 1.985.455-18.725 1.333-37.493 1.464-40.258l.003-.057a5.3 5.3 0 0 0-.256-2.115 5.28 5.28 0 0 0-2.596-3.021L59.611.504a4.572 4.572 0 0 0-6.646 4.401c.009.111.021.207.034.315z"/></svg>