<svg xmlns="http://www.w3.org/2000/svg" viewBox="0 0 772 1000" width="772" height="1000"><path d="M383.489,0h2.389c89.203,0 176.012,45.397 260.437,136.192c83.627,88.406 125.44,209.465 125.44,363.179c-0.798,154.509 -41.814,276.365 -123.051,365.568c-81.237,89.996 -169.246,134.997 -264.021,134.997c-93.981,0 -181.59,-48.982 -262.827,-146.944c-81.237,-97.962 -121.856,-215.838 -121.856,-353.621c0,-136.989 41.813,-254.464 125.44,-352.427c83.627,-97.963 169.643,-146.944 258.048,-146.944zM381.1,74.067l-1.195,-2.389c-70.089,0.797 -120.662,43.008 -151.723,126.635c-31.061,83.627 -48.981,184.378 -53.76,302.251c0,6.37 0,13.538 0,21.504c-0.797,10.356 -1.195,16.726 -1.195,19.115c0,99.554 18.318,188.361 54.955,266.411c40.618,81.237 91.592,121.856 152.917,121.856c59.733,-4.779 107.52,-45.398 143.36,-121.856c35.84,-76.458 57.344,-178.803 64.512,-307.029c0,-7.966 0.397,-17.122 1.195,-27.477c0,-15.134 0,-23.894 0,-26.283c0,-103.538 -15.928,-188.359 -47.787,-254.464c-36.638,-78.848 -90.398,-118.272 -161.28,-118.272z" /></svg>