<svg xmlns="http://www.w3.org/2000/svg" viewBox="0 0 896 896" width="896" height="896"><path d="M399.655,891.638c-0.586,-3.533 -0.721,-7.524 -0.71,-20.934c0.007,-9.113 0.217,-17.951 0.466,-19.638c0.249,-1.687 0.559,-4.072 0.692,-5.299c0.225,-2.087 0.377,-2.32 2.359,-3.618c1.165,-0.763 2.259,-1.386 2.43,-1.386c0.171,0 0.96,-0.494 1.751,-1.097c0.791,-0.603 1.667,-1.097 1.947,-1.097c0.749,0 7.019,-3.339 8.435,-4.491l1.215,-0.988l-0.238,-48.368l-5.446,3.045c-8.651,4.837 -35.071,21.281 -40.937,25.48c-2.942,2.107 -5.99,3.954 -6.774,4.104l-1.424,0.274v18.487c0,16.324 -0.083,18.604 -0.709,19.498c-1.125,1.605 -4.584,3.608 -19.17,11.099c-7.511,3.857 -14.787,7.697 -16.164,8.533c-2.101,1.272 -9.951,4.336 -10.224,3.99c-0.047,-0.06 -0.605,-1.687 -1.239,-3.617c-1.142,-3.468 -1.155,-3.658 -1.163,-16.441c-0.004,-7.112 -0.297,-17.765 -0.651,-23.672c-0.805,-13.431 -0.836,-40.75 -0.049,-42.927c0.471,-1.305 1.888,-2.347 11.037,-8.122c5.773,-3.644 29.089,-18.334 51.815,-32.648l41.32,-26.023v-95.923l-0.987,0.518c-0.542,0.286 -3.748,2.121 -7.124,4.081c-3.376,1.96 -7.617,4.292 -9.426,5.185c-1.809,0.891 -5.048,2.933 -7.202,4.537c-2.154,1.604 -5.317,3.745 -7.035,4.761c-1.715,1.015 -4.572,2.864 -6.349,4.111c-1.777,1.247 -3.409,2.266 -3.628,2.266c-0.22,0 -1.274,0.601 -2.343,1.337l-1.942,1.337v20.411c0,22.002 -0.22,24.536 -2.337,26.829c-2.437,2.639 -55.42,32.947 -57.597,32.947c-0.53,0 -2.758,-3.249 -2.758,-4.022c0,-0.294 -0.542,-1.099 -1.206,-1.791l-1.206,-1.258l-0.251,-43.508l2.743,-2.767c2.169,-2.189 3.022,-2.767 4.075,-2.767c0.887,0 2.541,-0.809 4.945,-2.418l3.613,-2.418l0.002,-46.236l3.396,-2.171c1.869,-1.194 10.104,-6.338 18.303,-11.432c8.199,-5.094 21.613,-13.503 29.812,-18.683c24.037,-15.192 40.635,-25.249 42.636,-25.835l1.863,-0.545l-0.035,-24.632l-23.954,-13.811c-13.175,-7.595 -24.269,-13.798 -24.655,-13.785c-0.386,0.013 -4.247,2.202 -8.579,4.864c-4.333,2.662 -10.049,5.989 -12.702,7.397c-2.653,1.408 -10.248,5.647 -16.878,9.423c-6.63,3.776 -16.792,9.498 -22.577,12.713c-5.785,3.215 -16.079,9.157 -22.873,13.203c-6.794,4.046 -14.092,8.281 -16.22,9.413c-2.128,1.132 -4.974,2.752 -6.322,3.605l-2.453,1.547l-0.29,10.994c-0.297,11.215 -0.679,17.673 -1.806,30.502c-1.077,12.257 -1.576,21.938 -1.98,38.36c-0.479,19.523 -0.795,22.095 -3.223,26.129c-1.432,2.379 -2.25,3.236 -4.004,4.184c-1.212,0.656 -6.938,3.886 -12.726,7.18c-5.788,3.294 -13.086,7.372 -16.22,9.065c-15.054,8.128 -25.993,14.434 -33.853,19.512c-3.372,2.178 -11.333,5.761 -13.685,6.159c-0.48,0.08 -0.819,-1.09 -1.423,-4.935c-1.527,-9.688 -1.667,-12.178 -1.671,-29.638l-0.004,-17.582l2.373,-2.147c3.258,-2.947 4.877,-4.119 5.681,-4.119c0.375,0 1.344,-0.581 2.151,-1.29c0.807,-0.709 2.541,-1.706 3.851,-2.215c1.309,-0.51 7.047,-3.711 12.747,-7.117c12.155,-7.259 11.331,-6.133 11.345,-15.515c0.006,-3.348 0.297,-9.54 0.649,-13.758c0.352,-4.218 0.643,-11.375 0.649,-15.903l0.008,-8.231l-1.206,0.656c-0.664,0.361 -19.06,10.993 -40.881,23.625l-39.676,22.968l-0.291,10.472c-0.161,5.761 -0.455,11.201 -0.658,12.09c-0.349,1.542 -0.803,1.883 -9.572,7.186c-15.583,9.423 -27.462,16.167 -30.969,17.583l-3.35,1.351l-2.022,-2.752c-1.155,-1.572 -2.021,-3.231 -2.021,-3.871c0,-0.615 -0.226,-1.257 -0.502,-1.428c-0.374,-0.231 -0.419,-7.911 -0.176,-30.166c0.179,-16.421 0.455,-32.1 0.611,-34.844l0.287,-4.989l19.917,-11.295c10.955,-6.212 21.51,-11.935 23.455,-12.717c3.032,-1.219 15.124,-8.56 15.144,-9.194c0.005,-0.12 -3.199,-1.841 -7.116,-3.826c-4.397,-2.227 -8.715,-4.809 -11.288,-6.75c-2.29,-1.729 -5.645,-3.849 -7.454,-4.711c-1.809,-0.862 -5.409,-2.884 -8,-4.491c-2.592,-1.607 -5.236,-3.054 -5.876,-3.214c-0.64,-0.16 -1.973,-0.847 -2.961,-1.526l-1.796,-1.234l-6.357,3.614c-11.075,6.295 -14.224,8.171 -15.143,9.021c-0.493,0.455 -1.577,1.053 -2.412,1.328c-0.835,0.275 -2.261,1.082 -3.171,1.791c-2.074,1.617 -12.876,6.893 -14.368,7.016c-0.759,0.063 -7.296,-3.499 -20.712,-11.285l-19.603,-11.376v-2.974c0,-4.503 1.776,-7.82 4.874,-9.105c0.694,-0.287 1.269,-0.845 1.278,-1.238c0.009,-0.476 3.367,-2.521 10.082,-6.139c5.537,-2.984 12.979,-7.273 16.536,-9.532c3.557,-2.259 6.735,-4.109 7.063,-4.11c0.328,0 1.313,-0.572 2.191,-1.267c1.533,-1.213 5.897,-3.975 8.329,-5.271c0.637,-0.34 1.939,-1.281 2.894,-2.093c0.974,-0.829 2.936,-1.846 4.475,-2.321c2.469,-0.763 5.411,-2.414 8.477,-4.753c1.386,-1.058 9.009,-4.9 9.724,-4.9c0.295,0 1.169,-0.613 1.942,-1.364l1.407,-1.364l1.902,1.283c1.046,0.707 4.566,2.592 7.82,4.192c3.254,1.6 8.088,4.117 10.741,5.593c2.653,1.477 6.993,3.68 9.645,4.896c5.758,2.639 11.077,5.515 24.051,13.002c5.339,3.081 11.859,6.743 14.491,8.14c2.632,1.397 6.676,3.701 8.987,5.121c2.311,1.421 4.448,2.583 4.751,2.583c0.303,0 0.548,0.297 0.548,0.658c0,0.361 0.299,0.658 0.664,0.658c0.365,0 3.571,1.451 7.124,3.226l6.461,3.226l2.058,-0.705c1.132,-0.387 2.611,-1.225 3.288,-1.862c1.872,-1.761 7.203,-5.201 13.288,-8.575c9.259,-5.134 18.387,-10.423 18.389,-10.653c0.004,-0.343 -12.805,-7.766 -13.79,-7.991c-0.483,-0.11 -5.218,-2.96 -10.521,-6.332c-19.918,-12.664 -37.91,-23.373 -46.352,-27.585c-10.11,-5.046 -19.901,-10.463 -21.654,-11.982c-0.996,-0.862 -4.4,-3.143 -7.565,-5.071c-3.165,-1.928 -5.705,-3.647 -5.643,-3.826c0.087,-0.251 33.347,-19.665 45.806,-26.736l2.292,-1.301l5.159,3.253c8.658,5.456 26.648,16.199 34.709,20.726c4.195,2.356 9.819,5.809 12.495,7.673c7.018,4.889 14.31,9.373 24.69,15.182c10.556,5.907 16.628,9.526 20.952,12.481c1.69,1.155 3.927,2.402 4.967,2.77l1.894,0.667l4.544,-2.624c2.499,-1.443 4.921,-2.624 5.379,-2.624c0.458,0 2.59,-1.053 4.737,-2.34c7.103,-4.26 9.957,-5.85 18.808,-10.486c4.823,-2.526 11.371,-6.148 14.552,-8.048c3.181,-1.9 7.787,-4.529 10.236,-5.841c2.449,-1.31 5.725,-3.347 7.28,-4.524c1.555,-1.177 3.557,-2.392 4.45,-2.702l1.625,-0.563v-56.427l-10.006,-6.267c-5.504,-3.447 -10.169,-6.267 -10.367,-6.267c-0.198,0 -4.321,2.269 -9.163,5.042c-4.841,2.773 -9.106,5.042 -9.475,5.042c-0.369,0 -6.078,2.861 -12.683,6.357c-6.605,3.496 -12.313,6.357 -12.685,6.357c-1.408,0 -7.273,3.073 -12.122,6.354c-5.191,3.511 -10.546,6.36 -11.956,6.36c-0.441,0 -1.422,0.321 -2.181,0.714c-0.759,0.393 -3.425,1.56 -5.926,2.592l-4.545,1.879l-22.439,-13.253c-21.305,-12.583 -34.323,-20.102 -38.234,-22.083c-1.564,-0.791 -1.984,-1.377 -3.684,-5.124l-1.918,-4.23l1.93,-1.981c2.361,-2.424 3.745,-3.246 20.562,-12.232c7.355,-3.929 14.945,-8.048 16.868,-9.154c1.923,-1.106 3.755,-2.009 4.069,-2.009c0.992,0 4.683,2.057 6.671,3.717c2.061,1.722 7.604,5.103 11.977,7.304c1.496,0.753 3.546,1.936 4.554,2.626c1.008,0.69 2.057,1.256 2.331,1.256c0.274,0 1.323,-0.566 2.331,-1.256c2.384,-1.633 5.565,-3.229 9.776,-4.902c4.261,-1.692 14.752,-7.497 14.308,-7.915c-0.182,-0.172 -16.578,-9.999 -36.435,-21.837l-36.103,-21.525l-2.429,0.635c-1.337,0.349 -3.142,1.158 -4.011,1.799c-4.741,3.49 -12.314,8.239 -16.728,10.489c-2.761,1.407 -11.234,6.602 -18.829,11.545c-12.312,8.011 -21.543,13.617 -31.496,19.13c-1.771,0.981 -6.165,3.706 -9.764,6.057c-3.599,2.351 -6.871,4.275 -7.272,4.275c-0.4,0 -2.32,1.057 -4.265,2.348c-1.945,1.291 -4.154,2.701 -4.909,3.131l-1.372,0.783l-11.123,-6.802c-6.117,-3.742 -12.192,-7.342 -13.5,-8.001c-1.308,-0.659 -5.352,-3.114 -8.987,-5.454c-9.062,-5.835 -12.663,-7.952 -22.831,-13.422c-4.823,-2.595 -13.699,-7.677 -19.727,-11.292c-6.028,-3.615 -11.668,-6.893 -12.534,-7.279c-1.62,-0.723 -9.595,-6.23 -9.59,-6.622c0.003,-0.198 46.029,-27.663 46.866,-27.966c0.193,-0.07 3.287,1.622 6.874,3.761c3.587,2.139 10.664,6.124 15.729,8.855c5.063,2.731 10.193,5.697 11.399,6.592c1.206,0.895 5.613,3.523 9.794,5.841l7.603,4.213l2.317,-1.634c1.274,-0.899 3.378,-2.456 4.672,-3.458c1.294,-1.002 7.014,-4.687 12.708,-8.186c8.356,-5.136 24.393,-16.25 28.115,-19.487c0.705,-0.612 0.169,-1.034 -6.796,-5.355c-7.867,-4.879 -19.613,-11.433 -34.961,-19.51c-4.943,-2.601 -9.221,-4.912 -9.508,-5.135c-0.372,-0.291 -0.589,-4.402 -0.763,-14.514c-0.62,-36.056 -0.731,-53.117 -0.349,-53.971c1.622,-3.638 4.312,-9.133 4.54,-9.274c0.309,-0.191 28.504,15.68 30.143,16.968c0.575,0.453 1.291,0.821 1.59,0.821c0.299,0 0.78,0.285 1.07,0.632c0.287,0.347 1.892,1.169 3.563,1.825c2.049,0.805 3.898,1.967 5.667,3.57l2.627,2.377v11.095c0,8.467 0.13,11.148 0.548,11.314c0.301,0.119 1.929,1.245 3.618,2.499c3.755,2.791 6.209,4.229 17.974,10.534c5.063,2.713 10.075,5.513 11.137,6.223c1.062,0.71 4.674,2.663 8.027,4.342l6.096,3.053l-0.23,-8.673c-0.126,-4.77 -0.385,-15.579 -0.574,-24.018c-0.199,-8.864 -0.529,-15.622 -0.782,-16.002c-0.249,-0.375 -0.532,-5.744 -0.658,-12.495l-0.219,-11.837l-45.033,-27.071l0.22,-20.001c0.171,-15.463 0.369,-20.649 0.872,-22.852c0.357,-1.567 0.894,-4.872 1.193,-7.343c0.299,-2.471 0.593,-4.494 0.653,-4.494c0.062,0 20.704,12.016 45.873,26.702l45.762,26.702l0.319,1.905c0.175,1.047 1.421,30.61 2.765,65.693c1.344,35.083 2.582,64.034 2.75,64.336c0.167,0.301 9.873,6.165 21.567,13.028l21.262,12.481l0.226,-54.702l2.299,-0.513c1.265,-0.283 3.532,-0.622 5.038,-0.753c2.424,-0.212 2.929,-0.112 4.384,0.864c0.904,0.608 3.026,1.855 4.713,2.771c1.687,0.916 5.929,3.28 9.426,5.251c3.496,1.971 7.639,4.138 9.206,4.817c1.567,0.679 5.242,2.713 8.165,4.523l5.315,3.29l0.29,7.048c0.867,21.07 1.122,30.678 1.128,42.582l0.007,13.177l16.304,9.401c8.967,5.171 16.654,9.401 17.082,9.401c0.428,0 11.53,-6.214 24.675,-13.811l23.899,-13.811l-0.032,-85.927l-8.4,-5.918c-20.796,-14.651 -52.454,-35.073 -54.374,-35.073c-0.831,0 -2.76,-0.913 -5.299,-2.504c-9.753,-6.118 -21.24,-13.658 -34.243,-22.482c-7.716,-5.235 -14.636,-9.831 -15.376,-10.213c-0.938,-0.483 -1.504,-1.216 -1.863,-2.416c-0.385,-1.293 -0.515,-19.366 -0.515,-72.147v-70.423h12.566l6.803,4.517c3.742,2.485 9.841,6.057 13.555,7.941c9.522,4.827 14.268,7.677 14.825,8.899c0.331,0.727 0.475,15.198 0.475,47.91v46.867l1.863,1.253c1.025,0.69 2.947,1.797 4.275,2.459c1.328,0.662 3.891,2.376 5.699,3.805c1.809,1.429 4.275,3.117 5.481,3.753c3.493,1.84 8.967,5.514 12.055,8.093c1.566,1.309 3.44,2.586 4.165,2.84c1.491,0.523 21.611,12.971 31.566,19.529l6.576,4.333l0.112,-35.785c0.105,-33.687 0.067,-35.819 -0.658,-36.376c-0.424,-0.325 -3.137,-1.803 -6.03,-3.286c-2.893,-1.483 -8.122,-4.605 -11.617,-6.937c-7.987,-5.33 -11.177,-7.23 -13.27,-7.901l-1.653,-0.529l0.236,-104.486l1.165,-2.191c1.272,-2.394 2.606,-3.768 5.638,-5.804l1.981,-1.331l40.756,22.937l0.113,31.419l0.112,31.419l1.299,0.925c0.715,0.509 3.43,1.975 6.034,3.258c2.604,1.283 7.197,3.995 10.206,6.026c3.009,2.031 7.79,5.162 10.62,6.961l5.149,3.269l0.223,102.305l6.844,-3.838c3.764,-2.11 8.387,-4.963 10.272,-6.341c1.885,-1.378 7.315,-4.461 12.066,-6.855c4.752,-2.393 9.252,-4.868 10.003,-5.501l1.365,-1.149l0.012,-10.154c0.006,-5.584 0.297,-16.961 0.646,-25.278c0.455,-10.849 0.637,-28.639 0.646,-62.929l0.012,-47.804l1.863,-1.778c2.562,-2.445 13.984,-9.437 16.331,-9.996c0.723,-0.173 1.611,-0.562 1.973,-0.865c0.362,-0.303 2.038,-1.295 3.727,-2.205c1.687,-0.908 5.453,-3.21 8.365,-5.114c4.616,-3.017 10.312,-5.652 12.222,-5.652c0.267,0 1.267,1.529 2.225,3.397l1.741,3.397l0.439,62.012l14.539,-8.646c7.996,-4.755 16.732,-9.879 19.412,-11.388c5.432,-3.054 6.148,-3.183 12.411,-2.229l3.395,0.517v50.054l-0.987,0.626c-3.929,2.498 -7.548,4.558 -14.079,8.021c-8.617,4.569 -13.253,7.483 -17.552,11.034c-3.344,2.764 -4.884,3.641 -9.317,5.309c-1.646,0.62 -4.123,1.857 -5.503,2.751l-2.51,1.624l-0.128,34.634c-0.101,27.237 -0.249,34.915 -0.698,35.949c-0.61,1.407 -5.473,5.397 -9.068,7.44c-1.206,0.685 -2.948,1.837 -3.873,2.559c-0.925,0.722 -4.039,2.666 -6.923,4.317c-2.882,1.651 -8.851,5.369 -13.264,8.263c-4.413,2.894 -8.287,5.26 -8.611,5.26c-0.324,0 -1.785,0.767 -3.249,1.706c-1.464,0.939 -5.029,3.039 -7.922,4.668c-2.893,1.629 -8.813,5.263 -13.153,8.076c-11.743,7.612 -20.139,12.732 -20.88,12.732c-0.362,0 -1.188,0.553 -1.836,1.229l-1.178,1.229l0.007,81.934l5.146,3.34c7.684,4.988 25.361,14.97 35.616,20.113c2.05,1.029 4.551,2.435 5.559,3.127c1.008,0.692 2.057,1.258 2.331,1.258c0.274,0 1.323,-0.557 2.331,-1.239c1.008,-0.682 4.003,-2.385 6.656,-3.787c9.213,-4.867 35.889,-20.533 49.102,-28.836l4.384,-2.754l0.231,-33.537l-14.363,7.247c-7.9,3.985 -15.249,7.745 -16.331,8.352c-1.669,0.937 -9.46,3.259 -10.936,3.259c-0.328,0 -0.469,-8.049 -0.469,-26.708v-26.708l1.645,-0.531c0.903,-0.292 3.618,-1.76 6.027,-3.265c2.409,-1.505 8.777,-5.032 14.147,-7.841c10.908,-5.705 18.926,-10.335 20.97,-12.103c1.861,-1.61 11.689,-7.24 22.771,-13.042c5.074,-2.656 10.267,-5.471 11.54,-6.254c1.379,-0.847 3.501,-1.653 5.243,-1.989c1.61,-0.311 3.272,-0.7 3.693,-0.866c0.627,-0.246 1.101,0.399 2.63,3.58l1.866,3.883l0.297,27.619c0.163,15.191 0.497,29.888 0.742,32.661c0.245,2.773 0.455,7.853 0.469,11.29c0.014,3.437 0.133,6.248 0.263,6.248c0.13,0 3.605,-1.973 7.718,-4.384c4.113,-2.412 7.653,-4.384 7.867,-4.384c0.214,0 2.116,-1.281 4.229,-2.845c2.113,-1.564 6.319,-4.121 9.345,-5.68c3.026,-1.559 6.875,-3.853 8.548,-5.094c1.673,-1.241 3.291,-2.357 3.591,-2.476c0.434,-0.174 0.548,-11.789 0.548,-56.026v-55.808l3.397,-2.165c4.918,-3.134 12.233,-7.419 18.523,-10.847c3.015,-1.643 9.13,-4.998 13.59,-7.455c4.46,-2.457 12.254,-6.598 17.317,-9.2c9.908,-5.091 16.483,-8.723 24.113,-13.319c5.861,-3.531 6.745,-3.882 12.164,-4.835c4.909,-0.862 4.379,-1.265 5.147,3.896c0.327,2.189 0.445,10.754 0.357,25.613l-0.133,22.323l-45.813,24.183v17.397c0,12.739 0.144,17.729 0.536,18.632c0.326,0.749 0.626,4.455 0.767,9.435l0.231,8.201l18.193,-9.429c10.006,-5.187 19.082,-9.735 20.167,-10.106c1.085,-0.371 2.609,-1.282 3.385,-2.023l1.412,-1.348l3.191,1.217c5.526,2.107 18.239,9.127 29.659,16.375c2.501,1.588 5.154,3.195 5.895,3.572c0.759,0.385 1.775,1.505 2.329,2.563c0.539,1.032 1.75,2.807 2.69,3.945c0.94,1.138 1.848,2.309 2.02,2.603c0.209,0.359 -0.949,1.174 -3.542,2.491c-2.12,1.076 -4.938,2.861 -6.265,3.966c-1.327,1.105 -4.582,3.117 -7.233,4.473c-2.653,1.354 -6.697,3.65 -8.987,5.103c-12.653,8.021 -18.599,11.611 -26.304,15.883c-4.702,2.606 -8.818,4.983 -9.148,5.282c-0.489,0.444 0.501,1.195 5.436,4.115c3.319,1.965 8.027,4.516 10.463,5.672c2.436,1.156 7.774,4.008 11.863,6.338c4.089,2.331 8.509,4.641 9.822,5.131l2.388,0.893l1.356,-1.3c0.746,-0.716 10.804,-6.453 22.352,-12.751c13.285,-7.245 22.382,-12.492 24.77,-14.285c4.143,-3.112 8.411,-5.506 12.043,-6.755l2.354,-0.81l6.586,3.42c20.503,10.647 28.879,15.662 33.313,19.947l3.628,3.507l-2.39,3.129c-2.191,2.868 -7.385,7.175 -8.652,7.175c-0.26,0 -2.471,1.25 -4.911,2.777c-2.44,1.527 -7.397,4.417 -11.013,6.424c-3.618,2.007 -9.338,5.369 -12.714,7.47c-3.376,2.101 -10.675,6.433 -16.22,9.625c-5.546,3.192 -11.76,6.881 -13.811,8.199c-5.359,3.446 -20.328,12.047 -25.359,14.57c-9.854,4.946 -11.563,5.245 -16.729,2.941c-1.809,-0.806 -21.627,-11.36 -44.042,-23.449c-22.413,-12.089 -40.975,-21.983 -41.248,-21.983c-0.273,0 -5.607,2.835 -11.853,6.297c-6.248,3.464 -22.211,12.302 -35.471,19.643c-19.677,10.891 -33.002,18.776 -35.429,20.966c-0.196,0.176 2.27,1.762 5.481,3.523c3.211,1.761 6.872,3.857 8.139,4.656c2.603,1.646 7.702,4.261 9.252,4.741c0.567,0.175 1.729,0.793 2.583,1.373c0.854,0.58 1.879,1.052 2.28,1.052c0.401,0 1.703,0.618 2.893,1.372c2.154,1.365 2.17,1.368 3.483,0.583c0.725,-0.434 3.424,-1.919 5.998,-3.299c2.574,-1.38 5.532,-3.089 6.576,-3.797c1.043,-0.707 7.867,-4.687 15.161,-8.846l13.264,-7.562l15.015,7.87c8.257,4.329 19.748,10.256 25.536,13.174c15.461,7.793 23.491,12.22 29.155,16.069c2.773,1.884 5.186,3.549 5.361,3.698c0.175,0.149 -1.155,1.427 -2.96,2.839c-1.896,1.484 -3.279,2.899 -3.279,3.351c0,1.701 -5.145,5.009 -12.862,8.269c-1.168,0.493 -2.214,1.25 -2.327,1.681c-0.113,0.431 -1.229,1.323 -2.482,1.979c-1.253,0.656 -4.272,2.439 -6.71,3.96c-7.866,4.907 -10.675,6.005 -15.37,6.005c-3.806,0 -5.233,-0.483 -9.132,-3.089c-3.986,-2.667 -12.113,-6.988 -13.189,-7.014c-0.462,-0.01 -1.898,-0.568 -3.193,-1.239l-2.354,-1.219l-42.203,24.299l-1.097,-0.775c-0.603,-0.427 -2.872,-1.712 -5.042,-2.858c-2.17,-1.146 -8.68,-4.694 -14.468,-7.884c-5.788,-3.19 -14.073,-7.632 -18.413,-9.87c-4.34,-2.238 -10.357,-5.401 -13.372,-7.03c-3.015,-1.629 -9.891,-5.257 -15.281,-8.061c-5.39,-2.804 -11.374,-6.11 -13.293,-7.342l-3.493,-2.24l-1.612,0.908c-0.887,0.499 -6.347,3.657 -12.133,7.016l-10.521,6.108l-0.226,56.192l1.867,1.278c1.027,0.703 11.632,6.702 23.568,13.334c22.19,12.327 36.104,20.327 45.292,26.038c6.264,3.894 7.9,4.471 10.494,3.702c1.025,-0.303 5.611,-2.677 10.193,-5.272c13.601,-7.707 19.437,-10.786 33.976,-17.917c7.595,-3.726 21.459,-10.995 30.808,-16.153c9.349,-5.158 17.269,-9.485 17.602,-9.611c0.331,-0.127 2.94,1.228 5.798,3.012c2.858,1.784 8.155,4.889 11.771,6.9c3.618,2.01 12.888,7.239 20.605,11.616c7.717,4.377 16.693,9.415 19.947,11.193c5.843,3.193 8.769,5.553 8.769,7.076c0,0.428 0.872,2.209 1.937,3.955l1.937,3.175l-5.115,2.752c-2.813,1.514 -6.916,3.623 -9.117,4.687c-2.201,1.064 -4.767,2.415 -5.699,3.003c-0.933,0.587 -3.473,1.856 -5.643,2.822c-2.17,0.966 -6.703,3.264 -10.073,5.107c-3.37,1.843 -7.077,3.667 -8.239,4.053l-2.11,0.701l-7.105,-4.151c-7.889,-4.608 -10.092,-5.765 -11.71,-6.153c-0.603,-0.145 -2.378,-1.043 -3.945,-1.997l-2.849,-1.734l-1.315,0.867c-0.723,0.477 -6.501,3.409 -12.838,6.515c-6.337,3.106 -12.847,6.524 -14.468,7.595c-1.619,1.071 -5.559,3.254 -8.754,4.85c-3.195,1.596 -5.804,3.048 -5.801,3.227c0.013,0.545 11.375,7.807 15.116,9.665c8.519,4.227 42.295,23.043 48.339,26.929l2.745,1.765l1.648,-1.091c2.618,-1.732 5.215,-2.961 10.544,-4.982c3.4,-1.291 11.191,-5.319 24.673,-12.758c10.837,-5.979 20.437,-11.314 21.335,-11.854c3.003,-1.809 4.683,-2.44 7.063,-2.652c1.878,-0.167 2.443,-0.063 2.762,0.507c0.22,0.395 0.797,0.717 1.281,0.717c0.484,0 2.989,1.351 5.567,3.003c7.171,4.593 13.15,8.104 20.047,11.774c5.953,3.168 6.542,3.605 11.339,8.421l5.061,5.08l-6.775,4.304c-3.727,2.367 -7.338,4.464 -8.025,4.661c-0.687,0.197 -2.023,0.837 -2.966,1.422c-0.945,0.585 -3.296,1.804 -5.224,2.709c-1.928,0.905 -4.395,2.201 -5.481,2.879c-1.085,0.679 -3.786,1.99 -6,2.913c-2.214,0.923 -4.109,1.982 -4.21,2.355c-0.1,0.371 -1.148,1.014 -2.33,1.425c-1.182,0.411 -3.33,1.477 -4.778,2.367c-1.447,0.889 -5.256,3.09 -8.463,4.891c-3.207,1.801 -5.773,3.328 -5.699,3.396c0.073,0.068 7.827,4.507 17.23,9.864c9.403,5.357 18.5,10.787 20.212,12.063c2.77,2.066 3.339,2.755 5.132,6.231l2.019,3.908l-2.065,2.009c-3.702,3.602 -32.575,20.416 -38.451,22.392l-3.069,1.031l-12.714,-7.215c-6.993,-3.969 -14.609,-7.997 -16.923,-8.953c-2.96,-1.222 -5.163,-2.517 -7.419,-4.361c-1.765,-1.442 -4.449,-3.185 -5.964,-3.871c-2.292,-1.04 -9.498,-4.993 -18.905,-10.376l-1.864,-1.066l0.01,60.318l53.501,30.546l1.302,2.58c1.175,2.329 1.303,2.997 1.314,6.867c0.007,2.359 0.299,9.023 0.649,14.808c0.35,5.785 0.64,13.023 0.646,16.079c0.007,5.118 -0.091,5.809 -1.266,8.769c-0.701,1.767 -1.524,4.058 -1.827,5.092c-0.319,1.085 -0.786,1.827 -1.102,1.754c-0.301,-0.07 -23.348,-12.951 -51.215,-28.623l-50.665,-28.497l-0.026,-20.167c-0.013,-11.092 -0.233,-22.928 -0.486,-26.304c-0.253,-3.376 -0.589,-21.123 -0.746,-39.44l-0.286,-33.302l-1.754,-1.156c-0.964,-0.637 -5.601,-3.185 -10.302,-5.663c-16.616,-8.759 -28.893,-15.924 -44.841,-26.167c-8.379,-5.383 -20.277,-11.894 -20.791,-11.38c-0.119,0.119 0.099,3.569 0.484,7.666c0.489,5.201 0.701,12.145 0.701,22.991c0,12.692 0.12,15.883 0.658,17.404c0.361,1.026 0.661,3.269 0.665,4.988l0.007,3.124l11.282,7.103c6.206,3.906 11.634,7.36 12.063,7.677c0.673,0.495 0.96,2.616 2.076,15.256c0.849,9.636 1.296,17.469 1.301,22.792c0.007,7.882 -0.031,8.223 -1.333,12.131l-1.339,4.021l-3.689,-1.247c-6.027,-2.037 -21.122,-10.232 -38.787,-21.057c-5.425,-3.325 -13.712,-8.211 -18.413,-10.859c-4.701,-2.648 -9.261,-5.425 -10.129,-6.168l-1.58,-1.353l-0.308,-10.857c-0.303,-10.717 -1.18,-25.786 -2.02,-34.751c-0.237,-2.531 -0.434,-13.678 -0.438,-24.77c-0.004,-13.907 -0.207,-22.617 -0.655,-28.058c-0.357,-4.34 -0.651,-9.695 -0.651,-11.901l-0.004,-4.01l-2.082,-1.3c-1.146,-0.715 -3.268,-1.957 -4.713,-2.76c-1.445,-0.803 -4.99,-2.933 -7.872,-4.735c-2.882,-1.8 -6.926,-4.064 -8.987,-5.028c-2.061,-0.964 -4.477,-2.234 -5.369,-2.823l-1.623,-1.071l-6.267,3.937c-3.448,2.165 -9.128,5.563 -12.624,7.55c-14.95,8.495 -18.935,10.829 -24.222,14.189l-5.59,3.551v107.601l1.863,1.281c1.025,0.706 4.928,2.751 8.673,4.546c17.08,8.189 32.829,17.405 45.043,26.356c4.543,3.329 13.745,8.851 24.648,14.787c5.173,2.816 10.482,6.223 18.435,11.828c1.207,0.85 2.471,2.08 2.81,2.734c0.339,0.654 0.925,1.629 1.303,2.168c0.616,0.879 0.687,7.511 0.687,64.113v63.133l-3.168,3.188c-4.251,4.28 -4.339,4.277 -13.592,-0.474c-14.131,-7.256 -21.382,-11.489 -30.69,-17.92l-2.075,-1.434l-0.008,-42.833l-0.008,-42.832l-1.424,-1.075c-2.317,-1.749 -15.993,-9.486 -20.478,-11.587c-2.281,-1.069 -5.241,-2.684 -6.576,-3.591c-1.335,-0.907 -4.303,-2.583 -6.593,-3.727c-2.29,-1.143 -5.151,-2.816 -6.357,-3.717c-1.997,-1.492 -11.642,-7.035 -12.242,-7.035c-0.139,0 -0.25,18.495 -0.246,41.1c0.008,52.226 -1.045,104.237 -2.136,105.503c-1.277,1.48 -8.483,5.99 -13.213,8.267c-2.531,1.219 -5.886,3.004 -7.454,3.969c-1.568,0.965 -6.745,4.084 -11.507,6.937c-4.762,2.851 -10.028,6.224 -11.701,7.496c-4.231,3.212 -11.119,6.913 -12.864,6.914c-0.776,0 -3.087,0.296 -5.136,0.657c-2.049,0.361 -3.745,0.657 -3.769,0.657c-0.023,0 -0.369,-1.964 -0.767,-4.363zM445.522,503.693c1.502,-0.93 5.393,-3.073 8.647,-4.764c3.254,-1.691 10.061,-5.439 15.126,-8.328c5.063,-2.891 11.376,-6.401 14.029,-7.802c2.653,-1.401 5.76,-3.14 6.905,-3.866l2.082,-1.32v-56.66l-24.691,-14.56c-13.58,-8.008 -24.85,-14.56 -25.043,-14.56c-0.193,0 -11.179,6.553 -24.413,14.562l-24.06,14.562l0.226,56.911l6.055,3.687c3.33,2.027 9.84,5.684 14.468,8.126c11.16,5.888 18.991,10.284 23.538,13.214c2.05,1.321 3.879,2.42 4.067,2.443c0.188,0.023 1.568,-0.718 3.069,-1.646z" /></svg>