<svg xmlns="http://www.w3.org/2000/svg" viewBox="0 0 487 169" width="487" height="169"><path d="M1.195,-0.333l44.203,31.061c17.522,1.591 34.645,2.786 51.371,3.584c17.522,0 35.043,0 52.565,0c45.397,0 90.398,-0.397 134.997,-1.195c45.397,-0.798 90.795,-1.195 136.192,-1.195c12.745,0 23.893,-3.187 33.451,-9.557c10.355,-6.37 21.107,-12.343 32.256,-17.92v164.864c-11.947,-5.577 -23.893,-11.947 -35.84,-19.115c-11.149,-7.168 -23.497,-10.752 -37.035,-10.752c-12.745,0 -30.665,0 -53.76,0c-22.302,-0.798 -47.39,-1.195 -75.264,-1.195c-27.874,0 -56.947,0.397 -87.211,1.195c-29.469,0.798 -57.742,2.389 -84.821,4.779c-26.283,1.591 -49.379,4.382 -69.291,8.363c-19.911,3.187 -33.849,7.565 -41.813,13.141c-0.797,-13.538 -1.195,-27.081 -1.195,-40.619c0,-14.336 0,-28.275 0,-41.813c0,-13.538 0,-27.477 0,-41.813c0.797,-14.336 1.195,-28.275 1.195,-41.813z" /></svg>