<svg xmlns="http://www.w3.org/2000/svg" viewBox="0 0 713 860" width="713" height="860"><path d="M693.716,379.744c14.336,30.03733 20.48,67.24267 18.432,111.616c-0.68267,19.11467 -3.072,40.61867 -7.168,64.512c-4.096,23.89333 -10.92267,50.34667 -20.48,79.36c-9.55733,29.01333 -22.18667,60.75733 -37.888,95.232c-15.70133,34.47467 -35.49867,71.50933 -59.392,111.104c12.288,-62.12267 20.48,-118.44267 24.576,-168.96c2.048,-21.16267 3.24267,-42.496 3.584,-64c0.34133,-21.504 -0.512,-40.96 -2.56,-58.368c-2.048,-17.408 -5.632,-32.08533 -10.752,-44.032c-5.12,-11.94667 -12.11733,-19.62667 -20.992,-23.04h-41.984c-25.25867,0 -54.784,5.29067 -88.576,15.872c-33.792,10.58133 -66.048,22.016 -96.768,34.304c-36.18133,14.336 -73.38667,30.72 -111.616,49.152c38.22933,-37.54667 80.55467,-71.33867 126.976,-101.376c19.79733,-12.288 41.30133,-24.576 64.512,-36.864c23.21067,-12.288 47.95733,-23.21067 74.24,-32.768c26.28267,-9.55733 53.76,-17.23733 82.432,-23.04c28.672,-5.80267 58.368,-8.704 89.088,-8.704zM232.916,733.024c2.048,-13.65333 4.26667,-25.088 6.656,-34.304c2.38933,-9.216 5.12,-16.896 8.192,-23.04c3.072,-6.144 6.48533,-11.264 10.24,-15.36c3.75467,-4.096 7.68,-8.192 11.776,-12.288c25.25867,-25.94133 52.39467,-46.592 81.408,-61.952c29.01333,-15.36 56.14933,-27.136 81.408,-35.328c29.35467,-9.55733 58.368,-16.04267 87.04,-19.456c-39.59467,14.336 -70.99733,30.208 -94.208,47.616c-23.21067,17.408 -41.13067,35.15733 -53.76,53.248c-12.62933,18.09067 -20.992,36.18133 -25.088,54.272c-4.096,18.09067 -6.82667,34.64533 -8.192,49.664c0,12.288 2.38933,25.6 7.168,39.936c4.77867,14.336 9.89867,27.30667 15.36,38.912c6.82667,13.65333 14.336,27.30667 22.528,40.96c-3.41333,0.68267 -7.68,1.19467 -12.8,1.536c-5.12,0.34133 -10.06933,0.85333 -14.848,1.536c-5.46133,0.68267 -11.264,1.024 -17.408,1.024c-23.21067,0 -42.32533,-1.024 -57.344,-3.072c-8.87467,-0.68267 -17.408,-1.70667 -25.6,-3.072c-28.672,-7.50933 -53.76,-18.944 -75.264,-34.304c-21.504,-15.36 -40.448,-33.62133 -56.832,-54.784c-16.384,-21.16267 -30.72,-44.20267 -43.008,-69.12c-12.288,-24.91733 -23.552,-50.688 -33.792,-77.312c-10.24,-20.48 -18.26133,-43.17867 -24.064,-68.096c-5.80267,-24.91733 -10.41067,-48.29867 -13.824,-70.144c-3.41333,-25.25867 -6.144,-50.51733 -8.192,-75.776c18.432,66.21867 38.74133,120.32 60.928,162.304c22.18667,41.984 43.86133,75.09333 65.024,99.328c21.16267,24.23467 41.13067,41.13067 59.904,50.688c18.77333,9.55733 34.304,15.01867 46.592,16.384zM251.348,483.168c-14.336,-51.2 -23.38133,-99.84 -27.136,-145.92c-3.75467,-46.08 1.87733,-91.648 16.896,-136.704c5.46133,-21.84533 13.99467,-43.34933 25.6,-64.512c11.60533,-21.16267 27.30667,-41.984 47.104,-62.464c7.50933,-9.55733 14.16533,-16.72533 19.968,-21.504c5.80267,-4.77867 12.8,-10.24 20.992,-16.384c4.77867,-3.41333 9.55733,-6.48533 14.336,-9.216c4.77867,-2.73067 9.55733,-5.80267 14.336,-9.216c4.77867,-2.73067 11.09333,-5.97333 18.944,-9.728c7.85067,-3.75467 14.50667,-6.31467 19.968,-7.68c-2.048,0.68267 -5.12,2.21867 -9.216,4.608c-4.096,2.38933 -6.82667,4.26667 -8.192,5.632c-1.36533,2.048 -3.41333,3.92533 -6.144,5.632c-2.73067,1.70667 -5.12,3.24267 -7.168,4.608c-9.55733,7.50933 -18.432,15.36 -26.624,23.552c-13.65333,15.70133 -23.04,31.06133 -28.16,46.08c-5.12,15.01867 -10.752,31.06133 -16.896,48.128c-6.144,20.48 -10.41067,39.25333 -12.8,56.32c-2.38933,17.06667 -2.21867,35.49867 0.512,55.296c2.048,16.384 4.77867,32.93867 8.192,49.664c3.41333,16.72533 9.55733,32.256 18.432,46.592c4.77867,10.24 11.776,16.896 20.992,19.968c9.216,3.072 19.28533,5.97333 30.208,8.704c22.528,2.048 42.496,3.072 59.904,3.072c17.408,0 37.376,-2.73067 59.904,-8.192c-27.30667,6.82667 -54.95467,16.384 -82.944,28.672c-23.89333,10.24 -50.176,23.89333 -78.848,40.96c-28.672,17.06667 -55.97867,37.888 -81.92,62.464l-1.024,-3.072c0,0 -1.024,-2.048 -3.072,-6.144l-4.096,-6.144z" /></svg>