<svg xmlns="http://www.w3.org/2000/svg" viewBox="0 0 768 768" width="768" height="768"><path d="M18.746,18.746c12.496,-12.498 28.874,-18.746 45.254,-18.746c16.38,0 32.758,6.248 45.254,18.746l530.746,530.744v-229.49c0,-35.346 28.652,-64 64,-64c35.346,0 64,28.654 64,64v384h-0.036c0.002,8.25 -1.554,16.568 -4.838,24.492c-9.904,23.914 -33.242,39.508 -59.126,39.508h-384c-35.346,0 -64,-28.654 -64,-64c0,-35.346 28.654,-64 64,-64h229.488l-530.742,-530.746c-24.994,-24.992 -24.994,-65.516 0,-90.508z" /></svg>