<svg xmlns="http://www.w3.org/2000/svg" viewBox="0 0 768 768" width="768" height="768"><path d="M749.254,749.254c-12.496,12.498 -28.876,18.746 -45.254,18.746c-16.378,0 -32.758,-6.248 -45.254,-18.746l-530.746,-530.744v229.49c0,35.346 -28.654,64 -64,64c-35.346,0 -64,-28.654 -64,-64v-384h0.034c-0.002,-8.25 1.556,-16.568 4.838,-24.492c9.906,-23.916 33.242,-39.508 59.128,-39.508h384c35.346,0 64,28.654 64,64c0,35.346 -28.654,64 -64,64h-229.49l530.744,530.746c24.994,24.992 24.994,65.516 0,90.508z" /></svg>