<svg xmlns="http://www.w3.org/2000/svg" viewBox="0 0 713 896" width="713" height="896"><path d="M543.136,656.571c-7.892,-5.366 -8.114,-5.397 -8.301,-5.425c-0.075,-0.605 -0.15,-1.172 -0.187,-1.78c-4.209,-1.132 -8.988,0.889 -13.237,-0.729c-2.428,-0.893 -4.696,-2.305 -7.165,-3.278c-4.74,-1.902 -9.795,-2.385 -14.857,-2.751c-16.355,-1.069 -32.627,-1.544 -48.982,-1.215c-25.585,0.444 -51.048,4.492 -76.349,7.892c-15.058,2.025 -30.076,3.643 -45.299,4.335c-16.029,0.772 -32.179,1.643 -48.251,1.702c-13.969,0.04 -27.895,-0.159 -41.86,0.406c-8.906,0.366 -17.813,0.908 -26.759,0.849c-3.564,-0.041 -8.096,-0.564 -11.335,1.377c-1.985,1.175 -2.755,3.282 -3.887,5.062c1.132,-4.657 0.874,-9.511 0.766,-14.291c-0.043,-2.753 1.859,-3.925 2.551,-6.477c1.293,-5.015 1.655,-10.361 2.386,-15.502c0.849,-6.195 1.663,-12.428 2.429,-18.662c1.741,-13.524 3.804,-27.042 4.858,-40.606c1.337,-17.204 2.025,-34.325 2.469,-51.572c0.611,-22.506 -1.456,-44.855 -3.724,-67.2c-2.669,-26.106 -4.776,-52.303 -5.546,-78.492c-0.896,-29.309 -0.043,-58.618 -0.971,-87.885c-0.487,-16.276 -1.861,-32.469 -2.673,-48.742c-0.6,-12.628 -0.4,-25.221 -0.034,-37.85c0.566,-20.121 0.936,-40.28 2.877,-60.318c0.848,-8.868 2.062,-17.688 3.804,-26.433c1.66,-8.383 2.838,-16.559 2.913,-25.1c0.122,-9.716 1.175,-21.134 -2.386,-30.524c-0.482,-1.21 -2.185,-3.399 -0.848,-4.571c1.01,-0.934 4.327,-0.329 5.585,-0.329c6.839,0.043 13.477,0.409 20.281,1.014c18.945,1.698 37.89,3.711 56.957,3.683c11.174,-0.04 22.265,-0.274 33.437,-0.605c5.953,-0.206 11.902,-0.546 17.853,-0.692c6.52,-0.143 13.034,0 19.554,-0.406c11.493,-0.726 23.033,-0.528 34.53,-1.458c9.189,-0.767 18.217,-2.471 27.407,-3.196c12.35,-0.975 24.94,-0.289 37.242,0.483c13.603,0.847 27.486,2.303 40.767,5.019c5.99,1.254 11.938,2.951 17.727,4.815c1.458,0.487 2.874,1.15 4.414,1.296c1.136,0.118 2.185,0 3.321,0c2.955,0.039 2.466,2.588 2.429,5.019c-0.083,8.867 0.605,17.809 1.175,26.676c0.766,12.267 1.54,24.577 3.034,36.762c1.581,13.234 1.215,26.551 2.512,39.788c1.154,11.906 0.971,23.803 0.971,35.748c0,13.117 0.146,26.272 0.034,39.431c-0.121,12.589 -1.292,25.135 -1.941,37.725c-1.726,32.67 -1.58,65.297 -1.58,98.007c0,31.821 -0.034,63.678 0,95.499c0,7.609 -0.291,15.219 0.075,22.789c0.366,8.139 1.497,16.275 2.551,24.329c1.741,13.281 3.239,26.597 4.693,39.914c1.459,12.876 2.917,25.788 4.536,38.664c0.764,5.869 0.984,11.737 0.727,17.688c-0.2,4.214 -1.186,8.341 -1.332,12.59c-0.409,9.229 0.645,18.335 0.645,27.525z" /> <path d="M462.57,672.314c-0.112,-0.443 -0.075,-0.853 0.112,-1.256c0.812,-0.028 1.458,-0.483 2.067,-0.605c1.576,-0.331 3.396,-0.295 5.016,-0.028c3.765,0.443 7.531,2.062 10.97,3.521c4.213,1.78 8.18,3.561 11.783,6.355c3.605,2.753 7.165,5.667 10.117,9.067c1.337,1.578 2.594,3.239 3.765,4.941c0.974,1.054 1.781,2.186 2.433,3.443c0.727,2.065 0.688,4.209 1.54,6.273c1.049,2.512 1.985,4.78 3.482,7.044c3.439,5.224 7.327,10 11.497,14.696c4.17,4.737 8.867,8.018 14.17,11.379c2.712,1.737 5.546,3.724 8.376,5.259c2.103,1.135 4.536,1.82 6.76,2.793c2.59,1.092 5.141,1.256 7.853,1.904c2.594,0.645 4.819,2.146 7.366,2.834c-2.103,-0.331 -4.452,-0.059 -6.596,-0.059c-5.425,0.028 -10.082,-0.483 -15.262,-2.146c-4.693,-1.54 -9.311,-3.361 -14.165,-4.17c-2.35,-0.366 -4.697,-0.483 -7.004,-1.014c-2.268,-0.527 -4.01,-1.333 -6.399,-1.414c-8.215,-0.146 -15.301,-1.864 -21.087,-7.935c-2.39,-2.469 -4.618,-5.181 -6.52,-8.015c-0.444,-0.645 -1.258,-1.337 -1.58,-2.062c-0.366,-0.812 -0.295,-1.54 -0.727,-2.434c-1.053,-2.102 -2.268,-4.371 -3.644,-6.273c-1.781,-2.469 -3.683,-4.209 -5.994,-6.152c-1.01,-0.853 -1.698,-1.985 -2.751,-2.834c-1.458,-1.215 -3.4,-2.025 -5.062,-3.038c-4.005,-2.469 -8.297,-4.936 -12.467,-7.083c-7.487,-3.848 -16.111,-5.302 -22.871,-10.487c-2.551,-1.941 -6.356,-4.536 -7.979,-7.327c-0.444,-0.812 -1.537,-3.561 -1.132,-4.414c1.54,0.41 2.751,1.743 4.17,2.471c2.064,1.092 4.049,1.578 6.317,2.186c4.127,1.135 8.136,2.71 12.546,1.985c1.419,-0.176 3.199,-0.689 4.453,-1.337c1.092,-0.565 1.985,-1.498 3.199,-1.864c6.152,-1.985 11.858,0.366 18.218,2.512z" /> <path d="M221.111,668.449c-3.321,-1.139 -1.257,0.359 -0.688,0.725c3.361,2.186 6.113,5.145 8.907,7.979c4.693,4.815 9.106,10.401 11.575,16.638c2.106,5.303 2.999,10.239 0.566,15.502c-2.913,6.237 -7.61,12.306 -14.17,15.057c-9.513,3.969 -18.823,2.713 -28.861,2.31c-8.867,-0.406 -17.734,-0.326 -26.397,-2.716c-2.748,-0.769 -5.342,-1.985 -8.093,-2.71c-2.023,-0.404 -4.052,-0.893 -6.076,-1.458c-1.663,-0.682 -3.361,-1.336 -5.059,-1.941c-6.317,-1.823 -13.525,-1.501 -19.999,-0.812c-4.979,0.53 -10.242,0.933 -15.099,2.31c-3.845,1.094 -7.611,2.672 -11.416,3.887c-5.668,1.824 -11.456,3.404 -17.084,5.345c-4.455,1.497 -8.663,3.117 -13.279,3.966c-5.911,1.099 -12.104,1.055 -18.056,1.582c-5.141,0.483 -10.162,0.483 -15.303,0.483c-6.358,0 -12.432,-0.242 -18.34,-2.831c-1.458,-0.651 -3.439,-1.017 -4.735,-1.904c-1.7,-1.175 -3.523,-3.891 -4.696,-5.55c-2.876,-3.887 -5.223,-7.771 -6.275,-12.385c-0.563,-2.35 -2.021,-4.698 -3.277,-6.76c-0.729,-1.258 -1.942,-2.024 -2.793,-3.199c-0.851,-1.093 -1.982,-3.72 -3.238,-4.049c-0.322,0.931 0.812,1.502 1.419,1.985c2.147,1.823 4.657,3.279 7.004,4.819c4.491,2.912 8.783,5.951 13.479,8.54c3.845,2.149 8.866,4.009 13.278,4.536c4.455,0.561 9.229,0.09 13.724,0.118c5.021,0.039 9.149,-0.689 13.522,-3.16c3.524,-2.024 6.763,-4.531 10.162,-6.717c2.871,-1.863 6.069,-3.039 8.945,-4.819c2.671,-1.658 5.22,-3.927 7.488,-6.029c1.985,-1.783 3.399,-2.512 5.991,-3.361c2.591,-0.889 5.179,-2.223 7.893,-2.753c7.165,-1.399 14.733,-0.586 21.981,0.059c7.448,0.611 14.817,2.025 22.183,3.321c7.81,1.418 15.584,3.282 23.559,3.887c13.968,1.096 31.412,0.405 42.465,-9.229c4.776,-4.127 8.38,-9.755 9.39,-16.072c0.261,-1.294 0.332,-3.234 -0.034,-4.493c-0.2,-0.059 -0.383,-0.09 -0.566,-0.118z" /> <path d="M506.458,665.636c0.034,-0.176 0.075,-0.366 0.112,-0.565c1.171,-0.331 2.429,-0.263 3.683,-0.565c4.049,-1.135 7.448,-1.743 11.737,-1.54c6.52,0.331 14.209,2.509 20.077,5.224c3.278,1.54 6.721,2.713 9.999,4.249c4.209,1.904 8.015,4.618 12.062,6.761c2.673,1.414 5.384,2.791 8.18,4.049c4.088,1.82 8.258,2.669 12.51,3.966c3.113,0.93 6.111,2.146 9.39,2.429c3.113,0.263 6.273,0.028 9.433,0.028c12.185,0.059 24.57,-3.034 34.734,-9.835c8.745,-5.868 13.969,-15.828 17.164,-25.544c1.941,-5.789 2.149,-10.93 -1.82,-15.749c-1.293,-1.538 -2.791,-3.073 -4.41,-4.332c-1.82,-1.418 -3.199,-1.54 -5.345,-2.146c-2.346,-0.692 -4.737,-0.527 -7.247,-0.527c1.093,0 2.307,0.263 3.239,-0.295c0.405,-0.263 0.444,-0.765 0.766,-1.051c0.812,-0.732 1.419,-0.973 2.551,-1.175c6.799,-1.377 15.097,1.054 20.524,5.019c1.54,1.135 3.077,2.347 4.492,3.644c2.673,2.387 5.994,4.737 8.26,7.488c3.844,4.697 4.532,11.131 7.126,16.394c2.59,-0.927 3.239,-5.868 3.278,-7.931c0,-2.673 0.075,-5.464 -0.037,-8.14c-0.075,-1.172 0.075,-1.864 -1.136,-2.509c2.064,1.377 4.575,2.347 6.639,3.804c6.636,4.697 12.51,10.283 16.881,17.164c4.94,7.735 4.492,18.096 -0.075,25.831c-6.399,10.891 -15.505,21.37 -28.378,24.652c-7.448,1.864 -14.735,3.966 -22.263,5.302c-8.379,1.498 -16.799,2.025 -25.262,2.025c-4.815,0 -9.472,0.028 -14.252,-0.645c-4.532,-0.61 -9.028,-1.498 -13.438,-2.512c-7.892,-1.82 -13.765,-5.224 -20.564,-9.268c-2.024,-1.172 -4.092,-2.186 -5.955,-3.605c-2.225,-1.702 -4.127,-3.4 -6.636,-4.693c-1.459,-0.772 -2.716,-1.941 -4.127,-2.834c-2.551,-1.578 -5.224,-2.995 -7.814,-4.532c-6.072,-3.604 -12.302,-7.044 -18.701,-10.082c-5.99,-2.831 -12.389,-4.941 -18.501,-7.448c-5.019,-2.062 -10.325,-4.371 -15.667,-5.384c-2.712,-0.483 -5.908,0.146 -8.459,-0.565c0.187,-0.406 0.33,-0.812 7.247,-4.575z" /> <path d="M248.982,729.882c1.498,-5.833 3.2,-13.965 9.638,-16.681c2.386,-1.018 4.936,-0.717 7.448,-0.689c2.913,0 5.79,0 8.702,0c9.677,0 19.35,-0.028 29.066,0c-3.317,-0.041 -6.112,0.443 -9.229,1.702c-3.683,1.458 -6.233,3.883 -9.229,6.312c-3.239,2.632 -5.423,5.544 -6.312,9.716c-0.653,3.116 -0.491,6.395 -1.419,9.433c-1.298,4.33 -3.561,8.255 -4.819,12.59c-1.493,5.184 -4.57,8.828 -8.175,12.833c-3.883,4.37 -7.165,9.312 -11.579,13.155c-3.643,3.201 -8.336,5.346 -12.833,7.005c-4.37,1.581 -8.58,2.264 -13.237,2.146c-5.063,-0.124 -10.078,-0.661 -15.18,-0.689c-4.332,0 -7.61,-1.536 -11.454,-3.4c-3.361,-1.58 -4.332,-2.833 -6.195,-5.99c-1.34,-2.189 -3.126,-4.336 -3.16,-6.965c0,-3.156 1.777,-5.994 2.107,-9.107c0.444,-4.047 2.83,-6.236 6.029,-8.422c0.365,0.931 -0.148,1.983 0.257,2.956c0.283,0.689 1.01,1.542 1.376,2.307c0.684,1.418 1.29,2.755 1.82,4.209c0.649,1.824 2.025,2.391 3.605,3.644c3.805,2.917 6.514,4.697 11.414,4.697c3.278,0 5.868,0 8.785,-1.82c1.902,-1.175 4.005,-2.595 5.585,-4.17c4.371,-4.291 7.488,-10.647 8.663,-16.515c1.214,-6.034 2.985,-12.185 2.873,-18.34c-0.04,-2.225 -0.162,-3.928 1.54,-5.546c2.023,-1.943 5.706,-4.653 8.379,-5.425c2.79,-0.769 4.897,0.366 7.57,0.366h-1.82z" /> <path d="M135.764,14.843c0,-1.78 -0.848,-6.311 1.781,-5.868l44.045,38.332c-1.784,-0.044 -3.121,0.362 -2.15,2.831c0.61,1.576 1.635,2.549 1.781,4.292c0.108,1.334 -0.075,2.79 -0.075,4.127c-0.034,16.799 0,33.598 0,50.401c0.039,7.247 -0.542,14.37 -0.688,21.618c-0.161,9.229 0.083,18.418 0.566,27.608c0.491,9.795 0.444,19.629 0.974,29.428c0.565,10.039 1.253,20.077 1.701,30.116c0.261,5.423 0,10.809 0.295,16.193c0.244,5.955 0.715,11.905 1.01,17.813c0.527,10.161 1.203,20.278 1.498,30.442c0.315,11.495 1.052,22.949 0.569,34.489c-0.649,14.084 -1.939,28.13 -1.902,42.261c0.075,9.312 0.297,18.701 -0.112,28.052c-0.483,10.444 -0.444,20.891 -1.049,31.291c-0.476,8.623 -0.146,17.286 -0.146,25.87c0.043,13.518 -0.683,26.957 -0.649,40.481c0.039,16.193 -0.722,32.305 -0.688,48.498c0.039,12.181 -0.283,24.287 -0.809,36.432c-0.53,11.74 -1.25,23.438 -1.175,35.178c0.039,6.678 -0.654,13.317 -0.688,19.999c0,5.91 1.985,11.293 2.712,17.082c0.487,3.883 1.54,7.571 2.146,11.414c0.322,2.027 0.723,4.051 1.053,6.076c0.082,0.725 -0.162,2.146 0.526,2.629c-2.307,0.121 -4.249,-1.377 -6.556,-1.377c-1.58,-0.04 -3.12,0.558 -4.618,0.853c-2.716,0.562 -5.546,0.888 -8.301,1.092c-5.299,0.405 -9.716,-2.432 -14.897,-3.077c-1.658,-0.235 -3.318,0.032 -5.019,-0.263c-1.172,-0.183 -2.265,-0.709 -3.518,-0.446c1.851,-1.376 1.659,-3.078 2.146,-5.18c2.016,-8.745 2.912,-17.974 1.941,-26.92c-0.773,-6.642 -1.626,-13.238 -1.701,-19.959c-0.074,-7.003 0.034,-14.046 0.034,-21.051c0,-18.053 0.514,-36.191 -0.295,-54.201c-0.362,-8.302 -1.527,-16.477 -1.781,-24.778c-0.291,-9.956 0.075,-19.959 0.075,-29.915c0,-7.57 -0.034,-15.141 -0.034,-22.711c-0.039,-9.228 0.722,-18.461 0.688,-27.729c0,-8.623 -0.153,-17.287 0.034,-25.906c0.205,-7.126 0.77,-14.291 1.136,-21.456c0.849,-19.189 2.508,-38.335 3.4,-57.484c0.641,-14.937 0.075,-29.994 0.075,-44.891c0,-16.032 1.009,-32.144 -2.512,-47.893c-2.87,-12.872 -5.138,-25.745 -6.191,-38.821c-0.565,-6.842 -1.575,-13.681 -1.941,-20.524c-0.813,-14.21 -2.915,-28.58 -5.384,-42.588c-2.161,-12.221 -1.336,-24.448 -2.307,-36.715c-0.813,-9.955 -0.293,-19.998 -0.33,-29.954c-0.04,-4.536 -0.083,-8.985 0.609,-13.482c0.646,-4.252 1.982,-8.379 2.548,-12.628c0.893,-6.36 2.261,-12.672 2.186,-19.11z" /> <path d="M583.587,629.6c0.283,4.173 0.687,8.422 1.332,12.51c0.243,1.499 0.691,4.978 1.619,6.399c-2.024,-0.121 -3.604,-1.43 -5.707,-1.458c-2.184,-0.04 -4.047,0.81 -6.111,1.337c-2.673,0.726 -5.341,1.296 -8.057,1.985c-2.791,0.689 -5.707,1.176 -8.498,1.985c-0.932,0.239 -2.146,0.791 -3.117,0.645c-1.054,-0.244 -2.419,-2.146 -2.307,-3.361c0.149,0.066 0.332,0.211 0.444,0.329c0.848,0.927 0.605,0.443 0,0c-0.326,-0.41 -0.852,-1.015 -1.54,-1.864c1.297,-1.296 0.42,-7.042 0.566,-8.301c0.853,-8.097 2.624,-15.911 2.512,-24.086c-0.082,-7.082 0.365,-14.25 1.01,-21.334c0.515,-5.023 0.258,-9.96 0.295,-14.979c0.044,-5.95 1.23,-11.822 1.376,-17.773c0.323,-9.595 1.374,-19.106 1.337,-28.744c-0.039,-12.544 0.162,-25.054 -0.483,-37.604c-0.282,-5.992 -0.895,-11.902 -1.54,-17.892c-0.828,-7.409 -0.565,-14.858 -0.974,-22.306c-0.371,-6.238 -0.117,-12.471 -0.483,-18.666c-0.38,-6.273 -0.563,-12.506 -0.526,-18.823c0.146,-43.963 0,-87.965 0,-131.928v-28.3c0,-12.873 0.121,-25.906 -1.054,-38.739c-0.972,-10.727 -1.212,-21.418 -1.742,-32.144c-0.648,-12.102 -2.268,-24.369 -4.209,-36.353c-0.932,-5.463 -1.741,-11.009 -2.386,-16.555c-0.653,-5.507 -0.41,-11.092 -1.258,-16.638c-0.935,-6.477 -1.945,-12.994 -2.59,-19.554c-0.487,-5.138 -0.691,-10.278 -1.619,-15.38c-1.297,-7.492 -2.435,-14.98 -2.472,-22.589c-0.039,-2.959 -0.471,-5.915 -0.766,-8.867c-0.205,-2.024 -0.205,-4.296 -0.692,-6.237c-0.322,-0.118 -0.68,-0.118 -1.01,-0.118l29.549,-33.032c0.369,0.686 0.291,1.54 0.257,2.429c0,3.971 0.034,7.897 0,11.863c-0.082,7.814 1.093,15.101 2.673,22.75c3.239,16.032 6.838,32.144 9.028,48.337c2.144,16.071 3.429,32.508 3.724,48.741c0.204,9.833 1.58,19.672 1.985,29.51c0.484,12.189 1.337,24.33 1.781,36.475c0.927,24.126 2.708,48.173 3.561,72.302c0.393,11.171 0.651,22.344 0.688,33.516c0,14.008 -1.297,27.93 -1.902,41.938c-1.096,24.695 -1.175,49.347 -3.16,74.003c-1.01,12.633 -2.311,25.258 -2.386,37.93c-0.037,12.467 0.187,24.979 0.075,37.446c-0.205,23.882 -2.347,47.768 -0.971,71.61c0.566,10.286 0.971,20.73 2.268,30.929c0.767,6.237 1.089,12.389 1.498,18.662z" /> <path d="M561.471,1.98c0.078,0.119 0.037,0.236 0.112,0.295l-29.553,33.072c-1.009,0.084 -2.024,0.673 -3.073,0.732c-2.228,0.118 -4.492,-0.028 -6.76,-0.028c-4.578,0.04 -8.666,-0.53 -13.237,-1.135c-3.765,-0.502 -7.53,-0.647 -11.339,-0.765c-5.948,-0.209 -11.858,-0.692 -17.848,-0.692c-7.248,0 -14.453,0.651 -21.618,1.578c-7.897,1.058 -16.151,0.366 -24.126,0.366c-16.312,0 -32.666,-0.028 -48.982,0c-9.354,0.044 -18.623,-0.673 -27.934,-0.645c-10.239,0.028 -20.443,0 -30.646,0c-7.849,0 -15.702,0.028 -23.555,0.028c-11.501,-0.044 -22.632,0.564 -34.007,1.941c-15.057,1.783 -30.036,2.548 -45.177,2.548c-12.995,0 -26.232,0.688 -39.144,-0.527c-0.932,-0.119 -2.025,-0.267 -2.996,-0.295l-44.044,-38.334c0.282,0.03 0.518,0.058 0.848,0.176c0.809,0.407 0.931,1.176 1.941,1.582c0.688,0.232 1.658,0.381 2.389,0.527c4.775,1.095 9.835,1.541 14.735,2.146c13.683,1.779 27.651,1.296 41.412,1.296c8.461,0 17.002,0.248 25.461,-0.118c7.287,-0.363 14.532,-1.057 21.819,-1.175c14.492,-0.242 28.943,-1.321 43.396,-1.293c15.306,0.028 30.605,0 45.865,0c13.282,0 26.558,0 39.836,0c7.488,0 14.976,0.232 22.428,-0.295c8.619,-0.607 17.243,-1.001 25.866,-0.973c7.892,0.036 15.702,-0.571 23.559,-0.689c10.322,-0.235 20.726,0.028 31.051,0.028c8.863,0 17.766,0 26.633,0c8.788,0.04 17.491,-0.846 26.236,-1.175c8.014,-0.264 16.071,-0.118 24.086,-0.118c1.903,0 3.078,-0.239 4.532,0.809c0.488,0.33 1.49,0.689 1.82,1.095z" /> <path d="M403.031,683.933c1.458,-0.028 2.996,0.295 4.371,-0.263c0.853,-0.295 1.54,-1.498 2.551,-1.82c3.521,-1.209 8.297,0 11.292,1.659c7.287,4.049 12.066,9.351 17.652,15.466c4.854,5.259 10.199,10.522 14.165,16.436c3.561,5.302 7.044,9.673 8.706,15.907c0.606,2.39 1.419,4.737 2.064,7.084c0.649,2.471 0.187,4.697 0.487,7.165c0.971,8.623 6.152,16.516 8.742,24.574c2.755,8.619 7.857,14.084 14.696,19.959c5.425,4.693 19.311,14.775 27.002,10.078c2.834,-1.743 4.819,-6.804 6.076,-9.835c1.616,-3.844 1.494,-7.488 1.372,-11.62c-0.034,-3.482 -0.366,-3.196 -3.157,-4.815c-2.311,-1.296 -4.213,-2.753 -6.882,-3.482c2.712,-2.956 8.337,0.059 11.172,1.172c3.804,1.418 8.745,3.16 11.053,6.6c4.697,7.004 1.781,14.897 2.834,22.628c0.405,2.633 0.483,1.867 2.913,2.27c2.996,0.483 4.088,1.54 7.409,0.645c6.52,-1.78 14.532,-3.077 19.796,-7.487c3.482,-2.877 6.191,-6.438 8.14,-10.487c1.781,-3.644 4.452,-8.015 5.585,-11.9c1.01,-3.561 0.809,-9.476 -2.268,-11.984c2.594,2.673 4.78,5.345 6.922,8.34c5.019,6.965 7.084,14.044 9.15,22.263c1.376,5.546 1.498,10.727 1.458,16.436c-0.075,7.044 -4.049,12.467 -7.57,18.379c-3.4,5.707 -7.57,10.325 -12.389,14.857c-5.507,5.181 -13.195,8.423 -19.959,11.662c-8.054,3.804 -17.404,2.669 -26.11,2.589c-10.121,-0.059 -19.959,-4.249 -28.904,-8.663c-3.361,-1.618 -6.804,-4.492 -9.881,-6.596c-2.751,-1.864 -5.464,-3.804 -7.531,-6.477c-4.127,-5.302 -7.165,-10.164 -9.673,-16.394c-1.863,-4.654 -4.17,-9.229 -6.438,-13.682c-2.791,-5.629 -6.717,-10.565 -8.419,-16.721c-1.093,-3.927 -1.619,-6.879 -4.088,-10.322c-1.742,-2.39 -3.199,-4.98 -4.9,-7.409c-4.618,-6.721 -8.541,-13.321 -14.13,-19.433c-3.927,-4.249 -8.215,-8.867 -12.794,-12.428c-2.024,-1.582 -2.83,-2.791 -4.492,-4.614c-1.781,-1.864 -5.464,-2.793 -6.639,-5.18c-1.054,-2.226 -0.183,-7.287 -0.112,-9.838c0.112,-4.976 1.941,-8.619 0,-13.6c-1.985,-5.019 -5.747,-9.96 -9.19,-14.17c-2.064,-2.589 -5.384,-3.966 -8.054,-5.707c-4.657,-3.038 -11.296,-6.273 -14.98,-10.404c5.829,-1.011 11.54,1.78 16.598,4.292c4.335,2.146 7.247,2.186 12.106,2.831c5.141,0.648 9.877,2.223 15.097,2.025z" /> <path d="M334.769,711.689c1.054,-5.101 2.472,-8.422 4.575,-12.958c1.741,-3.844 4.45,-6.635 6.922,-10.078c4.773,-6.602 10.563,-13.158 14.084,-20.524c-3.195,2.386 -4.126,10.157 -4.492,13.639c-1.096,9.19 -1.702,18.418 -2.877,27.608c-0.771,6.238 -2.834,12.349 -4.049,18.54c-1.297,6.517 -1.498,13.116 -2.508,19.633c-1.054,6.6 3.148,11.902 3.443,18.175c0.33,6.843 -0.109,13.765 -0.075,20.608c0.082,8.176 -0.57,17.042 -2.229,25.057c-2.303,11.049 -4.571,22.427 -9.268,32.749c-3.722,8.14 -9.35,14.453 -14.775,21.335c-2.672,3.442 -4.654,7.45 -8.136,10.203c-3.035,2.426 -7.406,3.396 -10.727,5.464c-5.99,3.723 -10.852,9.43 -17.208,12.629c-7.771,3.97 -17.485,1.659 -25.745,0.527c-10.971,-1.498 -20.683,-5.867 -30.886,-9.92c-7.327,-2.873 -14.044,-5.667 -20.804,-9.755c-6.398,-3.887 -9.837,-8.824 -12.994,-15.341c-2.563,-5.304 -2.268,-9.961 -2.268,-15.708c-0.039,-8.584 -1.655,-20.08 7.574,-24.329c2.952,-1.376 5.546,-4.244 8.58,-4.575c2.15,-0.205 4.374,0.204 6.56,-0.059c-1.458,1.659 -3.687,3.683 -4.17,5.829c-0.484,2.229 -0.109,4.941 -0.075,7.248c0.078,5.18 3.885,8.623 7.609,12.023c3.643,3.361 7.892,7.125 11.98,9.835c6.237,4.088 15.466,3.684 22.631,4.292c9.956,0.888 18.013,-0.731 27.203,-4.092c7.811,-2.793 14.251,-5.629 20.887,-10.605c6.237,-4.697 10.647,-11.741 15.057,-18.096c4.253,-6.155 7.245,-12.833 10.444,-19.593c2.838,-5.99 5.711,-11.823 7.531,-18.257c1.91,-6.839 2.146,-14.168 1.58,-21.252c-0.487,-5.786 -0.326,-12.385 -2.146,-17.892c-1.176,-3.44 -2.357,-5.546 -2.469,-9.229c-0.037,-1.863 0.075,-3.803 0.075,-5.707c0.039,-7.086 -0.409,-13.56 1.941,-20.403c2.39,-6.964 4.98,-14.491 8.258,-21.012c1.014,-2.067 2.995,-3.97 3.683,-6.072z" /></svg>