<svg xmlns="http://www.w3.org/2000/svg" viewBox="0 0 896 1024" width="896" height="1024"><path d="M309.026,651.83c-17.894,17.888 -17.894,47.034 0,64.92c17.918,17.922 47.036,17.922 64.972,0l389.772,-389.7c53.712,-53.692 53.712,-141.106 0,-194.84c-53.742,-53.738 -141.174,-53.738 -194.886,0l-409.28,409.166l0.046,0.06c-0.284,0.264 -0.584,0.542 -0.888,0.846c-89.062,89.056 -89.062,233.936 0,322.978c89.096,89.058 234.002,89.058 323.076,0c0.282,-0.274 0.55,-0.576 0.846,-0.844l279.33,-279.262l64.986,64.92l-279.332,279.292l-0.032,-0.034c-0.304,0.308 -0.546,0.602 -0.82,0.876c-125.12,125.056 -327.934,125.056 -452.988,0c-125.102,-125.05 -125.102,-327.81 0,-452.906c0.264,-0.27 0.586,-0.542 0.876,-0.846l409.23,-409.178c89.67,-89.704 235.116,-89.704 324.782,0c89.714,89.664 89.714,235.064 0,324.726l-389.772,389.708c-53.814,53.792 -141.07,53.792 -194.874,0c-53.814,-53.796 -53.814,-141.052 0,-194.844l324.81,-324.742l64.952,64.922z" /></svg>