<svg xmlns="http://www.w3.org/2000/svg" viewBox="0 0 1024 1024" width="1024" height="1024"><path d="M0,512c0,-282.77 229.23,-512 512,-512c282.77,0 512,229.23 512,512c0,282.77 -229.23,512 -512,512c-282.77,0 -512,-229.23 -512,-512zM96,512c0,229.75 186.25,416 416,416c229.75,0 416,-186.25 416,-416c0,-229.75 -186.25,-416 -416,-416c-229.75,0 -416,186.25 -416,416z" /> <path d="M384,416c0,17.673 -14.327,32 -32,32c-17.673,0 -32,-14.327 -32,-32c0,-17.673 14.327,-32 32,-32c17.673,0 32,14.327 32,32z" /> <path d="M256,416c0,53.02 42.98,96 96,96c53.02,0 96,-42.98 96,-96c0,-53.02 -42.98,-96 -96,-96c-53.02,0 -96,42.98 -96,96zM352,256c88.224,0 160,71.776 160,160c0,88.224 -71.776,160 -160,160c-88.224,0 -160,-71.776 -160,-160c0,-88.224 71.776,-160 160,-160z" /> <path d="M704,416c0,17.673 -14.327,32 -32,32c-17.673,0 -32,-14.327 -32,-32c0,-17.673 14.327,-32 32,-32c17.673,0 32,14.327 32,32z" /> <path d="M576,416c0,53.02 42.98,96 96,96c53.02,0 96,-42.98 96,-96c0,-53.02 -42.98,-96 -96,-96c-53.02,0 -96,42.98 -96,96zM672,256c88.224,0 160,71.776 160,160c0,88.224 -71.776,160 -160,160c-88.224,0 -160,-71.776 -160,-160c0,-88.224 71.776,-160 160,-160z" /> <path d="M384,704h256v64h-256z" /></svg>