<svg xmlns="http://www.w3.org/2000/svg" viewBox="0 0 785 913" width="785" height="913"><path d="M620.926,863.263c-26.87,-107.469 12.726,-214.96 -8.777,-322.424c0,-19.008 -6.211,-38.018 -3.281,-57.027c4.124,-22.674 -1.828,-45.332 -13.16,-67.993c-4.874,-24.357 -10.441,-48.164 -4.394,-72.381c3.973,-9.254 4.301,-24.879 6.586,-33.996c0.727,-5.118 1.09,-9.871 1.09,-14.257v-27.417c0,-8.036 -0.316,-16.091 2.203,-24.126c0.223,-0.737 3.645,1.458 4.383,2.193c2.93,-10.235 0,-23.761 0,-33.996v-142.019c0,-3.343 -67.778,2.797 -81.149,-0.549c-5.402,-0.674 -30.292,0.657 -36.198,0c-11.694,0 -25.592,1.463 -37.287,0c-6.715,0 -3.152,-1.097 -9.867,-1.097c0,0.549 0.176,1.097 0,1.646c-0.527,1.568 -19.686,0.993 -23.026,-0.549l-13.171,-7.677c-2.871,-1.645 -4.418,-3.302 -8.765,-4.935c-1.523,-0.57 0.48,-1.645 -8.777,-1.645c-15.831,-5.279 -26.213,-8.849 -38.377,-14.257c-6.726,-3.731 -9.808,-6.793 -40.58,-9.87c-13.007,0 -13.007,-1.42 -17.003,-2.193c-7.394,-1.432 -11.155,-2.927 -16.991,-4.387c-37.006,0 -24.937,-3.434 -20.847,-5.483c2.262,-1.939 6.41,-9.119 32.905,-12.063c15.737,0 18.421,0.219 26.319,-1.097c39.526,0 30.315,-8.798 100.894,-4.387c23.964,2.179 31.827,1.759 44.963,4.387c18.585,1.429 36.057,5.86 53.74,4.386c9.363,0 19.148,-1.655 21.937,-1.097c13.089,0 4.453,2.194 17.542,2.194c12.269,0 -1.301,-2.194 10.968,-2.194c3.867,-0.387 19.242,-0.424 21.937,0c13.137,2.075 14.742,4.37 19.734,6.58l27.421,16.45c2.309,0.768 0.657,2.194 13.16,2.194h5.484c7.91,50.086 9.867,100.16 9.867,150.244v57.027c0,10.236 2.192,22.664 -2.191,32.9c-16.768,50.305 7.055,101.294 6.586,151.34c-0.129,13.157 -13.945,26.308 -12.07,39.48c0.985,1.968 2.777,10.505 3.293,12.063c3.094,20.105 -0.445,40.211 1.102,60.317c0,53.004 25.253,105.995 20.835,159.018c0,10.485 0.925,22.39 -6.586,32.9c-5.379,9.426 -3.14,21.339 -5.484,30.707c0,35.44 -17.46,70.948 -26.319,106.376c-4.382,14.619 -10.968,27.05 -10.968,41.676c-0.914,0.915 -0.094,1.829 -0.551,2.744c-0.27,0.549 7.159,1.639 -1.641,1.639c0,-16.448 -5.484,-32.896 -5.484,-49.344zM140.589,836.938c-4.641,24.775 -11.332,46.476 -9.867,71.287c-4.535,-22.667 -12.984,-45.334 -18.644,-67.994c-0.739,-5.853 -1.102,-12.065 -1.102,-18.643v-95.411c0,-15.352 2.191,-30.707 2.191,-46.06v-66.897c0,-6.032 2.191,-12.064 2.191,-18.095v-43.319c0,-36.19 -6.574,-72.387 -6.574,-108.57c-3.586,-57.392 2.683,-114.785 7.675,-172.177c1.464,-5.848 2.191,-10.6 2.191,-16.45c1.464,-5.847 3.656,-11.697 2.191,-17.546c0,-8.774 -2.555,-16.451 -1.09,-25.224c0,-24.852 6.949,-49.726 13.16,-74.574v0.002c0,-0.008 0,-0.017 0,-0.025c0,-6.162 0.795,-12.312 2.191,-17.524c0,-12.967 3.352,-23.278 6.586,-36.19c7.441,-24.819 21.925,-49.772 21.925,-74.574c5.66,11.311 8.777,22.679 8.777,33.997c11.05,49.709 7.43,99.436 3.293,149.147c-1.464,21.933 -4.757,43.867 -7.675,65.8c0,8.774 -0.375,17.547 1.09,26.32c23.695,59.233 8.508,118.425 1.102,177.661c-4.394,13.16 -5.121,29.61 -2.191,42.771c6.081,36.544 -6.586,73.119 -6.586,109.667v74.574c0,17.183 -7.523,34.357 -10.968,51.543v9.87c0,25.214 -4.523,50.454 -7.675,75.667c-0.539,1.083 -2.027,10.463 -2.191,10.968z" /> <path d="M101.207,439.005c0,0 102.32,28.12 112.853,29.794c24.378,3.874 48.141,10.635 72.422,14.493l49.955,7.938c21.862,3.474 44.263,8.405 65.899,12.811l65.248,10.368c15.653,2.487 30.368,4.341 46.108,5.793c6.797,1.08 165.635,14.458 171.071,15.322c21.764,3.458 82.371,3.325 92.708,20.783c3.633,3.563 -4.317,39.821 -5.118,44.858c5.873,12.311 0.676,18.586 1.428,18.705l-0.238,1.495c-2.013,12.671 -106.49,-10.87 -117.655,-12.644l-83.091,-13.203c-80.302,-12.76 -157.277,-19.262 -236.732,-36.164c-75.096,-22.261 -158.105,-43.359 -236.918,-48.136c-29.498,-4.687 -71.16,1.038 -98.686,-10.436l0.35,-2.204c17.434,-18.209 -4.313,-50.31 13.212,-68.667c3.695,-5.545 63.092,15.997 64.168,9.228l23.016,-0.135z" /> <path d="M660.833,642.219l20.035,3.783c-0.013,6.854 54.763,-4.998 57.205,1.063c12.693,20.903 -10.76,49.15 1.875,69.893l-0.004,2.231c-25.594,6.966 -61.091,-5.293 -87.451,-5.342c-69.341,-7.779 -144.629,-0.109 -213.186,9.964c-71.602,4.091 -139.586,10.021 -211.346,9.888c-10.328,-0.02 -59.969,-11.826 -74.249,-11.853c-9.977,-0.019 -104.313,6.659 -104.289,-6.171l0.003,-1.514c0.672,0.001 -2.975,-7.018 3.869,-18.242c0.01,-5.1 -1.829,-42.16 1.836,-45.102c11.457,-15.598 64.246,-5.857 83.695,-5.821c4.857,0.009 145.13,23.699 151.204,23.71c13.917,1.062 26.999,1.564 40.987,1.59l58.307,0.108c19.469,-0.92 39.68,-2.157 59.216,-2.121l44.64,0.083c21.698,0.04 43.354,-14.662 65.139,-14.622c9.413,0.018 102.512,-11.524 102.512,-11.524z" /> <path d="M113.663,345.272c-0.354,-6.844 -55.866,7.997 -58.694,2.079c-14.13,-20.176 8.397,-49.67 -5.666,-69.69l-0.115,-2.228c25.861,-8.36 62.904,1.933 89.926,0.535c71.494,3.962 148.256,-7.829 217.989,-21.651c73.175,-8.015 143.169,-5.97 216.732,-9.776l76.118,-3.938c10.228,-0.529 106.568,-12.376 107.231,0.437l0.078,1.512c-0.689,0.035 3.426,6.845 -2.989,18.428c0.263,5.093 4.134,41.999 0.534,45.138c-10.908,16.205 -65.541,9.376 -85.478,10.407c-4.98,0.257 -149.408,-4.001 -155.635,-3.679c-14.323,-0.296 -27.76,-0.08 -42.099,0.662l-59.773,3.092c-19.908,1.987 -40.554,4.412 -60.581,5.448l-45.762,2.368c-22.242,1.151 -44.283,5.244 -66.615,6.399c-9.65,0.5 -104.461,17.135 -104.461,17.135z" /> <path d="M705.102,387.239l19.242,15.266c-3.904,7.457 61.302,25.024 60.468,32.983c1.685,29.827 -39.387,47.542 -37.673,77.163l-1.271,2.428c-31.278,-6.653 -62.215,-39.753 -90.328,-54.471c-69.61,-47.049 -154.34,-80.582 -233.247,-107.752c-78.762,-35.379 -148.054,-79.5 -224.587,-119.568l-79.191,-41.459c-10.641,-5.571 -115.143,-50.781 -107.834,-64.741l0.863,-1.647c0.717,0.375 0.808,-9.299 14.486,-17.715c2.905,-5.549 17.498,-26.854 23.126,-28.105c21.03,-10.533 73.478,30.845 94.231,41.71c5.18,2.712 150.997,72.313 157.475,75.705c14.255,8.9 27.936,16.725 42.854,24.535l62.186,32.556c21.308,9.829 43.632,19.639 64.468,30.547l47.61,24.926c23.141,12.115 47.909,20.994 71.143,33.158c10.039,5.255 115.981,44.48 115.981,44.48z" /></svg>