<svg xmlns="http://www.w3.org/2000/svg" viewBox="0 0 1024 855" width="1024" height="855"><path d="M574.6,6.6c183.2,35.6 312,208 381.6,369.6c19.2,44.6 35,91 46.6,138.2c5.8,23.2 10.6,46.4 14.2,70c2,12 3.6,24 4.8,36.2c1,10.2 4.8,23.2 -0.6,32c-49.4,81.8 -135.2,132.4 -224.2,161.4c-104.2,34 -216.2,43 -325.2,39.4c-105.6,-3.6 -214.2,-20 -310.4,-65.4c-42.2,-20 -82,-45.8 -114.8,-79.4c-16,-16.2 -30.2,-34.2 -42.2,-53.6c-4,-6.4 -4.4,-8.8 -3.8,-16.4c0.4,-6 1,-12 1.6,-18c1.2,-11.2 2.8,-22.2 4.4,-33.2c14.8,-96.6 47,-191 93,-277.2c81.6,-153.2 225.6,-309.6 412.4,-309.6c21,0 42,2 62.6,6zM631.2,779.2c91.8,-8.6 192.8,-27.8 267.4,-85.6c17.8,-13.8 34,-30.2 46,-49.2c5,-8 11.8,-18.6 13.2,-28.4c1,-7 -1.6,-14.8 -2.8,-21.6c-2,-12.4 -3.8,-20 -9.2,-31.2c-25.2,-51.8 -52.8,-103 -84.6,-151c-20.6,-31 -44,-59.6 -68.2,-87.8c-25.4,-29.6 -52,-58.8 -82,-83.8c-17.6,-14.6 -50,-43 -75.4,-29.2c-14.2,7.6 -25.8,21 -36.4,32.8c-15.8,17.4 -30.2,35.8 -44.8,54c-29.4,37 -57.8,76.4 -93.2,108.2c-10.4,9.4 -23.4,20.8 -38,22.6c-21.2,2.6 -40.2,-12.8 -54.4,-26.4c-29.4,-28.2 -66.4,-84.2 -114.8,-72.6c-15.8,3.8 -29.4,15.8 -40.6,27c-16,16 -29.8,34.4 -42.8,53c-26.2,37.8 -48.8,78 -69.8,118.6c-6.2,12 -12.2,24 -18,36.2c-4.2,8.8 -5,18 -6.8,27.4c-2.6,14.6 -4.6,19.4 1,31.8c19.2,42.6 60,73.6 100,95c102.8,55 227.2,65.2 341.4,65.2c37.6,0 75.2,-1.4 112.8,-5z" /></svg>