<svg xmlns="http://www.w3.org/2000/svg" viewBox="0 0 736 1024" width="736" height="1024"><path d="M532.883,90.155c7.51,-1.835 15.19,-4.011 22.699,-6.315c-24.362,17.493 -48.17,16.811 -69.845,-2.176c14.507,-26.154 31.019,-37.162 57.515,-50.517c19.798,-9.984 57.302,-35.499 78.635,-30.507c14.336,34.518 -60.331,101.504 -89.003,89.515z" /> <path d="M607.083,171.007c1.152,-6.528 12.16,0.171 22.144,11.819c14.677,55.339 -81.835,90.667 -126.507,86.827c-3.328,-18.475 5.674,-39.509 14.037,-54.656c20.138,-37.504 53.802,-34.176 90.325,-43.989z" /> <path d="M642.41,353.664c4.309,8.491 -9.685,25.344 -15.36,32.512c-23.638,30.165 -55.808,30.635 -92.459,45.312c-30.208,11.819 -58.368,11.179 -38.187,-27.008c16.854,-31.488 68.182,-56.15 102.187,-56.491c2.646,8.832 34.304,-13.824 43.819,5.675z" /> <path d="M612.073,500.991c16.811,-2.005 35.67,22.187 28.331,39.339c-4.48,10.326 -20.01,13.312 -25.685,22.315c-33.493,10.197 -58.666,38.187 -92.629,45.696c-7.339,-16.512 -6.699,-40.363 -0.683,-55.168c17.494,-43.861 55.51,-33.365 90.667,-52.181z" /> <path d="M156.565,52.993c2.858,0.682 4.693,14.506 6.357,16.853c0,0 0,0.128 0.128,0.128c4.864,6.869 3.2,16.512 -4.651,19.84c-40.661,17.664 -130.816,-41.984 -128,-76.843c0.512,-5.163 4.352,-9.302 9.344,-10.795c42.154,-12.203 78.677,42.155 116.821,50.816z" /> <path d="M170.901,255.318c11.349,27.008 -22.486,20.181 -41.515,13.525c-19.798,-6.87 -27.307,-14.336 -45.995,-26.667c-12.8,-8.363 -42.838,-10.838 -51.499,-24.363c-32.64,-50.005 34.176,-32.17 53.163,-26.837c34.176,9.856 78.848,20.01 85.845,64.341z" /> <path d="M175.551,416.512c6.186,25.131 -21.334,13.654 -37.163,8.491c-31.658,-10.326 -65.493,-20.694 -97.493,-31.659c10.667,-86.357 105.856,-18.005 135.68,20.48c-8.021,2.517 -4.352,2.816 -1.024,2.688z" /> <path d="M183.914,595.84c-19.67,20.65 -39.68,0.981 -68.011,-13.995c-16.853,-8.875 -65.493,-15.872 -72.661,-39.68c-21.333,-70.187 123.349,-0.341 139.008,5.504c9.643,7.808 29.653,18.646 1.664,48.171z" /> <path d="M451.22,124.501c-0.981,0.981 -1.493,1.835 -1.323,2.005c-1.493,-0.683 -3.328,0.469 -4.651,1.493c-13.824,10.325 -127.829,102.144 -123.861,115.157c-12.16,-39.851 -43.648,-69.504 -67.797,-100.651c-14.848,-19.328 -54.357,-31.019 -62.336,-50.517c7.808,-4.651 16.981,-7.851 25.131,-8.832c-0.64,11.179 55.851,39.339 68.693,52.651c10.155,10.496 23.168,22.869 31.317,34.517c6.528,9.685 3.84,18.816 15.36,25.984c27.989,-25.643 55.168,-48.299 86.997,-70.485c13.824,-9.813 37.632,-38.016 52.48,-19.157c0.683,0.811 -15.317,13.141 -20.011,17.835z" /> <path d="M205.716,263.979c19.029,10.197 43.349,10.496 62.037,23.339c18.304,12.672 23.979,29.184 37.504,45.824c16.64,20.523 40.149,29.184 45.824,57.515c-7.339,-97.664 69.163,-120.661 125.995,-171.648c6.656,41.984 -35.84,55.637 -58.837,84.139c-27.648,33.835 -71.851,63.36 -70.315,110.677c-31.189,-24.491 -53.035,-50.816 -77.696,-84.651c-18.005,-24.533 -44.843,-34.859 -69.504,-51.499c2.859,-4.011 3.328,-5.333 8.021,-8.363c6.997,2.517 -2.859,3.029 -3.029,-5.333z" /> <path d="M449.258,408.492c23.125,31.147 -84.864,112.982 -91.179,146.987c-34.688,-4.821 -44.331,-39.339 -65.835,-60.8c-12.16,-12.032 -30.336,-19.2 -44.672,-28.843c-12.33,-8.192 -21.674,-16.342 -32.981,-23.851c-1.195,-4.48 -1.195,-11.478 0,-16.171c49.322,4.992 91.989,62.678 132.821,86.187c10.667,-22.358 33.323,-25.856 50.987,-43.179c17.152,-16.811 27.691,-50.176 50.859,-60.331z" /> <path d="M246.079,581.333c3.499,28.501 57.984,44.843 81.664,59.989c15.317,9.984 30.848,27.648 37.163,43.648c12.501,-24.832 54.656,-93.483 87.509,-89.131c3.84,27.477 -140.331,184.491 -108.032,146.475c-2.304,-1.152 -4.309,-2.176 -7.125,-2.816c1.664,-57.856 -35.371,-82.688 -75.008,-110.165c-9.856,-6.827 -38.016,-16.683 -36.011,-31.189c2.987,-22.997 28.501,1.024 19.84,-16.811z" /> <path d="M528.746,696.832c-3.029,-0.853 -4.693,1.152 -5.504,-2.347c42.837,-10.496 117.333,-50.005 150.016,-81.493c24.32,79.317 90.325,135.851 49.664,226.816c-18.859,42.368 -50.005,85.504 -85.504,114.859c-29.184,24.32 -67.84,31.659 -100.523,49.493c53.675,-37.845 107.691,-93.184 111.019,-166.827c3.157,-71.68 -66.688,-121.856 -124.501,-139.52c-0.341,3.499 1.323,4.181 5.333,-0.981z" /> <path d="M212.585,717.653c-57.856,17.493 -127.829,67.84 -124.501,139.52c3.328,73.643 57.301,128.982 110.976,166.827c-32.811,-17.834 -71.339,-25.344 -100.48,-49.493c-35.499,-29.355 -66.688,-72.534 -85.504,-114.859c-40.661,-91.008 25.344,-147.499 49.664,-226.816c32.683,31.488 107.179,70.997 150.016,81.493c-0.853,3.499 -2.517,1.493 -5.504,2.176c3.797,5.333 5.632,4.651 5.333,1.152z" /> <path d="M256.915,787.328c-14.336,-4.523 -6.699,-36.651 -5.163,-59.179c33.323,13.184 77.654,71.851 113.963,67.499c37.333,-4.48 75.008,-58.838 103.168,-73.003c0,19.328 14.677,37.504 17.536,56.021c3.158,21.674 -0.682,47.146 -5.845,66.645c-12.331,47.36 -22.656,132.352 -50.859,166.187c-16.981,-58.026 -8.149,-166.826 -65.493,-206.165c-3.669,14.336 -0.81,31.83 -5.333,45.995c-5.504,16.512 -14.506,24.491 -16.981,42.155c-5.675,39.168 5.675,78.848 5.504,118.016c-35.328,-67.84 -90.496,-139.35 -90.496,-224.171z" /></svg>