<svg xmlns="http://www.w3.org/2000/svg" viewBox="0 0 1024 1024" width="1024" height="1024"><path d="M354.6,462.8h-114v-119.6h105.4c10,0 19.8,0.8 29,2.6c9.4,1.6 17.6,4.6 24.8,9c7.4,4.2 13,10.2 17.4,17.8c4.2,7.6 6.2,17.4 6.2,29.4c0,21.6 -6.2,37.2 -19.2,46.6c-13,9.6 -29.6,14.4 -49.6,14.2z" /> <path d="M444.2,613.2c0,13.4 -2.2,24.6 -6.8,33.2c-4.6,8.6 -10.8,15.4 -18.4,20.4c-7.6,5.2 -16.6,8.6 -26.6,10.8c-10,2.2 -20.4,3.2 -31.6,3.2h-120.2v-141h122.6c24.4,0 44,5.6 58.8,16.8c14.8,11.4 22.2,30.2 22.2,56.6z" /> <path d="M1024,96v832c0,52.8 -43.2,96 -96,96h-832c-52.8,0 -96,-43.2 -96,-96v-832c0,-52.8 43.2,-96 96,-96h832c52.8,0 96,43.2 96,96zM671.2,320h207.4v-50.6h-207.4zM556.4,619.2c0,-32 -7.6,-59.4 -23.2,-82.2c-15.4,-22.6 -38.6,-38.6 -70.2,-47.6c23.2,-11 40.4,-25 52.2,-42.2c11.8,-17.2 17.6,-38.6 17.6,-64.4c0,-23.8 -4,-44 -11.8,-60c-8,-16.2 -19.2,-29.2 -33.4,-39c-14.4,-9.8 -31.6,-17 -51.6,-21.2c-20.2,-4.2 -42.4,-6.4 -66.8,-6.4h-241.2v511.8h248.2c22.8,0 45.2,-2.8 66.8,-8.6c21.8,-5.8 41.2,-14.6 58.2,-26.6c16.8,-12 30.4,-27.4 40.4,-46.4c10,-18.6 15,-41 14.8,-67.2zM952.4,525c-6.8,-26.4 -17.4,-49.8 -32.6,-70.4c-15.2,-20.6 -34.4,-37 -57.8,-49.2c-23.6,-12.4 -51,-18.4 -82.4,-18.4c-28.4,0 -54,5 -77.2,15c-23.2,10.2 -43.2,24 -60,41.4c-16.8,17.2 -29.6,38 -38.8,62c-9,24 -13.6,49.8 -13.6,77.6c0,28.6 4.6,55.2 13.4,79c9,24 21.4,44.6 37.6,61.8c16.6,17.2 36.2,30.4 59.8,39.8c23.6,9.2 49.8,14 79,14c41.8,0 77.8,-9.6 107.2,-28.8c29.8,-19.2 51.6,-51 66,-95.6h-89.6c-3.4,11.4 -12.4,22.4 -27.2,32.8c-15,10.4 -32.6,15.6 -53.2,15.6c-28.6,0 -50.6,-7.6 -65.8,-22.4c-15.2,-15 -25.2,-42.8 -25.2,-72h267.4c1.8,-28.8 -0.4,-56.2 -7,-82.2z" /> <path d="M834.4,484.6c12,13.4 21,32.6 23.4,58.6h-165.6c0.4,-7.2 2,-15.4 4.6,-24.4c2.6,-9.4 7,-18 13.6,-26.2c6.6,-8 15.2,-14.8 25.8,-20.4c10.6,-5.6 24.2,-8.4 40.4,-8.4c25,0 45.4,7.2 57.8,20.8z" /></svg>