<svg xmlns="http://www.w3.org/2000/svg" viewBox="0 0 910 928" width="910" height="928"><path d="M285.079,62.645c2.835,0 5.59,-0.205 8.426,0.102c7.787,1.037 15.372,2.998 23.198,4.035c5.15,0.719 10.222,1.12 15.412,1.644c7.106,0.719 13.775,1.993 20.642,3.634c6.989,1.644 14.014,2.68 21.122,3.718c18.926,2.721 38.051,4.477 57.017,7.065c12.337,1.674 24.715,2.917 37.013,4.59c8.624,1.15 17.289,1.644 25.913,2.516c5.03,0.514 10.063,0.924 15.052,1.644c0.319,0.036 5.191,0.411 5.989,0.719c1.119,0.411 1.836,1.52 2.076,2.557c0.4,1.52 -0.36,2.987 -0.637,4.427c-0.4,1.95 -0.164,4.077 -0.164,6.027v12.497c0,1.993 -0.596,4.631 -0.04,6.541c0.277,1.078 1.238,1.757 0.4,2.721c-0.719,0.821 -3.473,1.437 -4.591,2.074c-3.035,1.757 -6.788,2.598 -10.102,3.995c-2.276,1.026 -4.751,1.037 -7.106,1.88c-3.074,1.078 -5.949,2.721 -8.584,4.354c-5.471,3.429 -11.3,6.428 -17.049,9.468c-1.955,1.026 -4.032,2.033 -5.909,3.194c-2.555,1.602 -4.231,3.594 -6.309,5.587c-1.716,1.602 -3.553,2.987 -5.309,4.549c-1.398,1.201 -2.516,2.793 -4.193,3.718c-1.596,0.924 -3.593,1.837 -5.35,2.28c-1.119,0.309 -2.197,0.411 -3.315,0.924c-1.518,0.719 -2.156,1.16 -3.914,1.479c-1.557,0.309 -2.675,0.719 -4.073,1.397c-1.557,0.719 -3.035,1.078 -4.432,1.921c-1.358,0.821 -3.513,3.234 -5.389,3.07c-0.04,0 -0.637,-0.719 -0.801,-0.719c-1.955,-0.821 -3.555,-0.924 -5.749,-1.243c-10.781,-1.273 -20.562,-5.945 -31.264,-7.588c-4.952,-0.719 -10.063,-1.026 -15.013,-1.797c-5.549,-0.924 -10.9,-2.557 -16.371,-3.83c-3.111,-0.719 -6.107,-1.56 -9.142,-2.474c-5.351,-1.56 -10.66,-2.433 -16.171,-3.398c-12.737,-2.197 -24.956,-6.346 -37.572,-8.984c-6.467,-1.397 -12.976,-2.516 -19.445,-4.035c-4.193,-1.037 -8.225,-1.921 -12.537,-2.68c-12.337,-2.074 -24.914,-2.834 -37.212,-5.073c-3.354,-0.616 -6.706,-1.233 -10.102,-1.757c-1.239,-0.205 -3.873,-0.205 -4.751,-1.15c-0.277,-0.309 0,-0.719 -0.08,-1.037c-0.801,-2.351 -0.596,-5.515 -0.76,-7.948c-0.441,-8.101 -0.039,-16.25 -0.039,-24.358c0,-3.758 -0.883,-8.388 0.596,-11.978c0.841,-2.033 1.278,-1.644 3.873,-1.993c4.272,-0.616 8.265,-2.957 12.178,-4.354c7.147,-2.598 13.935,-5.864 21.201,-8.265c7.227,-2.433 13.775,-5.904 21.56,-7.065c3.992,-0.616 8.265,-1.313 21.801,-2.557z" /> <path d="M132.951,148.208c14.413,1.16 28.669,3.398 43.081,4.631c25.672,2.197 51.228,5.308 76.063,11.298c7.426,1.797 14.813,3.676 22.319,5.186c5.231,1.078 10.301,2.238 15.453,3.594c3.873,1.026 7.707,2.156 11.698,2.68c10.741,1.356 21.881,1.961 32.46,3.913c3.114,0.616 6.149,0.924 9.184,1.52c1.358,0.205 2.755,-0.072 4.152,0.205c0.596,0.102 1.038,0.411 1.676,0.514c0.883,0.102 2.675,-0.514 3.114,0.411c0.319,0.514 -0.677,1.921 -0.801,2.516c-0.677,3.594 0.04,7.824 0.04,11.419c0,3.83 -0.883,8.348 0.996,11.861c1.038,1.921 1.078,3.913 -0.996,5.391c-1.038,0.719 -1.916,1.273 -3.035,1.88c-5.15,2.793 -9.304,7.065 -13.615,10.661c-1.637,1.356 -2.915,2.917 -4.712,4.148c-3.473,2.433 -6.788,4.794 -9.983,7.464c-6.989,5.874 -14.574,11.461 -22.319,16.61c-2.396,1.602 -4.712,3.276 -7.068,4.908c-1.955,1.356 -4.271,3.676 -6.588,4.549c-2.396,0.924 -4.314,-0.514 -6.588,-1.356c-5.549,-1.993 -11.059,-3.718 -17.01,-4.754c-6.987,-1.16 -13.536,-2.033 -20.282,-4.035c-7.586,-2.197 -14.973,-3.317 -22.919,-4.23c-9.901,-1.12 -19.205,-4.035 -29.028,-5.268c-5.35,-0.719 -10.581,-0.309 -15.93,-0.309c-7.707,0.073 -14.694,-0.719 -22.279,-1.837c-6.947,-1.026 -13.815,-2.474 -20.843,-3.234c-2.755,-0.309 -5.59,-0.411 -8.305,-0.924c-1.398,-0.205 -2.556,-0.036 -3.035,-1.273c-0.524,-1.437 0.237,-3.881 0.164,-5.391c-0.164,-3.154 -0.719,-6.234 -0.841,-9.385c-0.039,-2.71 -0.637,-5.195 -1.558,-7.784c-0.883,-2.393 -1.836,-4.794 -2.594,-7.187c-0.319,-1.12 -0.883,-2.156 -1.197,-3.234c-0.237,-0.719 0.123,-1.921 -0.841,-2.31c2.236,2.71 3.195,6.387 4.073,9.662c1.038,3.995 1.955,8.431 2.156,12.499c0.123,3.081 0.76,5.914 0.76,9.026c0,1.921 0.913,5.668 -0.123,7.147c-2.556,-0.924 -4.871,-1.644 -7.586,-2.197c-5.631,-1.12 -10.581,-3.194 -15.93,-4.837c-6.508,-1.993 -13.335,-3.317 -19.844,-5.227c-2.675,-0.719 -5.51,-0.821 -8.185,-1.397c-0.719,-0.102 -1.239,-0.514 -1.955,-0.616c-0.484,-0.073 -1.836,0.309 -2.236,-0.073c-0.996,-0.924 0.913,-4.067 1.119,-4.908c1.078,-3.594 1.955,-7.352 2.516,-11.063c0.554,-3.511 -0.164,-6.747 -0.637,-10.217c-0.237,-1.95 -0.677,-3.913 -0.996,-5.874c-0.319,-2.074 -0.164,-4.59 -0.76,-6.623c-0.277,-1.026 -1.317,-2.321 -0.36,-3.317c0.801,-0.924 3.315,-0.514 4.391,-0.719c2.715,-0.411 5.43,-1.479 7.865,-2.433c3.354,-1.356 6.668,-2.753 9.862,-4.354c2.994,-1.479 5.43,-3.398 8.147,-5.155c3.354,-2.238 6.868,-2.834 10.462,-4.59c1.955,-0.924 3.674,-2.31 5.51,-3.398c8.026,-4.826 16.929,-8.861 23.717,-14.175z" /> <path d="M249.709,326.554c0.999,0.175 1.877,0.066 2.915,0.102c0.438,0 0.839,0.207 1.239,0.309c-0.277,1.439 -0.359,2.794 -0.596,4.314c-0.559,3.234 -0.96,6.581 -1.637,9.775c-0.39,1.88 -0.196,2.64 0.164,4.437c0.157,0.841 0.321,2.013 -0.039,2.834c-3.514,0.594 -7.467,-0.205 -10.94,-0.719c-5.99,-0.843 -11.62,-1.778 -17.688,-1.88c-6.986,-0.102 -14.014,0 -21.042,0c-15.691,0 -31.343,0 -47.034,0c-17.887,0 -35.775,0.035 -53.622,0c-9.781,0 -19.044,0.33 -28.747,1.356c-6.828,0.679 -13.696,1.602 -20.523,2.116c-6.668,0.553 -13.216,1.796 -19.884,2.31c-6.149,0.484 -12.538,0.443 -18.567,1.644c-1.916,0.401 -2.839,1.038 -3.752,-0.719c-0.288,-0.637 -0.247,-1.5 -0.484,-2.116c-0.638,-1.643 -1.755,-3.193 -2.474,-4.837c-1.358,-3.081 -2.477,-6.191 -3.555,-9.345c-0.604,-1.798 -0.481,-3.398 -0.841,-5.155c-0.4,-1.798 -0.8,-3.8 -0.123,-5.474c0.88,0 1.755,-0.039 2.556,-0.075c-0.758,0 -1.56,0 -2.156,-0.102c0.598,-0.913 1.802,-1.221 2.715,-1.837c0.164,-0.102 0.318,-0.309 0.441,-0.411l-1.797,0.309c-0.917,0.596 -1.439,1.397 -1.758,2.116c-1.119,-0.102 -2.191,-0.205 -2.715,-0.616c0.998,-1.037 1.919,-2.31 2.556,-3.553c1.796,-3.553 4.551,-6.583 6.748,-9.981c0.919,-1.439 1.323,-3.04 2.236,-4.437c0.878,-1.273 2.113,-2.474 2.954,-3.871c3.392,-5.51 6.865,-11.055 10.42,-16.529c0.878,-1.355 1.995,-5.031 3.992,-5.75c1.481,-0.615 0.802,0.309 1.758,0.411c0.758,0.102 1.435,0.027 2.236,0.102c0.833,0.103 1.12,0.439 1.716,0.514c0.877,0.137 1.472,0.027 2.355,0.102c2.554,0.277 5.19,0.79 7.745,1.201c9.265,1.54 19.365,0.821 28.789,0.821h53.942c12.019,0 23.917,0.319 35.855,-0.924c12.139,-1.335 24.637,0 36.854,-0.411c6.587,-0.246 13.056,-1.078 19.644,-1.283c0.518,-0.103 1.072,-0.132 1.596,-0.205c4.151,-0.544 8.503,-1.058 12.696,-1.16c3.395,-0.103 8.905,-0.617 12.418,0.102c0,0.205 0.125,0.411 0.164,0.616c0.236,0 0.44,-0.036 0.677,-0.036l-0.677,0.102c0.36,1.84 1.199,3.594 1.518,5.474c0.32,2.032 -0.276,4.272 -0.08,6.346c0.318,3.759 1.282,7.475 1.836,11.223c0.521,3.476 1.84,6.946 2.117,10.417c-0.639,-0.309 -1.117,-1.028 -1.836,-1.233c-0.554,2.834 0,6.11 0,9.108c0,0.205 0,0.512 0,0.821c-0.082,1.202 -0.196,2.363 -0.319,3.553h0.039z" /> <path d="M313.123,367.101c-4.233,3.092 -1.597,3.194 0,3.913c1.437,0.596 2.554,1.479 4.032,1.993c2.075,0.761 4.352,1.202 6.428,1.921c2.315,0.873 4.231,2.31 6.467,3.234c1.479,0.626 3.076,0.934 4.553,1.55c4.472,1.757 8.703,3.995 13.176,5.792c4.711,1.92 9.782,3.45 14.893,4.271c3.635,0.637 7.028,1.572 10.741,1.674c0.959,0.029 1.679,0 2.675,0.102c2.238,0.4 2.515,0.637 2.475,2.474c0,1.118 0.032,2.156 -0.164,3.234c-0.402,1.963 -1.478,3.481 -1.398,5.474c0.081,2.917 -1.16,5.864 -1.437,8.821c-0.204,2.074 -0.204,4.158 -0.164,6.274c0,0.801 0.564,4.365 0.08,5.391c-0.677,1.405 -2.234,1.2 -3.992,1.714c-1.159,0.307 -2.796,0.41 -3.834,0.821c-0.277,0.103 -0.637,0.646 -0.801,0.719c-2.315,1.439 -5.189,2.989 -7.345,4.549c-1.119,0.833 -1.318,1.346 -2.955,1.757c-1.557,0.422 -3.075,0.832 -4.473,1.243c-2.515,0.748 -5.91,0.41 -8.504,0.821c-2.873,0.401 -5.309,1.038 -8.104,1.757c-5.389,1.295 -11.179,1.295 -16.689,2.116c-11.26,1.633 -22.519,3.43 -33.819,4.631c-5.791,0.605 -11.42,1.879 -17.13,2.598c-3.515,0.524 -7.066,0.729 -10.621,1.243c-4.032,0.556 -7.506,1.604 -11.419,2.63c-4.553,1.223 -9.344,1.53 -14.095,2.044c-17.169,1.807 -34.297,4.848 -51.546,5.874c-4.391,0.308 -8.705,0.205 -13.096,0.719c-1.239,0.103 -3.913,1.233 -5.191,0.514c-0.277,-0.123 -0.564,-0.955 -0.801,-1.16c-1.278,-1.273 -3.873,-2.157 -5.351,-3.194c-1.878,-1.313 -3.513,-2.073 -5.51,-3.11c-2.796,-1.468 -5.749,-3.265 -8.185,-5.186c-3.074,-2.433 -6.149,-4.149 -9.423,-6.346c-2.195,-1.48 -3.912,-3.317 -6.029,-4.837c-2.235,-1.591 -4.871,-2.874 -7.346,-4.23c-4.194,-2.269 -7.867,-5.073 -12.019,-7.424c-1.956,-1.078 -5.112,-2.045 -6.068,-3.995c-0.754,-1.52 0.124,-3.04 0.484,-4.477c0.564,-2.278 0.164,-4.918 0.164,-7.228c0,-1.078 0.039,-2.156 0,-3.234c0,-1.593 0.401,-2.588 0.801,-4.067c0.523,-1.84 0.596,-4.19 0.76,-6.111c0.153,-1.633 0.749,-3.223 0.913,-4.867c6.308,-0.554 12.456,-1.335 18.765,-2.156c8.306,-1.078 16.49,-1.951 24.875,-2.875c9.544,-1.028 19.127,-1.552 28.669,-2.63c6.788,-0.739 13.576,-1.046 20.403,-1.56c10.858,-0.801 21.64,-2.157 32.46,-3.194c18.885,-1.797 37.851,-4.026 56.537,-6.747c7.427,-1.038 14.772,-2.054 22.199,-2.875c1.639,-0.206 3.315,-0.513 4.952,-0.411z" /> <path d="M445.288,445.185c1.278,-0.036 1.877,0.205 3.035,0.514c2.795,0.616 6.11,0.309 9.023,0.616c6.428,0.821 13.096,2.116 19.605,2.197c2.675,0.035 5.03,0.102 7.666,0.514c1.078,0.102 2.197,0 3.274,0.309c1.518,0.411 1.278,0.821 1.558,1.837c0.4,1.56 0.637,3.317 0.883,4.95c0.677,4.507 0.719,8.903 0.719,13.453c0,2.156 0.277,4.477 -0.04,6.634c-0.36,2.156 -1.278,4.271 -1.716,6.511c-0.956,4.794 -2.715,9.785 -4.473,14.413c-1.119,2.875 -2.715,5.391 -3.513,8.388c-0.883,3.398 -1.119,6.828 -1.916,10.258c-1.119,4.631 -1.917,9.468 -2.556,14.175c-0.76,5.832 -3.834,11.179 -4.751,16.887c-0.237,1.644 -0.484,3.357 -0.956,4.908c-0.596,2.033 -0.596,3.871 -0.596,6.027c0,2.361 0,4.754 0,7.147c0,1.837 -0.4,2.793 -1.676,4.19c-0.677,0.719 -1.955,2.238 -3.035,2.71c-0.956,0.411 -2.315,0.411 -3.473,0.616c-4.352,0.924 -8.864,1.12 -13.335,1.674c-8.026,0.924 -15.972,1.397 -24.077,1.797c-6.11,0.309 -12.298,0.821 -18.447,0.924c-2.954,0 -5.59,-0.411 -8.504,-0.821c-2.396,-0.411 -4.751,-0.821 -7.106,-1.19c-4.712,-0.719 -9.542,-0.514 -14.215,-1.283c-12.657,-2.074 -25.672,-1.313 -38.531,-1.313h-7.946c-1.557,0 -4.032,0.411 -5.471,-0.102c-0.36,-1.602 -0.08,-3.429 -0.08,-5.073v-11.058c0,-3.511 -0.04,-7.065 0,-10.621c0.04,-1.88 -1.238,-3.07 0,-4.714c1.238,-1.644 3.713,-1.921 5.03,-3.634c0.637,-0.821 0.637,-1.479 1.398,-2.361c1.238,-1.437 2.595,-2.753 3.632,-4.354c2.835,-4.19 5.909,-8.348 8.865,-12.499c3.834,-5.308 7.547,-10.86 11.62,-16.092c4.391,-5.627 8.026,-11.74 12.937,-17.051c5.31,-5.75 10.781,-11.298 15.532,-17.325c3.114,-3.913 7.666,-7.024 10.501,-11.058c1.836,-2.639 3.752,-5.35 6.188,-7.671c3.354,-3.234 6.629,-5.904 12.058,-5.904c6.548,0.035 12.976,0 19.524,0.514c5.749,0.514 11.578,-0.411 17.249,0.924c0,0.205 0.04,0.411 -3.873,1.201z" /> <path d="M526.518,497.955c2.875,1.961 10.5,1.961 18.127,1.961c5.271,0 10.46,0 15.691,-0.514c3.434,-0.308 7.068,-0.822 10.502,-0.924c2.874,-0.073 5.629,0.132 8.464,-0.073c7.027,-0.594 13.935,-1.735 20.962,-2.351c1.637,-0.137 4.273,-0.549 5.87,-0.035c1.557,0.524 3.395,2.177 4.712,2.998c1.916,1.201 3.755,2.434 5.71,3.594c5.391,3.116 10.181,7.224 15.013,10.9c3.593,2.751 7.665,4.867 11.22,7.701c2.035,1.673 4.433,2.874 6.748,4.271c2.436,1.477 4.631,3.192 7.106,4.671c2.276,1.314 4.752,2.392 6.908,3.871c2.274,1.551 4.353,3.306 6.588,4.908c4.473,3.234 9.863,5.74 14.056,9.138c1.758,1.716 3.594,3.348 5.51,4.95c1.956,1.273 4.032,2.433 6.149,3.511c3.273,1.951 6.268,4.027 9.622,5.864c2.156,1.202 6.467,2.722 7.186,5.155c0.401,1.356 -0.04,3.193 -0.04,4.59c0,3.081 -0.247,6.109 0.554,9.149c1.196,4.512 0.355,8.906 1.196,13.373c0.277,1.674 1.55,4.991 0.554,6.705c-1.479,2.587 -7.707,3.316 -10.462,3.83c-2.515,0.442 -3.831,1.437 -6.028,2.156c-1.478,0.411 -3.274,0.309 -4.832,0.309c-3.074,-0.035 -6.188,-0.035 -9.262,-0.035h-31.782c-10.54,0 -21.083,-0.036 -31.623,0c-2.834,0.043 -5.35,-0.697 -8.105,-1.313c-1.479,-0.308 -2.595,-0.684 -4.073,-0.719c-0.758,0 -1.998,0.278 -2.675,0.073c-1.755,-0.606 -2.111,-2.752 -2.994,-4.035c-2.316,-3.276 -5.231,-5.75 -8.026,-8.667c-2.196,-2.311 -3.794,-4.989 -6.269,-7.105c-3.434,-2.957 -6.988,-5.031 -9.743,-8.502c-3.393,-4.312 -7.106,-8.339 -10.781,-12.497c-2.715,-2.998 -4.711,-6.316 -7.227,-9.426c-3.033,-3.789 -7.306,-6.429 -10.66,-9.94c-5.39,-5.63 -12.817,-10.028 -16.569,-16.733c-1.358,-2.352 -2.357,-4.55 -4.033,-6.747c-0.165,-0.308 -0.555,-0.514 -0.719,-0.719c-0.996,-1.479 -0.083,-1.449 0.441,-2.639c0.996,-2.268 0.319,-6.264 0,-8.502c-0.359,-2.874 -1.192,-5.709 -1.676,-8.584c-0.123,-0.884 -0.193,-2.794 -0.677,-3.718c-0.196,-0.039 -0.441,-0.039 -0.637,-0.075z" /> <path d="M695.372,525.825c7.826,-0.33 10.42,-0.842 12.217,-1.356c2.716,-0.752 5.63,-1.552 8.146,-2.753c4.513,-2.114 8.387,-5.061 12.778,-7.341c4.351,-2.278 8.584,-3.245 13.536,-4.271c3.313,-0.677 6.547,-2.043 9.901,-2.557c1.317,-0.17 2.754,0 4.112,-0.205c1.518,-0.164 3.075,-0.779 4.512,-1.19c3.475,-0.842 6.906,-1.458 10.581,-1.356c3.833,0.155 7.507,1.356 11.38,1.356c3.156,0 5.67,0.799 8.705,1.313c6.388,0.966 12.457,2.003 18.766,3.276c15.891,3.234 31.942,5.872 48.153,7.629c10.023,1.077 19.924,2.793 29.946,3.83c3.834,0.41 7.786,0.821 11.659,1.026c1.476,0 3.474,-0.308 4.67,0.616c0.917,0.718 1.398,2.433 1.758,3.357c0.839,2.116 1.357,4.355 2.117,6.511c0.956,2.598 0.8,5.268 0.76,7.948c0,3.347 0.124,6.664 -0.4,9.981c-0.277,1.837 -0.512,3.551 -0.996,5.308c-0.276,1.037 0.358,2.587 -0.196,3.511c-0.918,1.562 -4.631,2.259 -6.467,2.875c-4.514,1.592 -9.144,2.905 -13.656,4.549c-3.554,1.282 -7.029,2.577 -10.781,3.398c-4.232,0.873 -8.305,1.633 -12.457,2.834c-5.949,1.714 -10.978,4.867 -14.533,9.221c-1.597,1.921 -4.071,4.396 -4.512,6.747c-4.472,-2.876 -10.662,-4.036 -16.092,-5.073c-5.789,-1.12 -11.578,-2.26 -17.448,-3.081c-7.148,-0.996 -14.093,-2.474 -20.843,-4.754c-13.335,-4.467 -27.111,-7.188 -40.846,-10.741c-7.586,-1.96 -15.091,-3.717 -22.359,-6.387c-4.671,-1.684 -9.424,-3.08 -14.094,-4.794c-4.633,-1.716 -9.263,-3.081 -13.456,-5.474c-1.236,-0.72 -2.274,-1.243 -3.632,-1.757c-0.677,-0.308 -1.878,-0.513 -2.555,-0.924c-1.598,-0.884 -0.597,-2.958 -0.36,-4.437c0.759,-5.51 2.077,-11.263 1.997,-16.808z" /> <path d="M696.557,33.156c-0.878,3.952 -3.078,7.669 -3.274,11.776c-0.197,3.676 0.04,7.505 0.08,11.223c0,0.956 0.513,3.533 -0.164,4.354c-0.401,0.411 -1.84,0 -2.117,0.102c-2.354,0.842 -4.232,0.945 -6.668,1.356c-8.946,1.633 -17.85,4.907 -26.354,7.824c-4.153,1.395 -8.665,2.352 -12.378,4.549c-3.113,1.838 -7.027,2.794 -10.381,4.631c-2.396,1.283 -4.991,1.92 -7.306,3.276c-2.633,1.602 -3.432,3.585 -6.467,3.276c-2.515,-0.195 -5.67,-1.837 -8.225,-2.351c-2.436,-0.513 -4.752,-0.719 -7.227,-0.924c-2.996,-0.196 -5.43,-1.519 -8.385,-2.033c-2.874,-0.514 -5.908,-0.205 -8.823,-0.205c-5.349,0 -10.5,-0.308 -15.691,-0.719l24.316,8.707c-6.708,-0.433 -13.975,-2.188 -20.483,-3.79c-5.27,-1.314 -10.621,-2.073 -15.732,-3.953c-2.757,-0.996 -5.311,-2.249 -8.146,-3.07c-15.811,-1.632 -31.663,-3.072 -46.915,-7.743c-4.314,-1.326 -8.705,-2.352 -13.137,-3.276c-1.796,-0.205 -3.592,-0.41 -5.389,-0.719c-2.157,-0.309 -4.351,-0.441 -6.548,-0.514c-2.835,-0.443 -5.629,-1.059 -8.384,-1.88c-6.587,-0.955 -12.777,-3.306 -19.365,-4.785c-7.907,-1.797 -15.972,-2.761 -23.837,-4.518c-3.713,-0.831 -7.468,-1.458 -11.22,-2.074c-1.796,-0.338 -3.675,0 -5.351,-0.411c1.041,-1.754 1.237,-4.147 1.997,-6.068c1.52,-3.638 0.996,-7.386 0.996,-11.339c0.04,-2.638 0.287,-5.267 -0.237,-7.865c-0.245,-1.16 -1.325,-2.401 -0.841,-3.634c0.718,-1.839 4.073,-3.461 5.71,-4.077c2.955,-1.231 6.988,-1.334 10.301,-1.95c6.788,-1.191 13.576,-2.186 20.364,-3.429c7.826,-1.478 15.892,-1.877 23.637,-3.634c3.632,-0.841 6.986,-2.515 10.66,-3.234c6.308,-1.273 13.055,-1.592 19.404,-2.516c7.945,-1.15 16.209,-3.716 24.275,-3.511c2.595,0.041 4.992,0.687 7.547,1.201c5.11,1.007 10.34,1.202 15.411,2.28c7.228,1.52 14.136,2.65 21.482,3.676c8.027,1.078 15.814,3.111 23.918,4.035c11.779,1.273 23.318,3.913 35.097,5.186c7.547,0.8 15.054,1.754 22.52,3.11c11.42,2.041 23.318,2.844 34.657,4.794c2.516,0.433 6.352,0.32 6.989,3.154c0.318,1.592 0,4.067 -0.319,5.627z" /> <path d="M463.961,585.626c1.955,-0.309 3.354,-1.16 5.471,-1.201c2.396,0 4.391,-0.411 6.788,-0.821c6.75,-1.12 14.055,-0.205 20.922,-0.205h36.374c2.835,0 8.864,-1.16 11.299,0.102c1.758,0.924 1.797,3.83 2.637,5.515c1.596,3.11 4.432,5.474 6.628,8.185c3.594,4.549 6.788,8.584 11.059,12.577c2.235,2.116 4.592,4.035 6.827,6.223c3.074,3.04 6.748,8.461 7.346,13.057c0.441,3.511 1.317,6.191 1.119,10.104c-0.164,2.917 -1.157,5.627 -1.238,8.625c-0.04,2.033 0.554,4.908 0.123,6.911c-0.524,2.116 -0.596,1.674 -2.915,1.714c-3.513,0.102 -7.068,-0.102 -10.621,-0.036c-6.947,0.205 -13.936,1.12 -20.801,1.797c-6.707,0.616 -13.255,0.514 -20.003,0.514c-6.309,0 -12.457,1.026 -18.686,1.837c-7.186,0.924 -14.454,0.514 -21.68,0.514c-11.62,0 -25.433,-0.514 -35.496,5.668c-3.114,1.921 -5.071,3.718 -8.864,1.243c-3.593,-2.28 -4.193,-8.789 -4.832,-12.657c-0.719,-4.671 -1.119,-8.903 -1.119,-13.658c-0.04,-6.623 3.555,-13.333 6.269,-19.322c3.513,-7.752 6.028,-15.095 12.058,-21.281c2.915,-3.04 4.432,-6.027 6.788,-9.426c0.841,-1.19 3.155,-4.549 4.553,-5.904z" /> <path d="M420.593,659.807c0,3.07 0,6.151 -0.04,9.181c0,3.081 0.956,5.114 1.197,7.948c0.164,1.757 -0.484,4.067 -0.08,5.75c0.596,2.474 1.797,3.634 1.238,6.87c-0.441,2.639 -0.956,2.917 -3.434,3.398c-2.355,0.411 -4.91,0.514 -7.307,0.924c-3.834,0.719 -7.387,1.757 -11.1,2.875c-4.553,1.356 -9.304,1.397 -13.815,2.63c-4.992,1.356 -9.622,3.634 -14.653,4.671c-4.553,0.924 -9.184,1.797 -13.735,2.516c-4.551,0.719 -9.423,1.837 -13.536,3.676c-5.829,2.639 -11.26,5.874 -17.289,8.071c-3.794,1.397 -7.786,4.23 -11.379,0.514c-0.841,-0.821 -0.956,-1.797 -1.797,-2.598c-1.358,-1.283 -3.155,-1.757 -4.712,-2.793c-4.791,-3.234 -9.304,-6.346 -14.613,-8.984c-4.553,-2.28 -9.502,-3.357 -13.974,-5.904c-3.234,-1.88 -6.309,-3.07 -9.782,-4.518c-4.432,-1.837 -8.545,-4.271 -13.216,-5.832c-3.035,-1.026 -5.389,-2.67 -8.104,-4.19c-1.558,-0.924 -2.875,-1.437 -4.512,-2.238c-2.835,-1.437 -2.315,-3.276 -2.277,-6.068c0.039,-3.79 -0.039,-7.588 0,-11.419c0,-2.197 -0.4,-3.634 -0.883,-5.71c-0.277,-1.16 -1.558,-4.549 -1.238,-5.474c0.913,-2.238 6.149,-2.361 7.946,-2.793c3.914,-1.026 7.547,-2.474 11.5,-3.398c5.829,-1.313 11.221,-3.07 17.208,-3.995c5.59,-0.821 11.379,-2.393 16.929,-3.758c5.271,-1.243 10.541,-4.354 15.853,-4.549c7.027,-0.205 13.974,2.474 20.562,4.631c2.117,0.719 4.152,1.644 6.269,2.31c4.591,1.437 9.344,0.821 13.974,2.116c2.436,0.719 4.67,1.757 7.227,2.156c3.114,0.514 6.269,0.309 9.423,1.037c6.149,1.283 11.939,3.11 17.967,4.95c5.31,1.56 10.781,2.598 16.051,4.23c1.955,0.616 5.43,0.924 18.126,3.676z" /> <path d="M297.321,729.41c0,2.156 -0.441,4.754 -0.04,6.87c0.637,3.676 2.315,6.747 2.355,10.701c0.08,3.04 0.996,7.424 -1.398,9.54c-0.913,0.821 -2.197,1.026 -3.195,1.644c-1.716,1.12 -3.155,2.834 -4.473,4.354c-4.152,4.744 -7.547,10.339 -12.139,14.732c-4.032,3.83 -9.304,5.945 -13.255,9.981c-5.51,5.597 -11.02,9.385 -18.168,12.739c-2.594,1.233 -5.51,1.921 -8.026,3.347c-1.997,1.12 -3.315,2.721 -5.03,4.2c-1.078,0.924 -3.074,2.793 -4.592,2.957c-1.916,0.102 -2.875,-1.479 -4.591,-2.074c-3.393,-1.15 -8.066,-0.719 -11.578,-1.283c-8.944,-1.313 -17.888,-2.433 -26.512,-5.227c-17.408,-5.638 -35.775,-5.391 -53.384,-10.022c-3.873,-1.026 -7.787,-2.875 -11.779,-3.194c-2.594,-0.205 -5.231,0.309 -7.865,-0.073c-3.513,-0.514 -6.548,-2.516 -9.942,-3.194c-1.078,-0.205 -2.156,0.102 -3.274,0c-1.596,-0.205 -3.195,-0.821 -4.791,-1.19c-5.271,-1.201 -10.66,-0.514 -15.811,-1.714c-4.632,-1.078 -12.097,-0.036 -13.137,-6.191c-0.913,-5.545 0.039,-12.215 0.039,-17.888c0,-4.067 -1.637,-12.897 1.676,-15.769c2.795,-2.433 6.788,-4.19 9.823,-6.468c4.791,-3.594 9.782,-5.627 14.772,-8.749c4.832,-3.04 10.063,-4.671 14.854,-8.02c4.193,-2.957 9.184,-4.95 13.576,-7.671c2.156,-1.313 4.032,-3.03 6.028,-4.549c1.916,-1.479 4.352,-2.474 6.149,-3.995c1.317,-1.12 2.037,-2.474 3.633,-3.511c1.317,-0.821 2.834,-1.397 4.152,-2.238c1.955,-1.19 3.194,-3.194 4.832,-4.467c0.596,-0.514 1.557,-0.616 2.276,-1.16c0.996,-0.821 1.478,-1.993 2.635,-2.433c2.755,-0.924 7.547,0.924 10.141,1.479c4.272,0.821 8.504,2.433 12.856,2.987c4.591,0.616 8.983,0.821 13.536,1.757c5.99,1.201 12.098,1.437 18.088,2.433c3.234,0.514 6.349,1.644 9.622,1.757c8.983,0.411 17.769,1.52 26.711,2.238c8.942,0.718 17.688,1.921 26.552,3.234c3.313,0.514 6.588,0 9.901,0.102c2.436,0.102 4.751,1.12 7.186,1.283c2.795,0.102 4.473,0.102 7.028,1.313c3.195,1.52 3.434,2.834 3.434,6.111c0,5.268 -1.836,10.741 -1.196,15.893c0.4,3.471 3.035,7.784 2.315,-0.616z" /> <path d="M251.631,836.654c-1.199,10.138 2.835,14.41 3.992,16.012c1.956,2.761 3.195,4.834 4.512,7.988c2.954,6.948 5.869,13.978 9.462,20.561c1.358,2.401 2.634,4.948 4.751,6.828c2.036,1.796 4.631,2.835 6.748,4.549c1.316,1.037 2.435,2.527 3.752,3.553c2.116,1.602 2.196,1.715 2.156,4.395c-0.04,3.47 0,6.952 0,10.381c0,1.757 0.998,6.182 -0.08,7.661c-1.158,1.639 -4.83,1.16 -6.588,1.674c-0.998,0.317 -2.277,1.405 -3.473,1.714c-4.432,1.204 -8.744,1.634 -13.176,3.154c-6.028,2.054 -11.817,2.911 -18.167,2.875c-11.181,-0.035 -22.361,-0.035 -33.54,-0.035c-18.966,0 -37.89,0 -56.817,0c-10.501,0 -20.804,0.103 -31.224,-0.821c-9.463,-0.925 -18.927,0.102 -28.389,-0.514c-8.066,-0.556 -15.813,-2.152 -23.918,-2.116c-2.595,0 -5.189,-0.038 -7.745,0.035c-1.078,0.036 -3.239,0.514 -4.152,0c-1.712,-0.996 -0.798,-4.343 -1.158,-5.987c-0.197,-1.007 -0.915,-2.116 -1.038,-3.04c-0.481,-3.193 -0.4,-6.664 -0.841,-9.94c-0.359,-2.558 -0.442,-4.868 -1.119,-7.384c-0.392,-1.592 -1.354,-1.839 -0.196,-3.913c0.519,-0.924 1.443,-1.242 1.997,-1.961c0.404,-0.514 0.207,-1.377 0.484,-1.993c0.879,-1.92 2.159,-3.317 3.155,-5.114c2.197,-3.874 4.432,-8.269 5.949,-12.499c1.398,-3.991 3.554,-7.06 4.832,-11.178c1.038,-3.307 2.715,-6.745 4.353,-9.775c0.997,-1.92 2.193,-3.398 2.994,-5.391c0.877,-2.198 0.399,-2.506 2.994,-2.917c1.797,-0.309 3.912,0.137 5.789,0.102c5.43,-0.113 10.94,-0.945 16.45,-1.15c14.653,-0.524 29.348,-2.31 44,-3.234c21.719,-1.345 43.759,0.103 65.52,-0.102c12.616,-0.164 25.154,-2.259 37.731,-2.361z" /></svg>