<svg xmlns="http://www.w3.org/2000/svg" viewBox="0 0 938 974" width="938" height="974"><path d="M482.283,389.367c-0.114,9.47 1.432,18.42 2.356,27.837c1.033,10.098 -0.057,20.372 -1.318,30.411c-1.073,8.607 -1.176,17.444 -1.605,26.11c-0.634,12.285 -2.334,24.449 -2.928,36.728c-0.745,15.38 -2.123,31.166 -5.738,46.085c-1.378,5.797 -3.62,11.416 -4.648,17.272c-0.386,2.523 -0.624,5.339 -0.862,7.921c-0.347,5.046 1.09,9.808 2.123,14.688c4.358,19.916 6.945,39.596 7.921,59.856c0.523,9.87 1.07,19.743 0.476,29.551c-0.635,11.594 -2.24,23.129 -3.501,34.663c-1.208,10.386 -3.444,20.603 -4.993,30.93c-1.325,8.838 -1.667,17.735 -2.643,26.573c-2.126,19.165 -3.986,38.329 -4.415,57.613c-0.804,38.11 6.06,75.867 6.654,113.915c0.119,4.874 0.805,9.583 0.805,14.463c0,2.005 1.127,8.548 -0.191,9.695c-2.175,1.952 -3.027,-5.622 -2.98,-5.337c-2.472,-11.994 -5.395,-24.098 -6.661,-36.264c-1.219,-11.481 -0.552,-23.016 -1.028,-34.55c-0.403,-9.927 -1.719,-19.337 -3.785,-29.098c-1.781,-8.262 -2.705,-16.468 -3.904,-24.849c-1.498,-9.808 -3.844,-19.397 -5.625,-29.151c-1.667,-9.409 -2.407,-18.877 -3.956,-28.288c-3.62,-21.864 -9.296,-43.212 -11.826,-65.193c-1.489,-13.659 -0.347,-28.115 0.862,-41.721c1.548,-18.707 -0.742,-37.3 2.643,-55.892c1.315,-7.286 2.457,-14.463 2.695,-21.921c0.175,-6.541 0.686,-12.745 2.638,-18.999c1.666,-5.331 2.237,-10.383 3.099,-15.895c0.805,-5.162 1.714,-10.042 1.667,-15.26c-0.047,-9.245 0,-18.483 0,-27.724c0,-6.654 0,-13.314 -0.047,-20.028c0,-4.189 -0.144,-8.436 0.191,-12.682c0.457,-5.219 1.339,-10.387 1.433,-15.605c0.285,-8.952 0.842,-17.79 1.318,-26.687c0.667,-10.154 0.382,-20.372 0.429,-30.527c0.113,-17.45 -2.584,-34.548 -6.654,-51.475c-2.187,-9.241 -5.168,-18.251 -7.405,-27.549c-1.724,-7.515 -4.476,-14.913 -5.685,-22.49c-1.378,-8.322 -2.572,-16.64 -2.525,-25.134c0.047,-10.274 0.047,-20.544 0,-30.818c0,-4.301 -0.047,-8.611 0.191,-12.914c0.285,-7.517 2.009,-14.688 3.042,-22.093c1.261,-9.469 1.643,-19.165 2.175,-28.753c0.517,-8.894 0.976,-17.792 2.066,-26.683c0.5,-4.423 0.691,-8.722 0.976,-13.142c0.403,-6.488 1.61,-11.881 2.928,-18.135c3.622,-16.468 3.674,-33.339 6.369,-49.867c1.383,-8.381 2.815,-16.812 3.558,-25.252c0.753,-8.262 0.287,-16.756 1.781,-24.849c0.805,-4.189 1.672,-8.492 1.719,-12.795c0,-2.065 0.376,-3.098 0.805,-4.993c0.5,-1.952 0.165,-4.244 0.594,-6.31c1.092,-5.625 2.292,-11.134 3.501,-16.759l3.327,14.86c-0.176,2.185 0.247,4.365 0.629,6.488c0.75,4.251 2.066,8.209 3.213,12.279c1.605,5.685 2.581,11.422 3.671,17.219c2.697,14.116 6.144,28.003 9.01,42.065c2.125,10.496 3.845,21.114 6.773,31.447c2.237,7.977 3.842,15.432 3.842,23.754c0,22.437 1.261,45.28 -0.914,67.658c-1.263,12.977 -3.562,25.653 -5.685,38.508c-1.605,9.357 -2.35,18.824 -3.904,28.181c-1.07,6.37 -1.261,12.624 -0.976,19.165c0.345,8.32 2.411,16.47 3.62,24.735c1.605,11.535 2.41,23.242 3.671,34.829c1.125,9.986 1.813,20.088 1.719,30.186z" /> <path d="M188.388,83.676c-0.285,-0.537 -0.537,-0.976 -0.748,-1.494c1.266,-0.047 2.185,0.862 3.213,1.433c3.385,1.719 7.177,2.928 10.677,4.361c5.453,2.175 10.499,5.046 15.951,7.23c5.744,2.237 11.707,3.785 17.16,6.601c7.464,3.899 15.723,5.963 23.188,9.808c6.541,3.332 13.712,5.512 20.426,8.44c4.648,2.004 9.122,4.018 13.89,5.797c4.127,1.549 8.375,3.094 12.392,4.934c6.201,2.866 11.998,6.541 18.195,9.582c1.89,0.914 3.842,1.781 5.738,2.695c3.733,1.838 6.714,5.106 10.505,6.773c2.004,0.862 7.69,2.409 8.146,4.71c-0.594,0.919 -1.494,0.919 -2.409,1.323c-1.605,0.686 -2.98,1.487 -4.303,2.695c-1.781,1.487 -4.821,4.7 -4.534,7.286c5.969,3.446 11.992,6.773 17.963,10.274c6.141,3.558 12.623,6.369 18.765,9.927c1.719,1.033 8.838,3.62 9.238,6.374c0.047,0.594 -0.686,1.719 -0.805,2.409c-0.285,1.662 -0.285,3.151 -0.805,4.934c-0.285,1.028 -1.549,4.303 -0.686,5.625c0.238,0.335 1.199,0.629 1.549,0.976c0.862,0.857 0.743,1.09 1.667,1.833c2.351,1.781 6.714,2.643 9.298,3.842c5.91,2.757 11.707,5.625 17.497,8.606c8.206,4.361 16.302,8.838 24.277,13.546c8.322,4.88 16.242,10.505 24.735,15.035c6.885,3.62 13.943,6.886 20.831,10.618c3.385,1.838 6.714,3.904 10.214,5.453c3.042,1.375 6.369,2.351 9.357,3.842c11.303,5.566 21.52,12.511 28.346,23.354c3.785,6.029 8.206,11.422 12.279,17.219c4.88,7.058 9.588,14.403 14.237,21.633c4.874,7.63 9.582,15.095 14.975,22.378c5.572,7.637 11.938,13.831 19.515,19.456c6.767,4.993 14.629,9.298 22.318,12.742c6.201,2.809 12.629,4.993 18.652,8.206c17.391,9.298 36.496,15.035 54.516,23.01c17.616,7.802 35.007,15.664 51.244,26.169c12.57,8.087 25.081,18.189 32.658,31.388c3.327,5.797 6.022,11.992 8.778,18.076c3.327,7.577 7.058,14.979 10.558,22.437c8.606,18.42 16.759,37.359 29.098,53.659c8.493,11.19 18.016,21.921 30.646,28.519c4.127,2.175 9.123,2.294 13.481,3.956c5.625,2.185 11.369,4.127 17.106,5.969c8.493,2.638 17.1,5.797 25.365,9.182c5.909,2.409 12.511,5.046 17.729,8.719c6.998,4.993 14.463,9.814 18.652,17.563c-1.033,-0.691 -2.066,-1.667 -3.161,-2.47c-4.018,-3.042 -9.063,-5.219 -13.427,-7.749c-7.63,-4.303 -15.148,-10.327 -23.759,-12.676c-7.286,-2.009 -14.86,-0.691 -22.265,-2.985c-3.151,-0.976 -6.195,-2.409 -9.47,-2.866c-2.695,-0.382 -5.506,-0.429 -8.206,-0.691c-5.046,-0.429 -9.927,-1.375 -14.801,-2.695c-4.246,-1.09 -8.612,-1.952 -12.682,-3.615c-6.542,-2.587 -12.451,-6.141 -18.592,-9.529c-21.868,-12.279 -44.417,-28.234 -57.1,-50.499c-5.512,-9.695 -12.226,-18.652 -17.788,-28.288c-3.275,-5.625 -6.945,-10.217 -11.075,-15.266c-5.909,-7.058 -11.647,-14.576 -18.764,-20.491c-5.969,-5.046 -12.908,-8.719 -19.509,-12.795c-5.572,-3.439 -10.962,-7.111 -16.474,-10.611c-4.874,-3.161 -10.099,-5.916 -15.207,-8.613c-2.409,-1.261 -4.933,-2.175 -7.286,-3.444c-3.733,-2.009 -7.004,-4.596 -10.73,-6.548c-9.182,-4.648 -18.023,-9.927 -27.086,-14.688c-10.618,-5.565 -21.123,-11.706 -31.222,-18.189c-5.506,-3.558 -11.19,-6.601 -16.355,-10.737c-5.218,-4.127 -9.122,-8.832 -13.487,-13.771c-4.874,-5.565 -10.098,-10.956 -14.747,-16.693c-1.781,-2.299 -3.327,-4.648 -4.933,-7.058c-2.928,-4.361 -6.369,-8.666 -8.838,-13.374c-2.638,-5.165 -5.046,-9.582 -8.606,-14.178c-4.018,-5.276 -7.749,-10.671 -12.398,-15.379c-10.618,-10.73 -22.437,-20.081 -34.603,-28.807c-6.369,-4.591 -13.374,-8.322 -20.313,-11.879c-7.17,-3.733 -14.231,-7.749 -21.58,-11.134c-8.778,-4.008 -16.812,-9.238 -25.478,-13.481c-8.95,-4.422 -18.076,-8.265 -26.801,-13.142c-8.832,-4.94 -17.842,-8.897 -27.258,-12.682c-10.039,-4.075 -19.681,-9.241 -29.895,-12.855c-8.381,-2.99 -16.872,-5.566 -25.193,-8.553c-4.993,-1.781 -11.19,-3.213 -15.723,-6.082c1.494,-0.862 6.195,-0.191 7.749,-0.335c4.361,-0.382 8.606,-0.537 12.968,-0.594c2.809,-0.094 6.482,-0.285 9.238,-1.09c0.335,-0.094 1.781,-0.748 1.89,-1.095c0.748,-1.947 -3.094,-2.695 -4.127,-3.213c-7.518,-3.671 -14.688,-8.262 -22.265,-11.992c-9.986,-4.993 -20.087,-9.927 -30.358,-14.344c-0.476,-0.191 -14.403,-4.88 -14.457,-6.313c4.018,0.429 8.147,0.144 12.22,0.144c4.422,0 9.298,0.594 13.718,-0.144c1.261,-0.191 8.434,-1.199 8.381,-3.151c-0.047,-1.38 -5.284,-2.587 -6.313,-3.099c-13.027,-6.254 -25.938,-12.279 -39.424,-17.503c-20.147,-7.803 -40.519,-15.035 -60.832,-22.437c-17.331,-6.31 -35.007,-12.166 -51.819,-19.855c-13.6,-6.195 -27.139,-12.683 -40.91,-18.592c-7.524,-3.151 -14.807,-6.661 -21.927,-10.671c-1.433,-0.805 -4.591,-1.724 -5.625,-3.161c-2.871,-3.956 10.446,-2.695 12.166,-2.695h24.051c2.525,0 5.106,0 7.63,0c0.537,0 4.761,0.537 5.738,-0.191c4.933,-3.327 -6.654,-13.142 -7.921,-16.242c1.266,-0.429 2.294,0.047 3.506,0.476c3.042,1.028 5.738,2.695 8.838,3.671c15.552,4.874 31.616,8.262 47.114,13.427c3.956,1.318 7.803,2.928 11.879,3.671c2.351,0.429 4.529,0.862 6.714,1.952c1.549,0.743 3.265,2.525 4.934,2.98c2.004,0.594 4.648,-0.382 6.541,-0.686z" /> <path d="M68.166,254.917c-0.238,-0.047 -0.532,-0.144 -0.753,-0.191c0.191,-2.695 5.744,-0.862 6.542,-0.691c8.666,2.351 17.278,5.684 25.772,8.44c16.468,5.334 33.055,10.327 49.291,16.408c25.597,9.582 49.41,22.897 74.888,32.598c10.731,4.07 21.123,8.778 31.622,13.427c7.058,3.151 14.29,6.028 21.117,9.642c0.862,0.476 7.69,3.099 7.35,5.165c-0.285,1.719 -5.856,2.175 -6.832,2.351c-4.993,1.147 -10.327,2.643 -15.095,4.422c-7.111,2.747 -13.599,6.595 -20.426,9.808c-4.767,2.185 -9.701,4.018 -14.463,6.082c-3.327,1.433 -8.95,3.099 -10.386,6.885c1.261,2.409 5.393,2.53 7.743,3.213c4.768,1.38 9.182,4.308 13.659,6.374c7.23,3.385 14.575,6.541 21.868,9.754c8.719,3.904 17.331,8.034 26.05,11.932c7.464,3.27 15.039,6.141 22.325,9.701c10.505,5.106 21.004,10.158 31.562,15.148c4.534,2.123 8.265,5.398 12.795,7.464c2.876,1.323 5.337,2.809 8.093,4.42c1.781,1.033 2.928,1.781 4.075,-0.429c0.686,-1.261 0.476,-2.814 0.476,-4.361c0,-1.318 -0.691,-4.477 0.047,-5.625c0.476,-0.743 1.667,-1.204 2.356,-1.662c3.385,-2.409 6.369,-5.112 10.558,-6.088c7.577,-1.833 15.207,3.852 22.093,6.254c7.69,2.7 15.035,5.916 22.783,8.265c2.175,0.629 6.082,1.375 7.23,3.213c0.094,0.094 0.429,1.494 0.594,1.833c0.429,0.805 0.924,1.266 1.554,1.9c2.004,2.066 4.477,3.728 6.542,5.79c2.004,2.014 3.785,3.79 6.135,5.337c8.553,5.512 17.848,10.158 27.258,14.003c4.189,1.719 7.981,3.213 11.766,5.738c1.494,0.976 5.106,2.928 6.254,4.591c1.318,1.838 1.494,4.648 2.47,6.832c5.566,12.226 14.801,22.378 20.254,34.716c2.643,6.029 4.246,12.398 6.66,18.48c2.123,5.337 6.254,10.618 10.446,14.522c2.866,2.577 5.393,5.678 8.493,8.027c3.094,2.409 6.714,3.966 10.099,5.916c7.058,4.07 13.831,6.654 21.861,8.203c9.357,1.838 18.711,3.904 28.181,5.453c10.499,1.724 21.746,2.705 31.735,6.429c9.642,3.62 18.879,8.206 27.83,13.261c6.313,3.553 11.482,7.915 14.86,14.457c2.582,4.993 3.79,10.73 5.744,16.014c2.582,6.939 4.415,14.344 7.743,20.945c3.671,7.117 7.636,14.231 12.801,20.313c2.237,2.643 3.785,5.685 5.85,8.381c2.757,3.671 7.058,6.773 10.903,9.182c4.88,2.98 10.386,3.671 15.836,5.046c4.821,1.261 9.357,3.385 14.178,4.71c5.91,1.549 12.107,2.468 18.076,3.671c5.684,1.147 11.594,1.781 17.219,3.156c6.429,1.554 12.623,3.842 18.939,5.909c4.934,1.667 10.327,2.53 15.095,4.596c4.648,1.952 9.179,4.534 13.308,7.345c7.524,4.993 14.178,11.534 20.147,18.195c1.781,1.947 3.558,3.956 5.276,6.022c3.733,4.42 6.369,9.469 9.411,14.344c5.738,9.298 10.217,19.455 16.242,28.578c2.066,3.161 4.189,6.028 6.654,8.897c0.805,0.976 7.289,9.695 9.129,8.434c-1.38,-2.98 -3.79,-5.85 -6.201,-8.087c-4.361,-4.075 -9.523,-7.921 -14.231,-11.653c-11.015,-8.547 -23.82,-13.943 -36.556,-19.509c-9.47,-4.189 -19.112,-7.289 -29.098,-10.158c-5.334,-1.549 -10.499,-3.327 -15.664,-5.278c-6.369,-2.351 -13.142,-3.265 -19.396,-5.738c-6.313,-2.47 -12.166,-6.254 -18.076,-9.582c-5.512,-3.042 -11.134,-5.625 -16.302,-9.298c-11.416,-8.034 -21.921,-17.278 -32.996,-25.825c-4.303,-3.385 -8.838,-6.714 -12.623,-10.677c-3.558,-3.728 -6.541,-7.915 -9.986,-11.76c-2.923,-3.275 -5.797,-6.374 -8.375,-9.927c-2.928,-4.189 -5.856,-8.381 -9.182,-12.166c-7.004,-8.034 -13.202,-17.16 -22.093,-23.241c-7.69,-5.337 -15.611,-10.045 -24.336,-13.546c-8.891,-3.501 -17.842,-6.254 -27.199,-8.493c-6.022,-1.375 -12.226,-2.351 -18.308,-3.733c-3.671,-0.857 -6.826,-2.638 -10.274,-4.018c-3.385,-1.375 -6.886,-2.175 -10.214,-3.728c-5.453,-2.582 -10.558,-6.088 -16.071,-8.725c-5.91,-2.928 -11.534,-6.369 -16.872,-10.333c-5.85,-4.303 -12.166,-7.862 -18.016,-12.107c-5.625,-4.075 -10.85,-8.553 -15.896,-13.255c-5.225,-4.821 -10.274,-9.873 -14.979,-15.213c-6.135,-6.998 -12.339,-14.629 -19.568,-20.426c-4.761,-3.842 -9.523,-7.289 -14.747,-10.446c-7.111,-4.303 -13.54,-9.582 -20.77,-13.771c-7.803,-4.596 -16.13,-8.606 -24.33,-12.57c-3.332,-1.549 -6.661,-3.213 -10.158,-4.361c-1.261,-0.476 -3.733,-1.895 -5.052,-1.947c-1.487,-0.047 -1.313,-0.191 -1.487,1.433c-0.238,1.895 0,3.553 -0.476,5.453c-0.476,2.066 -5.512,11.647 -1.433,12.849c-2.985,-1.61 -5.797,-3.501 -8.897,-4.934c-10.558,-4.874 -21.52,-8.719 -32.539,-12.451c-13.374,-4.539 -26.567,-9.529 -39.881,-14.231c-15.095,-5.278 -30.418,-10.558 -45.109,-17.047c-23.354,-10.214 -45.281,-22.844 -67.658,-35.061c-10.671,-5.797 -21.868,-10.618 -33.227,-15.038c-4.189,-1.662 -8.262,-3.501 -12.166,-5.791c-1.375,-0.748 -4.993,-2.237 -4.874,-4.137c2.747,-1.028 5.85,-4.591 7.803,-6.601c4.993,-5.159 10.274,-10.386 14.516,-16.183c3.213,-4.42 7.23,-10.44 12.683,-12.22c4.018,-1.323 8.44,-1.667 12.623,-2.014c1.38,-0.047 4.137,0.429 4.94,-0.914c-0.748,-2.175 -3.842,-2.525 -5.572,-3.327c-6.369,-2.928 -11.647,-8.44 -17.331,-12.511c-8.375,-5.969 -17.1,-10.962 -26.335,-15.498c-9.874,-4.874 -19.224,-10.039 -29.901,-13.142c-7.23,-2.118 -13.884,-5.393 -20.831,-8.375c-8.262,-3.506 -16.753,-6.254 -25.193,-9.357c-9.754,-3.62 -19.621,-7.464 -28.807,-12.338c-1.209,-0.629 -7.577,-3.213 -7.23,-5.225c1.033,-0.191 2.928,-0.429 3.213,-1.433c0.429,-1.204 -1.838,-3.671 -2.582,-4.529c-2.066,-2.356 -4.477,-4.361 -6.601,-6.661c-3.558,-3.842 -6.254,-8.719 -7.974,-13.658c-0.476,-1.147 -1.89,-4.189 -0.238,-5.159c1.952,-1.147 7.577,1.662 9.182,2.066c4.303,0.976 9.47,3.094 13.89,2.98c1.89,0 6.135,-1.375 7.17,-2.928c2.237,-3.444 -6.541,-9.867 -8.666,-12.05c-3.904,-3.899 -8.034,-6.826 -12.398,-10.099c0.382,-0.857 4.88,-1.028 5.797,-1.375z" /> <path d="M97.832,480.56c-0.429,-0.429 -0.862,-0.691 -1.38,-0.924c1.719,0 3.62,1.433 4.933,2.185c8.725,4.934 17.623,8.95 26.748,13.142c16.528,7.458 33.168,14.516 49.404,22.55c17.331,8.553 34.663,16.987 52.107,25.252c17.219,8.147 35.179,15.207 51.88,24.33c2.066,1.147 3.956,2.463 6.022,3.558c1.209,0.686 5.337,2.066 5.453,3.671c-1.433,0.537 -3.439,0 -4.934,0.144c-6.369,0.429 -12.166,4.993 -16.242,9.582c-3.382,3.904 -6.135,8.553 -10.155,11.879c-4.189,3.501 -9.069,5.797 -13.374,9.069c-2.409,1.771 -4.189,3.671 -5.969,6.082c-0.857,1.09 -3.785,3.956 -3.042,5.278c3.042,0.382 4.821,2.066 7.35,3.842c7.458,5.334 13.314,12.166 20.028,18.308c3.444,3.213 7.399,6.022 10.499,9.523c0.691,0.753 1.667,2.47 2.643,2.866c1.375,0.629 3.723,0.047 4.874,-0.429c1.781,-0.634 3.27,-1.667 5.106,-2.299c4.246,-1.375 8.493,-2.409 12.682,-3.904c6.714,-2.409 13.6,-4.821 19.741,-8.494c3.961,-2.351 8.778,-4.874 12.226,-8.027c1.667,-1.494 4.477,-5.744 6.998,-5.453c0,1.433 1.323,3.553 1.952,4.933c3.327,7.458 7.289,12.511 14.35,17.1c2.351,1.605 5.106,2.695 7.458,4.246c2.009,1.375 3.099,3.501 5.165,4.933c1.833,1.318 5.678,4.07 8.146,3.151c0.335,-1.719 0.532,-3.265 2.47,-3.956c2.351,-0.748 6.022,-0.191 8.322,0.594c1.199,0.429 1.433,0.691 2.463,1.261c0.691,0.382 0.924,0.382 1.554,0.537c2.409,0.743 4.241,1.433 6.714,2.47c8.719,3.785 17.963,5.625 27.027,8.322c1.724,0.537 5.909,1.028 7.289,2.409c0.805,0.805 0.914,2.409 1.89,3.327c3.842,3.733 8.265,7.23 12.683,10.387c7.345,5.165 15.095,9.529 22.783,14.119c3.558,2.123 7.058,4.422 10.618,6.488c2.98,1.719 6.541,3.094 9.179,5.276c3.042,2.525 3.558,4.539 3.042,8.262c-0.594,4.596 -1.433,9.01 0.429,13.487c2.123,5.106 5.512,9.642 8.034,14.522c2.582,4.934 5.678,9.411 9.469,13.54c2.757,2.985 5.278,5.337 9.01,7.058c3.151,1.433 5.738,1.433 9.063,1.895c5.106,0.753 9.986,2.53 14.919,3.79c8.034,2.066 16.355,2.866 24.502,4.303c5.625,1.028 11.19,2.123 16.987,2.299c4.018,0.047 7.974,-0.144 11.991,0c8.666,0.238 17.623,1.433 26.17,2.866c7.345,1.261 14.86,3.899 21.921,6.194c6.892,2.237 13.659,5.856 19.687,9.814c5.159,3.444 11.475,7.63 11.647,14.231c0.191,5.91 3.62,11.075 4.71,16.872c1.313,7.111 5.159,13.599 9.979,18.939c3.446,3.899 8.553,6.714 12.855,9.523c5.278,3.385 11.422,6.66 17.331,8.725c5.053,1.719 10.558,2.066 15.783,2.866c6.135,0.976 12.279,1.261 18.42,1.318c2.409,0 4.539,0.429 6.885,0.857c4.075,0.691 8.494,0.594 12.511,1.554c5.337,1.261 10.962,3.444 15.896,5.738c5.678,2.643 11.76,6.313 15.379,11.534c2.463,3.62 2.175,6.885 3.733,10.671c2.237,5.625 5.506,10.903 7.974,16.474c1.09,2.409 4.648,6.998 3.385,9.867c-1.605,-1.09 -2.695,-2.757 -3.842,-4.241c-2.123,-2.695 -4.94,-4.422 -7.637,-6.429c-5.276,-3.79 -10.155,-8.146 -15.895,-11.25c-5.046,-2.695 -10.387,-3.446 -15.89,-4.761c-9.415,-2.299 -18.881,-3.507 -28.404,-5.168c-5.106,-0.919 -9.873,-2.866 -14.35,-5.453c-4.534,-2.643 -9.123,-4.596 -13.944,-6.661c-4.241,-1.781 -8.034,-4.648 -11.932,-7.111c-4.308,-2.757 -8.613,-5.572 -12.802,-8.494c-9.238,-6.66 -16.753,-15.842 -24.157,-24.389c-12.908,-14.919 -27.258,-28.813 -45.506,-37.012c-4.591,-2.066 -9.357,-2.757 -14.178,-3.62c-4.993,-0.976 -9.755,-2.066 -14.86,-2.123c-11.594,-0.238 -22.783,0.639 -34.316,2.185c-5.337,0.743 -10.499,1.833 -15.895,2.237c-6.254,0.476 -12.564,0.429 -18.818,0.976c-5.512,0.537 -11.134,0.976 -16.647,0.191c-6.135,-0.862 -11.819,-3.62 -17.616,-5.512c-7.458,-2.47 -14.119,-8.034 -19.509,-13.6c-6.313,-6.429 -12.451,-13.427 -18.023,-20.485c-3.842,-4.88 -7.286,-10.098 -11.475,-14.694c-4.821,-5.28 -9.754,-10.561 -14.688,-15.726c-4.71,-4.874 -9.417,-9.523 -15.498,-12.564c-4.993,-2.525 -10.155,-4.534 -15.148,-7.004c-6.429,-3.094 -13.027,-5.678 -19.741,-8.147c-7.405,-2.695 -13.943,-6.826 -20.776,-10.671c-3.213,-1.781 -6.998,-2.866 -9.927,-4.993c-1.261,-0.914 -2.175,-2.175 -3.558,-2.866c-2.463,-1.147 -4.934,-0.335 -7.058,0.743c-3.847,1.952 -9.695,0.429 -13.196,-1.662c-3.446,-2.014 -6.374,-4.821 -10.158,-6.313c0.191,-1.89 -1.199,-2.47 -2.928,-2.294c-3.439,0.335 -7.862,4.88 -10.671,6.66c-8.034,5.278 -16.011,10.843 -24.33,15.723c-3.62,2.066 -8.322,3.213 -11.653,5.738c-0.914,0.691 -2.237,1.833 -2.351,3.042c-0.238,-2.237 -1.838,-3.671 -3.501,-4.88c-2.928,-1.719 -5.91,-3.265 -9.01,-4.648c-4.303,-2.237 -8.494,-4.7 -12.57,-7.345c-5.963,-3.615 -11.819,-7.457 -17.963,-10.789c-3.671,-1.947 -7.345,-3.842 -11.071,-5.738c-1.605,-0.857 -3.332,-1.605 -5.053,-2.123c-0.191,-0.335 -0.285,-0.743 -0.238,-1.142c-0.594,-0.335 -1.142,-0.691 -1.719,-1.095c-2.98,-2.066 -5.797,-4.184 -9.123,-5.91c-6.654,-3.444 -13.771,-6.022 -20.372,-9.695c-2.066,-1.147 -8.087,-4.018 -8.779,-6.945c-0.629,-2.409 3.151,-4.075 4.648,-5.566c5.276,-5.276 8.262,-13.546 11.766,-20.028c3.151,-5.797 6.082,-11.653 10.327,-16.812c3.042,-3.733 9.122,-7.921 10.039,-12.974c0.285,-1.313 0.191,-2.351 -0.594,-3.439c-1.433,-2.014 -5.565,-4.422 -7.286,-5.738c-9.986,-7.809 -21.408,-14.178 -32.543,-20.2c-5.79,-3.042 -11.587,-5.969 -17.384,-8.897c-1.89,-0.691 -3.501,-1.719 -4.821,-3.213c2.066,-0.238 3.671,2.066 3.671,3.966c-6.654,1.89 -15.551,-2.123 -21.98,-3.558c-21.23,-4.88 -42.12,-11.021 -63.182,-16.528c-13.999,-3.62 -28.062,-6.832 -42.12,-10.045c-4.591,-0.919 -9.182,-2.004 -13.718,-3.265c-1.487,-0.047 -2.638,-0.634 -3.382,-1.781c2.463,-3.275 8.95,-3.213 12.564,-3.785c7.637,-1.147 15.207,-1.781 22.957,-1.952c4.075,-0.094 8.146,-0.094 12.166,0c1.433,0.285 2.814,0.285 4.189,-0.191c-0.914,-1.261 -2.643,-1.433 -3.842,-2.294c-1.494,-1.09 -1.147,-1.028 -1.147,-2.809c0,-4.648 -0.691,-8.322 -2.525,-12.742c-2.695,-6.367 -7.921,-11.876 -11.766,-17.554c-2.809,-4.137 -7.345,-9.701 -8.891,-14.635c-0.862,-2.866 -1.209,-5.453 0.532,-8.146c1.662,-2.53 4.648,-3.099 6.482,-5.398c4.246,-5.276 1.61,-14.688 1.323,-20.885c-0.094,-1.838 -1.038,-5.685 1.833,-5.856c0.976,0.476 1.952,0.914 2.928,1.433c2.123,1.895 4.018,3.956 5.625,6.313c3.842,5.165 7.974,9.814 13.027,13.831c5.453,4.303 11.422,6.369 17.676,9.003c1.142,0.285 2.118,0.748 2.98,1.433c0.382,0.094 0.537,0.335 0.537,0.691c2.004,0.594 4.529,0.094 6.541,0.094z" /></svg>