<svg xmlns="http://www.w3.org/2000/svg" viewBox="0 0 1090 960" width="1090" height="960"><path d="M5.961,497.092c10.157,-25.799 30.915,-47.839 35.317,-75.318c4.2,-27.359 -8.598,-54.517 -9.719,-82.355c-1.239,-33.277 15.959,-66.717 43.759,-84.836c10.8,-7.2 24.24,-13.603 26.879,-26.24c1.881,-10.003 -3.919,-19.681 -4.839,-29.841c-1.08,-16.718 11.082,-30.959 22.64,-42.958c17.999,-18.758 35.801,-37.519 53.599,-56.278c10.32,11.121 7.358,29.078 0,42.358c-7.478,13.123 -18.757,24.042 -24.517,38.12c-5.961,14.079 -5.64,30.158 -11.879,44.077c-5.481,12.321 -15.321,21.997 -23.12,32.96c-12.518,17.64 -35.317,23.759 -42.037,44.359c-11.082,35 -6.238,85.317 -6.081,121.877c0,11.72 1.074,23.436 -0.807,35.158c-1.881,10.919 -23.879,28.916 -27.8,39.516c-13.598,36.877 2.802,71.555 20,87.956c10.919,10.478 5.159,30.157 12.479,43.597c7.68,14.237 19.881,25.321 32.039,36.397c16.242,14.399 32.039,46.597 52.039,55.317c20.159,8.76 45.636,-6.879 64.077,-18.599c-23.759,-19.679 -37.996,-50.441 -37.52,-81.558c0.158,-6.72 1.079,-13.553 4.358,-19.357c5.64,-9.843 17.039,-14.844 28.16,-17.361c45.276,-10.762 63.717,-7.8 104.995,23.917c17.639,13.598 50.119,47.201 53.119,51.396c9.998,15.162 -13.602,-50.319 -28.76,-57.156c-33.44,-14.999 -53.119,-52.034 -149.513,-29.077c-9.402,2.199 -18.762,6.245 -24.56,14.078c-19.68,25.44 16.28,66.237 -1.719,93.275c-1.397,1.992 -13.877,-3.756 -16.238,-2.848c-3.12,0.802 -10.479,-9.834 -13.118,-11.399c-40.481,-25.477 -71.397,-60.635 -77.358,-116.073c-1.56,-14.082 6.883,-29.561 11.121,-43.28c3.12,-10.156 8.88,-19.682 10.761,-30.157c1.877,-11.241 -0.921,-22.364 -2.481,-33.44c-4.842,-38.599 5.477,-80.319 21.398,-115.636c6.719,-14.52 16.242,-25.598 24.2,-39.359c13.761,-23.6 29.081,-41.239 35.96,-67.677c14.519,1.718 42.036,-19.199 48.756,-32c10.281,-0.797 22.799,-13.65 33.44,-14.558c-6.561,17.039 -32.36,51.878 -47.359,62.196c-7.521,5.002 -15.8,9.072 -22.199,15.638c-19.361,19.836 -13.122,52.796 -23.6,78.595c-7.637,18.119 -23.116,31.841 -31.717,49.519c-17.159,36.08 -1.68,78.596 -3.72,118.435c-1.282,25.155 -9.838,49.836 -9.681,75.155c0.12,25.28 12.479,53.443 36.838,59.997c6.44,-16.722 -8.721,-34.241 -8.439,-52.039c0.48,-14.241 10.962,-26.724 23.6,-32.96c12.84,-6.566 27.359,-7.812 41.557,-8.607c36.877,-1.881 74.555,0.481 109.075,13.44c34.516,12.796 66.074,36.718 82.355,69.995c15.12,30.598 16.079,67.034 6.84,99.994c-9.36,32.96 -28.28,62.478 -51.238,87.956c-8.76,9.839 -18.599,19.838 -21.719,32.797c-4.041,17.837 6.561,36.277 20.159,48.756c22.041,20.641 52.961,31.083 83.118,28.76c16.56,-1.56 36.561,-12.201 33.599,-28.76c-1.081,-5.756 -4.998,-10.641 -9.039,-14.678c-7.838,-7.683 -17.677,-13.58 -28.597,-13.919c-10.8,-0.481 -22.2,6.116 -24.998,16.401c-5.16,-17.159 8.721,-36.403 26.24,-39.997c17.64,-3.72 36.239,5.481 46.717,20.001c10.76,14.399 14.68,32.84 14.999,50.959c0.158,12.801 -2.199,26.714 -11.4,35.479c-7.2,6.994 -17.841,9.354 -27.959,10.919c-63.435,8.918 -130.473,-14.361 -174.871,-60.319c-7.637,-8.121 -14.678,-17.036 -17.798,-27.479c-7.958,-28.438 15.642,-55.639 39.68,-72.198c24.401,-16.401 53.118,-31.079 63.918,-58.438c8.121,-20.797 3.758,-44.998 -7.2,-64.197c-10.92,-19.559 -27.638,-34.999 -44.998,-48.919c-15.599,-12.681 -33.119,-24.844 -53.119,-26.24c-20,-1.277 -42.194,12.801 -42.319,32.96c-0.162,29.36 41.557,42.637 47.317,71.397c3.921,19.68 -11.241,38.911 -29.519,47.518c-18.119,8.565 -38.758,9.517 -58.437,13.28c-9.519,1.715 -20.159,3.868 -28.439,-1.133c-4.517,-2.793 -7.636,-7.033 -10.478,-11.558c-30.316,-44.197 -60.435,-88.595 -90.755,-132.954c-22.516,-32.802 -46.117,-71.08 -37.357,-109.997c0.959,-4.367 2.202,-8.449 3.921,-12.801z" /> <path d="M1084.044,497.043c1.56,4.352 2.962,8.434 3.921,12.801c8.721,38.917 -14.879,77.195 -37.357,109.997c-30.32,44.359 -60.636,88.757 -90.917,132.954c-2.679,4.525 -5.961,8.765 -10.32,11.558c-8.439,5.001 -18.758,2.848 -28.439,1.133c-19.679,-3.763 -40.318,-4.715 -58.596,-13.28c-18.119,-8.607 -33.277,-27.838 -29.519,-47.518c5.76,-28.76 47.638,-42.037 47.479,-71.397c-0.319,-20.159 -22.319,-34.237 -42.319,-32.96c-20.159,1.396 -37.678,13.559 -53.158,26.24c-17.318,13.92 -34.04,29.36 -44.998,48.919c-10.92,19.199 -15.441,43.4 -7.32,64.197c10.761,27.359 39.68,42.037 63.918,58.438c24.2,16.559 47.797,43.76 39.838,72.198c-3,10.443 -10.32,19.358 -17.841,27.479c-44.359,45.958 -111.556,69.237 -174.832,60.319c-10.161,-1.565 -20.759,-3.925 -27.959,-10.919c-9.36,-8.765 -11.558,-22.678 -11.4,-35.479c0.157,-18.119 4.041,-36.56 14.841,-50.959c10.641,-14.52 29.197,-23.721 46.879,-20.001c17.318,3.594 31.4,22.838 26.077,39.997c-2.639,-10.285 -14.039,-16.882 -24.839,-16.401c-10.92,0.339 -20.759,6.236 -28.597,13.919c-4.041,4.037 -7.958,8.922 -9.039,14.678c-3,16.559 17.001,27.2 33.56,28.76c29.999,2.323 61.116,-8.119 83.156,-28.76c13.439,-12.479 24.2,-30.919 20.159,-48.756c-3.159,-12.959 -12.998,-22.958 -21.719,-32.797c-23.159,-25.478 -42.037,-54.996 -51.276,-87.956c-9.36,-32.96 -8.439,-69.396 6.879,-99.994c16.118,-33.277 47.677,-57.199 82.196,-69.995c34.52,-12.959 72.318,-15.321 109.037,-13.44c14.399,0.795 28.76,2.041 41.557,8.607c12.681,6.236 23.318,18.719 23.6,32.96c0.476,17.798 -14.841,35.317 -8.28,52.039c24.398,-6.554 36.56,-34.717 36.718,-59.997c0.157,-25.319 -8.28,-50 -9.681,-75.155c-2.04,-39.839 13.439,-82.355 -3.6,-118.435c-8.601,-17.678 -24.2,-31.4 -31.559,-49.519c-10.599,-25.799 -4.521,-58.759 -23.879,-78.595c-6.279,-6.566 -14.558,-10.636 -22.04,-15.638c-14.999,-10.318 -40.957,-45.157 -47.359,-62.196c10.641,0.908 22.958,13.761 33.44,14.558c6.72,12.801 34.237,33.718 48.598,32c6.879,26.438 22.358,44.077 36.08,67.677c7.958,13.761 17.519,24.839 24.08,39.359c16.079,35.317 26.24,77.037 21.398,115.636c-1.402,11.076 -4.2,22.199 -2.361,33.44c1.881,10.475 7.521,20.001 10.8,30.157c4.2,13.719 12.638,29.198 11.078,43.28c-5.918,55.438 -37.04,90.596 -77.478,116.073c-2.52,1.565 -9.998,12.201 -12.959,11.399c-2.361,-0.908 -14.879,4.84 -16.439,2.848c-17.961,-27.038 18.158,-67.835 -1.56,-93.275c-5.76,-7.833 -15.278,-11.879 -24.518,-14.078c-96.394,-22.957 -116.073,14.078 -149.513,29.077c-15.321,6.837 -38.917,72.318 -28.76,57.156c2.962,-4.195 35.48,-37.798 53.119,-51.396c41.398,-31.717 59.517,-34.679 104.995,-23.917c11.078,2.517 22.358,7.518 28.117,17.361c3.279,5.804 4.079,12.637 4.239,19.357c0.601,31.117 -13.761,61.879 -37.52,81.558c18.599,11.72 44.077,27.359 64.077,18.599c20.159,-8.72 35.917,-40.918 52.039,-55.317c12.321,-11.076 24.518,-22.16 32.159,-36.397c7.2,-13.44 1.402,-33.119 12.359,-43.597c17.318,-16.401 33.757,-51.079 20.159,-87.956c-3.921,-10.6 -26.12,-28.597 -27.839,-39.516c-1.839,-11.722 -0.758,-23.438 -0.758,-35.158c0.157,-36.56 5.001,-86.877 -6.081,-121.877c-6.72,-20.6 -29.557,-26.719 -42.037,-44.359c-7.838,-10.963 -17.678,-20.639 -23.279,-32.96c-6.12,-13.919 -5.961,-29.998 -11.879,-44.077c-5.798,-14.078 -16.881,-24.997 -24.359,-38.12c-7.358,-13.28 -10.32,-31.237 -0.157,-42.358c17.798,18.759 35.917,37.52 53.719,56.278c11.558,11.999 23.918,26.24 22.679,42.958c-0.964,10.16 -6.72,19.838 -4.839,29.841c2.639,12.637 15.921,19.04 26.72,26.24c27.959,18.119 45.157,51.559 43.879,84.836c-1.077,27.838 -13.881,54.996 -9.681,82.355c4.239,27.479 24.998,49.519 35.317,75.318z" /> <path d="M318.274,301.409c5.318,4.207 33.757,33.758 37.357,33.92c-16.718,-0.908 -36.877,15.92 -47.638,28.28c-18.278,20.6 -66.438,36.877 -64.998,64.518c32.96,24.2 126.076,-14.36 166.231,28.118c16.718,17.518 49.198,55.638 49.198,81.557c0,25.478 -1.077,29.519 1.881,53.757c2.361,17.481 -4.358,42.037 6.239,55.918c15.638,20.48 46.279,37.836 50.479,64.715c3.441,21.398 4.839,64.999 1.881,85.917c-1.881,12.201 -13.761,24.2 -25.64,31.237c-26.077,15.637 -80.756,-17.159 -56.997,-50.159c8.28,-3.876 18.278,-3.876 23.438,4.082c-14.999,2.961 -1.719,29.36 10.92,25.598c35.48,-10.761 26.558,-87.635 -11.241,-125.274c-8.76,-8.765 -25.64,-33.599 -30.157,-44.557c-5.798,-14.361 -3.758,-29.36 -5.64,-45.157c-3.441,-27.959 -13.281,-56.675 -28.76,-77.314c-19.838,-26.879 -47.316,-41.72 -80.118,-43.28c-29.557,-1.234 -49.558,14.999 -75.477,22.799c-48.277,14.399 -64.077,-57.477 -44.239,-95.156c7.838,-15.158 23.438,-28.717 32.197,-43.716c7.958,-14.078 14.841,-29.557 28.117,-40.477c18.599,-14.841 59.839,-17.841 62.959,-15.321z" /> <path d="M777.981,270.619c3.12,-2.482 83.277,44.077 91.235,59.076c8.759,15.92 24.195,30.319 32.197,46.078c19.838,39.997 3.879,116.112 -44.398,100.954c-25.761,-8.28 -45.598,-25.476 -75.477,-24.08c-32.639,1.559 -60.118,17.201 -80.118,45.799c-15.316,21.719 -25.318,52.159 -28.597,81.716c-1.882,16.559 0.158,32.639 -5.64,47.638c-4.517,11.558 -21.397,37.955 -30.157,47.038c-37.799,39.996 -46.879,121.234 -11.241,132.633c12.639,3.921 25.919,-23.722 10.92,-27.158c5.16,-8.276 14.999,-8.276 23.438,-4.239c23.6,34.841 -30.757,69.678 -57.036,53.119c-11.837,-7.479 -23.879,-20.318 -25.598,-33.119c-2.958,-22.2 -1.56,-68.118 1.881,-90.918c4.199,-28.438 34.837,-46.878 50.436,-68.118c10.64,-14.721 3.921,-40.957 6.119,-59.397c3.279,-25.76 2.04,-30 2.04,-56.719c0,-27.479 34.361,-66.237 49.039,-86.396c29.235,-40.163 126.872,-3.441 159.991,-29.039c1.239,-29.081 -27.641,-55.959 -45.919,-77.837c-10.962,-12.959 -24.401,-39.892 -41.119,-38.759c3.921,-0.438 12.681,-13.719 17.999,-18.277z" /> <path d="M419.228,55.78c-35.317,3.017 -73.115,6.284 -107.515,1.884c6.12,12.839 15.321,25.799 20.639,41.119c5.481,16.56 10.481,33.44 18.92,49.04c9.681,17.802 15.441,16.08 34.679,25.478c24.038,11.716 17.318,20.476 22.319,45.156c5.961,29.518 26.72,58.12 39.838,85.158c18.321,37.639 50.959,61.077 69.717,98.116c8.601,16.717 10.281,27.037 23.12,41.076c7.161,8.28 12.959,18.917 18.599,32.677c11.88,-30.958 6.403,-53.757 38.12,-69.875c18.599,-9.201 23.879,-18.882 31.717,-40.28c7.962,-21.278 21.402,-37.838 30.32,-58.438c6.56,-15.32 5.279,-31.558 9.839,-47.358c4.679,-16.401 14.999,-24.2 24.2,-37.199c20.96,-29.356 23.442,-61.994 50.959,-89.194c21.239,-21.557 56.076,-40.918 66.237,-71.556c-22.52,-0.479 -45.799,10.425 -69.078,11.558c-19.041,0.758 -38.879,-1.247 -57.799,-4.082c-43.755,-6.079 -82.796,-5.76 -127.353,-3.562c-45.598,2.003 -91.877,-13.593 -137.475,-9.717zM212.681,30.793c-1.881,-3.44 -2.043,-8.563 -3.12,-11.999c71.08,-11.725 145.914,-2.198 214.512,-5.159c30.761,-1.401 59.037,-11.283 88.757,-13.28c25.756,-1.726 51.075,3.118 75.755,8.434c17.519,3.727 37.04,-0.65 53.599,3.275c8.28,2.009 13.44,7.958 21.398,9.842c15.317,3.606 61.716,-12.196 65.316,6.724c15.158,-0.807 31.079,-5.49 46.717,-6.724c21.719,-1.722 42.637,-1.153 63.756,-1.722c16.238,-0.476 23.279,-2.678 39.037,2.323c4.56,1.396 10.958,1.848 14.678,1.396c-8.399,9.24 -17.801,15.639 -26.84,24.561c-13.44,14.197 -17.039,30.919 -25.319,47.157c-26.12,52.035 -87.198,83.594 -101.237,142.832c-5.319,22.04 -4.997,28.439 -19.238,48.44c-8.76,12.157 -18.918,25.159 -24.038,38.878c-6.283,15.637 -7.199,34.236 -8.601,50.637c-2.039,24.08 -6.719,32.48 -25.957,51.559c-16.559,16.717 -51.079,32.96 -64.677,51.717c-11.722,15.917 -11.562,27.96 -16.401,45.637c-4.839,17.957 -5.481,79.358 -29.519,76.716c0.759,-8.16 -15.801,-58.44 -20.159,-66.717c-5.961,-10.32 -16.118,-11.879 -22.199,-21.878c-4.079,-6.878 -3.437,-14.561 -5.798,-21.398c-4.041,-12.042 -13.4,-23.922 -16.559,-36.44c-3.557,-14.361 -9.197,-23.879 -16.238,-38.278c-6.72,-13.118 -22.479,-26.715 -32.039,-38.556c-22.958,-29.236 -21.839,-50.318 -44.677,-79.716c-23.442,-30.281 -28.601,-24.358 -49.039,-56.239c-19.4,-29.677 -46.279,-25.596 -59.997,-57.477c-3.12,-7.042 -8.759,-71.122 -13.598,-77.358c-5.319,-7.358 -16.56,-31.233 -22.679,-37.198c-7.799,-7.8 -5.279,-17.328 -13.559,-25.161c-8.922,-8.275 -15.959,-4.205 -22.04,-14.841z" /></svg>