<svg xmlns="http://www.w3.org/2000/svg" viewBox="0 0 878 878" width="878" height="878"><path d="M439.304,65.968c-6.82667,-1.36533 -12.62933,-3.072 -17.408,-5.12c-4.096,-1.36533 -7.85067,-3.41333 -11.264,-6.144c-3.41333,-2.73067 -5.12,-6.144 -5.12,-10.24c0,-6.144 1.70667,-11.776 5.12,-16.896c3.41333,-5.12 7.168,-9.728 11.264,-13.824c4.77867,-4.77867 10.58133,-9.216 17.408,-13.312c6.144,4.096 11.60533,8.53333 16.384,13.312c4.096,4.096 7.85067,8.704 11.264,13.824c3.41333,5.12 5.12,10.752 5.12,16.896c0,4.096 -1.70667,7.50933 -5.12,10.24c-3.41333,2.73067 -7.168,4.77867 -11.264,6.144c-4.77867,2.048 -10.24,3.75467 -16.384,5.12zM748.552,486.832c10.24,1.36533 16.72533,5.29067 19.456,11.776c2.73067,6.48533 3.75467,15.18933 3.072,26.112c-1.36533,10.24 -3.41333,18.432 -6.144,24.576c-2.73067,6.144 -5.80267,10.92267 -9.216,14.336c-3.41333,4.096 -7.50933,6.82667 -12.288,8.192c-1.36533,-15.01867 -3.75467,-26.28267 -7.168,-33.792c-3.41333,-7.50933 -6.82667,-12.97067 -10.24,-16.384c-3.41333,-3.41333 -7.168,-4.43733 -11.264,-3.072c-4.096,1.36533 -7.50933,3.75467 -10.24,7.168c-6.144,10.24 -15.53067,22.18667 -28.16,35.84c-12.62933,13.65333 -31.232,22.86933 -55.808,27.648c-9.55733,2.048 -19.11467,3.072 -28.672,3.072c0,10.24 -1.024,19.79733 -3.072,28.672c-4.77867,24.576 -13.99467,43.17867 -27.648,55.808c-13.65333,12.62933 -25.6,22.016 -35.84,28.16c-3.41333,2.73067 -5.80267,6.144 -7.168,10.24c-1.36533,4.096 -0.34133,7.85067 3.072,11.264c3.41333,3.41333 8.87467,6.82667 16.384,10.24c7.50933,3.41333 18.77333,5.80267 33.792,7.168c-1.36533,4.77867 -4.096,8.87467 -8.192,12.288c-3.41333,3.41333 -8.36267,6.656 -14.848,9.728c-6.48533,3.072 -14.50667,4.94933 -24.064,5.632c-10.92267,0.68267 -19.62667,-0.34133 -26.112,-3.072c-6.48533,-2.73067 -10.41067,-9.216 -11.776,-19.456c-2.73067,-5.46133 -4.096,-12.62933 -4.096,-21.504c0,-8.87467 0.68267,-18.09067 2.048,-27.648c1.36533,-10.92267 3.072,-22.18667 5.12,-33.792c12.288,-12.288 21.504,-23.89333 27.648,-34.816c5.46133,-9.55733 7.85067,-19.11467 7.168,-28.672c-0.68267,-9.55733 -8.192,-17.06667 -22.528,-22.528c-2.73067,0.68267 -5.12,1.70667 -7.168,3.072c-2.048,1.36533 -3.75467,2.56 -5.12,3.584c-1.36533,1.024 -2.73067,1.87733 -4.096,2.56l-14.336,2.048c-4.096,0.68267 -8.87467,1.19467 -14.336,1.536c-5.46133,0.34133 -11.264,0.512 -17.408,0.512c-6.82667,0 -12.97067,-0.17067 -18.432,-0.512c-5.46133,-0.34133 -10.24,-0.85333 -14.336,-1.536l-14.336,-2.048c-2.73067,-1.36533 -6.144,-3.41333 -10.24,-6.144l-6.144,-3.072c-15.01867,5.46133 -22.69867,12.97067 -23.04,22.528c-0.34133,9.55733 2.21867,19.11467 7.68,28.672c6.144,10.92267 15.36,22.528 27.648,34.816c2.048,11.60533 3.75467,22.86933 5.12,33.792c1.36533,9.55733 1.87733,18.77333 1.536,27.648c-0.34133,8.87467 -1.536,16.04267 -3.584,21.504c-1.36533,10.24 -5.12,16.72533 -11.264,19.456c-6.144,2.73067 -15.01867,3.75467 -26.624,3.072c-10.24,-0.68267 -18.432,-2.56 -24.576,-5.632c-6.144,-3.072 -10.92267,-6.31467 -14.336,-9.728c-4.096,-3.41333 -6.82667,-7.50933 -8.192,-12.288c15.01867,-1.36533 26.28267,-3.75467 33.792,-7.168c7.50933,-3.41333 12.97067,-6.82667 16.384,-10.24c3.41333,-3.41333 4.43733,-7.168 3.072,-11.264c-1.36533,-4.096 -3.75467,-7.50933 -7.168,-10.24c-10.24,-6.144 -22.18667,-15.53067 -35.84,-28.16c-13.65333,-12.62933 -22.86933,-31.232 -27.648,-55.808c-2.048,-8.87467 -3.072,-18.432 -3.072,-28.672c-10.24,0 -19.79733,-1.024 -28.672,-3.072c-24.576,-4.77867 -43.17867,-13.99467 -55.808,-27.648c-12.62933,-13.65333 -22.016,-25.6 -28.16,-35.84c-2.048,-3.41333 -5.29067,-5.80267 -9.728,-7.168c-4.43733,-1.36533 -8.36267,-0.34133 -11.776,3.072c-3.41333,3.41333 -6.82667,8.87467 -10.24,16.384c-3.41333,7.50933 -5.80267,18.77333 -7.168,33.792c-4.77867,-1.36533 -8.87467,-4.096 -12.288,-8.192c-3.41333,-3.41333 -6.656,-8.192 -9.728,-14.336c-3.072,-6.144 -4.94933,-14.336 -5.632,-24.576c-0.68267,-10.92267 0.34133,-19.62667 3.072,-26.112c2.73067,-6.48533 9.216,-10.41067 19.456,-11.776c5.46133,-2.048 12.62933,-3.24267 21.504,-3.584c8.87467,-0.34133 18.09067,0.17067 27.648,1.536c10.92267,1.36533 22.18667,3.072 33.792,5.12c12.288,12.288 23.89333,21.504 34.816,27.648c9.55733,5.46133 19.11467,8.02133 28.672,7.68c9.55733,-0.34133 17.06667,-8.02133 22.528,-23.04l-3.072,-6.144c-2.73067,-4.096 -4.77867,-7.50933 -6.144,-10.24l-2.048,-14.336c-0.68267,-4.096 -1.024,-8.87467 -1.024,-14.336v-35.84c0,0 0.34133,-4.77867 1.024,-14.336l2.048,-14.336c0.68267,-1.36533 1.536,-2.73067 2.56,-4.096c1.024,-1.36533 2.21867,-3.072 3.584,-5.12c1.36533,-2.048 2.38933,-4.43733 3.072,-7.168c-5.46133,-14.336 -12.97067,-21.84533 -22.528,-22.528c-9.55733,-0.68267 -19.11467,1.70667 -28.672,7.168c-10.92267,6.144 -22.528,15.36 -34.816,27.648c-11.60533,2.048 -22.86933,3.75467 -33.792,5.12c-9.55733,1.36533 -18.77333,2.048 -27.648,2.048c-8.87467,0 -16.04267,-1.36533 -21.504,-4.096c-10.24,-1.36533 -16.72533,-5.29067 -19.456,-11.776c-2.73067,-6.48533 -3.75467,-15.18933 -3.072,-26.112c0.68267,-9.55733 2.56,-17.57867 5.632,-24.064c3.072,-6.48533 6.31467,-11.43467 9.728,-14.848c3.41333,-4.096 7.50933,-6.82667 12.288,-8.192c1.36533,15.01867 3.75467,26.28267 7.168,33.792c3.41333,7.50933 6.82667,12.97067 10.24,16.384c3.41333,3.41333 7.33867,4.43733 11.776,3.072c4.43733,-1.36533 7.68,-3.75467 9.728,-7.168c6.144,-10.24 15.53067,-22.18667 28.16,-35.84c12.62933,-13.65333 31.232,-22.86933 55.808,-27.648c8.87467,-2.048 18.432,-3.072 28.672,-3.072c0,-9.55733 1.024,-19.11467 3.072,-28.672c4.77867,-24.576 13.99467,-43.17867 27.648,-55.808c13.65333,-12.62933 25.6,-22.016 35.84,-28.16c3.41333,-2.73067 5.80267,-6.144 7.168,-10.24c1.36533,-4.096 0.34133,-7.85067 -3.072,-11.264c-3.41333,-3.41333 -8.87467,-6.82667 -16.384,-10.24c-7.50933,-3.41333 -18.77333,-5.80267 -33.792,-7.168c1.36533,-4.77867 4.096,-8.87467 8.192,-12.288c3.41333,-3.41333 8.192,-6.48533 14.336,-9.216c6.144,-2.73067 14.336,-4.77867 24.576,-6.144c11.60533,-0.68267 20.48,0.34133 26.624,3.072c6.144,2.73067 9.89867,9.216 11.264,19.456c2.048,5.46133 3.24267,12.62933 3.584,21.504c0.34133,8.87467 -0.17067,18.09067 -1.536,27.648c-1.36533,10.92267 -3.072,22.18667 -5.12,33.792c-12.288,12.288 -21.504,23.89333 -27.648,34.816c-5.46133,9.55733 -8.02133,19.11467 -7.68,28.672c0.34133,9.55733 8.02133,17.06667 23.04,22.528l6.144,-3.072c1.36533,-1.36533 3.072,-2.38933 5.12,-3.072c2.048,-0.68267 3.75467,-1.70667 5.12,-3.072l14.336,-2.048c4.096,-0.68267 8.87467,-1.19467 14.336,-1.536c5.46133,-0.34133 11.60533,-0.512 18.432,-0.512c6.144,0 11.94667,0.17067 17.408,0.512c5.46133,0.34133 10.24,0.85333 14.336,1.536l14.336,2.048c2.048,2.048 5.12,4.096 9.216,6.144c2.048,1.36533 4.43733,2.38933 7.168,3.072c14.336,-5.46133 21.84533,-12.97067 22.528,-22.528c0.68267,-9.55733 -1.70667,-19.11467 -7.168,-28.672c-6.144,-10.92267 -15.36,-22.528 -27.648,-34.816c-2.048,-11.60533 -3.75467,-22.86933 -5.12,-33.792c-1.36533,-9.55733 -2.048,-18.77333 -2.048,-27.648c0,-8.87467 1.36533,-16.04267 4.096,-21.504c1.36533,-10.24 5.29067,-16.72533 11.776,-19.456c6.48533,-2.73067 15.18933,-3.75467 26.112,-3.072c9.55733,1.36533 17.57867,3.41333 24.064,6.144c6.48533,2.73067 11.43467,5.80267 14.848,9.216c4.096,3.41333 6.82667,7.50933 8.192,12.288c-15.01867,1.36533 -26.28267,3.75467 -33.792,7.168c-7.50933,3.41333 -12.97067,6.82667 -16.384,10.24c-3.41333,3.41333 -4.43733,7.168 -3.072,11.264c1.36533,4.096 3.75467,7.50933 7.168,10.24c10.24,6.144 22.18667,15.53067 35.84,28.16c13.65333,12.62933 22.86933,31.232 27.648,55.808c2.048,9.55733 3.072,19.11467 3.072,28.672c9.55733,0 19.11467,1.024 28.672,3.072c24.576,4.77867 43.17867,13.99467 55.808,27.648c12.62933,13.65333 22.016,25.6 28.16,35.84c2.73067,3.41333 6.144,5.80267 10.24,7.168c4.096,1.36533 7.85067,0.34133 11.264,-3.072c3.41333,-3.41333 6.82667,-8.87467 10.24,-16.384c3.41333,-7.50933 5.80267,-18.77333 7.168,-33.792c4.77867,1.36533 8.87467,4.096 12.288,8.192c3.41333,3.41333 6.48533,8.36267 9.216,14.848c2.73067,6.48533 4.77867,14.50667 6.144,24.064c0.68267,10.92267 -0.34133,19.62667 -3.072,26.112c-2.73067,6.48533 -9.216,10.41067 -19.456,11.776c-5.46133,2.73067 -12.62933,4.096 -21.504,4.096c-8.87467,0 -18.09067,-0.68267 -27.648,-2.048c-10.92267,-1.36533 -22.18667,-3.072 -33.792,-5.12c-12.288,-12.288 -23.89333,-21.504 -34.816,-27.648c-9.55733,-5.46133 -19.11467,-7.85067 -28.672,-7.168c-9.55733,0.68267 -17.06667,8.192 -22.528,22.528c0.68267,2.73067 1.70667,5.12 3.072,7.168c2.048,4.096 4.096,7.168 6.144,9.216l2.048,14.336c0.68267,4.096 1.19467,8.87467 1.536,14.336c0.34133,5.46133 0.512,11.264 0.512,17.408c0,6.82667 -0.17067,12.97067 -0.512,18.432c-0.34133,5.46133 -0.85333,10.24 -1.536,14.336l-2.048,14.336c-1.36533,1.36533 -2.38933,3.072 -3.072,5.12c-0.68267,2.048 -1.70667,3.75467 -3.072,5.12l-3.072,6.144c5.46133,15.01867 12.97067,22.69867 22.528,23.04c9.55733,0.34133 19.11467,-2.21867 28.672,-7.68c10.92267,-6.144 22.528,-15.36 34.816,-27.648c11.60533,-2.048 22.86933,-3.75467 33.792,-5.12c9.55733,-1.36533 18.77333,-1.87733 27.648,-1.536c8.87467,0.34133 16.04267,1.536 21.504,3.584zM516.104,516.528c11.60533,-7.50933 20.82133,-15.53067 27.648,-24.064c6.82667,-8.53333 11.94667,-16.896 15.36,-25.088c3.41333,-8.87467 5.46133,-18.432 6.144,-28.672c-0.68267,-9.55733 -2.73067,-18.77333 -6.144,-27.648c-3.41333,-7.50933 -8.53333,-15.70133 -15.36,-24.576c-6.82667,-8.87467 -16.04267,-17.06667 -27.648,-24.576c-7.50933,-11.60533 -15.70133,-20.82133 -24.576,-27.648c-8.87467,-6.82667 -17.06667,-11.94667 -24.576,-15.36c-8.87467,-3.41333 -18.09067,-5.46133 -27.648,-6.144c-10.24,0.68267 -19.79733,2.73067 -28.672,6.144c-8.192,3.41333 -16.55467,8.53333 -25.088,15.36c-8.53333,6.82667 -16.55467,16.04267 -24.064,27.648c-12.288,7.50933 -21.67467,15.70133 -28.16,24.576c-6.48533,8.87467 -11.43467,17.06667 -14.848,24.576c-3.41333,8.87467 -5.46133,18.09067 -6.144,27.648c0.68267,10.24 2.73067,19.79733 6.144,28.672c3.41333,8.192 8.36267,16.55467 14.848,25.088c6.48533,8.53333 15.872,16.55467 28.16,24.064c7.50933,12.288 15.53067,21.67467 24.064,28.16c8.53333,6.48533 16.896,11.43467 25.088,14.848c8.87467,3.41333 18.432,5.46133 28.672,6.144c9.55733,-0.68267 18.77333,-2.73067 27.648,-6.144c7.50933,-3.41333 15.70133,-8.36267 24.576,-14.848c8.87467,-6.48533 17.06667,-15.872 24.576,-28.16zM439.304,812.464c6.144,1.36533 11.60533,3.072 16.384,5.12c4.096,1.36533 7.85067,3.584 11.264,6.656c3.41333,3.072 5.12,6.31467 5.12,9.728c0,6.144 -1.70667,11.94667 -5.12,17.408c-3.41333,5.46133 -7.168,10.24 -11.264,14.336c-4.77867,4.77867 -10.24,8.87467 -16.384,12.288c-6.82667,-3.41333 -12.62933,-7.50933 -17.408,-12.288c-4.096,-4.096 -7.85067,-8.87467 -11.264,-14.336c-3.41333,-5.46133 -5.12,-11.264 -5.12,-17.408c0,-3.41333 1.70667,-6.656 5.12,-9.728c3.41333,-3.072 7.168,-5.29067 11.264,-6.656c4.77867,-2.048 10.58133,-3.75467 17.408,-5.12zM833.544,405.936c6.144,0 11.776,1.70667 16.896,5.12c5.12,3.41333 9.728,7.168 13.824,11.264c4.77867,4.77867 9.216,10.24 13.312,16.384c-4.096,6.82667 -8.53333,12.62933 -13.312,17.408c-4.096,4.096 -8.704,7.85067 -13.824,11.264c-5.12,3.41333 -10.752,5.12 -16.896,5.12c-4.096,0 -7.50933,-1.70667 -10.24,-5.12c-2.73067,-3.41333 -4.77867,-7.168 -6.144,-11.264c-2.048,-4.77867 -3.75467,-10.58133 -5.12,-17.408c1.36533,-6.144 3.072,-11.60533 5.12,-16.384c1.36533,-4.096 3.41333,-7.85067 6.144,-11.264c2.73067,-3.41333 6.144,-5.12 10.24,-5.12zM44.04,405.936c3.41333,0 6.656,1.70667 9.728,5.12c3.072,3.41333 5.29067,7.168 6.656,11.264c2.048,4.77867 3.75467,10.24 5.12,16.384c-1.36533,6.82667 -3.072,12.62933 -5.12,17.408c-1.36533,4.096 -3.584,7.85067 -6.656,11.264c-3.072,3.41333 -6.31467,5.12 -9.728,5.12c-6.144,0 -11.94667,-1.70667 -17.408,-5.12c-5.46133,-3.41333 -10.24,-7.168 -14.336,-11.264c-4.77867,-4.77867 -8.87467,-10.58133 -12.288,-17.408c3.41333,-6.144 7.50933,-11.60533 12.288,-16.384c4.096,-4.096 8.87467,-7.85067 14.336,-11.264c5.46133,-3.41333 11.264,-5.12 17.408,-5.12zM417.8,134.576c-0.68267,-6.82667 -2.38933,-12.97067 -5.12,-18.432c-2.73067,-4.77867 -7.168,-9.216 -13.312,-13.312c-6.144,-4.096 -15.01867,-6.144 -26.624,-6.144c2.73067,-6.144 5.80267,-11.94667 9.216,-17.408c3.41333,-4.096 6.82667,-8.02133 10.24,-11.776c3.41333,-3.75467 7.168,-5.632 11.264,-5.632c0,2.73067 1.024,5.46133 3.072,8.192c1.36533,2.048 3.92533,4.096 7.68,6.144c3.75467,2.048 9.38667,3.41333 16.896,4.096h15.36c7.50933,-0.68267 13.14133,-2.048 16.896,-4.096c3.75467,-2.048 6.31467,-4.096 7.68,-6.144c2.048,-2.73067 3.072,-5.46133 3.072,-8.192c3.41333,0 6.99733,1.87733 10.752,5.632c3.75467,3.75467 7.33867,7.68 10.752,11.776c3.41333,5.46133 6.48533,11.264 9.216,17.408c-11.60533,0 -20.48,2.048 -26.624,6.144c-6.144,4.096 -10.58133,8.53333 -13.312,13.312c-2.73067,5.46133 -4.43733,11.60533 -5.12,18.432c1.36533,19.79733 2.73067,37.20533 4.096,52.224c1.36533,15.01867 2.73067,27.648 4.096,37.888c-2.048,-1.36533 -4.43733,-3.072 -7.168,-5.12c-2.048,-1.36533 -4.608,-2.90133 -7.68,-4.608c-3.072,-1.70667 -6.656,-3.24267 -10.752,-4.608c-2.73067,-2.048 -5.12,-2.048 -7.168,0c-7.50933,2.048 -13.99467,5.12 -19.456,9.216c-2.73067,2.048 -4.77867,3.75467 -6.144,5.12c1.36533,-10.24 2.90133,-22.86933 4.608,-37.888c1.70667,-15.01867 2.90133,-32.42667 3.584,-52.224zM797.704,446.896c0.68267,7.50933 2.048,13.14133 4.096,16.896c2.048,3.75467 4.096,6.31467 6.144,7.68c2.73067,2.048 5.46133,3.072 8.192,3.072c0,4.096 -1.87733,7.85067 -5.632,11.264c-3.75467,3.41333 -7.68,6.82667 -11.776,10.24c-4.77867,3.41333 -10.24,6.48533 -16.384,9.216c0,-11.60533 -2.048,-20.48 -6.144,-26.624c-4.096,-6.144 -8.53333,-10.58133 -13.312,-13.312c-6.144,-2.73067 -12.62933,-4.43733 -19.456,-5.12c-19.79733,1.36533 -37.20533,2.73067 -52.224,4.096c-15.01867,1.36533 -27.648,2.73067 -37.888,4.096c1.36533,-1.36533 3.072,-3.41333 5.12,-6.144c4.096,-5.46133 7.168,-11.94667 9.216,-19.456c2.048,-2.048 2.048,-4.43733 0,-7.168c-1.36533,-4.096 -2.90133,-7.68 -4.608,-10.752c-1.70667,-3.072 -3.24267,-5.632 -4.608,-7.68c-2.048,-2.73067 -3.75467,-5.12 -5.12,-7.168c10.24,1.36533 22.86933,2.73067 37.888,4.096c15.01867,1.36533 32.42667,2.73067 52.224,4.096c6.82667,-0.68267 13.312,-2.38933 19.456,-5.12c4.77867,-2.73067 9.216,-7.168 13.312,-13.312c4.096,-6.144 6.144,-15.01867 6.144,-26.624c6.144,2.73067 11.60533,5.80267 16.384,9.216c4.096,3.41333 8.02133,6.99733 11.776,10.752c3.75467,3.75467 5.632,7.33867 5.632,10.752c-2.73067,0 -5.46133,1.024 -8.192,3.072c-2.048,1.36533 -4.096,3.92533 -6.144,7.68c-2.048,3.75467 -3.41333,9.38667 -4.096,16.896zM459.784,743.856c0.68267,7.50933 2.38933,13.99467 5.12,19.456c2.73067,4.77867 7.168,9.04533 13.312,12.8c6.144,3.75467 15.01867,5.632 26.624,5.632c-2.73067,6.82667 -5.80267,12.62933 -9.216,17.408c-3.41333,4.77867 -6.99733,8.87467 -10.752,12.288c-3.75467,3.41333 -7.33867,5.12 -10.752,5.12c0,-2.73067 -1.024,-5.46133 -3.072,-8.192c-1.36533,-2.048 -3.92533,-3.92533 -7.68,-5.632c-3.75467,-1.70667 -9.38667,-3.24267 -16.896,-4.608h-15.36c-7.50933,1.36533 -13.14133,2.90133 -16.896,4.608c-3.75467,1.70667 -6.31467,3.584 -7.68,5.632c-2.048,2.73067 -3.072,5.46133 -3.072,8.192c-4.096,0 -7.85067,-1.70667 -11.264,-5.12c-3.41333,-3.41333 -6.82667,-7.50933 -10.24,-12.288c-3.41333,-4.77867 -6.48533,-10.58133 -9.216,-17.408c11.60533,0 20.48,-1.87733 26.624,-5.632c6.144,-3.75467 10.58133,-8.02133 13.312,-12.8c2.73067,-5.46133 4.43733,-11.94667 5.12,-19.456c-0.68267,-19.79733 -1.87733,-37.20533 -3.584,-52.224c-1.70667,-15.01867 -3.24267,-27.648 -4.608,-37.888c1.36533,2.048 3.41333,4.096 6.144,6.144c4.096,3.41333 10.58133,6.144 19.456,8.192c2.048,2.73067 4.43733,2.73067 7.168,0c7.50933,-2.048 13.65333,-4.77867 18.432,-8.192c2.73067,-2.048 5.12,-4.096 7.168,-6.144c-1.36533,10.24 -2.73067,22.86933 -4.096,37.888c-1.36533,15.01867 -2.73067,32.42667 -4.096,52.224zM135.176,458.16c-7.50933,0.68267 -13.99467,2.38933 -19.456,5.12c-5.46133,2.73067 -10.06933,7.168 -13.824,13.312c-3.75467,6.144 -5.632,15.01867 -5.632,26.624c-6.82667,-3.41333 -12.62933,-6.48533 -17.408,-9.216c-4.77867,-2.73067 -8.87467,-5.80267 -12.288,-9.216c-3.41333,-3.41333 -5.12,-7.50933 -5.12,-12.288c2.73067,0 5.46133,-1.024 8.192,-3.072c2.048,-1.36533 3.92533,-3.92533 5.632,-7.68c1.70667,-3.75467 3.24267,-9.38667 4.608,-16.896v-11.264c-1.36533,-7.50933 -2.90133,-13.14133 -4.608,-16.896c-1.70667,-3.75467 -3.584,-6.31467 -5.632,-7.68c-2.73067,-2.048 -5.46133,-3.072 -8.192,-3.072c0,-4.096 1.70667,-8.02133 5.12,-11.776c3.41333,-3.75467 7.50933,-6.99733 12.288,-9.728c4.77867,-2.73067 10.58133,-5.80267 17.408,-9.216c0,11.60533 1.87733,20.48 5.632,26.624c3.75467,6.144 8.36267,10.58133 13.824,13.312c5.46133,2.73067 11.94667,4.43733 19.456,5.12c19.79733,-1.36533 37.03467,-2.73067 51.712,-4.096c14.67733,-1.36533 27.136,-2.73067 37.376,-4.096c-2.048,2.048 -4.096,4.43733 -6.144,7.168c-3.41333,4.77867 -6.144,10.92267 -8.192,18.432c-1.36533,1.36533 -1.36533,2.38933 0,3.072c2.048,8.87467 4.77867,15.36 8.192,19.456c2.048,2.73067 4.096,4.77867 6.144,6.144c-10.24,-1.36533 -22.69867,-2.73067 -37.376,-4.096c-14.67733,-1.36533 -31.91467,-2.73067 -51.712,-4.096z" /></svg>