<svg xmlns="http://www.w3.org/2000/svg" viewBox="0 0 930 935" width="930" height="935"><path d="M411.688,2.464c5.696,-1.952 7.136,-2.144 10.912,-1.184c14.368,3.52 13.888,3.456 41.472,3.52c27.68,0.064 28.928,0.192 30.304,3.168c0.832,1.856 1.504,2.144 6.016,2.688c4.544,0.544 7.584,-0.096 9.984,-2.112c2.08,-1.792 20.992,-2.016 24.192,-0.288l-0.192,-0.064c1.504,0.704 3.04,1.28 4.864,1.76l0.608,0.16c2.688,0.864 5.28,1.856 7.264,2.752l-0.288,-0.096c2.944,1.216 6.08,2.08 9.568,2.656l1.216,0.128c2.816,0.384 5.632,0.832 7.04,1.12c1.76,0.32 10.496,1.056 19.424,1.6c21.376,1.312 19.424,0.672 53.248,17.408c12.16,5.984 14.016,7.136 17.376,10.56c3.776,3.84 13.28,12.16 13.952,12.16l0.064,0.032c0.896,0.544 1.728,1.184 2.432,1.92l-0.064,-0.064c1.728,1.504 3.584,2.912 5.728,4.32l0.192,0.128c1.856,1.248 3.648,2.624 5.248,4c8.16,7.648 12.48,10.208 22.848,13.408l16.64,5.184l-0.448,-0.128c4.16,1.376 8.512,2.368 13.312,2.912c6.24,0.416 6.624,0.608 9.44,4.512l0.064,0.096c0.864,1.216 1.824,2.368 2.848,3.424c0.288,0.128 0.48,0.576 0.48,1.088c0,0.512 0.288,0.96 0.672,1.088c0.704,0.224 3.424,3.904 9.728,13.056l1.44,2.144c2.752,3.936 5.536,7.872 7.072,9.856c2.496,3.456 6.72,9.44 9.376,13.344c5.216,7.648 5.536,7.872 6.432,5.504c0.832,-2.208 0.288,-2.528 10.592,6.112c16.096,13.504 19.776,17.632 20.64,23.2l0.032,0.128c0.736,4.032 2.688,7.648 5.44,10.464l-0.128,-0.128c1.984,2.368 3.84,4.864 5.76,7.744l0.128,0.224c1.12,1.728 2.304,3.424 3.52,4.928c0.704,0.608 9.28,13.696 13.76,20.864l0.288,0.48c1.536,2.432 3.136,4.8 4.64,6.784l-0.032,-0.064c1.024,1.28 1.952,2.624 2.816,4.224l0.064,0.096c0.96,1.376 2.048,2.688 3.232,3.872c3.36,3.648 7.744,9.6 14.176,19.328l0.128,0.224c1.568,2.432 3.296,4.704 5.12,6.784v0c0.96,0.864 1.6,2.08 1.664,3.488c0,1.408 1.44,3.808 5.344,9.024c6.944,9.28 6.592,8.448 7.456,17.728c1.152,12.16 1.888,16.608 2.976,18.304c1.824,2.784 2.208,5.44 1.472,10.752c-0.928,6.752 -0.48,8.576 3.296,13.728l-0.032,-0.032c1.28,1.536 2.336,3.232 3.232,5.184c0,0.48 0.288,0.928 0.576,1.056c0.8,0.288 5.408,10.88 7.072,16.256l0.096,0.416c0.576,1.92 1.28,3.808 1.92,5.248c0.768,1.344 8.32,28.928 8.32,30.272c0,0.512 0.256,0.992 0.544,1.12c0.64,0.256 5.632,20.832 6.144,25.6c0.384,3.488 0.032,6.08 -4.192,28.896c-0.8,4.416 -1.664,8.192 -1.888,8.352c-0.832,0.672 -1.696,9.44 -1.344,13.44c0.416,4.32 1.984,6.464 1.984,2.688c0,-3.392 4.48,1.824 6.464,7.552c0.416,1.12 0.928,2.048 1.216,2.048c0.96,0 1.952,7.488 1.792,13.824v-0.096c-0.032,0.608 -0.032,1.216 -0.032,1.824c0,4.256 0.672,8.352 1.792,11.904c1.856,7.232 1.856,7.232 -0.16,15.744c-1.088,4.672 -2.208,9.664 -2.464,11.104v0.064c-0.16,1.12 -0.48,2.208 -0.928,3.136c-0.288,0.352 -0.992,4.512 -1.568,9.312c-1.024,8.64 -3.488,18.24 -6.784,26.656l0.224,-0.832c-1.728,5.472 -3.04,11.104 -4.032,17.536c-3.52,21.024 -9.184,42.336 -14.048,53.152c-0.672,1.504 -1.984,4.832 -2.912,7.424c-2.112,5.952 -2.848,7.296 -7.488,14.272c-2.112,3.136 -3.84,6.048 -3.84,6.336c0,0.40533 -0.16,0.69333 -0.48,0.864v0c-0.576,0.608 -1.088,1.312 -1.504,2.112c-0.544,1.024 -2.528,4.512 -4.352,7.712c-2.816,4.864 -4.8,7.68 -11.328,16.256c-1.12,1.504 -21.952,22.208 -26.944,26.784c-7.456,6.848 -15.936,21.28 -24.192,41.024c-3.808,9.12 -8.416,13.472 -20.16,19.008c-11.744,5.536 -12.544,6.016 -16.192,10.176l-0.032,0.032c-1.184,1.504 -2.56,2.848 -4.16,4c-2.624,0 -14.72,9.536 -25.6,20.256c-6.56,6.4 -15.36,14.592 -19.616,18.176c-4.256,3.584 -9.408,8.064 -11.456,9.92c-2.048,1.856 -4.256,3.616 -4.864,3.904c-1.216,0.576 -4.832,7.424 -4.256,8c0.192,0.192 1.216,-0.448 2.24,-1.44c4,-3.84 4.352,-0.288 0.384,3.936c-1.6,1.728 -2.912,3.392 -2.912,3.776c-0.032,0.992 -3.136,3.712 -6.432,5.6c-3.008,1.728 -5.632,2.528 -13.184,3.968c-12.832,2.496 -21.44,5.088 -28.096,8.416c-4.128,2.112 -4.896,2.272 -6.624,1.632c-3.008,-1.088 -3.488,-0.96 -8.512,2.144c-2.56,1.6 -4.896,2.912 -5.184,2.912h-0.032c-0.768,0.288 -1.472,0.768 -2.048,1.344l0.064,-0.064c-1.408,1.088 -2.88,2.016 -4.608,2.912c-1.632,0.832 -6.24,3.52 -10.272,5.952c-8.512,5.184 -15.68,8.48 -18.432,8.48c-1.088,0 -2.112,0.288 -2.336,0.64c-0.224,0.352 -1.632,0.64 -3.168,0.64c-1.536,0 -7.808,0.992 -13.952,2.208c-14.4,2.848 -24.896,4.704 -30.144,5.184h-0.096c-1.888,0.192 -3.776,0.512 -5.344,0.992c-0.704,0.288 -6.912,1.12 -13.792,1.888c-26.08,2.848 -50.528,5.824 -52.704,6.464c-6.592,1.888 -27.872,3.648 -32.864,2.688c-4.864,-0.96 -4.864,-0.96 -9.28,1.024c-12.704,5.728 -32.352,4.384 -56.384,-3.808c-3.104,-1.056 -8.608,-2.304 -12.192,-2.784c-4.736,-0.576 -7.744,-1.408 -11.04,-2.912l-6.4,-2.976c-2.144,-0.896 -11.232,-3.84 -18.976,-6.112c-2.688,-0.768 -6.368,-2.08 -8.192,-2.912c-1.888,-0.864 -3.712,-1.536 -4.064,-1.536c-1.024,0 -9.664,-4.544 -13.44,-7.072c-6.912,-4.608 -10.656,-6.432 -13.344,-6.432c-1.68533,0 -3.264,-0.52267 -4.736,-1.568c-15.04,-10.816 -16.128,-11.264 -32.16,-13.184c-10.016,-1.152 -21.12,-3.84 -21.632,-5.216c-0.096,-0.32 -0.608,-0.576 -1.088,-0.576c-0.832,0 -12.48,-5.696 -13.152,-6.432c-0.608,-0.704 -7.04,-5.152 -7.456,-5.152c-0.544,0 -10.912,-8.16 -12.64,-9.92c-0.8,-0.8 -6.048,-5.504 -11.712,-10.336c-5.664,-4.832 -11.776,-10.176 -13.504,-11.808l-6.784,-6.144l-2.432,-2.176c-6.24,-5.664 -12.448,-11.36 -16.672,-15.264c-9.824,-8.864 -15.872,-15.424 -20,-21.76c-4.16,-6.368 -19.072,-20.384 -23.648,-22.208c-0.8,-0.32 -1.44,-0.832 -1.44,-1.216c0,-0.384 -0.384,-0.672 -0.832,-0.672c-0.448,0 -1.44,-0.64 -2.144,-1.44v0c-0.96,-0.992 -2.016,-1.856 -3.2,-2.688c-3.584,-2.432 -11.616,-11.008 -15.008,-16.096c-1.888,-2.848 -3.616,-5.312 -3.808,-5.472l0.064,0.096c-0.576,-0.832 -1.12,-1.664 -1.696,-2.656c-0.672,-1.248 -3.264,-5.28 -5.696,-8.992c-2.496,-3.712 -5.248,-8.032 -6.112,-9.632c-0.864,-1.6 -2.24,-3.776 -3.04,-4.864c-2.176,-2.944 -8.64,-13.728 -8.64,-14.464c0,-0.32 -0.256,-0.608 -0.576,-0.608c-0.64,0 -5.888,-11.648 -7.168,-15.904c-0.448,-1.472 -1.056,-2.688 -1.344,-2.688c-0.288,0 -0.544,-0.32 -0.544,-0.704c0,-0.8 -7.296,-21.216 -8.64,-24.032c-1.408,-3.04 -5.216,-16.064 -6.752,-23.136c-0.8,-3.52 -1.664,-6.88 -1.952,-7.456c-0.608,-1.088 -1.536,-9.12 -2.336,-19.328c-0.288,-3.936 -0.608,-5.472 -1.152,-5.248c-2.496,0.928 -3.52,-8.128 -1.728,-14.752c1.92,-6.88 1.312,-15.36 -1.248,-18.048c-1.088,-1.12 -0.64,-2.176 0.768,-1.792c1.76,0.416 1.408,-0.256 -4.64,-9.248c-2.432,-3.584 -4.992,-8.128 -5.728,-9.984c-0.736,-1.856 -1.728,-4.288 -2.208,-5.344c-1.984,-4.352 -6.816,-24.352 -10.336,-42.752c-4.352,-22.592 -3.52,-34.784 3.104,-46.112c5.76,-9.76 9.472,-21.984 12.672,-41.312c2.272,-14.08 2.08,-13.184 5.184,-19.296c3.104,-6.112 3.616,-9.344 4.128,-27.232c0.576,-19.04 2.368,-30.368 4.544,-28.576c1.12,0.96 1.056,1.12 4.768,-11.232c1.536,-4.96 3.136,-9.856 3.584,-10.912l-0.32,1.248c1.408,-4.768 2.624,-9.632 3.808,-15.68c2.912,-13.568 4.16,-17.728 5.568,-18.272c0.48,-0.192 0.896,-0.8 0.896,-1.312c0,-0.544 0.288,-0.992 0.64,-0.992c0.352,0 0.64,-0.32 0.64,-0.672l0.224,-0.448c2.048,-3.712 4.384,-7.264 6.816,-10.432c0.256,-0.224 1.408,-1.824 2.624,-3.552c1.152,-1.792 3.52,-4.96 5.216,-7.04l-0.032,0.032c1.12,-1.312 2.144,-2.72 3.104,-4.384c0,-0.288 1.568,-2.784 3.488,-5.568l-0.192,0.288c1.824,-2.624 3.52,-5.344 5.312,-8.608c1.888,-3.712 3.328,-4.416 2.624,-1.376c-0.256,1.12 -0.16,1.92 0.192,1.92c0.352,0 1.12,-2.048 1.728,-4.64c0.608,-2.592 1.376,-5.248 1.664,-5.952l-0.224,0.832c0.992,-3.104 1.856,-6.304 2.72,-10.304c1.952,-8.32 4.832,-16.032 6.784,-18.368c2.56,-3.008 6.592,-6.976 8.32,-8.128l0.096,-0.064c1.216,-0.896 2.4,-1.856 3.456,-2.912c0.928,-0.896 3.104,-2.656 4.832,-3.808c15.68,-10.56 30.56,-28.896 40.832,-50.4c4.704,-9.792 11.584,-17.6 13.472,-15.264c1.12,1.344 3.232,0.48 3.232,-1.312c0,-0.736 10.432,-14.176 13.44,-17.376c6.976,-7.328 24.544,-17.6 35.232,-20.608c9.76,-2.72 10.304,-3.04 29.824,-16.608c3.392,-2.368 6.368,-4.32 6.592,-4.32l0.16,-0.064c1.312,-0.64 2.528,-1.376 3.616,-2.144c3.552,-2.4 7.264,-3.04 7.936,-1.344c0.48,1.28 8.704,-3.36 13.888,-7.84c1.632,-1.376 0.768,-2.112 -1.28,-1.088c-3.072,1.504 -5.28,1.856 -5.28,0.8c0,-1.68533 2.51733,-3.28533 7.552,-4.8c9.888,-2.976 12.032,-3.424 16.192,-3.424h-0.032c0.352,0.032 0.736,0.064 1.12,0.064c1.344,0 2.656,-0.224 3.776,-0.64c0.608,-0.576 9.824,-2.4 34.368,-6.848l0.48,-0.064c3.552,-0.544 7.008,-1.312 9.792,-2.144c0.64,-0.768 9.664,-1.92 12.096,-1.536c1.536,0.256 5.536,-0.224 10.976,-1.312c7.424,-1.504 8.704,-1.632 9.888,-0.832c2.304,1.472 11.424,-3.456 12.192,-6.56c0.544,-2.24 3.872,-5.792 5.408,-5.792h0.032c0.608,-0.096 1.184,-0.384 1.6,-0.8c1.28,-1.248 7.968,-4.32 13.696,-6.336zM425.64,116.64c-11.84,-2.4 -23.52,-1.344 -31.584,2.912c-6.88,3.648 -7.904,5.76 -9.696,20.224l-0.032,0.416c-0.352,2.656 -0.8,5.28 -1.248,7.264c-0.384,1.6 -0.864,11.2 -1.056,21.376c-0.384,20.928 0.192,18.912 -6.784,22.336c-1.664,0.832 -3.04,1.728 -3.04,1.984c0,0.256 -0.928,0.704 -2.08,0.928l-0.192,0.032c-1.376,0.32 -2.72,0.768 -3.808,1.248c-1.088,0.48 -4.8,1.728 -8.256,2.816c-3.456,1.088 -7.776,2.656 -9.632,3.52c-19.104,8.96 -42.176,11.584 -76.256,8.64c-10.944,-0.928 -10.24,-0.672 -14.368,-5.536c-3.84,-4.576 -15.04,-13.408 -17.728,-14.048c-0.896,-0.192 -2.72,-0.768 -4.064,-1.28c-7.456,-2.784 -8.64,0.864 -4.16,12.768c2.47467,6.592 5.87733,10.98667 10.208,13.184l0.128,0.064c2.336,1.472 4.448,3.264 6.272,5.408c1.856,2.176 3.616,4.064 3.904,4.224c1.056,0.48 0.384,3.232 -1.12,4.768c-3.296,3.264 -9.152,2.784 -12.096,-0.992c-0.864,-1.152 -2.432,-2.976 -3.488,-4.064c-1.056,-1.088 -2.176,-2.432 -2.496,-2.976c-0.32,-0.544 -2.848,-3.008 -5.696,-5.472c-2.848,-2.464 -6.72,-6.016 -8.672,-7.872c-8.96,-8.608 -20,-11.456 -20.448,-5.312c-0.064,1.504 0.096,2.72 0.416,2.72c0.32,0 0.8,0.96 1.024,2.048c1.376,6.944 9.152,20.576 17.152,30.176l-0.16,-0.192c2.176,2.592 4.224,5.28 6.432,8.448l0.128,0.224c0.96,1.472 2.016,2.912 3.008,4.192l-0.032,-0.064c0.8,1.056 1.504,2.176 2.144,3.488l0.384,0.768c1.248,2.272 2.56,4.512 3.552,6.08l-0.192,-0.288c3.168,4.768 5.856,9.856 8.16,15.808l0.192,0.608c0.992,2.496 2.048,4.928 3.008,6.816l-0.352,-0.928c2.72,6.176 5.024,12.576 7.104,20.192l0.064,0.256c0.48,1.984 1.12,3.936 1.824,5.536c3.744,4.896 5.856,28.16 3.168,35.136c-3.072,8.128 -14.592,13.28 -20.032,8.992c-1.056,-0.896 -13.056,-5.056 -20.032,-7.008c-6.464,-1.824 -14.816,-5.792 -20.992,-10.048c-2.304,-1.6 -6.496,-4.096 -9.28,-5.568l-6.048,-3.2c-1.824,-1.024 -4.16,-1.888 -8,-2.944c-6.976,-1.92 -15.968,-8.416 -22.944,-16.512c-7.168,-8.352 -23.072,-16.448 -26.208,-13.344c-3.68,3.712 -1.568,9.536 5.632,15.392l0.064,0.064c2.4,2.048 4.608,4.32 6.656,6.88l0.16,0.224c3.168,4.224 6.688,8.16 10.592,11.808c2.368,2.048 4.384,4.224 10.784,11.488l7.552,8.416c22.56,24.704 19.712,36.928 -5.6,24.256c-5.056,-2.528 -11.36,-5.6 -13.984,-6.848c-2.656,-1.248 -6.688,-3.296 -8.992,-4.544c-2.77333,-1.51467 -5.984,-2.61333 -9.632,-3.296c-3.008,-0.544 -7.936,-1.696 -10.912,-2.496c-8.384,-2.304 -9.888,-2.464 -11.52,-1.152c-2.048,1.696 -1.92,5.472 0.288,9.824l-0.16,-0.352c1.28,2.624 2.368,5.376 3.36,8.64c1.952,6.432 2.816,8.256 5.312,10.944l-0.032,-0.032c1.216,1.344 2.24,2.816 3.168,4.544c2.272,4.8 5.536,8.512 19.84,22.816c14.88,14.784 14.88,14.784 16.704,19.936c0.992,2.784 3.648,9.888 5.984,15.68c5.088,12.96 6.528,17.92 7.296,25.376c0.352,3.2 1.312,10.432 2.176,16.064c4.672,30.784 4.096,41.312 -4,71.968c-0.608,2.112 -1.088,6.528 -1.088,9.824c-0.128,7.104 0.704,6.496 -10.752,7.264c-4.8,0.288 -9.472,0.8 -10.368,1.152c-0.896,0.352 -4.032,0.96 -7.008,1.408c-8.128,1.152 -9.312,1.824 -11.232,6.208l-0.096,0.224c-1.056,2.688 -2.432,5.184 -4.032,7.36c-2.496,3.776 0.256,11.008 4.768,12.48l0.096,0.032c1.568,0.704 2.976,1.696 4.16,2.88c2.144,2.208 4.064,3.072 8.384,3.808l0.192,0.064c2.368,0.768 4.576,1.888 6.496,3.2l-0.032,-0.032c1.824,1.344 3.936,2.368 6.304,2.944v0c1.056,0.032 2.08,0.224 2.944,0.576l-0.544,-0.096c4.16,0.768 8.384,1.248 12.864,1.408h0.16c4.48,0.16 8.896,0.64 12.672,1.376c0.896,0.352 4.064,1.024 6.976,1.504c5.728,0.928 9.088,2.272 11.552,4.544l-0.064,-0.032c1.696,1.184 3.584,2.144 5.728,2.848c11.136,3.776 9.696,23.104 -2.208,28.736c-1.984,0.96 -4.128,2.816 -12.32,10.752c-6.592,6.4 -6.816,8.896 -1.376,16.384c9.536,13.056 11.648,13.952 43.808,18.368l0.704,0.064c4.544,0.544 9.024,1.312 12.448,2.112l-0.384,-0.128c1.6,0.608 3.232,1.12 5.28,1.696c19.168,5.568 11.328,29.792 -12.192,37.76c-17.792,6.016 -19.168,29.44 -2.048,34.656l1.024,0.288c3.648,1.184 7.232,2.496 9.792,3.616c10.048,4.096 25.536,5.952 37.952,4.544c3.424,-0.416 9.216,-1.056 12.928,-1.408c3.712,-0.352 6.88,-0.928 7.072,-1.216l-0.032,0.032c0.896,-0.576 1.856,-0.992 2.976,-1.216l8.352,-2.4c4.864,-1.472 7.712,-1.824 18.304,-2.336c12.096,-0.576 18.816,-1.344 21.504,-2.432l-0.832,0.224c2.976,-0.896 5.984,-1.696 9.824,-2.528l1.344,-0.256c8,-1.76 15.808,-4 22.016,-6.24c11.328,-3.904 50.176,-4.096 50.176,-0.224c0,0.256 0.864,0.768 1.92,1.12l0.48,0.224c3.296,1.728 6.528,3.616 9.28,5.536l-1.92,-1.184c3.776,2.432 7.584,4.832 13.6,8.416l0.096,0.032c1.472,0.768 2.816,1.76 3.968,2.976v0c0.192,0.416 0.608,0.704 1.088,0.768c0.48,0 5.184,4.128 10.464,9.184l-0.064,-0.064c4.608,4.448 9.472,8.608 14.976,12.832l0.32,0.224c4.544,3.36 8.832,7.008 12.832,10.976c15.424,14.944 14.176,14.016 21.024,15.392c12.896,2.592 25.728,1.28 29.92,-3.072c5.152,-5.312 4.032,-9.248 -7.584,-26.944c-2.016,-3.072 -4.448,-7.712 -5.44,-10.272c-0.928,-2.624 -2.144,-5.344 -2.624,-6.112c-4.8,-7.744 -4.928,-35.552 -0.16,-35.552c0.288,0 0.544,-0.448 0.544,-0.96c0,-1.664 4.672,-6.24 7.584,-7.488c8.832,-3.776 25.216,1.856 46.528,15.968l-0.512,-0.32c2.688,1.824 5.44,3.584 8.928,5.6l0.064,0.032c1.12,0.608 2.176,1.376 3.104,2.272c1.184,1.12 9.504,5.44 17.472,9.056c8.32,3.776 24.992,3.584 31.968,-0.352c2.24,-1.312 2.304,-1.664 0.8,-5.76c-1.824,-5.056 0.416,-23.072 3.52,-28.032c6.368,-10.304 15.296,-13.888 39.2,-15.808c17.408,-1.44 24.384,-5.664 24.384,-14.912c0,-5.216 -4.448,-17.088 -7.744,-20.608c-0.672,-0.768 -1.248,-1.6 -1.248,-1.92c0,-0.32 -2.72,-4.512 -6.016,-9.344l0.352,0.512c-3.328,-4.672 -6.4,-9.536 -9.696,-15.392c-0.864,-0.64 -3.968,-7.968 -4.864,-11.456c-2.208,-8.512 0.256,-21.312 4.544,-23.712c7.552,-4.224 -2.4,-26.656 -15.104,-34.048l-0.128,-0.064c-1.472,-0.896 -2.848,-1.92 -4.096,-3.04c-0.768,-0.768 -2.048,-1.6 -2.912,-1.856c-6.048,-1.728 -5.728,-0.64 -5.728,-18.688c0,-14.528 0.16,-16.736 1.248,-20.032c0.704,-2.048 2.304,-7.264 3.552,-11.616c1.248,-4.352 2.464,-8.224 2.656,-8.512l-0.064,0.192c0.48,-1.504 0.832,-3.072 1.056,-4.8c0.352,-2.176 1.12,-4.992 1.632,-6.24c1.696,-3.872 2.048,-4.736 2.688,-7.072c1.44,-5.152 6.048,-19.712 6.592,-20.896l-0.384,1.184c1.12,-2.976 2.176,-5.984 3.488,-10.24l0.32,-1.024c1.888,-5.472 4.064,-10.752 6.176,-15.04c2.208,-4.576 4.704,-10.112 5.6,-12.32c0.896,-2.208 1.888,-4.032 2.176,-4.032v0c0.32,0 0.576,-0.256 0.576,-0.576c0,-2.08 7.904,-16.608 9.632,-17.6l0.128,-0.064c0.928,-0.576 1.792,-1.216 2.592,-1.856l-0.064,0.032c1.888,-1.376 4.064,-2.4 6.528,-3.072c2.144,0 14.368,-6.72 17.376,-9.536l-0.032,0.032c4.16,-3.968 8.736,-7.456 13.984,-10.688c7.328,-4.48 18.784,-14.624 26.912,-23.808c9.44,-10.72 12,-40.928 3.648,-43.904c-5.472,-1.984 -14.464,-1.152 -14.528,1.312v0c-0.96,0.896 -2.08,1.6 -3.36,2.176c-1.824,0.928 -4.736,2.688 -6.464,3.872l0.032,-0.032c-1.152,0.864 -2.464,1.6 -3.936,2.208l-0.064,0.032c-1.28,0.512 -2.432,1.28 -3.424,2.176l0.096,-0.064c-2.112,1.504 -4.48,2.688 -7.2,3.552c-2.4,0.736 -5.472,2.08 -6.88,3.008c-5.472,3.744 -19.872,4.608 -25.664,1.568c-2.016,-1.056 -4.224,-1.92 -4.928,-1.92c-6.208,0 -16.832,-10.848 -18.496,-18.848c-2.784,-13.568 -0.416,-19.36 15.072,-36.576l-0.032,0.032c1.536,-1.632 2.912,-3.424 4.224,-5.472l0.288,-0.544c1.216,-2.112 2.496,-4.16 3.584,-5.76c1.632,-2.464 3.968,-6.208 5.12,-8.32l0.384,-0.736c1.376,-2.464 2.848,-4.896 4.032,-6.688l-0.256,0.448c2.592,-3.904 4.928,-7.968 7.328,-12.832c3.296,-6.304 3.296,-6.304 1.088,-8.992c-2.368,-2.88 -9.344,-5.088 -10.688,-3.392l-1.088,1.504c-4.832,6.4 -9.76,12.672 -13.984,17.824c-3.712,4.608 -6.752,8.768 -6.752,9.184c0,0.416 -0.192,0.8 -0.48,0.8c-0.288,0 -1.024,1.056 -1.728,2.336l-0.032,0.064c-0.576,1.088 -1.376,2.08 -2.368,2.848c-0.64,0.32 -1.152,1.024 -1.152,1.536c0,0.512 -0.192,0.96 -0.48,0.96v0c-1.152,1.152 -2.144,2.464 -3.008,4c-2.912,4.608 -19.072,22.272 -23.072,25.248l-8.768,6.56c-3.328,2.496 -7.552,5.6 -9.312,6.848l-5.984,4.256c-1.472,1.12 -5.664,3.008 -9.28,4.192c-14.496,4.896 -15.744,4.992 -21.216,1.952l0.096,0.064c-1.568,-0.928 -3.232,-1.728 -5.184,-2.336c-1.952,0 -4.192,-2.592 -5.952,-6.88l-3.072,-7.2c-1.408,-3.136 -1.472,-13.824 -0.096,-14.688v0c0.416,-0.256 0.736,-0.64 0.96,-1.088l0.224,-0.448c3.072,-5.568 6.752,-10.784 10.848,-15.456v0c1.792,-1.792 3.392,-3.744 4.928,-5.984l0.032,-0.096c0.48,-0.96 1.056,-1.824 1.696,-2.624c3.968,-4.224 2.112,-13.088 -2.912,-13.856c-1.312,-0.192 -3.072,-0.544 -3.904,-0.8c-1.952,-0.576 -7.392,5.088 -9.728,10.08l-0.032,0.096c-0.512,1.312 -1.216,2.528 -2.048,3.584c-0.256,0.096 -0.48,0.512 -0.48,0.864c0,0.384 -0.736,1.216 -1.6,1.92c-0.864,0.704 -1.6,1.536 -1.6,1.856c0,2.496 -15.168,19.904 -17.312,19.904c-0.48,0 -2.816,0.48 -5.184,1.056c-10.752,2.56 -16.736,-7.36 -16.928,-28.064c-0.128,-15.392 -2.816,-19.744 -14.432,-23.36c-7.584,-2.368 -7.584,-2.304 -8.16,-17.12c-0.416,-9.6 -0.288,-11.84 0.64,-15.392c3.456,-12.992 -2.4,-30.464 -9.568,-28.672c-1.568,0.352 -5.504,5.952 -5.504,7.712c0,0.48 -0.32,0.992 -0.704,1.12c-1.152,0.384 -3.744,12.48 -4.448,20.768c-0.352,4.224 -0.928,8.896 -1.28,10.272c-0.352,1.376 -0.64,3.808 -0.64,5.28c-0.064,9.76 -13.6,12.128 -17.088,3.072c-0.608,-1.6 -1.344,-2.912 -1.664,-2.912c-0.32,0 -0.544,-0.512 -0.544,-1.152c0,-0.608 -0.224,-1.44 -0.544,-1.76c-0.32,-0.32 -1.632,-3.776 -3.008,-7.68c-1.28,-3.872 -3.104,-8.544 -3.904,-10.272c-1.472,-3.136 -2.752,-8.192 -4.16,-16.064c-2.752,-15.552 -9.312,-30.816 -14.816,-34.528c-0.864,-0.576 -3.296,-2.752 -5.504,-4.832c-4.064,-3.872 -4.608,-4.768 -8.96,-15.488c-1.184,-2.976 -2.624,-5.824 -3.2,-6.368c-0.576,-0.544 -2.144,-3.456 -3.616,-6.496c-1.472,-3.04 -3.872,-7.36 -5.44,-9.6c-2.24,-3.296 -2.752,-4.64 -2.752,-6.912c0,-3.584 -1.12,-4.224 -10.176,-6.048zM546.696,142.72c-16.896,-8.192 -30.816,22.496 -17.408,38.4c2.688,3.2 11.264,6.272 11.264,3.968c0,-0.352 0.64,-0.64 1.44,-0.64c3.584,0 9.44,-6.112 10.752,-11.232l0.032,-0.128c0.352,-1.312 0.8,-2.56 1.344,-3.648c4.192,-7.328 -0.224,-23.2 -7.392,-26.688zM765.064,165.888c-8.832,-7.744 -23.84,27.072 -15.776,36.576c2.976,3.488 12.832,-3.072 15.904,-10.592c0.672,-1.6 1.408,-2.912 1.632,-2.912c0.768,0 2.016,-7.328 2.016,-11.968c-0.064,-5.856 -0.992,-8.672 -3.776,-11.136zM640.136,197.408c-10.592,-2.432 -19.968,4.32 -23.808,17.12c-0.448,1.472 -1.024,2.72 -1.28,2.72c-0.256,0 -0.608,0.768 -0.768,1.76l-2.336,10.752c-3.136,13.984 -2.432,18.368 3.424,21.792c8.16,4.8 18.24,1.312 19.968,-6.912v-0.064c0.256,-1.12 0.736,-2.144 1.376,-3.008c2.272,-2.624 8.928,-16.096 11.776,-23.808c3.968,-10.944 0.992,-18.24 -8.352,-20.384zM154.408,215.072c-5.024,-0.448 -7.744,0.544 -10.752,4c-9.024,10.304 -4.512,19.968 14.496,30.816c7.904,4.512 22.624,17.888 22.624,20.576c0,4.48 5.408,11.136 11.2,13.76c1.12,0.512 2.112,2.048 3.328,5.184c2.272,5.792 4.608,7.68 9.952,8.064c2.464,0.16 4,0.576 4.192,1.152c1.024,2.656 4,0.8 4.448,-2.752v-0.064c0.16,-1.216 0.48,-2.4 0.96,-3.424c1.6,-3.008 0.672,-9.056 -2.528,-16.16c-0.992,-2.176 -2.016,-4.8 -2.24,-5.792c-0.288,-0.96 -0.736,-1.728 -1.088,-1.728c-0.352,0 -0.64,-0.32 -0.64,-0.704c0,-1.408 -7.36,-16.512 -11.936,-24.512c-2.624,-4.608 -4.768,-8.768 -4.768,-9.248c0,-0.48 -0.224,-0.896 -0.512,-0.896c-0.288,0 -1.184,-1.12 -1.952,-2.496c-6.144,-10.88 -15.232,-16.736 -24.832,-15.872c-2.496,0.256 -4.8,0.448 -5.152,0.448zM285.448,233.536c-0.032,-0.64 0.224,-0.8 1.12,-0.448l-0.352,-0.032c3.136,0.448 6.336,0.672 9.6,0.672c0.288,0 0.608,0 0.864,0h0.16c5.184,0.096 10.304,0.416 14.592,0.896l-0.256,-0.032c2.08,0.288 4.224,0.448 6.4,0.448c0.992,0 2.016,-0.032 2.848,-0.096c7.488,-0.928 16.224,6.592 11.264,9.664c-0.384,0.224 -0.672,0.896 -0.672,1.472c0,1.952 -4.256,11.808 -7.84,18.304c-3.712,6.656 -8.448,3.296 -29.472,-21.088c-3.04,-3.52 -6.144,-6.944 -6.912,-7.648c-0.768,-0.704 -1.376,-1.632 -1.376,-2.144zM376.424,251.008c8.64,-8.416 8.832,-8.416 9.376,0.384c1.888,31.392 1.6,35.712 -3.264,44.96c-2.4,4.576 -26.208,7.712 -29.184,3.872v0c-0.704,-0.736 -1.536,-1.376 -2.496,-1.856c-7.008,-3.616 -10.464,-8.8 -8.032,-12.096c1.344,-1.76 2.4,-3.456 2.4,-3.712c0,-1.824 20.416,-23.552 22.848,-24.352c0.768,-0.192 4.512,-3.456 8.32,-7.168zM427.176,352.16c8.352,-1.376 21.504,-0.32 21.12,1.728l-0.544,2.368c-0.352,1.408 -0.224,1.728 0.768,1.728h0.096c1.44,0.288 2.784,0.768 3.968,1.408c2.72,1.312 4.128,1.408 23.776,1.792c21.536,0.448 22.016,0.512 26.336,3.264l-0.416,-0.224c1.536,0.864 3.072,1.696 5.184,2.72c6.688,3.36 7.232,5.984 6.336,30.56c-1.152,30.336 1.536,38.176 14.592,43.168l0.096,0.032c1.152,0.384 2.24,0.928 3.168,1.6c0.384,0.576 10.592,3.712 12.128,3.712c5.984,0 16,9.728 17.12,16.64c0.224,1.472 0.672,2.816 0.96,3.008c0.8,0.48 0.704,16.16 -0.064,16.64c-0.384,0.224 -0.672,1.312 -0.672,2.464c0,8.384 -5.376,17.76 -10.208,17.76c-0.768,0 -1.376,0.288 -1.376,0.64c0,0.832 -22.912,0.864 -23.392,0.064c-1.344,-2.208 -20.032,-2.432 -24.576,-0.288c-21.28,10.112 -5.024,35.072 23.136,35.552c12.416,0.256 17.28,0.576 17.856,1.152c0.48,0.48 2.656,0.8 5.664,0.8c4.32,0 5.184,0.192 7.68,1.92l-0.032,-0.032c1.056,0.832 2.272,1.472 3.68,1.92c6.016,0 8.224,10.144 4.736,21.92c-3.968,13.536 -4.064,13.632 -14.688,14.112c-6.496,0.256 -8.64,0.576 -10.976,1.728c-1.6,0.8 -4.192,1.76 -5.792,2.24c-4.256,1.216 -5.728,6.624 -5.76,21.056v-0.032c0.032,0.256 0.032,0.48 0.032,0.736c0,1.472 -0.224,2.88 -0.608,4.128c-0.896,0.96 -2.048,6.336 -2.048,9.472c0,3.36 -0.608,4 -4.448,4.64c-1.568,0.224 -4.608,1.28 -6.752,2.272c-4.32,1.984 -10.016,4.32 -14.624,6.016l-0.096,0.032c-1.952,0.736 -3.648,2.016 -4.96,3.648l-0.032,0.032c-1.28,1.536 -2.784,2.88 -4.48,4.096c-2.464,1.568 -4.48,4.672 -5.344,8.288c-0.704,2.944 -4.864,12.064 -6.304,13.856c-1.792,2.272 -4.032,3.2 -7.552,3.2c-6.304,0 -8.672,-1.12 -12.672,-5.984c-1.056,-1.312 -2.144,-7.616 -2.144,-12.64c0,-7.04 -3.168,-19.68 -5.216,-20.448c-0.288,-0.096 -0.512,-0.512 -0.512,-0.864c0,-0.352 -0.96,-1.6 -2.112,-2.688c-1.152,-1.088 -2.656,-2.784 -3.36,-3.648c-2.656,-3.456 -3.84,-3.84 -12.256,-3.84c-9.888,0 -12.096,1.184 -16.736,8.992c-13.056,21.856 -26.88,25.28 -32.384,8c-1.152,-3.552 -2.72,-8.448 -3.584,-10.816c-0.864,-2.368 -1.536,-4.896 -1.536,-5.536c0,-0.64 -0.256,-1.28 -0.512,-1.408c-0.256,-0.128 -0.96,-2.464 -1.536,-5.152c-2.4,-11.168 -8.768,-18.944 -16.544,-20.096c-1.632,-0.224 -4.384,-0.896 -6.112,-1.44c-2.464,-0.8 -4.8,-0.928 -10.592,-0.64c-13.76,0.736 -16.416,-0.96 -21.088,-13.504c-4.384,-11.808 -2.144,-54.112 3.072,-57.984l-0.032,0.032c0.608,-0.768 1.152,-1.6 1.6,-2.592c3.104,-6.112 10.336,-13.088 22.464,-21.504c5.792,-4.032 16.448,-14.816 19.136,-19.36c0.288,-0.48 0.864,-0.864 1.312,-0.928c0.384,0 3.072,-2.464 5.888,-5.504l8.512,-9.056c1.856,-1.952 3.392,-3.808 3.392,-4.096c0,-0.288 0.256,-0.544 0.576,-0.544c0.576,0 3.712,-7.456 5.76,-13.792c1.408,-4.416 1.504,-23.872 0.128,-27.648c-1.344,-3.584 -1.056,-30.784 0.32,-32.896v0.032c0.448,-0.672 0.768,-1.472 0.928,-2.368v0c0.032,-0.576 0.384,-1.024 0.896,-1.248v0c1.184,-1.28 2.144,-2.784 2.848,-4.512c3.424,-7.232 17.664,-15.872 29.344,-17.824zM402.376,474.528c-6.624,-1.568 -20.224,-0.576 -21.92,1.6v0c-0.448,0.448 -0.96,0.8 -1.536,1.088c-3.392,1.888 -7.424,14.432 -4.64,14.432c0.928,0 1.088,1.12 1.088,9.152c0.032,10.496 1.024,13.024 6.112,15.584c3.552,1.792 20.576,2.24 25.152,0.704c14.72,-5.024 22.304,9.376 15.68,29.696c-4.864,15.008 1.856,17.696 11.68,4.64l0.16,-0.224c1.312,-1.76 2.688,-3.456 4,-4.992c0.864,-0.928 2.464,-3.52 3.616,-5.792c1.984,-3.872 2.432,-4.256 6.592,-6.304c7.264,-3.552 9.088,-3.232 24.928,4.448c12.128,5.856 7.456,-12.16 -5.6,-21.728c-5.6,-4.128 -10.048,-9.888 -10.048,-13.12c0,-0.928 -0.256,-1.888 -0.576,-2.08c-0.928,-0.576 -1.632,-5.344 -1.632,-11.264c0,-7.648 -1.376,-7.904 -4.576,-0.864c-4.928,10.816 -8.21333,11.424 -9.856,1.824c-0.864,-5.088 -2.4,-8.672 -3.712,-8.672c-1.952,0 -3.392,1.344 -3.392,3.072v0.064c-0.096,1.44 -0.352,2.784 -0.736,3.968l0.064,-0.192c-0.544,1.76 -0.96,3.616 -1.184,5.632c-0.512,4.192 -1.952,5.024 -8.192,4.608c-7.328,-0.48 -8.672,-1.984 -9.056,-9.76c-0.32,-6.976 -0.576,-7.744 -2.944,-10.176v0c-2.432,-2.656 -5.664,-4.544 -9.408,-5.312zM661.672,482.528v0c1.024,-1.152 2.24,-2.176 3.616,-3.072c1.152,0 0.576,18.72 -0.768,25.056c-0.736,3.36 -2.048,9.984 -2.912,14.752c-3.264,17.728 -7.392,27.104 -15.68,35.424c-8.864,8.928 -10.08,9.248 -11.168,2.624v-0.096c-0.192,-1.76 -0.64,-3.456 -1.216,-4.896c-0.768,-0.736 -0.576,-12.736 0.224,-16.16l0.192,-0.992c2.208,-9.056 5.28,-17.792 8.704,-25.216l2.784,-6.176l0.064,-0.192c0.992,-2.144 2.272,-4.16 3.712,-5.92l-0.192,0.224c1.952,-2.336 3.84,-4.704 5.92,-7.552c1.952,-2.624 4.928,-6.176 6.656,-7.84zM233,490.528c-0.544,-2.336 1.376,-1.76 3.616,1.088c4.928,6.208 14.816,21.696 14.816,23.2c0,0.32 0.288,0.608 0.576,0.608c0.288,0 1.12,1.408 1.856,3.072c5.6,13.184 6.528,25.28 2.336,30.304c-2.848,3.36 -4.064,2.144 -7.68,-7.328c-0.768,-2.144 -2.912,-6.784 -4.64,-10.336c-3.936,-7.808 -4.768,-10.272 -6.56,-18.944c-0.768,-3.712 -1.664,-7.36 -1.952,-8.032c-0.288,-0.672 -0.864,-3.712 -1.28,-6.752c-0.416,-3.008 -0.864,-6.112 -1.088,-6.912zM193.512,497.376c3.072,-2.464 9.6,-0.64 9.76,2.752l0.032,0.288c0.192,1.376 0.416,2.752 0.64,3.744c0.672,3.328 1.952,26.144 2.144,38.56v0.096c0.064,3.872 0.288,7.712 0.672,10.944c0.512,3.968 0.512,3.968 -1.984,4.384c-1.376,0.224 -4.224,0.832 -6.304,1.344c-4.48,1.088 -4,1.376 -5.216,-3.296c-0.512,-2.048 -1.408,-4.64 -1.952,-5.76c-2.304,-4.864 -0.416,-50.976 2.208,-53.088zM724.936,623.424c-12.704,-2.944 -19.616,8.896 -10.752,18.272v0c0.96,0.864 1.76,1.92 2.432,3.136c0,8.896 32.768,24.512 42.4,20.192c17.6,-7.872 7.968,-29.248 -15.648,-34.688c-6.112,-1.408 -9.408,-2.528 -12.032,-4.096l0.128,0.064c-1.984,-1.184 -4.096,-2.144 -6.56,-2.88z" /></svg>