<svg xmlns="http://www.w3.org/2000/svg" viewBox="0 0 916 960" width="916" height="960"><path d="M747.719,517.717c2.877,-10.911 2.06,-22.413 2.06,-33.634c0,-0.226 0.026,-0.482 0.026,-0.705c-4.68,3.017 -8.992,8.006 -11.954,11.982c-2.509,3.355 -4.595,6.963 -7.301,10.177c-2.087,2.453 -4.399,4.653 -6.006,7.499c-3.382,5.95 -5.665,12.828 -8.259,19.144c-2.904,7.103 -6.37,15.224 -7.922,22.751c-1.891,8.993 -2.033,18.352 -0.593,27.403c0.65,4.003 1.269,7.978 2.368,11.728c0.037,-0.011 0.048,-0.011 0.074,-0.037c3.524,-1.946 6.541,-4.259 9.669,-6.682c4.341,-3.383 7.642,-7.753 11.023,-12.178c2.284,-3.019 3.694,-6.007 4.793,-9.614c1.183,-3.836 3.465,-7.472 4.397,-11.391c2.848,-12.095 4.428,-24.387 7.612,-36.425zM612.99,603.388c3.158,-8.034 7.359,-21.087 1.974,-29.009c-2.736,-4.061 -6.654,-4.032 -10.685,-6.062c-1.915,-0.987 -2.539,-2.705 -4.68,-3.269c-3.072,-0.817 -6.822,0.481 -10.036,-0.112c-5.807,-1.103 -9.98,-2.283 -16.069,-2.257c-5.329,0 -10.684,0 -16.042,0c-4.37,0 -10.769,1.285 -14.913,0.186c-4.792,-1.269 -9.841,-8.006 -13.222,-11.587c-6.411,-6.766 -13.024,-21.06 -6.597,-29.348c7.921,-10.263 19.227,-8.971 31.012,-8.711c5.356,0.116 9.501,2.427 14.828,2.539c5.358,0.122 10.742,-0.026 16.071,-0.026c9.105,0 17.704,0.45 21.989,-9.051c4.844,-10.853 5.189,-21.199 5.215,-33.04c0.028,-12.067 -1.946,-19.143 -10.911,-27.234c-7.809,-7.047 -16.971,-6.484 -26.049,-10.346c-13.335,-5.639 -22.385,-9.388 -26.106,-24.16c-3.102,-12.292 -1.213,-26.784 -1.213,-39.497c0,-8.995 4.172,-29.8 -4.85,-36.002c-1.833,-1.269 -4.172,-1.44 -6.061,-2.624c-2.451,-1.522 -2.34,-2.397 -5.075,-3.496c-5.159,-2.029 -10.515,-2.46 -16.154,-2.423c-10.29,0.037 -20.608,0 -30.898,0c-4.906,-0.026 -9.246,-0.167 -13.588,-1.239c-3.158,-0.79 -9.078,-4.65 -12.377,-3.722c1.128,0.112 2.086,-6.823 2.846,-6.033c-4.398,-4.288 -26.135,-2.031 -31.97,-0.847c-1.184,0.252 -3.947,1.547 -5.469,1.944c-2.537,0.616 -3.439,0.957 -5.554,1.859c-4.37,1.861 -7.697,3.806 -11.699,6.174c-3.722,2.226 -7.304,4.37 -9.98,8.007c-1.719,2.31 -1.69,3.608 -2.988,6.202c-0.62,1.239 -3.496,4.313 -3.919,5.497c-0.148,0.397 -0.186,0.79 -0.26,1.184l-0.223,-1.747c0.816,3.159 -1.326,3.382 -1.919,5.497c-0.676,2.397 -0.59,4.371 -0.564,6.88c0.027,0.761 0,1.493 0,2.253c0,0.074 -0.011,0.111 -0.037,0.148c-0.223,1.44 -0.149,2.906 0.037,4.342c0,3.13 0,6.23 0,9.332c0,4.568 -1.031,10.488 -0.074,14.913c1.042,4.935 2.59,7.753 2.564,13.505c-0.037,5.807 -0.037,11.615 0,17.423c0.027,6.738 -1.326,9.838 -3.779,15.956c-2.227,5.553 -3.044,10.177 -7.274,14.829c-5.158,5.696 -10.317,11.503 -15.646,16.803c-8.428,8.401 -15.533,18.324 -24.188,26.444c-4.596,4.286 -9.726,7.641 -14.632,11.362c-5.864,4.427 -14.096,10.234 -18.719,15.873c-12.067,14.688 -14.78,32.703 -14.661,51.225c0.085,11.249 -2.199,24.978 2.481,35.409c3.835,8.513 4.962,18.379 16.069,19.734c4.737,0.576 10.037,-0.074 14.829,-0.074c2.481,0 4.991,-0.138 7.443,-0.026c3.242,0.137 4.286,1.269 6.71,1.944c4.483,1.24 7.611,0.791 11.728,2.962c5.384,2.875 8.147,7.921 11.221,13.673c4.848,8.993 4.539,19.311 8.626,28.276c3.89,8.542 3.692,19.085 11.333,25.796c10.91,9.641 23.288,-7.106 30.137,-15.169c4.596,-5.356 7.133,-13.391 12.857,-17.394c5.018,-3.552 10.374,-2.988 16.154,-2.988c6.004,0 9.275,-0.93 13.588,3.637c3.468,3.667 7.358,7.106 9.867,11.193c5.639,9.275 7.517,20.102 7.443,30.927c-0.141,14.067 4.679,21.06 19.819,21.087c14.265,0.057 14.237,-22.723 21.143,-31.18c1.974,-2.422 4.905,-2.904 7.02,-4.99c2.113,-2.058 2.455,-4.284 5.075,-6.061c3.835,-2.621 8.966,-3.381 13.054,-5.441c4.256,-2.144 6.935,-3.271 11.53,-4.567c1.664,-0.48 3.241,-1.664 5.075,-2.257c2.397,-0.762 6.652,-0.338 8.374,-2.962c1.295,-1.973 -0.037,-4.622 0.223,-6.737c0.564,-4.288 2.512,-8.149 2.735,-12.547c0.448,-8.486 0.167,-17.959 2.282,-26.162c1.522,-5.877 3.552,-4.708 8.683,-6.174c6.118,-1.749 9.417,-4.811 16.098,-4.737c4.06,0.055 10.683,1.295 14.35,-0.479c5.016,-2.481 4.905,-8.852 6.597,-13.194zM284.355,199.222c2.395,2.593 4.961,5.046 7.582,7.443c0.227,-0.648 0.424,-1.294 0.706,-1.944c2.226,-5.301 4.876,-10.149 7.78,-15.111c2.396,-4.089 3.806,-8.712 5.695,-13.025c1.21,-2.678 1.889,-8.937 0.958,-11.813c-0.761,-2.424 -4.877,-4.565 -7.414,-5.018c-5.413,-0.958 -11.192,0.819 -16.633,-0.223c-7.951,-1.495 -16.183,-1.014 -24.274,-0.902c-4.709,0.085 -8.824,-0.595 -13.251,-1.552c0.704,0.649 1.354,1.354 2.058,1.974c6.145,5.582 10.459,12.658 16.181,18.635c6.879,7.189 13.87,14.18 20.609,21.539zM334.772,211.05c-5.526,6.117 -11.023,13.476 -15.421,20.665c4.284,4.059 8.655,7.921 13.559,11.332c3.27,2.283 6.315,4.387 10.402,4.313c1.975,-0.038 3.864,-0.186 5.808,-0.186c3.976,0.056 7.584,-0.423 11.475,-1.213c2.537,-0.504 4.905,-1.091 7.499,-1.239c2.199,-0.082 2.37,0.423 3.721,-1.154c3.863,-4.566 6.035,-12.376 6.795,-18.098c0.891,-6.851 0.16,-14.04 0.186,-20.947c0.029,-5.582 -0.227,-10.825 -0.932,-16.352c-0.578,-4.876 0.171,-9.753 -0.504,-14.602c-0.1,-0.876 -0.249,-1.721 -0.397,-2.568c-0.847,0.619 -1.637,1.294 -2.509,1.944c-6.005,4.483 -10.742,9.782 -15.985,15.083c-4.314,4.313 -9.782,7.047 -13.673,11.868c-3.159,3.92 -6.597,7.387 -10.008,11.137zM341.177,131.747c-1.833,1.55 -5.662,5.018 -5.61,7.724c0.056,2.452 5.497,4.534 7.555,4.905c3.975,0.705 7.893,-2.056 11.699,-2.509c3.693,-0.422 5.639,-2.567 8.965,-3.721c3.157,-1.128 6.261,-2.398 9.359,-3.637c-0.397,-6.851 -0.397,-13.703 -0.371,-20.581c-6.54,1.354 -13.447,4.147 -18.804,7.245c-4.765,2.764 -8.599,6.992 -12.799,10.573zM209.123,572.415c3.496,-6.033 0.958,-11.925 0.141,-18.437c-1.777,-13.758 -9.162,-24.527 -15.929,-36.255c-4.566,-7.95 -10.486,-15.365 -16.942,-22.244c0.873,4.483 1.662,8.966 2.283,13.534c1.156,8.74 3.13,17.113 5.3,25.683c2.311,9.106 7.217,17.761 11.107,26.247c2.82,6.089 4.85,12.009 8.149,17.733c2.226,-1.523 4.256,-3.384 5.891,-6.26zM178.592,584.65c3.187,0 6.54,0.27 9.782,-0.027c-0.393,-0.675 -0.789,-1.406 -1.268,-2.282c-2.481,-4.51 -5.13,-7.104 -6.539,-12.151c-1.635,-5.891 -2.734,-12.037 -4.286,-17.845c-1.014,-3.778 -3.156,-6.486 -6.597,-3.299c-2.959,2.735 -2.707,5.498 -2.707,9.275c0,3.666 0.026,7.329 0,10.996c-0.028,3.242 0.508,5.694 1.043,8.852c0.31,1.888 0.903,4.144 1.24,6.371c3.101,0.038 6.231,0.085 9.332,0.112zM143.295,472.502c1.776,-1.016 2.763,-2.34 3.411,-3.862c-1.241,-1.154 -2.481,-2.312 -3.89,-3.214c-7.386,-4.821 -15.45,-8.091 -22.751,-13.109c0.563,1.437 1.156,2.847 1.662,4.313c1.496,4.371 5.498,8.261 7.443,12.574c0.931,2.114 1.862,5.777 4.229,6.624c3.018,1.101 7.528,-1.944 9.896,-3.325zM141.801,587.33c0.026,-1.521 0.078,-3.017 0.052,-4.483c-0.057,-2.225 -0.817,-3.413 -1.268,-5.554c-1.297,-6.258 0.986,-13.193 -0.197,-19.509c-1.72,-8.967 -0.783,-18.184 -0.902,-27.291c-0.084,-4.791 -1.522,-9.076 -2.17,-13.813c-0.537,-3.862 -0.706,-6.796 -3.863,-9.642c-1.803,-1.607 -3.466,-1.889 -5.947,-1.184c-3.101,0.873 -4.764,2.454 -5.666,5.018c-0.396,7.584 -0.96,15.167 -1.664,22.751c0.067,2.988 0.119,5.975 0.119,8.937c0,7.641 0.026,15.308 0,22.949c0,3.355 0.104,6.683 0.052,10.008c2.2,5.075 3.976,10.402 4.793,15.702c5.356,-2.056 10.939,-3.356 16.661,-3.89zM914.917,317.447c0,8.176 1.439,17.62 -0.847,25.486c-1.861,6.371 -5.328,13.42 -10.12,18.184c-6.88,6.794 -13.59,13.954 -20.835,20.382c-3.41,3.073 -6.117,5.581 -10.092,8.063c-3.609,2.256 -7.216,4.313 -10.657,6.766c-3.383,2.368 -6.484,4.339 -9.472,7.301c-1.637,1.609 -3.103,3.493 -4.962,4.878c-4.031,2.96 -9.078,4.68 -13.307,7.441c-4.117,2.707 -8.007,2.933 -12.376,4.822c-2.877,1.242 -5.441,3.101 -8.12,4.708c-1.213,1.55 -2.482,3.1 -3.384,4.737c-2.593,4.679 -4.593,9.641 -7.132,14.321c-5.244,9.782 -9.303,20.073 -14.35,29.94c-2.933,5.723 -5.188,12.122 -7.218,18.24c-2.199,6.597 -4.512,13.391 -6.456,20.073c-1.607,5.526 -3.89,10.742 -5.527,16.267c-1.578,5.302 -2.933,10.602 -4.792,15.817c-0.984,2.705 -0.735,4.595 -1.355,7.301c-0.705,3.242 -2.312,6.287 -3.102,9.501c-1.126,4.51 -2.934,8.853 -4.173,13.363c-1.069,3.975 -2.705,7.866 -3.184,11.953c-0.535,4.342 -0.112,8.994 -0.112,13.363c0,8.852 0.047,17.706 -0.027,26.557c0,1.581 0.038,3.213 0.186,4.85c2.904,0.902 5.892,1.552 8.824,2.312c1.664,2.426 3.948,4.651 7.076,6.485c4.708,2.763 6.907,5.159 12.686,11.08c2.904,2.987 5.78,6.06 8.515,9.247c1.24,7.752 0.535,16.351 -0.397,24.385c-2.057,2.2 -3.919,4.68 -5.441,7.782c-8.543,17.366 2.481,36.424 11.953,50.802c14.35,21.791 48.547,63.376 3.299,69.888c-16.464,2.339 -34.423,0.479 -49.252,9.669c-18.447,11.418 -16.774,24.612 -18.521,43.022c-1.129,12.121 13.559,11.642 -10.798,17.677c-4.623,1.154 -11.841,0.928 -16.605,0.449c-14.181,-1.381 -25.938,-7.358 -37.693,-14.913c-20.863,-13.391 -38.99,-27.571 -63.545,-33.408c-12.237,-2.904 -21.906,3.891 -26.389,14.998c-8.374,20.947 -0.762,41.64 8.88,60.726c3.89,7.697 18.41,24.951 17.62,33.944c-1.241,13.749 -20.073,14.858 -33.239,13.786c-6.427,-0.534 -12.601,-1.944 -18.719,-3.778c-4.003,-3.496 -7.95,-6.991 -11.812,-10.487c-6.456,-5.78 -11.954,-12.94 -18.832,-18.241c-3.58,-2.763 -7.528,-4.988 -11.221,-7.612c-11.53,-8.147 -19.565,-19.848 -31.265,-27.882c-7.105,-4.906 -14.744,-9.303 -22.018,-13.955c-5.666,-3.58 -11.079,-7.696 -17.761,-9.388c-10.065,-2.535 -20.749,-2.902 -31.04,-2.312c-8.515,0.482 -18.494,0.145 -26.839,2.286c-4.792,1.268 -9.444,3.187 -14.152,4.623c-13.025,4.003 -26.53,7.724 -39.949,10.121c-12.488,2.253 -25.288,0.589 -37.664,2.846c-11.278,2.057 -21.764,7.893 -33.323,8.513c-5.3,0.283 -10.432,0.283 -15.675,1.325c-3.862,0.764 -7.612,1.473 -11.559,1.213c-12.489,-0.789 -27.516,-1.718 -38.99,-6.568c-4.85,-2.03 -8.881,-3.975 -13.984,-5.441c-3.948,-1.155 -6.767,-1.523 -9.895,-4.822c-4.511,-4.821 -8.12,-10.995 -7.218,-17.788c0.846,-6.541 5.018,-16.352 10.798,-20.299c3.862,-2.652 9.416,-3.721 13.701,-6.118c6.457,-3.664 13.082,-9.021 18.636,-13.898c6.428,-5.666 10.347,-14.18 5.893,-22.158c-3.046,-5.469 -7.866,-10.065 -13.759,-11.812c-7.753,-2.314 -16.914,-2.96 -24.865,-4.229c-9.67,-1.524 -19.312,-3.016 -28.953,-4.708c-10.122,-1.775 -16.69,-4.567 -23.089,-13.166c-3.13,-4.2 -6.879,-8.345 -9.613,-12.799c-2.001,-3.242 -1.099,-5.751 0.423,-8.853c2.509,-5.102 7.978,-9.078 11.868,-13.109c2.398,-2.481 4.738,-4.764 7.67,-6.568c3.213,-2.03 6.513,-3.553 8.852,-6.626c3.128,-4.06 6.118,-12.32 6.878,-17.451c0.677,-4.257 0.17,-8.061 -2.537,-11.502c-2.114,-2.68 -6.935,-3.693 -9.98,-4.962c-4.454,-1.889 -7.865,-5.414 -12.461,-7.218c-3.89,-1.522 -8.119,-1.155 -12.122,-2.197c-3.072,-0.792 -5.864,-2.09 -8.992,-2.539c-5.498,-0.847 -10.94,-0.313 -16.521,-1.385c-6.117,-1.154 -12.545,-0.227 -18.522,-1.804c-6.146,-1.635 -9.557,-7.583 -16.042,-8.682c-3.129,-0.563 -5.525,-0.341 -8.232,-2.2c-2.228,-1.551 -3.694,-4.142 -6.231,-5.385c-1.831,-0.928 -4.031,-1.043 -5.497,-2.735c-1.214,-1.408 -2.172,-4.34 -3.186,-5.947c-1.071,-1.688 -1.472,-0.987 -1.55,-3.325c-0.028,-0.479 0.676,-4.342 1.24,-5.329c0.591,-1.043 1.747,-1.889 2.424,-2.902c1.691,-2.538 2.143,-5.242 3.326,-7.951c3.721,-8.377 13.251,-6.737 20.581,-8.711c4.426,-1.213 7.949,-2.435 12.601,-2.509c3.213,-0.074 6.202,0.148 9.444,-0.186c3.439,-0.364 6.907,-1.043 10.346,-1.774c-3.045,-13.899 5.358,-34.253 7.02,-44.994c1.72,-11.221 2.961,-22.497 3.975,-33.774c-0.817,-7.528 -1.579,-15.084 -2.537,-22.61c-1.607,-12.293 -4.764,-24.275 -5.131,-36.679c-0.225,-7.865 -2.96,-16.492 -5.92,-23.737c-2.762,-6.737 -5.864,-12.995 -7.922,-19.988c-1.946,-6.512 -4.651,-12.855 -7.414,-19.086c-0.111,-0.074 -0.189,-0.186 -0.282,-0.26c-7.724,-6.878 -15.138,-13.025 -21.82,-20.918c-5.666,-6.739 -13.362,-11.84 -18.212,-19.227c-2.143,-3.27 -3.948,-6.683 -6.231,-9.867c-1.663,-2.368 -3.694,-4.482 -5.216,-6.964c-3.213,-5.243 -3.721,-11.219 -6.089,-16.858c-2.538,-6.004 -6.654,-10.628 -3.581,-17.395c1.495,-3.299 3.75,-2.761 7.049,-2.227c6.541,1.043 12.771,3.805 19.283,5.103c5.159,1.014 10.121,1.493 14.969,3.693c5.864,2.622 10.854,6.512 16.887,8.965c7.161,2.93 13.702,5.666 20.412,9.669c4.934,2.96 11.108,6.174 17.197,4.764c4.258,-1.014 4.735,-3.778 4.906,-7.809c0.197,-4.962 -0.649,-8.401 -3.665,-12.488c-3.694,-5.018 -8.346,-10.488 -12.603,-15.027c-6.512,-6.935 -12.657,-13.757 -18.804,-21.031c-5.384,-6.456 -12.319,-11.531 -17.62,-18.043c-4.059,-5.019 -7.133,-9.895 -12.066,-14.18c-3.383,-2.96 -8.233,-5.751 -10.657,-9.671c-2.171,-3.524 -2.227,-12.066 2.453,-14.152c3.383,-1.495 7.978,0.901 10.853,2.423c5.667,3.018 11.362,6.203 16.55,10.036c3.975,2.904 6.569,6.483 9.952,10.009c4.51,4.681 9.98,9.022 15.083,13.053c5.498,4.34 11.53,5.806 18.211,7.387c5.103,1.241 7.528,3.947 12.038,6.033c9.388,4.342 17.396,11.221 26.614,15.929c5.356,2.763 11.475,3.921 17.197,5.583c4.201,1.214 8.035,3.018 12.123,4.454c7.893,2.736 16.238,7.416 24.978,4.877c5.468,-1.579 8.317,-4.313 10.995,-9.275c2.396,-4.483 3.701,-7.809 3.608,-12.94c-0.055,-3.637 0.369,-7.385 -0.252,-10.996c-0.816,-4.567 -1.522,-9.19 -2.368,-13.757c-1.211,-6.454 -4.115,-12.433 -5.75,-18.803c-2.735,-10.544 -6.935,-20.129 -11.052,-30.194c-3.777,-9.275 -7.724,-17.986 -12.911,-26.528c-4.596,-7.584 -9.163,-15.083 -14.265,-22.328c-5.441,-7.724 -12.603,-14.463 -17.592,-22.441c-5.189,-8.289 -9.728,-17.281 -12.603,-26.642c-0.534,-1.775 -2.368,-7.076 -0.846,-8.88c1.803,-2.141 11.896,0.453 14.123,0.932c6.287,1.41 10.601,7.753 15.14,11.699c5.723,4.935 11.22,9.615 16.577,14.971c4.003,3.974 8.259,12.348 14.152,13.87c2.989,0.79 8.034,-0.085 10.346,-2.312c1.946,-1.861 1.748,-4.624 0.592,-6.739c-1.493,-2.677 -6.061,-6.654 -8.288,-8.851c-2.679,-2.677 -6.146,-3.75 -9.078,-6.118c-5.327,-4.315 -7.274,-9.163 -9.444,-15.394c-1.269,-3.664 -8.232,-17.704 0.537,-18.127c2.509,-0.141 5.526,1.803 7.865,2.453c2.284,0.62 4.37,0.847 6.457,2.001c2.114,1.156 3.552,2.934 5.497,4.37c4.341,3.158 8.458,5.216 11.982,9.501c2.481,3.045 5.074,6.034 7.639,9.022c1.1,0.479 2.2,0.972 3.412,1.269c1.721,0.409 3.327,0.149 5.047,0.186c3.863,0.111 7.47,1.266 11.389,1.239c8.796,-0.112 17.591,0 26.388,0c9.444,0 19.311,0.761 28.642,-0.62c6.005,-0.877 11.109,-0.085 16.746,-2.624c4.766,-2.171 9.728,-3.948 14.661,-5.752c5.187,-1.86 10.233,-3.833 15.279,-6.033c4.821,-2.085 10.263,-3.329 15.281,-5.047c7.753,-2.649 14.856,-7.103 21.82,-11.557v-28.221c0,-3.354 -0.627,-7.442 -0.037,-10.741c0.394,-2.172 1.259,-3.724 1.296,-6.006c0.037,-2.368 -0.2,-4.566 0.223,-6.878c0.59,-3.186 1.937,-6.373 2.197,-9.642c0.149,-2.198 -0.208,-4.229 0.186,-6.456c0.68,-4.004 1.243,-8.232 1.637,-12.432c11.925,-18.298 44.627,-18.889 66.279,-9.473v0.186c-0.055,4.455 0.141,7.612 2.594,11.502c2.593,4.059 4.908,5.976 6.485,10.375c2.762,7.81 8.653,14.153 11.277,22.131c1.522,4.566 3.919,9.134 6.231,13.363c2.763,5.102 7.527,7.527 11.53,11.53c6.935,6.908 11.56,15.337 15.167,24.274c2.03,4.989 2.876,9.812 4.201,14.998c1.099,4.229 0.846,8.655 2.312,12.771c1.667,4.709 2.145,9.444 3.611,14.181c1.24,4.117 3.385,7.867 4.821,11.87c1.861,5.073 3.664,10.148 6.006,15.025c1.467,3.101 2.595,7.019 4.792,9.698c2.903,3.545 7.612,5.523 11.954,3.805c2.988,-1.183 5.411,-3.719 7.245,-6.343c1.425,-2.002 1.102,-3.694 1.128,-6.062c0.085,-5.581 2.545,-10.713 2.397,-16.379c-0.198,-7.893 2.196,-15.871 3.833,-23.568c0.901,-4.314 2.651,-7.922 4.792,-11.728c1.721,-3.045 3.609,-7.402 7.866,-7.105c3.524,0.254 6.457,4.625 8.401,7.301c2.368,3.271 3.102,7.753 3.581,11.672c0.594,4.793 0.52,10.008 0.334,14.829c-0.141,3.918 -2.378,7.049 -2.564,10.911c-0.423,9.106 1.462,17.818 1.239,26.812c-0.112,5.301 2.651,7.075 7.416,8.57c3.833,1.184 7.19,1.38 10.459,3.833c3.072,2.311 6.765,4.876 8.599,8.317c4.283,8.008 2.216,19.002 2.253,27.741c0.056,8.599 2.48,15.956 7.809,22.666c1.522,1.919 3.778,5.78 5.949,6.993c2.339,1.351 7.779,-0.225 10.036,-1.042c2.425,-0.902 5.696,-0.68 7.837,-1.834c1.917,-1.042 3.072,-3.072 4.285,-4.764c2.256,-3.072 5.159,-4.708 7.753,-7.357c4.314,-4.426 6.484,-10.628 10.713,-15.252c4.51,-4.905 6.203,-12.01 10.713,-16.802c1.467,-1.55 3.749,-4.595 5.779,-5.3c2.481,-0.875 4.823,0.728 7.246,1.099c4.003,0.564 5.187,-0.367 6.371,4.201c0.76,3.016 0.735,5.863 0,8.851c-1.579,6.316 -6.004,12.011 -10.543,16.55c-2.113,2.114 -4.002,3.327 -5.694,5.891c-2.03,3.018 -3.328,6.455 -5.414,9.417c-2.057,2.986 -4.143,4.961 -5.468,8.542c-1.221,3.383 -1.37,6.848 -1.184,10.459c0.366,6.963 3.862,13.842 6.597,20.129c2.058,4.709 4.455,5.666 8.965,7.047c3.524,1.101 6.089,4.088 9.782,4.708c1.72,0.281 4.003,-0.097 5.695,-0.394c3.664,-0.591 7.526,-0.731 10.967,-2.086c6.569,-2.594 13.729,-4.229 19.537,-8.429c4.792,-3.495 9.417,-7.301 14.209,-10.742c4.2,-3.043 8.063,-6.427 12.376,-9.359c2.848,-1.916 5.92,-3.692 8.317,-6.145c2.677,-2.707 4.736,-5.611 7.724,-8.034c3.524,-2.903 5.132,-6.963 8.372,-10.065c2.341,-2.256 4.54,-3.411 6.287,-6.343c1.495,-2.481 2.679,-4.737 4.483,-7.105c3.299,-4.229 6.624,-8.232 9.586,-12.742c7.921,-12.151 18.1,-22.892 26.753,-34.507c1.721,-2.312 3.298,-4.737 4.935,-7.105c0.111,0.037 0.223,0.048 0.297,0.074c3.694,0.902 7.161,1.495 10.572,1.974c2.172,2.284 4.259,4.736 6.345,7.189c-0.902,1.663 -1.804,3.326 -2.791,5.018c-2.65,4.455 -3.89,9.924 -7.189,13.984c-5.695,7.02 -8.881,15.534 -13.956,23.089c-3.017,4.511 -5.807,9.078 -8.739,13.617c-2.566,4.004 -6.034,7.048 -9.051,10.741c-4.765,5.808 -9.783,11.532 -13.73,17.931c-3.581,5.779 -3.889,13.588 -2.876,20.354c0.704,4.595 1.944,11.7 4.764,15.506c2.001,2.678 5.639,5.414 8.288,7.555c2.566,2.087 5.245,4.735 8.147,6.372c2.622,1.499 3.921,0.453 6.682,1.128c2.396,0.593 4.372,2.734 6.795,3.581c6.343,2.245 12.461,0.895 18.804,-0.037c2.425,-0.341 5.075,-0.679 7.443,-1.128c3.1,-0.564 4.963,-2.82 7.724,-4.145c3.242,-1.548 6.935,-2.171 10.29,-3.325c3.354,-1.183 5.074,-4.369 8.288,-5.835c1.493,-0.709 3.382,-0.847 4.877,-1.637c1.548,-0.82 2.395,-2.174 3.805,-3.102c3.073,-2.029 6.428,-3.609 9.53,-5.61c2.395,-1.553 6.173,-4.596 9.105,-5.075c1.776,-0.281 3.383,0.476 5.075,0.847c2.734,0.563 5.44,0.534 8.034,1.747c6.485,2.93 5.075,8.907 5.075,15.025z" /> <path d="M478.298,525.634c4.708,6.456 11.277,8.768 16.746,14.857c4.003,4.427 11.108,15.872 8.176,22.385c-2.001,4.399 -8.88,-0.055 -12.686,-1.944c-4.061,-2.002 -8.093,-3.695 -12.349,-5.639c-4.089,-1.878 -4.342,-2.872 -9.247,-1.915c-2.821,0.565 -7.586,2.706 -10.403,4.398c-4.481,2.705 -4.767,5.525 -7.443,9.867c-1.636,2.679 -3.668,4.681 -5.527,7.387c-4.51,6.455 -8.853,12.237 -16.098,15.477c-5.822,2.622 -5.562,1.437 -5.525,-5.527c0.03,-4.652 1.017,-8.316 2.453,-12.376c2.75,-7.81 2.341,-15.844 2.453,-24.697c0.169,-11.361 -8.063,-17.815 -19.904,-14.998c-3.891,0.932 -4.991,2.668 -9.755,2.594c-4.934,-0.048 -9.895,-0.011 -14.829,0.026c-8.317,0.056 -18.719,-2.876 -19.848,-12.32c-0.906,-7.584 0.078,-15.45 0.052,-23.203c-3.157,0.987 -3.553,1.062 -3.89,1.099c2.508,-2.2 1.015,-4.848 1.352,-7.668c0.423,-3.103 1.014,-3.018 1.945,-5.441c2.537,-6.397 4.23,-7.443 10.432,-9.952c9.331,-3.751 22.553,-2.423 31.659,1.099c3.861,1.522 8.768,6.032 9.867,9.952c1.302,4.679 -0.51,9.696 1.042,14.348c2.142,6.343 5.977,7.304 11.897,7.33c3.327,0.029 7.386,1.188 9.501,-2.253c1.314,-2.114 -0.237,-3.357 0.297,-5.272c0.872,-2.961 1.974,-3.978 2.564,-7.218c0.538,-2.876 -1.042,-5.299 2.342,-7.162c6.991,-3.807 6.85,6.399 7.555,9.698c0.226,1.156 1.496,8.628 2.932,9.388c4.256,2.197 7.076,-4.568 8.88,-7.641c1.438,-2.508 2.931,-12.406 7.527,-8.965c2.093,1.551 0.037,9.53 0.371,12.094c0.619,4.568 1.919,7.499 2.453,12.377c0.48,4.313 2.536,6.427 5.018,9.811z" /> <path d="M709.346,172.636c-5.468,21.905 -39.271,12.574 -33.802,-9.332c4.877,-19.508 9.105,-56.41 37.045,-54.269c10.628,0.79 20.833,10.657 16.915,22.187c-4.229,12.349 -9.7,24.133 -16.803,35.071c-0.787,1.21 -1.662,2.282 -2.564,3.184c-0.256,1.043 -0.53,2.116 -0.79,3.158z" /> <path d="M580.794,94.596c-9.896,0.452 -16.915,-8.401 -17.535,-17.535c-0.423,-6.68 -0.82,-13.503 -0.397,-20.185c0.733,-11.531 7.64,-21.399 19.989,-21.933c11.754,-0.535 19.707,10.318 20.382,21.031c0.478,7.301 -0.873,15.025 -2.988,22.018c-0.705,2.424 -1.889,4.539 -3.384,6.343c-2.875,5.95 -9.501,9.965 -16.069,10.262z" /> <path d="M872.629,104.215c1.691,-2.059 3.101,-4.316 4.2,-6.739c-0.282,0.185 -0.586,0.297 -0.957,0.371c-0.479,0.564 -0.902,1.158 -1.466,1.692c-0.038,0.01 -0.075,0.01 -0.112,0.037c-0.508,1.551 -1.069,3.102 -1.662,4.624zM865.918,94.291c-0.813,3.664 -1.184,7.358 -1.184,11.08c1.493,-3.412 2.736,-6.906 3.805,-10.432c-0.983,0.11 -1.885,-0.086 -2.62,-0.65zM860.305,117.381c-0.902,-0.308 -1.648,-1.013 -1.834,-2.338c-1.803,-12.461 -0.225,-24.724 5.554,-36.002c2.819,-5.526 10.545,-18.973 17.959,-11.051c6.231,6.654 5.415,20.017 2.962,28.022c-3.101,10.121 -10.12,18.439 -19.706,22.92c-1.971,0.927 -4.086,0.025 -4.933,-1.552z" /> <path d="M81.622,182.098c-14.463,-8.485 -39.554,-21.341 -27.347,-39.637c6.963,-10.433 15.223,-12.068 23.963,-8.176c6.089,-2.446 13.221,-2.531 19.508,0.148c15.506,6.568 25.205,26.951 33.013,40.793c6.906,12.264 12.856,25.007 18.099,38.031c2.087,3.976 3.863,8.12 4.877,12.772c1.015,4.707 0,8.6 -2.086,11.502c0.338,1.125 0,2.142 -0.704,2.902l0.078,0.186c2.058,4.03 -4.004,7.554 -6.062,3.551c-0.252,-0.509 -0.537,-0.987 -0.789,-1.466c-6.512,1.861 -14.406,-0.677 -17.507,-9.19c-0.958,-2.707 -2.029,-5.384 -3.101,-8.063c-1.523,-0.307 -3.074,-0.872 -4.596,-1.944c-1.748,-1.21 -3.467,-2.45 -5.216,-3.663c-5.525,-3.92 -7.272,-9.587 -6.287,-14.661c-1.663,-2.001 -3.355,-3.974 -5.102,-5.893l-20.75,-17.168z" /> <path d="M856.763,714.164c-0.011,0.075 -0.011,0.149 -0.037,0.223c-0.111,0.819 0.486,0.23 0.037,-0.223zM868.145,688.536c11.755,6.118 21.876,20.75 14.152,33.859c-8.092,13.674 -26.727,9.67 -38.539,3.862c-12.941,-6.399 -22.808,-17.535 -31.744,-28.53c-4.737,-5.864 -5.864,-14.096 0,-19.848c3.721,-3.637 10.178,-5.129 15.252,-3.214c2.254,0.03 4.679,0.706 7.132,2.368c9.923,6.822 23.089,5.948 33.746,11.502z" /></svg>