<svg xmlns="http://www.w3.org/2000/svg" viewBox="0 0 1024 1024" width="1024" height="1024"><path d="M1024,512c0,136.76 -53.258,265.334 -149.96,362.04c-96.706,96.702 -225.28,149.96 -362.04,149.96c-136.76,0 -265.334,-53.258 -362.04,-149.96c-96.702,-96.706 -149.96,-225.28 -149.96,-362.04c0,-136.76 53.258,-265.334 149.96,-362.04c96.706,-96.702 225.28,-149.96 362.04,-149.96c136.76,0 265.334,53.258 362.04,149.96c96.702,96.706 149.96,225.28 149.96,362.04zM512,128c-82.814,0 -159.586,26.354 -222.378,71.112l535.266,535.268c44.758,-62.792 71.112,-139.566 71.112,-222.38c0,-211.738 -172.262,-384 -384,-384zM512,896c82.814,0 159.588,-26.354 222.382,-71.11l-535.27,-535.268c-44.758,62.792 -71.112,139.564 -71.112,222.378c0,211.738 172.262,384 384,384z" /></svg>