<svg xmlns="http://www.w3.org/2000/svg" width="512" height="512" viewBox="0 0 5120 5120">

            <path  d="M2415 5108 c-237 -11 -509 -65 -725 -144 -52 -19 -167 -71 -256 -114 -510 -249 -915 -654 -1164 -1164 -144 -295 -214 -533 -250 -856 -14 -123 -14 -417 0 -545 101 -929 711 -1736 1578 -2090 217 -88 461 -150 687 -175 128 -14 422 -14 545 0 323 36 561 106 856 250 510 249 915 654 1164 1164 144 295 214 533 250 856 14 123 14 417 0 545 -101 929 -711 1736 -1578 2090 -355 144 -705 203 -1107 183z m376 -218 c1113 -110 1995 -998 2100 -2114 14 -153 7 -428 -15 -566 -69 -428 -246 -819 -518 -1145 -35 -41 -67 -75 -73 -75 -13 0 -3295 3282 -3295 3295 0 14 128 120 237 197 293 206 679 356 1018 397 50 6 101 13 115 15 56 8 335 5 431 -4z m-304 -2402 c904 -904 1643 -1648 1643 -1653 0 -29 -267 -226 -430 -317 -333 -187 -671 -281 -1056 -295 -660 -23 -1275 219 -1739 682 -463 464 -705 1079 -682 1739 13 384 108 724 294 1056 92 163 289 430 318 430 5 0 749 -739 1652 -1642z"></path>
    
</svg>