<svg xmlns="http://www.w3.org/2000/svg" viewBox="0 0 1024 1024" width="1024" height="1024"><path d="M1024,96v832c0,52.8 -43.2,96 -96,96h-832c-52.8,0 -96,-43.2 -96,-96v-832c0,-52.8 43.2,-96 96,-96h832c52.8,0 96,43.2 96,96zM895.8,648v-175.6c0,-27.4 -22,-56.4 -49.6,-56.4h-43c-26.2,0 -49.4,-22.4 -51.2,-48c0,-137 -110.4,-240 -248.4,-240h-125.8c-138,0 -249.8,111 -249.8,248v272c0,137 111.8,248 249.8,248h268.8c138,0 249.4,-111 249.4,-248z" /> <path d="M704,640c0,35.2 -28.8,64 -64,64h-256c-35.2,0 -64,-28.8 -64,-64v0c0,-35.2 28.8,-64 64,-64h256c35.2,0 64,28.8 64,64z" /> <path d="M576,384c0,35.2 -28.8,64 -64,64h-128c-35.2,0 -64,-28.8 -64,-64v0c0,-35.2 28.8,-64 64,-64h128c35.2,0 64,28.8 64,64z" /></svg>