<svg xmlns="http://www.w3.org/2000/svg" width="402.784" height="546.416" viewBox="0 0 4027.837 5464.163"><path d="M2185.837 5450.728c-72-22-108-66-158-189-24-60-58-130-77-158-18-27-33-50-33-51 0 0 67 0 150 2 121 3 150 1 150-10 0-14-120-45-440-113-321-68-468-143-656-332-138-140-177-215-364-708-48-126-102-266-120-310-52-133-169-348-310-575-278-446-340-622-326-935 10-240 39-454 77-573 20-60 22-62 54-62 41 0 63 31 96 140 36 117 33 247-9 367-36 102-45 213-17 213 8 0 21-14 30-30s19-30 23-30c5 0 15 21 24 47 99 289 166 419 277 536 42 43 81 61 81 37 0-6-34-79-77-163-107-213-222-521-223-600 0-17 2-78 6-133l7-101 73 96c41 53 97 125 125 161 69 88 153 230 199 338 42 97 73 197 150 491 83 316 117 397 288 681 305 508 545 789 957 1119 219 175 396 306 593 436 56 37 102 71 102 75 0 14-160 164-235 220-125 94-194 124-290 127-50 2-98-3-127-13"/><path d="M3137.837 5237.728c-112-114-228-207-430-341-166-111-276-193-510-379-403-322-633-596-949-1128-153-257-188-346-281-706-112-435-162-536-461-934-162-215-229-321-267-420-33-88-38-257-9-311 10-18 24-32 30-29 14 4 117 127 266 316 57 72 169 200 248 284 80 83 171 190 204 237 32 47 97 135 145 195 47 61 114 147 147 192 60 81 87 101 87 65 0-35-120-259-218-407-73-111-134-187-233-293-186-198-247-268-357-410-121-158-194-236-248-268-33-19-55-47-100-120-89-148-114-246-79-313 20-39 40-44 88-22 88 40 203 156 415 420 193 241 276 334 379 426 175 157 405 398 568 594 149 179 185 213 185 176 0-31-176-287-324-470-76-94-224-248-417-431-47-45-150-162-229-260-209-261-278-340-371-429-95-90-164-132-235-142-27-3-55-13-62-22-26-33-52-92-63-142-20-94 32-179 101-164 45 10 187 108 320 221 63 54 255 235 425 403 171 168 376 368 457 444 169 158 271 281 401 481 291 447 347 521 347 458 0-32-104-254-162-344-133-212-312-445-464-608-49-52-252-256-451-453s-362-361-362-365c0-16 57 0 133 36 164 79 480 308 826 598 206 173 237 204 411 414 53 63 137 162 188 220s129 158 174 223c45 64 87 117 94 117 36 0-3-76-150-290-177-258-205-341-155-452 40-88 102-138 168-138 39 0 50 18 100 165 119 343 176 452 385 730 136 181 188 259 243 365 38 74 88 167 112 205 60 98 114 216 139 306 28 100 66 328 96 575 14 111 36 240 49 286 34 117 100 263 147 325 72 97 195 185 330 240l69 28v49c0 118-81 429-147 559-41 83-83 129-233 261-182 160-357 288-391 285-8-1-61-50-119-108"/><path d="M78.837 1304.728c-17-54-49-189-61-257-9-49-9-80 0-125 12-66 24-87 56-104 20-10 25-6 59 45 36 54 37 57 21 83-43 74-57 211-32 328 13 62 12 62-10 62-17 0-25-9-33-32"/></svg>