<svg xmlns="http://www.w3.org/2000/svg" width="368.155" height="551.9" viewBox="0 0 3681.553 5519"><path d="M1839.553 5472c-18-42-19-53-10-112 6-36 14-150 16-253 3-103 11-255 17-337 11-134 11-156-4-202-15-44-17-105-17-453 0-411-7-507-45-631-8-27-15-86-15-130 0-63-5-91-24-131-27-58-34-62-171-89-44-9-114-29-155-44-41-16-99-34-128-41-72-17-136-74-263-234-104-133-130-180-190-356-16-47-34-125-39-174-6-49-13-92-15-97-8-12 16-111 38-154 11-22 63-105 116-185 189-283 319-496 347-568 23-59 47-93 120-175 49-56 113-136 141-177s70-93 93-115c47-46 103-133 125-196 22-61 53-92 84-84 49 12 84 50 203 217 112 158 127 175 207 232 126 90 204 169 315 318 130 176 382 637 427 784l20 64-25 58c-58 132-118 291-132 347-9 33-34 95-56 138-33 63-58 94-127 156-281 256-311 275-506 316-170 37-170 37-169 110 1 65 1 91 1 295 0 74 2 171 4 215s-3 141-11 215c-18 175-18 260 0 455 9 91 13 210 10 275-6 155-5 319 5 410 6 60 4 83-9 114-9 21-16 51-16 66 0 75-79 200-126 200-8 0-24-21-36-47m-99-2452c17-12 41-37 54-54l22-32-5-352-5-351-25-27c-13-14-101-65-195-112-196-99-245-128-245-146 0-20 50-45 121-61 35-8 136-40 224-71s176-59 195-62c57-7 370 102 469 164 51 33 53 35 36 53-10 11-39 28-64 38-70 27-143 70-260 152l-106 75-7 300-6 300 34 70c20 39 51 85 69 103 29 27 42 32 83 32 57 0 97-12 167-48 105-54 283-189 376-285 45-46 116-202 129-282 5-30 25-87 44-127 50-106 61-149 47-189-6-17-11-41-11-52 0-30-71-173-135-272-32-49-87-144-123-210-35-66-85-151-110-190-25-38-60-95-78-125-43-73-77-106-140-136-29-13-70-43-92-67-101-107-174-197-203-250-42-78-85-127-114-127-17 0-35 17-68 63-25 35-53 69-62 77-9 7-48 59-86 114-38 56-110 156-158 223-65 89-98 146-124 213-27 67-49 106-82 141-26 27-57 74-71 105-13 30-48 87-78 127-29 40-79 119-111 177-45 82-59 119-66 170-12 96-11 160 6 205 8 22 14 58 15 79 1 100 129 382 209 460 75 74 165 123 279 154 39 10 85 29 104 41 41 27 102 24 147-8m85-967c3-9 6-47 6-86v-71l-66 6c-70 7-174 50-174 72 0 11 187 93 216 94 7 1 15-6 18-15m205-39c88-28 138-62 128-87-7-19-87-38-162-38h-54l-10 38c-23 88-24 94-10 103 19 12 18 12 108-16m-1978 289c-35-25-61-90-50-128 15-53 51-76 120-76 50 0 64 4 84 25 33 32 31 58-6 117-47 72-100 95-148 62m3427-164c-25-26-29-36-24-63 8-40 70-104 108-112 58-13 118 36 118 95 0 29-26 76-52 94-13 9-43 16-71 16-41 0-53-5-79-30m-1668-1936c-67-57-79-127-30-176 27-27 36-30 72-25 54 7 90 35 105 81 16 45 0 91-42 124-37 29-67 28-105-4"/></svg>