<svg xmlns="http://www.w3.org/2000/svg" width="149" height="183.429" viewBox="0 0 1490 1834.286"><path d="M159 1829.031c-60-12-105-47-133-103-26-51-26-54-26-293v-240l373-186 372-186 372 181 372 181 1 236c0 291-9 326-103 380-39 22-52 24-197 24h-155l-5-180c-5-163-7-185-28-227-47-95-141-148-261-148-79 0-139 24-194 78-75 72-81 94-87 302l-5 185-130 1c-72 1-146-1-166-5m311-1222v-190l134-210c74-115 138-209 143-207 4 1 68 96 141 210l132 207v190c0 105-2 191-5 191s-65-30-138-66l-132-66-133 66c-72 36-134 66-137 66s-5-86-5-191"/></svg>