<svg xmlns="http://www.w3.org/2000/svg" width="553.9" height="555.344" viewBox="0 0 5538.998 5553.44"><path d="M2398.998 5534c-245-33-442-84-665-173-122-49-127-52-95-58 19-4 132-9 250-13 1227-36 1545-47 1529-56-8-4-255-12-549-19-505-11-814-21-808-26 2-1 348-13 771-26 422-13 767-27 767-31s-35-8-77-8c-43 0-231-5-418-10s-513-14-723-20c-211-5-389-13-395-18-7-6-198-15-426-21-393-11-415-13-443-32-16-12-27-23-25-26 3-2 342-15 753-28 412-14 758-26 769-28 34-5-287-17-894-32-321-8-586-17-589-20s30-5 74-5c69 0 495-13 1172-36 111-4 202-10 202-14 0-7-120-11-710-27-215-6-256-9-190-14 47-4 129-7 183-8 53-1 97-5 97-9 0-5-262-15-582-22l-583-13-65-65-65-66 55-8c30-4 307-14 615-23s823-25 1145-35c322-11 596-20 609-20s22-2 20-5c-4-4-430-17-1164-36-104-3 115-16 405-24 249-7 445-3 1245 25 572 21 1182 40 1248 40 51 0 67 3 67 14 0 8-66 82-147 165l-148 151-505 20c-278 11-580 23-672 26-93 4-168 11-168 16 0 4 10 8 23 8 67-1 1062 32 1117 36l65 6-30 25c-57 47-280 190-379 242-318 168-685 278-1031 311-171 16-479 11-635-10m-160-1130c-355-10-883-24-1174-31-290-7-520-16-510-19 11-4 154-11 319-15s347-10 405-14l105-6-170-8c-93-3-296-9-450-12s-294-8-312-11c-27-4-39-16-77-77-28-45-41-73-33-75 6-1 345-14 752-28 880-30 1054-39 1120-58 42-12 45-14 20-15-53-2-1868-51-1930-52-58-1-59-2-20-10 22-4 440-20 930-34 1570-47 2275-71 2282-78 3-4-9-7-28-7s-457-11-974-25c-517-13-1254-32-1637-42-586-14-698-19-703-31-3-8-4-16-2-18 1-2 362-14 802-28 942-30 1127-37 1121-43-3-3-145-9-318-13-736-20-819-23-815-26 1-2 228-10 502-19 571-17 997-31 1265-42 246-9 161-18-285-28-442-10-692-21-570-24 50-2 117-7 150-11l60-7-79-2c-44 0-77-4-73-7 4-5 716-32 871-34 16 0 26-3 23-7-6-5-1058-35-2115-59-172-4-315-10-317-14-2-3 188-12 423-19 235-6 546-16 692-21s414-14 595-20c1547-48 1649-52 1662-66 11-11 49-14 156-15 78-1 183-4 232-8l90-7-55-6c-30-4-453-17-940-28-1240-30-1552-38-1558-45-3-3 24-5 59-5 71 0 1527-45 1797-56 184-7 236-24 75-24-54 0-341-7-638-15s-673-17-835-21c-301-6-464-21-260-23 125-1 960-28 1180-37 108-5 144-10 120-15-19-4-372-15-785-24-612-14-752-20-761-31-8-10-38-14-110-15-65 0-92-3-79-9 11-5 75-9 143-9 67-1 122-5 122-10 0-11-112-21-249-21-208 0-110-9 219-19 179-6 690-22 1135-37 446-14 812-28 814-30 18-18 30-17-2203-74-660-17-1202-33-1205-35-2-3 15-5 38-5 32 0 42-3 38-13-4-11 42-15 246-21 138-3 253-9 256-12s0-8-7-13c-7-4 169-13 390-20 818-25 1282-41 1287-46 2-3 2-7 0-9s-206-9-454-15c-247-7-614-16-815-21-716-18-1185-32-1188-35-5-5 10-102 18-115 6-10 245-20 1052-46 573-18 1065-33 1091-34 34 0 47-4 45-12-3-8-31-13-79-15-41-1-308-7-594-14-286-6-560-14-610-18-85-6-79-7 95-14 102-4 412-14 690-22s555-20 616-25c60-6 136-10 167-10s57-4 57-10-85-10-232-11c-128-1-278-4-333-8l-100-7 85-7c47-3 377-15 734-26 356-11 651-22 654-25s3-8 1-10-215-9-474-15c-258-6-641-16-850-21s-567-14-795-20c-579-14-782-21-776-27 3-3 200-11 438-19 238-7 584-18 768-23 537-17 670-23 670-32 0-14-94-18-590-29-808-17-1245-31-1253-39-4-4 108-11 250-15 559-14 1466-46 1471-51 3-3 3-7 1-9s-247-8-544-15c-916-19-1409-32-1434-37-68-14 32-22 404-33 226-7 536-16 690-21s433-14 620-20c474-14 625-21 625-30 0-4-107-11-237-14-131-4-332-11-448-16-115-5-511-16-880-25s-678-19-688-23c-15-6-16-10-5-24 12-16 90-20 828-42 962-30 1110-36 1110-46 0-7-128-14-478-26-106-4-190-9-188-12 4-3 2044-71 2179-72 33 0 47-4 47-13 0-11-65-15-342-21-337-6-525-11-863-21-93-3-354-10-580-15-1360-32-1485-36-1497-48-5-5 4-24 19-44l28-36 118-7c64-4 117-11 117-16s-42-9-93-9c-52 0-96-3-100-6-3-4 18-34 49-68l54-62 423-13c932-27 1900-60 1905-66 3-3 3-7 1-9s-141-6-309-10c-168-3-366-8-440-11s-238-7-365-10c-528-12-963-25-1002-31-50-6-53-14-16-36 31-18 32-18 68-18 14 0 25-4 25-10 0-5-9-10-21-10-30 0-18-12 91-95 85-64 105-75 139-75 44 0 71-8 71-21 0-5-6-9-14-9-51 0 17-52 159-122 50-25 51-25 605-42 305-10 556-19 558-21 18-18-60-23-430-30-233-4-425-10-428-15-3-4-14-10-25-12-13-3 9-15 65-38 74-29 103-35 223-44 75-5 137-13 137-18 0-4-8-9-17-9-93-7-89-13 29-38 241-50 299-55 603-55 303 0 345 4 593 56 108 23 131 38 57 38-25 0-45 5-45 10 0 6 1 10 3 10 1 1 63 5 137 9 75 5 153 15 175 24 22 8 49 18 60 23 39 14-55 28-197 28-76 1-138 4-138 8 0 5-29 8-65 8s-65 4-65 9c0 9 134 17 460 27 113 4 216 11 230 16s74 36 133 70c108 60 108 60 81 74-14 8-37 14-50 14s-24 4-24 9 42 11 93 13c77 3 98 8 129 28 41 28 47 40 20 40-10 0-22 3-25 7-4 3-71 8-150 11-78 2-144 6-146 8-12 11 25 15 223 23 194 7 256 15 219 28-24 8-13 23 16 23 21 0 50 19 112 74 118 103 144 132 126 139-8 3-252 15-543 27-291 13-531 24-533 26-13 12 40 15 370 25 200 6 378 14 394 19 25 7 19 8-35 10-36 2-82 2-102 1-21-2-38 1-38 7 0 5-99 12-227 17-126 4-243 8-262 9-19 0-36 7-38 14-3 8 10 12 49 12 29 0 172 5 318 10s397 14 558 20c287 10 294 11 312 33 17 20 17 23 2 32-14 8-12 10 13 15 24 4 42 24 99 107 38 57 67 105 63 109-3 4-88 10-189 15-172 8-426 23-583 34-59 4-111 10-235 29-27 4 257 15 645 26 209 6 394 13 410 15 35 6 65 43 45 55-14 8-145 17-390 25-85 3-254 10-375 15s-339 14-485 20c-474 19-714 31-719 35-2 3-2 7 0 9s155 9 339 15 538 18 785 27c248 8 559 18 693 22 259 8 254 6 268 60 4 13 4 25 1 28s-199 13-436 23c-389 16-454 21-440 35 2 3 180 10 394 17 233 8 374 16 350 20-22 4-152 13-290 18-137 6-347 15-465 21-118 5-304 12-413 16-171 6-222 13-205 29 2 2 170 10 373 17 241 8 343 15 293 18-79 6-103 15-80 29 17 10-122 19-420 28-229 6-296 16-185 27 28 3 138 7 242 10 526 14 1231 38 1313 44 51 4 93 12 95 17 3 13-108 21-588 40-220 8-454 18-520 21-192 8-804 33-1125 45-234 9-297 14-305 26-8 11-54 15-208 20-324 10-244 23 233 38 1456 46 1884 63 1629 66-41 0-87 2-104 4-16 2-100 6-185 9s-312 13-505 21c-192 8-439 17-547 21-157 5-198 10-198 20 0 8 10 14 23 14 89-1 1387 42 1442 48 62 7 48 9-115 15-102 5-333 15-515 22-181 8-354 15-382 15-29 0-53 4-53 9s24 12 53 15c40 4 769 29 1122 37 28 1 39 4 25 6-60 11-40 23 41 24 46 1 109 4 139 9 49 6 45 7-46 9-56 0-116 4-133 7-60 12-30 24 62 25 50 1 119 4 152 8 49 5 28 8-110 14-264 12-818 34-1280 52-231 9-439 18-462 21-95 12-31 21 180 28 122 4 409 13 637 21s566 19 750 25 448 15 585 20c138 5 280 10 318 10h67v60l-62 1c-35 1-76 5-93 9-28 7-29 8-5 10 78 7-103 20-471 34-228 9-448 18-489 21-41 2-166 8-277 11-112 4-203 10-203 14 0 10 134 15 920 41 355 12 649 24 653 28 9 9-11 152-23 165-6 6-1235 64-1402 66-21 0-38 4-38 8 0 5 102 12 228 15 741 22 1082 36 1042 43-8 2-202 10-430 19-547 21-1047 49-1056 58-5 4 148 12 469 23 103 4 186 8 185 10-2 1-311 15-688 30s-687 29-689 31c-2 1-2 5 0 7 3 3 367 16 809 31 1270 40 1444 46 1459 51 10 3 11 8 4 15-11 11-66 14-948 50-291 12-532 23-534 25s-2 6 0 8 234 11 514 20c281 9 546 18 590 21s133 5 198 6c64 1 119 4 121 8 14 22-22 29-174 35-698 28-1104 47-1108 51-3 3 1 5 9 5s194 7 414 15 488 17 595 21c107 3 198 8 202 11 4 2 2 14-4 27-12 29-9 28-593 51-209 9-479 20-600 25s-244 10-272 10c-29 0-53 4-53 9s89 12 198 15c108 3 316 13 462 21s362 17 480 20 232 8 252 11l37 6-25 38c-23 35-31 39-77 44-43 4-1076 46-1142 47-16 0-17 1-5 8 8 5 143 12 300 16 280 7 543 20 465 24-22 0-416 17-875 36s-855 34-880 34c-25-1-335-10-690-19"/></svg>