<svg xmlns="http://www.w3.org/2000/svg" width="226.323" height="511.089" viewBox="0 0 2263.228 5110.889"><path d="M1100.514 5070.89c-12-63-24-524-25-946l-1-386-25-11c-14-7-33-12-41-12-19 0-175-63-297-119-137-63-241-138-368-262-116-114-117-114-187-259-65-135-107-243-146-381-16-56-13-179 4-179 4 0 12 17 18 38 71 250 90 295 162 402 21 30 72 108 114 172 77 118 126 169 250 262 127 95 375 216 441 216 45 0 94-19 106-41 13-26 69-25 103 2 25 19 32 20 99 10 185-27 254-55 359-144 41-34 109-89 151-121 120-92 186-187 268-387 28-67 61-143 73-168 13-25 36-85 52-133 18-56 33-88 42-88 10 0 13 7 9 23-3 12-14 65-25 117-12 52-35 130-52 173-16 43-35 100-42 125-11 47-81 191-132 270-49 78-206 241-301 312-106 80-149 98-335 140-111 26-171 46-181 63-1 1-5 236-9 522-7 540-13 623-54 755l-23 75z"/><path d="M1152.514 3279.89c-4-6-10-42-14-80s-13-81-20-96c-9-18-14-64-14-137v-111l-27-6c-52-11-198-68-284-110-80-39-169-108-169-130 1-16 24-39 85-85 113-84 196-128 275-144 19-4 50-14 68-22l32-15v-691l-44 6c-54 8-208 74-272 117-167 113-238 183-322 320l-34 55 5-75c8-104 20-136 72-202 104-133 277-238 463-282 57-13 105-26 107-27 1-2 8-263 14-579 13-678 33-1037 53-980 11 29 28 292 43 641 8 195 20 455 27 579s12 251 12 282l-2 58 42 11c186 49 367 134 449 209 131 120 221 250 258 375l18 60-36-40c-19-22-73-94-118-161-46-66-104-139-128-161-52-48-151-104-227-128-30-10-86-33-124-52-56-28-75-33-106-28l-38 6-7 335c-4 188-4 339 1 344 5 4 41 20 79 35 176 69 326 156 362 211l17 27-52 47c-67 60-144 99-302 153l-125 42-5 220c-3 121-8 215-12 209m-90-566c6-35 14-114 18-177l7-113-34 7c-87 19-313 126-333 158-22 34 20 64 219 155 102 47 109 45 123-30m248 21c94-31 207-100 221-135 8-22-22-49-70-63-23-7-71-27-107-43-36-17-87-33-115-35l-50-5 1 148c0 82 2 152 2 157 3 12 17 9 118-24"/></svg>