<svg xmlns="http://www.w3.org/2000/svg" xml:space="preserve" width="39.646" height="30.748"><path d="m16.565 22.118-1.028 6.59c-3.085-3.394-4.765-7.393-5.75-11.708-.268-1.177-.203-2.428-.332-3.64C8.904 8.187 6.52 4.156 1.867 1.554c.134.194.257.398.406.58 2.524 3.102 3.92 6.712 4.69 10.582.158.803.05 1.659.068 2.49.048 2.236.566 4.338 1.78 6.24.128.2.282.38.493.662.273-.553.505-1.018.805-1.624.64 1.104 1.146 2.05.656 3.28-.284.712-.374 1.503-.581 2.384-.716-.534-1.21-1.162-1.663-1.822-1.682-2.456-2.781-5.114-2.997-8.127-.056-.783.063-1.55.003-2.3-.12-1.499-.32-3.01-.692-4.464-.82-3.21-2.404-6.057-4.44-8.66A10 10 0 0 1 .048.307C.024.27.029.215 0 .057.9.193 1.684.56 2.43.95c4.766 2.492 7.737 6.308 8.48 11.713.134.964.157 1.943.229 2.915.217 2.945 1.333 5.53 3.157 7.989l1.064-3.285c.703.586.852 1.38 1.205 1.836M39.646.163c-.783 1.168-1.616 2.306-2.338 3.51-2.097 3.5-3.31 7.262-3.189 11.387.123 4.185-1.5 7.683-4.201 10.761-.092.106-.223.175-.415.322-.764-3.047-1.284-6.148-3.724-8.55l-1.493 1.56-.774-1.081 2.296-1.88c1.832 1.072 2.188 1.525 4.587 5.847A9.2 9.2 0 0 0 32.298 18c.221-1.086.285-2.216.32-3.33.126-4.176 1.602-7.882 3.87-11.318.402-.609.883-1.166 1.26-1.896-.302.166-.614.312-.904.498-3.78 2.429-5.669 6.072-6.548 10.332-.145.705-.038 1.464-.053 2.197-.03 1.516-.316 2.985-.805 4.605l-1.154-1.324c.163-1.768.264-3.514.495-5.244.573-4.296 2.724-7.665 6.207-10.198.67-.487 1.386-.919 2.124-1.296C37.88.635 38.7.339 39.5 0zM20.06 3.256c-.126.025-.335.008-.38.085-.491.838-1.053 1.651-1.402 2.547-.361.924-.113 1.83.619 2.557.434.434.95.491 1.488.27.912-.378 1.498-1.972 1.053-2.85-.439-.865-.905-1.717-1.377-2.609M19.895.757c1.034 1.842 2.132 3.514 2.939 5.318.804 1.793.43 3.596-.727 5.194-.777 1.076-2.661 1.43-3.806.712-.81-.505-1.322-1.206-1.582-2.172-.416-1.54-.361-2.95.482-4.352.674-1.12 1.205-2.325 1.829-3.477.204-.379.497-.71.865-1.223"/><path d="m19.796 16.336-2.019 2.858-1.03-1.122a15.9 15.9 0 0 1 3.095-3.52c2.684 2.464 4.654 5.268 5.46 8.987.92-.887 1.312-1.956 2-3.035.266.682.527 1.202.656 1.751.068.287-.032.657-.164.94-.925 1.993-2.148 3.795-3.737 5.63-.385-4.586-1.103-8.907-4.261-12.489"/><path d="m13.888 17.445-1.423 1.722-.492-1.47 1.745-1.478c2.852 1.72 4.787 4.377 6.08 7.634l1.878-3.72.761 1.894-2.648 8.72c-.37-1.406-.65-2.586-.992-3.746-.716-2.43-1.419-4.874-2.908-6.98-.588-.83-1.248-1.61-2.001-2.576"/></svg>