<svg xmlns="http://www.w3.org/2000/svg" width="198.688" height="389.899" viewBox="0 0 1986.877 3898.991"><path d="m605.996 3846.774-58-56 16-31c15-30 15-32-13-72-22-32-39-44-73-53-25-6-79-20-120-31-41-12-120-32-175-47-58-15-105-33-113-43-11-15-14-15-22-2s-12 12-31-7c-20-20-21-25-10-70 19-75 25-78 104-56 10 2 17 14 17 28 0 17 8 26 31 34 60 21 75 15 86-31 37-145 43-172 36-178-11-10-72-30-90-30-8 0-22 18-30 40-14 34-20 39-37 34-41-13-66-24-66-28 0-22 32-121 41-127 7-4 9-14 6-22-3-9 0-21 8-27 15-12 46-5 305 64 263 70 236 65 268 46 22-14 31-28 36-59 4-28 11-41 22-41s14-5 10-16q-6-16.5 45-75c44-51 50-63 44-87-12-43-8-125 7-137 8-5 12-18 10-28-3-16 21-132 35-167 3-8 7-21 9-29 12-58 27-120 35-141 5-14 11-41 14-60 5-40 55-237 90-355 13-44 27-102 31-130 4-27 11-61 16-75 20-51 58-203 58-231 0-50 88-221 108-211 4 2 8-1 10-7s-7-11-21-11c-21 0-25-7-36-56-17-73-21-144-9-144 5 0 8-6 6-12-3-7-10-13-15-13-6 0-15-3-19-7-4-5-2-8 4-8 7 0 12-9 12-20 0-25-37-28-42-4-2 12-21-2-66-50-34-37-62-73-62-81s11-22 25-31c25-16 70-120 100-227 8-28 21-78 30-109 22-79 45-276 38-325-4-32-1-47 18-72 12-17 29-31 36-31s13-7 13-16c0-10 6-13 19-9 46 14 87 8 115-18 36-33 86-43 138-27 30 8 43 9 48 0 3-6 14-8 24-4 14 6 16 2 10-21-4-18-3-26 3-22s18 0 29-7c16-13 20-11 36 16 10 16 16 33 14 37-9 15 40 61 61 57 34-7 60 18 55 53-2 17 0 31 5 31s9-9 9-20c-2-34 19-22 25 15 9 53 47 95 88 95 22 0 23 2 17 46-4 34-3 43 7 38 8-6 8-3-1 9-8 9-11 25-7 36 8 25-19 90-45 108-11 8-26 26-34 41-14 29-77 243-96 332-7 30-16 60-21 65-4 6-4 37 0 69 12 85-10 105-147 137-97 23-103 25-97 46 10 43-24 98-99 160-25 21-27 28-25 92 2 57-2 74-19 96-12 15-19 31-16 36 4 8-54 246-91 369-8 25-28 104-45 175-17 72-44 173-60 225-15 52-45 158-65 235-65 245-84 308-101 326-14 16-15 25-4 67 24 100 12 167-100 567-27 99-56 209-63 245l-14 65-44 7c-24 3-62 9-84 13-38 6-42 3-97-50m-81-384c66-41 47-133-30-139-73-6-106 82-51 133 32 30 40 30 81 6m1398-3096c0-25-4-30-24-30-32 0-49 28-31 50 7 9 23 15 34 13 16-2 21-10 21-33m-565-100c15-18 10-45-13-59-26-16-62 27-47 55 13 23 43 25 60 4m334-26c14-11 26-31 26-43 0-27-32-64-64-72-13-3-26-14-29-25-3-10-12-19-20-19-10 0-13 7-10 18 2 10-3 31-11 47-20 38-20 65 0 93 20 29 72 29 108 1"/></svg>