<svg xmlns="http://www.w3.org/2000/svg" width="895.219" height="860" viewBox="0 0 8952.191 8600"><path d="M4542.19 8555c-89-67-250-232-331-338-331-436-510-983-630-1917l-20-155 97-100c54-55 117-122 140-149 27-32 43-44 46-35 36 104 73 306 87 475 11 133 7 450-7 537-9 52 7 49 113-19 136-87 241-173 339-277l89-94-62 126c-74 149-108 262-124 410-26 237 36 492 178 735 105 179 313 425 491 581l92 80-44 40c-80 75-251 145-352 145-34 0-53-8-102-45"/><path d="M4960.19 6767c0-53-45-309-75-428-59-234-173-539-201-539-8 0-14 9-14 19 0 33-67 227-110 318-67 144-162 276-290 403-63 64-142 134-176 157l-61 42-6-237c-6-255-20-374-67-567-40-165-73-260-92-260-8 0-50 43-93 95-108 131-328 348-460 454-150 120-525 365-525 343 0-2 23-77 50-167 90-292 137-496 165-722l15-120 57-76c170-222 382-439 539-551 106-76 278-161 389-193 114-32 235-30 333 5 116 41 178 83 302 207 123 123 212 241 375 500 129 205 212 325 302 438l75 94-12 46c-51 205-213 512-378 720l-42 54zm1802-337c-21-59-151-290-223-395-114-169-308-385-446-497-27-22-40-48-72-145-66-200-142-365-261-567l-23-38 44 28c24 15 193 122 374 237 182 115 369 234 417 264l88 55 35 111c39 124 68 255 86 392 13 100 14 436 1 530l-7 60z"/><path d="M2240.19 6347c0-28 36-346 51-457 142-1016 514-1570 1054-1570 217 0 448 79 683 234 90 58 93 61 65 68-317 74-509 180-755 416-150 145-281 304-536 649-113 153-239 321-281 373-117 145-281 313-281 287m2388-132c27-55 53-110 56-122 10-32 22-29 32 10 9 30 6 37-59 117-38 47-72 87-74 90-3 3 17-40 45-95m1302 41c-269-110-492-328-756-739-262-408-360-542-486-663-147-141-290-212-466-232l-63-7 50-73c97-140 189-230 301-294s257-84 388-53c474 112 988 829 1117 1560 32 176 19 527-18 524-7 0-37-11-67-23m-4220-2c0-3 26-40 58-82 240-316 418-659 508-982 27-96 84-206 166-317 56-77 61-72 19 19-114 247-201 571-260 967l-26 175-160 81c-170 85-305 147-305 139m6315-277c-101-119-363-376-495-485-157-130-327-249-474-332-100-56-116-70-140-112-15-27-63-103-107-169-92-139-97-135 71-72 127 47 309 137 450 221 152 90 341 216 367 245 50 53 161 234 232 378 66 132 168 386 159 395-2 1-30-29-63-69"/><path d="M1332.19 5708c59-216 178-566 248-728 187-439 404-732 631-850 182-94 348-95 544 0 76 36 235 144 235 158 0 4-21 18-46 32-75 39-166 113-245 198-49 53-93 89-128 107-116 58-196 156-371 455-137 233-209 337-303 437-105 111-189 173-322 238-94 46-233 95-271 95-7 0 3-52 28-142m6746-288c-594-443-987-666-1322-750l-111-28-59-69c-32-37-83-94-114-125-38-39-51-59-41-62 8-2 23-7 34-11 50-16 211-44 320-56 157-16 487-6 715 20l175 21 28 32c60 71 191 278 256 407 38 75 98 210 134 301 64 161 153 428 146 434-2 2-75-49-161-114m-1723-356c-425-271-689-434-705-434-19 0-40-19-89-81-36-44-100-113-142-154l-78-74 52-34c73-48 102-62 187-88 251-77 539 36 823 324 100 102 253 297 349 447 104 162 307 531 291 529-4 0-314-196-688-435m-5755 7-65-6 245-109c553-245 763-373 1002-610 56-56 95-86 109-86 19 0 16 4-17 29-50 36-141 133-183 194-52 77-104 189-172 374-54 147-66 173-87 178-127 32-646 55-832 36"/><path d="M8275.19 4370c-650-122-849-145-1245-144-329 1-425 11-618 67l-84 24-26-22c-84-70-212-140-330-180l-64-21 61-76c222-276 526-426 820-405 122 9 251 44 441 121 533 216 1018 458 1226 612 59 43 98 78 82 73-2 0-120-23-263-49m-7194-131c-232-25-452-88-666-194-150-73-322-182-309-195 5-4 56-28 114-53 558-237 1096-247 1735-32 203 69 301 111 296 127-2 7-8 43-14 79l-11 66-53 28c-49 26-83 56-108 99-7 13-42 22-135 36-298 46-633 61-849 39m1564-251c-56-15-95-18-191-16l-121 4 9-41c29-126 97-243 213-361 194-197 504-353 900-453 373-93 835-136 1237-113 736 42 1290 213 1641 507l69 57-76 35-75 36-72-48c-294-193-715-315-1234-356-183-14-631-6-795 15-723 91-1204 328-1372 674-22 45-45 81-51 81-7-1-43-10-82-21m-435-234c-97-42-412-141-530-167-194-43-316-58-530-64l-205-5-105-55c-241-128-433-267-611-443-139-138-246-270-227-281 7-4 81-13 163-19 321-27 679 9 990 100 254 74 571 226 830 398 211 141 449 328 439 345-4 7-20 28-35 47-14 19-43 65-64 103-20 37-42 67-48 66-7 0-37-11-67-25m5270-20c-138-63-387-157-474-179-52-13-136-27-185-31l-90-7 82-57c546-380 1091-612 1590-675 121-15 440-20 510-7l39 7-50 65c-244 322-592 596-977 768-104 47-366 143-384 141-3 0-31-11-61-25m-1042-257-67-62 96-115c627-754 1210-1167 1873-1329 63-16 139-32 168-36l52-7-20 53c-41 104-163 331-236 441-76 114-202 275-246 314-12 12-90 42-173 68-399 126-815 347-1268 673-48 35-93 63-100 63-7-1-42-29-79-63m-4073-103c-157-127-437-316-597-402-142-77-328-158-466-203l-104-34-101-110c-174-190-307-383-399-583-52-111-70-162-58-162 6 0 69 11 141 26 742 144 1339 565 1830 1289 99 146 94 130 51 157-20 12-65 46-99 75s-64 53-65 52c-2 0-61-47-133-105m3858-62c-35-20-63-42-63-47 0-6 25-48 56-93 364-544 614-1147 689-1665 6-40 18-60 80-130 40-46 115-122 166-170 94-87 245-207 259-207 4 0 11 62 15 137 22 405-55 819-226 1212l-53 122-105 92c-220 191-422 399-634 655-61 72-113 132-116 132-3-1-34-18-68-38"/><path d="M2719.19 3178c-308-459-659-810-1035-1034l-91-55-56-117c-106-226-179-457-216-684-30-188-32-218-18-218 6 0 62 28 122 61 720 399 1176 1028 1469 2027l15 52-59 30c-33 17-62 30-64 30-3 0-33-42-67-92m3236-4c-55-24-152-60-215-80s-119-40-124-45c-11-10 5-174 40-414 147-998 456-1700 994-2258l115-120 27 139c176 902-37 1782-659 2725-36 54-68 99-71 98-4 0-52-20-107-45"/><path d="M2975.19 3103c-10-38-44-145-77-240-177-521-404-924-711-1264l-95-106-16-99c-27-173-36-355-25-534 6-91 12-167 14-169 15-14 260 202 375 331 358 398 576 860 689 1458 33 174 64 410 73 563l3 49-105 39c-58 21-105 39-106 39s-9-30-19-67m312-141c-29-443-156-967-314-1302l-45-95 6-150c14-351 104-740 238-1037l44-97 68 107c37 59 106 184 153 279l85 172-16 93c-34 203-41 315-40 623 0 407 31 687 125 1140 35 172 38 195 28 241l-12 51-151 37c-83 20-154 36-157 36s-9-44-12-98m2047 29-172-35 35-75c202-434 325-853 363-1230 15-151 12-457-5-605-12-101-58-339-77-403-4-12 84-156 163-267l63-88 18 43c94 220 171 544 198 832l10 109-64 161c-166 418-281 920-337 1467-7 63-15 118-18 121s-83-11-177-30"/><path d="M3733.19 2913c-148-697-178-931-177-1383 1-424 40-686 154-1033 53-161 202-497 220-497 15 0 156 271 216 417 270 649 300 1347 93 2178-21 88-51 197-64 242l-25 82-58 5c-31 4-115 13-187 21-174 20-161 23-172-32m1297 29c-14-2-88-8-165-15l-140-12-7-70c-15-157-21-691-9-845 37-489 134-861 319-1225 72-143 244-407 256-394 9 11 67 176 95 269 79 273 106 492 98 793-9 331-59 590-185 952-50 144-151 385-203 485-29 56-37 65-59 62"/><path d="M4306.19 2893c-20-69-16-112 22-268 108-436 153-853 132-1226-13-240-38-410-91-621l-19-77 36-98c62-167 213-469 245-489 17-10 150 288 212 476 62 189 64 202 38 263-124 283-203 588-247 957-20 160-26 718-11 968l8 132h-160c-143 0-160-2-165-17"/></svg>