<svg xmlns="http://www.w3.org/2000/svg" viewBox="0 0 857 960" width="857" height="960"><path d="M529.768,868.311c0.306,0.414 0.706,0.974 1.507,1.775l4.643,-5.457l-6.138,3.682zM535.576,864.601h0.045l-5.951,-1.334v0zM788.785,432.655c0,-3.816 -0.038,-7.633 -0.133,-11.409v0c-0.133,-5.856 -0.4,-11.955 -0.4,-18.133c0,-4.322 0,-8.766 0.533,-13.223v0c0,0 0,-0.267 -0.133,-0.934c-0.133,-0.681 -0.4,-1.776 -0.533,-3.23v0c-0.052,-0.775 -0.095,-1.468 -0.095,-2.269c0.081,-5.998 1.543,-11.095 1.588,-14.725l0.043,-1.361c0,-6.496 -1.815,-13.452 -3.723,-21.178c-2.402,-9.91 -7.139,-20.276 -11.996,-30.59v0c-0.92,-1.868 -2.055,-3.816 -3.416,-5.818l-0.667,-0.934l-0.267,-1.201c-11.726,-49.723 -34.271,-98.492 -66.63,-137.809c-32.406,-39.317 -74.453,-69.128 -125.626,-81.538v0c-1.642,-0.4 -3.603,-0.668 -5.872,-1.201l-0.934,-0.267l-0.801,-0.533c-4.779,-2.723 -9.502,-5.459 -14.226,-8.047c-9.636,-5.271 -18.767,-9.274 -28.681,-11.409c-14.132,-3.083 -28.542,-5.084 -43.177,-7.086c-6.229,-0.787 -17.271,-1.541 -23.636,-1.588c-2.455,0 -4.857,0 -7.272,0c-3.856,0 -7.685,0 -11.502,0.094c-5.861,0.133 -11.906,0.4 -18.044,0.4c-4.363,0 -8.807,-0.133 -13.264,-0.533c0,0 -0.267,0 -0.934,0.133c-0.734,0.133 -1.776,0.438 -3.23,0.533v0c-0.762,0.094 -1.602,0.094 -2.269,0.094c-5.998,-0.041 -11.043,-1.501 -14.725,-1.548l-1.361,-0.043c-6.496,-0.053 -13.459,1.815 -21.131,3.723c-9.866,2.361 -20.088,7.045 -30.363,11.902l-2.175,1.334l-1.681,0.043c-17.452,0.28 -34.451,1.775 -50.403,6.552c-28.001,8.361 -51.815,26.589 -75.042,45.949v0c-25.364,21.09 -49.499,43.408 -67.222,70.541c-16.825,25.636 -26.046,55.721 -27.407,86.311l-0.047,1.494l-0.667,1.334c-0.707,1.268 -1.375,2.388 -1.908,3.456v0c-5.271,9.589 -9.274,18.763 -11.409,28.677c-3.083,14.136 -5.084,28.547 -7.086,43.182c-0.921,6.27 -1.541,17.313 -1.588,23.678c0,2.509 0,5.005 0,7.46c0,3.817 0,7.593 0.094,11.316c0.133,5.91 0.4,11.955 0.4,18.133c0,4.363 -0.133,8.766 -0.533,13.223c0,0 0,0.267 0.133,0.934c0.133,0.681 0.438,1.776 0.533,3.23v0c0.095,0.775 0.095,1.602 0.095,2.269c-0.04,5.998 -1.493,11.082 -1.588,14.725v1.361c-0.053,6.502 1.815,13.458 3.723,21.184c2.402,9.95 7.085,20.274 11.996,30.588c2.901,6.227 8.411,12.595 13.816,19.587l0.801,1.201l0.267,1.454c9.132,44.862 25.269,87.812 52.54,124.173c35.497,47.319 87.586,82.036 145.854,88.494l1.201,0.133l1.068,0.533c1.041,0.614 1.921,1.148 2.722,1.548v0c9.593,5.271 18.773,9.274 28.635,11.409c14.183,3.096 28.547,5.097 43.181,7.099c6.27,0.921 17.313,1.588 23.678,1.588v0c2.402,0 4.804,0 7.219,0c3.869,0 7.685,0 11.502,-0.096c5.907,-0.133 11.912,-0.4 18.09,-0.4c4.376,0 8.78,0 13.277,0.533c0,0 0.401,0 1.068,-0.133c0.681,-0.133 1.776,-0.438 3.23,-0.533v0c0.774,-0.049 1.561,-0.096 2.228,-0.096c6.044,0.04 11.089,1.492 14.771,1.588h1.334c6.501,0.041 13.507,-1.814 21.179,-3.682c9.866,-2.415 20.088,-7.099 30.363,-11.956l1.815,-1.068l0.934,-0.133c4.817,-1.133 9.635,-2.455 14.452,-3.909l1.334,-0.4l0.043,-0.045l2.002,-0.667c14.682,-4.554 29.134,-10.278 43.27,-16.683c36.769,-16.542 74.721,-34.996 102.311,-63.084c30.363,-30.862 48.674,-72.631 52.544,-115.581l0.133,-1.415l0.667,-1.201c2.415,-4.323 4.817,-8.553 7.139,-12.73c5.271,-9.636 9.274,-18.821 11.409,-28.683v0c3.095,-14.177 5.043,-28.588 7.045,-43.223v0c0.921,-6.27 1.588,-17.312 1.588,-23.677c0,-2.455 0.045,-4.911 0.045,-7.366zM856.463,414.676c0,1.827 0,3.642 0,5.457c0,76.811 -12.545,154.897 -27.275,229.345c-2.137,10.865 -6.901,19.638 -13.453,25.91c-5.045,4.87 -11.051,8.193 -17.362,10.141c-0.133,2.723 -0.4,5.404 -0.4,8.18c0,12.77 1.359,25.999 1.402,40.54c0,4.631 -0.133,9.408 -0.533,14.319c-2.537,32.269 -10.45,64.36 -15.587,95.175c-1.281,7.855 -6.045,14.087 -11.863,18.09c-5.865,4.043 -12.91,6.138 -19.955,6.138c-8.044,0 -16.542,-2.869 -22.36,-9.821c-14.459,-17.182 -21.678,-34.59 -24.681,-56.541c-0.268,-1.867 -0.534,-4.643 -0.801,-8.139c-0.268,-3.536 -0.534,-7.712 -0.801,-12.129c-0.267,-5.319 -0.534,-10.816 -0.667,-15.86c-3.817,4.731 -8.006,10.455 -11.729,15.86c0,6.864 -0.134,13.732 -0.267,20.591v0c0,3.27 -1.601,6.499 -3.87,8.407c-2.228,1.975 -4.897,2.776 -7.633,2.776c-2.136,0 -4.457,-0.587 -6.499,-2.002c-1.095,-0.721 -1.975,-1.655 -2.776,-2.856c-3.643,3.269 -7.419,6.191 -11.369,8.82c-0.047,10.728 -0.047,21.459 -0.047,32.227v-0.045c-0.134,6.365 -5.044,11.314 -11.409,11.409c-3.189,0.04 -6.325,-1.455 -8.233,-3.59c-1.935,-2.095 -2.869,-4.55 -3.136,-6.952c-0.534,-5.229 -1.201,-10.406 -1.868,-15.637c-2.269,-0.04 -4.403,-0.693 -6.178,-1.494c-0.038,0 -0.088,-0.05 -0.133,-0.095c-0.038,0.05 -0.088,0.05 -0.133,0.095c-0.921,0.667 -1.359,1.201 -1.454,1.334c0,0 -0.266,0.613 -0.533,1.681c-0.267,1.095 -0.4,2.683 -0.4,4.551c0,4.639 0.881,10.817 1.815,16.541c0.948,5.818 1.963,11.089 2.496,15.092c0.84,8.182 1.908,17.224 1.908,26.498c0,10.817 -1.494,22.184 -7.366,32.632c-8.995,16.266 -24.811,24.461 -40.492,24.366c-15.865,0 -31.733,-7.956 -41.728,-22.729c-7.086,-10.496 -9.755,-22.596 -10.956,-34.406c-1.269,-11.773 -0.869,-23.504 -1.402,-33.499v-0.133l6.499,-0.267h-0.533l-5.951,-0.133v-0.309c-1.547,1.121 -3.229,2.055 -5.137,2.322l-1.588,0.095c-2.548,0 -4.87,-0.826 -6.818,-2.228c-1.908,-1.414 -3.563,-3.589 -4.23,-6.365l-0.533,-2.415c-0.534,0.534 -0.934,0.934 -1.201,1.201c-3.042,3.603 -5.125,7.966 -6.632,13.144c-1.494,5.131 -2.376,11.042 -2.909,17.314c-1.228,12.547 -1.187,26.413 -4.777,39.317c-2.407,8.544 -6.677,16.905 -14.363,23.137c-4.361,3.536 -9.725,6.312 -16.09,8.22c-4.686,1.375 -9.369,2.042 -13.906,2.042c-10.135,0 -19.543,-3.363 -27.59,-8.914c-8.043,-5.546 -14.862,-13.131 -20.453,-21.951c-11.132,-17.544 -17.452,-39.862 -17.497,-61.224c0,-3.909 0.267,-7.726 0.667,-11.502c-1.775,-1.04 -3.551,-2.108 -5.178,-3.442c-0.867,-0.667 -1.841,-1.335 -2.642,-1.868c-0.267,1.454 -0.534,2.948 -0.934,4.363c-1.321,5.178 -4.551,9.26 -8.46,11.996c-2.682,1.868 -5.763,3.109 -8.993,3.776c0.05,5.368 0.095,10.679 0.095,16.043v0.091v0c-0.053,3.456 -1.641,6.178 -3.643,7.953c-2.002,1.802 -4.511,2.956 -7.593,3.003c-2.735,0.092 -6.045,-1.321 -8.006,-3.817c-4.138,-5.188 -6.632,-10.913 -8.047,-16.637c-1.509,-5.776 -1.909,-11.501 -2.042,-16.998c-0.133,-4.638 -0.133,-9.135 -0.4,-13.365c-0.133,-0.387 -0.4,-1.055 -0.533,-1.588v0c-0.8,-2.269 -1.335,-4.178 -1.868,-5.632l-0.267,-0.533c-0.267,-0.134 -0.535,-0.4 -1.068,-0.667c-0.401,0 -0.667,-0.088 -0.934,-0.133c0.038,5.598 0.09,11.229 0.133,16.82v0.191c0,3.082 -1.454,6.218 -3.723,8.086c-2.188,1.841 -4.776,2.642 -7.272,2.642c-2.455,0 -5.044,-0.775 -7.272,-2.642c-2.228,-1.867 -3.682,-5.097 -3.682,-8.139v-0.191c0.041,-0.721 0.041,-1.508 0.041,-2.175c0,-7.594 -0.708,-15.092 -2.042,-22.591c-4.591,-1.454 -9.087,-3.001 -13.638,-4.643c-1.134,16.546 -8.092,32.362 -20.448,44.452v0c-4.366,4.217 -9.998,5.992 -15.455,5.992c-4.404,0 -8.914,-1.174 -12.77,-3.856c-3.87,-2.642 -7.019,-7.046 -7.82,-12.41c-2.509,-15.501 -5.005,-30.504 -11.69,-43.087c-0.68,-1.28 -1.427,-2.442 -2.228,-3.776c-2.228,3.763 -4.963,6.992 -8.139,9.541c-6.544,5.191 -14.543,7.499 -22.455,7.499c-6.637,-0.053 -13.176,-1.721 -19.314,-4.59c-0.761,4.77 -1.774,9.494 -3.176,14.178v0c-0.681,2.363 -2.282,4.538 -4.23,5.872c-1.962,1.375 -4.177,1.908 -6.272,1.908c-2.602,0 -5.138,-0.854 -7.326,-2.722c-2.175,-1.815 -3.682,-4.951 -3.682,-8.047c-0.133,-13.952 -0.4,-27.862 -0.533,-41.815c-0.668,-2.949 -1.068,-6.005 -1.068,-9.181c0,-2.361 0.133,-4.817 0.533,-7.272c0.173,-1.268 0.267,-2.389 0.267,-3.59c0,-3.723 -0.961,-6.592 -2.642,-9.501c-1.735,-2.909 -4.363,-5.724 -7.593,-8.593c-4.507,-4.004 -10.097,-7.82 -15.502,-12.277c-0.134,1.629 -0.267,3.309 -0.667,4.951c-0.948,4.137 -2.949,7.993 -6.045,11.182c-2.776,2.829 -6.766,4.831 -11.356,5.364l-0.801,4.497l-0.667,-4.363h-0.533v0c-5.178,-0.094 -9.635,-2.776 -12.317,-6.045c-2.775,-3.215 -4.243,-6.898 -5.044,-10.541v0c-1.828,-8.634 -1.695,-17.139 -2.095,-24.545c-0.535,-8.817 -0.801,-17.587 -1.068,-26.314c-0.334,-11 -0.735,-22.049 -1.402,-32.951c-11.957,-31.545 -23.416,-63.226 -35.226,-94.629v-0.045c-0.84,-2.416 -1.508,-4.737 -1.908,-7.006c-3.003,-2.629 -5.685,-5.685 -7.593,-9.408c-2.389,-4.722 -3.723,-10.274 -3.723,-16.358c0,-1.682 0.134,-3.403 0.267,-5.178c0.667,-5.588 0.934,-11.085 0.934,-16.636c0.053,-25.863 -6.365,-51.632 -12.997,-78.04c-6.588,-26.315 -13.406,-53.316 -13.406,-81.674c0,-5.04 0.134,-10.097 0.667,-15.181c2.999,-32.138 14.274,-61.723 29.36,-89.177c15.092,-27.453 33.997,-52.812 52.544,-76.584c44.406,-57.088 87.266,-98.768 153.854,-130.354c52.812,-25.091 105.582,-45.954 163.897,-45.997c12.089,0 24.402,0.908 36.998,2.856c3.63,0.547 6.859,1.535 9.862,2.869l0.267,-0.043c1.454,0 2.95,0.039 4.457,0.133h0.047c71.447,5.5 144.488,20.229 206.528,60.543c26.45,17.223 54.95,39.27 80.497,64.313c25.585,25.043 48.176,52.995 62.722,82.267c15.816,31.996 21.775,66.403 32.904,97.81c11.993,34.044 21.053,66.813 21.32,104.129z" /></svg>