<svg xmlns="http://www.w3.org/2000/svg" width="229.5" height="405" viewBox="0 0 2295 4050"><path d="M440 3850c0-110 2-200 5-200 2 0 40 27 82 60 75 57 113 74 113 48 0-7-21-30-46-52l-45-41 43-65c55-84 188-346 188-371 0-18-9-19-165-19-91 0-165-3-165-6 0-14 54-74 66-74 18 0 19 25-21-374-19-190-35-355-35-367 0-13-8-23-20-26-19-5-19-7-4-18 16-11 14-37-20-361-50-479-89-868-122-1196l-28-278h-28c-33 0-37-8-52-94l-11-61-52-5c-28-3-55-9-59-13C57 331 0 41 0 13 0 3 39 0 160 0c88 0 160 1 160 3s9 52 20 112 20 110 20 112 66 3 146 3h147l-7-92c-4-51-8-102-9-113-2-19 5-20 162-23 183-3 181-4 181 64 0 23 3 69 6 103l7 61 156-2 156-3 10-110 10-110 169-3 169-2-6 75c-4 41-10 93-13 115l-7 40h300l20-113 19-112h319l-3 30c-10 90-55 300-65 307-7 4-33 8-58 8h-46l-14 78c-14 75-15 77-45 80l-31 3-26 252c-50 466-138 1331-144 1410-6 76-5 79 22 107l29 30h-31c-37 0-34-14-63 275-12 110-27 263-35 340-19 175-19 205-2 205 8 0 26 17 41 38l26 37-166 3-166 2 6 33c10 49 107 243 170 337l56 85-45 41c-25 22-45 45-45 52 0 26 37 10 112-48 42-33 79-60 82-60 8 0 7 297 0 354l-7 46h-347v-840h-52l4 143c2 110 0 148-11 160-13 17-213 169-263 202l-28 17-86-57c-47-32-115-82-150-112l-64-54v-299h-50v840H440Zm380-801c0-81-24-179-44-179-5 0-21 10-34 23l-24 22 7-37c7-36 6-38-20-38-14 0-35 5-46 10-13 7-19 7-19 0 0-5-18-10-40-10s-40 4-40 10c0 17 20 214 26 248l5 32h229zm890 69c0-16 18-179 25-235l6-43h-34c-27 0-36 5-42 23l-8 22-4-22c-3-17-11-23-29-23-33 0-57 55-52 122 3 53 0 57-27 28-28-31-55-26-55 9 0 17-4 33-10 36-5 3-10 26-10 51v44h120c89 0 120-3 120-12m-290-125c0-9 16-40 36-68 19-29 57-109 84-178 49-129 75-179 118-232 55-66 75-149 52-210-9-23-14-26-52-23-39 3-45 7-74 53-17 28-45 64-62 82-18 17-32 36-32 42 0 26 61 4 91-33l17-21 11 29c14 35 7 57-30 108-15 22-42 83-60 136-36 110-58 157-100 215-33 45-41 117-14 117 8 0 15-8 15-17m-510-34c0-11-11-35-24-52-37-50-80-143-111-240-15-48-40-105-56-127-43-59-44-78-10-165 20-48 31-94 31-125v-48l97-68c53-38 114-91 136-119 22-27 43-50 48-50s38 26 73 57c78 70 100 112 90 173-5 39-4 45 12 45 21 0 54-28 54-47 0-7-7-13-15-13-11 0-15-11-15-36 0-55-25-97-89-148-31-25-70-66-85-91-16-25-34-45-41-45s-15 16-18 36c-8 50-44 92-139 166-116 90-198 168-198 190 0 20 20 24 38 6 23-23 13 31-18 102-41 92-40 146 1 203 45 61 111 227 102 255-3 7 18 42 46 79 28 36 51 70 51 74 0 5 9 9 20 9 14 0 20-7 20-21m361-104c58-21 95-50 124-99 48-82 23-117-30-43-44 60-123 98-206 99-35 0-83-4-106-11-44-12-138-89-148-121-8-26-35-26-35 0 0 63 88 159 169 184 54 18 169 13 232-9m-611-94c0-42-85-201-107-201-15 0-17 68-7 169l7 61h53c53 0 54-1 54-29m-121-842c28-29 51-55 51-59 0-13-29-20-81-20h-49v34c0 44 11 96 20 96 4 0 30-23 59-51m1307-133c3-3 24-225 24-248v-28h-320v53c0 51 1 54 38 74 45 25 135 53 173 53 44 0 44 19 0 38-22 9-41 20-41 23 0 9 42 36 65 42 16 3 56-1 61-7m-1270-15c73-33 164-160 164-229v-32H430v30c0 38 19 221 25 238 6 18 74 14 121-7m492-317 52-7v-277H956c-91 0-167 4-170 9-4 5-3 68 0 140l7 130 61 4c120 7 162 7 214 1m431-10c3-3 8-66 9-140l4-134h-332v249l33-5c22-4 49 2 87 21 49 23 63 25 124 20 39-3 72-8 75-11m382-7c0-7 6-66 13-132s11-123 9-127c-2-5-76-8-163-8s-161 3-163 8c-3 4-8 66-12 139l-7 131 23 4c13 1 86 2 162 0 98-2 137-6 138-15M734 1323c-3-71-7-134-10-140-2-10-44-13-163-13-88 0-162 3-164 8-5 7 9 183 18 240l6 32h319zm-17-310c-4-58-7-121-7-140v-33H360v30c0 38 19 221 25 238 3 9 47 12 171 12h167zm403-33V840H770v94c0 51 3 114 6 140l7 46h337zm403 43c4-54 7-117 7-140v-43h-350v280h337zm404-23c6-63 12-125 12-137 1-23 1-23-173-23h-173l-7 61c-3 34-6 97-6 141v78l168-2 167-3zM697 698c-4-46-7-107-7-135v-53H330v28c0 15 5 75 12 135l11 107h350zm418-53V515l-184-3-184-2 7 76c3 42 6 103 6 136v58l178-2 177-3zm419 83c3-29 7-90 9-136l4-82-181 2-181 3-3 119c-1 66 0 126 2 133 4 10 44 13 175 13h170zm423-68c6-63 12-123 12-132 1-17-14-18-178-18h-178l-6 83c-4 45-7 106-7 135v52l173-2 172-3z"/><path d="M850 3824c0-177 3-224 13-218 6 4 28 20 47 35 19 14 68 49 108 77l74 51-39 24c-21 13-53 32-70 41l-33 17v199H850Z"/><path d="m1002 3968 3-82 75-44c105-62 234-148 308-205l62-49v462H999Z"/></svg>