<svg xmlns="http://www.w3.org/2000/svg" width="354.168" height="542.362" viewBox="0 0 3541.677 5423.621"><path d="M2544.912 5407c-3-10 1-35 8-56 48-139 35-833-19-1087-17-77-82-299-103-349-14-33-13-39 15-110 29-74 49-161 70-307 6-39 17-86 25-106 10-22 18-103 25-227 11-207 8-234-38-280-17-17-33-21-84-21-96 1-134 13-183 61-35 34-44 50-44 76 0 19-9 68-19 111-11 42-24 129-31 192-6 63-16 160-22 215-7 59-12 235-11 433 1 182 0 332-3 332-2 0-11-26-20-57-9-32-24-72-34-90-10-17-28-91-40-165-43-269-48-569-14-817 20-147 19-260-2-268-9-3-56 1-103 10s-146 18-220 21c-102 4-138 9-151 21-30 28-42 144-43 445-2 245 1 294 16 350 27 99 36 454 13 532-10 36-16 97-17 170-2 126-4 121-38-87-26-152-59-300-112-490-39-141-42-161-49-335-8-190-18-339-25-376-3-11-16-37-29-57-14-20-32-59-40-86-28-95-22-91-151-91-108 0-115 1-129 23-37 56-51 216-61 662-7 288-10 334-26 370-10 22-19 60-19 85-1 39-5 31-25-58-13-56-27-107-31-114s-11-30-15-53c-4-22-21-76-38-120s-31-99-31-123c0-23-7-88-16-145-11-68-17-174-18-319l-1-216-135-21c-74-12-170-21-213-21-75 0-244-15-297-26-24-6-24-6 10-21q34.5-15 198-24c90-4 187-13 215-18 29-6 99-15 156-20 129-12 136-17 162-137 10-49 29-118 41-154 20-61 21-76 14-282-4-119-13-250-21-290-7-40-19-111-25-157-19-138-52-191-120-191-12 0-31-5-43-12-43-22-145-119-151-143-4-17 3-44 24-86 17-33 40-101 50-150 23-104 26-112 50-106 9 2 25 0 34-5 12-7 31-2 69 17 107 56 202 156 216 227 5 24 16 79 25 123s23 135 31 201c8 67 19 134 25 148 6 17 10 166 10 387 0 339-1 363-22 432-11 39-23 96-26 126l-4 54 120-5c91-3 126-8 146-21 30-20 86-133 86-175 0-16 7-49 16-73 16-45 36-144 79-380 13-74 35-182 49-240 39-166 46-245 46-517 0-311-23-483-85-639-14-34-25-79-25-101 0-31-9-52-36-88-38-49-57-98-49-124 3-8 9-42 14-75 13-88 58-206 90-240 16-16 32-41 36-54l8-25 29 35c16 19 42 62 58 96 28 61 29 63 13 108-28 85-3 352 48 510l32 100 1 270c1 408-13 596-71 960-16 101-36 551-26 593 8 35 33 42 150 42 106 0 344-25 372-39 22-11 52-108 61-196 20-195 10-563-22-805-6-47-14-110-17-140-7-60-44-134-93-187-29-30-30-35-26-100 3-62 9-77 53-148 27-44 66-100 88-125 21-25 46-58 54-75 18-34 53-75 65-75 16 0 8 169-13 266-26 123-30 296-7 369 8 28 30 100 48 160l32 110 1 370c1 204-2 413-7 466l-8 96 48 23c64 32 152 33 217 3l47-22v-93c0-96-18-213-46-306-9-29-13-59-10-67 7-20-7-57-54-135-28-48-40-78-42-115l-3-50 150 2c136 2 172 6 393 51 235 48 244 51 320 97 62 38 89 63 139 129 79 104 107 161 127 263 14 72 14 88 2 120-8 21-17 56-20 77-6 44-29 72-101 124-27 19-63 47-80 62-16 15-52 39-78 54-53 30-52 30-372 11-67-5-84-2-103 13-23 18-23 21-27 263-4 190-8 256-21 290-8 24-20 84-25 134-6 49-17 105-25 125-28 65-29 150-4 252 12 51 32 116 43 143 20 48 21 65 19 440-2 215-7 415-11 445-12 77-96 307-125 341-13 16-27 42-31 59-7 33-21 40-27 13m587-2719c143-15 227-132 210-291-6-61-7-63-79-130-81-76-203-149-286-170-155-38-280-53-280-32 0 5 11 79 24 162 14 84 28 214 31 289 7 129 8 138 31 153 13 8 44 15 69 15s45 5 45 10c0 10 108 7 235-6"/></svg>