<svg xmlns="http://www.w3.org/2000/svg" width="583.263" height="1106.811" viewBox="0 0 5832.631 11068.107"><path d="M2948.302 10970.106c-2-95-3-98-28-107-172-66-277-124-282-158-3-21 0-20 70 18 76 41 198 90 223 90 13 0 15-42 14-307-1-170-5-420-8-557l-6-249-40-13c-168-57-182-64-178-89l5-23 44 19c48 20 164 52 170 47 4-5-13-808-22-1006-6-128-10-155-23-159-145-49-337-143-421-205-44-33-15-25 75 18 98 48 318 134 342 134 14 0 15-18 9-142-29-623-56-881-96-930-44-55-73 21-96 256-9 89-19 170-23 181-5 11-11-27-15-92-15-254-72-463-126-463-36 0-78 87-96 198-4 23-8 41-10 39s-8-35-13-73c-15-106-31-170-46-190-12-18-15-15-35 31-12 28-33 80-46 117-13 36-31 83-40 103-14 36-16 36-34 20-19-17-18-18 1-67 11-28 39-87 62-132 35-69 42-92 45-153 3-52 8-73 18-73 8 0 14 15 16 43l3 42h1360l-677-2-678-3v-790h1410v781l-22 9-23 9h23c12 1 25-6 28-14 12-29 31-15 37 28 4 23 23 76 43 117 55 113 55 116 34 135-17 15-19 14-35-32-50-135-68-160-79-105-14 69-28 168-41 296-13 131-25 186-25 118 0-17-7-80-16-139-22-154-54-192-94-114-21 42-70 270-70 327 0 31-3 35-20 29-24-8-26 2-3 27 15 17 15 32-1 221-9 111-20 223-23 250-7 56-5 57 82 18 92-42 84-15-12 39-43 24-79 44-81 45-1 1-11 132-22 291s-28 419-40 578c-11 159-20 295-20 302 0 21 18 17 88-16 61-29 79-25 50 12-15 17-114 78-128 78s-18 27-28 180l-9 135-1-147c-1-82-5-148-8-148-4 0-49 14-101 30-73 23-111 30-177 30h-83l-7 183c-4 100-11 295-16 432-5 138-10 307-10 377v127l46 7c25 3 68 4 95 1 47-6 49-5 49 18 0 32-29 39-126 32l-73-5-4 91-3 92zm228-1317c29-6 84-19 123-31l69-21-6-296c-8-353-26-834-32-843-2-4-43 4-91 17-49 13-107 24-130 24-36 0-43 3-47 23-11 53-56 918-56 1070v67h59c32 0 82-5 111-10m80-1228 65-17 3-40c8-93-43-487-71-545-19-40-52-38-81 7-41 64-63 177-86 443-6 69-13 138-16 154l-6 29 63-7c35-3 93-14 129-24m-218-879c35-41 68-196 68-320v-43h-170v73c0 95 18 244 32 271 21 39 46 46 70 19m364-238c7-19 14-55 14-80v-45h-93l6 66c9 98 44 126 73 59"/><path d="M3001.302 7203.106c-14-6-4-9 38-9 32-1 57 3 57 9 0 12-67 12-95 0m335 0c0-5 16-10 35-10s35 5 35 10c0 6-16 10-35 10s-35-4-35-10m-1062-300-27-38 26-7c33-8 35-5 31 43l-3 39zm-14-114c-63-44-652-300-879-381-71-26-138-54-147-62-27-24-21-69 22-168 21-49 76-201 121-337 45-137 86-248 91-248s43 13 86 30c101 39 232 116 232 136 0 9-13 62-29 118-47 163-47 163-13 170 42 10 134 73 242 167 52 45 131 109 175 142 44 32 95 70 113 84l32 25v169c0 179-2 186-46 155m1576-161v-174l78-52c113-77 187-135 278-219 72-67 188-140 222-140 16 0 17 2-24-148-20-73-34-138-31-145 7-17 103-73 194-112 136-58 122-64 167 72 21 65 75 217 119 338s82 237 84 258c5 36 4 38-38 56-82 35-95 35-110 0-17-41-57-89-75-89s-18 6 5 54c37 78 34 86-43 118-38 15-75 28-81 28-7 0-15-17-19-38-7-44-32-81-78-113-24-18-51-24-127-29-53-4-106-11-118-15-31-10-30 15 1 44 22 21 27 21 64 10 85-25 202 41 202 115 0 40-33 86-61 86-12 0-34-13-50-30-23-23-28-35-23-55 7-28-7-33-26-10-15 18-6 78 15 95 23 19 19 26-35 48-37 15-52 18-54 9-18-63-42-111-62-124-35-23-40-10-15 42 11 24 21 55 21 68 0 20-7 24-55 33l-55 10-6-33c-5-26-15-38-45-53-20-11-40-24-44-30-3-5-10-10-16-10-18 0-8 26 26 69 44 55 44 72 2 94-35 19-97 74-134 120-13 15-30 27-38 27-13 0-15-26-15-175m-1360-365c0-32 21-119 30-125 5-3 64 2 132 12 174 24 691 25 865 0 67-9 125-17 130-17 9 0 33 99 33 133 0 16-43 17-595 17-583 0-595 0-595-20"/><path d="M2293.302 6110.106c-90-135-252-286-413-386-79-49-250-135-370-185-365-153-639-420-782-761-62-147-85-190-104-193-28-5-42 59-35 167s29 198 77 316c103 252 124 376 70 405-29 15-80-9-118-58-172-216-219-672-126-1202 14-80 39-199 54-265 83-349 115-597 108-822-5-163-16-196-65-201-29-3-36 2-63 44-63 99-100 247-120 474-14 171-36 267-62 281-44 23-66-40-75-206-12-254 59-572 202-899 210-481 571-924 974-1195 123-83 163-135 129-169-16-16-88-15-168 3-93 20-136 19-160-5-17-17-18-24-10-41 30-55 131-83 365-100 187-14 228-26 223-65-7-60-102-93-290-101-144-6-268 6-438 44-208 46-327 48-385 6-57-42-21-104 90-154 153-69 306-94 580-94 236 1 346 14 584 71 227 54 356 75 496 81 156 6 208-6 213-48 6-52-62-84-302-144-165-40-264-80-289-115-68-97 222-102 504-9 52 17 186 76 299 131 328 160 478 213 637 225 79 6 82 5 108-21 23-23 26-33 22-63-4-20-22-60-41-89-37-55-28-50-248-153-83-39-102-66-67-94 58-47 205 2 337 113 77 64 119 87 134 72 31-31-54-124-200-219-105-69-200-113-332-153-58-18-141-43-184-56-171-53-301-132-326-200-17-45 0-61 80-74 101-17 304 37 500 132 185 90 329 197 495 369 151 157 214 245 335 469 97 181 187 308 290 410 133 133 243 195 285 160 36-30 3-198-59-305-15-25-50-76-78-113-95-125-148-247-148-336 1-85 60-102 132-38 52 45 62 58 109 133 81 130 158 343 215 594 104 463 261 881 421 1122 55 84 91 110 116 84 18-18 13-172-8-269-18-81-30-109-154-346-48-92-61-126-59-154 10-119 144-18 242 183 65 131 95 230 117 383 18 119 20 171 16 392-7 369-33 521-192 1135-60 228-68 274-73 375-4 104-2 117 16 139 19 24 20 25 46 8 16-11 45-55 74-115 33-68 55-101 75-112 26-14 29-14 43 4 31 42 4 170-62 298-30 57-63 98-151 184-111 109-133 141-133 189 0 54 99 37 177-30 54-46 91-107 147-240 75-179 144-272 217-290 71-18 78 86 13 209-20 39-60 105-87 146-57 85-236 273-342 360-162 133-391 268-624 371-337 148-399 180-540 277-152 105-306 265-356 369-25 52-35 47-19-9 25-85 51-136 103-207 98-131 197-214 547-454 249-171 395-306 502-464 160-235 242-565 229-913-9-245-54-417-156-599-162-287-252-556-208-615 32-43 63-2 122 162 76 209 151 341 189 329 28-9 38-80 32-237-15-414-118-760-310-1040-72-105-252-283-363-358-169-114-323-181-518-224-144-31-410-31-580 1-67 12-180 25-255 27-117 5-140 3-170-13-26-13-37-27-44-54-32-131 159-185 537-149 107 10 219 2 240-19 14-14-43-66-98-89-194-80-482-102-750-57-316 51-623 217-786 423-87 109-122 132-172 113-33-13-44-51-26-93 15-37 120-146 164-172 28-16 75-72 75-90 0-4-17-4-37 0-71 12-142 42-211 89-143 96-257 226-338 387-87 173-114 308-114 565 0 189-16 292-51 338-22 27-57 33-77 13-15-15-15-102 0-240 16-156-8-289-56-304-48-16-179 185-240 371-38 114-57 234-57 365 0 201 47 363 147 506 83 119 110 171 134 254 47 167 10 331-68 304-36-12-57-59-77-169-34-189-47-237-82-305-36-72-71-107-98-96-44 16-58 154-29 276 8 36 39 113 69 172 92 180 131 329 90 345-33 12-77-52-111-160-18-59-45-94-63-82-20 12-11 144 20 292 57 269 149 490 295 709 126 189 247 299 569 519 359 245 491 367 576 533 26 52 63 162 54 162-2 0-28-37-58-83m-1609-1744c18-34 22-117 9-173-24-105-67-60-67 71 0 94 33 151 58 102m4740-1208c4-93-11-171-45-238-19-38-28-48-46-45-63 9-33 269 40 351 34 37 48 18 51-68m-4676-502c41-44 146-210 188-298 69-145 107-309 77-334-24-19-52-5-112 54-164 164-283 463-235 589 13 36 40 32 82-11"/><path d="M2841.302 6103.106c-119-8-260-24-310-36-20-5-21-12-18-117 1-62 6-111 10-110 241 52 783 57 1036 9l67-13v91c0 50 3 101 6 112 7 26 1 28-161 48-154 19-464 27-630 16m-50-291c-98-10-252-37-274-49-11-6-66-189-58-196 1-1 44 4 95 11 284 43 734 45 991 6 74-11 136-19 138-17 3 2-5 35-16 72-11 38-22 81-25 95-5 24-14 29-73 43-38 8-102 20-143 26-100 15-522 21-635 9m10-255c-93-8-260-35-322-52l-63-18-112-164c-61-91-126-198-145-237l-34-73 20-37c10-21 33-80 51-132 41-121 51-271 26-404-17-90-64-233-97-299l-19-38h82c46 0 116-5 157-10 74-10 74-10 130 25 167 101 376 155 601 155 217 0 421-54 598-159 51-30 55-31 120-21 37 5 106 10 154 10h87l-33 73c-43 94-87 262-94 360-4 67-7 77-24 77-54 0-87-40-118-142-34-111-154-126-237-29-18 22-49 45-69 51-39 13-41 34-3 38 25 3 55-12 135-65 57-39 65-40 101-9 23 20 29 34 33 82 5 57 6 59 59 96 30 21 72 43 93 49 29 7 38 15 38 32 0 12 9 54 20 92s20 75 20 80c0 6-16 9-39 7s-51 3-72 13c-41 22-101 23-132 3-17-12-23-26-24-57-3-70-31-112-92-143-71-36-137-37-227-3-118 44-198 28-239-48-37-70-49-33-14 41 21 43 79 94 128 113 19 8 30 4 55-14 59-46 113-67 168-67 92 0 162 55 162 126 0 68-80 108-124 64-26-26-40-25-40 0 0 26 40 67 74 76 37 9 90-3 111-26 17-19 18-19 56 0 45 24 82 25 164 5 80-19 89-19 120 8l26 22-18 40c-10 22-29 59-41 83l-23 42-37-25c-57-39-162-30-162 15 0 9 9 11 30 7 66-14 120 36 104 97-10 42-49 66-109 66-129 0-212-110-159-212 11-20 12-34 6-40-7-7-56-9-129-6-94 4-129 9-170 28-30 12-53 29-53 37 0 11 6 13 23 9 38-12 134-19 160-12 42 10 83 52 102 103 37 100 103 152 193 153 23 0 42 4 42 8s-13 26-29 48c-24 31-42 44-88 58-117 37-155 23-208-77-34-64-73-107-97-107-23 0-23 15 2 40 10 10 27 45 36 77s25 68 36 79l19 21-43 7c-52 7-532 16-603 10"/><path d="M1825.302 5500.106c-20-12-91-62-158-111-111-81-122-92-117-115 3-14 25-116 50-226 52-229 106-545 136-785 11-91 28-186 36-212 29-90 103-115 169-56 82 71 159 215 202 374 22 82 26 122 27 229 1 156-11 201-114 429-62 139-160 393-176 459-9 38-15 39-55 14m2446 11c-76-221-130-362-185-483-102-223-115-273-115-430 1-102 6-149 24-220 40-154 124-312 206-383 73-65 149-32 174 75 6 26 18 109 26 183 23 200 78 513 140 791 30 136 55 249 55 252s-30 27-67 53c-38 26-99 71-138 100-90 67-114 79-120 62"/><path d="M4852.302 4864.106c-22-73-94-166-155-198-56-29-110-30-145-2-15 12-28 20-30 18-3-5-31-193-61-414-29-214-34-242-50-275-32-62-74-90-135-90q-84 0-162 90l-43 50h-131c-72 0-134-3-137-7-4-3 3-17 14-29l22-23-26-58c-14-32-30-78-36-103-14-58-13-204 0-255 24-91 28-81-51-105-40-12-97-27-127-33-62-13-61-2-19-142 20-68 29-83 58-101 47-30 108-103 115-136 3-16 9-28 13-28 21 0 145 212 220 377 55 120 80 157 80 117 0-31-72-218-121-315-90-175-206-325-360-462-97-87-178-141-320-213-111-57-116-59-194-59-75 0-86 3-177 47-298 143-557 403-712 715-47 95-106 252-106 284s20 22 37-18c63-155 224-450 255-469 4-3 14 10 21 29 18 41 72 104 111 128 24 15 37 37 63 111 18 51 32 100 33 108 0 11-16 19-52 27-29 6-86 21-126 33l-74 23 7 31c21 93 24 118 25 191 0 90-19 178-52 237l-22 38 23 24c30 32 20 34-128 37l-120 2-59-60c-66-67-112-88-174-80-84 11-136 101-153 262-9 97-53 409-66 473-11 56-14 59-43 37s-98-19-130 6l-26 20v-21c0-30 51-154 90-220 24-40 35-71 38-112 4-51 2-57-21-73-34-22-81-12-153 31-31 19-58 34-60 34-7 0 38-115 80-202 77-160 177-300 306-428 141-140 160-165 160-206 0-38-6-42-68-58l-45-12 84-56c85-57 196-162 266-253 77-99 160-267 261-530 35-90 43-102 78-121 21-12 50-25 63-29 24-7 24-7 17 44-4 28-3 51 1 51 22-1 37-23 42-62 7-49 28-64 106-75l47-6-7 41c-6 38-5 42 13 42 22 0 32-18 32-60 0-36 3-38 83-46l67-7v47c0 40 3 47 18 44 10-2 18-14 20-28 8-74 1-70 127-70s119-4 127 70c2 14 10 26 21 28 14 3 17-4 17-44v-47l67 7c80 8 83 10 83 46 0 41 10 60 31 60 17 0 18-5 13-42l-7-41 48 6c78 11 99 26 106 75 5 39 20 61 42 62 4 0 5-23 1-50l-7-51 53 20c29 11 58 25 63 30 6 6 26 50 46 98 71 172 155 297 267 396 48 43 114 125 114 141 0 3-17 6-38 6-43 0-62 14-62 44 0 35 32 76 160 206 197 199 378 435 532 694 73 122 77 131 63 150-9 12-25 41-36 65-27 55-21 97 27 200 61 130 75 179 81 292 7 133-5 166-31 80"/><path d="M2923.302 4206.106c-4-3-7-37-7-75 0-91-21-93-45-3-18 66-18 66-49 59-79-17-79-18-72-90 8-81-9-84-38-6-10 29-24 52-31 52s-29-7-50-16l-38-15 6-50c7-60-14-69-34-14-15 40-25 42-68 18-28-16-30-21-24-55 6-42-9-52-27-18-13 25-32 26-53 2-14-16-14-22 6-80 12-34 26-62 31-62s64 18 130 39c339 110 696 108 1049-6 60-19 110-33 111-31 11 13 36 93 36 112 0 12-9 31-19 40-19 17-20 17-36-8-25-38-39-33-32 12 6 34 4 39-24 55-42 24-52 21-69-15-25-53-42-48-34 10l6 51-38 16c-21 8-44 14-52 13-8-2-21-25-30-52-26-77-45-73-37 8 8 73 8 73-71 90l-31 7-18-65c-25-90-45-89-45 3 0 78-3 81-75 81-48 0-46 3-61-102-4-29-11-48-19-48s-15 19-19 48c-15 107-12 102-70 102-29 0-56-3-59-7"/><path d="M2821.302 3897.106c-113-15-254-53-332-89-52-24-53-25-53-68 0-24-5-81-11-127-14-101-15-100 110-129l86-21 18 21c25 30 22 36-22 44-45 7-84 33-63 41 6 3 12 15 13 27 1 39 34 150 46 154 8 3 10-19 6-77l-6-81 49 3 48 3 12 58c13 65 42 137 56 137 5 0 6-21 3-47-3-27-8-63-11-81-5-37-6-37 62 9 31 21 46 41 60 80 23 63 47 78 44 28-1-19-2-37-1-41s25 1 53 11c44 15 54 23 62 49 11 41 31 41 42 1 7-25 18-34 62-49l52-19v35c0 52 25 43 45-16 13-39 26-57 60-80 24-17 47-30 51-30s4 32 2 70c-8 110 22 84 52-45l17-70 48-3 48-3-6 80c-8 123 18 105 44-30 7-35 17-67 23-72 16-11-19-34-65-42-43-7-45-11-24-39 12-16 23-18 62-13 26 3 73 14 103 24 63 21 60 6 43 193l-8 95-81 32c-106 43-174 59-317 78-141 18-345 18-482-1m2805-161c0-25 68-369 90-460 34-135 49-168 75-168 66 0 50 273-27 445-24 54-74 137-102 168-19 21-36 29-36 15"/><path d="M2952.302 3674.106c-154-80-255-171-297-269-25-58-72-213-66-218 3-3 14 6 25 20 11 15 25 26 31 26 26 0 7-33-58-101-93-96-97-107-77-216 10-52 23-95 34-105 49-49 229-174 312-217 139-72 197-88 262-73 115 27 297 133 445 259 41 35 54 53 58 81 3 21 11 62 16 93 14 70 5 88-90 187q-99 102-60 102c6 0 22-14 36-30 14-17 27-29 29-27 7 6-44 173-67 222-44 93-181 214-310 275-105 49-112 49-223-9m3-514c7-178 6-375-1-383-4-4-39 7-78 25s-106 40-151 49c-79 15-80 16-74 41 23 97 74 135 170 128 33-3 68-8 78-12 17-7 18-1 11 93-5 73-3 110 6 132 23 56 35 35 39-73m467-153c35-17 74-81 74-122 0-24-41-49-125-75-56-18-193-42-199-36-7 7 21 165 34 188 30 57 142 80 216 45"/><path d="m2747.302 2948.106-35-16 21-20c11-11 38-23 60-26 33-4 44-1 66 20 23 21 25 26 12 37-23 19-87 22-124 5m540-18c-43-15-49-30-16-45 38-17 71-15 118 10l42 21-30 13c-37 16-70 16-114 1m1571 631c-37-41-56-118-29-118s87 90 87 130c0 18-36 11-58-12m-4856-383c-17-68 63-225 146-285 23-17 43-28 45-26s-5 23-15 47c-11 24-29 73-42 109-27 80-68 162-83 172-23 15-45 8-51-17m3633-72c30-38 52-107 48-153-2-19 3-25 18-25 16 0 21 8 23 42 4 52-25 112-71 147-47 36-53 32-18-11m-1168-10c-46-44-69-112-52-150 6-13 19-23 29-23 15 0 18 9 17 59 0 51 5 66 32 105 39 56 28 59-26 9m-930-182c-27-49-6-216 34-278 29-44 40-14 40 105-1 86-5 115-20 146-23 47-40 55-54 27m3357-182c-69-50-180-238-194-326-6-41-5-43 19-43 68 0 218 267 205 364l-3 25zm-2435-351c64-114 164-207 284-264 115-54 185-67 353-62 126 4 156 9 230 34 144 48 269 147 349 278 26 41 23 53-8 37-39-21-247-69-353-81-70-8-177-11-315-7-227 6-333 23-482 76l-81 28zm-1893-913c-12-14-11-21 5-51 50-93 260-212 290-164 17 28-106 170-178 204-58 27-100 31-117 11m4617-44c-9-26-38-86-63-132-97-174-137-308-101-337 46-38 154 150 192 336 14 68 12 182-4 182-3 0-14-22-24-49m-2912-1135c-202-34-347-141-238-177 118-39 480 56 507 134 7 19 6 31-3 40-17 17-168 19-266 3"/></svg>