<?xml version="1.0" encoding="UTF-8" standalone="no"?>
<svg
   id="Слой_1"
   data-name="Слой 1"
   viewBox="0 0 564 420.26"
   version="1.1"
   sodipodi:docname="insight.svg"
   width="564"
   height="420.26001"
   inkscape:version="1.4.2 (ebf0e940, 2025-05-08)"
   xmlns:inkscape="http://www.inkscape.org/namespaces/inkscape"
   xmlns:sodipodi="http://sodipodi.sourceforge.net/DTD/sodipodi-0.dtd"
   xmlns="http://www.w3.org/2000/svg"
   xmlns:svg="http://www.w3.org/2000/svg">
  <sodipodi:namedview
     id="namedview11"
     pagecolor="#ffffff"
     bordercolor="#000000"
     borderopacity="0.25"
     inkscape:showpageshadow="2"
     inkscape:pageopacity="0.0"
     inkscape:pagecheckerboard="0"
     inkscape:deskcolor="#d1d1d1"
     showgrid="false"
     inkscape:zoom="0.82250293"
     inkscape:cx="289.96857"
     inkscape:cy="210.3336"
     inkscape:window-width="1680"
     inkscape:window-height="925"
     inkscape:window-x="0"
     inkscape:window-y="25"
     inkscape:window-maximized="1"
     inkscape:current-layer="Слой_1" />
  <defs
     id="defs1">
    <style
       id="style1">.cls-1{fill:#fff;}</style>
  </defs>
  <path
     class="cls-1"
     d="M 0,0 H 564 V 420.26 H 0 Z m 554,192 c -2.6,-2.82 -4.91,-5.36 -7.25,-7.87 A 487.43,487.43 0 0 0 501,140.67 514.44,514.44 0 0 0 455.43,106.95 C 424.84,86.75 392.29,70.64 357.21,59.85 a 273.13,273.13 0 0 0 -90.94,-12 256.36,256.36 0 0 0 -67,11.68 C 164.45,70.43 132,86.37 101.4,106.37 A 497,497 0 0 0 44.45,149.72 512.48,512.48 0 0 0 3.38,190.45 c -1,1.07 -1.2,1.84 -0.12,3 4.36,4.67 8.56,9.48 13,14.1 a 465.1,465.1 0 0 0 52.24,46.82 478.86,478.86 0 0 0 52,35.16 c 30.57,17.82 62.74,31.77 97.28,39.94 a 258.16,258.16 0 0 0 101.53,3.64 c 30.35,-4.89 59.15,-14.67 86.79,-27.93 a 445.69,445.69 0 0 0 72.09,-43.81 483,483 0 0 0 61.08,-53.29 c 5,-5.19 9.73,-10.63 14.73,-16.11 z m -40.85,96.37 -0.49,-0.47 c -0.69,0.46 -1.39,0.88 -2,1.37 -9.85,7.25 -19.57,14.7 -29.57,21.73 a 662.86,662.86 0 0 1 -69.89,43.11 c -6.9,3.66 -14.3,6.37 -21.31,9.83 a 255.1,255.1 0 0 1 -46.68,17.72 249.81,249.81 0 0 1 -70.29,9 c -25.76,-0.46 -50.67,-5.52 -75.1,-13.42 -23.18,-7.49 -45,-18 -66.21,-29.8 -31.19,-17.43 -60.12,-38.24 -88.6,-59.69 a 17.5,17.5 0 0 0 -1.84,-1.05 2.16,2.16 0 0 0 0.57,1.67 c 2.84,3.1 5.63,6.25 8.56,9.27 a 442.59,442.59 0 0 0 54.62,47.62 c 30.53,22.56 63.69,40.11 100.08,51.33 a 249.59,249.59 0 0 0 80.91,11 238.14,238.14 0 0 0 48.06,-6.5 284.18,284.18 0 0 0 50.43,-17.33 c 17.55,-7.81 34.59,-16.55 50.44,-27.49 5.86,-4.05 11.94,-7.78 17.69,-12 5.38,-3.9 10.48,-8.18 15.66,-12.35 a 365.34,365.34 0 0 0 43.59,-41.55 20.5,20.5 0 0 0 1.37,-2 z m -36.75,3.33 -0.36,-0.44 c -0.57,0.33 -1.17,0.62 -1.72,1 -4,2.62 -7.82,5.39 -11.87,7.85 -25.9,15.66 -52.87,29 -81.86,38.06 -16.62,5.19 -33.34,9.76 -50.54,12.59 a 322.76,322.76 0 0 1 -39.93,4.21 300.21,300.21 0 0 1 -78.77,-7.27 324.65,324.65 0 0 1 -83.74,-32.13 c -12.56,-6.85 -24.33,-14.9 -36.19,-22.83 -0.59,-0.39 -1.25,-0.67 -1.87,-1 l -0.39,0.46 a 19.5,19.5 0 0 0 1.86,2.34 c 7.93,7.33 15.56,15 23.9,21.84 a 247.14,247.14 0 0 0 74.18,41.31 262.5,262.5 0 0 0 74,15 284.86,284.86 0 0 0 77.9,-6.78 c 18.83,-4.19 36.79,-10.9 54.47,-18.39 a 277.15,277.15 0 0 0 51.7,-29.35 189.25,189.25 0 0 0 28.41,-25.27 9.66,9.66 0 0 0 0.82,-1.16 z M 459.6,82.2 c 0.16,-0.2 0.31,-0.41 0.46,-0.62 A 269.6,269.6 0 0 0 399.22,41.31 C 350.66,17.65 299.56,8.21 245.77,14.51 A 273.65,273.65 0 0 0 164.3,37.43 c -23.76,10.76 -68.6,40.05 -70.64,46.56 0.85,-0.48 1.51,-0.82 2.14,-1.21 a 418.7,418.7 0 0 1 58.43,-30.64 c 41.85,-17.67 85.4,-26.76 130.94,-25.49 a 306.48,306.48 0 0 1 61.87,8 367.86,367.86 0 0 1 108.12,44.91 c 1.46,0.93 2.96,1.81 4.44,2.64 z"
     id="path1" />
  <path
     d="m 554,191.97 c -5,5.48 -9.74,10.92 -14.74,16.11 a 483,483 0 0 1 -61.07,53.29 445.69,445.69 0 0 1 -72.09,43.8 c -27.64,13.26 -56.44,23 -86.79,27.93 a 258.16,258.16 0 0 1 -101.53,-3.64 c -34.54,-8.17 -66.71,-22.12 -97.28,-39.94 a 478.86,478.86 0 0 1 -52,-35.15 465.1,465.1 0 0 1 -52.28,-46.8 c -4.4,-4.62 -8.6,-9.43 -13,-14.1 -1.08,-1.16 -0.85,-1.93 0.12,-3 a 512.48,512.48 0 0 1 41.07,-40.73 497,497 0 0 1 57,-43.35 c 30.56,-20 63,-35.95 97.94,-46.81 a 256.36,256.36 0 0 1 67,-11.68 273.13,273.13 0 0 1 90.94,12 c 35.08,10.79 67.63,26.9 98.22,47.1 a 514.44,514.44 0 0 1 45.49,33.67 487.43,487.43 0 0 1 45.74,43.43 c 2.36,2.51 4.67,5.05 7.26,7.87 z m -392.41,1.4 c 0.22,3.06 0.37,7.41 0.87,11.72 3.65,31.59 17.62,57.71 42.45,77.57 24.48,19.58 52.69,27.9 83.9,25.24 27.81,-2.37 51.67,-13.65 71.43,-33.4 A 117.11,117.11 0 0 0 392.9,172.9 c -3.29,-20.24 -11.73,-38.18 -24.32,-54.29 -3.18,-4.07 -6.75,-7.26 -12,-8.13 a 25.71,25.71 0 0 1 -2.83,-0.76 270.84,270.84 0 0 0 -87.49,-11.09 256.79,256.79 0 0 0 -69.77,12.51 12.23,12.23 0 0 0 -5.09,3.17 117.48,117.48 0 0 0 -9.66,11.61 c -14.03,19.83 -19.74,42.22 -20.15,67.45 z m -55.52,18.31 -0.48,0.15 a 8.3,8.3 0 0 1 -0.71,-1.31 126.72,126.72 0 0 1 -7,-31.74 c -0.53,-6.91 -0.44,-13.86 -0.55,-20.8 0,-2.44 -1.32,-3.49 -3.63,-2.68 a 17.32,17.32 0 0 0 -2.69,1.16 c -18,10.05 -35.95,20.1 -52.46,32.51 -2.68,2 -2.84,3.52 -0.47,5.92 a 466.37,466.37 0 0 0 45,39.89 c 19.69,15.4 40.38,29.3 62.61,40.76 10.77,5.55 21.88,10.45 32.85,15.62 1.65,0.78 3.18,0.27 3.28,-1.21 a 4.59,4.59 0 0 0 -1.15,-2.88 c -4.22,-5.15 -8.87,-10 -12.75,-15.34 a 134.62,134.62 0 0 1 -25.5,-71.49 131.48,131.48 0 0 1 10.46,-61.2 c 1.43,-3.32 3,-6.57 4.38,-9.47 l -2.87,-3.65 c -6.05,2.66 -12.25,5.43 -18.49,8.1 a 7.07,7.07 0 0 0 -4,4.53 150.63,150.63 0 0 0 -9.39,55 c 0,0.57 -0.09,1.13 -0.13,1.69 l -0.59,0.06 c -0.13,-0.7 -0.3,-1.38 -0.39,-2.08 a 149.55,149.55 0 0 1 1.49,-48.36 c 0.2,-1 0,-2.77 -0.59,-3.14 a 4.32,4.32 0 0 0 -3.39,0.23 c -3.57,1.6 -7,3.49 -10.55,5.14 a 5.68,5.68 0 0 0 -3.63,4.76 c -0.85,8.71 -2.08,17.42 -2.26,26.14 a 136.5,136.5 0 0 0 3.45,31.94 13.75,13.75 0 0 1 0.15,1.78 z m 316,-76.43 c -6.7,-2.85 -13.11,-5.64 -19.59,-8.26 a 4.1,4.1 0 0 0 -3.2,0.24 c -1.29,0.78 -0.57,2.05 -0.08,3.18 2.51,5.93 5.29,11.78 7.41,17.85 a 131.21,131.21 0 0 1 7,52 135.88,135.88 0 0 1 -18.38,60.62 148.4,148.4 0 0 1 -19.9,26.21 c -0.92,1 -1.91,2 -0.87,3.48 1.04,1.48 2.24,1 3.53,0.44 2.11,-0.95 4.24,-1.85 6.36,-2.78 a 397.81,397.81 0 0 0 85.1,-50.9 c 11.15,-8.7 21.89,-17.94 32.59,-27.2 5.72,-5 11,-10.45 16.39,-15.75 1.77,-1.74 1.54,-3.33 -0.46,-4.87 -0.61,-0.47 -1.19,-1 -1.82,-1.42 A 424.26,424.26 0 0 0 477.39,163.8 c -4.75,-2.66 -9.48,-5.4 -14.39,-7.76 -3.09,-1.49 -4.47,-0.24 -4.29,3.19 a 134.71,134.71 0 0 1 -7.95,52.25 6.26,6.26 0 0 1 -0.77,1.22 2.16,2.16 0 0 1 -0.25,-1.58 155,155 0 0 0 2.18,-56.23 c -0.54,-3.69 -1.75,-6.48 -5.37,-8 -3.28,-1.39 -6.4,-3.16 -9.69,-4.51 -2.7,-1.11 -4.48,0.24 -4,2.76 a 138.62,138.62 0 0 1 2.51,40.38 c -0.34,4.07 -0.94,8.12 -1.41,12.18 h -0.69 a 152.73,152.73 0 0 0 -9.75,-60.91 l -1.83,0.27 z"
     id="path2" />
  <path
     d="m 513.15,288.37 a 20.5,20.5 0 0 1 -1.37,1.94 365.34,365.34 0 0 1 -43.63,41.64 c -5.18,4.17 -10.28,8.45 -15.66,12.35 -5.75,4.19 -11.83,7.92 -17.69,12 -15.85,10.94 -32.89,19.68 -50.44,27.49 a 284.18,284.18 0 0 1 -50.43,17.33 238.14,238.14 0 0 1 -48.06,6.5 249.59,249.59 0 0 1 -80.91,-11 C 168.61,385.38 135.45,367.85 104.87,345.29 A 442.59,442.59 0 0 1 50.25,297.67 c -2.93,-3 -5.72,-6.17 -8.56,-9.27 a 2.16,2.16 0 0 1 -0.57,-1.67 17.5,17.5 0 0 1 1.88,1.02 c 28.48,21.45 57.41,42.26 88.6,59.69 21.19,11.84 43,22.31 66.21,29.8 24.43,7.9 49.34,13 75.1,13.42 a 249.81,249.81 0 0 0 70.29,-9 255.1,255.1 0 0 0 46.68,-17.72 c 7,-3.46 14.41,-6.17 21.31,-9.83 A 662.86,662.86 0 0 0 481,311.04 c 10,-7 19.72,-14.48 29.57,-21.73 0.66,-0.49 1.36,-0.91 2,-1.37 z"
     id="path3" />
  <path
     d="m 476.4,291.74 a 9.66,9.66 0 0 1 -0.82,1.16 189.25,189.25 0 0 1 -28.41,25.27 277.15,277.15 0 0 1 -51.7,29.35 c -17.68,7.49 -35.64,14.2 -54.47,18.39 a 284.86,284.86 0 0 1 -77.94,6.76 262.5,262.5 0 0 1 -74,-15 247.14,247.14 0 0 1 -74.14,-41.3 c -8.34,-6.82 -16,-14.51 -23.9,-21.84 a 19.5,19.5 0 0 1 -1.86,-2.34 l 0.39,-0.46 c 0.62,0.33 1.28,0.61 1.87,1 11.86,7.93 23.63,16 36.19,22.83 a 324.65,324.65 0 0 0 83.74,32.13 300.21,300.21 0 0 0 78.77,7.27 322.76,322.76 0 0 0 39.93,-4.21 c 17.2,-2.83 33.92,-7.4 50.54,-12.59 29,-9.06 56,-22.4 81.86,-38.06 4.05,-2.46 7.91,-5.23 11.87,-7.85 0.55,-0.36 1.15,-0.65 1.72,-1 z"
     id="path4" />
  <path
     d="m 459.6,82.2 c -1.48,-0.86 -3,-1.71 -4.44,-2.61 A 367.86,367.86 0 0 0 347,34.68 a 306.48,306.48 0 0 0 -61.87,-8 C 239.59,25.41 196.04,34.5 154.19,52.17 A 418.7,418.7 0 0 0 95.76,82.81 c -0.63,0.39 -1.29,0.73 -2.14,1.21 2,-6.51 46.88,-35.8 70.64,-46.56 a 273.65,273.65 0 0 1 81.47,-22.92 c 53.79,-6.3 104.89,3.14 153.45,26.8 a 269.6,269.6 0 0 1 60.84,40.27 c -0.11,0.18 -0.26,0.39 -0.42,0.59 z"
     id="path5" />
  <path
     class="cls-1"
     d="m 161.59,193.37 c 0.44,-25.26 6.12,-47.65 20.14,-67.45 a 117.48,117.48 0 0 1 9.66,-11.55 12.23,12.23 0 0 1 5.09,-3.17 256.79,256.79 0 0 1 69.77,-12.51 270.84,270.84 0 0 1 87.49,11.09 25.71,25.71 0 0 0 2.83,0.76 c 5.26,0.87 8.83,4.06 12,8.13 12.59,16.11 21,34.05 24.32,54.29 a 117.11,117.11 0 0 1 -32.66,101.6 c -19.76,19.75 -43.62,31 -71.43,33.4 -31.21,2.66 -59.42,-5.66 -83.9,-25.24 -24.83,-19.86 -38.8,-46 -42.45,-77.57 -0.45,-4.34 -0.64,-8.69 -0.86,-11.78 z m 116.07,57.3 a 58.54,58.54 0 0 0 0.43,-117.07 c -32.95,0 -59,25.71 -59,58.31 -0.02,32.24 26.42,58.76 58.57,58.76 z m -94.86,-71.16 -0.72,-0.1 a 9.21,9.21 0 0 0 -0.4,1.69 c -0.34,6.35 -1.19,12.74 -0.86,19.07 1.51,29.74 13.43,54.67 35.81,74.38 19.06,16.79 41.53,24.06 66.75,22.24 30.56,-2.2 55.05,-15.76 72.64,-40.94 14.84,-21.25 20.51,-45 17.9,-70.78 -0.06,-0.63 -0.24,-1.24 -0.36,-1.86 l -0.61,0.08 c 0,0.57 0,1.15 0,1.72 0,3.5 0.23,7 0.09,10.5 a 97.12,97.12 0 0 1 -10.57,41 c -9.2,17.9 -22.39,32.1 -40,42 -16.4,9.29 -34.08,13.35 -52.82,11.46 -27.5,-2.77 -49.9,-15.21 -66.63,-37.27 -15.7,-20.67 -22.46,-44.1 -20.44,-70 0.12,-1.02 0.16,-2.11 0.22,-3.19 z m 17.55,21.34 c -0.46,0.65 -0.6,0.75 -0.6,0.86 a 10.3,10.3 0 0 0 0,1.47 c 1.72,17.91 8.3,33.73 20.43,47.14 a 80.18,80.18 0 0 0 22,16.95 c 14.71,7.83 30.23,10.9 46.75,8.16 19.18,-3.18 35,-12.4 47.58,-27.07 a 78.07,78.07 0 0 0 18.74,-42.63 22.1,22.1 0 0 0 0,-2.7 l -0.57,-0.15 c -3.26,19.39 -11.72,35.94 -26.47,49 -15,13.27 -32.57,19.55 -52.42,19.24 A 71.82,71.82 0 0 1 236,258.68 c -20.38,-13.79 -32,-33.12 -35.65,-57.83 z"
     id="path6" />
  <path
     class="cls-1"
     d="m 106.07,211.71 a 13.75,13.75 0 0 0 -0.15,-1.71 136.5,136.5 0 0 1 -3.45,-31.94 c 0.18,-8.72 1.41,-17.43 2.26,-26.14 a 5.68,5.68 0 0 1 3.63,-4.76 c 3.55,-1.65 7,-3.54 10.55,-5.14 a 4.32,4.32 0 0 1 3.39,-0.23 c 0.62,0.37 0.79,2.12 0.59,3.14 a 149.55,149.55 0 0 0 -1.49,48.36 c 0.09,0.7 0.26,1.38 0.39,2.08 l 0.59,-0.06 c 0,-0.56 0.14,-1.12 0.13,-1.69 a 150.63,150.63 0 0 1 9.39,-55 7.07,7.07 0 0 1 4,-4.53 c 6.24,-2.67 12.44,-5.44 18.49,-8.1 l 2.87,3.65 c -1.35,2.9 -2.95,6.15 -4.38,9.47 a 131.48,131.48 0 0 0 -10.46,61.2 134.62,134.62 0 0 0 25.5,71.49 c 3.88,5.38 8.53,10.19 12.75,15.34 a 4.59,4.59 0 0 1 1.15,2.88 c -0.1,1.48 -1.63,2 -3.28,1.21 -11,-5.17 -22.08,-10.07 -32.85,-15.62 -22.23,-11.46 -42.92,-25.36 -62.61,-40.76 a 466.37,466.37 0 0 1 -45,-39.89 c -2.37,-2.4 -2.21,-3.9 0.47,-5.92 C 55.05,176.59 73,166.54 91,156.49 a 17.32,17.32 0 0 1 2.69,-1.16 c 2.31,-0.81 3.59,0.24 3.63,2.68 0.11,6.94 0,13.89 0.55,20.8 a 126.72,126.72 0 0 0 7,31.74 8.3,8.3 0 0 0 0.71,1.31 z"
     id="path7" />
  <path
     class="cls-1"
     d="m 422.11,135.28 -0.38,1.77 1.83,-0.27 a 152.73,152.73 0 0 1 9.75,60.91 H 434 c 0.47,-4.06 1.07,-8.11 1.41,-12.18 a 138.62,138.62 0 0 0 -2.51,-40.38 c -0.53,-2.52 1.25,-3.87 4,-2.76 3.29,1.35 6.41,3.12 9.69,4.51 3.62,1.53 4.83,4.32 5.37,8 a 155,155 0 0 1 -2.18,56.23 2.16,2.16 0 0 0 0.25,1.58 6.26,6.26 0 0 0 0.77,-1.22 134.71,134.71 0 0 0 7.95,-52.25 c -0.18,-3.43 1.2,-4.68 4.29,-3.19 4.91,2.36 9.64,5.1 14.39,7.76 a 424.26,424.26 0 0 1 38.76,24.29 c 0.63,0.45 1.21,0.95 1.82,1.42 2,1.54 2.23,3.13 0.46,4.87 -5.41,5.3 -10.67,10.79 -16.39,15.75 -10.7,9.26 -21.44,18.5 -32.59,27.2 a 397.81,397.81 0 0 1 -85.1,50.9 c -2.12,0.93 -4.25,1.83 -6.36,2.78 -1.29,0.58 -2.52,1 -3.53,-0.44 -1.01,-1.44 -0.05,-2.5 0.87,-3.48 a 148.4,148.4 0 0 0 19.9,-26.21 135.88,135.88 0 0 0 18.38,-60.62 131.21,131.21 0 0 0 -7,-52 c -2.12,-6.07 -4.9,-11.92 -7.41,-17.85 -0.49,-1.13 -1.21,-2.4 0.08,-3.18 a 4.1,4.1 0 0 1 3.2,-0.24 c 6.48,2.66 12.89,5.45 19.59,8.3 z"
     id="path8" />
  <path
     d="m 277.66,250.67 c -32.15,0 -58.59,-26.52 -58.57,-58.76 0,-32.6 26,-58.33 59,-58.31 a 58.54,58.54 0 0 1 -0.43,117.07 z"
     id="path9" />
  <path
     d="m 182.8,179.51 c -0.06,1.08 -0.1,2.17 -0.18,3.25 -2,25.91 4.74,49.34 20.44,70 16.73,22.06 39.13,34.5 66.63,37.27 18.74,1.89 36.42,-2.17 52.82,-11.46 17.57,-9.95 30.76,-24.15 40,-42 a 97.12,97.12 0 0 0 10.57,-41 c 0.14,-3.49 -0.05,-7 -0.09,-10.5 0,-0.57 0,-1.15 0,-1.72 l 0.61,-0.08 c 0.12,0.62 0.3,1.23 0.36,1.86 2.61,25.76 -3.06,49.53 -17.9,70.78 -17.59,25.18 -42.08,38.74 -72.64,40.94 -25.22,1.82 -47.69,-5.45 -66.75,-22.24 -22.38,-19.71 -34.3,-44.64 -35.81,-74.38 -0.33,-6.33 0.52,-12.72 0.86,-19.07 a 9.21,9.21 0 0 1 0.4,-1.69 z"
     id="path10" />
  <path
     d="m 200.35,200.85 c 3.65,24.71 15.27,44 35.68,57.83 a 71.82,71.82 0 0 0 39.8,12.46 c 19.85,0.31 37.46,-6 52.42,-19.24 14.75,-13.08 23.21,-29.63 26.47,-49 l 0.57,0.15 a 22.1,22.1 0 0 1 0,2.7 78.07,78.07 0 0 1 -18.75,42.62 c -12.63,14.67 -28.4,23.89 -47.58,27.07 -16.52,2.74 -32,-0.33 -46.75,-8.16 a 80.18,80.18 0 0 1 -22,-16.95 C 208.08,236.92 201.5,221.1 199.78,203.19 a 10.3,10.3 0 0 1 0,-1.47 c -0.03,-0.12 0.11,-0.22 0.57,-0.87 z"
     id="path11" />
</svg>
