<svg xmlns="http://www.w3.org/2000/svg" width="353.302" height="519.406" viewBox="0 0 3533.022 5194.058"><path d="M2917 5140.805c-38-81-48-181-52-528-2-167-9-339-16-383-11-77-15-85-74-164-97-126-252-271-450-420-99-74-254-203-345-287-105-97-183-161-215-176-64-30-128-31-175-3-62 38-293 220-360 284-36 34-137 111-225 170-266 179-429 325-484 434-73 144-194 587-217 791-15 141-24 81-40-256-7-168-1-250 37-475 10-63 26-138 34-165 9-27 40-159 69-294 30-135 80-326 111-425s81-256 110-350c29-93 68-206 87-250s43-110 52-146c21-78 17-91-61-179-27-30-71-86-98-125-27-38-78-106-113-150-83-103-334-484-397-600-52-99-95-213-95-256 0-47 10-59 47-59 51 0 203 36 323 76 58 19 164 53 235 74 72 21 159 50 195 63 36 14 92 30 125 37 33 6 97 22 141 36 45 13 88 24 97 24 13 0 50-85 90-210 8-25 31-90 51-144 20-55 45-133 57-174 11-41 52-151 90-244 38-94 85-227 104-296 70-247 115-357 152-367 14-3 26-5 27-3 15 25 27 70 32 125 8 94 30 210 49 263 9 25 31 99 50 165 108 388 200 646 306 857 32 64 46 81 79 98 67 34 161 23 310-37 198-80 575-170 750-180 65-4 85 0 150 26 41 16 74 33 73 38-3 15-176 267-257 373-43 58-107 134-140 170-34 36-105 118-159 182-62 76-136 150-207 208-64 53-112 101-116 115-8 32 14 131 41 185 12 25 32 79 44 120 13 41 44 127 70 190 107 255 143 397 196 775 32 225 46 397 52 640 7 323-10 514-66 728-21 81-40 150-43 152-2 3-16-21-31-53m8-1269c-7-196-33-324-114-583-22-69-49-159-61-200s-33-97-46-125c-33-71-81-195-116-300-34-103-49-125-90-125-50 0-94 26-190 113-51 46-100 86-108 89-8 2-81 65-162 139-136 125-147 137-147 171-1 32 4 39 37 59 63 39 392 278 486 353 118 95 250 245 327 372 83 137 144 214 170 214 21 0 21-2 14-177m-2257-142c62-72 144-156 184-187 40-32 107-89 149-128 198-186 231-212 349-268 133-64 155-83 145-128-10-44-108-141-180-178-63-32-158-119-283-260-68-75-77-82-111-82h-38l-66 198c-36 108-80 249-97 312s-54 188-81 277c-85 279-135 573-96 573 8 0 64-58 125-129m1098-820c88-42 214-142 214-171 0-14-27-18-187-28-104-6-217-18-253-26s-100-16-144-18c-64-2-81 0-89 13-19 30 23 69 252 241 53 40 103 37 207-11m209-326c127-10 193-33 260-89 33-28 71-58 83-66 16-10 25-28 29-55l5-40-63-30c-35-17-84-49-109-72-42-38-185-113-216-113-11 0-14 21-14 93 0 146-14 201-71 284-61 89-63 107-11 99 20-3 69-8 107-11m-248-23c23-15 51-121 72-275 21-148 21-162 6-206-14-42-22-51-68-75-29-14-66-26-83-26-45 0-96 65-125 160-19 63-21 87-16 172 5 80 11 108 32 146 31 57 54 85 80 100 23 13 84 16 102 4m-207-17c0-8-13-36-29-62-57-93-74-150-68-233 3-41 13-95 22-120 15-44 12-100-6-100-30 0-214 125-294 200-49 47-105 96-122 108-18 13-33 31-33 41 0 33 174 100 410 157 116 27 120 28 120 9m1104-289c200-245 322-388 354-413 22-18 96-103 166-189 139-174 152-203 96-223-41-14-250 24-399 73-149 48-214 68-388 117-84 23-153 46-153 51 0 14 247 523 287 591 7 11 25 8 37-7m-1739-93c40-110 85-207 133-286 23-37 42-69 42-72s14-33 30-67c45-92 42-102-37-142-187-93-815-336-871-336-45 0 74 272 180 411 35 46 100 131 143 189 44 57 104 129 135 160 31 30 86 92 124 138 37 45 74 82 81 82s25-35 40-77m1495 34c0-30-46-145-90-225-26-48-54-104-61-125-14-40-91-142-121-161-13-8-26-5-55 12-21 13-91 49-155 80-70 34-117 63-117 72-1 9 70 55 184 120 101 57 226 135 277 172 87 64 138 84 138 55m-1279-93c30-20 80-58 112-86 74-64 283-187 307-181 20 5 32-8 22-23-4-6-51-41-104-77-100-68-151-87-186-68-27 14-188 317-207 390-25 97-23 98 56 45m662-378c46-18 97-37 113-40 41-9 142-90 160-129 15-32 14-36-30-139-25-59-53-139-62-180-9-40-40-147-70-238-29-91-62-210-73-265-27-131-92-326-115-339-14-9-22-6-41 17-13 15-28 42-33 60-5 17-48 165-95 327-118 405-168 596-174 656-4 44-1 58 22 92 14 22 52 57 83 78s83 59 115 86c71 58 87 60 200 14"/></svg>