<svg xmlns="http://www.w3.org/2000/svg" width="614.262" height="540.395" viewBox="0 0 6142.62 5403.953"><path d="M4736 5398.9c-9-14-66-41-87-41-10 0-21-4-24-10-4-6-78-10-190-10s-186-4-190-10c-3-5-21-10-40-10s-37-4-40-10c-3-5-17-10-30-10s-27-4-30-10c-3-5-26-10-50-10s-47-4-50-10c-4-6-111-10-289-10-236 0-286-2-296-15-14-16-108-65-127-65-7 0-28-9-48-20s-51-20-69-20c-19 0-60-13-91-30-31-16-65-30-74-30-10 0-26-9-36-20s-28-20-41-20-26-4-29-10c-3-5-21-10-39-10-23 0-41-9-61-30-21-22-31-27-36-18-7 10-11 10-21 0-6-6-19-12-28-12-30 0-74-28-125-80-27-28-68-60-90-70s-58-37-80-60-67-54-100-70c-40-19-85-55-135-104-41-42-80-76-87-76s-13-6-13-13-31-44-70-82c-38-38-70-74-70-80s-27-37-60-70c-40-39-60-67-60-83 0-15-7-26-20-29-12-3-20-14-20-28 0-12-9-30-20-40-12-11-20-31-20-50 0-18-7-38-15-45-19-16-45-68-45-92 0-11-11-23-25-28s-29-20-34-32c-5-13-37-50-71-83-62-61-90-103-90-136 0-23-17-34-34-20-14 12-64-8-86-34-7-8-27-15-46-15-18 0-36-4-39-10-3-5-28-10-55-10s-52 5-55 10c-3 6-26 10-50 10s-47 5-50 10c-3 6-19 10-34 10-27 0-105 35-139 61-37 30-64 39-119 39-57 0-83 8-86 26-4 18-113-12-169-45-40-25-157-158-164-188-6-23 29-93 47-93 6 0 29-9 51-20 46-22 157-27 216-11 32 10 85-5 197-54 17-7 53-22 80-34 28-12 61-28 75-36s68-36 120-62 96-51 98-55 10-8 18-8 22-4 32-9c28-14 87-31 108-31 11 0 24-4 29-8 6-5 44-14 85-21s86-15 100-18c61-13 150-14 211-3 55 11 72 19 112 57 26 24 47 53 47 63 0 12 13 25 38 36 20 9 70 49 109 88 58 55 73 77 73 99 0 24 3 27 13 18 11-8 25-5 60 12 63 33 75 44 98 94 19 42 49 57 64 33 10-16 41-11 60 10 16 18 31 20 156 20 81 0 140-4 144-10 3-5 23-10 44-10 28 0 44 7 66 30 16 17 37 30 47 30 9 0 33 9 53 20s48 20 64 20c27 0 71 35 71 57 0 17 35 43 58 43 11 0 24 5 27 10 3 6 16 10 29 10s31 9 41 20 26 20 36 20 34 9 54 20 48 20 64 20c20 0 30 6 34 20 4 15 14 20 40 20s36 5 40 20c3 12 14 20 26 20s30 5 41 12c14 9 24 9 42 0 13-6 55-13 93-14 66-3 70-4 73-28 5-32 20-50 43-50 10 0 34-9 54-20s42-20 50-20c38 0 95-46 95-77 0-12 6-23 13-23 18 0 67-52 67-72s27-73 45-88c21-17 19-44-5-65-16-14-20-31-20-80s-4-66-20-80-20-31-20-81c0-35-4-66-10-69-5-3-10-19-10-36 0-16-4-38-10-49-5-11-14-29-20-40-5-11-10-28-10-38s-15-65-34-123c-19-57-42-135-51-174-9-38-28-89-41-112-18-30-25-64-30-127-4-48-11-89-16-92-4-3-8-19-8-36 0-18-4-45-9-62s-17-57-26-88c-13-46-22-60-47-72-17-9-42-16-55-16-27 0-66-24-126-77-20-18-40-33-45-33-4 0-24 15-44 33-37 32-37 32-27 82 24 121 30 154 38 220 6 39 15 88 20 110 14 54 14 65-4 65-8 0-15-7-15-15 0-9-8-19-17-22-10-4-21-11-25-17-6-8-11-6-17 4-8 12-13 12-30-4-12-11-21-26-21-35s-9-41-20-71-20-72-20-94c0-61-31-146-67-184-21-22-30-39-24-46 11-14-14-138-38-185-19-39-59-110-70-126-4-5-14-30-21-55-8-25-20-51-28-59-7-7-10-22-6-33 5-17 2-19-27-16-35 3-59 35-72 93-4 17-9 39-12 50-2 11-18 47-33 80-16 33-32 71-35 85-4 14-18 37-32 53-30 31-28 34 45 83 57 38 94 54 125 54 14 0 25 5 25 10 0 6-4 10-10 10-5 0-10 7-10 15 0 33-125-12-171-61-23-25-73-33-84-14-4 6-16 8-27 4-14-4-19-2-16 7 2 7-9 24-25 38l-30 25 7 130c4 72 9 177 12 234l6 102h-24c-30 0-48-17-48-45 0-12-6-30-14-41-14-18-15-18-35 7-24 30-89 60-117 53-11-2-25 0-33 5-13 8-13 20-3 83 23 135 24 150 14 160-7 7-17 6-31-1-19-11-21-20-21-103 0-114-13-154-55-168-41-14-77-53-104-115-24-57-21-52-78-133-24-34-43-66-43-71 0-17-32-13-46 7-16 20-18 58-4 67s12 57-3 76c-36 47-94 51-136 8-31-31-42-81-21-94 30-18-8-115-45-115-41 0-47 20-41 147 3 65 8 135 12 156 5 33 4 37-14 37-28 0-32-19-37-174-5-154-7-160-91-202-49-25-127-33-139-14-3 6-13 10-22 10-32 0-73 41-84 85-14 55-62 104-87 89-13-9-33-38-48-72-1-2-19 7-39 18-42 24-68 21-108-11-17-13-27-30-27-47 0-29 39-82 60-82 19 0 120-89 120-106 0-8 4-22 9-32 22-41 40-159 34-226-5-52-3-70 8-77 11-6 8-15-16-41-35-39-55-72-55-93 0-15-30-72-60-115-10-14-19-33-21-42-2-10-47-62-100-115-91-94-159-180-159-202 0-6-4-11-10-11-5 0-10-6-10-13 0-13-55-84-122-158-33-36-42-50-80-118-11-20-24-40-29-45-5-6-9-16-9-24 0-7-13-32-28-55-16-23-36-59-46-79-13-29-29-43-70-62-107-49-127-137-46-203 25-21 57-28 111-25 41 3 61 43 61 118 0 35 4 66 9 69 5 4 9 14 9 25 0 21 55 130 73 145 7 6 25 30 41 54 36 56 161 203 218 257 23 23 77 69 118 103s86 71 100 83 34 27 45 33c52 29 72 41 90 57 55 45 135 73 135 48 0-5 13-10 29-10 17 0 33-4 36-10 3-5 21-10 40-10s37-5 40-10c3-6 21-10 40-10 74 0 134-22 163-59 15-19 36-44 48-55 26-26 34-51 44-151 5-44 18-167 30-273 11-106 18-197 15-202s-1-11 5-15c12-8 13-109 1-133-5-9-18-36-30-58-11-23-21-50-20-60 1-33 34-78 72-98 33-18 38-18 69-3 60 28 81 59 82 122 0 31-4 59-10 63-5 4-20 21-32 39-21 30-22 40-22 257 0 124 3 226 8 226 10-1 72-84 72-98 0-21 114-133 199-197 47-36 91-69 98-75 7-5 16-10 21-10 4 0 17-8 28-18 27-25 216-117 294-142 36-12 84-30 107-41 24-10 47-19 53-19s18-4 28-9c29-14 87-31 110-31 11 0 24-4 27-10 3-5 21-10 40-10 18 0 35-6 37-12 4-10 48-14 164-16 87-2 170-4 184-4 14-1 39 0 55 1 17 1 47 0 68-3 23-3 62 3 95 15 31 10 83 19 114 19s60 5 63 10c3 6 17 10 31 10 13 0 24 5 24 10 0 6 6 10 13 10 6 0 23 9 37 20s35 20 46 20c25 0 112 44 178 89 25 17 47 31 51 31 3 0 15 8 26 18 10 11 32 25 47 33 15 7 56 30 91 51 34 21 65 38 67 38 3 0 37 21 77 48 40 26 85 54 102 62 55 27 194 171 221 228 13 29 24 55 24 59 0 3 16 23 35 45 20 21 38 52 42 68 3 17 9 30 14 30s9 5 9 10c0 18 58 128 99 190 9 14 22 36 28 50 5 14 24 54 42 89 17 35 31 70 31 77s8 28 18 46c21 39 56 149 73 233 7 33 16 64 21 70 4 5 8 16 8 25s15 34 33 56c18 21 43 55 54 74 12 20 33 46 47 59 14 14 26 30 26 36 0 7 9 20 20 30 12 11 20 31 20 50s8 39 20 50 20 31 20 51c0 18 5 36 10 39 6 3 10 53 10 113 0 91 3 111 20 132 11 14 20 33 20 42s5 20 10 23c6 3 10 18 10 33 1 15 14 42 30 62 17 19 30 42 30 52 0 9 5 20 10 23 6 3 10 19 10 35s5 32 10 35c6 3 10 14 10 24s9 26 20 36c12 11 20 31 20 50 0 17 5 36 11 42s10 49 10 101c0 50 4 94 9 97 6 3 10 19 10 35s5 41 10 56c6 15 15 79 19 142 5 63 14 119 20 125s11 23 11 38 12 58 26 95c40 105 54 218 43 347-9 107-22 151-53 176-12 10-16 32-16 86 0 78-13 116-55 155-21 20-25 32-25 81 0 53-2 59-35 86-23 19-54 67-94 148-33 66-66 127-73 136-20 23-137 111-190 142-27 15-48 34-48 41 0 8-7 16-15 20-8 3-15 16-15 29 0 16-9 28-26 36-15 7-24 17-21 25 7 18-37 58-90 80-29 13-40 23-36 33 7 19-14 33-51 33-16 0-38 8-49 18-14 12-38 17-92 18-81 2-102 9-85 29 8 9 3 15-20 25-16 7-39 10-50 7s-37-1-56 5c-29 8-35 13-31 30 5 16 2 19-15 15-19-5-27-3-73 20-34 17-83 25-89 14m-2152-2993c22-6 45-15 51-20 5-4 16-8 26-8 27 0 53-82 46-148-3-30-10-59-14-63-5-5-22 3-38 17-17 15-54 42-83 60-70 45-105 127-70 162 15 15 30 15 82 0m-134-17c0-10-5-32-11-50-11-31-22-34-86-31-18 1 0 47 28 73 34 32 69 36 69 8m1520-11c0-16-4-30-10-30-5 0-10 14-10 30 0 17 5 30 10 30 6 0 10-13 10-30m-1553-157c14-10 34-19 45-20 10-2 36-12 58-23s44-20 50-20 25-15 43-32c31-32 47-75 62-173 3-22 8-47 10-55 5-16-35-40-65-40-20 0-70 51-70 71 0 23-59 85-103 109-38 20-111 27-121 12-6-10-42-9-52 1-4 4-16 7-26 7-14 0-18 8-18 33 0 36 44 87 110 126 42 25 44 25 77 4m1108-305c23-20 36-78 18-78-19 0-53 46-53 72 0 34 3 34 35 6m-661-29c14-11 26-27 26-35s5-14 10-14c6 0 10-7 10-15 0-24-30-65-48-65-22 0-52 30-52 51 0 10-4 21-10 24-14 9-13 48 2 63 17 17 32 15 62-9m76-164c7-9 10-18 7-21-10-11-37 5-37 21 0 19 14 19 30 0m357-97c10-14 10-50-1-83-6-16-16-21-47-21-34-1-39 1-39 21s56 95 71 95c4 0 11-6 16-12m109-20c-3-7-9-21-12-30-8-24-44-23-44 0 0 10 5 23 12 30 16 16 51 16 44 0M0 3947.9c0-5 20-10 44-10 25 0 48-4 51-10 3-5 11-10 17-10 7 0 2 9-10 20-22 21-102 29-102 10"/><path d="M3175 2052.9c-25-11-27-15-13-20 11-4 28 1 44 14 30 23 15 26-31 6m80-5c3-5 12-10 20-10s17 5 20 10c4 6-5 10-20 10s-24-4-20-10m-25-40c0-5 7-10 15-10s15 5 15 10c0 6-7 10-15 10s-15-4-15-10"/></svg>