<svg xmlns="http://www.w3.org/2000/svg" viewBox="0 0 1115 956" width="1115" height="956"><path d="M557.734,954.325h-219.088c-3.81,0 -7.62,0 -12.383,0.953c-4.763,0.953 -8.571,0 -12.381,-1.905c-0.953,0 -1.907,-0.953 -3.813,-1.905v-8.573c0.953,-5.715 0.953,-11.431 1.905,-16.193c0,-4.763 0.955,-9.526 1.907,-16.193c1.905,-13.336 3.808,-25.719 5.713,-39.055c1.905,-13.336 3.813,-25.719 7.623,-39.055c1.905,-9.526 3.808,-20.004 5.713,-29.529c1.905,-9.525 3.81,-19.051 5.715,-27.624c1.905,-5.715 4.763,-12.383 6.668,-20.004c1.905,-7.621 3.81,-14.288 4.763,-20.004c1.905,-8.573 3.81,-17.146 5.715,-26.672c1.905,-9.526 1.905,-19.051 1.905,-30.482c0.953,-13.336 0.953,-27.624 0.953,-42.865c0,-15.241 -0.953,-29.529 -2.858,-42.865c-0.953,-13.336 -1.905,-25.719 -3.81,-36.197c-1.905,-10.478 -2.858,-20.956 -4.763,-30.482c-1.905,-11.431 -2.858,-20.956 -3.81,-28.577c-0.952,-7.621 -1.905,-15.241 -3.81,-21.909c-1.905,-12.383 -4.763,-25.719 -7.62,-40.007c-2.857,-14.288 -6.668,-27.624 -10.478,-39.055c-1.905,-1.905 -2.858,-3.81 -2.858,-6.668c0,-2.858 -0.953,-6.668 -2.858,-10.478l-3.81,-6.668h-4.763c0,1.905 0,2.858 -0.953,3.81c-0.953,0.952 -0.953,1.905 -0.953,3.81c-1.905,5.715 -2.858,11.431 -4.763,15.241c-1.905,3.81 -3.81,8.573 -4.763,12.383c-9.526,15.241 -19.051,32.387 -27.624,52.391c-8.573,20.004 -17.144,40.007 -25.717,59.059c-5.715,10.478 -12.386,21.909 -19.054,33.34c-6.668,11.431 -14.286,25.719 -21.908,40.96c-3.81,5.715 -7.621,12.383 -12.384,18.099c-3.81,5.715 -8.573,12.383 -12.383,20.004c-5.715,10.478 -12.383,20.004 -20.003,27.624c-7.62,7.62 -15.241,15.241 -23.814,21.909l-23.814,23.814c-7.62,7.62 -15.241,14.288 -23.814,20.956c-6.668,4.763 -13.336,9.526 -20.957,13.336c-6.668,4.763 -14.289,9.526 -21.909,15.241c-0.953,0.953 -2.857,0.953 -5.715,0.953c-1.905,0 -2.858,-1.905 -4.763,-4.763l-0.952,-1.905c-3.81,-9.526 -7.62,-18.099 -10.478,-26.672c-2.858,-8.573 -6.668,-18.099 -8.573,-29.529c-2.858,-11.431 -5.715,-22.861 -6.668,-33.34c-1.905,-11.431 -2.857,-23.814 -4.762,-39.055v-1.905c0.953,-1.905 0.952,-2.858 1.905,-3.81c0,-0.953 0.952,-2.858 2.857,-3.81c5.715,-4.763 10.479,-8.573 15.241,-13.336c4.763,-3.81 10.478,-8.573 15.24,-12.383c1.905,-1.905 3.811,-3.81 5.716,-6.668c1.905,-2.858 3.81,-5.715 5.715,-7.62c2.858,-3.81 5.715,-6.668 8.573,-9.526c2.858,-1.905 4.763,-4.763 7.62,-7.62c2.858,-3.81 5.716,-6.668 7.621,-9.526c1.905,-2.858 3.81,-5.715 6.668,-9.526c3.81,-5.715 7.62,-14.288 12.383,-23.814c4.763,-9.526 8.573,-18.099 12.384,-24.767c5.715,-12.383 12.383,-25.719 19.051,-40.007c6.668,-14.288 12.383,-27.624 19.051,-39.055c4.763,-12.383 9.526,-23.814 14.289,-34.292c4.763,-10.478 9.526,-20.004 14.289,-28.577c3.81,-6.668 6.668,-14.288 9.525,-22.861c2.857,-8.573 4.763,-16.193 6.668,-23.814c2.858,-11.431 6.668,-23.814 10.478,-37.15c3.81,-13.336 9.525,-25.719 15.24,-36.197c7.62,-14.288 15.241,-27.624 21.909,-39.055c5.715,-7.62 10.481,-14.288 16.196,-19.051c16.193,-17.146 34.29,-27.624 55.246,-32.387c12.383,-4.763 25.719,-6.668 40.96,-5.715c8.573,0.953 16.193,0.953 23.814,0c7.621,-0.953 15.241,-1.905 23.814,-3.81c18.099,-0.953 32.387,-3.81 43.818,-9.526c6.668,-2.858 14.288,-7.62 21.909,-12.383c7.62,-5.715 13.336,-12.383 18.099,-20.956c1.905,-2.858 2.86,-5.715 3.813,-8.573c0.953,-2.858 1.903,-5.715 1.903,-9.526c1.905,-13.336 3.81,-27.624 3.81,-41.913v-9.526c0,-6.668 3.81,-10.478 10.478,-10.478h125.738c3.81,0 6.67,2.858 7.623,9.526v10.478c0.953,4.763 0.95,9.526 0.95,13.336c0,4.763 0,9.526 0.953,15.241c0,9.526 1.905,20.004 5.715,29.529c2.858,8.573 8.573,15.241 17.146,21.909c8.573,5.715 16.193,10.478 23.814,13.336c11.431,5.715 25.719,8.573 43.818,9.526c8.573,1.905 16.193,2.858 22.861,2.858c6.668,0 14.288,0.953 22.861,0.953c18.099,-0.953 35.247,1.905 50.488,7.62c19.051,7.62 34.29,17.146 45.72,28.577c9.526,9.526 18.099,20.956 26.672,35.245c6.668,11.431 12.386,22.861 18.099,33.34c4.765,10.478 9.526,22.861 13.336,36.197c1.905,5.715 2.86,11.431 4.765,16.193c1.905,4.762 2.855,10.478 3.808,15.241c1.905,6.668 3.81,13.336 5.715,20.956c1.905,6.668 4.765,13.336 6.67,19.051c1.905,3.81 4.76,7.62 6.666,10.478c1.905,3.81 3.813,6.668 6.668,10.478c5.718,16.193 12.386,30.482 18.101,42.865c5.715,12.383 12.381,24.767 18.096,36.197c5.715,13.336 11.431,25.719 17.146,35.245c5.715,9.526 10.478,19.051 16.193,28.577c2.858,10.478 5.718,19.051 9.528,24.767c2.858,5.715 6.668,11.431 10.478,17.146c3.81,4.763 7.618,8.573 11.428,12.383c3.81,3.81 8.573,8.573 13.336,15.241c13.336,13.336 25.721,25.719 39.057,35.245c2.858,4.763 4.763,7.62 4.763,10.478c-1.905,20.956 -3.81,40.007 -7.62,58.106c-3.81,18.099 -8.575,35.245 -14.291,53.343c-1.905,3.81 -2.858,7.62 -4.763,12.383c-1.905,4.763 -3.81,8.573 -6.668,12.383c-0.953,0.953 -1.905,0.953 -4.763,0.953l-6.666,-3.81c-13.336,-8.573 -24.769,-17.146 -36.2,-24.767c-11.431,-7.621 -22.861,-18.099 -33.34,-28.577c-14.288,-13.336 -27.622,-25.719 -39.053,-38.102c-11.431,-12.383 -21.909,-27.624 -31.434,-46.675c-5.715,-7.62 -11.433,-15.241 -17.148,-23.814c-5.715,-8.573 -10.478,-19.051 -16.193,-32.387c-10.478,-17.146 -20.954,-37.15 -30.479,-59.059c-9.525,-21.909 -20.006,-43.818 -30.484,-65.727c-3.81,-6.668 -7.62,-13.336 -10.478,-20.956c-3.81,-6.668 -6.668,-13.336 -9.526,-19.051c-2.858,-5.715 -4.763,-11.431 -5.715,-18.099c-2.858,-4.763 -5.715,-3.81 -7.62,1.905c-0.953,1.905 -0.95,2.858 -1.903,2.858c0,0 -0.955,1.905 -0.955,3.81c-1.905,3.81 -2.858,6.668 -3.81,9.526c-0.952,2.858 -1.905,4.763 -1.905,7.62c-1.905,8.573 -4.763,17.146 -6.668,24.767c-1.905,8.573 -3.81,19.051 -5.715,32.387l-5.715,25.719c-1.905,8.573 -2.858,20.004 -4.763,32.387c-1.905,9.526 -2.855,20.004 -4.763,29.529c-1.903,9.526 -2.858,21.909 -3.81,36.197v9.526c0,2.858 0,5.715 -0.953,9.526c-1.905,10.478 -1.905,22.861 -1.905,35.245v35.245c0.953,10.478 1.905,20.956 2.858,32.387c0.953,10.478 2.858,20.004 6.668,28.577c4.763,19.051 8.573,37.15 13.336,55.248c3.81,18.099 7.62,36.197 10.478,54.296c3.81,13.336 6.668,26.672 8.573,40.96c1.905,14.288 3.81,27.624 4.763,41.913c0.953,3.81 0.955,7.62 1.907,11.431c0.952,3.811 0.95,7.62 0.95,12.383c0,3.81 -1.905,5.715 -4.763,5.715h-127.643z" /></svg>