<svg xmlns="http://www.w3.org/2000/svg" viewBox="0 0 1024 1024" width="1024" height="1024"><path d="M768,512c0,141.384 -114.616,256 -256,256c-141.384,0 -256,-114.616 -256,-256c0,-141.384 114.616,-256 256,-256c141.384,0 256,114.616 256,256zM672,512c0,-88.224 -71.776,-160 -160,-160v320c88.224,0 160,-71.776 160,-160zM512,832c35.346,0 64,28.654 64,64v64c0,35.346 -28.654,64 -64,64c-35.346,0 -64,-28.654 -64,-64v-64c0,-35.346 28.654,-64 64,-64zM512,192c-35.346,0 -64,-28.654 -64,-64v-64c0,-35.346 28.654,-64 64,-64c35.346,0 64,28.654 64,64v64c0,35.346 -28.654,64 -64,64zM960,448c35.346,0 64,28.654 64,64c0,35.346 -28.654,64 -64,64h-64c-35.346,0 -64,-28.654 -64,-64c0,-35.346 28.654,-64 64,-64zM192,512c0,35.346 -28.654,64 -64,64h-64c-35.346,0 -64,-28.654 -64,-64c0,-35.346 28.654,-64 64,-64h64c35.346,0 64,28.654 64,64zM828.784,738.274l45.256,45.256c24.992,24.992 24.992,65.516 0,90.51c-24.994,24.992 -65.518,24.992 -90.51,0l-45.256,-45.256c-24.992,-24.992 -24.992,-65.516 0,-90.51c24.994,-24.992 65.518,-24.992 90.51,0zM195.216,285.726l-45.256,-45.256c-24.994,-24.994 -24.994,-65.516 0,-90.51c24.994,-24.994 65.516,-24.994 90.51,0l45.256,45.256c24.994,24.994 24.994,65.516 0,90.51c-24.994,24.994 -65.516,24.994 -90.51,0zM828.784,285.726c-24.992,24.992 -65.516,24.992 -90.51,0c-24.992,-24.994 -24.992,-65.516 0,-90.51l45.256,-45.254c24.992,-24.994 65.516,-24.994 90.51,0c24.992,24.994 24.992,65.516 0,90.51zM195.216,738.274c24.992,-24.992 65.516,-24.992 90.508,0c24.994,24.994 24.994,65.518 0,90.51l-45.254,45.256c-24.994,24.992 -65.516,24.992 -90.51,0c-24.994,-24.994 -24.994,-65.518 0,-90.51z" /></svg>