<svg xmlns="http://www.w3.org/2000/svg" viewBox="0 0 1152 1024" width="1152" height="1024"><path d="M480,128c-50.666,0 -99.582,7.95 -145.386,23.628c-42.924,14.694 -81.114,35.436 -113.502,61.646c-60.044,48.59 -93.112,110.802 -93.112,175.174c0,35.99 10.066,70.948 29.92,103.898c20.686,34.34 51.898,65.794 90.26,90.958c30.44,19.968 50.936,51.952 56.362,87.95c0.902,5.99 1.63,12.006 2.18,18.032c2.722,-2.52 5.424,-5.114 8.114,-7.794c24.138,-24.04 56.688,-37.312 90.322,-37.312c5.348,0 10.718,0.336 16.094,1.018c19.36,2.452 39.124,3.696 58.748,3.696c50.666,0 99.58,-7.948 145.384,-23.628c42.926,-14.692 81.116,-35.434 113.504,-61.644c60.046,-48.59 93.112,-110.802 93.112,-175.174c0,-64.372 -33.066,-126.582 -93.112,-175.174c-32.388,-26.212 -70.578,-46.952 -113.504,-61.646c-45.804,-15.678 -94.718,-23.628 -145.384,-23.628zM480,0v0c265.096,0 480,173.914 480,388.448c0,214.534 -214.904,388.448 -480,388.448c-25.458,0 -50.446,-1.62 -74.834,-4.71c-103.106,102.694 -222.172,121.108 -341.166,123.814v-25.134c64.252,-31.354 116,-88.466 116,-153.734c0,-9.106 -0.712,-18.048 -2.03,-26.794c-108.558,-71.214 -177.97,-179.988 -177.97,-301.89c0,-214.534 214.904,-388.448 480,-388.448zM996,870.686c0,55.942 36.314,104.898 92,131.772v21.542c-103.126,-2.318 -197.786,-18.102 -287.142,-106.126c-21.14,2.65 -42.794,4.04 -64.858,4.04c-95.47,0 -183.408,-25.758 -253.614,-69.04c144.674,-0.506 281.26,-46.854 384.834,-130.672c52.208,-42.252 93.394,-91.826 122.414,-147.348c30.766,-58.866 46.366,-121.582 46.366,-186.406c0,-10.448 -0.45,-20.836 -1.258,-31.168c72.57,59.934 117.258,141.622 117.258,231.676c0,104.488 -60.158,197.722 -154.24,258.764c-1.142,7.496 -1.76,15.16 -1.76,22.966z" /></svg>