<svg xmlns="http://www.w3.org/2000/svg" viewBox="0 0 1152 1024" width="1152" height="1024"><path d="M480,0v0c265.096,0 480,173.914 480,388.448c0,214.534 -214.904,388.448 -480,388.448c-25.458,0 -50.446,-1.62 -74.834,-4.71c-103.106,102.694 -222.172,121.108 -341.166,123.814v-25.134c64.252,-31.354 116,-88.466 116,-153.734c0,-9.106 -0.712,-18.048 -2.03,-26.794c-108.558,-71.214 -177.97,-179.988 -177.97,-301.89c0,-214.534 214.904,-388.448 480,-388.448zM996,870.686c0,55.942 36.314,104.898 92,131.772v21.542c-103.126,-2.318 -197.786,-18.102 -287.142,-106.126c-21.14,2.65 -42.794,4.04 -64.858,4.04c-95.47,0 -183.408,-25.758 -253.614,-69.04c144.674,-0.506 281.26,-46.854 384.834,-130.672c52.208,-42.252 93.394,-91.826 122.414,-147.348c30.766,-58.866 46.366,-121.582 46.366,-186.406c0,-10.448 -0.45,-20.836 -1.258,-31.168c72.57,59.934 117.258,141.622 117.258,231.676c0,104.488 -60.158,197.722 -154.24,258.764c-1.142,7.496 -1.76,15.16 -1.76,22.966z" /></svg>