<svg xmlns="http://www.w3.org/2000/svg" viewBox="0 0 1024 1000" width="1024" height="1000"><path d="M830.63,576c-3.8,45.664 -15.506,88.812 -33.636,127.75h123.992l70.06,280.238l-62.09,15.524l-57.94,-231.762h-112.354c-58.696,78.032 -147.398,127.75 -246.662,127.75c-99.264,0 -187.968,-49.718 -246.66,-127.75h-112.354l-57.94,231.762l-62.09,-15.524l70.06,-280.238h123.992c-18.13,-38.938 -29.836,-82.086 -33.638,-127.75h-193.37v-64h193.29c5.862,-72.686 31.784,-139.026 71.668,-192.248h-161.944l-70.06,-280.24l62.09,-15.522l57.94,231.76h174.68c0.894,-0.694 1.798,-1.372 2.698,-2.056c-6.712,-19.502 -10.362,-40.422 -10.362,-62.194c0,-105.762 85.96,-191.5 192,-191.5c106.04,0 192,85.738 191.998,191.498c0,21.772 -3.652,42.692 -10.362,62.194c0.902,0.682 1.806,1.362 2.698,2.056h174.68l57.94,-231.76l62.09,15.522l-70.06,280.24h-161.944c39.884,53.224 65.808,119.564 71.67,192.25h193.29v64z" /></svg>