<svg xmlns="http://www.w3.org/2000/svg" viewBox="0 0 896 1024" width="896" height="1024"><path d="M226.101,757.767c-29.10067,-18.18933 -57.899,-34.86233 -86.395,-50.019c-28.49267,-15.76267 -57.89633,-30.616 -88.211,-44.56c-11.51867,-2.42533 -17.278,-7.275 -17.278,-14.549c0,-0.60533 0,-1.21067 0,-1.816c1.21067,-7.88 5.45467,-14.24633 12.732,-19.099c26.67667,-12.73267 58.203,-30.315 94.579,-52.747c35.77067,-21.82667 69.41967,-43.652 100.947,-65.476c27.282,-16.97733 55.77667,-36.98367 85.484,-60.019c30.31267,-23.038 59.414,-41.52967 87.304,-55.475c10.91333,-6.66933 19.09733,-10.004 24.552,-10.004c2.42533,0 4.24467,0.60533 5.458,1.816c4.85067,3.032 10.30733,6.06267 16.37,9.092c22.43467,15.76267 46.07933,32.43567 70.934,50.019c24.25133,17.58133 50.32167,34.85967 78.211,51.835c35.16467,20.008 72.147,40.01433 110.947,60.019c38.196,20.616 75.482,41.53333 111.858,62.752c18.18933,12.12533 27.586,20.916 28.19,26.372c0,0 0,0.30267 0,0.908c0,5.458 -5.45667,10.91533 -16.37,16.372c-21.82667,15.76267 -49.10867,32.13167 -81.846,49.107c-33.34533,16.37067 -64.87167,34.55867 -94.579,54.564c-11.51867,6.66933 -21.825,13.03567 -30.919,19.099c-8.488,5.458 -16.36967,10.61133 -23.645,15.46c-21.82667,14.552 -39.71033,26.97967 -53.651,37.283c-13.944,10.91333 -34.86133,25.76767 -62.752,44.563c-13.336,7.88 -29.099,12.124 -47.289,12.732c-1.21067,0 -2.72667,-0.30267 -4.548,-0.908c-20.61267,-0.60533 -38.80067,-6.062 -54.564,-16.37c-12.73267,-6.66933 -24.25133,-14.85467 -34.556,-24.556c-10.30667,-9.096 -21.22,-18.19067 -32.74,-27.284c-14.552,-11.51867 -30.01167,-23.34133 -46.379,-35.468c-16.37067,-12.12533 -33.649,-23.34133 -51.835,-33.648zM441.63,797.782c27.282,-20.008 67.90167,-49.71567 121.859,-89.123c6.064,-4.24467 18.18967,-12.43 36.377,-24.556c18.18933,-12.73267 36.07467,-25.16133 53.656,-37.286c10.30667,-7.27467 20.916,-14.55067 31.828,-21.828c10.30667,-7.27467 22.12933,-14.24667 35.468,-20.916c-0.60533,-2.42533 -1.21067,-5.76 -1.816,-10.004c-10.91333,-1.81933 -29.70667,-11.216 -56.38,-28.19c-27.28267,-16.97733 -51.53433,-31.83167 -72.755,-44.563c-20.616,-12.73267 -51.233,-31.82967 -91.851,-57.291c-10.91333,-10.30667 -20.917,-19.09733 -30.011,-26.372c-9.096,-7.27733 -20.00933,-13.34 -32.74,-18.188c-26.674,18.79333 -66.99133,46.68233 -120.952,83.667c-32.132,22.432 -58.50433,40.61967 -79.117,54.563c-21.21867,14.552 -40.01367,28.79833 -56.385,42.739c-5.458,4.85067 -10.91467,9.70033 -16.37,14.549c-4.24467,4.24467 -6.367,6.97367 -6.367,8.187c0,0 0.30267,0 0.908,0c24.25133,12.12533 47.28967,24.554 69.115,37.286c22.432,12.12533 44.25733,24.251 65.476,36.377c25.46333,16.37067 50.623,32.73967 75.479,49.107c24.85733,16.37067 49.71467,33.649 74.572,51.835zM396.159,681.375c-7.88,-5.458 -15.156,-10.30767 -21.828,-14.549c-6.66867,-4.24267 -15.15567,-9.09233 -25.461,-14.549c-13.33867,-7.88 -26.07033,-14.24633 -38.195,-19.099c-12.73267,-4.85067 -25.16133,-10.91333 -37.286,-18.188c1.21067,-2.424 3.93967,-6.668 8.187,-12.732c4.24267,-6.064 11.51867,-11.52133 21.828,-16.372c8.488,-3.636 15.764,-6.97033 21.828,-10.003c6.06133,-3.032 14.24667,-6.97367 24.556,-11.825c10.91333,-8.488 27.586,-20.91567 50.018,-37.283c9.094,-6.06133 23.039,-14.852 41.835,-26.372c14.552,8.488 27.28367,16.36933 38.195,23.644c10.30667,7.88 22.43233,15.76133 36.377,23.644c13.33867,7.27733 26.67567,14.55333 40.011,21.828c12.73333,7.27733 25.162,13.94667 37.286,20.008c1.21067,3.63867 2.42333,7.276 3.638,10.912c1.21067,1.81933 1.816,3.63867 1.816,5.458c0,0.60533 -0.30267,1.21067 -0.908,1.816c-0.60533,3.032 -2.42467,6.064 -5.458,9.096c-2.424,3.636 -6.06133,6.36367 -10.912,8.183c-12.12533,4.85067 -21.22,8.79067 -27.284,11.82c-6.06133,3.032 -15.458,7.276 -28.19,12.732c-3.032,2.42533 -5.761,4.54767 -8.187,6.367c-2.424,1.816 -5.15167,3.93733 -8.183,6.364c-7.88333,7.27467 -16.06867,15.156 -24.556,23.644c-7.88,8.488 -14.54933,14.24733 -20.008,17.278c-6.66933,7.27733 -13.03567,11.82433 -19.099,13.641c-2.42533,1.21067 -5.15433,1.816 -8.187,1.816c-2.424,0 -4.54533,-0.30267 -6.364,-0.908c-6.06133,-4.24267 -10.60933,-8.48667 -13.644,-12.732c-3.636,-4.24267 -7.27333,-7.88 -10.912,-10.912c-3.032,-3.032 -5.45733,-5.761 -7.276,-8.187c-1.81933,-2.424 -3.032,-3.94 -3.638,-4.548z" /></svg>