<svg xmlns="http://www.w3.org/2000/svg" viewBox="0 0 996 1024" width="996" height="1024"><path d="M776.019,774.605c6.639,4.849 13.647,9.168 20.655,13.437c7.008,4.217 13.489,9.116 19.707,14.333c-1.528,1.37 -3.113,2.687 -4.532,4.215c-5.532,5.902 -11.381,11.276 -17.072,16.967c-4.163,4.163 -7.905,8.853 -12.278,12.699c-3.846,3.318 -7.798,6.427 -11.644,9.747c-6.85,5.849 -12.066,13.068 -18.073,19.759c-9.221,10.274 -21.498,17.547 -33.09,24.976c-7.535,-5.111 -14.965,-10.433 -22.447,-15.702c-5.006,-3.529 -9.221,-5.268 -14.859,-7.271c-1.475,-0.469 -2.894,-1.111 -4.373,-1.634l7.588,-20.075c-5.638,-11.119 -24.817,-13.489 -34.618,-17.283c-19.338,-7.43 -39.15,-13.225 -58.751,-19.812c-17.23,-5.796 -34.513,-11.382 -50.847,-19.812c-7.534,-3.848 -15.279,-7.221 -22.973,-10.75c-10.802,-4.953 -19.39,-11.697 -27.874,-20.339c-15.543,-15.807 -31.246,-31.456 -49.793,-43.154c-4.69,-2.951 -9.642,-5.48 -14.174,-8.694c-5.007,-3.477 -9.222,-8.378 -13.964,-12.382c-18.864,-15.86 -33.249,-37.095 -52.797,-52.112c-23.343,-17.967 -41.89,-43.47 -58.488,-68.446c-5.796,-8.641 -9.484,-18.912 -14.964,-27.874c-6.113,-10.064 -12.383,-19.498 -17.388,-30.192c-2.266,-4.794 -6.164,-9.439 -8.957,-13.965c-2.477,-3.958 -5.058,-7.274 -7.64,-10.963c-6.481,-9.274 -10.907,-20.448 -17.915,-29.35c-5.586,-7.065 -11.646,-13.278 -16.809,-20.761c-3.319,-4.846 -5.743,-10.223 -8.747,-15.227c-1.687,-2.853 -4.217,-5.481 -5.322,-8.588c14.965,36.462 30.825,72.293 48.424,107.333c13.384,26.557 26.452,53.324 40.362,79.511c5.954,11.276 11.591,21.866 18.916,32.247c2.898,4.111 5.691,8.432 8.43,12.753l-3.9,-1.06c-0.264,5.585 3.319,12.224 5.005,17.283c2.845,8.641 6.059,17.071 9.326,25.555c2.371,6.323 4.743,12.541 7.482,18.705c4.111,9.221 9.116,17.756 13.595,26.767c8.799,18.073 19.653,34.249 30.561,50.847c8.588,13.015 17.441,25.714 26.398,38.465c4.69,6.692 8.747,13.963 13.489,20.602c6.692,9.432 14.28,18.126 21.34,27.189c12.909,16.439 28.085,30.139 41.995,45.525c5.11,5.639 9.062,8.748 15.491,13.964c9.116,7.377 17.284,14.807 25.872,22.605c13.121,11.961 27.927,22.71 42.417,32.511c1.845,1.212 3.531,2.524 5.322,3.794c-2.739,1.793 -5.428,3.637 -8.167,5.428c-10.855,7.165 -22.026,13.594 -33.881,18.705c-7.43,3.213 -17.916,9.859 -26.504,8.799c-5.006,-0.633 -8.958,-4.633 -13.753,-6.007c-2.741,-0.738 -4.955,-0.953 -7.694,-2.372c-5.849,-2.95 -11.012,-7.429 -16.703,-10.854c-6.164,-3.688 -12.224,-7.64 -18.442,-11.223c-5.111,-2.95 -11.012,-4.688 -16.44,-6.902c-9.748,-3.9 -19.495,-7.587 -29.086,-11.856c-15.07,-6.692 -30.772,-11.803 -45.736,-18.653c-11.382,-5.216 -21.92,-11.961 -33.67,-16.334c-25.292,-9.484 -51.006,-20.339 -73.663,-35.83c-15.86,-10.802 -32.089,-20.919 -47.844,-31.931c-7.535,-5.27 -14.438,-10.644 -21.709,-16.493c-9.379,-7.481 -19.444,-13.752 -28.822,-21.287c-8.431,-6.797 -17.598,-13.384 -26.82,-18.916c-10.696,-6.323 -22.025,-11.17 -31.931,-18.916c-8.957,-6.903 -15.861,-15.017 -22.763,-24.133c-7.587,-9.959 -14.28,-18.653 -19.496,-30.403c-4.163,-9.484 -9.063,-18.863 -12.488,-28.664c-2.108,-5.901 -3.215,-12.277 -4.901,-18.389c-2.318,-8.536 -3.903,-17.494 -5.322,-26.293c-1.211,-7.271 -3.425,-14.069 -4.953,-21.235c-2.581,-12.066 -4.736,-25.449 -5.005,-37.885c-0.164,-6.744 0.314,-13.542 0.105,-20.287c-0.209,-6.637 -1.255,-13.12 -1.419,-19.811c-0.159,-9.221 -1.378,-18.552 -2.214,-27.663c-2.582,-27.927 -5.534,-55.748 -8.273,-83.622c-2.002,-20.234 -2.055,-40.414 -2.055,-60.753c0,-32.774 0,-65.549 0,-98.323c0,-17.229 0.79,-34.565 -1.001,-51.637c-1.844,-17.335 -1.74,-34.618 -2.845,-51.954c-1.15,-17.915 -0.314,-36.146 -0.314,-54.114v-15.755c0,-3.062 -0.791,-7.961 0.269,-10.963c7.06,2.733 13.857,9.007 20.444,12.905c3.9,2.256 8.43,3.63 12.699,4.526c4.9,1.001 9.538,3.27 14.543,3.376c9.432,0.269 18.284,2.226 27.558,4.063c8.536,1.731 16.651,1.889 25.345,1.837c8.483,-0.029 16.651,1.494 25.239,1.494c30.297,0.059 60.068,-1.359 90.26,-5.213c24.976,-3.16 48.951,-10.9 72.978,-18.652c7.007,-2.27 13.173,-5.467 20.444,-6.064c21.024,-1.95 45.051,-7.385 63.335,-18.811c8.167,-5.114 14.543,-12.642 22.025,-18.706c5.217,-4.257 10.802,-7.692 15.913,-12.113c5.691,-4.897 11.118,-10.17 16.809,-15.069c4.057,-3.48 8.43,-6.169 11.592,-10.754c2.318,-3.316 3.9,-6.796 6.639,-9.903c4.532,-4.997 9.116,-10.016 13.331,-15.333c4.321,-5.422 7.483,-10.172 14.016,-12.009c0.418,0.299 0.836,0.747 1.314,1.195c5.796,6.157 13.067,10.07 19.285,15.701c2.003,1.792 3.531,4.018 5.48,5.855c3.266,3.211 7.535,4.944 11.381,7.214c5.744,3.42 10.907,7.841 16.756,11.217c3.108,1.733 6.429,2.957 9.537,4.69c4.11,2.315 7.218,5.542 11.118,8.275c6.744,4.794 15.912,7.318 23.395,10.216c24.976,9.752 51.058,16.548 76.56,24.449c5.691,1.733 11.328,2.599 17.125,3.794c6.059,1.269 11.802,3.719 17.862,5.063c13.594,3.002 26.925,7.558 40.783,8.902c17.072,1.688 33.828,1.986 50.953,1.837c16.176,-0.269 32.352,-2.435 47.949,-6.856c11.328,-3.226 22.973,-7.483 33.933,-11.859c6.376,-2.584 12.488,-5.377 18.969,-7.483c3.899,-1.27 8.114,-3.212 12.224,-2.166c0.744,3.106 1.416,6.796 1.58,10.007c0.314,6.105 1.15,12.273 1.419,18.442c0.164,4.377 1.165,8.379 1.374,12.696c0.583,9.643 1.255,19.602 1.419,29.296c0.263,21.183 2.739,42.207 2.739,63.388c-0.051,23.659 0,47.264 0,70.871c0,29.981 0.463,60.068 -0.478,89.996c-1.319,-0.851 -2.586,-1.732 -3.9,-2.479c-8.378,-4.914 -17.124,-9.335 -25.397,-14.548c-5.269,-3.33 -10.116,-7.542 -15.544,-10.649c-6.375,-3.749 -13.383,-6.273 -20.128,-9.066c-7.482,-3.107 -15.386,-5.84 -22.499,-9.798c-6.745,-3.689 -13.172,-6.631 -20.497,-8.797c-16.914,-4.853 -32.563,-10.379 -48.634,-17.653l24.976,-1.494c-5.006,-6.154 -15.334,-7.319 -22.236,-9.634c-14.332,-4.734 -29.086,-8.05 -43.523,-12.322c-15.334,-4.481 -31.088,-5.527 -46.843,-6.423c-3.321,-1.793 -6.692,-3.63 -10.012,-5.422c-5.797,-3.211 -11.856,-5.317 -17.968,-7.692c-10.064,-3.839 -19.443,-9.694 -29.665,-12.905c-2.739,-0.948 -5.058,-0.842 -7.956,-0.896c-3.742,-0.029 -6.587,-0.776 -10.381,-1.523c-5.638,-1.045 -11.17,-0.095 -16.861,-0.149c-8.061,0 -16.176,-1.987 -24.185,-2.584c-16.756,-1.165 -33.565,-1.165 -50.268,-3.002c-17.915,-1.942 -35.936,-2.061 -53.851,-4.003c-17.494,-1.912 -35.936,-5.915 -53.535,-3.749c-6.639,0.896 -13.384,0.299 -19.917,1.195c-2.16,0.298 -4.005,1.239 -6.06,1.344c-1.528,0.044 -2.845,-0.299 -4.584,0.149c-2.687,0.687 -5.27,1.718 -8.009,2.315c4.9,0.164 9.853,1.299 14.543,2.793c9.431,2.793 15.753,8.693 23.816,14.01c5.637,3.794 11.855,6.692 18.073,9.171c12.014,4.74 23.606,10.431 35.356,15.808c7.167,3.271 13.964,6.795 20.866,10.649c10.749,6.006 20.814,13.803 31.826,19.18c12.224,5.855 24.501,7.483 37.358,10.381c17.282,3.957 33.617,10.588 50.478,16.07c8.641,2.793 17.388,2.733 25.924,5.526c15.86,5.157 31.246,11.535 46.843,17.599c10.065,3.958 20.549,5.437 30.14,10.859c8.641,4.907 16.07,11.643 24.343,17.02c6.797,4.422 13.7,8.156 20.181,13.219c13.173,10.222 27.927,18.923 39.677,31.036c14.701,15.175 29.876,29.606 45.209,44.154c4.004,3.854 8.642,6.856 12.909,10.336c7.693,6.27 14.28,13.171 21.077,20.549c13.752,14.912 31.351,24.922 44.788,40.045c0.634,0.612 1.112,1.359 1.739,2.106c-1.422,7.274 -2.418,14.444 -3.583,21.867c-1,6.745 -2.634,13.272 -3.635,20.023c-1.738,11.382 -3.583,22.869 -5.111,34.303c-0.746,5.533 -0.953,10.959 -1.06,16.387c-12.172,-9.432 -24.449,-18.601 -36.937,-27.4c-6.797,-4.796 -14.015,-7.852 -20.971,-12.278c-6.112,-3.898 -11.592,-8.699 -17.968,-12.119c-12.224,-6.583 -25.292,-11.438 -38.043,-16.755c-11.697,-4.899 -24.08,-7.379 -36.041,-11.755c-14.806,-5.317 -29.876,-10.485 -44.261,-17.072c-13.331,-6.113 -26.398,-13.073 -39.624,-19.496c-20.392,-9.906 -41.152,-19.014 -61.386,-29.454c-12.804,-6.64 -27.031,-10.957 -40.678,-15.333c-12.013,-3.853 -23.079,-8.484 -35.461,-10.963l27.452,24.186c-2.054,-1.001 -4.109,-1.956 -6.164,-3.002c-11.012,-5.48 -20.971,-12.276 -31.404,-18.863c-3.899,-2.524 -7.64,-5.212 -11.434,-7.901c-3.9,-2.852 -8.221,-4.794 -12.278,-7.378c-13.226,-8.484 -28.031,-16.706 -40.309,-26.609c-5.164,-4.167 -9.589,-7.483 -15.649,-9.858c-5.585,-2.21 -11.275,-4.48 -17.072,-6.213c-15.175,-4.526 -30.455,-9.32 -45.736,-13.592c-13.489,-3.735 -26.24,-12.07 -38.886,-18.283c-14.437,-7.06 -30.666,-11.063 -45.683,-16.44c0.949,2.957 3.268,4.78 6.956,5.377c3.425,2.479 6.797,5.004 10.222,7.483c8.536,6.798 15.438,15.328 23.026,23.184c16.018,16.545 36.884,26.664 54.957,40.256c20.813,15.757 41.942,30.194 60.068,49.584c13.489,14.489 24.976,32.671 41.363,43.47c12.013,7.904 23.921,16.13 36.146,23.553c10.538,6.375 21.181,12.334 31.351,19.444c6.745,4.682 11.961,9.536 18.179,15.227c9.168,8.378 18.705,16.176 27.61,24.87c13.383,13.12 25.344,27.874 39.571,39.993c8.168,7.06 15.861,14.227 25.345,18.969c14.596,7.219 28.348,16.439 42.733,24.133c14.438,7.693 27.768,17.599 40.204,28.559c11.012,9.748 23.448,16.967 33.933,27.452c7.219,7.218 14.016,15.438 22.183,21.445z" /> <path d="M995.57,497.499c-0.045,9.853 1.532,21.017 -1.419,30.561c-2.003,6.635 -4.215,12.908 -7.166,19.39c-2.213,4.839 -5.48,9.111 -7.535,14.01c-1.053,2.539 -1.582,5.332 -2.687,7.856c-0.741,1.777 -2.055,3.57 -2.055,5.631c-2.793,-8.482 -6.324,-16.918 -11.329,-24.132c-5.795,-8.484 -12.593,-17.068 -16.176,-27.03c-7.219,-20.234 -20.339,-33.993 -36.094,-47.107c-4.9,-4.063 -7.27,-8.543 -11.012,-13.547c-2.162,-2.838 -4.743,-5.272 -7.325,-7.692c-1.844,-1.733 -3.583,-3.481 -5.217,-5.482c-2.687,-3.361 -4.636,-6.901 -8.219,-9.425c-4.584,-3.211 -8.642,-6.318 -12.857,-10.216c-6.798,-6.223 -15.017,-10.121 -21.762,-16.23c-4.004,-3.629 -8.43,-6.527 -12.54,-10.007c-2.476,-2.166 -6.112,-6.766 -9.695,-7.065c-0.209,0 -0.478,-0.051 -0.687,-0.051l-2.107,-3.525l-10.381,-17.283c11.803,1.121 23.554,4.018 34.566,8.753c7.904,3.435 16.071,5.541 23.711,9.753c8.799,4.899 18.127,9.111 27.136,13.696c0.373,0.149 0.687,0.299 1.06,0.448c8.22,4.212 15.597,8.693 23.237,14.07c12.856,9.063 25.397,18.655 38.359,27.557c6.112,4.272 11.223,10.022 17.283,14.339c4.742,3.421 8.536,7.11 12.751,11.277c1.634,1.583 3.742,2.853 5.322,4.481c4.219,4.315 2.845,11.111 2.845,16.966z" /> <path d="M808.284,662.979c-0.896,-0.738 -1.154,-1.639 -2.424,-2.266c-0.364,1.739 0.956,4.795 1.27,6.481c0.418,2.266 0.478,4.636 0.896,6.902c0.056,0.209 0.056,0.478 0.107,0.687c0.328,1.476 1.478,4.006 0.164,5.111c-6.743,-3.584 -11.17,-10.538 -14.068,-16.387c-2.266,-4.48 -4.479,-9.01 -6.745,-13.489c-0.681,-1.37 -1.323,-2.743 -2.055,-4.057c-3.319,-6.48 -5.902,-13.384 -8.009,-20.075c-1.159,-3.531 -2.852,-7.379 -3.688,-10.908c-0.262,-1.263 0.791,-3.372 3.373,-10.854c5.954,1.845 11.856,4.636 17.494,7.008c6.059,2.528 12.435,4.9 18.02,8.219c4.953,2.899 9.748,6.745 14.49,9.801c9.379,6.007 19.075,11.645 28.822,17.23c4.69,2.687 9.432,5.322 14.068,8.061c4.532,2.634 9.011,5.374 13.437,8.219c2.95,1.896 5.585,3.529 8.747,5.163c2.897,1.476 5.953,2.584 8.957,3.794c2.055,0.844 5.792,1.58 7.166,3.214c1.628,2.161 1.314,6.218 1.105,8.325c-1.265,11.856 -2.108,24.186 -5.322,35.672c-2.477,0.527 -5.637,-1.891 -7.64,-3.056c-4.059,-2.265 -7.905,-4.848 -11.909,-7.166c-3.69,-2.214 -6.693,-4.058 -10.75,-5.797c-2.687,-1.161 -5.374,-2.526 -8.061,-3.9c-5.586,-2.95 -11.013,-6.217 -15.808,-9.537c-4.057,-2.793 -8.009,-6.271 -12.33,-8.747c-1.58,-0.947 -2.793,-1.007 -4.373,-1.634c-2.793,-1.107 -4.953,-3.162 -7.429,-4.69c-4.374,-2.583 -8.326,-5.48 -12.699,-8.115c-1.687,-1 -3.316,-2.004 -4.795,-3.214z" /> <path d="M653.718,1003.304c1.738,1.37 10.749,6.271 12.54,8.747c1.105,1.475 1.209,3.214 0.836,4.848c-0.844,3.11 -3.741,5.952 -6.745,6.639c-3.426,0.842 -7.22,-0.215 -10.908,-1.634c-2.791,-1.053 -5.48,-2.318 -7.85,-3.214c-6.006,-1.634 -11.645,-4.163 -16.914,-7.588c-3.373,-2.899 -6.798,-5.745 -10.275,-8.484c-8.326,-5.902 -15.86,-12.698 -23.448,-19.654c-0.679,-0.636 -1.322,-1.368 -1.949,-2.055c-3.319,-3.583 -6.06,-7.639 -9.695,-11.012c-4.109,-3.846 -8.799,-6.85 -12.751,-10.854c-8.799,-8.904 -19.654,-15.86 -27.821,-25.397c-3.794,-4.373 -6.64,-9.432 -10.75,-12.909c-2.003,-1.685 -3.531,-4.056 -5.48,-5.795c-2.74,-2.529 -3.215,-3.108 -4.901,-5.743c-4.9,-7.482 -11.645,-14.28 -18.389,-20.181c-2.16,-1.897 -8.59,-7.641 -6.429,-11.698c0.632,-1.158 2.266,-1.576 3.846,-1.845c0.844,-0.105 1.745,-0.207 2.372,-0.314c2.582,-0.416 4.426,-0.85 7.008,-1.686c5.112,-1.74 9.854,-1.791 15.228,-1.791l28.559,8.747c0.791,2.741 4.058,6.007 5.586,7.904c4.953,6.165 9.748,12.225 14.227,18.758c8.378,12.33 16.334,25.291 25.239,37.2c5.586,7.587 11.698,14.649 18.02,21.393c6.376,6.85 13.067,13.332 20.075,19.496c2.002,1.738 3.951,3.583 5.954,5.269c5.005,4.215 9.589,8.853 14.806,12.857z" /> <path d="M793.498,926.622c3.108,1.949 5.112,4.215 5.005,6.797c-0.106,2.423 -4.169,6.587 -4.901,7.692c-2.687,3.899 -5.374,7.957 -8.378,11.065c-2.951,3.056 -2.951,2.95 -6.639,1.001c-6.798,-3.636 -13.7,-4.69 -20.497,-8.484c-8.641,-4.743 -16.861,-13.648 -25.397,-19.18c-11.487,-7.482 -23.711,-10.591 -35.409,-16.598c-4.162,17.599 -10.643,14.016 -17.23,11.75c-0.164,-0.057 -0.269,-0.113 -0.478,-0.164c-3.635,-1.265 -5.849,-2.003 -9.432,-5.111c-2.318,-2.003 -5.164,-4.531 -8.009,-7.535c-6.217,-6.586 -12.333,-15.597 -11.855,-27.768c3.267,-0.316 7.429,3.261 10.802,4.426c1.792,0.627 3.32,0.522 5.059,0.836c1.318,0.224 2.683,0.642 4.057,1.165c3.689,1.317 7.483,3.372 10.908,5.005c5.796,2.793 11.697,4.004 17.546,6.797c2.002,0.948 4.005,1.843 5.954,2.739c4.478,1.949 8.905,3.686 13.489,4.373c4.058,0.632 7.483,1.265 11.54,3.794c7.64,4.848 15.754,5.326 23.5,6.745c0.631,0.106 5.111,0.685 11.012,1.686c9.379,1.632 22.341,4.531 29.349,8.957z" /> <path d="M906.969,754.318c4.008,1.58 3.843,5.269 5.322,9.484c3.421,9.748 2.578,18.757 -0.373,28.348c-1.739,5.848 -2.107,11.908 -4.321,17.546c-0.164,0.374 -0.314,0.687 -0.478,1.001c-1.951,4.164 -4.374,4.328 -8.853,5.269c-2.265,0.52 -4.531,0.627 -6.797,0.627c-10.222,-0.211 -19.918,-5.427 -29.402,-9.906c-5.954,-2.794 -11.961,-5.322 -17.441,-9.116c-4.48,-3.108 -8.326,-6.797 -12.278,-10.485c-1.792,-1.738 -3.635,-3.425 -5.48,-5.111c-4.004,-3.583 -8.64,-6.27 -12.803,-9.695c-5.954,-4.953 -16.546,-12.119 -20.075,-20.023l15.965,-14.016l4.69,-4.163c13.7,5.058 27.874,8.326 41.995,11.803c0.79,0.21 1.578,0.374 2.37,0.583c7.009,1.474 14.017,2.633 21.077,3.529c1.949,0.269 3.9,0.583 5.849,0.792c7.114,0.684 14.068,1.843 21.024,3.529z" /></svg>