<svg xmlns="http://www.w3.org/2000/svg" viewBox="0 0 793 876" width="793" height="876"><path d="M724.096,202.299c1.315,-2.705 1.584,-8.372 0.907,-11.435c-0.496,-2.119 -1.939,-4.275 -2.972,-6.305c-1.08,-2.337 -2.023,-4.952 -3.287,-7.199c-1.395,-2.529 -3.105,-5.005 -5.177,-6.982c-1.306,-1.314 -4.092,-2.297 -3.467,-4.594h-3.377c0.541,3.473 2.348,6.395 3.152,9.458c0.992,3.599 -1.084,5.768 -0.855,9.367c0.135,2.886 1.667,7.02 3.647,9.458c1.217,1.39 2.612,1.889 3.467,3.599c0.805,1.532 1.213,3.459 1.8,5.131c1.665,4.67 4.456,2.96 6.168,-0.511zM667.181,199.044c0.63,0.511 1.311,0.804 2.026,0.894c-0.941,-0.511 -1.527,-0.805 -2.026,-0.894c-3.557,-2.563 -4.903,-9.403 -5.988,-12.786c-0.538,-1.889 -1.713,-4.275 -1.98,-5.896c-0.453,-2.247 -0.401,-4.277 -1.665,-6.254c-1.169,-1.748 -2.612,-3.6 -4.007,-5.131c-1.847,-2.105 -3.242,-1.977 -5.943,-1.977c-1.081,0 -2.517,-0.345 -3.512,-0.09c-0.949,0.257 -1.254,1.022 -2.161,1.277c-1.081,0.293 -2.389,-0.09 -3.422,-0.09c-2.07,0.128 -3.735,1.022 -5.807,1.277c-5.223,0.728 -10.174,2.489 -15.308,3.383c-1.532,0.229 -5.128,0.549 -6.123,2.118c-1.17,2.194 2.387,3.151 3.872,4.045c2.476,1.622 4.996,3.242 7.383,5.093c2.477,1.889 4.773,3.025 7.384,4.594c2.881,1.672 4.953,3.791 7.429,5.768c2.207,1.71 4.861,2.577 7.384,3.471c2.971,1.123 6.033,2.375 8.824,3.012c2.431,0.433 3.962,0.69 6.258,1.71c1.126,0.509 5.715,2.028 6.979,0.637c1.085,-1.264 -1.349,-4.659 0.408,-4.148zM572.719,195.443c7.027,-8.192 6.35,-19.002 -1.033,-26.787c-2.701,-2.884 -7.564,-6.93 -11.525,-4.275c-1.622,1.123 -2.611,2.208 -4.503,2.974c-2.658,1.085 -4.773,2.476 -7.069,4.186c-2.34,1.761 -4.051,2.937 -5.672,5.68c-1.889,3.153 -2.881,6.752 -4.276,10.223c-1.261,2.922 -3.06,6.214 -3.737,9.405c-0.498,2.476 -1.481,5.043 -1.123,7.748c0.315,2.565 2.295,3.549 4.818,4.186c6.619,1.748 13.012,-2.438 19.045,-4.506c5.807,-2.08 10.986,-4.058 15.082,-8.831zM528.198,165.365c0.676,-2.566 3.102,-4.773 3.422,-7.428c0.038,-0.46 -0.091,-1.085 -0.32,-1.851c-0.404,-1.62 -1.48,-3.509 -2.296,-4.275c-1.982,-2.016 -4.683,-1.25 -7.159,-1.761c-2.16,-0.383 -3.196,-1.196 -5.672,-1.149c-2.477,0 -5.043,-0.383 -7.384,0.128c-5.763,1.441 -10.986,5.947 -14.273,10.72c-3.513,5.177 -7.7,12.205 -8.555,18.459c-0.361,2.847 -1.85,5.36 -2.296,8.156c-0.408,2.745 0.091,5.846 0.091,8.551c-0.09,2.756 -0.135,4.556 2.476,5.947c3.062,1.646 5.493,1.275 8.419,0.255c5.222,-2.08 8.824,-6.125 13.462,-9.367c3.287,-2.297 5.808,-5.168 8.644,-7.964c2.519,-2.564 2.834,-4.544 4.591,-7.07c1.081,-1.479 2.659,-2.602 3.692,-4.096c0.359,-0.499 1.622,-2.159 1.98,-2.796c0.995,-1.748 0.675,-2.783 1.174,-4.544zM791.159,239.77c1.227,6.619 0.907,13.42 0.907,20.261c0,6.072 0.406,12.429 -1.935,18.235c-0.809,1.94 -1.392,4.454 -2.566,6.126c-1.081,1.531 -3.018,2.794 -4.368,4.096c-1.845,1.71 -5.538,7.199 -7.925,7.836c-1.124,-3.65 -0.229,-8.551 -0.32,-12.38c0,-4.773 -0.58,-9.277 -1.665,-13.821c-2.025,-8.106 -1.845,-17.335 -7.159,-24.584c-0.587,1.582 -0.229,3.65 -0.229,5.36c0,2.655 -0.371,4.454 -0.907,6.841c-0.766,3.599 -0.989,7.377 -2.566,10.848c-1.53,3.51 -3.377,6.253 -5.357,9.636c-1.891,3.101 -3.377,7.108 -5.718,9.904c-0.446,-1.123 0.05,-2.004 -0.179,-3.153c-0.179,-0.854 -0.854,-1.39 -1.212,-2.156c-0.902,-2.068 -1.264,-4.275 -2.387,-6.164c-2.162,-3.702 -4.548,-6.854 -7.564,-9.866c-2.881,-2.795 -4.456,-6.929 -7.833,-8.959c-3.062,-1.836 -7.563,-4.542 -11.21,-4.632c-4.818,-0.09 -9.5,-0.46 -13.958,1.391c-4.187,1.761 -9.679,5.667 -14.452,4.186c-2.568,-0.728 -3.963,-3 -6.844,-3.383c-3.964,-0.446 -5.359,0.499 -8.24,3.242c-1.035,0.957 -3.332,3.128 -4.953,2.617c-1.12,-0.178 -1.311,-1.481 -2.115,-2.118c-1.891,-1.66 -5.313,-2.043 -7.474,-0.894c-1.214,0.574 -2.028,1.569 -3.061,2.335c-2.567,2.066 -7.789,5.373 -11.346,4.862c-3.693,-0.721 -5.133,-4.64 -7.789,0.045c-1.169,2.157 -1.976,4.454 -3.061,6.572c-0.315,0.587 -3.467,4.772 -3.467,4.862c-0.405,-3.292 -3.602,-10.274 -6.258,-12.251c-1.485,-1.149 -2.339,-0.638 -4.096,-0.383c-0.991,0.128 -1.796,0.217 -2.791,0.128c-1.081,-0.126 -2.022,-0.892 -3.196,-1.02c-2.162,-0.294 -4.053,1.021 -6.08,1.149c-4.142,0.141 -6.663,-0.446 -10.31,-2.156c-3.421,-1.761 -5.087,-1.493 -8.283,0.128c-2.566,1.277 -3.152,0.128 -5.853,-0.383c-2.523,-0.421 -5.537,0.09 -8.06,0.09c-2.611,-0.09 -4.278,-0.179 -6.258,1.761c-1.981,1.979 -4.188,3.969 -5.988,6.216c-3.063,3.688 -5.447,6.073 -7.159,10.758c-0.811,2.169 -2.297,3.828 -3.152,5.768c-0.946,1.979 -1.716,4.417 -2.431,6.394c-1.081,3.011 -1.392,6.036 -2.566,9.048c-0.995,2.564 -3.556,7.337 -0.179,8.818c2.431,1.098 6.529,-1.02 9.14,-1.02c3.557,-0.128 6.572,1.239 10.129,1.149c5.673,0 11.752,-0.728 17.019,1.302c2.654,0.997 5.267,2.516 7.968,3.153c1.666,0.511 2.568,0 4.053,1.277c1.53,1.174 1.802,3.307 3.287,4.327c1.801,1.263 5.807,-13.183 10.941,-5.309c0.811,1.34 1.49,2.808 2.523,3.957c2.565,2.884 6.707,4.594 10.129,6.075c1.577,-3.012 4.684,-3.867 6.664,-6.254c2.476,-3.19 3.377,-7.287 6.258,-10.35c-0.179,1.403 0.728,2.373 0.995,3.65c0.396,1.71 0.217,3.51 0.625,5.309c0.587,3.153 0.766,6.395 2.072,9.317c1.576,4.095 4.367,6.763 8.87,6.891c2.25,0.129 4.458,-0.254 6.573,-0.637c2.116,-0.446 6.168,-2.4 8.329,-1.889c2.97,0.626 1.44,6.714 3.647,8.87c2.115,2.209 4.186,0.408 5.807,-1.569c1.486,-1.799 3.016,-2.705 4.773,-4.096c2.161,-1.671 3.603,-3.777 5.583,-5.628c0.857,-0.715 3.785,-3.331 4.818,-3.42c0.361,1.889 0.451,2.208 1.306,3.561c1.034,1.532 1.934,2.693 2.611,4.544c0.857,2.336 3.603,10.645 6.529,9.496c1.622,-0.512 1.396,-2.54 3.737,-1.149c0.991,0.587 1.392,2.699 2.656,2.655c2.296,0 3.107,-6.126 5.222,-7.428c1.575,0.996 2.564,2.363 4.276,3.383c1.935,0.995 4.05,1.174 5.807,2.476c3.107,2.297 2.341,4.135 6.799,4.007c1.487,-0.129 3.198,0.254 4.548,-0.766c0.719,-0.587 1.165,-1.262 1.306,-2.156c0.496,-0.791 1.263,-1.212 2.296,-1.302c0.588,-0.255 1.264,-0.511 1.8,-0.766c0.899,-0.904 1.398,-1.836 1.665,-3.113c0.991,-0.892 2.793,-1.531 4.323,-1.02c2.154,0.816 2.562,4.823 3.061,6.891c0.673,2.566 0,6.357 2.25,8.334c2.116,2.029 4.096,0.052 5.988,-1.391c2.611,-2.157 4.772,-4.275 7.698,-5.628c3.242,2.523 1.442,11.891 0.855,15.082c-0.946,5.587 -2.251,13.244 -5.042,18.055c-1.395,2.476 -3.602,4.453 -5.087,6.929c-2.656,4.326 -5.492,8.282 -8.779,12.111c-4.051,4.724 -8.599,9.051 -12.426,13.913c-3.061,4.007 -5.582,8.563 -9.049,12.251c-1.757,1.941 -3.288,3.612 -5.764,4.506c-2.792,1.123 -5.764,1.71 -8.375,3.063c-4.952,2.476 -9.318,5.231 -14.632,6.891c-3.647,1.212 -7.337,2.872 -9.995,5.577c-0.09,-4.594 4.276,-7.108 6.348,-10.758c1.442,-2.476 3.067,-5.897 3.692,-8.423c0.764,-3.153 -0.811,-4.76 -3.692,-6.037c-3.917,-1.531 -8.06,-2.884 -12.021,-4.327c-3.828,-1.531 -7.158,-3.103 -11.346,-3.012c-4.502,0.044 -9.048,0 -13.551,0c-3.737,0 -6.348,0.204 -9.95,1.481c-3.557,1.084 -7.024,3.33 -10.626,4.096c-4.907,0.919 -10.581,1.939 -15.623,1.302c-2.296,-0.216 -3.962,-1.531 -5.988,-2.425c-2.612,-1.123 -5.404,-1.378 -8.195,-1.889c-4.908,-0.894 -9.906,-0.255 -14.993,-1.149c-3.962,-0.638 -9.321,-0.766 -13.417,-0.255c-6.484,0.678 -12.607,3.703 -18.595,5.68c-2.792,0.944 -5.584,1.148 -8.375,2.297c-4.231,1.71 -7.473,3.726 -12.111,3.471c-3.152,-0.088 -5.944,-1.519 -9.14,-2.156c-2.385,-0.497 -4.501,-1.174 -6.573,-2.884c-1.622,-1.227 -3.114,-3.473 -3.918,-5.272c-0.901,-1.889 -0.224,-2.717 -2.431,-3.866c-2.117,-1.148 -5.899,-0.892 -8.24,-0.637c-7.924,0.625 -14.407,5.116 -22.602,4.096c-6.215,-0.804 -11.84,-2.566 -16.974,-6.254c-4.729,-3.197 -7.294,-9.859 -11.482,-13.866c-4.501,-4.378 -13.326,-6.076 -19.224,-6.713c-4.549,-0.537 -10.132,-2.119 -13.328,-5.718c-1.494,-1.66 -1.532,-2.514 -0.907,-4.544c1.216,-3.687 1.891,-7.375 2.746,-11.294c1.712,-7.66 3.737,-13.685 9.68,-19.045c2.837,-2.655 5.989,-4.595 8.555,-7.569c2.611,-3.062 5.177,-6.163 7.653,-9.226c2.298,-2.705 3.602,-5.807 6.709,-7.428c0.9,-0.383 1.343,-0.383 2.25,-1.02c1.71,-1.43 3.062,-3.816 4.368,-5.667c1.8,-2.438 4.187,-3.917 5.672,-6.534c1.216,-2.206 2.382,-4.952 2.881,-7.478c0.356,-1.979 1.174,-5.13 1.033,-7.16c-0.229,-1.801 -1.039,-3.063 -0.995,-5.131v-11.972c0,-5 -0.945,-11.113 -0.141,-16.027c0.541,-3.332 3.602,-5.987 3.602,-9.458c0,-3.025 -1.487,-2.769 -4.548,-3.28c-4.276,-0.64 -7.61,-1.277 -11.886,-1.277h-22.557c-3.829,0 -7.7,-0.293 -11.482,0.09c-2.791,0.254 -5.943,1.657 -8.824,1.02c-5.358,-1.306 -1.261,-12.919 1.395,-15.624c2.703,-2.884 6.033,-4.736 8.24,-8.156c1.71,-2.617 2.654,-5.591 4.411,-8.156c0.671,-0.907 1.399,-1.776 1.935,-2.796c0.803,-1.532 0.408,-3.381 1.123,-4.862c1.169,-2.781 4.858,-4.313 4.591,-7.874c-2.701,-2.068 -6.303,2.043 -9.049,0.766c0.088,-1.033 0.675,-1.441 1.033,-2.335c1.305,-3.687 1.931,-7.606 2.926,-11.435c1.169,-4.187 2.201,-8.284 3.196,-12.559c1.89,-9.051 2.566,-18.279 5.357,-27.059c0.675,-1.993 1.084,-3.882 1.174,-5.859c0,-0.892 -0.445,-2.335 0.091,-3.101c2.927,-4.62 11.48,-1.262 15.668,-3.471c3.647,-1.901 2.658,-10.669 6.934,-9.775c2.208,0.548 4.458,0.382 6.799,0.637c2.386,0.179 4.951,1.431 7.338,2.068c6.798,2.118 14.226,3.879 21.385,4.773c2.791,0.3 6.258,0.892 9.049,0.255c1.757,-0.358 2.703,-1.481 4.188,-2.247c4.367,-1.965 11.436,0 16.119,-0.255c4.773,-0.269 10.04,-2.259 14.723,-3.153c6.033,-1.301 11.839,-1.646 17.919,-1.391c2.251,0 3.693,0.383 5.943,0.894c3.691,0.765 7.473,0.254 11.255,1.02c3.061,0.678 5.492,2.272 8.644,2.655c2.791,0.32 4.863,1.277 7.474,2.297c5.942,2.363 14.092,3.43 20.485,3.383c6.079,-0.089 12.247,-0.255 18.28,0c7.294,0.126 14.184,1.531 21.522,1.02c3.782,-0.254 7.609,-0.765 11.346,-1.02c1.351,0 5.949,0.894 6.753,-0.637c1.124,-2.068 -3.373,-5.679 -4.368,-7.07c-1.352,-1.849 -2.299,-3.866 -3.332,-5.806c-2.252,-4.365 -5.357,-7.302 -9.905,-9.279c-3.061,-1.353 -5.988,-2.209 -8.644,-4.327c-0.36,-0.305 -6.306,-4.76 -6.573,-3.866c0.494,-2.259 1.886,-0.127 2.881,0.128c1.397,0.256 2.973,0.128 4.458,0.128c2.927,-0.126 5.854,-0.126 8.51,0.511c8.014,2.068 15.892,5.539 23.772,8.551c5.315,2.157 10.717,4.454 16.074,6.751c5.989,2.655 10.762,6.572 15.939,10.529c5.942,4.638 10.039,10.854 14.497,16.839c2.566,3.458 4.053,7.428 6.033,11.294c1.306,2.527 3.152,4.952 6.213,5.718c1.354,0.358 2.886,0.126 2.387,-1.851c0.232,0.128 0.409,0.255 0.499,0.383c6.078,4.058 11.662,8.602 16.704,13.821c6.213,6.214 13.642,12.69 16.884,20.846c0.719,1.889 1.936,3.51 2.791,5.309c1.127,2.068 0.807,3.368 1.306,5.577c0.809,3.511 2.611,7.032 4.096,10.402c2.608,5.672 2.787,12.654 3.872,18.639z" /> <path d="M421.264,121.547c0.358,3.778 0.715,7.428 1.085,11.168c0.536,5.947 -0.358,11.206 0.32,17.108c1.174,11.027 -3.377,21.027 -8.691,30.391c-2.746,4.824 -5.134,10.171 -7.338,15.262c-1.174,2.655 -2.207,4.862 -2.746,7.607c-0.625,3.153 -0.229,6.216 -0.855,9.279c-2.523,10.453 -9.905,18.595 -17.019,26.338c-5.628,6.126 -11.302,13.958 -19.361,16.973c-1.485,0.637 -5.267,1.672 -6.303,0.255c-0.267,-0.511 -0.907,-3.778 -1.123,-4.453c-0.945,-2.796 -1.306,-5.985 -1.53,-9.189c-0.358,-3.74 0.907,-5.859 2.072,-9.279c2.791,-8.156 6.618,-15.489 12.066,-22.376c2.658,-3.383 4.862,-6.394 6.889,-10.223c0.766,-1.302 1.665,-2.705 2.296,-4.096c0.945,-1.94 1.085,-4.544 2.25,-6.254c1.577,-2.387 3.647,-4.723 5.177,-7.338c2.701,-4.365 5.583,-8.156 7.968,-12.699c3.377,-6.483 7.745,-11.115 8.599,-18.639c0.536,-4.594 -0.855,-9.1 -0.677,-13.732c0.09,-1.851 0.32,-3.383 1.123,-5.093c1.085,-2.209 1.485,-3.242 1.757,-5.768c0.625,-4.862 2.027,-8.156 7.114,-8.551c1.665,-0.128 4.142,-1.02 5.222,0.128c0.907,1.02 0.677,5.806 1.712,3.101z" /> <path d="M366.905,63.456c1.802,5.808 0.715,4.098 0.09,1.302c-0.32,-1.39 -1.494,-7.939 -0.587,-8.959c2.295,-2.885 11.932,0.7 14.543,1.977c2.568,1.176 5.359,4.595 6.844,6.982c1.261,1.94 2.115,3.688 3.557,5.539c1.126,1.62 2.114,2.796 2.791,4.773c1.62,5.177 2.877,14.853 1.212,20.034c-2.297,7.341 0.983,14.404 0.179,21.973c-0.359,3.115 -1.257,7.032 -2.431,9.866c-1.124,2.972 -3.199,5.36 -4.411,8.244c-0.991,2.157 -2.524,3.6 -3.557,5.577c-0.629,1.352 -0.718,2.871 -1.395,4.148c-1.126,2.068 -3.423,3.599 -4.818,5.667c-3.467,5.314 -5.538,11.031 -8.329,16.749c-2.656,5.531 -7.384,10.357 -10.671,15.397c-2.206,3.33 -4.637,6.571 -6.709,9.954c-1.937,3.153 -2.341,6.752 -4.548,9.636c-3.782,4.991 -9.051,8.782 -13.327,13.147c-2.433,2.526 -4.953,5.972 -8.24,7.249c-6.168,2.297 -10.759,0.498 -15.082,-3.688c-3.196,-3.025 -6.977,-4.416 -9.184,-8.602c-1.217,-2.207 -1.932,-4.99 -1.396,-7.516c0.811,-3.368 4.008,-4.543 6.664,-6.164c4.368,-2.655 8.103,-5.896 12.021,-9.138c2.523,-2.171 5.36,-3.472 7.61,-5.859c1.35,-1.494 2.565,-3.063 3.961,-4.506c2.701,-2.846 6.078,-5.322 8.419,-8.334c2.884,-3.471 2.79,-7.887 4.096,-12.073c1.302,-3.904 1.621,-7.912 2.476,-12.06c0.811,-3.816 1.395,-8.589 3.107,-12.15c1.575,-3.28 3.377,-5.003 5.943,-7.338c2.433,-2.208 4.816,-5.59 6.08,-8.602c1.305,-3.292 3.6,-5.322 5.177,-8.423c3.284,-6.213 4.317,-12.874 3.692,-19.765c-0.901,-8.554 -2.978,-16.571 -3.782,-25.032z" /> <path d="M310.556,28.865c5.447,4.748 3.465,4.748 2.115,3.599c-1.212,-1.123 -1.3,-1.645 -2.207,-2.922c-1.531,-2.157 -1.977,-3.547 -2.476,-6.164c-0.447,-2.066 -1.842,-4.403 1.174,-5.04c0.989,-0.254 4.502,0.128 5.357,0.383c1.845,0.357 2.699,1.481 4.411,2.118c2.387,0.894 3.782,0.256 6.348,-0.255c4.771,-0.818 8.013,3.829 10.085,7.338c1.441,2.616 2.068,6.074 3.153,8.87c1.17,2.884 1.485,5.718 2.791,8.602c2.429,5.308 3.056,11.345 4.141,17.063c1.211,6.438 3.201,12.737 2.027,19.45c-1.215,7.072 -8.96,10.492 -12.156,16.477c-2.572,4.635 -2.471,8.413 -3.287,13.237c-0.809,4.866 -2.299,9.269 -2.566,14.183c-0.223,4.773 -2.926,8.156 -4.591,12.521c-2.117,5.674 -4.278,10.893 -7.159,16.343c-2.881,5.583 -6.753,10.127 -10.31,15.308c-2.927,4.275 -4.728,9.189 -8.555,12.967c-4.007,4.008 -6.706,6.395 -11.975,3.242c-4.727,-2.743 -8.236,-5.04 -9.5,-10.171c-0.948,-3.828 -1.757,-10.668 0.358,-14.408c1.304,-2.388 4.546,-5.539 6.573,-7.748c2.161,-2.386 4.637,-4.862 6.887,-7.338c5.132,-5.583 7.923,-12.513 12.426,-18.639c5.449,-7.428 7.745,-16.294 10.536,-24.717c2.746,-8.283 3.824,-15.672 4.411,-24.223c0.721,-10.939 -0.946,-21.381 -2.926,-32.101c-1.26,-6.217 -3.823,-11.665 -5.087,-17.919z" /> <path d="M245.947,17.683c3.785,4.236 3.518,3.854 3.377,3.599c-0.81,-0.047 -1.621,-0.047 -2.387,0c-1.302,-1.978 -0.995,-4.328 -0.766,-6.305c0.141,-1.8 -0.358,-3.369 -0.358,-5.309c-0.088,-3.702 0.811,-10.76 6.799,-9.1c1.576,0.409 3.557,2.03 4.953,2.796c2.07,0.995 4.186,2.143 6.258,3.292c4.592,2.385 9.185,4.861 14.047,7.07c4.772,2.195 9.86,6.023 12.156,10.529c2.57,4.867 2.697,12.116 3.782,17.514c1.578,8.06 3.965,15.709 2.701,23.953c-1.216,7.565 -2.076,15.22 -2.701,22.827c-0.901,9.725 -0.901,19.762 -4.503,29.22c-3.061,8.013 -7.743,15.312 -11.525,23.007c-2.838,5.948 -6.438,12.201 -11.437,17.063c-1.622,1.62 -3.784,4.504 -5.764,5.398c-1.622,0.765 -5.087,1.276 -6.979,1.531c-5.765,0.536 -6.395,-2.527 -4.999,-6.534c1.395,-4.136 3.106,-7.518 3.961,-11.793c1.352,-6.031 4.233,-12.197 6.709,-17.965c1.755,-4.098 4.908,-7.735 6.393,-11.972c1.262,-3.509 1.174,-7.197 2.207,-10.758c4.952,-17.83 7.024,-36.559 2.656,-54.209c-1.037,-4.198 -2.885,-8.014 -3.918,-12.251c-1.079,-4.327 -2.791,-7.123 -6.348,-9.866c-3.198,-2.476 -6.349,-4.914 -9.636,-7.249c-1.576,-1.214 -4.184,-2.617 -4.683,-4.506z" /> <path d="M197.88,29.908c2.48,5.272 2.297,0.32 1.174,-1.71c-0.946,-1.671 -2.342,-1.671 -2.431,-4.096c0,-3.854 2.746,-5.539 6.348,-4.237c3.737,1.302 6.528,2.743 9.86,4.773c3.376,1.98 6.122,2.937 10.04,3.957c3.782,0.996 8.735,2.795 10.265,6.394c1.846,4.274 1.936,9.903 2.791,14.497c1.936,9.545 3.736,19.05 5.628,28.634c1.396,6.887 3.869,14.18 4.368,21.25c0.493,7.79 -0.997,15.898 -1.264,23.683c-0.315,8.238 -3.287,15.977 -6.979,23.546c-1.395,2.795 -3.152,6.75 -5.267,8.959c-1.126,1.122 -4.413,2.948 -6.213,2.565c-1.848,-0.319 -2.07,-1.71 -2.115,-3.561c-0.222,-3.509 0.675,-7.39 1.174,-10.899c0.812,-5.946 2.291,-12.518 1.845,-18.414c-0.448,-5.448 -1.085,-11.254 -0.677,-16.704c1.397,-15.67 0.316,-29.941 -5.807,-44.349c-2.838,-6.703 -5.81,-12.421 -10.536,-18.189c-3.557,-4.364 -11.793,-10.044 -12.201,-16.119z" /> <path d="M166.917,53.431c-0.229,3.383 5.763,4.506 7.968,6.342c2.836,2.335 4.683,5.272 6.529,8.282c1.53,2.655 3.242,3.292 5.492,5.36c7.564,7.16 10.175,19.812 12.067,29.31c0.907,4.544 2.521,9.405 2.072,14.048c-0.408,4.096 -0.358,8.282 -0.587,12.251c-0.358,6.662 1.174,14.048 -0.945,20.441c-0.587,1.94 -1.264,4.327 -3.467,5.36c-2.207,0.894 -8.24,-0.383 -10.356,-1.02c-8.555,-2.796 -5.449,-19.27 -5.672,-25.078c-0.267,-9.954 -1.757,-19.497 -3.918,-29.222c-1.033,-4.773 -3.961,-9.546 -7.202,-13.462c-1.174,-1.481 -2.701,-2.476 -3.602,-4.186c-1.085,-1.977 -1.665,-3.65 -3.467,-5.36c-4.053,-3.919 -10.221,-10.72 -6.618,-16.389c2.25,-3.42 3.737,-3.509 7.653,-4.811c2.566,-0.894 1.264,-0.766 3.692,-0.511c1.757,0.255 5.449,0.255 0.358,-1.391z" /> <path d="M135.081,102.515c6.393,7.34 4.542,6.395 3.827,4.544c-0.536,-1.086 -0.536,-2.68 -0.715,-3.829c-0.536,-2.795 -1.213,-5.576 -1.621,-8.372c-0.305,-1.531 -1.258,-3.279 0.499,-4.632c2.382,-1.722 1.712,0.51 3.377,0.255c3.287,-0.356 5.493,-2.743 9.275,-2.743c2.386,4.271 5.446,8.775 7.338,13.102c0.996,2.206 0.817,5.181 1.442,7.478c0.765,3.203 2.431,6.535 3.737,9.636c1.261,2.793 2.433,5.091 2.791,8.065c0.307,2.386 -0.408,4.378 -0.229,6.713c0.539,5.802 0.451,9.988 -1.306,15.668c-1.035,3.459 -4.997,10.899 -6.618,4.096c-1.124,-4.595 -3.292,-8.55 -4.096,-13.235c-1.305,-6.753 -2.882,-12.7 -5.628,-18.954c-1.845,-4.312 -4.772,-8.193 -7.968,-11.702c-1.665,-1.851 -4.007,-3.472 -4.096,-6.037z" /> <path d="M257.38,274.607c-4.28,10.133 -4.101,8.321 -3.872,5.896c0.05,-1.622 0.637,-2.438 0.995,-3.919c1.034,-4.689 1.98,-9.142 4.591,-13.507c3.871,-6.666 8.599,-13.544 13.686,-19.403c2.928,-3.28 6.753,-5.665 10.13,-8.461c1.711,-1.441 2.88,-2.884 4.907,-3.65c1.935,-0.765 4.818,-1.544 6.483,0.255c0.805,0.907 0.767,2.03 1.8,2.796c1.847,1.277 3.242,0.511 5.134,0.128c2.295,-0.3 5.672,-0.766 8.013,-0.255c3.019,0.625 1.756,3.33 1.845,5.985c0,2.705 -0.587,4.773 -1.174,7.478c-1.531,6.346 -3.917,12.384 -6.483,18.28c-1.035,2.423 -2.119,4.773 -3.242,7.108c-0.856,1.979 -2.703,8.934 -4.548,10.083c-2.342,1.657 -1.847,0.126 -4.638,0.637c-2.884,0.677 -4.684,4.556 -6.08,6.803c-5.762,9.23 -12.336,17.877 -18.143,27.103c-10.131,15.803 -14.858,34.532 -18.595,52.812c-1.576,7.614 -6.438,12.296 -10.31,18.729c-4.683,7.565 -6.393,16.753 -12.021,23.773c-6.755,8.464 -14.183,15.392 -20.441,24.492c-2.342,3.288 -8.015,10.804 -5.584,15.489c1.441,2.949 5.808,1.788 8.464,0.511c6.302,-3.021 12.875,-7.653 17.243,-13.192c1.17,-1.431 1.712,-2.68 3.377,-3.957c4.006,-3.012 9.051,-4.632 13.327,-7.249c5.762,-3.7 11.165,-8.193 16.748,-12.251c9.906,-7.248 21.07,-15.537 28.049,-25.887c7.024,-10.626 18.505,-17.698 24.853,-28.546c2.792,-4.773 7.249,-8.141 12.156,-10.758c2.07,-0.984 3.467,-2.043 6.123,-0.894c2.249,0.892 2.521,3.612 4.456,4.632c6.845,3.753 13.193,-10.299 18.55,-1.02c1.165,2.169 1.626,4.147 1.485,6.534c-0.178,4.365 -2.208,8.194 -1.123,12.647c1.71,6.569 7.789,11.214 10.265,17.468c2.476,6.574 2.701,13.821 5.853,20.126c1.846,3.778 3.827,8.193 7.564,10.402c3.601,2.119 7.969,2.438 10.58,6.126c5.402,7.474 6.936,15.309 8.148,24.447c1.576,12.245 4.863,24.313 9.636,35.748c1.667,4.134 4.862,7.516 7.069,11.294c2.249,3.917 3.6,8.373 6.887,11.665c2.07,2.08 4.862,3.204 7.023,5.181c3.287,3.063 5.493,7.376 7.114,11.524c6.348,16.388 3.467,35.927 -3.332,51.731c-1.305,3.153 -0.991,7.644 -2.926,10.44c-0.677,-1.264 -0.141,-3.561 -0.141,-4.952c0,-3.292 -0.091,-6.624 0,-9.954c0,-2.348 0.09,-4.325 -0.995,-6.534c-1.08,-2.335 -1.978,-5.31 -3.152,-7.607c-1.845,-3.369 -4.411,-6.433 -6.483,-9.763c-1.126,-1.798 -2.522,-6.292 -4.818,-6.929c-0.408,1.213 -0.267,2.629 -0.267,3.778c0.089,2.169 -0.269,3.7 -0.715,5.768c-0.587,2.794 -0.497,5.448 -1.174,8.244c-0.722,3.011 -1.165,5.948 -2.072,8.87c-1.042,3.191 -0.315,6.662 -1.757,9.636c-2.431,4.772 -4.862,9.546 -8.329,13.642c-5.853,7.157 -13.011,13.508 -19.404,20.17c-15.308,15.711 -29.31,33.136 -42.457,50.65c-3.601,4.815 -6.257,10.124 -10.31,14.451c-3.51,3.637 -7.202,7.071 -10.444,10.937c-5.58,6.714 -11.254,13.592 -18.143,18.864c-3.917,3.025 -7.609,6.393 -11.121,9.954c-3.107,3.063 -5.495,6.803 -8.691,9.866c-5.448,5.133 -12.023,8.463 -17.2,13.913c-2.971,2.973 -5.627,6.484 -8.959,9.189c-3.467,2.922 -6.979,5.68 -10.356,8.602c-4.637,4.045 -9.86,7.874 -15.578,10.171c-5.672,2.297 -11.436,3.191 -16.793,6.254c-5.899,3.1 -11.074,6.981 -16.658,10.669c-2.971,1.978 -6.438,2.693 -9.68,4.365c-2.838,1.479 -5.359,3.062 -8.24,4.453c-4.366,1.888 -8.103,2.743 -12.741,3.509c-4.187,0.766 -8.463,0.129 -12.651,0.766c-2.161,0.37 -5.449,2.949 -7.61,1.672c0.856,-0.587 1.979,-1.123 2.656,-1.889c1.353,-1.569 0.549,-1.979 0.907,-3.778c0.405,-1.685 1.71,-1.814 3.016,-2.834c1.757,-1.391 3.242,-3.419 4.999,-4.862c3.647,-3.05 7.113,-5.627 11.346,-7.874c3.24,-1.748 6.933,-2.783 10.129,-4.544c6.26,-3.47 9.367,-9.137 13.778,-14.497c5.446,-6.661 11.929,-11.844 18.009,-17.829c3.781,-3.561 8.06,-6.306 12.021,-9.636c3.106,-2.654 6.122,-5.435 9.094,-8.231c5.987,-5.448 13.012,-10.668 16.208,-18.325c1.891,-4.451 4.413,-8.51 6.709,-12.785c2.115,-4.096 3.826,-8.461 6.033,-12.468c1.624,-3.063 3.557,-5.947 6.08,-8.156c3.242,-2.884 7.249,-4.556 10.401,-7.478c6.168,-5.672 10.582,-12.375 14.543,-19.765c2.161,-4.096 4.368,-8.053 6.979,-12.06c2.746,-4.058 4.366,-8.156 6.438,-12.609c3.693,-8.105 8.691,-16.079 13.958,-23.187c2.16,-2.975 3.782,-6.128 5.267,-9.458c1.531,-3.471 3.512,-6.266 5.492,-9.367c2.568,-4.091 4.413,-8.775 6.844,-13.012c1.801,-3.116 3.867,-6.484 4.862,-10.045c1.081,-3.79 1.619,-7.301 3.196,-10.989c0.677,-1.584 1.584,-3.881 0.677,-5.68c-2.341,0.713 -4.368,3.688 -6.168,5.219c-2.701,2.438 -5.763,4.274 -8.644,6.483c-1.802,1.479 -2.973,3.05 -5.449,2.922c-2.742,-0.177 -2.027,-1.658 -2.027,-4.096c0.092,-3.638 1.491,-7.02 2.027,-10.529c0.584,-3.829 1.265,-7.657 1.98,-11.486c0.811,-4.543 0.854,-8.691 2.926,-12.877c1.033,-2.246 1.403,-4.773 2.207,-7.16c0.358,-0.907 1.123,-1.468 0.587,-2.617c-1.53,0 -4.233,1.788 -5.718,2.425c-2.206,0.983 -4.053,2.706 -5.898,4.275c-3.153,2.566 -6.71,4.455 -9.636,7.16c-1.172,1.174 -2.208,2.609 -3.918,2.565c-0.224,-1.977 1.626,-5.68 2.072,-7.657c0.543,-2.476 2.077,-4.685 2.523,-7.02c0.267,-1.161 0.141,-2.322 0.408,-3.599c0.631,-2.796 2.071,-5.501 3.377,-8.015c4.952,-8.826 9.096,-18.194 14.273,-26.834c2.161,-3.637 4.953,-6.841 7.114,-10.44c2.618,-4.678 2.337,-8.864 3.422,-13.778c0.678,-3.241 1.984,-8.372 0.499,-11.702c-2.838,0.625 -4.188,7.287 -6.08,9.584c-1.17,-6.637 -4.997,-4.251 -8.464,-1.277c-5.133,4.415 -12.022,7.478 -17.965,10.669c-6.979,3.783 -11.256,9.501 -16.163,15.397c-3.784,4.325 -7.745,8.065 -11.617,12.251c-3.422,3.689 -4.368,8.322 -6.483,12.737c-3.962,8.461 -13.011,13.35 -22.151,12.967c-8.556,-0.307 -15.94,-2.017 -24.088,1.94c-6.078,2.92 -9.365,7.388 -13.147,12.786c-3.196,4.507 -3.692,9.496 -6.168,14.181c-2.522,4.543 -6.259,6.203 -11.346,5.309c-7.968,-1.404 -15.893,2.516 -24.087,2.425c-7.113,0 -14.182,-0.09 -21.341,0c-7.205,0.126 -6.89,-4.06 -8.87,-9.866c-1.034,-2.972 -3.284,-4.773 -4.726,-7.516c-1.98,-3.599 -3.061,-6.893 -5.537,-10.223c-4.278,-5.81 -3.201,-13.867 -2.972,-21.027c0.092,-6.669 5.358,-10.677 6.664,-17.019c1.308,-6.842 1.397,-15.221 5.269,-21.385c2.612,-4.364 7.069,-8.066 10.941,-11.346c1.305,-1.161 2.566,-2.171 4.096,-3.191c7.293,-4.45 8.734,-10.22 13.686,-16.792c2.927,-3.868 6.076,-7.339 8.599,-11.346c2.297,-3.65 4.548,-6.75 7.249,-10.133c3.872,-4.776 7.249,-9.549 10.13,-14.947c2.883,-5.535 5.087,-11.215 8.24,-16.524c4.322,-7.069 9.59,-13.469 13.643,-20.756c3.826,-6.887 7.203,-14.051 11.075,-20.98c10.716,-18.82 21.477,-37.505 32.912,-55.829z" /> <path d="M518.199,571.959c-0.408,1.851 -0.816,3.688 -1.621,5.36c-0.179,0.511 7.294,0.383 7.968,0.255c5.672,-1.02 10.671,-3.778 16.524,-3.28c3.377,0.128 6.168,1.66 9.455,2.476c1.98,0.511 3.872,0.894 5.943,0.637c3.287,-0.637 5.672,-3.063 8.148,-5.131c8.013,-6.572 18.235,-9.954 27.014,-15.443c3.827,-2.387 6.438,-6.433 10.536,-8.461c3.692,-1.889 6.618,-0.894 10.536,-1.66c4.683,-1.02 7.474,-4.914 11.84,-6.803c4.999,-2.156 10.716,-1.977 15.578,-4.453c5.314,-2.565 8.779,-7.785 14.273,-10.133c7.968,-3.471 17.289,-7.07 25.933,-8.461c7.564,-1.277 14.136,0.894 19.63,6.394c3.872,3.829 7.745,8.73 9.725,14.001c2.387,6.254 2.791,13.417 5.583,19.495c0.816,1.672 1.98,3.153 2.926,4.685c1.485,2.297 2.341,4.594 3.422,7.07c1.53,4.148 3.287,8.423 3.377,12.832c0.141,5.181 0,10.453 0,15.668c0,1.531 0.945,8.282 -0.091,9.584c-1.892,2.565 -4.458,-1.481 -5.269,-3.063c-1.35,-2.526 -1.306,-5.093 -2.836,-7.428c-1.53,-2.247 -2.566,-4.773 -4.548,-6.841c-1.757,-1.761 -1.757,-3.969 -3.377,-5.68c-3.242,-3.599 -3.107,2.617 -3.647,4.914c-1.396,6.433 -3.287,11.614 -6.258,17.514c-3.107,6.342 -3.512,14.183 -8.06,19.675c-4.276,5.093 -6.889,11.256 -11.031,16.524c-1.935,2.476 -3.422,4.007 -4.503,7.02c-1.264,3.101 -3.242,5.219 -4.953,8.104c-3.961,6.841 -7.114,13.686 -11.66,20.081c-3.287,4.632 -6.438,9.189 -9.635,13.732c-5.087,7.02 -10.401,13.731 -15.443,20.71c-7.968,10.899 -15.847,21.792 -24.177,32.506c-3.647,4.773 -6.979,9.725 -11.031,14.316c-3.782,4.186 -8.06,7.478 -12.201,11.346c-9.68,9.01 -20.17,16.659 -31.425,23.412c-5.222,3.101 -10.31,6.433 -15.443,9.405c-5.177,3.012 -10.58,5.093 -15.758,7.874c-5.537,2.974 -10.716,6.929 -16.569,9.367c-5.087,2.068 -9.5,4.058 -14.182,6.982c-4.726,2.974 -9.636,4.952 -14.587,7.287c-6.168,2.922 -11.705,6.572 -17.514,10.083c-4.411,2.705 -8.375,5.947 -12.921,8.461c-3.692,1.977 -6.979,2.884 -10.851,4.275c-7.789,2.655 -14.902,6.394 -22.781,8.921c-7.249,2.209 -14.452,4.186 -21.657,6.216c-3.377,1.02 -6.799,0.894 -10.085,1.672c-2.115,0.383 -4.638,2.209 -6.753,1.569c-0.499,-1.977 3.242,-4.327 4.411,-5.577c3.152,-3.153 6.168,-7.02 10.085,-9.317c4.683,-2.743 8.464,-6.751 12.741,-10.045c4.773,-3.74 10.129,-6.483 14.993,-10.133c3.827,-2.922 7.294,-6.254 11.075,-9.367c2.791,-2.297 5.583,-3.153 8.779,-4.544c4.053,-1.761 7.745,-4.045 11.121,-6.929c8.329,-6.929 18.1,-10.632 26.968,-16.704c3.647,-2.476 7.338,-4.453 11.075,-6.841c3.827,-2.387 7.023,-5.768 10.716,-8.282c5.672,-3.919 12.426,-5.859 17.693,-10.083c4.053,-3.242 7.789,-6.891 11.525,-10.402c7.474,-7.07 15.262,-13.507 21.522,-21.747c5.222,-6.891 9.995,-14.046 15.128,-20.935c4.548,-5.947 10.444,-11.486 13.282,-18.369c1.396,-3.561 2.25,-7.16 4.007,-10.529c2.072,-3.778 4.368,-7.478 6.438,-11.256c1.442,-2.884 3.196,-5.577 4.772,-8.461c1.212,-2.387 1.712,-5.002 2.791,-7.338c2.611,-5.589 6.303,-11.793 9.77,-16.839c1.395,-2.156 3.107,-2.297 4.591,-4.045c1.174,-1.481 0.855,-3.688 2.341,-5.002c1.712,-1.71 3.827,-1.391 5.222,-3.65c1.395,-2.118 1.264,-4.594 2.746,-6.751c2.026,-3.33 5.583,-5.985 7.789,-9.405c3.061,-4.862 7.338,-9.367 9.95,-14.497c0.907,-1.94 6.753,-16.028 2.972,-16.343c-3.061,2.617 -3.961,6.483 -7.159,9.048c-2.026,1.531 -4.862,2.03 -7.023,3.957c-2.115,1.851 -3.827,3.74 -6.393,4.914c-3.692,1.71 -7.204,1.02 -11.031,1.569c-12.741,1.621 -15.847,12.06 -21.611,21.43c-2.296,3.778 -6.753,7.428 -6.753,12.342c1.935,-2.922 2.296,-6.394 1.935,-9.763c-0.229,-1.621 -1.123,-2.655 -1.442,-3.778c-0.229,-1.569 0.09,-3.153 -0.179,-4.773c-1.53,-8.015 -10.894,-8.73 -17.514,-9.546c-12.426,-1.391 -24.312,2.655 -36.513,4.365c-1.892,0.255 -3.827,0.255 -5.807,0.128c-7.745,-0.128 -12.697,-0.255 -19.72,3.509c-9.905,5.45 -18.143,-4.453 -27.644,-5.181c-7.518,-0.637 -10.759,-4.453 -14.947,-9.954c-4.233,-5.577 -3.512,-7.748 -1.621,-14.048c2.656,-8.73 9.95,-16.208 11.932,-25.618c0.855,-4.506 0.945,-8.959 1.485,-13.551c0.267,-2.387 1.174,-4.685 2.115,-6.841c1.35,-3.191 3.647,-5.398 4.862,-8.78c0.995,-2.884 1.174,-5.985 2.476,-8.959c0.677,-1.569 1.577,-3.28 2.387,-4.862c1.485,-2.705 3.377,-5.131 5.177,-7.569c5.988,-7.785 12.021,-15.668 20.62,-20.665c4.276,-2.526 8.015,-5.181 12.067,-7.964c5.402,-3.599 11.255,-6.572 15.532,-11.168c-1.306,3.101 -0.907,5.947 -0.945,9.189c0,2.565 -0.091,5.131 -0.229,7.748c0.267,1.761 1.306,2.335 3.152,1.799c1.53,-0.255 2.701,0.091 3.602,1.353c0.408,2.118 0.536,4.327 0.32,6.483c0,5.488 -0.229,10.81 -1.712,16.208c-2.656,9.279 -7.745,18.234 -11.84,26.968c-2.972,6.164 -6.168,12.43 -8.644,18.774c-0.499,1.02 -0.766,1.977 -0.995,3.012z" /> <path d="M182.904,219.849c-4.952,-0.511 -11.932,11.486 -14.002,14.633c-5.718,9.048 -11.84,17.964 -17.334,27.239c-13.732,23.276 -21.7,49.885 -29.221,75.863c-5.492,19.27 -10.265,38.179 -12.877,58.215c-1.757,13.237 -3.602,26.473 -5.764,39.619c-1.665,10.35 -1.53,21.297 -2.25,31.833c-0.141,2.476 -0.229,5.002 -0.446,7.478c-0.267,3.063 -1.577,4.685 -2.296,7.516c-3.016,12.786 2.881,25.529 2.431,38.136c-0.229,7.926 3.152,15.308 3.377,22.96c0.229,5.985 -6.393,6.891 -10.671,4.327c-10.626,-6.572 -17.378,-22.016 -22.961,-32.822c-2.566,-5.002 -5.449,-9.636 -5.718,-15.353c-0.587,-9.048 1.53,-18.416 1.845,-27.465c0.715,-19.18 0.089,-38.269 1.8,-57.404c1.264,-12.786 7.61,-22.061 13.867,-32.732c6.618,-11.206 11.39,-22.241 13.551,-35.298c1.123,-7.569 1.212,-13.416 -1.845,-20.126c-4.053,-8.921 -6.618,-13.102 -4.096,-23.142c2.161,-8.959 4.591,-17.829 10.356,-25.078c6.664,-8.372 15.893,-14.724 24.042,-21.207c8.195,-6.572 16.704,-13.913 23.096,-22.376c3.377,-4.453 6.08,-10.045 9.049,-14.902c2.476,-3.688 4.141,-7.569 6.08,-11.524c2.296,-4.811 3.061,-5.002 7.429,-6.254c1.212,-0.383 3.602,-1.94 4.772,-1.391c0.816,0.383 1.757,4.148 2.207,5.219c0.907,2.297 2.027,4.773 2.431,7.39c1.033,6.433 -2.341,9.636 3.153,6.662z" /> <path d="M71.937,229.52c-0.092,7.474 0.809,-9.138 11.525,-20.216c2.791,-2.884 5.672,-4.672 9.86,-3.778c3.563,0.906 4.009,3.382 4.188,6.891c0.315,4.275 -1.08,5.041 -2.972,8.461c-2.519,4.364 -2.7,9.955 -4.726,14.587c-2.072,4.504 -4.772,8.69 -6.168,13.552c-1.754,6.393 -1.625,13.013 -1.396,19.585c0.45,15.801 -4.952,29.175 -8.734,44.392c-4.007,15.893 -5.942,30.66 -15.217,44.706c-8.736,13.192 -14.634,27.6 -22.287,41.331c-6.887,12.471 -12.651,24.899 -15.082,39.035c-2.428,14.632 -1.803,29.13 -1.892,43.942c0,7.474 -0.32,14.898 0.179,22.376c0.856,11.346 4.008,22.695 6.258,33.722c3.467,16.793 6.664,33.408 10.536,50.156c2.792,12.113 8.375,23.859 10.175,36.289c0.458,2.833 0.088,5.858 0.229,8.78c-2.021,-1.62 -2.021,-3.597 -3.016,-5.806c-0.991,-2.12 -2.203,-3.561 -3.467,-5.45c-1.62,-2.566 -2.569,-5.576 -3.692,-8.372c-2.207,-5.672 -5.179,-10.088 -8.24,-15.397c-6.753,-12.066 -11.031,-25.441 -17.154,-37.909c-6.348,-13.146 -10.805,-24.042 -10.716,-38.99c0.092,-9.273 1.751,-18.364 1.892,-27.553c0.274,-10.085 0,-20.171 -0.046,-30.254c0,-19.992 1.127,-39.396 4.188,-59.161c4.007,-26.789 13.238,-53.038 23.818,-78.025c5.538,-13.012 12.967,-24.987 18.685,-37.864c8.553,-19.226 15.487,-39.53 23.276,-59.025z" /></svg>