<svg xmlns="http://www.w3.org/2000/svg" viewBox="0 0 1024 832" width="1024" height="832"><path d="M512,272c114.876,0 208,93.124 208,208c0,114.876 -93.124,208 -208,208c-114.876,0 -208,-93.124 -208,-208c0,-114.876 93.124,-208 208,-208zM1024,192v576c0,35.2 -28.8,64 -64,64h-896c-35.2,0 -64,-28.8 -64,-64v-576c0,-35.2 28.8,-64 64,-64h224c16,-64 32,-128 96,-128h256c64,0 80,64 96,128h224c35.2,0 64,28.8 64,64zM796,480c0,-156.85 -127.148,-284 -284,-284c-156.85,0 -284,127.15 -284,284c0,156.852 127.15,284 284,284c156.854,0 284,-127.148 284,-284zM960,256h-128v64h128z" /></svg>