<svg xmlns="http://www.w3.org/2000/svg" viewBox="0 0 609 846" width="609" height="846"><path d="M608.198,119.249l-0.009,-0.096c0.084,0.777 0.128,1.567 0.128,2.367c0,1.053 -0.076,2.087 -0.208,2.984l-2.452,32.231v1.664l-4.642,30.918v29.954l0.963,32.319v32.844l-1.051,32.056l1.489,31.18v0.788l-0.002,-0.035c0.023,0.271 0.035,0.546 0.035,0.823c0,0.277 -0.012,0.552 -0.033,0.788c-2.04333,21.13733 -3.941,42.30367 -5.693,63.499l1.577,30.742v1.051c-0.701,21.458 -0.701,42.829 -0.701,64.287v0.963l-2.803,31.618l1.927,31.18v1.752l-3.153,31.793l1.226,31.18v1.314l-4.73,33.02l1.577,31.355v0.613l-0.002,-0.016c0.022,0.147 0.034,0.3 0.034,0.454c0,0.154 -0.012,0.307 -0.033,0.438l-5.168,31.793l1.839,31.531l-0.007,-0.025c0.09,0.315 0.138,0.647 0.138,0.989c0,0.342 -0.048,0.674 -0.131,0.963l-14.189,27.94l-0.002,-0.01c0.021,0.101 0.032,0.207 0.032,0.316c0,0.109 -0.011,0.215 -0.03,0.307l-21.458,20.758l-29.779,12.174l28.115,-14.889l18.48,-22.422l10.948,-27.502l-4.379,-31.18l0.002,0.014c-0.022,-0.132 -0.034,-0.269 -0.034,-0.408c0,-0.139 0.011,-0.276 0.032,-0.394v-0.526l2.628,-31.443l-4.204,-31.18l0.002,0.014c-0.022,-0.132 -0.034,-0.269 -0.034,-0.408c0,-0.139 0.011,-0.276 0.032,-0.394v-0.613l1.226,-31.268l-3.241,-31.793l0.002,0.013c-0.02,-0.118 -0.03,-0.24 -0.03,-0.363c0,-0.123 0.01,-0.245 0.028,-0.35v-0.876l0.963,-31.093l-3.854,-31.618v-1.752l0.701,-31.443c-1.139,-21.108 -2.015,-42.304 -2.628,-63.412l-3.328,-32.144l0.002,0.028c-0.023,-0.225 -0.035,-0.454 -0.035,-0.685c0,-0.231 0.012,-0.46 0.033,-0.657v-0.963c0.584,-20.962 1.37233,-41.95333 2.365,-62.974l-2.715,-31.443v-33.895l-0.876,-31.618l-2.19,-31.969v-3.679c-5.342,3.066 -9.547,5.519 -16.203,8.759c-6.656,3.24 -13.313,6.569 -19.969,9.634l0.037,-0.015c-0.786,0.365 -1.662,0.569 -2.585,0.569c-2.408,0 -4.492,-1.388 -5.511,-3.444l-0.613,-1.314c-3.504,-7.708 -7.445,-15.24 -10.598,-23.035c-3.153,-7.795 -7.095,-15.328 -10.598,-23.035c-3.503,-7.707 -7.007,-15.415 -10.072,-23.385l-4.379,-11.298c-6.569,2.627 -13.05,5.255 -19.619,7.707c-10.773,3.853 -21.545,7.62 -32.406,11.123l-1.139,0.876l0.08,-0.023c-1.139,0.382 -2.358,0.589 -3.626,0.589c-5.019,0 -9.279,-3.248 -10.818,-7.836v-0.526c-2.365,-8.759 -4.992,-17.517 -6.832,-26.276c-1.84,-8.759 -4.993,-17.517 -7.27,-26.276l0.467,1.674c-2.782,-8.609 -5.084,-17.434 -7.124,-27.949c-1.751,-9.021 -3.24,-18.392 -4.379,-27.151c4.379,7.883 9.11,15.765 13.138,23.911c4.028,8.146 8.671,16.028 12.787,24.086l-0.588,-1.131c4.413,7.805 8.378,15.897 12.412,25.742c1.84,4.642 3.591,8.934 5.343,13.401c17.51667,-7.24067 35.03367,-14.21833 52.551,-20.933h0.438l-0.085,0.03c1.436,-0.569 3.004,-0.882 4.644,-0.882c5.385,0 9.981,3.374 11.819,8.21v0.526l7.97,23.998l7.883,24.173c2.54,8.058 5.08,16.115 7.094,24.436c1.752,6.393 3.153,12.875 4.642,19.356l14.539,-2.803c6.131,-0.963 12.349,-1.927 18.568,-2.715l-1.139,-27.327l0.004,0.049c-0.046,-0.404 -0.07,-0.815 -0.07,-1.232c0,-0.417 0.024,-0.827 0.066,-1.182v-0.876l3.328,-31.18l1.051,-28.553l-7.007,-28.903l0.002,0.047c-0.023,-0.348 -0.034,-0.7 -0.034,-1.054c0,-0.354 0.012,-0.706 0.032,-1.007v-0.613l-2.19,-21.896l-14.189,-12.262l-20.758,-8.058l-25.224,3.679l0.057,-0.004c-0.451,0.046 -0.908,0.069 -1.371,0.069c-0.463,0 -0.92,-0.023 -1.314,-0.065h-30.918l-30.129,2.102h-2.452l-31.618,-0.788l-29.341,-2.277l-29.253,2.628l-31.443,1.839h-2.978l-30.655,-1.839l-28.29,-1.051l-20.057,2.89c-1.489,8.321 -3.065,16.028 -5.43,24.787c-2.365,8.759 -3.941,17.517 -6.131,26.276l-0.701,3.508c-4.202,17.752 -9.319,35.148 -14.189,48.518l-0.023,0.08c-1.487,4.503 -5.73,7.752 -10.731,7.752c-1.26,0 -2.471,-0.206 -3.523,-0.563h-1.139c-17.51733,-5.83867 -34.77167,-12.37833 -51.763,-19.619c-4.555,11.999 -9.284,23.56 -14.189,35.034l-10.51,23.035c-3.416,7.708 -7.444,15.24 -11.123,22.86l-1.314,1.489l-0.016,0.034c-1.027,1.948 -3.072,3.276 -5.427,3.276c-0.881,0 -1.72,-0.186 -2.439,-0.506c-6.656,-3.065 -13.225,-6.306 -19.794,-9.459l-11.649,-6.131v33.545l-0.002,-0.057c0.023,0.41 0.035,0.823 0.035,1.239c0,0.416 -0.012,0.828 -0.033,1.182l-3.153,31.881l-2.365,31.093v30.48l0.963,30.83l4.379,30.655v0.175l-0.025,-0.146c0.298,1.463 0.453,2.976 0.453,4.525c0,1.549 -0.155,3.062 -0.428,4.379l-7.094,29.341l0.876,29.341l-0.526,31.531l3.416,30.48v0.876l-0.007,-0.086c0.069,0.691 0.105,1.392 0.105,2.101c0,0.709 -0.037,1.41 -0.099,2.014l-3.065,31.531v32.669l-2.89,30.742l2.628,30.48l0.963,32.932v0.701l-0.007,-0.077c0.071,0.629 0.107,1.268 0.107,1.916c0,0.648 -0.038,1.287 -0.101,1.839l-5.868,29.429l3.503,28.027l5.08,26.276l13.225,16.641l24.962,2.54l29.866,4.73l28.553,-4.116h0.788l-0.059,0.008c0.546,-0.091 1.107,-0.139 1.679,-0.139c0.572,0 1.133,0.048 1.62,0.131l30.742,4.379l30.567,4.029h37.574c12.787,0 25.574,0.088 38.537,-0.963c6.481,-0.262 12.875,-0.963 19.356,-0.963h19.619l39.851,0.613l30.918,2.803l30.655,5.343l30.742,0.526l30.918,-0.526l30.742,5.868l-30.83,-2.452l-30.83,3.503l-31.093,2.014h-0.613l-30.742,-2.89h-31.005l-57.281,3.416c-6.394,0.263 -12.788,1.489 -19.269,2.19c-12.524,1.926 -25.75,2.715 -38.8,3.503l-38.713,2.715h-1.664l-31.268,-1.927l-28.815,-2.54l-29.253,5.781l0.071,-0.009c-0.624,0.092 -1.261,0.14 -1.91,0.14c-0.649,0 -1.286,-0.048 -1.839,-0.131h-0.876l-31.093,-3.328l-31.268,-1.577l-0.027,-0.001c-4.151,-0.157 -7.866,-2.013 -10.483,-4.904l-0.613,-0.613l-22.422,-23.736l0.011,0.012c-1.836,-1.995 -3.181,-4.45 -3.865,-7.282v-0.876l-7.094,-31.881l-5.343,-32.144l0.013,0.101c-0.138,-0.903 -0.209,-1.83 -0.209,-2.772c0,-0.942 0.072,-1.869 0.197,-2.671v-0.701l4.817,-29.779l-2.014,-29.866l-3.941,-31.531c0,-0.964 0,-1.84 0,-2.803v-0.876l1.752,-30.918l-1.226,-32.056l0.002,0.031c-0.023,-0.241 -0.035,-0.484 -0.035,-0.731c0,-0.247 0.012,-0.491 0.033,-0.701v-0.701l1.927,-29.691l-4.116,-30.129l0.002,0.057c-0.023,-0.41 -0.035,-0.823 -0.035,-1.239c0,-0.416 0.012,-0.828 0.033,-1.182v-32.319l-1.664,-31.618l0.003,0.058c-0.029,-0.431 -0.043,-0.864 -0.043,-1.302c0,-1.515 0.175,-2.99 0.478,-4.274v-0.613l6.306,-27.589l-5.168,-27.589v-2.715l-1.752,-32.494l-0.876,-32.582v-2.102l1.927,-32.582l2.54,-31.618v-29.691l-2.978,-31.618c0,-1.051 0,-2.014 0,-3.065v0c0.35,-16.29 0.438,-32.669 1.401,-48.872l1.927,-48.347l0.002,-0.059c0.099,-2.07 0.444,-4.077 0.961,-5.809l8.145,-28.991l0.048,-0.186c1.194,-3.983 3.308,-7.569 6.083,-10.499l20.845,-21.809l0.004,-0.004c3,-3.057 6.741,-5.385 11.119,-6.74l29.166,-8.759l-0.163,0.045c1.34,-0.427 2.734,-0.735 4.28,-0.921l31.005,-3.941l-0.152,0.021c1.39,-0.227 2.817,-0.345 4.269,-0.345c1.452,0 2.879,0.117 4.116,0.324l25.575,5.08l25.487,-5.781l-0.178,0.035c1.941,-0.456 3.966,-0.698 6.047,-0.698c2.081,0 4.105,0.241 5.868,0.663l26.276,6.481l26.276,-3.503l-0.096,0.008c0.752,-0.069 1.515,-0.105 2.286,-0.105c0.771,0 1.534,0.037 2.19,0.099l31.443,1.314l29.866,2.014l29.253,-1.401l30.655,-2.452l-0.092,0.005c0.681,-0.047 1.37,-0.071 2.063,-0.071c0.693,0 1.382,0.024 1.971,0.066l30.392,2.715l29.516,1.401l30.392,-1.489l30.392,0.526l29.166,-3.591h0.788l-0.113,0.012c0.966,-0.128 1.952,-0.194 2.953,-0.194c3.051,0 5.958,0.615 8.459,1.671l30.129,12.437h0.526l0.141,0.054c2.29,0.971 4.377,2.328 6.165,3.975l23.911,21.809l0.02,0.018c4.068,3.671 6.769,8.829 7.25,14.697l2.365,30.129l6.131,30.742v0.613zM210.908,79.931c4.204,-7.269 8.583,-14.276 12.174,-20.845l-7.883,1.139l0.137,-0.015c-1.189,0.167 -2.404,0.255 -3.64,0.255c-2.081,0 -4.104,-0.248 -5.867,-0.678l-24.962,-5.956l-25.049,5.868l0.166,-0.031c-1.747,0.383 -3.561,0.586 -5.422,0.586c-1.861,0 -3.675,-0.201 -5.255,-0.555l-26.276,-5.08l-24.699,3.241l-20.758,6.043l-11.912,11.649l-5.693,19.794l-2.19,45.194c-1.051,15.502 -1.664,30.917 -1.664,46.42l2.89,28.64c4.729,0.613 9.546,1.314 14.276,2.102l14.714,2.803c1.576,-6.394 3.153,-12.787 4.992,-19.181l6.919,-24.349c4.729,-16.116 10.16,-32.144 15.765,-47.997l0.028,-0.09c1.795,-4.949 6.538,-8.483 12.106,-8.483c1.488,0 2.917,0.253 4.156,0.69h0.788c17.517,6.481 35.034,13.488 52.551,20.845c2.014,-4.466 3.941,-8.846 6.043,-13.225c3.941,-7.97 7.27,-16.379 11.211,-24.524l0.53,-1.353c3.618,-8.242 7.748,-16.209 11.82,-22.908z" /> <path d="M198.206,696.178c5.605,16.991 11.211,34.158 15.327,51.412l-0.748,-3.134c4.893,17.51 8.745,35.456 11.783,56.211c-4.817,-7.707 -9.372,-15.589 -13.576,-23.56c-4.204,-7.971 -8.32,-15.941 -12.437,-23.911c-4.117,-7.97 -7.795,-16.115 -11.649,-24.173c-2.19,-4.817 -4.204,-9.022 -6.306,-13.576l-20.758,7.795c-10.335,3.853 -20.582,7.707 -31.005,11.298l0.089,-0.027c-1.322,0.466 -2.743,0.719 -4.224,0.719c-5.504,0 -10.191,-3.501 -11.981,-8.487l-8.759,-23.736c-2.89,-7.882 -5.254,-15.94 -7.532,-23.998c-2.278,-8.058 -4.204,-16.203 -6.832,-24.086c-2.015,-6.219 -3.679,-12.525 -5.343,-18.831l-14.802,2.54c-7.357,1.138 -14.714,2.189 -22.159,2.89c6.482,-3.767 12.963,-7.183 19.707,-10.423c6.744,-3.24 13.401,-6.481 20.057,-9.459l-0.037,0.015c0.766,-0.351 1.619,-0.547 2.518,-0.547c2.351,0 4.388,1.341 5.403,3.335l0.613,1.577c3.854,7.182 7.882,14.714 11.649,22.334c3.767,7.62 7.183,15.328 10.423,23.035c3.24,7.707 6.218,15.502 9.634,23.122l4.642,11.211l19.444,-7.094c10.597,-3.328 21.195,-6.657 31.793,-9.722h1.051l-0.081,0.021c1.047,-0.317 2.158,-0.488 3.309,-0.488c4.981,0 9.216,3.2 10.785,7.737z" /> <path d="M527.171,635.745c-1.576,6.394 -3.153,12.875 -4.992,19.181c-2.365,8.145 -4.731,16.203 -7.27,24.261c-2.539,8.058 -5.43,16.028 -7.707,24.086l-8.058,23.998l-0.022,0.09c-1.544,5.328 -6.46,9.222 -12.284,9.222c-1.328,0 -2.609,-0.203 -3.722,-0.554h-0.438c-17.51667,-6.42333 -35.03367,-13.13833 -52.551,-20.145c-5.168,12.787 -10.948,25.487 -17.517,37.749c-3.766,7.971 -8.234,15.853 -12.525,23.911c-4.291,8.058 -8.32,16.028 -13.05,23.911c1.139,-9.547 2.628,-18.305 4.292,-27.064l0.238,-1.503c1.712,-9.013 3.927,-17.851 6.156,-24.772c2.277,-8.759 5.08,-17.605 7.532,-26.276c2.452,-8.671 5.08,-16.991 7.795,-25.75l0.022,-0.08c1.434,-4.539 5.679,-7.83 10.692,-7.83c1.243,0 2.437,0.202 3.475,0.552h1.139c17.517,5.781 34.333,11.386 50.887,17.955l4.204,-11.386c2.803,-8.057 6.394,-15.765 9.897,-23.56l10.773,-23.122c3.503,-7.708 7.444,-15.24 11.123,-22.86l0.701,-1.314l0.014,-0.042c0.908,-2.251 3.113,-3.84 5.689,-3.84c1.125,0 2.179,0.304 3.056,0.816c6.394,3.066 13.576,6.481 20.145,9.985c6.569,3.504 13.226,7.007 19.707,10.861c-7.532,-0.876 -14.889,-2.102 -22.334,-3.328z" /> <path d="M409.462,448.574l-22.159,19.444l-24.349,16.554l-28.027,9.196l-29.166,3.679l-29.341,-2.978l-27.94,-9.634l-24.611,-16.378l-19.882,-21.458l-15.678,-24.611l-9.722,-27.502l-4.029,-29.078l2.452,-29.341l10.072,-27.764l15.765,-24.962l20.933,-20.67l25.224,-15.065l27.239,-11.561l29.516,-0.701l29.341,1.401l27.589,10.51l24.349,16.291l20.582,20.67l16.991,23.998l9.459,27.94l2.102,29.253l-1.489,29.429l-11.298,27.239l-13.926,26.1z" /> <path d="M336.237,595.981l22.685,22.071l7.707,30.655l-7.532,30.83l-22.772,22.071l-30.567,8.583l-30.83,-8.058l-22.509,-22.597l-8.496,-30.83l9.109,-30.392l21.984,-22.772l30.742,-8.058l30.48,8.496z" /> <path d="M403.941,537.475c-9.546,5.255 -19.181,10.072 -28.815,15.152l-1.839,0.788h-0.963c-10.511,2.715 -21.021,4.992 -31.531,7.532h-1.927l-32.056,4.467l0.054,-0.008c-0.514,0.094 -1.044,0.143 -1.586,0.143c-0.542,0 -1.072,-0.049 -1.533,-0.135v0c-10.773,-1.226 -21.459,-2.715 -32.144,-4.116h-1.401c-10.51,-2.54 -21.02,-4.904 -31.443,-7.532h-0.438l-0.061,-0.011c-0.929,-0.197 -1.808,-0.529 -2.566,-0.952l-28.115,-17.692h-1.139l-27.151,-17.517l-0.038,-0.024c-0.76,-0.511 -1.451,-1.118 -2.064,-1.815l-21.984,-24.524l-20.232,-26.276v-0.438l0.01,0.012c-0.568,-0.665 -1.039,-1.416 -1.411,-2.289c-4.029,-10.073 -7.882,-20.233 -11.736,-30.48v-0.788l-7.97,-31.618v-0.788l0.002,0.021c-0.023,-0.178 -0.035,-0.36 -0.035,-0.546c0,-0.186 0.011,-0.368 0.032,-0.526l-1.314,-32.757v-1.051l3.766,-32.582v-0.526l0.002,0.011c-0.026,-0.116 -0.039,-0.238 -0.039,-0.361c0,-0.123 0.013,-0.245 0.037,-0.35c3.416,-10.422 6.919,-20.757 10.16,-31.18v-0.788c5.605,-9.372 11.123,-18.656 16.378,-28.115v0c6.307,-8.759 12.613,-17.517 18.656,-26.276v0v0c7.269,-7.97 14.626,-15.853 21.633,-24.086v0c8.758,-6.656 17.517,-13.05 26.713,-20.67h0.613l28.465,-15.765h0.788l30.83,-11.036h1.401l7.532,-18.393l26.276,-10.861l26.276,10.423l7.62,18.831h0.013c1.158,0.028 2.268,0.251 3.228,0.613c10.247,3.503 20.495,6.831 30.742,10.51h0.701c9.722,4.467 19.444,9.109 29.078,13.926h0.876l0.613,0.438c8.759,6.306 17.517,12.349 26.276,18.918l1.051,0.788l21.896,24.173l0.613,0.701l17.517,27.589v0.613l-0.001,-0.012c0.015,0.104 0.023,0.21 0.023,0.319c0,0.109 -0.008,0.215 -0.022,0.307l19.006,62.711v0c0.087,10.948 1.05,21.721 0.613,32.669c-0.437,10.948 -0.963,21.808 -0.963,32.669l-8.759,31.443l-9.985,31.18c0,0.526 0,0.526 0,0.526v0.613l-16.816,28.29l-22.86,25.925l-1.226,0.963c-8.759,6.569 -17.517,12.7 -26.276,19.006v0zM365.668,528.626c9.371,-4.029 19.006,-6.832 28.027,-11.824c9.021,-4.992 18.392,-10.16 27.151,-14.977l23.298,-20.582l19.794,-24.261l13.313,-28.728l11.298,-30.48c0.788,-10.773 2.278,-21.458 1.927,-32.231c-0.351,-10.773 -0.788,-21.546 -1.314,-32.231l-11.649,-30.304l-12.963,-28.903l-20.407,-23.385l-23.736,-19.969c-8.759,-4.992 -16.642,-11.736 -26.276,-15.59c-9.634,-3.854 -19.181,-9.021 -28.64,-12.087c-9.459,-3.066 -18.831,-6.482 -28.29,-9.81l-5.08,11.736l-25.75,10.861l-26.276,-10.773l-6.131,-14.452l-29.516,6.919l-29.078,12.174c-8.759,5.956 -17.517,11.736 -26.276,17.517c-7.444,7.445 -15.678,14.364 -21.896,22.685c-6.218,8.321 -13.137,16.554 -18.305,25.838c-5.168,9.284 -10.073,18.568 -15.065,27.94c-2.715,10.16 -5.167,20.407 -7.707,30.567l-0.788,31.531l4.204,30.918l9.722,29.078c4.116,9.196 8.671,18.48 12.875,27.764l20.057,23.473l21.108,21.546l26.276,15.59l27.064,13.05c9.81,2.19 19.531,4.555 29.341,6.832l29.779,3.766l30.042,-3.766c9.984,-2.015 19.881,-4.117 29.866,-5.956z" /></svg>