<svg xmlns="http://www.w3.org/2000/svg" viewBox="0 0 410 997" width="410" height="997"><path d="M154.779,292.691l-5.973,3.584c-15.928,9.557 -28.274,16.725 -37.035,21.504c-12.743,7.168 -24.69,15.531 -35.84,25.088l-7.168,7.168c-3.186,3.186 -7.965,5.575 -14.336,7.168c-1.593,0 -3.982,0.399 -7.168,1.195c-3.186,0 -5.176,0 -5.973,0c-10.354,0 -17.123,-1.593 -20.309,-4.779c-13.539,-8.761 -20.309,-17.123 -20.309,-25.088c0,-3.982 1.195,-7.168 3.584,-9.557c4.778,-10.353 9.159,-17.522 13.141,-21.504c19.911,-17.522 45.795,-36.238 77.653,-56.149c33.45,-20.707 59.336,-42.211 77.653,-64.512c21.504,-25.486 38.626,-49.379 51.371,-71.68l1.195,-2.389c18.317,-31.061 33.054,-56.946 44.203,-77.653c5.577,-10.354 10.355,-16.726 14.336,-19.115c9.557,-3.982 17.92,-5.973 25.088,-5.973c0.798,0 2.39,0 4.779,0c2.389,0.797 3.584,1.195 3.584,1.195c11.947,0.796 17.92,9.159 17.92,25.088c0,9.557 -2.786,20.309 -8.363,32.256c0,33.451 -0.397,64.512 -1.195,93.184c-0.798,28.672 -1.195,74.866 -1.195,138.581v243.712c0,78.848 0.798,140.971 2.389,186.368c1.592,44.599 4.382,80.042 8.363,106.325c7.168,55.753 16.328,91.593 27.477,107.52c8.759,12.745 17.122,19.115 25.088,19.115c1.592,-0.798 3.188,-1.195 4.779,-1.195c1.591,0 2.786,-0.397 3.584,-1.195c8.759,0 13.141,8.76 13.141,26.283c0,10.356 -6.37,15.531 -19.115,15.531c-24.691,-3.187 -46.195,-5.175 -64.512,-5.973c-15.927,-0.798 -37.034,-1.195 -63.317,-1.195c-19.115,0 -41.813,1.195 -68.096,3.584c-26.283,2.389 -48.981,4.779 -68.096,7.168c-13.539,0 -20.309,-3.187 -20.309,-9.557c0,-0.798 0.398,-1.993 1.195,-3.584c0,-1.591 0,-2.389 0,-2.389c5.575,-23.894 13.938,-36.237 25.088,-37.035c10.356,-1.592 20.31,-11.55 29.867,-29.867c10.355,-19.913 18.316,-58.142 23.893,-114.688c4.779,-42.21 7.168,-105.527 7.168,-189.952c0,-3.981 0,-19.511 0,-46.592c-0.798,-19.912 -1.195,-38.626 -1.195,-56.149v-197.12c-1.591,-8.76 -6.37,-14.336 -14.336,-16.725c-2.39,-1.592 -6.37,-2.389 -11.947,-2.389c-4.779,0 -8.363,0.796 -10.752,2.389z" /></svg>