<svg xmlns="http://www.w3.org/2000/svg" viewBox="0 0 817 608" width="817" height="608"><path d="M77.071,553.488c-48.458,-67.335 -76.701,-141.784 -76.701,-201.73c0,-48.82 19.123,-116.278 33.013,-116.278c4.618,0 17.205,-19.456 27.997,-43.32c24.226,-53.685 72.93,-100.348 158.78,-152.121c65.33,-39.425 67.82,-39.917 191.062,-40.034h124.819l68.399,45.723c68.645,45.723 147.228,126.339 147.228,150.811c0,7.239 9.517,21.735 21.157,32.194c11.645,10.546 27.664,42.255 35.509,70.526c13.043,46.787 11.979,58.426 -12.253,128.38c-17.082,49.4 -43.319,95.579 -73.14,129.076c-45.477,50.825 -47.85,51.889 -101.657,46.785c-63.746,-6.172 -157.68,-64.961 -181.427,-113.636c-7.963,-16.51 -20.795,-30.067 -28.517,-30.067c-7.599,0 -36.082,22.678 -63.29,50.463c-27.301,27.787 -54.263,50.493 -60.068,50.493c-5.717,0 -16.626,8.417 -24.109,18.754c-9.395,12.826 -35.293,20.427 -80.769,23.618l-66.973,4.869zM235.849,558.598c44.535,-10.213 61.378,-20.309 73.625,-44.172c40.25,-77.671 100.681,-84.786 165.888,-19.701c57.94,58.062 136.798,82.868 191.307,60.067c46.997,-19.577 72.076,-49.276 80.863,-95.7c4.046,-21.156 13.528,-46.084 21.128,-55.357c37.298,-45.476 25.413,-105.305 -36.573,-183.099c-13.89,-17.45 -25.536,-37.637 -25.898,-44.897c-0.336,-7.239 -36.906,-40.829 -81.196,-74.784l-80.769,-61.652l-263.623,-7.48l-70.65,50.463c-81.804,58.309 -140.353,125.521 -174.435,200.333c-29.698,65.33 -30.037,88.008 -1.549,124.212c12.341,15.686 22.437,37.754 22.554,49.155c0.123,31.708 39.671,84.539 74.812,100.107c40.858,18.181 37.298,18.059 104.516,2.489zM171.005,398.667c-14.136,-7.843 -37.637,-25.413 -52.258,-39.216c-25.536,-23.986 -25.869,-26.114 -8.056,-56.998c23.864,-41.8 56.514,-55.69 129.9,-55.69c65.418,0 72.561,5.351 95.361,72.198c14.469,42.531 13.89,45.144 -15.077,70.072c-34.077,29.213 -105.943,33.837 -149.87,9.634zM493.756,399.36c-33.135,-12.587 -38.941,-20.063 -37.514,-47.394c4.379,-86.546 47.727,-122.785 135.611,-113.145c53.655,5.808 129.409,56.515 124.089,82.992c-5.717,27.785 -89.889,80.739 -138.108,86.82c-24.594,3.065 -62.471,-1.093 -84.084,-9.272z" /></svg>