<svg xmlns="http://www.w3.org/2000/svg" viewBox="0 0 1024 960" width="1024" height="960"><path d="M384,864c0,53.019 -42.981,96 -96,96c-53.019,0 -96,-42.981 -96,-96c0,-53.019 42.981,-96 96,-96c53.019,0 96,42.981 96,96z" /> <path d="M1024,864c0,53.019 -42.981,96 -96,96c-53.019,0 -96,-42.981 -96,-96c0,-53.019 42.981,-96 96,-96c53.019,0 96,42.981 96,96z" /> <path d="M192.016,575.344c-0.002,0.22 -0.016,0.438 -0.016,0.656c0,35.346 28.654,64 64,64h768v64h-768c-70.692,0 -128,-57.304 -128,-128c0,-40.446 18.78,-76.488 48.074,-99.946l-48.074,-412.054h-128v-64h192c35.346,0 64,28.654 64,64h768v384z" /></svg>