<svg xmlns="http://www.w3.org/2000/svg" viewBox="0 0 896 896" width="896" height="896"><path d="M449.983,263.725c-5.162,-2.634 -10.303,-5.609 -15.447,-8.906c-13.458,18.224 -31.986,34.279 -53.884,41.143l10.968,24.282c3.603,7.994 0.036,17.421 -7.938,21.021c-7.974,3.6 -17.382,0.035 -20.984,-7.957l-14.192,-31.45c-6.81,0.358 -13.62,0.268 -20.447,-0.09c-4.392,23.457 -12.293,42.254 -23.117,57.182l18.368,16.397c6.541,5.824 7.133,15.876 1.309,22.435c-5.805,6.56 -15.84,7.151 -22.381,1.309l-19.551,-17.472c-7.992,6.002 -16.792,10.805 -26.253,14.586c4.069,15.858 3.978,30.463 0.861,44.172l32.471,18.888c7.562,4.39 10.16,14.12 5.77,21.701c-4.373,7.58 -14.085,10.16 -21.629,5.77l-28.546,-16.594l-5.537,8.799c13.189,16.253 18.887,33.528 20.266,51.394c0.269,3.475 0.357,6.952 0.304,10.411l23.493,-6.989c8.405,-2.474 17.205,2.328 19.677,10.733c2.456,8.422 -2.347,17.256 -10.733,19.712l-36.7,10.931l-0.843,3.978c16.861,10.858 28.312,24.89 35.319,41.447l17.49,-4.498c8.494,-2.15 17.149,3.01 19.299,11.522c2.15,8.512 -2.994,17.167 -11.487,19.317l-17.597,4.515c1.129,10.715 0.967,22.041 -0.287,33.85l8.351,8.045l27.703,-16.629c7.509,-4.497 17.239,-2.043 21.719,5.466c4.462,7.509 2.024,17.274 -5.466,21.754l-24.013,14.426c16.45,26.162 19.677,51.913 14.229,74.313c-1.165,4.731 -2.688,9.299 -4.57,13.672l22.919,13.242c7.563,4.355 10.16,14.048 5.824,21.629c-4.355,7.581 -14.032,10.197 -21.594,5.842l-24.658,-14.264c-5.09,5.376 -10.805,10.143 -16.97,14.175l7.777,29.047c2.24,8.495 -2.758,17.221 -11.235,19.479c-8.457,2.259 -17.167,-2.76 -19.425,-11.253l-6.523,-24.37c-12.293,3.064 -25.267,3.656 -38.061,1.272c-31.861,-5.931 -62.217,-29.819 -77.484,-79.044c-33.366,-13.386 -57.056,-31.718 -69.797,-55.587c-12.328,-23.063 -14.12,-50.301 -4.229,-82.108c-23.904,-14.157 -40.677,-31.037 -49.53,-53.007c-9.336,-23.189 -9.248,-50.964 1.272,-86.086c-28.635,-32.775 -38.437,-68.418 -32.685,-104.293c6.629,-41.413 32.72,-76.642 62.252,-105.009c-6.236,-49.996 2.652,-87.968 26.019,-114.381c22.722,-25.697 58.273,-39.333 106.048,-41.412c18.402,-52.486 45.873,-84.401 80.942,-98.952c34.693,-14.372 75.622,-11.129 121.568,6.433c29.479,-28.816 60.676,-45.319 93.774,-47.434c33.493,-2.133 67.951,10.573 103.486,40.122c32.238,-13.672 60.676,-15.392 85.585,-6.397c23.528,8.512 43.061,26.29 59.045,52.38c24.728,-8.386 52.217,-4.749 74.097,9.552c17.239,11.272 30.373,28.653 36.036,49.458l3.44,-1.075c5.626,-2.725 11.863,-9.248 18.959,-19.354c4.015,-5.806 11.989,-7.203 17.759,-3.171c5.77,4.032 7.186,12.024 3.154,17.813c-9.64,13.762 -19.048,23.044 -28.778,27.775c-3.853,1.88 -7.687,3.099 -11.522,3.619c-0.501,15.768 -5.286,30.464 -13.189,42.989c2.939,2.688 5.483,5.984 7.616,9.909c5.178,9.426 7.525,22.453 7.49,39.226c0,7.061 -5.735,12.794 -12.759,12.794c-7.042,0 -12.759,-5.752 -12.759,-12.794c0.036,-12.384 -1.344,-21.343 -4.39,-26.898l-2.079,-2.723c-9.674,8.297 -21.18,14.498 -33.831,17.866l10.411,18.081c4.373,7.581 1.792,17.312 -5.77,21.701c-7.562,4.389 -17.257,1.792 -21.647,-5.789l-18.546,-32.183c-15.735,-2.509 -30.105,-9.301 -41.825,-19.192c-15.322,13.869 -32.13,19.73 -49.871,20.285v28.456c0,8.779 -7.114,15.912 -15.877,15.912c-8.781,0 -15.877,-7.131 -15.877,-15.912v-32.471c-11.2,-2.973 -22.453,-7.381 -33.725,-12.453c-8.118,7.741 -16.29,14.3 -24.533,19.783l11.109,13.386c5.573,6.739 4.659,16.72 -2.061,22.328c-6.701,5.59 -16.682,4.677 -22.274,-2.061l-15.787,-19.013c-9.784,3.44 -19.658,5.447 -29.621,6.056c-10.662,0.662 -21.307,-0.269 -31.933,-2.706l0.161,32.417c0.035,8.744 -7.024,15.877 -15.752,15.912c-8.709,0.036 -15.842,-7.024 -15.877,-15.787z" /></svg>