<svg xmlns="http://www.w3.org/2000/svg" width="232.025" height="177.872" viewBox="0 0 2320.245 1778.718"><path d="m1624.25 1770.534-691-5-42-63c-51-75-248-277-342-350-37-29-70-52-73-52-4 0-23-13-43-28-20-16-82-62-137-102-232-171-301-269-296-424 2-52 9-82 29-120 31-59 112-142 159-162 17-8 34-18 37-23 10-15 152-58 251-75 99-18 184-29 347-46 188-20 257-65 156-101-25-9-79-24-120-34-106-25-109-26-103-35 13-21 103-50 247-79 84-17 177-39 206-51 54-21 186-28 196-11 3 5-10 23-29 40-26 22-46 31-73 31-37 1-98 16-160 40-27 10-33 17-30 38 2 19 18 35 63 62s61 43 63 62c7 59-97 115-237 128-154 14-324 41-457 72-143 32-204 66-204 112 0 65 170 158 415 226 85 24 157 47 190 60 11 5 29 10 40 13 31 8 149 49 230 80 22 9 81 32 130 51 110 42 205 89 308 150 43 25 82 46 86 46s18 11 31 25 28 25 33 25c39 0 359 293 452 413 29 37 71 99 63 95-1-2-314-5-695-8"/></svg>