<svg xmlns="http://www.w3.org/2000/svg" width="236.723" height="201.053" viewBox="0 0 2367.233 2010.527"><path d="M176 1955.528c-29-30-56-65-62-78-11-23-76-189-88-222-3-11-11-113-16-228l-10-208 59-67c71-82 176-228 307-430 144-220 139-211 126-225-8-10-3-16 22-25 22-8 45-32 75-78 24-36 45-64 48-62 2 3-3 27-11 54s-15 50-15 52c0 1 6 2 14 2s28-16 45-35c28-32 31-42 31-98 0-65-21-125-64-182-42-57-38-57 59-6 53 28 101 51 105 51 5 0 30-40 57-90 35-64 52-87 60-79 6 6 45 14 86 18 74 7 97 14 84 27-3 4-50 11-104 16-107 10-112 13-133 79-14 40-13 42 10 62 22 18 182 97 196 97 9 0-6-80-22-118-13-32-13-32 9-21 12 6 59 33 103 60 45 27 87 49 93 49s39-56 73-125c41-82 65-120 70-111 4 7 34 16 69 20 81 9 65 31-30 40l-69 7-36 86c-20 47-36 91-36 99 0 7 36 34 79 59 145 84 181 149 181 330v101l53 65c65 77 164 166 273 242 111 77 306 197 321 197 6 0 49-12 93-26 45-14 84-24 86-21 6 5-105 60-219 107-51 21-189 79-307 128l-215 91-50 91c-27 50-72 116-100 147-27 30-52 60-54 66-6 17-83 94-122 123l-33 24H227Zm73-579c51-115 94-220 95-235 1-14 9-33 18-41 23-21 220-484 226-531 8-58-16-50-53 19-17 31-69 125-116 209-97 173-164 336-236 573-32 103-57 169-69 178-17 13-17 14 2 28 10 8 24 13 29 11s52-97 104-211m222 163c61-10 100-30 100-52 0-12-53-2-155 30-140 44-125 50 55 22m-157-38c41-45 65-115 73-211 5-65-6-105-24-85-8 8-78 240-95 313-7 32 6 27 46-17m384-2c60-10 93-28 93-50 0-16-39-10-103 17-104 44-102 52 10 33m443-29c134-6 246-13 249-16 8-8-13-36-50-66-66-53-241-62-382-18-70 22-89 40-103 94-6 27-5 29 17 22 13-3 134-11 269-16m618-39c61-19 112-38 112-43 0-6-22-35-50-65-27-30-79-98-114-151-69-105-186-323-186-347 0-22-11-18-53 18-35 30-38 38-51 119-9 53-25 106-41 135l-26 49 23 49c18 40 23 73 26 163l4 114 122-4c101-3 140-9 234-37m253-82c101-36 111-45 75-59-34-13-71-13-110 0-17 5-43 12-57 15-31 6-43 29-29 56 14 25 21 24 121-12m-1211-9c0-18-90-108-141-140-53-35-211-100-241-100-14 0-19 6-16 22 3 24 70 66 276 174 105 56 122 61 122 44m540-197c0-24-58-97-107-134-63-47-166-94-189-85-8 3-14 16-14 29 0 20 24 38 143 109 133 81 167 97 167 81m-813-122c79-51 120-110 140-204 15-70 15-74-8-142-14-41-30-70-38-70s-50 85-107 218c-52 121-94 223-94 228 0 21 51 6 107-30m473-96c0-17-28-27-51-20-25 8-24 20 4 32 26 12 47 6 47-12m365-125c-41-79-189-186-221-159-8 6-14 21-14 33 0 17 23 36 107 87 151 90 155 91 128 39m-494-139c-21-28-95-82-158-115-39-20-73-21-73-2 0 17 206 145 233 146 17 0 17-2-2-29m224-26c0-16-10-22-48-29-66-13-83 5-31 33 48 25 79 24 79-4"/></svg>