<svg xmlns="http://www.w3.org/2000/svg" width="219.714" height="153.804" viewBox="0 0 2197.144 1538.036"><path d="M2068.134 1513.036c-46-25-243-92-336-115l-50-13 65-35c36-19 74-40 84-47 15-11 33-9 105 11 48 13 92 24 99 24 28 0 52-178 34-247-7-24-15-43-19-43s-30 30-57 66c-97 129-261 236-430 281-110 29-398 26-523-6l-94-23 84-35c89-38 90-38 219-28 108 10 205-10 315-64 124-61 217-133 379-293 115-114 154-147 165-140 24 15 59 92 75 167 18 88 19 294 1 396-14 77-48 169-63 169-4-1-28-12-53-25m-1474-155c-212-34-460-148-556-257-50-57-51-82-2-127 44-43 85-51 227-49 105 2 203 19 306 53 77 26 225 99 287 142l46 32-34 14c-18 7-73 18-120 24l-87 11-44-30c-94-65-203-103-290-103h-44l30 25c44 36 152 91 214 109 79 23 228 21 321-5 84-23 189-73 272-130l57-38 22 32c12 17 35 46 52 64l29 31-48 36c-69 52-237 131-316 151-83 20-243 27-322 15"/><path d="M1391.134 1229.036c-63-49-144-139-176-193-52-88-70-164-70-283 0-69 6-131 15-167 19-67 20-66-71-38-60 19-65 19-83 4-10-10-18-21-18-26 0-11 351-531 354-526 54 68 346 514 346 528 0 37-31 41-115 15l-77-23 6 26c13 60 18 200 8 252-13 69-46 157-71 190-23 29-37 21-76-46-26-45-26-45-11-107 21-85 30-168 22-211-6-33-10-36-41-36-33 0-34 0-41 56-13 108-1 206 36 280 41 83 142 187 222 229 32 17 58 33 58 37 0 8-95 55-138 67-29 9-37 6-79-28"/></svg>