<svg xmlns="http://www.w3.org/2000/svg" width="197.39" height="196.542" viewBox="0 0 1973.896 1965.424"><path d="M60.435 1951.424c-13-32 4-209 26-280 89-284 330-517 636-616 36-12 67-19 69-17s1 29-2 60l-6 56-61 22c-205 74-375 208-469 370-39 68-100 264-84 268 7 1 43-8 82-22 54-19 74-22 90-14 30 16 105 79 105 88 0 20-208 82-317 95-54 6-64 5-69-10"/><path d="M916.436 1956.424c-202-20-405-114-565-261l-44-41 31-49 31-50 29 35c63 76 196 155 338 201 152 49 405 46 545-6 43-16 50-17 58-4 4 8 30 28 58 44l50 28-58 26c-95 42-186 66-294 77-56 5-102 9-103 9 0-1-35-5-76-9m884-15c-126-27-295-107-390-183-76-61-158-160-213-256-56-99-136-290-117-283 7 3 34 9 60 12l46 7 43 92c92 192 283 374 460 436 61 21 133 30 131 15-17-129-17-130 22-176 20-24 40-45 44-47 18-7 89 349 76 383-7 19-75 19-162 0"/><path d="m644.436 1652.424-58-32 36-35c112-107 224-355 224-496 0-45 3-53 19-53 10 0 39-3 66-6l47-7-7 104c-10 133-35 233-85 334-41 81-152 225-173 225-7 0-38-15-69-34m980-7-48-31 74-79c124-131 190-296 203-505 6-110-7-230-37-325l-18-58 39-52 38-51 16 38c85 205 106 456 55 660-32 127-107 268-191 358-39 42-74 76-77 76-4 0-28-14-54-31m-1508-276c-72-190-98-423-67-588 30-161 109-315 227-447l51-57 54 26c30 15 55 30 55 35 0 4-40 64-89 133-110 154-143 211-171 295-20 58-22 79-17 205 4 98 12 171 30 244l24 104-38 54-37 54z"/><path d="M1616.436 1401.424c-20-38-110-118-173-153-72-41-178-77-267-92-132-21-120-12-120-82v-61l63 6c192 19 405 114 515 231 49 52 51 55 38 83-7 15-19 43-27 61l-15 34zm-835-451c-153-33-340-124-438-215l-61-55 33-57 33-58 40 36c107 97 309 197 476 236l92 21v108l-52-1c-29 0-84-7-123-15m265-63c0-181 100-419 237-562l54-57 50 30c54 34 58 42 30 57-31 17-127 151-170 236-53 108-83 211-85 295l-1 70h-115zm192-38 3-66 70-22c204-62 351-203 461-441 35-75 62-169 52-180-4-3-39 9-78 26l-73 32-46-47c-44-44-45-47-27-60 56-42 282-101 334-88 24 6 25 8 19 83-6 96-69 287-135 414-75 143-199 264-349 339-41 21-208 77-230 77-2 0-3-30-1-67m-385-92c-23-5-33-19-62-86-115-264-358-475-588-509-44-7-47-6-47 15 0 12 10 53 21 89l22 67-39 51c-21 28-42 51-45 51-22 2-129-384-114-410 24-37 298 37 485 131 76 38 228 185 314 303 62 84 127 198 150 265l15 42-42-1c-23-1-55-4-70-8"/><path d="M1571.436 355.424c-142-122-279-191-448-226-82-17-93-17-200-1-63 9-146 27-184 40l-71 24-29-26c-15-14-39-33-53-42-32-22-24-27 95-67 188-62 370-74 529-35 75 18 206 80 286 134 77 52 200 157 200 171 0 11-52 79-60 79-3 0-33-23-65-51"/></svg>