<svg xmlns="http://www.w3.org/2000/svg" width="171.602" height="306.432" viewBox="0 0 1716.021 3064.323"><path d="M671.523 3049c-273-59-509-255-611-506-42-105-53-158-59-288-9-196 21-284 114-343 63-40 105-48 255-50 131-2 148-4 199-28 77-36 133-89 169-161 26-54 30-72 30-146 0-90-17-144-52-163-20-11-44-7-163 26-81 23-151 14-242-30-122-60-193-164-201-295-6-105 22-175 97-251 126-125 290-133 415-18 147 134 127 336-44 437-114 67-278 4-320-123-45-136 69-276 204-251 47 9 101 61 115 111 9 33 8 46-9 80-19 40-63 75-94 75-30 0-68-24-82-53-14-25-14-31 1-53 8-13 24-24 35-24 23 0 24 3 8 31-11 17-10 22 6 35 27 19 42 18 66-6s26-76 5-107c-39-55-145-50-187 10-31 43-32 133-2 173 35 47 70 67 127 72 72 6 118-11 161-58 94-105 63-276-63-342-44-23-66-28-125-28-87 0-137 21-189 80-55 60-70 102-70 191-1 123 53 211 166 271 35 19 58 23 137 23 84 0 102-3 152-28 173-85 237-308 140-490-15-29-62-81-114-129-107-98-157-185-165-290-13-156 78-307 225-376 48-23 71-27 142-27 72 0 93 4 141 28 67 32 142 109 172 175 33 72 31 190-5 258-98 187-323 230-460 87-98-101-103-229-14-330 74-85 168-105 257-57 158 87 134 312-35 331-72 9-146-50-146-115 0-83 93-134 139-76 21 27 19 49-5 58-9 4-14-1-14-15 0-16-5-20-26-17-36 4-51 29-38 65 21 61 115 67 158 10 27-36 27-110 1-150-58-89-216-78-273 19-33 56-28 164 10 221 83 125 299 113 383-22 26-41 30-60 33-129 4-95-10-135-66-198-54-59-120-88-208-88-90 0-151 21-209 72-69 61-98 125-103 228-5 116 20 183 97 261 74 73 140 99 256 99 70 0 97-5 167-32 190-72 377-15 482 145 97 147 82 317-38 445-183 196-497 110-556-152-8-38-7-61 5-108 29-114 110-194 220-219 181-40 354 168 271 328-33 65-118 123-181 123-74 0-155-65-175-140-19-71 36-159 109-175 69-15 147 61 125 122-12 36-57 62-81 47-10-6-19-18-21-27-2-12 4-15 25-14 22 2 29-3 31-21 5-34-15-52-58-52-50 0-80 35-80 92 0 32 7 47 34 74 30 30 40 34 85 34 99 0 151-53 151-154 0-31-7-70-14-85-72-139-286-133-366 9-21 37-25 58-25 120 0 106 41 175 130 223 58 31 202 31 260 0 106-56 161-161 153-292-10-171-129-288-304-299-145-9-260 58-317 186-69 153-56 416 35 702 37 117 64 155 137 189 47 22 70 26 146 26 50 0 120-4 157-9 63-8 71-7 124 19 146 72 222 295 180 533-60 342-312 611-648 692-98 24-287 26-385 4m290-51 67-6 15-51c28-99 28-106 11-106-8 0-36 14-61 32-77 54-203 51-282-8-49-37-57-32-49 28 8 56 28 103 48 111 19 8 172 8 251 0m-313-30c0-22-145-125-169-121-10 2-17 15-19 38l-3 35 83 31c99 38 108 39 108 17m535-21c68-27 70-29 73-65 4-52-15-49-110 15-116 79-98 103 37 50m-565-172c0-71-4-130-8-130-14 0-112 121-112 138 0 16 97 122 112 122 4 0 8-58 8-130m545 84c30-26 57-54 60-62 10-27-83-142-115-142-6 0-10 51-10 125 0 69 3 125 6 125s30-21 59-46m-178 0c53-39 73-81 73-150 0-62-1-64-55-126-31-35-73-98-93-140-40-84-66-100-77-48-8 36-75 141-125 196-80 87-57 234 45 280 48 22 196 15 232-12m-546-23c10-35 9-45-14-95-14-31-32-56-40-56-18 0-52 110-44 142 7 25 38 46 69 47 12 1 21-12 29-38m902 28c29-15 37-28 37-59 0-37-32-120-47-120-20 0-53 75-53 119 0 70 15 85 63 60m-1004-146c17-47 26-96 29-165 4-94 4-98-16-98-48 0-122 140-122 228 1 49 11 71 45 90s39 14 64-55m1126 35c25-30 27-38 23-98-5-71-22-111-69-165-50-57-69-42-69 55 0 74 52 240 75 240 7 0 25-14 40-32m-952-57c32-42 37-55 37-103 0-82-9-118-30-118-27 0-86 72-94 114-11 57 14 156 38 156 7 0 29-22 49-49m775 0c15-49 15-106 1-134-19-36-72-87-91-87-16 0-18 10-18 90 0 95 13 139 47 159 34 19 49 12 61-28m266-57c14-36 6-71-24-97-35-32-60-35-60-7 0 11 3 20 8 20 4 0 15 23 25 50 18 50 39 64 51 34m-1333-44c7-27 16-50 21-50 4 0 8-7 8-15 0-23-27-18-60 12-40 35-40 103 0 103 13 0 22-13 31-50m919-55c0-90-13-124-76-201-54-68-103-166-111-224-4-29-10-40-23-40-21 0-30 37-30 129 0 146 81 320 178 386 57 39 62 35 62-50m-479 38c106-89 186-310 159-439-14-66-35-71-51-11-18 70-58 145-114 214-60 75-75 115-75 202 0 58 1 61 24 61 14 0 39-12 57-27m-463-74c26-23 67-51 92-64 75-39 130-109 130-166 0-28-27-24-95 17-128 77-205 160-205 221 0 45 20 43 78-8m1402-4c0-29-10-45-62-98-62-63-189-147-221-147-22 0-21 11 4 80 20 55 23 58 132 127 62 39 120 72 130 72 13 1 17-7 17-34m-1137-23c46-59 47-72 3-72-59 0-66 7-66 66 0 68 12 69 63 6m855-9-3-58-47-3c-59-4-60 4-10 69 51 66 64 64 60-8m328-80c-3-25-13-54-22-64-24-27-125-77-189-94-72-18-75-18-75-2 1 14 259 206 279 207 11 0 12-10 7-47m-1431-44c61-44 122-87 138-95 31-17 36-44 7-44-11 0-20 3-20 8 0 4-26 15-57 25-32 11-92 35-133 55-58 29-76 42-78 61-5 33 6 71 21 71 7 0 62-36 122-81m292 16c101-47 203-171 203-247 0-22-5-28-23-28-87 0-257 173-257 262 0 45 7 46 77 13m793 2c0-96-179-277-274-277-26 0-28 2-21 28 26 108 125 217 233 257 53 19 62 18 62-8m-1075-142c126-26 261-90 333-158 49-47 43-57-35-57-130 0-252 50-339 136-49 50-70 94-44 94 6 0 44-7 85-15m1365-5c0-29-98-121-162-152-122-60-298-80-298-34 0 33 186 140 305 175 129 37 155 39 155 11m74-57c-4-21-14-69-23-108-20-84-35-95-133-95-74 0-118 12-118 33 0 8 55 53 123 102 67 48 124 92 125 97 2 4 10 8 18 8 12 0 13-8 8-37m-1450-70c69-49 125-93 125-99 1-18-26-25-109-31-112-7-123 0-149 94-25 93-26 123-7 123 8 0 71-39 140-87"/></svg>