<svg xmlns="http://www.w3.org/2000/svg" width="186.024" height="185.489" viewBox="0 0 1860.24 1854.892"><path d="M415.25 1838.081c-16-11-114-105-216-208-266-269-265-250-1-517l186-187-181-183c-99-100-186-192-192-204-15-30-14-79 3-111 23-42 397-410 431-422 16-6 47-8 70-4 35 6 62 28 228 192l187 186 188-186c165-164 192-186 227-192 23-4 54-2 70 4 44 16 422 397 436 438 24 73 12 92-189 294l-186 188 186 188c266 268 267 249-19 534-127 126-208 199-226 204-16 3-47 4-69 1-38-5-58-22-230-194l-188-188-189 189-189 189-54 4c-40 3-60-1-83-15m692-570c86-27 143-62 197-123 101-113 100-258-3-371-91-100-204-142-376-142s-285 42-376 142c-103 113-104 258-3 371 68 76 152 120 269 141 73 13 221 4 292-18"/><path d="M833.25 1206.081c-256-54-345-294-161-429 75-55 141-74 253-74 79 0 112 4 155 21 260 102 261 365 1 462-62 24-185 33-248 20m12-137c-22-57-29-125-17-180 6-31 10-59 7-61-9-9-96 41-120 70-48 56-21 123 68 167 52 26 72 27 62 4m222-4c54-26 93-72 93-109 0-38-40-83-96-110-25-12-47-20-49-18-3 2 1 30 7 61 12 55 5 123-17 180-9 23 8 22 62-4"/></svg>