<svg xmlns="http://www.w3.org/2000/svg" width="115.8" height="194" viewBox="0 0 1158 1940"><path d="M313 1923C309 1909 84 859 13 525L0 465l102-230L203 5l372-3 371-2 15 22c7 13 55 118 105 233l92 211-156 729c-86 400-158 732-161 737-3 4-122 8-264 8-238 0-259-1-264-17M453 865c27-8 70-28 95-44l47-29 37 25c60 40 137 63 215 63 79 0 159-17 166-34 8-21-32-134-66-186-36-56-108-124-156-147-31-15-31-16-36-110-5-82-10-102-42-166-20-40-54-92-75-117l-40-45-44 44c-80 78-127 194-127 316 0 60-1 61-37 80-66 36-141 118-178 197-18 40-35 89-37 108-3 32-1 35 37 46 56 17 182 17 241-1"/><path d="M248 812c-21-15 35-126 89-180 50-50 120-90 120-70s59 130 83 156c25 26 25 25-58 69-40 21-67 27-135 30-47 2-91 0-99-5m504-6c-47-15-83-33-107-53-15-14-14-18 17-58 18-24 41-65 51-92 10-26 19-50 20-51 1-2 28 13 59 33 87 58 180 203 144 226-20 13-138 10-184-5M557 666c-24-36-60-114-60-131 0-2 22-6 49-10 59-8 141 3 141 19 0 21-47 112-73 140l-25 27zm-68-257c5-90 33-166 81-223l24-30 31 43c47 65 72 141 72 220v68l-52-8c-49-8-93-5-142 8-17 5-18 0-14-78"/></svg>