<svg xmlns="http://www.w3.org/2000/svg" width="160.814" height="189.557" viewBox="0 0 1608.138 1895.575"><path d="M548.703 1875.575c-41-11-122-43-179-71-319-158-445-485-325-849 13-41 35-93 49-115l24-40 1 45c0 55 24 152 46 184 47 72 197 75 261 5 28-32 46-101 38-153-3-22-18-97-32-166-31-155-35-298-9-384 38-129 110-233 211-305 47-33 48-34 41-10-71 245-74 415-10 541q82.5 163.5 264 162c139 0 208-68 235-228l6-38 25 33c43 59 67 137 68 219 0 58-9 106-39 210-46 163-52 252-19 297 37 50 81 73 141 73 125 0 173-60 192-240l7-65 21 65c45 134 54 253 28 355-46 179-178 333-361 421-78 37-207 74-261 74-31 0-34-2-28-22 4-13 14-27 22-33 9-5 40-26 69-45 30-19 60-48 69-66 25-53 45-154 50-259 5-89 3-106-17-154-35-84-60-97-171-92-51 3-123 4-162 4-38 0-111-1-160-4-108-5-131 6-166 78-20 41-24 62-23 143 1 111 28 248 59 293 11 18 43 46 70 64 64 40 85 59 85 78 0 20-27 18-120-5"/><path d="M581.703 1675.575c-35-21-58-80-69-175-9-77 6-84 100-45 79 33 126 75 126 112 0 31-37 84-74 107-41 26-43 26-83 1m359 0c-38-24-72-75-72-111 0-44 57-88 163-125 36-13 43-13 55 0 13 12 13 24 3 78-19 98-30 125-62 153-37 30-45 31-87 5"/></svg>