<svg xmlns="http://www.w3.org/2000/svg" width="182.371" height="266.232" viewBox="0 0 1823.712 2662.317"><path d="M756.712 2655c-354-64-628-318-731-675-18-62-20-108-24-396-5-367-3-382 62-420l35-21V940c0-141 5-228 15-284 58-302 271-537 575-633 65-20 96-23 225-23s160 3 225 23c304 96 517 331 575 633 10 57 15 144 15 289 0 193 1 209 18 214 10 4 32 20 48 37l29 30v332c0 294-2 341-19 407-84 327-326 578-648 671-82 23-316 35-400 19m335-503c3-8-6-73-19-145l-25-131 23-31c16-22 23-48 26-93 4-74-14-116-71-161-35-28-45-31-112-31s-77 3-112 31c-57 45-75 87-71 161 3 46 10 71 28 95l23 31-23 128c-12 70-20 135-17 143 6 14 31 16 176 16 131 0 170-3 174-13m-315-1034c3-10-14-13-61-13-46 0-70-5-81-16-19-18-19-17-5-47 9-21 7-30-12-56-26-36-28-62-11-202 17-142 61-218 155-264 116-56 274-40 361 36 58 51 84 107 103 221 23 132 22 167-6 206-18 26-20 36-11 47 31 38-36 83-107 72-28-5-34-3-31 11 3 15 24 17 196 20l192 2V943c0-222-11-284-67-391-69-130-199-234-343-272-70-19-200-19-270 0-144 38-274 142-343 272-56 107-67 169-67 391v192l202-2c150-2 202-6 206-15m132-65c0-10 2-10 9 0 12 19 55 11 59-11 5-25-39-87-60-87-10 0-30 18-44 40-22 33-24 43-14 55 15 18 50 20 50 3m-69-64c30-15 39-33 39-74 0-19-6-30-17-33-165-45-206-43-217 11-16 70 45 127 124 116 25-4 57-13 71-20m307-19c23-28 29-74 12-106-13-24-58-25-143-2-84 22-93 31-77 78 16 48 56 67 130 61 43-4 60-10 78-31"/></svg>