<svg xmlns="http://www.w3.org/2000/svg" width="265.044" height="261" style="clip-rule:evenodd;fill-rule:evenodd;image-rendering:optimizeQuality;shape-rendering:geometricPrecision;text-rendering:geometricPrecision"><path d="m220.044 245-2 2q-5.693 2.513-12.5 3l-2-2q-2.082 1.58-4.5.5-6.273-7.924-14.5-1.5-3.834-1.079-3.5-5-3.616-.544-4.5 3-3.179-5.647 3.5-7 10.338 5.464 9.5-6a152 152 0 0 0-23-29l-3-6a130 130 0 0 0 1-25 14.5 14.5 0 0 0-5 4q-8.775 13.682-7 30l-2.5 12 3.5 24a103 103 0 0 0 4.5 8.5 45.8 45.8 0 0 0 13 3.5 32.5 32.5 0 0 1 13-.5q5.935 1.629 4.5 7.5-3.194-7.045-8.5-2.5l-12 1q-1.764 2.871-3-.5l-3 2q-12.962-3.564-26-4-1.394-1.783-1-4a12.9 12.9 0 0 0-5 .5q-8.419 6.828-2-2.5l4-2q6.916 1.665 14 .5 2.318-2.733 2-6.5-.904-21.363-10-40.5a68.9 68.9 0 0 0 1.5-23.5q-1.665-3.472-5.5-4.5-12.622.97-23-6l-7-.5a1313 1313 0 0 1-35 6 56.7 56.7 0 0 0-17-.5l-28 16q-11.674 2.697-23 3.5-1.257-.513-1-2a200 200 0 0 1 16-11.5 751 751 0 0 0 45-26.5q2.077-1.203-.5-2-1.148.105-1.5 1-10.994 4.496-22 9-1.487.257-2-1 2.818-3.922 7-6.5a43834 43834 0 0 0 29-17.5q4.39-1.886 7-6a66.7 66.7 0 0 1 13-10.5 714 714 0 0 1 31-18l29.5-23.5a116.6 116.6 0 0 1 15-21 926 926 0 0 1 17-37q10.95-19.89 34-20a40.3 40.3 0 0 1 16.5 5.5q15.35-1.54 29 6l2 2-18 1a30.4 30.4 0 0 0-11 3.5 137.4 137.4 0 0 0 22 5.5q3.52 1.068 6 3.5-9.507 1.212-19 2.5-11.616 6.613-19.5 17.5a35.6 35.6 0 0 0-2.5 13.5 132 132 0 0 0 5 29 541 541 0 0 1-10.5 35.5 303 303 0 0 1-25.5 42.5q-8.37 4.471-11.5 13.5a1687 1687 0 0 1-2 24 334 334 0 0 0 25.5 35.5q7.807 3.696 16 4.5" style="opacity:.995"/><path d="M78.044 130q-2.61 4.114-7 6 2.61-4.114 7-6" style="opacity:.796"/><path d="M59.044 152q.352-.895 1.5-1 2.577.797.5 2-.513-1.257-2-1" style="opacity:.243"/><path d="M35.044 160q.513 1.257 2 1-2.521 2.262-6 3 .5-3.5 4-4" style="opacity:.741"/><path d="M31.044 164q-1 1 0 0" style="opacity:.18"/><path d="M.044 191q-.257 1.487 1 2-1.204 2.077-2-.5.105-1.147 1-1.5" style="opacity:.553"/><path d="M220.044 245q2.381 1.703 1 4-1.147-1.668-3-2z" style="opacity:.675"/></svg>