<svg xmlns="http://www.w3.org/2000/svg" width="400.074" height="466.068" viewBox="0 0 4000.741 4660.681"><path d="M1777 4640c-14-11-29-20-34-20-4 0-29-21-56-46-47-46-48-47-68-28-16 15-40 20-103 22-76 3-83 2-118-25-21-16-41-43-47-64-15-51-13-120 4-144 14-18 16-18 32-2 15 14 15 20 3 42s-11 30 4 61c9 20 20 34 23 30 3-3 0-13-8-22-12-15-11-19 9-32 29-19 28-23-10-76-25-36-29-50-22-66 9-21 10-21 29-3 37 33 75 85 70 93-3 5-1 11 5 15 18 11 11 61-13 83-13 12-27 19-31 15s-4 0 0 10c4 11 17 17 38 17 24 0 27 3 16 10-13 8-12 10 3 10 9 0 17-4 17-10 0-5 9-10 19-10 11 0 27-10 35-22 14-20 14-23 1-31-8-4-15-15-15-23s-4-12-10-9c-5 3-10-1-10-9 0-9-4-16-10-16-5 0-10-8-10-18s-6-24-12-31c-11-10-9-15 6-27 22-15 50-19 42-5-5 7 53 89 92 129 7 8 24 29 38 48 15 19 32 34 39 34 6 0 20 9 30 20s24 20 31 20c8 0 19 9 26 20 15 23 50 26 68 5 7-8 28-17 47-21l35-7-68-68-68-69 20-21 21-20 89 88c90 89 128 118 143 108 5-3 11 2 15 10 3 8 15 15 26 15s23-7 26-15c4-8 10-12 15-9 9 5 69-33 82-54 5-7 18-10 35-6 31 8 30 6-17-26-19-13-31-18-27-9 5 7-4 2-18-14-15-15-31-25-35-23-15 10-10-52 5-65 14-11 18-11 28 2 17 22 110 86 137 94 21 6 21 4-6-14-16-12-24-21-17-21s10-5 6-11c-3-6-2-14 4-18 15-9 82-100 82-111s-51-60-64-60c-5 0-24-11-42-25-39-30-47-31-39-5 3 10-1 30-10 43-8 13-12 27-8 32 5 4 3 5-3 2s-24 12-40 33c-16 22-48 61-71 87-24 27-43 52-43 56 0 5-15 24-34 42-30 29-37 31-52 20-17-12-29-59-13-49 10 6 66-55 126-135 23-31 52-69 65-86 13-16 23-33 23-37s9-14 20-22 18-16 15-18c-25-21-108-71-120-73-16-3-16-8-5-37 4-10 3-18-3-18s-13 8-17 19c-3 10-15 29-26 42-66 77-59 72-79 54-23-21-17-38 27-85 18-19 33-37 33-40s-16-15-34-28c-34-23-158-150-184-188-7-11-10-12-6-4 4 9 3 12-2 7s-9-12-9-15c0-4-10-27-22-52s-24-55-28-67c-3-13-10-23-15-23-14 0-9-193 6-208 12-11 19-46 12-54-2-3 30-40 74-86 21-22 22-22 29-3 4 10 12 22 18 26 6 3 11 20 11 38 0 31 0 31 16 9 8-12 12-27 8-34s-3-8 4-4 12 1 12-7c0-11 50-44 54-35 3 8 24 41 52 81 40 56 55 104 64 192 5 51 3 78-7 97-7 15-12 31-11 36 3 9-62 132-87 166-12 15-17 17-29 7-18-15-15-55 6-78 22-25 72-127 58-118-7 4-6-4 3-21 15-30 20-121 9-139-4-5-7-18-7-28s-4-21-10-25c-5-4-18-24-27-44-10-21-21-38-25-38-12 0-53 64-53 81 1 10 4 9 15-5 13-17 41-14 30 4-3 4 4 30 16 57 27 61 26 91-3 142-37 65-63 63-113-9-33-48-40-107-18-151 8-16 12-33 9-38s1-11 9-15c8-3 15-15 15-27 0-15-4-19-16-15-8 3-13 2-10-3s-1-11-9-15c-8-3-15 0-15 7s-5 18-12 25c-36 36-49 152-23 203 9 16 13 34 10 38-3 5 3 17 12 27 10 10 18 20 19 23 6 45 182 240 203 227 7-4 8-1 5 8s-1 16 6 16 9 8 5 20c-10 30 2 24 20-11 9-16 25-39 36-50 10-10 19-26 19-34s4-15 9-15 13-10 17-22c3-13 14-34 24-48 15-21 32-79 35-115 0-5 3-14 6-20 15-25 18-66 7-92-6-15-12-32-12-38-1-10-23-51-37-69-5-6-28-35-51-63-90-110-98-121-98-130 0-5-18-26-40-48-22-21-38-41-35-43 9-10-18-32-39-32-20 0-69 46-129 120-15 19-37 46-47 59-11 13-17 28-13 34 3 5 2 7-4 4-5-3-25 19-43 50-43 70-49 144-19 213 11 24 21 57 23 73 2 15 11 36 20 45 8 10 19 33 22 50 4 18 10 32 14 32s15 18 23 39c9 22 21 42 27 46 17 11 11 54-10 65-17 9-20 8-20-7 0-10-10-29-22-43-13-14-30-41-39-60-42-88-64-145-61-157 2-7-4-16-12-19-9-3-13-10-11-15 3-5-1-19-10-32-8-13-13-26-10-28 7-8-73-91-101-106-14-7-30-10-35-7s-9 1-9-4c0-13-48-24-63-15-7 4-22 6-34 4-13-1-23 3-23 9s-5 8-11 4c-13-8-59 42-59 65 0 9 7 27 16 39 9 14 14 33 10 46-3 13 4 59 15 102 11 44 22 98 24 121 2 22 6 52 10 65l7 23-19-25c-31-39-52-85-64-139-10-46-29-79-29-51 0 7-8 9-21 5-21-7-21-6 3 26 14 19 37 59 52 89 16 30 34 62 41 70s25 41 40 73c15 31 30 57 34 57s14 16 21 35c8 20 20 41 27 47 18 15 17 68-2 68-12 0-30-22-83-105-7-11-17-32-23-47-6-16-14-26-18-23-4 2-8-1-8-8 0-21-69-137-77-130-4 4-4 0 0-10 3-10 1-17-5-17s-11-9-11-20-7-23-15-26c-8-4-13-10-10-14s-1-13-9-19c-16-13-9-64 8-54 7 4 8 3 1-5-5-5-21-12-35-14-14-1-27-5-30-8s-51-20-107-39c-57-18-104-38-104-44-2-14 2-41 5-45 3-2 38 9 159 51 71 24 82 18 23-13-37-19-48-31-62-71-16-43-34-65-34-40 0 4-19 5-42 0-45-8-90-11-73-3 15 6 12 222-4 269-20 58-58 114-86 127-14 6-25 16-25 22 0 7-21 10-60 8-45-3-60 0-60 10 0 23 76 96 124 118 25 11 46 25 46 30s16 12 35 16c29 5 35 10 35 32 0 14 2 23 4 21 3-2 1-49-3-104-5-74-3-110 6-139 8-21 12-41 9-43-3-3 2-12 10-20s12-18 9-23 7-18 21-29c38-30 118-26 140 7 8 12 18 21 22 18 8-4 26 13 31 29 2 6 7 9 13 7 5-1 7 2 4 7s1 14 9 21 12 16 9 21 0 19 7 31c15 27 15 84 1 119-11 29-99 110-116 108-6-1-30-1-53 0-50 1-55 15-18 55 13 14 21 26 18 26-4 0 6 14 22 30 16 17 34 30 42 30 7 0 17 8 22 19 6 10 18 21 26 25 9 3 13 2 10-4s1-7 9-4c9 3 13 11 9 17s0 8 11 4c9-4 15-3 12 2-7 11 22 23 36 14 7-3 8-1 4 5-4 7 5 9 29 5 33-5 36-3 50 30 8 20 15 39 15 42 0 21-153-18-205-53-66-44-135-103-135-116 0-7-9-21-20-31s-20-26-20-35c0-30-26-53-66-57-47-4-162-60-175-85-5-10-16-18-24-18s-15-7-15-15-9-19-20-25-20-16-20-23c0-26-46-96-74-113-34-20-126-110-126-123 0-5-6-14-14-20-20-17-106-196-106-220 0-9 16-26 36-39 31-20 45-23 98-19 61 5 152 19 214 33 32 7 33 6 21-13-10-17-9-25 11-53 15-21 18-31 9-28-8 2-20 16-27 31-15 30-9 30-164-2-53-11-110-19-125-19-16 1-50-9-76-20-26-12-50-21-52-21-30 0-105-82-105-114 0-7-9-37-20-67-13-34-20-80-20-122 0-52-4-70-17-80-10-7-24-23-30-36-54-96-59-128-34-207 12-38 18-71 14-74-5-3-19-20-31-38-18-25-22-45-22-106 0-55 4-78 16-87 32-27 34-45 8-99-22-48-24-65-24-196 0-134 2-147 25-191 14-26 54-78 89-116 63-67 64-68 70-42 4 14 10 24 13 21 7-8-15-66-34-88-18-21 0-72 23-67 8 2 15 6 14 11 0 4 7 21 16 38 14 29 16 30 29 13 7-11 11-23 8-28-4-5-1-6 4-3 18 11 55-27 59-60 2-21-3-36-17-48-19-18-20-18-45 13-14 17-31 29-38 26-17-7-108 76-102 92 3 7 1 16-5 20-6 3-10 22-9 43 3 49 2 53-15 75-12 16-17 17-30 6-11-9-15-33-15-91 0-78 0-78 40-120 40-43 48-63 30-74-29-18 8-134 54-168 22-16 23-23 19-81-5-60-4-63 27-89 17-15 40-27 50-27s22-5 25-10c4-6 10-8 15-5s21 0 37-6c15-6 42-13 58-16 17-3 48-11 70-18 22-8 76-21 120-29 44-9 105-22 135-31 73-20 120-20 120 1 0 8 5 12 10 9 6-3 10-20 10-36 0-23 6-32 26-39 29-11 46-6 38 13-3 10 29 13 145 12 82 0 153-3 157-8 12-11 34-79 34-104 0-12 5-25 10-28 6-3 10-10 10-14 0-9-31-8-48 3-16 10-15-9 3-44 9-18 26-32 43-36 15-3 34-8 42-11 28-11 100-12 100-2 0 6-7 24-16 41-14 28-19 30-54 24-25-4-41-2-46 6-5 7-2 9 7 6 16-6 24 43 8 53-9 5-14 48-11 97 1 13 6 20 12 17 5-3 7 0 5 8-14 35 188 47 238 14 28-18 80-108 75-130-1-7 17-52 41-102 24-49 44-100 45-112 0-13 6-23 12-23 13 0 41-59 36-75-2-5 0-7 4-3 4 5 18-8 31-27 26-38 28-45 13-45-5 0-10 6-10 14 0 32-23 25-73-22-74-72-148-130-180-145-32-14-44-42-27-62 15-18 26-16 58 13 14 12 27 20 29 18s23 14 45 35c47 45 76 53 35 11-27-29-27-29-7-47 11-10 20-22 20-27 0-11 120-169 168-220 20-22 40-51 44-65 6-22 2-27-34-43-37-16-44-17-77-3-20 8-43 23-53 34-9 10-21 19-28 19-6 0-9 4-6 9 10 16-21 20-43 4-12-8-27-13-34-10-6 2 4 12 23 22 19 9 45 27 58 38 19 18 25 19 32 7 5-8 7-17 4-22-6-9 32-48 47-48 5 0 7-5 3-12-5-7-3-8 5-4 7 5 21 0 32-10 15-13 22-15 31-6 7 7 8 12 2 12-5 0-16 16-23 35s-23 47-35 63c-13 15-26 39-30 54-3 15-15 30-27 33-11 4-42 29-69 57-42 44-50 48-69 38-12-6-27-8-34-4-6 4-9 4-5-1 4-4 0-14-8-22-19-19-14-24 25-25 23-1 30-5 27-15-3-8-1-11 4-8 6 3 10-1 10-9 0-9 1-16 3-16 1 0 20-7 42-14 33-12 37-16 21-22-11-4-22-2-28 7-8 11-9 10-4-4 4-12-2-25-16-38-28-23-39-24-31-3 3 8-4 25-17 40-13 13-19 24-14 24 5 1 0 8-12 18-23 19-105 141-108 159-1 7-10 20-19 30s-23 35-32 56c-24 57-39 47-32-23 4-45 12-69 34-97 55-72 104-154 98-164-4-5-1-8 7-7 7 2 12-3 11-9-2-7 1-13 6-13s13-9 16-21c5-15 10-18 18-10 6 6 15 11 19 11 15 0 8-15-14-30-26-15-158-23-158-8 0 5-9 6-20 3-11-4-20-2-20 4 0 10 17 16 65 23 16 3 19 12 22 60 3 69-13 88-48 58-14-11-18-19-11-20 8 0 12-9 10-23-2-12-6-21-11-19-4 1-20-4-37-13-32-17-86-20-94-6-3 5-15 7-26 4s-26 0-33 6c-8 6-17 8-20 4-4-3-7-1-7 6s-5 9-11 5c-6-3-22 6-36 22s-28 27-31 24c-4-3-7 19-8 48-1 65-21 85-76 77-60-8-44 11 27 35 91 30 120 57 133 123 12 60 2 111-29 157-9 14-17 30-17 35 1 6-8 15-18 20-40 21-66 44-60 53 10 16-49 86-82 99-37 13-51 1-28-23 9-8 16-20 16-26 0-5 10-19 22-29 22-19 22-19 3-17-19 3-69-35-59-44 2-3-6-24-18-49-17-36-21-61-20-139 0-88 2-95 21-98 12-2 30 7 44 22 26 27 43 35 31 14-3-7 10 5 30 27 36 40 38 46 41 121 1 28-2 41-12 41-7 0-13-6-13-12 0-7-16-30-36-51-20-22-40-48-45-59-7-14-8 0-5 43 2 35 11 71 19 80s12 23 10 30c-7 19 34 14 75-9 24-14 45-38 60-68 23-49 29-91 12-91-6 0-10 6-9 13 3 27-1 57-9 57-10 0-52-77-52-96 0-8-4-14-10-14-5 0-10-7-10-16 0-14 3-14 15-4 8 7 15 9 15 4 1-5 11 3 23 18 15 19 26 25 36 19 22-14-42-67-95-80-89-23-144-10-170 41-23 45-27 128-8 150 11 12 15 29 11 59-4 40 0 57 35 135 6 13 6 34 0 57-10 35-9 37 13 37 13 0 26-4 29-8 3-5 40-19 82-32 59-17 78-19 84-10 9 15 120-178 127-221 2-17-1-37-7-45-16-18-15-91 1-110 6-8 8-14 3-14-10 0 27-27 39-29 16-2 18 144 3 215-14 65-64 169-118 247-11 16-18 30-16 33 9 8 38-8 38-20 0-6 9-12 20-13 16-1 20 4 20 28 0 17-4 28-10 24-5-3-20 10-32 29-13 20-27 36-31 36-5 0-5-4-2-10s-8-9-27-9c-18 1-41 1-50 0-22-1-24-34-3-51 8-7 21-25 29-41l14-28-26 19c-43 31-353 126-373 115-5-4-9-17-9-31 0-18 5-24 23-24 35 0 155-43 133-48-10-2-39-15-62-28-24-14-44-21-44-17s-6-1-12-10c-8-10-18-13-25-9-9 6-3 18 21 43l34 34-26 5c-28 5-43-5-76-51l-17-24 6 30c14 68 28 116 36 121 19 11 9 42-16 46-13 3-23 2-22-1 0-3-7-21-16-39-10-18-20-47-22-65s-8-50-15-72c-6-22-14-64-19-92-6-45-5-55 10-69 24-22 48-4 42 30-7 35 24 84 53 84s30-12 4-38c-11-11-17-20-13-20s2-5-5-12c-15-15-16-48-2-48 6 0 10 5 10 11s7 8 16 5c8-3 12-2 9 4s-1 10 6 10 32 9 55 20c35 17 44 28 54 66 15 51 30 67 30 30 0-39-37-124-67-154-24-24-34-27-98-27-63 0-75 3-117 33-77 53-142 130-86 101 29-15 58-45 58-59 0-6 5-8 11-4 15 9 3 84-18 106-10 11-30 18-51 18-31 0-34-2-29-22 6-23 6-23-9-3-28 37-63 100-69 126-6 23-3 27 22 30 15 2 62 1 103-2s63-6 48-7-42-11-60-22-43-20-55-20c-26 0-35-11-23-29 5-9 29-14 64-15 48 0 59 4 85 28 16 16 27 35 24 42-3 8 1 14 11 14 17 0 44 46 33 56-3 4-25 6-48 6-23-1-62 6-86 14-25 9-48 13-51 10-3-4-16 4-29 16s-23 18-23 14c0-3-13 0-30 9-40 21-77 19-90-4-16-31-13-43 8-32 20 11 62 4 62-10 0-4-9-13-20-19-26-14-26-55 0-98 11-18 20-40 20-50 0-9 9-28 20-42s20-28 20-32 21-35 46-69c46-59 126-128 152-129 6 0 12-8 12-17 0-29 56-117 93-149 66-55 80-63 151-84 39-11 76-23 82-25s14-16 17-32c7-34 57-97 109-139 21-16 47-37 59-46 12-10 31-20 43-23 11-4 36-14 55-22 19-9 62-18 96-21 49-3 63-9 71-25 5-11 32-28 63-39l53-20 64 21c78 26 89 26 106 3 7-9 32-32 54-50 39-30 47-32 121-32 62 0 83 4 99 18 34 32 54 34 86 7 26-22 39-25 107-25 86 0 99 6 174 83 29 30 41 37 47 27 9-15 96-50 123-50 24 0 108 43 130 67q18 21 42 15c35-6 161 36 215 72s130 106 130 119c0 5 9 20 20 34s20 34 20 44c0 12 7 19 19 19 29 0 147 45 181 70 39 28 80 68 80 79 0 4 9 16 20 26s20 24 20 32c0 25 30 73 45 73 19 0 155 134 155 153 0 8 6 20 14 26 18 15 66 113 66 134 0 9 5 19 10 22 19 12 11 63-10 70-27 8-25 19 5 35 20 11 27 11 40 0 23-19 20 9-5 40-11 14-20 28-20 31 0 4 21 14 48 24 90 33 92 36 92 120 0 57 3 75 14 75 7 0 25 18 40 40 22 34 26 50 26 115 0 59 3 77 15 81 24 9 55 88 55 136-1 24-7 61-15 83-13 37-13 41 5 60 11 12 20 27 20 33s9 26 20 44c16 27 20 51 20 131 0 56-4 97-10 97-5 0-9 17-8 37s-4 39-10 41c-7 2-12 21-12 43 0 28-6 42-20 51-25 16-26 28-2 28 10 0 23 5 30 12s12 20 12 30 5 18 10 18c19 0 11 96-10 123-11 14-20 30-20 37 0 6-10 20-22 31-17 13-20 21-11 27 20 13 33 61 33 121 0 47-6 66-31 107-32 49-65 84-81 84-4 0-8 4-8 10 0 5 7 7 15 4 12-5 15 4 15 47 0 30-5 72-11 94s-13 51-16 64c-6 26-54 102-75 118-17 14-134 51-186 59-23 4-42 9-42 13 0 3-10 7-22 7-13 1-66 10-119 20l-96 19 18 40c10 22 19 47 19 56s7 22 15 29c10 8 13 23 10 41-3 16 0 40 7 52s11 33 9 46 3 35 10 49c12 22 11 26-10 43-13 10-27 17-31 14s-11-30-15-60c-3-30-11-55-17-55s-8-15-5-37c4-24 0-45-8-56s-11-25-9-31c9-25-19-35-59-23-20 7-37 15-37 19 0 5-16 8-35 8s-58 8-87 19c-175 61-218 71-218 52 0-17 49-60 77-66 64-15 123-37 118-46-4-5 0-6 8-3 11 4 14-8 16-53 1-32 11-87 23-122l21-63 49 4c54 6 101 39 91 66-5 11-2 14 10 9 9-3 17-2 17 3 0 6 9 10 20 10s20-5 20-11c0-5 5-7 11-4 14 9 81-4 74-15-3-4 4-6 14-3 11 3 35-3 54-12s45-15 58-14c39 3 61 0 55-10-4-5 2-7 13-4 10 3 22 0 25-6 4-6 20-11 36-11s33-7 38-16 13-17 18-17c5-1 8-6 6-10-1-5 2-5 8-2 7 4 14-2 17-14s9-21 13-21c21 0 45-149 27-167-4-3 1-12 11-19 16-12 15-13-5-14-29 0-43 28-43 84 0 43-14 83-34 97-5 4-6 11-3 16s-2 16-12 25c-16 13-22 14-51 2-18-8-30-17-26-21 3-4-4-17-15-29-18-19-20-26-9-39 16-19 29-19 51 1 20 18 38 12 38-14 0-9 1-26 3-37 4-41-2-84-14-97-20-20-15-66 10-90l22-22v25c0 14 9 43 20 65 18 33 20 35 17 12-2-15 0-25 4-22 5 3 9 0 9-5 0-6 6-11 13-11 8 0 22-9 31-19 17-18 17-19-1-23-10-2-18-10-18-18-2-31-18-90-25-90-8 0-23 39-21 53 1 5-3 6-9 2-11-7-21 2-68 62-19 24-31 47-28 52s-1 14-9 21-15 17-15 23-8 19-17 30c-17 19-17 20 3 9 11-6 26-18 34-26 28-35 60-3 38 37-7 12-11 26-10 30 1 5-2 6-8 2s-30 10-53 31-40 39-37 39-2 8-10 17-18 14-23 11c-11-7-58 33-49 42 4 5 2 5-5 1-6-3-29-1-50 6-37 13-126 12-490-5-65-3-107-3-93 0 21 5 22 6 7 12-17 6-16 9 7 34 17 18 28 44 32 77 4 28 11 50 16 50s6 5 3 10c-4 6 21 10 69 10 50 0 76-4 79-12 3-7 6-3 6 9 1 27-24 53-50 53-11 0-18 3-16 8 3 4-51 6-118 5-126-1-150 5-144 39 1 7-3 26-9 41-7 16-12 34-12 42 0 7-14 18-31 24-43 15-44 14-26-13 9-14 14-36 11-54-3-17 0-33 6-37 5-3 10-15 10-26s-4-17-10-14c-5 3-7 0-4-8 4-11-10-15-63-20-118-12-164-9-179 11-8 10-13 12-14 5 0-25-30-13-50 20-11 17-32 68-46 112s-30 84-35 90c-5 5-9 19-9 31 0 13-4 25-9 29-5 3-15 22-21 43-7 20-17 42-24 47-22 20-67 96-61 105 7 12 95 75 106 76 5 1 14 2 21 3 6 0 8 4 5 7-8 8 60 52 130 86 45 21 49 26 40 46-6 12-14 22-19 22-4 0-8 5-8 11 0 5 4 8 9 4 11-6 71-93 71-101 0-3 8-18 19-32 10-15 24-45 31-67 13-38 14-39 20-15 7 25 7 25 13-5 12-52 28-168 30-215 2-41 4-45 27-45 14 0 30 6 36 14 14 17 34 6 34-19 0-10 7-20 15-24 8-3 15-13 15-22 0-13-4-12-18 6-10 12-31 23-47 25-17 1-51 6-77 10-53 9-58 3-34-44 14-26 17-27 74-23 44 3 62 0 74-12 20-20 28-20 28-1 0 21 28 7 36-18 4-12 15-34 26-49 11-16 16-28 12-28-3 0-1-7 6-15s23-15 36-15c29 0 30 22 4 65-11 17-36 62-56 100-20 39-40 72-45 73-5 2-9 9-9 16s-11 30-25 50-25 43-25 51-5 15-11 15-9 7-5 15c4 12 2 13-13 5-24-12-29 7-30 109-1 54-5 79-18 93-29 33-43 22-45-34-1-52-1-53-7-13-8 48-34 107-55 125-23 19-20 25 14 25 24 0 30-4 30-21 0-14 19-33 59-59 33-22 58-42 56-45s21-5 51-5h53l16 43c9 23 21 42 26 42 15 0 10 49-7 76-10 14-23 23-30 20-8-3-14-1-14 4s-7 7-15 4c-8-4-15-1-15 6 0 16-70 10-97-10-28-19-29-42-3-65 16-15 21-15 25-3 8 20 72 22 92 2 13-12 13-18 4-24-7-4-13-11-13-16 1-5-6-8-15-6s-12-1-8-8c11-18-88 36-109 59-15 16-22 18-33 10-18-15-17-4 3 26 9 14 22 25 28 25 7 0 12 16 11 43v42l45 1c47 1 110-19 110-34 0-5 14-12 31-16 17-3 28-10 24-16s1-7 11-3c14 5 16 3 11-11-4-10-3-15 3-11 19 12 100-86 100-120 0-12-9-15-38-14-37 3-68-12-125-58-16-13-26-23-23-23s-2-16-10-36c-14-34-16-137-2-128 3 2 10-8 16-24 5-15 28-47 51-71 38-39 48-43 99-48 56-4 57-3 77 29 10 18 20 40 22 48 11 61 16 81 24 86 5 3 9 32 9 65 0 52-4 63-26 84l-27 25h24c33-1 96-25 118-44 10-9 24-16 32-16 18-1 80-57 83-75 1-7 13-23 26-34l25-20-63-1c-42 0-72-6-90-17-33-22-67-52-68-61-1-16-28-62-36-62-4 0-6-21-3-46 4-30 2-51-7-61-10-12-9-18 7-29 38-28 61-7 49 43-14 55 80 191 116 168 6-3 10-1 10 4 0 6 14 11 30 11 17 0 30-4 30-9 0-4 10-6 23-4 14 2 32-5 49-22 15-14 29-25 31-25 12 0 108-100 103-108-3-5 5-20 17-32 12-13 22-30 23-38 2-8 12-25 24-37 12-13 20-31 18-42-3-15-15-18-82-21-43-2-76 1-73 5s-17 6-43 5c-32-3-51-9-54-19-11-28 14-43 70-43 29 0 56-4 59-10 8-13 88-13 102 1 6 6 19 9 29 7 11-2 24 0 29 5 6 4 18 13 28 20 17 12 17 14-3 54-11 23-20 48-20 56s-7 20-15 27c-8 6-17 21-21 33-19 60-106 163-175 208-35 22-51 40-60 67-6 20-18 44-25 53-8 9-12 19-9 22 3 4 2 5-1 2-11-7-37 26-39 49-2 11-7 20-13 19-6-2-40 13-76 31-36 19-88 37-115 41-45 6-51 10-51 30 0 13-17 45-38 72-21 26-37 54-34 62s0 11-7 7c-6-4-11-2-11 4s-4 9-9 6-14 1-21 10c-40 47-183 104-261 104-21 0-41 11-66 35-35 34-39 35-110 35-54 0-83-5-111-20-27-15-38-17-41-8-7 25-65 78-86 78-11 0-27 9-35 20-11 15-26 20-62 20-43 0-70-10-135-50-16-10-26-7-68 19-60 38-128 42-168 11m748-145c6-6 17-10 25-7 8 2-1-9-20-26-33-27-35-33-32-77 3-32 7-43 13-34q9 15 9-21l-1-35-19 24c-11 13-20 28-20 35 0 6-9 17-20 24-12 7-19 16-16 21 3 4-6 18-19 29-35 31-32 59 8 76 34 15 76 11 92-9m85-87c-11-12-20-25-20-28s-15-17-32-30c-29-21-31-21-15-2 11 11 16 25 13 30-15 25 11 48 57 51 16 1 16-1-3-21m-1582-267c39 4 71-9 103-42 36-36 44-68 30-111-16-48-96-128-128-128-14 0-56 80-52 102 1 7-3 26-9 41-15 35-15 53-2 77 6 10 11 32 12 47 2 36 11 53 16 30 3-13 11-18 30-16m1989-81c2-57-2-97-12-122-8-21-12-38-10-38 3 0 1-9-5-20s-19-20-28-20c-44 0-142 107-142 155 0 51 66 132 97 120 8-3 11 0 8 6-5 7 10 9 42 7l48-3zM709 3906c16 4 32 1 35-5 4-6 12-9 17-6 24 15 104-78 97-113-1-4 4-20 10-35 7-17 10-63 8-118-4-72-2-89 10-89 8 0 14-4 14-9s-29-12-65-16c-67-7-73-12-55-46 7-12 7-19 1-19-5 0-12 8-16 19-3 10-16 30-29 44l-23 25 41 13c73 23 118 49 114 67-4 21-33 27-62 14-61-29-244-62-232-43 4 7 1 8-8 5s-16-10-16-15-33-9-74-9h-75l4 28c6 42 49 123 87 161 18 18 33 37 33 41s17 26 38 49c20 22 37 37 37 32 0-6-4-12-10-16s-6-15 0-30c5-14 7-25 4-25-4 0-2-6 4-13s13-34 16-60c3-27 9-54 13-60s7-26 6-43c0-31 1-32 30-23 39 11 42 15 28 33-7 8-10 24-6 35 3 11-1 34-10 51s-15 36-14 43c2 6-1 32-5 55-5 28-4 48 2 54s8 17 5 24c-3 8-2 22 3 32 6 14 8 12 12-10 3-24 7-27 31-22m1996-64c-12-12-25 15-24 51v42l14-45c8-24 12-46 10-48m-1434-156c-6-7-13-29-15-49-3-20-9-44-14-54s-7-24-5-30c3-10-12-13-56-13-55 0-63-3-70-22-5-13-6-26-2-30 7-7 111-37 151-43 14-2 45-10 70-18 25-9 77-25 117-36 71-21 98-38 155-96 44-45 52-56 77-104 28-55 17-71-49-71-47 0-135 38-152 65-4 7-32 23-63 36-30 13-55 29-55 36s-7 10-16 6c-8-3-27 3-42 14s-35 22-46 26c-47 18-165 127-167 154-3 45 25 114 54 134 5 3 8 10 8 15-1 5 6 17 14 27 8 9 15 23 15 31 0 16 28 41 36 33 4-3 18 5 33 19 25 24 26 24 29 4 2-12-1-27-7-34m704-73c-1-54-13-103-25-103-11 0-22 83-14 106 21 58 40 56 39-3m1218-44c35-10 52-10 65-2 16 9 18 7 19-22 1-31-1-33-31-28-17 2-46 8-63 13-40 10-45 4-28-37 10-23 19-31 29-27 11 4 16 0 16-15 0-14-6-21-20-21-24 0-35 20-53 99-14 58-13 62 2 58 9-3 38-11 64-18m-2158-95c-4-27 0-45 17-73 13-20 22-39 21-43-2-4 18-24 43-44 27-22 43-43 40-51s-2-11 3-8c12 7 25-31 16-45-8-13-141-13-165 0-10 5-40 10-67 11-54 2-99 24-153 76-19 19-57 50-85 70-54 41-94 45-150 15-16-9-34-15-38-14-5 1-6-2-3-6 3-5-5-21-18-35s-38-46-56-71c-36-49-55-51-65-5-4 16-11 29-16 29s-9 7-9 16c0 8-4 13-9 9-5-3-12-1-16 5-3 5-15 10-25 10-31 0-64-82-62-157 0-56-2-64-16-58-9 3-13 3-10-1 4-3 1-13-7-21-17-17-19-32-5-53 7-10 12-11 18-4 6 9 31 23 114 65 10 5 20 9 23 9 10 0-3-58-18-80l-15-22-7 21c-4 14-15 21-31 21-19 0-24-5-24-24 0-14 5-28 10-31 22-14 6-40-70-115-81-80-91-98-65-120 12-10 22-5 55 29 23 23 45 39 50 36 6-4 7 2 3 11-5 14-3 16 11 11 9-4 15-3 11 2-3 5-1 12 5 16 5 3 10 19 10 36 0 39 16 37 25-3 13-56 13-110-1-115-7-2-11-10-8-18 6-14-20-27-40-19-7 3-13 16-13 30 0 32-9 40-27 25-20-17-25-58-9-81 8-11 11-25 8-30-3-6 1-13 9-16 9-3 16-13 16-21s8-28 17-46 19-43 21-57c2-13 8-30 14-37 5-7 7-16 4-21-3-6 1-15 9-22 19-16 19-50 1-86-8-15-13-31-10-36 3-4-2-15-10-23q-15-16.5-9-45c3-19 1-30-6-30-6 0-11 4-11 9s-16 16-35 25-35 21-35 26c0 4-9 6-20 3s-20 0-20 6c0 14-30 15-31 1 0-5-1-50-1-100 0-116-1-110 22-110 20 0 26 27 22 113-1 36 11 34 69-10 52-40 53-42 49-145-2-53 0-58 19-58 41 0 45 10 46 107 0 50-4 66-22 85-20 21-35 53-17 35 10-10 30 15 39 48 4 17 10 75 12 131 4 88 2 106-16 138-12 20-21 45-21 54 0 10-5 23-11 29-7 7-1 26 22 63 30 49 32 58 31 139 0 71-4 94-23 126l-22 40 22-23c12-12 26-20 30-17 22 13 51 98 51 150 0 40 4 57 15 61 8 4 38 35 66 71l51 64 59-2c50-2 62-7 86-31 15-15 23-28 19-28-15 0 48-71 82-92 19-12 58-25 86-30 28-4 71-12 96-18s95-17 155-24c69-8 127-21 154-35 25-11 49-21 55-21 13 0 96-81 96-94 0-15 32-46 47-46 7 0 33-10 58-21 32-15 47-29 52-48 3-14 14-38 24-53 11-14 19-33 19-41 0-9 5-19 10-22 6-3 10-21 10-40s5-37 10-40c6-3 10-13 10-21 0-9 13-34 29-57 37-55 88-163 96-207 15-80 17-214 4-254-27-82-88-153-139-162-49-9-67-28-74-78-4-23-22-66-41-95s-35-59-35-66c0-25-175-135-215-135-9 0-23-7-32-16-20-19-53-15-67 10-6 10-31 39-56 64-41 41-45 43-48 23-2-12 2-29 8-36 18-21 4-45-25-45-28 0-29-3-15-31 8-13 21-19 47-19 22 0 33-4 28-9-12-10-113-30-120-23-3 3-5 21-5 39 0 37-44 93-73 93-8 0-23 11-33 25-27 36-34 31-34-24 0-51 21-83 78-121 29-19 28-30-2-30-44 0-75 18-82 47-14 53-45 113-59 113-24 0-19-86 6-122l21-29-38 7c-51 9-64 20-64 55 0 16-4 29-10 29-5 0-10 17-10 38 0 40-14 67-63 120-39 41-62 43-53 5 7-29 11-64 14-111 1-16 15-43 32-62 16-18 27-36 24-39s-24 14-47 39c-51 55-201 175-243 195-17 8-51 35-74 59-36 38-46 43-58 33-13-11-14-9-1 12 41 69 40 65 18 84-29 24-37 22-51-13-14-33-17-32-68 24-27 29-31 37-16 34 14-2 22 6 30 29 17 50 60 113 73 108 7-2 10 2 6 11-3 7 0 14 6 14 16 0 13 29-4 47-14 14-18 13-35-7-11-13-20-27-20-31s-17-25-38-47c-32-33-37-45-35-78l2-39-19 25c-11 14-20 31-20 38 0 6-5 12-11 12s-9 6-6 14c3 7 1 18-5 24-13 13-18 152-5 177 5 10 10 31 9 46 0 15 5 33 13 39 9 7 10 21 5 45-7 33-7 33 16 23 13-6 24-15 24-20 0-4 7-8 15-8s30-9 50-20 45-20 56-20c19 0 20 4 15 58-3 31-8 71-10 87-3 17-5 33-5 37-2 12-41-5-41-18 0-8-6-14-12-15q-15 0 0-6c6-2 12-18 12-34 0-22-5-29-20-29-11 0-20 4-20 9s-9 13-20 16-20 11-20 17 3 9 6 5c12-12 114 104 114 129 0 39-30 29-88-31-30-30-58-55-64-55-5 0-15 14-21 30-6 17-15 30-19 30-14 0-9 28 6 33 8 3 18 22 21 41 6 31 9 34 26 23 10-6 18-16 17-22-1-5 4-22 10-38 10-25 14-26 32-15 25 15 21 56-8 96-73 104-88 207-36 259 15 16 24 6 24-28 0-15 5-31 11-34 6-4 8-13 5-21-8-20 30 0 42 23 11 18 4 53-9 53s-10 230 3 253c5 10 10 28 12 40 4 33 24 77 36 77 5 0 10 7 10 15 0 9 6 12 15 9 10-4 15 0 15 11s7 16 23 14c12-2 33 3 45 10 13 7 26 10 29 7 4-3 12-1 20 5 7 7 30 13 51 16 20 2 66 11 102 20s88 17 117 17c48 1 55-2 90-39 35-38 41-40 77-34 37 6 60 25 49 41-2 5 0 15 6 22 9 10 8 15-4 20-31 11-5 23 65 30 48 5 73 12 77 22 10 26 14 14 8-22m1835 29c0-5-9-21-20-38-11-16-20-36-20-44 0-28-75-82-197-143-68-33-126-58-130-55-3 4-11 3-17-2-6-4-24-11-39-15-22-5-27-4-21 6 4 7-9-4-30-24-21-21-44-38-52-38s-13-5-12-12c2-7-7-17-19-23-13-5-23-14-23-20s-9-11-20-12c-15-1-20 5-22 25 0 15-2 34-3 42s5 22 13 32c7 9 29 40 47 70 19 29 35 49 35 43 0-7 3-6 8 0 18 26 76 66 88 61 8-3 14-2 14 3 0 10 44 29 83 35 16 3 35 10 42 16 8 7 19 9 25 5 5-3 10-1 10 5 0 7 7 9 15 6 9-3 18 1 22 10 3 8 12 13 19 10 8-3 14-1 14 5s7 8 16 5c8-3 12-2 9 4-5 8 66 33 125 43 14 2 28 5 33 6 4 0 7-2 7-6m-2016-51c-6-4-14-16-18-26-5-14-10-16-18-8-16 16-2 42 24 42 13 0 18-4 12-8m2554-201c9-5 35-16 56-25s53-31 71-47c29-28 32-36 28-73-4-33 1-54 22-93 14-29 33-57 41-64 16-13 19-45 4-54-5-3-10-35-10-71 0-35 5-73 10-84 23-46 34-66 44-82 8-13 5-27-8-55-28-56-39-110-39-183 0-74 16-153 38-187 15-22 14-26-5-52-25-35-27-121-5-174 18-43 18-47 4-47-17 0-48-40-76-98-23-49-24-56-13-103 11-45 11-51-6-64-11-8-23-15-28-15s-16-8-25-18-37-33-63-52c-27-18-48-40-48-47 0-8-4-12-9-9-5 4-11 1-13-5-4-13-109-48-126-41-23 8-6 26 26 28 62 3 98 79 76 162-7 26-34 30-34 5-1-23-28-57-57-72-13-7-23-18-23-26 0-33-51-94-78-95-7 0-23 5-35 11-21 12-21 12 9 36 29 23 29 24 9 39-30 23-85 11-116-26-30-35-51-37-133-10-33 11-70 20-83 20-12 0-23 2-23 4 0 16 14 36 26 36 17 0 84 67 84 84 0 8 14 29 30 46 39 41 34 56-15 51-45-3-106-41-125-76-13-25-30-33-30-15 0 5-10 18-22 30-12 11-18 20-12 21 5 0 0 4-11 9-22 9-75 13-75 5 0-17 47-94 57-95 14 0 63-61 63-78 0-6 6-13 13-15 6-3-6-3-28 0-53 8-140 52-195 100-25 22-76 52-115 68-84 34-101 49-109 96-5 28-2 39 14 54 16 14 20 31 20 78 0 33-5 76-12 94-10 27-10 38 0 53 20 32 15 113-8 143-11 14-20 29-20 34 0 8-20 52-62 134-10 20-18 44-18 53 0 8-9 32-21 52-16 29-21 57-22 124-2 95 8 120 48 120 14 0 38 17 64 45 23 25 59 57 80 71 22 14 55 50 75 80s41 54 47 54c7 0 32 15 58 33 52 37 139 87 152 87 5 0 32 11 61 24 80 35 111 42 243 52 44 3 84 9 90 15 12 11 269 12 293 0m-3079-30c8-5 10-14 6-21-5-9-4-11 3-6 8 5 12 0 12-13 0-12-5-21-10-21-6 0-20-9-32-20-31-29-53-27-33 3 8 13 13 33 10 46-7 38 12 52 44 32m3550-291c16-30 20-55 18-105-1-36-3-65-5-65s-17 14-33 31c-16 18-31 30-33 28s-8-13-14-24c-11-19-11-19-12 3 0 12 5 22 10 22 6 0 10 10 10 23 0 12 7 31 16 42 10 14 13 31 8 59-8 47 6 42 35-14m-169-75c7-8 21-15 31-15 23 0 26-38 5-46-8-3-12-12-10-19 3-7 1-16-5-20-15-9-13-36 4-59 13-17 15-17 29-3 9 9 16 25 16 37 0 11 6 23 13 26 15 5 94-62 84-72-3-4-13 1-22 10-21 21-24 20-18-4 4-14 0-20-11-20-9 0-13-6-10-14 8-22-27-28-50-9-42 36-44 40-75 116-13 33-15 107-2 107 5 0 14-7 21-15m205-215c-3-4 2-13 10-20 17-14 20-75 5-85-5-3-10-17-10-31 0-13-3-24-6-24-12 0-35 30-29 40 4 6-1 7-11 3-13-5-16-3-11 10 5 14 2 15-18 7-20-7-25-6-25 5 0 8 8 15 17 15s13 3 10 6c-4 4 2 19 13 34 11 16 20 33 20 38 0 12 21 21 33 15 4-2 5-8 2-13m-175-52c0-12-10-9-26 6-20 21-17 28 6 14 11-7 20-16 20-20m60 27c0-13-33-55-43-55-5 0-3 8 6 18 10 10 17 24 17 30 0 7 5 12 10 12 6 0 10-2 10-5m-53-57c13-17 14-56 2-63-5-4-9-17-9-31 0-13-4-24-10-24-5 0-10-20-10-45 0-38 4-47 23-54 15-7 25-5 33 5 6 8 19 14 28 14s16 5 16 11c0 7 10 9 25 7 13-3 23-1 22 5s7 13 17 15c14 3 17 0 13-12-4-10-1-19 7-22 7-3 13-21 14-41s6-39 11-43c16-9 11-191-5-216-8-11-11-23-8-27 4-3-1-14-10-23-19-19-26-15-29 14 0 11-6 20-12 19-5-1-11 11-13 27s0 26 6 22 8 3 5 15c-4 12 0 25 8 30 20 12 19 139-1 160-9 10-21 13-30 9-54-27-69-31-81-25-7 5-10 4-5-3 3-6 2-13-4-17-18-11-11-35 13-44 15-7 25-5 33 5 18 22 21 17 23-41 2-76-15-73-68 9-17 28-31 58-31 68s-4 18-10 18c-5 0-10 9-10 19 0 11-4 22-9 25s-9 44-10 90c-1 68 1 85 14 90 9 3 14 10 10 16-6 10 15 50 26 50 4 0 11-6 16-12m73-57c0-10 14-30 32-44 17-15 28-30 23-34-4-5-10-2-12 5-5 14-43 16-43 2 0-5-9-10-20-10-13 0-20 7-20 20 0 11 5 20 10 20 6 0 10 14 10 30 0 17 5 30 10 30 6 0 10-8 10-19m-72-401c6 0 13-6 15-12 4-10 8-9 16 2 5 8 13 11 18 6 4-4 0-12-9-17-29-16-57-64-51-87 8-31 18-28 63 20 24 26 40 37 40 27 0-8-5-20-10-25-7-7 0-29 21-70 26-47 32-71 32-116-1-33-7-65-15-77-15-21-15-21-32-2-10 11-15 25-11 30 4 8-2 8-21 1-15-6-28-9-30-8-7 7 37 49 46 43 5-3 10 1 10 10s4 13 10 10 7 1 4 9c-3 9-1 16 5 16 16 0 13 45-3 60-12 9-19 5-38-24-13-20-27-36-31-36s-21-14-37-31c-15-17-33-28-39-24-6 3-10 3-9-2 2-4 0-9-4-10-5-2-18-13-30-25l-22-22-10 34c-7 25-7 35 2 38 7 2 12 9 12 16s9 21 20 31 20 26 20 37c0 45 35 3 39-47 1-13 4-13 21-3 28 18 29 47 5 93-34 64-52 143-40 174 6 14 8 14 19-1 7-10 18-18 24-18m32-361c0-10 4-19 10-19 5 0 9-10 7-22-3-28-42-62-59-52-7 4-10 4-6-1 7-8-68-64-87-65-5 0-21-9-34-19-14-10-31-17-38-14s-13-1-13-8c0-8-18-30-39-49-36-33-81-99-81-119 0-16 106-44 126-33 11 5 37 13 59 17s45 11 52 17c7 5 16 7 22 4 10-7 21 16 21 44 0 11-9 19-25 22-13 3-22 2-20-2 8-12-55-32-107-35-27-2-48-1-48 1 0 3 15 21 34 40 21 22 40 33 47 28 7-4 10-3 6 3s12 23 35 38c28 19 39 22 35 12-4-12-2-14 10-10 12 5 15 2 10-9-3-10 0-19 9-22 8-3 14-12 14-20 0-9 9-31 20-51s20-44 20-54c0-23-25-45-41-35-8 4-9 3-5-4 8-13-37-28-53-17-6 3-11 2-11-3 0-15-70-38-120-41-24-1-49-6-55-10-5-5-24-11-41-14-18-3-43-9-58-13-21-5-25-3-21 9 4 8 17 19 31 26 14 6 23 15 19 21-7 12 14 99 32 128 7 12 11 27 8 32-9 14-56 1-81-21-11-11-24-17-27-14-4 3-5 2-2-2 3-3-1-13-7-21-15-17-14-16-16-99-2-49-5-63-17-63s-15 13-15 58c0 46-4 63-20 77-11 10-20 24-20 32 0 11-4 11-20 1-27-17-25-30 10-99l29-59-48 35c-67 48-85 46-101-10-7-25-10-48-7-51s22 0 41 7c35 13 37 12 66-21 16-19 29-43 30-52 0-12 8-18 25-18 65 0-10-38-87-45-15-1-34-7-42-14-13-11-14-7-13 27 1 40 2 40 49 46 52 7 55 11 34 42-14 20-17 20-108 7-83-13-94-12-104 2-9 12-14 13-19 5-4-7-18-10-31-7-13 2-25-1-28-7-2-6-5-1-5 12-1 34-2 36-13 50-6 7-12 26-14 43s-20 49-39 72c-19 22-33 43-30 45 3 3 0 11-6 18-6 8-9 21-5 29 6 16 52 21 58 6 2-5 28-12 58-15 30-4 58-10 62-14 6-6 76-4 344 11 26 1 40 6 37 13-5 14 51 56 62 46 5-4 5-2 2 4-4 7 12 27 36 46 56 45 72 55 63 37-5-8 13 8 38 35s46 45 46 40 9-20 19-33c15-20 20-22 38-10 20 12 20 37 1 50-12 8 12 60 26 57 15-4 67 38 58 46-3 4 1 4 11 0 9-3 17-15 17-25m-3404-84c14-14 29-25 33-25 5 0 26-18 47-39 21-22 41-38 45-36 4 3 37-24 75-60 37-36 71-65 76-65s7-3 5-7c-3-5 7-9 21-10 15 0 28-6 30-11 1-5 11-8 21-5s37-5 60-16c23-12 61-24 84-27 23-4 44-8 47-11 8-7-24-23-37-18-21 7-15-10 12-35 14-13 23-25 21-28-3-2 6-22 20-43 29-47 30-59 4-59-15 0-20-7-21-27-1-24-3-21-16 17-8 25-17 58-19 73-2 16-11 35-19 44-9 9-14 21-11 28 7 20-45 5-74-22-25-23-55-34-32-11 7 7 12 22 12 34s5 24 11 26 2 11-9 21c-19 18-20 17-42-28-20-41-21-49-9-72 13-25 45-43 75-43 8 0 12 5 9 10-4 6 5 10 19 10 21 0 26-5 26-26 0-19-4-24-17-20-10 2-45 10-78 16-82 16-87 22-79 86 5 45 3 58-19 94-13 23-28 41-33 41-5-1-17 5-26 13-14 12-19 12-28 1-8-9-8-15 0-20 20-12 10-26-10-15-20 10-45 56-42 72 1 5-1 7-6 5-4-1-7 1-7 4 0 12-27 39-35 34-4-3-14 3-21 12-12 14-12 16 0 8 10-5 12-4 7 3-4 7-13 12-20 12-6 0-17 5-24 12-17 17-59 18-74 1-10-13-9-18 7-30 11-8 19-18 18-23-2-5 3-7 11-4 7 3 21-7 30-21s21-23 25-21c14 9 41-28 31-44-7-11-13-12-35-2-18 8-24 9-19 1 8-13-24-5-70 17-16 8-34 14-41 14-15 0-97 64-97 76 0 5-7 18-14 29-8 11-14 29-14 40 0 12-5 26-12 33-9 9-9 12 0 12 7 0 22-10 35-22 12-13 25-23 29-23 3 0 10-3 14-8 4-4 18 0 31 9 24 15 24 15 12-8-6-13-16-29-22-36-14-17-16-51-5-58 14-9 60 5 53 16-3 6-1 10 5 10s8 4 5 10c-3 5 10 33 29 62l36 52-22 23c-29 31-4 29 28-2m3443-31c7-25 6-44-1-62-6-15-12-33-14-41-1-7-7-18-13-24-7-7-7-17 1-31 11-21 11-21-11-2-12 11-19 26-17 33 7 17-21 43-47 43-22 0-21 1 3 20 14 11 29 18 34 17 17-5 46 32 46 58 0 35 7 31 19-11m-2093-76c-3-18-8-40-10-48-3-8-5-19-5-25-1-5-16-27-34-47-17-21-45-55-62-77-29-39-108-91-137-91-8 0-38-12-68-26-29-14-61-23-72-21-10 3-16 2-13-3 7-11-52-33-66-24-7 4-10 3-5-4 3-6-5-13-21-16-37-6-155-16-126-10 13 3 40 32 67 73 37 57 53 71 95 90 29 12 76 26 106 32 78 14 126 36 158 71 15 17 27 34 27 39 0 12 48 55 79 70 14 8 37 21 50 31 35 26 44 22 37-14m1341-15c-9-9-20-13-24-9s-1 11 7 16c25 16 35 11 17-7m-730 1c13-4 20-11 16-17-3-5-1-7 5-4 13 9 44-2 37-13-3-5 5-6 17-2 13 3 19 1 15-5-5-8 6-9 32-6 30 4 43 1 58-14 11-11 25-17 31-15 7 2 12-1 12-7s9-11 20-11c10 0 23-6 27-12 4-7 30-24 57-38 27-13 61-34 74-45 54-44 94-84 96-97 1-7 7-22 13-33 31-58 25-135-11-133-25 1-81-20-73-28 3-3-1-21-9-41-15-34-15-35 8-28 13 4 38 21 56 39 25 24 32 26 26 11-4-11-14-28-22-37-11-14-12-18-2-18 27 0-11-28-55-41-39-12-45-17-45-41 0-30 10-34 41-18 13 7 19 7 19 1s-13-17-30-26c-16-9-30-20-30-26s-9-22-20-36c-25-32-26-16-4 64 8 32 19 81 24 108 23 134 35 155 92 155 37 0 39 2 36 26-2 21-14 30-63 50-33 13-64 30-70 37-5 6-17 13-25 14-106 15-215 64-280 124-25 23-45 46-45 50 0 5-10 16-23 25s-21 22-18 29c2 7-6 18-20 25-47 26-24 49 33 34m-272-71c15-16 39-44 54-63 14-19 30-38 34-41 5-3 9-14 11-23 1-9 6-16 10-16 8 1 22-19 42-58 4-8-3-31-15-52-22-39-28-90-11-90 6 0 10 5 10 10 0 6 7 10 15 10s15 9 15 19c0 11 5 23 11 27 14 8 31-16 24-34-3-7-1-11 4-8 5 4 9-31 9-76 1-63-6-102-25-161-16-48-31-76-38-73-8 2-12-7-13-25 0-16-12-44-27-61l-26-31 22-23c25-26 41-32 33-11-3 8 2 20 11 27 8 7 15 18 15 24s11 28 25 48 25 42 25 47c0 6 13 37 29 68 85 172 121 216 190 233 28 6 55 8 62 4 8-5 9-3 4 6-12 20 67 5 82-15 6-9 15-17 19-18 15-4 11-112-7-182-9-38-20-83-24-98-5-25-10-28-30-23-38 10-73-10-95-55-25-48-21-60 12-30 12 12 32 20 43 19 11-2 28 5 38 16 18 21 35 16 21-6-5-7-9-28-10-47-1-37 4-33 39 30 10 17 21 29 24 25 4-3-3-20-15-36s-22-32-22-35c0-11-94-170-104-177-6-4-7-8-2-8 6 0-3-14-20-31l-29-30 25-19c13-10 28-16 32-14s30 46 59 97c29 50 58 101 65 111 13 19 13 19 13 0 1-74 3-109 7-116 8-13 41 34 51 71 4 18 12 33 17 34 12 3 27-53 19-67-3-6-3-8 1-5 4 4 26-13 49-36 23-24 45-43 50-43 4 0 25-3 47-7 45-8 70 5 70 36 0 15-7 19-34 19-19 0-37 4-41 10-3 5-12 7-19 4-15-6-76 53-76 74 0 19 18 14 30-8 6-11 19-20 30-20 10 0 20-5 22-12 3-7 10-8 17-4 10 6 8 13-7 30-11 11-28 41-38 66l-18 44-13-31c-16-40-37-56-22-16 21 55 51 99 83 121 59 40 77 29 101-63 17-67 20-135 5-135-5 0-10 17-10 38 0 32-7 45-40 75-22 19-40 43-40 51 0 9-4 16-8 16-19 0-27-22-24-68 3-39 11-57 38-88 20-21 38-39 42-39s6-3 5-7c-2-4 3-5 11-2 27 10 17-76-15-137-28-51-89-113-89-90 0 5 5 13 10 16 10 6 50 78 50 90 0 3-11 5-25 5-16 0-36-11-50-27-21-24-24-25-25-10 0 21-29 78-45 89-18 13-90 8-113-8-17-12-20-19-12-34s16-17 47-9c42 9 48 6 57-33 7-29 6-30-50-32-39-1-67 40-68 102-1 28-4 48-8 45-5-2-8 0-8 6 0 5 5 13 10 16 6 3 10 11 10 17 0 13-60-47-61-62-4-39 0-61 18-101 33-75 55-91 118-87 29 1 52 5 51 8-2 3 12 18 30 33l34 29-2-29c-1-15-6-34-12-42-9-12-8-13 4-6 13 8 13 7 1-8-8-10-16-15-18-13-3 2-13-4-23-14-11-11-41-21-72-25-44-6-58-12-72-33l-17-27 7 33c9 48-4 122-23 129-23 9-34-17-28-69 4-42 2-51-23-80-27-30-32-31-93-29-35 1-69 7-75 12-8 6-14 5-18-6-3-8-11-15-18-15s1 13 17 30c42 41 55 58 55 70 0 6 4 9 9 6s8 2 7 11c0 9 5 18 12 20 8 3 12-7 12-32 0-20 7-43 15-51 9-10 15-11 15-4s7 5 16-5c15-15 18-15 36 1 24 22 20 60-5 56-16-3-17 0-6 20 6 13 20 35 30 50 17 24 27 88 13 88-12 0-67-68-84-103-13-28-19-34-23-23-4 9-4 22-1 29 2 7-4 21-14 30-18 16-20 15-48-15-16-18-40-50-54-70-14-21-31-38-38-38s-10-4-7-10c7-12-74-102-86-94-5 3-9 1-9-5 0-5-16-19-36-31-40-26-98-23-118 6-12 16-15 15-42-2l-29-18 20 24c11 14 44 51 73 83 57 60 61 80 21 85-19 2-28-4-37-23-7-14-17-23-22-20-6 4-9 1-8-5 4-14-109-116-118-107-4 3 6 17 21 30l28 24-29 29c-16 16-36 37-43 47-14 18-13 18 28 1 25-10 46-13 49-8 8 11 64 38 74 36s31 38 24 46c-3 3-6 0-6-6 0-7-17-2-40 13-49 31-51 31-98 1-68-44-74-43-122 21-24 32-57 75-73 96-34 45-28 59 14 34 35-20 60-22 76-6 6 6 19 9 29 7 11-2 24 3 30 11 9 11 6 19-14 36-22 19-31 21-71 13-25-4-55-11-66-14-15-5-12 2 14 29 19 20 38 34 43 31 4-3 8 1 8 9 0 35 30 25 60-18 17-25 42-56 55-70l23-26 21 30c16 23 18 30 7 34-21 8-90 97-82 105 4 4 14-1 21-12 16-21 39-19 117 9 41 15 73 45 48 45-5 0-25 14-44 31-34 29-37 30-71 18-19-7-45-28-57-45-26-38-32-35-78 36-22 34-30 56-25 70 10 32 38 5 33-31-6-36 22-73 48-65 10 3 27 20 36 37 10 16 22 27 28 24 6-4 10-3 9 2-3 13 12 44 46 93 17 25 36 58 43 74 11 24 15 27 24 15 7-11 9-9 5 8-3 14 4 37 20 60 14 20 27 47 29 60 2 12 8 33 13 47 12 29 16 154 6 181-3 11-13 31-21 45-9 14-18 33-21 43-3 9-10 17-15 17s-6 4-3 10-1 7-9 4c-14-5-21-58-15-100 0-3-7-16-16-30-13-21-15-36-7-84 7-50 6-58-5-49-10 9-13 7-14-7-2-31 2-49 13-55 6-4 7-12 3-19-6-9-4-11 5-5 10 6 12 1 7-25-8-38-74-150-89-150-6 0-4 10 4 23 17 25 17 65 1 75-6 4-18 22-27 40-14 27-15 36-5 48 7 8 18 13 26 10 9-4 11-1 7 6-5 7 0 9 14 6 12-4 20-3 18 0-2 4 0 34 4 67s6 63 4 66c-8 14-82-70-89-101-6-26-9-30-16-17-13 22 5 61 39 86 34 24 62 64 68 95 2 11 8 47 13 78s11 60 14 65c3 4-1 13-8 20-11 10-15 6-24-18-6-17-14-28-18-26-8 5-39-22-37-33 0-3-16-22-35-43-20-22-35-41-33-43 1-2-5-18-14-36-12-24-15-48-11-97 5-68 33-171 50-182 5-4 7-19 3-34-4-17-3-24 3-20 6 3 20-9 30-26 20-33 19-55-1-43-6 4-8 2-5-3 4-6 0-16-8-23s-15-18-15-25c0-6-8-19-18-28-16-15-17-13-20 31-2 26-5 57-5 69-1 11-5 19-9 16-5-2-8 1-8 7s-18 28-40 47c-22 20-40 42-40 49 0 6-7 14-15 18-27 10-14-55 30-144 20-42 23-80 6-80-13 0-64 129-57 145 3 8 2 15-3 15-4 0-8 38-9 85-1 54 2 85 9 85 5 0 8 4 5 9-13 20 104 189 132 191 6 0 11 3 11 8-1 4-1 12 0 18 1 13 140 154 151 154 4 0 20-12 35-27m-1781-80c19-9 34-19 32-22s19-7 47-8c29-1 53-7 55-13 5-13 49-13 57 0 3 6 17 10 30 10s28 7 33 15c5 10 15 13 25 9 13-5 17-19 17-60 0-45 4-57 28-79l27-27-35 7c-19 4-64 18-99 31-34 13-67 21-73 18-13-8-140 37-156 55-7 9-16 14-19 11-4-3-8 12-9 33-1 20-1 37 1 37 3 0 20-7 39-17m866-53c0-11-6-19-12-17-7 1-12-6-10-15 2-10-2-18-8-18-5 0-10-5-10-11 0-7-8-18-17-26-10-8-12-11-4-8 9 5 8-1-4-19-9-14-15-32-12-39 4-10-3-14-21-13-21 1-28 7-30 26-2 14-8 31-14 37-6 7-8 20-4 28 7 19-3 45-18 45-6 0-22 9-36 20l-25 20 88-5c53-3 87-1 87 5s11 10 25 10c18 0 25-5 25-20m2430-141c0-5-4-9-9-9s-11-10-14-21c-5-17-11-20-31-17-14 3-46 0-72-7-26-6-66-11-90-11-24 1-44-2-44-6 0-5-4-8-10-8-5 0-10 9-10 21 0 11-5 30-11 42l-12 22 22-20c23-20 79-22 113-4 9 5 37 10 62 10 25 1 44 5 42 8s11 7 30 8 34-2 34-8m-498-82c-16-19-34-69-22-62 6 4 10-10 10-34 0-23-4-41-9-41-4 0-4-19 1-42 5-24 11-58 14-75 2-18 14-49 26-70 12-20 17-33 10-29-8 5-12-2-12-23 0-17 4-31 9-31 14 0 8-121-7-147-7-12-12-26-12-32s-8-24-18-40c-17-28-17-27-17 103 0 107-4 156-14 194-1 1-1 5 0 8 2 14-54 62-67 57-8-3-14 0-14 6 0 7 7 14 15 17s21 19 29 35c19 38 2 48-44 24-22-12-39-33-56-72-18-40-29-53-40-49-9 4-18-3-24-20-6-14-15-22-20-19-6 4-10 3-8-2 1-4-8-28-19-53-12-25-24-55-28-68-7-25-15-24-19 1-1 8-7 21-13 28-15 18-9 66 11 88 9 10 16 22 16 27s9 20 20 34 20 35 20 47c0 28 2 29 134 73 90 31 112 42 114 59 3 18-2 21-31 21-19 0-54-9-78-20-67-30-91-22-51 18 9 9 17 22 17 27 0 6 4 25 9 43l8 32h85c68 0 83-3 75-13m518-52c0-17-38-35-72-35-11 0-32 9-47 19-15 11-40 21-56 24-17 2 16 5 73 6 85 1 102-1 102-14m-214-12c4-10 7-21 6-24-4-19 44-44 87-45 37-2 51 3 74 25l29 26-13-30c-19-44-48-66-70-52-13 8-25 7-46-3-15-7-32-13-36-11-5 1-6-3-2-9 3-5-1-20-9-32-11-15-12-26-5-40 9-17 12-15 44 17 19 19 44 39 55 45 38 20 22-9-40-73-33-34-60-70-60-79s-4-19-9-22-11 36-15 87c-10 150-12 161-24 185-14 24-48 30-55 10-2-7 2-30 9-50 17-48 0-50-23-4-14 31-36 45-70 46-18 0-16-27 2-34 8-3 15-11 15-18s20-26 45-42c25-15 43-31 41-34-3-3-2-10 3-16 14-18 20-80 11-117-4-19-8-28-9-21-1 8-18 12-52 12-28 0-59 4-69 10-31 17-81 109-78 143l3 31 20-42c11-23 25-42 31-42 15 0 76-31 92-47 7-7 18-13 23-13 13 0 11 44-4 72-13 27-97 116-97 104 0-4-9-2-20 4-22 12-27 48-7 54 30 10 184 44 198 45 9 1 20-7 25-16M849 723c-7-10-24-31-36-46-34-43-30-74 18-119 23-22 39-41 36-44-6-7-57 18-57 28 0 4-7 8-15 8s-15 5-15 10c0 6-6 10-14 10-7 0-33 22-57 50-24 27-52 50-61 50s-20 4-23 10c-4 6 18 7 57 4 50-5 73-2 109 14 26 11 50 25 53 31 4 6 10 11 13 11s-1-8-8-17m2376-43c-2-3 12-4 31-2 24 3 34 0 34-9 1-8 7 0 15 16 7 17 14 24 14 17 2-23-20-54-77-109-40-38-58-50-64-41-5 9-8 8-8-5 0-10-12-22-26-27-33-13-47-13-39 0 4 6 10 8 14 6 3-3 17 11 30 30s27 34 31 34c15 0 1 70-19 98l-20 29 44-15c24-9 42-19 40-22M1074 338l19-33-22 20c-13 11-30 33-38 50-15 29-15 30 3 13 11-9 28-32 38-50"/><path d="M198 2024c-11-23-9-28 17-47 15-12 53-45 84-74 52-48 56-55 58-99 0-34 6-52 19-61 16-12 21-11 31 4 27 36 4 156-32 169-8 3-17 14-20 24s-18 23-33 29c-35 15-85 59-78 69 2 4-4 9-15 9-12 1-24-8-31-23m2835-657c-4-6 0-7 8-2 12 7 12 6 1-6-7-8-18-14-25-14-7-1-11-6-9-13 1-7-3-12-9-12-12 0-3-99 10-113 10-10 70 54 74 80 4 27 26 55 38 47 5-3 9-1 9 5 0 5 3 17 6 26 6 14-1 16-45 14-29-2-55-7-58-12m-1262-199c-19-29-22-52-15-107 4-34 15-52 50-88 25-25 48-42 51-39 4 3 12 1 19-5 19-16 12 26-15 86-13 28-24 60-24 72-1 11-5 19-8 17-10-6-24 29-27 69-3 23-14 21-31-5m734-90c-21-5-46-6-54-3-9 3-12 3-8-1s-4-19-18-34c-19-20-26-40-29-77-3-45-1-52 20-64 13-6 22-15 19-18-2-4 4-7 13-8s51-9 92-17c69-13 76-13 88 2 7 9 11 26 10 37-3 17-10 19-50 17-50-4-130 16-122 29 3 5-2 6-12 2-24-9-9 34 23 63 20 18 29 21 44 13 18-9 19-18 7-69-2-10 6-16 25-18 18-2 27 1 27 11 0 8 7 20 15 27 19 16 19 44 0 60-9 7-14 19-11 27 4 9 1 11-6 7-6-4-16 0-22 8-8 11-20 12-51 6m-322-25c3-13 1-23-5-23-5 0-7-4-4-8 3-5-11-24-30-43-20-19-42-46-50-61-18-35-18-96 1-132 20-38 13-44-10-9-10 15-27 38-38 50l-20 22-19-25-20-25 23-22c13-12 41-44 61-72 20-27 50-63 67-79 17-17 31-35 31-41s10-17 21-25c38-27 51-42 41-52s-62 0-62 12c0 10-70-8-87-22-16-13-2-41 23-44 11-1 36-5 56-8 32-5 43-1 73 25 56 50 61 66 31 98-15 15-23 31-19 36 5 4 3 5-3 2-20-12-113 102-105 128 2 6 5 18 7 29 2 10 15 34 30 53 15 20 37 54 48 77 19 37 20 48 10 101-7 41-15 59-24 57-7-2-17 3-22 10-7 9-8 6-5-9"/><path d="M2340 903c0-13 5-23 10-23 6 0 10-26 10-59 0-43 5-65 20-84 12-15 18-33 14-44-30-90-91-146-73-66 4 21 12 39 17 41 5 1 5 29 0 65-5 34-6 72-3 83 3 14-1 24-9 27-39 15-95-195-60-224 8-6 14-19 14-28s5-23 10-31c8-13 11-12 24 5 9 11 16 17 16 13 0-7-23-43-93-147-9-14-22-25-27-24-5 2-7-3-4-11 3-7-2-19-11-26-19-16-19-44 0-60 9-7 17-11 18-9 2 2 14 20 27 39s27 37 31 40c3 3 8 10 10 15 2 6 24 40 48 78 42 65 66 82 77 54 6-16 61-20 70-6 3 5 9 7 14 4s12 0 16 6c4 8 3 9-4 5s-12-5-12-2c0 2 15 14 33 25 20 12 33 29 34 42s11 36 23 51c26 36 18 51-23 42-43-9-92-47-123-95-40-64-46-44-8 29 20 37 47 88 60 114 13 25 28 49 34 53 14 9 13 21-6 39-17 17-34 21-34 8 0-5-14-33-30-63l-31-54 3 52c2 37-1 54-10 58-8 3-12 11-10 17 5 13-19 43-34 43-5 0-13 7-18 15-8 12-10 11-10-7"/><path d="M2092 634c-7-8-10-14-7-14 7 0-23-42-59-84-14-16-26-32-26-35 0-4-38-44-84-90-82-83-83-85-65-104 18-20 19-20 61 18 24 21 52 48 63 59 11 12 19 20 18 18-6-13 20-43 33-38 8 3 12 2 9-4-3-5 5-14 17-21 36-19 118-102 118-120 0-8-11-26-25-39s-25-31-25-41-4-21-10-24c-5-3-10-10-10-15 0-12 47-5 65 10 8 7 15 9 15 6 0-4 6-1 14 6 7 7 13 17 13 23-1 50 11 57 42 26 20-20 20-20 46 1 21 17 24 23 13 35-7 8-24 20-38 25l-25 11 34 7c18 5 49 24 69 44 22 23 38 33 42 26s11-5 21 6c9 12 10 15 2 10-8-4-13-2-13 7 0 23-57 39-83 25-12-7-26-11-32-9-5 1-7-1-2-5 8-8-51-74-66-74-16 0-97 72-91 81 3 5 0 8-8 7-7-2-12 3-11 9 2 7-3 12-10 10-6-1-11 4-10 10 2 7-3 12-10 10-6-1-11 3-10 10 2 7-4 10-12 7-8-4-15-1-15 6 0 9-4 9-17-1-16-12-17-12-7 1 6 8 33 44 59 80 27 36 54 70 61 76 10 8 8 16-9 36-19 21-24 23-35 12m248-169c-9-11-9-18 3-35 7-11 17-17 20-14 3 4 20-5 37-20 17-14 37-26 43-26s22-10 35-22l24-23 19 24c22 27 24 41 6 41-7 0-23 9-34 19-12 11-24 17-27 14-3-4-16 3-29 14-24 22-60 43-75 43-5 0-15-7-22-15m-641 4013c-21-18-47-53-33-45 7 4 15 0 18-9 3-8 11-12 16-9 13 8 99-64 186-154 58-59 63-62 73-43 6 11 11 26 11 33 0 18-97 115-172 171-38 27-68 54-68 59 0 13-14 11-31-3m-454-129c-4-6-13-8-20-6-6 3-25-3-41-13-25-17-28-24-25-70 3-66 30-100 78-100 35 0 73 15 85 34 9 14 16-8 20-59l3-40 18 34c33 66 15 165-39 206-34 26-68 32-79 14m63-72c5-7 12-20 15-30 6-15 3-16-12-7-14 7-20 6-25-5-11-29-86-10-86 22 0 28 89 44 108 20"/><path d="M2066 4315c-23-27-46-43-53-40-8 2-11 0-8-5 6-10-112-160-125-160-3 0-6-10-7-21-1-12-4-24-7-27-7-7-36 18-33 28 1 4-2 9-8 10-23 5-45 22-40 31 4 5 3 8-2 7-4-1-18 3-30 10-19 10-24 9-37-10-19-26-20-38-5-38 6 0 24-10 39-22 15-13 41-33 57-45 15-12 50-42 77-67 45-42 50-45 62-29 20 27 17 37-16 62-17 12-28 27-24 33s3 8-4 4c-6-3-13-2-17 4-3 5 0 10 7 10s26 14 41 30c16 17 33 30 38 30 6 0 8 4 4 9-7 12 154 183 166 175 17-10 9 15-13 40l-23 26zm-311 14c-11-35-56-94-68-91-7 2-9 1-5-3 3-3 1-16-6-28-24-45-69-112-78-115-4-2-6-8-3-13 4-5-5-20-18-33-14-14-23-27-21-29 3-2-14-36-36-75s-40-76-40-81-7-16-15-25c-13-13-13-16 1-30 20-21 27-20 49 4 10 11 15 20 11 20s7 26 25 58c18 31 39 71 47 87 9 17 18 32 22 35 3 3 21 30 38 61 17 30 41 64 52 74s20 26 20 36 5 21 11 25c15 9 69 95 69 109 0 7-11 17-24 23-22 10-26 8-31-9"/><path d="M1457 4289c-22-13-15-24 31-48 107-55 122-64 122-79 0-12 6-10 25 8 26 24 33 50 14 50-5 0-8 4-5 9s-8 11-24 15c-17 3-43 14-58 25-34 25-82 34-105 20m879-156c-23-25-24-29-11-48 8-11 22-36 32-55 9-19 21-37 25-41 4-3 21-31 38-62 16-31 43-82 60-113 30-58 56-124 52-136-1-5 2-8 8-8 16 0 12-40-5-46-21-9-68 12-83 37-14 22-7 43 10 33 7-5 8-2 4 5-5 8 0 14 13 18 24 6 26 18 7 52-9 16-16 20-20 12-4-6-11-9-16-6-4 3-11-2-14-11-3-8-11-12-16-9-6 4-10 3-9-2 1-4 0-15-4-23-3-8-8-31-10-52-5-30 0-42 25-70 16-18 36-32 44-30s17-3 19-10c8-20 51-15 85 10 41 31 48 66 22 116-12 23-35 73-51 112-17 39-63 127-102 195s-71 132-72 141c-2 23-2 23-31-9m-974-354c-16-25-6-63 14-55 17 6 16 8 19-72 2-63 7-77 28-77 7-1 11-6 10-12-1-7 11-8 35-3 44 9 104 34 98 41-3 3 6 18 19 33 32 38 31 58-4 99-25 28-43 36-108 50-98 21-96 21-111-4m149-60c11-5 17-14 14-20-4-5-2-9 4-9 5 0 9-9 8-19 0-11-4-18-7-16-4 2-14-5-23-16-18-21-34-24-56-10-12 8-12 14-1 40 7 17 10 37 6 46-6 18 25 21 55 4m-88-2646c-28-6-47-57-32-85 6-11 9-31 6-44-2-13-1-24 4-24 7 0 145-274 138-276-2 0 4-9 14-19 26-25 51-65 45-71-3-2-13-2-22 2-14 5-21 23-17 47 0 4-5 7-13 7-13 0-31 27-28 43 1 4-1 6-5 5-5-1-26 6-48 16-22 9-50 14-62 11l-22-5 31-58c43-80 75-108 121-105 20 1 45 7 56 12 15 8 20 7 25-6 6-14 14-9 50 26 61 60 66 82 44 229-1 6-5 12-10 12s-6 5-3 10c3 6 1 10-4 10-6 0-11 6-11 13s-8 13-17 14c-16 1-18-10-21-85-1-48 3-99 9-113 6-15 9-38 7-51-3-21-4-20-21 12-10 19-27 49-37 65-20 31-17 81 3 68q9-4.5 3 6c-4 6-2 19 5 27 7 9 12 35 10 61-1 24 3 51 9 59 23 26 4 35-22 11-15-14-29-22-32-19s-6-4-6-15-3-23-7-27-6-26-5-49l3-42-20 25c-11 14-21 31-21 38s-10 26-22 42c-21 29-19 55 3 33 14-14 57 0 75 25 18 23 17 83-1 108-8 12-11 25-7 29 4 5 1 5-5 1-8-4-13-2-13 6s-8 15-17 16c-10 1-34 3-53 6-19 2-45 2-57-1m87-72c25-22 30-34 25-51s-13-21-31-17c-13 2-21 1-19-4 3-4 1-11-5-14-12-8-40 53-36 79 2 14 21 35 33 36 1 0 16-13 33-29"/><path d="M1296 832c-2-4 2-34 9-66 8-33 17-113 21-177 6-110 9-120 30-134 27-18 28-15 24 53-1 24 4 50 12 59 7 9 8 14 2 10-8-5-14 14-18 61-4 37-10 75-12 85-4 12 0 17 14 17 11 0 23-6 25-12 4-10 8-10 15 1 8 10 13 9 25-9 13-19 18-20 30-9 12 12 11 19-11 51-21 33-30 38-63 38-28 0-42 6-51 20-13 20-42 27-52 12m-107-359c-25-6-45-85-34-129 5-24 68-54 114-54 32 0 81 38 81 63 0 9 3 16 8 16 44-7 59 29 20 50-13 6-38 23-57 36-33 24-84 31-132 18m122-76 21-18-33-18c-28-15-38-16-62-6-16 6-28 15-28 18 1 4 1 15 1 25 0 24 71 24 101-1m67-51c-35-31-60-90-45-105 18-18 47-13 47 8 0 23 44 71 65 71 11 0 15 7 13 23-4 32-46 33-80 3"/></svg>