<svg xmlns="http://www.w3.org/2000/svg" width="213.438" height="195.773" viewBox="0 0 2134.381 1957.729"><path d="M875.19 1944c-180-28-372-114-448-201-44-49-80-129-80-177 0-31-7-45-36-72-19-19-39-34-44-34s-25 14-44 31c-42 36-56 34-110-18-126-122-148-370-60-672 18-64 69-121 107-121 19 0 34 13 61 50 39 55 51 56 98 12 36-34 48-95 48-255 0-180 6-197 95-284 87-84 180-142 287-177 74-25 86-26 318-26s244 1 318 26c107 35 200 93 287 177 89 87 95 104 95 284 0 160 12 221 48 255 47 44 59 43 98-12 27-37 42-50 61-50 38 0 89 57 107 121 88 302 66 550-60 672-54 52-68 54-110 18-19-17-39-31-44-31s-25 15-44 34c-29 27-36 41-36 72 0 48-36 128-80 177-140 160-515 251-832 201m324-480c146-45 265-140 316-251 52-114 66-183 66-333 0-232-45-351-184-490-78-79-92-89-175-120-77-30-102-35-175-35-74 0-93 4-150 31-139 66-261 205-309 352-82 254-30 579 114 711 62 56 178 128 237 146 71 22 167 18 260-11"/><path d="M953.19 1226c-79-33-124-71-164-137-43-72-55-120-50-205 11-172 139-305 309-320 169-16 316 85 365 252 20 70 14 163-15 229-28 62-104 140-169 172-81 39-195 43-276 9"/></svg>