<svg xmlns="http://www.w3.org/2000/svg" width="488.812" height="488.41" fill-rule="evenodd" clip-rule="evenodd" image-rendering="optimizeQuality" shape-rendering="geometricPrecision" text-rendering="geometricPrecision"><path d="M223.743.622q90.76-5.98 165 45.5 2.305 1.665 2 4.5-68.96 2.764-95.5 66-17.232 61.905 33.5 100.5 38.094 20.852 76 0 39.616-30.709 17.5-75.5-19.827-24.27-48.5-12-15.857 12.641-5 29.5 3 1 6 0a36.8 36.8 0 0 1 12.5-5.5q8.78 1.796 9 11 1.25 19.728-17.5 26.5-34.47 6.14-49.5-25.5-12.445-48.22 30.5-72.5 52.257-20.874 90.5 20.5 28.716 35.585 16 80-24.146 70.395-98.5 74-70.938-3.696-104.5-66a46 46 0 0 0-4-10 723 723 0 0 1-13-52q-32.896-92.859-131.5-100-.329-1.762 1-3 49.958-29.97 108-36" opacity=".971"/><path d="M103.743 75.622q78.204-1.97 107.5 70 22.853 85.965-47.5 139.5-66.66 63.494-42.5 152.5a316 316 0 0 0 9.5 23q-9.931-3.63-19-9.5-120.855-84.982-111-233.5 2.835-.305 4.5 2 34.58 51.897 97.5 46.5 57.569-9.577 73.5-65.5 9.175-57.91-43.5-82.5-35.217-10.984-60.5 15.5-18.325 25.2-1 51 13.936 13.615 31.5 5.5 5.53-5.093 4.5-12.5-7.051-5.052-12-12-1.602-11.441 9.5-15.5 19.983-4.269 32 12.5 16.976 39.324-19 62.5-63.614 22.319-90.5-39.5-15.448-74.545 54.5-104.5 10.998-3.567 22-5.5" opacity=".97"/><path d="M175.743 322.622q56.61-57.299 134-32 63.787 25.422 126-4.5 32.615-19.363 53-51.5 2.87 141.029-114 218.5l-26 14a20.1 20.1 0 0 1-6 1.5 162 162 0 0 0 8.5-24q12.06-52.77-22-94-53.328-49.695-114.5-10.5-34.739 30.736-21.5 75.5 21.97 44.824 69.5 29.5 15.315-10.876 18-29.5-1.944-13.696-14-20.5-7.626-2.412-11 4.5a76 76 0 0 0-2.5 12q-3.036 6.186-10 6-12.806-.8-17-13-7.55-30.65 21.5-43.5 50.231-11.773 68.5 36.5 10.647 60.962-45.5 86.5-76.734 19.614-112.5-50.5-19.038-48.399 6-94a4486 4486 0 0 1 11.5-17" opacity=".971"/></svg>