<svg xmlns="http://www.w3.org/2000/svg" viewBox="0 0 688 732" width="688" height="732"><path d="M447.5,0.8l49.55,148.6l-219.1,446.9l-171,114l-106.35,-106.35v-180.1l277.65,-423.05zM39,435.35v152.7l72.85,72.85l136.2,-90.8l207.6,-423.5l-35.8,-107.4h-120.9zM394.7,106.65l-215.9,361.15l49.35,79.7l-32.7,20.2l-47.95,-77.5l-84.45,22l-9.7,-37.2l90.55,-23.6l217.8,-364.45zM578.75,700.55h-176.15l70.45,-140.9zM644.85,596v50.65h-38.4v-50.65zM464.7,662.15h37.25l-22.35,-29.75zM346.2,673.35v50.65h-38.4v-50.65zM687.55,681.35v50.65h-38.4v-50.65z" /></svg>