<svg xmlns="http://www.w3.org/2000/svg" viewBox="0 0 704 719" width="704" height="719"><path d="M359.75,17.75c64.556,16.139 119.015,30.386 171.25,7.25l26,58.625c-75.765,33.557 -149.306,12.111 -212.75,-3.75c-63.444,-15.861 -115.698,-27.11 -168.625,2.375l-31.25,-55.875c37.536,-20.911 75.245,-27.068 111.625,-26c36.38,1.068 71.472,9.305 103.75,17.375zM352,143c18.667,0 38.607,2.258 57.625,12c19.018,9.742 35.143,27.012 46.25,49.5c22.214,44.976 30.5,111.233 30.5,223.625h-64c0,-108.686 -10.889,-169.082 -23.875,-195.375c-5.203,-10.535 -9.73,-13.542 -14.5,-16.75v212.125h-64v-221.125h-83.75c-30.892,46.452 -71.743,81.322 -105.5,113.25c-38.965,36.854 -66.75,72.137 -66.75,142.75c0,72.319 22.877,114.935 68.875,145.375c45.998,30.44 120.058,46.625 219.125,46.625c112.237,0 185.98,-16.58 228,-46.125c42.02,-29.545 60,-71.849 60,-145.875c0,-69.333 -32.133,-106.883 -70.625,-145.375c-19.246,-19.246 -40.019,-37.607 -57.5,-59.75c-17.481,-22.143 -31.875,-49.986 -31.875,-82.875h64c0,15.111 5.606,27.268 18.125,43.125c12.519,15.857 31.746,33.496 52.5,54.25c41.508,41.509 89.375,99.959 89.375,190.625c0,85.973 -26.87,155.67 -87.25,198.125c-60.38,42.455 -146.587,57.875 -264.75,57.875c-105.733,0 -191.698,-15.815 -254.5,-57.375c-62.802,-41.56 -97.5,-110.946 -97.5,-198.625c0,-89.386 42.515,-147.412 86.75,-189.25c44.235,-41.838 87.969,-72.163 108.75,-113.25l8.875,-17.5z" /></svg>