<svg xmlns="http://www.w3.org/2000/svg" viewBox="0 0 897 960" width="897" height="960"><path d="M0.936,941.099c0,-36.124 32.185,-192.871 55.187,-268.772c60.907,-200.977 163.406,-394.474 292.834,-552.81c24.749,-30.277 44.999,-56.508 44.999,-58.291c0,-1.783 -3.994,-3.241 -8.875,-3.241c-12.485,0 -22.577,-13.908 -27.328,-37.661c-3.541,-17.704 -2.299,-20.326 9.626,-20.326c8.889,0 13.691,4.068 13.691,11.597c0,16.385 12.669,27.06 32.114,27.06c11.675,0 20.069,5.786 28.087,19.362c13.024,22.047 40.971,38.625 65.115,38.625c11.971,0 16.428,3.396 16.428,12.517c0,19.509 25.98,58.753 43.24,65.316c8.572,3.259 25.001,5.925 36.511,5.925c24.204,0 53.159,26.084 56.614,51.002c2.556,18.427 32.725,31.514 74.388,32.267c16.576,0.299 30.36,4.488 35.437,10.768c28.886,35.737 35.764,39.822 74.619,44.332c62.695,7.277 74.425,35.752 12.616,30.625l-34.372,-2.85l-44.377,50.619c-129.189,147.359 -238.192,329.954 -300.412,503.237c-18.906,52.651 -23.201,59.597 -36.851,59.597c-19.396,0 -17.889,-7.368 22.395,-109.53c60.671,-153.862 158.44,-316.638 270.257,-449.948c55.426,-66.081 55.759,-66.69 43.261,-79.189c-12.498,-12.499 -12.91,-12.232 -53.534,34.379c-92.224,105.817 -180.136,238.715 -237.862,359.574c-33.302,69.724 -79.352,187.987 -87.312,224.234c-3.544,16.132 -7.809,20.481 -20.092,20.481c-20.414,0 -19.93,-5.63 7.19,-83.542c66.976,-192.415 164.361,-363.085 297.909,-522.095l51.408,-61.207l-21.513,-1.985c-25.827,-2.383 -36.115,7.627 -114.606,111.516c-118.462,156.795 -213.184,345.112 -258.445,513.826c-10.209,38.054 -13.561,43.49 -26.818,43.49c-9.147,0 -15.151,-3.816 -15.151,-9.628c0,-18.202 56.472,-180.514 86.802,-249.484c55.593,-126.419 146.477,-272.45 234.697,-377.106c38.932,-46.185 39.221,-46.822 26.872,-59.17c-12.349,-12.348 -12.759,-12.183 -38.201,15.418c-38.272,41.522 -109.454,139.882 -154.278,213.19c-79.212,129.547 -152.461,307.979 -184.346,449.061c-3.09,13.672 -7.771,17.718 -20.501,17.718c-15.232,0 -16.154,-1.604 -12.026,-20.94c10.414,-48.787 51.198,-174.249 78.017,-240c58.97,-144.575 154.969,-303.652 256.616,-425.235c26.662,-31.893 48.484,-60.161 48.487,-62.819c0.003,-2.658 -6.843,-4.832 -15.217,-4.832c-18.73,0 -56.186,38.951 -118.049,122.76c-131.926,178.729 -229.207,390.299 -273.137,594.018c-7.059,32.739 -9.808,37.047 -23.637,37.047c-14.823,0 -15.411,-1.445 -11.133,-27.382c8.12,-49.237 48.116,-180.465 78.056,-256.107c57.607,-145.54 149.343,-301.912 247.723,-422.266c42.492,-51.982 44.701,-56.209 33.724,-64.529c-6.46,-4.897 -13.696,-8.995 -16.08,-9.108c-5.945,-0.281 -54.147,57.431 -96.691,115.768c-128.71,176.491 -219.665,380.167 -266.137,595.972c-12.08,56.092 -15.692,64.696 -27.92,66.487c-18.427,2.702 -18.224,-8.895 1.704,-96.744c53.756,-236.972 175.62,-482.224 331.496,-667.141c37.85,-44.902 47.2,-66.911 32.332,-76.102c-10.434,-6.448 -45.903,30.539 -105.364,109.874c-148.49,198.124 -243.765,410.364 -287.628,640.741c-7.792,40.935 -15.122,78.051 -16.282,82.48c-1.16,4.429 -9.086,8.054 -17.609,8.054h-15.496l12.142,-69.262c44.913,-256.198 167.1,-521.632 334.252,-726.12c24.75,-30.277 44.999,-57.603 44.999,-60.723c0,-3.12 -4.434,-9.352 -9.853,-13.851c-13.424,-11.141 -29.392,4.402 -96.139,93.579c-117.304,156.726 -204.328,328.501 -255.621,504.568c-19.036,65.343 -43.087,179.577 -48.069,228.318c-4.105,40.161 -5.611,43.49 -19.663,43.49c-12.536,0 -15.217,-3.33 -15.217,-18.9zM838.61,248.162c-4.361,-5.256 -24.287,-14.51 -44.279,-20.565c-45.146,-13.674 -51.19,-18.104 -53.684,-39.337c-1.564,-13.308 -10.848,-21.967 -43.002,-40.104c-22.555,-12.723 -46.717,-30.967 -53.692,-40.543c-7.998,-10.979 -18.697,-17.41 -28.963,-17.41c-10.765,0 -25.963,-9.821 -44.863,-28.993c-15.721,-15.946 -34.247,-28.993 -41.169,-28.993c-8.29,0 -12.586,-4.398 -12.586,-12.886c0,-7.513 4.296,-12.886 10.301,-12.886c18.214,0 53.532,20.189 57.569,32.907c4.715,14.854 34.906,31.522 57.096,31.522c11.097,0 18.679,5.39 24.481,17.404c4.893,10.132 25.871,27.487 50.204,41.538c32.697,18.879 42.925,28.484 46.974,44.107c5.501,21.231 5.58,21.283 48.88,32.382c27.271,6.99 58.856,30.967 58.856,44.677c0,10.122 -23.062,8.097 -32.124,-2.82zM819.965,128.858c-16.91,-21.042 -24.771,-25.772 -42.832,-25.772c-20.045,0 -23.496,-2.874 -36.742,-30.604c-13.209,-27.65 -17.107,-30.915 -40.392,-33.826c-34.345,-4.293 -35.683,-21.727 -1.882,-24.532c31.783,-2.639 49.233,7.729 61.14,36.327c11.477,27.567 18.349,33.074 41.444,33.208c12.197,0.071 23.587,8.209 40.671,29.056c22.687,27.687 25.237,41.915 7.515,41.915c-4.513,0 -17.526,-11.597 -28.917,-25.772z" /></svg>