<svg xmlns="http://www.w3.org/2000/svg" viewBox="0 0 835 818" width="835" height="818"><path d="M375.44,808.809c0,-7.164 8.955,-8.956 44.781,-8.956c35.826,0 44.781,1.792 44.781,8.956c0,7.164 -8.956,8.955 -44.781,8.955c-35.825,0 -44.781,-1.792 -44.781,-8.955zM324.689,769.2c-121.949,-11.7 -220.412,-50.525 -276.618,-109.076c-45.736,-47.646 -51.454,-65.789 -46.068,-146.186c2.33,-34.77 6.103,-66.561 8.391,-70.645c9.044,-16.161 45.66,-37.518 64.331,-37.518c23.927,0 32.201,10.421 10.346,13.029c-23.002,2.743 -31.338,18.85 -20.11,38.853c29.479,52.506 202.803,103.361 352.279,103.361c149.476,0 322.799,-50.855 352.279,-103.361c11.229,-20.002 2.895,-36.109 -20.11,-38.853c-21.856,-2.608 -13.581,-13.029 10.346,-13.029c18.667,0 55.283,21.354 64.331,37.518c2.284,4.083 6.061,35.872 8.39,70.645c5.387,80.397 -0.332,98.54 -46.068,146.186c-58.387,60.823 -154.232,97.274 -288.558,109.74c-73.554,6.826 -95.977,6.74 -173.154,-0.663zM357.529,716.26c0,-13.135 -2.688,-23.882 -5.971,-23.882c-6.605,0 -8.309,37.467 -1.989,43.786c6.972,6.972 7.961,4.502 7.961,-19.904zM402.31,717.256c0,-27.193 -11.585,-26.248 -13.833,1.128c-1.394,16.966 0.177,22.332 5.971,20.401c4.325,-1.442 7.862,-11.128 7.862,-21.529zM445.959,717.755c-2.042,-24.678 -12.658,-30.418 -15.76,-8.521c-2.437,17.206 2.482,30.911 11.094,30.911c3.881,0 5.77,-9.057 4.666,-22.39zM488.887,712.924c0,-11.301 -2.688,-20.545 -5.971,-20.545c-3.283,0 -5.971,10.907 -5.971,24.236c0,14.637 2.365,22.774 5.971,20.545c3.284,-2.029 5.971,-12.936 5.971,-24.236zM315.733,713.627c0,-11.3 -2.688,-22.207 -5.971,-24.236c-3.606,-2.23 -5.971,5.91 -5.971,20.545c0,13.33 2.688,24.236 5.971,24.236c3.283,0 5.971,-9.247 5.971,-20.545zM530.683,709.938c0,-14.637 -2.365,-22.774 -5.971,-20.545c-3.284,2.029 -5.971,12.936 -5.971,24.236c0,11.3 2.688,20.545 5.971,20.545c3.284,0 5.971,-10.907 5.971,-24.236zM273.937,707.658c0,-11.3 -2.688,-22.207 -5.971,-24.236c-3.606,-2.23 -5.971,5.91 -5.971,20.545c0,13.33 2.688,24.237 5.971,24.237c3.283,0 5.971,-9.247 5.971,-20.545zM572.478,703.966c0,-14.637 -2.365,-22.774 -5.971,-20.545c-3.284,2.029 -5.971,12.936 -5.971,24.236c0,11.3 2.688,20.545 5.971,20.545c3.284,0 5.971,-10.907 5.971,-24.237zM232.14,695.363c0,-14.595 -2.702,-20.898 -8.956,-20.898c-9.132,0 -13.044,29.747 -4.977,37.814c8.924,8.924 13.932,2.842 13.932,-16.916zM619.129,693.41c1.383,-14 -0.567,-18.946 -7.463,-18.946c-6.729,0 -9.336,5.973 -9.336,21.396c0,26.977 14.094,24.922 16.799,-2.449zM190.346,683.423c0,-14.595 -2.702,-20.898 -8.956,-20.898c-6.254,0 -8.955,6.303 -8.955,20.898c0,14.595 2.702,20.898 8.955,20.898c6.253,0 8.956,-6.303 8.956,-20.898zM662.04,683.423c0,-14.595 -2.702,-20.898 -8.955,-20.898c-6.253,0 -8.956,6.303 -8.956,20.898c0,14.595 2.702,20.898 8.956,20.898c6.254,0 8.955,-6.303 8.955,-20.898zM142.579,668.496c0,-13.135 -2.688,-23.882 -5.971,-23.882c-6.605,0 -8.309,37.467 -1.989,43.786c6.972,6.972 7.961,4.502 7.961,-19.903zM703.837,665.157c0,-11.301 -2.688,-20.545 -5.971,-20.545c-3.283,0 -5.971,10.907 -5.971,24.236c0,14.637 2.365,22.774 5.971,20.545c3.284,-2.029 5.971,-12.936 5.971,-24.236zM95.247,624.746c-4.56,-4.56 -6.406,-0.327 -6.406,14.691c0,27.447 8.387,35.89 10.883,10.958c1.06,-10.583 -0.954,-22.125 -4.479,-25.647zM745.632,640.921c0,-12.412 -2.424,-19.399 -5.971,-17.209c-3.284,2.029 -5.971,13.094 -5.971,24.588c0,12.412 2.424,19.399 5.971,17.209c3.284,-2.029 5.971,-13.094 5.971,-24.588zM405.294,626.347c0,-22.244 -2.205,-29.503 -8.955,-29.503c-6.726,0 -8.956,7.188 -8.956,28.859c0,15.872 1.719,30.578 3.817,32.676c8.518,8.518 14.094,-4.151 14.094,-32.035zM447.09,626.347c0,-22.244 -2.205,-29.503 -8.956,-29.503c-6.726,0 -8.956,7.188 -8.956,28.859c0,15.872 1.719,30.578 3.817,32.676c8.518,8.518 14.094,-4.151 14.094,-32.035zM315.733,623.714c0,-18.062 -2.688,-32.84 -5.971,-32.84c-3.283,0 -5.971,14.778 -5.971,32.84c0,18.062 2.688,32.84 5.971,32.84c3.283,0 5.971,-14.778 5.971,-32.84zM357.529,623.714c0,-18.062 -2.688,-32.84 -5.971,-32.84c-3.283,0 -5.971,14.778 -5.971,32.84c0,18.062 2.688,32.84 5.971,32.84c3.283,0 5.971,-14.778 5.971,-32.84zM488.887,623.714c0,-18.062 -2.688,-32.84 -5.971,-32.84c-3.283,0 -5.971,14.778 -5.971,32.84c0,18.062 2.688,32.84 5.971,32.84c3.283,0 5.971,-14.778 5.971,-32.84zM530.683,623.714c0,-18.062 -2.688,-32.84 -5.971,-32.84c-3.283,0 -5.971,14.778 -5.971,32.84c0,18.062 2.688,32.84 5.971,32.84c3.283,0 5.971,-14.778 5.971,-32.84zM273.937,617.744c0,-18.062 -2.688,-32.84 -5.971,-32.84c-3.283,0 -5.971,14.779 -5.971,32.84c0,18.062 2.688,32.84 5.971,32.84c3.283,0 5.971,-14.778 5.971,-32.84zM572.478,617.744c0,-18.062 -2.688,-32.84 -5.971,-32.84c-3.283,0 -5.971,14.779 -5.971,32.84c0,18.062 2.688,32.84 5.971,32.84c3.283,0 5.971,-14.778 5.971,-32.84zM230.962,607.764c-2.431,-41.586 -16.732,-47.091 -16.732,-6.44c0,16.147 1.792,31.148 3.981,33.338c10.231,10.231 14.407,1.426 12.75,-26.897zM619.085,603.23c1.382,-23.823 -0.07,-30.859 -5.971,-28.916c-4.766,1.57 -8.506,14.81 -9.622,34.056c-1.382,23.823 0.07,30.859 5.971,28.916c4.766,-1.57 8.506,-14.81 9.622,-34.056zM58.987,612.124c0,-11.301 -2.688,-22.207 -5.971,-24.236c-3.606,-2.23 -5.971,5.91 -5.971,20.545c0,13.329 2.688,24.236 5.971,24.236c3.283,0 5.971,-9.247 5.971,-20.545zM787.427,608.434c0,-14.637 -2.365,-22.774 -5.971,-20.545c-3.284,2.029 -5.971,12.936 -5.971,24.236c0,11.3 2.688,20.545 5.971,20.545c3.284,0 5.971,-10.907 5.971,-24.236zM189.165,595.822c-2.586,-44.226 -16.732,-46.305 -16.732,-2.46c0,26.152 1.999,33.338 9.269,33.338c7.415,0 8.907,-6.174 7.463,-30.877zM662.04,593.361c0,-43.844 -14.147,-41.765 -16.732,2.46c-1.444,24.703 0.047,30.877 7.463,30.877c7.27,0 9.269,-7.186 9.269,-33.338zM142.579,578.932c0,-19.903 -2.653,-35.825 -5.971,-35.825c-6.572,0 -8.375,61.286 -1.989,67.668c7.228,7.228 7.961,4.301 7.961,-31.843zM703.837,575.594c0,-17.868 -2.688,-32.487 -5.971,-32.487c-3.324,0 -5.971,16.04 -5.971,36.176c0,22.598 2.242,34.793 5.971,32.487c3.284,-2.029 5.971,-18.308 5.971,-36.176zM95.155,523.148c-4.436,-4.436 -6.312,3.508 -6.312,26.727c0,42.95 8.411,51.399 10.791,10.844c1.009,-17.191 -1.005,-34.096 -4.479,-37.569zM745.632,551.36c0,-20.372 -2.268,-31.438 -5.971,-29.149c-3.284,2.029 -5.971,18.468 -5.971,36.53c0,20.373 2.268,31.438 5.971,29.149c3.284,-2.029 5.971,-18.468 5.971,-36.53zM53.377,493.313c-4.462,-4.463 -6.333,2.543 -6.333,23.721c0,39.073 8.404,47.523 10.81,10.868c1.019,-15.541 -0.995,-31.105 -4.479,-34.589zM787.427,518.519c0,-18.383 -2.294,-28.436 -5.971,-26.164c-3.284,2.029 -5.971,17.124 -5.971,33.543c0,18.383 2.294,28.436 5.971,26.164c3.284,-2.029 5.971,-17.124 5.971,-33.543zM270.953,519.998c17.496,-7.291 90.154,-13.822 83.33,-7.491c-3.139,2.913 -25.862,6.91 -50.49,8.882c-25.818,2.066 -39.725,1.476 -32.84,-1.391zM518.74,520.79c-14.779,-1.276 -29.439,-4.852 -32.578,-7.95c-6.558,-6.468 64.319,-0.607 83.33,6.89c13.218,5.212 0.441,5.478 -50.752,1.061zM390.831,501.797c-9.183,-9.586 -23.121,-19.041 -30.972,-21.012c-15.514,-3.893 -19.344,-21.734 -6.809,-31.725c20.868,-16.634 115.47,-15.025 132.752,2.256c10.52,10.521 5.927,24.406 -9.714,29.372c-6.433,2.041 -19.711,11.547 -29.508,21.125c-22.441,21.938 -34.719,21.935 -55.749,-0.018zM190.346,483.399c0,-6.962 66.463,-7.127 110.459,-0.275c24.274,3.78 16.74,4.799 -40.304,5.449c-43.322,0.492 -70.158,-1.487 -70.158,-5.172zM539.639,483.126c43.998,-6.853 110.459,-6.688 110.459,0.275c0,3.687 -26.833,5.667 -70.158,5.172c-57.044,-0.647 -64.576,-1.668 -40.304,-5.448zM213.183,454.318c-38.341,-5.349 -71.704,-11.742 -74.137,-14.206c-2.433,-2.464 -1.963,-4.403 1.046,-4.314c19.671,0.591 171.392,23.449 174.184,26.244c5.247,5.247 -24.338,2.986 -101.093,-7.725zM526.125,462.082c4.531,-4.531 173.246,-26.935 176.713,-23.465c4.724,4.724 -12.035,8.041 -88.82,17.573c-82.33,10.22 -92.934,10.932 -87.894,5.892zM221.028,412.247c-43.41,-14.991 -63.25,-35.599 -63.25,-65.7c0,-41.561 36.603,-66.157 98.457,-66.157c48.796,0 80.503,10.028 105.126,33.249c16.192,15.271 20.052,23.459 20.052,42.541c0,55.469 -80.559,83.63 -160.383,56.063zM350.066,380.412c18.053,-16.851 16.914,-31.78 -4.02,-52.714c-22.093,-22.093 -32.119,-22.98 -24.195,-2.138c9.088,23.904 6.947,41.352 -7.292,59.456l-13.117,16.673l17.593,-4.37c9.677,-2.404 23.638,-10.014 31.028,-16.91zM216.808,372.89c-9.4,-22.5 -6.545,-45.95 6.962,-57.16c14.168,-11.759 9.295,-17.127 -9.579,-10.549c-24.978,8.708 -42.404,32.071 -36.352,48.733c3.758,10.345 37.781,39.921 45.922,39.921c0.99,0 -2.141,-9.426 -6.955,-20.948zM276.284,372.451c1.993,-5.195 3.538,-21.989 3.433,-37.317c-0.175,-25.806 -0.839,-27.012 -8.956,-16.283c-4.822,6.374 -8.766,23.167 -8.766,37.317c0,25.683 7.432,34.153 14.288,16.283zM494.899,414.18c-34.272,-14.861 -47.808,-31.284 -47.808,-57.995c0,-45.115 50.504,-75.793 124.779,-75.793c63.766,0 98.854,23.701 98.854,66.767c0,19.459 -3.611,27.242 -19.024,41.014c-35.734,31.929 -113.432,44.816 -156.801,26.007zM512.197,382.399c-12.682,-17.153 -13.492,-36.276 -2.618,-61.703c7.003,-16.376 -7.483,-12.634 -27.123,7.004c-20.929,20.929 -22.082,35.96 -4.02,52.395c27.237,24.78 51.606,26.443 33.76,2.304zM648.367,357.741c9.232,-18.515 0.088,-34.284 -28.305,-48.81c-23.047,-11.79 -29.752,-9.439 -16.408,5.757c15.203,17.312 17.656,35.192 7.997,58.305l-9.119,21.827l19.293,-11.266c10.612,-6.197 22.555,-17.812 26.543,-25.811zM566.425,359.505c-0.101,-27.746 -5.585,-49.26 -12.557,-49.26c-5.949,0 -7.215,47.704 -1.651,62.205c6.523,16.995 14.29,9.917 14.206,-12.946zM375.44,253.522c0,-7.164 8.955,-8.955 44.781,-8.955c35.826,0 44.781,1.792 44.781,8.955c0,7.164 -8.956,8.956 -44.781,8.956c-35.825,0 -44.781,-1.792 -44.781,-8.956zM76.738,210.234c-0.45,-12.374 38.694,-210.467 41.583,-210.438c4.831,0.051 164.572,138.65 164.572,142.793c0,1.902 -5.414,4.236 -12.033,5.183c-7.956,1.142 -32.236,-15.535 -71.65,-49.209c-32.789,-28.012 -61.138,-50.955 -63,-50.984c-1.86,-0.033 -9.693,34.208 -17.402,76.078c-8.584,46.611 -17.554,79.021 -23.135,83.593c-10.237,8.383 -18.692,9.717 -18.935,2.984zM328.403,209.317c-21.487,-13.609 2.743,-18.487 91.821,-18.487c89.078,0 113.308,4.878 91.821,18.487c-10.724,6.793 -172.917,6.793 -183.64,0zM750.743,207.248c-5.579,-4.569 -14.551,-36.981 -23.135,-83.593c-7.713,-41.871 -15.543,-76.104 -17.402,-76.078c-1.86,0.033 -30.209,22.972 -63,50.984c-35.936,30.703 -63.897,50.248 -70.393,49.209c-5.926,-0.948 -10.033,-4.412 -9.123,-7.695c1.773,-6.406 154.791,-140.224 160.405,-140.28c2.889,-0.033 42.033,198.064 41.583,210.438c-0.245,6.73 -8.698,5.399 -18.935,-2.984zM132.999,175.373c12.184,-70.249 16.698,-86.054 23.457,-82.121c20.483,11.923 75.654,64.079 71.533,67.628c-2.64,2.273 -22.267,10.308 -43.613,17.854c-21.346,7.546 -42.55,15.132 -47.118,16.856c-6.614,2.497 -7.483,-1.627 -4.259,-20.218zM665.203,178.228c-26.174,-9.84 -48.292,-18.594 -49.151,-19.455c-0.859,-0.861 17.355,-17.126 40.477,-36.149c23.123,-19.023 42.908,-33.624 43.968,-32.449c3.997,4.43 19.227,106.611 15.841,106.284c-1.949,-0.187 -24.958,-8.391 -51.132,-18.232zM385.652,157.254c-2.332,-2.332 -4.241,-7.824 -4.241,-12.201c0,-5.827 10.523,-7.961 39.248,-7.961c34.157,0 38.989,1.356 37.26,10.448c-1.557,8.183 -9.15,10.83 -35.007,12.201c-18.16,0.965 -34.926,-0.152 -37.26,-2.487z" /></svg>