<svg xmlns="http://www.w3.org/2000/svg" viewBox="0 0 653 896" width="653" height="896"><path d="M512.853,437.22l0.489,-1.131c4.61,-10.429 9.819,-22.253 9.748,-32.982c-0.035,-6.422 -0.071,-12.883 -0.071,-19.344c-0.046,0.19 -0.118,0.417 -0.189,0.643l-0.224,0.833c-0.756,2.719 -1.513,5.553 -1.89,8.197c-0.605,4.232 -1.171,6.799 -3.022,10.806c-0.416,0.942 -0.794,1.85 -1.171,2.795c-0.72,1.774 -1.437,3.551 -2.457,5.288c-0.606,1.021 -0.985,2.192 -1.398,3.325c-0.568,1.51 -1.172,3.097 -2.079,4.645c-3.854,6.385 -11.109,11.978 -13.223,13.526c-1.665,1.246 -3.25,2.531 -4.837,3.815c-1.437,1.171 -2.908,2.38 -4.497,3.551c-0.907,0.678 -1.889,1.284 -2.834,1.925c-1.51,0.982 -2.984,1.89 -4.004,3.061c-1.17,1.284 -1.775,2.644 -2.644,4.532l-0.68,1.587c-0.642,1.398 -1.092,3.176 -1.587,5.101c-1.097,4.307 -2.304,9.181 -6.385,12.58l-1.587,1.323c-2.228,1.851 -4.534,3.814 -7.065,5.288c-2.417,1.399 -4.949,2.343 -7.442,3.25c-1.322,0.491 -2.644,0.981 -3.891,1.548c-8.613,3.854 -17.642,5.288 -29.431,4.647c-4.081,-0.187 -8.841,-0.907 -13.487,-2.04c-2.456,-0.564 -4.46,-1.698 -6.234,-2.681c-1.134,-0.641 -2.267,-1.284 -3.551,-1.737c-5.516,-2.003 -17,-6.082 -17.983,-15.451c-0.719,-6.801 1.361,-12.356 3.665,-17.644c-0.263,-0.035 -0.527,-0.071 -0.869,-0.071c-0.077,0 -0.195,0 -0.301,0c-4.192,0.226 -9.748,4.307 -11.183,6.838c-0.188,0.377 -0.527,1.55 -1.057,3.477c-0.413,1.55 -0.377,2.796 -0.377,4.231l0.036,1.171c0,0.794 -0.035,1.624 -0.071,2.494c-0.036,1.134 -0.106,2.305 0,3.438c0.074,0.453 0.186,0.717 0.528,1.36c0.341,0.678 0.831,1.548 1.096,2.795c0.332,1.473 0.26,2.871 0.189,4.042c-0.035,0.907 -0.072,1.663 0.071,2.23c0.417,1.698 1.324,4.268 2.004,5.439c1.397,2.455 3.171,4.873 4.911,6.573c4.381,4.421 11.372,8.84 16.246,10.313l3.135,0.983c2.721,0.907 5.552,1.814 8.009,2.304c2.91,0.524 6.614,0.335 10.163,0.071c2.117,-0.119 4.308,-0.226 6.121,-0.226c10.163,0.113 21.647,-2.645 32.529,-7.556c1.85,-0.832 3.665,-1.587 5.478,-2.343c4.573,-1.888 8.915,-3.665 12.996,-6.649c1.663,-1.171 3.362,-2.191 5.062,-3.174c1.284,-0.794 2.607,-1.587 3.891,-2.455c1.547,-1.059 2.718,-2.532 4.041,-4.233c0.944,-1.21 1.927,-2.381 3.023,-3.514c9.219,-9.255 18.059,-22.666 24.293,-36.798zM223.028,731.539c1.134,0.415 2.115,0.906 3.059,1.36c0.717,0.377 1.399,0.759 2.191,0.983c2.57,0.868 5.251,1.397 8.124,1.964c1.664,0.34 3.325,0.68 4.949,1.057c4.194,1.021 8.312,2.418 12.279,3.741c4.611,1.55 8.992,3.06 13.413,3.967c1.284,0.264 2.568,0.417 3.891,0.606c1.624,0.188 3.248,0.413 4.837,0.755c1.321,0.302 2.568,0.644 3.815,0.945l2.455,0.641c2.267,0.568 4.497,0.905 6.764,1.247c1.85,0.304 3.664,0.606 5.515,0.983c2.644,0.529 5.25,1.21 7.819,1.89c7.443,1.887 14.433,3.664 21.912,2.493c0.982,-0.15 1.777,-0.415 2.569,-0.68c1.475,-0.453 3.136,-0.949 5.29,-1.02c1.398,-0.036 2.757,0 4.118,0l2.23,0.036c3.024,-0.074 6.12,-0.49 9.219,-1.018l2.72,-0.454c0.833,-0.151 1.437,-0.491 2.494,-1.171c1.057,-0.678 2.38,-1.512 4.155,-2.001c1.587,-0.453 3.364,-0.871 5.101,-1.284l4.118,-0.945c3.588,-0.869 7.215,-1.7 10.692,-2.72c2.607,-0.756 6.611,-2.419 10.729,-4.459c1.397,-0.717 2.68,-1.7 4.041,-2.757c1.513,-1.171 3.25,-2.494 5.367,-3.551l2.947,-1.435c3.363,-1.623 6.876,-3.324 9.975,-5.251c1.323,-0.793 2.644,-1.474 3.967,-2.154c1.55,-0.793 3.097,-1.587 4.61,-2.607c0.905,-0.641 1.435,-1.323 2.152,-2.228c0.68,-0.832 1.359,-1.664 2.304,-2.569c1.248,-1.209 2.797,-2.306 4.347,-3.363c0.98,-0.681 1.888,-1.322 2.72,-2.041c0.867,-0.717 1.738,-1.323 2.607,-1.964c1.096,-0.793 2.191,-1.548 3.248,-2.644c1.436,-1.511 3.062,-2.834 4.61,-4.157c1.699,-1.434 3.325,-2.757 4.685,-4.268c5.855,-6.536 10.047,-13.601 12.013,-20.099c-2.796,3.854 -6.234,7.632 -9.748,10.618c-12.278,10.428 -24.709,20.929 -37.176,31.281c-5.439,4.534 -11.9,8.086 -18.172,11.523l-3.928,2.154c-3.74,2.117 -7.254,4.081 -11.409,5.705c-2.08,0.794 -4.117,1.209 -6.121,1.626c-1.888,0.378 -3.703,0.718 -5.251,1.398l-0.756,1.247l-1.361,0.567c-1.7,0.455 -3.438,0.726 -5.138,0.832c-0.34,0.151 -1.248,0.566 -2.117,0.983c-1.094,0.528 -2.227,1.018 -3.437,1.36c-2.268,0.597 -4.574,0.525 -6.612,0.454c-0.681,0 -1.4,-0.036 -2.079,-0.036c-2.493,0 -4.154,-0.488 -5.628,-0.983c-0.795,-0.228 -1.589,-0.498 -2.609,-0.641l-1.548,-0.143c-2.114,-0.19 -4.268,-0.343 -6.912,-2.117c-4.534,-3.021 -6.535,-7.782 -8.275,-12.013l-0.604,-1.475c-2.267,-5.29 -4.646,-11.523 -4.61,-18.625c0.035,-1.398 0,-2.797 -0.036,-4.233c-0.07,-2.455 -0.153,-4.912 0.036,-7.329c0.151,-2.681 0.945,-5.175 1.701,-7.518c0.415,-1.321 0.831,-2.605 1.132,-3.928c0.569,-2.644 1.55,-5.062 2.494,-7.405c0.946,-2.381 1.853,-4.648 2.23,-6.952c0.229,-1.323 0.417,-2.607 0.606,-3.854c0.415,-2.871 0.83,-5.855 1.813,-9.105c1.172,-3.966 1.966,-8.122 2.607,-11.673c0.227,-1.285 0.565,-2.305 0.907,-3.325c0.299,-0.906 0.57,-1.662 0.641,-2.607c0.19,-1.737 0.57,-3.549 0.983,-5.402c0.716,-3.514 1.435,-6.839 0.68,-9.899c-0.037,-0.265 -0.189,-0.49 -0.454,-0.944c-0.415,-0.682 -0.942,-1.589 -1.247,-2.873c-0.342,-1.398 -0.143,-2.721 0,-3.778c0.07,-0.415 0.142,-0.982 0.106,-1.171c-0.078,-0.378 -0.266,-0.831 -0.567,-1.398c-0.415,-0.867 -0.906,-1.926 -1.171,-3.324c-0.195,-1.246 -0.037,-2.418 0.106,-3.363c0.035,-0.415 0.142,-0.982 0.106,-1.171c-0.187,-0.754 -0.415,-1.207 -0.604,-1.661c-0.493,-1.133 -1.134,-2.568 -1.134,-5.288c0,-1.435 -0.342,-2.682 -0.719,-4.157c-0.379,-1.473 -0.797,-3.135 -0.868,-5.101c-0.379,-7.632 -3.852,-14.544 -7.555,-21.836c-1.588,-3.21 -3.212,-6.422 -4.61,-9.783c-1.888,-4.497 -4.571,-9.108 -8.689,-15l-0.567,-0.869c-1.284,-1.776 -2.304,-3.287 -3.438,-5.214c-0.528,-0.944 -1.284,-2.23 -2.003,-3.287c-0.604,0.455 -1.208,0.869 -1.775,1.323c-5.288,3.97 -11.259,8.388 -20.325,6.008c-1.321,-0.377 -2.605,-0.642 -3.815,-0.907c-5.062,-1.094 -9.86,-2.152 -14.431,-7.745c-2.23,-2.795 -4.685,-6.233 -5.781,-10.804c-1.018,-4.041 -0.185,-6.914 0.495,-9.406c0.263,-0.907 0.528,-1.852 0.717,-2.986c0.337,-1.776 0.179,-4.157 0.036,-6.461c-0.072,-1.36 -0.143,-2.644 -0.143,-3.854c0,-1.058 0.035,-2.192 0.106,-3.325c0.071,-1.511 0.142,-3.098 0.071,-4.495c-0.454,-0.152 -0.833,-0.309 -1.21,-0.453c-0.415,-0.189 -0.794,-0.345 -1.171,-0.416c-0.339,-0.072 -0.905,-0.072 -1.435,-0.036c-0.83,0 -1.814,0.038 -2.871,-0.189c-4.497,-0.868 -8.615,-4.798 -10.352,-8.197l-0.606,-1.171l0.342,-1.284c-0.643,-0.605 -1.172,-1.284 -1.626,-2.04c-1.282,-2.568 -1.553,-4.004 -1.624,-6.422c-0.112,-2.796 -0.716,-4.61 -2.569,-7.745c-2.116,-3.59 -8.426,-6.271 -17.757,-7.518c-1.398,-0.224 -2.608,-0.68 -3.665,-1.057c-0.792,-0.339 -1.511,-0.608 -2.152,-0.679c-1.588,-0.189 -3.287,-0.071 -4.987,0c-1.096,0.036 -2.116,0.071 -3.25,0.107l-12.543,-0.036c-0.34,-0.035 -0.603,-0.071 -0.868,-0.071c-1.399,0 -2.077,0.717 -4.194,3.248l-1.548,1.814c-1.662,1.85 -2.947,3.817 -3.703,5.591c-0.718,1.661 -0.84,3.664 -0.983,5.781c-0.077,1.094 -0.158,2.228 -0.301,3.285c-0.302,2.116 -1.058,3.967 -1.737,5.593c-0.454,1.094 -0.906,2.153 -1.171,3.324c-0.645,3.099 -0.869,6.31 -1.134,9.748c-0.303,3.778 -0.569,7.708 -1.474,11.523c-1.284,5.477 -2.041,10.766 -2.873,16.359c-0.339,2.343 -0.717,4.722 -1.094,7.102c-0.34,2.154 -0.606,4.344 -0.907,6.535c-0.454,3.778 -0.983,7.745 -1.89,11.599c-0.177,0.868 -0.142,1.814 -0.071,2.871c0.037,1.208 0.118,2.531 -0.106,4.042c-0.188,1.247 -0.678,2.191 -1.02,2.908c-0.153,0.302 -0.306,0.613 -0.342,0.756c-0.68,3.135 -1.283,6.762 -1.7,9.936c-0.193,1.286 -0.311,2.456 -0.417,3.59c-0.192,2.339 -0.418,4.719 -1.21,7.553c-0.794,2.873 -1.557,5.931 -1.663,9.068c-0.106,5.025 -0.071,10.01 0,15.072c0,2.646 0.036,5.33 0.036,8.011c0.038,9.294 1.701,19.004 4.949,28.901c1.474,4.421 2.571,9.031 3.628,13.45l0.68,2.871c0.678,2.873 1.699,5.481 2.795,8.238c0.491,1.284 0.985,2.568 1.474,3.891c2.91,8.085 7.33,16.436 12.355,23.499c0.867,1.21 1.812,2.343 2.757,3.477c1.775,2.153 3.588,4.343 4.949,6.912l1.096,2.117c1.66,3.213 2.945,5.706 5.288,8.009l1.247,1.247c1.359,1.323 2.53,2.494 3.928,3.363c0.754,0.454 1.548,0.833 2.38,1.21c1.21,0.565 2.456,1.171 3.59,1.888c2.153,1.4 4.382,2.569 6.612,3.703c1.51,0.793 3.058,1.586 4.532,2.417c0.793,0.454 1.511,0.981 2.191,1.548c0.528,0.417 0.983,0.802 1.36,0.945c0.188,0.118 0.717,0.188 1.171,0.224c0.756,0.113 1.661,0.225 2.644,0.567zM128.696,694.154c1.36,4.497 2.728,9.181 2.871,14.206c0.071,1.4 0.035,2.72 0,4.081c-0.035,2.23 -0.071,4.344 0.23,6.461c0.907,6.083 2.873,12.619 4.911,18.777c1.702,5.138 4.647,10.352 7.481,15.377c0.87,1.511 1.701,3.021 2.494,4.495c2.116,3.891 6.12,8.349 9.331,10.466c2.645,1.699 5.593,3.135 8.728,4.646c2.721,1.322 5.48,2.645 8.011,4.193c2.794,1.664 5.853,2.873 9.066,4.12c3.248,1.286 6.61,2.607 9.821,4.458c3.891,2.306 7.859,3.703 12.09,5.214l3.285,1.21c2.23,0.833 4.535,1.323 7.028,1.89c2.004,0.454 4.004,0.905 6.045,1.511c5.138,1.585 10.239,2.531 15.678,3.551l5.439,1.02c3.627,0.717 7.254,1.662 10.882,2.607c4.381,1.131 8.878,2.304 13.297,2.984c4.497,0.754 9.483,0.566 14.32,0.377c2.19,-0.035 4.344,-0.106 6.498,-0.106h25.086c18.852,0 36.683,0 55.197,-3.815l5.252,-1.057c10.2,-2.002 19.796,-3.892 29.204,-8.085c1.85,-0.794 3.664,-1.7 5.515,-2.569c3.175,-1.548 6.31,-3.058 9.597,-4.305c1.812,-0.681 3.664,-1.247 5.515,-1.777c2.418,-0.717 4.685,-1.398 6.762,-2.343c2.455,-1.095 4.648,-2.758 6.952,-4.532c2.531,-1.927 5.175,-3.929 8.425,-5.404c3.626,-1.585 5.176,-2.265 6.989,-4.532c3.174,-3.891 6.913,-7.18 10.503,-10.352c3.476,-3.023 6.802,-5.931 9.597,-9.332c2.267,-2.757 3.55,-5.968 4.911,-9.369c0.754,-1.887 1.51,-3.777 2.417,-5.628c2.191,-4.534 3.549,-9.332 4.872,-14.206l1.171,-4.344c2.116,-7.821 4.309,-15.941 5.744,-23.802c1.472,-8.083 4.873,-15.791 8.197,-23.233c1.549,-3.553 3.136,-7.102 4.459,-10.616c1.133,-3.023 1.813,-6.121 2.493,-9.408c0.794,-3.625 1.587,-7.328 3.098,-11.106c3.062,-7.783 3.1,-18.324 2.117,-25.577c-0.263,-1.89 -0.456,-3.815 -0.68,-5.818c-0.527,-5.138 -1.094,-10.466 -2.681,-15c-0.566,-1.587 -1.17,-3.211 -1.737,-4.837c-1.547,-4.192 -3.136,-8.498 -4.27,-12.957c-2.871,-11.109 -7.934,-20.816 -14.243,-27.314c-2.947,-3.024 -5.968,-4.873 -10.766,-6.573c-1.323,-0.455 -2.644,-0.98 -4.004,-1.475c-4.271,-1.661 -8.729,-3.369 -12.733,-3.512c-8.501,-0.303 -16.776,-0.493 -24.408,0.717c1.4,0.113 2.684,0.302 3.665,0.567c1.096,0.299 2.229,0.452 3.363,0.641c1.548,0.227 3.096,0.494 4.571,0.907c4.268,1.287 8.498,3.78 12.201,5.971l2.494,1.474c0.682,0.377 1.36,0.715 1.966,1.02c2.38,1.245 4.797,2.492 6.951,5.214c1.661,2.075 2.87,4.268 4.041,6.422c0.793,1.398 1.549,2.834 2.417,4.118c8.878,13.222 13.3,26.104 13.111,38.233c0,2.267 0,4.495 0,6.725c0.038,7.971 0.113,16.245 -2.041,24.596c-0.869,3.324 -1.775,6.686 -2.72,10.01c-2.38,8.652 -4.834,17.607 -6.195,26.56c-2.041,13.26 -7.857,23.989 -12.694,31.885c-1.247,2.003 -2.38,4.194 -3.551,6.422c-3.173,6.007 -6.422,12.241 -11.749,16.359c-2.947,2.306 -5.82,4.837 -8.728,7.368c-5.515,4.873 -11.259,9.898 -17.794,13.601c-1.397,0.793 -2.87,1.512 -4.344,2.191c-2.872,1.399 -5.593,2.646 -7.518,4.61c-0.567,1.058 -1.057,1.853 -2.191,2.871c-1.321,1.207 -3.097,1.964 -4.798,2.681c-0.944,0.416 -1.888,0.83 -2.607,1.284c-12.844,8.351 -24.97,12.848 -40.613,15c-10.125,1.399 -20.175,0.531 -29.958,-0.301c-6.158,-0.529 -12.656,-1.089 -18.701,-0.983l-3.815,0.071c-6.082,0.151 -12.392,0.303 -18.701,-1.7c-1.284,-0.415 -2.531,-0.946 -3.778,-1.435c-1.246,-0.53 -2.492,-1.058 -3.815,-1.435c-3.248,-0.946 -6.649,-1.739 -9.973,-2.494c-1.813,-0.416 -3.627,-0.83 -5.441,-1.284c-4.532,-1.134 -9.066,-2.457 -13.561,-3.741c-4.346,-1.285 -8.69,-2.532 -13.111,-3.628c-5.289,-1.323 -11.03,-3.439 -17.644,-6.498c-2.758,-1.284 -5.554,-2.344 -8.349,-3.401c-2.455,-0.907 -4.912,-1.851 -7.329,-2.908c-1.134,-0.53 -2.229,-0.944 -3.325,-1.398c-4.419,-1.814 -8.573,-3.514 -12.92,-7.405c-4.796,-4.269 -8.992,-8.234 -12.807,-12.09c-10.577,-10.542 -17.53,-19.381 -22.592,-28.637c-6.422,-11.75 -11.824,-24.332 -16.585,-38.423c-0.905,-2.757 -1.247,-5.631 -1.548,-8.388c-0.187,-1.512 -0.34,-3.06 -0.641,-4.571l-0.143,-0.756c-0.87,-4.382 -1.854,-9.369 -1.89,-13.979c-0.076,-5.1 0.376,-9.974 0.793,-14.735c0.415,-4.532 0.792,-8.802 0.792,-13.297v-25.577c0,-1.777 -0.035,-3.59 -0.106,-5.365c-0.07,-3.401 -0.153,-6.839 0.036,-10.163c0.15,-2.305 0.451,-4.572 0.793,-6.839c0.339,-2.304 0.687,-4.646 0.793,-7.026c0.151,-3.966 1.323,-7.744 2.494,-11.447c0.83,-2.682 1.584,-5.213 2.001,-7.707c0.152,-1.096 0.311,-2.193 0.417,-3.25c0.379,-2.797 0.72,-5.629 1.513,-8.615c0.981,-3.74 2.114,-7.44 3.248,-11.181c1.208,-3.93 2.418,-7.859 3.438,-11.826c0.716,-2.87 1.207,-5.818 1.661,-8.841c1.096,-6.723 2.23,-13.674 6.045,-19.946c1.134,-1.853 2.381,-3.666 3.665,-5.48c0.678,-0.981 1.284,-2.038 1.925,-3.021c-0.225,0.15 -0.455,0.27 -0.679,0.414c-1.851,1.21 -3.702,2.418 -5.705,3.401c-0.981,0.491 -2.191,1.284 -3.475,2.117c-3.212,2.115 -6.538,4.306 -9.597,4.495l-0.23,-3.551l-0.224,-3.512c0.718,-0.076 2.192,-0.869 3.628,-1.739c0.905,-0.567 1.851,-1.171 2.531,-1.624c1.587,-1.02 3.06,-1.964 4.231,-2.531c1.736,-0.869 3.36,-1.927 4.949,-2.984c2.683,-1.738 5.44,-3.552 8.841,-4.685c0.527,-0.188 1.094,-0.27 1.661,-0.414c1.511,-0.454 3.058,-0.831 4.571,-1.171c1.473,-0.303 2.907,-0.566 4.381,-0.793c7.518,-1.14 15.15,-1.247 22.631,-1.247l3.741,-0.036h0.143c5.402,0 9.369,1.89 12.92,3.514c2.38,1.094 4.61,2.153 7.217,2.681c0.453,0.071 1.134,0.036 1.851,0c1.057,-0.071 2.192,-0.191 3.514,0.036c1.322,0.227 2.38,0.641 3.363,1.02c0.754,0.301 1.397,0.57 2.001,0.641c3.628,0.529 8.351,1.36 12.77,3.363c1.512,0.679 2.985,1.171 4.459,1.624c4.231,1.398 9.068,2.987 12.506,8.539c3.361,5.477 5.477,12.466 6.951,17.944c0.151,0.528 0.339,0.982 0.528,1.435c0.568,1.323 1.202,2.947 1.096,5.214c-0.114,1.927 -0.756,3.061 -1.21,3.815c-1.096,3.287 -1.965,6.535 -2.001,9.295c-0.037,4.117 -0.868,6.422 -2.191,9.783c-1.019,2.645 -0.829,3.289 -0.036,6.348l0.224,0.907c0.338,1.398 0.5,2.644 0.643,3.815c0.265,2.154 0.339,2.947 1.7,4.231c2.38,2.191 4.156,3.212 5.857,3.401c3.399,0.453 7.745,-1.624 12.541,-5.818c1.438,-1.247 2.949,-2.378 4.497,-3.512c2.72,-2.042 5.327,-3.969 7.104,-6.461c2.04,-2.722 3.024,-5.932 4.081,-9.295c0.716,-2.267 1.397,-4.532 2.417,-6.686c0.566,-1.247 1.17,-2.381 1.737,-3.514c2.227,-4.232 3.362,-6.612 2.191,-10.163c-0.907,-2.91 -2.19,-5.668 -3.551,-8.615c-1.058,-2.228 -2.117,-4.495 -3.022,-6.875c-0.456,-1.171 -0.456,-1.171 -0.945,-1.661c-0.302,-0.301 -0.645,-0.643 -1.134,-1.171c-1.511,-1.74 -2.305,-3.514 -3.022,-5.101c-0.379,-0.831 -0.756,-1.661 -1.284,-2.531c-1.058,-1.739 -2.76,-3.553 -4.421,-5.327l-1.398,-1.513c-2.268,-2.454 -4.988,-4.647 -7.896,-6.951c-2.57,-2.078 -5.252,-4.231 -7.632,-6.649c-0.945,-0.945 -1.777,-1.853 -2.569,-2.758c-2.304,-2.531 -4.004,-4.384 -7.178,-5.668c-3.703,-1.473 -7.065,-4.307 -10.012,-6.838l-1.02,-0.833c-4.081,-3.438 -8.386,-6.272 -13.524,-8.916c-1.474,-0.754 -2.795,-1.624 -4.118,-2.531c-1.4,-0.944 -2.722,-1.851 -4.12,-2.418c-2.871,-1.247 -5.93,-2.001 -9.18,-2.834c-2.075,-0.529 -4.191,-1.059 -6.195,-1.7l-2.569,-0.833c-1.321,-0.453 -2.417,-0.832 -3.551,-1.133c-1.66,-0.453 -3.285,-0.715 -5.288,-0.679c-0.112,0 -0.236,-0.036 -0.342,0c-1.7,0 -3.438,0 -5.138,0c-1.095,0 -2.229,0.036 -3.325,0.036l-13.147,-0.036v-7.104h13.147c2.799,0.036 5.594,0.036 8.351,0c1.512,-0.037 2.834,0.075 4.081,0.264c1.022,-0.868 1.966,-1.851 2.947,-2.947c1.21,-1.36 2.457,-2.757 4.007,-4.004c3.891,-3.1 8.841,-4.647 13.6,-6.121c2.116,-0.682 4.195,-1.324 6.083,-2.117c1.471,-0.602 2.907,-1.284 4.305,-1.925c2.304,-1.096 4.534,-2.154 6.801,-2.873l2.304,-0.791c9.216,-3.1 18.736,-6.309 29.354,-2.758c4.117,1.358 6.611,4.796 8.841,7.819c1.096,1.548 2.152,2.984 3.248,3.891c3.213,2.832 6.008,4.305 10.012,6.045l2.531,1.171c2.154,0.981 4.571,2.114 6.422,2.644c1.284,-0.037 2.23,-0.037 3.25,0.264c1.358,0.415 2.186,1.097 2.681,1.511c2.267,0.644 5.629,0.415 8.576,0.189c1.7,-0.12 3.361,-0.264 4.835,-0.264c10.692,0 20.514,-2.57 32.831,-8.615c5.064,-2.494 7.972,-6.989 10.995,-12.164c0.528,-0.869 1.096,-1.701 1.624,-2.569c0.643,-0.944 1.286,-1.89 1.853,-2.947c0.301,-0.604 0.905,-1.361 1.511,-2.152c0.303,-0.378 0.642,-0.756 0.831,-1.057c-0.228,-0.719 -0.228,-1.702 0.189,-2.72c1.287,-3.1 2.455,-6.348 3.665,-9.635c2.306,-6.309 4.686,-12.884 7.86,-18.815c4.76,-8.879 14.658,-12.58 21.875,-15.301l1.548,-0.604c2.155,-0.908 4.42,-1.777 7.707,-1.587c1.812,0.113 3.324,0.567 4.647,0.981c0.867,0.266 1.736,0.573 2.681,0.68c1.06,0.107 2.078,0.071 3.098,0c1.737,-0.076 3.701,-0.151 5.818,0.377c1.661,0.416 3.285,1.059 4.911,1.7c1.056,0.417 2.115,0.831 3.135,1.171c0.907,0.266 1.851,0.454 2.795,0.643c1.51,0.264 3.211,0.604 4.911,1.284c1.436,0.567 2.72,1.624 3.967,2.607c0.569,0.491 1.131,0.946 1.626,1.247c4.306,2.681 8.879,5.894 13.034,11.333c4.081,5.288 8.01,14.694 7.255,21.722c-0.152,1.473 -0.418,2.834 -0.719,4.231c-0.338,1.813 -0.716,3.475 -0.68,5.288c0,0.796 0.035,1.626 0.071,2.457c0.076,2.607 0.189,5.517 -0.454,8.351c-3.626,15.905 -15.036,28.372 -29.015,31.735c-5.024,1.21 -11.409,0.87 -16.547,0.567l-1.587,-0.071c-1.926,-0.113 -3.59,-0.567 -5.025,-0.983c-1.398,-0.339 -2.607,-0.679 -3.891,-0.679c-3.666,-0.075 -6.234,-0.114 -9.975,-2.418c-5.628,-3.514 -9.293,-8.046 -10.577,-13.071c-1.777,-6.801 0.301,-12.656 2.267,-18.324l0.981,-2.834c1.512,-4.686 2.834,-8.728 9.219,-11.863c0.64,-0.34 1.472,-0.682 2.417,-1.096c1.814,-0.719 6.003,-2.457 6.498,-3.854c-0.19,-0.187 -1.589,-1.171 -2.607,-1.397c-1.776,-0.377 -5.29,-0.264 -6.801,0.264c-4.041,1.435 -8.575,6.913 -10.766,9.52c-2.457,2.949 -4.761,5.744 -7.141,8.615c-1.02,1.247 -1.397,2.304 -2.001,3.928c-0.304,0.717 -0.603,1.473 -0.945,2.304c-1.172,2.719 -1.437,3.739 -1.661,6.573c-0.152,1.776 -0.603,3.287 -1.057,4.647c-0.378,1.171 -0.679,2.23 -0.643,3.135c0.039,1.399 0.377,2.759 0.719,4.233c0.45,1.926 0.981,4.079 0.945,6.573c-0.037,3.514 -0.037,5.175 1.094,7.292c1.513,2.908 3.137,5.931 5.062,7.632c1.437,1.284 3.362,2.456 5.215,3.627c1.018,0.641 2.039,1.247 2.984,1.888c5.291,3.588 11.146,6.685 17.871,9.443c1.285,0.491 2.191,0.981 3.022,1.436c1.399,0.754 2.003,1.059 3.856,1.094l3.136,0.107c3.852,0.151 7.819,0.303 11.067,-0.416l4.798,-1.02c6.499,-1.361 12.62,-2.645 18.815,-5.025c2.153,-0.868 4.571,-2.305 6.912,-3.741c1.589,-0.981 3.174,-1.925 4.761,-2.758c4.233,-2.189 7.367,-5.326 10.995,-8.953c2.455,-2.456 3.627,-4.381 5.062,-6.838c0.603,-1.059 1.283,-2.153 2.038,-3.363c1.171,-1.812 2.646,-3.286 4.044,-4.683c1.887,-1.928 3.55,-3.591 4.004,-5.631c0.792,-3.59 1.171,-7.255 1.548,-11.146c0.341,-3.436 0.719,-7.026 1.398,-10.577c1.018,-5.251 0.338,-10.54 -0.417,-16.094c-0.378,-2.795 -0.756,-5.589 -0.945,-8.423c-0.153,-2.531 -0.153,-4.95 -0.189,-7.368c0,-5.175 -0.074,-10.086 -1.548,-15.187c-2.229,-7.82 -4.609,-16.02 -8.463,-22.289c-1.814,-2.91 -5.215,-6.651 -7.972,-9.635l-1.511,-1.661c-2.76,-3.023 -6.688,-6.498 -9.559,-8.425c-1.966,-1.36 -4.345,-2.418 -6.838,-3.551c-1.702,-0.792 -3.363,-1.548 -4.987,-2.418l-2.003,-1.094c-4.571,-2.455 -8.879,-4.798 -13.753,-6.424c-3.666,-1.207 -7.065,-2.719 -10.352,-4.193c-3.436,-1.512 -6.686,-2.948 -10.163,-4.081c-1.173,-0.377 -2.191,-0.981 -3.098,-1.548c-0.569,-0.303 -1.245,-0.762 -1.587,-0.833c-1.816,-0.49 -4.196,-0.371 -6.5,-0.264c-1.057,0.071 -2.078,0.107 -3.098,0.107c-8.652,0.036 -17.304,0.036 -25.954,0h-13.413c-1.887,0 -3.967,-0.157 -6.158,-0.264c-3.817,-0.264 -7.708,-0.53 -10.88,0l-11.977,23.386l6.045,-29.204l1.247,-0.377c10.994,-17.946 33.209,-23.272 66.077,-15.869c5.1,1.134 10.088,2.95 14.888,4.724l4.344,1.587c7.669,2.684 14.318,6.802 20.779,10.769c2.193,1.361 4.46,2.758 6.764,4.081c6.159,3.59 10.615,6.875 14.959,10.995c2.948,2.758 5.706,5.667 8.463,8.575c2.191,2.344 4.383,4.648 6.686,6.915c0.153,0.114 0.271,0.269 0.342,0.34c0.072,0 0.107,0 0.143,-0.036c1.097,-0.227 3.211,-1.7 4.759,-3.248c1.55,-1.589 2.265,-2.873 2.76,-4.874c0.868,-3.44 -0.34,-8.766 -3.287,-14.623c-1.173,-2.38 -2.117,-4.874 -3.098,-7.368c-0.983,-2.682 -1.966,-5.176 -3.213,-7.556l-0.869,-1.624c-1.585,-3.059 -3.549,-6.874 -5.666,-8.953c-0.606,-0.604 -1.587,-1.096 -2.607,-1.624c-1.02,-0.49 -2.003,-1.021 -2.908,-1.7c-2.531,-2.23 -4.761,-4.271 -6.952,-6.348c-2.153,-1.513 -4.95,-3.023 -7.858,-4.194c-2.871,-1.511 -5.214,-3.135 -7.481,-4.722c-1.361,-0.946 -2.72,-1.89 -4.081,-2.76c-9.598,-6.043 -22.595,-11.447 -33.928,-14.167c-8.842,-2.115 -18.662,-1.814 -28.184,-1.474c-3.438,0.118 -6.838,0.189 -10.163,0.189h-21.271c-15.302,0 -29.393,1.134 -43.183,3.401c-8.99,1.511 -19.419,3.438 -28.862,6.573l-5.101,1.661c-6.384,2.042 -13.034,4.196 -18.739,7.104c-7.595,3.928 -13.98,8.802 -21.158,14.923l-1.284,1.096c-4.988,4.194 -9.673,8.199 -12.733,13.751c-0.791,1.438 -1.358,2.986 -1.925,4.497c-0.946,2.418 -1.89,4.911 -3.59,7.329c-0.946,1.36 -1.966,2.683 -2.984,3.967c-0.981,1.284 -2.002,2.568 -2.947,3.928c-1.248,1.812 -2.455,3.664 -3.665,5.515c-2.721,4.156 -5.553,8.464 -8.877,12.355c-2.305,2.608 -4.835,4.988 -7.292,7.255c-2.986,2.796 -5.818,5.441 -8.161,8.462c-3.74,4.837 -7.102,10.276 -10.389,15.527c-1.737,2.797 -3.477,5.592 -5.251,8.312c-2.042,3.058 -4.231,5.931 -6.461,8.802c-3.288,4.268 -6.385,8.311 -8.879,12.996c-1.51,2.87 -2.946,5.857 -4.381,8.841l-2.117,4.347c-2.681,5.441 -4.835,11.333 -6.952,17.001c-1.738,4.76 -3.588,9.71 -5.742,14.469l-3.665,8.124c-3.44,7.555 -7.026,15.375 -10.239,23.233c-3.25,8.009 -7.594,15.377 -11.787,22.518c-3.44,5.854 -7.028,11.937 -9.862,18.209c-3.097,6.801 -3.966,14.281 -4.911,22.139c-0.681,5.895 -1.361,11.979 -3.098,17.871c-0.569,2.043 -1.21,4.007 -1.853,5.971c-1.586,4.912 -3.06,9.56 -3.703,14.735c-0.527,4.456 -1.094,8.612 -1.925,13.071c-3.06,16.019 -2.53,34.303 1.474,51.53c3.249,13.864 6.309,27.541 8.31,42.427c1.208,9.068 3.06,16.586 8.085,23.649c2.909,4.118 4.495,10.086 5.853,15.337c0.418,1.55 0.833,3.061 1.21,4.384c0.417,1.359 0.792,2.681 1.134,3.928c0.793,3.021 1.474,5.628 2.91,8.425c1.851,3.625 2.871,6.611 3.854,10.01l0.377,1.284zM651.464,467.547c1.775,6.348 0.832,13.639 0.868,20.251c0,7.896 -1.131,15.339 -1.548,23.121c-0.34,6.422 -2.91,12.77 -3.211,19.155c-0.311,5.518 0.935,11.449 0.143,16.89c-0.833,5.478 -2.003,8.538 -0.869,14.243c1.699,8.615 1.471,18.967 0.036,27.656c-3.211,19.155 -5.365,38.837 -12.127,57.237c-5.631,15.338 -13.563,29.392 -19.571,44.542c-6.195,15.717 -16.281,29.808 -24.593,44.354c-8.992,15.715 -21.234,29.845 -31.17,45.108c-10.239,15.602 -23.197,28.598 -35.286,42.654c-6.649,7.782 -12.129,12.315 -21.762,16.018c-12.052,4.609 -23.31,11.522 -35.399,15.83c-4.648,1.663 -9.446,2.797 -14.017,4.722c-5.894,2.455 -11.372,5.781 -17.19,8.312c-9.67,4.192 -19.682,7.97 -29.581,11.824c-6.498,2.532 -12.129,6.99 -18.928,8.841c-5.478,1.473 -11.334,1.89 -16.925,2.908c-22.291,4.157 -44.164,4.724 -66.682,4.724c-9.142,0 -18.322,-0.036 -27.464,0c-5.516,0 -10.957,0.415 -16.359,-0.869c-5.326,-1.322 -10.577,-2.946 -15.981,-4.193c-9.596,-2.192 -18.926,-6.271 -28.184,-9.633c-10.202,-3.664 -21.875,-4.874 -31.547,-9.635c-4.23,-2.078 -8.235,-4.305 -12.579,-6.271c-5.327,-2.456 -8.84,-6.045 -13.299,-9.748c-5.138,-4.269 -10.653,-7.744 -16.774,-10.087c-13.827,-5.289 -28.031,-11.447 -39.517,-21.457c-13.601,-11.863 -27.428,-26.37 -38.157,-40.764c-4.723,-6.308 -10.088,-12.959 -13.979,-19.721c-2.608,-4.535 -4.724,-8.954 -7.595,-13.335c-3.136,-4.873 -6.723,-9.823 -8.802,-15.225c-3.288,-8.539 -5.932,-17.417 -9.18,-26.032c-2.381,-6.385 -4.346,-12.543 -5.101,-19.342c-1.058,-9.633 -4.155,-18.625 -6.385,-27.994c-2.381,-9.973 -3.704,-20.589 -4.761,-30.752c-1.246,-11.865 -0.376,-23.045 1.398,-34.834c2.005,-13.374 0.342,-28.184 0.342,-41.671c0,-8.237 0.975,-17.003 0.106,-25.162c-0.83,-7.669 -2.907,-15.264 -4.381,-22.819c-4.988,-25.35 -6.649,-50.815 -3.135,-76.429c1.284,-9.485 3.853,-18.287 6.875,-27.279c1.889,-5.553 4.761,-10.804 6.838,-16.319c3.514,-9.257 5.556,-19.04 8.351,-28.525c2.041,-6.875 3.928,-13.827 6.385,-20.552c2.721,-7.558 7.181,-13.376 11.109,-20.251c3.058,-5.365 5.061,-11.259 8.159,-16.624c4.608,-8.047 11.9,-13.902 17.075,-21.497c4.46,-6.573 10.05,-13.45 13.036,-20.853c4.345,-10.843 8.992,-21.609 15.301,-31.584c14.167,-22.328 37.702,-36.532 48.923,-60.825c8.802,-19.079 18.361,-37.856 28.75,-56.141c7.102,-12.506 15.338,-23.31 25.803,-33.359c10.39,-9.936 20.325,-22.442 33.359,-28.977c2.836,-1.398 5.857,-1.853 8.728,-3.137c3.854,-1.775 7.103,-4.646 10.806,-6.612c5.063,-2.644 10.201,-4.987 14.394,-9.142c2.343,-2.267 3.514,-4.987 6.121,-7.104c2.531,-2.038 5.062,-4.345 7.819,-6.119c11.41,-7.331 23.573,-10.012 36.609,-12.883c7.026,-1.589 12.05,-2.079 19.342,-2.079c6.385,0 12.77,-0.035 19.155,0c4.305,0 8.576,-0.605 12.543,1.134c3.475,1.511 7.063,4.572 12.467,8.236c0.454,1.966 2.645,2.267 4.458,3.363c5.251,3.134 10.616,6.007 15.906,9.142c16.474,9.823 31.508,22.101 46.809,33.588c12.848,9.67 25.956,18.662 38.196,29.088c6.119,5.213 11.107,10.806 17.605,15.604c4.46,3.324 7.368,7.782 9.975,12.619c2.003,3.663 3.514,7.82 6.121,11.181c1.851,2.381 4.343,3.665 6.422,5.744c2.04,2.077 3.437,4.911 4.911,7.368c3.098,5.176 6.762,9.67 10.276,14.507c11.863,16.397 21.309,34.644 29.808,52.855c7.631,16.473 11.106,34.494 15.83,51.833c2.568,9.483 8.31,16.964 11.333,26.257c3.135,9.709 8.689,18.133 11.824,27.881c2.23,6.988 5.401,13.903 8.159,20.741c1.437,3.551 3.477,6.838 4.761,10.426c1.21,3.401 1.21,6.727 1.853,10.239c3.173,17.568 7.934,35.061 12.089,52.402c1.285,5.251 3.326,10.239 4.61,15.49c1.737,6.875 2.72,13.977 3.703,20.966c1.321,9.447 3.966,17.757 6.535,26.786z" /></svg>