<svg xmlns="http://www.w3.org/2000/svg" viewBox="0 0 1024 1024" width="1024" height="1024"><path d="M258.278,446.542l-146.532,-253.802c93.818,-117.464 238.234,-192.74 400.254,-192.74c187.432,0 351.31,100.736 440.532,251h-417.77c-7.504,-0.65 -15.092,-1 -22.762,-1c-121.874,0 -224.578,83.644 -253.722,196.542zM695.306,325h293.46c22.74,57.93 35.234,121.004 35.234,187c0,280.826 -226.1,508.804 -506.186,511.926l209.394,-362.678c29.48,-42.378 46.792,-93.826 46.792,-149.248c0,-73.17 -30.164,-139.42 -78.694,-187zM326,512c0,-102.56 83.44,-186 186,-186c102.56,0 186,83.44 186,186c0,102.56 -83.44,186 -186,186c-102.56,0 -186,-83.44 -186,-186zM582.182,764.442l-146.578,253.878c-246.532,-36.884 -435.604,-249.516 -435.604,-506.32c0,-91.218 23.884,-176.846 65.696,-251.024l209.03,362.054c41.868,89.112 132.476,150.97 237.274,150.97c24.3,0 47.836,-3.34 70.182,-9.558z" /></svg>