<svg xmlns="http://www.w3.org/2000/svg" viewBox="0 0 692 960" width="692" height="960"><path d="M650.864,406.649c-8.038,4.726 -16.339,9.456 -25.407,4.042c-3.996,-2.406 -7.225,-5.761 -10.962,-8.509c-5.502,-4.088 -12.593,-8.213 -19.73,-6.966c-16.894,2.966 -11.821,21.494 -2.578,29.703c-5.16,7.095 -12.339,6.795 -21.582,-1.159c0.079,-1.034 0.118,-2.064 0.079,-3.097c-0.642,-1.718 -0.513,-3.312 -1.243,-5.027c-1.59,-3.612 -4.601,-6.665 -8.297,-8.171c-5.673,-2.32 -11.091,-0.513 -15.046,3.183c-3.27,-24.677 -33.015,-32.156 -55.111,-27.726c-16.718,3.349 -33.145,9.886 -47.027,19.771c-10.057,7.179 -19.259,13.11 -32.07,12.209c-5.37,-0.352 -10.53,-1.675 -15.434,-3.654c-12.681,-8.726 -22.437,-19.171 -12.293,-34.905c3.996,-6.19 8.901,-11.951 8.73,-19.772c-0.313,-14.011 -13.715,-21.107 -25.883,-17.582c-6.403,-16.51 -23.213,-26.525 -40.624,-24.548c5.502,-20.547 -23.772,-21.924 -43.544,-19.559c41.053,-22.612 87.308,-32.757 133.776,-37.871c12.635,-1.376 25.278,-2.452 37.954,-3.395c13.198,-0.99 29.407,-4.472 42.301,-0.69c22.141,6.495 12.939,26.054 3.612,38.73c-3.525,4.818 -9.243,11.35 -7.525,17.928c3.913,14.912 32.627,7.049 42.688,6.449c15.867,-0.941 25.536,4.726 37.958,13.456c5.502,3.87 6.924,3.612 12.768,0.03c2.449,-1.465 4.643,-3.742 7.22,-4.947c4.17,-1.935 3.183,-1.85 6.495,1.247c4.125,3.87 5.848,11.049 8.597,15.99c4.859,8.685 10.791,10.708 18.182,16.51c8.772,6.92 6.194,18.658 12.168,26.996c1.59,2.19 3.354,3.654 5.548,5.16c1.072,0.731 2.365,1.159 3.479,1.761c4.472,0.516 6.624,2.883 6.495,7.095c2.49,3.996 1.289,6.403 -3.696,7.308z" /> <path d="M550.454,596.06c0.426,-5.89 0.084,-11.65 -1.464,-17.54c-0.859,-4.559 -2.578,-8.856 -5.114,-12.81c-4.255,-2.406 -7.996,-4.171 -11.35,-5.247c-3.57,0.129 -7.48,1.505 -11.65,4.73c-3.397,2.578 -6.061,5.973 -8.167,9.886c-2.405,9.243 -2.677,20.159 -2.795,29.532c1.248,4.042 1.89,8.125 1.89,12.255c2.278,0.86 4.426,1.804 6.495,2.966c6.407,3.525 16.635,1.418 21.019,-4.513c3.7,-4.989 7.225,-10.103 10.708,-15.263c0.116,-0.692 0.191,-1.376 0.27,-2.064c0.036,-0.648 0.075,-1.293 0.154,-1.935zM544.368,737.211c-0.129,-0.646 -0.375,-1.291 -0.688,-1.89c0.08,-0.069 0.119,-0.224 0.198,-0.349c7.133,-8.213 -5.761,-19.088 -12.856,-10.879c-5.931,6.832 -7.95,15.559 -9.456,24.46c-2.449,7.479 -3.784,15.351 -5.156,23.43c-0.346,1.977 0.171,3.742 1.072,5.243c-0.6,4.04 1.719,8.471 6.666,9.63c0.216,0.029 0.418,0.124 0.688,0.154c1.376,0.343 2.578,0.251 3.654,0.063c1.201,0.188 4.167,0.063 5.026,0.188c4.213,0.472 9.367,-2.106 9.757,-6.878c1.194,-14.228 4.046,-29.057 1.076,-43.243zM487.486,608.452c1.764,-12.38 3.524,-24.59 2.365,-37.099c-0.513,-2.662 -1.118,-5.246 -2.019,-7.609c-0.688,-1.851 -1.46,-3.398 -2.319,-4.77c-1.848,-0.431 -4.347,0.089 -7.567,1.59c-10.962,0.392 -12.509,2.023 -16.422,11.479c-1.547,3.608 -2.49,7.521 -3.178,11.434c0.084,0.777 0,1.422 -0.35,2.021c-0.253,1.722 -0.489,3.483 -0.643,5.247c-0.639,7.608 -0.251,15.304 0.35,22.912c1.334,0.158 2.627,0.25 3.87,-0.03c7.821,-1.593 16.68,-2.189 25.49,-1.718c0.121,-1.078 0.28,-2.194 0.434,-3.441zM447.645,608.748c-1.851,-12.935 -2.151,-30.217 2.019,-43.715v-0.154c-0.517,-8.384 -4.988,-15.175 -9.802,-21.711c-1.506,19.692 -1.848,39.122 3.483,59.023c0.642,2.404 2.231,4.684 4.296,6.574zM372.41,566.145c4.213,-2.707 4.213,-10.915 -2.106,-12.722c-0.301,-1.288 -0.62,-2.624 -0.814,-3.954c-0.129,-9.928 2.708,-36.024 2.236,-40.537c-2.235,-20.764 -18.186,-25.19 -36.327,-19.388c-2.92,0.946 -4.58,4.13 -4.426,7.049c1.331,21.841 3.48,43.594 3.441,65.472c0,3.741 4.042,6.47 7.433,6.19c7.481,-0.603 13.93,-0.645 20.85,2.409c3.612,1.586 8.943,-0.562 9.715,-4.517zM282.883,545.654c-2.449,-16.209 1.159,-32.712 3.049,-48.879c1.034,-8.682 -12.422,-11.089 -13.456,-2.363c-0.036,0.161 -0.036,0.359 -0.036,0.513c-0.119,-0.11 -0.234,-0.265 -0.313,-0.39c-0.077,2.065 -0.235,4.126 -0.35,6.19c0,20.289 1.803,40.365 5.373,60.27c0.388,-0.173 0.814,-0.202 1.164,-0.39c2.837,-0.471 5.544,-2.408 6.061,-5.456l0.642,-3.612c0.43,-2.453 -0.558,-4.475 -2.148,-5.89zM176.964,292.322c-0.13,-18.141 6.918,-46.555 -11.91,-58.118c-20.078,-12.343 -21.582,16.205 -21.796,28.715c-0.13,9.628 -3.399,40.361 12.938,39.331c3.399,-0.213 6.279,-2.102 8.599,-4.772c3.437,4.042 12.208,1.935 12.165,-5.156zM88.107,297.006c21.148,-5.761 14.614,-44.495 9.155,-59.065c-1.077,-2.84 -4.04,-4.71 -7.05,-4.43c-25.664,2.281 -19.214,37.532 -15.69,54.422c0.644,3.142 3.01,5.077 5.631,5.719c1.547,2.541 4.381,4.302 7.951,3.354zM691.628,755.107c0.601,1.248 0.084,2.791 -0.859,3.825c-2.969,-1.119 -6.406,-0.859 -9.243,0.688c-0.863,-0.063 -1.677,-0.125 -2.536,-0.188c-0.304,0.173 -0.55,0.327 -0.863,0.39c0.559,0.563 1.163,1.076 1.764,1.636c2.194,1.978 1.376,5.03 -1.118,6.274c-0.471,0.203 -0.942,0.362 -1.414,0.516c0.159,1.932 0.354,3.867 0.472,5.802c1.936,0.171 6.278,1.849 6.795,2.32c2.065,1.893 2.578,4.725 1.46,7.266c-1.59,3.567 -4.38,4.706 -7.35,4.426c0.163,3.742 0.397,7.437 0.476,11.179c0.086,6.06 0.086,9.063 -0.99,11.433c0.3,0.11 0.597,0.327 0.947,0.39c-2.19,24.156 -4.346,48.319 -6.536,72.475c-0.901,9.93 -6.661,16.596 -14.228,20.25c0.036,4.001 0.036,7.955 0.115,11.951c0.083,3.396 -3.571,4.64 -5.719,3.396c-0.985,5.373 -3.654,10.315 -8.251,14.011c-2.152,0.085 -4.343,0.429 -6.624,1.119c-8.727,2.707 -16.635,6.574 -24.544,10.487c-38.693,14.621 -83.012,17.069 -126.389,14.186c-0.859,-0.902 -1.677,-1.849 -2.407,-2.837c-9.585,-0.863 -19.129,-1.978 -28.673,-3.354c-2.019,0.081 -4.126,0 -6.274,-0.39c-14.057,-2.493 -27.985,-5.418 -41.829,-8.643c-12.297,-1.848 -24.631,-3.649 -36.928,-5.456c-6.191,-0.905 -11.129,-3.57 -14.871,-7.266c-0.947,-0.257 -1.848,-0.5 -2.753,-0.688c-3.908,-0.133 -8.038,-1.164 -12.334,-3.27c-13.84,-3.825 -27.51,-8.209 -40.966,-13.11c-0.476,0.386 -0.993,0.682 -1.506,1.034c-26.395,-11.826 -51.973,-25.582 -77.937,-40.282c-14.874,-9.715 -28.974,-20.635 -42.041,-32.97c-2.835,-1.806 -5.543,-4.167 -7.951,-7.308c-0.818,-1.029 -1.593,-2.059 -2.408,-3.093c-4.3,-4.513 -8.514,-9.156 -12.51,-14.057c-9.627,-11.608 -18.268,-23.942 -26.394,-36.627c-2.194,-2.878 -4.385,-5.76 -6.621,-8.597c-7.308,-2.411 -14.013,-7.483 -18.356,-15.867c-9.714,-18.695 -18.873,-37.566 -27.727,-56.612c-1.25,-1.977 -2.366,-4.083 -3.269,-6.532c-0.301,-0.824 -0.601,-1.594 -0.861,-2.367c-2.75,-5.973 -5.417,-12.038 -8.038,-18.057c-2.364,-4 -4.6,-8.084 -7.05,-12.08c-1.162,-1.848 -2.019,-3.741 -2.709,-5.631c-3.094,-2.878 -5.631,-6.578 -7.178,-11.35c-6.575,-20.59 -12.549,-41.352 -18.096,-62.202c-2.45,-5.977 -5.029,-11.95 -7.395,-17.969c-1.246,-3.271 -2.32,-6.537 -3.482,-9.803c-2.579,-3.653 -4.51,-8.037 -5.2,-13.456c-0.217,-1.677 -0.43,-3.356 -0.69,-5.031c-9.585,-33.829 -13.197,-67.879 -12.294,-102.012c0.218,-0.513 0.476,-0.902 0.69,-1.415c1.078,-3.137 1.978,-6.319 2.968,-9.456v0l0.043,-0.03c15.003,-47.548 18.874,-97.414 34.65,-144.784c15.563,-46.768 25.148,-103.989 51.371,-145.727c0.473,-0.777 0.816,-1.465 1.204,-2.242c0.174,0 0.345,0 0.473,-0.03c27.813,-6.319 48.836,-15.604 77.55,-14.699c23,0.73 43.031,-4.86 59.238,-21.966c3.482,-3.7 6.492,-7.654 9.111,-11.784c0.517,-2.15 0.974,-3.998 1.247,-5.37c1.977,-11.092 3.525,-22.613 5.46,-34.092c-8.554,-0.041 -17.71,-1.03 -19,-11.049c-0.259,-1.932 1.376,-3.871 3.311,-3.996c6.32,-0.428 12.639,-0.902 18.917,-1.33c0.684,-3.011 1.326,-6.064 2.19,-9.03c-2.799,-1.206 -4.989,-3.055 -5.848,-5.803c-2.924,-9.498 6.703,-11.779 13.327,-9.373c0.559,0.214 0.981,0.5 1.331,0.813c6.537,1.206 11.867,0.947 13.586,8.343c0.388,1.719 0.088,3.177 -1.372,4.296c-1.163,0.948 -2.84,1.632 -4.688,2.192c-0.514,4.084 -1.073,8.168 -1.59,12.251c4.471,0.05 8.901,0.734 12.597,2.755c1.031,0.602 2.101,1.678 2.065,3.008c-0.171,7.439 -8.467,8.26 -16.422,7.829l-6.148,47.97c1.89,11.137 4.167,22.183 6.578,33.187c1.113,33.277 5.76,66.163 8.851,99.391c3.784,40.109 4.776,80.17 11.951,119.851c1.464,8.126 6.407,13.799 14.533,15.734c20.03,4.683 51.411,12.768 73.852,5.289c9.115,5.674 23.597,1.073 27.51,-11.608l2.106,-5.802c-3.654,-0.734 -7.262,-1.504 -10.874,-2.452c-2.065,-0.514 -3.124,-2.149 -2.97,-4.255c0.471,-5.502 3.783,-8.424 9.114,-9.114c0.517,-0.125 0.901,0 1.335,0.063c3.35,-0.734 5.631,0.599 9.152,1.672c5.461,1.677 6.666,0.042 8.685,-5.114c1.593,-4.083 1.635,-9.715 2.365,-14.061c0.384,-2.353 3.054,-3.735 5.202,-2.705c0.258,0.118 0.418,0.306 0.688,0.431c2.019,-2.232 6.878,-0.729 6.361,3.141c-0.171,1.465 -0.459,2.794 -0.772,4.17c2.193,5.973 1.718,13.711 -1.377,18.57c0.119,0.126 0.234,0.217 0.273,0.28c2.841,-0.086 5.677,-0.471 8.43,-1.376c1.848,-0.601 4.038,0.255 4.726,2.19c0.818,2.407 1.636,4.819 2.449,7.225c0.734,2.106 -0.642,4.947 -3.091,4.947c-2.148,0.062 -4.213,-0.033 -6.361,-0.063c0.384,1.293 0.759,2.498 1.072,3.913c1.594,7.353 2.799,14.878 3.742,22.528c1.677,3.224 2.723,6.92 2.841,11.133c0.642,23.384 1.329,46.814 2.019,70.198c-0.263,15.647 -0.734,31.294 -1.677,46.898c-0.693,10.491 -1.765,20.808 -2.67,31.038c0.776,-0.227 1.635,-0.227 2.453,0.125c6.916,2.62 12.292,7.517 15.646,13.54c4.342,-4.476 10.232,-7.137 18.441,-6.666c8.471,0.513 13.844,5.673 16.939,12.639c4.643,7.045 5.927,17.965 5.848,29.015c1.806,-19.088 7.65,-36.322 23.814,-37.658c9.669,-0.772 16.851,2.319 22.053,7.608c12.851,7.096 15.091,27.727 14.741,46.126c0.776,1.635 1.506,3.358 2.065,5.248c3.954,3.095 7.091,7.435 8.555,13.285c2.365,9.239 4.172,18.399 5.719,27.555c-2.277,3.049 -3.525,7.003 -2.882,11.992c5.761,42.472 9.502,85.16 11.179,127.974c0.383,10.62 13.669,19.772 23.684,14.875c4.472,-2.191 8.899,-4.56 13.369,-6.75c0.73,0.342 1.505,0.717 2.319,0.905c5.761,1.547 11.651,1.718 17.24,0.471c1.761,-4.467 3.567,-8.94 5.331,-13.41c-2.837,-0.859 -4.555,-3.441 -5.932,-6.061c-1.035,-1.889 0.558,-3.913 2.148,-4.726c3.011,-1.466 6.102,-2.41 9.285,-3.141c0.211,-0.517 0.403,-0.994 0.601,-1.465c-1.03,-0.428 -1.894,-1.202 -2.365,-2.449c-1.422,-3.829 2.319,-6.667 5.673,-6.019c0.6,-1.466 1.205,-2.923 1.764,-4.388c-1.118,0 -2.278,0.126 -3.483,0.516c-1.851,-0.693 -3.482,-1.68 -4.17,-3.27c-3.396,-7.953 6.661,-9.333 13.498,-8.943c0.86,-0.283 1.807,-0.155 2.666,0.28c0.036,0 0.036,0 0.036,0c0.152,-1.806 0.271,-3.611 0.35,-5.418c-0.43,-0.126 -0.859,-0.155 -1.289,-0.28c-3.266,-0.863 -5.114,-3.012 -5.802,-6.236c-0.342,-1.63 1.03,-3.219 2.365,-3.825c3.742,-1.59 7.779,-1.935 11.692,-0.859c1.593,0.475 2.437,1.679 2.707,2.969c0.039,0 0.082,0 0.118,0c0.817,0.158 1.589,0.317 2.407,0.471c0,0 0,0.033 0,0.063c0.301,0.063 0.593,0.063 0.943,0.188c4.042,1.418 1.764,7.654 -2.19,6.966c-0.384,-0.092 -0.724,-0.154 -1.114,-0.217c0.044,0.167 0.162,0.299 0.198,0.516c0.472,3.871 0.825,7.696 0.943,11.521c0.301,-0.126 0.505,-0.25 0.818,-0.28c5.719,-1.206 10.274,1.76 12.681,6.661z" /></svg>