<svg xmlns="http://www.w3.org/2000/svg" viewBox="0 0 948 762" width="948" height="762"><path d="M485.4,6.1c0,0 8.001,4.259 15.9,11.5c7.899,7.241 17.597,18.42 26.9,34.7c15.897,27.821 28.4,74.769 32.3,138.6c55.024,-6.595 129.4,-26.2 129.4,-26.2l3.9,-1.3h253.8v25.6c0,33.956 -18.357,64.649 -44.3,92.8c-25.943,28.151 -60.784,54.407 -100.5,77.4c-70.5,40.816 -155.34,67.856 -234.4,74.3c4.693,63.16 24.586,131.726 42.1,180.2c6.989,19.345 12.869,35.388 16.3,49.1l5,19.9l-157.8,78.9l-157.8,-78.9l5,-19.9c3.43,-13.72 9.312,-29.756 16.3,-49.1c17.514,-48.475 37.407,-117.04 42.1,-180.2c-79.06,-6.444 -163.9,-33.484 -234.4,-74.3c-39.716,-22.993 -74.557,-49.249 -100.5,-77.4c-25.943,-28.151 -44.3,-58.844 -44.3,-92.8v-25.6h253.8l3.9,1.3c0,0 74.376,19.605 129.4,26.2c3.9,-63.831 16.403,-110.779 32.3,-138.6c9.303,-16.28 19.001,-27.459 26.9,-34.7c7.899,-7.241 15.9,-11.5 15.9,-11.5l11.4,-5.7zM464.2,77.7c-13.395,23.441 -28.6,66.713 -28.6,143.3v25.6h-25.6c-69.686,0 -154.468,-29.586 -161.5,-32h-183.4c4.951,10.812 5.405,19.801 17.2,32.6c21.057,22.849 52.216,46.594 88.5,67.6c72.568,42.013 166.027,72.6 239.2,72.6h25.6v25.6c0,81.936 -30.393,164.109 -49.9,218.1c-3.945,10.92 -5.691,16.812 -8.4,24.9l96.7,48.4l96.7,-48.4c-2.709,-8.089 -4.455,-13.981 -8.4,-24.9c-19.507,-53.991 -49.9,-136.164 -49.9,-218.1v-25.6h25.6c73.173,0 166.632,-30.587 239.2,-72.6c36.284,-21.006 67.443,-44.751 88.5,-67.6c11.795,-12.799 12.249,-21.788 17.2,-32.6h-183.4c-7.032,2.414 -91.814,32 -161.5,32h-25.6v-25.6c0,-76.587 -15.205,-119.859 -28.6,-143.3c-3.842,-6.723 -6.567,-8.946 -9.8,-12.8c-3.233,3.854 -5.958,6.077 -9.8,12.8z" /></svg>