<svg xmlns="http://www.w3.org/2000/svg" viewBox="0 0 1024 811" width="1024" height="811"><path d="M1024,401.542c0,96.236 -77.87,174.262 -174.008,174.446l-111.482,0.012l-226.51,234.51l-226.51,-234.51h-91.76c-106.996,0 -193.73,-86.786 -193.73,-193.848c0,-107.056 86.734,-193.844 193.732,-193.842c11.804,0 23.348,1.114 34.57,3.138c-0.884,-6.194 -1.364,-12.518 -1.364,-18.954c0,-73.846 59.832,-133.722 133.642,-133.722c43.018,0 81.266,20.362 105.708,51.96c43.588,-55.238 111.062,-90.732 186.854,-90.732c129.404,0 234.62,103.362 237.862,232.06c76.318,18.582 132.996,87.392 132.996,169.482zM704,512h-128v-192h-128v192h-128l192,192z" /></svg>