<svg xmlns="http://www.w3.org/2000/svg" viewBox="0 0 1024 1024" width="1024" height="1024"><path d="M512.002,0c282.769,0.001 511.998,229.231 511.998,512c0,0.001 0,0.002 0,0.002v0c-0.001,282.768 -229.23,511.997 -511.998,511.998v0c-0.001,0 -0.001,0 -0.002,0c-282.769,0 -511.999,-229.229 -512,-511.998v0c0,-0.001 0,-0.001 0,-0.002c0,-282.77 229.23,-512 512,-512c0.001,0 0.002,0 0.002,0zM348.025,187.025v0c-116.872,0.001 -211.616,94.745 -211.617,211.617v0.005c0.048,106.504 78.775,194.612 182.345,209.487l0.482,-1.458c-8.68,23.053 -13.452,48.022 -13.508,74.121v0c0.001,116.872 94.745,211.616 211.617,211.617h0.001c116.87,-0.003 211.612,-94.746 211.613,-211.617v0.004c0,-0.021 0,-0.041 0,-0.062c0,-21.717 -3.271,-42.67 -8.95,-60.894l1.384,-0.246c95.627,-20.294 167.387,-105.173 167.472,-206.836v0c-0.002,-116.871 -94.743,-211.613 -211.614,-211.617h-0.007c-63.197,0.04 -119.914,27.783 -158.864,71.974l-0.402,-0.566c-38.561,-51.895 -100.326,-85.521 -169.946,-85.529h-0.004z" /></svg>