<svg xmlns="http://www.w3.org/2000/svg" viewBox="0 0 960 960" width="960" height="960"><path d="M960,330.666v298.666c0,10.698 -5.348,20.69 -14.25,26.624l-448,298.666c-5.374,3.584 -11.562,5.376 -17.75,5.376c-6.188,0 -12.376,-1.792 -17.75,-5.376l-448,-298.666c-8.902,-5.932 -14.25,-15.924 -14.25,-26.624v-298.666c0,-10.698 5.348,-20.69 14.25,-26.624l448,-298.666c10.748,-7.166 24.752,-7.166 35.5,0l448,298.666c8.902,5.934 14.25,15.926 14.25,26.624zM646.312,480l-166.312,-110.874l-166.312,110.874l166.312,110.876zM704,441.542l166.31,-110.874l-358.31,-238.876v221.75zM448,91.792l-358.312,238.876l166.312,110.874l192,-128zM64,390.46v179.082l134.312,-89.542zM89.688,629.334l358.312,238.872v-221.748l-192,-128zM512,868.208l358.312,-238.874l-166.312,-110.876l-192,128zM896,569.544v-179.084l-134.312,89.54z" /></svg>