<svg xmlns="http://www.w3.org/2000/svg" viewBox="0 0 988 1024" width="988" height="1024"><path d="M987.224,681.478l-100.626,174.29c-93.638,-53.582 -212.778,-21.894 -266.414,71.012c-17.694,30.648 -26.052,64.144 -25.966,97.218h-201.254c-0.556,-107.766 -87.504,-194.958 -194.7,-194.958c-35.484,0 -68.75,9.558 -97.4,26.254l-100.626,-174.292c93.22,-54.304 125.346,-173.316 71.708,-266.224c-17.836,-30.89 -42.916,-55.006 -71.886,-71.478l100.624,-174.292c93.706,53.944 213.138,22.298 266.862,-70.758c17.884,-30.97 26.224,-64.842 25.958,-98.252h201.258c0,108.244 87.172,195.99 194.708,195.99c35.67,0 69.096,-9.664 97.846,-26.518l100.626,174.292c-93.568,54.184 -125.878,173.434 -72.152,266.488c17.742,30.73 42.654,54.762 71.434,71.228zM701.332,511.998c0,-114.508 -92.824,-207.334 -207.332,-207.334c-114.51,0 -207.336,92.826 -207.336,207.334c0,114.51 92.828,207.334 207.336,207.334c114.508,0 207.33,-92.824 207.332,-207.334z" /></svg>