<svg xmlns="http://www.w3.org/2000/svg" viewBox="0 0 1024 1024" width="1024" height="1024"><path d="M377.914,756.318l70.086,11.682v64l-70.088,11.68c-3.418,12.06 -8.198,23.546 -14.192,34.266l41.298,57.816l-45.254,45.256l-57.818,-41.296c-10.722,5.994 -22.204,10.774 -34.266,14.192l-11.68,70.086h-64l-11.682,-70.084c-12.062,-3.418 -23.544,-8.198 -34.266,-14.192l-57.818,41.296l-45.254,-45.256l41.298,-57.816c-5.994,-10.722 -10.774,-22.206 -14.192,-34.266l-70.086,-11.682v-64l70.086,-11.682c3.418,-12.06 8.198,-23.546 14.192,-34.266l-41.298,-57.816l45.256,-45.256l57.818,41.298c10.722,-5.994 22.204,-10.774 34.266,-14.192l11.68,-70.086h64l11.682,70.084c12.062,3.418 23.544,8.198 34.266,14.192l57.818,-41.296l45.254,45.256l-41.298,57.816c5.994,10.722 10.774,22.206 14.192,34.266zM288,800c0,-35.346 -28.652,-64 -64,-64c-35.348,0 -64,28.654 -64,64c0,35.346 28.652,64 64,64c35.348,0 64,-28.654 64,-64zM956.618,396.25c-1.242,8.048 -2.832,15.978 -4.724,23.79l57.558,37.1l-24.492,59.13l-66.944,-14.468c-4.216,6.91 -8.726,13.618 -13.492,20.13l39.006,56.342l-45.256,45.256l-56.342,-39.006c-6.51,4.766 -13.22,9.276 -20.13,13.492l14.468,66.944l-59.128,24.492l-37.1,-57.558c-7.814,1.892 -15.746,3.482 -23.79,4.724l-12.252,67.382h-64l-12.252,-67.384c-8.046,-1.242 -15.978,-2.832 -23.788,-4.724l-37.102,57.558l-59.128,-24.492l14.468,-66.944c-6.91,-4.216 -13.62,-8.726 -20.13,-13.492l-56.342,39.006l-45.254,-45.256l39.006,-56.342c-4.766,-6.512 -9.278,-13.22 -13.494,-20.13l-66.944,14.468l-24.492,-59.128l57.558,-37.1c-1.892,-7.812 -3.482,-15.744 -4.724,-23.79l-67.382,-12.25v-64l67.384,-12.252c1.242,-8.048 2.832,-15.978 4.724,-23.79l-57.558,-37.1l24.492,-59.128l66.944,14.468c4.216,-6.91 8.728,-13.62 13.494,-20.13l-39.006,-56.342l45.254,-45.254l56.342,39.006c6.51,-4.766 13.22,-9.278 20.13,-13.494l-14.468,-66.944l59.128,-24.492l37.098,57.558c7.814,-1.892 15.744,-3.482 23.79,-4.724l12.252,-67.382h64l12.252,67.382c8.046,1.242 15.978,2.832 23.79,4.724l37.1,-57.558l59.128,24.494l-14.468,66.944c6.91,4.218 13.618,8.728 20.13,13.494l56.342,-39.006l45.256,45.254l-39.006,56.342c4.766,6.51 9.278,13.22 13.492,20.13l66.944,-14.468l24.492,59.128l-57.558,37.1c1.892,7.812 3.482,15.744 4.724,23.79l67.382,12.25v64zM811.2,352c0,-76.878 -62.32,-139.2 -139.2,-139.2c-76.88,0 -139.2,62.322 -139.2,139.2c0,76.878 62.322,139.2 139.2,139.2c76.88,0 139.2,-62.322 139.2,-139.2z" /></svg>