<svg xmlns="http://www.w3.org/2000/svg" viewBox="0 0 960 960" width="960" height="960"><path d="M960,480c0,265.098 -214.902,480 -480,480c-265.096,0 -480,-214.904 -480,-480c0,-265.096 214.904,-480 480,-480c265.098,0 480,214.902 480,480zM864,480c0,-212.078 -171.926,-384 -384,-384c-212.078,0 -384,171.922 -384,384c0,212.078 171.922,384 384,384c212.074,0 384,-171.922 384,-384z" /> <path d="M640,672c0,17.674 -14.326,32 -32,32h-288v-192h-32c-17.672,0 -32,-14.326 -32,-32c0,-17.674 14.328,-32 32,-32h32v-32c0,-88.224 71.776,-160 160,-160c56.94,0 110.04,30.648 138.578,79.984c8.85,15.298 3.62,34.874 -11.676,43.722c-15.296,8.85 -34.872,3.622 -43.722,-11.676c-17.138,-29.626 -49.01,-48.03 -83.18,-48.03c-52.934,0 -96,43.066 -96,96v32h96c17.672,0 32,14.326 32,32c0,17.674 -14.328,32 -32,32h-96v128h224c17.674,0 32,14.326 32,32z" /></svg>