<svg xmlns="http://www.w3.org/2000/svg" viewBox="0 0 806 866" width="806" height="866"><path d="M406.95,266.7l-153.55,-9.35l35.65,61.2l-33.2,19.35l-71.75,-123.15l153.55,9.3l-35.6,-61.2l33.15,-19.3zM553,559.8l-33.15,19.35c-5.37,-9.216 -11.229,-12.285 -18.75,-13.4c-7.521,-1.115 -17.047,0.921 -25.25,5.7c-8.203,4.779 -14.661,12.057 -17.4,19.15c-1.31,3.392 0.975,7.442 1.15,10.95c32.925,-4.139 54.246,-11.66 97.1,-14.4l11.85,-0.75l5.95,10.25c10.739,18.433 11.538,39.3 5.05,56.1c-6.488,16.8 -19.061,29.855 -33.9,38.5c-14.839,8.645 -32.386,13.142 -50.2,10.5c-17.814,-2.642 -35.561,-13.617 -46.3,-32.05l33.2,-19.35c5.369,9.216 11.229,12.285 18.75,13.4c7.521,1.115 17.047,-0.921 25.25,-5.7c8.203,-4.779 14.611,-12.058 17.35,-19.15c1.31,-3.391 -0.975,-7.443 -1.15,-10.95c-32.893,4.139 -54.217,11.609 -97.05,14.35l-11.85,0.8l-5.95,-10.25c-10.738,-18.434 -11.538,-39.3 -5.05,-56.1c6.488,-16.8 19.011,-29.855 33.85,-38.5c14.839,-8.645 32.435,-13.142 50.25,-10.5c17.815,2.642 35.511,13.617 46.25,32.05z" /> <path d="M223,29.65l-106.65,85.35l-24,-30l106.65,-85.3zM669.95,165.5c61.64,65.754 93.6,156.105 93.6,254.5c0,98.395 -31.96,188.746 -93.6,254.5c-61.64,65.754 -152.779,106.05 -266.95,106.05c-114.171,0 -205.31,-40.296 -266.95,-106.05c-61.64,-65.754 -93.6,-156.105 -93.6,-254.5c0,-98.395 31.96,-188.746 93.6,-254.5c61.64,-65.754 152.779,-106.05 266.95,-106.05c114.171,0 205.31,40.296 266.95,106.05zM164.05,191.75c-54.169,57.785 -83.2,138.132 -83.2,228.25c0,90.118 29.031,170.466 83.2,228.25c54.169,57.784 133.693,93.9 238.95,93.9c105.257,0 184.781,-36.116 238.95,-93.9c54.169,-57.784 83.2,-138.132 83.2,-228.25c0,-90.118 -29.031,-170.465 -83.2,-228.25c-54.169,-57.785 -133.693,-93.9 -238.95,-93.9c-105.257,0 -184.781,36.115 -238.95,93.9zM403,827.45c210.717,0 344.489,-140.539 364.9,-324.25l38.2,4.25c-22.253,200.289 -174.961,358.4 -403.1,358.4c-228.139,0 -380.846,-158.111 -403.1,-358.4l38.2,-4.25c20.412,183.711 154.183,324.25 364.9,324.25z" /> <path d="M484.7,444.5l-18.8,-3.7l13.6,13.5l-210.05,211.55l56.65,-288.65l18.85,3.7l-13.6,-13.55l210,-211.5zM669.65,286.65l-64,42.65l-21.3,-31.95l64,-42.65zM377.35,375.5l74.5,36.9l27.4,-139.5zM331.55,548.8l101.9,-102.65l-74.5,-36.9zM189.65,421.6v38.4h-85.3v-38.4zM680.35,421.6v38.4h-85.35v-38.4zM245.9,540.25l-64,64l-27.15,-27.15l64,-64z" /></svg>