<svg xmlns="http://www.w3.org/2000/svg" viewBox="0 0 1266 896" width="1266" height="896"><path d="M633,512c105.87,0 201.87,43.066 271.402,112.598l-90.468,90.468c-46.354,-46.356 -110.356,-75.066 -180.934,-75.066c-70.578,0 -134.578,28.71 -180.934,75.066l-90.468,-90.468c69.532,-69.532 165.532,-112.598 271.402,-112.598zM180.452,443.452c120.88,-120.88 281.598,-187.452 452.548,-187.452c170.95,0 331.668,66.572 452.55,187.452l-90.51,90.508c-96.706,-96.704 -225.28,-149.96 -362.04,-149.96c-136.762,0 -265.334,53.256 -362.038,149.962zM981.784,70.438c106.702,45.132 202.516,109.728 284.782,191.996v0l-90.508,90.508c-145.056,-145.056 -337.92,-224.942 -543.058,-224.942c-205.14,0 -398,79.886 -543.058,224.942l-90.51,-90.51c82.268,-82.266 178.082,-146.862 284.784,-191.994c110.504,-46.738 227.852,-70.438 348.784,-70.438c120.932,0 238.278,23.7 348.784,70.438zM569,832c0,-35.346 28.654,-64 64,-64c35.346,0 64,28.654 64,64c0,35.346 -28.654,64 -64,64c-35.346,0 -64,-28.654 -64,-64z" /></svg>