<svg xmlns="http://www.w3.org/2000/svg" viewBox="0 0 983 767" width="983" height="767"><path d="M156.611,766.706l-8.008,-0.114l-1.167,-2.492c-1.584,-3.386 -2.186,-6.702 -2.69,-14.838c-0.64,-10.31 -1.331,-34.199 -1.06,-36.554c0.535,-4.638 0.241,-22.114 -0.532,-31.447c-0.75,-9.054 -1.31,-20.154 -1.794,-35.478c-0.124,-3.904 -0.486,-14.37 -0.81,-23.259c-0.324,-8.889 -0.558,-21.219 -0.524,-27.398c0.043,-8.293 -0.122,-12.99 -0.633,-17.935c-0.462,-4.466 -0.737,-10.929 -0.819,-19.374c-0.09,-9.153 -0.354,-14.983 -0.953,-20.999c-0.678,-6.846 -0.81,-10.518 -0.731,-20.638c0.088,-11.166 0.014,-12.824 -0.794,-17.83c-0.488,-3.035 -0.997,-7.593 -1.127,-10.131c-0.362,-6.997 -0.199,-7.122 10.13,-7.85c7.383,-0.521 8.084,-0.816 7.7,-3.245c-0.142,-0.904 -0.402,-28.872 -0.573,-62.153c-0.354,-67.935 -0.03,-61.444 -3.422,-69.244c-0.956,-2.202 -1.848,-4.792 -1.98,-5.754c-0.471,-3.432 1.578,-6.166 6.264,-8.369c1.517,-0.713 2.406,-1.722 3.63,-4.115c0.956,-1.872 1.816,-21.646 1.909,-43.986l0.071,-16.95l-1.89,-7.097c-2.525,-9.466 -2.646,-11.358 -1.122,-17.148c0.655,-2.493 2.099,-7.459 3.207,-11.037c4.653,-15.034 6.318,-22.387 13.782,-60.881c2.394,-12.345 4.522,-22.616 4.731,-22.826c0.243,-0.243 0.521,-0.038 0.771,0.569c0.215,0.522 2.01,10.704 3.988,22.627c6.254,37.701 7.986,45.449 13.918,62.285c3.637,10.319 4.211,12.294 4.211,14.483c0,0.961 -0.805,4.388 -1.789,7.618c-0.984,3.23 -1.969,7.027 -2.19,8.442c-0.231,1.472 -0.499,15.702 -0.632,33.348l-0.233,30.778l1.14,1.258c0.628,0.691 2.632,2.01 4.454,2.926c2.168,1.092 3.736,2.191 4.533,3.186c1.098,1.362 1.218,1.782 1.202,4.139c-0.017,2.199 -0.261,3.134 -1.518,5.778c-3.537,7.446 -3.456,6.952 -3.843,23.259c-0.189,8.022 -0.299,35.341 -0.244,60.709l0.102,46.121l0.959,1.674c0.659,1.151 1.522,1.952 2.759,2.562l1.8,0.887l284.62,0.108c185.104,0.07 285.753,-0.029 287.861,-0.281c3.785,-0.452 5.375,-1.168 6.414,-2.875c1.154,-1.896 1.328,-4.806 0.839,-13.861c-0.674,-12.445 -1.169,-29.125 -1.83,-61.735c-0.633,-31.182 -0.983,-39.171 -1.95,-44.547c-1.963,-10.914 -2.574,-14.847 -2.574,-16.597c0,-3.673 2.522,-7.12 6.776,-9.261c4.567,-2.299 5.137,-3.521 3.273,-7.024l-0.988,-1.856l-0.21,-62.04l-2.06,-5.969c-2.593,-7.506 -2.618,-8.334 -0.318,-10.794c3.624,-3.874 5.24,-8.61 6.327,-18.522c0.366,-3.361 1.443,-9.57 2.387,-13.797c0.944,-4.227 2.537,-11.946 3.534,-17.148c3.467,-18.066 5.015,-25.674 7.116,-34.97c2.713,-12.003 2.91,-12.72 3.377,-12.256c0.374,0.374 4.901,25.35 10.987,60.629c1.795,10.409 3.302,20.401 3.534,23.454c0.222,2.927 0.599,6.03 0.839,6.898c0.667,2.418 2.147,4.703 4.153,6.416c1.662,1.421 1.794,1.665 1.542,2.814c-0.151,0.692 -1.139,2.298 -2.193,3.564c-2.908,3.494 -3.525,4.693 -3.527,6.841c0,2.082 0.4,3.102 1.823,4.629l0.941,1.01l0.096,30.546c0.11,34.698 -0.33,30.667 3.86,35.295c2.778,3.065 7.075,9.355 7.075,10.356c0,0.385 -0.529,1.66 -1.175,2.832c-0.646,1.172 -1.624,3.467 -2.171,5.099c-2.11,6.288 -2.214,7.47 -2.573,29.358c-0.186,11.274 -0.786,31.94 -1.338,45.926c-1.581,40.111 -1.66,44.549 -0.841,48.319c0.378,1.75 1.158,4.141 1.734,5.31c1.386,2.83 3.774,4.11 7.338,3.928c7.06,-0.36 8.735,0.122 10.35,2.974c1.141,2.013 1.14,2.274 -0.086,36.281c-0.538,14.942 -1.337,39.583 -1.77,54.761c-0.859,29.964 -1.206,39.633 -3.558,99.931c-0.858,22.006 -1.922,49.681 -2.362,61.496c-0.743,19.918 -1.242,28.23 -1.782,29.634c-0.119,0.31 -0.726,0.866 -1.35,1.233c-1.057,0.624 -7.374,0.668 -94.157,0.668h-93.026l-2.757,-3.054l-0.243,-13.554c-0.581,-32.465 -0.653,-47.201 -0.299,-61.055c0.427,-16.851 0.177,-21.846 -1.522,-30.354c-2.136,-10.686 -7.806,-26.194 -14.489,-39.618c-9.845,-19.782 -25.392,-37.406 -48.587,-55.073c-20.035,-15.263 -40.374,-23.264 -69.368,-27.294c-4.003,-0.558 -9.558,-1.458 -12.344,-1.998c-9.415,-1.836 -11.942,-1.973 -18.626,-1.002c-40.892,5.929 -74.957,21.682 -99.353,45.951c-12.102,12.038 -21.006,24.466 -29.366,40.998c-11.247,22.237 -15.504,39.392 -16.925,68.199c-0.213,4.338 -0.39,22.828 -0.393,41.09l-0.006,33.206l-3.414,3.561l-84.725,-0.09c-46.599,-0.05 -88.326,-0.141 -92.73,-0.206zM354.526,766.214c-0.706,-0.43 -1.653,-1.362 -2.105,-2.07c-0.905,-1.419 -0.906,-1.036 0.036,-61.795c0.352,-22.698 0.352,-22.698 3.378,-37.843c4.741,-23.718 12.606,-41.988 25.498,-59.212c13.542,-18.091 29.943,-31.482 50.82,-41.489c7.002,-3.355 11.558,-4.885 23.779,-7.977l10.254,-2.597l6.505,-0.046c3.578,-0.026 6.948,0.016 7.491,0.09c0.543,0.074 2.267,-0.318 3.834,-0.87c4.471,-1.581 8.516,-1.938 19.374,-1.71c10.638,0.223 9.771,0.091 24.294,3.702l9.066,2.254l20.5,11.79c11.274,6.485 22.45,13.067 24.834,14.63c19.408,12.714 32.587,32.092 43.386,63.775c7.885,23.135 10.007,38.624 8.838,64.505c-0.434,9.602 -0.439,15.191 -0.038,31.273c0.546,21.813 0.648,20.705 -2.118,23.13l-1.413,1.242h-137.466c-136.475,0 -137.477,-0.006 -138.751,-0.786zM524.239,728.953c3.087,-0.918 3.433,-1.537 3.026,-5.409c-0.356,-3.392 -0.32,-16.197 0.059,-21.022l0.221,-2.789l-3.379,-2.928c-3.999,-3.463 -6.839,-5.095 -8.868,-5.095c-2.952,0 -7.665,1.833 -9.546,3.714c-0.869,0.869 -1.137,1.71 -1.685,5.262c-1.342,8.732 -1.662,23.271 -0.558,25.418c1.555,3.029 14.254,4.774 20.73,2.85zM594.79,728.235c1.257,-0.327 3.234,-0.458 5.183,-0.344c4.258,0.246 5.723,-0.094 7.566,-1.76c2.384,-2.154 2.707,-3.817 2.827,-14.514c0.096,-8.567 0.054,-9.185 -0.766,-11.188c-1.182,-2.884 -2.646,-4.904 -4.464,-6.165c-4.724,-3.274 -11.406,-3.292 -15.206,-0.038c-1.999,1.711 -3.904,5.25 -4.46,8.298c-0.639,3.485 -0.531,20.142 0.142,22.029c1.333,3.738 4.329,4.94 9.174,3.684zM387.741,727.912c0.434,0 2.298,0.115 4.139,0.258c3.027,0.234 3.522,0.17 5.121,-0.659c3.17,-1.642 4.338,-4.557 4.338,-10.816c0,-1.844 0.202,-4.158 0.45,-5.14c0.516,-2.047 0.186,-3.99 -1.674,-9.837c-1.466,-4.612 -2.922,-6.637 -5.686,-7.902c-2.538,-1.162 -6.762,-1.609 -9.132,-0.966c-2.462,0.667 -4.891,3.337 -7.114,7.81l-1.877,3.776l-0.118,9.399c-0.11,8.663 -0.056,9.535 0.664,11.166c0.463,1.05 1.313,2.102 2.09,2.593c1.164,0.736 1.675,0.798 4.66,0.57c1.842,-0.139 3.705,-0.256 4.139,-0.256zM478.527,727.37c2.395,-0.713 4.47,-2.082 5.074,-3.354c0.829,-1.742 1.439,-12.816 0.937,-16.978c-0.579,-4.785 -0.99,-6.102 -2.612,-8.339c-2.874,-3.961 -7.357,-6.515 -10.584,-6.03c-3.163,0.474 -8.864,5.062 -10.775,8.672c-1.313,2.478 -1.29,20.039 0.029,23.137c0.726,1.705 2.08,2.93 3.822,3.458c1.854,0.561 11.637,0.171 14.112,-0.564zM436.973,727.041c6.516,-0.687 6.157,-0.054 6.149,-10.838c-0.01,-12.267 -0.794,-15.286 -5.078,-19.571c-2.942,-2.942 -5.745,-4.315 -8.088,-3.966c-2.298,0.343 -5.79,2.645 -8.538,5.622c-3.55,3.846 -3.673,4.266 -3.696,12.737c-0.03,10.77 1.151,15.601 3.964,16.215c1.96,0.426 10.39,0.318 15.288,-0.198zM559.81,725.972c4.005,-0.682 7.675,-1.389 8.156,-1.573l0.873,-0.331l-0.258,-22.926l-1.254,-2.548c-1.348,-2.736 -2.682,-3.983 -5.762,-5.386c-1.601,-0.727 -2.658,-0.891 -5.891,-0.898c-3.682,-0.01 -4.086,0.068 -6.111,1.206c-5.094,2.857 -6.474,7.614 -6.24,21.492c0.139,8.276 0.306,9.006 2.638,11.532c1.002,1.086 1.138,1.118 3.8,0.9c1.518,-0.125 6.041,-0.785 10.046,-1.467zM513.394,638.862c2.941,-0.817 2.86,-0.097 2.859,-25.013c0,-19.918 -0.068,-22.346 -0.705,-24.834c-1.156,-4.518 -3.267,-8.313 -6.384,-11.478c-4.41,-4.48 -9.189,-6.457 -15.595,-6.457c-11.256,0 -19.543,6.34 -22.527,17.226c-0.805,2.938 -0.846,4.023 -0.946,24.363c-0.099,19.95 -0.059,21.39 0.621,22.936c1.374,3.114 1.267,3.097 18.338,2.982c8.238,-0.054 16.398,0.054 18.134,0.241c4.518,0.486 4.58,0.486 6.21,0.035zM449.825,625.084c0.535,-11.996 0.366,-14.075 -1.422,-17.359c-2.274,-4.182 -7.976,-6.043 -14.33,-4.682c-4.231,0.906 -7.752,4.639 -8.66,9.185c-0.414,2.071 -1.602,18.498 -1.602,22.158c0,1.426 0.228,2.328 0.752,2.977l0.752,0.93l23.526,0.394l0.247,-1.38c0.138,-0.76 0.466,-6.258 0.733,-12.222zM553.82,638.453c3.181,-0.235 6.078,-0.588 6.442,-0.783c0.772,-0.414 0.947,-2.438 1.512,-17.316c0.201,-5.311 0.474,-10.021 0.606,-10.464c0.211,-0.707 -0.453,-1.16 -5.45,-3.715c-4.816,-2.463 -6.064,-2.936 -8.106,-3.085c-1.439,-0.103 -2.898,0.025 -3.606,0.318c-1.782,0.738 -5.073,4.576 -6.526,7.605c-1.864,3.885 -2.288,7.11 -2.022,15.305c0.255,7.83 0.583,9.099 2.803,10.793c2.43,1.854 4.669,2.064 14.346,1.346zM0.669,764.704c-0.111,-0.178 0.301,-1.908 0.914,-3.845c0.69,-2.178 1.206,-4.87 1.358,-7.066c0.134,-1.95 0.777,-12.064 1.433,-22.47c1.693,-26.946 3.315,-43.747 8.068,-83.573c2.087,-17.489 2.49,-19.768 4.568,-25.802c1.829,-5.307 1.92,-6.62 0.577,-8.215c-1.143,-1.358 -2.106,-1.77 -6.118,-2.622c-5.886,-1.249 -8.568,-3.772 -8.19,-7.706c0.241,-2.505 1.073,-3.522 5.234,-6.401c4.056,-2.804 6.561,-5.23 7.806,-7.56l0.865,-1.615l0.222,-115.7c0.198,-104.241 0.289,-116.736 0.906,-126.148c0.378,-5.745 0.723,-14.97 0.764,-20.5c0.089,-11.358 0.066,-11.478 -3.543,-20.301c-2.345,-5.73 -5.502,-14.994 -6.452,-18.922c-0.419,-1.734 -0.763,-4.31 -0.765,-5.722c-0.006,-4.924 1.979,-6.646 8.831,-7.67c4.326,-0.644 6.036,-1.525 7.671,-3.942l0.932,-1.379l0.053,-51.55c0.058,-58.847 0.479,-52.614 -3.864,-57.24c-3.816,-4.062 -3.622,-5.247 1.41,-8.631c2.267,-1.525 4.863,-4.427 6.053,-6.771c1.489,-2.934 2.106,-5.573 4.182,-17.935c2.015,-11.989 3.081,-17.778 10.164,-55.19c6.858,-36.231 7.563,-39.377 11.882,-53.109c3.03,-9.63 3.569,-12.135 3.249,-15.09c-0.116,-1.084 -0.104,-1.871 0.027,-1.75c0.745,0.684 1.67,4.974 19.187,89.098c8.865,42.575 10.306,49.013 11.49,51.335c0.995,1.956 3.108,4.268 5.51,6.03c2.09,1.533 3.894,4.193 3.882,5.713c-0.014,1.53 -1.346,3.918 -3.708,6.654c-2.658,3.077 -3.683,5.62 -4.293,10.659c-0.619,5.118 -0.561,68.825 0.078,86.529l0.486,13.403l1.011,1.055c1.326,1.386 4.109,2.554 7.285,3.062c4.875,0.778 7.518,2.19 8.982,4.794c0.738,1.314 0.872,2.045 0.746,4.049c-0.132,2.07 -0.588,3.318 -2.975,8.146c-3.15,6.366 -4.828,11.394 -6.049,18.119c-1.326,7.296 -1.782,56.996 -1.149,125.556c0.27,29.488 0.426,76.229 0.342,103.876l-0.15,50.261l0.822,1.578c1.074,2.058 2.84,3.218 5.793,3.798c2.856,0.561 4.96,2.241 6.424,5.13c1.818,3.589 1.098,5.538 -3.403,9.222c-3.066,2.508 -6.044,5.67 -6.895,7.314c-0.63,1.218 -0.485,2.911 4.537,52.982c1.521,15.176 3.126,32.827 3.562,39.223c1.423,20.815 1.774,24.018 4.557,41.644c0.965,6.102 1.752,11.619 1.752,12.261c0,0.696 -0.391,1.592 -0.966,2.214l-0.966,1.043h-56.957c-31.326,0 -57.05,-0.147 -57.161,-0.325zM870.452,764.582c-1.867,-0.51 -3.05,-1.938 -3.369,-4.075c-0.546,-3.635 1.695,-21.657 5.537,-44.555c2.706,-16.128 3.088,-20.094 4.53,-47.107c1.063,-19.906 1.364,-23.632 3.176,-39.293c0.858,-7.41 1.558,-13.827 1.558,-14.261c0,-0.434 -0.445,-1.316 -0.989,-1.962c-0.786,-0.932 -1.592,-1.309 -3.936,-1.83c-5.145,-1.146 -8.478,-4.122 -8.478,-7.575c0,-3.697 1.386,-5.144 8.823,-9.213c2.142,-1.171 4.606,-2.764 5.478,-3.534l1.581,-1.404l-0.073,-8.262c-0.041,-4.543 -0.236,-14.238 -0.438,-21.546c-0.81,-29.535 -1.194,-74.133 -1.337,-156.228c-0.173,-98.54 0.253,-87.125 -3.979,-107.029c-2.43,-11.418 -2.959,-15.923 -2.166,-18.366c1.28,-3.945 3.647,-5.322 9.614,-5.593c3.278,-0.15 4.136,-0.319 4.85,-0.971l0.866,-0.791l-0.023,-22.324c-0.018,-19.04 0.102,-24.09 0.826,-34.347c0.467,-6.613 0.954,-18.054 1.077,-25.426c0.267,-15.654 -0.042,-18.624 -2.41,-23.148c-0.77,-1.47 -2.03,-3.879 -2.802,-5.352c-1.074,-2.057 -1.406,-3.162 -1.418,-4.755c-0.018,-2.561 0.348,-3.486 3.53,-8.874c4.35,-7.374 5.981,-11.994 8.164,-23.166c0.777,-3.981 2.371,-11.952 3.545,-17.714c1.174,-5.762 3.566,-18.002 5.322,-27.199c10.289,-53.904 14.886,-76.744 16.028,-79.601c0.441,-1.107 2.872,9.606 10.95,48.292c17.286,82.756 18.99,90.665 20.013,92.837c0.511,1.086 2.405,3.306 4.882,5.73c2.393,2.337 4.158,4.398 4.318,5.041c0.426,1.7 -0.081,3.354 -2.145,6.969c-1.051,1.842 -2.374,4.523 -2.938,5.958c-2.233,5.675 -2.224,5.437 -2.328,57.116c-0.092,45.847 -0.07,47.554 0.646,48.999c1.039,2.094 2.514,2.72 7.142,3.035c4.625,0.315 6.267,0.927 8.411,3.138c1.878,1.934 2.825,4.458 2.825,7.53c0,2.908 -0.738,4.922 -3.21,8.779c-4.023,6.27 -5.874,11.938 -6.606,20.208c-0.66,7.47 -0.395,273.873 0.273,275.805c0.859,2.484 2.85,4.65 5.8,6.302c3.006,1.686 6.804,5.131 7.146,6.485c0.33,1.302 -0.393,2.317 -5.22,7.336c-2.454,2.55 -4.929,5.44 -5.503,6.418l-1.044,1.782l0.654,7.578c0.36,4.168 2.338,22.654 4.398,41.083c3.162,28.312 7.539,68.117 9.774,88.894l0.572,5.322l-0.966,1.671c-0.533,0.918 -1.623,2.118 -2.424,2.66l-1.458,0.99l-52.83,-0.035c-32.227,-0.021 -53.369,-0.183 -54.209,-0.414zM222.212,467.727c-2.151,-0.306 -3.486,-1.077 -4.47,-2.579c-0.63,-0.961 -0.707,-2.568 -0.822,-17.046c-0.09,-11.155 0.012,-16.621 0.332,-18.092c0.577,-2.645 2.491,-4.866 5.043,-5.85c1.776,-0.686 12.327,-0.714 271.882,-0.714h270.034l1.71,0.912c1.272,0.678 1.909,1.362 2.49,2.681c0.747,1.686 0.775,2.519 0.656,18.208c-0.141,18.522 0.006,17.605 -3.271,20.49l-1.794,1.578l-8.37,0.255c-11.264,0.342 -531.054,0.497 -533.42,0.158zM230.646,411.014c-4.883,-0.197 -5.537,-0.313 -7.884,-1.421c-4.674,-2.202 -5.373,-3.612 -5.263,-10.589c0.065,-4.062 1.199,-7.758 2.634,-8.574c0.601,-0.342 2.571,-0.455 6.562,-0.378c7.59,0.148 44.945,-1.267 56.313,-2.132c2.706,-0.207 3.486,-0.423 4.452,-1.236c2.097,-1.765 2.811,-3.755 3.354,-9.363c0.865,-8.943 3.053,-14.694 8.946,-23.538c3.835,-5.754 4.319,-6.966 5.434,-13.654c1.959,-11.742 6.606,-20.729 16.575,-32.042c6.717,-7.626 28.914,-31.203 34.482,-36.628c19.055,-18.568 32.408,-26.78 63.621,-39.134c17.703,-7.005 18.954,-7.357 37.648,-10.553c6.505,-1.11 12.4,-2.26 13.098,-2.55c0.698,-0.29 1.634,-1.116 2.075,-1.833c1.363,-2.217 5.337,-15.511 7.125,-23.842c1.017,-4.744 2.899,-8.454 5.898,-11.622c1.722,-1.822 2.43,-2.305 3.372,-2.305c3.089,0 9.321,4.849 11.49,8.938c1.458,2.749 2.62,6.947 5.046,18.262c1.929,8.994 2.853,11.358 4.83,12.366c1.939,0.99 17.838,4.924 28.83,7.134c5.946,1.194 12.51,2.63 14.586,3.186c21.33,5.727 38.37,13.988 53.287,25.842c26.359,20.945 43.433,37.986 54.847,54.752c8.826,12.963 12.935,22.007 21.584,47.501c5.408,15.942 8.066,23.21 9.091,24.871c1.602,2.588 4.974,5.051 7.862,5.74c0.76,0.181 15.306,0.522 32.324,0.759c28.53,0.396 31.074,0.486 32.586,1.148c0.904,0.395 1.958,1.201 2.344,1.79c1.68,2.563 2.249,10.206 1.025,13.781c-0.534,1.56 -0.99,2.142 -2.222,2.826l-1.55,0.863l-64.481,0.169c-49.772,0.13 -68.526,0.318 -82.22,0.819c-15.623,0.57 -39.486,0.661 -200.062,0.75c-100.277,0.054 -184.719,0.006 -187.647,-0.114z" /></svg>