<svg xmlns="http://www.w3.org/2000/svg" viewBox="0 0 1024 1024" width="1024" height="1024"><path d="M0,512c0,-282.77 229.23,-512 512,-512c282.77,0 512,229.23 512,512c0,282.77 -229.23,512 -512,512c-282.77,0 -512,-229.23 -512,-512zM96,512c0,229.75 186.25,416 416,416c229.75,0 416,-186.25 416,-416c0,-229.75 -186.25,-416 -416,-416c-229.75,0 -416,186.25 -416,416zM800,256c17.6,0 32,14.4 32,32v96c0,35.2 -28.8,64 -64,64h-128c-35.2,0 -64,-28.8 -64,-64h-128c0,35.2 -28.8,64 -64,64h-128c-35.2,0 -64,-28.8 -64,-64v-96c0,-17.6 14.4,-32 32,-32h192c17.6,0 32,14.4 32,32v32h128v-32c0,-17.6 14.4,-32 32,-32zM512,768c93.208,0 174.772,-49.818 219.546,-124.278l54.88,32.934c-55.966,93.07 -157.916,155.344 -274.426,155.344c-48.458,0 -94.384,-10.796 -135.54,-30.082l33.162,-55.278c31.354,13.714 65.964,21.36 102.378,21.36z" /></svg>