<svg xmlns="http://www.w3.org/2000/svg" viewBox="0 0 1024 1024" width="1024" height="1024"><path d="M1024,512c0,282.77 -229.23,512 -512,512c-282.774,0 -512,-229.23 -512,-512c0,-282.77 229.23,-512 512,-512c282.77,0 512,229.23 512,512zM786.424,676.656l-54.882,-32.934c-44.77,74.46 -126.334,124.278 -219.542,124.278c-36.414,0 -71.024,-7.646 -102.38,-21.358l-33.162,55.276c41.158,19.286 87.084,30.082 135.542,30.082c116.51,0 218.46,-62.274 274.424,-155.344zM832,288c0,-17.6 -14.4,-32 -32,-32h-192c-17.6,0 -32,14.4 -32,32v32h-128v-32c0,-17.6 -14.4,-32 -32,-32h-192c-17.6,0 -32,14.4 -32,32v96c0,35.2 28.8,64 64,64h128c35.2,0 64,-28.8 64,-64h128c0,35.2 28.8,64 64,64h128c35.2,0 64,-28.8 64,-64z" /></svg>