<svg xmlns="http://www.w3.org/2000/svg" viewBox="0 0 958 820" width="958" height="820"><path d="M416.6,45.3l-13.2,49.4l-154.6,-41.4c-20.778,-5.567 -41.432,6.422 -47,27.2l-149.1,556.302c-5.567,20.775 6.426,41.536 27.2,47.1l210.4,53.3l-12.6,49.6l-210.9,-53.4l-0.2,-0.102c-47.51,-12.725 -76.03,-62.195 -63.3,-109.7l149.1,-556.4c12.729,-47.506 62.195,-76.029 109.7,-63.3zM736.6,45.3l154.6,41.4c47.504,12.729 76.031,62.193 63.3,109.7l-149,556.4c-12.731,47.503 -62.294,76.022 -109.8,63.3l-309.1,-82.8c-47.51,-12.725 -76.029,-62.195 -63.3,-109.7l49.4,13.2c-5.567,20.775 6.426,41.536 27.2,47.1l309.1,82.8c20.784,5.566 41.432,-6.423 47,-27.2l149.1,-556.3c5.568,-20.776 -6.424,-41.533 -27.2,-47.1l-309.1,-82.8c-20.783,-5.568 -41.431,6.42 -47,27.2l-49.4,-13.3c12.73,-47.505 62.193,-76.028 109.7,-63.3zM686.1,359.9l-18.1,18.1l18.1,18.1l-188.2,188.2l-36.2,-36.2l144.5,-144.5h-350.7v-51.2h350.7l-144.5,-144.5l36.2,-36.2z" /></svg>