<svg xmlns="http://www.w3.org/2000/svg" viewBox="0 0 952 960" width="952" height="960"><path d="M484.92,376.035c9.004,4.503 11.112,-4.119 18.009,0c9.771,5.748 16.86,28.643 15.423,48.185c-1.532,20.117 -11.207,23.279 -13.794,47.227c-1.628,14.178 0.288,25.674 1.533,32.092c6.609,38.701 27.205,53.071 24.427,79.797c-0.287,2.012 -0.479,2.012 -13.315,40.713c-1.053,2.97 -3.352,9.867 -7.855,15.806c0,0 -0.863,0.862 -1.533,1.916c-3.641,4.023 -28.93,28.642 -41.479,14.369c-5.173,-5.844 -2.012,-11.208 -7.951,-21.171c-9.388,-15.711 -20.979,-8.43 -26.152,-22.32c-3.353,-9.197 -1.436,-20.501 -0.766,-24.141c2.97,-16.956 11.687,-19.063 16.19,-32.953c4.12,-12.645 2.012,-26.343 -1.628,-47.035c-8.43,-49.909 -23.566,-58.052 -20.979,-85.162c1.437,-13.506 6.227,-23.086 13.603,-37.647c5.365,-10.346 11.591,-21.842 20.979,-23.566c1.725,-0.288 3.066,-0.288 4.503,0.191c9.866,3.257 13.124,9.867 20.787,13.699zM815.701,318.749c17.339,-19.063 38.317,-19.351 37.647,-25.098c-0.862,-7.951 -41.287,-16.285 -79.605,-5.173c-15.423,4.503 -15.997,7.76 -29.505,9.867c-20.692,2.97 -26.535,-4.215 -57.955,-3.64c-12.166,0.191 -15.614,1.342 -26.344,0.288c-13.028,-1.149 -23.566,-4.503 -30.559,-6.897c0.191,0.191 0.383,0.383 0.766,0.479c10.537,8.334 14.848,15.136 18.68,18.967c8.813,8.813 15.806,1.916 31.899,10.537c11.687,6.131 18.201,15.136 21.171,19.254c9.771,13.507 11.591,27.397 13.699,42.15c2.587,19.926 -1.054,23.087 1.916,36.114c3.257,15.423 11.591,28.068 21.554,38.317v-1.054c2.395,-38.51 36.881,-47.035 57.573,-90.047c10.921,-22.512 6.035,-29.984 19.063,-44.065zM598.055,733.349c-1.437,0.479 -3.352,0.191 -4.598,0.862c-12.454,6.418 -21.458,19.926 -34.965,24.427c-13.411,4.406 -27.11,7.185 -41.287,9.196c-13.89,2.299 -27.78,10.824 -42.341,10.824c-14.369,0 -28.93,-4.215 -42.82,-6.322c-14.273,-2.203 -26.535,-11.782 -39.946,-16.093c-15.614,-4.981 -26.152,-15.232 -34.678,-21.554c11.303,18.297 21.554,31.804 28.834,41c5.843,7.281 7.281,8.621 15.039,18.584c12.836,16.093 15.327,20.787 25.386,33.624c12.07,15.614 12.07,13.315 25.672,30.175c18.872,23.374 23.853,35.731 30.846,35.061c6.897,-0.766 4.503,-14.273 20.117,-34.774c7.281,-9.675 11.975,-11.782 16.668,-22.32c3.257,-7.088 3.257,-10.633 7.472,-17.051c4.119,-6.227 8.334,-7.76 15.232,-14.561c9.675,-9.292 17.147,-16.764 23.566,-23.757c17.339,-18.68 25.194,-34.007 31.804,-47.322zM146.671,336.472c17.339,31.612 11.782,44.928 28.642,79.414c4.694,9.579 12.454,23.757 25.29,39.755c4.024,-12.645 19.254,-22.703 23.278,-35.156c6.609,-20.212 10.442,-21.362 19.638,-36.307c8.813,-14.178 17.818,-28.738 33.432,-43.012c14.369,-13.22 23.087,-15.614 30.175,-28.93c4.885,-9.579 6.035,-18.775 6.227,-24.811c-13.028,2.203 -23.757,3.449 -31.229,4.311c-10.921,1.054 -15.423,1.245 -29.409,2.587c-15.327,1.437 -25.672,2.97 -29.313,3.352c-46.747,4.503 -91.771,-11.112 -98.381,1.342c-3.352,6.418 8.142,12.836 21.65,37.456zM677.277,507.656c0,-10.537 -9.675,-20.787 -11.303,-31.038c-1.533,-10.346 -2.873,-20.596 -6.035,-30.463c-3.161,-10.154 -7.088,-19.638 -11.591,-29.026c-4.694,-9.388 -4.024,-22.703 -9.963,-31.229c-6.035,-8.526 -12.932,-17.626 -20.117,-25.098c-7.281,-7.472 -23.182,-4.694 -31.325,-10.921c-8.334,-6.131 -14.752,-14.082 -23.948,-18.967c-9.005,-4.694 -16.477,-14.369 -26.248,-17.626c-9.484,-3.161 -20.117,-6.418 -30.175,-8.047c-9.867,-1.724 -20.787,-3.927 -31.229,-3.927c-10.346,0 -19.351,14.178 -29.313,15.711c-0.862,0.191 -1.724,0.191 -2.587,0.191c-8.142,0 -17.339,-5.173 -25.098,-5.173c-1.628,0 -3.161,0.191 -4.503,0.67c-9.771,3.352 -19.829,8.142 -28.642,12.836c-9.196,4.885 -17.051,12.645 -25.194,18.872c-8.334,6.131 -13.986,15.518 -21.171,22.895c-7.281,7.472 -8.621,18.967 -14.657,27.493c-5.939,8.43 -10.442,16.477 -15.136,25.769c-4.503,9.388 -10.729,16.86 -14.082,26.918c-3.066,9.867 -16.285,17.53 -17.818,27.972c-1.533,10.154 3.64,21.65 3.64,32.187c0,10.824 6.035,20.308 7.567,30.559c1.628,10.442 -2.873,22.033 0.191,31.899c3.161,10.058 11.975,17.53 16.668,26.918c4.693,9.388 7.855,19.063 13.89,27.589c5.939,8.43 7.088,21.65 14.369,29.122c7.088,7.472 21.171,7.088 29.505,13.124c8.142,6.322 18.201,7.855 27.205,12.741c9.1,4.694 15.997,13.124 25.672,16.477c9.579,3.066 18.584,10.25 28.642,11.782c9.867,1.724 20.5,4.694 30.846,4.694c10.442,0 20.5,-6.227 30.367,-7.855c10.25,-1.724 20.117,-3.832 29.696,-6.897c9.675,-3.352 16.093,-13.411 25.098,-18.105c9.1,-4.79 23.087,-0.862 31.229,-7.088c8.334,-6.035 17.914,-11.975 25.194,-19.254c7.088,-7.472 14.561,-15.902 20.596,-24.427c5.939,-8.526 4.406,-22.224 8.909,-31.612c4.694,-9.196 6.609,-19.063 9.675,-29.122c3.161,-9.867 1.916,-19.926 3.449,-30.463c1.628,-10.058 17.722,-19.254 17.722,-30.08zM874.518,352.948c-5.556,8.909 -10.058,13.89 -10.058,13.89c-8.526,10.058 -13.89,12.166 -21.554,21.554c-3.066,3.736 -6.418,8.621 -9.675,15.423c-8.334,16.477 -8.142,24.427 -19.254,45.215c-2.587,5.269 -4.885,8.717 -9.005,15.327c-8.334,12.836 -21.745,31.899 -41.671,55.273c-19.447,30.367 -32.283,56.423 -40.425,74.433c-6.706,15.232 -6.706,16.86 -35.061,91.101c-15.902,41.575 -20.979,54.412 -31.708,72.612c-9.484,16.381 -19.254,29.505 -29.984,44.257c-13.411,18.009 -22.416,30.175 -36.785,44.737c-8.813,9.196 -10.058,9.196 -27.205,25.672c-12.166,11.591 -20.5,20.117 -30.75,30.559c-15.039,15.614 -32.762,33.432 -55.848,56.998c-18.009,-18.872 -33.432,-33.241 -43.683,-42.82c-35.54,-32.762 -52.208,-42.82 -65.428,-69.547c-5.556,-11.112 -3.449,-11.112 -11.975,-29.505c-11.208,-24.811 -22.703,-41.958 -30.271,-53.549c-43.586,-64.757 -42.725,-56.519 -54.698,-78.264c-23.566,-43.204 -12.836,-49.909 -37.647,-88.131c-13.124,-19.926 -20.308,-24.427 -37.743,-53.358c-11.112,-18.201 -12.932,-25.194 -24.332,-38.892c-7.663,-9.005 -16.477,-18.009 -30.75,-34.102c-11.017,-12.549 -20.212,-23.469 -22.799,-26.631c-22.416,-27.493 -22.224,-57.573 -31.612,-89.951c-20.692,-71.175 -70.409,-92.154 -59.488,-110.834c7.663,-12.645 38.989,-10.921 101.829,-7.185c23.566,1.245 31.899,3.161 50.58,1.437c28.163,-2.395 37.36,-8.813 61.309,-11.303c26.535,-2.587 44.928,2.107 62.937,5.556c28.93,5.748 71.942,10.921 131.43,8.526c18.775,-5.077 48.472,-11.496 85.162,-13.22c43.97,-2.012 55.177,4.503 136.028,11.782c93.496,8.334 84.682,0 128.843,6.993c5.556,0.862 42.532,4.981 73.091,0.479c38.126,-5.652 47.514,-20.979 55.465,-14.561c14.561,11.782 -22.703,96.657 -37.264,120.031zM46.471,607.567c-0.383,-22.033 -1.245,-49.909 -3.832,-82.671c7.279,12.645 16.667,28.547 27.684,46.94c14.656,23.758 16.667,26.344 20.212,35.061c10.921,28.644 1.151,38.319 12.454,54.316c10.729,15.231 21.171,8.813 36.21,26.152c12.55,14.274 15.615,31.037 19.447,47.227c2.394,10.058 4.885,24.427 3.352,41.287c-0.957,-1.916 -1.915,-4.406 -3.352,-6.993c0,-0.191 -2.204,-4.885 -4.311,-9.196c-12.549,-24.81 -66.577,-37.838 -66.577,-37.838c-53.165,-12.74 -85.161,-8.238 -86.981,-16.764c-1.342,-7.472 22.032,-9.866 36.593,-31.899c8.238,-12.549 9.77,-25.385 9.1,-65.619zM835.34,723.769c-28.163,8.909 -49.334,22.895 -63.224,33.816c5.267,-13.794 14.273,-33.815 29.887,-54.986c20.979,-28.068 32.379,-29.122 43.012,-51.825c10.249,-22.033 1.533,-25.864 13.315,-67.822c5.555,-19.926 9.963,-34.677 21.745,-49.813c12.645,-15.902 27.685,-24.619 37.456,-28.93c-7.664,32.953 -9.58,61.021 -9.771,81.042c-0.096,39.659 -0.288,66.769 16.668,91.771c13.89,20.212 29.504,24.714 27.205,31.899c-3.928,13.124 -56.71,-3.545 -116.295,14.848zM637.043,145.84c-1.724,6.418 -20.692,6.227 -53.262,5.939c-44.737,-0.383 -78.551,-6.227 -85.641,-7.472c-50.483,-8.813 -48.951,-14.369 -81.521,-19.447c-68.014,-10.058 -116.391,8.142 -118.306,0.862c-1.628,-6.227 32.092,-21.171 53.262,-29.122c46.652,-17.339 60.159,-10.729 76.061,-26.056c26.726,-25.29 11.687,-64.47 27.493,-70.026c17.339,-6.035 35.156,41.479 90.526,85.641c48.855,39.276 94.357,49.43 91.388,59.68z" /></svg>