<svg xmlns="http://www.w3.org/2000/svg" viewBox="0 0 864 864" width="864" height="864"><path d="M364.679,331.005c-13.5,22.068 -41.471,55.257 -23.902,85.353c5.219,8.856 24.192,21.821 39.778,28.26c6.337,2.705 -1.654,8.176 11.124,6.052c8.422,1.409 15.048,5.623 0.287,6.338c-171.968,6.875 -144.572,-109.546 -27.288,-125.996z" /> <path d="M464.646,452.509c2.951,2.378 1.836,3.387 -6.445,3.531c-54.862,1.019 -126.429,-42.91 -70.881,-110.264c1.547,5.511 2.519,10.259 3.097,14.614c-2.666,12.096 1.547,16.883 7.02,23.078c3.961,2.806 4.211,0.101 5.365,-3.387c6.73,-15.586 16.739,-48.239 0.142,-70.305c9.97,0.408 42.442,28.546 50.615,39.238c8.566,9.286 17.137,15.335 9.431,57.237c-14.653,26.567 -6.622,34.451 1.655,46.258z" /> <path d="M472.962,430.153c9.828,-17.315 19.115,-20.52 23.902,-27.289c3.097,0.817 9.828,-16.739 11.664,-22.355c6.911,-13.21 -14.761,-35.026 -33.73,-39.67c-4.355,0.101 -6.911,-1.019 -9.146,-2.378c-4.787,-1.112 -8.315,-0.305 -8.026,-1.694c0.287,-2.806 8.566,-5.326 13.357,-5.612c3.671,-1.837 6.337,-2.378 21.383,-1.409c5.076,-2.124 6.622,-1.837 8.281,-1.694l0.428,-9.429c84.669,-2.091 69.191,59.074 33.479,82.15c-19.007,13.068 -37.548,27.107 -61.594,29.375z" /> <path d="M304.201,216.535c-1.655,5.224 -3.491,9.429 -5.326,10.981c-0.142,4.356 0.287,8.858 -1.978,12.385c-1.693,3.634 -4.355,5.042 -8.281,2.091l-30.671,-4.215c-8.424,0.408 -3.922,-8.714 -4.502,-14.039c21.241,-77.361 32.075,-126.572 54.142,-197.454c5.906,1.266 4.069,0 7.741,2.265c-0.142,-3.093 -1.693,-16.882 -0.725,-22.356c0.725,-4.929 2.843,-11.844 8.998,1.797c32.939,73.295 82.293,131.073 108.86,146.948c-8.713,1.296 -23.47,-1.95 -3.097,10.692c60.19,41.506 133.159,110.696 165.919,149.071c8.173,5.326 -6.048,12.385 -15.443,16.165c-53.602,-41.761 -116.744,-80.565 -166.098,-118.688c1.404,5.652 3.529,11.266 7.054,16.882c-41.074,-17.028 -35.855,-20.952 -54.574,-32.471c-4.502,-8.317 -4.787,0.511 -2.233,4.072c-1.547,6.878 0.828,11.521 2.951,16.308c-12.238,-7.592 -24.191,-15.625 -34.2,-26.135c-19.115,-15.624 -16.307,-3.246 -20.087,2.949c-2.951,10.548 -7.452,13.21 -8.458,22.752z" /> <path d="M461.551,489.333c31.391,-37.655 68.361,-72.538 107.996,-106.16c22.105,-16.99 44.317,-33.876 65.411,-56.806c2.086,-7.158 6.19,-11.81 11.374,-14.903c4.359,-8.03 18,-19.401 12.385,-23.616c-9.971,1.409 -19.98,0 -29.95,0c-2.233,2.245 -5.906,2.041 -9.72,1.837c-9.681,-0.575 -19.509,0.54 -27.682,-12.239c-1.119,-0.722 -2.268,-1.263 -2.666,-3.815c9.141,0.582 13.785,-0.295 17.854,-1.112c4.787,-1.57 9.685,-2.489 14.472,-1.978c2.951,-0.257 2.951,-1.256 1.547,-2.665c-2.086,-0.297 -3.386,-0.795 -4.355,-1.409c-3.525,-4.214 -2.12,-5.571 1.262,-5.47c4.069,0 3.529,-0.581 5.365,-1.837c33.729,-3.24 67.894,-8.426 102.488,-16.018c1.98,-0.141 3.814,-0.438 2.267,-3.387c-2.124,-3.531 0.825,-3.928 3.491,-4.643c68.217,-11.952 110.949,-34.409 130.928,-34.308c-69.478,64.689 -143.131,128.661 -235.252,189.283c-56.518,39.634 -108.14,75.921 -141.727,109.94c-16.056,20.555 -42.192,5.218 -25.487,-10.692z" /> <path d="M505.721,301.403c-23.327,-0.289 -229.349,3.383 -344.509,-34.019c-7.451,-2.265 -12.096,0.397 -1.836,3.928c3.24,0.432 -1.261,-0.577 49.786,17.421c2.657,0.581 4.211,1.409 2.086,3.674c-3.638,1.019 -7.595,0.817 -11.664,0c-6.73,-1.399 -13.068,-3.563 -21.094,-2.949c-6.588,-0.304 -13.356,-0.405 -20.951,-1.019c-9.685,-1.663 -10.117,1.152 -1.693,4.245c2.41,2.519 4.786,4.235 7.451,4.643c-2.234,2.328 -9.003,3.297 -21.349,0.204c-7.594,-0.398 -14.653,-2.806 -21.815,-5.184c26.712,25.164 49.354,55.977 84.094,70.306c6.769,8.57 10.404,17.282 10.117,25.885c-0.824,10.117 -2.808,18.149 -5.326,26.567c-91.113,-54.573 -166.927,-130.352 -205.733,-234.568c-7.884,-13.898 0,-16.592 6.337,-9.97c143.276,83.661 354.374,90.717 449.123,101.265c24.191,-2.846 37.834,15.876 46.978,29.518z" /> <path d="M275.651,863.998c-30.779,-25.055 -85.892,-131.503 -82.401,-224.308c3.093,2.808 7.054,25.056 11.806,32.904c2.56,14.365 7.058,12.244 3.529,-2.949c-14.04,-125.708 11.124,-242.128 28.546,-364.885c4.066,-0.572 28.257,-0.285 42.478,5.908c-19.258,70.305 -18.001,183.341 -1.404,279.242c-0.722,2.247 -2.126,8.89 -5.906,2.552c-2.125,-3.813 -5.762,-2.804 -2.125,8.571l2.125,9.572c2.233,5.154 5.763,4.726 8.281,0.511c0.721,-2.951 12.096,-12.925 14.363,-17.854c8.856,-19.261 36.11,-44.567 52.452,-67.787c5.616,-0.397 6.446,-6.724 10.26,-1.653c9.396,15.443 58.065,37.261 50.47,42.731c-44.135,55.979 -122.325,142.88 -120.092,253.828c-2.95,-0.865 -12.238,-12.386 -17.711,-22.645c-9.97,-16.018 -10.259,-6.337 -6.622,5.184c4.644,21.238 12.962,47.123 11.953,61.054z" /> <path d="M864.021,696.906c-226.684,-39.238 -543.618,-196.588 -578.358,-225.82c-3.814,-6.339 -10.549,-6.053 -5.076,-15.625c-0.54,-7.306 4.787,-4.55 7.884,-3.531c75.239,29.699 150.044,63.14 233.561,82.005l-7.02,-9.144c4.211,0.294 4.354,-1.981 13.931,1.55c14.182,5.763 23.759,9.681 46.114,11.375c-3.814,-1.407 -6.192,-3.631 -7.02,-7.162c30.059,5.076 56.375,2.518 91.941,18.286c32.904,16.74 17.569,-2.665 9.288,-16.74l-51.334,-114.62c12.96,-12.493 25.881,-18.829 38.806,-24.299c75.958,71.134 141.33,173.514 207.281,303.723z" /></svg>