<svg xmlns="http://www.w3.org/2000/svg" viewBox="0 0 938 960" width="938" height="960"><path d="M669.543,490.298c0,-12.127 -1.147,-23.99 -3.263,-35.5c0.264,-0.264 0.529,-0.574 0.794,-0.838c-1.367,-22.491 -7.585,-62.136 -36.073,-97.327c-51.244,-63.327 -134.547,-62.842 -157.832,-62.709c-39.91,0.22 -71.706,10.761 -91.285,19.051c53.977,-2.69 147.469,0.926 192.846,58.564c2.778,3.484 31.839,40.925 21.741,53.317c-8.158,10.011 -37.705,-1.587 -43.835,-4.057c18.213,11.377 39.954,26.724 36.999,34.75c-1.941,5.292 -13.891,5.292 -18.301,5.424c-26.636,0.75 -104.736,6.615 -215.779,15.523c109.587,9.305 164.359,18.389 164.315,27.165c-0.044,5.733 -23.725,11.377 -71.132,16.934c63.327,6.174 95.167,13.627 95.519,22.358c0.264,6.307 -16.008,13.318 -48.774,20.992c15.479,4.983 31.972,9.79 49.435,14.244c15.743,3.969 30.958,7.365 45.467,10.187c-3.66,6.262 -10.055,15.655 -20.374,24.343c-18.919,15.92 -39.469,19.845 -59.622,23.725c-8.246,1.587 -25.357,4.322 -47.451,3.396c-10.717,-0.485 -31.399,-2.161 -56.888,-10.187c-65.047,-20.462 -114.217,-67.384 -115.144,-66.237c-1.367,1.587 73.822,123.258 182.263,123.258c108.441,0 196.374,-87.934 196.374,-196.374zM906.4,508.115c-57.109,5.909 -114.173,11.863 -171.238,17.816c0,0.97 0,0.574 0.044,1.543c39.954,1.72 79.908,3.484 119.862,5.204c-31.178,6.262 -62.401,12.524 -93.579,18.787c-19.801,3.969 -36.161,17.64 -44.099,36.205c-23.197,54.11 -63.327,99.224 -113.777,128.638c-70.515,37.926 -157.832,46.084 -238.754,11.069c-64.826,-27.695 -111.439,-77.703 -136.884,-136.09c-8.29,-19.007 -25.092,-32.898 -45.467,-36.559c-47.01,-8.423 -94.064,-16.802 -141.074,-25.225c37.043,-2.381 74.131,-4.807 111.174,-7.188c-48.024,-11.289 -96.093,-22.579 -144.117,-33.912c56.756,-5.821 113.512,-11.642 170.268,-17.464c-22.799,-4.102 -45.555,-8.158 -68.31,-12.216c17.508,-1.147 35.015,-2.293 52.567,-3.44c-44.187,-9.526 -88.331,-19.051 -132.474,-28.621c52.258,-3.792 104.559,-7.585 156.862,-11.377c-43.306,-3.572 -86.655,-7.188 -129.961,-10.761c47.186,-7.585 94.328,-15.127 141.515,-22.711c17.86,-2.823 33.383,-13.582 42.688,-29.106c11.51,-19.227 25.886,-37.396 43.306,-53.933c125.683,-121.847 327.967,-86.391 416.21,43.13c3.307,5.557 6.395,11.245 9.305,17.066c8.952,17.904 26.151,30.208 45.952,32.986c36.603,5.072 73.205,10.143 109.763,15.215l-110.822,11.554c48.509,9.481 96.975,19.007 145.484,28.532c-53.977,7.673 -107.911,15.347 -161.844,23.02c0,1.102 0,0.75 -0.044,1.897c20.374,2.778 40.703,5.601 61.078,8.423c-17.464,1.852 -34.971,3.66 -52.434,5.468c52.919,7.365 105.883,14.685 158.802,22.05zM783.713,605.087c53.404,-6.835 104.736,-15.126 153.951,-24.475c-46.26,216.793 -238.798,379.387 -469.35,379.387c-222.834,0 -410.124,-151.834 -464.234,-357.69c51.817,6.615 103.634,13.23 155.451,19.845c1.676,3.616 3.484,7.144 5.292,10.672c-17.375,1.72 -34.705,3.44 -52.081,5.16c19.316,1.941 38.632,3.88 57.947,5.821c4.233,7.497 8.775,14.818 13.582,22.006c-30.605,5.645 -61.166,11.333 -91.771,16.978c43.879,10.539 87.802,21.08 131.681,31.663c31.134,31.222 69.588,57.418 115.584,75.851c106.941,42.866 216.175,24.696 300.405,-31.839c56.007,-13.45 111.969,-26.901 167.975,-40.351c-33.647,-6.218 -67.295,-12.48 -100.987,-18.698c5.38,-6.217 10.496,-12.612 15.435,-19.183c22.667,-2.293 45.335,-4.586 68.046,-6.879c-19.668,-1.941 -39.336,-3.88 -59.005,-5.777c8.071,-11.862 15.347,-24.342 21.874,-37.264c38.279,-4.895 76.601,-9.79 114.879,-14.685c-28.224,-3.483 -56.448,-7.011 -84.671,-10.539zM104.234,330.526c-31.928,2.073 -63.415,4.454 -94.417,7.056c60.681,-195.536 242.988,-337.58 458.501,-337.58c218.512,0 402.759,146.058 460.838,345.828c-54.682,-5.556 -110.822,-10.407 -168.459,-14.332c-1.103,-2.425 -2.249,-4.851 -3.396,-7.232c12.392,-2.205 24.784,-4.41 37.176,-6.615c-14.774,-2.557 -29.547,-5.116 -44.32,-7.673c-6.086,-11.51 -12.745,-22.58 -20.021,-33.207c39.248,-4.058 78.453,-8.158 117.701,-12.26c-47.451,-6.571 -94.902,-13.142 -142.353,-19.713c-10.143,-11.642 -20.991,-22.49 -32.545,-32.545c17.772,-3.043 35.5,-6.085 53.228,-9.128c-27.651,-4.719 -55.256,-9.438 -82.863,-14.156c-85.2,-59.049 -197.256,-78.012 -308.784,-31.928c-11.862,5.071 -23.019,10.849 -33.824,16.89c-51.156,8.687 -102.266,17.419 -153.378,26.107c31.133,5.335 62.224,10.716 93.314,16.052c-12.788,11.289 -24.563,23.373 -35.235,36.161c-30.164,4.19 -60.372,8.378 -90.536,12.568c24.96,2.602 49.921,5.204 74.881,7.806c-4.762,6.703 -9.26,13.539 -13.494,20.506c-47.672,8.291 -95.343,16.538 -143.015,24.784c23.682,4.234 47.319,8.422 71,12.612zM3.819,601.253c-1.279,-4.851 -2.381,-9.79 -3.484,-14.685c17.022,2.999 34.177,5.953 51.684,8.688c-16.096,1.985 -32.149,3.969 -48.201,5.997z" /></svg>