<svg xmlns="http://www.w3.org/2000/svg" viewBox="0 0 578 917" width="578" height="917"><path d="M390.246,399.132c0.256,2.421 5.889,4.914 7.966,6.058c0.933,0.434 1.736,0.98 2.585,1.524c-2.673,-1.73 -8.007,-8.239 -10.551,-7.583zM458.058,468.685c-1.314,-0.512 -1.485,-1.337 -2.544,-1.993c-2.883,-1.734 -6.273,-2.113 -9.449,-3.432c-8.555,-3.683 -16.352,-9.318 -24.149,-14.232c-3.94,-2.505 -7.791,-5.338 -11.818,-7.713c-2.288,-1.361 -4.832,-1.994 -6.991,-3.607c-2.2,-1.657 -3.724,-3.86 -6.099,-5.341c-6.478,-4.024 -13.259,-9.07 -18.978,-14.278c-4.786,-4.367 -8.771,-9.322 -13.685,-13.561c-3.602,-3.126 -7.628,-6.352 -10.634,-10.079c-1.866,-2.246 -4.195,-4.107 -5.975,-6.31c-1.483,-1.788 -1.694,-3.354 -2.965,-5.425c-1.23,-1.994 -3.262,-3.06 -4.703,-4.836c-2.416,-3.095 -4.028,-6.864 -6.525,-9.917c-1.569,-1.909 -5.299,-4.329 -4.872,-6.78c2.877,-0.29 4.236,1.246 6.904,1.571c2.667,0.434 5.678,0 8.346,0c8.218,0 16.902,0.844 25.037,0.079c3.601,-0.391 7.073,-1.927 10.464,-2.8c4.704,-1.198 9.997,0.217 14.829,-0.217c3.263,-0.26 6.31,-1.439 9.531,-1.656c2.375,-0.217 4.79,0.433 7.119,0.108c4.318,-0.554 8.007,-3.029 12.413,-3.137c3.77,-0.132 5.592,0.042 9.192,-1.439c1.996,-0.804 3.858,-1.831 5.976,-2.375c3.897,-1.102 9.407,-1.854 13.516,-2.288c6.396,-0.554 11.1,0.295 17.368,-1.993c3.641,-1.361 8.303,-1.613 11.438,-3.901c2.713,-1.949 5.509,-3.559 8.263,-5.468c0.594,-0.458 1.184,-0.895 1.738,-1.439c4.575,-0.329 9.151,-0.439 14.106,-0.873c4.576,-0.385 8.731,-2.728 13.178,-3.053c-3.554,3.348 -4.19,8.435 -8.217,11.398c-6.781,4.908 -16.86,8.562 -24.786,11.055c-7.453,2.33 -15.166,5.383 -22.749,6.527c-2.837,0.421 -8.135,-0.765 -5.55,4.443c1.529,3.138 7.288,4.805 10.381,5.678c4.196,1.187 8.007,2.668 12.203,3.77c3.6,0.939 5.805,2.848 8.981,4.709c-3.262,0.678 -9.537,-1.502 -13.178,-2.375c-4.234,-1.012 -9.233,-2.649 -14.106,-2.757c-9.11,-0.217 -18.261,0.108 -27.412,0c-10.884,-0.133 -22.451,3.649 -31.561,9.152c-6.652,4.023 -4.447,8.052 1.611,11.736c11.019,6.78 25.083,4.792 37.794,4.871c3.94,0.047 6.864,-1.307 10.593,-1.524c3.771,-0.251 6.397,-0.716 9.916,-1.481c4.999,-1.186 9.615,-2.246 14.278,-4.576c2.119,-1.011 4.493,-1.734 6.484,-2.92c2.033,-1.186 3.601,-3.857 5.381,-4.401c-1.144,4.234 -3.771,9.31 -5.422,13.766c-0.894,2.288 -2.084,3.974 -3.053,5.925c-1.017,2.113 -1.227,4.828 -2.668,6.689c-2.16,2.897 -5.042,1.482 -8.007,2.463c-2.416,0.764 -4.069,2.256 -6.566,2.8c-5.125,0.969 -12.834,0.439 -18.005,-0.217c-3.007,-0.458 -5.55,-1.331 -8.644,-1.439c-2.585,-0.028 -5.381,0.405 -7.966,0.08c-4.318,-0.513 -9.408,-1.529 -13.557,-3.053c-4.491,-1.65 -9.025,-3.143 -13.134,-5.636c1.693,1.054 3.35,2.09 5.212,2.963c3.683,1.686 6.905,4.281 10.634,6.1c3.18,1.523 6.145,2.668 9.407,4.871c9.151,6.229 18.221,11.986 26.438,19.657c5.421,5.127 10.759,10.257 16.224,15.465c3.646,3.48 6.782,5.136 11.229,6.66c2.206,0.716 5.894,1.776 6.484,4.064c-2.071,0.651 -4.109,0.181 -6.268,0.217c-2.247,0.044 -3.642,0.686 -5.719,1.23c-3.73,0.869 -7.879,0.289 -11.737,0.325c-0.888,0 -4.064,0.361 -4.956,0.036z" /> <path d="M426.004,682.568c0.716,6.778 0.337,13.6 0.337,20.422c0,13.597 0.764,27.202 -1.949,40.63c-1.011,5.129 -0.764,9.705 -0.969,14.913c-0.211,4.318 -1.519,8.467 -1.652,12.881c-0.507,17.072 -3.601,34.782 -9.361,50.964c-1.692,4.66 -3.557,8.856 -4.616,13.77c-0.682,3.052 -1.314,6.099 -2.544,8.977c-1.908,4.406 -4.236,8.098 -7.289,11.782c-2.586,3.011 -4.068,6.473 -6.315,9.742c-2.328,3.384 -4.575,6.816 -6.863,10.164c-2.369,3.385 -5.211,3.607 -8.176,6.1c-1.95,1.687 -2.631,3.343 -4.663,4.914c-2.242,1.692 -4.108,3.727 -6.099,5.678l31.776,-18.136c-19.574,14.365 -40.589,29.533 -63.508,38.685c-12.88,5.19 -26.817,0.692 -40.036,0.656c5.299,0.127 10.085,-1.354 15.297,-1.571c5.97,-0.163 12.156,0.891 17.199,-3.095c3.641,-2.872 6.354,-6.569 10.166,-9.357c5.001,-3.595 9.407,-7.293 14.66,-10.592c2.545,-1.571 6.186,-5.677 2.118,-8.477c-1.441,-1.023 -6.31,-0.138 -7.54,0.079c-6.951,1.349 -22.71,7.496 -27.202,-1.439c4.067,-1.307 8.304,-1.644 12.372,-2.963c2.539,-0.849 4.615,-1.885 7.412,-1.993c6.653,-0.337 11.695,0.338 18.05,-2.113c2.166,-0.849 5.808,-2.451 7.459,-3.812c2.294,-1.861 1.825,-1.699 2.884,-4.914c0.934,-2.8 2.032,-4.742 3.77,-7.117c3.176,-4.324 4.193,-7.039 4.279,-12.332c0.169,-6.937 -1.908,-8.375 -7.966,-10.796c-2.925,-1.144 -5.381,-2.379 -7.669,-4.534c-2.118,-1.94 -4.406,-5.799 -7.074,-6.985c-5.929,-2.58 -9.449,3.791 -14.532,4.664c-5.503,0.933 -12.793,-2.716 -17.199,-5.636c-2.288,-1.567 -4.576,-4.703 -7.289,-5.468c3.642,1.012 7.541,-0.437 11.141,-0.981c4.197,-0.65 8.475,-0.325 12.712,-0.325c4.744,0 9.11,0.259 13.685,-1.102c3.134,-0.891 5.381,-2.029 8.643,-1.993c5.55,0.084 9.57,4.87 12.454,9.194c1.4,2.16 5.124,5.81 4.534,8.598c-0.467,-3.728 2.333,-5.971 2.965,-9.49c0.807,-4.699 0,-10.714 0.175,-15.465c0.59,-16.229 1.951,-32.624 1.482,-48.893c-0.129,-4.239 0.804,-15.932 -3.135,-18.81c-2.117,2.125 -1.99,7.629 -2.544,10.386c-1.144,5.422 -2.586,10.677 -3.303,16.145c-1.144,8.722 -3.175,17.285 -5.124,25.84c-2.364,-1.319 -0.925,-6.689 -1.011,-9.152c-0.168,-4.322 -1.487,-8.309 -1.692,-12.668c-0.17,-3.852 2.796,-28.051 -2.585,-29.912c-2.203,13.768 -7.879,27.452 -13.219,40.462c-1.95,4.71 -4.109,13.555 -9.49,15.506c-0.251,-1.861 -1.355,-3.39 -1.692,-5.251c-0.721,-3.85 0,-8.047 -0.252,-11.991c-0.426,-6.312 -0.889,-12.974 -1.738,-19.194c-0.297,-2.156 -0.596,-5.456 -2.288,-7.027c-1.821,2.289 -2.628,7.497 -3.303,9.872c-1.523,5.337 -3.176,10.63 -4.447,16.013c-1.525,6.649 -1.097,12.283 -1.862,18.81c-0.338,2.877 -0.508,5.678 -2.626,7.833c-1.349,-2.42 -0.247,-7.671 -0.205,-10.386c0,-4.872 -0.556,-7.54 -1.909,-12.543c-3.769,-14.238 -2.078,-29.11 -5.719,-43.345c0.427,2.343 -0.588,4.547 -1.353,6.66c-1.908,5.261 -3.095,10.259 -3.77,15.762c-0.847,6.615 -1.314,13.271 -2.417,19.829c-0.423,2.552 -0.888,8.447 -2.626,10.898c-0.934,-2.673 -1.865,-5.384 -2.714,-8.141c0,3.052 0,6.057 0,9.11c-0.036,-3.817 -0.253,-7.454 -0.59,-11.061c-1.99,-6.527 -3.648,-13.182 -4.365,-19.829c-0.162,-1.481 -0.204,-2.842 -0.337,-4.281c-1.102,-4.873 -2.416,-11.485 -5.637,-15.169c-3.222,3.688 -4.534,10.298 -5.678,15.169c-0.09,1.439 -0.162,2.8 -0.295,4.281c-0.724,6.651 -2.375,13.302 -4.365,19.829c-0.337,3.607 -0.591,7.249 -0.632,11.061c0,-3.052 0.041,-6.057 0.041,-9.11c-0.893,2.758 -1.786,5.473 -2.755,8.141c-1.736,-2.463 -2.158,-8.351 -2.585,-10.898c-1.105,-6.569 -1.568,-13.217 -2.417,-19.829c-0.676,-5.508 -1.861,-10.511 -3.77,-15.762c-0.763,-2.126 -1.78,-4.33 -1.353,-6.66c-3.642,14.24 -1.949,29.112 -5.719,43.345c-1.355,5.004 -1.909,7.672 -1.909,12.543c0.047,2.715 1.148,7.965 -0.205,10.386c-2.157,-2.155 -2.289,-4.955 -2.626,-7.833c-0.806,-6.523 -0.339,-12.15 -1.909,-18.81c-1.23,-5.379 -2.882,-10.672 -4.406,-16.013c-0.677,-2.376 -1.482,-7.584 -3.303,-9.872c-1.698,1.559 -1.993,4.872 -2.288,7.027c-0.889,6.231 -1.311,12.884 -1.738,19.194c-0.252,3.941 0.465,8.132 -0.252,11.991c-0.339,1.861 -1.44,3.39 -1.692,5.251c-5.422,-1.95 -7.54,-10.797 -9.49,-15.506c-5.341,-13.01 -11.016,-26.695 -13.219,-40.462c-5.381,1.862 -2.451,26.053 -2.626,29.912c-0.17,4.364 -1.477,8.344 -1.652,12.668c-0.119,2.463 1.364,7.833 -1.011,9.152c-1.948,-8.554 -3.98,-17.113 -5.124,-25.84c-0.759,-5.469 -2.159,-10.72 -3.303,-16.145c-0.553,-2.757 -0.426,-8.273 -2.544,-10.386c-3.941,2.876 -3.001,14.571 -3.134,18.81c-0.468,16.27 0.887,32.669 1.441,48.893c0.205,4.754 -0.644,10.768 0.205,15.465c0.636,3.517 3.434,5.763 2.965,9.49c-0.589,-2.789 3.094,-6.443 4.535,-8.598c2.876,-4.323 6.904,-9.114 12.454,-9.194c3.262,-0.043 5.509,1.12 8.602,1.993c4.617,1.319 8.983,1.102 13.727,1.102c4.237,0 8.516,-0.331 12.712,0.325c3.558,0.547 7.5,1.962 11.141,0.981c-2.715,0.729 -5.002,3.897 -7.331,5.468c-4.365,2.921 -11.693,6.617 -17.158,5.636c-5.082,-0.894 -8.601,-7.247 -14.531,-4.664c-2.668,1.176 -4.997,5.034 -7.074,6.985c-2.287,2.159 -4.745,3.39 -7.669,4.534c-6.057,2.408 -8.14,3.853 -8.007,10.796c0.125,5.293 1.145,8.015 4.321,12.332c1.738,2.366 2.831,4.317 3.77,7.117c1.062,3.216 0.595,3.053 2.883,4.914c1.652,1.361 5.3,2.939 7.459,3.812c6.314,2.438 11.398,1.788 18.051,2.113c2.795,0.174 4.868,1.12 7.412,1.993c4.026,1.307 8.304,1.644 12.372,2.963c-4.534,8.935 -20.298,2.788 -27.202,1.439c-1.225,-0.187 -6.099,-1.06 -7.54,-0.079c-4.069,2.799 -0.426,6.906 2.118,8.477c5.253,3.301 9.659,6.985 14.66,10.592c3.81,2.788 6.525,6.479 10.125,9.357c5.084,3.968 11.27,2.987 17.2,3.095c5.253,0.21 10.043,1.679 15.337,1.571c-13.219,0 -27.155,4.51 -40.036,-0.656c-22.918,-9.152 -43.933,-24.319 -63.508,-38.685l31.778,18.136c-2.031,-1.951 -3.852,-3.98 -6.099,-5.678c-2.037,-1.566 -2.713,-3.216 -4.663,-4.914c-2.964,-2.493 -5.801,-2.71 -8.176,-6.1c-2.287,-3.342 -4.534,-6.774 -6.863,-10.164c-2.247,-3.257 -3.771,-6.737 -6.315,-9.742c-3.052,-3.684 -5.38,-7.368 -7.289,-11.782c-1.273,-2.877 -1.869,-5.924 -2.544,-8.977c-1.058,-4.913 -2.925,-9.106 -4.617,-13.77c-5.761,-16.182 -8.892,-33.887 -9.361,-50.964c-0.127,-4.404 -1.446,-8.564 -1.651,-12.881c-0.204,-5.213 0.048,-9.783 -1.011,-14.913c-2.716,-13.428 -1.909,-27.031 -1.909,-40.63c0,-6.824 -0.38,-13.642 0.337,-20.422c0.891,-8.303 0.764,-16.912 2.585,-25.083c2.92,-12.879 3.983,-26.519 7.583,-39.232c6.694,-23.722 12.88,-47.064 22.37,-69.861c4.488,-10.723 6.776,-22.286 12.413,-32.582c3.431,-6.271 6.098,-12.412 8.981,-18.939c3.048,-6.905 8.813,-12.036 11.989,-18.979c3.645,-7.837 9.196,-15.132 12.372,-22.965c1.482,-3.607 3.304,-6.232 6.058,-9.152c1.313,-1.408 4.956,-6.574 7.412,-5.809c-2.881,7.242 -7.669,15.162 -11.608,22.201c-6.104,10.847 -12.583,21.313 -17.584,32.752c-2.287,5.208 -3.898,10.931 -5.719,16.224c-0.851,2.638 -3.31,4.372 -4.027,6.997c-0.457,1.615 -0.59,3.343 -0.969,4.914c-0.976,3.987 -2.247,7.84 -2.288,12.037c0,1.349 0.381,3.222 0.086,4.618c-0.42,1.788 -2.497,2.084 -1.312,4.239c2.373,-0.589 3.006,-2.746 4.576,-4.359c2.037,-2.022 4.026,-3.432 5.976,-5.587c2.754,-3.047 6.781,-5.119 10.213,-7.244c3.514,-2.156 6.018,-4.704 9.998,-6.1c6.011,-2.083 10.802,-6.346 17.368,-6.78c3.981,-0.249 7.581,-0.905 11.48,-1.23c-2.585,0.806 -4.874,2.715 -7.371,3.901c-4.15,1.946 -8.095,4.108 -12.075,6.438c-4.913,2.92 -9.576,6.317 -13.388,10.676c-1.231,1.397 -2.334,3.053 -3.519,4.534c-1.692,2.169 -4.406,3.817 -5.93,5.853c-3.984,5.335 -8.684,11.818 -11.567,18.345c-2.498,5.72 -4.155,12.2 -7.161,18.095c-1.657,3.091 -1.355,5.547 -2.247,8.727c-0.216,0.723 -0.89,2.475 -1.185,3.348c-0.465,1.437 -0.97,2.493 -1.524,3.812c-0.632,1.614 -1.272,1.572 -1.524,3.727c-0.211,1.439 0.041,3.095 0.041,4.576v9.068c0,3.733 0,7.502 0,11.229c-0.041,4.03 1.016,6.526 1.57,10.296c0.338,2.041 -0.26,3.642 0.252,5.678c0.467,1.993 1.571,4.576 2.288,6.485c1.739,4.619 5.718,7.33 6.525,12.452c-0.426,-7.118 -1.143,-14.155 -1.57,-21.224c-0.251,-4.195 -1.819,-8.523 -2.626,-12.672c0.893,3.982 2.755,8.088 4.196,11.653c2.288,5.888 2.877,12.453 6.735,17.583c2.368,3.136 5.036,6.099 7.411,9.194c2.289,2.962 5.04,9.194 9.872,8.213c1.949,-7.244 -6.187,-16.995 -8.305,-23.553c-1.184,-3.636 -2.12,-6.948 -2.795,-10.338c1.95,6.311 6.316,12.672 9.578,17.327c2.207,3.096 4.115,6.058 5.807,9.448c1.313,2.636 2.035,6.103 4.703,7.333c1.483,-3.257 -1.226,-7.66 -2.329,-10.417c-2.545,-6.312 -4.156,-13.052 -6.315,-19.49c-2.033,-6.18 -1.697,-11.946 -1.738,-18.341c-0.342,12.33 4.407,21.948 7.583,33.596c1.395,5.172 1.989,7.333 6.059,10.513c1.949,1.523 3.852,4.564 5.761,5.545c1.185,-2.288 -0.64,-7.292 -0.892,-9.285c-0.512,-4.23 -0.632,-8.559 -1.144,-12.84c-0.892,-7.713 -0.758,-15.335 -0.717,-23.091c-0.25,8.563 1.739,17.032 3.391,25.42c1.226,6.236 3.047,13.733 6.438,19.026c3.391,5.382 4.493,12.927 9.787,16.739c2.163,1.523 4.748,2.492 6.61,4.443c1.353,1.396 1.733,3.299 3.303,4.576v-4.781c-1.395,-4.698 -2.326,-9.448 -2.795,-14.319c-1.263,-10.637 -1.011,-21.227 -1.011,-31.861c0,-7.161 0.092,-13.898 1.103,-21.015c0.292,-2.292 0.338,-10.847 3.006,-12.371c1.861,5.379 2.288,11.272 3.641,16.817c2.078,8.22 5.427,16.06 7.459,24.321c1.227,4.916 2.328,9.113 4.575,13.556c0.499,1.06 0.759,2.072 1.011,3.053c0.246,-1.017 0.499,-1.963 1.011,-3.053c2.246,-4.446 3.349,-8.642 4.534,-13.556c2.078,-8.263 5.427,-16.096 7.459,-24.321c1.394,-5.547 1.779,-11.434 3.641,-16.817c2.716,1.52 2.716,10.083 3.053,12.371c1.017,7.12 1.103,13.855 1.103,21.015c0,10.635 0.262,21.227 -1.011,31.861c-0.466,4.871 -1.393,9.622 -2.795,14.319c0,1.601 0,3.168 0,4.781c1.563,-1.277 1.948,-3.18 3.303,-4.576c1.866,-1.95 4.451,-2.919 6.61,-4.443c5.295,-3.816 6.396,-11.356 9.787,-16.739c3.345,-5.297 5.208,-12.794 6.438,-19.026c1.611,-8.389 3.643,-16.857 3.391,-25.42c0.042,7.755 0.127,15.378 -0.765,23.091c-0.471,4.277 -0.591,8.601 -1.103,12.84c-0.26,1.994 -2.077,6.997 -0.892,9.285c1.903,-0.927 3.769,-4.021 5.76,-5.545c4.067,-3.18 4.658,-5.347 6.058,-10.513c3.177,-11.649 7.92,-21.266 7.583,-33.596c-0.042,6.396 0.297,12.152 -1.78,18.341c-2.118,6.439 -3.724,13.168 -6.268,19.49c-1.099,2.746 -3.811,7.16 -2.329,10.417c2.626,-1.233 3.391,-4.708 4.703,-7.333c1.692,-3.39 3.601,-6.353 5.76,-9.448c3.263,-4.655 7.669,-11.017 9.578,-17.327c-0.636,3.341 -1.569,6.701 -2.754,10.338c-2.118,6.564 -10.295,16.309 -8.305,23.553c4.826,0.981 7.581,-5.25 9.828,-8.213c2.416,-3.094 5.084,-6.057 7.459,-9.194c3.851,-5.131 4.405,-11.7 6.734,-17.583c1.443,-3.555 3.305,-7.667 4.197,-11.653c-0.805,4.164 -2.374,8.475 -2.626,12.672c-0.467,7.073 -1.142,14.107 -1.611,21.224c0.847,-5.119 4.828,-7.834 6.566,-12.452c0.718,-1.909 1.819,-4.492 2.288,-6.485c0.5,-2.041 -0.09,-3.642 0.205,-5.678c0.6,-3.769 1.611,-6.274 1.611,-10.296c0,-3.733 0,-7.502 0,-11.229c0,-3.052 0,-6.063 0,-9.068c0,-1.481 0.217,-3.137 0.042,-4.576c-0.258,-2.156 -0.895,-2.114 -1.57,-3.727c-0.513,-1.319 -1.013,-2.373 -1.482,-3.812c-0.293,-0.897 -0.98,-2.583 -1.185,-3.348c-0.894,-3.182 -0.595,-5.632 -2.247,-8.727c-3.052,-5.893 -4.664,-12.375 -7.161,-18.095c-2.883,-6.522 -7.587,-13.004 -11.567,-18.345c-1.524,-2.041 -4.238,-3.686 -5.93,-5.853c-1.231,-1.481 -2.289,-3.138 -3.519,-4.534c-3.85,-4.354 -8.472,-7.756 -13.428,-10.676c-3.939,-2.331 -7.884,-4.487 -12.034,-6.438c-2.498,-1.186 -4.786,-3.136 -7.371,-3.901c3.855,0.357 7.499,1.013 11.438,1.23c6.607,0.428 11.392,4.709 17.368,6.78c4.026,1.403 6.524,3.945 10.043,6.1c3.432,2.122 7.412,4.191 10.166,7.244c1.996,2.155 3.944,3.551 5.976,5.587c1.61,1.602 2.241,3.815 4.616,4.359c1.185,-2.168 -0.885,-2.463 -1.312,-4.239c-0.341,-1.403 0.086,-3.269 0.086,-4.618c-0.041,-4.191 -1.319,-8.051 -2.288,-12.037c-0.379,-1.566 -0.5,-3.301 -0.969,-4.914c-0.72,-2.626 -3.176,-4.372 -4.068,-6.997c-1.78,-5.297 -3.391,-11.016 -5.679,-16.224c-5.001,-11.44 -11.485,-21.908 -17.584,-32.752c-3.98,-7.034 -8.725,-14.959 -11.608,-22.203c2.457,-0.718 6.098,4.413 7.412,5.809c2.755,2.92 4.576,5.545 6.058,9.152c3.18,7.837 8.731,15.132 12.331,22.965c3.217,6.942 8.936,12.073 11.989,18.979c2.924,6.523 5.591,12.665 9.023,18.939c5.591,10.293 7.921,21.859 12.413,32.582c9.488,22.792 15.675,46.14 22.369,69.861c3.603,12.708 4.618,26.351 7.583,39.232c1.82,8.176 1.693,16.779 2.585,25.083z" /> <path d="M574.963,238.5c2.759,10.845 2.626,19.997 2.626,31.053c0.041,9.748 -0.17,19.235 -1.821,28.814c-0.467,2.71 -0.888,5.848 -1.991,8.388c-1.231,2.8 -3.349,4.161 -5.001,6.612c-3.466,5.084 -2.582,15.21 -3.641,21.357c-1.355,7.796 -2.417,15.679 -3.77,23.512c-1.104,6.396 -3.856,12.879 -3.519,19.406c0.343,6.696 2.508,13.389 3.519,20.001c0.805,5.418 1.144,10.848 2.585,16.141c0.892,3.182 2.329,6.149 2.883,9.448c0.922,5.765 0.205,12.027 0.205,17.88c0,10.635 0.211,21.093 -1.821,31.564c-1.61,8.344 -3.344,17.664 -6.863,25.42c-6.396,14.111 -12.792,27.793 -20.251,41.437c-4.577,8.385 -7.966,17.24 -12.331,25.803c-3.517,6.866 -5.463,14.322 -8.982,21.144c-4.319,8.472 -6.822,15.629 -8.684,24.956c-1.821,8.937 -5.761,17.194 -8.387,25.967c-2.965,9.828 -7.162,18.935 -10.634,28.556c-3.133,8.687 -7.628,16.821 -10.464,25.594c-1.355,4.201 -2.078,8.687 -3.77,12.709c-1.482,3.564 -4.576,6.153 -5.888,9.664c-0.927,2.421 -3.643,9.778 -0.252,10.212l-8.048,20.76c1.233,-5.423 0.939,-11.186 1.95,-16.611c0.72,-3.637 2.503,-6.515 3.135,-10.122c0.592,-3.48 0.844,-7.117 1.651,-10.549c0.636,-2.964 1.903,-5.853 2.795,-8.773c2.118,-6.865 1.353,-15.426 4.406,-21.864c1.861,-3.859 5.504,-6.268 6.904,-10.417c2.074,-6.19 1.95,-13.128 3.812,-19.45c1.273,-4.196 3.474,-7.497 5.212,-11.398c1.825,-4.065 2.586,-8.935 3.857,-13.259c1.482,-5.043 2.75,-10.163 5.294,-14.827c2.671,-4.918 5.599,-8.177 6.61,-13.986c1.226,-7.368 0.38,-14.366 4.109,-21.097c2.713,-4.783 6.145,-9.154 7.925,-14.447c2.666,-7.792 3.051,-16.14 5.719,-23.896c1.949,-5.591 4.365,-10.84 5.976,-16.518c1.482,-5.174 2.288,-10.81 4.447,-15.766c1.483,-3.311 4.068,-5.895 5.253,-9.327c2.756,-7.797 3.179,-18.132 3.093,-26.393c-0.085,-9.028 0.977,-18.347 -0.675,-27.204c-1.353,-7.288 -2.631,-14.913 -2.456,-22.367c0.048,-3.312 1.403,-6.07 1.74,-9.285c0.677,-6.697 -0.641,-13.347 -1.273,-19.916c-0.837,-8.723 -0.837,-18.341 -0.205,-27.114c0.677,-9.576 4.36,-18.133 5.93,-27.538c0.805,-4.926 1.907,-6.997 4.575,-10.809c2.54,-3.729 3.008,-7.499 3.094,-12.033c0.088,-6.825 -0.17,-13.521 2.883,-19.916c2.286,-4.829 3.093,-8.088 3.135,-13.556c0.047,-4.489 -0.086,-9.023 -0.086,-13.557c0,-7.283 0.849,-15.04 -0.295,-22.242c-0.723,-4.746 -2.206,-9.37 -2.585,-14.151c-0.264,-2.8 0.12,-5.088 -0.939,-7.671c-3.98,-9.618 -12.495,-16.954 -15.886,-27.033c-1.396,-4.064 -3.134,-7.117 -5.888,-10.549c-3.514,-4.271 -6.018,-9.113 -9.321,-13.556c-3.898,-5.253 -5.211,-11.399 -9.11,-16.692c-3.303,-4.535 -7.919,-8.052 -11.438,-12.411c-2.754,-3.433 -5.087,-7.333 -8.263,-10.386c-2.369,-2.288 -5.165,-3.902 -7.54,-6.232c-2.457,-2.372 -4.576,-4.738 -7.371,-6.689c-5.976,-4.157 -11.946,-8.353 -17.753,-12.712c-6.991,-5.341 -14.321,-10.681 -20.718,-16.739c-3.859,-3.685 -6.741,-8.598 -11.696,-10.549c-3.263,-1.277 -4.618,-1.734 -7.331,-4.534c-1.949,-2.035 -3.855,-4.487 -6.058,-6.232c-4.108,-3.167 -8.474,-6.13 -12.88,-9.02c-4.15,-2.704 -7.879,-5.883 -12.285,-8.129c-3.39,-1.704 -6.441,-3.39 -9.617,-5.341c-3.263,-2.041 -6.269,-1.156 -9.531,-3.227c-5.001,-3.167 -10.085,-5.968 -14.999,-8.508c-2.165,-1.096 -3.14,-1.536 -5.637,-1.861c-3.309,-0.428 -5.34,-2.039 -8.264,-3.727c-2.544,-1.512 -4.196,-2.059 -6.991,-2.493c-4.494,-0.758 -7.838,-3.299 -11.696,-5.587c-5.847,-3.475 -12.413,-6.143 -18.64,-8.9c-5.293,-2.378 -11.818,-3.107 -17.625,-4.197c-5.847,1.06 -12.372,1.822 -17.665,4.197c-6.228,2.753 -12.753,5.426 -18.641,8.9c-3.852,2.288 -7.202,4.822 -11.649,5.587c-2.835,0.457 -4.447,1.012 -7.032,2.493c-2.924,1.691 -4.961,3.293 -8.264,3.727c-2.503,0.29 -3.478,0.717 -5.637,1.861c-4.915,2.535 -9.998,5.335 -14.999,8.508c-3.304,2.083 -6.228,1.191 -9.531,3.227c-3.181,1.951 -6.23,3.643 -9.578,5.341c-4.453,2.234 -8.182,5.414 -12.332,8.129c-4.405,2.873 -8.771,5.84 -12.88,9.02c-2.159,1.74 -4.108,4.196 -6.017,6.232c-2.708,2.789 -4.109,3.257 -7.371,4.534c-4.915,1.951 -7.838,6.865 -11.696,10.549c-6.396,6.063 -13.686,11.398 -20.718,16.739c-5.807,4.366 -11.777,8.563 -17.753,12.712c-2.795,1.95 -4.915,4.314 -7.371,6.689c-2.375,2.331 -5.17,3.944 -7.499,6.232c-3.181,3.053 -5.592,6.954 -8.305,10.386c-3.513,4.361 -8.135,7.877 -11.438,12.411c-3.898,5.294 -5.211,11.441 -9.11,16.692c-3.263,4.446 -5.802,9.275 -9.321,13.556c-2.753,3.432 -4.486,6.485 -5.888,10.549c-3.391,10.085 -11.906,17.412 -15.845,27.033c-1.102,2.583 -0.717,4.871 -0.969,7.671c-0.382,4.794 -1.868,9.412 -2.585,14.151c-1.144,7.202 -0.295,14.951 -0.295,22.242c0,4.537 -0.127,9.065 -0.086,13.557c0.04,5.458 0.846,8.727 3.134,13.556c3.058,6.4 2.797,13.094 2.883,19.916c0.088,4.537 0.55,8.306 3.094,12.033c2.667,3.812 3.769,5.895 4.576,10.809c1.565,9.408 5.255,17.959 5.93,27.538c0.644,8.773 0.644,18.387 -0.205,27.114c-0.639,6.568 -1.946,13.214 -1.271,19.916c0.339,3.227 1.694,5.986 1.78,9.285c0.129,7.454 -1.144,15.076 -2.497,22.367c-1.644,8.859 -0.589,18.184 -0.675,27.204c-0.082,8.262 0.339,18.589 3.094,26.393c1.184,3.432 3.77,6.028 5.252,9.327c2.159,4.957 2.965,10.6 4.447,15.766c1.611,5.674 4.026,10.931 5.976,16.518c2.666,7.751 3.051,16.092 5.719,23.896c1.826,5.295 5.212,9.666 7.925,14.447c3.73,6.737 2.879,13.733 4.109,21.097c1.019,5.803 3.942,9.072 6.61,13.986c2.539,4.663 3.811,9.793 5.293,14.827c1.273,4.324 2.037,9.195 3.858,13.259c1.78,3.902 3.939,7.201 5.212,11.398c1.861,6.316 1.734,13.261 3.811,19.45c1.395,4.151 5.042,6.558 6.904,10.417c3.094,6.441 2.329,15 4.406,21.864c0.888,2.92 2.165,5.81 2.797,8.773c0.803,3.432 1.062,7.075 1.652,10.549c0.637,3.595 2.459,6.485 3.134,10.122c1.017,5.423 0.724,11.186 1.909,16.611l-8.007,-20.76c3.395,-0.385 0.687,-7.791 -0.205,-10.212c-1.355,-3.517 -4.448,-6.099 -5.93,-9.664c-1.693,-4.026 -2.417,-8.512 -3.77,-12.709c-2.836,-8.773 -7.329,-16.911 -10.464,-25.594c-3.474,-9.617 -7.669,-18.729 -10.593,-28.556c-2.674,-8.769 -6.613,-17.032 -8.434,-25.967c-1.862,-9.322 -4.319,-16.49 -8.684,-24.956c-3.472,-6.825 -5.462,-14.28 -8.981,-21.144c-4.366,-8.557 -7.757,-17.415 -12.332,-25.803c-7.458,-13.644 -13.813,-27.329 -20.251,-41.437c-3.515,-7.756 -5.253,-17.074 -6.863,-25.42c-2.026,-10.467 -1.78,-20.93 -1.821,-31.564c0,-5.847 -0.717,-12.118 0.252,-17.88c0.548,-3.301 1.944,-6.268 2.836,-9.448c1.441,-5.297 1.778,-10.727 2.585,-16.141c1.022,-6.614 3.182,-13.299 3.519,-20.001c0.338,-6.524 -2.375,-13.011 -3.519,-19.406c-1.353,-7.838 -2.417,-15.721 -3.77,-23.512c-1.056,-6.148 -0.127,-16.269 -3.6,-21.357c-1.695,-2.463 -3.813,-3.812 -5.043,-6.612c-1.098,-2.535 -1.521,-5.673 -1.99,-8.388c-1.646,-9.575 -1.862,-19.06 -1.821,-28.814c0.041,-11.052 -0.129,-20.202 2.626,-31.053c2.206,-8.56 2.673,-17.373 4.832,-25.928c3.724,-14.447 9.104,-30.591 18.343,-42.286c7.16,-9.019 11.397,-20.08 17.794,-29.57c4.365,-6.44 9.618,-12.156 13.896,-18.641c5.679,-8.641 13.219,-15.546 19.364,-23.85c5.977,-8.134 12.924,-14.028 19.534,-21.439c5.971,-6.693 12.838,-13.347 20.421,-18.218c6.438,-4.154 12.541,-9.069 19.743,-11.737c5.889,-2.204 10.634,-5.251 16.184,-8.304c3.391,-1.819 6.904,-3.432 10.295,-5.251c2.707,-1.438 5.083,-3.642 7.878,-5.003c2.504,-1.277 5.212,-1.44 7.797,-2.421c4.069,-1.524 7.202,-4.534 11.101,-6.395c4.026,-1.885 7.2,-1.337 11.397,-1.993c3.005,-0.511 6.057,-1.565 9.022,-2.33c2.504,-0.675 4.962,-1.222 7.459,-1.656c4.744,-0.891 8.643,-3.637 13.219,-4.618c1.565,-0.296 2.837,0.138 4.278,-0.079c2.753,-0.512 4.918,-2.256 7.754,-2.8c2.626,-0.544 5.423,-0.11 8.048,-0.544c5.807,-0.938 10.593,-2.865 16.609,-2.757c0.632,0 1.23,-0.037 1.862,-0.037c-2.375,-0.174 -4.493,-1.806 -6.525,-1.481c8.433,0.187 17.157,-0.686 25.591,0.079c8.432,-0.735 17.116,0.138 25.55,-0.079c-2.033,-0.295 -4.15,1.373 -6.525,1.481c0.632,0 1.23,0.037 1.862,0.037c6.016,-0.133 10.802,1.776 16.609,2.757c2.626,0.436 5.422,0 8.048,0.544c2.84,0.59 4.999,2.256 7.754,2.8c1.442,0.187 2.709,-0.246 4.278,0.079c4.575,0.981 8.475,3.745 13.219,4.618c2.498,0.47 4.955,1 7.499,1.656c2.923,0.759 5.975,1.786 8.981,2.33c4.196,0.686 7.371,0.132 11.398,1.993c3.939,1.861 7.032,4.871 11.1,6.395c2.586,0.982 5.294,1.144 7.838,2.421c2.754,1.366 5.124,3.564 7.837,5.003c3.391,1.819 6.904,3.432 10.295,5.251c5.55,3.053 10.296,6.101 16.184,8.304c7.203,2.669 13.306,7.588 19.744,11.737c7.581,4.87 14.445,11.529 20.421,18.218c6.612,7.412 13.557,13.298 19.533,21.439c6.145,8.303 13.686,15.21 19.364,23.85c4.277,6.48 9.531,12.203 13.896,18.641c6.396,9.491 10.633,20.55 17.794,29.57c9.233,11.694 14.614,27.836 18.343,42.286c2.206,8.56 2.629,17.373 4.832,25.928z" /> <path d="M187.984,399.13c-2.544,-0.642 -7.883,5.838 -10.551,7.583c0.847,-0.543 1.646,-1.09 2.585,-1.524c2.078,-1.144 7.671,-3.637 7.966,-6.058zM161.231,415.874c3.73,-1.819 6.946,-4.402 10.634,-6.1c1.864,-0.85 3.52,-1.873 5.212,-2.963c-4.112,2.499 -8.687,3.98 -13.134,5.636c-4.196,1.529 -9.236,2.509 -13.557,3.053c-2.585,0.354 -5.381,-0.116 -7.966,-0.08c-3.093,0.12 -5.637,1.005 -8.643,1.439c-5.165,0.651 -12.881,1.198 -18.005,0.217c-2.498,-0.5 -4.151,-2.023 -6.566,-2.788c-3.006,-0.939 -5.848,0.379 -8.007,-2.463c-1.438,-1.86 -1.657,-4.576 -2.668,-6.689c-0.976,-1.948 -2.204,-3.637 -3.053,-5.925c-1.652,-4.451 -4.319,-9.527 -5.422,-13.766c1.781,0.589 3.35,3.215 5.34,4.401c2.033,1.175 4.407,1.939 6.525,2.92c4.661,2.33 9.277,3.39 14.278,4.576c3.478,0.825 6.146,1.264 9.916,1.481c3.689,0.217 6.654,1.56 10.593,1.524c12.711,-0.09 26.735,1.909 37.794,-4.871c6.058,-3.687 8.263,-7.715 1.611,-11.737c-9.105,-5.515 -20.672,-9.26 -31.562,-9.152c-9.15,0.108 -18.302,-0.217 -27.412,0c-4.867,0.132 -9.869,1.776 -14.106,2.757c-3.647,0.894 -9.916,3.031 -13.178,2.375c3.134,-1.867 5.381,-3.728 8.981,-4.709c4.196,-1.102 8.007,-2.584 12.203,-3.77c3.094,-0.885 8.859,-2.541 10.383,-5.678c2.584,-5.208 -2.714,-4.009 -5.55,-4.443c-7.582,-1.144 -15.291,-4.197 -22.75,-6.527c-7.926,-2.501 -18.005,-6.142 -24.786,-11.056c-4.067,-2.963 -4.658,-8.05 -8.217,-11.398c4.406,0.338 8.602,2.619 13.178,3.053c4.955,0.439 9.531,0.548 14.106,0.873c0.553,0.458 1.148,1.005 1.738,1.439c2.755,1.903 5.55,3.517 8.264,5.468c3.092,2.288 7.797,2.552 11.438,3.901c6.227,2.318 10.971,1.449 17.368,1.993c4.108,0.379 9.617,1.186 13.516,2.288c2.077,0.599 3.986,1.61 5.976,2.375c3.602,1.475 5.422,1.331 9.192,1.439c4.406,0.174 8.092,2.593 12.413,3.137c2.334,0.326 4.745,-0.216 7.12,-0.108c3.216,0.217 6.269,1.439 9.531,1.656c4.833,0.325 10.126,-1.013 14.829,0.217c3.39,0.891 6.864,2.366 10.464,2.8c8.136,0.793 16.82,-0.08 24.996,-0.08c2.709,0 5.719,0.434 8.387,0c2.666,-0.348 4.021,-1.896 6.904,-1.571c0.421,2.456 -3.303,4.871 -4.873,6.78c-2.498,3.053 -4.108,6.822 -6.525,9.917c-1.441,1.783 -3.473,2.843 -4.703,4.836c-1.314,2.077 -1.483,3.649 -2.965,5.425c-1.779,2.203 -4.114,4.064 -5.976,6.31c-3.006,3.727 -7.034,6.942 -10.634,10.079c-4.955,4.234 -8.895,9.19 -13.727,13.561c-5.678,5.21 -12.454,10.256 -18.938,14.278c-2.37,1.482 -3.896,3.685 -6.099,5.341c-2.159,1.614 -4.703,2.246 -6.991,3.607c-4.022,2.372 -7.879,5.208 -11.818,7.713c-7.797,4.917 -15.594,10.548 -24.15,14.232c-3.181,1.319 -6.566,1.687 -9.449,3.432c-1.062,0.632 -1.232,1.449 -2.544,1.993c-0.887,0.398 -4.063,-0.036 -4.955,-0.036c-3.858,0 -8.049,0.548 -11.737,-0.325c-2.078,-0.465 -3.472,-1.194 -5.719,-1.23c-2.159,0 -4.236,0.439 -6.268,-0.217c0.554,-2.288 4.281,-3.299 6.484,-4.064c4.447,-1.53 7.587,-3.186 11.228,-6.66c5.462,-5.211 10.76,-10.335 16.225,-15.465c8.175,-7.668 17.286,-13.437 26.437,-19.657c3.22,-2.203 6.231,-3.347 9.407,-4.871z" /> <path d="M121.452,755.27c-0.635,-2.8 -2.364,-4.999 -3.303,-7.756c-0.295,-0.849 -0.427,-1.752 -0.632,-2.625l10.125,26.142c0.338,2.113 0,4.022 -1.103,5.72c-5.89,-3.56 -3.853,-15.85 -5.083,-21.486z" /></svg>