<svg xmlns="http://www.w3.org/2000/svg" viewBox="0 0 999 821" width="999" height="821"><path d="M807.082,49.143c3.368,-0.937 6.917,-1.438 10.583,-1.438c7.209,0 13.966,1.937 19.591,5.218l0.188,0.101c11.717,6.824 19.592,19.521 19.592,34.057c0,7.208 -1.936,13.963 -5.215,19.586c-138.166,241.054 -304.698,496.128 -558.462,645.077c-23.504,13.795 -82.325,45.748 -143.026,60.821c-30.351,7.537 -61.721,12.446 -93.744,0.564c-32.023,-11.882 -56.359,-49.229 -56.359,-89.487v0c0,-21.752 17.633,-39.385 39.385,-39.385v0c21.752,0 39.385,17.633 39.385,39.385c0,18.991 -0.305,13.632 4.974,15.59c5.279,1.958 24.513,2.602 47.385,-3.077c45.743,-11.359 103.817,-41.596 122.154,-52.359c232.672,-136.569 393.587,-378.311 530,-616.308l0.101,-0.188c5.101,-8.762 13.486,-15.376 23.745,-18.223z" /> <path d="M173.87,0.821l0.188,0.018c19.513,2.344 34.637,18.956 34.637,39.101c0,1.593 -0.094,3.164 -0.26,4.521c-10.112,86.672 27.375,158.918 89.282,227.231c61.907,68.313 147.118,128.64 221.077,183.18c120.544,88.891 298.199,194.051 440.359,194.051v0c21.752,0 39.385,17.633 39.385,39.385v0c0,21.752 -17.633,39.385 -39.385,39.385c-178.52,0 -361.641,-116.938 -487.077,-209.436c-72.793,-53.681 -162.367,-116.01 -232.718,-193.641c-70.351,-77.631 -122.554,-174.636 -109.179,-289.282l0.019,-0.189c2.365,-19.491 18.967,-34.591 39.096,-34.591c1.613,0 3.204,0.097 4.578,0.267z" /></svg>