<svg xmlns="http://www.w3.org/2000/svg" viewBox="0 0 997 754" width="997" height="754"><path d="M935.511,3.277c4.868,-1.794 10.129,-2.773 15.619,-2.773c19.474,0 36.07,12.321 42.518,29.907l-0.101,-0.313c1.798,4.873 2.78,10.141 2.78,15.638c0,19.454 -12.297,36.037 -29.855,42.499c-139.484,50.215 -237.024,137.36 -360.471,236.118c-123.055,98.445 -245.116,197.278 -366.941,297.176c-2.26,1.852 -17.096,17.35 -32.824,34.235c-15.728,16.886 -34.128,36.277 -54.647,52.765c-20.519,16.488 -42.84,34.811 -79.765,31.706c-18.463,-1.553 -38.374,-12.647 -50,-27.412c-11.626,-14.765 -17.249,-31.304 -20.941,-49.765l0.05,0.292c-0.611,-2.962 -0.932,-6.031 -0.932,-9.174c0,-21.807 15.45,-40.005 36.293,-44.295l-0.263,0.036c2.42,-0.4 4.905,-0.609 7.438,-0.609c21.23,0 39.039,14.644 43.943,34.691c3.397,-1.578 0.947,-0.546 7.588,-5.882c13.657,-10.973 30.142,-27.864 45.118,-43.941c14.976,-16.077 26.618,-30.205 41.647,-42.529c122.118,-100.138 244.499,-199.162 367.824,-297.824c121.059,-96.848 228.139,-193.732 386.235,-250.647z" /> <path d="M121.764,28.472l0.294,0.052c11.74,2.466 21.802,9.491 28.353,19.301c114.3,172.571 233.962,297.127 397.765,428.412c46.085,36.934 101.501,84.965 158.941,122.941c57.44,37.976 116.183,63.941 162.882,63.941v0c24.95,0 45.176,20.226 45.176,45.176v0c0,24.95 -20.226,45.176 -45.176,45.176c-77.094,0 -148.482,-36.479 -212.706,-78.941c-64.224,-42.462 -121.971,-92.868 -165.588,-127.824c-168.9,-135.371 -297.236,-268.802 -416.588,-449l0.103,0.163c-4.822,-7.187 -7.635,-15.835 -7.635,-25.14c0,-15.662 7.97,-29.462 20.239,-37.67l-0.164,0.103c7.177,-4.8 15.805,-7.6 25.088,-7.6c3.192,0 6.306,0.331 9.017,0.909z" /></svg>