<svg xmlns="http://www.w3.org/2000/svg" viewBox="0 0 881 896" width="881" height="896"><path d="M258.896,881.462c-23.975,-10.235 -38.535,-21.145 -44.871,-33.619c-9.772,-19.239 -12.978,-62.789 -5.196,-70.571c6.714,-6.714 36.287,24.287 32.523,34.097c-2.195,5.715 0.203,7.147 7.385,4.393c6.089,-2.337 16.028,0.796 23.244,7.326c11.81,10.689 11.907,11.919 1.534,19.503c-9.992,7.307 -8.767,9.455 12.601,22.061c15.139,8.932 22.392,17.304 20.12,23.223c-4.513,11.753 -4.923,11.697 -47.341,-6.413zM494.428,874.521c-3.551,-1.228 -41.928,-8.645 -85.287,-16.479l-78.834,-14.245l20.372,-28.367c11.205,-15.603 26.508,-29.907 34.006,-31.788c7.508,-1.884 17.353,-12.675 21.912,-24.014l8.279,-20.591l7.748,25.811c7.344,24.468 9.079,25.811 33.324,25.811c19.605,0 29.817,4.309 43.74,18.457c9.989,10.151 16.752,22.13 15.029,26.621c-1.723,4.491 0.819,15.786 5.652,25.101c8.211,15.827 7.861,16.902 -5.351,16.426c-7.776,-0.279 -17.041,-1.515 -20.589,-2.744zM465.39,806.792c0,-3.549 -5.081,-6.408 -11.292,-6.354c-9.651,0.087 -9.885,1.008 -1.617,6.354c12.178,7.87 12.906,7.87 12.906,0zM697.694,849.55c0,-8.561 4.355,-17.237 9.68,-19.279c5.325,-2.042 9.697,-8.887 9.721,-15.21c0.019,-6.321 8.733,-16.443 19.358,-22.488c14.17,-8.063 19.344,-15.801 19.416,-29.038c0.152,-24.379 8.373,-35.721 26.618,-36.638c11.575,-0.581 15.716,-5.019 17.269,-18.496c2.57,-22.341 26.705,-30.12 48.713,-15.699c14.565,9.542 23.207,36.946 23.386,74.139c0.102,17.424 -11.011,13.125 -19.33,-7.495c-4.64,-11.501 -5.662,-11.884 -6,-2.257c-0.203,6.381 6.692,17.997 15.37,25.811c8.678,7.814 16.665,22.841 17.745,33.392c1.946,19.005 1.549,19.255 -43.204,27.028c-61.597,10.7 -61.302,10.735 -61.302,-7.493c0,-8.872 2.8,-16.133 6.225,-16.133c10.961,0 19.272,-22.451 12.075,-32.613c-5.358,-7.564 -5.918,-7.18 -2.958,2.019c2.303,7.149 -1.057,14.292 -9.07,19.299c-6.999,4.372 -12.725,13.799 -12.725,20.951c0,13.162 -17.662,23.695 -53.236,31.745c-15.564,3.521 -17.745,2.102 -17.745,-11.549zM0.78,816.472c0,-31.377 7.343,-36.26 29.419,-19.565c16.913,12.792 22.205,12.201 22.205,-2.484c0,-6.802 3.628,-13.833 8.066,-15.623c4.817,-1.944 3.521,-3.46 -3.227,-3.764c-6.21,-0.279 -11.292,3.846 -11.292,9.17c0,12.329 -6.388,12.233 -24.376,-0.366c-16.551,-11.593 -19.069,-28.672 -4.227,-28.672c6.991,0 8.915,-3.776 6.234,-12.228c-6.209,-19.561 13.977,-60.773 35.888,-73.274c26.725,-15.248 29.931,-14.462 34.991,8.572c2.809,12.792 13.091,26.002 28.88,37.105c19.171,13.481 25.437,22.869 28.735,43.052c2.626,16.07 11.718,33.557 24.087,46.335l19.869,20.524l-21.804,3.61c-28.469,4.714 -143.363,16.645 -160.286,16.645c-11.295,0 -13.16,-4.115 -13.16,-29.038zM291.162,793.887c0,-7.973 -4.314,-12.921 -11.292,-12.946c-10.364,-0.037 -33.877,-31.724 -33.877,-45.652c0,-3.261 7.005,-5.929 15.565,-5.929c13.191,0 16.247,-4.031 20.03,-26.43c2.769,-16.392 1.794,-29.102 -2.57,-33.467c-5.081,-5.08 -4.609,-9.842 1.687,-17.127c4.796,-5.55 10.502,-18.801 12.674,-29.449c3.852,-18.87 3.674,-18.789 -6.991,3.227c-14.529,29.996 -13.721,29.256 -22.435,20.542c-16.418,-16.419 -17.722,-6.462 -1.875,14.315c21.816,28.602 17.195,54.313 -10.766,59.905c-12.469,2.494 -17.78,6.792 -15.556,12.589c2.287,5.957 -1.728,8.801 -12.422,8.801c-23.173,0 -67.683,-19.376 -67.683,-29.463c0,-4.787 -10.163,-16.813 -22.586,-26.724c-29.698,-23.695 -31.019,-48.697 -3.227,-60.999c10.647,-4.712 19.358,-10.261 19.358,-12.328c0,-5.762 -38.395,1.169 -42.403,7.654c-6.79,10.985 -36.273,5.607 -48.301,-8.811c-16.528,-19.814 -15.518,-33.67 3.364,-46.041c22.69,-14.867 32.196,-34.605 22.369,-46.445c-6.207,-7.478 -5.483,-11.937 3.547,-21.917c7.615,-8.415 10.36,-19.208 8.355,-32.863c-2.256,-15.384 0.767,-24.083 12.429,-35.746l15.414,-15.413h199.52c190.656,0 199.816,0.554 206.199,12.481c3.674,6.866 6.68,20.302 6.68,29.859c0,16.964 0.767,17.304 32.262,14.277c22.418,-2.154 34.472,-0.437 39.507,5.632c9.693,11.679 30.077,11.055 42.429,-1.298c15.579,-15.579 41.893,-8.97 56.717,14.245c11.793,18.466 44.887,33.799 53.772,24.913c1.773,-1.774 -6.198,-5.112 -17.717,-7.415c-11.519,-2.303 -22.589,-8.857 -24.597,-14.564c-11.504,-32.678 -40.057,-41.521 -72.389,-22.421c-17.01,10.047 -18.795,9.833 -38.349,-4.625l-20.508,-15.163l14.768,-11.364c8.123,-6.251 11.865,-11.336 8.315,-11.304c-13.417,0.127 -29.193,17.552 -25.234,27.869c3.262,8.502 -0.407,10.499 -19.246,10.499c-17.831,0 -23.297,-2.64 -23.363,-11.292c-0.049,-6.21 -1.84,-17.827 -3.979,-25.811l-3.892,-14.519h330.603l-0.203,62.916c-0.203,56.006 -1.22,61.575 -9.446,50.708c-5.083,-6.713 -10.4,-15.425 -11.817,-19.358c-1.417,-3.933 -4.349,-5.535 -6.516,-3.558c-2.164,1.977 3.241,14.163 12.022,27.083c22.637,33.313 22.587,114.514 -0.05,114.514c-4.513,0 -11.814,-4.356 -16.233,-9.68c-5.551,-6.687 -5.794,-9.68 -0.792,-9.68c3.983,0 6.907,-7.986 6.494,-17.745c-0.568,-13.52 -1.505,-14.673 -3.923,-4.839c-1.743,7.098 -6.178,16.606 -9.849,21.128c-3.671,4.522 -4.913,9.989 -2.75,12.149c5.019,5.023 -20.678,24.981 -37.58,29.183c-11.011,2.737 -12.985,-0.137 -13.443,-19.587c-0.304,-12.537 -3.923,-23.924 -8.066,-25.305c-11.719,-3.906 -8.874,-12.483 5.376,-16.21c13.529,-3.537 17.941,-26.523 6.453,-33.621c-3.551,-2.193 -6.649,-11.802 -6.89,-21.353l-0.457,-17.365l-7.238,15.047c-5.453,11.338 -5.292,18.165 0.655,27.687c9.513,15.235 4.711,25.021 -12.284,25.021c-15.869,0 -15.701,2.679 1.626,26.117c10.681,14.447 12.328,20.965 6.717,26.577c-4.522,4.524 -6.014,17.801 -3.805,33.909c4.044,29.505 -8.673,50.861 -34.809,58.461c-11.169,3.248 -14.675,1.517 -15.193,-7.506c-4.066,-70.778 -12.006,-92.389 -33.958,-92.389c-17.386,0 -25.683,-19.087 -19.151,-44.062c2.638,-10.074 -0.721,-19.478 -10.775,-30.177c-11.515,-12.258 -13.74,-20.034 -10.521,-36.795c2.891,-15.069 2.235,-18.435 -2.266,-11.571c-9.921,15.134 -7.7,31.983 6.615,50.183c9.023,11.473 11.98,22.083 9.413,33.775c-5.035,22.916 6.558,51.555 20.866,51.555c16.441,0 31.882,36.746 22.055,52.483c-8.712,13.95 -9.508,37.468 -1.687,49.81c3.353,5.293 1.859,16.084 -3.801,27.425c-9.29,18.625 -9.567,18.697 -69.467,18.697c-48.887,0 -60.873,-1.911 -64.057,-10.207c-6.461,-16.839 -4.669,-20.47 12.215,-24.707c17.522,-4.398 21.464,-21.612 8.066,-35.235c-6.472,-6.58 -5.056,-10.662 7.168,-20.649c16.222,-13.255 8.367,-16.9 -12.432,-5.768c-11.234,6.013 -12.481,4.425 -12.481,-15.878c0,-22.204 -3.409,-27.538 -29.038,-45.416c-12.694,-8.855 -12.709,-9.372 -0.894,-31.495c6.607,-12.37 10.466,-26.369 8.575,-31.107c-1.986,-4.977 -3.653,-2.817 -3.948,5.115c-0.304,7.552 -4.867,17.344 -10.189,21.763c-15.995,13.274 -11.886,36.957 8.066,46.501c14.674,7.019 18.355,13.776 21.265,39.039c1.936,16.805 7.018,34.051 11.292,38.325c12.33,12.329 9.107,22.816 -8.359,27.2c-8.873,2.227 -16.133,7.069 -16.133,10.759c0,3.69 -2.902,4.917 -6.453,2.723c-3.551,-2.193 -6.453,-9.522 -6.453,-16.287c0,-6.765 -5.807,-15.407 -12.906,-19.205c-7.098,-3.799 -12.906,-11.058 -12.906,-16.133c0,-5.075 -5.081,-12.005 -11.292,-15.405c-6.21,-3.398 -18.295,-19.595 -26.855,-35.993l-15.561,-29.813l13.95,-9.77c16.611,-11.635 17.092,-15.545 3.933,-32.003c-9.835,-12.303 -9.948,-12.289 -6.402,0.785c2.485,9.161 -1.449,17.711 -12.621,27.425c-19.625,17.064 -27.144,17.747 -31.045,2.821c-2.678,-10.256 -3.017,-10.201 -3.699,0.604c-0.407,6.801 4.68,13.317 11.929,15.211c19.453,5.088 39.011,42.687 33.302,64.029c-6.826,25.527 -15.439,25.122 -29.721,-1.399l-12.533,-23.272l-6.702,19.54c-9.381,27.349 -15.121,31.112 -25.599,16.779c-4.994,-6.834 -11.306,-10.202 -14.021,-7.487c-2.713,2.715 -1.834,8.038 1.952,11.826c7.053,7.054 3.958,31.613 -3.983,31.613c-2.424,0 -7.894,-3.484 -12.154,-7.744c-5.578,-5.579 -7.744,-5.684 -7.744,-0.382c0,4.05 2.906,9.158 6.453,11.35c19.201,11.867 -4.263,41.944 -32.725,41.944c-14.595,0 -18.898,-2.938 -18.898,-12.906zM172.383,580.94c7.783,0 15.981,-4.767 18.216,-10.591c3.073,-8.009 2.064,-8.946 -4.151,-3.844c-4.516,3.711 -15.246,7.751 -23.841,8.98c-8.595,1.229 -16.944,6.587 -18.553,11.91c-2.362,7.812 -1.276,8.123 5.624,1.614c4.705,-4.436 14.918,-8.066 22.701,-8.066zM226.632,538.795c0,-28.022 15.737,-36.879 29.815,-16.779c5.299,7.565 13.969,13.755 19.268,13.755c5.299,0 18.927,4.805 30.286,10.676c17.821,9.213 19.509,9.301 12.321,0.634c-4.584,-5.523 -16.181,-12.014 -25.776,-14.422c-23.715,-5.952 -33.631,-15.224 -33.747,-31.556c-0.05,-8.211 -2.008,-10.787 -4.842,-6.409c-2.607,4.025 -10.549,8.42 -17.647,9.765c-9.724,1.841 -13.809,9.183 -16.567,29.785c-2.012,15.037 -1.285,27.34 1.617,27.34c2.902,0 5.273,-10.255 5.273,-22.787zM4.696,693.339c-2.154,-5.614 -3.917,-70.949 -3.917,-145.19v-134.983h111.95l-13.515,14.519c-9.639,10.355 -12.503,19.702 -9.989,32.594c2.555,13.097 -0.407,22.239 -10.678,33.193c-12.463,13.265 -13.155,16.835 -5.655,29.128c7.596,12.452 6.825,15.423 -6.948,26.707c-20.862,17.095 -29.631,12.581 -29.888,-15.381c-0.304,-32.221 -7.119,-36.285 -8.347,-4.971c-0.549,14.017 1.881,27.263 5.395,29.435c3.516,2.174 6.392,13.587 6.392,25.365c0,11.778 4.355,25.029 9.68,29.448c13.932,11.562 12.164,21.58 -10.232,57.98c-21.084,34.265 -27.907,38.678 -34.248,22.155zM0.779,187.313v-187.134h405.967l1.896,46.783c1.042,25.731 1.062,109.941 0.043,187.134l-1.855,140.351h-406.053zM455.436,366.381c-1.743,-4.537 -2.393,-88.062 -1.443,-185.612l1.723,-177.363l416.41,-3.406l-3.424,371.221l-205.048,1.704c-161.749,1.345 -205.716,-0.037 -208.214,-6.545z" /></svg>