<svg xmlns="http://www.w3.org/2000/svg" viewBox="0 0 1024 1024" width="1024" height="1024"><path d="M1024,512c0,282.77 -229.23,512 -512,512c-282.77,0 -512,-229.23 -512,-512c0,-282.77 229.23,-512 512,-512c282.77,0 512,229.23 512,512zM320,672c0,-17.674 -14.328,-32 -32,-32c-17.672,0 -32,14.326 -32,32v64c0,17.674 14.328,32 32,32c17.672,0 32,-14.326 32,-32zM320,480c0,-17.672 -14.328,-32 -32,-32c-17.672,0 -32,14.328 -32,32v64c0,17.674 14.328,32 32,32c17.672,0 32,-14.326 32,-32zM384,352c0,-17.672 -14.328,-32 -32,-32h-128c-17.672,0 -32,14.328 -32,32c0,17.672 14.328,32 32,32h128c17.672,0 32,-14.328 32,-32zM630.626,801.374c-30.12,-30.122 -92.994,-33.374 -118.626,-33.374c-25.634,0 -88.506,3.252 -118.628,33.372c-12.498,12.496 -12.498,32.758 0,45.254c12.496,12.496 32.758,12.496 45.254,0c4.584,-4.582 29.42,-14.626 73.374,-14.626c43.954,0 68.792,10.044 73.374,14.626c6.248,6.25 14.436,9.374 22.626,9.374c8.19,0 16.378,-3.124 22.626,-9.374c12.498,-12.496 12.498,-32.756 0,-45.252zM768,672c0,-17.674 -14.326,-32 -32,-32c-17.674,0 -32,14.326 -32,32v64c0,17.674 14.326,32 32,32c17.674,0 32,-14.326 32,-32zM768,480c0,-17.672 -14.326,-32 -32,-32c-17.674,0 -32,14.328 -32,32v64c0,17.674 14.326,32 32,32c17.674,0 32,-14.326 32,-32zM832,352c0,-17.672 -14.326,-32 -32,-32h-128c-17.674,0 -32,14.328 -32,32c0,17.672 14.326,32 32,32h128c17.674,0 32,-14.328 32,-32z" /></svg>