<svg xmlns="http://www.w3.org/2000/svg" viewBox="0 0 893 801" width="893" height="801"><path d="M403.632,174.424c-0.26,-0.526 0.134,-1.434 1.571,-2.597c4.294,-3.66 8.327,-9.4 12.231,-13.431c3.899,-3.772 7.803,-8.832 13.303,-10.403c6.773,-1.96 16.675,-0.668 22.504,2.469c12.368,6.768 25.269,11.6 36.472,20.571c5.469,4.433 7.707,11.47 11.203,17.204c2.729,4.665 6.003,8.835 8.6,13.531c6.632,12.37 5.601,25.276 1.804,38.407c-2.831,10.433 -7.803,25.141 -20.034,27.504c-10.933,2.063 -23.706,0 -34.637,0.094c-4.428,0 -9.362,0.568 -13.531,-0.378c-3.659,-0.806 -7.037,-2.834 -10.834,-3.403c-10.133,-1.429 -25.766,4.163 -33.337,-4.566c-6.634,-7.4 -8.84,-18.101 -11.703,-27.204c-2.143,-6.633 -3.402,-11.335 -2.331,-18.104c0.641,-5.2 1.168,-10.937 3.637,-15.503c2.2,-4.44 5.734,-8.471 8.331,-12.771c1.838,-3.494 5.465,-7.794 6.769,-11.431z" /> <path d="M413.166,315.391c1.965,4.172 4.3,1.032 7.437,-4.931c2.467,-4.403 2.875,-3.901 7.304,-4.972c0.76,-0.267 1.303,-1.418 2.331,-1.796c1.566,-0.375 3.635,0.284 5.338,-0.094c2.338,-0.527 6.137,-2.05 8.866,-2.996c5.065,-1.441 9.365,-2.469 14.434,-2.469c4.3,0 5.341,0 8.204,3.366c2.359,3.132 4.697,6.137 6.528,9.503c6.759,12.5 11.337,26.441 13.934,40.372c1.475,7.57 2.232,14.738 1.663,22.404c-0.766,13.301 -5.509,25.541 -5.697,39.072c-0.133,13.171 -1.2,27.341 1.304,40.375c2.742,14.47 4.393,29.304 1.796,44.007c-4.172,22.937 -7.807,48.075 -16.803,69.812c-7.268,0.66 -10.402,-3.768 -17.171,-6.237c-7.968,-2.772 -14.467,-6.134 -20.071,-12.903c-2.598,-3.134 -5.332,-6.408 -8.469,-9.137c-3.5,-2.863 -7.668,-3.1 -11.071,-5.963c-6.503,-4.968 -4.529,-21.375 -3.366,-28.272c1.293,-9.233 3.59,-17.335 3.496,-26.704c-0.094,-5.201 0,-10.666 0,-16.004v-146.387z" /> <path d="M250.625,57.063c3.403,0.281 7.437,2.597 10.671,3.669c4.696,1.397 9.272,3.637 14.071,4.169c6.897,1.028 17.071,-5.5 15.771,5.569c-1.831,12.131 1.028,22.804 -3.637,34.272c-3.137,7.796 -4.566,16.134 -8.097,23.972c-4.169,9.369 -10.003,17.703 -13.131,27.337c-3.006,8.469 -4.031,17.303 -5.734,25.904c-1.831,8.331 -0.756,16.671 -2.071,24.872c-1.331,6.663 -4.972,13.431 -7.571,19.671c-4.696,11.203 -13.531,18.231 -20.434,27.737c-4.031,5.604 -6.897,10.571 -12.003,15.503c-4.671,4.429 -8.331,9.903 -12.103,15.103c-4.696,6.269 -9.369,12.231 -14.971,17.703c-4.031,3.929 -6.769,9.631 -10.931,13.171c-3.669,2.729 -5.871,3.271 -8.469,7.304c-4.566,7.529 -9.631,11.703 -16.031,17.434c-7.269,6.269 -12.631,14.203 -19.771,20.434c-6.663,5.734 -13.703,10.571 -19.804,17.071c-5.472,5.472 -10.803,10.934 -17.203,15.634c-9.103,6.371 -19.537,9.903 -28.637,16.131c-3.403,2.229 -5.604,3.797 -9.369,5.328c-4.566,1.703 -9.903,3.006 -14.071,5.604c-3.904,2.229 -6.672,3.929 -10.831,5.472c-2.071,0.946 -2.729,1.437 -4.803,2.637c-5.472,3.496 -9.103,4.671 -13.531,-0.281c-5.231,-6.003 -7.571,-13.934 -12.771,-19.671c-1.571,-1.969 -4.169,-2.729 -5.197,-5.197c5.472,-3.271 12.231,-0.946 15.603,-7.969c2.504,-5.197 2.863,-9.631 7.029,-14.031c10.169,-10.831 23.971,-18.104 37.272,-24.372c5.472,-2.597 11.434,-3.271 16.903,-5.734c5.871,-2.597 10.171,-6.769 15.234,-10.403c3.271,-2.363 7.163,-4.031 9.903,-7.029c2.229,-2.363 3.669,-5.734 5.734,-8.469c8.072,-10.303 17.704,-18.634 25.272,-29.304c6.897,-9.771 14.703,-18.771 21.471,-28.537c3.531,-4.803 6.269,-10.531 10.031,-15.234c3.531,-4.534 8.6,-7.796 12.003,-12.371c7.269,-9.231 14.434,-19.134 19.537,-29.804c2.331,-5.104 3.1,-10.703 4.671,-16.034c1.703,-5.604 5.328,-10.271 6.397,-16.003c3.1,-16.534 11.971,-31.907 13.403,-48.975c0.663,-7.666 -0.756,-15.503 -0.756,-22.904c0,-4.169 -0.094,-8.729 1.071,-12.631c0.378,-1.437 0.756,-2.863 1.804,-4.031c2.863,-4.169 6.528,-8.331 9.404,-13.431c2.331,-4.169 5.829,-8.331 7.529,-12.631c-0.094,0.569 1.831,-5.069 1.304,-4.534c1.304,-1.571 7.969,-2.229 9.903,-2.097z" /> <path d="M643.638,55.444c0.934,0 1.651,-0.094 2.597,-0.094c11.602,0.668 12.634,17.603 15.771,26.072c3.144,8.701 5.206,17.701 7.175,26.672c1.934,9.766 5.34,18.768 7.937,28.137c2.46,8.333 3.368,15.637 4.031,24.237c0.662,9.634 4.559,18.34 10.031,26.437c4.7,7.27 10.797,13.801 16.531,20.304c7.301,8.066 14.076,16.941 21.872,24.737c6.668,6.634 12.505,12.768 17.071,21.237c3.634,6.763 6.362,13.665 10.031,20.434c9.766,17.066 26.035,22.934 40.638,34.637c9.766,7.968 18.606,17.968 26.937,27.372c5.102,5.831 8.734,11.703 12.371,18.334c7.966,15.636 23.967,24.236 38.038,34.007c2.867,2.203 6.902,5.734 11.071,5.734c3.127,-0.134 4.29,-3.177 7.296,-3.271c-0.535,4.428 -3.275,8.86 -4.031,13.531c-0.66,3.94 -1.069,8.474 -2.097,12.271c-1.04,3.335 -0.54,2.333 -3.137,3.904c-5.831,3.234 -12.23,8.974 -18.334,11.203c-5.37,1.949 -14.07,0.756 -19.804,0.378c-5.727,-0.095 -7.3,-2.6 -11.331,-5.829c-4.437,-3.667 -5.87,-7.305 -8.866,-11.871c-2.337,-3.76 -6.774,-4.566 -10.003,-7.397c-2.727,-2.629 -5.234,-6.137 -7.831,-8.866c-2.201,-2.34 -4.668,-4.974 -6.897,-7.571c-5.732,-6.232 -11.2,-11.969 -17.703,-17.703c-2.597,-2.201 -5.463,-3.901 -8.6,-5.472c-3.262,-1.305 -6,-3.137 -8.331,-5.734c-1.566,-2.858 -2.858,-5.733 -4.429,-8.729c-2.331,-2.2 -4.163,-4.672 -5.734,-7.269c-1.935,-4.303 -3.901,-8.474 -5.604,-12.903c-4.172,-7.563 -10.799,-12.1 -16.903,-17.834c-6.403,-6.137 -11.465,-11.475 -19.537,-14.971c-3.534,-1.426 -7.028,-2.626 -10.431,-4.063c-6.1,-7.934 -10.134,-17.708 -16.403,-25.237c-1.833,-2.366 -4.166,-4.034 -6.237,-6.003c-7.968,-7.934 -14.743,-18.366 -20.071,-28.137c-6.503,-11.566 -10.803,-24.066 -16.934,-35.537c-3.266,-6.138 -4.941,-12.641 -7.937,-18.772c-2.469,-4.803 -5.729,-8.837 -8.866,-13.403c-6.632,-9.1 -9.997,-20.306 -9.903,-31.637c0.094,-8.601 0,-17.203 0,-25.672c-0.128,-6.1 1.04,-11.474 1.703,-17.303c0.569,-5.1 -0.281,-10.3 0,-15.103c0.394,-4.072 1.434,-11.732 3.531,-15.003c1.168,-1.9 1.54,-1.713 3.637,-2.469c1.425,-0.281 3.626,0.378 5.197,0c4.566,-0.762 7.969,-4.788 12.503,-5.734z" /> <path d="M95.645,62.826c-12.133,8.86 -4.033,-1.44 -2.729,-3.271c3.392,-5.468 1.566,-9.767 2.729,-15.871c0.5,-2.609 1.925,-3.401 3.496,-5.472c2.6,-3.675 4.698,-7.699 7.029,-11.471c3.4,-4.934 7.708,-12.231 13.671,-11.203c4.84,0.908 8.334,5.035 13.171,5.604c3.132,0.128 6.232,-1.134 9.503,-1.703c7.803,-1.324 16.133,-0.378 24.337,-0.378c15.004,0 30.237,0.569 45.208,0.094c14.334,-0.66 28.367,-3.797 42.838,-3.797c11.968,0 23.841,-4.668 35.672,-6.371c9.633,-1.562 19.534,-3.437 29.437,-3.531c11.2,-0.094 23.201,-0.868 34.272,0.569c7.806,1.04 15.468,3.259 23.437,3.637c19.903,0.535 39.704,-3.653 59.775,-4.031c29.803,-0.491 59.374,-3.347 89.178,-3.628c25.269,-0.094 49.907,-3.132 75.144,-0.663c12.27,1.2 24.504,3.534 36.607,6.131c11.603,2.607 22.406,7.303 33.737,10.403c22.636,6.399 45.972,14.697 69.544,14.603c8.7,0 17.302,0.541 25.771,-1.831c3.774,-0.767 7.307,-2.34 10.803,-4.671c1.297,-1.833 3.257,-2.759 5.328,-3.137c3.533,3.373 3.175,11.835 2.229,16.004c-1.134,5.24 -0.756,10.443 -0.756,15.771c0,10.8 -0.188,21.366 0,32.037c0,3.125 1.068,5.46 -1.529,6.897c-1.332,0.631 -6.048,-0.288 -6.804,-0.569c-5.468,-1.038 -10.399,-3.765 -15.871,-5.069c-4.84,-1.227 -10.799,-0.281 -15.771,-0.281c-14.303,0.269 -27.872,-5.64 -42.175,-5.734c-3.665,0.538 -7.559,0.272 -11.331,-0.756c-3.662,-1.7 -7.294,-3.641 -10.931,-5.472c-5.873,-2.875 -11.601,-5.191 -18.104,-5.472c-12.501,-0.266 -25.135,0 -37.638,1.937c-10.035,1.703 -20.201,4.706 -30.472,5.734c-15.371,1.531 -31.405,0.094 -46.908,0.094c-10.666,0 -21.606,1.293 -32.037,-1.703c-18.734,-5.354 -37.738,-5.829 -57.141,-5.829c-5.866,0 -11.603,-0.399 -17.337,1.304c-2.999,1.026 -6.003,2.975 -9.103,2.597c-2.497,-0.128 -5.106,-1.816 -7.969,-2.097c-5.068,0.382 -10.274,0.288 -15.471,-0.281c-6.906,-1.434 -14.062,-2.453 -21.237,-2.831c-14.066,0 -27.867,3.496 -41.938,3.496c-19.004,0 -37.37,-4.169 -56.141,-4.169c-14.304,-0.132 -29.037,1.16 -43.108,-1.703c-6.768,-1.798 -13.54,-3.498 -20.171,-5.069c-8.334,-1.04 -16.406,-1.515 -24.737,-0.946c-35.17,0.234 -70.21,2.031 -105.482,1.937z" /> <path d="M269.897,586.444c10.303,0.569 20.704,0.946 30.737,2.469c9.771,1.437 18.371,4.566 28.137,4.837c25.537,0.946 50.008,-2.229 75.412,-3.669c23.437,-1.304 45.838,-9.871 69.412,-11.571c15.871,-1.163 30.737,4.803 46.208,5.604c10.971,0.475 21.772,-0.569 32.437,-1.437c19.271,-1.437 37.372,3.637 56.375,3.637c7.969,0 15.634,-1.571 23.472,-1.937c4.931,-0.281 9.871,0.188 14.834,-0.569c11.971,-1.703 22.271,-4.169 34.637,-2.597c13.034,1.796 23.037,-0.756 35.537,-2.363c7.703,-1.028 15.504,-2.071 22.937,-4.169c5.197,-1.529 11.603,-3.637 16.937,-1.304c1.663,1.831 3.496,3.531 5.328,5.231c2.469,1.571 5.197,2.331 8.204,1.937c7.304,0.094 11.603,-1.163 17.834,3.137c3.531,2.469 5.871,4.031 10.431,4.3c2.071,0.378 5.604,-1.028 7.269,-0.094c4.566,2.203 0.946,13.403 0.094,17.331c-0.281,2.969 0.756,6.631 -2.071,7.666c-1.294,0 -2.863,-0.094 -4.3,-0.378c-2.996,0.378 -5.328,1.571 -7.304,4.031c-3.137,2.637 -6.131,6.131 -9.903,7.437c-4.3,1.437 -10.403,0.281 -14.971,0.281c-7.296,0 -14.331,0.663 -21.737,0.663c-3.797,0 -7.969,0.281 -11.603,-0.946c-2.203,-0.663 -3.496,-1.703 -5.734,-1.831c-3.137,0 -6.897,1.703 -9.903,2.229c-17.034,3.496 -34.507,1.703 -51.708,1.703c-21.337,0.188 -42.175,-1.703 -63.544,-3.403c-21.471,-1.571 -43.108,0.663 -64.712,-0.663c-16.271,-1.028 -32.437,-2.203 -48.708,-1.437c-17.471,0.946 -34.772,1.071 -51.975,1.969c-11.331,0.569 -22.134,3.403 -33.337,3.637c-16.003,0.094 -31.772,4.3 -47.775,6.397c-12.903,1.571 -25.672,1.163 -38.672,1.437c-8.866,0 -17.203,-2.469 -25.937,-2.331c-9.771,0.378 -18.371,4.404 -28.004,4.169c-11.434,-0.378 -22.904,0.475 -34.372,-0.094c-12.103,-0.946 -25.004,-4.429 -36.972,-6.672c-7.437,-1.437 -15.003,-2.469 -22.271,-4.169c-7.304,-1.937 -17.734,-8.469 -25.004,-5.069c-3.137,1.571 -3.669,3.006 -7.571,2.331c-5.069,-1.028 -9.103,-1.796 -14.331,-1.796c-3.366,0.188 -4.931,-0.569 -7.937,-1.304c-4.031,-1.071 -9.103,-0.756 -13.271,-0.569c-4.696,0.378 -9.137,1.831 -13.803,2.071c-6.003,0.094 -10.703,-0.946 -16.171,-1.937c-3.1,-0.569 -4.931,0.378 -6.503,-3.006c-0.569,-1.163 -1.304,-5.472 -1.571,-6.897c-0.663,-4.031 2.097,-14.571 3.904,-18.634c1.071,-2.203 2.863,-5.197 5.231,-5.963c0.756,-0.378 2.597,0.094 3.772,-0.281c1.937,-0.569 3.271,-2.597 5.197,-3.137c3.772,-1.163 9.903,-0.756 13.671,-0.094c4.031,0.569 7.703,2.729 11.731,3.531c5.871,0.756 11.571,0.094 17.571,0.094c5.328,-0.094 9.903,1.663 14.834,2.203c3.669,0.569 6.269,-0.569 9.771,-1.831c9.531,-3.637 17.331,-0.188 27.504,-0.378h13.271c6.503,0 13.031,-0.094 19.537,0c9.103,0.094 18.231,-2.996 27.204,-0.569c10.431,2.996 21.237,2.203 32.172,2.729z" /> <path d="M128.29,702.966c-17.409,-6.228 -5.049,-11.95 -0.378,-12.231c3,-0.382 7.974,-0.747 10.571,0.281c2.472,1.032 4.172,4.434 6.503,5.963c4.7,2.734 10.04,2.875 14.971,5.871c6.001,3.8 12.141,4.04 18.772,6.269c9.088,3.232 7.798,20.167 9.369,27.604c1.718,8.2 4.847,13.675 0.281,21.471c-4.433,8.1 -9.633,20.072 -19.804,22.403c-6.5,1.571 -12.502,1.571 -19.271,1.571c-9.903,0 -18.237,1.435 -26.837,-4.169c-6.64,-4.163 -12.868,-9.906 -18.871,-15.234c-4.869,-4.56 -4.3,-9.234 -4.3,-15.631c-0.134,-6.233 2.568,-11.835 3.137,-18.104c0.503,-5.963 2.194,-12.1 4.566,-17.834c1.544,-4.532 2.744,-9.334 8.072,-9.903c2.865,-0.128 5.606,1.609 8.469,1.703c1.574,0.281 3.232,0 4.803,0z" /> <path d="M308.348,670.048c-2.502,-1.966 4.666,0.632 7.529,1.703c5.097,1.932 6.531,7.672 9.631,11.703c8.847,11.735 10.172,27.236 8.469,41.807c-2.067,16.803 -7.168,29.836 -21.871,39.607c-7.432,5.115 -20.838,6.106 -29.704,4.169c-5.599,-1.072 -10.399,-6.272 -14.303,-10.303c-6.266,-6.76 -10.566,-11.468 -19.537,-14.331c-10.325,-3.5 -12.499,-7.04 -10.703,-17.571c1.837,-8.731 6.137,-16.263 10.703,-23.834c4.403,-7.801 10.003,-15.101 16.134,-21.604c5.863,-7.032 10.165,-7.573 18.634,-9.404c8.333,-2.031 16.275,-1.937 25.004,-1.937z" /> <path d="M576.99,700.365c10.433,-9.105 19.804,4.56 24.104,8.729c7.674,7.801 13.977,20.441 14.071,31.372c0.5,13.301 -1.566,27.735 -10.703,37.638c-5.706,6.275 -11.306,10.668 -19.137,14.071c-7.301,2.858 -14.967,7.341 -22.904,7.529c-2.869,0.287 -12.906,1.475 -15.503,-0.188c-1.7,-1.301 -2.732,-4.969 -4.169,-6.672c-2.734,-2.972 -5.599,-3.906 -9.503,-5.069c-4.574,-1.562 -11.334,-4.17 -13.303,-8.866c-1.309,-4.032 -0.659,-11.834 -0.281,-16.003c0.668,-7.434 4.3,-16.406 6.937,-23.037c3.237,-7.969 6.631,-18.103 12.103,-24.372c9.368,-10.537 25.401,-11.966 38.272,-15.103z" /> <path d="M718.175,681.531c-3.006,-7.437 2.968,-1.571 7.397,0c4.031,1.425 5.468,2.728 8.331,5.197c7.169,6.1 19.275,5.328 27.372,11.331c4.802,3.762 9.5,8.327 14.171,12.231c8.6,7.303 13.294,12.234 10.431,23.437c-4.835,19.803 -22.538,25.901 -40.772,29.172c-8.601,1.573 -14.832,6.772 -22.904,9.369c-8.606,2.86 -16.933,-2.34 -24.237,-6.371c-12.766,-7.17 -29.806,-17.073 -27.337,-34.007c1.165,-9.638 5.338,-21.743 9.369,-30.472c2.337,-5.46 5.731,-12.762 11.203,-15.731c5.203,-2.704 11.83,-2.51 17.434,-2.229c2.368,0 9.437,1.559 9.531,-1.937z" /> <path d="M432.102,681.519c-3.8,-5.777 2.073,-7.175 5.604,-5.871c2.06,0.637 3.76,2.203 5.697,3.366c2.492,1.433 4.832,2.858 7.163,4.429c4.968,3.141 10.574,3.269 15.771,5.472c3.135,1.434 8.728,3.137 10.931,5.734c2.597,3.14 3.129,7.834 4.566,11.471c3.765,9.901 1.168,18.501 -1.969,28.372c-6.77,21.373 -28.136,50.138 -53.508,34.407c-6.766,-4.166 -11.206,-10.297 -19.037,-13.303c-4.162,-1.572 -9.86,-2.074 -11.431,-6.503c-2.409,-6.635 11.159,-29.441 0.188,-31.772c-0.763,-9.9 6.134,-21.767 13.571,-28.004c3.372,-2.727 7.034,-3.625 11.203,-4.696c3.106,-0.631 9.106,-0.131 11.203,-3.1z" /></svg>