<svg xmlns="http://www.w3.org/2000/svg" width="184.1" height="171.538" viewBox="0 0 1841 1715.381"><path d="M857 1714c-2-1-28-4-58-7-84-8-140-19-146-28-3-5-12-9-20-9-48 0-208-98-301-184-98-90-205-309-201-410 2-63-27-98-63-75-25 16-57 10-64-12-4-11-5-44-3-72 4-63 23-78 84-70l41 5 17-63c45-164 93-268 165-356l51-63-40-22c-30-17-41-31-46-56-7-39 6-57 54-78 45-18 61-13 92 33 13 21 25 40 27 42 1 2 8-1 16-7 7-6 49-29 92-50 79-39 207-72 278-72h35l-4-67c-4-77 5-93 52-93 49 0 76 30 74 83-3 76-5 74 63 81 73 7 77 8 142 28 62 20 147 59 200 92l40 24 62-59c34-32 68-59 76-59 22 0 67 44 67 65 0 19-94 115-113 115-5 0 13 26 40 57 74 86 133 230 133 324 0 63 9 79 45 79 17 0 47 5 65 11l32 12-6 66c-7 74-25 96-66 85-60-16-69-14-75 19-13 67-60 204-88 257-95 180-256 311-469 381-77 25-271 62-280 53m97-94c112-18 194-44 278-87 194-97 306-241 367-468 23-88 24-93 8-92-7 1-39-2-70-6-64-9-85-25-65-49 12-15 102-48 131-48 35 0 10-204-36-299-12-25-36-65-53-88-36-50-64-54-107-18-39 33-78 34-78 2 0-12 11-39 25-59 32-48 33-48-150-128-30-14-134-37-186-43l-47-4-10 52c-22 111-63 162-70 89-6-65-24-133-35-137-16-6-119 9-172 25-51 15-163 67-171 80-3 5 15 36 40 68 51 64 59 100 24 100-11 0-37-12-57-27-19-16-51-36-71-45-33-16-36-16-47 0-7 9-22 26-32 38-29 31-85 132-111 199-12 33-26 67-31 77-4 9-11 39-15 66-7 53-8 52 68 67 10 2 27 13 39 24 18 17 20 23 9 36-7 8-25 15-40 15s-41 3-58 6c-30 6-30 7-31 70-1 97 43 218 112 309 27 35 75 80 167 156 54 45 197 107 270 116 19 3 37 7 39 9 7 7 113 3 166-6"/><path d="M709 1463c-20-8-28-21-40-66-10-33-7-44 24-106l35-69-24-6c-89-22-265-181-265-238 0-16-4-37-10-47-20-38 65-152 151-201 50-30 119-60 134-60 25 0 26-18 2-47-13-15-31-40-40-55-21-34-23-98-3-98 8 0 17-7 20-16 5-13 29-15 165-13 192 3 301 16 301 36 0 21-23 62-63 113-20 24-33 48-31 52 3 4 30 20 60 34 73 35 209 170 248 245l28 56-21 41c-27 53-87 110-148 142-26 14-51 28-54 32-3 5-29 15-57 23l-52 16 35 63c19 35 35 75 35 89 0 39-51 57-195 67-66 5-142 12-170 14-27 3-57 3-65-1m270-97c19 0 50 3 68 7 17 4 32 3 32-2s-20-34-46-65l-45-56h-95c-53 0-94 4-94 10 0 5-13 32-30 60-16 28-30 53-30 56 0 2 46 1 103-3 56-4 118-7 137-7m-68-208c-12-32-15-38-21-38-4 0-12 10-18 23-10 21-8 23 16 22 14 0 25-3 23-7m-78-79c27-32 55-59 62-59 8 0 21 12 31 28 46 73 75 102 102 102 53 0 65-24 77-155 3-33 1-85-6-115-6-30-14-67-17-81-7-39 12-44 37-9 61 86 65 260 7 309-10 7-17 17-17 22 0 13 109-48 159-90 25-20 52-41 60-48 14-11 5-23-64-89-99-95-128-117-200-154l-57-29-27 32c-16 18-33 42-40 54-6 13-23 26-38 29-29 8-51-12-85-74l-17-31-58 19-58 20-1 48c-1 26-2 74-4 108-1 33 3 84 10 113s9 55 6 58c-10 10-54-18-73-46-23-33-22-147 1-208 12-34 12-43 2-43-19 0-99 63-135 107-28 34-29 38-13 44 9 4 31 22 47 41 69 78 218 175 249 162 6-3 33-32 60-65m73-348c10-16 9-20-3-25-22-9-33 1-27 24 7 25 15 25 30 1m108-153c19-26 35-49 35-51s-35-4-77-6c-43-1-113-5-156-9-43-5-80-6-82-4-2 3 14 31 36 62l40 58 85-1 85-1z"/></svg>