<svg xmlns="http://www.w3.org/2000/svg" width="150.567" height="148.524" viewBox="0 0 1505.671 1485.242"><path d="M847.21 1483.742c-4-4-209-12-533-21-255-6-252-6-281-37l-25-27-4-278c-7-444-5-882 4-946 4-32 7-75 5-95s0-41 4-48c6-9 116-13 417-17 226-3 546-8 712-12 298-5 302-5 323 16 15 15 18 25 12 33-10 12-8 817 1 902 3 22 6 130 6 239 1 117 6 207 12 219 19 35-11 51-99 54-358 9-529 15-539 18-6 2-13 2-15 0m567-96c12-13 5-401-11-554-7-69-6-527 2-650l7-116-284 6c-156 3-304 8-329 10s-202 6-395 10c-192 3-350 7-351 8 0 1 2 36 7 77 6 65 21 755 23 1087l1 113h60c118 1 430 12 434 16 6 5 830-2 836-7"/><path d="M1285.21 1332.742c-33-109-33-680-1-1025 7-81 17-102 34-71 13 25 14 938 0 1032-10 68-23 94-33 64"/><path d="M289.21 1293.742c-17-21 11-31 110-40 123-10 778-6 822 6 41 11 60 29 31 29-10 1-198 3-418 5s-430 6-466 9c-50 4-70 2-79-9m-71-41c-1-10-3-28-4-39s-6-56-10-100c-5-44-10-89-12-100-1-11-4-137-6-280-4-271 3-448 16-461 16-16 25 14 31 96 9 128 10 745 1 825-7 71-14 94-16 59m242-254c-60-28-106-79-120-135-3-11-5-47-6-80 0-119 86-231 187-242 46-5 105 14 128 41 7 9 26 16 42 16 34 0 88 34 88 56 0 8 4 14 9 14 11 0 20 31 27 91 7 54-20 126-64 172-70 75-208 106-291 67m204-98c52-36 77-84 72-139-7-68-77-184-77-128 0 19-31 17-87-6-43-18-88 4-127 60-24 34-29 53-30 99-1 66 17 101 67 133 44 28 126 19 182-19"/><path d="M543.21 792.742c-7-29 7-44 43-44 26 0 40 34 23 55-21 25-59 19-66-11m476 166c-12-7-15-32-13-125 1-121 9-146 44-140 37 7 39 15 36 136-2 94-5 122-17 129-19 12-31 12-50 0m-42-706c-3-3-183-7-399-9-262-3-396-8-403-16-21-21 29-47 105-54 86-9 461-9 614 0 216 12 351 42 321 73-8 7-231 14-238 6"/></svg>