<svg xmlns="http://www.w3.org/2000/svg" viewBox="0 0 878 896" width="878" height="896"><path d="M587.345,893.161c-2.549,-1.732 -13.623,-7.876 -24.607,-13.654c-55.064,-28.959 -96.331,-53.552 -156.256,-93.117c-36.185,-23.891 -74.78,-49.356 -85.764,-56.586c-16.732,-11.014 -54.677,-40.047 -58.742,-44.947c-0.646,-0.778 -8.047,-6.618 -16.448,-12.978c-8.401,-6.36 -23.29,-18.999 -33.089,-28.087c-24.129,-22.379 -45.062,-40.341 -62.59,-53.711c-8.039,-6.131 -15.44,-12.509 -16.448,-14.174c-1.008,-1.665 -8.177,-7.664 -15.93,-13.332c-18.454,-13.49 -48.17,-37.337 -78.29,-62.823c-13.335,-11.284 -27.451,-23.195 -31.368,-26.47l-7.121,-5.954l8.043,-137.887l12.528,-15.566c14.335,-17.812 197.732,-197.855 218.654,-214.655c7.61,-6.111 19.893,-15.93 27.293,-21.819c7.4,-5.889 16.569,-15.163 20.374,-20.609c3.804,-5.446 17.571,-20.452 30.594,-33.347l23.676,-23.445l16.99,5.785c20.817,7.088 33.682,15.756 64.253,43.292c13.013,11.722 29.263,25.542 36.11,30.71c6.847,5.168 16.374,12.571 21.173,16.448c4.797,3.877 16.336,12.336 25.641,18.797c9.305,6.461 28.254,19.93 42.106,29.93c13.853,10.001 36.082,25.861 49.396,35.245c13.314,9.384 37.106,27.163 52.869,39.505c15.763,12.342 44.521,32.892 63.905,45.662c19.384,12.77 40.005,27.62 45.819,32.997c5.816,5.377 18.697,15.491 28.626,22.478c9.929,6.987 23.723,16.695 30.652,21.576c6.929,4.879 22.941,19.255 35.582,31.943l22.983,23.07l-4.669,197.638l-28.978,33.333c-25.63,29.482 -56.942,66.61 -97.123,115.167c-26.003,31.423 -44.235,55.195 -53.904,70.277c-11.235,17.526 -11.424,17.696 -65.84,58.957c-5.966,4.523 -15.134,11.66 -20.376,15.86c-10.607,8.502 -13.011,9.048 -19.722,4.487zM608.592,701.595c8.534,-3.877 38.734,-31.941 38.734,-35.995c0,-0.92 12.271,-14.679 27.266,-30.576c14.995,-15.897 31.062,-33.662 35.702,-39.476c4.64,-5.816 11.865,-14.274 16.056,-18.797c4.191,-4.523 13.451,-17.212 20.579,-28.197c23.97,-36.945 23.78,-36.734 41.442,-46.015c23.577,-12.389 28.41,-20.211 30.631,-49.58c2.539,-33.567 -1.698,-43.161 -25.179,-57.022c-7.555,-4.459 -17.968,-11.87 -23.136,-16.468c-5.168,-4.598 -16.141,-13.108 -24.381,-18.912c-8.24,-5.804 -22.083,-16.899 -30.759,-24.653c-26.547,-23.723 -37.903,-32.598 -62.41,-48.767c-12.959,-8.55 -30.812,-21.945 -39.672,-29.767c-9.763,-8.617 -25.011,-18.694 -38.703,-25.573c-25.736,-12.93 -33.87,-18.062 -60.19,-37.972c-10.339,-7.82 -23.397,-16.42 -29.018,-19.111c-10.115,-4.842 -13.015,-6.647 -47.347,-29.476c-9.693,-6.445 -22.534,-14.537 -28.538,-17.981c-6.004,-3.444 -16.049,-11.045 -22.323,-16.891c-12.905,-12.024 -23.677,-16.496 -34.528,-14.332c-12.285,2.448 -38.437,21.315 -43.617,31.466c-2.521,4.942 -8.216,11.559 -12.655,14.706c-35.539,25.186 -56.836,43.85 -88.918,77.921c-51.807,55.022 -88.689,90.412 -100.005,95.959c-10.399,5.097 -19.526,19.301 -19.526,30.389c0,11.149 9.096,24.416 24.113,35.169c8.062,5.774 23.117,17.49 33.455,26.036c10.338,8.546 33.313,25.5 51.054,37.672c17.742,12.173 39.417,27.119 48.168,33.215c8.751,6.096 30.187,24.091 47.634,39.991c45.063,41.069 113.102,93.433 121.401,93.433c0.822,0 10.059,4.942 20.525,10.983c10.466,6.041 28.016,15.521 39.001,21.068c10.984,5.547 27.375,14.856 36.421,20.687c30.692,19.785 39.934,24.758 46.047,24.78c3.356,0.012 8.644,2.27 11.749,5.017c13.175,11.655 25.965,13.862 40.928,7.064zM432.571,549.784c-5.036,-1.795 -10.803,-4.91 -12.817,-6.923c-3.313,-3.312 -3.281,-3.941 0.347,-6.62c2.205,-1.629 7.442,-7.922 11.641,-13.986c4.199,-6.064 16.965,-22.453 28.371,-36.421c11.404,-13.966 28.535,-37.025 38.066,-51.241c9.531,-14.216 21.269,-31.662 26.083,-38.771c4.814,-7.107 18.877,-24.904 31.25,-39.547c12.373,-14.643 25.669,-30.724 29.547,-35.737c3.877,-5.012 7.923,-9.156 8.993,-9.208c3.732,-0.184 15.452,13.454 17.059,19.85c1.362,5.425 0.423,7.385 -5.908,12.341c-9.292,7.273 -14.217,15.015 -37.849,59.508c-10.284,19.365 -22.894,40.733 -28.02,47.484c-10.177,13.405 -19.65,25.752 -31.32,40.814c-4.15,5.356 -10.452,13.495 -14.007,18.085c-3.555,4.59 -13.757,13.367 -22.673,19.504c-8.916,6.137 -17.964,14.122 -20.105,17.747c-4.397,7.442 -5.848,7.686 -18.658,3.121zM319.756,458.164c-11.652,-4.189 -17.319,-9.879 -21.263,-21.356l-3.129,-9.106l10.721,-9.479c5.897,-5.214 15.039,-12.582 20.314,-16.376c31.455,-22.619 45.078,-34.144 67.308,-56.94c23.285,-23.877 41.243,-44.21 53.154,-60.184c2.823,-3.787 13.397,-12.952 23.498,-20.366c10.101,-7.414 19.816,-15.234 21.589,-17.374c3.969,-4.791 8.228,-4.97 11.936,-0.501c2.248,2.709 1.6,5.176 -3.237,12.294c-3.327,4.897 -6.051,10.325 -6.051,12.061c0,5.86 -53.003,70.334 -94.047,114.4c-8.434,9.053 -19.128,21.218 -23.765,27.035c-14.203,17.809 -42.347,48.139 -45.171,48.683c-1.468,0.283 -6.802,-0.973 -11.854,-2.789zM224.276,377.38c-9.637,-6.194 -18.87,-12.915 -20.52,-14.936c-2.548,-3.122 -2.134,-3.894 2.756,-5.12c8.057,-2.023 19.076,-11.82 22.449,-19.958c2.696,-6.511 15.491,-17.934 69.434,-61.997c12.924,-10.556 35.811,-31.828 50.862,-47.269c27.216,-27.923 27.404,-28.06 34.349,-25.182c3.842,1.591 10.48,6.5 14.753,10.908c7.726,7.972 7.744,8.043 3.245,13.046c-4.562,5.075 -25.972,19.519 -45.839,30.923c-14.678,8.425 -60.041,52.348 -80.395,77.838c-9.167,11.482 -20.473,28.105 -25.123,36.941l-8.453,16.065z" /></svg>