<svg xmlns="http://www.w3.org/2000/svg" width="135.147" height="170.151" viewBox="0 0 1351.467 1701.507"><path d="M809 1674.508c-36-40-56-74-81-140-22-61-58-123-70-123-10 0-10 8 2 49 5 19 12 63 16 98 5 53 3 64-11 69-24 10-37-9-50-72l-11-56-29 72c-21 53-38 78-60 92-36 22-58 20-63-6-4-20 55-168 100-253 50-95 12-64-62 50-74 115-144 197-167 197-27 0-9-41 60-141 135-195 185-280 181-307-8-52-16-77-27-90-29-36-5-71 44-63 9 1 19-5 22-14 4-8 16-15 27-15 16 0 20 7 20 30 0 17 2 30 4 30 12 0 59-30 70-45 8-11 18-15 25-10 15 9 9 51-21 142l-21 63 38 55c21 30 41 55 45 55s15 16 26 35c10 19 21 35 25 35 6 0 89 117 89 126 0 3 9 17 19 32 11 15 22 38 26 50 6 22 5 23-17 17-25-8-44-28-114-122-26-35-51-63-56-63-4 0-8-6-8-12-1-14-34-58-44-58-11 0 36 85 62 110 36 36 82 101 82 116 0 8-8 10-22 7-19-5-21-3-10 8 16 18 16 79-1 79-7 0-25-12-38-27"/><path d="M275 1530.508c-22-12-41-25-43-30s-8-9-13-9c-13 0-99-85-99-97 0-5-13-27-28-49-50-69-92-214-92-317 0-109 37-257 64-257 5 0 28 20 52 43 46 47 52 45 52-18 1-37 32-156 74-277 28-82 32-105 31-193 0-55-6-113-12-130-10-25-10-31 5-42 33-24 50-15 84 48 36 67 60 146 60 197 0 17 3 32 8 32 4 0 19-22 35-48 15-26 49-81 76-123s63-116 80-164c17-49 31-91 31-92 0-11 39 0 44 13 17 45 1 258-32 414-21 97-34 240-23 239 8 0 78-106 114-173 53-95 145-281 152-306 16-56 49-110 67-110 23 0 23 7-2 81-31 91-32 167-3 299 24 112 26 199 8 258-4 12-3 22 2 22 6 0 26-35 45-77 49-107 69-170 104-315 15-61 23-78 37-78 37 0 94 194 82 280-19 139-66 304-112 398-20 40-33 75-30 79 7 6 51-32 143-123 39-39 57-66 70-108 10-31 21-56 25-56 11 0 23 79 20 145-3 102-47 260-95 345-10 19-35 64-53 100-41 77-75 124-122 165-68 61-92 63-127 14l-22-30 22-52c11-29 24-54 27-57s14-20 23-37c19-38 21-36-70-33-72 2-70 8-43-130 10-52 19-123 19-158v-63l-47 45c-61 60-71 59-65-3 2-28 1-85-3-127l-7-78-48 56c-60 67-115 110-147 114-27 3-62-43-83-108-22-70-39-37-42 80-1 34-5 62-10 62-10 0-43-32-56-56-35-62-8 82 30 166 14 30 29 69 32 85 6 27 4 31-16 34-47 5-124 4-140-4-35-15-18 20 38 75 30 30 57 65 60 77 4 13-5 44-20 77-14 30-26 59-26 64 0 9-32 42-41 42-2 0-22-10-44-21"/></svg>