<svg xmlns="http://www.w3.org/2000/svg" viewBox="0 0 846 704" width="846" height="704"><path d="M313.306,0.108c0.971,-0.247 2.075,-0.038 3.127,0c4.945,0.038 9.933,0 14.878,0h61.45c16.633,0 33.057,-0.454 49.485,2.103c4.543,0.698 8.879,2.48 13.261,3.773c7.182,2.119 14.321,4.265 21.455,6.415c7.464,2.273 15.045,4.121 22.586,6.144c6.735,1.825 13.26,4.211 19.998,6.036c5.878,1.617 11.922,2.342 18.002,3.074c7.666,0.854 15.337,2.342 22.963,3.72c8.517,1.501 17.093,2.81 25.603,4.312c4.382,0.73 8.735,1.628 12.99,2.965c7.709,2.475 15.443,7.986 21.076,13.745c1.627,1.657 3.105,3.906 5.337,4.958c3.082,1.429 7.453,0.682 10.781,1.724c3.245,0.971 5.757,3.421 8.355,5.444c3.12,2.485 6.443,4.829 9.488,7.386c2.88,2.473 5.04,5.478 7.44,8.355c2.871,3.493 6.153,6.739 8.949,10.349c4.946,6.327 8.762,13.173 15.093,18.327c1.658,1.333 3.366,2.684 5.066,3.988c1.657,1.221 3.107,1.647 4.851,2.481c3.203,1.628 6.248,6.45 8.678,8.839c9.166,9.046 16.844,18.846 23.824,29.594c6.815,10.427 12.205,21.569 18.651,32.235c4.547,7.462 7.662,15.565 12.451,22.908c3.483,5.311 6.08,11.163 9.649,16.44c3.849,5.759 6.92,11.82 10.402,17.788c3.079,5.191 5.088,10.569 7.925,15.846c5.194,9.654 9.274,19.69 12.883,30.025c2.64,7.667 5.193,15.436 8.355,22.853c2.105,4.953 3.54,9.832 4.958,14.986c1.221,4.541 1.796,9.196 2.965,13.745c1.346,5.357 3.763,10.318 5.715,15.472c1.66,4.546 2.848,9.3 4.152,13.962c2.753,9.653 5.478,19.273 8.355,28.892c3.454,11.44 6.911,23.111 8.894,34.876c0.235,1.424 0.106,2.845 0.215,4.259c-0.412,-1.509 -0.972,-2.266 -1.617,-2.802c-1.906,-1.628 -3.972,-2.239 -6.036,-3.449c-1.459,-0.847 -2.052,-1.419 -3.72,-1.942c-3.171,-1.011 -6.285,-2.294 -9.488,-3.234c-13.709,-4.214 -29.221,-2.499 -43.337,-2.426c-8.231,0.041 -16.217,-0.623 -24.363,-1.457c-3.047,-0.324 -6.017,-0.438 -8.894,-1.617c-2.262,-0.935 -4.109,-2.454 -6.468,-3.394c-5.027,-1.942 -9.85,-4.369 -14.878,-6.362c-2.232,-0.888 -3.726,-0.931 -5.876,-1.348c-1.825,-0.333 -3.405,-1.14 -5.23,-1.348c-2.714,-0.31 -5.202,0.086 -7.871,-0.646c-3.856,-1.044 -7.926,-1.264 -11.859,-1.996c-4.381,-0.855 -8.395,-3.048 -12.777,-3.988c-4.621,-1.021 -9.447,-0.954 -14.068,-2.049c-3.729,-0.888 -7.187,-1.963 -10.995,-2.588c-4.87,-0.77 -9.017,-1.869 -13.962,-1.832h-8.192c-1.835,0 -3.553,-0.139 -5.337,0.486c-2.17,0.732 -2.08,1.002 -3.02,2.588c-0.565,0.929 -1.163,2.278 -2.103,2.695c-1.336,0.696 -4.17,-0.053 -5.715,-0.053c-4.506,0 -8.701,-0.293 -13.206,-1.025c-3.89,-0.522 -7.558,-0.466 -11.534,-0.539c-5.151,-0.071 -10.184,-1.531 -15.253,-2.263c-5.557,-0.781 -11.042,-1.584 -16.603,-2.316c-7.791,-1.096 -15.894,-2.879 -23.718,-3.504c-7.832,-0.556 -15.733,0.155 -23.557,-0.053c-5.476,-0.166 -10.787,-1.628 -16.064,-2.965c-4.014,-1.022 -8.126,-1.585 -12.183,-2.21c-4.702,-0.732 -9.321,-0.577 -14.068,-0.539c-2.15,0 -4.971,0.131 -6.954,-0.809c-3.411,-1.627 -7.275,-4.422 -9.756,-7.386c-1.661,-2.067 -2.446,-3.703 -4.637,-5.121c-1.377,-0.888 -2.578,-1.735 -4.205,-2.049c-3.9,-0.759 -10.029,-2.146 -13.962,-0.809c0.418,0.813 0.914,1.221 0.809,2.316c0,0.895 -0.991,1.211 -0.918,2.263c-1.825,0.626 -4.41,0.107 -6.362,0.107h-8.032c-6.121,0 -12.419,0.416 -18.541,-0.107c-10.705,-0.926 -21.336,-3.149 -31.963,-4.527c-8.962,-1.137 -18.002,-3.296 -27.005,-3.504c-9.697,-0.314 -19.418,0 -29.108,0h-11.373c-2.47,0 -4.361,0.131 -6.468,-0.809c-2.191,-0.971 -4.577,-2.937 -7.007,-2.103c-1.617,0.532 -3.068,1.809 -4.527,2.749c-1.672,0.971 -3.476,1.702 -5.176,2.642c-2.922,1.544 -4.795,3.477 -6.254,6.522c-0.772,1.543 -0.893,3.52 -2.802,4.043c-1.546,0.417 -3.657,0.332 -5.284,0.646c-3.403,0.626 -7.029,0.92 -10.511,1.025c-3.005,0.084 -5.714,1.25 -8.678,1.564c-5.313,0.565 -10.604,1.357 -15.956,1.671c-4.015,0.198 -8.184,1.424 -12.073,2.156c-4.708,1.012 -9.279,1.585 -14.068,2.21c-3.203,0.396 -6.563,0.251 -9.649,1.293c-4.334,1.505 -8.855,2.566 -13.151,4.152c-4.549,1.658 -9.274,1.904 -13.855,3.449c-3.896,1.332 -7.789,2.754 -11.805,3.933c-4.907,1.43 -9.844,2.925 -14.714,4.582c-5.392,1.869 -11.077,3.166 -16.385,5.23c-8.192,3.244 -16.801,5.247 -25.281,7.761c-9.695,2.836 -19.596,5.106 -29.215,8.192c-7.216,2.314 -14.475,4.522 -21.775,6.629c-7.26,2.066 -14.141,5.29 -21.401,7.44c-4.945,1.46 -10.016,3.175 -14.554,5.605c-0.858,0.438 -4.236,2.854 -5.176,2.749c-1.094,-6.044 -2.07,-12.259 -2.695,-18.381c-0.417,-3.895 -1.271,-7.872 -0.539,-11.805c0.855,-4.829 1.582,-9.567 3.127,-14.229c1.546,-4.71 2.276,-9.889 4.259,-14.394c2.277,-5.115 3.883,-10.023 5.176,-15.417c1.135,-4.783 3.149,-9.268 4.527,-14.015c1.388,-4.791 2.436,-9.671 3.773,-14.501c1.012,-3.729 2.619,-7.273 3.559,-11.05c0.561,-2.43 0.943,-4.819 1.777,-7.168c1.668,-4.829 3.444,-9.594 5.551,-14.175c2.191,-4.782 4.415,-9.55 6.522,-14.339c2.024,-4.661 3.169,-9.622 5.121,-14.284c4.052,-9.694 7.033,-19.736 11.373,-29.268c6.854,-15.008 14.704,-29.873 24.363,-43.337c5.592,-7.786 9.754,-16.356 14.823,-24.47c3.89,-6.204 8.202,-12.384 12.344,-18.434c3.409,-4.906 6.993,-9.806 11.05,-14.229c4.181,-4.542 9.012,-8.65 13.476,-12.99c5.68,-5.515 12.24,-10.083 17.842,-15.685c4.705,-4.708 9,-9.74 13.423,-14.768c3.369,-3.854 6.823,-7.638 10.349,-11.373c5.274,-5.557 11.197,-10.317 16.225,-16.118c5.799,-6.775 11.955,-13.252 17.681,-20.105c3.688,-4.462 7.55,-9.121 11.805,-13.097c9.128,-8.558 20.476,-16.949 31.75,-22.424c7.176,-3.537 14.49,-6.673 21.668,-10.242c5.476,-2.721 10.923,-5.668 16.44,-8.139c7.382,-3.285 14.82,-6.826 22.207,-9.703c1.012,-0.44 1.439,-1.195 2.481,-1.403zM405.965,90.024l-0.918,1.564c-1.576,-0.44 -2.328,1.065 -2.642,2.316c-0.417,1.51 -0.105,-0.175 0,1.777c0.107,0.691 0.224,1.749 0.432,2.481c0.646,1.992 3.767,3.89 5.551,4.098c4.578,0.638 4.775,-4.39 4.043,-7.761c-0.101,-0.48 -0.385,-1.686 -0.699,-2.103c-0.523,-0.732 -0.778,-0.554 -1.51,-0.971c-1.21,-0.691 -2.757,-1.717 -4.259,-1.403zM559.224,92.397c-1.251,-0.038 -2.587,0.053 -3.88,0.053h-8.032c-1.617,0 -3.37,-0.202 -4.905,0.215c-1.66,0.418 -2.991,0.392 -4.691,0.809c-2.756,0.616 -5.788,1.781 -7.979,3.449c-2.43,1.867 -4.092,3.587 -5.876,6.144c-1.702,2.557 -3.264,5.068 -4.098,8.032c-0.76,2.712 -2.409,4.949 -3.504,7.547c-1.1,2.627 -1.5,5.289 -1.832,7.979l-1.403,1.025c0.178,0.773 -0.817,3.319 -1.025,4.259c-0.417,2.189 -0.646,3.967 -0.646,6.199c0,4.335 -0.294,8.565 0.646,12.83c0.478,2.389 1.045,4.531 1.777,6.847c1.166,3.401 3.861,6.647 5.605,9.809c2.515,4.454 4.895,7.967 9.11,10.888c7.949,5.435 17.005,10.44 26.736,10.402h8.518c2.837,0.042 4.845,-0.56 7.6,-1.185c5.229,-1.139 9.251,-4.231 13.745,-6.954c4.301,-2.557 7.538,-6.37 10.781,-10.188c3.17,-3.735 5.038,-7.385 6.738,-11.966c1.012,-2.628 2.488,-5.894 2.802,-8.731c0.239,-1.784 -0.053,-3.713 -0.053,-5.497c0,-4.382 0.053,-8.892 -1.564,-12.99c-1.093,-2.756 -1.984,-5.92 -3.288,-8.518c-0.565,-1.086 -1.478,-1.913 -2.103,-2.965c-0.649,-1.138 -0.88,-2.339 -1.403,-3.559c-1.703,-4.058 -4.244,-8.277 -7.979,-10.834c-3.687,-2.526 -8.14,-4.59 -12.238,-6.415c-3.736,-1.67 -7.333,-3.452 -11.266,-4.745c-2.034,-0.691 -4.117,-1.837 -6.308,-1.942zM220.371,161.98l-3.288,0.809c-2.918,-0.03 -7.69,1.577 -8.785,4.905c-1.251,3.736 -0.495,9.357 3.074,11.266c1.784,0.941 1.422,0.693 3.613,0.379c1.825,-0.27 3.899,-0.046 5.444,-1.185c1.867,-1.46 2.065,-3.487 2.588,-5.551c0.53,-2.273 2.025,-3.985 1.293,-6.415c-0.646,-2.232 -2.846,-2.276 -4.473,-3.613c0.104,-0.208 0.331,-0.384 0.539,-0.592zM374.809,229.633c-0.967,0.024 -1.935,0.337 -2.588,0.754c-0.763,0.449 -3.076,2.509 -3.181,3.449c-0.102,0.646 0.71,2.395 0.918,3.127c0.366,1.305 0.623,2.581 1.457,3.72c1.138,1.566 2.937,1.585 4.637,2.21c3.526,1.337 7.608,1.555 7.816,-3.234c0.083,-2.064 -0.565,-3.319 -1.617,-4.905c-0.649,-0.939 -2.273,-2.193 -2.481,-3.288l-2.481,-0.864c-0.55,-0.732 -1.514,-0.999 -2.481,-0.971zM139.252,318.895c-2.296,-0.253 -4.857,0.053 -7.168,0.053l-1.617,0.864c0.043,0.858 -1.47,2.288 -1.887,3.02c-0.565,0.885 -1.148,1.755 -1.671,2.695c-1.134,2.233 -0.129,4.319 1.457,6.144c2.024,2.313 3.139,2.892 6.144,2.855c2.751,-0.106 6.864,0.574 9.378,-0.971c3.233,-2.028 2.778,-8.577 1.078,-11.373c-1.362,-2.232 -3.419,-3.035 -5.715,-3.288zM844.032,446.318c-0.001,0.866 0.107,1.715 0.107,2.588l-0.053,-0.16c0.059,-1.275 -0.068,-1.397 -0.053,-2.426z" /> <path d="M472.171,403.141c1.502,0.523 2.877,1.983 4.057,3.045c1.784,1.535 3.569,3.076 5.352,4.621c1.576,1.378 3.36,3.005 4.538,4.789c0.625,0.94 0.732,2.023 1.586,2.921c0.314,0.417 0.94,0.523 1.261,0.94c0.732,0.94 1.052,2.273 1.952,3.284c1.042,1.139 2.712,1.744 3.569,3.035c1.378,2.191 -1.983,6.248 -3.526,8.2c-2.15,2.837 -5.308,3.328 -7.875,5.277c-4.86,3.65 -10.83,6.32 -16.55,8.597c-5.394,2.15 -11.395,4.016 -17.075,5.352c-7.865,1.825 -15.901,4.296 -23.931,5.352c-7.178,0.94 -14.642,1.825 -21.902,1.784c-4.464,0 -8.917,-0.037 -13.382,0c-2.557,0 -5.308,0.417 -7.794,-0.105c0.625,-0.732 1.627,-1.042 2.557,-1.261c3.284,-0.732 6.573,-1.337 9.898,-2.273c8.032,-2.273 15.941,-4.945 23.849,-7.585c4.423,-1.502 8.719,-3.119 13.261,-4.255c5.602,-1.337 10.787,-2.964 15.859,-5.633c2.755,-1.502 4.87,-3.13 7.3,-4.987c1.866,-1.418 4.662,-2.598 5.924,-4.549c2.118,-3.244 3.933,-10.584 2.43,-14.316c-1.586,-4.184 -3.933,-8.241 -6.05,-12.128c-1.378,-2.557 -2.316,-5.277 -3.735,-7.794c-0.523,-0.94 -3.482,-5.069 -1.251,-5.561c0.625,-0.105 1.139,0.625 1.535,0.94c1.668,1.095 3.328,2.064 5.069,3.005c2.723,1.459 5.517,2.796 7.794,4.86c1.617,1.459 3.61,2.4 5.308,3.777c1.866,1.576 3.086,3.848 -0.038,0.732z" /> <path d="M382.266,376.061c1.507,1.378 6.617,1.419 11.436,2.639c-0.519,1.971 -4.942,1.552 -6.487,1.866c-5.313,1.012 -10.744,1.231 -16.063,2.273c-8.234,1.5 -16.55,2.232 -24.905,2.232h-28.551c-2.104,0 -4.056,0.105 -6.08,-0.417c-2.024,-0.522 -3.89,-0.312 -6.04,-0.417c-1.744,-0.102 -2.712,-0.834 -4.621,-0.834c-1.709,0 -2.837,0.218 -4.098,-0.834c-2.087,-1.626 -1.596,-6.131 0.834,-7.3c2.024,-0.92 5.506,0.208 7.499,0.625c4.016,0.793 8.273,0.686 12.371,1.418c4.132,0.731 8.356,0.417 12.53,0.417h18.579c4.459,0 9.039,0.277 13.503,-0.037c3.614,-0.239 7.179,-1.001 10.748,-1.418c3.117,-0.21 6.194,-0.105 9.324,-0.105z" /> <path d="M659.304,402.304c-4.016,1.856 -1.952,1.749 0,2.481c2.553,0.93 5.435,1.657 8.312,2.389c6.205,1.709 12.37,3.534 18.618,4.912c5.68,1.251 11.158,4.194 16.832,5.028c-0.93,0.106 -1.459,-0.417 -2.191,-0.834c-2.024,-0.971 -3.442,-1.932 -5.674,-2.557c-4.698,-1.261 -9.851,-1.805 -14.681,-2.639c-8.802,-1.459 -17.813,-3.035 -26.73,-3.035c-5.348,0 -11.275,-0.742 -16.385,1.042c-1.125,0.407 -2.806,1.177 -3.848,1.909c-1.22,0.93 -2.682,3.674 -4.382,3.569c-0.21,-1.139 -0.178,-2.796 -0.105,-4.016c0.198,-2.181 1.764,-3.569 2.389,-5.633c0.615,-2.035 1.18,-3.047 2.964,-4.549c1.302,-1.055 2.471,-1.942 4.098,-2.15c1.586,-0.209 3.089,0.208 4.591,0.625c3.076,0.727 6.279,0.834 9.324,1.459c2.355,0.488 4.577,1.606 6.936,2.023z" /> <path d="M750.118,426.827c0.732,0.834 2.639,1.418 3.65,2.064c1.251,0.732 2.471,1.378 3.691,2.232c2.669,1.866 5.475,3.526 8.19,5.308c1.418,0.94 2.796,1.983 4.016,3.086c1.586,1.502 3.526,2.023 4.987,3.848c2.023,2.514 3.61,5.352 1.545,8.312c-1.261,1.7 -3.889,3.65 -5.715,4.538c-1.095,0.523 -2.837,0.732 -4.057,1.139c-1.744,0.523 -3.65,0.94 -5.475,1.169c-2.349,0.314 -4.538,-0.037 -6.936,0.523c-2.316,0.523 -4.549,1.378 -6.936,1.825c-9.003,1.7 -18.253,1.909 -27.418,1.909c-8.114,0 -16.062,-0.834 -24.173,-0.834c9.898,-0.074 19.465,-1.952 29.244,-3.284c7.541,-1.042 16.506,-1.7 22.792,-6.364c2.723,-2.023 2.639,-3.203 2.598,-6.614c-0.037,-2.755 0.314,-5.236 -0.732,-7.824c-0.94,-2.316 -2.191,-4.142 -3.526,-6.122c-0.834,-1.337 -2.389,-2.766 4.296,-4.945z" /> <path d="M243.302,492.206c10.585,0 21.175,0.208 31.796,0.625c6.531,0.279 12.655,0.04 18.944,2.023c3.772,1.221 7.546,1.75 11.479,2.273c5.105,0.689 10.342,0.689 15.329,1.993c4.1,1.085 8.076,2.189 12.331,2.712c3.936,0.489 7.662,0.936 11.562,1.668c1.408,0.31 2.587,0.31 3.848,1.042c-13.105,-0.483 -26.569,-0.564 -39.508,1.261c-15.778,2.189 -31.636,4.213 -47.373,6.529c-14.721,2.148 -28.999,7.062 -43.358,10.91c-8.841,2.349 -17.725,4.58 -26.403,7.585c-7.87,2.71 -15.284,6.447 -23.078,9.492c-6.734,2.629 -13.876,4.581 -19.956,8.597c-3.004,1.991 -6.33,3.608 -9.126,5.924c-2.304,1.983 -4.17,4.537 -6.122,6.853c-4.464,5.434 -8.678,11.395 -10.951,18.09c-1.827,5.314 -1.72,12.202 -1.095,17.804c1.502,12.938 9.532,22.111 17.887,31.435c3.729,4.169 7.381,8.145 11.886,11.556c2.399,1.867 5.028,3.453 6.614,6.122c-2.191,-1.012 -4.184,-1.782 -6.655,-2.514c-6.369,-1.783 -12.452,-4.379 -18.618,-6.695c-3.045,-1.139 -5.882,-2.639 -8.846,-3.818c-3.568,-1.46 -6.208,-3.763 -9.492,-5.715c-2.994,-1.794 -6.278,-3.253 -8.876,-5.602c-3.735,-3.362 -7.145,-7.871 -10.264,-11.76c-2.471,-3.086 -3.775,-6.457 -5.882,-9.741c-1.658,-2.629 -4.368,-4.778 -5.308,-7.783c-1.511,-4.419 -1.864,-8.6 -1.825,-13.181c0.106,-4.019 -0.834,-7.91 -0.834,-11.967c0,-4.819 -0.247,-9.689 -0.039,-14.519c0.166,-5.643 1.463,-9.366 4.747,-13.789c2.307,-3.089 3.935,-6.897 6.812,-9.576c2.555,-2.348 5.966,-4.257 8.762,-6.364c2.033,-1.546 4.141,-3.005 6.248,-4.423c6.652,-4.546 14.033,-7.342 21.376,-10.545c7.788,-3.368 16.632,-4.138 24.863,-5.882c5.925,-1.221 11.759,-1.566 17.727,-2.4c5.025,-0.689 10.021,-1.782 15.008,-2.514c5.841,-0.898 11.845,-1.566 17.727,-2.191c7.343,-0.773 14.681,-2.034 22.024,-2.557c13.951,-0.939 28.266,-0.105 42.261,-0.105h18.497z" /> <path d="M447.658,540.451c-5.913,5.391 -1.658,7.26 1.952,9.367c2.277,1.345 4.268,3.203 6.573,4.464c2.629,1.5 5.633,1.95 8.231,3.452c4.983,2.837 9.124,6.934 13.547,10.544c2.638,2.157 5.038,4.588 7.707,6.738c2.638,2.15 5.516,3.975 8.073,6.207c5.883,5.071 11.516,9.494 16.428,15.616c2.43,3.047 3.808,6.612 5.674,9.983c2.189,4.054 5.152,7.582 7.343,11.639c1.826,3.406 4.058,7.139 4.581,11.072c0.31,2.993 -0.524,5.953 -0.732,8.917c-0.242,2.878 0.081,5.882 -1.337,8.521c-1.098,2.075 -3.078,3.651 -4.987,5.11c-5.877,4.422 -14.148,6.291 -21.25,7.75c-3.119,0.646 -6.205,1.856 -9.367,2.273c-4.303,0.646 -8.601,0.646 -12.856,1.378c-8.155,1.376 -16.422,1.462 -24.622,2.921c-2.96,0.523 -5.912,0.523 -8.917,0.94c-4.456,0.529 -8.92,1.541 -13.343,2.273c-11.804,1.948 -22.836,7.624 -34.436,10.545c-6.203,1.584 -12.408,3.046 -18.574,4.703c-9.005,2.431 -18.128,5.226 -27.297,6.771c-6.895,1.134 -13.588,2.023 -20.359,3.889c-6.857,1.867 -13.552,4.256 -20.405,6.122c-3.487,0.941 -7.381,2.464 -11.072,2.359c2.796,-0.73 5.353,-2.149 7.992,-3.244c4.707,-1.908 9.537,-3.411 14.031,-5.841c8.272,-4.422 15.983,-9.777 22.754,-16.264c4.218,-4.051 8.681,-8.15 11.518,-13.304c1.459,-2.679 2.481,-5.434 4.016,-8.073c1.177,-1.982 1.937,-3.93 2.877,-6.08c1.739,-4.215 2.96,-8.439 4.505,-12.613c1.459,-4.058 4.902,-4.785 8.637,-6.529c3.369,-1.617 6.695,-2.837 9.898,-4.901c4.544,-2.961 9.491,-5.391 14.361,-7.75c2.879,-1.377 5.141,-3.131 7.541,-5.154c2.585,-2.189 5.434,-3.901 8.146,-5.924c5.195,-3.937 10.179,-8.514 14.155,-13.668c7.266,-9.411 12.66,-20.933 16.549,-32.126c1.657,-4.825 3.321,-9.532 3.284,-14.642c0,-2.628 -0.871,-4.903 -0.834,-7.417z" /> <path d="M730.494,541.286c-4.255,-0.037 -8.2,-0.94 -12.452,-1.378c-8.719,-1.052 -17.198,-2.766 -25.956,-2.723c-7.585,0.038 -15.168,0.038 -22.715,0c-3.401,0 -6.645,0 -10.015,0.625c-2.273,0.417 -5.801,0.314 -7.824,1.418c-2.723,1.459 -3.328,5.517 -4.016,8.231c-0.94,3.889 -0.523,8.073 0.94,11.801c1.459,4.016 4.296,7.794 7.343,10.748c1.909,1.866 3.848,3.005 6.04,4.423c1.042,0.625 2.064,1.545 2.4,2.669c-4.662,1.668 -12.086,-0.732 -16.345,-2.755c-6.207,-2.921 -11.644,-6.08 -14.238,-12.573c-2.43,-6.122 -2.837,-11.563 -2.837,-18.049c0,-2.921 0.94,-4.464 3.13,-6.416c3.452,-3.035 8.48,-5.633 12.817,-7.134c8.157,-2.796 17.034,-2.796 25.592,-2.796c9.858,0 19.795,-0.523 29.527,1.042c5.154,0.834 10.709,1.095 15.658,2.712c3.976,1.304 7.865,3.162 11.64,4.87c3.61,1.627 7.26,3.035 10.787,4.703c1.866,0.834 5.277,1.668 6.655,3.086c-4.789,-0.208 -9.659,0 -16.062,-2.471z" /> <path d="M789.348,559.252c2.877,0.523 6.416,2.43 8.805,4.016c2.837,1.909 5.236,5.069 7.134,7.824c2.639,3.777 5.196,7.021 7.134,11.235c1.993,4.215 4.098,8.355 7.134,11.886c2.316,2.639 4.423,5.674 6.98,7.992c1.784,1.586 3.889,2.389 5.924,3.569c2.349,1.378 4.255,3.244 6.32,4.945c2.4,1.983 4.591,4.016 6.894,5.999c-0.314,0.417 -0.417,0.94 -0.625,1.337c-0.834,1.657 -2.273,1.866 -4.098,2.514c-5.924,2.064 -12.249,2.316 -18.458,2.43c-4.174,0.073 -7.865,1.7 -11.842,2.723c-5.759,1.418 -11.557,3.162 -17.402,4.174c-14.232,2.471 -28.145,3.777 -42.627,3.735c-7.061,0 -13.954,0 -20.967,-0.834c-3.526,-0.417 -7.992,-0.417 -11.281,-1.668c7.585,0.314 15.212,-1.784 22.677,-2.796c9.898,-1.418 19.956,-3.848 29.405,-7.178c4.215,-1.459 10.993,-3.569 12.979,-8.104c1.744,-3.976 2.837,-8.597 3.371,-12.858c0.625,-4.87 2.023,-9.69 1.825,-14.642c-0.105,-2.471 -0.94,-4.131 -1.502,-6.446c-0.732,-2.712 -1.139,-5.154 -2.349,-7.666c-1.459,-3.005 -3.976,-6.446 -4.464,-9.817c-0.105,-0.834 0.074,-1.545 -0.105,-2.4c-0.314,-1.179 -1.052,-1.825 -0.523,-3.162c1.627,-0.732 7.134,1.139 9.731,3.162z" /></svg>