<svg xmlns="http://www.w3.org/2000/svg" viewBox="0 0 888 891" width="888" height="891"><path d="M411.888,812.524c-17.666,-47.158 -32.794,-85.602 -33.62,-85.429c-0.826,0.173 -10.795,10.476 -22.154,22.891c-11.36,12.415 -31.161,33.851 -44.001,47.634l-23.344,25.063l2.074,-65.659c1.14,-36.112 1.441,-65.659 0.667,-65.659c-0.774,0 -37.68,16.476 -82.015,36.615c-44.334,20.138 -81.099,36.136 -81.696,35.552c-0.597,-0.584 14.495,-36.648 33.543,-80.142c19.046,-43.49 35.23,-80.596 35.958,-82.452c0.98,-2.494 -15.098,-3.02 -61.578,-2.017l-62.904,1.359l8.854,-7.94c4.869,-4.367 25.566,-24.282 45.994,-44.26l37.14,-36.322l-63.699,-24.234c-108.904,-41.432 -105.397,-39.902 -98.93,-43.19c3.146,-1.602 41.194,-16.602 84.556,-33.338l78.836,-30.428l-31.618,-29.868c-17.391,-16.428 -38.259,-36.205 -46.374,-43.95l-14.755,-14.081l62.709,0.944c34.488,0.521 62.709,0.619 62.709,0.216c0,-0.398 -16.447,-37.932 -36.549,-83.414c-20.102,-45.482 -36.271,-82.689 -35.93,-82.689c0.34,0 36.374,16.055 80.076,35.678c43.702,19.623 81.164,36.381 83.249,37.242c3.054,1.26 3.39,-10.949 1.731,-62.88l-2.058,-64.445l33.9,35.318c18.645,19.424 39.01,41.047 45.261,48.05c8.097,9.074 11.962,11.616 13.454,8.854c1.151,-2.134 15.612,-39.664 32.134,-83.402c16.522,-43.738 30.778,-80.716 31.679,-82.175c0.902,-1.459 16.004,34.795 33.56,80.562c17.556,45.767 32.458,83.753 33.114,84.409c1.047,1.047 29.2,-28.215 73.678,-76.582l13.998,-15.222l-1.91,64.266c-1.854,62.362 -1.742,64.202 3.708,62.135c3.089,-1.172 40.116,-17.724 82.284,-36.783c42.168,-19.059 76.996,-34.32 77.398,-33.917c0.403,0.403 -14.561,35.178 -33.256,77.277c-18.695,42.099 -34.67,79.229 -35.499,82.508c-1.486,5.868 -0.481,5.954 59.874,5.086l61.382,-0.884l-90.374,87.678l82.793,32.227c45.534,17.725 82.802,33.012 82.812,33.97c0.013,0.958 -23.553,10.777 -52.361,21.818c-28.808,11.041 -66.114,25.384 -82.905,31.87l-30.526,11.794l90.558,87.973l-61.457,-1.231c-61.448,-1.231 -61.457,-1.229 -59.838,5.028c0.888,3.442 16.839,40.76 35.44,82.934c18.601,42.174 33.458,77.038 33.014,77.482c-0.443,0.443 -33.223,-13.971 -72.842,-32.034c-39.619,-18.063 -76.554,-34.773 -82.074,-37.134l-10.043,-4.294l3.319,131.107l-6.684,-7.044c-3.674,-3.873 -23.008,-24.706 -42.958,-46.295c-19.95,-21.589 -37.183,-38.187 -38.291,-36.887c-1.108,1.302 -15.756,38.219 -32.556,82.042c-16.8,43.823 -31.439,80.748 -32.537,82.059c-1.098,1.308 -16.45,-36.205 -34.117,-83.365zM491.856,651.278c9.736,-2.301 29.658,-10.093 44.264,-17.318c107.4,-53.12 147.545,-169.323 95.878,-277.529c-22.882,-47.927 -57.252,-83.256 -101.781,-104.628c-31.467,-15.103 -50.018,-19.2 -87.054,-19.228c-36.316,-0.034 -61.21,6.502 -98.859,25.92c-31.882,16.446 -72.358,56.308 -88.056,86.72c-30.055,58.224 -30.213,128.036 -0.425,188.103c46.345,93.448 140.529,140.519 236.03,117.96z" /></svg>