<svg xmlns="http://www.w3.org/2000/svg" viewBox="0 0 871 904" width="871" height="904"><path d="M516.568,601.528c5.772,1.649 8.621,-10.27 10.533,-13.157c1.986,-3.073 3.449,-4.536 4.61,-8.209c1.012,-3.224 2.399,-5.807 3.746,-8.771c2.961,-6.334 4.61,-13.231 6.634,-19.828c2.211,-7.272 6.972,-14.019 10.57,-20.613c3.823,-7.084 7.272,-13.756 11.06,-20.878c4.313,-8.171 10.345,-14.953 15.255,-22.564c5.059,-7.759 10.721,-15.292 14.768,-23.539c3.711,-7.497 9.146,-14.318 13.381,-21.7c3.298,-5.735 7.534,-10.606 10.493,-16.494c2.436,-4.91 7.272,-8.022 9.595,-12.969c1.761,-3.746 2.849,-7.721 4.985,-11.244c1.837,-3.073 4.123,-5.772 5.96,-8.846c1.537,-2.549 3.186,-4.985 4.648,-7.571c1.5,-2.587 3.449,-4.048 4.61,-6.634c4.236,-9.406 9.371,-18.404 11.808,-28.562c0.525,-2.211 0.674,-4.72 1.199,-7.084c0.75,-3.111 0.373,-6.487 0.373,-9.671c0,-4.46 -1.387,-12.107 0.899,-15.93c2.024,-3.298 5.735,-5.472 7.197,-9.333c0.862,-2.249 1.986,-4.46 2.885,-6.597c1.612,-3.936 2.998,-7.946 4.91,-12.07c2.511,-5.51 5.21,-10.947 7.946,-16.418c1.537,-3.036 4.198,-6.261 5.4,-9.258c0.525,-1.424 0.488,-2.736 0.862,-4.123c0.787,-2.775 1.986,-4.498 3.411,-7.084c7.272,-13.008 13.606,-26.313 22.64,-38.232c7.197,-9.483 12.257,-20.541 19.378,-29.799c2.137,-2.811 3.823,-11.845 9.632,-8.508c5.174,2.998 3.711,9.595 3.746,14.806c0,10.87 -4.313,21.44 -11.769,29.462c-1.688,1.874 -2.811,4.273 -4.498,6.185c-2.062,2.211 -4.685,4.011 -6.672,6.297c-3.859,4.536 -7.834,9.708 -10.606,15.066c-2.099,4.011 -4.423,7.946 -6.374,12.182c-2.137,4.72 -7.272,10.907 -7.122,16.305c0.075,3.336 0.488,2.811 3.298,3.411c2.549,0.562 7.609,0.373 10.196,-0.373c6.672,-1.914 9.221,-8.396 11.921,-13.794c1.949,-3.898 4.46,-8.059 6.297,-11.994c3.149,-6.784 7.009,-12.407 11.132,-18.778c2.062,-3.224 4.085,-6.11 5.807,-9.519c2.174,-4.385 5.66,-6.972 8.096,-10.947c3.561,-5.772 6.072,-13.044 10.308,-18.479c3.972,-5.059 9.371,-9.595 15.179,-12.182c5.135,-2.324 14.019,0.225 14.953,6.597c0.934,6.372 -7.646,13.681 -10.758,18.216c-4.273,6.148 -8.096,12.932 -12.257,19.303c-4.011,6.148 -7.834,12.331 -11.732,18.555c-3.336,5.36 -7.272,11.02 -10.533,16.68c-1.424,2.474 -1.724,4.985 -3.186,7.497c-1.424,2.474 -3.486,5.059 -5.51,7.122c-2.998,2.998 -5.472,8.059 -3.898,12.182c2.099,5.547 10.157,3.823 14.318,1.649c6.559,-3.373 11.02,-8.171 13.982,-15.179c1.575,-3.746 3.298,-7.534 6.072,-10.606c2.549,-2.775 5.059,-4.72 6.972,-8.246c2.998,-5.547 6.11,-11.02 9.896,-16.193c3.411,-4.61 6.374,-10.907 10.57,-14.768c2.362,-2.249 9.858,-3.898 13.081,-1.874c3.411,2.137 2.137,14.431 1.649,18.104c-0.937,7.384 -5.51,15.331 -8.059,22.302c-1.649,4.536 -2.924,5.135 -5.92,8.771c-1.312,1.612 -1.462,3.523 -2.811,5.174c-0.714,0.899 -2.174,1.462 -2.998,2.324c-0.827,0.899 -1.688,2.775 -2.511,3.823c-0.75,1.012 -2.324,4.536 -3.149,5.435c-2.924,3.224 -4.348,4.536 -6.487,8.921c-2.998,6.11 -8.658,9.858 -12.257,15.48c-1.387,2.174 -2.811,4.46 -4.16,6.71c-0.562,0.975 -0.899,2.474 -1.575,3.449c-0.975,1.349 -2.511,1.837 -3.449,3.149c-2.998,4.273 -4.498,8.508 -8.359,11.845c-5.023,4.348 -9.519,9.973 -15.106,13.869c-8.996,6.222 -17.842,12.37 -27.175,18.367c-5.997,3.859 -12.519,8.996 -17.729,13.869c-3.149,2.924 -5.585,6.297 -8.733,9.221c-3.823,3.561 -8.022,7.497 -10.983,11.732c-3.486,5.023 -6.972,9.07 -10.758,13.719c-2.362,2.885 -4.048,6.559 -5.885,9.745c-2.174,3.746 -5.36,6.559 -7.684,10.083c-3.746,5.807 -6.261,12.444 -10.38,18.104c-4.798,6.522 -10.834,14.806 -13.044,22.64c-1.237,4.273 -3.298,7.009 -5.51,10.907c-2.024,3.636 -2.736,7.421 -4.273,11.283c-3.486,8.545 -6.334,17.242 -10.682,25.451c-4.833,9.07 -7.834,19.117 -12.707,28.375c-4.198,7.983 -9.221,16.494 -14.806,23.577c-4.198,5.323 -7.721,9.896 -11.095,15.705c-2.062,3.486 -4.313,6.672 -6.672,9.896c-3.561,4.798 -7.235,10.233 -10.008,15.443c-2.736,5.059 -3.823,10.196 -7.009,15.066c-5.323,8.022 -10.345,16.98 -14.019,25.976c-2.699,6.597 -6.822,16.381 -12.632,20.878c-7.348,5.697 -13.044,2.211 -21.14,0.225c-7.759,-1.914 -14.356,-3.449 -15.817,-12.07c-0.862,-4.91 -0.413,-12.034 1.724,-16.381c1.462,-2.924 3.449,-5.585 5.098,-8.396c2.137,-3.523 3.298,-7.909 5.772,-11.132c2.099,-2.736 4.423,-4.833 6.334,-7.684c1.761,-2.624 3.523,-5.174 5.435,-7.684c5.66,-7.534 8.432,-16.942 9.258,-19.154z" /> <path d="M460.055,881.066c-0.827,-5.098 4.873,-11.395 7.534,-15.143c1.837,-2.624 4.423,-4.72 5.96,-7.497c1.801,-3.261 2.137,-5.772 4.536,-8.846c2.324,-2.924 5.51,-5.323 7.609,-8.322c1.275,-1.837 1.688,-3.636 3.224,-5.472c2.174,-2.699 4.798,-6.487 7.235,-8.958c3.073,-3.111 5.997,-6.297 9.146,-9.406c2.399,-2.399 3.636,-4.873 5.323,-7.534c1.761,-2.775 4.423,-5.098 6.559,-7.684c4.048,-4.91 7.497,-10.196 11.582,-15.218c4.685,-5.735 8.958,-11.994 12.107,-18.629c2.099,-4.385 4.946,-7.909 7.609,-11.695c1.874,-2.624 3.186,-5.287 5.51,-7.721c2.624,-2.699 4.833,-4.348 6.634,-7.646c4.085,-7.384 11.769,-12.782 16.642,-19.716c3.149,-4.498 7.421,-8.171 9.82,-13.269c2.062,-4.273 5.023,-6.71 7.983,-10.196c1.387,-1.649 2.924,-3.674 4.198,-5.287c0.601,-0.827 1.387,-2.174 2.024,-2.961c0.899,-1.05 2.998,-2.286 3.746,-3.373c4.16,-5.997 7.983,-13.231 11.357,-20.091c2.024,-4.085 3.636,-7.235 5.098,-11.732c1.275,-4.123 2.961,-7.461 2.924,-11.769c-0.075,-4.873 0.037,-6.822 -2.511,-10.834c-2.024,-3.149 -5.287,-8.284 -5.92,-11.732c-0.601,-2.998 -0.714,-9.708 -0.037,-12.744c0.75,-3.224 3.674,-5.585 5.547,-8.246c2.736,-3.898 5.135,-7.721 8.359,-11.357c1.162,-1.312 2.662,-3.224 3.859,-4.385c1.237,-1.199 2.849,-1.801 4.198,-2.885c2.099,-1.724 2.099,-2.998 3.336,-5.023c4.313,-6.896 10.345,-12.37 14.205,-19.716c1.124,-2.211 1.575,-4.946 2.811,-7.047c2.099,-3.598 5.92,-6.185 8.246,-9.745c2.024,-3.186 4.423,-5.735 6.859,-8.545c3.823,-4.46 8.432,-7.759 11.545,-12.594c4.198,-6.522 10.947,-12.669 16.494,-17.991c4.72,-4.536 11.432,-8.996 14.881,-14.693c1.761,-2.924 2.924,-5.735 5.023,-8.584c1.986,-2.587 4.273,-4.72 6.261,-7.461c1.801,-2.436 3.674,-4.085 5.772,-6.11c2.849,-2.775 4.348,-6.334 6.747,-9.446c5.547,-7.159 11.582,-14.656 18.104,-20.99c6.896,-6.71 12.294,-14.806 19.229,-21.7c7.571,-7.497 14.993,-15.066 22.564,-22.564c6.896,-6.822 12.895,-13.831 20.653,-19.454c5.92,-4.236 10.983,-8.696 17.317,-12.594c7.084,-4.348 14.131,-9.708 21.477,-13.869c3.711,-2.099 7.235,-6.896 11.207,-8.096c1.087,2.624 -0.75,4.313 -2.211,6.522c-1.688,2.511 -1.649,4.048 -2.587,6.672c-1.237,3.336 -3.898,5.287 -5.51,8.432c-1.312,2.587 -2.174,5.735 -3.261,8.432c-1.649,4.085 -2.849,7.461 -5.472,11.17c-5.323,7.646 -8.096,16.867 -13.269,24.364c-4.048,5.848 -5.997,12.034 -9.258,18.216c-1.312,2.436 -3.674,3.859 -4.946,5.885c-1.649,2.699 -2.024,6.072 -4.313,8.808c-7.235,8.508 -13.457,18.367 -19.378,28.112c-2.511,4.085 -5.247,7.759 -8.284,11.545c-4.198,5.287 -7.235,11.02 -11.769,16.005c-5.135,5.66 -9.483,10.233 -13.121,17.317c-3.336,6.597 -8.396,13.044 -13.081,18.778c-2.587,3.149 -5.098,6.11 -7.759,9.07c-3.859,4.273 -5.92,9.933 -9.632,14.356c-10.907,13.044 -23.052,24.889 -33.248,38.645c-1.949,2.624 -3.336,5.772 -5.287,8.359c-1.424,1.874 -3.411,3.073 -4.91,4.873c-2.249,2.662 -3.224,6.222 -5.21,9.033c-2.137,3.036 -4.498,4.946 -6.334,8.284c-2.062,3.823 -5.023,6.11 -7.721,9.632c-2.587,3.411 -3.449,7.009 -5.4,10.87c-4.123,8.059 -6.222,16.68 -10.27,24.328c-1.012,1.914 -1.649,3.149 -2.286,5.135c-1.124,3.373 -2.474,4.536 -4.123,7.421c-1.424,2.436 -1.124,5.472 -2.286,8.134c-1.275,2.775 -3.746,4.273 -5.623,6.559c-3.674,4.423 -5.135,10.157 -8.658,14.806c-2.511,3.373 -4.423,6.634 -7.047,9.858c-3.859,4.761 -7.197,12.182 -9.708,17.767c-2.286,5.174 -5.807,8.696 -8.508,13.606c-3.674,6.71 -7.159,12.669 -12.594,18.216c-5.287,5.4 -10.045,10.795 -14.693,16.755c-4.946,6.334 -10.533,12.182 -15.593,18.404c-3.859,4.798 -6.597,10.345 -9.933,15.52c-3.073,4.873 -5.807,10.795 -9.333,15.218c-5.323,6.71 -9.483,14.468 -14.953,20.878c-2.511,2.885 -3.711,7.009 -5.96,10.157c-1.801,2.474 -3.298,4.833 -4.91,7.421c-2.811,4.536 -7.309,7.047 -10.834,10.645c-3.561,3.598 -6.11,7.684 -10.27,10.606c-0.488,0.337 -1.575,0.037 -2.099,0.413c-0.787,0.637 -1.312,2.249 -1.949,3.036c-1.986,2.474 -4.648,4.236 -6.896,6.374c-2.362,2.249 -3.073,3.449 -6.597,3.859c-2.699,0.337 -7.497,0.3 -10.083,-0.413c-5.023,-1.387 -10.308,-4.048 -13.419,-21.515z" /> <path d="M324.235,729.537c-18.064,11.845 -27.735,8.022 -37.593,6.747c-4.835,-0.638 -8.845,-2.25 -13.643,-3.449c-4.348,-1.087 -8.696,-1.164 -13.081,-1.914c-7.384,-1.236 -14.655,-4.31 -21.89,-6.559c-2.063,-0.637 -4.049,-1.236 -6.035,-2.286c-6.185,-3.261 -11.358,-8.134 -17.917,-10.57c-9.446,-3.523 -18.78,-6.374 -27.85,-11.32c-8.845,-4.874 -16.98,-9.708 -26.313,-13.419c-7.156,-2.849 -13.678,-7.46 -20.613,-10.983c-4.795,-2.436 -7.531,-4.61 -11.467,-8.508c-5.922,-5.884 -13.456,-9.635 -19.978,-14.468c-4.159,-3.072 -7.609,-7.044 -11.507,-10.493c-4.012,-3.523 -8.885,-5.247 -13.121,-8.096c-7.946,-5.284 -14.918,-12.444 -22.339,-18.741c-3.676,-3.11 -6.185,-6.559 -9.483,-10.045c-3.636,-3.858 -8.058,-6.559 -11.732,-10.345c-4.757,-4.949 -6.782,-10.574 -10.38,-16.381c-3.299,-5.36 -8.321,-8.396 -11.17,-14.393c-3.561,-7.572 -6.109,-15.78 -9.333,-23.577c-2.099,-5.096 -5.398,-10.719 -6.597,-16.266c-3.749,-16.641 -1.537,-36.509 -1.612,-53.601c-0.037,-10.046 0.563,-21.217 2.587,-30.736c1.237,-5.735 1.762,-12.484 2.624,-18.404c0.562,-3.712 -0.337,-7.685 0.525,-11.283c0.525,-2.174 1.874,-4.011 2.511,-6.11c0.6,-2.024 0.75,-4.385 1.387,-6.522c1.012,-3.445 1.462,-6.857 2.324,-10.38c1.536,-6.41 5.061,-13.082 7.946,-18.854c2.471,-4.988 4.012,-8.473 7.871,-12.147c3.298,-3.185 5.809,-7.233 8.958,-10.606c2.66,-2.886 5.359,-4.985 8.432,-7.159c4.047,-2.846 7.608,-6.744 11.244,-10.38c4.385,-4.387 8.733,-9.149 13.531,-12.895c4.613,-3.636 10.385,-5.772 15.52,-8.134c11.957,-5.509 24.439,-10.647 36.883,-14.393c9.633,-2.848 19.194,-6.222 28.487,-10.345c7.834,-3.449 16.53,-3.861 24.401,-7.497c10.273,-4.726 20.692,-7.384 31.413,-10.533c3.974,-1.162 7.684,-3.673 11.62,-4.648c5.398,-1.312 10.945,-1.272 16.305,-3.186c8.546,-3.073 16.492,-6.896 25.488,-6.784c7.196,0.112 14.393,-1.499 21.44,-2.961c6.822,-1.46 14.655,-0.373 21.59,-0.373c4.31,-0.04 9.445,-1.014 13.643,0.373c2.849,0.902 3.973,1.312 7.122,1.275c10.645,-0.076 20.316,0.562 30.736,3.373c12.105,3.224 24.439,3.674 36.433,6.71c9.97,2.511 20.166,2.361 30.211,4.91c11.432,2.849 23.614,5.997 35.346,6.747c4.948,0.336 9.558,-0.225 14.431,0.937c8.021,1.874 16.792,3.446 24.963,4.16c5.175,0.449 9.635,1.574 14.581,2.998c3.224,0.937 5.847,2.174 8.996,3.373c10.87,4.197 22.564,5.36 32.647,11.994c5.659,3.711 10.645,7.722 15.855,12.182c2.249,1.949 4.985,3.374 7.047,5.623c2.174,2.362 3.674,5.735 5.848,8.134c3.71,4.123 6.033,6.185 8.808,11.732c1.686,3.411 3.785,6.597 5.36,10.083c1.911,4.235 2.287,11.132 1.237,15.93c-2.061,0.038 -4.798,-5.922 -5.697,-8.246c-0.3,-0.826 -0.674,-4.011 -1.162,-4.685c-0.675,-0.898 -1.799,-0.975 -2.549,-1.612c-5.773,-4.835 -10.833,-9.37 -17.505,-12.556c-2.474,-1.2 -4.723,-3.111 -7.272,-4.198c-5.962,-2.584 -11.959,-2.471 -17.807,-5.92c-7.197,-4.273 -14.206,-6.671 -21.965,-8.733c-3.151,-0.862 -5.885,-2.1 -8.958,-3.224c-2.361,-0.899 -4.76,-0.675 -7.122,-1.349c-2.924,-0.862 -5.398,-2.663 -8.396,-3.036c-4.46,-0.562 -8.021,-0.262 -12.519,-1.649c-4.726,-1.463 -10.233,-2.699 -15.106,-3.449c-7.197,-1.087 -15.331,0.112 -22.64,0.112h-23.502c-44.454,0 -88.908,0.376 -133.363,-0.037c-13.644,-0.113 -27.025,4.835 -40.594,6.559c-14.055,1.725 -29.124,2.699 -42.843,7.197c-6.485,2.174 -12.557,6.035 -19.154,8.134c-7.234,2.249 -13.493,5.21 -20.465,8.359c-4.835,2.211 -9.745,3.373 -14.318,6.334c-3.036,1.948 -6.185,3.597 -9.446,4.946c-7.084,2.999 -13.643,7.909 -20.465,11.695c-5.773,3.223 -10.907,8.698 -15.93,13.531c-1.987,1.874 -2.287,3.635 -3.936,5.472c-1.275,1.35 -2.924,1.388 -4.236,2.587c-2.25,2.024 -4.162,4.948 -6.148,7.384c-4.647,5.736 -8.171,11.845 -12.331,18.067c-2.511,3.786 -5.472,7.234 -7.421,11.507c-1.425,3.112 -2.136,6.823 -3.186,10.196c-1.462,4.836 -3.411,9.521 -4.198,14.656c-0.673,4.313 -0.297,8.773 -0.26,13.121c0,8.098 -0.297,16.269 -0.037,24.328c0.112,3.708 1.236,6.782 1.424,10.38c0.187,3.411 0.6,6.11 1.162,9.483c1.461,8.247 4.685,15.518 7.084,23.277c1.649,5.322 2.211,6.709 5.472,10.907c2.587,3.298 4.161,7.348 6.11,11.207c2.249,4.422 2.96,9.633 5.735,13.531c1.087,1.498 2.549,2.585 3.636,4.085c1.799,2.66 2.324,5.584 3.636,8.508c3.037,6.747 7.796,11.581 11.02,17.991c3.263,6.522 8.062,12.294 12.034,18.142c3.936,5.772 7.498,12.331 11.357,18.479c4.272,6.859 8.433,12.821 13.643,18.741c2.325,2.661 4.724,5.36 7.235,7.759c2.847,2.662 6.223,3.786 9.221,6.035c3.598,2.699 6.859,5.698 10.345,8.771c2.661,2.322 5.886,3.821 8.771,5.92c4.085,2.924 8.059,4.536 12.444,6.71c3.597,1.722 6.259,4.91 9.632,6.896c3.411,1.986 7.346,3.522 10.795,5.21c3.296,1.575 6.145,4.386 9.406,6.035c6.221,3.148 12.706,7.159 19.378,8.508c7.946,1.612 15.705,6.784 23.539,9.483c5.286,1.836 9.746,5.022 15.106,6.597c3.823,1.125 7.233,3.148 10.907,4.198c2.662,0.787 5.472,1.761 8.134,2.736c3.261,1.2 6.597,2.887 9.933,3.674c3.898,0.9 7.721,-0.562 10.682,3.711z" /> <path d="M348.759,233.104c-0.936,-0.262 -1.91,-0.525 -2.885,-0.75l5.585,0.75z" /> <path d="M319.228,354.114c0.076,0.076 0.113,0.113 0.188,0.188c0,-0.265 0,-0.567 0,-0.827c-0.262,-0.037 -0.49,-0.037 -0.75,-0.037c0.189,0.186 0.337,0.414 0.562,0.674zM443.598,423.006c-0.188,0.037 -0.413,0.075 -0.601,0.112c-0.037,0.375 -0.037,0.749 -0.037,1.162c0.264,-0.413 0.449,-0.862 0.637,-1.275zM549.035,439.355c1.236,5.925 -3.337,10.72 -5.848,15.218c-1.647,3.036 -3.296,6.297 -5.92,9.146c-5.135,5.547 -10.87,11.282 -18.179,13.906c-4.123,1.5 -7.909,2.399 -12.407,3.711c-3.073,0.862 -6.297,1.352 -9.483,1.612c-0.075,0.525 -0.075,1.049 -0.15,1.537c-0.6,3.711 -3.337,8.359 -5.098,11.357c-1.987,3.335 -6.447,8.059 -10.083,10.57c-3.223,2.211 -6.371,2.661 -10.045,3.598c-6.896,1.687 -17.017,2.737 -24.176,1.162c-3.935,-0.862 -8.096,-4.197 -11.432,-6.559c-5.135,-3.673 -6.446,-3.898 -7.946,-10.083c-1.799,-7.346 -4.048,-18.966 0.15,-25.788c0.713,-1.199 1.725,-2.249 2.587,-3.373c0.75,-2.102 1.912,-3.9 3.561,-5.4c0.862,-0.562 1.724,-1.163 2.511,-1.837c1.199,-1.688 1.274,-4.011 2.436,-5.66c0.225,-0.336 0.525,-0.713 0.862,-1.05c-0.149,-0.897 -0.262,-1.836 -0.337,-2.811c-1.197,1.575 -2.623,3.073 -3.972,4.573c-7.085,7.759 -13.157,15.331 -22.94,19.716c-7.534,3.374 -14.43,2.661 -22.452,4.236c-5.06,0.975 -10.232,0.638 -14.993,-0.899c-4.573,-1.462 -9.071,-2.061 -13.344,-4.198c-1.649,-0.826 -3.86,-1.426 -5.135,-2.775c-2.624,-2.696 -2.287,-7.044 -3.674,-10.38c-1.986,-4.722 -2.998,-6.747 -2.961,-11.957c0.037,-5.732 -0.413,-11.245 1.199,-16.792c0.712,-2.547 2.099,-5.471 3.823,-8.432c-1.909,-1.499 -4.645,-3.821 -5.92,-5.735c-1.797,-2.699 -1.349,-5.248 -2.511,-8.246c-2.061,-5.248 -5.547,-8.583 -5.772,-14.431c-0.225,-5.323 -0.037,-8.884 2.362,-13.494c0.11,-0.225 0.185,-0.337 0.26,-0.562c-0.188,-0.072 -0.376,-0.148 -0.601,-0.26c-5.286,-2.436 -10.084,-3.898 -14.544,-7.534c0.075,0.525 0.113,1.049 0.225,1.537c1.127,5.288 0.525,11.32 0.413,16.755c-0.113,5.508 -2.249,11.245 -3.711,16.455c-1.35,4.799 -5.697,9.036 -9.333,12.147c-2.964,2.511 -2.287,2.624 -6.71,2.924c-3.451,0.26 -5.922,1.124 -9.258,2.174c-5.358,1.687 -10.682,1.199 -16.305,1.199c-2.659,0 -5.322,0.149 -7.946,0.037c-3.936,-0.149 -4.423,-1.161 -7.534,-2.998c-4.799,-2.924 -10.795,-2.437 -15.405,-6.148c-6.934,-5.624 -11.583,-16.679 -12.782,-25.263c-0.338,-2.511 -0.601,-6.485 -0.413,-9.783c-4.685,-1.122 -9.256,-3.598 -13.569,-5.435c-1.049,-0.45 -2.023,-0.974 -2.998,-1.462c-0.19,0.974 -0.414,1.984 -0.827,2.811c-1.312,2.473 -5.547,5.023 -7.646,7.009c-2.698,2.546 -5.022,3.858 -8.808,4.72c-5.135,1.199 -11.357,1.649 -16.68,1.612c-10.082,-0.075 -20.579,1.349 -30.098,-2.024c-3.783,-1.352 -7.533,-2.851 -11.244,-4.313c-4.16,-1.612 -5.697,-4.348 -9.07,-7.197c-4.013,-3.413 -8.771,-5.25 -9.933,-10.947c-1.2,-5.962 -1.012,-15.26 0.075,-21.18c0.376,-2.061 0.938,-4.386 1.688,-6.822h-7.983c-2.734,0 -6.744,0.712 -9.406,0.15c-2.776,-0.638 -3.9,-2.399 -6.374,-3.523c-3.749,-1.724 -3.936,-1.312 -6.185,-4.573c-1.686,-2.473 -2.361,-4.273 -3.298,-7.009c-1.688,-4.949 -1.275,-9.896 -1.275,-15.106c0,-12.895 -1.05,-26.238 11.657,-33.285c4.985,-2.771 11.245,-3.821 16.83,-3.746c2.324,0.077 4.573,-0.264 6.784,-0.637c-4.497,-3.825 -7.646,-9.182 -10.345,-15.292c-4.348,-9.746 -1.125,-23.762 7.197,-30.249c10.419,-8.132 26.312,-4.946 38.569,-4.946l-28.524,-1.688h30.623c2.474,-9.409 12.444,-16.867 21.252,-19.454c1.912,-0.526 3.448,-1.126 4.91,-1.688c-2.398,-2.027 -4.385,-4.61 -6.634,-6.747c-3.11,-2.924 -6.712,-5.098 -10.458,-7.084c-6.521,-3.449 -10.646,-8.247 -16.494,-12.632c-5.02,-3.747 -9.296,-7.084 -14.993,-10.008c-5.623,-2.885 -12.07,-2.623 -18.067,-4.16c-0.524,-0.112 -1.159,-1.199 -1.986,-1.387c-1.686,-0.374 -3.748,0.338 -5.472,0.188c-3.374,-0.338 -5.697,-2.622 -8.846,-3.336c-5.734,-1.275 -11.77,-0.899 -17.542,-2.174c-3.411,-0.75 -6.785,-1.725 -10.083,-2.587c-3.374,-0.864 -6.747,-0.338 -10.196,-1.237c-3.371,-0.864 -6.372,-0.827 -9.858,-0.827c-3.674,0 -10.308,1.164 -13.719,-0.26c-4.723,-1.948 -2.324,-4.16 -1.087,-8.096c0.9,-2.886 1.012,-4.348 3.711,-5.135c5.884,-1.722 13.794,0.452 19.341,1.801c5.735,1.387 11.81,2.024 17.617,3.486c6.147,1.498 12.482,3.223 18.929,3.186c5.735,-0.038 10.269,1.236 15.443,2.511c11.92,2.924 23.313,8.283 35.234,12.556c2.661,0.974 5.435,2.099 8.246,3.298c-20.953,-12.07 -25.038,-16.943 -26.65,-20.016c-3.038,-5.772 -4.91,-10.57 -6.784,-16.867c-1.837,-6.334 -5.098,-11.504 -6.297,-17.991c-1.012,-5.363 0.263,-9.633 1.162,-14.656c0.824,-4.573 -0.9,-9.746 0.037,-14.244c1.046,-5.023 3.333,-10.233 4.72,-15.143c1.76,-6.335 3.896,-8.434 10.493,-8.359c4.46,0.113 10.72,1.089 14.918,-0.26c0.786,-3.148 -0.261,-6.634 0.112,-9.858c0.336,-2.924 1.31,-5.435 2.137,-8.284c1.725,-5.885 2.849,-10.644 2.924,-16.792c0.075,-3.561 0.262,-6.597 2.099,-9.783c0.599,-1.05 2.96,-5.023 3.972,-5.323c4.572,-1.275 5.734,9.783 6.896,12.219c0.937,1.949 2.399,5.621 4.573,6.222c2.361,0.637 4.76,-1.687 6.784,-2.549c4.423,-1.873 8.846,-3.41 13.419,-5.059c9.705,-3.448 20.69,-2.399 30.998,-2.436c1.799,-0.037 4.798,-0.525 6.447,-0.112c0.75,0.225 2.026,1.349 2.399,1.424c2.1,0.41 4.048,0 6.185,0.26c2.961,0.377 5.51,1.651 8.508,1.801c2.249,0.112 4.423,-0.301 6.672,0.112c3.149,0.6 5.135,1.5 8.396,1.537c2.286,0 4.385,-0.115 6.634,0.373c6.972,1.574 14.318,3.786 21.44,4.685c8.021,1.048 15.817,3.671 23.951,4.946c6.409,1.05 12.106,5.247 18.516,6.822c9.071,2.137 16.98,7.946 26.013,10.795c5.584,1.761 9.37,5.061 14.168,8.022c2.027,1.238 5.135,2.848 6.747,4.536c1.909,1.912 2.919,4.648 4.833,6.71c3.602,3.823 8.585,6.409 12.034,10.12c2.474,2.699 2.586,4.685 6.072,6.822c4.76,2.848 10.307,4.873 13.756,9.258c-3.748,-1.424 -7.834,-1.911 -11.657,-3.073c-2.923,-0.899 -5.51,-2.134 -8.246,-2.961c-6.522,-1.987 -13.269,-3.299 -20.241,-3.336c-10.872,0 -21.778,0 -32.685,0c-2.998,0 -6.298,-0.45 -9.183,0.337c-2.174,0.6 -4.048,2.1 -6.297,2.662c-2.361,0.563 -3.823,0.188 -5.547,1.5c3.485,1.46 15.929,8.021 15.03,13.381c-2.511,-1.425 -4.573,-0.862 -7.272,-1.012c-3.823,-0.189 -7.309,-1.576 -11.132,-1.801c-4.498,-0.262 -8.397,-1.5 -12.782,-2.849c-9.97,-3.036 -20.391,-2.137 -30.736,-2.137c-19.002,0 -37.968,0.188 -56.972,-0.037c-3.258,-0.038 -5.396,0.675 -8.432,1.349c-2.474,0.526 -5.285,-0.186 -7.684,0.601c-1.574,0.524 -4.798,2.249 -3.936,4.46c0.564,1.349 4.573,1.798 5.623,2.211c5.36,2.097 12.932,4.573 16.53,9.406c3.486,4.646 -3.261,4.16 -6.822,5.059c-3.635,0.936 -6.709,1.498 -10.345,1.986c-8.659,1.237 -14.918,6.372 -22.302,9.745c-5.922,2.736 -9.483,8.096 -12.594,13.831c-3.449,6.372 -7.647,14.393 -9.109,21.515c-0.45,0.112 -0.899,0.188 -1.312,0.3c4.161,1.799 8.246,3.861 11.695,6.297c2.924,2.062 6.56,3.298 9.371,5.435c0.487,0.374 1.312,1.798 1.949,2.211c0.9,0.525 2.549,0.863 3.336,1.5c1.949,1.499 3.149,3.449 5.36,4.648c2.811,1.499 5.622,3.336 8.171,5.51c0.824,0.712 1.986,1.497 3.298,2.324c2.025,-2.999 4.347,-5.81 6.261,-8.246c2.287,-2.851 3.261,-4.422 4.573,-7.571c0.151,-0.301 1.5,-3.562 1.575,-3.674c1.499,-2.324 3.523,-4.648 5.135,-6.822c0.75,-0.862 1.612,-1.536 2.624,-1.986c0.341,-0.974 0.602,-1.948 0.714,-2.998c1.572,-2.437 1.124,-2.287 3.486,-3.674c4.759,-2.699 10.27,-4.423 15.48,-5.96c4.273,-1.274 8.284,-1.684 12.669,-2.511c2.924,-0.523 5.172,-1.65 -3.486,-1.237c6.783,-1.876 12.782,-1.725 19.791,-1.688c3.748,0 8.396,-0.713 12.07,0.337c2.55,0.71 3.373,2.359 5.174,3.859c1.948,1.611 4.424,2.397 6.261,4.198c3.41,3.336 1.986,9.258 1.986,13.681c0,5.06 0.188,10.233 0.188,15.368c4.648,-0.674 9.593,-0.525 13.906,-0.562c6.335,0 12.669,-0.487 18.854,1.237c2.886,0.788 5.885,2.625 8.958,2.137l-5.623,0.225c2.326,0.488 4.275,1.65 5.287,4.761c1.388,4.124 -0.336,8.848 0.714,13.008c1.199,4.647 1.461,9.107 1.349,14.205c-0.15,7.196 -3.038,13.905 -6.784,19.865c-0.075,0.075 -0.113,0.15 -0.15,0.225c0.974,0.187 1.986,0.412 2.998,0.637l-3.149,-0.45c-0.265,0.448 -0.567,0.862 -0.827,1.162c2.286,0 4.573,0.037 6.859,0c3.261,0.937 6.372,2.098 9.333,3.786c5.135,2.996 10.12,6.182 15.143,9.293c3.411,2.064 4.647,1.164 5.135,5.4c0.223,2.024 -0.074,4.573 -0.037,6.522c0.074,8.212 -2.474,13.609 -6.71,20.206c0.45,0.038 0.899,0.038 1.387,0.075c5.586,0.337 8.285,3.523 12.37,6.747c2.512,1.986 5.36,4.048 6.972,7.009c7.871,-2.211 15.93,-1.986 24.176,-1.986c6.634,0 14.542,-1.2 20.952,0.337c11.282,2.699 26.162,7.908 30.098,19.716c2.024,6.072 2.061,12.968 3.373,19.378c0.977,4.797 1.2,8.845 1.237,13.643c0.3,0 0.562,-0.037 0.862,-0.037c6.784,-0.188 13.531,1.949 20.165,2.961c5.133,0.787 10.493,1.124 15.066,4.085c8.022,5.173 10.007,19.679 11.808,28.15c1.162,5.4 -0.151,10.457 -3.036,14.693c-1.837,2.697 -1.949,3.86 -5.435,5.059c-0.224,0.075 -0.449,0.113 -0.674,0.225c1.462,0.3 2.923,0.6 4.46,0.75c3.674,0.374 6.298,1.799 9.671,3.036c3.112,1.124 6.561,1.423 9.446,2.998c5.323,2.849 7.497,7.121 9.371,12.444c1.387,3.785 3.336,6.822 3.411,10.907c0.036,4.236 0.862,6.898 1.724,10.87z" /></svg>