<svg xmlns="http://www.w3.org/2000/svg" viewBox="0 0 638 820" width="638" height="820"><path d="M571.3,86.7c47.504,12.729 76.031,62.193 63.3,109.7l-149,556.4c-12.731,47.503 -62.294,76.022 -109.8,63.3l-309.1,-82.8c-47.51,-12.725 -76.03,-62.195 -63.3,-109.7l149,-556.4c12.729,-47.506 62.295,-76.029 109.8,-63.3zM201.9,80.5l-149.1,556.3c-5.567,20.775 6.426,41.536 27.2,47.1l309.1,82.8c20.784,5.566 41.432,-6.423 47,-27.2l149.1,-556.3c5.568,-20.776 -6.424,-41.533 -27.2,-47.1l-309.1,-82.8c-20.778,-5.567 -41.432,6.422 -47,27.2z" /> <path d="M328.4,375l135.1,-78l25.6,44.4l-135.1,78l78,135.1l-44.4,25.6l-78,-135.1l-135.1,78l-25.6,-44.4l135.1,-78l-78,-135.1l44.4,-25.6z" /></svg>