<svg xmlns="http://www.w3.org/2000/svg" viewBox="0 0 770 832" width="770" height="832"><path d="M766.873,141.659c0.707,3.756 2.293,7.561 2.741,11.321c0.617,4.907 -1.814,9.901 -2.301,14.813c-1.017,10.478 -5.928,21.402 -9.33,31.485c-3.675,10.92 -12.735,25.465 -24.148,27.766c-5.214,1.075 -10.567,0 -15.871,0.666c-4.736,0.62 -9.113,1.585 -13.843,1.994c-10.258,0.88 -21.622,2.564 -31.75,4.73c-4.378,0.926 -7.429,2.038 -11.982,1.949c-8.227,-0.091 -17.113,-1.104 -25.296,0.357c-8.666,1.589 -15.388,4.25 -24.41,4.111c-8.138,-0.139 -16.312,-0.278 -24.45,-0.139c-8.539,0.13 -16.806,2.116 -25.296,2.385c-4.111,0.179 -8.135,0.139 -12.161,0.139c0.137,4.239 0.842,8.088 1.637,12.422c0.972,5.349 0.125,10.613 0.357,16.006c0.398,9.51 3.052,19.149 4.242,28.567c0.524,3.76 0.781,7.471 1.101,11.231h38.957c15.432,0 32.059,1.904 47.269,-0.526c8.756,-1.375 16.984,-2.966 25.648,-3.85c4.997,-0.529 12.162,-3.492 16.318,-6.678c2.695,-2.118 8.182,-11.357 12.383,-10.256c3.713,0.926 1.579,5.57 1.988,8.045c0.444,2.788 2.522,4.821 2.522,7.739c-0.089,5.393 -3.889,12.202 -6.807,16.54c-6.63,9.814 -24.362,11.095 -35.509,11.055c-33.831,-0.228 -67.701,-0.178 -101.528,-0.089c0.272,12.16 0.181,24.41 0.181,36.656c0,19.721 -2.606,37.32 -8.885,56.16c-4.732,14.105 -6.812,28.788 -11.102,43.114c-4.285,14.24 -4.156,29.36 -7.119,43.861c-3.934,19.283 -6.012,39.045 -6.012,58.726c0,6.237 0.091,12.516 0,18.795c-0.134,7.425 4.738,13.926 4.29,20.912c-3.405,1.375 -11.015,-2.202 -14.284,-2.741c-13.088,-2.208 -26.838,-4.419 -40.017,-5.7c-8.228,-0.797 -15.566,-3.715 -23.922,-2.078c-9.024,1.766 -19.237,2.522 -27.771,6.1c-6.279,2.567 -12.292,13.269 -15.386,19.681c-5.707,11.85 -6.546,26.222 -11.453,38.428c-3.315,8.184 -7.211,15.783 -9.993,24.233c-3.187,9.682 -3.366,19.498 -2.918,29.76c0.483,11.537 9.153,18.129 15.386,26.839c5.264,7.428 13.975,13.311 22.639,16.229c8.709,2.918 18.396,4.024 27.281,6.012c9.371,2.121 17.777,4.376 27.326,4.467c22.644,0.266 45.77,-2.652 65.887,-13.666c12.34,-6.763 21.36,-19.147 31.661,-28.385c5.088,-4.6 8.848,-10.527 13.092,-15.831c5.834,-7.342 11.935,-17.693 15.472,-26.049c1.063,-2.515 1.151,-6.764 2.612,-8.93c1.682,-2.652 4.566,-2.255 4.334,-6.144c7.387,-2.258 18.881,-0.357 26.311,-0.357h66.282c8.404,0 20.429,-2.155 28.3,0.32c2.3,9.993 -2.477,13.841 -11.453,17.29c-7.34,2.789 -16.936,6.102 -24.937,6.768c-6.68,0.573 -13.711,1.978 -20.389,2.21c-13.931,0.527 -28.433,3.139 -42.405,5.926c-11.81,2.384 -14.196,23.302 -16.763,32.896c-7.203,26.973 -23.209,48.73 -50.628,57.797c-7.427,2.428 -14.68,5.877 -22.196,7.955c-8.138,2.257 -16.366,3.932 -24.456,6.233c-7.473,2.17 -15.611,3.139 -22.819,5.973c-12.249,4.863 -23.744,9.11 -36.612,12.379c-13.976,3.494 -23.395,3.275 -37.101,1.281c-6.72,-0.971 -10.962,-2.696 -16.361,-6.897c-1.593,-1.238 -3.225,-3.4 -4.862,-4.553c-2.651,-1.855 -5.659,-2.476 -8.356,-4.201c-4.073,-2.564 -6.412,-6.985 -10.262,-9.772c-5.042,-3.669 -11.85,-4.777 -16.358,-9.33c-6.202,-6.279 -4.91,-17.114 -5.882,-25.159c-0.619,-5.041 -0.53,-10.571 -1.414,-15.569c-1.107,-6.19 -5.176,-11.057 -8.004,-16.495c-3.012,-5.616 -5.129,-11.757 -9.33,-16.669c-4.249,-4.86 -8.184,-7.293 -11.102,-13.394c-8.308,-17.38 -9.462,-40.239 -8.885,-59.163c0.618,-18.84 7.296,-32.326 15.609,-48.733c5.041,-9.95 8.443,-22.287 15.432,-30.997c2.874,-3.627 5.303,-8.183 9.153,-10.965c4.949,-3.625 12.247,-5.971 17.862,-8.272c10.306,-4.289 20.207,-6.589 30.774,-9.33c14.417,-3.758 28.215,-4.424 43.028,-4.424c7.741,0 15.435,-0.621 22.951,1.592c4.111,1.238 11.325,2.119 14.946,4.195c1.637,-3.578 -0.665,-7.031 -1.855,-10.391c-3.273,-8.979 -2.916,-19.456 -2.301,-28.874c0.359,-6.058 1.77,-12.47 2.834,-18.486c1.053,-5.7 1.322,-11.093 2.117,-16.886c2.04,-14.996 8.274,-28.612 11.237,-43.425c2.607,-12.913 3.899,-27.06 3.76,-40.239c-0.139,-16.806 0.789,-33.738 1.543,-50.584c-1.41,0 -2.824,0 -4.244,0h-56.817c-9.598,0 -19.236,-0.089 -28.874,0c-8.183,0.087 -13.313,-2.565 -10.924,-19.855c3.979,0.085 7.962,-1.318 11.895,-1.727c12.957,-1.371 26.176,-0.487 39.179,-0.487c16.493,-0.04 32.987,0 49.482,0h2.782c1.153,-4.066 2.337,-8.135 2.657,-12.469c0.796,-10.568 2.301,-20.958 2.21,-31.615c-0.044,-6.897 -0.044,-13.753 -0.044,-20.65c-2.963,0.536 -5.881,1.06 -8.885,1.637c-13.179,2.434 -27.022,1.326 -40.376,1.281c-54.078,-0.181 -108.115,0 -162.151,0c-11.935,0 -24.097,0.486 -36.168,0.526c-0.442,0.801 -0.917,1.506 -1.326,2.301c-5.615,10.573 -14.902,19.328 -22.11,29.145c-8.268,11.314 -18.658,18.128 -30.507,25.425c-13.531,8.267 -26.799,15.831 -41.391,22.11c-18.795,8.047 -36.082,18.88 -52.265,31.349c-10.658,8.227 -17.996,19.503 -26.134,30.071c-8.311,10.835 -13.926,24.496 -18.612,37.276c-9.865,26.709 -17.47,62.26 -4.338,88.923c5.309,10.79 11.894,18.173 22.467,24.277c17.287,9.995 33.559,13.225 53.325,13.225c16.004,0.047 31.966,0 47.976,0.091c10.522,0.088 22.149,-0.621 31.921,-4.424c14.992,-5.878 22.994,-15.917 26.4,-30.952c2.578,-11.454 5.748,-22.86 2.346,-34.624c-2.612,-8.801 -5.085,-18.881 -9.509,-26.885c-1.768,-3.185 -3.934,-6.234 -6.012,-9.197c-2.478,-3.538 -4.867,-4.552 -7.342,-7.119c-1.768,-1.811 -2.168,-3.979 -4.023,-5.661c-3.318,-2.912 -9.73,-1.991 -13.709,-3.181c-4.554,-1.319 -8.045,-1.639 -12.957,-1.639c-6.233,0 -10.302,-1.28 -13.883,4.29c-2.474,3.805 -4.514,9.02 -5.615,13.354c-2.476,9.864 1.327,18.706 8.313,25.648c6.722,6.72 16.317,9.595 23.614,15.784c-6.72,1.104 -13.795,5.659 -20.207,7.208c-9.153,2.211 -17.867,-0.707 -25.471,-4.467c-7.869,-3.978 -12.956,-8.58 -17.686,-16.584c-5.037,-8.49 -4.245,-15.873 -4.334,-25.382c-0.135,-8.534 4.817,-18.66 9.993,-25.291c8.31,-10.618 24.271,-22.24 38.07,-23.393c14.37,-1.192 29.583,-0.092 43.203,4.508c14.194,4.819 36.038,11.941 45.191,24.363c7.203,9.819 9.504,19.635 12.467,31.223c1.238,4.816 4.551,8.13 5.615,12.82c1.153,4.997 1.897,10.169 2.166,15.343c0.53,11.414 -4.819,21.626 -8.534,32.194c-1.547,4.334 -2.034,8.139 -2.918,12.606c-0.618,3.049 -2.827,5.523 -3.581,8.398c-0.489,1.948 0.167,4.377 -0.846,6.149c-1.547,2.652 -4.07,4.729 -5.57,7.559c-1.771,3.233 -3.185,6.502 -4.775,9.688c-1.725,3.537 -4.155,4.998 -6.415,7.961c-2.34,3.139 -3.713,6.055 -6.541,8.885c-10.528,10.305 -23.082,16.005 -35.776,21.536c-3.713,1.59 -7.518,2.787 -11.055,4.424c-5.616,2.566 -11.492,2.079 -17.465,3.269c-7.604,1.548 -15.386,1.587 -22.99,2.828c-7.741,1.285 -16.231,2.477 -24.102,2.834c-11.009,0.48 -21.712,-0.887 -32.501,-2.875c-9.153,-1.682 -17.955,-2.262 -26.885,-4.998c-12.957,-3.938 -23.255,-8.227 -34.668,-15.432c-10.391,-6.546 -22.332,-15.965 -28.963,-26.488c-8.756,-13.974 -11.934,-29.449 -17.732,-44.752c-3.981,-10.567 -8.352,-20.255 -9.018,-31.837c-0.526,-8.754 -0.615,-18.57 0.269,-27.326c0.931,-9.283 4.553,-18 6.989,-26.885c2.346,-8.579 5.748,-16.89 8.801,-25.203c7.25,-19.762 16.892,-36.302 31.438,-51.559c5.701,-5.967 11.758,-14.546 18.747,-18.835c7.075,-4.333 14.547,-8.447 21.047,-13.621c7.341,-5.881 14.813,-10.924 22.684,-16.143c6.233,-4.158 11.542,-9.593 18.038,-13.265c3.671,-1.989 7.74,-3.187 11.321,-5.304c4.112,-2.483 5.704,-6.059 9.153,-9.067c6.149,-5.349 12.958,-9.105 18.884,-14.898c2.429,-2.391 4.73,-3.276 7.119,-5.219c3.094,-2.52 3.934,-6.325 7.16,-8.714c2.168,-1.544 4.911,-2.522 7.075,-4.066c2.657,-1.855 5.135,-3.85 7.871,-5.615c1.196,-0.84 2.338,-1.721 3.542,-2.567c-0.439,-0.093 -0.926,-0.143 -1.374,-0.232c-26.752,-4.241 -53.989,-2.741 -81.051,-2.741h-45.191c-8.136,0 -18.09,1.59 -26.045,-0.448c-13.049,-3.355 -16.364,-15.471 -19.633,-26.969c-1.682,-5.838 -3.141,-10.925 -6.723,-15.966c-5.219,-7.427 -8.491,-13.171 -10.083,-21.621c-1.37,-7.121 -2.868,-17.114 -1.013,-24.456c3.093,-12.467 9.996,-2.473 14.24,2.879c3.803,4.776 8.58,8.532 12.246,13.706c2.789,3.933 5.086,8.135 7.653,12.246c4.196,6.678 8.665,12.867 14.809,17.602c9.996,7.693 26.53,13.668 39.181,14.371c34.441,1.943 69.598,-0.045 104.132,-0.045h37.628c15.654,-14.813 27.64,-33.296 36.662,-52.577c3.181,-6.854 7.297,-13.797 9.949,-20.826c1.065,-2.697 0.926,-5.616 1.949,-8.222c1.275,-3.276 4.821,-5.661 5.922,-8.976c0.935,-2.916 -0.088,-5.661 0.232,-8.714c0.353,-4.241 1.634,-9.283 2.875,-13.394c1.456,-4.995 1.637,-8.227 1.637,-13.62c0,-2.698 0.314,-5.706 0.045,-8.403c-0.308,-3.445 -1.807,-5.877 -2.346,-9.283c-0.878,-5.57 -0.041,-9.375 -2.119,-14.945c-2.834,-7.654 -9.51,-18.573 -15.392,-24.323c-5.702,-5.614 -13.929,-10.52 -18.306,-17.509c-2.607,-4.201 -1.589,-8.754 3.186,-10.742c6.501,-2.697 16.799,5.041 21.711,8.885c4.554,3.538 6.28,7.649 8.71,12.735c1.679,3.537 4.245,5.704 6.279,8.93c1.815,2.874 2.04,5.708 3.141,8.756c0.574,1.549 1.643,2.963 2.346,4.424c1.55,3.494 0.884,5.349 1.461,8.846c0.752,4.464 2.608,9.376 6.764,13.265c0,14.278 -0.094,28.609 0.045,42.935c0.222,25.471 -5.528,49.085 -15.432,72.343c-4.157,9.682 -7.786,20.255 -12.028,30.423h135.883c22.198,0 43.954,-1.013 66.064,-1.948c8.046,-0.356 16.052,-0.971 24.056,-1.637c0.047,-17.023 0.091,-34.044 0.091,-51.073c0,-11.717 1.152,-24.188 -0.487,-35.816c-1.366,-9.728 -3.701,-19.102 -3.933,-28.874c-0.219,-12.472 -6.362,-24.011 -6.631,-36.082c-0.088,-4.912 -6.144,-22.246 1.549,-20.872c1.904,0.353 5.922,4.556 7.871,5.746c1.987,1.237 3.935,2.214 6.058,3.315c5.17,2.566 10.434,4.199 15.432,6.545c6.457,3.047 4.465,8.537 8.842,8.356c-3.272,3.446 -4.321,7.556 -4.553,12.156c-0.527,9.243 0.139,18.661 0.139,27.904c0,21.445 0.176,42.357 2.782,63.627c1.727,14.194 4.116,28.344 5.838,42.494c6.501,-0.345 12.959,-0.571 19.414,-0.526c16.096,0.134 32.149,0.045 48.199,0.045h60.845c8.801,0 17.555,0 26.311,0c6.364,0 13.706,1.143 19.895,-0.357c10.526,-2.568 15.303,-9.863 20.741,-18.266c2.168,-3.318 5.172,-9.061 10.123,-7.871c-11.851,-8.534 -5.838,-20.606 -3.141,-26.311c3.408,-7.164 10.038,-13.002 18.221,-11.008z" /></svg>