<svg xmlns="http://www.w3.org/2000/svg" viewBox="0 0 899 960" width="899" height="960"><path d="M434.14,952.799c-116.135,-17.32 -138.349,-22.887 -184.346,-46.195c-28.253,-14.318 -65.37,-46.781 -72.506,-63.417c-12.744,-29.711 -21.048,-57.857 -23.491,-79.63c-2.203,-19.633 -1.471,-23.58 5.811,-31.33c4.582,-4.878 10.975,-17.771 14.206,-28.652c12.561,-42.296 54.554,-85.207 114.793,-117.306c34.736,-18.508 124.175,-50.856 140.675,-50.878c10.56,-0.014 10.688,-0.312 10.688,-25.273c0,-13.892 -0.553,-25.259 -1.229,-25.259c-8.449,0 -54.537,10.365 -80.376,18.075c-117.625,35.102 -303.104,131.325 -303.104,157.244c0,4.274 -3.808,9.021 -8.743,10.901c-12.483,4.755 -21.45,-4.682 -24.637,-25.927c-2.11,-14.072 -1.372,-18.272 3.715,-21.118c9.715,-5.438 7.753,-12.136 -9.195,-31.389c-8.549,-9.712 -15.544,-21.325 -15.544,-25.806c0,-7.719 2.005,-8.147 38.154,-8.147c49.96,0 64.087,-4.474 160.029,-50.669c43.814,-21.097 94.526,-42.92 112.692,-48.496c64.738,-19.872 72.708,-27.057 50.252,-45.304c-49.312,-40.067 -86.944,-67.204 -110.332,-79.564c-14.877,-7.862 -30.715,-17.962 -35.197,-22.443c-4.482,-4.481 -26.508,-24.131 -48.947,-43.665c-66.25,-57.674 -76.508,-76.38 -57.391,-104.663c11.904,-17.614 26.675,-28.902 37.296,-28.504c3.934,0.147 28.807,25.615 57.455,58.822c68.88,79.85 159.831,170.963 202.068,202.425c36.457,27.157 44.553,30.63 44.893,19.252c1.331,-44.574 -1.329,-262.054 -3.774,-308.494c-2.473,-46.976 -4.756,-63.327 -10.109,-72.387c-8.496,-14.381 -5.974,-21.904 10.135,-30.234c9.396,-4.858 17.498,-5.775 33.442,-3.783c29.145,3.641 29.802,6.075 26.803,99.166c-1.342,41.678 -3.297,119.493 -4.342,172.925c-1.045,53.432 -2.324,102.395 -2.842,108.806c-0.898,11.1 -0.251,11.637 13.516,11.225c9.827,-0.294 40.329,-13.07 95.206,-39.876c44.41,-21.693 82.989,-39.422 85.73,-39.397c2.741,0.025 18.479,-4.992 34.972,-11.147c16.493,-6.155 40.942,-15.12 54.326,-19.922c13.385,-4.802 38.74,-18.258 56.348,-29.902c47.431,-31.373 55.884,-29.357 56.882,13.567c0.584,25.146 -11.153,45.018 -29.903,50.636c-8.415,2.521 -18.007,4.584 -21.318,4.584c-7.189,0 -58.663,18.718 -101.888,37.05c-17.098,7.252 -44.203,18.307 -60.233,24.566c-16.03,6.259 -51.877,21.848 -79.662,34.637c-27.785,12.79 -57.186,25.611 -65.335,28.489c-17.119,6.047 -23.863,12.72 -20.834,20.614c2.707,7.054 110.122,101.153 172.499,151.115c59.802,47.9 118.08,87 137.441,92.212c8.212,2.213 17.547,7.756 20.745,12.321c5.186,7.404 5.138,9.444 -0.456,18.912c-8.562,14.496 -57.515,46.398 -71.194,46.398c-8.788,0 -16.283,-6.185 -38.851,-32.059c-61.751,-70.798 -224.097,-220.357 -239.34,-220.491c-5.342,-0.046 -8.98,101.428 -9.262,258.379c-0.195,107.909 0.143,113.255 7.964,125.937c8.717,14.135 7.971,36.893 -1.315,40.115c-2.614,0.908 -30.983,-2.263 -63.041,-7.044zM451.427,881.599c2.697,-5.04 2.662,-14.419 -0.113,-29.42c-2.617,-14.166 -2.736,-23.655 -0.326,-26.602c4.145,-5.072 -0.347,-111.38 -5.026,-118.95c-1.528,-2.472 -0.892,-6.766 1.41,-9.542c2.97,-3.578 3.015,-14.406 0.154,-37.223c-2.219,-17.696 -4.399,-43.764 -4.844,-57.93l-0.81,-25.755l-11.639,0.362c-21.889,0.68 -58.265,13.255 -105.823,36.586c-37.497,18.395 -53.351,28.797 -74.977,49.198c-15.083,14.229 -26.61,27.998 -25.613,30.593c0.997,2.595 0.1,6.433 -1.991,8.526c-6.426,6.426 -14.281,47.51 -12.343,64.559c1.008,8.872 3.718,21.379 6.022,27.79c6.538,18.195 32.195,50.681 47.496,60.138c18.563,11.472 56.701,19.043 110.903,22.013c24.577,1.347 49.934,4.693 56.347,7.435c15.807,6.76 16.641,6.69 21.173,-1.779z" /></svg>