<svg xmlns="http://www.w3.org/2000/svg" viewBox="0 0 872 960" width="872" height="960"><path d="M784.048,742.897l22.778,-16.372l17.032,-22.612l9.586,-26.622l3.682,-27.782l-2.48,-28.07l-6.237,-19.677l-11.74,-16.91l-20.71,-23.646l0.215,-3.392l-29.434,-11.906l-31.087,-5.786l-15.089,4.047l-25.217,-0.429l-23.027,10.005l-20.007,15.049l-16.372,20.67l-7.278,4.873l-3.392,21.828l-5.872,20.336l0.859,5.249l-1.406,10.048l6.247,27.822l2.393,29.474l7.074,3.886l3.972,6.57l2.856,-0.859l22.531,17.034l18.933,18.31l24.762,7.525l4.884,3.145l10.295,-1.363l31.749,-8.642l29.434,-11.782zM567.783,768.206l24.432,-12.61l25.176,-13.27l-9.586,-25.38l-10.671,-13.52l-6.28,-19.014l-22.324,13.353l11.368,33.11l-9.554,8.062l-11.328,-14.179l-6.742,-9.425l-8.062,-18.355l-0.859,-0.215l0.537,-0.429l-5.292,-1.192l-4.465,-2.651l-13.519,-3.682l-7.192,-6.785l-31.501,-7.6l0.644,-1.567l-1.9,-2.726l1.278,-6.495l2.19,-0.752l2.651,1.567l-0.752,-1.986l24.721,4.38l23.108,6.537l21.538,9.715l16.949,-11.491l17.941,-9.715l-3.017,-15.128l4.627,-26.419l4.831,-25.255l-21.496,-17.446l-25.011,-13.353l-19.305,-6.204l-18.19,-8.062l-3.467,14.883l-4.176,24.347l-1.611,9.876l-3.929,16.825l5.947,-2.566l0.537,2.931l1.406,-0.859l1.117,4.09l8.684,1.986l-0.215,0.752l14.18,3.017l8.512,-25.918l8.845,-5.046l11.409,4.219l-9.017,32.742l2.48,0.644l-5.206,9.339l-5.625,7.149l-14.303,-2.887l-5.915,-1.492l-20.96,-8.481l-22.696,-1.235l-0.043,-4.959l3.059,-26.58l6.409,-26.047l2.856,-26.703l4.508,-11.288l-23.399,-13.641l-23.439,-16.288l3.8,30.758l-1.32,29.185l1.9,27.737l2.641,27.781l-0.429,27.49l-4.465,27.948l7.815,2.856l5.958,2.233l16.949,3.886l0.429,-0.108l15.254,13.186l4.423,1.117l18.354,13.561l18.52,12.398l17.405,18.606l11.699,20.71zM543.134,821.628l-5.046,-28.273l-7.278,-27.657l-4.756,-2.769l-9.296,-25.339l-24.391,-12.115l-24.556,-11.285l-26.787,-3.059l-26.996,-1.9l-26.209,8.684l-24.969,11.824l-17.652,21.329l-14.015,23.812l-2.233,27.532v5.174l-4.873,14.094l4.294,9.511l2.812,29.02l7.611,28.814l21.827,20.587l23.936,12.774l26.622,3.639l26.376,0.644l27.408,0.752l25.134,-10.914l22.696,-15.459l16.495,-22.198l3.596,-27.04l-0.537,-4.798zM303.736,743.804l-18.148,-13.808l10.123,-12.773l21.787,11.122l8.76,2.974l2.19,-2.362l18.604,-17.693l20.049,-15.875l24.556,-9.135l26.953,-4.873l-0.322,-28.982l4.219,-27.903l-2.362,-22.158l0.537,-22.078l-6.322,3.059l-25.837,5.453l-2.437,-9.757l10.913,-10.048l-0.108,0.644l2.684,-1.986l2.275,-1.986l17.238,-6.698l-2.19,-24.063l-0.322,-22.899l-18.686,10.295l-22.117,6.945l-21.206,11.907l-20.546,13.019l-25.837,16.58l-27.078,14.799l-2.104,1.814l-0.967,-1.235l-8.148,3.017l1.117,-1.449l-0.082,6.119l1.363,6.698l2.362,21.536l5.668,20.545l-0.859,25.838l35.8,2.931l13.642,-18.315l17.032,-14.137l4.337,-4.337l-8.802,-29.436l-23.522,9.339l4.713,19.927l-14.386,2.608l-4.841,-11.906l-1.567,0.537l-0.967,-12.24l7.321,-10.338l23.564,-6.28l22.117,-10.005l3.392,1.16l12.773,33.981l-0.752,2.308l2.726,6.162l4.627,4.251l6.28,-3.671l13.766,6.945l-14.758,16.246l-13.89,-1.986l-6.452,-1.782l-18.106,14.512l-26.912,25.176l-21.745,-4.251l-13.104,-0.967l0.537,5.743l-18.19,23.977l-12.856,27.948l24.472,17.859l26.252,16.328l10.747,-28.732l-9.05,-4.176zM215.368,532.53l19.098,17.076l18.975,18.643l19.843,-11.41l19.222,-10.914l-12.816,-11.368l-10.208,-10.295l11.244,-20.132l24.307,-14.595l23.192,-15.954l6.162,0.076l3.843,-0.215l2.233,1.611l3.843,1.771l-7.976,4.262l-2.029,2.726l-0.752,3.017l-0.322,-0.429l0.082,0.215l-23.895,16.125l-13.972,10.499l21.787,14.262l32.704,-17.215l27.45,-11.077l25.094,-16.496l-25.052,-14.261l-23.564,-15.38l-3.843,0.108l-17.238,-5.99l-9.511,-9.876l-20.339,-12.153l-25.092,-13.395l-22.903,-16.784l-21.331,26.21l28.566,13.724l27.408,18.685l0.322,0.859l1.202,0.077l-1.117,12.486l-4.423,0.967l-0.322,-0.429l-1.363,2.931l-0.967,1.278l-4.465,1.492l-19.512,15.133l-18.437,15.624l-4.916,-1.073l-1.202,-4.132l-1.363,2.029l2.887,-9.007l1.202,-3.478l1.073,1.117l-0.215,-2.555l28.317,-21.91l-32.244,-18.397l-22.862,-11.782l-34.477,15.503l-36.834,5.539l-20.38,0.429l1.16,26.289l-0.752,23.107l28.359,4.627l11.699,-11.948l20.835,-19.097l24.102,-17.034l14.137,8.148l-10.997,7.611l-19.471,14.508l-20.049,13.312l0.215,4.595l24.681,8.642l22.117,13.353zM241.152,679.162l6.537,-20.006l1.32,-21.332l-7.482,-20.424l-3.263,-22.116l-22.778,-18.768l-18.602,-22.904l-28.855,-5.497l-27.988,-8.512l-27.945,8.932l-29.187,4.841l-16.618,23.771l-18.892,21.495l-5.947,28.07l-11.328,25.425l8.76,26.706l9.382,26.293l13.972,14.633l11.865,18.439l19.718,7.557l18.809,8.684l20.546,-2.812l20.132,-0.076l21.538,2.275l21.496,-3.972l16.04,-15.049l15.089,-15.71l4.627,-21.494l9.05,-18.439zM51.439,372.267l12.485,21.62l21.206,13.145l0.429,0.537l1.117,-0.215l17.652,4.67l29.309,8.599l30.84,-1.363l3.596,-1.331l3.929,-1.986l25.217,-8.062l7.933,-3.145l3.145,-2.437l1.235,-3.843l20.628,-15.462l11.244,-23.15l10.048,-23.604l-1.782,-18.685l0.322,-33.609l-6.655,-6.119l0.859,-3.435l-16.825,-29.019l-17.776,-21.787l-25.962,-10.616l-26.002,-8.599l-27.574,0.429l-25.837,8.062l-24.019,12.32l-23.192,15.708l-1.535,4.916l-13.807,18.643l-3.467,22.574l-0.967,28.148l-4.841,-1.073l0.082,9.093l-0.215,1.406l8.394,37.291l5.539,5.539l5.249,4.798zM299.39,197.132l-25.755,10.005l-25.217,15.504l10.831,28.523l13.849,26.377l1.986,22.487l3.263,22.654l-0.752,4.552l12.774,-11.328l19.14,-10.09l19.43,-10.747l-7.278,-12.939l-8.599,-1.814l-2.318,-2.147l-12.029,-4.132l0.215,-2.029l-3.757,-3.059l-7.439,-21.787l-3.725,-1.202l1.524,-8.599l0.322,-1.611l5.539,-1.739l0.752,-0.037l6.742,6.57l11.243,18.105l1.117,0.859l0.215,-0.215l0.537,1.073l3.307,0.215l1.202,0.644l7.568,5.164l18.066,15.792l2.029,3.8l4.873,9.501l-4.047,5.164l-10.702,9.264l-16.784,11.618l-16.702,11.406l-16.577,16.126l-11.162,14.549l-3.8,7.278l27.781,15.542l8.191,-5.872l16.742,-14.512l4.09,-2.523l3.972,4.423l6.57,4.916l-2.437,1.449l-14.262,14.137l-4.552,6.527l-2.48,1.9l4.176,4.176l25.299,12.114l26.086,9.919l25.092,14.883l25.053,18.89l-2.362,-31.252l2.48,-29.27l-2.974,-24.888l0.322,-25.052l-4.294,-0.537l-11.287,0.322l-11.368,5.7l-14.841,7.278l23.977,32.164l-16.659,15.049l-20.215,-20.836l-16.37,-24.35l17.238,-20.462l25.672,-4.423l24.1,-8.018l2.684,-1.782l-3.188,-20.257l0.043,-18.685l-19.347,-13.642l-22.655,-8.76l-20.297,-14.925l-20.587,-13.849l-17.362,-18.601l-11.74,-20.711zM364.661,55.538l-16.7,18.809l-12.734,21.457l-9.468,23.275l-4.262,25.009l3.929,25.134l10.873,22.778l-0.859,8.684l22.655,18.563l18.397,22.779l12.236,1.449l23.935,12.195l26.705,2.523l26.872,-1.814l22.282,-15.174l2.104,0.967l-1.406,-4.798l24.06,-21.662l16.122,-29.019l8.684,-33.446l4.305,-9.586l0.537,-14.057l-7.643,-24.267l-5.582,-11.489l-4.132,-3.263l-2.899,-2.029l-12.857,-23.313l-21.868,-14.966l-23.895,-11.326l-26.002,-5.131l-25.837,5.539l-24.514,6.28zM566.201,193.326l-13.642,21.044l-11.079,24.638l-13.27,6.773l8.469,6.237l9.296,11.744l2.974,-1.117l7.149,-8.105l8.684,-11.739l14.262,-7.192l0.322,7.278l-19.471,30.592l-0.215,-0.076l-8.642,9.629l-4.465,4.916l-2.029,-1.653l-8.394,-3.596l-0.215,-1.535l-9.264,-8.512l-14.222,-14.884l-12.361,11.948l-24.596,8.963l-24.887,6.698l-1.202,27.532l0.752,28.027l-0.967,27.74l-1.202,27.74l2.899,29.062l-1.16,29.227l25.384,-14.469l27.532,-10.659l22.241,-17.239l22.24,-16.742l25.465,-12.156l23.482,-13.395l-5.292,-30.425l-23.151,11.656l-22.2,13.024l-18.809,10.541l-20.174,8.018l-27.449,14.47l-0.322,0.322l-2.899,-1.16l2.974,-3.51l-3.145,-3.059l2.887,-24.638l-2.566,-24.596l-0.537,-24.805l13.228,-13.187l20.214,8.437l19.637,8.512l-15.461,12.486l0.859,4.132l-1.245,-2.318l-19.718,-12.524l3.263,24.805l-1.278,25.255l9.264,-1.943l8.932,-8.266l26.375,-19.265l21.042,-16.204l22.737,-9.511l7.321,-23.813l1.32,-24.596l12.609,-21.166l12.154,-24.059l-28.028,-13.312l-22.324,-16.041zM668.544,508.887l2.856,0.752l3.8,-10.541l8.191,-11.493l9.919,-2.899l2.856,3.188l4.916,28.07l24.598,-1.857l23.895,-4.552l-0.215,-26.872l-3.929,-24.347l-6.988,-1.245l-11.162,3.8l-4.873,-4.873l-29.723,-1.653l-27.779,-10.005l-25.053,-15.624l0.967,-5.335l-27.119,-24.43l-15.089,9.757l16.578,34.849l4.305,14.265l13.849,3.886l21.909,6.86l-0.752,5.41l-1.653,3.467l-2.362,3.553l-3.263,0.108l-24.887,-3.307l-25.384,-5.41l-13.6,-34.601l-6.817,-17.651l-10.872,8.018l-24.927,12.36l-24.969,12.111l-24.515,16.784l-26.582,13.27l26.044,14.14l23.854,17.94l23.935,14.14l23.729,14.55l10.048,3.478l7.858,-18.935l15.047,-15.75l-16.7,-6.452l-10.123,-2.393l-0.215,0.215l-11.244,-8.437l-3.596,-1.943l-3.8,-2.651l-8.888,5.453l-0.429,-3.435l-18.437,-5.335l2.608,-0.108l6.033,-8.223l10.413,-5.046l0.215,-2.072l2.566,1.449l-0.644,-1.653l0.644,1.449l10.997,-9.715l4.014,3.467l1.235,0.859l6.903,7.772l3.263,6.033l20.463,11.902l22.447,6.495l-0.322,0.322l3.596,1.073l-14.716,30.883l-18.769,21.165l31.253,12.278l19.305,-13.437l17.487,-13.807l0.082,-5.539l17.776,-24.022zM619.745,327.274l5.743,24.596l6.785,24.596l16.536,19.677l19.265,13.273l21.952,7.729l9.017,0.859l12.195,3.51l6.655,4.798l9.833,-2.147l28.111,-2.233l26.623,-10.831l23.604,-16.992l9.586,-12.773l-1.073,-1.16l2.641,1.235l7.729,-19.924l8.642,-19.515l-1.449,-0.752l1.567,-1.288l-2.061,-10.627l2.233,-30.137l-5.249,-9.876l-6.409,-22.862l-6.162,-4.713l-0.752,-2.726l-18.313,-22.778l-19.14,-13.432l-20.671,-10.541l-21.827,-9.554l-8.18,-1.567l-9.264,3.307l-24.391,7.976l-22.612,11.118l-23.274,12.32l-15.255,21.499l-11.326,23.726l-4.959,25.923l5.582,3.435l-1.235,3.263zM865.682,615.188l2.275,25.713l3.22,25.218l-4.627,12.773l-4.294,22.737l-6.495,22.2l-2.726,6.86l-17.239,18.105l-22.158,18.231l-19.512,8.105l-18.851,9.844l-33.32,5.41l-14.18,-0.859l-20.587,1.771l-24.391,-10.456l-25.424,-6.988l-9.178,-3.51l-18.231,10.702l-16.784,12.941l-19.016,9.264l-17.445,10.671l1.202,3.51l-0.215,1.814l0.537,1.278l-0.537,2.684l-0.429,2.48l-7.031,37.124l-10.252,25.214l-13.146,24.35l-8.802,13.891l-24.184,15.088l-25.052,13.891l-27.615,2.931l-27.575,1.825l-27.449,-1.117l-27.74,-3.725l-21.206,-18.561l-22.655,-15.667l-18.892,-21.082l-19.471,-21.086l-1.567,-28.769l-4.38,-27.948l2.147,-9.919l-19.926,-8.469l-21.373,-4.873l-15.544,-15.584l-14.303,-17.942l-10.79,9.672l-23.233,7.643l-24.391,3.682l-22.49,10.252l-37.454,-5.378l-22.323,-16.328l-24.06,-13.521l-19.554,-18.931l-19.553,-19.222l-5.539,-26.956l-7.236,-26.001l-0.537,-27.036l0.215,-27.202l9.586,-25.797l12.734,-24.764l18.644,-21.453l20.092,-20.257l11.243,1.857l0.108,-21.62l-0.537,-21.086l4.09,-20.873l-1.073,-21.248l-6.817,-9.425l-20.96,-17.363l-22.901,-15.049l-11.575,-23.521l-12.402,-23.025l1.363,-8.975l-5.089,-23.978l2.318,-24.018l4.67,-27.202l6.076,-27.326l13.849,-16.246l13.023,-16.367l20.67,-9.425l18.272,-12.816l36.545,-11.08l19.43,0.215l31.625,2.555l1.073,-1.192l6.204,-0.859l22.365,5.002l21.786,10.872l35.594,-18.89l19.057,-8.845l18.066,-11.205l2.566,-8.599l0.082,-21.291l5.164,-20.753l0.537,-2.931l3.478,-0.537l-2.393,-1.073h0.322l3.435,-10.747l5.164,-6.817l-0.043,-2.684l11.617,-16.742l13.684,-15.049l25.383,-22.655l25.672,-10.789l26.084,-8.975l1.567,-0.859l33.94,-2.029l29.351,6.945l-0.752,4.132l15.09,4.541l4.873,-0.537l19.346,13.603l19.554,13.558l15.337,23.153l13.188,24.514l6.452,26.993l8.684,26.377l-3.017,9.178l5.99,0.859l2.19,7.772l28.567,11.947l25.011,17.155l4.713,1.986l9.586,3.102l11.533,-4.541l7.321,-2.684l21.084,-9.962l23.77,-3.639l23.977,0.108l23.192,4.595l17.074,5.131l12.608,4.841l17.321,16.988l19.678,14.303l-0.644,2.769l18.686,20.544l6.903,26.21l10.381,25.134l-3.553,27.076l0.537,27.119l-13.891,23.232l-8.888,26.335l-20.008,19.885l-18.313,21.166l-5.582,2.233l0.322,-0.537l-6.655,0.215l-1.202,3.596l4.508,37.286l3.307,20.878l0.429,20.299l2.48,4.756l18.148,13.724l17.114,14.966l13.063,22.158l7.074,1.739l12.07,33.814z" /></svg>