<svg xmlns="http://www.w3.org/2000/svg" viewBox="0 0 912 896" width="912" height="896"><path d="M912.295,496.989h-5.854c-9.756,0 -20.486,2.927 -29.267,8.781c-47.804,87.802 -122.924,154.143 -212.678,189.263v110.242l121.947,10.731l-126.826,16.584l-81.949,63.413l33.171,-53.657l-127.801,14.634l108.29,-38.047l-72.193,-26.341l109.265,6.829v-92.681c-36.096,10.73 -75.12,16.584 -115.119,16.584c-4.876,0 -8.778,0 -13.657,0l-7.805,36.097l57.56,3.902l-71.218,17.561l-122.924,47.803l82.925,-51.707l-127.801,-14.634l117.071,-2.927l-68.291,-34.145l102.436,29.267l6.829,-33.171c-134.63,-14.634 -254.628,-94.633 -319.992,-216.58v-0.975c-22.438,-57.561 -23.415,-121.95 -2.927,-181.46c19.511,-56.583 58.535,-103.413 108.29,-132.68c-8.781,-2.927 -16.584,-4.879 -25.365,-4.879c-23.412,-0.975 -39.999,9.757 -56.583,20.488c-17.56,10.731 -36.096,22.438 -63.413,22.438c-32.196,0 -47.805,-12.682 -54.634,-22.438c-2.927,-4.878 -5.854,-9.755 -6.829,-15.609c-1.95,6.829 -1.95,13.657 -0.975,19.511l1.952,7.805l-7.805,-2.927c-8.78,-3.903 -29.267,-13.659 -37.072,-36.097c-10.731,-30.242 10.732,-58.535 20.488,-69.266c14.634,-16.587 32.195,-21.463 60.487,-30.244c20.486,-5.852 35.121,-8.779 47.803,-10.731c18.536,-2.927 29.268,-4.878 39.999,-15.609c12.682,-12.682 17.561,-30.243 18.536,-37.072v-2.927l1.952,-0.975c75.122,-30.243 161.949,2.927 197.069,77.072c33.171,70.241 9.756,154.141 -55.608,196.092c-5.854,3.902 -8.781,9.755 -9.756,16.584c-0.975,5.853 0.975,11.707 5.854,15.609l0.975,0.975c1.952,0.975 3.902,1.952 5.854,2.927c8.781,2.927 17.561,0 23.415,-6.829c6.829,-6.829 14.634,-16.585 25.365,-24.39c79.022,-58.536 182.433,-77.072 277.066,-49.755c103.411,30.242 183.409,110.24 213.653,214.628c15.61,6.828 27.317,20.488 33.171,37.072zM100.616,176.991c24.39,-3.903 43.901,-14.634 58.535,-26.341c-3.901,0.975 -8.778,1.952 -13.657,2.927c-12.683,1.95 -19.512,1.95 -27.317,0.975c-6.829,0 -13.659,-0.977 -24.39,0.975c-12.684,2.927 -31.22,5.854 -41.951,21.463l-0.975,0.975c16.584,1.952 33.171,1.952 49.755,-0.975zM216.709,71.628c0,-7.803 -5.852,-13.657 -13.657,-13.657c-7.803,0 -13.657,5.854 -13.657,13.657c0,7.803 5.852,13.657 13.657,13.657c6.828,0 12.682,-5.852 13.657,-13.657z" /></svg>