<svg xmlns="http://www.w3.org/2000/svg" viewBox="0 0 692 180" width="692" height="180"><path d="M179.6,90c0,49.183 -40.42,89.6 -89.6,89.6c-49.18,0 -89.6,-40.417 -89.6,-89.6c0,-49.181 40.419,-89.6 89.6,-89.6c49.181,0 89.6,40.419 89.6,89.6zM51.6,90c0,21.514 16.888,38.4 38.4,38.4c21.512,0 38.4,-16.886 38.4,-38.4c0,-21.511 -16.889,-38.4 -38.4,-38.4c-21.511,0 -38.4,16.889 -38.4,38.4z" /> <path d="M435.6,90c0,49.182 -40.418,89.6 -89.6,89.6c-49.18,0 -89.6,-40.417 -89.6,-89.6c0,-49.181 40.419,-89.6 89.6,-89.6c49.183,0 89.6,40.42 89.6,89.6zM307.6,90c0,21.514 16.888,38.4 38.4,38.4c21.515,0 38.4,-16.885 38.4,-38.4c0,-21.512 -16.886,-38.4 -38.4,-38.4c-21.511,0 -38.4,16.889 -38.4,38.4z" /> <path d="M691.6,90c0,49.182 -40.418,89.6 -89.6,89.6c-49.182,0 -89.6,-40.418 -89.6,-89.6c0,-49.18 40.417,-89.6 89.6,-89.6c49.183,0 89.6,40.42 89.6,89.6zM563.6,90c0,21.515 16.885,38.4 38.4,38.4c21.515,0 38.4,-16.885 38.4,-38.4c0,-21.512 -16.886,-38.4 -38.4,-38.4c-21.514,0 -38.4,16.888 -38.4,38.4z" /></svg>