<svg xmlns="http://www.w3.org/2000/svg" viewBox="0 0 807 806" width="807" height="806"><path d="M309.437,406c0,17.674 -29.418,32 -65.709,32c-36.291,0 -65.709,-14.326 -65.709,-32c0,-17.673 29.419,-32 65.709,-32c36.29,0 65.709,14.327 65.709,32z" /> <path d="M112.641,470c13.609,0 24.641,21.489 24.641,48c0,26.511 -11.032,48 -24.641,48c-13.608,0 -24.641,-21.489 -24.641,-48c0,-26.511 11.032,-48 24.641,-48z" /> <path d="M186.563,582c13.609,0 24.641,21.489 24.641,48c0,26.511 -11.032,48 -24.641,48c-13.608,0 -24.641,-21.489 -24.641,-48c0,-26.511 11.032,-48 24.641,-48z" /> <path d="M260.156,652.712c0,-22.8 11.032,-41.283 24.641,-41.283c13.609,0 24.641,18.484 24.641,41.283c0,22.805 -11.033,41.288 -24.641,41.288c-13.609,0 -24.641,-18.484 -24.641,-41.288z" /> <path d="M358.718,511.287c0,-22.805 11.032,-41.288 24.641,-41.288c13.609,0 24.641,18.484 24.641,41.288c0,22.8 -11.033,41.283 -24.641,41.283c-13.609,0 -24.641,-18.484 -24.641,-41.283z" /> <path d="M309.437,581.498c0,-22.8 11.032,-41.283 24.641,-41.283c13.609,0 24.641,18.484 24.641,41.283c0,22.805 -11.032,41.288 -24.641,41.288c-13.609,0 -24.641,-18.484 -24.641,-41.288z" /> <path d="M740.1,61.1c23.693,6.349 41.566,22.97 52.9,42.6c11.334,19.63 16.847,43.507 10.5,67.2l-116,432.7c-6.351,23.691 -22.97,41.566 -42.6,52.9c-19.63,11.334 -43.406,16.846 -67.1,10.5l-30.9,-8.3l13.2,-49.5l30.9,8.3c7.349,1.968 18.577,0.313 28.3,-5.3c9.697,-5.599 16.809,-14.465 18.8,-21.8l115.9,-432.8c1.968,-7.345 0.313,-18.578 -5.3,-28.3c-5.613,-9.722 -14.455,-16.732 -21.8,-18.7l-216.4,-58c-7.345,-1.968 -18.578,-0.313 -28.3,5.3c-9.722,5.613 -16.731,14.553 -18.7,21.9l-49.7,185.4l-49.5,-13.2l49.7,-185.5c6.351,-23.691 22.97,-41.567 42.6,-52.9c19.63,-11.333 43.407,-16.748 67.1,-10.4zM292.8,274.3l157.7,91.1c27.682,15.984 44.8,45.628 44.8,77.6v182c0,31.972 -17.116,61.614 -44.8,77.6l-157.7,91.1c-27.687,15.986 -61.913,15.986 -89.6,0l-157.7,-91.1c-27.687,-15.986 -44.8,-45.629 -44.8,-77.6v-182c0,-31.971 17.114,-61.616 44.8,-77.6l157.7,-91.1c27.687,-15.985 61.913,-15.985 89.6,0zM71.1,409.7c-11.918,6.881 -19.2,19.539 -19.2,33.3v182c0,13.761 7.284,26.42 19.2,33.3l157.7,91.1c11.916,6.88 26.484,6.88 38.4,0l157.7,-91.1c11.914,-6.88 19.2,-19.541 19.2,-33.3v-182c0,-13.759 -7.284,-26.419 -19.2,-33.3l-157.7,-91.1c-11.916,-6.88 -26.484,-6.88 -38.4,0z" /></svg>