<svg xmlns="http://www.w3.org/2000/svg" viewBox="0 0 1024 704" width="1024" height="704"><path d="M1024,352v288c0,35.346 -28.652,64 -64,64h-896c-35.346,0 -64,-28.654 -64,-64v-288c0,-7.266 2.474,-14.316 7.012,-19.99l256,-320c6.072,-7.592 15.268,-12.01 24.988,-12.01h448c9.722,0 18.914,4.418 24.988,12.01l256,320c4.54,5.674 7.012,12.724 7.012,19.99zM960,363.224l-239.38,-299.224h-417.24l-239.38,299.224v20.776h224l128,128h192l128,-128h224z" /> <path d="M736,192h-448c-17.672,0 -32,-14.328 -32,-32c0,-17.672 14.328,-32 32,-32h448c17.674,0 32,14.328 32,32c0,17.672 -14.326,32 -32,32z" /> <path d="M800,320h-576c-17.672,0 -32,-14.326 -32,-32c0,-17.674 14.328,-32 32,-32h576c17.674,0 32,14.326 32,32c0,17.674 -14.326,32 -32,32z" /></svg>