<svg xmlns="http://www.w3.org/2000/svg" viewBox="0 0 684 869" width="684" height="869"><path d="M327.7,3.3l260.9,75c44.401,11.897 71.195,58.197 59.299,102.604l-131.902,443.6c-11.895,44.402 -58.198,71.095 -102.6,59.2l-99.999,-30.202l14.8,-49l98.4,29.8c17.672,4.734 35.166,-5.427 39.9,-23.1l131.902,-443.602c4.735,-17.674 -5.326,-35.164 -23,-39.9l-261.2,-75h-0.1c-17.64,-4.671 -35.073,5.359 -39.8,23l-86.3,293.5l-49.1,-14.4l85.9,-292.3c11.897,-44.402 58.198,-71.197 102.6,-59.3zM134.4,459l20.1,-15.8l116.3,147.7l-40.2,31.6l-70.6,-89.7v44.4c0,82.313 29.46,140.732 73.3,180.3c43.84,39.568 103.222,59.9 162.9,59.9c59.678,0 118.96,-20.332 162.8,-59.9c43.84,-39.568 73.4,-97.987 73.4,-180.3h51.2c0,94.919 -35.958,169.253 -90.3,218.3c-54.342,49.047 -125.869,73.1 -197.1,73.1c-71.231,0 -142.858,-24.053 -197.2,-73.1c-54.342,-49.047 -90.2,-123.381 -90.2,-218.3v-55.8l-72.6,73.7l-36.4,-35.9l116.3,-118.2z" /></svg>