<svg xmlns="http://www.w3.org/2000/svg" viewBox="0 0 877 583" width="877" height="583"><path d="M752.462,286.716c0.235,-0.05 0.469,-0.1 0.704,-0.142c0.555,-1.685 0.149,-2.702 -0.917,-3.89c-1.066,-1.188 -1.792,-2.404 -2.759,-3.641c-2.233,-2.88 -4.395,-6.521 -7.196,-8.647c-3.868,-2.937 -6.72,-7.14 -10.631,-9.998c-3.712,-2.716 -7.716,-6.628 -10.66,-10.212c-2.361,-2.873 -5.077,-5.483 -7.602,-8.05c-2.731,-2.773 -6.194,-4.764 -9.337,-7.189c-3.001,-2.318 -5.483,-4.9 -8.078,-7.687c-2.041,-2.197 -4.11,-4.928 -6.379,-6.812c-5.383,-4.487 -11.755,-6.642 -17.792,-9.934c-6.108,-3.342 -12.743,-5.902 -19.122,-8.704c-3.484,-1.536 -7.204,-2.759 -10.61,-4.466c-1.785,-0.889 -3.406,-1.991 -5.141,-2.965c-1.515,-0.846 -3.008,-1.522 -4.629,-2.34c-3.001,-1.515 -6.478,-2.638 -9.145,-4.43c-2.588,-1.735 -4.772,-4.103 -7.41,-5.753c-6.094,-3.819 -12.544,-6.62 -19.093,-9.316c-3.292,-1.358 -6.372,-2.596 -9.778,-3.847c-1.458,-0.533 -2.844,-1.209 -4.217,-1.721c-1.358,-0.512 -3.164,-1.237 -4.7,-1.593c-1.678,-0.391 -3.47,-0.512 -5.12,-0.91c-1.543,-0.363 -2.994,-1.138 -4.636,-1.536c-3.236,-0.775 -6.4,-1.97 -9.771,-2.66c-1.714,-0.356 -3.378,-0.491 -5.092,-0.917c-1.828,-0.462 -3.698,-0.576 -5.518,-1.038c-0.96,-0.249 -1.5,-0.633 -2.546,-0.683c-0.818,-0.043 -1.749,0.206 -2.553,0.064c-0.917,-0.164 -1.621,-0.782 -2.546,-0.939c-0.981,-0.164 -1.984,0.185 -2.972,-0.028c-1.849,-0.398 -3.1,-0.782 -5.092,-0.775c-2.148,0.007 -3.513,-0.54 -5.518,-0.896c-3.271,-0.576 -7.275,0.05 -10.617,0.05c-1.621,0 -3.513,0.27 -5.092,-0.078c-0.917,-0.199 -1.586,-0.704 -2.546,-0.811c-1.031,-0.107 -1.927,0.092 -2.951,-0.149c-4.309,-1.031 -8.924,-0.768 -13.191,-2.254c-3.762,-1.316 -7.694,-1.493 -11.456,-2.468c-1.956,-0.505 -4.011,0.135 -5.966,-0.377c-1.927,-0.505 -3.413,-0.661 -5.497,-0.661c-7.332,0 -14.67,0 -22.002,0c-4.025,0 -8.647,0.64 -12.572,-0.185c-2.041,-0.427 -3.605,-0.661 -5.71,-0.661c-1.088,0 -2.432,-0.256 -3.492,-0.043c-1.223,0.242 -2.041,0.853 -3.349,0.924c-4.217,0.213 -8.512,-0.036 -12.736,-0.036c-3.854,0.007 -7.367,0.839 -11.036,1.728c-3.499,0.839 -7.125,1.209 -10.61,2.098c-2.994,0.761 -6.009,2.048 -8.903,2.944c-3.797,1.18 -7.708,2.226 -11.477,3.527c-3.876,1.337 -6.592,3.335 -9.956,5.625c-3.022,2.062 -6.343,2.844 -9.564,3.691c-3.584,0.939 -7.147,2.823 -10.816,3.364c-4.267,0.626 -8.562,0.846 -12.9,1.579c-0.882,0.149 -1.728,-0.064 -2.61,0.036c-1.052,0.121 -1.934,0.626 -2.98,0.804c-2.133,0.37 -3.861,0.924 -5.945,1.564c-7.004,2.176 -14.869,3.684 -21.269,7.644c-5.995,3.719 -11.897,7.801 -18.638,10.212c-7.488,2.681 -14.812,6.542 -22.08,9.764c-3.719,1.657 -7.666,2.716 -11.428,4.437c-3.776,1.728 -7.815,3.022 -11.492,4.885c-7.061,3.57 -14.727,6.265 -21.042,11.058c-2.916,2.219 -5.852,4.153 -9.088,5.717c-2.901,1.401 -5.412,2.453 -8.036,4.423c-2.766,2.084 -5.433,3.996 -8.54,5.333c-1.287,0.548 -2.482,1.131 -3.804,1.671c-2.027,0.832 -3.684,1.82 -5.547,2.83c-1.344,0.725 -2.816,1.323 -4.252,2.076c-0.853,0.448 -1.351,1.017 -2.098,1.493c-0.576,0.37 -1.408,0.647 -1.934,1.031c-1.266,0.917 -2.169,2.283 -3.605,3.044c-1.614,0.839 -3.072,1.579 -4.651,2.702c-5.81,4.132 -10.475,9.358 -16.206,13.596c-2.34,1.728 -5.326,3.271 -7.972,4.267c-1.358,0.512 -2.809,0.725 -4.267,1.422c-1.664,0.789 -2.809,2.133 -4.21,3.221c-2.389,1.856 -4.857,3.136 -7.04,5.312c-1.934,1.934 -3.186,4.231 -5.312,5.732c-2.389,1.685 -4.416,3.278 -6.578,5.305c-2.261,2.126 -5.077,3.676 -7.46,5.739c-2.24,1.948 -3.278,4.708 -5.682,6.571c-2.844,2.204 -6.101,3.42 -9.18,5.305c-2.702,1.671 -4.764,3.001 -8.028,2.972c-3.129,-0.021 -6.222,0.512 -8.917,1.7c-0.974,0.434 -2.439,1.351 -3.47,1.628c-1.607,0.427 -3.762,0.071 -5.447,0.071h-31.836c-3.847,0 -7.026,-0.626 -10.617,-1.515c-3.406,-0.839 -6.955,-1.166 -10.197,-2.297c-1.031,-0.356 -2.788,-1.095 -2.503,-2.46c0.327,-1.586 3.1,-1.707 4.252,-2.219c3.406,-1.5 6.535,-3.321 9.721,-5.412c3.292,-2.155 6.571,-4.302 9.721,-6.663c2.93,-2.19 5.525,-4.565 8.491,-6.791c4.978,-3.748 9.301,-8.228 14.457,-11.705c3.236,-2.176 6.492,-4.217 9.785,-6.272c2.908,-1.813 5.909,-3.079 8.732,-4.978c6.492,-4.359 13.852,-6.919 20.565,-11.008c3.264,-1.991 6.471,-4.132 9.764,-6.286c3.399,-2.233 6.841,-4.188 9.813,-6.905c2.894,-2.652 5.796,-5.276 8.896,-7.858c2.965,-2.468 5.781,-5.312 8.889,-7.659c0.796,-0.604 1.884,-0.917 2.588,-1.628c0.711,-0.718 0.868,-1.7 1.607,-2.404c1.593,-1.508 3.804,-2.745 5.568,-4.089c3.52,-2.702 6.748,-5.668 10.588,-7.986c1.87,-1.124 3.968,-1.692 5.916,-2.738c2.375,-1.273 4.644,-2.716 7.161,-3.634c4.594,-1.664 9.031,-4.444 13.454,-6.556c4.686,-2.24 8.96,-5.084 13.753,-7.04c4.409,-1.799 8.348,-3.861 12.565,-5.739c4.345,-1.934 8.818,-3.484 12.999,-5.689c3.833,-2.012 7.531,-4.196 11.442,-6.18c3.712,-1.877 7.716,-2.994 11.456,-4.878c3.499,-1.771 6.976,-3.143 10.617,-4.437c1.543,-0.548 2.816,-1.678 4.203,-2.361c1.792,-0.882 3.755,-1.607 5.575,-2.546c3.186,-1.643 6.528,-2.823 9.749,-4.459c6.748,-3.413 12.757,-6.635 18.332,-11.676c2.901,-2.617 7.154,-4.011 10.731,-5.326c4.38,-1.614 9.28,-2.596 13.824,-3.584c2.496,-0.548 4.651,-1.159 7.204,-1.252c1.458,-0.057 2.724,-0.604 4.16,-0.804c1.465,-0.199 2.887,0.071 4.338,-0.256c2.425,-0.555 4.487,-0.583 7.004,-0.64c2.411,-0.057 4.636,-0.74 7.09,-0.839c4.281,-0.178 9.01,-2.14 13.12,-3.428c3.783,-1.188 7.879,-1.97 11.492,-3.399c4.281,-1.692 8.853,-2.709 13.042,-4.48c1.984,-0.839 4.53,-1.55 6.635,-2.119c2.482,-0.676 4.914,-1.444 7.417,-1.991c2.546,-0.562 5.084,-1.095 7.652,-1.529c1.28,-0.213 2.567,0.114 3.84,-0.142c1.444,-0.277 2.475,-0.768 3.989,-0.796c1.173,-0.021 2.468,0.228 3.634,0.064c1.252,-0.178 2.354,-0.804 3.627,-0.939c2.702,-0.27 5.056,-0.22 7.737,-0.732c4.366,-0.825 9.621,-0.071 14.08,-0.071c4.715,0 9.429,0.05 14.137,-0.007c2.389,-0.028 4.409,0.839 6.798,0.868c2.368,0.028 4.743,-0.007 7.111,-0.007c2.183,0 4.402,-0.1 6.585,-0.021c2.524,0.092 4.743,0.882 7.346,0.868c2.005,-0.014 4.018,-0.05 6.023,-0.007c2.268,0.043 4.252,0.889 6.556,0.853c4.48,-0.064 8.626,1.671 13.056,1.7c2.368,0.021 4.252,0.832 6.628,0.853c2.212,0.014 4.466,0.626 6.635,1.038c4.487,0.846 8.953,2.503 13.412,3.641c4.217,1.074 8.576,1.657 12.679,2.965c4.331,1.38 8.704,2.78 13.127,3.826c1.998,0.469 4.032,0.775 6.023,1.188c0.981,0.206 1.97,-0.007 2.972,0.043c1.301,0.057 2.133,0.64 3.349,0.903c2.012,0.448 4.132,0.612 6.18,1.017c2.318,0.448 4.587,1.365 6.948,1.536c9.636,0.668 19.911,4.366 28.757,8.462c4.373,2.027 8.832,3.854 13.362,5.511c2.247,0.818 4.16,2.148 6.457,2.98c2.61,0.953 5.269,1.906 7.964,2.553c4.8,1.145 9.5,3.342 14.123,5.092c4.594,1.742 9.188,3.065 13.874,4.437c8.732,2.546 17.436,6.151 25.5,10.204c3.748,1.884 7.701,3.008 11.463,4.885c3.534,1.771 7.076,3.534 10.61,5.305c3.556,1.778 7.033,3.762 10.19,6.158c1.508,1.145 3.186,1.899 4.7,2.951c1.415,0.974 2.652,2.389 3.975,3.42c2.951,2.297 5.049,5.22 7.78,7.673c2.432,2.183 4.871,4.708 6.45,7.566c1.735,3.143 3.435,6.286 4.267,9.806c0.42,1.764 1.294,3.328 1.7,5.092c0.448,1.956 1.543,2.901 2.361,4.672c1.38,3.008 3.015,6.037 4.85,8.882c1.024,1.6 1.813,3.556 2.958,5.056c1.244,1.643 2.93,3.122 4.309,4.764c4.494,5.34 9.237,10.866 13.547,16.299c2.276,2.873 4.985,6.421 6.684,9.65c1.82,3.47 4.359,6.485 6.713,9.692c2.276,3.108 4.665,6.066 6.03,9.764c1.323,3.577 1.543,7.104 2.667,10.631c1.792,5.618 4.615,12.544 3.406,19.122c-0.32,1.735 -0.953,1.963 -0.455,3.79c0.412,1.515 0.64,3.378 0.441,5.113c-0.327,2.887 -1.65,6.229 -3.84,8.469c-2.098,2.14 -4.388,3.918 -7.026,5.326c-2.652,1.415 -5.276,2.069 -8.185,3.271c-2.489,1.031 -5.291,2.396 -7.524,3.904c-1.365,0.924 -2.162,1.586 -3.826,2.14c-1.6,0.533 -2.951,0.64 -4.857,0.64c-3.371,0 -5.525,-0.732 -8.455,-1.7c-1.785,-0.583 -3.022,-0.889 -4.708,-0.42c-1.465,0.405 -3.001,0.498 -4.672,0.434c-2.802,-0.121 -5.81,-1.55 -8.455,-2.667c-1.657,-0.697 -3.42,-1.116 -5.127,-1.692c-1.116,-0.384 -3.243,-1.778 -4.352,-1.572c1.38,-1.102 2.076,-2.176 3.932,-2.596c1.593,-0.356 3.328,-0.533 4.9,-1.017c1.536,-0.469 3.492,-1.173 5.092,-1.692c1.052,-0.341 2.368,-1.259 2.972,-2.318c1.671,-2.901 2.581,-6.165 3.349,-9.38c0.398,-1.657 1.166,-3.093 1.543,-4.644c0.228,-0.924 -0.178,-2.069 -0.05,-3.022c0.114,-0.832 0.476,-1.202 0.683,-1.863c0.512,-1.628 0.562,-2.02 1.671,-3.378c0.782,-0.953 0.697,-1.813 1.06,-2.837c0.242,-0.676 0.732,-1.358 0.896,-2.048c0.356,-1.508 -0.043,-3.584 -0.043,-5.134c0,-1.892 0.199,-3.94 -0.192,-5.76c-0.121,-0.569 -0.583,-1.031 -0.676,-1.863c-0.085,-0.718 -0.05,-1.842 0,-2.567c0.142,-2.091 1.195,-3.74 0.889,-5.966c-0.114,-0.796 -0.505,-1.244 -0.683,-1.863c-0.249,-0.882 -0.007,-1.472 -0.142,-2.361c-0.299,-1.913 -1.977,-4.779 -3.442,0z" /> <path d="M717.65,369.078c-0.498,-1.01 -1.344,-1.877 -0.718,-3.1c3.25,1.131 7.161,3.108 10.055,4.779c3.221,1.856 6.692,2.98 10.19,4.267c3.115,1.152 6.286,1.856 9.344,3.164c1.749,0.747 3.47,1.778 4.921,3.008c1.778,1.508 1.351,2.027 1.82,4.06c0.32,1.387 0.917,1.728 0.896,3.356c-0.021,1.593 0.334,3.534 0.043,5.084c-0.59,3.129 -4.373,4.366 -6.67,6.158c-2.254,1.764 -4.188,3.036 -6.748,4.245c-3.022,1.429 -5.931,3.705 -8.526,5.966c-4.359,3.79 -9.842,5.724 -14.443,9.316c-1.984,1.557 -3.876,3.058 -6.066,4.252c-2.788,1.529 -5.035,4.359 -7.872,5.518c-3.307,1.344 -6.763,2.738 -9.813,4.665c-2.958,1.877 -5.355,3.442 -8.683,4.224c-3.036,0.718 -6.535,2.411 -9.337,3.847c-3.477,1.785 -7.481,2.404 -10.645,4.786c-4.267,3.214 -9.259,5.76 -13.931,8.377c-2.944,1.643 -5.76,3.036 -8.889,4.132c-1.244,0.441 -2.51,1.067 -3.89,1.408c-1.97,0.484 -4.06,0.427 -5.988,1.017c-2.652,0.796 -5.554,2.133 -8.448,2.617c-0.804,0.135 -1.55,-0.028 -2.361,0.142c-0.562,0.114 -1.06,0.576 -1.87,0.676c-1.899,0.242 -3.271,0.135 -5.113,0.832c-5.589,2.119 -11.008,4.651 -16.796,6.13c-1.052,0.27 -2.709,1.109 -3.769,1.323c-1.287,0.263 -2.581,0.107 -3.868,0.377c-0.59,0.128 -1.024,0.583 -1.863,0.683c-0.932,0.114 -1.628,-0.078 -2.567,0.171c-2.069,0.533 -3.726,0.69 -5.945,0.661c-1.785,-0.021 -2.574,0.597 -4.245,0.889c-1.564,0.277 -3.506,-0.043 -5.099,-0.043h-10.19c-1.529,0 -3.662,-0.398 -5.134,-0.043c-0.768,0.185 -0.839,0.754 -1.614,0.932c-0.832,0.199 -1.799,-0.277 -2.631,-0.085c-1.095,0.256 -2.133,0.775 -3.356,1.081c-1.977,0.491 -3.982,0.761 -5.938,1.508c-2.773,1.06 -5.796,2.005 -8.476,2.553c-3.684,0.74 -7.168,0.839 -11.058,0.846c-1.408,0 -2.88,-0.185 -4.245,0.185c-1.259,0.341 -1.18,0.775 -2.546,0.498c-0.967,-0.199 -1.472,-0.647 -2.546,-0.704c-1.707,-0.092 -3.435,0.263 -5.099,-0.171c-1.692,-0.441 -3.399,-0.398 -5.092,-0.846c-2.091,-0.555 -3.79,-0.377 -5.988,-0.64c-1.792,-0.213 -3.179,-0.917 -5.049,-0.868c-1.671,0.043 -2.681,-0.619 -4.245,-0.896c-0.754,-0.128 -1.778,0.028 -2.546,0.043c-1.444,0.028 -2.084,-0.306 -3.399,-0.654c-2.112,-0.569 -3.136,0.356 -5.092,0.704c-1.308,0.228 -2.916,-0.05 -4.245,-0.05c-3.541,0.007 -7.225,-0.284 -10.617,0.427c-3.172,0.661 -6.571,-0.178 -9.764,0.384c-1.735,0.306 -2.816,0.91 -4.672,0.889c-2.091,-0.021 -3.577,0.156 -5.518,0.661c-3.186,0.832 -6.507,0.54 -9.764,1.01c-1.692,0.242 -2.887,0.896 -4.672,0.875c-1.977,-0.028 -3.961,0.007 -5.945,0c-3.307,0 -6.044,-0.846 -9.337,-0.846c-1.685,0 -3.413,0.114 -5.092,0.021c-1.828,-0.1 -3.214,-0.903 -5.099,-0.868c-2.012,0.036 -3.214,-0.569 -5.092,-0.896c-1.607,-0.284 -3.463,0.149 -5.099,0.064c-1.536,-0.085 -2.702,-0.804 -4.245,-0.889c-1.956,-0.107 -3.982,-0.014 -5.938,0.014c-1.792,0.028 -2.596,-0.661 -4.231,-0.86c-1.636,-0.206 -2.716,-0.235 -4.267,-0.64c-1.7,-0.448 -3.392,-0.412 -5.092,-0.853c-0.91,-0.235 -1.614,-0.213 -2.546,-0.185c-1.436,0.036 -2.091,-0.327 -3.399,-0.661c-0.718,-0.185 -1.5,0.014 -2.155,-0.171c-0.469,-0.128 -1.081,-0.583 -1.429,-0.683c-1.607,-0.448 -3.278,0.05 -4.928,-0.164c-1.636,-0.22 -2.439,-0.896 -4.224,-0.868c-1.7,0.021 -3.399,-0.007 -5.092,-0.007h-29.717c-3.442,0 -7.73,0.683 -11.044,-0.185c-6.45,-1.692 -13.035,-2.283 -19.52,-4.267c-3.015,-0.924 -5.625,-2.809 -8.498,-4.011c-1.493,-0.626 -2.695,-1.358 -4.245,-1.913c-1.835,-0.647 -4.139,-1.536 -5.753,-2.574c-5.589,-3.577 -11.484,-6.706 -17.173,-10.162c-3.207,-1.948 -5.916,-3.634 -9.337,-5.141c-3.563,-1.564 -7.509,-2.212 -11.036,-3.776c-7.751,-3.428 -16.277,-4.85 -24.434,-6.812c-3.527,-0.853 -6.912,-2.318 -10.382,-3.399c-3.385,-1.052 -6.948,-1.948 -10.19,-3.371c-1.692,-0.747 -3.371,-1.28 -5.092,-1.934c-0.846,-0.327 -1.714,-0.569 -2.567,-0.875c-0.135,-0.05 -1.785,-0.619 -1.87,-0.633c-0.775,-0.156 -1.65,0.021 -2.404,-0.142c-0.42,-0.1 -0.725,-0.647 -0.988,-0.711c-1.721,-0.441 -3.15,-1.294 -4.914,-1.7c-3.122,-0.711 -6.251,-1.116 -9.337,-1.863c-1.5,-0.363 -3.136,-1.216 -4.43,-1.536c-1.984,-0.484 -2.859,-1.131 -4.722,-2.112c-4.9,-2.588 -10.332,-5.561 -14.578,-9.273c-3.008,-2.631 -6.08,-4.338 -9.429,-6.421c-2.318,-1.436 -4.004,-3.307 -6.066,-5.07c-4.452,-3.804 -9.266,-6.642 -14.244,-9.358c-5.134,-2.802 -10.453,-4.672 -15.516,-7.666c-2.069,-1.23 -4.466,-2.005 -6.585,-3.164c-2.411,-1.316 -4.082,-3.57 -6.599,-4.9c-1.849,-0.974 -11.584,-7.324 -10.226,-9.856c2.162,0.818 4.274,2.375 6.45,3.527c2.446,1.294 5.248,2.496 7.829,3.797c5.383,2.724 11.349,4.26 16.981,6.35c2.695,0.996 5.404,2.126 8.071,3.207c2.773,1.124 5.803,1.764 8.725,2.752c4.658,1.586 9.892,3.2 14.599,4.864c5.596,1.977 11.157,3.356 16.612,5.874c4.693,2.162 9.998,3.456 14.827,4.978c2.603,0.825 5.269,1.543 7.644,2.759c0.96,0.491 1.87,0.996 2.958,1.28c1.33,0.356 2.567,1.038 3.783,1.316c0.647,0.142 1.444,-0.085 2.098,0.021c0.526,0.085 0.725,0.626 1.301,0.804c1.344,0.42 2.887,0.498 4.295,1.01c2.88,1.067 5.532,2.517 8.491,3.42c6.258,1.913 12.139,5.198 18.489,6.798c6.236,1.564 12.409,3.477 18.446,5.625c2.709,0.96 5.305,1.308 8.064,1.756c1.671,0.27 2.453,0.939 4.245,0.896c1.685,-0.043 3.1,0.363 4.672,0.846c2.645,0.825 5.39,1.031 8.064,1.678c3.079,0.74 5.995,1.82 9.152,2.382c11.911,2.126 23.374,7.296 35.001,10.183c1.429,0.363 2.83,0.505 4.245,0.853c1.252,0.313 2.588,0.74 3.819,0.967c1.387,0.256 2.482,0.384 3.826,0.732c0.711,0.178 1.5,-0.021 2.155,0.164c0.768,0.22 1.28,0.732 2.041,0.917c2.197,0.533 5.404,-0.043 7.687,-0.043c2.958,0 5.959,-0.142 8.917,-0.014c1.472,0.071 2.425,0.661 3.819,0.903c1.294,0.228 2.908,-0.043 4.245,-0.043c2.83,0 5.66,0 8.491,0c2.831,0 5.66,0.043 8.491,0c1.685,-0.021 2.645,0.612 4.245,0.896c1.365,0.235 2.894,-0.341 4.252,-0.092c1.948,0.363 2.994,0.91 5.134,0.889c1.621,-0.014 3.243,0.007 4.864,0.007c2.887,0 5.781,0.021 8.676,0c2.859,-0.021 5.17,0.86 8.071,0.846c2.965,-0.014 5.938,0 8.91,0c2.567,0 5.575,-0.42 8.071,0.071c1.458,0.292 2.268,0.804 3.819,0.775c2.055,-0.036 3.157,0.555 5.092,0.896c1.202,0.213 2.596,-0.107 3.826,-0.05c1.472,0.064 2.389,0.597 3.776,0.903c1.522,0.334 3.527,-0.036 5.134,-0.05c1.806,-0.007 2.972,0.441 4.672,0.782c1.252,0.249 2.581,-0.192 3.819,0.028c1.586,0.277 2.574,0.875 4.231,0.889c1.991,0.021 3.228,0.555 5.134,0.896c1.351,0.242 3.029,-0.043 4.409,-0.043c1.614,0 3.3,-0.128 4.907,-0.021c1.536,0.1 2.709,0.804 4.245,0.889c3.086,0.164 6.251,-0.021 9.337,-0.021h9.344c1.266,0 2.553,0.064 3.819,0.007c1.707,-0.071 3.001,-0.782 4.672,-0.875c2.617,-0.142 5.511,0.455 8.071,-0.057c1.401,-0.277 2.304,-0.789 3.819,-0.768c1.92,0.021 3.833,-0.036 5.753,-0.007c2.716,0.036 5.028,-0.846 7.829,-0.846c1.415,0 2.83,-0.007 4.245,0c2.048,0.014 3.164,-0.555 5.099,-0.896c1.173,-0.206 2.624,0.036 3.819,0.043c1.536,0.014 2.432,-0.292 3.819,-0.654c1.358,-0.356 2.844,-0.199 4.245,-0.192c1.806,0.007 2.972,-0.441 4.672,-0.775c1.216,-0.242 2.574,-0.092 3.819,-0.078c1.721,0.021 2.674,-0.619 4.245,-0.889c1.564,-0.263 2.702,-0.22 4.245,-0.619c1.429,-0.363 2.83,-0.484 4.245,-0.846c1.429,-0.363 2.83,-0.484 4.245,-0.846c0.718,-0.185 1.508,0.014 2.155,-0.171c0.476,-0.135 1.081,-0.583 1.436,-0.683c1.287,-0.363 2.695,-0.199 4.053,-0.185c0.533,0 1.216,0.085 1.721,0.014c0.974,-0.121 1.145,-0.512 1.863,-0.676c1.344,-0.313 2.724,0.114 4.06,-0.149c0.69,-0.135 1.074,-0.54 1.692,-0.704c0.924,-0.235 1.65,0.007 2.553,-0.142c0.654,-0.1 1.081,-0.548 1.7,-0.704c0.711,-0.185 1.5,0.021 2.148,-0.164c1.408,-0.398 2.297,-0.576 3.797,-0.825c5.575,-0.932 10.766,-3.179 16.128,-5.141c2.162,-0.789 4.53,-2.247 6.791,-2.596c3.236,-0.505 6.222,-1.024 9.358,-2.29c5.035,-2.034 10.567,-3.748 15.694,-6.052c5.106,-2.297 9.451,-6.428 14.855,-8.405c2.674,-0.974 5.049,-1.82 7.644,-2.972c2.446,-1.081 5.177,-1.358 7.623,-2.503c4.572,-2.14 9.479,-3.925 13.604,-6.599c1.927,-1.252 4.43,-2.155 6.272,-3.492c2.247,-1.628 4.388,-3.812 6.507,-5.682c1.458,-1.294 3.079,-1.97 4.409,-3.356c1.799,-1.863 3.911,-2.688 5.966,-4.245c1.771,-1.337 2.809,-3.307 4.864,-4.267c2.226,-1.031 4.828,-1.65 6.812,-3.136c1.892,-1.415 2.325,-3.641 3.57,-5.355c1.088,-1.508 2.866,-2.78 4.16,-4.139c-0.242,0.519 -0.555,0.988 -0.107,0.555z" /> <path d="M721.046,428.514c1.116,-0.235 2.041,-1.586 2.759,-2.425c4.267,1.899 7.438,5.468 10.823,8.796c3.833,3.755 8.256,7.794 11.25,12.267c1.55,2.311 2.126,4.75 3.285,7.189c1.024,2.148 2.098,4.21 3.065,6.443c1.088,2.524 1.984,4.871 2.994,7.445c0.576,1.479 3.129,5.113 2.204,6.713c-2.297,-1.643 -4.565,-3.378 -6.663,-5.248c-2.055,-1.828 -4.523,-2.972 -6.82,-4.459c-4.708,-3.065 -8.597,-6.734 -13.532,-9.344c-2.56,-1.344 -4.786,-2.716 -7.474,-3.812c-2.133,-0.875 -4.615,-2.041 -6.642,-3.179c-2.396,-1.344 -4.708,-2.46 -7.14,-3.598c-2.773,-1.294 -4.423,-3.122 -6.663,-5.134c0.178,-0.398 0.42,-1.131 0.704,-1.486c0.775,-0.988 0.476,-0.299 1.508,-1.017c1.252,-0.868 2.731,-1.472 3.968,-2.361c1.685,-1.209 3.804,-4.58 6.116,-4.302c-0.647,0.391 -1.237,1.017 6.258,-2.489z" /> <path d="M662.459,461.629c0.135,-0.562 0.405,-1.024 0.846,-1.401c1.06,1.899 1.259,4.11 1.785,6.066c0.612,2.276 1.145,4.508 1.7,6.798c0.654,2.738 1.685,5.54 2.46,8.256c0.775,2.716 1.65,5.952 1.707,8.725c0.05,2.169 -0.391,4.686 0.064,6.791c0.277,1.273 0.761,2.027 0.789,3.399c0.021,1.308 -0.149,2.553 0.178,3.819c0.604,2.318 0.661,4.316 0.661,6.791c0,2.041 0.626,5.54 -0.192,7.388c-1.052,-1.003 -1.621,-3.897 -2.354,-5.269c-0.654,-1.216 -1.337,-2.766 -2.105,-3.84c-0.917,-1.28 -2.02,-1.892 -2.78,-3.349c-0.775,-1.472 -1.572,-2.332 -2.546,-3.584c-0.988,-1.266 -1.6,-2.816 -2.524,-4.103c-0.996,-1.365 -2.475,-2.176 -3.655,-3.349c-2.347,-2.332 -3.94,-5.532 -5.817,-8.192c-2.062,-2.937 -5.326,-4.999 -7.573,-8.007c-1.401,-1.87 -1.785,-6.976 -1.06,-9.337c0.754,-2.468 4.8,-3.698 6.663,-5.291c0.889,-0.761 1.529,-2.012 2.674,-2.354c0.747,-0.22 1.856,-0.185 2.588,-0.377c0.889,-0.242 1.38,-0.789 2.482,-0.299c0.121,0.668 -0.142,1.188 6.009,0.718z" /> <path d="M587.74,485.403c0.398,-0.014 0.69,-0.171 0.868,-0.484c1.856,1.394 0.178,3.449 -0.05,5.156c-0.284,2.148 0.028,4.58 0.028,6.756c0.007,1.23 0.313,2.724 0.05,3.904c-0.348,1.543 -0.903,2.332 -0.917,4.011c-0.021,2.332 -0.853,4.196 -0.825,6.556c0.028,2.34 -0.754,4.16 -0.875,6.364c-0.128,2.482 -0.021,4.437 -0.64,6.798c-0.263,1.024 -0.028,1.948 -0.156,2.965c-0.135,1.102 -0.711,1.906 -0.917,2.972c-0.228,1.152 2.091,5.084 0.057,5.198c-1.685,0.092 -5.739,-5.468 -7.211,-6.564c-3.428,-2.56 -5.497,-6.03 -7.46,-9.621c-2.219,-4.06 -6.094,-7.403 -8.932,-11.129c-1.444,-1.892 -2.105,-2.603 -1.145,-4.736c0.718,-1.572 1.899,-2.965 2.652,-4.516c1.188,-2.453 1.963,-3.442 4.267,-4.928c1.65,-1.067 3.356,-2.176 4.743,-3.591c2.83,-2.873 6.514,-6.364 16.462,-5.113z" /> <path d="M487.547,497.29c1.273,0.363 2.062,-0.889 3.399,-0.889c1.316,0 2.133,0.633 3.371,0.889c2.88,0.597 5.461,0.889 8.512,0.853c2.098,-0.028 4.9,0.441 6.172,2.311c1.643,2.411 -0.448,4.928 -0.889,7.211c-2.169,11.25 -4.26,22.165 -6.556,33.351c-0.256,1.237 -0.092,2.66 -0.377,3.868c-0.341,1.444 -0.939,1.55 -0.896,3.349c0.036,1.493 -0.498,1.835 -0.775,3.044c-0.164,0.711 0.036,1.358 -0.05,2.076c-0.121,0.981 -0.526,1.152 -0.683,1.863c-0.327,1.458 -0.356,2.596 -0.832,4.053c-0.412,1.273 -0.846,2.553 -1.081,3.833c-0.199,1.095 0.206,2.112 -0.996,2.788c-0.96,0.54 -2.873,-0.028 -3.577,-0.747c-1.842,-1.884 -0.91,-4.252 -1.536,-6.72c-0.661,-2.61 -1.685,-4.978 -2.332,-7.644c-0.661,-2.709 -1.145,-5.362 -1.806,-8.064c-0.718,-2.951 -1.991,-5.909 -2.51,-8.917c-0.092,-0.54 0.121,-1.173 0.071,-1.714c-0.092,-0.868 -0.555,-1.28 -0.683,-1.87c-0.142,-0.626 -0.007,-1.372 -0.171,-1.956c-0.22,-0.782 -0.725,-1.287 -0.917,-2.055c-0.327,-1.372 0.228,-2.88 -0.142,-4.288c-0.199,-0.768 -0.576,-1.308 -0.69,-2.126c-0.114,-0.825 0.256,-1.771 0.064,-2.581c-0.356,-1.472 -0.903,-2.119 -0.882,-3.79c0.021,-1.55 0,-3.108 0,-4.665c0,-3.207 -0.491,-6.016 1.593,-8.576c-0.249,0.171 -0.498,0.341 5.198,-2.887z" /> <path d="M396.695,495.592c1.365,0.213 2.517,-0.676 3.819,-0.875c1.344,-0.199 2.489,-0.633 3.826,-0.868c2.752,-0.484 5.099,0.519 7.637,0.939c0.555,0.092 1.195,-0.213 1.742,-0.092c0.476,0.107 0.661,0.612 0.996,0.711c1.088,0.327 1.87,0.555 2.859,0.932c1.863,0.704 4.935,1.145 6.165,2.866c-0.626,1.692 -1.707,3.506 -2.517,5.234c-1.116,2.404 -2.418,5.44 -3.819,7.723c-1.465,2.396 -2.674,4.999 -4.388,7.246c-1.415,1.863 -2.745,3.804 -3.797,5.909c-2.368,4.729 -2.66,9.529 -4.238,14.428c-0.441,1.365 -0.441,2.453 -0.718,3.819c-0.256,1.294 -1.131,2.546 -1.436,3.826c-0.391,1.657 -0.412,5.468 -2.546,5.852c-0.448,-2.539 -1.316,-5.092 -2.098,-7.552c-0.761,-2.425 -1.045,-4.764 -1.557,-7.218c-1.003,-4.814 -2.596,-9.444 -3.3,-14.436c-0.306,-2.162 -0.996,-4.651 -1.536,-6.556c-0.348,-1.223 -0.014,-2.389 -0.156,-3.634c-0.156,-1.358 -0.825,-2.425 -0.903,-3.819c-0.128,-2.389 0.021,-4.828 0.021,-7.218c0,-1.657 -0.754,-6.137 0.491,-7.232c-0.348,-0.455 -0.782,-0.718 5.454,0.014z" /> <path d="M307.541,487.95c1.806,-0.875 2.02,-0.811 3.819,0c1.444,0.647 3.093,1.244 4.672,1.934c3.271,1.422 6.848,2.112 10.19,3.349c1.721,0.64 4.153,1.55 5.554,2.667c1.728,1.38 1.28,1.941 -0.228,3.3c-2.347,2.112 -3.961,4.345 -5.66,6.997c-3.876,6.059 -6.5,12.978 -9.109,19.506c-0.654,1.621 -1.081,3.2 -1.593,4.7c-0.484,1.401 -0.875,2.652 -0.846,4.252c0.028,1.728 -0.085,2.759 -0.853,4.238c-0.612,1.173 -1.785,2.745 -1.849,4.103c-2.66,0.612 -4.437,1.593 -4.942,-1.536c-0.213,-1.308 -0.732,-2.517 -0.882,-3.84c-0.149,-1.244 0.121,-2.567 0.05,-3.819c-0.149,-2.795 -1.486,-5.483 -1.764,-8.306c-0.263,-2.624 -0.576,-5.383 -1.23,-7.829c-0.697,-2.624 -0.228,-4.58 0.356,-7.218c0.583,-2.645 -0.804,-4.992 -0.775,-7.637c0.043,-4.487 1.486,-12.167 5.092,-14.862z" /> <path d="M210.744,466.723c0.149,-0.64 0.512,-1.173 1.067,-1.572c3.321,1.372 6.613,3.271 9.977,4.729c1.956,0.853 3.932,1.856 5.938,2.596c1.628,0.604 4.167,1.963 5.838,2.084c-0.341,1.401 -1.6,3.364 -2.233,4.921c-0.235,0.59 -0.868,1.628 -0.981,2.176c-0.213,0.953 0.192,2.005 -0.036,2.944c-0.171,0.725 -0.775,0.889 -0.939,1.607c-0.27,1.216 -0.199,2.19 -0.59,3.442c-0.619,1.956 -1.408,3.662 -2.332,5.518c-0.967,1.941 -1.721,3.499 -2.126,5.54c-0.341,1.742 -1.074,3.25 -1.508,5.07c-0.427,1.785 -1.06,3.278 -1.031,5.099c0.028,2.112 0.249,4.046 -1.067,5.852c-1.621,-0.334 -2.318,-3.669 -3.186,-5.006c-1.472,-2.276 -2.908,-4.38 -4.473,-6.599c-2.759,-3.911 -3.932,-8.405 -5.049,-12.928c-0.555,-2.24 -0.875,-4.551 -1.707,-6.791c-0.626,-1.7 -2.012,-3.385 -2.396,-5.049c-0.469,-1.998 0.05,-4.772 0.043,-6.841c-0.007,-1.031 -0.263,-2.439 -0.043,-3.442c0.192,-0.889 1.095,-1.138 0.91,-2.19c-0.007,0.178 -0.014,0.363 5.924,-1.159z" /> <path d="M130.931,431.061c-0.59,-0.121 -1.06,-0.434 -1.401,-0.932c1.948,0.889 3.755,2.197 5.646,3.243c2.944,1.636 5.874,3.221 8.853,4.807c4.139,2.212 8.42,4.096 12.288,6.677c-0.455,1.273 -1.842,2.674 -2.695,3.847c-1.23,1.7 -1.849,3.534 -2.766,5.454c-2.852,6.009 -3.79,14.898 -9.714,18.958c-1.23,0.839 -2.069,1.152 -3.207,2.311c-0.533,0.533 -1.956,2.51 -2.78,2.439c-1.024,-0.092 -3.378,-5.732 -4.011,-6.876c-1.692,-3.093 -3.264,-7.637 -3.612,-11.079c-0.171,-1.7 -1.223,-3.307 -0.889,-5.077c0.363,-1.884 0.775,-3.093 0.875,-5.092c0.085,-1.877 1.202,-3.172 0.676,-5.099c-0.512,-1.856 -0.654,-3.086 -0.661,-5.092c0,-3.036 -1.493,-8.846 3.399,-8.491z" /> <path d="M113.099,215.392c-4.907,1.771 -4.722,1.842 -4.53,1.913c-1.13,1.138 -3.932,1.828 -5.454,2.546c-2.333,1.095 -4.537,2.752 -7.019,3.84c-2.211,0.974 -4.494,1.187 -6.812,1.863c-1.799,0.526 -3.869,2.055 -5.49,3.093c-2.915,1.871 -5.774,6.223 -9.564,5.227c-1.429,-0.369 -3.613,-1.877 -4.857,-2.773c-1.622,-1.173 -3.4,-2.254 -4.9,-3.605c-6.173,-5.561 -12.381,-10.851 -19.321,-15.495c-3.392,-2.275 -5.824,-5.432 -8.683,-8.284c-3.591,-3.591 -7.076,-6.599 -9.977,-10.823c-2.588,-3.776 -5.29,-7.296 -8.469,-10.617c-2.048,-2.133 -4.11,-4.665 -6.357,-6.471c-1.23,-0.981 -4.437,-1.827 -4.572,-3.591c3.015,1.202 6.222,2.183 9.209,3.698c4.224,2.133 9.088,3.242 13.397,5.518c14.677,7.751 30.329,13.07 45.191,20.594c6.82,3.449 13.91,6.208 21.227,8.484c1.92,0.597 3.883,1.095 5.753,1.678c0.584,0.177 1.181,0.483 1.892,0.661c0.668,0.163 1.607,0.668 2.19,0.775c0.939,0.17 2.027,-0.192 2.944,0.028c0.747,0.177 1.287,0.704 2.055,0.917c0.967,0.27 3.634,1.109 3.762,0.185c-0.618,-0.086 -1.237,-0.349 -1.678,-0.74c0.064,0.456 0.085,0.918 0.064,1.38z" /> <path d="M169.14,177.188c-7.453,-1.714 -7.268,-1.728 -7.083,-1.742c-1.927,1.273 -3.861,1.536 -5.653,3.015c-1.8,1.479 -3.919,1.87 -5.988,2.972c-1.942,1.031 -4.025,2.773 -5.938,4.032c-1.486,0.974 -2.46,3.029 -3.975,3.854c-2.048,1.117 -3.385,-2.005 -4.644,-3.598c-1.621,-2.055 -3.058,-3.428 -5.12,-4.907c-2.034,-1.458 -3.748,-3.079 -5.753,-4.473c-2.304,-1.608 -3.15,-4.104 -5.049,-5.988c-1.002,-1.003 -1.898,-1.323 -2.78,-2.489c-0.96,-1.265 -2.276,-2.176 -3.25,-3.413c-1.45,-1.842 -2.268,-3.769 -3.854,-5.49c-3.221,-3.492 -6.4,-6.969 -9.692,-10.29c-2.091,-2.119 -3.783,-4.978 -5.895,-6.955c-0.967,-0.91 -1.721,-1.102 -2.603,-2.304c-0.69,-0.946 -1.358,-1.949 -1.927,-2.98c-1.216,-2.226 -2.823,-4.153 -3.911,-6.393c-0.84,-1.728 -1.785,-3.613 -2.852,-5.305c-1.536,-2.439 -2.852,-4.636 -4.011,-7.303c-1.173,-2.695 -2.638,-5.398 -4.06,-7.986c-1.244,-2.254 -2.61,-4.487 -3.84,-6.784c-0.569,-1.06 -2.83,-3.122 -2.162,-4.338c8.177,3.022 15.665,8.27 21.468,14.748c3.634,4.061 7.261,8.057 11.065,11.897c3.968,3.996 8.725,6.961 12.729,11.036c2.269,2.304 4.935,4.053 7.225,6.364c2.183,2.211 4.487,4.146 7.004,5.966c1.095,0.789 2.24,1.244 3.399,1.87c1.664,0.896 2.766,2.012 4.224,3.207c2.609,2.134 5.539,4.118 8.341,5.988c2.176,1.437 4.715,2.539 6.756,4.153c1.003,0.797 1.586,1.714 2.731,2.404c1.273,0.76 2.816,1.152 4.053,2.076c1.778,1.323 3.435,2.688 5.291,3.847c1.5,0.939 3.328,1.443 4.565,2.759c-0.412,0.086 -0.754,0.292 -1.024,0.612c0.47,0.789 1.295,1.721 2.212,1.934z" /> <path d="M773.689,235.773c8.256,-2.588 9.686,-3.428 11.89,-3.392c2.112,0.035 3.306,-0.107 5.07,-0.875c1.728,-0.761 4.032,-1.195 5.966,-1.65c1.87,-0.448 3.947,-1.202 5.753,-1.934c1.799,-0.733 3.413,-2.169 5.305,-3.001c1.834,-0.804 3.008,-0.917 5.077,-1.017c1.323,-0.064 2.133,-0.69 3.392,-0.91c1.031,-0.185 2.339,0.043 3.399,0.043c0.846,0 1.693,-0.014 2.546,0c1.266,0.015 1.806,-0.462 2.738,-0.661c4.003,-0.861 8.576,0.683 12.551,-0.377c4.629,-1.237 9.856,0.185 14.428,-1.301c4.843,-1.579 9.444,-2.454 14.457,-2.738c2.34,-0.128 4.359,-0.918 6.77,-0.868c1.508,0.028 3.854,-0.349 4.793,-1.764c-1.956,-0.064 -4.438,1.493 -6.308,1.948c-2.09,0.512 -4.736,1.614 -6.997,2.389c-1.706,0.584 -3.868,1.394 -5.39,2.596c-1.891,1.486 -3.726,3.47 -5.646,5.063c-1.593,1.322 -3.378,2.311 -5.028,3.541c-1.607,1.202 -2.873,2.731 -4.48,3.847c-3.534,2.446 -7.332,4.231 -11.264,5.376c-4.601,1.344 -8.078,4.253 -11.641,7.339c-3.57,3.086 -8.014,4.003 -12.153,6.172c-2.034,1.074 -3.634,2.176 -5.945,2.574c-1.792,0.305 -3.264,0.696 -4.892,1.436c-1.145,0.527 -0.362,1.06 -1.678,0.491c-0.768,-0.342 -1.102,-1.38 -1.486,-1.956c-1.095,-1.629 -2.332,-3.371 -3.399,-5.092c-1.465,-2.368 -3.314,-4.629 -5.042,-6.791c-1.706,-2.133 -3.164,-4.032 -4.622,-6.364c-2.361,-3.776 -4.288,-7.694 -6.677,-11.385c-1.55,0.491 -3.171,2.411 -3.036,4.167c0.121,1.536 1.97,3.62 1.55,5.092z" /> <path d="M733.786,180.581c6.976,-2.538 7.154,-2.531 7.339,-2.524c-0.441,0.064 -0.868,0 -1.273,-0.192c0.121,-2.965 6.5,-4.046 8.37,-4.501c3.861,-0.945 7.573,-2.681 10.645,-5.525c3.157,-2.937 7.502,-4.132 11.008,-6.777c1.585,-1.195 3.05,-2.638 4.636,-3.826c1.679,-1.258 3.627,-1.536 5.547,-2.126c2.112,-0.648 4.267,-0.911 6.372,-1.7c2.048,-0.775 3.925,-1.898 5.945,-2.78c3.825,-1.664 8.071,-2.695 11.868,-4.224c3.932,-1.578 7.865,-2.937 11.904,-4.238c2.013,-0.654 3.918,-0.32 5.945,-0.832c0.789,-0.199 1.841,-0.412 2.588,-0.64c0.846,-0.249 1.202,-1.038 2.19,-0.953c-1.287,1.23 -2.311,3.563 -3.079,5.127c-1.038,2.127 -2.176,3.84 -3.634,5.803c-1.501,2.019 -3.293,4.103 -5.291,5.639c-1.821,1.394 -3.108,3.079 -4.85,4.53c-6.72,5.596 -12.885,11.968 -20.188,16.981c-2.069,1.422 -4.366,2.603 -6.4,4.032c-1.629,1.138 -2.731,2.247 -4.644,3.186c-3.463,1.7 -6.614,3.72 -9.842,5.732c-1.558,0.974 -3.044,1.998 -4.594,2.972c-0.832,0.519 -1.664,1.024 -2.56,1.486c-0.974,0.497 -1.073,0.967 -1.685,1.5c-0.527,0.469 -0.121,0.867 -1.259,0.903c-0.434,0.014 -0.704,-0.093 -1.102,-0.242c-0.455,-0.171 -1.444,-1.017 -1.906,-1.316c-1.622,-1.059 -3.129,-2.439 -4.651,-3.605c-3.456,-2.645 -6.784,-5.966 -10.212,-8.853c-1.131,-0.953 -2.198,-2.148 -3.364,-3.044c-1.572,-1.216 -2.126,-0.768 -3.826,0.007z" /> <path d="M669.257,152.562c-4.252,-4.224 -3.598,-4.153 -2.823,-4.416c-2.98,-2.354 -6.514,-2.994 -9.913,-4.715c-1.224,-0.619 -9.835,-5.013 -10.084,-2.055c1.208,0 3.036,-3.072 3.74,-4.075c1.138,-1.635 1.991,-3.52 3.378,-5.148c2.574,-3.022 4.145,-6.443 6.364,-9.65c2.062,-3.001 3.876,-6.066 5.753,-9.209c1.962,-3.286 4.088,-6.607 5.916,-9.963c3.534,-6.471 5.368,-15.061 11.868,-19.776c1.208,-0.874 2.296,-1.386 3.42,-2.524c1.152,-1.173 1.948,-1.87 3.399,-2.553c1.984,-0.938 3.534,-1.088 5.653,-1.557c0.647,-0.142 1.493,-0.576 2.197,-0.775c0.768,-0.228 1.493,-0.569 2.204,-0.768c3.406,-0.989 6.905,-2.233 10.034,-4.331c1.55,-1.038 3.022,-1.806 4.7,-2.546c0.96,-0.427 3.762,-1.835 4.793,-1.778c-2.027,2.447 -3.321,5.832 -4.964,8.548c-2.162,3.57 -4.473,7.239 -6.372,11.065c-4.046,8.156 -6.478,17.088 -11.228,25.045c-2.269,3.811 -4.416,7.573 -6.578,11.463c-2.318,4.167 -4.459,8.704 -7.026,12.736c-2.361,3.698 -3.819,7.95 -6.585,11.264c-1.935,2.332 -7.232,2.524 -7.851,5.717z" /> <path d="M610.666,127.088c-5.319,-1.038 -5.297,-1.906 -6.108,-2.382c-0.547,-0.32 -2.005,-0.619 -2.574,-0.804c-2.24,-0.733 -4.43,-1.664 -6.62,-2.546c-0.747,-0.298 -1.757,-0.945 -2.482,-1.109c-1.202,-0.263 -2.183,0.732 -2.674,-0.761c-0.426,-1.287 0.527,-1.095 0.747,-1.927c0.277,-1.059 0.583,-2.155 0.846,-3.207c0.277,-1.152 0.121,-2.226 0.377,-3.378c0.313,-1.393 1.017,-2.88 1.316,-4.309c0.448,-2.119 1.066,-4.188 1.678,-6.087c0.647,-1.97 1.5,-3.776 2.119,-5.753c0.704,-2.261 1.13,-4.487 1.678,-6.798c0.534,-2.268 1.75,-4.587 2.546,-6.791c0.733,-2.013 1.743,-3.975 2.596,-5.938c1.721,-3.947 3.477,-7.986 5.497,-11.89c2.318,-4.502 2.425,-9.75 3.776,-14.436c0.647,-2.261 1.877,-4.494 2.588,-6.791c0.512,-1.642 1.038,-4.515 2.382,-5.646c-0.092,1.565 -0.149,3.229 -0.064,4.793c0.1,1.821 0.889,3.215 0.868,5.099c-0.022,1.614 -0.235,3.456 -0.043,5.049c0.235,1.97 0.91,3.541 0.889,5.561c-0.021,1.856 0.036,3.712 0,5.568c-0.043,2.14 -0.79,3.996 -0.868,6.108c-0.15,4.324 0,8.704 0.021,13.028c0.022,4.502 -1.152,8.875 -1.742,13.291c-0.328,2.482 -0.157,4.75 -0.804,7.246c-0.541,2.062 -0.996,4.103 -1.7,6.108c-1.117,3.157 -2.176,6.073 -2.546,9.365c-0.192,1.671 -1.124,2.986 -1.508,4.43c-0.405,1.536 -0.192,3.293 -0.192,4.907z" /> <path d="M697.272,156.806c1.451,-2.923 2.738,-3.826 5.525,-5.611c2.887,-1.849 5.668,-4.274 8.249,-6.279c2.524,-1.948 5.646,-3.214 8.299,-5.092c1.365,-0.967 2.944,-2.176 4.06,-3.356c1.244,-1.301 2.02,-3.399 3.243,-4.743c2.261,-2.482 4.935,-4.601 7.559,-6.763c2.702,-2.226 4.736,-4.885 6.578,-7.879c1.444,-2.34 3.108,-4.786 4.864,-6.955c1.678,-2.062 5.284,-4.978 5.838,-7.531c-1.5,0.071 -1.97,2.219 -2.61,3.264c-0.86,1.408 -1.685,2.83 -2.546,4.245c-1.742,2.859 -3.769,5.305 -4.907,8.491c-1.124,3.143 -3.207,6.364 -4.864,9.337c-1.536,2.766 -3.285,5.397 -4.9,8.036c-3.115,5.084 -6.009,10.112 -8.846,15.346c-1.372,2.539 -2.802,5.689 -3.911,8.469c-0.889,2.219 -2.126,5.234 -4.423,6.279c-1.017,-2.012 -2.965,-3.15 -4.885,-4.167c-0.981,-0.512 -2.02,-0.924 -2.987,-1.465c-0.882,-0.491 -2.233,-2.048 -3.25,-1.849c-0.05,0.256 -0.092,0.512 -6.087,-1.778z" /> <path d="M214.99,126.239c0.05,0.235 0.1,0.469 0.142,0.704c1.515,0.192 4.772,0.519 5.803,1.842z" /> <path d="M243.009,136.426c5.426,2.254 4.964,2.027 4.48,1.842c-0.462,0.832 -3.143,1.124 -4.053,1.451c-1.337,0.483 -2.539,1.031 -3.84,1.614c-1.095,0.484 -2.218,0.932 -3.356,1.06c-1.209,0.128 -2.859,-0.583 -3.655,0.661c-1.522,-0.697 -4.309,0.27 -5.71,1.017c-1.984,1.053 -3.776,1.287 -5.945,1.65c-1.273,0.213 -1.891,0.974 -3.207,0.725c-0.334,-0.064 -0.903,-0.604 -1.429,-0.711c-0.562,-0.121 -1.188,0.156 -1.764,0.064c-2.211,-0.37 -3.207,-1.678 -4.423,-3.449c-0.931,-1.351 -2.275,-2.389 -3.399,-3.591c-1.152,-1.23 -1.927,-2.645 -2.944,-3.989c-2.801,-3.683 -4.345,-7.822 -7.125,-11.477c-2.894,-3.819 -7.019,-6.649 -9.671,-10.624c-2.788,-4.175 -5.597,-7.808 -8.939,-11.492c-3.022,-3.335 -5.945,-6.649 -8.27,-10.624c-2.211,-3.762 -4.786,-7.538 -7.623,-10.823c-3.292,-3.811 -6.393,-7.857 -8.704,-12.501c-1.109,-2.233 -2.147,-4.437 -3.079,-6.72c-0.54,-1.33 -2.311,-2.888 -1.436,-4.452c1.479,0.434 3.377,2.468 4.508,3.499c2.041,1.856 3.904,3.939 6.023,5.653c4.16,3.349 8.32,6.478 12.053,10.105c2.567,2.503 5.419,4.843 8.256,6.763c3.663,2.482 6.443,6.315 9.572,9.387c1.152,1.13 2.61,2.048 3.975,3.036c0.839,0.605 1.728,0.761 2.51,1.252c0.69,0.441 1.28,1.28 1.984,1.856c2.922,2.375 5.696,4.878 8.348,7.41c1.557,1.486 3.74,2.332 5.447,3.584c1.878,1.373 3.449,3.25 5.099,4.9c3.008,3.022 6.478,5.568 9.749,8.149c3.527,2.773 7.19,5.703 11.058,8.007c2.105,1.252 8.988,3.662 5.511,6.77z" /> <path d="M533.4,99.07c-11.406,-3.399 -10.922,-3.414 -10.446,-3.435c-2.681,1.173 -4.039,1.742 -6.962,1.735c-0.967,0 -2.034,-0.128 -2.987,-0.021c-1.23,0.142 -1.429,0.661 -2.489,0.917c-0.839,0.2 -2.567,0.072 -3.456,-0.028c-1.707,-0.2 -1.472,-0.114 -1.7,-1.7c-0.341,-2.432 0.47,-4.566 0.868,-6.827c0.185,-1.046 0.676,-1.536 0.896,-2.482c0.192,-0.84 -0.078,-1.714 0.142,-2.596c0.49,-1.927 1.223,-3.954 1.557,-5.938c0.192,-1.166 0.256,-1.735 0.59,-2.738c0.277,-0.81 0.554,-1.586 0.846,-2.382c0.633,-1.728 1.543,-3.506 2.553,-5.12c2.197,-3.513 3.058,-7.261 4.686,-10.994c1.714,-3.896 3.882,-7.473 6.35,-11.036c2.489,-3.606 4.622,-7.844 6.386,-11.89c0.96,-2.19 1.273,-4.714 2.503,-6.812c1.216,-2.063 2.851,-4.018 4.245,-5.924c2.752,-3.769 5.006,-7.865 7.452,-11.883c1.06,-1.728 2.603,-3.307 4.224,-4.48c1.138,-0.832 1.33,-0.797 2.155,-1.892c0.47,-0.619 0.697,-1.266 1.323,-1.799c0.135,1.038 -0.761,1.287 -0.953,2.183c-0.256,1.167 -0.306,2.255 -0.612,3.435c-0.484,1.849 -0.192,4.032 -0.192,5.945c0,1.123 0.078,2.283 0.021,3.399c-0.071,1.315 -0.689,2.133 -0.917,3.399c-0.341,1.942 0.363,3.99 -0.142,5.938c-0.519,2.005 -0.825,3.776 -0.683,5.945c0.157,2.354 0.157,4.373 0.043,6.791c-0.056,1.187 -0.59,1.87 -0.796,2.972c-0.192,1.016 0,1.948 -0.263,2.972c-0.526,2.07 -1.23,4.232 -1.536,6.372c-0.298,2.048 0.164,4.288 0.05,6.364c-0.071,1.323 -0.697,2.14 -0.917,3.399c-0.136,0.825 0.227,1.721 0.092,2.546c-0.37,2.219 -1.387,4.608 -1.927,6.791c-0.49,1.977 -1.116,3.89 -1.557,5.902c-0.527,2.411 0.128,4.43 -0.804,6.834c-0.797,2.056 -1.109,3.94 -1.913,5.924c-0.711,1.771 -1.138,3.648 -2.318,5.12c-0.69,0.861 -1.721,1.529 -2.418,2.546c-0.399,0.576 -0.648,1.863 -0.996,2.546z" /> <path d="M320.277,116.899c0.818,-2.496 -4.48,-2.823 -5.945,-3.207c-2.852,-0.747 -5.148,0.405 -7.595,1.508c-1.337,0.604 -2.731,0.69 -4.103,1.038c-0.306,0.078 -0.548,0.604 -0.996,0.704c-0.697,0.164 -1.5,-0.242 -2.197,-0.078c-2.119,0.498 -4.181,1.5 -6.144,2.482c-0.092,-1.301 -1.358,-3.84 -1.892,-5.035c-0.597,-1.372 -1.081,-2.83 -1.7,-4.245c-1.458,-3.364 -3.918,-6.293 -6.123,-9.301c-1.351,-1.828 -2.681,-3.705 -4.053,-5.518c-0.74,-0.981 -1.7,-1.892 -2.368,-2.93c-0.754,-1.152 -0.754,-2.496 -1.884,-3.527c-3.029,-2.752 -5.632,-5.852 -7.808,-9.252c-1.145,-1.785 -2.766,-3.25 -3.89,-5.092c-1.131,-1.849 -1.991,-4.004 -2.951,-5.945c-2.212,-4.452 -4.921,-8.455 -7.431,-12.715c-2.695,-4.572 -5.703,-8.953 -8.32,-13.653c-0.889,-1.593 -1.372,-3.378 -2.105,-5.049c-0.676,-1.536 -2.02,-4.245 -1.287,-5.86c0.91,0.427 3.072,1.074 3.861,1.764c1.756,1.522 2.809,4.018 4.43,5.604c3.3,3.228 6.763,6.976 10.212,10.382c1.913,1.892 3.179,4.053 5.099,5.945c1.849,1.813 3.705,3.762 5.12,5.895c1.493,2.261 2.162,4.238 4.174,6.18c1.685,1.628 3.086,3.349 4.736,4.914c2.972,2.802 6.521,4.942 9.721,7.595c3.812,3.15 7.211,7.204 10.66,10.617c0.875,0.868 1.209,1.97 2.076,2.816c0.889,0.868 1.116,0.839 1.913,1.87c1.486,1.934 3.449,3.385 5.092,5.063c2.453,2.517 5.433,6.073 11.698,17.031z" /> <path d="M461.228,93.128c-10.852,-5.092 -10.667,-5.092 -10.475,-5.092c-1.649,-0.335 -2.745,0.768 -4.373,0.853c-1.586,0.085 -3.542,0.249 -5.106,0.021c-1.835,-0.263 -3.151,-0.903 -5.092,-0.875c-0.739,0.007 -2.396,0.334 -3.036,0.057c-1.138,-0.498 -0.626,-0.576 -0.804,-1.742c-0.299,-1.913 0.213,-3.442 1.081,-5.113c0.924,-1.792 1.209,-3.193 1.671,-5.092c0.725,-3.015 2.261,-5.483 3.022,-8.491c0.42,-1.693 -0.064,-3.414 0.377,-5.099c0.369,-1.422 0.497,-2.801 0.853,-4.245c0.69,-2.831 2.14,-5.753 3.2,-8.491c1.515,-3.904 2.233,-9.202 2.596,-13.39c0.22,-2.61 0.142,-4.743 0.718,-7.31c0.426,-1.885 0.59,-3.911 0.91,-5.803c0.625,-3.741 2.403,-7.261 3.605,-10.809c1.08,-3.193 2.432,-6.173 3.42,-9.38c0.256,-0.832 0.832,-3.449 2.126,-3.271c0.554,0.071 1.784,1.842 1.948,2.375c0.391,1.273 0.05,3.036 0.384,4.288c0.369,1.379 0.298,2.695 0.405,4.245c0.121,1.821 0.889,3.208 0.868,5.092c-0.021,1.422 -0.164,2.88 0.192,4.245c0.719,2.816 1.778,5.589 2.404,8.448c0.426,1.97 -0.249,4.16 0.142,6.18c0.398,2.034 0.668,3.641 0.661,5.753c-0.007,2.091 0.014,4.174 0,6.265c-0.014,2.36 0.626,4.216 0.889,6.492c0.875,7.431 -0.889,14.784 -0.889,22.101c0,5.988 0.775,12.615 -1.7,17.785z" /> <path d="M384.64,98.387c-1.97,-0.114 -3.783,-2.055 -5.753,-1.927c-1.144,0.071 -2.232,0.775 -3.42,0.91c-1.38,0.157 -2.468,0.505 -3.819,0.953c-4.352,1.45 -8.64,3.022 -13.163,4.117c-2.382,0.576 -3.854,1.344 -6.13,0.256c-1.649,-0.796 -2.773,-1.941 -4.06,-3.2c-3.022,-2.972 -2.61,-7.139 -3.463,-10.972c-0.213,-0.946 -0.739,-1.43 -0.789,-2.61c-0.043,-0.989 0.007,-1.992 0.007,-2.98c0,-2.403 -0.22,-4.11 -0.768,-6.364c-0.555,-2.29 -0.939,-4.38 -0.932,-6.798c0.007,-1.863 0.341,-4.132 -0.071,-5.938c-0.974,-4.324 -3.278,-8.412 -4.096,-12.736c-0.498,-2.617 -0.505,-5.405 -1.003,-8.05c-0.59,-3.1 -1.443,-6.201 -1.621,-9.358c-0.163,-2.909 -0.839,-5.497 -0.846,-8.505c-0.008,-2.894 -0.804,-5.454 -0.868,-8.27c-0.092,-4.004 1.166,-9.992 -0.448,-13.732c1.735,3.349 5.063,5.931 7.068,9.28c2.432,4.054 4.935,7.972 7.616,11.883c1.33,1.934 2.482,4.025 3.826,5.945c1.437,2.077 2.162,4.288 3.506,6.393c1.33,2.098 2.318,4.295 3.712,6.343c1.6,2.346 3.698,4.124 5.113,6.606c2.695,4.722 6.407,8.682 8.683,13.774c2.069,4.629 4.48,9.102 6.791,13.561c1.116,2.154 1.742,4.842 3.164,6.862c0.683,0.967 1.529,1.408 2.162,2.482c0.491,0.825 0.719,1.814 1.259,2.61c1.813,2.674 3.655,5.021 4.359,8.306c-0.256,0.042 -0.505,0.092 -0.754,0.142c-5.148,1.472 -5.205,1.245 -5.262,1.017z" /> <path d="M280.114,313.904c-1.586,-0.455 -2.546,1.707 -4.309,0.903c-1.543,-0.697 -0.633,-1.692 -0.142,-2.809c0.932,-2.126 2.702,-4.132 4.644,-5.547c1.749,-1.28 4.572,-2.148 6.578,-2.951c2.809,-1.116 5.76,-2.404 8.469,-3.207c0.967,-0.284 1.628,-0.071 2.638,-0.59c0.32,-0.171 0.718,-0.818 0.988,-0.91c0.86,-0.313 1.572,0.064 2.411,-0.128c0.569,-0.128 0.612,-0.612 0.988,-0.711c2.773,-0.704 5.397,-1.159 8.114,-2.069c0.868,-0.292 1.82,-1.166 2.709,-1.536c1.003,-0.412 2.133,-0.484 3.214,-1.031c0.889,-0.455 1.884,-0.96 2.752,-1.493c0.42,-0.256 1.06,-0.868 1.472,-1.081c0.853,-0.441 1.308,-0.42 2.268,-0.697c1.927,-0.555 3.748,-2.389 5.604,-3.314c1.06,-0.526 2.027,-0.796 2.78,-1.657c0.476,-0.533 2.283,-2.667 2.396,-3.392c0.37,-2.439 -4.764,-5.34 -5.831,-7.047c-0.555,-0.882 -0.796,-2.041 -1.259,-2.972c-0.604,-1.244 -1.337,-1.863 -2.14,-2.951c-1.344,-1.806 -1.586,-4.608 -2.93,-6.414c-0.732,-0.981 -1.223,-1.337 -1.714,-2.524c-0.491,-1.18 -0.967,-2.347 -1.493,-3.563c-0.732,-1.685 -1.259,-2.795 -2.354,-4.338c-0.555,-0.782 -1.884,-2.155 -0.91,-3.221c0.619,-0.683 4.046,-0.121 4.964,-0.128c0.555,-0.007 1.152,-0.05 1.7,-0.021c1.223,0.064 2.268,0.96 3.392,0.96c0.633,0 1.159,-0.604 1.7,-0.754c1.081,-0.292 2.276,-0.27 3.399,-0.206c1.799,0.114 3.42,0.868 5.113,1.508c2.916,1.102 6.023,2.354 9.337,1.927c1.479,-0.185 2.311,-0.853 3.591,-1.5c1.223,-0.626 2.788,-0.604 3.868,-1.23c1.301,-0.754 2.105,-1.735 3.605,-2.375c1.031,-0.441 2.652,-1.913 3.804,-1.685c1.358,-1.479 1.735,-3.719 1.074,-5.959c-0.412,-1.415 -1.536,-2.389 -2.183,-3.591c-0.619,-1.124 -0.846,-2.624 -1.252,-3.868c-0.612,-1.884 -2.034,-3.932 -2.382,-6.123c-0.377,-2.361 -0.519,-4.651 -1.65,-6.798c-1.152,-2.176 -1.244,-4.622 -2.297,-6.791c-1.202,-2.482 -4.06,-3.897 -3.669,-6.82c0.412,-3.051 2.46,-2.532 5.113,-2.524c2.951,0.007 5.732,-0.249 8.491,0.64c4.366,1.415 8.505,2.553 12.416,4.352c0.917,0.42 1.728,0.754 2.66,1.159c1.195,0.526 1.749,0.42 3.186,0.612c2.574,0.348 5.376,1.045 7.872,1.941c9.863,3.527 9.55,-16.604 11.036,-22.286c0.64,-2.439 0.59,-5.191 0.996,-7.644c0.213,-1.323 0.754,-2.923 1.081,-4.245c0.348,-1.408 0.491,-2.823 0.853,-4.245c1.358,-5.326 2.532,-10.759 3.868,-16.135c0.619,-2.482 0.889,-5.063 1.017,-7.637c0.064,-1.28 0.718,-2.176 0.917,-3.399c0.277,-1.714 0.356,-3.406 0.775,-5.099c0.711,-2.887 1.351,-5.561 1.7,-8.505c0.128,-1.088 0.69,-1.515 0.917,-2.482c0.164,-0.704 -0.22,-1.5 -0.078,-2.204c0.149,-0.732 0.661,-1.102 0.811,-1.735c0.263,-1.131 0.092,-2.56 0.071,-3.748c-0.021,-1.55 0.505,-2.368 0.775,-3.819c0.27,-1.444 0.263,-2.425 0.718,-3.826c0.455,-1.429 0.889,-2.788 1.052,-4.245c0.299,-2.66 1.145,-5.454 1.778,-8.064c0.654,-2.674 1.465,-5.44 2.468,-8.064c2.055,-5.369 2.219,-10.859 4.885,-16.135c1.294,-2.56 2.219,-4.921 2.759,-7.659c0.427,-2.169 1.636,-5.127 4.032,-2.361c2.133,2.468 1.372,4.672 1.87,7.474c0.249,1.408 0.839,2.311 0.896,3.819c0.078,1.892 0.192,2.901 0.654,4.672c1.209,4.658 0.192,10.866 0.192,15.708v18.681c0,2.532 -0.121,5.106 -0.014,7.637c0.071,1.508 0.654,2.411 0.903,3.826c0.256,1.444 -0.135,2.951 0.149,4.43c0.562,2.98 1.358,5.796 1.927,8.725c0.491,2.524 0.953,5.148 1.92,7.431c1.778,4.188 3.911,8.171 4.43,12.544c0.242,2.055 1.358,4.807 2.311,6.77c1.131,2.34 3.015,4.601 3.463,6.983c0.441,2.318 1.06,4.181 1.038,6.606c-0.014,2.574 -0.619,6.044 -0.043,8.533c0.164,0.704 0.59,1.906 0.868,2.532c0.647,1.458 0.555,1.707 0.825,3.371c0.206,1.223 0.868,2.112 0.924,3.392c0.071,1.749 0.42,2.283 0.846,3.797c0.498,1.771 0.149,5.874 2.759,4.075c1.451,-1.01 2.752,-2.788 4.011,-4.046c3.143,-3.157 6.734,-5.675 10.19,-8.071c1.813,-1.252 4.082,-2.212 5.945,-3.392c1.572,-1.003 4.594,-4.395 6.62,-3.221c1.621,0.939 1.344,5.02 1.06,6.613c-0.505,2.866 -1.685,5.696 -2.396,8.491c-0.32,1.259 -0.213,2.524 -0.192,3.826c0.021,1.422 -0.441,2.126 -0.661,3.157c-0.548,2.596 -0.185,5.618 -0.185,8.306c0,2.325 -0.548,5.419 -0.043,7.68c0.64,2.937 2.759,2.866 5.184,3.307c0.235,0.043 1.031,0.754 0.988,0.754c0.718,0.014 0.882,-0.427 1.493,-0.498c1.323,-0.142 2.951,0.071 4.26,-0.164c1.23,-0.213 2.119,-0.846 3.399,-0.91c1.536,-0.085 3.129,0 4.665,0.014c2.361,0.028 4.224,-0.754 6.372,-1.273c2.155,-0.519 4.217,-1.536 6.336,-2.14c0.654,-0.192 1.436,0.021 2.155,-0.164c0.576,-0.149 1.081,-0.917 1.764,-0.768c1.486,0.32 0.668,1.756 0.37,2.652c-0.718,2.126 -1.934,4.132 -2.766,6.137c-1.913,4.58 -2.532,9.742 -4.437,14.265c-1.621,3.854 -4.807,8.946 -3.25,13.369c1.401,3.982 7.438,7.012 10.823,8.896c2.027,1.124 3.996,2.183 5.988,3.179c2.005,1.01 3.897,2.404 5.902,3.399c2.14,1.06 4.494,1.749 6.628,2.759c2.233,1.06 4.651,2.204 6.997,2.759c2.076,0.491 4.196,1.451 6.372,2.226c1.436,0.519 2.304,0.775 3.819,0.747c0.626,-0.014 1.55,-0.178 2.155,-0.028c0.697,0.164 1.138,0.661 1.742,0.804c1.209,0.284 2.596,-0.263 3.79,0.028c1.145,0.284 1.572,0.761 2.93,0.896c1.209,0.121 5.17,1.109 5.454,2.361c-2.674,1.067 -5.404,1.052 -8.427,1.038c-1.756,-0.014 -2.638,0.235 -4.245,0.654c-1.351,0.356 -2.709,0.078 -4.053,0.377c-0.711,0.164 -0.903,0.562 -1.87,0.683c-0.704,0.092 -1.486,-0.199 -2.176,-0.05c-1.188,0.256 -2.368,0.697 -3.605,1.067c-0.832,0.249 -2.076,1.102 -2.916,1.323c-1.436,0.37 -2.425,0.348 -3.74,0.932c-0.974,0.434 -1.884,1.031 -2.859,1.387c-1.017,0.377 -2.318,1.081 -3.356,1.316c-0.654,0.142 -1.429,-0.092 -2.098,0.021c-0.54,0.092 -0.711,0.69 -1.301,0.825c-1.451,0.341 -2.51,0.192 -3.868,0.804c-1.173,0.533 -2.361,0.612 -3.627,1.038c-0.882,0.292 -1.799,1.173 -2.716,1.536c-0.647,0.256 -1.081,0.05 -1.728,0.462c-0.384,0.242 -1.131,1.052 -1.5,1.444c-0.846,0.91 -1.259,1.899 -1.764,2.951c5.084,4.373 10.439,8.619 13.461,14.642c0.697,1.394 1.202,2.866 1.884,4.245c0.754,1.536 1.835,2.539 2.574,4.039c0.825,1.685 2.041,3.328 2.375,5.305c0.327,1.906 -0.42,4.039 -0.085,5.945c0.469,2.667 1.863,3.534 -1.657,3.385c-2.268,-0.092 -4.757,-0.654 -6.834,-1.692c-1.671,-0.832 -3.228,-1.856 -5.049,-2.539c-2.084,-0.782 -3.89,-0.505 -5.945,-1.045c-2.318,-0.604 -4.316,-0.654 -6.791,-0.661c-0.853,0 -1.7,-0.014 -2.546,0c-1.266,0.014 -1.813,-0.455 -2.738,-0.654c-3.691,-0.796 -8.455,-0.37 -12.252,-0.149c2.226,-2.908 2.652,1.941 3.079,3.335c0.441,1.436 1.529,2.766 1.764,4.26c0.107,0.69 -0.128,1.365 0.028,2.055c0.128,0.576 0.661,0.647 0.818,1.301c0.569,2.347 -0.043,5.668 -0.043,8.114c0,3.108 -0.363,5.66 -0.974,8.597c-1.7,-0.974 -3.292,-0.078 -5.013,-0.491c-0.754,-0.178 -0.868,-0.697 -1.614,-0.917c-0.903,-0.27 -1.628,-0.178 -2.581,-0.597c-0.832,-0.356 -1.564,-0.924 -2.368,-1.308c-0.597,-0.284 -1.33,-0.341 -1.906,-0.59c-1.657,-0.711 -3.243,-1.06 -5.07,-1.536c-1.628,-0.427 -3.413,-0.164 -5.099,-0.185c-1.892,-0.021 -3.264,0.796 -5.092,0.868c-2.446,0.1 -2.596,-0.071 -2.546,2.532c0.036,1.813 -0.007,3.47 0.42,5.092c0.356,1.323 0.555,2.709 0.448,4.245c-0.128,1.828 -0.917,3.193 -0.868,5.092c0.1,3.961 -1.728,7.694 -1.7,11.698c0.014,1.764 0.021,3.527 -0.007,5.291c-0.028,2.084 -0.775,3.883 -0.86,5.938c-0.05,1.031 0.242,2.197 0.064,3.207c-0.192,1.024 -0.754,1.728 -0.939,2.731c-0.149,0.796 0.1,1.742 0.064,2.553c-0.064,1.323 -0.69,2.133 -0.917,3.399c-0.569,3.236 0.299,6.898 0.064,10.183c-0.071,1.081 -0.412,1.508 -0.676,2.503c-0.32,1.209 0.007,2.254 -0.142,3.449c-0.37,3.001 -1.372,6.151 -1.956,9.145c-2.084,10.596 -4.174,21.241 -6.372,31.815c-0.988,4.722 -2.197,9.266 -2.951,14.009c-0.377,2.425 -1.095,4.821 -1.479,7.225c-0.484,2.972 -1.33,5.924 -1.934,8.889c-0.981,4.843 -1.252,9.963 -2.524,14.713c-1.159,4.331 -1.87,9.223 -2.311,13.732c-0.128,1.252 -0.789,2.19 -0.946,3.413c-0.142,1.124 0.057,2.055 -0.142,3.164c-0.455,2.496 -1.166,5.006 -1.7,7.481c-0.178,0.832 -0.612,1.842 -0.868,2.688c-0.462,1.536 -0.327,2.809 -0.59,4.309c-0.171,0.924 -0.768,1.586 -0.946,2.51c-0.263,1.365 0.348,2.916 0.092,4.288c-0.491,2.631 -0.91,4.679 -0.896,7.431c0.014,2.475 -0.725,4.587 -0.868,6.997c-0.114,1.963 0.142,3.961 0.036,5.924c-0.057,1.095 -0.42,1.543 -0.676,2.553c-0.277,1.074 0.014,2.133 -0.384,3.136c-1.387,-1.628 -2.475,-6.108 -3.008,-8.235c-0.946,-3.769 -0.512,-7.829 -1.003,-11.676c-0.135,-1.124 -0.626,-2.062 -0.818,-3.157c-0.213,-1.23 0.135,-2.439 -0.028,-3.655c-0.292,-2.24 -0.725,-4.53 -1.081,-6.777c-0.441,-2.802 -0.661,-5.106 -0.661,-8.036c0,-3.712 0.462,-7.858 -0.185,-11.513c-0.939,-5.234 -0.242,-10.532 -1.301,-15.708c-0.996,-4.821 -1.913,-9.778 -2.674,-14.628c-0.597,-3.79 -1.806,-7.31 -2.553,-11.065c-0.64,-3.264 -1.202,-6.5 -1.728,-9.728c-0.22,-1.323 -0.761,-2.752 -1.081,-4.06c-0.128,-0.512 -0.526,-1.18 -0.668,-1.863c-0.121,-0.597 -0.021,-1.067 -0.185,-1.721c-0.775,-3.108 -1.586,-6.222 -2.567,-9.337c-1.671,-5.312 -3.563,-10.603 -4.864,-16.135c-0.683,-2.894 -2.098,-5.589 -2.617,-8.491c-0.213,-1.23 0.256,-2.588 0.078,-3.819c-0.242,-1.678 -0.91,-2.908 -0.882,-4.672c0.057,-2.788 -0.853,-4.992 -1.515,-7.637c-0.676,-2.724 -1.785,-5.589 -1.906,-8.498c-0.142,-3.591 -1.97,-6.706 -2.567,-10.19c-0.092,-0.548 0.128,-1.173 0.064,-1.714c-0.114,-1.01 -0.647,-1.38 -0.796,-2.176c-0.277,-1.472 0.32,-3.2 -0.028,-4.644c-0.185,-0.768 -0.754,-0.839 -0.939,-1.607c-0.192,-0.818 0.228,-1.764 0.092,-2.596c-0.284,-1.621 -0.775,-3.278 -1.088,-4.907c-0.007,-0.05 -0.604,-0.732 -0.683,-0.988c-0.334,-1.088 -0.391,-2.297 -0.825,-3.442c-0.491,-1.294 -0.612,-2.965 -1.7,-3.904c-1.074,0.718 -0.718,1.82 -1.038,2.866c-0.299,0.996 -1.209,2.418 -1.742,3.392c-1.173,2.133 -2.126,4.274 -3.15,6.564c-1.216,2.716 -2.439,5.34 -3.634,8.064c-1.138,2.581 -1.244,5.44 -2.425,7.964c-2.318,4.949 -4.06,10.034 -6.03,14.983c-0.405,1.024 -1.102,1.984 -1.6,2.923c-0.405,0.761 -0.789,2.475 -1.792,2.844c-1.237,0.455 -1.877,-0.661 -2.169,-1.735c-0.228,-0.86 -0.064,-1.508 -0.171,-2.382c-0.092,-0.754 -0.562,-1.316 -0.683,-1.863c-0.526,-2.439 -0.213,-5.34 -0.192,-7.879c0.036,-3.015 -0.811,-6.087 -1.721,-8.932c-0.768,-2.432 -0.334,-5.042 -1.01,-7.623c-0.363,-1.387 -0.69,-2.283 -0.661,-3.819c0.036,-1.771 -0.548,-2.347 -0.889,-3.776c-0.284,-1.159 0.021,-3.086 0.036,-4.288c0.021,-1.628 -0.555,-1.97 -0.889,-3.356c-0.32,-1.337 0.327,-2.93 0.085,-4.288c-0.235,-1.358 -0.747,-2.724 -1.074,-4.06c-0.064,-0.249 -0.562,-1.579 -0.668,-1.884c-0.164,-0.498 0.057,-0.946 -0.164,-1.508c-0.356,-0.896 -1.586,-2.155 -2.169,-2.972c-1.23,-1.728 -2.276,-4.964 -4.686,-3.392c-2.169,1.422 -3.385,4.224 -5.035,6.13c-2.076,2.411 -4.153,4.978 -6.585,7.004c-2.276,1.906 -4.594,3.797 -6.62,5.988c-0.996,1.074 -1.835,2.062 -2.994,2.965c-0.263,0.213 -0.476,0.725 -0.782,0.903c-0.853,0.505 -1.756,-0.185 -2.439,0.697c-0.107,-1.927 1.124,-2.958 1.564,-4.779c0.476,-1.948 -0.192,-3.996 0.149,-5.945c0.192,-1.067 0.782,-1.884 0.924,-2.965c0.128,-0.953 -0.028,-2.02 -0.028,-2.972c0,-1.984 -0.007,-3.968 0,-5.945c0,-0.953 -0.142,-2.034 -0.036,-2.972c0.128,-1.102 0.74,-1.906 0.924,-2.972c0.171,-0.946 -0.092,-2.012 -0.05,-2.98c0.057,-1.266 0.54,-1.579 0.782,-2.61c0.391,-1.65 0.1,-3.726 0.078,-5.447c-0.028,-2.091 0.761,-3.378 0.839,-5.525c0.064,-1.97 1.28,-3.278 0.235,-4.892c-1.159,-1.785 -3.086,-1.436 -4.9,-1.899c-1.778,-0.448 -3.285,-1.223 -5.084,-1.28c-2.027,-0.064 -4.06,-0.356 -5.98,-0.818c-1.465,-0.348 -2.88,-1.244 -4.295,-1.643c-1.785,-0.498 -3.42,-0.626 -5.255,-1.116c-0.526,-0.142 -1.223,-0.498 -1.884,-0.661c-1.06,-0.256 -1.294,-0.32 -2.226,-0.74c-1.792,-0.818 -3.506,-1.074 -5.419,-1.806c-4.345,-1.664 -8.747,-2.446 -13.156,-3.819c-2.012,-0.626 -4.146,-1.337 -5.945,-2.126c-1.65,-0.718 -4.786,-1.081 -5.582,-3.086c0.021,0.178 0.043,0.363 6.855,-3.705z" /> <path d="M600.015,218.867c-3.712,-5.924 -21.084,-21.135 -20.352,-27.364c1.479,-12.537 21.746,4.181 26.83,7.253c6.13,3.698 12.345,7.46 17.287,12.644c5.61,5.881 9.308,13.291 12.764,20.651c3.129,6.664 6.123,13.398 8.612,20.324c10.745,29.895 11.556,63.267 2.276,93.646c-2.98,9.757 -6.955,19.179 -11.314,28.395c-3.968,8.391 -8.362,16.775 -14.933,23.324c-11.669,11.627 -29.077,16.406 -39.879,28.836c20.892,-18.005 32.121,-45.191 36.11,-72.476c3.982,-27.285 1.422,-55.061 -1.138,-82.517c-0.754,-8.071 -1.515,-16.177 -3.506,-24.028c-2.574,-10.19 -7.175,-19.783 -12.757,-28.686z" /> <path d="M248.905,229.149c-17.998,21.518 -31.275,48.747 -29.099,76.722c0.896,11.449 4.324,22.535 7.73,33.508c2.958,9.522 5.916,19.036 8.974,28.523c5.781,17.892 14.059,37.881 31.851,43.961c-6.756,-11.556 -21.163,-15.915 -31.033,-24.96c-7.772,-7.118 -12.466,-16.903 -16.683,-26.56c-4.985,-11.435 -9.564,-23.054 -13.703,-34.823c-2.809,-7.972 -5.447,-16.178 -5.532,-24.633c-0.1,-10.517 3.748,-20.622 7.538,-30.428c3.534,-9.145 7.154,-18.439 13.141,-26.197c9.849,-12.757 25.131,-20.117 40.448,-25.145z" /></svg>