<svg xmlns="http://www.w3.org/2000/svg" viewBox="0 0 727 1024" width="727" height="1024"><path d="M378.575,355.159c1.834,-4.485 1.664,-9.347 -2.816,-13.483c-3.03,-2.866 -6.998,-4.692 -10.838,-6.192c-4.186,-1.632 -0.171,-3.688 -4.694,-2.479c-11.819,2.817 -12.458,3.502 -18.987,15.318c-5.336,9.344 -12.16,20.181 -6.485,28.502c0.982,1.209 2.005,2.298 3.328,2.177c0.682,-0.121 1.318,-0.847 2.346,-0.847c0.639,0 1.492,0.726 2.133,0.847c11.009,3.501 24.832,-3.834 31.702,-11.006c2.304,-2.175 3.331,-10.326 4.48,-12.842zM400.59,348.162c-9.515,29.653 -25.686,48.688 -57.686,42.326c-10.154,-2.006 -23.339,-10.499 -25.472,-19.328c-1.664,-6.144 1.322,-15.152 6.485,-20.353c5.504,-14.634 16.811,-28.335 34.347,-29.653c14.635,-0.981 39.296,11.989 42.326,27.008z" /> <path d="M316.75,313.467c-0.339,1.536 -0.339,3.036 0.169,4.354h-0.169c-0.17,-3.328 -6.186,6.821 -7.68,11.647c-19.158,-18.474 -58.838,-47.829 -80.342,-69.973c-13.824,-14.165 -21.334,-29.184 -33.323,-43.82c-12.16,-14.848 -28.502,-21.675 -41.003,-34.517c-31.318,-31.83 -66.987,-100.823 -114.177,-114.519c-8.661,-62.977 68.864,33.028 80.342,42.667c27.69,22.998 40.363,49.494 62.848,73.516c19.669,20.48 39.851,41.003 59.819,61.483c15.829,16.512 32.171,29.866 49.664,43.861c7.339,6.316 16.683,19.327 23.851,25.302z" /> <path d="M-16.443,104.877c0.351,0 0.69,0.121 0.859,0.121c-2.182,3.544 -1.331,1.367 -0.859,-0.121z" /> <path d="M40.224,55.975c37.505,16.682 63.361,56.192 89.345,85.675c30.165,34.005 61.696,60.843 92.843,93.354c17.494,18.304 57.003,61.654 75.35,80.811c-10.027,7.68 -34.347,29.015 -44.502,37.505c-16.683,-14.977 -67.329,-63.831 -80.342,-80.983c-20.352,-27.007 -48.512,-32.682 -69.504,-57.685c-11.52,-13.824 -20.182,-29.994 -32.342,-43.648c-11.477,-12.672 -25.173,-23.681 -36.181,-36.864c-12.8,-15.318 -17.494,-33.662 -35.627,-38.657c0.641,-1.323 22.486,-10.159 24.662,-13.824c5.162,0.811 9.643,-20.351 16.299,-25.685z" /> <path d="M672.933,55.153c65.323,-8.191 -34.347,66.65 -44.331,77.825c-23.68,26.497 -51.371,38.657 -76.032,60.502c-21.162,18.817 -42.325,38.314 -63.488,57.686c-17.323,15.487 -31.147,31.317 -45.654,48c-6.357,7.169 -19.67,15.826 -25.856,22.998c-1.152,-0.605 -2.475,-0.968 -4.011,-0.968c-0.133,0 -0.472,0.121 -0.641,0.121c-1.664,-1.838 -8.32,-5.345 -12.16,-6.313c19.157,-18.517 49.493,-56.832 72.491,-77.526c14.848,-13.482 30.166,-20.822 45.483,-32.469c15.189,-11.691 22.357,-27.35 35.84,-39.68c32.853,-29.996 104.321,-64.342 118.358,-110.167z" /> <path d="M633.421,0.663c0,0.121 -0.169,0.363 -0.169,0.484c-3.671,-1.802 -1.495,-1.089 0.169,-0.484z" /> <path d="M701.435,60.497c-17.024,36.311 -58.027,61.142 -88.704,86.486c-34.987,29.013 -62.806,59.35 -96.47,89.515c-19.03,16.81 -63.83,55.168 -83.841,72.832c-7.851,-9.856 -29.994,-33.322 -38.827,-43.179c15.317,-16.17 66.176,-64.982 83.968,-77.312c28.203,-19.669 33.835,-46.848 59.691,-67.201c14.336,-11.136 30.976,-19.502 45.184,-31.318c13.142,-11.178 24.662,-24.147 37.974,-34.645c16.17,-12.502 34.987,-17.194 40.192,-34.688c1.322,0.682 10.666,21.842 14.464,23.68c-0.811,5.162 20.864,9.637 26.368,15.829z" /> <path d="M669.904,653.826c8.362,63.19 -68.992,-41.346 -80.47,-50.816c-27.691,-23.168 -40.363,-49.664 -63.019,-73.686c-19.328,-20.48 -39.68,-41.003 -59.648,-61.483c-15.872,-16.512 -32.171,-29.866 -49.536,-43.861c-7.466,-6.144 -16.298,-18.822 -23.637,-24.833c1.319,-1.33 1.488,-3.326 0.98,-4.995c1.835,-2.177 5.16,-7.813 6.357,-11.478c19.157,18.474 58.837,47.829 80.171,69.973c13.995,14.337 21.333,29.184 33.664,43.99c11.989,14.507 28.331,21.675 41.003,34.517c31.147,31.659 66.816,109.185 114.134,122.668z" /> <path d="M726.442,607.265c-0.52,0 -0.69,-0.121 -0.859,-0.121c2.182,-3.544 1.331,-1.367 0.859,0.121z" /> <path d="M576.932,576.34c-29.867,-34.006 -61.697,-60.844 -92.673,-93.355c-17.494,-18.347 -57.174,-61.654 -75.35,-80.64c10.154,-7.68 34.517,-29.186 44.501,-37.676c16.853,14.806 67.328,63.83 80.171,81.153c20.352,27.008 48.512,32.683 69.675,57.514c11.648,13.995 20.139,29.996 32.512,43.648c11.478,12.673 25.132,23.852 35.798,36.822c12.843,15.36 17.664,42.193 36.011,47.019c-0.981,1.323 -22.656,10.159 -24.661,13.824c-5.333,-0.512 -9.812,20.351 -16.341,25.685c-37.504,-16.511 -63.318,-64.512 -89.643,-93.994z" /> <path d="M300.579,383.667c-3.499,0.169 6.826,5.841 11.989,7.341c-19.157,18.645 -49.664,57.003 -72.32,77.653c-15.019,13.355 -30.337,20.695 -45.654,32.342c-15.189,11.648 -22.528,27.523 -35.84,39.509c-32.853,30.336 -104.193,64.512 -118.358,110.337c-65.323,8.149 34.177,-66.686 44.203,-77.825c23.808,-26.368 51.328,-38.869 76.16,-60.672c21.163,-18.859 42.496,-38.358 63.659,-57.516c17.152,-15.487 30.848,-31.146 45.483,-47.829c6.699,-7.68 21.333,-17.148 27.008,-24.32c0.684,0.484 1.492,0.968 2.689,0.968c0.29,0 0.641,-0.363 1.149,-0.363l-0.169,0.363z" /> <path d="M79.737,705.122c0,-0.121 0.339,-0.363 0.339,-0.484c3.501,2.153 1.496,1.21 -0.339,0.484z" /> <path d="M28.234,653.821c17.323,-36.182 58.326,-61.184 88.662,-86.486c35.328,-29.013 63.19,-59.349 96.854,-89.515c18.987,-16.81 63.83,-55.168 83.67,-72.832c7.808,9.814 30.166,33.322 38.827,43.179c-15.488,16 -66.006,64.982 -84.011,77.484c-27.989,19.669 -33.664,46.676 -59.648,67.157c-14.336,11.007 -31.189,19.495 -45.184,31.36c-13.141,11.136 -24.491,24.147 -38.144,34.645c-15.83,12.332 -34.859,16.854 -40.022,34.518c-1.493,-0.682 -10.496,-21.842 -14.336,-23.68c0.512,-5.162 -20.992,-9.516 -26.667,-15.829z" /> <path d="M314.744,998.826c-5.504,-11.006 0.677,-42.325 4.522,-54.017c8.32,-23.466 19.499,-50.474 61.312,-48.298c41.984,1.838 38.486,30.806 38.486,58.155c0,16.81 0.169,32.511 6.357,48.341c-22.016,-5.031 -47.83,1.318 -70.016,0.484c-11.989,-0.484 -28.331,-6.652 -37.334,-6.144c5.163,0 10.666,0 -3.328,1.5z" /> <path d="M315.597,525.134c6.314,10.198 -0.17,30.672 0.81,42.198c1.494,15.829 6.016,30.977 7.51,46.806c1.488,18.858 1.488,38.357 0.98,57.344c-0.64,21.674 -15.83,38.656 -18.475,59.99c-2.517,20.522 -1.322,37.035 -10.666,56.534c-10.325,21.332 -18.859,42.666 -29.184,63.317c-7.51,15.146 -11.99,29.184 -18.475,44.33c-8.363,18.518 -26.539,31.831 -41.344,47.66c-21.504,23.169 -35.67,52.011 -53.163,76.502c-15.83,0.859 -38.358,0.52 -50.006,4.185c8.832,-15.36 5.675,-29.654 18.176,-43.52c12.672,-13.995 35.499,-25.302 44.16,-40.662c13.483,-23.808 28.502,-47.488 43.99,-70.827c16.853,-25.515 38.656,-48.982 46.336,-76.843c7.68,-28.843 11.648,-57.473 20.011,-86.315c16.342,-56.363 6.314,-111.488 5.334,-169.004c11.99,2.001 38.315,-21.685 34.006,-11.695z" /> <path d="M452.595,493.31c6.485,9.855 26.966,27.518 29.312,33.493c8.156,22.528 0.859,42.539 0.859,66.006c0,13.526 -2.343,26.197 -1.835,39.339c0.64,16.512 8.661,31.19 10.155,48.342c1.836,21.504 -2.859,45.184 2.816,66.175c6.357,22.997 13.184,46.166 17.365,69.334c3.797,20.65 11.818,16.81 23.168,36.65c12.459,21.676 22.656,58.838 41.131,78.166c21.846,22.656 21.164,43.697 27.691,50.688c7.168,7.808 23.809,10.495 18.475,21.973c-6.144,-7.462 -33.963,-9.809 -41.302,-3.326c-18.688,-13.142 -30.507,-38.145 -43.179,-55.639c-11.99,-17.023 -21.163,-34.858 -32.683,-52.181c-14.975,-22.486 -15.488,-45.013 -24.149,-68.651c-8.32,-23.04 -21.504,-46.848 -23.68,-71.041c-2.006,-23.169 -12.331,-46.805 -12.331,-70.144c0,-36.822 6.485,-73.174 3.669,-109.995c-1.148,-16.171 -2.515,-33.323 -2.176,-49.025c0.172,-10.666 7.171,-19.969 6.699,-30.165z" /> <path d="M344.909,214.652c-41.515,53.333 -99.84,112.683 -130.475,178.689c-16,34.646 -46.208,55.808 -67.542,83.67c-7.297,-0.726 -14.805,-1.838 -22.485,-2.008c-2.346,-14.848 18.859,-31.36 26.667,-43.521c14.165,-22.016 35.499,-45.824 47.019,-69.504c6.656,-14.506 7.339,-29.994 16.341,-44.843c11.307,-18.645 27.478,-26.794 42.326,-41.813c22.656,-21.845 30.976,-64.683 57.984,-83.5c15.019,-10.498 32.683,-45.184 49.152,-48.342c19.669,-3.846 47.36,49.152 61.184,60.844c20.011,16.81 45.355,36.01 62.336,55.808c13.312,15.36 24.491,38.187 38.315,54.869c20.011,23.808 36.694,51.499 54.528,76.502c9.814,13.654 41.173,31.147 44.16,45.312c-20.651,26.497 -36.352,-0.968 -58.838,-20.48c-20.992,-18.347 -36.182,-36.182 -51.84,-58.838c-16.64,-23.509 -10.496,-33.664 -32,-52.352c-27.989,-24.32 -59.008,-50.177 -83.328,-77.825c-10.666,-12.501 -54.016,-34.346 -53.505,-12.671z" /></svg>