<svg xmlns="http://www.w3.org/2000/svg" viewBox="0 0 760 828" width="760" height="828"><path d="M759.581,624.281c-0.064,2.013 -0.306,3.94 -0.498,5.931c-0.214,2.197 0.448,4.288 0.348,6.457c-0.327,7.203 -1.287,14.343 -1.259,21.589c0.036,7.119 -0.612,14.642 -1.28,21.739c-0.177,1.827 -0.924,3.377 -1.365,5.141c-0.441,1.728 -0.313,3.47 -0.612,5.205c-0.626,3.641 -1.97,7.175 -3.236,10.638c-1.201,3.3 -2.048,6.706 -3.349,9.97c-1.479,3.698 -3.492,7.232 -5.042,10.916c-1.166,2.759 -3.136,5.269 -4.928,7.765c-1.522,2.717 -3.62,5.241 -5.305,7.794c-1.849,2.823 -4.409,5.831 -6.791,8.22c-5.745,5.76 -12.138,10.688 -18.076,16.213c-1.657,1.55 -3.591,2.51 -5.44,3.783c-1.721,1.18 -2.929,2.929 -4.693,4.06c-3.662,2.353 -7.31,4.707 -10.958,7.125c-3.235,2.14 -6.307,4.594 -9.543,6.656c-3.535,2.254 -7.41,3.861 -11.108,5.781c-1.707,0.882 -3.285,2.012 -4.992,2.887c-1.635,0.846 -3.278,1.046 -4.999,1.65c-4.402,1.529 -8.363,4.167 -12.907,5.49c-3.143,0.918 -6.265,2.169 -9.493,2.795c-3.47,0.676 -7.032,1.024 -10.524,1.721c-6.314,1.251 -13.909,1.344 -20.302,0.284c-2.88,-0.483 -5.817,-0.547 -8.768,-1.038c-2.979,-0.498 -5.76,-1.38 -8.732,-1.963c-11.975,-2.332 -24.988,-2.033 -36.16,-7.516c-4.586,-2.254 -9.77,-3.321 -14.542,-5.184c-4.999,-1.949 -10.766,-3.741 -15.239,-6.642c-2.524,-1.635 -5.24,-2.46 -7.708,-4.174c-2.375,-1.657 -4.956,-2.361 -7.324,-3.897c-1.052,-0.682 -2.034,-1.607 -3.143,-2.19c-1.415,-0.74 -2.901,-0.939 -4.288,-1.771c-2.56,-1.543 -4.992,-3.406 -7.481,-5.07c-4.623,-3.101 -8.761,-7.211 -12.203,-11.563c-3.854,-4.885 -7.843,-9.585 -11.022,-14.997c-5.468,-9.301 -10.012,-19.008 -14.727,-28.636c-1.522,-3.108 -3.577,-5.867 -5.22,-8.896c-1.373,-2.539 -2.489,-5.192 -3.89,-7.716c-3.897,-7.04 -6.294,-14.535 -9.771,-21.717c-6.102,-12.601 -11.904,-25.8 -15.14,-39.46c-1.706,-7.203 -4.096,-14.2 -5.518,-21.468c-1.437,-7.31 -2.07,-14.741 -3.108,-22.108c-0.477,-3.392 -1.65,-6.563 -2.482,-9.87c-1.052,-4.203 -1.465,-8.626 -1.813,-12.935c-0.619,-7.816 -2.198,-15.318 -3.108,-23.076c-0.427,-3.627 -1.259,-7.054 -1.977,-10.624c-0.733,-3.655 -0.584,-7.41 -1.316,-11.072c-1.672,-8.306 -3.727,-16.661 -4.644,-25.088c-0.818,-7.509 -2.795,-14.663 -4.53,-21.98c-2.019,-8.541 -3.648,-17.359 -6.364,-25.7c-2.219,-6.798 -4.75,-13.632 -7.289,-20.316c-3.1,-8.17 -5.355,-16.547 -8.391,-24.725c-1.131,-3.051 -1.856,-6.215 -3.172,-9.202c-1.386,-3.165 -3.114,-6.18 -4.572,-9.316c-2.923,-6.272 -5.931,-12.43 -8.683,-18.78c-3.925,-9.052 -9.301,-17.543 -14.151,-26.126c-2.112,-3.747 -3.548,-7.722 -5.582,-11.47c-0.903,-1.657 -1.941,-3.243 -2.844,-4.9c-1.138,-2.098 -1.543,-4.544 -2.731,-6.592c-0.896,-1.543 -2.396,-2.624 -3.349,-4.139c-1.017,-1.607 -1.657,-3.371 -2.887,-4.843c-3.008,-3.598 -5.696,-7.473 -8.64,-11.157c-5.148,-6.443 -10.062,-13.163 -15.815,-19.079c-2.773,-2.852 -5.248,-5.867 -7.822,-8.868c-3.065,-3.591 -6.926,-6.549 -10.24,-9.92c-1.366,-1.379 -2.219,-3.121 -3.556,-4.508c-1.323,-1.38 -2.944,-2.304 -4.196,-3.776c-2.396,-2.809 -4.643,-5.063 -7.445,-7.431c-3.128,-2.645 -6.058,-5.041 -9.5,-7.317c-2.773,-1.842 -4.829,-4.323 -7.609,-6.158c-2.474,-1.621 -4.935,-3.278 -7.381,-4.949c-2.418,-1.657 -5.099,-2.418 -7.495,-4.018c-4.189,-2.809 -9.572,-3.826 -14.265,-5.639c-9.799,-3.784 -19.548,-6.813 -29.724,-9.636c-5.113,-1.422 -10.418,-2.823 -15.659,-3.399c-5.063,-0.554 -10.283,-1.28 -15.339,-1.102c-10.012,0.349 -20.743,2.276 -29.902,6.45c-2.567,1.174 -5.383,1.743 -7.929,2.916c-2.759,1.273 -5.426,3.058 -8.114,4.537c-2.119,1.166 -4.323,1.877 -6.421,3.079c-2.396,1.38 -4.693,2.724 -6.976,4.288c-9.401,6.45 -16.64,14.521 -24.59,22.471c-2.218,2.219 -4.174,4.623 -6.35,6.827c-2.091,2.12 -3.662,4.637 -5.817,6.692c-2.439,2.333 -4.131,5.341 -5.98,8.171c-0.696,1.067 -1.479,1.935 -2.268,2.788c-1.252,2.617 -3.271,4.679 -4.587,7.289c-0.697,1.373 -0.925,2.88 -1.714,4.217c-0.874,1.486 -2.055,2.802 -2.965,4.274c-1.408,2.268 -2.652,5.184 -3.605,7.68c-1.145,3.008 -2.582,5.917 -3.499,9.017c-0.832,2.838 -2.538,5.071 -3.285,7.915c-0.811,3.072 -2.084,5.924 -2.596,9.003c-0.931,5.603 -2.503,11.043 -3.413,16.654c-0.768,4.785 0.113,9.706 0.277,14.485c0.079,2.275 0.199,4.572 0.299,6.862c0.05,1.23 0.59,2.048 0.903,3.157c0.327,1.18 0.142,2.027 0.263,3.271c0.185,1.927 1.081,3.662 1.351,5.618c0.235,1.742 0.782,3.79 1.458,5.454c0.605,1.472 1.259,3.214 2.084,4.501c0.953,1.479 2.454,2.333 3.684,3.705c4.829,5.405 11.392,8.1 18.404,8.804c6.414,0.64 13.056,-1.557 19.122,-3.74c3.179,-1.145 5.981,-2.901 8.946,-4.345c2.759,-1.337 5.091,-3.371 7.054,-5.604c2.766,-3.143 5.447,-4.935 8.825,-6.99c2.709,-1.65 5.44,-3.755 7.324,-6.585c1.578,-2.368 3.833,-4.323 5.838,-6.407c0.662,-1.7 1.657,-3.136 2.724,-4.722c3.741,-5.568 5.945,-11.932 9.721,-17.493c2.033,-2.994 2.723,-5.888 4.949,-8.903c0.476,-0.654 1.052,-1.223 1.607,-1.806c0.654,-1.358 1.337,-2.709 2.361,-4.096c0.995,-1.359 2.261,-2.461 3.349,-3.755c2.403,-2.88 4.188,-6.165 6.741,-8.924c0.291,-0.32 0.526,-0.64 0.796,-0.953c1.258,-2.382 2.695,-4.651 3.918,-7.04c1.536,-3.008 1.707,-6.244 2.738,-9.38c0.448,-1.351 1.287,-2.574 1.678,-3.783c0.241,-0.754 0.334,-1.878 0.533,-2.724c0.732,-3.043 1.955,-5.098 1.55,-8.348c-0.519,-4.145 -0.291,-6.314 -2.837,-9.884c-2.126,-2.98 -4.707,-4.317 -8.341,-3.57c-6.293,1.287 -11.861,4.757 -16.668,8.654c-2.574,2.083 -5.568,3.591 -8.071,5.909c-2.446,2.261 -5.305,4.444 -7.936,6.044c-2.653,1.615 -4.957,3.143 -6.884,5.483c-0.974,1.181 -1.927,1.963 -3.093,2.937c-0.541,0.448 -1.081,0.441 -1.643,0.996c-0.725,0.719 -1.01,1.707 -1.806,2.411c-1.685,1.486 -3.179,3.328 -4.608,5.262c-1.451,2.332 -2.866,4.658 -4.295,6.784c-2.098,3.122 -4.402,6.066 -5.611,9.529c-0.313,0.881 -0.803,1.422 -1.287,2.204c-0.547,0.896 -0.512,1.572 -0.853,2.496c-0.675,1.856 -1.507,3.612 -2.197,5.454c-0.448,1.202 -0.875,3.079 -1.223,4.523c-0.441,1.884 -0.882,3.655 -0.434,5.589c0.868,3.698 4.53,2.859 7.417,1.899c2.248,-0.746 4.921,-2.083 6.756,-3.861c0.363,-1.046 0.583,-2.212 1.074,-3.236c1.721,-3.626 3.811,-7.082 6.158,-10.332c0.136,-0.192 0.335,-0.426 0.548,-0.668c1.066,-1.792 2.204,-3.542 3.42,-5.234c1.344,-1.856 6.328,-6.507 9.244,-5.12c1.166,0.554 1.052,2.702 0.711,3.74c-0.263,0.81 -0.924,1.315 -1.216,2.076c-0.292,0.753 -0.085,1.415 -0.377,2.204c-1.778,4.736 -4.892,9.216 -8,13.575c-2.41,3.812 -5.191,7.502 -7.63,11.129c-4.053,6.031 -9.258,10.596 -15.132,14.891c-4.736,3.463 -14.77,7.04 -19.812,2.069c-2.098,-2.062 -1.956,-6.002 -2.596,-8.704c-0.811,-3.421 -0.491,-6.215 -0.37,-9.721c0.149,-4.245 -0.313,-8.085 1.621,-12.089c1.672,-3.449 3.862,-6.507 5.924,-9.714c2.568,-4.004 4.324,-8.434 7.14,-12.288c0.569,-0.783 1.202,-1.515 1.792,-2.283c0.697,-1.224 1.337,-2.475 2.176,-3.62c4.359,-5.973 9.358,-11.527 13.845,-17.415c3.655,-4.793 8.27,-8.797 11.989,-13.497c1.216,-2.133 2.453,-4.238 4.089,-6.108c1.33,-2.332 2.645,-4.643 4.551,-6.606c2.326,-2.397 4.488,-5.078 6.948,-7.332c4.907,-4.487 11.179,-8.149 17.188,-10.965c4.871,-2.275 9.635,-4.437 15.111,-4.181c1.571,0.071 3.954,0.327 5.326,0.782c1.87,0.633 2.226,1.771 3.321,3.058c0.469,0.548 1.116,0.967 1.564,1.522c0.412,0.527 0.825,1.316 1.28,1.899c1.138,1.437 1.536,2.76 2.041,4.516c1.87,6.514 4.451,12.907 5.774,19.648c1.358,6.934 0.996,14.55 0.05,21.554c-0.561,4.175 -0.533,9.003 -2.012,12.971c-0.818,2.176 -2.154,4.252 -3.086,6.364c-0.576,1.294 -0.768,2.61 -1.486,3.833c-0.782,1.315 -1.785,2.36 -2.375,3.804c-1.067,2.624 -2.354,4.679 -3.954,7.061c-1.344,1.998 -2.667,4.16 -4.139,6.165c-1.814,2.745 -3.464,5.945 -5.796,8.256c-4.878,4.835 -9.01,10.361 -14.215,14.997c-4.971,4.437 -9.472,9.408 -14.201,14.073c-4.751,4.687 -9.757,9.046 -14.564,13.668c-3.982,3.833 -8.462,7.104 -11.712,11.556c-0.697,0.96 -1.543,1.238 -2.325,2.02c-0.725,0.725 -1.081,1.614 -1.87,2.311c-1.429,1.28 -2.681,2.631 -4.245,3.797c-6.343,4.715 -11.015,10.069 -19.207,11.641c-3.663,0.704 -7.168,1.06 -11.044,1.522c-1.771,0.213 -3.57,0.484 -5.348,0.64c-1.806,0.156 -3.712,-0.384 -5.554,-0.32c-3.947,0.135 -8.655,-0.156 -12.459,-0.917c-3.406,-0.676 -7.424,-1.351 -10.332,-2.859c-6.492,-3.364 -10.894,-9.6 -12.43,-16.548c-0.875,-3.989 -0.904,-7.581 -2.66,-11.257c-2.062,-4.302 -2.033,-9.052 -1.948,-13.724c0.263,-14.748 5.796,-28.899 10.688,-42.631c2.332,-6.528 5.042,-12.836 8.007,-19.108c3.342,-7.076 5.035,-14.777 8.647,-21.668c3.399,-6.493 6.521,-13.12 10.233,-19.442c0.782,-1.323 1.757,-2.489 2.745,-3.634c0.419,-0.746 0.789,-1.521 1.223,-2.261c1.664,-2.83 4.132,-4.963 6.016,-7.623c2.589,-3.662 5.092,-6.947 8.228,-10.19c4.914,-5.091 9.095,-10.844 13.995,-15.943c5.682,-5.909 11.712,-11.413 17.337,-17.401c2.553,-2.709 5.682,-4.708 8.398,-7.232c2.745,-2.553 5.561,-5.07 8.171,-7.751c2.425,-2.474 4.423,-5.269 7.154,-7.438c3.463,-2.759 7.488,-4.914 11.2,-7.346c4.871,-3.193 10.055,-5.618 15.595,-7.403c2.588,-0.832 5.191,-1.764 7.836,-2.404c3.157,-0.768 6.378,-0.69 9.557,-1.273c3.854,-0.712 7.26,0.54 11.079,0.22c2.425,-0.206 4.438,0.292 6.891,0.676c4.296,0.676 8.512,1.949 12.772,2.731c4.217,0.782 8.277,1.92 12.473,2.716c2.119,0.406 3.919,1.337 6.123,1.586c2.489,0.285 4.643,1.28 7.047,1.7c4.964,0.867 9.835,1.621 14.777,2.446c2.432,0.406 4.701,0.989 7.033,1.714c2.012,0.626 4.238,0.59 6.215,1.337c6.933,2.617 14.208,4.217 20.437,8.405c1.529,1.031 3.058,2.048 4.58,3.086c1.721,1.166 3.285,1.436 5.049,2.325c1.878,0.939 2.802,2.88 4.459,4.075c1.692,1.23 3.335,2.112 4.693,3.662c1.337,1.528 3.271,2.275 4.665,3.74c1.578,1.656 3.15,3.448 4.75,5.148c2.795,2.972 5.639,6.343 8.768,8.974c3.356,2.83 5.881,6.955 8.071,10.809c1.06,1.849 1.792,3.798 2.795,5.682c1.265,2.382 2.894,4.53 4.124,6.898c2.368,4.573 5.838,8.527 8.377,13.028c2.532,4.494 4.914,9.373 8.37,13.369c6.62,7.638 12.38,16.071 19.392,23.282c1.536,1.571 3.314,3.292 5.035,4.636c1.017,0.79 1.635,1.579 2.51,2.482c0.953,0.989 2.148,1.536 3.115,2.553c2.816,2.986 4.949,6.663 7.353,9.948c2.403,3.292 4.11,6.976 6.293,10.375c2.297,3.577 4.928,6.905 7.339,10.425c4.9,7.154 9.913,14.514 13.497,22.528c0.903,2.02 1.408,4.032 2.738,5.817c1.394,1.87 2.375,4.309 3.335,6.457c1.586,3.535 3.029,7.126 4.601,10.66c0.896,2.026 1.643,4.11 2.503,6.158c0.406,0.953 0.882,1.849 1.188,2.852c0.341,1.088 0.213,1.927 0.448,3.008c0.448,2.127 1.742,4.26 2.453,6.315c0.391,1.138 0.412,2.347 0.711,3.506c0.313,1.209 0.996,2.176 1.344,3.364c0.298,1.024 0.028,2.033 0.206,3.036c0.192,1.067 0.995,2.112 1.287,3.129c0.512,1.756 0.69,3.875 0.967,5.724c0.625,4.181 0.689,8.242 1.621,12.43c0.462,2.055 0.981,3.605 0.988,5.76c0.007,2.339 -0.17,4.714 -0.149,7.061c0.035,4.103 -0.313,8.441 0.277,12.523c0.498,3.449 2.539,6.706 3.122,10.19c0.654,3.925 2.29,7.872 3.513,11.641c0.533,1.622 1.607,3.08 2.14,4.708c0.505,1.55 0.441,3.392 0.939,5.013c1.18,3.861 2.531,7.36 3.285,11.292c0.363,1.871 0.875,3.129 1.728,4.843c0.996,1.999 1.216,4.103 2.02,6.123c1.657,4.139 0.896,8.576 1.728,12.8c0.79,4.039 1.138,7.836 1.515,12.046c0.177,2.048 0.54,4.352 0.789,6.428c0.256,2.161 1.629,4.202 1.508,6.549c-0.135,2.567 -0.334,5.014 -0.192,7.602c0.135,2.552 1.194,4.551 1.934,6.876c0.854,2.681 0.932,5.398 0.69,8.107c-0.221,2.453 0.626,5.049 1.102,7.481c1.052,5.319 1.479,10.673 2.524,16.028c0.463,2.353 0.925,4.714 1.38,7.068c0.235,1.18 0.505,2.36 0.711,3.548c0.249,1.429 -0.128,2.866 0.142,4.238c0.192,1.01 0.967,1.807 1.266,2.795c0.342,1.145 0.079,2.077 0.1,3.193c0.078,3.072 1.586,5.675 2.183,8.626c0.426,2.112 1.578,4.152 1.692,6.236c0.064,1.152 -0.178,1.842 0.22,3.015c0.419,1.23 0.853,2.304 1.18,3.605c1.948,7.744 6.023,14.876 9.813,21.916c1.806,3.357 2.702,7.125 4.245,10.553c0.654,1.465 1.586,2.596 2.254,4.068c0.861,1.891 1.65,3.648 2.418,5.589c1.159,2.951 1.188,6.115 2.091,9.18c1.016,3.471 2.823,6.592 3.868,10.027c1.195,3.919 2.532,7.524 5.291,10.468c2.617,2.787 4.466,6.393 7.225,9.031c1.138,1.088 2.901,1.899 4.217,2.788c1.942,1.301 4.068,3.236 6.194,4.217c0.91,0.426 1.842,0.341 2.752,0.725c0.981,0.413 1.948,1.359 2.837,1.963c1.87,1.266 3.755,2.524 5.632,3.79c1.401,0.939 2.894,1.813 4.238,2.823c1.656,1.251 2.624,2.837 4.444,4.039c3.292,2.183 6.471,4.672 9.87,6.663c1.564,0.924 3.15,1.045 4.693,2.119c1.515,1.045 3.058,2.048 4.58,3.079c1.443,0.967 3.207,1.821 4.316,3.129c0.448,0.526 0.49,1.031 1.173,1.607c0.733,0.626 1.685,1.109 2.489,1.657c2.866,1.927 6.749,3.733 9.124,6.215c0.669,0.704 0.775,1.529 1.643,1.998c0.42,0.227 1.33,0.042 1.906,0.27c0.917,0.363 1.572,1.416 2.489,1.764c0.64,0.242 1.55,0.192 2.254,0.32c3.499,0.633 6.834,2.318 10.29,2.823c3.343,0.491 6.856,0.996 10.148,1.714c1.415,0.306 2.973,0.612 4.466,0.96c1.564,0.363 3.136,0.932 4.828,1.323c3.2,0.739 6.343,1.962 9.579,2.126c3.143,0.156 6.493,-0.405 9.65,-0.704c3.918,-0.37 6.912,-1.671 10.56,-2.816c2.084,-0.647 4.053,-1.294 6.08,-2.105c1.06,-0.42 2.055,-1.095 3.193,-1.344c1.074,-0.228 2.091,-0.128 3.179,-0.484c3.925,-1.273 7.843,-2.909 11.669,-4.452c1.749,-0.704 3.57,-0.811 5.198,-1.6c2.006,-0.967 4.018,-1.835 6.13,-2.546c3.869,-1.294 7.246,-2.937 10.873,-4.878c3.207,-1.714 5.39,-4.224 7.957,-6.507c3.271,-2.922 6.748,-6.478 10.51,-8.789c3.208,-1.97 5.796,-5.028 8.612,-7.488c3.356,-2.937 6.122,-6.08 8.718,-9.529c0.199,-0.412 0.434,-0.789 0.59,-1.244c0.81,-2.375 2.133,-3.84 3.868,-5.689c0.029,-0.078 0.072,-0.135 0.1,-0.213c0.647,-1.885 1.693,-3.207 2.93,-4.601c0.426,-0.967 0.839,-1.97 1.294,-3.051c0.69,-1.649 1.956,-3.207 2.539,-4.821c0.54,-1.494 0.718,-3.52 1.301,-5.227c1.181,-3.484 3.328,-6.115 3.819,-9.863c0.434,-3.279 0.704,-6.848 0.619,-10.155c-0.171,-6.855 -3.065,-14.137 -1.977,-21.006c0.548,-3.506 1.308,-6.791 1.6,-10.354c0.248,-3.072 1.336,-5.597 2.076,-8.498c0.669,-2.646 0.42,-5.853 0.427,-8.555c0.057,-10.923 -7.751,-20.203 -11.868,-29.881c-2.51,-5.909 -2.944,-12.608 -4.992,-18.716c-0.747,-2.219 -1.451,-4.779 -3.257,-6.315c-0.712,-0.612 -1.792,-0.854 -2.468,-1.522c-0.711,-0.697 -1.002,-1.607 -1.749,-2.297c-0.776,-0.725 -1.97,-0.995 -2.724,-1.735c-0.619,-0.604 -0.846,-1.806 -1.586,-2.247c-0.712,-0.419 -1.714,-0.135 -2.596,-0.59c-3.044,-1.572 -5.568,-4.281 -8.697,-5.362c-1.557,-0.541 -2.88,-1.963 -4.473,-2.553c-0.668,-0.249 -1.195,0.135 -1.863,-0.121c-0.953,-0.369 -1.706,-1.024 -2.709,-1.372c-1.785,-0.619 -3.143,-1.948 -4.921,-2.567c-1.913,-0.676 -3.178,-1.458 -4.949,-2.546c-2.624,-1.608 -6.89,-1.344 -10.062,-1.636c-2.802,-0.256 -5.454,0 -8.327,0.128c-3.271,0.149 -6.343,-0.512 -9.479,-0.356c-3.441,0.171 -6.521,0.306 -9.429,1.977c-1.131,0.647 -2.255,1.181 -3.371,1.785c-1.564,0.846 -2.439,2.112 -3.982,2.866c-2.681,1.309 -5.703,2.304 -8.569,3.243c-6.137,1.998 -12.11,4.928 -17.92,7.616c-1.138,0.526 -2.496,0.839 -3.534,1.408c-1.316,0.718 -2.29,1.963 -3.755,2.617c-1.237,0.554 -2.93,1.081 -3.918,1.941c-0.64,0.562 -0.988,1.138 -1.472,1.849c-0.761,1.116 -1.472,1.593 -2.446,2.446c-1.308,1.159 -2.247,2.596 -3.548,3.755c-1.301,1.166 -2.148,2.261 -3.449,3.271c-2.453,1.913 -5.355,3.911 -7.239,6.35c-0.861,1.487 -1.252,2.916 -2.041,4.459c-0.939,1.813 -1.892,3.015 -2.56,4.928c-0.661,1.891 -1.941,3.065 -2.325,5.127c-0.612,3.285 -1.223,6.599 -1.92,9.934c-0.754,3.584 0.369,5.796 1.5,9.188c1.074,3.207 0.775,7.609 2.738,10.453c0.874,1.273 2.425,2.617 3.662,3.57c1.337,1.038 2.097,2.197 3.285,3.47c2.318,2.467 3.704,6.065 5.148,9.116c1.258,2.666 2.858,4.686 4.309,7.246c1.557,2.759 2.915,5.703 4.501,8.434c1.799,3.093 4.337,5.611 6.613,8.512c1.003,1.273 2.233,2.823 3.883,3.435c0.668,0.249 1.188,-0.135 1.856,0.121c1.067,0.398 1.813,1.401 2.937,1.799c3.292,1.18 6.243,1.529 9.863,1.351c4.587,-0.228 9.956,-3.079 13.22,-6.123c2.396,-2.24 4.601,-4.424 7.104,-6.564c2.609,-2.226 4.202,-5.006 6.165,-7.758c1.074,-1.515 2.347,-2.88 3.591,-4.26c0.925,-2.176 1.593,-4.465 2.738,-6.549c0.881,-1.6 2.076,-2.951 3.029,-4.501c1.188,-1.941 1.792,-4.359 2.411,-6.528c1.557,-5.426 -0.185,-11.363 -2.425,-16.391c-1.65,-3.712 -3.065,-7.395 -2.866,-11.484c0.249,-5.319 3.791,-13.653 -0.796,-17.948c-5.76,-5.412 -15.758,1.272 -21.063,4.252c-2.944,1.657 -5.547,4.075 -8.562,5.54c-1.273,0.619 -2.994,0.789 -4.324,1.401c-1.336,0.611 -2.055,1.628 -3.164,2.503c-2.076,1.642 -5.248,2.432 -7.559,3.804c-1.529,0.903 -2.937,1.735 -4.167,2.709c-0.583,2.218 -0.654,4.622 -1.18,6.734c-0.519,2.105 -0.811,2.901 0.505,4.743c1.095,1.536 2.133,2.596 3.705,3.634c2.496,1.643 4.573,3.215 7.211,3.947c-0.512,-0.462 -1.009,-0.917 -1.429,-1.465c-1.123,-1.493 -2.211,-2.616 -2.709,-4.38c-0.469,-1.671 -0.277,-2.19 0.199,-3.676c0.562,-1.757 -0.277,-3.4 0.192,-4.964c0.59,-1.976 2.112,-3.356 3.854,-4.252c-0.035,-0.562 -0.042,-1.11 0.114,-1.65c0.903,-3.001 3.889,-4.758 6.677,-5.284c5.383,-1.003 12.309,-1.145 17.536,0.533c6.166,1.984 13.369,5.831 13.604,13.262c0.043,1.38 -0.071,2.731 -0.185,4.068c-0.163,1.92 0.342,3.442 0.498,5.355c0.228,2.695 0.285,5.718 -0.213,8.299c-0.576,2.987 -3.172,5.959 -5.028,8.647c-1.152,2.168 -2.901,4.288 -4.217,6.236c-1.038,1.55 -1.891,3.278 -3.406,4.359c-1.337,0.953 -3.477,2.51 -4.928,3.136c-1.223,0.519 -2.482,0.817 -3.726,1.365c-1.657,0.725 -3.534,1.379 -5.305,1.742c-3.015,0.625 -6.123,0.014 -9.28,0.405c-3.363,0.419 -6.08,-0.726 -9.422,-1.508c-3.862,-0.896 -6.073,-4.224 -9.643,-5.518c-0.647,-0.234 -1.294,0.263 -1.884,-0.085c-0.611,-0.356 -1.216,-1.643 -1.628,-2.226c-1.046,-1.472 -2.162,-3.065 -3.051,-4.58c-0.818,-1.38 -0.896,-2.88 -1.415,-4.331c-0.498,-1.408 -1.671,-3.036 -2.432,-4.416c-1.607,-2.915 -2.154,-6.286 -2.78,-9.55c-0.704,-3.691 -1.721,-6.528 -0.903,-10.247c0.768,-3.534 1.721,-6.947 3.058,-10.311c0.605,-1.536 1.927,-2.859 2.795,-4.274c1.002,-1.635 0.96,-3.001 2.126,-4.693c0.939,-1.365 1.742,-2.993 2.816,-4.245c0.135,-0.164 0.299,-0.249 0.448,-0.377c0.178,-0.412 0.398,-0.832 0.704,-1.28c0.939,-1.365 1.742,-2.993 2.816,-4.245c0.633,-0.732 1.422,-1.01 2.098,-1.664c0.725,-0.697 0.995,-1.728 1.678,-2.446c1.237,-1.301 2.795,-2.695 4.167,-3.847c1.714,-1.443 3.3,-2.218 5.376,-3.036c3.512,-1.379 6.84,-2.389 10.46,-3.399c1.849,-0.519 3.655,-1.266 5.525,-1.721c1.216,-0.299 2.667,-0.277 3.826,-0.711c0.555,-0.214 1.088,-0.868 1.6,-1.01c0.882,-0.241 1.977,-0.113 2.93,-0.348c1.878,-0.455 3.94,-0.946 5.924,-0.903c3.42,0.072 7.047,0.377 10.197,1.572c1.807,0.683 3.058,1.003 4.715,2.119c1.714,1.16 2.304,2.368 3.719,3.556c2.496,2.083 4.651,4.821 6.663,7.637c4.004,5.603 7.737,10.922 11.008,17.102c1.6,3.022 2.802,7.26 3.662,10.581c0.967,3.705 1.75,7.381 2.162,11.2c0.356,3.313 -0.384,6.215 -0.27,9.5c0.064,1.75 -0.071,3.08 -0.519,4.772c-0.249,0.91 -0.341,1.7 -0.775,2.546c-0.448,0.853 -1.415,1.557 -1.749,2.46c-0.263,0.726 -0.135,1.451 -0.384,2.212c-0.207,0.625 -0.662,1.429 -0.868,2.005c-0.519,1.429 -0.946,2.731 -1.28,4.231c-0.732,3.278 -2.311,6.421 -4.309,9.408c-1.436,2.133 -2.873,4.267 -4.309,6.4c-1.941,2.887 -3.904,5.76 -5.824,8.654c-2.105,3.171 -5.169,5.376 -7.573,8.213c-4.836,5.71 -11.598,8.832 -18.681,10.994c-3.456,1.052 -6.891,1.984 -10.468,2.652c-3.527,0.654 -6.194,2.091 -9.422,3.385c-3.548,1.43 -6.62,1.593 -10.375,1.714c-2.696,0.092 -5.753,0.128 -8.356,-0.491c-3.193,-0.761 -6.329,-3.228 -9.401,-4.295c-2.695,-0.932 -6.927,-3.435 -9.003,-5.632c-1.074,-1.131 -1.821,-2.624 -2.731,-3.691c-1.102,-1.309 -2.062,-2.112 -3.314,-3.3c-0.789,-0.747 -1.109,-1.714 -1.948,-2.425c-0.64,-0.547 -1.508,-0.824 -2.148,-1.372c-1.436,-1.223 -2.453,-2.987 -3.712,-4.359c-2.311,-2.524 -4.551,-4.906 -6.03,-8.149c-1.408,-3.072 -3.306,-6.4 -4.892,-9.429c-0.825,-1.579 -2.062,-3.094 -2.709,-4.836c-0.341,-0.931 -0.241,-1.834 -0.604,-2.766c-0.413,-1.059 -1.06,-1.863 -1.401,-2.965c-0.96,-3.086 -2.453,-6.649 -3.029,-9.941c-0.682,-3.904 -1.486,-8.057 -1.877,-12.011c-0.59,-6.024 0.263,-13.128 1.97,-18.916c1.337,-4.523 2.311,-9.814 4.025,-14.443c2.809,-7.581 5.881,-15.197 9.977,-22.187c1.6,-2.738 3.413,-5.411 5.383,-8.014c6.344,-10.033 15.318,-19.249 24.484,-26.581c1.699,-1.352 4.032,-2.582 5.966,-3.62c3.179,-1.707 6.443,-3.364 9.6,-5.227c2.446,-1.443 5.084,-2.375 7.637,-3.612c3.072,-1.493 5.81,-1.429 9.074,-2.069c2.574,-0.505 5.084,-1.415 7.58,-2.176c3.264,-0.989 6.507,-1.7 9.835,-2.489c5.61,-1.344 11.484,-2.048 17.244,-1.991c10.454,0.099 20.246,2.346 29.796,6.286c2.276,0.946 4.921,1.614 7.026,2.873c1.991,1.188 3.812,2.681 5.76,3.94c2.162,1.387 4.48,1.949 6.67,3.442c2.51,1.714 5.049,3.392 7.573,5.092c4.544,3.058 7.844,6.841 11.684,10.695c1.152,1.166 2.631,1.735 3.847,2.766c1.173,0.989 1.913,2.325 3.157,3.257c2.887,2.183 5.838,4.344 8.441,6.876c4.394,4.274 8.59,8.69 11.868,13.902c1.635,2.603 2.972,5.39 4.615,7.993c1.842,2.922 3.086,6.101 4.85,9.109c3.769,6.428 4.388,14.087 5.561,21.262c0.505,3.058 0.718,6.806 0.626,9.906z" /> <path d="M340.182,777.39c1.145,2.212 1.97,3.883 4.146,5.369c0.924,0.633 1.891,0.911 2.894,1.06c-0.192,-0.121 -0.405,-0.206 -0.597,-0.327c-2.666,-1.799 -4.181,-3.576 -6.229,-5.916c-0.064,-0.071 -0.149,-0.114 -0.213,-0.185zM437.74,719.799c1.081,3.42 0.633,7.161 1.209,10.574c0.434,2.595 1.45,5.162 1.614,7.829c0.164,2.638 -0.135,5.468 -0.277,8.149c-0.128,2.546 0.042,5.191 -0.299,7.723c-0.739,5.476 -1.856,10.902 -3.527,16.242c-0.505,1.628 -0.675,3.292 -1.557,4.764c-0.675,1.131 -1.507,2.219 -2.247,3.307c-1.756,2.582 -2.567,5.199 -4.309,7.78c-1.472,2.204 -2.865,4.992 -4.629,6.99c-1.315,2.133 -2.602,4.544 -4.238,6.265c-2.091,2.205 -4.274,3.819 -6.13,6.315c-0.974,1.315 -2.289,2.524 -3.413,3.733c-0.903,0.975 -2.07,1.864 -3.051,2.788c-2.062,1.927 -4.33,4.174 -6.812,5.589c-2.788,1.593 -5.248,3.634 -8.121,5.191c-2.866,1.557 -5.49,1.863 -8.455,2.51c-1.487,0.32 -3.001,0.84 -4.58,1.06c-0.654,0.093 -1.358,0.071 -2.005,0.107c-0.761,0.042 -1.628,0.376 -2.311,0.412c-2.808,0.142 -5.418,0.106 -8.284,0.206c-1.942,0.064 -3.798,-0.149 -5.732,0.235c-1.785,0.363 -3.065,0.59 -4.885,0.37c-2.851,-0.348 -5.674,-0.497 -8.412,-1.301c-5.618,-1.642 -11.314,-3.022 -16.185,-6.286c-5.077,-3.413 -9.849,-6.727 -13.589,-11.527c-3.698,-4.743 -8.121,-10.162 -9.92,-15.915c-1.707,-5.497 -5.277,-10.596 -5.689,-16.37c-0.384,-5.348 0.889,-10.532 3.093,-15.396c0.939,-2.069 2.603,-4.089 4.039,-6.03c1.16,-2.482 3.371,-4.906 4.9,-7.182c0.747,-1.116 1.515,-2.211 2.247,-3.335c0.874,-1.337 1.87,-1.792 2.908,-2.88c0.725,-0.76 1.01,-1.955 1.728,-2.716c0.469,-0.483 0.981,-0.554 1.429,-0.974c1.032,-0.946 2.02,-1.835 3.044,-2.795c2.098,-1.963 4.131,-4.018 6.286,-5.952c2.14,-1.92 4.807,-3.484 7.104,-5.376c2.141,-1.757 4.416,-3.634 6.706,-5.17c4.202,-2.823 9.5,-4.693 14.478,-4.544c5.603,0.156 10.517,1.984 15.118,5.084c1.273,0.853 2.546,1.728 3.833,2.574c0.562,0.377 1.522,0.775 1.97,1.28c0.221,0.241 0.263,0.938 0.377,1.052c1.771,1.827 3.499,3.598 5.696,5.02c3.627,2.347 4.423,7.858 6.13,11.627c2.006,4.438 3.535,9.096 3.179,14.244c-0.163,2.353 -1.18,4.878 -2.012,7.125c-0.925,2.503 -3.293,4.352 -4.203,6.855c-0.562,1.564 -1.486,2.873 -2.048,4.43c-0.54,1.479 -0.725,2.346 -1.735,3.676c-0.676,0.889 -1.479,1.479 -2.226,2.197c0,0.007 -0.007,0.021 -0.014,0.028c-0.533,1.479 -0.718,2.346 -1.728,3.676c-0.889,1.166 -2.048,1.7 -2.916,2.88c-0.91,1.252 -1.636,2.006 -2.866,2.916c-4.722,3.506 -11.015,5.283 -16.768,4.238c-3.136,-0.569 -6.236,-0.199 -9.351,-0.59c-2.823,-0.349 -5.34,-1.572 -7.644,-3.122c-2.666,-1.792 -4.188,-3.577 -6.229,-5.909c-1.749,-1.998 -4.679,-2.567 -5.888,-5.12c-0.618,-1.323 -0.561,-2.78 -0.54,-4.288c0.015,-1.208 -0.462,-2.112 -0.597,-3.292c-0.298,-2.496 0.747,-4.245 2.162,-6.286c1.515,-2.183 1.614,-4.914 3.89,-6.848c0.263,-0.22 0.576,-0.369 0.875,-0.533c0.846,-1.849 1.308,-3.847 3.093,-5.369c1.557,-1.322 3.947,-1.45 5.895,-1.82c2.866,-0.554 5.376,0.448 7.687,2.027c2.005,1.358 4.174,3.05 5.07,5.454c0.825,2.211 -0.448,5.006 -2.105,6.741c-0.335,0.348 -0.982,0.832 -1.7,1.308c-0.207,1.671 -1.124,3.385 -2.276,4.594c-0.925,0.967 -4.104,3.15 -5.476,2.574c0.305,-0.825 0.163,-0.989 0.021,-1.145c1.465,-2.581 0.654,-5.162 -2.247,-5.198c-0.96,-0.007 -1.778,0.277 -2.766,0.341c-0.483,0.036 -0.917,-0.035 -1.365,-0.078c0.241,0.881 0.362,1.265 1.628,2.069c1.124,0.718 1.515,1.251 2.105,2.389c1.294,2.475 2.062,4.267 4.402,5.867c2.005,1.366 4.181,1.167 6.556,1.259c4.694,0.192 11.2,-1.28 14.962,-4.238c0.561,-0.434 1.5,-1.557 1.621,-1.742c0.185,-0.306 0.256,-1.159 0.569,-1.607c0.576,-0.832 1.01,-0.626 1.522,-1.124c0.42,-0.413 0.747,-0.967 1.124,-1.451c1.387,-2.261 0.37,-4.032 0.1,-6.613c-0.228,-2.233 1.024,-3.968 0.583,-6.386c-0.398,-2.197 -0.583,-4.551 -1.415,-6.521c-1.131,-2.666 -4.167,-2.915 -5.995,-4.956c-0.647,-0.718 -0.583,-1.259 -1.387,-1.97c-0.547,-0.491 -1.329,-0.875 -1.941,-1.287c-1.173,-0.782 -2.347,-1.572 -3.513,-2.361c-2.424,-1.65 -4.856,-2.653 -7.9,-1.707c-4.786,1.487 -9.067,4.068 -13.675,5.803c-0.725,0.27 -2.503,1.322 -3.072,1.813c-0.626,0.533 -0.811,1.265 -1.38,1.813c-0.028,0.022 -0.05,0.015 -0.078,0.036c-0.448,0.668 -0.896,1.337 -1.344,2.005c-0.384,0.569 -0.818,1.017 -1.223,1.529c-0.121,0.348 -0.27,0.697 -0.512,1.038c-0.761,1.095 -1.486,2.219 -2.233,3.328c-1.899,2.816 -4.16,4.771 -6.023,7.573c-0.064,0.093 -0.128,0.213 -0.192,0.313c-0.021,0.135 -0.036,0.263 -0.057,0.398c-0.519,2.539 -0.761,4.935 -0.967,7.602c-0.064,0.875 0.285,1.984 -0.007,2.852c-0.27,0.776 -0.867,1.224 -1.159,1.956c-0.263,0.64 -0.007,1.081 -0.171,1.742c-0.178,0.719 -0.498,1.103 -0.59,1.835c-0.064,0.547 0.142,1.095 0.071,1.692c-0.142,1.166 -0.967,2.226 -0.86,3.591c0.1,1.138 0.932,2.063 1.188,3.172c0.163,0.725 -0.086,1.372 0.149,2.112c0.178,0.548 0.854,0.974 1.067,1.586c0.533,1.501 0.007,2.795 1.18,4.025c0.96,1.01 2.68,1.323 3.612,2.347c0.718,0.782 1.145,2.304 1.842,3.015c0.213,0.213 0.867,0.668 1.038,0.91c0.107,0.149 0.975,1.372 1.067,1.472c1.351,1.429 2.489,1.159 4.039,1.934c1.337,0.675 1.707,0.661 2.987,1.045c1.479,0.433 2.531,0.768 4.11,0.86c0.882,0.043 2.368,-0.021 3.15,0.263c1.536,0.54 2.631,2.19 4.146,2.752c1.223,0.448 2.802,0.135 4.11,0.725c1.209,0.54 1.749,1.145 3.022,1.358c1.18,0.192 2.304,0.263 3.456,0.391c2.986,0.32 6.03,0.924 9.109,1.28c1.252,0.149 2.283,0.284 3.52,-0.05c1.194,-0.328 1.955,-0.989 3.164,-1.252c1.237,-0.271 2.346,-0.1 3.612,-0.235c1.223,-0.128 2.311,-0.647 3.52,-0.789c2.176,-0.256 4.771,0.555 6.677,-0.54c2.624,-1.5 4.573,-3.178 6.905,-5.084c0.611,-0.497 1.45,-1.045 1.998,-1.564c0.633,-0.591 0.889,-1.394 1.479,-1.963c0.54,-0.512 1.009,-0.277 1.557,-0.782c0.441,-0.412 0.775,-1.216 1.109,-1.728c0.455,-0.69 0.967,-1.387 1.5,-2.091c0.05,-0.107 0.128,-0.213 0.171,-0.32c0.619,-1.365 0.697,-2.46 1.572,-3.783c0.932,-1.401 0.882,-2.368 1.579,-3.762c0.413,-0.811 1.316,-1.501 1.636,-2.347c0.185,-0.484 0.114,-1.109 0.235,-1.472c0.505,-1.493 1.955,-2.517 2.51,-3.961c0.448,-1.166 0.306,-1.877 1.102,-3.086c0.946,-1.437 1.465,-2.859 1.906,-4.523c0.49,-1.856 0.256,-3.918 0.796,-5.76c0.42,-1.415 0.975,-2.915 1.515,-4.309c1.266,-3.243 1.216,-5.341 0.498,-8.619c-0.69,-3.129 0.427,-5.667 0.775,-8.711c0.356,-3.093 -1.23,-6.215 -2.624,-8.775c-1.28,-2.333 -2.481,-5.533 -4.124,-7.396c-0.782,-0.882 -1.315,-1.401 -1.87,-2.432c-0.811,-1.508 -1.01,-1.892 -1.017,-3.627c-0.029,-5.191 -2.745,-10.937 -4.715,-15.488c-1.102,-2.532 -2.738,-5.44 -4.274,-7.716c-0.91,-1.351 -1.898,-2.602 -2.574,-4.124c-0.568,-1.28 -0.391,-2.958 -0.924,-4.089c-0.278,-0.591 -1.515,-2.212 -2.027,-2.603c-0.839,-0.626 -1.102,-0.121 -1.792,-0.377c-1.145,-0.427 -2.233,-1.109 -3.051,-2.048c-1.102,-1.273 -1.955,-2.212 -3.477,-3.115c-1.301,-0.775 -2.659,-0.874 -3.975,-1.678c-2.965,-1.806 -5.184,-3.584 -8.54,-4.544c-2.759,-0.796 -5.888,-1.92 -8.747,-2.247c-2.709,-0.32 -5.703,0.178 -8.448,-0.092c-2.808,-0.277 -5.568,-1.912 -8.22,-2.652c-5.888,-1.642 -11.264,-2.887 -16.398,-5.973c-1.571,-0.946 -3.619,-1.216 -5.404,-1.65c-1.017,-0.249 -1.934,-0.825 -2.951,-1.074c-1.728,-0.413 -2.844,-0.868 -4.309,-1.899c-1.415,-0.989 -2.873,-1.031 -4.295,-1.899c-2.382,-1.45 -5.461,-2.126 -8.249,-2.908c-2.794,-0.782 -5.148,-1.429 -7.964,-1.998c-1.401,-0.284 -3.008,-0.135 -4.423,-0.284c-1.607,-0.177 -3.072,-0.697 -4.7,-0.981c-0.988,-0.178 -2.098,-0.114 -3.136,-0.306c-1.408,-0.256 -2.013,-0.96 -3.364,-1.458c-0.832,-0.306 -1.444,-0.192 -2.34,-0.555c-0.875,-0.356 -1.287,-0.619 -2.283,-0.804c-1.053,-0.2 -1.977,-0.47 -3.051,-0.612c-2.183,-0.277 -4.672,-0.768 -6.898,-0.782c-1.664,-0.014 -3.442,0.306 -5.113,0.427c-1.437,0.106 -3.001,0.462 -4.324,0.533c-1.991,0.113 -3.562,-0.036 -5.596,0.348c-2.083,0.391 -3.406,0.463 -5.397,1.195c-2.048,0.754 -4.046,0.455 -6.094,0.683c-1.991,0.221 -3.882,1.472 -5.902,1.892c-1.713,0.362 -3.356,1.166 -4.956,1.557c-1.714,0.42 -3.819,0.27 -5.575,0.313c-7.467,0.185 -14.912,1.024 -22.308,1.429c-3.79,0.206 -7.367,0.049 -11.157,0.028c-1.863,-0.007 -3.648,-0.206 -5.532,-0.085c-1.386,0.085 -2.46,0.348 -3.854,0.277c-7.033,-0.327 -13.895,0.071 -20.786,0.818c-3.441,0.37 -6.89,1.543 -10.268,2.539c-1.081,0.32 -2.24,0.626 -3.307,1.124c-1.707,0.804 -2.987,0.847 -4.708,1.444c-3.435,1.187 -6.535,3.569 -9.906,4.764c-3.35,1.18 -6.72,2.169 -10.34,2.944c-3.911,0.839 -7.488,2.055 -11.378,2.809c-1.628,0.313 -3.591,-0.384 -5.269,-0.206c-1.401,0.149 -2.624,0.697 -4.103,0.654c-3.918,-0.121 -7.744,-0.733 -11.676,-0.889c-4.231,-0.164 -8.47,-0.142 -12.658,-0.498c-7.837,-0.668 -15.566,-1.671 -23.097,-3.918c-1.316,-0.391 -2.546,-0.967 -3.904,-1.202c-0.562,-0.092 -1.187,0.036 -1.742,-0.128c-0.839,-0.241 -1.28,-0.739 -1.998,-1.173c-0.854,-0.526 -1.373,-0.448 -2.276,-0.754c-2.745,-0.931 -5.347,-3.385 -7.765,-5.013c-2.553,-1.714 -5.113,-3.435 -7.666,-5.156c-2.517,-1.693 -4.203,-3.79 -6.72,-5.49c-1.657,-1.116 -3.307,-2.24 -4.971,-3.342c-1.408,-0.931 -2.034,-1.756 -3.108,-2.972c-2.055,-2.318 -4.33,-4.309 -5.845,-7.175c-1.529,-2.887 -4.153,-5.362 -5.284,-8.398c-0.924,-2.489 -1.579,-4.978 -1.735,-7.652c-0.234,-3.947 -0.562,-7.502 0.242,-11.506c0.626,-3.115 1.792,-5.917 2.553,-8.932c0.782,-3.115 0.946,-6.358 1.906,-9.38c0.519,-1.635 1.159,-3.057 1.749,-4.629c0.491,-1.294 1.102,-2.461 1.6,-3.769c2.339,-6.13 2.695,-13.504 5.774,-19.307c0.917,-1.714 1.458,-3.456 2.503,-5.099c1.145,-1.799 1.636,-3.491 2.624,-5.276c1.785,-3.214 2.794,-6.834 4.309,-10.233c2.958,-6.656 7.78,-12.431 10.802,-19.044c1.002,-2.19 1.678,-3.946 3.036,-5.973c0.86,-1.28 1.728,-2.567 2.588,-3.847c0.598,-0.882 1.188,-1.763 1.778,-2.638c0.732,-1.088 1.465,-2.176 2.197,-3.264c1.551,-2.304 3.094,-4.608 4.644,-6.905c0.619,-1.437 0.782,-2.567 1.735,-3.961c0.789,-1.145 1.486,-2.688 2.432,-3.691c0.292,-0.306 0.548,-0.519 0.825,-0.775c0.199,-0.469 0.363,-0.924 0.711,-1.429c0.789,-1.152 1.486,-2.695 2.439,-3.691c1.23,-1.301 2.304,-1.934 3.335,-3.513c0.554,-0.846 1.088,-2.048 1.813,-2.759c0.633,-0.625 1.408,-0.846 2.027,-1.493c1.017,-1.074 1.842,-2.774 2.66,-4.018c0.917,-1.4 1.913,-1.891 3.008,-3.036c0.683,-0.704 1.067,-1.778 1.657,-2.56c0.619,-0.818 1.145,-0.989 1.849,-1.643c2.432,-2.247 4.544,-4.664 6.77,-7.068c1.92,-2.077 4.16,-3.592 5.781,-5.796c0.74,-1.016 1.664,-1.315 2.482,-2.204c0.59,-0.633 0.79,-1.323 1.458,-1.927c1.002,-0.917 1.813,-1.806 2.78,-2.752c0.306,-0.306 1.059,-0.711 1.479,-1.138c0.626,-0.618 1.202,-1.095 1.856,-1.678c0.981,-0.882 1.501,-2.084 2.425,-2.994c0.64,-0.625 1.294,-0.796 1.948,-1.813c0.448,-0.704 0.811,-1.187 1.387,-1.756c0.299,-0.299 1.067,-0.719 1.479,-1.131c0.619,-0.625 1.202,-1.095 1.856,-1.685c1.031,-0.924 1.5,-2.204 2.524,-3.143c1.23,-1.116 2.61,-2.069 3.847,-3.221c2.382,-2.226 4.864,-4.494 7.26,-6.734c2.14,-1.998 4.202,-3.505 6.286,-5.461c4.28,-4.025 8.483,-7.026 13.404,-10.347c2.475,-1.671 5.199,-2.923 7.915,-4.146c2.304,-1.038 6.102,-1.294 8.37,-0.441c1.195,0.448 3.691,2.105 4.544,3.051c0.476,0.533 0.227,1.017 0.711,1.55c0.519,0.568 1.45,0.711 1.998,1.244c1.8,1.735 3.471,3.805 4.644,5.817c1.244,2.14 1.301,4.629 1.792,7.04c0.533,2.639 2.005,4.552 2.254,7.332c0.235,2.588 0.256,5.966 -0.455,8.647c-0.419,1.579 -1.116,2.98 -1.671,4.473c-0.085,0.228 0.156,0.768 0.007,1.138c-0.292,0.754 -1.166,1.266 -1.458,2.027c-0.363,0.939 -0.114,1.408 -0.626,2.411c-0.356,0.697 -1.095,1.259 -1.401,1.984c-0.54,1.273 -0.683,2.787 -1.095,4.103c-0.953,3.058 -1.621,6.3 -2.752,9.287c-1.202,3.165 -2.567,6.543 -3.378,9.835c-0.335,1.344 -0.697,2.773 -1.124,4.089c-0.342,1.032 -0.413,1.48 -0.555,2.532c-0.163,1.28 -0.27,1.28 -0.725,2.418c-0.697,1.749 -0.911,2.801 -2.027,4.444c-0.854,1.237 -2.112,2.617 -2.731,3.975c-0.619,1.372 -0.662,2.489 -1.572,3.783c-1.095,1.572 -1.315,2.767 -2.012,4.459c-0.91,2.191 -2.766,4.594 -4.423,6.763c-1.365,2.681 -3.819,5.582 -5.497,7.936c-1.28,1.785 -3.001,2.681 -4.516,4.231c-0.555,0.569 -1.01,1.216 -1.465,1.863c-0.682,1.017 -1.372,2.041 -2.062,3.065c0,0 0,0.007 -0.007,0.007c-1.6,2.382 -3.207,4.772 -4.807,7.154c-0.021,0.036 -0.05,0.064 -0.071,0.1c-0.427,0.633 -0.853,1.266 -1.273,1.899c-0.903,1.329 -1.806,2.659 -2.695,3.996c-0.32,0.484 -0.633,0.796 -0.946,1.152c-0.135,0.32 -0.263,0.647 -0.455,0.96c-0.818,1.372 -1.82,2.659 -2.702,3.989c-0.313,0.469 -0.604,0.796 -0.91,1.152c-0.107,0.256 -0.207,0.512 -0.356,0.761c-0.818,1.365 -1.82,2.659 -2.702,3.989c-0.868,1.309 -1.629,1.991 -2.745,3.001c-1.216,1.103 -1.749,2.71 -2.972,3.812c-1.095,0.981 -2.347,1.949 -3.335,2.809c-1.188,1.031 -1.707,2.595 -2.88,3.662c-2.233,2.034 -4.495,4.082 -6.692,6.151c-4.182,3.946 -9.294,6.563 -14.258,9.045c-2.347,1.173 -4.694,2.531 -7.346,3.342c-2.617,0.796 -4.828,0.171 -7.125,-0.633c-0.69,-0.242 -1.259,-0.185 -2.048,-0.505c-0.776,-0.313 -1.48,-0.512 -2.276,-0.775c-1.387,-0.47 -2.774,-1.536 -3.947,-2.418c-1.906,-1.429 -3.143,-4.423 -3.84,-6.67c-0.505,-1.635 -0.377,-2.844 -0.043,-4.444c0.135,-0.668 0.334,-1.152 0.519,-1.82c0.086,-0.298 0.413,-1.578 0.498,-1.82c0.931,-2.524 0.775,-4.203 0.967,-6.912c0.242,-3.306 1.87,-5.653 2.887,-8.732c0.733,-2.197 0.278,-4.672 1.138,-6.933c0.96,-2.531 2.986,-4.956 4.636,-7.253c1.223,-2.346 3.129,-4.608 4.565,-6.741c0.476,-0.697 0.946,-1.408 1.422,-2.105v0c0.462,-0.697 0.939,-1.394 1.408,-2.091c0.199,-0.64 -0.114,-0.996 0.135,-1.657c0.519,-1.351 1.941,-2.795 2.752,-4.018c0.406,-0.611 0.783,-1.066 1.188,-1.5c0.008,-0.128 -0.028,-0.228 0.036,-0.384c0.512,-1.344 1.934,-2.795 2.745,-4.011c0.868,-1.309 1.607,-1.984 2.738,-3.001c0.448,-0.398 0.796,-0.91 1.159,-1.408c0.128,-0.199 0.27,-0.391 0.398,-0.59c0.107,-0.163 0.213,-0.27 0.32,-0.405c0.32,-0.504 0.633,-1.016 0.96,-1.5c0.896,-1.329 1.813,-2.652 2.688,-3.996c0.931,-1.422 1.863,-1.707 2.887,-2.88c0.96,-1.102 1.472,-2.624 2.439,-3.712c1.074,-1.201 2.205,-1.799 3.129,-3.221c1.088,-1.685 2.361,-2.915 3.762,-4.245c0.882,-0.839 2.269,-1.337 3.044,-2.041c0.598,-0.54 0.825,-1.287 1.38,-1.82c0.54,-0.512 1.017,-0.263 1.557,-0.782c0.455,-0.427 0.69,-1.174 1.131,-1.636c0.377,-0.398 0.846,-0.17 1.301,-0.604c0.726,-0.676 1.11,-1.764 1.828,-2.475c0.291,-0.292 1.081,-0.733 1.486,-1.138c0.696,-0.697 1.891,-2.453 2.908,-2.709c0.86,-0.22 3.527,-0.164 4.416,0.064c1.252,0.328 2.283,2.056 3.634,1.7c-1.5,0.05 -2.567,0.938 -3.42,2.126c-0.889,1.223 -1.864,1.792 -2.852,2.844c0.732,0.554 1.451,1.152 2.304,0.924c-1.5,0.05 -2.567,0.946 -3.42,2.126c-0.903,1.251 -1.898,1.806 -2.901,2.894c-1.003,1.081 -1.586,2.02 -2.852,2.93c-1.124,0.804 -1.928,1.736 -2.916,2.66c-0.178,0.164 -0.776,0.143 -1.06,0.42c-0.527,0.497 -0.861,1.28 -1.38,1.813c-0.654,0.669 -2.098,1.401 -2.887,2.148c-1.821,1.706 -3.719,3.157 -5.49,5.02c-1.081,1.138 -1.55,2.908 -2.624,4.046c-1.06,1.116 -2.041,1.55 -2.916,2.887c-0.726,1.109 -1.437,2.282 -2.226,3.342c-0.875,1.159 -2.041,1.721 -2.916,2.88c-0.178,0.235 -0.377,0.505 -0.569,0.754c-0.185,0.356 -0.399,0.719 -0.548,1.06c-1.152,2.652 -1.621,5.632 -2.816,8.277c-0.569,1.259 -1.728,2.482 -2.503,3.641c-0.362,0.554 -0.704,1.152 -1.102,1.678c-0.057,0.071 -0.164,0.135 -0.235,0.206c-0.05,0.121 -0.078,0.256 -0.128,0.377c-0.569,1.259 -1.728,2.482 -2.503,3.641c-0.369,0.554 -0.711,1.152 -1.109,1.678c-0.007,0.014 -0.043,0.029 -0.057,0.05c-0.455,0.683 -0.91,1.358 -1.365,2.041c-3.058,4.544 -5.383,9.807 -6.279,15.147c-0.462,2.788 -1.422,10.98 1.458,12.672c1.792,1.052 5.433,1.116 7.502,1.372c1.956,0.242 4.587,0.327 6.578,-0.192c2.752,-0.725 5.226,-2.837 7.068,-4.935c0.434,-0.498 0.612,-1.223 1.067,-1.707c0.526,-0.562 1.209,-0.726 1.735,-1.252c1.053,-1.059 1.543,-2.524 2.667,-3.534c1.309,-1.18 2.077,-2.218 3.172,-3.676c0.854,-1.138 1.984,-1.714 2.852,-2.83c0.185,-0.277 0.377,-0.555 0.562,-0.832c0.028,-0.043 0.057,-0.064 0.085,-0.1c1.344,-1.892 2.61,-3.876 3.883,-5.803c1.024,-1.543 2.141,-2.254 3.364,-3.548c0.854,-0.896 1.515,-2.325 2.212,-3.356c0.164,-0.242 0.377,-0.512 0.569,-0.768v-0.007c0.277,-0.725 0.1,-1.322 0.384,-2.076c0.213,-0.554 0.825,-1.18 1.166,-1.678c0.754,-1.102 1.493,-2.219 2.24,-3.328c0.185,-0.278 0.37,-0.548 0.555,-0.818c0.007,-0.028 0,-0.05 0.014,-0.078c0.213,-0.555 0.825,-1.18 1.159,-1.671c0.754,-1.109 1.493,-2.226 2.247,-3.335c0.747,-1.109 1.508,-2.211 2.24,-3.335c0.562,-0.853 1.166,-1.365 1.792,-1.884c0.427,-0.995 0.853,-1.984 1.401,-2.894c1.259,-2.105 2.731,-4.124 4.139,-6.151c1.472,-2.417 3.207,-4.728 4.779,-7.068c1.785,-2.653 3.769,-5.305 5.703,-7.993c0.704,-1.123 1.408,-2.254 2.012,-3.399c0.96,-1.828 1.379,-3.535 2.581,-5.291c1.002,-1.465 1.507,-2.546 2.069,-4.153c0.868,-2.475 2.93,-4.964 4.594,-7.211c0.413,-0.832 0.896,-1.649 1.458,-2.46c1.152,-2.134 1.998,-4.48 2.709,-6.756c0.775,-2.46 1.614,-5.176 1.92,-7.644c0.334,-2.787 0.327,-5.447 0.391,-8.206c0.057,-2.155 0.121,-5.007 -0.597,-7.019c-0.597,-1.678 -1.963,-2.29 -3.065,-3.442c-0.355,-0.37 -0.505,-0.995 -1.045,-1.479c-0.341,-0.305 -0.903,-0.583 -1.301,-0.853c-2.759,-1.821 -4.146,-2.489 -7.531,-2.617c-1.123,-0.043 -2.289,-0.456 -3.42,-0.42c-1.536,0.043 -2.333,0.704 -3.691,1.344c-2.823,1.337 -5.162,2.084 -7.644,4.132c-1.358,1.117 -2.489,2.169 -3.989,3.129c-1.238,0.796 -1.942,1.905 -3.172,2.709c-2.482,1.622 -5.028,2.894 -7.346,4.722c-2.88,2.261 -5.519,4.679 -8.228,7.054c-2.446,2.134 -5.305,4.189 -7.381,6.706c-2.403,2.93 -5.29,5.518 -7.573,8.569c-0.583,0.896 -1.202,1.778 -1.785,2.66c-0.014,0.028 -0.043,0.043 -0.057,0.071c-1.315,1.941 -2.631,3.89 -3.911,5.831c-1.244,1.877 -2.866,3.036 -4.167,4.807c-1.834,2.737 -3.683,5.475 -5.525,8.213c-2.24,3.335 -4.487,6.67 -6.727,10.005c-2.318,3.449 -3.747,6.969 -6.087,10.425c-1.309,1.934 -1.892,3.74 -2.916,5.788c-0.782,1.557 -2.091,3.029 -3.065,4.48c-0.214,0.313 -0.462,0.633 -0.69,0.953c-0.078,0.156 -0.135,0.305 -0.22,0.469c-0.675,1.351 -1.728,2.638 -2.638,3.904c-0.782,1.642 -1.209,3.192 -2.311,4.764c-1.308,1.863 -1.635,3.748 -2.837,5.632c-0.988,1.536 -1.621,2.809 -2.311,4.466c-0.683,1.643 -1.871,2.915 -2.788,4.423c-0.938,1.544 -1.386,3.208 -2.261,4.772c-3.022,5.391 -4.686,11.734 -6.535,17.643c-0.903,2.888 -1.742,5.91 -2.837,8.74c-0.974,2.51 -1.543,5.042 -2.361,7.609c-0.519,1.635 -1.444,2.901 -2.098,4.444c-0.569,1.337 -0.284,2.816 -0.078,4.267c0.341,2.439 0.625,4.871 0.86,7.31c0.356,3.627 0.911,7.595 1.899,11.008c0.676,2.34 1.999,4.267 2.852,6.528c0.989,2.596 1.792,5.049 3.385,7.353c0.896,1.302 1.5,1.878 2.752,2.795c1.131,0.832 1.608,2.006 2.724,2.852c2.205,1.671 4.651,3.321 7.026,4.729c2.233,1.323 4.999,1.763 7.303,2.951c5.412,2.795 11.947,2.951 17.977,3.627c6.393,0.711 13.568,2.417 20.167,1.749c2.424,-0.249 4.458,-1.116 6.94,-0.974c1.799,0.107 3.491,-0.462 5.276,-0.327c3.961,0.306 7.915,0.306 12.025,0.135c4.359,-0.185 8.406,0.078 12.715,0.071c3.186,-0.007 6.443,-0.278 9.636,-0.562c6.251,-0.562 12.914,0.121 19.108,0.562c6.314,0.448 12.472,-0.847 18.524,-1.316c1.934,-0.149 4.089,-0.889 5.966,-1.401c1.621,-0.441 3.236,-0.633 4.928,-1.003c3.563,-0.79 7.012,-1.558 10.418,-2.731c2.929,-1.002 5.994,-1.714 8.924,-2.638c1.671,-0.526 3.15,-0.988 4.793,-1.614c1.003,-0.384 1.963,-0.398 2.937,-0.953c0.84,-0.476 1.43,-1.01 2.34,-1.358c3.69,-1.401 8.135,-1.728 11.982,-2.567c3.591,-0.782 7.224,-1.813 10.844,-2.389c2.574,-0.405 5.227,-0.157 7.808,-0.505c2.546,-0.341 4.793,-0.839 7.36,-0.903c4.608,-0.121 9.515,-1.223 14.08,-0.619c8.64,1.145 17.131,2.077 25.636,4.331c7.153,1.899 14.065,4.494 21.212,6.016c3.855,0.818 7.609,2.624 11.364,3.826c3.655,1.166 7.559,1.415 11.271,2.226c4.402,0.967 8.264,2.965 12.58,4.103c3.854,1.024 7.672,2.318 11.356,3.776c2.041,0.811 4.238,1.472 6.208,2.425c1.195,0.576 2.041,1.557 3.321,2.069c0.768,0.312 1.543,0.334 2.29,0.732c3.164,1.7 6.456,2.902 9.564,4.587c1.721,0.925 3.478,1.323 5.17,2.482c1.614,1.109 3.292,2.133 4.885,3.278c2.71,1.941 4.729,4.765 7.282,6.841c1.629,1.33 2.71,2.831 4.523,4.011c1.693,1.102 2.859,2.276 4.281,3.634c2.481,2.39 4.97,4.53 7.189,7.204c4.672,5.639 9.124,11.904 12.786,18.318c1.159,2.027 1.657,4.245 2.752,6.265c0.81,1.487 1.422,2.596 2.012,4.203c1.123,3.043 2.19,6.016 3.164,9.102z" /> <path d="M643.325,262.92c-0.306,-0.285 -0.598,-0.626 -0.939,-0.811c-0.683,-0.363 -1.237,-0.377 -1.792,-0.313c0.932,0.377 1.828,0.74 2.731,1.124zM639.128,294.771c-0.619,-1.45 -1.316,-2.787 -2.617,-3.854c-2.268,-1.856 -4.132,-2.126 -6.784,-2.738c-0.476,-0.107 -0.824,-0.235 -1.18,-0.37c0.541,0.441 1.102,0.839 1.721,1.138c2.809,1.379 4.935,2.382 7.495,4.501c0.483,0.406 0.903,0.889 1.365,1.323zM337.268,61.633c0.896,0.676 1.97,1.472 2.66,2.368c0.299,0.391 0.576,0.746 0.868,1.116c-0.739,-1.45 -1.728,-3.683 -2.823,-4.686c-1.06,-0.981 -3.058,-0.732 -4.921,-0.199c1.451,0.185 3.058,0.519 4.217,1.401zM261.434,159.102c-0.847,-0.434 -2.617,-1.913 -3.236,-2.674c-1.188,-1.457 -2.105,-4.181 -2.105,-5.98c0.007,-2.126 0.028,-4.266 0.391,-6.293c0.711,-4.039 1.429,-7.516 2.773,-11.221c0.654,-1.806 1.024,-3.513 1.692,-5.362c0.74,-2.076 1.479,-4.217 2.219,-6.279c0.384,-1.067 0.597,-2.197 0.96,-3.257c0.299,-0.889 0.981,-1.436 1.28,-2.318c0.192,-0.562 0.328,-1.052 0.548,-1.6c0.143,-0.355 0.192,-0.974 0.299,-1.237c0.199,-0.498 0.398,-0.839 0.718,-1.28c0.462,-0.626 0.384,-1.116 0.604,-1.678c0.32,-0.811 0.932,-1.38 1.216,-2.219c0.185,-0.562 0.328,-1.052 0.548,-1.6c0.143,-0.362 0.192,-0.967 0.299,-1.237c0.327,-0.846 0.661,-1.564 0.96,-2.432c0.199,-0.576 0.576,-0.832 0.818,-1.351c0.327,-0.732 0.256,-1.436 0.69,-2.126c0.946,-1.522 1.273,-3.363 2.048,-5.07c0.896,-1.984 1.834,-3.882 2.574,-5.98c0.213,-0.605 0.178,-1.01 0.519,-1.586c0.334,-0.547 0.903,-1.003 1.159,-1.607c0.42,-0.967 0.448,-1.756 1.074,-2.638c0.569,-0.789 1.415,-1.657 1.806,-2.567c0.235,-0.54 0.157,-1.123 0.37,-1.678c0.248,-0.633 0.867,-1.216 1.244,-1.749c0.711,-0.995 0.811,-1.863 1.287,-2.958c0.37,-0.84 1.152,-1.593 1.657,-2.34c0.448,-0.661 0.932,-1.031 1.444,-1.422c0.313,-0.682 0.527,-1.358 0.868,-2.133c0.37,-0.839 1.152,-1.593 1.657,-2.347c0.64,-0.953 1.344,-1.23 2.112,-1.97c0.32,-0.313 0.59,-0.732 0.86,-1.152c0.121,-0.171 0.235,-0.341 0.356,-0.512c0.277,-0.462 0.548,-0.939 0.825,-1.344c1.195,-1.728 2.389,-3.456 3.577,-5.184c0.576,-0.832 1.145,-1.657 1.721,-2.489c0.903,-1.301 1.821,-2.076 2.937,-3.157c3.349,-3.257 5.653,-7.645 9.052,-10.873c1.728,-1.643 3.755,-2.973 5.291,-4.779c0.853,-1.01 1.792,-1.643 2.617,-2.752c0.747,-1.017 1.7,-1.699 2.532,-2.638c2.816,-3.164 7.409,-4.672 10.652,-7.367c0.69,-0.576 7.033,-4.053 7.993,-4.871c1.167,-0.989 2.183,-1.984 3.435,-2.923c2.304,-1.72 5.106,-2.73 7.552,-4.316c2.382,-1.528 4.416,-3.399 6.933,-4.828c3.229,-1.835 6.478,-2.453 10.041,-3.264c2.403,-0.547 4.842,-0.569 7.374,-0.327c3.086,0.306 6.229,2.198 9.337,2.93c3.072,0.718 5.667,2.403 8.462,3.797c1.465,0.725 2.418,1.116 3.755,2.24c1.586,1.323 3.179,2.631 4.772,3.947c2.425,2.006 4.892,3.094 7.31,5.092c2.453,2.033 4.907,4.067 7.353,6.101c2.326,1.92 5.44,3.811 7.268,6.229c0.604,0.797 0.725,1.323 1.5,2.02c0.655,0.576 1.252,0.874 1.771,1.628c0.349,0.498 0.462,1.138 0.754,1.664c0.704,1.251 1.664,2.297 2.496,3.477c4.744,6.727 8.47,13.981 11.94,21.426c1.856,3.975 3.392,8.099 5.092,12.174c1.578,3.776 3.527,7.339 5.07,11.115c0.583,1.429 0.548,2.759 0.939,4.16c0.462,1.685 1.792,3.399 2.119,5.07c0.761,3.982 1.01,7.772 1.707,11.804c0.647,3.719 1.017,7.26 1.209,10.816c0.192,3.598 -0.768,7.239 -0.555,10.887c0.114,1.834 0.54,3.086 0.462,4.956c-0.042,1.173 0.114,2.382 0.228,3.513c0.363,3.541 0.604,7.21 1.543,10.652c1.877,6.891 4.039,13.668 6.919,20.416c0.569,1.337 0.739,2.454 1.173,3.826c0.583,1.863 1.415,3.549 2.112,5.355c1.408,3.677 2.866,7.111 4.075,10.859c2.36,7.296 4.359,14.756 6.94,22.059c0.612,1.721 1.515,3.726 1.778,5.504c0.242,1.657 0.142,3.471 0.455,5.227c0.37,2.076 -0.035,4.238 0.498,6.236c0.555,2.048 1.551,3.918 1.643,6.108c0.086,2.126 0.512,3.428 0.932,5.554c0.412,2.083 1.116,3.569 1.749,5.532c0.42,1.309 0.683,2.923 1.124,4.345c0.504,1.664 0.874,3.477 1.5,5.084c0.832,2.162 2.176,4.452 3.228,6.5c0.512,1.01 1.095,1.835 1.657,2.809c0.526,0.917 0.91,1.244 1.55,2.005c0.64,0.775 0.775,1.401 1.351,2.133c0.924,1.18 1.77,1.586 2.517,2.88c0.547,0.96 0.896,2.055 1.415,2.972c0.853,1.507 1.848,2.794 2.588,4.309c0.661,1.337 1.116,2.937 1.884,4.231c1.536,2.582 2.973,4.701 4.686,7.211c1.713,2.51 3.441,5.326 5.596,7.26c1.28,1.152 1.856,2.56 3.243,3.669c1.451,1.159 2.261,2.119 3.264,3.691c0.583,0.924 1.437,1.664 2.027,2.588c1.038,1.621 2.034,3.541 3.442,4.821c4.601,4.182 7.68,9.081 11.285,14.372c1.629,2.382 4.082,4.636 5.355,7.296c1.245,2.596 1.913,5.632 3.186,8.185c1.344,2.695 3.484,5.44 5.198,7.915c2.077,3.008 4.466,4.7 7.14,7.111c1.195,1.066 1.778,2.36 2.937,3.42c1.358,1.244 2.496,1.828 4.025,2.56c1.124,0.548 2.126,1.422 2.93,2.425c0.476,0.605 0.128,0.996 0.988,1.643c0.526,0.398 2.41,1.18 3.036,1.294c1.187,0.213 2.602,-0.398 3.932,-0.185c1.593,0.263 3.058,0.889 4.587,1.422c2.56,0.896 5.725,1.721 8.363,2.119c4.729,0.725 10.787,1.856 15.367,0.512c1.529,-0.448 1.935,-0.355 3.563,0.036c1.116,0.27 1.763,0.647 2.83,1.173c2.247,1.109 5.504,1.443 8.028,2.069c2.766,0.683 6.094,1.401 8.69,0.242c2.553,-1.138 4.38,-2.888 7.381,-3.044c3.15,-0.164 5.021,-0.661 7.41,-2.745c1.032,-0.896 2.141,-1.828 3.236,-2.61c1.423,-1.01 3.321,-1.323 4.779,-2.29c1.308,-0.861 2.361,-1.743 3.278,-3.044c0.768,-1.095 1.451,-1.137 2.311,-1.884c1.067,-0.91 1.443,-2.588 2.567,-3.477c0.27,-0.214 0.853,-0.306 1.209,-0.612c0.633,-0.534 0.903,-1.6 1.472,-2.212c0.96,-1.045 1.835,-1.251 2.724,-2.524c0.846,-1.201 1.785,-1.557 2.759,-2.517c0.192,-0.192 0.363,-0.441 0.548,-0.654c0.241,-0.376 0.476,-0.768 0.725,-1.116c0.327,-0.462 0.91,-1.003 1.109,-1.536c0.249,-0.669 -0.135,-1.06 0.121,-1.721c0.277,-0.726 0.896,-1.181 1.18,-1.956c0.249,-0.669 0.427,-1.629 0.64,-2.347c0.825,-2.773 1.578,-5.106 1.941,-8.057c0.263,-2.141 -1.401,-4.452 -1.977,-6.635c-0.32,-1.209 -0.263,-2.404 -0.604,-3.634c-0.349,-1.259 -0.904,-2.29 -1.124,-3.563c-0.213,-1.251 0.092,-2.161 -0.064,-3.413c-0.156,-1.287 -0.654,-2.255 -1.244,-3.435c-1.444,-2.894 -3.093,-5.696 -4.48,-8.519c-0.533,-1.088 -1.002,-2.155 -1.614,-3.25c-0.654,-1.187 -1.38,-1.557 -2.304,-2.588c-0.996,-1.116 -1.302,-2.737 -2.148,-3.797c-1.053,-1.33 -2.909,-1.963 -3.954,-3.307c-0.534,-0.697 -1.024,-2.155 -1.387,-2.994c-0.661,-1.522 -1.336,-2.453 -2.268,-3.776c-0.803,-1.145 -0.931,-1.507 -2.012,-2.631c-1.259,-1.301 -1.437,-2.474 -3.193,-3.413c-0.12,-0.064 -1.514,-0.583 -1.692,-0.654c-0.27,-0.107 -0.91,-0.612 -1.18,-0.768c-0.882,-0.491 -2.375,-0.505 -3.328,-0.996c-1.244,-0.64 -2.155,-2.226 -3.392,-2.894c-1.522,-0.817 -2.467,0.029 -3.982,-0.085c-0.612,-0.05 -1.237,-0.598 -1.785,-0.626c-0.732,-0.036 -1.216,0.384 -1.92,0.405c-1.066,0.043 -2.19,-0.519 -3.228,-0.313c-1.237,0.249 -1.87,1.33 -2.837,1.778c-0.498,0.228 -1.06,0.171 -1.515,0.377c-0.619,0.284 -0.839,0.689 -1.401,1.052c-0.526,0.342 -1.01,0.206 -1.472,0.626c-0.54,0.477 -0.718,1.181 -1.301,1.643c-0.654,0.512 -1.763,0.462 -2.503,0.761c-2.268,0.896 -4.295,1.764 -6.343,2.937c-0.149,0.086 -0.306,0.157 -0.462,0.228c-1.65,2.467 -2.574,5.063 -4.288,7.559c-0.697,1.017 -1.422,2.02 -2.112,3.051c-0.185,0.278 -0.405,0.491 -0.633,0.683c-0.391,0.718 -0.732,1.451 -1.223,2.162c-0.491,0.718 -0.988,1.429 -1.479,2.14c-0.249,0.334 -0.505,0.661 -0.647,1.109c-0.22,0.683 -0.49,2.688 -0.469,3.463c0.171,4.936 -0.526,9.778 -0.078,14.82c0.285,3.207 2.062,5.312 4.409,7.239c1.124,0.925 2.247,1.856 3.371,2.788c0.583,0.49 1.216,1.152 1.842,1.55c0.931,0.597 1.379,0.391 2.247,0.832c2.468,1.245 3.805,4.125 6.571,4.523c2.034,0.292 4.182,-0.149 6.258,-0.341c2.289,-0.206 3.356,-1.877 5.404,-2.24c2.439,-0.434 4.416,0.177 5.909,-1.963c0.156,-0.298 0.391,-0.561 0.512,-0.86c0.249,-0.626 -0.092,-1.003 0.427,-1.778c0.285,-0.426 1.01,-0.711 1.202,-0.974c0.128,-0.171 0.761,-1.373 0.946,-2.034c1.216,-4.43 0.121,-11.15 -1.771,-15.666c-0.96,-2.282 -1.579,-4.451 -3.52,-6.037c-2.268,-1.856 -4.132,-2.134 -6.784,-2.738c-1.216,-0.277 -1.828,-0.512 -2.873,-1.422c-0.946,-0.818 -1.387,-0.974 -1.963,-1.01c0.121,0.263 0.256,0.505 0.341,0.789c0.313,0.981 0.355,1.848 0.718,2.78c1.095,2.816 3.662,2.923 5.404,0.818c0.192,0.1 0.384,0.192 0.996,-0.32c1.017,1.188 0.263,4.843 -0.249,6.002c-0.669,1.493 -1.899,2.916 -3.378,3.52c-0.149,0.974 -0.384,1.906 -0.597,2.382c-0.918,2.07 -2.909,4.039 -5.156,3.819c-2.446,-0.242 -4.736,-1.899 -6.67,-3.492c-2.233,-1.834 -4.039,-4.01 -4.608,-6.94c-0.391,-1.991 -1.152,-4.345 -0.562,-6.208c0.718,-2.247 2.432,-3.229 3.783,-4.651c0.021,-0.427 0.064,-0.854 0.185,-1.252c0.868,-2.723 3.236,-3.534 4.601,-5.582c1.273,-1.913 2.432,-3.385 4.743,-3.755c1.088,-0.177 2.056,0.05 3.108,-0.284c1.322,-0.419 2.588,-0.853 3.982,-0.597c2.695,0.497 4.266,3.2 6.67,4.373c2.809,1.372 4.935,2.375 7.495,4.501c2.212,1.827 4.21,3.954 5.561,6.606c1.486,2.93 2.304,6.045 3.954,8.939c3.036,5.319 3.783,11.904 2.432,17.422c-0.349,1.429 -0.747,2.332 -1.508,3.548c-0.725,1.152 -0.768,2.425 -1.465,3.591c-0.804,1.329 -1.501,1.742 -2.603,2.652c-0.028,0.021 -0.05,0.05 -0.078,0.071c-0.512,1.039 -0.675,2.148 -1.294,3.179c-0.797,1.329 -1.494,1.742 -2.596,2.645c-1.166,0.96 -1.984,2.204 -3.15,3.164c-1.87,1.543 -2.631,4.331 -4.494,5.888c-1.664,1.394 -3.52,3.051 -5.532,3.826c-4.395,1.706 -9.059,1.443 -13.703,0.654c-3.954,-0.661 -9.095,0.007 -12.494,-2.901c-2.063,-1.757 -4.253,-2.973 -6.507,-4.21c-0.142,-0.078 -0.775,0.057 -1.074,-0.092c-0.605,-0.306 -1.309,-1.131 -1.849,-1.579c-1.216,-1.024 -2.453,-2.034 -3.676,-3.051c-4.416,-3.655 -7.837,-7.958 -10.034,-13.355c-1.956,-4.807 -2.262,-10.447 -1.323,-15.275c0.512,-2.631 1.323,-5.34 2.091,-7.879c0.818,-2.731 1.209,-5.732 2.119,-8.32c0.911,-2.603 1.97,-5.127 2.923,-7.68c0.469,-1.245 0.889,-2.439 1.351,-3.691c0.199,-0.548 0.071,-1.06 0.327,-1.643c0.405,-0.903 1.351,-1.493 1.756,-2.396c0.576,-1.294 0.612,-2.382 1.465,-3.591c0.718,-1.003 1.408,-2.041 2.112,-3.058c1.351,-1.955 2.61,-4.501 4.21,-6.286c1.372,-2.069 2.666,-4.686 4.366,-6.364c3.477,-3.427 7.573,-6.023 12.423,-7.061c5.234,-1.117 11.037,1.01 16.505,1.23c5.725,0.234 12.125,3.107 17.657,5.454c5.604,2.375 10.276,6.137 15.147,10.183c4.664,3.876 7.964,9.052 11.484,14.08c1.707,2.446 2.88,5.155 4.231,7.836c0.867,1.707 1.138,3.015 1.479,4.85c0.363,1.977 1.238,3.726 1.899,5.625c0.967,2.816 1.956,5.348 2.859,8.114c0.221,0.669 0.249,1.607 0.491,2.354c0.206,0.64 0.484,1.323 0.64,1.977c0.391,1.6 0.491,3.207 0.754,4.729c0.519,3.051 1.209,5.689 0.896,8.889c-0.313,3.193 -1.202,6.13 -1.586,9.259c-0.334,2.78 -1.479,5.575 -2.418,8.085c-0.448,1.202 -0.804,2.574 -1.33,3.705c-0.647,1.408 -1.231,3.008 -2.027,4.302c-1.522,2.453 -2.141,5.006 -3.307,7.616c-0.896,1.998 -2.496,3.847 -3.868,5.646c-0.043,0.085 -0.064,0.171 -0.1,0.256c-1.067,2.383 -3.207,4.573 -4.679,6.699c-1.635,2.368 -3.641,3.847 -5.262,6.229c-0.69,1.01 -1.337,2.098 -2.084,3.058c-0.975,1.244 -2.383,1.849 -3.627,2.766c-4.089,3.029 -8.448,5.539 -12.999,7.701c-2.112,0.995 -4.495,1.529 -6.692,2.325c-2.312,0.839 -4.694,1.871 -7.076,2.411c-2.404,0.541 -5.042,0.228 -7.481,0.484c-3.221,0.348 -6.35,1.756 -9.756,1.607c-3.072,-0.136 -6.08,-0.384 -9.173,-0.676c-1.642,-0.156 -2.837,-0.462 -4.444,-0.853c-2.176,-0.533 -4.316,-0.434 -6.528,-1.031c-6.997,-1.877 -14.144,-4.551 -20.821,-7.609c-3.178,-1.458 -5.973,-3.314 -8.988,-5.099c-1.721,-1.024 -3.186,-1.849 -4.779,-3.2c-1.707,-1.45 -3.42,-2.112 -5.191,-3.349c-2.766,-1.934 -5.995,-3.15 -8.704,-5.276c-1.586,-1.245 -3.107,-2.61 -4.679,-3.89c-1.643,-1.337 -2.638,-2.944 -4.089,-4.366c-2.617,-2.582 -4.892,-5.469 -7.552,-8.1c-0.618,-0.619 -0.931,-1.366 -1.486,-2.034c-0.925,-1.109 -2.091,-1.671 -3.044,-2.681c-1.564,-1.664 -2.951,-3.626 -4.416,-5.397c-2.638,-3.2 -5.177,-6.571 -7.495,-10.055c-2.596,-3.89 -5.774,-7.125 -8.242,-11.143c-2.076,-3.399 -3.733,-7.132 -6.101,-10.368c-2.439,-3.342 -5.412,-6.514 -7.552,-10.048c-3.961,-6.543 -8.79,-12.58 -13.092,-19.044c-5.113,-7.666 -9.053,-15.68 -13.234,-23.78c-2.218,-4.28 -3.043,-9.336 -4.636,-13.852c-0.889,-2.51 -1.273,-4.828 -1.906,-7.388c-0.647,-2.603 -1.842,-5.113 -2.432,-7.73c-0.825,-3.67 -1.251,-7.474 -1.877,-11.172c-0.683,-3.961 -2.027,-8.37 -2.148,-12.324c-0.029,-0.974 0.227,-1.692 0.334,-2.631c0.128,-1.095 -0.206,-2.026 -0.242,-3.1c-0.049,-1.764 -0.192,-3.328 -0.341,-5.092c-0.263,-3.093 -0.768,-6.257 -0.953,-9.365c-0.22,-3.619 -0.817,-7.175 -1.429,-10.844c-0.292,-1.742 -0.726,-3.363 -0.932,-5.063c-0.235,-1.955 -0.377,-4.245 -0.96,-6.165c-1.813,-6.009 -2.937,-12.338 -5.646,-18.354c-2.667,-5.909 -5.718,-12.203 -7.524,-18.432c-0.925,-3.172 -1.885,-6.407 -3.051,-9.515c-1.579,-4.189 -3.292,-8.057 -4.736,-12.338c-1.358,-4.039 -2.809,-7.886 -4.537,-11.655c-0.782,-1.706 -0.896,-3.498 -1.65,-5.212c-1.046,-2.383 -1.024,-4.587 -1.7,-7.012c-1.835,-6.592 -5.973,-13.12 -8.953,-19.143c-2.809,-5.682 -5.347,-11.996 -9.806,-16.526c-1.891,-1.927 -3.299,-4.502 -5.276,-6.322c-2.119,-1.934 -4.465,-3.882 -6.748,-5.589c-1.152,-0.861 -2.361,-1.017 -3.513,-1.899c-1.273,-0.967 -1.998,-1.408 -3.477,-1.941c-2.61,-0.939 -5.064,-1.074 -7.716,-1.351c-2.297,-0.242 -4.487,-1.01 -6.791,-1.06c-3.37,-0.057 -7.068,0.44 -10.389,1.052c-2.232,0.412 -4.48,0.782 -6.748,1.088c-1.358,0.178 -11.534,0.661 -12.224,1.294c-0.797,0.725 -1.337,1.593 -2.233,2.233c-1.401,1.017 -2.851,1.856 -4.174,2.965c-1.493,1.259 -3.171,2.368 -4.757,3.499c-3.235,2.311 -6.805,4.565 -9.372,7.616c-0.746,0.889 -1.685,1.487 -2.396,2.404c-0.704,0.911 -1.174,1.963 -2.027,2.724c-0.86,0.775 -1.486,1.436 -2.19,2.396c-0.853,1.166 -1.962,1.721 -2.773,2.958c-0.74,1.117 -1.671,1.664 -2.546,2.603c-0.861,0.917 -1.487,2.197 -2.212,3.257c-0.647,0.932 -1.216,2.105 -1.984,2.923c-1.01,1.074 -1.992,1.792 -2.852,3.044c-1.536,2.24 -3.371,3.854 -4.914,6.073c-1.487,2.155 -2.966,4.302 -4.452,6.457c-0.853,1.237 -1.707,2.468 -2.56,3.705c-0.562,1.081 -0.904,2.219 -1.636,3.257c-1.216,1.721 -2.511,3.435 -3.627,5.241c-0.121,0.22 -0.192,0.448 -0.341,0.661c-0.043,0.057 -0.085,0.121 -0.128,0.178c-1.116,2.006 -1.934,4.232 -3.015,6.244c-1.017,1.891 -1.508,4.259 -2.176,6.35c-0.74,2.318 -1.529,4.586 -2.148,7.004c-0.505,1.949 -0.59,3.961 -0.917,5.988c-0.164,1.01 -0.669,1.692 -0.825,2.702c-0.185,1.223 -0.526,2.197 -0.853,3.342c-0.597,2.105 -0.412,3.882 -0.455,6.101c-0.028,1.066 -0.22,1.742 0.192,2.837c0.298,0.804 0.896,1.551 1.244,2.34c1.038,2.361 1.863,3.228 3.804,4.864c0.284,0.235 0.625,0.583 0.917,0.768c0.462,0.299 0.903,0.299 1.237,0.491c1.045,0.576 1.828,1.437 3.065,1.572c1.486,0.164 3.285,-0.37 4.636,-0.775c1.742,-0.519 3.435,-0.96 5.113,-1.678c1.487,-0.632 2.973,-1.692 4.324,-2.652c1.543,-1.11 3.221,-2.283 4.288,-3.89c1.088,-1.629 2.169,-3.926 3.684,-5.099c0.86,-0.669 1.401,-1.209 2.055,-2.169c0.775,-1.145 1.742,-1.728 2.631,-2.724c0.939,-1.039 1.735,-2.29 2.56,-3.492c0.384,-0.59 0.761,-1.223 1.159,-1.799c0.917,-1.33 1.813,-2.731 2.773,-4.039c0.399,-0.619 0.79,-1.273 1.195,-1.856c1.081,-1.571 2.091,-3.257 3.257,-4.743c0.185,-0.235 0.427,-0.427 0.633,-0.64c0.064,-0.106 0.078,-0.22 0.156,-0.334c0.505,-0.704 0.988,-1.437 1.486,-2.148c0.49,-0.719 0.995,-1.43 1.486,-2.155c0.213,-0.32 0.44,-0.86 0.732,-1.102c0.014,-0.014 0.036,-0.014 0.05,-0.028c0.078,-0.156 0.106,-0.306 0.22,-0.462c0.498,-0.711 0.988,-1.437 1.479,-2.155c0.498,-0.719 0.995,-1.43 1.486,-2.155c0.22,-0.32 0.44,-0.86 0.732,-1.102c0.405,-0.334 0.832,-0.306 1.216,-0.626c0.207,-0.171 0.363,-0.483 0.548,-0.711c0.427,-1.024 0.591,-1.898 1.252,-2.844c0.996,-1.415 2.084,-2.802 2.98,-4.288c0.491,-0.818 0.519,-1.735 1.01,-2.546c0.618,-1.024 1.059,-1.742 1.436,-2.866c0.327,-0.967 1.116,-1.565 1.493,-2.482c0.192,-0.463 0.093,-0.975 0.306,-1.444c0.178,-0.398 0.59,-0.647 0.782,-1.038c0.811,-1.657 1.451,-3.762 1.131,-5.831c-0.234,-1.493 -1.038,-3.335 -1.749,-4.672c-0.754,-1.415 -1.828,-3.975 -3.008,-5.056c-1.899,-1.749 -6.841,0.327 -8.484,1.131c-3.15,1.544 -5.838,4.082 -7.858,7.012c-0.498,0.719 -1.002,1.423 -1.486,2.148c-0.036,0.05 -0.079,0.057 -0.107,0.1c-0.121,0.156 -0.221,0.348 -0.356,0.476c-0.334,0.32 -0.725,0.569 -1.102,0.846c-0.213,0.341 -0.249,1.173 -0.505,1.6c-0.221,0.37 -0.505,0.719 -0.754,1.067c-0.519,0.746 -0.967,1.77 -1.607,2.389c-1.301,1.244 -2.972,2.083 -4.309,3.278c-0.185,0.562 -0.341,1.131 -0.661,1.671c-0.448,0.739 -0.995,1.436 -1.493,2.14c-0.605,0.846 -0.598,1.607 -1.01,2.546c-0.413,0.953 -1.408,1.586 -1.828,2.546c-0.683,1.565 -1.067,3.15 -1.643,4.729c-0.241,0.683 -0.298,1.828 -0.54,2.404c-0.192,0.455 -0.59,0.825 -0.761,1.28c-0.093,0.249 0.085,0.662 0.028,0.818c-0.305,0.853 -0.668,1.578 -0.86,2.51c-0.22,1.052 -0.647,1.621 -1.052,2.51c-0.405,0.896 -0.477,1.693 -1.017,2.539c-0.512,0.803 -0.775,1.706 -0.384,2.78c-0.114,-0.768 -0.946,-1.209 -1.586,-1.735c-0.227,0.91 -0.611,1.493 -0.981,2.318c-0.413,0.896 -0.484,1.686 -1.017,2.539c-0.512,0.803 -0.775,1.706 -0.384,2.773c-0.156,-1.009 -1.55,-1.443 -2.112,-2.268c-0.398,-0.591 -1.194,-2.461 -1.301,-3.108c-0.121,-0.761 0.654,-1.905 0.903,-2.517c0.143,-0.348 0.199,-0.981 0.299,-1.237c0.249,-0.626 0.832,-1.088 1.06,-1.714c0.142,-0.398 -0.135,-0.69 0.014,-1.024c0.17,-0.384 0.576,-0.676 0.718,-1.074c0.171,-0.469 -0.114,-0.761 0.057,-1.23c0.178,-0.484 0.59,-0.775 0.761,-1.28c0.228,-0.668 0.157,-1.735 0.434,-2.496c0.448,-1.223 0.868,-2.325 1.636,-3.385c0.64,-0.889 0.704,-1.792 1.159,-2.752c0.419,-0.868 1.244,-1.494 1.671,-2.354c0.455,-0.925 0.377,-1.629 1.01,-2.532c0.612,-0.846 1.188,-1.721 1.785,-2.574c0.583,-0.854 1.337,-1.664 1.678,-2.667c0.327,-0.974 0.541,-1.607 1.131,-2.446c0.548,-0.775 1.06,-2.027 1.771,-2.624c0.27,-0.22 0.519,-0.213 0.775,-0.284c0.093,-0.185 0.228,-0.349 0.292,-0.548c0.327,-0.967 0.548,-1.607 1.131,-2.446c0.548,-0.775 1.067,-2.027 1.771,-2.617c0.37,-0.313 0.697,-0.092 1.067,-0.405c0.363,-0.299 0.612,-0.925 0.882,-1.33c0.228,-0.334 0.463,-0.654 0.683,-0.988c0.306,-0.491 0.633,-0.911 0.96,-1.387c0.64,-0.925 1.28,-1.856 1.92,-2.788c1.137,-1.642 2.169,-3.833 3.669,-5.07c1.195,-0.995 2.901,-1.102 4.089,-1.991c1.671,-1.244 2.702,-2.795 4.743,-3.527c1.671,-0.597 2.78,-0.775 4.124,-1.856c0.128,-0.106 0.853,-0.554 1.017,-0.661c0.377,-0.249 0.626,-0.47 1.01,-0.683c0.924,-0.505 1.664,-0.803 2.844,-0.725c1.628,0.107 3.889,0.47 5.34,1.572c0.896,0.676 1.97,1.472 2.66,2.368c0.398,0.519 0.725,0.981 1.145,1.479c0.427,0.498 0.555,0.91 0.903,1.358c1.166,1.479 2.197,2.93 2.432,4.914c0.241,2.013 0.042,3.897 -0.036,5.753c-0.171,3.925 -0.384,7.978 -1.707,11.605c-0.689,1.899 -1.351,3.84 -2.012,5.767c-0.349,1.009 -1.195,1.642 -1.515,2.652c-0.263,0.846 -0.526,1.891 -0.839,2.83c-0.356,1.052 -1.223,1.7 -1.579,2.752c-0.327,0.96 -0.548,1.607 -1.131,2.446c-0.598,0.846 -1.131,1.777 -1.771,2.588c-0.327,0.412 -0.725,0.675 -1.102,0.967c-0.306,0.896 -0.533,1.536 -1.095,2.34c-0.598,0.854 -1.138,1.778 -1.771,2.596c-0.093,0.107 -0.206,0.164 -0.306,0.256c-0.356,0.527 -0.718,1.053 -1.081,1.579c-0.619,0.889 -1.23,1.778 -1.842,2.667c-0.113,0.213 -0.184,0.419 -0.348,0.647c-0.598,0.853 -1.188,1.721 -1.778,2.581c-0.655,0.945 -1.309,1.898 -1.963,2.844c-0.092,0.171 -0.206,0.313 -0.284,0.491c-0.555,1.337 -0.633,2.709 -1.408,3.911c-1.123,1.735 -2.375,4.281 -3.868,5.639c-0.043,0.085 -0.05,0.178 -0.1,0.256c-1.138,1.763 -2.403,4.352 -3.918,5.703c-0.874,0.782 -1.571,1.138 -2.261,2.183c-0.569,0.86 -1.266,1.081 -1.963,1.749c-0.689,0.669 -1.208,1.792 -1.756,2.603c-0.725,1.066 -1.33,1.401 -2.247,2.19c-0.597,0.519 -0.569,0.59 -1.337,0.924c-0.633,0.277 -0.896,0.405 -1.458,0.825c-0.711,0.526 -1.522,1.024 -2.283,1.486c-1.863,1.137 -3.627,2.673 -5.298,4.06c-1.579,1.308 -3.456,2.332 -5.127,3.527c-0.725,0.519 -1.65,0.875 -2.311,1.472c-0.369,0.342 -0.519,0.96 -0.86,1.33c-0.49,0.533 -0.86,0.433 -1.358,0.853c-0.399,0.334 -0.477,1.038 -0.875,1.372c-0.192,0.164 -0.604,0.092 -0.725,0.192c-0.789,0.64 -1.486,1.372 -2.375,1.941c-1.5,0.953 -3.662,1.515 -5.376,1.792c-1.842,0.299 -3.477,-0.412 -5.312,-0.341c-1.678,0.064 -3.278,0.448 -4.992,-0.057c-1.615,-0.484 -3.407,-1.316 -5.028,-2.283c-0.49,-0.299 -0.846,-0.932 -1.358,-1.202c-0.477,-0.249 -0.712,0.007 -1.188,-0.242z" /></svg>