<svg xmlns="http://www.w3.org/2000/svg" viewBox="0 0 877 928" width="877" height="928"><path d="M629.387,-0.004c54.58,5.264 34.038,80.615 7.074,87.137c-2.888,73.676 -25.985,132.828 -64.035,181.402c-10.338,13.086 -31.11,26.359 -24.918,49.645c7.638,-13.46 14.204,-13.089 23.102,-19.465c10.01,-21.974 23.285,-25.475 44.941,-28.551c4.376,-2.746 29.666,-19.277 55.328,-22.539c51.278,-6.38 99.477,-34.422 114.055,-46.25c-9.456,-52.584 31.858,-81.125 73.68,-57.281c18.35,15.462 30.363,67.666 -12.715,92.77c-22.966,-2.192 -17.327,1.442 -26.965,8.57c-15.278,10.524 -27.107,24.913 -39.449,41.633c-10.946,-1.442 -107.723,77.441 -148.473,77.309c-18.156,12.202 -41.261,22.404 -28.363,40.938c11.83,8.758 54.392,152.806 48.016,296.902c2.944,10.758 1.638,18.914 -7.074,23.098l-204.5,202.684l-186.664,-183.215c-23.608,-19.096 -20.229,-25.292 -21.285,-42.57c-19.794,-120.948 25.663,-235.743 62.223,-334.199l0.004,-0.008c-6.516,-3.96 -11.082,-20.366 -26.73,-21.422c-62.594,-19.466 -124.813,-92.63 -144.465,-117.734c-19.28,-3.818 -57.842,-42.01 -35.07,-74.238c7.266,-22.168 71.998,-33.109 75.68,21.473c-1.492,11.134 -1.859,10.195 6.523,18.207c10.942,9.826 35.114,17.651 49.504,29.109c10.526,8.566 10.152,6.321 24.73,7.641c20.726,7.638 43.311,-1.069 60.965,32.043c16.532,22.542 41.635,30.926 60.031,49.832c13.782,10.9 24.538,18.356 7.074,-7.074c-2.374,-8.568 -62.034,-55.516 -70.602,-96.266c-0.7,-12.9 -26.555,-33.483 -16.535,-86.949c-35.302,-26.918 -28.548,-82.43 17.836,-88.766c13.646,-1.628 61.101,16.532 31.109,76.004c6.006,9.128 21.792,12.946 20.352,30.598c8.012,31.994 36.931,53.094 58.773,80.012c35.816,30.224 66.599,28.595 94.031,5.309c12.948,-16.022 22.587,-33.683 37.863,-41.129c21.284,-32.368 31.804,-70.228 41.824,-109.164c-30.178,-19.466 -31.111,-75.492 43.125,-75.492zM0.097,357.492c73.864,81.684 139.205,73.678 206.129,90.582c-11.826,66.598 -33.674,112.055 -26.73,217.773c-20.4,9.826 -43.125,24.544 -74.609,56.586c-12.53,-85.696 -52.209,-108.794 -88.023,-140.836c6.522,-72.186 4.704,-146.235 -16.766,-224.105zM876.449,358.052c-21.656,77.822 -23.289,151.685 -16.953,224.105c-35.816,32.041 -75.489,54.957 -88.02,140.648c-31.482,-32.042 -54.209,-46.762 -74.609,-56.586c6.942,-105.534 -14.906,-151.174 -26.734,-217.586c66.972,-16.908 132.266,-9.082 206.316,-90.582z" /></svg>