<svg xmlns="http://www.w3.org/2000/svg" viewBox="0 0 832 832" width="832" height="832"><path d="M0,416v-416h832v832h-832zM802.287,416v-386.287h-772.571v772.571h772.571zM398.653,724.8c-2.243,-5.844 -72.801,-108.002 -156.795,-227.014c-83.994,-119.012 -152.718,-219.391 -152.718,-223.06c0,-3.672 28.587,-46.928 63.526,-96.129l63.526,-89.454h399.606l63.526,89.454c34.939,49.199 63.526,92.457 63.526,96.129c0,3.672 -68.723,104.048 -152.718,223.06c-83.994,119.012 -154.55,221.169 -156.795,227.014c-5.281,13.76 -29.413,13.76 -34.691,0zM461.509,481l40.795,-187.571l-43.153,-2.212c-23.733,-1.216 -62.571,-1.216 -86.304,0l-43.154,2.212l40.795,187.571c22.437,103.163 42.917,187.571 45.509,187.571c2.592,0 23.073,-84.407 45.51,-187.571zM346.644,471.713l-39.202,-178.287l-90.577,-2.087c-49.819,-1.148 -90.578,-0.038 -90.578,2.464c0,8.326 256.113,367.867 257.851,361.979c0.94,-3.182 -15.931,-86.014 -37.493,-184.073zM582.074,474.298c68.002,-96.635 123.64,-177.803 123.64,-180.371c0,-2.568 -40.762,-3.732 -90.577,-2.584l-90.577,2.087l-39.214,178.287c-21.567,98.057 -39.306,181.461 -39.423,185.343c-0.319,10.868 3.608,5.595 136.152,-182.759zM288.087,250.713c-5.922,-9.193 -23.307,-39.279 -38.637,-66.857c-15.33,-27.578 -30.696,-50.143 -34.148,-50.143c-5.201,0 -73.409,92.292 -91.96,124.429c-4.165,7.213 14.821,9.287 85.076,9.287h90.435zM495.434,261.857c-53.175,-93.827 -74.445,-128.143 -79.434,-128.143c-4.989,0 -26.259,34.316 -79.434,128.143c-1.736,3.063 34.009,5.57 79.434,5.57c45.425,0 81.17,-2.507 79.434,-5.57zM708.66,258.143c-18.551,-32.138 -86.759,-124.429 -91.96,-124.429c-3.452,0 -18.819,22.563 -34.148,50.143c-15.329,27.58 -32.715,57.663 -38.637,66.857l-10.766,16.713h90.435c70.255,0 89.238,-2.073 85.076,-9.287zM360.925,183.972l39.253,-68.828l-44.38,-2.218c-24.408,-1.22 -62.578,-1.22 -84.822,0l-40.442,2.218l41.483,72.917c22.816,40.104 43.322,71.077 45.572,68.828c2.25,-2.249 21.751,-35.061 43.339,-72.917zM563.67,182l37.928,-66.857l-44.804,-2.218c-24.642,-1.22 -62.817,-1.22 -84.833,0l-40.031,2.218l41.377,72.858c22.756,40.072 43.867,70.157 46.908,66.857c3.041,-3.3 22.598,-36.087 43.456,-72.858z" /></svg>