<svg xmlns="http://www.w3.org/2000/svg" width="1024" height="1024"><path d="M874.75 760.23h-36.621v73.243c0 40.457-32.8 73.25-73.25 73.25H142.258c-40.45 0-73.242-32.793-73.242-73.25V320.734c0-40.453 32.793-73.246 73.242-73.246h36.625v-73.254c0-40.453 32.793-73.246 73.254-73.246h622.61c40.46 0 73.253 32.79 73.253 73.246v512.743c0 40.457-32.793 73.253-73.254 73.253ZM142.258 284.11c-20.227 0-36.621 16.398-36.621 36.624v512.739c0 20.226 16.394 36.629 36.62 36.629H764.88c20.223 0 36.621-16.403 36.621-36.63V320.735c0-20.226-16.398-36.625-36.621-36.625Zm769.117-109.876c0-20.226-16.398-36.62-36.625-36.62H252.137c-20.23 0-36.625 16.394-36.625 36.62v73.254h549.37c40.446 0 73.25 32.793 73.25 73.246v402.868h36.622c20.226 0 36.621-16.399 36.621-36.625ZM618.379 577.102s4.262-36.622-36.629-36.622c-16.672 0-36.621 8.02-36.621 36.622v146.5h-73.246V503.855h146.496c-2.188 0 73.25-4.515 73.25 73.25v146.497h-73.25ZM215.512 393.98h219.746v36.63h-146.5v109.87h109.87v36.622h-109.87v109.875h146.5v36.625H215.512Zm0 0" style="stroke:none;fill-rule:nonzero;fill:#000;fill-opacity:1"/></svg>