<svg xmlns="http://www.w3.org/2000/svg" viewBox="0 0 881 880" width="881" height="880"><path d="M402.954,25.686c1.605,-2.449 3.321,-4.84 5.094,-7.177c2.449,-3.18 4.869,-6.668 8.078,-9.005c2.309,-1.689 5.18,-3.773 7.995,-4.363c0.872,-0.173 1.744,-0.028 2.616,-0.226c3.434,-0.759 6.249,-3.432 9.766,-4.164c3.321,-0.732 6.193,-0.31 9.541,-0.31c3.264,-0.022 6.866,-1.016 10.132,0.053c5.179,1.688 10.132,3.997 15.31,5.6c4.813,1.463 9.258,3.8 13.03,7.43c3.772,3.66 7.514,7.375 11.398,10.893c6.474,5.854 9.287,14.184 7.487,22.739c-0.874,4.108 -0.366,7.374 0.309,11.54c0.872,5.541 -0.255,11.398 -1.886,16.603c-1.043,3.292 -2.422,6.445 -2.562,10.019c-0.308,7.824 -1.097,17.617 -5.938,23.893c-2.476,3.206 -4.165,7.006 -6.839,10.046c-2.702,3.096 -5.853,5.911 -8.809,8.752c-6.473,6.22 -13.367,9.175 -21.952,11.117c-7.01,1.548 -14.072,3.773 -21.193,4.701c-4.701,0.59 -9.737,0.984 -14.044,-1.83c-3.575,-2.337 -5.039,-5.489 -6.896,-9.26c-2.083,-4.221 -5.911,-6.501 -9.343,-9.343c-3.687,-3.068 -7.148,-6.473 -9.683,-10.693c-6.716,-11.343 -8.047,-27.975 -6.641,-40.583c0.311,-3.039 1.239,-6.107 0.901,-9.061c-0.337,-3.012 0.448,-5.01 1.238,-7.881c1.013,-3.63 1.858,-7.402 2.956,-10.976c0.507,-1.66 1.153,-2.082 2.026,-3.348c1.183,-1.69 1.492,-3.743 2.393,-5.602c1.661,-3.32 3.518,-6.501 5.517,-9.568z" /> <path d="M398.425,222.181c-8.528,3.041 -4.136,1.879 -2.533,1.773c2.42,-0.201 5.15,0 7.598,0c5.571,0 11.115,0 16.66,0c3.574,0 6.586,0.223 10.075,0.7c5.15,0.731 10.891,0.201 16.126,0.201c5.178,0 10.357,0 15.535,0c5.744,0.027 9.205,-1.239 14.636,-2.758c5.123,-1.406 9.54,-0.984 12.214,2.702c1.771,2.477 0.729,7.121 0.42,9.823c-2.193,19.08 -4.164,38.977 -2.813,58.17c0.534,7.317 1.321,14.608 2.138,21.897c0.508,4.53 0.788,9.061 0.928,13.592c0.62,17.196 1.408,34.279 2.364,51.446c0.14,2.616 -0.368,4.558 -0.788,7.063c-1.181,7.121 0.199,15.03 0.845,22.178c1.434,16.209 3.632,32.362 4.052,48.658c0.31,12.384 -0.253,23.585 -3.574,35.546c-2.701,9.653 -5.319,17.815 -6.192,27.974c-2.252,26.455 -2.475,53.894 0.901,80.405c1.603,12.692 3.238,26.061 3.602,38.809c0.365,12.159 -3.405,23.641 -3.687,35.658c-0.392,16.238 0.338,32.393 0.536,48.603c0.11,10.358 -0.085,21.222 -2.028,31.437c-1.182,6.305 -4.052,11.96 -5.713,18.097c-2.168,7.993 -0.027,15.422 0.393,23.443c0.253,5.178 -0.449,10.357 -0.14,15.534c0.281,5.039 1.632,9.991 1.717,15.058c0.086,5.852 2.42,11.34 1.886,17.249c-0.422,5.01 -2.646,9.401 -3.658,14.101c-0.512,2.28 0.557,4.898 0.106,7.205c-0.253,1.379 -1.181,2.753 -1.406,3.772c-0.647,3.01 -0.48,6.359 -0.282,9.483c-4.11,-3.264 -2.787,-10.018 -4.392,-14.326c-1.07,-2.786 -2.252,-4.728 -2.927,-7.711c-0.789,-3.574 -1.012,-8.019 -2.476,-11.229c-2.336,-5.095 -5.686,-9.851 -7.881,-15.112c-2.364,-5.603 -3.741,-12.386 -5.233,-18.266c-2.251,-9.034 -3.236,-17.957 -6.359,-26.848c-1.716,-4.898 -4.025,-9.204 -6.136,-13.903c-1.407,-3.125 -1.883,-6.333 -1.83,-9.766c0.197,-8.444 -2.082,-16.689 -3.828,-24.992c-2.111,-9.905 -7.149,-22.289 -6.078,-32.448c0.928,-8.866 4.418,-16.352 2.954,-25.695c-0.62,-3.742 -1.386,-7.288 -1.492,-11.117c-0.177,-5.234 0.64,-10.637 0.021,-15.873c-0.507,-4.053 -2.026,-7.288 -3.405,-11.089c-4.448,-12.467 -5.742,-26.312 -6.699,-39.456c-0.338,-4.755 0.113,-9.54 -0.169,-14.296c-0.339,-5.854 -2.589,-10.442 -4.391,-15.873c-4.249,-12.777 -2.195,-25.414 -2.841,-38.697c-0.593,-12.018 -5.067,-22.148 -9.598,-33.069c-6.896,-16.519 -7.682,-34.39 -7.909,-52.064c-0.282,-21.417 0,-42.863 0.564,-64.279c0.251,-10.667 1.009,-21.418 0.956,-32.084c0,-3.435 -0.76,-6.53 -1.21,-9.879c-0.847,-6.361 1.152,-12.637 0.983,-19.054c-0.309,-11.226 -4.7,-21.923 -5.713,-33.067c-0.929,-10.074 0.45,-20.151 1.717,-30.113c0.591,-4.84 1.57,-9.907 1.464,-14.747c-0.112,-5.573 -4.474,-20.432 1.971,-22.767z" /> <path d="M292.371,211.88c0.254,0 0.507,-0.138 0.79,-0.171c4.307,-0.7 8.697,-1.039 13.029,-1.774c3.491,-0.615 7.007,-1.857 10.188,-3.376c5.067,-2.393 10.639,-3.433 15.957,-5.263c6.811,-2.336 14.719,-3.098 20.544,-7.375c4.728,-3.489 11.455,-4.783 17.056,-6.387c8.189,-2.338 16.493,-4.024 24.569,-6.868c7.317,-2.591 14.493,-4.813 22.12,-6.415c4.897,-1.013 9.175,-2.785 13.818,-4.588c3.631,-1.408 6.923,-1.381 10.751,-1.886c5.798,-0.733 11.54,-2.758 17.139,-4.448c6.783,-2.026 12.973,-1.659 19.813,-2.42c7.486,-0.817 14.296,-3.209 21.952,-3.321c2.871,-0.032 5.967,0.337 8.865,-0.14c3.405,-0.534 6.586,-2.393 10.104,-2.195c2.616,0.14 4.868,1.717 7.514,1.971c2.195,0.196 4.307,-0.478 6.389,-1.013c11.425,-2.954 24.88,-5.573 34.448,-12.27c3.348,-2.337 7.43,-2.646 11.285,-3.433c3.801,-0.76 7.092,-1.971 10.666,-3.321c1.717,-0.678 6.22,-2.281 8.414,-1.436c1.802,0.703 1.632,1.913 2.308,3.433c1.436,3.209 4.727,6.135 5.431,9.541c0.872,4.363 -0.106,9.483 0.309,13.959c0.42,4.728 1.381,9.372 1.83,14.072c0.928,9.571 0.76,20.123 -1.238,29.467c-0.534,2.533 -0.873,4.954 -0.846,7.569c0,0.902 0.507,2.674 -0.14,3.405c-0.788,0.871 -6.811,0.201 -7.796,0.171c-5.545,0 -10.751,1.295 -16.209,1.943c-3.912,0.447 -7.74,0.254 -11.596,1.097c-10.722,2.279 -20.938,5.938 -31.857,7.487c-8.781,1.266 -17.534,2.589 -26.286,3.94c-9.879,1.547 -19.869,1.547 -29.748,2.926c-17.167,2.335 -33.744,9.062 -50.573,13.143c-2.589,0.615 -5.178,1.408 -7.738,2.251c-7.853,2.561 -15.846,6.079 -24.204,6.501c-5.094,0.254 -10.046,-1.464 -15.143,-1.154c-7.458,0.51 -13.339,5.346 -20.432,7.177c-6.501,1.632 -13.199,2.166 -19.813,3.348c-4.981,0.902 -9.795,2.194 -14.886,2.336c-6.812,0.171 -13.283,2.307 -19.983,1.942c-3.378,-0.171 -6.586,0.786 -9.598,2.308c-2.055,1.039 -4.643,2.87 -6.978,3.265c-2.449,0.424 -4.194,-0.871 -6.304,-1.942c-3.912,-1.943 -8.358,-4.167 -10.665,-7.994c-1.408,-2.365 -0.451,-3.548 0.309,-6.222c0.872,-3.039 0.675,-7.542 2.223,-10.271c0.619,-1.039 1.266,-0.924 1.886,-1.972c0.817,-1.408 0.956,-3.912 1.379,-5.515c1.857,-7.09 3.968,-14.128 6.136,-21.165c1.183,-3.771 0.984,-7.824 4.813,-8.921z" /> <path d="M128.214,242.802c1.603,-2.448 3.32,-4.841 5.094,-7.176c2.448,-3.18 4.868,-6.67 8.078,-9.005c2.307,-1.689 5.18,-3.768 7.993,-4.363c0.874,-0.117 1.745,-0.022 2.618,-0.223c3.434,-0.76 6.248,-3.43 9.766,-4.163c3.321,-0.732 6.192,-0.308 9.541,-0.308c3.263,-0.106 6.895,-1.069 10.131,0c5.179,1.688 10.133,3.997 15.311,5.6c4.812,1.464 9.258,3.8 13.029,7.43c3.773,3.659 7.514,7.375 11.398,10.892c6.474,5.854 9.289,14.185 7.487,22.74c-0.873,4.108 -0.366,7.374 0.309,11.538c0.872,5.543 -0.255,11.4 -1.886,16.605c-1.042,3.291 -2.421,6.444 -2.561,10.019c-0.309,7.823 -1.098,17.616 -5.938,23.892c-2.477,3.207 -4.166,7.007 -6.84,10.046c-2.7,3.095 -5.853,5.912 -8.807,8.753c-6.473,6.221 -13.367,9.174 -21.952,11.117c-7.01,1.548 -14.074,3.767 -21.193,4.701c-4.7,0.59 -9.739,0.984 -14.016,-1.83c-3.601,-2.336 -5.064,-5.489 -6.923,-9.259c-2.082,-4.221 -5.91,-6.5 -9.343,-9.343c-3.714,-3.068 -7.148,-6.473 -9.681,-10.694c-6.716,-11.342 -8.049,-27.975 -6.641,-40.582c0.311,-3.04 1.239,-6.107 0.901,-9.063c-0.336,-3.011 0.449,-5.009 1.239,-7.88c1.011,-3.631 1.857,-7.403 2.954,-10.976c0.507,-1.661 1.154,-2.083 2.026,-3.348c1.183,-1.69 1.493,-3.746 2.393,-5.603c1.661,-3.319 3.518,-6.501 5.517,-9.568z" /> <path d="M123.81,440.741c10.187,-0.933 21.923,-0.37 31.66,1.009c5.15,0.711 10.893,0.201 16.126,0.201c5.177,0 10.357,-0.106 15.536,0c5.742,0.027 9.203,-1.238 14.634,-2.758c5.123,-1.435 9.54,-1.014 12.214,2.703c1.774,2.447 0.732,7.092 0.423,9.821c-2.195,19.054 -4.166,38.977 -2.815,58.144c0.534,7.344 1.321,14.635 2.139,21.924c1.21,10.806 1.125,21.445 1.125,32.278c0,19.336 1.603,39.12 0.62,58.399c-0.28,5.993 -2.224,13.508 -3.912,19.249c-2.645,9.033 -5.263,17.871 -6.501,27.243c-1.182,8.668 -1.436,17.309 -3.153,25.807c-1.122,5.714 0,12.413 -0.053,18.266c-0.057,7.403 -0.562,15.056 -2.279,22.289c-2.055,8.723 -3.574,17.757 -6.558,26.229c-1.577,4.474 -4.136,8.444 -4.982,13.114c-0.732,4.194 -0.303,8.725 -0.282,12.946c0.022,3.321 -0.142,6.698 0.14,10.019c-0.816,-4.701 -3.518,-8.81 -4.503,-13.509c-0.873,-4.223 -0.591,-8.471 -1.182,-12.721c-0.87,-6.135 -3.206,-13.313 -5.205,-19.081c-2.478,-7.26 -5.882,-14.155 -8.331,-21.416c-2.534,-7.572 -2.111,-15.199 -1.971,-23.051c0.199,-13.004 2.591,-29.327 -5.487,-40.611c-2.702,-3.772 -7.851,-6.783 -9.962,-10.891c-3.352,-6.445 -3.181,-14.636 -3.745,-21.671c-1.546,-19.785 -5.938,-39.034 -7.063,-58.961c-0.704,-12.942 -1.015,-25.946 -1.971,-38.864c-1.041,-13.79 -4.952,-27.103 -6.952,-40.723c-1.463,-9.935 -3.575,-17.954 -8.808,-26.651c-5.011,-8.359 -20.938,-25.894 -2.42,-28.342c1.153,-0.169 2.307,-0.286 3.517,-0.392z" /> <path d="M17.633,428.948c0.254,0 0.507,-0.138 0.79,-0.171c4.307,-0.7 8.697,-1.039 13.03,-1.773c3.489,-0.615 7.007,-1.857 10.188,-3.376c5.066,-2.393 10.637,-3.433 15.957,-5.263c6.812,-2.336 14.719,-3.097 20.546,-7.374c4.727,-3.49 11.454,-4.785 17.054,-6.388c8.189,-2.336 16.493,-4.026 24.569,-6.868c7.317,-2.591 14.493,-4.813 22.12,-6.416c4.897,-1.009 9.175,-2.785 13.818,-4.587c3.631,-1.408 6.923,-1.381 10.752,-1.885c5.798,-0.733 11.539,-2.758 17.139,-4.448c6.783,-2.027 12.973,-1.661 19.813,-2.42c7.486,-0.818 14.296,-3.211 21.952,-3.321c2.869,0 5.967,0.339 8.865,-0.138c3.403,-0.53 6.584,-2.393 10.102,-2.195c2.618,0.138 4.869,1.717 7.514,1.97c2.193,0.201 4.306,-0.477 6.388,-1.019c11.425,-2.953 24.88,-5.573 34.448,-12.272c3.349,-2.335 7.43,-2.646 11.286,-3.432c3.799,-0.763 7.091,-1.97 10.665,-3.322c1.717,-0.68 6.22,-2.279 8.415,-1.435c1.8,0.7 1.631,1.914 2.307,3.433c1.436,3.21 4.728,6.135 5.431,9.541c0.873,4.363 -0.106,9.483 0.309,13.958c0.423,4.728 1.381,9.372 1.83,14.072c0.928,9.569 0.76,20.122 -1.238,29.466c-0.534,2.533 -0.873,4.953 -0.845,7.57c0,0.902 0.505,2.673 -0.14,3.404c-0.79,0.871 -6.812,0.191 -7.796,0.171c-5.545,0 -10.752,1.323 -16.211,1.943c-3.912,0.447 -7.738,0.254 -11.594,1.097c-10.722,2.279 -20.939,5.938 -31.859,7.487c-8.779,1.265 -17.534,2.588 -26.286,3.939c-9.878,1.548 -19.869,1.548 -29.747,2.929c-17.167,2.335 -33.744,9.061 -50.573,13.142c-2.591,0.615 -5.179,1.406 -7.74,2.251c-7.851,2.561 -15.846,6.079 -24.204,6.501c-5.094,0.254 -10.046,-1.463 -15.141,-1.154c-7.459,0.51 -13.34,5.348 -20.433,7.176c-6.501,1.633 -13.198,2.168 -19.812,3.349c-4.982,0.902 -9.795,2.194 -14.888,2.335c-6.81,0.171 -13.283,2.308 -19.982,1.943c-3.376,-0.171 -6.584,0.786 -9.597,2.308c-2.056,1.039 -4.643,2.87 -6.979,3.265c-2.448,0.424 -4.194,-0.871 -6.304,-1.941c-3.912,-1.943 -8.358,-4.166 -10.665,-7.995c-1.408,-2.363 -0.45,-3.546 0.309,-6.22c0.873,-3.039 0.675,-7.542 2.223,-10.271c0.62,-1.039 1.267,-0.934 1.886,-1.97c0.817,-1.409 0.957,-3.913 1.381,-5.518c1.857,-7.092 3.968,-14.128 6.135,-21.164c1.183,-3.77 0.983,-7.824 4.813,-8.921z" /> <path d="M752.782,181.455c1.999,3.067 3.856,6.248 5.516,9.568c0.901,1.857 1.211,3.912 2.393,5.603c0.872,1.265 1.519,1.687 2.026,3.348c1.097,3.573 1.943,7.345 2.954,10.976c0.79,2.87 1.575,4.868 1.239,7.88c-0.338,2.956 0.59,6.023 0.901,9.062c1.408,12.608 0.075,29.24 -6.641,40.582c-2.533,4.222 -5.994,7.627 -9.681,10.696c-3.433,2.841 -7.261,5.122 -9.343,9.343c-1.857,3.771 -3.321,6.923 -6.923,9.261c-4.277,2.813 -9.316,2.42 -14.016,1.83c-7.121,-0.924 -14.183,-3.153 -21.193,-4.701c-8.585,-1.943 -15.479,-4.898 -21.952,-11.117c-2.954,-2.84 -6.107,-5.658 -8.807,-8.752c-2.674,-3.04 -4.363,-6.841 -6.84,-10.046c-4.84,-6.277 -5.629,-16.069 -5.938,-23.892c-0.14,-3.575 -1.519,-6.728 -2.561,-10.019c-1.631,-5.207 -2.758,-11.062 -1.886,-16.605c0.675,-4.164 1.182,-7.43 0.309,-11.54c-1.802,-8.555 1.013,-16.884 7.487,-22.74c3.884,-3.516 7.625,-7.232 11.398,-10.891c3.771,-3.63 8.217,-5.967 13.029,-7.43c5.178,-1.603 10.132,-3.912 15.311,-5.6c3.236,-1.069 6.868,-0.085 10.131,-0.053c3.349,0 6.22,-0.422 9.541,0.31c3.518,0.732 6.332,3.403 9.766,4.164c0.873,0.198 1.744,0.053 2.618,0.227c2.813,0.59 5.686,2.674 7.993,4.363c3.21,2.335 5.63,5.825 8.078,9.005c1.774,2.336 3.491,4.726 5.094,7.177z" /> <path d="M757.329,377.982c7.148,2.616 2.335,19.476 1.717,24.85c-1.323,11.314 -3.995,22.121 -4.25,33.659c-0.106,5.545 -2.056,9.343 -3.238,14.466c-0.928,4.023 -0.106,8.162 -0.196,12.242c-0.198,6.979 -2.674,13.199 -4.166,19.927c-1.406,6.248 -0.983,12.692 -2.898,18.885c-1.266,4.137 -3.209,7.487 -4.051,11.736c-2.028,9.964 -3.491,20.574 -4.476,30.65c-1.857,19.334 -0.733,38.782 -0.365,58.143c0.42,22.712 -4.897,43.284 -13.059,64.194c-3.376,8.612 -4.39,17.364 -4.22,26.569c0.14,6.868 0.337,13.481 -1.098,20.206c-0.703,3.266 -0.309,6.136 -0.703,9.343c-0.338,2.674 -1.83,5.01 -1.886,7.768c-0.053,3.516 1.406,11.96 -3.097,12.973c-0.42,-3.686 -2.841,-6.811 -3.939,-10.328c-1.323,-4.221 -1.154,-7.965 -1.774,-12.186c-0.703,-4.673 -3.376,-8.388 -3.489,-13.199c-0.106,-4.925 -0.563,-9.205 -1.661,-14.045c-3.489,-15.759 -8.779,-31.069 -12.439,-46.744c-2.193,-9.288 -2.954,-17.787 -6.783,-26.765c-3.518,-8.273 -7.965,-17.729 -5.6,-26.847c1.295,-4.954 1.999,-8.977 2.026,-14.24c0.198,-27.272 -1.857,-54.627 0.338,-81.868c1.125,-14.045 4.108,-27.495 3.096,-41.71c-0.703,-10.103 -2.138,-20.123 -5.149,-29.776c-2.927,-9.429 -2.898,-20.91 -8.273,-29.269c-1.661,-2.589 -3.518,-4.727 -3.828,-7.907c-0.254,-2.647 0.42,-5.603 1.999,-7.683c6.614,-8.724 19.643,-0.308 28.002,-0.361c5.178,0 10.359,0 15.536,0c5.233,0 10.976,0.53 16.125,-0.201c3.491,-0.477 6.502,-0.7 10.076,-0.7c5.543,0 11.088,0 16.659,0c2.449,0 5.179,-0.201 7.599,0c1.604,0.117 5.994,1.268 -2.533,-1.773z" /> <path d="M863.367,367.67c3.828,1.097 3.63,5.151 4.813,8.921c2.167,7.036 4.278,14.074 6.135,21.164c0.424,1.605 0.563,4.109 1.381,5.518c0.619,1.036 1.266,0.931 1.886,1.97c1.548,2.729 1.35,7.232 2.223,10.271c0.759,2.674 1.717,3.857 0.309,6.22c-2.306,3.829 -6.754,6.052 -10.666,7.995c-2.112,1.07 -3.856,2.365 -6.304,1.941c-2.336,-0.395 -4.923,-2.226 -6.979,-3.265c-3.012,-1.522 -6.22,-2.479 -9.596,-2.308c-6.7,0.365 -13.172,-1.77 -19.983,-1.941c-5.093,-0.143 -9.906,-1.436 -14.888,-2.338c-6.613,-1.181 -13.311,-1.716 -19.813,-3.348c-7.092,-1.829 -12.974,-6.667 -20.432,-7.177c-5.095,-0.309 -10.047,1.408 -15.141,1.154c-8.358,-0.422 -16.353,-3.94 -24.204,-6.501c-2.561,-0.843 -5.149,-1.636 -7.74,-2.251c-16.829,-4.081 -33.406,-10.807 -50.573,-13.142c-9.878,-1.38 -19.841,-1.38 -29.747,-2.927c-8.753,-1.351 -17.507,-2.674 -26.286,-3.939c-10.92,-1.549 -21.137,-5.208 -31.859,-7.487c-3.857,-0.843 -7.683,-0.65 -11.595,-1.097c-5.459,-0.62 -10.666,-1.943 -16.211,-1.943c-0.984,0.03 -7.006,0.7 -7.796,-0.171c-0.645,-0.73 -0.14,-2.502 -0.14,-3.404c0.028,-2.615 -0.311,-5.037 -0.845,-7.57c-1.998,-9.341 -2.166,-19.896 -1.238,-29.464c0.449,-4.701 1.408,-9.345 1.828,-14.073c0.415,-4.475 -0.564,-9.595 0.309,-13.958c0.703,-3.406 3.995,-6.331 5.431,-9.541c0.676,-1.519 0.507,-2.733 2.307,-3.433c2.195,-0.844 6.698,0.757 8.415,1.437c3.574,1.351 6.866,2.558 10.665,3.321c3.856,0.787 7.937,1.097 11.286,3.433c9.568,6.697 23.023,9.317 34.448,12.27c2.082,0.542 4.195,1.21 6.388,1.019c2.645,-0.253 4.896,-1.832 7.514,-1.97c3.516,-0.198 6.699,1.665 10.102,2.195c2.898,0.477 5.996,0.138 8.865,0.138c7.656,0.113 14.465,2.503 21.952,3.321c6.84,0.76 13.028,0.393 19.813,2.42c5.6,1.69 11.341,3.715 17.139,4.448c3.828,0.507 7.121,0.477 10.751,1.885c4.644,1.803 8.922,3.569 13.819,4.588c7.626,1.602 14.803,3.826 22.12,6.415c8.076,2.845 16.38,4.532 24.569,6.868c5.6,1.603 12.327,2.898 17.054,6.388c5.827,4.279 13.734,5.038 20.546,7.374c5.32,1.83 10.891,2.87 15.957,5.263c3.181,1.519 6.699,2.761 10.188,3.376c4.333,0.735 8.723,1.074 13.03,1.774c0.283,0.033 0.536,0.171 0.79,0.171z" /></svg>