<svg xmlns="http://www.w3.org/2000/svg" viewBox="0 0 896 1024" width="896" height="1024"><path d="M832,1024h-128v-576h-16c-26.4,0 -48,-21.6 -48,-48v-160c0,-26.4 21.6,-48 48,-48h16v-192h128v192h16c26.4,0 48,21.6 48,48v160c0,26.4 -21.6,48 -48,48h-16zM704,384h128v-128h-128zM512,832v192h-128v-192h-16c-26.4,0 -48,-21.6 -48,-48v-160c0,-26.4 21.6,-48 48,-48h16v-576h128v576h16c26.4,0 48,21.6 48,48v160c0,26.4 -21.6,48 -48,48zM384,768h128v-128h-128zM192,448v576h-128v-576h-16c-26.4,0 -48,-21.6 -48,-48v-160c0,-26.4 21.6,-48 48,-48h16v-192h128v192h16c26.4,0 48,21.6 48,48v160c0,26.4 -21.6,48 -48,48zM64,384h128v-128h-128z" /></svg>