<svg xmlns="http://www.w3.org/2000/svg" width="760" height="647" viewBox="0 0 760 647" version="1.1"><path d="M 378.632 7.250 C 378.272 10.688, 376.828 20.925, 375.421 30 C 361.495 119.863, 335.544 187.208, 305.854 210.534 C 296.411 217.953, 288.054 221.334, 277.969 221.816 C 267.161 222.333, 260.244 220.899, 250.338 216.089 C 234.115 208.210, 216.780 192.774, 198.227 169.684 C 186.570 155.177, 168.135 127.736, 156.591 107.707 C 152.241 100.159, 148.500 94.167, 148.276 94.390 C 148.053 94.614, 150.131 103.055, 152.895 113.148 C 163.510 151.917, 170.615 183.804, 175.144 213 C 177.013 225.048, 177.403 231.727, 177.447 252.500 C 177.495 275.281, 177.299 278.288, 175.239 286.374 C 165.537 324.458, 137.421 336.171, 84 324.384 C 69.467 321.178, 36.252 310.129, 15.750 301.681 C 7.087 298.111, -0 295.341, 0 295.525 C 0 295.708, 2.813 298.469, 6.250 301.659 C 110.352 398.280, 140.106 463.141, 99.795 505.579 C 84.161 522.037, 60.342 533.751, 23.725 542.989 C 15.598 545.040, 8.754 546.913, 8.515 547.152 C 8.071 547.596, 183.594 594, 185.719 594 C 186.363 594, 184.017 588.038, 180.505 580.750 C 157.223 532.445, 152.264 479.484, 166.113 427.040 C 186.775 348.793, 252.251 285.958, 331.152 268.656 C 349.875 264.550, 359.478 263.546, 380 263.546 C 407.037 263.546, 427.914 266.918, 451.848 275.153 C 577.308 318.320, 637.048 461.341, 579.495 580.750 C 575.983 588.038, 573.637 594, 574.281 594 C 576.406 594, 751.929 547.596, 751.485 547.152 C 751.246 546.913, 744.402 545.040, 736.275 542.989 C 699.658 533.751, 675.839 522.037, 660.205 505.579 C 620.685 463.974, 649.225 399.265, 747.500 307.655 C 754.650 300.990, 760.686 295.079, 760.913 294.519 C 761.140 293.958, 760.639 294.066, 759.800 294.758 C 757.179 296.921, 722.297 310.493, 704.500 316.275 C 632.349 339.714, 596.040 330.647, 584.761 286.374 C 582.701 278.288, 582.505 275.281, 582.553 252.500 C 582.597 231.825, 582.992 224.992, 584.838 213 C 589.217 184.542, 596.503 151.869, 607.105 113.148 C 609.869 103.055, 611.951 94.618, 611.733 94.399 C 611.514 94.181, 607.611 100.414, 603.058 108.251 C 570.206 164.803, 537.494 202.573, 509.662 216.089 C 499.756 220.899, 492.839 222.333, 482.031 221.816 C 471.860 221.330, 463.584 217.949, 453.855 210.305 C 424.446 187.200, 398.458 119.562, 384.579 30 C 383.172 20.925, 381.728 10.688, 381.368 7.250 C 381.009 3.813, 380.393 1, 380 1 C 379.607 1, 378.991 3.813, 378.632 7.250 M 378.633 387.250 C 377.487 398.380, 372.266 421.483, 368.039 434.126 C 355.328 472.143, 337.694 481.523, 315.733 461.950 C 308.900 455.859, 297.503 440.953, 290.008 428.303 C 287.012 423.245, 284.423 419.244, 284.256 419.411 C 284.089 419.578, 285.754 426.641, 287.955 435.107 C 295.720 464.962, 298.061 488.695, 294.445 500.874 C 289.074 518.959, 269.791 520.575, 232.750 506.043 C 227.387 503.940, 223 502.295, 223 502.388 C 223 502.481, 229.196 508.844, 236.768 516.528 C 253.055 533.056, 259.449 541.273, 265.661 553.658 C 269.437 561.188, 270.344 564.072, 270.759 569.878 C 271.205 576.107, 270.947 577.588, 268.571 582.444 C 263.790 592.217, 253.972 598.539, 235.524 603.724 C 228.569 605.679, 226.352 606.659, 227.667 607.199 C 230.849 608.504, 378.188 647, 380 647 C 381.812 647, 529.151 608.504, 532.333 607.199 C 533.648 606.659, 531.431 605.679, 524.476 603.724 C 506.028 598.539, 496.210 592.217, 491.429 582.444 C 489.053 577.588, 488.795 576.107, 489.241 569.878 C 489.656 564.072, 490.563 561.188, 494.339 553.658 C 500.551 541.273, 506.945 533.056, 523.232 516.528 C 530.804 508.844, 537 502.481, 537 502.388 C 537 502.295, 532.612 503.940, 527.250 506.043 C 505.292 514.658, 489.066 517.678, 479.357 514.960 C 472.973 513.173, 467.570 507.657, 465.555 500.874 C 461.939 488.695, 464.280 464.962, 472.045 435.107 C 474.246 426.641, 475.911 419.578, 475.744 419.411 C 475.577 419.244, 472.988 423.245, 469.992 428.303 C 462.497 440.953, 451.100 455.859, 444.267 461.950 C 422.306 481.523, 404.672 472.143, 391.961 434.126 C 387.734 421.483, 382.513 398.380, 381.367 387.250 C 381.013 383.813, 380.398 381, 380 381 C 379.602 381, 378.987 383.813, 378.633 387.250" stroke="none" fill="#34343c" fill-rule="evenodd"/></svg>