<svg xmlns="http://www.w3.org/2000/svg" viewBox="0 0 856 992" width="856" height="992"><path d="M360.885,6.333c9.837,0.704 3.555,0.468 -2.728,0c34.061,-19.386 10.173,152.567 10.665,169.391c0.289,25.834 5.002,41.79 -1.612,67.955c-5.167,19.881 -9.549,34.39 -10.499,55.719c-1.614,35.671 -3.267,71.056 -1.943,106.561c0.455,14.84 1.448,32.117 -4.216,44.89c-8.721,19.221 -44.227,41.833 -60.059,57.002c-16.163,15.5 -36.333,28.108 -47.453,49.23c-2.771,5.002 -16.493,11.945 -19.056,16.948c-4.997,9.383 1.447,15.665 -5.993,22.156c-36.786,32.613 -61.506,63.449 -86.224,109.455c-22.777,42.286 -37.45,92.509 -62.003,131.901c-10.5,16.989 -37.614,46.998 -34.722,69.112c18.269,1.78 37.945,0.832 55.719,6.948c-4.049,37.16 81.72,16.126 97.056,16.947c53.115,3.098 106.893,15.506 159.843,13.105c46.667,-1.944 99.286,6.28 144.011,-9.842c31.993,-11.656 62.83,-21.332 96.228,-26.992c31.168,-5.166 67.006,1.771 98.668,3.551c39.887,1.938 95.732,7.435 133.222,-9.842c-2.108,-10.169 -11.493,-14.552 -18.105,-23.105c-11.945,-15.502 -15.17,-35.838 -23.23,-53.115c-14.881,-31.789 -46.171,-53.117 -62.499,-84.284c-7.276,-13.724 -11.617,-33.565 -19.717,-47.454c-10.624,-18.271 -27.281,-29.886 -38.401,-47.825c-18.889,-29.679 -36.167,-56.504 -57.827,-84.116c-20.503,-25.834 -41.501,-54.727 -64.07,-78.288c-13.6,-13.559 -33.109,-20.338 -42.493,-39.103c-18.228,-36.789 1.159,-93.459 -7.729,-134.794c-8.556,-39.104 -6.779,-91.558 -4.547,-138.225c1.324,-27.612 -0.95,-72.998 0,-99.452c2.275,-55.39 23.892,-68.325 63.946,-63.615c13.723,1.779 33.109,7.236 16.948,23.893c-9.506,9.83 -25.173,-1.782 -35.506,6.608c-13.559,10.829 -12.271,32.943 -11.616,48.899c1.611,35.383 -3.062,90.109 -3.225,125.658c-0.331,42.286 3.39,82.173 10.623,123.674c4.216,24.511 1.157,62.003 11.325,82.505c10.5,20.833 21.618,35.174 38.566,48.898c11.657,9.55 20.545,29.1 29.225,41.832c14.22,20.17 46.667,27.281 59.275,49.394c45.054,78.827 54.397,109.497 78.619,146.327c25.214,38.236 44.89,67.625 76.552,102.015c29.554,32.16 14.22,56.382 36.83,95.94c5.45,9.506 -0.178,27.734 -0.833,41.459c-0.496,9.875 -6.777,17.912 -14.673,17.444c-19.884,-0.95 -40.054,-3.704 -60.102,-4.172c-36.954,-0.996 -74.403,8.999 -111.233,8.061c-38.609,-0.96 -79.116,-0.667 -118.013,3.551c-19.221,2.108 -35.051,12.938 -52.991,18.89c-19.674,6.502 -41.003,2.659 -61.175,1.171c-37.946,-2.238 -76.223,4.384 -113.341,2.438c-28.602,-1.617 -57.827,-7.44 -86.72,-8.894c-68.947,-4.179 -136.778,-10.835 -206.014,-12.111c-22.28,-0.333 -21.329,1.943 -25.669,-30.01c-5.167,-36.498 9.673,-71.056 21.618,-105.777c14.84,-42.285 44.89,-58.943 64.731,-98.004c22.28,-43.611 47.163,-82.011 72.667,-123.222c19.717,-31.621 36.004,-68.906 58.614,-97.344c23.728,-29.719 62.666,-84.947 99.164,-88.498c15.17,-27.902 10.5,-98.172 11.781,-130.785c1.777,-43.112 3.556,-81.844 11.285,-124.171c3.554,-18.89 8.103,-36.622 6.779,-56.174c-0.951,-15.005 -6.124,-30.174 -6.779,-44.559c-0.331,-11.78 4.713,-28.561 -2.563,-38.11c-7.274,-10.171 -21.659,-1.781 -31.662,-6.116c-20.172,-8.433 -11.78,-13.717 5.497,-20.502c14.054,-5.273 35.671,-13.051 47.783,-0.938z" /> <path d="M113.37,712.011c34.39,0.938 51.834,-19.84 82.175,-25.833c24.718,-5.003 36.334,20.997 62.83,19.385c10.665,-0.821 24.222,-10.662 34.225,-9.057c13.393,2.109 17.444,20.833 31.166,24.222c10.5,2.438 23.561,-3.551 34.39,-4.335c12.441,-0.821 28.066,5.952 38.897,4.335c17.113,-2.73 20.048,-16.782 34.061,-26.001c14.22,-9.174 39.269,-15.625 55.886,-16.616c45.055,-2.893 83.952,7.769 127.726,-3.551c34.39,-8.894 77.172,0.938 97.179,32.282c-19.056,18.89 -59.398,-4.172 -83.124,-6.116c-18.725,-1.78 -37.657,0.704 -56.382,-0.351c-17.733,-0.821 -35.838,-2.73 -53.902,-1.617c-26.33,1.617 -33.77,10.826 -52.991,19.717c-16.285,7.569 -36.458,4.839 -54.066,11.945c-20.833,8.225 -32.778,10.791 -58.283,10.791c-48.941,0 -97.056,-0.468 -144.054,-6.785c-19.056,-2.567 -35.342,-12.276 -54.894,-10.791c-19.386,1.276 -43.898,17.897 -61.175,15.004c-0.833,-9.221 0.621,-18.228 20.337,-26.95z" /> <path d="M670.566,639.677c6.654,1.605 -25.173,-3.34 -34.557,-4.511c-14.344,-1.617 -28.397,-2.438 -43.402,-2.438c-32.325,0 -62.994,-5.285 -94.327,-7.065c3.1,-10.209 42.949,-21.824 55.39,-23.933c32.158,-5.621 58.614,15.384 89.284,17.61z" /> <path d="M635.886,576.886c-40.714,3.551 -92.715,2.109 -131.61,-4.839c5.664,-21.99 91.392,-33.441 131.61,4.839z" /> <path d="M566.939,524.391c-22.61,-11.612 -48.941,-5.789 -73.494,-7.229c-5.788,-28.109 79.28,-38.938 85.108,-1.946z" /> <path d="M730.504,761.78c19.674,-5.043 24.511,4.005 26.95,13.062c-29.39,16.454 -44.561,16.946 -79.943,14.053c-18.725,-1.446 -103.173,3.886 -111.564,-16.782c-15.501,-37.823 151.122,-10.334 164.555,-10.334z" /> <path d="M820.239,849.91c-40.838,24.885 -69.896,16.498 -107.677,7.112c-35.838,-9.171 -78.951,0.164 -113.341,-12.113c-0.164,-4.836 2.399,-12.731 5.788,-17.113c31.662,-6.785 65.558,-4.021 98.832,-2.567c40.053,1.281 79.446,24.677 116.4,24.677z" /> <path d="M719.01,702.836c-18.558,1.617 -36.334,6.619 -55.223,4.839c-18.89,-1.777 -34.722,-11.452 -53.115,-14.053c-19.55,-2.895 -43.443,5.829 -57.331,-10.499c19.385,-5.953 36.994,-16.613 56.711,-18.393c29.513,-2.613 60.514,7.546 90.564,6.608z" /></svg>