<svg xmlns="http://www.w3.org/2000/svg" viewBox="0 0 1024 832" width="1024" height="832"><path d="M1024,256h-128v128h-128v-128h-128v-128h128v-128h128v128h128z" /> <path d="M961.35,412.946c23.974,30.66 45.01,63.824 62.65,99.054c-95.124,189.958 -288.69,320 -512,320c-223.318,0 -416.882,-130.042 -512,-320c95.118,-189.958 288.682,-320 512,-320c21.65,0 43.018,1.238 64.044,3.618c1.634,117.68 82.648,216.172 191.932,244.31c0.006,0.692 0.024,1.38 0.024,2.072c0,141.382 -114.62,256 -256,256c-141.384,0 -256,-114.618 -256,-256c0,-30.774 5.45,-60.268 15.412,-87.596c-3.986,2.378 -7.944,4.8 -11.862,7.3c-60.16,38.372 -111.142,89.772 -149.434,150.296c38.294,60.524 89.274,111.924 149.43,150.296c75.594,48.218 162.894,73.704 252.454,73.704c89.558,0 176.854,-25.486 252.448,-73.704c60.162,-38.374 111.144,-89.774 149.436,-150.296c-14.83,-23.442 -31.586,-45.494 -50.022,-65.972c35.216,-4.372 68.208,-15.904 97.488,-33.082zM320,416c0,53.02 42.98,96 96,96c53.02,0 96,-42.98 96,-96c0,-53.018 -42.98,-96 -96,-96c-53.02,0 -96,42.98 -96,96z" /></svg>