<svg xmlns="http://www.w3.org/2000/svg" viewBox="0 0 940 704" width="940" height="704"><path d="M271.589,690.32c1.139,-2.203 0.841,-3.646 0.905,-6.455c0.236,-1.357 0.151,-2.657 -0.236,-3.947c-0.389,-0.154 -0.687,-0.302 -0.99,-0.452c-0.841,-0.452 -1.292,-1.054 -1.357,-1.98c-0.075,-1.98 0.075,-3.947 0.602,-5.846c0.687,-3.19 1.831,-8.277 3.112,-11.39c0.538,-1.204 1.139,-1.528 1.204,-2.887c-1.831,-1.528 -3.339,-3.339 -4.48,-5.62c-1.895,-2.733 -3.723,-5.542 -5.542,-8.277c-2.81,-2.579 -4.252,-5.694 -4.328,-9.34c1.204,-4.174 2.278,-8.431 3.19,-12.679c0.302,-1.357 1.592,-4.025 1.743,-5.62c0.602,-6.682 2.355,-13.138 3.265,-19.894c0.452,-3.417 1.292,-9.266 -0.452,-12.53c-1.677,-3.19 -5.087,-4.099 -7.063,-7.212c-9.642,-15.72 -1.677,-34.018 -0.452,-50.802c0.602,-8.277 -0.236,-16.857 -0.075,-25.21c0.236,-7.671 -1.292,-13.44 -3.19,-21.036c-2.278,-9.036 -3.873,-17.539 -3.947,-26.88c0,-11.77 0.389,-22.097 3.569,-33.565c2.579,-8.959 5.923,-18.147 4.174,-27.489c-0.389,-1.98 -1.204,-4.174 -1.528,-6.228c-1.292,-8.959 -0.236,-18.606 -0.236,-27.64c0,-3.798 0.151,-7.671 0,-11.467c-0.075,-2.579 -0.602,-3.947 -1.528,-6.153c-0.905,-2.044 -0.905,-3.947 -0.905,-6.529c0.075,-9.492 -0.151,-18.907 0.905,-28.399c-3.723,-1.139 -6.228,1.831 -6.759,-3.339c-1.054,-9.492 1.054,-16.704 3.492,-25.668c1.204,-4.251 3.038,-8.658 3.646,-12.985c0.236,-1.677 0.236,-2.579 0.841,-4.405c1.139,-3.569 1.98,-5.315 -0.753,-8.431c-7.518,-8.505 -17.693,-13.44 -24.908,-22.554c2.963,-1.528 6.759,-0.687 9.19,-2.963c0.151,-1.677 0.841,-3.038 2.203,-4.174c2.13,-1.98 3.873,-4.328 5.164,-7.063c0.452,-2.203 -0.075,-4.633 0.236,-6.836c0.302,-2.278 1.357,-3.265 -0.302,-4.782c1.895,-0.99 4.099,-1.139 6.076,-1.677c-0.389,-1.743 -1.292,-3.265 -2.657,-4.405c-2.278,-2.887 -3.798,-6.153 -4.558,-9.872c-1.054,-6.228 0,-13.517 0,-19.894c0,-5.393 -0.302,-10.554 0.687,-15.795c0.538,-3.038 1.677,-5.769 1.677,-8.807c0.075,-3.112 -0.302,-5.087 1.292,-7.897c3.339,-6 8.658,-9.642 10.783,-16.555c2.044,-6.455 2.43,-12.072 0.302,-18.529c-0.753,-2.43 -1.204,-4.48 -1.743,-6.836c-0.753,-3.339 -0.687,-6.682 -1.292,-9.948c-0.905,-5.318 -4.785,-5.393 -7.29,-9.19c-1.292,-1.98 -1.292,-2.887 -0.602,-5.241c0.905,-3.265 0.905,-3.19 0.905,-7.441c-0.075,-6.988 1.443,-13.062 1.204,-19.894c-0.151,-7.137 -2.579,-13.898 -3.415,-20.96c-0.236,-2.044 0.236,-3.339 -0.99,-4.251c5.01,-3.798 11.01,-6.759 16.704,-9.266c0.905,1.831 1.677,1.528 3.492,1.592c5.923,0.302 11.997,0.389 16.555,4.934c4.707,4.707 13.514,2.963 19.593,2.885c4.252,0 9.415,0.687 13.514,-0.99c4.252,-1.743 8.047,-4.934 12.226,-6.988c12.757,-6.228 25.894,-1.831 39.108,-2.43c9.795,-0.389 20.883,-4.174 30.753,-2.579c1.528,0.236 3.265,1.139 4.86,1.443c7.972,1.528 16.022,1.443 24.073,0.452c7.595,-0.99 15.187,-2.13 22.781,-2.887c5.62,-0.602 2.13,-0.841 4.025,-0.076c5.315,2.13 9.036,5.542 15.187,5.087c4.785,-0.236 9.19,-1.677 13.973,-1.139c17.616,2.044 35.386,1.139 53.079,-0.076c7.518,-0.602 13.213,0.076 20.577,-0.236c5.846,-0.236 11.845,-2.657 17.011,0.076c4.633,2.43 11.087,2.43 16.098,2.657c6.529,0.236 13.062,-0.076 19.515,-0.076c3.798,0 8.959,-0.753 12.757,0.076c-1.743,3.265 -3.569,6.605 -5.542,9.719c6.529,-1.054 13.062,-0.905 19.667,-0.841c2.278,0 4.558,0 6.836,-0.076c6.455,-0.151 12.908,-0.076 19.441,0.236c2.352,1.831 1.592,2.504 5.01,3.723c2.81,1.054 9.415,0.389 10.631,3.798c-4.782,7.364 -11.01,13.592 -13.29,22.401c-1.443,5.62 -3.19,11.01 -3.19,16.857c0,7.063 1.357,13.973 1.357,21.11c-0.073,5.393 -0.302,10.783 0.073,16.098c0.538,7.441 1.292,14.733 3.415,21.795c1.895,5.923 4.328,13.898 4.86,20.428c0.236,3.723 -0.389,7.518 0.073,11.237c0.302,2.657 0.905,5.164 0.99,7.897c0.236,4.707 -0.841,10.327 -0.302,15.109c0.602,5.846 3.339,11.237 4.558,16.934c0.905,4.174 0.687,7.364 -0.753,11.237c-1.204,3.265 -2.352,5.769 -1.379,9.34c1.677,5.542 4.174,11.01 5.62,16.63c1.357,5.241 0.389,10.861 1.592,16.328c1.292,5.315 1.204,9.567 1.204,15.109c-0.073,11.845 0.602,23.767 -0.236,35.612c-0.753,11.087 -4.86,23.691 -0.389,34.4c2.044,5.01 3.038,10.631 1.054,16.022c-1.895,5.164 -4.707,9.795 -5.164,15.493c-0.389,5.769 2.278,8.354 4.558,13.138c1.677,3.417 1.379,6.836 1.379,10.631c0.154,6.228 -0.753,13.744 0.154,20.201c0.302,2.13 1.528,3.723 1.98,5.468c1.292,5.241 0.236,11.39 0.154,16.704c0,8.807 0,17.539 0,26.35c0,4.934 -1.292,13.213 0.452,17.92c0.602,1.592 2.278,2.203 2.963,4.174c0.538,1.592 0.154,4.782 0.154,5.923c-0.073,4.48 -0.073,8.882 0.073,13.365c0.154,3.112 0.905,5.846 1.139,8.882c0.389,4.252 -0.302,8.658 -0.073,12.908c0.236,4.405 -0.753,6.759 -3.492,10.477c-1.139,1.443 -3.646,4.174 -4.099,6.228c-1.204,5.241 3.947,16.552 6.076,20.806c1.831,3.723 1.592,5.087 1.528,9.642c0,8.047 0,16.098 0,24.073c0.073,11.695 3.873,22.932 3.569,34.702c-0.073,2.733 0.389,5.62 -0.154,8.277c-1.204,5.846 -5.087,11.39 -5.694,17.617c-0.154,2.044 0.753,3.646 0.602,5.468c-0.073,1.895 -0.841,3.492 -1.292,5.241c-0.905,3.646 -0.236,5.694 0.389,9.19c0.389,2.278 0.236,4.558 0.236,6.985c0,0.841 -0.236,2.504 0,3.339c0.236,1.139 0.99,1.139 1.292,2.278c0.154,0.687 -0.302,1.443 -0.154,2.044c0.236,0.753 0.841,1.592 0.99,2.203c1.054,4.174 0.236,9.415 0.302,13.744c-1.592,-3.115 -3.492,-5.846 -6,-7.823c-3.569,-2.81 -6.91,-4.558 -8.047,-9.567c-0.389,-1.98 -0.905,-2.355 -1.292,-3.798c-2.43,-9.492 -4.252,-20.275 -3.569,-30.145c0.302,-4.174 4.174,-9.567 2.203,-13.744c-3.569,-0.302 -7.063,0.073 -10.631,-0.073c0.905,-10.861 2.43,-21.188 2.579,-32.121c0,-1.831 0.452,-4.328 -0.236,-6.076c-0.302,-0.538 -0.687,-0.99 -0.99,-1.528c-1.139,-0.687 -1.528,-1.831 -1.054,-3.339c0.154,-3.19 -0.389,-6.302 -1.528,-9.266c-0.841,-3.339 -2.203,-6.377 -4.099,-9.19c-1.592,-3.723 -1.831,-6.302 -1.443,-10.175c0.602,-6.302 1.054,-11.997 1.054,-18.225c0,-6.302 -0.302,-12.605 0.602,-18.833c0.302,-2.278 0.389,-4.633 0.841,-6.91c0.389,-1.054 0.753,-2.203 1.204,-3.339c0.99,-3.038 0.073,-5.01 -2.81,-6c-4.252,-2.81 -5.846,-7.137 -4.86,-12.908l0.236,-11.695c0,0.302 1.292,-13.898 -2.657,-12.985c6.228,-6.076 13.44,-9.719 18.606,-17.238c-2.203,-1.743 -3.873,-1.379 -4.707,-4.558c-1.528,-5.468 -1.379,-11.313 -3.115,-16.78c-1.743,-5.542 -3.415,-11.313 -5.315,-16.63c-2.733,-7.595 -6.682,-14.352 -8.124,-22.554c-1.895,-10.631 -2.963,-21.87 0.154,-32.272c1.895,-6.377 0.538,-14.733 0.538,-21.412c0,-1.677 1.204,-12.072 -0.841,-12.757c-1.831,-10.175 -1.443,-20.577 -2.963,-30.603c-0.452,-3.112 -1.98,-5.923 -2.203,-9.113c-0.236,-2.657 0.073,-5.542 0.073,-8.277c0.073,-4.633 -1.204,-10.25 1.292,-14.2c2.81,-4.328 7.137,-9.036 8.2,-14.274c0.602,-3.038 0,-6.605 -1.357,-9.266c-2.13,-4.025 -3.947,-5.923 -4.707,-10.402c-0.602,-3.265 -1.054,-5.846 -1.054,-9.19c0.073,-2.81 0.905,-6.682 0.538,-9.266c-0.753,-1.379 -1.528,-2.657 -2.203,-4.025l-5.241,-9.719c-2.044,-4.558 -3.569,-9.036 -3.798,-14.048c-0.236,-5.393 -1.054,-10.708 -1.139,-16.25c0,-3.417 -0.389,-6.91 0.452,-10.253c1.204,-4.707 3.646,-8.807 4.252,-13.667c0.538,-4.174 0.602,-8.882 -0.302,-12.832c-1.054,-4.48 -3.646,-8.431 -4.174,-13.062c-0.154,-1.443 -0.073,-2.733 -0.302,-4.025c-1.743,-9.418 -8.047,-17.011 -11.237,-25.668c-2.044,-5.468 -2.887,-11.162 -3.947,-16.934c-0.452,-2.278 -1.528,-5.315 -1.204,-7.671c0.389,-4.099 4.099,-8.732 5.923,-12.149c-2.733,-4.025 -8.658,-7.137 -12.985,-8.732c-1.831,-0.687 -3.112,-0.236 -4.934,-0.602c-2.352,-0.452 -3.492,-2.43 -6,-2.733c-4.633,-0.452 -10.477,-0.687 -14.733,1.357c-3.492,1.677 -5.542,4.86 -9.567,4.252c-2.81,-0.389 -4.934,-1.592 -7.823,-1.592c-2.81,0.075 -5.315,0.841 -8.047,1.054c-3.646,0.302 -6.682,-1.831 -10.327,-2.43c-6.299,-1.054 -12.149,1.895 -18.069,-1.743c-4.633,-2.887 -7.897,-7.137 -13.514,-6c-1.98,0.389 -3.873,0.905 -5.769,1.204c-3.112,0.538 -5.769,2.13 -8.885,2.657c-3.265,0.538 -6.529,1.379 -9.872,1.292c-6.988,-0.075 -13.973,-0.602 -20.883,0.905c-3.947,0.905 -7.441,3.339 -11.618,4.025c-7.518,1.139 -15.493,1.443 -23.083,1.443h-20.047c-6.153,2.355 -10.935,3.038 -16.857,1.831c-4.328,-0.841 -8.732,1.357 -13.062,0.538c-1.443,-0.841 -2.963,-1.379 -4.558,-1.831c-6.302,-0.753 -12.605,-0.99 -18.907,-0.602c-6.682,0.151 -11.087,0.602 -17.39,-2.278c-3.947,-1.831 -11.39,-7.137 -15.493,-6.529c-0.389,0.302 -0.753,0.602 -1.139,0.905c-1.139,0.389 -2.203,0.452 -3.339,0.236c-2.203,0.389 -2.044,0.538 -4.174,1.895c-3.038,1.98 -6.076,2.657 -9.492,3.339c-2.657,0.538 -5.542,1.592 -7.745,2.203c-2.887,0.753 -6.682,0.753 -9.19,-0.905c-2.355,-1.592 -2.579,-3.112 -5.846,-2.657c-2.203,0.389 -3.947,1.677 -5.846,2.81c0.075,3.112 1.357,7.137 2.278,10.1c0.841,2.657 0.841,4.405 1.054,7.212c0.389,4.707 3.19,9.19 4.328,13.821c1.204,5.241 0,11.01 1.054,16.098c0.99,4.48 0.075,6.682 -1.204,10.783c-0.99,3.265 -0.753,7.137 -1.139,10.631c-0.538,5.087 0.151,10.477 -0.452,15.493c-0.602,4.174 -2.579,7.137 -2.504,11.621c0.151,8.047 0,15.944 1.204,23.919c0.389,2.81 1.443,5.393 2.044,8.124c0.602,2.579 0.538,5.468 0.905,8.124c0.302,1.895 1.139,3.873 0.602,5.769c-0.753,2.43 -6,7.063 -7.29,8.882c-0.99,1.292 -1.98,2.504 -2.355,4.099c-0.753,3.569 0.151,9.19 0.151,12.757c0,5.468 0,10.935 0,16.403c0,3.265 0.99,8.732 -0.687,11.467c1.292,1.677 2.733,3.265 3.19,5.542c-0.151,3.339 -0.151,6.682 0.151,10.026c0.389,6.682 0.753,13.29 1.139,19.97c0.602,7.29 3.038,14.733 3.415,22.021c0.075,1.139 0.151,2.887 0,3.947c-0.99,5.468 -4.099,10.631 -5.315,16.022c-0.841,3.873 -0.905,7.137 -0.687,10.935c0.075,2.355 0.602,4.558 0.905,6.91c0.99,7.063 0.302,14.733 0.302,21.795c-0.075,8.05 -0.075,12.456 2.044,20.047c1.292,4.558 1.677,4.558 1.292,8.431c-0.841,7.671 -2.278,14.427 -2.203,22.248c0,7.364 0.302,14.58 0.905,21.946c0.389,3.798 0.389,7.671 0.302,11.543c0,6.759 -3.339,12.303 -5.315,18.68c-2.278,7.137 -5.468,15.262 -5.315,22.932c0.151,7.972 -1.292,16.022 -1.204,24.073c0.075,13.44 0.905,26.805 3.492,40.019c1.204,6.228 3.723,12.605 3.723,18.982c0,3.265 0.302,5.923 0.841,9.113c0.302,2.13 0.602,4.48 0,6.529c-0.753,2.81 -2.963,4.934 -3.415,7.897c-0.236,1.139 0.075,3.265 0.075,4.174c0.151,10.026 0.151,19.894 -0.905,29.767c-0.302,3.038 -0.075,5.694 -0.075,8.732c0.236,8.58 -3.492,17.312 -6.228,25.059c-1.895,5.315 -2.203,5.62 -2.203,9.872c0.075,4.48 0,8.959 0,13.365c0,1.139 -0.151,2.504 0,3.569c0.236,1.831 0.905,2.963 1.292,4.785c0.452,2.579 0,11.467 -3.265,11.845c-0.753,-2.203 -1.677,-4.633 -2.43,-6.988c-1.054,-3.115 -0.075,-4.252 1.204,-6.759z" /> <path d="M717.788,266.524c-0.99,-5.164 2.81,-7.823 6.529,-10.477c1.677,-1.204 2.579,-2.887 4.558,-3.646c1.743,-0.602 3.417,-0.753 5.241,-1.831c3.947,-2.278 4.025,-2.81 8.431,-2.278c2.355,0.236 4.405,0.99 6.605,1.357c2.43,0.389 4.252,0 6.377,-1.357c0.687,-0.538 1.139,-1.204 1.528,-1.98c0.841,-0.236 1.677,-0.389 2.504,-0.452c12.757,-4.405 24.224,5.164 35.461,8.807c4.633,1.443 8.047,2.504 11.543,5.62c3.415,3.112 7.518,5.694 11.162,8.658c3.265,2.733 6.228,4.633 7.137,8.732c0.538,2.657 -0.073,5.315 0.389,8.047c2.43,1.292 6.988,-3.112 9.567,-3.798c2.354,3.723 8.277,4.707 11.086,7.972c1.368,1.592 0.53,2.43 2.887,3.492c4.859,2.278 10.631,3.798 15.869,5.468c4.632,1.443 8.506,4.174 13.138,5.468c7.213,1.98 17.162,3.339 24.678,1.592c2.203,-0.452 4.328,-1.677 6.378,-2.355c2.203,-0.753 1.292,0.236 3.722,-1.139c2.963,-1.743 4.482,-2.963 5.923,-5.846c2.505,-4.633 2.733,-9.34 4.405,-14.2c2.051,-5.923 1.52,-12.908 1.215,-19.134c-0.379,-8.124 -9.643,-7.671 -16.021,-10.631c-2.354,-1.139 -4.482,-2.43 -5.923,-4.558c-1.368,-1.98 -1.138,-2.733 -3.189,-4.328c-0.76,-0.602 -1.595,-0.905 -2.278,-1.592c3.722,0.151 7.595,-0.236 11.237,0.236c7.062,0.905 16.327,1.895 20.047,8.124c4.328,7.212 5.392,15.568 8.277,23.54c1.215,3.339 2.963,6.605 3.264,10.175c0.227,2.579 -0.073,5.393 -0.073,8.047c0,7.823 -0.302,14.503 -3.798,21.946c-1.822,3.873 -8.883,10.554 -13.744,11.39c-6.987,1.139 -14.657,1.054 -21.87,1.054c-1.52,0 -3.798,0.452 -5.241,0.075c-2.656,-0.602 -4.784,-2.579 -7.518,-3.415c-6.227,-1.895 -12.072,-2.657 -18.224,-4.025c-7.518,-1.592 -15.416,-1.895 -23.007,-3.569c-2.203,-0.452 -4.175,-1.054 -6.303,-1.895c-4.024,-1.379 -4.557,-2.203 -7.518,-4.785c-2.579,-2.278 -5.468,-2.355 -8.959,-2.657c-4.633,-0.452 -5.542,-2.13 -9.719,-4.405c-4.785,-2.657 -5.468,-6.91 -9.795,-10.175c-7.29,-5.617 -14.96,-8.047 -23.842,-9.948c-7.364,-1.528 -14.657,-2.13 -21.185,-6.076c-3.339,-2.044 -6.529,-4.934 -11.01,-4.174c-1.528,0.236 -1.98,1.054 -3.339,1.357c-1.443,0.302 -3.492,-0.075 -4.934,-0.075c-3.492,0 -6.988,0 -10.477,0c-4.633,0 -6.759,0.687 -10.935,2.13c-1.292,-4.099 -2.963,-6.759 -0.236,-8.505z" /> <path d="M898.253,408.927c1.368,5.467 2.505,10.324 2.203,15.944c-0.307,5.922 -4.482,7.29 -9.19,11.237c-2.203,1.822 -4.784,3.415 -7.138,4.707c-6.911,3.722 -16.707,-3.338 -23.389,-5.468c-1.141,1.443 -3.722,1.592 -5.392,2.13c-2.887,0.834 -5.165,2.422 -7.595,4.099c-2.734,1.891 -3.57,1.506 -7.062,1.204c-7.062,-0.69 -14.883,0.151 -21.719,-1.292c-3.037,-0.608 -5.393,-2.441 -7.897,-3.798c-7.822,-4.477 -16.555,-7.593 -19.365,-16.098c-2.352,-7.137 -8.654,-15.869 -15.944,-19.515c-1.068,-0.538 -2.122,-0.99 -3.112,-1.528c-4.707,-7.44 -10.783,-13.817 -19.515,-16.78c-5.012,-1.677 -9.794,-1.741 -14.352,-0.687c-0.902,0 -1.828,-0.063 -2.43,-0.452c-1.295,-0.613 -1.747,-1.97 -3.19,-2.657c-1.979,-1.076 -4.173,-1.076 -6.153,-2.13c-2.809,-1.669 -4.635,-3.415 -5.087,-6.302c-0.623,-3.34 -0.452,-8.125 0.905,-11.237c1.673,-3.953 1.824,-3.564 5.393,-4.405c1.744,-0.384 6.677,-1.219 4.934,-3.723c-1.595,-9.19 15.113,-3.792 19.441,-3.19c0.989,0.15 11.77,0.838 14.503,2.13c1.435,0.608 2.276,1.973 3.415,2.963c3.34,2.585 6.988,4.864 10.935,6.759c2.58,1.517 5.39,2.97 8.2,4.174c0.366,0.539 0.3,1.205 0.602,1.743c0.604,1.064 0.67,3.429 1.357,4.633c0.838,1.52 1.892,3.03 2.733,4.558c1.226,2.203 1.455,3.571 1.528,6.228c0.076,2.735 2.885,9.872 6.605,9.872c0.456,4.163 6.836,3.95 9.948,5.542c2.354,1.289 4.105,2.571 6,4.099c4.414,3.493 2.582,6.91 4.025,11.39c0.607,1.897 2.204,3.87 4.099,4.86c2.656,1.357 6.072,0.84 8.959,2.044c2.204,0.903 2.886,1.292 5.619,1.292c6.15,-0.075 12.223,-0.075 18.299,0c3.571,0.064 6.836,0.538 10.1,-0.99c2.429,-1.141 5.086,-3.115 7.364,-4.558c1.672,-1.063 4.327,-3.267 5.087,-5.01c0.838,-1.901 0.459,-4.023 1.368,-6.153c0.909,-2.128 1.59,-3.947 1.744,-6.302c0.305,-4.936 2.352,-9.644 1.443,-14.808c-0.227,-1.292 -1.369,-4.715 -2.278,-5.62c-0.153,-0.218 -0.607,-0.516 -1.215,-0.905c1.138,0.474 2.28,0.926 3.189,1.528c2.811,1.821 3.948,2.808 4.708,5.846c1.065,4.479 1.977,8.274 4.557,11.997c1.443,2.052 2.049,2.809 2.203,5.164c0.228,3.19 -0.305,4.102 0.53,7.441z" /> <path d="M828.471,528.052c1.676,3.418 3.647,4.175 3.72,8.2c0.163,4.406 0.163,8.96 -0.073,13.365c-0.149,4.484 -3.487,6.836 -4.174,10.861c-0.604,3.414 -0.367,7.287 -1.357,10.477c-0.912,2.646 -1.446,2.646 -4.785,4.174c-9.717,4.63 -17.313,5.081 -28.475,4.328c-5.318,-0.382 -9.567,-0.536 -14.125,-3.115c-3.113,-1.747 -6.072,-3.716 -8.959,-5.846c-4.708,-3.641 -7.828,-6.378 -9.872,-12.072c-1.295,-3.414 -0.76,-9.341 -3.19,-11.845c-1.365,-1.291 -2.8,-2.43 -4.328,-3.569c-0.833,-3.723 -1.977,-7.441 -3.72,-11.087c-4.1,-8.654 -11.542,-14.655 -20.655,-17.312c-1.747,-0.536 -3.562,-0.687 -5.393,-0.687c-2.13,-3.798 -4.185,-8.733 -1.528,-12.456c2.736,-3.652 7.369,-3.718 11.543,-4.405c0.15,-0.987 0.451,-1.892 1.204,-2.579c0.989,-0.907 8.205,-3.038 9.948,-2.887c3.419,0.23 8.353,2.365 11.543,3.569c2.744,1.056 2.659,0.992 3.798,2.887c0.761,1.216 1.751,2.581 2.504,3.873c1.214,2.126 1.586,4.096 3.417,6.076c1.744,1.977 3.95,4.025 5.542,6.228c2.345,3.19 3.637,7.137 3.873,10.935c0.298,4.178 -0.389,7.517 1.139,11.39c-1.823,10.406 4.103,22.478 17.77,22.478c7.059,0 11.995,-3.265 14.882,-7.823c1.141,0.453 2.055,0.389 3.798,-1.139c0.773,-0.602 1.443,-1.377 2.13,-2.13c2.198,-2.202 2.044,-2.582 2.044,-5.694c0.152,-4.783 2.571,-9.415 4.099,-13.973c1.076,-3.19 1.764,-5.696 1.528,-9.113c-0.149,-3.112 -1.287,-4.025 -2.579,-6.529c1.3,1.062 1.751,2.504 2.504,3.947c1.215,2.28 3.113,4.023 4.405,6.153c1.078,1.9 0.926,3.42 1.831,5.315z" /> <path d="M222.207,274.342c2.727,1.746 1.056,4.406 -0.236,8.505c-4.176,-1.443 -6.302,-2.13 -10.935,-2.13c-3.489,0 -6.985,0 -10.477,0c-1.442,0 -3.491,0.377 -4.934,0.075c-1.359,-0.325 -1.811,-1.143 -3.339,-1.379c-2.807,-0.46 -5.082,0.539 -7.212,1.743c-0.474,0 -0.99,-0.151 -1.528,-0.151c-11.544,0.153 -23.463,1.977 -33.716,7.671c-2.806,1.595 -5.001,3.948 -6.529,6.605c-2.43,1.216 -4.785,2.585 -7.063,4.328c-4.327,3.265 -5.01,7.518 -9.795,10.175c-4.177,2.361 -5.086,3.953 -9.719,4.405c-3.491,0.302 -6.38,0.379 -8.959,2.657c-2.96,2.579 -3.493,3.425 -7.518,4.782c-2.128,0.841 -4.099,1.443 -6.302,1.895c-7.591,1.674 -15.489,1.977 -23.007,3.569c-6.153,1.368 -11.997,2.13 -18.225,4.025c-2.733,0.838 -4.861,2.815 -7.518,3.417c-1.443,0.377 -3.713,-0.075 -5.241,-0.075c-7.213,0 -14.883,0.085 -21.946,-1.054c-4.782,-0.836 -11.836,-7.517 -13.667,-11.39c-3.496,-7.443 -3.798,-14.123 -3.798,-21.946c0,-2.654 -0.311,-5.468 -0.075,-8.047c0.302,-3.57 2.061,-6.836 3.265,-10.175c2.884,-7.973 3.949,-16.329 8.277,-23.541c3.036,-5.091 9.791,-6.69 15.944,-7.595c0.538,0.773 1.075,1.528 1.677,2.13c1.823,1.973 4.331,3.338 6.91,4.328c-1.294,1.285 -2.802,2.36 -4.633,3.265c-6.38,2.96 -15.633,2.507 -16.022,10.631c-0.324,6.226 -0.84,13.211 1.204,19.134c1.672,4.86 1.975,9.567 4.405,14.2c1.443,2.883 2.96,4.103 5.923,5.846c2.431,1.375 1.52,0.386 3.723,1.139c2.049,0.678 4.174,1.903 6.377,2.355c7.515,1.747 17.466,0.388 24.678,-1.592c4.633,-1.294 8.505,-4.025 13.138,-5.468c5.238,-1.67 11.009,-3.19 15.869,-5.468c2.349,-1.062 1.595,-1.9 2.887,-3.492c2.81,-3.265 8.732,-4.249 11.087,-7.972c2.582,0.686 7.137,5.09 9.567,3.798c0.464,-2.732 -0.149,-5.39 0.389,-8.047c0.909,-4.099 3.872,-5.999 7.137,-8.732c3.644,-2.964 7.745,-5.546 11.162,-8.658c3.493,-3.116 6.91,-4.177 11.543,-5.62c11.237,-3.643 22.705,-13.212 35.462,-8.807c0.827,0.063 1.663,0.216 2.504,0.452c0.389,0.776 0.841,1.442 1.528,1.98c2.125,1.379 3.947,1.768 6.377,1.379c2.2,-0.389 4.25,-1.143 6.605,-1.379c4.406,-0.532 4.484,0 8.431,2.278c1.824,1.078 3.498,1.229 5.241,1.831c1.979,0.759 2.881,2.442 4.558,3.646c3.719,2.654 7.519,5.313 6.529,10.477z" /> <path d="M206.89,360.053c-1.822,2.519 3.183,3.334 4.86,3.723c3.637,0.836 3.791,0.458 5.468,4.405c1.294,3.113 1.443,7.898 0.905,11.237c-0.531,2.885 -2.277,4.625 -5.164,6.302c-1.902,1.054 -4.181,1.054 -6.076,2.044c-1.447,0.753 -1.898,2.046 -3.19,2.733c-1.824,0.992 -5.093,0.151 -6.988,0.151c-7.293,0.227 -11.924,6.757 -17.088,11.162c-4.785,4.025 -9.946,5.314 -15.339,8.124c-7.286,3.646 -13.589,12.378 -15.944,19.441c-2.81,8.504 -11.542,11.695 -19.365,16.175c-2.504,1.368 -4.859,3.196 -7.897,3.798c-6.911,1.443 -14.656,0.605 -21.719,1.292c-3.494,0.324 -4.33,0.691 -7.063,-1.204c-2.431,-1.67 -4.71,-3.269 -7.595,-4.174c-1.67,-0.453 -4.339,-0.602 -5.393,-2.13c-6.685,2.203 -16.479,9.265 -23.389,5.542c-2.352,-1.29 -4.934,-2.876 -7.137,-4.707c-4.71,-3.947 -8.888,-5.314 -9.19,-11.237c-0.301,-5.617 0.824,-10.476 2.203,-15.944c0.84,-3.342 0.302,-4.329 0.538,-7.441c0.15,-2.354 0.687,-3.12 2.13,-5.164c2.653,-3.797 3.579,-7.592 4.633,-11.997c0.682,-3.036 1.897,-4.015 4.707,-5.846c2.584,-1.749 6.983,-2.433 9.113,-4.328c-0.984,0.077 -6.371,2.882 -7.212,3.723c-0.846,0.913 -1.967,4.328 -2.203,5.62c-0.912,5.166 1.141,9.874 1.443,14.808c0.151,2.277 0.838,4.172 1.743,6.302c0.841,2.054 0.474,4.258 1.379,6.153c0.759,1.745 3.41,3.956 5.087,5.01c2.277,1.446 4.934,3.419 7.364,4.558c3.19,1.528 6.457,1.065 10.026,0.99c6.15,-0.075 12.223,-0.075 18.299,0c2.731,0 3.491,-0.387 5.694,-1.292c2.882,-1.203 6.303,-0.687 8.882,-2.044c1.896,-0.987 3.572,-2.965 4.174,-4.86c1.443,-4.48 -0.458,-7.973 3.947,-11.39c1.977,-1.52 3.721,-2.807 6.076,-4.099c3.113,-1.595 9.483,-1.368 9.872,-5.542c3.795,0 6.607,-7.138 6.682,-9.948c0.085,-2.581 0.324,-3.947 1.528,-6.15c0.838,-1.52 1.892,-3.03 2.733,-4.558c0.604,-1.216 0.67,-3.579 1.357,-4.633c0.3,-0.539 0.213,-1.229 0.602,-1.831c2.807,-1.214 5.543,-2.571 8.2,-4.099c3.872,-1.899 7.52,-4.18 10.935,-6.759c1.06,-0.994 1.972,-2.351 3.415,-3.038c2.733,-1.203 13.513,-1.893 14.503,-2.044c4.332,-0.608 20.969,-6 19.441,3.19z" /> <path d="M204.358,504.431h0.075c-0.15,-0.302 -0.15,-0.151 -0.075,0zM215.057,521.593c-18.606,7.973 -34.401,27.488 -36.905,47.916c-2.054,3.566 -4.708,5.92 -8.431,8.807c-2.809,2.123 -5.773,4.103 -8.885,5.846c-4.558,2.577 -8.807,2.726 -14.2,3.115c-11.088,0.759 -18.758,0.305 -28.4,-4.328c-3.342,-1.52 -3.944,-1.442 -4.785,-4.099c-1.055,-3.265 -0.819,-7.138 -1.357,-10.477c-0.682,-4.099 -4.015,-6.455 -4.251,-10.935c-0.226,-4.329 -0.15,-8.96 -0.075,-13.365c0.077,-4.026 2.131,-4.783 3.723,-8.2c0.99,-1.898 0.756,-3.42 1.895,-5.315c1.29,-2.128 3.124,-3.875 4.328,-6.153c0.761,-1.368 1.3,-2.893 2.504,-3.947c-1.2,2.504 -2.343,3.417 -2.579,6.529c-0.149,3.419 0.474,5.923 1.528,9.113c1.52,4.555 4.024,9.191 4.099,13.973c0.064,3.115 -0.159,3.491 2.044,5.694c0.76,0.773 1.45,1.528 2.203,2.13c2.809,2.497 3.417,1.292 6.455,-0.236c3.039,-1.52 5.546,-2.893 8.885,-3.798c2.054,-0.599 3.716,-1.375 5.393,-2.579c3.416,-2.349 4.329,-3.265 9.036,-3.19c3.873,0.078 4.785,0.38 6.377,-3.112c1.959,-4.099 1.121,-7.594 1.357,-11.922c0.227,-3.872 1.518,-7.745 3.873,-10.935c1.673,-2.277 3.877,-4.322 5.62,-6.302c1.747,-1.977 2.135,-3.946 3.339,-6.076c0.761,-1.294 1.751,-2.669 2.504,-3.873c1.219,-1.897 1.065,-1.833 3.798,-2.887c3.187,-1.214 8.203,-3.333 11.618,-3.569c1.748,-0.153 8.894,1.98 9.948,2.885c0.75,0.684 1.064,1.589 1.139,2.579c4.179,0.682 8.886,0.834 11.543,4.48c2.434,3.266 0.99,7.667 -0.905,11.39c-0.753,0.239 -1.589,0.452 -2.43,0.841z" /></svg>