<svg xmlns="http://www.w3.org/2000/svg" viewBox="0 0 787 1003" width="787" height="1003"><path d="M568.309,326.142c-24.406,-40.206 -57.13,-74.462 -95.713,-100.265l173.116,-79.209l-77.403,179.473z" /> <path d="M566.653,671.544l79.061,183.302l-178.922,-81.858c40.24,-25.65 74.399,-60.396 99.861,-101.444z" /> <path d="M230.264,812.797c22.941,5.49 46.812,8.484 71.374,8.484c24.517,0 48.343,-2.986 71.24,-8.453l-71.3,190.828l-71.315,-190.859z" /> <path d="M301.639,173.746c-23.164,0 -45.719,2.657 -67.456,7.557l67.739,-181.303l67.798,181.449c-21.931,-4.993 -44.694,-7.703 -68.081,-7.703z" /> <path d="M607.454,572.364c5.523,-24.034 8.534,-49.072 8.534,-74.852c0,-23.238 -2.423,-45.879 -6.943,-67.731l179.071,70.978z" /> <path d="M573.245,334.582l125.903,-3.285l-91.989,90.058c-7.233,-30.894 -18.763,-60.043 -33.914,-86.773z" /> <path d="M569.583,666.84c16.08,-26.936 28.458,-56.468 36.36,-87.868l93.2,91.253l-129.56,-3.384z" /> <path d="M375.134,812.293c31.297,-7.726 60.773,-20.222 87.647,-36.783l3.33,135.355l-90.978,-98.572z" /> <path d="M463.305,219.829c-25.32,-15.673 -52.953,-27.786 -82.265,-35.642l85.417,-92.547z" /> <path d="M284.442,769.362c12.719,0 25.193,-1.171 37.363,-3.384c-113.376,-20.551 -200.072,-133.104 -200.072,-268.904c0,-135.8 86.696,-248.346 200.072,-268.904c-12.169,-2.213 -24.643,-3.384 -37.363,-3.384c-131.136,0 -237.443,121.903 -237.443,272.288c0,150.386 106.307,272.288 237.443,272.288zM163.796,494.739c0,125.041 87.327,226.401 195.054,226.401c107.719,0 195.047,-101.359 195.047,-226.401c0,-125.034 -87.328,-226.394 -195.047,-226.394c-107.726,0 -195.054,101.36 -195.054,226.394zM298.337,802.501c-164.337,0 -297.547,-137.208 -297.547,-306.46c0,-156.044 113.257,-284.753 259.715,-303.91c12.393,-1.624 25.001,-2.55 37.832,-2.55c12.824,0 25.432,0.927 37.832,2.55c146.45,19.157 259.715,147.866 259.715,303.91c0,169.252 -133.218,306.46 -297.547,306.46z" /></svg>