<svg xmlns="http://www.w3.org/2000/svg" viewBox="0 0 896 1024" width="896" height="1024"><path d="M853.806,229.076v0c37.822,51.574 42.194,76.592 42.194,90.924v624c0,44.112 -35.888,80 -80,80h-736c-44.118,0 -80,-35.888 -80,-80v-864c0,-44.112 35.888,-80 80,-80h496c14.33,0 39.35,4.374 90.924,42.194c30.292,22.214 65.7,53.174 99.704,87.178c34.004,34.004 64.97,69.412 87.178,99.704zM721.374,174.626v0c-30.696,-30.694 -58.394,-54.792 -81.374,-72.572v153.946h153.954c-17.78,-22.976 -41.88,-50.674 -72.58,-81.374zM832,320h-224c-17.68,0 -32,-14.328 -32,-32v-224c-0.044,-0.002 -496,0 -496,0c-8.672,0 -16,7.328 -16,16v864c0,8.672 7.328,16 16,16h736c8.672,0 16,-7.328 16,-16z" /> <path d="M192,512h320v320h-320z" /> <path d="M512,640l192,-128v320l-192,-128z" /></svg>