<svg xmlns="http://www.w3.org/2000/svg" viewBox="0 0 684 983" width="684" height="983"><path d="M475,375.04h10c-3.28,0 -6.72,0 -10,0z" /> <path d="M492.44,376.48h-0.48c-2.24,-0.72 -4.48,-1.44 -6.8,-1.44h24.08c-5.68,-0.16 -11.12,1.2 -16.8,1.44z" /> <path d="M682.76,526.08c0.72,4.72 0.16,9.44 -0.4,14.16c-0.48,2.88 0,6.24 -0.48,9.12c-1.12,6.24 -6.64,5.2 -10.64,6.08c-7.36,1.52 -13.84,7.04 -21.04,9.12c-3.52,1.04 -6.96,1.6 -10.4,3.12c-2.48,1.12 -4.24,0.96 -7.12,1.44c-4.32,0.64 -8.64,1.6 -12.8,3.28c-4.4,1.76 -8.8,3.44 -13.44,3.44c-6.96,-0.08 -14.56,-0.08 -19.36,6.88c-2.24,3.2 -4.24,5.84 -5.68,9.68c-2.8,7.2 -5.28,10.16 -11.84,12.56c-3.92,1.52 -7.68,1.36 -11.52,2.72c-5.44,2 -11.28,2.88 -16.8,4.24c-5.92,1.52 -11.68,3.36 -17.68,4.56c-3.36,0.72 -7.12,0.8 -10.24,2.32c-0.96,0.48 -2.08,0.88 -3.04,1.28c0,5.92 0,11.92 0,17.92c0,2.48 1.04,6.08 0,8.24c-0.96,1.84 0,1.04 -1.76,1.84c-1.2,0.48 -4.32,-0.16 -5.68,-0.16h-76.32c-5.68,2 -10.8,4.32 -16.56,5.52v24.16c0.16,-0.08 0.16,-0.24 0.16,-0.24c-0.4,2.8 0.32,6 0.48,8.32c0.24,2.88 1.44,5.44 2.64,8.24c1.84,4.08 3.2,8.4 6.4,12.24c2.16,2.56 4.72,4.8 6.4,7.52c1.92,2.88 2.72,6.16 4,9.2c2.48,5.92 6.64,12.16 11.28,17.6c8.16,9.68 10.56,21.04 16.64,31.28c4.8,8.32 10.56,16.56 17.12,24.4c5.04,5.92 7.6,12.32 12.24,18.4c2.64,3.36 5.92,6.64 8.08,10.16c1.76,3.04 2.96,5.84 5.04,8.8c4.16,5.92 7.92,12 12,18c3.36,4.88 4.72,10.08 7.44,15.04c1.68,3.2 4.08,6.4 5.44,9.68c0.96,2.48 0.8,4.96 1.76,7.44c1.04,2.72 3.12,5.12 4.88,7.68c2.96,4.08 5.6,8.24 8.24,12.4c1.92,3.04 4.8,5.76 7.28,8.64c3.36,3.84 5.84,7.92 8.64,11.84c1.76,2.48 3.36,5.2 6.08,7.36c2.08,1.68 4.8,3.68 4.8,5.92c-2.96,0.56 -6.8,0.48 -8.4,-0.96c-3.28,-2.96 -4.32,-6.32 -6.08,-9.68c-1.04,-2.16 -2.64,-4.08 -4,-6.16c-1.76,-2.56 -2.16,-5.12 -3.36,-7.76c-0.96,-2.24 -2.96,-4.32 -4.88,-6.32c-2.4,-2.56 -4,-4.96 -5.92,-7.6c-0.96,-1.44 -2.64,-2.64 -3.28,-4.16c-1.2,-3.04 -2.56,-5.68 -4.96,-8.56c-5.2,-6.08 -11.6,-11.84 -16.72,-18c-2.56,-3.04 -4.4,-6.4 -6.48,-9.52c-3.04,-4.64 -6.56,-9.04 -10.56,-13.44c-5.04,-5.6 -9.68,-11.36 -13.84,-17.28c-5.44,-7.76 -12.32,-15.12 -19.04,-22.48c-2.08,-2.24 -4.4,-4.48 -6,-6.88c-2.08,-3.04 -3.44,-6 -6.24,-8.88c-8.48,-8.96 -13.68,-19.04 -20.88,-28.32c-1.68,-2.16 -2.16,-4.56 -3.68,-6.88c-1.44,-2.16 -3.36,-4.24 -4.8,-6.48c-2.96,-4.64 -5.12,-9.52 -8.96,-13.84c-1.28,-1.44 -2.72,-2.88 -4,-4.24c0.48,2.96 1.12,4.4 2.96,7.2c2,3.04 1.44,4.8 2,7.92c0.24,0.8 0.56,1.6 0.96,2.4c0.16,1.52 0.32,3.04 0.56,4.56c0.56,1.2 1.84,1.84 2.32,3.12c0.32,1.36 -0.16,3.68 -0.64,4.8c-2.64,6.88 -10.16,9.04 -15.68,13.84c-4.08,3.52 -8.4,6.56 -12.8,9.76c-4.32,3.2 -6.64,7.44 -10.4,10.96c-2.64,2 -5.12,4.16 -7.36,6.56c-1.92,2.72 -4.08,5.12 -6.4,7.6c0.72,0.96 1.44,1.84 2.16,2.8c5.44,7.04 9.28,13.92 16.32,20.24c3.28,2.96 5.84,6.24 8.88,9.28c3.44,3.36 7.44,6.48 10.8,9.84c7.12,7.12 13.92,14.72 21.6,21.6c4.32,4 8.64,7.68 11.12,12.56c2.32,4.48 5.36,8.08 8.88,12.08c3.04,3.44 5.12,6.4 8.96,9.44c4.08,3.36 7.44,6.8 10.96,10.32c6.96,6.96 15.12,13.36 22.48,20.08c6.64,6 9.68,13.44 16.56,19.44c4.32,3.76 9.92,10 7.2,15.2c-2,0.56 -2.24,-0.72 -3.2,-1.6c-2.32,-2.16 -5.84,-3.68 -8.8,-5.28c-4.64,-2.48 -8.8,-6 -12.32,-9.28c-3.04,-2.88 -6.24,-5.84 -9.12,-8.8c-2.32,-2.4 -3.92,-4.96 -7.2,-7.04c-6.8,-4.24 -8.4,-10.24 -13.68,-15.2c-1.04,-0.8 -2.24,-1.44 -3.36,-2.24c-0.8,-0.96 -1.44,-1.92 -2,-2.88c-1.6,-1.68 -3.92,-2.88 -5.44,-4.64c-1.12,-1.36 -2,-2.72 -3.52,-3.92c-2.16,-1.76 -5.2,-2.88 -7.12,-4.88c-4.32,-4.48 -8.64,-9.36 -13.52,-13.68c-4.8,-4.08 -8.8,-8.8 -13.68,-12.88c-2.96,-2.48 -5.04,-5.2 -7.84,-7.84c-3.12,-2.88 -7.36,-4.88 -10.8,-7.6c-7.28,-5.68 -11.84,-12.56 -18.64,-18.48c-4.8,-4.16 -9.12,-8 -12.8,-12.8c-2.56,-3.28 -4.88,-6.08 -7.84,-8.88c-2.24,2.24 -4.4,4.16 -7.2,6.16c-3.28,2.32 -5.44,5.84 -8.56,8.32c-7.12,5.68 -11.52,12.32 -17.92,18.48c-6.72,6.48 -13.04,13.28 -20.32,19.28c-4.32,3.52 -9.12,6.88 -12.4,11.2c-1.28,2.24 -2.72,4.4 -4.32,6.4c-1.76,1.28 -3.6,2.56 -5.36,3.76c-4.64,3.52 -9.04,7.44 -12.88,11.68c-4.08,4.48 -10.16,6.72 -13.92,11.52c-4.16,5.28 -7.92,10.96 -12.8,15.84c-2.16,1.84 -4.16,3.84 -5.92,5.92c-1.68,2.48 -3.44,4.8 -5.52,7.12c-2.24,2 -4.88,2.8 -6.64,5.2c-2.56,3.36 -4.8,6.72 -7.52,10c-2.96,3.68 -6.48,6.96 -9.52,10.56c-1.12,1.52 -2.48,3.04 -3.92,4.4c-0.96,0.56 -2,1.12 -3.04,1.52c-1.84,1.36 -2.56,3.36 -14.24,-3.52c6.4,-2.64 12.88,-6.32 18.24,-10.24c3.52,-2.56 6.96,-5.2 10.4,-7.76c4.48,-3.36 7.28,-8.08 10.8,-12.16c4.72,-5.44 9.84,-10.72 15.36,-15.68c3.84,-3.52 8.88,-6.64 12,-10.56c6.32,-7.76 11.52,-16.32 18.4,-23.76c3.6,-4 7.84,-7.6 11.36,-11.68c4.72,-5.44 9.36,-11.04 14.8,-16c5.76,-5.28 9.52,-10.72 14.24,-16.56c2.88,-3.68 6.08,-7.04 8.88,-10.72c4.24,-5.6 8.72,-10.56 12.32,-16.4c3.04,-5.12 7.52,-9.6 11.44,-14.4c-3.2,-3.04 -6.16,-6.24 -8.88,-9.6c-3.84,-4.64 -9.04,-8.72 -13.04,-13.36c-3.92,-4.48 -5.68,-9.6 -10,-14c-3.92,-3.92 -9.12,-5.84 -14.32,-8.64c-4.32,-2.32 -9.12,-5.52 -12.4,-8.48c-1.28,-1.04 -2.08,-2.32 -2.8,-3.52c-1.68,1.52 -3.36,3.04 -4.64,4.64c-4.4,5.44 -8,11.2 -12.08,16.72c-2.96,3.92 -6.56,7.52 -8.48,11.68c-1.36,2.96 -2.72,5.84 -5.2,8.56c-4.88,5.28 -8.24,10.88 -11.36,16.72c-2.24,4.08 -6.08,7.6 -8.64,11.52c-2.72,4.08 -7.12,7.44 -10,11.52c-2.48,3.52 -6.88,6.48 -10,9.76c-1.52,1.76 -3.2,3.2 -4.96,4.72c-4.56,4 -8.24,8.48 -13.12,12.24c-11.84,9.04 -21.6,19.12 -32.64,28.56c-2.8,2.48 -5.28,5.04 -7.68,7.68c3.12,-4.8 6.24,-9.52 7.04,-14.8c0.72,-5.04 1.92,-9.12 4.8,-13.92c1.92,-3.12 3.44,-6.48 4.8,-9.76c1.68,-4.24 2.32,-8.24 5.36,-12.24c2.4,-3.04 3.92,-6 5.68,-9.28c2,-3.92 5.12,-7.12 8,-10.8c5.04,-6.64 9.44,-13.76 13.52,-20.64c1.76,-3.04 4.32,-5.28 7.04,-8c2.64,-2.64 3.68,-5.92 5.36,-8.88c3.52,-6.24 7.6,-12.32 11.6,-18.48c1.92,-2.96 3.36,-6.16 5.52,-9.12c2.72,-3.76 6.4,-7.28 9.28,-11.04c5.36,-7.12 12,-13.84 18.16,-20.72c-2.24,-2.24 -3.28,-4.32 -0.72,-5.52l7.84,-3.12c2.4,-2.96 4.72,-5.92 7.52,-8.72c2.24,-2.32 4.24,-3.76 5.44,-6.32c0.8,-1.6 1.28,-3.52 2.56,-4.96c1.52,-1.84 4.4,-3.2 6.24,-4.88c2.32,-2.24 4.24,-4.48 5.2,-7.12c0.56,-1.44 1.36,-2.96 2.08,-4.32c-0.32,-1.36 -0.64,-2.8 -0.96,-4.16c-0.4,-1.68 -0.24,-3.28 -0.24,-4.88c-1.12,-0.56 -2.48,-1.04 -4.32,-1.52c1.68,0 3.12,0.24 4.4,0.56c0,-1.12 0,-2.4 0,-3.6c-0.4,-3.92 -2.4,-7.44 -2.72,-11.36c-0.16,-2.24 0.16,-4.64 0.16,-6.8c0,-1.92 0,-3.84 0,-5.84h-91.44c-3.12,0 -9.6,1.68 -12.24,-0.24c-2.4,-1.76 -1.04,-10.08 -1.04,-12.8c0,-5.44 -1.12,-11.6 -2.32,-16.72c-0.72,-3.12 -1.68,-6 -1.68,-9.28c-0.16,-3.76 0,-6.24 -1.28,-9.76c-2.24,-6.24 -1.28,-13.52 -1.28,-20.16v-11.76c-2.32,1.12 -4.72,2.32 -7.2,3.28c-4.56,1.84 -8.24,5.68 -12.88,7.2c-5.68,1.92 -10.8,5.36 -16.48,7.52c-7.76,2.88 -15.6,5.2 -23.36,8c-10.8,3.92 -21.68,7.84 -32.56,11.68c-9.76,3.36 -19.6,6.72 -29.28,10.16c-8.64,3.2 -16.64,8.32 -25.04,12.16c-5.2,2.32 -8.32,3.6 -11.44,8.96c-1.92,3.04 -6.24,5.6 -8.8,2c-1.44,-1.92 -0.88,-5.28 -0.88,-7.6c0,-8.56 1.12,-16.8 1.12,-25.36c-0.08,-8.16 2.64,-16.32 4.64,-24.16c2.48,-9.6 1.52,-20.08 1.52,-30.08c0,-7.36 0.8,-15.36 -0.24,-22.56c-0.96,-5.84 -0.96,-11.36 -0.96,-17.36c0,-8.96 -1.2,-17.68 -1.2,-26.56v-20.08c0,-13.92 -1.04,-28.4 0.64,-42.16c0.88,-6.88 0.64,-13.84 0.64,-20.8v-11.76c0,-2.24 -1.04,-7.84 1.12,-9.36c7.04,2.72 13.6,6.96 20,11.28c4.08,1.44 8.16,3.04 12.56,4c8.48,1.76 17.84,1.44 25.68,4.48c6,2.4 12.48,3.36 18.64,5.52c6.4,2.16 13.04,3.36 19.04,6.88c7.04,4.16 13.6,4.88 21.12,7.28c7.28,2.24 13.84,7.04 20.8,10.08c6.96,2.96 13.6,6.64 20.48,9.44c-0.08,-2.32 -0.24,-4.64 -0.24,-6.88c0,-11.76 2.24,-22.16 5.6,-33.36c1.44,-4.8 2.08,-10.32 3.92,-15.04c1.28,-3.44 1.84,-3.44 4.96,-3.28c4.96,0.16 10,0 14.96,0c0.24,-0.8 0.24,-1.6 0.24,-2.56v-10.56c0,-4.48 0.64,-9.92 0.24,-14.72c-0.8,-0.32 -1.6,-0.56 -2.32,-0.88c-2.96,-1.2 -5.68,-2.72 -8.56,-4.16c-2.8,-0.4 -5.52,-0.88 -8.32,-1.68c-4,-1.2 -9.6,-2.16 -13.28,-4.56c-2.88,-1.84 -4.56,-6.16 -6.64,-8.88c-2.72,-3.52 -6.48,-5.44 -9.12,-8.56c-2.24,-2.64 -4.48,-4.48 -6.8,-6.88c-2.64,-2.72 -2.72,-6.56 -4.8,-9.52c-0.96,-1.44 -2.32,-2.4 -3.28,-3.92c-1.04,-1.6 -1.76,-3.68 -2.72,-5.28c-0.8,-1.12 -1.2,-2.32 -1.84,-3.44c-1.92,-1.28 -3.92,-2.48 -5.68,-3.76c-4.64,-3.6 -9.44,-7.36 -13.52,-11.92c-9.12,-10.16 -17.84,-20.72 -23.36,-34c-0.72,-1.84 -0.8,-3.84 -1.52,-5.6c-1.28,-3.04 -3.28,-5.52 -4.72,-8.32c-3.52,-7.12 -7.28,-14.56 -10.16,-22c-7.2,-19.12 -9.92,-39.36 -7.92,-60c0.88,-9.44 3.92,-18.4 7.04,-27.2c1.68,-4.64 3.6,-9.12 5.2,-13.76c1.76,-5.12 2.88,-10.96 5.04,-15.92c1.92,-4.32 4.4,-7.36 6.88,-11.2c2.4,-3.76 2.88,-6.4 4.64,-10.08c1.6,-3.36 4,-5.12 6.4,-7.68c4.24,-4.4 6.72,-10.24 10.8,-14.96c5.2,-6 10.56,-11.68 15.6,-17.76c3.68,-4.48 8.72,-7.28 13.28,-10.48c7.28,-5.04 16.16,-5.84 24.24,-8c4.96,-1.44 10.08,-2.16 15.2,-2.72c2.56,-1.04 5.12,-2.08 7.76,-3.04c6.24,-2.24 13.28,-5.44 19.84,-6.16c6.48,-0.72 13.28,0 19.76,0h9.92c1.84,0 4.96,-0.56 6.88,-0.16c2.16,0.4 3.76,2.16 5.92,2.72c3.2,0.72 5.44,0.16 8.48,1.44c4.72,2 8.96,4.24 13.44,6.8c3.44,1.92 7.28,2.56 10.64,4.32c2.32,1.12 4.8,4.16 6.88,5.92c1.76,1.52 2.08,3.28 3.6,4.96c0.8,0.88 1.76,1.12 2.48,1.84c1.52,1.6 2.56,3.84 3.6,5.92c1.76,1.52 3.44,3.44 5.2,4.88c1.84,1.44 3.68,2.64 5.44,4.08c1.76,1.52 3.44,4.32 5.44,5.36c1.84,1.04 4.08,1.36 6,2.4c3.44,1.92 4.64,5.52 7.6,7.68c0.96,0.72 2.16,1.04 3.28,1.2h3.04c0.56,0 1.12,0 1.68,0c0.56,0 1.12,0 1.68,0h3.04c1.12,-0.16 2.32,-0.4 3.28,-1.2c2.88,-2.16 4.16,-5.76 7.52,-7.68c1.92,-1.12 4.16,-1.44 6,-2.4c1.92,-1.04 3.68,-3.84 5.44,-5.36c1.76,-1.44 3.68,-2.64 5.44,-4.08c1.76,-1.44 3.44,-3.28 5.2,-4.88c1.04,-2.08 2.08,-4.32 3.6,-5.92c0.72,-0.72 1.68,-0.96 2.48,-1.84c1.52,-1.68 1.84,-3.44 3.6,-4.96c2,-1.76 4.48,-4.72 6.88,-5.92c3.44,-1.68 7.2,-2.4 10.64,-4.32c4.48,-2.48 8.64,-4.8 13.36,-6.8c3.2,-1.28 5.44,-0.56 8.56,-1.44c2.16,-0.56 3.76,-2.32 5.92,-2.72c2,-0.4 5.12,0.16 6.88,0.16h9.92c6.48,0 13.28,-0.72 19.76,0c6.56,0.8 13.6,3.92 19.84,6.16c2.64,0.88 5.12,2 7.76,3.04c5.12,0.56 10.24,1.36 15.2,2.72c8.08,2.16 17.04,2.96 24.24,8c4.48,3.28 9.6,6 13.28,10.48c5.04,6.08 10.48,11.76 15.6,17.76c4,4.64 6.56,10.4 10.8,14.96c2.4,2.56 4.72,4.32 6.4,7.68c1.76,3.68 2.24,6.32 4.64,10.08c2.4,3.76 5.04,6.8 6.88,11.2c2.08,4.96 3.28,10.8 5.04,15.92c1.6,4.64 3.52,9.12 5.2,13.76c3.2,8.72 6.08,17.76 7.04,27.2c2,20.8 -0.72,41.04 -7.92,60c-2.8,7.44 -6.64,15.04 -10.16,22c-1.52,2.88 -3.52,5.36 -4.72,8.32c-0.72,1.76 -0.72,3.76 -1.52,5.6c-5.52,13.36 -14.24,23.84 -23.36,34c-4.08,4.56 -8.72,8.32 -13.52,11.92c-1.76,1.28 -3.84,2.48 -5.68,3.76c-0.64,1.12 -1.12,2.4 -1.84,3.44c-1.04,1.6 -1.76,3.76 -2.72,5.28c-0.88,1.44 -2.32,2.48 -3.28,3.92c-2.08,2.96 -2.16,6.72 -4.8,9.52c-2.32,2.4 -4.56,4.24 -6.8,6.88c-2.56,3.2 -6.4,5.12 -9.12,8.56c-2.16,2.64 -3.76,7.04 -6.64,8.88c-3.68,2.4 -9.28,3.44 -13.28,4.56c-2.8,0.72 -5.52,1.2 -8.32,1.68c-2.88,1.36 -5.6,2.88 -8.56,4.16c-0.72,0.32 -1.52,0.56 -2.32,0.88c-0.4,4.8 0.24,10.32 0.24,14.72v8.8c3.04,-0.16 6.16,0 9.12,0c4.24,0 8.72,0.16 13.12,0c2.32,0.88 4.56,1.84 6.88,2.8c4.32,1.76 9.04,1.44 13.28,2.96c3.92,1.36 7.44,5.6 9.2,9.44c2.48,5.52 1.2,13.04 1.2,19.04c0,3.92 0,7.84 0,11.76c0.08,3.92 1.2,7.52 1.36,11.44c0.32,8.16 0,16.56 0,24.8c0.08,11.68 -3.68,22.88 -4,34.56c-0.24,5.68 0,11.44 0,17.12c0.08,6.16 -1.44,12.48 -2.32,18.72c-1.04,7.6 -3.68,14.96 -4.24,22.56c-0.4,6.16 0,12.64 0,18.96c0,5.12 -0.4,10.16 -0.96,15.2c3.6,-1.36 7.12,-2.8 10.64,-4.08c8.64,-3.28 17.76,-5.44 26.72,-6.4c3.2,-0.32 6.64,-0.96 9.84,-1.68c1.92,-0.4 3.04,-1.12 4.88,-1.12c1.2,0 2.32,0.32 3.44,0c1.04,-4.4 -0.56,-9.52 0,-14.08c0.4,-3.28 0.88,-3.84 3.6,-3.84c2.96,0 5.36,-0.32 8.32,-0.96c9.76,-2.16 18.8,-7.2 28.48,-9.76c2.4,-0.64 4.72,-0.48 7.2,-1.28c2.96,-0.96 5.92,-1.84 8.88,-2.8c6.08,-2 11.92,-4.4 17.84,-6.88c3.04,-1.28 5.92,-1.2 9.12,-1.68c3.68,-0.56 7.44,-1.68 11.12,-2.48c4.56,-0.96 9.12,-1.12 13.6,-2.08c2,-0.4 3.68,-1.52 5.76,-1.12zM395.64,728.64c1.12,-1.44 2.56,-2.56 3.28,-4.24c0.16,-0.16 0.16,-0.4 0.16,-0.56c-0.16,-0.24 -0.4,-0.56 -0.56,-0.8c-0.24,-0.32 -0.56,-0.64 -0.8,-1.04c-2.72,1.44 -9.04,0.16 -11.84,0.16c-7.84,0 -15.84,-0.64 -23.44,1.04c-3.52,0.8 -7.04,-0.16 -10.56,0.24c-5.2,0.56 -9.2,2.88 -14.4,2.88h-33.04c-0.72,0 -1.52,0 -2.32,0c0.96,1.76 2,3.44 3.44,4.96c2.88,2.96 3.92,6.32 6,9.6c3.84,6.16 7.52,12 12.16,17.84c3.6,4.64 7.2,9.12 10.32,13.84c3.2,4.8 5.12,9.76 8.8,14.4c1.04,1.36 2.08,2.8 3.12,4.08c2.56,-3.6 6.64,-6.48 7.36,-10.8c4.08,-26.4 5.52,-70.16 18.8,-21.52c1.04,3.68 6.32,-6.8 8.64,-10c1.28,-1.84 1.92,-3.84 3.52,-5.6c1.28,-1.44 3.04,-2.32 4,-3.92c0.56,-1.2 1.04,-2.48 1.44,-3.76c0.64,-0.4 1.36,-0.88 2.16,-1.2c1.76,-1.44 2.32,-3.76 3.68,-5.52z" /> <path d="M410.68,674.64c-0.64,0.96 -1.12,1.6 -1.68,2.4c0.16,-0.88 0.32,-1.68 0.72,-2.4z" /> <path d="M129.56,911.76c3.28,-4.72 6.72,-9.28 10.64,-13.68c-0.72,1.04 -1.28,2.08 -2,3.12c-1.84,2.96 -4.4,5.84 -6.08,8.8c-1.76,3.12 -2.64,6.48 -4.64,9.52c-2.32,3.68 -5.68,7.12 -8.8,10.48c-1.12,1.28 -2.96,4.64 -5.28,4.8c-0.4,-1.84 2.64,-3.92 3.68,-5.52c1.2,-1.76 1.2,-3.28 2.8,-4.88c2.32,-2.32 5.44,-4.48 6.64,-7.2c0.88,-1.92 1.84,-3.44 3.12,-5.36z" /></svg>