<svg xmlns="http://www.w3.org/2000/svg" viewBox="0 0 989 925" width="989" height="925"><path d="M972.84,741.32c4.08,2.88 15.6,6.16 15.44,11.84c-13.2,7.6 -23.68,20.96 -35.6,30.8c-5.12,4.16 -10,7.6 -15.6,11.04c-6,3.52 -10.08,9.2 -15.76,13.04c-3.04,2 -6.32,3.04 -9.36,4.96c-14.72,9.68 -28.88,21.12 -44.16,29.68c-8.48,4.8 -16,11.2 -24.72,15.44c-11.6,5.52 -23.6,10.48 -35.28,15.76c-32.48,14.72 -64.96,30.48 -99.6,39.2c-7.92,1.92 -15.68,4.48 -23.68,6.48c-6.48,1.6 -12.72,1.84 -19.2,2.72c-5.68,0.8 -10.88,2.64 -16.56,2.48c-5.04,-0.08 -10.16,-0.8 -15.28,-0.56c-14.72,0.8 -102.72,-12.08 -115.04,-20.24c-7.28,-4.88 -14.48,-10.96 -22.08,-15.12c-7.12,-3.92 -12.56,-7.84 -17.76,-14.16c-2.08,-2.56 -2.8,-3.68 -5.76,-5.28c-3.92,-2.08 -4.4,-0.8 -7.44,-4.32c-3.36,-3.84 -6.56,-7.12 -10.16,-10.64c-2.56,-2.56 -7.2,-6.16 -9.2,-9.04c-4.4,-6.16 -5.92,-14 -9.2,-20.72c-3.44,-7.12 -7.2,-14.72 -11.28,-21.68c-3.76,-6.4 -8.24,-8.56 -13.36,-13.04c-2.88,-2.56 -3.44,-4.96 -7.04,-7.36c-2.64,-1.84 -5.52,-3.04 -8,-5.04c-2.8,-2.16 -5.2,-5.04 -8,-7.28c-3.44,-2.8 -6.96,-3.68 -10.72,-5.68c-7.6,-4.16 -14.56,-10.32 -22.24,-14.72c-0.88,-0.48 -1.44,-1.12 -2.16,-1.68h-0.72c-9.52,-1.2 -19.36,-2.96 -28.64,-5.52c-5.04,-1.44 -9.44,-3.52 -14.16,-5.6c-6.48,-2.72 -13.92,-3.44 -20.56,-5.84c-3.92,-1.44 -8,-3.12 -11.84,-4.8c-4.32,-1.84 -8.16,-4.16 -12.32,-6c-3.36,-1.44 -6.56,-2.08 -9.84,-3.84c-5.04,-2.8 -9.92,-5.92 -15.28,-8.48c-5.52,-2.64 -10.72,-5.68 -16.4,-7.84c-3.52,-1.28 -7.36,-2.16 -10.88,-3.44c-3.2,-1.2 -6.16,-2.96 -9.28,-4.32c-7.28,-3.28 -15.28,-4.64 -22.72,-7.44c-4.64,-1.76 -9.2,-4 -13.76,-6c-7.44,-3.28 -14.96,-8.16 -21.76,-12.8c-7.36,-5.04 -12.56,-12.56 -18.56,-18.96c-3.76,-3.92 -7.84,-5.76 -12.16,-8.64c-5.6,-3.6 -10.64,-8.24 -16.08,-12.08c-4,-2.8 -7.92,-5.76 -11.36,-9.2c-3.76,-3.6 -8.16,-7.44 -11.36,-11.52c-2.48,-3.28 -3.68,-6.48 -6.64,-9.44c-3.2,-3.28 -6.4,-6.56 -9.84,-9.68c-3.76,-3.6 -7.52,-6.96 -11.6,-10c-4.4,-3.2 -8.88,-6.24 -12.32,-10.4c-2.4,-2.88 -4.96,-5.92 -6.08,-9.52c-1.52,-4.8 -1.84,-9.84 -3.44,-14.64c-1.76,-5.52 -4.4,-11.12 -6.96,-16.24c-1.6,-3.28 -4.08,-6 -6.08,-8.96c-2.72,-3.92 -5.12,-8.64 -7.2,-12.88c-3.28,-6.96 -4.32,-15.2 -4.16,-22.8c0.16,-8.4 -1.84,-16.56 -1.84,-24.96c0,-4.56 -0.48,-9.44 0,-13.92c0.56,-5.2 3.68,-8.56 5.12,-13.36c1.36,-4.56 0.48,-9.92 1.52,-14.72c0.8,-3.92 0.8,-7.28 0.96,-11.28c0.08,-3.92 0.88,-7.68 2.08,-11.36c-3.04,-14.08 -1.84,-29.28 -1.84,-43.76c0,-6.48 0.56,-12.96 -0.96,-19.2c-0.72,-2.88 -0.72,-5.44 -1.04,-8.48c-0.24,-2.72 -1.36,-5.28 -2.08,-8c-0.48,-2 -0.4,-3.92 -0.8,-5.68c-0.48,-2.08 -2.08,-3.68 -2.56,-5.68c-0.88,-3.68 -0.16,-8.16 -0.16,-11.84c0,-7.6 -1.44,-16.56 0.88,-23.76c0.88,-2.88 1.76,-5.84 3.12,-8.56c1.52,-2.96 2.72,-5.68 2.72,-9.12c-0.08,-2.56 -0.48,-4.96 0.24,-7.44c0.88,-3.36 2.8,-6.4 3.92,-9.68c1.76,-4.96 3.12,-10.32 5.2,-15.2c0.96,-2.16 1.28,-4.64 2.32,-6.72c0.96,-2 2.8,-3.36 3.84,-5.28c1.2,-2.08 1.6,-4.56 2.88,-6.56c2,-3.04 5.04,-5.36 7.44,-8c3.6,-3.92 9.36,-8.24 10.72,-13.68c0.64,-2.32 1.6,-3.6 2.88,-5.68c1.04,-1.68 1.2,-3.6 2,-5.28c0.72,-1.6 1.84,-2.24 2.88,-3.44c1.6,-1.84 2.8,-4.4 4.32,-6.4c2.64,-3.6 5.92,-6.56 8.32,-10.32c4.24,-6.48 9.2,-12.8 13.92,-18.96c3.04,-4 6,-7.84 9.28,-11.6c2,-2.32 3.68,-4.88 6.08,-6.72c3.04,-2.32 6.24,-4.48 9.36,-6.72c6.4,-4.56 13.84,-7.2 20.96,-10.48c2.24,-1.12 4.16,-1.68 6.56,-2.4c3.92,-1.2 6.88,-4.24 10.72,-5.76c2.88,-1.12 5.76,-2.32 8.72,-3.52c2.64,-1.04 5.28,-0.56 8,-1.36c6.24,-1.76 11.04,-6.8 16.8,-9.2c3.12,-1.28 5.44,-3.36 8.24,-5.28c5.6,-4.08 11.92,-7.12 18,-10.24c3.04,-1.52 5.44,-3.04 8,-5.12c3.2,-2.56 7.28,-3.6 10.72,-5.84c7.12,-4.48 14.4,-8.56 22,-12.32c6.24,-3.04 12.48,-5.2 19.28,-6.48c4.64,-0.88 9.44,-2.72 14.16,-2.96c1.76,-0.16 3.44,0.24 5.2,0c4.64,-0.48 9.04,-1.84 13.52,-2.64c2.56,-0.48 5.04,-0.48 7.6,-1.12c5.12,-1.36 9.52,-2.72 14.96,-3.12c4.24,-0.32 8.56,-0.24 12.8,-0.56c3.12,-0.24 4.56,-2 7.36,-2.8c4.88,-1.28 10.64,-0.72 15.68,-1.28c6.64,-0.64 13.2,-1.76 19.6,-3.52c9.04,-2.48 19.12,-0.8 28.4,-0.96c8,-0.16 15.76,-1.04 23.76,-1.04c10.08,0 19.84,-0.96 29.92,-0.96h59.76c4.32,0 8.8,-0.16 13.28,0c4.72,-0.08 9.52,-0.16 14.16,0.48c3.44,0.4 6.72,1.2 10.16,1.44c2.32,0.16 4.4,0.96 6.8,0.96c1.92,0 3.12,0.4 5.04,0.96c6.16,1.6 13.2,1.76 19.52,2.64c7.12,0.96 14.48,1.92 21.68,3.44c4.4,0.88 8.72,2.4 13.12,3.28c4.8,0.96 8.96,3.6 13.68,4.72c1.04,0.24 2.32,0 3.44,0.24c1.6,0.4 3.28,1.28 4.8,1.76c2.56,0.96 5.36,1.52 8,2.4c4.96,1.6 10.16,2.72 15.12,4.64c2,0.72 4.08,0.88 6.16,1.52c3.52,1.04 6.72,3.2 10.16,4.48c4.96,1.92 9.84,4.48 14.56,6.88c3.6,1.84 7.52,2.32 11.12,3.92c5.12,2.24 10.32,4.24 15.44,6.64c3.44,1.52 6.88,3.12 10.24,4.72c2.56,1.2 4.8,2.88 7.6,4c3.44,1.36 5.92,3.44 9.12,5.2c1.92,1.2 4.16,2 6.08,3.12c1.76,0.96 3.12,2.48 4.88,3.44c8.24,4.4 17.6,7.68 26.24,11.36c2.96,1.2 5.12,2.64 7.76,4.32c3.2,2 7.04,2.88 10.32,4.88c3.92,2.4 8.32,3.76 12.24,6.08c3.36,1.92 6.8,4 10.24,5.84c3.44,2 6.8,4.08 10.48,5.52c2.64,1.12 2.16,0.88 3.76,2.56c1.76,1.92 4,3.2 5.92,4.96c2.96,2.72 5.6,5.36 8.72,7.92c1.52,1.2 2.96,2.88 4.48,4.08c1.2,0.96 2.96,1.36 4.32,2.08c2.24,1.12 3.92,3.04 5.84,4.48c1.76,1.28 3.68,2.16 5.2,3.68c2,1.92 4,4.88 5.68,7.2c1.44,2 2.08,4.32 3.52,6.4c2.48,3.68 6.4,6.32 8.4,10.24c0.88,1.84 1.28,3.36 2.48,5.04c1.28,1.76 2.96,3.36 4.32,5.12c1.28,1.76 2.16,3.68 3.44,5.36c1.52,2.08 3.44,3.6 4.96,5.52c2.88,3.52 4.96,8.56 7.04,12.64c4.64,8.96 7.36,18.56 13.44,26.72c3.76,5.12 5.04,12.56 6.8,18.64c0.72,2.48 0.8,4.8 1.76,7.2c0.88,2.16 1.92,4.32 2.8,6.48c0.72,1.84 0.56,2.88 0.96,4.72c0.88,3.44 3.84,5.92 4.56,9.36c0.48,2.4 -0.16,4.96 0,7.44c0.24,5.68 2.88,10.56 2.88,16.4c0,5.84 0.56,11.36 -1.28,16.96c-0.48,1.52 -0.88,3.2 -1.44,4.72c-0.4,1.2 -0.96,2.48 -1.36,3.76c-0.4,1.28 -0.24,2.8 -0.72,4c-0.8,2.32 -2.88,3.84 -3.44,6.32c-0.24,0.88 0,2.72 -0.4,3.68c-0.4,0.8 -1.12,1.2 -1.52,1.92c-1.76,3.52 -1.84,7.52 -2.96,11.2c0.08,2.48 0.08,4.88 -0.88,7.44c-0.56,1.36 -1.28,2.72 -2,4.08c0,2 0.24,4.08 -0.16,5.92c-0.32,1.52 -1.04,3.04 -1.92,4.32c0,0.08 -0.16,0.24 -0.16,0.24c-1.28,2.8 -2.88,5.04 -4.24,6.08c0.16,1.44 1.52,2.72 2.64,4.08c2.08,2.48 4.48,5.36 6.16,8.16c1.68,2.64 1.68,5.52 3.76,8.08c1.28,1.52 2.96,2.8 4.08,4.48c1.28,1.84 2.16,3.92 3.28,5.84c1.68,2.64 2.32,5.44 3.28,8.48c1.04,3.36 2.4,6.56 2.96,10c0.96,5.84 0.16,12.56 0.16,18.32c0,5.76 0,11.6 0,17.36c0.08,3.36 -0.8,6.48 -1.04,9.84c-0.24,2.72 0,5.6 0,8.4c0,2.32 0.24,4.64 0,6.96c-0.4,3.6 -2,7.28 -2.8,10.8c-1.12,4.8 -2.48,8.16 -5.68,12c-2.16,2.56 -3.28,5.2 -4.8,8.24c-2.48,4.88 -4.16,10.56 -7.28,15.12c-1.68,2.4 -3.36,4.64 -4.88,7.12c-1.52,2.24 -1.6,4.96 -2.96,7.44c-3.28,6 -7.2,11.52 -9.76,17.84c-0.88,2 -1.52,4.16 -2.56,6.08c-1.12,2.24 -3.04,4 -4.16,6.32c-1.04,2.08 -1.28,3.6 -3.04,5.2c-1.92,1.68 -3.12,3.12 -4.72,5.12c-2.4,3.04 -5.36,5.84 -8,8.72c-3.36,3.52 -6.56,7.28 -10.08,10.64c-3.92,3.76 -8.08,7.28 -11.92,11.12c-2.4,2.4 -4.96,5.28 -7.6,7.36c-1.52,1.28 -3.28,2.08 -4.56,3.44c-1.68,1.84 -2.88,4.16 -4.56,6c-1.52,1.52 -3.6,3.04 -5.44,4.16c-1.52,1.04 -3.28,1.84 -4.72,2.88c-1.84,1.28 -3.12,3.04 -4.88,4.32c-2.56,1.76 -5.52,2.64 -8,4.48c-2.32,1.76 -3.84,4.08 -6.48,5.52c-2.96,1.6 -5.52,2.8 -8,5.12c-3.52,3.2 -6.88,6.72 -10.56,9.6c-5.36,4.16 -11.28,7.36 -16.56,11.76c-2.96,2.4 -6.16,3.52 -9.28,5.68c-2.88,2.16 -5.6,4.96 -8.56,7.28c-2.32,2 -4.72,3.6 -7.28,5.2c-2.8,1.92 -4.64,4.24 -7.76,5.6c-2.72,1.12 -5.68,2.64 -8.48,3.52c-4.72,1.44 -8.96,3.36 -13.6,5.04c-7.44,2.72 -15.2,2.24 -22.64,4.96c-6.48,2.32 -12.8,4.64 -19.04,7.28c-6,2.48 -12.16,3.68 -18.32,5.68c-7.2,2.48 -14.24,4.88 -21.76,6.72c-8.72,2.16 -17.44,5.2 -26.48,5.68c-3.44,0.16 -6.4,1.2 -9.84,1.68c-3.68,0.56 -7.68,0.16 -11.44,0.16c-4,0 -8,-0.08 -11.84,0.96c-0.56,0.16 -1.04,0.16 -1.68,0.32c5.28,8.32 14.88,12.48 24.24,15.68c5.44,1.92 11.04,1.76 16.64,2.96c3.44,0.72 7.04,2.24 10.56,2.72c4.72,0.64 10.88,-1.2 15.44,-2.4c6.88,-1.84 14.8,-1.44 21.68,-3.44c4.48,-1.36 9.04,-4.24 13.28,-6.16c8.64,-3.84 17.2,-7.68 25.76,-11.52c11.76,-5.36 23.68,-10.64 35.52,-16c5.44,-2.48 10.8,-4.88 16.24,-7.36c4.16,-1.92 9.6,-3.28 13.36,-5.92c1.68,-1.12 2.8,-2.72 4.4,-3.92c9.6,-7.12 21.76,-11.36 30,-19.92c3.36,-3.6 6.72,-6.56 10.56,-9.36c6.56,-4.72 11.76,-11.12 18.08,-16c3.76,-2.8 6.32,-6.48 10.08,-9.28c4.16,-3.04 9.2,-4.72 13.28,-7.68c6.8,-4.88 11.6,-13.52 17.04,-19.84c5.36,-6.24 10.96,-12.24 16.88,-17.92c4,-3.76 10.32,-13.2 16.24,-13.2c6,9.36 8.64,21.2 10.32,32c0.96,6 2.4,11.84 3.44,17.92c1.04,6.64 4,12 6.64,18.08c1.52,3.44 1.84,6.48 2.8,9.92c3.76,13.6 11.76,27.12 17.6,40c3.92,8.96 6.72,18.4 14.96,24.24zM613.88,272.6c-0.16,1.92 0.16,3.84 0,5.68c-0.24,3.2 -2.24,5.68 -2.24,8.88c-0.16,3.92 0,8 0,11.92c0,3.92 -0.4,8.08 0.72,11.84c1.36,4.88 2.4,10.08 3.68,15.12c0.8,2.96 3.44,3.52 4.4,6.24c0.4,1.04 -0.16,3.2 0.56,4.08c0.4,0.48 1.44,0.8 2,1.36c0.96,1.04 1.12,2.4 2.08,3.36c0.88,0.88 1.92,1.28 2.72,2.24c1.28,1.44 2,2.72 3.6,3.84c1.6,1.12 2.72,2.08 4.48,2.88c1.36,0.64 2.32,1.04 3.44,2c1.44,1.2 2.96,1.84 4.72,2.64c1.36,0.56 2.88,0.88 4.24,1.52c1.6,0.72 2.8,1.92 4.24,2.96c1.84,1.28 4.48,2.64 6.56,3.36c3.44,1.04 6.88,2.48 10.24,4.16c1.04,0.48 2,1.36 3.12,1.6c0.72,0 1.52,-0.16 2.24,0c1.12,0.32 1.76,1.12 2.88,1.36c0.56,0.16 1.44,0 2.08,0c2.16,0 4.8,0.4 6.88,-0.16c-1.04,-0.8 -3.76,-1.44 -5.04,-1.28c1.52,0 3.12,-0.24 4.56,0c1.84,0.16 3.68,1.12 5.36,1.6c2,0.48 3.92,0.64 5.76,1.6c0.88,0.48 1.44,1.2 2.24,1.76c0.96,0.64 0.8,0.64 2.08,1.2c1.92,0.8 3.44,2.48 5.28,3.52c1.6,0.96 2.88,1.52 4.32,2.56c0.88,0.48 1.36,0.8 2.32,1.28c3.36,1.44 6.72,2.56 10.16,3.92c3.92,1.6 8,1.6 12.16,1.6c2.96,0 6.08,0.32 8.96,-0.4c1.6,-0.4 2.96,-0.24 4.56,-0.4c1.2,-0.08 2.32,-0.56 3.52,-0.72c2.72,-0.32 5.68,-2.48 8.48,-2.08l-10.56,7.84c-0.4,0.32 -0.72,0.72 -1.12,1.12c1.12,1.6 6.16,-0.64 7.44,-1.12c4.56,-1.76 9.52,-2.56 14.24,-3.92c2.64,-0.8 5.36,-1.44 8,-2.48c2.16,-0.8 4.08,-2.08 6.16,-2.88c2.32,-0.96 5.04,-1.04 7.2,-2.4c1.44,-0.96 2.88,-1.84 4.48,-2.64c6.8,-3.44 13.76,-6.96 20.96,-9.12c7.6,-2.32 15.28,-5.84 21.68,-10.64c2.8,-2.24 6.08,-3.76 8.48,-6.56c1.76,-2 3.68,-4 5.6,-5.68c2.56,-2.24 5.6,-4 8.24,-6.16c1.36,-1.12 2.56,-2.64 3.92,-3.76c0.72,-0.56 1.68,-1.28 2.24,-2c0.8,-1.12 0.96,-2.16 1.6,-3.36c0.72,-0.4 1.2,-1.04 1.36,-1.92c0.16,-0.4 0.16,-0.88 0.16,-1.28c0.56,-2 1.36,-3.84 2.8,-5.44c1.44,-1.44 2,-2.56 2.88,-4.32c0.72,-1.44 1.04,-1.52 2.16,-2.32c2.88,-2.08 4,-5.52 5.04,-8.8c0.56,-1.76 1.44,-3.44 1.92,-5.2c0.4,-1.44 0.16,-3.04 0.16,-4.48c-0.08,-2.72 0.16,-5.44 -0.4,-8.16c-0.48,-2.32 -0.32,-4.64 -0.88,-7.04c-0.32,-1.52 -0.88,-2.4 -1.44,-3.76c-0.56,-1.28 0.08,-1.12 -0.8,-2.88c-1.04,-1.92 -1.92,-2.96 -2.24,-4.88c-0.16,-1.68 0,-1.84 -1.28,-3.44c-1.2,-1.52 -2.4,-3.28 -3.52,-4.96c-0.96,-1.36 -0.48,-1.44 -0.96,-2.96c-0.64,-2.24 -2.64,-4.48 -4.08,-6.16c-2.32,-2.72 -4.16,-5.68 -6.4,-8.4c-1.36,-1.76 -2.72,-4.08 -4.32,-5.76c-1.36,-1.44 -2.16,-1.76 -3.2,-3.6c-1.04,-1.92 -2.16,-2.8 -3.68,-4.24c-2.48,-2.4 -5.6,-3.28 -7.92,-5.6c-1.76,-1.84 -4.16,-2.24 -6.32,-3.44c-3.52,-1.92 -7.6,-2.96 -11.12,-4.8c-1.2,-0.72 -2.48,-1.2 -3.76,-1.84c-0.88,-0.4 -2.72,-0.8 -3.44,-1.52c-0.56,-0.56 -0.8,-1.44 -1.52,-2c-0.8,-0.56 -1.6,-0.88 -2.48,-1.28c-0.96,-0.48 -1.92,-1.12 -2.88,-1.52c-1.6,-0.8 -3.28,-0.32 -4.88,-0.8c-1.76,-0.56 -3.28,-1.76 -5.12,-2.24c-1.36,-0.4 -2.88,-0.8 -4.24,-1.12c-2.64,-0.48 -5.28,-0.56 -7.84,-1.04c-3.36,-0.56 -6.48,-0.88 -9.68,-1.76c-1.36,-0.4 -2.8,-0.88 -4.24,-0.88c-7.12,-0.48 -14.32,-2.24 -21.28,-3.6c-5.6,-1.04 -10.96,-1.28 -16.64,-1.28h-8.72c-3.28,0 -6.96,-0.48 -10.32,0.16c-2.08,0.4 -3.92,0.32 -6.08,0.56c-3.84,0.32 -8.16,2.16 -11.84,3.28c-5.92,1.84 -11.12,4.88 -16.8,7.28c-2,0.88 -3.84,1.28 -5.6,2.32c-2,1.12 -3.76,2.4 -5.6,3.52c-2.96,1.68 -6.16,2.88 -8.96,4.64c-1.2,0.8 -2.48,1.52 -3.6,2.4c-1.36,1.04 -2.24,1.04 -3.84,1.68c-1.44,0.64 -2.56,1.92 -3.84,2.8c-1.28,0.72 -2.64,1.28 -3.92,2c-2.24,1.2 -4.16,3.04 -6.48,4.24c-1.68,1.04 -3.36,1.52 -4.8,2.88c-1.04,0.96 -1.92,1.92 -2.88,2.88c-1.6,1.44 -2,2.56 -3.04,4.24c-0.88,1.52 -2.56,2.72 -3.28,4.24c-0.56,1.28 -0.48,2.16 -1.28,3.36c-0.72,1.12 -1.44,2.08 -2.24,3.12c-0.96,1.2 -2.08,2.56 -2.88,3.84c-0.4,0.88 -0.56,1.84 -0.96,2.72c-0.72,1.2 -1.36,1.52 -2.24,2.56c-0.72,1.04 -0.96,2 -1.44,3.04c-0.88,1.92 -2.32,2.08 -3.52,3.76c-1.2,1.68 -1.92,4 -1.92,6zM343.24,119.64c0,2 -0.72,3.76 -0.72,5.68c-0.16,2.64 0,5.2 0,7.84c0,1.68 0.48,2.96 0.72,4.56c0.24,1.52 0.24,2.08 1.12,3.52c0.48,1.04 0.56,2.16 1.12,3.04c0.96,1.68 2.32,3.04 3.12,4.8c2,4.4 1.6,9.84 4.96,13.52c1.52,1.84 2.8,3.6 4.24,5.36c1.44,1.84 3.28,3.76 4.96,5.36c1.84,1.6 3.12,3.76 5.36,4.88c0.88,0.48 1.84,0.64 2.64,1.28c0.96,0.8 1.2,1.44 2.56,2c1.28,0.56 2.48,0.72 3.6,1.68c1.68,1.36 2.8,2.4 4.64,3.36c1.76,0.8 3.28,2.24 4.8,3.44c2.16,1.68 4.8,2.32 7.2,3.84c0.88,0.56 1.2,1.28 2,1.92c1.12,0.8 2.56,0.8 3.76,1.28c4.48,1.6 9.28,3.04 14.08,4.16c2.8,0.72 5.04,2.4 7.84,3.28c1.2,0.32 1.76,0.24 2.64,0.96c1.12,0.8 1.6,1.2 2.96,1.68c1.12,0.32 1.6,0.72 2.4,1.2c1.04,0.56 1.2,0.56 2.4,0.8c2.08,0.32 3.68,0.64 5.92,0.64h24.8c1.36,0 4.88,0.72 7.2,0.72c3.04,0 6,0.24 9.04,0c2,-0.16 3.84,-1.12 5.84,-1.44c3.28,-0.48 6.48,-1.2 9.76,-1.84c3.84,-0.72 6.96,-2.8 10.64,-3.92c3.36,-0.96 6,-3.44 9.44,-4.24c5.12,-1.12 9.6,-3.52 13.92,-6.24c2.4,-1.44 5.04,-2.48 7.52,-3.92c1.92,-1.04 3.84,-2.56 5.68,-3.84c1.52,-1.12 2.72,-2.4 4.48,-3.12c1.84,-0.8 2.24,-1.2 3.6,-2.4c1.2,-1.2 3.04,-1.6 4.24,-2.72c0.56,-0.56 1.04,-1.12 1.68,-1.68c1.12,-0.96 2.4,-1.6 3.36,-2.64c1.28,-1.2 2.16,-2.8 3.36,-4c1.36,-1.28 1.68,-1.6 2.24,-3.52c0.4,-1.12 0.32,-0.96 1.12,-1.84c2.24,-2.16 3.2,-5.36 5.2,-7.84c2,-2.32 3.44,-5.12 4.88,-7.76c0.8,-1.52 0.96,-3.28 2,-4.64c0.88,-1.28 2.16,-2 3.44,-2.72c1.36,-0.8 2.56,-1.52 3.28,-2.88c0.72,-1.36 0.8,-3.04 1.84,-4.32c0.8,-0.96 2.08,-1.04 2.48,-2.16c0.24,-0.64 0,-1.92 0,-2.64c-0.08,-2.64 -1.6,-4.24 -2.08,-6.64c-0.24,-1.28 0.24,-2.8 0,-4.16c-0.24,-1.44 -1.2,-2.56 -1.44,-4c-0.16,-0.8 0,-1.6 0,-2.32c0,-1.44 -0.4,-1.6 -0.96,-2.72c-1.52,-2.64 -3.12,-5.04 -5.04,-7.44c-0.88,-1.04 -1.76,-1.6 -2.8,-2.56c-1.52,-1.36 -2,-3.2 -3.04,-4.8c-1.28,-2.32 -3.92,-4.56 -6,-6.32c-1.44,-1.12 -1.92,-2 -2.8,-3.6c-0.72,-1.28 -1.76,-2 -2.48,-3.12c-0.72,-1.2 -0.64,-2.72 -1.76,-3.84c-0.32,-0.32 -1.04,-0.56 -1.44,-0.96c-0.4,-0.48 -0.64,-1.2 -1.04,-1.68c-1.04,-1.52 -2.48,-1.76 -3.76,-2.96c-1.36,-1.12 -1.92,-2.48 -3.44,-3.44c-1.52,-0.88 -3.2,-1.36 -4.64,-2.32c-1.2,-0.8 -2.24,-1.84 -3.44,-2.56c-2.16,-1.28 -4,-1.92 -6.32,-2.8c-1.28,-0.48 -1.04,-1.04 -2.08,-1.76c-0.72,-0.48 -1.92,-0.48 -2.64,-0.88c-0.56,-0.24 -0.96,-0.72 -1.52,-1.04c-1.04,-0.48 -2,-0.64 -3.04,-1.04c-1.44,-0.72 -2.8,-1.76 -4.32,-2.48c-2.56,-1.12 -5.36,-1.84 -7.84,-3.04c-2.56,-1.2 -4.96,-2.8 -7.6,-3.84c-2.08,-0.8 -4.32,-1.12 -6.4,-2.08c-1.92,-0.8 -3.44,-1.68 -5.44,-2.08c-3.2,-0.48 -6.48,-1.28 -9.68,-1.52c-5.44,-0.4 -10.96,0 -16.32,0c-2.08,0 -4.64,-0.4 -6.64,0c-1.92,0.4 -3.6,0.64 -5.68,0.64h-16.8c-6.32,0 -12.88,-0.8 -18.88,1.2c-3.2,1.04 -6,2.24 -8.96,3.76c-2.16,1.12 -4.48,2.72 -6.8,3.68c-1.2,0.4 -2.4,0.56 -3.6,1.12c-1.84,0.8 -3.84,1.28 -5.68,2.16c-2.64,1.12 -5.28,2.8 -7.84,4.16c-2.48,1.36 -4.56,3.2 -6.96,4.48c-2.08,1.04 -4.16,2.08 -6,3.44c-1.04,0.8 -1.76,1.76 -2.8,2.4c-1.12,0.64 -2.16,1.04 -3.28,1.76c-2.24,1.44 -4.48,2.88 -6.48,4.56c-1.84,1.6 -3.28,3.2 -4.96,4.88c-0.8,0.8 -2.08,1.52 -2.64,2.4c-0.48,0.72 -0.72,2.08 -1.12,2.88c-1.2,2.56 -3.12,4.72 -3.92,7.52c-0.56,2.08 -1.2,3.92 -2.08,5.84c-0.88,2.24 -1.12,4.8 -1.92,7.2c-0.72,2.4 -0.88,4.88 -1.84,7.28c-1.12,2.8 -1.12,5.12 -1.12,8zM330.04,402.2c-1.2,1.44 -2.56,1.76 -3.52,3.52c-1.04,1.92 -2.08,3.36 -3.6,5.04c-1.04,1.12 -1.68,2.32 -2.24,3.68c-1.12,2.8 -3.44,4.4 -4.88,7.12c-0.64,1.2 -1.04,2.64 -1.84,3.76c-0.56,0.88 -1.2,1.68 -1.76,2.56c-0.88,1.52 -1.6,2.72 -2.72,4.08c-0.88,1.12 -0.72,1.44 -0.88,2.64c-0.08,1.76 -0.64,3.6 -1.2,5.2c-0.4,1.2 -1.28,2.24 -1.52,3.36c-0.48,2.08 0,4.88 0,7.04c0,6.32 0.88,12.4 2.48,18.56c0.4,1.6 1.2,2.8 1.76,4.32c0.4,1.28 0.32,2.8 0.72,4c0.32,0.96 0.96,1.6 1.36,2.56c0.4,1.2 0.88,2.96 1.2,4.24c0.64,3.2 0.88,6.32 2.48,9.2c1.28,2.32 2.64,5.44 4.48,7.12c1.52,1.36 2.16,2.72 3.2,4.48c0.88,1.28 1.92,2.32 2.48,3.92c0.48,1.36 0.64,2.72 1.6,3.92c0.88,1.28 1.68,1.92 2.32,3.2c1.36,2.96 4.16,4.08 6.4,6.4c1.84,1.92 4.24,3.28 6.32,4.96c1.28,1.12 2.96,1.6 4.24,2.56c0.96,0.72 1.84,1.68 2.88,2.4c2.16,1.68 4.72,2.72 6.64,4.56c1.12,1.12 2.08,1.76 3.28,2.56c1.28,0.88 2.16,2 3.28,2.88c1.04,0.88 1.36,0.56 2.48,0.88c1.12,0.24 2,1.04 3.04,1.44c2.48,0.96 5.12,1.52 7.6,2.48c1.52,0.56 2.96,1.36 4.48,1.84c1.36,0.4 2.8,0.4 4.16,0.88c2.88,1.04 5.84,2.24 8.8,3.04c2.8,0.8 5.92,1.92 8.88,2.32c0.88,0.24 1.84,0 2.8,0c1.28,0.08 2.56,0.48 3.84,0.72c1.44,0.24 2.8,0.8 4.32,0.8c1.36,0 2.8,-0.32 4.08,0c2.88,0.56 5.84,2.24 8.56,3.44c2.72,1.2 5.04,2.32 7.84,3.2c2.24,0.64 4.4,1.76 6.8,1.76h5.68c2.4,0 4.96,-0.32 7.28,0.16c1.28,0.24 2.8,0.64 4.08,1.04c1.2,0.32 2.08,1.2 3.2,1.52c1.2,0.4 2.72,-0.16 3.92,0c1.2,0.16 2.48,0.64 3.6,0.88c1.2,0.24 2.32,0.64 3.44,0.64c0.24,0 0.64,0 0.96,0c-2.64,1.84 -5.36,3.92 -8.24,5.68c2.8,-1.68 7.84,-0.72 11.04,-0.72c4,0 8.72,0.64 12.64,-0.16c4.88,-0.96 9.76,-0.32 14.64,-0.96c5.6,-0.64 11.04,-1.92 16.64,-3.04c2.96,-0.64 5.84,-1.44 8.72,-2.32c2.64,-0.8 4.64,-2.56 7.2,-3.6c3.28,-1.28 6.8,-2.4 9.28,-4.96c1.04,-1.12 2.48,-2.08 3.44,-3.2c0.64,-0.88 0.88,-1.84 1.76,-2.56c1.28,-1.04 1.92,-1.2 2.88,-2.64c0.56,-0.96 0.96,-1.76 1.68,-2.64c1.2,-1.36 2.24,-2.48 3.2,-4c1.04,-1.76 1.92,-3.76 3.44,-5.2c1.52,-1.52 2.72,-2.72 3.92,-4.48c1.76,-2.88 4.4,-5.04 7.44,-6.48c1.76,-0.88 3.44,-1.76 4.96,-2.96c0.8,-0.56 1.52,-1.36 2.32,-1.84c1.84,-0.96 3.84,-1.52 5.68,-2.56c1.76,-0.96 3.2,-2.4 4.88,-3.36c2,-1.04 2.8,-2.08 4.48,-3.52c1.12,-1.12 2.72,-1.44 3.84,-2.56c1.12,-1.12 2.32,-2.08 3.52,-3.2c2.64,-2.48 2.72,-6.08 4.64,-9.04c0.88,-1.44 1.44,-2.8 1.92,-4.48c0.64,-2.24 1.36,-2.88 2.56,-4.8c0.96,-1.36 1.28,-2.56 2.32,-3.76c0.96,-1.2 1.12,-2.48 1.68,-4c0.48,-1.2 0.96,-2.8 1.84,-3.92c0.72,-0.8 1.68,-1.12 2.48,-1.92c1.2,-1.2 1.44,-2 1.44,-3.52c0.16,-4.24 0.72,-8.24 0.72,-12.32c0,-5.12 0,-9.28 -1.68,-14.08c-0.88,-2.48 -1.12,-5.84 -2.48,-8.16c-0.88,-1.44 -2.88,-2.64 -4,-4c-0.96,-1.2 -2.4,-2 -3.44,-3.12c-1.6,-1.76 -2.48,-4.72 -3.84,-6.8c-0.96,-1.52 -0.96,-3.12 -1.44,-4.72c-0.8,-2.4 -3.2,-3.84 -4.72,-5.76c-1.44,-1.76 -2.24,-3.52 -3.12,-5.52c-0.24,-0.4 0.08,-0.72 -0.24,-1.28c-0.24,-0.4 -1.52,-1.12 -1.84,-1.52c-1.36,-1.76 -2.88,-3.76 -4.08,-5.6c-1.12,-1.52 -1.6,-2.96 -3.12,-4.16c-1.76,-1.44 -3.36,-3.28 -5.2,-4.64c-1.04,-0.8 -2.4,-1.12 -3.52,-1.84c-1.6,-0.96 -2.96,-2.4 -4.64,-3.2c-1.44,-0.64 -2.64,-0.64 -4,-1.76c-2.08,-1.6 -3.52,-2.56 -6,-3.52c-2.56,-1.04 -5.04,-2.16 -7.6,-3.2c-2.32,-0.88 -4.32,-1.92 -6.56,-3.04c-2.72,-1.36 -5.76,-2.08 -8.72,-3.2c-1.28,-0.4 -2.8,-0.8 -4,-1.52c-0.72,-0.32 -1.12,-0.96 -1.76,-1.36c-1.04,-0.64 -2.4,-0.88 -3.6,-1.28c-1.68,-0.56 -3.44,-0.96 -5.12,-1.52c-1.76,-0.64 -3.28,-1.76 -4.96,-2.56c-3.68,-1.68 -7.68,-3.28 -11.52,-4.64c-4.16,-1.52 -8.24,-2.8 -12.56,-3.44c-4.8,-0.8 -9.92,-0.4 -14.8,-0.4h-23.68c-4.64,0 -8.96,1.12 -13.52,1.36c-4.64,0.24 -8.96,0.16 -13.52,0.88c-1.44,0.24 -2.88,0.96 -4.32,1.2c-1.36,0.24 -2.88,0.08 -4.32,0.24c-3.12,0.4 -6.64,0.8 -9.76,1.44c-1.52,0.32 -2.88,0.96 -4.4,1.2c-1.92,0.32 -4,0 -6,0c-4.48,0.08 -9.44,0.8 -13.6,2.48c-1.84,0.8 -3.44,2 -5.2,2.88c-2.08,1.04 -4.56,1.44 -6.8,2.16c-2.32,0.8 -4.88,1.36 -7.04,2.48c-1.12,0.64 -2.32,1.2 -3.6,1.76c-2,0.72 -3.68,1.12 -5.44,2.08c-1.36,0.72 -3.04,0.72 -4.4,1.52c-1.76,0.96 -3.28,2.48 -5.04,3.44c-1.6,0.88 -3.36,1.68 -4.96,2.48c-2,0.96 -2.56,2 -4,3.44c-1.12,1.2 -2.64,1.44 -3.68,2.72c-2.32,2.96 -3.68,6.32 -6.08,9.2c-1.28,1.6 -1.76,3.6 -2.96,5.04zM48.6,282.28c0,4.08 -0.16,8.16 0,12.16c0.08,3.28 2,6.4 3.92,8.96c1.2,1.76 3.12,3.6 3.68,5.68c0.16,0.64 0,1.52 0.32,2.16c0.16,0.48 0.88,0.8 1.12,1.28c0.4,0.96 0.32,1.92 0.8,2.88c0.72,1.44 1.2,1.6 1.52,3.2c0.32,1.52 0.48,3.04 0.64,4.56c0.16,2.72 2.24,4.96 2.88,7.52c0.48,1.76 1.44,4.56 2.88,5.84c1.28,1.12 1.36,1.12 1.92,2.96c0.56,1.76 0.64,1.6 1.92,2.56c1.84,1.36 3.2,3.12 5.04,4.24c2.4,1.44 4.16,3.6 6.64,4.72c2.24,0.88 3.92,2.88 6,4.08c2.56,1.36 5.04,2.64 7.52,4.16c2.72,1.6 5.04,4.16 7.76,5.68c1.52,0.88 3.28,0.96 4.8,2c1.28,0.96 2.72,1.92 3.92,2.88c1.36,0.96 2.16,2.64 3.6,3.44c1.12,0.56 2.8,0.56 4,0.96c2,0.64 3.76,1.84 5.68,2.72c1.44,0.64 3.04,0.96 4.48,1.68c1.68,0.88 2.96,2.16 4.72,2.8c1.2,0.32 2.4,0.56 3.52,1.12c5.76,2.64 11.68,3.52 18.08,3.52h12c1.12,0 2.48,0.32 3.6,0c0.96,-0.16 1.6,-0.88 2.48,-1.2c1.84,-0.64 4.4,-0.16 6.32,-0.16h13.52c-9.2,-0.72 -13.76,2.4 -18.64,4.88c-0.08,0.16 -0.32,0.16 -0.32,0.32c-1.04,0.24 -2.08,0.48 -2.96,1.04c0.96,0.64 1.92,0.24 2.96,-1.04c3.6,-0.72 7.84,0 11.12,-0.16c3.12,-0.08 6.08,-1.12 9.12,-1.44c3.12,-0.32 5.92,-1.2 9.04,-1.44c2.8,-0.16 5.6,-0.64 8.48,-1.28c2.32,-0.56 4.56,-1.52 6.88,-2c4.72,-1.04 9.36,-2.4 14.08,-3.12c4.48,-0.8 8.64,-2.32 13.04,-2.8c5.2,-0.64 8.96,-4.48 13.6,-6.4c1.92,-0.8 3.76,-1.68 5.52,-2.4c0.8,-0.4 1.28,-0.16 2.16,-0.4c1.28,-0.4 2.4,-1.68 3.52,-2.56c1.36,-1.04 2.72,-2.08 4,-3.12c2.4,-1.92 4.48,-4 6.96,-5.84c1.76,-1.28 2.4,-2.64 3.52,-4.48c0.8,-1.2 1.52,-1.6 2.56,-2.48c0.8,-0.8 1.28,-1.68 2.08,-2.48c0.96,-0.88 2.24,-1.04 3.12,-1.84c2.08,-1.84 3.68,-4.32 5.84,-6.16c1.84,-1.52 4.56,-2.24 6.08,-4c1.12,-1.2 1.28,-2.96 2.48,-4c1.04,-0.96 2.56,-1.28 3.68,-2.32c2.72,-2.72 4.08,-5.84 5.68,-9.28c1.84,-3.68 3.36,-8.48 6.08,-11.68c0.64,-0.88 1.2,-1.04 1.44,-2.16c0.24,-1.04 0,-2.56 0,-3.68c-0.08,-2.56 -0.88,-5.12 -1.44,-7.68c-0.32,-1.2 -0.8,-2.56 -0.8,-3.84c0,-1.12 0.24,-2.16 0,-3.28c-0.32,-1.36 -0.88,-2.8 -1.28,-4.24c-0.24,-1.2 -0.96,-2.08 -1.28,-3.2c-0.32,-1.12 0,-2.48 -0.16,-3.68c-0.16,-1.44 -0.88,-2.8 -1.2,-4.24c-0.56,-2.8 0,-5.68 -0.56,-8.56c-0.32,-1.6 -0.4,-3.28 -1.04,-4.72c-0.48,-1.2 -1.36,-1.84 -2,-2.96c-0.96,-1.6 -1.2,-3.36 -2.48,-4.88c-0.96,-1.12 -1.92,-2.32 -2.96,-3.28c-1.36,-1.2 -3.12,-1.84 -4.48,-3.04c-1.44,-1.36 -2.96,-2.32 -4.48,-3.44c-3.6,-2.72 -7.04,-5.6 -10.8,-8.16c-1.04,-0.64 -1.68,-1.92 -2.64,-2.56c-1.2,-0.64 -2.56,-0.72 -3.76,-1.6c-2.24,-1.76 -4,-4 -6.88,-4.88c-2.72,-0.8 -4.48,-2.56 -7.12,-3.76c-1.6,-0.64 -1.76,-1.12 -3.04,-2c-1.52,-1.12 -3.68,-1.36 -5.2,-2.4c-1.04,-0.64 -2.08,-1.44 -3.2,-1.84c-1.52,-0.4 -2.32,-0.56 -3.6,-1.44c-3.12,-2 -6.8,-2.96 -10.32,-4.16c-1.6,-0.56 -2.72,-1.36 -4.32,-2.16c-1.52,-0.8 -3.28,-1.2 -4.8,-1.92c-2.32,-1.04 -3.84,-2.56 -6.4,-3.2c-2.56,-0.72 -4.96,-1.44 -7.36,-2.48c-2.64,-1.2 -6.08,-2 -8.96,-2.32c-6.48,-0.8 -12.88,-0.8 -19.44,-0.8c-7.52,0 -14.96,0 -22.4,0c-3.28,0.08 -6.96,0.96 -9.92,2.16c-0.96,0.32 -1.52,1.04 -2.48,1.36c-1.12,0.32 -2.24,0.16 -3.36,0.56c-3.2,1.12 -6.48,1.12 -9.76,1.92c-1.12,0.24 -2.48,0.96 -3.68,1.12c-1.2,0 -2.32,-0.32 -3.44,0c-1.2,0.24 -2.16,0.96 -3.44,1.2c-0.88,0 -1.76,0 -2.64,0c-1.52,0 -2.8,0.32 -4.32,0.72c-2.72,0.64 -5.12,1.12 -7.76,2.08c-1.76,0.56 -3.52,0.88 -5.28,1.36c-2.16,0.56 -4.16,1.52 -6.32,2c-3.6,0.72 -6.48,2.16 -9.68,3.92c-1.44,0.88 -2.72,1.84 -4.08,2.88c-1.44,1.12 -2.8,1.28 -4.48,2.08c-2.08,0.88 -2.32,2.56 -3.52,4.24c-1.2,1.6 -3.2,2.72 -4.64,4c-2.64,2.32 -5.76,3.92 -7.76,6.88c-2,2.88 -4.24,4.72 -5.6,8.16c-0.96,2.48 -2.56,4.48 -3.68,6.88c-1.12,2.72 -2.72,5.28 -4,7.92c-0.72,1.2 -1.6,1.84 -2.4,2.96c-1.2,1.52 -2,3.28 -3.2,4.8c-1.28,1.68 -2.32,3.52 -3.76,5.04c-1.12,1.2 -1.36,1.76 -1.52,3.52c-0.24,2.96 -1.44,5.76 -1.44,8.72zM284.12,648.04c0.24,-2 0.72,-3.76 0.96,-5.6c0.4,-4.08 -1.04,-4.48 -4.8,-5.2c-6.32,-1.2 -11.12,-4.72 -17.2,-6.32c-1.44,-0.4 -2.24,-1.04 -3.44,-1.68c-1.6,-0.72 -3.44,-0.88 -5.04,-1.76c-5.12,-2.64 -9.68,-5.36 -15.36,-6.72c-3.84,-0.88 -8.32,-2.08 -12,-3.6c-2.32,-0.96 -3.84,-2.32 -5.6,-3.92c-1.68,-1.6 -3.84,-2 -5.44,-3.36c-1.28,-1.2 -0.72,-2.48 -1.68,-3.76c-1.04,-1.36 -3.68,-2 -5.12,-2.8c-3.12,-1.52 -5.76,-3.84 -8.96,-4.96c-2.32,-0.72 -6,-1.44 -7.92,-3.04c-0.96,-0.72 -1.28,-1.44 -2.24,-2.08c-1.52,-1.04 -3.44,-1.52 -5.04,-2.24c-3.2,-1.44 -6.16,-2.88 -9.04,-4.56c-2.88,-1.68 -6,-2.32 -9.04,-3.44c-1.6,-0.56 -2.32,-0.96 -3.44,-1.84c-1.52,-1.28 -2.56,-2.32 -4.56,-2.8c-3.52,-0.96 -5.44,-2.96 -8.56,-4.88c-2.08,0.96 -0.32,6.88 0,8.56c0.48,3.04 0.8,5.92 1.36,8.96c0.56,3.04 0.64,5.84 1.36,8.8c0.56,2.32 1.2,2.4 2.24,4.4c0.8,1.68 1.2,3.6 1.84,5.28c1.36,3.68 1.28,7.52 3.76,10.96c1.76,2.56 4.32,5.76 6.4,7.84c1.84,1.84 4,2 6.08,3.44c1.52,0.96 2,2.4 3.12,3.76c1.52,1.92 3.52,3.44 5.2,5.2c0.72,0.8 1.28,1.6 1.84,2.4c0.32,0.4 0.72,0.88 1.12,1.36c2.8,3.12 6.64,5.68 9.6,8.8c3.04,3.2 5.52,7.92 9.44,10.08c1.6,0.96 3.2,1.04 4.88,2.16c2.64,1.92 5.52,3.68 8.32,5.52c2.8,1.84 5.04,4.72 8,6.24c3.04,1.68 4.8,2.56 7.44,4.8c3.04,2.4 6.24,3.84 9.52,5.68c4,2.16 7.84,5.36 12.56,6c2.32,0.32 4.88,0 7.2,0c1.76,-0.08 4.08,-0.24 5.2,-1.84c0.96,-0.4 1.2,-1.12 0.56,-2.08c-1.6,-1.36 -3.12,-2.96 4.16,-2.72c0.96,0 1.52,-0.48 2.08,-1.28c1.2,-1.92 1.2,-5.6 1.6,-7.2c0.4,-2 1.68,-3.76 2,-5.76c0.16,-1.44 -0.4,-2.88 0,-4.32c0.96,-3.84 3.84,-6.64 5.04,-10.16c0.48,-1.44 0.48,-2.48 0.48,-3.92c0.08,-2.16 0.72,-4 1.04,-6.08zM426.92,678.44c0.24,-2.96 2.64,-4.8 -1.2,-6.24c-2.16,-0.8 -4.72,-0.56 -6.96,-1.36c-1.52,-0.4 -2.96,-1.28 -4.56,-1.52c-7.2,-0.88 -14.4,-1.92 -21.84,-1.92h-9.04c-3.36,0.08 -6,-0.96 -9.44,-0.96c-7.28,0.16 -13.92,-2.4 -20.88,-3.76c-1.84,-0.4 -2.8,-1.12 -4.56,-2.24c-2.16,-1.28 -4.72,-1.84 -7.28,-2.24c-2.72,-0.32 -5.68,0 -8.32,-1.12c-1.6,-0.56 -2.8,-1.36 -4.48,-1.68c-4.16,-0.72 -7.84,-1.52 -11.76,-3.04c-3.52,-1.36 -7.04,-1.36 -9.76,-3.76c-2.96,0.32 -3.44,5.6 -4.16,7.92c-0.8,2.88 -1.92,5.92 -2.4,8.8c-0.88,5.68 0.48,12.16 -1.52,17.84c-0.72,2.24 -1.28,3.2 -1.28,5.68v6.4c-0.32,3.36 -4.56,6.8 -3.84,10.24c4.56,1.6 9.2,1.76 14,2.72c4.56,0.88 8.96,2.16 13.2,3.76c4.64,1.76 9.52,2.8 14.24,4.72c4.56,1.84 8.24,5.36 12.8,7.44c5.92,2.64 10.48,7.04 16,10.56c2.8,1.84 4.96,3.84 7.6,5.84c2.24,1.76 4.88,2.56 7.28,3.92c3.52,2 6.8,4.48 10.4,6.32c1.52,0.8 2.96,1.6 4.32,2.48c0.72,0.4 1.36,0.72 2.08,1.2c1.28,0.88 2.32,1.76 3.84,2c1.92,0.32 3.76,-0.56 5.68,0c2.08,0.56 3.52,2.24 11.36,6.48c0,-3.36 0.24,-6.48 0.64,-9.68c0.16,-0.64 0,-1.12 0.16,-1.76c0,-1.04 0,-1.84 0,-2.8c0.24,-2.88 2.24,-5.36 2.8,-8.24c0.24,-1.6 0,-3.2 0,-4.8c0.08,-2.64 0.72,-5.2 1.2,-7.76c0.64,-3.76 1.2,-7.52 1.44,-11.2c0.08,-1.12 0.24,-2.32 0.24,-3.44v-10.32c-0.08,-2.8 0.96,-5.2 0.96,-8c0,-2.64 -0.24,-5.04 0.4,-7.6c0.48,-1.92 1.2,-3.44 1.84,-5.2c0.56,-1.36 0.4,-2.08 0.56,-3.52zM558.2,772.36c-3.36,-9.12 -7.12,-14.8 -9.84,-20.24c-0.88,-1.6 -1.6,-3.36 -2.16,-5.04c-0.72,-2.08 -2.32,-3.92 -2.96,-5.92c-0.56,-1.52 -0.4,-3.12 -1.04,-4.72c-1.52,-3.84 -4.24,-7.12 -5.6,-11.12c-1.44,-3.92 -3.84,-6.8 -5.76,-10.32c-0.16,-0.08 -0.16,-0.24 -0.16,-0.24c-1.36,-2.48 -2.16,-4.48 -4.56,-6.24c-1.36,-0.96 -1.92,-1.2 -3.04,-2.48c-0.48,-1.12 -1.12,-2 -2.08,-2.8c-0.88,-0.56 -1.68,-0.8 -2.72,-0.8c-1.6,-0.8 -1.44,-1.28 -2.72,-2.64c-3.28,-3.52 -8.08,-4.48 -11.84,-7.04c-1.68,-1.2 -2.08,-2.24 -4.4,-2.96c-2.24,-0.72 -4.4,-1.28 -6.4,-2.4c-1.52,-0.8 -3.04,-1.76 -4.96,-2.08c-1.36,-0.32 -2.72,0.24 -4.16,-0.16c-2.64,-0.64 -4.96,-1.44 -7.68,-1.92c-4.88,-0.8 -9.92,-2.16 -14.88,-3.28c-3.44,-0.8 -8.56,-2.96 -10.24,0.72c-0.8,1.84 -0.88,4.08 -1.36,5.92c-1.36,4.88 -0.24,11.84 -0.24,16.64c0,4.8 0.16,9.84 0,14.8v2.16c-0.16,3.28 -1.92,6.88 -2.88,10.16c-1.28,4.32 -0.56,8.24 -0.88,12.72c-0.24,3.52 -1.68,6.88 -3.04,10.16c-0.64,1.36 -1.2,2.88 -1.76,4.32c-1.28,3.6 -2.32,7.04 -4,10.56c-0.56,1.12 -2.64,4.48 -1.52,6c0.48,0.64 2.8,1.36 3.52,1.92c2.32,1.68 4.72,3.44 6.64,5.44c2.24,2.24 6,4.8 7.44,7.6c0.56,1.2 0.32,1.92 1.12,3.04c1.04,1.44 2.8,1.92 3.76,3.6c1.04,1.84 1.36,4 2.24,5.84c0.72,1.52 1.68,3.36 2.64,4.64c0.72,1.04 2.32,1.92 2.72,3.04c0.56,1.44 0.24,2.32 1.12,3.76c0.48,1.04 1.12,2 1.84,2.88c1.12,1.44 1.6,1.52 2.24,3.28c0.48,1.36 0.4,2.96 0.88,4.32c1.6,4.72 5.76,7.12 6.4,12.08c0.32,2.32 0.32,6 1.76,7.84c1.04,1.28 2.64,1.76 3.68,3.28c0.72,1.04 1.04,2.56 1.92,3.44c1.04,1.04 2.96,0.88 4.16,1.76c1.36,0.88 2.32,2.16 3.68,3.12c3.2,2.16 6.4,3.52 9.6,5.44c0.8,0.72 1.6,1.36 2.56,1.92c1.04,0.4 1.92,0.8 2.96,1.12c1.04,0.72 1.68,1.76 2.72,2.48c2.48,1.68 5.76,2.48 8.48,3.92c1.84,0.96 3.12,2.48 4.8,3.6c1.52,1.04 2.48,1.2 3.76,2.8c0.96,1.28 4.88,6.16 6.4,5.2c0.32,-2.32 0.72,-4.64 1.04,-6.96c0.4,-3.44 1.84,-6.88 2,-10.4c0.08,-2.96 -0.48,-5.76 0.4,-8.64c0.8,-2.48 2.64,-4.24 3.52,-6.72c1.52,-4.16 1.68,-8.32 2.64,-12.48c1.04,-4.56 0.4,-8.96 0.88,-13.6c0.32,-2.72 1.04,-5.04 1.04,-7.76v-5.28c0,-3.44 0,-6.8 0,-10.16c0.16,-4.08 3.04,-7.28 3.76,-11.2c0.48,-2.96 0,-4.56 1.44,-7.44c1.2,-2.24 4.24,-8.32 7.12,-8.48zM556.76,707.56c1.12,1.12 1.84,2.48 2.56,3.84c195.76,-30.24 342.72,-154.64 344.08,-303.76c-1.92,2.08 -4,4 -5.6,6.32c-0.64,0.96 -1.36,1.84 -2.08,2.8c-1.04,1.44 -0.64,1.84 -0.88,3.28c-0.32,2.32 -1.36,3.84 -2.88,5.68c-1.2,1.36 -3.28,2.48 -4.24,3.92c-0.88,1.28 -0.96,3.28 -1.44,4.72c-0.64,1.92 -1.44,3.84 -2.4,5.52c-1.52,2.72 -3.68,4.16 -4.96,6.96c-1.84,3.92 -4.4,6.32 -6.96,9.76c-0.56,0.88 -0.88,1.92 -1.68,2.64c-1.28,1.2 -3.44,1.36 -4.72,2.8c-1.2,1.36 -1.76,2.56 -3.44,3.6c-1.52,0.96 -2.64,1.44 -3.76,2.88c-2.08,2.64 -4.72,4.32 -6.64,7.04c-1.92,2.64 -4.32,4.4 -6.08,7.28c-2.4,3.6 -4.96,6.64 -7.76,9.84c-1.92,2.24 -3.12,4.8 -5.12,7.12c-0.8,0.96 -2.08,1.92 -2.72,2.88c-0.96,1.36 -1.2,2.8 -2.4,4.08c-1.12,1.2 -2.4,2.08 -3.44,3.28c-0.96,0.96 -1.28,2.24 -2.24,3.28c-1.04,1.28 -2.8,1.76 -3.92,2.88c-1.28,1.2 -1.68,1.92 -3.44,2.8c-4.48,2.16 -9.04,4.64 -13.44,7.04c-7.44,4.08 -14.88,8 -22.8,11.28c-6.24,2.56 -11.92,6 -18.24,8.56c-4.88,2 -10.16,3.6 -15.12,5.76c-5.68,2.4 -10.64,5.92 -16.4,8.08c-4.48,1.76 -8.4,4.24 -13.12,5.44c-1.92,0.48 -3.84,0.64 -5.68,1.12c-1.6,0.32 -2.56,1.04 -4.08,1.84c-3.68,1.92 -7.2,3.36 -11.2,4c-3.92,0.64 -6.56,3.28 -10,4.96c-2.88,1.52 -5.44,2.4 -8.56,3.36c-1.84,0.64 -3.6,1.52 -5.28,2.48c-1.2,0.64 -2.64,0.88 -3.76,1.52c-1.44,0.8 -2.4,2 -3.92,2.72c-2.08,0.88 -4.32,1.28 -6.56,1.84c-3.2,0.8 -6,1.92 -9.04,2.88c-3.52,1.2 -7.28,2.24 -10.88,3.28c-5.92,1.52 -12.32,2.16 -18.08,4.48c-6.16,2.48 -11.52,6.88 -18.24,7.36c-6.48,0.32 -12.96,2.72 -19.28,3.76c-4.88,0.8 -10,0.88 -14.8,2.16c-3.52,1.04 -7.04,1.84 -10.56,2.96c-5.92,1.92 -12.16,3.44 -18.48,3.44c-8.08,0 -16.24,0 -24.24,0h-9.6c-4.96,0 -9.68,0.8 -14.56,0.96c-14.8,0.4 -29.76,0 -44.64,0h-61.76c-5.36,0 -10.4,-0.8 -15.6,-1.04c-3.52,-0.24 -7.2,0 -10.72,0c-3.04,-0.08 -6.56,-1.2 -9.44,-2.08c-1.2,-0.4 -2.24,-1.2 -3.44,-1.52c-1.92,-0.48 -3.84,0.16 -5.76,-0.32c-1.68,-0.48 -3.52,-1.36 -5.12,-2c-2.8,-1.04 -5.76,-1.28 -8.56,-2.32c-2.4,-0.8 -4.08,-2.56 -6.32,-3.68c-1.52,-0.72 -3.2,-1.2 -4.72,-1.76c-4.96,-1.84 -9.28,-4.4 -14.48,-5.6c-2.24,-0.48 -4.4,-0.32 -6.64,-0.8c-2.4,-0.56 -4.8,-2.08 -6.88,-3.2c-2.08,-1.12 -3.92,-2.56 -6.24,-3.12c-3.44,-0.88 -6.96,-1.28 -10.24,-2.88c-2.16,-1.12 -4,-1.28 -6.64,-1.84c-4.88,-0.96 -9.36,-3.84 -14.08,-5.84c-4.08,-1.76 -8.4,-2.72 -12.48,-4.48c-2,-0.88 -4,-1.44 -6,-2.32c-2.72,-1.04 -4.96,-3.2 -7.6,-4.48c-3.44,-1.68 -7.36,-2 -10.88,-3.68c-3.2,-1.6 -5.84,-4.24 -9.28,-5.44c-1.52,-0.56 -3.2,-0.48 -4.72,-1.04c-2.08,-0.8 -4.16,-1.92 -6.24,-2.8c-2.56,-0.96 -4.08,-2.32 -6.32,-3.84c-2.4,-1.76 -5.36,-2.16 -8.08,-3.44c-2.72,-1.28 -5.12,-3.36 -8.16,-4.16c-2.32,-0.64 -3.92,-0.48 -5.84,-2c-4.32,-3.36 -8.24,-7.6 -12.88,-10.64c-4.24,-2.8 -8.32,-5.84 -12.24,-8.96c-3.2,-2.56 -6.64,-4.48 -10,-6.88c-2.4,-1.84 -5.12,-3.28 -8.08,-4.4c-2.48,-0.88 -5.76,-1.12 -8,-2.48c-3.2,-2.08 -5.44,-5.76 -8.56,-8.08c-1.84,-1.28 -3.92,-2.32 -5.6,-3.6c-1.52,-1.12 -2,-2.56 -3.2,-3.92c-1.92,-2.16 -4,-3.84 -5.6,-6.16c-1.68,-2.32 -2.88,-4.8 -4.88,-6.88c-3.12,-3.36 -7.36,-4.64 -10.24,-8.4c-1.12,-1.52 -2,-2.96 -3.6,-4.16c-2.4,-1.84 -4,-4 -6.16,-6c-1.28,-1.2 -3.04,-1.84 -4.32,-2.96c-1.2,-1.04 -2.32,-2.56 -3.52,-3.68c-4,-3.68 -7.92,-7.6 -10.96,-12.16c-2.56,-4 -5.12,-7.68 -8,-11.44c-1.36,-1.92 -2.72,-3.92 -4,-5.92c6.32,65.12 40.56,124.72 94.08,172.8c-0.8,-1.52 -1.52,-3.12 -2.32,-4.56c-3.84,-6.8 -7.84,-12.88 -8.96,-20.8c-0.08,-0.4 -0.24,-0.72 -0.24,-1.04c-2.08,-1.44 -4.48,-2.56 -6.4,-4.24c-2.56,-2.32 -4.8,-5.12 -6.4,-8.24c-0.96,-1.6 -1.6,-3.28 -2.88,-4.56c-0.96,-0.96 -2.08,-1.6 -3.04,-2.56c-1.52,-1.52 -2.24,-3.52 -3.52,-5.2c-0.88,-1.12 -2,-1.92 -2.88,-3.04c-1.84,-2.4 -3.44,-4.8 -4.96,-7.36c-1.2,-2.16 -2.64,-4.24 -4,-6.32c-1.12,-1.76 -2.72,-3.36 -3.84,-5.12c-2.16,-3.44 -4,-6.88 -5.68,-10.48c-0.8,-1.52 -1.92,-2.72 -3.04,-4.08c-1.36,-1.68 -1.92,-3.2 -2.72,-5.12c-1.36,-3.28 -1.44,-6.8 -3.12,-9.84c-0.72,-1.28 -0.72,-2.72 -1.12,-4.16c-0.56,-2.4 -1.28,-4.16 -1.28,-6.64v-5.12c0.08,-2.32 0.56,-3.2 2.8,-3.92c1.6,-0.48 1.68,-1.04 1.44,-2.72c0.56,1.44 2.96,2.88 4.24,4c2.72,2.24 4.88,4.96 7.52,7.28c2.16,1.92 4.08,4 6.32,5.92c2.72,2.4 5.6,4.56 8.24,7.12c1.68,1.76 3.44,3.52 5.12,5.2c1.28,1.36 2.88,2.4 4.24,3.6c1.04,0.88 1.76,1.84 2.72,2.72c1.36,1.2 2.8,2.32 3.92,3.76c3.36,4.24 7.36,8.32 11.6,11.6c1.52,1.12 3.36,2.24 4.8,3.52c2.08,1.28 3.84,2.88 5.84,4.32c7.52,5.6 16.4,9.36 24.24,14.72c2.4,1.68 4.8,3.2 7.2,4.72c0.24,-1.12 0.72,-2 2.4,-1.12c1.76,0.88 3.6,1.52 5.28,2.48c2.16,1.2 4.08,2.4 6.4,3.44c6.64,2.8 12.88,6.48 19.2,9.68c2.72,1.28 5.68,2.16 8.48,3.44c2.8,1.28 5.6,2.24 8.48,3.36c3.84,1.52 7.44,3.52 11.12,5.12c3.36,1.44 6.72,2.64 10,4.16c2.64,1.2 5.36,2.24 8,3.44c2.4,1.12 4.48,2.32 6.96,3.28c4.48,1.68 8.56,4.64 13.2,5.76c2,0.48 4.08,0 6.08,0.48c1.76,0.48 1.76,1.04 1.76,2.64c0,1.6 -0.24,3.52 0,5.2c0.08,0.08 0.16,0.24 0.32,0.24c7.2,3.92 14.64,6.48 22,9.92c13.04,6 24.08,12.08 38.48,15.12c10.48,2.24 21.04,1.12 31.6,3.28c1.36,0.32 2.72,0.4 4.08,0.64c-2.08,-0.72 -4.08,-1.36 -6.16,-2c-1.04,-0.24 -2.08,-0.72 -3.12,-0.96c-1.2,-0.32 -2.4,-0.16 -3.6,-0.32c-2.64,-0.32 -5.52,-0.88 -8.16,-1.52c-3.2,-0.8 -6.4,-1.2 -9.6,-1.84c-1.52,-0.32 -3.2,-0.56 -4.64,-1.12c-1.12,-0.32 -2.08,-1.04 -3.2,-1.44c-2.56,-0.72 -5.52,-1.44 -8.24,-1.76c-2.4,-0.24 -5.04,-0.32 -7.28,-1.12c-1.36,-0.4 -2.72,-1.04 -4.08,-1.52c-2.56,-0.88 -5.28,-1.44 -7.84,-2.32c-1.2,-0.32 -2.56,-0.56 -3.68,-1.12c-2,-0.96 -1.12,-2.48 -1.44,-4.24c-0.08,-0.56 -0.24,-1.52 -0.48,-2.4c0.16,0.08 0.4,0.32 0.56,0.32c2,0.96 4.08,1.6 6.16,2.32c1.92,0.64 3.68,1.28 5.44,2c1.52,0.64 2.96,1.12 4.56,1.36c2.32,0.32 4.08,1.36 6.32,2.08c2.24,0.72 4.56,1.04 6.88,1.52c2.64,0.48 5.28,1.2 8.08,1.68c4.64,0.72 9.2,1.2 13.84,1.76c3.44,0.4 6.48,1.76 9.92,2.32c2.96,0.48 5.92,0.8 8.88,1.28c5.92,0.96 12.08,0.56 18,0.56h8.08c0.48,0 2,-0.32 2.4,0c0.4,0.32 0.16,1.12 0.16,1.12v8.24c4.64,0.96 9.36,1.6 14.08,2.4c0.08,-1.2 0.32,-2.32 0.48,-3.44c0.24,-1.84 0,-4.32 0.72,-6c5.76,2.4 12.8,1.36 18.8,1.36h81.2c6.88,0 13.68,-1.36 20.48,-2.64c4.16,-0.72 8.4,-1.44 12.56,-1.6c2.88,0 5.76,0 8.64,0c4.32,-0.16 8.24,-1.68 12.4,-1.92c3.52,-0.16 7.28,-0.24 10.8,-0.96c1.76,-0.32 4.08,-0.48 5.68,-1.2c1.68,-0.8 3.76,-2.48 5.68,-2.48c1.68,0 1.68,2 2.16,3.36c0.8,2.48 1.04,4.64 1.04,7.28v9.6c0,1.76 -0.16,3.52 0,5.2c0.16,1.92 0.96,3.52 0.96,5.44c0.08,3.36 -0.08,6.56 0.48,10c0.4,2.64 1.36,5.04 2,7.6c0.48,2 0.56,4 0.8,5.92c0.32,2 1.12,3.92 1.68,5.84c0.56,2 0.96,4 1.12,6c0.08,0.88 0.48,1.84 0.48,2.64c-0.8,0.24 -1.52,0.08 -2.32,0.4c-0.88,0.24 -1.6,0.64 -2.4,0.96c-0.96,0.32 -1.52,0.64 -2.32,1.12c-1.04,0.48 -2,0.32 -3.12,0.64c-1.36,0.32 -2.56,1.12 -3.84,1.68c-1.92,0.72 -3.76,0.8 -5.52,1.84c-1.2,0.72 -4.4,2.56 -5.76,1.84c-1.84,-0.96 -1.12,-3.68 -2.08,-5.04c-0.64,-0.88 -1.76,-1.12 -2.56,-1.76c-0.56,-0.4 -1.04,-1.12 -1.68,-1.52c-1.12,-0.64 -2,-0.56 -2.96,-1.52c-0.8,-0.72 -1.28,-1.28 -2.24,-1.84c-1.52,-0.88 -3.2,-1.76 -4.72,-2.4c-3.28,-1.28 -6.4,-1.92 -9.52,-3.44c-2.16,-1.12 -4.16,-2 -6.32,-2.96c-1.92,-0.8 -3.44,-2.08 -5.2,-3.04c-5.92,-2.96 -12.24,-4.48 -18.56,-6.4c-4.4,-1.28 -8.88,-2.4 -13.2,-3.76c-2.88,-0.96 -5.68,-2.08 -8.56,-3.12c-5.28,-1.76 -10.56,-3.28 -16,-4.4c-3.2,-0.64 -6,-2 -8.96,-3.04c-4.24,-1.44 -8.72,-2.08 -12.96,-3.52c-2.08,-0.88 -4.16,-1.52 -6.24,-2c-1.92,-0.24 -3.76,-0.48 -5.6,-0.64c-2.72,-0.4 -5.44,-1.12 -8.16,-1.6c-0.88,-0.16 -1.68,-0.24 -2.56,-0.4c5.36,1.6 10.72,3.28 16,4.96c8.48,2.72 17.04,4.48 25.68,5.68c7.92,1.2 15.12,6.88 22.56,10.16c8.88,4 17.92,7.68 26.88,11.6c4.64,1.92 9.84,3.2 13.76,6.48c2.72,2.24 4.64,5.2 7.44,7.44c3.12,2.48 4.32,5.12 6.72,8.24c2.24,2.88 5.44,4.24 7.76,6.8zM775.48,861.8c1.6,-0.72 6.16,-1.84 6.16,-3.76c0,-1.44 -2.16,-4.56 -2.88,-6c-1.04,-2.32 -2.08,-4.64 -3.12,-6.96c-2.72,-5.84 -5.04,-11.92 -8,-17.6c-3.12,-6.16 -8.32,-11.2 -12.32,-16.88c-4.32,-6 -6.72,-13.92 -9.84,-20.8c-1.68,-3.76 -3.44,-7.52 -5.12,-11.28c-1.2,-2.72 -2.32,-7.68 -4.56,-9.68c-0.24,0.08 -0.48,0.24 -0.8,0.24c-17.84,11.2 -25.12,15.2 -32.4,17.68c-3.04,1.04 -6.48,1.04 -9.76,2.24c-2.08,0.8 -4.08,1.2 -6.24,1.92c-2.8,0.8 -5.2,2.48 -7.92,3.52c-2.64,0.88 -5.6,0.72 -8.32,1.2c-2.8,0.48 -5.36,1.52 -8.24,2c-6.32,1.04 -13.12,1.84 -19.6,2.16c-3.52,0.08 -6.72,-0.88 -10.16,-1.12c-2.32,-0.24 -4.56,0.48 -6.88,0.24c-5.2,-0.56 -11.28,-2 -16.24,-3.68c-2.72,-0.96 -11.36,-6.72 -10.24,-0.32c0.32,1.6 -0.08,3.44 -0.4,4.96c-0.32,1.92 -1.52,3.84 -1.12,5.68c0.96,4.56 -4.4,4.88 -2.48,9.2c0.72,1.44 -2.56,7.04 -2.88,8.72c-0.4,2.4 -1.76,4.56 -2.48,6.88c-1.44,4.72 -2.96,9.28 -3.92,14.16c-0.64,3.04 -0.32,6.32 -0.64,9.44c-0.32,2.72 -1.44,4.64 -2.4,7.28c-0.8,2.24 -0.88,4.72 -1.68,6.88c-1.68,4.48 -6,7.28 -7.44,11.92c-1.2,4.24 -2.56,8.16 -4,12.32c-0.72,1.92 -1.6,3.68 -0.48,5.44c1.92,3.12 -5.28,3.76 -2.16,3.92c4.96,0.16 73.6,-6.96 78.4,-8.24c5.6,-1.44 11.44,-1.6 17.12,-1.44c3.84,0.08 7.6,0.64 11.44,1.04c4.64,0.48 8.4,-1.04 12.88,-1.92c2.16,-0.48 4.32,-0.64 6.48,-1.12c4.08,-0.88 8.16,-2.8 12.08,-4.08c4.24,-1.44 8.64,-2.32 12.96,-3.44c1.68,-0.4 3.44,-0.8 5.12,-1.28c2,-0.48 4,0.08 6,-0.64c1.28,-0.4 2.48,-1.28 3.76,-1.76c2.08,-0.72 4.24,-0.8 6.24,-1.68c8.88,-3.6 17.52,-6.88 26.16,-10.72c3.28,-1.52 6.56,-3.04 9.84,-4.48zM945.4,761.08c1.92,-2.32 4.08,-5.52 5.12,-8.32c-4.32,-0.4 -6.48,-7.28 -8.56,-10.24c-2.32,-3.36 -4.4,-6.8 -6.8,-10.24c-3.52,-4.96 -5.68,-10.96 -8.24,-16.64c-2.64,-5.84 -5.28,-11.68 -7.92,-17.52c-0.88,-1.92 -2.08,-3.92 -2.72,-5.92c-0.8,-2.4 -0.88,-4.48 -2,-6.88c-1.04,-2.24 -2,-4.48 -3.04,-6.72c-1.04,-2.24 -1.28,-4 -1.92,-6.32c-1.12,-4.24 -3.84,-8.72 -5.68,-12.64c-1.2,-2.64 -0.8,-5.12 -1.36,-7.92c-0.48,-2.16 -1.36,-4.64 -0.72,-6.96l0.56,-0.24c-0.16,-0.16 -0.32,-0.32 -0.48,-0.56c0,0.24 0,0.8 0,0.8l-12.48,5.68c-3.2,2.16 -5.12,5.76 -7.84,8.4c-4,4.08 -8.56,7.12 -13.12,10.56c-2.56,1.84 -4.72,4.08 -7.28,5.84c-3.84,2.64 -7.84,5.04 -11.44,8c-5.2,4.32 -9.44,9.52 -14.8,13.68c-6.56,5.04 -10.96,12.32 -17.68,17.28c-3.36,2.4 -6.16,5.52 -9.52,7.92c-2.08,1.44 -4.56,2.24 -6.4,4.08c-1.28,1.36 -2.16,2.8 -3.76,3.92c-4,2.56 -7.84,5.12 -11.52,8.24c-3.2,2.72 -6.64,5.28 -10,8c-1.2,1.04 -2.16,2.32 -3.44,3.2c-1.44,1.12 -2.24,1.04 -2.72,3.04c-0.56,2.24 -0.32,4.72 0.56,6.72c2.24,5.68 4.72,12.8 8.4,17.6c2.88,3.76 3.92,8.88 6.32,13.04c1.28,2.32 2.88,4.08 4,6.64c1.84,4 3.68,7.28 5.92,11.04c1.92,3.28 3.12,7.12 4.8,10.56c0.96,2.16 2.56,3.68 3.6,5.68c1.6,3.28 2.64,6.96 4.56,10.08c1.12,1.68 2.32,3.04 3.2,4.88c0.64,1.44 1.04,3.04 2,4.24c2.4,-0.16 5.76,-2.4 8,-3.44c2.4,-1.2 4.88,-2.24 7.36,-3.36c6.24,-2.88 12.72,-5.36 18.4,-9.12c2.08,-1.44 4.48,-2.08 6.64,-3.2c3.52,-1.68 6.64,-3.76 10.08,-5.52c4,-2.16 8.16,-3.6 12.08,-5.68c4.32,-2.24 8.4,-5.2 12.24,-8.24c3.12,-2.4 6.56,-4.32 9.84,-6.48c5.12,-3.44 10.56,-6.16 15.76,-9.6c2.8,-1.92 5.68,-4.4 8.4,-6.56c1.68,-1.28 3.2,-2.64 4.56,-4.08c1.76,-1.76 3.76,-3.52 5.68,-5.04c1.12,-1.04 2.72,-1.52 3.84,-2.48c1.04,-0.88 1.44,-2.16 2.4,-3.04c1.36,-1.28 2.64,-1.68 3.92,-3.04c1.12,-1.04 2.16,-2.32 3.12,-3.44z" /> <path d="M724.12,639.08c0.24,1.36 0.96,3.2 0.48,4.56c-0.32,0.96 0.4,0.56 -1.12,1.12c-1.04,0.32 -2.16,0.64 -3.12,1.04c-1.28,0.48 -2.32,1.2 -3.44,2c-3.52,2.32 -7.28,4.64 -11.04,6.4c-5.68,2.56 -11.36,4.64 -16.88,7.52c-2.72,1.44 -5.52,3.04 -8.32,4.48c-4.4,2.4 -8.88,3.92 -13.68,5.44c-4.72,1.6 -9.44,3.52 -13.84,5.68c-2.72,1.36 -5.52,2.8 -8.4,4.08c-4.4,1.92 -9.04,4.4 -13.84,5.2c-4.8,0.88 -9.76,0.48 -16.48,0c-0.96,-2.32 -0.4,-4.88 -0.64,-7.36c-0.32,-3.36 -1.04,-6.56 -1.44,-9.84c-0.32,-3.36 -1.28,-6.64 -1.28,-10.08c0,-2.56 0,-5.12 0,-7.68c0,-2.24 -0.72,-4.24 -0.96,-6.48c-0.16,-1.92 -0.56,-3.76 -1.04,-5.52c-0.48,-2.24 -0.72,-4.48 -1.12,-6.72c-0.4,-1.84 -0.48,-3.92 -1.12,-5.68c-0.72,-1.92 -0.48,-4.24 -0.48,-6.32c0.08,-1.36 0.32,-1.04 1.36,-1.52c2.08,-1.04 4,-2.16 6.24,-2.8c0.96,-0.24 1.44,-0.4 2.4,-0.88c1.84,-0.88 3.84,-1.12 5.68,-1.84c2.48,-0.88 4.88,-2.16 7.44,-2.8c0.8,-0.32 1.6,-0.16 2.4,-0.32c2.4,-0.56 4.72,-1.6 7.04,-2.48c2.16,-0.88 4.32,-1.52 6.64,-2.08c3.36,-0.96 6.32,-2.56 9.68,-3.44c3.76,-0.96 7.52,-1.76 11.2,-2.8c2,-0.56 3.92,-0.88 5.92,-1.36c2.32,-0.56 4.16,-1.52 6.32,-2.32c1.68,-0.64 3.44,-0.72 5.12,-1.28c1.28,-0.32 2.32,-0.88 3.44,-1.28c3.52,-1.28 7.52,-1.68 11.12,-2.64c1.76,-0.48 3.28,-1.52 5.04,-2c3.44,-0.96 6.96,-1.44 10.32,-2.8c0.96,-0.32 1.84,-0.88 2.88,-1.12c0.8,-0.16 0.8,-0.56 0.96,0.88c0.08,1.04 0,2.16 -0.16,3.2c-0.32,2.96 -0.48,5.76 -0.8,8.72c-0.32,3.28 -0.24,6.72 1.12,9.84c1.04,2.32 2.8,4.32 3.6,6.8c0.32,1.2 0.32,2.32 0.64,3.44c0.24,0.96 0.88,1.68 1.12,2.64c0.48,2.08 0,4.72 0,6.8c0,2.32 -0.08,4.72 0.4,7.04c0.32,1.52 0.32,3.12 0.64,4.56z" /> <path d="M805.24,582.52c0,0.88 -0.16,1.6 0,2.4c0.08,0.4 0.48,0.8 0.48,1.28c0.16,1.36 -0.8,1.28 -1.84,1.84c-2.32,1.2 -4,4.48 -5.6,6.4c-2.88,3.52 -5.92,6.64 -9.04,9.92c-2.48,2.48 -5.44,3.76 -8.32,5.68c-1.76,1.2 -3.04,3.12 -4.72,4.48c-1.92,1.44 -3.68,2.96 -5.6,4.24c-1.84,1.2 -3.76,2.4 -5.44,3.76c-4.16,3.2 -8.4,6 -12.48,9.04c-1.6,1.12 -2.88,1.92 -4.8,2.24c-0.56,-0.56 -0.64,-1.2 -0.4,-2l-5.68,5.2c-1.84,-0.32 -0.64,-4.48 -0.64,-5.52c0.48,-3.76 0.08,-7.68 -0.24,-11.52c-0.24,-4.4 0,-8.8 0,-13.2c0,-4.4 -0.96,-8.56 -0.96,-12.96c0,-1.2 0,-2.56 0,-3.76c0,-1.28 -0.48,-2.24 -0.48,-3.44c0,-1.04 0.32,-2.32 0,-3.52c-0.32,-1.2 -1.2,-1.92 -1.84,-2.88c-0.48,-0.8 -0.64,-1.52 -1.04,-2.4c-0.16,-0.4 -1.04,-1.44 -0.88,-1.92c0.16,-0.64 1.44,-0.56 2,-0.8c1.12,-0.32 2,-0.8 3.12,-1.2c1.76,-0.64 3.2,-2 4.8,-2.88c2.24,-1.12 4.4,-2.48 6.64,-3.6c2.56,-1.28 4.88,-2.56 7.28,-4.16c1.76,-1.2 3.76,-2.24 5.68,-2.96c2.4,-0.88 4.64,-2.48 7.2,-3.2c2.48,-0.64 4.4,-2 6.64,-3.2c3.52,-2 6.88,-3.92 10.24,-6.24c1.6,-1.12 3.28,-2.4 4.96,-3.44c0.96,-0.48 1.76,-1.04 2.64,-1.6c0.88,-0.64 1.6,-1.76 2.72,-2c0.88,1.44 1.2,3.52 1.76,4.96c0.56,1.44 1.12,2.96 1.68,4.4c0.88,2.4 1.28,4.8 1.28,7.36v13.84c-0.08,2.4 0.48,4.64 0.48,7.04c0.08,1.44 0.16,2.8 0.4,4.24z" /> <path d="M830.12,566.04c-0.88,0.56 -1.6,0.96 -2.4,1.68c-0.8,0.72 -1.44,1.44 -2.32,2.08c-1.04,0.8 -2,1.52 -3.12,2.08c-1.12,0.56 -2.48,0.48 -2.96,-1.68c0.16,-1.44 0,-3.04 0,-4.48c0,-2.96 0.24,-6.08 -0.56,-8.96c-0.64,-2.16 -1.92,-3.92 -2.64,-6c-0.88,-2.56 -1.04,-5.12 -1.28,-7.76c-0.32,-4 -1.2,-7.84 -2.4,-11.6c-0.32,-0.96 -1.12,-2.48 -0.8,-3.6c1.68,-0.48 3.12,0.24 4.72,-0.48c2.4,-1.04 4.56,-2.48 6.8,-3.92c3.44,-2.16 6.88,-4.4 10.4,-6.48c1.6,-0.96 3.44,-1.68 4.96,-2.72c1.68,-1.12 2.88,-2.48 4.32,-3.84c1.04,-0.88 2.16,-1.36 3.12,-2.32c1.2,-1.12 1.76,-1.6 3.04,-2.56c1.6,-1.12 2.64,-2.56 3.84,-4c1.04,-1.2 1.92,-1.76 3.04,-2.72c0.56,-0.48 0.64,-1.04 1.2,-1.6c0.64,-0.56 1.2,-0.72 1.84,-1.44c1.52,-1.6 2.96,-2.8 5.2,-3.2c0.88,-0.16 1.28,-0.16 0.88,1.28c-0.56,2.24 -2.16,4.24 -3.2,6.32c-1.36,2.56 -2.24,5.28 -3.2,8.08c-0.96,2.64 -2.16,5.04 -3.44,7.6c-1.12,2.08 -2,4.24 -3.04,6.4c-1.04,2.16 -2.24,4.16 -3.28,6.24c-0.88,1.84 -1.04,3.84 -1.76,5.68c-0.96,2.88 -2.48,5.44 -4.08,8c-1.12,1.76 -2.32,3.36 -3.12,5.2c-1.2,2.64 -2.08,5.52 -3.44,8.24c-1.12,2.08 -2.16,4.08 -3.44,6c-0.96,1.36 -1.92,3.28 -3.28,4.32z" /> <path d="M291.88,610.6c-0.8,-0.4 -1.76,-1.04 -1.76,-1.92c0.88,-0.16 1.44,0.8 1.76,1.92z" /></svg>