<svg xmlns="http://www.w3.org/2000/svg" viewBox="0 0 808 844" width="808" height="844"><path d="M788,0.4l19.7,42l-314.1,376.9v406.7l-43.7,18.1l-128,-128l-7.5,-18.1v-278.7l-314.1,-376.9l19.7,-42zM359.7,393.6l5.9,16.4v277.4l76.8,76.8v-354.2l5.9,-16.4l285,-342h-658.6zM414.1,162.5c28,12 54.216,22.713 75.7,25.1c21.484,2.387 37.128,-0.728 56.1,-19.7l36.2,36.2c-29.028,29.028 -65.384,37.913 -97.9,34.3c-32.516,-3.613 -62.3,-16.9 -90.3,-28.9c-28,-12 -54.216,-22.713 -75.7,-25.1c-21.484,-2.387 -37.128,0.728 -56.1,19.7l-36.2,-36.2c29.028,-29.028 65.384,-37.913 97.9,-34.3c32.516,3.613 62.3,16.9 90.3,28.9z" /></svg>