<svg xmlns="http://www.w3.org/2000/svg" viewBox="0 0 748 960" width="748" height="960"><path d="M143.466,959.158c-32.682,-4.615 -54.85,-20.657 -68.015,-49.218c-7.983,-17.318 -10.004,-27.566 -11.41,-57.859c-0.701,-15.108 -1.662,-28.76 -2.135,-30.338c-1.159,-3.871 3.854,-10.048 9.087,-11.197c5.257,-1.154 12.496,2.47 13.379,6.697c0.361,1.729 1.672,8.452 2.916,14.938c6.667,34.799 19.919,53.876 39.715,57.172c12.855,2.14 44.123,-9.415 55.83,-20.632c5.694,-5.456 6.571,-7.055 6.571,-11.974c0,-4.642 -1.055,-6.876 -5.787,-12.252c-7.704,-8.752 -14.076,-12.961 -38.847,-25.664c-11.477,-5.885 -24.715,-13.44 -29.418,-16.789c-16.229,-11.556 -30.017,-28.904 -40.062,-50.409c-9.092,-19.465 -10.504,-26.677 -10.528,-53.797c-0.024,-27.007 1.295,-33.406 12.628,-61.276c11.757,-28.91 11.827,-37.051 0.592,-68.904c-16.424,-46.569 -20.764,-67.834 -18.83,-92.272c2.11,-26.663 8.941,-49.489 20.9,-69.84c7.442,-12.664 21.981,-28.913 26.995,-30.172c4.816,-1.208 10.757,1.816 13.077,6.658c1.602,3.344 1.552,4.9 -0.339,10.45c-6.354,18.65 -0.191,32.594 20.652,46.729c15.999,10.85 19.693,20.641 15.956,42.293c-2.803,16.244 -2.801,23.257 0.007,26.066c2.754,2.754 5.261,2.791 10.366,0.151c8.435,-4.361 12.171,-10.703 20.775,-35.267c13.972,-39.887 41.801,-80.711 74.759,-109.671c18.314,-16.092 21.48,-21.746 21.48,-38.362c0,-11.236 -1.299,-17.531 -11.166,-54.106c-8.709,-32.288 -6.771,-74.679 4.897,-107.056c8.784,-24.374 20.55,-43.352 45.943,-74.103c25.517,-30.902 31.311,-40.852 36.413,-62.54c1.731,-7.357 3.734,-15.782 4.452,-18.722c1.454,-5.96 5.887,-8.924 11.308,-7.564c2.455,0.616 4.756,3.845 8.908,12.504l5.598,11.674v22.538c0,12.396 -0.876,37.751 -1.945,56.346c-2.422,42.079 -1.506,103.384 1.851,123.96c4.824,29.572 12.898,54.895 21.426,67.2c10.009,14.443 28.592,16.357 35.177,3.623c4.587,-8.87 4.18,-19.811 -1.588,-42.742c-6.341,-25.206 -7.412,-38.195 -4.348,-52.732c6.525,-30.963 27.83,-52.204 54.593,-54.43c10.237,-0.852 10.966,-0.716 14.343,2.66l3.557,3.557l-0.238,31.502c-0.308,40.882 0.285,43.372 19.596,82.213c19.637,39.499 20.799,43.981 20.817,80.292c0.008,22.488 -0.611,31.92 -3.081,46.743c-1.702,10.214 -3.095,24.185 -3.095,31.046c0,20.443 3.172,29.194 21.328,58.849c12.471,20.368 12.858,21.818 15.244,57.05c1.503,22.192 3.984,30.611 10.785,36.582c9.128,8.015 19.09,4.867 25.426,-8.034c3.937,-8.017 3.988,-8.452 3.945,-33.478c-0.048,-27.788 -2.353,-42.304 -10.655,-67.083c-4.983,-14.872 -5.054,-17.307 -0.636,-21.726c5.26,-5.261 13.05,-4.792 18.6,1.12c17.015,18.123 29.062,49.297 36.609,94.731c2.108,12.695 2.57,23.387 2.552,59.163c-0.024,45.063 -0.93,56.594 -7.76,98.604c-3.015,18.546 -3.484,32.512 -1.35,40.194c5.08,18.285 24.362,31.402 39.495,26.869c8.262,-2.476 11.959,-7.038 13.965,-17.235c3.464,-17.608 14.859,-20.723 23.275,-6.364c4.431,7.561 4.744,18.444 0.946,32.912c-6.263,23.858 -23.909,44.132 -48.767,56.031c-18.502,8.857 -27.406,10.781 -53.556,11.576c-26.371,0.802 -42.608,-1.074 -82.538,-9.541c-14.406,-3.054 -29.76,-5.553 -34.119,-5.553h-7.927l-5.602,11.737c-18.199,38.129 -57.005,66.708 -106.629,78.526c-39.273,9.353 -92.761,9.268 -132.932,-0.213c-11.452,-2.703 -12.029,-2.715 -13.732,-0.304c-7.03,9.953 -21.104,20.455 -37.433,27.931c-18.852,8.631 -51.755,13.424 -72.267,10.527zM351.821,767.512c3.72,-1.402 12.911,-6.052 20.425,-10.331c12.028,-6.851 15.348,-8.055 27.749,-10.067c27.523,-4.464 42.646,-11.674 58.697,-27.983c13.536,-13.754 21.162,-27.618 23.153,-42.087c1.3,-9.455 7.773,-15.127 17.257,-15.127c14.522,0 26.883,7.542 29.738,18.145c1.313,4.879 1.104,7.3 -1.308,15.111c-3.796,12.292 -3.671,16.785 0.585,21.041c7.213,7.213 19.887,2.583 25.86,-9.448c8.857,-17.842 3.631,-41.419 -12.832,-57.882c-13.365,-13.365 -32.814,-21.474 -61.679,-25.717c-17.549,-2.579 -22.606,-4.739 -26.744,-11.422c-3.496,-5.645 -3.459,-11.067 0.097,-14.624c2.437,-2.437 4.695,-2.817 16.714,-2.817c11.861,0 14.432,-0.422 17.556,-2.878c8.072,-6.349 6.058,-15.271 -7.646,-33.877c-20.785,-28.22 -53.029,-45.407 -85.082,-45.352c-22.954,0.04 -47.062,10.897 -68.308,30.768c-8.751,8.183 -12.138,10.489 -15.407,10.489c-6.81,0 -11.134,-2.855 -14.332,-9.46c-6.102,-12.605 -0.767,-44.004 9.385,-55.242c6.485,-7.178 12.779,-8.68 34.43,-8.218c16.061,0.343 18.139,0.093 23.651,-2.851c3.323,-1.775 6.732,-4.739 7.574,-6.587c1.975,-4.336 0.499,-10.119 -3.072,-12.03c-1.542,-0.825 -12.786,-2.782 -24.986,-4.35c-29.428,-3.78 -39.788,-2.184 -53.498,8.237c-11.377,8.648 -17.042,20.696 -29.302,62.329c-4.449,15.108 -9.678,32.54 -11.62,38.737c-2.931,9.353 -3.537,14.142 -3.57,28.173c-0.035,14.423 0.519,18.738 3.771,29.41c10.796,35.432 33.355,67.001 56.071,78.469c11.98,6.048 22.191,7.401 41.494,5.499c16.606,-1.636 20.124,-1.033 24.082,4.12c3.908,5.092 2.163,10.067 -6.294,17.942c-9.602,8.94 -16.58,12.62 -27.912,14.718c-14.488,2.682 -50.509,-1.309 -65.639,-7.272c-4.067,-1.603 -13.028,-6.658 -19.916,-11.234c-17.351,-11.528 -25.196,-12.581 -28.326,-3.804c-3.704,10.388 16.158,30.663 39.712,40.537c23.645,9.911 71.705,13.639 89.475,6.939zM371.053,653.023c-24.19,-6.782 -32.05,-37.859 -13.658,-54.007c15.298,-13.432 40.34,-9.897 50.991,7.196c3.549,5.696 4.163,8.096 4.163,16.261c0,8.171 -0.617,10.576 -4.201,16.373c-7.703,12.459 -22.863,18.222 -37.295,14.176zM502.865,764.722c6.414,-3.965 9.359,-9.071 9.47,-16.423c0.08,-5.237 -0.643,-7.029 -4.31,-10.696c-3.608,-3.608 -5.675,-4.463 -11.422,-4.728c-6.549,-0.301 -7.35,0.048 -12.019,5.213c-4.079,4.515 -5.001,6.64 -4.997,11.519c0.016,14.308 11.994,22.087 23.277,15.114zM206.644,690.127c11.017,-8.666 9.599,-24.513 -2.717,-30.357c-11.715,-5.559 -24.382,3.041 -24.382,16.553c0,12.433 17.506,21.35 27.099,13.804zM439.578,464.143c3.926,-3.926 4.79,-5.856 4.79,-10.705c0,-8.102 -7.054,-15.495 -14.784,-15.495c-15.36,0 -23.091,17.903 -11.824,27.383c6.629,5.577 15.541,5.094 21.818,-1.183zM16.803,798.451c-5.489,-1.578 -9.802,-5.643 -13.337,-12.573c-9.401,-18.427 7.191,-36.033 25.268,-26.811c7.664,3.91 11.355,10.486 11.355,20.234c0,6.787 -0.6,8.568 -4.312,12.796c-5.57,6.344 -11.777,8.422 -18.974,6.353zM726.721,675.906c-18.941,-5.505 -12.932,-34.513 6.607,-31.892c11.797,1.582 18.079,16.43 10.842,25.63c-2.449,3.113 -10.957,8.212 -12.748,7.64c-0.218,-0.072 -2.334,-0.69 -4.701,-1.378zM602.135,380.598c-15.869,-5.835 -17.138,-38.594 -1.746,-45.025c6.472,-2.704 14.735,-0.626 18.133,4.559c3.207,4.895 5.423,27.967 3.202,33.33c-2.654,6.408 -12.157,9.869 -19.59,7.136zM129.43,335.328c-9.331,-4.349 -11.911,-16.116 -6.875,-31.356c2.897,-8.767 7.372,-12.68 15.557,-13.602c17.171,-1.935 25.166,13.664 17.09,33.342c-5.155,12.56 -14.605,16.82 -25.772,11.616zM490.17,103.696c-5.786,-5.786 -8.357,-16.832 -7.473,-32.107c1.576,-27.218 18.34,-37.803 31.402,-19.826c9.555,13.15 10.196,28.452 1.931,46.054c-5.278,11.24 -17.679,14.06 -25.859,5.88z" /></svg>