<svg xmlns="http://www.w3.org/2000/svg" viewBox="0 0 1024 1024" width="1024" height="1024"><path d="M952.436,0.062l-413.122,412.974v0c-3.922,3.866 -7.728,5.978 -11.79,5.97v0c-7.186,-0.014 -13.246,-4.926 -15.116,-11.63v0c-0.386,-1.38 -0.594,-4.076 -0.594,-5.586v-165.596v0c-44.556,0 -114.634,-2.306 -148.306,4.278v0c-96.388,15.488 -125.118,84.478 -125.118,192.894v278.896l-238.39,238.628v-549.034v0c0,-261.694 124.204,-401.856 367.562,-401.856zM1024,73.12v549.028v0c0,261.684 -124.21,401.852 -367.564,401.852l-584.874,-0.066l413.124,-412.966v0c3.924,-3.854 7.726,-5.974 11.79,-5.966v0c7.19,0.008 13.248,4.918 15.112,11.63v0c0.388,1.378 0.594,4.082 0.594,5.582v165.594v0c44.556,0 114.64,2.304 148.312,-4.278v0c96.38,-15.48 125.116,-84.48 125.116,-192.894v-278.89z" /></svg>