<svg xmlns="http://www.w3.org/2000/svg" viewBox="0 0 1024 1024" width="1024" height="1024"><path d="M1024,515.5c0,284.704 -229.23,515.5 -512,515.5c-282.77,0 -512,-230.796 -512,-515.5c0,-284.704 229.23,-515.5 512,-515.5c282.77,0 512,230.796 512,515.5zM448,512c0,-88.366 -71.634,-160 -160,-160c-88.366,0 -160,71.634 -160,160c0,88.366 71.634,160 160,160c88.366,0 160,-71.634 160,-160zM896,512c0,-88.366 -71.632,-160 -160,-160c-88.368,0 -160,71.634 -160,160c0,88.366 71.632,160 160,160c88.368,0 160,-71.634 160,-160z" /></svg>