<svg xmlns="http://www.w3.org/2000/svg" viewBox="0 0 932 784" width="932" height="784"><path d="M860.688,149.213c64.738,34.788 73.789,156.409 70.461,213.292c-1.287,21.564 -5.501,54.443 -20.322,92.957c1.953,-32.968 2.13,-113.28 -46.545,-195.722c-32.569,-55.287 -73.879,-89.053 -99.791,-106.979l-0.975,-0.577c-7.144,-3.772 -23.828,-12.735 -31.193,-31.415c-3.106,-7.808 -3.239,-14.11 -3.328,-18.325c-0.045,-1.154 -0.089,-2.751 -0.178,-3.239c-0.531,-0.044 -3.903,-0.266 -6.3,-0.488c-5.856,-0.534 -13.887,-1.287 -23.117,-5.325c-15.619,-6.744 -24.138,-18.193 -28.265,-23.694l-1.154,-1.552c-11.36,-14.199 -69.264,-27.688 -142.964,-24.582c-31.724,1.332 -60.921,5.414 -86.213,11.803c39.534,18.948 86.612,46.59 141.943,83.374c87.944,58.524 106.137,82.397 119.403,99.834c3.504,4.571 6.522,8.564 10.427,12.602c3.683,3.816 5.858,5.146 7.987,6.389c3.017,1.865 7.188,4.349 10.693,10.383c6.966,12.024 4.835,23.206 3.283,31.37c-1.243,6.345 -1.552,9.008 -0.133,11.448c0.799,1.33 1.598,1.863 3.949,3.372c3.727,2.397 10.027,6.389 13.001,15.441c5.856,18.015 -7.765,34.964 -12.247,40.511c-15.441,19.566 -11.403,66.512 -8.12,104.227c1.776,20.633 2.22,34.565 2.619,39.579c2.928,34.92 -12.689,91.448 -97.35,185.161c20.589,-41.842 49.341,-115.366 48.01,-209.166c-0.577,-42.509 -7.234,-79.336 -15.043,-108.799l-1.065,-2.085c-5.501,-10.828 -15.663,-30.971 -8.12,-52.403c2.529,-7.143 6.256,-12.069 9.23,-16.062c3.15,-4.215 3.949,-5.545 3.993,-7.365c0.133,-5.236 -6.213,-11.359 -8.564,-13.667c-85.903,-82.93 -163.287,-139.903 -223.542,-166.126c24.625,33.945 51.691,77.56 81.243,131.117c51.072,92.425 56.219,122.02 59.946,143.585c1.908,11.048 3.283,18.989 10.782,33.81c2.618,5.191 5.768,15.663 6.034,28.131c0.62,27.91 -14.864,49.118 -19.967,56.041c-68.022,93.179 -90.208,123.574 -100.102,133.468l0.533,0.533l-24.98,25.779l-127.788,109.641c55.775,-64.471 95.31,-122.952 122.376,-167.723c59.678,-98.593 59.058,-129.164 51.913,-145.049c-2.928,-6.477 -10.87,-24.093 -2.706,-40.555c6.344,-12.779 17.969,-16.595 25.69,-19.079c1.953,-0.623 4.926,-1.598 5.769,-2.175c2.973,-4.347 1.509,-31.147 -24.005,-84.837c-37.493,-78.892 -100.457,-163.774 -150.019,-192.837c-12.07,52.669 -33.68,100.722 -34.877,103.341c-41.708,91.714 -49.473,211.073 -55.153,298.218l-13.976,-0.932l13.976,1.11c-3.46,53.422 -16.772,83.551 -39.49,89.585c-9.23,2.44 -17.084,0 -23.384,-1.953c-5.369,-1.641 -9.984,-3.017 -16.373,-2.484c-9.629,0.886 -19.301,7.01 -28.797,18.147c-2.662,3.151 -6.566,4.925 -10.693,4.925h-0.178c-18.504,-0.222 -33.544,-5.501 -44.638,-15.574c-23.206,-21.077 -20.855,-55.775 -19.834,-70.55l0.089,-1.331c5.369,-81.82 -19.923,-192.038 -46.501,-247.28c-7.5,-15.617 -12.069,-32.079 -16.462,-47.964c-3.727,-13.399 -7.232,-26.045 -12.335,-37.981c-3.15,-7.41 -11.359,-26.578 -4.038,-46.634c3.594,-9.762 10.295,-18.282 19.967,-25.292c5.016,-3.638 22.719,-15.13 41.266,-11.137c24.804,5.325 41.31,34.566 38.604,68.11c0.132,77.161 11.359,216.309 84.837,286.149c20.987,20.012 28.219,20.278 30.394,19.479c5.458,-1.998 7.055,-32.258 8.342,-56.574c1.376,-26.713 3.107,-59.903 8.83,-101.256c9.185,-66.246 23.429,-126.501 24.049,-129.031c2.839,-11.936 5.545,-22.407 7.942,-31.814c9.494,-36.917 14.242,-55.421 7.365,-77.251l-0.399,-1.154c-1.376,-4.347 -3.861,-12.202 -5.192,-22.318c-0.178,-0.666 -0.444,-1.287 -0.577,-1.953c-1.065,-4.881 -1.065,-9.583 -0.399,-13.976c0.044,-2.752 0.177,-5.636 0.488,-8.564c1.021,-9.894 4.082,-39.978 26.933,-51.426c10.826,-5.412 23.96,-3.46 35.541,2.397c48.01,-15.485 125.659,-21.83 234.856,-19.168c84.793,2.04 118.116,9.052 137.684,14.997c3.461,1.019 6.788,1.774 9.983,2.484c8.696,1.953 17.659,3.992 26.889,10.471c6.08,4.26 9.85,8.431 12.602,11.492c3.061,3.372 3.949,4.258 6.433,5.146c3.239,1.154 5.636,0.799 9.94,0c5.325,-0.976 13.4,-2.485 21.698,2.44c12.78,7.587 17.615,24.759 14.332,50.982c-0.222,1.863 -0.267,2.884 -0.311,3.594c0,0.133 -0.044,1.021 -0.044,1.154c-1.154,15.043 55.42,45.348 55.42,45.348z" /></svg>