<svg xmlns="http://www.w3.org/2000/svg" viewBox="0 0 822 1024" width="822" height="1024"><path d="M821.536,0c-31.074,143.212 -87.82,162.126 -149.968,162.126c-49.99,0 -108.086,-12.16 -167.532,-24.316l-51.944,246.19h214.908l-44.072,128h-197.844l-108.026,512h-316.594v-24.672c234.86,-95.168 315.778,-888.542 315.778,-888.542c-98.63,4.052 -175.636,63.5 -175.636,267.51c0,72.954 12.156,89.17 18.914,104.034c-95.924,0 -144.564,-33.78 -144.564,-136.458c0,-174.288 140.508,-345.872 441.792,-345.872c93.228,0 151.322,16.208 241.848,16.208c44.578,0 85.114,-4.048 122.94,-16.208z" /></svg>