<svg xmlns="http://www.w3.org/2000/svg" viewBox="0 0 893 896" width="893" height="896"><path d="M275.995,423.361c-5.424,0.911 -4.093,0.792 -3.003,0.084c-2.254,-0.296 -3.88,1.57 -5.924,2.045c-1.627,0.321 -3.422,0.084 -5.09,0.084c-3.463,0 -7.384,0.471 -10.807,-0.119c-2.962,-0.496 -5.592,-1.68 -8.639,-1.917c-3.213,-0.352 -6.135,-0.119 -9.305,-0.827c-5.382,-1.229 -10.35,-2.057 -15.982,-2.294c-4.798,-0.166 -9.429,-1.302 -14.27,-1.421c-12.182,-0.471 -24.327,0.355 -36.509,-0.59c-4.422,-0.238 -8.846,-0.119 -13.268,-0.119c-5.505,0 -11.096,-0.356 -16.605,0.119c-7.008,0.543 -13.644,2.591 -20.528,3.796c-4.088,0.742 -8.219,1.052 -12.308,1.997c-1.546,0.381 -7.43,2.651 -9.098,1.586c-0.96,-0.582 -1.163,-1.931 -1.375,-2.876c-0.836,3.037 -2.796,5.926 -4.049,8.882c-1.249,2.886 -2.294,5.842 -3.503,8.764c-1.668,3.965 -3.044,7.429 -5.424,11.06c-2.919,4.499 -5.8,9.054 -8.596,13.643c-4.341,7.133 -6.677,15.482 -9.098,23.324c-3.215,10.348 -5.716,20.982 -7.637,31.628c-0.541,2.889 0.375,5.667 -2.962,6.85c-5.51,1.89 -11.14,2.247 -16.983,2.247c-5.55,0 -13.102,0.497 -17.732,-3.003c-2.209,-1.705 -1.669,-4.08 -1.628,-6.506c0.127,-6.177 3.756,-12.731 5.884,-18.527c4.549,-12.682 8.679,-25.45 14.021,-37.885c0.594,-1.337 0.594,-2.753 0.924,-4.174c0.585,-2.672 1.961,-5.331 3.381,-7.757c1.75,-3.002 3.088,-6.043 4.63,-9.177c3.13,-6.343 5.924,-12.481 10.221,-18.359c2.214,-3.003 4.009,-6.138 6.01,-9.225c-3.462,-0.594 -7.263,0.118 -10.766,-0.119c-4.463,-0.351 -8.719,-0.827 -13.227,-0.708c-6.885,0.34 -13.936,2.542 -20.528,4.174c-4.215,1.025 -9.388,2.817 -13.728,1.065c-2.711,-1.078 -1.502,-3.088 -0.543,-5.005c3.503,-7.177 6.591,-14.474 10.054,-21.654c3.338,-6.925 7.927,-13.773 10.307,-20.988c0.752,-2.294 0.581,-4.175 0.793,-6.387c4.007,-0.33 8.472,1.917 12.435,2.507c7.3,1.183 15.356,0.475 22.782,0.475c6.925,0 13.895,-0.123 20.82,-0.039c6.262,0.119 12.478,0.866 18.778,0.827c5.049,0 9.929,0.115 14.937,0.59c6.301,0.594 12.893,0.119 19.236,0.119c6.258,0 12.475,-0.118 18.733,0.357c6.344,0.475 12.602,1.183 18.945,1.183c13.228,-0.12 26.745,-0.828 39.932,0.237c4.923,0.416 9.762,1.395 14.603,1.752c4.922,0.428 9.595,0.31 14.477,1.255c4.382,0.874 8.846,1.336 13.268,2.163c3.923,0.708 7.3,2.52 11.182,3.465c6.136,1.455 12.853,0.535 18.652,2.876c2.003,0.84 4.298,1.772 6.385,2.129c2.876,0.355 5.839,0.47 8.719,0.945c7.931,1.184 16.569,2.354 24.662,1.065c3.799,-0.624 12.561,-4.967 16.483,-2.045c1.213,0.924 1.624,3.172 1.921,4.508c0.462,2.164 0.462,4.424 1.005,6.587c0.333,1.586 1.164,3.087 1.542,4.673c0.582,2.541 0.333,4.624 -1.921,6.256c-1.795,1.335 -3.756,2.612 -6.092,3.087c-3.133,0.497 -6.177,0.14 -9.265,1.205c-2.921,0.958 -5.551,1.539 -8.471,2.247c-2.836,0.758 -4.049,2.388 -6.217,3.927c-1.375,0.97 -4.509,1.68 -5.09,3.052c-1.086,2.494 0.754,7.38 1.628,9.509c1.379,3.168 5.009,6.884 5.05,10.183c0.084,3.512 -1.834,7.639 -3.129,10.892c-1.793,4.343 -4.297,7.392 -8.637,9.771c-3.964,2.13 -7.303,4.081 -10.432,7.215c-1.88,1.913 -4.089,4.081 -6.51,1.205c-1.544,-1.914 -1.412,-5.663 -1.709,-7.924c-0.748,-5.214 -1.496,-10.383 -2.336,-15.563c-1.042,-6.719 -1.628,-13.517 -3.003,-20.153c-0.212,-1.007 -0.297,-2.392 -0.959,-3.219c0.167,0.357 0.332,0.708 0.497,1.065z" /> <path d="M147.069,336.011c-3.588,6.503 -6.717,6.125 -9.431,5.298c-1.587,-0.496 -3.048,-1.455 -4.59,-2.163c-6.384,-2.637 -14.522,-4.304 -16.064,-11.519c-0.876,-4.255 1.378,-9.802 2.587,-13.895c0.793,-2.79 1.795,-6.883 4.382,-8.8c2.421,-1.751 6.385,-1.904 9.265,-3.087c7.552,-2.909 15.441,-4.118 22.7,-0.237c4.504,2.375 9.179,6.175 11.473,10.467c3.045,5.717 2.128,14.478 -3.255,18.652c-2.588,1.963 -5.717,3.503 -8.805,4.839c-3.378,1.42 -4.631,1.42 -8.26,0.475z" /> <path d="M238.626,340.921c-7.971,-2.757 -14.729,-3.134 -20.613,-9.097c-2.169,-2.129 -5.55,-4.97 -7.051,-7.642c-1.501,-2.672 -0.04,-5.166 1.335,-7.592c2.669,-4.801 5.505,-6.341 11.348,-7.677c6.55,-1.454 18.231,-2.838 23.908,1.255c9.805,7.094 9.891,20.449 2.714,28.999c-3.755,4.459 -8.304,4.292 -13.895,3.087c-2.415,-0.543 -6.258,-1.04 -3.255,-3.419z" /> <path d="M795.819,352.272c-3.503,-5.005 2.38,-4.508 6.217,-4.543c8.764,-0.04 15.563,1.255 19.445,10.052c7.344,16.65 2.001,38.723 -15.355,47.023c-10.099,4.801 -26.912,-1.586 -36.093,-6.303c-8.138,-4.211 -11.767,-7.842 -13.895,-16.69c-1.09,-4.471 -2.294,-9.144 1.005,-13.061c3.255,-3.834 9.387,-7.38 13.435,-10.22c11.14,-7.757 21.321,-6.01 34.255,-7.757z" /> <path d="M491.804,324.775c0,-3.549 -0.497,-7.592 0.084,-11.141c0.924,-5.463 3.423,-10.646 4.675,-16.064c1.04,-4.636 1.461,-9.474 2.128,-14.189c1.293,-8.8 2.962,-17.565 5.216,-26.202c2.714,-10.386 5.966,-20.613 8.053,-31.168c1.09,-5.513 1.876,-10.929 2.503,-16.482c0.415,-3.584 1.461,-6.587 2.421,-10.017c0.497,-1.832 0.84,-3.631 0.039,-5.348c-1.17,-2.544 -4.964,-5.132 -7.637,-5.348c-2.714,-0.119 -5.008,0.827 -7.552,1.667c-3.756,1.255 -7.426,1.799 -11.433,1.879c-8.512,0.119 -16.983,-2.379 -25.495,-2.082c-7.718,0.237 -14.188,5.216 -21.821,6.01c-5.464,0.59 -11.014,0 -16.524,0.59c-4.797,0.475 -9.598,1.289 -14.436,1.183c-4.049,-0.119 -8.053,-1.548 -12.06,-2.163c-4.215,-0.708 -7.76,0.357 -11.893,0.475c-0.378,1.336 2.168,5.132 2.421,5.628c3.088,6.222 5.424,12.726 8.304,19.025c2.421,5.298 5.05,10.514 7.011,16.023c1.71,4.839 3.003,9.759 4.548,14.644c2.88,9.144 6.3,17.777 9.888,26.578c2.254,5.594 2.254,11.473 4.049,17.108c1.588,5.051 1.253,10.386 2.669,15.482c1.04,3.715 3.337,6.802 4.004,10.514c1.09,0.237 2.212,0.237 3.17,0.59c0.959,0.237 1.71,0.357 2.796,0.357c3.796,0.237 6.51,1.205 10.307,-0.084c5.05,-1.714 10.099,-3.584 15.437,-3.961c5.884,-0.357 12.809,-0.59 18.485,0.59c2.336,0.475 5.008,-0.357 7.259,0.357c-1.124,2.591 -1.09,5.878 -1.961,8.8c-0.756,2.341 -1.253,4.258 -1.293,6.718c-0.039,2.837 0.378,5.548 -0.415,8.267c-0.415,1.372 -0.959,2.591 -1.17,4.046c-0.212,1.632 0.25,3.253 0.039,4.839c-0.165,1.183 -0.581,2.212 -1.668,2.625c-0.959,0.357 -3.337,-0.039 -4.34,-0.039c-5.424,0.039 -10.432,-1.336 -15.815,-1.667c-3.423,-0.237 -6.636,0.827 -10.054,0.827c-3.503,0.039 -7.218,0.237 -10.724,-0.119c-2.421,-0.237 -4.59,-0.708 -7.011,-0.708c-3.003,0 -5.257,-1.586 -8.138,-1.752c-0.543,-0.04 -3.629,-0.357 -4.004,0.119c-0.84,0.945 2.503,5.132 3.003,6.09c2.128,4.34 3.629,8.092 3.503,12.852c0,1.372 0.747,5.796 -0.543,6.468c-0.415,-1.455 -1.502,-1.539 -2.754,-1.632c-3.17,-0.237 -6.3,-0.827 -9.431,-1.255c-3.213,-0.475 -6.884,0.237 -9.972,-0.475c-1.795,-0.475 -4.882,-1.799 -5.924,-3.549c-0.756,-1.255 -0.627,-4.589 -0.793,-5.796c-0.497,-3.465 -0.874,-6.93 -1.209,-10.433c-0.662,-6.802 -1.795,-13.561 -2.168,-20.405c-0.25,-4.72 0.039,-9.428 -0.84,-14.103c-1.795,-9.759 -6.676,-18.692 -9.888,-28.037c-1.335,-3.796 -2.128,-7.723 -3.296,-11.604c-1.588,-5.216 -3.129,-10.467 -5.09,-15.604c-1.668,-4.423 -4.004,-8.516 -5.341,-13.061c-2.92,-10.052 -6.05,-20.279 -8.386,-30.5c-1.502,-6.387 -3.296,-12.601 -5.464,-18.778c-0.874,-2.591 -2.38,-1.714 -4.841,-2.082c-6.551,-0.827 -12.809,-0.59 -19.359,0.04c-8.26,0.827 -15.482,-1.586 -22.7,-5.513c-1.295,-0.708 -2.503,-1.421 -3.882,-1.752c-1.461,-0.357 -1.876,-0.119 -2.962,-1.421c-2.336,-2.672 -4.464,-5.348 -7.091,-7.677c-1.628,-1.502 -3.629,-2.757 -4.59,-4.839c6.636,-0.827 12.227,-5.463 18.9,-6.387c4.34,-0.59 8.846,-0.237 13.227,-0.708c3.549,-0.237 7.091,-0.827 10.64,-1.255c2.462,-0.237 5.509,-1.289 8.093,-0.827c1.754,0.237 4.004,3.299 5.717,2.426c0.212,-1.065 -1.005,-1.548 -1.42,-2.379c-1.09,-2.212 -0.84,-6.387 -1.124,-8.597c-0.497,-3.668 -1.71,-7.18 -2.128,-10.844c-0.543,-4.423 -1.04,-8.764 -1.835,-13.143c-1.668,-9.177 -4.297,-17.942 -7.385,-26.745c-2.168,-6.256 -4.797,-12.267 -6.51,-18.652c-1.502,-5.513 -2.714,-11.06 -3.756,-16.65c-1.335,-7.049 -2.587,-14.27 -4.508,-21.153c-2.461,-8.847 -5.964,-17.483 -9.43,-25.995c-1.209,-3.052 -2.587,-5.878 -3.549,-9.012c-1.375,-4.292 -4.297,-7.757 -5.884,-12.016c2.128,-1.065 5.298,-1.183 7.637,-1.917c4.464,-1.467 8.846,-3.087 13.561,-3.253c3.255,-0.119 6.51,0.237 9.765,0.042c1.795,-0.084 4.675,-1.455 6.383,-0.945c2.001,0.59 1.09,2.709 1.293,4.92c0.497,5.298 2.044,10.349 3.756,15.355c4.59,13.308 8.138,26.997 13.228,40.139c4.508,11.684 7.011,23.95 11.266,35.717c2.962,8.22 6.176,16.524 7.886,25.117c1.293,6.587 2.794,13.394 4.923,19.779c1.335,3.961 2.92,7.592 3.922,11.684c1.005,3.961 2.421,3.881 5.884,5.132c2.92,1.065 5.677,2.625 8.719,3.384c3.255,0.708 7.051,0.475 10.347,0.237c3.255,-0.237 6.132,-0.945 9.387,-0.59c2.92,0.357 5.799,0.945 8.719,1.336c4.923,0.59 10.933,0.59 15.897,-0.04c5.843,-0.708 11.682,-0.119 17.443,-1.065c4.049,-0.59 7.76,-0.59 11.726,0.59c4.548,1.372 8.179,2.46 13.02,2.379c7.218,-0.119 14.436,-0.042 21.699,-0.042c1.588,0 5.632,0.827 6.636,-0.357c0.874,-1.065 -0.581,-5.298 -0.708,-6.421c-0.874,-7.924 2.962,-16.149 5.05,-23.659c2.88,-10.467 5.09,-20.988 7.385,-31.628c1.71,-7.842 4.715,-15.229 7.177,-22.867c2.128,-6.421 3.003,-13.227 3.715,-19.986c0.497,-4.801 0.874,-9.594 1.628,-14.396c1.04,-6.802 3.129,-13.308 4.464,-19.986c0.793,-3.796 1.461,-7.642 2.212,-11.473c0.662,-3.253 1.795,-6.468 2.128,-9.806c0.924,-0.237 1.71,0.084 2.336,1.065c2.128,1.799 4.464,3.299 6.969,4.589c3.337,1.714 7.718,3.668 11.515,4.174c3.629,0.59 7.47,-0.04 11.14,0c2.128,0.04 3.503,0.357 4.172,2.709c1.335,4.839 -0.874,11.604 -1.542,16.357c-1.124,8.007 -2.168,16.064 -4.089,23.95c-2.087,8.55 -5.509,16.69 -7.76,25.201c-1.502,5.548 -2.044,11.141 -2.212,16.899c-0.462,15.062 -5.717,28.917 -11.599,42.559c-1.542,3.549 -2.461,7.345 -4.089,10.844c-0.84,1.879 -1.293,4.211 -0.708,6.421c3.17,0.708 7.593,0.119 10.681,-0.357c3.213,-0.59 6.343,-1.539 9.598,-1.917c4.004,-0.475 8.26,0.475 12.182,0.945c5.424,0.59 10.724,0.59 16.149,0.59c2.628,-0.04 4.715,0.708 7.177,0.827c0.874,3.087 -0.084,7.133 -0.627,10.183c-0.756,4.174 -1.588,8.385 -2.547,12.517c-0.662,2.379 -1.17,4.754 -1.502,7.215c-0.084,2.082 -0.165,4.174 -0.297,6.303c-0.212,1.632 -0.543,3.796 -2.336,4.292c-1.542,-0.042 -3.129,-0.119 -4.715,-0.357c-2.628,-0.475 -5.298,-0.59 -7.971,-0.708c-4.297,-0.042 -8.512,0.237 -12.768,-0.119c-4.59,-0.357 -9.265,-0.237 -13.81,-0.708c-3.003,-0.357 -5.464,-0.945 -8.512,-0.59c-3.003,0.357 -7.218,0.945 -6.468,4.92c0.33,1.667 1.835,3.087 2.254,4.72c0.874,3.384 0.132,7.642 0.132,11.06c0.039,7.133 -0.462,14.31 -2.087,21.239c-3.213,13.643 -5.632,27.457 -8.679,41.14c-1.42,6.175 -3.549,12.182 -5.09,18.318c-1.209,4.754 -2.503,9.428 -3.922,14.103c-2.212,7.345 -2.503,14.729 -3.963,22.198c-1.09,5.348 -3.756,9.721 -5.757,14.731c-3.838,9.64 -6.05,20.027 -8.386,30.084c-2.044,8.682 -2.212,17.691 -4.923,26.244c-1.542,4.72 -3.756,9.262 -4.757,14.102c-1.124,5.382 -1.921,11.261 -4.089,16.357c-0.378,0.827 -1.628,4.636 -2.503,5.428c-1.335,1.183 -1.71,0.357 -3.715,0c-2.92,-0.475 -6.01,-0.119 -8.972,-0.119c-1.628,0 -3.963,0.475 -5.55,-0.039c0.039,-1.372 0.793,-2.876 1.09,-4.211c1.17,-4.92 1.754,-10.017 2.714,-14.98c1.09,-5.298 2.836,-10.599 3.381,-16.023c0.33,-3.087 0.581,-6.09 1.124,-9.177c1.17,-6.468 2.714,-13.143 4.797,-19.404c1.628,-4.886 2.336,-9.721 3.255,-14.769c0.959,-5.298 2.669,-10.386 3.67,-15.648c0.874,-4.673 1.542,-9.344 2.461,-14.021c0.756,-3.961 1.42,-8.007 2.087,-11.975c0.497,-2.757 -0.581,-5.428 -0.793,-8.172c-2.421,2.837 -4.797,5.463 -7.385,12.309z" /> <path d="M619.434,379.729c1.876,0.237 5.216,1.336 7.344,0.827c3.213,-0.827 6.3,-3.549 9.219,-5.132c6.592,-3.631 14.021,-5.216 20.739,-8.715c6.176,-3.219 11.767,-7.38 17.691,-11.011c9.345,-5.76 19.445,-10.017 28.75,-15.856c6.802,-4.211 13.394,-8.007 20.654,-11.307c9.305,-4.258 18.025,-9.344 24.743,-17.19c4.715,-5.463 8.972,-10.302 14.644,-14.812c9.053,-7.261 16.483,-16.105 24.702,-24.242c3.003,-2.969 5.09,-7.095 8.471,-9.721c1.09,-0.827 3.963,-2.46 5.464,-2.212c1.628,0.237 1.17,1.065 1.375,2.876c0.581,5.628 1.588,11.438 2.754,16.983c1.502,7.049 4.382,13.687 6.676,20.527c0.924,2.709 3.882,9.012 3.549,12.309c-2.168,0 -3.423,0.475 -5.342,1.667c-5.05,3.219 -9.053,7.757 -14.144,10.892c-2.547,1.548 -5.05,2.261 -7.971,2.709c-4.256,0.59 -7.637,1.964 -11.515,3.796c-3.67,1.714 -7.218,3.584 -11.014,4.966c-3.088,1.183 -6.258,1.997 -9.305,3.299c-2.88,1.255 -5.591,2.709 -8.512,3.843c-3.255,1.289 -6.636,1.714 -9.972,2.757c-4.964,1.539 -9.932,3.843 -14.477,6.387c-3.922,2.261 -7.137,5.382 -11.014,7.723c-2.087,1.255 -3.963,2.082 -6.132,3.087c-2.628,1.183 -3.922,2.625 -5.966,4.636c-6.01,5.878 -13.142,11.975 -20.361,16.231c-6.843,4.046 -13.394,8.385 -20.446,12.182c-5.924,3.219 -11.1,7.133 -16.272,11.391c-2.294,1.879 -4.757,3.384 -6.969,5.298c-2.587,2.212 -5.677,4.92 -8.846,6.303c-0.793,0.357 -3.381,0.475 -2.754,1.917c0.462,1.065 4.172,1.255 4.883,1.289c6.468,0.475 12.809,1.752 19.278,2.544c9.806,1.205 19.693,0.708 29.585,0.708c13.728,0.04 27.371,-0.945 41.099,-0.827c6.592,0.04 12.894,1.667 19.445,2.379c7.259,0.827 14.729,1.632 21.988,1.832c12.601,0.357 25.369,-0.945 37.93,0.357c7.344,0.708 14.855,2.591 21.906,4.636c7.511,2.163 13.895,6.387 21.654,7.677c2.212,0.475 4.464,0.475 6.718,0.475c1.375,0.04 3.213,0.475 4.508,-0.084c4.215,-1.632 3.423,-8.847 3.337,-12.227c-0.165,-10.22 -1.17,-20.279 -2.503,-30.419c-1.542,-11.893 -4.464,-23.492 -5.843,-35.424c-1.961,-16.564 -4.757,-32.338 -9.846,-48.236c-4.004,-12.475 -7.47,-25.328 -10.681,-37.971c-1.461,-5.76 -3.882,-11.06 -4.797,-16.94c-0.297,-1.879 -0.581,-3.843 -0.84,-5.678c-0.084,-0.708 0.132,-2.507 -0.039,-3.219c-1.253,-5.251 -6.176,-9.39 -7.47,-14.645c2.92,1.372 6.802,0.237 9.888,0.357c4.423,0.237 8.386,2.379 12.768,2.591c3.129,0.119 7.304,0.708 10.347,-0.237c2.461,-0.827 5.677,-5.382 8.138,-2.969c2.001,1.964 2.212,6.01 2.421,8.516c0.581,6.256 2.254,12.516 3.836,18.611c3.838,14.689 8.639,29.165 12.475,43.854c1.921,7.299 3.67,14.689 5.174,22.073c1.921,9.555 2.88,19.236 4.422,28.873c2.254,13.729 4.464,27.204 5.677,41.099c0.378,4.471 0.627,8.882 0.581,13.394c-0.084,6.802 0.793,13.52 0.84,20.32c0.084,9.555 -0.039,19.111 -0.039,28.666c0,4.72 0.378,9.555 -0.165,14.27c-0.212,2.045 -0.132,5.085 -2.212,5.796c-2.087,0.708 -6.884,-1.539 -9.139,-1.917c-4.923,-0.827 -9.806,-1.917 -14.729,-2.709c-6.551,-1.065 -12.852,-1.548 -19.236,-3.549c-8.805,-2.709 -16.857,-7.133 -25.743,-9.428c-8.428,-2.163 -16.898,-3.087 -25.162,-5.925c-5.757,-1.964 -11.266,-4.258 -17.358,-4.886c-4.464,-0.475 -8.972,-0.237 -13.394,-0.708c-4.172,-0.475 -8.053,-1.752 -12.268,-1.455c-3.882,0.237 -7.637,1.065 -11.393,2.082c-5.008,1.289 -10.014,1.255 -15.148,1.205c-10.347,-0.084 -21.072,0.827 -31.294,-0.475c-12.308,-1.632 -24.784,-1.799 -36.762,-5.085c-4.923,-1.372 -9.932,-2.341 -14.98,-3.087c-6.132,-0.945 -12.349,-0.945 -18.444,-1.964c-5.717,-0.945 -11.266,-2.709 -16.983,-3.843c-4.508,-0.945 -9.179,-1.065 -13.687,-1.964c-5.008,-1.065 -9.932,-2.341 -14.937,-3.169c-2.962,-0.475 -6.05,-0.59 -8.972,-1.183c-0.662,-1.714 1.461,-2.672 2.547,-3.5c3.838,-2.969 8.011,-5.216 11.682,-8.432c5.05,-4.423 9.053,-9.759 12.935,-15.189c2.92,-4.127 6.092,-8.172 8.719,-12.516c1.795,-2.922 3.423,-5.963 5.09,-9.012c1.588,-2.922 2.503,-6.303 4.508,-9.012c1.754,-2.294 4.089,-4.966 6.258,-6.752c2.669,-2.212 6.802,-1.336 10.014,-1.336z" /> <path d="M412.215,569.053c-3.591,-0.508 1.124,1.54 0.165,3.419c-0.545,1.065 -0.714,0.471 -1.754,0.708c-2.755,0.542 -5.299,1.704 -8.053,2.294c-2.38,0.628 -4.757,0.628 -7.137,1.336c-2.88,0.912 -5.676,1.954 -8.679,2.544c-3.589,0.71 -7.177,1.492 -10.766,2.082c-1.505,0.237 -4.801,1.064 -6.636,0.827c0.249,-2.968 1.205,-5.712 1.502,-8.764c0.415,-4.543 0.543,-9.144 0.793,-13.687c0.251,-4.379 0.794,-8.721 0.959,-13.061c0.093,-1.54 -0.53,-4.176 0.132,-5.548c1.46,-3.087 5.717,0.746 7.718,1.336c3.296,0.911 7.51,0.084 10.933,0.084c4.129,0.05 7.429,-0.022 11.433,-1.205c4.842,-1.422 9.514,-1.422 14.522,-1.065c3.089,0.233 6.01,0.827 9.139,0.59c2.629,-0.237 5.217,-0.743 7.845,-0.827c2.796,-0.118 6.385,-0.471 9.139,0.119c0.33,1.587 0.297,3.254 0.627,4.886c0.712,3.381 1.006,6.718 1.09,10.183c0.081,3.749 -0.084,6.503 -0.924,9.887c-2.085,8.513 -1.588,18.106 -1.588,27.038c0,17.566 -0.039,35.135 0,52.7c0.082,12.185 -1.298,24.287 -1.628,36.469c-0.126,4.877 -0.875,9.267 -1.668,14.021c-1.087,6.429 -0.921,12.983 -1.961,19.404c-1.038,6.677 -1.5,13.193 -1.335,19.945c0.083,2.698 1.043,4.356 4.172,3.881c1.545,-0.212 1.838,-1.192 3.213,-1.667c0.707,-0.353 1.668,-0.353 2.461,-0.59c1.504,-0.627 2.838,-1.539 4.34,-2.129c1.42,-0.594 2.962,-0.713 4.382,-1.421c1.836,-0.84 2.379,-1.43 4.423,-1.667c6.51,-0.84 12.351,-4.093 18.819,-4.801c7.636,-0.827 15.814,-0.474 23.492,-0.237c5.677,0.175 11.14,2.189 16.857,1.714c-4.88,-9.932 -7.259,-21.193 -9.721,-31.919c-0.92,-4.129 -0.624,-7.891 -0.708,-12.102c-0.082,-4.007 -1.167,-7.841 -1.71,-11.849c-0.921,-6.3 -1.168,-12.728 -1.795,-19.068c-0.58,-5.964 -1.625,-11.889 -2.168,-17.899c-0.587,-6.799 -0.753,-13.608 -1.461,-20.36c-0.709,-6.634 -1.912,-13.315 -2.044,-19.986c-0.084,-5.513 0.128,-11.011 -0.084,-16.524c-0.418,-9.514 -1.458,-18.984 -1.542,-28.539c-0.046,-5.88 -0.046,-11.606 -0.708,-17.484c-0.875,-8.052 -2.669,-15.895 -4.004,-23.868c-0.793,-4.796 -1.79,-9.597 -2.714,-14.436c-0.379,-2.082 -2.462,-8.21 -1.588,-10.551c2.711,-0.047 5.3,2.388 8.22,2.625c2.67,0.12 5.464,-0.237 8.011,-0.945c2.882,-0.712 5.885,-1.502 8.639,-2.757c1.334,-0.576 3.169,-2.234 4.63,-1.997c0.717,3.087 0.129,6.386 0.756,9.555c0.666,3.593 0.961,7.226 2.001,10.726c4.129,14.273 8.218,28.502 11.473,42.979c1.083,4.92 1.543,9.971 2.336,14.937c0.712,4.045 1.754,7.973 2.547,11.934c1.126,5.759 2.291,11.647 3.047,17.443c0.296,2.21 0.508,4.044 1.17,6.256c1.915,6.175 4.708,11.771 5.464,18.277c0.583,4.926 2.714,9.384 3.838,14.27c1.92,8.346 3.172,16.604 6.468,24.577c0.758,1.832 1.42,3.054 1.42,5.051c-0.039,1.667 0,3.253 0,4.92c0,2.413 0.038,4.127 0.581,6.421c0.831,3.666 0.666,7.38 1.209,11.011c0.626,4.134 2.548,8.048 3.129,12.141c0.879,5.673 1.545,11.305 2.88,16.899c1.539,6.339 0.547,12.346 1.209,18.733c0.166,1.832 1.085,4.292 2.294,5.713c2.669,3.091 9.68,3.76 13.309,3.052c3.796,-0.675 7.428,-1.145 11.266,-1.502c2.002,-0.212 3.462,-0.84 5.257,-1.667c2.544,-1.064 5.339,-0.708 8.053,-0.945c5.049,-0.424 9.887,-2.257 14.937,-2.341c1,-0.118 6.629,-0.826 7.385,0.119c0.878,1.085 -0.332,3.901 -0.497,4.966c-0.296,1.42 -0.251,2.79 -0.212,4.211c0.046,5.757 -1.249,12.936 1.005,18.399c0.759,1.832 2.63,2.541 0.462,3.796c-1.668,0.887 -4.174,1.242 -6.05,1.832c-2.38,0.757 -4.756,1.539 -7.177,2.129c-5.757,1.535 -12.101,0.827 -18.025,0.827c-6.469,0 -13.395,0.73 -19.778,-0.475c-2.339,-0.378 -4.589,-1.121 -6.969,-1.205c-0.626,-0.039 -4.005,-0.357 -4.548,0c-1.243,0.912 -0.411,1.798 0.132,3.253c2.334,6.55 3.67,13.399 5.757,19.986c1.835,5.8 3.548,11.432 4.923,17.357c1.374,5.845 3.169,11.558 4.797,17.318c2.463,8.887 3.88,18.059 6.092,27.038c2.336,9.765 6.674,18.523 9.721,27.997c0.627,1.879 1.835,4.801 0,6.468c-1.334,1.184 -3.209,0.787 -4.797,0.827c-2.416,0.119 -4.711,0 -7.091,0.827c-2.003,0.687 -2.669,1.633 -4.797,1.752c-6.885,0.377 -13.769,-0.212 -20.405,-1.964c-3.169,-0.814 -7.843,-2.578 -11.18,-1.289c-0.626,0.238 -1.458,1.302 -2.001,1.421c-4.463,1.211 -4.793,-9.678 -5.09,-11.557c-0.913,-5.881 -0.416,-11.725 -1.375,-17.65c-1.084,-6.595 -2.999,-13.102 -4.004,-19.738c-0.752,-5.254 -1.538,-10.599 -2.628,-15.815c-1.793,-8.345 -2.546,-16.896 -5.174,-25.035c-2.545,-7.887 -3.127,-15.308 -3.088,-23.575c0.046,-1.667 0.177,-2.426 -0.747,-3.631c-1.001,-1.337 -2.754,-2.812 -4.382,-3.169c-1.835,-0.47 -1.502,0.238 -3.17,-0.945c-1.962,-1.349 -3.085,-2.254 -5.632,-2.294c-3.297,-0.049 -7.178,1.455 -10.474,2.163c-1.461,0.357 -2.922,0.475 -4.297,1.065c-1.502,0.627 -2.501,1.904 -4.089,2.379c-1.92,0.594 -4.256,0.158 -6.217,0.119c-2.629,0 -5.258,0 -7.886,0.039c-5.506,0 -11.308,-1.535 -16.772,-0.708c-3.548,0.556 -6.095,1.858 -9.765,1.383c-2.336,-0.351 -4.508,-0.624 -6.844,-0.708c-4.382,-0.118 -8.554,0.59 -12.894,0.827c-1.799,0.13 -2.083,-0.413 -2.38,1.632c-0.211,1.633 0.039,3.715 0.039,5.382c0,5.595 -0.924,11.096 -0.84,16.69c0.039,5.754 0,11.562 0,17.358c0.034,5.513 -0.924,10.976 -0.84,16.524c0.119,7.052 -0.05,14.853 -1.09,21.821c-1.293,8.72 -4.051,17.029 -4.548,25.911c-0.171,2.757 -0.171,5.463 -0.132,8.22c0,-0.084 0.344,3.935 0.132,4.292c-0.584,1.064 -1.83,0.708 -2.92,0.827c-6.091,0.709 -12.475,2.719 -18.318,4.636c-4.337,1.417 -8.887,5.014 -13.435,5.251c-2.213,0.165 -3.04,0.33 -3.337,-1.667c-0.297,-1.797 0,-3.879 0,-5.678c0,-4.882 -0.46,-9.768 0.793,-14.522c1.083,-3.92 1.463,-7.966 2.503,-11.893c0.915,-3.43 1.045,-6.979 1.542,-10.479c0.749,-4.969 2.588,-9.597 3.296,-14.563c0.878,-6.425 0.547,-13.023 1.09,-19.444c0.333,-3.881 0.961,-7.63 1.542,-11.473c0.875,-6.05 0.747,-12.054 0.959,-18.192c0.246,-7.302 0.543,-14.561 0.708,-21.906c0.127,-7.299 0.961,-14.522 1.588,-21.821c0.794,-8.93 1.041,-17.897 1.668,-26.829c0.594,-8.679 0.627,-17.187 0.924,-25.869c0.373,-9.93 1.587,-19.78 2.168,-29.667c0.749,-13.267 1.875,-26.492 3.463,-39.679c2.172,-18.069 3.296,-35.801 3.296,-53.952v0.59z" /></svg>