<svg xmlns="http://www.w3.org/2000/svg" viewBox="0 0 1183 467" width="1183" height="467"><path d="M1186.153,254.947c-53.965,-4.346 -106.976,-5.321 -159.476,-2.877c-52.064,2.66 -102.092,8.498 -150.763,17.509c-48.562,8.47 -95.768,19.925 -140.937,34.04c-45.494,14.304 -88.953,30.54 -130.324,48.562c-0.731,-20.685 -1.464,-39.329 -1.9,-56.409c-0.731,-17.509 -1.058,-36.483 -1.058,-57.385c-40.827,18.242 -80.702,36.698 -119.6,55.457c-38.383,18.242 -74.866,40.311 -109.855,66.18c-7.33,-24.592 -14.115,-48.887 -20.466,-72.966c-6.46,-23.86 -13.355,-45.686 -20.359,-65.201c-65.636,31.923 -126.171,68.08 -181.843,108.905c-55.13,40.393 -104.971,85.887 -149.733,137.108c20.685,-44.221 45.171,-87.49 73.915,-130.214c28.42,-42.834 60.231,-83.877 95.224,-123.539c35.509,-39.329 74.216,-77.094 115.773,-112.815c41.992,-36.157 86.943,-70.008 135.101,-101.171c10.288,26.817 19.706,54.289 28.205,82.71c8.278,27.985 15.174,55.89 20.466,83.662c40.067,-23.86 83.662,-44.327 130.324,-61.295c47.178,-16.749 94.795,-32.546 142.921,-47.719c0.432,23.452 0.948,46.227 0.948,68.08c0,22.179 -0.517,41.886 -0.948,59.395c73.184,-1.277 147.073,4.561 221.718,17.481c74.349,13.164 148.78,30.645 222.672,52.499z" /></svg>