<svg xmlns="http://www.w3.org/2000/svg" viewBox="0 0 1024 1024" width="1024" height="1024"><path d="M272,640h112v128h-112c-8.672,0 -16,-7.326 -16,-16v-96c0,-8.674 7.328,-16 16,-16z" /> <path d="M448,640h128v128h-128z" /> <path d="M768,656v96c0,8.674 -7.326,16 -16,16h-112v-128h112c8.674,0 16,7.326 16,16z" /> <path d="M1024,512c0,282.77 -229.23,512 -512,512c-282.77,0 -512,-229.23 -512,-512c0,-282.77 229.23,-512 512,-512c282.77,0 512,229.23 512,512zM575.996,384c0,35.346 28.654,64 64,64c35.346,0 64,-28.654 64,-64c0,-16.854 -6.526,-32.176 -17.174,-43.606c18.414,-9.23 39.312,-16.9 56.936,-21.35c17.144,-4.286 27.568,-21.66 23.284,-38.804c-4.288,-17.146 -21.66,-27.572 -38.806,-23.284c-1.446,0.362 -35.806,9.052 -70.548,26.422c-36.38,18.192 -79.558,49.684 -81.592,97.138c-0.06,1.154 -0.098,2.314 -0.1,3.484zM280.24,319.044c17.626,4.45 38.522,12.12 56.936,21.35c-10.648,11.43 -17.174,26.752 -17.174,43.606c0,35.346 28.654,64 64,64c35.346,0 64,-28.654 64,-64c0,-1.17 -0.036,-2.33 -0.098,-3.484c-2.032,-47.454 -45.212,-78.946 -81.592,-97.138c-34.742,-17.37 -69.102,-26.06 -70.548,-26.422c-17.146,-4.288 -34.518,6.138 -38.806,23.284c-4.284,17.144 6.14,34.518 23.282,38.804zM832,656c0,-44.112 -35.888,-80 -80,-80h-480c-44.112,0 -80,35.888 -80,80v96c0,44.112 35.888,80 80,80h480c44.112,0 80,-35.888 80,-80z" /></svg>