<svg xmlns="http://www.w3.org/2000/svg" viewBox="0 0 859 816" width="859" height="816"><path d="M454.854,705.988c0,1.689 0.044,3.43 0.087,5.119c0.091,2.957 0.176,5.96 -0.043,8.918c-0.471,6.621 -2.021,13.663 -3.522,20.425c-0.471,2.112 -0.877,4.182 -1.317,6.153c-1.549,7.65 -3.429,15.07 -5.212,21.974c-0.547,2.115 -0.768,4.271 -0.987,6.432c-0.372,3.613 -0.795,7.371 -2.583,11.317l-0.889,1.922c-0.985,2.018 -1.928,4.083 -2.394,5.964c-0.177,0.706 -0.309,1.451 -0.396,2.064c-0.281,2.585 -0.704,5.777 -4.269,8.686c-4.324,3.522 -9.064,2.253 -12.868,1.226c-2.301,-0.564 -4.459,-1.145 -6.247,-0.705c-0.705,0.136 -1.407,1.078 -2.394,2.578c-0.747,1.178 -1.548,2.352 -2.535,3.339c-3.24,3.331 -5.916,4.6 -10.002,4.6c-0.514,0 -1.03,0 -1.549,0c-9.814,-0.657 -15.496,-8.079 -20.048,-14.932c-7.888,-11.832 -12.817,-27.75 -14.557,-33.997c-0.656,-2.44 -1.456,-4.927 -2.161,-7.369c-2.958,-10.048 -6.111,-20.474 -6.198,-31.32c0,-1.499 0.089,-3.144 0.176,-4.881c0.176,-2.725 0.44,-5.775 0,-7.796c-0.422,-2.113 -1.83,-4.931 -3.099,-7.325c-0.654,-1.408 -1.314,-2.674 -1.83,-3.851c-2.022,-4.599 -5.071,-8.826 -8.263,-13.285c-3.992,-5.635 -8.171,-11.411 -10.332,-18.221c-1.923,-5.823 -4.458,-11.269 -7.135,-17.092c-1.788,-3.895 -3.618,-7.841 -5.212,-11.876c-3.804,-9.438 -8.829,-17.749 -14.227,-26.531c-1.926,-3.148 -3.289,-6.291 -4.648,-9.298c-0.753,-1.689 -1.552,-3.43 -2.352,-5.119c-2.439,-4.833 -5.116,-10.422 -6.946,-15.538c-1.364,-3.852 -1.83,-7.986 -2.301,-12.022c-0.12,-1.458 -0.34,-2.869 -0.516,-4.227c-0.519,-3.38 -1.364,-6.711 -2.301,-10.233c-0.936,-3.9 -1.971,-7.845 -2.535,-11.974c-0.309,-2.301 -0.353,-4.508 -0.396,-6.717c-0.048,-1.973 -0.048,-3.898 -0.311,-5.82c-0.075,-0.798 -0.34,-1.454 -0.471,-2.067c-0.373,-1.17 -0.85,-2.679 -0.937,-4.552c-0.14,-2.585 -0.486,-5.029 -0.797,-7.564c-0.423,-3.099 -0.899,-6.29 -0.942,-9.72c-0.184,-13.382 -3.002,-25.448 -8.918,-37.893c-4.557,-9.388 -9.439,-16.339 -15.355,-21.785c-8.691,-7.938 -14.747,-18.643 -17.609,-24.278c-2.582,-5.116 -6.386,-14.552 -2.582,-20.003c4.51,-6.522 17.516,-5.164 21.743,-3.895l2.205,0.656l0.44,2.253c0.092,0.378 0.19,0.8 1.501,6.198c1.506,0.802 2.772,1.928 3.9,2.915c0.939,0.846 1.971,1.697 2.628,2.014c3.192,1.508 5.965,2.07 9.487,2.726l1.735,0.351c0.847,0.19 1.599,0.495 2.352,0.705c0.89,0.345 1.642,0.487 2.299,0.521h12.445c1.551,0 2.676,-0.268 3.993,-0.662c0.654,-0.198 1.218,-0.374 1.923,-0.515c3.57,-0.893 4.317,-1.22 6.669,-3.851c2.156,-2.394 3.099,-4.833 4.317,-7.887c0.423,-1.17 0.939,-2.436 1.458,-3.705c3.051,-6.903 6.15,-14.841 4.974,-21.694c-0.467,-2.677 -1.219,-5.449 -2.016,-8.218c-0.472,-1.782 -0.969,-3.523 -1.409,-5.212c-0.281,-1.22 -0.533,-2.533 -0.752,-3.851c-0.562,-2.722 -1.125,-5.492 -1.971,-7.51c-3.613,-7.936 -7.324,-14.368 -11.599,-20.284c-3.946,-5.4 -10.799,-9.676 -14.603,-11.74c-3.429,-1.83 -8.362,-3.254 -12.067,-3.43c-2.069,-0.092 -3.57,-0.547 -4.746,-0.987c-0.467,-0.188 -0.89,-0.257 -1.409,-0.398c-0.654,-0.142 -1.266,-0.142 -1.971,-0.176c-1.312,-0.043 -2.817,-0.092 -4.411,-0.656l-6.153,-2.113l4.839,-4.317c2.77,-2.395 6.15,-4.366 9.439,-6.247c2.064,-1.177 4.083,-2.304 5.823,-3.522l3.946,-2.769c3.193,-2.351 6.34,-4.649 9.862,-6.762c4.599,-2.818 9.34,-5.684 10.939,-9.439c1.783,-4.083 1.219,-7.704 -2.021,-11.599c-3.521,-4.317 -10.327,-8.403 -15.306,-11.41l-0.797,-0.44c-8.126,-4.93 -17.281,-12.397 -14.839,-20.096c1.923,-5.872 6.622,-8.972 10.798,-11.692l1.176,-0.798c1.831,-1.128 4.275,-2.768 5.586,-4.086c3.429,-3.564 6.809,-6.619 11.176,-9.952l1.971,-1.5c1.643,-1.269 3.29,-2.535 4.979,-3.663c1.311,-0.893 2.535,-2.018 3.705,-3.054c1.55,-1.411 3.099,-2.769 4.839,-3.946c0.939,-0.56 1.782,-1.011 2.628,-1.451c1.266,-0.704 2.208,-1.221 3.195,-2.253c0.561,-0.521 1.077,-1.456 1.689,-2.443c0.937,-1.597 2.065,-3.47 3.847,-4.788c2.352,-1.817 4.651,-1.923 6.481,-2.064c0.33,-0.036 0.736,-0.036 1.176,-0.07c0.753,-0.605 1.55,-1.253 2.628,-1.5c1.551,-0.317 3.197,-0.211 4.698,-0.07c0.516,0 1.018,0.07 1.458,0.07l1.549,-0.07c2.347,-0.098 5.728,-0.281 8.356,3.142c1.176,1.547 1.971,3.571 2.817,5.493c0.564,1.269 1.035,2.535 1.647,3.522l0.747,1.318c0.943,1.503 0.985,1.548 2.725,2.443c1.924,0.986 3.802,2.063 5.683,3.191l1.595,0.937c1.878,1.085 3.852,1.459 6.105,1.931c0.986,0.166 2.021,0.396 3.051,0.606c1.083,0.282 1.972,0.687 2.677,1.085c0.565,0.255 1.011,0.431 1.317,0.465c0.231,0.036 0.893,-0.034 1.359,-0.034c1.128,-0.176 2.537,-0.44 4.086,0c1.173,0.233 2.161,0.593 3.054,0.987c1.077,0.48 1.641,0.656 2.817,0.656c2.113,0 4.224,0 6.382,0h4.367c0.519,0 1.128,0 1.788,-0.07c1.833,-0.14 3.897,-0.281 5.68,0.07c1.224,0.331 2.113,1.076 2.677,1.64c0.753,0.107 1.597,0.176 2.493,0.317c2.77,0.33 5.586,0.702 7.699,1.83c5.022,2.725 4.368,11.178 3.804,18.643c-0.136,1.5 -0.223,2.768 -0.223,3.705c0,1.081 0.089,2.206 0.176,3.475c0.281,4.366 0.704,9.339 -2.299,12.769c-1.598,1.781 -3.852,2.768 -6.621,2.909c-5.028,0.331 -10.281,-1.45 -14.839,-2.909c-1.175,-0.423 -2.394,-0.811 -3.522,-1.128l-2.347,-0.705c-5.262,-1.549 -10.756,-3.19 -16.108,-4.275c-3.804,-0.829 -7.135,-1.059 -11.41,-1.269c-2.162,-0.136 -3.852,-0.559 -5.305,-1.027c-1.224,-0.358 -2.254,-0.728 -3.382,-0.798c-0.422,0 -0.941,0.107 -1.505,0.141c-1.312,0.14 -2.862,0.328 -4.411,-0.07c-1.173,-0.233 -2.066,-0.942 -2.582,-1.459h-0.987c-0.988,0 -1.924,0 -2.911,-0.176c-1.457,-0.234 -2.633,-0.845 -3.522,-1.362c-0.423,-0.268 -0.952,-0.481 -1.128,-0.515c-1.176,-0.075 -1.606,0.37 -1.74,0.44c-1.219,1.22 -1.219,5.023 -1.176,7.325c0,7.609 0.662,12.066 4.227,17.842c3.148,5.263 2.896,11.32 2.677,16.72l-0.087,2.205c-0.141,5.071 -1.128,6.76 -3.615,10.423c-1.035,1.5 -1.647,3.333 -2.352,5.304c-0.657,1.929 -1.311,3.902 -2.487,5.824c-1.596,2.727 -3.66,4.696 -5.4,6.292c-3.475,3.237 -3.805,3.52 -1.594,6.576c1.453,2.017 3.099,3.846 4.737,5.777c2.346,2.817 4.882,5.678 6.853,8.918c3.381,5.635 7.423,12.916 8.593,19.862c0.659,3.476 1.689,6.81 2.865,10.38c0.752,2.347 1.549,4.692 2.161,7.135c3.823,14.509 7.343,31.181 -0.263,44.703c-6.81,12.206 -14.368,24.791 -24.466,33.666c-1.782,1.553 -3.565,2.439 -5.212,3.285c-2.817,1.409 -3.589,1.926 -3.895,3.522c-0.746,3.241 -0.397,7.516 -0.134,11.692c0.135,2.208 0.311,4.414 0.311,6.435l-0.043,2.862c0,1.88 0,3.762 0.043,5.635c0,2.864 -0.564,4.364 -1.269,5.871c-0.189,0.512 -0.484,0.984 -0.66,1.781c-0.218,1.035 -0.263,2.063 -0.263,3.191c-0.045,1.788 -0.141,3.804 -0.987,6.247c-0.422,1.176 -0.888,2.348 -1.359,3.57c-1.033,2.578 -2.046,5.212 -2.442,7.417c-0.987,5.586 0.752,10.095 2.913,15.778l2.439,6.105c1.972,5.071 4.041,10.376 5.683,15.728c1.267,3.993 2.908,8.121 4.507,12.067c0.752,1.88 1.548,3.762 2.253,5.635c1.173,2.958 2.627,5.682 4.176,8.499c1.97,3.615 3.993,7.374 5.352,11.833c1.365,4.416 2.303,8.734 3.24,12.82c1.691,7.653 3.337,14.881 7.184,22.114c3.006,5.635 6.105,11.363 8.358,17.561c0.514,1.408 1.126,2.725 1.783,4.134c0.802,1.548 1.507,3.148 2.113,4.788c1.034,2.91 1.598,5.868 2.069,8.734c0.282,1.69 0.547,3.332 0.987,4.881c0.657,2.633 1.453,5.17 2.299,7.656c1.173,3.712 2.394,7.558 3.054,11.599c0.28,1.452 0.936,3.052 1.689,4.741c0.607,1.408 1.269,2.866 1.735,4.317c0.213,0.843 0.388,1.787 0.564,2.774c0.141,0.889 0.389,2.063 0.612,2.578c0.093,0.098 0.393,0.452 0.612,0.662c0.424,0.515 1.078,1.169 1.594,2.064c1.455,2.769 2.019,5.634 2.583,8.451c0.564,2.726 1.036,5.212 2.347,7.233c1.458,2.345 2.868,4.79 4.227,7.184c2.35,4.037 4.507,7.889 7.184,11.362c2.676,3.522 3.804,7.373 5.028,11.128c0.846,2.958 1.735,5.727 3.24,8.029c0.94,1.458 2.77,3.755 3.382,4.227c0.045,0.036 0.045,0.036 0.045,0.07c0.561,-0.705 1.364,-2.113 1.83,-3.05c1.83,-3.191 3.711,-5.261 5.493,-7.325c0.8,-0.938 1.596,-1.832 2.442,-2.909c1.126,-1.457 1.457,-2.775 1.923,-4.746c0.189,-0.797 0.397,-1.69 0.66,-2.627c0.281,-0.847 0.524,-1.549 0.747,-2.205c0.489,-1.269 0.713,-1.974 0.8,-3.663c0.141,-2.019 0.547,-3.94 0.987,-5.871c0.357,-1.834 0.754,-3.525 0.797,-5.257c0.141,-5.212 2.487,-14.227 2.442,-19.439c-0.051,-4.042 0,-15.213 -4.227,-20.1c-0.985,-1.128 12.048,-24.271 11.785,-25.448c-0.232,-1.314 -7.795,-20.656 -4.459,-21.974l3.24,-1.358c3.049,-1.364 21.485,46.768 21.222,50.431c-0.132,2.158 -0.306,4.321 -0.219,6.292c0.093,2.023 0.45,3.898 0.846,5.728c0.466,2.491 0.982,5.07 0.937,8.077z" /> <path d="M593.119,431.346c3.618,3.896 3.618,6.572 3.618,10.283v0.846c0,6.101 -1.881,11.033 -3.711,15.821c-1.128,2.959 -2.205,5.776 -2.817,8.875c-1.034,4.929 -1.62,9.676 -1.971,15.592c-0.188,2.253 -0.587,4.269 -0.893,6.382c-0.423,2.352 -0.844,4.507 -0.889,6.859c-0.141,11.41 -3.899,22.397 -7.845,32.583c-0.538,1.316 -0.713,2.818 -0.889,4.507c-0.189,1.598 -0.354,3.099 -0.705,4.648c-0.801,3.007 -1.878,5.402 -3.054,7.986l-0.516,1.032c-1.551,3.43 -2.958,6.999 -4.416,10.564l-0.889,2.161c-0.561,1.315 -1.173,2.726 -1.83,4.177c-1.551,3.428 -3.338,7.325 -3.804,10.332c-0.129,0.799 -0.218,1.548 -0.263,2.161c-0.329,2.297 -0.611,4.41 -2.069,7.325c-3.756,7.464 -6.714,11.55 -14.272,16.102c-5.309,3.198 -10.564,6.859 -14.839,10.192c-2.444,1.923 -4.791,4.458 -7.044,6.951c-1.22,1.311 -2.486,2.677 -3.755,3.895c-0.471,0.515 -1.035,1.036 -1.647,1.6c-0.939,0.798 -2.361,2.064 -2.58,2.769c-0.042,0.281 0.047,1.176 0.134,1.74c0.087,1.078 0.263,2.347 0.087,3.705c-0.141,1.55 -0.638,2.772 -1.078,3.759c-0.253,0.561 -0.477,1.125 -0.564,1.689c-0.918,4.27 -0.617,9.625 -0.306,14.884c0.132,2.535 0.263,5.022 0.263,7.374v32.773c0,2.346 0.045,4.699 0.045,7.044c0.142,8.5 0.325,17.186 -1.505,25.685c-0.179,0.986 -0.134,1.971 -0.134,3.099c0.042,1.263 0.042,2.436 -0.045,3.705c-0.239,1.645 -0.705,3.098 -1.176,4.367c-0.312,0.896 -0.618,1.789 -0.752,2.726c-0.231,1.55 -0.484,3.008 -0.747,4.459c-0.33,1.88 -0.627,3.713 -0.846,5.635c-0.894,7.797 -4.086,16.579 -6.81,22.165c-2.487,5.163 -42.351,40.992 -43.434,40.428c-1.924,-1.033 -0.187,-27.235 3.195,-33.997c2.958,-5.917 21.455,-24.179 22.397,-29.625c0.186,-1.224 0.442,-2.396 0.705,-3.618c0.516,-2.394 0.987,-4.508 0.987,-6.853c-0.045,-2.537 -0.045,-4.981 -0.045,-7.516l0.045,-3.705c0,-2.071 0.042,-4.18 0.087,-6.34c0.093,-6.247 0.233,-12.726 -0.937,-18.595c-0.705,-3.852 -1.176,-7.704 -1.647,-11.551c-0.325,-2.728 -0.637,-5.402 -1.077,-8.128c-0.234,-1.5 -0.482,-3.099 -0.705,-4.648c-0.471,-3.24 -0.936,-6.48 -1.641,-9.622c-1.434,-6.058 -1.217,-12.445 -1.083,-18.643c0.047,-1.831 0.134,-3.665 0.134,-5.446c0,-0.752 0.047,-1.506 0.134,-2.352c0.045,-0.94 0.179,-2.298 0.045,-2.862c-0.031,-0.19 -0.208,-0.423 -0.471,-0.895c-0.467,-0.751 -1.098,-1.833 -1.409,-3.333c-0.572,-2.535 -0.352,-5.402 -0.176,-7.986c0.047,-1.078 0.134,-2.155 0.134,-3.142c0,-8.831 1.875,-17.043 3.705,-23.947l0.471,-1.786c0.688,-2.397 1.215,-4.13 1.128,-6.432c-0.986,0.846 -1.689,1.83 -2.535,2.817c-1.55,1.973 -3.287,4.179 -6.009,5.728c-0.846,0.468 -1.689,0.824 -2.535,1.222c-0.561,0.233 -1.224,0.448 -1.83,0.846c-0.423,0.265 -0.772,0.529 -1.035,0.705c-1.597,1.109 -2.535,1.479 -5.352,1.549c-10.895,0.325 -17.326,-9.58 -20.003,-19.066c-0.135,-0.518 -0.224,-1.127 -0.311,-1.74c-0.185,-0.797 -0.401,-1.971 -0.797,-2.627c-0.423,0.754 -0.865,1.971 -1.128,2.584l-0.612,1.454c-1.218,2.817 -2.437,4.979 -3.895,7.465l-0.564,0.987c-2.254,3.943 -3.615,5.029 -7.233,7.325c-5.304,3.43 -10.888,4.417 -15.446,2.817c-2.535,-0.889 -6.007,-3.142 -7.747,-8.593c-0.309,-0.89 -0.529,-1.737 -0.705,-2.535c-0.329,-1.22 -0.612,-2.255 -1.218,-3.473c-0.942,-1.881 -1.251,-2.586 -1.647,-4.882c0,-0.151 -0.045,-0.257 -0.045,-0.398c-3.336,2.536 -4.366,5.775 -5.683,10.142c-0.702,2.162 -1.407,4.416 -2.442,6.669l-0.657,1.409c-0.986,2.163 -2.022,4.414 -2.628,6.432c-0.172,0.613 -0.219,1.128 -0.306,1.6c-0.093,1.176 -0.33,2.534 -1.035,4.134c-0.186,0.463 -0.438,0.869 -0.657,1.309c9.627,4.134 9.769,11.317 8.827,15.592c-0.233,1.128 -0.578,2.014 -0.797,2.909c-0.399,1.129 -0.662,1.923 -0.705,3.382c-0.043,1.267 0.089,2.631 0.176,3.993c0.183,3.141 0.466,6.76 -0.564,10.045l-0.8,2.631l-2.722,0.07c-4.98,0.093 -8.361,-5.118 -12.397,-13.051c-0.519,-0.944 -0.82,-1.597 -1.083,-2.302c-0.374,-0.844 -0.749,-1.644 -1.409,-2.584c-0.233,-0.423 -1.03,-1.032 -1.782,-1.596c-1.079,-0.895 -2.303,-1.83 -3.192,-3.197c-1.223,-1.874 -2.113,-4.319 -3.006,-6.713c-0.422,-1.269 -0.893,-2.535 -1.409,-3.522c-0.612,-1.408 -1.409,-2.772 -2.206,-4.134c-1.74,-3.05 -3.523,-6.241 -4.323,-9.671c-2.346,-10.472 0.237,-23.573 3.711,-31.32c1.971,-4.411 4.836,-6.764 7.887,-9.25l1.599,-1.269c1.692,-1.36 2.346,-2.445 3.522,-4.459l1.078,-1.786c6.479,-10.468 23.433,-12.067 32.773,-9.862c1.456,0.331 2.914,0.734 4.367,1.128c3.006,0.843 6.152,1.689 8.922,1.83c3.19,0.104 6.431,0.068 9.671,0.034c3.194,-0.107 6.339,-0.107 9.675,0.034c3.427,0.124 6.904,0.265 9.862,-0.44c1.407,-0.331 2.86,-0.786 4.269,-1.226c2.585,-0.794 5.12,-1.654 7.937,-1.971c7.888,-0.94 14.461,0.188 20.144,3.618c2.817,1.691 5.072,3.802 7.233,5.82c1.128,1.035 2.253,2.112 3.522,3.148c14.836,12.022 17.861,9.366 18.124,8.968c1.318,-1.503 2.02,-4.46 2.677,-7.044c0.172,-0.845 0.436,-1.64 0.612,-2.394c0.794,-2.863 1.689,-5.68 3.705,-8.734c0.424,-0.609 1.083,-1.362 1.788,-2.018c0.325,-0.38 0.896,-1.016 1.03,-1.226c0.091,-0.182 0.044,-0.795 -0.043,-1.5c-0.045,-0.938 -0.087,-1.922 0,-2.909c0.186,-1.648 0.688,-2.916 1.128,-3.993c0.168,-0.472 0.43,-0.987 0.564,-1.6c0.888,-3.565 1.69,-7.276 2.487,-10.987l1.035,-4.834c0.749,-3.382 2.346,-5.917 3.755,-8.17c0.984,-1.551 1.878,-2.958 2.442,-4.558c0.606,-1.689 1.218,-3.382 1.875,-5.071c1.266,-3.522 2.535,-6.996 3.618,-10.614c0.513,-1.923 0.864,-3.945 1.17,-5.916c0.564,-3.472 1.176,-7.089 2.865,-10.564l0.797,-1.592c1.833,-3.619 4.086,-8.126 4.086,-11.366c0,-2.719 -4.037,-5.397 -7.325,-7.558c-1.221,-0.752 -2.298,-1.499 -3.192,-2.161c-1.549,-1.168 -3.43,-1.64 -5.635,-2.253c-2.205,-0.563 -4.65,-1.218 -7.092,-2.627c-2.017,-1.223 -2.77,-1.342 -4.741,-1.74c-0.705,-0.164 -1.548,-0.339 -2.535,-0.515c-7.418,-1.689 -15.92,-8.499 -20.708,-14.134c-1.314,-1.549 -2.627,-2.96 -4.036,-4.411l-1.549,-1.549c-3.007,-3.099 -4.648,-6.719 -6.247,-10.192l-0.937,-2.064c-2.677,-5.635 -3.85,-11.974 -4.507,-16.861c-0.239,-1.315 -0.482,-2.628 -0.705,-3.946c-0.643,-3.565 -1.259,-7.228 -1.083,-11.41c0.096,-2.535 0.66,-4.46 1.224,-6.382c0.281,-0.845 0.571,-1.739 0.747,-2.726c2.111,-9.627 5.448,-18.643 9.675,-25.919c0.564,-1.036 1.128,-2.02 1.594,-3.007c1.317,-2.581 2.677,-5.304 5.31,-7.981c1.501,-1.499 2.77,-3.24 3.988,-4.929c1.551,-2.161 3.148,-4.316 5.169,-6.247l0.797,-0.797c2.205,-2.113 4.978,-4.84 7.417,-6.34c1.317,-0.796 2.535,-1.364 3.759,-1.881c1.831,-0.746 2.769,-1.17 3.847,-2.677c1.441,-2.064 3.057,-4.93 1.881,-7.135c-0.984,-1.922 -1.83,-3.895 -2.583,-5.916c-0.656,-1.69 -1.267,-3.334 -2.113,-5.023c-0.373,-0.704 -0.937,-1.316 -1.642,-2.113c-0.988,-1.128 -2.164,-2.396 -2.911,-4.182c-0.583,-1.269 -0.718,-2.578 -0.894,-3.804c-0.04,-0.745 -0.176,-1.573 -0.263,-1.971c-0.612,-1.593 -1.314,-3.1 -1.971,-4.6c-1.316,-2.866 -2.724,-5.825 -3.429,-9.298c-0.345,-1.41 -0.477,-3.381 -0.564,-5.586c-0.187,-3.289 -0.516,-8.829 -2.158,-10.142c-0.099,-0.106 -0.565,-0.423 -1.929,-0.176c-1.219,0.191 -3.285,1.549 -4.974,2.726c-1.365,0.847 -2.631,1.69 -3.759,2.205c-3.382,1.689 -8.311,4.035 -12.863,5.071c-6.436,1.459 -13.431,1.071 -20.144,0.754c-2.865,-0.106 -5.776,-0.317 -8.358,-0.247c-0.796,0 -1.69,0.107 -2.677,0.141c-4.509,0.374 -12.819,1.079 -14.884,-6.295c-1.082,-3.662 0.093,-6.806 0.987,-9.39c0.326,-0.896 0.663,-1.782 0.797,-2.677c0.089,-0.613 0.042,-1.456 -0.045,-2.443c-0.047,-1.269 -0.132,-2.678 0.087,-4.227c0.166,-1.127 0.43,-2.204 0.606,-3.24c0.423,-1.876 0.808,-3.663 0.942,-5.776c0.185,-4.128 0.608,-11.079 7.325,-14.086c5.116,-2.298 10.564,-3.282 15.821,-4.269c2.394,-0.423 4.839,-0.846 7.092,-1.459c7.093,-1.69 13.805,-3.895 19.955,-6.669c2.677,-1.171 4.79,-2.392 6.859,-3.988c0.232,-0.19 0.578,-0.486 0.889,-0.803c1.881,-1.734 3.198,-2.843 4.839,-3.283c3.099,-0.709 5.261,0.605 6.762,1.451c0.754,0.423 1.36,0.826 2.065,1.036c4.789,1.363 8.077,2.257 12.493,6.292c1.833,1.691 3.615,2.816 5.728,4.134l4.275,2.817c2.629,1.739 5.635,3.708 8.029,5.868c1.081,1.036 1.924,2.161 2.77,3.289c0.513,0.703 0.984,1.408 1.641,2.021c1.315,1.313 3.196,2.345 5.119,3.522c1.692,0.986 3.334,1.969 4.839,3.142l1.735,1.269c5.634,4.276 13.29,10.051 12.633,18.926c-0.381,5.494 -4.227,10.234 -7.656,14.509c-1.219,1.458 -2.394,2.913 -3.288,4.275l-1.642,2.486c-3.712,5.544 -6.598,9.862 -6.292,15.967c0.141,2.394 0.748,5.958 1.594,7.465c0.518,0.939 1.689,2.156 2.817,3.333c1.266,1.316 2.583,2.721 3.618,4.317c0.513,0.803 0.919,1.549 1.359,2.352c0.986,1.691 1.878,3.193 3.147,4.411l1.221,1.173c2.113,1.972 4.51,4.176 5.728,7.465c0.385,0.893 1.465,3.756 -0.134,6.15c-1.502,2.314 -4.129,2.42 -5.869,2.49c-0.796,0 -1.596,0 -2.253,0.141c-1.783,0.466 -4.741,1.923 -8.827,4.317c-7.936,4.697 -12.818,8.453 -17.516,15.918c-3.803,6.01 -7.887,12.96 -9.015,19.207c-0.877,5.255 -0.919,15.446 0.44,20.61c0.987,3.664 1.74,6.669 2.958,9.817c0.233,0.656 0.533,1.45 0.752,2.296c0.205,0.564 0.382,1.128 0.516,1.6l0.516,1.318c0.564,1.315 1.145,2.677 1.364,3.946c1.127,4.693 2.909,10.467 7.325,13.474c3.051,2.065 6.29,4.228 9.764,5.728c0.893,0.421 1.971,0.943 3.054,1.549c1.266,0.662 2.627,1.372 3.705,1.689c4.275,1.269 10.426,0.86 15.826,0.613c2.345,-0.176 4.601,-0.317 6.572,-0.317c5.071,-0.043 7.324,1.13 10.564,4.605z" /> <path d="M534.511,182.276c-0.469,0.191 1.364,-4.364 1.83,-6.101c0.985,-3.851 3.287,-9.204 5.352,-12.726c4.464,-7.606 10.566,-14.087 16.861,-20.144c10.423,-10.094 16.15,-23.759 24.743,-35.358c4.416,-5.825 7.748,-11.926 11.503,-18.124c3.098,-5.071 6.578,-9.768 8.549,-15.403c2.818,-7.797 6.573,-15.589 9.862,-23.195c3.423,-7.746 7.981,-17.233 6.805,-25.919c2.277,3.284 1.314,6.763 1.971,10.468c0.703,4.041 1.594,7.043 1.549,11.366c-0.044,4.41 -0.603,9.297 -0.087,13.708c0.421,3.711 1.743,6.76 1.83,10.564c0.188,9.064 -2.163,19.861 2.865,27.425c1.552,2.346 4.603,5.164 6.904,6.853c2.063,1.5 5.022,3.663 7.275,4.74c0.798,0.281 2.064,-0.151 3.099,0.247c0.612,0.281 1.314,1.513 1.971,1.83c1.599,0.802 3.24,1.033 4.839,1.689c2.578,1.035 5.071,3.198 7.606,4.275c7.326,2.958 15.681,7.233 23.618,7.233c8.079,0 14.086,-3.618 20.567,-8.077c2.769,-1.925 4.458,-4.651 6.81,-6.904c3.286,-3.192 7.089,-5.119 9.862,-8.923c5.396,-7.467 10.799,-14.791 16.199,-22.301c6.382,-8.733 13.003,-17.001 19.391,-25.735c2.818,-3.804 6.762,-7.75 8.968,-11.926c1.083,-2.064 2.491,-8.334 5.119,-8.404c0.96,2.536 0.396,6.009 0.396,8.686c0,4.133 0.933,9.204 0.087,13.192c-1.55,6.952 -2.302,13.621 -4.367,20.567c-3.942,13.056 -8.922,24.982 -16.621,36.158c-6.199,8.824 -13.009,17.889 -17.609,27.419c-2.069,4.416 -4.362,6.762 -4.275,11.974c0.048,4.275 -0.656,8.784 0.753,12.82c2.818,7.794 12.863,12.023 20.61,12.91c9.016,1.035 17.704,-1.128 24.044,-7.51c6.198,-6.296 8.778,-15.733 14.509,-22.446c2.677,-3.148 4.832,-5.825 6.853,-9.53c2.023,-3.851 5.263,-6.669 7.516,-10.38c7.605,-12.538 11.832,-26.809 16.855,-40.521c4.649,-12.77 10.095,-24.701 13.29,-38.034c2.254,-9.532 6.995,-18.221 11.974,-26.624c3.801,-6.528 7.605,-15.777 13.381,-20.896c1.952,7.372 0.22,17.608 0.263,25.214c0.092,5.211 -0.52,9.957 -1.317,15.073c-0.71,4.51 0.092,9.064 -0.797,13.48c-1.737,9.34 -3.049,18.496 -3.006,27.983c0,2.816 0.176,5.727 0,8.544c-0.188,3.381 -1.519,6.436 -1.83,9.862c-0.612,7.704 -0.092,14.932 -1.409,22.636c-1.547,9.622 -3.189,19.672 -7.887,28.313c-4.273,7.889 -7.7,16.104 -13.712,22.914c-5.254,6.008 -10.749,11.643 -16.34,17.374c-8.31,8.403 -17.791,14.038 -27.371,20.47c-7.986,5.351 -17.705,6.88 -27.425,6.81c-7.931,-0.07 -15.916,-0.034 -23.849,0c-9.487,0.047 -14.746,-5.775 -20.944,-12.022c-1.924,-1.973 -3.424,-2.862 -5.071,-5.023c-1.551,-2.065 -3.285,-3.895 -4.834,-5.916c-2.253,-2.867 -4.788,-4.881 -7.281,-7.374c-3.241,-3.24 -7.42,-7.608 -9.862,-11.455c-1.735,-2.676 -2.677,-5.54 -4.6,-8.217c-4.839,-6.81 -10.376,-11.362 -17.609,-15.025c-6.622,-3.396 -12.727,-3.396 -20.519,-3.43c-4.887,-0.045 -6.199,-0.045 -9.439,3.43c-2.395,2.535 -4.182,5.538 -6.481,8.215c-4.134,4.885 -8.269,8.734 -11.086,14.465c-1.408,2.909 -2.91,5.96 -3.847,8.918c-1.125,3.621 -3.429,6.389 -4.788,9.862c-1.456,3.9 -1.787,8.451 -2.865,12.445c-1.077,3.895 -2.627,6.994 -2.582,11.128c0.095,5.448 0.612,7.02 -5.164,6.81c-4.368,-0.139 -7.938,-1.173 -11.974,-2.913c-7.138,-3.099 -14.559,-6.523 -20.66,-11.128c-2.582,-1.971 -4.839,-5.395 -7.14,-7.747c-2.958,-2.958 -5.916,-5.398 -8.593,-8.638c-0.985,-1.225 -2.535,-2.02 -3.424,-3.289c-0.753,-1.079 -0.847,-2.536 -1.599,-3.473c-1.69,-2.162 -7.999,-4.929 -8.218,-7.281z" /> <path d="M293.072,193.264c0.939,9.536 -7.513,14.509 -16.199,19.488c-5.493,3.148 -10.284,6.714 -15.967,9.58c-2.487,1.317 -4.459,2.632 -7.092,3.43c-2.817,0.889 -5.494,0.797 -7.465,3.191c-5.586,-3.613 -10.186,-3.521 -13.003,-10.846c-1.317,-3.43 -1.705,-5.869 -1.881,-9.439c-0.093,-3.007 -1.429,-5.542 -1.74,-8.545c-0.324,-3.008 -1.606,-5.495 -1.782,-8.549c-0.141,-3.846 -0.564,-6.994 -1.642,-10.705c-0.846,-3.048 -0.941,-7.65 -3.288,-9.952c-1.691,-1.693 -6.245,-3.031 -8.544,-3.382c-5.449,-1.078 -15.31,-1.177 -20.003,1.549c-3.852,2.161 -7.513,5.494 -11.317,8.311c-3.615,2.629 -4.038,5.023 -6.432,8.641c-2.02,3.239 -5.354,5.961 -7.796,9.015c-3.474,4.46 -8.263,6.621 -12.868,9.812c-4.833,3.332 -10.422,4.554 -16.102,5.682c-3.289,0.609 -6.199,2.865 -9.487,3.382c-2.677,0.402 -5.868,-0.07 -8.593,-0.07c-13.335,0 -27.14,1.598 -39.351,-4.507c-11.593,-5.728 -21.502,-15.448 -31.553,-23.666c-14.651,-11.876 -24.273,-28.173 -30.894,-45.592c-4.604,-12.115 -7.561,-24.23 -11.176,-36.675c-3.664,-12.629 -8.727,-25.025 -8.593,-38.359c0.14,-15.684 -0.281,-30.946 2.161,-46.392c0.373,-2.628 2.536,-18.467 6.101,-18.643c1.317,6.76 2.069,13.338 2.069,20.332c0,6.9 0.889,12.958 1.641,19.579c0.705,6.571 3.522,13.147 4.839,19.768c1.733,8.92 3.566,17.984 6.572,26.765c2.817,8.356 3.613,16.807 7.417,24.977c3.901,8.361 7.704,16.764 12.916,24.511c3.614,5.4 7.465,10.048 11.551,14.605c2.114,2.347 6.243,5.536 9.108,6.664c5.163,1.888 14.508,3.91 19.156,-0.317c6.247,-5.823 6.573,-13.338 3.57,-20.803c-1.459,-3.756 -2.304,-7.747 -3.382,-11.974c-1.035,-3.99 -3.069,-7.467 -3.288,-11.596c-0.662,-11.648 0.043,-23.571 0.043,-35.216c0,-11.975 2.254,-22.538 5.305,-33.624c0.752,-2.628 4.039,-7.045 6.621,-3.615c0.98,1.266 0.086,6.106 0.043,7.606c0,4.035 0.043,7.98 0,12.021c-0.14,8.917 1.361,18.637 3.003,27.371c1.316,6.762 1.269,13.853 2.958,20.425c1.689,6.578 4.556,11.084 8.451,16.53c2.21,3.052 4.746,6.855 7.845,8.968c2.581,1.83 5.258,3.711 7.84,5.541c2.022,1.359 3.898,1.081 5.869,2.021c1.972,0.888 2.866,2.676 5.071,3.24c7.423,1.691 17.468,-0.283 24.137,-2.113c5.353,-1.408 10.799,-2.394 16.199,-3.148c3.805,-0.515 7.375,-2.535 11.08,-3.43c6.576,-1.502 15.592,-4.834 20.615,-9.439c4.929,-4.461 6.853,-11.691 6.81,-17.983c-0.044,-3.429 0.748,-7.837 0.043,-11.176c-0.747,-3.426 -1.782,-5.355 -1.782,-9.39c0.047,-4.65 0.752,-7.234 1.782,-11.503c1.083,-4.604 2.916,-9.297 3.382,-14.184c0.8,-8.968 7.14,-16.714 8.922,-25.448c2.868,0.471 2.537,2.91 3.334,5.071c1.407,3.429 2.614,6.289 3.054,9.952c0.353,2.913 -0.559,6.104 -0.043,8.97c0.564,2.627 1.689,5.163 2.865,7.606c1.503,3.24 1.923,6.292 3.192,9.25c1.079,2.626 2.676,5.54 3.852,8.217c0.797,1.735 2.113,2.999 2.91,4.648c0.963,1.923 0.612,3.38 1.269,5.493c2.065,6.621 6.811,12.44 8.734,19.25c4.368,15.635 7.981,32.82 15.355,47.704c3.711,7.325 7.186,13.665 12.538,20.1c1.504,1.833 2.77,3.802 4.558,5.398c1.876,1.74 6.01,3.008 6.481,5.635z" /></svg>