<svg xmlns="http://www.w3.org/2000/svg" viewBox="0 0 981 896" width="981" height="896"><path d="M160.786,894.235c-0.625,-1.013 0.092,-1.312 1.681,-0.702c3.095,1.187 3.662,2.469 1.091,2.469c-0.925,0 -2.173,-0.794 -2.773,-1.766zM215.789,868.634c-6.119,-1.389 -11.318,-4.059 -15.186,-7.803c-7.518,-7.274 -25.122,-17.858 -32.334,-19.441c-3.064,-0.673 -8.417,-3.084 -11.894,-5.356c-3.477,-2.272 -8.733,-4.687 -11.682,-5.365c-7.904,-1.815 -16.967,-7.778 -17.016,-11.192c-0.113,-7.936 -9.171,-24.119 -20.653,-36.898c-10.855,-12.079 -14.538,-14.798 -31.673,-23.375c-10.664,-5.339 -20.469,-9.707 -21.788,-9.707c-1.319,0 -4.093,-2.211 -6.164,-4.913c-6.337,-8.271 -19.499,-29.056 -20.605,-32.539c-0.574,-1.81 -5.365,-7.932 -10.646,-13.606c-9.924,-10.662 -11.691,-15.046 -11.735,-29.117c-0.013,-4.544 -1.188,-11.598 -2.608,-15.674c-3.29,-9.442 -2.43,-12.342 11.579,-39.072c13.018,-24.841 14.822,-27.874 22.306,-37.49c3.06,-3.93 7.344,-10.235 9.525,-14.009c4.49,-7.778 11.787,-17.18 23.644,-30.468c4.477,-5.018 10.887,-12.74 14.246,-17.162c26.639,-35.083 63.596,-69.4 93.069,-86.42c4.542,-2.623 14.992,-11.404 23.226,-19.514c21.526,-21.204 42.181,-38.784 45.57,-38.784c5.353,0 14.54,-7.12 17.653,-13.681c2.092,-4.407 2.787,-9.026 2.176,-14.451c-0.832,-7.378 -0.027,-9.393 10.793,-26.994c6.431,-10.462 14.4,-23.444 17.707,-28.848c3.307,-5.404 7.268,-14.248 8.797,-19.653c1.53,-5.405 4.276,-13.847 6.102,-18.76c9.715,-26.126 12.479,-39.46 12.454,-60.114c-0.013,-11.156 1.161,-25.913 2.608,-32.792c6.144,-29.214 8.688,-60.701 7.708,-95.362l-0.955,-33.724l19.534,-7.624c15.232,-5.944 23.351,-7.993 36.87,-9.304c19.384,-1.878 52.486,-0.876 59.323,1.793c3.41,1.332 6.036,0.95 11.096,-1.611c3.648,-1.845 9.112,-3.355 12.148,-3.355c3.036,0 7.692,-1.123 10.344,-2.494c2.654,-1.372 7.176,-2.78 10.049,-3.127l5.225,-0.633l-0.448,21.44c-0.43,20.595 -2.357,36.503 -4.922,40.652c-0.667,1.08 -1.82,9.661 -2.56,19.068c-0.74,9.407 -2.206,21.596 -3.253,27.085c-1.047,5.49 -2.74,30.01 -3.76,54.493c-3.284,78.798 -3.858,84.393 -9.657,94.244c-2.953,5.017 -6.42,15.134 -8.268,24.119c-4.127,20.081 -5.188,23.272 -13.751,41.386c-3.948,8.352 -8.525,18.95 -10.172,23.546c-1.647,4.596 -5.874,12.136 -9.4,16.752c-4.089,5.356 -7.487,12.671 -9.392,20.219c-2.937,11.642 -3.137,11.903 -12.7,16.703c-5.342,2.682 -14.106,6.266 -19.474,7.965c-5.368,1.699 -12.025,5.136 -14.794,7.638c-4.849,4.38 -7.481,8.035 -30.612,42.504c-5.776,8.604 -12.288,18.282 -14.476,21.506c-3.452,5.085 -12.47,12.026 -25.052,19.276c-12.17,7.013 -28.033,15.062 -29.684,15.062c-3.77,0 -38.341,20.406 -48.035,28.351c-16.413,13.453 -46.6,45.348 -50.108,52.942c-12.367,26.771 -15.997,48.368 -15.997,95.154v39.026l9.094,17.646c16.524,32.06 32.154,45.968 55.44,49.326c7.252,1.045 18.01,2.816 23.906,3.933c5.896,1.117 22.38,1.999 36.626,1.961c24.653,-0.067 26.636,-0.344 40.987,-5.74c8.296,-3.118 15.643,-5.669 16.328,-5.669c2.5,0 3.53,12.648 1.61,19.777c-1.978,7.344 -14.751,21.845 -25.611,29.072c-2.72,1.811 -6.155,5.832 -7.638,8.933c-4.466,9.355 -20.589,14.797 -56.05,18.922c-8.352,0.972 -18,2.145 -21.44,2.609c-3.44,0.464 -10.439,-0.107 -15.557,-1.268zM773.591,858.378c-1.966,-0.787 -5.849,-1.487 -8.632,-1.556c-2.783,-0.069 -9.224,-2.892 -14.316,-6.272c-6.291,-4.176 -12.802,-6.716 -20.306,-7.925c-6.075,-0.978 -12.899,-2.771 -15.163,-3.984c-2.264,-1.213 -9.344,-2.808 -15.73,-3.544c-6.388,-0.736 -16.036,-2.696 -21.44,-4.355c-5.404,-1.659 -14.135,-3.676 -19.402,-4.484c-5.267,-0.807 -11.296,-3.043 -13.4,-4.967c-2.104,-1.924 -7.21,-5.199 -11.348,-7.275c-6.03,-3.027 -7.894,-5.147 -9.384,-10.679c-2.22,-8.243 -0.865,-16.886 3.888,-24.807c1.916,-3.194 3.774,-5.806 4.13,-5.806c0.356,0 3.304,1.492 6.554,3.315c3.25,1.824 10.732,4.269 16.628,5.437c5.896,1.168 14.445,3.293 19,4.726c6.202,1.951 18.129,2.604 47.528,2.604c38.62,0 39.348,-0.069 45.32,-4.311c3.34,-2.372 13.087,-8.487 21.664,-13.588c13.925,-8.285 16.05,-10.261 19.862,-18.469c2.348,-5.055 4.816,-11.49 5.483,-14.302c0.667,-2.812 2.744,-8.438 4.614,-12.507c10.901,-23.718 11.231,-25.349 12.066,-59.872c0.634,-26.16 0.261,-34.14 -1.832,-39.306c-3.704,-9.138 -13.297,-41.001 -14.584,-48.427c-2.182,-12.597 -7.8,-20.943 -17.952,-26.673c-5.274,-2.976 -13.066,-6.297 -17.314,-7.38c-12.256,-3.122 -15.16,-6.518 -16.08,-18.788c-1.116,-14.896 -12.375,-33.545 -27.361,-45.322c-6,-4.713 -15.285,-13.109 -20.639,-18.654c-6.711,-6.952 -12.328,-10.944 -18.091,-12.86c-4.598,-1.527 -9.426,-4.077 -10.73,-5.666c-1.304,-1.589 -9.206,-6.042 -17.557,-9.894c-24.41,-11.258 -27.157,-12.68 -38.002,-19.678c-5.669,-3.658 -11.81,-6.649 -13.648,-6.649c-5.132,0 -10.144,-5.488 -12.398,-13.579c-1.555,-5.58 -4.993,-9.948 -14.417,-18.324c-8.28,-7.358 -12.767,-12.783 -13.56,-16.39c-0.652,-2.965 -2.986,-7.583 -5.188,-10.262c-13.092,-15.926 -29.64,-46.967 -29.64,-55.599c0,-4.631 -3.86,-13.817 -15.474,-36.817c-2.057,-4.074 -2.473,-9.004 -1.737,-20.546c0.534,-8.352 1.815,-36.492 2.85,-62.532c1.198,-30.192 2.847,-51.122 4.546,-57.763c1.466,-5.73 2.668,-15.074 2.668,-20.767c0,-5.693 1.596,-16.682 3.546,-24.424c2.43,-9.641 3.554,-20.121 3.574,-33.279c0.027,-18.727 0.128,-19.205 4.048,-19.174c5.94,0.048 34.252,9.309 51.109,16.722l14.722,6.474h57v6.168c0,6.565 3.984,23.584 6.784,28.993c0.927,1.789 2.254,14.081 2.949,27.316c0.73,13.882 2.34,26.636 3.805,30.145c1.397,3.345 2.542,8.128 2.542,10.623c0,2.495 4.422,12.457 9.826,22.134l9.826,17.592v26.986c0,23.436 0.61,29.251 4.637,44.201c5.169,19.191 10.808,26.972 25.737,35.503c19.67,11.244 35.126,21.695 44.614,30.171c6.21,5.545 14.33,10.68 20.597,13.026c21.781,8.15 29.429,12.979 38.289,24.179c4.706,5.948 9.514,13.767 10.687,17.374c2.915,8.973 11.779,20.807 17.551,23.432c2.623,1.193 11.642,9.26 20.042,17.926c8.4,8.666 18.892,17.844 23.313,20.393c4.735,2.731 13.502,11.222 21.325,20.653c7.341,8.849 15.735,17.062 18.76,18.355c6.477,2.766 15.301,13.394 15.301,18.432c0,1.954 0.745,5.511 1.656,7.906c2.999,7.89 9.066,45.536 9.038,56.093c-0.013,5.696 -1.24,13.841 -2.724,18.099c-3.128,8.979 -1.478,18.017 4.438,24.313c3.074,3.27 3.355,4.796 1.861,10.009c-0.971,3.382 -1.775,11.382 -1.79,17.775c-0.015,6.393 -1.206,15.012 -2.648,19.151c-1.442,4.139 -3.097,10.973 -3.676,15.186c-0.579,4.213 -2.105,10.474 -3.388,13.913c-1.282,3.439 -6.12,17.912 -10.748,32.16c-9.268,28.532 -15.109,44.376 -17.618,47.792c-0.904,1.228 -3.606,2.234 -6.005,2.234c-2.399,0 -6.122,0.934 -8.268,2.077c-5.502,2.928 -17.774,12.566 -20.339,15.971c-1.185,1.576 -7.32,6.227 -13.633,10.34c-8.455,5.51 -12.647,9.696 -15.912,15.898c-2.438,4.63 -6.557,12.357 -9.151,17.172c-2.594,4.815 -4.719,10.214 -4.719,12.001c0,1.786 -2.771,6.019 -6.158,9.406c-8.632,8.632 -20.94,11.827 -45.553,11.827c-15.884,0 -21.232,0.674 -26.524,3.342c-4.374,2.206 -7.845,2.855 -10.201,1.912z" /></svg>