<svg xmlns="http://www.w3.org/2000/svg" viewBox="0 0 896 1013" width="896" height="1013"><path d="M896,309v256h-64v448.002h-768v-448h-64v-256h217.024c-25.622,-14.35 -49.928,-31.62 -70.72,-52.412c-58.318,-58.318 -65.072,-146.116 -15.086,-196.104c22.48,-22.482 52.606,-33.486 84.26,-33.486c38.732,0 79.752,16.478 111.846,48.57c59.812,59.814 90.578,148.656 106.018,214.458c20.85,-65.484 59.6,-157.246 126.076,-223.722c41.538,-41.538 93.828,-65.362 143.46,-65.362c34.854,0 65.064,11.788 87.364,34.086c27.958,27.96 39.488,69.914 31.63,115.1c-7.166,41.222 -29.51,82.32 -62.912,115.722c-15.932,15.932 -33.318,30.268 -51.444,43.148zM502.942,309h50.672c51.372,-19.892 110.486,-50.114 154.432,-94.06c42.692,-42.69 57.31,-102.97 31.28,-128.998c-10.742,-10.744 -25.75,-12.998 -36.45,-12.998c-30.228,0 -64.826,16.55 -92.55,44.274c-55.326,55.326 -88.816,134.234 -107.384,191.782zM197.214,205.676c33.872,33.872 87.77,61.766 155.874,80.67c1.84,0.512 3.67,1.01 5.486,1.496c-0.488,-1.816 -0.986,-3.646 -1.496,-5.486c-18.902,-68.104 -46.796,-122.004 -80.668,-155.876c-17.464,-17.464 -39.674,-27.48 -60.932,-27.48v0c-9.56,0 -23.104,2.152 -33.348,12.396c-12.246,12.246 -12.898,29.374 -12.196,38.494c1.51,19.626 11.452,39.96 27.28,55.786zM384,533h-256v416h256zM384,373h-320v128h320zM768,533h-256v416h256zM832,373h-320v128h320z" /></svg>