<svg xmlns="http://www.w3.org/2000/svg" viewBox="0 0 1024 1024" width="1024" height="1024"><path d="M1004.694,559.684l-445.006,445.006c-25.784,25.75 -67.53,25.75 -93.268,0l-447.12,-447.08c-25.75,-25.754 -25.75,-67.512 0,-93.288l295.892,-295.876l78.17,78.17c-5.996,12.532 -9.36,26.564 -9.36,41.384c0,41.796 26.718,77.336 64,90.516v266.968c-37.282,13.182 -64,48.72 -64,90.516c0,53.02 42.98,96 96,96c53.02,0 96,-42.98 96,-96c0,-41.798 -26.718,-77.334 -64,-90.516v-266.968c3.208,-1.134 6.342,-2.42 9.384,-3.876l127.976,127.974c-5.998,12.532 -9.362,26.566 -9.362,41.386c0,53.02 42.98,96 96,96c53.02,0 96,-42.98 96,-96c0,-53.02 -42.98,-96 -96,-96c-14.82,0 -28.854,3.364 -41.386,9.36l-127.976,-127.974c5.998,-12.532 9.362,-26.566 9.362,-41.386c0,-53.02 -42.98,-96 -96,-96c-14.82,0 -28.852,3.364 -41.384,9.36l-78.17,-78.17l103.882,-103.876c25.772,-25.754 67.53,-25.754 93.268,0l447.096,447.08c25.76,25.75 25.76,67.528 0.002,93.29z" /></svg>