<svg xmlns="http://www.w3.org/2000/svg" viewBox="0 0 640 1024" width="640" height="1024"><path d="M640,240c0,105.412 -32.372,204.828 -91.154,279.938c-45.428,58.048 -102.478,96.54 -164.846,112.172v327.89h96c17.674,0 32,14.326 32,32c0,17.674 -14.326,32 -32,32h-320c-17.672,0 -32,-14.326 -32,-32c0,-17.674 14.328,-32 32,-32h96v-327.89c-62.366,-15.632 -119.418,-54.126 -164.846,-112.172c-58.782,-75.11 -91.154,-174.526 -91.154,-279.938c0,-79.96 18.748,-157.124 54.216,-223.144c5.576,-10.38 16.406,-16.856 28.19,-16.856h475.188c11.784,0 22.614,6.476 28.19,16.856c35.468,66.022 54.216,143.184 54.216,223.144zM64.002,240c0,5.364 0.106,10.696 0.296,16h511.406c0.188,-5.304 0.296,-10.636 0.296,-16c0,-62.662 -13.126,-123.098 -38.1,-176h-435.8c-24.972,52.902 -38.1,113.336 -38.098,176z" /></svg>