<svg xmlns="http://www.w3.org/2000/svg" viewBox="0 0 836 832" width="836" height="832"><path d="M387.952,831.315c-129.607,-4.014 -215.485,-39.776 -281.56,-117.249c-42.366,-49.674 -77.212,-125.132 -98.728,-213.801c-5.452,-22.463 -7.29,-46.025 -7.29,-93.381c0,-29.932 0.895,-46.854 2.836,-53.582c0.597,-2.073 2.944,-10.321 5.218,-18.332c53.839,-189.796 169.247,-308.249 322.822,-331.333c21.584,-3.243 28.839,-3.651 64.797,-3.635c20.492,0.008 40.605,0.435 48.145,1.023c57.299,4.465 97.693,11.821 118.11,21.508c8.93,4.238 36.617,19.805 54.508,30.646c83.319,50.485 139.897,103.234 175.105,163.252c44.819,76.402 54.941,166.419 30.841,274.298c-10.453,46.79 -24.971,88.632 -44.076,127.026c-22.104,44.42 -43.339,74.367 -75.487,106.454c-29.092,29.035 -57.219,49.193 -93.125,66.734c-51.122,24.973 -104.973,37.693 -171.133,40.424c-20.669,0.852 -21.753,0.851 -50.976,-0.054zM440.951,805.005c1.525,-6.791 4.784,-10.939 14.566,-18.529c2.226,-1.726 4.146,-3.204 4.27,-3.281c0.124,-0.077 -0.159,-3.506 -0.625,-7.624c-0.853,-7.538 -1.798,-10.548 -3.308,-10.548c-0.45,0 -2.998,-1.537 -5.661,-3.413c-4.363,-3.077 -5.399,-3.445 -10.507,-3.735c-11.536,-0.652 -24.959,6.12 -41.07,20.718l-5.115,4.634l3.016,6.348c3.207,6.753 4.44,13.478 2.827,15.424c-1.067,1.285 -0.708,1.607 2.769,2.494c2.58,0.656 26.142,1.864 33.52,1.716l4.392,-0.087zM388.445,802.342c-0.753,-5.675 -2.697,-11.779 -4.44,-13.929c-1.388,-1.714 -1.75,-1.785 -4.682,-0.906c-1.748,0.524 -4.667,2.228 -6.489,3.787c-1.822,1.559 -4.262,3.196 -5.426,3.638c-1.708,0.649 -2.112,1.332 -2.112,3.555c0,1.57 0.574,3.23 1.335,3.864c1.392,1.157 13.758,3.62 19.199,3.825l3.139,0.118zM346.377,802.743c3.24,-1.357 3.344,-1.52 3.81,-6.002c0.688,-6.611 -0.786,-19.171 -3.475,-29.592c-10.207,-39.57 -41.674,-89.94 -93.829,-150.195c-14.334,-16.561 -16.456,-18.536 -28.11,-26.171c-42.889,-28.099 -146.37,-74.289 -187.167,-83.545c-9.094,-2.062 -16.191,-2.527 -16.191,-1.057c0,0.487 4.075,8.589 9.054,18.003c4.979,9.414 17.855,34.969 28.613,56.79c20.016,40.605 25.908,51.694 40.616,76.437c10.966,18.453 15.333,24.202 27.649,36.411c44.264,43.88 134.813,96.13 187.785,108.361c9.694,2.239 10.764,2.354 19.824,2.141c5.458,-0.127 9.174,-0.643 11.42,-1.583zM484.241,801.623l7.688,-1.397l0.519,-6.878c0.559,-7.405 2.411,-14.066 6.811,-24.5c1.531,-3.632 2.785,-7.039 2.785,-7.573c0,-0.534 -1.113,-1.215 -2.476,-1.514c-3.315,-0.728 -7.325,-4.889 -10.559,-10.953c-3.091,-5.802 -5.268,-7.553 -8.404,-6.766c-3.212,0.806 -7.195,5.193 -8.417,9.275c-1.52,5.074 -1.268,15.627 0.67,28.194c1.903,12.322 2.106,17.938 0.702,19.341c-1.643,1.643 -4.506,1.085 -7.377,-1.435l-2.738,-2.405l-5.031,3.738c-3.741,2.78 -4.758,3.93 -3.965,4.482c1.54,1.073 20.733,0.037 29.79,-1.609zM546.546,783.697c47.294,-14.902 46.039,-14.377 62.665,-26.195c30.917,-21.978 99.996,-83.484 128.29,-114.224c12.883,-13.995 23.627,-32.563 35.831,-61.925c11.784,-28.346 30.994,-84.961 28.829,-84.961c-3.763,0 -74.013,25.175 -103.902,37.238c-27.494,11.095 -28.437,11.643 -51.381,29.933c-22.754,18.141 -35.652,30.205 -47.996,44.895c-11.784,14.023 -34.06,44.128 -36.353,49.126c-1.078,2.352 -6.698,11.559 -12.486,20.459c-22.734,34.95 -30.33,50.886 -35.749,75c-1.358,6.042 -4.876,18.126 -7.819,26.851c-4.764,14.129 -5.509,17.499 -3.868,17.499c0.258,0 20.03,-6.164 43.94,-13.695zM375.275,778.355c10.575,-3.175 15.826,-6.547 22.598,-14.517c5.628,-6.623 8.863,-9.29 13.696,-11.289c5.483,-2.267 5.848,-2.528 6.427,-4.591c0.299,-1.072 0.58,-6.276 0.626,-11.57l0.081,-9.624l-5.513,0.513c-8.158,0.759 -16.701,3.945 -22.604,8.431l-2.63,1.998l2.426,2.763c2.97,3.383 3.224,6.912 0.63,8.729c-2.554,1.788 -4.543,1.57 -8.09,-0.887l-3.097,-2.146l-1.963,1.843c-1.943,1.826 -4.473,7.858 -4.473,10.666c0,2.089 -3.436,4.103 -5.93,3.477c-3.02,-0.759 -4.016,-4.312 -2.914,-10.392c0.968,-5.33 2.476,-8.822 5.011,-11.597c3.703,-4.051 -2.545,-5.609 -10.931,-2.723c-8.723,3.001 -8.425,1.355 -3.124,17.262c2.559,7.677 5.518,16.975 6.572,20.663c1.54,5.371 2.17,6.594 3.178,6.158c0.692,-0.298 5.201,-1.725 10.02,-3.173zM463.804,747.831c1.865,-3.672 4.401,-8.431 5.642,-10.578l2.255,-3.904l-3.152,-2.759c-6.253,-5.469 -17.673,-8.171 -31.072,-7.351c-4.62,0.282 -8.729,0.72 -9.135,0.968c-0.406,0.248 -0.736,6.044 -0.736,12.876v12.421l11.935,0.277c11,0.254 12.252,0.442 15.981,2.386c2.226,1.162 4.238,2.163 4.472,2.226c0.234,0.063 1.952,-2.89 3.815,-6.56zM509.673,733.065c4.739,-11.364 15.797,-34.284 26.461,-54.852c7.806,-15.056 11.351,-20.911 17.869,-29.527c4.473,-5.909 7.96,-10.918 7.748,-11.13c-0.212,-0.212 -1.809,0.339 -3.549,1.222c-8.062,4.091 -56.153,23.483 -65.357,26.352c-6.834,2.131 -7.013,2.249 -5.913,3.913c2.515,3.805 6.012,4.953 15.108,4.953h8.495l-0.127,2.705c-0.078,1.645 -1.07,3.878 -2.532,5.699c-2.102,2.618 -2.445,3.776 -2.72,9.215c-0.223,4.405 -0.708,6.616 -1.662,7.572c-2.3,2.3 -5.544,0.225 -9.071,-5.807c-1.681,-2.872 -3.156,-5.221 -3.282,-5.221c-0.126,0 -1.943,0.96 -4.045,2.135l-3.818,2.135l2.301,1.882c1.266,1.034 2.565,1.895 2.887,1.911c0.669,0.032 3.055,4.4 3.055,5.596c0,1.438 -2.513,3.334 -4.42,3.334c-1.033,0 -3.464,-0.721 -5.403,-1.601c-5.393,-2.448 -10.028,-2.121 -16.603,1.168c-3.084,1.542 -7.026,4.033 -8.762,5.531l-3.155,2.727l4.266,0.505c5.404,0.641 11.255,3.316 18.736,8.569c5.635,3.958 9.006,5.069 10.083,3.325c0.706,-1.141 8.781,-1.009 9.951,0.162c1.603,1.603 1.109,4.184 -1.367,7.15l-2.337,2.801l3.047,2.606c1.964,1.682 3.86,4.522 5.336,7.997l2.291,5.389l1.725,-5.57c0.949,-3.061 3.093,-8.846 4.764,-12.85zM371.324,727.277c8.469,-1.397 25.787,-5.801 34.369,-8.741c3.305,-1.132 6.845,-2.059 7.871,-2.059c1.072,0 2.401,-0.824 3.135,-1.942c1.114,-1.701 1.191,-4.367 0.626,-21.627l-0.645,-19.688l-5.663,-0.979c-8.095,-1.397 -12.541,-1.361 -12.541,0.104c0,1.527 -2.463,3.836 -8.486,7.961c-10.33,7.072 -14.169,11.908 -14.169,17.848c0,4.025 -2.323,6.507 -6.094,6.507c-2.25,0 -3.377,-0.468 -4.233,-1.758c-1.072,-1.617 -1.345,-1.666 -3.369,-0.618c-4.901,2.534 -19.112,19.611 -18.34,22.041c1.508,4.751 10.658,5.731 27.545,2.946zM443.446,711.266c0.63,-0.864 1.148,-2.238 1.148,-3.052c0,-3.93 11.446,-12.915 29.399,-23.081l8.089,-4.581l-5.874,-5.503c-6.904,-6.467 -4.102,-6.134 -30.4,-3.616l-18.609,1.782l0.189,10.505c0.105,5.778 0.409,14.875 0.675,20.215l0.487,9.709l6.875,-0.405c5.58,-0.329 7.091,-0.7 8.023,-1.975zM362.477,687.589c1.574,-1.07 2.648,-2.289 2.388,-2.71c-0.26,-0.421 -3.455,-0.772 -7.102,-0.777c-8.373,-0.016 -10.588,-1.033 -10.922,-5.014c-0.397,-4.757 1.821,-5.7 12.629,-5.362c8.178,0.254 9.042,0.442 12.194,2.628l3.391,2.352l2.46,-2.352c1.353,-1.293 3.198,-3.546 4.101,-5.005c3.107,-5.021 0.252,-6.103 -19.557,-7.41c-22.345,-1.475 -29.35,-3.439 -51.303,-14.397c-6.633,-3.309 -12.939,-6.352 -14.014,-6.762l-1.956,-0.744l1.657,2.227c0.912,1.225 4.949,6.415 8.975,11.532c16.567,21.069 29.508,40.838 32.08,48.995l1.356,4.297l10.38,-9.777c5.709,-5.376 11.667,-10.653 13.24,-11.72zM411.013,658.065l4.855,-1.059v-135.841l-8.495,-1.497c-17.39,-3.062 -37.357,-11.378 -50.066,-20.845c-7.822,-5.83 -17.263,-15.737 -22.826,-23.957c-2.378,-3.515 -7.977,-13.488 -12.444,-22.168l-8.118,-15.777l-142.037,-0.413l0.528,2.229c8.281,34.931 34.612,86.393 64.362,125.792c26.442,35.015 56.014,61.873 85.641,77.777c13.909,7.468 32.659,13.923 47.335,16.3c8.745,1.416 33.785,1.087 41.267,-0.541zM444.356,654.124c60.659,-12.562 105.064,-31.259 139.409,-58.704c8.83,-7.055 24.837,-23.042 31.908,-31.869c6.995,-8.729 17.608,-24.724 23.418,-35.292c12.201,-22.197 23.731,-54.36 30.361,-84.701l1.54,-7.051l-149.662,0.412l-2.658,6.878c-12.765,33.013 -33.039,57.79 -56.614,69.189c-8.068,3.902 -16.445,6.467 -23.692,7.254c-2.582,0.28 -5.516,0.682 -6.518,0.889l-1.821,0.378v67.548c0,58.604 0.156,67.548 1.177,67.548c0.648,0 6.565,-1.115 13.149,-2.478zM206.835,560.501c-6.615,-8.994 -10.774,-15.656 -12.384,-19.831c-0.895,-2.322 -5.421,-13.145 -10.056,-24.047c-4.635,-10.902 -11.732,-29.109 -15.771,-40.457c-4.037,-11.348 -7.651,-20.95 -8.031,-21.339c-1.288,-1.319 -8.274,14.707 -10.671,24.476c-0.504,2.058 -1.134,8.47 -1.397,14.253l-0.478,10.51l-2.359,1.128c-1.635,0.782 -3.001,0.903 -4.451,0.396c-1.853,-0.648 -2.12,-1.233 -2.349,-5.167c-0.143,-2.438 0.156,-6.563 0.663,-9.166c0.507,-2.603 0.733,-4.921 0.5,-5.154c-0.968,-0.968 -11.355,7.559 -18.019,14.793c-3.936,4.272 -7.264,8.058 -7.395,8.414c-0.131,0.356 3.256,1.998 7.523,3.652c6.078,2.356 12.181,5.945 28.151,16.556c23.093,15.346 32.899,21.26 43.868,26.456c4.195,1.987 7.858,3.984 8.136,4.436c0.835,1.35 7.043,5.615 7.505,5.154c0.235,-0.235 -1.109,-2.514 -2.983,-5.063zM651.6,546.038c9.385,-8.279 19.467,-14.84 31.688,-20.624c15.285,-7.234 14.172,-6.47 14.075,-9.641c-0.045,-1.535 -0.526,-4.925 -1.07,-7.533c-1.685,-8.118 1.15,-18.727 7.801,-29.194l1.514,-2.382l-3.489,-6.116c-4.649,-8.152 -9.616,-21.028 -12.481,-32.361c-1.286,-5.089 -2.484,-9.399 -2.661,-9.576c-0.864,-0.864 -2.508,4.695 -6.948,23.468c-5.902,24.953 -9.392,37.654 -14.204,51.705c-5.882,17.171 -13.364,33.858 -19.46,43.4c-4.46,6.98 -3.815,6.839 5.233,-1.143zM730.218,509.157c8.234,-2.685 25.345,-8.69 38.031,-13.344c12.686,-4.654 26.155,-9.585 29.938,-10.959c3.783,-1.374 6.961,-2.549 7.061,-2.609c0.384,-0.231 4.237,-25.629 5.584,-36.83c2.044,-16.975 2.066,-49.612 0.042,-59.066c-0.811,-3.783 -1.774,-7.187 -2.145,-7.566c-0.523,-0.536 -5.574,0.606 -7.192,1.626c-0.16,0.1 0.49,1.28 1.446,2.62c2.41,3.385 3.555,7.026 2.958,9.402c-0.955,3.802 -7.676,2.1 -13.565,-3.43l-2.168,-2.036l-7.137,3.022c-12.81,5.427 -13.587,5.827 -15.632,8.05c-1.738,1.89 -2.022,2.961 -2.022,7.63c0,7.252 1.417,9.315 8.585,12.499c6.045,2.685 6.816,4.082 4.262,7.727c-1.248,1.782 -1.195,2.043 1.062,5.237c2.773,3.921 2.679,3.912 16.341,1.798c11.032,-1.709 13.295,-1.198 12.888,2.906c-0.356,3.568 -3.391,5.521 -10.263,6.604c-3.173,0.5 -5.768,1.125 -5.768,1.393c0,0.268 1.488,2.462 3.305,4.879c3.961,5.269 7.214,11.42 7.214,13.643c0,1.805 -2.214,3.293 -4.9,3.293c-1.122,0 -4.204,-2.374 -8.403,-6.473c-3.646,-3.56 -7.227,-6.473 -7.956,-6.473c-1.345,0 -1.682,1.189 -2.515,8.872c-0.618,5.7 -3.863,7.259 -7.515,3.607c-1.961,-1.961 -2.064,-2.462 -1.723,-8.348c0.271,-4.695 0.865,-7.158 2.373,-9.847l2.011,-3.587l-13.852,-15.641l-31.806,-0.136l2.781,7.079c1.528,3.893 3.878,10.629 5.218,14.969c1.34,4.34 2.745,7.889 3.122,7.889c0.377,0 2.273,-0.721 4.214,-1.601c1.941,-0.88 4.723,-1.608 6.181,-1.618c4.486,-0.032 4.496,2.84 0.038,10.5c-1.697,2.918 -2.519,5.322 -2.385,6.979c0.243,3.025 -2.892,5.967 -6.36,5.967c-2.611,0 -4.546,1.929 -5.279,5.258c-1.48,6.739 -3.204,8.428 -7.092,6.948c-4.144,-1.577 -4.753,-9.614 -1.252,-16.525c1.719,-3.389 1.093,-3.331 -3.063,0.292c-4.41,3.841 -4.548,4.275 -2.33,7.283c2.319,3.141 2.595,6.89 0.669,9.018c-1.862,2.057 -4.108,1.851 -7.814,-0.719l-3.171,-2.198l-1.916,2.227c-2.873,3.34 -5.857,15.826 -5.964,24.948l-0.024,2.145l5.462,-1.21c3.004,-0.666 12.199,-3.408 20.43,-6.093zM446.504,508.943c13.461,-3.901 22.724,-9.729 33.882,-21.313c10.803,-11.218 18.879,-24.212 25.584,-41.165c6.337,-16.023 6.162,-14.632 3.451,-27.428c-7.572,-35.724 -17.47,-57.802 -33.3,-74.29c-10.816,-11.266 -24.169,-19.208 -43.539,-25.899c-9.384,-3.242 -12.698,-3.483 -23.015,-1.683c-47.278,8.245 -77.109,44.586 -85.165,103.757l-1.332,9.773l5.256,10.801c17.933,36.861 42.086,58.174 75.571,66.69c16.119,4.1 30.22,4.35 42.608,0.76zM107.444,502.859c0.812,-1.761 4.361,-6.362 7.889,-10.224c3.528,-3.862 6.42,-7.416 6.429,-7.902c0.008,-0.486 2.204,-2.278 4.881,-3.984c2.677,-1.706 5.44,-3.982 6.144,-5.057c1.169,-1.785 1.169,-2.128 0.003,-3.908c-0.704,-1.073 -3.295,-3.692 -5.757,-5.817c-6.22,-5.372 -5.98,-9.222 0.578,-9.222c3.309,0 6.22,1.237 11.649,4.949c2.55,1.744 3.542,2.057 4.13,1.303c0.426,-0.546 3.076,-5.477 5.889,-10.956c2.813,-5.479 5.954,-10.758 6.981,-11.732c1.874,-1.774 2.436,-4.925 1.219,-6.841c-0.503,-0.794 -5.375,-0.977 -21.568,-0.81l-20.917,0.215l-1.765,5.663c-2.376,7.624 -5.105,13.526 -10.466,22.634l-4.49,7.627l0.796,5.503c0.437,3.026 0.802,7.786 0.812,10.576c0.016,4.57 -0.175,5.162 -1.916,5.954c-1.458,0.664 -2.485,0.61 -4.189,-0.219c-2.294,-1.118 -3.042,-2.671 -3.986,-8.294l-0.528,-3.15l-3.786,3.719c-4.66,4.578 -8.925,6.532 -11.837,5.427c-1.566,-0.595 -2.06,-1.358 -2.06,-3.169c0,-2.411 1.197,-4.24 9.549,-14.605c4.771,-5.921 5.394,-9.203 2.541,-13.392c-5.463,-8.022 -5.866,-11.732 -1.272,-11.732c2.884,0 9.288,3.659 11.212,6.406c1.527,2.178 1.868,1.787 6.675,-7.632c4.973,-9.748 4.921,-10.103 -1.475,-10.103c-2.823,0 -9.53,-0.237 -14.904,-0.526l-9.772,-0.526l-0.853,3.171c-0.47,1.745 -2.186,5.349 -3.814,8.011c-1.628,2.662 -5.083,9.294 -7.678,14.739c-5.404,11.337 -9.386,16.204 -15.352,18.772c-4.452,1.917 -14.046,3.272 -23.203,3.282l-5.867,0.006l0.012,3.842c0.016,4.564 0.501,5.487 3.495,6.624c2.797,1.063 17.036,1.082 30.449,0.039c13.533,-1.052 16.66,-0.397 36.926,7.715c9.301,3.724 17.091,6.78 17.314,6.794c0.223,0.012 1.069,-1.417 1.88,-3.178zM29.774,470.477c7.548,-1.091 12.836,-3.541 16.704,-7.739c3.826,-4.151 4.023,-5.385 1.082,-6.726c-1.195,-0.544 -3.471,-2.01 -5.057,-3.258c-6.239,-4.907 -9.532,-6.022 -18.865,-6.376l-8.699,-0.331v25.263l4.652,-0.016c2.558,-0.008 7.141,-0.375 10.181,-0.814zM720.031,463.246c2.266,-1.765 5.088,-4.041 6.27,-5.057l2.151,-1.848l-4.983,-12.742c-2.74,-7.008 -5.616,-13.472 -6.389,-14.362c-1.241,-1.429 -2.411,-1.619 -9.938,-1.619c-6.927,0 -8.619,0.234 -9.006,1.243c-0.784,2.04 9.616,30.361 13.136,35.774c1.709,2.631 4.085,2.255 8.759,-1.388zM58.6,441.628c4.417,-6.168 5.321,-9.381 4.157,-14.8c-2.022,-9.435 -7.956,-21.514 -12.79,-26.043c-3.73,-3.493 -5.25,-3.522 -9.236,-0.174c-4.717,3.964 -8.573,5.562 -17.296,7.165c-11.198,2.058 -10.924,1.704 -10.924,14.106c0,14.292 -0.453,13.825 14.267,14.618c9.831,0.529 12.012,0.907 16.265,2.815c2.701,1.213 5.925,3.263 7.166,4.556c1.241,1.293 2.893,2.353 3.676,2.353c0.803,0 2.853,-1.999 4.715,-4.598zM106.013,421.75c-0.239,-1.447 -0.999,-7.91 -1.693,-14.362c-0.694,-6.452 -1.634,-12.915 -2.093,-14.358l-0.833,-2.626l-3.377,2.313c-9.743,6.675 -18.05,8.378 -21.931,4.499c-1.713,-1.713 -1.604,-4.647 0.238,-6.313c0.829,-0.75 4.556,-2.632 8.285,-4.179c8.058,-3.347 10.88,-5.775 10.142,-8.718c-0.279,-1.116 -2.878,-4.108 -5.771,-6.649c-5.284,-4.64 -6.06,-6.272 -4.425,-9.329c1.306,-2.438 5.992,-1.997 12.649,1.192l5.753,2.758l0.331,-5.182c0.181,-2.851 0.768,-5.622 1.304,-6.155c1.716,-1.716 6.675,-1.185 8.36,0.896c1.997,2.467 1.943,6.468 -0.237,17.564l-1.768,8.996l1.839,10.423c1.01,5.733 2.034,14.793 2.278,20.132l0.439,9.709l17.242,0.253c21.028,0.308 20.949,0.333 20.335,-6.439c-0.837,-9.219 -12.954,-29.821 -17.539,-29.821c-0.786,0 -2.806,1.092 -4.487,2.427c-3.424,2.721 -5.351,3.029 -7.224,1.156c-1.852,-1.852 -1.561,-5.383 0.804,-9.81c2.398,-4.491 2.224,-6.857 -0.846,-11.375c-2.217,-3.265 -2.566,-6.249 -1.099,-9.465c0.729,-1.599 1.534,-2.06 3.594,-2.06c2.099,0 3.668,0.937 7.468,4.455c5.747,5.321 5.544,5.556 6.818,-7.895l0.901,-9.508h7.961l-0.317,12.745c-0.266,10.746 -0.579,13.325 -2.002,16.451l-1.685,3.709l3.463,4.628c1.904,2.545 3.633,4.335 3.841,3.979c0.752,-1.287 3.052,-10.005 4.587,-17.387c2.118,-10.185 3.226,-13.139 14.097,-37.583c5.172,-11.63 9.405,-21.848 9.405,-22.705c0,-0.857 0.747,-4.405 1.657,-7.884c0.912,-3.479 1.549,-6.818 1.416,-7.422c-0.168,-0.762 -2.697,0.273 -8.332,3.412c-48.419,26.968 -92.384,45.247 -128.249,53.325c-28.242,6.362 -30.229,7.26 -32.698,14.8c-1.145,3.494 -2.747,17.167 -2.008,17.148c0.175,-0.006 2.106,-0.552 4.291,-1.215c5.024,-1.524 11.459,-1.54 15.707,-0.043c3.064,1.082 3.439,1.046 5.388,-0.486c2.629,-2.067 5.088,-1.547 10.108,2.139c7.637,5.607 17.275,20.807 22.659,35.74l1.795,4.976l8.214,0.771c4.517,0.422 12.146,0.825 16.949,0.89l8.735,0.12zM313.104,421.75c0.192,-0.556 0.938,-5.687 1.656,-11.402c5.89,-46.879 27.146,-79.488 62.342,-95.647c8.072,-3.706 19.578,-7.213 29.057,-8.859c4.451,-0.773 8.547,-1.532 9.103,-1.69c0.799,-0.226 1.011,-14.9 1.011,-69.896c0,-60.411 -0.156,-69.611 -1.177,-69.611c-2.326,0 -25.358,4.992 -37.463,8.118c-34.161,8.827 -66.631,22.151 -90.688,37.214c-30.24,18.935 -57.27,46.052 -74.314,74.553c-15.372,25.702 -26.448,54.802 -33.364,87.657c-3.76,17.859 -7.957,48.127 -6.909,49.822c0.279,0.448 28.434,0.747 70.43,0.747c55.248,0 70.041,-0.214 70.318,-1.011zM670.676,422.064c0.619,-1.003 -2.458,-21.302 -5.178,-34.152c-11.553,-54.592 -33.621,-96.791 -69.153,-132.256c-35.223,-35.155 -80.525,-60.976 -150.135,-85.576c-6.897,-2.437 -13.36,-4.683 -14.362,-4.987l-1.821,-0.555v70.045c0,49.821 0.253,70.045 0.877,70.045c0.483,0 6.036,2.52 12.34,5.601c20.017,9.782 37.701,22.667 48.713,35.496c16.522,19.246 25.641,41.057 28.806,68.906l0.925,8.131h74.278c40.852,0 74.471,-0.314 74.709,-0.695zM755.381,407.791c0.531,-10.69 1.475,-13.806 5.614,-18.518c3.139,-3.576 7.93,-6.143 15.858,-8.502c7.978,-2.372 8.288,-2.891 6.023,-10.05c-4.403,-13.908 -10.237,-17.765 -16.686,-11.033c-1.258,1.314 -2.926,2.387 -3.705,2.387c-3.724,0 -26.452,20.117 -31.994,28.32c-3.958,5.859 -5.934,12.734 -5.934,20.653v6.893l30.343,-0.44zM685.751,415.277c0.019,-1.001 0.019,-8.011 -0.002,-15.576c-0.024,-9.288 0.357,-15.588 1.176,-19.396c1.403,-6.538 5.557,-15.64 9.203,-20.16c1.396,-1.73 2.536,-3.506 2.536,-3.947c0,-0.441 -1.258,-2.195 -2.797,-3.898c-4.467,-4.946 -6.224,-9.176 -6.701,-16.141c-0.568,-8.296 0.252,-13.19 2.696,-16.096l1.998,-2.374l-3.464,-2.357c-1.904,-1.295 -10.55,-6.862 -19.213,-12.369c-13.495,-8.58 -17.165,-11.379 -25.634,-19.545c-5.437,-5.244 -10.079,-9.534 -10.315,-9.534c-0.236,0 4.266,6.945 10.003,15.432c8.006,11.845 11.026,17.063 12.988,22.454c3.667,10.07 8.755,30.673 14.926,60.425c7.054,34.021 9.899,44.908 11.737,44.908c0.456,0 0.845,-0.819 0.864,-1.821zM715.654,409.54c0,-13.199 3.79,-23.949 11.758,-33.347c4.233,-4.994 25.629,-22.429 29.412,-23.967l2.736,-1.113l-4.356,-3.355c-12.961,-9.981 -23.878,-10.84 -31.065,-2.443c-4.088,4.777 -5.067,8.549 -3.228,12.429c1.276,2.688 1.309,3.281 0.292,5.102c-1.482,2.653 -5.573,3.146 -9.328,1.124c-2.079,-1.12 -3.049,-1.256 -4.124,-0.579c-2.623,1.653 -8.215,10.821 -9.873,16.187c-2.039,6.602 -3.475,18.7 -2.892,24.374c0.24,2.336 0.643,6.25 0.9,8.699l0.462,4.451h19.302zM27.077,395.398c2.448,-1.193 4.451,-2.534 4.451,-2.979c0,-1.479 -5.583,-2.739 -12.34,-2.787l-6.675,-0.045v9.059l5.057,-0.539c2.854,-0.305 6.995,-1.485 9.508,-2.71zM807.35,367.598c1.4,-0.748 1.409,-0.888 0.124,-2.306c-1.588,-1.754 -10.185,-4.836 -13.491,-4.836c-1.368,0 -2.269,0.435 -2.269,1.093c0,2.226 1.848,6.636 3.323,7.935c1.39,1.224 1.929,1.234 6.173,0.125c2.557,-0.669 5.321,-1.573 6.14,-2.011zM803.69,343.262c-0.822,-3.227 -2.961,-13.877 -4.756,-23.666c-3.88,-21.17 -6.025,-29.939 -10.478,-42.852c-10.178,-29.517 -27.15,-56.883 -56.311,-90.798c-30.658,-35.652 -74.383,-76.74 -109.845,-103.213c-9.554,-7.131 -21.062,-14.374 -22.841,-14.374c-0.513,0 -3.008,-1.251 -5.544,-2.778c-5.877,-3.539 -15.19,-7.432 -30.215,-12.632c-13.745,-4.757 -38.994,-12.53 -43.37,-13.351c-3.495,-0.656 -3.583,-2.258 0.816,14.855c6.801,26.45 17.844,54.405 38.74,98.058c13.668,28.554 23.024,46.797 26.143,50.976c5.681,7.611 19.324,22.149 39.123,41.685c21.893,21.605 32.953,31.541 42.88,38.521c3.399,2.391 9.772,7.195 14.161,10.675c13.358,10.595 29.084,20.594 43.58,27.709c15.084,7.403 26.448,11.525 53.403,19.365c9.791,2.848 19.259,5.716 21.038,6.376c5.078,1.879 5.107,1.841 3.479,-4.555zM714.465,340.264l6.179,-6.844l-3.031,-1.048c-1.668,-0.578 -4.918,-2.503 -7.221,-4.283c-4.972,-3.836 -7.673,-4.126 -10.068,-1.079c-2.298,2.922 -2.79,5.343 -1.735,8.523c0.965,2.904 8.088,12.148 9.085,11.792c0.338,-0.121 3.394,-3.297 6.792,-7.063zM35.903,334.987c59.104,-13.612 113.401,-43.069 182.812,-99.183c9.054,-7.318 18.332,-14.553 20.62,-16.08c15.307,-10.208 47.11,-52.812 67.568,-90.523c19.196,-35.384 30.249,-68.485 32.168,-96.343c0.31,-4.507 0.353,-8.196 0.094,-8.196c-0.259,0 -4.954,1.102 -10.432,2.45c-5.479,1.346 -15.496,3.349 -22.261,4.452c-19.743,3.213 -25.877,5.557 -64.569,24.683c-48.548,23.999 -78.974,44.493 -105.618,71.148c-39.145,39.161 -66.695,88.939 -102.381,184.988c-8.503,22.886 -9.04,24.607 -7.667,24.607c0.526,0 4.874,-0.903 9.665,-2.007zM573.028,205.399c-18.845,-31.127 -37.235,-71.285 -50.87,-111.098c-4.595,-13.419 -13.571,-44.205 -15.702,-53.859c-0.848,-3.84 -2.046,-7.026 -2.943,-7.832c-0.832,-0.747 -3.597,-1.599 -6.144,-1.891c-6.987,-0.799 -17.266,-3.322 -22.977,-5.645c-6.606,-2.684 -10.763,-3.365 -11.675,-1.915c-0.78,1.241 -3.446,8.331 -4.076,10.844c-0.24,0.955 0.238,2.461 1.133,3.567c2.2,2.715 5.708,2.359 11.52,-1.173c6.188,-3.759 9.978,-3.76 10.369,-0.002c0.344,3.321 2.143,4.451 7.085,4.451c4.751,0 6.946,1.566 5.483,3.911c-3.047,4.89 -30.064,14.032 -48.232,16.319c-4.112,0.517 -8.619,1.102 -10.017,1.299l-2.543,0.357l-0.588,14.103c-0.645,15.502 -0.319,18.922 2,21.024c3.191,2.889 11.732,1.03 20.091,-4.374c2.632,-1.702 6.064,-3.699 7.625,-4.44c4.2,-1.994 4.926,-4.255 3.777,-11.756c-1.089,-7.117 -0.607,-10.22 1.7,-10.952c3.256,-1.033 5.954,1.296 7.935,6.854c1.022,2.87 2.011,5.372 2.198,5.557c0.187,0.185 4.037,-2.643 8.56,-6.285c6.915,-5.568 8.625,-6.583 10.752,-6.376c2.256,0.219 2.554,0.553 2.77,3.126c0.206,2.459 -0.593,4.051 -5.462,10.875c-3.138,4.398 -5.703,8.443 -5.703,8.99c0,0.547 1.365,1.429 3.035,1.957c6.642,2.106 8.326,4.793 5.057,8.065c-2.359,2.359 -8.477,2.158 -14.766,-0.489c-7.206,-3.033 -9.025,-2.859 -16.451,1.57c-8.102,4.831 -14.378,6.775 -25.189,7.799c-4.716,0.448 -8.689,0.925 -8.825,1.061c-0.474,0.474 -1.975,29.116 -1.548,29.542c0.866,0.866 42.077,-7.944 44.126,-9.434c3.061,-2.228 4,-4.894 4.574,-12.972l0.524,-7.368h3.07c4.136,0 5.588,2.151 5.588,8.272c0,2.57 0.331,4.674 0.734,4.674c0.403,0 4.247,-2.348 8.541,-5.219c8.682,-5.804 10.195,-6.475 13.021,-5.765c2.332,0.585 3.375,3.787 2.127,6.524c-0.474,1.042 -4.869,4.747 -9.769,8.235c-4.9,3.488 -8.924,6.724 -8.95,7.194c-0.024,0.469 1.202,2.06 2.723,3.536c3.422,3.316 4.275,6.181 2.447,8.202c-3.264,3.607 -8.482,2.612 -13.862,-2.642l-3.386,-3.308l-5.513,1.722c-3.033,0.947 -14.036,3.364 -24.455,5.372c-10.419,2.008 -19.127,3.833 -19.351,4.06c-0.227,0.227 1.123,0.409 2.996,0.409c18.038,0 62.626,19.304 126.73,54.87c8.011,4.444 14.673,7.976 14.807,7.851c0.134,-0.125 -1.712,-3.458 -4.101,-7.403zM301.46,184.545c33.868,-16.063 76.223,-31.115 98.226,-34.903l3.236,-0.557l-3.236,-0.991c-3.662,-1.121 -6.206,-2.626 -12.56,-7.44c-5.797,-4.389 -9.834,-5.624 -20.614,-6.304c-4.894,-0.308 -10.538,-0.955 -12.541,-1.436c-10.218,-2.454 -16.064,-8.933 -12.279,-13.606c2.449,-3.022 6.688,-2.435 15.452,2.146c4.031,2.107 7.58,3.58 7.886,3.271c0.306,-0.309 -0.191,-1.573 -1.11,-2.814c-0.916,-1.241 -2.603,-4.101 -3.746,-6.358c-1.143,-2.257 -4.231,-7.519 -6.858,-11.693c-5.673,-9.006 -9.054,-15.51 -9.054,-17.408c0,-0.757 -0.212,-1.163 -0.469,-0.906c-0.257,0.257 -3.658,7.873 -7.554,16.924c-18.154,42.162 -32.295,70.258 -41.449,82.352c-1.704,2.252 -2.975,4.093 -2.825,4.093c0.15,0 4.424,-1.969 9.496,-4.374zM418.338,125.041c0.705,-7.733 1.079,-14.865 0.832,-15.851c-0.541,-2.158 -2.881,-3.164 -11.344,-4.871c-6.93,-1.398 -12.11,-3.676 -18.955,-8.329c-4.341,-2.952 -4.348,-2.953 -14.362,-3.22l-10.019,-0.267v-3.113c0,-4.85 1.089,-5.5 11.16,-6.656c1.766,-0.202 1.631,-0.565 -2.764,-7.483c-6.019,-9.47 -6.167,-12.716 -0.63,-13.824c3.193,-0.639 6.595,2.137 10.077,8.222c3.503,6.12 5.113,7.032 11.201,6.343c5.888,-0.667 6.488,0.084 5.145,6.451c-0.696,3.305 -0.643,4.48 0.275,5.921c1.408,2.213 10.174,5.024 16.509,5.295l4.451,0.189l-0.087,-9.709c-0.101,-11.173 -1.581,-16.516 -6.386,-23.061c-3.139,-4.275 -9.705,-9.051 -15.148,-11.013c-1.904,-0.686 -7.832,-1.548 -13.173,-1.914c-10.036,-0.686 -16.455,-2.332 -23.969,-6.139l-3.883,-1.969l-0.865,3.438c-0.475,1.891 -2.97,10.582 -5.542,19.314l-4.674,15.879l7.939,-0.201l2.307,7.028c3.677,11.204 9.792,21.713 17.239,29.628c7.02,7.462 12.512,8.217 14.241,1.956c0.424,-1.54 1.393,-3.484 2.151,-4.322c1.705,-1.883 6.525,-2.022 9.039,-0.264c2.14,1.501 2.417,5.31 0.5,6.903c-1.696,1.408 -5.174,9.302 -5.174,11.745c0,2.276 2.167,3.83 8.39,6.017c5.175,1.818 12.759,3.169 13.647,2.43c0.327,-0.272 1.171,-6.821 1.876,-14.554zM457.044,51.305c4.539,-1.142 4.749,-1.995 0.651,-2.652c-3.594,-0.575 -6.343,-3.178 -7.456,-7.065c-1.163,-4.049 -0.961,-12.861 0.395,-17.364c0.651,-2.164 0.985,-4.133 0.745,-4.376c-1.074,-1.081 -19.082,-0.875 -26.942,0.309c-4.634,0.697 -8.591,1.433 -8.792,1.632c-0.201,0.199 0.589,2.275 1.751,4.609c2.827,5.673 2.877,10.964 0.132,13.925c-1.091,1.176 -2.366,2.14 -2.832,2.14c-1.65,0 -0.815,2.31 1.553,4.305c2.695,2.268 8.701,4.468 14.904,5.463c5.32,0.851 21.063,0.289 25.892,-0.929zM382.814,31.744c-0.28,-2.336 -0.513,-5.067 -0.517,-6.068c-0.006,-1.812 -0.072,-1.821 -12.751,-1.808c-7.01,0.006 -13.24,0.326 -13.844,0.708c-0.822,0.521 -0.154,1.347 2.639,3.269c2.057,1.414 5.079,3.132 6.718,3.816c3.841,1.605 13.837,4.227 16.333,4.283c1.862,0.044 1.915,-0.113 1.423,-4.204zM406.401,35.021c1.156,-1.156 1.27,-5.418 0.219,-8.183c-1.319,-3.469 -9.249,-5.037 -12.824,-2.533c-0.989,0.694 -1.799,1.717 -1.799,2.276c0,2.052 9.452,9.41 12.088,9.41c0.738,0 1.78,-0.436 2.315,-0.97z" /></svg>