<svg xmlns="http://www.w3.org/2000/svg" viewBox="0 0 1024 1024" width="1024" height="1024"><path d="M1024,512c0,282.77 -229.23,512 -512,512c-282.774,0 -512,-229.23 -512,-512c0,-282.77 229.23,-512 512,-512c282.77,0 512,229.23 512,512zM588,352c0,6.378 0.546,12.876 1.63,19.312c1.616,9.632 9.956,16.688 19.722,16.688c0.002,0 0,0 0.002,0c9.766,0 18.106,-7.058 19.722,-16.69c6.158,-36.684 37.668,-53.31 74.924,-53.31c37.256,0 68.766,16.626 74.926,53.31c1.614,9.634 9.956,16.69 19.722,16.69c9.766,0 18.106,-7.056 19.724,-16.688c1.082,-6.436 1.628,-12.934 1.628,-19.312c0,-63.962 -52.038,-116 -116,-116c-63.962,0 -116,52.038 -116,116zM204,352c0,6.378 0.548,12.876 1.63,19.312c1.618,9.632 9.958,16.688 19.724,16.688v0c9.766,0 18.106,-7.058 19.722,-16.69c6.158,-36.684 37.668,-53.31 74.924,-53.31c37.256,0 68.766,16.626 74.926,53.31c1.616,9.634 9.954,16.69 19.722,16.69c9.768,0 18.106,-7.056 19.724,-16.688c1.08,-6.436 1.628,-12.934 1.628,-19.312c0,-63.962 -52.038,-116 -116,-116c-63.962,0 -116,52.038 -116,116zM384,823.846v-247.846h-192c0,118.722 81.906,219.24 192,247.846zM576,832v-256h-128v256zM832,576h-192v247.846c110.096,-28.606 192,-129.124 192,-247.846z" /></svg>