<svg xmlns="http://www.w3.org/2000/svg" viewBox="0 0 929 960" width="929" height="960"><path d="M839.632,-0.001c0.396,0.214 0.748,0.294 1.189,0.617c-2.289,4.801 -4.492,9.646 -6.87,14.403c-8.324,12.418 -18.366,23.868 -28.187,34.749c-6.739,7.439 -13.564,14.839 -18.057,23.428c-0.088,0.162 -0.262,0.202 -0.351,0.323c-5.594,8.545 -11.186,17.047 -16.692,25.68c-1.454,2.332 -2.554,4.886 -3.788,7.355c-3.215,6.561 -9.028,11.095 -12.948,17.131c-0.925,1.364 -2.422,2.465 -2.995,3.922c-2.422,6.297 -6.826,11.316 -10.79,16.557c-4.096,5.463 -9.513,9.953 -14.005,15.15c-8.676,9.998 -18.19,19.248 -25.897,30.037c-13.212,18.409 -25.368,37.569 -39.814,55.095c-8.235,10.042 -15.547,20.79 -23.298,31.183c-5.637,7.533 -11.407,14.977 -17.044,22.505c-1.982,2.643 -3.876,5.375 -5.505,8.239c-6.21,10.789 -14.181,20.39 -21.404,30.477c0.176,8.5 4.228,15.238 9.821,21.27c4.316,4.668 8.765,9.207 13.125,13.875c0.617,0.661 1.233,1.319 1.85,2.025c0.353,0.706 0.793,1.408 1.454,2.07c8.852,8.634 15.811,18.894 23.562,28.496c0.396,1.189 0.835,2.42 1.101,3.699c0.616,2.905 2.421,5.548 3.479,8.412c0.66,1.762 1.321,3.655 1.365,5.547c0.043,1.368 -0.398,2.514 -1.058,3.482c-30.257,-13.83 -59.766,-29.42 -90.947,-41.225c-0.661,-0.242 -1.321,-0.403 -1.938,-0.484c-2.863,-1.981 -5.637,-4.273 -8.236,-7.004c-1.409,0.662 -3.126,1.014 -4.184,2.03c-6.871,6.867 -12.817,14.577 -17.749,22.9c-6.387,10.704 -14.402,20.218 -21.801,30.126c-5.284,7.043 -11.274,13.564 -17.44,19.906c-7.663,7.883 -14.182,16.912 -20.612,25.853c-4.579,6.298 -10.041,11.801 -15.282,17.441c-2.289,2.376 -4.888,4.49 -7.046,6.955c-10.349,11.583 -21.889,21.891 -33.075,32.591c-9.16,8.811 -18.19,17.836 -27.438,26.559c-7.664,7.266 -11.583,16.691 -16.472,25.853c2.202,3.478 4.052,6.87 6.298,9.953c3.964,5.33 8.28,10.348 12.2,15.678c4.449,5.992 8.765,12.068 12.861,18.321c1.982,3.037 4.183,5.68 6.694,8.323c7.488,7.71 15.107,15.417 21.493,24.006c1.894,2.597 3.832,4.49 5.99,5.769c0.309,0.617 0.704,1.186 1.277,1.759c2.599,2.514 5.417,4.713 8.192,6.96c0.88,0.706 1.849,1.222 2.862,1.585c0.308,0.352 0.662,0.739 1.013,1.102c4.448,4.889 8.94,9.731 13.477,14.576c2.994,3.216 5.813,6.697 9.116,9.602c6.783,6.036 13.213,12.374 21.229,17.131c7.487,4.406 14.27,10.353 20.568,16.429c10.13,9.735 19.51,20.261 28.187,31.36c2.554,3.256 6.121,5.636 8.808,8.763c6.386,7.266 12.508,14.709 18.718,22.109c2.379,2.86 3.171,6.431 3.876,9.953c0.22,1.057 -0.088,2.114 -0.661,2.949c-6.651,-3.478 -13.344,-6.826 -19.907,-10.042c-21.712,-10.654 -38.757,-25.409 -58.62,-38.622c-22.549,-15.021 -47.564,-26.645 -70.775,-40.608c-7.443,-4.445 -15.635,-8.545 -24.003,-12.551c-2.114,-1.497 -4.272,-2.994 -6.386,-4.535c-2.599,-1.896 -5.154,-2.795 -8.192,-2.513c-12.948,-6.383 -25.544,-13.253 -35.586,-21.976c-2.026,-1.731 -4.228,-2.215 -6.298,-1.892c-0.838,-0.795 -1.674,-1.587 -2.467,-2.51c-6.254,0.218 -12.641,1.541 -17.793,5.063c-5.152,3.522 -9.292,8.545 -13.829,12.991c-0.748,0.751 -0.969,2.114 -1.806,2.776c-7.135,5.503 -11.582,13.257 -17.044,20.172c-3.568,4.535 -8.148,8.19 -12.156,12.418c-5.681,6.032 -11.451,11.979 -16.736,18.321c-2.114,2.555 -3.743,5.419 -6.518,7.4c-1.321,0.924 -2.379,2.336 -3.259,3.744c-3.48,5.769 -8.544,9.997 -13.433,14.532c-5.022,4.629 -9.382,10.087 -14.182,14.977c-7.928,8.101 -15.855,16.162 -23.959,24.09c-8.544,8.234 -17.308,16.294 -25.985,24.4c-1.63,1.497 -3.347,2.993 -5.241,4.051c-3.347,1.848 -5.374,4.712 -6.915,8.017c-1.057,2.243 -2.29,4.446 -2.951,6.826c-1.189,4.184 -3.786,7.267 -6.914,10.087c-0.837,0.746 -2.071,1.364 -2.334,2.243c-2.07,6.959 -6.87,7.794 -12.948,6.253c-0.528,-0.121 -1.101,0 -1.938,0.081c-4.14,2.953 -7.047,7.399 -10.614,11.232c-8.853,9.425 -17.661,18.939 -28.143,26.689c-6.431,4.757 -12.244,10.349 -18.322,15.59c-0.837,0.705 -1.673,1.545 -2.114,2.513c-2.642,5.943 -7.442,9.203 -13.344,11.406c-3.921,1.452 -5.198,5.462 -7.4,8.545c-0.925,1.319 -1.101,3.127 -1.938,4.579c-1.321,2.368 -4.404,3.349 -6.386,2.247c-2.247,-1.19 -3.391,-3.921 -2.114,-6.431c2.467,-4.934 5.241,-9.691 8.016,-14.488c4.315,-7.399 8.808,-14.709 13.036,-22.109c0.793,-1.368 1.19,-3.127 1.234,-4.757c0.088,-3.526 1.717,-6.431 3.611,-9.118c4.492,-6.648 9.248,-13.08 13.829,-19.644c0.925,-1.32 1.717,-2.817 2.246,-4.358c1.453,-4.184 2.819,-8.368 4.008,-12.64c2.114,-7.839 5.901,-14.888 10.614,-21.407c2.466,-3.433 4.668,-6.871 5.681,-11.01c1.717,-6.871 6.254,-12.285 9.645,-18.277c4.229,-7.444 8.852,-14.665 13.389,-21.932c1.453,-2.337 3.127,-4.54 4.8,-6.698c2.951,-3.829 4.976,-8.013 5.065,-12.903c0,-3.216 1.453,-5.547 3.303,-8.15c3.48,-4.931 6.078,-10.526 9.293,-15.634c8.104,-12.903 16.032,-25.898 24.62,-38.405c4.669,-6.827 10.57,-12.814 15.943,-19.156c8.411,-9.868 16.604,-19.995 25.368,-29.553c11.979,-13.08 21.581,-28.012 33.472,-41.136c1.806,-1.982 3.171,-4.491 4.845,-6.96c-1.234,-4.491 -1.894,-9.114 -4.537,-13.169c-0.881,-1.363 -1.455,-2.994 -1.718,-4.579c-1.41,-7.929 -5.462,-14.271 -10.438,-20.391c-5.153,-6.386 -11.319,-11.232 -17.969,-15.46c-9.514,-12.814 -21.229,-23.869 -31.182,-36.553c-15.282,-19.555 -32.679,-37.174 -48.27,-56.463c-4.712,-9.691 -9.954,-19.115 -16.824,-27.612c-6.958,-8.589 -13.477,-17.53 -19.026,-27.132c-2.026,-3.477 -4.713,-5.857 -8.28,-7.794c-0.793,-0.396 -1.541,-0.924 -2.29,-1.364c-5.33,-7.4 -10.923,-14.581 -16.472,-21.803c0.968,-0.721 2.158,-1.044 3.523,-0.923c4.669,0.44 9.426,0.746 12.993,4.579c0.925,1.013 2.025,2.025 3.259,2.465c7.003,2.554 14.05,4.934 21.096,7.355c0.748,0.241 1.585,0.241 2.994,0.443c0.704,-1.145 1.056,-1.851 1.541,-2.513c0.352,-0.529 0.705,-0.872 1.101,-1.275c13.433,10.922 27.262,21.226 41.223,31.268c0.881,0.927 1.85,1.806 2.643,2.864c0.353,0.396 0.748,0.977 1.233,1.058c5.196,1.275 7.883,5.903 11.847,8.763c3.611,2.553 7.487,4.712 11.142,7.181c5.285,3.522 10.438,7.178 15.723,10.744c2.07,1.408 3.303,2.053 4.404,1.892c13.873,9.385 27.79,18.72 41.663,28.234c6.034,5.504 12.86,10.087 18.982,15.457c3.523,3.086 7.312,5.903 10.923,8.896c0.882,0.706 1.982,1.324 2.423,2.247c2.952,5.991 8.633,9.162 13.477,13.213c5.241,4.405 10.394,8.94 15.943,13.697c1.321,-1.102 2.775,-1.937 3.699,-3.172c6.695,-8.718 13.478,-17.441 19.907,-26.426c5.638,-7.839 10.879,-16.029 16.252,-24.09c7.928,-11.934 15.679,-24.09 23.871,-35.895c10.394,-14.972 20.789,-29.948 32.812,-43.73c4.537,-5.201 8.5,-10.881 13.609,-15.638c1.586,-1.496 3.128,-3.082 4.669,-4.579c1.189,-1.19 2.775,-2.114 3.567,-3.478c3.655,-6.342 9.381,-10.703 14.402,-15.811c7.883,-8.017 16.206,-15.722 22.945,-24.796c2.466,-3.305 5.284,-6.476 8.456,-8.941c5.153,-4.011 8.632,-9.381 13.036,-13.919c1.894,-1.936 4.14,-3.611 6.254,-5.374c0.836,-0.702 1.85,-1.231 2.598,-1.981c7.179,-7.221 14.27,-14.488 21.449,-21.669c2.775,-2.727 5.681,-5.286 8.412,-8.057c2.509,-2.554 4.8,-5.286 7.178,-7.973c0.749,-0.839 1.321,-1.808 2.158,-2.554c7.091,-6.169 14.183,-12.29 21.273,-18.41c1.453,-1.234 2.951,-2.469 4.404,-3.744c11.274,-10.175 22.902,-20.04 33.78,-30.654c13.697,-13.343 28.098,-25.765 43.117,-37.566c7.839,-6.081 15.943,-11.805 23.65,-17.97c6.254,-5.024 12.112,-10.571 17.793,-16.207c11.759,-11.716 23.299,-23.65 34.926,-35.455c9.116,-9.247 18.278,-18.454 27.438,-27.616c1.982,-1.936 4.14,-3.695 6.474,-5.769c2.599,0.445 5.242,0.84 8.148,1.324c1.232,-1.058 2.598,-1.981 3.699,-3.172c7.532,-7.707 14.93,-15.546 22.55,-23.167c7.62,-7.621 15.416,-15.061 23.211,-22.505c5.197,-4.934 10.791,-9.469 15.811,-14.536c2.687,-2.683 4.845,-5.898 7.003,-9.025c2.908,-1.853 5.815,-3.655 8.633,-5.552z" /> <path d="M489.668,216.943c-0.795,2.288 -1.058,4.757 -0.573,7.533c0.308,1.671 -0.748,3.655 -1.277,5.459c-0.133,0.529 -0.881,1.005 -0.837,1.408c1.278,5.947 -3.259,8.061 -6.87,10.97c-10.526,8.498 -21.317,16.735 -30.477,26.822c-4.052,4.446 -8.631,8.496 -13.3,12.374c-3.259,2.732 -6.739,5.242 -10.262,7.666c-6.606,-6.036 -13.741,-11.499 -21.228,-17.135c-23.65,-17.97 -44.438,-38.537 -67.78,-56.814c-24.752,-19.467 -49.063,-41.355 -71.92,-63.068c-12.112,-11.539 -22.594,-23.077 -36.908,-30.17c-2.202,-2.244 -4.536,-4.358 -6.694,-6.605c-8.236,-8.59 -17.088,-16.517 -27.57,-22.46c-4.052,-2.291 -7.31,-5.857 -11.142,-8.633c-3.787,-2.732 -7.707,-5.329 -11.715,-7.706c-4.801,-2.91 -6.87,-5.815 -5.064,-10.793c0.662,-1.848 0.751,-3.388 0.485,-4.712c0.219,0 0.438,0 0.66,-0.04c0.793,-0.174 1.542,-0.415 2.29,-0.617c14.181,6.871 29.948,12.2 44.306,17.53c1.674,1.323 3.391,2.687 5.109,3.966c2.422,1.715 5.329,2.817 8.28,4.358c0.749,-0.79 1.41,-1.452 2.07,-2.158c2.51,1.102 4.933,2.247 7.179,3.393c4.58,2.376 9.248,4.446 13.873,6.431c2.907,2.377 6.431,3.345 10.174,4.358c0.308,0.04 0.574,0.08 0.881,0.161c16.471,6.475 32.767,12.507 47.829,23.517c9.248,6.782 19.246,12.067 29.199,17.53c1.409,1.101 2.907,2.07 4.448,2.993c6.517,3.878 12.992,7.755 19.51,11.628c0.085,0.041 0.218,0.121 0.351,0.202c0.528,0.395 1.1,0.686 1.673,0.968c4.934,2.905 9.867,5.814 14.887,8.674c7.883,4.494 16.075,8.545 24.223,12.64c8.633,4.362 17.398,8.413 25.941,12.907c4.933,2.599 9.734,5.108 15.107,6.738c7.707,2.335 14.181,7.221 21.14,11.143c2.378,1.364 4.801,2.643 7.663,4.184c0.441,-0.352 0.881,-0.739 1.366,-1.102c2.775,1.147 5.506,2.336 8.324,3.438c2.203,1.056 4.449,2.07 6.651,2.993z" /> <path d="M787.088,798.67c1.321,2.776 2.335,5.726 3.215,8.723c-3.347,-1.852 -6.827,-3.482 -10.57,-4.668c-4.977,-4.01 -10.129,-7.884 -15.327,-11.583c-1.232,-1.545 -2.422,-3.086 -3.699,-4.583c-1.322,-1.63 -3.348,-2.816 -5.242,-3.744c-1.717,-0.835 -3.699,-1.174 -5.593,-1.497c-0.352,-0.041 -0.662,-0.121 -0.969,-0.202c-2.245,-1.235 -4.492,-2.468 -6.87,-3.526c-0.044,-0.04 -0.133,-0.08 -0.177,-0.161c-1.056,-1.21 -2.289,-1.533 -3.699,-1.412c-4.271,-1.629 -8.588,-2.69 -12.948,-2.771c-0.397,-0.483 -0.75,-0.928 -1.146,-1.541c-2.642,-0.133 -5.065,-0.31 -7.443,-2.38c-3.04,-2.687 -6.695,-4.801 -10.791,-5.947c-2.07,-0.573 -4.096,-1.671 -6.034,-2.687c-9.909,-5.414 -19.995,-10.304 -28.539,-18.098c-8.148,-7.444 -17.22,-13.875 -25.985,-20.613c-5.681,-4.406 -11.539,-8.589 -17.264,-12.947c-1.277,-0.969 -2.642,-2.026 -3.655,-3.305c-6.959,-8.678 -16.868,-13.257 -25.985,-18.849c-0.705,-0.395 -1.497,-0.686 -2.29,-0.968c-12.023,-3.833 -21.932,-11.321 -31.974,-18.676c-7.663,-5.592 -13.653,-12.946 -19.378,-20.346c-4.14,-5.375 -8.985,-9.78 -14.138,-13.875c-4.757,-3.788 -9.998,-6.915 -14.887,-10.526c-5.329,-3.962 -10.791,-7.839 -15.547,-12.374c-11.011,-10.525 -22.77,-20.128 -34.926,-29.29c-1.321,-0.968 -2.29,-2.421 -3.699,-3.3c-1.542,-1.012 -3.303,-1.763 -5.109,-2.38c-0.308,-0.162 -0.662,-0.242 -1.013,-0.323c-1.674,-1.452 -3.304,-2.993 -4.625,-4.272c-1.805,-1.807 -3.568,-3.699 -5.197,-5.68c0.529,-1.852 1.189,-3.7 2.158,-5.33c1.101,-1.937 2.289,-3.788 3.435,-5.725c9.16,-6.343 17.968,-13.303 24.751,-21.892c4.889,-6.254 9.734,-12.068 14.887,-17.571c1.497,2.687 3.304,5.195 3.611,8.5c0.176,1.937 2.202,3.744 3.523,5.503c4.933,6.608 8.808,14.048 14.71,19.951c4.713,4.668 9.514,9.207 14.27,13.786c1.453,1.412 3.171,2.114 5.329,1.452c2.335,-0.702 4.36,0.311 6.078,1.808c6.474,5.636 13.08,11.099 19.202,17.086c5.682,5.596 10.659,11.939 16.208,17.708c2.863,2.95 6.209,5.415 9.381,8.013c11.935,9.824 25.149,18.191 35.102,30.303c4.228,5.108 8.545,10.175 12.244,15.678c5.328,7.883 12.243,14.27 18.761,20.963c2.511,2.598 5.858,4.183 7.972,7.621c1.938,3.171 5.373,5.503 8.236,8.057c6.649,5.858 13.564,11.277 21.492,15.416c5.857,3.037 11.362,6.826 16.868,10.57c1.145,0.791 2.246,1.408 3.435,1.937c28.451,25.325 55.669,51.089 79.848,79.98z" /> <path d="M373.54,406.161c-7.09,-0.089 -12.684,3.478 -18.542,6.475c-4.183,2.114 -8.235,4.491 -10.922,8.586c-2.554,3.876 -6.078,4.494 -10.174,2.953c-2.07,-0.795 -4.008,-1.808 -6.078,-2.643c-1.234,-0.529 -2.599,-1.316 -3.876,-1.235c-0.485,0.04 -0.925,0 -1.41,0c-7.002,-6.737 -14.137,-14.092 -19.334,-18.76c-15.547,-13.963 -27.614,-31.844 -41.796,-47.171c-22.065,-23.868 -49.062,-45.977 -70.555,-70.995c0.968,-1.138 2.642,-1.743 4.932,-1.541c5.242,1.279 10.923,1.501 16.428,4.099c7.4,3.567 15.547,5.415 23.167,8.808c9.512,4.184 17.704,10.042 25.015,17.264c3.745,3.699 7.224,7.705 12.773,8.633c0.793,0.128 1.498,0.783 2.202,1.186c13.169,7.62 26.337,15.238 38.405,24.533c8.808,6.782 18.057,12.641 27.482,18.41c4.228,2.598 7.971,5.986 11.759,9.158c1.278,1.012 2.379,2.38 3.128,3.788c4.007,8.016 10.658,13.213 18.365,17.219c1.762,0.973 3.347,1.897 3.832,4.011c0.836,3.523 -1.19,7.262 -4.801,7.222z" /> <path d="M233.077,176.161c1.101,1.102 1.585,2.51 1.585,4.095c-18.366,6.213 -35.718,17.312 -52.102,27.439c-8.853,5.419 -17.616,11.01 -26.337,16.695c-13.257,7.221 -26.161,15.238 -38.625,23.384c-14.666,11.143 -28.363,23.3 -41.179,36.557c-0.528,0.441 -1.1,0.924 -1.629,1.364c-0.705,0.662 -1.232,1.364 -1.673,2.114c-20.919,22.242 -39.505,47.607 -56.065,77.249c-0.177,0.572 -0.396,1.145 -0.573,1.718c-0.441,1.497 -1.761,3.611 -3.479,5.858c-1.365,2.554 -2.731,4.975 -4.052,7.573c-1.454,2.88 -7.003,6.609 -6.607,2.598c-0.484,0.254 -0.88,0.456 -1.321,0.617l-1.058,-14.27c17.881,-79.408 63.641,-145.251 122.348,-193.476c0,-0.041 0.044,-0.041 0.044,-0.081c16.075,-15.368 35.806,-24.707 53.29,-37.876c0.484,0.222 1.012,0.46 1.497,0.662c0.925,-0.088 1.499,0.222 1.85,0.835c19.642,9.252 37.523,21.053 54.083,36.953z" /> <path d="M888.606,257.767c7.884,18.981 19.334,36.556 27.482,55.228c6.386,20.262 10.747,40.914 12.949,62.277c-0.44,-0.133 -0.882,-0.21 -1.189,-0.573c-0.264,-0.31 -0.527,-0.556 -0.793,-0.879c-3.303,1.779 -6.299,2.134 -7.928,-0.202c-1.849,-2.686 -3.875,-5.24 -5.813,-7.883c-9.028,-14.932 -20.391,-28.674 -32.855,-41.225c-11.935,-17.525 -25.632,-33.692 -41.531,-47.651c-29.552,-25.898 -63.244,-55.979 -100.635,-69.499c8.675,-13.786 17.176,-27.656 27.129,-40.123c2.466,-1.804 4.976,-3.389 7.575,-4.535c17.352,-7.621 33.163,10.571 46.948,20.786c14.226,10.525 27.747,21.846 40.431,33.958c3.699,10.966 10.746,19.422 19.026,28.54c3.523,3.828 6.517,7.795 9.204,11.801z" /> <path d="M448.72,27.879c82.667,-3.656 165.421,10.437 234.347,54.788c-1.807,2.509 -4.052,4.756 -5.242,5.858c-18.982,16.957 -39.462,37.61 -63.156,49.193c-34.133,-23.517 -74.827,-27.923 -115.522,-29.464c-16.736,-0.665 -34.925,-1.637 -52.498,0.081c-12.376,-2.331 -25.985,0.178 -37.964,2.643c-12.024,2.51 -25.149,5.681 -36.952,10.837c-2.598,-0.125 -4.141,-0.327 -4.008,-0.488c-0.089,0.133 -0.307,0.412 -0.396,0.573c-7.795,-3.655 -16.075,-6.471 -22.329,-9.025c-20.832,-9.339 -41.267,-19.382 -61.13,-30.565c1.673,-1.941 3.611,-3.833 5.681,-5.374c0.308,-0.88 0.837,-1.936 1.497,-3.038c5.903,-3.878 11.452,-8.283 17.221,-12.378c0.044,-0.041 0.089,-0.081 0.133,-0.081c44.747,-17.175 92.312,-29.065 140.318,-33.559z" /></svg>