<svg xmlns="http://www.w3.org/2000/svg" viewBox="0 0 1170 704" width="1170" height="704"><path d="M644.751,178.456c7.564,13.613 4.539,30.25 -6.804,43.104c-2.269,-9.829 -9.834,-17.392 -19.662,-20.417c-9.828,-3.025 -20.417,0 -27.221,7.563c-7.559,7.562 -9.829,18.15 -6.804,27.979c37.808,76.374 28.733,167.871 -22.687,235.926c-40.833,55.2 -52.932,127.039 -33.27,192.825c8.316,0 16.638,3.78 21.929,9.829c5.291,6.049 8.317,14.368 6.804,22.687c-16.638,1.513 -33.27,2.268 -49.908,1.513c-31.001,-51.423 -46.884,-110.404 -44.614,-170.141c-12.853,12.099 -24.196,26.466 -33.27,42.345c1.513,27.98 -9.074,54.446 -29.491,73.35c-10.586,9.074 -22.686,15.883 -35.54,19.662c31.005,-6.806 62.764,5.293 81.668,31.004l-2.27,1.513c-57.467,9.074 -116.448,9.074 -174.675,0c-3.025,-4.539 -5.293,-9.074 -7.563,-14.368c-27.222,21.172 -65.788,21.172 -93.767,0.755c-19.662,-15.125 -31.005,-37.053 -31.76,-60.495c0,-14.368 4.535,-27.981 12.098,-40.079c23.442,-37.81 24.197,-86.962 0.755,-126.282c-13.613,-22.687 -9.833,-51.423 9.829,-69.57c35.542,61.25 35.542,136.869 1.513,198.875c-9.076,15.123 -10.587,34.029 -4.538,49.908c3.784,8.319 9.075,16.638 16.638,22.687c18.905,15.878 45.371,18.902 67.3,6.804c-7.561,-72.591 14.366,-149.721 54.445,-213.241c5.295,-8.317 6.049,-18.147 2.27,-27.221l-9.829,-23.442c-21.175,-50.666 -70.325,-83.181 -125.527,-83.936c-24.955,-0.755 -48.396,-9.074 -67.3,-24.197c-18.148,-15.125 -31.761,-36.298 -37.81,-60.495l80.154,19.662c-49.908,-12.858 -87.718,-52.177 -99.061,-102.085l-8.319,-35.54l77.129,39.32c-49.151,-24.196 -84.692,-69.57 -97.546,-123.257l-7.563,-31.004l388.675,272.223c-8.318,-53.689 17.391,-107.377 65.786,-133.843c49.908,-27.223 111.914,-18.907 152.748,21.172c15.125,-2.268 30.25,5.291 37.054,18.904z" /> <path d="M777.777,703.421c-4.186,-19.316 -6.579,-42.01 -6.579,-64.224c0,-136.658 89.113,-246.755 199.159,-246.755c110.046,0 199.159,110.579 199.159,247.237c0,22.211 -2.393,44.425 -6.579,63.74z" /> <path d="M784.357,493.366c3.586,2.898 7.174,5.794 10.764,9.658c-16.748,32.352 -28.111,70.016 -31.101,110.579c-25.12,-6.762 -52.631,-20.283 -77.75,-40.563c-50.834,-41.047 -69.972,-92.23 -43.06,-113.961c27.511,-22.214 90.309,-6.763 141.146,34.284zM686.874,469.217c0,-4.346 -4.785,-8.21 -10.169,-8.21c-5.385,0 -10.169,3.864 -10.169,8.21c0,4.346 4.785,8.21 10.169,8.21c5.385,0 10.169,-3.381 10.169,-8.21z" /></svg>