<svg xmlns="http://www.w3.org/2000/svg" viewBox="0 0 856 903" width="856" height="903"><path d="M345.335,813.541l-158.172,-88.087l-93.612,-3.329c-77.427,-2.754 -93.612,-5.004 -93.612,-13.013c0,-7.955 13.541,-10.009 75.858,-11.504l75.858,-1.819v-106.319c0,-66.575 -2.414,-106.32 -6.456,-106.32c-7.181,0 -7.197,0.055 -9.307,33.582c-1.976,31.386 -13.281,43.89 -39.675,43.89c-21.868,0 -34.945,-13.128 -34.945,-35.083c0,-12.898 16.789,-13.225 21.703,-0.425c2.044,5.326 8.166,9.685 13.603,9.685c7.594,0 9.886,-7.684 9.886,-33.132c0,-29.501 2.475,-35.467 22.595,-54.442l22.595,-21.311v-83.838c0,-61.034 -2.573,-88.809 -9.462,-102.115c-5.205,-10.053 -11.175,-29.325 -13.267,-42.827c-4.161,-26.836 -17.139,-36.325 -32.384,-23.673c-13.973,11.597 -19.302,2.718 -10.268,-17.111c7.109,-15.602 10.22,-16.728 38.644,-13.997l30.914,2.97l10.592,-29.609c31.201,-87.215 127.814,-134.412 220.179,-107.562c29.83,8.672 45.495,18.916 80.188,52.435c23.714,22.911 48.306,41.658 54.65,41.658c6.344,0 21.962,-4.358 34.711,-9.685c25.962,-10.847 89.84,-12.874 114.171,-3.624c43.443,16.517 101.109,103.754 101.109,152.959c0,40.63 -9.587,59.62 -51.72,102.448c-29.881,30.375 -39.001,44.407 -42.252,65.012c-3.708,23.496 -2.349,27.455 12.839,37.405c21.161,13.866 16.09,23.474 -12.391,23.474c-23.494,0 -45.339,-20.637 -52.641,-49.732c-6.539,-26.054 11.238,-74.238 40.011,-108.441c32.25,-38.338 39.499,-64.225 26.616,-95.059c-24.307,-58.175 -115.287,-52.354 -162.162,10.374c-12.562,16.809 -13.423,27.793 -15.305,194.896c-1.762,156.478 -0.829,177.082 8.011,177.082c5.502,0 16.567,-10.132 24.59,-22.516c16.738,-25.839 21.804,-27.705 27.395,-10.086c5.474,17.244 -11.562,47.848 -38.672,69.481c-17.451,13.925 -22.555,22.746 -22.556,38.98v20.982l163.013,0.092c150.887,0.092 190.162,3.935 176.83,17.304c-2.848,2.856 -71.56,6.645 -152.692,8.42l-147.513,3.228l85.09,53.248c46.8,29.288 109.785,69.158 139.967,88.604l54.877,35.355l-329.255,-0.835z" /></svg>