<svg xmlns="http://www.w3.org/2000/svg" viewBox="0 0 1081 947" width="1081" height="947"><path d="M421.024,172.912v-8.402c-3.151,-7.352 -6.299,-14.703 -10.5,-21.005c-3.151,-6.302 -7.352,-13.654 -11.553,-19.955c-2.101,-5.251 -5.251,-9.452 -7.352,-14.703c-2.101,-5.251 -4.204,-9.453 -6.304,-15.754c-4.201,-6.302 -8.402,-11.553 -11.553,-17.854c-3.151,-6.301 -6.299,-11.553 -8.399,-17.854c-1.05,-2.101 -1.053,-3.151 -1.053,-4.201c0,-1.05 0,-3.151 -1.05,-4.201c-2.101,-11.553 3.153,-21.005 13.656,-27.307c3.151,-2.101 8.402,-5.251 14.704,-8.402c5.251,-3.151 10.5,-4.201 17.852,-1.05c4.201,2.101 6.302,4.201 7.352,6.301c2.101,2.101 3.153,3.151 5.254,5.251c2.101,2.1 3.148,4.201 5.249,7.352c2.101,2.101 3.153,5.251 5.254,8.402c2.101,3.151 4.198,6.302 7.349,10.503c3.153,4.201 5.251,7.352 7.352,10.503c1.05,3.151 3.151,6.301 5.251,9.452c2.1,3.151 4.204,6.302 6.304,8.402c2.101,2.101 5.249,5.252 7.349,8.402c8.402,8.402 14.704,17.854 17.854,29.407c4.201,12.603 12.603,24.156 25.206,35.709c4.201,7.352 8.405,15.754 13.656,23.105c4.201,8.402 9.45,15.754 13.651,24.156c8.402,13.653 17.854,26.256 29.407,39.911c11.553,12.603 22.055,25.206 33.608,35.709c6.302,6.302 12.603,11.553 18.905,14.704c8.402,5.251 16.804,11.553 25.206,19.955c8.402,8.402 15.754,15.754 23.106,22.055c10.503,12.603 23.106,24.153 37.809,33.606c8.402,8.402 15.754,15.756 23.106,21.008c7.352,5.252 13.653,11.553 19.955,16.804c6.302,6.302 13.653,11.553 19.955,17.854c6.302,6.301 13.653,13.651 19.955,23.106c8.402,9.452 16.807,18.905 24.159,28.357c8.402,9.452 16.804,18.905 26.256,28.357c12.603,18.905 25.204,34.656 36.756,49.362c6.302,7.349 14.706,17.854 23.106,31.508c5.254,6.302 10.503,11.553 16.804,16.804c6.301,5.251 12.603,9.45 18.905,13.653c2.101,2.101 5.251,4.201 8.402,6.302c3.151,2.101 6.302,4.201 9.452,6.302c3.151,2.101 6.302,4.201 9.452,7.352c3.15,3.151 6.302,5.251 10.503,8.402c9.452,6.302 16.807,12.603 24.159,17.854c6.299,5.251 12.603,11.553 18.905,17.854c9.452,8.402 18.902,16.804 27.304,25.206c9.452,8.402 18.905,16.804 27.307,25.206c2.101,2.101 3.151,4.198 5.254,6.299c2.098,2.101 4.198,4.204 5.249,6.304c1.05,1.05 1.05,2.098 1.05,4.198v2.103c-34.658,86.121 -92.423,153.335 -174.343,199.546c-1.05,0 -2.101,0 -2.101,1.053c-1.05,0 -2.101,1.05 -4.201,1.05h-1.05c-2.101,-2.103 -3.151,-3.153 -5.251,-4.204c-2.1,-1.051 -4.201,-2.098 -5.251,-4.198c-8.402,-6.302 -16.804,-13.656 -24.153,-21.008c-8.402,-7.349 -16.804,-15.751 -26.256,-24.153c-4.201,-3.151 -8.405,-6.304 -11.555,-8.402c-3.151,-2.103 -6.299,-4.201 -10.5,-6.302c-9.452,-8.402 -21.008,-12.606 -36.762,-12.606c-7.352,0 -14.701,0 -19.952,0c-6.302,0 -11.555,1.053 -17.857,2.103c-11.553,2.098 -24.156,3.151 -36.759,4.201c-12.603,1.05 -25.206,2.098 -36.759,2.098c-9.452,0 -22.055,1.053 -37.809,4.204c-7.352,1.05 -14.704,2.101 -22.055,2.101c-7.352,1.05 -13.651,2.098 -21.003,4.201c-9.452,2.098 -17.857,3.151 -24.159,4.201c-7.352,1.05 -13.651,2.098 -21.003,4.201c-7.352,2.098 -15.756,3.151 -24.159,3.151c-8.403,0 -17.854,1.048 -27.307,3.148c-7.352,2.101 -15.754,2.101 -24.156,0c-16.804,0 -33.608,2.103 -50.412,6.304c-9.452,2.101 -18.905,4.201 -30.457,6.302c-10.503,2.101 -22.055,2.101 -33.608,1.05c-12.603,0 -24.156,-2.103 -33.608,-5.254c-4.201,-1.05 -9.452,0 -14.704,2.103c-7.352,2.098 -14.704,3.151 -23.106,5.251c-7.352,2.101 -14.704,4.201 -21.005,5.251c-2.101,1.05 -5.249,1.05 -10.5,1.05c-15.754,0 -27.308,-4.204 -35.71,-12.606c-1.05,-2.101 -2.1,-3.148 -2.1,-3.148c-1.05,0 -2.101,-1.053 -2.101,-3.151c-6.302,-9.452 -8.401,-18.905 -4.2,-27.307c1.05,-3.151 3.151,-7.354 7.352,-11.555c9.452,-12.603 21.004,-25.204 35.707,-38.857c9.452,-6.302 16.807,-10.505 24.159,-12.606c12.603,-6.302 27.304,-10.5 43.058,-11.55c8.402,-1.05 15.754,-1.05 23.106,-2.101c7.352,0 14.704,-1.05 22.055,-1.05c4.201,0 8.402,0 13.653,-1.05c5.251,-1.05 9.452,-2.103 13.653,-2.103c10.503,-5.251 23.106,-8.399 36.759,-11.55c4.201,-2.101 8.402,-3.153 13.653,-5.254c4.201,-2.101 9.452,-4.198 14.704,-5.249c7.352,-6.302 12.603,-13.653 13.653,-24.156v-10.503c-2.101,-6.302 -3.151,-11.553 -4.201,-17.854c-1.05,-6.301 -2.101,-12.603 -4.201,-18.905c-2.101,-7.352 -6.302,-14.704 -10.503,-23.106c-6.302,-5.251 -10.503,-9.455 -13.653,-13.656c-3.15,-4.201 -7.349,-7.349 -11.55,-11.55c-5.251,-6.302 -10.505,-11.553 -14.706,-17.854c-4.201,-6.301 -10.503,-11.553 -16.804,-15.754c-10.503,-6.304 -19.952,-13.653 -28.354,-21.005c-8.402,-7.352 -16.807,-13.653 -24.159,-21.005c-4.201,-6.302 -8.399,-12.603 -13.651,-16.804c-5.252,-4.201 -9.452,-9.452 -15.754,-13.653c-6.304,-5.251 -13.656,-10.503 -19.957,-14.704c-6.301,-4.201 -13.653,-9.452 -19.955,-13.653c-11.553,-9.452 -24.156,-17.854 -35.709,-25.206c-12.602,-7.352 -24.155,-14.704 -34.657,-21.005c-26.256,-14.704 -51.462,-29.407 -76.668,-46.211c-25.206,-16.804 -50.412,-32.558 -74.568,-46.211c-3.151,-3.151 -6.302,-6.302 -10.503,-9.452c-3.151,-3.151 -6.302,-5.251 -10.503,-8.402c-5.251,-3.151 -8.402,-6.302 -11.553,-8.402c-8.402,-9.452 -12.603,-18.905 -13.653,-30.457c0,-19.955 6.301,-33.608 17.854,-39.91c3.151,-2.101 7.352,-4.201 12.603,-5.251c10.503,-1.05 22.055,0 33.608,4.201c2.101,1.05 3.15,1.05 5.251,1.05c2.101,0 3.151,0 5.252,1.05c4.201,2.101 8.402,3.151 11.553,5.251c3.151,2.1 7.352,4.201 11.553,6.302c2.101,1.05 3.151,2.101 4.201,2.101c1.05,1.05 3.151,2.101 4.201,2.101c4.201,5.251 9.452,9.45 14.704,12.603c5.251,3.148 10.502,6.302 15.753,7.352c7.352,2.101 15.754,6.299 24.156,10.5c14.704,6.304 27.307,11.553 37.809,17.854c10.503,6.304 22.055,12.606 32.557,18.907c6.302,6.302 13.653,10.503 19.955,13.653c6.302,3.15 11.553,6.302 16.804,8.402c6.302,4.201 13.653,8.399 19.955,11.55c6.302,3.151 13.656,7.354 21.008,11.555c6.302,2.101 11.55,5.251 15.751,7.352c4.201,2.101 9.452,4.201 14.704,6.302c1.05,2.101 2.101,2.101 4.201,0v-2.101c-1.05,-2.101 -1.05,-3.151 -2.101,-3.151c0,0 -1.05,-1.053 -2.101,-3.153c-16.804,-16.804 -33.608,-34.658 -50.412,-52.513c-16.804,-17.855 -34.658,-34.656 -52.513,-49.359c-13.652,-14.704 -27.305,-27.307 -40.959,-38.859c-13.654,-11.552 -28.357,-23.106 -45.161,-34.658c-4.201,-4.201 -9.453,-8.403 -16.804,-13.655c-6.302,-3.151 -13.653,-7.352 -19.954,-11.553c-6.301,-4.201 -12.603,-8.402 -19.955,-12.603c-8.402,-7.352 -16.804,-15.754 -26.256,-25.206c-8.402,-9.452 -17.855,-17.854 -28.357,-26.256c-10.502,-8.402 -14.704,-18.905 -14.704,-30.458c-1.05,-4.201 -1.05,-8.402 -1.05,-11.553c0,-4.201 1.05,-7.352 1.05,-11.553c0,-6.302 2.101,-12.603 6.302,-18.905c2.101,-5.251 6.302,-8.402 11.553,-11.553c2.101,-2.101 4.201,-3.151 7.352,-4.201c3.151,-1.05 5.251,-2.101 7.352,-4.201c6.302,-3.151 12.603,-4.201 17.854,-4.201c5.251,1.05 10.502,2.1 16.804,5.251c2.101,2.101 5.252,3.151 8.402,5.251c3.15,2.1 6.302,4.201 9.453,5.251c2.101,2.101 4.201,3.151 6.301,4.201c2.1,1.05 4.201,3.151 6.301,4.201c6.302,5.251 11.553,9.452 16.805,13.653c5.252,4.201 10.503,8.402 14.704,12.603c6.302,5.251 13.654,9.452 24.156,13.653c8.402,2.101 15.754,6.302 21.005,10.503c5.251,4.201 10.503,8.402 15.754,12.603c9.452,9.452 19.956,18.904 30.459,29.407c11.553,10.503 22.055,18.905 33.608,26.256c9.452,7.352 16.801,12.603 23.103,16.804c6.302,3.151 14.704,7.352 27.307,11.553c2.101,2.101 5.251,2.101 8.402,0c0,-1.05 1.05,-1.05 2.101,-1.05l-1.048,2.101c0,-1.05 -0.003,-2.101 1.048,-2.101c-2.101,0 -4.201,0 -5.251,-1.05c-7.352,-7.352 -15.754,-14.704 -26.254,-23.106c-9.455,-7.352 -17.857,-15.754 -26.256,-24.156c-8.405,-13.653 -16.807,-23.106 -24.159,-29.407c-5.251,-4.201 -10.503,-8.402 -15.754,-12.603c-5.251,-4.201 -10.503,-8.402 -14.704,-12.603c-2.1,-2.101 -5.25,-4.201 -7.351,-7.352c-2.101,-3.151 -4.201,-6.302 -7.352,-9.452c-2.101,-4.201 -5.251,-8.402 -7.352,-11.553c-2.101,-4.201 -5.251,-7.352 -7.352,-11.553c-4.201,-7.352 -7.352,-15.754 -9.452,-24.156c-2.1,-8.402 -2.101,-17.855 -1.051,-28.357c0,-8.402 3.151,-14.703 10.503,-18.904c2.101,-2.101 5.252,-3.151 8.402,-5.251c3.15,-2.1 5.251,-3.151 8.402,-5.252c8.402,-2.1 15.755,-2.1 23.107,1.051c7.352,2.101 14.701,5.251 19.952,10.502c2.101,2.101 5.251,5.252 7.352,7.352c2.101,2.1 5.251,6.301 7.352,10.502c6.302,8.402 12.603,15.754 19.955,23.106c7.352,7.352 15.754,12.603 26.256,17.854c6.302,4.201 11.553,8.402 15.754,11.553c4.204,4.201 9.452,8.402 13.653,14.704c3.151,3.151 5.251,6.302 6.302,8.402c10.503,13.653 22.058,25.206 33.611,35.709c11.553,10.503 19.952,18.905 32.555,30.457c0,-1.05 0.003,-1.05 1.053,-1.05c1.05,0 1.048,0 1.048,1.05h-2.101z" /></svg>