<svg xmlns="http://www.w3.org/2000/svg" viewBox="0 0 1133 1000" width="1133" height="1000"><path d="M447.024,225.168h-10.211l-7.53,-6.901l17.741,-19.355zM447.023,190.51l24.135,-10.343l2.122,4.954v5.389h-26.256zM436.524,169.505l-23.486,11.742l0.733,1.462l0.906,1.36l21.848,-14.564zM424.972,149.55l-24.379,9.751l1.013,2.538l1.518,2.275zM411.315,119.092l21.848,-14.564l1.951,2.926l1.111,3.336l-24.909,8.303zM391.363,83.384l24.907,-8.303l-0.588,-1.77l-0.835,-1.669zM389.26,74.982l-25.831,4.697l1.465,8.07l5.8,5.8l18.566,-18.566zM402.917,47.674l14.564,21.847l-0.52,0.347l-0.536,0.322l-13.509,-22.515zM417.621,39.273l13.506,22.515l-0.864,0.519l-0.901,0.451l-11.742,-23.485zM435.471,38.223l10.345,-24.134l0.709,0.304l0.691,0.345l-11.744,23.485zM424.257,63.09l-3.012,-3.013l-1.906,-3.811l23.484,-11.742zM448.077,49.776zM453.326,57.126l-18.566,18.566l-1.838,-1.838l-1.441,-2.163l21.845,-14.564zM473.28,86.535l21.848,-14.564l1.951,2.925l1.111,3.336l-24.909,8.303zM492.185,112.79l-18.566,18.566l-1.838,-1.838l-1.441,-2.163l21.845,-14.564zM485.133,150.501l-0.231,-0.691l-0.192,-0.703l25.33,-6.909zM535.246,177.906l17.744,-19.355l3.019,2.77l2.035,3.559l-22.798,13.027zM570.267,185.752l1.197,1.676l0.922,1.843l-23.484,11.742zM540.193,238.929l-0.607,-0.985l-0.517,-1.034l23.484,-11.742zM591.961,265.079l-19.354,17.741l-0.352,-0.386l-0.339,-0.396l20.044,-16.959zM643.231,281.358l0.462,0.42l0.441,0.441l-18.566,18.569zM656.215,292.006l1.116,0.559l1.058,0.662l-13.916,22.265zM692.783,357.501l17.088,-19.936l1.673,1.434l1.413,1.694l-20.173,16.809zM744.793,369.024l2.374,1.525l1.993,1.993l-18.566,18.566zM773.655,428.919l16.809,-20.173l0.916,0.764l0.843,0.84l-18.569,18.569zM793.609,446.774zM793.94,487.321l-1.21,-1.363l-1.011,-1.515l21.845,-14.564zM818.095,515.678l-0.572,-0.643l-0.528,-0.68l20.727,-16.119zM882.545,508.024l1.838,1.841l1.441,2.164l-21.845,14.564zM900.736,575.954l-19.934,17.085l-0.365,-0.425l-0.347,-0.438l20.645,-16.221zM903.671,624.27l-1.203,-1.444l-0.987,-1.602l22.36,-13.761zM974.113,616.072l2.164,1.441l1.838,1.838l-18.566,18.569zM982.795,688.122l-0.607,-0.404l-0.583,-0.436l15.754,-21.005zM1021.517,684.131l15.26,-21.367l0.796,0.57l0.751,0.625l-16.807,20.173zM1040.422,701.987l-17.445,19.624l-0.578,-0.515l-0.546,-0.544l18.569,-18.566zM1067.726,727.193l-17.442,19.624l-0.578,-0.515l-0.546,-0.544l18.566,-18.566zM1105.535,765.002l-23.484,11.742l1.906,3.81l3.012,3.014zM1106.585,771.304h26.256v5.083l-1.898,4.718l-24.358,-9.802zM945.143,993.718l-6.005,3.387h-6.895v-26.256zM930.142,971.902v26.256h26.256v-26.256zM924.891,972.953v26.256h-10.875l-7.691,-7.691l18.566,-18.566zM914.388,964.55l23.486,-11.744l-2.773,-5.543l-4.96,-3.718l-15.754,21.005zM907.525,923.784l0.656,0.575l0.62,0.617l-18.566,18.566zM863.979,919.388l15.751,-21.005l0.874,0.654l0.817,0.725l-17.442,19.627zM841.922,904.685l-11.744,23.484l-3.106,-1.554l-2.594,-2.305l17.445,-19.624zM767.352,894.184l-4.697,-25.834l0.192,-0.034l0.189,-0.032l4.317,25.899zM656.024,904.687l5.152,25.744l-0.717,0.144l-0.719,0.102l-3.715,-25.991zM633.971,906.787l-3.713,-25.994l1.848,-0.263h1.864v26.256zM620.18,936.233l-0.754,0.215l-0.764,0.168l-5.695,-25.629zM588.808,915.187l4.317,25.897l-0.299,0.053l-0.302,0.042l-3.715,-25.991zM509.128,900.442l0.754,-0.215l0.764,-0.168l5.695,25.629zM492.185,899.432h3.235l3.135,0.785l-6.37,25.471zM448.143,957.463l-0.336,0.084l-0.336,0.074l-5.698,-25.629zM406.167,912.547l0.226,-0.045l0.226,-0.042l4.697,25.834zM377.707,939.343v-26.256h1.192l1.187,0.108l-2.379,26.149zM350.469,908.619l0.977,0.244l0.958,0.32l-8.305,24.907zM329.395,936.194l9.752,24.376l-1.247,0.499l-1.289,0.37l-7.215,-25.246zM306.291,941.445l-7.213,-25.248l0.42,-0.118l0.425,-0.108l6.367,25.474zM273.543,923.21l3.531,-1.764l3.894,-0.649l4.317,25.899zM239.075,935.14l-23.485,11.744l1.905,3.81l3.013,3.014l18.566,-18.569zM236.974,931.992l18.567,-18.566l-7.69,-7.691h-10.878v26.256zM234.873,928.842h26.256v-7.95l-4.408,-6.614l-21.847,14.564zM230.673,901.535l23.485,11.742l0.835,-1.67l0.588,-1.77zM259.031,905.733l-1.121,1.494l-1.318,1.321l-18.567,-18.569zM255.867,831.882l1.547,-1.436l1.754,-1.171l14.564,21.848zM297.892,838.517l11.742,23.486l-2.185,1.09l-2.345,0.672l-7.213,-25.248zM340.949,826.966l3.258,26.052l-0.754,0.095l-0.756,0.05l-1.749,-26.196zM364.055,824.867l-3.713,-25.994l1.848,-0.263h1.864v26.256zM425.16,844.148l-5.545,2.77h-6.199v-26.256zM461.919,832.596l-2.796,1.397l-3.043,0.701l-5.905,-25.582zM463.828,803.859l11.742,23.486l-0.977,0.488l-1.013,0.404l-9.752,-24.379zM495.62,818.544l-5.209,4.466l-6.73,1.344l-5.149,-25.744zM492.186,774.454h26.256v1.308l-0.129,1.305l-26.128,-2.613zM492.185,763.952l24.909,-8.305l1.347,4.043v4.261h-26.256zM483.783,727.193l-24.907,8.302l-0.181,-0.541l-0.158,-0.549l25.246,-7.213zM490.09,683.914l4.219,3.516l2.458,4.913l-23.486,11.744zM429.511,697.446l-0.843,-0.843l-0.764,-0.916l20.173,-16.807zM416.566,645.272l13.509,-22.515l0.536,0.32l0.52,0.347l-14.564,21.848zM345.488,621.828l-1.838,-1.841l-1.441,-2.161l21.845,-14.564zM334.651,572.805l-14.567,21.845l-1.166,-0.777l-1.077,-0.898l16.809,-20.17zM294.736,544.449l-14.564,21.845l-1.069,-0.712l-0.992,-0.814l16.626,-20.32zM259.028,519.241l13.231,-22.68l0.438,0.255l0.428,0.273l-14.097,22.153zM237.2,475.325l0.343,0.194l0.337,0.202l-13.509,22.515zM73.136,405.814l-12.92,22.856l-3.116,-1.762l-2.531,-2.528l18.566,-18.566zM46.878,417.367l-1.493,-1.121l-1.319,-1.318l18.566,-18.566zM65.638,365.444l1.161,0.696l1.084,0.814l-15.754,21.005zM40.575,379.557l-14.564,21.845l-2.813,-1.875l-2.246,-2.528l19.624,-17.442zM26.924,349.1l-26.149,2.376l-0.108,-1.187v-1.189h26.256zM44.778,309.191l14.564,21.845l-0.969,0.646l-1.023,0.559l-12.573,-23.051zM57.38,303.939l-5.149,-25.747l1.259,-0.252l1.278,-0.129l2.613,26.128zM90.989,308.14l11.742,-23.486l-1.351,-0.675l-1.419,-0.515l-8.973,24.676zM101.491,310.24zM124.597,321.793zM128.798,323.894l18.566,-18.569l-7.69,-7.688h-10.876v26.256zM133,325.994v-26.256h12.619l7.883,9.854l-20.503,16.402zM163.456,345.95l5.149,-25.747l1.042,0.207l1.022,0.291l-7.213,25.248zM177.269,380.584l-0.709,-0.305l-0.69,-0.344l11.742,-23.486zM271.487,370.696l2.773,1.662l2.284,2.284l-18.566,18.569zM294.737,415.266l14.564,-21.848l-2.274,-1.518l-2.539,-1.013l-9.752,24.379zM327.395,463.279l-2.465,-0.822l-2.258,-1.289l13.028,-22.796zM351.451,445.724zM366.155,452.025l23.486,-11.744l-4.466,-8.927l-9.269,-3.707l-9.752,24.379zM370.357,452.025h26.256v10.875l-7.691,7.691l-18.566,-18.566zM393.842,438.181l2.77,5.545v6.199h-26.256zM368.255,446.774l-18.561,18.569l7.688,7.688h10.873v-26.256zM366.155,443.62l23.486,-11.742l-1.906,-3.81l-3.014,-3.014zM263.229,341.749l-16.69,20.267l-1.355,-1.116l-1.194,-1.287l19.239,-17.865zM177.111,268.23l-14.875,21.635l-1.987,-1.365l-1.705,-1.704l18.566,-18.566zM160.305,254.575l11.742,-23.484l1.843,0.921l1.676,1.198l-15.261,21.366zM107.369,253.217l-2.284,-1.305l-1.979,-1.732l17.29,-19.76zM94.14,205.215l-18.566,18.566l-0.546,-0.546l-0.513,-0.577l19.624,-17.444zM51.077,148.5l25.473,-6.368l0.784,3.136v3.232h-26.256zM57.381,106.488l24.379,9.752l-1.015,2.538l-1.517,2.275l-21.847,-14.564zM68.935,94.937l18.566,18.566l-2.286,2.286l-2.772,1.663l-13.509,-22.515zM83.637,86.534l-18.566,-18.566l3.013,-3.013l3.811,-1.905l11.742,23.485zM101.491,82.333v-26.256h2.6l2.549,0.51l-5.149,25.747zM130.037,64.101l3.811,1.905l3.013,3.013l-18.566,18.566zM144.453,73.178l5.88,1.96l4.383,4.383l-18.566,18.566zM148.752,106.488l11.742,-23.484l2.726,1.363l2.341,1.951l-16.809,20.171zM180.261,132.745l-16.809,20.171l-0.915,-0.762l-0.842,-0.842l18.566,-18.566zM198.049,171.872l-1.729,-0.432l-1.654,-0.662l9.751,-24.379zM241.175,169.506l16.401,-20.503l1.137,0.908l1.029,1.028l-18.567,18.566zM253.971,218.34l-0.462,-0.42l-0.444,-0.442l18.569,-18.566zM305.242,225.168l16.119,-20.725l-0.979,-0.761l-1.045,-0.665l-14.094,22.151zM316.603,265.458l-1.462,-0.733l-1.36,-0.906l14.564,-21.846zM355.652,253.525l18.566,-18.566l-4.382,-4.383l-5.879,-1.96zM390.31,253.525v14.051l-11.692,7.796l-14.564,-21.847zM366.155,226.219h42.475l-18.986,37.994l-23.489,-11.738zM365.108,254.576l23.486,11.738l-49.743,-11.738h26.256zM334.649,228.318l16.119,-20.725l0.284,0.221l-16.402,20.505zM308.393,204.163l-22.363,13.761l1.615,2.625l2.179,2.18zM284.236,174.756l16.402,-20.503l0.349,0.278l0.336,0.29l-17.088,19.935zM239.075,132.746l-23.485,11.742l1.905,3.811l3.013,3.013l18.566,-18.566zM231.723,121.193l-23.485,11.742l0.731,1.462l0.907,1.36zM247.168,96.613l0.362,0.633l0.326,0.652l-23.485,11.742zM240.124,57.127v1.31l-0.13,1.303l-26.126,-2.613zM224.371,38.224l18.566,18.566l-2.486,2.486l-3.053,1.744l-13.027,-22.797zM241.175,27.721l-14.564,-21.847l3.784,-2.523l4.412,-1.103l6.368,25.472zM257.067,54.017l-1.599,-0.457l-1.531,-0.656l10.345,-24.133zM298.937,57.127l-21.005,15.754l-1.42,-1.894l-1.058,-2.118l23.484,-11.742zM345.149,98.086l11.744,-23.484l1.46,0.731l1.36,0.907l-14.564,21.847zM360.903,109.64l18.569,-18.566l-1.321,-1.32l-1.494,-1.12l-15.754,21.005zM374.557,124.343l-18.566,18.566l-1.838,-1.838l-1.441,-2.163l21.845,-14.564zM380.858,132.745l-20.811,16.009l-1.541,-2.004l-1.132,-2.262l23.484,-11.742zM475.381,198.912v26.256h-26.256v-26.256zM473.281,198.912v-8.402h-52.513v8.402zM471.159,180.167c-2.951,-6.883 -7.01,-16.558 -12.789,-25.226l-43.693,29.129c2.623,3.934 4.865,8.963 8.216,16.783l48.267,-20.686zM460.008,157.763c-3.597,-7.194 -8.336,-15.497 -13.191,-22.777l-43.693,29.129c3.55,5.323 7.21,11.723 9.914,17.133zM449.348,139.799c-1.764,-4.411 -3.896,-8.184 -5.102,-10.352c-1.42,-2.559 -1.914,-3.511 -2.25,-4.352l-48.756,19.503c1.764,4.411 3.896,8.184 5.102,10.352c1.42,2.559 1.914,3.511 2.25,4.352zM441.997,125.094l-48.756,19.503c-1.177,-2.942 -4.469,-10.109 -6.835,-17.202l49.819,-16.606c1.838,5.51 2.746,6.745 5.771,14.306zM389.471,133.657c-2.57,-3.855 -9.079,-12.452 -13.191,-20.676l46.97,-23.485c2.189,4.38 4.082,6.285 9.914,15.032zM376.279,112.981c-2.04,-4.079 -6.939,-12.632 -9.825,-21.294l49.816,-16.606c1.315,3.941 2.715,5.891 6.979,14.415zM367.877,95.127c-1.318,-2.635 -2.492,-5.649 -3.18,-9.085c-0.69,-3.451 -0.643,-6.289 -0.643,-6.858h52.513c0,0.481 0.05,-1.306 -0.378,-3.445c-0.426,-2.123 -1.074,-3.562 -1.342,-4.097zM416.568,79.182h-52.513c0,-0.674 -0.045,0.581 0.228,2.218c0.15,0.908 0.486,2.521 1.284,4.476c0.801,1.953 2.313,4.856 5.128,7.672l37.132,-37.132c6.346,6.345 7.819,13.739 8.252,16.348c0.535,3.213 0.488,6.044 0.488,6.419zM415.095,70.285l-51.665,9.394c-2.019,-11.094 -0.594,-22.264 4.584,-32.328c5.049,-9.821 12.882,-17.082 21.394,-22.19l27.018,45.029c-1.991,1.194 -2.038,1.809 -1.715,1.178c0.157,-0.307 0.281,-0.685 0.328,-1.041c0.05,-0.343 -0.008,-0.392 0.055,-0.042zM388.352,25.829c4.086,-2.724 10.282,-6.419 17.524,-10.04l23.486,46.969c-5.362,2.68 -9.668,5.287 -11.881,6.764zM431.125,61.788l-27.015,-45.029c4.847,-2.909 11.283,-5.796 19.27,-6.522c8.068,-0.734 15.607,0.926 22.436,3.853l-20.687,48.267c-0.523,-0.224 0.714,0.385 3.006,0.177c2.211,-0.201 3.395,-0.988 2.991,-0.746zM447.216,14.738c7.174,3.587 14.62,9.095 19.094,18.044l-46.97,23.485c1.113,2.226 2.486,3.788 3.547,4.731c0.953,0.846 1.442,1.008 0.843,0.709zM424.258,63.089l37.134,-37.132c1.048,1.05 1.836,1.837 2.623,2.625c0.787,0.788 1.575,1.576 2.628,2.627l-37.132,37.132c-1.051,-1.05 -1.839,-1.838 -2.626,-2.625c-0.787,-0.787 -1.575,-1.575 -2.628,-2.626zM429.511,68.343l37.132,-37.132c2.707,2.709 4.574,5.288 5.905,7.285c0.598,0.897 1.176,1.814 1.541,2.39c0.417,0.658 0.737,1.16 1.084,1.678l-43.693,29.129c-0.706,-1.058 -1.302,-1.999 -1.738,-2.687c-0.488,-0.77 -0.698,-1.101 -0.887,-1.385c-0.245,-0.366 0.047,0.113 0.656,0.721zM434.759,75.695l37.132,-37.132c3.928,3.925 6.215,8.159 7.11,9.799c0.26,0.475 0.523,0.966 0.691,1.283c0.194,0.362 0.328,0.61 0.449,0.828c0.237,0.427 0.31,0.531 0.284,0.493l-43.693,29.129c-1.077,-1.613 -1.922,-3.085 -2.539,-4.201c-0.307,-0.554 -0.583,-1.069 -0.79,-1.457c-0.234,-0.434 -0.365,-0.681 -0.499,-0.928c-0.274,-0.499 -0.232,-0.389 -0.011,-0.06c0.247,0.371 0.854,1.231 1.867,2.245zM480.425,50.965c2.066,3.099 3.826,5.734 6.509,9.313l-42.01,31.508c-3.616,-4.823 -6.057,-8.489 -8.192,-11.692zM486.934,60.278c3.619,4.823 6.06,8.489 8.195,11.692l-43.693,29.129c-2.067,-3.099 -3.826,-5.734 -6.512,-9.313zM448.373,94.839l49.816,-16.606c-0.262,-0.793 -0.433,-0.951 0.003,-0.2c0.195,0.332 0.46,0.763 0.838,1.348c0.389,0.599 0.806,1.227 1.35,2.042l-43.693,29.129c-1.573,-2.358 -5.932,-8.569 -8.313,-15.714zM500.38,81.422c1.11,1.668 1.859,2.783 2.536,3.715c0.709,0.975 0.835,1.037 0.486,0.686l-37.134,37.132c-4.34,-4.341 -7.979,-10.001 -9.581,-12.404zM466.269,122.954l37.134,-37.132c1.722,1.724 6.832,6.705 10.631,12.404l-43.693,29.129c0.018,0.029 -0.068,-0.103 -0.31,-0.403c-0.236,-0.291 -0.549,-0.655 -0.948,-1.094c-0.835,-0.92 -1.731,-1.819 -2.815,-2.903zM473.62,131.357l37.134,-37.132c10.81,10.812 19.992,24.104 24.618,41.065l-50.662,13.817c-1.678,-6.145 -5.097,-11.758 -11.091,-17.75zM485.134,150.501l49.816,-16.606c2.342,7.022 7.491,14.986 18.041,24.657l-35.486,38.71c-14.657,-13.435 -26.312,-28.577 -32.372,-46.761zM512.45,190.933l45.594,-26.053c5.206,9.11 7.997,14.957 12.222,20.871l-42.732,30.523c-6.278,-8.79 -11.889,-19.747 -15.084,-25.34zM525.416,212.755l46.97,-23.485c1.575,3.154 3.416,6.243 5.855,10.312c2.287,3.808 5.172,8.596 7.798,13.844l-46.97,23.484c-1.576,-3.154 -3.416,-6.243 -5.858,-10.311c-2.285,-3.808 -5.17,-8.596 -7.796,-13.844zM540.192,238.929l44.723,-27.522c7.538,12.249 16.143,23.775 27.089,36.711l-40.088,33.92c-12.159,-14.37 -22.457,-28.051 -31.723,-43.109zM611.316,247.336c12.724,13.881 21.541,24.591 31.915,34.022l-35.323,38.857c-12.732,-11.573 -24.923,-26.07 -35.302,-37.394zM607.002,319.353l37.132,-37.134c5.596,5.595 9.537,8.513 12.081,9.786l-23.484,46.97c-10.057,-5.028 -18.719,-12.613 -25.729,-19.621zM658.389,293.226c9.814,6.134 19.839,13.635 29.856,23.652l-37.132,37.134c-6.785,-6.787 -13.567,-11.889 -20.556,-16.255zM688.245,316.879c8.583,8.583 15.189,15.168 21.627,20.687l-34.175,39.87c-8.266,-7.084 -16.363,-15.202 -24.584,-23.423zM712.957,340.693c8.948,10.739 19.58,20.451 31.836,28.331l-28.396,44.171c-17.151,-11.025 -31.726,-24.419 -43.783,-38.886zM712.027,409.676l37.132,-37.134c8.875,8.874 14.588,14.483 19.803,18.206l-30.523,42.732c-9.489,-6.777 -18.479,-15.875 -26.411,-23.804zM738.439,433.479l30.523,-42.732c8.136,5.813 17.909,15.006 21.501,17.999l-33.616,40.343c-9.013,-7.509 -11.841,-10.92 -18.408,-15.609zM792.222,410.351c2.248,2.251 4.816,4.443 8.371,7.452c3.272,2.768 7.531,6.352 11.582,10.403l-37.132,37.134c-2.248,-2.251 -4.816,-4.443 -8.371,-7.452c-3.271,-2.768 -7.53,-6.352 -11.584,-10.403zM775.042,465.34l37.132,-37.134c6.181,6.181 15.305,15.213 23.237,27.107l-43.693,29.131c-4.673,-7.01 -10.25,-12.682 -16.675,-19.104zM793.94,487.323l39.248,-34.887c8.284,9.318 17.282,19.424 25.259,29.68l-41.451,32.24c-6.727,-8.649 -14.533,-17.448 -23.056,-27.034zM818.096,515.68l39.251,-34.887c8.465,9.523 16.373,18.411 25.198,27.233l-37.134,37.134c-10.08,-10.083 -18.976,-20.1 -27.315,-29.481zM885.824,512.029c11.92,17.881 23.828,32.774 35.559,47.703l-41.293,32.445c-11.374,-14.478 -24.673,-31.093 -37.959,-51.019zM880.802,593.041l39.87,-34.173c6.866,8.008 16.185,19.642 25.532,34.834l-44.723,27.522c-7.457,-12.118 -14.943,-21.489 -20.68,-28.184zM944.014,590.654c4.236,5.081 8.36,9.208 13.441,13.441l-33.619,40.343c-7.52,-6.27 -13.898,-12.646 -20.165,-20.168zM957.454,604.094c5.068,4.222 10.232,7.693 16.66,11.978l-29.129,43.693c-6.176,-4.117 -13.612,-9.047 -21.15,-15.328zM940.985,656.486l37.132,-37.134c-0.352,-0.352 -0.289,-0.226 0.685,0.483c0.932,0.68 2.048,1.426 3.715,2.539l-29.129,43.693c-2.4,-1.599 -8.061,-5.241 -12.404,-9.581zM953.386,666.067l29.129,-43.693c1.578,1.05 3.153,2.101 4.729,3.151c1.576,1.05 3.149,2.101 4.724,3.151l-29.129,43.693c-1.575,-1.05 -3.151,-2.101 -4.726,-3.151c-1.575,-1.05 -3.151,-2.101 -4.726,-3.151zM991.968,628.676c3.048,2.032 8.241,5.419 13.456,10.631l-37.134,37.134c-1.087,-1.089 -2.198,-1.903 -5.451,-4.072zM968.291,676.441l37.134,-37.134c1.415,1.417 2.153,1.811 7.688,5.965l-31.508,42.01c-2.865,-2.15 -8.431,-5.957 -13.315,-10.841zM1011.923,644.43c5.456,3.636 10.2,7.204 14.278,10.329c4.288,3.29 7.378,5.722 10.576,8.006l-30.523,42.732c-4.153,-2.967 -8.415,-6.312 -12.004,-9.061c-3.8,-2.915 -7.457,-5.648 -11.456,-8.313zM1004.707,704.302l33.616,-40.343c7.389,6.158 14.554,13.352 20.664,19.459l-37.134,37.134c-6.493,-6.496 -11.93,-11.905 -17.145,-16.25zM1022.977,721.611l34.887,-39.251c9.332,8.294 19.383,17.219 28.428,26.264l-37.132,37.134c-7.756,-7.759 -16.607,-15.638 -26.183,-24.148zM1050.284,746.817l34.887,-39.251c9.329,8.294 19.383,17.219 28.428,26.264l-37.132,37.134c-7.756,-7.759 -16.607,-15.638 -26.183,-24.148zM1076.466,770.964l37.132,-37.134c2.547,2.547 4.361,5.026 5.065,5.963c0.872,1.163 0.633,0.785 0.189,0.339l-37.134,37.134c-2.544,-2.547 -4.358,-5.026 -5.062,-5.963c-0.872,-1.163 -0.633,-0.785 -0.189,-0.339zM1081.718,777.265l37.134,-37.134c1.05,1.053 6.798,6.386 10.169,13.126l-46.97,23.486c0.257,0.515 0.501,0.935 0.698,1.258c0.199,0.323 0.373,0.575 0.496,0.746c0.124,0.173 0.218,0.291 0.263,0.349c0.047,0.058 0.063,0.074 0.034,0.042c-0.065,-0.076 -0.231,-0.257 -0.559,-0.596c-0.157,-0.163 -0.338,-0.347 -0.551,-0.562c-0.218,-0.22 -0.444,-0.446 -0.714,-0.714zM1086.97,783.566l37.132,-37.134c4.306,4.306 6.984,9.544 8.1,15.121c0.757,3.778 0.641,7.544 0.641,7.646h-52.513c0,-0.672 -0.003,-0.565 0.005,-0.344c0.01,0.271 0.06,1.434 0.375,3.004c0.344,1.72 0.995,3.902 2.229,6.231c1.234,2.331 2.696,4.143 4.03,5.477zM1132.842,769.2v2.103h-52.513v-2.103zM1082.228,761.499l48.716,19.606c-36.83,91.517 -98.564,163.404 -185.801,212.614l-25.8,-45.736c76.605,-43.213 130.4,-105.759 162.884,-186.484zM932.243,944.592v52.513c-0.449,0 0.192,0.014 0.977,-0.039c0.719,-0.05 3.022,-0.22 5.884,-1.176c3.017,-1.006 7.932,-3.316 11.949,-8.481c4.191,-5.39 5.346,-11.232 5.346,-15.507h-52.513c0,-4.802 1.289,-11.038 5.711,-16.725c4.246,-5.459 9.486,-7.966 12.897,-9.103c3.256,-1.087 6.018,-1.324 7.231,-1.405c1.279,-0.087 2.442,-0.076 2.518,-0.076zM930.14,945.647v52.513c4.036,0 7.008,-1.006 7.935,-1.334c0.512,-0.182 0.872,-0.331 0.809,-0.305c-0.055,0.021 -0.011,0.002 -0.184,0.076c-0.113,0.044 -0.297,0.12 -0.515,0.207c-0.883,0.354 -2.563,0.998 -4.724,1.515c-2.223,0.533 -4.744,0.89 -7.522,0.89v-52.513c-1.727,0 -3.326,0.223 -4.731,0.559c-1.339,0.32 -2.297,0.701 -2.523,0.793c-0.052,0.021 -0.079,0.031 -0.034,0.013c0.027,-0.01 0.042,-0.018 0.095,-0.039c0.045,-0.019 0.108,-0.045 0.179,-0.074c0.239,-0.097 0.885,-0.365 1.675,-0.643c1.487,-0.525 4.981,-1.659 9.542,-1.659zM925.941,999.209h-1.05v-52.513h1.05zM943.457,954.385l-37.132,37.134c-0.271,-0.273 -0.476,-0.478 -0.662,-0.662c-0.181,-0.178 -0.299,-0.294 -0.383,-0.375c-0.173,-0.168 -0.079,-0.069 0.176,0.144c0.291,0.244 0.709,0.567 1.226,0.903c0.51,0.333 0.94,0.567 1.216,0.706l23.486,-46.97c6.37,3.185 10.122,7.168 12.073,9.119zM931.384,945.266l-23.486,46.97c-0.404,-0.202 -11.361,-4.682 -16.993,-15.943l46.97,-23.486c-1.94,-3.876 -4.584,-6.123 -5.994,-7.129c-0.662,-0.476 -1.132,-0.73 -1.174,-0.754c-0.003,0 0.073,0.039 0.677,0.341zM930.143,943.544l-31.508,42.01c-9.452,-7.092 -18.789,-15.268 -26.968,-23.444l37.134,-37.134c6.525,6.528 13.992,13.055 21.341,18.569zM907.525,923.784l-34.582,39.519c-4.603,-4.027 -9.135,-8.281 -13.42,-12.306c-4.387,-4.119 -8.581,-8.066 -12.989,-11.983l34.887,-39.251c5.044,4.484 9.778,8.94 14.055,12.96c4.38,4.115 8.25,7.738 12.049,11.062zM848.225,940.394c-4.435,-3.327 -7.961,-5.96 -10.366,-7.562l29.129,-43.693c3.899,2.6 8.775,6.268 12.742,9.245zM837.859,932.832c-3.153,-2.103 -5.094,-3.371 -7.68,-4.663l23.486,-46.97c5.816,2.909 10.177,5.842 13.323,7.94zM824.478,924.31c-3.876,-3.447 -8.883,-5.973 -19.317,-5.973v-52.513c21.074,0 39.175,5.878 54.204,19.235zM805.162,918.337c-0.013,0 -0.029,0 -0.042,0c-0.016,0 -0.029,0 -0.045,0c-0.013,0 -0.026,0 -0.042,0c-0.013,0 -0.029,0 -0.042,0c-0.016,0 -0.029,0 -0.045,0c-0.013,0 -0.029,0 -0.042,0c-0.016,0 -0.029,0 -0.045,0c-0.013,0 -0.026,0 -0.042,0c-0.013,0 -0.029,0 -0.042,0c-0.016,0 -0.029,0 -0.045,0c-0.013,0 -0.029,0 -0.042,0c-0.016,0 -0.029,0 -0.045,0c-0.013,0 -0.029,0 -0.042,0c-0.013,0 -0.029,0 -0.042,0c-0.016,0 -0.029,0 -0.045,0c-0.013,0 -0.029,0 -0.042,0c-0.016,0 -0.029,0 -0.045,0c-0.013,0 -0.026,0 -0.042,0c-0.013,0 -0.029,0 -0.042,0c-0.016,0 -0.029,0 -0.045,0c-0.013,0 -0.029,0 -0.042,0c-0.016,0 -0.029,0 -0.045,0c-0.013,0 -0.026,0 -0.042,0c-0.013,0 -0.029,0 -0.042,0c-0.016,0 -0.029,0 -0.045,0c-0.013,0 -0.029,0 -0.042,0c-0.016,0 -0.029,0 -0.045,0c-0.013,0 -0.026,0 -0.042,0c-0.013,0 -0.029,0 -0.042,0c-0.016,0 -0.029,0 -0.045,0c-0.013,0 -0.029,0 -0.042,0c-0.016,0 -0.029,0 -0.045,0c-0.013,0 -0.026,0 -0.042,0c-0.013,0 -0.029,0 -0.042,0c-0.016,0 -0.029,0 -0.045,0c-0.013,0 -0.029,0 -0.042,0c-0.013,0 -0.029,0 -0.042,0c-0.016,0 -0.029,0 -0.045,0c-0.013,0 -0.029,0 -0.042,0c-0.016,0 -0.029,0 -0.045,0c-0.013,0 -0.026,0 -0.042,0c-0.013,0 -0.029,0 -0.042,0c-0.016,0 -0.029,0 -0.045,0c-0.013,0 -0.029,0 -0.042,0c-0.016,0 -0.029,0 -0.042,0c-0.016,0 -0.029,0 -0.045,0c-0.013,0 -0.029,0 -0.042,0c-0.016,0 -0.029,0 -0.045,0c-0.013,0 -0.026,0 -0.042,0c-0.013,0 -0.029,0 -0.042,0c-0.016,0 -0.029,0 -0.045,0c-0.013,0 -0.029,0 -0.042,0c-0.013,0 -0.029,0 -0.042,0c-0.016,0 -0.029,0 -0.045,0c-0.013,0 -0.029,0 -0.042,0c-0.013,0 -0.029,0 -0.042,0c-0.016,0 -0.029,0 -0.045,0c-0.013,0 -0.029,0 -0.042,0c-0.016,0 -0.029,0 -0.042,0c-0.016,0 -0.029,0 -0.045,0c-0.013,0 -0.029,0 -0.042,0c-0.016,0 -0.029,0 -0.042,0c-0.016,0 -0.029,0 -0.045,0c-0.013,0 -0.029,0 -0.042,0c-0.016,0 -0.029,0 -0.042,0c-0.016,0 -0.029,0 -0.045,0c-0.013,0 -0.029,0 -0.042,0c-0.016,0 -0.029,0 -0.042,0c-0.016,0 -0.029,0 -0.045,0c-0.013,0 -0.029,0 -0.042,0c-0.016,0 -0.029,0 -0.042,0c-0.016,0 -0.029,0 -0.045,0c-0.013,0 -0.029,0 -0.042,0c-0.013,0 -0.029,0 -0.042,0c-0.016,0 -0.029,0 -0.045,0c-0.013,0 -0.029,0 -0.042,0c-0.013,0 -0.029,0 -0.042,0c-0.016,0 -0.029,0 -0.045,0c-0.013,0 -0.026,0 -0.042,0c-0.013,0 -0.029,0 -0.042,0c-0.016,0 -0.029,0 -0.042,0c-0.016,0 -0.029,0 -0.045,0c-0.013,0 -0.029,0 -0.042,0c-0.013,0 -0.029,0 -0.042,0c-0.016,0 -0.029,0 -0.045,0c-0.013,0 -0.026,0 -0.042,0c-0.013,0 -0.029,0 -0.042,0c-0.016,0 -0.029,0 -0.042,0c-0.016,0 -0.029,0 -0.045,0c-0.013,0 -0.026,0 -0.042,0c-0.013,0 -0.029,0 -0.042,0c-0.016,0 -0.029,0 -0.042,0c-0.016,0 -0.029,0 -0.045,0c-0.013,0 -0.026,0 -0.042,0c-0.013,0 -0.029,0 -0.042,0c-0.016,0 -0.029,0 -0.042,0c-0.016,0 -0.029,0 -0.045,0c-0.013,0 -0.026,0 -0.042,0c-0.013,0 -0.029,0 -0.042,0c-0.016,0 -0.029,0 -0.042,0c-0.016,0 -0.029,0 -0.045,0c-0.013,0 -0.026,0 -0.042,0c-0.013,0 -0.029,0 -0.042,0c-0.013,0 -0.029,0 -0.042,0c-0.016,0 -0.029,0 -0.042,0c-0.016,0 -0.029,0 -0.045,0c-0.013,0 -0.026,0 -0.042,0c-0.013,0 -0.029,0 -0.042,0c-0.013,0 -0.029,0 -0.042,0c-0.016,0 -0.029,0 -0.042,0c-0.016,0 -0.029,0 -0.045,0c-0.013,0 -0.026,0 -0.042,0c-0.013,0 -0.029,0 -0.042,0c-0.013,0 -0.029,0 -0.042,0c-0.016,0 -0.029,0 -0.042,0c-0.016,0 -0.029,0 -0.042,0c-0.016,0 -0.029,0 -0.045,0c-0.013,0 -0.026,0 -0.042,0c-0.013,0 -0.029,0 -0.042,0c-0.013,0 -0.029,0 -0.042,0c-0.016,0 -0.029,0 -0.042,0c-0.016,0 -0.029,0 -0.042,0c-0.016,0 -0.029,0 -0.045,0c-0.013,0 -0.026,0 -0.042,0c-0.013,0 -0.026,0 -0.042,0c-0.013,0 -0.029,0 -0.042,0c-0.013,0 -0.029,0 -0.042,0c-0.013,0 -0.029,0 -0.042,0c-0.016,0 -0.029,0 -0.042,0c-0.016,0 -0.029,0 -0.042,0c-0.016,0 -0.029,0 -0.042,0c-0.016,0 -0.029,0 -0.045,0c-0.013,0 -0.026,0 -0.042,0c-0.013,0 -0.026,0 -0.042,0c-0.013,0 -0.026,0 -0.042,0c-0.013,0 -0.029,0 -0.042,0c-0.013,0 -0.029,0 -0.042,0c-0.013,0 -0.029,0 -0.042,0c-0.013,0 -0.029,0 -0.042,0c-0.013,0 -0.029,0 -0.042,0c-0.016,0 -0.029,0 -0.042,0c-0.016,0 -0.029,0 -0.042,0c-0.016,0 -0.029,0 -0.042,0c-0.016,0 -0.029,0 -0.042,0c-0.016,0 -0.029,0 -0.042,0c-0.016,0 -0.029,0 -0.042,0c-0.016,0 -0.029,0 -0.042,0c-0.016,0 -0.029,0 -0.042,0c-0.016,0 -0.029,0 -0.042,0c-0.016,0 -0.029,0 -0.042,0c-0.016,0 -0.029,0 -0.042,0c-0.016,0 -0.029,0 -0.042,0c-0.016,0 -0.029,0 -0.042,0c-0.016,0 -0.029,0 -0.042,0c-0.016,0 -0.029,0 -0.042,0c-0.016,0 -0.029,0 -0.042,0c-0.016,0 -0.029,0 -0.042,0c-0.016,0 -0.029,0 -0.042,0c-0.016,0 -0.029,0 -0.042,0c-0.016,0 -0.029,0 -0.042,0c-0.016,0 -0.029,0 -0.042,0c-0.016,0 -0.029,0 -0.042,0c-0.013,0 -0.029,0 -0.042,0c-0.013,0 -0.029,0 -0.042,0c-0.013,0 -0.029,0 -0.042,0c-0.013,0 -0.029,0 -0.042,0c-0.013,0 -0.026,0 -0.042,0c-0.013,0 -0.026,0 -0.042,0c-0.013,0 -0.026,0 -0.042,0c-0.013,0 -0.026,0 -0.039,0c-0.016,0 -0.029,0 -0.042,0c-0.016,0 -0.029,0 -0.042,0c-0.013,0 -0.029,0 -0.042,0c-0.013,0 -0.029,0 -0.042,0c-0.013,0 -0.029,0 -0.042,0c-0.013,0 -0.026,0 -0.042,0c-0.013,0 -0.026,0 -0.039,0c-0.016,0 -0.029,0 -0.042,0c-0.016,0 -0.029,0 -0.042,0c-0.013,0 -0.029,0 -0.042,0c-0.013,0 -0.029,0 -0.042,0c-0.013,0 -0.026,0 -0.042,0c-0.013,0 -0.026,0 -0.039,0c-0.016,0 -0.029,0 -0.042,0c-0.016,0 -0.029,0 -0.042,0c-0.013,0 -0.029,0 -0.042,0c-0.013,0 -0.026,0 -0.042,0c-0.013,0 -0.026,0 -0.039,0c-0.016,0 -0.029,0 -0.042,0c-0.013,0 -0.029,0 -0.042,0c-0.013,0 -0.026,0 -0.042,0c-0.013,0 -0.026,0 -0.039,0c-0.016,0 -0.029,0 -0.042,0c-0.013,0 -0.029,0 -0.042,0c-0.013,0 -0.026,0 -0.042,0c-0.013,0 -0.026,0 -0.039,0c-0.016,0 -0.029,0 -0.042,0c-0.013,0 -0.029,0 -0.042,0c-0.013,0 -0.026,0 -0.039,0c-0.016,0 -0.029,0 -0.042,0c-0.013,0 -0.029,0 -0.042,0c-0.013,0 -0.026,0 -0.042,0c-0.013,0 -0.026,0 -0.039,0c-0.013,0 -0.029,0 -0.042,0c-0.013,0 -0.026,0 -0.042,0c-0.013,0 -0.026,0 -0.039,0c-0.013,0 -0.029,0 -0.042,0c-0.013,0 -0.026,0 -0.039,0c-0.016,0 -0.029,0 -0.042,0c-0.013,0 -0.029,0 -0.042,0c-0.013,0 -0.026,0 -0.039,0c-0.016,0 -0.029,0 -0.042,0c-0.013,0 -0.026,0 -0.042,0c-0.013,0 -0.026,0 -0.039,0c-0.013,0 -0.029,0 -0.042,0c-0.013,0 -0.026,0 -0.039,0c-0.013,0 -0.029,0 -0.042,0c-0.013,0 -0.026,0 -0.039,0c-0.016,0 -0.029,0 -0.042,0c-0.013,0 -0.026,0 -0.042,0c-0.013,0 -0.026,0 -0.039,0c-0.013,0 -0.026,0 -0.042,0c-0.013,0 -0.026,0 -0.039,0c-0.013,0 -0.026,0 -0.042,0c-0.013,0 -0.026,0 -0.039,0c-0.013,0 -0.026,0 -0.042,0c-0.013,0 -0.026,0 -0.039,0c-0.013,0 -0.026,0 -0.042,0c-0.013,0 -0.026,0 -0.039,0c-0.013,0 -0.026,0 -0.042,0c-0.013,0 -0.026,0 -0.039,0c-0.013,0 -0.026,0 -0.039,0c-0.016,0 -0.029,0 -0.042,0c-0.013,0 -0.026,0 -0.039,0c-0.013,0 -0.029,0 -0.042,0c-0.013,0 -0.026,0 -0.039,0c-0.013,0 -0.026,0 -0.042,0c-0.013,0 -0.026,0 -0.039,0c-0.013,0 -0.026,0 -0.039,0c-0.013,0 -0.029,0 -0.042,0c-0.013,0 -0.026,0 -0.039,0c-0.013,0 -0.026,0 -0.039,0c-0.016,0 -0.029,0 -0.042,0c-0.013,0 -0.026,0 -0.039,0c-0.013,0 -0.026,0 -0.039,0c-0.016,0 -0.029,0 -0.042,0c-0.013,0 -0.026,0 -0.039,0c-0.013,0 -0.026,0 -0.039,0c-0.016,0 -0.029,0 -0.042,0c-0.013,0 -0.026,0 -0.039,0c-0.013,0 -0.026,0 -0.039,0c-0.013,0 -0.026,0 -0.042,0c-0.013,0 -0.026,0 -0.039,0c-0.013,0 -0.026,0 -0.039,0c-0.013,0 -0.026,0 -0.039,0c-0.013,0 -0.029,0 -0.042,0c-0.013,0 -0.026,0 -0.039,0c-0.013,0 -0.026,0 -0.039,0c-0.013,0 -0.026,0 -0.039,0c-0.013,0 -0.026,0 -0.039,0c-0.016,0 -0.029,0 -0.042,0c-0.013,0 -0.026,0 -0.039,0c-0.013,0 -0.026,0 -0.039,0c-0.013,0 -0.026,0 -0.039,0c-0.013,0 -0.026,0 -0.039,0c-0.013,0 -0.026,0 -0.039,0c-0.016,0 -0.029,0 -0.042,0c-0.013,0 -0.026,0 -0.039,0c-0.013,0 -0.026,0 -0.039,0c-0.013,0 -0.026,0 -0.039,0c-0.013,0 -0.026,0 -0.039,0c-0.013,0 -0.026,0 -0.039,0c-0.013,0 -0.026,0 -0.039,0c-0.013,0 -0.026,0 -0.039,0c-0.013,0 -0.026,0 -0.039,0c-0.013,0 -0.026,0 -0.039,0c-0.013,0 -0.026,0 -0.039,0c-0.013,0 -0.026,0 -0.039,0c-0.013,0 -0.026,0 -0.039,0c-0.013,0 -0.026,0 -0.039,0c-0.013,0 -0.026,0 -0.039,0c-0.013,0 -0.026,0 -0.039,0c-0.013,0 -0.026,0 -0.039,0c-0.013,0 -0.026,0 -0.039,0c-0.013,0 -0.026,0 -0.039,0c-0.013,0 -0.026,0 -0.039,0c-0.013,0 -0.026,0 -0.039,0c-0.013,0 -0.026,0 -0.039,0c-0.013,0 -0.026,0 -0.039,0c-0.013,0 -0.026,0 -0.039,0c-0.013,0 -0.026,0 -0.039,0c-0.013,0 -0.026,0 -0.039,0c-0.013,0 -0.026,0 -0.039,0c-0.013,0 -0.026,0 -0.039,0c-0.011,0 -0.024,0 -0.037,0c-0.013,0 -0.026,0 -0.039,0c-0.013,0 -0.026,0 -0.039,0c-0.013,0 -0.026,0 -0.039,0c-0.013,0 -0.026,0 -0.039,0c-0.013,0 -0.026,0 -0.037,0c-0.013,0 -0.026,0 -0.039,0c-0.013,0 -0.026,0 -0.039,0c-0.013,0 -0.026,0 -0.039,0c-0.013,0 -0.026,0 -0.039,0c-0.013,0 -0.024,0 -0.037,0c-0.013,0 -0.026,0 -0.039,0c-0.013,0 -0.026,0 -0.039,0c-0.013,0 -0.026,0 -0.039,0c-0.011,0 -0.024,0 -0.037,0c-0.013,0 -0.026,0 -0.039,0c-0.013,0 -0.026,0 -0.039,0c-0.013,0 -0.024,0 -0.037,0c-0.013,0 -0.026,0 -0.039,0c-0.013,0 -0.026,0 -0.039,0c-0.011,0 -0.024,0 -0.037,0c-0.013,0 -0.026,0 -0.039,0c-0.013,0 -0.026,0 -0.037,0c-0.013,0 -0.026,0 -0.039,0c-0.013,0 -0.026,0 -0.039,0c-0.013,0 -0.024,0 -0.037,0c-0.013,0 -0.026,0 -0.039,0c-0.013,0 -0.026,0 -0.037,0c-0.013,0 -0.026,0 -0.039,0c-0.013,0 -0.026,0 -0.037,0c-0.013,0 -0.026,0 -0.039,0c-0.013,0 -0.026,0 -0.037,0c-0.013,0 -0.026,0 -0.039,0c-0.013,0 -0.026,0 -0.037,0c-0.013,0 -0.026,0 -0.039,0c-0.013,0 -0.026,0 -0.037,0c-0.013,0 -0.026,0 -0.039,0c-0.013,0 -0.024,0 -0.037,0c-0.013,0 -0.026,0 -0.039,0c-0.013,0 -0.024,0 -0.037,0c-0.013,0 -0.026,0 -0.039,0c-0.011,0 -0.024,0 -0.037,0c-0.013,0 -0.026,0 -0.037,0c-0.013,0 -0.026,0 -0.039,0c-0.011,0 -0.024,0 -0.037,0c-0.013,0 -0.026,0 -0.037,0c-0.013,0 -0.026,0 -0.039,0c-0.013,0 -0.024,0 -0.037,0c-0.013,0 -0.026,0 -0.037,0c-0.013,0 -0.026,0 -0.039,0c-0.011,0 -0.024,0 -0.037,0c-0.013,0 -0.024,0 -0.037,0c-0.013,0 -0.026,0 -0.037,0c-0.013,0 -0.026,0 -0.039,0c-0.011,0 -0.024,0 -0.037,0c-0.013,0 -0.024,0 -0.037,0c-0.013,0 -0.026,0 -0.037,0c-0.013,0 -0.026,0 -0.039,0c-0.011,0 -0.024,0 -0.037,0c-0.011,0 -0.024,0 -0.037,0c-0.013,0 -0.024,0 -0.037,0c-0.013,0 -0.026,0 -0.037,0c-0.013,0 -0.026,0 -0.037,0c-0.013,0 -0.026,0 -0.037,0c-0.013,0 -0.026,0 -0.039,0c-0.011,0 -0.024,0 -0.037,0c-0.011,0 -0.024,0 -0.037,0c-0.011,0 -0.024,0 -0.037,0c-0.013,0 -0.024,0 -0.037,0c-0.013,0 -0.024,0 -0.037,0c-0.013,0 -0.024,0 -0.037,0c-0.013,0 -0.024,0 -0.037,0c-0.013,0 -0.024,0 -0.037,0c-0.013,0 -0.024,0 -0.037,0c-0.013,0 -0.024,0 -0.037,0c-0.013,0 -0.024,0 -0.037,0c-0.013,0 -0.024,0 -0.037,0c-0.013,0 -0.024,0 -0.037,0c-0.011,0 -0.024,0 -0.037,0c-0.011,0 -0.024,0 -0.037,0c-0.011,0 -0.024,0 -0.037,0c-0.01,0 -0.023,0 -0.034,0c-0.013,0 -0.026,0 -0.037,0c-0.013,0 -0.026,0 -0.037,0c-0.013,0 -0.024,0 -0.037,0c-0.013,0 -0.024,0 -0.037,0c-0.011,0 -0.024,0 -0.037,0c-0.01,0 -0.023,0 -0.034,0c-0.013,0 -0.026,0 -0.037,0c-0.013,0 -0.024,0 -0.037,0c-0.013,0 -0.024,0 -0.037,0c-0.011,0 -0.024,0 -0.037,0c-0.01,0 -0.023,0 -0.034,0c-0.013,0 -0.024,0 -0.037,0c-0.013,0 -0.024,0 -0.037,0c-0.01,0 -0.023,0 -0.034,0c-0.013,0 -0.026,0 -0.037,0c-0.013,0 -0.024,0 -0.037,0c-0.01,0 -0.023,0 -0.034,0c-0.013,0 -0.024,0 -0.037,0c-0.013,0 -0.024,0 -0.037,0c-0.01,0 -0.023,0 -0.034,0c-0.013,0 -0.024,0 -0.037,0c-0.01,0 -0.023,0 -0.034,0c-0.013,0 -0.024,0 -0.037,0c-0.013,0 -0.024,0 -0.037,0c-0.01,0 -0.023,0 -0.034,0c-0.013,0 -0.024,0 -0.037,0c-0.01,0 -0.023,0 -0.034,0c-0.013,0 -0.024,0 -0.037,0c-0.01,0 -0.023,0 -0.034,0c-0.013,0 -0.024,0 -0.037,0c-0.01,0 -0.024,0 -0.034,0c-0.01,0 -0.023,0 -0.034,0c-0.013,0 -0.024,0 -0.037,0c-0.01,0 -0.023,0 -0.034,0c-0.013,0 -0.024,0 -0.037,0c-0.01,0 -0.024,0 -0.034,0c-0.01,0 -0.023,0 -0.034,0c-0.013,0 -0.024,0 -0.037,0c-0.01,0 -0.023,0 -0.034,0c-0.013,0 -0.023,0 -0.034,0c-0.013,0 -0.024,0 -0.037,0c-0.01,0 -0.024,0 -0.034,0c-0.01,0 -0.023,0 -0.034,0c-0.013,0 -0.024,0 -0.037,0c-0.01,0 -0.021,0 -0.034,0c-0.01,0 -0.024,0 -0.034,0c-0.01,0 -0.023,0 -0.034,0c-0.013,0 -0.023,0 -0.034,0c-0.013,0 -0.024,0 -0.037,0c-0.01,0 -0.021,0 -0.034,0c-0.01,0 -0.023,0 -0.034,0c-0.01,0 -0.024,0 -0.034,0c-0.01,0 -0.023,0 -0.034,0c-0.013,0 -0.023,0 -0.034,0c-0.013,0 -0.023,0 -0.034,0c-0.013,0 -0.023,0 -0.034,0c-0.013,0 -0.024,0 -0.037,0c-0.01,0 -0.021,0 -0.034,0c-0.01,0 -0.021,0 -0.034,0c-0.01,0 -0.021,0 -0.034,0c-0.01,0 -0.021,0 -0.034,0c-0.01,0 -0.021,0 -0.034,0c-0.01,0 -0.021,0 -0.034,0c-0.01,0 -0.021,0 -0.034,0c-0.011,0 -0.021,0 -0.032,0c-0.013,0 -0.023,0 -0.034,0c-0.013,0 -0.023,0 -0.034,0c-0.013,0 -0.024,0 -0.034,0c-0.01,0 -0.023,0 -0.034,0c-0.01,0 -0.024,0 -0.034,0c-0.01,0 -0.021,0 -0.034,0c-0.01,0 -0.021,0 -0.034,0c-0.011,0 -0.021,0 -0.032,0c-0.013,0 -0.023,0 -0.034,0c-0.01,0 -0.024,0 -0.034,0c-0.01,0 -0.021,0 -0.034,0c-0.011,0 -0.021,0 -0.032,0c-0.013,0 -0.023,0 -0.034,0c-0.01,0 -0.024,0 -0.034,0c-0.01,0 -0.021,0 -0.034,0c-0.011,0 -0.021,0 -0.032,0c-0.01,0 -0.024,0 -0.034,0c-0.01,0 -0.021,0 -0.034,0c-0.011,0 -0.021,0 -0.032,0c-0.01,0 -0.023,0 -0.034,0c-0.011,0 -0.021,0 -0.032,0c-0.013,0 -0.024,0 -0.034,0c-0.01,0 -0.021,0 -0.034,0c-0.011,0 -0.022,0 -0.032,0c-0.01,0 -0.021,0 -0.034,0c-0.011,0 -0.022,0 -0.032,0c-0.01,0 -0.021,0 -0.034,0c-0.011,0 -0.022,0 -0.032,0c-0.01,0 -0.021,0 -0.034,0c-0.011,0 -0.021,0 -0.032,0c-0.011,0 -0.021,0 -0.032,0c-0.013,0 -0.023,0 -0.034,0c-0.011,0 -0.022,0 -0.032,0c-0.01,0 -0.023,0 -0.034,0c-0.011,0 -0.021,0 -0.032,0c-0.011,0 -0.021,0 -0.032,0c-0.01,0 -0.023,0 -0.034,0c-0.011,0 -0.021,0 -0.032,0c-0.011,0 -0.022,0 -0.032,0c-0.01,0 -0.021,0 -0.034,0c-0.011,0 -0.021,0 -0.032,0c-0.011,0 -0.021,0 -0.032,0c-0.011,0 -0.022,0 -0.032,0c-0.01,0 -0.021,0 -0.034,0c-0.011,0 -0.021,0 -0.032,0c-0.011,0 -0.021,0 -0.032,0c-0.011,0 -0.021,0 -0.032,0c-0.011,0 -0.021,0 -0.032,0c-0.011,0 -0.021,0 -0.032,0c-0.011,0 -0.021,0 -0.032,0c-0.011,0 -0.021,0 -0.032,0c-0.013,0 -0.023,0 -0.034,0c-0.011,0 -0.021,0 -0.032,0c-0.011,0 -0.021,0 -0.032,0c-0.011,0 -0.021,0 -0.032,0c-0.011,0 -0.021,0 -0.032,0c-0.011,0 -0.021,0 -0.032,0c-0.011,0 -0.021,0 -0.032,0c-0.011,0 -0.021,0 -0.032,0c-0.011,0 -0.018,0 -0.029,0c-0.011,0 -0.021,0 -0.032,0c-0.011,0 -0.021,0 -0.032,0c-0.011,0 -0.021,0 -0.032,0c-0.011,0 -0.021,0 -0.032,0c-0.011,0 -0.021,0 -0.032,0c-0.011,0 -0.021,0 -0.032,0c-0.011,0 -0.021,0 -0.029,0c-0.011,0 -0.021,0 -0.032,0c-0.011,0 -0.021,0 -0.032,0c-0.011,0 -0.021,0 -0.032,0c-0.011,0 -0.021,0 -0.029,0v-52.513c0.008,0 0.018,0 0.029,0c0.011,0 0.021,0 0.032,0c0.011,0 0.021,0 0.032,0c0.011,0 0.021,0 0.032,0c0.008,0 0.018,0 0.029,0c0.011,0 0.021,0 0.032,0c0.011,0 0.021,0 0.032,0c0.011,0 0.021,0 0.032,0c0.011,0 0.021,0 0.032,0c0.011,0 0.021,0 0.032,0c0.011,0 0.021,0 0.032,0c0.011,0 0.018,0 0.029,0c0.011,0 0.021,0 0.032,0c0.011,0 0.021,0 0.032,0c0.011,0 0.021,0 0.032,0c0.011,0 0.021,0 0.032,0c0.011,0 0.021,0 0.032,0c0.011,0 0.021,0 0.032,0c0.011,0 0.022,0 0.032,0c0.01,0 0.021,0 0.034,0c0.011,0 0.021,0 0.032,0c0.011,0 0.021,0 0.032,0c0.011,0 0.021,0 0.032,0c0.011,0 0.021,0 0.032,0c0.011,0 0.021,0 0.032,0c0.011,0 0.021,0 0.032,0c0.011,0 0.021,0 0.032,0c0.013,0 0.023,0 0.034,0c0.011,0 0.021,0 0.032,0c0.011,0 0.021,0 0.032,0c0.011,0 0.021,0 0.032,0c0.013,0 0.023,0 0.034,0c0.011,0 0.021,0 0.032,0c0.011,0 0.021,0 0.032,0c0.01,0 0.023,0 0.034,0c0.011,0 0.021,0 0.032,0c0.011,0 0.022,0 0.032,0c0.01,0 0.023,0 0.034,0c0.011,0 0.022,0 0.032,0c0.01,0 0.021,0 0.034,0c0.011,0 0.021,0 0.032,0c0.011,0 0.021,0 0.032,0c0.013,0 0.023,0 0.034,0c0.011,0 0.021,0 0.032,0c0.013,0 0.023,0 0.034,0c0.011,0 0.021,0 0.032,0c0.013,0 0.023,0 0.034,0c0.011,0 0.021,0 0.032,0c0.013,0 0.024,0 0.034,0c0.01,0 0.021,0 0.034,0c0.011,0 0.021,0 0.032,0c0.01,0 0.023,0 0.034,0c0.011,0 0.021,0 0.032,0c0.013,0 0.023,0 0.034,0c0.01,0 0.023,0 0.034,0c0.011,0 0.021,0 0.032,0c0.013,0 0.023,0 0.034,0c0.01,0 0.024,0 0.034,0c0.01,0 0.021,0 0.034,0c0.011,0 0.021,0 0.032,0c0.013,0 0.023,0 0.034,0c0.01,0 0.024,0 0.034,0c0.01,0 0.021,0 0.034,0c0.011,0 0.021,0 0.032,0c0.013,0 0.023,0 0.034,0c0.013,0 0.024,0 0.034,0c0.01,0 0.023,0 0.034,0c0.01,0 0.024,0 0.034,0c0.01,0 0.021,0 0.034,0c0.01,0 0.021,0 0.034,0c0.01,0 0.021,0 0.034,0c0.011,0 0.021,0 0.032,0c0.013,0 0.023,0 0.034,0c0.013,0 0.023,0 0.034,0c0.013,0 0.023,0 0.034,0c0.013,0 0.023,0 0.034,0c0.013,0 0.023,0 0.034,0c0.013,0 0.023,0 0.034,0c0.013,0 0.023,0 0.034,0c0.013,0 0.024,0 0.037,0c0.01,0 0.021,0 0.034,0c0.01,0 0.021,0 0.034,0c0.01,0 0.021,0 0.034,0c0.01,0 0.023,0 0.034,0c0.01,0 0.024,0 0.034,0c0.01,0 0.023,0 0.034,0c0.013,0 0.023,0 0.034,0c0.013,0 0.024,0 0.037,0c0.01,0 0.021,0 0.034,0c0.01,0 0.024,0 0.034,0c0.01,0 0.023,0 0.034,0c0.013,0 0.023,0 0.034,0c0.013,0 0.024,0 0.037,0c0.01,0 0.024,0 0.034,0c0.01,0 0.023,0 0.034,0c0.013,0 0.024,0 0.037,0c0.01,0 0.021,0 0.034,0c0.01,0 0.023,0 0.034,0c0.013,0 0.024,0 0.037,0c0.01,0 0.024,0 0.034,0c0.01,0 0.023,0 0.034,0c0.013,0 0.024,0 0.037,0c0.01,0 0.023,0 0.034,0c0.013,0 0.024,0 0.037,0c0.01,0 0.024,0 0.034,0c0.01,0 0.023,0 0.034,0c0.013,0 0.024,0 0.037,0c0.01,0 0.023,0 0.034,0c0.013,0 0.024,0 0.037,0c0.01,0 0.023,0 0.034,0c0.013,0 0.024,0 0.037,0c0.01,0 0.023,0 0.034,0c0.013,0 0.024,0 0.037,0c0.013,0 0.024,0 0.037,0c0.01,0 0.023,0 0.034,0c0.013,0 0.024,0 0.037,0c0.01,0 0.023,0 0.034,0c0.013,0 0.024,0 0.037,0c0.013,0 0.024,0 0.037,0c0.01,0 0.023,0 0.034,0c0.013,0 0.024,0 0.037,0c0.011,0 0.024,0 0.037,0c0.01,0 0.023,0 0.034,0c0.013,0 0.024,0 0.037,0c0.013,0 0.024,0 0.037,0c0.01,0 0.023,0 0.034,0c0.013,0 0.026,0 0.037,0c0.013,0 0.024,0 0.037,0c0.013,0 0.024,0 0.037,0c0.011,0 0.024,0 0.037,0c0.01,0 0.023,0 0.034,0c0.013,0 0.026,0 0.037,0c0.013,0 0.024,0 0.037,0c0.013,0 0.024,0 0.037,0c0.011,0 0.024,0 0.037,0c0.011,0 0.024,0 0.037,0c0.01,0 0.023,0 0.034,0c0.013,0 0.026,0 0.037,0c0.013,0 0.026,0 0.037,0c0.013,0 0.026,0 0.037,0c0.013,0 0.024,0 0.037,0c0.013,0 0.024,0 0.037,0c0.013,0 0.024,0 0.037,0c0.013,0 0.024,0 0.037,0c0.013,0 0.024,0 0.037,0c0.013,0 0.024,0 0.037,0c0.013,0 0.024,0 0.037,0c0.013,0 0.024,0 0.037,0c0.013,0 0.024,0 0.037,0c0.013,0 0.024,0 0.037,0c0.013,0 0.026,0 0.037,0c0.013,0 0.026,0 0.037,0c0.013,0 0.026,0 0.037,0c0.013,0 0.026,0 0.039,0c0.011,0 0.024,0 0.037,0c0.011,0 0.024,0 0.037,0c0.011,0 0.024,0 0.037,0c0.013,0 0.024,0 0.037,0c0.013,0 0.026,0 0.037,0c0.013,0 0.026,0 0.037,0c0.013,0 0.026,0 0.039,0c0.011,0 0.024,0 0.037,0c0.013,0 0.024,0 0.037,0c0.013,0 0.026,0 0.037,0c0.013,0 0.026,0 0.039,0c0.011,0 0.024,0 0.037,0c0.013,0 0.024,0 0.037,0c0.013,0 0.026,0 0.037,0c0.013,0 0.026,0 0.039,0c0.011,0 0.024,0 0.037,0c0.013,0 0.024,0 0.037,0c0.013,0 0.026,0 0.039,0c0.011,0 0.024,0 0.037,0c0.013,0 0.026,0 0.037,0c0.013,0 0.026,0 0.039,0c0.011,0 0.024,0 0.037,0c0.013,0 0.026,0 0.037,0c0.013,0 0.026,0 0.039,0c0.013,0 0.024,0 0.037,0c0.013,0 0.026,0 0.039,0c0.013,0 0.024,0 0.037,0c0.013,0 0.026,0 0.039,0c0.011,0 0.024,0 0.037,0c0.013,0 0.026,0 0.039,0c0.011,0 0.024,0 0.037,0c0.013,0 0.026,0 0.039,0c0.011,0 0.024,0 0.037,0c0.013,0 0.026,0 0.039,0c0.011,0 0.024,0 0.037,0c0.013,0 0.026,0 0.039,0c0.011,0 0.024,0 0.037,0c0.013,0 0.026,0 0.039,0c0.013,0 0.024,0 0.037,0c0.013,0 0.026,0 0.039,0c0.013,0 0.026,0 0.039,0c0.011,0 0.024,0 0.037,0c0.013,0 0.026,0 0.039,0c0.013,0 0.026,0 0.037,0c0.013,0 0.026,0 0.039,0c0.013,0 0.026,0 0.039,0c0.013,0 0.024,0 0.037,0c0.013,0 0.026,0 0.039,0c0.013,0 0.026,0 0.039,0c0.013,0 0.026,0 0.037,0c0.013,0 0.026,0 0.039,0c0.013,0 0.026,0 0.039,0c0.013,0 0.026,0 0.039,0c0.013,0 0.024,0 0.037,0c0.013,0 0.026,0 0.039,0c0.013,0 0.026,0 0.039,0c0.013,0 0.026,0 0.039,0c0.013,0 0.026,0 0.039,0c0.011,0 0.024,0 0.037,0c0.013,0 0.026,0 0.039,0c0.013,0 0.026,0 0.039,0c0.013,0 0.026,0 0.039,0c0.013,0 0.026,0 0.039,0c0.013,0 0.026,0 0.037,0c0.013,0 0.026,0 0.039,0c0.013,0 0.026,0 0.039,0c0.013,0 0.026,0 0.039,0c0.013,0 0.026,0 0.039,0c0.013,0 0.026,0 0.039,0c0.013,0 0.026,0 0.039,0c0.013,0 0.026,0 0.039,0c0.013,0 0.026,0 0.039,0c0.013,0 0.026,0 0.039,0c0.013,0 0.026,0 0.039,0c0.013,0 0.026,0 0.039,0c0.013,0 0.026,0 0.039,0c0.013,0 0.026,0 0.039,0c0.013,0 0.026,0 0.039,0c0.013,0 0.026,0 0.039,0c0.013,0 0.026,0 0.039,0c0.013,0 0.026,0 0.039,0c0.013,0 0.026,0 0.039,0c0.013,0 0.026,0 0.039,0c0.013,0 0.026,0 0.039,0c0.013,0 0.026,0 0.039,0c0.013,0 0.026,0 0.039,0c0.013,0 0.026,0 0.039,0c0.013,0 0.026,0 0.039,0c0.013,0 0.026,0 0.039,0c0.013,0 0.026,0 0.039,0c0.013,0 0.026,0 0.039,0c0.013,0 0.026,0 0.042,0c0.013,0 0.026,0 0.039,0c0.013,0 0.026,0 0.039,0c0.013,0 0.026,0 0.039,0c0.013,0 0.026,0 0.039,0c0.013,0 0.026,0 0.039,0c0.013,0 0.026,0 0.042,0c0.013,0 0.026,0 0.039,0c0.013,0 0.026,0 0.039,0c0.013,0 0.026,0 0.039,0c0.013,0 0.026,0 0.039,0c0.013,0 0.029,0 0.042,0c0.013,0 0.026,0 0.039,0c0.013,0 0.026,0 0.039,0c0.013,0 0.026,0 0.039,0c0.016,0 0.029,0 0.042,0c0.013,0 0.026,0 0.039,0c0.013,0 0.026,0 0.039,0c0.013,0 0.026,0 0.042,0c0.013,0 0.026,0 0.039,0c0.013,0 0.026,0 0.039,0c0.013,0 0.026,0 0.042,0c0.013,0 0.026,0 0.039,0c0.013,0 0.026,0 0.039,0c0.013,0 0.026,0 0.042,0c0.013,0 0.026,0 0.039,0c0.013,0 0.026,0 0.039,0c0.013,0 0.029,0 0.042,0c0.013,0 0.026,0 0.039,0c0.013,0 0.026,0 0.039,0c0.016,0 0.029,0 0.042,0c0.013,0 0.026,0 0.039,0c0.013,0 0.029,0 0.042,0c0.013,0 0.026,0 0.039,0c0.013,0 0.026,0 0.042,0c0.013,0 0.026,0 0.039,0c0.013,0 0.026,0 0.039,0c0.016,0 0.029,0 0.042,0c0.013,0 0.026,0 0.039,0c0.016,0 0.029,0 0.042,0c0.013,0 0.026,0 0.039,0c0.016,0 0.029,0 0.042,0c0.013,0 0.026,0 0.039,0c0.016,0 0.029,0 0.042,0c0.013,0 0.026,0 0.039,0c0.016,0 0.029,0 0.042,0c0.013,0 0.026,0 0.039,0c0.016,0 0.029,0 0.042,0c0.013,0 0.026,0 0.042,0c0.013,0 0.026,0 0.039,0c0.013,0 0.029,0 0.042,0c0.013,0 0.026,0 0.039,0c0.013,0 0.029,0 0.042,0c0.013,0 0.026,0 0.039,0c0.016,0 0.029,0 0.042,0c0.013,0 0.026,0 0.042,0c0.013,0 0.026,0 0.039,0c0.013,0 0.029,0 0.042,0c0.013,0 0.026,0 0.042,0c0.013,0 0.026,0 0.039,0c0.013,0 0.029,0 0.042,0c0.013,0 0.026,0 0.039,0c0.016,0 0.029,0 0.042,0c0.013,0 0.029,0 0.042,0c0.013,0 0.026,0 0.039,0c0.016,0 0.029,0 0.042,0c0.013,0 0.029,0 0.042,0c0.013,0 0.026,0 0.042,0c0.013,0 0.026,0 0.039,0c0.013,0 0.029,0 0.042,0c0.013,0 0.026,0 0.042,0c0.013,0 0.026,0 0.039,0c0.016,0 0.029,0 0.042,0c0.013,0 0.029,0 0.042,0c0.013,0 0.026,0 0.042,0c0.013,0 0.026,0 0.039,0c0.016,0 0.029,0 0.042,0c0.013,0 0.029,0 0.042,0c0.013,0 0.026,0 0.042,0c0.013,0 0.026,0 0.039,0c0.016,0 0.029,0 0.042,0c0.013,0 0.029,0 0.042,0c0.013,0 0.026,0 0.042,0c0.013,0 0.026,0 0.042,0c0.013,0 0.026,0 0.039,0c0.016,0 0.029,0 0.042,0c0.013,0 0.029,0 0.042,0c0.013,0 0.029,0 0.042,0c0.013,0 0.026,0 0.042,0c0.013,0 0.026,0 0.042,0c0.013,0 0.026,0 0.039,0c0.016,0 0.029,0 0.042,0c0.013,0 0.029,0 0.042,0c0.013,0 0.029,0 0.042,0c0.013,0 0.029,0 0.042,0c0.013,0 0.026,0 0.042,0c0.013,0 0.026,0 0.042,0c0.013,0 0.026,0 0.039,0c0.016,0 0.029,0 0.042,0c0.016,0 0.029,0 0.042,0c0.016,0 0.029,0 0.042,0c0.013,0 0.029,0 0.042,0c0.013,0 0.029,0 0.042,0c0.013,0 0.029,0 0.042,0c0.013,0 0.029,0 0.042,0c0.013,0 0.026,0 0.042,0c0.013,0 0.026,0 0.042,0c0.013,0 0.026,0 0.042,0c0.013,0 0.026,0 0.042,0c0.013,0 0.026,0 0.042,0c0.013,0 0.026,0 0.042,0c0.013,0 0.026,0 0.042,0c0.013,0 0.026,0 0.042,0c0.013,0 0.026,0 0.042,0c0.013,0 0.026,0 0.042,0c0.013,0 0.026,0 0.042,0c0.013,0 0.026,0 0.042,0c0.013,0 0.026,0 0.042,0c0.013,0 0.026,0 0.042,0c0.013,0 0.026,0 0.042,0c0.013,0 0.026,0 0.042,0c0.013,0 0.026,0 0.042,0c0.013,0 0.026,0 0.042,0c0.013,0 0.026,0 0.042,0c0.013,0 0.026,0 0.042,0c0.013,0 0.026,0 0.042,0c0.013,0 0.026,0 0.042,0c0.013,0 0.029,0 0.042,0c0.013,0 0.029,0 0.042,0c0.013,0 0.029,0 0.042,0c0.013,0 0.029,0 0.042,0c0.013,0 0.029,0 0.042,0c0.016,0 0.029,0 0.042,0c0.016,0 0.029,0 0.042,0c0.016,0 0.029,0 0.042,0c0.016,0 0.029,0 0.045,0c0.013,0 0.026,0 0.042,0c0.013,0 0.026,0 0.042,0c0.013,0 0.026,0 0.042,0c0.013,0 0.029,0 0.042,0c0.013,0 0.029,0 0.042,0c0.013,0 0.029,0 0.042,0c0.016,0 0.029,0 0.042,0c0.016,0 0.029,0 0.042,0c0.016,0 0.029,0 0.045,0c0.013,0 0.026,0 0.042,0c0.013,0 0.026,0 0.042,0c0.013,0 0.029,0 0.042,0c0.013,0 0.029,0 0.042,0c0.016,0 0.029,0 0.042,0c0.016,0 0.029,0 0.045,0c0.013,0 0.026,0 0.042,0c0.013,0 0.026,0 0.042,0c0.013,0 0.029,0 0.042,0c0.013,0 0.029,0 0.042,0c0.016,0 0.029,0 0.042,0c0.016,0 0.029,0 0.045,0c0.013,0 0.026,0 0.042,0c0.013,0 0.029,0 0.042,0c0.013,0 0.029,0 0.042,0c0.016,0 0.029,0 0.042,0c0.016,0 0.029,0 0.045,0c0.013,0 0.026,0 0.042,0c0.013,0 0.029,0 0.042,0c0.013,0 0.029,0 0.042,0c0.016,0 0.029,0 0.042,0c0.016,0 0.029,0 0.045,0c0.013,0 0.026,0 0.042,0c0.013,0 0.029,0 0.042,0c0.016,0 0.029,0 0.042,0c0.016,0 0.029,0 0.045,0c0.013,0 0.026,0 0.042,0c0.013,0 0.029,0 0.042,0c0.016,0 0.029,0 0.042,0c0.016,0 0.029,0 0.045,0c0.013,0 0.026,0 0.042,0c0.013,0 0.029,0 0.042,0c0.016,0 0.029,0 0.042,0c0.016,0 0.029,0 0.045,0c0.013,0 0.026,0 0.042,0c0.013,0 0.029,0 0.042,0c0.016,0 0.029,0 0.042,0c0.016,0 0.029,0 0.045,0c0.013,0 0.029,0 0.042,0c0.013,0 0.029,0 0.042,0c0.016,0 0.029,0 0.045,0c0.013,0 0.026,0 0.042,0c0.013,0 0.029,0 0.042,0c0.016,0 0.029,0 0.042,0c0.016,0 0.029,0 0.045,0c0.013,0 0.029,0 0.042,0c0.013,0 0.029,0 0.042,0c0.016,0 0.029,0 0.045,0c0.013,0 0.029,0 0.042,0c0.013,0 0.029,0 0.042,0c0.016,0 0.029,0 0.045,0c0.013,0 0.026,0 0.042,0c0.013,0 0.029,0 0.042,0c0.016,0 0.029,0 0.045,0c0.013,0 0.026,0 0.042,0c0.013,0 0.029,0 0.042,0c0.016,0 0.029,0 0.045,0c0.013,0 0.026,0 0.042,0c0.013,0 0.029,0 0.042,0c0.016,0 0.029,0 0.045,0c0.013,0 0.026,0 0.042,0c0.013,0 0.029,0 0.042,0c0.016,0 0.029,0 0.045,0c0.013,0 0.026,0 0.042,0c0.013,0 0.029,0 0.042,0c0.016,0 0.029,0 0.045,0c0.013,0 0.029,0 0.042,0c0.013,0 0.029,0 0.042,0c0.016,0 0.029,0 0.045,0c0.013,0 0.029,0 0.042,0c0.013,0 0.029,0 0.042,0c0.016,0 0.029,0 0.045,0c0.013,0 0.029,0 0.042,0c0.016,0 0.029,0 0.042,0c0.016,0 0.029,0 0.045,0c0.013,0 0.029,0 0.042,0c0.016,0 0.029,0 0.045,0c0.013,0 0.026,0 0.042,0c0.013,0 0.029,0 0.042,0c0.016,0 0.029,0 0.045,0c0.013,0 0.029,0 0.042,0c0.016,0 0.029,0 0.042,0c0.016,0 0.029,0 0.045,0c0.013,0 0.029,0 0.042,0c0.016,0 0.029,0 0.045,0c0.013,0 0.029,0 0.042,0c0.013,0 0.029,0 0.042,0c0.016,0 0.029,0 0.045,0c0.013,0 0.029,0 0.042,0c0.016,0 0.029,0 0.042,0c0.016,0 0.029,0 0.045,0c0.013,0 0.029,0 0.042,0c0.016,0 0.029,0 0.045,0c0.013,0 0.029,0 0.042,0c0.016,0 0.029,0 0.042,0c0.016,0 0.029,0 0.045,0c0.013,0 0.029,0 0.042,0c0.016,0 0.029,0 0.045,0c0.013,0 0.029,0 0.042,0c0.016,0 0.029,0 0.042,0c0.016,0 0.029,0 0.045,0c0.013,0 0.029,0 0.042,0c0.016,0 0.029,0 0.045,0c0.013,0 0.029,0 0.042,0c0.016,0 0.029,0 0.042,0c0.016,0 0.029,0 0.045,0c0.013,0 0.029,0 0.042,0c0.016,0 0.029,0 0.045,0c0.013,0 0.029,0 0.042,0c0.013,0 0.029,0 0.042,0c0.016,0 0.029,0 0.045,0c0.013,0 0.029,0 0.042,0c0.016,0 0.029,0 0.045,0c0.013,0 0.029,0 0.042,0c0.016,0 0.029,0 0.042,0c0.016,0 0.029,0 0.045,0c0.013,0 0.029,0 0.042,0c0.016,0 0.029,0 0.045,0c0.013,0 0.029,0 0.042,0c0.016,0 0.029,0 0.042,0c0.016,0 0.029,0 0.045,0c0.013,0 0.029,0 0.042,0zM785.209,865.824v52.513c-3.591,0 -6.243,0.527 -13.54,1.743l-8.633,-51.796c5.31,-0.885 13.16,-2.46 22.174,-2.46zM762.654,868.35l9.395,51.665c-13.033,2.37 -26.954,3.507 -39.274,4.534l-4.361,-52.332c12.884,-1.074 24.169,-2.038 34.241,-3.868zM732.775,924.549c-12.349,1.029 -26.088,2.19 -38.941,2.19v-52.513c10.256,0 21.722,-0.938 34.58,-2.009zM693.835,874.225v52.513c-7.549,0 -18.419,0.846 -32.658,3.692l-10.3,-51.491c17.269,-3.455 31.602,-4.713 42.958,-4.713zM659.741,930.677c-7.027,1.003 -16.237,2.366 -25.771,2.366v-52.513c5.17,0 10.666,-0.74 18.343,-1.838zM630.257,880.793l7.428,51.985c-6.971,0.995 -11.881,1.848 -17.505,3.455l-14.428,-50.494c9.079,-2.594 16.772,-3.842 24.505,-4.947zM618.663,936.616c-10.35,2.3 -20.538,3.637 -25.537,4.469l-8.633,-51.796c7.606,-1.268 14.223,-2.032 22.777,-3.933zM585.096,889.195l7.428,51.985c-6.971,0.995 -11.881,1.848 -17.505,3.455l-14.428,-50.494c9.079,-2.594 16.772,-3.842 24.505,-4.947zM575.019,944.635c-10.051,2.873 -20.926,4.162 -31.371,4.162v-52.513c6.362,0 12.29,-0.812 16.943,-2.143zM543.648,948.797c-6.333,0 -13.871,0.803 -21.609,2.523l-11.393,-51.26c11.167,-2.482 22.531,-3.776 33.002,-3.776zM509.129,900.442l14.428,50.494c-12.343,3.526 -25.471,3.293 -37.738,0.226l12.737,-50.945c4.537,1.134 8.213,0.901 10.573,0.226zM492.186,899.432v52.513c-14.591,0 -29.258,1.822 -44.043,5.519l-12.737,-50.945c18.823,-4.706 37.764,-7.087 56.779,-7.087zM447.471,957.621c-9.445,2.101 -19.346,4.304 -31.458,6.504l-9.395,-51.665c10.996,-2 19.997,-3.998 29.46,-6.099zM406.167,912.548l10.298,51.491c-13.913,2.783 -28.236,2.626 -41.133,1.452l4.755,-52.295c10.208,0.926 18.991,0.769 26.08,-0.649zM377.707,965.601c-15.441,0 -29.798,-2.563 -41.91,-6.601l16.607,-49.816c6.79,2.263 15.541,3.904 25.303,3.904zM350.467,908.62l-12.737,50.945c1.187,0.296 2.114,0.362 2.668,0.37c0.281,0.005 0.494,-0.005 0.628,-0.016c0.134,-0.011 0.204,-0.024 0.21,-0.024c0.006,0 -0.042,0.008 -0.144,0.032c-0.102,0.021 -0.247,0.058 -0.433,0.113c-0.383,0.113 -0.89,0.283 -1.512,0.53l-19.503,-48.756c6.929,-2.772 18.537,-6.267 30.825,-3.195zM336.611,961.439c-4.705,1.344 -9.229,2.3 -13.055,3.09c-4.033,0.835 -7.344,1.5 -10.896,2.387l-12.737,-50.945c4.847,-1.211 9.415,-2.125 12.994,-2.865c3.789,-0.785 6.619,-1.405 9.266,-2.161zM313.505,966.69c-6.924,1.977 -15.83,4.558 -23.904,5.902l-8.633,-51.796c4.532,-0.756 10.329,-2.376 18.109,-4.6zM297.029,970.18c-5.576,2.789 -10.896,3.39 -13.8,3.613c-2.938,0.226 -6.194,0.21 -8.444,0.21v-52.513c1.365,0 2.332,-0.003 3.156,-0.016c0.822,-0.01 1.173,-0.031 1.26,-0.039c0.1,-0.007 -0.436,0.024 -1.334,0.221c-0.937,0.207 -2.491,0.638 -4.324,1.554zM274.785,974.003c-20.663,0 -39.666,-5.685 -54.276,-20.294l37.131,-37.134c2.195,2.195 6.298,4.915 17.145,4.915zM262.559,923.4l-46.97,23.486c0.255,0.509 0.592,1.055 1.034,1.646c0.223,0.296 0.477,0.612 0.769,0.945c0.147,0.168 0.304,0.341 0.472,0.52c0.084,0.089 0.171,0.181 0.261,0.273c0.045,0.047 0.091,0.095 0.138,0.142c0.024,0.024 0.047,0.047 0.071,0.071c0.012,0.013 0.024,0.026 0.036,0.037c0.006,0.005 0.012,0.013 0.018,0.018c0.003,0.003 0.007,0.008 0.009,0.008c0.004,0.005 0.009,0.01 18.577,-18.553c18.567,-18.566 18.573,-18.56 18.578,-18.555c0,0 0.005,0.005 0.008,0.008c0.007,0.005 0.013,0.013 0.018,0.018c0.013,0.013 0.026,0.026 0.037,0.037c0.026,0.026 0.05,0.05 0.076,0.076c0.05,0.052 0.102,0.105 0.155,0.16c0.107,0.11 0.217,0.226 0.333,0.349c0.229,0.244 0.475,0.515 0.738,0.814c0.52,0.596 1.103,1.305 1.72,2.127c1.229,1.641 2.615,3.762 3.923,6.372zM236.974,905.735v52.513c-22.05,0 -28.357,-20.299 -28.357,-29.407h52.512c0,-3.153 -0.788,-8.318 -4.595,-13.393c-3.931,-5.241 -10.819,-9.712 -19.56,-9.712zM256.721,914.278l-43.694,29.129c-8.894,-13.344 -16.016,-33.259 -5.838,-53.616l46.969,23.486c0.247,-0.494 0.449,-1.121 0.538,-1.791c0.086,-0.646 0.031,-1.055 0.018,-1.129c-0.008,-0.047 0.039,0.265 0.344,0.966c0.305,0.704 0.822,1.694 1.662,2.954zM255.58,909.836l-49.817,-16.607c2.186,-6.556 6.286,-14.406 13.695,-21.816l37.133,37.134c-0.538,0.536 -0.798,0.927 -0.908,1.111c-0.118,0.197 -0.131,0.268 -0.102,0.179zM217.02,874.225c10.589,-14.118 23.264,-27.877 38.847,-42.344l35.732,38.479c-13.824,12.84 -24.255,24.288 -32.568,35.373zM288.296,872.967l-29.129,-43.693c9.736,-6.488 19.963,-12.703 31.508,-16.003l14.428,50.494c-3.159,0.901 -7.636,3.091 -16.807,9.203zM309.632,862.002l-23.486,-46.97c15.685,-7.843 33.784,-12.981 53.056,-14.265l3.495,52.395c-12.236,0.817 -23.544,4.081 -33.065,8.841zM344.207,853.019l-6.514,-52.106c5.049,-0.633 9.725,-0.937 13.396,-1.192c3.91,-0.268 6.664,-0.478 9.253,-0.848l7.428,51.985c-4.763,0.68 -9.361,0.995 -13.068,1.252c-3.941,0.27 -7.142,0.491 -10.495,0.908zM364.055,851.123v-52.513c2.583,0 5.325,-0.186 9.158,-0.459c3.518,-0.252 8.129,-0.591 12.897,-0.591v52.513c-2.581,0 -5.323,0.184 -9.156,0.457c-3.519,0.252 -8.129,0.593 -12.9,0.593zM386.109,850.073v-52.513c4.161,0 6.049,-0.05 8.504,-0.541l10.298,51.491c-8.045,1.609 -14.559,1.562 -18.802,1.562zM394.614,797.019c3.324,-0.665 11.227,-2.613 18.802,-2.613v52.513c0.053,0 -0.375,-0.006 -1.869,0.257c-0.74,0.132 -1.599,0.302 -2.741,0.536c-1.029,0.212 -2.497,0.52 -3.894,0.798zM401.675,797.179c13.705,-6.851 29.283,-10.579 42.598,-13.651l11.808,51.166c-13.992,3.23 -23.621,5.803 -30.92,9.455zM461.919,832.596l-23.486,-46.97c3.621,-1.809 6.987,-3.035 9.437,-3.899c2.731,-0.964 4.246,-1.46 6.207,-2.245l19.503,48.756c-3.287,1.315 -6.498,2.394 -8.231,3.006c-2.016,0.711 -2.849,1.061 -3.429,1.352zM452.086,780.375c5.52,-2.76 13.045,-5.863 21.297,-7.512l10.298,51.491c-2.251,0.452 -5.228,1.55 -8.111,2.991zM495.619,818.544l-34.175,-39.87c2.234,-1.914 3.261,-3.238 3.765,-4.078c0.402,-0.669 0.717,-1.42 0.851,-2.754l52.253,5.225c-1.929,19.29 -12.041,32.348 -22.693,41.477zM465.929,774.454v-10.503h52.513v10.503zM467.279,772.253c-2.728,-8.184 -4.046,-14.966 -5.191,-21.84l51.796,-8.633c0.956,5.727 1.738,9.447 3.211,13.866zM462.088,750.413c-1.1,-6.588 -1.864,-10.878 -3.211,-14.919l49.816,-16.607c2.854,8.562 4.188,16.875 5.191,22.893zM509.032,719.976l-50.494,14.428c-1.216,-4.258 -3.503,-8.102 -8.741,-18.576l46.97,-23.486c3.164,6.331 9.279,17.19 12.264,27.635zM490.09,683.915l-33.616,40.343c-7.097,-5.916 -12.995,-11.598 -17.852,-18.07l42.01,-31.508c1.447,1.927 3.952,4.647 9.458,9.234zM480.633,674.678l-42.01,31.508c-0.163,-0.221 -0.648,-0.801 -2.292,-2.337c-1.145,-1.069 -4.327,-3.912 -6.819,-6.404l37.132,-37.134c1.707,1.709 2.725,2.542 5.519,5.149c2.292,2.14 5.485,5.236 8.47,9.219zM468.248,662.072l-40.343,33.616c-3.196,-3.836 -11.199,-12.325 -16.379,-20.097l43.693,-29.129c3.219,4.828 5.723,6.842 13.028,15.609zM455.218,646.462l-43.693,29.129c-1.449,-2.174 -4.524,-5.141 -9.523,-8.473l29.129,-43.693c7.607,5.07 17.135,12.605 24.088,23.037zM403.058,667.784c-12.227,-7.336 -22.953,-15.725 -32.135,-23.759l34.58,-39.519c7.619,6.669 15.798,12.984 24.573,18.251zM405.503,604.506l-34.58,39.519c-6.249,-5.466 -17.422,-14.186 -25.435,-22.197l37.134,-37.134c6.69,6.693 12.322,10.576 22.88,19.813zM385.902,588.699l-43.693,29.129c-4.803,-7.205 -6.761,-9.71 -8.208,-10.868l32.805,-41.005c9.053,7.244 15.496,17.342 19.096,22.743zM366.807,565.954l-32.805,41.005c-3.752,-3.001 -7.347,-6.569 -9.14,-8.268c-2.224,-2.106 -3.542,-3.217 -4.779,-4.041l29.131,-43.693c5.065,3.376 8.998,6.992 11.763,9.612c3.195,3.027 4.327,4.185 5.829,5.385zM351.456,552.631l-33.616,40.343c-5.336,-4.445 -11.858,-9.126 -17.713,-13.028l29.129,-43.693c6.751,4.501 14.932,10.322 22.2,16.379zM329.256,536.252l-29.129,43.693c-3.376,-2.253 -6.989,-4.752 -10.358,-7.084c-3.458,-2.394 -6.672,-4.621 -9.597,-6.569l29.129,-43.693c3.379,2.253 6.989,4.753 10.358,7.087c3.458,2.392 6.675,4.619 9.597,6.567zM278.111,564.767c-10.324,-8.447 -21.874,-16.182 -33.178,-23.376l28.192,-44.302c11.802,7.509 25.458,16.578 38.24,27.036zM245.8,541.919c-12.547,-7.318 -25.46,-15.484 -34.938,-21.171l27.018,-45.027c11.527,6.916 21.721,13.454 34.379,20.84zM237.199,475.325l-25.658,45.82c-26.49,-14.835 -52.371,-29.92 -78.403,-47.275l29.129,-43.693c24.38,16.253 48.91,30.576 74.933,45.148zM162.268,430.177l-29.129,43.693c-24.811,-16.541 -49.458,-31.935 -72.924,-45.2l25.839,-45.715c24.846,14.042 50.611,30.155 76.213,47.222zM54.569,424.379c-3.207,-3.208 -5.163,-5.117 -7.691,-7.013l31.508,-42.01c5.874,4.403 10.22,8.796 13.315,11.889zM81.196,377.793l-37.132,37.134c-1.417,-1.418 -2.153,-1.812 -7.69,-5.963l31.508,-42.01c2.865,2.148 8.431,5.955 13.315,10.839zM65.639,365.445l-27.018,45.027c-3.98,-2.387 -7.059,-4.721 -9.277,-6.462c-1.558,-1.223 -1.481,-1.184 -2.52,-1.995c-0.62,-0.483 -0.818,-0.617 -0.812,-0.612l29.129,-43.693c1.582,1.056 2.959,2.103 3.98,2.899c0.519,0.407 1.027,0.808 1.453,1.147c0.453,0.36 0.828,0.659 1.213,0.961c1.458,1.147 2.579,1.964 3.851,2.728zM60.2,362.112l-39.249,34.887c-11.832,-13.312 -18.579,-27.947 -20.177,-45.523l52.297,-4.755c0.503,5.53 2.157,9.799 7.129,15.392zM0.666,349.1c0,-24.581 7.931,-50.084 31.538,-62.96l25.146,46.101c-0.186,0.099 -0.948,0.472 -1.897,2.578c-1.085,2.403 -2.274,6.892 -2.274,14.281zM59.341,331.036l-29.129,-43.693c5.39,-3.592 12.749,-7.296 22.019,-9.15l10.299,51.491c-1.233,0.247 -2.276,0.745 -3.188,1.352zM54.768,277.811c14.105,-1.41 29.646,-0.003 45.194,5.653l-17.946,49.349c-7.558,-2.746 -15.122,-3.44 -22.023,-2.749zM79.246,331.624l23.485,-46.97c-0.246,-0.123 -0.855,-0.412 -1.741,-0.719c-0.945,-0.329 -1.979,-0.596 -3.058,-0.775c-1.026,-0.17 -1.799,-0.212 -2.094,-0.223c-0.176,-0.008 -0.252,-0.003 0.402,-0.003v52.513c-0.534,0 -3.607,0.066 -6.943,-0.491c-3.986,-0.664 -7.294,-1.954 -10.05,-3.332zM96.238,335.448v-52.513c0.534,0 3.607,-0.069 6.942,0.488c3.986,0.664 7.294,1.954 10.052,3.332l-23.485,46.97c0.248,0.123 0.856,0.412 1.743,0.719c0.946,0.328 1.98,0.596 3.058,0.777c1.026,0.171 1.798,0.21 2.093,0.221c0.176,0.008 0.252,0.005 -0.402,0.005zM113.234,286.754c0.842,0.423 1.52,0.67 4.179,1.733c1.977,0.791 6.115,2.437 10.196,5.157l-29.129,43.693c0.587,0.391 0.933,0.543 0.8,0.48c-0.158,-0.076 -0.51,-0.231 -1.369,-0.575c-1.28,-0.512 -4.804,-1.84 -8.162,-3.518zM98.479,337.337l29.129,-43.693c1.5,1 4.054,2.326 8.731,4.663l-23.484,46.97c-3.725,-1.864 -9.573,-4.739 -14.375,-7.94zM112.854,345.276l23.484,-46.97c1.315,0.659 2.39,1.279 3.162,1.741c0.369,0.224 0.694,0.423 0.875,0.536c0.233,0.144 0.241,0.147 0.225,0.139c-0.031,-0.018 -0.285,-0.173 -0.667,-0.375c-0.383,-0.205 -1.054,-0.549 -1.942,-0.914c-1.77,-0.73 -4.991,-1.796 -9.193,-1.796v52.513c-4.726,0 -8.473,-1.2 -10.801,-2.158c-2.171,-0.895 -3.845,-1.901 -4.414,-2.242c-1.81,-1.085 -0.88,-0.549 -0.728,-0.473zM110.231,342.46l37.132,-37.134c-2.072,-2.072 -3.881,-3.051 -4.723,-3.474c-0.58,-0.289 -1.458,-0.685 -2.632,-1.058c-0.858,-0.276 -3.444,-1.056 -7.009,-1.056v52.513c-6.898,0 -12.256,-2.636 -13.843,-3.429c-2.417,-1.208 -5.801,-3.24 -8.924,-6.362zM112.497,342.394l41.006,-32.802c1.864,2.329 4.546,4.593 7.709,6.491l-27.018,45.027c-7.34,-4.404 -15.161,-10.542 -21.698,-18.716zM161.212,316.083c2.798,1.678 4.547,2.712 6.111,3.492c1.525,0.765 1.821,0.736 1.283,0.628l-10.299,51.491c-10.597,-2.119 -19.954,-8.087 -24.113,-10.584zM156.244,371.196l14.426,-50.494c10.195,2.914 20.982,8.412 28.685,12.264l-23.485,46.97c-9.101,-4.55 -15.119,-7.454 -19.627,-8.741zM197.955,332.317c13.974,5.989 28.573,12.03 40.975,19.474l-27.018,45.027c-8.602,-5.159 -19.21,-9.62 -34.643,-16.234zM211.914,396.818l27.018,-45.027c4.969,2.98 10.236,5.992 15.797,9.169c5.466,3.125 11.227,6.415 16.759,9.736l-27.017,45.027c-4.97,-2.98 -10.236,-5.992 -15.797,-9.169c-5.467,-3.125 -11.228,-6.415 -16.761,-9.736zM239.413,411.776l37.131,-37.134c3.326,3.327 7.711,6.026 13.133,8.736l-23.486,46.97c-7.181,-3.592 -17.501,-9.295 -26.778,-18.571zM289.677,383.378c8.919,4.461 10.773,5.894 14.811,7.509l-19.503,48.756c-6.461,-2.584 -15.11,-7.454 -18.794,-9.295zM280.172,437.111l29.129,-43.693c5.322,3.547 11.724,7.21 17.135,9.914l-23.486,46.97c-7.191,-3.597 -15.496,-8.336 -22.777,-13.191zM302.95,450.303c5.516,2.757 12.18,6.556 19.721,10.865l26.054,-45.594c-7.163,-4.093 -15.202,-8.696 -22.289,-12.241zM327.395,463.279c1.528,0.509 3.193,1.237 5.225,2.253c1.027,0.512 2.04,1.045 3.23,1.673c1.09,0.575 2.494,1.321 3.86,2.003l23.484,-46.97c-1.972,-0.987 -10.529,-5.889 -19.191,-8.775l-16.607,49.816zM339.709,469.207c5.383,2.689 11.75,5.217 16.694,7.194l19.503,-48.756c-5.558,-2.224 -9.691,-3.896 -12.713,-5.409l-23.484,46.97zM342.67,463.767l46.97,-23.486c-0.326,-0.646 -1.71,-3.393 -4.687,-6.197c-3.571,-3.361 -9.452,-6.74 -17.093,-6.74c-6.664,0 -11.288,2.615 -13.052,3.747c-1.882,1.205 -2.956,2.305 -3.019,2.368l37.132,37.132c-1.11,1.111 -3.103,2.999 -5.805,4.729c-2.586,1.657 -7.932,4.537 -15.255,4.537c-17.489,0 -24.505,-14.719 -25.19,-16.09zM344.099,452.025v-2.101h52.513v2.101zM393.843,438.182l-46.97,23.486c-0.659,-1.318 -1.124,-2.416 -1.376,-3.025c-0.449,-1.074 -0.071,-0.134 0.323,0.656c0.404,0.806 2.332,4.713 6.656,8.171c5.262,4.211 11.148,5.561 15.78,5.561v-52.513c5.159,0 11.44,1.478 17.03,5.952c4.65,3.721 6.843,8.022 7.507,9.353c0.425,0.848 0.738,1.575 0.882,1.914c0.081,0.191 0.152,0.362 0.194,0.467c0.057,0.139 0.07,0.17 0.102,0.244c0.073,0.181 0.005,0 -0.129,-0.268zM368.255,446.774c18.563,-18.571 18.569,-18.566 18.574,-18.561c0,0 0.005,0.005 0.008,0.008c0.008,0.005 0.013,0.013 0.018,0.018c0.013,0.013 0.024,0.024 0.037,0.037c0.024,0.024 0.047,0.047 0.071,0.071c0.045,0.047 0.092,0.095 0.137,0.142c0.092,0.092 0.179,0.184 0.263,0.273c0.168,0.181 0.326,0.354 0.473,0.52c0.291,0.336 0.546,0.651 0.769,0.948c0.441,0.588 0.78,1.137 1.037,1.649l-46.97,23.486c1.308,2.613 2.694,4.737 3.925,6.375c0.617,0.824 1.2,1.531 1.722,2.129c0.26,0.297 0.509,0.57 0.738,0.814c0.116,0.123 0.226,0.239 0.333,0.349c0.053,0.055 0.105,0.108 0.155,0.16c0.026,0.026 0.05,0.05 0.076,0.076c0.011,0.011 0.024,0.024 0.037,0.037c0.005,0.005 0.011,0.013 0.018,0.018c0.003,0.003 0.008,0.008 0.008,0.008c0.005,0.005 0.011,0.011 18.571,-18.558zM384.72,425.056l-37.132,37.134c-17.135,-17.135 -34.212,-35.286 -50.966,-53.085l38.24,-35.99c16.856,17.909 33.385,35.467 49.858,51.94zM334.862,373.113l-38.24,35.99c-16.1,-17.106 -33.146,-33.141 -50.083,-47.088l33.384,-40.537c18.771,15.46 37.434,33.033 54.939,51.636zM282.471,323.882l-38.48,35.732c-12.788,-13.772 -25.642,-25.65 -38.68,-36.683l33.92,-40.086c14.268,12.073 28.722,25.4 43.239,41.036zM205.311,322.931c-13.129,-11.109 -27.133,-22.106 -43.076,-33.065l29.75,-43.273c17.666,12.145 33.069,24.255 47.246,36.252zM195.675,249.663l-37.132,37.133c-2.698,-2.699 -6.6,-5.926 -13.499,-10.854l30.522,-42.732c7.805,5.575 14.407,10.75 20.11,16.453zM148.563,278.06c-7.194,-3.597 -15.496,-8.339 -22.776,-13.191l29.129,-43.693c5.323,3.549 11.723,7.211 17.132,9.915zM154.915,221.177l-29.129,43.693c-6.363,-4.242 -11.959,-7.962 -18.418,-11.653l26.054,-45.594c8.244,4.711 15.253,9.393 21.493,13.553zM103.106,250.18c-9.185,-8.037 -18.23,-17.098 -27.532,-26.4l37.132,-37.132c9.603,9.602 17.361,17.346 24.98,24.012zM113.765,187.77l-39.249,34.888c-7.05,-7.931 -15.261,-15.299 -25.135,-23.198l32.804,-41.005c11.131,8.905 21.824,18.341 31.579,29.315zM82.183,158.455l-32.804,41.005c-17.197,-13.757 -24.558,-32.048 -24.558,-50.96h52.513c0,2.547 0.449,4.22 0.997,5.408c0.525,1.137 1.533,2.691 3.853,4.547zM25.606,154.868c-1.941,-7.763 -1.834,-15.046 -1.834,-17.921h52.513c0,1.644 0.008,2.658 0.073,3.638c0.062,0.935 0.156,1.4 0.193,1.547zM23.772,136.947c0,-4.214 0.545,-7.788 0.788,-9.487c0.282,-1.977 0.261,-2.079 0.261,-2.065h52.513c0,4.214 -0.545,7.788 -0.788,9.487c-0.282,1.977 -0.261,2.078 -0.261,2.065zM24.822,125.394c0,-12.455 4.225,-23.739 10.712,-33.469l43.693,29.129c-1.915,2.873 -1.892,4.192 -1.892,4.34zM81.76,116.242l-48.757,-19.503c5.531,-13.829 16.482,-20.752 22.422,-24.316l27.018,45.029c-1.012,0.608 -1.667,1.033 -2.116,1.349c-0.439,0.308 -0.534,0.411 -0.436,0.32c0.115,-0.108 0.441,-0.432 0.83,-0.978c0.402,-0.564 0.763,-1.216 1.038,-1.902zM87.499,113.503l-37.132,-37.132c6.048,-6.048 12.339,-8.785 17.615,-10.544l16.606,49.818c-0.829,0.277 -0.44,0.205 0.379,-0.25c0.441,-0.245 0.926,-0.554 1.414,-0.924c0.484,-0.367 0.859,-0.708 1.119,-0.968zM84.589,115.645l-16.606,-49.818c0.829,-0.277 0.44,-0.205 -0.379,0.25c-0.441,0.245 -0.926,0.554 -1.414,0.924c-0.484,0.367 -0.859,0.708 -1.119,0.968l37.132,37.132c-6.048,6.048 -12.339,8.785 -17.615,10.544zM95.38,110.019l-23.485,-46.969c10.497,-5.249 20.931,-6.973 29.596,-6.973v52.513c-1.838,0 -4.006,0.376 -6.112,1.429zM96.341,108.08l10.299,-51.493c5.38,1.075 13.681,2.655 23.397,7.513l-23.484,46.969c-2.887,-1.443 -5.088,-1.964 -10.211,-2.989zM99.729,106.15l37.132,-37.132c-1.014,-1.014 -1.875,-1.622 -2.246,-1.869c-0.329,-0.219 -0.439,-0.261 0.06,0.011c0.247,0.135 0.494,0.267 0.928,0.499c0.388,0.208 0.904,0.485 1.457,0.791c1.116,0.618 2.589,1.465 4.202,2.54l-29.129,43.693c0.038,0.025 -0.066,-0.047 -0.492,-0.283c-0.218,-0.12 -0.465,-0.254 -0.828,-0.448c-0.316,-0.17 -0.808,-0.432 -1.283,-0.691c-1.64,-0.894 -5.875,-3.184 -9.801,-7.11zM141.262,70.99c0.815,0.543 1.443,0.962 2.043,1.349c0.585,0.378 1.016,0.643 1.348,0.837c0.752,0.439 0.593,0.268 -0.2,0.003l-16.606,49.818c-7.145,-2.382 -13.357,-6.743 -15.714,-8.314zM117.585,116.653l37.132,-37.132c-0.258,-0.257 -0.538,-0.504 -0.826,-0.729c-0.285,-0.223 -0.524,-0.382 -0.673,-0.475c-0.138,-0.087 -0.175,-0.101 -0.022,-0.02c0.077,0.041 0.188,0.099 0.357,0.185c0.177,0.09 0.366,0.185 0.641,0.322l-23.485,46.969c-2.111,-1.055 -7.713,-3.707 -13.125,-9.119zM130.709,125.772l23.485,-46.969c2.015,1.007 3.64,2.065 4.709,2.8c1.048,0.721 2.011,1.448 2.454,1.78c0.281,0.211 0.437,0.328 0.575,0.429c0.128,0.094 0.156,0.112 0.121,0.088c-0.019,-0.012 -0.594,-0.414 -1.558,-0.896l-23.485,46.969c-2.015,-1.007 -3.64,-2.065 -4.709,-2.8c-1.048,-0.721 -2.011,-1.448 -2.454,-1.78c-0.281,-0.211 -0.437,-0.328 -0.575,-0.429c-0.128,-0.093 -0.156,-0.112 -0.121,-0.088c0.019,0.013 0.594,0.415 1.558,0.897zM131.942,126.661l33.618,-40.342c6.078,5.064 11.143,9.117 16.398,13.321l-32.804,41.005c-5.248,-4.198 -10.685,-8.547 -17.211,-13.985zM149.156,140.645l32.804,-41.005c4.956,3.965 11.437,9.11 16.867,14.54l-37.132,37.132c-2.972,-2.971 -6.994,-6.229 -12.54,-10.666zM197.069,112.575c3.625,3.021 8.378,5.958 17.099,9.446l-19.503,48.757c-12.284,-4.914 -22.236,-10.379 -31.214,-17.861zM210.784,120.927c12.681,3.17 23.379,9.344 31.039,15.472l-32.804,41.006c-2.843,-2.274 -6.848,-4.502 -10.971,-5.533zM209.019,177.406l32.804,-41.006c2.626,2.101 5.251,4.201 7.877,6.302c2.626,2.101 5.25,4.201 7.876,6.302l-32.803,41.005c-2.626,-2.101 -5.251,-4.201 -7.877,-6.302c-2.626,-2.101 -5.251,-4.201 -7.877,-6.302zM222.608,188.071l37.133,-37.132c4.435,4.435 9.156,8.911 14.339,13.828c5.097,4.835 10.589,10.049 16.119,15.579l-37.134,37.132c-4.971,-4.972 -9.983,-9.736 -15.126,-14.615c-5.058,-4.798 -10.313,-9.774 -15.33,-14.792zM289.294,179.484c10.831,9.844 20.129,17.223 30.043,23.533l-28.192,44.303c-13.191,-8.394 -24.897,-17.819 -37.174,-28.98zM289.121,245.894c9.893,7.694 17.762,13.327 24.66,17.925l29.129,-43.693c-5.706,-3.804 -12.537,-8.674 -21.549,-15.683zM316.603,265.458c6.582,3.29 16.329,8.171 30.746,12.976l16.607,-49.817c-10.789,-3.596 -17.849,-7.118 -23.87,-10.128l-23.484,46.969zM374.218,234.96c-3.962,-3.964 -9.369,-6.115 -14.759,-6.115c-4.916,0 -8.326,1.74 -9.97,2.834l29.129,43.693c-9.628,6.42 -27.616,10.634 -41.532,-3.279zM390.31,253.525c0,4.276 -1.155,10.118 -5.346,15.511c-4.017,5.162 -8.932,7.473 -11.949,8.478c-2.862,0.956 -5.165,1.126 -5.884,1.176c-0.785,0.053 -1.426,0.042 -0.977,0.042v-52.514c-0.076,0 -1.239,-0.011 -2.518,0.075c-1.21,0.081 -3.975,0.319 -7.231,1.405c-3.408,1.137 -8.651,3.644 -12.897,9.103c-4.422,5.686 -5.711,11.923 -5.711,16.724zM342.668,240.738l-1.05,2.101l46.975,23.475l1.05,-2.101zM391.361,254.578h-52.513c0,-0.073 -0.013,-1.237 0.074,-2.512c0.079,-1.211 0.318,-3.972 1.402,-7.227c1.134,-3.409 3.637,-8.655 9.098,-12.904c5.688,-4.426 11.929,-5.715 16.731,-5.715v52.514c4.28,0 10.125,-1.158 15.518,-5.354c5.165,-4.02 7.473,-8.938 8.476,-11.953c0.953,-2.861 1.127,-5.163 1.174,-5.881c0.053,-0.783 0.042,-1.422 0.042,-0.97zM366.155,226.219c-1.536,0 -0.593,-0.051 0.696,0.133c0.814,0.117 2.502,0.412 4.592,1.23c2.15,0.842 5.157,2.407 8.029,5.277l-37.134,37.133c6.582,6.582 14.299,7.945 17.085,8.344c3.127,0.446 6.168,0.396 6.732,0.396v-52.514zM379.471,232.86l-37.134,37.133c-6.459,-6.462 -14.076,-13.157 -24.09,-21.17l32.802,-41.006c10.991,8.791 20.178,16.798 28.423,25.042zM350.769,207.594l-32.24,41.451c-10.955,-8.521 -20.488,-18.101 -28.704,-26.315l37.134,-37.132c8.588,8.59 15.859,15.813 23.809,21.996zM330.754,190.403l-44.723,27.522c-7.158,-11.63 -13.848,-18.916 -18.884,-23.233l34.175,-39.871c9.668,8.287 19.784,19.905 29.431,35.582zM300.637,154.253c-2.626,-2.101 -5.251,-4.201 -7.877,-6.302c-2.626,-2.101 -5.251,-4.201 -7.877,-6.301l-32.804,41.006c2.625,2.101 5.25,4.201 7.876,6.302c2.628,2.101 5.251,4.201 7.877,6.301zM284.883,141.65c-5.545,-4.437 -9.568,-7.695 -12.54,-10.666l-37.131,37.132c5.43,5.43 11.91,10.574 16.867,14.54zM272.343,130.984c-1.218,-1.219 -2.4,-2.252 -3.088,-2.85c-0.901,-0.781 -1.163,-0.998 -1.589,-1.382c-0.712,-0.64 -0.142,-0.238 0.607,0.882l-43.694,29.129c2.847,4.271 6.044,7.299 7.958,9.021c0.886,0.797 1.937,1.696 2.285,1.998c0.558,0.485 0.558,0.503 0.389,0.333l37.131,-37.132zM224.579,156.763c-2.168,-3.253 -2.983,-4.363 -4.071,-5.451l37.131,-37.132c5.215,5.213 8.602,10.405 10.634,13.454zM262.56,121.003l-46.97,23.485c-0.334,-0.668 -0.955,-1.724 -2.038,-3.348c-0.521,-0.781 -1.064,-1.569 -1.692,-2.478c-0.578,-0.837 -1.311,-1.894 -1.984,-2.904l43.694,-29.129c0.89,1.337 5.913,8.224 8.99,14.375zM255.209,109.451l-46.97,23.485c0.016,0.031 -0.076,-0.185 -1.557,-2.258c-1.146,-1.603 -3.679,-5.063 -5.795,-9.295l46.969,-23.485c-0.016,-0.031 0.076,0.185 1.557,2.258c1.144,1.603 3.679,5.063 5.795,9.295zM201.574,122.667c-5.606,-9.812 -9.558,-20.539 -12.127,-30.815l50.945,-12.736c1.632,6.528 3.98,12.605 6.776,17.497zM240.392,79.117l-50.945,12.736c-3.171,-12.683 -2.876,-25.617 -1.704,-37.338l52.252,5.225c-0.928,9.284 -0.634,15.255 0.397,19.376zM187.612,57.127c0,-7.477 1.413,-15.685 5.664,-23.533c4.331,-7.997 10.718,-13.969 18.068,-18.169l26.054,45.594c-0.077,0.044 0.219,-0.115 0.681,-0.571c0.479,-0.473 0.97,-1.102 1.371,-1.843c0.838,-1.546 0.675,-2.403 0.675,-1.478zM242.937,56.788l-37.132,-37.132c3.927,-3.926 8.161,-6.216 9.801,-7.11c0.475,-0.259 0.967,-0.521 1.283,-0.691c0.363,-0.194 0.61,-0.327 0.828,-0.448c0.427,-0.236 0.53,-0.308 0.492,-0.283l29.129,43.693c-1.614,1.076 -3.086,1.923 -4.202,2.54c-0.553,0.306 -1.069,0.583 -1.457,0.791c-0.434,0.232 -0.681,0.364 -0.928,0.499c-0.5,0.273 -0.389,0.231 -0.06,0.011c0.371,-0.247 1.232,-0.855 2.246,-1.869zM247.338,54.817l-29.129,-43.693c2.151,-1.434 3.947,-2.508 5.257,-3.294c1.315,-0.789 2.145,-1.29 3.145,-1.957l29.13,43.693c-2.153,1.434 -3.947,2.508 -5.258,3.294c-1.315,0.789 -2.145,1.291 -3.145,1.958zM234.808,2.248c12.229,-3.058 25.751,-3.639 39.817,2.389l-20.687,48.267c-0.622,-0.267 -1.092,-0.365 -1.72,-0.387c-0.762,-0.026 -2.19,0.055 -4.674,0.676zM257.067,54.016l14.428,-50.492c8.962,2.561 21.386,7.263 31.306,17.183l-37.132,37.132c-0.583,-0.583 -2.86,-2.181 -8.602,-3.822zM302.801,20.707c1.05,1.05 2.366,2.363 3.676,3.676c1.316,1.313 2.626,2.626 3.676,3.676l-37.132,37.132c-1.05,-1.05 -2.363,-2.363 -3.676,-3.676c-1.313,-1.313 -2.626,-2.626 -3.676,-3.676zM310.152,28.059c4.203,4.201 8.977,10.738 12.272,17.326l-46.97,23.485c-0.318,-0.638 -0.872,-1.561 -1.557,-2.52c-0.32,-0.449 -0.604,-0.813 -0.814,-1.066c-0.231,-0.281 -0.26,-0.291 -0.063,-0.093zM319.943,41.373c5.621,7.494 11.117,13.893 17.518,20.294l-37.134,37.132c-8.302,-8.303 -15.41,-16.607 -22.394,-25.918zM337.461,61.667c4.542,4.544 10.163,8.303 19.432,12.936l-23.486,46.969c-11.736,-5.869 -22.919,-12.613 -33.08,-22.773zM330.585,119.935l29.129,-43.694c7.11,4.74 13.519,9.826 16.943,12.394l-31.508,42.01c-4.975,-3.733 -9.069,-7.049 -14.564,-10.711zM342.336,128.206l37.134,-37.132c1.749,1.75 10.81,9.519 16.933,18.705l-43.693,29.129c-0.793,-1.188 -1.861,-2.452 -3.547,-4.138c-0.871,-0.871 -1.785,-1.738 -2.956,-2.843c-1.076,-1.014 -2.492,-2.344 -3.87,-3.721zM355.991,142.909l37.132,-37.132c5.039,5.039 8.843,10.468 11.222,15.226l-46.97,23.485c0.118,0.237 0.173,0.32 0.139,0.262c-0.031,-0.049 -0.113,-0.178 -0.252,-0.369c-0.286,-0.392 -0.714,-0.914 -1.271,-1.471zM360.048,148.756l41.624,-32.018c9.202,11.964 19.526,22.352 30.457,32.289l-35.323,38.856c-12.175,-11.068 -24.957,-23.785 -36.759,-39.128zM432.129,149.027c6.008,5.46 11.178,10.36 16.295,15.215c5.139,4.874 10.233,9.714 16.345,15.316l-35.486,38.71c-6.491,-5.951 -11.899,-11.089 -17.001,-15.93c-5.123,-4.861 -9.931,-9.412 -15.476,-14.455zM473.281,198.912c0,-0.903 0.039,0.646 -0.144,2.296c-0.16,1.458 -0.974,8.918 -7.42,15.358c-6.443,6.437 -13.9,7.247 -15.352,7.408c-1.646,0.183 -3.193,0.144 -2.287,0.144v-52.513c-0.053,0 -0.459,-0.001 -0.882,0.007c-0.399,0.008 -1.394,0.033 -2.623,0.169c-1.746,0.194 -9.4,1.069 -15.974,7.638c-6.577,6.571 -7.457,14.228 -7.651,15.981c-0.137,1.231 -0.163,2.227 -0.171,2.627c-0.008,0.425 -0.008,0.832 -0.008,0.884h52.513zM448.077,224.118c0.903,0 -0.643,0.039 -2.292,-0.144c-1.452,-0.161 -8.919,-0.973 -15.363,-7.422c-6.443,-6.446 -7.249,-13.91 -7.41,-15.357c-0.181,-1.644 -0.144,-3.19 -0.144,-2.283h52.513c0,-0.05 0.003,-0.456 -0.005,-0.878c-0.011,-0.398 -0.034,-1.391 -0.171,-2.619c-0.192,-1.742 -1.066,-9.402 -7.638,-15.98c-6.575,-6.581 -14.239,-7.458 -15.988,-7.652c-1.229,-0.137 -2.224,-0.161 -2.623,-0.169c-0.423,-0.009 -0.83,-0.007 -0.88,-0.007v52.513zM449.125,225.169h-2.101v-52.513h2.101z" /></svg>