<svg xmlns="http://www.w3.org/2000/svg" viewBox="0 0 1024 1024" width="1024" height="1024"><path d="M1024,512c0,282.77 -229.23,512 -512,512c-282.77,0 -512,-229.23 -512,-512c0,-282.77 229.23,-512 512,-512c282.77,0 512,229.23 512,512zM640,352c0,53.02 28.652,96 64,96c35.348,0 64,-42.98 64,-96c0,-53.02 -28.652,-96 -64,-96c-35.348,0 -64,42.98 -64,96zM256,352c0,53.02 28.654,96 64,96c35.346,0 64,-42.98 64,-96c0,-53.02 -28.654,-96 -64,-96c-35.346,0 -64,42.98 -64,96zM832,577.84c-93.77,54.114 -204.05,84.92 -320,84.92c-115.95,0 -226.23,-30.95 -320,-85.064c14.578,178.432 153.132,318.304 320,318.304c166.872,0 305.426,-139.722 320,-318.16z" /></svg>