<svg xmlns="http://www.w3.org/2000/svg" viewBox="0 0 822 768" width="822" height="768"><path d="M595.716,259.304c-13.993,-1.744 -17.835,-3.283 -22.384,-3.694c-5.88,-0.481 -10.951,-1.95 -17.022,-1.95c-12.182,0.096 -23.709,-0.618 -35.515,2.418c-6.635,1.705 -13.754,2.624 -20.531,3.174c-5.314,0.372 -11.052,0.949 -16.219,2.322c-3.697,0.99 -6.071,2.677 -9.768,3.366c-30.348,5.165 -59.179,15.835 -86.634,29.586c-10.196,5.071 -21.101,10.577 -31.964,13.847c-4.696,1.427 -8.914,3.459 -13.608,5.217c-8.961,3.363 -18.257,5.121 -27.169,8.718c-33.289,13.277 -66.337,28.405 -97.591,46.045c-7.776,4.407 -15.69,8.72 -23.612,12.894c-5.123,2.939 -9.816,6.498 -14.035,10.576c-2.04,1.47 -4.931,3.157 -7.446,3.846c-5.404,1.473 -5.693,-0.327 -5.596,-5.217c0.097,-3.75 0.097,-7.499 0,-11.249c-0.049,-3.94 1.424,-5.682 1.946,-9.295c0.666,-4.648 0.14,-10.72 2.322,-14.936c1.801,-3.405 9.765,-7.442 12.658,-9.53c3.748,-2.747 7.592,-5.396 11.385,-8.06c7.727,-5.498 15.314,-11.565 22.426,-17.829c2.848,-2.459 4.882,-4.778 7.306,-7.772c1.848,-2.331 3.839,-3.747 6.306,-5.409c5.171,-3.516 9.536,-7.538 14.466,-11.288c3.934,-2.939 8.58,-3.941 12.895,-6.071c5.737,-2.843 10.341,-6.921 15.363,-10.711c6.642,-4.938 13.092,-9.728 18.924,-15.649c8.201,-8.347 17.304,-18.115 27.503,-23.994c8.729,-4.975 17.454,-10 26.13,-15.082c6.827,-3.982 14.557,-5.355 21.811,-8.76c12.567,-5.931 25.99,-9.871 38.933,-15.034c24.941,-10.007 52.303,-8.964 78.054,-15.886c7.637,-2.047 15.127,-4.834 22.621,-7.114c4.221,-1.236 9.103,-3.984 13.464,-3.846c10.623,0.427 20.628,5.933 28.167,12.758c3.415,3.074 3.836,4.036 5.167,7.964c1.137,3.463 2.563,7.637 4.219,10.865c5.22,10.384 11.904,20.296 18.354,30.061c3.981,5.973 10.762,10.86 13.753,17.358c1.324,2.885 1.087,6.524 4.93,7.348z" /> <path d="M496.414,163.732c-16.17,0 -32.813,2.034 -48.795,4.697c-20.391,3.42 -41.399,3.846 -61.694,8.445c-15.6,3.558 -30.487,7.362 -44.856,14.943c-7.398,3.886 -15.318,4.736 -22.809,7.964c-3.702,1.62 -7.539,3.501 -11.142,5.121c-6.737,3.078 -12,10.961 -18.26,15.556c-3.174,2.322 -5.736,5.398 -8.864,7.772c-4.078,3.186 -9.198,5.644 -13.56,8.583c-5.454,3.654 -10.717,6.402 -15.318,11.096c-6.212,6.36 -12.706,12.139 -20.154,16.786c-2.747,1.704 -5.165,3.886 -7.629,6.306c-1.662,1.608 -3.891,6.825 -5.79,6.882c-0.946,-3.282 1.47,-7.348 1.662,-10.865c0.289,-5.494 -0.097,-11.096 -0.097,-16.549c0,-11.754 0,-23.521 0,-35.278c0,-16.599 0.097,-33.192 0,-49.742c0,-4.367 -0.192,-7.925 1.331,-11.946c1.467,-3.886 3.362,-7.21 6.114,-10.342c3.557,-3.982 4.409,-3.462 9.534,-3.694c6.212,-0.273 12.234,-1.854 18.542,-2.034c7.112,-0.273 14.226,0.096 21.336,0.096h85.354c10.913,0 22.006,-0.962 32.58,1.416c6.26,1.373 12.706,2.184 18.822,4.134c3.276,1.098 6.546,2.802 9.864,3.558c3.557,0.824 6.26,2.651 9.674,3.654c3.27,0.962 4.834,0.689 7.922,2.184c2.467,1.098 4.882,2.843 7.629,3.405c2.85,0.55 5.55,0.138 8.443,0.824c1.608,0.273 2.56,1.235 4.499,1.469c1.758,0.138 4.078,-0.55 5.79,-0.138c2.322,0.55 2.608,2.802 29.874,5.74z" /> <path d="M505.784,152.489c-4.694,0.962 -12.471,-4.271 -16.5,-5.879c-12.091,-4.929 -23.57,-10.576 -35.991,-14.656c-12.706,-4.12 -25.89,-8.679 -39.121,-10.904c-12.895,-2.184 -26.318,-2.651 -39.309,-4.367c-24.61,-3.27 -47.564,-7.499 -72.553,-7.252c-7.302,0.098 -14.178,-1.098 -21.384,-1.758c-1.898,-0.138 -4.597,-0.824 -6.402,0c-2.467,1.098 -3.702,5.025 -6.406,5.259c0.097,-4.929 4.409,-12.373 7.112,-16.312c4.267,-6.167 10.717,-10.534 17.261,-13.799c7.16,-3.558 13.848,-8.622 20.767,-12.798c5.119,-3.078 9.534,-6.882 14.56,-9.861c3.745,-2.184 4.743,-3.132 9.198,-3.228c5.784,-0.098 12.378,-0.962 18.018,0.138c13.182,2.514 26.463,6.456 38.221,13.086c13.419,7.637 28.026,13.512 40.922,22.238c5.832,3.982 11.526,8.583 17.262,12.758c4.792,3.462 9.912,6.167 14.56,9.861c6.875,5.409 15.174,10.192 21.102,16.69c3.27,3.654 3.46,8.295 5.784,12.196c1.656,2.802 4.694,4.697 12.895,8.583z" /> <path d="M335.273,354.848c2.322,0.411 4.219,1.608 6.546,1.95c2.23,0.273 4.547,-0.411 6.777,-0.273c5.975,0.55 12.234,2.898 18.212,3.886c10.954,1.896 21.526,4.505 32.574,6.125c19.302,2.747 39.121,4.832 58.136,9.007c15.551,3.405 32.295,1.758 48.222,1.758c18.305,0 35.898,1.896 54.294,1.896c11.43,0 24.373,-1.62 35.71,-0.048c3.13,0.411 2.845,-0.55 3.793,2.747c0.714,2.226 -0.099,5.74 -0.099,8.102c0.047,5.451 0.439,9.256 2.136,14.37c2.084,6.36 1.515,12.277 1.656,18.918c0,1.662 0.658,5.025 -0.343,6.594c-1.662,2.651 -5.929,1.758 -8.634,2.184c-13.848,2.088 -27.833,1.469 -41.826,1.469h-125.376c-9.102,0 -18.163,-0.046 -27.218,0.048c-12.852,0.138 -25.177,-2.568 -37.891,-3.79c-23.278,-2.226 -44.952,-7.691 -66.291,-16.975c-9.768,-4.271 -19.254,-6.125 -29.874,-7.402c-8.346,-0.962 -14.706,-2.322 -21.908,-6.125c-5.977,-3.174 -12.474,-3.886 -19.161,-5.548c1.002,-2.981 7.398,-6.167 10.008,-7.676c12.325,-7.156 25.464,-12.854 37.508,-20.537c10.482,-6.729 19.297,-11.658 31.674,-14.035c1.662,-0.273 3.793,0.048 5.309,-0.411c1.614,-0.411 1.8,-1.469 3.463,-1.992c2.515,-0.824 5.832,-1.469 8.537,-1.854c3.412,-0.55 7.014,0.138 10.29,0.962c6.45,1.565 9.195,5.313 3.745,6.594z" /> <path d="M548.848,300.359c2.136,6.402 -0.618,11.234 -4.882,15.836c-2.418,2.61 -5.975,4.367 -8.676,7.018c-2.23,2.13 -4.078,5.313 -6.546,7.06c-5.261,3.654 -10.669,8.06 -17.019,10.15c-7.543,2.514 -15.27,4.697 -22.857,7.06c-12.237,3.79 -25.037,2.61 -37.226,-3.75c-4.694,-2.418 -9.339,-5.451 -13.987,-8.198c-4.792,-2.843 -8.633,-7.156 -13.515,-9.722c2.613,2.472 4.365,0.689 7.16,0.138c2.893,-0.55 4.743,0.411 7.685,-0.098c2.56,-0.55 6.737,-1.512 9.01,-2.747c1.277,-0.689 1.944,-2.034 3.082,-2.747c1.752,-1.235 3.647,-1.098 5.358,-2.046c3.793,-2.28 8.154,-7.306 11.43,-10.288c4.458,-4.024 8.816,-7.114 14.839,-8.968c5.644,-1.758 11.526,-4.793 17.45,-3.846c5.74,0.962 11.478,2.802 17.119,4.505c6.45,1.95 11.521,2.226 18.208,3.132c4.645,0.689 11.904,3.558 13.371,-2.514z" /> <path d="M425.21,459.78c-0.042,0 -9.432,0.689 -11.806,0.1c-0.988,-0.273 -2.322,-1.416 -3.174,-1.565c-2.898,-0.55 -4.176,0 -7.021,0.55c-4.834,0.824 -9.768,0.962 -14.418,2.568c-3.647,1.235 -6.402,3.405 -10.194,4.505c-20.579,5.921 -41.826,9.626 -61.881,17.304c-17.262,6.594 -35.188,13.278 -52.92,17.401c-7.069,1.608 -14.56,0.962 -21.341,3.366c-6.546,2.28 -10.905,4.559 -17.736,4.505c-1.467,0 -5.401,0.824 -6.498,-0.048c-1.656,-1.235 -1.043,-3.501 -0.988,-5.548c0.097,-5.921 0,-11.907 0,-17.829c0,-5.644 -0.714,-11.715 -0.097,-17.262c0.714,-6.306 3.463,-11.523 5.265,-17.401c1.419,-4.793 3.606,-9.818 6.308,-13.895c1.656,-2.472 4.17,-7.676 7.112,-8.679c8.012,-2.568 19.254,3.324 26.505,5.783c13.134,4.409 26.366,7.348 40.022,9.573c4.98,0.824 9.864,1.95 14.657,3.036c4.219,0.962 8.439,-0.046 12.706,0.273c4.597,0.411 8.489,1.854 13.182,1.95c5.406,0.098 12.091,1.098 17.352,2.322c10.863,2.706 21.432,4.505 32.337,6.69c6.737,1.373 14.515,0.411 32.622,2.28z" /> <path d="M449.572,469.117c-2.514,-2.282 0.47,-3.737 3.557,-5.879c4.171,-2.935 7.302,-8.237 12.373,-9.199c7.685,-1.467 17.025,0.098 24.989,0.098h65.772c5.119,0 10.338,-0.551 15.318,0.411c4.076,0.756 8.252,1.456 12.282,2.418c2.558,0.685 5.546,0.273 7.964,1.235c0.189,2.085 -2.891,6.684 -4.03,8.622c-1.754,2.993 -3.745,5.548 -4.98,8.872c-2.418,6.54 -4.884,14.652 -5.927,21.574c-1.088,7.21 4.984,27.206 -5.546,28.168c-7.775,0.658 -13.09,-5.082 -18.778,-8.968c-4.742,-3.266 -7.018,-7.483 -12.706,-9.337c-6.169,-1.935 -12.188,-2.883 -18.163,-5.259c-4.694,-1.801 -8.297,-3.559 -12.658,-6.498c-11.1,-7.497 -22.382,-12.002 -34.712,-16.834c-4.221,-1.659 -8.348,-3.747 -12.567,-5.409c-3.695,-1.468 -8.014,-4.532 -12.184,-3.982z" /> <path d="M535.765,523.445c1.757,2.322 1.664,2.87 1.565,3.42c-11.288,2.224 -21.245,7.444 -33.714,5.548c-4.933,-0.798 -9.867,-2.35 -14.797,-3.174c-3.318,-0.504 -6.595,0 -9.957,-0.55c-8.824,-1.413 -18.073,-2.265 -26.512,-5.163c-9.104,-3.174 -18.921,-4.56 -28.167,-7.541c-3.18,-0.99 -6.827,-2.581 -9.957,-3.27c-6.546,-1.399 -13.137,-0.426 -19.776,-2.088c-9.338,-2.336 -18.254,-4.752 -27.788,-6.264c-7.918,-1.29 -14.7,-3.322 -22.854,-3.42c-6.26,-0.135 -12.567,0 -18.827,0.138c1.139,-2.321 7.063,-3.558 9.341,-4.793c4.556,-2.362 8.825,-2.981 13.799,-4.216c1.561,-0.384 3.224,-1.623 4.363,-1.896c2.324,-0.546 4.317,0 6.639,-0.273c2.845,-0.288 5.308,-1.677 8.11,-2.088c1.801,-0.273 3.746,0.411 5.546,0.138c3.605,-0.427 5.457,-1.944 9.341,-1.896c7.588,0.098 15.131,0 22.718,0c10.293,0 20.958,-1.002 30.678,1.704c8.775,2.417 17.548,3.926 26.322,7.676c7.637,3.213 15.363,5.396 23.327,7.91c3.938,1.219 7.397,3.363 11.24,4.736c4.506,1.62 8.391,4.409 13.134,5.644c4.743,1.178 8.535,2.924 13.089,4.544c4.597,1.62 8.063,4.667 13.134,5.217z" /> <path d="M379.766,574.836c0.754,0.411 1.515,0.824 2.278,1.098c3.46,1.662 7.629,2.088 10.857,4.134c3.654,2.376 6.687,5.398 10.53,7.306c7.064,3.558 13.608,7.114 21.384,9.626c7.587,2.472 14.936,7.114 23.806,7.018c9.816,-0.1 19.679,-0.273 29.496,-0.048c5.119,0.138 10.101,2.184 14.984,3.75c5.498,1.854 10.29,5.313 15.885,7.595c-4.219,-0.55 -8.774,3.846 -12.852,5.067c-12.658,3.846 -26.457,3.366 -39.498,5.687c-14.133,2.555 -30.397,0.411 -44.765,0.411c-15.978,0.098 -31.388,-3.078 -47.274,-5.121c-21.672,-2.802 -41.544,-7.925 -61.078,-17.401c-5.119,-2.459 -10.29,-2.994 -15.363,-5.932c-6.737,-3.886 -14.181,-5.644 -20.865,-9.391c-8.012,-4.505 -16.17,-8.718 -24.846,-11.85c-4.078,-1.512 -8.11,-2.939 -11.994,-4.64c-5.502,-2.376 -7.637,-2.898 -7.587,-9.337c0.042,-5.975 1.515,-11.192 1.895,-16.882c0.343,-5.025 0.577,-8.679 3.228,-13.182c2.467,-4.271 5.167,-5.355 9.72,-5.548c9.389,-0.273 19.206,1.235 28.452,0.046c4.792,-0.55 7.35,-3.462 11.478,-5.217c5.022,-2.088 9.15,-2.322 18.305,-7.964c4.743,0 12.042,-1.373 16.452,0.273c2.136,0.824 3.891,2.898 5.929,3.942c3.032,1.62 6.498,1.95 9.528,3.694c4.694,2.706 9.102,7.499 13.041,11.138c9.198,8.487 14.274,19.823 22.712,28.786c2.326,2.459 4.98,4.601 8.012,6.071c5.119,2.418 10.815,2.555 16.312,3.405c7.587,1.235 14.511,3.846 20.864,8.214c3.934,2.651 7.112,5.217 11.856,6.306c4.694,1.098 9.576,0.962 14.322,1.662c13.608,1.992 27.078,0.689 40.776,1.373c5.358,0.273 10.626,2.28 15.843,3.613c4.784,1.235 9.389,1.512 14.226,2.226c6.971,1.098 14.651,6.306 22.05,3.228c4.267,-1.842 9.295,-7.06 11.619,-10.904c2.941,-4.64 4.458,-12.565 5.644,-17.781c1.848,-8.214 4.98,-19.064 9.626,-26.512c-2.278,2.747 -9.291,0.962 -12.33,1.098c-4.882,0.273 -10.194,1.235 -15.078,1.896c-1.8,0.138 -3.039,1.098 -4.65,1.512c-2.608,0.689 -4.926,0.046 -7.539,0.273c-4.695,0.55 -9.626,1.896 -14.178,2.898c-7.021,1.523 -13.848,0.55 -20.865,2.747c-11.142,3.597 -23.236,4.505 -34.76,6.167c-18.114,2.555 -35.609,3.27 -53.869,3.27z" /> <path d="M464.178,66.717c-21.908,-8.781 -25.702,-18.408 -34.712,-22.005c-7.16,-2.797 -14.554,-6.588 -21.908,-8.814c-5.448,-1.7 -11.33,-3.638 -16.926,-4.736c-6.113,-1.235 -11.618,-0.684 -17.878,-0.273c-10.477,0.714 -22.331,-0.138 -32.482,2.898c-6.116,1.881 -12.186,1.278 -18.542,2.843c-21.909,5.503 -44.999,14.461 -62.07,29.208c-3.793,3.228 -8.109,5.367 -12.091,8.445c-4.549,3.559 -8.437,7.925 -12.895,11.619c-5.737,4.831 -10.577,7.343 -14.511,13.895c-3.127,5.163 -4.363,7.964 -5.977,13.8c-2.556,9.624 -6.589,17.786 -7.866,27.881c-1.559,12.094 2.321,25.418 -2.04,36.844c-1.707,4.42 -3.079,9.392 -5.167,13.608c-2.467,4.939 -3.652,10.202 -6.212,15.034c-3.368,6.313 -12.664,13.231 -15.794,19.825c-2.273,4.881 4.177,9.386 3.367,14.699c-0.901,5.883 -4.218,10.43 -6.162,15.978c-2.089,6.016 -3.746,11.333 -6.402,17.169c-6.969,15.503 -8.632,32.908 -13.089,49.127c-3.932,14.509 -5.785,30.634 -7.062,45.57c-0.476,5.116 -1.561,10.241 -1.946,15.362c-0.237,3.598 -7.058,7.346 -7.539,10.904c-0.474,3.363 5.455,6.879 4.645,10.053c-1.468,5.78 -1.797,11.809 -2.278,17.784c-1.232,15.363 -4.171,29.635 -7.112,44.715c-2.797,14.463 -5.501,29.02 -6.875,43.671c-0.709,7.682 3.083,14.272 1.331,21.674c-1.991,8.582 -1.801,17.015 -4.361,25.556c-6.684,22.143 -7.824,45.189 -12.9,67.713c-1.18,5.124 -3.18,10.291 -3.934,15.508c-0.476,3.228 -0.42,6.441 -1.422,9.573c-2.655,8.202 -7.301,15.931 -10.242,24.088c-5.97,16.508 -30.633,30.731 -40.209,45.382c-6.688,10.338 -11.759,22.34 -20.009,31.581c-3.888,4.366 -9.438,9.487 -14.418,12.661c-3.746,2.422 -6.827,2.103 -11.24,2.376c-6.161,0.427 -8.632,-1.043 -8.343,-7.868c0.331,-7.445 3.176,-15.228 6.354,-21.957c2.893,-5.982 6.496,-11.942 10.005,-17.544c4.458,-7.108 10.29,-12.902 14.466,-20.154c11.757,-20.723 26.881,-39.122 34.663,-61.979c5.451,-15.972 5.213,-13.129 6.923,-24.94c1.418,-9.72 5.686,-18.634 8.012,-28.122c2.367,-9.671 4.122,-19.72 5.88,-29.496c1.989,-11.235 6.492,-21.943 8.012,-33.192c2.278,-16.736 5.024,-33.432 7.16,-50.214c1.138,-8.962 1.66,-18.36 3.412,-27.174c1.662,-8.2 4.318,-16.314 6.168,-24.512c4.74,-21.005 7.21,-42.536 11.094,-63.683c4.079,-22.194 11.238,-44.241 17.261,-66.009c8.725,-31.346 11.993,-60.267 22.475,-86.019c6.073,-14.936 8.349,-31.015 14.133,-46.045c4.883,-12.755 7.685,-26.175 11.952,-39.029c2.791,-8.439 9.528,-16.26 13.321,-24.513c3.13,-6.681 7.729,-12.091 12.042,-18.066c6.973,-9.678 17.071,-16.648 23.758,-26.701c4.98,-7.483 12.896,-12.469 19.394,-18.444c3.841,-3.555 7.636,-4.737 12.33,-6.825c5.782,-2.566 11.002,-6.55 16.834,-8.968c17.64,-7.405 36.228,-16.025 55.482,-16.123c4.882,-0.04 10.572,-0.688 15.412,-0.138c3.697,0.468 7.16,2.007 10.905,2.418c6.589,0.825 13.273,0.548 19.915,1.098c14.414,1.331 29.397,2.746 43.53,6.028c4.03,0.948 7.872,2.912 12.042,3.462c2.801,0.412 4.456,0 6.971,0.962c5.358,1.897 10.102,5.645 15.6,7.541c6.12,2.089 9.677,2.515 14.511,6.882c5.407,4.832 11.239,7.54 17.401,11.234c7.258,4.358 12.38,10.814 18.688,16.362c4.934,4.367 10.195,7.925 14.414,13.046c8.252,10.005 17.45,19.35 24.137,30.488c8.297,13.894 13.941,29.353 20.962,43.913c7.014,14.647 14.744,29.065 20.767,44.191c3.269,8.349 4.787,17.978 9.389,25.75c3.603,6.173 6.638,12.515 10.101,18.779c5.925,10.622 10.292,22.056 15.266,33.194c3.318,7.442 5.357,15.467 8.724,22.95c3.465,7.775 8.348,14.752 11.715,22.524c4.03,9.152 7.488,18.781 11.19,28.118c3.268,8.399 7.776,17.024 9.576,25.896c3.269,15.977 6.212,31.724 10.29,47.56c3.744,14.557 4.883,29.631 9.15,44.143c2.37,7.92 4.362,15.886 6.12,23.946c1.707,7.921 5.165,14.987 7.491,22.759c3.035,10.056 6.546,20.069 9.341,30.164c2.511,9.009 6.214,17.316 9.15,26.172c7.118,21.72 9.817,45.195 19.302,66.107c6.972,15.364 15.836,29.873 23.094,45.047c3.648,7.732 7.299,15.178 12.091,22.292c3.221,4.791 5.4,10.438 9.15,14.886c8.488,10.15 21.383,16.405 28.258,28.12c3.415,5.885 10.528,16.142 -1.656,15.318c-4.694,-0.329 -10.102,-1.745 -15.13,-2.843c-5.213,-1.139 -9.626,-3.94 -14.887,-5.313c-3.418,-0.851 -7.352,-1.47 -10.53,-2.939c-9.817,-4.744 -16.835,-13.464 -22.475,-22.336c-5.928,-9.343 -12.426,-19.34 -15.648,-29.874c-1.989,-6.444 -3.654,-13.13 -5.502,-19.49c-0.662,-2.278 -2.461,-5.589 -3.367,-8.157c-1.231,-3.406 -1.988,-6.964 -3.319,-10.384c-9.952,-25.99 -22.948,-50.879 -32.67,-77.056c-3.505,-9.488 -4.597,-17.124 -5.119,-26.985c-0.475,-7.964 -0.52,-15.691 -2.515,-23.424c-4.124,-15.791 -7.912,-32.197 -9.243,-48.509c-0.476,-5.733 -3.223,-10.623 -4.458,-16.171c-0.852,-3.79 -0.716,-7.964 -1.374,-11.754c-2.04,-11.759 -6.163,-22.865 -7.398,-34.757c-1.092,-10.293 -4.128,-20.059 -6.12,-30.209c-1.708,-8.822 -3.173,-17.873 -5.927,-26.414c-6.07,-19.111 -13.279,-38.032 -20.154,-56.857c-1.516,-4.132 -2.795,-8.445 -4.409,-12.523c-1.947,-4.694 -4.552,-8.156 -7.112,-12.523c-3.701,-6.352 -4.317,-14.55 -7.258,-21.336c-3.557,-8.159 -5.407,-16.75 -9.389,-24.756c-3.034,-6.03 -6.638,-11.713 -10.005,-17.592c-2.704,-4.683 -5.309,-9.008 -8.633,-13.224c-6.354,-8.06 -10.146,-17.927 -15.93,-26.414c-10.386,-15.364 -25.231,-28.405 -36.94,-42.867c-8.109,-10.054 -18.4,-17.453 -26.839,-27.218c-8.11,-9.386 -16.926,-18.632 -27.837,-24.896c-4.457,-2.597 -7.351,-3.872 -10.669,-7.91z" /></svg>