<svg xmlns="http://www.w3.org/2000/svg" viewBox="0 0 738 832" width="738" height="832"><path d="M69.384,82.729c-0.806,-0.296 -2.054,-0.394 -3.126,-0.394c-7.591,0.1 -16.12,1.063 -23.433,-0.294c-10.539,-1.73 -21.25,-1.355 -30.577,-6.898c-5.441,-3.12 -13.047,-9.606 -12.065,-16.919c0.276,-4.055 0.661,-8.939 2.566,-12.201c1.769,-2.702 0.973,-7.694 3.814,-9.739c2.947,-2.093 5.828,-2.388 9.463,-2.29c2.29,0 2.566,-0.854 4.471,-1.248c1.769,-0.59 4.057,0.098 5.689,0.098c1.768,-0.195 3.636,-0.588 5.129,-0.982c1.348,-0.552 2.732,-1.947 4.089,-2.045c1.73,0 4.716,1.787 5.925,2.181c7.87,2.703 15.736,5.504 24.128,6.486c6.62,0.696 13.663,2.181 20.315,3.674c3.362,0.521 6.213,1.357 9.327,3.126c2.181,1.218 4.332,1.602 6.652,2.29c8.112,2.565 16.224,5.964 24.37,8.942c6.619,2.566 12.585,6.104 18.962,9.327c11.51,6.099 24.51,8.292 37.095,11.406c16.778,4.195 32.761,9.465 49.019,15.705c17.613,6.76 35.881,12.169 53.215,19.482c20.04,8.253 38.344,19.103 57.168,29.92c7.972,4.479 15.706,8.801 23.539,13.833c9.22,5.965 18.545,12.067 28.323,17.335c10.158,5.549 20.834,10.708 31.409,15.288c10.296,4.33 20.73,9.088 31.408,12.202c17.748,5.132 36.156,7.589 53.907,13.278c9.743,3.223 19.622,6.213 29.4,9.327c10.4,3.257 19.898,9.361 29.778,13.97c22.464,10.159 46.039,19.622 66.632,33.177c7.039,4.574 14.769,6.483 22.327,10.157c3.81,1.602 6.799,4.444 10.434,6.349c6.103,3.006 12.726,1.355 19.103,3.4c6.76,2.29 13.133,4.196 19.482,7.037c5.025,2.145 9.911,4.187 14.352,7.313c4.09,2.703 9.495,3.263 13.278,6.486c1.926,1.494 4.05,3.263 2.32,5.444c-0.974,1.354 -2.328,1.354 -3.4,2.426c-1.955,2.153 -1.955,6.379 -2.152,9.081c-0.972,6.76 -1.396,13.663 -3.262,20.315c-1.633,5.408 -4.196,10.261 -5.828,15.705c-1.484,5.227 -5.307,1.73 -9.081,0.098c-7.035,-2.977 -14.494,-5.443 -21.667,-8.009c-4.054,-1.633 -8.526,-2.427 -12.446,-4.059c-3.538,-1.63 -6.104,-4.332 -9.778,-5.689c-3.087,-1.07 -6.201,-1.345 -9.327,-2.702c-2.181,-0.972 -3.783,-1.787 -6.24,-2.181c-4.612,-1.072 -7.972,-3.638 -12.031,-6.064c-1.757,-0.964 -3.251,-1.906 -4.883,-2.978c-1.355,-1.248 -2.288,-4.381 -3.4,-5.168c-1.87,-1.17 -7.974,-0.481 -10.4,-1.072c-11.129,-2.429 -21.666,-7.875 -32.657,-11.51c-13.796,-4.473 -28.149,-7.725 -41.427,-14.074c-9.636,-4.61 -19.381,-9.773 -28.323,-15.738c-7.038,-4.714 -13.241,-10.951 -20.975,-15.01c-10.575,-5.552 -22.743,-7.872 -34.01,-11.095c-15.151,-4.472 -29.781,-10.713 -44.688,-15.842c-18.545,-6.24 -36.954,-12.897 -54.01,-22.36c-6.657,-3.646 -13.004,-7.734 -19.795,-11.095c-7.28,-3.809 -14.733,-6.932 -21.77,-11.267c-12.343,-7.696 -23.575,-17.573 -37.13,-23.538c-14.074,-6.1 -27.215,-14.356 -41.289,-19.899c-8.806,-3.677 -18.166,-5.966 -26.833,-9.366c-7.038,-2.841 -13.936,-6.24 -20.697,-9.218c-19.24,-8.251 -40.077,-13.002 -59.871,-20.315c-13.936,-5.13 -28.014,-11.507 -41.567,-18.131c-6.24,-2.978 -13.557,-4.747 -18.825,-9.327c-2.986,-2.466 -6.239,-5.258 -10.159,-6.24z" /> <path d="M493.651,52.027c2.593,-2.153 4.883,-4.334 7.173,-6.624c3.262,-3.536 7.873,-6.099 10.575,-9.913c0.933,-1.081 1.651,-2.29 2.045,-3.783c0.097,-1.209 0.197,-2.563 0.491,-3.635c0.412,-0.973 2.887,-1.818 3.674,-2.605c2.987,-2.154 5.277,-4.856 8.255,-7.037c2.427,-1.63 5.277,-2.702 7.734,-4.471c4.579,-2.977 6.761,-8.53 11.37,-11.232c-0.196,0 0.297,0.974 -0.294,1.072c1.073,-1.602 2.702,-4.077 5.268,-3.783c2.181,0.139 3.399,2.427 4.471,4.059c5.408,7.733 10.433,15.846 16.537,22.744c2.702,3.263 6.485,5.58 9.463,8.667c2.566,2.977 5.405,6.379 8.285,9.081c3.087,2.85 4.992,4.197 1.73,7.597c-1.209,1.218 -2.29,1.308 -3.499,2.29c-1.1,0.836 -1.621,2.014 -3.114,2.605c0.935,2.996 -1.769,2.996 -3.674,3.783c-2.702,1.483 -5.54,3.251 -8.106,4.883c-7.314,4.057 -14.768,8.116 -21.666,12.863c-5.684,3.925 -12.065,7.56 -17.194,12.031c-6.902,5.685 -12.726,12.863 -19.103,19.24c-9.605,9.465 -18.965,18.964 -29.504,27.631c-8.424,7.036 -16.4,14.353 -25.481,20.73c-5.825,3.78 -11.235,8.252 -16.778,12.447c-29.259,22.082 -60.53,41.705 -91.835,60.667c-12.722,7.838 -24.891,16.399 -38.307,23.16c-7.035,3.504 -13.556,8.527 -21.25,10.953c-2.466,0.827 -5.308,1.533 -7.734,2.32c-8.53,3.64 -15.563,11.088 -23.16,16.12c-5.549,3.498 -10.951,6.897 -15.983,11.232c-10.296,8.944 -21.945,15.016 -33.593,21.807c-13.138,7.697 -24.37,18.273 -36.817,27.215c-10.297,7.315 -20.317,14.768 -30.335,22.187c-3.677,2.73 -8.009,5.295 -10.575,9.354c-2.144,3.39 -3.638,8.382 -7.833,9.739c-1.769,0.805 -2.978,0.805 -4.471,1.493c-1.633,0.786 -2.193,1.67 -4.059,0.688c0.1,-2.466 -2.181,-3.959 -3.674,-5.689c-2.846,-4.099 -6.376,-4.62 -10.159,-7.734c-4.995,-3.777 -7.312,-10.432 -12.168,-14.352c-3.676,-3.117 -7.567,-5.022 -7.076,-10.575c0.276,-3.361 2.742,-4.856 5.444,-6.761c2.841,-1.769 5.404,-3.783 7.97,-6.24c3.253,-2.702 6.24,-5.552 9.218,-8.53c4.194,-4.196 9.605,-4.756 14.873,-7.458c4.745,-2.426 9.777,-5.404 14.248,-8.53c5.823,-4.198 10.814,-9.602 16.918,-13.937c6.485,-4.753 13.659,-8.251 19.624,-13.695c9.501,-8.388 19.656,-15.701 30.335,-22.187c11.507,-7.038 23.85,-13.693 34.146,-22.36c6.622,-5.408 13.14,-11.647 20.559,-15.842c2.182,-1.345 4.087,-2.563 6.377,-3.635c1.629,-0.688 2.563,-1.757 4.195,-3.114c5.166,-4.615 10.301,-9.224 15.184,-13.833c4.849,-4.333 9.469,-8.528 14.352,-12.863c1.875,-1.73 3.784,-4.047 6.21,-5.404c3.126,-1.633 6.516,-2.842 9.778,-4.335c8.667,-4.747 17.581,-8.942 26.002,-13.798c7.836,-4.747 15.43,-10.154 23.263,-15.322c12.896,-8.387 24.65,-18.404 37.928,-26.659c9.636,-5.965 19.381,-11.649 28.323,-18.686c18.688,-14.249 36.817,-28.981 54.568,-44.444c3.78,-3.224 7.456,-6.339 10.817,-9.601z" /> <path d="M29.542,65.788c-3.675,-0.697 0.385,0.974 2.29,1.072c1.769,0 4.057,0.678 5.689,1.072c1.345,0.413 2.426,1.751 3.635,2.045c1.906,0.658 2.594,0.748 4.226,1.73c1.345,0.696 2.653,1.356 3.635,2.741c1.376,1.866 0.785,3.223 0.982,5.404c0.136,0.657 0.954,0.982 1.248,1.769c0.296,0.933 -0.098,2.427 -0.098,3.499c0,3.535 -0.689,8.802 0.098,12.202c0.933,3.223 3.223,4.993 3.223,8.667c0.296,4.196 0.493,8.528 -0.098,12.863c-1.358,11.649 -5.259,23.16 -5.553,34.945c-0.137,6.62 -0.137,12.859 -1.346,19.483c-0.845,4.472 -0.65,8.944 -1.632,13.553c-0.934,5.133 -2.468,9.884 -2.566,15.152c-0.393,6.897 -0.393,13.969 0.394,20.73c1.08,7.454 1.08,14.765 2.152,22.223c1.217,7.696 1.807,15.284 1.905,23.018c0.276,17.335 2.388,34.529 2.29,51.864c-0.137,12.167 1.926,24.37 2.32,36.4c0.59,16.952 -0.098,33.869 -0.098,50.787c0,9.36 -0.136,17.888 -1.493,27.215c-1.081,7.177 -0.56,14.249 -1.769,21.147c-2.977,15.564 -2.977,30.852 -4.609,46.315c-1.444,13.799 -2.132,27.49 -2.426,41.289c0,6.103 -0.098,12.344 0,18.408c0.285,5.442 1.357,10.716 1.357,16.12c0,6.102 0.942,12.478 -1.072,18.167c-2.199,6.066 -0.688,11.791 -0.294,17.992c0.794,10.712 2.563,21.666 5.129,31.962c2.751,9.88 1.867,19.761 1.769,29.779c0,7.313 0.815,14.769 1.209,22.082c-1.208,-1.875 -4.198,-2.938 -6.064,-3.92c-2.045,-0.936 -3.95,-1.769 -6.24,-2.841c-4.362,-2.181 -3.674,-4.059 -3.674,-8.942c0,-6.102 -0.227,-12.067 0.982,-17.992c0.785,-3.811 0.785,-9.079 0.294,-13.138c-0.136,-1.484 -1.15,-2.457 -1.248,-4.089c-0.296,-1.354 0.196,-2.848 0.098,-4.441c-0.247,-2.045 -1.464,-3.678 -2.152,-5.583c-0.815,-2.978 -1.012,-6.074 -1.209,-9.188c-0.974,-9.88 -2.809,-19.899 -3.4,-29.953c-0.492,-9.049 0,-18.273 -0.098,-27.215c0,-7.559 -0.196,-15.009 0.591,-22.743c1.632,-15.149 2.054,-30.195 2.841,-45.484c0.294,-8.665 0,-17.229 0,-25.896c0,-8.392 1.111,-16.64 1.209,-25.032c0.285,-9.361 -0.56,-18.304 1.072,-27.631c1.08,-7.177 2.809,-14.219 3.4,-21.392c0.659,-7.733 2.967,-15.042 3.361,-22.639c0.394,-6.482 0,-13.108 0,-19.76c0,-18.134 -0.109,-36.022 -2.014,-54.152c-1.217,-11.79 -0.833,-23.713 -1.905,-35.64c-0.936,-9.185 -2.841,-18.414 -2.841,-27.768c-0.097,-9.465 0.491,-18.786 -0.491,-28.152c-0.688,-7.87 -1.394,-15.841 -2.181,-23.575c-2.308,-28.15 0.296,-56.335 0.394,-84.624c0.137,-5.824 -0.974,-11.508 -1.072,-17.473c-0.098,-4.477 0,-9.086 0,-13.695v-9.601v0.787z" /> <path d="M134.532,357.267c-0.294,-0.972 -0.491,-1.915 -0.982,-2.702c2.288,-1.818 11.374,-7.734 14.215,-2.605c1.493,2.979 0,7.872 -0.688,10.713c-2.388,12.064 -2.881,23.816 -2.29,36.159c0.137,4.608 1.209,8.943 1.209,13.659v8.561c-0.14,5.687 0.923,11.75 1.905,17.439c1.345,7.315 3.144,14.632 3.635,21.945c0.688,5.546 2.222,10.986 2.32,16.675c0.382,5.686 0.942,11.09 2.014,16.918c0.805,4.75 1.493,10.3 1.493,15.047c-0.098,9.743 0,19.764 0,29.503c0,2.181 0.294,4.471 0,6.516c-0.137,2.004 -1.111,3.635 -1.209,5.404c-0.493,3.253 0.196,6.103 -0.591,9.081c-1.729,7.039 -1.209,14.077 -2.841,20.975c-1.069,5.269 -0.657,10.435 1.357,15.427c1.629,4.475 3.507,8.67 4.195,13.417c0.786,8.146 0.098,16.68 0.098,24.786c0,12.722 -0.493,25.585 0.294,38.307c0.56,7.593 0.982,15.053 1.769,22.639c0.431,4.747 0.195,9.188 -0.787,13.659c-1.248,6.656 -2.457,12.754 -2.457,19.378c0.14,7.592 1.209,14.216 2.566,21.529c0.973,4.054 0.699,8.112 2.045,11.926c1.063,3.124 1.751,5.965 2.045,9.188c0.936,8.283 2.154,16.394 4.856,24.266c0.824,2.845 5.404,9.055 2.181,10.264c-2.182,0.834 -8.944,-2.673 -11.37,-3.361c-2.842,-1.073 -5.289,-1.633 -5.583,-4.747c-0.197,-1.08 0.098,-2.288 0,-3.4c-0.285,-1.354 -0.778,-1.738 -1.072,-2.947c-0.657,-2.593 -2.032,-5.58 -2.426,-8.421c-0.548,-5.683 0.963,-10.958 1.357,-16.362c0.136,-5.166 -1.455,-9.878 -1.357,-15.046c0.137,-7.455 -2.222,-14.496 -2.32,-21.945c-0.109,-8.391 -0.963,-16.777 -1.357,-25.169c-0.885,-12.722 -0.787,-25.343 -0.787,-38.065c0,-6.1 0.098,-12.307 0,-18.547c0,-7.038 -1.258,-13.835 -2.045,-21.008c-1.915,-16.918 -1.07,-33.835 -2.702,-50.65c-0.658,-6.344 -2.584,-12.441 -2.978,-18.79c-0.788,-8.008 -0.197,-16.399 -0.394,-24.545c0,-13.798 2.475,-27.872 0.982,-41.567c-1.366,-14.768 -0.09,-29.499 -1.072,-44.131c-0.836,-11.232 -2.671,-22.223 -3.262,-33.455c-0.196,-8.669 0.689,-17.333 -0.098,-25.863c-0.491,-4.888 -0.982,-9.499 -0.982,-14.215c0,-4.888 1.859,-10.85 1.072,-15.842z" /> <path d="M568.564,45.273c1.395,-0.391 1.395,-0.688 1.493,-0.982c1.62,-0.521 7.439,1.1 6.652,-2.014c-0.227,6.207 0.884,12.032 0.982,18.272c0.139,4.341 1.926,8.112 2.32,12.447c0.197,3.533 0,7.317 0,10.991v17.193c0,5.825 0.689,12.199 -0.098,18.027c-1.907,12.722 -4.059,25.585 -5.307,38.307c-0.678,6.76 -0.09,13.415 -1.072,20.176c-0.658,5.272 -1.308,10.715 -2.29,15.983c-0.591,3.774 0.097,7.736 -0.591,11.371c-0.294,2.045 -0.688,4.059 -0.982,6.104c-0.196,5.409 0.884,10.956 -0.098,16.4c-1.67,8.77 -0.982,17.856 -0.982,26.937c0,10.433 -0.511,20.972 0.982,31.13c0.706,4.468 0,8.143 1.493,12.202c1.073,3.504 2.191,7.318 2.978,10.817c1.081,4.75 2.711,9.222 3.783,13.831c0.824,3.783 2.426,7.312 3.114,11.232c0.787,4.611 0.982,9.358 1.769,14.074c0.65,5.167 1.041,10.295 1.632,15.463c1.069,9.742 0.381,20.318 -1.112,30.057c-2.428,18.13 -12.447,34.667 -12.447,53.075c0.294,10.159 -0.297,20.455 0.294,30.752c0.795,15.288 2.152,30.473 2.152,45.898c0,14.632 1.357,30.474 -3.635,44.41c-2.426,7.314 -4.883,14.216 -6.652,21.529c-1.209,5.441 -3.263,9.778 -3.361,15.321c-0.148,12.306 1.503,24.371 1.209,36.539c0,5.962 -2.192,11.264 -2.29,16.953c-0.294,6.204 0,12.443 0,18.547v23.575c0,4.191 -0.296,8.388 0.098,12.583c0.195,3.366 1.276,6.904 0.982,10.539c-0.137,2.318 -1.111,4.608 -1.209,7.213c-0.284,3.498 1.307,6.761 1.209,10.122c0,1.908 0.098,3.962 0,5.828c0,2.741 0.915,4.756 1.209,7.597c0.394,3.126 -0.294,6.241 0,9.503c0.588,3.64 2.094,7.699 0.982,11.649c-3.117,0 -4.856,2.004 -7.558,3.361c-1.112,0.718 -3.95,2.191 -5.307,1.209c-2.045,-1.352 -0.688,-11.885 -0.688,-14.49c0,-9.048 -1.063,-17.856 -2.045,-26.937c-1.063,-11.233 -1.259,-22.223 -1.357,-33.593c0,-4.192 0.669,-8.252 1.357,-12.447c0.422,-3.776 0.422,-7.865 1.209,-11.785c1.181,-7.834 0.787,-15.984 0.787,-23.817c0,-13.001 -2.671,-25.206 -3.262,-37.928c-0.56,-8.943 0.974,-17.472 1.072,-26.278c0.099,-8.945 0.099,-17.613 0.787,-26.28c1.482,-18.13 3.084,-35.602 8.106,-53.075c2.703,-8.807 6.38,-20.453 4.335,-29.641c-0.099,-0.836 -0.689,-1.396 -0.787,-2.605c-0.197,-0.933 0.099,-1.444 0.197,-2.426c1.063,-7.038 1.063,-13.795 2.045,-20.871c2.151,-19.07 2.84,-38.726 6.24,-57.688c1.603,-9.602 2.281,-19.065 1.209,-28.705c-1.072,-9.88 -1.072,-20.04 -2.841,-29.779c-3.526,-19.381 -4.195,-38.585 -4.883,-58.103c-0.56,-11.371 -1.817,-22.744 -2.014,-34.114c-0.394,-10.851 0,-21.528 0,-32.241c0,-20.177 -0.394,-40.491 0,-60.667c0.109,-11.786 2.014,-23.019 3.223,-34.529c1.002,-9.605 1.002,-19.244 1.493,-28.983c0.688,-9.464 2.72,-18.966 3.114,-28.567c0.276,-6.796 0,-12.338 2.29,-18.687z" /> <path d="M676.642,329.361c0.66,0.274 4.58,1.444 8.806,2.426c0.097,1.348 1.111,1.859 1.209,2.841c0.196,1.11 0.098,2.19 0.098,3.262v9.218c0,3.647 0.943,5.69 1.73,9.051c1.082,4.33 0.688,9.361 0.688,13.97c0,6.207 0.65,11.512 1.632,17.752c1.179,8.112 0.491,16.775 0.491,25.03c0,9.22 0.196,18.689 0.098,27.907c-0.385,9.88 -2.566,19.241 -4.059,28.842c-1.915,11.923 -1.915,24.092 -2.702,36.018c-0.227,5.825 -0.227,11.646 -1.209,17.335c-0.943,4.893 -2.613,9.6 -3.4,14.632c-0.588,5.129 -1.573,10.435 -0.982,15.703c0.294,4.055 2.191,7.977 0.982,11.927c-0.797,3.117 -2.192,5.544 -2.29,8.806c-0.394,5.408 0,10.818 0,16.086v45.658c0,7.177 0.294,14.494 0,21.667c-0.137,2.143 -1.012,3.638 -1.209,5.543c-0.421,2.429 0,5.277 -1.493,7.597c-1.063,1.878 -1.454,2.29 -2.045,4.335c-0.286,1.867 -1.365,3.497 -2.152,5.129c-1.62,3.918 -2.838,8.144 -6.652,10.434c-0.589,-1.494 -0.098,-4.057 -0.098,-5.689c-0.098,-3.394 -0.098,-6.618 0,-9.88c0,-7.314 -1.209,-14.216 -1.209,-21.529c0,-13.141 0.394,-26 0.688,-38.863c0.296,-6.381 0.394,-12.754 0.394,-19.103c0.136,-7.455 1.248,-14.487 1.248,-21.945c0,-9.36 -0.09,-18.402 0.982,-27.768c0.786,-7.592 0.098,-15.422 0.098,-23.019v-45.482c0,-8.15 1.111,-15.983 1.209,-23.992c0.274,-14.872 2.25,-29.5 2.152,-44.546c0,-9.223 0.511,-18.273 1.493,-27.354c0.7,-8.25 3.263,-16.127 4.335,-24.233c1.309,-9.223 1.112,-18.414 1.112,-27.768z" /> <path d="M363.797,219.097c4.191,-3.371 7.593,-4.335 10.019,-1.878c2.339,2.284 1.455,6.619 1.357,9.881c-0.137,3.124 -1.111,5.965 -1.209,9.188v7.734c0,3.114 0.098,6.24 0.098,9.354c-0.136,3.366 -1.118,6.618 -1.905,10.018c-1.181,6.207 -0.394,13.138 -0.394,19.624c0,4.472 -0.098,8.944 0,13.553c0,4.611 0.974,9.052 1.072,13.799c0.136,4.752 1.915,9.224 2.702,13.833c1.217,5.27 0.933,10.535 2.426,15.703c2.702,9.881 5.544,19.761 7.449,29.779c2.181,11.785 2.181,23.572 2.181,35.498c0,8.666 0.373,17.193 -1.493,25.723c-0.548,3.126 -1.807,5.964 -1.905,9.051c0,1.346 0.098,2.733 0.098,4.226c0,5.928 -3.077,11.749 -4.059,17.577c-1.769,10.991 -2.939,21.528 -2.841,32.519c0,5.409 -1.111,10.673 -1.209,16.362c-0.294,6.797 0,13.694 0,20.455c0,5.167 -0.098,10.295 0,15.463c0.107,5.546 1.858,10.819 2.152,16.362c0.943,12.48 2.613,24.924 3.4,37.371c0.57,5.582 -0.393,10.156 -0.787,15.6c-0.491,4.471 0.098,8.803 0,13.138c-0.52,8.528 -2.379,17.055 -3.361,25.447c-0.688,6.24 -1.1,11.928 -2.457,17.992c-1.347,5.721 -3.361,11.512 -4.609,17.231c-1.758,8.908 -2.152,17.33 -2.152,26.242v11.129c-0.274,8.391 1.661,15.978 2.152,24.233c0.392,6.897 -0.394,14.075 0.294,21.112c0.413,4.197 1.454,8.148 2.045,12.343c1.032,12.03 -0.827,23.958 2.014,35.743c0.688,2.984 5.177,9.315 0.294,10.297c-1.493,0.294 -2.978,0.491 -4.471,0.982c-1.739,0.294 -3.087,0.294 -4.58,0c-2.978,-0.935 -5.325,-0.935 -5.719,-4.335c-0.394,-3.259 0,-6.896 0,-10.296c0,-15.567 -0.098,-30.992 0,-46.697c0,-7.73 -2.436,-15.603 -3.223,-23.297c-1.209,-12.584 2.288,-25.722 3.92,-38.065c0.56,-5.545 1.632,-10.814 1.632,-16.258c-0.098,-5.684 0,-11.09 -0.098,-16.779c0,-5.686 0.778,-11.09 1.072,-16.918c0.492,-6.656 0.098,-13.275 0.098,-19.899c0,-16.398 1.523,-33.593 -0.491,-49.991c-0.885,-6.622 -0.689,-13.415 -0.591,-20.039c0,-8.113 -0.297,-16.256 0.294,-24.511c0.385,-11.092 2.535,-22.083 3.126,-33.315c0.394,-9.36 0,-18.541 0,-27.907c0,-19.482 -0.827,-38.723 -2.32,-57.963c-0.766,-12.722 -0.57,-25.447 -1.357,-38.169c-0.559,-9.223 -2.054,-18.413 -2.152,-27.631c0,-14.49 0,-28.98 1.072,-43.195c0.785,-11.927 -0.1,-23.713 0.294,-35.362c0.384,-10.538 1.072,-20.972 1.072,-31.546c-0.098,-7.455 -0.098,-14.878 -0.098,-22.327c0,-2.044 -0.588,-5.827 0.394,-7.872c0.294,-0.294 0.588,-0.294 0.982,-0.294z" /></svg>