<svg xmlns="http://www.w3.org/2000/svg" viewBox="0 0 1004 704" width="1004" height="704"><path d="M1.045,702.958c-0.585,-0.585 -1.062,-87.639 -1.062,-193.452v-192.391h117.531c104.869,0 117.801,0.27 120.02,2.489c2.24,2.24 2.448,21.368 2.085,193.048l-0.402,190.559l-118.556,0.404c-65.205,0.224 -119.036,-0.072 -119.62,-0.657zM88.253,693.931c1.263,-1.524 1.677,-12.975 1.379,-38.295l-0.424,-36.121l-22.094,-0.443c-19.397,-0.389 -22.336,-0.11 -24.083,2.275c-2.761,3.777 -2.844,70.108 -0.094,72.859c2.862,2.862 42.915,2.616 45.315,-0.278zM198.638,694.209c1.358,-1.358 1.896,-11.534 1.896,-35.8c0,-29.332 -0.352,-34.294 -2.613,-36.793c-2.272,-2.51 -5.246,-2.888 -22.704,-2.888c-15.756,0 -20.508,0.501 -22.017,2.323c-1.403,1.689 -1.877,11.857 -1.747,37.301c0.1,19.238 0.567,35.602 1.04,36.366c1.361,2.206 43.907,1.736 46.151,-0.508zM23.411,692.468c1.117,-1.348 1.865,-18.928 2.167,-51.046l0.46,-48.989l4.344,-6.562c6.308,-9.524 14.777,-13.355 31.394,-14.196c16.187,-0.82 22.158,0.84 31.359,8.718c12.225,10.464 12.575,12.254 12.612,64.47c0.037,46.818 0.685,52.134 5.839,47.855c1.651,-1.37 2.091,-11.839 2.091,-49.757c0,-53.587 -0.216,-54.919 -10.736,-65.819c-7.838,-8.124 -15.243,-11.698 -28.488,-13.752c-25.24,-3.916 -50.397,8.327 -57.305,27.891c-3.299,9.342 -3.097,99.611 0.226,101.712c3.131,1.981 4.021,1.904 6.034,-0.523zM135.789,645.167c0,-49.771 0.58,-54.177 8.397,-63.657c6.739,-8.179 12.615,-10.159 30.139,-10.159c17.48,0 21.716,1.301 29.893,9.174c10.713,10.316 10.53,9.224 10.53,62.541c0,45.238 0.18,48.283 2.917,49.748c2.008,1.073 3.483,0.994 4.736,-0.259c2.569,-2.569 2.536,-92.397 -0.037,-100.979c-2.351,-7.849 -12.377,-19.319 -20.84,-23.839c-5.406,-2.888 -8.815,-3.439 -19.941,-3.232c-16.442,0.306 -33.61,4.121 -41.257,9.17c-3.493,2.305 -7.343,7.024 -9.871,12.093l-4.142,8.311v48.564c0,44.499 0.23,48.692 2.745,50.1c6.298,3.526 6.727,0.475 6.727,-47.581zM24.461,472.657c0,-44.856 0.177,-47.752 3.325,-54.479c1.829,-3.91 4.67,-8.279 6.318,-9.717c7.412,-6.463 37.822,-11.273 48.659,-7.695c7.926,2.615 16.558,10.434 20.081,18.189c2.566,5.647 2.882,11.281 2.933,52.124c0.031,25.186 0.705,46.815 1.492,48.063c1.189,1.878 1.862,1.913 3.922,0.203c2.162,-1.796 2.49,-8.156 2.49,-48.506c0,-50.054 -0.183,-51.377 -8.884,-63.98c-7.084,-10.258 -13.781,-13.641 -30.762,-15.535c-21.958,-2.448 -35.075,1.15 -47.048,12.898c-10.852,10.65 -11.138,12.348 -11.175,66.2c-0.017,26.561 0.468,48.8 1.084,49.416c0.616,0.616 2.569,0.911 4.342,0.657c3.163,-0.454 3.223,-1.348 3.223,-47.834zM134.83,518.325c0.527,-1.373 0.959,-23.425 0.959,-49.003c0,-51.634 0.254,-53.193 10.038,-61.782c8.118,-7.127 20.73,-10.51 33.964,-9.104c17.353,1.841 25.965,6.826 31.95,18.499c2.755,5.369 3.008,9.796 3.03,52.902c0.015,27.176 0.663,48.043 1.535,49.41c1.171,1.833 2.144,1.975 4.318,0.619c2.577,-1.606 2.844,-5.715 3.229,-49.679l0.419,-47.928l-4.054,-8.289c-7.277,-14.869 -19.839,-22.015 -41.67,-23.699c-18.219,-1.403 -28.433,2.047 -39.823,13.456c-5.924,5.934 -9.495,11.046 -10.651,15.242c-1.083,3.927 -1.744,23.764 -1.748,52.428c-0.008,42.257 0.224,46.246 2.756,47.722c3.798,2.212 4.646,2.096 5.753,-0.792zM87.021,495.722c2.755,-3.405 3.014,-5.994 2.622,-26.054l-0.435,-22.276l-21.891,-0.441c-14.796,-0.298 -22.6,0.149 -24.083,1.379c-2.599,2.156 -3.168,39.714 -0.7,46.201c1.953,5.132 4.023,5.58 24.316,5.252c15.986,-0.259 17.32,-0.527 20.177,-4.056zM200.455,498.018c1.392,-1.677 1.59,-8.146 0.757,-24.546c-1.398,-27.537 -0.809,-26.869 -23.826,-26.869c-17.486,0 -23.458,1.402 -24.861,5.832c-0.497,1.568 -1.066,11.833 -1.267,22.809c-0.27,14.79 0.182,20.614 1.751,22.501c2.954,3.559 44.52,3.799 47.446,0.272zM227.26,355.944c1.228,-1.48 1.307,-2.563 0.234,-3.229c-0.888,-0.549 -49.361,-0.996 -107.714,-0.99c-104.561,0.008 -114.203,0.449 -107.152,4.909c1.414,0.895 44.424,1.5 107.569,1.513c88.666,0.023 105.506,-0.325 107.063,-2.206zM43.212,339.025c1.417,-7.09 1.179,-12.866 -0.645,-15.593c-2.501,-3.735 -6.264,2.423 -6.264,10.25c0,9.961 5.184,13.972 6.909,5.343zM89.672,333.429c0.325,-5.479 -0.242,-8.5 -1.843,-9.829c-1.867,-1.55 -2.463,-1.372 -3.115,0.93c-2.472,8.751 -2.756,13.415 -0.942,15.596c3.302,3.977 5.407,1.587 5.899,-6.698zM138.909,334.479c0.819,-1.48 0.245,-4.438 -1.524,-7.854l-2.833,-5.481l-1.744,6.276c-4.12,14.841 -0.506,19.025 6.1,7.058zM152.453,337.48c2.085,-4.033 2.198,-5.707 0.639,-9.477c-1.041,-2.515 -2.401,-4.575 -3.018,-4.575c-1.968,0 -4.398,13.765 -2.902,16.439c1.923,3.438 2.372,3.234 5.281,-2.388zM167.462,336.387c2.482,-8.289 1.507,-13.747 -2.459,-13.747c-2.534,0 -3.259,1.221 -3.663,6.166c-0.591,7.233 0.734,13.573 2.841,13.573c0.819,0 2.294,-2.696 3.282,-5.99zM182.877,335.301c0.279,-3.325 0.039,-7.887 -0.523,-10.14c-0.995,-3.956 -1.106,-3.992 -3.269,-1.033c-2.294,3.137 -3.108,15.279 -1.154,17.232c2.327,2.327 4.463,-0.287 4.945,-6.056zM198.702,338.356c2.351,-5.164 2.244,-8.454 -0.437,-13.3c-2.16,-3.9 -2.16,-3.9 -4.01,2.976c-2.982,11.072 0.464,19.069 4.45,10.324zM29.115,335.044c1.106,-4.403 -1.632,-13.195 -4.106,-13.195c-2.741,0 -3.287,4.88 -1.331,11.87c2.12,7.574 3.768,7.977 5.437,1.326zM59.147,336.165c2.175,-4.208 2.143,-5.077 -0.355,-9.466c-3.203,-5.627 -4.533,-6.027 -5.883,-1.771c-0.919,2.896 1.659,15.868 3.152,15.868c0.38,0 1.766,-2.085 3.086,-4.634zM73.388,332.116c1.081,-7.369 -1.295,-12.612 -3.935,-8.685c-2.822,4.197 -3.361,8.7 -1.594,13.348c2.143,5.638 4.285,3.833 5.529,-4.66zM104.033,332.147c1.35,-4.998 1.249,-6.738 -0.501,-8.487c-1.881,-1.881 -2.558,-1.503 -4.68,2.591c-1.98,3.829 -2.129,5.797 -0.735,9.791c2.031,5.828 3.559,4.824 5.913,-3.897zM213.066,333.444c1.544,-6.127 1.467,-7.746 -0.459,-9.672c-2.03,-2.03 -2.613,-1.735 -4.761,2.423c-1.999,3.867 -2.107,5.638 -0.587,9.672c1.026,2.714 2.334,4.935 2.91,4.935c0.576,0 1.878,-3.311 2.899,-7.358zM248.299,352.249l0.399,-351.753l129.316,-0.403c94.227,-0.293 129.898,0.08 131.463,1.379c1.799,1.491 2.148,58.725 2.148,352.156v350.372h-263.72zM326.788,695.129c0.477,-0.477 0.864,-21.59 0.864,-46.922c0,-51.222 0.017,-51.127 -10.951,-60.759c-10.148,-8.912 -23.278,-9.777 -35.959,-2.371c-10.157,5.932 -11.858,10.581 -13.038,35.615c-0.583,12.381 -0.834,34.238 -0.559,48.571l0.501,26.054l7.895,1.047c8.653,1.148 49.858,0.155 51.245,-1.235zM409.408,694.732c0.732,-0.732 1.111,-22.215 0.844,-47.746c-0.473,-45.392 -0.566,-46.547 -4.149,-52.311c-7.1,-11.416 -17.938,-16.143 -31.299,-13.647c-9.432,1.763 -16.833,6.765 -21.014,14.203c-3.071,5.462 -3.241,8.285 -3.241,53.24v47.471l8.289,0.69c12.241,1.019 49.027,-0.363 50.565,-1.901zM491.27,695.207c0.773,-0.479 1.403,-21.456 1.403,-46.621c0,-50.791 -0.273,-52.458 -10.008,-61.005c-10.856,-9.532 -26.832,-9.972 -38.517,-1.058c-10.555,8.051 -10.692,8.835 -10.692,61.419v47.373l7.895,1.049c8.63,1.146 47.658,0.241 49.918,-1.156zM417.682,487.886c-0.507,-53.019 -0.67,-53.884 -12.227,-64.323c-13.81,-12.476 -27.427,-14.497 -41.619,-6.18c-8.252,4.835 -17.617,15.524 -19.283,22.009c-1.453,5.649 -1.162,93.748 0.314,95.222c2.987,2.987 3.878,-5.947 4.463,-44.589c0.552,-36.46 1.054,-43.61 3.473,-49.352c5.363,-12.733 17.144,-18.677 34.524,-17.419c8.055,0.582 9.895,1.381 15.021,6.504l5.842,5.838l0.423,47.746c0.408,46.217 0.526,47.834 3.717,50.499c1.812,1.514 3.861,2.405 4.549,1.98c0.688,-0.425 1.051,-21.996 0.804,-47.934zM432.692,514.111c0.074,-65.409 0.558,-74.901 4.063,-79.635c8.601,-11.622 29.585,-16.198 41.702,-9.101c6.409,3.757 11.934,11.331 14.193,19.46c0.879,3.164 1.59,24.474 1.596,47.786c0.008,34.633 0.402,42.224 2.224,42.923c1.216,0.468 2.639,0.424 3.159,-0.094c0.52,-0.518 0.93,-21.966 0.908,-47.658c-0.039,-52.519 -0.426,-54.671 -11.621,-64.499c-15.878,-13.941 -36.849,-14.328 -50.639,-0.939c-11.557,11.226 -11.853,12.854 -11.894,65.566c-0.037,46.791 0.095,48.039 5.099,48.565c0.652,0.07 1.195,-10.003 1.21,-22.38zM266.858,487.529c0.686,-40.279 1.157,-47.127 3.551,-51.507c3.544,-6.48 11.259,-12.28 19.629,-14.75c12.777,-3.776 28.615,3.251 34.634,15.371c2.657,5.351 3.074,11.05 3.776,51.805c0.677,39.303 1.127,45.796 3.159,45.796c2.052,0 2.37,-6.331 2.37,-47.502v-47.502l-4.78,-7.728c-14.118,-22.824 -46.835,-24.05 -62.299,-2.333c-1.84,2.582 -4.025,8.803 -4.857,13.822c-1.642,9.891 -2.14,88.127 -0.578,90.654c0.523,0.849 1.777,1.271 2.783,0.935c1.306,-0.435 2.054,-13.877 2.619,-47.064zM314.567,511.326c2.368,-2.922 2.822,-6.6 2.822,-22.735c0,-12.865 -0.629,-19.877 -1.896,-21.144c-2.69,-2.69 -34.293,-2.621 -35.151,0.08c-0.346,1.084 -0.929,11.138 -1.295,22.341c-0.615,18.714 -0.414,20.62 2.465,23.502c2.79,2.79 4.615,3.042 16.682,2.29c11.479,-0.717 13.977,-1.378 16.373,-4.331zM397.293,514.874c1.04,-0.694 2.12,-9.88 2.691,-22.831c1.183,-26.857 1.417,-26.494 -17.001,-26.494c-19.52,0 -20.4,1.011 -21.14,24.339c-0.809,25.487 -0.288,26.199 19.141,26.167c8.014,-0.015 15.351,-0.545 16.308,-1.183zM480.31,513.471c2.519,-2.28 2.888,-5.266 2.888,-23.37c0,-14.041 -0.612,-21.37 -1.896,-22.654c-1.186,-1.186 -7.09,-1.896 -15.791,-1.896c-19.895,0 -20.213,0.421 -20.213,26.768c0,24.311 -0.526,23.646 18.827,23.718c10.207,0.037 13.969,-0.559 16.187,-2.567zM501.271,388.779c1.964,-0.754 2.129,-1.469 0.725,-3.159c-1.514,-1.825 -21.819,-2.181 -123.607,-2.162c-66.986,0.015 -122.775,0.644 -123.971,1.403c-7.165,4.538 1.634,4.89 122.154,4.89c67.188,0 123.304,-0.437 124.7,-0.974zM349.052,368.83c0.046,-1.084 0.06,-21.159 0.031,-44.611c-0.061,-50.348 0.865,-55.159 12.16,-63.047c14.426,-10.077 37.765,-6.369 44.632,7.09c2.877,5.638 3.107,9.463 3.107,51.7c0,42.978 0.175,45.772 3.031,48.358c2.888,2.613 3.109,2.601 4.653,-0.282c0.989,-1.849 1.667,-20.384 1.739,-47.595c0.107,-40.783 -0.14,-45.154 -2.937,-51.475c-7.006,-15.839 -34.848,-26.351 -49.596,-18.724c-8.665,4.483 -13.757,8.919 -18.571,16.185l-4.644,7.012v47.629c0,26.197 0.474,48.103 1.051,48.681c1.772,1.772 5.259,1.172 5.346,-0.92zM431.905,368.83c0.394,-1.084 0.906,-22.938 1.136,-48.56c0.406,-45.293 0.517,-46.745 3.997,-52.338c4.527,-7.282 12.766,-11.276 24.845,-12.048c13.116,-0.838 22.045,3.922 27.595,14.705c3.966,7.706 3.988,7.981 4.329,53.585c0.317,42.813 0.526,45.84 3.159,45.84c2.63,0 2.844,-3.052 3.239,-45.709c0.469,-51.233 -0.261,-56.172 -9.783,-65.973c-7.729,-7.959 -14.669,-10.7 -27.092,-10.7c-17.93,0 -31.201,9.435 -35.316,25.115c-0.82,3.123 -1.989,25.375 -2.599,49.451c-0.87,34.392 -0.677,44.291 0.899,46.19c2.433,2.932 4.627,3.107 5.594,0.446zM266.858,320.93c0.531,-31.719 1.392,-48.284 2.627,-50.403c2.302,-3.955 9.781,-10.948 13.954,-13.046c10.203,-5.132 25.334,-3.438 33.937,3.801c10.027,8.436 10.203,9.4 11.07,60.567c0.677,40.004 1.125,46.584 3.159,46.584c2.04,0 2.426,-6.122 2.789,-43.952c0.439,-45.965 -0.188,-51.994 -6.363,-61.155c-11.958,-17.744 -39.122,-21.035 -55.028,-6.664c-7.728,6.98 -8.942,9.171 -10.951,19.749c-1.685,8.875 -2.206,88.832 -0.599,91.438c0.524,0.851 1.777,1.271 2.785,0.939c1.308,-0.435 2.053,-14.069 2.619,-47.853zM315.15,344.842c2.926,-4.005 3.218,-40.332 0.346,-43.203c-2.657,-2.657 -31.906,-2.588 -34.036,0.08c-0.866,1.084 -1.919,10.665 -2.336,21.291c-1.027,26.109 -0.989,26.157 18.849,25.438c12.587,-0.457 15.292,-1.024 17.177,-3.605zM396.38,345.827c3.295,-2.668 3.556,-4.204 3.728,-21.845c0.24,-24.569 0.506,-24.239 -19.432,-24.239c-9.781,0 -15.966,0.682 -17.177,1.896c-1.275,1.275 -1.896,8.466 -1.896,21.995c0,25.11 -0.037,25.064 18.099,25.064c10.339,0 13.888,-0.611 16.678,-2.867zM478.68,345.68c3.495,-2.828 3.759,-4.232 4.245,-22.601c0.416,-15.79 0.066,-19.96 -1.81,-21.519c-1.59,-1.318 -7.51,-1.788 -18.677,-1.48l-16.352,0.452l-0.993,20.53c-1.32,27.327 -1.134,27.636 16.645,27.636c10.648,0 13.934,-0.586 16.939,-3.016zM502.888,211.392c0.512,-0.825 -0.468,-2.247 -2.173,-3.159c-3.845,-2.058 -243.062,-2.283 -246.299,-0.232c-7.17,4.541 1.642,4.89 123.768,4.89c76.456,0 124.13,-0.574 124.702,-1.502zM349.507,146.36l0.281,-44.801l4.315,-7.363c6.21,-10.594 13.646,-14.719 26.569,-14.733c9.004,-0.008 11.171,0.589 16.319,4.516c12.022,9.161 11.974,8.918 11.981,59.581c0.006,42.433 0.188,45.32 3.02,47.885c2.862,2.591 3.06,2.581 3.878,-0.149c0.476,-1.583 1.016,-22.776 1.201,-47.096c0.361,-47.475 0.119,-49.263 -8.289,-61.07c-7.846,-11.017 -30.881,-15.942 -43.687,-9.339c-8.022,4.134 -15.38,12.169 -18.93,20.666c-2.69,6.441 -2.943,11.262 -2.709,51.451c0.144,24.39 0.812,45.238 1.488,46.327c3.372,5.452 4.297,-3.878 4.563,-45.874zM266.858,144.858c0.837,-49.211 1.204,-51.601 8.976,-58.636c4.989,-4.516 14.171,-7.558 22.811,-7.558c10.73,0 19.795,5.226 25.077,14.451c3.88,6.781 3.942,7.446 4.721,52.663c0.677,39.303 1.127,45.796 3.159,45.796c2.041,0 2.426,-6.32 2.789,-45.729l0.42,-45.729l-4.01,-8.201c-9.345,-19.1 -30.982,-26.406 -49.759,-16.804c-11.428,5.843 -17.01,13.19 -18.961,24.966c-1.67,10.073 -2.206,88.344 -0.621,90.909c0.523,0.849 1.777,1.271 2.783,0.935c1.306,-0.435 2.054,-13.877 2.619,-47.064zM432.664,147.229c0.843,-47.13 1.546,-51.436 9.787,-60.21c4.978,-5.298 15.824,-8.903 24.017,-7.98c10.59,1.194 17.462,6.271 22.575,16.682l4.417,8.998l0.506,43.819c0.281,24.328 1.135,43.819 1.92,43.819c3.907,0 4.681,-8.225 4.681,-49.693c0,-43.05 -0.048,-43.676 -3.845,-51.173c-4.07,-8.032 -12.874,-16.802 -19.33,-19.256c-2.13,-0.809 -8.269,-1.468 -13.643,-1.458c-17.234,0.028 -31.95,9.627 -35.754,23.326c-1.81,6.518 -2.327,95.47 -0.564,97.233c3.757,3.757 4.483,-2.354 5.231,-44.116zM314.369,168.895c2.591,-3.2 3.02,-6.368 3.02,-22.391c0,-23.758 0.112,-23.623 -19.659,-23.623c-9.862,0 -15.216,0.649 -16.275,1.975c-0.868,1.084 -1.918,11.138 -2.327,22.341c-0.968,26.296 -0.622,26.777 18.817,25.977c11.829,-0.487 13.763,-0.99 16.426,-4.278zM397.299,172.203c1.04,-0.692 2.105,-9.532 2.641,-21.907c1.203,-27.704 1.063,-27.913 -17.945,-27.172c-19.289,0.754 -19.453,0.957 -20.148,25.599c-0.701,24.789 -0.772,24.699 19.218,24.666c7.97,-0.015 15.277,-0.545 16.234,-1.183zM479.681,169.713c4.043,-4.035 4.995,-40.393 1.16,-44.228c-3.306,-3.306 -30.991,-3.824 -33.625,-0.633c-0.897,1.084 -1.865,11.291 -2.151,22.677c-0.673,26.689 -0.825,26.472 17.98,25.571c10.412,-0.499 14.593,-1.348 16.637,-3.387zM501.942,35.489c0.967,-1.165 1.293,-2.588 0.721,-3.159c-1.678,-1.678 -248.127,-1.238 -249.167,0.445c-2.678,4.329 8.059,4.739 125.681,4.787c99.347,0.039 121.32,-0.332 122.765,-2.073zM271.343,4.29c-3.445,-2.129 -6.3,1.762 -5.229,7.119c2.239,11.182 2.78,11.468 5.044,2.66c1.768,-6.881 1.805,-8.777 0.182,-9.779zM282.342,7.83c-0.639,-5.514 -3.284,-4.851 -5.066,1.268c-0.985,3.383 -0.794,6.219 0.621,9.2l2.041,4.307l1.444,-5.299c0.794,-2.915 1.227,-7.178 0.961,-9.476zM294.789,11.882c-0.97,-7.225 -2.286,-9.004 -4.307,-5.813c-1.689,2.668 -2.03,13.129 -0.479,14.68c2.591,2.591 5.58,-2.943 4.784,-8.869zM306.229,17.338c1.426,-3.447 1.418,-5.438 -0.039,-8.636c-2.427,-5.33 -4.048,-4.248 -5.374,3.591c-1.647,9.754 2.038,13.193 5.411,5.045zM316.635,6.392c-1.04,-4.151 -1.166,-4.197 -3.322,-1.249c-2.734,3.739 -2.877,9.395 -0.358,14.011c1.799,3.292 1.951,3.176 3.322,-2.503c0.791,-3.273 0.952,-7.893 0.358,-10.262zM329.967,13.224c-0.031,-1.788 -0.991,-4.937 -2.133,-7l-2.077,-3.746l-1.004,3.746c-1.359,5.076 -1.304,13.228 0.094,14.625c1.607,1.607 5.187,-3.726 5.121,-7.629zM353.708,17.077c1.585,-3.826 1.557,-5.715 -0.147,-9.829l-2.107,-5.088l-2.03,7.011c-3.185,11.004 0.321,17.474 4.285,7.907zM363.46,4.088c-1.315,-1.315 -2.361,-0.38 -4.035,3.603c-2.002,4.761 -1.967,5.924 0.303,10.147l2.563,4.769l1.472,-8.371c1.038,-5.891 0.947,-8.895 -0.303,-10.147zM376.641,16.668c1.09,-5.81 -1.568,-14.504 -3.977,-13.013c-1.808,1.117 -2.03,6.056 -0.596,13.228c1.28,6.396 3.35,6.298 4.572,-0.215zM387.351,16.429c1.018,-3.053 0.844,-5.682 -0.563,-8.586l-2.03,-4.187l-1.223,6.318c-1.775,9.167 -1.649,12.189 0.47,11.48c1.03,-0.345 2.536,-2.603 3.34,-5.022zM398.872,7.444c-2.053,-4.887 -2.212,-4.957 -3.908,-1.79c-0.973,1.815 -1.472,4.241 -1.116,5.388c0.356,1.147 1.158,4.219 1.775,6.826l1.122,4.736l2.132,-5.033c1.792,-4.23 1.79,-5.847 -0.008,-10.126zM409.572,16.879c1.436,-7.17 1.213,-12.11 -0.596,-13.228c-2.411,-1.491 -5.067,7.203 -3.977,13.013c1.222,6.511 3.295,6.607 4.572,0.215zM435.01,12.238c0.754,-4.015 0.4,-6.173 -1.233,-7.528c-1.876,-1.557 -2.641,-1.046 -4.262,2.866c-1.586,3.827 -1.577,5.723 0.05,9.643c2.286,5.519 3.724,4.208 5.443,-4.983zM446.816,17.23c1.549,-3.742 1.462,-5.416 -0.478,-9.081c-2.491,-4.707 -2.946,-4.286 -4.857,4.461c-0.974,4.458 0.171,9.205 2.214,9.205c0.67,0 2.074,-2.063 3.119,-4.587zM457.909,15.801c-0.028,-5.638 -1.623,-11.357 -3.166,-11.357c-0.682,0 -1.935,1.994 -2.785,4.428c-1.137,3.259 -0.949,5.568 0.71,8.731c2.663,5.081 5.272,4.183 5.242,-1.807zM470.565,13.722c0,-1.513 -0.761,-4.755 -1.689,-7.2c-1.503,-3.955 -1.863,-4.14 -3.251,-1.656c-0.886,1.579 -1.084,5.978 -0.458,10.137c1.003,6.683 1.296,7.083 3.251,4.409c1.183,-1.616 2.151,-4.177 2.151,-5.693zM480.85,13.773c1.404,-10.217 -1.027,-13.386 -4.747,-6.188c-2.175,4.208 -2.303,5.869 -0.732,9.655c2.735,6.606 4.224,5.665 5.481,-3.469zM492.515,9.671c0.22,-7.046 -2.635,-8.035 -5.253,-1.815c-1.912,4.549 -1.873,5.821 0.317,9.983l2.509,4.769l1.134,-3.947c0.622,-2.173 1.205,-6.216 1.293,-8.987zM519.905,525.952l0.402,-178.047l129.316,-0.403c94.227,-0.293 129.898,0.081 131.463,1.379c1.788,1.481 2.148,31.451 2.148,178.45v176.669h-263.73zM587.556,695.229c0.797,-0.49 1.443,-15.636 1.443,-33.765c0,-26.208 -0.446,-33.248 -2.206,-34.705c-1.444,-1.197 -7.854,-1.674 -18.554,-1.379l-16.352,0.452v69.482l5.528,1.074c5.931,1.153 27.757,0.314 30.141,-1.161zM670.03,694.664c1.04,-1.04 1.667,-13.679 1.696,-34.158c0.037,-26.775 -0.364,-32.761 -2.259,-33.96c-1.265,-0.799 -8.822,-1.467 -16.793,-1.48c-11.094,-0.017 -15.076,0.556 -16.977,2.459c-2.089,2.089 -2.479,7.389 -2.459,33.556c0.015,17.09 0.548,31.899 1.19,32.907c0.642,1.008 3.295,2.189 5.898,2.624c7.365,1.238 27.862,-0.11 29.704,-1.952zM753.311,695.264c2.324,-1.436 1.949,-65.982 -0.397,-68.327c-2.162,-2.162 -30.804,-2.644 -34.062,-0.574c-1.543,0.979 -1.909,9.092 -1.579,35.096l0.426,33.823l4.736,1.116c5.165,1.216 28.456,0.358 30.873,-1.137zM538.468,647.023c0.769,-45.26 0.886,-46.608 4.481,-52.39c8.74,-14.058 29.35,-19.005 42.609,-10.231c12.208,8.08 13.371,14.045 13.154,67.49c-0.086,21.28 0.48,39.708 1.26,40.957c1.203,1.92 1.815,1.939 4.011,0.116c2.318,-1.924 2.541,-7.024 2.096,-48.063c-0.556,-50.988 -0.49,-50.644 -11.732,-61.563c-16.423,-15.95 -42.876,-12.799 -56.621,6.745l-4.787,6.805l-0.484,46.66c-0.267,25.663 -0.088,47.691 0.396,48.953c0.484,1.262 1.766,1.997 2.854,1.635c1.493,-0.497 2.164,-11.931 2.763,-47.109zM620.582,649.391c0.725,-40.486 1.062,-44.672 4.102,-51.244c5.834,-12.602 19.448,-20.488 31.167,-18.049c8.145,1.696 17.888,8.179 21.84,14.536c3.596,5.784 3.712,7.123 4.481,52.52c0.677,40.004 1.125,46.584 3.159,46.584c2.053,0 2.37,-6.433 2.37,-48.427v-48.427l-4.78,-6.801c-7.638,-10.863 -16.385,-16.11 -28.018,-16.811c-15.043,-0.907 -27.567,5.974 -36.229,19.902c-3.514,5.649 -3.627,7.084 -4.12,51.365c-0.279,25.054 -0.1,46.612 0.396,47.9c0.496,1.288 1.788,2.052 2.874,1.689c1.491,-0.495 2.166,-11.457 2.763,-44.743zM703.441,690.971c0.445,-1.953 0.989,-23.095 1.216,-46.978c0.4,-42.325 0.501,-43.577 4.075,-49.319c10.251,-16.486 31.147,-19.735 45.557,-7.08c11.037,9.689 11.501,12.203 11.541,62.321c0.031,38.584 0.356,44.611 2.404,44.611c2.052,0 2.369,-6.093 2.36,-45.401c-0.006,-27.132 -0.683,-47.827 -1.685,-51.432c-2.183,-7.855 -10.885,-17.37 -19.861,-21.717c-17.749,-8.593 -44.228,3.127 -49.437,21.876c-1.788,6.441 -2.334,93.881 -0.597,95.619c1.981,1.981 3.625,1.052 4.428,-2.502zM538.468,487.529c0.875,-51.354 1.125,-52.682 11.446,-60.39c11.446,-8.548 25.009,-9.218 36.277,-1.794c11.578,7.628 12.668,13.481 12.905,69.205c0.162,38.584 0.257,39.694 3.328,39.694c3.099,0 3.15,-0.875 2.631,-47.372c-0.589,-52.982 -1.236,-56.559 -11.609,-64.472c-16.957,-12.931 -39.782,-11.26 -52.52,3.845c-8.531,10.117 -8.775,11.825 -8.775,61.102c0,25.071 0.49,46.072 1.084,46.668c3.783,3.783 4.483,-2.426 5.231,-46.482zM620.641,489.11c0.902,-47.765 1.344,-50.613 9.125,-58.834c14.482,-15.307 38.924,-12.381 48.911,5.858c2.327,4.249 2.819,11.501 3.496,51.53c0.677,40.004 1.125,46.584 3.159,46.584c2.04,0 2.426,-6.122 2.789,-43.952c0.249,-26.166 -0.226,-46.36 -1.183,-49.9c-5.044,-18.728 -23.524,-30.004 -43.138,-26.326c-8.337,1.565 -19.629,9.928 -24.431,18.101l-4.307,7.331l-0.485,45.605c-0.268,25.084 -0.089,46.637 0.396,47.9c0.485,1.263 1.767,1.999 2.855,1.64c1.491,-0.494 2.182,-11.657 2.822,-45.532zM703.319,532.536c0.527,-1.373 0.963,-21.093 0.967,-43.819c0.006,-25.275 0.688,-43.764 1.754,-47.603c3.592,-12.942 19.399,-22.946 32.808,-20.771c8.817,1.431 19.23,8.855 23.34,16.639c3.603,6.821 3.676,7.87 3.676,52.507c0,39.432 0.317,45.546 2.37,45.546c1.981,0 2.434,-3.816 2.765,-23.293c0.804,-47.396 -1.965,-77.391 -7.904,-85.587c-4.633,-6.397 -18.542,-12.711 -27.995,-12.711c-15.175,0 -31.8,11.642 -35.462,24.829c-1.811,6.527 -2.382,93.955 -0.622,95.713c1.73,1.73 3.287,1.205 4.307,-1.447zM585.62,512.247c3.342,-3.339 4.803,-40.706 1.736,-44.402c-2.459,-2.962 -31.465,-3.295 -34.361,-0.399c-1.282,1.282 -1.896,8.641 -1.896,22.786c0,26.575 0.015,26.593 18.651,25.429c9.331,-0.582 14.053,-1.599 15.869,-3.415zM669.131,514.111c0.859,-1.084 1.961,-11.391 2.448,-22.898c1.097,-25.955 1.293,-25.658 -16.982,-25.658c-19.638,0 -20.434,0.941 -21.146,24.965c-0.518,17.537 -0.314,19.175 2.761,22.248c2.877,2.877 5.198,3.319 17.34,3.319c9.33,0 14.541,-0.66 15.582,-1.975zM752.914,514.19c2.635,-2.635 2.635,-44.105 0,-46.744c-1.186,-1.186 -7.09,-1.896 -15.791,-1.896c-19.895,0 -20.213,0.421 -20.213,26.768c0,17.811 0.358,20.658 2.765,22.061c3.973,2.315 30.892,2.162 33.24,-0.19zM774.547,380.277c0,-2.083 -14.998,-2.417 -123.874,-2.774c-73.791,-0.24 -124.46,0.182 -125.325,1.048c-4.657,4.657 2.104,4.901 124.941,4.5c109.218,-0.357 124.258,-0.69 124.258,-2.773zM542.415,359.618c0,-6.551 -0.556,-8.553 -2.37,-8.553c-2.488,0 -4.245,11.47 -2.469,16.103c2.003,5.22 4.835,0.797 4.835,-7.551zM554.203,354.879c-1.843,-4.445 -2.252,-4.705 -3.284,-2.082c-1.55,3.953 -1.711,14.009 -0.248,15.472c0.633,0.633 2.162,-0.974 3.394,-3.579c1.887,-3.988 1.909,-5.529 0.137,-9.815zM566.083,356.507c-0.556,-2.54 -1.602,-4.982 -2.325,-5.429c-1.708,-1.054 -3.815,14.266 -2.302,16.716c1.975,3.196 5.77,-6.072 4.626,-11.291zM576.456,361.85c1.396,-6.067 0.702,-11.575 -1.458,-11.575c-0.634,0 -2.029,2.414 -3.095,5.362c-1.505,4.164 -1.52,6.279 -0.061,9.481c2.261,4.959 2.808,4.571 4.614,-3.269zM589.044,364.381c1.677,-4.043 1.612,-5.674 -0.38,-9.871l-2.387,-5.025l-1.656,7.739c-2.5,11.677 0.523,16.571 4.424,7.156zM599.856,367.092c1.997,-2.404 1.498,-10.038 -0.941,-14.394c-1.425,-2.545 -1.854,-2.184 -3.548,2.954c-1.939,5.873 -1.162,13.574 1.367,13.574c0.745,0 2.151,-0.96 3.125,-2.131zM624.636,365.338c2.153,-3.286 2.25,-4.789 0.625,-9.709c-2.151,-6.515 -3.573,-5.303 -5.342,4.546c-0.956,5.324 -0.336,9.053 1.511,9.053c0.363,0 1.807,-1.75 3.207,-3.889zM647.153,354.391l-2.047,-4.904l-1.755,7.895c-1.252,5.632 -1.271,8.52 -0.061,10.071c1.35,1.733 2.123,1.126 3.801,-2.99c1.733,-4.252 1.744,-6.033 0.061,-10.071zM659.083,364.852c1.983,-3.834 1.957,-5.054 -0.204,-9.871l-2.466,-5.495l-1.504,7.497c-1.377,6.859 -0.886,12.241 1.115,12.241c0.439,0 1.817,-1.968 3.061,-4.373zM682.221,355.141c-1.099,-2.654 -2.625,-4.437 -3.394,-3.962c-1.63,1.007 -1.808,9.243 -0.32,14.802l1.033,3.863l2.338,-4.94c1.942,-4.102 2,-5.759 0.341,-9.763zM718.51,355.068c-2.426,-5.856 -3.009,-5.484 -4.948,3.154c-1.084,4.824 -0.956,7.255 0.472,8.975c1.679,2.025 2.283,1.678 4.23,-2.437c1.888,-3.988 1.931,-5.623 0.246,-9.694zM729.244,358.784c-0.356,-5.594 -1.143,-7.721 -2.859,-7.721c-3.023,0 -4.068,10.35 -1.524,15.105c2.767,5.166 4.945,1.491 4.384,-7.384zM740.388,360.826c1.015,-5.429 0.846,-7.787 -0.643,-9.023c-3.219,-2.673 -6.149,7.878 -3.687,13.283c2.343,5.143 2.624,4.867 4.329,-4.26zM753.032,365.076c1.447,-3.177 1.459,-5.448 0.052,-9.709c-2.068,-6.265 -3.504,-4.953 -5.257,4.803c-1.66,9.241 1.761,12.466 5.205,4.907zM764.326,355.119c-3.9,-9.412 -6.924,-4.521 -4.424,7.156l1.656,7.739l2.387,-5.024c1.993,-4.197 2.055,-5.825 0.38,-9.871zM635.53,360.348c1.359,-9.048 -1.029,-12.336 -4.351,-5.991c-1.721,3.283 -1.92,5.578 -0.776,8.861c2.228,6.39 3.878,5.467 5.131,-2.866zM670.272,360.348c1.42,-9.466 -1.249,-12.636 -4.34,-5.164c-1.595,3.854 -1.773,6.35 -0.633,8.905c2.392,5.357 3.763,4.325 4.973,-3.745zM706.322,358.188c0.378,-7.905 -2.233,-9.857 -5.016,-3.748c-1.513,3.317 -1.522,5.251 -0.045,8.815c2.443,5.898 4.643,3.694 5.06,-5.066zM791.129,442.107c0,-252.128 0.108,-261.99 2.899,-264.515c2.652,-2.401 11.762,-2.591 106.198,-2.217l103.296,0.406l0.401,261.97c0.292,192.308 -0.072,262.538 -1.379,264.109c-1.463,1.764 -20.297,2.14 -106.596,2.14h-104.819zM882.916,695.194c0.76,-0.468 1.381,-21.447 1.381,-46.618c0,-42.754 -0.209,-46.173 -3.181,-52c-3.861,-7.569 -16.011,-15.051 -26.868,-16.543c-14.68,-2.019 -30.511,5.343 -36.518,16.983c-3.32,6.435 -3.469,8.586 -3.583,52.505l-0.122,45.796l9.477,1.032c10.361,1.128 57.193,0.218 59.417,-1.155zM980.882,695.157c0.729,-0.449 1.325,-19.581 1.325,-42.511c0,-37.813 -0.292,-42.479 -3.153,-50.125c-5.232,-13.987 -17.507,-23.271 -30.77,-23.271c-13.411,0 -25.801,8.031 -32.887,21.318c-3.137,5.88 -3.411,9.128 -3.966,47.04c-0.327,22.398 -0.165,42.44 0.361,44.538c0.873,3.472 1.917,3.878 11.605,4.479c12.712,0.79 55.606,-0.303 57.488,-1.467zM813.307,493.58c0.084,-54.765 0.941,-58.209 16.512,-66.448c9.587,-5.074 28.956,-4.813 39.348,0.531c9.003,4.626 13.206,9.684 15.198,18.273c0.789,3.405 1.454,25.204 1.474,48.437c0.023,26.417 0.615,42.243 1.579,42.243c0.849,0 2.668,-1.716 4.043,-3.812c2.158,-3.294 2.432,-9.714 2.009,-46.978c-0.459,-40.64 -0.688,-43.536 -3.883,-49.504c-7.399,-13.816 -17.757,-20.267 -35.509,-22.116c-15.483,-1.612 -25.526,1.743 -35.712,11.929c-13.228,13.228 -13.029,12.238 -13.029,64.268c0,25.13 0.474,46.162 1.051,46.741c0.577,0.579 2.356,1.051 3.947,1.051c2.737,0 2.899,-2.429 2.965,-44.611zM911.211,492.696c0.086,-54.759 0.794,-57.349 18.09,-66.325c15.734,-8.165 32.247,-4.879 45.796,9.114l6.318,6.523l0.869,47.696c0.479,26.232 1.01,47.9 1.183,48.146c0.173,0.246 1.736,-0.311 3.473,-1.238c3.043,-1.63 3.158,-3.303 3.151,-46.246c-0.006,-24.704 -0.71,-47.075 -1.58,-50.216c-2.085,-7.5 -11.437,-16.755 -21.797,-21.559c-7.219,-3.35 -10.181,-3.812 -21.318,-3.337c-14.356,0.614 -23.029,4.068 -32.467,12.93c-9.06,8.507 -9.461,10.751 -10.522,59.15c-0.958,43.622 -0.92,44.358 2.36,47.638c1.832,1.832 4.02,2.91 4.857,2.393c0.914,-0.567 1.548,-18.402 1.59,-44.667zM871.348,515.767c1.272,-1.272 1.896,-8.414 1.896,-21.756c0,-27.033 0.121,-26.879 -21.234,-26.879c-22.854,0 -23.148,0.288 -24.129,23.78c-0.459,11.019 -0.093,19.762 0.945,22.41l1.7,4.342h19.464c13.031,0 20.09,-0.626 21.357,-1.896zM968.817,516.023c1.761,-2.848 0.82,-44.538 -1.055,-46.8c-1.238,-1.491 -6.41,-2.096 -17.95,-2.096c-22.736,0 -23.043,0.303 -24.023,23.78c-0.459,11.019 -0.093,19.762 0.945,22.41l1.7,4.342h19.685c11.908,0 20.085,-0.648 20.697,-1.64zM993.065,396.222c7.028,-4.45 -1.518,-4.89 -95.344,-4.89c-93.826,0 -102.372,0.437 -95.344,4.89c1.196,0.758 44.104,1.38 95.344,1.38c51.24,0 94.148,-0.622 95.344,-1.38zM813.87,361.723c0.589,-4.994 0.598,-24.003 0.017,-42.243c-1.379,-43.467 0.79,-51.717 15.666,-59.628c5.308,-2.822 9.196,-3.504 20.125,-3.516c12.321,-0.017 14.238,0.411 21.175,4.718c13.724,8.523 14.163,10.367 14.658,61.585c0.235,24.318 0.82,45.282 1.303,46.584c0.703,1.901 1.477,1.634 3.918,-1.359c2.835,-3.477 3.042,-6.617 3.031,-46.584c-0.006,-25.298 -0.695,-45.326 -1.681,-48.879c-3.376,-12.161 -19.905,-23.755 -36.68,-25.724c-10.752,-1.263 -22.391,2 -34.7,9.73c-14.735,9.254 -14.469,8.102 -15.093,65.049l-0.543,49.349h3.867c3.529,0 3.958,-0.789 4.934,-9.081zM911.142,324.879c0.652,-37.014 1.24,-45.843 3.368,-50.403c5.748,-12.319 13.843,-17.113 30.999,-18.359c10.848,-0.787 13.001,-0.466 19.201,2.877c3.84,2.07 9.169,6.463 11.842,9.766l4.861,6.003l0.788,47.625c0.767,46.309 0.875,47.625 3.947,47.625c3.075,0 3.171,-1.205 3.614,-45.796c0.251,-25.186 0.062,-47.988 -0.418,-50.672c-1.29,-7.178 -10.267,-16.687 -20.79,-22.018c-7.849,-3.977 -11.05,-4.681 -21.096,-4.651c-13.437,0.039 -20.8,3.055 -31.906,13.061c-11.872,10.693 -12.542,13.853 -13.316,62.734c-0.611,38.496 -0.407,43.335 1.925,45.667c5.689,5.689 6.166,2.712 6.98,-43.456zM871.348,348.379c1.272,-1.272 1.896,-8.414 1.896,-21.756c0,-27.033 0.121,-26.879 -21.234,-26.879c-22.854,0 -23.148,0.288 -24.129,23.78c-0.459,11.019 -0.093,19.762 0.945,22.41l1.7,4.342h19.464c13.031,0 20.09,-0.626 21.357,-1.896zM966.412,347.116c3.132,-3.132 3.583,-7.861 3.57,-37.413c-0.006,-10.176 0.182,-10.098 -22.882,-9.612l-20.956,0.441v22.263c0,16.55 0.556,22.932 2.167,24.871c1.76,2.118 5.249,2.608 18.554,2.608c14.284,0 16.792,-0.406 19.545,-3.159zM992.004,208.455c1.227,-1.227 0.639,-1.968 -2.074,-2.626c-6.805,-1.655 -187.751,-0.175 -187.759,1.535c-0.015,2.548 36.338,3.548 114.989,3.163c49.887,-0.247 73.676,-0.903 74.842,-2.068zM817.736,184.156l-2.391,-5.045l-1.909,7.574c-1.512,5.999 -1.496,8.069 0.068,9.95c1.7,2.048 2.296,1.697 4.296,-2.525c2.052,-4.333 2.044,-5.495 -0.068,-9.95zM832.184,193.94c1.56,-3.768 1.562,-5.704 0.008,-9.455c-2.516,-6.078 -4.302,-4.851 -5.605,3.854c-1.595,10.634 2.018,14.251 5.598,5.604zM845.608,193.94c2.239,-4.328 2.217,-5.184 -0.248,-9.871l-2.698,-5.132l-1.134,3.947c-2.139,7.442 -1.535,15.791 1.142,15.791c0.269,0 1.59,-2.131 2.935,-4.736zM859.307,184.159l-3.01,-4.758l-1.789,5.135c-2.283,6.548 -2.263,9.874 0.066,12.205c1.424,1.424 2.547,0.724 4.802,-2.987c2.877,-4.735 2.877,-4.95 -0.066,-9.598zM872.629,181.98c-1.285,-3.35 -3.087,-2.751 -5.961,1.986c-2.378,3.918 -2.375,4.648 0.028,9.686l2.6,5.451l2.099,-7.433c1.155,-4.087 1.711,-8.448 1.237,-9.686zM886.259,193.825c2.585,-4.541 2.591,-5.133 0.097,-9.861l-2.653,-5.028l-2.195,7.618c-3.372,11.692 -0.376,16.276 4.75,7.27zM915.091,193.941c2.221,-4.296 2.216,-5.193 -0.076,-9.62c-1.391,-2.687 -2.789,-4.62 -3.112,-4.296c-1.777,1.777 -3.309,13.821 -2.045,16.077c1.956,3.495 2.404,3.311 5.232,-2.161zM941.765,189.381c-1.662,-9.268 -3.017,-10.561 -5.297,-5.057c-1.623,3.922 -1.634,5.817 -0.05,9.643c1.579,3.815 2.41,4.4 4.17,2.941c1.532,-1.271 1.887,-3.551 1.173,-7.528zM955.659,184.201l-3.166,-5l-1.718,6.187c-2.178,7.845 -2.162,9.076 0.16,11.395c1.471,1.471 2.56,0.841 4.891,-2.844c2.954,-4.67 2.954,-4.808 -0.169,-9.738zM968.331,187.64c0.534,-8.025 -1.744,-9.598 -5.331,-3.68c-2.363,3.897 -2.371,4.681 -0.061,9.521c2.995,6.279 4.712,4.42 5.393,-5.839zM982.686,184.373c-5.03,-8.513 -7.916,-4.831 -5.176,6.599l1.904,7.936l3.009,-4.945c2.877,-4.73 2.888,-5.146 0.264,-9.587zM927.669,189.801c1.36,-9.081 -0.911,-12.106 -4.725,-6.287c-2.294,3.504 -2.407,4.84 -0.744,8.854c2.734,6.599 4.197,5.913 5.47,-2.569z" /></svg>