<svg xmlns="http://www.w3.org/2000/svg" viewBox="0 0 960 955" width="960" height="955"><path d="M248.53,713.407c0.846,-2.03 2.622,-3.975 4.398,-5.751c-1.523,1.946 -2.791,3.975 -4.398,5.751z" /> <path d="M252.926,707.656c0.254,-0.338 0.424,-0.676 0.761,-0.93c0.846,-1.015 1.777,-1.861 2.707,-2.791c-0.337,0.423 -0.677,0.763 -1.014,1.1c-0.676,0.845 -1.606,1.691 -2.452,2.621z" /> <path d="M677.023,312.638c0.59,-1.353 0.76,-3.044 1.267,-4.482c-1.86,-0.169 -3.635,-0.761 -5.242,-1.607c2.199,-1.015 5.076,-1.86 7.273,-1.776c0.675,-0.759 1.436,-1.52 2.197,-2.197c0.845,0.93 1.014,2.031 1.014,3.298c0.508,0.339 0.931,0.677 1.438,1.1c-0.591,0.17 -1.099,0.338 -1.691,0.507c-0.423,1.522 -1.184,2.959 -1.945,4.059c-2.96,4.058 -7.104,7.272 -10.233,11.247c0.086,-0.339 0.254,-0.763 0.423,-1.1c1.353,-3.298 4.059,-5.835 5.497,-9.049z" /> <path d="M644.326,653.026c-0.17,-0.083 -0.338,-0.168 -0.507,-0.337c0.338,-0.93 1.015,-1.861 1.945,-2.791c0.084,0.083 0.084,0.168 0.084,0.337c0,1.1 -0.676,2.03 -1.522,2.791z" /> <path d="M660.658,340.295c2.708,-5.919 6.089,-11.67 9.81,-16.829c0.169,-0.254 0.423,-0.423 0.592,-0.677c-1.692,4.397 -2.622,9.471 -5.582,13.192c-1.354,1.605 -3.13,2.959 -4.821,4.312z" /> <path d="M363.283,629.429c0.083,-0.168 0.253,-0.253 0.337,-0.337c-0.253,0.253 -0.337,0.337 -0.337,0.337z" /> <path d="M702.826,312.559c-4.82,1.353 -8.71,2.537 -12.685,-0.423c-1.861,-1.354 -3.383,-3.468 -5.159,-5.159c1.775,-0.592 3.551,-1.353 4.989,-1.776c11.164,-3.551 21.481,-8.456 32.221,-12.854c4.989,-2.114 10.74,-6.597 14.122,-10.656c1.607,-1.86 2.96,-2.2 4.905,-3.467c2.538,-1.522 4.06,-3.974 7.189,-4.651c1.946,-0.423 3.975,-0.084 6.005,-0.507c3.721,-0.762 7.357,-2.537 10.994,-3.637c4.144,-1.184 8.373,-1.439 12.601,-1.776c4.989,-0.507 7.695,0.93 11.67,3.721c5.666,3.974 11.417,7.696 17.083,11.586c2.791,2.029 6.934,5.243 10.571,6.596c8.794,3.298 19.027,3.212 28.076,5.919c3.045,0.93 6.174,2.452 9.303,3.044c1.861,0.422 3.721,0.422 5.582,1.014c7.357,2.284 14.376,6.089 21.565,8.203c6.258,1.861 10.064,3.975 16.745,1.945c5.075,-1.523 11.247,0.338 16.152,2.452c3.129,1.269 5.835,3.299 8.795,4.821c3.89,1.944 8.203,3.551 12.262,5.242c2.622,1.184 4.737,2.367 7.189,3.805c3.72,2.113 9.048,3.297 12.262,6.172c1.691,1.523 2.283,3.214 2.537,5.328c-5.497,-0.763 -11.755,-3.808 -16.829,-6.005c-2.535,-1.1 -4.311,-2.199 -7.102,-2.791c-7.609,-1.777 -14.46,-5.667 -21.817,-8.119c-12.769,-4.144 -25.962,-7.696 -39.07,-10.571c-8.459,-1.944 -16.829,-5.328 -25.371,-6.342c-5.666,-0.761 -9.641,-3.552 -14.715,-5.328c-5.921,-2.114 -12.855,-2.705 -19.113,-2.621c-9.217,0.085 -20.295,-0.084 -28.837,-4.059c-2.706,-1.268 -4.905,-3.212 -7.865,-4.312c-6.089,-2.199 -9.304,-3.383 -15.476,-1.353c-3.298,1.1 -6.343,1.946 -9.303,3.637c-5.075,2.791 -10.91,4.144 -16.322,5.835c-3.298,1.099 -6.596,2.029 -9.894,3.129c-1.437,0.424 -3.384,0.845 -4.651,1.691c-1.352,1.014 -2.115,2.961 -3.382,4.228c-4.228,4.313 -9.471,6.427 -15.222,8.034z" /> <path d="M616.648,216.399c0.593,0.761 1.1,1.522 1.607,2.368c-0.846,-0.93 -1.691,-1.944 -2.368,-3.044c0.254,0.254 0.507,0.423 0.761,0.677z" /> <path d="M522.142,280.921c1.268,-2.96 1.437,-6.681 3.044,-9.472c1.438,-2.538 2.623,-4.905 3.89,-7.612c1.184,-2.536 1.269,-4.736 2.96,-7.357c1.607,-2.623 3.552,-3.975 5.582,-6.005c0.847,-0.93 1.184,-1.945 2.114,-2.791c0.847,-0.931 2.03,-1.268 3.044,-1.945c-2.367,-2.79 -4.058,-7.358 -5.242,-10.402c-1.522,-3.974 -4.228,-7.019 -6.089,-10.824c-0.846,-1.861 -1.016,-3.805 -2.03,-5.666c-1.016,-2.03 -2.03,-3.383 -2.707,-5.497c-1.438,-4.313 -3.975,-7.865 -6.089,-11.755c-1.438,-2.707 -1.947,-5.751 -3.214,-8.542c-1.774,-3.722 -4.142,-7.272 -6.172,-10.824c-2.114,-3.805 -4.566,-7.357 -6.596,-10.824c-0.508,-0.93 -1.015,-1.945 -1.522,-2.875c-0.846,-0.508 -1.691,-1.015 -2.537,-1.522c-1.524,-1.692 -2.283,-4.736 -3.721,-6.681c-1.776,-2.536 -3.467,-5.496 -5.328,-8.287c-3.975,0.254 -8.965,3.214 -11.84,5.751c-2.791,2.453 -3.383,5.328 -6.935,6.512c-4.144,1.438 -8.288,2.37 -12.178,4.567c-5.921,3.298 -12.517,4.397 -18.352,7.949c-1.522,0.93 -3.044,2.03 -4.482,3.214c0,0.507 -0.084,1.1 0,1.607c0.845,6.004 0,11.501 -1.1,17.59c-0.846,4.483 -0.675,9.135 0.592,13.447c1.184,4.144 3.889,6.935 6.596,10.402c3.214,3.975 7.273,7.273 10.487,11.332c2.536,3.214 4.82,6.681 7.357,9.81c2.452,2.877 4.651,6.512 7.949,9.049c3.131,2.283 5.921,4.482 9.303,6.427c5.836,3.298 10.319,7.865 14.631,12.601c3.467,3.806 7.442,7.019 11.163,10.656c2.368,2.368 4.652,1.184 7.696,2.368c1.438,0.593 3.721,2.284 5.582,3.975c1.353,-2.79 2.96,-5.412 4.144,-8.372zM509.963,311.292c0.93,-2.537 1.776,-5.158 1.184,-7.865c-1.437,-6.089 -9.471,-12.432 -14.545,-15.392c-2.536,-1.523 -5.919,-1.776 -8.287,-3.214c-3.805,-2.284 -5.75,-8.203 -7.526,-11.84c-2.199,-4.482 -7.273,-10.402 -11.332,-13.277c-4.145,-2.96 -7.189,-8.203 -10.91,-12.093c-3.3,-3.383 -6.005,-8.711 -8.542,-12.77c-1.691,-2.707 -2.959,-6.935 -5.919,-8.626c0.087,3.636 -4.395,4.82 -7.102,5.666c-1.777,0.507 -3.975,0.845 -5.582,1.691c-1.269,0.676 -2.03,1.775 -3.214,2.452c-2.029,1.1 -3.805,1.185 -5.666,2.707c-1.268,1.015 -1.86,1.86 -3.044,2.96c-3.214,2.959 -5.498,1.86 -9.81,1.014c-4.313,-0.93 -8.711,-1.775 -12.939,-2.621c-4.059,-0.846 -9.048,-1.184 -13.192,0c-4.312,1.184 -9.217,0.93 -13.192,2.96c-2.622,1.267 -3.721,3.975 -5.497,6.172c-1.437,1.775 -4.819,6.173 -7.526,7.78c0.592,0.845 1.184,1.691 1.945,2.452c1.269,1.269 2.791,3.213 4.567,3.89c1.183,0.508 2.367,0.085 3.467,0.677c3.045,1.607 5.244,6.512 7.612,8.88c1.1,1.101 1.269,0.93 2.03,2.368c1.1,2.113 1.016,4.988 2.03,7.102c1.86,3.467 6.257,4.567 9.217,7.019c2.453,2.031 3.806,4.736 5.751,7.273c3.468,4.482 5.498,8.964 7.189,14.292c0.846,2.621 1.438,6.513 2.96,8.71c2.283,3.213 6.426,3.721 8.71,6.85c1.607,2.368 4.144,4.483 5.497,6.935c0.847,1.437 1.1,2.875 1.861,4.228c0.507,0.761 1.944,2.452 2.621,3.298c1.015,1.099 2.283,1.776 3.129,3.129c0.676,1.269 0.761,3.045 1.522,4.398c1.945,3.468 5.074,5.582 6.596,9.303c1.437,3.72 3.721,6.426 6.765,9.217c3.128,2.959 7.187,3.467 11.077,4.989c2.03,0.846 1.778,0.76 3.975,0.423c2.875,-0.423 5.159,1.184 8.034,1.184c3.89,-0.084 6.512,-1.774 10.402,0.423c3.636,2.114 7.019,4.989 8.71,8.71c5.835,-1.86 8.033,-10.909 9.217,-16.068c1.1,-4.99 2.283,-8.711 5.412,-12.939c3.553,-4.905 6.427,-9.979 7.865,-15.645c0.93,-3.468 -0.338,-7.02 -0.254,-10.487c0.084,-3.974 1.522,-7.949 2.875,-11.586c0.594,-1.607 1.269,-3.129 1.861,-4.736zM614.831,676.028c-5.328,1.691 -10.656,3.128 -15.561,5.919c-4.397,2.368 -5.666,6.173 -9.133,8.88c-3.637,2.791 -7.273,5.328 -10.91,8.119c-1.945,1.438 -3.722,2.791 -4.989,4.905c-1.438,2.538 -2.452,5.328 -3.89,7.78c-1.437,2.366 -2.537,4.818 -4.144,7.102c-3.129,4.652 -7.273,7.103 -11.163,10.824c-2.621,2.452 -3.551,3.469 -6.765,4.736c-2.284,0.932 -3.552,1.776 -5.582,3.129c-3.129,2.115 -7.442,3.045 -10.402,5.582c-0.93,0.762 -1.691,1.523 -2.537,2.284c-0.17,0.508 -0.338,1.015 -0.507,1.438c-0.846,3.721 -0.253,7.781 0.084,11.586c0.423,4.482 0.592,8.71 0.592,13.277c0,2.452 -0.761,4.735 -0.677,7.019c0.086,1.184 0.254,2.538 0.423,3.805c1.099,0.339 2.198,0.677 3.044,1.1c3.045,1.268 6.343,2.79 9.81,3.382c1.439,0.253 3.299,0.084 4.821,0.084c1.269,-0.085 2.03,0 3.214,0.169c5.159,0.59 10.573,0.675 15.815,1.267c4.735,0.592 9.471,0.507 14.122,1.184c3.045,0.423 6.257,0.253 9.217,0.93c1.775,0.424 3.298,1.268 4.989,1.691c2.875,0.677 6.258,1.607 9.133,2.03c0.592,0.086 1.437,-0.337 2.114,-0.337c1.269,0 2.454,0.846 3.721,0.846c4.652,0 9.556,-1.438 14.292,-1.522c3.215,-0.085 6.935,1.607 8.457,4.651c0.676,1.269 0.592,2.79 1.353,3.89c0.086,0.169 0.254,0.254 0.423,0.423c-0.677,-7.104 -0.761,-14.294 -1.861,-21.396c-0.845,-5.497 -2.198,-10.571 -2.621,-16.068c-0.337,-4.142 0.508,-7.863 0.677,-12.007c0.167,-3.721 -0.763,-8.626 -1.1,-12.516c-0.169,-2.03 -0.337,-1.524 0,-3.721c0.338,-2.367 0.677,-4.397 0.254,-6.765c-0.508,-3.382 -2.029,-6.849 -3.129,-10.147c-1.1,-3.384 -1.184,-6.344 -1.861,-9.726c-0.93,-4.821 -0.253,-11.332 0.084,-16.491c0.339,-4.144 0.423,-8.034 1.353,-11.924c0.677,-2.875 1.184,-7.103 0.254,-9.894c-2.537,2.791 -8.035,3.382 -11.417,4.482zM637.493,702.58c0.423,2.114 1.437,4.228 2.114,6.342c1.691,5.412 5.581,9.64 7.442,15.222c3.044,-0.338 5.666,-2.283 8.795,-2.452c1.691,0 3.298,0.339 4.905,0.846c2.198,0.254 4.399,0 6.596,-0.507c3.89,-0.592 9.387,-1.438 12.939,0.592c2.282,1.269 3.382,3.721 5.919,4.821c2.961,1.354 5.243,1.016 8.203,1.1c2.199,0.253 4.397,0.253 6.681,-0.084c1.861,-0.507 3.806,-1.016 5.751,-1.353c2.537,0.168 5.496,0.845 8.203,1.014c2.115,0.254 4.313,0.507 6.427,0.761c4.567,-6.681 8.795,-13.7 13.362,-20.296c-1.438,-2.621 -2.622,-5.496 -4.398,-7.78c-2.706,-3.467 -5.412,-6.849 -7.357,-10.824c-1.692,-3.299 -3.129,-6.935 -5.074,-10.064c-0.931,-1.523 -1.777,-2.96 -2.707,-4.567c-1.776,-3.044 -4.398,-2.621 -6.85,-4.905c-2.283,-2.114 -3.72,-3.974 -6.427,-5.835c-1.945,-1.353 -3.721,-2.621 -5.835,-3.805c-4.651,-2.707 -7.442,-6.851 -11.501,-10.233c-3.468,-2.96 -7.528,-3.298 -10.91,-6.258c-3.806,-3.382 -9.049,-5.666 -11.163,-10.317c-1.86,0.254 -4.145,4.144 -5.412,5.582c-1.776,1.86 -3.636,3.636 -5.497,5.497c-1.183,1.184 -3.974,2.875 -5.919,4.736c-0.169,-3.299 -4.482,-1.438 -6.596,-0.592c1.437,1.437 3.044,2.453 4.651,3.467c-0.085,0.253 -0.254,0.593 -0.254,0.93c0.254,-0.17 0.508,-0.423 0.677,-0.677c1.607,1.015 3.215,2.03 4.482,3.552c-1.777,3.129 -4.738,4.821 -6.005,8.203c-2.537,6.257 -2.96,14.038 -4.482,20.634c-0.761,3.214 -0.761,5.836 -0.677,9.303c0,2.707 -0.591,5.328 -0.084,7.949zM668.457,620.562c-0.084,1.944 3.214,4.142 4.398,5.242c2.113,1.86 4.058,3.721 6.172,5.497c2.622,2.368 4.651,5.92 6.681,8.88c2.03,2.875 2.283,5.919 5.074,8.203c3.381,2.79 7.525,4.565 11.077,7.102c2.79,1.944 5.496,3.974 8.287,5.919c1.946,1.437 5.413,4.905 7.865,5.412c0.167,-1.1 0.844,-1.777 1.267,-2.791c0.423,-1.269 0.085,-2.79 0.592,-3.89c1.013,-2.452 4.565,-5.752 6.172,-7.949c0.846,-1.269 1.523,-2.537 2.537,-3.721c1.775,-1.947 2.96,-2.03 5.412,-3.214c2.284,-1.184 6.09,-4.99 8.542,-4.821c0.423,1.862 -0.592,2.283 -1.945,4.059c-1.945,2.791 -3.89,5.666 -5.835,8.457c-1.86,2.621 -3.045,5.496 -4.567,8.287c-1.69,2.959 -0.844,4.144 -1.267,7.526c-0.339,2.366 -2.03,4.65 -1.861,7.102c0,0.761 0.93,2.537 1.184,3.298c1.522,4.313 1.607,8.879 2.96,13.277c0.76,2.707 1.691,5.328 2.621,7.949c0.507,1.691 1.522,3.974 2.452,6.342c1.352,-1.945 2.621,-3.806 4.059,-5.582c2.96,-3.638 6.85,-6.428 9.979,-9.81c1.691,-1.776 2.536,-3.806 4.312,-5.328c2.028,-1.691 4.142,-3.128 6.172,-4.989c2.03,-1.861 4.312,-3.467 6.342,-5.328c2.622,-2.283 4.143,-5.243 6.427,-7.78c3.045,-3.129 6.682,-5.243 9.303,-8.88c4.313,-5.92 8.711,-11.756 12.939,-17.675c7.358,-10.487 16.66,-19.536 23.51,-30.276c0.93,-1.607 2.283,-2.96 3.044,-4.651c-2.537,-0.676 -5.328,-3.298 -7.442,-5.835c-1.691,-0.338 -3.382,-0.676 -4.989,-0.93c-3.044,-1.014 -6.089,-2.198 -9.049,-3.382c-3.045,-0.677 -6.174,-1.101 -9.303,-1.438c-6.343,-1.437 -12.601,-4.482 -18.69,-6.596c-3.383,-1.184 -6.597,-2.875 -9.979,-3.975c-3.129,-1.1 -5.92,-1.607 -8.964,-3.552c-2.114,-1.438 -4.06,-3.806 -6.512,-4.736c-1.776,-0.677 -3.383,-0.339 -4.736,-2.03c-2.96,0.93 -3.636,4.567 -5.074,6.935c-4.145,6.596 -8.71,12.431 -15.222,17.167c-3.299,2.453 -7.95,3.89 -7.189,8.795c0.507,3.128 2.706,3.805 5.074,5.412c2.877,1.861 4.992,2.707 7.189,5.328c1.269,1.524 1.945,2.537 3.721,3.721c1.861,1.268 3.129,2.705 4.736,4.312c3.044,2.876 5.666,5.328 9.133,7.612c2.198,1.437 4.735,2.621 5.919,4.989c0.593,1.016 0.593,2.453 1.1,3.637c-3.807,-2.029 -6.681,-4.989 -9.979,-7.78c-2.706,-2.368 -5.92,-3.552 -8.964,-5.497c-5.835,-3.721 -12.855,-6.512 -19.197,-8.88c-3.805,-1.439 -7.78,-2.876 -11.417,-4.821c-3.13,-1.776 -6.851,-5.074 -10.656,-5.497c-2.708,-0.253 -6.089,1.016 -8.88,1.1c-1.016,0.084 -2.623,-0.423 -3.637,0.084c-1.27,0.592 -2.283,2.621 -3.467,3.467c-1.86,1.438 -7.273,3.552 -7.442,6.512zM625.742,428.414c-0.762,4.567 -0.593,9.387 0.084,13.954c0.93,6.173 9.64,7.864 14.545,9.64c0.93,0.339 2.03,0.592 3.044,0.846c2.875,-2.79 6.257,-4.905 9.217,-7.526c2.79,-2.537 5.074,-5.497 7.949,-7.865c1.776,-1.353 3.806,-2.453 5.328,-4.144c2.875,-3.045 3.382,-8.035 4.989,-11.84c1.438,-3.637 3.044,-7.105 4.905,-10.487c2.452,-4.482 4.989,-8.88 7.526,-13.362c-1.775,0 -3.551,-0.169 -5.242,-0.169c-4.735,0.084 -9.978,2.621 -14.545,4.059c-3.468,1.184 -5.243,1.269 -8.88,0.592c-2.622,-0.507 -5.075,-1.1 -7.696,-0.423c-3.383,0.93 -6.851,2.282 -10.233,3.382c-1.1,2.369 -2.284,4.651 -3.637,6.681c-3.213,5.074 -6.343,10.655 -7.357,16.66zM646.626,375.73c-1.437,4.651 -3.637,8.964 -4.651,13.7c-0.93,4.482 -2.537,9.471 -4.567,14.122c5.414,-1.691 10.487,-3.382 15.561,-4.989c5.58,-1.776 11.584,-3.129 16.912,-5.497c1.015,-0.507 6.934,-2.707 7.357,-3.721c0.59,-1.269 -1.27,-4.484 -1.607,-5.751c-2.707,-8.288 -4.567,-17.422 -8.119,-25.371c-0.93,-2.2 -2.452,-3.721 -3.298,-6.005c-0.59,-1.862 -0.759,-2.875 -2.197,-4.059c-0.931,-0.846 -2.452,-1.946 -3.552,-2.707c0,0.168 -0.084,0.253 -0.084,0.337c-2.792,7.189 -5.243,14.377 -8.964,21.227c-1.607,3.044 -1.777,5.496 -2.791,8.71zM675.464,493.875c-2.029,2.622 -2.791,5.582 -2.875,9.049c-0.169,4.059 0.508,7.611 0.592,11.501c0.17,6.004 -0.76,11.84 -1.014,17.759c-0.167,5.92 1.693,8.88 6.935,12.178c2.876,1.861 6.428,3.299 9.472,4.821c8.963,4.567 18.773,4.99 28.076,8.795c3.382,1.438 6.597,3.045 9.894,4.398c3.297,1.353 6.51,3.382 10.147,3.805c0.845,0.083 2.621,0 3.382,0.337c2.537,1.014 3.552,2.368 6.427,2.875c3.806,0.762 7.526,0.676 11.163,1.776c5.073,1.605 10.908,3.804 15.052,7.102c4.905,3.89 10.147,7.19 16.152,9.387c4.737,1.692 9.726,3.383 14.631,4.736c2.538,0.761 5.159,1.691 7.78,2.537c-2.282,-4.82 -3.551,-10.233 -5.242,-15.222c-1.606,-4.735 -0.592,-9.556 -0.592,-14.461c0.085,-3.131 0.93,-6.259 1.607,-9.303c0.424,-1.607 1.184,-2.876 1.438,-4.398c0.846,-4.228 0.084,-8.711 0,-12.77c-0.17,-7.442 -4.229,-15.561 -2.284,-22.834c0.593,-2.368 1.27,-4.143 1.607,-6.427c0.254,-1.776 0.593,-3.552 1.1,-5.328c0.592,-1.945 1.607,-4.144 4.144,-4.905c-0.508,-0.169 -1.015,-0.339 -1.438,-0.423c-1.352,-0.085 -2.706,0.676 -4.059,0.507c-3.131,-0.255 -6.089,-1.945 -9.303,-2.452c-4.482,-0.592 -9.133,0.254 -13.615,0.254c-2.707,0.085 -5.835,0 -8.626,0.254c-2.791,0.254 -5.073,1.524 -7.78,1.861c-3.637,0.507 -7.527,-1.1 -10.994,-1.861c-6.004,-1.353 -12.092,-1.86 -18.097,-3.298c-7.95,-1.861 -15.054,-5.496 -22.834,-7.78c-2.959,-0.846 -6.173,-0.592 -9.217,-0.846c-4.905,-0.509 -8.287,0.76 -12.854,1.267c-4.229,0.338 -9.472,-1.267 -13.362,0.93c-2.114,1.267 -3.974,4.227 -5.412,6.172zM585.908,657.168c0,-4.059 -2.199,-6.089 -5.666,-7.273c-2.622,-0.845 -4.652,-2.875 -7.273,-3.552c-1.861,-0.421 -4.567,-0.084 -6.512,-0.084c-5.328,0.084 -12.093,0.084 -16.998,2.114c-4.905,1.946 -6.089,5.921 -8.964,9.726c-2.03,2.537 -2.959,4.99 -4.482,7.865c-1.523,2.875 -3.721,5.328 -3.975,8.71c-0.34,4.652 -1.014,9.472 -0.677,14.208c0.169,2.029 1.1,3.889 1.607,5.919c0.93,4.228 1.438,8.542 1.522,12.854c0.169,6.512 -0.338,12.855 -0.761,19.282c-0.254,3.891 -0.423,7.696 -1.776,11.417c-0.339,1.101 -0.763,2.198 -1.1,3.298c1.607,-2.114 3.299,-4.567 4.821,-6.681c2.452,-3.383 3.467,-7.443 7.019,-10.064c4.567,-3.383 9.303,-5.328 12.601,-10.064c2.114,-2.959 3.637,-5.75 6.089,-8.287c1.522,-1.607 2.537,-3.299 4.059,-4.821c1.522,-1.438 3.469,-2.875 4.736,-4.482c4.735,-6.005 10.401,-11.417 14.968,-17.506c2.368,-3.129 0.254,-7.864 0,-11.501c-0.169,-1.438 -0.508,-2.96 -0.592,-4.482c-0.085,-2.284 1.353,-4.399 1.353,-6.596zM521.047,789.351c0.677,-1.353 1.777,-7.273 2.791,-7.78h0.084c-0.17,-0.761 -0.508,-1.353 -0.677,-2.114c-2.114,-6.596 -3.213,-14.038 -3.89,-20.973c-0.339,-3.806 -0.677,-7.527 -0.423,-11.332c0.254,-3.89 -0.507,-8.203 0.254,-11.924c1.183,-5.751 3.553,-10.993 3.89,-16.998c0.338,-6.089 0.254,-12.941 -0.423,-19.113c-0.338,-3.552 -0.93,-6.681 -0.507,-10.402c0.508,-4.397 1.777,-7.864 1.1,-12.431c-0.677,-4.483 -0.931,-10.318 -3.552,-14.377c-4.482,-7.104 -11.502,-6.005 -18.859,-4.144c-2.875,0.761 -5.497,1.522 -7.949,3.129c-3.045,1.86 -3.214,3.128 -4.736,6.172c-2.198,4.145 -7.103,7.695 -10.147,11.247c-4.82,5.581 -9.725,11.163 -14.292,16.998c-6.343,8.034 -8.373,17.759 -12.685,26.639c-2.284,4.737 -3.129,9.81 -5.666,14.377c-2.453,4.228 -6.174,7.526 -7.612,12.262c-2.875,9.472 -8.711,17.422 -12.601,26.555c-2.707,6.427 -6.428,12.516 -10.656,18.182c1.353,1.1 2.622,2.2 3.214,2.707c3.383,2.621 5.582,6.68 8.034,10.147c1.522,2.199 3.975,4.229 4.989,6.681c0.676,1.776 0.676,3.806 2.621,4.736c2.028,1.015 7.356,0.677 9.64,0.254c2.79,-0.507 5.496,-2.029 8.287,-2.621c2.452,-0.508 4.989,-0.508 7.357,-1.1c7.273,-1.776 14.463,-4.651 21.565,-6.935c6.005,-1.946 11.924,-3.89 17.929,-5.751c4.566,-1.522 9.81,-2.452 14.122,-4.482c3.467,-1.607 6.934,-4.314 8.795,-7.612zM416.348,739.367c4.06,-2.282 8.711,-5.412 11.84,-9.217c0.254,-0.846 0.509,-1.691 0.846,-2.537c2.792,-7.357 6.85,-14.292 9.894,-21.565c3.637,-8.711 7.104,-17.253 9.556,-26.47c1.354,-5.073 1.944,-9.81 2.621,-15.052c0.254,-1.946 1.438,-4.144 1.438,-6.005c-0.169,-4.82 -7.272,-8.88 -11.67,-8.457c-3.637,0.337 -1.607,1.607 -6.089,-0.677c-5.92,-3.045 -12.263,-4.059 -18.69,-5.666c-3.974,-0.93 -10.233,-2.958 -14.884,-2.621c-1.522,0.084 -3.044,0.93 -4.651,1.014c-6.681,0.507 -5.835,-2.115 -9.81,-7.189c-2.705,-3.551 -6.765,-5.327 -10.147,-8.287c-2.284,-2.03 -3.383,-2.96 -6.512,-2.537c-1.015,0.083 -1.354,-0.508 -2.368,-0.254c-0.084,0.085 -4.482,5.328 -4.482,5.497c-5.497,5.328 -10.571,7.103 -18.013,9.387c-3.382,1.015 -10.655,3.129 -11.501,7.273c-0.086,0.339 1.351,5.243 1.267,4.651c0.254,1.607 0.423,3.383 -0.169,4.905c-1.269,3.214 -6.004,5.582 -8.795,6.935c-5.412,2.537 -10.993,4.482 -16.152,7.696c-3.722,2.284 -6.934,5.412 -10.824,7.526c-11.671,6.512 -24.102,10.994 -34.758,18.943c1.099,-0.253 2.198,-0.338 2.875,0.254c2.198,6.765 4.144,13.615 6.596,20.296c0.761,2.284 0.592,1.691 2.537,3.298c3.045,2.622 4.991,6.005 7.612,8.88c2.368,2.622 5.412,4.652 7.696,7.273c1.524,1.775 2.283,3.721 3.721,5.412c2.791,3.045 4.228,6.427 6.512,10.064c4.229,6.935 7.359,15.478 12.601,21.65c2.283,2.623 4.651,5.158 6.765,7.865c1.438,1.946 2.2,3.974 3.214,6.258c0.339,0 0.763,0 1.1,-0.084c4.059,-0.338 8.456,-0.761 12.431,-1.522c3.635,-0.591 5.919,-3.72 9.217,-5.242c1.184,-0.592 2.452,-0.93 3.805,-1.353c3.975,-1.269 7.273,-3.383 10.994,-5.328c4.398,-2.284 9.049,-3.214 13.531,-5.159c5.244,-2.283 10.826,-5.751 15.138,-9.556c2.791,-2.453 4.821,-5.498 7.442,-8.119c1.69,-1.607 3.635,-2.96 5.242,-4.567c3.891,-3.722 8.457,-4.991 13.024,-7.612zM281.465,646.767c4.312,1.777 7.356,4.652 11.077,7.696c2.284,1.946 3.467,4.144 5.328,6.258c0.846,0.93 2.367,1.691 3.467,2.537c1.522,1.268 3.129,2.368 4.651,3.382c0.338,0.169 0.846,0.507 1.438,0.93c0.591,-0.255 1.099,-0.338 1.691,-0.592c5.666,-2.707 12.008,-6.512 15.645,-11.84c2.2,-3.298 3.805,-8.203 -0.507,-10.571c3.554,-2.114 6.174,-5.497 9.726,-7.442c2.114,-1.183 4.061,-2.114 6.258,-3.467c4.819,-3.044 11.5,-6.512 15.052,-11.163c1.945,-2.538 1.354,-2.791 0.254,-5.159c-2.029,-4.482 -3.298,-9.134 -4.736,-13.785c-1.016,-3.298 -1.607,-6.68 -4.398,-8.964c-3.975,-3.298 -10.74,-3.213 -15.561,-3.382c-4.483,-0.253 -8.88,-0.844 -13.447,-0.337c-4.905,0.508 -8.458,0.253 -13.447,-0.084c-7.526,-0.591 -14.631,0.423 -22.157,-0.507c-2.791,-0.086 -5.666,-0.508 -8.457,-1.1c-2.791,-1.101 -5.582,-2.198 -8.457,-3.298c-3.214,-0.93 -6.174,-1.268 -9.303,-2.621c-2.875,-1.184 -5.75,-2.284 -8.71,-3.298c0,0 -0.085,0 -0.169,-0.084c-0.507,1.184 -1.014,2.452 -1.691,3.552c-1.775,2.706 -1.945,5.413 -2.452,8.457c-0.677,3.55 -2.283,8.793 -4.144,12.007c-0.93,1.437 -2.368,2.367 -3.298,3.805c-0.93,1.438 -1.777,3.044 -2.791,4.482c-1.524,2.114 -3.89,4.819 -3.721,7.526c3.299,-0.508 7.781,2.452 10.656,3.89c4.144,2.114 7.104,4.821 10.656,7.696c3.214,2.538 6.765,4.737 9.979,7.189c3.552,2.705 8.541,3.298 12.516,4.989c3.044,1.268 6.089,2.114 9.049,3.298zM359.686,350.103c1.015,0.847 2.285,1.438 3.552,1.861c-1.352,-1.861 -2.706,-3.721 -4.059,-5.582c-1.693,-2.2 -4.06,-3.975 -6.005,-6.005c0.085,0.085 0.17,0.17 0.254,0.254c0.931,1.437 1.777,2.368 2.707,4.144c0.845,1.607 2.199,4.144 3.552,5.328zM501.003,145.026c-3.721,1.183 -7.357,2.367 -10.994,3.467c3.805,1.1 8.287,1.437 11.501,4.144c3.298,2.791 4.228,7.442 6.512,10.994c1.692,2.538 3.129,5.159 4.567,7.78c1.861,3.214 3.554,5.666 4.821,9.133c1.861,4.99 4.905,8.119 8.542,11.586c3.804,3.636 4.65,9.556 6.172,14.292l4.567,14.208c1.015,3.298 2.115,6.596 3.129,9.894c0.931,2.875 2.199,4.313 3.552,6.765c0.93,1.776 0.169,2.96 0.169,4.567c0.084,0.507 0,1.947 0.084,3.214c3.636,-3.975 5.074,-12.178 5.666,-17.167c0.254,-1.692 0.677,-3.383 1.184,-5.074c0.17,-8.373 0.423,-9.471 -0.084,-11.755c1.099,-0.847 3.298,-1.691 5.074,-2.114c-0.17,-2.707 -0.846,-5.412 -2.284,-7.696c-1.776,-2.622 -4.313,-4.482 -5.835,-7.273c-2.622,-4.82 0.678,-14.123 2.875,-18.182c3.636,-6.765 6.68,-14.546 8.964,-21.903c3.552,-11.332 5.328,-22.918 11.417,-33.489c2.198,-3.806 4.481,-7.781 6.342,-11.84c-7.95,6.258 -17.337,10.317 -26.047,15.138c-2.03,1.013 -4.397,1.183 -6.342,2.197c-1.607,0.93 -2.453,2.623 -3.975,3.637c-1.1,0.761 -2.37,0.761 -3.637,1.353c-2.538,1.269 -4.314,2.791 -7.189,3.721c-3.214,0.93 -6.343,1.946 -9.472,2.96c-1.522,0.508 -3.298,0.845 -4.736,1.522c-1.608,0.676 -2.283,1.691 -3.805,2.537c-3.044,1.691 -7.442,2.368 -10.74,3.382zM434.278,919.414c-4.059,-1.861 -8.964,-2.368 -12.939,-4.482c4.143,6.005 8.794,11.332 14.545,15.899c1.861,1.522 4.229,2.621 5.751,4.482c1.607,1.945 1.945,3.044 4.059,5.074c1.691,1.607 3.214,4.228 5.835,4.482c2.029,0.253 4.82,-1.269 6.765,-1.861c4.398,-1.437 8.71,-2.875 13.108,-4.228c2.875,-0.93 5.835,-1.861 8.71,-2.791c-0.169,0 -0.339,-0.084 -0.423,-0.084c-1.523,-0.084 -3.045,-0.592 -4.567,-1.184c-1.775,-0.761 -3.721,-1.777 -5.412,-2.791c-2.706,-1.607 -5.328,-2.368 -8.372,-3.552c-4.144,-1.522 -8.288,-3.214 -12.347,-4.736c-4.821,-1.86 -10.148,-2.114 -14.715,-4.228zM316.475,481.186c4.398,0.678 7.95,1.861 12.601,1.945c-1.522,-5.243 -4.82,-10.74 -6.427,-15.645c-1.353,-3.805 -4.061,-6.512 -6.258,-9.81c-2.621,-3.804 -3.467,-7.779 -4.651,-12.007c-1.185,-3.805 -3.3,-6.595 -4.567,-10.147c-0.676,-1.776 -1.184,-3.552 -1.776,-5.328c-0.423,-1.523 -1.691,-8.542 -3.298,-9.726c-1.606,-1.098 -4.566,-0.424 -6.427,-0.761c-2.537,-0.51 -4.144,-2.03 -6.512,-2.707c-2.622,-0.762 -5.498,-1.607 -8.119,-2.284c-1.269,-0.254 -2.199,0.423 -3.637,-0.254c-1.016,-0.422 -2.03,-1.606 -2.707,-2.452c-3.214,-3.721 -5.581,-8.71 -7.865,-13.108c-2.708,-5.159 -3.214,-6.767 -8.88,-8.964c-2.876,-1.1 -5.835,-1.184 -8.542,-2.284c-1.776,-0.762 -3.721,-1.692 -5.497,-1.776c-5.497,-0.171 -11.756,-0.424 -16.998,1.267c-4.397,1.437 -8.287,2.284 -12.854,2.621c-9.302,0.675 -19.62,0.675 -28.584,-0.592c-0.085,1.945 1.099,3.805 1.522,5.666c0.507,1.945 0.169,3.637 0.423,5.582c1.27,7.78 5.328,15.138 6.512,23.087c0.676,4.566 1.353,9.64 2.96,14.038c1.438,4.313 1.523,7.188 0.677,11.755c-0.338,1.607 -0.846,5.413 -1.776,8.457c6.175,0.76 12.431,1.267 17.252,5.242c4.482,3.636 5.919,9.304 11.924,10.571c7.019,1.523 13.7,-0.591 20.719,-0.507c2.368,0 3.974,0.677 6.258,1.1c3.467,0.507 6.765,-0.508 10.317,-0.254c5.243,0.254 10.403,2.114 15.645,2.791c9.049,1.269 18.013,1.353 27.062,3.214c3.889,0.76 7.611,0.675 11.501,1.267zM657.12,225.778c-2.537,4.229 -2.368,7.865 -3.214,12.516c-0.932,4.82 0.844,7.949 2.197,12.685c1.691,5.836 1.1,12.939 -0.93,18.69c-2.284,6.681 -7.358,12.263 -8.542,19.282c-0.423,2.115 -0.169,3.808 -0.169,6.005c0,3.468 -0.761,7.273 -1.184,10.994c1.353,0.508 2.706,0.846 4.228,0.677c4.06,-0.338 7.781,-3.298 11.84,-3.552c2.792,-0.169 5.582,0.338 8.034,1.522c1.269,0.594 2.453,1.269 3.637,1.861c-0.508,0.254 -1.099,0.508 -1.522,0.677c-2.791,1.438 -5.16,4.905 -8.542,5.159c-1.607,0.085 -3.129,-0.845 -4.736,-0.761c-1.438,0.083 -2.706,0.93 -4.059,1.267c-2.453,0.506 -1.861,-0.254 -3.975,-0.761c-1.522,-0.338 -3.298,0 -4.989,-0.254v0c0.084,0.508 0,0.931 0.084,1.438c0.253,1.184 2.029,2.959 0.084,3.805c-1.268,0.508 -2.791,-1.522 -7.019,-8.034c-1.353,-1.101 -2.453,-2.199 -4.567,-2.368c-1.607,-0.168 -3.298,-0.168 -4.989,-0.084c1.268,0.761 2.368,2.03 3.382,2.791c-1.014,3.382 -3.638,3.889 -5.835,5.919c-1.268,1.184 -2.706,2.707 -4.228,3.721c-3.131,1.861 -6.343,2.453 -9.303,4.905c-15.222,12.855 -34.419,18.268 -53.024,24.187c-5.242,1.692 -10.487,3.298 -15.729,5.074c-3.045,1.014 -4.905,0.76 -8.119,1.014c-2.537,0.254 -5.074,0.084 -7.526,0c1.607,-2.03 3.298,-4.06 5.412,-5.582c3.721,-2.791 7.78,-5.921 12.178,-7.612c7.104,-2.537 14.546,-0.847 21.565,-3.044c3.635,-1.014 6.342,-2.706 9.64,-4.228c3.551,-1.691 7.61,-2.368 11.247,-3.721c5.412,-1.777 10.571,-5.751 15.645,-8.542c4.989,-2.791 8.71,-6.597 13.531,-9.726c1.607,-1.016 4.06,-3.468 6.512,-4.821c-2.114,0.17 -4.144,0.338 -6.089,0.254c-5.497,-0.17 -10.994,-0.677 -16.491,-1.1c-2.96,-0.169 -6.343,-0.846 -9.387,-0.423c-2.875,-5.412 -9.218,-4.482 -13.277,-8.964c-1.185,-1.185 -2.198,-2.537 -3.382,-3.637c-0.93,-0.931 -2.03,-2.875 -2.96,-3.552c-1.523,-1.016 -4.736,-1.946 -6.512,-2.707c-3.467,-1.353 -7.188,-2.453 -10.74,-3.637c-1.945,-0.675 -4.059,-0.76 -6.089,-1.267c-1.607,-0.422 -3.129,-1.522 -4.905,-1.522c-7.696,-1.101 -9.387,-1.945 -10.74,-2.368c-0.677,4.398 -1.691,8.71 -2.368,13.108c-1.015,6.09 0.169,12.008 -0.592,18.097c-0.423,3.467 -0.677,6.596 -2.03,9.894c-2.282,5.414 -6.173,10.064 -8.287,15.561c-1.776,4.652 -2.284,10.826 -3.298,15.815c-0.507,2.199 0.085,3.974 -0.084,6.258c-0.085,0.421 -0.254,0.844 -0.254,1.267c0.337,-0.253 0.677,-0.676 1.014,-0.93c3.128,-2.621 6.85,-2.875 10.74,-2.875c-1.1,1.352 -2.114,2.706 -3.214,4.059c-2.537,3.13 -6.427,5.16 -11.163,9.472c-0.17,0.508 -0.338,1.015 -0.507,1.522c-0.423,1.523 -0.423,2.706 -0.592,4.144c-0.168,1.269 -1.014,2.877 -1.014,4.144c-0.085,0.846 0.508,1.438 0.592,2.284c0.168,1.775 -0.423,3.466 -0.846,5.242c-0.846,4.059 -2.707,9.134 -2.03,13.362c2.537,-0.846 4.059,0.846 6.427,1.438c2.537,0.59 4.398,1.267 6.935,2.197c3.214,1.101 7.189,1.437 10.064,3.298c1.268,0.846 1.86,2.284 3.298,2.791c5.328,1.86 12.093,-1.944 17.421,-0.337c0.761,0.169 1.775,1.27 2.452,1.607c2.79,1.521 5.92,2.79 8.795,4.228c4.398,2.283 6.173,3.974 10.994,4.228c2.707,0.083 2.707,0.421 5.159,2.197c2.96,2.114 6.089,1.944 9.81,1.014c6.174,-1.606 14.969,-3.382 19.113,-8.287c3.045,-3.468 5.835,-6.935 9.217,-10.064c3.044,-2.875 4.144,-6.173 5.835,-9.81c3.383,-7.357 8.795,-14.546 13.277,-21.311c3.297,-5.075 7.018,-9.219 10.147,-14.631c2.284,-4.06 4.736,-8.626 7.696,-12.347c-1.017,-0.254 -2.03,-0.338 -3.214,-0.761c1.438,0.677 2.623,0.253 3.89,-0.084c0.421,-0.508 0.844,-1.015 1.267,-1.438c0.761,-0.763 1.606,-1.353 2.452,-2.03c-0.507,1.1 -0.93,2.114 -1.353,3.214c0.085,0 0.17,-0.084 0.254,0c0.845,0.084 1.775,0.846 2.452,0.93c1.099,0.085 2.029,-0.507 3.129,-0.507c5.497,-0.084 9.218,2.453 11.586,7.442c3.045,6.427 5.751,12.769 7.612,19.704c1.013,3.721 1.013,7.189 2.197,10.91c0.677,1.945 1.269,3.89 1.861,5.835c0.169,-0.254 0.254,-0.508 0.423,-0.677c1.776,-3.975 4.313,-7.187 6.258,-11.077c1.268,-2.538 1.944,-5.159 3.044,-7.78c-0.085,0.337 -0.254,0.677 -0.254,1.014c-1.437,8.963 -3.044,17.927 -5.074,26.722c-1.098,4.82 -2.115,9.049 -4.312,13.7c-2.704,5.835 -3.465,12.431 -7.102,17.759c-3.045,4.312 -5.582,8.203 -9.472,11.924c-2.115,2.03 -3.89,4.06 -5.497,6.512c-2.537,4.061 -3.129,9.641 -3.298,14.208c0,0.254 -0.084,0.592 -0.084,0.846c0.17,0.169 0.338,0.254 0.507,0.423c3.214,1.861 6.089,3.298 8.88,5.582c4.228,3.637 8.625,4.567 14.122,4.398c3.637,-0.084 7.782,-1.353 9.979,-4.651c3.468,-5.075 8.964,-8.288 12.601,-13.447c4.991,-7.103 10.317,-13.868 15.138,-21.057c2.199,-3.298 3.553,-5.666 3.637,-9.894c0.084,-3.383 0.845,-6.681 1.522,-9.979c0.846,-4.567 2.199,-9.303 4.144,-13.447c1.1,-2.283 1.269,-3.89 1.861,-6.258c0.507,-1.945 1.775,-3.637 2.452,-5.582c1.099,-3.129 1.522,-6.512 1.945,-9.894c0.93,-7.188 6.089,-13.023 7.865,-20.212c1.267,6.681 -0.169,13.278 0,20.043c0.167,4.398 -0.508,8.289 -1.1,12.601c-0.423,2.198 -0.17,4.399 -0.507,6.596c-0.847,5.075 -5.242,10.571 -7.949,14.715c-1.523,2.284 -2.622,4.905 -4.144,7.189c-2.707,4.227 -5.498,7.018 -6.512,12.007c-0.846,4.228 -1.1,7.442 -0.677,11.67c0.337,3.552 0.676,7.188 -0.677,10.402c-2.368,5.413 -6.089,11.248 -10.317,15.392c-2.79,2.705 -5.412,6.426 -9.217,8.287c2.03,-0.846 3.552,-1.777 5.328,-2.791c3.127,-1.776 3.127,-1.098 7.102,0.169c8.372,2.79 17.168,5.074 25.878,6.765c4.482,0.845 7.103,2.114 11.247,4.059c4.821,2.367 9.894,2.79 14.968,4.228c2.536,0.677 4.736,1.522 7.357,1.438c11.163,-0.592 23.003,-3.636 34.25,-1.184c4.228,0.93 10.571,2.706 14.715,4.567c1.268,0.507 2.961,1.691 3.975,2.537c2.791,2.367 5.751,4.905 8.542,7.526c4.313,4.228 9.303,6.173 14.715,9.133c2.623,1.355 5.92,2.875 8.795,3.552c1.607,0.338 3.467,0 4.905,0.93c-3.551,1.945 -10.233,1.861 -14.545,2.368c-8.203,1.098 -11.586,-0.423 -18.943,-3.214c-2.79,-1.016 -4.397,-2.537 -6.765,-4.398c-2.367,-1.944 -3.212,-4.228 -5.242,-6.342c-1.099,-1.1 -2.79,-2.452 -4.651,-3.552c-1.945,7.358 -2.03,15.645 -1.776,23.257c0.169,6.765 1.437,12.178 3.467,18.52c0.93,2.791 2.199,5.751 2.791,8.626c0.762,3.045 -0.168,5.92 -0.084,8.964c0.083,3.806 0.844,7.189 1.267,10.656c0.508,3.973 0,8.032 0.254,12.007c0.423,4.821 2.03,9.472 2.114,14.377c0,0.083 0,0.168 0,0.337c3.891,-0.167 9.471,1.776 12.178,2.03c11.079,0.93 21.058,-2.79 31.46,-6.172c4.989,-1.522 11.331,-2.875 14.122,-7.78c1.099,-2.029 0.93,-4.568 1.353,-6.765c1.014,-4.905 2.792,-9.725 4.989,-14.292c1.523,-3.384 3.89,-6.174 5.835,-9.303c2.706,-4.228 4.481,-8.879 6.765,-13.277c2.623,-5.243 6.088,-10.148 8.795,-15.222c1.86,-3.636 3.805,-8.287 6.342,-11.501c1.352,-1.776 3.467,-2.96 4.989,-4.736c3.89,-4.481 5.582,-10.401 9.387,-15.052c4.82,-5.835 8.711,-11.67 15.307,-16.068c3.045,-1.946 6.426,-3.553 9.217,-6.005c0.591,-0.593 2.621,-2.537 4.312,-4.398c-1.268,1.945 -2.537,3.974 -3.975,5.835c-2.114,2.877 -4.653,5.328 -6.85,8.119c-5.158,6.765 -11.67,13.107 -16.152,20.296c-2.03,3.213 -4.23,5.497 -5.497,8.795c-0.677,1.691 -1.693,2.285 -2.707,3.552c-2.198,2.961 -3.635,6.343 -5.919,9.303c-2.621,3.385 -4.651,7.189 -7.526,10.487c-3.722,4.313 -7.02,8.456 -10.064,13.277c-4.311,6.765 -8.37,13.871 -12.007,20.973c-1.777,3.468 -3.807,7.105 -4.821,10.91c-0.507,2.03 -0.084,3.806 -0.507,5.751c-0.338,1.776 -0.844,1.523 -0.507,3.637c0.17,0.931 0.593,2.706 1.1,3.552c1.607,2.623 6.851,4.738 9.303,6.935c2.622,2.283 4.229,4.144 5.582,7.442c0.846,1.946 1.776,3.806 3.298,5.328c4.989,5.074 10.317,10.233 16.152,14.377c3.636,2.707 7.696,8.119 10.317,11.84c4.143,5.666 8.034,11.586 11.755,17.421c3.045,4.736 6.089,9.303 10.064,13.362c1.268,1.268 4.565,2.959 4.228,4.989c-1.523,0.255 -4.482,-2.452 -5.328,-3.382c-3.467,-3.551 -5.751,-7.695 -9.472,-11.077c-8.373,-7.78 -19.705,-11.67 -27.739,-19.45c-2.792,-2.707 -5.497,-6.005 -8.034,-9.049c-1.352,-1.607 -2.792,-3.129 -4.059,-4.736c-1.522,-1.946 -2.199,-3.806 -3.552,-5.751c-1.269,-1.692 -3.552,-2.96 -4.736,-4.821c-0.761,-1.183 -0.93,-2.79 -1.691,-3.89c-1.015,-1.437 -2.791,-2.454 -3.975,-3.721c-1.437,-1.437 -2.621,-2.538 -4.228,-3.805c-1.015,-0.761 -2.199,-2.284 -3.129,-2.791c-2.03,-1.184 -6.089,0.17 -8.626,0.254c-6.597,0.338 -12.601,1.861 -18.859,3.552c-7.443,1.945 -15.729,0.677 -23.425,1.184c-3.385,0.253 -8.542,0 -10.487,3.467c-2.621,4.736 -3.467,10.486 -6.258,15.307c-2.199,3.637 -4.228,7.357 -6.258,10.994c-1.268,2.199 -1.354,4.738 -2.621,6.935c-1.438,2.621 -3.045,5.073 -4.398,7.78c-2.621,5.159 -5.244,10.74 -9.556,14.715c-4.398,4.143 -8.203,8.541 -12.601,12.685c-6.258,5.835 -12.433,11.756 -18.605,17.675c-4.482,4.398 -10.064,8.794 -13.954,13.615c-1.946,2.283 -3.721,4.736 -6.005,6.681c-4.566,3.889 -9.726,7.357 -14.968,10.824c2.03,0.17 4.059,0.423 6.089,0.677c1.521,0.508 2.961,0.508 4.228,-0.169c-0.846,10.317 1.607,20.211 5.919,29.683c1.268,2.791 2.452,6.259 4.059,8.88c1.946,3.128 4.567,5.835 6.258,9.133c2.958,5.666 4.227,12.431 6.172,18.52c2.452,7.611 4.905,15.306 7.357,22.918c1.69,5.159 3.128,10.403 5.242,15.392c2.029,4.821 3.382,7.781 6.596,11.586c2.198,2.707 5.074,5.751 7.019,8.542c1.607,2.37 2.876,5.16 4.567,7.612c2.114,3.213 3.889,5.919 4.989,9.64c0.76,2.791 2.029,4.313 3.467,6.681c1.353,2.452 1.692,4.989 3.637,7.273c-4.905,-4.82 -9.726,-9.895 -13.954,-15.307c-3.552,-4.652 -4.651,-11.247 -8.203,-15.729c-1.776,-2.199 -4.653,-3.636 -6.85,-5.497c-6.258,-5.074 -10.74,-10.402 -14.038,-17.759c-6.089,-13.531 -10.149,-27.738 -14.631,-41.946c-2.622,-7.865 -5.159,-15.815 -7.696,-23.764c-1.691,-5.497 -2.875,-10.571 -6.089,-15.307c-2.706,-4.059 -4.482,-8.457 -6.85,-12.685c-4.905,0.762 -8.119,2.877 -13.531,3.214c-7.782,0.423 -15.222,0.169 -22.834,-1.522c-2.114,-0.507 -3.213,-1.354 -5.074,-2.368c-2.791,-1.438 -3.891,-1.099 -7.273,-0.592c-5.835,0.844 -11.84,1.607 -17.675,0.507c-4.398,-0.845 -10.233,-4.229 -14.545,-1.522c-3.044,1.86 -1.269,6.934 -0.592,9.894c1.184,5.158 1.861,10.74 2.284,15.982c0.508,6.849 1.691,12.854 3.975,19.45c0.761,2.453 1.268,4.652 1.522,7.189c0.34,3.975 1.015,7.611 1.607,11.501c0.761,5.328 0.591,10.233 0.084,15.561c-0.423,5.327 0.168,10.825 -0.169,16.237c-0.93,15.222 0.255,30.276 0.592,45.498c-3.554,-2.198 -4.484,-11.077 -5.751,-15.052c-1.099,-3.212 -2.792,-6.765 -3.129,-10.147c-0.254,-3.383 0.592,-6.766 0.169,-10.233c-0.677,-6.09 -1.099,-12.517 -3.129,-18.352c-1.184,-3.637 -1.268,-7.019 -2.114,-10.656c-0.761,-3.045 -1.184,-6.173 -1.438,-9.217c-2.958,-1.86 -7.187,-1.945 -10.147,-1.776c-4.398,0.253 -8.964,1.014 -13.362,0.93c-4.058,-0.086 -7.526,-2.284 -11.247,-2.707c-1.523,0.591 -3.214,0.761 -4.821,0.507c-2.622,-0.084 -5.159,-0.338 -7.696,-0.761c-4.989,-0.846 -9.64,-1.692 -14.799,-1.776c-4.398,0 -7.781,-1.268 -11.84,-1.945c-0.255,-0.761 -0.761,-1.015 -1.522,-0.761c-0.677,0.677 -1.438,0.846 -2.284,0.423c-6.512,0.169 -11.078,-4.651 -17.759,-2.96c-2.961,0.845 -5.92,1.945 -8.88,2.875c-0.084,0.169 -0.084,0.423 -0.084,0.592c-0.17,-0.169 -0.17,-0.339 -0.254,-0.423c-0.084,0 -0.084,0 -0.084,0c-4.144,1.354 -8.287,2.622 -12.431,3.975c-4.737,1.522 -10.572,2.368 -14.884,4.736c-1.269,0.677 -1.354,1.523 -2.707,2.284c-2.114,1.184 -5.158,1.523 -7.442,2.284c-7.527,2.368 -14.969,4.821 -22.495,7.189c-7.779,2.537 -15.391,5.835 -23.594,6.342c-6.259,0.338 -11.925,1.945 -18.352,1.945c-3.637,0 -4.144,-0.253 -4.144,-4.651c0,-1.775 0.253,-3.636 -0.084,-5.412c-0.423,-1.86 -1.268,-2.198 -2.114,-3.382c-2.197,-3.045 -3.551,-6.512 -6.172,-9.303c-1.183,-1.268 -2.368,-2.368 -3.89,-3.129c-4.651,5.751 -9.049,11.756 -12.347,18.352c-4.482,8.964 -8.541,18.097 -13.108,26.977c-0.507,0.846 -1.099,1.946 -1.691,2.96c0.846,2.453 1.776,4.905 3.214,7.189c1.692,2.706 3.298,5.412 5.159,8.203c2.791,4.144 4.06,8.88 6.681,13.024c4.144,6.596 7.865,13.277 11.67,20.127c1.607,2.877 2.537,6.089 4.144,9.049c1.015,1.861 1.268,3.89 2.368,5.666c0.169,0.337 0.507,0.677 0.761,1.014c1.352,1.1 2.705,2.03 4.312,2.791c3.721,1.776 9.133,2.96 13.108,4.144c2.03,0.591 4.144,1.184 6.089,1.691c2.451,0.677 4.734,-0.083 7.102,0.254c1.776,0.336 3.89,1.436 5.497,2.197c2.538,1.269 4.905,1.861 7.78,2.791c4.737,1.354 9.81,1.691 14.377,3.975c3.214,1.607 5.92,3.974 8.88,5.919c8.795,-2.875 17.59,-5.666 26.385,-8.457c-1.776,0.845 -3.383,2.198 -5.328,2.875c-5.244,1.86 -9.472,4.989 -14.377,7.526c-3.975,2.2 -7.696,3.468 -11.924,4.821c-6.256,2.03 -11.923,4.228 -17.842,7.019c-2.198,1.014 -4.651,1.437 -6.765,3.044c-0.93,0.677 -2.621,3.3 -3.805,3.637c-1.946,0.507 -1.777,-0.338 -2.707,-1.438c-0.93,-1.269 -1.354,-2.454 -2.368,-3.721c-5.92,-6.596 -14.884,-13.108 -18.436,-21.311c-2.03,-4.735 -4.905,-9.81 -7.949,-14.122c-0.17,-0.085 -0.423,-0.17 -0.507,-0.254c-1.353,-0.93 -2.114,-2.114 -2.96,-3.467c-0.339,-0.423 -0.763,-0.93 -1.1,-1.353l-3.89,-3.975c0.508,0.423 1.015,0.761 1.522,1.184c0.339,0.338 0.677,0.593 1.1,0.93c-2.452,-3.214 -4.989,-6.428 -7.357,-9.726c-3.467,-4.991 -6.427,-10.74 -10.317,-15.138c-2.452,-2.705 -4.735,-5.412 -6.342,-8.71c-2.791,-5.581 -6.512,-11.331 -9.133,-17.336c0,0.169 0,0.254 -0.084,0.423c-3.213,6.512 -8.879,9.303 -15.729,11.417c-5.582,1.691 -10.403,3.551 -15.392,6.258c-1.691,0.93 -3.044,2.114 -4.651,3.298c-4.397,3.129 -9.556,4.82 -14.461,6.85c-5.245,2.199 -10.403,4.566 -15.392,7.273c-2.03,1.015 -3.974,3.045 -5.835,4.059c0,0.169 0,0.254 0,0.423c1.184,3.89 0.169,8.287 -0.254,12.262c-0.423,3.89 0,8.034 0.507,11.755c0.253,2.03 1.099,3.805 1.353,5.835c0.254,2.03 -0.169,4.228 0,6.258c0.169,2.114 -0.338,2.198 -0.592,4.059c-0.338,2.368 1.436,5.919 -0.761,7.78c-1.691,-3.382 -3.551,-6.257 -4.651,-9.894c-1.523,-4.651 -2.284,-8.964 -3.214,-13.7c-1.1,-5.919 -1.016,-13.024 0.084,-18.943c0.93,-5.328 0.423,-10.571 0,-15.899c-0.254,-2.791 -0.592,-5.835 -1.184,-8.542c-0.845,-4.06 -0.253,-8.965 0.677,-13.024c1.353,-6.089 4.061,-11.332 11.163,-17.59c-1.099,2.03 -0.676,4.738 -1.522,6.935c-0.93,2.536 -1.775,4.65 -2.452,7.357c-1.1,4.905 -2.621,9.472 -2.114,14.461c0.254,3.129 1.524,6.512 1.861,9.556c0.254,2.367 0.254,4.568 0.423,6.765c4.905,-3.128 10.063,-6.089 15.052,-9.133c7.949,-4.736 15.561,-10.064 23.764,-14.292c3.638,-1.776 7.273,-3.805 10.74,-5.835c1.607,-1.015 3.551,-3.045 4.989,-3.975c1.1,-0.761 2.791,-1.438 3.721,-2.452c1.183,-1.438 2.283,-3.975 3.467,-5.666c2.452,-3.637 3.636,-7.612 5.666,-11.417c2.621,-4.905 5.496,-9.726 8.287,-14.631c1.86,-3.298 4.397,-5.919 6.258,-9.217c6.935,-12.18 10.994,-25.965 18.267,-37.972c5.159,-8.541 9.387,-17.929 13.108,-27.146c1.607,-3.975 2.621,-8.034 3.721,-12.178c-2.453,2.959 -4.821,6.089 -7.442,8.964c-4.059,4.312 -8.626,8.203 -13.362,11.924c-3.89,3.045 -7.443,6.428 -11.755,8.542c-7.949,4.059 -16.659,6.68 -25.201,9.387c-3.721,1.184 -8.458,1.776 -11.84,3.721c-1.945,1.183 -2.962,2.283 -5.159,3.044c-6.85,2.284 -13.617,4.652 -20.719,5.666c-1.607,0.253 -3.975,-0.17 -5.497,0.084c-1.015,0.17 -1.946,0.931 -2.96,1.1c-1.861,0.253 -4.398,-0.594 -6.005,-1.861c2.029,-0.846 5.243,-0.592 7.78,-0.592c-1.437,-1.353 -2.791,-2.453 -4.144,-4.144c-1.775,-2.368 -3.635,-4.482 -5.242,-7.019c-3.129,-4.651 -6.849,-9.133 -9.556,-13.954c-2.707,-4.651 -7.105,-8.711 -11.417,-11.84c-2.029,-1.607 -3.721,-3.468 -5.666,-5.159c-2.792,-2.368 -6.68,-4.313 -8.964,-7.273c-1.017,-1.268 -1.438,-2.706 -2.284,-4.059c-1.269,-1.945 -3.045,-3.298 -4.398,-5.074c-1.775,-2.537 -2.368,-5.497 -4.059,-8.034c-2.03,-3.214 -2.03,-7.526 -3.975,-10.74c-0.846,-1.44 -1.86,-1.861 -2.537,-3.637c-0.678,-1.945 -1.353,-4.059 -1.945,-6.089c-1.099,1.014 -2.115,2.03 -3.129,3.044c0.93,-1.185 1.944,-2.368 3.044,-3.382c-0.675,-2.621 0,-2.537 2.707,-3.298c0.593,-0.17 1.1,-0.338 1.607,-0.507c5.158,-5.242 10.486,-10.316 16.068,-15.052c3.889,-3.467 8.541,-6.596 13.192,-9.133c1.185,-0.677 2.37,-1.1 3.637,-1.607c-1.099,-0.763 -2.03,-1.946 -2.96,-2.96c-2.03,-2.115 -4.484,-3.636 -6.681,-5.497c-1.523,-1.354 -2.622,-3.131 -4.144,-4.398c-1.692,-1.437 -3.552,-2.114 -5.074,-3.298c-3.551,-2.791 -7.188,-5.835 -11.163,-7.442c-3.214,-1.269 -5.666,-3.721 -8.626,-5.328c-1.607,-0.93 -3.467,-1.1 -4.989,-2.114c-1.268,-0.846 -1.86,-1.946 -3.382,-2.707c-2.199,-1.269 -3.975,-2.877 -6.089,-4.144c-4.228,-2.621 -7.105,-4.989 -12.347,-4.989c-4.144,0 -7.781,-0.93 -11.586,-1.184c-1.437,3.128 -3.382,3.551 -5.919,5.919c-1.945,1.691 -2.96,4.315 -4.482,6.512c-1.944,2.791 -4.651,4.398 -6.765,6.935c-1.269,1.438 -2.37,3.045 -3.637,4.398c-0.085,0.676 -0.255,1.269 -0.592,1.776c-0.762,0.421 -1.523,0.844 -2.284,1.267c-0.846,0.59 -2.114,1.436 -2.791,2.197c-1.945,1.947 -3.552,4.992 -5.074,7.189c-2.283,3.298 -4.397,7.611 -5.497,11.501c-0.676,2.283 -1.099,5.497 -3.044,6.85c-0.339,-2.283 1.608,-5.92 1.945,-8.372c0.338,-2.791 1.608,-4.905 1.945,-7.696c0.507,-3.636 1.352,-7.695 2.452,-11.332c0.761,-2.622 1.945,-8.372 4.059,-9.979c-0.931,2.029 -3.637,2.283 -5.582,2.875c-3.806,1.184 -7.611,3.045 -11.755,2.791c8.372,-8.118 24.441,-5.074 32.39,-13.869c4.821,-5.327 7.865,-12.515 12.601,-18.097c2.368,-2.791 4.99,-7.272 8.457,-8.71c-0.422,-1.44 0.338,-1.693 0.592,-2.707c0.423,-1.774 0.846,-4.311 1.607,-6.172c0.592,-1.355 1.438,-2.285 2.03,-3.552c0.593,-1.437 0.593,-2.959 1.1,-4.312c2.706,-7.188 7.864,-14.038 11.501,-20.719c2.621,-4.736 4.735,-10.148 5.412,-15.307c0.339,-2.538 0.508,-5.244 2.03,-7.612c0.508,-0.761 1.269,-1.268 1.861,-1.945c1.099,-1.438 1.353,-2.79 2.875,-3.89c-0.254,0.254 -0.593,0.677 -1.1,1.438c-0.169,1.608 -0.254,2.198 0,3.805c0.254,2.453 -0.085,2.876 -0.592,5.328c-0.423,1.86 -0.253,4.313 -0.507,6.258c-0.338,1.861 -0.254,3.805 -0.761,5.666c-0.677,2.791 -1.607,5.582 -2.791,8.203c-0.507,1.184 -0.93,2.368 -1.353,3.552c2.029,0.591 3.975,1.268 4.989,1.691c6.766,2.368 13.192,2.368 20.381,2.537c9.557,0.255 18.775,-1.269 28.162,0.592c4.144,0.845 7.78,1.607 11.924,1.691c6.427,0 11.841,1.693 18.013,-0.337c6.342,-2.114 15.815,-3.383 16.829,-11.417c0.423,-2.622 0.592,-5.413 -0.254,-8.034c-0.93,-2.706 -2.199,-3.044 -1.776,-6.258c0.846,-7.019 3.214,-14.207 4.821,-21.057c0.507,-2.368 0.845,-2.791 1.945,-4.736c-2.452,-2.453 -6.173,-1.269 -9.133,-1.1c-4.397,0.17 -8.964,-1.353 -13.192,-2.114c-6.342,-1.1 -11.755,-5.158 -18.097,-6.342c-3.637,-0.677 -7.357,-0.085 -10.994,0.169c-2.875,0.085 -4.566,-0.846 -7.273,-1.776c-3.383,-1.184 -5.074,-1.524 -7.442,-3.721c-1.098,-1.099 -4.649,-4.736 -4.312,-6.258c3.721,-0.254 6.512,2.114 9.979,2.621c2.875,0.423 5.837,-0.677 8.034,-2.368c2.791,-1.944 6.766,-5.835 7.612,-9.217c0.592,-2.453 -0.084,-3.045 -0.761,-5.497c-1.353,-4.228 -0.169,-10.063 -3.298,-13.7c-5.498,1.184 -10.994,0.253 -16.745,0.084c-3.975,-0.085 -8.203,-0.593 -12.178,-0.677c-2.875,-0.085 -1.944,0.255 -3.382,2.452c-2.537,3.974 -3.721,7.611 -5.074,12.093c-0.76,2.367 -1.604,5.074 -1.267,7.526c0.253,1.944 1.691,3.889 0.93,5.919c-4.989,0 -9.387,-1.523 -14.292,-2.284c-0.761,-0.17 -1.691,-0.17 -2.537,-0.254c0.168,0.17 0.337,0.253 0.337,0.507c0.169,0.845 -1.184,1.606 -1.438,2.452c-0.085,0.339 -0.254,2.537 -0.254,2.96c-0.169,2.874 -0.423,4.734 -2.114,7.102c-3.045,4.312 -8.119,5.666 -12.178,8.71c-2.536,1.861 -4.65,4.06 -7.357,5.751c-4.651,2.961 -10.318,5.582 -15.307,7.612c-2.706,1.183 -6.68,1.945 -9.387,3.467c-3.552,2.03 -4.821,5.582 -9.049,6.512c-6.512,3.213 -4.735,2.283 -3.721,0.761c0.677,-0.932 1.014,-2.368 1.691,-3.129c1.438,-1.775 3.975,-2.874 6.005,-4.312c4.059,-2.79 8.964,-6.088 13.615,-8.795c1.945,-1.184 3.89,-1.776 5.835,-3.129c2.029,-1.44 3.382,-2.707 5.919,-3.637c2.96,-1.014 4.566,-1.607 6.85,-3.721c1.521,-1.268 4.058,-2.03 5.242,-3.552c1.013,-1.353 0.76,-1.691 1.267,-3.298c0.423,-1.353 1.184,-1.607 1.945,-2.791c0.931,-1.268 1.184,-2.622 1.945,-3.975c1.015,-1.607 3.214,-3.975 4.736,-4.989c0.509,-0.254 1.099,-0.507 1.776,-0.761c-0.254,0 -0.423,-0.084 -0.677,-0.084c-2.791,-0.677 -5.496,-1.438 -8.203,-2.284c-3.975,-0.93 -7.611,-2.03 -11.332,-3.721c-7.781,-3.551 -15.307,-7.019 -23.51,-9.64c4.398,-0.592 9.81,1.353 14.208,1.945c4.06,0.593 8.374,2.029 12.347,1.607c3.973,-0.422 4.227,0 7.102,2.96c3.213,3.213 5.75,2.621 9.894,3.805c3.382,0.93 6.088,1.691 9.64,1.184c3.298,-0.592 3.975,-2.706 5.666,-5.497c1.523,-2.537 2.453,-5.075 2.03,-8.119c-0.507,-2.622 -1.438,-4.398 -0.761,-7.189c-8.795,-0.338 -17.591,-2.284 -26.301,-3.298c-6.258,-0.761 -12.769,-1.606 -18.774,-3.382c-5.326,-1.607 -8.202,-5.919 -12.007,-9.556c-1.691,-1.522 -2.368,-2.452 -4.398,-3.044c-1.438,-0.423 -4.567,-0.423 -6.005,0c-1.014,1.184 -2.198,1.947 -3.805,2.284c-1.861,0.592 -3.806,1.184 -5.751,1.776c-2.114,0.677 -3.044,1.1 -4.482,2.707c-4.144,4.398 -8.034,8.964 -11.924,13.615c-7.695,9.302 -16.405,18.098 -24.862,26.808c-4.652,4.819 -9.387,9.724 -13.447,15.052c-4.06,5.328 -6.174,11.586 -9.979,16.998c-9.81,13.869 -20.803,26.639 -31.29,39.916c8.88,-15.898 19.958,-30.444 30.952,-44.905c3.721,-4.989 7.865,-9.81 11.163,-15.222c1.437,-2.368 2.536,-4.822 4.312,-7.019c2.114,-2.368 4.651,-4.228 6.765,-6.596c1.944,-2.199 3.466,-4.651 5.242,-6.935c3.298,-4.482 6.343,-8.88 8.964,-13.785c2.622,-4.736 5.327,-9.641 8.964,-13.7c3.129,-3.468 6.765,-6.342 9.894,-9.64c1.353,-1.439 2.537,-3.13 3.637,-4.821c-3.973,-1.184 -8.032,-1.946 -12.007,-2.96c-3.973,-0.93 -8.032,-0.677 -12.007,-1.184c-4.905,-0.677 -9.048,-2.537 -13.615,-4.398c-9.048,-3.721 -16.236,-10.826 -23.932,-16.745c-3.974,-3.044 -8.033,-6.849 -11.247,-10.824c-1.014,-1.268 -1.944,-2.115 -3.044,-3.129c-2.875,-2.706 -5.497,-6.174 -8.457,-8.795c-1.268,-1.1 -2.452,-1.184 -3.805,-2.114c-1.521,-1.099 -2.536,-2.79 -4.312,-3.89c-2.706,-1.691 -5.665,-1.86 -8.372,-3.721c-1.184,-0.761 -1.945,-1.269 -3.298,-1.861c-3.805,-1.86 -8.203,-4.313 -11.67,-6.765c-2.875,-1.944 -4.821,-3.975 -8.203,-5.242c-1.776,-0.676 -3.298,-1.352 -4.905,-2.452c-3.045,-2.115 -5.413,-3.214 -8.88,-4.567c-5.244,-2.03 -10.487,-7.189 -14.631,-10.91c-3.045,-2.875 -6.004,-5.835 -8.034,-9.387c-3.129,-5.498 -6.681,-9.979 -9.979,-15.138c-1.014,-1.523 -2.198,-3.045 -3.382,-4.398c-0.421,-0.93 -0.844,-1.861 -1.267,-2.791c4.821,4.145 7.612,7.02 9.726,10.064c2.37,3.467 4.737,7.357 7.612,10.317c1.353,1.354 2.368,3.636 3.721,4.736c0.676,0.593 1.691,0.508 2.452,1.1c0.593,0.506 0.93,1.605 1.607,2.197c2.96,2.621 7.526,3.889 11.247,4.989c2.959,0.846 6.173,1.607 8.71,2.537c3.045,1.015 6.343,2.791 9.303,4.144c7.611,3.384 14.292,7.95 20.719,13.024c5.582,4.398 11.333,9.303 17.252,13.024c4.313,2.792 9.049,6.089 12.516,9.894c1.607,1.861 2.452,4.314 4.059,6.005c1.101,1.017 1.607,1.017 2.368,2.284c2.283,3.722 5.327,7.103 8.964,9.894c3.129,2.454 7.865,2.791 11.755,3.721c3.298,0.763 6.681,1.1 9.81,2.03c1.353,0.423 2.283,1.269 3.467,1.776c1.437,0.677 2.029,0.338 3.382,0.761c0.677,0.169 1.184,1.099 1.861,1.353c1.522,0.507 3.129,0.422 4.736,1.014c2.115,0.846 4.23,1.945 6.427,2.791c2.706,1.015 6.849,2.283 9.133,4.059c2.283,1.691 4.145,3.89 6.342,5.835c0.253,-0.677 0.675,-1.354 1.267,-1.691c2.705,1.691 5.666,2.537 8.71,3.129c-0.678,-2.368 -1.268,-4.905 -1.945,-7.019c-1.1,-3.467 -2.538,-6.765 -2.707,-10.402c-0.085,-1.776 -0.169,-3.467 -0.169,-5.328c0.084,-1.776 0.93,-3.806 0.93,-5.328c0.253,-4.652 -0.508,-10.401 -1.861,-14.799c-0.845,-2.79 -1.522,-6.427 -3.129,-8.795c-1.184,-1.86 -3.129,-3.045 -3.975,-5.242c-0.763,-1.691 -0.846,-2.115 -2.03,-3.382c-4.06,-4.314 -10.317,-6.258 -13.277,-11.84c-3.045,0.845 -7.273,-1.861 -10.402,-2.284c-4.821,-0.677 -9.979,0.255 -14.968,0c-4.989,-0.255 -11.247,-0.169 -15.729,2.452c-1.776,1.015 -4.82,4.99 -5.666,0.592c-1.354,-6.681 10.993,-6.681 15.052,-6.935c4.567,-0.17 8.964,0.421 13.531,0.337c3.13,-0.084 6.428,1.1 9.472,0.677c2.621,-0.337 4.65,-1.436 7.357,-1.267c3.298,0.086 5.835,1.354 8.795,2.707c4.229,1.859 6.259,1.775 10.571,0.337c7.104,-2.452 14.714,0.169 21.903,0.93c4.228,0.507 7.611,1.099 11.67,-0.254c4.736,-1.606 9.218,-3.213 14.292,-3.044c3.551,0.17 6.765,0.761 10.147,-0.93c4.228,-2.114 6.511,-9.387 8.287,-13.615c0.845,-1.946 2.368,-3.467 3.129,-5.328c0.592,-1.607 0.169,-3.552 0.592,-5.159c1.1,-4.228 3.467,-8.203 4.567,-12.431c1.014,-4.144 2.031,-8.457 3.298,-12.516c1.522,-5.074 6.343,-10.486 5.159,-16.237c1.691,5.582 0.421,12.093 0.084,17.675c-0.254,3.298 -0.507,7.019 0,10.233c0.254,1.437 0.846,2.79 0.846,4.228c0.085,2.114 -0.507,4.399 -0.507,6.596c-0.169,4.313 -1.776,9.218 -4.567,12.516c-2.114,2.452 -3.215,4.566 -4.482,7.526c-0.846,2.03 -2.029,4.991 -3.89,6.258c1.946,0.593 6.512,2.708 8.542,3.975c3.636,2.198 5.073,4.821 7.78,8.203c2.622,3.383 5.836,6.428 8.457,9.81c5.158,6.68 15.645,14.629 24.271,9.387c4.229,-2.537 7.019,-6.765 10.994,-9.556c3.466,-2.536 5.75,-5.75 9.217,-8.287c5.835,-4.144 13.362,-5.159 19.789,-8.203c4.398,-2.113 9.726,-2.874 13.785,-5.242c1.353,-0.76 8.963,-9.302 11.247,-6.342c-1.777,3.468 -6.596,6.089 -9.303,8.71c-3.974,3.805 -9.388,5.328 -13.7,8.626c-1.945,1.522 -3.89,3.468 -5.666,5.159c-3.213,3.044 -6.004,6.765 -9.894,9.133c-2.366,1.523 -4.734,2.791 -7.102,4.398c-4.398,2.96 -9.98,4.735 -14.208,7.949c0.594,1.607 1.777,0.93 2.791,1.776c2.369,1.86 3.299,6.428 4.821,9.049c2.535,4.314 3.72,8.88 5.242,13.531c1.776,5.497 3.721,10.994 5.328,16.491c1.944,6.596 3.721,13.953 4.651,20.634c0.253,1.523 0.253,3.891 0.507,6.005c6.595,0.255 13.361,0.508 19.957,0.592c3.045,0 4.652,-0.847 7.612,-1.184c4.144,-0.254 8.287,-0.846 12.431,-1.607c2.03,-0.339 3.975,-0.592 6.005,-0.846c1.352,-0.93 1.606,-2.029 2.452,-3.467c2.283,-4.144 5.074,-7.78 4.567,-12.854c-0.254,-2.453 -1.693,-4.481 -2.03,-6.765c-0.592,-3.551 0.509,-7.865 1.776,-11.163c3.721,-9.303 10.487,-16.745 13.108,-26.555c1.184,-4.313 0.846,-7.781 1.1,-12.093c0.169,-2.791 0.93,-5.158 0.169,-7.865c-1.268,-4.397 -4.312,-8.118 -6.342,-12.093c-1.355,-2.707 -2.368,-5.412 -3.552,-8.119c-2.877,-2.367 -5.751,-4.82 -9.049,-6.765c-3.468,-2.029 -5.582,-3.552 -8.457,-6.427c-2.452,-2.453 -5.581,-5.328 -8.71,-7.189c-2.281,-1.437 -4.818,-2.705 -7.102,-4.312c-2.706,-1.944 -4.821,-4.397 -7.442,-6.342c-3.551,-2.706 -7.442,-4.397 -12.093,-5.497c-1.944,-0.423 -6.936,-1.522 -9.133,-0.93c-0.93,-2.029 -3.467,-3.045 -5.328,-4.059c-7.104,-4.059 -14.294,-6.427 -20.466,-11.924c-5.159,-4.566 -11.332,-8.118 -16.66,-12.262c-2.284,-1.692 -5.921,-3.383 -8.542,-4.821c-3.974,-2.113 -7.611,-5.326 -11.67,-7.102c-2.369,-1.014 -4.397,-2.368 -6.681,-3.382c-0.678,0.084 -1.268,0.084 -1.945,0.084c-0.592,-0.592 -1.184,-1.101 -1.945,-1.438c-1.27,-0.254 -2.2,0.676 -3.467,0.592c-4.313,-0.338 -8.879,-4.989 -12.516,-7.273c-3.299,-1.946 -6.344,-4.061 -9.726,-6.258c-4.059,-2.621 -8.033,-5.583 -12.431,-7.78c-6.681,-3.382 -14.04,-6.934 -20.212,-10.824c-15.307,-9.641 -29.684,-20.803 -46.851,-26.808c-5.497,-1.944 -10.064,-5.75 -15.476,-7.526c-2.453,-0.76 -7.781,-1.522 -9.726,-3.467c-1.353,-1.27 -1.523,-2.367 -3.214,-3.467c-1.861,-1.1 -3.89,-2.707 -5.751,-3.721c-0.844,-0.338 -1.52,-0.761 -2.197,-1.184c2.115,0.846 4.229,1.523 6.005,2.284c3.044,1.184 5.75,3.044 8.71,4.144c2.707,0.847 5.412,1.1 8.119,2.114c5.328,2.029 10.402,5.074 15.561,7.526c8.626,4.06 15.477,10.317 23.764,14.884c2.961,1.691 6.089,3.129 9.133,4.905c4.567,2.791 8.964,6.003 13.531,8.71c4.905,2.875 9.472,6.342 14.631,8.71c5.243,2.452 10.571,4.905 15.476,7.949c3.891,2.367 7.781,4.312 11.84,6.342c2.366,1.183 4.65,1.86 7.102,2.621c3.13,1.1 3.468,1.776 5.582,3.721c3.468,3.214 10.064,4.567 14.292,6.512c1.607,0.761 2.876,1.438 4.567,1.945c4.905,1.607 9.726,3.552 14.631,5.074c3.975,1.269 7.527,3.298 11.332,4.651c2.622,0.93 5.159,1.86 7.273,3.467c1.268,0.93 2.114,1.607 3.552,2.368c4.228,2.114 8.372,4.144 12.347,6.596c3.552,2.199 7.442,4.059 10.994,6.427c1.353,1.015 3.636,3.045 5.497,3.129c1.691,0 2.537,-1.945 4.398,-1.861c1.944,0.168 1.691,1.691 3.044,2.452c1.437,0.93 3.89,1.184 5.412,1.776c2.282,0.845 3.804,1.776 5.242,3.129c-0.592,-0.677 -1.101,-1.438 -1.438,-2.368c5.835,7.189 13.109,12.01 21.396,15.815c1.691,0.761 3.383,1.606 4.905,2.452c2.03,0.423 4.059,0.931 5.835,1.861c2.537,1.268 4.821,2.875 7.273,4.228c0.423,0.254 0.761,0.423 1.184,0.677c-5.497,-7.865 -7.104,-13.023 -8.795,-18.182c-1.184,-3.637 -2.452,-5.412 -5.159,-7.949c-1.522,-1.353 -2.028,-1.099 -1.691,-3.129c0.169,-1.522 2.115,-3.551 3.129,-4.651c0.678,-0.253 1.268,-0.593 1.945,-0.93c1.184,-1.776 2.537,-3.383 4.059,-4.736c3.213,-2.79 4.651,-2.79 6.427,-6.172c0.761,-1.437 1.015,-2.706 2.791,-3.298c2.115,1.692 3.806,4.398 3.129,7.189c-0.592,2.452 -2.876,7.019 -4.567,8.964c-2.452,2.96 -4.82,3.89 -7.949,5.835c-1.268,0.847 -1.691,0 -1.945,1.861c-0.085,0.846 0.93,2.622 1.353,3.214c0.677,-0.085 1.353,-0.169 2.03,-0.169c2.453,3.214 3.214,9.134 4.398,13.024c0.846,2.622 1.946,4.567 2.96,6.681c0.591,-1.268 1.184,-2.368 1.691,-3.129c2.875,-4.228 6.427,-7.695 8.964,-12.093c1.184,-2.03 3.721,-4.99 4.398,-7.442c0.761,-3.129 -1.099,-3.974 -2.621,-6.681c-2.199,-3.888 -4.736,-7.779 -6.089,-12.007c-0.846,-2.537 -1.017,-3.551 -3.214,-5.412c-6.172,-5.414 -11.753,-10.909 -16.912,-17.421c-3.044,-3.89 -5.328,-7.189 -9.049,-10.571c-0.423,-0.338 -0.763,-0.847 -1.1,-1.184c-0.339,-0.169 -0.592,-0.507 -0.846,-0.93v0c0,-0.085 -0.084,-0.085 -0.084,-0.169c0,0.085 0,0.085 0.084,0.169c-2.79,0.677 -4.313,0.254 -7.357,1.1c-6.089,1.607 -11.164,-1.014 -17.083,-0.677c-6.174,0.339 -13.701,4.482 -17.929,8.626c-4.144,4.143 -7.612,8.795 -13.024,11.332c-1.861,0.846 -4.144,0.93 -6.005,1.776c-0.931,0.423 -3.13,1.607 -4.821,2.791c1.437,-1.099 3.298,-2.114 4.312,-2.875c3.552,-2.536 6.935,-4.397 10.233,-7.357c3.212,-2.959 6.342,-6.85 10.147,-8.964c1.353,-0.675 2.79,-0.675 4.228,-1.267c2.453,-1.099 3.975,-3.383 6.005,-5.074c4.481,-3.636 8.963,-4.989 14.545,-6.765c2.959,-0.93 6.004,-1.861 8.964,-2.875c0.253,-0.086 0.593,-0.254 0.93,-0.423c-0.759,-1.269 -1.436,-2.537 -2.197,-3.721c-4.313,-6.936 -9.726,-12.431 -15.645,-18.013c-7.863,-7.358 -10.992,-18.605 -17.842,-26.808c-1.1,-1.268 -2.791,-2.961 -4.144,-3.975c-2.284,-1.691 -2.453,-1.438 -2.284,-3.975c4.397,4.482 8.203,9.98 12.854,14.292c2.368,2.197 3.721,5.072 6.512,7.102c1.439,1.099 3.383,1.776 4.821,2.96c1.691,1.437 2.452,3.551 3.805,4.989c0.93,0.931 2.029,1.44 2.621,2.707c0.507,1.014 0.507,2.283 1.184,3.044c0.93,1.353 2.453,1.947 3.467,3.214c0.423,0.508 0.763,1.015 1.1,1.522c0.76,-2.368 3.298,-4.989 4.312,-6.427c1.099,-1.522 1.523,-3.381 2.96,-4.651c1.437,-1.27 3.213,-2.114 4.651,-3.467c2.199,-1.944 4.566,-3.129 6.85,-4.651c2.029,-1.438 3.467,-3.383 6.596,-3.214c2.284,0.084 4.482,2.198 6.596,2.621c4.737,0.93 10.486,-0.847 14.884,-2.114c2.114,-0.677 3.889,-0.508 5.919,-0.677c1.945,-0.254 3.552,-1.269 5.582,-1.438c3.131,-0.338 6.174,-1.522 9.303,-1.691c3.891,-0.254 12.009,0.677 13.785,-3.721c0.677,-1.605 0.338,-4.565 0.254,-6.172c-0.167,-2.876 -1.183,-5.751 -2.197,-8.795c-2.958,-9.389 -4.142,-17.591 -2.197,-27.231c-0.93,0.423 -1.946,0.846 -2.96,1.353l3.89,-4.989c1.099,-3.468 2.875,-8.289 0.507,-10.91c-0.845,-1.1 -4.652,-3.806 -5.666,-3.975c-1.099,-0.171 -3.128,0.93 -4.228,1.267c-2.791,0.93 -5.666,2.284 -8.626,1.607c-5.499,-1.437 -8.711,-7.103 -12.601,-10.824c-4.482,-4.23 -10.401,-5.751 -15.222,-9.472c-4.229,-3.214 -8.541,-4.229 -13.869,-4.821c4.396,-1.522 9.64,0.761 14.122,1.522c4.398,0.846 7.105,3.89 10.91,5.751c2.03,1.014 3.805,1.437 5.835,2.621c3.045,1.607 6.005,2.454 9.472,2.791c5.836,0.508 11.671,2.368 17.083,4.398c2.622,-2.368 4.228,-6.935 6.512,-9.81c2.792,-3.637 6.765,-6.005 9.894,-9.303c3.383,-3.636 5.243,-8.625 8.795,-12.262c1.86,-1.86 3.975,-2.791 6.172,-4.144c2.452,-1.523 4.651,-3.806 7.526,-4.567c0.17,2.537 -2.875,5.243 -4.228,6.765c-4.567,5.074 -8.711,10.234 -12.939,15.476c-2.537,3.213 -5.413,6.426 -7.865,9.64c-1.015,1.268 -1.438,2.875 -2.368,4.228c-0.761,1.268 -1.945,1.944 -2.875,3.044c-1.776,2.199 -0.93,2.79 -0.846,5.074c0.085,3.805 0.931,6.089 -0.507,9.387l1.522,-2.03c0,-0.337 -0.084,-0.677 -0.084,-1.014c1.691,-1.27 4.566,-1.607 6.596,-2.284c4.059,-1.354 7.187,-2.452 10.824,-4.736c6.004,-3.721 12.769,-6.259 18.097,-10.571c3.974,-3.214 8.118,-3.975 12.854,-5.751c7.863,-2.79 14.715,-9.218 21.817,-13.7c3.383,-2.2 10.994,-5.919 15.138,-5.582c0.846,0.084 1.776,1.1 2.791,1.184c1.015,0.084 3.213,-0.507 4.059,-0.93c3.468,-1.606 5.413,-5.243 8.457,-7.357c2.115,-1.522 4.652,-2.029 7.189,-2.875c5.328,-1.691 10.065,-4.313 15.307,-6.258c4.735,-1.691 9.64,-3.044 14.461,-4.651c1.015,-2.368 1.861,-4.737 2.368,-7.189c1.438,-6.51 2.199,-13.361 2.791,-19.957c0.424,-4.904 0.845,-10.063 1.691,-14.968c0.762,-4.821 3.045,-9.303 4.567,-13.954c1.353,-4.144 1.945,-8.287 3.129,-12.431c1.439,-4.989 3.806,-9.894 5.751,-14.715c1.775,-4.06 3.551,-8.119 4.989,-12.347c0.254,2.877 -0.338,6.089 -0.169,9.049c0.254,3.468 0.085,6.682 -0.592,10.064c-1.269,6.512 -1.693,13.109 -2.96,19.536c-0.253,1.691 0,3.213 -0.169,4.651c-0.339,2.368 -1.438,4.905 -2.284,7.189c-1.185,3.382 -3.13,6.51 -3.637,10.147c-1.268,10.064 -2.284,20.211 -5.666,29.937c-2.114,6.174 -1.777,13.616 -4.821,19.282c-2.114,4.144 -3.975,8.372 -6.089,12.516c-1.522,2.875 -3.806,4.651 -5.666,7.273c-1.86,2.622 -2.454,5.582 -3.721,8.457c-1.607,3.637 -4.566,7.442 -5.412,11.163c-1.016,4.651 -0.086,9.978 0.337,14.545c0.592,5.159 2.96,9.725 3.552,14.799c0.253,1.861 1.014,4.313 1.014,6.089c0,1.86 -0.675,2.79 -1.267,4.651c-1.014,2.875 -2.031,5.919 -3.298,8.71c1.861,0.254 3.807,0.592 4.821,0.846c2.115,0.677 2.791,1.015 5.159,0.846c3.212,-0.169 6.003,-0.931 9.217,-1.945c6.258,-2.03 12.854,-4.991 19.366,-6.258c2.452,-0.507 5.665,-0.592 7.526,1.438c0.93,0.931 2.537,2.875 3.214,3.975c0.677,1.015 0.507,2.538 1.014,3.552c0.677,1.184 1.691,1.945 2.368,3.129c0.338,0.507 0.593,0.93 0.93,1.353c-0.93,-0.761 -1.86,-1.438 -2.621,-2.452c-0.762,-0.93 -1.185,-3.298 -2.707,-3.721c-0.931,-0.253 -1.777,0.677 -2.707,0.761c-2.453,0.169 -4.144,0.085 -6.765,0.846c-4.059,1.185 -5.835,-0.93 -9.894,-1.267c-2.961,-0.253 -6.258,0.591 -9.133,1.014c-6.343,0.931 -11.67,1.861 -17.167,5.159c-2.791,1.692 -5.16,2.96 -7.612,4.736c-0.762,5.75 -4.484,11.755 -6.681,16.66c-1.099,2.537 -1.184,5.159 -1.776,7.696c-0.676,2.621 -2.114,5.583 -3.467,7.78c-0.93,1.692 -2.03,3.383 -3.044,5.074c-1.691,2.875 -4.481,5.497 -6.342,8.457c2.875,-0.677 6.173,0.93 8.88,1.607c4.567,1.185 8.289,3.636 12.601,5.497c6.004,2.537 11.079,6.681 16.491,10.233c2.961,2.028 6.935,3.804 9.726,6.172c2.875,2.537 5.075,2.961 8.457,4.228c2.115,0.845 3.298,2.875 5.582,3.552c1.014,0.339 2.198,0.254 3.298,0.423c2.369,0.423 4.229,1.522 6.681,1.776c2.367,0.169 4.819,-0.255 7.526,-0.592c2.791,-0.254 4.821,0.423 7.612,0.507c5.581,0.169 10.995,1.522 16.237,3.467c0.169,-0.17 0.254,-0.338 0.423,-0.507c1.354,-1.776 1.607,-2.96 1.861,-5.074c0.338,-2.791 0.845,-5.496 1.522,-8.203c1.522,-5.75 -0.507,-11.248 -0.423,-17.167c0.085,-9.049 3.805,-14.968 7.442,-23.171c0,-0.084 0,-0.084 0,-0.084c-0.338,-0.253 -0.761,-0.593 -1.184,-0.93c-1.775,-1.605 -3.213,-2.874 -4.989,-4.312c-2.96,-2.284 -4.905,-6.005 -7.696,-8.542c-2.536,-2.113 -5.327,-4.481 -8.287,-6.172c-3.552,-2.03 -6.428,-6.089 -8.88,-9.387c-0.254,-0.337 -0.423,-0.677 -0.677,-1.014c0.339,0.423 0.677,0.761 1.1,1.184c4.483,4.313 11.333,7.02 16.745,10.064c3.045,1.775 5.244,2.96 7.696,5.412c1.439,1.438 3.637,2.875 4.821,4.482c0.846,1.015 1.691,2.537 2.368,4.059c0.083,-1.86 0,-3.805 0.337,-5.919c0.593,-3.721 3.554,-6.681 4.821,-10.233c0.677,-1.776 1.269,-3.636 1.861,-5.497c0.676,-2.03 1.86,-3.806 2.537,-5.751c0.423,-1.437 0,-1.522 0.169,-2.875c0.253,-2.452 0,-4.229 -0.254,-6.85c-0.423,-3.552 -1.014,-3.805 -3.721,-6.089c-3.721,-2.96 -7.95,-3.467 -11.417,-7.019c-4.567,-4.652 -8.626,-10.571 -12.77,-15.899c-3.383,-4.229 -4.482,-6.934 -6.258,-11.755c-2.113,-5.919 -7.186,-12.515 -7.102,-19.027c2.453,1.27 4.736,4.398 6.681,6.512c1.692,1.776 3.552,3.721 5.159,5.666c1.946,2.283 3.806,4.989 5.751,7.357c2.028,2.707 3.128,5.835 5.242,8.542c1.522,1.946 2.791,3.975 4.482,5.751c2.622,2.79 3.383,4.397 5.074,7.526c1.775,3.383 4.905,6.09 6.596,9.472c1.353,2.538 2.706,4.991 3.89,7.612c2.368,0.169 5.75,-1.607 8.034,-2.368c5.159,-1.777 10.403,-1.353 15.815,-2.114c12.939,-1.775 26.047,-7.526 38.394,-11.501c6.597,-2.114 13.193,-4.145 19.789,-6.342c10.064,-3.298 20.89,-4.313 31.037,-7.273c7.44,-2.284 15.135,-6.259 22.747,-7.273c7.189,-0.93 13.869,-1.944 20.804,-4.228c8.542,-2.791 16.998,-4.314 25.878,-6.005c7.273,-1.438 14.715,-3.213 22.072,-3.89c4.482,-0.423 8.796,-1.016 13.108,-2.03c3.554,-0.847 7.104,-0.93 10.656,-2.114c1.099,-0.423 2.283,-0.93 3.467,-1.184c1.437,-0.253 1.777,0.168 3.044,0.084c5.075,-0.508 10.656,-3.045 15.392,-4.736c-1.184,0.423 -1.946,1.268 -2.96,1.945c-7.272,4.651 -17.421,7.526 -25.624,9.81c-10.994,3.045 -22.58,3.298 -33.574,5.666c-4.229,0.93 -7.78,2.537 -12.178,2.96c-1.776,0.167 -3.214,0.76 -4.905,1.267c-3.467,1.099 -6.935,1.099 -10.402,1.945c-13.953,3.552 -27.823,7.189 -42.115,9.303c-10.317,1.522 -21.143,3.975 -31.29,6.596c-8.033,2.114 -16.829,5.244 -23.594,10.233c-1.607,1.1 -2.791,2.707 -4.482,3.721c-2.368,1.44 -5.243,1.946 -7.78,2.707c-3.975,1.268 -8.034,2.283 -11.924,3.805c-2.115,0.845 -3.468,2.199 -5.582,3.129c-5.751,2.62 -13.448,4.819 -19.62,6.172c-4.397,0.93 -9.133,1.099 -13.277,3.044c-3.383,1.522 -3.89,5.75 -5.835,8.964z" /> <path d="M961.299,469.935c0.675,-1.099 1.351,-2.115 2.197,-3.129c0.171,0.422 -0.93,1.691 -2.197,3.129z" /> <path d="M300.134,308.75c0.085,-0.594 0.931,-1.184 1.861,-1.861c-0.847,0.594 -1.524,1.184 -1.861,1.861z" /> <path d="M100.148,213.78c0.761,0.759 1.775,1.52 2.875,2.197c-1.184,-0.421 -2.283,-1.097 -2.875,-2.197z" /> <path d="M106.575,217.33c1.184,0.592 2.115,1.184 3.129,1.776c-2.369,-0.932 -4.736,-1.862 -6.681,-3.129c1.184,0.423 2.538,0.761 3.552,1.353z" /> <path d="M-0.843,333.949c1.776,-0.084 3.637,1.861 4.651,3.214c0.083,0.338 0.253,0.593 0.337,0.93c-1.437,-1.269 -3.128,-2.622 -4.989,-4.144z" /> <path d="M255.567,542.41c-0.17,0.169 -0.338,0.254 -0.507,0.423c0.253,-0.254 0.423,-0.339 0.507,-0.423z" /> <path d="M513.526,925.335c-0.678,0.169 -1.268,0.423 -1.945,0.592c0.592,-0.255 1.268,-0.508 1.945,-0.592z" /> <path d="M406.175,899.796c1.268,0.507 1.775,1.522 2.452,2.452z" /> <path d="M409.583,903.514c-0.338,-0.421 -0.676,-0.844 -0.93,-1.267l2.96,3.044c-0.677,-0.509 -1.353,-1.015 -2.03,-1.776z" /> <path d="M700.631,361.35c-0.507,2.114 -1.184,4.228 -2.114,6.089c-0.168,0.254 -0.253,0.592 -0.337,0.846c0.507,-2.453 1.352,-4.738 2.452,-6.935z" /> <path d="M707.011,349.933c-2.03,3.891 -4.481,7.527 -6.342,11.417c0.423,-1.86 0.847,-3.721 1.184,-5.412c0.93,-4.397 -0.591,-8.372 -0.084,-12.431c0.422,-3.637 2.283,-7.442 3.129,-10.994c0.759,-3.383 1.436,-6.851 2.197,-10.233c0.93,-3.891 2.284,-7.781 2.621,-11.84c1.014,6.681 4.482,11.417 3.044,18.436c-1.353,7.019 -2.369,14.63 -5.751,21.057z" /> <path d="M606.617,-5.001c-1.691,4.99 -1.521,10.402 -3.382,15.561c0,0.085 0,0.169 -0.084,0.169v-0.084c-0.508,-5.581 1.86,-10.148 3.467,-15.645z" /> <path d="M428.677,186.125c0,-0.339 0.084,-0.763 0.084,-1.1c0.423,-0.255 0.847,-0.423 1.184,-0.592l-1.267,1.691z" /></svg>