<svg xmlns="http://www.w3.org/2000/svg" viewBox="0 0 1024 1024" width="1024" height="1024"><path d="M320,608v384c0,17.6 -14.4,32 -32,32h-64v-448h64c17.6,0 32,14.4 32,32z" /> <path d="M800,576v448h-64c-17.602,0 -32,-14.4 -32,-32v-384c0,-17.6 14.398,-32 32,-32z" /> <path d="M993.352,686.866c19.47,33.204 30.648,71.864 30.648,113.138c0,112.84 -83.452,206.182 -192,221.714v-443.44c31.926,4.57 61.68,15.872 87.78,32.418c5.39,-26.728 8.22,-54.382 8.22,-82.696c0,-229.75 -186.25,-416 -416,-416c-229.75,0 -416,186.25 -416,416c0,28.312 2.854,55.958 8.246,82.676c26.09,-16.536 55.84,-27.812 87.754,-32.378v443.418c-108.552,-15.528 -192,-108.87 -192,-221.716c0,-41.282 11.178,-79.946 30.656,-113.152c-19.826,-54.558 -30.656,-113.436 -30.656,-174.848c0,-282.77 229.23,-512 512,-512c282.77,0 512,229.23 512,512c0,61.414 -10.82,120.3 -30.648,174.866z" /></svg>