<svg xmlns="http://www.w3.org/2000/svg" viewBox="0 0 515 960" width="515" height="960"><path d="M63.176,947.288c0,-18.25 47.886,-120.248 56.454,-120.248c17.249,0 14.11,23.484 -10.187,76.221c-23.446,50.888 -46.268,72.605 -46.268,44.029zM419.953,940.341c-11.754,-15.517 -51.895,-112.759 -51.895,-125.717c0,-6.232 3.817,-13.689 8.483,-16.573c7.669,-4.74 54.935,86.575 69.385,134.05c6.295,20.683 -12.12,26.526 -25.973,8.24zM184.58,877.793c-162.919,-170.803 -188.014,-339.953 -75.575,-509.399c32.43,-48.873 129.165,-151.117 142.974,-151.117c11.521,0 93.926,97.204 125.739,148.321c52.787,84.817 60.379,110.691 60.379,205.786c0,84.127 -0.953,88.646 -31.713,150.253c-21.612,43.287 -52.687,85.935 -97.564,133.9c-36.218,38.71 -68.661,70.383 -72.094,70.383c-3.433,0 -26.9,-21.657 -52.148,-48.127zM219.737,769.359c0,-14.038 -5.493,-16.48 -37.08,-16.48c-31.587,0 -37.08,2.443 -37.08,16.48c0,14.038 5.493,16.48 37.08,16.48c31.587,0 37.08,-2.443 37.08,-16.48zM333.529,771.42c-2.151,-11.17 -11.083,-14.42 -39.631,-14.42c-28.548,0 -37.48,3.25 -39.632,14.42c-2.355,12.225 3.678,14.42 39.632,14.42c35.954,0 41.986,-2.197 39.631,-14.42zM333.625,693.211c-2.19,-15.35 -8.546,-18.878 -37.653,-20.891c-32.629,-2.258 -35.02,-0.996 -35.02,18.469c0,19.313 2.842,20.891 37.653,20.891c34.295,0 37.418,-1.648 35.02,-18.469zM218.228,689.019c-3.112,-16.412 -60.862,-25.371 -74.652,-11.58c-14.787,14.787 2.543,26.001 40.186,26.001c30.974,0 36.741,-2.414 34.465,-14.42zM330.993,608.679c0,-13.497 -6.338,-16.939 -35.02,-19.013c-32.918,-2.381 -35.02,-1.239 -35.02,19.013c0,20.255 2.102,21.396 35.02,19.013c28.682,-2.077 35.02,-5.516 35.02,-19.013zM218.223,606.619c-2.063,-10.866 -12.368,-15.039 -41.805,-16.931c-34.734,-2.232 -39.066,-0.636 -39.066,14.42c0,14.858 5.122,16.931 41.804,16.931c35.363,0 41.382,-2.222 39.067,-14.42zM215.633,509.623c0,-13.785 -5.624,-16.305 -36.394,-16.305c-40.696,0 -54.663,16.259 -24.037,27.981c32.121,12.293 60.43,6.824 60.43,-11.676zM341.825,507.739c-2.063,-10.866 -12.368,-15.039 -41.805,-16.931c-34.734,-2.232 -39.066,-0.636 -39.066,14.42c0,14.858 5.122,16.931 41.804,16.931c35.363,0 41.382,-2.222 39.067,-14.42zM218.027,432.541c-1.768,-9.334 -13.111,-14.15 -37.485,-15.917c-30.268,-2.193 -34.949,-0.334 -34.949,13.898c0,12.483 6.436,17.091 26.78,19.175c35.958,3.683 48.695,-1.103 45.653,-17.155zM343.354,439.758c0,-9.844 -5.807,-16.858 -14.42,-17.42c-7.931,-0.516 -24.539,-2.141 -36.908,-3.613c-24.51,-2.913 -35.136,6.801 -27.942,25.547c3.079,8.025 16.889,11.965 41.931,11.965c31.845,0 37.339,-2.423 37.339,-16.48zM218.267,359.418c2.401,-16.906 -0.684,-18.54 -35.02,-18.54c-31.019,0 -37.653,2.661 -37.653,15.107c0,22.155 8.386,27.162 40.906,24.426c23.024,-1.937 29.687,-6.34 31.767,-20.993zM340.51,369.363c6.67,-17.383 3.459,-19.205 -38.701,-21.962c-32.686,-2.138 -37.027,-0.36 -39.369,16.137c-2.404,16.922 0.675,18.54 35.279,18.54c26.57,0 39.372,-3.804 42.791,-12.715zM421.34,353.301c-8.975,-20.693 -8.946,-58.685 0.065,-90.703l6.961,-24.72l5.52,30.193c3.037,16.606 3.056,46.27 0.033,65.92c-4.513,29.449 -6.727,32.843 -12.596,19.31zM368.256,314.098c0.195,-20.946 27.011,-84.043 38.801,-91.329c9.296,-5.746 0.402,54.242 -12.93,87.209c-11.066,27.364 -26.122,29.762 -25.871,4.12zM113.152,253.85c-10.52,-25.381 -24.494,-48.206 -31.054,-50.723c-6.56,-2.517 -15.342,-12.414 -19.516,-21.993c-4.174,-9.578 -10.73,-22.978 -14.568,-29.776c-18.973,-33.603 -26.02,-50.31 -26.02,-61.688c0,-6.86 -3.306,-12.472 -7.347,-12.472c-10.092,0 -18.519,-36.866 -12.194,-53.349c3.542,-9.232 12.985,-12.672 30.062,-10.955c25.871,2.602 30.841,8.013 51.491,56.063c6.817,15.863 15.552,34.403 19.413,41.2c14.129,24.884 23.453,64.458 17.467,74.143c-3.396,5.495 2.884,26.106 14.031,46.048c11.098,19.856 18.968,42.344 17.488,49.973c-5.528,28.501 -20.711,18.261 -39.252,-26.471zM335.887,280.009c-7.503,-9.04 -4.053,-15.999 16.506,-33.299c33.034,-27.796 39.067,-21.95 15.95,15.455c-20.698,33.489 -19.855,33.026 -32.455,17.844zM412.152,196.412c-14.107,-36.762 20.513,-130.831 64.831,-176.162c23.19,-23.719 26.666,-24.97 33.826,-12.178c17.526,31.316 -26.718,143.308 -72.118,182.552c-18.443,15.941 -22.318,16.787 -26.539,5.787z" /></svg>