<svg xmlns="http://www.w3.org/2000/svg" viewBox="0 0 842 896" width="842" height="896"><path d="M278.777,280.804c0.042,0 0.082,-0.041 0.124,-0.041c0.042,0 0.083,0 0.124,0.041c-0.082,0 -0.165,0 -0.247,0z" /> <path d="M388.334,191.528c0.083,0 0.207,0.082 0.289,0.082l-0.661,0.041c0.124,-0.042 0.289,-0.124 0.371,-0.124z" /> <path d="M435.242,301.574c0.95,0.826 2.562,1.115 3.388,2.065c1.28,1.529 3.097,4.71 2.85,6.817c-0.165,1.902 -3.182,4.173 -5.247,6.487c-0.95,1.115 -1.941,2.19 -2.891,3.264c-1.198,1.404 -1.571,2.479 -2.603,3.718c-3.801,4.504 -21.029,9.545 -28.301,12.395c-11.155,4.421 -20.822,4.38 -31.524,6.321c-10.618,1.942 -21.731,5.372 -32.474,7.437c-4.958,0.951 -6.444,0.291 -10.287,0.538c-2.52,0.124 -5.123,1.282 -7.643,1.653c-4.668,0.659 -7.065,-0.952 -8.8,-2.191c-2.852,-2.106 -3.678,-6.073 -2.149,-9.667c1.075,-2.396 3.017,-5.288 4.793,-7.808c1.115,-1.611 2.727,-5.33 17.89,-7.189c3.182,-3.596 14.462,-6.776 19.915,-8.925c7.85,-3.056 15.081,-4.709 22.848,-7.767c9.998,-3.967 17.559,-6.156 26.938,-7.561c9.834,-1.529 26.65,-6.075 31.773,-2.232c0.95,0.703 0.661,1.9 1.529,2.644z" /> <path d="M377.098,38.009c-0.082,1.446 1.2,3.719 0.703,4.958c-0.744,2.024 -3.265,4.917 -6.156,5.041c-2.603,0.041 -8.056,-3.058 -12.725,-4.297c-2.191,-0.662 -4.339,-1.199 -6.446,-1.612c-2.727,-0.538 -4.215,-0.291 -6.57,-0.538c-8.098,-1.9 -30.326,-8.511 -40.572,-7.064c-14.957,0.826 -26.607,0.62 -39.87,4.917c-13.055,4.42 -24.707,13.551 -33.094,23.921c-3.802,4.832 -5.496,5.741 -8.429,9.667c-1.819,2.644 -2.604,6.28 -3.801,9.379c-2.148,5.784 -4.75,7.932 -6.941,9.502c-3.429,2.603 -8.18,1.611 -11.155,-3.182c-2.026,-3.264 -3.72,-8.304 -4.711,-12.973c-0.082,-2.356 -4.461,-9.999 12.643,-29.459c1.446,-7.478 16.939,-21.403 26.153,-26.732c12.766,-8.303 26.029,-12.725 41.316,-16.443c20.038,-4.544 36.235,-3.926 53.463,0.826c18.757,3.635 48.175,22.433 48.01,31.441c0.123,1.447 -1.736,1.321 -1.818,2.644z" /> <path d="M759.148,197.024c0.993,-0.331 2.026,-0.992 3.058,-1.281c2.191,-0.579 4.338,-1.488 6.776,-1.735c1.197,-0.082 2.438,-0.289 3.635,-0.371c1.28,-0.041 2.437,0.247 3.718,0.165c1.034,-0.042 2.067,-0.207 3.099,-0.289c1.406,-0.082 2.727,0.206 4.132,0.124c0.992,-0.042 1.983,-0.165 2.933,-0.289c1.611,-0.165 3.182,-0.371 4.752,-0.247c1.487,0.164 2.932,-0.042 4.42,0.082c1.611,0.165 3.223,-0.288 4.793,-0.082c1.488,0.167 2.603,0.621 4.173,0.497c1.982,-0.166 3.47,0 5.37,0.247c1.321,0.206 2.437,-0.206 3.718,-0.124c1.447,0.042 2.85,0.415 4.297,0.497c1.944,0.082 3.761,0.414 5.62,0.579c1.653,0.165 2.933,0.288 4.503,0.785c2.106,0.662 4.585,1.321 6.817,1.818c0.455,0.124 0.908,0.248 1.405,0.413c1.365,0.412 2.811,1.032 3.885,1.776c1.735,1.158 2.437,4.09 1.156,5.743c-0.455,0.579 -2.314,1.405 -3.058,1.735c-1.074,0.538 -2.397,0.951 -3.553,1.364c-1.075,0.453 -5.784,2.52 -5.495,3.676l-0.497,-0.206c0.991,1.984 2.85,3.802 3.676,5.743c1.24,2.811 -0.66,4.049 -3.801,4.752c-0.826,0.208 -1.239,0.084 -2.065,0.455c-0.743,0.371 -0.991,0.867 -1.982,1.032c-0.329,1.776 0.456,4.132 0.703,5.908c0.126,0.991 1.076,3.594 0.497,4.544c-0.538,0.868 -3.058,1.199 -4.132,1.488c-2.479,0.579 -5.826,0.785 -5.867,3.347c-0.041,1.818 0.868,3.636 0.744,5.412c-0.165,1.941 -2.935,2.974 -4.876,3.429c-1.074,0.247 -1.818,0.659 -2.768,1.156c-1.156,0.62 -1.156,0.165 -1.032,1.529c0.083,1.24 0.248,2.273 1.074,3.347c0.744,0.95 0.785,1.445 0.95,2.726c0.082,0.62 0.538,1.817 0.041,2.355c-0.785,0.785 -2.852,0.496 -4.049,0.661c-1.612,0.206 -1.571,0.497 -1.653,1.653c-0.041,1.156 -0.247,2.232 -0.206,3.388c0.125,2.315 -1.817,1.074 -3.676,0.703c-2.561,-0.497 -5.04,-0.165 -7.602,-0.744c-2.19,-0.496 -4.38,-0.744 -6.487,-1.405c-2.232,-0.702 -4.545,-1.446 -6.652,-2.355c-2.396,-1.032 -4.752,-2.355 -7.272,-3.223c-2.932,-0.95 -5.411,-2.52 -7.643,-4.214c-0.785,-0.578 -1.611,-0.701 -2.355,-1.239c-0.537,-0.372 -0.744,-1.2 -1.281,-1.653c-0.537,-0.453 -1.156,-0.826 -1.776,-1.156c-0.785,-0.496 -1.9,-0.826 -2.685,-1.364c-1.241,-0.868 -2.026,-2.191 -3.223,-3.182c-2.438,-1.982 -4.67,-3.8 -6.611,-6.114c-1.571,-1.819 -3.139,-3.513 -4.462,-5.495c-0.703,-1.073 -1.447,-1.9 -2.438,-2.726c-0.66,-0.579 -1.694,-2.397 -2.809,-2.397c-0.124,-0.91 0.785,-1.24 0.95,-2.149c0.126,-0.661 0.456,-0.867 0.497,-1.57c0,-0.288 -0.124,-0.702 -0.165,-0.991c-0.166,-1.032 0.206,-1.694 0.247,-2.685c0.123,-1.156 0.62,-2.314 0.991,-3.47c1.281,-3.802 3.181,-7.975 5.495,-11.569c1.321,-2.108 2.521,-4.505 5.247,-5.661c0.909,-0.372 1.859,-0.455 2.809,-0.785c0.908,-0.247 1.57,-0.702 2.355,-1.032c1.156,-0.538 2.438,-0.91 3.635,-1.323z" /> <path d="M64.307,428.133c0.744,0.66 1.818,1.238 2.479,1.941c1.488,1.529 3.223,2.893 4.379,4.752c0.538,0.908 1.197,1.817 1.694,2.726c0.536,0.993 0.618,2.026 1.156,3.017c0.456,0.785 0.992,1.529 1.447,2.314c0.62,1.114 0.785,2.231 1.364,3.305c0.414,0.785 0.867,1.529 1.364,2.232c0.785,1.197 1.528,2.395 1.941,3.676c0.414,1.239 1.116,2.315 1.529,3.512c0.413,1.321 1.488,2.436 1.818,3.759c0.33,1.238 0.247,2.273 0.95,3.47c0.868,1.529 1.24,2.726 1.653,4.338c0.249,1.115 1.117,1.859 1.488,2.891c0.453,1.156 0.578,2.438 0.991,3.594c0.579,1.528 0.909,3.098 1.364,4.627c0.414,1.364 0.744,2.438 0.744,3.843c0.042,1.9 0.249,4.132 0.455,6.032c0.041,0.413 0.082,0.826 0.082,1.239c0,1.28 -0.166,2.603 -0.579,3.759c-0.62,1.778 -3.635,3.388 -5.908,2.975c-0.785,-0.164 -2.356,-1.363 -3.017,-1.776c-0.991,-0.661 -1.9,-1.611 -2.809,-2.355c-0.827,-0.703 -4.835,-3.637 -5.991,-3.017l0.082,-0.455c-1.859,1.487 -3.182,3.594 -5.041,4.999c-2.644,1.941 -4.711,0.909 -6.611,-1.323c-0.495,-0.579 -0.536,-0.95 -1.239,-1.488c-0.662,-0.453 -1.321,-0.494 -1.818,-1.197c-2.107,0.371 -4.38,1.859 -6.321,2.685c-1.034,0.454 -3.554,2.148 -4.793,2.024c-1.159,-0.123 -2.438,-1.982 -3.141,-2.726c-1.53,-1.735 -2.976,-4.297 -5.785,-3.429c-1.984,0.579 -3.72,1.982 -5.702,2.52c-2.19,0.579 -4.34,-1.239 -5.537,-2.644c-0.62,-0.744 -1.364,-1.156 -2.273,-1.735c-1.115,-0.702 -0.577,-0.868 -2.065,-0.289c-1.323,0.536 -2.396,1.033 -3.264,2.065c-0.826,0.909 -1.321,1.156 -2.644,1.735c-0.703,0.289 -1.818,1.074 -2.603,0.868c-1.159,-0.331 -1.571,-2.107 -2.191,-2.975c-0.827,-1.2 -1.116,-1.033 -2.397,-0.703c-1.323,0.371 -2.562,0.577 -3.843,1.074c-2.478,0.909 -1.818,-1.074 -2.065,-2.644c-0.412,-2.23 -1.653,-4.048 -1.9,-6.321c-0.247,-1.902 -0.785,-3.72 -0.785,-5.62c-0.041,-2.024 -0.082,-4.091 0.165,-6.073c0.289,-2.272 0.909,-4.586 0.909,-6.941c0,-2.644 0.909,-5.164 1.941,-7.561c0.373,-0.785 0.167,-1.488 0.497,-2.273c0.208,-0.58 1.075,-1.033 1.364,-1.612c0.331,-0.579 0.496,-1.198 0.661,-1.818c0.249,-0.827 0.208,-1.818 0.538,-2.603c0.496,-1.279 1.694,-2.395 2.314,-3.676c1.321,-2.644 2.52,-5.082 4.379,-7.437c1.487,-1.901 2.768,-3.76 4.462,-5.495c0.91,-0.951 1.57,-1.859 2.149,-2.933c0.373,-0.744 1.983,-2.19 1.612,-3.058c0.991,-0.454 1.652,0.165 2.726,-0.041c0.744,-0.165 1.074,0.041 1.859,-0.165c0.33,-0.126 0.744,-0.332 1.074,-0.497c1.076,-0.497 1.943,-0.455 3.058,-0.744c1.282,-0.331 2.768,-0.373 4.132,-0.455c4.668,-0.373 9.956,-0.373 14.749,0.165c2.811,0.289 5.867,0.372 8.14,2.107c0.744,0.577 1.156,1.321 1.859,1.941c0.618,0.62 1.321,0.991 1.982,1.488c0.992,0.744 1.9,1.612 2.768,2.397z" /> <path d="M346.337,50.382c1.735,1.158 4.379,1.735 5.867,3.058c3.14,2.768 6.984,4.711 8.925,8.346c0.909,1.694 2.065,3.223 2.809,4.958c0.784,1.817 0.413,4.008 1.239,5.743c0.579,1.321 1.529,2.437 2.149,3.718c0.784,1.736 0.537,3.842 1.281,5.495c0.495,1.158 1.157,2.191 1.818,3.182c0.994,1.611 1.985,3.182 2.191,5.123c0.165,1.776 1.073,3.058 1.197,4.793c0.165,1.776 1.694,2.809 1.653,4.585c0,1.653 -0.703,3.181 0.041,4.462c0.868,1.57 0.95,3.017 0.868,4.917c-0.042,1.28 1.074,1.735 1.239,2.809c0.206,1.198 -0.165,2.645 0,3.801c0.248,1.486 0.042,3.097 0.124,4.544c0.042,1.28 0.083,2.23 -0.455,3.718c-0.744,1.859 -1.363,3.967 -1.818,5.702c-0.082,0.33 -0.206,0.702 -0.371,1.115c-0.456,1.156 -1.241,2.438 -2.232,3.594c-1.529,1.818 -6.238,4.462 -9.337,5.123c-1.033,0.206 -2.892,-0.083 -3.718,-0.165c-1.198,-0.083 -2.273,-0.456 -3.347,-0.703c-1.074,-0.206 -6.197,-0.909 -7.973,0.165l0.165,-0.413c-2.974,2.107 -5.164,4.421 -7.973,6.321c-3.843,2.644 -6.611,2.768 -9.09,1.859c-0.703,-0.208 -0.744,-0.497 -1.694,-0.579c-0.909,-0.083 -1.859,0.206 -2.562,-0.165c-2.974,1.241 -6.197,3.388 -8.841,4.835c-1.446,0.785 -4.793,3.098 -6.487,3.553c-1.61,0.412 -3.511,-0.373 -4.585,-0.62c-2.397,-0.579 -4.75,-1.859 -8.635,0.041c-2.685,1.321 -4.793,3.099 -7.437,4.338c-2.892,1.323 -6.28,0.993 -8.387,0.538c-1.156,-0.206 -2.312,-0.206 -3.759,-0.206c-1.82,0 -1.117,-0.33 -3.017,0.744c-1.694,0.95 -3.017,1.735 -3.885,2.85c-0.742,0.95 -1.321,1.323 -2.933,2.273c-0.826,0.497 -2.067,1.488 -3.223,1.653c-1.693,0.289 -3.058,-0.62 -4.255,-0.95c-1.694,-0.412 -2.064,-0.165 -3.676,0.62c-1.653,0.785 -3.223,1.488 -4.752,2.314c-2.933,1.653 -3.058,0.124 -4.297,-0.744c-1.818,-1.281 -4.669,-1.941 -6.487,-3.388c-1.57,-1.198 -3.553,-2.271 -4.917,-3.718c-1.488,-1.529 -3.058,-3.182 -4.214,-4.917c-1.364,-2.15 -2.191,-4.544 -4.173,-6.735c-2.355,-2.604 -3.099,-5.702 -3.47,-8.925c-0.125,-1.115 -1.158,-1.859 -1.364,-2.933c-0.124,-0.785 0.991,-1.9 0.991,-2.809c0,-0.868 -0.29,-1.776 -0.579,-2.644c-0.412,-1.197 -1.529,-2.52 -1.735,-3.759c-0.412,-2.106 0.785,-4.503 0.703,-6.817c-0.247,-5 -0.496,-9.874 0.785,-15.452c1.116,-4.667 1.86,-9.337 3.801,-14.46c1.033,-2.809 1.571,-5.329 1.653,-8.387c0.082,-2.067 2.355,-7.19 0.206,-9.09c2.025,-1.983 4.71,-1.074 7.272,-2.603c1.818,-1.076 2.976,-0.868 4.835,-2.232c0.785,-0.579 1.652,-1.611 2.355,-2.314c2.438,-2.397 4.793,-3.1 7.561,-5.041c3.305,-2.271 7.437,-3.759 11.196,-5.412c12.931,-5.785 28.094,-11.032 42.266,-14.296c8.099,-1.819 17.022,-4.669 23.509,-1.364c2.025,1.073 3.14,2.933 4.958,4.214c1.653,1.156 3.512,1.611 5.288,2.479c2.521,1.197 4.628,2.85 6.735,4.255z" /> <path d="M697.357,177.545c0.785,-0.951 1.57,-1.942 2.314,-2.933c1.694,-2.149 3.513,-3.429 6.363,-4.173c3.263,-0.868 7.105,-1.529 10.452,-2.273c1.156,-0.249 2.355,-0.373 3.47,-0.579c3.926,-0.661 5.826,-0.826 9.214,1.074c3.222,1.776 6.197,2.726 7.023,5.949c0.992,3.635 0.992,6.94 0.289,10.493c-0.453,2.312 -1.156,4.874 -1.982,7.147c-0.785,2.108 -2.562,3.676 -3.182,5.867c-1.034,3.513 -1.902,7.065 -3.141,10.577c-0.702,2.024 -0.288,4.461 -1.032,6.279c-0.497,1.279 -1.901,2.231 -2.562,3.47c-0.579,1.198 -0.579,2.315 -1.405,3.512c-0.826,1.156 -1.858,2.232 -2.726,3.388c-1.818,2.232 -3.594,4.503 -5.412,6.776c-0.867,1.074 -1.653,2.397 -2.685,3.388c-1.199,1.197 -1.736,1.032 -3.017,1.9c-3.017,2.064 -6.199,5.411 -9.793,6.899c-3.554,1.445 -7.478,0.495 -10.66,-1.281c-3.429,-1.9 -3.8,-2.602 -4.42,-5.949c-0.497,-2.562 -0.042,-4.132 2.52,-5.991c0.33,0.124 0.62,0.206 0.95,0.33c-5.288,-11.484 -5.246,-15.534 -4.049,-19.583c1.115,-3.841 0.621,-7.602 2.603,-11.361c0.744,-1.447 2.067,-2.562 3.017,-3.926c1.073,-1.447 1.115,-2.685 1.57,-4.297c0.909,-3.347 4.132,-5.702 4.503,-9.214c0.208,-1.694 -1.115,-1.034 -0.247,-3.141c0.33,-0.702 1.527,-1.735 2.024,-2.355z" /> <path d="M679.89,172.046c0.29,0.373 0.703,0.868 0.579,1.323c-0.207,0.578 -0.991,0.826 -1.488,1.281c-0.661,0.66 -0.909,1.487 -1.57,2.107c-0.579,0.621 -0.621,0.951 -0.868,1.612c-0.165,0.456 -0.661,0.95 -0.785,1.488c-0.124,0.455 -0.165,0.909 -0.371,1.364c-0.579,1.282 -0.538,2.562 -0.909,3.885c-0.371,1.365 -0.579,2.768 -0.95,4.091c-0.082,0.414 -0.537,0.908 -0.661,1.405c-0.166,0.703 -0.166,1.488 -0.455,2.191c-0.412,0.992 -0.785,2.026 -0.95,3.141c-0.167,1.364 -1.076,2.603 -1.323,3.967c-0.33,1.941 -1.074,3.885 -1.074,5.826c0,0.868 0.744,2.727 0.165,3.553c-0.414,0.62 -1.446,0.62 -2.149,0.826c-1.033,0.288 -2.15,0.661 -3.182,1.032c-1.942,0.702 -3.885,1.364 -5.785,2.149c-0.166,0.041 -0.289,0.124 -0.413,0.165c-0.166,0 -0.29,-0.041 -0.455,-0.041c-11.197,-0.041 -22.394,-0.124 -33.59,-0.33c-1.074,-0.206 -2.191,-0.371 -3.388,-0.371c-4.09,0 -8.18,-0.206 -12.271,-0.371c-7.685,-0.373 -15.328,-0.95 -23.013,-1.405c-1.528,-0.126 -3.099,-0.332 -4.669,-0.497c-0.041,0 -0.041,-0.041 -0.082,-0.082c-0.95,-0.744 -1.776,-1.652 -2.726,-2.52c-0.207,-0.208 -0.414,-0.373 -0.62,-0.538c-0.868,0.412 -1.735,0.826 -2.644,1.156c-1.115,0.372 -2.232,0.455 -3.347,0.785c-0.206,0.041 -0.414,0.124 -0.661,0.206c-11.65,-1.241 -23.342,-2.603 -34.994,-4.132c-2.438,-0.289 -4.752,0.373 -6.817,1.57c-14.957,-3.841 -29.294,-9.296 -44.663,-11.196c-0.041,-1.075 -0.124,-2.15 -0.165,-3.182c-0.042,-0.785 -0.083,-1.57 -0.124,-2.355c-0.082,-0.826 -0.62,-1.488 -0.826,-2.273c-0.166,-0.66 -0.208,-1.28 -0.455,-1.941c-0.453,-1.156 -0.494,-2.273 -0.991,-3.429c-0.289,-0.579 -0.248,-1.074 -0.33,-1.694c-0.123,-0.785 -0.661,-1.488 -0.826,-2.273c-0.618,-2.355 -1.653,-4.544 -2.809,-6.817c-0.62,-1.157 -1.238,-2.315 -1.735,-3.512c-0.207,-0.371 -0.165,-0.701 -0.289,-1.156c-0.206,-0.826 -0.702,-1.694 -0.991,-2.52c-0.247,-0.868 -0.455,-1.777 -0.826,-2.603c-0.33,-0.744 -0.248,-1.612 -0.289,-2.438c-0.123,-1.529 0.165,-2.767 0.868,-4.255c0.618,-1.365 1.321,-2.727 1.982,-4.091c0.206,-0.497 0.29,-0.992 0.661,-1.447c0.371,-0.496 0.826,-0.867 1.197,-1.364c0.703,-1.115 1.323,-1.982 2.479,-2.85c0.124,-0.082 0.207,-0.124 0.289,-0.206c0.166,-0.124 0.373,-0.289 0.579,-0.413c0.248,-0.124 0.497,-0.248 0.703,-0.413c0.249,-0.166 0.249,-0.249 0.579,-0.455c0.991,-0.538 2.314,-0.785 3.305,-1.364c2.23,-1.321 4.585,-2.397 6.982,-3.553c1.2,-0.535 2.688,-0.577 3.885,-1.032c1.157,-0.456 2.356,-0.95 3.512,-1.488c2.106,-0.991 4.626,-1.403 7.064,-1.9c0.497,-0.124 0.991,-0.165 1.529,-0.33c0.579,-0.165 0.909,-0.165 1.488,-0.247c0.455,-0.083 0.909,-0.207 1.364,-0.289c0.167,-0.041 0.332,-0.124 0.497,-0.165c0.497,-0.166 0.868,-0.495 1.529,-0.413v0c0.659,-0.167 1.321,-0.373 1.982,-0.538c1.9,-0.538 3.512,-0.332 5.453,-0.579c1.861,-0.165 3.678,-0.579 5.537,-0.744c1.365,-0.082 2.727,-0.082 4.091,-0.082c1.197,0.329 2.354,0.661 3.635,0.826c13.139,1.652 26.029,4.297 38.837,7.272c1.156,0.618 2.273,1.279 3.305,1.982c0.166,0.082 0.331,0.165 0.455,0.247c0.124,-0.042 0.247,-0.083 0.371,-0.124c0.662,-0.29 1.447,-0.455 2.191,-0.661c22.683,5.412 45.282,11.487 68.543,14.378c1.075,0.164 1.984,0.082 2.975,0.082c6.528,2.108 13.014,4.38 19.501,6.735c0.247,0.33 0.455,0.661 0.744,0.95c0.413,0.412 0.909,0.618 1.239,1.156c0.247,0.371 0.496,0.538 0.785,0.909c0.413,0.455 0.784,0.95 1.239,1.405c1.403,1.405 3.346,2.644 4.42,4.173c0.33,0.456 0.578,0.95 0.991,1.447z" /> <path d="M192.291,264.695c-0.579,0.744 -1.076,1.488 -1.447,2.397c-10.576,24.047 -32.226,40.696 -46.563,62.346c-12.725,19.17 -20.492,41.935 -40.655,54.413c-4.75,2.933 -6.858,7.106 -7.064,11.279c0,0.041 -0.041,0.041 -0.082,0.041c-0.95,0.456 -1.982,0.991 -2.891,1.488c-0.619,0.33 -1.281,0.991 -2.107,0.909c-1.117,-0.123 -2.397,-1.776 -3.182,-2.314c-1.818,-1.197 -4.05,-1.941 -6.032,-2.891c-1.445,-0.703 -3.139,-0.868 -4.544,-1.612c-1.157,-0.579 -2.315,-0.952 -3.512,-1.323c-0.826,-0.206 -1.529,-0.744 -2.314,-1.074c-0.497,-0.206 -1.239,-0.206 -1.694,-0.371c-1.446,-0.577 -2.891,-1.362 -4.379,-1.941c-1.406,-0.579 -2.603,-1.405 -4.132,-1.818c-0.579,-0.124 -1.033,-0.414 -1.488,-0.579c-0.578,-0.248 -1.321,-0.207 -1.859,-0.413c-0.785,-0.248 -1.115,-0.413 -2.024,-0.413c-0.992,0 -1.942,-0.33 -2.933,-0.289c-0.743,0.041 -1.487,0.412 -2.107,0.206c-0.538,-0.206 -0.744,-0.784 -0.868,-1.197c-0.206,-0.579 -0.497,-1.073 -0.744,-1.57c-0.744,-1.652 -0.702,-3.719 -1.115,-5.495c-0.125,-0.62 -0.373,-1.156 -0.538,-1.735c-0.124,-0.413 -0.165,-0.661 -0.371,-1.074c-0.247,-0.579 -0.165,-1.032 -0.247,-1.57c-0.123,-0.538 -0.579,-0.992 -0.661,-1.653c-0.166,-0.785 -0.332,-1.488 -0.579,-2.273c0,-0.041 -0.041,-0.083 -0.041,-0.165c0.495,-0.826 0.909,-1.735 1.239,-2.644c10.329,-27.021 34.912,-45.199 52.595,-66.973c15.66,-19.213 30.203,-45.034 54.662,-54.124c3.884,-1.446 7.107,-4.173 8.966,-7.602c1.321,0.454 2.52,0.95 3.635,1.818c0.701,0.538 1.568,0.991 2.065,1.694c0.495,0.744 1.239,1.446 1.859,2.149c0.62,0.744 1.074,1.57 1.735,2.273c0.33,0.33 0.662,0.497 0.909,0.868c0.744,1.074 1.446,2.232 2.149,3.347c1.362,2.147 2.767,4.214 4.585,6.073c0.579,0.618 0.95,1.403 1.57,1.982c0.496,0.455 0.992,0.702 1.405,1.281c0.703,1.033 1.736,1.777 2.562,2.768c0.456,0.579 0.95,0.991 1.447,1.488c0.662,0.659 0.909,1.403 1.653,1.982c0.66,0.497 1.362,1.032 2.065,1.529z" /> <path d="M696.722,710.086c5.29,15.204 5.867,28.466 10.66,43.547c3.429,10.742 11.445,23.344 -0.33,19.377c-6.073,-2.065 -11.238,-2.395 -17.146,-3.759c-5.742,-1.28 -7.394,-2.024 -7.023,6.652c0.247,6.403 3.512,18.343 0.165,21.525c-2.23,2.191 -8.635,-2.065 -12.023,-3.47c-6.609,-2.726 -9.13,-3.842 -14.708,-9.337c-6.197,-6.116 -11.526,-8.346 -17.931,-10.743c-7.146,-2.644 -4.708,-1.902 -6.899,3.635c-1.736,4.462 -3.223,7.974 -3.512,13.552c-0.618,10.204 -3.346,24.127 -13.055,22.227c-8.965,-1.777 -19.211,-9.668 -28.301,-12.023c-12.972,-3.347 -11.072,14.915 -11.981,27.723c-0.414,5.785 0.041,19.089 -3.967,20.948c-4.173,1.941 -18.304,-7.272 -23.468,-9.379c-9.462,-3.926 -22.022,-11.652 -30.863,-12.313c0.082,5.123 -2.273,5.908 -3.388,9.543c-1.2,3.967 -0.291,6.446 -0.497,10.825c-0.826,16.361 -5.661,25.039 -20.824,14.296c-10.784,-7.602 -21.609,-20.369 -32.723,-28.756l1.529,3.058c-6.073,-3.305 -12.602,19.792 -13.758,25.162c-1.281,5.744 -2.067,12.643 -3.843,17.89c-1.197,3.471 -3.718,12.643 -6.238,14.296c-7.272,4.876 -22.889,-3.305 -30.285,-14.584c-4.711,-7.19 -9.09,-15.989 -12.602,-24.294c-1.158,-2.852 -2.232,-5.661 -3.182,-8.305c-4.627,-13.057 -10.123,-27.889 -15.246,-40.408c-3.882,-9.42 -5.7,-16.816 -7.973,-26.318c-2.603,-10.578 -5.783,-21.113 -8.015,-31.938c-1.694,-8.097 -4.793,-16.609 -6.363,-24.624c-1.447,-7.229 -0.372,-12.808 -2.479,-20.41c-3.098,-11.073 -5.164,-19.501 -6.073,-30.244c-0.742,-8.593 -4.006,-15.328 -6.279,-23.88c-2.437,-9.006 -1.527,-17.352 -3.676,-26.401c-1.983,-8.511 -2.356,-16.236 -4.297,-24.665c-2.067,-9.049 -2.562,-17.56 -3.017,-26.112c-0.288,-5.246 -0.536,-10.536 -1.156,-15.948c-0.867,-7.726 -3.511,-15.328 -4.255,-23.095c-0.577,-5.619 -0.577,-11.072 -1.156,-16.733c-0.744,-7.149 -3.347,-13.883 -4.173,-21.03c-0.701,-6.57 -0.742,-12.973 -1.239,-19.46c-1.034,-13.263 1.694,-23.839 2.809,-35.326c0.496,-5.372 2.892,-9.998 3.801,-15.039c1.032,-6.033 1.858,-12.519 3.47,-18.262c1.115,-3.926 2.686,-7.066 3.347,-11.528c0.744,-4.834 0.249,-10.123 1.405,-14.543c3.596,-13.469 14.71,-16.692 24.171,-21.03c16.443,-7.602 35.944,-12.188 54.289,-13.758c5.413,-0.455 10.948,-1.652 16.733,-0.455c4.999,0.992 8.016,0 13.428,2.397c1.611,0.703 3.8,1.861 5.329,2.232c3.553,0.91 4.297,-0.743 7.396,-0.413c4.503,0.495 5.412,-4.131 10.205,-2.149c0.991,6.074 11.155,14.544 14.625,19.047c5.247,6.693 10.122,11.983 16.113,17.436c11.322,10.289 21.195,21.362 31.979,32.682c13.511,14.131 24.832,29.253 37.061,45.613c6.033,8.099 13.594,14.46 19.047,22.559c3.388,4.958 6.032,11.61 9.255,16.898c2.314,3.8 4.793,7.891 7.437,11.361c2.768,3.594 7.312,6.032 9.626,9.502c3.347,4.876 4.793,9.876 8.346,14.875c10.577,14.914 20.864,30.862 28.343,48.504c6.488,15.411 15.369,30.243 22.848,45.241c6.446,12.932 12.147,26.731 17.725,40.159c5.206,12.602 8.346,25.204 12.808,37.97z" /> <path d="M98.235,410.658c3.305,0.123 4.958,0.785 6.899,2.314c2.438,1.984 2.811,2.52 2.191,4.669c-0.537,2.065 -2.355,3.924 -5.949,4.379c-3.637,0.455 -8.678,-0.207 -12.437,-0.289c-1.611,0 -1.817,0.288 -3.635,0.041c-1.529,-0.165 -3.182,-0.579 -4.711,-0.868c-3.14,-0.579 -6.32,-1.156 -9.461,-1.735c-1.529,-0.289 -3.182,-0.538 -4.711,-0.868c-1.57,-0.332 -2.52,-0.909 -3.967,-1.364c-1.529,-0.412 -3.264,-0.412 -4.711,-0.95c-2.023,-0.702 -3.882,-2.149 -6.114,-2.975c-3.841,-1.445 -7.478,-3.015 -11.237,-4.544c-2.313,-0.95 -4.834,-1.156 -7.189,-2.024c-2.48,-0.867 -5.165,-2.025 -7.479,-3.099c-3.555,-1.653 -6.405,-3.388 -8.925,-5.661c-2.191,-1.984 -1.076,-3.513 -0.497,-5.578c0.62,-2.189 2.023,-2.768 5.164,-3.759c0.95,-0.289 1.818,-0.662 2.768,-0.909c2.892,-0.744 5.992,-1.736 8.883,-2.397c2.561,-0.579 4.832,-0.538 7.849,0.041c1.364,0.247 2.685,0.497 4.049,0.744c0.868,0.125 2.562,0.291 3.388,0.538c2.396,0.826 0.95,0.95 2.52,1.776c3.347,1.693 7.478,1.858 10.99,3.305c1.694,0.702 2.811,1.321 4.752,1.776c1.777,0.371 3.677,0.494 5.412,0.991c4.546,1.322 7.479,3.511 11.528,5.123c4.297,1.776 7.85,3.884 14.296,11.816c0.124,-0.167 0.206,-0.332 0.33,-0.497z" /> <path d="M487.93,128.341c1.075,1.405 2.769,2.561 3.843,4.008c-1.405,1.034 -5.784,-4.214 -7.396,-3.635c-3.966,1.405 -7.519,2.81 -10.122,5.743c-1.032,1.156 -2.106,2.106 -2.726,3.429c-0.662,1.321 -1.9,2.354 -2.603,3.635c-0.414,0.785 -1.034,1.57 -1.364,2.355c-0.248,0.496 -0.042,1.073 -0.289,1.57c-0.124,0.206 -0.538,0.497 -0.579,0.703c-0.455,1.282 -0.744,2.727 -1.323,4.132c-1.156,2.769 -1.611,5.372 -1.9,8.222c-0.206,1.942 0,3.844 -0.247,5.785c-0.206,1.901 0.414,3.761 0.455,5.702c0.042,0.662 0.29,1.157 0.455,1.818c0.165,1.076 -0.33,2.109 0,3.141c0.164,0.538 0.496,1.032 0.661,1.529c0.331,0.827 0.248,1.571 0.413,2.397c0.371,1.983 0.577,4.091 1.115,6.032c0.207,0.785 0.744,1.488 0.868,2.314c0.124,0.826 0.124,1.612 0.413,2.438c0.537,1.653 2.149,3.843 2.149,5.702c0,0.538 -0.126,1.074 -0.497,1.529c0,0.041 -0.041,0.041 -0.082,0.082c-0.785,0.992 -1.985,1.28 -3.182,2.024c-1.158,0.744 -2.067,1.736 -3.099,2.562c-0.62,0.497 -0.867,0.991 -1.405,1.529c-0.414,0.412 -1.075,0.701 -1.488,1.156c-0.538,0.662 -0.991,1.198 -1.57,1.818c-1.033,1.073 -1.28,2.19 -2.065,3.305c-0.579,0.826 -1.199,1.364 -1.529,2.273c-0.577,1.612 -0.827,3.223 -1.074,4.876c-0.249,1.24 0.33,2.15 0.289,3.347c0,0.909 -0.248,1.57 0.041,2.438c0.33,0.867 0.456,0.785 -0.041,1.364c-0.415,0.537 -1.53,1.321 -2.191,1.818c-0.95,0.827 -1.694,1.612 -2.562,2.397c-1.158,1.074 -2.687,1.818 -3.843,2.85c-0.868,0.744 -1.486,1.694 -2.024,2.562c-0.702,1.156 -1.694,2.19 -2.314,3.305c-0.703,1.241 -1.404,2.81 -1.859,4.091c-0.289,0.826 -0.248,1.941 -0.413,2.85c-0.124,0.744 -0.083,1.488 -0.165,2.273c-0.33,2.438 0.661,4.379 1.57,6.652c0.207,0.538 0.373,1.115 0.62,1.612c0.288,0.621 0.826,0.909 1.197,1.447c0.494,0.744 0.661,1.818 0.991,2.644c0.703,1.86 1.447,3.719 2.191,5.578c-0.909,1.197 -1.817,2.397 -2.685,3.594c-1.653,2.397 -3.347,4.711 -6.073,6.57c-0.95,0.619 -1.776,1.404 -2.726,2.024c-0.95,0.538 -1.818,0.785 -2.644,1.488c-0.908,0.743 -1.652,1.486 -2.726,2.024c-0.579,0.288 -1.198,0.537 -1.818,0.826c-0.867,0.497 -1.57,1.157 -2.479,1.612c-0.868,0.453 -1.777,0.618 -2.603,1.156c-1.157,0.786 -2.52,1.488 -3.801,2.191c-1.612,0.868 -3.223,1.198 -4.917,1.818c-1.859,0.744 -3.471,1.403 -5.412,1.941c-2.976,0.826 -5.95,1.652 -8.925,2.52c-1.446,0.371 -3.099,1.033 -4.669,1.115c-0.702,0 -1.363,-0.083 -2.107,-0.124c-0.701,-0.041 -1.279,0.165 -1.982,0.165c-1.156,0.042 -2.644,-0.207 -3.759,-0.413c-1.612,-0.29 -3.182,-0.414 -4.835,-0.455c-0.66,0 -1.28,-0.124 -1.941,-0.124c-0.743,-0.041 -1.363,0.165 -2.107,0.206c-2.149,0.165 -4.296,-0.288 -6.487,-0.041c-1.569,0.206 -2.686,0.867 -3.718,1.776c-0.867,0.743 -1.074,1.363 -1.735,2.107c-0.453,0.62 -1.321,1.156 -1.9,1.694c-0.662,0.62 -1.447,0.867 -2.191,1.405c-0.579,0.414 -0.992,0.908 -1.447,1.405c-1.776,1.694 -4.006,2.356 -6.238,3.512c-4.132,2.149 -8.677,3.594 -13.304,4.917c-2.354,0.659 -4.75,1.321 -7.147,1.982c-0.497,0.166 -1.032,0.29 -1.529,0.455c-1.403,0.371 -2.271,0.207 -3.676,0.289c-1.238,0.124 -2.395,0.371 -3.676,0.371c-1.653,0.041 -3.388,0.082 -5.082,0.041c-4.049,-0.124 -8.015,0.206 -12.064,0.082c-2.562,-0.083 -5.123,-0.083 -7.685,-0.165c-2.231,-0.042 -4.337,-0.248 -6.528,-0.413c-1.612,-0.082 -2.974,-0.29 -4.503,-0.579c-2.479,-0.495 -5.206,-0.247 -7.685,-0.95c-1.405,-0.412 -2.891,-0.743 -4.338,-1.156c-0.414,-0.126 -1.033,-0.456 -1.488,-0.497c-0.579,-0.083 -1.238,0.123 -1.776,0.082c-0.95,-0.084 -1.818,-0.373 -2.768,-0.497c-0.951,-0.084 -2.107,-0.208 -2.975,-0.497c-1.487,-0.412 -3.097,-1.074 -4.42,-1.735c-1.859,-0.991 -3.843,-1.859 -5.702,-2.85c-1.571,-0.785 -2.686,-1.941 -4.091,-2.809c-1.321,-0.785 -2.644,-1.447 -3.759,-2.438c-0.703,-0.662 -1.282,-1.115 -2.191,-1.653c-0.785,-0.455 -1.611,-1.115 -2.314,-1.694c-1.611,-1.28 -2.768,-3.015 -4.173,-4.462c-0.577,-0.579 -1.404,-1.074 -2.065,-1.653c-0.95,-0.826 -1.9,-1.694 -2.891,-2.479c-2.108,-1.569 -4.297,-3.388 -5.62,-5.412c-0.742,-1.156 -1.115,-2.315 -2.065,-3.347c-0.289,-0.289 -0.497,-0.62 -0.744,-0.909c-0.083,-3.555 -1.365,-7.025 -4.091,-9.793c-1.032,-0.992 -2.189,-1.736 -3.47,-2.397c-0.248,-0.247 -0.497,-0.496 -0.703,-0.785c-0.95,-1.447 -1.653,-3.265 -2.397,-4.835c-0.538,-1.156 -0.785,-2.52 -1.488,-3.635c-0.909,0.082 -1.694,0.62 -2.562,0.661c-0.537,0.041 -0.867,-0.289 -1.405,-0.289c-0.288,-0.041 -0.661,0.124 -0.991,0.124c-0.579,-0.041 -1.032,-0.248 -1.57,-0.33c-1.568,-0.371 -3.097,-0.494 -4.585,-0.991c-1.446,-0.495 -2.604,-0.991 -3.801,-1.776c-1.447,-0.95 -2.191,-2.026 -3.388,-3.141c-1.57,-1.446 -3.677,-2.396 -4.958,-4.008c-0.577,-0.785 -1.28,-1.653 -2.065,-2.314c-0.661,-0.497 -1.199,-0.579 -1.529,-1.323c-0.248,-0.579 -0.371,-0.868 -0.868,-1.323c-0.744,-0.661 -1.032,-1.156 -1.529,-1.9c-0.909,-1.488 -2.19,-2.933 -3.264,-4.338c-0.495,-0.659 -0.702,-1.321 -1.115,-1.982c-0.496,-0.742 -1.034,-1.197 -1.364,-2.065c-0.579,-1.652 -1.858,-2.975 -2.355,-4.669c-0.206,-0.66 -0.123,-1.363 -0.247,-2.024c-0.288,-1.24 -0.536,-2.727 -0.206,-4.008c0.125,-0.618 0.208,-1.362 0.538,-1.941c0.454,-0.701 0.826,-1.362 1.115,-2.065c0.33,-0.703 2.975,4.338 3.305,3.47c0.661,-1.486 1.156,-3.056 1.9,-4.503c1.156,-2.313 2.065,-4.833 3.47,-6.982c1.653,-2.52 2.85,-5.702 5.123,-7.726c1.9,-1.735 4.049,-3.182 5.743,-5.123c1.694,-1.941 3.636,-4.502 5.743,-6.114c1.323,-1.034 2.726,-2.149 4.173,-2.975c1.323,-0.743 2.85,-1.322 4.173,-2.107c1.321,-0.744 2.354,-1.735 3.718,-2.438c1.279,-0.662 2.231,-1.694 3.47,-2.438c0.661,-0.414 1.57,-0.332 2.273,-0.703c0.703,-0.371 1.074,-0.827 1.859,-1.074c1.197,-0.412 2.479,-0.702 3.676,-1.032c2.355,-0.661 3.926,-0.867 6.446,-0.206c2.602,0.702 5.164,1.859 7.808,2.314c2.273,0.373 4.422,1.323 6.487,2.397c1.777,0.909 3.182,2.149 4.752,3.388c1.61,1.197 3.18,2.271 4.585,3.759c1.197,1.24 1.734,2.687 2.726,4.008c0.992,1.321 2.189,2.106 2.933,3.676c0.702,1.57 -0.538,-3.553 0.041,-2.479c0.249,0.373 0.332,0.662 0.579,0.744c-0.041,-0.124 -0.041,-0.289 -0.041,-0.413c-0.123,-0.868 2.479,4.502 2.232,3.305c-0.082,-0.455 -0.206,-0.992 -0.247,-1.405c-0.041,-0.33 0.082,-0.621 0,-0.868c-0.125,-0.742 -0.414,-1.321 -0.455,-2.065c-0.123,-1.777 -0.661,-3.512 -0.62,-5.247c0,-1.486 -0.661,-3.18 0.165,-4.544c0.412,-0.621 1.321,-1.117 1.982,-1.447c0.744,-0.371 1.488,-0.867 2.314,-1.156c0.703,-0.208 1.447,-0.414 2.191,-0.579c0.701,-0.165 1.362,-0.041 2.065,-0.165c0.909,-0.206 1.364,-0.453 2.314,-0.247c1.032,0.167 1.735,-0.124 2.685,-0.371c0.744,-0.207 1.488,-0.414 2.232,-0.62c1.073,-0.289 2.314,-0.909 3.47,-0.909c0.703,0.991 1.034,2.438 1.447,3.553c0.248,0.621 0.456,1.239 0.703,1.818c0.247,0.579 0.661,0.867 0.95,1.364c0.331,0.538 0.373,1.156 0.744,1.735c0.371,0.538 0.621,0.827 0.868,1.447c0.454,1.114 1.074,1.735 1.735,2.726c0.826,1.197 -1.115,-4.132 -0.744,-3.141c0.247,0.703 0.412,1.115 1.032,1.653c0.536,0.455 0.659,1.032 1.156,1.529c0.456,0.453 1.198,0.7 1.653,1.197c0.412,0.412 0.743,0.784 1.156,1.197c0.166,0.166 0.29,0.373 0.455,0.579c-0.041,-0.124 -0.041,-0.248 -0.041,-0.289c-0.208,-0.784 -0.166,-1.363 -0.455,-2.107c-0.247,-0.496 -0.124,-0.784 -0.165,-1.281c-0.041,-0.744 -0.455,-1.57 -0.579,-2.314c-0.042,-0.371 0.166,0.041 0.413,0.661c-0.124,-0.62 -0.166,-1.198 -0.413,-1.859c-0.372,-1.073 -0.992,-2.19 -1.281,-3.264c-0.373,-1.446 -0.62,-3.264 -0.579,-4.669c0.041,-0.785 0.041,-1.364 -0.041,-2.149c-0.124,-0.867 0,-1.405 0.785,-1.776c0.95,-0.412 2.023,-0.412 2.891,-0.95c0.412,-0.249 0.702,-0.373 1.115,-0.538c0.702,-0.247 1.034,-0.537 1.57,-0.991c0.536,-0.454 1.28,-0.785 1.9,-1.115c0.784,-0.414 1.363,-0.992 2.107,-1.405c0.412,-0.207 0.785,-0.29 1.156,-0.62c0.702,-0.538 1.197,-1.157 1.941,-1.612c2.644,-1.57 5.123,-3.306 7.602,-5.082c0.538,-0.371 1.197,-0.538 1.735,-0.868c0.538,-0.289 0.991,-0.661 1.529,-0.95c1.074,-0.538 2.232,-0.661 3.223,-1.364c0.992,-0.744 2.067,-0.826 3.141,-1.364c1.074,-0.495 2.026,-0.909 3.223,-1.239c2.19,-0.62 4.42,-1.239 6.652,-1.859c1.117,-0.332 1.985,-0.579 3.182,-0.538c1.487,0.124 2.808,0.206 4.255,0.165c1.405,-0.082 2.809,0.083 4.214,0.124c1.405,0 2.809,-0.124 4.214,-0.124c1.074,0 1.942,0.124 2.933,0c0.744,-0.083 1.57,0.082 2.314,0.041c0.662,-0.041 1.198,-0.123 1.859,-0.082c2.23,0.165 4.173,0.414 6.238,-0.124c1.736,-0.497 3.719,-0.497 5.495,-0.744c1.653,-0.248 3.141,-0.454 4.711,-0.909c1.362,-0.373 5.826,-2.149 6.073,0.33c0.125,1.034 0.125,2.026 0.538,3.058c0.332,0.867 0.167,1.446 0.497,2.314c1.156,2.852 0.124,0.207 0.909,2.314c0.206,0.538 0.332,1.115 0.703,1.57c0.371,0.455 0.908,0.826 1.197,1.323c0.58,1.034 1.199,2.025 1.612,3.099c0.33,0.868 0.578,1.736 0.991,2.562c0.247,0.455 0.538,0.868 0.785,1.323c0.371,-0.908 0.826,-1.817 1.156,-2.726c0.744,-2.353 1.571,-4.709 2.232,-7.064c0.166,-0.456 0.331,-0.95 0.455,-1.447c0.041,0.082 0.082,0.165 0.082,0.206c-0.785,-1.982 -1.611,-4.049 -1.941,-6.114c-0.371,-1.982 -0.826,-4.09 -1.239,-6.114c-0.289,-1.364 -0.701,-2.314 0.455,-3.099c0.867,-0.62 1.776,-1.156 2.726,-1.694c2.643,-1.486 4.874,-3.635 7.849,-4.544c0.455,-0.124 0.992,-0.165 1.405,-0.371c0.33,-0.164 0.538,-0.496 0.868,-0.661c0.414,-0.249 0.911,-0.25 1.323,-0.538c0.412,-0.288 0.701,-0.744 1.156,-0.991c0.785,-0.371 1.57,-0.453 2.314,-0.371c1.239,-0.785 2.52,-1.529 3.759,-2.314c2.355,-1.529 4.587,-3.264 7.231,-4.255c1.941,-0.702 3.511,-1.776 5.37,-2.52c2.066,-0.827 4.379,-1.239 6.528,-1.859c2.189,-0.661 3.924,-0.373 6.156,0.124c0.784,0.166 1.362,-0.083 2.065,-0.289c1.818,-0.538 3.635,-0.991 5.453,-1.529c1.777,-0.497 3.678,-1.323 5.578,-1.488c0.661,-0.041 1.239,0.124 1.9,0.206c1.074,0.165 1.859,0.083 2.933,-0.082c2.232,-0.371 4.338,-0.536 6.735,-0.165c1.198,0.164 2.191,0.329 3.347,0.082c3.802,-0.744 7.602,0.249 11.528,0.579c1.944,0.165 3.72,-0.082 5.62,0.909c1.901,1.033 3.43,3.18 5.206,4.503c1.735,1.323 3.015,2.191 4.338,3.885z" /> <path d="M296.372,193.642c-0.082,0 -0.124,0 -0.206,-0.041l0.413,-0.082c-0.082,0.041 -0.124,0.124 -0.206,0.124z" /></svg>