<svg xmlns="http://www.w3.org/2000/svg" viewBox="0 0 743 960" width="743" height="960"><path d="M278.629,959.034c-4.844,-1.608 -20.04,-3.694 -62.525,-8.582c-10.148,-1.167 -36.122,-2.979 -57.72,-4.026c-34.546,-1.673 -66.751,-5.902 -70.044,-9.194c-0.608,-0.608 1.718,-4.089 5.167,-7.737c3.449,-3.648 9.224,-12.911 12.833,-20.588c3.608,-7.675 10.739,-19.084 15.845,-25.352c5.106,-6.268 11.418,-16.133 14.028,-21.92c3.304,-7.328 12.334,-18.305 29.732,-36.148c21.775,-22.332 32.402,-36.037 50.277,-64.844c2.191,-3.531 12.747,-14.208 23.458,-23.727c10.711,-9.519 23.626,-21.455 28.7,-26.524c5.074,-5.068 11.825,-10.913 15.002,-12.987c5.406,-3.53 32.689,-39.848 35.565,-47.345c1.147,-2.988 0.709,-3.089 -3.619,-0.833l-4.924,2.567l5.125,-5.91c2.819,-3.25 6.271,-6.646 7.671,-7.546c1.4,-0.9 5.974,-8.743 10.163,-17.43c8.351,-17.318 12.818,-24.419 22.199,-35.285c6.258,-7.248 9.837,-14.672 12.132,-25.165c0.686,-3.138 3.143,-7.289 5.458,-9.225c2.315,-1.936 5.999,-6.979 8.185,-11.207c2.186,-4.228 4.698,-7.688 5.581,-7.688c2.43,0 13.856,12.593 17.034,18.773c1.541,2.996 11.506,14.797 22.145,26.221c10.639,11.424 21.432,23.847 23.986,27.606c2.554,3.758 6.072,7.381 7.82,8.052c1.748,0.671 3.284,3.323 3.414,5.896c0.176,3.46 0.481,3.745 1.174,1.097c1.462,-5.59 7.3,-1.263 15.117,11.203c3.734,5.955 10.936,15.784 16.005,21.843c5.069,6.059 11.123,13.661 13.454,16.894c7.624,10.575 38.85,49.077 49.654,61.223c5.812,6.534 11.677,14.06 13.032,16.723c5.059,9.937 37.131,56.595 44.228,64.344c4.052,4.423 8.667,10.557 10.256,13.631c1.589,3.074 4.104,6.326 5.589,7.228c2.281,1.385 19.509,23.346 30.066,38.325c6.517,9.247 41.723,49.616 46.372,53.173c2.702,2.067 4.913,5.484 4.913,7.595c0,3.989 -1.888,4.553 -23.442,6.999c-5.564,0.632 -12.113,2.455 -14.551,4.054c-3.63,2.378 -22.431,3.041 -103.658,3.657c-54.573,0.413 -100.786,1.485 -102.695,2.381c-1.909,0.896 -3.878,3.166 -4.374,5.043c-0.804,3.037 -0.93,3.017 -1.142,-0.174c-0.212,-3.205 -2.806,-3.578 -24.325,-3.498c-13.248,0.047 -28.238,1.011 -33.312,2.137c-20.48,4.544 -115.846,9.326 -125.049,6.27zM490.391,917.125c34.605,-1.461 63.227,-4.634 86.513,-9.593c10.148,-2.161 24.71,-4.569 32.362,-5.351c7.652,-0.782 13.639,-1.983 13.305,-2.669c-10.948,-22.519 -22.882,-42.554 -35.725,-59.978c-27.439,-37.226 -46.156,-61.521 -61.362,-79.643c-8.042,-9.584 -20.26,-25.728 -27.153,-35.875c-18.131,-26.693 -32.693,-45.099 -35.678,-45.099c-1.429,0 -2.871,-2.343 -3.204,-5.206c-0.333,-2.863 -5.652,-11.627 -11.819,-19.475c-11.635,-14.807 -64.478,-72.172 -66.788,-72.504c-0.723,-0.104 -2.853,3.654 -4.733,8.353c-1.88,4.699 -5.144,10.737 -7.254,13.419c-2.11,2.682 -6.331,11.404 -9.379,19.381c-3.048,7.977 -9.649,20.618 -14.669,28.093c-5.019,7.474 -11.393,18.202 -14.162,23.839c-2.769,5.637 -11.439,19.475 -19.267,30.75c-7.827,11.275 -19.172,27.88 -25.21,36.9c-20.864,31.167 -34.648,49.285 -54.367,71.46c-10.887,12.243 -24.692,28.848 -30.678,36.9c-5.986,8.052 -13.5,17.408 -16.699,20.79c-3.199,3.383 -10.487,13.53 -16.197,22.55l-10.382,16.4l46.555,1.354c26.523,0.772 54.936,2.767 66.03,4.637c10.711,1.806 33.312,3.845 50.225,4.532c27.216,1.105 48.483,0.28 121.463,-4.709c18.96,-1.297 18.963,-1.296 19.2,3.62c0.145,3.009 0.582,3.627 1.124,1.593c0.741,-2.776 5.348,-3.512 27.95,-4.465zM58.003,660.978c-6.263,-7.147 -8.357,-10.39 -9.846,-15.251c-1.186,-3.872 -0.306,-4.786 6.412,-6.651c4.283,-1.19 18.151,-2.168 30.819,-2.174c12.668,-0.006 26.967,-0.929 31.775,-2.05c4.808,-1.121 35.656,-2.883 68.551,-3.915c65.339,-2.049 67.992,-2.551 75.926,-14.337c11.487,-17.063 -0.967,-40.451 -25.085,-47.111c-7.169,-1.979 -42.93,-28.093 -44.951,-32.825c-0.67,-1.568 0.279,-5.136 2.108,-7.928c3.622,-5.527 3.951,-3.796 -7.833,-41.218c-3.335,-10.589 -3.701,-14.453 -1.948,-20.5c1.188,-4.099 2.753,-12.987 3.477,-19.752c2.049,-19.147 6.975,-38.004 12.968,-49.652c28.806,-55.986 30.734,-59.065 38.816,-61.988c13.062,-4.723 19.05,-23.462 11.239,-35.171c-16.425,-24.623 -28.42,-37.805 -46.268,-50.845c-6.568,-4.798 -19.022,-15.923 -27.675,-24.721c-17.813,-18.111 -43.236,-39.792 -51.931,-44.288c-3.205,-1.658 -5.828,-3.981 -5.828,-5.163c0,-1.182 -4.964,-7.386 -11.033,-13.785c-6.068,-6.399 -15.439,-19.823 -20.826,-29.831c-8.185,-15.207 -11.738,-19.584 -21.632,-26.65c-9.687,-6.918 -13.16,-11.117 -19.113,-23.116c-4.001,-8.064 -9.472,-17.289 -12.157,-20.5c-5.684,-6.798 -12.503,-19.919 -14.347,-27.604c-0.708,-2.952 -5.603,-10.609 -10.877,-17.016c-15.443,-18.758 -18.719,-18.126 81.439,-15.713c46.705,1.125 95.065,2.975 107.468,4.111c12.403,1.136 34.081,3.105 48.175,4.375c14.093,1.27 81.897,3.123 150.674,4.118c68.777,0.995 135.658,2.702 148.625,3.794c12.967,1.092 37.5,2.039 54.519,2.104c52.204,0.2 115.63,5.473 115.63,9.613c0,3.012 -6.993,16.763 -10.333,20.318c-2.193,2.334 -7.453,9.921 -11.69,16.858c-14.597,23.904 -64.975,75.605 -81.503,83.64c-9.604,4.669 -28.68,22.541 -52.245,48.945c-4.973,5.573 -15.43,15.63 -23.237,22.349c-17.709,15.242 -23.943,27.651 -23.943,47.662c0,15.473 0.717,17.116 16.465,37.732c10.774,14.103 20.434,31.942 20.434,37.731c0,1.298 3.261,9.162 7.245,17.477c6.577,13.723 7.449,17.688 9.46,42.992c2.338,29.416 1.824,40.606 -3.538,77.075c-6.797,46.223 -9.15,54.415 -19.708,68.623c-16.043,21.59 -23.544,42.698 -18.184,51.17c1.559,2.464 2.399,2.498 5.153,0.212c2.799,-2.323 3.999,-2.066 8.028,1.718c2.605,2.448 7.632,5.28 11.172,6.295c3.54,1.015 46.653,2.516 95.809,3.336l89.373,1.49l3.104,4.737c1.707,2.605 3.591,8.368 4.186,12.804l1.082,8.067l-52.004,0.874c-41.766,0.702 -52.933,0.317 -56.721,-1.955c-8.095,-4.855 -39.169,-9.458 -69.161,-10.244c-27.975,-0.734 -28.99,-0.61 -36.387,4.409c-4.185,2.84 -7.609,4.617 -7.609,3.95c0,-0.667 -1.309,-0.128 -2.909,1.2c-2.318,1.925 -4.919,0.956 -12.813,-4.771c-5.447,-3.952 -11.845,-9.077 -14.219,-11.388c-2.374,-2.311 -5.172,-4.203 -6.22,-4.203c-1.047,0 -6.762,-4.919 -12.7,-10.931l-10.796,-10.931l17.304,-11.106c12.465,-8 20.513,-15.119 28.778,-25.456c6.31,-7.893 11.501,-15.273 11.536,-16.4c0.038,-1.128 3.276,-9.848 7.201,-19.379c8.423,-20.449 9.013,-32.119 4.053,-80.046c-3.751,-36.238 -7.832,-55.674 -15.927,-75.849c-3.393,-8.456 -7.015,-18.414 -8.05,-22.128c-2.435,-8.739 -17.081,-23.975 -27.056,-28.143c-14.291,-5.971 -25.504,-0.423 -52.721,26.086c-16.011,15.593 -31.047,28.284 -33.512,28.284c-2.391,0 -28.415,18.802 -36.29,26.219l-7.517,7.08l-9.43,-6.773c-9.264,-6.653 -25.76,-26.261 -25.76,-30.621c0,-1.221 -1.903,-5.95 -4.23,-10.51c-5.056,-9.91 -18.644,-17.138 -27.976,-14.881c-7.771,1.88 -16.476,8.221 -18.037,13.139c-0.707,2.226 -2.376,4.053 -3.709,4.059c-2.995,0.016 -8.792,8.803 -26.361,39.962c-12.513,22.192 -15.762,38.312 -16.632,82.512c-0.555,28.2 -0.15,35.363 1.999,35.363c1.482,0 2.694,0.852 2.694,1.893c0,4.047 11.298,14.993 24.304,23.547c16.154,10.625 24.243,16.937 29.934,23.359c11.173,12.608 14.942,16.289 21.081,20.594l6.644,4.659l-8.694,12.412c-9.37,13.378 -35.595,37.353 -45.593,41.684c-7.663,3.32 -45.117,7.34 -88.149,9.462c-57.59,2.841 -85.943,5.193 -91.87,7.623c-7.196,2.95 -6.135,3.17 -10.882,-2.246zM376.016,329.833c14.385,-13.851 25.721,-25.616 25.192,-26.147c-0.529,-0.531 -3.944,0.078 -7.587,1.345c-4.043,1.409 -13.559,1.877 -24.42,1.201c-16.468,-1.025 -19.02,-0.629 -34.196,5.307c-9.02,3.529 -16.703,6.601 -17.075,6.829c-1.201,0.735 29.257,37.715 30.616,37.173c0.724,-0.289 13.086,-11.858 27.471,-25.708zM318.444,270.818c11.363,-0.567 28.501,-2.989 38.085,-5.381c10.206,-2.548 28.89,-4.996 45.099,-5.909c24.085,-1.357 55.722,-4.438 68.672,-6.69c2.33,-0.405 8.258,-6.818 13.741,-14.867c5.303,-7.785 15.169,-20.256 21.923,-27.713c6.754,-7.457 18.932,-21.756 27.062,-31.775c8.13,-10.019 23.195,-26.98 33.478,-37.691c10.283,-10.711 26.291,-28.32 35.574,-39.131c9.283,-10.81 20.792,-22.803 25.576,-26.65l8.698,-6.994l-37.925,-1.394c-44.802,-1.646 -68.099,-3.833 -101.475,-9.527c-24.011,-4.096 -73.276,-8.795 -139.4,-13.297c-18.04,-1.228 -62.93,-1.982 -99.755,-1.673c-66.228,0.553 -67.13,0.504 -83.025,-4.497c-22.92,-7.211 -51.539,-11.619 -82.659,-12.732l-26.964,-0.964l1.43,4.616c8.269,26.695 36.424,63.43 92.312,120.442c19.343,19.732 44.279,46.003 55.415,58.381c34.89,38.784 54.983,59.465 58.171,59.869c1.691,0.215 6.765,1.793 11.275,3.51c4.51,1.717 9.512,2.664 11.115,2.108c1.603,-0.556 12.212,-1.475 23.575,-2.042z" /></svg>