<svg xmlns="http://www.w3.org/2000/svg" viewBox="0 0 1024 1024" width="1024" height="1024"><path d="M1024,512c0,282.77 -229.23,512 -512,512c-282.77,0 -512,-229.23 -512,-512c0,-282.77 229.23,-512 512,-512c282.77,0 512,229.23 512,512zM640,320c0,35.346 28.654,64 64,64c35.346,0 64,-28.654 64,-64c0,-35.346 -28.654,-64 -64,-64c-35.346,0 -64,28.654 -64,64zM256,320c0,35.346 28.654,64 64,64c35.346,0 64,-28.654 64,-64c0,-35.346 -28.654,-64 -64,-64c-35.346,0 -64,28.654 -64,64zM832,576c-62,40 -110.45,9.786 -156.114,-35.882c-37.49,-37.49 -98.276,-37.49 -135.766,0c-18.742,18.74 -28.114,43.302 -28.118,67.864c-0.006,-24.564 -9.378,-49.124 -28.118,-67.864c-37.49,-37.49 -98.276,-37.49 -135.766,0c-45.668,45.668 -94.118,75.882 -156.118,35.882c0,101.534 201.672,181.888 288.196,103.376c1.25,-1.124 2.48,-2.288 3.684,-3.492c18.742,-18.74 28.114,-43.302 28.118,-67.864c0.006,24.564 9.378,49.124 28.118,67.864c1.204,1.202 2.434,2.368 3.684,3.492c86.528,78.512 288.2,-1.842 288.2,-103.376z" /></svg>