<svg xmlns="http://www.w3.org/2000/svg" viewBox="0 0 1055 896" width="1055" height="896"><path d="M607,0c247.424,0 448,200.576 448,448c0,247.424 -200.576,448 -448,448v-96c94.024,0 182.418,-36.614 248.902,-103.098c66.484,-66.484 103.098,-154.878 103.098,-248.902c0,-94.022 -36.614,-182.418 -103.098,-248.902c-66.484,-66.484 -154.878,-103.098 -248.902,-103.098c-94.022,0 -182.418,36.614 -248.902,103.098c-51.14,51.138 -84.582,115.246 -97.306,184.902h186.208l-224,256l-224,-256h164.57c31.06,-217.102 217.738,-384 443.43,-384zM799,384v128h-256v-320h128v192z" /></svg>