<svg xmlns="http://www.w3.org/2000/svg" viewBox="0 0 865 704" width="865" height="704"><path d="M786.014,702.848c-2.458,-2.22 -2.742,-4.563 -3.173,-26.242c-0.543,-27.23 -1.974,-44.336 -3.758,-44.864c-1.754,-0.521 -10.047,-1.27 -21.348,-1.93c-4.457,-0.26 -8.919,-0.555 -9.916,-0.653l-1.817,-0.177l0.005,30.279c0.005,16.652 -0.115,31.885 -0.269,33.852c-0.313,4.029 -0.79,4.932 -2.803,5.307c-1.276,0.238 -3.711,-0.698 -4.205,-1.622c-1.039,-1.941 -1.897,-18.645 -2.627,-51.101c-0.203,-9.087 -0.459,-16.615 -0.566,-16.732c-0.107,-0.117 -1.913,-0.089 -4.009,0.06c-2.095,0.148 -10.175,0.511 -17.951,0.808c-7.776,0.297 -14.195,0.588 -14.261,0.645c-0.069,0.06 0.269,11.87 0.747,26.248c0.973,29.206 0.992,39.774 0.071,41.488c-1.347,2.496 -5.059,2.075 -6.385,-0.72c-1.6,-3.37 -3.217,-18.773 -4.02,-38.293c-0.418,-10.136 -0.217,-28.689 0.348,-32.391c1.237,-8.068 4.988,-10.411 12.67,-7.925c4.383,1.42 7.789,1.501 18.779,0.462c13.982,-1.325 13.876,-1.193 13.57,-16.703c-0.257,-13.006 -3.003,-54.467 -4.832,-72.918c-1.153,-11.643 -1.424,-18.21 -1.754,-42.896c-0.285,-21.305 -0.577,-31.632 -1.276,-44.798c-0.821,-15.542 -2.002,-28.651 -2.843,-31.577c-0.753,-2.632 -2.335,-3.543 -9.084,-5.241c-7.835,-1.974 -14.052,-4.339 -21.11,-8.024c-5.85,-3.056 -11.619,-7.01 -15.143,-10.378c-10.224,-9.769 -28.941,-36.17 -34.643,-48.868c-0.76,-1.692 -1.685,-4.317 -2.051,-5.827c-0.825,-3.376 -1.578,-4.564 -3.503,-5.519c-2.293,-1.138 -5.955,-1.217 -15.35,-0.329c-7.78,0.735 -8.64,0.752 -41.621,0.742c-36.489,-0.007 -47.482,-0.246 -104.773,-2.259c-8.345,-0.291 -15.237,-0.472 -15.311,-0.398c-0.074,0.074 0.207,6.566 0.628,14.426c0.421,7.859 0.911,18.437 1.094,23.503c0.544,15.277 0.724,46.983 0.393,69.9l-0.313,21.606l3.426,4.606c7.111,9.564 9.834,14.932 11.491,22.643c0.573,2.662 0.702,4.317 0.717,9.129c0.023,7.628 -1.134,15.229 -3.796,24.944c-2.007,7.331 -3.983,11.148 -7.84,15.163c-2.766,2.876 -3.495,4.203 -4.178,7.573c-1.017,5.01 -1.402,12.669 -2.471,48.674l-0.714,24.073l5.406,5.472c9.234,9.344 9.31,9.479 12.509,22.225c4.785,19.066 6.132,29.064 6.17,45.842c0.027,11.033 -0.166,12.196 -2.403,14.624c-3.298,3.58 -7.4,3.651 -10.532,0.186c-2.161,-2.392 -2.739,-6.392 -2.766,-19.101c-0.016,-8.327 -0.436,-17.706 -0.965,-21.631c-0.18,-1.325 -0.762,-3.683 -1.292,-5.241c-0.53,-1.558 -1.746,-5.48 -2.7,-8.712c-1.979,-6.726 -2.81,-8.95 -3.606,-9.674c-0.482,-0.434 -0.617,-0.445 -0.937,-0.06c-1.094,1.322 -1.759,8.515 -2.258,24.508c-0.65,20.871 -1.523,27.162 -4.185,30.192c-0.729,0.83 -1.272,1.116 -2.429,1.27c-2.073,0.28 -3.238,0.656 -6.907,2.24c-1.963,0.848 -4.284,1.567 -6.033,1.875c-6.292,1.096 -26.771,1.347 -37.481,0.456c-10.026,-0.834 -15.237,-2.614 -16.879,-5.769c-0.832,-1.6 -1.083,-6.901 -1.39,-29.152c-0.289,-21.191 -0.459,-24.733 -1.237,-25.506c-0.511,-0.511 -2.128,1.132 -3.203,3.266c-2.585,5.131 -7.749,20.177 -10.001,29.124c-0.445,1.776 -1.026,4.849 -1.284,6.831c-0.634,4.832 -2.354,10.058 -4.182,12.712c-1.147,1.666 -2.59,2.249 -5.549,2.249c-1.863,0 -2.722,-0.148 -3.514,-0.615c-3.67,-2.144 -3.657,-6.46 0.082,-24.867c3.019,-14.864 5.457,-23.097 8.887,-30.048c3.096,-6.272 6.513,-10.838 14.664,-19.606l3.085,-3.316l0.445,-66.226l-6.829,-6.737c-8.667,-8.552 -12.306,-13.202 -15.819,-20.212c-3.567,-7.118 -5.34,-14.729 -5.002,-21.477c0.236,-4.768 0.841,-7.413 3.562,-15.598c1.281,-3.86 2.997,-9.293 3.811,-12.072c1.65,-5.645 4.009,-10.92 6.652,-14.881c3.242,-4.856 7.155,-8.761 10.118,-10.103c0.883,-0.4 1.732,-1.05 1.973,-1.512c1.512,-2.92 1.807,-13.453 1.862,-66.409c0.038,-35.592 -0.038,-45.546 -0.368,-47.79c-0.445,-3.025 -0.986,-4.435 -1.831,-4.757c-1.149,-0.441 -20.513,-0.83 -56.689,-1.138c-47.702,-0.406 -79.921,-1.094 -82.291,-1.756c-1.527,-0.427 -9.681,-0.759 -11.863,-0.481c-4.474,0.566 -5.263,1.409 -5.656,6.018c-1.006,11.907 -10.136,30.631 -22.24,45.62c-6.209,7.69 -16.274,16.997 -22.159,20.493c-3.723,2.213 -7.991,3.734 -23.71,8.449c-9.753,2.927 -15.394,4.768 -15.645,5.109c-0.72,0.981 -0.829,2.769 -0.445,7.573c1.835,23.05 3.523,84.26 4.019,145.835c0.247,30.675 0.67,46.506 1.396,52.195c0.318,2.494 0.639,4.596 0.711,4.669c0.072,0.073 4.491,0.005 9.815,-0.158c17.306,-0.521 31.656,-0.306 33.762,0.5c1.93,0.742 2.308,5.602 1.842,23.653c-0.885,34.162 -1.809,44.919 -4.053,47.405c-1.391,1.538 -3.959,-0.035 -4.779,-2.931c-0.641,-2.257 -0.852,-20.242 -0.489,-41.616c0.14,-8.299 0.218,-15.152 0.17,-15.221c-0.214,-0.331 -6.194,-1.281 -8.112,-1.291c-1.182,-0.005 -3.47,0.311 -5.084,0.698c-2.751,0.665 -3.645,0.709 -14.16,0.715l-11.225,0.005l0.195,0.951c1.776,8.618 3.217,26.726 3.558,44.642l0.184,9.69l-0.823,0.761c-1.554,1.435 -5.696,1.193 -6.704,-0.39c-0.797,-1.248 -1.627,-9.072 -2.557,-24.04c-1.081,-17.378 -1.756,-24.524 -2.751,-28.995l-0.687,-3.1l-33.418,0.164l-0.423,29.867c-0.235,16.428 -0.466,29.905 -0.511,29.957c-0.092,0.093 -7.65,1.017 -8.354,1.019c-0.304,0.005 -0.401,-1.596 -0.409,-6.908c-0.005,-3.8 -0.202,-16.061 -0.434,-27.244c-0.422,-20.311 -0.28,-31.846 0.4,-33.117c0.821,-1.534 4.444,-2.942 9.986,-3.877c4.268,-0.72 6.561,-0.896 16.747,-1.294c9.586,-0.375 14.776,-1.101 16.653,-2.331c0.654,-0.429 0.676,-0.599 0.456,-3.348c-0.412,-5.164 -0.896,-31.071 -1.38,-73.75c-0.476,-42.09 -0.969,-72.316 -1.281,-78.48c-1.42,-27.929 -2.887,-50.212 -3.522,-53.433c-0.245,-1.242 -1.406,-1.523 -7.751,-1.869c-3.058,-0.168 -6.918,-0.526 -8.578,-0.797c-7.672,-1.259 -17.913,-4.321 -23.376,-6.99c-3.732,-1.82 -6.841,-4.554 -18.572,-16.311c-12.798,-12.831 -16.703,-17.645 -20.154,-24.86c-3.584,-7.496 -5.853,-16.155 -6.132,-23.413c-0.137,-3.546 -0.277,-4.592 -0.632,-4.731c-0.675,-0.258 -6.517,0.777 -8.386,1.489c-2.418,0.918 -3.534,1.812 -5.03,4.033c-1.765,2.62 -4.8,5.406 -7.001,6.429c-1.413,0.654 -2.249,0.816 -4.302,0.821c-3.646,0.014 -6.022,-1.182 -9.707,-4.889c-3.27,-3.286 -5.078,-6.539 -5.703,-10.244c-0.753,-4.475 0.286,-12.823 2.072,-16.596c1.578,-3.337 4.482,-4.592 9.695,-4.196c5.681,0.431 7.779,1.424 12.626,5.985c4.617,4.342 7.206,5.747 10.909,5.914c3.184,0.146 5.164,-0.639 5.868,-2.324c0.762,-1.82 1.369,-5.219 1.892,-10.569c0.269,-2.755 0.707,-6.196 0.972,-7.639c1.335,-7.287 5.179,-14.583 13.425,-25.476c9.967,-13.161 15.361,-18.012 28.017,-25.186c15.262,-8.651 25.375,-11.808 37.81,-11.796c8.277,0.007 15.02,1.11 26.212,4.284c20.267,5.75 34.424,12.259 43.21,19.871c6.693,5.795 15.295,17.77 18.377,25.582c1.614,4.091 2.759,8.244 4.977,18.055c1.048,4.631 1.978,8.739 2.07,9.135l0.165,0.715l11.987,0.005c12.263,0.005 31.947,0.28 78.235,1.105c43.628,0.779 57.899,0.9 62.922,0.533c5.356,-0.39 6.341,-0.665 6.341,-1.753c0,-1.895 -2.854,-3.639 -8.42,-5.146c-9.101,-2.464 -16.582,-5.86 -24.293,-11.026c-5.629,-3.772 -9.342,-6.869 -16.89,-14.085c-5.754,-5.505 -11.448,-10.503 -14.492,-12.721c-7.606,-5.549 -22.29,-24.128 -29.905,-37.843c-4.713,-8.492 -11.942,-32.295 -16.09,-52.993c-3.819,-19.051 -4.358,-32.668 -1.719,-43.369c1.199,-4.86 5.648,-19.288 7.622,-24.713c2.238,-6.154 5.532,-13.185 7.76,-16.568c0.854,-1.298 2.964,-3.859 4.689,-5.692c3.428,-3.646 4.819,-5.388 7.826,-9.806c4.988,-7.336 20.071,-23.138 34.674,-36.329c12.6,-11.381 30.092,-23.754 42.093,-29.777c6.077,-3.051 13.436,-5.683 19.376,-6.939c6.099,-1.289 11.634,-1.313 34.316,-0.148c10.66,0.546 21.494,1.208 24.075,1.468c12.182,1.23 16.395,3.085 30.279,13.324c6.238,4.601 10.64,7.52 12.704,8.431c5.834,2.568 10.213,5.527 21.019,14.184c11.4,9.131 15.68,13.172 22.013,20.773c12.27,14.731 15.909,21.95 23.637,46.896c3.646,11.764 5.714,17.842 9.666,28.398c4.683,12.503 5.318,15.812 5.043,26.212c-0.379,14.36 -5.355,37.479 -9.806,45.561c-4.695,8.526 -6.422,11.819 -9.77,18.617c-2.062,4.195 -4.089,8.484 -4.504,9.531c-0.894,2.266 -2.194,4.471 -6.077,10.285c-9.41,14.095 -22.189,28.432 -32.05,35.966c-3.4,2.596 -21.796,14.756 -26.125,17.273c-3.796,2.205 -5.109,2.722 -8.475,3.348c-2.779,0.515 -9.54,2.722 -12.015,3.927c-2.846,1.38 -3.874,2.645 -3.866,4.757c0.005,1.952 0.181,2.293 1.4,2.759c1.03,0.39 10.512,0.458 20.201,0.144c6.869,-0.225 19.616,0.255 25.736,0.966c6.363,0.741 15.003,1.087 36.698,1.478c21.954,0.393 63.643,0.194 75.136,-0.357c6.363,-0.306 19.662,-1.435 19.915,-1.69c0.06,-0.06 0.258,-2.887 0.434,-6.277c0.833,-16.142 1.765,-19.365 9.611,-33.33c5.43,-9.663 11.885,-18.532 18.338,-25.208c10.026,-10.369 19.317,-15.548 29.974,-16.717c4.053,-0.445 20.421,-0.957 30.554,-0.959c20.817,-0.003 29.573,1.731 43.605,8.623c8.089,3.974 14.963,9.034 21.378,15.735c5.469,5.714 7.647,9.129 11.406,17.889c0.712,1.66 2.033,4.233 2.935,5.719c2.968,4.889 4.092,7.242 5.496,11.511c2.216,6.737 2.781,10.164 2.876,17.447c0.104,8.051 0.074,7.976 3.492,8.297c2.942,0.277 17.561,0.007 22.28,-0.408c4.636,-0.411 6.469,-1.339 6.469,-3.29c0,-1.094 2.075,-4.416 3.668,-5.87c1.996,-1.826 3.451,-2.405 5.461,-2.18c4.339,0.489 5.775,5.054 6.77,21.545c0.483,8.022 0.06,10.125 -2.513,12.448c-2.641,2.385 -4.405,2.678 -7.84,1.303c-3.093,-1.237 -5.271,-3.36 -6.352,-6.191c-0.489,-1.286 -1.303,-2.688 -1.9,-3.285c-2.287,-2.287 -7.044,-2.937 -17.465,-2.388c-10.565,0.555 -14.434,0.814 -14.554,0.966c-0.06,0.076 -0.401,1.853 -0.76,3.952c-0.993,5.813 -3.602,12.314 -10.407,25.895c-11.973,23.906 -18.125,32.033 -26.822,35.429c-1.684,0.657 -6.385,2.677 -10.446,4.482c-11.654,5.186 -16.552,6.711 -22.808,7.092c-5.51,0.335 -6.55,1.031 -7.175,4.788c-0.375,2.26 -0.267,5.043 0.676,17.312c0.335,4.37 0.755,11.016 0.933,14.775c0.178,3.759 0.401,8.189 0.5,9.85c0.095,1.66 0.306,13.6 0.467,26.529c0.302,24.396 0.643,34.556 1.452,43.212c1.468,15.746 2.796,32.209 4.271,53.059c1.996,28.26 3.283,40.223 4.471,41.657c0.203,0.243 0.885,0.442 1.519,0.442c1.886,0 17.906,1.859 23.523,2.731c8.53,1.323 15.251,3.286 16.692,4.878c0.992,1.094 1.525,6.783 2.079,22.1c0.181,5.065 0.701,17.792 1.153,28.277c0.885,20.61 0.874,24.933 -0.088,26.577c-0.742,1.272 -2.999,2.494 -4.606,2.494c-0.954,0 -1.496,-0.247 -2.491,-1.149zM421.104,680.168c10.66,-0.159 20.267,-0.387 21.345,-0.506l1.963,-0.217l0.17,-1.941c0.093,-1.069 0.461,-12.666 0.816,-25.772c0.355,-13.106 0.731,-25.912 0.841,-28.453l0.195,-4.623l-2.557,-1.679c-4.537,-2.977 -8.363,-3.711 -19.122,-3.656c-7.683,0.038 -12.54,0.522 -19.18,1.914c-5.08,1.061 -8.292,2.281 -12.273,4.647l-3.338,1.984l0.054,21.605c0.055,22.042 0.335,29.74 1.259,34.393l0.522,2.623l4.961,-0.014c2.729,-0.005 13.681,-0.143 24.342,-0.302zM400.929,600.624c11.999,-2.092 18.868,-2.784 27.629,-2.783c8,0 12.006,0.538 17.308,2.324c2.106,0.709 4.063,1.409 4.339,1.553c0.452,0.233 0.533,-0.28 0.72,-4.57c0.28,-6.439 0.291,-45.957 0.015,-48.289c-0.119,-1.009 -0.313,-1.895 -0.428,-1.963c-0.408,-0.251 -4.342,1.325 -7.326,2.935c-4.02,2.172 -6.72,3.151 -10.254,3.723c-6.228,1.009 -12.505,0.544 -28.191,-2.095c-5.153,-0.867 -10.389,-1.664 -11.629,-1.767l-2.255,-0.192l-0.188,0.94c-0.401,2.015 -0.904,25.378 -0.807,37.623c0.084,10.73 0.181,12.993 0.566,13.458c0.598,0.72 1.897,0.609 10.499,-0.891zM431.301,536.638c7.749,-2.504 16.483,-9.047 20.754,-15.545c2.687,-4.086 3.118,-6.251 3.404,-17.109c0.39,-14.811 -1.406,-33.396 -3.69,-38.111c-1.053,-2.177 -4.881,-5.557 -8.287,-7.314c-5.219,-2.698 -9.898,-3.929 -18.092,-4.766c-2.71,-0.277 -7.21,-0.802 -10.008,-1.169c-3.732,-0.489 -5.929,-0.614 -8.261,-0.475c-5.615,0.337 -13.975,2.156 -16.993,3.696c-1.215,0.621 -1.221,0.63 -1.457,3.093c-0.357,3.751 1.336,72.263 1.797,72.639c0.126,0.104 23.567,4.801 28.728,5.757c3.91,0.723 8.53,0.456 12.105,-0.698zM380.212,519.334c0.55,-0.55 0.489,-9.41 -0.13,-19.457c-0.401,-6.514 -0.472,-11.363 -0.326,-22.736c0.108,-8.486 0.066,-14.646 -0.104,-14.921c-0.709,-1.14 -2.501,1.938 -5.229,8.995c-3.654,9.454 -5.201,15.839 -5.485,22.631c-0.214,5.076 0.164,8.431 1.387,12.358c1.325,4.256 5.608,11.704 7.487,13.018c0.838,0.588 1.875,0.632 2.403,0.108zM452.367,442.466c1.595,-1.71 1.919,-8.133 1.919,-37.77c-0.005,-24.49 -0.277,-35.471 -1.072,-42.905c-0.478,-4.46 -1.852,-22.938 -2.281,-30.653c-0.115,-2.095 -0.331,-4.042 -0.477,-4.327c-0.496,-0.965 -8.123,-1.683 -30.154,-2.835c-14.522,-0.76 -21.945,-1.369 -26.286,-2.164l-3.19,-0.584l-0.181,14.965c-0.101,8.231 -0.335,29.977 -0.522,48.326c-0.187,18.349 -0.499,37.294 -0.692,42.099c-0.192,4.805 -0.368,9.311 -0.39,10.008c-0.036,1.248 -0.016,1.27 1.076,1.255c0.61,-0.007 2.469,-0.261 4.13,-0.562c11.188,-2.02 34.866,-0.984 46.844,2.05c1.388,0.351 3.945,1.345 5.686,2.205c3.484,1.725 4.634,1.908 5.582,0.889zM723.706,365.695c-0.011,-23.897 0.225,-30.609 1.266,-35.933c0.405,-2.073 0.475,-2.997 0.227,-3.074c-0.734,-0.225 -31.017,-0.797 -41.499,-0.786c-14.541,0.016 -22.526,0.544 -24.967,1.655c-0.46,0.21 -0.767,0.621 -0.767,1.023c0,4.523 24.559,38.87 33.088,46.275c9.677,8.404 21.475,13.81 30.367,13.923l2.293,0.027l-0.009,-23.116zM744.885,388.153c4.297,-1.122 11.335,-3.998 21.426,-8.761l9.69,-4.573l6.887,-13.575c3.789,-7.465 7.842,-15.647 9.012,-18.181c2.81,-6.098 5.316,-12.776 4.889,-13.04c-0.181,-0.113 -2.502,-0.293 -5.155,-0.404c-2.653,-0.111 -14.261,-0.629 -25.797,-1.149c-11.533,-0.522 -23.032,-0.991 -25.554,-1.039l-4.581,-0.09l-0.723,4.086c-1.972,11.115 -2.139,33.159 -0.386,50.485l0.698,6.912h3.536c2.556,0 4.239,-0.181 6.059,-0.657zM147.728,384.224c10.319,-3.14 12.776,-4.024 17.286,-6.209c4.592,-2.226 8.533,-4.775 12.443,-8.055c11.348,-9.522 22.877,-28.013 25.692,-41.206c0.526,-2.469 1.001,-8.827 0.714,-9.575c-0.137,-0.353 -1.809,-0.39 -9.498,-0.211c-15.058,0.351 -32.364,0.892 -39.2,1.226c-6.759,0.328 -16.054,1.195 -16.428,1.534c-0.216,0.198 -1.192,17.66 -1.835,32.93c-0.41,9.676 -0.415,27.059 -0.013,29.526c0.17,1.036 0.489,1.996 0.712,2.139c0.866,0.55 2.645,0.181 10.125,-2.095zM125.88,384.363c0.085,-0.087 0.346,-14.05 0.582,-31.027l0.425,-30.867l-6.352,-0.212c-12.446,-0.412 -51.904,-0.361 -54.649,0.071c-5.032,0.797 -6.775,1.774 -7.507,4.207c-0.342,1.138 -0.313,1.974 0.17,5.36c1.692,11.819 5.196,17.682 19.29,32.288c9.157,9.487 13.084,13.029 16.8,15.141c3.25,1.852 8.703,3.544 15.188,4.716c2.733,0.494 4.624,0.599 9.646,0.544c3.437,-0.038 6.319,-0.141 6.406,-0.228zM795.373,317.019c1.391,-0.202 2.7,-0.509 2.912,-0.684c1.182,-0.981 1.625,-11.772 0.645,-15.691c-2.205,-8.826 -12.609,-28.289 -18.66,-34.91c-6.33,-6.928 -18.304,-13.898 -28.244,-16.439c-2.16,-0.553 -11.478,-1.869 -13.23,-1.869h-0.703l0.17,16.441c0.186,18.012 -0.042,24.785 -1.38,40.839c-0.463,5.554 -0.786,10.147 -0.72,10.202c0.066,0.055 3.696,0.268 8.066,0.465c5.681,0.258 8.803,0.544 10.961,1.012c1.66,0.357 4.02,0.775 5.241,0.929c3.184,0.394 31.836,0.153 34.939,-0.294zM726.411,313.748c0.181,-1.44 0.94,-15.03 1.467,-26.293c0.175,-3.756 0.412,-14.605 0.522,-24.106l0.203,-17.275l-10.455,0.169c-7.185,0.115 -11.401,0.323 -13.474,0.659c-6.07,0.988 -11.118,2.876 -16.604,6.207c-13.139,7.974 -25.729,26.056 -30.334,43.562c-1.061,4.042 -1.138,4.654 -1.28,10.519l-0.148,6.223l5.993,0.205c11.148,0.383 31.658,0.893 45.867,1.138c7.776,0.135 15.023,0.268 16.106,0.294l1.965,0.049zM444.041,313.189c2.304,-0.176 4.735,-0.498 5.401,-0.714c1.072,-0.35 1.217,-0.522 1.303,-1.556c0.148,-1.767 -0.665,-3.384 -1.982,-3.932c-1.783,-0.742 -4.625,-0.554 -12.743,0.862c-7.5,1.305 -7.726,1.325 -15.08,1.314c-4.536,-0.005 -10.994,-0.278 -16.446,-0.69c-9.674,-0.731 -14.055,-0.852 -14.055,-0.387c0,0.161 0.768,0.582 1.71,0.934c7.54,2.821 37.746,5.248 51.893,4.168zM126.729,278.877v-31.456h-0.664c-1.083,0 -8.595,0.962 -10.139,1.302c-5.072,1.105 -12.407,3.943 -19.698,7.617c-5.863,2.953 -10.07,5.667 -12.908,8.321c-5.586,5.227 -17.503,20.212 -19.838,24.944c-1.314,2.667 -2.667,8.164 -3.47,14.107c-0.361,2.678 -0.738,5.263 -0.834,5.746l-0.177,0.874h67.726zM143.251,309.39c2.172,-0.588 10.323,-0.971 27.529,-1.281c18.375,-0.335 27.761,-0.764 28.805,-1.322c0.572,-0.305 0.61,-0.577 0.454,-3.083c-0.29,-4.559 -3.085,-13.025 -6.891,-20.857c-6.066,-12.493 -14.558,-19.761 -30.356,-25.982c-7.771,-3.062 -23.017,-7.765 -23.358,-7.21c-0.401,0.653 -0.643,6.717 -0.934,23.658c-0.159,9.262 -0.181,20.971 -0.053,26.017c0.234,9.065 0.246,9.184 0.969,9.771c0.807,0.654 2.13,0.753 3.839,0.288zM425.217,292.049c2.086,-0.1 4.944,-0.32 6.352,-0.489c3.265,-0.39 15.207,-2.559 15.465,-2.809c0.107,-0.104 0.365,-9.124 0.57,-20.047c1.134,-60.157 2.007,-86.545 3.058,-92.527c0.256,-1.446 0.464,-2.861 0.465,-3.14c0,-0.444 -1.004,-0.532 -8.18,-0.714c-4.5,-0.115 -14.402,-0.506 -22.004,-0.868c-15.564,-0.742 -31.761,-0.92 -33.098,-0.366c-0.806,0.335 -0.855,0.489 -0.988,2.991c-0.077,1.451 -0.33,18.936 -0.562,38.859c-0.335,28.651 -0.344,39.64 -0.046,52.585c0.379,16.571 0.676,20.872 1.512,22.159c1.475,2.26 9.625,3.965 21.584,4.515c5.279,0.243 8.167,0.214 15.867,-0.152zM376.146,228.468v-58.988l-38.842,0.201c-43.976,0.225 -50.833,0.472 -52.228,1.867c-0.361,0.361 0.535,3.719 5.635,21.072c3.84,13.073 6.508,21.598 7.276,23.248c4.973,10.681 19.496,30.328 25.838,34.956c2.456,1.791 7.133,6.036 15.533,14.089c10.367,9.938 14.618,13.26 21.51,16.782c3.281,1.677 13.593,5.648 14.883,5.731c0.315,0.019 0.398,-11.972 0.398,-58.962zM462.252,284.899c1.313,-0.329 4.504,-0.97 7.094,-1.423c8.064,-1.411 10.634,-2.425 17.053,-6.732c2.359,-1.582 5.859,-3.776 7.782,-4.873c6.912,-3.943 10.683,-6.934 17.792,-14.093c10.851,-10.928 15.088,-17.396 27.177,-41.496c3.286,-6.552 6.92,-13.488 8.073,-15.409c2.187,-3.646 3.338,-6.684 5.226,-13.821c1.336,-5.046 2.579,-11.383 2.579,-13.153c0,-1.317 -0.093,-1.512 -0.871,-1.809c-1.784,-0.676 -12.409,-0.979 -27.566,-0.781c-34.459,0.45 -64.864,1.285 -65.489,1.798c-0.195,0.159 -0.445,1.113 -0.553,2.115c-0.918,8.555 -2.799,70.115 -2.863,93.657c-0.038,14.278 -0.005,15.317 0.537,16.15c0.401,0.617 0.742,0.822 1.113,0.676c0.291,-0.115 1.606,-0.478 2.919,-0.808zM532.943,159.554c12.581,-0.093 23.193,-0.239 23.581,-0.323c1.155,-0.242 1.413,-1.127 1.039,-3.547c-0.456,-2.958 -2.166,-8.321 -4.955,-15.558c-3.041,-7.892 -5.307,-14.579 -8.273,-24.405c-4.495,-14.91 -6.786,-21.069 -10.771,-28.957c-5.39,-10.672 -10.983,-17.874 -21.279,-27.408c-11.333,-10.494 -20.581,-17.407 -25.961,-19.409c-2.102,-0.782 -5.808,-3.132 -8.99,-5.703c-6.343,-5.125 -17.59,-12.221 -21.994,-13.878c-4.24,-1.596 -7.993,-2.062 -22.645,-2.81c-34.569,-1.765 -39.52,-1.395 -50.859,3.822c-18.023,8.295 -42.593,26.862 -54.836,41.444c-2.617,3.118 -6.483,6.924 -9.003,8.869c-2.383,1.841 -5.101,4.987 -8.363,9.682c-3.129,4.504 -6.788,9.264 -9.435,12.27c-4.859,5.516 -7.441,10.058 -10.623,18.665c-1.275,3.451 -3.062,8.206 -3.967,10.565c-3.326,8.64 -4.192,14.734 -3.58,25.165c0.199,3.398 0.503,6.553 0.676,7.012c0.372,0.981 1.2,1.247 6.065,1.948c10.727,1.545 24.659,1.992 37.015,1.182c5.145,-0.335 11.577,-0.393 28.12,-0.245c21.32,0.192 28.596,0.387 49.565,1.322c6.029,0.269 12.32,0.535 13.979,0.595c3.932,0.137 86.028,-0.071 115.495,-0.294z" /></svg>