<svg xmlns="http://www.w3.org/2000/svg" viewBox="0 0 1024 1024" width="1024" height="1024"><path d="M64,0h384v64h-384zM576,0h384v64h-384zM1024,392v560c0,39.6 -32.4,72 -72,72h-304c-39.6,0 -72,-32.4 -72,-72v-376h-128v376c0,39.6 -32.4,72 -72,72h-304c-39.6,0 -72,-32.4 -72,-72v-560c0,-39.6 32.4,-72 72,-72h56v-256h256v256h256v-256h256v256h56c39.6,0 72,32.4 72,72zM384,928c0,-17.6 -16.2,-32 -36,-32h-248c-19.8,0 -36,14.4 -36,32c0,17.6 16.2,32 36,32h248c19.8,0 36,-14.4 36,-32zM576,480c0,-17.6 -14.4,-32 -32,-32h-64c-17.6,0 -32,14.4 -32,32c0,17.6 14.4,32 32,32h64c17.6,0 32,-14.4 32,-32zM960,928c0,-17.6 -16.2,-32 -36,-32h-248c-19.8,0 -36,14.4 -36,32c0,17.6 16.2,32 36,32h248c19.8,0 36,-14.4 36,-32z" /></svg>