<svg xmlns="http://www.w3.org/2000/svg" viewBox="0 0 1024 1024" width="1024" height="1024"><path d="M1006.272,904.778l-101.492,101.492c-24.888,24.888 -63.996,23.386 -86.904,-3.338l-394.76,-460.552c-40.298,21.45 -86.282,33.62 -135.116,33.62c-159.058,0 -288,-128.942 -288,-288c0,-29.094 4.332,-57.172 12.354,-83.646l166.39,166.39c24.89,24.89 65.62,24.89 90.51,0l101.49,-101.49c24.89,-24.89 24.89,-65.62 0,-90.51l-166.39,-166.39c26.474,-8.022 54.552,-12.354 83.646,-12.354c159.058,0 288,128.942 288,288c0,48.834 -12.17,94.818 -33.618,135.116l460.552,394.76c26.724,22.908 28.226,62.014 3.338,86.902z" /></svg>