<svg xmlns="http://www.w3.org/2000/svg" viewBox="0 0 890 1024" width="890" height="1024"><path d="M9.26,627.378c24.142,-116.88 113.294,-211.972 120.874,-328.628c33.768,61.452 37.776,105.764 41.55,169.98c107.4,-131.586 218.778,-307.686 194.696,-468.73c0,0 203.62,64 285.972,376.276c48.648,-43.276 44.082,-132.45 20,-185.126c72.244,52.678 487.218,520.318 -65.154,832.85c103.854,-202.21 26.792,-475.054 -153.522,-601.066c12.042,54.184 -3.01,195.664 -82.782,284.464c18.062,-91.808 -27.092,-150.508 -27.092,-150.508c0,0 -14.804,83.11 -72.244,167.066c-52.452,76.666 -88.796,158.036 -20.55,300.044c-217.252,-122.442 -274.45,-238.336 -241.748,-396.622z" /></svg>