<svg xmlns="http://www.w3.org/2000/svg" viewBox="0 0 1024 1024" width="1024" height="1024"><path d="M259.544,511.998c0,-65.416 53.03,-118.446 118.446,-118.446c65.416,0 118.446,53.03 118.446,118.446c0,65.416 -53.03,118.446 -118.446,118.446c-65.416,0 -118.446,-53.03 -118.446,-118.446zM1024,512c0,282.77 -229.232,512 -511.996,512c-282.778,0 -512.004,-229.232 -512.004,-512c0,-282.768 229.23,-512 512.004,-512c282.766,0 511.996,229.232 511.996,512zM636.98,512c0,-190.994 -103.58,-357.72 -257.59,-447.282c-153.95,89.574 -257.462,256.324 -257.462,447.282c0,190.958 103.512,357.708 257.468,447.282c154.004,-89.564 257.584,-256.294 257.584,-447.282z" /></svg>