<svg xmlns="http://www.w3.org/2000/svg" viewBox="0 0 1152 1024" width="1152" height="1024"><path d="M1152,192v768c0,35.2 -28.8,64 -64,64h-896c-35.2,0 -64,-28.8 -64,-64v-64h-64c-35.2,0 -64,-28.8 -64,-64v-768c0,-35.2 28.8,-64 64,-64h896c35.2,0 64,28.8 64,64v64h64c35.2,0 64,28.8 64,64zM128,192c0,-35.2 28.8,-64 64,-64h768v-63.884c-0.034,-0.04 -0.076,-0.082 -0.116,-0.116h-895.77c-0.038,0.032 -0.08,0.074 -0.114,0.114v767.77c0.032,0.04 0.074,0.082 0.114,0.116h63.886v-640zM1088,192.116c-0.034,-0.04 -0.076,-0.082 -0.116,-0.116h-895.77c-0.038,0.032 -0.08,0.074 -0.114,0.114v767.77c0.032,0.04 0.074,0.082 0.114,0.116h895.77c0.04,-0.034 0.082,-0.076 0.116,-0.116z" /> <path d="M960,352c0,53.02 -42.98,96 -96,96c-53.02,0 -96,-42.98 -96,-96c0,-53.02 42.98,-96 96,-96c53.02,0 96,42.98 96,96z" /> <path d="M1024,896h-768v-128l224,-384l256,320h64l224,-192z" /></svg>