<svg xmlns="http://www.w3.org/2000/svg" viewBox="0 0 859 832" width="859" height="832"><path d="M424.246,831.001c-5.944,-0.942 -20.532,-2.639 -32.416,-3.775c-60.246,-5.751 -181.915,-24.056 -196.47,-29.56c-18.131,-6.857 -64.262,-29.087 -72.693,-35.028c-23.182,-16.337 -34.082,-28.311 -56.063,-61.574c-27.1,-41.011 -35.936,-59.519 -40.179,-84.172c-3.554,-20.639 -11.953,-56.32 -19.655,-83.5c-4.286,-15.125 -5.192,-23.263 -6.257,-56.273c-1.378,-42.705 1.813,-113.909 6.374,-142.261c1.631,-10.142 7.164,-29.557 12.876,-45.188c20.384,-55.785 27.797,-76.828 31.342,-88.985c2.701,-9.262 6.557,-16.005 15.007,-26.253c13.116,-15.907 25.892,-33.01 43.32,-57.981c6.818,-9.769 14.644,-18.695 17.556,-20.022c2.891,-1.318 8.404,-4.884 12.256,-7.929c13.227,-10.456 54.174,-34.269 73.802,-42.922c62.653,-27.621 194.515,-51.52 244.223,-44.26c35.628,5.203 73.739,15.3 140.666,37.27c38.317,12.577 61.661,23.341 77.443,35.709c3.976,3.115 9.092,6.64 11.366,7.832c2.274,1.192 11.395,7.933 20.271,14.982c46.589,37.005 81.412,71.81 99.066,99.018c20.806,32.061 22.356,36.003 31.82,80.866c2.849,13.504 8.718,34.171 13.045,45.928l7.865,21.376l-0.638,59.182c-0.799,74.227 -5.287,105.519 -23.705,165.275c-5.702,18.505 -35.485,81.734 -47.66,101.182c-13.304,21.252 -40.531,53.303 -66.66,78.462c-9.61,9.253 -21.819,21.017 -27.13,26.142c-12.003,11.577 -20.759,17.571 -45.977,31.466c-25.443,14.02 -51.6,20.846 -89.189,23.282c-40.172,2.603 -121.398,3.642 -133.599,1.709zM437.017,793.651c-39.212,-7.962 -116.082,-48.053 -142.73,-74.437c-19.61,-19.415 -37.186,-34.594 -45.926,-39.658c-4.296,-2.489 -10.908,-6.961 -14.69,-9.931c-11.511,-9.045 -21.175,-11.984 -45.188,-13.741c-44.512,-3.256 -45.103,-3.446 -45.157,-14.5l-0.028,-5.96l20.757,-2.464c27.479,-3.264 50.147,0.409 70.6,11.444c7.564,4.079 15.963,8.084 18.664,8.898c2.701,0.814 10.969,6.218 18.375,12.005c7.403,5.789 14.265,10.523 15.242,10.523c0.977,0 7.125,4.912 13.656,10.916c6.532,6.004 19.122,15.58 27.981,21.282c20.855,13.422 64.698,33.928 76.029,35.561c4.863,0.7 15.472,2.484 23.575,3.964c8.103,1.48 25.343,4.634 38.312,7.008c12.967,2.373 25.606,5.57 28.088,7.104c2.482,1.534 10.881,3.57 18.664,4.529c7.783,0.956 18.924,2.373 24.758,3.15c9.052,1.202 10.996,0.877 13.262,-2.221c4.392,-6.008 3.16,-10.355 -8.54,-30.129c-18.553,-31.354 -44.377,-57.512 -66.4,-67.254c-7.902,-3.495 -25.271,-7.799 -42.741,-10.59c-6.585,-1.052 -7.367,-1.793 -7.367,-6.983c0,-5.475 0.452,-5.804 7.956,-5.804c4.375,0 10.343,1.202 13.262,2.671c2.919,1.469 9.462,3.215 14.542,3.88c12.763,1.67 28.236,7.413 39.773,14.763c5.791,3.69 12.304,6.193 16.116,6.193c6.961,0 7.276,0.331 20.667,21.612c9.829,15.619 32.046,35.366 39.792,35.366c1.44,0 5.793,1.326 9.673,2.946c3.88,1.62 7.603,2.946 8.274,2.946c0.671,0 0.602,-7.448 -0.157,-16.551c-1.319,-15.84 0.506,-34.116 7.045,-70.535c2.512,-13.987 20.725,-70.26 24.342,-75.207c2.156,-2.949 3.139,-3.139 5.62,-1.083c2.676,2.22 2.505,3.96 -1.561,15.917c-6.282,18.468 -9.389,50.198 -8.572,87.535c0.793,36.221 2.788,43.223 12.315,43.223c4.582,0 6.569,-1.533 10.185,-7.858c11.32,-19.796 26.548,-52.33 30.346,-64.836c5.23,-17.218 11.325,-30.704 23.639,-52.297c5.31,-9.314 9.656,-18.085 9.656,-19.493c0,-1.408 1.254,-3.956 2.788,-5.661c3.433,-3.817 11.808,-33.635 14.666,-52.219c2.778,-18.067 4.735,-73.469 4.959,-140.475c0.22,-65.812 2.764,-80.583 13.422,-77.909c4.776,1.199 4.835,1.499 6.055,30.228c0.679,15.958 2.582,37.417 4.231,47.681c1.649,10.264 3.865,24.411 4.921,31.435c4.639,30.816 -0.667,106.087 -8.908,126.369c-2.593,6.382 -5.219,14.819 -5.835,18.749c-3.955,25.224 -4.786,33.455 -5.778,57.245c-1.145,27.451 -0.778,28.281 6.075,13.753c0.764,-1.62 3.893,-6.643 6.953,-11.16c3.06,-4.517 5.563,-8.801 5.563,-9.521c0,-0.72 1.869,-3.932 4.154,-7.143c11.654,-16.368 35.832,-70.769 43.941,-98.876c10.967,-38.015 13.521,-109.634 5.077,-142.464c-6.846,-26.627 -12.772,-44.258 -24.758,-73.677c-26.066,-63.979 -39.455,-84.576 -86.206,-132.618c-29.171,-29.975 -47.924,-46.286 -66.969,-58.249c-41.554,-26.102 -57.309,-31.613 -125.742,-43.99c-53.38,-9.653 -72.117,-11.682 -105.111,-11.381c-20.777,0.19 -22.592,0.434 -11.788,1.57c7.025,0.739 15.866,2.353 19.648,3.586c7.092,2.312 22.582,6.651 36.347,10.183c4.322,1.11 11.394,4.181 15.718,6.831c4.324,2.65 13.604,7.883 20.629,11.632c12.674,6.766 37.461,30.141 53.397,50.355c16.907,21.444 35.333,66.255 41.932,101.986c8.187,44.323 6.441,74.728 -7.364,128.129c-2.976,11.512 -18.975,41.74 -34.826,65.795c-17.124,25.986 -48.863,60.057 -62.924,67.543c-2.679,1.426 -9.21,6.025 -14.515,10.218c-11.017,8.709 -38.193,22.236 -48.395,24.092c-3.782,0.687 -10.855,2.924 -15.718,4.971c-4.863,2.047 -15.41,5.662 -23.437,8.039c-13.603,4.023 -17.283,4.242 -54.029,3.191c-23.77,-0.679 -46.065,-2.407 -56.133,-4.352c-21.1,-4.076 -45.385,-15.578 -60.118,-28.469c-6.173,-5.401 -11.94,-9.821 -12.817,-9.821c-0.877,0 -5.988,-3.758 -11.362,-8.351c-5.374,-4.593 -14.199,-11.693 -19.612,-15.783c-15.19,-11.469 -40.178,-45.327 -52.298,-70.864c-23.6,-49.72 -28.353,-70.056 -28.547,-122.102l-0.138,-37.329l-11.407,28.852c-6.272,15.867 -14.317,40.181 -17.872,54.029c-6.152,23.952 -6.49,27.137 -6.948,65.454c-0.529,44.199 2.115,76.048 10.117,121.811c6.429,36.779 24.394,91.38 39.431,119.846c5.993,11.345 16.067,30.621 22.388,42.833c21.208,40.978 31.276,51.75 65.436,70.011c34.452,18.415 72.847,31.758 102.415,35.586c5.402,0.699 16.453,2.878 24.559,4.841c8.106,1.963 20.481,4.114 27.505,4.78c30.875,2.931 72.586,7.402 82.517,8.842c5.944,0.863 15.227,1.583 20.629,1.605l9.822,0.037l-7.858,-1.595zM564.721,681.724c-0.669,-1.081 -0.279,-1.965 0.865,-1.965c1.144,0 2.081,0.884 2.081,1.965c0,1.081 -0.39,1.965 -0.865,1.965c-0.475,0 -1.412,-0.884 -2.081,-1.965z" /></svg>