<svg xmlns="http://www.w3.org/2000/svg" viewBox="0 0 912 704" width="912" height="704"><path d="M158.116,446.424h29.331c17.647,0 35.293,0 52.891,0c19.914,0 40.408,-1.051 60.284,0.325c13.835,0.919 27.537,2.846 41.42,3.196c16.154,0.454 32.312,-0.045 48.467,0c21.845,0.045 43.475,2.189 65.231,2.668c9.324,0.234 18.605,0.182 27.932,0.142c12.173,0 24.39,-0.04 36.602,0c15.021,0.045 29.859,-0.831 44.83,-1.664c13.138,-0.699 26.4,-0.142 39.495,-0.142h95.703c10.205,0 20.618,0.532 30.823,-0.094c2.409,-0.142 4.726,-0.661 7.098,-1.051c1.165,-0.234 5.777,-1.398 7.176,-0.569c0.519,0.413 0.908,2.055 1.165,2.627c2.189,4.55 8.498,8.316 12.173,11.82c5.905,5.649 8.186,11.294 12.656,17.945c3.24,4.814 7.046,8.933 11.035,13.137c3.198,3.328 6.177,6.658 9.807,9.411c3.07,2.367 5.957,4.469 8.897,6.963c2.836,2.407 3.24,4.728 4.107,8.23c0.519,2.281 2.097,5.737 1.877,8.056c-2.707,-1.313 -3.056,-0.479 -2.008,2.673c0.776,2.321 2.189,4.51 4.896,4.728c2.317,0.182 3.46,-0.045 5.685,1.051c3.68,1.923 7.759,4.243 11.035,6.784c0.647,0.611 1.359,1.23 2.06,1.836c0.128,0.622 0.259,1.271 0.259,1.887c0.519,1.051 1.748,1.398 1.62,2.668c-0.259,2.189 -6.397,2.714 -7.745,2.932c-19.834,3.064 -40.498,2.539 -60.55,2.539c-31.828,-0.094 -63.615,-0.045 -95.44,-0.045c-22.766,0 -45.578,-0.959 -68.257,1.796c-18.649,2.275 -36.901,1.623 -55.641,1.711c-13.965,0.094 -27.454,1.23 -41.332,3.02c-14.933,1.968 -29.331,3.372 -44.436,2.321c-18.913,-1.403 -37.692,-5.253 -56.477,-7.794c-14.099,-1.923 -28.109,-4.33 -42.163,-6.306c-8.626,-1.23 -17.293,-1.579 -25.873,-3.064c-6.786,-1.139 -13.529,-2.627 -20.398,-3.46c-13.27,-1.579 -26.837,-1.271 -40.193,-1.975c-15.583,-0.789 -31.036,-0.867 -46.579,0.045c-19.529,1.139 -39.143,-0.789 -58.623,0.831c-7.796,0.661 -15.499,1.664 -23.288,2.275c-11.424,0.881 -22.766,3.33 -34.149,4.384c-8.236,0.739 -16.288,0.867 -24.523,0.831c-4.469,-0.045 -9.895,0.789 -14.355,-0.182c-0.128,-1.313 0.259,-2.141 0.776,-3.282c4.857,-10.511 12.692,-19.793 20.357,-28.282c6.915,-7.62 13.31,-15.371 19.177,-23.775c3.9,-5.561 7.667,-11.074 11.733,-16.504c1.542,-2.016 2.228,-3.898 3.07,-6.173c1.436,-3.766 4.598,-7.31 7.305,-10.244c2.591,-2.846 3.368,-6.001 3.418,-9.722z" /> <path d="M692.081,364.433c-7.755,1.704 -7.095,2.571 -10.555,2.805c-7.746,0.524 -15.545,-1.496 -23.251,-2.195c-6.082,-0.525 -11.689,-1.397 -17.686,-2.448c-5.903,-1.011 -11.68,-0.519 -17.599,-1.051c-6.306,-0.556 -12.523,-0.468 -18.869,-0.881c-5.077,-0.482 -10.154,-1.012 -15.192,-1.491c-5.912,-0.227 -11.781,-0.324 -17.686,-0.182c-23.112,0.085 -46.275,0.045 -69.392,0.045c-12.301,0 -24.598,0.04 -36.863,0c-14.532,-0.045 -28.72,0.569 -43.213,1.4c-15.587,0.894 -31.172,0.054 -46.755,0.325c-9.111,0.22 -18.168,0.702 -27.235,1.491c-9.893,0.507 -19.793,0.684 -29.727,0.413c-17.466,-0.092 -34.893,0.817 -52.36,0.959c-15.059,0.088 -29.724,-0.347 -44.742,1.623c-12.478,1.664 -25.522,2.803 -37.826,5.517c-3.509,0.791 -7.722,3.04 -11.347,2.627c-0.385,-1.004 2.684,-3.725 3.46,-4.464c2.057,-2.188 4.634,-3.898 6.694,-6.173c5.166,-5.562 8.712,-12.964 11.292,-19.967c4.068,-10.942 10.723,-20.752 16.812,-30.603c2.717,-4.376 4.856,-9.106 7.926,-13.263c2.057,-2.846 4.417,-5.339 6.826,-7.84c2.577,-2.669 7.186,-5.647 8.094,-9.367c2.37,-0.66 5.296,0.34 7.667,0.611c7.177,0.779 14.443,0 21.67,0.325c7.093,0.351 14.007,1.713 21.014,2.58c8.537,1.054 17.077,1.747 25.612,2.501c3.014,0.268 5.736,0.873 8.663,1.484c4.414,0.854 8.975,0.908 13.481,1.179c15.458,0.957 30.783,1.139 46.28,1.139c17.599,0 35.199,0.046 52.798,0c6.871,-0.04 13.74,-0.129 20.618,0.142c9.372,0.352 18.566,2.013 27.801,3.284c15.147,2.101 30.384,2.231 45.622,2.8c12.957,0.548 26.007,0.094 38.919,0.094c15.892,0 32.094,1.015 47.896,-1.087c7.091,-0.962 13.609,-1.765 20.798,-1.623c3.545,0.044 10.718,-0.528 13.529,2.8c1.268,1.534 1.723,3.723 2.888,5.341c0.96,1.403 2.112,2.712 3.02,4.071c3.368,4.689 6.126,9.548 8.535,14.801c0.959,2.103 2.01,2.846 3.46,4.596c1.749,2.102 3.056,4.509 4.598,6.744c5.382,7.662 12.261,14.273 17.818,21.803c1.307,1.793 3.937,9.333 6.474,9.191z" /> <path d="M566.88,225.873c-12.695,0 -25.431,-0.102 -38.175,0.04c-6.266,0.086 -12.341,-1.251 -18.609,-1.664c-11.602,-0.766 -23.289,0.037 -34.893,-0.234c-8.316,-0.173 -16.366,-1.753 -24.602,-2.932c-13.833,-1.97 -27.8,-1.673 -41.765,-1.491c-5.696,0.052 -11.303,0.092 -16.988,-0.647c-4.473,-0.576 -8.982,-1.301 -13.488,-1.755c-12.433,-1.114 -25.084,-0.365 -37.52,-0.325c-9.804,0.086 -19.392,-1.132 -29.199,-1.664c-7.75,-0.453 -15.582,-0.182 -23.42,-0.182c-2.886,0 -5.828,0.04 -8.755,0c-0.612,0 -1.841,0.319 -2.36,-0.094c-2.665,-2.28 3.745,-11.606 4.91,-13.488c1.803,-2.799 4.767,-5.252 6.089,-8.316c0.917,-2.365 0.917,-5.389 1.436,-7.882c0.675,-3.287 0.675,-6.919 1.84,-10.071c0.775,-2.148 1.968,-5.252 4.065,-6.041c2.138,-0.785 6.217,-0.046 8.406,-0.046c3.146,0.046 6.307,0 9.455,0c5.294,0 10.552,0.046 15.849,0.046c5.699,-0.048 11.476,-0.319 17.161,0.094c5.735,0.394 10.865,2.013 16.33,3.372c7.049,1.708 14.485,1.055 21.674,1.009c5.606,0 11.203,0 16.81,0.094c7.613,0.086 15.013,-0.745 22.499,-1.796c7.574,-1.055 15.016,-1.055 22.634,-1.009c19.352,0.134 38.701,0 58.051,0.04c9.371,0 18.872,0.465 28.196,-0.234c4.427,-0.286 8.713,-0.739 13.09,-0.699c1.232,0 3.395,-0.453 4.56,-0.04c1.84,0.615 2.382,3.633 3.29,5.297c1.49,2.673 3.459,4.991 4.818,7.75c1.177,2.369 2.317,3.946 4.065,5.955c4.547,5.168 7.653,11.559 11.682,17.12c2.551,3.546 4.726,7.399 7.447,10.815c0.737,0.874 1.411,1.699 2.448,2.321c-0.261,-0.792 -0.935,-1.309 -1.711,-1.491z" /> <path d="M512.008,133.102c-12.695,2.715 -17.33,3.117 -21.67,2.016c-1.322,-0.322 -2.721,-0.268 -4.029,-0.362c-4.504,-0.437 -8.973,-1.409 -13.442,-2.148c-8.627,-1.405 -17.07,-1.357 -25.788,-1.311c-23.686,0.048 -47.326,0.096 -70.969,-0.046c-12.48,-0.05 -25.049,0.482 -37.52,1.051c-3.056,0.132 -8.223,2.102 -11.072,0.611c2.395,-5.431 5.956,-9.064 6.864,-15.021c0.518,-3.328 1.969,-6.784 2.097,-10.112c0.078,-2.453 -0.619,-2.981 1.62,-3.592c1.877,-0.525 6.827,1.469 8.626,1.882c7.483,1.572 14.925,1.999 22.543,2.453c9.504,0.565 18.786,1.969 28.241,2.8c5.465,0.555 11.075,0.142 16.592,0.142c14.23,0.04 28.456,0.04 42.685,0.04c10.861,-0.04 22.413,1.177 33.188,-0.182c2.501,-0.305 6.658,-2.411 9.287,-1.75c1.85,0.477 1.982,1.353 2.758,3.064c1.529,3.281 3.058,6.435 4.417,9.807c1.451,3.721 4.557,6.831 6.177,10.551c-0.256,0 -0.519,0.054 -0.647,0.094z" /> <path d="M506.565,109.678c-0.259,-1.75 0.259,-2.932 0.908,-4.51c1.62,-4.377 1.579,-9.544 2.189,-14.099c1.037,-6.958 0.519,-14.141 0.519,-21.146c-0.094,-8.276 1.711,-16.242 1.799,-24.516c0.04,-6.698 1.918,-12.392 -0.519,-18.957c-1.037,-3.108 -2.537,-6.346 -0.094,-9.059c2.281,-2.501 5.997,-3.064 8.535,-5.341c1.491,-1.315 2.448,-3.416 4.12,-4.469c1.436,-0.919 3.328,-0.699 4.989,-0.479c4.78,0.611 9.195,1.836 12.876,4.901c1.62,1.359 2.668,1.97 3.548,3.812c0.776,1.618 1.294,2.58 1.656,4.291c0.647,2.714 0.908,4.901 0.908,7.791c-0.039,7.442 -0.039,14.887 -0.039,22.374c0,5.955 0.259,11.34 -1.165,17.075c-1.491,5.735 -0.647,12.172 -0.647,18.037c0,6.041 -0.908,11.952 -0.908,17.991c0.039,10.071 0.128,20.178 -2.019,29.991c-0.519,1.796 -0.647,5.385 -2.978,6.001c-1.037,0.271 -2.06,-0.622 -2.978,-1.051c-3.148,-1.623 -6.658,-2.407 -9.728,-4.291c-4.469,-2.759 -6.956,-7.269 -10.375,-11.035c-1.62,-1.796 -3.418,-3.108 -4.598,-5.253c-0.647,-1.101 -0.776,-2.275 -6.034,-8.056z" /> <path d="M297.046,132.186c-0.792,-1.446 -2.2,-3.721 -2.591,-5.385c-0.583,-2.759 0.73,-6.79 0.776,-9.722c0.299,-9.414 0.299,-18.998 0.04,-28.415c-0.132,-4.861 -1.803,-9.503 -1.931,-14.317c-0.263,-4.424 0,-8.754 -0.391,-13.177c-0.413,-5.118 -1.322,-10.332 -1.45,-15.497c0,-2.981 -0.517,-6.963 0.259,-9.939c0.557,-2.235 2.111,-4.469 3.148,-6.392c1.784,-3.245 2.9,-6.263 4.065,-9.763c0.661,-1.925 2.07,-3.542 2.978,-5.385c1.283,-2.67 1.672,-5.167 2.448,-7.923c1.051,-4.12 3.977,-3.635 7.085,-5.299c1.464,-0.777 0.918,-0.999 2.629,-0.959c2.317,0.044 4.818,1.122 7.135,1.447c3.098,0.439 2.753,0.569 2.707,3.853c0,2.013 0.385,3.503 0.776,5.473c0.387,2.227 0,4.421 0.128,6.65c0.132,2.455 0.862,4.69 0.908,7.183c0.086,3.018 -0.219,6.039 0.04,9.059c1.167,12.478 0.776,25.041 0.776,37.606c0,7.706 0.257,15.192 0.776,22.812c0.256,3.414 0.517,7.399 -0.391,10.683c-0.519,1.968 -1.763,3.103 -2.8,4.814c-1.721,2.972 -3.483,5.995 -4.648,9.191c-1.001,2.717 -1.286,5.475 -2.58,8.102c-0.83,1.664 -1.721,3.281 -2.629,4.948c-0.739,1.357 -2.45,4.532 -4.029,4.857z" /> <path d="M643.43,287.06c-1.436,0.325 -2.448,-0.661 -3.625,-1.311c-2.317,-1.315 -4.726,-2.367 -6.878,-3.985c-3.02,-2.281 -5.649,-4.948 -8.535,-7.355c-2.978,-2.493 -5.737,-4.157 -7.926,-7.442c-3.496,-5.385 -6.438,-11.208 -9.856,-16.68c-4.029,-6.432 -6.254,-14.053 -6.438,-21.671c-0.094,-2.627 -0.519,-6.441 0.259,-9.065c0.519,-1.836 1.748,-3.634 2.409,-5.429c1.528,-4.071 1.656,-8.362 2.448,-12.605c1.931,-10.555 2.151,-20.929 2.151,-31.652c0,-10.949 0.128,-21.85 0,-32.752c-0.044,-4.814 0.647,-9.367 1.294,-14.141c0.519,-3.284 1.165,-7.178 0.391,-10.465c-0.519,-2.148 -1.491,-4.157 0.128,-6.001c0.908,-1.051 2.721,-1.711 3.9,-2.361c3.24,-1.796 6.438,-3.944 10.076,-4.814c4.857,-1.179 10.115,-0.479 15.065,-0.454c3.845,0 7.653,0 11.462,-0.046c6.034,-0.04 14.84,0.831 19.92,4.51c1.931,1.359 3.937,3.196 5.827,4.688c2.189,1.79 4.029,3.586 4.079,6.478c0.094,6.432 0.776,12.785 0.908,19.217c0.046,7.355 -0.391,14.493 -1.579,21.762c-1.165,7.266 -1.918,14.141 -1.968,21.498c-0.128,10.159 -2.36,20.178 -1.968,30.384c0.391,8.621 1.308,16.982 0.776,25.656c-0.259,5.821 -1.528,11.248 -2.36,16.896c-0.519,3.856 -0.128,7.62 -1.037,11.472c-1.4,5.781 -5.258,10.465 -7.575,15.849c-2.281,5.253 -9.494,7.923 -21.232,9.807z" /> <path d="M208.565,274.451c-4.636,-2.453 -12.446,-5.212 -13.483,-10.815c-1.023,-5.34 -1.799,-11.163 -1.799,-16.548c-0.055,-4.994 -0.583,-10.071 -1.491,-14.933c-0.725,-4.118 -1.111,-8.409 -2.019,-12.48c-0.881,-3.41 -2.018,-6.739 -3.418,-9.983c-1.063,-3.543 -1.581,-7.129 -1.322,-10.809c-0.048,-5.828 -0.082,-11.691 0.046,-17.472c0.078,-6.917 1.45,-13.703 2.097,-20.574c0.441,-4.378 1.098,-8.581 1.877,-12.918c0.779,-4.337 0.647,-8.887 2.138,-13.044c0.958,-2.719 2.886,-4.337 4.726,-6.526c4.289,-5.08 9.455,-8.933 14.053,-13.747c3.949,-4.115 5.96,-9.37 9.158,-13.966c1.4,-2.03 3.148,-2.067 5.649,-1.796c2.59,0.306 2.458,1.405 2.849,3.766c0.583,3.898 1.492,7.401 1.62,11.472c0.22,6.389 1.854,12.387 2.501,18.693c0.518,5.775 1.542,11.163 2.707,16.856c1.464,6.872 1.853,13.923 2.629,20.881c0.624,5.605 2.189,10.508 3.9,15.849c2.409,7.707 3.859,15.895 5.607,23.773c1.492,6.521 2.849,13.046 5.429,19.133c0.385,0.132 0.684,0.377 0.776,0.831c-0.298,1.661 -0.844,3.237 -1.62,4.769c-1.528,3.894 -2.927,7.925 -4.726,11.732c-3.593,7.748 -11.251,12.13 -17.208,17.951z" /> <path d="M809.996,512.151c0,-20.398 -1.165,-41.112 0.908,-61.426c1.528,-15.365 0.908,-30.862 0.908,-46.273c0,-18.825 0.776,-37.785 -0.04,-56.521c-0.391,-8.276 -2.537,-16.11 -4.029,-24.211c-1.037,-6.392 -2.019,-12.785 -3.198,-19.131c-1.542,-8.102 -2.668,-15.498 -2.629,-23.773c0,-4.642 -0.128,-9.237 0.647,-13.701c0.391,-1.711 0.259,-2.539 1.579,-3.812c3.02,-2.978 7.135,-5.299 10.503,-7.97c5.077,-3.985 9.235,-7.049 15.846,-7.75c6.309,-0.611 12.834,-1.101 19.133,-1.139c9.455,-0.094 18.211,3.46 25.216,9.939c8.883,8.276 16.286,18.209 22.719,28.455c2.448,4.642 4.946,9.283 7.409,13.921c2.758,5.341 4.989,10.901 6.736,16.639c0.128,1.139 0.046,2.189 0.046,3.282c-0.046,2.892 -0.128,5.693 -0.519,8.58c-1.528,11.213 -2.36,22.421 -3.639,33.668c-1.322,11.911 -0.044,24.038 -0.908,35.989c-0.776,11.34 -2.097,22.633 -1.931,34.017c0.094,9.191 0.908,18.209 1.542,27.408c1.711,25.216 -0.259,50.517 2.721,75.607c1.037,9.151 0.776,18.209 0.908,27.408c0.04,7.964 -1.037,15.758 -1.62,23.726c-0.519,8.54 -0.128,17.12 -0.128,25.7c0,22.149 0,44.35 0,66.499c0,4.071 0.519,8.714 -0.259,12.744c-0.128,1.139 -0.647,2.229 -0.776,3.414c-0.046,0.831 0.391,2.057 0.094,2.846c-0.908,2.448 -5.905,3.414 -8.186,4.071c-1.528,0.454 -3.108,0.739 -4.598,1.271c-4.065,1.532 -7.135,2.321 -11.554,2.361c-11.127,0.094 -21.931,-2.888 -32.4,-6.307c-6.474,-2.143 -9.636,-5.689 -12.692,-11.424c-3.68,-6.876 -5.957,-13.402 -6.268,-21.498c-0.519,-14.713 -0.776,-30.211 1.037,-44.83c1.037,-8.366 3.988,-16.334 5.038,-24.695c0.776,-6.173 2.707,-12.04 3.68,-18.165c0.647,-4.469 0.519,-9.808 -0.391,-14.185c-1.62,-8.056 -4.417,-15.677 -5.869,-23.859c-0.259,-1.579 -0.391,-3.724 -1.165,-5.126c-1.165,-2.055 -3.02,-4.243 -4.377,-6.3c-1.67,-2.627 -4.428,-6.087 -7.838,-5.561z" /> <path d="M63.515,521.175c-0.178,1.796 -1.85,4.596 -2.758,6.219c-3.326,6.213 -7.098,12.172 -8.975,19.089c-1.84,6.917 -3.033,13.962 -4.91,20.838c-2.047,7.308 -1.494,15.189 -1.4,22.719c0.078,8.622 0.831,16.898 4.327,24.908c1.231,2.803 2.552,5.562 3.328,8.54c0.932,3.501 1.193,7.137 1.84,10.723c1.354,7.62 1.827,15.062 1.308,22.812c-0.206,3.983 -2.331,7.089 -3.496,10.809c-3.147,0.088 -6.396,-0.726 -9.544,-1.051c-3.718,-0.352 -7.487,-0.469 -11.204,-0.831c-4.862,-0.435 -9.499,-1.177 -14.097,-2.756c-3.885,-1.358 -7.616,-3.11 -11.424,-4.51c-3.162,-1.181 -5.57,-1.401 -6.089,-4.901c-0.479,-2.98 0.086,-6.568 0.04,-9.544c-0.042,-8.494 2.161,-16.546 3.198,-24.868c1.295,-9.499 0.479,-19.482 0.519,-29.072c0,-7.181 -0.862,-14.183 -0.908,-21.366c-0.092,-5.953 0.299,-11.904 -0.092,-17.905c-0.482,-8.056 -1.762,-16.068 -2.281,-24.078c-0.738,-11.34 0.106,-22.154 1.4,-33.402c1.427,-13.441 0.908,-26.883 0.908,-40.325c0.046,-19.608 0.046,-39.224 0,-58.839c-0.129,-10.594 0.814,-21.101 0.908,-31.652c0.034,-9.545 -0.054,-19.09 -0.094,-28.634c-0.041,-10.942 2.318,-21.71 1.799,-32.659c-0.22,-4.119 1.969,-4.595 5.209,-6.526c2.707,-1.618 5.259,-3.323 8.186,-4.682c3.895,-1.789 7.833,-2.139 12.173,-2.321c8.009,-0.325 16.063,0.142 24.079,0c4.341,-0.046 6.879,0.916 10.687,2.932c2.798,1.488 6.127,2.712 8.575,4.728c4.066,3.372 6.218,9.061 8.186,13.789c1.23,2.98 2.331,5.913 3.639,8.801c0.312,0.66 1.801,3.154 2.06,4.384c0.518,2.275 -0.128,4.636 -0.519,6.871c-0.803,5.123 -1.193,10.332 -1.84,15.458c-0.803,5.994 -1.06,11.99 -1.968,17.991c-1.064,7.003 -1.934,13.615 -1.84,20.75c0.092,13.131 0.046,26.266 0,39.403c0,5.473 0.389,10.813 1.165,16.242c0.73,5.292 0.517,10.462 0.776,15.803c0.441,7.357 2.629,13.836 4.249,20.926c0.814,3.457 2.202,8.275 0.908,11.779c-0.66,1.75 -2.9,3.595 -4.428,4.682c-1.931,1.401 -2.981,3.064 -4.34,5.121c-2.809,4.116 -5.36,9.592 -6.397,14.581z" /></svg>