<svg xmlns="http://www.w3.org/2000/svg" viewBox="0 0 1024 480" width="1024" height="480"><path d="M783.988,480.012c-64.104,0 -124.372,-24.96 -169.7,-70.288l-102.288,-102.282l-102.276,102.27c-45.332,45.336 -105.6,70.3 -169.706,70.3c-64.118,0 -124.39,-24.964 -169.722,-70.3c-45.332,-45.334 -70.296,-105.604 -70.296,-169.712c0,-64.108 24.964,-124.38 70.296,-169.714c45.334,-45.332 105.608,-70.296 169.714,-70.296c64.108,0 124.38,24.964 169.712,70.296l102.278,102.276l102.276,-102.276c45.332,-45.332 105.604,-70.298 169.712,-70.298c64.112,0 124.384,24.966 169.71,70.298c45.338,45.334 70.302,105.606 70.302,169.714c0,64.112 -24.964,124.382 -70.3,169.71c-45.326,45.336 -105.598,70.302 -169.712,70.302zM681.72,342.288c27.322,27.31 63.64,42.354 102.268,42.352c38.634,0 74.958,-15.044 102.276,-42.362c27.316,-27.322 42.364,-63.644 42.364,-102.278c0,-38.634 -15.046,-74.956 -42.364,-102.274c-27.32,-27.318 -63.64,-42.364 -102.276,-42.364c-38.632,0 -74.956,15.044 -102.278,42.364l-102.268,102.274zM240.012,95.362c-38.634,0 -74.956,15.044 -102.274,42.364c-27.32,27.318 -42.364,63.64 -42.364,102.274c0,38.632 15.044,74.954 42.364,102.276c27.32,27.316 63.642,42.364 102.274,42.364c38.634,0 74.956,-15.044 102.272,-42.362l102.276,-102.278l-102.276,-102.274c-27.318,-27.32 -63.64,-42.366 -102.272,-42.364z" /></svg>