<svg xmlns="http://www.w3.org/2000/svg" viewBox="0 0 916 448" width="916" height="448"><path d="M42.514,125.653c66.587,-57.445 69.338,-59.342 106.153,-73.286c184.397,-69.82 439.895,-69.82 624.295,0c38.505,14.578 44.138,18.56 108.629,76.83c42.039,37.985 42.864,39.686 14.584,30.201c-16.481,-5.526 -65.642,-15.725 -109.245,-22.664l-79.278,-12.617l3.454,59.84c2.653,45.937 -1.262,68.889 -16.838,98.768c-11.161,21.409 -18.763,40.456 -16.898,42.32c5.128,5.129 190.604,-25.949 221.643,-37.139c23.155,-8.347 20.604,-3.855 -17.426,30.684c-64.165,58.276 -70.003,62.415 -108.629,77.043c-184.397,69.82 -439.895,69.82 -624.295,0c-38.626,-14.626 -44.467,-18.766 -108.629,-77.043c-38.031,-34.541 -40.582,-39.033 -17.426,-30.684c31.041,11.19 216.515,42.269 221.644,37.139c1.865,-1.865 -5.736,-20.912 -16.898,-42.32c-15.578,-29.879 -19.49,-52.832 -16.838,-98.768l3.454,-59.84l-79.278,12.617c-43.603,6.939 -91.648,16.929 -106.771,22.2c-15.123,5.271 -27.492,8.108 -27.492,6.303c0,-1.809 18.935,-19.617 42.079,-39.584zM312.961,259.926c32.033,61.944 154.633,86.999 238.778,48.793c48.03,-21.808 72.436,-61.22 72.436,-116.984c0,-57.508 -15.766,-71.928 -84.374,-77.192c-32.552,-2.495 -52.501,-1.712 -44.334,1.745c62.548,26.464 76.338,85.228 31.104,132.562c-39.495,41.325 -92.019,41.325 -131.514,0c-45.232,-47.331 -31.446,-106.095 31.104,-132.562c8.168,-3.457 -11.782,-4.238 -44.334,-1.745c-40.939,3.139 -63.066,9.852 -71.781,21.766c-17.31,23.672 -15.809,87.416 2.91,123.616zM479.546,172.028c15.347,20.219 45.622,23.173 45.622,4.455c0,-18.364 -20.735,-36.633 -41.583,-36.633c-20.992,0 -22.053,8.445 -4.039,32.175z" /></svg>