<svg xmlns="http://www.w3.org/2000/svg" viewBox="0 0 1029 1024" width="1029" height="1024"><path d="M1027.745,512c0,282.77 -229.23,512 -512,512c-282.77,0 -512,-229.23 -512,-512c0,-282.77 229.23,-512 512,-512c282.77,0 512,229.23 512,512zM69.818,428.218c0,231.357 199.013,418.909 444.509,418.909c245.495,0 444.509,-187.552 444.509,-418.909c0,-231.357 -199.013,-418.909 -444.509,-418.909c-245.496,0 -444.509,187.552 -444.509,418.909zM36.464,521.863c0,255.431 211.196,464.764 466.627,464.764c255.431,0 495.914,-203.763 488.382,-459.082c-2.733,-102.209 -3.966,-61.45 -19.727,15.073c-28.333,207.026 -249.54,351.627 -471.3,351.627c-221.76,0 -452.473,-193.82 -452.473,-402.809c-1.846,-20.6 -4.015,-31.477 -5.991,-31.018c-2.541,0.59 -4.758,19.925 -5.518,61.445z" /></svg>