<svg xmlns="http://www.w3.org/2000/svg" viewBox="0 0 1024 1024" width="1024" height="1024"><path d="M265.82,395.772l227.81,227.886l-100.996,101.214l-227.826,-227.9c-61.088,-61.15 -79.984,-148.534 -56.846,-225.984c-61.072,-13.83 -106.662,-68.494 -106.662,-133.83c0.016,-75.716 61.32,-137.158 136.97,-137.158c68.086,0.032 124.58,49.774 135.174,114.956c73.906,-17.356 154.796,2.822 212.42,60.522l7.874,7.88l-101.104,101.156l-7.826,-7.868c-32.802,-32.812 -85.972,-32.812 -118.804,0.032c-32.926,32.968 -32.866,86.372 -0.184,119.094zM903.772,273.152c22.066,76.882 2.846,163.072 -57.612,223.638l-7.858,7.928l-101.01,-101.248l7.794,-7.836c32.832,-32.842 32.832,-86.126 0.032,-118.956c-32.696,-32.722 -85.744,-32.782 -118.684,0.184l-227.766,227.856l-101.102,-101.172l227.84,-227.9c60.856,-60.904 147.566,-80.072 224.64,-57.408c9.204,-66.794 66.448,-118.238 135.682,-118.238c75.666,0 137,61.396 136.984,137.158c0,69.63 -51.79,127.16 -118.94,135.994zM1024,886.874c0,75.776 -61.364,137.126 -136.968,137.126c-66.324,0 -121.626,-47.122 -134.258,-109.804c-77.75,23.95 -165.852,5.106 -227.368,-56.488l-7.732,-7.728l100.994,-101.246l7.766,7.79c32.832,32.844 86.034,32.844 118.836,0.03c32.68,-32.752 32.756,-85.852 -0.184,-118.848l-227.52,-228.012l101.102,-101.122l227.49,227.992c58.132,58.176 78.21,140.042 60.108,214.5c66.554,9.354 117.734,66.61 117.734,135.81zM713.356,629.902l-227.49,227.96c-58.346,58.452 -140.642,78.308 -215.344,59.756c-13.952,60.964 -68.44,106.35 -133.54,106.382c-75.65,0 -136.998,-61.38 -136.982,-137.126c0,-64.862 44.96,-119.236 105.358,-133.496c-19.11,-75.148 0.69,-158.18 59.45,-216.982l7.734,-7.712l101.086,101.124l-7.808,7.774c-32.788,32.872 -32.774,86.066 0.044,118.97c32.91,32.952 86.234,32.892 118.944,0.124l227.536,-227.992z" /></svg>