<svg xmlns="http://www.w3.org/2000/svg" xml:space="preserve" width="26.21" height="29.751"><path d="M2.002 7.024h-.403v.135h.403Zm5.237 18.667h.403v-.135h-.403Zm7.151-.162 1.023.995c-.143-.679-.19-.9-.24-1.144zm-.457.2-1.386-.671v.786zm4.989-.782c0-3.43.003-6.702-.01-9.973 0-.155-.138-.31-.235-.51l-1.367.682c0 3.503-.001 6.975.01 10.447 0 .06.16.118.249.18l.289-.71zm-2.044-9.934h-3.563v8.965l.67.78.214-1.845c.266.265.475.384.534.554.102.296.098.627.17.935.016.067.171.1.258.147l.745-.747.392.843c.197-.042.38-.079.58-.12zm-6.484 9.162v-9.236c-1.235.028-2.403-.038-3.503.043v9.588h2.206l.388-.839zm6.484-21.249h-3.501v9.467l3.501.534zm-5.28 22.505.163-2.101.516.435.602-.544c0-.17.032-.314-.005-.436-.336-1.1-.636-2.107-.065-3.326.354-.754.29-1.946-.064-2.728-.342-.757-.088-1.393-.342-2.158 1.55-.746 3.031-.455 4.427-.198v-.948c-1.456-.38-2.985.404-4.355-.557 0-2.663-.018-5.27.018-7.876.006-.485.23-.968.345-1.419l-.432-1.025h4.96v10.395c.57-.031 1.068-.058 1.483-.079V1.693H4.9v23.363l1.12-1.29v-9.023c.922-1.051 2.053-.444 3.056-.576.378.738.72-.195 1.34.09l.378.459c.322 3.621-.42 7.216.803 10.717M3.65 4.833l-.079.079.28.33.127-.127c-.11-.094-.219-.187-.23-.37-.593-.398-1.145-.294-1.745-.181.022.253.035.43.05.607.532-.134 1.034-.26 1.597-.338m-.843-2.777.806 1.208H1.755c-.338.403-.704.836-1.025 1.217l.75 1.039c.093-.661.145-1.028.195-1.396l1.938-.127v-.733h.745L4.463.908h14.808v6.1l3.5-2.915.343.343.787-1.163h1.68l.629 1.834-1.253 1.017v1.383c-1.008.392-1.479 1.304-2.102 2.08-.662.825-1.401 1.589-2.302 2.6.002-.027-.032.29-.076.677h-1.052v11.757l.885-1.213.244.09-.25 1.494.585.584.1.924c.644.219 1.533.061 1.568 1.275-.352-.127-.638-.276-.939-.327-.315-.053-.645-.013-.99-.013l.373 1.521-1.708-1.156c-.528-.223-1.4.31-2.334.227l-.089.428c-.515.196-1.021.472-1.561.568-.49.086-1.071.188-1.496-.471l-.211 1.199-2.103-1.066c-.554.474-1.109.596-1.646-.025l-.452.399-.294-.81-1.662 1.095L6.383 27.9c-.562.603-1.085 1.161-1.376 1.472h-1.75l2.042-1.633c-.657-.819-1.254.732-1.781-.198l-1.932.418.52-1.214-1.533-.249.956-.412c.033-.477.08-1.108.13-1.812l1.262.537c-.235-.413-.314-.529-.37-.654-.073-.172-.13-.351-.321-.875l2.092 1.255v-1.859l-.624-.133v-3.874c.208-.054.39-.101.645-.169V7.836l-.737-.257V5.693l-.701.038c.688 1.774.068 2.517-1.464 3.934H.53C.185 9.071.48 8.668.783 8.22c.587-.871.619-1.838-.01-2.662-.635-.83-.471-1.536.02-2.297C.393 2.275-.146 1.323.037 0c.438.11.98.085 1.201.339.51.584 1.776.498 1.57 1.716h-.403q-.203-.201-.403-.403c-.159-.135-.307-.284-.477-.399C1.323 1.116 1.1 1.01.77.824c.13.559-.321 1.113.582 1.225.04 0-.076.014-.192.014l.153.788q.132-.02.261-.034c-.022-.257-.044-.514-.222-.766-.123-.598.344-.338.649-.398l.403.403.136.765c.089-.013.177-.017.266-.026zm-.805-.403.402.403z"/><path d="M10.4 12.39V2.96H6.89v9.928h3.013zm-4.319-9.9h4.783c0 3.018-.008 6.004.01 8.991.002.419.134.837.24 1.453-1.227 1.023-2.9.046-4.363.48l-.67-.616Z"/></svg>