<svg xmlns="http://www.w3.org/2000/svg" xml:space="preserve" width="26.426" height="25.319"><path d="M6.16 15.63c.529.138 1.006.33 1.498.376.832.078 1.673.04 2.508.09 2.756.164 5.384-.327 7.604-1.995 1.27-.956 2.397-2.212 1.956-4.053-1.67-1.927-2.085-2.102-6.067-2.578-4.536 1.284-7.27 4.136-7.498 8.16m-1.063.414c.363-4.026 2.561-6.85 6.061-8.628 1.752-.89 3.763-.634 5.66-.278 1.612.302 2.756 1.352 3.728 2.763.19 2.048-.845 3.628-2.38 4.857-.822.66-1.857 1.163-2.876 1.44-2.722.742-5.51 1.1-8.348.9-.766-.056-1.365-.39-1.845-1.054M4.875 0C5.97 1.259 8.777 7.165 8.88 8.236 7.475 8.081 1.132 5.706 0 4.892c.452-.768 1.296-.433 1.919-.65.656-.229 1.389-.231 2.2-.35zm21.551 20.556c-1.663.379-3.032.692-4.52 1.03l-.708 3.733c-.32-.255-.575-.36-.662-.542-1.168-2.482-2.312-4.976-3.466-7.477.614-.587 1.166-.119 1.673.067 2.295.838 4.573 1.724 6.853 2.605.202.079.366.252.83.584"/><path d="M13.466 10.438h.11v-.41h-.11zm-.86-.588-.37-.19q-.136.352-.27.709l.292.132zm-.23 1.886c-.45-.414-.557-.57-.702-.626-.123-.048-.29.02-.44.035l-.05.248zm-1.144.946 1.386.662c-.261-.898-.621-1.082-1.386-.662m3.678-.706-.622-.956-.85.364v1.722l.8-.096-.672-1.166c.44.042.707.07 1.344.132m-1.044-2.862c.642.942 1.136 1.671 1.6 2.354l-.341 1.75-2.355.994-1.66-.826-.792-1.649 1.039-2.456z"/></svg>