<svg xmlns="http://www.w3.org/2000/svg" xml:space="preserve" width="25.206" height="28.247"><path d="M12.543 10.638h-.402v.135h.402zm-3.556 4.636.348-.042-.157-.656q-.096.018-.19.03zm-1.509-4.593c.59-.91 1.056-1.633 1.625-2.512H6.721L5.545 9.872zM5.11 5.972l-2.313.517L.94 8.21v2.672c1.368.151 2.414-.48 3.648-1.012L2.52 9.101l.05-.243h2.524L3.938 7.04c1.475.35 1.527.348 1.823-.123zM3.833 15.5c.527-.93 1-1.748 1.445-2.583.038-.07-.112-.243-.177-.37l-.517.387-.17-1.04-1.573.264c.193-.36.29-.54.501-.937-1.418.395-1.912 1.388-2.49 2.497.956.572 1.92 1.147 5.476-1.553-1.212.712-.872 2.076-1.302 3.11l.447.446q1.246-.595 2.495-1.188c1.005-.477 1.917-1.103 3.093-1.284.483-.073 1.475-.27 1.484-1.245-1.203-1.07-2.648-1.472-3.219-.902.132.146.346.275.38.44.062.3.016.622.016.966l-1.808-1.13-.713 2.338-.323-.014c-.184-.514-.368-1.03-3.045 1.794m7.099-5.282c1.228-.174 2.438-.338 3.645-.529.17-.028.328-.18.477-.292.107-.079.192-.187.251-.245v-2.13l-.484-.484c-1.664-.212-3.268-.148-4.65 1.016.405.1.802.196 1.497.364l-1.63 1.227c.442.15.675.23.894.303 0 .252 0 .453.01.966l-.018-.348-.787.154.035.261c.257-.023.513-.045.76-.263m3.216.366.021.368 1.177-.155-.022-.268c-.392.017-.784.036-1.159.69l-.017-.347-.788.154.036.26c.256-.022.513-.044.752-.702m.812 14.02c-.818-.82-1.118-1.925-1.62-2.919-.068-.133-.26-.204-.394-.305v-1.045l-.806.642-.806-.805h.73c-.89-.448-.382-1.61-1.132-2.015-.062-.305.2-.77-.403-.805 0-.94 0-1.88.235-3.319-.082-.206-.23-.125-.222-.066.027.193.111.377.174.565.07-.243.138-.485.048-.499-.494.671-.752.843-1.014 1.018v1.782l.78.52c.06.304-.2.77.402.804v1.076c-.73-.952-1.25-1.63-1.81-2.364-.53.776.16 1.243.388 1.602a19.4 19.4 0 0 1 1.883 3.861c.53 1.46.408 2.747-.085 4.12-.714.347-1.436.697-2.207 1.073-.235-.628.261-.738.51-.894 1.797-1.138 1.875-1.754 1.423-3.8-.397-1.804-1.712-3.046-2.332-4.679-.132-.348-.337-.668-.633-1.244v-1.69c-.393.2-.633.373-.901.449-.81.232-1.52.908-2.504.146-.418-.324-1.295-.054-1.723-.054-.881-.532-1.579-.952-2.461-1.486-.403-.906.457-1.7.838-2.734l-.786-.404c-.8-.89-.586-2.036-.099-3.224l2.34-2.195h2.263L6.99 3.25h1.126c-1.93 1.467-2.14 1.89-1.787 3.599 1.203-1.583 1.324-1.672 2.508-1.864-.265.345-.52.92-.617 1.397 1.646-1.224 1.646-1.224 3.244-.81-.686.345-1.262.595-1.79.92-.188.114-.264.41-.39.622 1.702-.985 3.613-1.172 5.334-1.885l-1.172-1.172c-1.926-1.019-3.642-.764-5.33-.807.845-1.07 2.162-1.16 3.068-.627 1.041.612 2.25.372 3.381 1.344.116.46.077 1.487.57 1.963.686.661.547 1.413.697 2.315l1.884-.966c.162-1.656.216-3.137-1.13-4.246-.1-.082-.014-.386-.014-.586h.805c.584 2.22.947 2.847 2.073 3.534l-.497 1.72-1.408 1.564-.185-.083.42-1.095c.134-.134.27-.269.428-.434.398-.495.398-.495.025-1.164 0 .457 0 .826-.025 1.164-.159.165-.294.3-.428.434-.38.108-1.854.911-1.996 1.16-.052.088.094.291.112.336l1.15-.3c-.23.396-.353.607-.453.836-.005-.013-.032-.034-.059-.06l-.328.28.127.128c.093-.11.187-.22.26-.348.304-.018.63-.018.707-.018l2.092-1.208c.093.618-.214 1.008-.758 1.202-1.169.422-2.353.798-3.52 1.222-.497.178-.968.43-1.806.808.572.233.764.373.964.384 1.234.07 2.208.85 3.332 1.188.718.216 1.066.666 1.385 1.238-.428.074-.704-.188-1.053-.377-.979-.532-2.042-.915-3.067-1.332-1.15-.468-1.825-.14-2.99.443 1.46-.09 2.174.893 3.334 1.03 1.019.122 1.933 1.123 3.1 1.867h1.436l.593 1.308-.918-.92h-1.886c-.202-.216-.404-.497-.668-.69-.2-.147-.273-.662-.849-.233l2.565 2.934h-.806l-.806-1.107v1.107c-.256-.324-.606-.61-.754-.978-.932-2.332-.918-2.338-3.334-3.332.26 1.011.606 1.843 1.658 2.06.017.34-.008.614.056.864.044.17.213.306.326.456-1.534-.916-2.322-2.36-2.848-4.062-.873 1.112-.868 1.27-.52 2.213.192.523.731.923.582 1.57-.134 0-.268 0-.422.02.008 0 .035-.031.062-.057l-.282-.329-.126.127c.11.093.218.186.346.26.08.284-.18.75.422.784-.015.662.281 1.172.753 1.614.861.811 1.97 3.212 2.067 4.43"/><path d="M16.573 2.447c-.267 0-.547.052-.799-.01-.721-.175-1.236-.86-2.07-.806-.727.048-1.46.01-2.233.01l-.168-.542c.884-.344 1.722-.726 2.594-.994 1.11-.342 2.136.23 3.096.598 2.601.999 3.982 3.31 3.553 5.998-.119.744-.06 1.846-1.153 2.192.045-.246.072-.498.138-.738.215-.772.576-1.53.623-2.31.036-.571-.335-1.166-.524-1.75-.253.15-.507.303-.793.475-.284-.78-.534-1.465-.772-2.123h-.687c-.033-.602-.5-.342-.805-.402-.035-.603-.5-.343-.799-.407-.01-.24-.03-.483-.05-.725h-1.842c.83.316 1.36.517 1.892.725.027.607.493.345.799.407zM22.213 18.159l2.993 3.222c-1.279 0-2.33-.037-3.375.015-.62.03-1.332-.305-1.85.373-.074.098-.443.098-.572.002-.95-.7-2.032-.235-2.998-.471-1.616-.612-2.997-1.593-4.27-2.739v-.805c.349.283.708.553 1.046.848 1.667 1.453 3.478 2.399 5.808 2.43 1.524.023 2.879-.694 4.512-.415-.632-.892-1.304-1.504-1.294-2.46M12.947 21.382l.647 3.546c-.051.01-.275.051-.41.078-.326-1.03-.641-1.956-.906-2.896-.103-.362-.095-.754-.136-1.131zm-.144 3.978c.39 1.151.039 2.035-.437 2.887l-.481-.072zm6.187-10.424c1.036.204 1.406.575 1.612 1.612zm-4.373 11.509c.446.579 1.118.86 1.056 1.679-.457-.439-1.301-.594-1.056-1.679m6.387-9.495 1.208 1.208c-.901-.084-1.124-.305-1.208-1.208"/><path d="M14.751 26.619h-.9l-.096-1.147.27-.084zm.21-2.015c.636.158.87.584.806 1.208-.636-.157-.871-.582-.806-1.208m.806 1.209h.806v.805h-.806z"/><path d="m16.574 26.605.797.059-.05.768c-.378-.244-.663-.428-.948-.614zm-5.275-6.39-.33-.28q.065-.063.127-.128l.282.33zm9.302-3.668.403.403zm-2.417-8.863-.403.403zm.366 11.324c.954-.145 1.817-.82 2.986-.215-.536.122-.913.206-1.316.296l.915.728c-.207.191-.29.335-.387.344-.257.026-.52 0-.78-.024-.05-.004-.09-.093-.141-.133q-.642-.503-1.278-.996m-1.574-.043h.806l.865 1.188c-.35-.072-.673-.046-.847-.195-.32-.277-.554-.656-.824-.993"/></svg>