<svg xmlns="http://www.w3.org/2000/svg" xml:space="preserve" width="21.903" height="29.628"><path d="m3.83 7.126-.14.064.14.068zm12.291 5.826c.155-.132.078-.067 0 0 .1-.04.199-.078 0 0m.679 4.842-.047.3c.175.01.351.022.92.058-.537-.22-.705-.288-.873-.358m.155-1.644-.004.395.777-.164-.039-.23zm.653-1.904.07-.15c-.14-.066-.28-.135-.425-.192-.01-.004-.06.09-.09.138zm-.03.896v-.156h-.923l.001.156zm-3.502-.442v-.163h-.93v.163zm-6.387-3.262-.001.316h.955l.001-.316zm4.903 1.534-.047-.195h-1.178v.195zm-2.376 7.854.09-.27q-.595-.21-1.189-.423l-.104.31zm7.728-15.353-.073-.505-.796.2.046.305zm-12.953.556c-.771-.62-1.2-.828-1.955 0zm7.74 11.353-.076.42 1.973.29.057-.42q-.979-.144-1.954-.29m2.284-10.958.076-.522-1.526-.204-.054.364q.751.182 1.504.362m-3.174.028v-.244H8.753v.244zm-.852 1.76c-1.468-.4-2.933-.515-4.396 0zM1.613 6.114l-.473-.556-.183.258q.341.134.679.272.362.374.724.753l.197-.268zM16.44 19.596l.061.086-.084-.062q-.357-.159-.713-.32l-.061.229zm-6.115 2.644-.074-.092.094.07c.119.103.236.204.047.042.24.066.087.024-.067-.02m5.228-12.666.118-.092-.095.115-.115.093zM9.031 13.93l.064.083-.09-.057-.061-.096zM4.29 21.29l.701-.99c1.59-.94 2.753-1.625 3.973-2.345v-3.018C7.032 13.254 4.99 11.63 3.142 9.809 1.976 8.658 1.1 7.216 0 5.78c.555-1.636 1.107-3.262 1.608-4.743 3.988-1.7 16.904-1.204 20.288.719.119 1.606-1.403 2.013-2.24 2.896-.884.932-1.88 1.758-2.948 2.74l.201 3.92c.688.885 1.423 1.62 1.898 2.497.466.861.837 1.845.948 2.81.146 1.265-.538 1.88-2.172 2.269.078.317.158.633.262 1.049-2.268 1.963-4.893 3.21-7.846 3.499L8.34 25.59c.19.598.405 1.27.604 1.89.688.66 1.477.897 2.233.46 1.327-.764 2.643-.438 4.123-.264l.084 1.406c-.687.57-10.54.73-14.69.306-.089-.206-.262-.45-.295-.712-.034-.267.068-.552.104-.78 1.964-.991 3.816.297 5.801.257-.012-1.63-1.456-2.137-1.77-3.27-.174-.74-.397-1.471-.502-2.22-.056-.4.093-.83.15-1.246q.21.148.425.296l.128-.215z"/></svg>