<svg xmlns="http://www.w3.org/2000/svg" xml:space="preserve" width="27.066" height="31.455"><path d="m21.801 4.767 1.188-.64h-1.188zM4.6 4.092l.388.836.192-.144v-.692Zm14.938-1.63c.055.938.65 1.09 1.43.95zM5.373 2.27c-.26.941-.041 1.417.445 1.733L7.95 2.886c-.5-.412-.82-.675-1.2-.99l-.456.926zm-3.75 1.388c.106-.135.205-.378.32-.386.6-.038 1.204-.017 1.862-.017.372-.585.555-1.51 1.66-1.153l.315-.908 1.608.417c.625-.243.859-.796.692-1.373.524-.592.988.63 1.377-.184 1.192-.24 2.248.393 3.384.526.367.043.928.34 1.054.204.454-.498.981-.309 1.485-.348 2.095-.158 3.983.616 5.824 1.246l.692 2.022c1.244-.705 2.505-.362 3.688-.458l1.368 1.368v2.968c-.225.15-.49.33-.755.506.135-.473.326-.94.388-1.422.067-.52.015-1.056.015-1.704L24.938 3.76l-1.532.452-.992 1.178 1.49 1.073-.928.82c-.952-.517-1.195-1.563-1.872-2.435H19.06l-.039-.224 1.097-.282c-.492-.376-.92-.803-1.434-1.068-.544-.282-1.167-.41-2.144-.735l2.677-.16c-.597-.352-.919-.697-1.252-.707-.972-.029-1.93-.873-2.813-.374-.592.334-1.114.358-1.67.324-.554-.035-1.097-.352-1.644-.352-.548 0-1.089.3-1.644.346-.268.024-.56-.229-.9-.384l-1.23.634.07.568h2.283c-1.304.46-2.544.9-3.653 1.898l1.293.26-.015.191H6.454L4.946 5.92c-.12.357-.314.945-.58 1.744l.814-.312.092.697c-.354.02-.666.035-1.056.055L2.824 9.628l.404.844-2.01 2.983.266.337c.021.938-.98 1.706-.56 2.764.278-.164.49-.286.7-.41-.135.478-.35.95-.386 1.436-.062.861-.09 1.74.004 2.597.088.8.336 1.585.555 2.367.047.168.27.286.399.416l.637-.37v1.544l1.35 3.071c.385-.556.653-.948.995-1.447v2.024c.511 1.023 1.404 1.295 1.96 2.014.487.626 1.746.317 2.248 1.216l.76-.448.9.825h-3.6c-.11-.641-.88-.804-1.156-1.444-.233-.543-.842-.819-1.576-.992-.832-.196-1.285-1.184-1.47-2.104-.052-.257.101-.685-.027-.779-.916-.669-.75-1.88-1.396-2.653-.228-.275-.617-.417-.933-.62C.733 21.69.542 20.55.425 19.4c-.119-1.154.172-2.356-.252-3.6.48-.465.31-1.116-.02-1.853l1.47-2.475V9.298c1.118-.167 1.191-.264 1.21-1.612.837-.064.837-.064.595-.806h-.595v-.656c.536-.289 1.464-.034 1.621-1.052-.6-1.086-1.692-1.342-2.83-1.514"/><path d="M15.22 28.628c.51-1.135 2.238-1.186 2.438-2.58-.21-.406-.378-.727-.58-1.114l-1.844.543-1.068-.967c-.434.11-.91.134-1.282.343-.994.561-1.962.9-2.955.053l-.576 1.127c.33.43.653.96 1.084 1.38.456.445 1.015.787 1.583 1.215zm-8.36-8.051v-.913l-.805-1.1c1.094-.011 1.493.878 2.004 1.592.32.445.788.972.761 1.438-.043.774.713.414.867.887-.375.064-.739.125-1.242.212.142.76.5 1.37 1.051 1.99.337-.165.664-.322.99-.48.918.575.92.58 2.093-.225-.542-.361-1.092-.624-1.5-1.03-.39-.391-1.059-.638-.98-1.576 1.158.476 2.454.285 3.27 1.056l3.522-1.111c.038 1.51-1.388 1.497-1.962 2.273v.923c.466.036.955.073 1.44.112l.343-.884.393.864c.17-.03.38-.015.52-.105.324-.206.614-.463.918-.699-.627 1.64-.343 3.356-.392 4.579l-.746.744.386-1.534-.286-.105-.29.708-.898.067-.66 1.134c-.782.04-1.562-.089-2.198.156-.723.276-1.267-.58-1.92.044-.534-.989-1.656-1.193-2.262-2.418 0 .614-.044.937.018 1.238.032.163.244.291.453.522l-.83.114v-4.052l-.782-1.373-.873.981v-1.01l.756-.744v-1.895z"/><path d="M26.198 8.089c.182.664-.364.936-.758 1.368v1.97l.917 1.814.71.252c-.218.779-.903 1.525-.185 2.33-.404.693-.241 1.457-.284 2.197a52 52 0 0 1-.186 2.538c-.08.767-.215 1.528-.32 2.262l-1.086.673v1.664c-1.745.663-1.278 2.78-2.665 3.85l-.765.058c-.491.99-1.607 1.508-2.372 2.332h-2.995l-.033-.204c.318-.047.634-.116.954-.136.402-.023.804-.005 1.191-.005.824-1.344 2.637-1.543 3.453-3.374v-2.142l.251-.192.112.784.417-.272v1.585c.24-.127.402-.164.411-.225.164-1.01.235-2.052 1.299-2.82l-.462-2.871c.467.637.732 1.001.987 1.35.988-1.115.71-2.75 1.363-4.063-.498-.82-.407-1.806-.759-2.666h.787l-.495-3.102c-.88-.422-.676-1.96-1.984-2.383l.479-.957-1.475-1.326.184-.252-1.048-.07c-.021-.21-.044-.438-.067-.65.459-.121.922.906 1.202-.122l.517.296 1.093-.296q-.199.705-.401 1.41l.556.556q.73-.58 1.457-1.161"/><path d="m9.918 5.594.908.493c.639-.128 1.353-.88 2.203-.13.185.165.75.2.902.05.83-.816 1.555-.159 2.232.05.38-.16.696-.295 1.246-.526l-.56 1.116c.908.576 1.613 1.428 2.773 1.51.27 1.28.723 2.389 2.09 2.931.625.248 1.149.756 1.798 1.2-1.035.667-1.187-.832-2.052-.534-.373.882.812 1.34.705 2.204l-.626.278c-.186-.954-.79-1.633-1.048-2.568-.255-.924-1.095-1.676-1.726-2.473-1.057-1.336-2.7-1.843-3.676-3.187-1.013.518-1.97.807-3.03-.022l-1.208 1.057-1.164-1.168zm.166 1.689L8.971 8.386l.312.31c-.484.238-.934.46-1.603.787-.47.939-1.059 2.088-1.617 3.254-.186.385-.247.833-.454 1.202-.081.146-.408.154-.929.324.424-.978.727-1.674 1.105-2.55h-.938c.124-.815 1.277-.735 1.374-1.574 1.063-.23.962-1.125 1.08-1.85.47-.204 1.032-.294 1.339-.62.45-.48.939-.363 1.444-.386m-.842 6.488.078-.079-.28-.329-.128.127c.11.093.22.188 1.363.71-.292-.317-.373-.466-.432-.458-.193.028-.377.112-.565.174.242.07.486.14-.036-.145m-2.084-1.045c1.854-.28 1.854-.28 3.977 1.03l.415 1.331-.452 1.684-.279-1.33c-.935-1.08-2.761-1.246-3.661-2.715"/><path d="m17.749 14.042-.017-.348-.788.153.036.261c.256-.022.513-.044.716-.416l.078.079.33-.281-.127-.127c-.093.11-.187.22-.228.679m1.999-1.283c-1.08.944-1.98 2.107-3.642 2.203v1.561c-.514-.856-.308-1.745-.4-2.67 1.195-.855 2.47-1.402 4.042-1.094M18.544 23.8v-1.046l-.684-.232 1.725-3.152h.571c.328.932.676 1.857.975 2.798.15.475.208.978.316 1.512l-.775.172c-.313-1.092.252-2.392-.763-3.269-1.024.721-1.168 1.25-.705 2.476.088.232.099.493.145.741zM1.624 9.298C.414 8.642-.069 7.606.008 6.258c.03-.532.004-1.07.004-1.6.527-.366.76-1.18 1.612-1L.451 5.127v2.027c-.082.977 1.397 1.109 1.173 2.144m19.632 9.305c1.228-.264 1.191.839 1.684 1.375v3.261l-.584.556c-.07-.13-.206-.273-.174-.34.832-1.819.542-3.443-.926-4.852M13.642 8.154v6.304c-.488-1.016-.288-2.09-.327-3.14s-.008-2.105-.008-3.158zm2.586 1.143c.72.697.72.697.654 2.628l-.654.727z"/><path d="m19.206 23.45.93.939v3.32c-.125.12-.345.33-.866.833.21-1.093.463-1.805.45-2.512-.013-.74-.28-1.476-.514-2.58m-14.762-.455c-.756-1.27-.432-3.666.624-4.42.13-.092.387-.012.584-.012-1.081 1.293-1.327 2.812-1.208 4.432m2.411-2.589-.547 3.32-.736.11c.365-1.236.179-2.474 1.283-3.43m11.253.977c-.855-1.494-1.868-2.468-1.4-3.975.1 1.303 1.318 2.203 1.4 3.975m-13.57-5.591c-.307.595-.498 1.308-.95 1.755-.564.553-.178 1.247-.673 1.797l-.11-1.82 1.498-1.893zm6.836 3.245h4.291c-1.428.464-2.872.261-4.29 0M7.98 13.275c.205 1.681 1.209 2.13 2.186 2.79H8.99c-.33-.366-.765-.849-1.324-1.465zm14.937 2.892c1.019.81 1.316 1.876 1.033 3.148zm-6.126-.153 1.536-.734.794-1.142.261.132-.492 1.322c-.601.222-1.14.808-2.099.422M10.46 9.992l.17-.76.363.172q-1.018 1.505 0 3.01-.189.09-.377.185l.043-.943-.504.412V9.903zm10.904 8.571-1.208.805c.087-.288.13-.602.273-.86.206-.369.487-.697.811-1.146l.653.13zm-14.1 6.043v2.82a2.58 2.58 0 0 1 0-2.82m2.86-5.782c-.098.96-.438 1.616-1.152 2.053.097-.796.337-1.508 1.152-2.053m-8.516-2.662c.02-.259.038-.499.06-.765l.685-.058.083.76c-.33.024-.57.043-.828.063m3.139-4.602c-.135.602-.31 1.144-1.241.806zm5.385 7.508V17.42c.144.047.314.088.311.103-.07.493.332 1.109-.31 1.546m12.996-3.023c-.601-.134-1.143-.309-.805-1.241.329.508.566.875.805 1.241M5.652 18.563v-1.139l.286-.029.117 1.168zm1.925 8.853.066.769-.26.036q-.079-.394-.154-.788zm-2.82-4.432.066.77-.26.035q-.079-.393-.154-.788zm.158-8.237-.284.996c-.063-.187-.147-.371-.173-.564-.01-.06.14-.14.457-.432m-1.611 6.848-.284.997c-.063-.188-.147-.372-.174-.565-.01-.059.14-.14.458-.432m9.734-1.017h.135v.402h-.135zm-.94-.27h.403v.135h-.403zm.402.94h-.402v-.134h.403zm2.15-.268h.135v.403h-.135zm.94.403h-.134v-.403h.134zm2.148 1.745h.403v.135h-.403zm-8.192.672h-.134v-.402h.134zm1.302-.036.28-.33q.063.065.128.127-.165.142-.33.281z"/><path d="m10.89 23.8-.403.403q.202-.2.403-.403m14.063-8.014-.329-.282q.064-.062.127-.126l.281.329zM10.487 6.88l-.403.403zm14.503 8.863.402.403zM12.233 31.052h.135v.403h-.135zM24.545 7.247q.139-.165.281-.33.062.065.127.127-.165.142-.33.281zM2.832 6.88v.806L1.727 6.88Zm9.611 18.966h1.196v1.587l-.463-1.157-.593.308zm1.702.428v-.662l.783.518c-.254.046-.431.078-.783.144"/></svg>