<svg xmlns="http://www.w3.org/2000/svg" viewBox="0 0 1024 1024" width="1024" height="1024"><path d="M1024,320c0,176.732 -143.27,320 -320,320c-38.262,0 -74.948,-6.726 -108.958,-19.042l-83.042,83.042h-128v128h-128v128h-128v64h-64c-35.346,0 -64,-28.654 -64,-64v-192l389.376,-389.376c-3.518,-19.008 -5.376,-38.598 -5.376,-58.624c0,-176.732 143.27,-320 320,-320c176.73,0 320,143.268 320,320zM895.874,224.126c0,-53.02 -42.98,-96 -96,-96c-53.02,0 -96,42.98 -96,96c0,53.02 42.98,96 96,96c53.02,0 96,-42.98 96,-96z" /></svg>