<svg xmlns="http://www.w3.org/2000/svg" viewBox="0 0 1024 1024" width="1024" height="1024"><path d="M1011.846,412.368l-184.294,276.44c-19.45,29.176 -61.024,40.22 -92.39,24.538l-140.97,-70.488c-5.658,-2.828 -11.796,-6.232 -18.192,-10.044v71.186h-128v128h-128v128h-128v64h-192l32,-224l356.53,-356.53c-2.744,-4.764 -5.236,-9.354 -7.39,-13.66l-70.486,-140.974c-15.682,-31.362 -4.64,-72.938 24.536,-92.39l276.438,-184.292c29.176,-19.45 73.338,-15.078 98.13,9.716l101.106,101.104c24.792,24.796 65.37,65.37 90.162,90.164l101.106,101.104c24.792,24.796 29.168,68.954 9.714,98.126zM462.2,543.056l-45.254,-45.254l-311.572,311.57l45.254,45.254zM917.02,378.51l-271.53,-271.53c-12.446,-12.444 -32.808,-12.444 -45.254,0l-45.256,45.256c-12.446,12.444 -12.446,32.81 0,45.254l271.53,271.53c12.446,12.444 32.808,12.444 45.254,0l45.256,-45.256c12.446,-12.444 12.446,-32.81 0,-45.254z" /></svg>