<svg xmlns="http://www.w3.org/2000/svg" xml:space="preserve" width="38.126" height="17.413"><path d="M10.72 17.285c-.86-.2-1.742-.329-2.57-.614-1.161-.4-2.325-.832-3.408-1.404-1.794-.95-3.405-2.136-4.286-4.082-.612-1.352-.59-2.689-.04-4.04.653-1.606 1.902-2.676 3.302-3.584a16.2 16.2 0 0 1 5.848-2.337c1.054-.2 2.114-.37 3.17-.553l.074.174c-.33.466-.68.918-.982 1.4-.488.778-.606 1.599-.175 2.45.18.356.45.526.868.514.845-.024 1.69-.029 2.535.002.448.016.593-.164.657-.582.215-1.392.467-2.777.708-4.164.019-.11.07-.214.228-.357.185.403.384.801.55 1.212.354.872.105.825 1.197.827.534.001 1.07-.018 1.604.012.369.02.566-.116.7-.458.184-.461.412-.905.633-1.35.048-.099.148-.17.31-.351.053.353.083.597.126.837.225 1.286.459 2.57.679 3.855.066.388.249.541.662.523.758-.035 1.516-.007 2.275-.01.932-.001 1.585-.884 1.396-1.813-.183-.899-.69-1.6-1.245-2.285-.06-.072-.11-.152-.218-.302.204-.012.33-.03.455-.024 2.415.142 4.713.77 6.892 1.787 1.63.761 3.115 1.752 4.259 3.19 1.606 2.023 1.609 4.77-.032 6.751-1.302 1.571-2.975 2.616-4.827 3.422-1.499.652-3.061 1.048-4.657 1.332l-.095-.112c.297-.268.659-.494.88-.815.384-.556.752-1.145.999-1.77.269-.685-.131-1.498-.8-1.82a.83.83 0 0 0-.568-.023c-.794.261-1.33.828-1.715 1.55-.077.144-.16.286-.284.504-.159-.265-.293-.437-.375-.63-.282-.678-.853-1.024-1.485-1.271-.196-.077-.51-.065-.683.045-.66.422-1.356.826-1.902 1.372-.884.884-1.647 1.887-2.227 3.12-.116-.128-.239-.222-.308-.346-.772-1.356-1.69-2.596-2.912-3.576-.353-.284-.79-.528-1.225-.631-.71-.167-1.258.253-1.688.767-.26.31-.428.697-.684 1.125-.1-.168-.163-.317-.264-.432-.45-.51-.86-1.072-1.382-1.492-.58-.465-1.46-.013-1.692.804-.282.992.186 1.775.764 2.5.303.38.672.705 1.012 1.056z"/></svg>