<svg xmlns="http://www.w3.org/2000/svg" viewBox="0 0 899 586" width="899" height="586"><path d="M693.647,0.879c41.959,4.317 76.738,16.873 110.955,40.052c13.29,9.004 21.172,15.399 30.806,25.002c32.37,32.26 53.547,76.972 60.579,127.915c3.164,22.916 3.068,45.536 -0.114,67.252c-3.537,24.156 -10.895,47.19 -22.012,68.219c-12.204,23.084 -28.955,44.027 -49.004,61.267c-41.836,35.975 -96.283,56.185 -159.349,59.147l-9.676,0.454l-0.429,5.016c-2.612,30.481 -10.876,56.179 -24.631,76.616c-11.652,17.316 -25.934,29.805 -44.77,39.156c-13.533,6.717 -27.188,10.964 -39.164,12.18c-4.076,0.412 -47.178,0.956 -107.179,1.352c-149.537,0.987 -334.498,0.783 -342.064,-0.374c-52.773,-8.079 -87.171,-41.409 -94.283,-91.358c-1.901,-13.359 -2.484,-67.107 -2.58,-231.674c-0.006,-11.412 -0.033,-18.768 -0.036,-31.318c-0.028,-178.986 0.02,-187.106 1.172,-191.21c1.723,-6.132 6.316,-15.468 10.024,-20.358c6.004,-7.924 15.412,-14.234 25.366,-17.015c4.116,-1.148 17.124,-1.196 326.048,-1.196c263.981,0 323.301,0.157 330.333,0.884zM44.292,35.517c-2.884,1.204 -6.46,5.494 -7.86,9.424c-1.05,2.946 -1.168,10.89 -1.554,103.739c-0.133,32.443 -0.086,72.094 0.028,112.419c0.233,81.483 0.864,165.899 1.684,200.442c0.599,25.283 1.156,30.455 4.374,40.661c8.252,26.172 30.752,43.261 62.779,47.683c5.204,0.717 29.764,0.827 133.303,0.58c170.235,-0.404 304.81,-1.401 309.69,-2.298c11.577,-2.127 27.044,-8.924 36.551,-16.06c24.141,-18.124 36.507,-47.707 37.9,-90.678c0.244,-7.572 0.724,-12.645 1.388,-14.761c1.296,-4.122 4.893,-8.104 9.09,-10.06c3.164,-1.476 3.94,-1.54 19.122,-1.552c8.703,-0.007 19.386,-0.31 23.737,-0.675c66.264,-5.524 120.176,-33.116 154.565,-79.107c16.22,-21.692 26.436,-45.723 31.625,-74.178c0.535,-2.934 1.07,-5.868 1.5,-8.9c1.352,-9.576 1.164,-40.939 -0.309,-51.427c-7.495,-53.394 -29.663,-95.088 -65.251,-122.731c-32.947,-25.59 -68.831,-39.548 -109.897,-42.735c-5.993,-0.466 -111.243,-0.69 -324.586,-0.69c-265.818,0 -316.058,0.141 -317.88,0.902zM701.313,106.527c24.636,4.124 47.01,16.53 63.251,35.076c15.757,17.992 24.212,37.519 27.047,62.46c0.996,8.78 0.425,30.764 -1.048,40.22c-0.916,5.882 -2.1,11.475 -3.54,16.812c-6.58,24.42 -18.684,43.324 -37.004,57.915c-7.177,5.716 -13.005,9.308 -23.22,14.3c-12.22,5.974 -21.296,8.884 -30.848,9.887c-11.611,1.22 -55.567,1.516 -59.539,0.401c-4.484,-1.26 -8.3,-4.271 -10.644,-8.4l-2.017,-3.556l-0.116,-70.549l-0.057,-34.916c-0.193,-117.539 -0.48,-109.894 4.319,-115.219c1.346,-1.492 3.932,-3.404 5.743,-4.252c3.292,-1.534 3.348,-1.539 31.403,-1.546c25.377,-0.004 28.897,0.124 36.264,1.358zM658.371,224.904v85.455l10.385,-0.428c26.801,-1.106 30.44,-1.774 43.352,-7.98c18.66,-8.965 31.326,-22.444 38.412,-40.852c0.884,-2.3 1.698,-4.663 2.408,-7.116c2.895,-9.99 3.78,-16.576 4.132,-30.796c0.379,-15.212 -0.423,-22.713 -3.452,-32.308c-5.979,-18.947 -21.208,-36.107 -39.572,-44.59c-10.717,-4.952 -22.636,-6.837 -43.208,-6.837h-12.46zM470.91,163.779c31.002,20.737 43.468,57.611 33.577,97.322c-0.735,2.953 -1.564,5.916 -2.548,8.894c-2.805,8.49 -10.754,24.095 -15.916,31.26c-2.325,3.228 -8.482,10.644 -13.676,16.484c-10.533,11.836 -66.027,67.677 -86.94,87.487c-25.731,24.372 -48.939,45.774 -51.595,47.579c-3.153,2.14 -7.162,2.406 -9.825,0.652c-0.964,-0.636 -8.813,-7.532 -17.451,-15.324c-68.073,-61.443 -117.8,-110.315 -130.994,-128.738c-9.581,-13.38 -17.38,-30.916 -21.61,-48.294c-0.617,-2.535 -1.162,-5.068 -1.62,-7.581c-1.46,-8.004 -2.028,-26.98 -1.033,-34.469c2.313,-17.38 8.954,-31.953 19.836,-43.539c12.257,-13.045 27.243,-21.18 47.303,-25.676c5.596,-1.253 8.404,-1.442 21.598,-1.442c13.246,0 16.02,0.188 21.924,1.476c23.625,5.156 43.957,16.052 61.443,32.932l5.98,5.772l5.108,-4.832c18.065,-17.092 42.465,-30.395 63.653,-34.7c6.292,-1.276 12.619,-1.91 18.911,-1.913c18.881,-0.004 37.462,5.672 53.875,16.651z" /></svg>