<svg xmlns="http://www.w3.org/2000/svg" viewBox="0 0 927 960" width="927" height="960"><path d="M502.774,959.023c-17.275,-1.377 -51.978,-7.47 -82.387,-14.464c-20.379,-4.687 -50.715,-9.131 -67.426,-9.878c-15.433,-0.689 -15.457,-0.699 -34.774,-13.892l-19.33,-13.202l-8.76,2.206c-11.77,2.963 -16.831,2.777 -16.831,-0.622c0,-1.555 -5.352,-5.68 -11.895,-9.167c-6.543,-3.487 -13.51,-8.393 -15.485,-10.904c-6.047,-7.687 -10.47,-5.13 -5.899,3.412c2.71,5.063 2.08,4.919 -14.34,-3.297c-18.884,-9.449 -25.643,-14.885 -68.77,-55.307c-17.14,-16.065 -15.916,-15.723 20.387,5.699c36.148,21.331 37.386,18.96 2.825,-5.41c-8.632,-6.086 -20.903,-16.007 -27.272,-22.047c-10.686,-10.133 -11.254,-10.433 -7.356,-3.884c5.338,8.971 5.305,10.271 -0.19,7.444c-7.279,-3.744 -14.849,-11.691 -27.525,-28.893c-8.667,-11.762 -13.508,-16.611 -17.355,-17.379c-6.364,-1.273 -10.5,-9.805 -18.377,-37.907c-2.872,-10.25 -7.56,-22.939 -10.416,-28.198l-5.192,-9.563l-2.408,5.64c-1.325,3.102 -2.449,6.743 -2.497,8.092c-0.189,5.26 -3.725,1.964 -9.487,-8.846l-6.022,-11.298l4.68,-4.168c3.057,-2.723 5.038,-3.397 5.714,-1.943c0.569,1.223 0.829,0.634 0.578,-1.312c-0.251,-1.946 -1.026,-3.269 -1.721,-2.943c-3.811,1.79 -9.358,-7.636 -11.403,-19.375c-1.227,-7.048 -4.394,-20.886 -7.037,-30.751c-2.643,-9.865 -4.807,-20.805 -4.81,-24.311c-0.003,-3.506 -0.888,-6.375 -1.967,-6.375c-1.079,0 -1.961,-1.285 -1.961,-2.856c0,-1.57 -1.987,-5.884 -4.414,-9.584c-2.427,-3.7 -5.917,-9.478 -7.755,-12.837c-5.572,-10.188 -8.144,-7.788 -6.569,6.132c0.761,6.732 2.339,13.39 3.505,14.796c1.432,1.725 1.475,3.2 0.133,4.542c-2.577,2.577 -5.617,-4.777 -9.402,-22.751c-3.38,-16.049 -3.597,-19.261 -1.204,-17.782c2.356,1.456 4.129,-3.61 4.129,-11.803c0,-4.318 -0.873,-6.531 -2.452,-6.215c-3.405,0.682 -3.068,-18.36 0.541,-30.547c2.545,-8.596 2.483,-10.013 -0.678,-15.52c-3.436,-5.987 -2.888,-7.693 3.157,-9.832c0.851,-0.301 0.189,-4.399 -1.471,-9.106c-3.924,-11.122 -3.808,-13.285 0.774,-14.483c2.604,-0.681 4.183,-3.367 5.036,-8.566c2.701,-16.459 3.391,-18.466 7.023,-20.409c2.148,-1.149 3.764,-4.09 3.764,-6.849c0,-5.29 -1.849,-6.126 -5.493,-2.481c-4.633,4.633 -2.44,-8.867 4.685,-28.836c11.303,-31.681 11.43,-32.295 7.323,-35.486c-2.632,-2.046 -2.757,-2.495 -0.474,-1.708c3.373,1.162 4.252,-0.543 16.621,-32.244c6.215,-15.927 6.784,-18.667 4.179,-20.123c-2.554,-1.43 -1.975,-3.231 3.793,-11.802c3.743,-5.563 6.435,-11.085 5.98,-12.27c-0.455,-1.185 8.712,-17.149 20.37,-35.475c18.481,-29.05 20.692,-33.403 17.254,-33.968c-2.169,-0.356 -5.636,0.884 -7.705,2.756c-7.618,6.894 -2.659,-4.012 6.841,-15.043c3.339,-3.877 17.381,-17.441 31.205,-30.142c14.152,-13.003 24.716,-24.177 24.18,-25.577c-0.565,-1.474 2.176,-3.896 6.738,-5.953c6.223,-2.806 7.256,-3.992 5.414,-6.213c-1.821,-2.194 -0.344,-4.721 7.361,-12.604c19.22,-19.66 53.63,-38.986 69.419,-38.986c5.286,0 5.933,-0.643 5.933,-5.885c0,-3.373 -1.046,-5.906 -2.452,-5.934c-3.873,-0.079 73.91,-29.066 92.272,-34.387c9.1,-2.637 20.368,-4.795 25.039,-4.795c4.671,0 9.071,-0.937 9.778,-2.081c0.769,-1.245 7.559,-1.915 16.89,-1.669c14.497,0.383 15.832,0.079 18.817,-4.294c4.337,-6.352 7.715,-8.148 16.034,-8.525c3.868,-0.175 14.423,-1.918 23.456,-3.871c9.311,-2.014 20.539,-3.157 25.926,-2.639c5.226,0.502 9.037,0.162 8.47,-0.755c-1.45,-2.347 8.762,-1.979 31.567,1.137c26.893,3.674 55.254,10.522 104.947,25.343c33.928,10.119 42.307,13.296 42.852,16.245c1.033,5.596 11.399,15.565 28.747,27.649c8.631,6.011 20.266,14.787 25.854,19.5c12.685,10.699 16.267,7.688 4.779,-4.016c-4.442,-4.525 -8.071,-8.636 -8.065,-9.135c0.006,-0.499 3.784,-1.121 8.396,-1.384c10.954,-0.623 23.006,8.286 21.546,15.927c-1.196,6.26 7.616,12.895 12.14,9.141c2.344,-1.945 3.368,-1.088 5.875,4.912c1.67,3.997 3.037,7.948 3.037,8.78c0,0.832 1.103,1.938 2.452,2.458c6.937,2.676 36.587,29.198 53.675,48.012c43.252,47.622 55.562,64.152 44.651,59.966c-2.548,-0.978 -2.419,0.107 0.773,6.461c2.109,4.2 5.844,13.815 8.3,21.367c7.181,22.092 15.075,36.54 17.669,32.343c1.614,-2.612 6.157,3.9 9.478,13.585c1.263,3.682 2.729,16.924 3.259,29.424c0.771,18.194 0.537,21.359 -1.167,15.862c-3.468,-11.179 -8.432,-15.224 -10.232,-8.337c-0.829,3.172 -0.914,3.164 -1.125,-0.115c-0.126,-1.952 -1.085,-3.019 -2.132,-2.372c-1.047,0.647 -2.464,-1.287 -3.147,-4.297c-0.683,-3.011 -2.475,-10.457 -3.981,-16.547c-3.618,-14.633 -3.39,-16.026 1.078,-6.582l3.713,7.847l0.158,-6.752c0.108,-4.569 -2.377,-11.019 -7.687,-19.959c-4.315,-7.264 -7.847,-14.265 -7.847,-15.557c0,-1.783 -0.709,-1.761 -2.943,0.093c-1.618,1.343 -2.943,3.658 -2.943,5.144c0,5.901 -7.911,2.528 -13.216,-5.634c-4.736,-7.287 -5.433,-10.313 -5.526,-24.03c-0.059,-8.631 -0.815,-18.672 -1.681,-22.313c-1.113,-4.679 -0.938,-6.227 0.597,-5.279c3.13,1.934 2.698,-1.257 -1.793,-13.261c-4.198,-11.22 -9.875,-17.959 -13.977,-16.592c-1.362,0.454 -4.427,-1.442 -6.812,-4.212c-2.385,-2.77 -4.887,-4.488 -5.561,-3.817c-1.987,1.981 7.58,25.261 16.098,39.178c7.639,12.48 7.763,12.957 3.995,15.31c-2.139,1.336 -4.084,2.148 -4.322,1.803c-0.238,-0.345 -5.99,-10.777 -12.782,-23.185c-6.793,-12.407 -17.532,-29.737 -23.866,-38.512c-11.206,-15.525 -44.459,-50.881 -46.209,-49.131c-0.48,0.48 1.387,4.204 4.149,8.274c4.809,7.087 5.319,11.839 0.785,7.303c-1.192,-1.192 -3.319,-1.726 -4.725,-1.187c-3.485,1.337 -8.495,-6.808 -9.104,-14.8c-0.382,-5.008 -2.122,-7.656 -7.386,-11.232c-8.402,-5.709 -10.705,-5.929 -7.938,-0.757c2.542,4.748 1.392,4.926 -4.957,0.765c-2.651,-1.737 -6.086,-2.672 -7.634,-2.078c-1.548,0.594 -3.867,-0.188 -5.153,-1.739c-3.572,-4.303 -27.267,-16.357 -28.437,-14.465c-0.566,0.916 2.214,5.256 6.178,9.643c10.012,11.082 6.935,12.056 -5.518,1.747c-5.704,-4.722 -16.539,-13.721 -24.08,-19.998c-13.376,-11.136 -39.242,-25.374 -51.037,-28.094c-5.55,-1.28 -5.718,-1.148 -2.943,2.316c2.408,3.007 1.52,2.823 -4.904,-1.012c-4.315,-2.576 -11.608,-7.222 -16.205,-10.322c-4.597,-3.1 -11.41,-6.912 -15.14,-8.47c-7.689,-3.213 -21.782,-3.783 -23.532,-0.951c-0.639,1.035 5.965,6.655 14.678,12.488l15.842,10.606l-6.262,1.252c-6.24,1.248 -6.248,1.267 -2.534,5.465l3.727,4.213l-6.859,-1.327c-8.254,-1.598 -12.648,-5.716 -19.476,-18.253c-5.902,-10.837 -7.112,-11.06 -24.667,-4.539c-10.532,3.911 -14.065,4.244 -33.602,3.162c-14.327,-0.793 -27.655,-2.896 -38.771,-6.117c-9.317,-2.7 -19.162,-4.909 -21.877,-4.909c-7.237,0 -19.023,5.415 -18.083,8.309c0.442,1.364 6.523,5.413 13.513,8.997c14.93,7.657 40.108,12.219 47.375,8.585c4.207,-2.104 10.955,-3.092 17.118,-2.507c2.3,0.218 2.11,0.908 -0.865,3.159c-2.552,1.93 -8.697,2.895 -18.636,2.927c-8.155,0.03 -18.281,0.847 -22.503,1.827c-4.222,0.98 -16.359,2.396 -26.972,3.148c-18.464,1.309 -19.297,1.198 -19.297,-2.568c0,-4.592 2.65,-7.02 10.789,-9.883c8.538,-3.004 2.269,-2.836 -25.167,0.674c-47.385,6.061 -77.076,16.253 -96.967,33.288c-10.068,8.621 -14.555,15.611 -8.972,13.976c1.981,-0.579 8.015,-1.574 13.409,-2.21l9.808,-1.155l-17.164,8.911c-15.527,8.062 -17.164,9.448 -17.164,14.547c0,4.993 -1.231,6.135 -10.789,10.014c-8.399,3.409 -10.789,5.318 -10.789,8.618c0,5.346 -5.222,12.959 -8.889,12.959c-2.074,0 -2.467,-1.571 -1.548,-6.172l1.235,-6.172l-10.321,5.617c-5.779,3.145 -11.092,7.644 -12.072,10.222c-3.641,9.578 -2.321,9.954 12.471,3.556c11.744,-5.08 8.549,-2.177 -6.99,6.352c-23.56,12.931 -43.468,30.542 -30.772,27.222c2.158,-0.564 3.923,-0.674 3.923,-0.243c0,0.431 -6.625,5.682 -14.722,11.671c-16.327,12.074 -21.214,18.071 -20.229,24.826c0.482,3.307 -1.081,5.747 -5.794,9.052c-3.549,2.489 -6.205,5.647 -5.902,7.016c0.303,1.369 -2.759,5.617 -6.805,9.438c-8.83,8.339 -9.243,12.273 -1.693,16.177c4.308,2.227 5.86,4.623 6.489,10.011c0.786,6.73 -0.388,8.395 -23.57,33.438c-13.418,14.496 -26.49,26.881 -29.048,27.523c-4.834,1.213 -6.667,9.073 -2.69,11.531c1.079,0.667 1.961,2.713 1.961,4.548c0,1.835 1.774,4.444 3.942,5.797c3.319,2.073 3.737,3.744 2.644,10.581c-0.997,6.241 -0.73,7.767 1.158,6.601c1.909,-1.179 1.978,-0.625 0.314,2.483c-1.609,3.007 -1.536,4.224 0.294,4.896c1.937,0.711 1.934,1.427 -0.015,3.493c-1.349,1.43 -2.452,6.09 -2.452,10.357v7.758l4.256,-3.737c4.198,-3.686 4.234,-3.684 2.644,0.187c-0.887,2.158 -2.032,7.012 -2.545,10.789l-0.933,6.865l4.175,-3.737c2.296,-2.055 4.161,-2.938 4.145,-1.961c-0.052,3.28 -3.265,6.917 -8.502,9.634c-4.765,2.472 -5.199,2.379 -5.199,-1.11c0,-5.871 -2.879,-4.512 -5.447,2.569c-1.518,4.187 -5.37,8.218 -11.222,11.745c-14.019,8.449 -14.016,8.42 -9.575,70.457c0.968,13.53 0.569,18.273 -1.963,23.35c-4.07,8.158 -4.252,7.731 3.294,7.731c3.561,0 7.41,0.937 8.555,2.082c1.468,1.468 2.377,-2.049 3.084,-11.93c0.72,-10.068 2.177,-15.601 5.176,-19.657c4.977,-6.732 5.521,-18.719 1.072,-23.635c-2.846,-3.144 -2.752,-3.778 1.144,-7.673c2.335,-2.335 5.363,-6.903 6.728,-10.149c2.387,-5.676 2.528,-5.348 3.686,8.5c0.662,7.922 3.469,21.355 6.236,29.851c4.324,13.274 4.771,16.863 3.184,25.501c-1.981,10.777 -1.04,20.086 2.494,24.652c1.658,2.143 1.608,2.48 -0.206,1.391c-2.483,-1.491 -2.935,-0.246 -5.935,16.347c-1.069,5.914 -2.927,9.463 -5.667,10.83c-5.332,2.658 -3.492,7.693 5.924,16.22c5.18,4.691 7.092,8.028 7.092,12.376c0,3.637 0.797,5.46 2.047,4.687c1.126,-0.697 4.241,0.172 6.921,1.927c6.79,4.449 9.645,1.927 4.797,-4.237c-4.126,-5.245 -5.42,-22.204 -2.722,-35.688l1.235,-6.174l7.177,12.305c6.645,11.393 6.98,12.702 4.519,17.674c-3.066,6.194 -1.838,9.342 3.642,9.342c3.082,0 3.609,0.937 2.66,4.721c-1.514,6.032 1.209,11.118 13.75,25.684c13.991,16.25 18.577,23.187 19.987,30.24c1.477,7.388 -0.952,7.718 -7.275,0.988c-2.959,-3.15 -4.756,-7.401 -4.756,-11.253c0,-9.12 -5.693,-9.272 -13.848,-0.369l-6.609,7.216l3.907,8.167c2.149,4.492 9.842,15.394 17.094,24.226c29.473,35.895 36.879,45.071 40.118,49.704c2.346,3.356 2.999,3.695 2.119,1.099c-0.924,-2.726 -0.591,-3.333 1.217,-2.215c1.966,1.215 2.021,0.663 0.264,-2.62c-2.692,-5.03 -4.404,-5.492 -2.695,-0.727c0.678,1.888 0.597,2.866 -0.178,2.172c-0.775,-0.694 -1.771,-4.115 -2.212,-7.604l-0.802,-6.344l4.278,3.681c6.952,5.982 11.046,10.996 16.62,20.355c11.977,20.107 30.344,47.078 32.062,47.078c1.013,0 1.842,-2.372 1.842,-5.271v-5.271l5.502,5.271c3.026,2.899 7.524,5.271 9.996,5.271c6.57,0 16.184,6.207 14.88,9.607c-0.597,1.556 0.044,3.549 1.432,4.428c4.122,2.616 11.386,1.875 12.598,-1.284c1.779,-4.638 6.412,-3.46 11.859,3.013c4.808,5.714 5.467,5.904 16.225,4.687c8.479,-0.959 12.727,-0.486 17.421,1.941c3.413,1.765 6.207,2.415 6.207,1.444c0,-0.971 3.393,-0.087 7.54,1.964c9.321,4.612 38.842,8.228 53.101,6.505c10.023,-1.211 10.432,-1.094 7.263,2.075c-1.847,1.847 -2.981,3.733 -2.522,4.192c0.459,0.459 8.082,2.567 16.94,4.682c11.079,2.647 18.038,3.345 22.307,2.239c7.874,-2.041 8.061,-6.876 0.318,-8.246c-3.236,-0.573 -4.993,-1.606 -3.904,-2.296c2.288,-1.448 14.685,3.319 14.708,5.657c0.007,0.862 -4.184,5.284 -9.318,9.827l-9.334,8.261l5.885,0.161c3.236,0.089 9.415,1.496 13.732,3.128c17.16,6.488 18.636,6.703 18.636,2.72c0,-2.021 -2.682,-5.259 -5.96,-7.196c-8.038,-4.748 -7.139,-10.585 1.993,-12.94c7.878,-2.032 29.142,0.648 44.492,5.605l10.112,3.265l7.538,-5.94c4.886,-3.85 15.659,-8.448 30.619,-13.067c14.479,-4.471 23.915,-8.462 25.317,-10.708c1.282,-2.053 3.712,-3.196 5.693,-2.678c1.901,0.497 5.073,-0.037 7.049,-1.185c1.976,-1.148 2.489,-2.116 1.141,-2.149c-4.44,-0.108 -2.557,-4.04 2.943,-6.143c4.132,-1.581 7.999,-1.278 16.527,1.296c12.94,3.905 22.522,2.234 12.407,-2.163l-5.885,-2.557l8.827,-3.903c4.855,-2.147 15.884,-4.956 24.509,-6.242c19.407,-2.894 33.564,-8.072 41.016,-15.001c5.168,-4.807 5.36,-5.414 2.062,-6.571c-2.995,-1.051 -2.48,-1.677 2.933,-3.564c8.486,-2.959 8.222,-3.084 5.601,2.668c-3.322,7.292 0.084,9.788 8.46,6.2c8.061,-3.454 16.902,-12.817 24.197,-25.623c2.995,-5.259 8.655,-13.117 12.577,-17.463l7.131,-7.901l-6.277,3.241c-7.597,3.922 -8.435,3.983 -8.435,0.614c0,-3.564 8.488,-7.18 16.855,-7.18c4.671,0 8.4,-1.537 11.677,-4.815c4.537,-4.537 6.788,-10.368 3.129,-8.107c-0.927,0.573 -5.373,0.404 -9.879,-0.374l-8.195,-1.416l5.913,-9.318c3.252,-5.124 7.256,-9.318 8.899,-9.318c1.643,0 2.986,-1.672 2.986,-3.716c0,-2.044 2.47,-6.36 5.49,-9.592c3.02,-3.232 7.117,-9.485 9.105,-13.895c1.988,-4.41 5.176,-8.513 7.084,-9.119c1.908,-0.606 4.537,-2.389 5.843,-3.963c3.544,-4.27 11.844,-35.127 9.655,-35.892c-1.031,-0.36 0.777,-4.349 4.02,-8.864c6.1,-8.495 10.47,-20.183 8.648,-23.132c-0.574,-0.928 -2.583,-0.863 -4.464,0.143c-3.209,1.717 -3.195,1.081 0.224,-10.293c2.005,-6.668 5.684,-16.27 8.175,-21.337l4.53,-9.213l-5.109,-0.594c-6.915,-0.805 -7.537,-6.196 -1.535,-13.327c5.612,-6.669 8.524,-17.114 5.589,-20.048c-2.935,-2.934 -6.254,-0.047 -6.254,5.435c0,2.633 -0.883,4.788 -1.961,4.788c-2.918,0 -2.412,-3.15 2.098,-13.05c5.133,-11.267 3.995,-15.924 -2.802,-11.471l-4.698,3.078l5.599,-17.231c3.08,-9.477 6.96,-22.282 8.624,-28.454c3.008,-11.159 3.061,-11.216 9.362,-10.016c3.486,0.663 6.647,1.462 7.026,1.777c0.379,0.315 1.262,5.263 1.961,10.998c1.675,13.724 5.971,13.979 10.433,0.619c2.362,-7.073 3.327,-8.441 3.459,-4.904c0.359,9.554 2.342,14.004 5.188,11.642c3.637,-3.019 6.372,-0.802 9.906,8.03c1.666,4.162 4.359,7.839 5.987,8.17c2.272,0.462 1.55,2.373 -3.111,8.227c-6.524,8.197 -7.881,16.873 -3.24,20.724c2.337,1.94 3.705,0.701 7.86,-7.116l5.03,-9.465l-0.504,6.864c-0.49,6.676 -0.325,6.847 5.987,6.216l6.49,-0.65l-1.305,21.247c-1.111,18.081 -0.689,23.634 2.827,37.267c4.991,19.35 5.064,22.104 0.826,30.993c-4.04,8.471 -5.657,8.707 -7.189,1.047c-0.647,-3.236 -2.416,-5.885 -3.93,-5.885c-4.769,0 -8.011,10.848 -5.24,17.536c2.995,7.23 1.808,9.159 -6.606,10.738c-6.42,1.205 -9.038,4.141 -9.038,10.137c0,1.53 1.171,2.782 2.602,2.782c1.809,0 2.334,1.943 1.721,6.375l-0.881,6.375l5.742,-5.394c6.891,-6.473 10.831,-7.229 5.118,-0.981c-4.61,5.041 -10.379,15.809 -10.379,19.371c0,1.321 2.327,0.261 5.17,-2.355l5.17,-4.756l-2.506,4.904c-1.378,2.697 -4.197,7.319 -6.264,10.27c-2.067,2.951 -10.841,18.841 -19.496,35.309c-8.656,16.468 -20.066,35.901 -25.357,43.183c-5.291,7.282 -8.539,13.241 -7.218,13.241c1.321,0 -0.103,2.322 -3.164,5.161c-3.823,3.546 -4.84,5.608 -3.25,6.592c2.134,1.319 -15.171,15.888 -54.593,45.964c-9.155,6.984 -11.75,9.938 -9.808,11.169c2.047,1.297 2.076,1.679 0.125,1.702c-1.383,0.016 -5.797,1.412 -9.808,3.1c-6.88,2.897 -7.083,3.226 -3.57,5.823c3.565,2.635 3.497,2.839 -1.598,4.777c-2.927,1.113 -5.845,2.023 -6.485,2.023c-0.64,0 -9.863,5.347 -20.497,11.882c-10.634,6.535 -22.489,13.2 -26.344,14.811c-4.813,2.011 -6.658,3.843 -5.889,5.847c1.155,3.01 0.318,3.511 -9.501,5.683c-4.13,0.914 -5.029,1.745 -3.147,2.908c1.737,1.073 -1.137,2.364 -8.439,3.788c-6.091,1.188 -16.15,3.138 -22.354,4.334c-12.23,2.358 -19.93,5.505 -13.732,5.613c1.888,0.03 5.369,1.996 7.735,4.362l4.302,4.302l-5.773,1.561c-3.175,0.859 -15.484,2.154 -27.352,2.879c-20.008,1.222 -22.104,1.74 -28.822,7.126c-5.482,4.394 -8.704,5.594 -13.241,4.927c-3.863,-0.567 -5.996,-0.037 -5.996,1.49c0,3.516 -17.83,7.357 -44.137,9.509c-4.315,0.352 -16.233,-0.03 -26.482,-0.844zM351.73,921.848c4.544,-2.873 -0.974,-7.087 -12.355,-9.434c-9.337,-1.926 -9.391,-1.908 -6.653,2.255c2.739,4.167 10.346,9.043 14.105,9.041c1.079,-0.001 3.286,-0.838 4.904,-1.862zM383.116,919.846c-2.697,-2.109 -5.566,-3.856 -6.375,-3.879c-2.949,-0.087 -1.38,-3.967 1.605,-3.967c2.546,0 2.354,-1.014 -1.115,-5.885c-6.876,-9.656 -9.715,-7.218 -4.972,4.268c1.052,2.547 0.108,3.457 -4.191,4.036c-5.409,0.73 -5.328,0.855 3.278,5.006c4.855,2.342 10.593,4.257 12.75,4.257c3.589,-0.001 3.505,-0.328 -0.981,-3.836zM570.204,888.303c6.822,-5.366 4.672,-8.257 -5.378,-7.229c-4.459,0.456 -10.434,0.187 -13.279,-0.595c-4.278,-1.177 -5.542,-0.611 -7.314,3.279c-2.052,4.503 -1.832,4.704 5.171,4.733c4.023,0.016 8.638,0.886 10.256,1.931c4.066,2.628 4.66,2.509 10.543,-2.119zM507.026,883.212c11.578,-1.21 14.533,-3.314 7.701,-5.483c-5.109,-1.622 -21.069,2.616 -24.153,6.412c-2.158,2.657 -1.982,2.893 1.25,1.679c2.068,-0.777 8.91,-1.951 15.202,-2.608zM694.476,830.477c6.884,-2.815 15.562,-10.032 13.974,-11.62c-1.484,-1.484 -25.721,8.422 -27.515,11.247c-3.931,6.191 -0.892,6.275 13.54,0.374zM207.274,817.68c-5.2,-9.554 -14.641,-19.454 -18.553,-19.454c-1.021,0 -0.491,2.082 1.176,4.627c1.667,2.545 2.501,6.011 1.852,7.703c-0.886,2.308 -0.225,2.826 2.649,2.074c2.759,-0.721 5.682,1.229 10.453,6.973c3.643,4.387 6.899,7.991 7.237,8.01c0.337,0.022 -1.829,-4.451 -4.814,-9.935zM789.997,816.049c2.049,-2.264 3.148,-4.694 2.442,-5.401c-1.512,-1.512 -8.684,4.611 -11.446,9.772c-1.659,3.1 -1.426,3.335 1.674,1.675c1.982,-1.06 5.28,-3.781 7.329,-6.045zM818.103,807.835c7.332,-2.788 4.962,-5.379 -3.923,-4.288c-4.911,0.604 -10.248,2.858 -12.987,5.489l-4.65,4.464l8.573,-1.993c4.716,-1.096 10.559,-2.749 12.987,-3.671zM88.875,725.646c0,-5.283 3.41,-6.669 4.895,-1.99c1.391,4.382 4.913,5.395 4.913,1.414c0,-1.396 -3.531,-5.884 -7.847,-9.973c-4.316,-4.089 -7.847,-8.685 -7.847,-10.212c0,-1.527 -0.883,-2.777 -1.961,-2.777c-2.639,0 -2.496,1.971 1.212,16.733c2.932,11.676 6.634,15.472 6.634,6.806zM830.363,700.79c0,-1.803 1.411,-4.837 3.135,-6.742c1.724,-1.905 2.531,-4.44 1.793,-5.633c-0.787,-1.273 -2.893,0.874 -5.096,5.196c-4.246,8.328 -4.611,10.459 -1.793,10.459c1.079,0 1.961,-1.476 1.961,-3.278zM830.074,684.453c5.658,0 11.099,-17.553 6.352,-20.487c-2.778,-1.717 -7.916,0.929 -10.242,5.275c-1.587,2.965 -1.473,4.335 0.46,5.53c1.906,1.177 0.579,3.465 -5.129,8.849c-7.533,7.104 -7.565,7.192 -1.484,4.047c3.418,-1.767 7.938,-3.214 10.043,-3.214zM112.413,674.925c-0.002,-3.879 -10.071,-25.183 -14.502,-30.685c-2.984,-3.704 -3.086,-3.713 -1.837,-0.157c0.727,2.071 3.378,8.025 5.889,13.231c2.511,5.206 4.567,12.532 4.567,16.28c0,5.251 0.675,6.555 2.943,5.685c1.618,-0.622 2.942,-2.579 2.941,-4.352zM122.223,658.952c0,-2.158 -0.369,-3.923 -0.82,-3.923c-0.451,0 -2.246,-0.547 -3.988,-1.216c-2.759,-1.058 -2.866,-0.552 -0.826,3.923c2.779,6.099 5.635,6.715 5.635,1.216zM80.86,621.68c0.059,-2.697 -0.794,-6.228 -1.897,-7.847c-1.454,-2.134 -1.667,-0.983 -0.774,4.189c0.724,4.197 0.385,7.653 -0.822,8.4c-1.129,0.697 -1.495,2.721 -0.814,4.495c1.09,2.842 1.415,2.776 2.719,-0.553c0.815,-2.078 1.529,-5.987 1.588,-8.684zM891.173,601.761c0,-5.11 -2.951,-4.492 -7.762,1.624c-3.133,3.983 -3.532,5.609 -1.658,6.767c3.166,1.957 9.421,-3.614 9.421,-8.39zM119.269,202.61c4.225,-1.622 7.152,-9.439 5.348,-14.287c-1.201,-3.231 -2.23,-2.345 -6.809,5.865c-5.294,9.492 -5.047,10.92 1.461,8.422zM147.378,186.185c7.062,-1.808 8.089,-2.646 6.135,-5c-3.892,-4.689 -14.421,-3.47 -20.234,2.344c-6.636,6.636 -6.562,8.811 0.223,6.592c2.967,-0.97 9.211,-2.741 13.876,-3.936zM167.914,172.497c-1.5,-5.735 -3.922,-4.838 -4.898,1.813c-0.728,4.964 -0.377,5.512 2.542,3.949c2.16,-1.156 3.014,-3.246 2.356,-5.763zM786.523,145.631c-0.539,-0.539 -2.888,-0.375 -5.219,0.365l-4.238,1.345l9.163,9.806l0.638,-5.268c0.351,-2.897 0.197,-5.709 -0.342,-6.248zM228.149,142.114c0,-0.438 -1.103,-1.431 -2.452,-2.207c-1.349,-0.776 -1.804,-0.695 -1.012,0.181c0.792,0.876 -0.09,2.831 -1.961,4.346c-3.053,2.471 -2.949,2.535 1.012,0.615c2.427,-1.177 4.414,-2.497 4.414,-2.934zM243.529,133.329c7.267,-2.084 24.614,-11.751 23.351,-13.012c-1.476,-1.476 -23.039,3.625 -23.039,5.45c0,0.986 -2.648,2.716 -5.885,3.845c-5.892,2.054 -8.056,5.591 -3.42,5.591c1.356,0 5.402,-0.843 8.992,-1.872zM247.862,110.798c-1.29,-1.554 -3.605,-2.343 -5.144,-1.751c-4.608,1.768 -3.168,4.578 2.346,4.578c4.256,0 4.739,-0.487 2.799,-2.826zM272.377,68.926c-1.159,-1.159 -17.454,7.602 -22.161,11.914c-8.73,7.999 -4.151,6.993 9.22,-2.026c7.498,-5.058 13.322,-9.507 12.94,-9.888zM638.616,65.245c-1.349,-0.544 -3.555,-0.544 -4.904,0c-1.349,0.544 -0.246,0.989 2.452,0.989c2.697,0 3.801,-0.445 2.452,-0.989zM280.247,59.741c3.285,-2.484 3.358,-2.888 0.535,-2.943c-1.8,-0.037 -4.889,-0.587 -6.865,-1.228c-2.735,-0.887 -2.947,-0.705 -0.89,0.761c1.487,1.06 2.097,2.909 1.356,4.108c-1.912,3.093 1.368,2.702 5.865,-0.699zM512.144,35.56c18.634,0.487 22.032,0.124 21.561,-2.31c-0.569,-2.94 -14.354,-11.732 -18.487,-11.79c-1.302,-0.015 -1.834,1.628 -1.249,3.867c1.521,5.815 -3.841,6.838 -16.792,3.204c-12.58,-3.53 -23.827,-4.163 -23.827,-1.343c0,1.011 2.869,2.114 6.375,2.452c9.606,0.926 7.652,4.456 -2.842,5.132c-6.55,0.422 -8.935,1.326 -8.246,3.122c0.787,2.049 2.903,2.013 11.178,-0.192c6.648,-1.772 17.922,-2.518 32.328,-2.141zM253.65,807.403c-2.697,-1.413 -8.812,-5.159 -13.588,-8.325c-6.502,-4.31 -7.806,-5.926 -5.187,-6.43c1.971,-0.38 6.41,2.149 10.169,5.792c3.669,3.556 9.093,7.539 12.052,8.852c2.959,1.313 4.498,2.452 3.42,2.533c-1.079,0.081 -4.168,-1.009 -6.865,-2.421zM733.077,778.895c2.055,-2.315 4.535,-4.208 5.511,-4.208c2.762,0 -0.175,3.659 -4.942,6.159c-4.274,2.242 -4.279,2.228 -0.567,-1.951zM42.106,674.645c0,-2.697 0.444,-3.801 0.989,-2.452c0.545,1.349 0.544,3.555 0,4.904c-0.544,1.349 -0.989,0.246 -0.989,-2.452zM23.161,596.18c-0.667,-1.079 -0.277,-1.961 0.865,-1.961c1.142,0 2.077,0.883 2.077,1.961c0,1.079 -0.389,1.961 -0.865,1.961c-0.476,0 -1.411,-0.883 -2.077,-1.961zM70.279,496.182c-2.618,-2.893 -3.212,-5.716 -2.337,-11.11c1.521,-9.368 3.864,-11.606 7.915,-7.555c4.515,4.515 4.018,22.544 -0.621,22.544c-0.796,0 -3.027,-1.746 -4.958,-3.878zM903.067,437.943c0.136,-31.762 2.107,-32.774 5.913,-3.034c2.254,17.612 0.819,29.846 -3.675,31.344c-1.775,0.592 -2.331,-6.451 -2.238,-28.31zM920.907,409.827c0,-2.697 0.445,-3.801 0.989,-2.452c0.544,1.349 0.544,3.555 0,4.904c-0.544,1.349 -0.989,0.246 -0.989,-2.452zM908.828,401c0,-1.618 0.883,-2.943 1.961,-2.943c1.078,0 1.961,1.324 1.961,2.943c0,1.618 -0.883,2.943 -1.961,2.943c-1.078,0 -1.961,-1.324 -1.961,-2.943zM890.919,358.335c0.457,-4.585 1.263,-7.012 1.792,-5.394c0.529,1.618 2.187,5.37 3.685,8.337c2.581,5.111 2.486,5.394 -1.792,5.394c-4.135,0 -4.446,-0.702 -3.685,-8.337zM881.395,343.738c0.015,-0.873 0.886,-2.911 1.931,-4.529c1.639,-2.536 1.906,-2.484 1.931,0.375c0.015,1.824 -0.853,3.862 -1.931,4.529c-1.078,0.667 -1.948,0.498 -1.931,-0.375zM866.942,338.848c-1.664,-6.216 -1.569,-7.486 0.559,-7.486c2.731,0 4.733,7.954 2.551,10.135c-1.217,1.217 -2.329,0.271 -3.111,-2.649zM875.48,325.063c0,-0.588 -1.336,-4.266 -2.969,-8.173c-1.633,-3.907 -2.47,-7.105 -1.862,-7.105c1.716,0 7.162,14.016 5.926,15.251c-0.603,0.603 -1.096,0.615 -1.096,0.027zM793.411,206.716c-1.254,-2.752 -2.245,-6.067 -2.203,-7.364c0.044,-1.297 1.38,0.643 2.973,4.312c3.352,7.724 2.643,10.539 -0.769,3.052zM202.5,195.364c4.997,-5.503 6.073,-6.181 5.972,-3.766c-0.037,0.809 -2.462,3.166 -5.394,5.237l-5.332,3.766zM792.602,192.698c-1.888,-0.494 -3.433,-2.293 -3.433,-3.999c0,-2.679 0.534,-2.618 3.923,0.448c3.337,3.02 5.132,5.465 3.433,4.676c-0.27,-0.126 -2.035,-0.631 -3.923,-1.125zM258.438,155.906c2.094,-1.678 4.669,-3.051 5.722,-3.051c2.492,0 1.379,0.906 -4.625,3.766c-4.624,2.202 -4.687,2.161 -1.096,-0.714zM265.317,136.305c1.4,-1.687 4.82,-3.066 7.6,-3.066c6.223,0 3.555,2.89 -4.408,4.774c-5.047,1.194 -5.431,0.989 -3.192,-1.708zM286.474,132.997c1.33,-1.341 2.914,-1.943 3.517,-1.34c0.603,0.603 -0.485,1.701 -2.42,2.437c-2.796,1.064 -3.021,0.839 -1.098,-1.098zM304.652,122.451c-3.048,-3.672 -0.539,-3.672 5.885,0c4.619,2.641 4.662,2.808 0.73,2.872c-2.295,0.037 -5.272,-1.254 -6.615,-2.872zM349.769,90.245c0,-0.991 -0.536,-3.198 -1.191,-4.904c-0.891,-2.322 0.052,-3.103 3.739,-3.103c4.552,0 4.756,0.374 2.662,4.889c-2.241,4.832 -5.21,6.608 -5.21,3.118zM422.348,86.161c1.618,-1.046 6.032,-1.827 9.808,-1.736c6.291,0.151 6.455,0.297 1.961,1.736c-2.697,0.863 -7.111,1.645 -9.808,1.736c-3.856,0.129 -4.275,-0.241 -1.961,-1.736zM588.764,83.937c-4.606,-1.687 -8.786,-6.977 -6.958,-8.805c0.363,-0.363 3.694,1.935 7.402,5.105c7.351,6.284 7.319,6.544 -0.444,3.7zM457.657,64.51c-4.603,-1.227 -4.483,-1.379 1.961,-2.473c13.304,-2.258 24.583,-2.749 30.405,-1.322c4.133,1.013 1.117,1.511 -10.135,1.674c-8.811,0.127 -16.314,0.952 -16.673,1.83c-0.359,0.878 -2.86,1.01 -5.557,0.291z" /></svg>