<svg xmlns="http://www.w3.org/2000/svg" viewBox="0 0 1024 1024" width="1024" height="1024"><path d="M1024,96v832c0,52.8 -43.2,96 -96,96h-832c-52.8,0 -96,-43.2 -96,-96v-832c0,-52.8 43.2,-96 96,-96h832c52.8,0 96,43.2 96,96zM864.4,696l-9.6,-44c-13.4,-58.2 -29.2,-59 -76.4,-43.4l-239.6,78.4l-75,-232c-27.6,-85 -44.8,-152.2 -71.6,-235.4c-33.2,-103.4 -37,-104.4 -128.6,-74.4c-117,38 -117,41.4 -97,103.4c10.8,33.4 74.8,207.4 95.8,272l88,272.6c36,111.4 44,115.6 123.6,89.6l348.4,-114c27.4,-8.8 53.2,-21.8 42,-72.8z" /></svg>