<svg xmlns="http://www.w3.org/2000/svg" viewBox="0 0 1024 570" width="1024" height="570"><path d="M451.6,507.2c0,0 -63.4,62.2 -195.8,62.2c-164.4,0 -255.8,-96.2 -255.8,-274.4c0,-185.4 91.6,-294.4 264,-294.4c156,0 234.6,56.2 283.6,208.8l38.8,117.2c28,85.6 77.4,147.8 195.8,147.8c79.8,0 122,-17.6 122,-61c0,-34 -20,-58.8 -79.8,-72.8l-79.8,-18.8c-97.2,-23.4 -136,-73.8 -136,-153.6c0,-128 103.2,-167.8 208.8,-167.8c119.6,0 192.4,43.4 201.8,149l-117.2,14c-4.6,-50.4 -35,-71.6 -91.4,-71.6c-51.6,0 -83.2,23.6 -83.2,63.4c0,35.2 15.2,56.2 66.8,68l75,16.4c100.8,23.6 154.8,72.8 154.8,167.8c0,117.2 -98.6,161.8 -244,161.8c-202.8,0 -273.2,-91.4 -310.8,-205.2l-37.6,-117.2c-28.2,-85.6 -61,-152.4 -164.2,-152.4c-71.4,0 -144.2,51.6 -144.2,195.8c0,112.6 57.4,183 138.4,183c91.4,0 152.4,-68 152.4,-68l37.6,102z" /></svg>