<svg xmlns="http://www.w3.org/2000/svg" viewBox="0 0 1023 1024" width="1023" height="1024"><path d="M1022.934,162.068c-0.694,10.724 -6.726,20.384 -16.056,25.716c-163,93.142 -219.13,213.744 -268.654,320.152c-32.426,69.67 -63.056,135.478 -118.624,184.456c-62.018,54.664 -145.71,80.124 -263.388,80.124c-44.994,0 -94.962,-3.75 -150.852,-11.306c-33.79,140.568 -14.36,262.79 -14.36,262.79h-128c0,-156.834 36.914,-286.952 76.784,-381.782c23.54,-62.166 54.998,-117.05 91.078,-165.328c4.12,-5.608 6.502,-8.56 6.614,-8.698c179.698,-232.96 465.524,-308.192 465.524,-308.192c-305.446,0 -570.392,222.718 -665.266,507.102c-27.8,-87.42 -40.138,-168.672 -36.684,-242.146c3.878,-82.516 27.5,-155.684 70.208,-217.474c90.934,-131.564 267.04,-207.02 483.16,-207.02c174.726,0 345.158,50.106 455.91,134.034c8.566,6.492 13.3,16.848 12.606,27.572z" /></svg>