<svg xmlns="http://www.w3.org/2000/svg" viewBox="0 0 984 448" width="984" height="448"><path d="M432.85,431.595l-14.395,-16.407h-189.154c-142.71,0 -191.443,-1.676 -198.473,-6.835c-6.52,-4.784 -12.562,-26.128 -20.125,-71.091l-10.804,-64.255l53.26,-115.69c35.512,-77.135 57.885,-119.124 67.139,-125.994c7.633,-5.667 38.397,-15.393 68.364,-21.612c76.12,-15.792 170.198,-12.085 240.436,9.47c27.072,8.308 55.373,15.108 62.896,15.108c7.523,0 35.822,-6.799 62.896,-15.108c70.24,-21.556 164.316,-25.262 240.436,-9.47c29.97,6.219 60.706,15.949 68.308,21.621c9.141,6.825 31.874,49.464 67.146,125.952l53.323,115.634l-10.811,64.297c-7.567,44.994 -13.611,66.348 -20.131,71.131c-7.031,5.156 -55.764,6.835 -198.474,6.835h-189.154l-14.395,16.407c-13.793,15.718 -16.271,16.407 -59.138,16.407c-42.867,0 -45.342,-0.687 -59.138,-16.407zM534.895,398.78l16.407,-16.407h382.172l3.627,-30.852c1.994,-16.971 2.95,-31.475 2.119,-32.235c-0.831,-0.76 -17.503,1.995 -37.054,6.121c-43.683,9.222 -60.783,6.333 -117.379,-19.813c-126.876,-58.619 -207.892,-57.92 -265.161,2.278c-10.365,10.895 -22.802,19.813 -27.639,19.813c-4.837,0 -17.272,-8.914 -27.639,-19.813c-56.775,-59.678 -138.363,-60.848 -261.412,-3.748c-56.28,26.12 -78.675,29.998 -121.61,21.073c-19.288,-4.01 -35.749,-6.67 -36.578,-5.911c-0.829,0.759 0.126,15.263 2.119,32.235l3.626,30.852h382.028l14.689,15.76c12.295,13.191 19.302,15.865 42.983,16.407c24.587,0.563 30.439,-1.499 44.698,-15.76zM203.738,267.035c108.382,-46.801 179.431,-51.571 242.014,-16.253l29.83,16.833v-197.252l-15.039,-6.03c-71.913,-28.822 -171.725,-38.374 -252.88,-24.195c-28.542,4.987 -56.954,12.386 -63.142,16.439c-6.464,4.238 -30.747,50.095 -57.068,107.789c-25.198,55.23 -46.792,102.306 -47.988,104.616c-4.171,8.067 45.222,25.644 72.424,25.773c20.982,0.101 42.359,-6.352 91.854,-27.723zM923.059,283.905c12.995,-5.897 22.648,-12.61 21.455,-14.92c-1.193,-2.308 -22.788,-49.387 -47.988,-104.616c-26.323,-57.695 -50.605,-103.552 -57.068,-107.789c-6.19,-4.056 -34.604,-11.454 -63.142,-16.439c-81.153,-14.178 -180.97,-4.63 -252.88,24.195l-15.039,6.03v196.153l37.173,-19.071c33.428,-17.152 41.554,-19.053 80.67,-18.889c53.467,0.222 88.994,9.385 158.942,40.991c63.086,28.507 98.568,32.201 137.883,14.36z" /></svg>