<svg xmlns="http://www.w3.org/2000/svg" viewBox="0 0 832 1024" width="832" height="1024"><path d="M809.374,361.374c12.444,12.444 22.626,37.026 22.626,54.626v576c0,17.6 -14.4,32 -32,32h-768c-17.6,0 -32,-14.4 -32,-32v-960c0,-17.6 14.4,-32 32,-32h384c17.6,0 42.182,10.184 54.626,22.628zM768,416.842c-0.48,-2.916 -2.754,-8.408 -4.476,-10.81l-337.556,-337.554c-2.402,-1.724 -7.894,-3.998 -10.81,-4.478h-351.158v896h704zM832,32v192c0,17.6 -10.182,21.818 -22.628,9.372l-210.746,-210.746c-12.444,-12.444 -8.226,-22.626 9.374,-22.626h192c17.6,0 32,14.4 32,32z" /></svg>