<svg xmlns="http://www.w3.org/2000/svg" viewBox="0 0 1024 1024" width="1024" height="1024"><path d="M1024,512c0,282.77 -229.23,512 -512,512c-282.77,0 -512,-229.23 -512,-512c0,-282.77 229.23,-512 512,-512c282.77,0 512,229.23 512,512zM512,704c106.04,0 192,-85.96 192,-192c0,-106.04 -85.96,-192 -192,-192c-106.04,0 -192,85.96 -192,192c0,106.04 85.96,192 192,192zM925.98,683.476c21.906,-52.822 34.02,-110.73 34.02,-171.476c0,-60.746 -12.112,-118.654 -34.02,-171.476l-177.42,73.49c12.518,30.184 19.44,63.276 19.44,97.986c0,34.71 -6.922,67.802 -19.44,97.986l177.42,73.49v0zM512,64c-60.744,0 -118.654,12.114 -171.476,34.018l73.49,177.422c30.184,-12.518 63.274,-19.44 97.986,-19.44c34.712,0 67.804,6.922 97.988,19.44l73.49,-177.42v0v0c-52.824,-21.906 -110.732,-34.02 -171.478,-34.02zM64,512c0,60.746 12.114,118.654 34.02,171.476l177.42,-73.49c-12.518,-30.184 -19.44,-63.276 -19.44,-97.986c0,-34.71 6.924,-67.802 19.442,-97.986l-177.422,-73.49c-21.906,52.822 -34.02,110.73 -34.02,171.476zM512,960c60.746,0 118.654,-12.116 171.476,-34.02l-73.49,-177.42c-30.184,12.518 -63.276,19.44 -97.986,19.44c-34.71,0 -67.802,-6.922 -97.986,-19.44l-73.49,177.42c52.822,21.906 110.732,34.02 171.476,34.02z" /></svg>