<svg xmlns="http://www.w3.org/2000/svg" viewBox="0 0 1024 1024" width="1024" height="1024"><path d="M384,64h640v128h-640zM384,448h640v128h-640zM384,832h640v128h-640zM0,128c0,-70.692 57.308,-128 128,-128c70.692,0 128,57.308 128,128c0,70.692 -57.308,128 -128,128c-70.692,0 -128,-57.308 -128,-128zM0,512c0,-70.692 57.308,-128 128,-128c70.692,0 128,57.308 128,128c0,70.692 -57.308,128 -128,128c-70.692,0 -128,-57.308 -128,-128zM0,896c0,-70.692 57.308,-128 128,-128c70.692,0 128,57.308 128,128c0,70.692 -57.308,128 -128,128c-70.692,0 -128,-57.308 -128,-128z" /></svg>