<svg xmlns="http://www.w3.org/2000/svg" viewBox="0 0 659 635" width="659" height="635"><path d="M98.6,1.8c130.568,0.578 253.992,30.583 406.4,0.1c28.187,-5.639 48.728,11.832 65.7,37.5c16.972,25.668 28.9,63.654 28.9,115.6c0,50.845 -8.822,86.381 -17,115c-8.178,28.619 -15,49.267 -15,77h-51.2c0,-36.267 9.176,-63.619 17,-91c7.824,-27.381 15,-55.845 15,-101c0,-44.054 -10.275,-72.087 -20.4,-87.4c-10.125,-15.313 -21.577,-13.784 -13,-15.5c-127.644,25.53 -232.316,13.699 -331.4,6.2c19.154,31.251 32,72.37 32,128.7c0,53.689 -17,110.999 -33,167c-16,56.001 -31,110.689 -31,153c0,34.879 10.268,55.31 21.5,65.9c11.232,10.59 24.052,13.259 38.2,9.4c28.295,-7.717 63.997,-47.517 49.4,-135.1l-4.9,-29.8h363.9l7.6,11.4c35.85,53.778 37.467,106.025 22,143c-7.734,18.487 -19.281,33.197 -32.8,43.4c-13.519,10.203 -29.896,17.302 -48.7,12.6c-58.751,-14.688 -143.756,-15.132 -212.8,-11.2c-69.044,3.932 -122.2,11.7 -122.2,11.7l-0.5,-3.3c-3.055,1.166 -4.452,5.841 -7.6,6.7c-29.852,8.142 -63.032,0.809 -86.8,-21.6c-23.768,-22.409 -37.5,-57.981 -37.5,-103.1c-0.001,-53.689 17,-110.999 33,-167c16,-56.001 31,-110.689 31,-153c0,-52.343 -11.364,-87.292 -25.1,-107.7c-13.534,-20.108 -28.134,-26.117 -40.7,-26.3c-0.351,-0.002 -0.749,-0.099 -1.1,-0.1c-12.505,0.178 -24.854,6.27 -34.2,21.5c-9.481,15.45 -15.202,40.588 -8.2,75.6l-50.2,10c-8.998,-44.988 -2.719,-83.85 14.8,-112.4c16.621,-27.085 44.8,-42.098 74.3,-43.8v-2.3c1.173,-0.001 2.328,0.196 3.5,0.2c0.2,-0.002 0.299,-0.3 0.5,-0.3c0.232,0 0.368,0.398 0.6,0.4zM478,161.4v51.2h-192v-51.2zM414,289.4v51.2h-128v-51.2zM293.8,571.1c22.22,-2.411 25.461,-3.83 58.3,-5.7c71.419,-4.068 158.851,-4.512 228.1,12.8c-3.283,-0.821 0.109,0.168 5.5,-3.9c5.391,-4.068 11.915,-11.818 16.3,-22.3c7.868,-18.81 7.208,-47.467 -12.7,-83.4h-281.4c1.559,39.322 -0.136,76.33 -14.1,102.5z" /></svg>