<svg xmlns="http://www.w3.org/2000/svg" viewBox="0 0 803 800" width="803" height="800"><path d="M658.798,377.852c0.219,-0.265 0.529,-0.563 0.794,-0.794c3.261,1.189 6.432,2.55 9.605,3.919c2.07,6.345 3.877,12.775 5.506,19.344c0.035,0.259 0.098,0.6 0.166,0.831c1.5,6.39 2.822,12.779 3.879,19.298c0.037,0.154 0.037,0.319 0.068,0.485c1.015,6.213 1.765,12.558 2.294,18.902c0.131,1.231 0.229,2.468 0.297,3.743c0.457,6.303 0.754,12.69 0.754,19.125c0,6.608 -0.358,13.173 -0.839,19.649c-0.099,1.323 -0.166,2.645 -0.297,3.967c-0.529,6.257 -1.279,12.512 -2.29,18.637c-0.175,1.105 -0.421,2.201 -0.619,3.306c-0.967,5.769 -2.155,11.5 -3.524,17.182c-0.232,0.706 -0.363,1.455 -0.529,2.161c-1.542,6.036 -3.307,11.938 -5.243,17.755c-0.396,1.281 -0.837,2.514 -1.281,3.793c-1.983,5.815 -4.185,11.542 -6.564,17.138c-0.309,0.707 -0.628,1.323 -0.925,2.029c-2.291,5.197 -4.759,10.352 -7.356,15.375c-0.528,0.971 -1.019,1.982 -1.5,2.907c-2.819,5.331 -5.859,10.532 -9.032,15.597c-0.659,1.058 -1.362,2.114 -1.981,3.13c-3.126,4.799 -6.299,9.471 -9.691,14.011l-165.887,-164.743c6.169,0.558 12.381,0.972 18.725,0.972c4.448,0 8.943,-0.149 13.35,-0.414c1.451,-0.139 2.906,-0.239 4.406,-0.37c2.908,-0.217 5.859,-0.376 8.725,-0.746c1.806,-0.177 3.568,-0.508 5.287,-0.706c2.599,-0.35 5.156,-0.661 7.668,-1.096c1.892,-0.311 3.742,-0.687 5.638,-1.057c2.379,-0.486 4.762,-0.926 7.093,-1.455c1.895,-0.395 3.788,-0.926 5.682,-1.411c2.292,-0.567 4.54,-1.141 6.786,-1.757c1.897,-0.529 3.785,-1.147 5.729,-1.719c2.156,-0.703 4.315,-1.366 6.431,-2.072c1.938,-0.661 3.834,-1.41 5.77,-2.116c2.028,-0.746 4.1,-1.537 6.081,-2.331c1.942,-0.794 3.879,-1.631 5.73,-2.425c1.982,-0.878 3.965,-1.759 5.861,-2.644c1.89,-0.879 3.786,-1.803 5.682,-2.775c1.851,-0.926 3.701,-1.891 5.552,-2.862c1.851,-0.971 3.745,-2.029 5.552,-3.04c1.805,-1.056 3.572,-2.068 5.329,-3.125c1.851,-1.1 3.661,-2.244 5.466,-3.394c1.719,-1.099 3.39,-2.201 5.069,-3.345c1.76,-1.235 3.521,-2.47 5.287,-3.701c1.625,-1.147 3.213,-2.379 4.844,-3.569c1.718,-1.321 3.438,-2.642 5.11,-4.011c1.583,-1.237 3.084,-2.466 4.584,-3.788c1.671,-1.413 3.346,-2.82 4.977,-4.275c1.499,-1.277 2.911,-2.645 4.318,-3.967c1.586,-1.541 3.22,-2.996 4.805,-4.581c1.371,-1.369 2.691,-2.775 4.053,-4.144c1.544,-1.627 3.084,-3.215 4.584,-4.844z" /> <path d="M684.292,388.126c70.142,36.257 118.211,109.266 118.211,193.731c0,120.462 -97.682,218.143 -218.14,218.143c-58.866,0 -112.223,-23.356 -151.48,-61.291h0.031c4.849,-0.265 9.696,-0.663 14.454,-1.144c1.146,-0.147 2.248,-0.313 3.392,-0.444c3.66,-0.437 7.315,-0.878 10.971,-1.494c1.413,-0.225 2.823,-0.556 4.23,-0.754c3.305,-0.572 6.608,-1.148 9.914,-1.894c1.498,-0.311 3.038,-0.643 4.584,-1.057c3.082,-0.706 6.213,-1.452 9.253,-2.246c1.589,-0.444 3.129,-0.925 4.714,-1.369c2.996,-0.883 5.95,-1.718 8.944,-2.69c1.546,-0.528 3.086,-1.056 4.626,-1.585c2.906,-1.012 5.815,-2.068 8.681,-3.173c1.539,-0.567 2.994,-1.141 4.494,-1.757c2.906,-1.148 5.812,-2.381 8.631,-3.66c1.411,-0.619 2.823,-1.233 4.23,-1.894c2.91,-1.322 5.773,-2.733 8.592,-4.188c1.322,-0.659 2.604,-1.32 3.879,-1.981c2.909,-1.542 5.817,-3.128 8.679,-4.8c1.15,-0.659 2.292,-1.32 3.436,-1.981c3,-1.764 5.949,-3.614 8.856,-5.51c0.971,-0.615 1.897,-1.189 2.822,-1.805c3.218,-2.116 6.345,-4.315 9.431,-6.522c0.614,-0.483 1.275,-0.881 1.936,-1.362c3.522,-2.602 7.004,-5.333 10.396,-8.108c0.192,-0.131 0.323,-0.229 0.489,-0.297c14.23,-11.673 27.361,-24.672 39.08,-38.903l9.649,9.558l0.972,0.972l9.471,-8.194l-12.294,-12.206c3.832,-5.156 7.401,-10.443 10.925,-15.818c0.396,-0.661 0.791,-1.32 1.235,-1.936c3.657,-5.776 7.137,-11.676 10.443,-17.757c0.065,-0.205 0.163,-0.409 0.231,-0.575c3.172,-5.992 6.167,-12.161 8.902,-18.374c0.22,-0.529 0.503,-1.059 0.701,-1.54c2.644,-6.166 5.069,-12.425 7.27,-18.769c0.396,-1.011 0.687,-2.029 1.057,-3.04c2.116,-6.434 4.145,-12.91 5.817,-19.519c0.067,-0.306 0.135,-0.584 0.166,-0.881c1.631,-6.346 2.953,-12.775 4.097,-19.34c0.201,-1.105 0.409,-2.21 0.575,-3.306c1.097,-6.568 1.891,-13.132 2.512,-19.827c0.131,-1.323 0.229,-2.645 0.297,-3.967c0.542,-6.916 0.839,-13.877 0.839,-20.883c0,-5.908 -0.205,-11.722 -0.575,-17.539c-0.1,-1.362 -0.2,-2.728 -0.331,-4.097c-0.396,-5.064 -0.879,-10.047 -1.54,-14.978c-0.065,-0.706 -0.163,-1.415 -0.231,-2.161c-1.716,-12.206 -4.275,-24.101 -7.533,-35.775z" /> <path d="M622.763,629.355c-11.674,14.362 -24.85,27.45 -39.257,39.081c-0.131,0.067 -0.229,0.167 -0.297,0.198c-3.527,2.816 -7.096,5.55 -10.752,8.194c-0.351,0.217 -0.683,0.481 -1.057,0.746c-3.436,2.465 -6.96,4.843 -10.529,7.137c-0.398,0.264 -0.865,0.608 -1.279,0.839c-3.61,2.288 -7.27,4.494 -10.971,6.65c-0.35,0.161 -0.682,0.377 -1.096,0.575c-12.293,6.96 -25.245,12.822 -38.687,17.757c-9.121,3.348 -18.46,6.348 -28.065,8.679l-0.099,0.031c-4.581,1.1 -9.207,2.12 -13.879,2.951c-0.4,0.067 -0.817,0.167 -1.231,0.198c-4.363,0.794 -8.771,1.494 -13.219,2.069c-0.489,0.035 -1.019,0.135 -1.5,0.166c-4.449,0.568 -8.987,1.025 -13.481,1.322c-0.396,0.037 -0.776,0.068 -1.19,0.068c-4.937,0.377 -9.829,0.544 -14.806,0.575c-18.241,-20.577 -32.825,-44.503 -42.297,-70.894c0.441,-0.396 0.791,-0.776 1.235,-1.19c0.834,-0.791 1.625,-1.585 2.419,-2.331c2.16,-2.073 4.319,-4.188 6.435,-6.344c0.878,-0.926 1.718,-1.897 2.597,-2.822c1.937,-2.069 3.879,-4.143 5.73,-6.299c0.925,-1.016 1.851,-2.116 2.73,-3.173c1.765,-2.114 3.482,-4.228 5.201,-6.344c0.877,-1.148 1.803,-2.377 2.682,-3.527c1.586,-2.113 3.172,-4.27 4.672,-6.431c0.925,-1.235 1.765,-2.557 2.644,-3.832c1.5,-2.114 2.864,-4.275 4.275,-6.476c0.884,-1.369 1.725,-2.733 2.556,-4.144c1.28,-2.158 2.511,-4.319 3.746,-6.565c0.84,-1.407 1.631,-2.907 2.425,-4.362c1.146,-2.202 2.287,-4.41 3.392,-6.656c0.746,-1.54 1.5,-3.08 2.246,-4.626c1.013,-2.248 1.983,-4.496 2.994,-6.742c0.659,-1.627 1.365,-3.215 1.981,-4.8c0.922,-2.293 1.762,-4.584 2.601,-6.874c0.661,-1.678 1.23,-3.351 1.805,-5.023c0.839,-2.293 1.54,-4.625 2.246,-6.965c0.528,-1.759 1.056,-3.476 1.585,-5.195c0.661,-2.337 1.233,-4.758 1.805,-7.137c0.44,-1.718 0.905,-3.479 1.279,-5.245c0.569,-2.467 1.059,-4.932 1.494,-7.444c0.311,-1.72 0.741,-3.437 0.972,-5.156c0.444,-2.601 0.774,-5.247 1.105,-7.844c0.266,-1.673 0.535,-3.351 0.701,-5.023c0.34,-2.908 0.556,-5.818 0.754,-8.725c0.109,-1.456 0.306,-2.911 0.374,-4.318c0.2,-4.409 0.331,-8.816 0.331,-13.265c0,-4.582 -0.183,-9.168 -0.414,-13.702c-0.117,-1.413 -0.283,-2.777 -0.414,-4.188l167.474,166.329z" /> <path d="M418.219,392.676c0.131,0.225 0.198,0.508 0.297,0.706c1.985,4.496 3.747,9.076 5.466,13.702c-5.552,5.067 -10.839,10.4 -15.862,15.906c-67.856,-24.896 -119.844,-82.528 -136.94,-153.772c1.058,0.31 2.162,0.489 3.219,0.754c1.892,0.528 3.787,1.056 5.638,1.585c3.084,0.926 6.166,1.888 9.206,2.907c1.762,0.663 3.565,1.233 5.331,1.894c3.305,1.235 6.562,2.556 9.781,3.925c1.408,0.615 2.817,1.144 4.183,1.805c4.539,2.03 8.988,4.233 13.395,6.564c0.709,0.396 1.41,0.821 2.116,1.235c3.657,2.026 7.271,4.143 10.752,6.344c1.407,0.879 2.728,1.805 4.097,2.69c2.817,1.892 5.639,3.788 8.369,5.817c1.414,1.009 2.775,2.068 4.144,3.125c2.688,2.069 5.374,4.23 7.931,6.431c1.234,1.015 2.466,2.029 3.656,3.04c2.999,2.689 5.907,5.419 8.769,8.241c0.66,0.659 1.368,1.32 2.029,1.981c3.568,3.613 7.046,7.355 10.396,11.234c0.264,0.311 0.542,0.643 0.839,1.057c2.949,3.438 5.769,7.004 8.459,10.62c0.791,1.057 1.496,2.116 2.246,3.173c2.248,3.04 4.362,6.166 6.431,9.339c0.746,1.237 1.54,2.426 2.246,3.616c2.027,3.258 3.965,6.608 5.77,10c0.622,1.057 1.237,2.116 1.766,3.173c2.246,4.229 4.313,8.546 6.257,12.908z" /> <path d="M434.645,450.426c1.367,9.956 2.161,20.092 2.161,30.402c0,60.318 -24.411,114.867 -63.933,154.343h-0.031c-0.037,0 -0.037,0.037 -0.068,0.068c-4.274,-17.094 -6.609,-34.937 -6.609,-53.402c0,-51.684 18.023,-99.177 48.115,-136.544c6.655,2.029 13.527,3.66 20.401,5.115z" /> <path d="M450.546,430.598c-0.707,-3.127 -1.54,-6.259 -2.379,-9.384c-0.659,-2.689 -1.235,-5.42 -1.981,-8.064c37.586,-30.884 85.699,-49.435 138.13,-49.435c5.288,0 10.488,0.205 15.644,0.575c1.717,0.107 3.392,0.35 5.023,0.481c3.522,0.311 6.96,0.709 10.396,1.19c1.937,0.264 3.832,0.594 5.683,0.925c3.219,0.576 6.39,1.19 9.563,1.851c1.893,0.396 3.743,0.791 5.594,1.235c0.971,0.262 1.938,0.6 2.907,0.831c-39.609,40.405 -94.773,65.52 -155.795,65.52c-10.886,0 -21.5,-0.885 -31.943,-2.379c-0.223,-1.149 -0.641,-2.245 -0.839,-3.35z" /> <path d="M146.47,513.496c14.013,74.987 58.379,139.451 119.844,179.984c-15.332,3.481 -31.235,5.506 -47.626,5.506c-120.463,0 -218.19,-97.682 -218.19,-218.184c0,-120.502 97.727,-218.143 218.19,-218.143c2.863,0 5.726,0.2 8.592,0.331c-52.654,50.362 -85.568,121.256 -85.568,199.681c0,13.045 0.969,25.868 2.73,38.424l-15.818,4.404l3.35,12.028l14.494,-4.006z" /> <path d="M330.479,399.428c16.612,14.058 35.249,25.689 55.294,34.764l-229.203,63.579c-1.543,-11.456 -2.422,-23.173 -2.422,-35.116c0,-78.959 34.895,-149.894 90.056,-198.318c2.207,0.225 4.408,0.409 6.569,0.706c3.966,19.696 10.351,38.509 18.902,56.09c0.065,0.159 0.163,0.363 0.231,0.529c1.981,4.097 4.098,8.15 6.299,12.069c0.309,0.528 0.628,1.056 0.925,1.585c2.029,3.568 4.186,7.139 6.391,10.62c0.567,0.879 1.228,1.765 1.757,2.69c2.074,3.04 4.141,6.036 6.257,9.03c0.969,1.324 2.028,2.646 2.994,3.925c1.897,2.465 3.748,4.891 5.729,7.27c1.5,1.805 3.04,3.572 4.54,5.329c1.625,1.809 3.172,3.614 4.844,5.419c2.161,2.293 4.408,4.541 6.609,6.742c1.19,1.146 2.292,2.335 3.436,3.436c3.04,2.907 6.167,5.683 9.297,8.373c0.483,0.444 0.97,0.84 1.455,1.275z" /> <path d="M355.484,644.366c0.484,1.718 0.88,3.53 1.369,5.287c-21.636,17.713 -46.793,31.154 -74.199,39.569c-63.931,-38.419 -110.327,-103.099 -124.206,-179.018l231.623,-64.24c-0.925,1.282 -1.851,2.557 -2.73,3.879c-0.926,1.371 -1.941,2.646 -2.822,4.053c-2.551,4.009 -4.935,8.194 -7.27,12.382c-0.746,1.275 -1.585,2.51 -2.286,3.832c-2.337,4.362 -4.407,8.812 -6.476,13.306c-0.572,1.277 -1.232,2.467 -1.807,3.746c-1.889,4.362 -3.566,8.856 -5.195,13.35c-0.529,1.497 -1.19,2.908 -1.719,4.404c-1.63,4.758 -2.998,9.649 -4.32,14.584c-0.396,1.274 -0.82,2.557 -1.19,3.879c-1.146,4.493 -2.026,9.16 -2.951,13.832c-0.311,1.72 -0.76,3.39 -1.057,5.156c-0.661,3.963 -1.056,7.976 -1.5,11.982c-0.311,2.51 -0.774,5.021 -0.972,7.533c-0.534,6.57 -0.831,13.22 -0.831,20.006c0,6.346 0.309,12.645 0.794,18.902c0.172,2.028 0.495,4.052 0.661,6.081c0.485,4.185 0.968,8.373 1.629,12.47c0.356,2.334 0.837,4.628 1.281,6.874c0.75,3.836 1.497,7.623 2.422,11.369c0.576,2.287 1.15,4.535 1.766,6.781z" /> <path d="M688.798,291.534c-8.283,23.133 -20.31,44.412 -35.379,63.228c-1.897,-0.574 -3.833,-1.017 -5.729,-1.546c-2.158,-0.614 -4.315,-1.144 -6.476,-1.719c-3.963,-0.966 -7.976,-1.803 -11.982,-2.597c-2.208,-0.396 -4.41,-0.865 -6.656,-1.235c-4.277,-0.7 -8.637,-1.23 -12.955,-1.719c-2.027,-0.176 -3.965,-0.495 -5.994,-0.661c-6.385,-0.461 -12.775,-0.831 -19.298,-0.831c-50.667,0 -97.55,16.168 -136.188,43.356l47.275,-177.61l0.331,-1.407l2.425,-9.206l0.414,-1.369l9.298,-34.981c74.24,20.487 137.952,66.66 180.91,128.303z" /> <path d="M421.31,140.904c-54.81,0 -106.585,13.259 -152.318,36.615c19.034,-101.032 107.729,-177.519 214.311,-177.519c120.462,0 218.143,97.68 218.143,218.185c0,21.062 -3.131,41.374 -8.725,60.718c-44.278,-60.406 -108.123,-105.48 -182.144,-125.881l3.92,-14.672l0.374,-1.407l-12.07,-3.219l-4.32,16.213c-24.759,-5.857 -50.579,-9.03 -77.148,-9.03z" /> <path d="M267.011,190.447c45.999,-24.85 98.565,-38.948 154.387,-38.948c25.601,0 50.494,3.041 74.419,8.679l-9.206,34.631l-0.414,1.411l-2.425,9.206l-0.414,1.369l-47.54,178.928c-11.15,-25.248 -26.35,-48.293 -45.075,-68.074c-0.264,-0.31 -0.608,-0.608 -0.839,-0.839c-3.127,-3.303 -6.346,-6.477 -9.691,-9.558c-0.528,-0.53 -1.056,-0.974 -1.585,-1.455c-3.132,-2.866 -6.305,-5.645 -9.563,-8.327c-0.748,-0.621 -1.54,-1.19 -2.294,-1.811c-3.081,-2.512 -6.253,-4.93 -9.472,-7.27c-0.926,-0.659 -1.893,-1.32 -2.862,-1.981c-3.087,-2.155 -6.212,-4.318 -9.431,-6.299c-1.102,-0.709 -2.248,-1.41 -3.392,-2.116c-3.132,-1.897 -6.258,-3.7 -9.431,-5.466c-1.322,-0.7 -2.598,-1.408 -3.879,-2.069c-3.128,-1.632 -6.253,-3.172 -9.472,-4.672c-1.456,-0.659 -2.863,-1.32 -4.318,-1.981c-3.134,-1.41 -6.307,-2.688 -9.519,-3.967c-1.546,-0.617 -3.086,-1.189 -4.626,-1.761c-3.171,-1.19 -6.436,-2.249 -9.694,-3.306c-1.633,-0.527 -3.219,-1.061 -4.891,-1.546c-3.219,-0.925 -6.524,-1.805 -9.869,-2.644c-1.678,-0.437 -3.304,-0.817 -5.023,-1.231c-1.148,-0.264 -2.337,-0.641 -3.527,-0.839c-1.365,-9.913 -2.246,-20.046 -2.246,-30.356c0,-9.387 0.707,-18.639 1.851,-27.718z" /></svg>