<svg xmlns="http://www.w3.org/2000/svg" viewBox="0 0 997 992" width="997" height="992"><path d="M835.178,482.894c11.945,-3.389 24.882,-6.613 38.109,-9.176c-13.226,-2.439 -26.164,-5.167 -38.109,-8.391c-24.676,-6.49 -51.79,-10.664 -72.953,-23.271c-22.61,-13.557 -44.268,-26.784 -66.547,-41.664c-22.114,-14.508 -47.782,-17.567 -61.835,-40.341c-14.053,-22.774 -33.232,-42.49 -48.112,-66.381c-17.897,-29.057 -32.777,-63.777 -54.725,-89.445c-12.607,-14.839 -22.61,-34.224 -29.223,-53.775c-4.34,15.21 -13.392,25.213 -20.171,41.829c-6.944,17.112 -1.612,20.501 -14.219,34.72c-21.783,25.006 -48.443,57.949 -63.943,88.329c-18.889,36.621 -39.06,49.724 -72.168,72.788c-21.162,14.88 -46.004,21.163 -68.117,31.496c-50.881,24.056 -108.376,42.945 -162.44,53.94c55.552,10.499 103.002,23.064 155.165,50.22c21.948,11.449 46.996,18.393 68.117,34.72c5.662,4.34 10.829,8.556 15.665,12.896c10.002,19.055 31.165,20.998 45.053,37.283c2.728,8.887 5.662,17.773 10.333,25.668c4.506,7.109 10.664,12.607 17.443,16.988c13.723,27.735 29.884,56.007 47.616,78.451c12.606,15.666 14.549,35.671 21.493,54.395c6.779,18.435 15.831,29.554 20.171,46.211c6.614,-21.658 16.616,-42.945 29.223,-59.437c21.948,-28.231 36.828,-66.506 54.725,-98.663c14.88,-26.454 34.059,-48.112 48.112,-73.119c14.054,-25.338 39.722,-28.603 61.835,-44.723c22.279,-16.327 43.938,-30.835 66.547,-45.715c21.162,-14.012 48.277,-18.558 72.953,-25.833zM996.5,472.275c0.166,0.951 0.166,2.067 0.331,3.224c-2.769,0 -5.332,0.166 -8.101,0.455c-4.009,0.661 -7.895,1.322 -11.78,1.777c-14.673,3.1 -29.553,7.936 -37.944,10.829c-30.504,10.664 -61.008,16.947 -92.173,23.891c-25.999,5.662 -61.711,11.16 -84.444,27.445c-17.277,12.276 -30.669,34.1 -49.889,44.888c-14.219,8.225 -27.776,9.217 -39.391,21.493c-5.332,5.621 -12.276,13.392 -18.435,19.84c-17.608,18.434 -36.001,41.994 -52.121,62.661c-16.988,21.783 -9.383,49.89 -26.495,73.119c-10.995,14.88 -24.387,25.999 -35.671,40.879c-11.49,15.004 -11.821,19.344 -15.045,35.671c-4.671,23.229 -8.722,49.062 -16.451,73.449c-0.496,1.323 -0.992,2.769 -1.447,4.216c1.281,9.052 2.397,17.773 0.165,27.776c-3.224,14.673 -8.391,31.785 -11.16,48.112c-1.282,-0.165 -2.728,-0.165 -4.175,-0.165c0,-0.496 0,-0.827 0,-1.116c-0.496,-0.827 -0.827,-1.777 -1.323,-2.604l0.827,-0.496c-0.331,-2.893 -0.496,-5.952 -0.827,-9.176c-3.389,-19.551 -9.176,-37.944 -9.176,-60.223c0,-26.164 0,-42.656 -8.887,-64.769c-9.217,-23.064 -10.498,-53.279 -22.113,-74.276c-4.712,-8.391 -12.772,-14.508 -18.435,-22.444c-11.615,-15.955 -12.731,-37.448 -21.783,-55.056c-10.003,-19.675 -28.892,-33.067 -42.16,-50.84c-13.557,-18.269 -27.735,-26.164 -41.788,-43.937c-13.722,-17.112 -33.769,-29.843 -51.997,-41.788c-47.946,-31.331 -99.448,-52.824 -152.437,-62.331c-13.227,-2.273 -26.123,-5.332 -39.06,-7.936c-0.331,-0.124 -0.662,-0.455 -0.951,-0.62c-11.326,-7.605 -25.214,-9.713 -38.771,-9.837c-12.111,-4.05 -24.222,-7.605 -36.787,-10.209c-0.331,-0.124 -0.661,-0.124 -0.992,-0.124c-2.108,-1.653 -4.175,-3.265 -6.448,-4.712c1.943,-0.455 3.886,-0.951 5.787,-1.447c5.828,-0.951 11.656,-2.274 17.443,-3.555c10.664,-2.108 21.494,-3.886 32.323,-5.663c23.229,-2.397 44.723,-7.564 67.456,-11.284c52.989,-8.721 111.889,-36.828 159.712,-65.224c21.948,-12.938 48.278,-29.388 61.339,-50.551c6.944,-10.954 20.832,-15.831 28.561,-26.619c11.16,-15.666 19.882,-36.167 31.331,-48.939c36.167,-39.886 49.104,-79.608 69.771,-126.397c8.887,-20.212 8.887,-35.051 8.887,-58.776c0,-20.047 5.621,-36.663 9.176,-54.271c0.331,-3.058 0.496,-5.952 0.827,-8.721c-0.166,-0.166 -0.496,-0.166 -0.827,-0.331c0.496,-0.786 0.827,-1.778 1.323,-2.563c0.124,-1.612 0.454,-3.224 0.785,-4.671c0.331,0 0.496,-0.165 0.827,-0.165l-0.165,0.785c0.165,-0.33 0.165,-0.454 0.165,-0.785c0.62,0 1.281,0 1.901,-0.165c2.438,15.996 8.266,33.232 11.821,47.616c2.232,9.052 1.116,16.947 -0.165,25.048c0.455,1.281 0.951,2.563 1.447,3.844c7.73,22.155 11.78,45.55 16.451,66.547c3.224,14.838 3.554,18.724 15.045,32.281c11.284,13.392 24.676,23.56 35.671,37.117c17.112,21.163 9.507,46.5 26.495,66.216c16.12,18.889 34.513,40.217 52.121,56.833c6.159,5.828 13.103,12.896 18.435,18.063c11.615,10.994 25.172,11.986 39.391,19.385c19.22,9.879 32.612,29.554 49.889,40.879c22.733,14.673 58.445,19.509 84.444,24.841c31.165,6.283 61.669,11.946 92.173,21.659c6.448,1.901 16.781,5.001 27.776,7.564c8.886,0.992 17.442,2.273 25.833,4.216c1.446,0 2.728,0.165 3.885,0.165z" /> <path d="M735.11,199.554c11.614,-5.994 19.178,-16.327 24.345,-28.107c-0.166,15.335 0.33,30.545 -3.059,35.836c-6.613,10.333 -24.221,14.053 -32.116,22.609c-9.838,10.498 -10.83,21.328 -9.383,35.381c2.273,22.774 3.555,25.006 -15.5,43.441c-11.946,11.449 -25.007,24.056 -31.331,38.068c-7.564,16.658 -13.847,36.498 -33.563,44.103c-10.664,4.175 -21.493,-0.496 -31.496,9.052c-5.952,5.787 -3.72,13.557 -7.895,19.344c-3.058,4.381 -5.332,7.936 -9.713,10.664c-1.777,0.992 -21.452,-0.165 -13.557,0c-2.728,-4.836 -5.001,-9.218 -6.944,-13.227c-2.894,-15.169 0.496,-25.833 7.109,-33.893c24.717,-6.489 50.881,-16.161 61.38,-39.721c2.066,-1.943 4.174,-3.72 6.117,-5.828c10.498,-11.614 20.832,-25.668 29.057,-39.721c7.44,1.446 15.831,-1.447 19.055,-10.499c5.497,-15.996 5.663,-33.108 9.052,-49.393c0.95,-4.216 0.165,-7.936 -1.447,-10.829c3.224,-5.663 7.233,-10.499 12.4,-14.508c0.827,-0.496 1.488,-1.157 2.108,-1.777c6.614,-2.77 14.054,-4.051 20.667,-8.267c1.157,-0.62 1.942,-1.282 2.769,-1.943c0.62,-0.124 1.282,-0.454 1.943,-0.785z" /> <path d="M426.553,369.23c5.166,8.102 5.001,28.603 11.945,31.827c-7.11,9.837 -2.604,10.333 -8.887,11.78c-12.276,-15.17 -32.446,-33.274 -49.393,-45.219c-8.556,-5.952 -21.328,-6.944 -30.215,-11.78c-12.276,-6.283 -21.163,-13.227 -35.671,-17.112c-22.774,-6.283 -6.613,-5.663 -16.781,-22.444c-4.712,-7.894 -21.494,-13.557 -29.223,-17.897c-13.722,-7.936 -19.054,-9.382 -21.493,-24.221c-2.562,-15.335 3.224,-23.436 -11.449,-33.935c-2.769,-1.942 -5.332,-3.72 -7.936,-5.497c-7.895,-11.614 -17.732,-20.956 -31,-26.949c-0.95,-1.282 -1.777,-2.728 -2.893,-4.175c1.116,-1.158 2.108,-2.439 2.893,-3.555c4.05,1.281 8.101,2.728 11.945,4.505c16.823,8.06 27.942,17.773 41.499,30.049c5.828,5.166 15.5,10.333 18.269,18.393c3.059,8.39 -3.1,13.557 4.836,20.997c10.499,9.837 38.275,9.837 51.832,15.5c20.832,8.391 18.559,13.392 30.008,31.331c10.168,15.789 16.327,26.288 36.663,31.62c15.5,3.885 26.164,2.438 35.051,16.781z" /> <path d="M404.109,520.837c4.34,-2.893 19.509,-5.001 16.12,9.548c-2.563,10.83 -32.116,18.228 -40.672,22.279c-20.171,9.342 -23.56,16.162 -32.116,34.555c-9.217,19.385 -24.056,25.337 -41.829,36.332c-27.28,16.781 -31.662,51.997 -61.339,62.785c-27.321,10.003 -25.048,27.156 -45.384,45.219c-15.335,13.557 -36.167,20.667 -52.328,34.224c-0.165,0 -0.165,0 -0.165,0.165c-0.165,-0.165 -0.165,-0.165 -0.165,-0.165c1.488,-1.447 2.769,-2.728 3.885,-4.34c9.052,-11.491 10.498,-23.436 23.725,-33.108c10.334,-7.605 14.715,-6.944 20.047,-18.393c2.397,-5.332 -0.166,-12.276 2.893,-18.269c7.275,-14.674 31.331,-28.107 46.004,-36.663c21.328,-12.4 13.598,-17.732 23.601,-35.34c8.391,-14.674 37.944,-35.506 52.287,-45.219c12.606,-8.391 23.27,-12.896 32.157,-24.056c4.01,-5.001 6.614,-14.219 12.111,-19.22c12.276,-10.953 25.172,-10.622 41.168,-10.333z" /> <path d="M752.219,725.438c-10.83,-12.111 -26.826,-14.219 -40.383,-21.824c-13.061,-7.564 -22.609,-18.393 -30.669,-31c-8.06,-12.441 -12.276,-19.509 -25.833,-26.784c-8.556,-4.546 -9.838,-4.67 -16.327,-10.333c-5.952,-5.167 -11.118,-10.499 -17.897,-14.715c-18.724,-11.78 -16.326,-6.778 -19.881,-28.065c-2.397,-13.888 -8.39,-22.94 -20.997,-28.107c-19.014,-7.895 -35.34,-1.612 -40.507,-22.279c-1.281,-1.281 -7.44,-27.776 13.392,-22.94c6.944,1.447 14.714,19.551 20.501,24.552c10.003,8.886 15.665,8.39 27.156,13.061c17.402,6.944 31.62,18.6 40.507,34.555c8.721,15.666 10.994,32.447 24.717,45.219c13.227,12.276 28.727,21.617 42.119,33.604c5.166,14.177 17.938,24.511 33.769,30.008c1.777,0.496 3.224,0.496 4.505,0.165c5.828,4.05 11.78,7.605 17.443,10.829c9.218,5.332 14.508,9.837 26.619,13.392c5.662,1.777 10.498,4.216 14.549,7.109c0.331,0.62 0.662,1.282 0.951,1.943c2.439,5.787 4.051,11.615 3.555,17.567c-1.446,-0.289 -2.728,-0.785 -4.009,-1.116c-12.276,-13.723 -29.388,-18.228 -48.112,-19.84c-1.943,-1.322 -3.555,-3.224 -5.167,-5.001z" /> <path d="M557.001,464.338c-28.272,16.492 -50.551,43.606 -70.556,69.109c-10.168,-23.891 -33.273,-67.952 -67.001,-67.663c29.223,-18.228 49.063,-47.781 74.896,-67.332c5.332,8.886 11.656,17.277 18.889,25.213c9.548,16.781 25.213,31.331 43.772,40.672z" /></svg>