<svg xmlns="http://www.w3.org/2000/svg" viewBox="0 0 896 1024" width="896" height="1024"><path d="M896,576c0,247.424 -200.576,448 -448,448c-247.424,0 -448,-200.576 -448,-448l64,-576h256l-64,576c0,106.04 85.96,192 192,192c106.04,0 192,-85.96 192,-192l-64,-576h256zM823.982,579.818l-36.09,-324.818h-111.114l34.782,313.05l0.44,3.962v3.988c0,70.518 -27.46,136.814 -77.324,186.676c-49.862,49.864 -116.158,77.324 -186.676,77.324c-70.518,0 -136.814,-27.46 -186.676,-77.324c-49.864,-49.862 -77.324,-116.158 -77.324,-186.676v-3.99l35.224,-317.01h-111.114l-36.092,324.82c0.98,99.006 39.994,191.936 110.11,262.054c71.016,71.014 165.438,110.126 265.872,110.126c100.434,0 194.856,-39.112 265.874,-110.126c70.114,-70.118 109.128,-163.05 110.108,-262.056z" /></svg>