<svg xmlns="http://www.w3.org/2000/svg" viewBox="0 0 1024 1024" width="1024" height="1024"><path d="M1024,512c0,282.77 -229.23,512 -512,512c-282.77,0 -512,-229.23 -512,-512c0,-282.77 229.23,-512 512,-512c282.77,0 512,229.23 512,512zM229.856,261.66l282.144,329.17l282.144,-329.168c-8.14,-3.7 -17.006,-5.662 -26.144,-5.662h-512c-9.138,0 -18.004,1.964 -26.144,5.66zM194.206,720.54l185.598,-185.598l-187.664,-218.942c-0.084,1.328 -0.14,2.66 -0.14,4v384c0,5.654 0.762,11.204 2.206,16.54zM784.54,765.798l-182.116,-182.12l-90.424,105.494l-90.422,-105.498l-182.118,182.118c5.338,1.446 10.886,2.208 16.54,2.208h512c5.654,0 11.2,-0.762 16.54,-2.202zM832,320c0,-1.34 -0.056,-2.672 -0.14,-4l-187.666,218.942l185.6,185.598c1.444,-5.34 2.206,-10.886 2.206,-16.54z" /></svg>