<svg xmlns="http://www.w3.org/2000/svg" viewBox="0 0 1024 1024" width="1024" height="1024"><path d="M1024,170.658v682.656c0,93.876 -76.75,170.686 -170.688,170.686h-682.622c-93.88,0 -170.69,-76.81 -170.69,-170.686v-682.656c0,-93.874 76.81,-170.658 170.69,-170.658h682.62c93.94,0 170.69,76.784 170.69,170.658zM229.856,261.66l282.144,329.17l282.144,-329.168c-8.14,-3.7 -17.006,-5.662 -26.144,-5.662h-512c-9.138,0 -18.004,1.964 -26.144,5.66zM194.206,720.54l185.598,-185.6l-187.664,-218.94c-0.084,1.328 -0.14,2.66 -0.14,4v384c0,5.654 0.762,11.202 2.206,16.54zM784.54,765.796l-182.116,-182.118l-90.424,105.494l-90.422,-105.496l-182.118,182.118c5.338,1.444 10.886,2.206 16.54,2.206h512c5.654,0 11.2,-0.762 16.54,-2.204zM832,320c0,-1.34 -0.056,-2.672 -0.14,-4l-187.664,218.942l185.598,185.598c1.444,-5.34 2.206,-10.886 2.206,-16.54z" /></svg>