<svg xmlns="http://www.w3.org/2000/svg" viewBox="0 0 852 868" width="852" height="868"><path d="M807.55,324.75l44.55,267.3l-224.55,134.75l-9.9,-16.45l0.05,-0.05h-0.05v19.25h-293.35l-230.95,138.6l-70.75,-282.8l-22.2,-333.5l234.8,-139.35h257.95l314.4,-112.05zM499.8,150.9h-254.05l-205.45,121.95l20.4,306.5l57.3,229.15l179.9,-107.95l-19.15,-115.05l37.85,-6.3l18.65,111.95h261l-19,-170.7l38.15,-4.25l18.05,162.25l176.45,-105.85l-40.75,-244.7v-273zM715.3,213.1l-60.8,50.65l41.9,50.3l-29.5,24.6l-41.9,-50.3l-37.7,31.4l-24.6,-29.5l37.7,-31.4l-40.15,-48.2l29.5,-24.6l40.15,48.2l60.8,-50.65zM274.2,198.35v234.65h-38.4v-234.65zM473,241v42.65h-38.4v-42.65zM366.3,283.65v42.7h-38.4v-42.7zM515.65,326.35v42.65h-38.4v-42.65zM635.9,375.05c0,0 -12.025,35.959 -44.1,70.95c-32.075,34.991 -85.998,70.2 -166.15,70.2c-81.188,0 -149.669,10.033 -190.85,35.15c-20.591,12.559 -34.564,28.126 -42.7,49.25c-8.136,21.124 -10.346,48.639 -3.55,84.85l-37.75,7.1c-7.73,-41.188 -5.869,-76.361 5.45,-105.75c11.319,-29.389 32.167,-52.158 58.55,-68.25c52.767,-32.183 126.78,-40.75 210.85,-40.75c69.181,0 111.258,-28.741 137.85,-57.75c26.592,-29.009 35.95,-57.1 35.95,-57.1zM743.55,518.35v42.65h-38.4v-42.65z" /></svg>