<svg xmlns="http://www.w3.org/2000/svg" viewBox="0 0 850 786" width="850" height="786"><path d="M467.65,0.15v38.4h-44.8v132.25h44.8c34.134,0 60.003,5.243 78.7,20.2c18.697,14.957 25.85,38.467 25.85,63c0,20.267 -7.385,37.583 -18.2,49.75c-10.815,12.167 -24.313,19.511 -36.95,24.25c-15.449,5.793 -20.854,4.799 -30.2,5.6v192.65l-64,10.65v229.1h-38.4v-222.65l-64,10.65v-220.4c-9.345,-0.801 -14.75,0.144 -30.2,-5.65c-12.637,-4.739 -26.135,-12.033 -36.95,-24.2c-10.815,-12.167 -18.15,-29.483 -18.15,-49.75c0,-28.267 7.078,-52.708 26.65,-66.8c19.572,-14.092 44.57,-16.4 77.85,-16.4h44.8v-132.25h-44.8v-38.4zM657.55,62v298.65c0,24.308 12.693,58.23 26.05,90.9c11.583,-29.889 20.85,-61.232 20.85,-90.9v-298.65h38.4v298.65c0,50.197 -16.758,98.36 -37.1,139.85c9.824,19.046 19.457,38.194 27.6,51.15c12.408,-9.903 26.671,-18.2 43.65,-18.2c39.831,0 72.55,32.719 72.55,72.55v106.65c0,39.831 -32.719,72.55 -72.55,72.55c-39.831,0 -72.55,-32.718 -72.55,-72.55v-106.65c0,-10.332 7.146,-17.624 11.1,-26.55l-7.85,5.2c-6.851,-10.277 -16.691,-30.402 -25.55,-45.65c-10.08,16.072 -20.928,37.159 -28.8,47l-6.2,-4.95c3.512,8.488 10.4,15.246 10.4,24.95v106.65c0,39.831 -32.719,72.55 -72.55,72.55c-39.831,0 -72.55,-32.718 -72.55,-72.55v-106.65c0,-39.832 32.719,-72.55 72.55,-72.55c17.252,0 31.851,8.308 44.35,18.5c9.02,-12.16 19.946,-31.447 31.05,-51.85c-22.114,-44.831 -41.25,-94.175 -41.25,-139.45v-298.65zM192.4,128.15l-29,145.05h-74.15l-29,-145.05zM120.75,234.8h11.2l13.6,-68.25h-38.45zM284.2,218.4c-7.094,5.108 -10.65,12.667 -10.65,35.6c0,11.733 3.265,18.417 8.45,24.25c5.185,5.833 13.054,10.489 21.75,13.75c8.09,3.034 10.097,2.223 16.7,3.15v-60.35h166.4v60.35c6.608,-0.926 8.648,-0.112 16.75,-3.15c8.697,-3.261 16.515,-7.917 21.7,-13.75c5.185,-5.833 8.5,-12.517 8.5,-24.25c0,-18.132 -3.479,-26.623 -11.45,-33c-7.971,-6.377 -24.834,-11.8 -54.7,-11.8h-128c-30.72,0 -48.356,4.092 -55.45,9.2zM358.85,508.7l89.6,-14.95v-28.55h-44.8v-38.4h44.8v-25.6h-44.8v-38.4h44.8v-25.6h-44.8v-38.4h44.8v-25.6h-89.6zM214.85,298.8l-23.15,93.9c12.175,2.857 25.009,3.811 35.15,12.15c16.172,13.299 25.35,35.321 25.35,62.5v296.5h-251.75v-296.5c0,-27.182 9.225,-49.201 25.4,-62.5c10.129,-8.328 22.941,-9.292 35.1,-12.15l-23.1,-93.9zM107.65,421.65l-22.2,2.05c-16.447,1.527 -28.518,5.265 -35.25,10.8c-6.732,5.535 -11.35,13.223 -11.35,32.85v258.1h174.95v-196.25h-151.45v-38.4h151.45v-23.45c0,-19.626 -4.621,-27.316 -11.35,-32.85c-6.729,-5.534 -18.755,-9.273 -35.2,-10.8l-22.2,-2.05l20.8,-84.45h-79.05zM550.85,606v106.65c0,19.078 15.071,34.15 34.15,34.15c19.079,0 34.15,-15.071 34.15,-34.15v-106.65c0,-19.079 -15.071,-34.15 -34.15,-34.15c-19.079,0 -34.15,15.072 -34.15,34.15zM742.85,606v106.65c0,19.078 15.071,34.15 34.15,34.15c19.079,0 34.15,-15.071 34.15,-34.15v-106.65c0,-19.079 -15.071,-34.15 -34.15,-34.15c-19.079,0 -34.15,15.072 -34.15,34.15z" /></svg>