<svg xmlns="http://www.w3.org/2000/svg" viewBox="0 0 955 960" width="955" height="960"><path d="M654.864,433.694c-0.241,0.482 -0.482,1.044 -0.723,1.606c0,-0.723 -0.079,-1.446 -0.16,-2.088c0.241,0.16 0.561,0.322 0.883,0.482z" /> <path d="M227.837,633.11c1.286,-1.928 2.571,-3.213 4.177,-4.177c-3.051,-3.132 -6.023,-6.264 -9.637,-9.075c-6.425,-5.14 -11.886,-13.253 -15.822,-20.4c-6.104,-11.324 -11.004,-21.765 -18.633,-31.081c-0.322,0.563 -0.482,1.125 -0.723,1.687c-2.57,5.061 -5.783,8.996 -9.316,13.413c-4.819,6.024 -10.842,11.566 -14.938,17.991c-4.016,6.024 -7.55,11.003 -12.208,16.545c-5.301,6.264 -10.923,12.368 -15.661,19.034c-3.293,4.658 -5.542,9.959 -9.156,14.456c-4.498,5.461 -8.353,11.485 -12.931,16.866c-8.514,10.119 -19.356,18.793 -29.957,26.503c-6.104,4.418 -11.325,8.674 -18.472,11.646c-4.498,2.008 -9.076,3.936 -13.573,5.863c2.088,-0.643 4.176,-1.205 6.184,-1.446c9.637,-1.284 19.677,-0.079 29.234,-0.16c2.409,-0.08 4.738,0.963 7.228,0.803c3.052,-0.161 6.586,-1.526 9.718,-2.008c7.068,-1.205 14.055,-1.446 21.123,0c5.782,1.205 8.754,0.723 14.938,0.482c10.843,-0.402 20.641,-0.482 31.162,-3.213c4.819,-1.205 9.718,-1.768 14.697,-1.446c4.658,0.403 8.353,2.009 11.726,4.177c0.563,-0.562 1.045,-1.124 1.446,-1.606c2.008,-2.971 3.534,-6.505 5.381,-9.637c2.812,-4.738 6.505,-7.791 9.959,-11.806c6.264,-7.228 8.673,-15.742 8.513,-24.978c-0.081,-5.06 -0.723,-11.083 -0.081,-16.143c0.482,-4.096 3.293,-8.674 5.622,-12.288zM215.388,543.564c-6.426,2.811 -14.376,6.425 -19.918,11.003c3.935,7.066 7.389,15.5 12.609,21.202c4.337,4.659 11.003,8.433 16.063,12.529c6.747,5.622 14.457,10.762 20.721,16.946c6.184,6.104 13.091,10.762 19.998,16.063c1.767,-4.578 4.658,-8.915 6.907,-13.252c1.687,-3.373 3.935,-7.068 5.943,-10.682c-2.41,-3.533 -4.899,-7.147 -6.666,-10.842c-1.766,-3.534 -4.578,-8.434 -5.702,-11.967c-0.403,-1.525 0.401,-2.65 -0.081,-4.256c-0.883,-2.57 -4.738,-8.433 -6.746,-10.28c-1.687,-1.607 -3.292,-1.768 -4.979,-3.695c-1.927,-2.168 -3.373,-5.301 -4.899,-7.71c-3.695,-5.783 -8.834,-9.638 -12.529,-15.501c-1.125,-1.606 -2.088,-3.213 -3.052,-4.819c-4.899,6.586 -9.076,11.565 -17.669,15.26zM261.807,511.917c-1.525,-1.365 -3.373,-2.811 -4.979,-4.337c-1.043,1.525 -2.087,2.971 -3.292,4.256v0.081c5.06,7.79 10.119,15.5 15.179,23.291c2.49,3.855 4.819,8.354 7.71,11.887c2.089,2.65 4.578,3.935 7.309,6.023c2.81,2.089 5.3,4.659 7.629,7.309c1.205,-2.409 2.49,-4.819 3.695,-7.228c4.578,-9.075 10.923,-16.785 15.34,-25.78c0.562,-1.205 1.285,-2.33 1.927,-3.454c-1.445,-4.176 -3.132,-8.112 -4.899,-12.208c-0.642,-1.525 -1.124,-3.132 -1.606,-4.738c-4.337,3.855 -8.273,8.272 -12.288,12.368c-2.088,2.089 -5.541,7.149 -8.352,8.032c-4.818,1.606 -10.52,-4.176 -14.215,-6.746c-3.374,-2.329 -6.184,-5.863 -9.156,-8.754zM321,565.408c-1.768,5.381 -4.177,10.842 -5.06,16.223c-0.402,2.248 -0.643,4.096 -1.044,5.702c7.308,4.096 14.216,8.673 20.48,14.215c0.321,-0.241 0.722,-0.32 1.044,-0.642c1.446,-1.205 2.65,-2.891 3.614,-4.738c0,-1.365 0,-2.81 0,-4.256c0.081,-0.964 0.16,-2.008 0.241,-2.972c-7.871,-5.782 -12.689,-13.573 -16.143,-23.532c-0.562,-1.285 -0.964,-2.57 -1.365,-3.855c-0.723,1.205 -1.285,2.49 -1.767,3.855zM274.585,653.669c-4.337,-0.081 -8.032,-1.687 -11.565,-3.454c-3.374,2.57 -6.907,4.738 -9.156,6.425c-11.083,8.192 -27.065,16.786 -27.547,32.447c-0.161,5.061 1.766,8.353 2.088,13.172c0.563,6.426 -2.971,9.959 -7.388,14.296c-3.052,2.971 -7.63,6.987 -11.967,7.87c-0.241,0.081 -0.561,0.081 -0.883,0.081c-0.884,3.774 -1.928,7.469 -3.454,11.083c-8.031,-2.892 -16.143,-5.542 -22.889,-4.819c-8.192,0.804 -17.268,3.373 -24.496,8.192c-24.817,-2.57 -48.67,-8.754 -73.246,-13.332c-5.301,-0.964 -9.799,-2.248 -14.778,-1.365c-6.906,1.365 -13.974,-0.081 -21.202,-0.723c-5.221,-0.482 -9.959,-1.043 -14.858,-1.365c-1.205,-0.081 -2.169,-0.081 -3.213,0c0.241,-0.964 0.16,-1.687 0.482,-2.811c0.642,-1.927 1.445,-4.016 2.409,-5.863c2.65,-4.578 6.505,-7.71 10.842,-10.601c8.995,-6.024 17.91,-13.091 27.146,-18.633c4.659,-2.891 5.382,-5.462 9.397,-9.718c4.738,-4.9 9.315,-8.996 13.492,-14.377c7.147,-8.914 13.974,-16.705 22.648,-24.174c4.096,-3.454 7.951,-6.667 11.806,-10.441c3.695,-3.373 4.659,-4.658 7.068,-8.754c2.168,-4.016 1.846,-6.185 1.927,-10.923c0.402,-13.171 4.096,-21.604 11.887,-32.125c4.015,-5.381 6.987,-12.288 9.878,-18.713c5.702,-1.687 11.485,-2.812 17.428,-3.454c6.505,-1.285 14.697,-2.329 20.319,-5.943c9.236,-5.943 16.705,-17.75 25.138,-25.138c3.133,-2.811 7.309,-6.747 11.887,-10.28c0.16,-0.562 0.401,-1.124 0.482,-1.847c0.241,-1.526 -0.403,-3.373 -0.081,-4.899c0.802,-3.212 3.855,-5.139 4.497,-8.352c0.401,-1.928 -0.644,-4.016 -0.322,-5.943c0.241,-1.124 1.526,-5.461 2.168,-6.264c1.927,-2.489 0.32,-1.445 4.015,-1.927c3.935,-0.563 6.264,0.08 9.637,-1.687c2.248,2.409 4.337,3.373 6.184,6.264c0.322,1.045 0.642,2.169 0.964,3.213c0.642,1.446 1.767,2.41 3.132,2.972c1.285,1.768 -0.08,2.812 2.329,3.695c2.65,0.964 4.898,-1.846 7.388,-1.927c2.972,0 5.943,1.607 8.995,1.767c2.249,0.16 4.738,-0.081 6.987,-0.081h10.441c2.409,0 5.22,-0.241 8.111,-0.401c5.622,-4.818 10.521,-10.36 14.858,-16.464c1.687,-2.008 3.534,-3.775 5.461,-5.381c0.161,1.848 0.643,3.534 1.205,5.14c1.767,4.579 3.293,9.157 4.578,13.895c0.723,-0.723 1.285,-1.526 2.008,-2.329c1.285,-1.365 2.731,-2.57 4.096,-3.855c-1.928,-6.987 -1.768,-13.733 -0.081,-20.801c4.257,-2.892 8.594,-5.623 13.091,-8.032c5.221,-0.804 8.755,2.489 13.413,4.497c5.461,2.49 3.855,1.045 7.87,0.322c7.228,-1.124 14.697,2.49 21.042,5.301c1.205,0.482 2.33,0.964 3.454,1.526c-2.811,3.776 -5.622,7.55 -8.433,11.164c-0.321,0.723 -0.802,1.446 -1.124,2.008c-0.241,0.402 -0.482,0.804 -0.723,1.205c-0.161,0.642 -0.321,1.285 -0.562,1.927c-1.446,4.096 -3.212,7.469 -4.979,10.842c0.079,1.285 0.241,2.409 0.16,3.614c0,2.49 -0.803,3.775 -1.285,6.104c-2.73,12.851 -5.059,25.459 -4.417,38.631c0.079,0.883 0.16,1.927 0.16,2.891c0.643,2.008 1.446,4.096 2.49,6.023c1.205,2.088 2.891,3.533 4.497,5.22c-2.49,2.41 -4.819,4.9 -7.068,7.55c0.723,1.124 1.446,2.249 2.008,3.855c1.044,3.051 0.803,11.243 0.241,14.456c-0.804,4.577 -2.891,9.637 -4.578,13.974c-2.41,6.264 -6.184,10.36 -9.798,15.661c-2.41,3.453 -3.052,6.906 -5.943,9.878c-4.658,4.659 -5.14,2.169 -10.2,1.446c-4.578,-0.642 -9.156,0.723 -13.814,-0.401c-4.256,-0.964 -6.987,-1.445 -11.565,-1.526c-5.944,-0.161 -10.281,-2.41 -13.654,-5.943c-0.401,0.401 -0.964,0.723 -1.365,1.124c-0.803,0.803 -1.606,1.606 -2.409,2.409c-2.409,-1.205 -5.22,-1.606 -7.71,-3.132c-0.321,-0.241 -0.561,-0.482 -0.883,-0.642c-0.642,2.49 -1.043,5.06 -0.883,7.309c0.161,2.811 0.723,5.622 1.285,8.513c-6.104,10.602 -11.645,21.042 -24.576,20.882z" /> <path d="M22.793,367.358c2.088,0.562 4.096,1.285 5.943,2.168c8.834,4.257 16.544,10.602 24.576,15.822c2.088,1.286 3.454,3.293 5.542,4.578c2.73,1.606 6.425,2.329 9.316,3.614c6.586,2.972 12.61,6.505 17.75,11.565c4.176,4.176 6.827,5.38 12.208,8.593c9.317,5.543 17.589,10.763 27.869,14.377c4.658,1.606 9.155,3.694 13.091,6.746c9.397,7.148 9.237,17.99 15.26,27.226c5.461,8.353 11.405,16.144 17.428,23.773c1.124,-1.125 2.329,-2.33 3.373,-3.454c4.658,-4.659 10.682,-7.791 15.099,-12.931c2.329,-2.65 4.176,-5.541 6.666,-8.111c3.052,-3.051 6.426,-5.702 9.718,-8.593c-4.176,-7.951 -7.388,-16.384 -10.842,-24.656c-1.525,-3.935 -3.614,-7.79 -4.497,-11.726c-1.606,-6.906 -2.409,-13.653 -4.658,-20.56c-2.57,-7.791 -2.73,-17.59 -2.088,-25.701c1.043,-13.252 2.73,-25.058 1.124,-37.507c-2.971,0.884 -5.863,1.767 -8.513,2.972c-6.666,2.81 -12.288,5.059 -19.275,7.147c-7.791,2.328 -15.823,4.416 -23.452,7.388c-5.381,2.089 -10.119,5.381 -15.661,7.068c-6.746,2.249 -13.091,5.14 -19.998,7.228c-12.609,3.774 -26.503,5.14 -39.594,5.782c-7.631,0.401 -14.217,1.124 -21.846,-0.241c-4.819,-0.883 -9.718,-1.687 -14.537,-2.57zM176.037,151.23c1.124,2.972 3.454,5.863 4.819,8.674c3.132,6.505 5.462,13.091 6.104,20.319c0.563,5.864 1.847,8.595 3.855,14.377c3.614,10.279 6.505,19.596 12.127,28.912c2.57,4.257 4.497,8.754 5.702,13.573c2.57,11.565 -4.578,19.838 -5.863,30.68c-0.964,8.674 -1.526,17.107 -1.767,25.62c0.723,-0.401 1.446,-0.964 2.088,-1.365c3.454,-2.088 8.032,-4.498 12.047,-5.14c6.585,-1.125 14.135,-1.928 20.721,-2.49c6.666,-0.563 13.332,0.883 19.918,-0.241c3.533,-0.562 6.827,-1.605 10.36,-1.927c5.942,-0.482 11.886,-0.079 17.829,-0.401c1.606,-5.221 3.292,-10.361 4.979,-15.501c1.285,-4.016 2.249,-8.272 4.096,-11.967c3.132,-6.265 6.907,-11.887 9.557,-18.633c3.051,-7.629 9.156,-15.26 14.938,-21.042c5.622,-5.782 11.084,-10.922 16.063,-16.464c-3.534,-0.964 -6.988,-2.168 -10.521,-3.614c-7.228,-2.73 -14.215,-6.907 -21.524,-9.075c-6.907,-2.088 -12.77,-3.935 -19.436,-6.907c-7.469,-3.293 -14.938,-6.827 -22.648,-9.477c-5.462,-1.766 -11.244,-2.329 -16.545,-4.497c-6.505,-2.65 -13.332,-4.577 -19.918,-7.388c-12.127,-5.22 -23.612,-13.171 -34.133,-20.962c-6.024,-4.659 -11.566,-8.353 -16.545,-14.296c-3.133,-3.774 -6.265,-7.55 -9.397,-11.324c1.205,1.766 2.249,3.614 3.132,5.461c4.016,8.915 5.783,18.874 8.674,27.949c0.723,2.328 0.482,4.818 1.285,7.147zM347.984,200.302c-2.812,2.811 -5.462,5.783 -7.309,8.915c-3.292,5.541 -4.898,13.011 -7.388,18.954c-3.373,8.112 -6.023,16.947 -10.119,24.817c-1.928,3.695 -3.614,7.469 -5.06,11.324c6.184,-0.642 12.85,1.607 19.034,2.731c7.148,1.204 15.26,3.934 22.488,4.015c1.044,0 1.848,-0.24 2.731,-0.562c0,-0.16 0,-0.322 0,-0.482c0,-3.132 0.723,-7.228 -0.401,-10.119c-1.286,-3.454 -4.819,-6.265 -7.309,-8.674c-2.891,-2.892 -14.617,-9.075 -11.565,-12.529c1.365,-1.607 3.293,-0.723 5.06,-1.526c2.088,-0.883 3.534,-3.132 4.899,-4.738c1.767,-2.088 3.775,-4.417 4.819,-6.987c2.329,-6.023 2.651,-12.449 2.57,-18.954c-2.008,-1.767 -4.096,-3.453 -6.264,-4.658c-1.847,-1.044 -4.016,-1.366 -6.184,-1.526zM390.792,299.008c-0.562,0.079 -1.044,0.241 -1.606,0.401c0.642,0.964 1.124,1.847 1.847,2.811c-5.061,6.906 -11.807,14.215 -13.413,21.684c-1.044,4.9 -2.329,9.719 -3.855,14.377c0.402,-0.079 0.803,-0.079 1.285,-0.16c3.454,-6.426 8.594,-11.726 15.26,-16.545c2.651,-1.928 5.542,-3.935 8.433,-5.943c1.285,-2.97 3.052,-5.541 5.14,-7.147c4.418,-3.454 15.742,-3.615 15.019,-11.726c-3.373,-0.241 -5.139,-2.249 -8.834,-2.409c-2.65,-0.162 -6.746,-0.804 -9.236,-0.081c-3.373,0.964 -6.344,3.614 -10.039,4.738zM363.566,379.641c0.079,-0.079 0.079,-0.079 0.16,-0.16c-0.079,0 -0.079,0.081 -0.16,0.081v0.081zM326.541,408.315c2.329,-5.703 4.337,-11.566 10.762,-15.581c-0.723,0.081 -1.365,0 -2.088,0.241c-4.176,2.971 -8.193,6.184 -11.967,9.557c0.241,-2.811 0.803,-5.862 1.526,-8.834c0.562,-2.249 1.125,-4.578 1.767,-6.907c-1.445,0.482 -2.971,0.964 -4.417,1.526c-3.856,1.526 -7.871,2.49 -11.485,4.096c0.402,6.425 0.321,13.493 1.767,19.436c-1.686,1.766 -3.292,3.775 -4.738,5.943c-0.642,1.124 -1.285,2.248 -1.927,3.292c2.651,0.804 5.22,1.205 6.907,1.205c8.996,-0.16 10.923,-6.424 13.895,-13.974zM349.193,306.879c1.767,-3.293 1.847,-6.184 3.373,-8.995c-2.971,-1.687 -5.621,-2.972 -9.557,-2.731c-4.177,0.321 -9.799,0 -13.654,1.606c-6.506,2.49 -12.69,6.746 -18.874,9.878c-2.169,1.044 -4.418,1.847 -6.586,2.65c0.081,3.694 0.322,7.47 0.322,11.003v27.708c0,4.659 -0.643,9.718 -0.081,14.296c0.081,0.642 0.322,1.205 0.482,1.847c4.578,-2.008 9.076,-4.016 13.332,-6.586c6.586,-4.015 13.573,-7.228 20.801,-10.119c0.482,-2.57 0.964,-5.06 1.365,-7.71c0.723,-4.257 2.33,-8.432 3.213,-12.609c0.642,-2.811 0.16,-5.783 0.883,-8.674c1.205,-4.418 3.052,-7.629 4.979,-11.565zM274.821,380.126c2.33,-1.365 4.739,-2.65 7.068,-4.096c0.079,-0.16 0.16,-0.32 0.16,-0.401c0.723,-2.731 0.723,-9.718 0,-12.288c-0.482,-2.33 -1.766,-3.373 -2.088,-5.863c-0.401,-2.892 0.081,-6.265 0.081,-9.156c0.08,-6.826 -2.169,-12.93 -2.088,-19.837c0.081,-5.863 0.322,-11.485 0.723,-17.107c-9.075,3.454 -15.661,6.104 -26.021,4.337c-7.55,-1.285 -17.268,-2.891 -24.737,-1.526c-5.06,1.044 -8.755,5.622 -13.252,8.272c-4.899,2.73 -9.718,4.417 -15.099,6.184c-0.722,7.469 -2.008,15.5 -0.803,22.407c1.044,6.264 4.658,13.091 6.505,19.195c2.65,8.512 6.345,16.946 8.192,25.539c1.847,8.593 5.059,16.384 8.111,24.656c2.73,-8.755 12.369,-12.047 19.998,-16.384c6.184,-3.695 14.215,-6.746 19.757,-11.324c2.569,-2.169 2.329,-4.98 4.256,-7.068c2.089,-2.329 6.586,-4.016 9.236,-5.542zM43.27,396.599c-3.936,-3.775 -6.988,-7.309 -11.646,-9.236c-6.585,-2.731 -11.645,-7.71 -17.347,-12.288c-4.096,-3.213 -7.791,-6.184 -11.646,-9.236c-1.044,-0.723 -1.848,-1.285 -2.731,-1.767c0.723,-0.562 0.964,-1.366 1.847,-2.008c1.606,-1.285 3.454,-2.65 5.301,-3.614c4.739,-2.41 9.558,-2.971 14.778,-3.052c10.922,-0.081 22.247,-1.124 33.009,-0.723c5.382,0.16 7.55,-1.607 13.252,-2.972c6.506,-1.606 12.61,-2.49 19.115,-4.658c10.763,-3.614 20.802,-6.505 32.046,-7.951c5.461,-0.723 10.36,-1.285 15.661,-2.249c4.899,-0.883 6.506,-1.365 10.762,-3.614c4.017,-2.089 4.9,-4.096 7.55,-8.032c6.906,-9.879 14.055,-14.939 24.656,-19.195c-1.606,-3.936 -2.73,-8.111 -2.168,-12.288c0.723,-5.622 1.606,-11.245 2.088,-17.027c0.081,-2.008 0,-3.534 -0.241,-5.622c-0.322,-2.008 0,-4.658 -0.322,-6.345c-0.883,-5.462 -3.453,-11.566 -5.22,-17.509c-2.168,-6.827 -1.124,-14.938 -2.65,-22.006c-5.702,-26.103 -6.505,-52.446 -9.557,-78.949c-0.563,-5.381 -0.643,-10.12 -2.972,-14.617c-3.293,-6.184 -4.015,-13.333 -5.461,-20.48c-1.044,-5.06 -1.928,-9.798 -3.052,-14.617c-0.16,-1.125 -0.561,-2.088 -0.883,-3.052c0.884,0 1.607,-0.403 2.731,-0.322c2.089,0 4.337,0.241 6.345,0.642c5.221,1.124 9.236,3.855 13.332,7.147c8.352,6.987 17.748,13.332 25.78,20.641c4.016,3.614 6.827,3.614 11.967,6.184c6.023,3.052 11.324,6.264 17.669,8.754c10.601,4.177 20.078,8.433 29.635,14.537c4.658,2.891 8.754,5.702 13.492,8.352c4.337,2.409 5.783,3.052 10.521,4.096c4.417,0.963 6.425,0 11.003,-1.205c12.689,-3.534 21.765,-2.41 34.053,1.927c7.951,2.891 17.188,3.373 25.46,4.658c0.402,0.081 0.964,0.241 1.446,0.241c0.723,-1.847 1.446,-3.695 2.008,-5.542c1.365,-4.82 3.213,-9.718 6.987,-13.172c1.366,-1.284 2.812,-2.489 4.177,-3.774c2.49,4.015 4.98,7.951 7.309,11.806c2.49,4.257 3.936,8.112 4.337,12.127c-2.008,2.249 -4.016,4.658 -6.104,6.907c1.847,1.205 3.694,2.329 5.461,3.614c-0.081,0.241 -0.16,0.482 -0.241,0.723c5.863,2.811 10.682,6.184 11.967,13.091c1.045,5.541 -1.285,12.368 -2.65,17.428c-0.963,3.453 -2.65,7.147 -3.292,10.119c-1.124,4.819 -0.802,5.3 -4.738,8.352c-3.775,3.052 -9.236,7.871 -6.827,12.77c1.767,3.533 4.176,6.264 5.782,10.119c1.446,3.695 0.482,8.111 2.57,11.324c2.249,3.453 8.432,3.453 12.127,4.738c3.776,1.285 7.149,1.928 10.923,2.731c8.433,1.767 16.465,2.409 24.817,5.14c2.972,1.043 11.084,1.927 12.208,4.256c0.964,2.168 -3.614,11.083 -4.256,13.492c-1.928,6.746 -5.06,14.296 -8.032,21.042c-2.49,5.381 -6.104,9.558 -10.441,12.208c6.184,5.944 12.529,11.727 18.552,17.991c9.878,10.119 3.774,6.024 8.111,14.296c0,0.081 0,0.241 0.16,0.322c-1.927,0.562 -3.855,1.204 -5.863,1.927c-5.703,2.007 -11.325,4.096 -17.027,6.184c-4.338,1.607 -8.916,3.454 -13.654,5.381c-6.023,4.257 -11.083,10.2 -16.223,15.34c-1.848,1.767 -3.614,4.015 -5.381,6.264c0,0.16 -0.16,0.32 -0.241,0.401c-0.401,0.803 -0.883,1.606 -1.365,2.329c-1.124,-0.482 -2.328,-0.804 -3.533,-1.205c-6.666,-1.927 -14.537,-4.658 -21.524,-2.65c-3.934,1.124 -2.168,2.409 -7.87,0.642c-0.16,-0.079 -0.241,-0.079 -0.401,-0.16c-2.65,3.052 -6.023,5.702 -7.629,9.316c-2.811,6.104 0.803,13.172 -0.964,19.356c-2.009,6.826 -9.558,2.329 -14.377,4.256c-8.593,3.454 -4.337,11.486 -6.425,17.75c-2.891,-0.321 -2.57,-3.614 -4.899,-4.658c-4.578,-2.008 -15.501,8.112 -19.597,10.762c-6.104,3.936 -11.405,0.482 -11.806,-7.388c-0.241,-5.541 -0.079,-11.163 0.081,-16.705c-0.562,-2.088 -1.044,-4.176 -1.526,-6.505c-0.562,-2.249 -1.445,-3.935 -2.168,-5.622c-0.563,0.079 -1.045,0.241 -1.687,0.401c-5.381,1.525 -9.477,1.205 -13.573,5.22c-3.052,2.81 -7.469,6.183 -9.477,9.878c-3.292,5.943 -5.22,13.011 -7.87,19.115c-0.562,0 -1.044,0.081 -1.526,0.081c-3.293,-0.241 -6.586,-0.241 -9.959,0.16c-8.754,3.052 -17.99,14.537 -23.532,20.721c-7.469,8.432 -13.492,21.042 -21.925,28.029c-5.14,4.256 -13.172,6.344 -19.436,8.352c-5.783,1.365 -11.405,3.133 -16.866,5.542c0.402,-1.526 0.884,-3.052 1.446,-4.417c0.402,-1.204 0.964,-2.65 1.526,-4.015c-2.49,-1.606 -4.658,-3.533 -6.345,-6.023c-3.052,-4.82 -5.943,-9.719 -9.316,-14.377c-1.204,-1.607 -2.248,-2.731 -3.774,-4.177c-1.445,-1.366 -2.971,-3.534 -4.256,-4.658c-4.257,-3.614 -10.039,-6.666 -15.34,-10.039c-6.024,-3.855 -10.361,-10.762 -16.063,-15.179c-21.122,-16.384 -38.791,-35.981 -58.147,-54.292z" /> <path d="M852.677,502.361c8.995,-7.63 19.837,-13.814 30.278,-19.115c-6.827,0.964 -13.814,1.365 -20.319,3.373c-4.256,1.365 -7.791,3.775 -12.047,4.578c-6.103,1.124 -11.645,4.016 -17.347,6.666c-6.345,2.891 -15.019,1.445 -21.846,1.526c-5.221,0 -10.361,0.16 -15.501,-0.241c-2.49,-0.241 -5.863,-1.607 -8.192,-1.526c-1.366,0.08 -3.373,1.445 -5.14,1.767c-7.63,1.204 -15.5,1.927 -23.291,1.927c-0.642,0 -1.205,0 -1.847,0c0.241,0.883 0.642,1.767 0.883,2.57c4.097,13.171 6.908,25.218 13.895,36.382c4.016,-3.212 8.272,-6.424 11.726,-10.119c4.498,-5.059 8.513,-9.075 13.814,-13.492c5.782,-4.899 11.966,-9.718 17.347,-15.179c3.855,-3.855 18.954,18.231 23.05,14.617c4.98,-4.417 9.397,-9.316 14.537,-13.733zM809.952,646.846c-6.185,-9.155 -28.833,-36.141 -31.483,-46.18c-1.606,-6.023 -3.453,-11.886 -5.461,-17.588c-1.365,1.527 -2.891,2.892 -4.417,3.936c-5.221,3.373 -11.325,6.987 -16.786,9.959c-5.381,2.891 -11.566,4.015 -16.786,7.469c-2.81,1.847 -5.22,3.936 -8.111,5.542c-3.132,1.767 -6.505,3.132 -9.718,4.578c1.124,9.557 11.244,31.965 12.288,41.522c-0.241,9.557 -2.651,18.392 -1.446,28.431c0.16,0.963 15.983,6.424 15.661,7.388c-3.775,13.011 -34.615,6.827 -38.551,17.669c6.103,0.16 38.068,17.91 43.931,17.187c6.585,-0.804 12.127,-1.205 18.793,-1.205c7.549,0.079 15.099,0.561 22.568,-0.081c5.301,-0.401 10.36,-2.088 15.661,-2.088c6.505,-0.08 12.93,-0.884 19.516,-0.803c12.047,0 24.575,2.73 36.221,5.782c6.746,1.767 12.77,3.052 19.034,6.425c4.016,2.088 7.952,4.257 11.967,6.425c-1.687,-1.125 -3.213,-2.33 -4.578,-3.695c-6.506,-6.264 -11.485,-14.296 -17.107,-21.283c-1.446,-1.767 -2.088,-4.095 -3.614,-5.782c-1.927,-2.248 -4.898,-3.935 -7.147,-5.943c-4.82,-4.498 -9.076,-9.477 -12.208,-15.581c-2.49,-4.98 -4.498,-6.827 -8.272,-11.244c-6.667,-7.71 -12.368,-14.858 -20.4,-20.962c-3.614,-2.81 -6.907,-6.023 -9.557,-9.878zM697.833,559.142c2.329,5.944 6.265,10.522 8.674,16.545c1.205,3.293 2.329,6.425 3.373,9.557c4.819,-4.498 9.237,-7.871 16.866,-9.718c6.826,-1.686 15.58,-3.855 21.443,-7.87c4.016,-2.73 5.542,-8.191 8.433,-12.127c1.445,-2.007 3.052,-3.694 4.658,-5.461c-2.65,-7.629 -4.337,-17.347 -8.352,-24.174c-3.132,-5.221 -8.593,-9.879 -12.288,-14.537c-2.731,-3.454 -5.702,-6.827 -8.674,-10.2c-4.9,-0.16 -9.799,-0.08 -14.537,0.964c-4.739,1.125 -11.083,3.454 -15.26,6.345c-1.284,0.883 -3.373,3.373 -4.979,2.891c-0.563,-0.16 -1.045,-0.642 -1.446,-1.124c-1.526,2.008 -2.972,4.096 -4.096,6.264c-1.365,2.812 -0.321,5.301 -1.124,7.791c-0.643,1.847 -2.169,3.775 -3.695,5.542c0.162,0.723 0.241,1.366 0.322,2.008c0.161,1.525 -0.803,2.409 -0.562,4.015c0.32,2.57 2.73,8.674 4.256,10.762c1.285,1.847 2.65,2.249 3.855,4.337c1.365,2.41 2.168,5.542 3.132,8.192zM694.858,703.951c0.884,-6.024 -0.401,-13.252 -0.401,-19.356c0.081,-8.433 -0.803,-17.187 0,-25.62c0.643,-6.506 0.322,-12.931 0.081,-19.356c-4.819,7.951 -14.456,8.192 -22.648,10.039c-6.345,1.606 -14.296,2.169 -20.4,4.819c-2.811,1.125 -3.453,3.775 -5.702,5.14c-0.642,0.562 -1.606,0.883 -2.65,1.124c-1.205,2.569 -2.892,8.192 -3.052,10.601c-0.241,2.169 0.642,3.534 0.241,5.943c-0.482,2.73 -1.767,5.621 -2.65,8.352c-1.846,5.622 -1.846,11.245 -3.292,17.027c5.863,-0.162 11.003,0.401 17.428,3.774c6.185,3.292 14.296,7.549 21.123,8.352c4.818,0.482 9.316,-2.65 13.974,-3.774c2.169,-0.562 4.337,-0.884 6.586,-1.044c0.562,-2.008 1.043,-4.015 1.365,-6.023zM668.114,778.881c5.14,-11.806 8.995,-23.692 12.931,-35.579c-1.525,0.081 -3.051,0.16 -4.497,0c-6.024,-0.883 -12.931,-2.168 -18.874,-3.614c-5.942,-1.285 -11.324,-4.498 -17.347,-5.381c-3.292,-0.482 -6.424,-0.401 -9.637,-1.124c-2.409,-0.562 -4.738,-1.285 -6.987,-2.008l-0.16,0.401c-4.497,9.396 -10.682,17.749 -16.464,26.262c-2.249,3.293 -4.257,6.907 -6.827,9.718c-4.577,4.9 -9.477,8.996 -13.733,14.377c-4.659,6.104 -12.208,11.324 -18.874,15.019c-8.915,4.98 -17.268,9.076 -24.978,14.778c5.381,4.578 10.441,10.281 16.223,14.296c5.462,3.775 9.959,7.148 15.019,11.726c5.622,5.06 12.369,17.428 18.392,22.006c4.337,3.212 9.156,5.301 13.252,8.834c4.98,4.257 10.361,7.951 15.34,12.368c9.155,8.192 16.946,18.633 23.933,28.833c4.016,5.782 7.79,10.761 10.521,17.588c1.686,4.337 3.373,8.674 5.14,13.011c-0.563,-2.007 -1.045,-3.935 -1.205,-5.943c-1.125,-9.236 0.079,-18.794 0.16,-27.869c0,-2.33 0.884,-4.578 0.803,-6.827c-0.081,-2.972 -1.365,-6.345 -1.687,-9.397c-1.044,-6.746 -1.124,-13.413 0.241,-20.159c1.204,-5.541 0.802,-8.352 0.642,-14.215c-0.241,-10.441 -1.445,-26.745 -3.774,-36.864c-0.964,-4.577 -1.606,-9.236 -1.205,-13.974c0.964,-11.243 9.477,-16.785 13.654,-26.262zM532.547,804.023c4.739,-2.57 9.639,-5.22 13.413,-8.674c4.418,-4.096 7.872,-10.521 11.646,-15.179c4.899,-6.023 9.397,-12.77 14.617,-18.472c6.184,-6.665 11.404,-14.215 16.946,-21.443c3.454,-4.338 7.79,-7.55 10.842,-11.967c-1.928,0.402 -3.855,0.884 -5.461,1.526c-3.695,1.446 -3.213,2.972 -5.542,4.096c-9.075,4.096 -16.946,-2.73 -24.656,-6.907c-5.863,-3.132 -12.288,-7.951 -18.472,-9.959c-0.402,-0.16 -0.722,-0.16 -1.044,-0.16c-3.052,2.087 -6.184,4.256 -9.397,5.782c-0.241,0.161 -0.642,0.402 -0.964,0.562c-4.417,7.63 -14.296,12.609 -19.998,19.195c-5.14,5.782 -8.112,11.806 -10.039,18.793c-1.205,4.498 -2.972,8.754 -3.855,13.332c-0.804,3.855 -0.161,11.645 2.168,15.099c1.366,2.008 3.775,2.088 5.381,3.855c1.365,1.605 1.526,4.095 2.891,5.782c1.043,1.284 2.409,2.328 3.774,3.292c-0.241,-2.731 -0.562,-5.301 -0.803,-7.55c-0.241,-1.365 -0.401,-2.731 -0.482,-4.096c1.205,1.928 2.49,3.775 3.855,5.301c3.374,3.614 8.754,4.257 12.931,6.425c0.723,0.482 1.446,0.883 2.249,1.365zM499.216,757.037c-1.125,1.366 -2.089,2.651 -2.972,4.177c-1.526,2.891 -1.846,5.38 -1.927,8.352c2.088,-4.016 3.775,-8.192 4.899,-12.529zM534.314,684.273c-2.41,2.008 -8.112,6.827 -13.172,11.083c0.322,6.103 -0.24,12.046 -3.292,17.347v0.081c2.409,-3.293 5.139,-6.184 7.87,-9.075l8.192,-17.027c0.079,-0.803 0.241,-1.606 0.401,-2.409zM534.554,682.986c0.803,-4.015 0.803,-7.71 0.241,-11.324c-0.079,0 -0.079,0 -0.16,0c-2.249,1.044 -4.578,2.088 -7.068,3.052c-2.169,0.723 -4.498,1.526 -6.827,2.249c1.527,1.205 3.133,2.169 5.06,2.811c2.891,0.964 5.863,2.169 8.754,3.213zM564.43,695.438c-0.482,0.803 -1.044,1.526 -1.526,2.249c1.205,0.884 2.49,1.607 4.177,2.008c3.694,0.884 8.513,2.731 12.368,2.49c6.264,-0.563 12.93,-2.731 19.275,-3.695c4.017,-0.723 8.032,-1.044 11.887,-0.241c2.008,-6.425 3.855,-12.85 5.863,-19.195c1.365,-4.257 3.212,-8.674 4.015,-13.011c0.081,-0.081 0.081,-0.16 0.081,-0.241c-0.401,0.081 -0.802,0.241 -1.124,0.322c-9.156,2.168 -18.392,2.168 -27.307,4.417c-5.301,1.365 -10.762,2.169 -16.304,2.811c-0.642,1.365 -1.365,2.57 -1.927,3.855c-1.928,3.694 -4.418,6.987 -6.345,10.601c-1.285,2.409 -1.686,5.3 -3.132,7.629zM602.339,632.231c-1.687,2.891 -3.534,6.023 -5.461,9.075l13.091,-0.642c0.321,0 0.722,-0.16 1.044,-0.241c4.016,-1.847 8.514,-3.213 12.529,-5.06c1.927,-7.309 4.497,-15.26 3.292,-21.846c-0.804,-4.579 -1.446,-9.157 -1.687,-13.895c-4.819,3.775 -10.119,6.666 -15.42,9.477c-0.16,8.031 -2.81,15.501 -7.388,23.13zM635.509,506.137c6.987,7.067 10.28,15.661 11.806,26.262c0.241,1.526 0.401,3.052 0.642,4.658c1.847,-1.848 3.534,-3.775 4.819,-6.104c0.642,-1.124 1.204,-2.249 1.927,-3.373c-2.73,-6.104 -5.461,-12.449 -9.798,-16.063c-3.052,-2.569 -5.943,-5.3 -8.754,-8.111c0,0.402 -0.081,0.804 -0.241,1.205c-0.079,0.482 -0.32,1.044 -0.401,1.526zM669.966,552.074c-4.82,5.461 -9.959,10.441 -14.136,16.384c-1.527,2.089 -3.132,4.096 -4.819,6.104c0.642,3.695 1.365,7.39 2.168,11.164c0.883,4.016 0.883,8.192 1.606,12.288c0.562,2.65 2.007,5.14 2.329,7.951c0.562,4.256 0.081,7.791 -0.241,12.047c-0.322,3.453 0.642,6.023 0.401,9.075c3.373,-1.767 8.192,-3.614 10.923,-6.425c4.577,-4.578 8.353,-10.682 12.609,-15.661c2.49,-2.971 5.14,-5.621 8.272,-7.629c-0.643,-1.606 -1.366,-3.132 -2.008,-4.658c-3.212,-8.192 -6.505,-16.304 -9.637,-24.415c-1.607,-4.016 -2.891,-8.754 -4.899,-12.609c-0.723,-1.446 -1.687,-2.57 -2.57,-3.614zM924.557,462.76c3.052,0.964 6.104,1.848 9.156,2.731c1.044,0.241 2.008,0.401 2.891,0.482c-0.321,0.884 -0.401,1.607 -0.883,2.49c-0.883,1.767 -2.008,3.614 -3.132,5.14c-3.213,3.934 -7.148,6.103 -11.565,8.111c-9.236,4.177 -18.392,9.236 -27.708,12.931c-4.739,1.847 -5.863,4.256 -10.2,7.469c-6.826,5.381 -13.573,9.076 -19.837,16.786c-1.043,1.204 -2.248,2.409 -3.533,3.292c-11.485,7.952 -19.597,11.968 -28.19,17.75c-3.855,2.65 -17.267,-22.97 -20.078,-19.516c-2.73,3.373 -2.81,5.461 -3.774,9.878c-2.489,12.368 -7.309,19.597 -16.143,28.11c-0.883,0.804 -1.606,1.848 -2.409,2.731c1.445,1.928 2.73,4.177 3.292,6.586c1.366,5.301 2.571,10.602 4.177,15.822c0.562,1.767 1.204,3.132 2.168,4.819c0.884,1.687 1.607,4.096 2.49,5.542c2.65,4.418 6.906,8.835 10.601,13.413c4.177,5.22 31.805,29.796 35.579,35.498c13.895,20.881 23.773,43.771 35.66,65.937c2.41,4.498 4.017,8.674 7.55,11.726c4.979,4.337 8.032,10.361 11.806,16.143c2.65,4.017 4.979,7.791 7.629,11.646c0.642,0.963 1.205,1.686 1.847,2.409c-0.723,0.241 -1.285,0.884 -2.249,1.285c-1.686,0.723 -3.695,1.445 -5.622,1.767c-4.738,0.883 -9.155,0 -13.733,-1.446c-9.477,-2.971 -19.677,-5.139 -29.074,-8.593c-4.658,-1.606 -6.987,-0.642 -12.368,-0.964c-6.104,-0.402 -11.727,-1.286 -17.991,-1.205c-10.441,0.401 -19.998,0 -30.278,-1.767c-4.899,-0.883 -9.397,-1.767 -14.296,-2.329c-4.578,-0.562 -6.104,-0.642 -10.36,0.241c-4.096,0.803 -5.461,2.329 -8.915,5.22c-9.558,7.71 -43.37,-6.987 -55.417,-6.264c-3.775,0.241 -7.63,1.044 -11.485,2.088c-0.161,6.104 -0.08,12.128 1.847,17.268c-3.292,8.512 -8.111,16.705 -10.842,25.78c0.081,2.008 -1.365,5.06 -1.606,7.068c-0.723,5.14 -0.241,11.485 -0.241,17.428c-0.079,6.908 -3.212,13.895 -3.774,20.882c-2.41,25.379 -7.711,56.701 -12.449,81.679c-0.964,5.061 -2.249,9.478 -1.446,14.136c1.124,6.586 -0.321,13.251 -1.044,20.319c-0.401,4.82 -0.964,9.398 -1.365,14.136c-0.08,1.043 -1.366,-4.9 -1.285,-3.936c-0.803,-0.322 -0.321,6.827 -1.285,6.505c-1.768,-0.562 -3.695,-1.365 -5.301,-2.409c-4.256,-2.489 -7.067,-6.103 -9.637,-10.28c-5.381,-8.674 -11.807,-17.187 -16.786,-26.021c-2.57,-4.497 -4.98,-5.301 -8.754,-9.075c-4.418,-4.498 -8.112,-8.915 -13.011,-13.011c-8.192,-6.747 -15.259,-13.333 -21.925,-21.605c-3.132,-3.936 -6.023,-7.631 -9.477,-11.405c-3.053,-3.453 -4.177,-4.498 -8.032,-6.666c-3.614,-2.168 -6.827,-8.834 -11.164,-9.075c-12.047,-0.322 -19.758,-3.936 -29.315,-11.405c-2.972,-2.328 -6.426,-4.256 -9.959,-6.023c0.481,-0.642 0.883,-1.204 -0.322,-0.16l-6.586,-4.658c-0.079,-2.41 -0.241,-5.22 -0.401,-8.192c-0.079,0 -0.241,0 -0.401,0c-6.586,0.08 -6.747,-0.884 -11.244,-5.622c-2.891,-3.132 -6.665,-5.381 -9.637,-8.433c-1.205,-1.285 -3.534,-4.256 -4.578,-5.782c-1.687,-2.409 -1.526,-2.168 -2.088,-5.381c-1.285,-6.988 -2.812,-9.478 0.642,-15.26c1.928,-3.213 3.855,-6.426 5.542,-9.718c-0.16,-6.586 -0.723,-13.493 0.241,-19.918c0.723,-4.899 1.686,-9.075 1.767,-13.974c0.16,-8.273 4.256,-15.501 4.096,-23.452c0,-2.891 -0.401,-6.264 0.241,-8.995c0.562,-2.409 1.766,-3.212 1.847,-6.264c0.161,-5.3 3.855,-12.609 1.044,-17.347c-3.534,-5.943 -23.854,-17.267 -9.959,-22.407c5.783,-2.169 9.718,-2.811 14.858,-6.666c3.454,-2.65 6.345,-5.943 10.2,-7.951c1.044,-0.482 2.088,-0.883 3.132,-1.365l7.147,-17.669l10.2,-0.482c0.081,-0.079 0.16,-0.079 0.241,-0.16c10.763,-5.782 -0.883,-7.871 8.032,-16.464c4.177,-3.856 8.273,-7.79 12.288,-11.726c5.381,-5.14 10.763,-11.164 16.545,-16.545c0.482,-1.365 1.125,-2.329 1.767,-3.855c2.891,-7.149 5.541,-14.296 7.629,-21.605c0,-0.642 -0.079,-1.365 -0.16,-2.168c-0.563,-5.059 -2.731,-9.236 -3.454,-14.215c-0.481,-2.971 -0.722,-5.622 -0.803,-8.272c0,-0.081 -0.081,-0.16 -0.081,-0.241c-1.125,-2.008 -1.045,-3.454 -1.687,-5.622c-2.248,-7.71 -4.657,-15.339 -7.87,-22.648c4.337,-3.695 9.075,-6.827 14.456,-8.915c8.352,-3.213 17.348,-2.81 26.102,-3.132c14.939,-0.723 29.877,-1.526 44.815,-2.329l6.184,-0.322c0.24,0.16 0.321,0.241 0.562,0.482c3.053,2.891 4.9,5.863 7.309,9.236c0.964,1.365 1.927,2.409 2.891,3.373c2.169,-1.606 4.016,-3.212 5.301,-6.264c1.045,-2.328 2.49,-5.139 3.454,-7.87c4.899,-0.241 9.798,-0.481 14.697,-0.803c0.081,-0.803 0.241,-1.446 0.322,-1.847c4.659,-0.482 6.987,-2.489 11.806,-2.329c3.855,0 8.192,0.883 10.039,-3.213c1.284,-3.052 -0.643,-11.083 4.738,-5.06c2.892,3.212 6.345,10.44 11.646,10.28l0.562,1.927c1.044,0 2.008,0 3.052,-0.081c2.248,1.847 4.819,3.453 8.111,4.738c1.526,0.562 3.052,0.963 4.578,1.285c0.401,0.723 0.723,1.526 1.124,2.329c0.241,0 0.481,-0.079 0.803,-0.16c4.177,-0.562 7.631,0.482 11.405,-1.927c2.33,-1.446 5.462,-4.016 7.55,-5.863c3.132,-2.891 5.943,-5.621 7.71,-9.316c3.454,-7.228 5.06,-4.898 10.923,-1.124c5.622,3.614 13.573,7.469 20.319,8.272c5.221,0.562 8.835,-1.847 13.091,-4.578c6.023,-3.774 11.565,-8.031 18.311,-10.601c6.345,-2.329 13.332,-3.775 19.837,-5.702c3.454,-1.044 7.55,-1.687 11.565,-2.57c2.812,-0.562 5.06,-1.606 8.032,-0.803c2.249,0.562 3.293,1.687 6.104,1.847c4.418,0.16 8.996,0 13.413,0c5.3,-0.08 8.914,1.044 13.733,2.49c0.963,0.241 4.738,1.847 6.505,2.891c0.643,-0.482 1.446,-0.803 2.008,-1.365z" /> <path d="M522.747,578.983c0.322,-0.081 0.482,-0.162 0.723,-0.322c0,0.16 -0.079,0.32 -0.16,0.401c-0.161,0 -0.321,-0.081 -0.562,-0.081z" /> <path d="M414.808,735.034c6.184,-2.65 12.368,-5.301 18.552,-7.951c2.328,-0.964 4.738,-1.847 7.147,-2.811c1.767,-3.373 3.053,-6.185 2.972,-11.164c0,-8.674 -0.321,-14.377 -6.023,-20.882c-1.044,-1.285 -2.088,-2.57 -3.052,-3.855c-2.087,0.401 -4.096,0.803 -6.264,1.365c-4.177,0.963 -8.513,1.044 -12.69,1.927c-2.891,0.562 -5.461,2.249 -8.352,2.65c-4.498,0.561 -8.193,0.241 -12.69,-0.081c-2.009,-0.241 -3.775,0.16 -5.542,0.401c-0.321,4.9 -1.365,8.675 1.044,13.413c1.847,3.695 3.855,8.995 6.746,11.967c4.818,4.979 11.244,8.995 16.464,13.492c0.563,0.482 1.125,1.044 1.687,1.526zM390.316,837.912c9.718,-2.811 18.873,-6.184 28.029,-9.798c-0.241,-0.322 -0.482,-0.642 -0.723,-0.964c-3.534,-5.702 -7.389,-12.288 -10.441,-18.151c-3.132,-5.863 -4.337,-12.529 -7.951,-18.151c-1.928,-3.052 -4.176,-5.702 -5.943,-8.834c-2.73,-5.221 10.12,-9.076 7.55,-14.296c-1.446,0.402 -2.731,0.804 -4.177,1.205c-10.522,2.651 -21.605,3.213 -32.447,4.177c-4.177,0.402 -8.433,1.205 -12.529,0.964c-7.067,-0.402 -13.734,-1.687 -20.962,-1.446c-8.192,0.16 -17.669,-2.49 -25.219,-5.542c-5.14,-1.927 -9.959,-3.936 -14.858,-5.863c-0.081,6.666 -0.643,13.413 0.16,19.918c0.803,7.148 1.285,13.171 1.285,20.48c-0.162,8.112 -0.402,16.465 0.16,24.576c0.482,5.783 2.248,11.325 2.329,17.027c0.081,7.066 0.964,14.055 0.964,21.202c0,13.171 -2.811,26.904 -5.943,39.594c-1.767,7.388 -3.132,13.974 -6.586,20.801c-2.249,4.418 -4.417,8.835 -6.666,13.172c1.124,-1.768 2.409,-3.534 3.855,-5.06c6.585,-7.148 14.938,-12.69 22.166,-18.874c1.927,-1.606 4.256,-2.409 6.023,-4.015c2.41,-2.168 4.176,-5.461 6.184,-7.87c4.658,-5.381 9.878,-10.119 16.223,-13.573c5.221,-2.811 7.148,-5.06 11.726,-9.156c8.111,-7.309 15.5,-13.734 21.925,-22.488c2.891,-4.016 6.264,-7.63 10.2,-10.521c9.638,-6.907 5.22,-5.461 15.661,-8.513zM296.825,711.982c-2.972,8.513 -7.871,15.983 -9.236,24.817c0.643,1.526 1.204,3.052 1.526,4.578c0.562,2.168 0.803,4.257 1.044,6.345c0.402,0 0.803,0.241 1.285,0.241c6.345,0.884 13.894,-0.642 20.319,-0.642c8.834,-0.079 17.91,-1.124 26.744,-0.401c8.996,0.803 17.589,-0.161 26.584,-0.562c3.132,-0.161 6.103,0.16 9.075,0.401c-5.621,-5.542 -6.103,-14.618 -7.87,-22.247c-1.606,-7.068 -2.249,-15.661 -5.06,-22.247c-1.284,-2.972 -4.096,-3.695 -5.461,-6.104c-1.686,-2.65 -2.008,-7.55 -2.65,-10.441c-0.241,-0.964 -0.482,-2.008 -0.723,-3.052c-0.723,-0.803 -1.044,-1.848 -2.088,-2.49c-0.963,-0.562 -2.65,-1.205 -4.417,-1.767c-3.294,0.16 -6.505,1.044 -10.682,1.606c-5.059,0.643 -8.112,1.686 -12.368,4.899c-6.344,4.899 -16.062,6.425 -21.202,12.85c-2.892,3.533 -3.293,9.718 -4.819,14.215zM453.679,687.647c0,0.079 0.079,0.079 0.16,0.16c6.667,7.629 12.851,15.501 7.791,25.62c-1.446,2.811 -2.972,6.104 -4.819,9.236c-1.766,9.798 -3.855,22.247 -5.22,23.05c-2.49,1.527 -5.702,2.41 -8.433,3.454c-5.703,2.409 -10.12,6.103 -15.581,8.834c0.482,0.642 0.883,1.285 1.606,1.927c7.228,7.469 12.449,12.529 15.019,23.211c1.285,5.301 -11.967,9.799 -9.718,15.26c-0.241,3.454 -0.241,6.987 -0.16,10.682c0.322,9.637 -1.927,19.757 -3.132,29.394l-1.446,11.887c-1.446,1.044 -11.244,-8.995 -13.011,-8.513c-5.541,1.526 -2.891,13.734 -8.272,15.581c-1.927,0.722 -3.373,1.365 -5.14,2.409c-1.767,0.964 -4.336,1.847 -5.782,2.811c-4.578,2.971 5.541,9.477 0.803,13.492c-5.462,4.578 -13.252,6.826 -19.195,11.003c-21.846,15.421 -45.779,26.665 -68.99,39.756c-4.658,2.65 -8.995,4.577 -12.127,8.513c-4.498,5.461 -10.763,8.834 -16.786,13.011c-4.257,2.971 -8.193,5.622 -12.208,8.513c-1.044,0.642 -1.848,1.365 -2.49,2.088c-0.402,-0.963 -0.964,-1.365 -1.446,-2.409c-0.723,-2.008 -1.445,-4.096 -1.767,-6.104c-1.044,-5.221 -0.081,-10.039 1.365,-15.099c3.052,-10.441 5.221,-21.524 8.754,-31.724c1.767,-5.14 0.643,-7.71 1.044,-13.492c0.321,-6.746 1.284,-12.85 1.124,-19.677c-0.401,-11.404 -0.16,-21.845 1.687,-33.009c0.963,-5.381 1.847,-10.28 2.409,-15.661c0.561,-4.899 0.642,-6.586 -0.322,-11.244c-0.803,-4.577 -2.489,-5.942 -5.461,-9.637c-7.791,-9.878 -10.441,-18.311 -11.405,-30.278c3.053,-3.855 5.783,-8.352 7.791,-13.733c1.285,-3.373 2.008,-6.265 2.65,-8.915c-1.607,-3.775 -1.927,-8.674 -2.008,-12.288c-0.08,-4.9 -0.482,-8.514 -1.526,-13.252c-1.124,-5.06 1.848,-9.076 3.454,-14.055c2.57,-7.711 8.433,-13.654 15.34,-17.991c12.127,-7.55 26.101,-9.88 39.353,-14.136c0.322,-0.079 0.642,-0.241 0.964,-0.401c-0.16,0 -0.241,0 -0.401,-0.081c15.019,-8.271 36.462,-12.368 50.598,-22.166c5.863,-4.096 11.405,-8.513 16.866,-13.091c16.705,-10.521 35.659,-22.006 37.426,-20.239c10.843,4.337 21.685,8.192 33.411,9.557l-25.057,20.801l12.288,36.944z" /> <path d="M854.285,393.136c7.308,-5.301 15.42,-7.309 23.853,-8.032c-0.884,-0.241 -1.848,-0.401 -2.972,-0.642c-9.878,-2.009 -18.713,-4.177 -28.752,-3.936c-4.658,0.08 -9.156,-0.482 -13.573,-1.847c-10.522,-3.614 -13.814,-13.814 -21.846,-20.319c-7.148,-5.783 -14.456,-10.923 -21.765,-15.822c-1.366,3.293 -2.651,6.585 -3.936,9.557c-2.651,5.944 -6.907,11.004 -9.156,17.268c-1.125,3.293 -1.848,6.746 -3.213,9.959c-1.848,4.257 -4.177,8.353 -6.345,12.449c4.017,4.497 7.791,9.075 11.646,13.733c0.322,0.401 0.642,0.802 0.964,1.124c4.498,0.161 9.397,0.723 10.923,0.723h33.25c6.265,0 15.742,2.008 20.48,-1.847c4.096,-3.453 5.944,-9.155 10.441,-12.368zM764.895,310.179c0.322,-3.936 0.884,-7.791 1.687,-11.887c1.446,-7.469 4.096,-15.179 4.819,-22.729c0.723,-7.148 1.607,-13.252 3.213,-20.239c1.767,-7.951 3.775,-15.903 4.899,-24.014c0.803,-5.702 0.402,-11.485 1.526,-17.107c1.124,-5.461 1.847,-10.922 2.811,-16.464c-1.847,0.562 -3.614,1.124 -5.06,1.847c-6.907,3.374 -12.448,5.461 -20.239,6.666c-7.067,1.043 -13.653,3.373 -20.721,3.533c-4.74,0.081 -10.04,-1.124 -14.377,1.446c-3.374,2.088 -5.06,5.782 -8.032,8.272c-3.534,2.972 -5.542,5.462 -8.433,8.995c-2.329,2.731 -5.943,8.513 -9.397,9.477c-2.892,-6.988 4.658,-18.714 6.023,-25.701c1.446,-7.148 4.176,-13.734 7.228,-20.159c-0.482,0.241 -0.964,0.642 -1.446,0.883c-10.199,4.497 -18.873,-1.044 -28.912,-0.482c-11.002,0.642 -21.524,2.328 -32.125,4.015c0.321,0.723 0.642,1.365 0.883,2.088c2.008,6.265 4.016,13.573 5.622,19.998c1.606,6.425 1.365,13.171 3.373,19.516c1.124,3.373 2.65,6.424 3.533,9.878c1.687,7.066 2.169,14.456 4.337,21.443c6.506,0.642 12.931,1.686 19.356,2.65c3.775,0.562 7.871,0.722 11.485,1.927c6.264,2.087 12.127,4.818 18.713,6.264c7.39,1.606 15.341,6.345 21.605,11.003c9.558,7.068 17.75,14.055 27.628,18.874zM764.974,330.17c0.402,-1.124 0.481,-2.329 0.562,-3.614c-6.265,-4.579 -12.77,-10.682 -19.597,-13.413c-5.541,-2.248 -12.689,-2.569 -18.552,-4.015c-7.87,-1.927 -16.464,-2.972 -24.174,-5.622c-5.381,-1.848 -10.682,-2.972 -16.143,-3.936c0.562,5.14 0,10.601 0,15.661c0,6.827 -1.044,14.778 -0.241,21.605c1.847,1.446 3.614,2.972 4.899,4.337c1.044,1.125 0.803,2.571 1.927,3.695c1.846,1.928 7.388,5.461 9.878,6.184c2.089,0.643 3.454,0.08 5.622,1.044c2.571,1.044 4.98,3.212 7.309,4.658c5.461,3.453 11.405,4.657 16.866,8.111c3.855,2.41 7.39,4.819 10.923,7.309c1.205,-7.951 2.571,-14.136 8.032,-21.283c4.579,-5.943 10.361,-13.493 12.69,-20.721zM732.769,407.592c0,-0.723 0,-1.446 0.081,-2.088c0.241,-3.373 0.643,-6.746 1.526,-9.959c-2.249,-1.286 -4.418,-2.571 -6.586,-3.936c-7.389,-4.578 -14.859,-9.236 -22.247,-13.814c-3.776,-2.248 -7.55,-5.3 -11.405,-7.147c-1.205,-0.562 -2.249,-0.883 -3.373,-1.124v5.301c0,10.119 -2.007,19.837 -1.847,29.876c0,1.927 -0.079,3.855 -0.16,5.782c2.489,2.49 4.979,4.819 7.629,7.228c2.49,2.249 4.658,4.9 6.907,7.309c1.205,0.161 2.33,0.321 3.454,0.562c7.309,1.125 9.557,3.534 14.697,-2.329c3.533,-4.176 6.666,-11.646 11.324,-15.661zM664.18,381.65c0.162,-1.927 0.322,-3.935 0.081,-6.023c-0.883,-5.541 -1.124,-11.485 -2.65,-16.705c-0.081,-0.321 -0.16,-0.562 -0.241,-0.803c-5.22,-2.891 -10.601,-5.783 -15.661,-5.943c-8.192,-0.241 -16.223,-1.205 -24.174,-3.614c-2.249,-0.642 -4.497,-1.043 -6.746,-1.365c2.891,5.221 5.461,10.602 7.71,16.063c0.16,0.241 0.16,0.482 0.241,0.642c2.65,-0.161 5.461,-0.803 8.192,-0.803c11.725,0.16 20.56,5.381 29.153,14.296c1.285,1.284 2.731,2.81 4.096,4.256zM600.171,315.792c8.593,2.008 16.624,2.249 25.057,2.249c4.016,-0.081 8.031,0.883 11.967,0.883c2.73,0.161 5.461,-0.883 8.111,-0.642c4.177,0.482 7.469,1.687 11.324,2.972c1.847,0.643 3.373,0.722 4.819,0.803c-0.563,-3.212 -1.366,-6.826 -2.731,-9.316c-3.373,-5.943 -8.353,-11.244 -12.127,-16.866c-0.24,-0.321 -0.402,-0.643 -0.562,-1.044c-2.569,0.643 -5.059,1.286 -7.388,1.687c-8.432,1.606 -16.865,3.213 -25.298,4.819c-4.257,0.803 -8.914,1.124 -13.091,2.329c-2.972,0.963 -4.979,2.73 -7.71,4.417c-0.803,0.482 -1.607,0.964 -2.49,1.365c1.044,1.607 2.088,3.293 3.132,4.899c2.409,0.402 4.738,0.884 6.987,1.446zM580.895,282.864c1.527,0.161 2.169,1.366 3.695,1.526c2.49,0.161 8.915,-1.124 11.244,-2.168c2.007,-0.964 2.73,-2.329 4.979,-3.132c2.57,-0.884 5.702,-1.044 8.352,-1.526c6.265,-1.124 11.486,-4.337 17.75,-5.461c4.257,-0.722 8.272,-1.365 12.368,-1.927c-0.321,-1.125 -0.803,-2.41 -1.606,-3.695c-4.9,-8.915 -8.593,-14.939 -8.674,-25.942c-0.08,-7.71 -0.16,-17.508 -2.65,-24.576c-1.767,-4.98 -6.585,-7.79 -9.637,-11.726c-0.883,-1.124 -1.686,-2.249 -2.409,-3.373c-3.694,0.401 -7.308,0.883 -10.521,2.168c-5.622,2.088 -11.325,6.826 -16.545,9.798c-7.228,4.016 -14.456,9.157 -21.925,12.449c-7.791,3.373 -14.618,8.112 -21.765,12.609c-3.373,2.008 -6.907,3.293 -10.28,4.819c4.82,3.454 8.193,9.477 11.967,14.296c4.336,5.542 8.513,12.851 13.492,17.509c2.409,2.089 4.979,1.446 7.147,2.972c1.767,1.124 3.373,3.534 4.819,5.702c3.373,-0.241 7.389,-0.644 10.2,-0.322zM531.744,297.482c2.409,-1.848 4.738,-2.972 7.147,-4.177c-1.687,-4.337 -2.41,-7.951 -6.184,-11.003c-3.132,-2.409 -6.987,-6.264 -10.682,-7.629c-4.819,-1.767 -10.2,-2.57 -15.34,-3.614c-3.855,4.98 -7.71,9.879 -11.565,14.858c-2.73,3.374 -5.943,6.826 -8.352,10.521c6.344,1.847 12.529,4.096 19.034,5.22c5.702,0.964 11.404,2.49 16.946,4.337c1.125,-0.722 2.249,-1.526 3.213,-2.409c2.087,-1.848 3.533,-4.417 5.782,-6.104zM477.292,217.811c2.811,1.847 5.783,3.132 8.433,5.22c5.863,4.417 10.923,10.2 17.187,13.974c1.606,-1.606 3.293,-3.292 5.06,-4.979c7.548,-7.148 16.383,-12.69 25.057,-18.472c3.212,-2.249 6.424,-4.979 9.878,-6.505c6.024,-2.811 12.128,-4.738 17.991,-8.192c6.666,-3.855 15.661,-5.702 23.13,-6.505c8.513,-0.884 16.464,-1.365 24.174,-2.811c-3.212,-6.505 -5.783,-13.895 -9.557,-19.918c-3.694,-6.024 -6.585,-11.164 -9.557,-17.75c-3.373,-7.309 -6.586,-14.858 -10.601,-21.765c-2.731,-4.98 -6.505,-9.076 -8.995,-14.136c-3.052,-6.264 -6.746,-12.207 -9.718,-18.552c-5.462,-11.726 -8.995,-25.218 -11.726,-37.988c-1.525,-7.388 -3.292,-13.814 -3.292,-21.524v-14.778c-0.161,2.168 -0.482,4.256 -0.964,6.264c-2.409,9.396 -7.068,18.151 -10.441,26.905c-0.883,2.33 -2.57,4.016 -3.373,6.345c-0.964,2.891 -1.044,6.666 -1.767,9.718c-1.606,6.987 -3.936,13.493 -7.71,19.516c-3.132,4.818 -3.855,7.71 -5.863,13.492c-3.534,10.12 -7.068,19.195 -8.674,29.957c-0.723,4.819 -1.928,9.638 -4.096,14.055c-4.98,10.441 -14.939,12.288 -22.327,19.757c-2.089,2.169 -4.096,4.417 -6.104,6.666c0.803,-0.402 1.607,-0.723 2.49,-1.205c-2.57,2.49 -4.899,7.71 -7.228,10.601c-3.534,5.381 -6.907,10.843 -10.039,16.545c-3.535,4.82 -7.228,9.558 -11.164,14.136c-2.088,3.695 -2.41,8.514 -5.301,11.646c4.256,-0.402 8.352,0 12.288,1.044c-0.403,-7.791 1.204,-13.734 3.533,-22.488c0.321,-1.365 0.642,-2.65 0.883,-3.855c1.446,0.964 2.811,2.008 4.096,2.972c5.06,3.855 8.835,9.236 14.296,12.609zM935.885,391.117c0.402,0.643 0.643,1.285 0.803,2.008l-6.827,-1.847c-2.008,0.081 -4.096,0.16 -6.104,0.241c-6.184,0.241 -12.368,0.241 -18.552,-0.241c-0.722,0.402 -1.445,0.884 -2.168,1.285c-10.682,6.666 -23.934,7.71 -35.419,12.609c-7.951,3.374 -16.143,5.301 -24.335,8.032c-14.215,4.659 -28.511,9.96 -42.325,15.742c-0.804,-6.024 -3.132,-7.79 -7.951,-9.316c-1.766,-0.321 -3.453,-0.883 -5.22,-1.365c2.73,4.9 5.301,9.719 8.593,14.377l0.081,0.081c-1.606,0.16 -3.292,0.32 -4.979,0.401c-0.321,-0.482 -0.722,-0.884 -1.044,-1.285c-2.731,-3.452 -8.432,-6.264 -12.609,-7.388c-6.184,-1.686 -12.689,-1.044 -18.552,1.446c-3.052,1.285 -5.782,3.213 -8.272,5.381c-0.241,0 -0.482,0 -0.723,0c-1.446,0 -2.891,0 -4.337,0c0,0.081 0.081,0.16 0.081,0.241c0.561,5.301 -1.366,7.63 -3.695,11.967c-3.294,5.943 -3.374,12.047 -11.646,10.601c-7.87,-1.365 -12.85,-11.324 -21.283,-10.36c-5.381,0.644 -11.645,8.514 -14.697,0.322c-4.177,-0.32 -5.703,5.623 -10.923,3.936c-4.578,-1.606 -13.894,-11.645 -16.625,-14.215c-0.803,-0.803 -1.526,-1.606 -2.329,-2.409c-1.767,0 -3.614,0 -5.381,0c-8.834,-0.081 -17.91,-0.964 -26.503,1.927c-5.461,1.847 -10.441,4.899 -14.938,8.513c-1.525,-4.177 -3.373,-8.273 -5.461,-12.288c-2.811,-5.22 -5.622,-10.441 -8.433,-15.661c-3.775,-7.068 -8.432,-14.458 -12.368,-22.087c-4.338,-2.571 -8.755,-4.9 -13.413,-6.827l-15.822,-6.184c-1.607,-0.562 -3.212,-1.205 -4.899,-1.767c-1.124,0.081 -2.168,0.162 -3.292,0.081c-1.125,0.079 -2.249,0.079 -3.454,0.16c-10.2,0.884 -20.239,2.088 -30.037,5.14c-0.16,-0.081 -0.16,-0.241 -0.241,-0.322c-4.015,-8.354 1.687,-4.177 -7.469,-14.377c-9.958,-11.083 -20.881,-20.881 -30.358,-32.366c3.212,-2.33 6.424,-4.659 9.637,-6.586c-0.643,-0.321 -1.366,-0.643 -2.008,-0.803c-5.301,-2.008 -9.959,-4.98 -15.501,-5.14h-0.883c-0.081,0.16 -0.162,0.401 -0.322,0.482c-6.585,-9.878 -11.003,-19.998 -12.127,-32.125h0.081c0.884,0.24 1.687,0.402 2.49,0.562c2.169,-2.249 5.22,-6.184 6.184,-8.272c0.963,-2.168 0.722,-3.695 1.927,-5.863c1.365,-2.49 3.775,-4.738 5.542,-6.987c2.972,-3.695 4.9,-7.951 7.309,-12.047c-1.767,-1.927 -3.453,-3.533 -6.666,-4.738c-3.775,-1.365 -6.987,-2.569 -10.039,-4.015c-4.337,3.373 -11.484,5.462 -15.661,6.104c-17.429,2.65 -23.533,-27.226 -23.452,-38.952c0,-3.935 0.241,-6.345 1.526,-9.878c1.767,-4.578 2.168,-4.738 6.023,-8.433c1.606,-2.328 3.373,-4.417 5.461,-6.264c3.373,-2.007 6.746,-3.935 10.2,-5.702c1.043,-0.803 2.248,-1.686 4.738,-3.132c-0.482,-1.286 -0.964,-2.571 -1.767,-3.936c-2.088,-3.855 -4.417,-7.87 -6.746,-11.806c2.65,-2.57 5.22,-5.14 7.71,-7.951c1.366,-1.446 2.169,-2.65 3.213,-4.337c1.044,-1.767 2.811,-3.694 3.614,-5.14c2.651,-4.739 4.417,-11.084 6.666,-16.786c2.57,-6.585 8.112,-12.127 11.244,-18.552c11.565,-23.612 26.584,-44.413 40.317,-66.66c2.81,-4.498 5.541,-8.112 6.505,-13.011c1.446,-6.907 5.141,-12.85 8.433,-19.275c2.249,-4.498 4.417,-8.674 6.505,-13.091c0.482,-1.045 0.883,-2.008 1.124,-2.972c0.722,0.643 1.526,0.803 2.168,1.526c1.527,1.365 2.972,2.972 4.177,4.578c2.972,4.177 4.257,8.915 5.14,14.055c1.848,10.682 4.658,21.604 6.104,32.366c0.642,5.381 2.57,7.068 4.738,12.449c2.569,6.104 4.336,12.048 7.388,17.991c5.059,10.039 9.155,19.436 12.368,30.278c1.526,5.221 2.811,9.959 4.578,15.019c1.687,4.658 2.329,6.185 5.06,9.959c2.57,3.614 4.498,4.096 8.513,6.104c11.083,5.461 16.866,12.128 22.97,23.452c2.168,3.856 4.979,7.549 7.87,11.003c1.526,-0.964 3.052,-1.767 4.417,-2.811c3.856,-2.731 8.193,-5.381 12.931,-5.622c5.221,-0.241 10.441,-0.321 15.822,-0.883c1.847,-0.241 3.293,-0.563 5.06,-1.205c1.767,-0.562 4.256,-0.803 5.782,-1.365c4.819,-1.847 10.039,-5.381 15.099,-8.272c5.944,-3.213 13.413,-3.614 19.677,-6.345c3.453,-1.525 6.906,-2.891 10.36,-4.256c0.081,0.402 0.241,0.804 0.322,1.205c0.802,-1.687 2.087,-0.161 3.292,2.65c1.686,3.695 2.168,7.388 2.891,11.083c1.043,1.366 2.248,2.651 3.533,3.936c1.847,1.687 3.855,3.053 5.943,4.177c-2.089,1.285 -4.096,2.57 -6.104,3.855c1.124,3.132 2.409,6.344 3.292,9.557c1.124,4.257 0.08,9.798 5.943,8.674c0.16,0 4.337,-3.051 4.497,-3.132c2.169,-1.205 3.935,-1.767 6.184,-2.57c7.549,-2.811 14.536,-6.746 22.327,-9.236c7.79,-2.409 24.736,-6.104 20.078,8.032c-0.321,0.963 -1.044,2.248 -1.847,3.533c0.642,1.284 1.365,2.569 2.088,3.774c1.526,2.33 3.533,4.176 5.782,5.622c-1.846,8.353 -3.934,16.304 -7.147,24.496c-1.927,5.06 -3.775,9.557 -5.381,14.697c-1.526,4.739 -1.928,6.265 -2.088,11.003c-0.16,4.658 1.045,6.345 2.972,10.601c5.14,11.967 5.622,21.123 3.614,33.973c-1.205,7.71 -0.401,16.303 -0.241,24.094c3.052,0.723 6.023,1.767 8.513,3.855c4.177,3.373 8.273,6.987 12.69,10.2c1.526,1.124 2.811,1.847 4.578,2.65c1.687,0.804 3.775,2.41 5.301,2.972c4.738,1.928 10.842,2.731 16.464,4.096c6.425,1.687 12.449,6.585 18.874,8.834c23.613,8.112 45.137,20.561 67.785,31.162c4.658,2.168 8.433,4.498 13.091,4.658c5.462,0.16 10.522,2.329 15.742,4.337c-7.068,-0.079 -14.217,0.081 -21.364,0.322z" /></svg>