<svg xmlns="http://www.w3.org/2000/svg" viewBox="0 0 893 818" width="893" height="818"><path d="M144.725,348.955c9.257,18.137 18.629,36.23 29.074,53.444c14.686,12.012 23.026,39.213 37.105,47.743c-19.776,9.335 -54.51,-10.597 -76.929,6.385c-7.426,1.337 -14.273,8.112 -19.091,15.264l-3.865,5.628c-6.462,9.562 -13.041,19.235 -19.814,28.612c-8.151,11.289 -18.517,20.433 -28.541,29.267c-2.676,2.334 -5.318,4.703 -7.917,7.075c-1.647,1.497 -2.987,2.983 -4.402,4.556l-2.026,2.215c-7.961,8.605 -19.78,19.159 -30.798,20.428l-17.176,2.026l9.603,-16.294c4.397,-7.38 8.489,-14.378 12.395,-21.767c3.749,-7.001 7.916,-13.847 11.975,-20.469c6.349,-10.367 12.317,-20.122 16.715,-30.641c10.366,-24.754 26.054,-46.402 41.201,-67.333c6.047,-8.374 12.321,-17.059 18.096,-25.707c4.82,-7.231 10.329,-15.606 14.803,-23.831c1.147,-2.067 1.951,-4.134 2.793,-6.16c1.303,-13.624 7.231,-17.027 16.797,-10.446z" /> <path d="M203.801,302.391c56.657,-55.087 56.657,-146.977 128.846,-179.762c-59.066,72.147 -45.945,164.04 -77.122,244.261c-18.25,-21.727 -35.921,-41.775 -51.724,-64.499z" /> <path d="M447.423,501.384c-8.72,3.789 -19.317,5.492 -26.47,5.59c-127.696,2.756 -245.796,-82.555 -279.267,-204.054c-8.303,-8.415 -16.834,-14.27 -26.091,-18.745c-2.526,-1.219 -5.086,-2.676 -7.767,-4.201c-5.202,-2.94 -10.561,-6 -15.189,-6.69l-4.474,-0.589l-1.992,-4.014c-2.981,-5.926 -5.432,-8.799 -7.383,-11.091c-1.798,-2.144 -3.635,-4.359 -4.55,-7.576l-1.683,-5.971l5.127,-3.483c8.683,-5.894 19.969,-3.406 28.232,-1.605l2.636,0.589c3.943,0.786 8.415,0.687 13.122,0.589c6.431,-0.158 13.127,-0.305 20.011,1.682c7.953,2.34 15.303,4.674 21.727,8.648c37.991,128.045 162.666,206.813 293.884,233.056c-6.542,6.542 -6.542,13.122 -9.871,17.903z" /> <path d="M452.366,135.541c-15.952,12.436 -30.414,26.172 -43.383,40.821c-10.749,18.439 -23.875,31.561 -36.993,44.683c-13.122,-45.946 -26.24,-85.311 -36.841,-129.726c-11.204,-8.265 -20.196,-18.706 -28.917,-28.846c-2.334,-2.727 -4.67,-5.404 -7.004,-8.039c-1.452,-1.643 -2.942,-2.979 -4.55,-4.436l-2.179,-2.026c-8.494,-8.073 -18.898,-20.007 -20.048,-31.025l-1.835,-17.214l16.409,9.904c7.272,4.434 14.12,8.566 21.388,12.511c7.001,3.82 13.774,8.07 20.316,12.202c10.292,6.459 20.043,12.543 30.488,17.06c24.599,10.676 46.099,26.587 51.721,43.536c17.292,8.837 17.985,35.194 41.432,40.587z" /> <path d="M600.77,80.862c5.776,8.761 3.173,20.007 1.259,28.232l-1.299,2.254c-123.719,70.315 -195.911,194.995 -209.033,332.792c-98.431,-137.798 52.487,-301.84 176.132,-348.703l0.69,-4.475l4.014,-1.949c5.971,-2.906 8.878,-5.323 11.212,-7.233c2.141,-1.759 4.36,-3.588 7.611,-4.475l6.008,-1.605l3.404,5.165z" /> <path d="M688.532,284.62c6.811,4.859 20.811,15.568 17.713,21.767c-65.189,-59.108 -170.2,6.501 -222.687,-72.226c0,-6.583 6.576,-19.705 13.118,-19.705c72.188,-13.119 137.798,32.822 191.856,70.162z" /> <path d="M893.654,245.945l-9.719,16.488c-4.323,7.309 -8.419,14.268 -12.28,21.578c-3.712,7.04 -7.924,13.846 -11.938,20.468c-6.351,10.371 -12.355,20.163 -16.756,30.645c-10.366,24.748 -26.05,46.403 -41.201,67.367c-6.044,8.378 -12.318,17.023 -18.093,25.671c-11.401,9.409 -11.401,35.655 -31.103,29.074c-32.786,-19.668 -39.365,-65.612 -65.609,-91.856c32.824,-13.121 65.609,-6.542 92.158,-19.586l3.98,-5.813c6.465,-9.487 12.97,-19.127 19.702,-28.463c8.151,-11.289 18.517,-20.433 28.541,-29.267c2.674,-2.334 5.355,-4.703 7.954,-7.075c1.571,-1.458 2.908,-2.944 4.364,-4.517l2.026,-2.254c7.961,-8.606 19.779,-19.127 30.798,-20.427z" /> <path d="M642.52,454.213c19.513,14.538 37.11,34.775 51.874,59.716c-46.786,61.438 -73.03,133.629 -132.096,186.117c39.366,-78.73 78.728,-157.501 80.221,-245.832z" /> <path d="M821.469,573.49l-5.128,3.483c-8.724,5.894 -20.01,3.406 -28.236,1.605l-2.636,-0.589c-3.976,-0.786 -8.415,-0.687 -13.122,-0.589c-6.464,0.158 -13.123,0.305 -20.007,-1.682c-12.548,-3.67 -20.619,-12.432 -26.474,-27.043c-25.786,-137.376 -170.126,-170.201 -275.096,-229.266c131.218,-32.783 269.015,65.649 303.484,190.131c6.389,13.43 14.879,19.322 24.177,23.797c2.486,1.219 5.091,2.676 7.727,4.201c5.202,2.955 10.598,5.972 15.226,6.662l4.439,0.69l2.026,4.014c2.984,5.926 5.393,8.799 7.344,11.091c1.798,2.144 3.677,4.321 4.591,7.576z" /> <path d="M623.374,817.851l-16.834,-10.215c-7.115,-4.284 -13.848,-8.377 -20.926,-12.242c-7.001,-3.783 -13.811,-8.072 -20.353,-12.165c-10.288,-6.464 -20.006,-12.585 -30.451,-17.102c-24.635,-10.635 -46.101,-26.549 -60.75,-42.311c-10.176,-17.214 -29.877,-30.335 -42.999,-50.037c39.366,-13.122 59.067,-52.488 91.853,-78.731c-6.541,39.366 32.824,65.608 20.734,107.153c1.955,8.72 5.854,17.096 15.226,24.024c11.171,8.303 20.201,18.745 28.921,28.884c2.33,2.727 4.628,5.404 7,8.039c1.456,1.612 2.949,2.979 4.517,4.436l2.178,2.026c8.531,8.073 18.935,20.049 20.085,31.025z" /> <path d="M343.719,603.987c-57.003,-22.038 -116.069,-54.863 -162.014,-100.808c78.767,39.366 164.037,59.068 249.351,65.61c-26.244,13.16 -39.369,78.768 -79.535,39.059z" /> <path d="M509.454,379.722c9.752,1.497 19.433,4.142 28.422,8.845c30.987,140.853 -80.567,272.113 -202.986,319.167c-4.86,4.436 -7.991,9.796 -8.721,14.422l-0.648,4.436l-4.055,1.987c-5.971,2.87 -8.881,5.281 -11.212,7.191c-2.141,1.801 -4.364,3.63 -7.611,4.517l-5.969,1.605l-3.445,-5.204c-5.775,-8.761 -3.135,-20.011 -1.262,-28.236l0.614,-2.597c0.831,-3.973 0.797,-8.419 0.726,-13.122c118.058,-64.879 203.369,-176.433 216.148,-313.009z" /></svg>