<svg xmlns="http://www.w3.org/2000/svg" viewBox="0 0 998 896" width="998" height="896"><path d="M55.116,440.054c-16.517,-6.068 -25.365,-20.226 -37.753,-31.518c-3.539,-3.371 -7.331,-6.322 -11.46,-8.849c-1.095,-0.843 -2.19,-0.927 -3.286,-0.337c-1.685,-0.927 -2.022,-2.949 -2.359,-4.888c-0.927,-6.825 5.141,-7.752 8.596,-12.303c4.888,-6.405 6.153,-15.844 5.984,-23.681c0,-2.949 -0.506,-5.478 1.18,-7.921c1.349,-2.108 3.371,-2.865 4.804,-4.888c2.024,-2.949 4.045,-6.153 5.9,-9.186c2.275,-3.455 5.983,-5.815 8.006,-9.27c1.686,-2.949 2.192,-5.394 4.888,-7.921c2.358,-2.192 5.225,-3.117 7.921,-4.719c11.123,-6.574 21.911,1.686 33.118,4.045c1.012,-1.264 0.759,-2.611 0.843,-4.129c0.169,-4.214 -0.084,-8.596 -0.084,-12.894c0,-4.72 0,-6.406 -0.927,-10.451c-2.529,-10.619 8.68,-10.872 15.421,-14.917c3.876,-2.274 7.499,-5.644 11.713,-7.162c2.611,-1.012 5.731,-0.591 8.511,-0.169c3.877,0.421 7.416,0.927 11.292,0.927c1.771,0 3.623,0 5.394,0c-0.674,-4.046 -1.011,-7.839 -1.18,-10.451c-0.253,-6.153 0.169,-12.22 1.096,-18.288c1.012,-6.656 2.192,-18.117 5.31,-24.185c3.117,-6.153 7.752,-10.029 13.315,-13.99c5.225,-3.623 10.449,-7.247 16.854,-7.078c1.01,0.084 1.938,0.169 2.865,0.253c-0.338,-0.841 -0.675,-1.6 -1.012,-2.443c-3.288,-8.512 -7.418,-17.023 -10.198,-25.703c-4.214,-13.568 -4.382,-27.977 -2.949,-42.051c0.759,-7.415 1.855,-14.748 5.225,-21.489c4.551,-9.185 11.461,-12.387 20.478,-17.191c11.378,-6.068 22.248,-12.303 35.395,-13.062c13.567,-0.841 27.81,-0.336 41.125,1.771c5.392,0.926 10.701,1.937 16.011,2.949c3.371,0.422 6.406,1.431 9.186,3.202c1.768,0.338 2.105,1.097 3.37,-0.674c1.096,-1.433 0.927,-4.297 1.18,-6.068c0.842,-4.803 1.263,-9.523 2.949,-14.158c3.54,-10.198 8.596,-18.456 15.253,-26.799c2.19,-2.696 4.467,-5.394 6.994,-7.753c2.612,-2.445 5.647,-3.539 8.68,-5.225c4.298,-2.527 8.006,-5.054 12.641,-6.825c6.068,-2.274 11.376,-3.201 17.697,-3.37c5.055,-0.084 10.449,-0.421 15.421,1.012c10.364,3.203 21.068,11.378 28.989,18.372c8.511,7.331 15.254,15.842 22.754,24.101c1.854,2.023 3.961,3.961 6.068,5.984c0.252,-0.421 0.421,-0.758 0.674,-1.18c3.454,-5.814 6.235,-12.05 11.46,-16.601c3.287,-2.865 6.49,-5.9 9.776,-8.849c0.253,-2.78 1.095,-4.888 3.118,-8.09c4.719,-7.417 12.894,-13.99 20.562,-18.372c3.203,-1.768 6.49,-2.106 9.86,-3.539c1.94,-0.756 3.54,-2.021 5.563,-2.527c3.624,-0.843 8.343,-1.012 12.135,-1.265c4.298,-0.253 9.27,-0.422 13.568,0.084c2.696,0.337 5.056,1.517 7.668,2.023c1.01,0.169 2.106,0 2.949,0.253c1.009,0.337 1.6,1.18 2.527,1.686c1.264,0.675 2.274,0.506 3.623,0.759c4.045,0.759 5.899,3.372 9.017,5.731c1.349,1.009 3.202,2.443 4.804,2.78c1.349,0.253 2.527,-0.085 3.792,0.084c2.024,-0.59 3.961,-1.181 5.9,-1.855c5.308,-1.852 10.28,0.338 15.927,1.771c6.825,1.768 11.292,6.319 16.011,11.207c6.741,4.635 13.484,9.271 20.309,13.737c10.113,6.404 20.056,14.41 25.45,25.197c3.033,6.153 6.658,11.378 8.933,18.035c1.18,3.539 1.77,6.069 1.686,9.692c0.168,5.14 0.421,10.196 0.927,15.253c-0.253,2.024 -0.084,3.876 0.59,5.647c2.277,-1.349 4.046,-3.539 6.153,-5.225c4.045,-3.033 8.933,-5.982 13.99,-6.741c7.333,-1.01 16.013,1.096 23.344,1.939c11.882,1.349 22.754,10.029 31.013,18.288c10.787,10.873 17.613,24.441 27.473,35.901c4.635,5.478 5.645,13.315 11.545,17.866c2.023,1.601 3.457,0.843 5.984,0.927c9.355,0.337 18.709,3.454 27.895,4.972c9.944,1.602 20.647,4.888 29.411,9.776c2.191,1.265 2.865,2.275 4.214,4.214c2.36,3.202 5.899,5.984 9.017,8.259c4.972,3.539 10.282,6.572 14.158,11.207c3.118,3.792 5.9,7.921 8.596,11.966c2.781,4.214 3.37,8.343 4.888,12.978c0.926,3.118 1.769,5.9 2.275,9.102c1.096,6.321 0.927,12.388 1.433,18.793c0.337,-0.169 1.18,-1.518 1.349,-1.602c3.456,-0.927 6.49,-1.096 10.366,-0.843c16.602,1.349 33.877,3.624 47.867,13.147c6.235,4.213 11.544,8.848 16.854,14.158c5.563,5.561 13.905,13.399 18.119,20.646c8.006,13.652 15.843,26.715 19.635,42.22c1.265,5.141 1.855,9.27 1.771,14.327c-0.084,5.141 -0.421,8.68 2.949,12.809c1.687,2.024 3.539,4.046 5.057,6.153c2.023,2.865 1.517,2.696 1.686,7.584c0.253,6.825 0.59,13.652 0.927,20.562c0.168,3.539 1.349,12.05 0.084,16.348c-5.899,1.938 -11.544,1.6 -17.697,2.612c-3.373,0.59 -6.828,0.59 -10.198,1.18c-2.108,0.422 -4.13,0.674 -6.153,1.096c-4.213,0.843 -7.584,3.37 -11.46,5.141c-2.866,1.264 -4.046,2.105 -6.405,3.876c-1.096,0.758 -2.106,1.517 -3.455,2.023c-2.443,1.011 -5.226,1.348 -7.753,2.107c-1.18,0.422 -3.625,1.685 -4.972,1.265c-1.347,-0.42 -1.178,-2.19 -2.78,-2.359c-1.937,-0.168 -1.852,1.433 -3.623,2.107c-1.77,0.759 -4.55,0.169 -6.489,0.169c-3.035,0.084 -6.996,1.011 -9.945,0.084c-3.708,-1.096 -6.151,-5.31 -7.078,-8.68c-0.591,-2.106 -0.253,-6.488 -3.118,-6.994c-2.613,-0.422 -3.203,2.443 -6.321,0.084c-0.925,-0.759 -2.106,-2.78 -2.78,-3.539c-2.19,-2.529 -4.129,-3.792 -7.331,-5.478c-4.466,-2.359 -7.837,-3.202 -12.725,-3.455c-4.888,-0.169 -9.776,0.927 -14.664,0.084c-9.102,-1.6 -16.517,-8.09 -24.86,-11.46c-3.119,-1.263 -7.754,-2.021 -10.703,-2.443c-1.011,-0.169 -2.106,-0.169 -3.118,-0.253c-0.928,-2.78 -2.698,-5.478 -5.563,-7.921c-22.417,-18.793 -56.041,-26.714 -83.093,-13.905c-4.213,1.937 -6.825,4.635 -8.427,7.668c-11.545,1.854 -23.091,-1.769 -34.889,-2.865c-3.203,-0.337 -6.658,-0.759 -9.776,0.337c-1.855,0.59 -3.033,2.527 -4.551,3.033h-0.084c-0.422,-0.757 -0.759,-1.6 -1.349,-2.359c-3.708,-5.309 -8.09,-9.776 -12.894,-13.399c-8.005,-9.86 -19.383,-16.096 -31.518,-18.203c-2.527,-1.432 -5.057,-2.696 -7.837,-3.623c-4.635,-1.517 -9.186,-2.023 -13.652,-1.686c-1.855,0.084 -3.623,0.337 -5.394,0.674c-1.855,0.337 -3.624,0.843 -5.31,1.433c-1.939,0.253 -3.792,0.759 -5.647,1.349c-0.506,0.168 -0.927,0.421 -1.433,0.59c-1.264,0.506 -2.611,1.096 -3.876,1.855c-2.696,1.517 -5.225,3.541 -7.584,6.068c-4.467,0.674 -8.09,2.782 -11.882,5.225c-2.95,2.022 -5.9,6.067 -9.355,6.994c-5.394,1.602 -12.64,0.59 -18.203,0.759c-5.982,0.084 -14.072,0.843 -20.225,-0.843c-3.877,-1.012 -7.584,-2.865 -11.545,-3.961c-8.68,-2.276 -18.035,-1.939 -26.799,-0.253c-11.039,2.107 -21.995,4.803 -33.371,4.972c-0.506,0 -1.096,0 -1.686,0c-2.023,-2.781 -4.804,-5.139 -8.596,-6.657c-13.989,-5.816 -28.82,-4.467 -43.4,-1.771c-10.027,1.939 -22.415,6.659 -33.034,4.888c-2.612,-1.01 -5.141,-1.938 -7.837,-2.612c-5.645,-3.035 -11.123,-2.951 -15.758,-1.012c-5.731,0.085 -11.46,0.338 -17.191,0.422c-0.675,-3.371 -2.108,-6.574 -4.804,-9.439c-0.253,-0.253 -0.59,-0.422 -0.843,-0.759c-3.035,-2.949 -6.237,-5.392 -9.692,-7.247c-11.207,-9.271 -19.972,-18.878 -37.163,-17.782c-16.011,1.011 -24.944,9.607 -34.383,19.467c-1.518,1.096 -2.865,2.358 -4.214,3.623c-0.337,0.337 -0.759,0.59 -1.096,0.927c-2.024,1.096 -3.708,2.527 -5.31,4.129c-3.541,-0.42 -6.996,-1.178 -10.451,-2.527c-0.253,-0.084 -0.59,-0.169 -0.843,-0.253c-0.674,0.084 -1.433,0.169 -2.107,0.253c-10.113,11.123 -19.13,23.174 -30.928,32.697c-5.309,4.383 -10.785,8.68 -16.348,12.894c-5.057,3.034 -10.449,3.961 -16.264,2.612c-4.298,-0.085 -8.596,-0.085 -12.894,0.084c-2.527,-1.602 -4.971,-3.371 -7.162,-5.478c-0.506,-0.422 -1.096,-0.843 -1.602,-1.349c-3.117,0.421 -6.321,0.843 -9.27,1.433c-4.382,0.843 -9.186,5.394 -11.629,8.849c-2.108,2.864 -2.36,5.731 -4.635,8.427c-2.528,2.949 -4.045,4.382 -3.961,8.174c0,2.106 0.59,5.308 0.084,7.331c-0.589,1.769 -1.77,2.275 -2.107,2.359c-8.174,-0.084 -14.748,0.253 -23.091,-2.78z" /> <path d="M354.595,485.153c-5.646,1.011 -11.039,2.78 -16.433,4.466c5.141,2.443 10.28,3.792 16.18,3.623c11.544,-0.253 23.091,0.168 34.72,-0.169c1.686,-0.085 3.539,-0.169 5.394,-0.169c-4.551,-1.096 -9.27,-2.696 -13.821,-4.129c-8.343,-2.527 -17.191,-5.141 -26.04,-3.623zM297.963,504.041c-15.252,0.253 -30.422,2.612 -45.759,2.612c-10.534,0 -20.983,0.169 -31.518,-0.253c-9.438,-0.506 -22.079,-0.338 -30.422,-5.563c-4.382,-2.781 -9.186,-5.477 -14.411,-6.489c-4.214,-0.843 -9.524,-0.168 -13.99,-0.59c-6.152,-0.59 -12.303,-1.433 -18.54,-1.602c-10.787,-0.421 -21.658,-0.084 -32.445,-0.084c-7.501,0 -15.339,-0.759 -22.754,0.506c-4.972,0.928 -9.691,2.024 -14.748,1.855c-3.118,0 -6.321,0.084 -9.523,0.084c-5.984,0 -11.966,0.085 -17.95,-0.084c-2.277,0 -4.045,0.168 -5.31,-2.107c0.675,-1.517 2.612,-1.601 3.961,-2.107c3.961,-1.518 7.416,-3.539 11.292,-4.804c2.443,-0.842 7.584,-3.203 7.331,-6.405c1.602,-0.675 3.203,-1.181 1.18,-1.518c3.878,0.085 6.995,-0.674 10.703,-1.686c13.23,-3.708 27.388,-6.404 41.125,-6.91c1.011,-0.506 2.022,-1.012 3.118,-1.602c2.443,-1.349 4.971,-2.358 7.162,-4.129c1.601,-1.349 2.696,-2.865 4.719,-3.708c3.204,-1.517 6.996,-1.264 10.451,-2.023c1.939,-0.506 3.624,-1.265 5.647,-1.602c6.656,-1.097 15.337,1.348 21.152,4.466c2.78,1.602 4.972,3.708 7.584,5.394c3.623,2.277 8.427,4.214 12.303,5.647c4.045,1.347 8.09,2.106 12.051,2.78c0.925,-0.084 1.769,-0.253 2.696,-0.253c6.488,-0.337 13.146,-0.421 19.635,0.169c4.804,0.421 9.186,2.105 13.821,3.37c0.337,0.084 0.59,0.169 0.843,0.253c3.792,0.168 12.893,0.42 17.95,2.359c3.034,-0.084 6.069,-0.168 9.102,0.169c4.635,0.421 9.018,1.854 13.737,2.107c4.383,0.253 8.765,0.168 13.147,0.084c3.118,0 6.237,-0.253 9.355,-0.169c6.069,0.252 11.798,1.769 17.782,2.359c1.264,0.084 2.443,0.169 3.539,0.253c8.092,-4.045 16.603,-8.848 23.597,-14.411c5.731,-4.72 9.102,-14.327 17.866,-12.894c4.635,0.759 7.922,1.855 11.292,4.804c2.864,2.612 5.056,5.31 7.668,8.006c1.686,1.77 4.129,2.948 6.068,4.466c3.708,2.612 6.741,7.078 11.123,8.68c1.686,0.589 3.792,0.42 4.804,2.191c0.422,0.673 -0.084,1.769 0.253,2.612c0.169,0.421 1.096,0.927 1.349,1.433c0.252,0.59 0.59,1.349 0.674,2.023c1.602,-0.253 3.202,-0.59 4.635,-1.096c3.539,-1.18 6.321,-3.454 9.86,-4.466c3.287,-0.843 6.575,-1.431 9.355,-3.37c1.263,-0.842 2.19,-1.601 3.202,-2.275c-0.928,-0.338 -1.434,-0.844 -0.422,-1.771c0.928,-0.844 3.961,-0.928 5.31,-1.518c7.668,-3.371 13.147,-5.141 21.911,-4.804c12.137,0.504 24.019,2.527 36.238,2.443c9.185,-0.084 19.046,-1.01 28.063,1.265c5.645,1.432 10.112,2.359 15.927,2.359c6.068,0 11.291,-0.422 17.191,-1.771c6.488,-1.515 13.23,-1.853 19.719,-3.286c1.769,-0.421 6.151,-2.444 8.09,-2.107c0,0.337 0,0.759 0,1.096c-5.645,5.14 -5.814,13.062 -7.247,15.085c-1.265,1.686 -3.286,2.612 -4.888,3.961c-2.275,1.855 -3.371,4.214 -6.489,5.057c-2.274,0.59 -5.056,0.168 -7.415,0.084c-3.288,0 -6.743,0.253 -10.113,0.084c-5.984,-0.337 -12.388,-3.792 -18.456,-4.972c-5.9,-1.094 -11.629,-1.938 -17.613,-2.612c-3.034,-0.337 -5.984,-1.096 -8.849,-1.939c-0.337,0.084 -0.759,0.168 -1.096,0.337c-4.551,2.107 -9.692,3.707 -14.496,5.225c-6.657,2.023 -13.905,-1.685 -20.478,-2.865c-4.635,-0.759 -9.776,-0.253 -18.203,-0.253c2.443,0.506 5.898,-1.853 7.837,-2.949c2.865,-1.517 5.141,-4.298 8.259,-5.225c2.696,-0.844 4.973,0.337 7.753,0.674c0.506,0 1.096,0 1.602,0.084c-0.841,-0.253 -1.6,-0.506 -2.443,-0.759c-5.479,-1.433 -12.472,-0.59 -17.782,-0.506c-3.624,0 -7.248,0.084 -10.871,0.084c-2.527,2.696 -4.213,5.476 -7.415,7.331c-6.659,3.792 -14.917,9.352 -22.67,11.123c-5.14,1.18 -9.86,0.927 -15.085,0.337c-6.068,-0.758 -12.303,-3.623 -18.54,-2.949c-4.214,0.506 -8.512,2.443 -12.641,3.539c-8.006,2.021 -16.348,3.201 -24.607,3.623c-15.252,0.674 -30.506,-0.253 -45.843,0z" /> <path d="M314.479,545.23c-12.221,-0.422 -24.271,-0.337 -36.322,-2.949c-5.392,-1.18 -10.701,-3.539 -16.095,-4.466c6.404,0.758 14.326,1.011 20.815,0.084c3.202,-0.42 5.984,-2.106 9.186,-2.443c2.191,-0.253 4.719,0 6.91,0.253c4.382,0.337 8.68,1.096 13.062,1.096c3.793,0.084 7.247,-0.843 10.955,-1.096c2.36,-0.253 3.792,-0.253 5.815,-1.012c2.359,-0.842 4.551,-1.601 6.994,-2.275c3.623,-0.928 5.478,-2.359 8.511,-4.214c1.855,-1.096 3.287,-1.096 5.394,-1.096c10.45,-0.169 20.983,0 31.518,0c12.557,0 25.788,1.349 38.344,-0.59c9.437,-1.6 19.045,-0.672 28.568,-2.443c9.437,-1.769 19.045,-1.769 28.568,-3.792c3.033,-0.591 5.815,-0.506 8.933,-0.422c7.585,0 15.086,-0.084 22.67,0c6.656,0 13.314,0.085 19.887,-0.927c4.383,-0.59 8.68,-2.19 12.894,-3.286c4.72,-1.263 9.439,-2.949 14.243,-3.118c2.696,-0.169 5.479,0.084 8.259,0.084c7.753,0 17.192,1.263 24.523,-1.602c3.203,-1.349 6.49,-2.864 9.692,-4.382c1.937,-0.843 4.634,-3.286 6.741,-3.792c0.926,-0.169 2.022,0.084 2.949,0.253c4.298,0.591 8.427,1.096 12.725,1.518c9.017,0.843 17.781,0 26.63,1.939c10.281,2.19 19.382,0.926 29.664,-1.686c5.056,-1.349 10.366,-2.36 15.085,-4.719c2.612,-1.349 4.467,-2.781 7.247,-3.708c5.646,-1.77 13.483,-1.517 19.383,-0.843c5.477,0.674 10.28,3.202 15.337,5.225c5.815,2.277 12.05,3.54 17.95,5.563c6.153,2.021 12.81,2.021 19.131,3.539c8.933,1.939 17.697,1.517 26.799,1.433c9.86,0 19.635,0 29.411,0c0.422,-0.421 1.433,0.926 3.708,2.191c1.179,0.675 2.106,0.253 3.118,1.518c-2.867,-0.169 -3.372,0.674 -5.563,1.18c-2.527,0.59 -5.984,0 -8.511,0c-6.995,0 -13.651,1.265 -19.551,5.394c-6.657,4.551 -14.327,2.951 -21.742,5.731c-9.774,3.707 -22.584,3.623 -32.697,0.927c-8.428,-2.19 -16.096,-7.078 -24.776,-7.5c-4.635,-0.253 -9.439,0.253 -14.074,0.253c-4.382,0 -8.764,0 -13.062,0c-2.528,2.274 -4.888,4.887 -7.5,7.078c-4.635,4.045 -10.954,6.321 -16.517,8.764c-4.298,1.937 -6.488,4.045 -11.629,3.792c-4.972,-0.336 -10.787,-3.709 -14.748,-6.489c-3.286,-2.361 -6.236,-5.731 -8.427,-9.186c-1.77,0.168 -3.539,0.421 -5.225,0.674c-7.837,1.012 -16.432,0.759 -24.691,0.506c-5.815,2.107 -11.713,4.13 -17.444,6.573c-8.006,3.539 -14.749,8.343 -22.08,12.641c-2.192,1.265 -3.709,1.349 -6.321,1.265c-6.488,-0.253 -13.566,-0.673 -19.719,-2.696c-6.91,-2.274 -14.242,-3.876 -20.815,-6.825c-2.696,-1.265 -5.478,-2.781 -8.174,-4.214c-21.067,1.686 -42.051,1.433 -63.203,1.433c-10.029,0 -20.056,0 -30.001,0c-3.457,0 -7.081,-0.59 -10.451,0.422c-12.052,3.455 -23.345,10.364 -35.901,12.135c-11.04,1.602 -24.018,1.264 -34.973,0.59c-7.247,-0.42 -14.243,-2.022 -21.405,-2.275z" /> <path d="M215.737,538.586c-7.837,0 -5.645,-0.253 -2.949,1.18c1.349,0.757 2.443,1.853 3.961,2.443c5.731,2.276 12.472,0.674 18.456,1.433c1.686,0.168 11.799,1.011 10.619,4.129c-1.181,3.033 -6.069,3.286 -8.849,2.78c-0.675,-0.084 -0.759,-0.927 -1.518,-1.18c-2.78,-0.843 -8.174,0.084 -11.207,0.084c-4.213,0 -7.837,-0.084 -11.966,-0.927c-2.023,-0.337 -4.466,-0.506 -6.489,-0.337c-3.372,0.337 -6.49,2.107 -9.945,1.18c-2.445,-0.675 -1.939,-1.434 -4.972,-0.422c-8.258,2.698 -15.252,4.719 -24.101,5.141c-5.731,0.253 -11.376,0.253 -17.107,0.253c-12.05,0 -23.681,0.168 -35.479,-1.518c-6.237,-0.928 -11.882,-4.045 -17.782,-4.551c-2.78,-0.253 -5.984,-0.169 -8.764,0.084c6.152,-1.18 13.989,-1.433 19.467,-4.888c1.349,-0.841 2.443,-1.853 3.961,-2.359c2.528,-0.843 5.394,-0.422 8.006,-1.349c5.984,-2.022 11.967,-0.421 18.035,-2.612c2.949,-1.012 6.069,-2.106 8.596,-3.961c0.674,-0.506 1.264,-1.349 2.107,-1.855c3.035,-2.024 6.321,-1.265 10.282,-1.265c2.19,0 5.477,-0.59 7.584,0.084c1.347,0.421 2.19,1.937 3.286,2.696c2.443,1.769 5.225,2.275 8.174,2.191c1.939,-0.084 3.37,-0.674 5.225,-1.096c2.78,-0.506 5.815,0.084 8.68,0.337c6.404,0.506 13.819,-0.336 19.972,1.855c1.686,0.588 2.948,2.274 4.719,2.443z" /> <path d="M356.679,577.934c0.168,0 8.848,-0.421 10.366,-0.084c1.094,0.253 2.022,0.759 2.949,1.349c-13.063,0 -26.125,-0.084 -39.187,-0.084c0.925,0 1.769,-0.084 2.696,-0.253c4.214,-0.674 7.669,-0.927 12.051,-0.927h11.123z" /> <path d="M334.291,574.395c1.097,0.168 1.687,0.927 -4.466,4.719h1.012c-4.298,0.337 -8.68,0 -12.894,0h-4.804c-1.094,0 -9.521,-0.843 -11.46,-0.084c-0.253,0.168 -0.758,0.927 -0.927,0.927c-3.372,0.926 -6.574,2.106 -10.113,2.612c-1.855,0.253 -4.298,-0.168 -6.237,0.169c-2.359,0.337 -4.635,1.18 -6.994,1.686c-2.023,0.506 -3.792,0.674 -5.815,0.843c-9.606,0.506 -19.55,0.253 -28.989,-0.927c1.517,-5.982 -24.102,-6.488 -26.209,-6.741c2.276,-2.445 10.366,-1.687 13.315,-1.771c8.933,-0.505 18.203,0.168 26.883,-2.191c2.443,-0.59 4.551,-1.686 7.078,-1.855c6.994,-0.422 14.158,0.084 21.152,0.084c9.355,0 18.035,0 27.221,0.927c5.563,0.59 11.292,1.012 16.939,1.349c1.687,0.084 3.708,-0.084 5.31,0.253z" /> <path d="M991.757,551.224c1.854,0.085 4.129,1.181 6.068,1.518c0.253,2.024 -2.949,3.877 -4.298,4.804c-3.708,2.528 -5.731,1.938 -9.776,2.191c-2.107,0.085 -4.045,0.759 -6.068,1.012c-5.309,0.759 -10.955,-0.675 -16.18,0.337c-2.275,0.422 -4.298,1.181 -6.657,1.771c-6.657,1.517 -13.315,1.264 -20.056,2.023c-6.825,0.758 -14.579,1.347 -21.236,3.033c-3.118,0.758 -5.394,2.274 -8.343,3.37c-4.466,1.769 -9.017,1.853 -13.568,2.949c-4.298,1.096 -8.427,3.201 -12.725,4.466c-10.957,3.118 -24.778,4.13 -35.985,4.214c-6.91,0 -12.81,-1.01 -19.551,-2.275c-7.5,-1.431 -15.086,-1.431 -22.501,-3.202c-5.392,-1.265 -10.617,-3.539 -16.095,-4.298c-2.78,-0.421 -5.647,-0.421 -8.427,-0.674c-5.646,-0.589 -12.05,0.422 -17.697,1.518c-3.792,0.673 -7.5,1.685 -11.292,2.275c-5.056,0.674 -9.776,-0.169 -14.411,1.686c-9.774,3.877 -19.55,8.006 -28.905,12.894c-5.478,2.865 -10.786,6.91 -16.601,8.849c-4.045,1.431 -8.512,2.021 -12.641,2.527c-4.13,0.591 -10.451,2.192 -14.496,1.518c-3.119,-0.506 -3.961,-1.937 -6.068,-3.876c-6.235,-5.647 -11.797,-7.499 -19.803,-9.27c-4.298,-0.927 -8.427,-2.274 -12.641,-3.37c-6.152,-1.518 -13.23,-1.518 -19.467,-1.771c-14.664,-0.506 -29.242,0.169 -43.906,-1.18c-11.46,-1.012 -23.344,-0.506 -34.973,-0.253c-13.4,0.253 -26.293,6.152 -39.187,9.017c-2.106,0.422 -5.562,1.518 -7.753,0.422c-0.422,-0.169 -1.18,-1.433 -1.349,-1.602c-2.529,-2.024 -1.181,-1.518 -4.804,-1.771c-8.849,-0.59 -18.288,0 -26.968,-1.18c-1.686,-0.253 -3.455,-0.928 -5.141,-1.265c-3.455,-0.674 -8.258,0.253 -11.376,-1.433c-0.757,-0.42 -1.601,-1.769 -2.275,-2.191c-1.18,-0.843 -2.443,-1.096 -3.792,-1.602c-2.192,-0.759 -3.794,-0.843 -6.237,-0.843c-5.647,0.084 -11.629,-0.506 -17.276,0.337c-3.202,0.421 -5.984,0.927 -9.186,0.927c-4.635,-0.084 -9.776,0.591 -14.158,-1.18c-1.434,-0.588 -2.696,-1.6 -3.961,-2.359c16.854,0 33.624,0 50.478,-0.084c13.063,0 24.607,-5.731 37.248,-8.09c5.9,-1.18 12.473,-1.011 18.288,0.422c9.271,2.191 15.674,2.949 25.366,2.865c12.725,-0.085 25.871,1.096 38.512,-0.169c3.541,-0.336 6.827,-1.685 10.366,-2.107c4.044,-0.506 8.174,-0.253 12.303,-0.253c17.022,0.084 34.551,1.18 51.574,-0.253c3.455,-0.253 6.321,-0.675 9.523,-1.771c6.573,-2.359 12.557,-2.949 19.635,-2.865c4.636,0 12.473,-1.347 16.939,1.012c5.647,2.864 7.586,6.994 14.496,8.427c4.635,0.927 9.861,1.602 14.58,1.349c4.045,-0.168 8.006,-0.842 11.882,-2.191c3.456,-0.42 6.827,-1.263 10.029,-2.443c3.118,-1.518 5.731,-3.792 8.933,-5.31c6.319,-2.948 13.482,-1.515 19.887,-3.37c4.298,-1.264 6.825,-3.539 11.46,-3.455c8.343,0.169 16.517,0.337 24.776,-1.686c3.371,-0.758 8.512,-3.876 12.388,-4.466c1.518,-0.253 4.973,0.084 6.153,0.084c5.984,0 12.051,0.253 18.119,0.084c5.225,-0.084 11.797,-1.854 16.854,-0.927c0.084,2.53 1.012,5.478 3.792,5.9c2.275,-0.337 4.635,-0.674 6.91,-1.096c2.108,0.084 4.13,0 6.153,-0.422c6.826,-1.686 13.484,-5.731 20.478,-5.984c2.698,-0.084 7.249,-0.759 9.776,0c1.18,0.337 2.275,1.937 3.455,2.78c5.141,3.373 6.742,4.214 13.231,1.855c1.77,-0.504 3.37,-1.347 4.888,-2.359c2.275,-0.168 4.635,0 6.91,0.506c5.477,0.588 10.954,1.431 16.348,2.527c2.276,1.601 4.466,1.77 6.405,0.674c1.434,-1.011 3.033,-1.686 4.804,-2.023c3.96,-0.422 7.837,-0.928 11.713,-1.518c4.129,-0.675 8.006,-1.265 12.135,-1.265c6.741,0 13.483,2.949 20.056,2.696c2.022,-0.084 4.718,-1.012 6.741,-1.602c2.78,-0.843 5.225,-3.708 8.174,-3.539z" /> <path d="M303.833,625.97c0.757,-0.169 2.274,-1.096 2.78,-1.265c0.084,0 0.084,0 0.084,0c7.499,0.253 14.832,0.675 22.332,1.012c4.298,0.085 8.511,-0.084 12.809,-0.337c2.192,-0.673 3.876,-0.169 4.972,1.602c2.527,2.443 5.141,4.718 7.921,6.825c1.855,1.6 3.962,2.696 6.237,3.286c1.77,1.264 2.78,3.454 4.466,4.719c3.286,2.612 9.102,0.169 12.725,-0.927c4.466,-1.433 9.017,-3.033 13.568,-3.876c5.224,-0.843 10.533,-1.011 15.843,-0.337c3.792,-0.505 7.08,0.252 9.945,2.275c-0.169,1.01 0.084,1.937 0.927,2.696c1.602,1.515 3.54,2.696 5.731,3.37c6.909,2.95 14.242,4.973 21.742,5.057c4.298,0 8.596,-0.084 12.894,-0.084c0,0 0,0 0.084,0c1.265,0 2.528,0 3.708,0c3.708,0 7.332,0.084 10.955,0c9.101,-0.253 17.866,-2.865 26.883,-3.539c6.741,-0.506 13.399,0.337 20.056,-0.337c10.954,-1.096 21.658,-4.382 32.781,-5.478c6.069,-0.506 11.967,-0.169 17.782,-1.349c3.707,-0.843 8.511,-0.843 12.303,-0.169c-8.596,3.878 -17.697,7.501 -26.546,10.703c-6.488,2.275 -13.652,4.298 -20.562,3.708c-3.708,-0.337 -7.247,-1.265 -10.955,-1.349c-7.501,-0.337 -15.17,0.759 -22.67,1.096c-0.506,0 -1.012,0 -1.518,0c-0.672,2.191 -5.139,3.371 -6.825,4.298c-2.359,1.265 -4.804,3.287 -7.5,4.214c-11.882,4.214 -24.776,5.141 -37.248,5.141c-5.394,0 -11.123,0.59 -16.433,0.084c-5.309,-0.421 -7.416,-5.56 -11.882,-7.078c-4.635,-1.6 -10.113,-0.673 -14.664,-2.612c-2.443,-1.011 -4.972,-2.696 -7.584,-3.876c-1.01,0 -2.022,0 -2.949,0c-11.376,0 -22.754,1.265 -34.13,1.349c-13.4,0.084 -25.197,-0.759 -38.091,-5.141c-8.512,-2.948 -17.192,-4.55 -26.209,-4.719c-5.056,-0.085 -12.05,1.685 -16.601,-0.422c-0.252,-0.422 -0.505,-0.843 -0.674,-1.265c-1.18,-0.422 -2.359,-0.843 -3.539,-1.265c-2.866,-0.843 -6.406,-1.686 -9.439,-1.939c-7.753,-0.421 -14.915,2.528 -20.815,7.247c-2.949,2.274 -5.141,2.949 -8.764,3.539c-1.686,0.253 -3.455,-0.085 -4.551,1.433c-0.927,1.264 -0.337,2.696 -0.674,4.129c-0.253,1.349 -1.012,2.696 -1.265,4.298c-1.939,-0.084 -4.466,-4.466 -5.225,-6.068c-1.771,-3.876 1.349,-8.68 4.129,-11.46c2.949,-2.95 8.09,-4.635 11.966,-5.815c7.837,-2.612 16.517,-1.854 24.523,-4.045c2.527,-0.757 4.719,-1.515 7.078,-2.78c2.192,-1.262 3.626,-2.358 6.153,-2.527c5.139,-0.421 10.617,0.843 15.758,0.169c2.696,-0.336 5.562,-1.517 8.174,-2.191z" /> <path d="M308.533,624.454c-0.675,0.084 -1.265,0.169 -1.855,0.253c-3.287,-0.084 -6.574,-0.253 -9.86,-0.253z" /> <path d="M316.157,624.454h-7.668c2.527,-0.253 5.645,0 7.668,0z" /> <path d="M822.318,628.081c11.629,-0.085 23.344,0.506 34.889,0.084c-0.338,0.169 -0.675,0.169 -1.012,0.422c-8.09,2.696 -16.348,5.14 -24.607,7.331c-10.786,2.274 -21.742,2.021 -32.613,3.37c-13.315,1.602 -26.799,4.551 -40.283,4.551c-7.753,0 -14.412,-3.961 -22.08,-5.647c-10.533,-2.192 -20.646,2.443 -29.916,7.078c-4.888,2.443 -9.607,5.141 -14.158,8.174c-4.213,2.782 -7.331,5.478 -12.303,6.321c-8.428,1.432 -17.023,2.528 -25.619,2.359c-4.888,-0.168 -9.692,-2.275 -14.327,-2.359c-5.478,-0.169 -12.135,2.782 -17.276,5.225c-3.793,1.768 -6.405,2.527 -10.871,3.623c-5.816,1.347 -12.725,3.792 -5.563,-1.771c0.505,-1.433 1.6,-2.78 2.612,-3.876c3.623,-4.467 9.27,-9.439 14.074,-12.641c2.443,-1.516 5.141,-2.612 8.09,-3.202c3.709,-1.264 7.248,-2.78 10.787,-4.466c2.527,-0.337 5.141,-0.337 7.668,-0.084c6.237,0.084 12.387,0.084 18.54,0c4.214,0.084 6.827,0.843 10.535,-0.843c6.994,-3.288 12.219,-7.922 19.803,-9.945c3.961,-1.094 8.006,-2.021 12.051,-3.033c0.252,-0.253 0.421,-0.422 0.674,-0.759c3.371,-4.298 7.669,-6.574 12.135,-9.523c2.108,-1.432 2.867,-2.275 5.563,-2.359c5.984,-0.253 14.074,-0.674 19.046,2.359c0.674,0.421 1.348,0.758 2.107,1.18c1.433,-0.168 2.949,-0.253 4.382,-0.337c2.865,-0.422 5.815,-0.759 8.68,-1.096c1.431,-0.084 2.443,0.422 3.202,1.602c2.951,1.937 6.237,3.117 9.776,3.539c4.214,0.926 8.68,2.275 12.978,2.359c8.427,0.253 16.517,0.253 24.944,1.855c2.949,0.506 5.141,0.506 8.09,0.506z" /> <path d="M861.021,627.993c-1.265,0.085 -2.527,0.085 -3.792,0.169c1.349,-0.675 2.696,-0.843 3.792,-0.169z" /> <path d="M741.147,714.63c-3.96,4.635 5.898,3.539 7.247,3.961c-1.518,1.01 -3.37,1.853 -5.141,2.443l-4.382,0.843c-6.406,1.096 -12.81,2.359 -19.215,3.708c-23.26,2.443 -46.855,-3.792 -70.115,-1.012c-6.657,0.759 -13.736,3.96 -20.225,5.225c-6.405,0.421 -12.725,1.6 -18.793,3.539c-4.972,1.012 -9.607,2.951 -13.821,5.9c-6.068,2.95 -11.966,6.237 -17.95,9.439c-9.776,5.141 -20.478,8.259 -30.844,11.798c-6.826,2.358 -12.136,3.96 -19.467,3.37c-10.197,-0.843 -18.709,-6.237 -27.726,-10.535c-14.327,-6.742 -28.485,-10.704 -44.075,-13.231c-13.063,-2.108 -26.125,-3.71 -39.187,-6.237c-16.013,-3.119 -32.362,-5.141 -48.71,-6.237c-8.933,-0.675 -18.793,-1.855 -27.726,-0.169c-4.382,0.843 -8.68,2.443 -12.978,3.708c-3.372,0.926 -3.035,1.768 -6.068,3.033c-8.595,3.455 -17.275,-0.759 -25.281,-3.792c-6.825,-2.612 -13.737,-5.982 -21.068,-7.247c-6.911,-1.181 -15.844,0.084 -22.754,0.084c-6.994,-0.084 -13.821,-0.253 -20.731,0.506c-8.427,0.927 -16.686,2.023 -25.197,2.107c-13.231,0 -26.124,-4.972 -39.355,-5.141c-7.671,-0.085 -15.676,0.927 -23.176,-0.422c-6.993,-1.263 -13.905,-4.13 -21.236,-3.118c-3.625,0.506 -6.996,2.024 -5.9,-3.623c8.09,0.421 15.843,-0.506 23.933,-1.518c12.304,-1.602 24.692,-3.371 36.995,-5.31c15.674,-2.022 31.519,-3.034 47.277,-2.865c13.4,-0.337 26.715,-0.422 40.03,-0.253c4.551,-1.602 8.007,-0.674 10.282,2.696c0.925,1.265 1.769,2.612 2.696,3.961c3.877,4.213 8.848,6.152 14.748,5.815c10.029,1.011 20.646,-0.59 30.591,-1.096c9.605,-0.422 19.297,0.253 28.82,-0.253c5.731,-0.337 9.27,1.348 14.58,3.539c6.235,3.371 12.893,5.561 19.887,6.573c7.078,-0.253 14.243,-0.337 21.405,-0.253c23.091,-0.084 46.686,1.433 69.356,-3.202c9.27,-1.938 18.288,-4.802 27.558,-6.573c4.971,-0.927 6.657,1.265 11.292,3.708c10.955,5.813 21.574,7.415 34.046,7.668c10.872,0.59 21.574,-0.252 32.277,-2.443c13.568,-1.855 26.883,-4.719 40.03,-8.68c13.82,-2.696 27.388,-3.623 41.125,-4.129c-1.77,-1.349 -2.696,-2.78 -4.129,-4.551h48.373c3.288,0 7.333,-0.59 10.535,0.169c-1.178,1.854 -1.6,3.96 -2.443,5.815c5.139,0.759 10.28,1.265 15.505,1.265c3.624,-1.431 6.659,-1.095 9.102,1.012z" /> <path d="M833.558,683.358c3.12,-0.337 6.912,-1.939 9.945,-0.927c2.024,5.647 -17.781,8.596 -20.899,9.523c-7.838,2.275 -15.675,5.14 -23.765,6.573c-5.478,0.928 -13.737,1.855 -19.215,0.422c-1.349,-0.336 -3.792,-1.431 -4.804,-2.443c-3.12,-3.033 -2.192,-3.539 -1.518,-4.551c0.084,0.337 0.169,0.674 0.253,1.096c1.434,0.253 3.455,-1.685 4.804,-2.359c3.372,-1.518 7.164,-2.528 10.619,-3.961c7.67,-3.034 16.181,-2.359 23.681,-4.214c4.297,-1.011 8.089,0.675 12.303,1.012c2.781,0.253 5.816,0.084 8.596,-0.169z" /> <path d="M177.362,630.435c-4.045,1.518 -8.09,1.939 -12.388,1.855c-16.602,-0.421 -33.204,-2.19 -49.805,-2.612c-11.46,-0.337 -22.67,-1.18 -34.13,-1.096c-5.225,0 -9.944,0.085 -15.001,-1.18c-11.714,-3.034 -24.861,-1.179 -36.827,-2.191c-1.433,-0.084 -3.623,0 -4.635,-1.18c1.181,-1.855 4.298,-1.433 6.153,-1.602c4.129,-0.504 8.09,-1.347 12.135,-2.359c2.696,-0.758 4.972,-1.18 7.837,-1.18c6.069,0.084 12.978,-2.277 18.878,-1.012c1.855,0.422 3.034,1.096 5.057,1.012c2.612,0 5.225,-0.169 7.837,0c4.72,0.253 9.186,1.264 13.99,1.18c5.647,0 11.46,-0.675 16.854,0.59c6.572,1.517 13.062,2.192 19.803,2.023c4.382,-0.169 8.511,-1.853 12.472,-3.539c5.56,-2.358 9.774,-2.864 16.095,-2.78c10.367,0.084 20.731,0.925 30.76,2.527c-8.764,9.522 -13.314,10.871 -15.085,11.545z" /> <path d="M458.203,829.493c-11.544,-1.347 -23.344,-2.358 -34.973,-2.527c-8.68,-0.085 -17.528,0.758 -26.124,-0.422c-8.849,-1.265 -17.023,-4.382 -26.04,-4.298c-6.068,0 -12.135,-1.096 -18.203,-1.349c-5.984,-0.169 -12.051,0.168 -18.035,0.084c-3.541,-0.085 -6.911,0.59 -10.366,0.927c-6.403,0.674 -13.482,0.758 -19.887,0.084c-2.949,-0.252 -6.153,-0.42 -8.596,-2.275c-1.18,-0.927 -2.358,-2.107 -3.539,-3.118c-1.181,-1.011 -4.467,-2.696 -4.804,-4.129c1.939,-2.782 10.198,-0.927 12.894,-1.096c4.804,-0.169 9.776,-2.106 14.411,-3.202c3.288,-0.674 7.164,-1.6 10.282,-2.949c5.479,-2.443 10.619,-5.309 9.945,1.18c0.505,0.674 3.707,-0.085 4.466,-0.169c9.523,-1.433 18.203,-5.984 27.389,-8.427c6.488,-1.771 13.062,-1.265 19.719,-1.265c9.439,0.085 18.288,0.421 27.558,2.612c13.989,3.203 28.146,3.625 42.304,6.068c8.68,1.515 16.939,2.696 25.703,2.527c1.601,0 4.803,-0.506 6.489,0.084c-0.084,1.095 0,2.443 0.59,3.37c4.973,0.338 9.861,-0.084 14.833,-1.18c11.376,-1.181 22.754,-3.036 33.961,-5.563c6.237,-1.602 12.136,-3.539 18.625,-3.961c7.248,-0.422 15.17,0.675 22.417,1.349c9.27,0.926 18.961,1.347 28.063,3.033c-12.642,2.022 -24.693,6.404 -36.491,11.292c-6.573,2.781 -13.062,6.488 -19.972,8.259c-5.562,1.433 -11.966,0.759 -17.613,1.433c-3.456,0.421 -7.417,0.841 -10.366,2.78c-1.516,0.927 -2.274,2.274 -3.539,3.286c-3.288,2.613 -5.731,2.36 -10.029,2.023c-6.994,-0.506 -13.905,-1.768 -20.899,-3.033c-3.287,-0.506 -6.405,-0.253 -9.86,-0.253c-6.994,0 -13.315,-0.337 -20.309,-1.18z" /> <path d="M259.209,402.647c6.994,0 14.833,-0.843 21.995,-0.253c-3.457,-0.926 -6.743,-2.443 -10.282,-2.865c-2.781,-0.337 -5.984,-0.168 -8.849,-0.084c-3.457,0.253 -6.912,0.759 -10.282,1.012c-0.42,0 -8.68,-0.253 -11.123,0.506c-0.422,0.168 -0.843,0.337 -1.265,0.59c0.674,0 1.433,0.084 1.939,0.084c5.984,0.338 11.882,1.012 17.866,1.012zM623.686,450.261c0.506,0.336 1.937,1.263 3.708,2.359c-0.506,0 -0.927,-0.084 -1.433,-0.084c2.78,0.843 5.898,2.021 7.331,3.792c-1.264,2.528 -8.764,-0.843 -10.703,-1.686c-2.529,-1.096 -2.951,-1.096 -5.731,-1.096c-6.488,0.085 -14.156,-0.756 -20.393,-2.527c-9.017,-2.611 -19.131,-3.455 -27.642,-8.174c-6.237,-3.372 -11.799,-7.417 -18.288,-10.282c-6.825,-2.949 -13.989,-3.033 -21.236,-3.286c-3.372,-0.085 -6.996,-0.506 -10.282,-1.265c-3.117,-0.674 -4.466,-1.852 -7.162,-3.37c-3.035,-1.77 -3.792,-3.035 -5.731,-5.731c-5.223,0.927 -10.449,1.77 -15.674,1.939c-7.163,0.337 -14.412,-0.253 -21.574,-0.253c-1.771,0.085 -3.623,0.169 -5.394,0.169c-1.265,0.085 -2.443,0.085 -3.708,0.169c-6.067,0.59 -10.617,2.612 -15.927,4.719c-8.68,3.455 -17.276,5.815 -26.293,8.09c-7.839,2.024 -15.002,4.382 -23.176,5.394c-7.416,0.843 -14.749,0.843 -22.164,1.096c-4.804,0.084 -8.596,-0.422 -13.315,-1.771c-7.331,-2.106 -14.412,-6.572 -21.827,-8.09c-5.225,-1.096 -12.978,2.19 -17.95,-0.422c-1.771,-0.843 -3.033,-3.118 -4.298,-4.551c-2.106,-2.36 -3.96,-3.96 -6.825,-5.225c-6.404,-2.867 -13.062,-1.181 -19.635,-1.771c-9.016,-0.843 -20.226,-5.225 -28.147,-9.439c-4.382,-2.275 -8.342,-2.612 -13.399,-2.865c-14.411,-0.505 -28.148,2.697 -40.873,9.102c-5.478,2.865 -11.882,4.804 -16.854,8.006c-6.573,0.59 -5.31,-1.516 -3.455,-3.202c4.972,-4.971 13.484,-8.848 20.225,-10.955c3.541,-1.179 7.164,-1.937 10.703,-3.37c3.118,-1.265 6.321,-3.202 9.607,-4.045c0.253,-0.085 0.506,-0.085 0.759,-0.169c1.602,-0.337 3.793,-0.337 5.9,-0.337c2.023,-1.18 3.96,-2.949 5.815,-4.298c2.106,-1.433 4.972,-4.045 7.331,-4.635c0.843,-0.253 2.19,0.084 3.202,0.084c4.888,0.084 9.861,0.084 14.833,0c3.035,-0.085 3.709,0.337 6.321,1.686c3.373,1.77 7.081,2.443 10.451,4.129c2.866,1.434 3.961,2.277 5.057,4.804c4.045,0.843 7.584,3.286 11.46,4.635c3.033,1.179 5.815,1.937 8.764,3.286c7.584,3.202 14.917,6.659 22.501,9.102c4.466,-0.168 8.849,-0.421 13.315,-0.674c6.235,-0.421 14.915,-0.59 20.225,-4.466c3.372,-2.444 6.659,-4.887 10.619,-6.489c3.96,-1.602 8.174,-3.624 12.303,-3.961c4.55,-0.422 10.197,-0.59 14.748,0c8.089,1.011 15.927,2.527 22.332,8.511c0.591,0.59 1.012,1.181 1.518,1.855c6.826,-0.252 13.653,-0.758 20.478,-2.107c14.496,-2.949 30.254,1.181 44.328,-3.623c4.298,-1.434 9.186,-3.624 14.243,-5.057c1.096,-0.843 2.275,-1.601 3.455,-2.023c1.18,-0.422 3.792,0.084 5.141,0.084c2.527,0 5.31,-0.422 7.837,-0.169c5.308,0.505 10.87,3.37 16.095,4.719c0.757,0.168 1.6,0.337 2.443,0.59c0.338,0 0.59,0 1.012,0.084c2.864,0.506 5.984,0.169 8.764,1.518c1.094,0.422 1.853,1.096 2.527,1.855c3.118,1.012 6.069,2.19 8.596,3.792c4.13,2.611 9.439,5.056 13.147,8.174c0.757,0.757 1.516,1.6 2.275,2.443c2.527,1.433 4.972,3.202 7.331,4.888c0.59,0 1.096,-0.084 1.686,-0.084c2.949,0 4.973,0.422 7.753,1.518c4.045,1.518 8.174,2.612 12.219,4.214c2.781,1.096 4.298,2.528 6.91,3.961c2.865,1.432 5.224,3.877 7.247,6.489c2.191,1.433 4.382,2.865 6.573,4.298z" /> <path d="M854.362,442.76c-1.349,1.349 -3.286,0.843 -5.057,1.433c-7.248,2.36 -12.473,10.113 -19.383,13.315c-5.476,2.53 -14.578,0.759 -20.309,0.759c-12.389,0 -24.103,-1.094 -36.154,-2.949c-6.321,-1.012 -11.713,-0.674 -17.95,0.253c-7.416,1.012 -15.085,0.085 -22.585,0.169c-11.208,0.168 -21.574,2.864 -32.613,3.623c-2.613,0.169 -4.214,0.59 -6.489,-0.253c-2.949,-1.012 -5.984,-3.792 -8.764,-5.394c-3.118,-1.769 -4.804,-2.191 -7.837,-2.865c-5.9,-1.263 -12.472,-4.382 -17.866,-7.247c-4.383,-2.443 -9.271,-4.635 -13.147,-7.753c-4.467,-3.539 -9.692,-5.815 -13.99,-9.523c-1.433,-1.18 -2.864,-2.359 -4.382,-3.539c-1.602,-1.179 -4.382,-2.021 -5.731,-3.286c-1.855,-1.684 -3.035,-4.635 -1.939,-7.162c1.769,-0.168 1.6,1.348 2.612,2.275c1.769,1.6 4.634,2.611 6.657,3.623c0.841,0.422 1.684,0.759 2.527,1.096c0.338,0.253 0.675,0.506 1.012,0.759c3.372,2.527 7.08,3.286 10.703,3.033c4.297,1.349 8.005,3.539 12.303,4.888c5.394,1.686 9.86,3.623 13.568,8.427c5.9,6.237 19.215,4.888 26.462,4.888c9.605,-0.084 19.381,0.59 28.736,-1.349c0.169,-0.421 0.253,-0.843 0.422,-1.18c0.841,-1.686 1.684,-3.033 2.443,-4.804c0.673,-1.686 1.179,-3.033 2.359,-4.551c1.686,-2.108 5.815,-5.141 8.511,-5.141c3.792,-0.084 7.416,3.961 11.292,4.888c2.78,0.675 4.551,2.191 7.331,3.118c2.192,0.759 3.287,0.338 5.394,0.422c3.877,0.085 6.575,2.106 10.198,3.961c0.757,0.422 1.6,0.843 2.359,1.265c8.342,2.192 16.854,5.141 25.281,5.984c5.731,0.59 12.05,-0.253 17.95,-0.253c7.163,0.084 14.159,-1.349 21.321,-1.265c2.697,0.084 12.557,-1.265 14.748,0.337z" /> <path d="M634.547,855.104c4.298,-2.275 6.827,-6.152 10.703,-8.764c1.602,3.372 -1.937,11.715 -3.623,14.664c-2.275,2.865 -4.635,5.816 -6.994,8.596c-2.108,2.527 -4.129,5.141 -5.984,7.837c-1.771,1.515 -3.288,2.021 -5.647,2.78c-8.428,2.698 -15.759,4.973 -24.776,5.647c-6.237,0.422 -12.557,0.674 -18.878,1.096c-5.309,0.337 -11.039,-0.59 -16.264,0c-6.152,0.591 -11.882,3.371 -17.697,5.31c-7.923,2.78 -15.001,4.298 -23.597,3.539c-3.876,-0.337 -5.057,-1.431 -8.933,-2.949c-4.13,-1.602 -8.765,-1.096 -13.147,-1.518c-3.708,-0.422 -7.331,-1.349 -11.039,-1.771c-4.888,-0.422 -9.776,-0.084 -14.664,-1.096c-6.994,-1.516 -13.653,-2.696 -20.984,-2.443l-3.792,-0.337c4.214,-2.358 8.849,-3.201 13.821,-3.37c2.108,-0.084 4.213,-0.337 5.984,0.843c2.866,1.854 2.276,3.876 5.984,4.045c6.069,0.253 12.051,-1.516 18.035,-2.443c8.427,-1.265 17.192,-2.698 25.366,-5.394c4.887,-1.602 10.449,-0.59 15.59,0c7.331,0.843 14.749,0.59 22.164,0.59c9.523,0 16.517,0.422 25.281,-3.623c3.878,-1.769 7.754,-4.129 10.703,-7.247c1.517,-1.518 2.275,-3.033 4.382,-4.045c1.686,-0.843 3.623,-1.264 5.478,-1.686c6.068,-1.518 12.219,-2.949 18.456,-4.045c4.804,-0.759 9.692,-1.939 14.074,-4.214z" /> <path d="M423.479,883.842l25.703,1.855c-0.253,0.084 -0.506,0.253 -0.759,0.337c-3.286,2.022 -5.309,4.298 -9.27,3.455c-5.223,-1.181 -10.364,-4.551 -15.674,-5.647z" /> <path d="M419.147,883.507c1.433,-0.085 2.865,0.084 4.298,0.337z" /></svg>