<svg xmlns="http://www.w3.org/2000/svg" viewBox="0 0 929 896" width="929" height="896"><path d="M925.271,306.875c22.54,31.794 -76.438,194.859 -171.887,305.657c-117.205,135.848 -289.682,336.007 -482.933,270.732c-161.108,-54.194 -267.729,-269.288 -269.885,-446.564c-0.392,-46.488 -1.764,-160.417 63.698,-212.203c60.758,-47.933 138.176,-10.358 150.916,-4.095c1.96,1.926 3.724,2.889 5.684,4.576c-6.663,13.487 -12.543,26.253 -19.207,49.136c-15.288,52.752 -43.903,151.023 -9.8,235.808c46.843,116.097 177.572,126.935 240.486,131.994c11.956,0.963 24.303,1.446 37.631,1.446c114.657,0 266.553,-40.708 296.344,-164.03c5.88,-24.568 3.724,-39.503 -1.372,-75.632l-4.116,-28.422c-1.176,-8.19 -1.764,-14.453 -2.744,-22.401c55.859,-13.007 90.158,-27.459 90.158,-27.459c37.827,-15.896 67.226,-32.516 77.026,-18.546zM533.475,503.419c52.331,0 102.113,-10.837 149.544,-28.903c-35.475,58.771 -150.916,91.528 -250.481,83.339c-50.175,-4.337 -154.444,-12.767 -183.647,-85.267c-6.86,-17.102 -8.232,-36.372 -7.84,-55.881c101.721,54.195 200.894,86.711 292.424,86.711zM253.202,334.09c2.94,-11.32 6.076,-22.642 8.82,-32.035c5.684,-20.233 9.016,-26.014 18.228,-43.355l11.172,-21.437c8.82,-17.342 10.388,-20.714 32.535,-69.61c36.847,-80.208 60.562,-124.286 71.146,-131.512c5.096,-3.613 15.484,-10.839 26.067,-10.839c1.176,0 2.548,0.241 3.92,0.483c6.076,0.963 8.428,3.613 15.876,12.766c9.016,10.839 22.343,27.218 45.275,31.794c36.847,6.503 63.698,-22.642 82.71,-44.56c11.564,-12.766 24.499,-26.255 31.359,-25.772c7.056,0.722 14.896,8.431 26.263,26.255c29.595,45.283 34.495,98.273 43.511,194.62c4.312,45.283 9.408,99.237 18.032,164.269c-1.764,0.722 -3.724,1.926 -5.684,2.65c-18.619,8.431 -36.651,12.524 -53.115,13.248c-39.591,9.635 -96.037,18.305 -163.264,10.357c-60.954,-7.226 -110.737,-25.772 -146.408,-42.634c-23.911,-10.598 -45.275,-22.642 -66.442,-34.685z" /></svg>