<svg xmlns="http://www.w3.org/2000/svg" viewBox="0 0 968 837" width="968" height="837"><path d="M146.621,154.017c5.238,7.857 10.476,15.714 15.714,23.571v0.045h632.675v-0.045c5.554,-7.406 11.063,-14.855 16.617,-22.262c-221.669,-0.452 -443.337,-0.858 -665.006,-1.31zM474.09,69.304l-202.433,62.857h405.632zM139.215,132.161h49.129l287.054,-91.666l284.661,91.666h44.569l-327.062,-109.593zM747.417,420.705h-44.659l7.722,54.909c15.082,-0.271 30.57,-0.452 45.923,-0.271zM759.295,493.314c-15.489,-0.271 -31.023,-0.09 -46.195,0.181l8.804,62.044h47.639l-10.25,-62.224zM703.702,555.538l-8.804,-61.682c-11.469,0.271 -23.165,0.452 -34.95,0.452c-5.734,0 -11.514,-0.09 -17.249,-0.09c0.903,14.404 1.806,28.764 2.709,43.078c0.318,6.096 0.724,12.102 1.04,18.243zM641.526,476.156c16.888,0.361 34.047,0.09 50.89,-0.181l-7.857,-55.27h-46.555c1.174,18.153 2.348,36.757 3.522,55.451zM635.521,381.871c0.452,6.638 0.858,13.186 1.31,19.959h13.411c0.632,-1.626 1.354,-3.072 2.167,-4.516zM664.871,384.446c0.632,-0.316 1.265,-0.722 1.987,-0.993l-5.283,-31.248l-4.877,-28.674c-8.715,1.535 -16.978,4.832 -24.429,9.618c0.361,6.186 0.812,12.462 1.264,18.875c0.09,1.264 0.181,2.618 0.271,3.928zM709.486,352.565l6.457,-11.605c-11.696,-10.16 -26.055,-16.708 -41.092,-18.243l5.057,29.667l4.832,28.764c2.619,0.452 5.057,1.265 7.496,2.439zM706.054,395.689c1.264,1.896 2.348,3.974 3.161,6.141h33.686c0.27,-17.657 -5.194,-33.732 -14.27,-46.646zM642.249,242.342c0.813,2.8 0.994,5.691 0.542,8.625c-0.812,6.502 -4.605,13.321 -10.882,20.049l-3.522,7.36c0.09,1.173 0.181,2.438 0.271,3.612h114.334l-0.858,-2.258c-7.044,-7.36 -12.869,-17.701 -12.508,-28.764c0,-2.303 0.361,-4.831 0.993,-7.27c0.271,-0.994 0.542,-1.897 0.903,-2.8h-89.724c0.181,0.451 0.362,0.992 0.452,1.444zM636.92,798.93c-4.38,-59.696 -9.618,-141.202 -14.992,-225.417c-0.181,-2.98 -0.361,-5.961 -0.542,-8.986c-0.633,-9.618 -1.175,-19.327 -1.897,-29.035c-2.393,-38.924 -4.831,-77.848 -7.27,-114.785v-0.903l-0.542,-8.083c0,-0.271 0,-0.632 -0.09,-0.903c-0.09,-2.709 -0.271,-5.419 -0.542,-8.083v-0.903c-0.993,-15.217 -1.987,-29.938 -2.98,-44.162v-0.993c-0.09,-1.581 -0.226,-3.206 -0.316,-4.832c-0.181,-2.709 -0.361,-5.464 -0.542,-8.083l-6.231,-5.69c2.077,1.897 4.154,3.793 6.186,5.69c-0.271,-3.974 -0.497,-7.812 -0.768,-11.605v-0.903c-0.633,-9.167 -1.265,-17.973 -1.897,-26.507c-0.18,-1.806 -0.271,-3.612 -0.361,-5.328c-0.09,-1.084 -0.181,-2.169 -0.271,-3.116c-0.362,-4.876 -0.723,-9.618 -1.084,-14.314c-0.09,-1.806 -0.271,-3.612 -0.361,-5.283c1.806,-3.612 3.522,-7.315 5.328,-10.882c2.213,-2.348 7.812,-8.354 9.212,-14.856c0.452,-1.942 0.452,-4.019 -0.045,-6.096c-0.451,-1.445 -1.174,-2.8 -2.167,-3.974c-5.328,-6.728 -18.333,-8.625 -27.319,-9.167h-0.271c-3.341,-0.181 -6.141,-0.271 -7.676,-0.271h-0.813c-2.935,0 -7.992,0.09 -13.456,0.722c-3.342,0.451 -6.638,1.083 -9.799,2.167c-4.426,1.265 -8.264,3.432 -10.341,6.548c-0.631,0.903 -1.173,1.896 -1.444,2.98c-0.632,2.438 -0.542,4.786 0.09,7.089c1.807,7.136 8.264,13.05 9.438,13.953l4.335,11.153l0.181,5.915l0.271,14.134l0.09,2.934l0.09,5.509l1.129,46.917l1.174,50.078l1.355,56.715l0.632,26.958l5.599,237.112l0.587,26.958l1.174,49.626h12.237zM550.628,749.302l-0.587,-26.958h-60.599l5.103,-237.112h49.897l-1.264,-53.916h-140.84c-0.451,8.896 -0.993,17.882 -1.535,26.958c-0.451,8.986 -0.993,17.972 -1.535,26.958h41.272l-5.057,237.112h-49.671c-0.452,9.257 -0.903,18.243 -1.355,26.958zM542.094,387.968c-20.14,-12.327 -44.027,-19.507 -69.269,-20.049h-2.709c-23.119,0 -45.471,5.689 -65.159,15.804c-0.542,10.701 -1.174,21.675 -1.806,32.828c18.784,-13.547 42.401,-21.675 66.966,-21.675h2.258c27.229,0.54 52.2,10.701 70.533,27.138l-0.813,-34.047zM428.211,240.897c1.355,2.98 1.987,6.141 2.077,9.618v0.452c0,7.044 -2.98,16.843 -15.985,25.919l-1.716,3.658l-0.722,1.444h127.835l-0.09,-2.348l-1.806,-4.561c-6.05,-6.322 -11.153,-14.856 -12.327,-24.113c-0.451,-3.297 -0.361,-6.639 0.452,-10.07h-97.717zM381.199,485.232c0.542,-9.076 1.083,-18.061 1.535,-26.958c1.264,-21.584 2.438,-42.807 3.612,-63.127c0.768,-15.534 1.581,-30.57 2.303,-45.02c0.723,-16.165 1.445,-31.564 1.987,-45.923c0.09,-2.258 0.181,-4.426 0.271,-6.548c0,-0.632 0.09,-1.355 0.09,-1.987c0.181,-4.335 0.271,-8.444 0.452,-12.598c0.181,-0.362 0.361,-0.723 0.542,-1.084c2.799,-5.825 5.554,-11.695 8.263,-17.52c11.064,-6.277 12.057,-11.425 12.057,-13.502v-0.09c-0.09,-3.657 -2.89,-7.089 -7.27,-9.979c-3.071,-1.942 -6.864,-3.749 -10.973,-5.193c-5.057,-1.806 -10.612,-3.161 -16.03,-3.793h-0.181c-1.49,-0.181 -3.116,-0.362 -4.651,-0.452h-3.612c-2.483,0 -6.096,0.09 -9.979,0.542c-7.993,0.904 -17.069,3.162 -20.817,8.897c-0.631,0.903 -1.173,1.896 -1.444,2.98c-0.722,2.348 -0.451,4.786 0.271,7.089c1.671,5.959 6.638,11.153 8.354,12.869c0.992,5.464 1.987,11.063 2.934,16.617l-0.135,1.535l-1.355,13.592l-0.181,1.626l-0.722,6.91l-3.522,33.144l-0.09,0.722v0.09l-1.174,11.695l-0.09,0.722l-0.09,0.993l-1.444,14.089l-3.748,36.26l-0.09,0.903l-0.903,8.083l-0.09,0.903l-0.813,8.083l-0.09,0.903l-14.043,134.834l-0.903,8.986l-0.947,8.986l-23.391,225.417h69.404c0.543,-15.171 1.174,-31.79 1.987,-49.626c0.452,-8.715 0.904,-17.701 1.31,-26.958c3.522,-71.074 8.76,-156.103 13.411,-237.112zM292.292,555.54l6.413,-61.321c-4.968,0.09 -9.8,0.09 -14.767,0.09c-11.74,0 -23.435,-0.181 -34.95,-0.452l-8.804,61.682zM187.488,475.343c15.398,-0.181 30.841,0 45.968,0.271l7.722,-54.909h-44.705l-8.986,54.638zM230.837,493.496c-15.217,-0.271 -30.752,-0.452 -46.195,-0.181l-10.25,62.224h47.639zM313.337,353.015l0.361,-3.431l1.444,-14.043c-8.353,-6.096 -17.881,-10.205 -27.951,-12.011l-4.426,25.784l-5.735,34.138c0.723,0.271 1.355,0.677 1.987,0.993zM308.234,401.83l2.303,-21.946l-19.056,17.43c0.813,1.445 1.535,2.89 2.077,4.516zM251.697,383.588c2.394,-1.175 4.832,-1.987 7.451,-2.439l5.374,-31.925l4.516,-26.507c-15.037,1.535 -29.397,8.083 -41.092,18.243l4.426,7.993h0.09zM251.517,475.975c16.166,0.271 32.693,0.542 48.994,0.271l5.735,-55.541h-46.917zM224.965,250.963c0.271,1.806 0.361,3.612 0.271,5.509c-0.451,6.999 -3.748,16.798 -16.888,25.513h112.347l0.09,-1.264l-1.49,-8.804l-0.722,-3.838c-3.703,-4.154 -7.948,-10.16 -9.167,-17.114c-0.632,-3.025 -0.632,-6.276 0.271,-9.618c0,-0.181 0.091,-0.271 0.181,-0.452h-88.369c1.806,3.071 2.935,6.503 3.477,10.07zM215.259,355.184c-9.077,12.915 -14.541,28.99 -14.27,46.646h33.686c0.813,-2.167 1.897,-4.244 3.161,-6.141l-22.578,-40.505zM19.372,514.221c-7.857,-20.907 -14.315,-42.491 -19.327,-64.618l37.841,-186.402l-37.073,-31.925l0.452,-6.999l-0.226,-0.497c1.038,-4.425 2.077,-8.85 3.251,-13.185c26.912,0.316 104.671,0.09 149.871,-0.045l1.31,-6.773l-45.968,-59.786l-8.309,-22.307l376.373,-121.379l372.037,121.83l-10.928,20.952l-39.376,59.922l2.393,5.825l165.856,3.206c0.135,0.497 0.271,0.948 0.406,1.4l-12.237,13.05l1.716,4.832l-35.356,35.808c11.244,78.932 22.442,157.909 33.641,236.886c-5.735,16.347 -12.238,32.286 -19.598,47.82l-56.219,-288.634h-23.797c-1.806,4.154 -4.787,8.354 -8.67,12.508l-1.851,3.838l-1.444,3.071c3.928,21.314 8.533,45.201 13.456,71.03l18.107,0.181l54.277,210.335c-14.991,29.442 -32.782,57.212 -53.057,82.951c-18.741,-97.174 -39.782,-205.955 -56.536,-293.737c-3.387,-18.334 -6.728,-35.809 -9.889,-52.065l-1.806,-0.09l1.355,-2.258v-0.09c-1.084,-5.825 -2.032,-11.424 -3.116,-16.888c0,-0.18 -0.09,-0.451 -0.09,-0.632c1.716,-3.567 3.477,-7.27 5.193,-10.882c1.354,-1.355 3.793,-4.019 5.87,-7.27c2.574,-3.974 4.651,-8.986 3.296,-13.637c-1.535,-5.328 -6.819,-8.58 -13.005,-10.431c-3.612,-1.174 -7.586,-1.806 -11.153,-2.258c-5.78,-0.632 -10.883,-0.632 -13.231,-0.722h-1.806c-2.258,0 -5.194,0.09 -8.625,0.361c-1.446,0.091 -2.845,0.271 -4.38,0.452c-4.967,0.632 -10.07,1.806 -14.134,3.928c-3.388,1.806 -6.007,4.245 -6.91,7.676c-0.18,0.813 -0.361,1.58 -0.361,2.393c-0.632,9.076 8.534,17.475 9.889,18.604l4.29,11.153l0.181,1.264l2.167,14.224l0.632,4.651l0.632,4.154l7.089,48l52.065,350.904c-88.911,82.544 -207.941,133.073 -338.847,133.073c-142.691,0 -271.294,-60.057 -362.102,-156.238l51.252,-328.732l0.542,-3.522l4.199,-27.59l2.709,-17.158l1.264,-7.993l1.264,-7.767v-0.09l0.722,-4.832l9.167,-13.772c11.289,-6.096 12.463,-11.56 12.553,-13.818c0.091,-1.536 -0.271,-3.072 -0.993,-4.516c-1.13,-2.755 -3.477,-5.374 -6.548,-7.722c-1.083,-0.813 -2.167,-1.626 -3.431,-2.348c-4.741,-3.025 -10.747,-5.554 -16.978,-7.27c-1.355,-0.361 -2.709,-0.722 -4.109,-0.993c-2.71,-0.542 -5.419,-0.993 -8.038,-1.174c-1.49,-0.091 -3.296,-0.181 -5.193,-0.181c-1.084,0 -2.168,0 -3.342,0.09h-0.09c-3.116,0.09 -6.547,0.452 -9.889,1.174c-1.672,0.271 -3.477,0.722 -5.103,1.264h-0.09c-0.994,0.271 -1.897,0.632 -2.8,1.084c-4.561,1.897 -8.173,4.696 -9.347,8.986c-1.987,7.361 4.155,15.308 8.083,19.327c1.355,1.445 2.529,2.439 2.89,2.8l0.632,14.45l-0.361,1.535l-2.709,13.411l-0.993,4.651v0.09l-9.979,48.091l-55.767,269.804c-20.771,-30.571 -38.066,-63.67 -51.703,-98.62l52.922,-171.636l25.694,0.181l13.592,-65.792l-0.452,-9.708c-2.258,-2.258 -5.012,-5.464 -7.27,-9.257h-28.989c-19.19,83.674 -38.337,167.347 -57.528,251.02z" /></svg>