<svg xmlns="http://www.w3.org/2000/svg" viewBox="0 0 706 960" width="706" height="960"><path d="M154.265,84.188c-1.442,0 -2.848,0.109 -4.261,0.217l11.852,-84.405h121.165c0.505,8.766 31.619,15.845 69.98,15.845c38.352,0 69.46,-7.079 69.972,-15.845h121.158l11.859,84.405c-1.414,-0.109 -2.827,-0.217 -4.261,-0.217z" /> <path d="M109.819,138.843c0,-22.497 16.964,-41.189 38.721,-44.022c1.881,-0.245 3.784,-0.418 5.724,-0.418h397.465c1.946,0 3.843,0.173 5.717,0.418c21.765,2.832 38.728,21.524 38.728,44.022c0,21.691 -15.759,39.85 -36.385,43.67c-58.698,-40.923 -129.967,-65.014 -206.789,-65.014c-76.829,0 -148.099,24.091 -206.796,65.014c-20.626,-3.822 -36.385,-21.979 -36.385,-43.67z" /> <path d="M551.727,875.804c1.442,0 2.848,-0.109 4.261,-0.217l-11.852,84.412h-121.165c-0.49,-8.772 -31.612,-15.851 -69.972,-15.851c-38.36,0 -69.476,7.078 -69.98,15.851h-121.158l-11.852,-84.412c1.406,0.109 2.819,0.217 4.253,0.217z" /> <path d="M596.175,821.152c0,22.499 -16.963,41.183 -38.728,44.016c-1.874,0.245 -3.777,0.418 -5.717,0.418h-397.465c-1.947,0 -3.842,-0.173 -5.724,-0.418c-21.765,-2.834 -38.728,-21.518 -38.728,-44.016c0,-21.699 15.766,-39.856 36.392,-43.67c58.704,40.915 129.967,65.006 206.789,65.006c76.829,0 148.085,-24.091 206.789,-65.006c20.625,3.814 36.392,21.973 36.392,43.67z" /> <path d="M460.043,766.486c116.017,-43.489 198.837,-155.481 198.837,-286.489c0,-131.008 -82.82,-243.007 -198.845,-286.489c-4.866,-1.824 -9.776,-3.54 -14.75,-5.111c-5.947,-1.889 -11.974,-3.583 -18.073,-5.111c-23.776,-5.946 -48.626,-9.147 -74.219,-9.147c-25.585,0 -50.443,3.2 -74.219,9.147c-6.092,1.529 -12.126,3.222 -18.073,5.111c-4.974,1.572 -9.884,3.288 -14.743,5.111c-116.031,43.482 -198.851,155.481 -198.851,286.489c0,131.008 82.82,243 198.837,286.489c4.866,1.824 9.776,3.532 14.75,5.111c5.948,1.889 11.982,3.583 18.081,5.111c23.776,5.947 48.634,9.155 74.219,9.155c25.593,0 50.443,-3.208 74.219,-9.155c6.1,-1.529 12.134,-3.222 18.081,-5.111c4.981,-1.579 9.891,-3.288 14.75,-5.111zM705.308,479.997c0,118.306 -58.386,222.91 -147.853,286.792c-2.256,1.607 -4.47,3.251 -6.762,4.808c-2.588,1.759 -5.256,3.424 -7.894,5.111c-54.79,35.121 -119.889,55.564 -189.804,55.564c-69.908,0 -135.007,-20.444 -189.797,-55.564c-2.638,-1.687 -5.306,-3.352 -7.894,-5.111c-2.292,-1.557 -4.513,-3.194 -6.762,-4.808c-89.466,-63.883 -147.853,-168.486 -147.853,-286.792c0,-118.306 58.386,-222.917 147.853,-286.792c2.249,-1.607 4.47,-3.251 6.762,-4.808c2.581,-1.759 5.249,-3.417 7.887,-5.111c54.79,-35.121 119.889,-55.564 189.804,-55.564c69.922,0 135.021,20.444 189.804,55.564c2.646,1.694 5.306,3.352 7.894,5.111c2.292,1.557 4.505,3.201 6.762,4.801c89.466,63.882 147.853,168.493 147.853,286.799z" /> <path d="M342.779,705.664c3.388,0.152 6.79,0.26 10.215,0.26c3.431,0 6.833,-0.109 10.215,-0.26v63.911h-20.431v-63.911z" /> <path d="M456.995,680.548c6.071,-3.151 11.961,-6.568 17.692,-10.237l31.966,55.361l-17.699,10.222l-31.958,-55.347z" /> <path d="M553.568,583.987l55.352,31.948l-10.222,17.704l-55.367,-31.97c3.67,-5.723 7.08,-11.619 10.237,-17.682z" /> <path d="M642.603,469.777v20.437h-63.924c0.152,-3.389 0.26,-6.791 0.26,-10.222c0,-3.424 -0.109,-6.826 -0.26,-10.214z" /> <path d="M553.565,376.011c-3.15,-6.07 -6.568,-11.967 -10.237,-17.69l55.367,-31.963l10.222,17.697z" /> <path d="M488.953,224.107l17.699,10.214l-31.972,55.361c-5.724,-3.67 -11.614,-7.087 -17.684,-10.237z" /> <path d="M217.041,224.102l31.958,55.34c-6.071,3.151 -11.961,6.568 -17.692,10.237l-31.966,-55.361z" /> <path d="M107.294,326.358l55.373,31.963c-3.676,5.724 -7.087,11.621 -10.237,17.69l-55.352,-31.956z" /> <path d="M127.052,479.997c0,3.431 0.109,6.826 0.26,10.214h-63.924v-20.429h63.924c-0.152,3.387 -0.26,6.783 -0.26,10.214z" /> <path d="M152.423,583.981c3.15,6.062 6.568,11.967 10.237,17.69l-55.367,31.963l-10.215,-17.697z" /> <path d="M231.307,670.309c5.731,3.67 11.621,7.095 17.684,10.237l-31.951,55.347l-17.699,-10.222z" /> <path d="M386.584,487.587l1.694,2.242l-2.105,4.852l0.324,2.876l-2.941,3.114l-12.284,28.229l-12.356,-2.148l-5.918,6.272l-8.255,-8.737l-15.457,-2.681l-4.599,-13.019l-0.129,-0.375l-2.977,-8.434l-2.091,-2.22l0.317,-2.79l-62.857,-178.08l72.431,95.484l13.395,-115.64l4.91,-42.328c-1.637,0.037 -3.273,0.051 -4.91,0.123v-63.911h20.438v63.911c-1.63,-0.072 -3.267,-0.087 -4.91,-0.123l22.875,197.413l0.036,0.289l2.069,17.87l0.49,4.253l1.348,11.634z" /></svg>