<svg xmlns="http://www.w3.org/2000/svg" viewBox="0 0 1024 960" width="1024" height="960"><path d="M1024,320v320c0,35.346 -28.654,64 -64,64h-192v96c0,88.366 -171.922,160 -384,160c-212.078,0 -384,-71.634 -384,-160v-640c0,-88.366 171.922,-160 384,-160c212.078,0 384,71.634 384,160v96h192c35.346,0 64,28.654 64,64zM384,224c76.154,0 150.004,-10.512 207.944,-29.602c36.994,-12.19 59.408,-25.246 71.41,-34.398c-12.002,-9.152 -34.416,-22.21 -71.41,-34.398c-57.94,-19.09 -131.79,-29.602 -207.944,-29.602c-76.154,0 -150.002,10.512 -207.944,29.602c-36.994,12.19 -59.406,25.246 -71.41,34.398c12.002,9.152 34.416,22.208 71.41,34.398c57.942,19.09 131.79,29.602 207.944,29.602zM896,384h-128v192h128z" /></svg>