<svg xmlns="http://www.w3.org/2000/svg" viewBox="0 0 887 896" width="887" height="896"><path d="M305.859,698.859c-162.822,-108.428 -297.03,-197.975 -298.237,-198.993c-1.211,-1.018 1.506,-14.216 6.034,-29.328c6.862,-22.903 6.436,-31.075 -2.555,-49.099l-10.787,-21.623l599.487,-399.816l27.152,17.969c37.892,25.077 125.713,109.648 153.226,147.558c47.756,65.803 71.635,119.582 96.795,217.998c14.807,57.921 13.405,92.48 -6.83,168.23c-25.327,94.812 -51.304,144.746 -116.137,223.242c-35.371,42.825 -126.531,121.005 -141.095,121.005c-6.055,0 -144.229,-88.713 -307.051,-197.141z" /></svg>