<svg xmlns="http://www.w3.org/2000/svg" viewBox="0 0 743 753" width="743" height="753"><path d="M617,38.55c-49.066,0 -78.796,14.906 -99.15,42.8c-20.354,27.894 -31,71.827 -31,130h-19.15l13.6,13.5l-18.4,18.6l17.7,17.65l56.7,-170.05l176.55,-88.3l-59.8,179.55l-168.2,84.05l13.75,13.75l18.55,-18.4l13.5,13.6v-19.15c57.044,0 99.995,-15.035 128.55,-40.5c28.555,-25.465 44.25,-61.935 44.25,-111h38.4c0,57.601 -19.871,106.501 -57.1,139.7c-18.072,16.116 -40.148,28.06 -65.1,36.45c6.814,0.49 13.902,2 20.35,2c32.697,0 57.55,-4.95 57.55,-4.95l7.55,37.65c0,0 -28.464,5.7 -65.1,5.7c-31.923,0 -70.287,-6.206 -104.5,-23.65l-9.75,9.7l18.5,18.5l-27.15,27.15l-95.9,-95.85l-32.1,-32.15l27.15,-27.15l18.5,18.5l7.85,-7.9c-56.015,-72.704 -37.45,-171.45 -37.45,-171.45l37.7,7.55c0,0 -9.649,57.809 10.5,109.65c5.229,-36.745 14.043,-70.175 32.45,-95.4c27.647,-37.887 72.598,-58.55 130.2,-58.55zM568.7,118.3l-25.5,76.45l79.45,-39.7l25.5,-76.45zM438.6,288.9c0,0 -208.036,208.203 -381.2,318.25c-7.786,17.175 -13.498,45.579 -15.95,70.1c-1.673,16.725 -1.496,21.978 -1.7,30.05c7.882,1.675 13.277,3.293 29.85,4.95c24.013,2.401 51.245,0.599 66.35,-5.8c129.662,-213.256 318.15,-402 318.15,-402l27.15,27.15c0,0 -190.843,191.17 -317.1,401.6l-2.9,4.8l-5,2.5c-28.202,14.1 -62.32,12.767 -90.5,9.95c-28.18,-2.817 -50.75,-8.5 -50.75,-8.5l-14.55,-3.6v-15c0,0 0.032,-22.224 2.8,-49.9c2.768,-27.676 7.643,-60.787 20.6,-86.7l2.4,-4.85l4.55,-2.85c167.009,-104.381 380.6,-317.3 380.6,-317.3z" /></svg>