<svg xmlns="http://www.w3.org/2000/svg" viewBox="0 0 824 888" width="824" height="888"><path d="M415.627,869.525c-30.198,-11.088 -129.027,-46.905 -219.621,-79.593c-90.594,-32.688 -172.108,-64.208 -181.141,-70.045c-16.257,-10.503 -16.38,-11.445 -11.868,-91.273c5.468,-96.741 16.58,-143.364 51.55,-216.281c32.771,-68.333 75.343,-117.132 120.39,-138.003l34.358,-15.919l8.741,-51.749c10.376,-61.428 43.302,-137.865 69.223,-160.699c39.66,-34.936 74.837,-45.421 152.389,-45.421c81.414,0 121.368,13.075 163.613,53.54c46.546,44.586 82.136,136.621 90.164,233.161c5.429,65.285 6.294,67.857 32.312,96.084c56.786,61.61 97.817,195.924 98.121,321.206c0.136,58.509 -3.582,64.369 -62.349,98.13c-17.376,9.981 -37.45,24.659 -44.611,32.615c-7.161,7.956 -30.005,22.163 -50.767,31.569c-31.323,14.191 -51.181,17.59 -116.673,19.97c-74.025,2.689 -82.337,1.615 -133.832,-17.294zM557.294,767.851c-2.632,-93.303 13.815,-258.713 30.572,-307.477c5.189,-15.099 9.479,-29.515 9.534,-32.035c0.059,-2.521 -24.417,-12.749 -54.383,-22.729l-54.483,-18.144l-14.864,14.864c-11.511,11.511 -19.736,13.894 -36.455,10.562c-11.875,-2.365 -22.621,-7.32 -23.878,-11.01c-1.257,-3.69 -15.707,-6.707 -32.109,-6.707c-35.085,0 -53.088,-14.384 -50.054,-39.988c1.962,-16.553 -1.553,-18.825 -55.951,-36.168c-61.942,-19.75 -72.868,-18.988 -110.323,7.681c-25.763,18.345 -65,78.9 -89.29,137.807c-19.692,47.753 -34.027,128.612 -34.027,191.931v31.708l217.905,79.62c236.993,86.595 232.854,85.283 272.81,86.444l27.453,0.797zM634.088,836.133c1.695,-2.831 5.066,-94.711 7.491,-204.179c3.96,-178.784 3.363,-197.201 -5.865,-181.039c-20.104,35.206 -38.212,166.555 -38.212,277.18c0,57.219 2.059,106.093 4.576,108.611c6.2,6.2 28.194,5.806 32.011,-0.572zM701.515,795.779c16.399,-13.702 29.739,-26.827 29.642,-29.168c-3.73,-90.725 -31.849,-347.358 -39.006,-355.993c-21.623,-26.088 -24.463,-3.321 -28.658,229.916c-1.782,99.087 -0.668,180.157 2.481,180.157c3.147,0 19.141,-11.21 35.541,-24.911zM778.623,672.961c-0.609,-60.92 -4.286,-86.77 -19.234,-135.192c-19.03,-61.645 -35.46,-87.704 -28.668,-45.47c2.032,12.639 7.025,69.306 11.097,125.929c9.155,127.338 10.725,135.4 25.792,132.4c10.31,-2.055 11.672,-11.654 11.014,-77.666zM453.375,384.88c0,-5.719 -6.101,-10.295 -13.726,-10.295c-15.189,0 -18.597,10.617 -5.148,16.044c14.935,6.026 18.874,4.827 18.874,-5.749zM622.851,384.331c1.477,-4.437 -70.959,-27.295 -180.419,-56.937c-157.709,-42.706 -200.878,-51.77 -187.519,-39.377c6.225,5.775 346.644,106.311 355.744,105.062c5.349,-0.735 10.836,-4.671 12.194,-8.748zM377.88,367.723c0,-3.775 -6.358,-6.863 -14.132,-6.863c-7.774,0 -12.222,3.088 -9.89,6.863c2.333,3.775 8.692,6.863 14.132,6.863c5.44,0 9.89,-3.088 9.89,-6.863zM651.34,266.491c-6.238,-98.144 -23.475,-145.17 -69.162,-188.686c-53.583,-51.039 -122.507,-65.429 -202.292,-42.235c-39.913,11.603 -85.285,46.496 -101.038,77.701c-13.431,26.608 -20.578,123.545 -9.359,126.952c43.887,13.326 368.161,99.129 376.149,99.529c8.942,0.448 9.737,-9.768 5.702,-73.258z" /></svg>