<svg xmlns="http://www.w3.org/2000/svg" viewBox="0 0 921 830" width="921" height="830"><path d="M524.541,831.62c-0.132,-0.315 -0.507,-3.227 -0.835,-6.471c-2.256,-22.354 -5.561,-40.816 -9.887,-55.193c-1.007,-3.345 -1.896,-4.832 -2.265,-3.788c-0.175,0.495 -1.015,12.532 -2.152,30.809c-0.829,13.336 -0.9,12.969 -5.298,-27.79c-2.711,-25.123 -3.535,-32.147 -3.89,-33.109l-0.345,-0.942l-0.751,1.188c-0.413,0.654 -3.298,9.461 -6.413,19.573c-5.298,17.206 -5.74,18.452 -6.878,19.38l-1.217,0.995l-3.177,16.088c-3.387,17.154 -3.861,19.123 -4.401,18.272c-0.49,-0.774 -0.423,-46.585 0.074,-51.565c0.513,-5.11 2.1,-11.546 3.952,-16.02c1.723,-4.162 2.53,-6.607 2.179,-6.594c-0.148,0.007 -1.293,0.863 -2.544,1.905c-1.251,1.042 -2.386,1.893 -2.519,1.893c-0.579,0 -0.665,-4.011 -0.327,-15.418c0.199,-6.702 0.702,-27.001 1.119,-45.113c0.417,-18.112 0.936,-39.356 1.151,-47.207c0.216,-7.852 0.823,-32.264 1.346,-54.25c0.523,-21.986 1.202,-49.378 1.503,-60.872c0.565,-21.364 0.514,-22.875 -0.822,-25.491c-0.337,-0.658 -4.102,-5.909 -8.367,-11.668c-9.835,-13.277 -37.574,-50.993 -52.638,-71.572c-6.362,-8.691 -12.118,-16.374 -12.792,-17.076l-1.228,-1.276l-0.722,0.775c-0.932,1.001 -6.115,13.993 -8.522,21.369c-3.745,11.467 -7.616,29.323 -7.596,35.036c0.019,5.058 0.639,6.463 7.989,18.083c5.261,8.32 9.152,14.553 20.673,33.12c10.038,16.179 10.968,17.741 11.558,19.41c0.51,1.442 0.9,5.501 3.569,37.123c0.628,7.432 1.656,19.598 2.282,27.03c0.626,7.432 1.645,19.682 2.261,27.219c0.616,7.537 1.212,14.562 1.324,15.608c0.112,1.046 0.722,8.242 1.349,15.989c0.63,7.747 1.658,20.169 2.291,27.601c2.012,23.715 4.245,50.735 6.838,82.803c0.627,7.747 1.32,15.983 1.543,18.298c0.593,6.186 -0.215,10.394 -2.711,14.083c-0.575,0.851 -1.29,1.749 -1.589,1.996c-0.637,0.528 -0.756,0.31 -2.946,-5.443c-7.367,-19.341 -18.751,-39.138 -34.691,-60.34c-8.274,-11.004 -10.992,-14.081 -10.992,-12.44c0,0.312 1.134,3.452 2.519,6.979c3.201,8.145 6.26,17.31 7.729,23.162c2.2,8.753 2.969,15.2 3.833,32.169c0.487,9.524 0.486,10.533 -0.007,10.043c-0.215,-0.215 -2.34,-6.202 -4.725,-13.306c-6.483,-19.322 -8.288,-23.473 -12.773,-29.387c-3.517,-4.637 -10.667,-11.213 -10.667,-9.809c0,0.358 1.445,3.677 3.21,7.375c3.348,7.007 4.451,10.446 5.144,16.037c0.579,4.658 0.492,15.473 -0.165,20.788c-0.503,4.069 -1.056,7.281 -3.459,20.147c-0.634,3.395 -1.444,5.139 -1.842,3.971c-0.102,-0.299 -0.462,-3.883 -0.8,-7.967c-0.673,-8.141 -1.671,-16.08 -2.867,-22.842c-0.982,-5.552 -3.297,-14.638 -4.165,-16.343l-0.663,-1.307l-0.417,1.307c-0.228,0.719 -1.723,7.639 -3.322,15.383c-1.599,7.744 -3.169,14.587 -3.491,15.21l-0.586,1.133l-0.501,-1.315c-0.484,-1.271 -3.774,-16.452 -7.773,-35.867c-2.812,-13.644 -3.267,-15.633 -3.806,-16.644c-0.436,-0.813 -0.532,-0.841 -0.938,-0.288c-0.249,0.341 -0.668,2.298 -0.93,4.351c-0.436,3.413 -2.304,14.666 -5.925,35.712c-2.022,11.752 -2.628,12.615 -3.265,4.65c-0.189,-2.347 -0.763,-6.84 -1.281,-9.979c-0.518,-3.139 -2.149,-13.077 -3.626,-22.081c-2.554,-15.552 -4.123,-24.954 -7.625,-45.651c-1.593,-9.406 -1.795,-11.599 -1.181,-12.745c0.198,-0.37 2.554,-2.192 5.234,-4.053c8.296,-5.756 36.638,-25.641 40.853,-28.66c6.403,-4.589 6.703,-5.014 3.541,-5.014c-1.575,0 -24.533,1.841 -54.554,4.375c-25.58,2.16 -25.66,2.172 -27.932,4.305c-1.336,1.255 -14.19,15.442 -15.376,16.972c-0.514,0.662 -0.852,1.632 -0.852,2.444c0,1.538 14.769,49.037 19.792,63.652c1.835,5.338 3.615,10.568 3.958,11.619c1.972,6.078 2.404,14.411 1.025,19.789c-0.805,3.14 -3.974,10.089 -4.602,10.089c-0.194,0 -0.628,-0.984 -0.961,-2.19c-1.288,-4.637 -4.339,-13.808 -6.051,-18.179c-3.703,-9.463 -10.878,-22.711 -11.417,-21.08c-0.096,0.287 -0.253,5.233 -0.348,10.992c-0.263,15.586 -1.533,21.691 -6.695,32.169c-3.504,7.115 -15.514,27.342 -16.038,27.017c-0.803,-0.497 -0.025,-11.514 1.221,-17.287c1.556,-7.207 4.855,-14.859 10.673,-24.767c3.268,-5.564 4.496,-7.793 4.496,-8.154c0,-0.592 -3.352,1.97 -8.118,6.2c-13.808,12.259 -23.506,22.804 -30.336,32.982c-2.53,3.773 -3.635,5.053 -4.024,4.666c-0.256,-0.256 0.834,-10.824 1.602,-15.517c3.39,-20.727 13.475,-40.429 29.583,-57.803c3.556,-3.834 4.211,-5.116 2.058,-4.024c-0.682,0.345 -6.035,3.896 -11.897,7.893c-17.265,11.766 -17.702,12.058 -18.143,12.058c-0.587,0 -0.286,-5.786 1.365,-26.267c2.792,-34.645 3.248,-41.287 2.928,-42.673c-0.298,-1.286 -7.263,-11.37 -21.668,-31.373c-6.077,-8.436 -7.08,-9.637 -8.34,-9.952c-1.505,-0.378 -7.707,2.927 -9.744,5.192c-2.005,2.23 -4.544,6.47 -5.421,9.055c-0.655,1.927 -0.527,6.461 0.787,28.064c0.306,5.025 0.904,15.817 1.328,23.984c0.424,8.167 1.021,19.13 1.328,24.365c0.306,5.234 0.908,15.943 1.339,23.795c0.431,7.852 0.947,16.504 1.15,19.225c0.542,7.339 0.456,13.878 -0.228,17.244c-0.729,3.582 -1.877,6.191 -4.452,10.121c-1.879,2.867 -1.977,2.955 -2.24,1.974c-0.15,-0.565 -0.007,-3.883 0.319,-7.378c0.726,-7.769 0.815,-26.783 0.158,-33.573c-0.606,-6.259 -1.791,-14.022 -2.355,-15.435l-0.449,-1.125l-0.3,1.047c-0.164,0.576 -0.578,3.829 -0.916,7.234c-1.26,12.668 -3.816,25.461 -7.108,35.596c-1.808,5.565 -3.087,8.624 -3.781,9.054c-0.567,0.351 -0.487,-1.008 0.949,-15.811c0.517,-5.338 1.541,-15.96 2.275,-23.602c2.889,-30.092 3.349,-34.516 4.202,-40.281c0.906,-6.143 0.826,-7.844 -0.296,-6.129c-0.83,1.27 -8.028,19.27 -11.024,27.565c-3.793,10.508 -8.001,23.647 -10.57,33.017c-2.631,9.591 -3.013,10.74 -3.444,10.307c-0.168,-0.169 -1.604,-6.046 -3.189,-13.059c-5.181,-22.924 -6.688,-28.247 -11.138,-39.377c-0.999,-2.499 -2.032,-4.611 -2.294,-4.696c-0.578,-0.185 -0.607,2.171 -0.1,7.716c0.878,9.588 1.229,25.266 0.796,35.482c-0.436,10.247 -1.27,20.651 -1.762,21.926c-0.254,0.657 -0.281,0.657 -0.742,0c-0.263,-0.376 -1.456,-3.166 -2.651,-6.204c-2.731,-6.936 -8.267,-18.37 -12.364,-25.534c-5.926,-10.364 -20.323,-31.192 -21.56,-31.192c-0.722,0 -0.738,-0.106 0.795,4.637c9.112,28.187 13.913,53.27 14.528,75.916c0.246,9.056 0.068,10.348 -1.17,8.445c-0.685,-1.055 -9.575,-19.83 -17.622,-37.226c-3.244,-7.014 -6.142,-13.004 -6.433,-13.307c-1.151,-1.2 -1.245,0.176 -0.522,7.599c0.994,10.174 0.994,22.77 -0.001,31.464c-0.824,7.199 -2.056,13.805 -2.86,15.329l-0.521,0.986l-0.402,-1.048c-0.221,-0.578 -0.826,-3.319 -1.344,-6.091c-0.518,-2.772 -1.464,-7.87 -2.107,-11.324c-1.134,-6.105 -2.805,-11.801 -3.465,-11.801c-0.92,0 -3.673,4.747 -8.747,15.088c-3.097,6.311 -5.817,11.589 -6.044,11.73c-0.762,0.472 -0.44,-1.489 1.128,-6.87c1.553,-5.321 4.559,-13.494 15.186,-41.266c3.165,-8.269 5.705,-15.239 5.649,-15.489c-0.18,-0.774 -1.06,0.149 -5.686,5.968c-13.109,16.491 -22.562,30.309 -29.212,42.699c-1.086,2.022 -2.245,3.903 -2.579,4.18c-0.544,0.451 -0.578,0.294 -0.329,-1.582c0.875,-6.593 3.741,-17.465 6.72,-25.484c2.411,-6.488 8.233,-18.357 11.63,-23.71c7.43,-11.705 12.618,-17.832 27.879,-32.931c6.823,-6.752 12.128,-12.277 11.788,-12.279c-0.982,-0.005 -10.836,6.822 -19.179,13.284c-22.126,17.141 -40.567,36.808 -54.451,58.069c-2.789,4.271 -4.131,5.852 -4.486,5.278c-0.267,-0.431 -1.288,-10.745 -1.801,-18.196c-0.231,-3.349 -0.384,-13.202 -0.342,-21.89c0.042,-8.688 0.058,-16.1 0.03,-16.465c-0.142,-1.879 -1.572,0.14 -5.701,8.048c-6.057,11.603 -10.924,22.803 -14.371,33.077c-0.792,2.36 -1.61,4.233 -1.819,4.166c-0.209,-0.067 -3.948,-6.369 -8.313,-13.999l-7.933,-13.873l0.137,-11.23c0.163,-13.425 0.99,-200.844 1.119,-253.626c0.085,-35.174 0.127,-37.238 0.774,-37.879c0.643,-0.641 2.295,-0.681 28.256,-0.681h27.573l1.737,-1.735l0.189,-32.065c0.186,-31.139 0.25,-32.893 1.251,-33.856c0.046,-0.044 6.2,-0.172 13.679,-0.285c12.38,-0.189 13.657,-0.267 14.277,-0.887c0.646,-0.647 0.694,-5.438 0.967,-100.694c0.158,-55.01 0.394,-118.752 0.523,-141.655c0.228,-40.049 0.264,-41.666 0.951,-42.352c0.683,-0.684 1.772,-0.714 25.86,-0.714c26.752,0 26.757,0 27.632,-1.794c0.183,-0.374 0.356,-8.561 0.384,-18.194c0.036,-12.383 0.182,-17.846 0.499,-18.654c0.907,-2.321 2.248,-3.775 8.013,-8.683c13.484,-11.485 24.04,-20.77 27.795,-24.455c4.552,-4.466 9.583,-8.533 12.372,-10.004l1.905,-1.004l55.582,0.108c35.847,0.07 56.296,0.245 57.588,0.497c1.262,0.244 2.565,0.839 3.51,1.597c0.826,0.665 6.023,6.177 11.546,12.25c5.523,6.073 13.071,14.285 16.77,18.252c4.622,4.954 7.049,7.867 7.753,9.304l1.023,2.093l0.015,16.393c0.014,15.095 0.071,16.504 0.71,17.791c1.402,2.818 0.982,2.765 23.751,2.98c18.792,0.176 20.309,0.241 20.937,0.87c0.779,0.78 0.771,-1.026 0.566,108.582l-0.113,60.912l0.823,0.667c0.774,0.627 3.542,0.667 46.011,0.667c38.396,0 45.299,-0.082 45.927,-0.54c0.631,-0.462 0.785,-1.245 1.053,-5.426c0.173,-2.686 0.365,-24.291 0.426,-48.011c0.107,-40.761 0.15,-43.167 0.792,-43.876c0.672,-0.744 1.697,-0.75 110.996,-0.75c99.735,0 110.375,0.059 110.914,0.598c0.33,0.33 0.684,0.97 0.791,1.427c0.107,0.457 0.241,17.532 0.295,37.948c0.098,35.562 0.134,37.239 0.853,39.973c0.739,2.809 0.748,4.196 0.615,85.658c-0.137,82.648 -0.137,82.804 0.631,83.753l0.771,0.952l33.118,0.215l2.164,-1.861l0.189,-65.228c0.105,-35.874 0.339,-65.532 0.521,-65.904c0.182,-0.372 0.643,-0.843 1.021,-1.047c0.42,-0.225 7.659,-0.371 18.399,-0.371h17.706l2.137,-1.838l0.189,-44.86c0.145,-34.144 0.301,-45.052 0.652,-45.664c1.062,-1.853 -0.269,-1.813 49.459,-1.551c32.226,0.17 46.845,0.371 47.377,0.657c0.423,0.228 0.929,0.83 1.124,1.342c0.215,0.566 0.261,17.882 0.117,44.233c-0.279,50.945 -0.959,45.065 5.264,45.453c2.165,0.136 8.691,0.264 14.502,0.285l10.563,0.041v244.663c0,134.565 -0.064,244.591 -0.143,244.504c-0.079,-0.087 -1.037,-4.271 -2.131,-9.295c-2.05,-9.422 -2.825,-12.01 -3.406,-11.394c-0.183,0.194 -0.709,2.666 -1.165,5.493c-2.078,12.817 -5.641,26.729 -11.073,43.232c-1.45,4.41 -2.875,8.34 -3.164,8.734c-0.495,0.677 -0.539,0.654 -0.759,-0.403c-0.128,-0.618 -1.164,-7.63 -2.303,-15.587c-2.056,-14.369 -2.317,-15.8 -2.881,-15.8c-0.415,0 -0.24,-0.739 -8.788,36.927c-1.878,8.271 -3.944,16.921 -4.591,19.225c-1.632,5.801 -2.231,6.443 -2.935,3.14c-0.234,-1.099 -0.755,-3.454 -1.157,-5.234c-2.031,-8.989 -2.671,-18.341 -1.6,-23.413c0.945,-4.486 3.899,-14.742 9.482,-32.931c3.116,-10.156 5.784,-18.948 5.928,-19.542l0.262,-1.077l-1.423,1.077c-1.294,0.982 -6.034,7.17 -19.092,24.928c-2.564,3.487 -4.904,6.54 -5.199,6.785c-0.787,0.652 -0.905,-0.605 -1.111,-11.602c-0.208,-11.195 -1.218,-18.974 -3.512,-27.03c-1.229,-4.313 -1.884,-3.707 -2.23,2.064c-0.514,8.567 -1.048,11.33 -6.121,31.627c-6.698,26.8 -9.965,39.256 -10.412,39.705c-0.513,0.513 -0.748,-0.609 -3.477,-16.482c-2.219,-12.916 -2.803,-15.613 -3.383,-15.607c-0.592,0.007 -2.139,3.114 -4.926,9.896c-4.074,9.914 -4.735,11.421 -5.013,11.421c-0.13,0 -0.443,-1.322 -0.695,-2.94c-0.51,-3.277 -0.865,-3.907 -1.778,-3.148c-0.334,0.279 -2.48,3.088 -4.769,6.247c-2.289,3.159 -4.517,6.169 -4.949,6.693l-0.788,0.952l0.239,-1.333c0.423,-2.373 4.063,-11.046 7.824,-18.654c4.256,-8.601 9.351,-17.597 15.311,-27.031c4.858,-7.689 7.553,-12.264 7.345,-12.472c-0.537,-0.537 -5.315,3.257 -22.108,17.557c-10.47,8.913 -19.182,16.213 -19.364,16.219c-0.439,0.018 -0.264,-0.715 1.784,-7.411c2.204,-7.205 4.128,-15.455 5.371,-23.031c0.996,-6.069 2.127,-16 2.113,-18.548l-0.008,-1.437l-0.662,0.861c-0.364,0.474 -1.664,3.387 -2.889,6.471c-6.403,16.144 -15.761,32.637 -31.802,56.054c-3.962,5.785 -5.282,7.444 -5.636,7.092c-0.202,-0.202 7.947,-36.342 10.609,-47.061c2.643,-10.64 4.518,-16.491 9.64,-30.081c3.42,-9.073 4.206,-11.824 3.197,-11.2c-0.716,0.443 -8.21,10.693 -11.946,16.342c-9.736,14.719 -19.494,34.271 -25.524,51.148c-2.078,5.817 -2.863,7.671 -3.244,7.671c-0.159,0 -0.394,-1.671 -0.523,-3.712c-0.72,-11.339 -1.827,-18.758 -4.645,-31.122c-1.752,-7.69 -2.646,-10.399 -3.234,-9.81c-0.33,0.33 -1.181,6.362 -2.623,18.568c-1.036,8.77 -2.247,14.5 -4.401,20.829c-2.552,7.495 -8.345,19.155 -10.475,21.082l-0.792,0.717l0.26,-1.517c0.362,-2.113 2.04,-11.018 2.51,-13.319c0.215,-1.047 0.797,-4.045 1.295,-6.663c5.176,-27.13 7.799,-40.836 9.692,-50.632c1.233,-6.387 2.362,-12.383 2.508,-13.324l0.266,-1.712l-0.837,0.75c-2.984,2.68 -20.937,35.651 -27.785,51.025c-4.272,9.596 -4.598,10.238 -4.994,9.841c-0.213,-0.213 -1.054,-2.942 -1.87,-6.065c-2.578,-9.861 -6.136,-19.813 -10.878,-30.426c-3.135,-7.014 -11.493,-23.459 -12.378,-24.355c-0.737,-0.748 -0.742,-0.746 -0.742,0.241c0,0.969 1.401,6.548 4.529,18.024c5.652,20.746 8.152,37.827 8.199,56.025c0.033,12.552 -0.345,13.419 -2.175,4.978c-0.555,-2.564 -2.65,-12.25 -4.656,-21.522c-3.48,-16.102 -4.152,-18.733 -4.773,-18.733c-0.452,0 -0.709,1.39 -1.502,8.184c-2.635,22.516 -3.002,24.777 -3.573,22.05c-0.127,-0.611 -0.586,-4.365 -1.019,-8.344c-1.496,-13.774 -3.807,-28.291 -6.858,-43.066c-1.788,-8.661 -5.818,-25.012 -6.715,-27.258l-0.605,-1.514l-0.548,1.275c-0.536,1.245 -1.699,8.912 -5.227,34.396c-0.956,6.91 -2.161,15.477 -2.675,19.036c-0.514,3.559 -1.801,12.64 -2.859,20.177c-1.058,7.537 -2.015,14.006 -2.127,14.372c-0.382,1.234 -0.859,0.68 -1.311,-1.523c-1.457,-7.098 -4.674,-16.064 -9.362,-26.086c-2.451,-5.24 -3.66,-7.165 -4.174,-6.65c-0.137,0.137 -0.475,4.323 -0.757,9.306c-0.282,4.983 -0.774,11.2 -1.099,13.817c-1.073,8.678 -3.304,23.318 -3.706,24.326l-0.397,0.992l-0.319,-0.952c-0.176,-0.524 -0.839,-5.662 -1.476,-11.421c-1.164,-10.511 -1.651,-13.324 -2.308,-13.324c-0.348,0 -2.854,5.057 -5.292,10.677c-1.442,3.326 -2.677,5.18 -2.691,4.037c-0.005,-0.388 1.266,-5.1 2.823,-10.47c1.557,-5.37 4.479,-15.503 6.493,-22.517c2.013,-7.014 4.106,-14.169 4.65,-15.9c0.944,-3.006 0.989,-3.868 0.172,-3.361c-0.54,0.333 -7.075,10.981 -10.42,16.978c-9.18,16.457 -17.293,35.823 -23.125,55.202c-0.599,1.989 -1.288,4.13 -1.53,4.759c-0.4,1.034 -0.479,1.075 -0.835,0.443c-0.542,-0.969 -1.772,-25.188 -2.069,-40.797c-0.28,-14.745 0.135,-24.226 1.548,-35.315c1.422,-11.147 2.777,-16.997 7.474,-32.208c2.704,-8.758 2.893,-9.568 2.255,-9.568c-0.512,0 -7.009,7.636 -10.853,12.753c-12.332,16.42 -21.534,34.082 -29.049,55.773c-2.389,6.896 -2.373,6.853 -2.789,6.853c-0.189,0 -1.45,-2.324 -2.802,-5.168c-7.333,-15.432 -18.584,-29.453 -32.819,-40.907c-4.303,-3.462 -4.232,-2.658 0.24,2.673c5.944,7.089 11.353,16.353 14.073,24.107c2.793,7.963 3.913,14.54 3.933,23.101c0.015,5.91 -0.83,14.191 -1.586,15.548c-0.435,0.778 -0.929,-0.724 -3.232,-9.837c-4.126,-16.31 -8.807,-27.125 -15.737,-36.359c-2.958,-3.943 -6.627,-7.789 -6.837,-7.168c-0.083,0.243 0.444,1.619 1.167,3.059c3.912,7.768 6.942,16.597 8.054,23.464c0.901,5.567 1.431,16.257 1.165,23.476c-0.241,6.577 -2.013,34.678 -2.256,35.785c-0.111,0.508 -0.151,0.508 -0.364,0zM626.354,683.242c6.099,-2.912 8.479,-4.717 9.081,-6.89c0.839,-3.022 1.518,0.005 -11.08,-49.357c-2.512,-9.841 -7.646,-30.056 -11.408,-44.922c-3.762,-14.866 -7.024,-27.489 -7.245,-28.048c-0.959,-2.432 -0.678,-2.386 -14.03,-2.266l-12.13,0.111l-0.252,-1.775l-11.23,-0.077c-6.446,-0.045 -11.729,0.081 -12.4,0.293c-1.573,0.498 -2.994,2.1 -5.883,6.637c-3.13,4.918 -15.17,23.442 -27.496,42.306c-14.157,21.665 -13.588,20.702 -12.215,20.702c0.539,0 23.327,-5.878 55.634,-14.348c9.419,-2.47 9.346,-2.477 10.94,0.904c2.015,4.274 9.684,20.238 16.153,33.624c3.594,7.432 9.015,18.654 12.047,24.936c9.261,19.174 9.337,19.318 10.81,20.307c2.1,1.411 4.141,1.005 10.706,-2.128zM272.067,651.504c3.978,-3.787 9.922,-9.378 13.207,-12.424c3.285,-3.046 6.173,-6.022 6.416,-6.609c0.385,-0.93 -0.414,-4.716 -6.286,-29.731c-3.699,-15.764 -7.016,-29.263 -7.37,-29.997c-0.869,-1.801 -40.931,-49.108 -41.828,-49.394c-0.819,-0.262 -1.164,2.49 -2.77,21.985c-0.87,10.575 -2.012,24.278 -2.539,30.455c-1.463,17.193 -1.689,15.061 2.477,23.493c1.944,3.934 9.444,18.845 16.662,33.136c11.382,22.532 13.239,25.981 13.96,25.976c0.553,-0.005 3.254,-2.309 8.067,-6.891zM347.276,621.854c3.686,0 4.609,-0.116 5.287,-0.668l0.825,-0.668l-1.183,-6.091c-3.043,-15.671 -8.317,-42.541 -11.054,-56.31c-3.469,-17.463 -3.775,-18.345 -7.838,-22.723c-3.496,-3.767 -10.357,-11.055 -33.665,-35.751c-10.771,-11.414 -23.378,-24.777 -28.011,-29.697c-12.108,-12.851 -18.49,-18.157 -28.52,-23.711c-9.421,-5.217 -19.491,-8.678 -30.797,-10.583c-6.759,-1.139 -17.957,-1.396 -24.512,-0.558c-24.837,3.171 -45.515,19.176 -56.84,43.996c-5.402,11.837 -9.336,27.64 -11.044,44.35c-0.649,6.351 -0.659,28.555 -0.018,35.977c0.79,9.135 2.726,23.625 3.307,24.746c1.053,2.035 1.875,2.009 10.807,-0.345c3.897,-1.028 15.298,-3.952 25.334,-6.498c10.036,-2.546 18.774,-4.899 19.416,-5.23c2.108,-1.083 5.827,-5.323 7.321,-8.344l1.407,-2.845l0.48,-7.974c1.323,-21.962 4.416,-35.678 10.333,-45.81c2.155,-3.692 7.95,-9.685 11.215,-11.602c6.341,-3.72 11.225,-4.763 24.471,-5.224l7.613,-0.267l1.604,1.29c0.881,0.709 10.211,11.14 20.729,23.18c10.518,12.04 22.763,26.03 27.208,31.09c4.444,5.059 8.332,9.684 8.639,10.278c0.307,0.594 1.164,3.822 1.905,7.171c0.741,3.349 2.55,11.487 4.021,18.083c1.471,6.596 3.881,17.646 5.36,24.555c2.947,13.788 3.439,15.481 4.69,16.133c0.616,0.319 4.42,0.386 13.946,0.243c7.206,-0.11 15.111,-0.198 17.566,-0.198zM409.086,620.643c1.944,-0.488 3.525,-2.106 3.875,-3.967c0.153,-0.816 -0.008,-6.282 -0.361,-12.145c-0.353,-5.863 -1.146,-18.969 -1.762,-29.124c-3.03,-49.844 -2.672,-45.368 -3.81,-47.57c-1.502,-2.906 -47.482,-65.708 -48.718,-66.544c-1.252,-0.848 -1.41,-0.856 -14.344,-0.856c-9.025,0 -13.078,-0.125 -13.078,-0.408c0,-0.459 -26.772,-0.36 -27.229,0.098c-0.401,0.402 0.774,1.912 10.446,13.441c14.58,17.375 39.979,47.663 43.579,51.966c1.84,2.199 3.749,4.785 4.241,5.748c0.91,1.776 4.713,23.087 12.599,70.584c2.605,15.685 3.075,17.998 3.811,18.735l0.839,0.841l14.214,-0.215c7.818,-0.118 14.882,-0.383 15.7,-0.588zM504.185,582.356c0.776,-0.891 16.064,-23.691 25.674,-38.289c4.248,-6.455 7.905,-12.364 8.125,-13.135c0.241,-0.849 0.541,-11.1 0.761,-26.017c0.31,-21.243 0.282,-24.911 -0.201,-26.764c-0.527,-2.025 -3.504,-7.404 -16.551,-29.897c-10.166,-17.531 -49.861,-86.185 -57.665,-99.743c-4.763,-8.271 -8.993,-15.509 -9.404,-16.085c-0.959,-1.348 -2.296,-1.359 -4.083,-0.029c-4.336,3.227 -12.89,11.382 -17.902,17.063c-6.728,7.625 -9.926,11.99 -9.926,13.54c0,0.679 2.554,4.571 8.118,12.38c4.466,6.264 11.46,16.101 15.544,21.86c4.084,5.759 16.424,23.147 27.419,38.642c10.994,15.494 22.419,31.597 25.383,35.785c6.763,9.549 6.708,9.393 6.373,18.434c-0.137,3.681 -0.672,18.941 -1.19,33.911c-0.518,14.97 -1.197,33.963 -1.507,42.205c-0.634,16.846 -0.564,17.971 1.034,16.139zM624.484,467.461c2.054,-0.699 4.459,-2.664 5.961,-4.869c1.541,-2.258 10.203,-18.448 10.843,-20.261c1.372,-3.892 1.098,-8.005 -0.79,-11.781c-0.524,-1.047 -3.102,-4.902 -5.733,-8.565c-2.631,-3.663 -8.978,-12.573 -14.11,-19.796c-5.129,-7.223 -10.539,-14.831 -12.019,-16.907c-1.48,-2.076 -3.074,-4.02 -3.539,-4.323c-0.781,-0.508 -0.929,-0.463 -1.905,0.566c-1.619,1.71 -6.611,7.651 -8.063,9.601c-4.273,5.731 -5.02,5.678 -11.935,-0.844c-2.006,-1.892 -2.19,-2.204 -2.19,-3.701c0,-0.945 2.177,-9.367 5.154,-19.949c2.834,-10.071 6.431,-22.868 7.995,-28.438c1.564,-5.57 2.841,-10.576 2.841,-11.126c0,-0.619 -0.328,-1.216 -0.86,-1.566c-1.297,-0.851 -36.449,-12.779 -37.656,-12.779c-0.679,0 -1.203,0.284 -1.48,0.804c-0.237,0.442 -0.662,4.083 -0.945,8.091c-0.283,4.008 -0.608,8.143 -0.722,9.189c-0.114,1.047 -0.73,8.995 -1.369,17.661c-0.639,8.666 -1.33,16.075 -1.536,16.461c-0.529,0.99 -1.869,1.226 -4.225,0.743c-1.116,-0.228 -3.566,-0.568 -5.441,-0.756c-4.544,-0.452 -4.815,-0.765 -5.683,-6.557c-0.69,-4.597 -5.524,-35.605 -6.551,-42.022c-0.805,-5.027 -1.632,-6.905 -3.361,-7.626c-1.788,-0.748 -13.088,-0.747 -18.301,0c-5.442,0.78 -12.734,2.308 -18.313,3.837c-6.291,1.723 -6.827,1.996 -6.76,3.424c0.059,1.295 52.124,118.701 53.716,121.13c1.197,1.827 1.338,1.888 23.894,10.22c7.747,2.862 17.084,6.312 20.748,7.667c8.528,3.153 33.894,12.518 34.643,12.789c1.227,0.444 6.033,0.241 7.691,-0.325z" /></svg>