<svg xmlns="http://www.w3.org/2000/svg" viewBox="0 0 984 960" width="984" height="960"><path d="M964.281,468.305c0.324,-0.727 0.808,-1.372 1.373,-1.776c-0.324,0.808 -0.808,1.372 -1.373,1.776z" /> <path d="M505.727,237.901c2.018,0.404 4.279,0.727 5.49,2.584c-1.211,3.309 -6.539,-0.082 -5.49,-2.584z" /> <path d="M937.673,515.935c-0.081,0.322 -0.161,0.645 -0.242,0.968c-1.049,0.082 -1.776,0.566 -2.422,1.131c0.404,-0.485 1.13,-1.131 2.664,-2.099z" /> <path d="M935.001,518.035c-0.565,0.807 -0.484,1.292 -0.888,1.938c-0.646,1.13 -1.533,2.098 -2.26,3.229c-1.049,1.696 -1.373,3.714 -2.18,5.49c-2.019,4.037 -4.602,7.751 -7.024,11.464c-0.969,1.533 -1.292,3.471 -2.18,5.005c-1.211,2.018 -2.987,3.875 -4.521,5.651c-3.069,3.471 -6.378,6.459 -9.769,9.607c-4.116,3.714 -7.992,7.75 -12.432,11.06c-2.018,1.534 -4.198,2.341 -6.297,3.633c-4.521,2.906 -7.911,7.104 -11.948,10.414c-2.26,1.857 -5.085,2.746 -7.346,4.521c-2.261,1.775 -5.167,4.44 -6.943,6.7c-1.534,1.857 -2.341,4.117 -4.279,5.651c-1.453,1.13 -3.391,1.695 -4.925,2.906c-5.571,4.52 -10.98,9.687 -16.308,14.531c-4.521,4.117 -9.687,7.185 -14.612,10.898c-2.745,2.019 -6.136,3.794 -9.284,5.732c0.808,-0.483 1.615,-1.049 2.422,-1.614c3.955,-3.31 6.781,-7.266 10.333,-11.06c4.44,-4.763 10.172,-7.75 13.32,-13.643c2.745,-5.086 4.683,-9.526 8.477,-14.047c1.696,-2.018 3.391,-4.279 4.844,-6.539c2.261,-3.552 3.876,-5.974 7.024,-8.638c6.378,-5.489 13.643,-10.414 20.909,-14.612c7.588,-4.36 13.966,-11.949 20.263,-17.842c2.906,-2.825 6.136,-5.408 9.123,-8.234c2.584,-2.422 4.764,-5.409 7.67,-7.508c3.633,-2.745 7.831,-4.521 11.303,-7.508c1.938,-1.776 3.956,-3.552 5.813,-5.409c0.646,-0.645 1.13,-1.211 1.695,-1.776z" /> <path d="M810.176,637.675c-1.291,0.969 -2.502,3.391 -4.359,3.391c1.615,-1.695 3.794,-3.148 5.974,-4.521c-0.565,0.324 -1.129,0.727 -1.614,1.131z" /> <path d="M916.529,400.898c-4.036,-2.18 -6.458,-4.602 -9.203,-7.67c1.777,1.453 3.633,2.824 5.571,3.955c2.987,1.776 5.57,4.117 8.234,6.297c-1.533,-0.889 -3.067,-1.777 -4.601,-2.584z" /> <path d="M327.413,175.576c5.651,-4.198 11.302,-7.67 17.68,-10.576c5.893,-2.664 12.19,-2.987 18.083,-5.409c9.122,-3.795 18.406,-8.072 24.057,-16.388c3.471,-5.167 5.651,-10.979 9.284,-16.065c5.41,-7.427 13.805,-12.513 21.394,-17.518c4.683,-3.31 9.688,-5.974 15.097,-7.992c1.373,-0.162 2.745,-0.404 4.118,-0.727c3.228,-1.372 6.377,-4.602 8.799,-7.104c8.234,-8.235 14.854,-19.536 20.99,-29.305c4.279,-6.862 5.732,-14.29 11.383,-20.344c14.773,-15.743 33.422,-29.95 53.443,-38.266c2.583,-1.131 5.328,-1.777 8.234,-1.938c3.391,-0.727 6.62,-1.695 9.849,-3.068c5.974,-1.373 12.11,-0.727 18.164,-0.727c6.862,-0.081 15.339,1.292 21.797,3.31c5.167,1.695 10.495,3.471 15.581,5.328c7.911,2.987 16.387,5.974 24.057,9.526c9.688,4.44 18.246,11.14 27.933,15.338c2.099,0.888 3.229,1.292 4.521,2.099c6.297,4.037 11.141,11.626 15.016,17.68c2.179,3.391 4.359,6.136 4.763,10.011c0.565,5.167 -0.726,10.737 -1.857,15.662c-1.615,7.507 -4.198,10.737 -10.818,14.37c-5.571,3.069 -11.464,5.329 -17.438,7.67c-2.018,0.807 -4.44,2.099 -6.7,2.341c2.099,-2.987 4.037,-8.316 4.279,-12.11c0.323,-5.812 0.323,-14.047 -2.664,-19.214c-2.664,-4.52 -7.669,-8.072 -10.898,-12.19c-3.714,-4.763 -5.086,-5.651 -11.867,-6.297c-11.948,-1.049 -24.461,-0.242 -36.409,-0.242c-3.794,0 -7.669,-0.081 -11.544,0c-4.924,0.08 -7.912,1.453 -11.867,4.359c-5.57,4.117 -10.091,9.446 -15.823,13.159c-6.782,4.359 -12.837,9.768 -19.295,14.612c-4.198,3.229 -8.8,5.974 -12.675,9.526c-2.584,2.503 -4.279,5.006 -7.266,7.024c-2.825,1.857 -4.116,4.36 -6.054,7.024c-1.696,2.26 -4.037,3.956 -5.571,6.297c-1.453,2.099 -2.664,4.521 -4.359,6.539c-3.229,3.875 -7.427,7.347 -10.979,11.06c-4.682,5.006 -7.749,11.06 -11.867,16.55c-2.18,2.906 -3.553,6.378 -5.813,9.284c-2.503,3.23 -5.57,5.893 -7.831,9.284c-2.261,3.391 -3.957,7.67 -7.67,9.769c-1.696,1.05 -3.714,1.453 -5.409,2.745c-2.826,2.018 -5.168,4.441 -8.316,6.136c-2.906,1.614 -6.216,2.018 -9.042,3.552c-0.807,0.484 -1.453,1.372 -2.26,1.695c-2.503,1.13 -5.893,0.646 -8.477,0.565c-3.714,-0.081 -7.024,-0.081 -10.657,0.565c-9.446,1.534 -19.053,-0.161 -28.498,0.727c-6.781,0.646 -13.482,2.907 -20.263,3.875c-7.831,1.211 -15.338,2.825 -23.169,2.906c-9.284,1.857 -13.804,3.471 -18.083,5.409c-3.472,1.615 -7.347,5.571 -11.222,6.62c-4.522,-5.086 4.197,-16.549 6.781,-20.424c4.844,-7.185 10.414,-11.544 17.357,-16.711z" /> <path d="M152.673,280.853c-9.688,9.688 -18.972,20.102 -29.386,29.063c-1.615,1.453 -4.36,3.148 -6.136,5.086c2.179,-3.148 4.763,-5.974 6.458,-9.284c4.925,-9.688 12.029,-17.761 19.537,-25.753c4.601,-4.924 6.216,-9.929 8.88,-16.146c3.23,-7.668 7.589,-14.046 7.912,-22.523c0.242,-6.135 0.968,-13.239 2.906,-19.052c3.552,-10.576 10.173,-19.375 9.769,-30.839c-0.243,-7.751 1.371,-15.662 8.234,-20.587c2.744,-1.937 6.62,-3.148 9.607,-4.521c7.589,-3.309 15.34,-7.508 19.941,-14.612c2.906,-4.521 5.166,-11.464 6.054,-16.792c1.211,-6.458 1.211,-12.675 1.292,-19.375c0.161,-10.576 3.311,-22.524 7.024,-32.373c3.228,-8.396 9.284,-15.742 15.338,-22.362c2.018,-2.18 4.037,-4.844 6.539,-6.539c2.987,-2.099 7.669,-2.825 11.06,-4.198c3.633,-1.454 6.862,-2.907 10.737,-3.472c5.328,-0.889 10.818,-1.211 16.146,-1.938c8.073,-1.05 16.711,0.566 24.784,1.534c2.26,0.242 4.198,0.161 6.458,0.161c6.459,-0.08 13.079,3.715 18.488,6.863c10.172,5.893 14.532,17.679 14.451,29.143c0,8.153 -0.404,16.307 -5.005,23.411c-1.938,2.986 -3.795,5.893 -5.813,8.799c0.081,-0.242 0.242,-0.485 0.323,-0.727c1.049,-4.925 -1.13,-12.514 -2.664,-17.115c-3.633,-10.575 -6.054,-19.133 -17.357,-23.573c-6.781,-2.744 -15.338,-2.018 -20.424,3.31c-2.906,3.148 -5.974,7.427 -7.992,11.14c-0.807,1.533 -1.291,2.745 -2.502,4.359c-2.1,2.665 -3.956,5.652 -5.813,8.558c-4.844,7.427 -10.092,13.967 -14.047,22.12c-3.23,6.781 -2.18,14.532 -2.099,21.878c0,7.509 -1.212,14.209 -3.472,21.394c-2.099,6.54 -6.781,11.948 -10.818,17.438c-7.509,10.252 -15.743,19.375 -24.381,28.659c-3.31,3.552 -5.651,7.831 -8.396,11.786c-3.148,4.44 -6.055,8.719 -8.719,13.482c-1.614,3.068 -3.229,6.62 -5.247,9.607c-0.162,0.081 -0.324,0.161 -0.485,0.242c-6.216,2.745 -12.109,4.521 -17.922,8.396c-1.858,1.291 -3.714,2.582 -5.571,3.955c-4.763,3.552 -9.122,7.104 -14.289,9.93c-5.49,3.068 -8.962,6.943 -13.402,11.464z" /> <path d="M334.879,118.826c1.05,-1.373 2.1,-2.826 3.068,-4.279c-0.566,1.777 -1.776,3.068 -3.068,4.279z" /> <path d="M202.741,249.203c0.565,-0.726 1.129,-1.453 1.614,-2.26c2.745,-1.131 5.086,-1.373 -5.086,5.893c0.404,-1.776 2.423,-2.341 3.472,-3.633z" /> <path d="M332.747,121.005c0.727,-0.807 1.453,-1.453 2.18,-2.18c-2.422,3.229 -4.844,6.216 -7.75,8.961c1.212,-2.422 3.795,-4.763 5.571,-6.781z" /> <path d="M117.117,315.08c-0.565,0.807 -1.129,1.614 -1.614,2.502c0.322,-0.888 0.887,-1.775 1.614,-2.502z" /> <path d="M648.79,141.754c3.309,-0.727 6.862,0.403 10.172,-0.404c8.638,-2.018 16.63,-6.458 24.703,-9.93c14.289,-6.216 28.982,-11.626 44.24,-14.128c6.136,-0.969 13.401,-2.987 18.729,0.565c5.57,3.633 12.432,6.782 18.568,9.042c3.632,1.292 5.893,4.764 9.203,6.217c5.732,2.582 13.724,0.807 19.295,3.713c3.956,2.019 8.396,2.019 12.029,4.521c2.503,1.776 5.49,4.278 7.67,6.458c0.969,0.968 0.727,0.726 1.373,1.614c0.243,1.615 0.889,2.987 1.938,4.279c1.05,1.615 2.179,3.229 3.31,4.763c4.764,6.619 7.428,14.047 10.657,21.474c3.391,7.993 9.204,13.483 14.451,20.183c5.812,7.346 7.185,17.84 6.539,26.963c-0.484,7.992 -0.484,12.755 -5.974,18.083c-2.099,2.099 -4.279,4.036 -6.378,5.974c-1.535,1.453 -5.894,4.44 -6.217,7.266c-3.39,1.857 -6.297,4.198 -9.607,6.136c-2.906,1.615 -4.925,2.745 -8.073,3.391c-1.372,0.322 -2.745,0.726 -4.198,0.968c-3.552,0.726 -5.57,-0.646 -8.799,-1.292c-3.956,-0.888 -7.347,-2.26 -11.222,-3.552c-5.571,-1.857 -10.092,-3.391 -15.097,-6.539c-5.247,-3.228 -9.122,-6.135 -12.432,-11.544c-3.067,-5.086 -5.247,-17.035 -2.502,-22.928c2.261,1.938 2.665,7.346 4.118,9.93c1.211,2.261 2.261,3.229 4.037,4.763c2.261,2.017 4.925,4.036 7.266,6.054c3.875,3.31 3.956,5.651 9.607,6.458c0.565,0.081 1.129,0.081 1.614,0.081c1.938,-1.695 3.875,-3.31 5.813,-5.005c2.018,-1.777 4.44,-3.311 5.893,-5.571c1.21,-1.938 1.129,-3.633 1.614,-5.732c1.372,-5.489 2.341,-10.252 2.099,-15.984c-0.242,-7.023 -2.341,-13.966 -2.341,-21.07c0,-0.404 0,-0.807 0,-1.211c-0.565,-1.292 -1.13,-2.583 -1.857,-3.794c-2.582,-4.279 -5.731,-7.831 -8.153,-12.11c-4.037,-7.185 -10.899,-10.172 -18.407,-12.19c-7.105,-1.857 -15.178,-0.727 -22.282,0.807c-10.656,2.261 -21.394,4.036 -32.292,4.521c-5.489,0.243 -11.302,0.889 -16.711,1.857c-4.925,0.888 -9.687,1.453 -14.612,2.18c-3.875,0.404 -7.427,1.534 -10.818,3.472c-4.521,1.776 -9.042,3.633 -13.482,5.651c-4.521,2.583 -8.315,5.974 -9.849,11.06c-1.291,4.36 -0.242,10.899 -4.763,13.563c-3.714,2.26 -11.302,1.453 -15.5,1.453c-5.41,0 -10.415,-0.404 -15.743,-1.211c-7.912,-1.292 -16.226,-1.211 -23.896,-3.391c-7.588,-2.099 -15.742,-2.019 -23.169,-4.521c-1.453,-0.565 -2.826,-1.13 -4.037,-1.857c-3.876,-0.485 -8.235,0.081 -12.029,-0.646c-3.713,-0.807 -6.217,-4.278 -9.93,-4.601c-6.539,-0.484 -12.756,0.081 -19.295,-1.695c-2.099,-0.646 -7.67,-1.05 -8.638,-2.826c5.49,0.646 10.818,2.906 16.469,2.26c5.086,-0.564 9.93,-2.179 14.37,-4.601c3.148,-1.695 6.296,-3.551 9.687,-4.682c8.476,-2.826 17.68,-3.553 26.318,-6.217c3.228,-1.292 6.619,-2.261 10.091,-2.826c4.198,-0.565 8.314,-1.372 12.432,-2.26c2.421,-2.422 4.682,-5.086 7.346,-7.266c1.453,-1.13 3.148,-2.018 4.521,-3.229c2.099,-1.695 3.391,-4.198 5.571,-5.893c2.664,-2.179 6.297,-2.825 9.203,-4.763c2.826,-1.857 5.41,-3.875 8.477,-5.49c3.067,-1.615 5.408,-3.956 8.88,-4.763z" /> <path d="M700.447,732.527c-7.508,2.987 -14.773,3.552 -21.636,8.234c-7.023,4.924 -15.177,7.669 -21.474,13.643c-3.632,3.471 -6.215,7.831 -8.153,12.513c-2.664,6.378 -5.329,11.948 -9.042,17.761c-5.167,8.154 -10.656,17.277 -17.68,23.977c-2.987,2.906 -5.49,6.216 -8.396,9.445c-2.745,2.907 -5.732,6.539 -7.75,10.011c-2.18,3.633 -3.391,7.912 -5.409,11.706c-3.714,7.266 -5.167,14.612 -8.073,22.201c-1.13,3.068 -3.794,7.588 -4.198,11.06c-0.081,1.211 0.08,2.341 -0.081,3.552c-0.969,5.974 -3.956,10.011 -6.62,15.258c-2.019,4.116 -4.198,8.153 -7.024,11.786c-3.552,4.683 -8.395,8.477 -12.432,12.756c-1.292,1.373 -3.713,2.584 -4.844,4.118c-0.646,0.808 -0.807,2.1 -1.453,3.068c-3.31,5.248 -8.234,6.782 -13.805,8.396c-7.508,2.099 -14.531,5.732 -22.12,7.589c-9.93,2.502 -19.456,5.893 -29.225,8.719c-4.359,1.291 -5.086,2.422 -8.396,4.682c-2.584,1.775 -6.863,1.453 -9.769,2.26c-3.31,0.808 -6.458,2.18 -9.849,2.826c-7.831,1.453 -15.177,2.099 -23.169,1.857c-7.427,-0.162 -16.873,-0.324 -24.219,-2.584c-4.036,-1.292 -7.83,-3.552 -11.867,-4.925c-4.601,-1.534 -9.768,-2.422 -13.966,-4.682c-8.477,-4.44 -16.146,-10.091 -25.107,-13.239c-6.539,-2.261 -12.594,-3.471 -19.375,-4.763c-6.216,-1.129 -12.513,-1.453 -18.164,-4.601c-2.825,-1.695 -5.247,-2.34 -8.153,-3.713c-7.75,-3.633 -8.799,-13.159 -12.19,-20.183c-1.614,-3.31 -1.372,-5.409 -2.018,-8.638c-0.404,-2.181 -1.615,-3.956 -2.18,-6.136c-0.323,-1.211 0,-2.179 -0.242,-3.31c-0.888,-4.601 -1.373,-4.52 -2.341,-10.737c-1.292,-9.203 -1.614,-16.388 2.099,-25.107c1.857,-4.279 5.328,-7.509 7.266,-11.464c2.503,-4.924 5.651,-9.526 9.203,-13.885c2.181,-2.582 3.795,-3.148 6.863,-3.713c4.279,-0.807 8.638,-1.292 12.917,-2.18c2.665,-0.484 6.055,0.162 8.719,0.081c4.683,-0.081 4.279,1.453 7.024,5.328c4.36,6.459 5.732,16.389 1.534,23.493c1.292,-4.683 -3.067,-4.198 -6.054,-5.571c-2.423,-1.211 -2.988,-2.019 -6.136,-0.888c-4.602,1.614 -9.688,6.861 -11.948,10.979c-2.987,5.732 -3.633,12.755 -3.633,19.052c0,5.166 0.082,5.893 4.037,9.284c9.042,7.912 18.73,14.935 28.417,21.878c3.956,2.826 10.334,4.197 15.016,5.328c1.695,0.323 2.987,0.323 4.682,0.565c2.663,0.889 5.408,1.453 8.153,1.857c1.291,-0.161 2.098,0.324 2.502,1.292c7.912,3.068 17.518,4.602 25.995,4.925c5.651,0.242 11.303,0.081 16.954,-0.404c5.812,-1.454 11.463,-3.149 17.034,-5.167c5.247,-0.969 10.091,-2.825 14.612,-5.651c3.794,-3.149 7.346,-6.458 10.818,-9.93c2.18,-2.099 3.956,-4.601 5.409,-7.346c0.565,-1.373 1.211,-2.745 2.099,-4.037c2.261,-1.534 4.44,-3.149 6.62,-4.844c2.26,-2.018 4.521,-4.198 6.539,-6.539c9.121,-8.799 22.442,-14.046 26.963,-26.802c1.291,-3.713 2.261,-6.861 2.422,-10.898c0.323,-6.378 0.726,-12.271 3.31,-18.245c3.714,-8.638 9.85,-18.325 17.196,-24.542c5.893,-5.085 14.208,-6.458 19.698,-11.948c6.62,-6.619 14.532,-11.059 21.878,-16.872c3.472,-2.745 5.652,-4.036 9.365,-5.974c4.521,-2.341 9.445,-2.26 13.966,-4.359c10.171,-4.682 19.94,-10.575 30.354,-14.773c9.768,-3.955 20.021,-5.57 29.951,-8.799c4.441,-1.373 8.72,-2.664 13.402,-3.391c4.601,-0.807 8.961,-0.888 13.643,-0.888l23.169,3.472c-2.744,0.97 -5.408,1.292 -8.234,1.938c-4.603,0.969 -9.043,3.068 -13.402,4.844z" /> <path d="M313.05,781.617c-8.154,1.695 -16.228,4.036 -24.381,5.893c-6.296,1.372 -11.625,4.924 -17.599,7.104c-5.166,1.775 -10.172,2.099 -15.177,4.359c-5.328,2.503 -10.979,4.764 -16.065,7.67c-8.154,4.602 -16.711,4.844 -25.834,4.925c-5.571,0.081 -11.706,-0.807 -17.115,-2.341c-2.987,-0.888 -5.49,-0.888 -8.558,-1.373c-5.893,-1.05 -11.706,-1.453 -17.599,-2.099c-2.503,-0.323 -4.683,-1.534 -6.943,-2.745c-4.359,-2.422 -9.283,-5.006 -13.32,-7.912c-2.503,-1.856 -4.602,-3.956 -6.943,-5.974c-3.23,-2.664 -5.813,-3.713 -7.67,-7.346c-2.018,-3.794 -3.229,-7.427 -3.794,-11.706c-0.484,-3.633 -2.583,-6.7 -3.229,-10.333c-1.372,-7.749 -1.131,-19.133 2.341,-26.237c1.936,-3.875 3.794,-8.154 6.054,-11.867c1.775,-2.907 4.601,-5.41 6.7,-8.316c3.633,-5.247 11.707,-7.346 17.761,-8.234c6.378,-0.888 12.513,0.403 18.81,1.534c3.472,0.646 6.862,1.129 10.172,2.26c4.117,1.534 6.135,3.956 9.445,6.943c3.714,3.39 7.831,6.055 9.365,11.06c0.888,2.826 0.242,6.378 0.242,9.365c0,5.49 0.161,13.643 -5.813,16.227c-2.664,1.13 -13.966,7.427 -15.823,3.148c2.906,-3.068 8.88,-2.018 12.19,-5.086c2.583,-2.422 2.907,-6.216 2.422,-9.526c-2.018,-0.726 -5.49,-0.161 -7.508,-0.161c-2.826,0 -5.893,-0.324 -8.719,0.161c-3.633,0.646 -8.476,3.956 -10.333,7.024c-1.13,2.018 -1.211,5.086 -1.534,7.346c-0.564,3.794 -1.533,9.364 -0.968,13.239c0.565,4.361 4.279,7.348 8.073,8.316c13.078,3.391 28.417,4.198 39.961,-3.875c4.037,-2.826 8.719,-7.346 13.482,-8.88c3.068,-0.969 6.62,0.484 9.607,1.211c7.509,1.777 15.258,3.31 22.928,3.391c8.396,0.162 15.016,-1.372 22.766,-4.359c11.222,-4.279 22.444,-8.558 33.584,-13.159c9.121,-3.714 18.164,-6.135 27.609,-8.719c6.862,-1.857 15.258,-2.745 22.362,-1.534c3.472,0.645 6.701,1.937 10.253,2.502c3.875,0.565 6.459,1.049 10.172,2.422c4.037,1.534 7.911,3.23 12.029,4.279c5.005,1.211 10.333,1.696 15.419,2.664c8.558,1.696 16.631,5.006 25.027,7.024c4.844,1.13 10.253,1.615 15.097,2.422c5.813,0.968 11.868,1.937 17.842,1.695l18.488,-3.472c0.08,3.068 -0.324,4.764 -1.938,7.266c-4.52,7.022 -10.737,13.32 -17.276,18.325c-6.458,5.086 -12.593,11.383 -20.505,14.128c-8.477,2.906 -17.761,2.422 -26.641,2.018c-10.656,-0.566 -19.294,-4.037 -28.659,-8.558c-2.664,-1.211 -5.005,-2.987 -7.75,-4.198c-1.533,-0.646 -3.067,-1.049 -4.601,-1.614c-3.068,-1.129 -5.732,-4.279 -8.719,-5.247c-0.808,-0.242 -1.696,-0.081 -2.584,-0.242c-3.633,-0.889 -5.975,-4.522 -9.123,-5.571c-1.211,-0.323 -2.422,-0.081 -3.633,-0.081c-2.745,0.08 -5.006,-0.403 -7.67,-0.888c-3.471,-0.646 -7.588,-0.565 -11.06,-0.323c-4.601,0.323 -8.315,3.875 -13.159,4.521c-7.427,0.969 -14.531,0 -21.958,1.534z" /> <path d="M910.538,639.856c0.082,-1.775 -1.291,-10.333 2.584,-10.898c0.727,5.57 0.081,10.898 -0.807,16.388c-1.212,7.347 -1.696,14.693 -3.472,21.878c-2.584,10.818 -8.8,22.363 -15.743,31.162c-6.135,7.669 -16.065,12.432 -23.977,18.164c-4.601,3.311 -8.799,5.974 -13.885,8.558c-5.732,2.907 -10.979,6.378 -16.63,9.365c-9.445,5.086 -19.375,9.526 -28.982,14.289c-6.055,2.987 -10.011,7.428 -15.016,12.029c-4.844,4.359 -10.171,8.396 -14.289,13.482c-7.589,9.526 -11.545,21.717 -14.047,33.503c-2.099,10.091 -3.794,20.343 -5.247,30.596c-0.888,6.054 -0.565,12.028 -0.565,18.164c-0.081,10.172 -7.669,15.258 -15.581,20.102c-7.103,4.36 -17.437,3.956 -25.51,3.068c-3.874,-0.485 -7.992,-1.05 -11.786,-2.099c-4.037,-1.05 -8.235,-1.534 -12.19,-2.745c-3.714,-1.13 -6.781,-3.633 -10.253,-5.167c-1.775,-0.807 -3.552,-1.371 -5.247,-2.502c-3.552,-2.342 -8.314,-6.297 -9.445,-10.495c-1.857,-6.782 -3.471,-16.228 -0.323,-22.928c1.938,-4.037 4.764,-8.154 7.912,-11.383c3.309,-3.309 8.073,-6.861 11.786,-9.687c1.535,-1.131 3.391,-2.665 5.49,-2.18c0.564,1.614 -0.162,2.987 -0.485,4.682c-0.565,2.664 -0.565,5.166 -0.565,7.992c0,2.099 -0.324,4.279 0.161,6.378c0.403,1.211 0.968,2.421 1.614,3.552c0.646,2.179 0.807,4.44 0.565,6.7c0.404,3.229 1.777,7.589 5.571,7.75c2.422,0.081 5.248,-2.099 7.75,-2.745c5.57,-1.372 10.818,-4.763 15.823,-7.589c4.037,-2.261 9.123,-5.813 12.029,-9.365c3.067,-3.714 3.955,-7.992 3.955,-12.513c0,-7.266 2.261,-14.289 2.422,-21.555c0.162,-8.556 1.615,-16.791 1.211,-25.51c-0.243,-4.359 -1.373,-8.396 -1.292,-12.917c0.162,-7.266 2.745,-14.37 8.558,-19.214c3.309,-2.745 7.346,-3.068 10.979,-5.167c4.683,-2.665 8.962,-6.217 13.563,-9.123c6.863,-4.199 13.724,-8.234 20.587,-12.352c6.781,-4.037 14.047,-7.104 21.151,-10.495c4.924,-2.341 9.93,-5.408 15.177,-6.781c5.49,-1.453 11.14,-2.341 16.63,-3.633l-31.242,24.381c1.453,-1.211 3.229,-1.615 5.247,-1.211c4.521,0.565 8.961,0.485 13.482,-0.242c8.235,-2.503 16.065,-5.731 23.654,-9.849c8.395,-4.037 15.419,-9.849 21.151,-17.276c7.265,-7.992 14.531,-16.065 21.716,-24.138c4.36,-6.135 6.298,-12.997 5.813,-20.424z" /> <path d="M930.854,503.262c0.807,-0.808 1.533,-1.615 2.26,-2.422c-1.534,0.646 -3.067,1.373 -4.44,2.341c-2.099,1.453 -2.987,3.794 -4.844,5.328c-2.423,2.099 -5.814,2.826 -8.316,4.925c-0.97,0.726 -1.696,1.614 -2.584,2.502c6.378,-3.714 12.594,-7.589 17.922,-12.675zM551.502,701.13c-8.234,-0.485 -16.469,-2.018 -24.703,-2.099c-4.925,0 -9.93,0.162 -14.855,0.081c-3.23,-0.081 -6.055,0.404 -9.123,1.211c-6.942,1.615 -13.966,1.211 -21.07,1.211c-3.31,0 -6.7,0 -10.091,-0.081c0.242,0 0.485,0.081 0.727,0.081c6.862,0.161 13.481,0.645 20.344,0.968c4.844,0.324 9.526,-0.161 14.37,-0.807c5.974,-0.727 12.19,-0.242 18.164,-0.242c8.476,0 17.679,0.808 26.237,-0.323zM191.124,632.03c19.133,7.588 37.378,17.357 55.946,26.237c5.569,2.664 11.625,5.005 16.872,8.396c4.844,3.068 8.88,5.732 14.531,7.427c7.83,2.341 15.095,3.713 23.411,2.664c6.539,-0.808 12.998,-2.099 19.456,-3.31c-0.161,-3.068 -1.292,-5.005 -2.906,-6.378c3.633,1.13 7.185,2.26 10.979,2.906c8.154,1.372 16.47,1.05 24.623,1.857c8.153,0.807 15.984,2.744 24.057,3.875c8.235,1.211 16.791,1.372 25.107,1.453c16.388,0.08 31.888,4.683 47.792,8.396c5.893,1.372 12.835,1.534 18.971,1.857c9.123,0.403 18.083,1.534 27.206,2.341c11.464,1.049 22.928,2.503 34.472,2.422c13.562,-0.08 26.559,0 39.961,-2.26c6.459,-1.049 12.837,-2.826 19.295,-3.875c4.198,-0.645 7.831,-1.614 11.383,-3.955c4.844,-3.229 5.813,-10.737 7.589,-16.146c0.404,-1.21 2.261,-4.762 0.727,-6.054c-0.888,-0.726 -3.876,-0.161 -4.925,-0.161c-1.373,0 -2.583,0.08 -3.875,0.161c0.808,-0.727 1.615,-1.373 2.422,-2.18c3.876,-3.311 6.943,-4.279 12.029,-4.925c3.068,-0.403 5.893,-1.049 8.961,-1.776c4.602,-1.131 9.527,-0.566 14.209,-0.485c5.409,0.081 10.253,-1.372 15.5,-2.099c3.229,-0.403 6.458,-0.403 9.687,-0.968c5.732,-1.13 11.301,-3.391 16.872,-5.167c8.88,-2.825 15.823,-7.993 24.057,-11.948c2.987,-1.453 6.136,-2.663 9.284,-3.794c7.831,-2.826 14.935,-6.62 21.716,-11.464c10.656,-7.75 18.487,-18.568 28.417,-27.206c2.503,-2.1 4.764,-2.826 7.67,-4.118c3.391,-1.615 6.701,-4.037 9.849,-6.378c1.211,-3.471 2.584,-6.943 3.391,-10.737c2.26,-10.657 4.682,-21.233 4.601,-32.131c0,-7.912 -0.808,-14.773 -2.826,-22.443c-1.535,-5.893 -3.956,-11.544 -5.49,-17.518c-2.664,-10.091 -3.875,-20.505 -7.104,-30.435c-2.018,-6.297 -4.359,-12.432 -6.781,-18.568c-2.745,-6.781 -6.7,-12.351 -10.898,-18.325c-3.391,-4.763 -7.59,-9.123 -8.558,-15.016c-0.808,-4.844 0.565,-10.495 2.26,-14.935c0.646,-1.696 1.05,-1.534 1.211,-3.391c0.161,-3.148 -0.081,-6.378 -0.081,-9.526c0,-5.409 1.131,-11.787 -1.049,-16.792c-1.695,-4.117 -4.844,-8.8 -7.992,-11.948c-7.426,-7.428 -15.984,-12.998 -24.864,-18.407c-3.955,-2.422 -7.749,-4.36 -11.786,-6.62c-2.099,-1.212 -4.199,-2.341 -6.217,-3.472c-9.447,-3.633 -19.214,-5.813 -29.225,-7.912c-16.469,-3.471 -32.534,-8.557 -49.003,-11.948c-20.263,-4.116 -41.656,-4.843 -62.323,-4.601c-8.234,0.161 -15.661,-0.161 -23.411,-3.552c-7.588,-3.391 -14.935,-7.105 -23.169,-8.316c-8.073,-1.21 -15.581,-3.794 -23.573,-5.247c-7.023,-1.373 -14.127,-1.373 -21.151,-2.584c-6.539,-1.21 -12.029,-0.565 -18.81,-0.242c-12.352,0.565 -24.703,0.484 -37.055,0.242c-4.117,1.292 -8.235,2.502 -12.675,2.987c-11.222,1.211 -22.605,3.068 -33.584,6.297c-1.533,0.484 -2.825,1.049 -4.359,1.776c-2.584,1.05 -5.248,1.372 -7.912,2.018c-0.162,0.081 -0.243,0.242 -0.485,0.323c-4.036,2.341 -8.88,3.552 -13.159,5.328c0.323,-0.161 -4.198,2.261 -5.409,2.584c-0.726,0.243 -1.533,0.404 -2.26,0.485c-1.131,0.807 -2.261,1.614 -3.472,2.26c-2.665,1.534 -5.813,2.583 -8.558,3.794c-10.495,4.844 -21.07,9.688 -31.727,14.209c-6.944,2.987 -12.998,6.458 -20.183,8.638c-0.888,0.242 -1.776,0.565 -2.664,0.807c-0.483,0.485 -1.049,0.888 -1.614,1.373c-7.831,6.377 -11.544,15.741 -13.482,25.51c-0.323,1.696 -1.049,3.633 -0.888,5.409c0.323,2.582 2.18,4.359 2.987,6.7c1.857,5.57 2.18,12.836 0.081,18.245c-0.888,2.423 -1.696,3.311 -3.472,4.925c-4.763,4.198 -8.88,9.445 -13.159,14.289c-4.52,5.167 -6.378,9.042 -7.992,15.581c-1.857,7.427 -3.795,15.177 -4.763,22.685c-0.646,5.327 -1.131,10.737 -2.18,15.984c-0.485,2.664 -2.019,4.601 -2.584,7.185c-0.807,3.956 -1.211,8.557 -1.292,12.675c-0.242,8.799 0.081,17.68 0.081,26.56c0,2.421 0.081,4.924 0,7.346c0,3.23 -1.534,6.862 -1.292,9.93c0.162,2.341 1.534,3.794 3.472,5.167c1.372,0.969 3.633,1.453 4.844,2.664c1.534,1.453 0.565,0.404 1.292,1.857c4.036,8.557 2.906,19.053 6.054,27.852c1.614,4.279 5.005,7.75 7.185,11.625c2.824,5.005 3.955,10.091 3.955,15.823c0,2.583 -0.081,4.44 0.807,6.781c0.968,2.341 1.534,3.714 1.453,6.378c0,1.212 -0.323,2.987 0,4.118c0.081,0.322 0.404,0.726 0.727,1.049c1.292,1.13 2.665,2.342 4.118,3.31c6.378,4.198 13.967,5.247 20.587,8.719c5.49,2.987 10.091,6.297 15.016,10.172c3.148,2.421 6.297,4.44 9.526,6.539c3.068,0.484 6.055,1.13 9.042,2.018c5.893,1.775 11.868,1.533 17.922,2.26c10.818,1.453 21.717,2.018 32.212,5.328c7.508,2.341 15.661,0.807 23.331,2.502c3.795,0.807 6.62,1.775 10.495,2.26c8.072,0.807 15.984,3.552 23.815,5.893c13.482,4.036 26.803,6.7 40.769,6.7c5.328,-0.081 10.737,0 16.065,0c6.217,-0.08 12.191,1.131 18.488,1.131c5.732,0 11.464,0 17.196,0c10.495,0 21.636,1.05 31.969,-0.242c4.683,-0.485 9.446,-2.019 14.128,-2.826c4.925,-0.807 9.526,-1.373 14.451,-1.534c2.26,-0.08 4.279,-0.969 6.539,-1.211c1.292,-0.161 2.664,0.081 4.037,0.081c1.616,-0.163 2.584,-0.808 4.118,-1.131c1.936,-0.404 4.116,-0.081 6.054,-0.081c3.955,0 7.104,-0.646 10.898,-1.453c1.614,-0.404 3.148,-0.566 4.682,-0.727c-4.197,3.713 -7.749,7.023 -13.32,9.849c-5.652,2.906 -11.221,4.763 -17.438,6.297c-23.815,5.732 -47.711,5.651 -72.092,5.732c-9.769,0 -19.456,0 -29.225,-0.888c-5.085,-0.484 -10.252,-0.081 -15.338,-0.888c-6.135,-0.968 -12.271,-2.179 -18.164,-3.955c-5.328,-1.696 -10.737,-4.44 -16.388,-4.844c-6.217,-0.404 -12.513,0.566 -18.81,0.081c-7.185,-0.645 -14.047,-0.968 -21.313,-1.049c-19.053,-0.242 -37.54,-4.924 -56.673,-4.682c-2.18,0 -4.359,0.08 -6.539,0.161c0.646,0.405 1.292,0.888 1.938,1.373c-1.534,-0.485 -3.068,-0.888 -4.521,-1.292c-6.781,0.161 -13.483,-0.162 -19.537,-3.391c-0.808,-0.485 -1.615,-0.888 -2.422,-1.373c-0.646,0 -1.292,-0.081 -1.938,-0.081c0.485,0 0.888,-0.161 1.373,-0.242c-2.018,-1.049 -3.956,-2.179 -5.409,-3.713c-1.938,-2.018 -3.067,-4.116 -5.651,-5.247c-2.261,-1.13 -5.168,-1.453 -7.67,-2.018c-5.812,-1.534 -11.705,-2.664 -17.518,-3.875c-1.856,-0.484 -2.906,-1.614 -4.601,-2.341c-3.955,-1.534 -8.476,-2.584 -12.513,-4.118c-5.086,-1.857 -9.849,-2.745 -15.258,-2.906c-4.844,-0.162 -9.446,-2.422 -14.128,-3.875c-7.75,-2.502 -14.046,-7.588 -20.909,-11.867c-3.714,-2.342 -7.912,-4.037 -11.222,-6.943c-0.969,-0.888 -1.857,-1.776 -2.664,-2.664c-3.552,-0.727 -7.023,-1.454 -10.333,-2.422c-5.812,-1.776 -10.979,-4.521 -16.469,-6.943c-2.583,-1.049 -5.166,-2.018 -7.75,-2.906c1.534,0.807 3.149,1.695 4.763,2.502c5.732,2.987 10.011,7.507 15.016,11.625c9.848,7.992 20.263,14.451 32.049,19.052zM62.278,518.679c0.646,1.05 1.373,1.938 1.938,2.584c0.081,0.081 0.161,0.162 0.242,0.323c-0.242,-0.807 -0.646,-1.533 -0.888,-2.26c-0.404,-0.242 -0.888,-0.485 -1.292,-0.646zM363.481,291.992c-2.341,0.565 -4.764,1.129 -5.732,1.614c-0.969,0.403 -1.857,1.13 -2.745,1.776c2.826,-1.131 5.651,-2.18 8.477,-3.391zM382.292,285.291c-0.646,0.081 -1.292,0.161 -1.938,0.242c-0.727,0.242 -1.211,0.645 -1.776,1.049c1.211,-0.404 2.502,-0.807 3.713,-1.292zM291.792,310.801c6.459,-0.807 12.917,-1.695 19.295,-3.148c3.31,-0.807 5.893,-1.453 8.719,-2.664c-0.726,0 -1.533,0 -2.26,0c-5.49,-0.243 -10.979,-0.162 -16.469,0.161c-3.31,1.211 -6.297,3.713 -9.284,5.651zM125.812,396.132c2.342,-3.472 4.683,-7.105 6.943,-10.657c-1.453,0.808 -2.987,1.616 -4.44,2.584l-2.502,8.073zM213.644,389.513c1.292,-3.795 0.727,-7.911 0.727,-11.948c-0.08,-6.054 -0.08,-10.252 3.068,-15.823c2.099,-3.713 5.812,-6.539 8.638,-9.849c2.583,-3.148 5.328,-6.216 7.992,-9.284c-2.664,0.404 -5.328,0.807 -7.992,1.292c-1.049,0.565 -2.019,1.13 -2.987,1.857c-2.422,1.614 -3.714,3.794 -5.409,6.054c-1.856,2.503 -3.875,4.36 -5.328,7.266c-2.502,5.327 -5.731,8.153 -10.898,11.14c-9.526,5.408 -19.052,11.625 -28.901,16.63c-0.241,1.454 -0.564,2.907 -0.968,4.118c-0.969,2.906 -2.422,5.651 -3.633,8.396c-0.646,1.291 -1.534,2.583 -2.099,3.875c-0.483,1.291 -0.403,1.937 -0.968,3.148c-0.726,1.291 -1.937,2.421 -2.502,3.713c-0.727,2.019 -0.404,3.875 -1.292,5.974c-0.888,1.857 -2.261,3.552 -3.068,5.49c-1.211,3.148 -2.261,5.812 -3.068,9.284c-1.131,4.602 -3.311,8.316 -4.925,12.675c-0.807,2.341 -0.484,4.602 -0.807,7.104c-0.888,5.893 -2.26,12.028 -4.44,17.599c-3.794,9.526 -2.341,20.748 -2.341,30.839c0,2.987 0,5.893 0,8.88c2.745,2.907 5.651,5.651 7.992,8.961c4.037,5.812 0.08,1.534 1.453,4.763c0.969,2.26 2.341,3.309 2.987,5.893c1.614,5.974 3.956,12.029 5.005,18.003c0.564,3.31 0.646,6.459 3.148,8.961c6.862,7.185 16.63,9.445 24.461,15.338c2.26,1.695 4.521,2.341 6.378,4.682c0.242,0.242 0.485,0.565 0.646,0.807c2.261,0.565 4.44,1.13 6.62,1.857c0.161,-0.322 0.404,-0.564 0.565,-0.968c1.775,-4.682 1.937,-12.756 0.161,-17.438c-1.211,-3.149 -4.682,-5.49 -7.104,-7.589c-4.844,-4.279 -4.924,-9.203 -7.104,-15.016c-0.968,-2.503 -0.888,-4.924 -1.695,-7.508c-0.645,-2.26 -1.615,-3.794 -1.776,-6.054c-0.081,-0.726 -0.484,-3.874 -0.242,-4.359c1.211,-2.261 5.571,-1.453 7.024,-3.875c1.454,-2.34 0.242,-9.929 0.081,-12.593c-0.646,-11.059 -1.695,-22.12 -2.18,-33.099c-0.162,-4.521 1.614,-7.992 2.906,-12.271c1.05,-3.633 1.614,-7.59 2.099,-11.303c0.485,-2.825 1.534,-6.943 0.646,-9.849c-1.373,-4.601 -5.328,-6.539 -4.521,-11.867c1.696,-11.221 12.675,-15.661 18.568,-24.138c2.018,-2.826 3.875,-6.459 5.086,-9.769zM219.779,322.997c-2.744,1.695 -5.489,3.552 -8.153,5.328c1.372,-0.646 2.745,-1.292 4.198,-1.857c2.422,-1.857 5.087,-4.037 7.589,-5.086c2.826,-1.211 5.813,-1.695 8.558,-2.987c4.44,-2.907 8.8,-6.056 13.482,-8.558c4.44,-2.341 8.397,-5.49 12.998,-7.508c1.534,-0.646 3.068,-1.211 4.521,-1.938c4.763,-2.341 7.346,-2.179 12.836,-2.26c3.794,-0.08 6.62,-1.372 10.172,-2.26c2.826,-0.646 5.732,0.403 8.477,0.807c1.695,0.162 3.391,0.404 5.086,0.404c5.813,-0.161 15.016,-1.776 19.698,-5.328c2.583,-2.018 4.117,-4.763 7.346,-6.136c3.069,-1.292 6.621,-2.503 9.769,-3.31c3.875,-0.969 7.589,-0.807 11.383,-2.18c4.279,-1.534 8.396,-3.874 12.675,-5.247c9.445,-2.986 18.729,-3.875 27.287,-9.203c14.37,-8.88 30.92,-18.487 48.035,-19.698c20.263,-1.373 40.528,1.614 60.306,5.247c3.47,0.566 6.781,0.324 10.333,0.485c8.234,0.565 16.388,2.26 24.784,2.341c7.346,0.08 13.885,3.309 20.505,6.7c10.818,5.489 21.151,11.383 33.18,13.885c2.1,-2.421 4.683,-8.234 8.558,-6.539c0.726,0.564 1.372,1.13 2.018,1.695c2.18,0.888 4.279,1.856 6.378,2.987c5.974,3.148 10.899,4.762 17.68,6.054c11.303,2.26 22.362,5.167 33.665,7.427c7.992,1.614 16.307,2.422 24.219,4.44c10.011,2.422 19.375,7.347 29.386,9.607c5.006,1.211 9.607,2.099 14.693,3.552c4.602,1.373 9.768,2.261 14.935,2.826c-5.006,-1.776 -10.172,-3.148 -15.097,-5.005c-2.664,-1.05 -5.329,-1.695 -7.831,-3.068c-1.371,-0.727 -2.663,-1.534 -3.955,-2.422c-0.404,0 -0.808,-0.081 -1.131,-0.081c-3.471,-0.565 -5.732,-1.938 -8.88,-3.552c-4.359,-2.18 -7.75,-5.167 -11.625,-7.589c-2.422,-1.049 -4.763,-2.018 -7.104,-2.906c-0.404,-0.162 -0.807,-0.243 -1.292,-0.404c-2.18,-0.404 -4.359,-0.566 -6.539,-1.131c-5.732,-1.533 -11.302,-3.067 -17.115,-3.955c-0.889,-0.162 -1.696,-0.324 -2.584,-0.485c-1.211,-0.081 -2.502,-0.242 -3.713,-0.646c-0.889,-0.242 -1.696,-0.565 -2.584,-0.888c-5.166,-1.372 -10.252,-3.149 -15.419,-4.844c-0.485,-0.161 -0.968,-0.404 -1.453,-0.565c-5.49,-1.211 -10.657,-2.422 -15.904,-4.763c-5.49,-2.422 -11.222,-3.391 -16.954,-5.409c-4.036,-1.453 -9.204,-2.342 -13.159,-4.037c-3.874,-1.614 -7.103,-4.601 -11.14,-5.893c-7.023,-2.179 -14.208,-4.844 -21.474,-6.458c-8.234,-1.777 -16.388,-2.745 -24.784,-3.391c-3.148,-0.322 -5.571,-0.161 -8.719,-0.807c-1.938,-0.323 -8.074,-2.825 -10.576,-1.857c-0.968,0.324 -1.372,0.888 -1.614,1.373c-0.162,0 -0.324,0 -0.485,-0.081c-6.539,-1.291 -13.482,-2.583 -20.102,-2.422c-9.445,0.241 -18.891,-0.324 -28.094,0.968c-5.812,0.807 -11.302,2.26 -17.115,3.552c-4.843,0.968 -10.494,0.161 -15.419,0.161c-5.813,0 -9.849,2.017 -15.662,3.955c-5.006,1.615 -8.397,5.329 -13.402,7.024c-1.291,0.888 -2.583,1.13 -3.875,0.565c-1.05,0.403 -2.019,0.969 -2.826,1.776c-3.955,1.856 -7.831,0.888 -11.786,1.695c-1.129,0.243 -1.292,1.05 -2.26,1.292c-4.44,1.292 -9.769,-1.05 -14.37,0.081c-4.198,1.129 -8.799,2.744 -13.078,3.955c-2.987,0.889 -5.975,1.857 -9.123,2.584c-3.633,0.807 -7.588,0.968 -11.06,2.502c-9.446,4.279 -18.326,9.769 -28.175,13.563c-6.943,2.665 -13.32,6.297 -20.263,9.123c-7.508,2.987 -12.998,7.265 -19.456,11.786c-12.595,8.719 -26.48,14.935 -39.397,23.008zM850.93,358.513c-2.342,-0.565 -4.603,-1.211 -6.863,-1.938c-1.05,-0.483 -2.019,-1.129 -3.068,-1.614c0.161,0.322 0.404,0.564 0.565,0.968c5.49,3.148 11.141,6.135 16.954,8.719c-1.292,-0.888 -2.745,-1.696 -4.037,-2.745c-1.13,-1.131 -2.341,-2.26 -3.552,-3.391zM792.242,373.525c2.826,7.024 6.701,15.984 5.328,23.654c-0.808,4.843 -4.521,9.446 -7.508,13.159c-2.26,2.745 -2.745,6.378 -1.292,9.769c0.645,1.616 2.018,2.826 3.229,4.118c5.57,5.893 12.594,10.657 17.68,17.115c3.148,4.035 1.131,3.713 2.18,8.153c0.889,3.956 1.938,6.943 1.857,11.222c-0.081,4.521 -0.242,9.042 0,13.482c0.242,5.57 2.422,10.656 3.229,16.065c1.049,7.185 2.502,14.37 3.955,21.474c0.888,4.603 3.148,8.639 3.229,13.402c0,5.57 0.404,10.575 1.453,15.984c1.05,5.813 0.727,9.93 -0.807,15.662c-0.969,3.552 -2.422,6.782 -4.198,9.93c1.776,-0.484 3.472,-0.968 5.086,-1.695c2.18,-1.05 3.956,-2.261 5.974,-3.472c3.068,-1.937 6.62,-3.067 10.253,-3.955c0.403,-1.049 0.727,-2.26 0.888,-3.955c0.564,-4.36 2.098,-8.235 2.502,-12.756c1.13,-12.836 2.341,-25.268 2.018,-38.185c-0.08,-3.068 -1.05,-5.732 -1.211,-8.719c-0.161,-2.18 0,-4.359 0,-6.539c0,-6.136 -1.291,-13.967 0.323,-19.86c1.211,-4.521 5.328,-9.284 8.638,-12.917c-0.242,-0.726 -0.404,-1.533 -0.565,-2.26c-0.888,-3.149 -2.504,-6.055 -3.472,-9.203c-1.13,-3.632 -1.695,-7.507 -3.068,-11.14c-1.777,-4.925 -5.248,-9.042 -7.67,-13.724c-4.764,-9.446 -9.204,-18.084 -11.464,-28.579c-0.807,-3.552 -1.696,-7.427 -3.391,-10.737c0,-1.373 -0.645,-2.261 -1.776,-2.826c-6.377,-2.179 -12.675,-4.359 -19.133,-6.458c-5.327,-1.695 -10.656,-3.472 -15.984,-5.167c1.372,2.987 2.502,6.055 3.713,8.961zM903.887,413.974c-3.875,-1.13 -7.105,-2.987 -10.253,-5.005c7.992,9.042 16.146,18.003 28.094,21.313c5.895,1.614 12.352,1.049 18.488,1.049c3.714,0 7.428,0 11.222,0c-1.857,-0.565 -3.633,-1.211 -5.409,-1.857c-5.974,-2.179 -11.464,-5.812 -17.357,-7.992c-3.229,-1.21 -6.378,-1.049 -9.607,-1.695c-5.166,-1.131 -10.091,-4.279 -15.177,-5.813zM982.6,446.432c1.615,1.857 2.099,3.956 -0.242,6.458c-3.472,3.632 -7.104,7.104 -11.625,9.203c-3.229,1.454 -5.893,3.31 -8.234,6.136c-1.373,1.695 -2.745,3.31 -4.037,5.005c0.969,-1.049 1.937,-2.099 3.068,-2.987c0.969,-0.726 1.938,-1.211 2.745,-1.857c-0.807,1.453 -1.292,3.39 -2.18,4.682c-4.279,6.136 -9.526,11.141 -13.159,17.761c-2.502,4.681 -6.216,8.153 -8.88,12.593c-2.019,3.472 -4.36,5.974 -7.266,8.719c-4.44,4.359 -8.316,9.202 -12.917,13.32c-11.544,10.172 -22.443,21.071 -35.521,29.305c-5.813,3.632 -10.091,9.202 -16.227,12.593c-4.037,2.26 -7.912,4.037 -12.271,5.651c-9.768,3.632 -17.599,10.253 -25.43,17.034c-0.727,1.453 -1.534,2.826 -2.18,4.279c-3.309,5.409 -6.781,10.656 -10.333,15.823c-4.602,7.669 -8.477,15.742 -13.563,23.169c-4.118,6.217 -8.155,11.625 -14.209,15.904c-4.925,3.552 -10.414,5.248 -15.904,7.75c-7.993,3.552 -15.904,7.427 -23.331,11.948c-5.732,3.391 -11.625,5.247 -17.518,8.073c-8.719,4.198 -16.469,10.253 -25.834,13.159c-9.688,3.068 -20.021,3.633 -29.951,4.279c-6.781,0.484 -13.804,2.179 -20.424,3.552c-8.477,1.858 -16.389,3.149 -25.188,3.472c-6.136,0.161 -11.788,2.18 -17.842,3.229c-6.862,1.291 -12.998,1.857 -19.537,4.359c-7.507,2.987 -14.854,4.924 -22.604,7.346c-10.253,3.23 -19.376,6.781 -30.113,7.912c-6.7,0.646 -12.917,2.584 -19.617,2.745c-6.621,0.162 -13.321,0.081 -19.941,-0.242c-24.865,-1.292 -49.972,-3.715 -74.756,-6.217c-7.266,-1.13 -14.531,-1.695 -21.797,-1.695c-6.297,0.404 -12.513,-0.08 -18.649,-1.614c-3.47,-0.969 -6.861,-1.858 -10.333,-2.826c-5.813,-1.695 -11.788,-2.584 -17.842,-2.826c-6.863,-0.97 -12.756,-3.795 -19.295,-5.571c-10.656,-2.987 -21.796,-4.36 -32.453,-7.266c-10.011,-2.826 -19.214,-7.912 -29.628,-9.93c-3.876,-0.726 -8.235,-0.08 -12.11,-0.161c-5.973,0 -14.046,-1.857 -18.971,-4.844c-0.968,-0.564 -1.775,-1.453 -2.502,-2.502c-5.005,-1.937 -10.495,-2.341 -15.5,-4.521c-3.633,-1.533 -6.943,-3.552 -10.011,-6.054c-5.167,-4.117 -11.221,-6.862 -16.711,-10.495c-5.166,-3.391 -10.091,-7.024 -15.419,-10.011c-4.682,-2.584 -8.476,-5.974 -12.513,-9.365c-4.359,-3.633 -8.073,-5.974 -12.917,-8.719c-7.105,-4.198 -13.159,-9.365 -19.698,-14.451c-5.41,-4.279 -11.383,-7.831 -17.196,-11.464c-5.651,-3.553 -10.414,-7.751 -14.693,-12.998c-3.23,-3.957 -6.782,-8.719 -10.576,-12.11c-1.614,-1.453 -3.552,-2.26 -5.005,-3.713c-1.534,-1.373 -2.423,-3.229 -3.391,-5.086c-1.936,-1.534 -3.955,-2.826 -6.054,-4.44c-2.421,-1.857 -6.296,-3.471 -8.153,-5.651c-3.148,-3.633 -3.632,-10.091 -5.005,-14.612c-0.727,-2.181 -1.13,-4.522 -1.534,-6.863c-1.211,-2.502 -2.422,-5.005 -3.875,-7.427c-1.615,-2.825 -1.776,-3.552 -2.422,-7.104c-0.485,-2.987 -1.292,-5.57 -2.18,-7.992c-1.211,-0.484 -2.422,-1.05 -3.633,-1.857c-4.036,-2.503 -8.153,-4.602 -11.625,-7.75c-1.614,-1.453 -3.713,-2.099 -5.247,-3.391c-1.695,-1.534 -2.826,-3.391 -5.167,-4.44c-1.373,-0.646 -2.584,-0.888 -4.037,-1.373c-2.665,-0.888 -5.49,-2.099 -8.316,-2.906c-4.198,-1.21 -8.718,-0.968 -12.836,-2.502c-1.373,-0.565 -4.764,-2.099 -5.813,-3.391c-1.696,-2.099 -1.938,-5.49 -2.745,-7.992c-0.566,-1.857 -1.776,-7.104 -0.081,-8.396c0.727,-0.565 5.328,0 5.813,0c4.44,0 8.8,0.162 13.159,-0.565c5.328,-0.969 11.221,-1.453 16.065,-4.198c0.161,-0.646 0.323,-1.372 0.565,-2.099c0.889,0 1.777,-0.403 2.584,-0.968c-0.161,-0.081 -0.323,-0.162 -0.565,-0.323c0.968,0 1.695,-0.485 2.26,-1.453c0.564,-0.322 1.13,-0.726 1.695,-1.049c2.179,-2.181 4.682,-3.552 6.458,-6.136c2.179,-3.391 3.794,-5.409 7.104,-8.073c4.682,-3.713 9.284,-7.507 14.289,-10.898c1.533,-0.969 3.067,-2.019 4.601,-3.068c1.534,-1.534 2.987,-3.149 4.279,-4.844c0.888,-0.727 1.858,-1.291 2.826,-1.776c2.181,-2.503 4.118,-5.086 6.136,-7.508c2.583,-3.068 6.216,-4.925 8.961,-7.912c8.638,-9.284 13.24,-21.475 19.133,-32.615c1.615,-3.067 2.664,-5.086 5.328,-7.185c4.521,-3.632 8.638,-8.235 13.32,-11.948c1.696,-1.291 7.831,-4.359 6.136,-7.104c0.727,-2.18 3.31,-1.857 5.167,-2.099c0.645,-1.858 0.484,-4.279 1.776,-5.813c1.292,-1.696 3.956,-2.26 5.651,-3.391c2.26,-1.453 4.278,-2.744 6.458,-3.875c8.315,-6.944 19.213,-11.384 26.237,-19.537c5.248,-6.055 10.576,-12.19 15.662,-18.407c4.198,-5.086 8.881,-9.445 14.209,-13.32c4.925,-3.633 9.284,-6.701 13.805,-11.06c3.39,-3.228 6.539,-6.7 10.414,-9.445c8.881,-6.458 18.972,-9.284 29.386,-11.948c13.886,-3.552 28.579,-6.458 41.738,-12.271c8.315,-3.633 16.55,-7.347 24.542,-11.706c5.166,-2.825 10.576,-3.067 16.469,-3.713c5.894,-0.565 11.948,-1.049 17.68,-2.987c1.938,-0.726 4.118,-1.614 6.217,-2.099c11.302,-2.503 24.461,-2.584 35.925,-2.584c16.549,0.081 33.18,0 49.81,0.081c14.128,0.08 28.094,-1.373 42.222,-1.131c11.221,0.162 21.797,-6.135 32.776,-1.776c4.279,1.615 7.992,4.118 12.432,5.167c6.459,1.534 13.159,0.888 19.698,1.453c8.315,0.726 16.308,3.067 24.461,4.359c8.719,1.373 17.599,4.602 26.076,7.024c5.894,1.615 11.787,0.566 17.68,1.373c5.651,0.888 11.464,2.017 16.711,4.601c7.993,3.955 15.581,8.153 23.331,12.593c3.148,1.857 6.378,2.26 9.365,3.633c1.211,0.888 2.502,1.776 3.713,2.664c2.745,1.615 5.651,2.583 8.719,3.068c6.7,1.534 13.885,3.391 19.617,7.024c3.714,2.342 8.316,2.987 12.11,4.844c5.49,2.825 10.091,5.651 16.388,6.943c3.955,0.807 7.265,2.826 10.898,4.44c7.105,2.987 14.29,5.651 20.99,9.284c2.986,1.614 5.166,4.924 8.153,6.781c0.242,0.161 0.485,0.485 0.727,0.646c2.017,0.403 4.036,0.645 6.054,1.049c3.068,0.646 5.893,2.341 8.961,2.826c5.086,0.807 8.477,0.565 13.402,2.987c1.453,0.727 3.309,1.131 4.682,1.938c1.695,0.969 2.825,2.502 4.359,3.633c1.695,1.13 3.794,1.695 5.005,3.148c1.05,1.211 1.373,2.664 2.584,3.875c2.18,2.342 4.601,4.361 6.781,6.863c4.037,4.601 8.235,8.556 12.998,12.593c1.292,1.049 2.663,1.533 3.794,2.26c2.18,1.373 3.795,3.794 5.49,5.732c10.334,11.464 24.058,19.537 33.665,31.727c2.744,3.472 6.135,6.297 8.961,9.526c0.565,0.645 1.049,1.211 1.614,1.776c-3.955,-3.148 -7.911,-6.378 -12.432,-7.992c1.13,1.371 2.179,2.663 3.552,3.955c5.41,4.925 11.141,10.253 16.954,14.612c1.212,0.888 2.261,2.019 3.472,2.987c5.571,4.763 12.433,8.154 18.407,12.352c5.086,3.553 9.041,7.831 15.419,9.607c2.745,0.807 5.571,1.533 8.316,2.26c0.08,0 0.08,0 0.161,0l-15.419,-12.513c-5.651,-2.584 -13.24,-3.633 -17.599,-9.365c-0.404,-0.726 -0.807,-1.372 -1.211,-2.018c-0.485,-0.161 -0.968,-0.242 -1.453,-0.242c-1.534,-1.05 -2.987,-2.18 -4.44,-3.391c6.217,3.633 12.352,7.75 18.649,10.818c8.154,4.037 17.115,9.365 23.573,15.743c0.322,0.241 0.645,0.645 1.049,0.968c0.646,0.081 1.292,0.081 1.857,0.242c0.968,0.324 1.776,1.05 2.341,1.938c0.242,0 0.485,0.08 0.727,0.161c2.987,0.97 7.024,2.423 9.123,4.925c1.454,1.696 1.454,3.633 2.422,5.49c0.484,0.97 1.291,1.696 1.776,2.584z" /></svg>