<svg xmlns="http://www.w3.org/2000/svg" viewBox="0 0 833 832" width="833" height="832"><path d="M402.377,822.822c-3.146,-5.049 -21.732,-60.573 -41.303,-123.392c-19.571,-62.819 -36.129,-114.796 -36.796,-115.509c-0.669,-0.71 -25.875,11.68 -56.012,27.534c-30.137,15.854 -57.895,28.827 -61.679,28.827c-3.786,0 -8.906,-4.439 -11.38,-9.867c-3.947,-8.664 -0.912,-16.658 24.914,-65.591c16.177,-30.648 28.793,-56.271 28.037,-56.94c-0.756,-0.669 -52.77,-17.257 -115.589,-36.864c-62.819,-19.609 -118.345,-38.23 -123.392,-41.384c-5.047,-3.154 -9.178,-9.319 -9.178,-13.703c0,-4.384 4.129,-10.518 9.178,-13.631c5.049,-3.113 60.573,-21.752 123.392,-41.416c62.819,-19.664 114.833,-36.287 115.589,-36.936c0.756,-0.649 -11.862,-26.257 -28.037,-56.907c-25.826,-48.935 -28.864,-56.928 -24.914,-65.591c2.473,-5.427 7.593,-9.867 11.38,-9.867c3.787,0 31.543,12.972 61.679,28.827c30.139,15.854 55.336,28.244 55.997,27.534c0.661,-0.71 17.205,-52.69 36.77,-115.509c19.563,-62.819 38.158,-118.345 41.319,-123.392c7.551,-12.057 23.353,-12.057 28.773,0c2.268,5.049 20.236,60.573 39.929,123.392c19.693,62.819 36.319,114.813 36.952,115.546c0.631,0.733 26.91,-12.117 58.396,-28.554c47.066,-24.571 58.558,-29.082 64.615,-25.369c4.051,2.484 7.967,7.565 8.701,11.29c0.734,3.725 -11.734,31.751 -27.708,62.276c-15.971,30.526 -28.502,55.967 -27.847,56.535c0.655,0.568 52.59,17.143 115.407,36.833c62.818,19.688 118.345,37.645 123.392,39.903c5.695,2.548 9.178,7.692 9.178,13.555c0,5.388 -3.945,11.902 -9.178,15.16c-5.049,3.14 -60.573,21.795 -123.392,41.456c-62.819,19.661 -114.751,36.178 -115.407,36.706c-0.656,0.528 11.875,25.937 27.847,56.463c15.972,30.526 28.439,58.549 27.708,62.276c-0.734,3.725 -4.647,8.807 -8.701,11.29c-6.057,3.712 -17.546,-0.799 -64.615,-25.369c-31.486,-16.438 -57.775,-29.285 -58.419,-28.554c-0.644,0.731 -17.283,52.728 -36.971,115.546c-19.688,62.818 -37.645,118.345 -39.903,123.392c-2.548,5.695 -7.692,9.178 -13.555,9.178c-5.385,0 -11.91,-3.947 -15.169,-9.178zM460.937,517.588c41.04,-18.557 65.221,-56.296 65.136,-101.656c-0.123,-63.472 -46.681,-110.055 -110.006,-110.055c-63.325,0 -109.887,46.584 -110.006,110.055c-0.119,63.292 46.566,109.957 110.006,109.957c17.931,0 32.456,-2.686 44.869,-8.3zM390.188,487.485c-52.807,-18.829 -67.473,-85.216 -27.628,-125.061c55.28,-55.28 147.211,-1.408 126.821,74.315c-5.986,22.235 -29.36,46.145 -50.969,52.146c-20.676,5.739 -28.866,5.503 -48.223,-1.399zM434.131,433.998c3.526,-3.526 6.41,-11.654 6.41,-18.063c0,-6.409 -2.884,-14.54 -6.41,-18.063c-3.526,-3.526 -11.654,-6.41 -18.063,-6.41c-6.409,0 -14.54,2.884 -18.063,6.41c-8.244,8.245 -8.244,27.885 0,36.13c3.526,3.526 11.654,6.41 18.063,6.41c6.409,0 14.54,-2.884 18.063,-6.41zM307.972,790.757c-64.488,-18.557 -148.886,-70.28 -148.886,-91.245c0,-13.305 14.001,-21.179 24.253,-13.643c57.986,42.62 85.078,56.628 140.603,72.695c38.377,11.105 48.586,19.037 40.704,31.622c-6.246,9.977 -23.385,10.147 -56.674,0.568zM469.912,794.473c-6.357,-6.357 -6.258,-17.479 0.202,-22.703c2.804,-2.268 19.395,-8.013 36.869,-12.768c51.651,-14.057 84.454,-30.972 141.811,-73.131c10.252,-7.535 24.253,0.339 24.253,13.643c0,21.461 -86.577,73.994 -150.844,91.528c-35.133,9.587 -45.461,10.263 -52.293,3.429zM104.002,649.459c-24.765,-31.414 -53.202,-90.359 -64.295,-133.272c-9.713,-37.571 -8.053,-48.076 7.976,-50.485c11.61,-1.745 16.596,6.256 25.429,40.788c12.302,48.096 31.059,85.091 69.14,136.359c7.844,10.56 8.683,14.264 4.855,21.416c-8.504,15.89 -22.771,10.989 -43.107,-14.807zM685.131,664.461c-3.538,-6.61 -3.1,-10.39 2.01,-17.335c39.621,-53.856 58.519,-90.744 72.144,-140.814c9.712,-35.691 13.814,-42.312 25.166,-40.606c16.087,2.416 17.691,12.895 7.831,51.171c-17.289,67.104 -70.086,156.04 -92.633,156.04c-5.935,0 -11.832,-3.433 -14.518,-8.454zM37.527,362.088c-6.832,-6.832 -6.155,-17.161 3.429,-52.293c17.534,-64.266 70.067,-150.844 91.528,-150.844c13.305,0 21.179,14.001 13.643,24.253c-42.159,57.358 -59.077,90.161 -73.131,141.811c-4.755,17.474 -10.5,34.066 -12.768,36.869c-5.221,6.461 -16.347,6.56 -22.703,0.202zM772.068,362.081c-2.358,-2.913 -8.175,-19.593 -12.93,-37.066c-14.057,-51.65 -30.972,-84.454 -73.131,-141.81c-7.535,-10.252 0.339,-24.253 13.643,-24.253c22.517,0 75.326,89.204 92.78,156.727c6.862,26.544 7.973,36.744 4.587,42.143c-5.596,8.924 -19.283,11.264 -24.947,4.261zM166.224,146.387c-3.926,-2.286 -7.139,-8.628 -7.139,-14.093c0,-22.457 89.309,-75.292 156.727,-92.722c37.571,-9.713 48.076,-8.053 50.485,7.976c1.718,11.434 -4.92,15.463 -42.009,25.494c-40.833,11.043 -90.503,35.101 -122.293,59.233c-26.909,20.428 -25.73,19.961 -35.771,14.111zM630.141,132.273c-31.79,-24.132 -81.46,-48.189 -122.293,-59.233c-37.086,-10.029 -43.725,-14.059 -42.009,-25.494c2.417,-16.087 12.895,-17.691 51.172,-7.831c67.104,17.289 156.04,70.086 156.04,92.633c0,8.071 -9.641,18.44 -17.149,18.44c-0.752,0 -12.345,-8.333 -25.762,-18.518z" /></svg>