<svg xmlns="http://www.w3.org/2000/svg" viewBox="0 0 864 768" width="864" height="768"><path d="M822.763,385.158c0.138,-0.622 0.262,-1.244 0.4,-1.892c3.438,-0.995 9.581,-1.244 13.194,-0.498c4.426,0.871 7.819,5.589 11.598,8.079c6.579,4.255 14.872,14.784 15.689,22.734c1.502,15.126 -4.47,36.702 -20.375,41.776c-5.755,1.842 -11.169,2.712 -17.19,2.279c-4.209,-0.249 -6.06,-1.804 -10.056,-2.328c-7.695,-0.995 -12.073,-0.995 -17.576,-7.306c-9.071,-10.441 3.692,-36.702 19.338,-27.46c11.864,-11.947 -12.891,-21.274 -19.122,-26.818c3.737,-12.504 18.606,-10.828 28.62,-10.828z" /> <path d="M502.918,603.017c0.984,-0.124 2.021,-0.249 3.006,-0.373c3.186,4.728 6.666,13.836 7.35,19.64c0.858,7.094 -4.597,14.525 -6.448,21.443c-3.179,11.984 -14.91,29.739 -26.472,34.854c-22.051,9.76 -57.59,11.426 -73.063,-10.056c-5.586,-7.743 -9.581,-15.431 -11.946,-24.755c-1.633,-6.449 -0.222,-10.018 -1.464,-16.29c-2.363,-12.072 -4.554,-18.652 2.323,-30.125c11.256,-18.78 57.202,-12.504 50.929,15.6c23.895,11.947 25.7,-29.954 30.985,-42.076c20.712,-0.622 25.483,22.69 30.467,37.822z" /> <path d="M479.366,724.916l1.546,-0.124c1.677,2.453 3.481,7.219 3.868,10.23c0.437,3.734 -2.406,7.555 -3.354,11.214c-1.673,6.234 -7.777,15.474 -13.797,18.183c-11.473,5.078 -29.994,5.925 -38.079,-5.29c-2.92,-4.046 -4.984,-8.04 -6.231,-12.936c-0.858,-3.347 -0.138,-5.203 -0.736,-8.466c-1.247,-6.312 -2.406,-9.76 1.158,-15.726c5.886,-9.796 29.827,-6.534 26.562,8.166c12.461,6.234 13.367,-15.643 16.113,-21.962c10.83,-0.249 13.281,11.862 15.906,19.729z" /> <path d="M396.572,164.971c-0.984,0.124 -2.021,0.249 -3.006,0.373c-3.179,-4.728 -6.661,-13.836 -7.35,-19.598c-0.858,-7.131 4.602,-14.568 6.448,-21.487c3.186,-11.984 14.915,-29.737 26.52,-34.854c22.003,-9.76 57.546,-11.426 73.014,10.056c5.591,7.73 9.583,15.426 11.946,24.75c1.633,6.449 0.262,10.018 1.464,16.29c2.363,12.072 4.557,18.652 -2.323,30.125c-11.256,18.786 -57.154,12.51 -50.924,-15.6c-23.895,-11.984 -25.7,29.954 -30.985,42.077c-20.715,0.498 -25.483,-22.691 -30.473,-37.823z" /> <path d="M420.13,43.08l-1.59,0.124c-1.633,-2.453 -3.438,-7.219 -3.823,-10.23c-0.437,-3.734 2.406,-7.555 3.35,-11.214c1.677,-6.234 7.782,-15.474 13.797,-18.181c11.473,-5.064 29.997,-5.925 38.079,5.29c2.924,4.046 4.984,8.04 6.231,12.938c0.858,3.347 0.09,5.203 0.736,8.466c1.247,6.321 2.406,9.76 -1.158,15.726c-5.883,9.796 -29.824,6.534 -26.557,-8.166c-12.464,-6.234 -13.367,15.643 -16.119,21.96c-10.788,0.249 -13.278,-11.862 -15.9,-19.727z" /> <path d="M804.627,344.324c-2.621,4.518 -14.353,4.429 -26.041,4.518c-6.454,0.089 -12.035,-1.632 -18.052,-3.87c-5.158,-1.929 -9.671,-1.929 -14.872,-3.347c-3.483,-0.935 -6.79,-3.139 -10.144,-4.383c-7.601,-2.788 -16.886,-3.819 -23.937,-8.202c-4.382,-2.715 -7.52,-8.252 -11.13,-11.862c-11.73,-11.818 -26.472,-20.716 -40.698,-28.882c-18.78,-10.748 -40.486,-13.278 -61.156,-17.533c-7.35,-1.542 -16.244,-4.38 -22.734,-8.376c-7.308,-4.566 -10.188,-10.837 -18.906,-13.626c-13.792,-4.479 -27.335,-10.789 -42.031,-10.878c-10.617,-0.082 -21.229,0.042 -31.891,0.042h-115.39c-13.883,0 -26.821,0.462 -40.44,2.316c-7.734,1.031 -15.513,3.955 -23.208,6.234c-14.352,4.256 -27.934,11.18 -41.514,17.666c-15.125,7.176 -24.066,18.693 -36.316,29.31c-3.097,2.661 -6.49,3.783 -9.37,6.657c-2.535,2.489 -4.896,4.082 -7.65,6.186c-3.18,2.362 -4.984,5.713 -7.864,8.338c-3.48,3.189 -7.046,6.063 -10.4,9.46c-5.197,5.331 -11.562,9.851 -17.875,13.41c-6.488,3.697 -12.592,8.079 -19.898,10.791c-13.284,4.899 -26.903,10.878 -39.066,17.835c-12.51,7.131 -26.13,13.743 -38.039,21.873c-10.7,7.262 -20.54,14.057 -25.958,26.516c-4.34,9.882 -6.144,25.577 -2.838,36.059c3.182,10.119 14.052,14.138 22.95,9.497c4.686,-2.412 8.137,-5.548 7.737,-11.648c-0.258,-4.682 -3.78,-7.906 -6.318,-11.776c-3.824,-5.849 -4.513,-11.441 2.793,-14.315c6.361,-2.49 10.958,-0.175 17.018,1.331c5.286,1.255 9.626,1.416 13.58,5.55c3.355,3.527 6.703,8.904 6.965,13.794c0.343,5.932 -3.432,13.324 -4.554,19c-1.161,5.627 -4.986,8.937 -9.583,11.898c-14.184,9.035 -31.074,10.793 -47.492,8.04c-16.417,-2.75 -33.049,-4.167 -40.224,-21.014c-2.368,-5.585 -3.869,-11.047 -5.243,-16.847c-0.819,-3.646 -1.377,-7.43 -2.235,-11.003c-0.606,-2.453 -2.238,-2.366 -1.59,-6.063c0.813,-4.981 3.779,-10.744 5.883,-15.127c3.915,-8.2 12.595,-11.297 18.829,-17.746c7.864,-8.08 18.394,-15.86 29.437,-15.86c7.569,0.036 9.113,-2.838 14.658,-6.834c4.128,-3.011 9.626,-4.083 13.842,-6.657c10.957,-6.752 22.559,-12.163 32.53,-20.464c6.706,-5.588 13.494,-8.811 19.944,-15.21c3.477,-3.484 6.277,-7.904 10.056,-10.878c4.342,-3.396 8.896,-5.848 13.15,-9.582c6.398,-5.552 12.421,-11.859 18.176,-17.835c4.002,-4.08 8.424,-7.938 12.378,-12.072c5.162,-5.415 9.282,-11.775 14.614,-16.929c5.974,-5.807 11.172,-15.085 18.606,-18.869c9.804,-4.977 20.503,-7.951 30.69,-12.283c8.639,-3.697 16.116,-10.656 24.84,-13.194c24.026,-6.873 49.377,-4.47 74.306,-4.47h89.438c16.46,0 32.018,0.598 48.308,2.366c14.824,1.543 30.08,2.873 44.952,4.94c12.202,1.718 23.59,7.169 35.71,9.236c5.328,0.894 11.431,0.51 16.632,2.016c2.711,0.786 5.033,2.914 7.695,3.66c2.495,0.747 5.33,0.373 7.782,0.871c12.596,2.493 25.016,8.169 36.146,14.355c10.827,5.931 21.832,11.257 31.284,19.297c10.788,9.239 23.725,15.944 35.241,24.282c6.192,4.418 12.72,7.779 19.128,11.862c5.889,3.784 10.36,8.814 15.816,13.02c17.747,13.795 40.959,25.525 63.562,25.483z" /> <path d="M711.808,466.597c4.73,-0.847 18.912,-8.936 29.442,-1.842c3.604,2.402 6.616,7.482 4.426,12.162c-2.622,5.591 -7.993,2.392 -12.98,3.138c-4.213,0.686 -7.434,1.943 -11.778,2.316c-5.287,0.437 -10.699,1.533 -16.031,2.279c-3.479,0.511 -5.326,1.905 -8.853,2.403c-5.286,0.608 -8.94,2.117 -14.31,3.397c-4.56,1.119 -8.641,0.732 -12.936,2.712c-3.482,1.543 -6.666,3.001 -10.358,3.996c-4.082,1.019 -8.382,1.667 -12.294,3.347c-3.61,1.558 -6.616,3.784 -10.182,5.764c-10.401,5.713 -20.672,8.464 -31.719,12.334c-11.861,4.167 -24.5,6.483 -35.716,11.947c-11.772,5.757 -22.99,8.981 -35.368,12.851c-6.789,2.153 -13.278,5.115 -20.07,7.007c-6.618,1.892 -13.536,2.837 -20.328,3.959c-14.394,2.291 -27.974,2.789 -42.547,2.789c-5.883,0 -12.246,0.747 -18.046,-0.124c-6.407,-0.983 -12.762,-2.826 -19.17,-3.821c-28.796,-4.382 -59.223,-4.207 -86.127,-16.417c-13.879,-6.367 -29.997,-7.948 -44.181,-13.537c-13.232,-5.205 -28.016,-8.765 -41.858,-12.162c-19.511,-4.775 -39.58,-13.801 -57.632,-22.052c-5.243,-2.414 -7.047,-4.255 -10.744,-8.251c-4.64,-5.068 -10.87,-7.954 -17.36,-9.796c-4.081,-1.159 -8.033,-2.366 -12.073,-3.697c-4.728,-1.593 -10.96,-1.556 -15.258,-3.31c-1.033,-13.06 33.393,-1.667 38.38,-0.124c16.887,5.414 33.347,11.307 49.765,18.052c9.757,4.046 19.128,9.064 29.397,11.302c11.173,2.487 23.638,5.449 34.038,10.267c7.606,3.534 15.899,5.376 23.724,8.214c4.81,1.667 9.453,3.72 14.479,4.591c3.222,0.548 6.147,0.421 9.198,1.543c2.45,0.944 4.3,2.426 6.876,3.048c12.637,2.786 25.87,2.102 38.678,5.276c9.63,2.376 19.47,1.672 29.352,1.63c13.924,0 26.863,-3.398 40.742,-5.078c9.711,-1.157 19.34,-2.524 28.921,-4.591c6.234,-1.233 12.464,-0.982 18.606,-2.104c6.021,-1.156 11.991,-1.802 18.012,-2.924c5.674,-1.035 11.903,-0.386 17.19,-2.453c6.574,-2.577 12.118,-5.851 19.038,-7.481c16.287,-3.735 31.372,-10.271 47.619,-13.581c19.509,-3.912 37.216,-12.5 56.514,-17.79c20.757,-5.737 42.118,-5.115 63.519,-5.115z" /></svg>