<?xml version="1.0" standalone="no"?>
<!DOCTYPE svg PUBLIC "-//W3C//DTD SVG 20010904//EN"
 "http://www.w3.org/TR/2001/REC-SVG-20010904/DTD/svg10.dtd">
<svg version="1.0" xmlns="http://www.w3.org/2000/svg"
 width="512.000000pt" height="512.000000pt" viewBox="0 0 512.000000 512.000000"
 preserveAspectRatio="xMidYMid meet">
<metadata>
Created by potrace 1.16, written by Peter Selinger 2001-2019
</metadata>
<g transform="translate(0.000000,512.000000) scale(0.100000,-0.100000)"
fill="#000000" stroke="none">
<path d="M2280 4770 c0 -23 35 -77 81 -128 86 -94 149 -227 191 -405 19 -78
22 -121 23 -287 0 -232 -15 -306 -96 -460 -110 -211 -261 -387 -605 -709 -444
-417 -557 -548 -660 -766 -65 -138 -86 -226 -86 -370 0 -142 21 -235 81 -355
56 -113 114 -194 211 -294 204 -212 497 -398 851 -540 125 -50 317 -116 338
-116 29 0 -20 62 -149 190 -325 322 -425 531 -399 831 21 250 126 484 337 759
36 47 131 164 212 260 283 339 388 487 490 690 96 192 127 319 117 470 -26
365 -323 785 -826 1169 -93 71 -111 81 -111 61z"/>
<path d="M3513 3555 c3 -11 14 -45 26 -76 62 -171 46 -382 -47 -598 -74 -170
-146 -273 -407 -581 -262 -310 -365 -450 -444 -605 -46 -89 -93 -228 -111
-324 -16 -90 -14 -274 5 -346 23 -88 79 -198 133 -256 l47 -51 1 109 c1 133
21 217 80 340 63 132 163 259 398 502 219 227 317 346 390 475 98 171 152 384
163 632 10 246 -26 442 -112 618 -43 87 -132 205 -122 161z"/>
<path d="M3794 2127 c18 -57 26 -194 16 -267 -34 -248 -151 -407 -612 -833
-184 -170 -250 -277 -284 -459 -8 -42 -14 -102 -12 -134 l3 -57 40 58 c89 130
242 260 435 370 220 125 389 265 475 395 71 106 123 226 136 309 20 131 -18
296 -107 471 -45 88 -100 178 -90 147z"/>
</g>
</svg>
