<?xml version="1.0" standalone="no"?>
<!DOCTYPE svg PUBLIC "-//W3C//DTD SVG 20010904//EN"
 "http://www.w3.org/TR/2001/REC-SVG-20010904/DTD/svg10.dtd">
<svg version="1.0" xmlns="http://www.w3.org/2000/svg"
 width="200.000000pt" height="200.000000pt" viewBox="0 0 200.000000 200.000000"
 preserveAspectRatio="xMidYMid meet">
<metadata>
Created by potrace 1.16, written by Peter Selinger 2001-2019
</metadata>
<g transform="translate(0.000000,200.000000) scale(0.100000,-0.100000)"
fill="#000000" stroke="none">
<path d="M1175 1831 c-33 -15 -99 -76 -144 -135 l-43 -55 48 -63 c83 -109 222
-239 338 -316 121 -80 311 -180 321 -170 16 15 78 288 79 345 1 78 -10 90
-120 133 -90 34 -174 84 -274 164 -125 100 -160 116 -205 97z"/>
<path d="M744 1766 c-10 -42 62 -227 133 -340 l25 -39 -32 -96 c-43 -125 -76
-190 -144 -280 -62 -84 -62 -73 7 -175 44 -66 263 -296 281 -296 6 0 20 16 31
34 l20 35 72 -64 c90 -79 137 -97 183 -68 38 24 105 113 151 199 19 35 39 62
44 60 6 -2 59 -41 120 -86 152 -115 213 -140 249 -104 48 47 -15 207 -157 398
-46 62 -51 66 -59 46 -8 -21 -9 -21 -88 21 -129 69 -285 191 -425 333 -145
147 -205 232 -187 270 9 21 3 28 -82 91 -115 85 -134 93 -142 61z"/>
<path d="M390 1406 l-145 -53 -42 -79 c-80 -151 -116 -332 -94 -473 23 -146
87 -267 205 -389 143 -148 288 -233 409 -240 106 -6 168 25 234 116 17 22 43
52 60 66 l30 25 -12 63 c-14 79 -28 81 -82 13 -57 -72 -57 -72 -32 -106 l21
-30 -23 -26 c-60 -63 -168 -85 -250 -50 -105 46 -248 197 -319 336 -47 94 -67
208 -51 297 14 77 72 194 115 232 27 23 37 42 46 88 10 47 45 150 87 252 7 18
2 16 -157 -42z"/>
<path d="M603 899 l-32 -20 15 -52 c8 -29 22 -72 31 -97 17 -50 195 -390 203
-389 3 0 39 41 82 90 l76 90 -111 112 c-62 62 -136 149 -166 192 -30 44 -57
83 -60 87 -3 4 -20 -2 -38 -13z"/>
<path d="M1047 468 c3 -18 11 -60 18 -93 l12 -60 28 56 28 56 -28 37 c-15 20
-36 36 -46 36 -15 0 -18 -5 -12 -32z"/>
</g>
</svg>
