<?xml version="1.0" standalone="no"?>
<!DOCTYPE svg PUBLIC "-//W3C//DTD SVG 20010904//EN"
 "http://www.w3.org/TR/2001/REC-SVG-20010904/DTD/svg10.dtd">
<svg version="1.0" xmlns="http://www.w3.org/2000/svg"
 width="276.000000pt" height="277.000000pt" viewBox="0 0 276.000000 277.000000"
 preserveAspectRatio="xMidYMid meet">
<metadata>
Created by potrace 1.16, written by Peter Selinger 2001-2019
</metadata>
<g transform="translate(0.000000,277.000000) scale(0.100000,-0.100000)"
fill="#000000" stroke="none">
<path d="M1179 2535 c-3 -2 -54 -7 -114 -10 -148 -7 -249 -38 -283 -87 -7 -10
-39 -37 -70 -60 -68 -50 -170 -145 -184 -172 -9 -17 -7 -17 18 3 39 31 43 10
7 -40 -60 -87 -94 -146 -104 -184 -15 -61 -21 -72 -26 -57 -3 6 -9 9 -15 6 -6
-4 -8 4 -4 22 3 16 8 60 12 99 l7 69 -27 -28 c-14 -16 -26 -35 -26 -43 0 -7
-4 -21 -9 -31 -72 -136 -89 -226 -93 -487 -2 -175 0 -195 21 -257 12 -37 31
-78 42 -92 10 -13 17 -31 13 -39 -9 -25 22 -149 53 -212 16 -33 28 -66 25 -74
-3 -8 0 -11 7 -7 7 4 11 0 11 -11 0 -11 4 -23 10 -29 5 -5 18 -26 28 -47 31
-64 104 -146 131 -147 13 0 42 -16 65 -36 113 -100 243 -184 378 -244 126 -56
148 -63 241 -72 98 -10 108 -9 193 16 58 17 113 26 159 26 84 0 189 21 247 49
88 42 221 128 282 181 135 118 278 322 325 463 42 122 53 327 18 314 -7 -2
-20 0 -29 4 -14 8 -18 2 -23 -38 -3 -27 -7 -55 -9 -63 -1 -8 -9 -14 -19 -14
-10 1 -17 -5 -17 -17 0 -10 -14 -58 -32 -106 -28 -80 -38 -95 -102 -158 -80
-79 -186 -153 -267 -187 -51 -21 -65 -22 -246 -20 -111 2 -219 -2 -254 -8 -34
-6 -63 -9 -66 -7 -2 3 8 19 24 36 27 29 30 30 72 20 24 -5 49 -8 55 -5 15 5
-62 38 -97 41 -16 1 -33 7 -40 14 -6 6 -15 11 -20 11 -5 0 -23 12 -40 26 -21
17 -37 24 -53 20 -34 -9 -52 2 -85 50 -16 24 -35 44 -40 44 -6 0 -25 11 -43
25 -18 14 -40 25 -48 25 -9 0 -23 11 -32 25 -10 14 -28 30 -42 35 -13 5 -24
13 -23 17 3 21 -2 34 -12 28 -17 -11 -59 36 -59 66 0 15 -5 40 -11 56 -6 15
-13 37 -14 48 -4 27 -43 133 -60 166 -8 14 -21 64 -29 110 -8 46 -19 96 -25
111 -5 14 -8 28 -6 29 10 11 13 94 4 111 -8 15 -7 22 6 32 13 9 16 24 14 59
-2 26 -1 47 3 47 10 0 72 132 69 148 -1 7 5 15 13 18 8 3 39 38 70 78 78 101
158 154 330 215 55 20 101 41 103 46 4 12 -69 40 -129 51 -20 3 -39 12 -42 20
-5 13 -76 21 -87 9z"/>
</g>
</svg>
