<?xml version="1.0" standalone="no"?>
<!DOCTYPE svg PUBLIC "-//W3C//DTD SVG 20010904//EN"
 "http://www.w3.org/TR/2001/REC-SVG-20010904/DTD/svg10.dtd">
<svg version="1.0" xmlns="http://www.w3.org/2000/svg"
 width="332.000000pt" height="538.000000pt" viewBox="0 0 332.000000 538.000000"
 preserveAspectRatio="xMidYMid meet">
<metadata>
Created by potrace 1.16, written by Peter Selinger 2001-2019
</metadata>
<g transform="translate(0.000000,538.000000) scale(0.100000,-0.100000)"
fill="#000000" stroke="none">
<path d="M1475 4930 c3 -5 8 -10 11 -10 2 0 4 5 4 10 0 6 -5 10 -11 10 -5 0
-7 -4 -4 -10z"/>
<path d="M1332 4908 c-7 -7 -12 -9 -12 -5 0 4 -6 2 -14 -5 -8 -7 -12 -16 -9
-20 2 -5 -3 -8 -11 -8 -9 0 -15 -3 -14 -7 1 -5 -5 -22 -15 -39 -9 -17 -18 -42
-21 -55 -7 -40 -36 -122 -52 -152 -21 -37 -33 -227 -15 -227 7 0 9 -4 6 -10
-3 -5 1 -10 9 -10 9 0 18 -12 22 -27 3 -16 7 -33 9 -39 2 -6 -2 -17 -8 -24 -9
-10 -9 -11 0 -6 8 4 8 0 0 -19 -13 -27 -33 -31 -86 -15 -19 5 -31 7 -28 3 4
-3 2 -14 -3 -23 -7 -13 -5 -27 5 -47 21 -39 19 -61 -12 -118 -61 -117 -72
-141 -73 -162 0 -12 -5 -25 -10 -28 -6 -4 -8 -11 -5 -16 4 -5 1 -9 -5 -9 -7 0
-9 -7 -6 -16 3 -9 0 -28 -7 -42 -37 -72 -52 -107 -50 -114 4 -11 -37 -88 -47
-88 -5 0 -6 -10 -2 -22 3 -14 2 -19 -6 -14 -16 9 -15 -7 0 -22 9 -9 9 -12 -3
-12 -16 0 -32 -26 -45 -70 -4 -14 -10 -27 -14 -30 -4 -3 -26 -39 -50 -80 -24
-41 -48 -78 -54 -82 -6 -4 -7 -10 -4 -13 4 -4 -7 -28 -23 -55 -16 -26 -29 -52
-29 -59 0 -10 -13 -15 -32 -12 -8 1 -12 -15 -9 -31 0 -5 -3 -8 -8 -8 -5 0 -12
-11 -15 -25 -4 -14 -11 -23 -16 -20 -6 3 -10 -1 -10 -10 0 -10 -5 -13 -12 -9
-8 5 -9 2 -5 -10 4 -10 1 -19 -7 -22 -8 -3 -16 -19 -20 -35 -6 -31 -49 -82
-60 -72 -3 4 -6 -1 -6 -10 0 -11 -8 -17 -25 -17 -14 0 -25 -6 -25 -13 0 -14
-35 -47 -49 -47 -5 0 -17 -7 -25 -16 -18 -18 -22 -74 -5 -74 7 0 9 -12 5 -35
-4 -19 -4 -50 -1 -69 9 -45 48 -48 66 -5 12 29 46 43 35 14 -4 -10 1 -15 15
-15 15 0 19 -4 15 -16 -4 -12 -2 -15 9 -10 10 4 15 -1 15 -14 0 -11 7 -20 16
-20 8 0 12 -4 9 -10 -3 -6 1 -10 9 -10 10 0 16 9 16 24 0 14 4 28 10 31 5 3
10 15 10 25 0 10 7 25 15 33 8 8 11 17 8 21 -4 3 -1 6 5 6 6 0 9 7 5 17 -5 12
-3 14 7 8 10 -6 12 -4 7 8 -3 10 -2 17 2 17 5 0 14 14 20 30 5 17 14 30 20 30
5 0 10 8 10 18 0 45 7 79 18 92 7 8 24 28 38 44 14 16 25 35 25 42 0 8 9 14
20 14 11 0 19 3 19 8 -4 21 2 34 14 29 8 -3 14 3 14 15 1 11 11 29 22 40 12
10 21 26 21 34 0 8 5 12 10 9 9 -6 14 8 11 28 0 4 3 7 9 7 6 0 9 4 8 9 -4 11
44 90 55 91 4 0 7 7 7 15 0 8 9 19 20 25 11 6 18 15 15 21 -4 5 -1 9 5 9 6 0
9 3 7 8 -6 9 19 33 26 25 3 -3 3 4 0 16 -3 12 -1 21 6 21 6 0 11 6 11 14 0 23
53 181 62 184 5 2 6 8 3 12 -9 15 28 130 42 130 7 0 13 -3 14 -7 0 -5 3 -35 7
-68 14 -125 5 -220 -29 -332 -6 -18 -14 -54 -19 -80 -5 -27 -16 -75 -25 -108
-9 -33 -21 -85 -25 -115 -9 -53 -44 -204 -58 -245 -3 -11 -8 -273 -9 -582 -3
-351 -7 -563 -13 -563 -6 0 -10 -20 -10 -44 0 -24 -6 -81 -14 -127 -8 -46 -19
-142 -26 -214 -6 -71 -18 -173 -25 -225 -8 -52 -17 -133 -20 -180 -4 -46 -14
-105 -22 -129 -11 -32 -12 -46 -4 -49 6 -2 9 -8 5 -13 -3 -5 6 -9 20 -9 14 0
26 -4 26 -8 0 -4 10 -9 23 -9 43 -4 67 -14 67 -29 0 -8 4 -12 10 -9 5 3 10 1
10 -4 0 -7 39 -11 108 -12 59 -1 97 -4 84 -6 -30 -6 -18 -23 16 -23 35 0 57
-14 47 -30 -5 -9 -4 -11 3 -6 7 4 12 1 12 -9 0 -9 9 -19 20 -22 11 -3 20 -12
20 -19 0 -10 16 -14 63 -14 69 0 83 6 88 35 3 11 13 21 23 23 10 2 16 0 13 -5
-3 -4 15 -6 39 -4 33 2 44 -1 44 -11 0 -10 9 -13 30 -10 17 2 30 0 30 -5 0
-12 161 -26 184 -17 18 7 23 64 5 64 -5 0 -7 5 -4 10 3 6 -1 10 -10 10 -9 0
-14 4 -11 9 3 5 -8 11 -25 15 -17 3 -28 10 -24 16 3 5 -1 10 -9 10 -9 0 -16 5
-16 10 0 6 -9 10 -19 10 -11 0 -22 4 -25 9 -3 4 6 6 19 3 16 -3 25 0 25 8 0 7
-6 10 -14 7 -25 -10 -25 4 -1 30 28 31 111 45 277 47 58 0 104 4 101 9 -4 7
12 11 30 8 5 -1 6 3 2 9 -3 5 -1 10 6 10 12 0 12 0 -11 215 -26 235 -54 663
-75 1135 -3 63 -10 162 -15 220 -6 58 -10 133 -10 167 0 35 -4 82 -10 105 -5
24 -17 126 -25 228 -18 197 -21 226 -53 475 -36 276 -44 371 -37 449 4 42 11
73 16 70 5 -3 19 -27 30 -55 12 -27 28 -49 35 -49 8 0 14 -7 14 -16 0 -25 62
-147 83 -162 9 -7 15 -18 12 -23 -4 -5 1 -9 10 -9 9 0 13 -4 10 -10 -3 -6 1
-7 9 -4 10 4 16 1 16 -9 0 -9 9 -19 20 -22 11 -4 18 -10 15 -15 -3 -5 4 -11
15 -15 11 -3 20 -11 20 -16 0 -5 7 -9 16 -9 9 0 18 -9 21 -19 3 -12 11 -17 19
-14 8 3 14 0 14 -6 0 -6 7 -11 16 -11 8 0 13 -3 10 -8 -2 -4 13 -16 35 -26 21
-11 39 -23 39 -28 0 -4 7 -8 15 -8 8 0 15 -4 15 -10 0 -5 14 -10 31 -10 16 0
28 -4 24 -9 -3 -6 12 -18 32 -27 48 -22 70 -45 75 -75 2 -19 8 -23 27 -21 15
2 21 0 17 -7 -4 -6 -2 -11 3 -11 6 0 11 5 11 10 0 15 49 11 95 -6 22 -9 59
-20 83 -26 23 -5 42 -14 42 -19 0 -5 7 -9 16 -9 8 0 12 5 9 10 -3 6 1 10 9 10
20 0 39 36 31 60 -3 10 -26 29 -51 41 -24 13 -44 26 -44 31 0 4 -10 8 -22 8
-12 0 -18 3 -14 7 3 4 -27 21 -69 38 -41 17 -72 35 -68 38 3 4 -3 7 -14 7 -28
0 -73 41 -73 67 0 27 -19 40 -31 22 -6 -10 -9 -11 -9 -1 0 6 -7 12 -15 12 -8
0 -15 5 -15 11 0 16 -26 39 -44 39 -17 0 -112 90 -108 103 1 4 -2 7 -8 7 -5 0
-7 8 -3 18 3 9 3 14 -1 10 -9 -8 -46 22 -46 38 0 6 -11 20 -25 30 -14 10 -25
24 -25 31 0 7 -5 13 -11 13 -5 0 -7 5 -4 10 3 6 1 10 -5 10 -6 0 -8 5 -5 10 3
6 2 10 -2 10 -5 0 -15 16 -22 35 -6 19 -17 34 -23 32 -7 -1 -13 15 -15 38 -2
22 -8 44 -13 49 -6 6 -10 18 -10 28 0 10 -6 18 -14 18 -8 0 -17 7 -20 16 -3 9
-2 12 5 8 6 -3 -6 17 -26 45 -20 28 -34 55 -30 61 4 6 1 9 -6 8 -14 -3 -26 37
-28 94 0 20 -4 38 -8 40 -9 4 -53 108 -53 125 0 6 -7 13 -15 17 -8 3 -15 12
-15 20 0 9 -7 12 -20 9 -10 -3 -26 2 -35 11 -9 9 -22 16 -29 16 -6 0 -18 9
-26 20 -19 27 -50 26 -50 -1 0 -27 -31 -80 -45 -76 -14 5 -24 61 -36 192 -11
126 -11 117 -3 174 5 31 3 42 -5 37 -6 -4 -14 1 -17 11 -12 41 -40 90 -66 116
-16 15 -28 24 -28 20 0 -5 -4 -3 -8 2 -21 30 -195 48 -220 23z"/>
<path d="M2777 3241 c-3 -14 -1 -18 9 -14 16 6 18 19 5 27 -5 3 -11 -3 -14
-13z"/>
<path d="M2835 3240 c-3 -5 -1 -10 4 -10 6 0 11 5 11 10 0 6 -2 10 -4 10 -3 0
-8 -4 -11 -10z"/>
<path d="M2895 3210 c3 -5 8 -10 11 -10 2 0 4 5 4 10 0 6 -5 10 -11 10 -5 0
-7 -4 -4 -10z"/>
</g>
</svg>
