<svg xmlns="http://www.w3.org/2000/svg" viewBox="0 0 902 896" width="902" height="896"><path d="M834.146,894.932c-9.431,-1.024 -18.173,-2.524 -19.425,-3.332c-1.252,-0.808 -4.935,-5.439 -8.183,-10.289c-15.547,-23.211 -21.297,-32.131 -24.636,-38.219c-1.995,-3.635 -5.829,-9.697 -8.519,-13.471c-2.69,-3.774 -6.853,-11.694 -9.25,-17.602c-4.57,-11.262 -7.74,-16.059 -19.337,-29.258c-3.871,-4.407 -7.552,-10.132 -8.176,-12.721c-0.624,-2.589 -5.002,-8.761 -9.727,-13.715c-5.221,-5.474 -9.295,-11.619 -10.383,-15.662c-1.225,-4.546 -5.288,-10.151 -12.831,-17.692c-9.901,-9.901 -18.207,-22.373 -29.256,-43.935c-2.023,-3.947 -6.123,-9.488 -9.109,-12.314c-5.243,-4.961 -12.076,-17.69 -12.076,-22.498c0,-5.072 -8.993,-24.409 -12.951,-27.853c-2.308,-2.008 -4.197,-4.362 -4.197,-5.235c0,-0.873 -3.384,-5.551 -7.521,-10.396c-4.137,-4.846 -8.813,-12.433 -10.395,-16.86c-6.38,-17.874 -11.861,-27.563 -18.934,-33.476c-5.877,-4.913 -7.959,-8.327 -11.173,-18.319c-2.172,-6.755 -5.586,-14.721 -7.587,-17.705c-2.001,-2.984 -8.371,-14.011 -14.155,-24.507c-11.378,-20.644 -28.242,-39.93 -38.757,-44.323c-4.35,-1.817 -8.165,-6.305 -15.903,-18.706c-12.313,-19.734 -12.664,-19.369 -13.83,14.374c-0.44,12.733 -1.9,29.709 -3.246,37.725c-8.411,50.104 -8.407,50.039 -8.477,95.172c-0.059,35.138 0.56,48.037 2.905,60.876c3.589,19.655 6.168,49.653 8.062,93.715c0.777,18.062 1.885,33.607 2.465,34.545c0.58,0.938 1.897,13.554 2.928,28.035c1.371,19.263 2.961,29.554 5.921,38.336c2.569,7.622 4.726,19.831 5.909,33.439c1.024,11.789 2.313,23.556 2.863,26.151l1.001,4.715l-47.786,-0.073c-28.099,-0.046 -53.549,-0.927 -61.775,-2.146l-13.99,-2.073l2.844,-5.143c2.5,-4.522 2.874,-13.313 3.095,-72.877c0.138,-37.254 0.764,-94.311 1.392,-126.791c1.015,-52.549 0.816,-60.382 -1.809,-71.09c-2.635,-10.752 -2.835,-19.09 -1.875,-78.214c0.798,-49.154 1.729,-69.026 3.619,-77.24c1.399,-6.083 3.283,-22.25 4.189,-35.925c0.906,-13.675 2.615,-27.18 3.802,-30.009c2.851,-6.796 5.41,-49.048 5.864,-96.887c0.202,-21.22 1.249,-42.739 2.328,-47.819c1.079,-5.08 1.961,-15.286 1.961,-22.68c0,-10.416 0.771,-14.707 3.423,-19.058c3.649,-5.985 4.812,-23.934 1.854,-28.609c-0.974,-1.539 -0.556,-4.459 1.15,-8.037c2.364,-4.958 2.47,-10.832 0.89,-49.885c-1.246,-30.821 -2.667,-47.649 -4.676,-55.411c-6.625,-25.58 -8.569,-44.513 -5.653,-55.045c1.177,-4.249 1.939,-4.511 16.271,-5.567c8.269,-0.609 27.806,-1.613 43.413,-2.229l28.376,-1.119l0.02,54.703c0.02,50.049 0.299,55.359 3.304,62.419c2.889,6.784 3.262,11.756 3.089,41.155c-0.107,18.391 -0.75,47.383 -1.428,64.426c-1.225,30.807 -1.207,31.037 3.055,39.441c2.358,4.649 5.914,9.923 7.902,11.72c1.988,1.797 3.618,4.883 3.619,6.859c0.006,4.514 9.104,19.702 20.45,34.14c4.788,6.092 9.203,13.671 9.811,16.844c0.608,3.173 7.938,18.36 16.287,33.748c8.35,15.391 15.181,28.509 15.182,29.152c0.002,2.619 13.362,22.651 18.678,28.007c3.137,3.159 7.637,8.832 10.003,12.605c2.366,3.773 6.899,9.582 10.076,12.908c3.965,4.151 7.693,11.414 11.879,23.149c6.344,17.779 11.333,26.643 20.728,36.821c3.046,3.301 8.242,11.403 11.545,18.006c3.303,6.603 10.282,18.949 15.507,27.437c5.227,8.489 15.596,27.845 23.044,43.015c11.331,23.079 14.539,28.2 19.654,31.36c4.178,2.583 6.489,5.522 7.301,9.287c2.013,9.329 6.932,17.141 16.48,26.175c8.763,8.293 11.21,11.487 23.526,30.722c5.952,9.296 15.639,29.019 15.639,31.843c0,0.973 2.121,5.705 4.715,10.521c2.594,4.816 6.259,11.643 8.145,15.177c1.886,3.534 5.963,9.793 9.061,13.91c10.381,13.802 13.921,19.421 20.06,31.834c3.357,6.789 7.93,14.511 10.159,17.162c2.229,2.651 5.317,7.84 6.86,11.532c1.543,3.692 5.682,9.547 9.199,13.012c10.713,10.551 19,20.223 21.61,25.223c1.365,2.613 4.893,7.044 7.837,9.844c5.1,4.849 14.763,19.502 13.537,20.528c-1.928,1.613 -53.164,1.802 -67.458,0.251zM129.193,829.742c-1.926,-1.35 -6.038,-4.823 -9.136,-7.717c-3.098,-2.894 -7.023,-5.263 -8.72,-5.263c-3.974,0 -16.222,-10.239 -22.323,-18.66c-5.669,-7.826 -20.027,-17.056 -31.091,-19.985c-8.188,-2.169 -20.303,-10.433 -20.303,-13.849c0,-3.552 22.743,-36.587 25.875,-37.58c1.709,-0.542 4.796,-3.72 6.862,-7.062c2.066,-3.342 5.545,-7.865 7.733,-10.053c2.188,-2.188 4.472,-6.167 5.075,-8.841c2.228,-9.877 8.017,-23.939 12.891,-31.309c2.758,-4.17 5.015,-9.45 5.015,-11.733c0,-6.637 30.71,-40.595 38.476,-42.545c2.346,-0.589 8.347,-0.568 13.334,0.046c18.279,2.248 79.637,2.947 86.907,0.987c3.955,-1.065 11.064,-5.346 16.069,-9.678c22.534,-19.497 29.219,-25.993 33.325,-32.385c4.179,-6.503 17.555,-17.71 31.183,-26.122c7.78,-4.803 8.103,-4.794 11.465,0.337c2.68,4.089 2.548,4.485 -4.137,12.432c-3.797,4.515 -9.775,14.768 -13.284,22.785c-5.929,13.543 -6.406,15.889 -6.755,33.101c-0.342,16.859 -0.742,18.916 -4.448,22.879c-4.482,4.792 -20.985,14.96 -27.421,16.896c-2.248,0.677 -7.561,3.402 -11.805,6.058c-4.244,2.656 -10.619,5.361 -14.166,6.013c-3.548,0.651 -6.872,1.869 -7.389,2.705c-0.517,0.836 -2.177,1.52 -3.689,1.52c-1.512,0 -6.307,2.282 -10.653,5.072c-5.426,3.482 -12.326,5.839 -22.015,7.521c-15.266,2.649 -17.722,3.907 -29.816,15.262c-5.333,5.007 -8.756,10.035 -10.289,15.118c-4.566,15.132 -1.904,69.041 3.992,80.839c1.12,2.241 -0.013,4.026 -4.907,7.717c-3.5,2.64 -11.861,10.009 -18.579,16.375c-6.718,6.366 -12.565,11.575 -12.99,11.575c-0.427,0 -2.351,-1.104 -4.277,-2.454zM4.904,457.938c-0.306,-40.369 -1.008,-60.697 -2.233,-64.734l-1.301,-4.287l34.443,0.558c28.717,0.466 35.934,0.077 43.419,-2.337c13.946,-4.498 23.392,-10.63 26.538,-17.228c2.058,-4.316 4.455,-6.35 8.916,-7.573c9.436,-2.584 25.209,-13.313 44.377,-30.183l6.044,-5.32l16.295,5.748c8.963,3.161 17.366,5.748 18.673,5.748c1.307,0 6.381,1.824 11.275,4.053c4.893,2.229 11.598,5.08 14.899,6.336c12.268,4.67 32.77,23.516 37.495,34.464c5.443,12.615 17.792,29.424 31.709,43.161c15.939,15.732 24.289,21.593 37.973,26.647c5.659,2.091 12.217,5.295 14.576,7.122l4.287,3.323l-16.009,0.038c-14.407,0.033 -32.523,-2.956 -42.294,-6.979c-1.886,-0.777 -6.832,-2.279 -10.991,-3.339c-8.505,-2.166 -12.693,-4.594 -25.02,-14.501c-4.715,-3.79 -15.519,-10.358 -24.007,-14.595l-15.434,-7.704l-26.157,0.272c-30.346,0.315 -40.75,2.727 -54.929,12.737c-4.985,3.52 -12.902,7.32 -17.595,8.446c-4.693,1.126 -13.732,4.727 -20.088,8.003c-6.356,3.277 -15.8,6.959 -20.988,8.183c-10.866,2.564 -33.999,12.059 -43.072,17.677c-4.909,3.041 -8.757,3.843 -18.434,3.843h-12.229zM276.833,247.253c-2.83,-0.888 -15.295,-2.208 -27.702,-2.936c-14.002,-0.822 -23.563,-2.159 -25.207,-3.522c-3.632,-3.014 -26.373,-5.406 -67.126,-7.062c-18.864,-0.766 -40.469,-2.251 -48.014,-3.301c-13.483,-1.875 -15.392,-2.453 -29.152,-8.812c-3.773,-1.743 -11.104,-4.403 -16.29,-5.912c-5.186,-1.509 -10.772,-3.472 -12.41,-4.364c-1.638,-0.892 -3.953,-1.641 -5.145,-1.661c-1.192,-0.02 -4.095,-1.547 -6.454,-3.392c-2.359,-1.845 -5.565,-3.37 -7.129,-3.392c-6.41,-0.087 -25.998,-29.542 -27.964,-42.05c-0.594,-3.773 -1.896,-11.649 -2.893,-17.504c-1.687,-9.883 -1.473,-11.539 2.984,-23.149c3.096,-8.067 7.573,-15.582 12.612,-21.173c4.297,-4.767 12.443,-13.95 18.102,-20.405c5.659,-6.455 13.867,-15.289 18.237,-19.628c11.084,-10.999 27.196,-38.419 27.231,-46.338c0.013,-3.374 0.594,-5.289 1.286,-4.255c0.692,1.034 3.502,2.429 6.241,3.101c2.739,0.671 8.912,4.674 13.718,8.896c5.801,5.095 11.907,8.584 18.168,10.38c5.187,1.488 10.103,3.33 10.926,4.095c0.838,0.779 -0.105,6.651 -2.144,13.366c-2.001,6.587 -3.637,14.832 -3.637,18.321c0,4.304 -1.41,8.021 -4.382,11.554c-10.312,12.257 -13.415,21.391 -14.146,41.656c-0.522,14.445 -0.051,20.438 1.976,25.292c3.988,9.544 10.421,17.115 17.729,20.866c3.597,1.845 11.773,6.669 18.168,10.717c6.395,4.048 12.955,7.382 14.576,7.406c1.621,0.026 7.156,2.724 12.299,6.001c5.143,3.277 10.368,5.957 11.613,5.957c1.242,0 5.137,1.848 8.654,4.107c3.517,2.259 14.43,6.185 24.254,8.725c9.822,2.541 23.712,6.884 30.866,9.654c7.154,2.77 17.713,5.714 23.463,6.543c5.75,0.828 13.853,3.206 18.006,5.285c10.106,5.06 56.475,8.27 73.225,5.071c5.941,-1.135 11.277,-1.587 11.861,-1.003c0.584,0.584 -0.457,1.059 -2.313,1.059c-1.855,0 -4.106,0.673 -5.002,1.494c-3.493,3.203 -21.566,7.056 -44.947,9.583c-27.29,2.947 -36.582,3.102 -44.136,0.735z" /></svg>