<?xml version="1.0" standalone="no"?>
<!DOCTYPE svg PUBLIC "-//W3C//DTD SVG 20010904//EN"
 "http://www.w3.org/TR/2001/REC-SVG-20010904/DTD/svg10.dtd">
<svg version="1.0" xmlns="http://www.w3.org/2000/svg"
 width="532.000000pt" height="380.000000pt" viewBox="0 0 532.000000 380.000000"
 preserveAspectRatio="xMidYMid meet">
<metadata>
Created by potrace 1.16, written by Peter Selinger 2001-2019
</metadata>
<g transform="translate(0.000000,380.000000) scale(0.100000,-0.100000)"
fill="#000000" stroke="none">
<path d="M2510 2989 c-171 -22 -385 -111 -528 -219 -90 -67 -179 -159 -245
-252 l-46 -64 55 -109 c31 -63 66 -153 81 -210 23 -89 26 -118 26 -265 0 -147
-3 -176 -26 -265 -15 -57 -50 -147 -81 -209 l-54 -109 40 -61 c54 -79 206
-231 287 -286 396 -266 896 -266 1292 0 81 55 233 207 287 286 l40 61 -54 109
c-31 62 -66 152 -81 209 -23 89 -26 118 -26 265 0 147 3 176 26 265 15 57 50
147 81 210 l55 109 -46 64 c-246 345 -661 526 -1083 471z"/>
<path d="M677 2859 c-166 -17 -350 -89 -482 -189 -38 -29 -62 -50 -52 -46 142
48 162 51 312 51 159 0 217 -11 333 -62 232 -102 415 -327 467 -575 18 -82 19
-240 4 -324 -44 -238 -216 -461 -444 -577 -170 -85 -411 -103 -600 -43 -43 14
-80 24 -81 23 -7 -7 123 -93 196 -131 160 -82 282 -110 470 -109 110 1 153 5
231 26 179 47 332 133 458 258 109 107 108 105 71 178 -158 315 -158 748 1
1064 20 39 27 63 21 73 -22 39 -165 171 -240 221 -139 93 -286 145 -461 164
-96 10 -95 10 -204 -2z"/>
<path d="M4435 2860 c-227 -24 -441 -128 -604 -293 -41 -41 -78 -82 -83 -91
-6 -10 1 -34 21 -73 159 -316 159 -749 1 -1064 -37 -73 -38 -71 71 -178 349
-346 905 -384 1301 -89 31 24 55 44 54 46 -2 1 -21 -4 -42 -12 -111 -44 -307
-59 -440 -35 -284 52 -533 277 -624 564 -28 89 -38 276 -20 379 53 302 281
550 590 642 51 15 96 19 215 19 150 0 170 -3 312 -51 46 -16 -133 104 -212
142 -111 53 -211 81 -335 94 -104 11 -104 11 -205 0z"/>
<path d="M1624 2333 c-33 -78 -64 -178 -79 -257 -21 -107 -20 -307 0 -415 17
-86 77 -267 95 -285 13 -13 80 133 111 244 21 75 24 106 23 255 0 155 -3 178
-28 259 -26 88 -90 236 -100 236 -3 0 -13 -17 -22 -37z"/>
<path d="M3646 2298 c-20 -41 -47 -115 -62 -164 -26 -82 -28 -102 -28 -264 0
-162 2 -182 28 -265 33 -112 93 -242 105 -229 17 17 60 134 81 219 41 165 42
390 1 547 -21 80 -67 206 -82 222 -5 6 -23 -22 -43 -66z"/>
</g>
</svg>
