<?xml version="1.0" standalone="no"?>
<!DOCTYPE svg PUBLIC "-//W3C//DTD SVG 20010904//EN"
 "http://www.w3.org/TR/2001/REC-SVG-20010904/DTD/svg10.dtd">
<svg version="1.0" xmlns="http://www.w3.org/2000/svg"
 width="424.000000pt" height="415.000000pt" viewBox="0 0 424.000000 415.000000"
 preserveAspectRatio="xMidYMid meet">
<metadata>
Created by potrace 1.16, written by Peter Selinger 2001-2019
</metadata>
<g transform="translate(0.000000,415.000000) scale(0.100000,-0.100000)"
fill="#000000" stroke="none">
<path d="M3085 3910 c-4 -6 -6 -39 -4 -73 1 -34 -1 -69 -4 -77 -4 -8 -8 -35
-9 -60 -3 -38 -6 -45 -25 -48 -20 -3 -23 -9 -23 -53 l0 -49 -40 0 -40 0 0
-577 c0 -318 -4 -584 -9 -591 -5 -8 -21 -12 -37 -10 -28 3 -29 5 -32 65 l-3
62 -37 3 -37 3 -3 175 -2 175 -32 32 c-18 18 -35 33 -40 33 -4 0 -9 -123 -10
-272 l-3 -273 -35 0 -35 0 -3 465 -2 465 -72 72 c-40 40 -76 73 -80 73 -4 0
-9 -242 -10 -537 l-3 -538 -45 0 -45 0 -3 123 -3 123 -92 -3 -92 -3 -5 -120
-5 -120 -25 0 -25 0 -5 330 -5 330 -24 -3 c-13 -2 -34 -1 -47 2 -21 6 -24 12
-24 52 0 28 -4 43 -10 39 -5 -3 -10 -24 -10 -46 l0 -39 -50 0 -50 0 -2 -332
-3 -333 -83 -3 c-91 -3 -112 5 -112 44 0 13 -4 25 -10 25 -5 1 -14 3 -20 4 -5
1 -14 3 -20 4 -5 0 -10 8 -10 16 0 11 -12 15 -49 15 -89 0 -81 -54 -81 549 l0
537 -50 49 -50 49 -55 -54 -55 -54 -2 -591 -3 -590 -40 0 -40 0 -5 213 -5 213
-37 -38 -38 -38 -2 -175 -3 -175 -40 0 -40 0 -2 460 c-2 253 -3 463 -3 466 0
3 -35 7 -79 8 -65 2 -80 -1 -85 -15 -3 -9 -6 -217 -6 -462 1 -276 -3 -449 -9
-455 -5 -5 -17 -7 -25 -4 -14 5 -16 42 -18 269 l-3 263 -42 3 -43 3 0 -50 0
-51 -45 0 -45 0 -2 -217 -3 -218 -122 -3 c-115 -2 -123 -4 -123 -22 0 -20 16
-20 1740 -20 1724 0 1740 0 1740 20 0 18 -8 20 -122 22 l-123 3 -3 328 -2 327
-95 0 -95 0 0 -97 0 -97 -37 -39 -38 -38 -5 -192 -5 -192 -35 0 -35 0 -3 588
-2 587 -40 0 -40 0 0 50 c0 47 -2 50 -25 50 -24 0 -25 3 -25 55 0 30 -4 55
-10 55 -6 0 -10 33 -10 80 0 73 -9 97 -25 70z"/>
<path d="M73 2158 c9 -160 29 -282 72 -429 76 -260 163 -438 318 -658 76 -106
314 -348 422 -426 187 -137 384 -240 570 -299 66 -21 129 -42 140 -47 75 -32
331 -62 520 -62 194 -1 454 30 530 62 11 5 71 25 133 44 296 95 550 254 792
496 81 81 174 186 208 234 238 336 369 702 389 1085 l6 122 -2053 0 -2053 0 6
-122z m3795 40 l-3 -33 -122 -3 -123 -3 -2 -322 -3 -322 -100 0 -100 0 -3 100
c-3 99 -3 100 -37 135 l-35 35 -2 190 -3 190 -30 0 -30 -1 -5 -584 -5 -585
-37 -3 c-36 -3 -37 -4 -40 -50 -3 -40 -6 -47 -25 -50 -20 -3 -23 -9 -23 -52 0
-27 -5 -52 -10 -55 -6 -3 -10 -42 -10 -86 0 -71 -2 -80 -17 -77 -15 3 -18 16
-21 81 -2 42 -7 77 -12 77 -6 0 -10 24 -10 54 0 49 -2 55 -22 58 -20 3 -23 10
-26 50 l-3 47 -42 3 -42 3 -5 585 c-5 577 -5 585 -25 585 -17 0 -21 -8 -25
-60 l-5 -60 -37 -3 -38 -3 0 -172 0 -171 -37 -38 c-20 -21 -43 -38 -50 -38
-10 0 -13 56 -13 273 l0 273 -27 -2 -28 -1 -3 -459 -2 -460 -85 -84 -85 -85 0
542 c0 424 -3 542 -12 545 -7 3 -26 4 -43 4 l-30 -1 -3 -123 -3 -123 -102 3
-102 3 -3 115 c-3 108 -11 138 -34 124 -4 -3 -8 -151 -8 -330 l0 -324 -50 0
-50 0 0 -45 c0 -38 -3 -45 -20 -45 -17 0 -20 7 -20 39 l0 40 -47 3 -48 3 -2
324 c-1 178 -4 326 -7 328 -2 3 -41 6 -85 6 -81 2 -81 2 -81 -24 0 -31 -17
-49 -46 -49 -13 0 -24 -7 -26 -16 -2 -13 -16 -17 -63 -18 l-60 -1 -3 -535 -2
-536 -55 -54 -55 -54 -60 59 -60 59 -2 585 -3 584 -33 1 -32 1 0 -212 c0 -117
-4 -213 -8 -213 -4 0 -27 19 -50 43 l-41 42 -3 169 -3 169 -33 1 -32 1 0 -463
0 -463 -92 3 -93 3 -5 465 c-3 300 -9 465 -15 465 -6 0 -12 -100 -15 -270 l-5
-270 -50 0 -50 0 -3 48 -3 47 -45 0 -44 0 0 215 0 214 -122 3 -123 3 -3 33 -3
32 1751 0 1751 0 -3 -32z"/>
</g>
</svg>
