<?xml version="1.0" standalone="no"?>
<!DOCTYPE svg PUBLIC "-//W3C//DTD SVG 20010904//EN"
 "http://www.w3.org/TR/2001/REC-SVG-20010904/DTD/svg10.dtd">
<svg version="1.0" xmlns="http://www.w3.org/2000/svg"
 width="497.000000pt" height="484.000000pt" viewBox="0 0 497.000000 484.000000"
 preserveAspectRatio="xMidYMid meet">
<metadata>
Created by potrace 1.16, written by Peter Selinger 2001-2019
</metadata>
<g transform="translate(0.000000,484.000000) scale(0.100000,-0.100000)"
fill="#000000" stroke="none">
<path d="M2965 4728 c-180 -94 -337 -310 -390 -533 -46 -196 -59 -436 -34
-622 26 -199 76 -417 103 -452 13 -16 -18 -44 -144 -131 -253 -175 -544 -448
-678 -636 -129 -182 -174 -312 -176 -509 -2 -193 43 -356 123 -447 l32 -36
-58 -14 c-38 -9 -129 -13 -268 -13 l-210 0 -80 38 c-111 53 -149 81 -170 128
-28 61 -24 97 13 131 36 32 81 36 157 16 39 -11 47 -10 61 4 25 25 12 41 -63
80 -78 41 -113 50 -190 49 -102 -1 -183 -82 -191 -190 -7 -99 52 -180 189
-258 143 -81 321 -120 509 -111 49 2 88 3 87 2 -1 -1 -63 -23 -137 -49 -221
-76 -269 -85 -475 -85 -202 0 -277 9 -385 43 -152 49 -166 62 -183 188 -10 76
-15 94 -30 97 -23 5 -47 -15 -47 -39 0 -11 -5 -19 -11 -19 -11 0 -9 74 7 202
6 44 4 48 -20 60 -23 10 -30 9 -48 -10 -27 -26 -40 -114 -32 -201 7 -71 9 -71
-58 -19 -50 39 -73 34 -72 -16 1 -33 11 -47 70 -107 97 -98 307 -216 449 -253
198 -51 467 -47 694 10 113 28 373 129 493 191 40 21 77 40 82 42 5 2 0 -10
-12 -26 -38 -53 -92 -176 -92 -209 0 -17 6 -37 14 -43 8 -7 17 -24 21 -39 9
-36 59 -124 84 -146 11 -10 30 -16 43 -14 19 2 23 9 22 38 l-1 35 118 0 c123
1 149 9 149 47 0 11 -14 27 -34 39 l-35 20 24 45 c17 32 22 51 16 67 -15 41
-47 33 -119 -33 -37 -34 -79 -68 -94 -76 -27 -14 -27 -14 -19 8 12 33 -4 67
-39 79 -42 15 -40 52 7 122 l36 56 47 -24 c57 -29 179 -55 257 -55 245 0 589
143 817 339 108 92 159 149 244 268 102 142 172 302 172 393 0 21 15 34 88 79
48 30 134 84 192 120 58 36 140 83 183 105 92 46 97 43 97 -47 0 -48 -4 -62
-25 -83 -13 -13 -38 -27 -54 -30 -45 -9 -67 -38 -55 -72 8 -22 16 -28 46 -30
21 -2 47 2 59 9 43 22 -26 -53 -82 -91 -57 -38 -71 -62 -58 -99 8 -21 14 -23
54 -19 51 6 103 41 144 98 l27 38 10 -31 c13 -44 37 -56 65 -32 21 19 21 25
16 170 -5 131 -17 213 -42 277 -17 42 243 72 340 39 109 -37 187 -110 187
-176 0 -32 -28 -96 -64 -148 -26 -37 -21 -71 13 -75 19 -2 37 8 68 38 51 49
80 110 81 164 0 39 0 39 21 20 25 -23 53 -9 57 29 3 20 -8 39 -43 76 l-46 50
34 -11 c47 -15 69 -5 65 28 -4 34 -67 68 -169 91 -114 26 -450 24 -540 -3
l-65 -20 -30 39 c-48 65 -175 176 -232 203 -127 60 -300 68 -457 21 -296 -89
-511 -244 -732 -527 -88 -112 -152 -300 -139 -404 9 -72 51 -153 88 -172 l30
-15 -46 -29 c-103 -66 -502 -271 -552 -285 -31 -8 -77 68 -103 169 -40 154
-15 422 59 619 69 184 296 455 575 686 79 65 101 79 103 64 10 -61 96 -400
104 -410 13 -16 50 -17 66 -1 7 7 12 23 12 37 0 46 -100 416 -115 427 -12 9 3
26 89 92 154 121 256 245 349 422 103 196 147 383 147 625 0 354 -107 576
-277 575 -29 -1 -64 -9 -88 -22z m74 -240 c85 -199 38 -693 -94 -1003 -35 -82
-130 -228 -179 -276 -59 -58 -56 -62 -81 92 -23 140 -23 406 0 559 30 202 114
453 193 573 29 43 97 97 124 97 12 0 25 -14 37 -42z m676 -1683 c93 -24 155
-59 218 -122 70 -71 92 -102 81 -113 -5 -5 -48 -29 -95 -54 -48 -24 -137 -77
-199 -115 -61 -39 -114 -71 -117 -71 -3 0 -18 -10 -35 -21 -39 -28 -44 -20
-50 85 -6 91 -20 126 -75 187 -59 66 -112 91 -206 98 l-82 7 50 26 c73 38 168
77 228 93 70 18 209 19 282 0z m-552 -266 c29 -8 45 -21 68 -57 29 -46 29 -46
29 -203 l0 -157 -58 -54 c-106 -97 -265 -178 -358 -180 -44 -1 -60 2 -70 16
-35 48 -45 216 -18 307 19 64 51 129 63 129 5 0 11 -19 15 -42 22 -152 61
-355 69 -366 14 -18 57 -11 71 10 8 13 1 73 -27 239 -21 122 -40 226 -43 230
-3 5 -15 9 -26 9 -20 0 -20 2 8 31 78 83 180 115 277 88z m29 -617 c-18 -40
-140 -242 -147 -242 -2 0 -9 32 -15 71 -10 56 -16 72 -34 79 -18 7 -18 9 -3 9
17 1 114 54 182 100 17 12 31 21 32 21 1 0 -6 -17 -15 -38z m-257 -124 c-3 -7
1 -47 7 -88 11 -61 17 -77 36 -86 l23 -11 -41 -52 c-84 -106 -231 -202 -391
-256 -164 -54 -289 -48 -406 20 l-47 28 38 21 c21 12 110 63 199 115 89 51
187 106 217 121 30 15 109 61 175 102 138 86 200 114 190 86z"/>
<path d="M3020 1381 c-7 -13 -6 -69 1 -178 22 -323 -10 -537 -103 -681 -89
-137 -266 -254 -385 -256 -70 -1 -114 22 -137 71 -9 18 -16 36 -16 38 0 3 20
5 45 5 93 0 184 67 210 153 39 130 0 247 -92 278 -96 31 -250 -57 -312 -180
-57 -111 -64 -264 -16 -365 34 -71 117 -149 186 -171 65 -22 194 -22 259 0
127 42 321 220 392 358 55 108 96 339 84 477 -20 237 -40 428 -47 448 -11 28
-54 30 -69 3z"/>
</g>
</svg>
