<?xml version="1.0" standalone="no"?>
<!DOCTYPE svg PUBLIC "-//W3C//DTD SVG 20010904//EN"
 "http://www.w3.org/TR/2001/REC-SVG-20010904/DTD/svg10.dtd">
<svg version="1.0" xmlns="http://www.w3.org/2000/svg"
 width="600.000000pt" height="612.000000pt" viewBox="0 0 600.000000 612.000000"
 preserveAspectRatio="xMidYMid meet">
<metadata>
Created by potrace 1.16, written by Peter Selinger 2001-2019
</metadata>
<g transform="translate(0.000000,612.000000) scale(0.100000,-0.100000)"
fill="#000000" stroke="none">
<path d="M1812 5820 c-18 -11 -51 -20 -75 -21 -71 -2 -92 -12 -90 -42 1 -18
-3 -27 -13 -27 -39 0 6 -93 59 -121 11 -6 60 -15 108 -19 78 -6 96 -11 156
-47 37 -22 175 -102 305 -178 237 -138 298 -178 288 -188 -3 -3 -39 -2 -80 3
-41 5 -158 17 -260 25 -217 19 -264 28 -347 65 -46 21 -68 38 -87 68 -19 30
-33 41 -61 46 -19 4 -40 4 -45 1 -6 -3 -10 -2 -10 3 0 13 -72 60 -104 68 -14
3 -31 2 -38 -2 -7 -5 -23 -7 -35 -6 -14 2 -23 -4 -28 -17 -9 -31 16 -101 43
-119 13 -10 39 -31 57 -48 25 -24 47 -34 85 -39 37 -5 58 -14 74 -32 25 -29
128 -84 212 -111 32 -11 145 -38 249 -61 105 -22 219 -52 253 -65 72 -28 151
-76 152 -92 0 -6 -12 -21 -26 -35 -58 -54 -66 -107 -37 -221 16 -61 16 -72 3
-110 -13 -36 -20 -44 -44 -46 -16 -2 -39 -10 -50 -17 -15 -10 -57 -13 -151
-12 -128 2 -130 2 -133 -20 -2 -14 -10 -23 -21 -23 -25 0 -56 -36 -40 -45 8
-6 5 -13 -12 -26 -23 -17 -23 -18 -7 -53 11 -22 45 -56 92 -91 41 -30 83 -69
93 -85 33 -57 130 -104 236 -114 64 -7 133 -31 140 -50 3 -7 -13 -48 -34 -92
-48 -97 -55 -134 -69 -351 -15 -231 -3 -364 45 -483 44 -108 49 -137 36 -187
-15 -56 -33 -67 -120 -75 -42 -3 -109 -10 -148 -14 -90 -8 -107 1 -153 87 -18
35 -59 91 -91 125 -70 75 -85 103 -119 224 -16 52 -49 158 -74 235 -43 130
-48 153 -61 320 -20 234 -27 267 -87 388 -38 76 -67 118 -115 167 l-65 65 7
102 c8 133 -10 171 -98 208 l-37 15 6 -27 c4 -21 -3 -40 -25 -73 -26 -38 -31
-55 -31 -107 0 -34 5 -65 10 -68 20 -12 9 -24 -32 -35 -24 -7 -58 -20 -76 -31
-51 -29 -55 -26 -50 41 3 47 10 66 30 88 54 57 76 145 44 171 -18 15 -198 71
-208 65 -4 -3 -8 5 -8 18 0 13 -7 34 -16 46 -13 19 -24 22 -82 22 -45 0 -62 3
-53 9 12 8 1 23 -52 76 -36 37 -82 90 -101 118 -18 29 -43 60 -54 71 -12 10
-24 31 -27 46 -11 49 -61 73 -90 43 -15 -14 -17 -30 -13 -103 6 -101 21 -136
80 -181 57 -44 108 -91 108 -101 0 -27 -375 26 -391 55 -5 8 -24 18 -42 22
-59 12 -68 17 -77 41 -7 16 -17 24 -34 24 -13 0 -26 6 -29 13 -3 9 -10 7 -24
-6 -48 -42 -31 -119 42 -192 68 -69 114 -89 192 -86 41 1 107 -9 192 -29 71
-16 138 -30 150 -30 11 0 35 -13 53 -29 l33 -29 1 -164 1 -163 46 -123 c54
-143 72 -175 130 -229 57 -52 119 -88 198 -114 77 -25 97 -35 127 -62 29 -27
28 -39 -4 -31 l-26 7 9 -49 c11 -68 9 -99 -17 -264 -12 -81 -23 -196 -23 -260
-1 -106 2 -123 32 -213 19 -54 68 -167 110 -250 67 -135 79 -152 99 -150 29 4
64 30 89 65 18 27 38 32 38 10 0 -17 -61 -78 -121 -123 -71 -52 -114 -100
-114 -125 0 -12 7 -39 16 -59 14 -34 14 -46 0 -130 -25 -146 -18 -329 20 -537
l16 -87 -28 -93 c-20 -67 -29 -120 -32 -190 l-3 -96 37 -29 c47 -36 63 -52 94
-97 28 -39 54 -53 74 -37 6 5 22 8 34 5 16 -5 26 2 42 27 28 45 22 102 -19
180 -37 71 -37 67 -33 532 1 220 5 327 13 327 5 0 17 -17 25 -37 9 -21 45
-101 81 -178 118 -253 125 -269 144 -344 24 -92 25 -164 3 -182 -12 -10 -14
-23 -9 -58 3 -25 7 -82 8 -126 3 -84 9 -105 33 -105 8 0 14 -9 14 -20 0 -32
42 -25 80 15 25 26 34 45 37 77 2 24 6 57 9 75 4 19 -1 50 -11 78 -16 39 -16
51 -5 84 16 50 -1 209 -35 319 -13 42 -45 145 -71 227 -41 133 -47 162 -49
254 l-2 103 71 -6 c66 -6 74 -5 123 23 28 17 61 43 72 59 22 32 76 62 111 62
47 0 143 -114 199 -236 22 -48 40 -62 52 -43 6 11 12 9 29 -9 25 -26 60 -29
60 -5 0 15 1 15 18 0 16 -15 20 -15 40 -1 32 22 39 41 52 133 6 46 20 107 32
135 27 69 20 155 -22 254 -23 54 -30 85 -28 119 l3 47 80 3 c108 4 163 22 336
109 260 130 349 193 433 307 76 104 172 143 219 89 8 -9 22 -31 30 -48 9 -16
36 -53 61 -81 86 -95 88 -123 21 -232 -20 -31 -44 -87 -55 -125 -26 -93 -48
-126 -170 -258 -58 -63 -136 -149 -173 -191 -54 -61 -105 -102 -233 -188 -127
-86 -176 -125 -214 -172 -62 -76 -138 -226 -146 -289 -8 -58 -18 -67 -117
-108 -96 -41 -117 -69 -117 -159 l0 -62 25 19 c21 17 36 19 83 15 52 -5 61 -2
107 29 33 22 49 40 47 51 -2 9 -1 17 1 17 2 0 24 -20 50 -44 26 -24 61 -49 77
-56 17 -7 30 -16 30 -19 0 -4 -17 -17 -38 -29 -33 -18 -53 -21 -134 -20 -107
2 -148 -13 -148 -55 0 -31 30 -157 45 -188 11 -23 10 -27 -17 -42 -36 -21 -37
-61 -2 -112 19 -28 22 -40 13 -46 -7 -4 -20 -39 -30 -79 -10 -40 -34 -105 -54
-145 -19 -41 -35 -80 -35 -88 0 -9 -11 -29 -25 -45 -28 -34 -33 -83 -10 -102
33 -28 207 85 220 143 3 12 12 60 19 106 8 45 18 86 21 89 10 10 40 -35 63
-92 56 -137 93 -249 88 -263 -4 -8 -1 -41 6 -73 10 -50 9 -60 -4 -73 -13 -13
-13 -22 -4 -52 14 -44 36 -52 84 -28 50 24 78 70 92 152 15 81 8 126 -24 170
-26 34 -43 79 -101 262 -35 110 -36 117 -22 151 17 39 74 81 195 142 52 26 84
52 133 108 35 40 76 86 92 103 83 90 118 260 82 395 -17 63 -19 128 -5 150 8
13 11 13 26 -2 17 -16 20 -15 58 20 30 27 79 53 176 91 228 90 337 148 405
216 104 103 295 372 295 417 0 11 -13 25 -35 35 -35 17 -42 27 -27 37 4 2 49
-13 100 -35 50 -21 107 -39 126 -39 33 0 66 21 66 41 0 16 74 57 157 88 112
40 352 199 437 290 33 35 55 43 182 70 87 19 193 68 223 105 7 8 16 39 20 68
5 29 18 77 30 107 24 58 18 80 -23 82 -11 0 -15 3 -8 6 19 8 14 31 -9 38 -58
19 -149 -37 -189 -115 -24 -46 -57 -72 -200 -150 -63 -35 -171 -95 -240 -135
-69 -39 -160 -91 -203 -114 -74 -41 -103 -47 -82 -17 6 8 76 105 156 217 81
112 171 228 200 257 66 66 132 106 160 99 31 -8 65 8 84 40 9 16 35 36 61 47
64 26 97 55 90 79 -3 12 1 25 10 32 22 15 8 42 -28 54 -45 16 -74 14 -118 -9
-22 -11 -48 -20 -59 -20 -11 0 -37 -21 -61 -49 -30 -36 -50 -50 -75 -54 -62
-10 -180 -103 -307 -241 -178 -194 -263 -272 -337 -307 -68 -34 -74 -32 -87
21 -18 70 -80 119 -169 135 -49 8 -84 28 -109 62 -15 20 -16 29 -7 49 6 14 11
35 11 48 0 25 75 172 113 219 20 26 21 30 6 41 -11 7 -16 25 -15 51 1 33 -2
40 -17 38 -13 -1 -17 4 -13 14 19 50 -65 56 -163 13 -37 -16 -87 -32 -112 -35
-95 -14 -160 -55 -224 -142 -38 -53 -108 -113 -131 -113 -5 0 -20 21 -34 47
-43 81 -117 150 -272 254 -219 146 -375 219 -468 219 -71 0 -130 21 -171 60
-47 44 -48 64 -10 133 16 28 37 78 46 110 9 33 30 73 45 90 28 31 30 32 147
38 65 4 134 12 153 18 46 14 101 14 175 -3 33 -7 116 -25 185 -40 251 -55 282
-66 449 -145 91 -44 186 -85 211 -92 72 -21 303 -18 367 4 29 10 61 16 72 12
11 -3 50 -28 88 -55 79 -58 122 -64 187 -27 46 26 55 42 27 50 -11 2 -31 27
-45 55 -30 59 -72 92 -127 99 -32 5 -39 9 -33 22 4 9 9 51 12 94 2 42 7 77 11
77 4 0 28 -13 53 -29 38 -24 50 -40 65 -81 10 -28 31 -67 46 -86 44 -52 73
-47 155 27 37 34 72 68 78 76 9 11 17 11 38 2 36 -17 69 2 92 53 9 21 23 37
29 34 7 -2 43 5 81 15 76 21 230 41 311 40 41 -1 57 3 73 19 12 12 20 27 17
33 -7 23 -113 88 -165 102 -58 15 -61 14 -186 -34 -44 -17 -82 -28 -85 -26
-16 17 218 315 248 315 9 0 35 18 56 40 31 32 45 40 63 35 18 -4 30 1 48 20
31 34 30 45 -7 81 -27 25 -37 29 -87 27 -110 -2 -211 -56 -243 -129 -10 -25
-54 -82 -96 -128 -43 -45 -96 -104 -119 -129 -63 -73 -102 -67 -290 49 -62 39
-87 47 -200 69 -156 30 -212 31 -295 5 -75 -23 -134 -59 -204 -124 -49 -46
-129 -86 -143 -72 -4 4 1 12 11 17 30 17 18 35 -35 52 -37 12 -89 46 -173 113
-162 129 -276 203 -355 230 -100 35 -438 74 -515 60 -37 -7 -37 -7 -33 -53 2
-28 -1 -48 -8 -50 -14 -5 -19 15 -34 127 -15 110 -33 143 -86 151 -51 7 -75
20 -156 86 -102 83 -330 200 -465 238 -52 14 -67 26 -143 105 -90 93 -189 160
-237 160 -15 0 -43 -9 -61 -20z m954 -2012 c17 -18 47 -55 69 -82 21 -27 64
-68 96 -91 121 -89 369 -199 597 -266 62 -18 109 -36 105 -40 -5 -5 -49 -15
-99 -23 -107 -17 -189 -49 -293 -113 -130 -80 -224 -151 -331 -249 -171 -157
-170 -157 -170 -131 0 6 16 50 35 97 46 111 57 208 44 388 -11 157 -27 258
-68 425 -15 64 -25 117 -22 117 4 0 21 -15 37 -32z"/>
<path d="M3 4870 c0 -25 2 -35 4 -22 2 12 2 32 0 45 -2 12 -4 2 -4 -23z"/>
</g>
</svg>
