<?xml version="1.0" standalone="no"?>
<!DOCTYPE svg PUBLIC "-//W3C//DTD SVG 20010904//EN"
 "http://www.w3.org/TR/2001/REC-SVG-20010904/DTD/svg10.dtd">
<svg version="1.0" xmlns="http://www.w3.org/2000/svg"
 width="489.000000pt" height="489.000000pt" viewBox="0 0 489.000000 489.000000"
 preserveAspectRatio="xMidYMid meet">
<metadata>
Created by potrace 1.16, written by Peter Selinger 2001-2019
</metadata>
<g transform="translate(0.000000,489.000000) scale(0.100000,-0.100000)"
fill="#000000" stroke="none">
<path d="M3735 4093 c-39 -10 -491 -276 -528 -312 -26 -25 -43 -53 -54 -90
-14 -50 -14 -64 8 -224 l23 -170 -23 -18 c-14 -11 -32 -17 -49 -14 -30 5 -429
51 -507 58 -70 7 -216 -9 -308 -32 -42 -11 -184 -66 -315 -122 -130 -56 -252
-108 -271 -116 -33 -14 -32 -12 29 61 78 95 146 159 196 184 22 11 120 48 219
82 172 59 182 61 234 52 70 -12 99 -4 209 59 124 72 155 105 175 187 24 101 7
163 -67 240 -31 32 -57 48 -104 62 -120 37 -158 28 -317 -75 -125 -81 -148
-92 -450 -210 -121 -47 -244 -101 -273 -118 -62 -37 -496 -486 -525 -543 -12
-24 -28 -114 -49 -282 -26 -209 -34 -251 -51 -269 -28 -31 -70 -29 -114 4 -47
36 -111 40 -299 18 -207 -23 -285 -56 -363 -155 -80 -101 -104 -220 -77 -374
34 -195 132 -307 305 -352 89 -22 145 -13 340 57 173 62 221 90 247 142 66
131 123 100 208 -113 59 -148 66 -191 38 -227 -9 -12 -111 -65 -227 -118 -205
-94 -212 -97 -270 -92 -74 5 -140 -11 -236 -58 -64 -31 -77 -34 -97 -24 -19
11 -25 10 -40 -4 -14 -14 -14 -21 -5 -37 15 -23 3 -33 -30 -25 -30 8 -56 -19
-40 -43 7 -12 5 -27 -8 -57 -29 -66 -32 -108 -14 -172 24 -83 99 -156 180
-174 96 -21 143 -5 308 105 l142 94 360 112 c198 61 377 122 397 136 73 47 84
81 129 395 36 250 44 289 67 322 39 58 65 79 119 98 26 9 144 51 262 93 228
81 268 88 329 57 91 -47 280 -164 309 -192 17 -17 38 -29 46 -27 8 2 112 -55
232 -125 249 -148 290 -162 386 -134 78 23 112 54 224 202 54 72 109 144 122
160 14 17 92 120 174 230 83 112 160 204 173 209 17 7 66 -6 207 -54 194 -65
252 -74 305 -47 38 20 60 44 79 90 19 46 19 77 -1 127 -16 40 -93 110 -239
215 -32 23 -58 50 -61 65 -10 39 -25 52 -51 45 -19 -4 -39 7 -98 54 -110 89
-190 105 -284 57 -14 -8 -165 -156 -335 -330 -170 -174 -317 -321 -328 -327
-10 -6 -27 -7 -37 -4 -10 3 -73 67 -140 141 -126 143 -141 172 -105 208 20 20
17 20 272 55 246 34 292 52 348 134 59 85 59 105 7 439 l-46 297 54 49 c30 27
80 72 112 99 71 60 95 95 103 151 21 138 -104 248 -241 215z m89 -149 c23 -23
20 -60 -8 -81 -63 -48 -228 -197 -242 -218 -13 -21 -10 -51 35 -337 27 -174
46 -327 44 -342 -3 -16 -12 -26 -22 -26 -22 0 -41 -19 -41 -41 0 -23 -1 -24
-251 -58 -237 -33 -250 -36 -298 -77 -66 -55 -89 -159 -53 -236 26 -57 266
-323 310 -344 46 -22 127 -23 167 -2 17 9 177 163 356 343 260 261 331 328
351 328 28 0 202 -127 269 -195 20 -21 42 -38 48 -38 15 0 182 -130 188 -147
3 -8 -1 -21 -9 -29 -13 -13 -39 -7 -215 52 -174 58 -207 66 -246 60 -89 -14
-87 -11 -442 -482 -214 -283 -241 -315 -275 -325 -21 -6 -49 -9 -62 -6 -12 4
-126 67 -253 142 -158 93 -235 143 -246 162 -12 21 -24 28 -45 28 -18 0 -75
27 -147 69 -215 125 -253 130 -447 62 -69 -24 -195 -69 -281 -99 -171 -60
-233 -95 -277 -160 -43 -62 -58 -125 -98 -407 -21 -148 -42 -265 -50 -278 -18
-28 -24 -30 -194 -82 -74 -23 -211 -66 -305 -95 -93 -29 -190 -59 -215 -67
-25 -7 -112 -57 -193 -110 -162 -106 -185 -114 -243 -78 -43 27 -60 76 -43
125 9 25 19 35 34 35 26 0 45 18 45 42 0 22 13 23 30 3 26 -32 74 0 52 35 -10
16 -5 21 41 41 42 18 68 22 137 20 l85 -1 227 104 c124 57 240 113 256 125 17
12 42 44 56 73 43 85 37 129 -40 325 -74 185 -91 215 -149 248 -111 64 -221
33 -297 -84 l-36 -56 -149 -55 c-124 -46 -159 -55 -214 -55 -56 0 -73 5 -114
30 -54 34 -109 106 -127 168 -6 23 -12 83 -12 132 -1 81 2 95 26 136 32 54 77
95 128 117 19 8 105 23 190 33 l155 17 44 -31 c84 -59 215 -46 279 28 46 52
60 104 88 339 14 121 30 229 34 242 5 13 31 45 57 72 26 26 124 128 217 226
93 97 187 187 210 200 22 13 91 43 151 66 61 23 119 45 130 50 11 5 74 30 140
56 154 61 175 71 301 154 117 77 140 83 211 51 49 -23 66 -49 65 -104 -1 -51
-25 -77 -126 -132 -65 -35 -84 -42 -103 -34 -51 19 -106 8 -326 -70 -155 -54
-241 -89 -274 -113 -65 -46 -310 -324 -322 -365 -24 -81 29 -153 112 -153 22
0 149 49 351 135 174 75 351 145 393 157 111 29 266 28 525 -5 115 -15 231
-27 259 -27 90 0 157 49 180 132 9 34 7 75 -11 210 -25 191 -23 199 47 241
207 125 422 245 440 246 12 1 29 -6 37 -15z"/>
<path d="M1399 2854 c-10 -13 -10 -19 0 -36 10 -17 9 -22 -6 -34 -22 -17 -28
-17 -52 -2 -15 9 -23 9 -34 -1 -12 -9 -15 -33 -12 -116 1 -57 6 -108 9 -114 4
-6 3 -11 -2 -11 -17 0 -92 -80 -92 -97 0 -10 14 -34 30 -53 25 -31 34 -35 74
-34 25 0 51 6 58 12 10 8 18 0 32 -36 10 -26 28 -57 39 -69 14 -16 17 -26 10
-35 -16 -20 -13 -81 4 -100 9 -10 29 -18 44 -18 22 0 37 12 72 58 24 31 46 65
50 75 15 42 72 26 61 -17 -8 -31 15 -46 66 -43 51 2 72 25 49 53 -8 9 -13 26
-11 36 2 11 -4 28 -14 39 -19 21 -19 20 17 36 32 14 44 65 24 106 -13 26 -12
27 13 33 15 4 40 16 55 27 23 16 28 25 24 46 -20 97 -28 111 -62 111 -22 0
-105 68 -105 87 0 17 -45 53 -67 53 -21 0 -53 -29 -53 -48 0 -6 -5 -14 -11
-18 -15 -9 -79 56 -79 81 0 12 -5 26 -12 33 -18 18 -103 15 -119 -4z"/>
<path d="M1932 2828 c-7 -7 -12 -16 -12 -21 0 -15 52 -77 64 -77 17 0 56 43
56 62 0 38 -79 65 -108 36z"/>
<path d="M1940 2337 c-21 -11 -25 -20 -24 -56 1 -52 25 -82 52 -63 9 6 27 16
40 22 32 14 36 32 14 71 -21 38 -45 45 -82 26z"/>
</g>
</svg>
