<?xml version="1.0" standalone="no"?>
<!DOCTYPE svg PUBLIC "-//W3C//DTD SVG 20010904//EN"
 "http://www.w3.org/TR/2001/REC-SVG-20010904/DTD/svg10.dtd">
<svg version="1.0" xmlns="http://www.w3.org/2000/svg"
 width="256.000000pt" height="256.000000pt" viewBox="0 0 256.000000 256.000000"
 preserveAspectRatio="xMidYMid meet">
<metadata>
Created by potrace 1.16, written by Peter Selinger 2001-2019
</metadata>
<g transform="translate(0.000000,256.000000) scale(0.100000,-0.100000)"
fill="#000000" stroke="none">
<path d="M1110 2513 c-150 -24 -271 -63 -400 -128 -473 -239 -743 -777 -651
-1302 66 -380 312 -717 655 -897 38 -20 72 -36 76 -36 4 0 29 -10 56 -22 27
-11 49 -20 49 -20 0 1 30 -7 67 -17 177 -51 419 -53 593 -6 164 45 294 101
397 172 26 18 50 33 52 33 8 0 100 84 165 150 457 468 450 1243 -14 1715 -175
177 -422 306 -669 350 -81 14 -310 19 -376 8z m394 -243 c102 -90 202 -415
162 -530 -12 -36 -12 -48 1 -94 8 -29 32 -75 54 -102 103 -131 108 -150 39
-178 -43 -17 -64 -47 -55 -76 6 -20 0 -20 -289 -20 l-296 0 0 -125 0 -125 259
0 259 0 11 -49 c21 -98 -25 -159 -134 -178 -52 -10 -72 -9 -242 2 -100 7 -102
6 -117 -17 -23 -36 -35 -150 -36 -338 l-1 -165 -40 45 c-159 179 -284 387
-314 524 -21 95 -17 247 10 321 24 70 90 167 172 255 150 161 187 241 202 440
5 63 16 135 25 160 46 124 198 278 278 280 10 0 33 -14 52 -30z m226 -1054 c0
-13 -9 -35 -20 -48 -16 -22 -18 -30 -8 -56 15 -40 -3 -66 -41 -57 -32 8 -101
52 -101 64 0 5 21 20 47 33 25 13 60 37 77 54 38 39 46 40 46 10z"/>
<path d="M1450 1651 l0 -60 29 10 c33 12 76 55 86 87 6 21 4 22 -54 22 l-61 0
0 -59z"/>
</g>
</svg>
