<?xml version="1.0" standalone="no"?>
<!DOCTYPE svg PUBLIC "-//W3C//DTD SVG 20010904//EN"
 "http://www.w3.org/TR/2001/REC-SVG-20010904/DTD/svg10.dtd">
<svg version="1.0" xmlns="http://www.w3.org/2000/svg"
 width="512.000000pt" height="512.000000pt" viewBox="0 0 512.000000 512.000000"
 preserveAspectRatio="xMidYMid meet">
<metadata>
Created by potrace 1.16, written by Peter Selinger 2001-2019
</metadata>
<g transform="translate(0.000000,512.000000) scale(0.100000,-0.100000)"
fill="#000000" stroke="none">
<path d="M1812 4597 c-12 -13 -22 -31 -22 -40 0 -9 -7 -17 -16 -17 -8 0 -29
-13 -45 -29 -48 -48 -36 -111 27 -137 l34 -14 0 -80 0 -80 -34 -14 c-38 -16
-56 -42 -56 -79 0 -32 33 -73 65 -81 24 -6 25 -9 25 -91 l0 -85 -105 0 c-99 0
-107 -2 -130 -25 -31 -30 -33 -83 -6 -116 17 -22 29 -24 128 -29 l108 -5 3
-222 2 -221 -31 -22 c-35 -25 -109 -50 -149 -50 -15 0 -38 -9 -51 -19 l-24
-19 -5 -969 -5 -968 -108 -5 c-154 -7 -147 7 -148 -279 l-1 -226 -84 175
c-106 222 -107 222 -140 239 -26 13 -40 10 -186 -38 -111 -37 -162 -59 -173
-74 -12 -17 -15 -53 -15 -164 l0 -143 -50 0 c-55 0 -104 -20 -114 -45 -14 -38
-6 -82 20 -106 l26 -24 2008 0 2008 0 26 24 c19 18 26 35 26 60 0 41 -125 652
-142 694 -13 33 -36 47 -75 47 -16 0 -163 -45 -328 -100 -165 -55 -303 -100
-307 -100 -5 0 -8 353 -8 783 0 740 -1 785 -18 800 -19 17 -40 27 -159 71
l-73 28 0 94 0 94 100 0 c94 0 103 2 125 25 34 33 34 87 0 120 -22 23 -31 25
-125 25 l-100 0 0 85 0 85 40 0 c58 0 108 24 120 56 26 68 -25 124 -112 124
l-48 0 0 85 0 85 100 0 c94 0 103 2 125 25 17 16 25 35 25 60 0 25 -8 44 -25
60 -22 23 -31 25 -125 25 l-100 0 0 85 0 85 90 0 c95 0 142 14 154 45 13 36 6
82 -17 103 -21 20 -34 22 -125 22 l-102 0 0 45 c0 98 -54 152 -121 124 -38
-15 -59 -60 -59 -124 l0 -45 -170 0 -170 0 0 190 c0 189 0 191 -25 215 -32 33
-93 34 -121 4 -17 -19 -20 -42 -24 -213 l-5 -191 -170 0 -170 0 -2 135 c-3
165 -6 176 -43 195 -43 22 -68 19 -101 -14 l-29 -29 0 -146 0 -146 -170 0
-170 0 0 90 0 90 54 0 c69 0 83 6 101 41 22 42 18 67 -14 100 -25 25 -37 29
-84 29 -51 0 -55 2 -67 30 -15 37 -37 50 -83 50 -22 0 -41 -8 -55 -23z m488
-662 l0 -85 -170 0 -170 0 0 85 0 85 170 0 170 0 0 -85z m520 -262 c0 -224 -3
-344 -10 -337 -5 5 -31 41 -57 79 -26 38 -59 75 -73 82 -15 7 -63 13 -117 13
l-93 0 0 85 0 85 59 0 c77 0 115 28 115 85 0 57 -38 85 -115 85 l-59 0 0 85 0
85 175 0 175 0 0 -347z m510 262 c0 -65 -3 -85 -14 -85 -29 0 -66 -48 -66 -85
0 -38 35 -85 65 -85 12 0 15 -15 15 -85 l0 -85 -45 0 c-59 0 -99 -21 -115 -60
-27 -65 28 -120 120 -120 l40 0 0 -231 c0 -216 -1 -231 -17 -224 -10 4 -73 27
-141 53 -114 42 -126 49 -153 88 l-29 43 0 480 0 481 170 0 170 0 0 -85z
m-1030 -340 l0 -85 -170 0 -170 0 0 85 0 85 170 0 170 0 0 -85z m452 -488
l147 -222 3 -92 c3 -81 6 -94 27 -117 53 -56 134 -23 149 61 l7 40 253 -95
252 -95 0 -201 0 -201 -90 -28 c-86 -26 -98 -27 -310 -27 -139 0 -229 -4 -242
-11 -29 -15 -50 -72 -39 -103 21 -53 36 -56 291 -56 220 0 240 2 313 24 l77
24 0 -669 0 -669 -255 0 -255 0 0 169 c0 97 -5 181 -11 200 -21 60 -31 61
-424 61 -364 0 -384 -2 -412 -39 -9 -11 -12 -72 -13 -204 l0 -188 -102 3 -101
3 -79 235 c-53 161 -84 241 -99 252 -15 13 -39 18 -80 18 l-59 0 0 910 0 910
28 6 c121 29 251 151 288 270 l18 54 285 0 286 0 147 -223z m1588 -1990 c0 -2
20 -100 45 -217 25 -117 45 -217 45 -222 0 -4 -151 -8 -335 -8 l-335 0 0 124
c0 94 3 126 14 135 14 12 529 189 554 190 6 1 12 0 12 -2z m-2558 -277 l56
-170 -199 0 -199 0 0 170 0 170 143 0 142 0 57 -170z m778 -40 l0 -130 -85 0
-85 0 0 130 0 130 85 0 85 0 0 -130z m340 0 l0 -130 -85 0 -85 0 0 123 c0 68
3 127 7 130 3 4 42 7 85 7 l78 0 0 -130z m-1875 -17 l54 -113 -120 0 -119 0 0
98 0 97 53 17 c28 9 58 15 65 14 7 0 37 -52 67 -113z"/>
<path d="M2245 3135 c-76 -75 29 -193 109 -122 40 34 43 77 11 115 -34 41 -84
44 -120 7z"/>
<path d="M1920 2807 c-78 -39 -51 -157 35 -157 90 0 118 116 38 158 -27 15
-42 15 -73 -1z"/>
<path d="M2589 2791 c-56 -57 -23 -141 56 -141 80 0 115 93 54 144 -40 34 -74
33 -110 -3z"/>
<path d="M1900 2450 c-43 -43 -32 -112 23 -138 81 -39 153 60 96 132 -26 33
-88 37 -119 6z"/>
<path d="M2242 2447 c-44 -47 -21 -127 42 -143 54 -13 115 48 102 102 -16 64
-100 88 -144 41z"/>
<path d="M2585 2445 c-35 -34 -33 -78 4 -116 36 -36 70 -37 110 -3 61 51 26
144 -54 144 -25 0 -44 -8 -60 -25z"/>
<path d="M2933 2448 c-29 -32 -34 -53 -21 -88 31 -90 161 -65 161 31 0 69 -94
107 -140 57z"/>
<path d="M3275 2445 c-35 -34 -33 -78 4 -116 38 -38 74 -38 112 0 56 57 23
141 -56 141 -25 0 -44 -8 -60 -25z"/>
<path d="M1900 2102 c-37 -38 -38 -70 -4 -111 51 -60 144 -26 144 52 0 46 -26
76 -72 84 -32 5 -41 1 -68 -25z"/>
<path d="M2245 2105 c-54 -53 -16 -145 59 -145 47 0 90 50 82 94 -13 69 -94
99 -141 51z"/>
<path d="M2589 2101 c-32 -33 -36 -58 -14 -100 38 -74 155 -43 155 41 -1 37
-14 59 -47 76 -35 19 -63 14 -94 -17z"/>
<path d="M2285 1782 c-37 -7 -65 -43 -65 -82 0 -39 26 -72 67 -84 31 -10 78
17 93 54 25 59 -31 125 -95 112z"/>
<path d="M2612 1774 c-56 -23 -69 -84 -28 -130 70 -82 193 24 126 108 -24 31
-59 39 -98 22z"/>
<path d="M2953 1774 c-96 -47 -33 -187 68 -152 69 24 71 126 3 154 -40 17 -32
17 -71 -2z"/>
<path d="M3313 1782 c-13 -2 -32 -15 -43 -29 -44 -56 -6 -137 65 -137 67 0
108 77 70 131 -17 24 -60 40 -92 35z"/>
<path d="M1899 1411 c-17 -18 -29 -40 -29 -56 0 -38 50 -85 90 -85 44 0 80 39
80 85 0 79 -84 112 -141 56z"/>
<path d="M2245 1415 c-52 -51 -16 -145 55 -145 40 0 90 47 90 85 0 16 -12 38
-29 56 -38 37 -82 39 -116 4z"/>
<path d="M2599 1427 c-21 -16 -39 -51 -39 -77 0 -32 53 -80 88 -80 72 0 109
94 57 145 -27 27 -79 33 -106 12z"/>
<path d="M3275 1415 c-34 -33 -34 -84 1 -119 43 -42 112 -29 134 25 36 86 -70
160 -135 94z"/>
</g>
</svg>
