<svg xmlns="http://www.w3.org/2000/svg" xml:space="preserve" width="29.899" height="30.351"><path d="M11.995 2.822c.056-.04.142-.04.217-.057l.063-.544h.384l.005-.007c.05-.03.104-.044.155-.07.35-.22.737-.362 1.137-.478l.001-.005h.018c.302-.087.609-.168.916-.265.054-.018.088.014.136.014l-.171-.528c-.135.04-.267.082-.403.112l-.166.15-.502.001c-.554.124-1.097.279-1.57.635-.831.624-1.258 1.345-1.65 2.225-.002.185-.046.335-.184.412q-.173.419-.37.844l-.019.237-.1.012a5.3 5.3 0 0 1-.568.912c-.02.038-.023.087-.048.12-.145.188-.336.342-.508.51-.065.09-.177.122-.296.15a9 9 0 0 1-.845.503l-.014.008q-.093.097-.192.193l-.057-.045-.076.045-.079.351-.129-.095q-.223.25-.448.495c-.05.053-.108.137-.164.137q-.15.003-.301.003a.5.5 0 0 1-.382.273 2.3 2.3 0 0 0-.725.178c-.123.061-.245.12-.368.19-.479.278-1.052-.42-.605-.785.036-.03.072-.045.106-.072l-.005-.007.072-.037c.079-.053.159-.083.237-.124-.028-.34-.077-.69.451-.825.044-.01.063-.166.076-.256.032-.215.053-.432.081-.67.455.067.518-.2.515-.565-.007-.68.001-1.36.008-2.041.001-.04-.012-.074-.005-.116l.006-.028.002-.404c.002-.322.025-.636.389-.695q.075-.124.161-.24l.028-.296.208-.027c.1-.113.214-.213.327-.313l.037-.213c.083-.019.172-.02.26-.024q.351-.25.748-.414c.012-.045.038-.064.042-.12l.597-.092C8.36.87 8.308.57 8.251.568a5.6 5.6 0 0 0-1.254.098c-.138.03-.233.274-.358.432l-.438.048-.092.502h-.432C5.533.592 5.336.422 4.531.644v.458l.496.102v.158c.114.091.204.204.201.367-.007.457-.215.816-.19 1.303a4 4 0 0 1-.011.721v.67h-.515l-.008-.055c-.132 0-.261-.035-.344-.136-.243-.298-.448-.6-.564-.916l-.157-.026v-.972c-.096-.133-.143-.293-.012-.474l.012-.015v-.116l.129-.03q.157-.18.353-.306V.59c-.565-.218-.541.2-.594.494l-.492.07c0 .73.021 1.45-.01 2.168-.008.195.004.358.07.474a.8.8 0 0 1 .312.166c.04.006.068.02.117.018l.032.19c.017.027.041.044.056.076.115.243.365.674.588.806a1.07 1.07 0 0 1 .427.518l.044.007v.175a.9.9 0 0 1-.012.43c-.104.316-.324.571-.539.82l-.012.156-.135.026a1.7 1.7 0 0 0-.333.561.9.9 0 0 1-.593.633c-.026.26-.048.523-.084.774-.012.078-.116.174-.198.2-.052.016-.149-.072-.21-.13-.159-.15-.31-.31-.463-.465l-.093.076-.066-.707a1 1 0 0 1-.41-.325c-.015-.019-.019-.035-.031-.052l-.105-.024V7.57c-.144-.297-.135-.563-.12-.937.005-.139.013-.203.02-.239a1.3 1.3 0 0 0-.094-.281L.667 6.03l.021-.423c.09-.028.152-.05.208-.078a.96.96 0 0 1 .29-.626c.02-.112.04-.213.065-.374.17-.106.44-.19.444-.286.02-.59-.012-1.182-.056-1.773-.003-.041-.294-.135-.368-.084-.043.03-.074.075-.112.11a31 31 0 0 1-.527 1.56v.218c-.039.039-.073.063-.112.096a12 12 0 0 0-.399 1.38q-.004.56-.005 1.12c.16.267.263.55.305.9l-.001.006c.29.272.41.68.119 1.117l-.146.217A1.1 1.1 0 0 1 0 9.457l.07.06.029.203a.8.8 0 0 1 .393.252l.005.008.111.012.027.173a2 2 0 0 1 .222.359l.318.041c.025.344.07.655.066.965v.023c.035.517.138 1.045.111 1.563a3.2 3.2 0 0 1-.148.734c-.013.827-.023 1.654-.04 2.48-.008.342.105.751-.33.936l-.146.931q-.004 1.483-.003 2.98l.076.373c.307.036.418.206.415.516-.005 1.12 0 2.238.004 3.356.09.527.156 1.056.072 1.618-.016.113-.048.222-.07.333v.108a1.2 1.2 0 0 1-.078.413c-.03.074-.103.131-.17.188-.04.078-.06.162-.11.235-.192.283-.559.445-.741.707l-.002.796h1.096l.044-.412c.198-.154.33-.26.467-.36.13-.095.267-.18.4-.27.068.135.172.264.193.406.05.324.047.656.091.981.01.076.128.19.199.19.068.002.178-.107.201-.187.11-.39.036-.83.525-1.083.132-.068.211-.337.466-.3.228.035.562.003.664.139.405.541.925.38 1.433.324.08-.01.2-.115.208-.187l-.001-.004a.95.95 0 0 1-.702-.707c-.068-.249-.341-.49-.602-.718l-.226-.04-.01-.18a2 2 0 0 1-.184-.19c-.319-.42-.508-.912-.792-1.353a6 6 0 0 1-.544-1.033l-.163-.052v-.816c.003-.084-.013-.166 0-.254v-5.417h.124c-.008-.045-.03-.083-.032-.132l-.045-.83a1.1 1.1 0 0 1 .053-.357c-.03-.058-.07-.106-.07-.213.007-.957.003-1.915.011-2.87.002-.205.018-.402.12-.515a5.5 5.5 0 0 1 .975-2.022l.019-.213.154-.021c.116-.134.248-.242.378-.358l.025-.188.197-.014q.418-.314.903-.466l.015-.089h.416c.184-.024.373-.019.566 0h1.632l.111.508.35.017.153-.136v-.92a1.3 1.3 0 0 1-.627-.026c-.615-.19-.35-1.154.265-.964.123.037.263.01.408-.055l.012-.072.142-.023a3 3 0 0 0 .393-.266l.045-.23.323-.074c.083-.07.168-.146.228-.187.16-.11.324-.19.49-.265q.003-.003.009-.004.086-.04.174-.075c.026-.007.048-.02.076-.023.158-.054.315-.109.49-.145a.48.48 0 0 1 .342.067c.006-.004.027-.008.027-.014.016-.418.364-.382.616-.497.21-.096.39-.253.585-.383l-.052-.112h.295c.427-.457.867-.898 1.345-1.304l-.018-.017c-.038-.332-.062-.365-.402-.323a4 4 0 0 1-.153.204l-.037.271-.242.013c-.141.128-.281.258-.468.35-.09.044-.176.05-.262.07l-.166.076-.009.051-.11.007c-.322.148-.642.31-.962.466l-.019.082-.169.012c-.125.064-.25.117-.375.186a.45.45 0 0 1-.464-.01c-.065.262-.164.49-.656.23.14-.162.262-.29.37-.428.021-.026.032-.06.053-.088a.53.53 0 0 1 .013-.388c.184-.4.266-.869.576-1.202.052-.056.106-.086.159-.126l.048-.378c.21.026.401.082.584.066a.9.9 0 0 1 .379-.353c.058-.023.073-.087.12-.12-.04-.097-.13-.173-.306-.187-.082-.005-.23-.168-.214-.216.032-.1.145-.182.24-.252M29.404 4.61v-.149l.059-.012.005-.013c.105-.187.27-.32.432-.45v-.704l-.613.058c-.258.286-.382.724-.506 1.165l-.02.4-.112.027c-.094.274-.218.517-.402.693l-.027.532-.977-.099-.015-.156-.019.003c-.202.015-.446-.167-.482-.368a.7.7 0 0 0-.064-.223c-.027-.053-.072-.094-.091-.153a9 9 0 0 1-.208-.76l-.26-.055V1.71l.293-.033q.106-.247.256-.459l.007-.05.035-.005q.2-.266.454-.488c.002-.14.01-.285-.005-.42-.008-.082-.148-.198-.236-.206s-.21.074-.27.154c-.01.032-.014.066-.026.096a4 4 0 0 0-.047.215l-.082.01a1.2 1.2 0 0 1-.447.343l-.012.091.012.007c-.004.006-.012.008-.015.014l-.01.08-.076.015a.76.76 0 0 1-.44.316l-.032.284-.464-.021-.048-.274c-.012-.004-.02-.016-.034-.02-.524-.172-.814-.774-1.345-.8-.036 0-.06-.032-.095-.04l-.122-.016.017-.029a.45.45 0 0 1-.255-.31l-.14-.1c-.07.163-.17.322-.205.494-.02.101-.008.219-.004.33a.8.8 0 0 1 .565.283c.184.218.422.363.658.511l.345.04.055.276c.049.044.112.07.156.123.036.044.048.086.077.13l.325.054c0 .618-.017 1.213.012 1.806v.002c.007.136.168.265.263.394.079.11.21.204.236.323.05.225.044.465.061.695.514.194.626.417.47 1.638h-.446l-.077-.472-.501-.058-.08-.415c-.486-.299-1.218.167-1.534-.43a1.7 1.7 0 0 1-.49-.258l-.072-.008-.01-.073a4.1 4.1 0 0 1-.866-1.067c-.243-.068-.242-.281-.252-.493-.014-.028-.034-.062-.046-.088-.13-.298-.122-.623-.25-.912-.01-.027-.03-.048-.043-.074l-.21-.036-.023-.342c-.071-.1-.144-.199-.202-.31-.073-.144-.121-.294-.181-.442l-.156-.024-.02-.404c-.09-.242-.21-.474-.32-.71-.09-.056-.164-.146-.324-.345-.047-.06-.32-.045-.363.019a.7.7 0 0 0-.098.242c.452.375.82.995.59 1.548-.036.086-.093.127-.14.188-.004.116.002.234-.005.35-.001.021-.21.03-.321.046-.008-.066-.035-.09-.052-.136-.286.066-.614-.018-.898-.196l-.081-.052c-.067-.012-.115-.06-.163-.106l-.161-.108a.9.9 0 0 1-.367-.092c-.113-.058-.165-.15-.248-.227-.125-.015-.238-.032-.384-.05v-.526c-.276-.355-.393-.733-.201-1.097l-.36.026v2.643l-.495.143c-.126 1.114.02 1.221.48 1l.028-.128v-.004l.063-.292.099-.015a1.07 1.07 0 0 1 .437-.335l.036-.21h1.01l.033.138q.586.1 1.125.355c.241.004.457.077.61.344.082.06.173.119.24.184a.28.28 0 0 1 .205.239 5 5 0 0 1 .282.396l.246.065.025.327c.043.061.079.118.128.181a1.03 1.03 0 0 1 .204.499l.221.04v1.034l-.548.034a.97.97 0 0 1-.553.402l-.01.014-.011.065-.066.013a2.4 2.4 0 0 1-.422.402c-.03.021-.063.032-.094.05l-.02.083-.174.021c-.263.124-.542.208-.814.302l-.092.746c.052.051.103.091.155.138.055-.019.095-.05.16-.063.763-.13 1.355-.616 2.016-.977l.01-.044.078-.006c.044-.022.085-.05.13-.072a2.94 2.94 0 0 1 1.417-.289c.02-.03.046-.043.065-.08.09-.17.592-.125.948-.184 0 .017.004.025.004.043.476-.118 1.02.062 1.18.67.032.123.15.268.28.42l.219.038.01.224c.038.041.055.078.09.12.718.386.724 1.222.846 1.95.01.058-.025.094-.032.144.23.82.37 1.64.444 2.471l.264.08q-.001 1.103-.005 2.201c.063.595.153 1.187.199 1.783q.096.448.078.917c.278.006.319.152.314.38q-.01.392-.015.784l-.001.014c-.006.41-.008.817-.023 1.225-.004.115-.105.228-.17.339-.082.142-.24.277-.249.422-.045.846-.048 1.692-.088 2.54-.006.14-.11.376-.201.394a.4.4 0 0 0-.136.052 4 4 0 0 1-.17.634c-.005.19-.035.367-.207.467a12 12 0 0 1-.362.704l-.04.313-.142.015a9 9 0 0 0-.394.765l-.016.282-.188.038a3.5 3.5 0 0 1-.365.502l-.007.057-.06.012c-.128.135-.253.273-.39.396-.122.11-.256.207-.388.307-.078.273-.07.576-.099.866.035-.008.081-.016.125-.022.207-.259.46-.423.779-.592.012-.014.017-.028.03-.042a.9.9 0 0 1 .63-.26l.008-.049h1.05l.027.54.02.332c.016.052.012.104.019.156.147.013.24.015.343.017.013-.422.345-.764.738-.888.015-.06.026-.09.043-.16.19.003.404-.074.513.143a.8.8 0 0 1 .236.1 1.1 1.1 0 0 1 .458.205c.053.02.086.06.133.086q.108.013.215.029l.026.164q.115.139.17.312h.369v-1.26c-.095-.12-.184-.246-.281-.354l-.188-.044c-.024-.064-.027-.138-.035-.21-.227-.254-.423-.526-.545-.856h-.002V27.1a1.9 1.9 0 0 1-.128-.594c-.009-.32.044-.634.128-.945v-.168c.024.007.034-.001.056.003.126-.407.288-.81.455-1.212l.001-.858.315-.076c.052-.185.119-.366.143-.556.024-.18.004-.352-.018-.522a.7.7 0 0 0-.342-.204c.082-.104.18-.197.26-.287a5 5 0 0 1-.095-.664c-.035-.039-.072-.079-.1-.117l-.136.064v-.746a2235 2235 0 0 0-.037-5.978c-.002-.13-.036-.363-.092-.375-.531-.113-.402-.556-.412-.868-.024-.784-.026-1.57-.03-2.355a1.9 1.9 0 0 0-.184-.53c-.11-.208-.197-.352-.214-.598-.024-.32.077-.6.236-.848.045-.182.068-.378.142-.546v-.29l.108-.022a.45.45 0 0 1 .132-.392c.144-.147.328-.239.508-.338.072-.074.115-.164.194-.234.05-.046.106-.06.158-.094v-.562c-.05-.035-.101-.062-.15-.107-.192-.003-.38-.08-.438-.325a1.6 1.6 0 0 1 .002-.732q.013-.207.093-.414"/><path d="m4.247 17.477 22.104.044c-1.08-.905-2.862-2.4-3.62-3.027-1.142-.944-4.267-4.316-5.068-5.466-.58-.834-1.996-2.282-2.624-2.91-.682.76-2.375 2.652-3.186 3.54-.53.58-2.281 2.368-4.134 4.26a724 724 0 0 0-3.472 3.56m23.25.88h-.001l-24.22-.05a.417.417 0 0 1-.305-.7c.673-.723 2.442-2.527 4.153-4.274 1.767-1.804 3.593-3.668 4.113-4.237 1.027-1.125 3.472-3.863 3.472-3.863a.4.4 0 0 1 .296-.138.44.44 0 0 1 .306.118c.092.088 2.24 2.194 3.036 3.338.757 1.09 3.834 4.406 4.914 5.3 1.127.93 4.504 3.77 4.504 3.77a.415.415 0 0 1-.268.735"/><path d="M8.073 30.346a.413.413 0 0 1-.416-.416V17.901a.416.416 0 1 1 .832 0v12.03a.413.413 0 0 1-.416.415m13.7 0a.413.413 0 0 1-.416-.416V17.901a.416.416 0 1 1 .832 0v12.03a.413.413 0 0 1-.416.415"/></svg>