<svg xmlns="http://www.w3.org/2000/svg" xml:space="preserve" width="30.291" height="34.37"><path d="M18.388 33.649c.218.085.807.092 1.034.01.02-.444.009-1.773-.006-3l-1.069-.19c.012.834.037 2.66.041 3.18m.539.725c-.101 0-.181-.004-.225-.007-.846-.061-.971-.412-.971-.616 0-.384-.048-3.693-.048-3.693l.497.239h.363l1.127.172.405-.138c.008.59.04 3.17-.008 3.515-.067.463-.753.528-1.14.528m-6.157-.725c.218.086.808.092 1.034.01.02-.445.027-2.33.01-3.557l-1.084.073c.012.835.037 2.955.04 3.474m.54.725c-.1 0-.18-.004-.224-.007-.846-.06-.972-.412-.972-.616 0-.384-.048-3.693-.048-3.693l.556-.008-.03-.227 1.855-.238.005.368c.008.589.046 3.549-.002 3.894-.067.462-.754.527-1.14.527" style="stroke-width:1.33333"/><path d="M19.77 3.365c-.091.113-.156.225-.162.314-.001.03.002.063.059.114a.8.8 0 0 1 .165.206q-.032-.292-.062-.634m-9.648 22.977c1.174 1.037 6.14 3.895 9.258 3.833 5.026-.105 7.747-2.517 9.65-5.12-1.055.17-1.738-.662-2.36-1.416l-.128-.153c-.652-.783.169-1.579.962-2.348.579-.561 1.219-1.183 1.51-1.884-1.098.141-1.647-.616-2.067-1.195-.295-.405-.548-.756-.9-.789-.408-.039-.781-.261-1.081-.643-.563-.713-.816-1.889-.824-2.944a1.47 1.47 0 0 1-.923.223c-.881-.077-1.685-.92-1.925-1.497-.364-.872-.098-1.75.84-2.724-.231-.158-.398-.416-.523-.611-.156-.241-.316-.49-.505-.533-.727-.168-.696-1.06-.674-1.712a4 4 0 0 0-.001-.498c-.156-.105-.363-.45-.547-1.89-.138.512-.964.877-1.322 1.012-.263.305-.551.797-.44.994.182.33.158.776-.066 1.228-.169.339-.504.755-.893.811-.087.081-.305.71-.45 1.127-.13.374-.265.761-.42 1.104.295.58.289 1.162-.022 1.658-.381.608-1.184.986-2.128 1.027.523 1.073.652 1.852.405 2.427-.261.608-.898.87-1.47 1.036.196.577.186 1.052-.028 1.444-.466.849-1.775 1.042-3.162 1.246l-.412.062c1.51 1.708 1.772 3.234 1.711 4.249-.059.963-.45 1.863-1.065 2.476m9.265 4.161h.005zm-.11.33c-3.56 0-9.147-3.3-9.894-4.316a.33.33 0 0 1 .063-.454c.624-.488 1.029-1.325 1.084-2.238.058-.967-.232-2.482-1.95-4.2a.33.33 0 0 1 .174-.558 36 36 0 0 1 1.038-.164c1.22-.178 2.372-.35 2.68-.909.15-.273.103-.683-.136-1.216a.328.328 0 0 1 .218-.453c.656-.171 1.213-.346 1.389-.755.192-.448-.024-1.239-.639-2.352a.33.33 0 0 1 .012-.34.34.34 0 0 1 .307-.147c.945.092 1.764-.185 2.09-.705.203-.324.178-.713-.073-1.127a.33.33 0 0 1-.013-.317c.17-.341.32-.77.464-1.185.301-.87.52-1.498.979-1.563.07-.012.272-.188.409-.476.112-.237.137-.464.067-.59-.395-.713.417-1.64.585-1.82q.055-.058.13-.085c.465-.166.945-.454.986-.592a.71.71 0 0 1-.295-.632c.036-.609.759-1.144.903-1.244a.33.33 0 0 1 .517.246c.095 1.294.292 2.829.456 3.152.294.162.279.58.262 1.058-.012.351-.035 1.003.162 1.048.45.104.707.5.912.819.326.504.383.515.632.359a.33.33 0 0 1 .442.084.333.333 0 0 1-.054.445c-1.537 1.301-1.493 2.045-1.284 2.55.148.353.75 1.04 1.376 1.095.37.035.687-.166.972-.609a.33.33 0 0 1 .39-.13.33.33 0 0 1 .213.354c-.176 1.23.095 2.673.632 3.355q.284.361.625.393c.65.063 1.034.59 1.37 1.057.486.668.869 1.192 1.89.815a.33.33 0 0 1 .322.052.33.33 0 0 1 .118.303c-.161 1.137-1.096 2.042-1.845 2.769-.8.775-1.15 1.172-.915 1.455l.128.154c.924 1.116 1.419 1.618 2.598.8a.33.33 0 0 1 .462.452c-1.912 2.898-4.872 6.238-10.842 6.362z" style="stroke-width:1.33333"/><path d="M.943 19.51c.772 3.299 3.447 10.23 12.168 10.127q.71-.014 1.364-.038c-2.435-1.042-4.64-2.47-5.09-3.082a.33.33 0 0 1 .062-.454c.624-.488 1.03-1.324 1.084-2.238.059-.967-.232-2.482-1.95-4.2a.33.33 0 0 1 .174-.558 36 36 0 0 1 1.039-.164c1.22-.178 2.372-.348 2.68-.909.149-.273.102-.683-.136-1.215a.33.33 0 0 1 .216-.453c.657-.172 1.214-.347 1.39-.756.19-.447-.024-1.239-.638-2.352a.33.33 0 0 1 .012-.34.34.34 0 0 1 .306-.147c.946.092 1.764-.185 2.09-.705.204-.324.178-.713-.072-1.127a.33.33 0 0 1-.014-.317c.172-.344.322-.772.467-1.187q.093-.27.183-.512c-.636-1.396-.808-2.457-.583-3.597-.461-.85-.58-1.581-.667-2.123-.084-.512-.132-.764-.328-.861l-.104-.052c-.474-.236-.905-.45-1.144-.993-.29.486-.52.813-.69 1.054-.294.415-.355.511-.335.742a3.1 3.1 0 0 1-.139 1.28.4.4 0 0 1-.076.117l-.868.868c-.124.199-.704 1.059-1.576 1.275a1.7 1.7 0 0 1-.497.049q.176.283.34.532c.344.53.641.985.723 1.47.202 1.215.189 1.967-.04 2.367-.168.295-.62.683-1.784.116l.008.076c.046.439.117 1.104-.11 1.782-.176.529-.58.918-1.166 1.125-.795.28-1.842.18-2.49-.236-.456-.293-.785-.52-1.024-.697.056.776.175 1.888.286 2.096a3 3 0 0 0 .286.304c.494.496 1.242 1.242 1.072 2.086-.032.163-.049.376-.069.611-.067.801-.152 1.799-.8 2.27-.33.24-.756.3-1.26.185a4.9 4.9 0 0 1-2.3-1.22m11.973 10.788c-4.314 0-7.7-1.651-10.066-4.91C.64 22.35.112 18.961.003 17.995a.33.33 0 0 1 .644-.128c.179.63.96 1.803 2.745 2.219.316.075.552.05.724-.073.404-.295.478-1.162.531-1.795a7 7 0 0 1 .08-.683c.1-.5-.497-1.097-.892-1.493-.165-.164-.296-.293-.373-.41-.227-.342-.534-3.143-.372-3.407a.34.34 0 0 1 .32-.158.35.35 0 0 1 .28.231c.006 0 .193.235 1.418 1.021.418.268 1.247.406 1.915.17.393-.139.65-.378.761-.714.18-.541.122-1.097.079-1.502-.041-.391-.073-.699.175-.864.232-.156.489-.015.574.03.562.307 1.018.41 1.111.246.065-.115.195-.535-.039-1.932-.058-.35-.308-.734-.625-1.219-.244-.375-.52-.801-.779-1.317a.33.33 0 0 1 .47-.427q.432.272.858.165c.694-.17 1.187-1 1.192-1.008q.02-.036.051-.066l.84-.84c.039-.136.121-.488.08-.93-.043-.478.144-.742.453-1.18.239-.338.6-.848 1.078-1.752a.33.33 0 0 1 .62.138c.046.886.336 1.03.968 1.344l.105.052c.505.253.588.76.683 1.346.088.543.197 1.218.65 2.011a.33.33 0 0 1 .035.235c-.24 1.08-.08 2.041.57 3.426a.33.33 0 0 1 .007.26c-.073.188-.148.4-.224.62a13 13 0 0 1-.422 1.107c.296.579.289 1.161-.022 1.657-.381.608-1.184.986-2.129 1.027.524 1.073.653 1.852.405 2.427-.26.608-.897.87-1.469 1.036.196.577.187 1.052-.028 1.444-.465.849-1.775 1.042-3.161 1.246l-.412.062c1.509 1.708 1.772 3.234 1.71 4.249-.058.964-.45 1.864-1.066 2.477.817.734 3.434 2.308 6.014 3.195a.33.33 0 0 1-.085.64c-.867.059-1.853.097-2.93.117z" style="stroke-width:1.33333"/><path d="M14.018 33.843h-1.574v-3.837h1.574zm5.665.122h-1.585v-3.46h1.585z" style="stroke-width:1.33333"/></svg>