<svg xmlns="http://www.w3.org/2000/svg" viewBox="0 0 772 968" width="772" height="968"><path d="M608.841,171.879c-72.364,-77.824 -146.772,-116.736 -223.232,-116.736h-2.048c-75.776,0 -149.504,41.984 -221.184,125.952c-71.68,83.968 -107.52,184.66 -107.52,302.08c0,118.1 34.816,219.136 104.448,303.104c69.632,83.968 144.724,125.952 225.28,125.952c81.236,0 156.672,-38.572 226.304,-115.712c69.632,-76.46 104.788,-180.908 105.472,-313.344c0,-131.756 -35.84,-235.52 -107.52,-311.296zM771.219,483.175v0.282c-0.732,142.033 -38.642,260.868 -119.695,349.912c-76.918,85.179 -166.13,133.72 -266.939,133.72c-102.151,0 -191.363,-53.972 -267.507,-145.792c-78.491,-94.65 -117.078,-208.366 -117.078,-338.121c0,-129.577 39.932,-243.135 120.655,-337.697c77.219,-90.457 164.833,-145.193 262.907,-145.193h2.048c96.83,0 184.711,49.666 263.248,134.068c83.559,88.435 122.361,206.988 122.361,348.821zM204.361,484.199c4.096,-101.036 19.456,-187.392 46.08,-259.072c26.624,-71.68 69.972,-107.861 130.048,-108.544l1.024,2.048c60.756,0 106.836,33.792 138.24,101.376c27.308,56.661 40.96,129.364 40.96,218.112v22.528c-0.684,8.876 -1.024,16.724 -1.024,23.552c-6.144,109.908 -24.576,197.632 -55.296,263.168c-30.72,65.536 -71.68,100.352 -122.88,104.448c-52.564,0 -96.256,-34.816 -131.072,-104.448c-31.403,-66.9 -47.104,-143.02 -47.104,-228.352c0,-2.048 0.341,-7.508 1.024,-16.384zM259.218,485.329v17.302c0,1.404 -0.055,2.809 -0.161,4.206c-0.333,4.315 -0.567,7.611 -0.713,9.969c-0.073,1.181 -0.117,2 -0.143,2.523c-0.004,0.062 -0.004,0.117 -0.007,0.165c0.059,78.04 14.373,145.646 41.615,203.944c29.466,58.642 57.403,72.649 79.547,73.479c23.442,-2.677 49.989,-18.695 75.366,-72.832c26.489,-56.514 44.101,-136.046 50.114,-241.525c0.048,-7.483 0.406,-15.503 1.02,-23.958v-20.447c0,-83.668 -12.954,-147.506 -35.522,-194.333l-0.329,-0.7c-12.957,-27.88 -27.151,-44.898 -40.803,-54.911c-13.019,-9.547 -28.193,-14.724 -47.689,-14.724c-3.931,0 -7.797,-0.42 -11.546,-1.227c-12.811,1.834 -23.003,6.663 -31.894,14.085c-12.193,10.175 -25.092,27.95 -36.209,57.881c-23.991,64.598 -38.649,144.582 -42.646,241.102z" /></svg>