<svg xmlns="http://www.w3.org/2000/svg" width="768" height="1024"><path d="M640.512 695.735q-31.746.001-46.08 29.696c-27.308 46.42-69.972 73.388-128 80.896q-86.017 10.242-204.8 12.288-8.19.001-12.288-4.096-2.047.001-2.048-4.096t6.144-13.312q45.054-60.414 116.736-104.448 72.702-45.054 141.312-92.16 68.609-47.105 117.76-105.472 48.127-54.271 48.128-140.288-.001-57.344-23.552-121.856H652.8q-29.696-68.608-99.328-113.664-70.656-46.08-165.888-46.08-121.855 0-209.92 64.512-87.04 64.512-87.04 165.888 3.072 121.855 99.328 183.296 8.191 4.098 12.288 6.144c2.048.684 5.12 2.388 9.216 5.12q24.576 10.241 55.296 10.24 98.303.001 126.976-59.392 2.046-4.097 3.072-7.168h1.024q1.025-3.073 1.024-8.192.001-28.673-25.6-28.672-10.242.001-18.432 8.192-32.766 28.673-79.872 28.672-19.457 0-37.888-12.288-19.457-12.287-27.648-25.6h-1.024q-20.48-35.839-20.48-86.016 0-57.344 47.104-104.448 47.106-47.104 107.52-47.104 35.839 0 54.272 3.072 17.406 3.072 49.152 26.624c23.212 15.701 39.252 34.133 48.128 55.296q25.601 45.056 25.6 109.568-4.096 43.007-23.552 80.896-20.48 40.96-40.96 69.632-23.55 27.649-46.08 48.128-28.673 26.623-50.176 41.984-20.479 12.288-32.768 21.504l-1.024 1.024c-58.028 40.276-103.083 81.58-135.168 123.904q-48.127 63.487-86.016 152.576c-1.365 1.364-2.048 3.756-2.048 7.168q0 4.098 4.096 12.288 6.144 10.241 14.336 10.24 104.447-8.19 197.632-9.216 66.56.001 117.76 2.048 52.225 1.024 109.568 5.12 26.622 0 33.792-21.504 8.191-18.433 14.336-41.984 7.169-28.672 13.312-41.984 8.191-21.503 23.552-44.032 14.334-20.478 24.576-46.08 3.072-4.097 3.072-13.312-.001-8.19-2.048-12.288-4.096-13.313-17.408-13.312z"/></svg>