<svg xmlns="http://www.w3.org/2000/svg" width="832" height="1024"><path d="M688.554 74.167q-102.397 6.144-207.872 6.144-60.414 0-110.592-1.024a2499 2499 0 0 1-99.327-6.144q-11.264 0-17.408 9.216-6.144 10.24-9.216 16.384-34.817 65.537-76.8 113.664-10.24 10.24-13.312 29.696 0 19.456 13.312 19.456 34.817 0 57.344-36.864 24.576-33.792 114.687-43.008 32.772-4.096 92.16-4.096 33.792 0 64.512 3.072 11.268 1.024 15.36 3.072l1.024 2.048q0 4.096-9.216 16.384-40.958 47.104-80.896 86.016c-31.4 30.72-60.416 57.344-87.04 79.872q-15.36 13.312-15.36 32.768 0 15.36 12.288 15.36 21.506.001 34.816-7.168 18.432-8.191 36.864-8.192 83.969 0 139.264 67.584 44.033 56.322 44.032 125.952 0 16.385-3.072 34.816-1.02 88.063-58.368 158.72-56.316 70.656-147.456 70.656-64.511-.001-111.615-48.128c-40.698-42.507-70.216-132.506-31.744-186.368q11.263-17.406 37.888-30.72 27.647-14.334 27.647-30.72v-9.216q.002-8.191-5.12-11.264-6.144-4.096-15.359-5.12-9.216-2.047-27.648-2.048-26.624 1.024-46.08 11.264c-139.93 59.403-131.481 220.84-30.72 312.32q78.85 70.656 196.607 70.656 56.321-.001 120.832-26.624 62.465-25.602 114.688-70.656 51.203-44.034 87.04-101.376 35.844-57.342 36.864-116.736.002-62.464-11.264-109.568c-7.508-31.404-19.112-60.756-34.816-88.064q-49.15-84.992-146.432-111.616c-16.903-3.381-17.686-15.966-9.216-28.672 46.201-54.353 98.096-103.314 150.528-151.552q14.34-15.36 15.36-31.744 0-16.384-12.288-16.384z"/></svg>