<svg xmlns="http://www.w3.org/2000/svg" width="832" height="1024"><path d="M733.948 388.721c-30.464-52.679-72.788-91.902-125.59-117.146 34.406-36.512 71.54-71.365 110.124-106.862a56 56 0 0 0 2.962-2.941c15.759-16.885 28.332-38.938 30.007-65.752q.105-1.71.106-3.422c0-10.737-1.733-28.791-14.043-45.203l-.358-.475c-10.127-17.703-29.641-28.789-50.907-27.513q-100.71 6.044-204.588 6.045c-39.742 0-76.032-.335-108.888-1.001a2446 2446 0 0 1-96.568-5.985 55 55 0 0 0-4.463-.182c-25.477 0-48.576 11.93-63.052 33.644a55 55 0 0 0-1.396 2.206c-4.21 7.016-7.977 13.617-10.9 19.395-21.21 39.841-44.114 73.624-68.496 101.758-16.383 17.233-23.963 38.531-27.078 58.259a55 55 0 0 0-.671 8.556c0 11.033 1.577 29.004 12.912 45.569 13.894 20.307 35.442 28.744 55.258 28.744 45.65 0 79.792-25.153 102.072-59.798 1.193-1.104 5.275-4.375 15.493-8.207 13.155-4.933 32.684-9.353 60.047-12.152q.613-.063 1.225-.139c13.082-1.635 30.969-2.796 54.07-3.334a1184 1184 0 0 1-16.215 16.106l-.077.077c-30.691 30.022-58.715 55.718-84.114 77.209l-.494.422c-21.65 18.763-34.29 44.549-34.29 74.223 0 10.73 1.869 28.529 14.208 44.657q.435.565.886 1.13c15.005 18.761 35.85 24.43 52.052 24.43 18.97 0 39.472-2.94 58.32-12.423 5.372-2.224 9.72-2.937 13.36-2.937 38.597 0 69.584 14.416 96.42 46.994 21.776 28.039 32.019 58.05 32.019 91.685 0 7.515-.706 16.084-2.326 25.797a55 55 0 0 0-.742 8.382c-.534 45.901-15.393 86.941-46.11 124.785l-.3.377c-27.033 33.916-60.331 49.993-104.56 49.993-27.451 0-50.66-9.516-72.188-31.415-12.646-13.308-25.744-37.003-31.431-62.654-5.826-26.28-1.86-44.222 4.899-53.683a56 56 0 0 0 1.418-2.085c.355-.552 3.778-5.164 16.362-11.458l.72-.366c20.352-10.551 57.253-34.571 57.253-79.419v-9.216c0-16.45-5.753-41.984-30.526-57.552-11.754-7.589-24.27-11.37-35.844-12.987-11.48-2.202-24.4-2.75-36.615-2.75q-1.055.001-2.108.04c-23.42.9-46.35 5.829-67.354 16.421C7.259 566.855 7.257 786.283 135.257 895.997c109.862 94.168 249.678 100.571 379.539 57.326 47.206-19.354 90.463-46.04 129.638-79.832 38.323-32.962 70.949-70.967 97.763-113.869 28.427-45.484 44.317-93.992 45.195-144.863l.007-.947c0-44.771-4.02-85.742-12.767-122.328-8.7-36.385-22.224-70.671-40.613-102.649l-.07-.117zM696.7 92.599a41 41 0 0 1-1.825 9.777 47 47 0 0 1-3.19 7.672q-2.84 5.465-7.273 10.809a76 76 0 0 1-3.072 3.486l-6.415 5.908c-42.178 38.897-83.87 78.386-122.386 120.905l-.037.04-2.311 2.56a1039 1039 0 0 0-19.38 22.139c-8.47 12.706-7.686 25.291 9.217 28.672q1.995.547 3.975 1.118 30.656 8.858 56.43 23.63 53.535 30.678 86.027 86.868 23.555 40.96 34.816 88.064c7.512 31.404 11.264 67.924 11.264 109.568-.684 39.596-12.968 78.508-36.864 116.736q-35.84 57.342-87.04 101.376-39.569 34.137-85.018 57.11a415 415 0 0 1-29.67 13.546q-64.511 26.623-120.832 26.624-117.758 0-196.607-70.656c-100.761-91.48-109.21-252.917 30.72-312.32q19.455-10.24 46.08-11.264 18.432.001 27.648 2.048 9.215 1.024 15.359 5.12 5.119 3.073 5.12 11.264v9.216q0 16.386-27.647 30.72-26.625 13.314-37.888 30.72c-38.472 53.862-8.954 143.861 31.744 186.368q47.104 48.127 111.615 48.128 91.14 0 147.456-70.656a292 292 0 0 0 13.19-17.551q44.279-63.881 45.178-141.169 3.072-18.431 3.072-34.816 0-39.16-13.926-74.108-10.834-27.197-30.106-51.844-55.295-67.584-139.264-67.584c-9.344 0-18.692 1.58-28.036 4.74-.852.285-1.704.589-2.553.903a91 91 0 0 0-3.536 1.379l-.603.249q-1.068.45-2.136.922-12.569 6.769-32.435 7.146-1.18.022-2.381.022-12.288 0-12.288-15.36 0-17.4 12.288-29.89a55 55 0 0 1 3.072-2.878q3.203-2.711 6.455-5.5l.187-.161 3.17-2.731 2.144-1.858q34.94-30.348 75.085-69.621 26.056-25.39 52.553-54.269a1580 1580 0 0 0 17.829-19.769l.336-.383q3.885-4.383 7.775-8.839l2.403-2.756q9.216-12.288 9.216-16.384l-1.024-2.048q-4.092-2.048-15.36-3.072a594 594 0 0 0-24.045-1.907 649 649 0 0 0-20.451-.889 716 716 0 0 0-20.016-.277c-39.592 0-70.316 1.365-92.16 4.096q-70.38 7.198-100.783 29.388-8.523 6.221-13.905 13.62-8.213 13.44-18.06 21.981a69 69 0 0 1-3.871 3.121q-15.745 11.762-35.412 11.762-13.312 0-13.312-19.456 3.073-19.456 13.312-29.696a499 499 0 0 0 12.61-15.049 544.828 544.828 0 0 0 18.621-24.543q24.142-33.74 45.568-74.072 3.072-6.144 9.216-16.384 6.144-9.216 17.408-9.216a2499 2499 0 0 0 99.327 6.144q50.178 1.024 110.592 1.024 74.72 0 147.899-3.084a3373 3373 0 0 0 54.173-2.717l5.8-.343-5.12 2.048q3.024 0 5.303.992.69.3 1.309.689 5.546 3.483 5.672 14.184l.004.519z"/></svg>