<svg xmlns="http://www.w3.org/2000/svg" width="832" height="1024"><path d="M128.768 696.759q-18.432 16.386-21.504 39.936 0 24.575 26.624 28.672H485.12q12.288-.001 18.432 1.024 9.216 0 9.216 24.576c-.684 34.132-3.072 55.98-7.168 65.536q-6.144 14.336-15.36 19.456-3.072 1.025-9.216 4.096l-12.288 6.144c-8.876 4.096-18.772 16.384-29.696 36.864q.001 4.096 5.12 8.192 7.17 5.119 12.288 5.12 24.576-3.072 58.368-6.144t57.344-3.072q24.575 0 53.248 3.072 29.694 3.072 52.224 6.144 16.385.001 16.384-13.312-1.025-20.478-7.168-24.576-6.144-5.118-15.36-12.288-9.216-8.19-18.432-27.648-9.216-20.48-15.36-68.608.001-7.168 5.12-17.408 6.143-11.263 22.528-11.264h30.72q28.673 0 28.672-27.648v-31.744q.001-26.623-28.672-26.624H659.2q-25.601 0-28.672-12.288t-3.072-26.624q-1.025-17.406-1.024-58.368-.001-45.054 1.024-70.656l6.144-399.36q-2.047 0-5.12-15.36-3.072-18.432-21.504-19.456-34.817 1.024-53.248 35.84-93.184 151.553-204.8 296.96c-66.9 87.38-141.653 182.956-224.256 286.72zm352.256-368.64q3.072-5.12 15.36-18.432 2.047-4.096 5.12-4.096 6.144 0 6.144 25.6-1.025 29.696-1.024 91.136v91.136q2.046 43.009 3.072 72.704 1.025 22.529 1.024 62.464 0 27.648-15.36 27.648h-19.456l-221.184 5.12q-2.048-.001-5.12 1.024h-3.072q-10.24 0-10.24-6.144 0-9.215 6.144-16.384 55.296-81.918 119.808-162.816 63.488-79.871 120.832-166.912z"/></svg>