<svg xmlns="http://www.w3.org/2000/svg" viewBox="0 0 602 878" width="602" height="878"><path d="M112.045,12.431c0,-0.683 0,-1.024 0,-1.024c77.824,6.144 141.312,10.923 190.464,14.336c7.508,0 19.116,0.341 34.816,1.024c15.02,0.683 25.94,1.024 32.768,1.024c41.644,0 78.848,-2.389 111.616,-7.168c8.876,-2.048 15.7,-5.12 20.48,-9.216c5.46,-4.779 12.288,-8.533 20.48,-11.264c11.604,0 19.456,3.072 23.552,9.216c2.048,2.048 3.072,4.437 3.072,7.168c0,5.461 -2.388,10.923 -7.168,16.384c-24.576,27.307 -43.348,54.613 -56.32,81.92c-6.828,13.653 -15.36,21.163 -25.6,22.528c-6.828,0.683 -14.676,1.024 -23.552,1.024h-1.024c-2.048,0 -5.12,-0.683 -9.216,-2.048c-53.248,-3.413 -102.06,-5.12 -146.432,-5.12c-49.836,0 -87.38,1.024 -112.64,3.072c-12.288,0 -18.432,3.413 -18.432,10.24c0,6.827 0.34,11.264 1.024,13.312v65.536c0,12.288 -0.684,20.48 -2.048,24.576c0,7.509 3.412,11.264 10.24,11.264c4.78,0 8.532,-0.683 11.264,-2.048c38.912,-13.653 79.872,-21.504 122.88,-23.552c85.332,0.683 158.38,30.72 219.136,90.112c59.392,57.344 89.088,135.168 89.088,233.472c0,0.684 0.34,3.412 1.024,8.192c0,4.78 0,7.852 0,9.216c0,79.188 -30.72,148.48 -92.16,207.872c-65.536,63.488 -140.288,95.232 -224.256,95.232c-79.188,0 -146.774,-15.7 -202.752,-47.104c-54.613,-30.72 -81.92,-82.944 -81.92,-156.672c1.365,-62.124 19.797,-107.52 55.296,-136.192c30.72,-24.576 68.608,-36.864 113.664,-36.864c0.684,0 4.436,0 11.264,0c4.096,0.684 8.192,1.024 12.288,1.024c15.02,0 22.528,7.852 22.528,23.552c0,14.336 -5.804,22.188 -17.408,23.552h-1.024c-56.661,15.7 -84.992,54.612 -84.992,116.736c0,39.596 14.336,73.388 43.008,101.376c29.356,27.988 64.852,41.984 106.496,41.984c12.288,0 21.504,-0.34 27.648,-1.024c49.152,-7.508 90.452,-30.38 123.904,-68.608c32.768,-36.864 49.152,-89.088 49.152,-156.672c-0.684,-64.172 -17.748,-116.052 -51.2,-155.648c-32.084,-38.228 -73.044,-61.1 -122.88,-68.608c-12.288,-2.048 -24.236,-3.072 -35.84,-3.072c-25.94,0 -49.152,6.144 -69.632,18.432c-29.356,17.748 -47.787,30.38 -55.296,37.888c-10.923,8.876 -19.114,13.312 -24.576,13.312c-19.115,0 -28.672,-9.556 -28.672,-28.672c0,-18.432 0.341,-32.084 1.024,-40.96c1.365,-25.94 3.413,-52.908 6.144,-80.896c2.73,-24.576 4.096,-52.224 4.096,-82.944c0,-30.72 -1.366,-58.368 -4.096,-82.944c-2.731,-27.989 -4.779,-55.637 -6.144,-82.944c0,-5.461 1.706,-9.899 5.12,-13.312c3.414,-3.413 6.827,-5.12 10.24,-5.12l4.096,1.024c2.048,0 3.754,0.341 5.12,1.024c1.366,0.683 3.414,1.024 6.144,1.024z" /></svg>