<svg xmlns="http://www.w3.org/2000/svg" width="768" height="1024"><path d="M597.578 99.767c0-23.491-9.925-47.612-32.823-63.101-22.378-15.137-35.957-18.38-61.97-18.38-61.404 0-122.566 20.081-182.672 55.841l-.088.051c-57.757 34.505-109.6 78.232-155.521 130.819l-.038.042C119.424 256.726 82.74 313.384 54.57 374.916l-.409.914c-24.636 56.517-38.362 118.938-38.362 180.641 0 136.81 35.982 249.395 117.236 327.333l.388.369c79.627 74.898 177.24 112.179 289.49 112.179 3.777 0 7.467-.38 11.033-1.108 168.225-4.641 318.256-175.166 318.256-352.757 0-107.82-33.36-197.771-107.418-259.935-69.566-59.738-154.203-88.81-250.544-88.81-8.89 0-20.096.829-31.426 4.607a73.5 73.5 0 0 0-14.384 6.575 369 369 0 0 1 21.113-23.007c29.531-29.534 58.086-52.106 85.541-68.461l.293-.176c27.114-16.383 48.67-28.153 65.075-35.891 23.194-2.733 46.34-12.858 63.356-34.514a54.8 54.8 0 0 0 8.905-16.545c1.635-4.906 4.864-15.101 4.864-26.563zm11.703 324.608q88.063 73.728 88.064 218.112 0 123.905-87.04 209.92c-58.708 58.028-119.124 87.38-181.248 88.064h-6.145v1.024q-15.235.001-29.992-1.024a403 403 0 0 1-24.81-2.487q-113.329-14.974-197.102-93.769c-66.9-64.172-100.352-160.084-100.352-287.744q0-44.033 8.192-80.896 8.193-37.889 25.6-77.824 38.913-84.991 101.377-156.672 63.489-72.703 142.336-119.808 69.943-41.613 134.532-47.246 1.365-.12 2.732-.222a232 232 0 0 1 17.36-.66l5.12 3.072q34.817 0 34.816 23.552-.001 3.072-2.048 9.216-11.005 14.008-32.768 14.328l-1.024.008q-2.008.87-4.096 1.811l-1.713.778q-2.33 1.065-4.754 2.214l-2.388 1.141q-27.544 13.275-66.922 37.064c-32.083 19.115-64.171 44.715-96.255 76.8q-47.106 47.105-82.944 113.664-22.328 42.027-32.442 94.164a414 414 0 0 0-2.284 12.855 451 451 0 0 0-3.45 26.313 485 485 0 0 0-.8 8.62 509 509 0 0 0-.96 13.696q0 5.118 7.168 6.144 9.21 0 13.452-4.974.473-.555.884-1.17a1011 1011 0 0 0 37.02-34.436q57.931-56.652 106.34-122.236 4.097-7.168 21.503-7.168 126.978.001 215.04 75.776"/><path d="M210.944 677.303q0-75.775 49.152-134.144Q312.319 480.694 384 480.695q72.702 0 122.88 58.368c33.452 38.228 50.176 84.652 50.176 139.264q.001 82.945-50.176 140.288-50.178 58.368-122.88 58.368l-1.024-2.048q-71.682 0-122.88-76.8-49.152-73.727-49.152-120.832m184.708 144.256c26.342-2.629 48.896-14.588 69.628-38.704l.315-.366c23.899-27.312 36.604-60.884 36.604-104.163 0-42.408-12.588-75.696-36.604-103.139l-.315-.362c-23.728-27.6-49.836-39.274-81.28-39.274-29.213 0-55.837 11.717-81.818 42.792l-.124.15c-24.503 29.096-36.257 61.319-36.257 98.809 0 14.599 8.675 43.505 39.94 90.405 27.242 40.865 53.01 52.37 77.235 52.37 4.326 0 8.576.508 12.676 1.481z"/></svg>