<svg xmlns="http://www.w3.org/2000/svg" viewBox="0 0 675 977" width="675" height="977"><path d="M613.585,95.157c0.223,-0.461 0.446,-0.922 0.666,-1.383c0.775,-1.613 1.554,-3.226 2.33,-4.839c2.048,-3.413 3.072,-7.509 3.072,-12.288c0,-8.192 -5.804,-12.288 -17.408,-12.288c-7.515,0 -13.074,0.245 -16.673,0.735c-0.238,0.032 -0.464,0.065 -0.684,0.099c-0.384,0.06 -0.742,0.123 -1.075,0.19l1.024,-1.024c-0.402,0.025 -0.805,0.05 -1.214,0.075c-0.238,0.014 -0.475,0.029 -0.717,0.043c-2.077,0.123 -4.246,0.239 -6.506,0.35c-2.864,0.141 -5.877,0.272 -9.033,0.394c-0.037,0.001 -0.077,0.003 -0.113,0.004c-0.048,0.002 -0.095,0.004 -0.143,0.005c-10.968,0.421 -23.684,0.729 -38.151,0.924c-12.496,0.169 -26.295,0.253 -41.403,0.253c-10.924,0 -27.308,-0.341 -49.152,-1.024c-21.844,-0.683 -38.228,-1.024 -49.152,-1.024c-87.38,-4.096 -152.576,-7.168 -195.584,-9.216h-6.144c-9.557,0 -20.821,3.755 -33.792,11.264c-12.971,7.509 -20.821,16.725 -23.552,27.648c-7.51,25.941 -17.067,50.517 -28.672,73.728c-14.336,27.989 -27.99,52.224 -40.96,72.704c-3.413,4.096 -5.12,9.899 -5.12,17.408c0,4.096 0.683,7.168 2.048,9.216c4.096,7.51 10.922,11.264 20.48,11.264c8.32,0 15.936,-1.447 22.847,-4.342c1.597,-0.669 3.158,-1.416 4.68,-2.24c0.06,-0.032 0.119,-0.065 0.179,-0.097c11.264,-6.152 20.461,-16.556 27.59,-31.209c20.48,-36.181 67.584,-56.661 141.312,-61.44c21.844,-2.048 52.564,-3.072 92.16,-3.072c33.452,0 66.56,1.707 99.328,5.12c13.652,0 20.48,4.779 20.48,14.336c0,2.731 -1.024,6.144 -3.072,10.24c-44.372,87.381 -103.424,201.388 -177.152,342.016c-56.536,107.483 -102.049,213.555 -136.535,318.212c-0.578,1.752 -1.153,3.504 -1.724,5.259c-2.798,8.58 -5.523,17.152 -8.173,25.713v2.048c-0.682,1.364 -1.024,2.388 -1.024,3.072c0,3.412 1.024,7.168 3.072,11.264c2.048,4.78 6.827,7.168 14.336,7.168c7.085,-1.181 14.006,-2.158 20.765,-2.929c5,-0.571 9.908,-1.031 14.728,-1.379c0.073,-0.004 0.146,-0.011 0.219,-0.015c7.424,-0.53 14.636,-0.797 21.632,-0.797c16.384,0 35.5,1.708 57.344,5.12c1.364,0 3.072,0.34 5.12,1.024h3.072c13.652,0 21.844,-8.192 24.576,-24.576c27.308,-145.408 67.924,-285.356 121.856,-419.84c46.643,-117.233 98.812,-236.508 156.511,-357.817c0,0 0,0.001 0,0c0.055,-0.112 0.106,-0.224 0.161,-0.336c3.756,-7.898 7.537,-15.805 11.341,-23.721zM665.261,114.283c-62.672,130.144 -118.905,257.817 -168.719,383.027l-0.055,0.139c-52.513,130.951 -92.112,267.29 -118.769,409.088c-2.531,14.654 -8.62,32.772 -23.402,47.557c-16.205,16.205 -36.593,22.21 -55.175,22.21h-3.072c-4.491,0 -8.96,-0.552 -13.305,-1.638c-0.095,-0.015 -0.19,-0.029 -0.285,-0.044c-19.942,-3.116 -36.111,-4.462 -48.874,-4.462c-14.27,0 -30.34,1.375 -48.325,4.374c-2.981,0.497 -5.997,0.746 -9.019,0.746c-17.781,0 -49.264,-6.528 -64.025,-38.762c-4.367,-9.073 -8.24,-20.846 -8.24,-34.527c0,-5.222 0.751,-10.002 1.759,-14.069c0.406,-2.458 0.98,-4.886 1.718,-7.27c36.595,-118.232 86.759,-237.725 150.269,-358.473c60.069,-114.575 110.332,-211.36 150.817,-290.395c-13.872,-0.634 -27.816,-0.951 -41.834,-0.951c-39.007,0 -67.734,1.023 -87.04,2.832c-0.523,0.049 -1.046,0.091 -1.573,0.125c-67.478,4.374 -89.793,21.945 -96.578,32.81c-9.198,18.215 -22.178,35.13 -40.315,47.557c-19.254,13.193 -41.062,19.076 -63.263,19.076c-26.218,0 -52.544,-11.84 -67.716,-38.205c-8.691,-14.461 -9.669,-29.137 -9.669,-37.132c0,-14.076 2.938,-32.351 14.88,-48.738c11.477,-18.287 23.852,-40.271 37.108,-66.139c9.9,-19.835 18.154,-40.975 24.717,-63.489c7.657,-28.948 27.868,-48.379 48.971,-60.596c17.006,-9.845 38.072,-18.646 61.277,-18.646h6.144c0.87,0 1.74,0.021 2.609,0.062c42.779,2.037 107.54,5.089 194.291,9.155c11.75,0.026 28.379,0.388 49.551,1.049c21.716,0.679 37.402,0.997 47.437,0.997c42.73,0 73.772,-0.686 93.857,-1.941c2.878,-0.18 5.734,-0.132 8.543,0.13c4.341,-0.198 8.554,-0.237 12.288,-0.237c10.584,0 28.332,1.566 44.69,13.112c19.858,14.016 27.575,35.257 27.575,54.033c0,11.82 -2.406,24.993 -9.249,37.636z" /></svg>