<svg xmlns="http://www.w3.org/2000/svg" viewBox="0 0 704 1008" width="704" height="1008"><path d="M344.832,0.448c76.458,0 140.574,21.105 192.341,63.317c51.767,42.212 77.653,90.397 77.653,144.555c0,31.858 -9.557,60.53 -28.672,86.016c-19.115,24.69 -41.813,48.583 -68.096,71.68c-5.577,4.779 -13.939,11.15 -25.088,19.115c-2.389,0 -3.584,1.593 -3.584,4.779c0,5.576 8.363,11.947 25.088,19.115c56.546,27.08 102.345,67.298 137.387,120.661c34.249,51.767 51.371,109.111 51.371,172.032c0,82.035 -36.237,153.314 -108.715,213.845c-73.271,61.324 -156.898,91.989 -250.88,91.989c-94.777,0 -175.616,-26.282 -242.517,-78.848c-66.901,-52.566 -100.352,-124.642 -100.352,-216.235c0,-55.752 18.717,-106.722 56.15,-152.917c38.23,-46.195 78.848,-85.218 121.856,-117.077c3.982,-3.98 5.973,-7.168 5.973,-9.557c0,-3.188 -2.389,-5.974 -7.168,-8.363c-11.946,-5.576 -24.69,-14.336 -38.229,-26.283c-15.929,-13.54 -31.46,-33.053 -46.592,-58.539c-15.133,-26.283 -23.495,-65.707 -25.088,-118.272c0,-59.733 26.68,-111.104 80.042,-154.112c54.158,-43.008 119.07,-64.512 194.731,-64.512zM346.029,945.429v-1.195c50.974,-3.98 95.97,-20.309 134.997,-48.981c39.027,-28.672 62.519,-84.024 70.485,-166.059c0,-43.806 -10.752,-80.043 -32.256,-108.715c-25.485,-32.653 -54.558,-60.13 -87.211,-82.432c-35.042,-23.893 -66.505,-41.416 -94.379,-52.565c-29.47,-11.148 -47.787,-16.725 -54.955,-16.725c-39.822,0 -74.069,29.47 -102.741,88.405c-24.69,49.378 -37.035,99.157 -37.035,149.333c0,1.592 0.398,5.577 1.195,11.947c0,6.37 0,10.356 0,11.947c3.982,57.344 25.486,108.318 64.512,152.917c36.636,41.417 82.431,62.123 137.386,62.123zM343.638,58.988c-39.821,0 -73.672,12.743 -101.546,38.229c-29.468,27.079 -44.203,59.335 -44.203,96.768c0,36.637 26.283,71.282 78.848,103.936c53.363,32.654 95.97,48.981 127.829,48.981c27.081,-4.778 48.585,-22.3 64.512,-52.565c15.134,-29.468 22.699,-62.919 22.699,-100.352c0,-36.637 -17.122,-68.096 -51.371,-94.379c-34.249,-26.283 -66.505,-39.822 -96.768,-40.619z" /></svg>