<svg xmlns="http://www.w3.org/2000/svg" width="768" height="1024"><path d="M317.431 136.82q-14.805 7.533-27.641 19.267-37.889 34.817-37.888 82.944 0 47.105 67.584 89.088c45.74 27.989 82.26 41.984 109.568 41.984q34.818-6.144 55.296-45.056 19.457-37.888 19.456-86.016.001-47.104-44.032-80.896-25.668-19.7-49.602-28.264a120 120 0 0 0-13.451-3.966q-9.579-2.207-18.867-2.554c-.34-.013-.684-.023-1.024-.033q-.515 0-1.024.003-32.257.207-58.375 13.498zm-19.097-51.702q-49.311 13.501-89.439 45.369-68.608 55.296-68.608 132.096 2.047 67.584 21.504 101.376 17.897 30.144 36.66 47.287 1.635 1.494 3.276 2.889 7.257 6.403 14.159 11.385 9.653 6.963 18.609 11.143 6.144 3.071 6.144 7.168-.001 3.073-5.12 8.192a522 522 0 0 0-12.74 9.746l-1.386 1.097a543 543 0 0 0-20.102 16.794l-1.09.955q-35.963 31.687-69.129 71.76-48.128 59.392-48.128 131.072 0 117.761 86.016 185.344 73.07 57.412 172.006 66.055 17.527 1.53 35.866 1.529c.684 0 1.364 0 2.048-.007q2.123-.01 4.235-.048a373 373 0 0 0 10.474-.329q110.659-5.125 198.283-78.464c62.124-51.884 93.184-112.98 93.184-183.296q.001-80.898-44.032-147.456c-24.324-37.04-54.689-66.688-91.099-88.956q-1.465-.894-2.948-1.777a297 297 0 0 0-23.713-12.69 133 133 0 0 1-5.628-2.553q-8.892-4.3-12.804-8.119-3.072-3.005-3.072-5.712 0-4.097 3.072-4.096 14.334-10.241 21.504-16.384a509 509 0 0 0 15.55-14.237c.154-.15.311-.296.464-.446q23.802-22.794 42.353-46.757 24.576-32.768 24.576-73.728-.001-69.632-66.56-123.904-50.779-41.404-120.035-51.222-21.389-3.032-44.533-3.05h-.296l-2.048 2.048q-41.219 0-77.473 9.927zm80.545 798.009v-1.024c2.673-.208 5.332-.457 7.969-.746q60.638-6.63 107.743-41.238c33.452-24.576 53.588-72.02 60.416-142.336q0-56.321-27.648-93.184-32.768-41.982-74.752-70.656c-30.036-20.48-57.004-35.5-80.896-45.056q-37.889-14.335-47.104-14.336-51.199.001-88.064 75.776-31.744 63.487-31.744 128 0 2.048 1.024 10.24v10.24q5.12 73.729 55.296 131.072c18.454 20.86 39.614 35.588 63.488 44.193a149 149 0 0 0 23.461 6.32q5.743 1.064 11.666 1.712a175 175 0 0 0 19.145 1.024zm-8.858-55.164c-27.037-1.916-48.706-12.877-67.716-34.319-25.344-29.008-38.769-60.837-41.626-96.863v-8.214c0-2.275-.143-4.546-.424-6.802a232 232 0 0 1-.592-5.087c.263-33.137 8.492-66.915 25.944-101.819l.263-.534c17.514-35.994 30.808-43.143 36.228-44.566.808.227 1.777.508 2.922.856 6.107 1.858 14.91 4.908 26.774 9.388 18.929 7.625 42.138 20.33 69.877 39.241 22.949 15.671 43.644 35.112 62.084 58.65 9.399 12.709 15.982 30.647 16.377 57.333-6.55 63.21-23.823 90.255-38.02 100.685-24.741 18.176-53.416 28.837-87.504 31.503a55 55 0 0 0-4.586.549zm-214.017-381.4c-15.473-15.316-29.128-33.96-41.383-54.597l-.371-.636c-19.675-34.172-27.331-78.74-28.795-127.085a54 54 0 0 1-.025-1.661c0-70.364 32.523-129.257 89.04-174.807l.309-.249C228.4 44.946 291.67 23.052 362.184 20.573a54.9 54.9 0 0 1 15.671-2.286c76.24 0 143.971 21.312 199.53 66.614 53.877 43.931 86.751 99.709 86.751 166.419 0 39.176-12.043 75.301-35.547 106.642l-.508.668c-10.935 14.125-22.945 27.829-35.979 41.126 37.409 25.381 69.061 57.776 94.72 96.823 35.35 53.464 53.091 113.145 53.091 177.653 0 89.125-40.371 164.838-112.856 225.382-72.492 60.665-156.573 91.619-250.225 91.619-92.047 0-173.651-25.79-241.764-79.305C63.364 855.59 28.087 777.305 28.087 683.448c0-61.232 20.929-116.944 60.365-165.61l.359-.435c21.388-25.845 43.777-49.488 67.195-70.839zm170.852-250.036c13.019-11.881 28.354-18.188 49.163-18.348 10.408.451 26.895 5.468 50.359 23.474 18.542 14.23 22.572 26.183 22.572 37.377 0 24.39-4.849 44.208-13.268 60.706-5.061 9.545-9.315 13.399-12.347 15.048-13.283-1.926-37.402-10.337-75.056-33.36-40.101-24.948-41.52-40.263-41.52-42.395 0-15.561 5.307-28.891 20.096-42.504z"/></svg>