<svg xmlns="http://www.w3.org/2000/svg" viewBox="0 0 528 256" width="528" height="256"><path d="M88.135,9.973l25.736,18.085c8.807,0.677 17.461,1.221 25.968,1.638h43.732c38.59,0 76.837,-0.34 114.732,-1.017c39.179,-0.684 78.373,-1.031 117.548,-1.031l0.091,-0.055c10.277,-6.327 20.904,-12.226 31.865,-17.704c17.006,-8.503 37.2,-7.596 53.372,2.399c16.172,9.995 26.017,27.652 26.017,46.665v141.312c0,18.75 -9.574,36.198 -25.388,46.27c-15.817,10.072 -35.679,11.37 -52.667,3.441c-12.054,-5.625 -23.969,-11.988 -35.745,-19.057c-0.486,-0.289 -0.965,-0.589 -1.441,-0.892c-0.461,-0.296 -0.731,-0.373 -0.731,-0.373c0,0 -0.446,-0.132 -1.349,-0.132h-46.08c-0.651,0 -1.306,-0.011 -1.957,-0.037c-18.326,-0.651 -39.161,-0.987 -62.555,-0.987c-23.362,0 -47.784,0.333 -73.271,1.006c-24.232,0.655 -47.353,1.96 -69.365,3.902c-0.497,0.044 -0.998,0.08 -1.503,0.113c-20.718,1.254 -37.934,3.397 -51.951,6.203c-0.694,0.139 -1.392,0.263 -2.091,0.377c-6.811,1.09 -11.303,2.187 -13.979,3.028c-0.471,0.146 -0.84,0.274 -1.115,0.373c-15.985,10.156 -36.154,11.374 -53.306,3.072c-17.892,-8.656 -29.702,-26.313 -30.869,-46.157c-0.746,-12.676 -1.119,-25.355 -1.119,-38.038v-71.68c0,-1.013 0.028,-2.03 0.084,-3.043l0.94,-32.797c0,-20.473 11.4,-39.241 29.568,-48.68c18.168,-9.439 40.079,-7.973 56.829,3.796zM138.515,84.553c-14.336,-0.684 -29.013,-1.708 -44.032,-3.072l-37.888,-26.624c0,11.604 -0.341,23.552 -1.024,35.84v71.68c0,11.604 0.341,23.212 1.024,34.816c6.827,-4.78 18.773,-8.532 35.84,-11.264c5.81,-1.163 11.938,-2.205 18.382,-3.131c12.482,-1.792 26.151,-3.138 41.01,-4.037c23.212,-2.048 47.444,-3.412 72.704,-4.096c25.94,-0.684 50.86,-1.024 74.752,-1.024c23.892,0 45.396,0.34 64.512,1.024h46.08c2.586,0 5.124,0.154 7.607,0.457c8.664,1.064 16.709,3.983 24.137,8.759c10.24,6.144 20.48,11.604 30.72,16.384v-141.312c-9.556,4.78 -18.772,9.9 -27.648,15.36c-7.823,5.215 -16.892,7.943 -27.209,8.177c-0.486,0.011 -0.973,0.015 -1.463,0.015c-38.912,0 -77.824,0.34 -116.736,1.024c-38.228,0.684 -76.8,1.024 -115.712,1.024z" /></svg>