<svg xmlns="http://www.w3.org/2000/svg" viewBox="0 0 820 960" width="820" height="960"><path d="M451.215,959.576c-47.753,-4.689 -63.417,-7.265 -95.382,-15.682c-119.32,-31.421 -222.824,-109.135 -287.159,-215.609c-37.21,-61.583 -59.824,-131.139 -66.963,-205.972c-2.574,-26.982 -0.947,-85.004 3.123,-111.337c8.505,-55.027 20.877,-94.527 44.836,-143.147c50.236,-101.944 132.345,-180.772 236.13,-226.694c54.866,-24.277 109.966,-37.298 171.853,-40.611c17.547,-0.939 21.525,-0.712 25.749,1.473c6.952,3.594 9.961,8.537 9.961,16.36c0,6.196 -1.123,7.957 -15.251,23.902c-48.448,54.682 -80.453,111.4 -99.913,177.06c-23.975,80.899 -23.432,173.332 1.496,254.453c38.44,125.092 131.559,229.67 250.452,281.273c50.626,21.973 99.22,33.424 155.684,36.686l23.028,1.33l5.28,5.761c5.575,6.083 6.797,12.744 3.787,20.658c-1.928,5.072 -27.758,28.117 -50.671,45.206c-67.309,50.203 -143.333,80.767 -228.564,91.891c-18.292,2.388 -74.192,4.304 -87.479,2.999zM544.757,923.331c56.057,-9.142 106.905,-26.463 152.773,-52.041c27.266,-15.204 67.812,-43.664 67.812,-47.598c0,-0.862 -2.51,-1.567 -5.577,-1.567c-13.145,0 -56.87,-8.052 -81.347,-14.98c-82.987,-23.489 -152.788,-65.145 -213.793,-127.586c-59.783,-61.192 -100.6,-133.351 -121.336,-214.505c-37.188,-145.547 -5.191,-299.117 86.742,-416.319l10.916,-13.917l-5.205,0.009c-2.863,0.005 -12.228,1.068 -20.812,2.362c-132.891,20.031 -249.054,97.763 -318.843,213.36c-31.978,52.968 -53.297,115.348 -61.076,178.718c-2.64,21.501 -2.642,80.268 -0.003,101.794c12.952,105.684 59.859,200.294 134.845,271.979c70.419,67.32 156.736,108.547 254.54,121.578c23.484,3.128 98.183,2.331 120.363,-1.286z" /></svg>