<svg xmlns:xlink="http://www.w3.org/1999/xlink" class="img-fluid" id="outputsvg" xmlns="http://www.w3.org/2000/svg" style="transform: none; transform-origin: 50% 50%; cursor: move;" width="140" height="90" viewBox="0 0 1400 900"><g id="l67Y2YxB8pkieGO5aR8Chi4" fill="#424242" style="transform: none;"><g fill="#424242"><path id="p1ANv6JcUU" d="M1060 749 c0 -5 8 -9 18 -7 9 1 18 -1 19 -6 1 -5 7 -13 15 -18 9 -6 5 -7 -10 -3 -79 22 -160 -4 -226 -74 -32 -34 -16 -44 18 -12 41 38 127 77 111 51 -4 -6 7 -10 25 -10 17 0 40 -4 50 -10 21 -11 60 -82 60 -110 0 -77 -99 -135 -189 -110 -35 9 -41 15 -42 38 l-1 27 -7 -25 c-4 -14 -13 -24 -18 -23 -20 4 -1 -37 29 -62 28 -23 36 -25 92 -20 33 4 75 11 92 16 40 12 90 57 103 93 16 42 14 116 -4 122 -8 3 -21 19 -29 35 -14 27 -13 28 5 18 11 -5 17 -14 14 -19 -3 -5 0 -12 6 -15 21 -13 21 4 0 33 -12 17 -21 34 -21 40 0 12 -75 62 -95 62 -8 0 -15 -5 -15 -11z" fill="#424242"></path><path id="p6sIJ0GA7" d="M447 734 c-5 -4 -208 -17 -264 -17 -66 0 -89 -16 -28 -18 47 -2 52 -3 61 -11 4 -5 -1 -9 -12 -10 -10 0 13 -4 51 -7 39 -4 106 -3 150 2 80 8 241 4 251 -6 11 -11 -17 -47 -36 -47 -11 0 -20 -5 -20 -11 0 -6 -5 -7 -12 -2 -17 10 -228 11 -235 0 -2 -4 -13 -5 -24 -2 -13 5 -17 2 -14 -7 4 -9 -9 -17 -39 -26 -29 -7 -47 -18 -51 -32 -6 -20 -25 -28 -25 -11 0 15 34 52 50 54 24 4 58 26 40 27 -17 0 -81 -37 -91 -52 -4 -6 -7 -32 -8 -59 -1 -45 3 -53 54 -109 29 -34 56 -60 58 -58 3 2 14 -6 26 -16 12 -11 21 -15 21 -10 0 16 -23 34 -42 34 -11 0 -18 7 -18 18 0 10 -6 24 -12 32 -7 8 1 3 17 -11 35 -29 121 -72 182 -90 51 -14 158 -6 228 18 53 17 115 53 115 66 0 12 -21 8 -48 -11 -15 -11 -50 -26 -79 -35 -60 -20 -198 -23 -209 -5 -4 7 -3 8 4 4 7 -4 12 -3 12 2 0 9 -62 27 -87 25 -7 0 -11 3 -8 7 3 5 -10 18 -29 29 -19 12 -51 42 -72 67 -36 44 -37 47 -19 60 10 8 28 14 39 14 12 1 32 7 46 15 28 16 54 20 30 5 -22 -14 163 -12 225 2 49 12 85 32 85 50 0 5 7 16 16 25 22 22 13 63 -19 87 -25 18 -42 21 -143 21 -64 0 -116 0 -117 -1z m-196 -297 c12 -22 12 -22 -10 -3 -11 11 -21 23 -21 28 0 14 19 -1 31 -25z m124 -71 c6 -4 1 -4 -10 2 -11 6 -29 21 -40 34 -19 22 -19 22 10 -2 17 -14 35 -29 40 -34z" fill="#424242"></path></g></g></svg>