<svg xmlns:xlink="http://www.w3.org/1999/xlink" class="img-fluid" id="outputsvg" xmlns="http://www.w3.org/2000/svg" style="transform: matrix(0.85683, 0, 0, 0.85683, 0, 0); transform-origin: 50% 50%; cursor: move;" width="2800" height="2664" viewBox="0 0 28000 26640"><g id="l58o0h0oX4s1PEHzTroMJO7" fill="rgb(0,0,0)" style="transform: none;"><g><path id="p17NCj1qud" d="M13585 26415 c-33 -7 -78 -20 -100 -29 -48 -18 -156 -21 -173 -4 -10 10 -19 5 -42 -20 -23 -26 -37 -32 -69 -32 -28 0 -48 -7 -61 -20 -11 -11 -30 -20 -43 -20 -12 0 -30 -9 -40 -20 -9 -11 -28 -20 -41 -20 -14 0 -25 -7 -28 -18 -3 -11 -26 -26 -54 -36 -90 -34 -126 -61 -143 -107 -13 -34 -23 -45 -51 -54 -37 -12 -78 -70 -79 -112 -1 -12 -14 -31 -31 -43 -19 -13 -34 -36 -41 -63 -7 -23 -20 -49 -30 -59 -11 -9 -19 -28 -19 -43 0 -15 -11 -36 -25 -49 -18 -17 -25 -34 -25 -60 0 -25 -6 -40 -20 -48 -14 -9 -20 -24 -20 -49 0 -23 -7 -42 -20 -54 -15 -13 -20 -31 -20 -65 0 -34 -5 -52 -20 -65 -15 -14 -20 -31 -20 -72 0 -44 -4 -58 -24 -76 -20 -19 -23 -29 -18 -79 4 -54 3 -59 -26 -85 -23 -21 -29 -32 -22 -43 19 -30 11 -78 -20 -114 -26 -29 -29 -38 -20 -61 14 -38 13 -49 -12 -81 -17 -20 -23 -42 -23 -76 0 -37 -5 -52 -27 -75 -23 -24 -26 -34 -21 -69 5 -37 2 -44 -20 -59 -24 -15 -26 -22 -21 -59 5 -36 3 -46 -17 -65 -12 -11 -27 -21 -31 -21 -5 0 -4 -9 2 -19 19 -36 12 -68 -20 -91 -24 -17 -28 -25 -20 -40 16 -31 11 -57 -14 -78 -23 -17 -24 -24 -19 -74 5 -51 3 -57 -28 -92 -32 -37 -32 -39 -21 -82 17 -62 16 -70 -18 -138 -39 -81 -49 -176 -26 -250 16 -49 17 -139 14 -1087 l-3 -1034 -22 -51 c-12 -28 -27 -77 -33 -111 -10 -50 -9 -67 4 -107 19 -55 13 -120 -14 -151 -36 -41 -41 -61 -24 -94 20 -40 11 -86 -23 -117 -22 -20 -24 -27 -15 -52 14 -40 5 -76 -28 -107 -24 -23 -27 -31 -19 -52 13 -35 11 -51 -9 -71 -11 -11 -22 -39 -25 -63 -3 -24 -13 -48 -21 -55 -9 -6 -16 -25 -16 -43 0 -18 -8 -39 -20 -51 -11 -11 -20 -31 -20 -45 0 -14 -11 -34 -25 -47 -16 -13 -25 -32 -25 -50 0 -15 -9 -37 -20 -48 -11 -11 -20 -28 -20 -38 0 -10 -11 -33 -25 -52 -14 -19 -25 -43 -25 -55 0 -11 -9 -26 -20 -33 -13 -8 -20 -23 -20 -42 0 -19 -7 -33 -20 -40 -13 -7 -20 -21 -20 -40 0 -19 -7 -34 -20 -42 -12 -8 -20 -24 -20 -40 0 -17 -8 -33 -20 -40 -11 -7 -20 -23 -20 -36 0 -13 -11 -33 -24 -45 -13 -13 -32 -46 -41 -75 -10 -29 -25 -57 -35 -62 -10 -5 -20 -22 -23 -38 -3 -16 -24 -47 -46 -69 -23 -22 -41 -47 -41 -56 0 -8 -7 -20 -15 -27 -8 -7 -15 -18 -15 -24 0 -15 -59 -69 -92 -83 -15 -7 -34 -25 -42 -41 -8 -16 -61 -71 -118 -122 -57 -51 -108 -104 -114 -119 -13 -29 -62 -70 -123 -102 -23 -11 -41 -25 -41 -29 0 -16 -32 -40 -53 -40 -27 -1 -77 -43 -77 -66 0 -9 -14 -29 -30 -44 -26 -24 -29 -32 -21 -53 13 -33 4 -63 -24 -81 -20 -13 -22 -21 -18 -60 4 -36 2 -47 -11 -52 -10 -4 -16 -18 -16 -39 0 -19 -8 -39 -19 -49 -10 -10 -22 -32 -25 -51 -4 -18 -13 -36 -21 -39 -8 -3 -15 -14 -15 -25 0 -11 -11 -33 -25 -49 -14 -17 -25 -39 -25 -51 0 -12 -11 -26 -28 -35 -27 -14 -45 -39 -57 -84 -7 -23 -299 -320 -349 -355 -17 -12 -26 -27 -26 -44 0 -17 -11 -36 -31 -52 -20 -17 -33 -41 -40 -70 -6 -25 -19 -51 -29 -58 -12 -9 -20 -26 -20 -43 0 -18 -7 -33 -18 -39 -12 -6 -19 -22 -20 -43 0 -22 -8 -38 -25 -50 -21 -16 -24 -24 -20 -57 5 -34 2 -41 -21 -56 -24 -16 -26 -22 -21 -59 6 -35 3 -44 -18 -64 -21 -19 -23 -29 -19 -76 4 -50 2 -56 -28 -87 -28 -30 -31 -38 -24 -69 13 -62 9 -99 -14 -122 -31 -34 -46 -79 -30 -89 22 -14 16 -123 -8 -156 -12 -15 -26 -45 -33 -66 -11 -32 -10 -44 4 -79 22 -56 13 -155 -22 -225 -31 -64 -42 -195 -23 -270 18 -71 14 -355 -6 -402 -23 -54 -33 -239 -34 -611 0 -360 11 -573 35 -639 18 -53 24 -465 6 -498 -26 -50 -6 -433 29 -548 26 -85 34 -315 13 -368 -24 -59 -13 -191 20 -248 35 -59 45 -145 24 -189 -18 -35 -12 -64 22 -94 27 -24 37 -78 21 -116 -11 -27 -10 -32 19 -65 22 -25 31 -46 31 -71 0 -19 9 -47 19 -62 11 -15 22 -44 26 -65 3 -21 15 -46 27 -57 25 -23 26 -23 92 -92 30 -32 59 -58 64 -58 5 0 20 -8 33 -18 20 -15 40 -17 129 -14 l105 4 28 43 c36 57 39 138 5 156 -30 15 -38 28 -38 59 0 28 -43 80 -66 80 -15 0 -73 37 -86 55 -4 6 -8 20 -8 32 0 12 -8 24 -19 28 -26 8 -33 44 -16 77 12 26 11 37 -16 121 -35 105 -35 155 -1 275 32 113 37 183 17 223 -23 44 -14 198 15 246 51 87 51 493 0 578 -25 42 -33 87 -20 120 10 26 8 31 -22 59 -18 17 -46 35 -63 41 -22 7 -31 17 -33 36 -2 15 -12 35 -23 45 -26 23 -24 51 8 97 22 32 25 42 15 58 -15 23 -15 54 -1 80 8 16 7 29 -6 55 -14 31 -20 34 -58 34 -34 0 -49 7 -79 35 -22 19 -38 43 -38 56 0 12 -7 27 -16 34 -24 17 -30 99 -10 129 22 34 22 156 0 198 -21 41 -13 146 15 191 10 18 24 58 31 90 10 50 9 63 -5 93 -21 45 -13 105 21 155 30 44 41 103 24 124 -23 27 -14 92 19 142 34 50 36 59 21 68 -5 3 -10 35 -10 70 0 54 4 68 26 94 27 32 27 36 18 136 -5 55 -3 64 25 105 31 45 39 84 21 95 -5 3 -10 28 -10 55 0 38 6 55 27 81 23 27 27 41 25 78 -9 130 -8 136 21 171 21 24 27 39 21 54 -4 12 -8 43 -8 70 -1 41 3 51 28 71 25 20 27 25 16 45 -14 27 -6 77 17 102 9 11 18 37 18 58 1 26 9 48 22 62 14 15 21 35 21 57 -1 26 5 40 26 56 22 17 25 26 20 52 -5 24 -1 36 15 52 12 12 21 32 21 46 0 15 9 31 25 41 17 11 25 25 25 44 0 19 8 33 25 44 14 9 25 25 25 36 0 10 5 22 10 25 6 3 10 15 10 25 0 12 16 30 40 45 28 18 42 35 49 62 12 44 138 173 169 173 11 0 26 7 33 17 8 9 29 22 47 30 17 7 32 18 32 23 0 22 50 30 87 15 45 -19 76 -19 133 1 26 9 58 13 77 9 25 -4 37 -1 53 15 11 11 30 20 43 20 27 0 61 33 72 69 11 38 46 91 66 101 10 6 16 17 13 24 -8 20 12 53 36 61 11 3 20 12 20 20 0 28 40 105 55 105 9 0 15 9 15 26 0 17 15 41 45 71 25 24 45 53 45 63 0 9 7 23 15 30 8 7 15 19 15 26 0 8 11 20 25 26 15 7 34 30 45 55 26 59 68 112 95 119 12 3 28 18 35 32 36 80 48 99 80 133 19 20 45 40 58 44 13 4 32 26 46 53 36 71 114 163 255 304 106 104 135 128 167 134 65 12 121 -41 79 -76 -9 -7 -15 -28 -15 -51 0 -30 -6 -42 -24 -54 -20 -14 -23 -22 -19 -55 5 -32 1 -42 -21 -61 -20 -17 -25 -31 -24 -61 1 -30 -5 -45 -27 -68 -28 -29 -28 -30 -15 -84 7 -30 10 -64 7 -76 -4 -16 3 -31 28 -56 19 -19 40 -34 46 -34 7 0 20 -7 30 -16 16 -15 20 -15 41 0 12 9 32 16 43 16 26 0 54 37 85 112 13 33 32 60 42 64 10 3 18 15 18 28 0 12 11 33 25 46 14 13 25 33 25 45 0 11 9 28 20 38 11 9 20 28 20 41 0 13 7 29 15 36 8 7 15 23 15 36 0 13 9 33 20 44 11 11 20 33 20 50 0 19 7 34 20 42 13 9 20 24 20 45 0 20 9 42 24 58 14 15 22 33 19 41 -9 25 6 60 31 72 21 9 23 15 19 55 -5 39 -2 47 16 56 17 10 21 21 21 61 0 41 4 52 24 66 22 14 24 21 19 63 -5 43 -3 49 21 64 23 15 25 22 20 61 -6 40 -4 45 26 66 22 16 28 26 21 33 -20 20 -13 82 12 105 21 19 23 29 19 76 -4 49 -2 56 21 71 24 15 25 20 20 71 -6 52 -4 57 25 87 23 24 29 36 22 47 -18 27 -11 86 13 116 18 24 22 41 22 100 0 61 4 76 22 96 36 38 44 72 27 108 -19 38 -12 87 17 124 33 41 40 81 23 122 -20 47 -10 128 23 201 31 68 39 150 21 228 -11 46 -13 99 -7 235 4 96 12 198 17 225 6 33 6 59 -1 75 -5 14 -13 84 -18 155 -6 108 -5 135 8 163 20 42 12 94 -21 132 -30 36 -44 110 -27 147 10 22 8 29 -20 61 -28 32 -31 40 -26 83 5 41 3 50 -19 70 -22 21 -25 30 -19 65 5 37 3 43 -21 59 -23 15 -26 22 -21 55 4 32 1 42 -19 59 -16 13 -24 32 -24 51 0 17 -10 44 -21 60 -18 24 -20 33 -11 58 9 27 7 32 -20 52 -28 20 -29 25 -23 69 6 41 4 49 -19 69 -20 17 -26 31 -26 65 0 24 5 48 11 54 7 7 6 35 -6 95 -16 80 -16 90 -1 158 16 67 16 76 1 107 -20 42 -12 88 21 124 21 21 23 30 15 52 -14 35 3 91 34 111 21 14 23 20 15 36 -17 32 -11 67 15 88 22 17 24 25 19 63 -5 38 -3 47 19 67 21 20 24 30 20 62 -5 32 -1 42 21 61 23 20 26 29 21 57 -5 28 -2 37 23 58 26 23 29 31 24 70 -3 34 -1 45 12 50 10 4 16 18 16 35 0 17 11 41 29 61 21 24 28 41 24 59 -3 17 2 31 16 43 12 11 21 31 21 46 0 15 9 35 20 45 11 10 20 29 20 42 0 13 9 31 20 40 11 10 20 27 20 40 0 22 24 53 41 53 5 0 9 12 9 28 0 17 13 41 35 65 19 21 35 46 35 56 0 47 99 131 154 131 45 0 56 -16 56 -79 0 -45 -4 -60 -26 -82 -26 -27 -28 -37 -18 -106 5 -33 2 -45 -14 -61 -31 -31 -42 -56 -31 -73 17 -28 9 -67 -21 -101 -22 -23 -29 -39 -24 -53 18 -58 16 -80 -15 -119 -25 -32 -29 -42 -20 -59 18 -32 5 -108 -25 -152 -22 -32 -26 -46 -20 -70 4 -16 7 -58 7 -92 1 -49 -4 -69 -21 -92 -42 -57 -50 -146 -23 -246 16 -61 14 -209 -4 -253 -19 -45 -13 -76 26 -119 16 -19 29 -38 29 -43 0 -6 14 -10 31 -10 25 0 32 6 44 34 8 19 22 39 30 43 16 9 55 79 55 98 0 6 11 26 25 45 16 22 23 41 19 56 -4 16 1 28 15 41 13 11 21 29 21 49 0 17 10 44 22 59 15 19 21 39 19 61 -2 25 4 40 23 59 19 19 26 36 26 65 0 29 5 42 20 50 14 7 20 21 20 44 0 22 8 40 25 56 14 13 25 32 25 41 0 27 40 98 61 110 11 5 19 18 19 27 0 10 15 32 33 50 29 28 40 32 87 32 38 0 66 -7 89 -21 31 -19 33 -23 28 -62 -11 -98 -16 -306 -7 -312 6 -3 10 -27 10 -53 0 -36 -6 -52 -26 -73 -15 -16 -25 -37 -24 -51 8 -98 3 -168 -13 -186 -27 -30 -22 -82 12 -119 28 -31 32 -32 82 -26 72 9 124 44 154 108 13 29 31 58 40 65 8 7 15 23 15 37 0 13 11 35 25 49 18 18 25 36 25 64 0 29 6 43 25 57 22 16 24 22 16 49 -13 44 -3 84 31 123 26 29 29 39 24 75 -18 118 -18 123 4 172 19 41 23 73 28 187 4 134 4 140 -19 170 -18 24 -24 48 -27 100 -3 40 0 73 7 81 8 10 4 19 -19 39 -24 22 -30 35 -30 70 0 30 -6 48 -20 60 -14 12 -20 29 -20 60 0 30 -6 49 -19 61 -27 24 -34 73 -16 109 8 17 15 42 15 57 0 28 15 40 51 40 25 0 87 -66 94 -102 4 -15 24 -46 46 -68 22 -23 38 -47 36 -55 -3 -7 5 -22 19 -34 13 -11 24 -32 24 -46 0 -14 8 -29 20 -35 13 -7 20 -21 20 -40 0 -19 7 -33 20 -40 14 -8 20 -21 20 -45 0 -24 6 -37 20 -45 14 -7 20 -21 20 -43 0 -20 8 -39 20 -50 14 -11 20 -29 20 -55 0 -27 7 -45 21 -58 17 -15 20 -27 16 -61 -4 -35 0 -46 19 -64 28 -26 39 -74 26 -109 -8 -21 -5 -31 20 -59 27 -31 30 -39 23 -80 -11 -75 -9 -89 20 -123 24 -28 26 -37 20 -77 -4 -25 -8 -87 -8 -136 0 -81 3 -96 27 -138 16 -27 26 -57 25 -74 -4 -32 29 -103 46 -103 6 0 21 -10 33 -22 46 -49 63 -62 82 -63 18 -2 63 -34 82 -60 4 -5 8 -19 8 -30 0 -11 9 -28 20 -38 21 -18 27 -71 10 -82 -14 -9 -4 -41 26 -86 l25 -36 -6 -249 c-12 -550 -13 -522 18 -588 30 -66 40 -174 17 -201 -18 -21 -6 -83 21 -111 28 -30 41 -106 26 -159 -13 -50 -11 -61 18 -105 32 -47 42 -122 22 -154 -15 -22 -14 -25 12 -57 35 -42 45 -86 32 -136 -10 -34 -8 -40 16 -65 28 -29 36 -80 20 -124 -5 -16 1 -31 24 -60 30 -38 33 -62 15 -105 -4 -10 4 -29 24 -54 30 -38 38 -77 21 -104 -7 -11 -1 -25 21 -50 27 -31 30 -39 25 -85 -4 -44 -2 -52 20 -70 22 -17 25 -25 19 -63 -5 -38 -3 -45 20 -60 24 -15 26 -21 21 -64 -5 -43 -3 -49 20 -64 23 -15 25 -22 19 -61 -5 -39 -3 -46 20 -61 23 -15 26 -22 21 -60 -4 -37 -1 -45 17 -55 29 -15 36 -28 36 -64 0 -17 7 -37 15 -44 9 -7 15 -29 15 -52 0 -31 6 -45 25 -60 17 -13 25 -29 25 -49 0 -17 7 -37 15 -45 8 -9 15 -28 15 -43 0 -16 10 -37 24 -51 14 -12 28 -36 31 -52 4 -17 16 -39 26 -49 10 -10 19 -29 19 -42 0 -12 9 -30 20 -40 11 -9 20 -27 20 -40 0 -12 9 -30 20 -40 11 -9 20 -27 20 -40 0 -12 9 -30 20 -40 11 -9 20 -29 20 -44 0 -17 8 -33 20 -41 13 -8 20 -23 20 -45 0 -21 7 -36 20 -45 13 -8 20 -23 20 -43 0 -17 7 -37 15 -45 8 -9 15 -33 15 -55 0 -33 4 -41 25 -49 21 -8 25 -16 25 -50 0 -27 7 -47 20 -60 13 -13 20 -33 20 -60 0 -29 5 -42 20 -50 16 -8 20 -21 20 -59 0 -35 5 -53 20 -66 15 -13 20 -31 20 -68 0 -38 6 -56 26 -80 25 -30 28 -56 10 -98 -4 -10 5 -30 24 -55 27 -33 31 -44 25 -74 -15 -78 -11 -115 18 -149 23 -28 27 -42 27 -92 0 -33 -5 -69 -11 -80 -14 -26 -3 -70 28 -115 21 -31 24 -47 21 -95 -3 -51 0 -61 20 -74 15 -11 22 -26 22 -48 0 -21 7 -36 19 -44 11 -7 22 -25 25 -40 7 -31 47 -59 110 -79 21 -7 47 -22 58 -33 15 -17 23 -19 38 -11 29 16 59 12 77 -10 10 -11 27 -20 38 -20 26 0 39 -10 54 -37 6 -13 20 -23 30 -23 10 0 24 -7 31 -15 7 -8 18 -15 24 -15 6 0 18 -8 27 -17 8 -10 31 -32 50 -48 54 -47 125 -140 150 -196 17 -37 32 -54 56 -64 22 -9 34 -22 38 -42 11 -46 27 -73 54 -86 19 -9 27 -21 29 -45 2 -17 7 -32 13 -32 13 0 59 -76 59 -99 0 -10 11 -26 25 -35 17 -11 25 -26 25 -46 0 -20 6 -31 20 -35 18 -6 25 -21 21 -52 -1 -6 10 -23 24 -37 18 -18 24 -33 20 -46 -4 -13 0 -23 14 -32 14 -8 21 -23 21 -44 0 -19 9 -41 25 -58 17 -18 25 -39 25 -61 0 -25 6 -37 21 -46 18 -9 21 -17 16 -50 -4 -33 -1 -41 21 -58 21 -15 26 -26 25 -57 -1 -27 5 -46 19 -61 19 -20 28 -79 14 -101 -3 -5 6 -20 19 -32 21 -20 25 -33 25 -85 0 -49 4 -66 20 -80 26 -24 36 -80 21 -122 -12 -31 -10 -37 19 -81 29 -44 31 -51 25 -112 -11 -127 -10 -138 15 -172 26 -36 41 -130 21 -142 -18 -12 -13 -31 19 -71 25 -31 30 -47 30 -90 0 -39 5 -56 20 -70 13 -12 20 -31 20 -54 0 -25 6 -40 20 -49 13 -8 20 -23 20 -42 0 -19 5 -30 14 -30 7 0 21 -11 30 -25 12 -19 25 -25 51 -25 33 0 35 2 35 34 0 25 6 38 24 50 23 14 24 20 19 71 -5 49 -3 59 23 97 l29 41 3 256 c4 268 -4 350 -38 406 -28 47 -35 126 -15 169 19 40 15 64 -23 119 -27 40 -31 74 -17 140 7 33 4 41 -18 65 -32 33 -43 80 -29 121 10 27 8 32 -16 50 -24 17 -27 26 -27 83 -1 53 -5 68 -24 87 -19 19 -22 30 -18 64 5 33 1 46 -19 70 -15 18 -24 41 -24 63 0 20 -9 47 -21 64 -12 16 -22 44 -23 62 -1 18 -9 45 -19 59 -12 18 -16 36 -11 53 5 21 0 32 -26 56 -22 20 -31 36 -27 50 3 11 -3 26 -14 36 -11 10 -19 30 -19 49 0 21 -9 40 -25 55 -15 14 -25 35 -25 50 0 15 -9 35 -20 45 -11 10 -20 26 -20 35 0 31 -29 89 -50 100 -12 6 -20 21 -20 36 0 16 -8 28 -22 35 -13 6 -31 29 -42 52 -60 136 -79 156 -170 184 -49 15 -61 23 -72 49 -8 20 -23 34 -39 38 -28 7 -47 43 -38 74 3 12 -4 33 -18 51 -19 26 -23 44 -24 106 0 73 -1 75 -27 81 -15 3 -30 10 -33 15 -4 5 -15 9 -25 9 -11 0 -27 11 -36 25 -10 15 -26 25 -40 25 -14 0 -27 6 -30 14 -3 8 -14 16 -25 19 -11 3 -26 21 -34 41 -18 42 -77 101 -121 121 -33 15 -90 88 -80 103 3 6 -5 17 -19 26 -17 11 -25 26 -25 46 0 20 -7 33 -21 41 -18 9 -21 18 -16 54 4 37 1 47 -21 65 -22 19 -24 27 -18 68 5 39 3 49 -18 71 -30 33 -37 64 -24 101 9 26 7 32 -18 53 -23 20 -28 34 -30 71 -1 28 -9 55 -19 66 -10 11 -20 41 -23 67 -3 26 -14 60 -25 75 -15 20 -18 37 -14 66 4 34 1 44 -19 61 -17 15 -24 31 -24 56 0 22 -8 43 -20 55 -13 13 -20 33 -20 58 0 27 -6 41 -21 50 -18 12 -21 20 -16 54 5 35 2 44 -19 60 -16 13 -24 29 -24 52 0 20 -8 38 -21 50 -17 14 -20 25 -16 52 5 28 2 36 -16 45 -28 15 -37 28 -37 57 0 12 -9 31 -20 42 -11 11 -20 30 -20 43 0 12 -9 30 -20 40 -12 10 -20 29 -20 47 0 18 -6 33 -15 36 -9 4 -15 19 -15 39 0 22 -7 37 -21 46 -13 9 -22 29 -26 59 -4 28 -13 50 -26 59 -16 11 -18 22 -14 57 4 38 1 45 -21 60 -22 15 -24 20 -18 68 5 47 3 55 -19 76 -19 18 -25 34 -25 65 0 22 5 46 10 51 16 16 -4 91 -30 119 -31 33 -40 150 -15 204 14 32 16 54 11 113 -4 40 -11 649 -15 1353 -7 1164 -9 1285 -24 1339 -17 57 -23 218 -15 396 2 58 -1 70 -25 105 -23 32 -28 48 -24 80 2 22 7 47 11 56 5 12 -3 28 -24 52 -25 29 -30 43 -28 77 1 32 -3 44 -20 56 -16 11 -22 25 -22 52 0 25 -7 43 -20 55 -14 11 -20 29 -20 57 0 29 -5 42 -20 50 -14 7 -20 21 -20 42 0 18 -9 41 -20 54 -12 12 -22 37 -23 57 -2 22 -11 44 -25 57 -13 12 -22 33 -22 49 0 16 -7 31 -15 35 -9 3 -15 18 -15 38 0 22 -7 37 -20 46 -13 8 -20 23 -20 42 0 19 -7 33 -20 40 -12 6 -20 21 -20 37 0 15 -11 36 -26 49 -17 16 -23 31 -19 43 4 13 -2 23 -20 35 -17 11 -25 26 -25 45 0 20 -6 30 -20 34 -13 3 -21 17 -26 44 -7 43 -20 65 -49 80 -12 7 -25 30 -33 57 -8 32 -20 50 -39 60 -28 15 -83 77 -83 94 0 21 -94 113 -146 143 -31 17 -59 42 -64 54 -9 23 -18 28 -78 40 -22 5 -37 15 -44 31 -10 22 -16 24 -54 18 -35 -5 -50 -2 -80 16 -49 31 -276 50 -357 30 -76 -18 -371 -9 -412 12 -66 35 -360 49 -480 23z"></path><path id="pwvSHiC4S" d="M11748 17215 c-3 -3 -25 -7 -49 -8 -39 -2 -46 -6 -61 -36 -21 -41 -136 -160 -193 -199 -48 -33 -63 -49 -72 -82 -6 -26 -35 -70 -64 -101 -9 -9 -18 -21 -20 -26 -2 -6 -17 -16 -33 -24 -16 -8 -33 -21 -37 -29 -4 -8 -18 -37 -32 -65 -13 -27 -33 -55 -45 -60 -36 -19 -52 -37 -52 -60 0 -12 -9 -34 -20 -48 -11 -14 -20 -30 -20 -36 0 -6 -13 -17 -30 -26 -16 -9 -30 -21 -30 -27 0 -29 -36 -89 -57 -94 -27 -7 -53 -45 -53 -78 0 -17 -9 -32 -27 -43 -39 -25 -52 -44 -53 -74 0 -18 -12 -36 -40 -58 -30 -24 -40 -39 -40 -61 0 -28 -22 -60 -40 -60 -12 0 -40 -54 -40 -78 0 -10 -13 -31 -30 -45 -16 -15 -30 -35 -30 -44 0 -9 -16 -35 -35 -59 -21 -25 -35 -53 -35 -69 0 -18 -6 -29 -20 -32 -14 -4 -20 -14 -20 -34 0 -18 -8 -34 -20 -41 -12 -8 -20 -24 -20 -39 0 -14 -9 -34 -20 -44 -11 -10 -20 -31 -20 -47 0 -21 -8 -33 -29 -45 -25 -15 -28 -21 -23 -58 4 -36 1 -45 -22 -62 -23 -19 -25 -24 -15 -50 12 -33 4 -114 -16 -153 -10 -20 -11 -36 -4 -66 27 -103 31 -153 15 -186 -21 -41 -21 -40 20 -89 34 -41 36 -47 30 -93 -5 -43 -3 -51 19 -68 18 -14 25 -29 25 -53 0 -18 7 -38 15 -45 8 -7 15 -24 15 -37 0 -14 9 -36 20 -50 11 -14 20 -32 20 -39 0 -7 9 -16 21 -19 11 -4 25 -18 31 -31 6 -13 20 -24 30 -24 10 0 36 -11 58 -25 32 -20 40 -31 40 -55 0 -16 6 -33 13 -37 24 -14 26 -40 10 -98 -19 -65 -10 -118 33 -212 15 -33 22 -62 18 -77 -9 -38 35 -66 105 -66 32 0 63 -5 70 -12 10 -11 17 -8 34 14 26 31 72 51 99 42 13 -4 28 1 41 14 29 27 67 35 101 22 25 -9 34 -7 67 15 24 16 53 25 77 25 32 0 44 7 78 43 46 49 84 102 84 117 0 20 48 87 83 116 19 16 45 52 57 80 17 38 32 56 56 68 22 10 36 25 40 43 12 55 15 61 48 95 18 18 36 45 39 59 4 15 25 45 47 68 22 22 40 49 40 59 0 9 15 34 34 54 19 20 37 51 41 68 4 16 16 35 28 42 29 14 35 25 48 74 7 28 19 45 35 53 16 7 24 19 24 35 0 15 8 30 20 36 24 13 50 61 50 93 0 15 10 31 25 41 15 10 25 26 25 40 0 14 10 30 23 38 12 9 28 36 36 63 8 26 22 55 33 64 10 8 18 25 18 38 0 22 24 53 41 53 5 0 9 13 9 30 0 19 7 34 20 42 12 8 20 24 20 40 0 17 8 33 20 40 12 8 20 24 20 39 0 14 9 34 20 44 11 10 20 31 20 46 0 18 8 34 20 41 13 8 20 24 20 44 0 20 9 39 25 54 20 19 24 30 20 52 -5 23 -1 34 22 56 25 24 27 31 20 62 -10 39 -1 68 35 113 19 24 23 41 23 99 0 64 -2 72 -27 92 -16 12 -28 32 -28 44 0 13 -16 39 -35 58 -44 43 -85 108 -85 131 0 10 -9 24 -20 31 -14 9 -20 23 -20 50 0 28 -7 45 -25 62 -27 25 -32 59 -14 92 15 27 -5 122 -32 157 -11 13 -19 38 -19 56 0 18 -7 38 -15 45 -8 7 -15 21 -15 31 0 11 -10 24 -22 30 -13 6 -35 30 -50 53 -22 35 -38 46 -84 62 -40 13 -60 26 -70 46 -13 24 -17 26 -40 17 -34 -12 -58 -4 -78 27 -14 21 -20 23 -38 13 -20 -11 -158 -6 -191 7 -7 2 -16 2 -19 -1z"></path><path id="parbnHGn" d="M15048 17190 c-14 -16 -35 -30 -46 -30 -15 0 -21 -9 -26 -35 -4 -21 -17 -41 -31 -51 -21 -14 -23 -21 -18 -62 4 -42 2 -51 -27 -87 l-31 -39 3 -257 c3 -257 3 -257 28 -291 22 -28 25 -42 23 -103 0 -38 -4 -90 -8 -115 -6 -40 -3 -51 26 -93 30 -45 31 -52 26 -113 -6 -56 -4 -65 13 -74 26 -14 43 -80 30 -115 -15 -39 -13 -50 16 -84 22 -26 25 -38 22 -88 -2 -52 1 -61 26 -86 27 -28 29 -41 10 -90 -3 -10 4 -22 20 -32 22 -15 26 -25 26 -67 0 -39 6 -57 25 -80 18 -21 25 -41 25 -72 0 -30 6 -48 20 -61 14 -13 20 -31 20 -60 0 -29 6 -47 20 -60 14 -13 20 -31 20 -60 0 -29 5 -45 15 -49 10 -4 15 -20 15 -50 0 -38 4 -48 25 -62 19 -13 25 -25 25 -54 0 -27 6 -42 20 -51 12 -8 23 -30 27 -54 3 -22 13 -45 22 -51 8 -7 16 -23 16 -37 1 -13 11 -37 23 -52 12 -16 20 -36 17 -45 -3 -9 3 -25 15 -35 11 -10 20 -29 20 -43 0 -13 11 -37 25 -54 14 -17 25 -42 25 -58 0 -19 7 -33 20 -40 14 -7 20 -21 20 -43 0 -21 7 -36 20 -45 11 -7 20 -23 20 -37 0 -13 11 -35 25 -49 14 -14 25 -34 25 -44 0 -10 9 -27 20 -37 11 -10 20 -28 20 -40 0 -12 9 -30 20 -40 11 -10 20 -29 20 -42 0 -22 25 -66 58 -101 6 -7 12 -22 12 -32 0 -10 10 -24 23 -32 12 -9 28 -36 36 -63 11 -37 20 -49 42 -57 15 -5 31 -18 34 -29 6 -18 13 -19 66 -13 38 4 69 2 89 -6 27 -11 32 -10 65 19 24 21 46 31 68 31 20 0 36 7 43 18 6 9 32 23 57 30 32 10 54 25 74 50 45 60 101 111 128 118 16 4 28 16 32 33 11 42 42 107 58 121 8 7 15 26 15 42 0 21 11 41 35 65 33 33 34 35 18 59 -13 21 -14 35 -5 88 7 45 7 87 0 140 -10 66 -9 78 6 101 16 24 16 28 1 51 -8 13 -20 24 -25 24 -19 0 -31 51 -20 84 9 27 7 33 -20 61 -24 24 -30 40 -30 73 0 29 -6 48 -20 62 -12 12 -20 33 -20 53 0 22 -8 41 -21 53 -17 15 -20 26 -15 56 5 32 3 40 -19 54 -19 13 -25 25 -25 54 0 24 -7 43 -20 55 -11 10 -23 34 -26 54 -4 20 -15 44 -25 54 -11 10 -19 29 -19 44 0 14 -7 31 -17 38 -9 7 -16 25 -15 43 0 18 -7 37 -19 48 -12 10 -19 30 -19 52 0 25 -7 40 -25 54 -16 13 -25 29 -25 48 0 19 -7 33 -20 40 -13 7 -20 21 -20 40 0 19 -7 33 -20 40 -14 7 -20 21 -20 43 0 21 -7 36 -20 45 -13 8 -20 23 -20 42 0 19 -7 33 -20 40 -13 7 -20 21 -20 39 0 18 -8 34 -20 42 -12 8 -22 25 -23 39 -1 14 -12 35 -24 48 -13 12 -23 32 -23 45 0 12 -9 28 -20 35 -11 7 -20 23 -20 36 0 12 -9 31 -19 40 -10 10 -24 38 -30 62 -7 25 -23 56 -36 68 -14 13 -25 32 -25 43 0 12 -11 28 -25 37 -16 10 -25 26 -25 42 0 13 -7 27 -16 31 -8 3 -27 31 -41 62 -14 31 -36 66 -49 78 -13 12 -24 34 -24 48 0 14 -4 25 -9 25 -13 0 -60 65 -64 88 -1 10 -20 36 -40 57 -21 21 -40 50 -43 64 -10 46 -26 70 -54 80 -16 5 -31 19 -35 30 -3 12 -10 21 -15 21 -5 0 -20 25 -34 56 -29 62 -40 73 -103 103 -23 12 -58 36 -77 56 -19 19 -44 35 -54 35 -10 0 -29 11 -42 25 -31 33 -60 32 -92 -5z"></path><path id="p14HAf2NuL" d="M17787 13353 c-4 -3 -7 -19 -7 -34 0 -16 -8 -34 -20 -42 -31 -21 -41 -62 -33 -138 l6 -71 -93 -90 c-51 -49 -111 -102 -134 -116 -23 -15 -62 -49 -87 -76 -24 -27 -56 -62 -72 -77 -17 -17 -25 -33 -21 -43 4 -10 -5 -26 -23 -44 -23 -21 -28 -32 -22 -47 4 -11 6 -56 2 -100 -4 -62 -11 -88 -30 -117 -21 -31 -23 -43 -18 -81 6 -41 5 -47 -18 -62 -14 -9 -28 -27 -31 -41 -4 -14 -18 -30 -31 -36 -14 -6 -31 -21 -39 -33 -10 -16 -29 -25 -61 -30 -40 -5 -48 -11 -57 -36 -6 -16 -23 -36 -39 -45 -28 -14 -29 -15 -13 -39 22 -34 11 -138 -19 -166 -15 -14 -20 -29 -19 -59 3 -36 -1 -41 -35 -63 -44 -28 -59 -45 -82 -90 -10 -21 -25 -33 -41 -35 -14 -2 -33 -12 -43 -23 -10 -10 -30 -19 -45 -19 -16 0 -32 -8 -40 -20 -8 -13 -23 -20 -45 -20 -37 0 -97 -33 -97 -54 0 -7 -7 -19 -15 -26 -21 -18 -19 -40 10 -83 20 -28 32 -37 55 -37 29 0 38 -6 63 -43 11 -15 17 -16 46 -6 25 9 46 9 83 0 27 -6 62 -11 77 -11 15 0 36 -7 47 -15 25 -19 123 -20 149 -1 11 7 44 19 74 25 44 9 59 9 84 -4 17 -8 31 -14 32 -13 23 43 39 58 60 58 17 0 46 22 95 70 56 55 70 75 70 99 0 24 7 34 31 47 23 11 28 19 20 27 -18 18 -13 82 8 101 22 20 71 15 92 -10 21 -26 24 -165 4 -207 -21 -44 -14 -86 21 -117 16 -16 24 -34 24 -56 0 -17 7 -37 15 -44 8 -7 15 -21 15 -31 0 -9 6 -24 14 -31 8 -7 42 -39 75 -70 49 -47 66 -58 94 -58 20 0 50 -10 71 -25 45 -30 77 -32 101 -5 10 11 28 20 41 20 14 0 25 8 29 20 4 11 17 28 31 36 31 21 30 39 -1 66 -16 14 -25 32 -25 50 0 16 -7 31 -15 34 -18 7 -65 86 -65 109 0 10 -11 30 -25 47 -27 31 -32 67 -14 99 8 15 6 38 -5 89 -9 38 -16 83 -16 101 0 18 -6 48 -12 67 -11 30 -10 38 11 74 26 46 41 151 22 162 -6 4 -11 26 -11 50 0 34 7 52 36 89 34 44 35 47 19 64 -24 23 -15 116 14 147 29 31 43 74 31 96 -14 25 -13 63 2 78 31 31 88 6 160 -70 23 -25 44 -38 61 -38 28 0 52 -19 62 -49 6 -19 45 -41 73 -41 10 0 36 -18 57 -40 21 -22 48 -40 59 -40 11 0 33 -15 50 -34 22 -23 44 -36 72 -40 29 -5 45 -14 51 -29 6 -13 32 -30 63 -42 28 -11 56 -28 61 -37 5 -10 19 -18 30 -18 11 0 32 -13 47 -29 15 -16 45 -34 67 -42 22 -7 49 -23 60 -35 11 -11 32 -24 48 -28 15 -3 27 -11 27 -17 0 -22 53 -59 87 -59 26 0 36 -6 45 -25 7 -17 19 -25 35 -25 15 0 37 -14 57 -35 24 -25 42 -35 64 -35 23 0 36 -7 48 -25 9 -14 26 -25 37 -25 11 0 35 -16 53 -35 23 -26 40 -35 63 -35 21 0 40 -8 55 -25 13 -14 33 -25 44 -25 12 0 29 -11 38 -24 8 -14 37 -33 62 -42 26 -9 54 -25 64 -35 9 -11 24 -19 35 -19 24 0 37 -10 52 -37 6 -13 18 -23 27 -23 24 0 91 -38 97 -55 4 -9 19 -15 37 -15 23 0 33 -6 42 -25 6 -14 20 -25 31 -25 11 0 39 -16 63 -35 24 -20 54 -35 68 -35 16 0 32 -9 42 -25 9 -14 23 -25 31 -25 8 0 34 -16 57 -35 24 -19 54 -35 67 -35 29 0 40 -7 62 -42 9 -15 30 -30 45 -34 56 -12 63 -16 71 -36 4 -12 29 -29 62 -42 30 -12 58 -31 63 -42 5 -12 31 -29 59 -40 35 -13 56 -29 70 -52 11 -19 30 -34 46 -38 48 -10 69 -23 77 -46 9 -29 32 -47 61 -48 27 0 103 -49 103 -66 0 -21 28 -43 69 -54 24 -6 51 -25 76 -55 22 -25 46 -45 55 -46 29 -1 75 -36 92 -69 17 -33 83 -78 118 -80 23 -1 77 -52 89 -82 6 -17 22 -30 47 -38 56 -19 107 -58 121 -93 13 -31 64 -66 121 -82 12 -3 22 -10 22 -14 0 -4 11 -13 24 -19 13 -6 30 -26 37 -45 11 -32 81 -87 110 -87 22 0 128 -93 138 -120 9 -26 65 -71 109 -87 48 -18 142 -104 167 -154 13 -24 110 -99 129 -99 12 0 104 -71 158 -122 10 -10 18 -29 18 -42 0 -19 20 -40 93 -94 51 -39 110 -80 132 -93 21 -13 65 -48 96 -79 32 -30 79 -75 104 -99 25 -24 54 -60 65 -80 10 -21 38 -55 62 -76 250 -224 546 -518 680 -676 44 -52 88 -94 110 -104 32 -15 67 -47 148 -133 9 -10 47 -64 85 -121 48 -71 79 -108 100 -117 39 -17 80 -64 116 -136 22 -43 39 -63 64 -75 19 -9 35 -22 35 -28 0 -7 9 -20 20 -30 11 -10 20 -29 20 -42 0 -23 40 -73 58 -73 11 0 62 -78 62 -95 0 -7 11 -20 25 -29 14 -9 25 -25 25 -36 0 -10 5 -22 10 -25 6 -3 10 -15 10 -25 0 -12 13 -26 30 -35 21 -11 30 -23 30 -39 0 -25 30 -86 42 -86 15 0 38 -33 38 -55 0 -15 7 -26 20 -30 14 -4 20 -15 20 -35 0 -19 7 -33 19 -40 12 -6 28 -37 41 -79 14 -48 29 -75 46 -85 17 -12 24 -26 24 -49 0 -22 7 -36 21 -45 17 -11 20 -20 15 -50 -8 -47 -8 -50 0 -90 4 -20 2 -38 -6 -47 -17 -21 -62 -19 -91 3 -13 10 -32 21 -41 25 -10 3 -25 25 -34 47 -13 32 -31 50 -78 80 -87 55 -122 99 -194 241 -8 14 -29 31 -48 38 -19 7 -39 22 -45 34 -7 12 -15 24 -18 27 -11 8 -45 63 -57 91 -24 53 -208 229 -241 229 -3 0 -18 10 -33 23 -55 44 -74 57 -82 57 -4 0 -17 18 -28 40 -12 23 -29 43 -38 46 -66 22 -110 50 -128 83 -14 26 -27 37 -49 41 -47 8 -102 40 -114 66 -7 15 -19 24 -34 24 -13 0 -40 16 -61 35 -21 19 -49 35 -62 35 -14 0 -30 10 -40 25 -9 14 -22 25 -29 25 -7 0 -32 16 -55 35 -30 25 -52 35 -76 35 -25 0 -38 6 -50 25 -11 17 -25 25 -45 25 -18 0 -32 7 -39 20 -7 13 -21 20 -40 20 -19 0 -33 7 -40 20 -7 13 -21 20 -40 20 -19 0 -33 7 -40 20 -7 13 -21 20 -40 20 -19 0 -34 7 -42 20 -8 12 -24 20 -40 20 -17 0 -33 8 -40 20 -7 11 -23 20 -36 20 -13 0 -33 11 -46 25 -13 14 -32 25 -43 25 -11 0 -29 11 -41 25 -12 14 -28 25 -35 25 -23 0 -94 39 -100 55 -4 8 -17 15 -29 15 -27 0 -42 9 -50 30 -3 8 -29 24 -57 34 -29 10 -58 27 -64 37 -7 11 -22 19 -34 19 -22 0 -53 24 -53 40 0 17 -44 50 -66 50 -32 0 -91 40 -104 72 -7 16 -30 36 -54 48 -55 27 -88 57 -116 105 -13 22 -36 51 -50 65 -14 14 -31 35 -39 47 -8 12 -36 38 -63 58 -26 21 -48 43 -48 50 0 23 -30 45 -60 45 -16 0 -35 7 -42 16 -36 44 -63 64 -89 64 -27 0 -59 22 -59 41 0 5 -8 9 -19 9 -10 0 -30 11 -45 25 -15 14 -32 25 -38 25 -19 0 -98 41 -98 51 0 5 -13 9 -29 9 -29 0 -61 22 -61 41 0 5 -15 9 -34 9 -26 0 -36 5 -41 20 -5 14 -15 20 -38 20 -21 0 -36 7 -45 20 -8 13 -23 20 -42 20 -19 0 -33 7 -40 20 -7 13 -21 20 -40 20 -20 0 -35 8 -46 25 -11 16 -26 25 -43 25 -15 0 -42 11 -61 25 -19 14 -44 25 -57 25 -13 0 -26 7 -29 15 -4 9 -19 15 -39 15 -19 0 -39 8 -50 20 -10 11 -31 20 -46 20 -18 0 -34 8 -41 20 -9 13 -24 20 -45 20 -24 0 -37 7 -49 25 -13 20 -25 25 -55 25 -26 0 -42 5 -45 15 -4 9 -19 15 -39 15 -19 0 -39 8 -50 20 -10 11 -31 20 -46 20 -15 0 -41 11 -57 25 -19 16 -42 25 -65 25 -22 0 -37 6 -41 15 -3 9 -18 15 -37 15 -22 0 -38 9 -56 29 -21 24 -32 28 -57 24 -23 -4 -36 0 -50 16 -12 13 -31 21 -51 21 -24 0 -37 7 -49 25 -14 22 -21 24 -55 19 -33 -5 -42 -3 -53 15 -9 15 -23 21 -50 21 -29 0 -41 6 -54 25 -14 21 -22 24 -49 19 -26 -4 -38 -1 -54 15 -12 12 -29 21 -40 21 -30 0 -79 20 -85 36 -4 9 -14 12 -35 8 -26 -5 -35 -1 -57 24 -22 25 -32 29 -59 25 -22 -4 -37 0 -50 13 -10 11 -34 19 -53 20 -25 1 -40 8 -54 27 -16 21 -24 25 -52 20 -27 -4 -38 -1 -52 16 -12 13 -30 21 -51 21 -24 0 -37 7 -49 25 -12 19 -25 25 -50 25 -22 0 -40 7 -51 20 -11 12 -30 20 -50 20 -22 0 -36 6 -43 20 -8 15 -17 19 -35 14 -17 -4 -29 0 -42 15 -10 12 -29 21 -45 21 -18 0 -33 8 -43 24 -10 15 -25 24 -42 24 -17 0 -33 8 -41 21 -9 13 -25 21 -43 21 -18 0 -32 7 -39 20 -7 13 -21 20 -40 20 -20 0 -35 8 -46 25 -9 14 -21 25 -28 25 -20 0 -96 45 -101 60 -3 8 -25 23 -49 33 -27 11 -59 36 -81 63 -28 33 -43 44 -65 44 -16 0 -35 8 -42 18 -9 12 -27 18 -55 19 -24 0 -54 8 -67 17 -32 20 -66 20 -114 0 -20 -8 -63 -16 -95 -16 -49 0 -62 -4 -83 -25 -19 -19 -32 -24 -54 -20 -20 4 -33 1 -45 -13 -13 -14 -31 -20 -64 -20 -34 0 -51 -5 -63 -20 -24 -27 -65 -35 -104 -21 -34 12 -34 13 -118 -36 -26 -16 -100 -17 -141 -2 -27 10 -41 7 -110 -20 -86 -35 -78 -34 -286 -15 -55 5 -87 0 -187 -26 -114 -30 -127 -31 -249 -25 -479 22 -1067 13 -1326 -21 -62 -8 -223 -19 -359 -24 -215 -9 -252 -9 -284 5 -72 30 -240 20 -584 -36 -103 -17 -315 -18 -331 -2 -28 28 -169 14 -419 -42 -90 -20 -236 -18 -249 4 -9 14 -40 14 -381 -5 -70 -4 -171 -2 -258 6 -131 12 -146 12 -172 -3 -15 -9 -43 -17 -62 -17 -43 0 -108 18 -108 30 0 17 -54 38 -75 29 -33 -13 -54 -10 -74 10 -11 11 -34 21 -53 23 -23 2 -36 10 -45 27 -14 28 -48 50 -80 51 -13 0 -30 11 -38 24 -10 15 -25 24 -41 24 -15 0 -36 11 -50 26 -31 33 -54 33 -84 1 -13 -14 -33 -25 -45 -25 -12 0 -26 -9 -31 -19 -13 -28 -119 -111 -142 -111 -11 0 -26 -10 -34 -22 -20 -30 -115 -33 -147 -4 -12 11 -33 21 -48 22 -15 2 -33 11 -40 21 -18 26 -21 29 -93 75 -69 45 -130 100 -130 118 0 5 -11 10 -25 10 -13 0 -28 6 -32 14 -5 8 -35 16 -79 21 -59 6 -74 4 -85 -9 -46 -54 -84 -86 -101 -86 -11 0 -31 -9 -45 -20 -21 -16 -41 -20 -102 -20 -70 0 -81 3 -118 30 -35 26 -44 28 -73 20 -34 -10 -57 -3 -80 25 -10 12 -23 15 -49 10 -27 -4 -44 0 -70 17 -64 43 -76 48 -111 48 -19 -1 -44 -7 -54 -15 -26 -20 -76 -19 -126 1 -52 21 -112 12 -163 -23 -39 -27 -81 -33 -129 -19 -22 6 -31 3 -49 -18 -26 -30 -66 -41 -101 -27 -23 8 -29 6 -42 -14 -19 -30 -57 -41 -84 -26 -18 9 -24 6 -42 -19 -17 -24 -29 -30 -59 -30 -25 0 -44 -7 -56 -20 -11 -12 -31 -20 -51 -20 -23 0 -38 -6 -46 -20 -9 -13 -24 -20 -45 -20 -20 0 -41 -8 -53 -20 -11 -11 -29 -20 -41 -20 -11 0 -32 -9 -46 -20 -14 -11 -34 -20 -43 -20 -10 0 -23 -7 -30 -15 -7 -8 -30 -18 -51 -21 -21 -4 -46 -15 -55 -25 -9 -11 -25 -19 -35 -19 -10 0 -31 -11 -47 -25 -17 -14 -40 -25 -51 -25 -28 0 -71 -22 -95 -49 -11 -12 -29 -21 -42 -21 -13 0 -28 -9 -34 -20 -6 -12 -21 -20 -36 -20 -16 0 -34 -10 -46 -25 -11 -14 -30 -25 -43 -25 -14 0 -29 -9 -35 -20 -7 -13 -21 -20 -39 -20 -20 0 -34 -8 -45 -25 -10 -16 -26 -25 -42 -25 -14 0 -46 -16 -71 -35 -25 -19 -52 -35 -60 -35 -9 0 -24 -11 -35 -25 -11 -14 -30 -25 -43 -25 -14 0 -29 -8 -34 -19 -7 -11 -31 -24 -61 -31 -36 -9 -56 -20 -71 -41 -11 -16 -29 -29 -39 -29 -11 0 -31 -12 -45 -26 -14 -14 -32 -23 -39 -21 -8 3 -23 -5 -33 -17 -11 -13 -42 -29 -68 -37 -31 -9 -51 -22 -58 -36 -6 -13 -17 -24 -26 -25 -9 0 -22 -2 -28 -2 -7 -1 -20 -11 -28 -24 -10 -13 -27 -22 -41 -22 -23 0 -67 -25 -102 -57 -7 -7 -21 -13 -31 -13 -10 0 -27 -11 -39 -25 -12 -14 -31 -25 -41 -25 -11 0 -31 -11 -45 -25 -14 -14 -31 -22 -39 -19 -8 3 -21 -6 -31 -20 -10 -17 -26 -26 -42 -26 -14 0 -49 -16 -78 -35 -29 -19 -60 -35 -68 -35 -8 0 -23 -9 -33 -20 -10 -11 -27 -20 -38 -20 -10 0 -28 -11 -39 -25 -11 -14 -30 -25 -43 -25 -14 0 -29 -9 -35 -20 -7 -13 -21 -20 -40 -20 -19 0 -33 -7 -40 -20 -7 -13 -21 -20 -39 -20 -17 0 -36 -10 -50 -26 -14 -16 -29 -24 -41 -21 -11 3 -26 -5 -39 -19 -12 -13 -31 -24 -44 -24 -12 0 -30 -9 -40 -20 -9 -11 -28 -20 -42 -20 -14 0 -29 -8 -35 -20 -6 -12 -21 -20 -36 -20 -36 0 -78 -25 -92 -54 -9 -20 -19 -26 -42 -26 -30 0 -80 -37 -80 -59 0 -13 -69 -53 -105 -60 -22 -5 -35 -17 -48 -43 -18 -36 -42 -52 -129 -87 -17 -6 -33 -24 -42 -46 -8 -19 -19 -35 -25 -35 -5 0 -16 -6 -23 -13 -23 -22 -72 -52 -103 -63 -18 -6 -38 -25 -50 -47 -25 -44 -62 -75 -143 -118 -35 -18 -68 -42 -74 -53 -10 -19 -24 -37 -53 -66 -18 -19 -118 -90 -126 -90 -24 0 -98 -63 -104 -88 -6 -31 -123 -129 -217 -181 -44 -25 -59 -40 -68 -67 -6 -19 -15 -34 -19 -34 -3 0 -27 -20 -51 -43 -48 -47 -153 -130 -269 -212 -44 -31 -70 -57 -70 -69 -1 -20 -80 -101 -190 -196 -36 -30 -81 -70 -100 -88 -20 -18 -56 -47 -80 -65 -191 -141 -676 -625 -780 -778 -98 -144 -152 -207 -185 -214 -17 -5 -34 -19 -45 -38 -18 -36 -77 -95 -142 -146 -24 -18 -51 -47 -59 -65 -14 -29 -18 -31 -78 -34 -82 -4 -96 7 -90 70 3 27 12 56 22 66 9 11 16 36 16 60 0 29 7 49 25 70 16 19 23 36 19 47 -4 10 2 28 15 45 11 16 21 39 21 51 0 11 14 34 30 49 24 22 29 34 24 53 -4 18 0 31 16 47 12 12 23 35 26 52 2 17 12 37 22 44 11 8 19 25 19 41 0 17 9 33 22 41 13 9 21 25 21 43 0 18 7 32 20 39 13 7 20 21 20 40 0 19 7 34 20 42 12 8 20 24 20 40 0 18 8 33 25 44 14 9 25 25 25 35 0 10 4 20 9 24 5 3 12 18 16 34 3 16 13 35 21 42 8 6 14 20 14 31 0 10 11 29 25 42 14 13 25 34 25 48 0 16 9 32 25 42 14 9 25 26 25 37 0 12 11 30 24 40 13 10 30 40 37 65 8 26 24 53 37 62 14 9 22 24 22 43 0 21 7 31 28 41 19 10 31 27 43 63 9 30 23 54 35 59 19 8 54 76 54 103 0 6 9 15 20 18 30 10 60 45 60 72 0 13 9 31 20 40 11 10 20 23 20 30 0 7 15 20 33 29 34 18 38 22 77 94 42 75 72 109 102 115 29 7 54 39 106 134 32 61 67 101 105 120 29 15 76 81 77 109 0 23 61 90 87 97 16 4 30 19 41 44 33 74 87 151 109 157 15 4 28 21 40 54 12 32 32 59 58 80 24 19 48 51 61 82 15 35 34 60 60 78 26 17 41 35 44 55 7 39 46 102 68 107 9 3 26 28 37 58 15 38 27 55 46 62 27 9 49 44 49 79 0 12 13 28 33 39 33 20 57 56 57 86 0 21 49 84 66 84 18 0 54 40 54 61 0 35 125 177 170 194 15 6 70 57 122 115 89 98 302 305 334 323 8 4 21 23 28 42 20 47 156 178 246 235 120 77 148 101 161 134 15 38 55 72 133 112 41 21 66 41 76 61 14 29 48 61 95 91 20 12 28 16 76 33 15 6 30 23 37 42 11 29 69 77 93 77 26 0 68 32 77 60 6 16 17 30 25 30 8 0 22 9 32 20 10 11 28 20 39 20 29 0 62 25 70 52 7 26 55 60 110 78 20 6 41 21 47 33 22 42 107 109 151 120 30 8 58 32 58 51 0 12 66 76 78 76 4 0 18 9 32 20 14 11 32 20 41 20 18 0 99 78 99 95 0 13 115 107 143 118 50 19 129 82 142 113 16 38 98 122 169 172 25 18 46 37 46 43 0 34 99 115 147 121 19 2 36 15 56 46 21 32 35 42 55 42 31 1 50 14 75 53 10 15 26 27 39 27 11 0 31 11 44 25 13 14 32 25 42 25 28 0 71 24 88 49 10 13 26 21 45 21 16 0 29 4 29 9 0 18 32 42 49 36 11 -3 26 4 39 20 12 14 32 25 45 25 13 0 32 9 42 20 10 11 29 20 42 20 12 0 32 9 43 20 11 11 33 20 49 20 16 0 34 7 41 15 7 8 22 15 35 15 12 0 30 9 40 20 10 11 28 20 40 20 12 0 34 9 48 20 14 11 33 20 42 20 9 0 28 9 42 20 14 11 31 20 38 20 6 0 21 11 33 25 12 14 29 25 37 25 17 0 85 64 85 80 0 5 -5 10 -11 10 -6 0 -27 14 -46 31 -23 20 -41 28 -52 23 -66 -27 -142 -27 -236 1 -13 4 -37 -5 -69 -26 -39 -26 -58 -32 -97 -31 -30 0 -52 -4 -56 -12 -14 -23 -50 -36 -82 -30 -26 5 -36 2 -56 -20 -14 -16 -35 -26 -51 -26 -15 0 -32 -7 -39 -17 -7 -9 -25 -16 -43 -15 -18 0 -37 -7 -48 -19 -9 -10 -28 -19 -42 -19 -35 0 -110 -38 -123 -61 -6 -12 -20 -19 -39 -19 -19 0 -33 -7 -40 -20 -6 -11 -21 -20 -34 -20 -12 0 -32 -11 -44 -25 -12 -14 -31 -25 -43 -25 -12 0 -30 -11 -40 -24 -10 -13 -39 -30 -65 -37 -31 -10 -49 -21 -55 -36 -8 -21 -21 -27 -74 -35 -11 -2 -31 -20 -44 -41 -14 -21 -32 -37 -43 -37 -30 0 -76 -28 -83 -51 -6 -18 -62 -50 -128 -73 -10 -3 -24 -21 -32 -40 -8 -19 -24 -37 -35 -41 -11 -3 -20 -10 -20 -15 0 -11 -58 -44 -103 -59 -28 -9 -38 -20 -47 -47 -7 -20 -22 -40 -36 -46 -13 -6 -24 -14 -24 -19 0 -4 -32 -22 -70 -40 -58 -28 -72 -40 -81 -66 -6 -18 -14 -33 -19 -33 -5 0 -16 -7 -25 -16 -23 -23 -84 -64 -95 -64 -26 0 -60 -26 -65 -49 -8 -36 -77 -88 -175 -131 -8 -4 -21 -20 -28 -36 -14 -30 -115 -101 -161 -113 -16 -4 -33 -21 -43 -41 -23 -44 -46 -63 -134 -104 -60 -28 -72 -38 -80 -66 -8 -31 -40 -59 -84 -75 -42 -16 -65 -33 -79 -57 -9 -14 -29 -37 -46 -51 -48 -38 -134 -97 -143 -97 -22 0 -92 -64 -101 -93 -7 -20 -31 -48 -59 -70 -26 -20 -74 -62 -107 -93 -33 -31 -78 -67 -100 -81 -56 -36 -280 -258 -320 -318 -18 -27 -43 -61 -56 -75 -13 -14 -44 -50 -69 -80 -67 -82 -96 -109 -129 -123 -28 -12 -81 -76 -81 -97 0 -28 -136 -190 -159 -190 -6 0 -20 -21 -32 -47 -29 -65 -65 -110 -93 -117 -12 -3 -28 -18 -35 -33 -42 -90 -59 -116 -83 -129 -29 -15 -48 -42 -48 -67 0 -22 -51 -97 -66 -97 -7 0 -24 -25 -39 -55 -16 -35 -36 -60 -55 -70 -30 -16 -50 -43 -50 -69 0 -21 -48 -90 -68 -97 -9 -4 -26 -29 -36 -57 -15 -37 -28 -54 -52 -65 -23 -11 -36 -27 -44 -54 -7 -21 -18 -45 -25 -53 -6 -8 -15 -23 -19 -33 -3 -11 -15 -21 -26 -24 -19 -5 -27 -19 -58 -95 -7 -16 -18 -28 -27 -28 -21 0 -55 -36 -55 -59 0 -26 -58 -111 -75 -111 -17 0 -45 -39 -45 -63 0 -22 -56 -95 -79 -102 -9 -3 -25 -27 -36 -55 -11 -27 -23 -50 -27 -50 -5 0 -14 -11 -20 -25 -6 -13 -19 -27 -29 -30 -10 -3 -30 -31 -44 -61 -20 -42 -35 -59 -60 -70 -19 -8 -36 -23 -40 -36 -15 -55 -51 -119 -70 -124 -30 -9 -55 -35 -55 -56 0 -28 -49 -108 -66 -108 -15 0 -54 -56 -54 -78 0 -17 -60 -92 -74 -92 -6 0 -21 -24 -32 -53 -13 -32 -31 -57 -46 -64 -15 -8 -30 -30 -42 -63 -12 -34 -27 -55 -42 -62 -13 -6 -24 -16 -24 -23 0 -23 -41 -95 -60 -105 -12 -6 -20 -21 -20 -36 0 -13 -7 -27 -15 -30 -15 -6 -55 -85 -55 -110 0 -7 -9 -18 -20 -24 -12 -6 -20 -21 -20 -35 0 -14 -9 -33 -20 -42 -11 -10 -20 -29 -20 -44 0 -37 -19 -86 -35 -93 -10 -3 -13 -21 -12 -62 2 -49 -1 -59 -21 -71 -16 -12 -22 -25 -22 -54 0 -28 -6 -42 -20 -51 -13 -9 -20 -24 -20 -45 0 -20 -9 -42 -24 -57 -15 -17 -22 -34 -19 -50 3 -16 -2 -31 -16 -45 -12 -12 -21 -34 -21 -51 0 -19 -7 -34 -20 -42 -13 -9 -20 -24 -20 -45 0 -23 -7 -37 -24 -48 -16 -11 -27 -30 -31 -55 -4 -21 -13 -44 -21 -51 -8 -6 -14 -26 -14 -43 0 -17 -7 -41 -14 -52 -14 -19 -11 -29 34 -117 147 -289 532 -927 559 -927 9 0 19 11 125 140 43 52 136 156 206 230 70 74 152 163 181 198 64 73 948 956 999 996 19 16 55 47 80 70 25 22 85 77 135 121 49 44 95 85 101 90 230 210 307 286 335 328 18 29 67 84 108 122 40 39 90 86 110 105 20 19 50 44 66 55 17 11 84 62 148 114 79 64 120 104 127 125 13 35 119 132 195 177 87 52 119 79 132 112 17 39 43 61 108 91 28 13 59 35 69 51 16 25 22 27 63 22 40 -4 45 -2 53 19 5 13 20 26 35 29 14 3 36 7 50 10 14 3 37 19 52 35 14 17 34 30 44 30 9 0 23 10 31 23 9 12 36 28 62 36 32 9 51 21 58 37 11 24 69 56 121 68 20 5 33 17 43 41 14 34 55 61 122 80 12 4 31 24 43 46 19 38 31 46 109 74 24 9 42 26 58 54 18 31 30 41 48 41 36 0 62 16 79 50 12 23 25 31 55 36 27 4 49 17 70 40 17 19 39 34 49 34 10 0 26 11 35 25 9 14 26 25 37 25 30 0 74 26 93 54 9 15 26 26 38 26 11 0 31 11 44 25 13 14 32 25 44 25 25 0 72 23 89 44 8 9 21 16 31 16 9 0 29 11 44 25 15 14 34 25 43 25 9 0 26 11 39 25 13 14 33 25 46 25 13 0 29 9 36 20 7 12 23 20 40 20 16 0 32 8 40 20 8 13 23 20 42 20 19 0 33 7 40 20 7 13 21 20 39 20 15 0 36 9 46 20 10 11 30 20 44 20 15 0 31 8 39 20 7 12 23 20 41 20 15 0 36 9 46 20 10 11 30 20 45 20 15 0 35 9 46 21 14 16 27 20 51 16 27 -5 35 -2 44 16 15 29 28 37 59 37 14 0 33 9 43 20 10 12 29 20 48 20 17 0 42 9 56 20 14 11 38 20 54 20 18 0 32 7 39 20 8 15 21 20 54 20 33 0 47 5 58 21 9 15 26 23 51 24 21 1 46 10 57 20 15 13 29 16 59 11 34 -5 41 -3 56 20 14 23 22 25 58 22 35 -4 47 0 76 24 27 24 41 29 76 27 31 -2 49 3 71 20 28 22 56 24 95 7 10 -4 30 5 55 24 36 29 43 31 99 26 96 -8 108 -7 137 14 48 35 209 46 246 17 20 -15 92 1 126 30 29 24 35 25 106 20 71 -6 76 -4 102 20 28 27 73 35 114 20 16 -6 23 -2 34 18 11 20 21 25 50 25 20 0 41 -5 47 -11 7 -7 17 -2 32 20 19 27 29 31 67 31 24 0 44 4 44 9 0 19 32 41 58 41 16 0 32 8 40 20 8 13 23 20 45 20 22 0 36 7 45 21 12 18 19 20 59 14 38 -6 49 -3 68 15 17 16 40 24 87 27 58 5 66 3 95 -21 17 -14 39 -26 49 -26 11 -1 30 -7 44 -15 14 -8 34 -14 46 -15 12 0 36 -14 53 -31 23 -22 37 -28 49 -22 9 4 40 8 67 7 38 0 59 -6 90 -28 33 -23 46 -26 75 -20 19 4 70 7 114 6 63 0 83 -4 106 -21 16 -11 49 -25 75 -31 37 -8 50 -7 70 6 35 23 224 11 272 -16 18 -11 60 -24 93 -30 50 -9 68 -8 107 5 39 13 69 15 154 10 59 -4 117 -13 130 -21 49 -28 71 -34 148 -40 61 -5 94 -3 145 11 59 16 81 17 226 7 128 -9 168 -16 202 -33 35 -18 60 -21 167 -22 73 -1 149 4 181 12 75 18 480 -2 516 -25 49 -33 347 -42 479 -16 33 7 120 7 260 0 174 -9 218 -14 255 -30 53 -24 -10 -24 1385 -17 l970 4 37 -23 c40 -25 136 -33 215 -18 67 13 169 -2 201 -29 34 -28 60 -33 91 -16 34 19 127 8 155 -17 41 -38 63 -44 91 -26 34 22 105 11 146 -23 28 -24 33 -25 69 -14 49 15 86 6 128 -31 34 -29 56 -35 67 -18 3 6 24 10 45 10 29 0 48 -8 73 -29 23 -21 37 -27 48 -20 29 18 89 10 113 -15 20 -22 28 -24 77 -19 52 5 58 3 92 -26 30 -27 39 -30 56 -22 32 17 60 13 84 -13 19 -21 29 -23 68 -19 41 5 50 2 81 -26 30 -26 40 -30 61 -22 33 13 63 4 82 -25 13 -20 19 -22 41 -14 37 15 49 13 81 -14 20 -17 40 -24 66 -23 25 1 44 -6 60 -21 16 -15 36 -22 65 -22 30 0 47 -6 59 -20 12 -14 30 -20 60 -20 35 0 46 -5 59 -26 15 -22 22 -24 55 -19 33 6 41 3 64 -23 22 -25 32 -30 60 -25 25 4 37 0 53 -17 11 -12 26 -19 32 -15 20 12 56 -4 68 -30 10 -22 16 -25 45 -20 24 5 39 1 59 -14 14 -12 40 -21 57 -21 20 0 34 -7 41 -20 6 -11 18 -19 28 -18 39 3 53 -3 62 -27 8 -21 16 -25 48 -25 26 0 45 -7 57 -20 10 -11 29 -20 42 -20 13 0 31 -9 40 -20 10 -11 30 -20 45 -20 17 0 31 -7 38 -20 7 -13 21 -20 39 -20 17 0 36 -10 49 -25 12 -14 27 -25 34 -25 19 0 98 -41 98 -51 0 -5 11 -9 25 -9 25 0 65 -31 65 -50 0 -5 9 -10 20 -10 24 0 100 -46 100 -60 0 -6 10 -10 23 -10 28 0 41 -9 56 -37 7 -15 30 -28 66 -38 36 -11 56 -23 60 -36 4 -10 15 -19 25 -19 11 0 35 -16 54 -35 25 -25 44 -35 66 -35 20 0 39 -9 54 -25 13 -14 33 -25 44 -25 12 0 29 -11 38 -25 10 -15 26 -25 40 -25 12 0 29 -8 36 -19 16 -22 70 -51 97 -51 12 0 26 -9 33 -20 8 -12 24 -20 40 -20 18 0 33 -8 44 -25 12 -18 22 -24 35 -20 12 4 27 -2 43 -19 13 -15 34 -26 49 -26 16 0 31 -8 37 -20 7 -13 21 -20 40 -20 21 0 35 -8 46 -26 9 -14 23 -23 30 -20 7 3 27 -6 43 -19 16 -14 38 -25 48 -25 11 0 28 -9 38 -20 10 -11 28 -20 40 -20 12 0 30 -9 40 -20 10 -11 31 -20 46 -20 18 0 32 -7 39 -19 7 -14 20 -19 42 -19 22 1 36 -5 46 -20 9 -14 25 -22 43 -22 18 0 32 -7 39 -20 7 -13 21 -20 40 -20 19 0 34 -7 42 -20 8 -12 24 -20 40 -20 18 0 33 -8 44 -25 9 -14 26 -25 38 -25 12 0 32 -11 43 -23 11 -13 42 -30 68 -38 27 -8 54 -24 63 -36 8 -13 24 -23 37 -23 15 0 32 -11 45 -30 12 -16 33 -33 48 -36 56 -12 63 -16 77 -44 11 -21 27 -32 62 -42 34 -10 52 -21 60 -39 13 -26 40 -44 83 -53 17 -3 32 -18 43 -40 11 -24 25 -37 44 -41 51 -11 112 -48 121 -75 5 -14 20 -30 33 -36 13 -6 35 -17 49 -23 55 -26 74 -41 85 -68 8 -19 25 -34 46 -42 19 -7 41 -17 49 -22 8 -5 24 -13 36 -18 11 -5 27 -23 34 -41 13 -31 37 -50 64 -50 26 0 90 -50 102 -80 9 -21 30 -37 71 -57 80 -39 122 -72 138 -110 11 -25 29 -40 77 -63 77 -37 110 -64 133 -108 12 -25 33 -41 81 -64 35 -16 64 -34 64 -39 0 -5 6 -9 13 -9 7 0 23 -11 35 -25 12 -14 26 -25 30 -25 5 0 13 -14 18 -32 10 -34 42 -60 143 -119 66 -39 148 -117 156 -150 4 -17 38 -45 112 -94 113 -74 260 -209 287 -262 23 -46 328 -349 359 -357 29 -7 84 -62 119 -118 30 -48 56 -58 79 -29 56 69 452 766 466 819 4 18 -3 32 -27 57 -18 18 -43 36 -55 39 -16 4 -28 20 -41 57 -11 30 -30 59 -46 71 -17 11 -28 29 -28 42 0 13 -6 29 -14 35 -18 15 -56 87 -56 105 0 8 -11 21 -25 30 -15 10 -25 26 -25 40 0 14 -10 30 -25 40 -17 11 -25 26 -25 44 0 16 -8 32 -20 40 -12 7 -20 23 -20 40 0 16 -8 32 -20 40 -11 7 -20 23 -20 37 0 13 -11 35 -25 49 -14 14 -25 31 -25 39 0 7 -13 40 -30 72 -16 32 -30 64 -30 70 0 6 -11 21 -25 33 -14 12 -25 29 -25 38 0 9 -11 27 -25 40 -14 13 -25 32 -25 43 0 11 -16 37 -35 58 -19 21 -35 47 -35 58 0 11 -21 40 -45 64 -29 30 -45 54 -45 70 -1 31 -16 52 -50 67 -22 11 -38 36 -81 127 -7 15 -23 30 -35 33 -28 7 -77 68 -115 143 -18 38 -37 62 -51 67 -21 6 -57 40 -101 96 -44 56 -97 132 -97 140 0 21 -65 87 -91 93 -16 4 -32 12 -36 20 -7 11 -85 102 -133 155 -55 61 -138 159 -152 180 -8 14 -39 52 -68 85 -29 33 -75 85 -102 116 -30 35 -59 59 -77 62 -35 7 -756 727 -766 764 -9 38 -362 373 -501 475 -34 25 -174 153 -353 323 -134 128 -162 157 -175 189 -12 30 -125 126 -147 126 -10 0 -63 35 -87 58 -7 6 -18 12 -23 12 -6 0 -19 20 -30 45 -11 25 -25 45 -32 45 -7 0 -36 11 -65 25 -40 19 -56 33 -67 59 -9 20 -24 37 -37 41 -64 17 -116 49 -129 78 -8 17 -21 34 -29 38 -8 4 -41 19 -72 33 -32 15 -58 33 -58 40 0 20 -32 43 -71 50 -27 5 -42 16 -60 44 -18 28 -32 38 -59 42 -27 4 -41 14 -59 43 -19 29 -33 39 -63 43 -26 5 -51 19 -78 45 -22 22 -48 39 -58 39 -9 0 -37 18 -61 40 -25 23 -54 40 -67 40 -14 0 -28 9 -35 23 -18 35 -51 57 -87 57 -24 0 -35 6 -41 23 -6 14 -27 29 -61 42 -29 11 -59 30 -67 43 -9 12 -21 22 -29 22 -17 0 -87 47 -97 66 -4 8 -21 14 -38 14 -22 0 -32 6 -41 25 -6 14 -20 25 -30 25 -22 0 -98 46 -98 60 0 6 -13 10 -30 10 -20 0 -35 8 -46 25 -9 14 -25 25 -36 25 -11 0 -34 16 -52 35 -24 25 -42 35 -64 35 -29 0 -62 21 -62 41 0 5 -11 9 -24 9 -14 0 -33 10 -43 23 -10 13 -41 32 -68 42 -28 10 -57 26 -67 36 -9 11 -28 19 -42 19 -15 0 -31 8 -38 20 -8 12 -24 20 -40 20 -18 0 -33 8 -44 25 -10 15 -26 25 -40 25 -13 0 -28 8 -33 19 -6 10 -22 22 -35 25 -14 3 -45 20 -70 36 -24 17 -56 30 -70 30 -15 0 -31 8 -38 20 -8 12 -24 20 -39 20 -14 0 -34 9 -44 20 -10 11 -29 20 -42 20 -13 0 -33 11 -45 25 -13 15 -32 25 -49 25 -19 0 -30 6 -34 20 -5 15 -15 20 -40 20 -25 0 -35 5 -40 20 -4 14 -15 20 -34 20 -15 0 -36 9 -46 20 -10 11 -31 20 -46 20 -17 0 -34 8 -43 22 -8 11 -28 23 -43 24 -15 2 -35 12 -45 24 -10 12 -28 20 -46 20 -16 0 -41 9 -55 20 -14 11 -39 20 -56 20 -20 0 -34 7 -41 20 -7 14 -21 20 -44 20 -25 0 -38 7 -50 25 -13 20 -25 25 -57 25 -26 0 -42 5 -45 15 -4 9 -19 15 -40 15 -23 0 -38 6 -46 20 -8 12 -24 20 -39 20 -14 0 -34 9 -44 20 -10 11 -28 20 -41 20 -23 0 -54 23 -54 41 0 5 -10 9 -22 9 -14 0 -38 16 -61 40 -24 26 -46 40 -63 40 -28 0 -104 56 -104 76 0 15 -145 164 -159 164 -18 0 -41 31 -41 55 0 14 -9 29 -20 35 -15 8 -20 21 -20 51 0 30 -6 46 -22 58 -16 14 -22 30 -22 61 -1 25 -6 45 -13 48 -7 2 -13 13 -13 24 0 11 -17 38 -37 60 -110 116 -98 108 -156 108 -30 0 -57 -3 -60 -7z"></path></g></g></svg>