<svg xmlns:xlink="http://www.w3.org/1999/xlink" class="img-fluid" id="outputsvg" xmlns="http://www.w3.org/2000/svg" style="transform: none; transform-origin: 50% 50%; cursor: move;" width="480" height="452" viewBox="0 0 4800 4520"><g id="l4er4bd7mGxtI3clOQwn6tv" fill="#313131" style="transform: none;"><g style="transform: none;" fill="#313131"><path id="pG42EKIPc" d="M1170 4459 c0 -7 -9 -9 -24 -5 -14 3 -27 2 -30 -3 -9 -15 -17 -685 -8 -716 7 -26 13 -30 50 -33 32 -2 43 1 51 17 7 12 11 122 11 298 0 153 2 289 4 303 l3 25 804 2 c605 1 806 -1 811 -10 11 -18 472 -17 490 1 8 8 56 12 165 12 115 0 153 -3 154 -12 1 -18 6 -522 10 -1063 3 -355 7 -455 18 -474 10 -17 10 -29 2 -45 -5 -11 -12 -77 -15 -146 -6 -155 -6 -154 -40 -225 -35 -70 -71 -104 -152 -144 -90 -44 -108 -47 -144 -21 -16 12 -34 19 -38 16 -10 -6 -64 43 -58 53 8 12 -92 111 -125 123 -19 6 -26 13 -19 18 13 8 -43 60 -66 60 -8 0 -13 5 -12 11 2 6 -40 40 -92 75 -152 102 -143 94 -129 110 15 18 16 56 23 559 6 469 20 401 -128 620 -32 47 -74 105 -93 128 -43 52 -50 61 -93 119 -19 26 -42 49 -50 51 -14 3 -110 -88 -110 -104 0 -4 -13 -22 -29 -40 -17 -18 -30 -35 -29 -38 2 -19 -3 -31 -11 -27 -9 6 -71 -67 -71 -83 0 -6 -4 -11 -9 -11 -5 0 -29 -30 -54 -67 -59 -91 -60 -92 -63 -122 -9 -66 -14 -841 -6 -881 4 -25 6 -69 3 -99 -6 -50 -8 -54 -49 -76 -79 -42 -150 -95 -220 -162 -19 -18 -38 -33 -42 -33 -4 0 -43 -38 -86 -84 -132 -140 -172 -151 -293 -81 -33 20 -62 34 -65 33 -10 -7 -44 35 -39 48 3 8 0 14 -6 14 -21 0 -40 59 -47 146 -3 49 -7 223 -8 386 -1 326 -1 324 -61 330 l-30 3 -10 -140 c-5 -77 -9 -267 -9 -421 l0 -282 29 -57 c31 -65 80 -125 101 -125 8 0 14 -5 14 -11 0 -5 30 -24 68 -42 62 -30 75 -32 167 -32 85 1 108 5 150 25 50 25 123 91 160 146 53 78 186 172 373 262 9 5 28 15 41 22 29 15 74 28 117 36 18 3 54 13 82 23 31 12 54 15 60 9 5 -5 36 -15 69 -23 33 -8 96 -30 141 -50 44 -19 88 -35 96 -35 9 0 19 -7 22 -15 4 -8 12 -15 20 -15 8 0 14 -4 14 -9 0 -5 8 -12 18 -15 26 -9 53 -27 102 -66 24 -19 45 -33 46 -30 1 3 23 -20 50 -50 54 -61 88 -95 106 -107 7 -4 18 -17 24 -28 6 -11 35 -33 64 -49 48 -26 63 -29 144 -29 103 0 131 5 190 35 60 30 99 66 141 127 39 56 74 163 71 213 -1 16 1 31 6 34 4 3 8 429 8 947 0 910 -1 943 -19 959 -10 8 -21 22 -23 29 -4 12 -216 14 -1296 17 -951 2 -1292 -1 -1292 -9z m1296 -506 c15 -27 57 -90 93 -141 110 -156 113 -165 112 -319 -1 -89 2 -138 11 -152 9 -16 9 -25 -2 -48 -21 -44 -25 -253 -7 -340 9 -39 14 -80 12 -90 -2 -10 -9 -47 -16 -81 l-12 -64 -31 7 c-31 8 -325 10 -381 4 l-30 -4 0 250 c-1 138 -4 315 -9 396 -10 190 7 300 56 362 55 69 137 197 148 233 7 19 15 34 20 34 4 0 21 -21 36 -47z" fill="#313131"></path><path id="pjxsH6L4W" d="M1738 4333 c45 -2 119 -2 165 0 45 1 8 3 -83 3 -91 0 -128 -2 -82 -3z" fill="#313131"></path><path id="pp7caIzhQ" d="M3121 3251 c-8 -5 -20 -7 -27 -4 -7 2 -21 -4 -32 -14 -10 -10 -27 -23 -38 -29 -31 -18 -64 -92 -64 -143 0 -53 34 -129 64 -145 11 -6 28 -19 39 -28 25 -22 113 -34 132 -18 11 9 22 9 50 0 20 -7 53 -9 78 -5 23 4 55 9 72 11 34 6 88 44 111 79 21 31 28 132 14 184 -6 23 -26 59 -44 78 l-32 36 -155 3 c-85 2 -160 0 -168 -5z m266 -145 c36 -80 -19 -110 -182 -99 -95 6 -112 15 -107 58 6 51 23 59 121 60 63 0 85 3 84 12 -2 9 8 12 32 10 29 -2 37 -8 52 -41z" fill="#313131"></path><path id="pNd3gNixv" d="M2320 2299 c-88 -20 -147 -37 -165 -47 -11 -5 -31 -15 -45 -21 -44 -20 -97 -55 -146 -96 -26 -22 -62 -53 -80 -69 -19 -15 -34 -37 -34 -48 0 -10 -4 -16 -10 -13 -9 5 -100 -123 -100 -141 0 -4 -9 -27 -20 -50 -12 -23 -23 -55 -25 -70 -3 -16 -10 -51 -16 -79 -6 -27 -13 -113 -14 -190 -4 -143 -11 -201 -26 -211 -15 -9 -10 -124 7 -160 17 -35 112 -124 133 -124 6 0 11 -4 11 -10 0 -5 -6 -10 -14 -10 -32 0 -116 -164 -116 -227 0 -76 53 -151 134 -188 33 -16 68 -36 76 -46 3 -3 37 -23 75 -44 39 -22 76 -45 84 -52 7 -8 31 -23 53 -34 23 -12 49 -28 59 -37 10 -10 40 -28 66 -42 26 -14 54 -30 61 -37 7 -7 17 -13 22 -13 5 0 26 -11 47 -25 32 -22 47 -26 108 -24 97 2 170 38 495 246 41 26 86 54 100 61 48 24 124 88 150 125 24 35 25 43 19 120 -4 53 -14 97 -27 124 -12 22 -18 44 -14 48 4 3 0 5 -8 3 -8 -2 -15 4 -16 12 0 8 -4 23 -9 32 -7 18 35 76 75 105 41 29 48 119 20 248 -8 37 -7 57 1 78 14 32 6 271 -9 290 -4 7 -9 22 -10 35 -1 33 -33 115 -48 128 -8 6 -11 14 -8 17 4 3 -5 20 -20 37 -14 18 -23 37 -19 43 4 6 0 8 -10 4 -11 -4 -15 -1 -12 14 2 10 -1 19 -6 19 -6 0 -8 4 -4 9 3 5 1 12 -5 16 -5 3 -10 1 -10 -6 0 -8 -4 -8 -15 1 -17 14 -20 35 -4 24 7 -4 1 8 -12 25 -50 68 -282 221 -336 221 -12 0 -23 5 -25 12 -2 6 -22 13 -44 14 -21 1 -47 5 -57 9 -21 9 -143 1 -171 -11 -14 -5 -17 -4 -12 4 8 14 -20 14 -74 1z m222 -124 c102 -20 239 -76 276 -112 13 -13 27 -23 32 -23 5 0 33 -22 62 -50 29 -27 59 -50 66 -50 7 0 11 -4 8 -9 -3 -5 3 -20 14 -33 10 -14 29 -49 41 -79 11 -30 26 -65 32 -79 5 -14 9 -28 9 -33 -1 -4 4 -38 12 -75 8 -37 17 -90 20 -118 6 -46 4 -52 -17 -63 -19 -10 -158 -12 -652 -9 -573 4 -628 6 -637 21 -5 10 -7 56 -4 105 5 90 22 144 76 253 17 32 31 62 31 66 1 5 10 14 20 21 11 7 19 20 19 28 0 8 10 22 21 32 12 9 36 29 53 44 95 82 182 132 246 142 19 3 36 9 38 15 2 5 10 7 18 4 8 -3 14 -1 14 4 0 10 151 8 202 -2z m511 -886 c53 -29 79 -96 57 -149 -15 -36 -21 -40 -63 -47 -45 -7 -67 -21 -67 -41 0 -34 29 -128 59 -194 17 -36 31 -71 31 -76 0 -6 8 -18 17 -27 15 -16 15 -19 -3 -52 -10 -20 -37 -47 -59 -61 -22 -14 -43 -30 -47 -36 -4 -6 -8 -8 -8 -3 0 4 -12 0 -27 -10 -27 -17 -37 -24 -66 -48 -7 -5 -34 -21 -60 -34 -26 -13 -47 -28 -47 -33 0 -5 -4 -7 -9 -4 -7 5 -85 -44 -101 -63 -3 -3 -17 -12 -32 -20 -15 -8 -37 -23 -48 -34 -12 -10 -27 -20 -33 -21 -7 -1 -26 -10 -44 -19 -54 -28 -50 -30 -218 78 -44 29 -105 65 -135 81 -30 16 -59 34 -65 40 -12 13 -281 177 -307 187 -21 8 -24 33 -4 40 8 3 22 27 32 54 9 26 24 56 32 66 8 9 12 17 8 17 -3 0 1 12 11 27 9 14 18 33 19 41 2 8 7 18 12 21 16 10 32 49 32 75 0 27 -28 49 -58 45 -33 -6 -89 30 -96 61 -7 37 17 118 41 136 24 18 1212 21 1246 3z" fill="#313131"></path><path id="pHtWWdWci" d="M2430 1082 c-19 -1 -42 -6 -50 -9 -8 -3 -19 -5 -24 -4 -13 3 -56 -40 -56 -56 0 -7 -5 -13 -10 -13 -6 0 -20 -21 -31 -47 -35 -81 -15 -194 45 -261 36 -41 70 -52 153 -52 102 0 138 18 175 90 15 29 32 58 38 64 15 15 12 104 -4 134 -8 15 -22 44 -32 65 -29 66 -101 98 -204 89z m71 -153 c9 -4 22 -22 29 -39 18 -44 -2 -85 -53 -110 -53 -26 -72 -25 -91 2 -29 41 -12 146 26 161 15 6 66 -2 89 -14z" fill="#313131"></path></g></g></svg>