<svg xmlns:xlink="http://www.w3.org/1999/xlink" class="img-fluid" id="outputsvg" xmlns="http://www.w3.org/2000/svg" style="transform: none; transform-origin: 50% 50%; cursor: move;" width="250" height="250" viewBox="0 0 2500 2500"><g id="l2D2JottDo5TQQD3YuKYoP2" fill="rgb(0,0,0)" style="transform: none;"><g><path id="p15Ag2TDkf" d="M1170 2183 c-214 -21 -406 -109 -558 -257 -89 -86 -122 -135 -39 -59 108 100 245 170 381 194 100 17 284 7 366 -21 210 -71 376 -214 465 -402 39 -83 75 -212 75 -271 l0 -40 -71 7 c-73 8 -99 -1 -99 -31 0 -21 259 -453 276 -460 8 -3 21 1 30 8 17 14 279 346 307 390 25 37 8 53 -70 64 l-68 10 -3 35 c-11 141 -69 305 -152 429 -151 225 -389 370 -658 401 -86 10 -112 10 -182 3z"></path><path id="pSBuOPxnr" d="M287 1461 c-86 -111 -157 -209 -157 -220 0 -29 21 -40 85 -43 l59 -3 13 -88 c27 -188 108 -357 237 -494 188 -200 438 -302 706 -290 197 10 361 68 517 186 66 50 183 168 183 185 0 2 -23 -17 -51 -45 -92 -90 -205 -154 -336 -191 -89 -25 -271 -30 -358 -9 -232 55 -424 207 -525 415 -46 95 -80 215 -80 283 l0 28 82 0 c77 0 83 2 86 21 2 14 -46 104 -126 240 -107 180 -134 220 -154 222 -21 3 -47 -26 -181 -197z"></path></g></g></svg>