<svg xmlns:xlink="http://www.w3.org/1999/xlink" class="img-fluid" id="outputsvg" xmlns="http://www.w3.org/2000/svg" style="transform: none; transform-origin: 50% 50%; cursor: move;" width="220" height="220" viewBox="0 0 2200 2200"><g id="l7inxD6v3EjsG2wN5FQSNYo" fill="rgb(0,0,0)" style="transform: none;"><g style="transform: none;"><path id="pIKNh3mjf" d="M570 2070 c-61 -34 -81 -50 -62 -50 9 0 12 -88 12 -368 l0 -368 -54 51 c-68 64 -171 120 -272 145 -105 27 -110 26 -124 -16 -7 -19 -10 -36 -8 -38 1 -1 39 -10 83 -19 116 -24 211 -74 278 -147 58 -63 97 -144 97 -203 0 -39 15 -57 46 -57 29 0 31 4 43 77 13 81 43 136 105 198 197 192 585 192 782 0 62 -62 92 -117 105 -198 12 -73 14 -77 43 -77 31 0 46 18 46 57 0 59 39 140 97 203 66 71 158 121 270 146 43 9 80 18 81 20 9 7 -21 74 -32 74 -7 0 -47 -9 -90 -20 -101 -25 -204 -81 -272 -145 l-54 -51 0 368 c0 288 3 368 13 368 17 1 -18 27 -76 56 -83 43 -184 20 -151 -33 8 -13 29 -19 70 -23 l59 -5 3 -369 2 -369 -57 55 c-70 65 -129 101 -226 136 -65 24 -86 26 -222 26 -136 0 -157 -2 -222 -26 -97 -35 -156 -71 -226 -136 l-57 -55 2 369 3 369 59 5 c66 6 90 26 70 58 -20 31 -100 27 -164 -8z"></path><path id="pGuVFt1Hj" d="M770 930 c-7 -13 -10 -150 -8 -420 3 -343 5 -402 18 -410 20 -13 630 -13 650 0 13 8 15 67 18 410 2 270 -1 407 -8 420 -10 19 -21 20 -335 20 -314 0 -325 -1 -335 -20z m590 -410 l0 -350 -255 0 -255 0 0 350 0 350 255 0 255 0 0 -350z"></path></g></g></svg>