<svg xmlns:xlink="http://www.w3.org/1999/xlink" class="img-fluid" id="outputsvg" xmlns="http://www.w3.org/2000/svg"  width="200" height="200" viewBox="0 0 2000 2000"><path id="pD9tAQnZQ" d="M947 1900 c-73 -58 -26 -180 69 -180 35 0 94 59 94 94 0 86 -98 137 -163 86z"></path><path id="p14lZIiVzP" d="M770 1787 c-161 -80 -279 -264 -280 -434 l0 -52 83 -3 82 -3 3 -37 c3 -36 0 -39 -52 -73 -30 -19 -57 -35 -60 -35 -3 0 -6 17 -8 38 -2 29 -7 37 -23 37 -18 0 -20 -8 -23 -77 -3 -73 -2 -78 18 -78 11 0 44 16 73 35 28 19 57 35 64 35 10 0 13 -29 13 -115 l0 -115 -69 0 c-105 0 -101 5 -101 -124 0 -123 15 -197 56 -278 31 -61 129 -168 154 -168 37 0 28 29 -25 85 -90 96 -135 213 -135 355 l0 70 58 0 58 0 22 -45 c23 -48 66 -81 120 -91 26 -5 36 -15 51 -48 21 -48 43 -70 94 -91 36 -15 37 -17 37 -65 0 -42 -3 -50 -18 -50 -37 0 -109 -56 -132 -104 -33 -69 -26 -160 16 -213 97 -122 276 -106 346 31 28 54 22 149 -12 199 -27 39 -94 87 -122 87 -15 0 -18 8 -18 48 0 47 1 50 39 67 48 21 75 49 95 96 12 29 22 38 48 43 54 10 97 43 120 91 l22 45 58 0 58 0 0 -63 c0 -149 -43 -265 -135 -361 -57 -61 -63 -79 -28 -84 28 -4 129 107 164 182 39 83 50 145 47 272 l-3 109 -82 3 -83 3 0 114 c0 86 3 115 13 115 7 0 36 -16 64 -35 29 -19 62 -35 73 -35 20 0 21 5 18 78 -3 69 -5 77 -23 77 -16 0 -21 -8 -23 -37 -2 -21 -5 -38 -8 -38 -3 0 -30 16 -60 35 -52 34 -55 37 -52 73 l3 37 83 3 82 3 0 52 c-1 168 -124 359 -284 437 -67 33 -96 34 -96 2 0 -12 20 -28 63 -49 83 -41 166 -118 205 -191 31 -58 66 -178 56 -194 -3 -4 -29 -8 -58 -8 l-53 0 -7 38 c-16 97 -99 207 -189 251 -98 48 -216 48 -314 0 -90 -44 -173 -154 -189 -251 l-7 -38 -59 0 -59 0 6 38 c27 156 110 273 250 349 50 28 70 44 70 58 0 30 -24 28 -95 -8z m210 -436 c0 -317 6 -301 -115 -301 -51 0 -82 -6 -110 -20 -22 -11 -41 -20 -42 -20 -8 0 -1 337 8 380 24 111 143 222 247 229 9 1 12 -59 12 -268z m162 238 c60 -31 105 -76 135 -137 27 -55 28 -62 31 -249 2 -106 2 -193 0 -193 -2 0 -21 9 -43 20 -28 14 -59 20 -110 20 -121 0 -115 -16 -115 301 l0 271 33 -7 c17 -4 49 -16 69 -26z m-91 -579 c31 -13 66 -20 115 -20 83 0 115 -18 134 -75 15 -44 -1 -96 -37 -125 -24 -19 -40 -20 -253 -20 -211 0 -229 1 -252 20 -39 30 -53 73 -39 120 18 61 50 80 135 80 61 0 104 12 152 39 1 1 21 -8 45 -19z m79 -309 c0 -20 -53 -70 -85 -81 -26 -9 -44 -9 -70 0 -32 11 -85 61 -85 81 0 5 53 9 120 9 67 0 120 -4 120 -9z"></path></svg>