<svg xmlns:xlink="http://www.w3.org/1999/xlink" class="img-fluid" id="outputsvg" xmlns="http://www.w3.org/2000/svg" style="transform: none; transform-origin: 50% 50%; cursor: move;" width="430" height="430" viewBox="0 0 4300 4300"><g id="l3iAN6hY3U6u8NYHySltPfb" fill="#3A3A3A" style="transform: none;"><g style="transform: none;" fill="#3A3A3A"><path id="pdEmmsGVH" d="M433 3619 c-124 -21 -229 -83 -288 -172 -115 -173 -120 -437 -12 -640 57 -108 153 -182 340 -262 l88 -38 29 28 c97 93 39 193 -154 265 -106 40 -148 127 -126 260 14 84 68 198 111 234 56 47 119 55 231 30 190 -43 486 -200 720 -381 219 -169 572 -519 723 -718 54 -71 123 -157 153 -189 60 -66 75 -94 59 -115 -14 -17 -147 -8 -267 19 -47 11 -141 29 -210 40 -193 33 -296 73 -322 127 -7 15 -19 28 -26 31 -19 6 -50 -74 -60 -159 -15 -117 -12 -123 69 -153 125 -47 313 -86 409 -86 23 0 39 -4 36 -9 -3 -5 -54 -28 -113 -51 -60 -24 -148 -65 -198 -91 -140 -75 -336 -119 -530 -119 -164 -1 -215 -38 -215 -157 0 -68 23 -122 60 -140 17 -8 52 -11 110 -7 61 5 105 2 155 -10 98 -24 255 -88 339 -141 39 -24 110 -62 158 -84 48 -22 130 -65 181 -95 88 -51 242 -118 297 -130 14 -3 63 -14 110 -25 200 -46 441 -51 635 -12 283 57 307 67 468 180 164 116 327 215 403 245 76 31 244 76 283 76 14 0 31 4 38 8 38 24 58 167 28 208 -11 17 -29 23 -87 28 -152 15 -428 88 -603 160 -90 38 -113 51 -103 61 2 3 68 9 146 15 171 11 224 29 240 81 13 43 24 279 13 279 -4 0 -28 -15 -52 -34 -119 -90 -203 -109 -484 -110 -219 0 -377 14 -425 39 -49 25 -53 58 -47 379 6 305 19 431 58 561 30 98 56 146 148 269 45 59 84 119 87 133 15 59 -38 87 -217 113 -190 28 -328 35 -432 21 -163 -22 -243 -69 -254 -147 -5 -37 -3 -40 35 -62 79 -44 168 -168 215 -299 58 -161 92 -598 52 -663 -9 -15 -64 37 -148 140 -123 150 -651 690 -822 840 -197 172 -447 325 -630 385 -78 25 -258 56 -316 54 -19 -1 -57 -5 -86 -10z m2177 -1989 c11 -22 46 -80 78 -128 84 -128 107 -209 107 -382 0 -122 -2 -140 -24 -183 -33 -67 -71 -90 -142 -84 -116 10 -235 100 -265 203 -29 100 -5 197 106 431 60 126 94 183 110 183 5 0 19 -18 30 -40z m-410 -80 c0 -5 -21 -42 -47 -81 -75 -117 -85 -152 -92 -329 l-6 -155 -25 -4 c-15 -2 -66 18 -135 52 -60 30 -181 89 -268 131 -87 41 -160 83 -164 92 -9 24 17 40 100 59 40 10 126 42 191 72 66 30 163 72 215 93 53 21 116 48 141 59 48 22 90 27 90 11z m1064 -169 c192 -50 251 -67 322 -97 l39 -16 -29 -23 c-49 -39 -393 -197 -441 -203 l-44 -4 -10 40 c-6 22 -16 89 -22 149 -5 59 -14 124 -19 143 -13 46 -12 60 1 60 6 0 97 -22 203 -49z" fill="#3A3A3A"></path><path id="pLHgebPOx" d="M3865 991 c-61 -20 -96 -41 -240 -142 -125 -87 -218 -136 -388 -203 -284 -112 -488 -151 -747 -143 -293 9 -441 65 -869 325 -74 45 -162 90 -195 101 -120 39 -354 74 -425 63 -46 -6 -59 -34 -63 -135 l-3 -87 55 -21 c30 -11 120 -34 200 -50 80 -16 179 -40 220 -55 76 -26 343 -161 480 -242 182 -108 301 -154 457 -177 183 -28 462 -13 685 35 117 25 301 115 551 269 239 147 328 182 521 208 47 6 63 13 78 34 18 24 19 31 8 87 -24 119 -67 152 -197 151 -46 0 -99 -7 -128 -18z" fill="#3A3A3A"></path></g></g></svg>