<svg xmlns="http://www.w3.org/2000/svg" viewBox="0 0 981 704" width="981" height="704"><path d="M448.317,91.741l-79.409,-2.892l-65.438,6.913l-92.694,1.029l-135.24,0.981l-10.195,-43.137c0,0 1.274,-42.254 2.45,-42.156c17.157,1.423 34.461,-4.021 51.617,-4.951c27.009,4.51 67.599,8.285 69.607,8.48l185.533,-2.989l70.784,1.766l-0.344,3.873v0.589l0.098,24.216v0.293l0.05,0.293l3.626,39.655z" /> <path d="M443.575,366.341l-218.524,-11.715l-64.801,4.901h-39.069l-31.422,-2.547c0,0 0.93,-51.765 1.274,-60.44c1.912,-0.145 3.872,-0.293 5.834,-0.391c8.822,-0.488 17.94,-0.687 27.056,-0.637c0.149,0 0.293,0.05 0.442,0.05c6.322,0.344 12.742,0.539 19.655,0.539c0.293,0 0.539,0 0.832,0c3.528,0.148 7.01,0.293 10.441,0.539c25.931,1.665 51.812,1.321 77.743,0.391c67.939,4.07 174.798,6.177 175.974,6.177l32.988,-0.149z" /> <path d="M447.93,113.159l-4.56,72.499l-217.493,-0.391l-113.87,-1.766l-35.88,0.195l-8.773,-63.527c27.007,-0.341 56.516,-1.469 56.516,-1.469l184.895,5.198l31.617,-3.528l90.83,-7.745z" /> <path d="M440.92,244.48l0.883,37.4l-56.615,0.246c0,0 -136.123,-2.599 -204.355,-7.745c-32.059,-2.45 -59.068,1.716 -93.968,-0.195c-1.372,-0.098 -2.599,-0.242 -3.873,-0.391l-0.293,-1.715l-5.49,-64.657l-0.149,-1.128l36.077,-0.195h0.246l30.538,6.617c0,0 33.772,-2.009 84.359,-4.705l214.699,0.442l-2.06,35.538v0.246z" /> <path d="M444.593,423.16c-0.341,2.696 -1.815,15.536 -3.284,31.273l-82.302,-2.06l-183.816,2.943c0,0 -53.283,-4.805 -78.282,-9.805c-0.93,-9.999 -1.911,-19.999 -2.892,-30.048l-0.49,-3.383l-0.05,-0.589l-0.098,-2.06v-0.344c-0.933,-9.363 -1.914,-19.214 -2.844,-29.362l30.98,-0.05l27.842,-2.157c44.167,1.028 83.38,2.794 83.38,2.794l41.961,-0.734l139.407,7.695l29.608,-0.49z" /> <path d="M909.476,25.172c1.766,30.981 1.669,36.42 1.52,66.763c-20.44,1.96 -61.665,1.371 -61.665,1.371l-80.388,-3.482l-101.466,9.411l-149.554,-5.44c0.098,-1.716 0.195,-3.431 0.293,-5.049v-0.734c-0.638,-13.087 -1.177,-30.244 0.05,-47.4c0.098,-2.008 0.195,-4.118 0.293,-6.225l0.05,-0.195v-0.93c-0.051,-4.217 0.047,-8.089 0.293,-11.864v-0.195l0.05,-0.49c0,-2.057 -0.048,-4.017 -0.098,-5.979l8.234,-0.442c55.245,2.992 110.436,3.872 165.632,4.461l4.119,0.293l0.93,0.05c0.051,0 2.353,-0.097 6.03,-0.195c45.587,0.49 91.126,1.078 136.663,2.745l14.216,2.107l1.423,-0.293c0.051,0 2.45,-0.442 5.932,-0.981c15.834,0.734 31.617,1.568 47.451,2.696z" /> <path d="M877.872,394.968c2.599,22.55 0.981,65.636 0.981,65.636l-43.137,1.962l-32.156,-4.56c0,0 -21.669,0 -32.403,-0.589c-23.481,-1.325 -91.42,0.832 -91.42,0.832l-110.095,-7.745l-57.009,2.943l-0.883,-7.647l-0.344,-54.164l0.637,-5.783l172.594,-2.844c8.875,0.934 101.518,10.637 146.37,10.687c6.076,0 22.793,-1.96 31.468,-2.989c5.146,1.617 10.246,3.477 15.392,4.263z" /> <path d="M903.846,176.549l-81.96,3.873l-57.792,1.079l-97.252,-2.45l-116.272,-1.325l-35.637,3.185c0.492,-17.697 1.325,-43.871 2.599,-65.93l87.548,2.745l161.27,-2.206l51.175,2.206l87.938,-2.404l0.539,28.674z" /> <path d="M898.506,277.476c-9.954,2.65 -21.864,1.227 -21.864,1.227l-53.039,1.469l-308.521,1.423l-0.688,-63.48c0,-0.148 0.098,-5.538 0.293,-13.97l45.097,-4.263l117.645,1.371l99.458,2.696l58.331,-1.227c0,0 10.149,0.243 23.872,0.293c3.333,0.199 6.717,0.245 10.148,0.05c0.293,0 0.637,-0.05 0.93,-0.05c12.845,-0.097 23.774,-0.393 32.942,-0.883l-4.607,75.34z" /> <path d="M889.089,371.285c-8.038,0.883 -17.157,1.766 -20.98,1.766c-46.027,0 -145.534,-10.293 -145.534,-10.293l-209.799,3.333l2.844,-24.46v-0.734l-0.442,-38.088l89.9,-0.442l63.871,6.276l92.103,-0.05l75.635,-7.057c0,0 31.422,6.03 44.216,5.198c3.482,-0.246 11.371,-0.051 16.666,0.098l-0.391,5.834z" /> <path d="M61.423,492.22v1.079c-4.464,6.322 -1.67,19.506 5.341,9.753c3.924,-5.439 1.572,-15.095 -5.341,-10.832zM44.999,424.378c11.567,6.081 19.069,-15.243 5.588,-16.322c-0.786,1.078 -0.786,2.057 -1.325,3.185h2.206c-4.903,1.472 -6.276,8.089 -6.471,13.138zM50.637,339.185c4.509,-6.468 -0.493,-13.53 -6.913,-9.95c-1.567,6.567 -1.469,22.009 6.913,9.95zM37.302,240.511c-5.634,2.497 -7.449,14.607 2.501,12.106c13.089,-3.234 4.019,-21.027 -2.745,-12.106h0.246zM27.01,150.027c-4.019,18.921 8.676,15.884 6.569,-1.371c-2.548,-0.493 -4.607,0.097 -6.569,1.371c0,-0.149 0.05,-0.247 0.05,-0.442l-1.079,1.128c0.341,-0.246 0.685,-0.442 1.029,-0.688zM20.589,70.713c17.107,9.218 13.575,-27.007 0.93,-15.341h1.128c-2.255,4.36 -2.943,10.242 -2.06,15.341zM87.69,528.004c0.144,2.058 0.195,4.117 0.293,6.177l-24.9,0.391c-1.078,-0.051 -4.166,-0.246 -8.234,-0.246c-2.794,0 -5.295,0.097 -7.647,0.246c-0.539,-5.686 -0.883,-9.707 -0.883,-9.707l-3.138,-53.969l-11.813,-67.055l-9.805,-177.643l-17.108,-136.124l-3.97,-83.479c0,0 25.443,-2.499 43.039,-4.461c0,0.786 0,1.618 0.05,2.404c0.293,11.571 4.509,22.747 6.127,34.118c-0.884,18.383 -0.442,45.83 -0.442,47.155l0.05,0.293l13.528,123.428l5.49,74.949l2.745,19.116c1.815,37.154 4.807,74.113 7.992,111.025l0.098,2.745l0.05,0.637c0,0.051 0.197,1.571 0.49,4.021c2.599,30.492 5.197,60.98 7.108,91.518l-0.293,9.656l0.293,0.93c0,0.05 0.393,1.618 0.883,3.873z" /> <path d="M949.288,55.026c-9.657,4.853 -4.366,15.885 3.626,18.432c3.138,-5.885 10.344,-25.391 -3.626,-18.432zM941.246,144.782c-3.627,2.157 -5.733,6.666 -5.44,11.273c20.538,3.924 11.814,-17.744 5.44,-11.273zM942.421,248.944c2.845,-6.912 -4.558,-12.794 -10.097,-7.354l1.128,3.333c-2.255,8.53 5.54,12.354 8.971,4.021zM930.169,356.978c5.832,-4.216 3.577,-12.254 -2.501,-13.235c0.442,-0.493 0.883,-0.883 1.325,-1.227l-3.333,1.079c0.734,-0.046 1.371,0.051 2.008,0.149c-5.439,6.029 -8.285,21.078 2.501,13.235zM918.059,443.202c16.764,3.038 8.823,-20.294 4.314,-10.883h2.206c-4.705,-0.783 -7.35,5.784 -6.518,10.883zM911.445,511.973c15.49,1.813 17.01,-11.52 4.509,-16.322c-0.832,1.078 -0.832,2.009 -1.371,3.185v1.079c-3.482,2.989 -3.924,7.499 -3.138,12.059zM937.086,3.463c13.382,-0.638 43.43,2.305 43.43,2.305l-5.539,30.292l-4.217,22.008c0,0 -0.981,15.002 -1.864,22.403c-1.86,16.175 -3.724,63.282 -3.724,63.282l-9.707,75.734l-1.371,61.272l-6.764,76.273l-6.815,127.251c0,0 -5.444,37.644 -9.609,54.36c-0.048,0.195 -0.048,0.442 -0.098,0.637c-1.13,-0.097 -2.354,-0.148 -3.482,-0.246c-8.382,-0.785 -17.057,-1.571 -26.764,-1.864c-2.744,-0.097 -5.588,-0.145 -8.382,-0.195l1.274,-19.363v-19.411c2.695,-30.493 5.539,-57.549 5.539,-57.549l1.52,-29.018l11.028,-96.027l9.51,-179.112c0.98,-6.028 10.979,-69.656 13.086,-100.684c0.296,-4.215 -0.098,-15.832 -0.293,-21.91c1.176,-3.482 2.502,-6.913 3.236,-10.441z" /> <path d="M487.73,59.583c5.982,-4.509 2.352,-15.146 -5.244,-14.216l0.539,1.128c-0.198,0.051 -0.343,0.051 -0.589,0.149c-3.087,4.609 -3.236,19.413 5.295,12.942zM485.139,344.186c4.314,-7.011 -2.697,-12.697 -7.011,-8.824c-0.689,-0.54 -0.884,-1.031 -2.404,-0.442c-3.09,7.745 2.893,19.952 9.411,9.265zM483.562,503.837c7.109,-6.369 -3.138,-19.702 -7.303,-10.39c-0.097,0 -0.148,0 -0.246,0c-2.696,6.076 -0.488,17.693 7.55,10.39zM478.026,412.371c-2.892,2.892 -2.989,7.303 -3.138,12.008c10.591,2.254 12.943,-16.276 -0.195,-13.138zM485.622,245.123c-2.943,-0.638 -6.179,-0.395 -8.726,0.93l2.255,-4.412c-17.94,11.815 11.372,22.893 6.471,3.482zM475.818,151.837c-7.155,25.881 25.639,1.079 1.325,0.098c-0.344,1.176 0,2.06 -0.246,3.236l-1.079,-3.333zM504.544,23.453c0,0.149 0,0.246 0,0.344c-0.243,4.361 -0.343,8.824 -0.293,13.626c0,0.198 0,0.394 0,0.589c-0.098,2.404 -0.195,4.854 -0.344,7.206c-1.129,17.989 -0.784,35.98 -0.05,53.92c-2.647,47.154 -3.773,121.271 -3.823,122.103v0.05l1.227,127.644l-4.217,44.313l0.344,63.871l5.198,52.449c0,0 -2.501,13.184 -3.333,23.184l-47.01,0.149c-0.048,-0.442 -0.098,-1.032 -0.098,-1.325c-0.098,-31.91 6.815,-100.927 6.815,-100.927l-3.677,-179.112l7.843,-157.741l-3.677,-44.899l-0.098,-27.108l1.667,-21.812c0,0 36.616,0.493 42.743,0.688c0.098,1.372 0.195,2.697 0.293,4.068c0.341,6.127 0.54,12.404 0.49,18.726z" /> <path d="M296.167,627.998c20.637,-16.959 2.01,-42.202 -19.51,-28.479c-11.274,-3.774 -13.677,16.714 -10.637,23.822c5.982,13.872 19.757,13.189 30.147,4.658zM349.21,564.623c17.988,23.186 19.755,57.107 11.666,84.41c-6.178,20.683 -22.403,35.782 -42.156,43.625c-44.95,17.791 -103.279,0.39 -119.211,-48.53c-6.816,-20.932 -5.542,-48.577 5.341,-69.803c6.959,-13.528 20.682,-27.107 34.801,-33.332c8.53,-3.773 13.774,-5.195 22.793,-5.539c31.422,-1.223 65.684,1.913 86.762,29.167z" /> <path d="M654.344,606.386l7.745,-3.333c-32.747,11.861 -6.471,42.254 15.783,26.959c21.371,-14.754 -6.372,-36.909 -23.528,-23.626zM601.304,561.041c70.24,-89.948 214.993,49.509 116.613,125.634c-49.752,38.53 -128.526,9.609 -136.221,-54.508c-2.743,-22.991 4.169,-51.321 19.609,-71.125z" /> <path d="M197.352,570.501c-2.548,4.998 -4.558,10.391 -6.225,15.979l-12.008,-0.195l-60.979,0.734c0,0 -10.636,-0.145 -25.048,-0.195c-3.482,-0.098 -6.959,-0.149 -10.539,0c-0.344,0 -0.688,0 -0.981,0c-15.932,0.051 -29.217,0.297 -39.706,0.688c-1.032,-0.048 -2.11,-0.048 -3.04,-0.098c-0.688,-11.962 4.802,-29.46 1.469,-39.804c8.038,-6.373 34.509,-4.607 34.509,-4.607l55.438,-0.832l91.663,-0.246c-10.099,7.597 -19.02,17.791 -24.559,28.577z" /> <path d="M594.636,555.848c-6.325,8.088 -11.374,17.646 -15.098,27.892l-78.331,-0.098l-95.046,5l-36.029,-0.246c-2.841,-10.195 -7.448,-20.097 -14.263,-28.921c-5.881,-7.6 -12.597,-13.384 -19.753,-17.893l240.239,-0.637c0,0 12.645,0.145 32.254,0.391c-4.951,4.165 -9.656,8.97 -13.97,14.509z" /> <path d="M933.699,548.933c0.488,9.168 1.618,23.775 0.93,35.834l-73.722,0.246l-32.156,-3.823c0,0 -31.566,1.032 -79.654,2.501c-8.088,-16.08 -20.245,-30 -34.559,-40.441c27.744,0.637 54.703,1.372 75.586,2.255c33.528,1.372 61.811,-1.03 98.282,0.098c16.373,0.489 29.656,2.45 45.294,3.333z" /> <path d="M440.67,468.161c-1.567,19.901 -2.942,42.057 -2.892,56.813c0,0.344 0.05,0.883 0.05,1.325l-125.338,0.344c-15.784,-5.442 -32.157,-6.471 -45.392,-6.471c-3.674,0 -7.303,0.097 -10.929,0.246c-9.753,0.391 -16.029,1.911 -25.88,6.225c-0.149,0.046 -0.246,0.145 -0.344,0.195l-105.683,0.293l-21.864,0.293c-0.098,-2.109 -0.195,-4.216 -0.344,-6.471l-0.05,-0.688l-0.149,-0.688c-0.44,-2.013 -0.781,-3.482 -0.93,-4.021l0.246,-8.382v-0.786c-0.979,-15.291 -2.108,-30.391 -3.284,-45.537c2.84,-0.393 5.685,-0.734 8.577,-0.883c27.451,5.048 68.725,9.265 70.733,9.46l188.624,-3.383l74.852,2.107z" /> <path d="M861.25,476.688c6.374,0.344 12.696,0.832 19.07,1.176c-0.39,4.216 -0.785,8.577 -1.176,12.989l-0.05,0.344v19.46l-1.274,19.609c-1.518,-0.05 -2.941,-0.05 -4.461,-0.05c-9.656,0 -18.87,0.149 -27.94,0.344c-8.675,0.144 -17.252,0.293 -25.978,0.293c-8.285,0 -15.833,-0.149 -22.989,-0.442c-24.412,-1.027 -57.302,-1.859 -89.998,-2.547c-13.531,-7.059 -28.184,-11.127 -42.842,-11.127c-13.281,0 -25.732,3.379 -36.958,9.753c-25.932,-0.394 -43.726,-0.589 -44.216,-0.589l-68.724,0.195c0.591,-6.861 2.059,-15.931 3.138,-21.617l0.246,-1.227l-0.149,-1.176l-3.383,-34.165l7.206,-0.442c56.126,3.382 112.252,4.361 168.378,5.049l4.165,0.344h0.93c0.097,0 2.403,-0.097 6.127,-0.195c46.373,0.54 92.643,1.223 138.918,3.087l14.46,2.352l1.469,-0.344c0.051,0 2.502,-0.49 6.03,-1.079z" /> <path d="M573.319,639.13c0.247,1.962 0.637,3.826 0.981,5.737l-130.243,-0.786c0,0 -44.46,-2.107 -66.714,-5.44c-1.518,-0.195 -2.992,-0.243 -4.461,-0.293c1.422,-11.468 1.422,-23.872 -0.93,-36.126c4.851,-0.395 12.254,-1.032 21.468,-1.766l74.703,1.325l29.753,-4.607l38.431,1.371l32.5,2.008l7.499,-0.149c-3.333,12.845 -4.509,26.224 -2.989,38.725z" /></svg>