<svg xmlns="http://www.w3.org/2000/svg" viewBox="0 0 834 636" width="834" height="636"><path d="M251.628,53.801c-3.584,1.629 -6.208,3.527 -8.071,5.753c-0.86,1.024 -1.372,2.084 -2.112,3.136c-0.989,1.401 -2.66,2.247 -3.947,3.328c-2.353,1.963 -4.458,3.961 -6.805,5.924c-1.344,1.124 -2.255,1.942 -3.812,2.802c-1.144,0.626 -2.36,1.181 -3.292,2.105c-1.828,1.806 -2.987,3.662 -4.217,5.959c-0.548,1.024 -1.621,2.41 -1.977,3.342c-0.583,1.543 -0.235,1.749 0.455,3.072c0.625,1.187 1.052,2.247 1.941,3.086c0.64,0.612 1.763,1.394 2.51,1.828c1.223,0.718 2.488,1.358 3.868,1.621c1.159,0.22 2.944,-0.15 3.506,1.173c2.325,-1.678 4.992,2.368 7.054,2.887c1.124,0.284 2.83,-0.619 3.648,-1.259c1.032,-0.804 1.579,-2.233 2.788,-3.3c1.821,-1.593 3.812,-2.873 5.739,-4.338c1.195,-0.91 2.012,-1.657 2.951,-2.83c0.974,-1.216 1.628,-2.496 2.652,-3.712c0.882,-1.038 1.949,-1.991 2.617,-3.257c0.874,-1.671 1.066,-3.292 1.678,-4.956c0.398,-1.095 1.415,-2.34 2.005,-3.321c0.768,-1.28 1.415,-2.475 2.204,-3.776c1.344,-2.226 2.631,-4.601 4.316,-6.5c1.927,-2.161 4.004,-4.074 5.625,-6.492c1.664,-2.474 4.039,-3.975 5.995,-6.222c2.162,-2.482 4.039,-5.241 6.201,-7.723c4.245,-4.886 8.732,-9.743 12.693,-14.763c2.695,-3.413 6.827,-5.063 9.643,-8.341c2.148,-2.503 3.968,-5.007 6.642,-7.019c4.921,-3.712 8.334,-10.823 15.737,-10.076c2.112,0.213 3.883,-0.192 5.995,0.007c1.856,0.178 3.449,-0.654 5.255,-0.825c1.266,-0.121 2.332,-0.512 3.47,-0.619c0.854,-0.078 1.75,0.526 2.603,0.448c0.782,-0.078 0.932,-0.633 1.721,-0.711c1.905,-0.192 3.996,0.974 5.916,0.896c0.96,-0.035 1.692,-0.562 2.652,-0.583c0.91,-0.022 1.6,0.313 2.546,0.206c3.499,-0.398 6.635,-0.612 10.276,-0.114c2.232,0.299 4.501,0.754 6.748,0.939c1.821,0.149 3.293,-0.42 5.163,-0.164c1.671,0.235 2.574,0.974 4.089,1.458c0.768,0.248 1.736,0.135 2.532,0.284c1.081,0.199 1.465,0.626 2.432,1.017c1.856,0.753 3.89,1.095 5.753,1.813c1.621,0.625 3.271,1.578 4.814,2.396c2.909,1.55 5.227,3.256 7.844,5.148c6.208,4.494 13.241,8.363 18.731,13.703c1.514,1.472 2.887,3.001 4.508,4.473c1.622,1.465 2.632,2.717 3.876,4.409c1.906,2.602 5.177,4.281 7.438,6.542c2.659,2.674 5.561,5.418 8.398,7.822c2.041,1.721 4.075,3.541 6.087,5.326c1.6,1.422 3.705,2.112 5.397,3.292c1.372,0.953 2.482,1.999 4.103,2.731c3.192,1.45 5.824,4.202 9.052,5.838c1.806,0.917 3.456,1.82 5.148,2.958c1.785,1.194 3.776,1.685 5.646,2.702c3.42,1.863 7.04,3.214 10.453,5.049c3.719,1.998 7.353,4.331 11.086,6.279c1.849,0.96 3.826,1.685 5.682,2.681c1.578,0.846 3.25,1.515 4.814,2.375c3.313,1.814 7.047,3.094 10.524,4.658c3.299,1.479 6.528,2.93 9.884,4.16c2.005,0.733 4.074,1.629 6.158,2.34c0.853,0.291 1.899,0.206 2.688,0.519c0.881,0.341 1.493,1.003 2.396,1.28c1.742,0.526 3.2,0.874 4.914,1.692c1.544,0.732 3.2,1.678 4.836,2.204c1.572,0.505 3.591,0.456 5.241,0.676c0.953,0.128 2.29,0.085 3.207,0.398c0.896,0.299 1.465,0.996 2.375,1.273c1.643,0.498 3.278,1.066 4.935,1.486c1.785,0.448 3.151,1.529 4.843,2.183c1.856,0.711 3.705,1.266 5.54,1.998c0.349,0.135 0.349,0.633 0.889,0.832c0.818,0.313 1.686,0.142 2.546,0.498c3.186,1.287 6.713,2.048 9.778,3.719c6.13,3.349 12.33,5.475 18.51,8.725c2.816,1.479 5.276,3.435 7.822,5.163c2.901,1.97 5.931,3.407 8.697,5.668c2.816,2.304 5.461,4.822 8.256,7.154c2.865,2.389 5.838,5.184 8.348,8.021c1.892,2.141 3.691,4.182 5.76,6.123c2.34,2.197 4.288,4.928 6.5,7.125c3.598,3.584 7.644,7.766 9.429,12.651c1.052,2.872 3.114,5.226 4.046,8.028c0.896,2.724 1.401,5.305 1.877,8.185c0.648,3.883 1.451,7.58 1.892,11.399c0.355,3.15 0.035,6.343 0.412,9.486c0.142,1.209 -0.285,2.211 -0.299,3.406c-0.007,0.832 0.377,1.344 0.42,1.941c0.121,1.607 -0.256,3.257 -0.476,4.885c-0.227,1.678 -0.32,3.058 -0.213,4.686c0.05,0.69 0.085,1.493 0.135,2.176c0.035,0.611 0.37,1.507 0.398,1.941c0.071,1.095 -0.328,2.112 -0.292,3.2c0.028,0.96 0.547,1.692 0.583,2.652c0.028,0.839 -0.519,1.714 -0.441,2.553c0.078,0.789 0.633,0.932 0.711,1.721c0.078,0.854 -0.526,1.75 -0.448,2.603c0.078,0.789 0.64,0.932 0.711,1.721c0.049,0.541 -0.249,1.173 -0.299,1.721c-0.107,1.095 0.206,1.572 0.327,2.61c0.235,1.962 -0.476,3.953 -0.64,5.916c-0.143,1.792 0.327,3.314 0.149,5.163c-0.299,3.1 0.711,6.378 0.455,9.486c-0.313,3.805 -0.377,7.24 -0.69,11.044c-0.263,3.121 0.668,6.357 0.448,9.493c-0.242,3.563 -0.328,6.749 0.092,10.297c0.377,3.115 -0.875,6.578 -1.145,9.707c-0.27,3.165 0.989,6.706 1.209,10.034c0.163,2.56 0.604,5.425 1.486,7.893c0.882,2.454 1.636,5.974 0.569,8.69c-0.292,0.74 -0.861,0.732 -1.145,1.472c-0.313,0.804 0.029,1.82 -0.27,2.624c-0.42,1.102 -1.622,2.261 -2.027,3.292c-2.198,5.668 -7.88,10.446 -13.028,13.689c-2.168,1.359 -4.231,3.094 -6.172,4.708c-2.268,1.877 -5.013,2.574 -7.438,4.124c-4.423,2.816 -8.049,6.656 -12.06,9.913c-2.339,1.906 -4.387,4.082 -6.805,5.924c-2.51,1.906 -4.963,3.215 -7.708,4.708c-6.237,3.385 -12.373,7.666 -19.321,9.614c-3.513,0.981 -6.884,0.775 -10.404,0.86c-3.47,0.085 -6.969,1.493 -10.446,1.209c-1.962,-0.164 -3.953,-0.875 -5.916,-0.64c-1.578,0.185 -2.624,0.32 -4.245,0.085c-3.876,-0.569 -7.758,-1.067 -11.634,-1.593c-8.298,-1.138 -16.803,-1.842 -24.654,-4.423c-4.928,-1.628 -9.756,-3.178 -14.805,-4.366c-2.183,-0.512 -3.904,-1.479 -6.215,-1.756c-2.659,-0.313 -4.885,-1.329 -7.452,-1.877c-5.476,-1.166 -10.638,-3.42 -16.05,-4.814c-4.694,-1.209 -9.394,-2.332 -14.059,-3.776c-2.994,-0.932 -6.002,-1.892 -9.024,-2.738c-2.524,-0.711 -5.518,-1.393 -7.836,-2.581c-3.911,-1.998 -8.412,-3.214 -12.622,-4.508c-8.604,-2.638 -16.697,-6.947 -25.237,-9.671c-9.394,-3.001 -18.005,-8.697 -26.432,-13.71c-4.978,-2.966 -10.034,-5.895 -15.111,-8.69c-2.076,-1.145 -3.811,-2.638 -5.909,-3.833c-1.6,-0.911 -3.164,-1.878 -4.757,-2.795c-7.388,-4.266 -14.329,-9.081 -21.703,-13.262c-4.573,-2.588 -8.59,-6.058 -13.17,-8.654c-3.719,-2.105 -7.474,-4.473 -10.866,-7.061c-2.148,-1.635 -4.395,-2.801 -6.642,-4.309c-2.29,-1.543 -4.103,-3.292 -6.201,-4.992c-1.949,-1.586 -4.232,-2.923 -6.244,-4.423c-2.076,-1.55 -3.882,-3.427 -5.973,-4.942c-7.744,-5.618 -15.346,-11.272 -22.414,-17.828c-3.023,-2.802 -6.941,-4.501 -10.155,-7.182c-3.406,-2.837 -6.158,-6.308 -8.924,-9.785c-1.593,-2.006 -3.591,-3.179 -5.333,-4.971c-1.536,-1.579 -2.909,-3.186 -4.516,-4.736c-2.873,-2.78 -5.305,-6.201 -8.164,-9.088c-2.859,-2.894 -5.412,-5.945 -8.235,-8.825c-2.716,-2.766 -4.672,-5.966 -7.374,-8.654c-2.901,-2.887 -5.881,-7.096 -8.014,-10.588c-1.813,-2.972 -3.769,-5.696 -5.845,-8.448c-2.205,-2.915 -3.634,-6.471 -5.362,-9.543c-1.785,-3.165 -4.124,-5.767 -6.336,-8.626c-1.109,-1.429 -2.062,-2.809 -2.78,-4.423c-0.619,-1.416 -1.572,-2.347 -2.29,-3.748c-1.579,-3.057 -3.933,-5.497 -5.675,-8.469c-6.058,-10.304 -14.094,-19.769 -18.702,-30.841c-2.581,-6.194 -5.284,-12.302 -7.808,-18.439c-1.13,-2.759 -2.695,-5.817 -3.285,-8.832c-0.483,-2.503 -0.526,-5.027 -0.839,-7.623c-0.121,-0.996 -0.455,-1.508 -0.277,-2.795c0.121,-0.867 0.235,-1.5 0.498,-2.311c0.171,-0.533 1.536,-0.661 0.768,-1.671c-0.761,-0.995 -1.251,0.249 -1.813,0.299c-2.524,0.213 -4.707,0.512 -7.068,1.529c-3.058,1.315 -5.248,3.648 -7.673,5.831c-1.735,1.55 -3.655,3.563 -5.042,5.298c-2.923,3.69 -7.858,7.345 -12.224,9.493c-1.024,0.512 -1.181,0.988 -1.899,1.671c-0.655,0.618 -1.145,0.803 -1.956,1.422c-0.796,0.604 -0.953,1.315 -1.877,1.735c-0.832,0.37 -1.664,0.178 -2.489,0.448c-2.205,0.733 -4.594,1.992 -6.45,3.428c-1.145,0.882 -2.383,1.621 -3.179,2.759c-0.185,0.256 -0.662,1.464 -0.875,1.82c-0.349,0.584 -0.726,1.06 -1.074,1.572c-1.288,1.927 -3.065,2.987 -4.9,4.473c-1.884,1.529 -4.608,4.452 -5.454,6.706c-1.017,2.702 -0.903,6.699 -0.576,9.394c0.142,1.195 -0.434,2.283 -0.327,3.428c0.078,0.789 0.64,0.932 0.711,1.721c0.078,0.832 -0.306,1.536 -0.178,2.404c0.05,0.32 0.498,1.373 0.633,1.778c0.854,2.56 1.508,5.355 2.034,7.851c0.704,3.364 0.945,6.457 0.469,9.849c-0.214,1.521 -0.882,3.562 -0.74,5.084c0.121,1.287 0.953,2.979 1.415,4.238c1.991,5.476 3.819,11.229 5.824,16.612c0.569,1.529 1.436,2.823 1.998,4.345c0.626,1.7 0.846,3.506 1.408,5.163c0.42,1.252 1.351,2.603 1.835,3.826c0.647,1.664 1.166,3.684 2.076,5.305c1.322,2.333 3.114,4.21 4.252,6.514c1.38,2.774 1.949,5.447 2.916,8.306c1.237,3.648 3.015,6.72 4.828,10.126c0.967,1.827 2.496,2.922 3.435,4.757c0.761,1.486 1.749,3.214 2.766,4.48c0.633,0.291 1.181,0.704 1.643,1.223c0.377,0.569 0.626,1.195 0.747,1.863c0.455,0.875 1.017,1.586 1.621,2.361c1.493,1.941 2.674,3.818 3.911,5.916c0.569,0.974 1.259,2.318 2.105,3.093c0.996,0.917 2.248,1.137 3.236,2.069c1.763,1.664 3.577,3.946 5.127,5.845c1.251,1.543 2.247,3.505 3.655,4.892c0.718,0.704 1.728,1.123 2.332,1.927c1.124,1.486 1.302,3.321 2.738,4.75c3.378,3.349 6.578,7.082 9.714,10.709c1.707,1.976 3.677,3.704 5.177,5.852c1.066,1.536 1.521,2.781 2.837,4.025c3.058,2.901 6.016,5.923 9.081,8.775c1.977,1.835 4.181,3.414 6.151,5.291c1.323,1.259 2.44,2.688 3.748,3.94c1.551,1.486 2.909,3.057 4.523,4.508c1.735,1.565 3.399,2.859 5.212,4.324c2.119,1.714 4.061,3.62 6.315,5.177c1.053,0.725 2.226,1.259 3.193,2.105c0.825,0.726 1.266,1.735 2.212,2.418c3.989,2.887 7.481,6.016 11.392,8.967c4.885,3.684 10.204,7.012 15.303,10.432c4.423,2.965 8.725,5.987 13.383,8.661c18.646,10.709 36.424,22.82 55.46,32.896c4.551,2.41 9.024,4.956 13.355,7.829c3.584,2.375 7.204,4.679 10.802,7.054c2.14,1.416 4.266,2.852 6.414,4.26c2.026,1.33 4.522,2.418 6.414,3.876c1.877,1.443 3.506,2.631 5.646,3.797c1.735,0.953 3.498,1.864 5.212,2.852c4.38,2.538 8.626,5.127 12.878,7.765c3.477,2.162 6.997,3.776 10.524,5.732c8.256,4.572 16.796,8.142 25.351,12.06c9.252,4.245 18.916,7.736 28.466,11.164c2.737,0.988 5.454,1.827 8.156,2.83c2.411,0.903 4.587,1.358 7.033,1.984c1.308,0.342 2.354,1.11 3.662,1.451c1.209,0.32 2.575,0.242 3.812,0.462c2.325,0.413 4.188,1.494 6.592,1.778c2.382,0.277 4.295,1.351 6.606,1.785c2.176,0.399 4.409,0.349 6.507,1.06c4.288,1.458 8.84,1.877 13.412,2.503c3.691,0.505 7.388,1.01 11.079,1.515c2.354,0.327 4.935,0.369 7.168,1.173c2.034,0.732 3.741,1.187 5.938,1.479c4.246,0.569 8.477,1.159 12.715,1.742c1.941,0.263 3.883,0.526 5.817,0.796c2.333,0.327 3.776,0.1 5.995,-0.078c1.807,-0.15 4.082,0.59 5.924,0.853c2.197,0.32 3.875,0.014 6.03,-0.078c0.796,-0.029 1.692,0.341 2.496,0.412c1.088,0.093 1.572,-0.227 2.596,-0.334c2.027,-0.221 4.004,-0.071 6.073,-0.427c3.698,-0.633 7.694,-1.615 11.378,-1.707c1.686,-0.042 3.3,0.079 4.971,-0.092c2.695,-0.271 5.127,-0.207 7.836,-0.868c2.795,-0.683 5.099,-1.429 7.986,-1.536c10.546,-0.405 21.17,-2.965 31.602,-4.636c3.62,-0.576 6.962,-1.543 10.546,-2.19c1.912,-0.355 3.847,-0.363 5.66,-0.711c1.991,-0.384 3.812,-1.052 5.803,-1.365c1.955,-0.306 3.335,-0.796 5.276,-0.967c1.216,-0.114 2.461,-0.647 3.57,-1.038c3.385,-1.187 6.791,-1.913 9.97,-3.797c4.423,-2.617 8.547,-6.066 12.615,-9.152c5.333,-4.046 11.698,-6.279 16.711,-10.823c3.911,-3.549 6.983,-9.216 8.917,-13.995c0.377,-0.932 0.875,-1.323 1.024,-2.624c0.093,-0.739 0.05,-1.891 0.313,-2.574c0.292,-0.733 0.861,-0.733 1.145,-1.465c0.27,-0.69 0.213,-1.827 0.313,-2.574c0.178,-1.372 0.463,-2.695 0.363,-4.046c-0.086,-1.095 -0.968,-2.553 -1.06,-3.719c-0.163,-1.977 0,-4.054 0.043,-6.059c0.022,-1.472 -0.312,-2.788 -0.476,-4.331c-0.335,-3.136 0.327,-6.293 -0.043,-9.429c-0.149,-1.216 0.278,-2.218 0.292,-3.406c0.014,-0.817 -0.377,-1.372 -0.42,-1.948c-0.05,-0.796 0.256,-1.628 0.185,-2.396c-0.071,-0.789 -0.64,-0.932 -0.711,-1.721c-0.078,-0.825 0.299,-1.544 0.185,-2.404c-0.057,-0.392 -0.441,-0.968 -0.491,-1.508c-0.071,-0.69 0.334,-1.458 0.341,-2.148c0.007,-0.903 -0.349,-1.28 -0.42,-1.941c-0.391,-3.619 -1.422,-7.125 -3.264,-10.375c-0.398,-0.704 -2.148,-1.955 -1.849,-2.78c0.448,-1.202 2.581,-0.79 3.385,-0.619c3.513,0.719 6.485,2.866 9.408,4.964c1.096,0.79 3.008,1.302 4.004,2.219c1.088,1.002 1.01,1.322 2.432,2.069c3.015,1.586 5.725,3.812 8.683,5.476c2.397,1.352 4.921,2.632 7.161,4.196c2.44,1.707 5.391,2.823 7.716,4.672c2.218,1.77 4.53,3.442 6.926,4.942c2.717,1.693 5.44,3.407 8.171,5.291c3.136,2.176 6.293,4.018 9.465,5.966c2.616,1.607 5.475,4.658 7.388,7.054c1.97,2.474 4.936,4.074 7.076,6.542c1.031,1.195 1.942,2.525 2.859,3.826c0.953,1.337 2.326,2.617 3.108,4.039c1.636,2.944 3.727,5.532 5.483,8.512c1.764,2.994 2.887,6.286 4.466,9.351c1.892,3.684 3.904,7.083 5.604,10.859c3.214,7.154 7.403,13.974 10.617,21.17c0.953,2.119 1.444,4.629 2.162,6.805c0.704,2.119 1.002,4.402 1.55,6.578c1.002,3.954 2.695,7.623 3.534,11.598c0.256,1.23 0.939,2.375 1.266,3.584c0.313,1.159 0.157,2.141 0.363,3.307c0.32,1.849 0.797,3.378 1.01,5.284c0.427,3.847 1.223,7.758 1.607,11.548c0.22,2.127 0.825,4.182 0.917,6.315c0.072,1.536 -0.533,3.492 -0.732,5.042c-0.306,2.346 -1.365,3.96 -1.728,6.236c-0.356,2.197 -1.202,3.875 -1.707,5.98c-0.924,3.847 -2.211,8.121 -4.7,11.335c-2.802,3.619 -5.234,7.602 -8.526,10.83c-3.427,3.364 -7.31,6.216 -11.157,9.188c-1.643,1.273 -3.42,1.984 -5.127,3.129c-2.24,1.508 -4.722,3.172 -7.239,4.217c-9.92,4.103 -19.471,8.74 -30.18,10.603c-5.703,0.989 -11.129,2.645 -16.768,3.705c-5.077,0.953 -10.176,0.79 -15.239,1.771c-3.087,0.597 -6.18,1.124 -9.259,1.728c-2.475,0.49 -4.622,1.465 -7.111,2.005c-4.714,1.024 -9.365,2.36 -14.158,3.228c-5.845,1.059 -11.584,3.129 -17.351,4.686c-4.715,1.28 -9.444,2.148 -14.18,3.392c-5.994,1.586 -11.96,3.47 -18.012,4.871c-4.971,1.145 -10.134,1.664 -15.147,2.61c-10.716,2.026 -21.368,3.875 -32.22,3.918c-6.094,0.028 -12.387,0.974 -18.439,0.071c-3.044,-0.456 -5.76,-0.064 -8.747,-0.292c-2.816,-0.221 -5.667,-0.825 -8.469,-1.209c-11.691,-1.6 -23.388,-3.2 -35.079,-4.8c-3.449,-0.476 -6.898,-0.953 -10.347,-1.422c-2.987,-0.399 -5.397,-1.302 -8.249,-2.027c-2.617,-0.669 -5.518,-0.612 -8.192,-1.06c-2.915,-0.491 -5.511,-1.65 -8.476,-2.034c-2.994,-0.391 -6.18,-0.554 -9.067,-1.436c-1.458,-0.448 -2.546,-0.996 -4.11,-1.252c-1.373,-0.22 -2.873,-0.164 -4.217,-0.512c-2.958,-0.775 -5.447,-1.586 -8.526,-2.048c-2.909,-0.434 -5.554,-1.558 -8.505,-2.02c-2.645,-0.413 -5.482,-1.316 -8.014,-2.162c-2.986,-1.003 -5.994,-1.159 -8.974,-2.091c-2.873,-0.896 -5.802,-1.486 -8.654,-2.503c-2.645,-0.939 -5.298,-1.899 -7.95,-2.795c-9.87,-3.335 -19.754,-7.182 -29.774,-9.436c-10.005,-2.247 -18.993,-7.815 -28.053,-12.622c-4.188,-2.226 -8.924,-3.854 -12.807,-6.471c-3.912,-2.638 -8.335,-4.785 -12.58,-6.869c-9.081,-4.445 -16.982,-10.247 -25.252,-15.858c-1.721,-1.166 -3.079,-2.61 -4.85,-3.712c-1.387,-0.854 -2.624,-1.373 -3.947,-2.418c-2.069,-1.636 -4.138,-2.809 -6.293,-4.288c-4.465,-3.072 -8.817,-6.279 -13.269,-9.344c-2.731,-1.884 -5.433,-3.214 -7.808,-5.568c-1.806,-1.792 -3.634,-2.724 -5.639,-4.16c-2.595,-1.856 -4.536,-4.338 -7.324,-5.995c-2.802,-1.664 -5.248,-3.492 -7.808,-5.547c-5.376,-4.31 -10.582,-8.996 -16.491,-12.587c-3.47,-2.112 -6.414,-3.029 -9.244,-6.172c-2.46,-2.724 -6.158,-3.919 -8.512,-6.692c-2.937,-3.449 -6.613,-5.319 -10.233,-8.021c-2.802,-2.091 -5.056,-4.899 -7.787,-7.111c-2.176,-1.757 -4.338,-3.108 -6.692,-4.53c-2.831,-1.72 -5.291,-4.117 -7.979,-6.044c-3.328,-2.396 -6.734,-4.857 -9.365,-7.95c-2.19,-2.582 -5.859,-4.402 -8.533,-6.5c-4.814,-3.783 -9.628,-7.403 -14.3,-11.385c-9.607,-8.213 -19.655,-15.786 -28.793,-24.533c-1.351,-1.287 -2.887,-1.948 -4.295,-3.093c-1.109,-0.903 -1.863,-1.976 -3.036,-2.844c-2.162,-1.593 -4.138,-3.335 -6.158,-5.106c-4.018,-3.506 -7.332,-7.538 -11.3,-11.186c-2.475,-2.275 -4.772,-4.693 -7.204,-7.004c-1.998,-1.906 -4.195,-2.966 -5.966,-5.106c-1.493,-1.806 -3.505,-2.645 -4.956,-4.508c-1.5,-1.927 -3.264,-3.534 -4.828,-5.404c-1.863,-2.219 -4.153,-3.584 -5.995,-5.938c-1.586,-2.027 -3.456,-3.968 -5.17,-5.874c-1.757,-1.941 -3.762,-2.816 -5.362,-4.999c-1.081,-1.465 -2.532,-2.496 -3.563,-3.89c-2.553,-3.442 -5.796,-7.189 -8.356,-10.624c-1.06,-1.416 -2.404,-2.66 -3.492,-4.068c-1.074,-1.394 -1.821,-2.965 -2.859,-4.295c-0.953,-1.216 -1.308,-1.508 -1.941,-3.051c-0.406,-0.989 -0.953,-1.273 -1.458,-2.084c-1.053,-1.693 -1.927,-3.485 -2.93,-5.163c-1.763,-2.93 -3.989,-5.675 -5.717,-8.683c-4.331,-7.56 -10.674,-14.123 -14.386,-22.116c-2.07,-4.459 -4.118,-8.732 -6.45,-13.12c-2.211,-4.16 -3.854,-8.654 -5.916,-12.949c-4.63,-9.635 -8.029,-19.399 -10.724,-29.774c-1.244,-4.765 -2.04,-9.522 -2.268,-14.457c-0.17,-3.769 -0.789,-7.588 -0.718,-11.364c0.057,-2.61 1.053,-5.284 0.996,-7.851c-0.021,-1.11 -0.448,-2.048 -0.512,-3.172c-0.135,-2.439 0.825,-5.661 1.145,-8.043c1.799,-13.141 3.591,-26.283 5.404,-39.431c0.22,-1.622 0.298,-3.314 0.853,-4.836c0.206,-0.561 0.711,-0.945 0.924,-1.756c0.213,-0.797 0.007,-1.771 0.284,-2.553c0.647,-1.806 1.194,-2.98 1.557,-4.928c0.334,-1.799 1.344,-3.036 1.55,-4.928c0.398,-3.577 2.453,-6.486 3.719,-9.771c0.626,-1.622 1.301,-3.257 1.721,-4.907c0.448,-1.785 1.536,-3.151 2.19,-4.843c1.152,-3.001 2.333,-5.987 4.153,-8.647c1.756,-2.546 3.022,-5.568 4.949,-8.107c4.167,-5.476 10.048,-8.839 14.379,-14.123c2.475,-3.023 5.895,-4.537 9.287,-6.443c2.39,-1.344 4.793,-2.724 7.275,-3.691c3.392,-1.33 6.464,-2.859 9.728,-4.452c2.766,-1.351 5.66,-1.522 8.398,-2.254c3.286,-0.881 7.048,-2.097 10.532,-2.012c3.086,0.078 5.745,-0.889 8.732,-1.188c3.236,-0.32 6.301,-0.676 9.529,-0.576c2.688,0.092 5.12,-1.074 7.872,-1.323c1.728,-0.156 3.378,-0.099 5.028,-0.526c1.23,-0.32 2.752,-1.465 4.032,-1.664c1.266,-0.192 2.866,-0.476 4.167,-0.519c0.846,-0.028 1.721,0.519 2.56,0.441c0.782,-0.078 0.932,-0.633 1.721,-0.711c1.102,-0.113 2.29,0.633 3.392,0.555c0.952,-0.071 1.699,-0.547 2.652,-0.583c0.81,-0.029 1.706,0.334 2.517,0.405c1.095,0.1 1.586,-0.22 2.617,-0.327c3.122,-0.335 6.236,-0.463 9.344,-0.811c1.003,-0.113 1.508,-0.483 2.802,-0.284c0.761,0.121 1.756,0.419 2.517,0.391c1.657,-0.064 3.356,-0.305 5.006,-0.405c0.419,-0.028 1.351,-0.369 1.941,-0.405c0.91,-0.057 1.735,-0.214 2.631,-0.306c1.415,-0.15 2.958,-0.462 4.352,-0.498c6.685,-0.17 13.205,-0.149 19.897,-1.301c6.784,-1.173 13.81,-1.344 20.672,-0.789c2.084,0.17 3.833,-0.363 6.009,-0.05c1.678,0.242 3.364,0.434 5.049,0.683c3.257,0.491 6.649,-0.363 9.906,-0.384c1.699,-0.007 3.79,0.441 5.468,0.761c1.799,0.348 3.044,1.315 4.928,1.55c2.169,0.271 7.069,0.519 7.225,3.563z" /></svg>