<svg xmlns="http://www.w3.org/2000/svg" viewBox="0 0 916 896" width="916" height="896"><path d="M244.473,890.627c-46.487,-16.149 -97.156,-72.271 -133.106,-147.429c-12.742,-26.637 -14.463,-32.759 -15.478,-55.043c-1.912,-41.955 13.008,-79.457 43.905,-110.355c24.571,-24.571 55.632,-39.605 103.144,-49.921c13.602,-2.954 13.445,-3.011 -9.451,-3.374c-30.169,-0.479 -75.658,-8.275 -102.461,-17.563c-69.598,-24.115 -103.461,-77.125 -120.11,-188.027c-6.287,-41.877 -11.767,-159.258 -10.298,-220.563c1.269,-53.006 4.379,-64.688 21.456,-80.619c19.712,-18.388 61.469,-22.925 91.728,-9.965c84.203,36.058 198.889,147.009 273.104,264.207c19.882,31.396 52.034,95.387 62.273,123.935c4.067,11.337 8.101,20.614 8.967,20.614c0.866,0 4.806,-9.34 8.754,-20.755c16.234,-46.935 58.014,-122.847 94.773,-172.204c66.737,-89.607 162.812,-178.983 224.064,-208.443c36.82,-17.71 69.926,-19.905 95.958,-6.363c33.197,17.269 37.611,43.323 31.852,187.927c-4.783,120.087 -14.677,179.091 -38.773,231.245c-26.777,57.956 -88.348,90.601 -179.862,95.361l-35.358,1.84l27.671,6.899c58.227,14.518 92.425,38.819 115.468,82.054c31.157,58.457 23.513,105.041 -30.438,185.491c-34.158,50.934 -77.089,86.848 -112.763,94.329c-16.585,3.479 -17.969,3.259 -34.737,-5.51c-62.363,-32.621 -126.497,-113.092 -155.536,-195.152c-4.487,-12.683 -8.884,-25.093 -9.77,-27.577c-0.886,-2.484 -5.538,6.509 -10.339,19.985c-12.439,34.91 -20.309,51.485 -39.379,82.921c-33.192,54.719 -86.257,106.878 -125.349,123.21c-13.48,5.633 -20.998,5.414 -39.907,-1.155z" /></svg>