<svg xmlns="http://www.w3.org/2000/svg" viewBox="0 0 601 957" width="601" height="957"><path d="M299.064,792.841l-24.636,-1.076l-1.674,-0.04l-1.315,-0.319l-26.191,-5.86l-1.714,-0.837l-22.204,-11.201l2.512,0.997l-24.875,-7.694c-22.045,-11.64 -43.891,-23.241 -66.095,-34.363l-2.033,-0.997l-1.515,-1.395l-17.78,-16.464l-20.092,-16.743l-1.037,-1.395l-14.511,-19.892l1.196,1.475l-16.902,-17.86l-1.515,-1.554l-0.877,-1.714l-11.401,-21.766l0.837,1.395l-13.793,-20.331l-0.837,-1.196l-0.478,-1.117l-10.086,-23.121l-0.12,-0.439l-7.893,-23.201l-0.239,-0.678l-0.08,-0.478c-3.03,-13.394 -8.611,-33.645 -12.796,-46.681l-0.598,-1.913v-1.754c-0.598,-24.277 -0.598,-50.189 1.954,-74.586v1.834l-1.595,-24.955l-0.2,-3.03l1.117,-2.551l9.687,-22.922l-0.758,2.512l4.505,-24.357l0.359,-2.153l1.037,-1.714l12.199,-20.929l10.764,-21.726c0.2,-1.117 14.391,-21.407 14.869,-22.524l0.439,-0.518l17.221,-19.533l0.957,-0.678l20.131,-14.431l-0.877,0.758l18.856,-16.823l0.439,-0.319l21.527,-14.989l1.236,-0.398l23.4,-8.132l-1.037,0.439l22.204,-10.644l1.634,-0.758l1.595,-0.159l24.597,-2.591l-2.232,0.518l25.194,-9.009l1.674,0.04l25.354,0.678l0.439,0.08l24.277,3.588c-5.342,-0.279 24.995,0.518 23.919,0.478l1.793,0.04l1.475,0.638l22.763,9.727l23.919,8.691l0.439,0.239l23.161,12.398l0.678,0.598l18.697,16.863l0.478,0.478l16.902,18.178l18.297,17.819l0.359,0.478l29.579,41.538l0.279,0.638l9.806,23.161l0.159,0.398c3.947,12.637 11.042,36.794 13.952,49.711l1.874,24.836l0.04,0.478v0.398c-1.276,12.916 -2.392,37.552 -2.83,50.508l-0.598,1.076l-11.8,21.407l-10.365,22.085l-0.2,0.398l-12.557,21.607l-0.518,0.917l-0.797,0.558l-19.773,14.71l-19.135,16.424l-0.398,0.239l-21.607,11.003l-21.646,13.793l-0.558,0.12c-0.2,0.04 -24.117,6.339 -24.277,6.378c-0.08,0.08 -24.556,4.345 -24.676,4.385l-0.398,0.08h-0.319l-24.915,-0.877l0.159,-6.537l24.915,0.439l-0.717,0.04l24.158,-4.744l23.998,-6.777l-1.117,0.518c0.12,-0.12 20.849,-13.793 20.968,-13.913c0.2,-0.08 21.726,-11.601 21.926,-11.72l-0.837,0.598l18.656,-16.623l19.733,-15.268l-1.276,1.475l12.159,-21.846l-0.2,0.398l10.125,-22.603l11.521,-21.885l-0.638,2.432c0.12,-10.684 1.076,-41.618 1.874,-48.675l-2.352,-24.795l0.2,1.117c-3.189,-11.999 -10.404,-35.838 -14.391,-47.597l0.239,0.678l-10.245,-23.002l0.758,1.315l-29.898,-40.343l0.877,0.997l-18.338,-17.261l-17.501,-18.138l0.518,0.518l-19.016,-16.504l1.595,1.076l-22.404,-11.441c5.342,2.033 -23.878,-8.172 -22.802,-7.734l-23.4,-9.488l3.269,0.638l-25.553,-0.08l-0.638,-0.08l-24.317,-3.149l1.117,0.08l-24.716,-0.2l3.428,-0.598l-24.317,9.208l-1.236,0.159l-24.556,3.03l3.229,-0.957l-22.444,11.242l-0.598,0.239l-23.241,8.531l2.512,-1.276l-20.012,14.47l0.997,-0.797l-18.417,16.982l-0.518,0.398l-19.892,14.789l1.834,-1.674l-15.985,18.816l0.917,-1.236l-13.275,20.809l0.717,-1.236l-10.723,22.603l-12.238,21.846l1.395,-3.867l-4.027,24.477l-0.2,1.196l-0.518,1.315l-9.288,23.121l0.917,-5.621l2.033,24.915c-1.754,24.437 -1.714,49.392 -0.558,73.988l-0.598,-3.668l7.654,23.719l6.378,24.117c-2.193,-6.458 9.886,27.188 7.535,20.849l10.205,22.324l-1.276,-2.312l14.192,20.092l0.359,0.558l0.478,0.837l11.8,21.566l-2.352,-3.269l17.261,17.54l0.558,0.598l0.638,0.837l14.909,19.613l-2.512,-2.631l19.453,15.626l18.656,16.623l-3.548,-2.392c22.165,10.564 44.17,21.726 66.015,32.729l-2.79,-1.117l24.556,7.135l1.356,0.638l22.444,10.764l-3.827,-1.315l24.158,4.943l-2.99,-0.398l24.676,0.638z" /> <path d="M301.963,120.133l26.31,1.156l1.315,0.279l26.191,5.86l1.714,0.877l22.204,11.162l-2.512,-0.997l24.875,7.694c22.045,11.64 43.891,23.241 66.095,34.363l2.033,1.037l1.515,1.395l17.78,16.424l18.577,15.507c1.076,0.837 1.793,1.475 2.512,2.631l14.55,19.892l-1.236,-1.435l18.457,19.414l12.279,23.441l-0.837,-1.395l13.793,20.331l0.797,1.196l0.478,1.117l9.806,22.483l0.279,0.678l0.159,0.398l7.854,23.241l0.239,0.678l0.12,0.439c3.03,13.394 8.571,33.686 12.757,46.681c0.478,1.395 0.717,2.073 0.638,3.668c0.558,24.277 0.558,50.189 -1.993,74.586v-1.834l1.595,24.955l0.2,2.99l-1.076,2.591l-9.687,22.922l0.717,-2.512l-4.505,24.357l-0.359,2.153l-0.997,1.714l-12.238,20.929l-10.764,21.726c-0.2,1.076 -14.391,21.407 -14.869,22.524l-0.439,0.478l-16.345,18.536l-0.877,1.037l-0.957,0.638l-20.131,14.431l0.917,-0.717l-18.896,16.782l-0.439,0.319l-20.251,14.112l-1.236,0.837l-1.276,0.439l-23.36,8.132l1.037,-0.439l-23.839,11.401l-1.595,0.159l-24.597,2.591l2.193,-0.518l-23.441,8.371l-1.714,0.638l-1.674,-0.08l-25.354,-0.638l-0.439,-0.08l-24.277,-3.588l1.117,0.08l-26.788,-0.598l-1.475,-0.638l-22.802,-9.727l-23.878,-8.73l-0.439,-0.239l-23.161,-12.358l-0.638,-0.598l-19.214,-17.341l-16.902,-18.178l-17.74,-17.341l-0.518,-0.478l-0.359,-0.518l-29.579,-41.499l-0.279,-0.638l-9.806,-23.161l-0.159,-0.398c-3.947,-12.637 -11.042,-36.794 -13.952,-49.671l-1.874,-24.836l-0.04,-0.478v-0.398c1.315,-12.677 2.312,-36.794 2.671,-49.551l0.678,-1.117l11.72,-20.291l10.764,-20.809l0.159,-0.279l0.12,-0.2l13.275,-20.012l0.638,-0.917l0.837,-0.518l20.211,-12.358l19.853,-13.913l0.478,-0.2l22.045,-8.491l-0.398,0.2l21.327,-10.962l0.558,-0.319l0.558,-0.08l23.639,-4.106l24.117,-2.91h0.279l23.839,1.435l-0.319,6.498l-23.839,-0.957h0.598l-23.56,3.229l-23.321,4.544l1.117,-0.398l-21.527,11.56l-21.926,8.889l0.957,-0.518l-19.374,14.112l-20.211,12.876l1.475,-1.435l-12.916,20.211l0.279,-0.478l-10.484,21.248l-11.481,20.729l0.717,-2.551c0,10.484 -0.997,40.86 -1.754,47.717l2.352,24.795l-0.2,-1.117c3.189,11.999 10.404,35.878 14.391,47.638c-1.395,-3.388 10.365,23.121 10.006,22.284l-0.758,-1.276l29.898,40.343l-0.837,-0.997l18.338,17.261l17.501,18.138l-0.518,-0.478l19.016,16.504l-1.595,-1.117l22.444,11.481c-5.342,-2.033 23.878,8.132 22.802,7.734l23.36,9.488l-3.229,-0.678l25.553,0.12l0.638,0.08l24.317,3.149l-1.117,-0.08l24.716,0.2l-3.388,0.558l24.277,-9.169l1.236,-0.159l24.556,-3.069l-3.189,0.957l22.444,-11.242l0.598,-0.239l23.201,-8.531l-2.471,1.276l20.012,-14.47l-0.997,0.797l18.058,-16.663l0.319,-0.319l0.558,-0.439l19.853,-14.75l-1.834,1.674l16.026,-18.816l-0.917,1.196l13.275,-20.809l-0.717,1.276l10.723,-22.603l12.199,-21.885l-1.356,3.867l4.027,-24.477l0.2,-1.196l0.518,-1.315l9.249,-23.082l-0.877,5.581l-2.033,-24.915c1.714,-24.437 1.714,-49.431 0.558,-73.988l0.598,3.668l-7.654,-23.759l-6.418,-24.078c2.193,6.458 -9.847,-27.227 -7.535,-20.849l-10.205,-22.324l1.315,2.273l-14.59,-20.61l-0.478,-0.837l-11.8,-21.566l2.392,3.229l-17.86,-18.099l-0.638,-0.877l-14.909,-19.573l2.551,2.631l-19.494,-15.626l-18.656,-16.623l3.548,2.392c-22.165,-10.564 -44.17,-21.726 -65.975,-32.729l2.751,1.117l-24.556,-7.135l-1.356,-0.638l-22.444,-10.764l3.827,1.315l-24.158,-4.943l2.99,0.398l-24.676,-0.638z" /> <path d="M289.047,311.119c0,-25.473 -0.239,-50.987 -0.518,-76.46c-0.239,-21.168 -2.671,-41.977 -1.356,-62.268c0.638,-9.727 0.199,-19.573 0.797,-29.34c1.396,-22.363 0.878,-44.767 2.273,-67.091c1.036,-16.424 3.827,-32.648 4.146,-48.873c0.159,-8.65 0.318,-17.66 1.554,-26.071c0.2,-1.396 0.439,-2.75 0.678,-4.106c2.153,12.158 2.033,25.592 3.229,38.269c1.395,14.47 4.464,28.981 4.664,43.492c0.28,16.943 0.24,33.805 1.117,50.668c0.917,17.979 -0.917,36.236 1.156,54.016c1.634,14.312 2.272,28.862 3.069,43.253c2.073,35.758 1.076,71.836 1.076,107.793c0,10.923 -0.16,21.846 -0.439,32.729c-4.145,-0.198 -8.331,-0.398 -12.597,-0.398c-3.388,0 -6.737,0.2 -10.086,0.359c0.678,-18.656 1.236,-37.272 1.236,-55.969z" /> <path d="M297.901,546.2c2.392,0 4.704,-0.16 7.056,-0.2c0.438,21.328 0.757,42.695 -0.439,64.022c-0.837,15.308 -1.275,30.536 -1.714,45.844c-1.236,41.14 -0.957,81.642 -0.957,122.662c0,18.537 0.319,36.675 1.196,55.092c0.997,20.69 2.351,43.293 -0.12,63.823c-1.474,12.358 -2.511,24.556 -3.308,36.835c-0.359,5.542 0.16,12.717 -0.957,18.019c-2.113,10.205 -3.388,2.073 -4.146,-5.541c-3.07,-30.895 -3.269,-61.989 -5.621,-93.083c-2.671,-35.359 -4.465,-71.237 -5.302,-106.836c-1.554,-66.733 -1.674,-134.064 -0.837,-201.155c4.983,0.359 10.045,0.518 15.148,0.518z" /> <path d="M416.226,465.753l-22.005,-21.367c0,0 -16.065,-12.437 -24.517,-18.377c-8.85,-6.18 -19.932,-12.996 -29.579,-16.345c-8.173,-2.869 -16.823,-2.551 -25.075,-4.225c-4.784,-0.957 -8.691,-1.953 -12.398,-2.591c-5.701,-0.957 -11.042,-1.157 -18.656,0.797c-12.518,3.149 -24.557,8.889 -36.596,14.311c-11.799,5.262 -23.798,11.721 -35.04,18.697c-7.852,4.864 -17.101,11.003 -23.878,17.421c-3.268,3.11 -6.458,1.714 -4.305,7.574c1.276,3.508 12.238,7.893 12.238,7.893l26.071,21.687c0,0 21.965,12.717 35.16,13.514c16.264,0.996 32.888,0.677 49.272,0.518c12.955,-0.119 39.106,-7.135 39.106,-7.135zM432.211,461.727c0,0 -19.971,25.074 -28.303,31.413c-36.236,27.626 -117.599,34.403 -117.599,34.403c0,0 -16.504,-0.399 -25.513,-2.631c-24.915,-6.179 -52.74,-19.533 -73.27,-37.034c-7.335,-6.259 -26.191,-24.875 -26.191,-24.875c0,0 6.537,-20.25 13.474,-25.951c18.895,-15.467 41.738,-28.663 63.982,-36.476c10.125,-3.548 19.015,-7.813 29.3,-9.926c8.85,-1.794 18.657,-2.632 27.626,-4.425c8.889,-1.793 20.649,-0.159 28.742,2.751c5.062,1.794 12.079,1.794 17.341,3.468c6.697,2.073 18.417,5.94 18.417,5.94l44.05,24.517c0,0 10.922,12.996 15.626,20.131c3.11,4.705 12.318,18.697 12.318,18.697z" /> <path d="M280.15,398.463c3.946,-9.647 35.598,0.399 43.691,8.571c10.883,10.923 14.67,29.939 13.713,44.011c-1.196,17.261 -18.058,29.101 -36.914,35.399c-24.636,8.212 -40.861,-11.959 -41.698,-30.775c-0.519,-12.039 8.889,-55.969 21.207,-57.205z" /></svg>