<svg xmlns="http://www.w3.org/2000/svg" viewBox="0 0 692 692" width="692" height="692"><path d="M614.8,0.4c42.113,0 76.8,34.688 76.8,76.8v377.6c0,42.112 -34.688,76.8 -76.8,76.8h-12.8v-51.2h12.8c14.443,0 25.6,-11.157 25.6,-25.6v-377.6c0,-14.442 -11.157,-25.6 -25.6,-25.6h-377.6c-14.441,0 -25.6,11.159 -25.6,25.6v12.8h-51.2v-12.8c0,-42.112 34.688,-76.8 76.8,-76.8zM90,160.4v51.2h-12.8c-14.441,0 -25.6,11.159 -25.6,25.6v377.6c0,14.443 11.158,25.6 25.6,25.6h377.6c14.443,0 25.6,-11.157 25.6,-25.6v-12.8h51.2v12.8c0,42.112 -34.688,76.8 -76.8,76.8h-377.6c-42.112,0 -76.8,-34.687 -76.8,-76.8v-377.6c0,-42.112 34.688,-76.8 76.8,-76.8z" /> <path d="M454.8,160.4c42.113,0 76.8,34.688 76.8,76.8v294.4h-294.4c-42.112,0 -76.8,-34.687 -76.8,-76.8v-294.4zM211.6,454.8c0,14.443 11.158,25.6 25.6,25.6h243.2v-243.2c0,-14.442 -11.157,-25.6 -25.6,-25.6h-243.2z" /></svg>