<svg xmlns="http://www.w3.org/2000/svg" viewBox="0 0 960 1024" width="960" height="1024"><path d="M640,256h-512v-128h128v-64c0,-35.2 28.796,-64 64,-64h128c35.2,0 64,28.8 64,64v64h128zM448,64.114c-0.036,-0.038 -0.076,-0.078 -0.118,-0.114h-127.768c-0.042,0.036 -0.08,0.076 -0.114,0.114v63.886h128zM960,320v704h-640v-192h-288c-17.602,0 -32,-14.4 -32,-32v-640c0,-17.6 14.398,-32 32,-32h64v64h-32v576h256v-256l192,-192h192v-128h-32v-64h64c17.6,0 32,14.4 32,32v160zM410.51,512h101.49v-101.49zM896,384h-320v192h-192v384h512z" /></svg>