<svg xmlns="http://www.w3.org/2000/svg" viewBox="0 0 868 1024" width="868" height="1024"><path d="M860.8,486.2c-36.8,188.4 -162.4,253.6 -322.8,253.6h-24.6c-19.6,0 -36.4,14.2 -39.4,33.6l-2,10.8l-31.2,197.8l-1.6,8.4c-3.2,19.4 -19.8,33.6 -39.4,33.6h-165.6c-14.6,0 -25.8,-13 -23.6,-27.6l3.4,-22h64.8l53.8,-341.6h77.4c232.6,0 380.2,-112 428,-324.2c31.4,45.2 36.6,106 22.8,177.6z" /> <path d="M782.2,260.2c-0.8,6 -2,12.2 -3.2,18.6c-42,215.6 -185.6,290 -369,290h-93.4c-22.4,0 -41.4,16.2 -44.8,38.4l1.6,-9.8l-49.4,313h-196.6c-16.8,0 -29.6,-15 -27,-31.6l132.6,-840.4c3.4,-22.2 22.6,-38.4 45,-38.4h318.2c109.6,0 195.4,23.2 242.8,77.2c43.2,49 55.6,103.4 43.2,183z" /></svg>