<svg xmlns="http://www.w3.org/2000/svg" viewBox="0 0 777 840" width="777" height="840"><path d="M691.75,188.35c28.85,27.861 47.924,63.798 58.9,85.75c17.431,34.862 28.503,70.263 25.45,105c-3.053,34.737 -21.956,67.656 -57.8,91.55c-32.27,21.512 -71.929,28.372 -108.45,13.1c-36.521,-15.272 -68.111,-50.825 -90.7,-107.3c-17.469,-43.671 -30.516,-85.094 -25.95,-124.15c4.566,-39.056 30.655,-73.434 79.4,-92.8c23.617,-9.383 46.165,-9.125 66.45,-3.05c20.285,6.075 38.275,17.97 52.7,31.9zM586.75,195.2c-39.921,15.86 -52.266,34.745 -55.4,61.55c-3.134,26.805 6.834,63.786 23.5,105.45c20.076,50.19 45.738,76.017 69.85,86.1c24.112,10.083 48.437,6.308 72.3,-9.6c28.159,-18.771 38.734,-38.871 40.85,-62.95c2.116,-24.079 -5.955,-53.311 -21.55,-84.5c-10.357,-20.715 -28.366,-53.25 -51.2,-75.3c-11.417,-11.025 -22.915,-19.404 -35.6,-23.45c-12.685,-4.046 -26.576,-3.726 -42.75,2.7zM650.5,229.15c14.142,9.337 22.984,23.854 27.25,39.5l-37.05,10.1c-2.231,-8.183 -6.795,-14.543 -11.35,-17.55c-4.555,-3.007 -8.78,-4.277 -17.65,-0.9c-8.446,3.217 -12.315,8.511 -13.55,13.95c-1.235,5.439 -0.346,11.808 7,19.35c5.314,5.456 13.63,5.81 29.45,4.6c15.82,-1.21 37.963,-5.585 57.55,9.65c18.744,14.577 29.586,35.901 28.95,57.8c-0.636,21.899 -14.518,43.726 -38,54.25c-22.224,9.96 -46.291,9.177 -63.95,-2.9c-17.659,-12.077 -27.514,-32.87 -30.2,-56.65l38.15,-4.3c1.796,15.902 7.808,25.186 13.75,29.25c5.942,4.064 13.249,5.511 26.55,-0.45c12.041,-5.396 15.112,-12.094 15.35,-20.3c0.238,-8.206 -4.112,-18.593 -14.15,-26.4c-3.456,-2.688 -14.074,-3.002 -31.1,-1.7c-17.026,1.302 -41.66,2.625 -59.85,-16.05c-15.054,-15.455 -21.155,-36.137 -16.95,-54.65c4.205,-18.513 18.226,-34.086 37.3,-41.35c9.327,-3.551 18.925,-4.705 27.95,-3.8c9.025,0.905 17.479,3.882 24.55,8.55z" /> <path d="M528.25,6.25l-10.4,37c-10.349,-2.916 -21.582,-4.272 -33.25,-4.6l1.05,-38.4c13.892,0.391 28.287,1.967 42.6,6zM449.05,40.5c-11.852,1.377 -23.805,3.595 -35.85,6.25c-0.016,0.004 -0.034,-0.004 -0.05,0c-7.886,1.765 -15.661,3.676 -23.3,5.8l-10.3,-37c8.432,-2.344 16.86,-4.423 25.25,-6.3l4.2,18.75l-4.15,-18.75c12.932,-2.852 26.187,-5.325 39.75,-6.9zM354.15,63.5c-11.681,3.938 -23.316,8.351 -34.9,13.05l-14.45,-35.6c12.137,-4.923 24.472,-9.56 37.05,-13.8zM593.9,72.95l-38.15,4.6c-0.913,-7.512 -5.255,-15.377 -11.55,-20.9l25.35,-28.85c12.922,11.338 22.161,27.135 24.35,45.15zM285.05,91.6c-11.202,5.256 -22.244,10.933 -33.15,16.9l-18.45,-33.7c11.551,-6.319 23.327,-12.333 35.3,-17.95zM219.7,127.25c-10.571,6.621 -20.861,13.451 -30.75,20.65l-22.6,-31c10.807,-7.867 21.829,-15.184 32.95,-22.15zM582.5,122.2c-9.37,14.712 -23.61,25.635 -40.15,30.95l-11.75,-36.55c7.855,-2.524 15.101,-8.143 19.5,-15.05zM509.1,166.85c-10.971,5.141 -21.708,10.902 -32.2,17.15l-19.65,-33c11.498,-6.847 23.393,-13.23 35.6,-18.95zM159.55,170.65c-9.448,7.865 -18.557,16.064 -27.3,24.65l-26.9,-27.4c9.522,-9.351 19.423,-18.238 29.65,-26.75zM446.7,204.15c-9.607,7.197 -18.7,14.928 -27.05,23.25l-27.1,-27.2c9.784,-9.75 20.224,-18.602 31.1,-26.75zM107.25,222.15c-7.862,9.261 -15.187,18.866 -21.95,28.85l-31.8,-21.5c7.593,-11.209 15.797,-21.948 24.5,-32.2zM397.3,254.05c-6.39,9.361 -11.607,19.277 -15.2,29.55l-36.25,-12.65c4.862,-13.901 11.716,-26.78 19.75,-38.55zM66.8,282.05c-5.492,10.621 -10.313,21.584 -14.3,32.8l-36.15,-12.9c4.588,-12.906 10.034,-25.433 16.3,-37.55zM376.25,315.35c-0.26,10.702 1.237,21.621 4.25,32.2l-36.95,10.5c-3.996,-14.029 -6.062,-28.751 -5.7,-43.65zM43.05,349.15c-2.33,11.605 -3.808,23.407 -4.35,35.2l-38.35,-1.75c0.633,-13.775 2.342,-27.511 5.05,-41zM413.15,408.25l-30.25,23.7c-8.42,-10.751 -16.203,-22.251 -22.95,-34.55l33.65,-18.45c5.567,10.149 12.191,19.904 19.55,29.3zM45.35,455.35l-37.4,8.7c-3.079,-13.255 -5.371,-26.791 -6.65,-40.45l38.25,-3.6c1.108,11.829 3.087,23.673 5.8,35.35zM461.55,469.3l-31.6,21.85c-6.99,-10.089 -14.415,-19.909 -22.2,-29.5l29.8,-24.2c8.349,10.285 16.411,20.895 24,31.85zM69.6,523.65l-34.65,16.55c-5.773,-12.089 -11.022,-24.539 -15.55,-37.3l36.2,-12.85c4.032,11.364 8.743,22.592 14,33.6zM501.25,539.05l-35.1,15.6c-4.901,-11.032 -10.421,-21.821 -16.5,-32.4l33.25,-19.15c6.674,11.614 12.857,23.587 18.35,35.95zM106.25,588.6l-32.55,20.35c-6.902,-11.057 -13.614,-22.274 -20.1,-33.6l33.35,-19.05c6.236,10.889 12.646,21.641 19.3,32.3zM525.45,616.75l-37.85,6.5c-2.015,-11.693 -4.874,-23.291 -8.5,-34.7l36.6,-11.65c4.126,12.982 7.419,26.318 9.75,39.85zM148.45,650.8l-30.75,23.05c-7.896,-10.533 -15.447,-21.28 -22.75,-32.15l31.85,-21.4c6.972,10.377 14.192,20.551 21.65,30.5zM526.7,699.45l-37.95,-6c1.815,-11.459 2.605,-23.153 2.35,-34.85l38.35,-0.85c0.303,13.893 -0.56,27.874 -2.75,41.7zM196.15,708.05l-27.85,26.45c-9.102,-9.603 -17.921,-19.562 -26.35,-29.8l29.65,-24.4c7.842,9.524 16.042,18.774 24.55,27.75zM515.95,740.25c-5.022,13.327 -11.604,26.3 -20.05,38.25l-31.35,-22.15c6.332,-8.958 11.501,-18.987 15.5,-29.6zM250.75,756.95l-22.75,30.95c-10.873,-7.979 -21.296,-16.552 -31.25,-25.6l25.85,-28.4c8.987,8.169 18.387,15.885 28.15,23.05zM313,791.2l-13.05,36.1c-13.083,-4.732 -25.721,-10.592 -37.75,-17.35l18.8,-33.45c10.283,5.777 21.013,10.726 32,14.7zM464.45,810.5c-12.057,8.405 -25.187,14.878 -38.75,19.65l-12.7,-36.2c10.567,-3.718 20.558,-8.717 29.5,-14.95zM380.2,800.9l3.4,38.25c-14.362,1.267 -28.809,0.748 -42.9,-1.4l5.8,-38c11.203,1.708 22.566,2.132 33.7,1.15z" /></svg>