<svg xmlns="http://www.w3.org/2000/svg" viewBox="0 0 776 960" width="776" height="960"><path d="M346.843,150.144c-0.326,0.082 -0.653,0.082 -0.98,0.163c-1.224,4.653 -2.449,9.469 -4.897,13.714c-2.939,4.979 -6.367,10.041 -8.244,15.428c-3.184,9.633 0.082,20.652 -2.286,30.611c-0.817,3.021 -1.143,6.203 -2.041,9.224c-0.653,2.041 -1.878,3.918 -2.449,5.877c-0.735,2.612 -0.326,4.734 -1.632,7.265c-1.796,3.592 -3.184,7.347 -4.979,10.857c-1.387,2.53 -1.551,4.408 -2.041,7.02c-0.245,1.143 -0.817,1.551 -0.98,2.939c-0.245,1.387 0.326,2.857 -0.082,4.245c-2.204,9.387 -1.469,19.183 -4,28.733c-1.715,6.367 -3.021,12.734 -5.714,18.694c-2.775,6.203 -4.897,12.734 -7.183,19.183c-2.939,8.244 -9.224,15.183 -11.754,23.591c-0.489,1.632 -0.489,3.102 -1.061,4.653c-0.735,2.041 -1.715,3.021 -1.796,5.306c-0.572,8.979 0,18.203 0,27.183c0,10.122 0.082,19.837 2.041,29.713c0.572,2.612 0.572,5.143 1.224,7.837c0.408,1.878 1.061,3.755 1.469,5.551c0.98,4.408 1.878,9.061 2.286,13.632c0.408,5.306 1.632,10.53 2.286,15.673c0.326,1.959 1.061,3.673 1.306,5.632c0.163,1.796 -0.408,3.673 0,5.388c0.326,1.387 1.143,3.265 1.551,4.816c1.143,4 3.021,7.265 3.102,11.428c0,1.796 0.082,3.755 0,5.551c-0.163,2.286 -1.061,4.245 -1.224,6.531c-0.326,3.021 0.082,6.203 0,9.224c0,4.734 -1.387,10.612 -3.51,14.693c-2.286,4.49 -4,8.572 -7.673,12c-2.939,2.693 -2.775,6.203 -4.734,9.142c-0.572,0.817 -1.551,1.061 -2.122,1.796c-0.898,1.306 -1.224,3.021 -1.878,4.49c-2.693,5.632 -4.734,11.673 -6.531,17.796c-0.572,1.878 -1.469,3.836 -1.715,5.714c-0.408,3.021 0.572,6.04 -0.245,8.979c-1.306,5.225 -0.898,10.693 -1.715,16.081c-0.898,5.959 -0.082,13.224 -1.715,19.02c-0.489,1.715 -1.551,3.265 -1.959,4.979c-0.408,2.041 0,3.918 -0.408,5.877c-0.489,2.449 -1.959,4.163 -2.122,6.694c-0.163,2.041 0.326,4.245 -0.082,6.286c-1.061,5.551 -0.735,10.939 -1.306,16.571c-0.326,3.51 -1.387,6.938 -1.878,10.448c-0.489,3.755 -0.572,7.51 -1.061,11.265c-1.306,8.979 -1.878,17.551 -1.632,26.693c0.163,5.061 1.878,9.959 2.693,14.938c1.306,8 4.163,15.101 6.775,22.612c2.041,5.877 5.551,10.776 7.673,16.571c1.878,4.979 3.428,10.122 5.143,15.183c2.122,5.877 4.653,11.591 5.959,17.632c0.898,4.408 2.449,9.714 4.327,13.795c1.551,3.428 3.755,6.367 5.225,9.877c2.53,5.877 6.286,11.51 8.163,17.714c1.715,5.796 2.53,12.245 3.755,18.203c0.408,2.041 2.53,10.53 -0.163,11.428c-7.755,-7.51 -10.367,-16.979 -15.673,-25.958c-1.878,-2.367 -3.347,-4.979 -4.245,-7.837c-0.572,-2.693 -1.551,-5.225 -3.184,-7.429c-1.143,-1.306 -2.041,-2.775 -2.775,-4.408c0,-0.98 -0.163,-1.959 -0.408,-2.939c-0.735,-1.469 -2.122,-2.449 -2.939,-4.245c-1.959,-4.734 -5.061,-8.816 -7.673,-13.306c-1.061,-1.878 -1.959,-4.897 -3.836,-6.122c2.204,1.959 3.265,4 3.918,7.02c0.572,2.367 2.939,8.898 0.817,10.612c-3.184,2.53 -6.938,-4 -7.429,-6.122c-0.653,-2.857 -0.163,-6.122 -0.163,-8.979c0,-4.816 0.817,-10.448 -0.082,-15.101c-0.735,-4 -3.021,-7.429 -3.673,-11.591c-1.061,-6.04 -3.102,-12.245 -3.347,-18.367c-0.326,-8.735 0.082,-17.468 0.082,-26.203c0,3.918 0.898,7.265 1.224,11.102c0.489,5.959 -0.898,11.918 0.98,17.468c-2.612,-2.775 -4.979,-7.429 -6.122,-11.102c-0.735,-2.449 -0.98,-4.979 -1.959,-7.429c-0.572,-1.469 -1.796,-2.775 -2.204,-4.082c-0.572,-1.715 -0.245,-3.836 -0.653,-5.632c-0.653,-2.612 -1.387,-4.897 -1.632,-7.592c-0.653,-5.632 -1.469,-10.939 -2.286,-16.49c-0.489,-3.265 -0.408,-6.531 -1.387,-9.633c-3.347,-10.612 -3.51,-21.795 -3.51,-32.815c0,-5.714 1.061,-12.571 0.082,-18.122c-0.408,-2.041 -1.306,-2.041 -2.204,-3.592c-1.878,-3.428 -1.306,-9.142 -1.387,-12.816c-0.163,-6.04 -1.224,-11.673 -1.224,-17.714c0,-4.816 -0.817,-9.061 -1.143,-13.714c-0.163,-2.53 -1.143,-4.653 -1.224,-7.102c-0.163,-2.857 0,-5.796 0,-8.653v-12.082c0,-7.102 0,-14.122 0,-21.142c0.082,-4.734 -1.143,-9.061 -1.143,-13.714c-0.082,-3.673 0.245,-7.429 -0.245,-11.102c-1.469,-10.53 -0.326,-21.387 -2.204,-31.754c-0.326,-2.122 -1.632,-4.082 -1.959,-6.203c-0.735,-3.836 0.082,-7.755 -0.326,-11.591c-0.326,-2.204 -1.224,-9.224 -3.592,-10.448c0.653,4.408 1.387,8.572 1.387,13.061c0,7.673 -0.735,13.469 -2.693,20.815c-1.959,7.265 -3.021,9.469 -7.592,15.101c-3.428,4.408 -5.714,6.694 -10.122,9.633c-3.51,2.286 -7.347,4.653 -10.204,7.673c-0.735,1.143 -1.551,2.286 -2.53,3.265c-1.387,0.98 -2.775,1.878 -4.163,2.857c-3.265,2.857 -6.286,6.938 -8.653,10.53c-2.041,3.184 -3.428,3.428 -6.612,5.714c-2.939,2.122 -5.796,3.428 -8.735,5.632c-3.428,2.449 -6.857,4.816 -10.367,7.183c-1.469,0.898 -2.693,1.959 -3.755,3.347c-4.408,3.021 -9.959,4.897 -12.245,9.877c-1.959,4.163 -4.897,7.51 -8.326,10.612c-2.857,2.693 -3.673,5.306 -5.143,8.735c-0.898,2.041 -1.632,4 -2.367,6.203c-1.306,3.918 -2.612,4.408 -5.959,7.02c-3.021,2.367 -5.877,4.979 -8.49,7.837c-1.143,1.143 -2.041,2.449 -2.612,4c-1.878,2.041 -3.918,2.939 -5.388,5.469c-1.715,3.184 -3.184,5.469 -3.918,9.224c-0.572,2.939 -1.143,6.203 -2.939,8.653c-1.632,2.286 -4.245,3.021 -5.959,5.143c-1.959,2.449 -2.857,5.714 -4.245,8.407c-2.53,5.306 -5.714,10.204 -8.326,15.51c-2.612,5.225 -5.061,10.041 -8,15.02c-1.143,1.959 -1.551,4.082 -2.775,5.959c-2.041,3.428 -4.49,6.531 -8.081,8.407c-3.102,1.143 -6.203,2.286 -9.306,3.347c-1.959,0.245 -2.775,1.143 -2.449,2.693c-0.653,1.469 -0.489,3.265 -1.959,4.49c-5.061,-3.428 -6.531,-9.387 -8.407,-14.612c-1.551,-4.408 -1.143,-8.816 -1.143,-13.387c-0.082,-4.163 0.572,-7.02 2.122,-10.939c1.878,-4.653 5.061,-8.816 7.918,-12.897c2.122,-2.367 3.918,-5.061 5.143,-8c0.163,-1.878 0.572,-3.673 1.224,-5.388c2.041,-6.857 4.327,-13.714 7.02,-20.326c2.041,-5.061 2.857,-10.448 4.979,-15.51c1.143,-2.612 2.041,-5.306 3.265,-7.918c3.755,-8.326 7.673,-16.49 11.347,-24.897c2.612,-5.714 5.469,-11.51 8.163,-17.224c2.204,-4 4.571,-7.918 7.02,-11.836c0.898,-1.632 1.796,-3.347 2.693,-4.979c1.387,-1.796 3.51,-2.775 3.755,-5.143c0.817,-0.163 1.469,-0.163 2.041,-0.817c2.939,-3.021 5.061,-7.918 7.51,-11.347c3.347,-4.816 6.938,-9.387 10.367,-14.122c5.143,-7.02 8.816,-15.02 13.143,-22.204c0.98,-1.632 1.551,-3.51 2.449,-5.143c2.041,-3.51 4.816,-5.877 7.755,-8.49c2.286,-2.041 4.979,-4 7.02,-6.122c3.755,-4 6.449,-10.041 8.816,-14.857c3.428,-7.183 6.775,-17.061 12.489,-22.856c1.796,-1.796 4.245,-2.449 6.203,-4c1.878,-1.551 4.408,-3.673 6.122,-5.469c1.796,-1.796 2.204,-4.816 3.918,-6.775c1.469,-1.796 3.673,-2.693 5.469,-4.082c3.184,-2.449 6.122,-5.632 8.898,-8.572c8.572,-8.979 17.142,-18.611 25.06,-28.162c3.918,-4.816 6.449,-10.448 10.122,-15.347c3.184,-4.245 6.938,-7.918 10.693,-11.591c2.041,-1.878 4.082,-3.918 6.203,-5.877c1.878,-1.796 4.245,-2.775 5.796,-4.897c0.98,-1.224 1.469,-2.775 2.612,-4c2.857,-2.939 5.959,-5.714 8.653,-8.979c2.041,-2.449 3.102,-4.49 4.653,-7.02c3.102,-5.143 7.918,-9.142 11.183,-14.286c3.592,-5.714 6.286,-11.754 10.122,-17.305c1.306,-1.878 2.449,-2.857 2.939,-5.061c0.326,-1.143 -0.082,-3.51 0,-4.571c0.163,-4.082 0.98,-7.918 2.367,-11.754c2.367,-6.531 5.306,-12.489 7.02,-19.265c1.306,-4.816 3.428,-9.469 4.979,-14.204c1.878,-5.877 0.817,-13.469 0.817,-19.755c0,-11.02 -0.735,-22.285 0,-33.306c0.082,-1.715 0.653,-2.693 0.98,-4.327c0.408,-2.53 0.163,-4.653 0.163,-7.265c0.082,-13.224 2.367,-26.612 4.163,-39.754c1.143,-8.653 3.51,-19.509 10.367,-25.714c3.347,-2.939 9.959,-8.163 14.857,-7.265z" /> <path d="M665.756,124.348c7.184,-1.713 15.51,-10.04 17.551,-17.305c-0.409,4.653 -0.653,9.061 -1.796,13.632c-1.061,4.163 -3.019,7.673 -4.897,11.428c-0.815,1.715 -1.306,3.184 -2.693,4.245c-3.02,2.203 -7.755,2.857 -11.183,3.918c-6.041,1.714 -9.632,2.285 -15.918,0.163c-6.857,-2.367 -13.796,-6.04 -21.061,-6.775c-6.694,-0.735 -13.387,-0.816 -20.081,-1.061c-3.919,-0.163 -6.449,-1.387 -10.122,-2.204c-2.53,-0.571 -5.306,-0.163 -7.918,-0.163c-7.183,0 -14.53,0.898 -21.55,2.367c-5.06,1.062 -10.693,2.775 -15.836,2.286c-6.939,-0.735 -15.02,-1.796 -21.306,-4.653c-5.225,-2.367 -10.285,-4.571 -15.673,-6.367c-1.55,-0.491 -9.795,-2.123 -10.448,0.489c-0.407,1.795 4.164,3.917 5.225,4.734c2.694,2.041 4.653,4.327 6.857,6.857c3.918,4.653 9.796,7.02 13.714,11.347c2.612,2.858 5.877,5.143 8.244,8.49c3.103,4.409 7.02,7.51 11.51,10.612c3.102,2.122 5.796,5.551 8.163,9.224c-11.265,-0.49 -22.53,-0.327 -33.795,0.653c-1.47,-1.388 -2.858,-2.776 -4.327,-4c-4.082,-3.265 -8.979,-5.223 -13.224,-8.244c-4.98,-3.428 -8.816,-3.265 -14.53,-4.408c-2.939,-0.653 -6.286,-1.143 -8.898,-2.775c-1.714,-1.062 -3.755,-2.123 -5.061,-3.755c-1.796,-2.367 -1.307,-2.939 -4,-0.735c-4.408,3.592 -8.163,7.918 -12.245,11.918c-2.204,2.286 -4.408,4.816 -6.938,6.694c-2.612,1.878 -5.877,3.103 -8.244,5.225c-2.123,1.878 -3.184,4.489 -4.653,6.775c-1.878,2.858 -4.49,4.082 -7.347,5.551c-6.775,3.51 -13.714,2.693 -21.224,2.693c-3.917,0 -8.653,0.735 -12.489,-0.326c-1.387,-0.326 -1.959,-0.735 -3.428,-0.898c-1.632,-0.164 -2.612,0.163 -3.918,-0.817c-4.245,-2.939 -5.062,-10.203 -8.898,-13.224c-4.408,-3.347 -11.346,-3.265 -15.101,-7.347c-1.633,-1.714 -1.388,-3.265 -2.286,-5.469c-0.979,-2.612 -2.122,-8.082 -4.979,-9.306c-1.795,-0.735 -5.142,-0.326 -7.02,-0.163c-2.858,0.164 -6.613,0.49 -8.572,2.286c-1.796,1.551 -3.674,4.816 -4.163,7.102c-1.06,5.061 -1.469,9.959 -2.775,14.938c-1.796,7.101 -4.164,14.204 -5.388,21.387c-0.734,4.327 -0.407,8.735 -1.387,13.143c-1.062,4.979 -1.96,10.286 -3.592,15.02c-0.654,1.96 -1.469,3.674 -2.286,5.796c-1.469,3.836 -3.917,7.183 -6.203,10.53c-3.184,4.979 -5.469,10.612 -8.081,15.918c-2.612,5.469 -4.408,11.428 -7.02,17.142c-2.531,5.551 -4.899,10.448 -6.531,16.244c-0.898,3.101 -1.55,6.285 -2.367,9.387c-0.899,3.101 -1.306,5.714 -3.592,8.244c-3.673,4 -10.448,3.673 -15.673,5.469c0,-6.204 5.224,-10.857 7.673,-16.326c0.815,-1.714 1.713,-3.346 2.53,-5.061c0.98,-2.041 1.143,-4.245 2.041,-6.286c1.143,-2.694 3.429,-5.062 4.327,-7.755c0.654,-1.876 0.408,-4.081 1.143,-6.203c1.388,-4.082 2.857,-8.082 4.163,-12.245c2.532,-7.755 4.736,-15.673 7.429,-23.428c1.224,-3.347 1.224,-5.795 1.306,-9.387c0.163,-6.611 1.306,-13.06 1.224,-19.672c0,-2.694 0,-5.47 0,-8.163c0,-3.102 0.163,-5.469 0.898,-8.49c0.816,-3.101 1.469,-6.366 1.469,-9.55c0.081,-3.999 0.326,-7.101 1.224,-10.693c0.816,-3.184 -0.082,-7.51 -0.082,-10.857c0.082,-12.408 -2.613,-25.142 -0.898,-37.55c0.409,-2.776 0.49,-5.797 0.898,-8.49c0.489,-3.183 2.612,-7.183 3.836,-10.285c0.653,-1.469 1.47,-3.02 1.796,-4.571c0.408,-1.633 -0.245,-3.592 0.163,-5.061c1.061,-3.755 2.612,-7.265 3.347,-11.265c0.734,-4.081 2.286,-7.265 2.612,-11.51c0.244,-3.755 1.306,-8.081 2.53,-11.673c5.225,-15.346 18.448,-21.631 29.224,-32.407c2.041,-2.04 4,-4.162 5.959,-6.04c2.204,-1.959 4.653,-3.755 6.775,-5.877c1.714,-1.633 3.264,-3.837 4.979,-5.388c1.632,-1.387 4.081,-2.204 5.959,-3.428c4.326,-2.775 8.979,-4.734 13.795,-7.02c3.102,-1.551 5.225,-1.469 9.061,-1.469c6.286,0 12.653,-0.245 19.02,0c4.163,0.082 8.326,0.98 12.489,1.469c3.347,0.408 8.898,1.796 12.326,1.551c3.346,-0.245 6.856,-0.816 10.448,-0.653c4.734,0.163 9.713,2.204 13.958,4.408c6.123,3.021 11.347,8 17.959,10.204c5.142,1.714 9.305,2.857 13.958,5.306c1.633,0.816 3.592,2.04 5.388,2.857c1.306,-0.817 2.531,-1.632 3.918,-2.204c4.653,-1.96 9.143,-1.796 14.04,-1.878c1.224,0 2.367,0.163 3.51,0.245c12.326,3.837 24.816,6.531 37.468,8c4,1.47 6.939,3.51 11.347,3.592c4.49,0.081 9.061,-0.082 13.551,-0.082c6.857,0 14.123,-0.572 21.061,0c5.551,1.796 11.183,3.673 16.734,5.469c4.245,3.51 9.062,6.368 12.98,10.204c4.816,4.654 5.305,13.469 7.183,19.755c0.163,0.326 0.244,0.572 0.326,0.898c-7.265,-2.776 -14.938,-4.408 -22.775,-5.306c-0.735,-0.245 -1.469,-0.49 -2.204,-0.653c-1.389,0.163 -2.776,0.163 -4.082,-0.163c-11.836,-2.122 -26.285,-4.897 -37.305,0.735c-3.755,1.959 -8.245,3.265 -12.245,5.061c-7.755,3.592 -15.429,7.183 -23.347,10.367c-2.857,1.142 -4.898,2.204 -7.265,4.163c-2.939,2.449 -6.449,4.735 -9.061,7.51c-3.592,3.837 -5.387,9.306 -8.326,13.551c1.47,2.448 10.204,0.815 13.061,1.387c6.775,1.55 13.388,5.55 20.326,5.632c2.775,0 5.55,-0.245 8.244,-0.082c2.694,0.163 5.144,1.142 7.837,1.224c4.408,0.163 8.816,-0.082 13.224,-0.082c4.408,0.081 8.653,0.326 12.98,-0.817c2.613,-0.734 4.736,-1.469 7.429,-1.551c7.592,-0.081 13.714,5.47 20.489,8.163c4.327,1.714 9.387,3.102 13.714,4.571c3.02,1.06 6.122,2.53 9.306,2.775c5.061,0.409 11.511,-0.244 16.408,-1.387z" /> <path d="M503.238,27.046c-1.632,0.326 -3.673,0.163 1.878,-0.653c-0.653,0.245 -1.224,0.489 -1.878,0.653z" /> <path d="M494.537,149.002c0,4.408 -0.817,8.081 -2.939,12c-1.715,3.347 -3.021,7.102 -4,10.857c-2.286,8.735 -3.755,18.448 -5.714,27.509c-3.592,16.979 6.449,31.102 11.836,46.04c0.898,2.53 1.061,5.469 2.204,8c0.898,1.878 2.449,3.51 3.592,5.388c1.551,2.693 2.449,5.796 4.163,8.49c1.306,2.041 2.775,3.673 3.673,5.959c1.224,3.265 1.878,7.429 4.163,9.959c2.857,3.265 4.245,7.673 6.775,11.183c2.449,3.51 4.082,7.673 5.551,11.591c1.796,4.571 4.327,8.653 6.449,12.98c1.143,2.286 2.122,4.327 3.673,6.367c1.469,1.959 1.469,4.245 2.693,6.286c1.959,3.184 4.571,6.203 6.531,9.387c2.939,4.653 6.775,8.572 9.714,13.143c1.959,3.184 4.897,6.612 6.04,10.122c0.98,3.184 2.204,6.694 3.592,9.877c1.306,3.021 3.918,5.632 5.796,8.653c2.53,4.245 6.531,7.347 9.469,11.183c3.021,4 5.388,8.653 8.653,12.408c0.817,0.98 2.041,1.796 2.775,2.775c1.306,1.878 1.632,3.836 3.347,5.551c2.204,2.286 5.143,4.897 7.755,6.857c3.428,2.53 6.122,5.388 8.816,8.816c4.653,5.877 12,8.735 17.959,13.143c4.571,3.428 7.673,6.612 13.387,8.244c4.897,1.387 11.02,1.061 14.938,4.49c1.715,1.551 5.632,4.734 6.531,6.938c0.898,1.959 0.98,2.775 2.53,4.571c2.449,2.939 3.918,6.531 6.122,9.714c3.184,4.816 6.122,9.714 9.142,14.53c1.061,1.632 1.878,3.428 2.939,5.143c1.469,2.367 3.021,3.428 4.734,5.551c1.387,1.715 2.286,4 4,5.632c1.551,1.387 3.102,2.286 4.408,4c3.265,4.327 7.837,9.142 9.633,14.286c3.51,9.714 7.265,20.571 14.204,28.326c3.918,4.408 6.122,10.041 9.306,14.938c1.469,2.204 3.021,4.571 4.408,7.02c1.306,2.367 3.428,4.082 4.897,6.449c0.489,0.817 1.306,1.796 1.796,2.367c1.959,3.102 2.53,6.775 3.592,10.448c1.387,4.897 2.612,10.041 4.571,14.693c1.796,4.408 3.673,8.244 4.49,12.897c0.735,4 0.817,5.061 -0.082,8.735c-1.387,6.286 -0.245,14.122 1.306,20.163c1.061,4 3.347,7.02 4.327,10.693c0.489,2.041 1.551,4.49 1.959,6.531c0.572,3.428 -0.735,6.775 -1.796,9.877c-0.898,2.612 -2.204,4.816 -3.428,7.265c-1.387,2.857 -6.938,11.183 -10.693,10.448c0.082,-1.551 -0.735,-1.878 -1.387,-3.021c-1.306,-2.122 -1.796,-5.143 -3.265,-7.183c-1.632,-2.286 -4.49,-3.755 -6.286,-5.959c-3.021,-3.51 -4.49,-7.265 -6.694,-11.347c-4.245,-7.673 -10.285,-14.775 -15.265,-22.041c-4.163,-6.286 -6.367,-14.693 -8.49,-21.877c-2.693,-9.061 -6.938,-18.938 -12.245,-26.775c-3.347,-4.979 -8.326,-8.572 -12.163,-13.224c-4.979,-5.877 -11.673,-9.306 -16.816,-14.693c-5.143,-5.306 -5.143,-14.04 -10.53,-19.509c-3.918,-4.082 -9.142,-5.959 -13.714,-9.061c-7.755,-5.143 -15.183,-10.693 -23.183,-15.592c-3.184,-1.878 -4.816,-3.918 -7.183,-6.531c-2.53,-2.939 -4.734,-6.612 -8.326,-8.326c-3.673,-1.715 -7.02,-0.408 -10.776,-1.387c-8,-1.959 -13.387,-11.918 -19.02,-17.305c-3.428,-3.265 -7.02,-5.551 -10.776,-8.326c-1.632,-1.306 -4.653,-3.592 -6.857,-3.51c-3.755,4.816 -1.715,16.571 -1.715,22.285c0,6.286 0.082,12.652 0,18.938c-0.082,2.449 -0.163,4.49 0.245,6.857c0.898,5.143 2.775,9.877 3.51,15.02c0.898,5.469 0.98,10.776 1.061,16.326c0.082,9.061 -0.163,18.122 -0.163,27.183c0.082,3.51 -0.163,6.286 -1.143,9.55c-2.693,8.816 -3.836,17.714 -5.551,26.693c-1.224,6.04 -2.693,11.591 -2.612,17.796c0,8.979 1.469,19.183 -1.387,27.755c-3.347,10.122 -8.979,20.163 -14.612,29.142c-2.775,4.49 -3.755,8.653 -5.714,13.469c-2.204,5.551 -3.51,8.244 -4.327,14.204c-0.98,6.775 -1.959,13.877 -3.428,20.489c-3.836,17.796 -8.244,35.346 -8.163,53.795c0.082,5.551 0.735,11.347 -1.796,16.408c-5.143,10.367 -15.265,18.04 -21.795,27.755c-4.163,6.203 -11.591,13.795 -12.734,21.469c-0.408,2.775 0.082,5.959 0.082,8.816c0,1.306 0.653,5.143 -0.653,5.714c-1.551,0.735 -1.796,-1.061 -2.939,-1.715c-2.204,-1.143 -9.224,-1.143 -11.754,-0.572c-1.878,0.408 -3.428,1.959 -5.225,2.775c-1.143,0.489 -2.204,0.898 -3.184,1.632c-1.224,0.898 -2.122,2.286 -3.265,3.184c-2.204,1.878 -5.796,3.102 -5.959,6.367c-9.469,1.959 -19.265,2.53 -28.57,5.306c-2.693,0.735 -5.306,1.796 -8.163,2.775c-0.898,-0.898 0.489,-5.388 0.572,-6.857c0.163,-4.245 -0.326,-8.572 -0.082,-12.816c0.163,-3.51 1.224,-6.775 1.224,-10.367c0,-1.632 -0.163,-3.184 0.245,-4.816c1.878,-7.429 5.143,-14.449 5.877,-22.285c0.489,-5.388 0.735,-11.428 2.286,-16.571c0.898,-2.693 2.449,-5.306 3.51,-7.918c2.53,-6.203 4.49,-10.939 4.49,-17.796c0,-6.203 -2.041,-12 -2.367,-18.04c-0.245,-3.428 0.245,-6.694 -0.245,-10.122c-0.326,-2.204 -0.898,-4.327 -0.98,-6.694c3.347,5.143 3.347,11.265 4.816,17.061c1.632,6.938 2.367,14.612 2.286,21.713c0,6.612 -0.572,13.795 0.898,19.918c0.489,2.041 0.653,3.755 1.878,5.632c1.715,2.449 3.755,3.755 5.143,6.449c1.306,2.449 2.204,4 2.775,6.694c0.408,2.041 0.817,3.592 2.204,5.225c1.959,2.367 4.816,3.755 8,4c7.02,0.408 13.306,-2.367 16.244,-8.572c1.306,-2.857 3.102,-4.408 5.061,-6.694c2.693,-3.021 3.592,-7.673 5.306,-11.183c1.387,-2.857 2.286,-5.632 3.428,-8.572c2.122,-5.551 6.122,-10.285 9.796,-14.775c3.755,-4.49 5.796,-7.673 7.837,-13.061c1.959,-5.143 4.734,-9.633 5.877,-15.101c0.98,-5.061 1.715,-9.959 2.939,-14.938c0.653,-2.775 0.898,-5.388 1.224,-8.163c0.572,-4.49 2.53,-8.979 3.755,-13.387c1.061,-4 2.775,-7.918 3.265,-12.082c0.326,-2.693 0.653,-4.979 1.387,-7.592c1.306,-4.653 2.367,-9.959 4.49,-14.286c0.98,-1.959 3.021,-3.021 4,-4.897c0.735,-1.387 1.061,-3.592 1.469,-5.143c0.735,-2.53 1.224,-5.225 2.122,-7.592c2.939,-7.592 6.367,-14.857 6.367,-23.101c0.082,-10.693 1.224,-21.224 1.224,-31.999c0,-11.51 0.082,-23.019 0,-34.53c-0.082,-4.408 1.143,-8.572 1.224,-12.98c0.082,-5.061 -0.163,-10.122 -0.082,-15.183c0.082,-3.347 1.143,-6.367 1.224,-9.714c0,-3.102 -0.082,-6.122 -0.082,-9.142c0.082,-12.326 2.367,-24.489 2.367,-36.734c0,-14.286 -0.489,-28.652 0.898,-42.774c1.143,-11.265 1.469,-22.204 1.469,-33.469c0,-10.448 0,-20.898 0,-31.346c0,-5.877 -0.326,-11.591 -1.143,-17.387c-0.408,-3.184 -2.53,-6.122 -3.51,-9.306c-0.653,-1.878 -1.061,-3.836 -1.224,-5.877c-0.245,-2.857 -1.387,-5.143 -2.122,-7.918c-2.122,-8.326 -4.49,-16.081 -8.979,-23.51c-3.184,-5.143 -6.286,-9.959 -8.081,-15.836c-1.632,-5.469 -1.959,-11.347 -2.775,-16.979c-0.408,-2.449 -1.306,-4.653 -1.632,-7.02c-3.836,-0.653 -4.816,-3.428 -6.286,-6.612c-2.286,-5.225 -3.673,-10.041 -4.979,-15.755c-0.735,-2.939 -1.224,-7.918 -2.857,-10.53c-1.306,-2.122 -3.755,-4.082 -5.388,-6.04c-5.143,-6.449 -7.347,-14.204 -12.082,-20.979c-3.265,-4.571 -4.408,-9.796 -6.938,-14.775c-6.775,-13.469 -10.857,-30.53 -4.245,-44.652c0.653,-1.306 0.489,-2.53 0.98,-3.918c0.572,-1.796 1.959,-3.592 2.693,-5.388c1.878,-4.49 4,-8.816 5.306,-13.469c1.061,-4.245 3.428,-8.979 3.51,-13.387c0.082,-2.939 0.572,-4.816 1.143,-7.673z" /> <path d="M459.37,869.879c2.204,2.286 2.367,5.632 5.877,6.775c4.734,1.632 11.754,0.245 16.653,0.245h9.061c2.286,0 4.897,-0.326 7.183,-0.082c2.612,0.408 4.979,1.878 7.592,2.775c4.082,1.387 7.918,3.184 12.163,4.163c2.286,0.489 4.082,0.98 5.959,2.204c0.898,0.572 1.387,1.306 2.204,1.796c1.796,1.061 4.082,1.143 5.796,2.367c2.041,1.387 2.204,3.755 3.918,5.306c0.735,0.163 1.387,0.326 2.122,0.489c0.817,0.572 1.551,1.224 2.367,1.878c1.387,0.489 2.367,0.163 3.592,0.817c5.143,2.857 11.265,10.53 9.306,17.061c-0.489,1.796 -3.836,5.061 -5.632,6.122c-3.102,1.878 -6.531,0.572 -9.633,-1.143c-3.836,-2.204 -16.49,-15.183 -16.408,-3.918c0,2.939 1.061,4.571 2.367,7.02c1.224,2.53 1.551,5.143 1.061,8.081c-3.021,0.817 -6.449,0.163 -9.306,-1.224c-2.449,-1.224 -4.571,-4.734 -6.938,-5.551c-3.918,-1.224 -9.387,5.632 -9.469,9.306c-0.245,6.775 -5.306,4.734 -8.816,0.245c-2.204,-2.775 -3.51,-4.408 -6.449,-6.449c-1.306,-0.98 -4.897,-3.755 -6.775,-1.878c-1.959,1.959 1.878,7.265 2.122,9.224c0.572,4.163 -0.408,9.469 -5.306,9.469c-3.265,-0.082 -10.939,-4.897 -13.958,-1.796c-1.306,1.224 -0.489,3.347 -0.898,4.979c-0.408,1.224 -2.286,3.918 -3.428,4.653c-3.265,2.204 -10.448,2.286 -14.204,1.469c-2.204,-0.408 -4.082,-1.959 -5.632,-3.51c-3.673,-3.755 -6.531,-10.367 -12.816,-8c-3.836,1.387 -5.632,7.102 -9.306,8.081c-3.592,0.98 -6.857,-2.122 -8.572,-4.734c-2.612,-3.836 -3.347,-4.816 -7.837,-4.734c-6.367,0.163 -12.897,0.326 -19.183,0.082c-2.939,-0.163 -5.796,-0.817 -8.735,-1.224c-5.632,-0.817 -12.816,-0.082 -18.203,-2.286c-1.306,-0.489 -3.184,-2.041 -4.245,-2.53c-4.653,-2.367 -9.55,-4.163 -14.04,-6.857c-4.408,-2.612 -7.347,-5.632 -10.448,-9.55c-0.898,-1.143 -2.041,-2.122 -2.857,-3.428c-1.387,-2.041 -2.122,-2.367 -4.082,-3.755c-2.449,-1.715 -3.428,-3.673 -4.979,-5.959c-2.612,-3.918 -4.245,-3.184 -8.816,-3.184c-2.449,0 -4.979,-0.163 -7.347,0.082c-2.367,0.326 -6.612,0.326 -8.735,1.061c-0.653,0.245 -0.898,1.061 -1.387,1.224c-3.184,1.061 -4.979,1.143 -8.407,1.143c-8.816,0 -17.959,-1.306 -26.285,1.469c-1.551,0.489 -1.796,0.653 -3.265,0.653c-0.082,-0.572 -0.408,-0.817 -0.898,-0.817c-1.061,-0.408 -2.204,-0.489 -3.347,-0.163c-2.53,0 -4.408,-0.082 -6.775,0.572c-7.51,1.878 -14.775,2.53 -22.53,3.021c-3.592,0.245 -6.531,1.387 -10.122,2.041c-2.775,0.489 -5.143,0.408 -7.837,1.387c-1.306,-3.592 -5.714,-4.734 -8.326,-6.938c-1.469,-1.306 -2.204,-2.612 -4.082,-3.592c-0.817,-0.489 -2.693,-0.817 -3.184,-1.796c-1.224,-2.775 1.715,-4.571 3.918,-5.143c4.653,-1.061 8.653,-2.939 13.061,-4.653c7.183,-2.775 13.714,-7.755 20.489,-11.673c6.449,-3.673 10.939,-8.979 15.755,-14.204c3.184,-3.428 4.653,-7.673 7.429,-11.265c2.449,-3.021 4.245,-6.04 6.449,-9.224c1.878,-2.775 3.021,-5.388 5.306,-7.918c2.53,-2.775 2.693,-4.327 2.612,-7.918c-0.082,-3.755 0.489,-5.959 1.796,-9.469c0.245,-0.572 0.408,-2.775 0.735,-3.51c0.898,-1.715 2.857,-2.775 4,-4.327c1.469,-2.041 2.775,-3.755 2.857,-6.122c0.163,-3.102 0.326,-6.531 0.082,-9.469c-0.245,-2.775 -4.082,-11.102 2.204,-9.55c2.367,0.572 4.734,4.816 6.857,6.367c2.449,1.878 3.918,4.408 6.122,6.531c2.204,2.041 4.163,4.163 5.632,7.183c1.796,3.918 2.775,8.816 4,12.98c0.898,3.184 2.367,6.857 4.816,9.306c1.796,1.878 4.653,2.449 6.449,4.327c2.367,2.449 2.204,5.714 3.755,8.572c2.612,5.143 7.755,7.183 12.489,10.285c3.428,2.286 7.102,3.673 10.612,5.551c4.327,2.449 7.183,4.979 11.836,6.694c11.02,4 20.081,10.367 32.08,10.367c4.327,0 7.837,1.224 12.163,1.143c3.428,0 5.632,0.489 8.898,1.224c3.673,0.817 8.49,1.632 12.163,0.817c3.428,-0.653 5.551,-2.693 8.735,-4.163c3.673,-1.632 7.429,-4.653 11.51,-4.979c0.735,-0.082 1.715,0.082 2.449,0.082c2.693,0 5.388,0 8.081,0c2.122,0 4.245,0 6.367,0.082c1.878,-0.653 3.428,-2.122 5.551,-2.53c2.204,-0.326 4.816,0.082 12.897,2.449z" /> <path d="M250.731,655.355c1.061,0.817 2.122,4.245 2.693,5.551c0.898,2.204 0.898,4.327 1.387,6.612c1.143,4.897 1.632,9.796 2.857,14.775c1.143,4.408 2.53,8.653 3.673,13.061c0.735,2.939 2.367,5.469 3.184,8.326c1.715,5.388 3.836,9.796 3.755,15.673c0,2.449 0.408,4.408 1.224,6.612c0.898,2.612 0.98,4.082 1.387,6.857c1.061,6.531 -0.245,13.469 0.898,19.837c0.98,5.796 4.082,11.02 4.734,16.979c0.326,2.775 1.061,5.469 1.224,8.244c0.163,4.163 -0.98,8.163 -1.224,12.326c-0.408,7.102 4.734,12.163 8.244,17.877c1.632,2.693 1.959,5.959 4,8.735c1.632,2.204 3.265,4.245 4.979,6.367c2.693,3.347 6.531,3.184 10.204,5.388c2.693,1.551 5.632,3.592 8.163,5.551c2.857,2.204 4.734,5.306 6.367,8.49c1.061,2.122 2.041,3.347 3.428,5.225c3.918,4.979 5.796,16.408 13.143,16.162c4.897,-0.163 9.796,2.041 13.551,5.225c3.265,2.857 6.286,6.938 10.448,8.326c2.612,0.817 7.102,2.53 9.877,1.469c0.326,-0.082 1.143,-1.224 1.551,-1.551c1.715,-1.143 3.51,-2.122 5.469,-3.021c1.715,-0.817 3.021,-0.817 4.897,-1.306c2.449,-0.653 4.571,-2.939 6.857,-4c6.367,-3.184 8.979,-7.429 12.163,-13.143c0.326,-0.572 1.387,-0.489 1.878,-1.306c0.408,-0.98 0.245,-2.122 0.735,-3.021c1.224,-2.367 2.122,-3.673 2.693,-6.531c0.408,-1.715 1.061,-3.51 1.387,-5.143c0.408,-2.367 -0.245,-3.51 1.143,-5.632c1.387,-2.041 2.775,-4 4.163,-6.04c0.735,-0.98 2.53,-4.327 4.163,-4.327c2.775,-0.082 2.286,5.469 2.367,6.938c0.245,6.286 0.489,12.897 0,19.183c-0.572,7.51 -2.367,14.612 -2.367,22.285c-0.082,7.429 -0.572,14.204 -6.531,19.918c-1.551,1.551 -5.143,4.245 -7.265,4.571c-2.286,0.326 -4.49,-0.408 -6.612,-0.898c-8.49,-2.041 -16.979,-2.041 -25.551,-2.693c-5.306,-0.326 -10.122,-1.796 -15.592,-1.061c-3.428,0.408 -6.612,0.98 -10.041,1.306c-2.857,0.326 -5.632,0.817 -8.49,1.143c-6.203,0.735 -11.183,-5.061 -15.265,-9.224c-4.734,-4.816 -9.55,-9.796 -14.04,-14.938c-2.693,-3.102 -3.428,-4.163 -4.653,-7.429c-1.469,-3.755 -3.592,-6.367 -5.796,-9.55c-2.041,-2.939 -3.428,-6.04 -5.388,-8.979c-1.224,-1.959 -3.021,-3.673 -4.163,-5.714c-3.755,-6.203 -4.163,-12.163 -5.143,-19.183c-0.408,-2.857 -0.817,-5.551 -1.469,-8.407c-0.817,-3.51 -1.878,-6.938 -2.53,-10.53c-0.98,-4.734 -3.673,-9.387 -5.796,-13.469c-3.265,-6.122 -4.897,-12.163 -6.531,-18.857c-0.817,-3.347 -1.469,-6.612 -2.775,-9.796c-1.551,-3.755 -4.163,-7.102 -5.225,-11.102c-1.062,-4 -1.796,-8.244 -2.693,-12.245c-1.061,-4.897 -2.449,-8.816 -2.53,-13.714c-0.163,-4.245 -1.306,-8.081 -1.224,-12.408c0,-3.918 0,-7.918 0,-11.836c0,-3.836 0.245,-7.673 0,-11.51c-0.082,-2.041 -1.061,-3.755 -1.224,-5.877c-0.408,-6.775 -0.082,-13.469 -1.387,-20.163c-0.572,-2.939 -1.224,-5.061 -0.653,-8.163c1.061,-5.796 0.898,-11.347 0.898,-17.387z" /> <path d="M569.546,62.228c0.245,0.326 0.572,0.572 0.817,0.898c-0.98,1.224 -2.693,1.469 -3.918,2.204c-2.857,1.632 -5.143,4 -8.081,5.551c-4.245,2.286 -9.224,3.102 -13.469,5.388c-5.632,3.021 -12.245,7.51 -16.408,12.163c-3.428,4 -7.347,7.02 -8.244,12.571c-0.653,4.082 -1.061,8.326 -2.367,12.082c-0.653,1.959 -2.53,4.245 -3.428,6.286c-1.224,2.693 -1.632,5.877 -3.51,8.326c-1.469,2.041 -3.918,3.592 -5.714,5.469c-2.041,2.041 -4.082,3.836 -6.286,5.796c-3.918,3.592 -6.938,8.081 -10.285,12.163c-3.021,3.673 -7.673,5.306 -11.183,8.407c-2.041,1.878 -3.918,3.102 -6.286,4.653c-2.368,1.551 -5.225,2.857 -7.183,4.979c-1.632,1.878 -2.775,3.836 -4.653,5.632c-2.939,2.857 -6.449,4.734 -10.367,6.122c-1.878,0.735 -3.755,0.653 -5.959,1.061c-2.122,0.489 -5.959,1.387 -8,2.367c-2.122,0.98 -3.673,2.857 -6.203,3.592c-8.244,2.449 -20,0.898 -27.999,-1.469c-4.734,-1.387 -10.204,-1.715 -14.367,-3.265c-3.102,-1.061 -5.877,-2.775 -9.061,-3.755c-5.225,-1.796 -10.693,-4.327 -15.02,-7.347c-1.715,-1.224 -4,-2.367 -5.388,-4.082c-1.469,-1.878 -2.204,-4.571 -3.102,-6.775c-1.143,-2.612 -1.715,-5.632 -3.51,-8c-0.98,-1.306 -1.632,-1.632 -3.021,-2.449c-2.367,-1.469 -4.082,-3.755 -6.449,-5.143c-4.163,-2.612 -4.734,-1.551 -4.653,-7.183c0.163,-7.755 -0.245,-15.51 -0.082,-23.183c0.163,-3.265 1.224,-5.959 2.449,-8.979c1.959,-4.816 3.755,-3.673 8.163,-6.203c10.204,-5.959 18.367,-14.693 27.673,-21.877c1.551,-1.224 3.102,-2.122 4.897,-3.184c3.918,-1.959 7.592,-4.408 11.02,-7.265c2.041,-2.286 4.327,-4.327 6.938,-6.04c5.469,-3.265 12.082,-3.592 18.203,-5.061c5.143,-1.306 10.612,-2.53 15.592,-4.49c7.755,-3.102 17.061,-1.715 25.469,-1.632c12.408,0.082 24.408,-2.53 36.816,-2.367z" /> <path d="M512.066,171.857c-1.306,-1.061 -2.122,-1.224 -3.428,-1.959c-4.489,-2.612 -7.509,-5.633 -12.652,-7.102c-2.857,-0.898 -5.958,-1.47 -8.979,-1.878c-3.917,-0.653 -7.836,-1.387 -11.754,-1.959c-6.448,-0.898 -12.244,-3.673 -18.53,-5.551c-7.02,-2.041 -12.327,-3.591 -17.224,-8.979c-3.101,-3.347 -6.122,-7.183 -9.387,-10.285c-2.122,-1.959 -3.102,-1.469 -5.877,-1.551l78.529,-14.04c3.429,0.653 4.407,7.673 6.122,10.53c1.796,3.021 4.408,5.715 6.449,8.572c2.45,3.429 2.286,8.817 5.225,12.245c2.041,2.367 4.897,3.51 7.51,4.979c2.613,1.469 4.98,2.938 7.51,4.653c1.552,1.143 2.123,2.041 3.184,3.592c1.552,2.204 4.327,3.754 6.286,5.632c2.367,2.285 5.061,4.816 7.918,6.775c-10.775,-0.326 -21.631,-0.082 -32.407,0.898c-0.979,-0.246 -1.877,-0.49 -2.857,-0.572c-0.245,-0.163 -0.491,-0.326 -0.817,-0.489c-1.632,-0.98 -3.265,-2.286 -4.816,-3.51z" /> <path d="M659.828,70.72c0,1.143 0.082,2.449 0.082,3.673c-5.714,-3.347 -11.918,-5.877 -18.285,-7.592c-3.429,-3.591 -7.673,-6.53 -11.836,-9.387c-4.326,-2.939 -8.571,-4.327 -13.632,-5.714c-7.429,-1.958 -15.02,-2.367 -22.53,-3.836c-1.797,-0.409 -1.878,-0.898 -4.49,-0.898c-4.082,0.082 -8.163,0.082 -12.245,0c-6.612,-0.164 -10.775,1.877 -16.897,3.836c-6.448,2.041 -10.448,2.939 -16.162,6.775c-1.552,1.061 -13.96,12.245 -15.347,11.673l-10.53,-39.835c4.163,0.081 7.346,1.469 11.428,2.122c8.489,1.305 16.733,1.387 25.305,1.387c4.408,0 10.367,0.979 14.612,-0.817c1.224,-0.49 2.367,-1.224 3.428,-1.959c9.878,0.735 19.918,0.654 29.959,-0.163c11.592,3.592 23.102,7.592 34.693,11.102c0.407,0.898 0.815,1.713 1.387,2.53c1.551,2.449 2.612,2.693 5.061,3.836c3.265,1.387 6.285,4.653 9.224,6.775c1.878,1.388 2.041,1.469 3.184,3.51c2.041,3.511 3.674,8.898 3.592,12.98z" /> <path d="M505.083,126.716c-0.245,0 -0.489,0 -0.735,-0.082c1.306,1.551 4,3.428 5.632,4.49c2.857,1.878 7.102,3.918 10.367,5.306c1.715,0.735 3.592,1.387 5.388,1.959c2.041,0.408 4,1.061 5.796,2.041c1.387,1.224 2.775,2.53 4.163,3.673c2.286,1.632 5.306,3.836 8.081,4.653c2.857,0.898 6.286,0 9.306,0.489c2.041,0.326 4.897,0.489 6.857,1.143c1.96,0.654 3.836,2.367 5.877,3.021c0.572,0.245 2.286,1.061 2.775,1.143c1.959,0.489 3.755,0 5.714,0.245c2.693,0.408 4.49,1.959 6.938,3.265c6.367,3.51 13.224,3.347 20,4.979c1.715,0.408 3.021,1.632 4.653,2.122c1.632,0.49 2.449,0.163 3.836,1.061c2.286,1.551 3.836,4 5.225,6.286c1.224,1.959 2.775,3.673 3.836,5.714c1.469,3.021 1.143,6.122 1.143,9.469c0,1.387 0.408,3.347 0.082,4.734c-0.326,1.387 -1.061,1.796 -1.224,3.428c-0.245,1.632 0.245,3.347 0.082,4.979c-0.245,1.796 -1.224,3.184 -1.306,4.979c0.245,-4.571 -2.857,-8.898 -5.469,-12.571c-1.796,-2.449 -2.857,-3.673 -5.714,-4.571c-4.163,-1.224 -7.918,-3.265 -12.082,-4.571c-12,-3.836 -23.673,-5.796 -36.407,-5.796c-11.918,0 -23.999,-0.98 -35.264,-4.979c-3.184,-1.143 -4.49,-3.021 -7.265,-4.979c-3.428,-2.449 -6.203,-5.632 -9.633,-8c-6.122,-4.327 -10.367,-10.612 -15.836,-15.755c-5.388,-5.143 -10.53,-10.693 -16.49,-15.51z" /> <path d="M679.756,111.454c1.714,0.244 2.938,1.142 4.653,1.224c1.225,0.082 2.612,0 3.755,0c3.837,0 7.266,0.163 10.939,-0.898c3.429,-0.979 5.551,-1.469 8.163,-3.836c1.306,-1.224 2.613,-1.632 3.021,-3.51c0.244,-0.817 -0.082,-2.612 -0.082,-3.51c0,-1.469 0.246,-2.531 -0.326,-3.918c-1.388,-1.878 -2.858,-3.592 -4.49,-5.143c-1.306,-1.552 -2.123,-3.266 -2.286,-5.225c-1.469,-1.878 -3.184,-3.184 -5.796,-3.347c-3.918,-0.163 -4.735,-0.326 -4.653,3.592c0,1.387 -0.98,7.347 1.959,5.632c-1.224,-0.572 -2.204,-1.633 -2.204,-3.102c-1.96,-0.163 -5.551,-2.204 -6.857,-3.673c-1.551,-1.715 -1.796,-6.612 -1.143,-8.898c0.734,-2.776 3.347,-4.001 5.877,-5.225c3.021,-1.469 5.388,-2.285 8.898,-2.367c7.836,-0.082 16.245,5.795 20.979,11.754c1.796,2.204 3.428,3.918 4.408,6.612c0.98,2.694 0.898,5.47 2.041,8.163c0.816,2.041 1.142,2.449 1.224,4.571c0.244,7.592 -3.51,13.469 -8,19.428c-8.49,11.101 -20.898,17.794 -34.53,16.162c-4.979,-0.654 -9.796,-1.062 -14.775,-0.98c-6.449,0.081 -12.979,0.898 -19.346,-0.245c-5.142,-0.897 -9.224,-4.407 -14.04,-6.203c-2.612,-0.897 -5.143,-1.876 -7.755,-2.693c-4.001,-1.224 -8.163,-2.53 -12.245,-3.51c-4.001,-0.98 -8.245,-0.735 -12.245,-1.715c-3.756,-0.898 -6.776,-0.816 -10.776,-0.898c-5.55,-0.081 -10.612,-1.469 -16.326,-1.224c-3.428,0.163 -6.775,0.98 -10.285,1.469c-2.449,0.407 -4.98,0.816 -7.51,1.224c-0.735,0.082 -1.142,0.898 -1.959,0.98c-5.633,0.49 -13.143,-2.775 -18.122,-4.653c-2.694,-0.98 -5.715,-1.551 -8.49,-2.204c-2.286,-0.49 -4.163,-1.469 -6.449,-2.122c-1.142,-0.326 -3.673,-0.081 -4.897,-0.489c-1.715,-0.652 -2.286,-1.224 -4.408,-1.224c-5.143,0.083 -12.163,1.47 -16.734,-1.632c-3.265,-2.287 -4.245,-4.817 -5.551,-8.49c-0.734,-1.959 -2.123,-4.164 -2.449,-6.286c-0.49,-3.591 4.245,-9.469 6.367,-11.591c4.817,-4.572 7.592,-6.041 13.224,-3.755c8.083,3.266 14.286,9.47 22.041,13.143c3.673,1.632 8.163,1.469 12.245,2.367c8.735,2.041 15.264,7.918 22.693,12.489c2.939,1.876 5.796,1.305 9.306,1.387c5.551,0.163 8.326,4.571 13.714,4.734c5.877,0.163 12.49,0.571 18.122,-0.572c6.939,-1.388 14.286,-0.082 21.306,0.898c5.06,0.652 9.632,0.897 12.897,4.897c5.633,6.857 11.592,9.959 20.571,10.041c2.204,0 4.49,-0.082 6.694,0c3.183,0 4.408,-0.652 7.265,-2.367z" /> <path d="M663.3,488.914c2.122,0 5.306,3.103 6.938,4.327c2.367,1.551 4.245,3.184 6.449,5.143c1.061,0.898 1.306,1.795 1.878,2.53c1.47,1.877 3.429,3.754 5.225,5.469c2.53,2.449 4.245,5.632 6.775,7.918c2.041,1.062 4,2.286 5.796,3.755c3.102,2.204 5.96,4.653 8.49,7.51c2.938,2.939 5.877,5.796 8.407,9.061c1.061,1.469 1.959,3.347 3.102,4.734c1.388,1.715 3.266,2.858 4.653,4.49c2.939,3.347 4.734,7.265 7.918,10.367c2.204,2.204 4.979,3.836 7.02,6.04c2.939,3.101 4.898,5.796 8.49,8.326c4.653,3.265 10.286,6.694 13.551,11.428c0.979,1.388 0.979,2.531 1.632,3.755c1.225,2.204 3.184,4.245 4.49,6.367c1.797,2.939 3.021,6.04 4.49,9.142c0.979,1.959 2.122,3.836 2.857,5.877c1.388,3.673 3.428,7.755 4.163,11.673c0.817,4.572 0.245,9.633 0.245,14.286c0,3.346 0.408,7.101 -0.245,10.448c-0.653,3.184 -2.04,5.551 -2.122,8.816c-0.082,2.938 1.224,5.388 1.224,8.163c0.244,-1.713 -0.735,-2.285 -0.98,-3.428c-0.245,-1.551 -0.245,-2.939 -0.245,-4.49c0,-1.469 0.244,-3.021 -0.245,-4.408c-0.49,-1.306 -1.877,-2.04 -2.122,-3.755c-1.061,-7.02 -3.02,-13.632 -8.163,-19.346c-2.204,-2.45 -4.082,-4.899 -6.286,-7.429c-1.388,-1.552 -2.368,-2.94 -4,-4.327c-2.693,-2.285 -3.51,-5.469 -5.877,-8.081c-4.001,-4.408 -8.817,-8 -12.98,-12.245c-5.96,-5.959 -11.51,-11.673 -16.653,-18.367c-2.857,-3.755 -5.796,-8 -9.306,-11.102z" /> <path d="M114.798,574.459c0.163,3.102 -3.019,5.551 -4.734,7.673c-2.286,2.858 -2.939,5.551 -4.245,8.735c-1.632,4.081 -4.979,7.754 -6.938,11.754c-3.51,7.102 -6.775,14.53 -11.183,21.142c-4.081,6.285 -7.755,11.592 -8.163,19.265c-0.326,6.938 0.082,14.121 0.082,21.142c0,7.021 0.979,13.877 1.224,20.979c0.082,3.102 -0.326,6.203 -0.163,9.224c0.163,2.367 1.061,4.408 1.306,6.694c0.408,3.673 -0.326,6.939 0.98,10.367c-2.204,-0.244 -3.919,-3.754 -5.143,-5.469c-2.367,-3.102 -4.162,-6.286 -6.203,-9.714c-3.265,-5.632 -6.939,-10.285 -9.714,-16.162c-3.754,-7.836 -3.265,-13.959 -3.428,-22.122c0,-0.898 -0.244,-2.286 0.082,-3.184c0.407,-1.224 1.633,-1.878 2.122,-2.939c0.571,-1.714 0.163,-4.081 0.163,-5.877z" /> <path d="M316.37,151.371c9.387,10.857 9.714,20.571 9.469,30.285c-0.164,3.102 -1.062,5.796 -1.715,8.816c-0.653,3.02 -0.898,5.958 -1.306,8.979c-1.225,9.633 -4.735,17.714 -7.592,26.938c-3.51,11.346 -4,23.836 -6.449,35.427c-1.062,4.899 -2.613,8.979 -5.225,13.306c-1.796,2.939 -3.184,5.96 -5.306,8.735c-0.816,1.143 -1.632,2.204 -2.367,3.51c-1.389,2.776 -2.204,6.123 -4.082,8.653c-1.143,1.469 -2.857,2.367 -3.918,3.918c-0.815,1.143 -0.979,2.531 -1.632,3.592c-0.653,0.979 -1.96,1.469 -2.449,2.53c-0.571,1.061 -0.653,2.285 -1.306,3.428c-1.306,2.367 -3.184,4.408 -4.571,6.775c-2.367,4.164 -3.999,9.143 -6.04,13.551c-1.47,3.428 -2.858,6.857 -4.245,10.285c-0.57,1.143 -1.061,2.449 -1.387,3.673c-0.489,2.122 -0.407,3.755 -1.387,5.714c-0.734,1.551 -1.876,2.938 -2.693,4.653c-4.163,8.898 -9.551,15.591 -17.714,21.55c-6.449,4.735 -13.469,7.836 -20.326,11.918c-3.918,2.368 -7.591,5.796 -11.918,7.347c-0.652,-1.878 -0.163,-4.245 -0.163,-6.286c0,-3.511 -0.327,-7.266 0.245,-10.776c0.735,-3.917 0.735,-7.754 1.224,-11.754c0.327,-3.183 0.163,-6.857 1.959,-9.55c1.306,-1.96 3.02,-4.98 4.816,-6.531c1.715,-1.47 4.49,-1.715 6.286,-3.102c5.387,-3.836 12.08,-7.918 18.611,-9.55c3.102,-0.817 6.122,-0.326 9.224,-0.817c3.102,-0.491 1.632,-0.899 3.51,-4.327c2.776,-5.143 7.266,-9.224 10.041,-14.449c2.041,-3.673 5.469,-6.694 7.347,-10.53c1.469,-2.858 1.142,-5.877 1.224,-9.061c0,-4.164 -1.224,-7.837 -1.224,-12.082c0.082,-3.428 -0.245,-6.449 -0.898,-9.714c-0.245,-1.387 0.163,-3.021 -0.163,-4.408c-0.327,-1.306 -1.632,-2.041 -2.449,-3.102c-1.061,-1.55 -1.387,-0.734 -0.489,-2.693c0.898,-2.041 2.776,-4.244 4.082,-5.959c1.387,-1.714 3.102,-3.02 4.408,-4.816c2.041,-2.857 2.694,-6.367 4.653,-9.224c3.264,-4.734 3.836,-8.734 3.836,-14.693c-0.082,-5.714 -0.082,-11.509 -0.082,-17.305c0,-2.612 -0.653,-6.449 0.245,-8.898c1.55,-4.489 6.938,-7.754 9.387,-11.754c2.204,-3.51 4.898,-6.449 7.02,-10.204c3.102,-5.306 6.856,-9.714 9.142,-15.51c2.285,-5.551 2.367,-10.531 2.367,-16.49z" /> <path d="M282.382,263.855c-4.571,3.919 -3.51,9.633 -3.51,12.082c0,4.652 0.326,8.979 -1.143,13.387c-3.917,11.836 -6.938,23.917 -11.754,35.427c-2.286,5.633 -4.082,11.265 -6.449,16.816c-2.205,5.225 -5.47,9.633 -8.572,14.367c-2.858,4.408 -5.959,10.041 -11.265,12c-2.45,0.898 -6.042,1.388 -8.572,2.041c-2.204,0.571 -5.061,1.225 -7.265,0.408c-0.735,-3.183 -0.082,-7.183 -0.082,-10.448c0,-2.204 0,-4.408 0,-6.612c0.082,-3.51 -0.979,-6.53 -1.224,-9.877c-0.572,-8.246 -0.408,-17.307 0,-25.551c0.244,-4.816 2.938,-11.184 4.897,-15.592c2.367,-5.143 5.387,-9.959 7.673,-15.02c3.347,-7.02 12.081,-11.021 18.775,-13.551c5.469,-2.04 11.836,-4.898 17.632,-6.122c3.919,-0.898 7.266,-0.489 10.939,-2.53c-0.082,-0.407 -0.082,-0.816 -0.082,-1.224z" /> <path d="M323.398,102.065c-0.082,4.082 -1.224,7.51 -1.143,11.673c0,2.286 0.326,4.979 0,7.265c-0.245,1.632 -0.817,2.857 -1.224,4.49c-0.735,2.857 -0.98,5.877 -2.041,8.49c-0.98,2.367 -3.51,4.082 -3.836,6.775z" /> <path d="M338.643,59.943c-0.571,4.898 1.796,10.123 2.204,15.02c0.898,8.817 -0.081,17.469 -1.632,26.122c-2.612,14.203 -5.551,28.815 -11.428,42.121c-2.286,5.223 -3.184,11.101 -5.796,16.162c-3.347,6.449 -6.53,12.816 -8.326,19.918c-2.612,10.531 -3.184,20.409 -3.184,31.102c0,17.061 -0.163,34.121 0.082,51.182c0.082,4.163 -0.244,7.918 -1.224,12c-0.652,2.776 -0.326,6.368 -1.387,8.898c-2.122,5.387 -6.938,10.203 -10.448,14.693c-3.101,4 -6.775,5.632 -10.53,8.979c-2.612,2.367 -5.305,5.714 -8.244,7.673c-1.633,1.061 -3.674,1.387 -5.306,2.53c-4.244,3.021 -7.102,7.347 -11.673,10.204c-2.204,1.387 -10.613,7.999 -13.306,6.04c-0.489,-7.183 -0.489,-14.938 0.817,-21.958c1.061,-5.388 1.551,-10.449 1.469,-16.081c0,-2.122 0.409,-2.938 0.898,-4.897c0.653,-2.449 0.245,-5.388 0.245,-7.837c0,-6.612 -0.326,-13.224 0,-19.755c0.081,-1.795 0.572,-3.019 0.898,-4.734c0.653,-2.939 -0.244,-5.878 0.245,-8.735c0.898,-5.632 5.224,-10.204 7.51,-15.265c3.02,-6.938 6.939,-13.306 11.918,-19.183c2.613,-3.102 6.204,-6.203 7.347,-10.285c1.55,-5.551 -1.225,-11.836 -1.878,-17.224c-0.734,-5.633 -1.306,-13.959 0.735,-19.591c2.285,-5.877 6.693,-12.815 11.02,-17.305c3.428,-3.592 5.714,-8.571 8.244,-12.734c2.857,-4.653 5.306,-9.714 7.918,-14.53c2.613,-4.898 3.592,-10.123 6.449,-14.857c1.797,-3.102 2.94,-5.633 4.327,-8.898c1.387,-3.347 9.959,-23.184 12.652,-22.367z" /> <path d="M289.412,279.036c-1.143,10.041 -4.082,20.082 -6.531,29.959c-1.061,4.408 -2.449,8.734 -4,13.061c-1.061,3.102 -2.204,6.368 -2.857,9.633c-0.49,2.122 -0.409,4.327 -0.898,6.449c-2.775,11.918 -6.449,23.102 -12.408,33.795c-1.959,3.511 -3.102,6.693 -5.714,9.714c-4.408,4.98 -7.428,10.776 -11.918,15.673c-4.001,4.49 -8.49,8.327 -12.408,12.98c-4.001,4.898 -7.918,9.632 -12.408,14.122c-6.203,6.285 -11.999,13.632 -18.611,19.591c-4.408,3.917 -7.021,8.652 -9.633,13.958c-1.96,4.081 -4.98,7.592 -7.429,11.428c-6.531,10.04 -16.163,18.857 -27.183,23.754c-8.979,3.918 -17.061,8.979 -24.734,15.265c-3.429,2.775 -7.184,5.224 -10.612,8.081c-0.817,0.653 -2.367,2.53 -3.347,2.775c1.387,-5.714 1.061,-11.591 2.122,-17.387c0.817,-4.735 2.775,-10.041 4.49,-14.612c2.204,-6.041 4.898,-12.163 8.163,-17.714c2.448,-4.245 5.223,-8.245 8.244,-12.163c1.714,-2.041 3.673,-4.163 4.571,-6.612c1.715,-4.489 3.102,-9.551 4.245,-14.122c2.121,-8.489 5.714,-18.856 11.754,-25.305c3.673,-3.836 7.673,-7.346 10.53,-11.754c3.428,-5.224 8.163,-8.98 12.163,-13.714c4.898,-5.795 7.102,-12.652 9.959,-19.509c1.143,-2.856 2.367,-6.04 2.775,-9.142c0.49,-4.244 -0.326,-8.571 0.898,-12.734c0.735,-2.775 2.204,-5.388 3.428,-8c1.469,-3.103 3.266,-6.122 4.653,-9.306c1.224,-3.02 2.041,-4.816 4.163,-7.102c2.368,-2.612 4.817,-5.633 6.286,-8.898c2.612,-5.632 5.715,-10.857 7.837,-16.734c1.551,-4.327 1.143,-8.572 1.143,-13.143c0,-3.755 0,-7.02 -1.796,-10.53c-3.919,-7.592 -1.47,-19.592 2.775,-26.775c1.959,-3.266 4.735,-5.307 7.347,-8c3.429,-3.51 6.449,-7.183 10.367,-10.285c3.429,-2.694 7.755,-4.898 10.204,-8.653c-0.816,-1.306 -2.694,-2.04 -4,-2.857c-2.613,-1.632 -5.225,-4.245 -8.49,-4.653c4.98,-9.55 18.449,-14.122 18.775,-25.958c0.163,-4.735 -3.265,-11.428 -0.572,-15.918c1.551,-2.53 6.612,-4.408 9.224,-5.877c2.368,-1.306 4.735,-1.877 7.265,-2.612c2.448,-0.735 4.326,-2.204 6.775,-3.102c10.122,-4.081 18.775,-12.979 26.53,-20.652c1.96,-1.878 5.551,-6.694 8.163,-7.592z" /> <path d="M160.473,540.501c-0.245,2.449 -2.041,3.265 -3.51,4.897c-2.286,2.53 -3.836,5.796 -6.286,8.407c-3.918,4.163 -8,7.918 -11.918,11.836c-6.122,6.122 -10.367,14.122 -13.551,22.204c-0.735,1.796 -1.878,3.673 -2.857,5.388c-1.224,2.204 -1.143,4 -1.959,6.203c-0.408,1.061 -1.469,1.796 -1.878,2.857c-0.326,0.898 -0.163,2.122 -0.408,3.021c-0.489,2.041 -0.817,3.347 -0.98,5.469c-0.245,3.347 -1.878,6.04 -2.449,9.142c-0.245,1.551 0.489,3.428 0.163,5.061c-0.326,1.387 -1.061,1.878 -1.306,3.428c-0.245,1.878 1.306,7.429 -1.551,7.02c-1.143,-0.163 -1.306,-1.632 -2.122,-2.122c-1.387,-0.653 -3.592,-0.163 -5.061,-0.245c-2.612,-0.082 -6.694,-1.306 -8.326,-3.673c-2.204,-3.265 -1.632,-8 -1.632,-11.754c0,-3.836 -0.817,-8.735 -0.082,-12.489c0.326,-1.796 1.387,-2.53 2.122,-3.918c0.735,-1.469 0.817,-3.102 1.715,-4.49c2.449,-3.836 5.061,-7.673 7.51,-11.51c3.592,-5.959 9.224,-10.122 11.918,-16.734c1.959,-4.734 4.897,-9.306 7.918,-13.632c1.306,-1.959 1.796,-4.082 2.857,-6.203c1.387,-2.775 3.592,-5.306 4.408,-8.407c1.959,-7.02 6.367,-12.734 9.387,-19.346c1.224,-2.693 2.041,-4.979 3.755,-7.347c1.551,-2.041 3.918,-4.571 4.734,-7.02z" /> <path d="M249.581,456.011c1.143,4.326 2.776,8.653 4.082,12.816c0.571,1.959 1.958,3.51 2.693,5.469c0.98,2.857 1.143,7.101 1.715,10.122c0.49,2.53 0.816,5.143 0.898,7.673c0.082,2.858 -0.326,5.715 0.082,8.49c0.244,1.877 0.898,3.591 1.061,5.469c0.572,6.694 0.98,12.734 2.939,19.346c2.286,7.755 2.123,16.245 1.878,24.408c-0.408,11.02 -3.836,21.55 -3.673,32.652c0.081,10.039 0.081,19.917 -0.572,29.876c-0.49,7.51 -1.061,13.877 -4.245,20.734c-3.347,4.98 -6.205,10.204 -8.735,15.673c-1.878,3.347 -3.429,6.857 -4.653,10.53c-2.367,6.04 -5.06,11.673 -8.244,17.305c-2.367,4.082 -5.388,8.49 -5.306,13.306c0.081,9.061 10.694,15.183 15.428,21.958c2.204,3.183 3.755,6.857 5.796,10.285c2.041,3.347 2.368,6.122 4,9.55c1.959,4.082 2.611,9.061 3.428,13.469c1.306,6.449 2.531,12.816 3.918,19.265c3.021,14.285 7.918,28.571 9.959,43.101c1.306,9.387 0,19.427 -1.551,28.733c-2.449,-0.572 -4.245,-4.653 -5.877,-6.449c-1.551,-1.632 -2.857,-4.653 -4.408,-6.04c-1.061,-0.98 -1.143,-0.409 -2.367,-0.898c-8.326,-3.673 -17.142,-7.754 -22.448,-15.101c-3.429,-4.735 -6.694,-12.163 -11.673,-15.428c-0.897,-0.654 -1.551,-0.735 -2.612,-1.143c-3.755,-1.469 -6.448,-3.429 -9.469,-6.122c-3.673,-3.265 -7.999,-4.654 -11.183,-8.49c-2.938,-3.591 -5.714,-7.428 -8.407,-11.183c-2.694,-3.673 -3.511,-5.551 -4,-9.959c-0.571,-4.408 -0.326,-8.816 -1.224,-13.061c-0.245,-1.307 -0.163,-2.694 -0.408,-4c-0.49,-3.265 -2.775,-5.959 -4.49,-8.816c-5.142,-8.407 -6.121,-14.448 -6.203,-23.754c-0.082,-4.734 0.572,-9.469 1.959,-14.04c0.816,-2.448 4.163,-6.203 3.918,-9.142c0.245,2.367 -1.632,3.918 -1.224,6.367c0,-6.939 -1.142,-13.714 -1.224,-20.571c0,-8.408 -3.346,-16.244 -3.428,-24.734c-0.164,-10.45 4.408,-21.388 7.673,-31.265c1.796,-5.388 3.347,-10.611 5.714,-15.836c2.449,-5.306 3.674,-10.774 6.531,-15.999c2.939,-5.469 5.061,-11.428 7.51,-17.142c2.939,-6.693 6.53,-13.142 10.122,-19.509c3.019,-5.47 7.264,-12.571 8.407,-18.857c0.49,-3.021 1.551,-5.633 2.449,-8.572c1.062,-3.592 1.143,-7.347 2.286,-10.939c0.897,-3.021 1.958,-5.959 2.693,-9.061c1.632,-7.264 17.469,-14.203 16.897,-21.713c-1.388,10.368 -1.143,20.735 -1.143,31.183c-0.082,7.265 0.979,14.286 1.224,21.469c0.49,11.183 -0.082,22.53 -0.082,33.713c0.082,34.123 0.082,68.244 0.082,102.365c-0.081,6.122 -0.244,12 0.98,18.04c0.898,4.245 2.367,8.408 3.184,12.571c0.817,3.755 1.306,7.591 2.449,11.265c1.143,3.674 3.184,6.857 4.245,10.612c0.491,1.878 1.226,3.755 1.715,5.551c1.306,4.408 2.449,7.918 4.408,12c1.959,3.919 2.857,8.817 4.408,12.98c0.816,2.204 1.47,4.163 1.796,6.449c0.49,3.102 0.571,4.572 2.286,7.347c0.735,1.225 1.224,1.797 1.796,3.021c4.244,9.878 4.244,21.715 6.122,32.163c0.898,4.816 0.571,9.796 0.653,14.775c0.082,8.163 -1.387,16.897 -5.714,23.999c-1.061,1.797 -2.04,4.653 -3.836,5.225c-3.347,1.06 -9.143,-5.061 -10.53,-7.347c-2.449,-4.245 -4.49,-9.143 -6.122,-13.714c-0.735,-2.04 -0.899,-3.755 -0.817,-6.367c0,-2.367 0.245,-6.04 -0.572,-8.326c-1.878,-5.469 -9.387,-8.979 -13.714,-12.326c-2.856,-2.122 -3.999,-3.347 -5.877,-6.122c-3.918,-5.632 -7.591,-11.183 -9.55,-17.877c-0.653,-2.367 -0.572,-4.408 -1.796,-6.449c-4.816,-8.162 -12.816,-15.102 -14.938,-24.652c-0.653,-2.856 -0.816,-5.306 -1.959,-8.081c-1.878,-4.49 -0.817,-10.531 -0.817,-15.51c0,-9.305 0.898,-17.468 3.755,-26.366c0.735,-2.449 2.123,-4.163 3.021,-6.449c0.817,-2.041 1.469,-5.388 2.041,-7.592c1.876,-6.857 0.489,-15.102 0.489,-22.122v-19.755c0.081,-5.142 -0.408,-10.122 0.898,-14.938c5.306,-19.509 8.49,-38.855 13.143,-58.692c1.469,-6.203 3.347,-12.326 4.979,-18.448c0.653,-2.204 1.796,-4.163 2.204,-6.367c0.164,-1.388 -0.081,-3.021 0.082,-4.49c1.551,-10.285 3.347,-20 3.347,-30.448z" /> <path d="M540.249,648.335c2.693,2.367 2.775,9.224 3.836,12.326c1.632,5.225 1.632,10.041 3.184,15.183c2.693,8.735 1.551,20.326 0.082,29.224c-0.817,4.245 -1.551,7.02 -3.755,10.53c-2.693,4.571 -7.102,8 -8.735,13.143c-1.143,3.51 -0.98,9.469 -0.245,13.061c0.082,0.326 0.898,1.143 0.98,1.715c0.408,1.387 -0.245,3.021 -0.082,4.408c0.245,2.286 1.224,4.163 1.224,6.531c0,2.449 -0.898,4.49 -1.469,6.857c-1.715,6.694 -3.592,13.306 -6.04,19.755c-0.898,2.286 -2.693,6.857 -4.327,9.224c-0.817,1.143 -1.715,1.715 -2.286,2.939c-0.98,1.959 -1.715,4.245 -2.612,6.286c-0.817,1.878 -1.715,4.163 -2.122,6.122c-0.489,3.021 0.735,4.734 -0.898,7.347c-1.387,2.122 -4.245,4 -6.04,5.877c-1.715,1.959 -4.163,2.775 -5.959,4.408c-5.551,5.143 -8,13.224 -14.53,17.877c-1.387,0.898 -4.653,2.449 -6.449,2.122c-3.428,-0.653 -3.755,-6.775 -3.592,-9.469c0.163,-4.163 1.796,-9.796 3.836,-13.387c1.878,-3.347 2.449,-6.612 3.021,-10.367c0.326,-2.53 0.898,-4.49 1.469,-6.938c0.245,-1.224 0.082,-2.367 0.572,-3.673c0.653,-1.715 1.959,-3.102 2.612,-4.897c0.572,-1.306 0.572,-2.775 1.143,-4.163c0.572,-1.551 2.041,-3.021 2.449,-4.571c0.245,-1.061 -0.082,-1.796 0.082,-2.775c0.408,-3.265 2.367,-5.632 3.755,-8.49c1.388,-2.858 1.878,-6.203 3.102,-9.306c0.98,-2.449 1.224,-4.082 1.387,-6.694c0.245,-2.204 0.735,-4.163 1.387,-6.286c1.061,-3.184 0.735,-5.959 1.224,-9.224c1.387,-7.837 5.143,-15.183 6.857,-22.856c1.632,-7.429 3.347,-14.449 6.694,-21.469c2.939,-6.04 6.449,-12.326 8.326,-18.775c0.898,-3.184 1.387,-6.286 2.53,-9.306c0.817,-1.959 0.653,-5.796 9.387,-22.285z" /> <path d="M200.292,429.077c0.491,6.449 -2.367,11.509 -6.04,16.734c-3.673,5.306 -7.428,10.939 -11.673,15.918c-4.408,5.142 -9.714,9.305 -14.693,13.958c-5.877,5.387 -11.836,10.53 -18.448,15.02c-5.06,3.346 -9.796,7.183 -14.693,10.693c-4.489,3.265 -8.734,7.918 -13.795,10.285c-7.51,3.51 -13.958,7.674 -20.244,13.306c-9.387,8.408 -18.448,17.061 -28.57,24.816c-7.918,6.122 -16.571,11.346 -23.754,18.04c-5.062,4.734 -11.919,6.04 -16.653,11.591c-2.204,2.693 -4.979,4.408 -7.265,7.02c-3.101,3.428 -5.877,7.183 -8.244,11.183c-3.021,5.143 -4.979,10.041 -6.694,15.51c-0.734,2.367 -1.632,4.652 -2.53,6.938c-0.979,2.53 -2.694,4.408 -4,6.857c-0.898,1.878 -1.143,4.49 -2.939,5.796c-0.735,-1.387 2.041,-5.959 2.204,-7.918c0.163,-2.123 0,-4.49 -0.082,-6.694c0,-3.021 0.735,-5.469 1.143,-8.49c0.327,-3.02 0.082,-6.285 0.082,-9.387c0,-2.857 0.572,-6.449 -0.163,-9.224c-0.653,-0.081 -1.306,-0.244 -1.959,-0.326c-0.817,-2.858 0,-6.449 1.061,-9.061c1.143,-2.612 3.347,-4.408 4.653,-6.775c0.979,-1.796 1.633,-3.428 2.857,-5.143c2.694,-3.836 6.286,-6.366 9.714,-9.387c5.388,-4.572 10.367,-10.123 15.755,-14.286c2.693,-2.123 4.408,-4.653 6.938,-7.02c3.592,-3.266 7.592,-6.204 11.265,-9.469c7.918,-6.939 17.306,-10.204 27.02,-14.204c4.164,-1.714 6.368,-5.143 9.633,-8c1.47,-1.388 2.531,-3.266 4,-4.49c1.877,-1.632 4.898,-2.122 7.02,-3.673c7.02,-4.897 13.388,-10.367 20,-15.836c4.082,-3.266 6.694,-7.837 10.204,-11.51c4.734,-4.816 9.143,-10.612 13.306,-16.081c2.122,-2.775 3.673,-5.714 6.04,-8.244c1.715,-1.796 3.511,-3.51 5.143,-5.388c4.98,-5.633 11.021,-10.122 12.98,-17.551l0.98,-0.163z" /> <path d="M657.462,540.501v1.143z" /> <path d="M481.647,172.43c0.326,1.551 -0.735,4.245 -1.143,5.796c-0.735,2.693 -1.224,4.897 -1.224,7.673c0,2.367 0.653,3.673 1.061,5.877c0.489,2.53 0.163,5.388 0.163,7.918c-0.082,5.225 1.061,9.469 2.204,14.367c1.551,6.367 2.857,13.061 5.061,19.346c1.632,4.734 5.306,8.898 7.429,13.306c1.387,2.775 5.959,8.244 8.898,9.796c1.878,1.061 3.836,1.224 5.796,2.367c1.143,0.735 1.387,0.98 2.286,1.469c2.693,1.551 5.061,2.449 6.367,5.714c1.061,2.612 0,5.143 0.735,7.673c0.326,1.306 1.551,2.775 2.204,4.082c2.53,5.469 5.143,11.102 6.857,16.979c1.796,5.877 2.367,12.245 3.918,18.203c0.898,3.51 2.775,6.775 4.245,10.122c2.857,6.857 9.796,11.347 11.51,18.775c0.572,2.775 1.551,5.959 1.632,8.735c0.163,2.041 0.817,12.816 -3.592,10.122c-1.387,-0.898 -2.612,-5.632 -3.428,-7.183c-1.469,-2.939 -3.021,-5.796 -4.163,-8.898c-1.469,-3.918 -2.53,-7.918 -3.592,-12c-1.551,-6.203 -4.327,-10.448 -7.183,-15.836c-4.245,-8.081 -8.163,-16.162 -12.571,-24.162c-0.817,-1.715 -1.551,-3.51 -2.939,-4.816c-1.959,-1.796 -4.734,-2.612 -6.531,-4.734c-0.98,-1.224 -1.143,-3.102 -2.286,-4.163c-1.143,-1.061 -2.367,-0.898 -3.347,-2.122c-1.143,-1.551 -1.878,-4.408 -2.775,-6.203c-1.715,-3.102 -4.49,-5.632 -5.959,-8.816c-1.387,-2.857 -1.959,-4.49 -4.408,-6.857c-1.469,-1.469 -2.041,-2.286 -2.857,-4c-1.632,-3.184 -3.918,-5.877 -4.734,-9.306c-0.817,-3.918 -1.632,-7.918 -2.612,-11.836c-1.143,-4.816 -0.817,-9.796 -1.796,-14.775c-0.163,-0.98 -0.082,-1.878 -0.245,-2.775c-0.245,-1.632 -0.98,-3.102 -1.224,-4.653z" /> <path d="M663.323,488.911c3.347,0 5.959,-0.245 9.061,1.306c2.775,1.469 5.225,3.184 8.163,4.245c5.388,2.041 10.448,4.653 15.428,7.429c3.102,1.796 6.857,3.021 10.122,4.571c2.367,1.224 7.183,2.122 9.061,3.836c2.693,2.449 3.673,6.857 6.531,9.469c1.715,1.632 4.327,2.857 5.877,4.571c0.163,0.572 0.326,1.143 0.408,1.796c0.572,0.326 1.143,0.735 1.796,1.061c2.122,1.959 4.163,4 6.286,6.04c2.286,2.122 4.408,3.428 6.04,6.04c1.551,2.367 5.796,5.632 0.98,5.959c-2.939,0.163 -5.388,-2.449 -8,-3.673c-4.49,-2.041 -8.979,-4.897 -13.469,-6.694c-4,-1.632 -7.51,-4.082 -11.428,-5.877c-3.918,-1.795 -9.142,-2.612 -13.306,-3.755c-8.816,-2.449 -20,-3.51 -26.857,-10.204c-5.877,-5.796 -11.347,-12 -6.694,-26.122z" /> <path d="M277.647,880.41c0.081,4.572 -2.776,7.429 -6.694,9.633c-3.265,1.877 -6.857,2.204 -10.53,2.612c-4.244,0.572 -7.999,2.041 -11.754,4.245c-5.469,3.266 -11.265,6.122 -17.387,8.163c-8.083,2.694 -16.898,11.021 -25.551,9.306c-3.266,-0.652 -7.02,-2.775 -10.204,-3.836c-2.204,-0.735 -3.755,-0.817 -6.122,-0.817c-2.285,-0.081 -3.347,-0.816 -5.469,-1.224c-2.204,-0.326 -4.653,-1.143 -6.531,-2.612c-1.633,-1.224 -2.204,-2.367 -4.082,-3.265c-1.142,-0.572 -2.367,-1.062 -3.428,-1.715c-3.591,-1.959 -7.428,-3.265 -11.02,-5.143c-3.102,-1.632 -11.837,-6.448 -12.326,-10.53c6.122,-1.061 13.142,-0.163 19.428,-0.163c5.714,0 11.347,-0.082 17.061,0c3.592,0 6.694,-0.898 10.204,-1.143c3.673,-0.246 7.346,-1.47 10.693,-2.939c3.429,-1.552 6.286,-3.837 8.898,-6.449c2.938,-2.776 6.285,-4 9.55,-6.449c2.122,-1.47 3.836,-3.837 6.122,-5.143c2.122,-1.143 4.489,-1.306 6.775,-1.878c2.448,-0.653 3.918,-1.714 6.04,-3.265c3.264,-2.367 7.509,-6.123 11.754,-5.551z" /> <path d="M421.861,932l0.98,0.163c0.408,1.551 0.082,2.939 0.489,4.49c0.408,1.796 0.817,2.775 0.898,4.734c0.082,3.265 -1.224,4.327 -3.51,6.449c-2.612,2.367 -5.469,4.979 -8.326,7.347c-1.224,1.061 -2.857,2.693 -4.327,3.265c-1.306,0.572 -3.265,0.082 -4,1.551c-1.632,-0.163 -3.51,-1.715 -4.653,-2.857c-2.775,-2.939 -6.122,-8.244 -7.592,-11.836c-1.061,-2.53 -4.734,-9.469 -7.429,-9.796z" /> <path d="M550.796,126.716c-10.122,0 -20.407,-0.489 -30.448,0c-2.775,0.082 -6.203,2.857 -8,4.979c-0.735,0.817 -0.817,1.959 -1.715,2.939c-1.306,1.387 -2.204,1.551 -4,2.286c-7.429,3.102 -10.612,3.51 -17.959,-0.735c-2.693,-1.632 -13.714,-7.918 -14.612,-12.082c-0.326,-1.469 0.489,-4.897 0.489,-6.531c0.082,-2.367 0.082,-2.939 2.286,-4.082c3.673,-1.878 8.816,-2.939 12.734,-3.836c6.04,-1.387 11.754,-1.715 17.877,-1.715z" /></svg>