<svg xmlns="http://www.w3.org/2000/svg" viewBox="0 0 940 896" width="940" height="896"><path d="M894.715,308.681c-26.544,7.511 -18.473,7.511 -18.473,7.511c0,0 3.451,20.199 -22.486,58.266c-25.984,38.066 -39.839,34.615 -39.839,34.615l-7.464,18.473c0,0 -15.581,10.963 2.892,24.818c0,0 39.187,33.449 50.757,49.59c0,0 23.652,17.915 15.581,50.197c0,0 -5.785,65.217 0,108.509c-1.307,2.333 -3.314,5.319 -6.485,7.931c-9.379,7.745 -21.087,6.251 -23.653,5.878c-30.417,-4.478 -31.909,1.772 -32.189,2.519c-1.074,2.846 8.583,11.057 56.4,34.895v0c23.884,4.433 39.466,9.843 43.757,16.328c9.89,15.116 -40.539,36.995 -73.521,47.211c-67.643,20.947 -153.153,20.573 -150.634,27.384c3.174,8.631 97.593,4.338 120.966,22.066c19.22,14.557 -16.933,38.255 -55.747,51.177c-133.42,44.505 -419.576,3.545 -424.567,-16.748c-1.867,-7.464 70.489,-13.295 68.762,-23.838c-3.079,-18.707 -236.144,-23.932 -237.171,-41.053c-0.56,-8.63 58.732,-10.729 66.383,-24.678c3.686,-6.672 -6.253,-12.55 -20.247,-18.008c-18.565,-0.747 -37.133,-1.492 -55.7,-2.239c-92.6,-21.74 -152.454,-73.662 -151.194,-122.085c0.28,-9.798 3.172,-24.353 16.421,-41.753c2.612,-11.288 9.842,-36.013 31.395,-58.639c18.008,-18.94 37.693,-27.616 48.423,-31.442c0,0 25.424,-26.357 53.975,-27.804l35.081,-5.365l3.731,-11.57c0,0 -41.099,-26.265 -60.226,-89.569c0,0 3.732,-17.961 -7.651,-30.463c0,0 -31.908,-28.318 -26.917,-57.474c5.038,-29.158 -23.98,-33.403 15.534,-52.156c0,0 0.56,-30.649 46.557,-35.175c0,0 42.173,-25.099 84.811,-11.57c0,0 84.531,23.93 68.717,104.17c0,0 24.912,14.227 17.308,39.839c0,0 0.28,31.255 -24.492,45.904l7.137,28.084c0,0 17.076,6.763 34.009,28.036c9.984,-4.666 19.92,-9.377 29.903,-14.042c11.803,-19.5 24.68,-39.606 38.674,-60.179c9.936,-14.554 19.872,-28.456 29.763,-41.798l-15.814,-40.773c0,0 -11.803,5.272 -24.958,-38.16c0,0 -6.578,-17.12 5.225,-39.466c0,0 -99.972,-26.312 -6.577,-56.587l5.271,-38.114c0,0 -5.272,-88.171 73.661,-90.783c78.933,-2.659 127.637,2.611 132.908,52.621v72.355c0,0 99.972,7.884 13.155,56.587c0,0 1.305,49.962 -22.393,76.274l-22.346,38.16l54.348,64.471c1.492,0.934 2.891,1.914 4.151,2.986c3.125,0.607 9.982,2.007 19.173,4.386c12.502,0.045 28.69,-2.099 34.988,-12.41l13.994,-28.131c0,0 -46.463,24.26 -53.368,0.467c0,0 3.453,-14.741 22.906,-25.984c0,0 9.097,-38.954 19.5,-54.955c0,0 -4.945,-11.568 4.011,-25.237c0,0 9.236,-74.455 82.524,-90.036c73.288,-15.581 102.678,51.922 102.678,51.922c0,0 14.462,23.093 8.677,54.815c0,0 64.611,-5.738 38.067,25.984c0,0 -11.523,36.341 -38.067,43.852z" /></svg>