<?xml version="1.0" encoding="UTF-8" standalone="no"?>
<svg
   width="1160"
   height="1160"
   viewBox="0 0 11600 11600"
   version="1.1"
   id="svg4"
   sodipodi:docname="plus-fill.svg"
   inkscape:version="1.1.2 (0a00cf5339, 2022-02-04)"
   xmlns:inkscape="http://www.inkscape.org/namespaces/inkscape"
   xmlns:sodipodi="http://sodipodi.sourceforge.net/DTD/sodipodi-0.dtd"
   xmlns="http://www.w3.org/2000/svg"
   xmlns:svg="http://www.w3.org/2000/svg">
  <defs
     id="defs8" />
  <sodipodi:namedview
     id="namedview6"
     pagecolor="#ffffff"
     bordercolor="#666666"
     borderopacity="1.0"
     inkscape:pageshadow="2"
     inkscape:pageopacity="0.0"
     inkscape:pagecheckerboard="0"
     showgrid="false"
     inkscape:zoom="0.43630497"
     inkscape:cx="83.65708"
     inkscape:cy="546.63599"
     inkscape:window-width="1920"
     inkscape:window-height="1016"
     inkscape:window-x="0"
     inkscape:window-y="0"
     inkscape:window-maximized="1"
     inkscape:current-layer="svg4" />
  <path
     d="m 4387.9901,802.18155 0.2951,2.50727 c 21.8285,177.13573 274.9217,2243.17858 417.176,3984.74288 -1359.6385,-33.9966 -2705.1177,-96.8273 -2905.9257,-106.4142 l -4.2772,-0.2213 a 516.21571,516.21571 0 0 0 -48.3768,-0.8848 388.63667,388.63667 0 0 0 -330.3044,211.1322 L 516.81491,6842.0542 a 337.01512,337.01512 0 0 0 324.55214,490.0362 c 8.11197,-0.5899 15.26521,-1.4749 23.22967,-2.4335 l 2.50737,-0.2951 c 179.42181,-22.1972 2298.70861,-281.78 4054.28431,-422.8544 43.5097,1433.3836 42.4773,2939.922 42.2561,3075.318 v 1.4019 a 494.09218,494.09218 0 0 0 46.5331,215.0397 486.71765,486.71765 0 0 0 224.8488,231.043 c 379.566,188.419 1355.1399,663.264 1627.3331,702.128 38.3475,5.457 71.9016,-14.97 100.1459,-41.518 a 308.25451,308.25451 0 0 0 96.6796,-208.036 c 0.8852,-16.224 0.075,-31.489 -0.811,-47.493 l -0.295,-5.16 c -13.5691,-257.371 -124.408,-2392.3653 -147.3427,-4031.2026 1450.4926,-45.3532 2996.2633,-44.2471 3133.5757,-44.0995 h 1.477 c 6.637,0 12.536,0.073 19.246,-0.1478 a 494.09218,494.09218 0 0 0 195.72,-46.3119 486.71765,486.71765 0 0 0 231.044,-224.8487 c 188.418,-379.5661 663.262,-1355.2152 702.2,-1627.4085 5.456,-38.3474 -14.97,-71.9013 -41.519,-100.1458 a 308.25451,308.25451 0 0 0 -208.034,-96.6798 442.47061,442.47061 0 0 0 -47.493,0.8112 l -5.161,0.2949 c -253.83,13.4217 -2335.3605,121.4582 -3964.9793,146.3841 33.5541,-1380.8769 98.3022,-2764.9251 107.9628,-2968.8303 l 0.2214,-4.2034 A 390.84902,390.84902 0 0 0 7016.1181,1676.8721 389.37414,389.37414 0 0 0 6824.6758,1454.088 L 4875.6665,454.32585 a 337.16261,337.16261 0 0 0 -490.1099,324.55232 c 0.6637,8.18568 1.5486,15.26517 2.5074,23.22962 z"
     id="path2-3"
     style="stroke-width:73.745" />
</svg>
