<svg xmlns="http://www.w3.org/2000/svg" viewBox="0 0 926 864" width="926" height="864"><path d="M402.951,859.732c-46.702,-3.31 -89.588,-11.259 -105.8,-19.612c-8.821,-4.543 -7.97,-24.136 2.882,-66.394c4.17,-16.239 8.453,-43.921 9.522,-61.513c1.069,-17.592 3.446,-43.571 5.286,-57.733c3.915,-30.129 -2.03,-40.685 -22.921,-40.685c-7.629,0 -15.399,-2.473 -17.268,-5.498c-4.257,-6.888 12.302,-88.053 30.001,-147.05c4.465,-14.884 11.571,-43.673 15.788,-63.97c4.217,-20.297 10.885,-40.642 14.816,-45.208c8.878,-10.31 4.218,-18.764 -10.345,-18.764c-24.275,0 -30.237,-24.577 -11.547,-47.601c13.569,-16.715 30.132,-74.695 40.527,-141.853c11.936,-77.122 30.544,-130.403 45.544,-130.403c4.216,0 11.286,3.276 15.713,7.284c6.212,5.623 15.511,6.588 40.734,4.233c28.276,-2.64 32.883,-4.446 34.165,-13.385c1.965,-13.709 14.421,-15.481 28.528,-4.059c7.987,6.468 12.661,17.256 15.543,35.883c19.057,123.18 33.804,183.345 57.787,235.773c13.129,28.701 12.879,33.726 -1.956,39.368c-10.779,4.097 -12.303,7.621 -12.303,28.448c0,13.075 4.145,36.933 9.212,53.021c5.067,16.088 13.027,42.536 17.689,58.776c4.663,16.238 12.396,38.383 17.188,49.21c4.792,10.827 13.439,30.261 19.217,43.19c14.72,32.932 13.847,38.005 -6.543,38.005c-11.341,0 -18.472,2.884 -21.296,8.613c-2.334,4.736 -2.635,61.756 -0.675,126.713c1.965,64.955 1.905,119.88 -0.088,122.053c-5.077,5.427 -105.309,18.279 -135.548,17.381c-13.533,-0.404 -46.748,-2.299 -73.813,-4.219zM381.901,710.489c2.242,-35.444 -3.77,-46.744 -20.203,-37.95c-8.916,4.772 -10.415,10.041 -10.415,36.567c0,17.045 1.159,32.152 2.572,33.568c1.416,1.419 7.875,1.561 14.35,0.328c10.629,-2.03 11.961,-5.195 13.691,-32.512zM459.541,722.457c0,-31.556 -3.546,-39.771 -17.177,-39.771c-12.481,0 -17.093,10.79 -17.203,40.237c-0.045,18.245 3.785,21.707 25.767,23.164c7.11,0.47 8.612,-3.645 8.612,-23.632zM492.143,544.287c-1.696,-8.458 -3.073,-21.594 -3.073,-29.194c0,-9.714 -3.068,-14.789 -10.338,-17.097c-14.324,-4.546 -18.979,1.852 -22.408,30.807c-3.179,26.84 -1.332,28.897 27.209,30.289c10.537,0.515 11.385,-0.944 8.612,-14.808zM573.319,532.6c3.483,-28.038 -2.228,-38.132 -19.079,-33.726c-9.882,2.586 -11.043,5.966 -11.043,32.165c0,29.036 0.068,29.265 13.533,27.722c12.261,-1.41 13.819,-3.868 16.588,-26.162zM471.31,255.797c-1.798,-18.27 -3.521,-33.495 -3.827,-33.835c-0.297,-0.339 -5.307,-2.078 -11.11,-3.858c-16.997,-5.216 -26.354,8.58 -26.354,38.864c0,28.437 2.328,31.027 28.432,31.656l16.129,0.387l-3.27,-33.217zM125.363,480.73c-22.761,-8.011 -50.073,-14.563 -60.691,-14.563c-25.355,0 -22.331,-9.57 6.524,-20.648c29.126,-11.18 56.173,-10.892 90.632,0.959c34.555,11.889 56.931,12.464 77.2,1.978c11.895,-6.15 17.788,-6.681 27.098,-2.44c13.925,6.345 10.773,15.221 -5.407,15.221c-6.187,0 -15.468,4.733 -20.623,10.522c-12.228,13.723 -36.943,23.976 -57.195,23.726c-8.883,-0.068 -34.774,-6.753 -57.536,-14.762zM728.602,482.241c-19.423,-6.13 -46.873,-11.148 -60.996,-11.149c-29.929,-0.003 -31.057,-7.789 -3.592,-24.762c21.624,-13.365 62.304,-13.384 107.993,-0.045c20.77,6.061 48.708,10.048 70.413,10.048c39.992,0 41.663,3.761 9.233,20.784c-32.075,16.835 -79.672,18.819 -123.048,5.128zM658.874,372.042c-15.109,-13.264 -20.23,-15.032 -37.078,-12.771c-10.752,1.44 -19.547,2.004 -19.547,1.25c0,-0.754 5.686,-11.544 12.633,-23.975c13.143,-23.517 10.797,-22.358 61.18,-30.203c6.767,-1.053 43.303,1.667 81.195,6.042c78.971,9.122 88.47,9.294 107.03,1.929c15.429,-6.123 18.564,-24.837 5.918,-35.334c-16.639,-13.808 21.663,-20.43 40.769,-7.047c17.779,12.453 19.325,37.699 3.921,63.985c-7.255,12.378 -18.708,24.604 -25.454,27.169c-21.178,8.053 -57.772,5.117 -95.279,-7.64c-34.952,-11.888 -86.759,-16.467 -105.398,-9.315c-10.759,4.13 -9.743,19.659 2.058,31.46c9.842,9.842 9.842,9.842 -2.29,9.842c-6.671,0 -20.019,-6.927 -29.662,-15.393zM31.423,369.182c-25.461,-9.362 -37.28,-34.329 -27.42,-57.928c15.297,-36.607 71.003,-42.607 130.836,-14.088c21.35,10.177 42.492,16.068 63.895,17.807c18.913,1.535 43.608,7.825 60.421,15.387c15.64,7.034 33.353,12.825 39.368,12.872c23.301,0.201 -20.093,20.446 -49.475,23.11c-23.242,2.106 -34.409,0.224 -60.699,-10.306c-17.719,-7.089 -36.036,-12.887 -40.702,-12.887c-4.666,0 -16.634,-5.535 -26.591,-12.303c-13.584,-9.23 -24.503,-12.303 -43.736,-12.303c-14.099,0 -27.088,2.354 -28.865,5.231c-4.041,6.539 10.543,23.032 28.637,32.39c7.538,3.897 12.394,9.207 10.793,11.799c-3.068,4.965 -43.876,5.848 -56.461,1.219zM656.379,210.297c-12.179,-5.126 -31.556,-9.442 -43.058,-9.588c-25.021,-0.328 -26.609,-6.781 -4.921,-20.006c19.529,-11.907 42.608,-12.388 77.841,-1.617c14.7,4.494 42.229,9.476 61.175,11.073l34.446,2.905l-19.643,12.209c-26.087,16.214 -73.877,18.485 -105.841,5.029zM206.116,202.929c-28.269,-11.09 -48.049,-11.711 -58.805,-1.849c-2.57,2.358 -10.321,4.145 -17.223,3.974c-11.32,-0.297 -11.585,-0.707 -2.707,-4.34c5.414,-2.216 14.265,-8.944 19.673,-14.954c15.059,-16.739 36.454,-26.005 52.592,-22.777c7.871,1.575 29.526,9.539 48.122,17.702c18.596,8.163 40.084,15.005 47.749,15.205c13.398,0.351 13.174,0.718 -5.745,9.477c-26.237,12.144 -48.112,11.509 -83.656,-2.436z" /></svg>