<svg xmlns="http://www.w3.org/2000/svg" viewBox="0 0 1024 896" width="1024" height="896"><path d="M608,896h-160c-52.934,0 -96,-43.066 -96,-96c0,-17.104 4.494,-33.176 12.368,-47.098c-26.662,-17.076 -44.368,-46.958 -44.368,-80.902c0,-24.564 9.276,-47.004 24.504,-64c-15.228,-16.996 -24.504,-39.436 -24.504,-64c0,-11.214 1.934,-21.986 5.484,-32h-229.484c-52.934,0 -96,-43.066 -96,-96c0,-52.936 43.066,-96 96,-96h394.676l-93.836,-176.018c-8.398,-14.536 -12.84,-31.126 -12.84,-47.982c0,-52.936 43.066,-96 96,-96c26.368,0 50.952,10.472 69.224,29.488c0.238,0.248 0.472,0.496 0.7,0.75l218.076,239.17v-45.408c0,-17.674 14.326,-32 32,-32h192c17.674,0 32,14.326 32,32v640c0,17.674 -14.326,32 -32,32h-192c-17.674,0 -32,-14.326 -32,-32v-44.222l-145.69,72.844c-4.442,2.222 -9.34,3.378 -14.31,3.378zM864,832c17.674,0 32,-14.326 32,-32c0,-17.674 -14.326,-32 -32,-32c-17.674,0 -32,14.326 -32,32c0,17.674 14.326,32 32,32zM600.446,832l167.554,-83.778v-383.824l-265.168,-290.82c-6.066,-6.18 -14.162,-9.578 -22.832,-9.578c-17.644,0 -32,14.356 -32,32c0,5.458 1.308,10.612 3.894,15.324c0.324,0.53 0.632,1.07 0.926,1.622l119.416,224c5.29,9.92 4.988,21.884 -0.798,31.52c-5.784,9.638 -16.198,15.534 -27.438,15.534h-448c-17.644,0 -32,14.356 -32,32c0,17.644 14.356,32 32,32h320c17.672,0 32,14.326 32,32c0,17.674 -14.328,32 -32,32c-17.644,0 -32,14.356 -32,32c0,17.644 14.356,32 32,32c17.674,0 32,14.326 32,32c0,17.674 -14.326,32 -32,32c-17.644,0 -32,14.356 -32,32c0,17.644 14.356,32 32,32h32c17.674,0 32,14.326 32,32c0,17.674 -14.326,32 -32,32c-17.644,0 -32,14.356 -32,32c0,17.644 14.356,32 32,32z" /></svg>