<svg xmlns="http://www.w3.org/2000/svg" viewBox="0 0 1024 896" width="1024" height="896"><path d="M401.69,892.622l-145.69,-72.844v44.222c0,17.674 -14.326,32 -32,32h-192c-17.674,0 -32,-14.326 -32,-32v-640c0,-17.672 14.326,-32 32,-32h192c17.674,0 32,14.328 32,32v45.41l218.074,-239.17c0.23,-0.254 0.462,-0.502 0.7,-0.75c18.272,-19.018 42.858,-29.49 69.226,-29.49c52.934,0 96,43.066 96,96c0,16.856 -4.44,33.446 -12.84,47.982l-93.836,176.018h394.676c52.934,0 96,43.066 96,96c0,52.934 -43.066,96 -96,96h-229.484c3.55,10.014 5.484,20.786 5.484,32c0,24.564 -9.276,47.004 -24.504,64c15.228,16.996 24.504,39.436 24.504,64c0,33.944 -17.704,63.826 -44.368,80.902c7.874,13.922 12.368,29.994 12.368,47.098c0,52.934 -43.066,96 -96,96h-160c-4.968,0 -9.866,-1.156 -14.31,-3.378zM192,800c0,-17.674 -14.326,-32 -32,-32c-17.674,0 -32,14.326 -32,32c0,17.674 14.326,32 32,32c17.674,0 32,-14.326 32,-32zM576,832c17.644,0 32,-14.356 32,-32c0,-17.644 -14.356,-32 -32,-32c-17.674,0 -32,-14.326 -32,-32c0,-17.674 14.326,-32 32,-32h32c17.644,0 32,-14.356 32,-32c0,-17.644 -14.356,-32 -32,-32c-17.674,0 -32,-14.326 -32,-32c0,-17.674 14.326,-32 32,-32c17.644,0 32,-14.356 32,-32c0,-17.644 -14.356,-32 -32,-32c-17.672,0 -32,-14.326 -32,-32c0,-17.674 14.328,-32 32,-32h320c17.644,0 32,-14.356 32,-32c0,-17.644 -14.356,-32 -32,-32h-448c-11.24,0 -21.654,-5.896 -27.438,-15.534c-5.786,-9.636 -6.088,-21.6 -0.8,-31.52l119.418,-224c0.294,-0.552 0.602,-1.092 0.926,-1.622c2.586,-4.712 3.894,-9.864 3.894,-15.324c0,-17.644 -14.356,-32 -32,-32c-8.67,0 -16.766,3.4 -22.832,9.58l-265.168,290.818v383.824l167.556,83.778z" /></svg>