<svg xmlns="http://www.w3.org/2000/svg" viewBox="0 0 802 865" width="802" height="865"><path d="M352.417,849.781c-27.494,-27.494 -32.28,-88.604 -10.308,-131.624c5.242,-10.263 16.088,-39.521 24.104,-65.017l14.573,-46.359l15.771,39.36c39.09,97.565 46.61,152.796 25.117,184.488c-26.375,38.89 -44.504,43.903 -69.257,19.15zM701.059,673.293c22.631,-6.528 51.687,-39.322 59.469,-67.114c3.512,-12.543 4.687,-30.026 2.895,-43.09c-6.019,-43.907 -44.107,-107.724 -77.287,-129.491c-16.922,-11.102 -18.002,-18.663 -3.753,-26.259c18.124,-9.661 69.37,-61.601 78.617,-79.682c12.198,-23.853 11.123,-49.945 -3.317,-80.44c-12.85,-27.14 -43.107,-58.526 -56.42,-58.526c-5.636,0 -6.474,-1.441 -2.913,-5.003c7.688,-7.688 38.262,2.367 58.807,19.336c21.779,17.989 33.428,40.202 40.839,77.87c7.954,40.426 3.992,67.979 -15.377,106.968c-14.221,28.626 -15.687,34.383 -9.97,39.128c14.447,11.991 19.784,35.153 21.944,95.244c1.91,53.153 1.019,63.525 -7.216,83.968c-10.188,25.292 -50.394,67.641 -64.214,67.641c-4.467,0 -15.208,1.018 -23.867,2.252c-15.42,2.206 -15.384,2.15 1.762,-2.799zM485.739,661.838c-16.566,-13.939 -25.916,-42.678 -21.952,-67.466c1.489,-9.287 9.989,-30.87 18.899,-47.964c8.91,-17.094 18.72,-39.496 21.804,-49.785c3.083,-10.288 6.935,-18.708 8.559,-18.708c4.602,0 28.243,50.189 40.487,85.951c6.082,17.768 11.061,41.129 11.061,51.918c0,16.566 -2.897,22.599 -18.656,38.834c-22.413,23.094 -38.975,25.082 -60.203,7.218zM57.934,652.925c-38.756,-23.233 -57.79,-64.289 -57.79,-124.657c0,-32.485 1.856,-40.366 16.419,-69.841c14.648,-29.638 15.674,-34.047 9.508,-40.858c-16.506,-18.24 -21.261,-41.11 -21.261,-102.267c0,-47.388 1.748,-64.168 8.163,-78.436c16.45,-36.579 49.669,-66.998 72.664,-66.539c14.507,0.283 14.573,0.389 3.236,4.91c-17.476,6.973 -27.898,18.091 -40.797,43.531c-10.264,20.239 -11.438,27.418 -9.539,58.312c1.808,29.472 4.926,40.186 19.062,65.551c18.326,32.881 31.405,48.56 56.452,67.664c8.886,6.777 15.207,14.8 14.047,17.825c-1.16,3.025 -11.488,11.433 -22.949,18.685c-27.215,17.218 -66.17,64.15 -72.378,87.198c-10.369,38.509 20.149,100.055 60.072,121.149l16.929,8.944l-16.328,0.169c-9.307,0.064 -24.577,-4.782 -35.507,-11.334zM230.5,655.604c-17.566,-10.712 -25.105,-30.329 -25.083,-65.26c0.012,-18.49 2.939,-30.899 10.01,-42.454c5.495,-8.981 15.741,-33.122 22.764,-53.647l12.771,-37.32l15.079,32.654c20.236,43.824 28.97,73.709 31.358,107.306c1.933,27.216 1.475,28.559 -16.299,47.816c-20.329,22.019 -29.229,23.938 -50.603,10.903zM333.408,465.288c1.703,-4.439 -0.709,-5.38 -8.669,-3.382c-14.574,3.658 -18.615,-3.814 -18.853,-34.875l-0.212,-25.297l-27.991,-9.905c-24.373,-8.623 -28.667,-11.984 -33.246,-25.997c-6.285,-19.232 -3.824,-27.868 7.945,-27.868c11.657,0 7,-11.271 -7.361,-17.814c-19.027,-8.668 -27.592,-27.212 -28.193,-61.029c-0.31,-16.929 -2.227,-43.644 -4.271,-59.366c-2.049,-15.721 -2.241,-42.411 -0.434,-59.312c2.822,-26.33 5.968,-34.093 21.994,-54.219c10.287,-12.92 21.573,-23.49 25.08,-23.49c3.507,0 12.707,-9.2 20.442,-20.444c11.039,-16.045 17.865,-21.153 31.713,-23.741c9.705,-1.809 19.969,-5.216 22.808,-7.561c8.613,-7.113 48.376,-12.731 61.661,-8.714c6.865,2.078 24.733,5.961 39.71,8.633c28.151,5.021 73.272,29.842 106.05,58.339c9.161,7.965 22.529,19.406 29.706,25.425c12.899,10.82 13.016,11.397 10.334,51.315c-9.439,140.475 -19.144,169.3 -63.834,189.586l-16.188,7.349l15.353,-2.889c17.991,-3.385 28.964,3.727 28.964,18.776c0,11.782 -13.36,25.808 -24.583,25.808c-4.137,0 -8.801,2.073 -10.366,4.604c-1.563,2.531 -14.347,7.948 -28.407,12.035c-25.395,7.381 -25.542,7.533 -22.66,22.895c6.365,33.928 -10.92,42.086 -97.234,45.893c-24.677,1.087 -31.121,0.021 -29.28,-4.754zM385.465,366.816l5.366,-10.804l3.004,11.968c2.26,8.992 6.007,11.969 15.077,11.969c13.41,0 13.508,0.96 -4.21,-40.738c-14.028,-33.014 -22.391,-31.924 -35.215,4.584c-5.633,16.035 -10.219,30.876 -10.192,32.978c0.064,8.228 21.108,0.235 26.17,-9.962zM341.588,314.66c4.347,-0.009 13.453,-4.79 20.235,-10.624c10.7,-9.205 11.905,-12.885 9.099,-27.833c-2.581,-13.76 -7.121,-19.484 -22.567,-28.449c-32.828,-19.055 -38.426,-19.368 -58.714,-3.301c-29.636,23.47 -28.744,54.459 2.269,78.855c11.981,9.424 12.158,9.427 26.917,0.429c8.171,-4.983 18.411,-9.065 22.759,-9.076zM498.123,300.765c12.017,-17.739 13.573,-40.298 3.744,-54.331c-3.714,-5.303 -16.507,-13.366 -28.431,-17.921l-21.68,-8.281l-22.882,22.538c-18.027,17.757 -22.881,25.735 -22.881,37.61c0,18.429 13.705,29.456 37.19,29.923c9.05,0.212 20.655,2.125 25.785,4.319c13.178,5.637 17.26,3.697 29.155,-13.858z" /></svg>