<svg xmlns="http://www.w3.org/2000/svg" viewBox="0 0 959 959" width="959" height="959"><path d="M780.248,461.25l114.752,114.752l-86.624,86.622l-512.002,-512l86.626,-86.624l114.748,114.75l178.75,-178.75l90.5,90.5l-178.75,178.75l101.5,101.502l178.746,-178.752l90.506,90.5z" /> <path d="M283.814,803.18l-132.246,132.244c-31.112,31.114 -82.024,31.114 -113.138,0l-14.858,-14.858c-31.112,-31.112 -31.112,-82.022 0,-113.136l132.248,-132.248c-75.124,-152.762 33.578,-330.312 129.396,-445.216l443.824,443.824c-114.908,95.824 -292.462,204.522 -445.226,129.39z" /></svg>