<svg xmlns="http://www.w3.org/2000/svg" viewBox="0 0 1260 1004" width="1260" height="1004"><path d="M1260,48v384c0,26.4 -15.274,63.274 -33.94,81.94l-476.118,476.118c-18.668,18.668 -49.214,18.668 -67.882,0l-412.118,-412.118c-18.668,-18.668 -18.668,-49.214 0,-67.882l476.116,-476.116c18.668,-18.668 55.542,-33.942 81.942,-33.942h384c26.4,0 48,21.6 48,48zM1068,288c0,-53.02 -42.98,-96 -96,-96c-53.02,0 -96,42.98 -96,96c0,53.02 42.98,96 96,96c53.02,0 96,-42.98 96,-96z" /> <path d="M524,960l-30.058,30.058c-18.668,18.668 -49.214,18.668 -67.882,0l-412.118,-412.118c-18.668,-18.668 -18.668,-49.214 0,-67.882l476.116,-476.116c18.668,-18.668 55.542,-33.942 81.942,-33.942h80l-544,544z" /></svg>