<svg xmlns="http://www.w3.org/2000/svg" viewBox="0 0 1102 512" width="1102" height="512"><path d="M1029.689,482.485c-59.092,-42.26 -164.547,-90.889 -249.1,-114.859c-232.539,-65.931 -512.654,-23.694 -703.441,106.063c-24.3,16.528 -46.308,30.052 -48.9,30.052c-2.592,0 -11.669,-6.296 -20.172,-13.989c-14.844,-13.436 -12.74,-15.732 53.028,-57.852c37.668,-24.124 84.307,-49.93 103.639,-57.348c32.477,-12.46 38.424,-19.836 78.164,-96.987c35.356,-68.641 55.869,-96.387 115.274,-155.907c46.935,-47.028 80.716,-74.1 96.379,-77.23c14.484,-2.898 27.721,-12.732 33.14,-24.625c8.072,-17.716 14.276,-19.802 58.924,-19.802c44.648,0 50.852,2.084 58.924,19.802c5.42,11.892 18.652,21.727 33.14,24.625c15.665,3.132 49.444,30.204 96.379,77.23c59.251,59.367 79.948,87.323 114.923,155.243c40.298,78.244 44.868,83.766 82.451,99.643c21.884,9.244 70.534,36.532 108.115,60.638c65.556,42.052 67.756,44.458 54.302,59.324c-7.712,8.523 -16.244,15.492 -18.963,15.492c-2.719,0 -23.508,-13.28 -46.204,-29.511zM307.192,321.781c55.621,-16.462 153.126,-32.748 196.075,-32.749l43.356,-0.003v-48.876c0,-46.836 -1.191,-49.612 -28.556,-66.524c-15.706,-9.708 -38.543,-29.518 -50.753,-44.028c-25.099,-29.828 -32.178,-28.588 -32.178,5.627c0,17.06 -5.231,25.707 -18.58,30.7c-11.26,4.212 -18.58,3.804 -18.58,-1.039c0,-4.396 7.433,-7.992 16.516,-7.992c17.13,0 23.801,-27.556 8.9,-36.764c-13.516,-8.354 -91.483,74.892 -91.483,97.675c0,11.38 -3.716,22.989 -8.26,25.796c-14.7,9.084 -9.055,38.5 8.26,43.028c9.084,2.375 16.516,7.732 16.516,11.905c0,11.167 -33.164,-8.508 -38.715,-22.964c-2.612,-6.804 -0.621,-21.428 4.42,-32.492c15.972,-35.053 3.42,-21.772 -22.907,24.243c-36.827,64.364 -35.284,69.625 15.964,54.457zM418.68,280.865c-2.892,-4.683 0.42,-6.067 7.772,-3.244c14.308,5.492 16.924,11.41 5.044,11.41c-4.276,0 -10.042,-3.675 -12.816,-8.164zM354.122,262.985c-7.676,-4.293 -13.953,-15.301 -13.953,-24.462c0,-24.299 44.388,-18.644 47.921,6.1c2.916,20.432 -13.964,29.556 -33.968,18.363zM447.901,235.807c-13.084,-15.765 -8.033,-46.108 9.508,-57.1c21.62,-13.549 59.676,2.988 63.156,27.444c4.956,34.815 -49.828,57.172 -72.666,29.652zM406.067,202.121c-5.747,-6.924 -8.846,-14.188 -6.892,-16.14c1.954,-1.952 8.092,3.708 13.636,12.588c11.988,19.196 7.99,21.307 -6.74,3.556zM827.393,321.001c0,-10.04 -48.564,-98.035 -54.108,-98.035c-1.84,0 0.78,9.052 5.82,20.117c5.044,11.066 7.028,25.685 4.42,32.492c-5.548,14.46 -38.715,34.132 -38.715,22.964c0,-4.172 7.433,-9.53 16.516,-11.905c17.315,-4.527 22.958,-33.94 8.26,-43.028c-4.54,-2.806 -8.26,-14.416 -8.26,-25.796c0,-22.782 -77.965,-106.027 -91.483,-97.675c-14.9,9.209 -8.228,36.764 8.9,36.764c9.084,0 16.516,3.596 16.516,7.992c0,4.844 -7.323,5.252 -18.58,1.039c-12.951,-4.846 -18.868,-14.148 -19.532,-30.7c-0.524,-13.06 -1.452,-26.126 -2.065,-29.036c-0.612,-2.908 -23.41,16.196 -50.66,42.45c-48.996,47.204 -49.548,48.252 -49.548,94.059v46.324l39.228,0.003c39.044,0.003 140.66,17.38 187.87,32.131c34.346,10.732 45.42,10.692 45.42,-0.164zM653.976,285.785c0,-1.788 5.766,-5.46 12.816,-8.164c7.348,-2.82 10.663,-1.436 7.772,3.244c-4.851,7.846 -20.588,11.605 -20.588,4.916zM712.587,264.753c-18.388,-11.364 -6.844,-37.423 17.844,-40.274c18.108,-2.092 22.638,0.745 22.638,14.162c0,19.566 -24.991,35.685 -40.484,26.112zM584.577,236.953c-22.028,-16.108 -14.151,-49.032 14.092,-58.924c28.116,-9.848 49.979,1.372 53.876,27.652c5.434,36.628 -35.124,55.288 -67.97,31.271zM679.577,200.632c6.012,-10.012 12.708,-16.428 14.884,-14.254c2.176,2.174 -2.748,10.364 -10.932,18.204c-14.22,13.62 -14.396,13.444 -3.948,-3.948zM587.275,123.233c13.974,-13.974 25.411,-29.596 25.411,-34.708c0,-5.112 -14.865,5.216 -33.032,22.956l-33.032,32.254l-33.033,-32.254c-18.167,-17.74 -33.032,-28.07 -33.032,-22.956c0,15.077 49.492,60.116 66.065,60.116c8.386,0 26.68,-11.436 40.654,-25.411zM563.137,33.029c9.29,-6.004 5.156,-8.004 -16.516,-8.004c-21.672,0 -25.804,2.004 -16.516,8.004c6.812,4.404 14.244,8.004 16.516,8.004c2.272,0 9.702,-3.604 16.516,-8.004z" /></svg>