<svg xmlns="http://www.w3.org/2000/svg" viewBox="0 0 1024 1024" width="1024" height="1024"><path d="M320,64h-256v256h256zM384,0v0v384h-384v-384zM128,128h128v128h-128zM960,64h-256v256h256zM1024,0v0v384h-384v-384zM768,128h128v128h-128zM320,704h-256v256h256zM384,640v0v384h-384v-384zM128,768h128v128h-128zM448,0h64v64h-64zM512,64h64v64h-64zM448,128h64v64h-64zM512,192h64v64h-64zM448,256h64v64h-64zM512,320h64v64h-64zM448,384h64v64h-64zM448,512h64v64h-64zM512,576h64v64h-64zM448,640h64v64h-64zM512,704h64v64h-64zM448,768h64v64h-64zM512,832h64v64h-64zM448,896h64v64h-64zM512,960h64v64h-64zM960,512h64v64h-64zM64,512h64v64h-64zM128,448h64v64h-64zM0,448h64v64h-64zM256,448h64v64h-64zM320,512h64v64h-64zM384,448h64v64h-64zM576,512h64v64h-64zM640,448h64v64h-64zM704,512h64v64h-64zM768,448h64v64h-64zM832,512h64v64h-64zM896,448h64v64h-64zM960,640h64v64h-64zM576,640h64v64h-64zM640,576h64v64h-64zM704,640h64v64h-64zM832,640h64v64h-64zM896,576h64v64h-64zM960,768h64v64h-64zM576,768h64v64h-64zM640,704h64v64h-64zM768,704h64v64h-64zM832,768h64v64h-64zM896,704h64v64h-64zM960,896h64v64h-64zM640,832h64v64h-64zM704,896h64v64h-64zM768,832h64v64h-64zM832,896h64v64h-64zM640,960h64v64h-64zM768,960h64v64h-64zM896,960h64v64h-64z" /></svg>