<svg xmlns="http://www.w3.org/2000/svg" viewBox="0 0 1024 1024" width="1024" height="1024"><path d="M1024,512c0,282.77 -229.23,512 -512,512c-282.77,0 -512,-229.23 -512,-512c0,-282.77 229.23,-512 512,-512c282.77,0 512,229.23 512,512zM896,512c0,-212.078 -171.922,-384 -384,-384c-212.078,0 -384,171.922 -384,384c0,212.078 171.922,384 384,384c212.078,0 384,-171.922 384,-384zM320,512c0,-106.039 85.961,-192 192,-192c106.039,0 192,85.961 192,192c0,106.039 -85.961,192 -192,192c-106.039,0 -192,-85.961 -192,-192z" /></svg>