<svg xmlns="http://www.w3.org/2000/svg" viewBox="0 0 861 848" width="861" height="848"><path d="M369.121,839.936c-15.461,-4.231 -38.203,-13.675 -50.535,-20.986l-22.423,-13.294l19.11,-10.854c50.029,-28.418 76.247,-90.154 61.475,-144.754c-6.615,-24.452 -40.72,-62.877 -67.169,-75.678c-25.996,-12.586 -46.853,-12.21 -84.702,1.53c-32.583,11.827 -49.969,24.871 -60.737,45.565c-9.894,19.017 -7.975,29.602 7.778,42.857c16.478,13.866 25.943,14.988 40.485,4.802c9.984,-6.991 10.342,-6.769 10.342,6.415c0,16.92 -15.893,24.625 -46.529,22.561c-24.572,-1.655 -36.177,-7.303 -60.901,-29.639c-23.195,-20.957 -25.087,-43.688 -5.558,-66.892l12.64,-15.024l-17.544,3.292c-30.132,5.651 -95.373,-18.252 -102.826,-37.676c-5.307,-13.832 2.556,-46.293 14.281,-58.935c15.454,-16.668 18.545,-15.502 16.476,6.209c-1.491,15.628 0.415,20.674 12.316,32.57c20.711,20.712 50.74,19.815 97.345,-2.907c34.231,-16.688 35.862,-16.992 93.631,-17.449c54.008,-0.429 62.011,0.667 98.342,13.443c31.49,11.074 44.1,18.423 61.874,36.061c21.723,21.555 32.517,26.635 37.943,17.855c1.461,-2.36 8.467,-5.572 15.572,-7.131c7.105,-1.559 25.403,-11.137 40.66,-21.281c15.257,-10.144 32.316,-18.451 37.91,-18.46c5.591,-0.009 16.06,-2.258 23.264,-5.002c17.605,-6.704 50.81,-12.799 100.219,-18.396c47.799,-5.415 72.493,-1.027 108.87,19.343c13.108,7.34 27.335,13.345 31.618,13.345c14.018,0 30.629,-21.375 30.629,-39.406c0,-13.696 -2.62,-18.161 -15.124,-25.784l-15.123,-9.22l19.394,-0.02c10.668,-0.009 22.783,1.282 26.927,2.872c20.119,7.719 29.117,61.029 14.155,83.865c-9.421,14.379 -46.832,37.865 -66.335,41.642c-11.529,2.233 -15.787,5.878 -17.757,15.207c-4.339,20.547 -21.498,55.723 -31.797,65.178c-5.349,4.912 -24.008,14.591 -41.465,21.503l-31.736,12.57l-21.773,-9.405c-12.965,-5.599 -22.313,-12.841 -23.107,-17.898c-1.234,-7.844 -0.956,-7.885 3.616,-0.538c6.379,10.249 31.519,14.938 47.505,8.861c17.081,-6.493 22.412,-18.555 23.433,-52.994c1.02,-34.344 -8.734,-55.336 -33.445,-71.989c-19.113,-12.882 -61.903,-14.272 -94.754,-3.078c-24.387,8.308 -64.681,42.108 -76.482,64.156c-11.715,21.883 -10.409,83.217 2.291,107.575c13.02,24.976 36.744,46.467 59.215,53.649l18.451,5.897l-15.279,11.783c-14.754,11.376 -53.298,29.382 -82.08,38.339c-20.879,6.497 -70.867,4.423 -102.59,-4.26zM425.234,541.806c-7.906,-35.997 -63.737,-73.779 -101.532,-68.709l-18.311,2.458l15.678,-16.313c8.622,-8.973 25.1,-21.893 36.616,-28.712c18.371,-10.881 25.784,-12.375 60.49,-12.2c46.024,0.257 68.861,8.955 102.366,39.098c19.265,17.332 20.033,18.84 9.613,18.85c-26.681,0.022 -61.593,25.635 -91.643,67.214l-9.895,13.694l-3.377,-15.378zM213.477,468.878c-33.044,-14.33 -51.215,-40.094 -51.219,-72.621l-0.004,-20.007l23.268,1.613c21.787,1.512 23.268,2.414 23.268,14.191c0,15.995 7.771,23.747 23.817,23.747c23.039,0 27.368,-4.126 27.368,-26.09v-20.439h23.41c28.494,0 30.544,3.713 23.723,43.039c-4.292,24.758 -7.8,31.676 -23.581,46.53c-20.943,19.71 -41.086,22.598 -70.048,10.037zM584.016,471.508c-17.643,-5.286 -30.79,-17.496 -38.529,-35.78c-8.093,-19.123 -8.424,-52.477 -0.521,-52.548c3.2,-0.022 13.667,-1.351 23.264,-2.935c16.472,-2.725 17.449,-2.199 17.449,9.356c0,16.264 15.324,30.853 32.408,30.853c16.196,0 25.692,-13.608 21.408,-30.678c-2.708,-10.793 -1.904,-11.2 22.328,-11.2c27.832,0 30.68,3.471 30.813,37.517c0.128,37.188 -62.605,69.199 -108.618,55.411zM170.491,329.722c34.721,-79.811 46.917,-112.819 52.435,-141.914c3.153,-16.635 7.22,-31.908 9.036,-33.94c3.641,-4.079 15.289,23.984 42.082,101.408c9.743,28.15 23.048,63.104 29.567,77.678l11.852,26.494l-19.602,2.511c-10.782,1.38 -47.042,3.067 -80.583,3.749l-60.98,1.24l16.193,-37.225zM560.823,346.36c5.969,-18.744 32.836,-123.704 44.658,-174.463l4.247,-18.239l8.155,18.239c11.957,26.738 26.458,71.936 41.679,129.909c7.391,28.15 14.908,54.729 16.705,59.068c2.986,7.197 -2.199,7.836 -59.479,7.332l-62.745,-0.556l6.779,-21.288zM401.888,327.881c-29.208,-13.522 -45.361,-33.728 -48.878,-61.137l-3.017,-23.515l25.946,1.372c23.701,1.252 26.087,2.378 27.556,13.005c2.301,16.609 9.247,23.265 24.289,23.265c16.192,0 27.612,-14.86 27.612,-35.932c0,-13.748 1.335,-15.249 13.578,-15.249c7.467,0 16.737,-1.212 20.597,-2.693c5.404,-2.076 7.771,2.315 10.285,19.074c4.416,29.442 -4.232,55.857 -24.565,75.031c-19.591,18.477 -43.394,20.677 -73.406,6.783zM359.174,225.821c-10.003,-3.074 -9.831,-3.904 12.479,-59.986c23.782,-59.787 38.895,-109.791 44.32,-146.651c3.291,-22.356 11.509,-26.382 11.509,-5.638c0,22.898 30.131,119.833 53.263,171.35c6.751,15.032 11.429,28.174 10.402,29.205c-1.027,1.031 -23.896,3.806 -50.818,6.172c-26.92,2.363 -53.911,5.282 -59.976,6.486c-6.068,1.202 -15.597,0.784 -21.174,-0.932z" /></svg>