<svg xmlns="http://www.w3.org/2000/svg" viewBox="0 0 796 768" width="796" height="768"><path d="M671.396,320.471c11.52,2.369 7.134,16 3.648,23.104c-2.143,8.508 -7.999,15.006 -11.393,22.752c-5.76,7.518 -10.878,16.384 -19.007,21.376c-8.993,3.011 -14.369,12.126 -23.615,14.273c-12.126,9.984 -28.864,8.989 -43.36,12.256c-12.257,2.72 -22.751,22.11 -22.624,33.856c0.126,10.241 1.601,18.367 6.751,27.006c2.37,4.127 4.098,8.48 6.624,12.383c1.471,2.369 4.734,2.85 4.224,6.75c-5.25,-0.906 -8.862,-2.013 -14.495,-2.013c-6.113,0.09 -8.993,-1.116 -14.111,-4.381c-9.377,-5.986 -15.743,-12.606 -21.76,-22.11c-3.743,-6.14 -3.617,-15.263 -2.112,-22.144c1.985,-9.984 3.617,-20.735 4.128,-30.976c0.126,-3.646 0.255,-7.138 1.728,-10.494c5.376,-11.52 17.759,-12.894 28.511,-16.896c-0.509,0.546 0,-2.749 -0.509,-2.114c2.527,0 -0.99,-1.116 1.375,-1.888c3.522,-1.116 6.402,-4.862 9.888,-6.241c2.753,-1.116 5.76,-1.633 8.513,-2.749c15.617,-7.013 29.471,-15.87 43.229,-25.985c8.766,-6.657 17.759,-16.896 28.511,-19.776c5.856,-1.597 10.752,-6.75 16.481,-8.128c3.137,-0.726 6.751,0.635 9.761,-0.364c0.126,-0.546 -0.509,2.975 -0.38,2.494z" /> <path d="M269.044,303.212c3.391,-0.382 6.751,0.128 9.888,1.506c11.742,6.624 25.247,8.867 38.621,10.625c12.99,1.116 25.98,4.345 39.101,3.355c10.272,-0.254 19.998,-4.091 30.27,-4.001c17.855,0.258 36.126,3.522 51.485,12.768c8.513,6.24 18.365,9.986 26.495,16.481c8.64,6.371 2.147,23.008 -8.862,18.881c-6.881,-3.264 -14.145,-6.881 -21.376,-9.63c-8.125,-3.4 -20.255,-8.989 -27.486,-2.494c-6.274,-5.986 -16,-3.872 -24.256,-2.239c-8.513,2.622 -17.759,-1.368 -26.495,1.506c-6.877,2.239 -14.142,3.354 -21.15,5.723c-7.357,2.774 -12.607,4.254 -20.478,3.138c-9.25,-1.378 -19.744,-5.25 -29.248,-3.872c-10.368,1.631 -11.867,11.009 -12.51,19.998c-0.481,7.134 -0.606,14.489 0.255,21.502c0.865,6.882 4.128,12.258 6.113,18.624c-4.35,-0.77 -6.24,-6.493 -9.726,-8.862c-2.753,-2.013 -6.27,-2.393 -9.023,-4.127c-8.225,-5.376 -9.245,-15.775 -11.615,-24.51c-4.386,-16 -1.634,-32.735 0.509,-48.862c0.607,-4.255 0.354,-9.146 2.112,-13.374c2.88,-7.009 10.014,-11.491 17.375,-12.126z" /> <path d="M794.654,250.513c0.607,10.624 1.116,21.245 0.126,31.87c-0.387,9.631 0.257,19.392 -1.248,29.022c-2.752,9.378 -0.514,19.745 -5.248,28.48c-0.253,9.121 -2.623,17.888 -4.638,26.623c-0.865,8.77 -4.477,16.77 -6.751,25.024c-4.731,2.368 -0.253,11.101 -4.351,12.479c-2.269,2.623 -1.758,12.642 -6.27,16.896c-3.361,7.998 -6.624,15.868 -9.504,23.742c-5.375,6.11 -2.749,15.233 -9.246,19.614c-5.729,5.502 -5.633,14.014 -10.241,20.255c-5.759,7.744 -9.761,16.61 -15.743,24.383c-3.137,8.735 -9.888,15.228 -14.879,22.847c-3.263,1.507 -1.885,10.623 -5.886,7.393c-4.992,6.494 -8.352,15.744 -14.369,19.998c-5.982,4.255 -8.256,13.115 -14.238,17.759c-1.247,0.87 -2.495,1.351 -3.743,1.986c-4.001,2.013 -7.392,5.885 -10.752,8.735c-7.775,6.397 -15.873,12.51 -24.256,18.27c-19.392,13.374 -38.015,27.485 -58.877,38.621c-18.113,9.631 -36.989,18.367 -55.87,26.495c-4.253,1.885 -7.745,3.32 -12.383,3.138c-4.734,-0.13 -9.119,1.249 -13.727,2.239c-6.654,1.38 -13.151,3.012 -19.775,4.254c-1.858,0.361 -3.744,0.271 -5.729,0.271c-6.144,-0.134 -11.777,2.494 -18.017,3.484c-7.615,1.116 -15.36,2.366 -22.878,4.254c-10.752,2.621 -21.504,7.229 -32.478,8.735c-12.51,1.889 -25.888,4.003 -36.766,10.878c-4.001,2.496 -7.745,4.991 -11.105,8.382c-2.754,2.758 -6.144,4.872 -8.64,7.746c-4.608,5.119 -6.755,11.488 -9.761,17.502c-1.984,4.255 -1.248,9.246 -1.248,13.854c0,3.523 1.023,9.028 -0.255,12.258c-2.719,-0.48 -4.608,-5.116 -5.856,-7.23c-2.879,-4.512 -3.869,-9.246 -4.991,-14.496c-2.753,-11.777 0.354,-23.776 7.488,-33.375c6.623,-9.024 14.368,-18.269 23.872,-24.383c3.394,-2.15 7.392,-2.756 10.625,-5.125c4.865,-3.517 9.377,-7.009 14.753,-9.503c6.75,-3.137 14.111,-3.617 20.639,-7.138c4.224,-2.369 8.352,-4.482 13.121,-5.76c5.245,-1.116 9.631,-3.61 14.622,-5.469c3.36,-1.25 7.008,-2.412 10.494,-3.138c6.497,-1.632 12.383,-4.38 18.623,-6.366c4.385,-1.507 8.866,-2.279 13.121,-4.001c3.138,-1.124 6.144,-2.902 9.504,-3.266c2.623,-0.271 5.118,-0.182 7.871,-0.635c9.634,-1.628 19.391,-6.398 28.384,-10.399c7.872,-3.49 15.229,-8.476 22.494,-13.12c14.622,-9.12 29.628,-17.376 43.229,-27.87c15.647,-12.13 31.133,-24.61 45.502,-37.984c15.647,-14.399 29.021,-32.001 38.398,-51.135c2.627,-5.249 4.739,-10.755 7.745,-15.617c0.48,-0.899 0.862,-1.77 1.505,-2.405c0.48,-0.636 1.247,-0.362 1.728,-0.726c3.011,-3.006 4.642,-9.759 6.017,-13.631c1.758,-4.481 3.233,-8.988 4.991,-13.632c4.511,-12 9.504,-24 14.495,-35.742c1.505,-3.235 2.88,-6.626 4.385,-9.856c2.754,-6.494 6.624,-12.639 9.12,-19.134c3.006,-8.129 4.768,-16.609 7.391,-24.863c2.977,-8.766 4.865,-18.497 6.24,-27.647c0.986,-6.751 0.606,-13.595 0.606,-20.478c0,-7.999 0.383,-16.252 -1.375,-24.126c-0.733,-3.493 -3.103,-6.496 -3.103,-10.368c0,-1.124 0.352,-2.142 0.126,-3.266c-0.129,-0.271 -0.255,-0.545 -0.255,-0.635c1.501,-11.519 3.132,-23.008 3.486,-34.528c0.64,-12.222 -0.734,-22.624 -4.351,-34.366c-4.766,-15.743 -17.376,-26.368 -24.51,-40.99c-6.017,-12.253 -17.375,-22.368 -26.495,-32.382c-7.134,-7.488 -16.254,-15.101 -21.887,-23.872c-3.233,-5.122 -4.258,-11.105 -6.881,-16.384c-2.496,-4.739 -5.983,-7.742 -9.6,-11.489c-3.391,-3.62 -5.281,-8.382 -10.272,-10.241c-5.729,-2.276 -12.479,-2.365 -18.496,-4.77c-6.24,-2.239 -12.51,-5.25 -19.134,-6.366c-8.736,-1.524 -18.24,-0.361 -27.102,-0.271c-15.743,0 -31.614,-1.116 -47.261,1.506c-12.13,2.149 -23.872,6.493 -35.872,9.631c-19.614,4.991 -36.863,15.132 -56.254,20.512c-7.998,2.239 -16.608,5.25 -24.479,7.999c-6.275,2.24 -11.136,6.848 -17.249,9.378c-5.376,2.113 -11.262,2.113 -16.638,4.099c-8.989,3.266 -17.376,4.507 -26.622,6.621c-3.233,0.762 -4.865,1.278 -7.871,2.268c-4.512,1.723 -7.357,1.723 -12.126,2.749c-5.982,1.253 -12.383,5.38 -17.759,8.355c-3.87,2.276 -9.12,4.516 -12.863,7.138c-4.385,3.393 -4.991,8.77 -7.008,13.504c-1.601,3.873 -3.619,5.886 -4.128,10.368c-0.48,5.887 0.381,11.872 0.126,17.886c-0.353,11.101 4.254,12.734 13.374,17.633c11.393,5.982 18.75,15.866 31.007,20.094c6.24,2.142 12.257,5.028 18.623,6.75c8.736,2.284 17.502,2.103 26.495,2.013c17.632,-0.09 35.261,0 52.894,0c12.349,0 25.343,-0.996 37.469,2.622c8.639,2.622 16.258,8.989 24.256,12.99c9.63,4.765 19.745,9.121 28.511,15.39c4.001,2.975 6.751,6.75 11.232,8.989c6.144,3.23 12.51,5.38 18.527,8.735c14.622,8.352 29.855,8.898 46.493,8.898c11.742,0.129 21.857,-0.38 32.735,-2.013c2.495,-0.481 4.253,-1.948 6.623,-2.494c3.006,-0.543 6.143,0.545 9.246,-0.09c4.128,-0.998 7.009,-4.87 10.752,-5.986c4.254,-1.387 8.639,0.455 12.863,-0.271c2.53,-0.508 4.511,-2.351 6.881,-2.622c3.647,-0.38 7.134,3.229 10.271,4.482c3.617,1.505 6.37,1.378 9.473,4.127c-0.48,0.76 -1.247,1.378 -1.728,2.013c-4.259,4.476 -6.274,8.993 -11.873,11.742c-7.261,3.746 -14.269,7.747 -21.63,11.393c-7.392,3.615 -14.622,6.845 -22.367,9.856c-5.759,2.24 -10.751,6.015 -16.511,7.874c-4.861,1.505 -9.504,2.14 -14.238,4.254c-4.512,2.013 -9.63,3.173 -14.495,3.355c-7.261,0.125 -13.501,1.885 -20.382,3.391c-6.497,1.343 -16.511,3.141 -23.008,1.253c-2.112,-0.642 -3.488,-2.285 -5.503,-3.011c-3.617,-1.722 -7.872,-2.102 -11.615,-3.355c-5.886,0.99 -12.126,-3.011 -16.511,-3.011c-3.486,0.864 -9.856,-5.796 -15.359,-5.886c-7.487,-3.492 -14.626,-8.1 -21.76,-12.354c-5.856,-6.749 -15.232,-8.508 -21.983,-14.142c-11.263,-4.608 -22.878,-8.226 -34.878,-10.368c-8.77,0 -17.632,-0.382 -26.368,1.506c-5.633,-2.921 -10.625,1.596 -17.633,0.09c-9.377,-1.617 -18.75,0.182 -28.127,-0.364c-7.614,-3.917 -16.385,-0.869 -24.383,-3.011c-9.853,-1.855 -20.478,-2.97 -28.254,-9.983c-2.369,-2.114 -6.624,-3.482 -9.377,-4.988c-10.11,-5.503 -21.857,-11.774 -28.223,-21.63c-5.022,-8.002 -7.775,-17.379 -10.494,-26.368c-1.152,-3.78 -2.88,-7.389 -4.638,-11.136c-2.496,-5.244 -5.114,-10.49 -5.886,-15.87c-2.496,-14.368 -1.854,-31.486 1.152,-45.759c1.116,-5.503 2.625,-10.874 3.486,-16.254c0.606,-3.999 0.865,-8.227 2.88,-11.873c1.502,-2.622 3.871,-4.734 5.503,-7.356c1.598,-2.623 2.366,-5.889 4.351,-8.128c7.999,-9.242 19.007,-12.636 30.527,-14.622c5.472,-0.998 11.617,-2.886 16.865,-4.644c9.377,-3.104 18.496,-4.22 28,-6.75c4.992,-1.25 9.983,-1.73 15.006,-2.72c7.104,-1.505 14.238,-3.9 21.246,-5.886c18.239,-4.992 35.488,-11.999 53.374,-17.633c16.127,-5.119 33.372,-8.606 46.973,-19.134c5.633,-4.223 13.248,-6.851 19.871,-9.473c13.631,-5.243 25.884,-8.618 40.637,-8.254c6.017,0 11.742,0.134 17.759,-0.99c4.608,-0.899 8.867,-2.134 13.601,-2.405c7.902,-0.481 15.521,-3.265 23.519,-3.355c6.109,-0.125 9.984,-0.505 15.87,-2.239c2.496,-0.936 4.608,-0.662 7.008,-1.026c3.617,-0.353 5.986,-2.196 9.377,-3.102c7.872,-1.758 14.495,-0.125 21.599,2.85c8.509,3.516 17.502,5.376 25.758,9.63c9.761,5.027 17.633,10.754 26.495,17.249c4.896,3.392 10.014,7.393 15.87,9.026c6.145,1.73 7.138,1.597 11.393,6.847c3.87,4.892 7.008,8.639 12.99,10.878c6.111,2.364 4.002,0.262 7.008,5.25c2.88,4.512 5.633,10.018 7.745,15.006c2.879,6.494 4.638,13.377 7.134,19.998c2.113,5.632 5.729,7.619 9.504,11.873c4.35,5.245 6.719,12.986 8.862,19.518c2.112,6.371 3.137,15.743 6.881,21.377c7.487,10.978 16.001,21.345 20.992,33.856c4.512,8.254 6.366,17.506 9.246,26.368c6.241,12.513 7.872,26.398 9.504,39.999z" /> <path d="M235.189,286.963c1.985,4.512 -6.751,8.994 -5.28,15.263c-1.855,7.614 -6.241,14.492 -11.232,20.478c-3.744,6.88 -10.752,8.638 -15.486,14.879c-7.138,4.734 -12.383,12.64 -21.376,15.36c-9.504,2.749 -16.001,11.777 -26.015,13.374c-7.741,3.903 -14.496,9.719 -23.358,10.625c-0.385,0 -2.748,3.228 -3.391,3.774c-1.249,1.116 -2.75,1.843 -4.255,2.749c-3.234,1.733 -6.882,2.849 -10.368,4.482c-6.109,2.749 -12.733,5.116 -18.75,8.254c-4.608,2.495 -7.231,5.759 -3.103,10.241c5.471,6.013 10.847,13.118 18.496,16.639c-5.633,-0.382 -9.505,0 -14.753,-1.888c-5.886,-1.859 -12,-2.114 -18.143,-3.747c-10.494,-2.622 -17.598,-12.738 -28.127,-14.88c-3.618,-0.732 -6.755,0.9 -10.241,0.99c-2.111,0.125 -3.744,-0.347 -5.633,-1.253c-3.487,-1.468 -6.625,-3.356 -10.368,-4.734c-5.118,-1.633 -9.887,-3.003 -14.495,-6.014c-11.999,-7.614 -11.488,-28.001 1.375,-34.367c11.488,-3.233 19.87,-13.727 22.24,-25.247c1.632,-5.248 3.876,-10.75 4.385,-16.384c0.38,-3.234 -0.129,-6.629 0.38,-9.984c1.375,-9.63 7.104,-18.881 14.622,-25.247c4.992,-4.258 13.121,-6.881 16.127,-13.247c2.753,-5.886 6.368,-14.018 6.113,-20.639c-1.633,2.275 -4.643,4.252 -6.881,5.505c-3.87,2.495 -5.856,8.771 -10.494,9.761c-2.621,0.516 -6.366,0.127 -7.871,-2.622c-1.374,-2.75 0.735,-7.139 1.632,-9.888c5.376,-14.239 9.504,-30.112 21.726,-40.126c8.513,-5.502 16.642,-11.744 23.776,-18.846c5.376,-6.143 13.596,-9.761 17.118,-17.279c4.735,-11.359 0,-24.222 -6.497,-33.983c-6.881,-8.639 -10.271,-20.861 -5.376,-31.391c5.599,-11.484 16.224,-14.105 26.622,-19.23c3.229,-1.625 6.109,-3.031 9.726,-3.484c5.022,-0.9 9.023,-0.646 11.262,4.734c1.631,4.002 0.996,8.636 1.122,12.864c0.131,3.518 1.122,4.934 4.865,5.024c3.007,0.093 6.528,0.455 9.504,-0.271c0.514,-0.126 2.628,-0.934 3.137,-1.116c0.641,-0.38 0.86,-1.487 1.632,-1.758c3.009,-1.115 1.631,3.23 2.112,4.608c0.384,1.152 1.252,1.896 1.632,2.886c0.516,1.37 0.516,2.875 1.122,4.381c4.638,2.016 7.871,3.139 10.494,7.266c4.381,6.974 3.01,15.612 4.001,23.358c0.254,2.239 0.383,4.252 0.509,6.366c-1.631,3.518 -3.263,7.139 -5.248,10.494c-3.137,5.629 -7.615,10.621 -11.52,15.774c-8.736,11.488 -18.37,20.865 -28.864,30.495c-10.11,9.378 -18.24,19.745 -26.111,30.976c-8.639,12.384 -10.271,27.006 -15.647,40.894c-4.224,11.009 -10.11,20.386 -15.486,30.88c-3.617,7.104 -8.639,12.61 -12.863,19.36c-3.394,5.246 -4.643,10.753 -6.497,16.639c-0.767,2.749 -4.769,9.979 -3.137,12.99c2.238,3.744 9.63,2.076 13.631,1.986c7.23,-0.126 13.121,-0.733 19.487,-4.734c6.624,-4.385 11.392,-11.491 18.623,-15.137c3.874,-1.979 6.497,-1.979 10.625,-5.117c4.638,-3.356 9.246,-6.493 13.374,-10.494c6.113,-5.629 11.393,-12.382 17.633,-17.887c3.618,-3.101 7.615,-5.469 11.232,-8.735c3.522,-3.258 6.528,-6.875 11.136,-8.508c8.993,-3.102 21.886,-6.497 28.864,-13.247c6.523,-6.113 6.75,-15.874 6.624,-24.863c3.521,5.89 9.024,10.115 12.641,16.001c4.512,4.259 3.01,13.632 7.265,16.001z" /></svg>