<svg xmlns="http://www.w3.org/2000/svg" viewBox="0 0 553 960" width="553" height="960"><path d="M392.716,7.433c1.875,-0.127 3.965,-0.651 5.447,0.831c-0.317,-0.481 -0.699,-0.698 -1.223,-0.698c1.003,3.572 3.398,6.581 5.49,9.454c5.142,7.148 9.717,14.512 15.078,21.482c6.665,8.671 10.762,19.565 16.293,29.065c4.228,7.233 9.327,13.115 14.029,19.869c8.934,12.726 16.56,26.755 26.97,38.215c2.484,2.741 2.395,5.442 4.444,8.32c2.611,3.618 6.581,5.447 8.718,9.501c4.879,9.276 10.804,18.037 16.771,26.75c3.314,4.795 4.53,9.717 6.534,15.163c2.357,6.403 5.84,12.285 9.107,18.168c2.79,4.969 5.49,10.021 8.104,15.078c2.353,4.575 5.709,7.148 8.891,10.982c1.959,2.354 3.53,4.964 5.709,7.144c1.917,1.873 5.49,3.051 6.708,5.535c1.397,2.788 0.745,5.62 3.572,7.842c-0.609,2.921 -3.14,7.757 -4.181,10.939c-1.528,4.444 -4.096,8.147 -5.751,12.548c-2.133,5.578 -3.965,12.548 -5.315,18.43c-3.136,13.813 -1.612,29.548 -2.353,43.619c-0.694,13.373 -3.618,25.883 -4.926,39.04c-1.261,12.721 -4.748,25.968 -7.186,38.515c-2.438,12.594 -5.794,24.664 -7.8,37.428c-3.398,21.393 -9.717,42.049 -11.503,63.662c-0.436,5.138 -1.223,10.11 -1.959,15.252c-1.134,8.104 -0.609,16.208 -2.006,24.355c-2.611,15.861 -7.19,31.287 -11.981,46.535c-3.792,12.112 -7.279,24.355 -11.244,36.382c-5.578,16.907 -9.065,33.724 -11.981,51.33c-1.959,11.807 -6.098,23.009 -8.015,34.816c-1.786,10.851 -3.356,22.133 -4.05,33.158c-1.701,27.754 -10.635,51.939 -20.961,77.208c-9.63,23.576 -20.521,46.45 -30.15,69.98c-3.572,8.718 -7.668,17.385 -11.722,25.794c-3.009,6.234 -3.877,13.77 -5.925,20.352c-1.003,3.178 -0.157,6.361 -4.27,6.492c-2.878,0.03 -5.62,-1.396 -8.718,-1.265c-7.711,0.317 -14.507,2.878 -22.091,3.877c-10.411,1.35 -55.468,1.049 -66.057,1.396c-4.575,0.157 -7.668,-0.477 -11.981,-1.959c-7.321,-2.571 -61.96,0.394 -69.671,-1.222c-8.066,-1.696 -17.559,-3.788 -25.756,-2.354c-1.087,0.19 -2.133,1.703 -3.483,1.092c-2.92,-1.309 -0.918,-7.19 -1.177,-9.586c-0.956,-8.671 -6.577,-19.171 -9.412,-27.233c-4.096,-11.549 -8.714,-22.569 -14.029,-33.551c-10.021,-20.741 -21.003,-40.83 -27.711,-63.221c-4.27,-14.25 -8.803,-28.367 -13.466,-42.527c-5.62,-17.169 -7.626,-36.734 -9.848,-54.728c-1.875,-15.21 -5.404,-29.933 -8.235,-44.923c-4.008,-20.868 -7.537,-41.96 -12.243,-62.659c-4.096,-18.126 -6.712,-36.382 -9.933,-54.728c-1.481,-8.367 -2.357,-16.86 -4.359,-25.142c-2.7,-11.282 -6.839,-21.96 -10.631,-32.895c-7.364,-21.524 -10.94,-44.097 -16.34,-66.188c-4.099,-16.95 -8.802,-33.682 -13.205,-50.458c-0.916,-3.572 -2.875,-7.012 -3.965,-10.5c-1.527,-4.71 -1.959,-9.674 -3.397,-14.376c-2.18,-7.279 -5.403,-13.948 -7.147,-21.482c-1.654,-7.279 -2.439,-14.73 -4.008,-22.05c-0.87,-4.227 -3.529,-12.154 -2.223,-16.818c0.611,-2.18 1.875,-2.09 3.486,-3.572c2.702,-2.484 3.66,-5.49 5.01,-9.022c4.576,-12.201 8.889,-24.486 13.419,-36.729c5.97,-16.039 9.28,-33.073 15.813,-48.845c2.878,-7.059 6.149,-13.64 8.324,-21.003c1.655,-5.578 3.221,-9.717 6.534,-14.507c5.97,-8.671 8.54,-19.086 13.682,-28.456c2.527,-4.659 5.188,-8.798 7.452,-13.682c2.395,-5.231 5.794,-8.798 8.54,-13.724c2.527,-4.444 3.182,-9.717 5.535,-14.292c2.742,-5.49 6.708,-10.195 9.674,-15.557c2.31,-4.181 4.922,-7.888 6.403,-12.51c1.134,-3.483 1.528,-6.403 3.356,-9.713c3.792,-6.801 8.887,-12.247 11.938,-19.564c3.225,-7.8 7.452,-13.948 11.765,-21.046c2.31,-3.834 2.438,-10.064 6.534,-11.372c5.62,-1.83 13.161,0.394 18.997,-0.651c15.73,-2.835 28.41,0.915 44.402,-1.703c7.8,-1.265 15.815,-0.831 23.572,-2.22c4.486,-0.788 8.756,-2.487 13.2,-3.398c4.621,-1.001 10.026,-1.916 13.551,1.612c2.967,3.048 2.311,5.666 2.399,10.021c0.157,9.543 -0.237,4.748 1.304,14.118c1.049,6.318 3.094,12.416 4.181,18.739c0.57,3.352 0.237,10.89 1.701,14.029c4.139,8.972 17.994,9.018 22.137,18.515c1.304,3.008 0.741,6.407 1.35,9.63c0.872,4.575 2.967,7.321 5.188,11.07c4.401,7.41 6.492,15.252 9.281,23.267c1.608,4.66 5.442,7.012 7.757,11.24c3.699,6.801 -0.482,7.452 -4.968,11.244c-3.398,2.835 -5.84,6.627 -9.15,9.585c-7.626,6.885 -15.03,12.899 -20.432,22.222c-7.321,12.725 -9.15,27.977 -16.424,40.783c-3.834,6.712 -8.849,12.768 -13.508,18.87c-2.179,2.874 -5.142,5.84 -6.056,9.63c-0.613,2.31 0.04,3.749 0,6.145c-0.197,8.494 -5.535,16.47 -9.454,23.398c-4.664,8.147 -9.281,15.03 -15.51,21.871c-2.264,2.484 -11.418,10.326 -10.635,15.163c0.317,1.743 3.094,2.788 4.185,3.703c5.882,4.922 9.061,11.456 12.201,18.604c7.101,16.208 14.943,31.892 23.615,47.233c2.438,4.313 4.401,9.107 7.279,13.115c5.358,7.453 12.895,8.714 19.518,14.118c4.71,3.792 7.321,8.54 8.976,14.507c2.527,9.281 7.584,12.332 14.071,18.739c6.754,6.708 8.278,11.156 8.147,20.305c-0.117,7.626 -3.005,14.685 -4.575,22.226c-2.962,14.291 -9.759,27.321 -12.764,41.524c-1.83,8.714 1.828,17.474 -1.265,26.23c-1.092,3.051 -2.878,5.709 -3.877,8.803c-0.96,3.005 -1.177,5.62 -2.569,8.367c-2.531,4.748 -4.752,5.057 -5.751,11.46c-1.83,11.807 0.394,23.53 -2.4,35.295c-2.133,9.061 -2.916,15.295 -2.527,24.791c0.356,7.584 -1.35,15.163 -0.956,22.485c3.394,0.915 10.326,-17.038 11.46,-19.086c5.97,-10.762 12.374,-21.09 16.424,-32.899c2.742,-8.104 4.486,-15.946 7.888,-23.746c5.84,-13.242 9.281,-28.409 12.633,-42.523c2.268,-9.501 3.314,-19.522 4.884,-29.192c1.396,-8.718 0.356,-18.215 3.53,-26.538c2.527,-6.623 6.796,-11.765 10.284,-17.69c2.31,-3.834 3.749,-8.972 5.01,-13.377c1.83,-6.534 1.177,-13.331 2.662,-19.78c0.825,-3.661 3.792,-5.311 2.484,-8.714c-0.478,-1.175 -7.668,-4.49 -9.238,-6.145c-4.486,-4.579 -6.881,-10.939 -10.152,-16.517c-1.917,-3.22 -3.792,-6.36 -5.62,-9.674c-3.483,-6.318 -10.021,-12.633 -11.981,-19.522c-1.35,-4.706 0,-7.012 -3.965,-10.542c-4.312,-3.792 -9.412,-8.19 -10.978,-14.16c-0.394,-1.656 0.157,-2.965 -0.356,-4.664c-0.567,-1.743 -2.7,-3.749 -3.483,-5.138c-2.662,-4.926 -1.049,-10.237 -3.661,-15.383c-0.787,-1.612 -2.92,-3.966 -3.445,-5.925c-0.609,-2.09 -0.036,-3.661 -0.356,-5.62c-0.918,-5.447 -3.094,-6.577 -5.62,-10.939c-3.53,-6.145 -1.177,-12.027 -0.394,-18.341c0.436,-3.27 0.277,-3.445 2.611,-5.404c1.092,-0.87 2.836,-1.088 4.096,-2.007c1.655,-1.219 3.27,-3.792 4.837,-5.095c2.873,-2.487 3.309,-3.051 4.922,-6.581c2.18,-4.748 5.882,-7.711 8.015,-12.506c2.878,-6.403 5.1,-12.679 7.364,-19.391c1.481,-4.401 3.182,-8.451 6.708,-11.329c3.445,-2.831 6.627,-6.099 10.068,-9.061c6.056,-5.273 12.852,-8.544 18.083,-14.816c2.569,-3.048 3.877,-5.404 7.584,-7.055c2.789,-1.265 4.486,-1.526 7.055,-3.703c2.573,-2.133 7.233,-7.106 8.104,-10.677c1.049,-4.312 -2.395,-7.143 -3.57,-11.066c-1.875,-6.149 -2.311,-12.637 -5.925,-18.13c-9.281,-14.071 -18.434,-25.007 -21.613,-42.35c-1.35,-7.148 -4.448,-11.807 -7.41,-17.952c-2.222,-4.579 -5.447,-8.24 -7.321,-13.162c-3.009,-7.842 -1.177,-15.73 -2.569,-23.877c-0.83,-5.1 -3.009,-9.674 -4.312,-14.6c-1.003,-3.877 -1.265,-8.015 -2.573,-11.807c-1.261,-3.487 -2.789,-6.75 -3.965,-10.326c-1.261,-3.703 -3.834,-7.931 -3.923,-11.85c3.618,-2.263 12.552,2.354 16.293,2.831c5.578,0.745 8.37,-0.958 13.466,-2.05c10.373,-2.263 22.442,-0.477 32.726,1.049c5.057,0.741 10.284,0.824 15.294,1.876c2.222,0.477 3.178,1.349 5.882,1.262c8.93,-0.394 15.383,0.317 12.112,-2.22z" /></svg>