<svg xmlns="http://www.w3.org/2000/svg" viewBox="0 0 1121 1024" width="1121" height="1024"><path d="M1034.045,768.782c14.718,9.545 27.79,18.877 39.354,32.848c3.311,4 4.535,7.252 6.727,12.265c3.311,7.466 7.634,12.638 13.015,18.024c9.652,9.758 19.459,19.357 30.342,27.196c-7.198,-5.439 -18.338,-6.185 -26.395,-8.265c-15.092,-3.946 -30.181,-8.852 -43.301,-18.397c-11.944,-8.692 -25.857,-13.011 -39.461,-15.571c-7.312,-1.333 -14.235,-4.319 -21.596,-5.599c-6.659,-1.227 -13.43,-2.026 -20.157,-3.093c-22.931,-3.679 -45.752,-8.158 -68.736,-11.358c-17.651,-2.506 -35.088,-6.612 -52.686,-9.172c-9.651,-1.439 -19.142,-3.892 -28.741,-5.812c-16.691,-3.306 -33.968,-1.813 -50.819,-1.813c-18.771,0 -37.594,0 -56.365,0c-11.251,0 -22.66,0.748 -33.861,-0.372c-23.41,-2.346 -45.166,-11.838 -66.23,-24.103c-24.795,-14.451 -51.458,-22.716 -77.427,-33.488c-8,-3.306 -15.941,-7.678 -23.197,-13.011c-9.016,-6.719 -14.715,-18.824 -23.89,-25.063c-1.012,9.279 -4.958,17.811 -7.618,26.503c-3.205,10.452 -7.301,20.584 -11.095,30.662c-3.144,8.479 -6.772,17.011 -9.387,25.756c-2.464,8.372 -5.018,18.024 -8.752,25.596c-6.031,12.372 -7.089,25.276 -6.938,39.514c0.167,16.37 0.968,32.315 2.026,48.632c1.603,23.569 1.225,46.926 3.462,70.442c1.436,14.93 5.336,29.168 7.573,43.886c1.118,7.252 4.051,23.73 -1.814,29.009c-5.606,-6.985 -11.093,-14.184 -17.064,-20.69c-9.544,-10.505 -19.034,-19.41 -27.302,-31.515c-8.959,-13.118 -15.519,-28.902 -26.342,-39.834c-7.044,-7.093 -14.028,-14.131 -21.011,-21.277c-8.006,-8.266 -16.803,-15.091 -21.383,-26.716c-2.827,-7.199 -5.064,-14.718 -8.057,-21.757c-4.853,-11.359 -6.606,-24.37 -10.128,-36.368c-3.462,-11.731 -8.208,-22.93 -11.564,-34.661c-2.297,-8.052 -3.96,-16.424 -6.031,-24.636c-4.534,-17.651 -14.561,-32.902 -20.638,-49.966c-2.282,-6.505 -5.804,-13.064 -7.724,-19.57c-2.902,-9.758 -1.542,-22.236 -1.542,-32.208c0,-12.318 0.862,-26.662 4.913,-38.287c2.66,-7.732 6.333,-15.731 6.182,-24.423c-0.167,-6.132 0.393,-11.038 1.753,-16.904c1.33,-5.705 4.082,-10.825 4.535,-16.797c0.378,-4.692 0.423,-6.665 2.237,-11.038c2.086,-5.172 4.989,-11.091 5.442,-16.797c0.544,-5.705 1.602,-10.611 1.602,-16.637c-0.061,-13.225 -0.423,-26.503 3.144,-39.194c1.768,-6.239 4.262,-9.972 7.361,-15.464c3.885,-6.933 6.772,-14.878 10.339,-22.077c2.192,-4.426 4.746,-8.425 7.044,-12.798c1.708,-3.359 2.448,-7.732 4.368,-10.825c6.611,-10.825 14.078,-20.957 20.956,-31.675c3.265,-5.066 4.973,-10.665 7.845,-15.891c3.038,-5.493 4.534,-11.785 6.983,-17.651c3.265,-7.679 7.906,-14.611 10.672,-22.61c1.92,-5.652 3.673,-9.492 7.301,-13.971c3.038,-3.732 5.124,-8.318 7.951,-12.051c2.463,-3.146 6.303,-5.865 9.069,-8.745c2.252,-2.24 4.807,-4.319 6.938,-6.719c2.555,-2.826 4.112,-6.506 5.865,-9.972c3.038,-5.972 6.605,-11.571 9.81,-17.437c3.507,-6.612 8.692,-10.985 13.06,-16.797c3.25,-4.373 5.759,-8.692 8.586,-13.438c3.038,-5.172 7.255,-8.958 10.505,-13.971c2.827,-4.373 5.004,-9.492 7.407,-14.238c5.275,-10.505 11.201,-22.023 18.184,-30.982c4.202,-5.439 7.513,-11.784 12.365,-16.477c5.487,-5.386 12.047,-8.852 17.171,-14.931c4.856,-5.813 10.826,-12.318 16.797,-16.211c3.568,-2.346 7.619,-3.573 11.035,-6.399c3.839,-3.147 5.865,-5.013 10.566,-6.826c8.052,-3.253 16.054,-6.613 24.262,-9.599c7.305,-2.612 14.077,-2.346 21.65,-2.346c13.917,0 27.778,0.053 41.7,0c12.052,-0.053 22.561,3.733 34.608,5.333c7.524,0.96 14.19,0 21.597,2.506c8.798,2.933 17.75,3.839 26.502,6.452c4.534,1.333 8.208,3.679 12.319,6.239c8.746,5.546 18.287,9.065 26.45,15.944c4.323,3.68 7.467,8.266 10.823,13.065c2.342,3.306 5.381,6.399 6.983,10.345c1.754,4.106 2.872,8.372 4.792,12.478c3.175,6.613 5.759,15.144 3.628,22.93c-4.475,-2.346 -7.845,-8.052 -10.4,-13.118c-0.152,-1.066 -0.303,-2.133 -0.605,-3.146c-1.013,-0.533 -1.799,-1.28 -2.555,-2.293c-0.212,-0.266 -1.663,-4.213 -1.814,-4.639c-3.627,-7.839 -12.158,-13.172 -18.824,-17.331c-4.218,-2.613 -8.314,-4.266 -12.637,-6.559c-5.336,-2.88 -7.784,-3.306 -13.861,-3.306c-5.112,0 -10.66,-0.694 -15.678,0.426c-2.615,0.586 -5.29,0.799 -7.845,1.28c-3.083,0.586 -6.016,3.626 -9.326,4.479c-23.891,6.132 -48.419,6.772 -71.829,14.824c-5.327,1.866 -10.769,4.266 -15.999,6.559c-4.535,1.973 -7.634,5.653 -12.108,7.999c-0.952,0.48 -4.217,1.386 -5.275,2.293c-1.996,1.653 -1.996,3.093 -3.356,5.226c-2.827,4.639 -7.785,6.826 -11.095,11.305c-3.25,4.319 -6.984,8.265 -10.022,12.851c-5.003,7.412 -9.281,15.464 -14.556,22.61c-10.185,13.705 -15.355,30.449 -21.809,46.713c-4.535,11.412 -9.644,21.757 -9.493,34.715c0.1,7.092 -0.202,14.238 -0.051,21.33c0.257,9.386 3.99,16.958 6.288,25.703c3.839,14.344 10.128,27.089 14.874,41.007c3.416,10.079 5.865,20.744 10.188,30.289c1.814,3.946 3.492,7.412 4.852,11.678c3.098,10.132 5.925,19.997 9.704,29.862c2.025,5.173 2.887,10.665 4.852,15.838c2.343,6.026 5.925,11.305 8.48,17.171c3.355,7.465 8.737,12.638 13.755,18.61c5.765,6.879 11.041,12.318 18.024,17.437c4.792,3.52 9.598,7.252 14.768,9.972c5.384,2.773 11.249,4.426 16.691,7.199c9.865,5.013 18.344,13.438 27.943,19.197c8.852,5.332 17.696,9.865 26.342,15.784c12.797,8.851 26.232,16.264 39.141,24.849c11.037,7.305 22.185,14.291 33.114,21.863c5.659,3.946 11.418,7.839 17.117,11.785c6.774,4.693 14.61,6.559 21.971,9.439c24.369,9.545 48.899,17.704 73.535,26.129c16.584,5.705 33.542,9.598 50.233,14.984c13.331,4.319 26.559,11.198 39.407,17.224c6.341,2.933 11.994,7.412 18.343,10.345c6.02,2.827 12.429,4.373 18.611,6.826c5.17,2.08 8.903,5.6 13.544,8.959c5.392,3.946 11.408,6.239 16.744,10.292c3.733,2.879 7.089,6.132 10.505,9.545c2.086,1.973 4.535,3.519 6.243,5.919c1.179,1.707 0.756,4.105 3.416,3.733z" /> <path d="M250.351,809.021c-1.33,6.879 -2.403,14.025 -3.945,20.797c-1.557,6.825 -4.807,11.998 -7.845,17.917c-4.695,9.332 -10.56,17.437 -16.531,25.649c-4.006,5.546 -6.772,12.052 -11.201,17.224c-4.474,5.279 -9.327,11.838 -14.874,15.251c-6.977,4.266 -12.374,5.225 -20.264,5.173c-9.278,-0.056 -18.608,0.212 -27.889,0.052c-6.083,-0.107 -11.947,-1.761 -18.024,-1.973c-13.757,-0.426 -26.767,-5.652 -39.993,-9.758c-6.512,-2.026 -12.634,-6.025 -18.877,-8.905c-5.654,-2.56 -9.599,-6.026 -14.073,-10.932c-7.887,-8.745 -15.626,-20.156 -20.69,-31.568c-7.785,-17.597 -17.494,-34.341 -23.782,-52.898c-2.615,-7.732 -5.97,-15.145 -8.419,-22.93c-2.494,-7.679 -2.948,-16.745 -3.25,-24.85c-1.649,-35.888 0.195,-72.202 -0.107,-108.143c-0.272,-28.209 9.749,-54.499 14.662,-81.801c2.449,-13.705 7.739,-26.769 11.201,-40.154c2.131,-8.319 6.243,-14.611 9.281,-22.45c1.496,-3.786 2.403,-7.146 4.746,-10.185c2.237,-2.88 3.945,-4.906 5.547,-8.532c9.652,-22.023 23.41,-41.273 35.941,-61.057c7.684,-12.105 12.218,-26.343 18.824,-39.194c3.688,-7.092 7.845,-13.704 11.79,-20.583c3.673,-6.292 6.606,-13.278 10.717,-19.197c3.098,-4.479 7.044,-7.359 10.611,-11.145c2.615,-2.72 3.627,-6.559 5.925,-9.652c2.933,-4.106 6.349,-7.839 9.115,-12.158c4.323,-6.718 6.726,-14.877 11.79,-20.743c6.078,-7.146 11.898,-14.985 17.385,-23.09c10.398,-15.411 21.275,-30.022 35.514,-40.42c8.478,-6.186 16.425,-13.705 25.222,-19.197c4.323,-2.666 9.069,-4.639 13.332,-7.572c2.933,-2.027 5.064,-4.48 8.057,-6.346c6.726,-4.106 12.047,-9.972 18.29,-14.771c4.368,-3.306 9.598,-5.173 14.284,-7.839c3.945,-2.24 7.21,-5.173 10.883,-7.839c5.118,-3.627 10.56,-6.026 15.518,-9.919c4.489,-3.519 9.599,-5.172 13.71,-9.225c2.978,-2.987 5.699,-4.96 9.115,-7.146c3.356,-2.186 6.183,-5.226 9.493,-7.519c5.806,-3.946 12.426,-6.345 17.49,-11.678c8.426,-8.799 20.955,-13.385 31.249,-18.344c4.641,-2.24 9.13,-5.12 13.816,-6.986c3.779,-1.493 7.724,-1.92 11.518,-3.466c17.011,-6.986 33.116,-17.384 49.539,-26.023c7.839,-4.106 15.894,-10.292 23.089,-15.838c5.498,-4.213 11.831,-8.906 18.558,-9.332c23.943,-1.493 48.206,0.053 72.202,0.053h94.173c8.318,0 17.386,-0.96 25.382,0.96c6.559,1.546 13.27,2.346 19.997,4.106c7.091,1.867 13.817,6.239 20.423,9.812c5.489,2.933 10.341,6.772 16.372,7.679c4.004,0.64 13.648,1.226 16.263,-1.813c4.157,-4.799 6.183,-12.638 8.163,-18.93c1.663,-5.385 2.6,-11.571 3.205,-17.277c0.589,-6.026 0.423,-12.905 6.983,-14.238c4.006,-0.8 11.473,5.12 14.617,6.986c7.516,4.533 15.996,9.279 21.543,17.064c8.359,11.731 2.116,31.995 -0.605,45.326c-0.454,2.667 -1.346,8.799 0.302,11.092c1.346,1.919 3.961,1.332 5.714,2.026c3.84,1.547 7.15,5.066 10.929,6.666c4.428,1.92 7.89,4.107 11.941,7.146c2.721,2.08 3.371,3.839 5.23,6.826c1.33,2.24 3.779,3.946 4.535,6.559c0.892,3.146 0.288,5.119 1.648,8.265c1.753,3.893 3.34,7.626 4.852,11.785c2.388,6.772 3.25,10.877 10.233,10.398c10.292,-0.746 16.578,-12.745 27.356,-13.171c6.657,-0.266 10.073,1.493 15.197,6.826c5.154,5.386 10.445,16.905 4.852,24.53c-5.172,7.146 -16.632,5.119 -20.743,13.598c-2.449,4.959 -0.953,9.705 2.509,13.011c2.342,2.294 6.076,6.933 9.069,7.786c2.404,0.694 6.137,-0.213 8.692,-0.213c5.23,0 9.221,-0.48 14.239,-2.026c14.558,-4.586 29.968,-10.186 45.273,-7.466c6.349,1.173 9.826,10.345 10.128,17.437c0,2.933 0.151,5.332 -0.907,7.892c-0.59,1.226 -1.738,2.133 -2.343,3.306c0.318,-0.64 -1.406,4.64 -1.708,4.906c-0.861,0.8 -3.159,0.8 -4.217,1.12c-3.25,1.013 -6.288,2.026 -9.538,2.933c-3.507,1.013 -6.711,3.04 -10.339,3.626c-12.159,1.813 -25.335,0.053 -37.594,0.053c-9.918,0 -19.831,-0.373 -29.702,-0.053c-5.426,0.107 -16.249,2.56 -12.47,11.145c2.66,6.079 9.175,9.225 14.662,9.545c2.494,0.159 9.492,-1.6 11.14,1.6c0.649,1.067 0.498,7.466 -0.107,8.799c-1.814,4.532 -8.858,2.666 -12.531,2.666c-7.207,0 -14.508,-0.641 -21.597,0.266c-0.755,1.653 -0.906,8.798 -0.453,10.558c1.133,4.052 5.336,5.065 8.646,5.812c5.166,1.173 10.88,1.173 15.944,2.933c8.326,2.879 14.508,7.412 17.864,16.904c1.542,4.266 4.247,7.892 4.852,12.531c0.484,3.84 -0.605,11.678 -1.814,15.251c-3.253,8.852 -18.871,4.852 -24.796,3.999c-7.034,-0.96 -13.277,-1.707 -19.731,-4.853c-3.567,-1.707 -7.256,-3.68 -10.823,-5.386c-6.713,-3.2 -10.613,-6.559 -16.478,-12.105c-3.039,-2.827 -6.772,-5.546 -9.493,-8.799c-2.404,-2.933 -3.356,-6.772 -5.442,-10.025c-4.096,-6.453 -8.359,-12.265 -11.669,-19.464c-2.57,-5.493 -5.926,-10.452 -8.057,-16.211c-1.285,-3.359 -1.285,-6.559 -2.192,-10.025c-0.801,-3.146 -2.101,-4.372 -2.403,-7.572c-0.251,-2.56 0.151,-4.906 -0.302,-7.466c-1.118,-5.439 -2.313,-11.305 -2.766,-16.904c-0.483,-5.28 -2.992,-10.505 -5.018,-15.358c-1.39,-3.253 -3.492,-5.706 -4.852,-8.959c-1.21,-2.56 -0.907,-4.8 -1.512,-7.466c-0.59,-2.506 -2.494,-4.533 -3.25,-6.879c-1.451,-4.106 -0.695,-8.852 -2.509,-12.851c-1.768,-3.946 -4.973,-6.879 -6.832,-10.665c-2.071,-4.159 -4.217,-6.879 -7.089,-10.345c-4.751,-5.653 -10.827,-12.159 -16.904,-15.518c-3.19,-1.813 -6.818,-2.986 -9.75,-5.439c-3.204,-2.666 -5.759,-5.492 -9.281,-7.625c-4.58,-2.72 -9.81,-4.746 -14.556,-7.199c-4.853,-2.506 -9.871,-4.959 -14.829,-7.199c-11.892,-5.492 -24.054,-11.944 -37.008,-11.678c-19.676,0.427 -39.354,0.053 -59.03,-0.107c-6.244,-0.054 -12.26,1.813 -18.503,2.026c-8.265,0.267 -16.588,-0.053 -24.69,2.24c-12.265,3.413 -24.099,7.785 -35.995,12.638c-7.138,2.933 -14.711,4.212 -21.649,8.105c-6.133,3.412 -11.786,7.998 -17.545,12.211c-5.44,4.053 -10.02,8.905 -15.144,13.278c-5.281,4.586 -10.98,8.265 -16.21,13.118c-7.095,6.666 -15.197,12.372 -21.863,19.624c-4.686,5.119 -8.903,10.078 -13.967,14.664c-9.165,8.479 -15.196,18.771 -22.663,29.009c-2.086,2.827 -3.099,6.453 -5.23,9.279c-6.932,9.012 -15.148,16.797 -22.343,25.649c-7.36,9.012 -16.427,14.557 -23.41,24.156c-7.62,10.452 -16.1,21.17 -22.131,32.955c-4.051,7.839 -7.83,15.518 -12.047,23.25c-4.112,7.466 -6.938,15.091 -12.108,21.33c-5.17,6.293 -6.878,15.731 -10.823,23.09c-3.839,7.038 -8.585,12.957 -12.047,20.423c-4.051,8.798 -5.275,17.01 -7.573,26.449c-2.494,10.345 -7.996,19.197 -10.445,29.702c-4.689,19.89 -11.309,39.141 -15.572,59.191c-2.071,9.972 -3.568,20.957 -6.5,30.609c-2.887,9.598 -4.217,20.53 -7.951,29.595c-2.887,6.986 -5.169,13.598 -5.925,21.49c-0.589,6.399 -3.098,11.465 -4.746,17.544c-7.089,25.969 -0.347,51.832 0.106,78.121c0.151,8.852 1.784,16.477 3.144,25.116c2.176,13.864 4.262,28.049 5.91,42.34c0.166,1.493 7.799,42.126 1.874,43.833z" /></svg>