<svg xmlns="http://www.w3.org/2000/svg" viewBox="0 0 955 896" width="955" height="896"><path d="M482.73,627.862c-32.827,0 -59.333,-63.533 -59.333,-141.741c0,-78.344 26.506,-141.785 59.333,-141.785c29.984,0 54.908,53.328 58.792,122.505c-26.191,4.651 -45.968,27.454 -45.968,54.908c0,23.029 13.999,42.808 33.957,51.341c-10.794,33.325 -27.726,54.773 -46.781,54.773z" /> <path d="M364.321,317.532c-8.85,4.019 -16.708,8.083 -23.887,12.011c-36.35,35.538 -58.972,85.162 -58.972,139.935c0,67.01 33.731,126.207 85.161,161.518c4.199,-0.091 8.85,-0.091 13.908,0c52.243,1.716 55.494,16.753 112.615,18.333c41.407,1.039 57.391,-6.412 62.855,-9.166c16.662,-8.535 21.583,-17.655 44.703,-39.556c24.294,-23.029 32.601,-25.963 50.709,-41.226c14.087,-26.911 21.99,-57.481 21.99,-89.902c0,-39.828 -12.011,-76.989 -32.512,-107.875c-18.512,-10.205 -40.909,-23.344 -72.653,-55.223c-6.638,-6.638 -12.644,-13.05 -18.197,-18.921c-22.531,-9.031 -47.005,-13.998 -72.653,-13.998c-5.825,0 -11.47,0.226 -17.069,0.858c-6.412,4.29 -14.404,9.258 -25.015,14.811c-31.338,16.526 -35.989,12.327 -70.983,28.402zM193.864,694.303c-20.951,-18.919 -14.811,-29.621 -46.69,-106.519c-31.247,-75.183 -43.212,-79.923 -46.464,-111.983c-2.754,-27.861 3.117,-57.753 40.369,-123.453c27.454,-48.27 71.705,-115.776 141.65,-188.746c40.144,-5.192 27.454,-23.796 37.344,-35.987c6.412,-7.677 20.364,-15.895 63.713,-10.296c26.598,-2.439 63.398,-3.569 106.295,2.528c89.813,12.732 161.97,50.572 159.351,58.655c-4.514,13.591 -224.644,-53.101 -247.04,-7.857c-4.425,8.94 2.934,14.178 -2.078,26.776c-13.274,32.736 -106.971,4.019 -112.344,49.037c-6.503,54.997 -30.389,90.128 -47.322,130.18c-6.277,5.782 -44.162,42.266 -43.123,99.883c0.767,45.562 25.467,76.041 32.827,84.44c1.895,9.799 7.586,31.338 26.415,47.774c4.291,3.656 15.037,12.28 41.091,18.377c-33.414,-44.478 -53.328,-100.424 -53.328,-161.203c0,-90.624 44.297,-170.684 111.396,-217.554c26.821,-20.817 53.914,-32.104 73.285,-38.381c10.837,-8.761 27.545,-19.914 49.761,-24.294c37.839,-7.812 67.912,8.4 98.392,19.733c31.021,11.469 76.989,23.344 139.437,22.396c50.889,5.825 22.081,52.83 37.252,83.536c9.347,22.261 24.474,55.088 47.503,92.432c32.601,52.787 44.838,56.443 48.722,83.175c6.727,46.059 -26.913,54.999 -24.294,118.712c0.724,19.688 4.742,38.066 -7.179,50.709c-10.07,10.702 -21.449,6.277 -37.524,13.23c-30.795,13.275 -31.654,47.547 -51.522,72.247c-15.263,18.829 -45.743,37.207 -112.842,35.22c-112.752,-5.147 -132.801,-10.52 -132.936,-14.178c0,-8.759 113.068,10.296 180.98,-51.115c43.665,-39.554 66.378,-106.925 67.191,-172.67c-30.163,108.416 -125.755,187.933 -238.777,187.933h-1.806c-4.606,0.633 -9.257,1.355 -13.998,1.987c-18.695,2.619 -63.489,1.265 -152.985,-1.58c-58.476,-1.806 -99.611,-5.058 -130.723,-33.144z" /> <path d="M901.515,487.215c7.045,-0.678 15.128,27.138 18.243,38.065c14.087,48.631 10.474,91.934 5.147,120.562c-0.632,17.61 -3.521,38.38 -11.198,60.507c-28.356,81.46 -100.468,120.112 -123.181,131.13c-52.515,42.762 -124.446,38.652 -183.147,58.52c-62.764,-43.215 -174.793,29.44 -249.795,-17.882c-47.457,-11.741 -105.437,-35.085 -153.887,-83.627c-30.795,-30.84 -52.695,-66.784 -47.909,-71.39c5.462,-5.238 39.51,36.124 98.933,56.308c38.022,12.915 73.196,12.689 98.257,10.024c34.723,-5.78 69.673,1.806 100.333,18.514c23.029,0.813 46.779,-40.73 68.86,-8.218c47.007,42.897 148.47,1.897 206.899,1.897c13.274,-8.444 24.068,-24.924 35.807,-38.426c12.689,-14.63 30.751,-17.249 41.136,-20.364c21.405,-21.946 51.747,-58.701 69.629,-111.035c24.835,-72.699 14.722,-143.457 25.874,-144.585z" /> <path d="M715.255,90.293c137.767,29.531 234.217,202.383 238.868,349.993c-36.711,87.329 -51.748,-45.877 -53.869,-79.923c-75.77,-60.643 -116.497,-183.464 -224.192,-218.323c-17.249,0.813 -41.814,-0.586 -66.784,-12.643c-21.945,-10.611 -28.493,-21.9 -42.265,-32.692c-34.768,-27.318 -67.551,-13.952 -164.678,-19.371c-47.096,-2.664 -113.924,-9.978 -114.15,-19.055c-0.089,-5.149 21.268,-6.73 66.965,-21.314c42.536,-13.546 49.174,-20.229 74.596,-27.363c23.39,-6.592 57.526,-12.148 102.907,-6.051c29.306,-16.075 29.125,27.543 53.734,29.169c50.754,14.496 105.526,-1.534 128.871,57.573z" /> <path d="M57.9,542.123c4.831,11.875 15.895,29.938 45.381,45.787c27.77,74.37 31.517,94.329 28.176,95.864c-5.507,2.528 -24.293,-46.6 -79.11,-77.847c-16.211,-9.257 -18.604,-7.27 -25.783,-12.417c-51.385,-36.802 -21.99,-204.415 55.405,-327.507c70.576,-112.164 174.297,-176.555 178.857,-171.949c3.25,3.297 -36.937,49.896 -50.98,66.197c-41.587,48.179 -52.604,51.792 -66.241,79.878c-14.584,30.164 -6.592,35.672 -23.887,65.158c-15.036,25.648 -26.685,30.93 -36.981,55.856c-6.864,16.708 -6.775,26.687 -9.89,52.515c-10.339,86.427 -26.55,99.883 -14.945,128.465z" /></svg>