<svg xmlns="http://www.w3.org/2000/svg" viewBox="0 0 848 960" width="848" height="960"><path d="M88.125,539.887c-0.174,-2 -1.479,-3.609 -1.609,-5.653c-0.131,-1.523 -0.044,-9.002 2.652,-8.915c1.566,3.392 2.653,6.739 4.523,10.001c1.828,3.044 3.392,6.131 5.393,9.088c2.175,3.218 5.349,7.479 8.828,9.61c4.435,2.783 8.74,4.957 13.828,6.827c4.914,1.782 10.61,2.957 15.002,5.479c3.523,2 7.393,2.304 11.393,3.609c7.61,2.565 13.698,7.522 21.047,10.479c4.088,1.653 8.479,2.697 12.393,4.61c3.74,1.827 8.089,2.478 11.872,4.131c3.696,1.608 7.784,2.347 11.306,4c2.218,1.088 4.045,0.958 6.349,1.566c2.044,0.565 3.827,1.261 6.001,1.739c3.087,0.653 5.261,1.739 8.61,1.696c5.131,-0.044 9.914,0.869 14.959,0.956c15.829,0.218 31.701,-0.043 47.573,-0.043c3.087,0 6.436,-0.304 9.436,0.087c2.609,0.348 4.914,0.869 7.61,0.826c6.131,-0.043 13.306,-0.913 19.133,0.218c4.74,0.914 9.61,0.696 14.611,0.696c1.87,0 3.783,-0.087 5.653,0c2,0.044 3.652,1.087 2.261,3.653c-3.175,-0.261 -6.001,1.217 -8.958,2.348c-3.262,1.261 -6.262,2.827 -9.393,4.218c-3.565,1.609 -7.217,3.001 -10.914,4.392c-2.695,1.001 -5.001,2.74 -7.74,3.74c-3.001,1.131 -5.523,1.783 -8.262,3.479c-3.131,1.958 -6.739,3.436 -10.088,5.045c-1.999,0.957 -5.218,3.827 -6.609,1.218c-0.609,-1.088 -0.217,-2.566 -0.87,-3.74c-0.739,-1.435 -1.436,-2.609 -2.044,-4.131c-1.088,-2.914 -2.349,-6.219 -5.393,-8.132c-2.566,-1.696 -6.48,-0.956 -9.48,-1.609c-2.436,-0.522 -4.827,-0.956 -7.219,-1.478c-2.088,-0.435 -3.871,-1.305 -5.958,-1.696c-2.739,-0.565 -5.653,-1.087 -8.349,-1.913c-1.391,-0.435 -2.565,-1.348 -4,-1.696c-2.131,-0.523 -4.74,0.13 -7.044,-0.218c-5.261,-0.74 -10.261,-2.392 -15.219,-3.914c-4.262,-1.348 -8.523,-2.652 -13.002,-3.435c-3.956,-0.652 -8.522,-1.783 -12.175,-3.174c-2.218,-0.826 -3.827,-2.522 -6.566,-2.131c-1.914,0.261 -3.001,1.479 -4.61,2.392c-1.392,0.783 -2.87,1.261 -4.131,2.261c-1.87,1.523 -3.218,3.523 -5.305,5.045c-1.044,0.738 -2.262,1.13 -3.262,1.826c-1.261,0.87 -2.13,2.131 -3.218,3.131c-1.74,1.522 -3.783,2.74 -5.74,4.088c-2.782,1.87 -4.87,4.305 -7.827,5.958c-3.914,2.174 -6.871,4.826 -11.437,2.739c-6.349,-2.957 -11.697,-8.044 -16.307,-12.567c-0.696,-0.695 -1.913,-1.261 -2.783,-1.826c-1.044,-0.696 -1.261,-1.304 -2.044,-2.044c-1.174,-1.087 -2.87,-1.261 -4.088,-2.261c-0.957,-0.782 -1.435,-1.608 -2.566,-2.304c-2.435,-1.479 -4.218,-2.827 -5.827,-5.001c-0.739,-0.956 -1.305,-1.913 -2.348,-2.739c-1.261,-1.043 -2.914,-1.565 -3.957,-2.739c-1.609,-1.869 -2.434,-4.958 -3.087,-7.262c-0.609,-1.913 -0.913,-2.087 0.913,-3.609c1.174,-0.999 2.088,-1.957 3.131,-3c1.261,-1.304 1.87,-1.086 2.131,-3.087c0.26,-1.913 0.347,-3.479 -1.088,-4.87c-1.348,-1.348 -3.479,-1.87 -4.61,-3.392c-0.739,-1.045 -1.087,-2.261 -1.87,-3.349c-3.565,-4.783 -7.479,-9.436 -9.436,-15.089c-0.522,-1.435 -0.044,-2.653 -0.174,-4.131z" /> <path d="M421.972,575.411l13.002,-5.783c-0.435,0.305 -0.826,0.609 -1.261,0.87c-3.088,1.956 -7.871,5.826 -11.741,4.913z" /> <path d="M106.791,515.559c-1.218,-1.478 -3.305,-2.739 -4.218,-4.348c-0.87,-1.521 -0.304,-3.522 -0.13,-5.218c0.347,-3.783 -0.043,-8.088 1.435,-11.697c1.521,-3.74 2.434,-8.175 6.174,-10.784c2.566,-1.827 5.132,-2.609 8.002,-3.914c4.305,-1.913 6.219,-6.001 11.132,-7.436c2.914,-0.826 4.871,-1.348 7.567,-2.739c4.043,-2.087 7.914,-4.566 12.045,-6.349c4.566,-2.001 8.958,-3.914 13.263,-6.306c3.652,-2.044 7.435,-3.565 11.349,-5.131c4.652,-1.826 9.566,-3.479 13.48,-6.218c2.174,-1.523 5.087,-2.001 7.479,-3.349c1.913,-1.087 3.13,-1.522 5.348,-2.218c3.957,-1.217 8.262,-1.956 12.045,-3.565c4.435,-1.913 8.175,-4.696 12.219,-7.088c1.956,-1.13 3.739,-2.043 5.696,-3.131c4.305,-2.392 9.175,-5.957 11.741,-9.871c2.044,-3.217 4.218,-5.783 6.784,-8.74c3.13,-3.565 5.566,-7.479 8.305,-11.219c0.783,-8.915 1.521,-17.785 2.261,-26.7c0.435,-4.697 0.913,-9.437 1.261,-14.133c0.218,-3.304 -0.652,-6.348 -0.565,-9.61c0.043,-4.566 1.608,-9.35 0.565,-13.698c-0.348,-1.565 -0.26,-3.174 -0.13,-4.783c-1.044,-3.262 -1.913,-7.479 0.174,-9.436c0,0 0,0.043 0.043,0.043c-0.652,-3.175 -1.653,-6.001 -1.305,-9.393c0,-0.13 0,-0.261 0.043,-0.391c-2.044,-7.174 -2.784,-14.175 -2.001,-22.133c0.565,-5.653 -0.348,-11.045 0.13,-16.785c0.478,-5.74 0.956,-11.524 1.478,-17.307c0.305,-3.565 1.349,-7.87 0.653,-11.262c-0.478,-2.348 -0.696,-4.219 -0.435,-6.871c0.261,-2.609 -0.347,-4.74 -0.565,-7.349c-0.087,-1.783 0.261,-3.522 0.435,-5.305c-0.086,-0.826 -0.086,-1.609 -0.043,-2.392c-0.348,-1.653 -1.304,-3 -1.739,-4.653c-2.565,-9.74 0.262,-21.351 1.088,-31.439c0.695,-7.871 0.26,-16.741 2.739,-24.395c1.087,-3.435 2.174,-7.088 2.696,-10.697c-1.261,1.783 -2.392,3.565 -3.435,5.348c-2.305,3.914 -3.783,7.914 -5.436,12.002c-1.044,2.523 -0.652,4.74 -1.305,7.219c-0.39,1.305 -1.521,2.349 -1.478,3.697c0.173,-2.521 0.913,-4.957 1.478,-7.479c0.566,-2.435 0.392,-4.87 1.088,-7.305c0.478,-1.739 1.391,-3.392 2.044,-5.088c0.652,-1.783 0.827,-3.914 1.783,-5.61c1.348,-2.391 3.74,-4.305 5.566,-6.479c0,-1.087 0.043,-2.218 0.348,-3.131c0.695,-2.218 1.608,-3.262 1.826,-5.61c0.174,-1.914 -0.173,-5.306 2.131,-6.697c0.652,-0.392 1.696,-0.392 2.739,-0.305c0.958,-3.306 2.957,-6.611 4.523,-9.698c1.653,-3.175 2.175,-6.697 3.914,-9.828c2.044,-3.609 2.826,-7.044 4.348,-10.784c0.478,-1.261 1.434,-2.391 2.174,-3.565c1.001,-1.783 1.001,-2.913 1.609,-4.783c1.478,-4.566 4,-9.219 6.131,-13.611c1.087,-2.305 2.087,-4.305 3.653,-6.349c1.044,-1.392 1.522,-2.522 2.087,-4.131c1.043,-2.914 3.217,-4.915 4.913,-7.567c2.349,-3.697 5.262,-6.828 8.132,-10.263c2.739,-3.306 6.218,-6.132 8.74,-9.48c2.522,-3.348 6.218,-5.74 9.001,-8.871c3.131,-3.478 6.784,-6.392 9.915,-9.784c2.434,-2.652 5.348,-3.304 8.305,-5.261c2.871,-1.914 6.653,-3.523 9.915,-4.566c3.87,-1.261 8.001,-3.045 12.045,-3.653c1.392,-0.217 2.697,-0.13 4.088,-0.391c2.348,-0.347 4.261,-1.74 6.479,-2.348c2.826,-0.782 5.522,-0.782 8.349,-1.043c2.783,-0.26 5.479,-1.608 8.262,-1.913c2.827,-0.348 6.001,0.043 8.828,0.043c2.653,0 6.175,-0.565 8.697,-0.043c4,0.782 7.653,4.13 11.262,5.783c2.957,1.305 4.827,2.913 7.523,4.479c2.652,1.522 5.262,2.783 8.045,4.088c1.087,0.522 1.783,1.305 2.783,1.87c2.87,1.522 6.784,2.13 9.871,3.435c5.044,2.131 9.957,4.131 15.35,5.653c1.913,0.565 4.13,0.521 6.131,1.043c2.523,0.696 4.219,1.783 6.306,2.609c4.218,1.74 9.61,2.043 14.176,3.131c3.392,0.783 6.392,2 9.784,2.696c7.393,1.478 14.133,4.957 21.308,6.914c2.304,0.652 3.696,1.826 5.783,2.739c1.74,0.783 3.566,1.131 5.305,2.001c3.262,1.696 6.306,3.217 9.306,5.218c3.087,2.088 4.131,2.957 5.653,6.088c1.261,2.479 2.739,4.914 4.392,7.175c1.391,1.913 3.653,3.697 4.218,6.001c1.522,6.001 4.131,11.479 6.218,17.35c2.261,6.393 4.957,12.872 8.262,18.873c3.044,5.566 4.914,11.566 8.219,16.959c2.218,3.652 3.914,7.479 5.436,11.349c0.696,1.696 1.522,3.522 2.392,5.175c1,1.956 2.784,3.348 3.827,5.261c0.869,1.521 0.826,3.304 1.522,4.913c1.261,3 2.174,5.653 2.652,8.871c0.913,6.392 3.174,12.393 3.609,18.916c0.434,6.566 1.131,13.176 1.174,19.742c0.13,14.219 -0.348,28.57 -1.566,42.876c-0.521,5.871 -0.086,11.611 -0.391,17.438c-0.26,5.043 -0.913,10.174 -1.348,15.219c-1.043,12.133 -1.999,24.265 -3.087,36.397c-0.435,5.044 -0.783,9.61 0.783,14.437c1.261,3.87 3.566,7.609 5.305,11.349c4.784,10.393 9.784,20.873 13.089,31.744c0.566,1.87 2.262,3.001 2.827,4.827c0.652,2.088 0.304,4.392 0.13,6.523c-0.261,3.262 0.392,6.654 1.435,9.698c2.131,6.001 6.479,11.176 8.523,17.307c2.479,7.48 5.871,15.002 7.697,22.656c0.435,1.913 0.305,3.74 0.653,5.566c0.392,1.827 1.478,3.349 2.218,5.045c1.174,2.782 2.087,6.218 2.435,9.218c0.218,1.783 -0.261,3.522 -0.043,5.348c0.173,1.74 0.521,3.175 0.391,4.958c-0.087,1.74 -0.608,3.044 0,4.74c0.827,2.304 1.958,4 2.566,6.479c1.131,4.653 4.045,8.567 5.436,13.133c2.478,8.175 5.304,16.524 6.392,25.004c0.217,1.739 0.914,2.826 1.522,4.435c0.738,2.174 1.086,4.479 0.956,6.827c0.262,1.652 0.653,3.261 1.218,4.87c0.48,2.871 -0.521,6.001 -0.608,8.915c-0.218,3.957 0.522,7.74 0.087,11.697c-0.26,2.174 0.043,3.696 0.348,5.827c0.347,2.784 -0.74,5.045 -2.001,7.697c-1.391,2.914 -3.87,8.915 -7.479,10.611c-1.261,0.651 -0.652,0.521 -2.522,0.608c-4.826,0.217 -10.523,0.522 -15.219,-0.174c-15.568,-2.347 -23.656,-14.871 -34.745,-22.916c-2.652,-1.957 -6.566,-3.74 -8.61,-6.349c-0.521,-1.217 -1.391,-2.305 -2.522,-3.218c-1.739,-0.87 -3.609,-1.478 -5.566,-1.913c-2.174,-1.045 -3.305,-3.175 -5.131,-4.61c-2.306,-1.826 -4.784,-3.74 -7.654,-4.783c-6.175,-2.304 -12.132,-4.435 -19.133,-4.305c-6.088,0.087 -12.175,0.043 -18.263,0c-6.566,-0.044 -12.524,0.26 -18.873,2.652c-9.305,3.435 -18.35,8.48 -26.786,13.393c-15.438,9.045 -31.005,17.959 -45.268,28.526l-7.479,3.349c4.305,-2.826 8.523,-5.827 12.567,-8.697c1.261,-0.914 2.479,-1.087 3.827,-1.87c2.174,-1.305 3.522,-3.566 5.523,-5.088c4.478,-3.435 9.958,-5 14.306,-8.653c3.479,-2.87 6.957,-5.653 10.436,-8.523c1.305,-1.087 2.566,-2.087 3.957,-3c2.435,-1.653 4.609,-3.827 7.175,-5.393c5.914,-3.565 10.827,-8.74 16.437,-12.828c4.653,-3.436 10.001,-6.263 14.611,-9.263c1.523,-0.958 4.218,-1.958 4.958,-3.697c0.391,-0.914 0.348,-2.218 0.696,-3.218c0.608,-1.652 0.783,-3 0.913,-4.783c0.218,-2.609 0.697,-5.175 -0.608,-7.567c-1.261,-2.261 -2.478,-4.436 -3.609,-6.74c-1.044,-2.044 -1.435,-4.48 -2.957,-6.306c-1.653,-2 -3.522,-4 -5.523,-5.653c-3.695,-3.044 -7.914,-5.956 -10.914,-9.653c-0.869,-1.087 -1.434,-2.436 -2.304,-3.479c-0.74,-0.869 -1.653,-1.131 -2.218,-2.174c-0.869,-1.826 -0.303,-6.262 0.305,-8.175c2.391,-7.217 7.74,-13.828 11.262,-20.785c1.653,-3.218 3.609,-6.219 5.653,-9.306c2.871,-4.392 4.479,-9.566 6.871,-14.176c3.567,-6.914 6.001,-14.089 9.698,-20.96c0.565,-1 1.087,-2.043 1.305,-3.131c0.521,-2.696 1.086,-4.697 2.174,-7.349c1.479,-3.697 2.609,-7.349 4.262,-11.002c5.871,-12.828 10.262,-25.743 16.785,-38.484c2.392,-4.74 1.131,-9.349 2.522,-14.176c0.783,-2.74 1.391,-4.783 1.609,-7.61c0.347,-3.913 0.652,-7.783 1,-11.697c1.087,-13.089 2.217,-26.221 3.305,-39.31c0.478,-5.175 0.913,-10.35 1.348,-15.481c0.261,-3.218 0.347,-6.001 -0.261,-9.132c-0.696,-3.522 -2.088,-7.349 -2.218,-10.914c-0.305,-6.958 -0.479,-14.48 -2.827,-21.264c-1.434,-4.305 -2.304,-8.828 -3.565,-13.263c-0.957,-3.174 -2.479,-5.957 -3.349,-9.175c-0.739,-2.609 -0.783,-4.913 -1.957,-7.392c-0.87,-1.739 -1.478,-3.522 -2.131,-5.348c-1.174,-3.131 -2.696,-6.132 -4.218,-9.132c-2.131,-4.217 -5.001,-8.478 -8.045,-12.175c-1.523,-1.869 -2.653,-3.609 -3.827,-5.696c-2.435,-4.305 -6.088,-7.306 -9.132,-11.176c-0.043,-0.043 -0.043,-0.043 -0.043,-0.043c-1.088,-0.782 -2.174,-1.608 -3.392,-2.348c-3.392,-2.001 -6.654,-4.262 -9.698,-6.697c-2.13,-1.74 -4.087,-3.436 -5.783,-5.523c-0.565,-0.696 -1.088,-1.435 -1.653,-2.131c-0.652,-0.782 -1.261,-1.565 -1.826,-2.348c-0.087,-0.696 -0.175,-1.348 -0.305,-2.001c-3.131,-3.479 -7.522,-5.088 -11.784,-7.262c-4.437,-2.305 -9.045,-3.74 -14.003,-4.566c-1.869,-0.305 -3.217,-0.826 -5.218,-0.913c-1.175,0 -2.696,0.305 -3.827,0.087c-2.306,-0.434 -3.827,-1.131 -6.306,-1.174c-3.001,-0.043 -6.045,0 -9.045,0c-3.349,0 -5.784,-1 -8.915,-1.174c-2.218,-0.088 -4.349,0.26 -6.436,-0.218c-2.871,-0.653 -5.828,-1.696 -8.915,-2.044c-5.653,-0.697 -12.22,0.043 -18.003,0.043c-5.175,0 -10.349,-0.087 -15.524,0c-8.088,0.175 -14.872,4.349 -22.656,5.958c-5.783,1.174 -10.522,4.044 -15.915,5.566c-2.914,0.826 -5.218,2.74 -7.827,4.088c-2.654,1.348 -5.393,2.479 -8.002,3.914c-2.392,1.304 -4.784,2.695 -7.132,4c-0.61,0.304 -1.436,0.087 -2.001,0.478c-1.217,0.783 -2.087,2.087 -3.435,2.87c-5.566,3.217 -10.611,5.87 -15.959,9.088c-2.566,1.564 -5.348,3.087 -7.827,4.913c-0.521,1.435 -1.087,2.827 -1.609,4.262c-0.478,1.304 -0.957,2.174 -1.218,3.565c-0.217,1.13 -0.608,4.217 -1.913,4.913c-1,0.565 -3.087,0.565 -5.088,0.435c0.087,0.174 0.262,0.304 0.305,0.522c0.913,2.826 -0.261,6.958 -0.522,9.958c-1.175,13.568 -2.305,27.178 -3.479,40.746c-0.565,6.959 -1.174,13.96 -1.739,20.917c-0.305,3.609 -0.608,7.219 -0.913,10.784c-0.349,3.653 0.782,6.567 0.391,10.176c-0.304,3.479 0.87,5.566 0.522,9.045c-0.305,3.48 0.218,5.697 0.826,8.828c0.304,1.348 1.304,3.217 1.609,4.783c0.304,1.523 -0.131,3.001 0.174,4.523c0.218,1.001 0.739,1.739 0.826,2.827c0.087,0.913 -0.522,1.958 -0.348,2.914c0.262,1.392 1.001,1.696 1.088,3.305c0.131,1.826 -0.783,3.87 -0.565,5.696c0.173,1.826 1.086,3.001 0.956,5.088c-0.217,3.347 1,5.87 1.522,8.74c0.696,3.609 1.304,7.436 2.174,11.045c0.782,3.262 3.001,6.523 4.044,9.741c1.391,4.044 3.87,7.74 5.218,11.784c1.174,3.609 3.305,6.914 3.218,10.741c-0.087,4.131 1.609,7.914 3.218,11.741c1.783,-0.349 3.479,-0.262 4.827,0.956c1.783,1.566 2.392,4.175 3.653,6.001c0.783,1.13 2.044,2.261 2.566,3.609c0.696,1.913 0.826,4 1.566,5.696c0.738,1.87 1.13,3.697 1.826,5.61c0.783,2.131 0.957,3.653 2.131,5.523c1.174,1.827 1.523,4.001 2.479,5.958c2.174,4.48 3.044,9.002 4.435,13.655c1.348,4.523 3.262,8.741 5.61,12.785c0.478,0.827 1.348,1.305 1.609,2.218c0.131,0.478 -0.217,0.913 -0.13,1.348c0.262,1.174 1.045,1.696 1.653,2.696c1.261,2.174 1.565,4.697 2.783,6.784c2.131,3.74 3.652,8.001 5.696,11.915c2.435,4.61 5.566,8.307 8.871,12.307c3.13,3.739 5.957,7.261 9.436,10.914c3,3.217 6.261,6.218 9.088,9.523c1.784,2.13 4.436,3.783 6.697,5.479c1.565,1.217 2.782,2.652 4.435,3.783c2.566,1.783 5.654,3.262 8.393,5.001c3.044,1.913 6.045,3.782 9.35,5.348c3.61,1.696 5.697,4.175 10.176,4.566c2.696,0.26 6.436,0.347 9.132,-0.218c3.219,-0.696 6.045,-0.522 9.35,-0.696c1.436,-0.087 2.306,-0.609 3.697,-0.87c1.218,-0.217 2.392,0.044 3.653,-0.13c5.652,-0.914 11.219,-2.697 16.48,-4.958c2.61,-1.088 5.088,-2.001 7.523,-3.262c1.044,-0.565 5.914,-4.478 5.871,-1.739c-7.087,8.915 -11.349,12.437 -14.784,16.307c-3.043,3.392 -6.479,6.696 -8.088,10.871c-1.652,4.392 -4.826,7.523 -7.87,11.306c-2.739,3.349 -5.175,6.089 -8.74,8.828c-4.915,3.696 -8.697,7.958 -15.394,9.001c-4.435,0.653 -10.871,0.826 -15.089,0c-1.958,-0.391 -3.914,-1.565 -5.958,-2.087c-1.044,-0.218 -2.392,-0.349 -3.392,-0.74c-1.869,-0.74 -4,-2.044 -5.348,-3.392c-3.74,-3.74 -4.871,-9.045 -7.654,-13.35c-2.305,-3.523 -4.609,-6.784 -7.088,-10.263c-1.652,-2.348 -2.478,-5.001 -4,-7.349c-1.217,-1.914 -2.87,-3.522 -4.044,-5.479c-1.261,-2.13 -2.653,-4.218 -3.827,-6.392c-0.957,-1.74 -2.262,-3.044 -3.218,-4.74c-1.348,-2.347 -3.653,-6.087 -6.827,-6.957c-3.653,-0.999 -6.001,2.218 -8.219,4.262c-1.696,1.565 -4.044,2.913 -5.827,4.479c-2.696,2.349 -6.001,5.088 -7.697,8.045c-1.478,2.566 -1.435,4.958 -1.696,7.697c-0.304,3.522 0.305,6.871 1.218,10.306c0.826,2.957 1.478,5.87 2.652,8.784c0.695,1.653 0.521,3.435 1.391,5.088c0.957,1.739 2.391,3.305 3.479,5.001c1.87,2.957 4.045,5.088 2.392,8.915c-1.653,-0.043 -4.088,1.348 -5.61,1.87c-3.043,1.131 -5.826,2.61 -8.653,4.088c-4.087,2.131 -7.783,4.74 -12.045,6.479c-5.305,2.131 -9.61,4.001 -15.35,4.044c-6.304,0.088 -10.088,-4.652 -13.958,-8.305c-3.435,-3.304 -8.131,-6.566 -10.697,-10.523c-1.913,-2.913 -3.001,-6.479 -4.044,-9.784c-0.566,-1.783 -0.914,-3.479 -1.522,-5.218c-0.913,-2.436 -2.218,-4.697 -3.131,-7.132c-1.304,-3.479 -2.217,-6.958 -5.348,-9.48c-3.392,-2.696 -7.001,-4.609 -11.219,-6.218c-3.348,-1.304 -5.436,-3.043 -9.306,-2.435c-1.87,0.305 -4.827,1.261 -6.218,2.609c-1,1 -1.652,2.566 -2.783,3.609c-3.696,3.654 -7.566,7.262 -11.654,10.611c-3.783,3.044 -7.74,5.653 -11.697,8.48c-2.913,2.088 -5.175,4.784 -8.349,6.523c-3.218,1.783 -6.74,3.218 -10.132,4.566c-2.827,1.13 -5.784,1.956 -8.567,3.174c-2.131,0.913 -4.305,2.261 -6.566,2.957c-2.348,0.695 -5.131,1.261 -7.523,1.826c-2.305,0.565 -4.48,1.261 -6.784,1.826c-4.87,1.174 -9.828,1.305 -14.698,1.131c-2.696,-0.131 -4.914,-1.087 -7.523,-1.609c-3.697,-0.739 -7.436,-1.479 -11.176,-2.087c-4.392,-0.697 -8.871,-1.61 -12.785,-3.349c-4.61,-2.088 -8.089,-2.696 -11.176,-6.436z" /> <path d="M754.202,611.373c4,3.74 9.783,9.523 9.653,15.002c-0.174,7.479 -1.957,15.045 -1.87,22.481c-0.392,-1.956 -4.392,-2.261 -6.088,-3.087c-2.392,-1.218 -4.653,-3.217 -6.74,-4.783c-3.61,-2.783 -7.305,-5.566 -11.002,-8.262c-2.392,-1.696 -3.653,-3.262 -5.479,-5.393c-2.609,-3.087 -6.741,-4.696 -9.828,-7.305c-3.87,-3.261 -8.306,-5.653 -12.698,-8.436c-4.261,-2.697 -8.61,-5.436 -13.045,-7.958c-5.871,-3.305 -12.655,-4.523 -18.829,-7.262l20.873,-1.826c3.565,-0.304 7.349,1.262 10.784,1.653c1.653,0.173 3.262,0.043 4.958,0.13c1.957,0.044 3.088,0.74 4.827,1.305c4.262,1.348 9.436,1.696 13.915,2.609c2.522,0.479 4.653,0.957 6.914,1.957c1.391,0.609 3.087,0.826 4.435,1.609c3.522,2.088 6.348,4.871 9.218,7.567z" /> <path d="M753.974,706.061c1.957,6.045 6.132,11.611 7.567,17.742c0.783,3.348 0.522,7.783 0.348,11.262c-0.086,2.174 -0.434,4.435 -0.608,6.653c-0.435,5.088 -1,10.219 -1.348,15.307c-0.348,5.436 0.174,10.697 -0.261,16.133c-0.566,6.436 -0.913,12.872 -1.609,19.264c-0.478,4.436 -1.869,8.785 -2.174,13.22c-0.261,2.957 0.348,7.523 -1.739,10.045c-1.913,-0.696 -2.261,-2.696 -3.087,-4.218c-1.174,-2.044 -2.565,-3.61 -4.131,-5.393c-2.826,-3.218 -3.913,-7.088 -5.261,-10.958c-1.478,-4.305 -3.174,-8.48 -4.74,-12.698c-1.087,-2.87 -3.087,-5.436 -3.87,-8.393c-0.566,-2 -0.478,-4.13 -1.131,-6.131c-0.653,-2.044 -1.957,-3.871 -2.479,-5.958c-0.522,-1.783 -0.26,-3.87 -0.913,-5.653c-0.696,-1.871 -2.262,-3.479 -2.827,-5.436c-0.695,-2.304 -0.74,-4.914 -1.348,-7.262c-1.131,-4.435 -1.522,-8.348 -1.609,-12.958c-0.087,-3.957 -1.478,-8.089 -2.261,-11.959c-0.521,-2.566 -1.348,-5.348 -2.174,-7.827c-1.043,-3.262 -1.304,-6.653 -2.304,-9.915c-0.783,-2.652 -1.435,-4.914 -2.957,-7.262c-1.652,-2.566 -2.913,-4.697 -3.609,-7.654c-1.131,-4.566 -2.566,-9.175 -3.914,-13.698c-0.87,-3.088 -2.783,-5.828 -3.957,-8.828c-2.436,-6.261 -6.697,-12.262 -14.046,-29.83c2.217,0 3.522,1.956 4.783,3.174c1.609,1.565 3.175,2.783 5.001,4.131c2.522,1.913 5.219,2.914 7.523,5.175c2.174,2.131 3.74,4.61 5.871,6.697c1.956,1.914 4.609,3.175 7.044,4.566c3.653,2.087 7.218,3.87 10.567,6.349c3.522,2.609 7.002,5.044 8.915,8.697c2.219,4.173 5.045,7.913 7.132,12.175c1.957,4.043 3.349,8.131 5.436,12.045c1.653,3.131 3.087,6.044 4.175,9.393z" /> <path d="M847.358,753.664c-0.043,5.349 0.697,10.914 -0.608,16.307c-2.522,10.479 -3.61,21.002 -4.523,31.613c-0.304,3.957 0,8.305 -1.174,12.219c-1.13,3.914 -3.26,7.524 -4,11.524c-1.175,5.956 -1.61,11.87 -2.566,17.828c-0.87,5.044 -2.827,10.131 -3.305,15.176c-0.261,2.739 -0.173,5.523 -0.826,8.262c-0.957,3.826 -2.653,7.827 -4.088,11.61c-2.522,6.827 -5.043,13.741 -8.305,20.307c-1.175,2.305 -3.305,4.348 -5.175,6.349c-2.262,2.478 -4.131,4.391 -5.827,7.305l-20.655,-0.913c2.609,-0.696 5.305,-5.349 6.523,-7.436c2.434,-4.044 1.651,-7.914 2.304,-12.219c0.608,-4.131 2.609,-8.131 3.522,-12.219c0.74,-3.436 1.391,-6.828 2.131,-10.263c1.651,-7.479 1.391,-15.002 2.304,-22.481c0.434,-3.566 1.479,-7.001 2.435,-10.523c0.827,-3.174 1.045,-6.348 1.653,-9.566c1.348,-7.218 3.436,-14.567 5.74,-21.655c2.913,-9.131 5.74,-18.394 8.436,-27.569c1.087,-3.87 0.826,-8.218 1.174,-12.132c0.957,-11.393 1.827,-22.786 2.87,-34.179c0.217,-2.218 0.653,-4.523 0.435,-6.697c-0.261,-2.609 -1.305,-5.131 -1.696,-7.697c-0.869,-5.522 -0.956,-11.044 -2.087,-16.48c-1,-4.696 -1,-10.045 -1,-14.872c-0.043,-2.435 -1,-4.262 -1.391,-6.523c-0.348,-2.087 0.435,-4.131 0.13,-6.218c-0.392,-3.088 -1.436,-5.61 -1.088,-8.828c0.261,-2.957 -0.174,-6.044 -0.522,-9.001c2.653,7.349 6.61,14.524 8.784,22.003c2,7.001 5.566,13.436 8.088,20.307c2.392,6.522 3.435,13.567 5.001,20.307c0.958,4.002 2.349,7.872 3.262,11.872c0.522,2.349 0.479,4.871 1.305,7.132c0.783,2.087 1.783,3.61 1.696,5.914c-0.131,2.479 -0.478,4.349 0.087,6.784c0.391,1.609 0.956,2.957 0.956,4.653z" /> <path d="M88.772,704.655c-0.174,-5.61 -2.435,-11.045 -2.783,-16.524c-0.131,-2.522 -1.435,-4.653 -1.522,-7.132c-0.087,-1.61 0.304,-3.392 0.478,-5.045c0.479,-5.696 0.13,-12.002 1.435,-17.655c0.652,-2.913 2.044,-7.305 3.87,-9.653c1.347,-1.739 4.522,-5.479 7.305,-5.088c1.739,0.216 2.826,2.217 3.609,3.565c0.565,0.957 1.305,1.87 1.783,2.87c0.74,1.479 0.304,2.653 0.522,4.131c0.391,3.218 1.174,6.566 1.131,9.784c-0.044,3.522 1.087,6.871 1.261,10.306c0.217,4.523 -0.87,9.48 -1.261,14.046c-0.217,2.435 -0.39,4.87 -0.608,7.305c-0.261,2.827 0.131,5.349 0.261,8.132c0.218,4.87 -0.087,9.827 0.653,14.654c0.348,2.261 1.044,4 1.566,6.218c0.565,2.479 0.522,5.044 1.435,7.392c1.001,2.652 1.304,5.566 2.392,8.175c1.522,3.609 3.044,7.044 3.74,10.741c0.131,0.653 0.61,1.045 0.653,2.001c0.044,0.521 -0.131,1.261 -0.174,1.826c-0.174,1.739 -0.305,3.479 -0.435,5.218c-0.347,4.044 -0.695,8.045 -1.043,12.089c-11.219,-2.087 -10.915,-6.566 -11.741,-10.784c-1.565,-7.609 -3.348,-15.436 -5.305,-23.003c-0.783,-2.871 -1.523,-5.653 -2.131,-8.567c-0.478,-2.261 -1.348,-4.217 -1.783,-6.609c-0.609,-3.435 -1.044,-7.044 -2.218,-10.436c-0.608,-1.696 -1.478,-3.175 -1.478,-5.045c0,-0.957 0.434,-1.958 0.391,-2.914z" /> <path d="M73.54,761.099c2.174,2.783 4.392,5.609 5.827,8.871c1.218,2.87 2.87,5.61 4.392,8.393c-0.348,-0.348 -0.74,-0.697 -1.218,-1.088c-4.044,-3.436 -7.609,-6.828 -12.654,-9.35c-5.653,-2.87 -11.219,-6.001 -16.785,-9.001c-2.653,-1.478 -5.871,-2.087 -8.567,-3.522c-3.131,-1.696 -6.914,-3 -10.654,-3.435c-4.391,-0.566 -7.827,-2.609 -11.61,-4.175c-2.957,-1.218 -5.957,-1.521 -9.001,-2.609c-8.306,-3.044 -13.611,-6.914 -12.698,-15.829c0.348,-3.001 -0.217,-6.436 3.218,-8.349c2.913,-1.653 7.261,-0.87 10.523,-0.87c3.87,0 9.175,-0.869 12.828,-0.043c2.391,0.522 5.045,2.001 7.349,2.957c4.088,1.739 7.914,3.609 11.828,5.566c3.174,1.566 4.522,3.349 6.392,6.001c1.218,1.696 2.174,3.436 3.522,4.958c1.086,1.218 1.696,2.479 2.739,3.74c2.392,2.957 5.306,5.696 7.61,8.61c1.435,1.871 2.609,2.957 4.305,4.523c1.434,1.348 1.521,3.175 2.652,4.653z" /> <path d="M84.966,780.608c-0.392,-0.739 -0.783,-1.521 -1.218,-2.261c0.61,0.608 1,1.261 1.218,2.261z" /> <path d="M91.285,796.571c-7.522,-12.089 -5.696,-12.785 -6.174,-15.481c-0.043,-0.173 -0.087,-0.304 -0.13,-0.478c0.61,1.218 1.175,2.435 1.653,3.653c1.087,2.871 6.784,8.654 5.61,11.959c-0.303,0.13 -0.651,0.218 -0.956,0.348z" /> <path d="M128.351,738.331c-5.131,-0.696 -4.828,-4.132 -4.523,-7.567c0.305,-3.218 -0.391,-5.784 -0.826,-8.871c-0.653,-4.521 -0.435,-9.305 -0.653,-13.871c-0.174,-4.392 -1.348,-8.349 -1.696,-12.567c-0.348,-3.653 0.565,-7.74 0.913,-11.437c0.217,-2.697 -0.131,-4.915 -0.305,-7.567c-0.218,-2.654 0.522,-4.958 -0.218,-7.567c-0.565,-1.913 -0.957,-3.739 -1.305,-5.696c-0.783,-4.262 -2.305,-8.262 -2.87,-12.437c-0.435,-3.392 -2.131,-6.044 -4.175,-8.871c-1.957,-2.783 -3.783,-4.784 -3.435,-8.219c0.304,-3.392 0.478,-6.522 1.609,-9.871c0.566,-1.74 1.349,-3.914 3.262,-5.045c2.088,-1.175 1.956,-0.522 3.044,0.826c1.348,1.609 2.261,3.957 2.914,5.914c0.61,1.87 0.305,4.044 0.74,5.914c0.305,1.173 0.696,1.869 0.783,3.174c0.174,2.261 0.174,4.523 0.348,6.784c0.131,1.087 -0.044,2.175 -0.174,3.218c-0.392,3.61 0.478,6.958 0.13,10.611c-0.305,3.262 -1.174,7.089 -0.783,10.263c0.262,1.826 1.087,3.609 1.305,5.479c0.304,2.523 0.173,5.218 0.391,7.784c0.217,2.87 -0.653,5.783 -0.305,8.653c0.217,1.696 0.608,3.435 0.913,5.088c0.435,2.261 -0.174,4.479 0.174,6.74c0.347,2.087 0.782,4.218 1.043,6.392c0.435,3.74 1.392,7.044 2.218,10.697c0.869,3.653 0.826,7.435 1.609,11.132c0.783,3.565 0.175,7.174 -0.13,10.914z" /> <path d="M629.766,352.697c-1.652,-6.261 -4.175,-12.262 -5.566,-18.611c-1.566,-6.827 -1.305,-13.611 -0.74,-20.612c0.522,-5.827 0.565,-11.785 1.478,-17.568c0.522,-3.653 2.566,-7.088 3.044,-10.741c0.392,-3.13 0.522,-6.305 0.783,-9.436c0.217,-3.348 0.783,-4.87 2.261,-8.088c0.826,-1.696 0.695,-3.348 0.913,-5.131c0.217,-1.653 1,-3 1.348,-4.653c1.261,-5.435 2.131,-10.914 2.522,-16.48c0.13,-1.696 0.696,-3 1.218,-4.653c1.045,-3.305 0.827,-7.132 1.088,-10.567c0.304,-3.131 0.565,-6.262 0.826,-9.393c0.175,-2.217 1.044,-5.088 0.653,-7.262c-0.347,-2.088 -0.869,-3.089 -0.608,-5.393c0.218,-2.261 -0.347,-3.913 -0.565,-6.131c-0.175,-1.609 0.043,-2.653 -0.653,-4.392c-0.305,-0.783 -0.783,-1.348 -0.913,-2.261c-0.217,-1.74 0.523,-3.61 0.305,-5.393c-0.392,-3.262 -1.436,-6.697 -2.001,-9.871c-0.696,-4.043 -2.392,-7.392 -3.435,-11.262c-0.303,-1.174 -1.13,-1.913 -1.391,-3.218c-0.217,-1.218 0.044,-2.696 -0.13,-3.957c-0.304,-2.478 -2.13,-4.609 -2.348,-7.044c-0.175,-1.651 0.478,-3.652 0.478,-5.348c2.827,5.784 7.393,10.654 10.611,16.307c4.262,7.48 8.175,15.003 12.132,22.613c1.304,2.479 2.391,5.436 3.174,8.132c0.435,1.523 0.305,3.175 1.131,4.61c0.609,1.044 1.348,1.696 1.87,2.87c2.479,5.697 3.261,11.914 6.523,17.307c3.218,5.305 3.87,11.872 7.088,17.133c2.957,4.783 6.348,9.741 10.001,14.046c2.914,3.479 4.305,8.001 6.697,11.784c2.696,4.262 4.044,8.785 6.131,13.22c1.347,3.001 3.261,5.915 4.696,8.915c0.826,1.696 2.087,3.262 2.783,5.001c0.652,1.523 0.565,3.045 1.348,4.523c1.827,3.479 2.522,7.436 3.74,11.176c0.609,1.826 0.392,3.435 0.783,5.218c0.348,1.478 1.174,2.87 1.522,4.348c0.739,2.827 0.826,5.74 1.609,8.567c0.695,2.696 1.652,5.784 1.913,8.567c0.305,3.305 0.435,6.827 0.348,10.132c-0.087,3.176 1.305,6.219 1.348,9.35c0.087,2.827 -0.043,5.392 0.522,8.175c0.305,1.478 1.087,2.827 1.305,4.305c0.261,1.826 -0.305,3.653 -0.087,5.523c0.305,2.566 1.218,4.653 1.218,7.219c0,2.61 0.565,4.871 0.435,7.523c-0.173,2.349 0.392,4.088 0.435,6.349c0.043,1.609 0.783,2.913 0.783,4.566c-0.043,1.739 -0.652,3.522 -0.565,5.261c0.088,1.914 0.74,3.522 0.653,5.479c-0.043,1.261 -0.261,2.566 -0.348,3.827c-0.174,2.305 -0.391,4.61 -0.565,6.871c-0.478,5.436 -1,10.914 -1.391,16.35c-0.304,3.827 -1.652,7.393 -2.783,11.176c-1,3.261 -0.957,6.522 -2.131,9.784c-1.001,2.914 -1.174,5.305 -1.609,8.219c-0.347,2.087 -1.217,3.174 -2.348,5.131c-1.348,2.348 -1.696,4.479 -2.609,6.871c-1.087,2.827 -3,5.348 -4.131,8.175c-0.87,2.174 -1.478,4.305 -2.566,6.392c-1.739,3.348 -4.001,6.479 -5.827,9.784c-1.349,2.479 -2.306,3.826 -4.088,5.914c-1.782,2.088 -2.261,2.566 -5.131,2.479c2.348,-5.175 1.131,-6.566 0.913,-8.132c-0.174,-1.043 0.174,-2.044 0.087,-3.044c-0.175,-1.739 -0.958,-1.913 -1.566,-3.435c-0.74,-1.739 -0.87,-4.131 -1.218,-6.001c-1.608,-9.089 -3.739,-18.133 -6.218,-27.048c-2.001,-7.306 -4.305,-14.263 -5.001,-21.83c-0.392,-4.217 -2.305,-8.044 -3.131,-12.175c-0.435,-2.218 -1.13,-4.088 -1.348,-6.306c-0.218,-1.913 -0.696,-3.436 -1.566,-5.175c-1.348,-2.652 -2.653,-5.304 -4.262,-7.87c-4.262,-6.739 -8.437,-13.654 -12.002,-20.742c-2.174,-4.348 -3.827,-8.523 -7.349,-12.132c-1.652,-1.696 -2.478,-3.392 -3.783,-5.305c-2.783,-4.175 -5.435,-7.654 -6.74,-12.524z" /> <path d="M152.722,416.194c-0.74,1.478 -0.522,2.609 -2.479,3.479c-0.479,-3.088 5.218,-7.697 7.088,-10.393c2,-2.87 4.653,-5.479 6.088,-8.523c1.783,-3.697 4.566,-6.914 6.349,-10.611c2.305,-4.826 5.871,-9.001 8.523,-13.741c0.783,-1.391 2.043,-2.783 2.696,-4.218c0.566,-1.262 0.523,-2.609 1.131,-3.914c1.565,-3.348 2.305,-6.783 4.044,-10.088c2.131,-4.045 3.349,-7.871 4.958,-11.959c1.001,-2.479 1.522,-4.87 2.392,-7.349c0.566,-1.609 1.523,-3.13 2.001,-4.783c0.652,-2 0.783,-4.13 1.783,-6.131c1.565,-3.218 3.871,-5.61 4.827,-9.045c1.262,-4.435 3.784,-8.654 5.61,-13.002c3.176,-7.524 6.436,-15.046 9.35,-22.613c1.739,-4.523 2.739,-9.133 4.87,-13.568c1.087,-2.305 2.304,-4.567 3.435,-6.871c0,0.13 0,0.261 0,0.348c0.565,4.131 -0.565,8.349 -0.043,12.524c0.478,3.696 0.043,7.523 0.565,11.132c0.522,3.957 1.609,7.959 2.131,11.959c0.523,3.914 0.566,7.871 1.088,11.828c0.348,2.87 0.348,5.566 0.87,8.349c0.479,2.652 0.218,6.87 -1.739,9.088c-2.001,2.261 -3.653,4.61 -5.566,6.914c-1.695,1.958 -3.957,3.653 -5.783,5.523c-2.261,2.304 -4.131,4.958 -6.044,7.697c-3.74,5.262 -9.61,9.306 -13.785,14.437c-1.131,1.696 -2.522,3.175 -4.175,4.523c-1.131,0.827 -2.261,1.696 -3.392,2.566c-1.131,1.391 -1.131,2.87 -1.957,4.348c-1.305,2.218 -3.479,4.61 -5.088,6.697c-2.609,3.261 -4.827,6.696 -7.262,10.088c-1.739,2.435 -4.218,4.261 -6.131,6.653c-1.479,1.913 -2.784,3.435 -4.523,5.218c-3.087,3.174 -5.218,6.914 -8.305,10.001c-1.174,1.174 -2.782,1.957 -3.522,3.435z" /> <path d="M231.218,247.204c-1.87,4.739 -2.914,9.479 -5.088,14.219c-0.262,0.478 -0.522,0.956 -0.74,1.478c-1.217,-9.22 0.87,-19.308 1.653,-28.744c10.654,1.783 6.176,7.957 4.175,13.045z" /> <path d="M564.016,634.63c3.827,0.217 8.175,1.522 11.697,2.435c1.435,0.391 2.479,0.956 3.479,1.609c-1.696,-0.566 -3.306,-1.087 -5.045,-1.522c-3.479,-0.956 -6.567,-1.957 -10.132,-2.522z" /> <path d="M553.769,634.582c6.35,-1.305 8.002,-0.305 9.915,0c0.131,0 0.218,0.043 0.305,0.043c-0.261,0 -0.521,-0.043 -0.826,-0.043c-3.131,-0.043 -6.262,0 -9.393,0z" /> <path d="M661.046,793.973c0.347,2.913 0.565,5.826 1.043,8.74c0.783,4.697 1,9.871 0.565,14.698c-0.262,2.479 0.695,9.002 -1.653,10.828c-2.435,-3.565 -2.653,-8.393 -3.653,-12.393c-0.347,-1.348 -1.261,-2.348 -1.435,-3.783c-0.131,-1.522 -0.217,-2.827 -0.522,-4.305c-0.521,-2.957 -0.826,-5.783 -1.826,-8.653c-1.131,-3.218 -2.349,-7.001 -2.914,-10.306c-1.261,-6.958 -4.001,-13.611 -7.132,-20.003c-1.652,-3.392 -2.435,-7.089 -3.609,-10.654c-1.131,-3.479 -2.74,-6.697 -3.914,-10.176c-1.044,-3.087 -2.739,-5.914 -4.044,-8.958c-1.435,-3.392 -2.348,-7.175 -3.218,-10.784c-0.565,-2.434 -1,-5.044 -1.913,-7.392c-0.827,-2.174 -2.261,-3.956 -2.914,-6.174c-1.435,-4.697 -3.392,-9.524 -5.479,-14.003c-3.783,-8.175 -6.436,-16.742 -9.871,-25.047c-1.783,-4.391 -4.871,-7.74 -7.523,-11.61c-2.392,-3.478 -3.696,-8.088 -6.523,-11.262c-1.043,-1.174 -2.348,-1.739 -3.174,-3.044c-1,-1.566 -1.305,-3.653 -2.696,-5.001c-1.609,-1.522 -4.001,-2.783 -6.088,-3.914c-1.305,-0.696 -2.304,-1.435 -3.392,-2.131c0.565,0.174 1.088,0.348 1.653,0.522c2.523,0.826 5.175,0.869 7.654,1.739c7.393,2.609 15.263,4.696 22.395,7.74c3.218,1.348 6.827,3.306 9.741,5.045c2.479,1.478 3.696,3.565 5.479,5.566c2,2.217 3.479,4.392 4.827,7.175c1.304,2.697 2.218,5.218 3.174,8.045c0.957,2.87 1.914,5.131 2.392,8.175c0.651,4 3.435,7.088 4,11.219c0.653,4.652 2.262,8.957 3.262,13.523c0.478,2.175 1.261,4.653 1.566,6.871c0.218,1.782 -0.086,3.435 0.305,5.261c0.523,2.174 1.175,4.218 2.001,6.262c0.913,2.174 0.478,3.826 0.608,6.174c0.13,2.957 0.74,6.827 1.783,9.566c0.826,2.174 1,3.088 0.913,5.523c-0.174,3.436 1.304,6.479 2.392,9.61c1.478,4.305 2.653,9.044 3.479,13.523c0.913,5.001 0.913,10.131 2.044,15.089c0.652,2.957 1.827,5.653 2.218,8.697z" /> <path d="M22.807,675.531c-2.565,2.217 -4.74,4.522 -8.523,3.522c-0.435,-1.608 -0.087,-5.044 0.435,-6.653c0.478,-1.478 1.783,-2.913 2.696,-4.348c1.304,-2.087 3,-3.783 4.435,-5.696c1.609,-2.217 2.696,-4.74 3.957,-7.044c1.957,-3.74 4.74,-6.914 6.827,-10.263c2.827,-4.61 5.566,-10.003 8.48,-14.916c3.914,-6.696 8.958,-13.263 11.872,-20.264c1.478,-3.609 2.566,-7.436 4.74,-10.828c1.74,-2.74 3.784,-5.349 5.61,-8.045c4.305,-6.392 7.654,-12.48 9.698,-19.481c1.044,-3.522 3.087,-7 4.218,-10.479c0.26,-0.088 0.565,-0.132 0.913,-1.088c-0.478,5.479 -3.653,10.524 -5.436,15.742c-0.956,2.871 -3.348,5.697 -4.653,8.567c-1.391,3.13 -1.956,6.349 -3.087,9.436c-0.826,2.261 -1.304,4.827 -2.392,7.001c-1.305,2.478 -2.739,4.609 -3.044,7.305c-0.218,2.305 -1.218,3.914 -2.044,6.088c-0.913,2.435 -0.739,4.913 -1.609,7.305c-0.826,2.261 -2.131,4.392 -3.174,6.566c-1.262,2.565 -2.044,5.305 -3.697,7.74c-3.61,5.306 -8.61,10.481 -11.002,16.177c-2.435,5.61 -5.609,11.132 -8.653,16.568c-1.521,2.74 -4.087,4.957 -6.566,7.088z" /> <path d="M690.061,546.206c-0.956,2.696 -1.391,5.74 -2.957,8.262c-1.218,1.913 -2.826,3.74 -4.392,5.566c0.347,-0.957 0.739,-1.87 1,-2.783c1.434,-4.739 0.086,-9.392 -0.74,-13.871c-0.565,-3.349 0.391,-7.306 0.696,-10.741c8.218,9.393 7.132,11.524 6.392,13.568z" /> <path d="M680.556,562.676c0.652,-0.913 1.434,-1.782 2.174,-2.652c-2.566,7.305 -6.348,14.524 -9.175,21.786c-0.957,2.435 -2.131,4.783 -3.349,7.175c-1.304,2.565 -3.348,4.826 -4.696,7.392c-1.087,2.001 -1.304,4.045 -2.87,5.871c-2.087,2.479 -3.305,5.001 -5.218,7.61c-4.13,5.478 -9.218,13.436 -17.263,14.741c-1.74,0.262 -3.044,0.305 -4.74,0.653c-2.088,0.479 -4.175,-0.086 -6.306,0.305c-2.739,0.478 -4.478,0.783 -7.305,0.783c-2.914,0.043 -5.653,0.869 -8.567,0.956c-12.046,0.435 -24.134,0 -36.093,0c-15.001,0 -31.613,1.958 -45.354,-3c-1.652,-0.566 -2.653,-0.696 -4.566,-0.653c-2.001,0.044 -2.827,-0.305 -4.61,-0.696c-3.653,-0.825 -7.306,-0.869 -11.176,-1.043c-5.174,-0.261 -10.175,-1.783 -15.35,-1.957c-4.827,-0.131 -9.958,0.609 -14.698,0.087c-2.043,-0.216 -3.174,-0.956 -5.348,-0.956c-2.392,0 -3.958,-0.435 -6.306,-0.783c-4.088,-0.695 -8.915,-0.087 -13.133,-0.087c-5.219,0 -10.48,0 -15.698,0c-1.957,0 -4.393,-0.304 -6.349,-0.087c-1.956,0.217 -3.087,0.826 -4.913,1.348c-1.74,0.521 -3.305,0.173 -4.958,0.478c-0.522,0.087 -0.913,0.261 -1.348,0.435c-0.348,0.087 -0.651,0.218 -0.956,0.348c-0.479,0.175 -0.957,0.435 -1.522,0.653c-1.13,0.391 -2.348,0.695 -3.522,0.913c-1.651,0.695 -3.174,1.478 -4.913,2.304c-3.478,1.652 -6.87,2.653 -10.001,5.001c-2.348,1.696 -4.566,3.87 -7.088,5.305c-2.044,1.174 -2.914,1 -4.262,3.131c-0.913,1.436 -1.392,1.609 -2.87,2.479c-2.523,1.523 -4.175,4.175 -6.523,5.871c-2.479,1.782 -4.827,3.74 -7.349,5.479c-1.565,1.088 -2.783,2.001 -4.131,3.262c-0.956,0.913 -2.086,1.305 -3.174,2.001c-1.609,1.044 -3.174,2.218 -4.827,3.218c-4.045,2.522 -7.871,5.261 -11.959,7.74c-5.697,3.391 -10.394,8.306 -15.307,12.654c-2.436,2.131 -5.262,3.652 -7.697,5.696c-2.609,2.217 -4.565,5.044 -7.044,7.392c-4.87,4.567 -9.131,9.437 -13.393,14.568c-1.217,1.479 -2.434,3.087 -3.565,4.653c-1.479,2.044 -2.305,4.653 -4.262,6.262c-3.435,2.739 -6.218,6.001 -9.045,9.436c-1.914,2.348 -3.74,4.305 -5.871,6.392c-3.305,3.217 -5.74,7.174 -9.045,10.436c-7.349,7.218 -13.785,15.306 -21.134,22.568c-6.523,6.436 -13.002,12.958 -19.481,19.481c-5.871,5.826 -12.088,11.479 -17.481,17.785c-5.522,6.479 -11.828,12.176 -17.481,18.568c-2.305,2.609 -4.305,5.392 -6.349,8.219c-2.914,4.001 -6.611,7.349 -9.263,11.524c-2.87,4.435 -5.522,8.958 -9.001,12.915c-2.609,3.001 -5.131,5.958 -7.305,9.263c-3.696,5.697 -7.392,12.307 -12.132,17.09c-3.48,3.522 -5.827,7.566 -8.393,11.784c-2.087,3.479 -4.871,6.304 -7.132,9.653c-3.436,5.174 -6.784,11.045 -11.176,15.437c-1.783,1.826 -2.783,4.087 -4.566,6.131c-2.13,2.393 -4.087,5.088 -6.044,7.654c-3.218,4.131 -6.088,8.61 -9.741,12.393c-1.566,1.653 -3.131,3.349 -4.566,5.175c-1.174,1.565 -2.697,2.565 -4.088,4c-1.435,1.478 -2.479,3.044 -3.522,4.783c-1.175,-0.913 -1.566,-3.478 -2.001,-4.913c-0.522,-1.653 -0.87,-3.088 -1.653,-4.61c-0.522,-0.957 -1.043,-1.914 -1.478,-2.914c-0.739,-1.74 -0.478,-2.436 1.653,0.956c0,-0.217 0,-0.391 0,-0.565c0,-1.304 -0.26,-2.087 -0.565,-3.305c-0.739,-3.131 -0.174,-7.045 -0.174,-10.263v-91.927c0,-2.306 -0.348,-4.958 0.174,-7.219c0.653,-2.957 0.653,-5.871 1.653,-8.828c1,-2.783 0.739,-5.175 1.261,-7.958c0.565,-2.913 1.305,-5.696 2.131,-8.523c0.653,-2.304 1.174,-4.609 1.696,-6.957c0.348,-1.478 1.218,-2.261 1.696,-3.522c0.262,-0.609 0.044,-1.436 0.305,-2.044c0.305,-0.739 0.913,-1.304 1.261,-1.957c1.392,-2.912 1.958,-6.261 3.349,-9.218c1.217,-2.61 2.913,-4.957 4.044,-7.523c1.435,-3.306 3.523,-6.393 5.61,-9.35c0.696,-1 1.348,-1.348 2.174,-2.131c1.173,-1.131 1.956,-2.696 3.174,-3.87c1.783,-1.695 3.001,-3.782 5.045,-5.348c1.086,-0.782 1.391,-1.392 2.304,-2.348c0.739,-0.522 8.218,-6.653 17.959,-14.611c0.044,-0.044 0.131,-0.131 0.174,-0.174c1.086,-1.436 1.696,-1.696 3.087,-2.479c19.438,-15.872 45.398,-37.092 47.007,-38.005c4.043,-2.435 7.479,-5.305 11.262,-7.914c3.739,-2.565 7.958,-4.609 11.741,-7.175c3.784,-2.522 6.653,-4.74 10.828,-6.653c3.956,-1.827 7.653,-4.305 11.61,-6.262c5.826,-2.826 11.132,-6.348 16.915,-9.218c4.609,-2.261 8.784,-4.827 13.176,-7.436c5.174,-3.13 10.522,-5.087 15.915,-7.87c8.696,-4.479 17.133,-9.74 26.221,-13.48c7.132,-2.913 13.958,-6.436 20.655,-10.045c4.48,-2.391 9.48,-3.479 14.003,-5.783c2.13,-1.131 4.261,-2.304 6.392,-3.435c2.349,-1.305 5.132,-2.044 7.219,-3.697c1.087,-0.87 2.13,-2.522 3.435,-3.305c1.61,-1 4.175,-1.26 5.958,-1.913c5.045,-1.826 9.915,-4.305 14.481,-6.957c5.175,-3.044 10.872,-5.305 16.133,-8.305c4.478,-2.565 8.566,-6.131 13.306,-7.87c2.261,-0.826 4.479,-1.043 6.74,-1.826c2.783,-0.956 3.653,-1.304 6.697,-1.261c6.175,0.044 12.697,0.653 18.568,2.001c5.958,1.392 11.785,2.87 17.568,4.566c6.522,1.913 12.74,4.826 19.089,7.044c5.435,1.958 10.784,3.654 16.437,5.045c2.783,0.653 5.349,1.479 8.219,2.001c3.436,0.651 7.131,0.869 10.393,1.739c2.435,0.653 4.479,1.914 7.001,2.479c2.653,0.566 5.219,0.609 7.958,0.696c6.349,0.261 12.22,1.087 18.351,2.087c3.652,0.609 7.044,0.565 10.784,0.522c6.392,-0.044 12.48,0.826 18.829,0.956c9.262,0.262 18.611,-0.043 27.917,-0.043c5.61,0 11.48,0.521 17.09,-0.435c3.739,-0.609 6.522,-1.87 10.001,-3.305c2.131,-0.827 4.218,-0.782 6.262,-1.87c4.435,-2.435 7.827,-6.088 11.654,-9.175c4.567,-3.652 8.567,-7.783 12.307,-12.045c1.435,-1.651 3.087,-3.174 4.392,-4.913c1.87,-2.436 2.914,-5.001 4.827,-7.349c1.783,-2.217 2.522,-4.913 4.175,-7.305z" /></svg>