<svg xmlns="http://www.w3.org/2000/svg" viewBox="0 0 1022 960" width="1022" height="960"><path d="M162.66,25.75c0.456,2.311 4.584,6.65 5.91,8.771c8.67,13.836 17.432,26.593 27.236,39.747c13.154,17.582 22.808,37.626 35.415,55.65c5.858,8.475 12.457,16.208 19.207,23.936c6.405,7.29 11.234,15.221 16.454,23.349c-1.969,0.636 -3.45,0.588 -5.421,1.675c-2.706,1.521 -3.745,4.775 -6.354,6.154c-2.07,1.136 -4.874,1.035 -7.29,2.219c-2.368,1.083 -4.679,2.802 -6.795,3.745c-1.478,-2.07 -2.171,-4.484 -3.45,-6.605c-3.399,-5.762 -7.83,-10.636 -11.13,-16.544c-3.644,-6.45 -7.733,-11.724 -12.808,-17.141c-4.433,-4.724 -7.141,-9.603 -11.083,-14.623c-3.15,-4.093 -7.141,-7.242 -10.636,-10.938c-4.829,-5.02 -8.816,-10.787 -13.695,-15.757c-4.679,-4.88 -9.899,-9.213 -14.132,-14.434c-3.89,-4.724 -6.554,-10.145 -11.13,-14.282c-5.025,-4.578 -11.183,-9.011 -11.725,-16.003c-0.51,-5.863 0.206,-9.408 -1.921,-15.024c-1.622,-4.383 -3.644,-8.029 0.246,-11.625c2.46,-2.311 6.6,-3.745 9.408,-5.963c6.058,-4.874 11.97,-4.53 13.69,-6.304z" /> <path d="M49.775,134.744c0.886,4.829 12.317,11.183 15.024,13.25c9.854,7.488 20.295,14.037 29.898,21.77c9.559,7.632 18.27,16.152 27.386,24.232c9.453,8.37 18.865,17.04 29.452,23.981c4.233,2.758 9.21,4.93 12.903,8.376c2.561,2.363 3.15,5.415 5.22,7.727c-6.6,-1.965 -16.744,15.81 -19.257,19.162c-2.758,3.692 -6.795,5.812 -9.403,9.558c-1.824,2.61 -1.478,5.266 -5.175,3.938c-1.083,-0.461 -2.412,-3.004 -2.951,-3.692c-4.137,-5.175 -9.313,-9.163 -14.333,-13.399c-17.19,-14.483 -34.478,-27.928 -52.997,-40.63c-9.995,-6.896 -19.553,-14.483 -29.799,-20.887c-6.89,-4.332 -14.623,-9.699 -15.165,-18.324c-0.408,-6.058 0.408,-11.916 2.359,-17.627c0.886,-2.61 2.469,-6.108 5.175,-7.488c2.557,-0.408 5.17,-0.408 7.778,0.04c4.433,0 8.424,-1.381 13.89,-10z" /> <path d="M686.144,2.388c8.469,11.769 -3.743,9.653 1.824,1.719c3.45,-4.872 9.603,-4.328 14.773,-3.692c10.392,1.233 17.586,5.762 25.416,12.071c1.771,1.425 7.142,3.249 8.024,5.415c-0.786,2.516 -3.939,4.086 -5.316,5.91c-0.781,1.039 -1.621,2.859 -2.311,4.043c-2.313,4.287 -3.843,9.062 -5.321,13.69c-3.199,10.151 -7.387,17.633 -13.741,26.153c-15.957,21.328 -28.911,46.298 -41.027,70.088c-4.332,8.424 -8.321,16.995 -11.82,25.811c-1.18,2.954 -1.131,5.12 -2.07,7.878c-7.978,-4.383 -13.199,-18.123 -22.06,-19.452c-3.3,-0.483 -6.952,0.57 -10.346,0.162c-3.449,-7.192 4.335,-19.158 6.896,-25.366c6.842,-16.649 14.579,-32.807 21.57,-49.401c8.914,-21.178 19.206,-41.865 27.63,-63.193c1.184,-3.054 3.596,-12.853 7.437,-13.59l0.461,1.772z" /> <path d="M900.26,148.376c-3.832,1.431 -4.533,-1.176 -3.547,-3.298c12.02,10.887 25.114,22.017 35.46,34.527c2.666,3.255 3.946,6.409 3.205,10.642c-0.888,5.168 -4.579,6.304 -9.408,8.571c-9.9,4.678 -20.241,8.319 -29.794,13.785c-9.95,5.663 -17.436,13.451 -26.057,20.983c-10.787,9.457 -22.211,17.931 -34.282,25.761c-6.991,4.533 -14.281,8.523 -22.111,11.474c-6.208,2.367 -12.858,4.137 -18.57,7.587c-3.741,2.271 -5.466,4.003 -9.704,4.288c-3.345,0.244 -6.155,0.397 -8.861,-1.23c-6.896,-4.137 -7.638,-17.58 -16.158,-20.19c-3.449,-1.039 -5.712,1.622 -6.304,-2.811c-0.737,-5.02 6.261,-8.57 9.559,-11.078c27.628,-21.327 57.868,-39.256 83.578,-62.896c12.021,-11.083 23.149,-25.56 38.715,-31.328c3.3,-1.227 10.686,-5.612 14.282,-4.774z" /> <path d="M653.115,784.778c-0.329,4.874 1.329,6.549 3.797,10.887c9.062,15.707 18.219,31.323 27.431,46.934c10.246,17.437 19.358,35.365 29.207,52.997c2.368,4.287 5.17,8.229 8.275,11.97c1.285,1.631 8.275,7.934 7.141,11.379c-2.416,0 -4.287,0.636 -6.504,1.03c-5.812,1.136 -11.329,1.333 -16.595,4.775c-3.499,2.315 -12.903,13.892 -17.929,12.116c-3.052,-1.083 -0.785,-2.017 -1.574,-3.99c-2.022,-4.829 -4.484,-9.649 -6.701,-14.578c-8.52,-19.006 -16.744,-37.285 -26.79,-55.605c-6.45,-11.77 -14.383,-22.166 -21.423,-33.489c-1.969,-3.105 -3.298,-6.259 -4.78,-9.559c-1.425,-3.249 -4.137,-6.103 -4.829,-9.603c-0.838,-4.383 1.23,-5.857 4.093,-8.37c10.636,-9.307 19.207,-16.744 27.185,-16.891z" /> <path d="M263.876,765.324c-2.416,0.329 -4.679,1.627 -6.6,2.96c-5.567,3.789 -11.429,8.174 -16.209,12.753c-12.015,11.524 -22.165,24.923 -33.148,37.335c-11.324,12.853 -23.344,24.819 -33.243,38.81c-8.67,12.212 -16.108,25.315 -25.907,36.744c-5.812,6.795 -13.445,12.015 -18.27,19.547c-3.205,4.93 -6.896,9.609 -8.67,15.221c-0.986,3.298 -4.338,12.212 -7.979,6.208c0.162,-1.921 0.246,-3.89 0.368,-5.812c0.206,-2.513 -0.246,-4.88 -1.377,-7.091c-2.61,-8.621 -6.549,-15.963 -8.52,-24.974c-1.53,-6.946 -3.004,-12.858 -7.632,-18.515c-3.692,-4.484 -8.52,-7.784 -12.266,-12.167c-5.07,-5.91 2.61,-7.883 7.387,-11.574c4.88,-3.745 10.542,-6.208 15.566,-9.75c11.033,-7.784 20.983,-16.995 31.965,-24.87c9.553,-6.851 19.703,-12.463 29.497,-18.817c8.571,-5.516 13.349,-10.887 19.654,-18.57c11.324,-13.741 27.727,-21.77 38.464,-36.052c7.928,-10.536 14.97,-21.965 25.71,-30.039c3.89,-2.96 7.096,-6.455 10.887,-9.508c2.513,-1.973 5.025,-2.368 7.638,-3.942c4.679,-2.855 8.766,-11.078 14.578,-11.428c4.774,-0.285 4.829,3.797 7.482,7.29c6.405,8.376 21.474,10.838 30.39,15.667c-14.232,5.02 -26.147,18.319 -35.852,29.056c-6.008,7.242 -12.457,14.138 -19.352,20.636c-4.53,3.99 -9.408,7.587 -14.483,10.887c-4.628,4.288 -3.745,7.688 9.95,-9.995z" /> <path d="M115.971,646.577c0.456,2.513 3.35,4.137 4.78,6.153c1.719,2.416 7.186,8.571 7.141,11.429c0,0.986 -2.565,4.975 -3.056,5.717c-3.15,4.874 -8.766,8.129 -13.199,11.67c-8.029,6.549 -15.907,11.574 -25.411,15.757c-7.979,3.499 -14.434,5.472 -21.082,10.838c-5.863,4.775 -12.266,9.257 -17.878,14.378c-3.254,2.907 -5.812,7.928 -10.787,7.587c-3.45,-5.567 -3.004,-13.546 -5.071,-19.799c-1.622,-5.025 -8.074,-17.782 -5.125,-23.199c1.184,-2.219 2.855,-2.219 4.924,-3.45c17.979,-10.536 35.214,-23.294 52.06,-35.511c6.896,-5.02 12.807,-8.37 21.133,-9.453c7.778,-0.986 8.715,0.206 11.569,7.883z" /> <path d="M830.226,440.31c-0.986,0.592 -2.263,1.083 -3.205,1.627c2.46,-3.1 8.621,-1.579 12.02,-1.53c18.028,0 36.498,-1.083 54.522,-2.263c24.232,-1.631 48.022,-7.733 72.204,-9.558c13.05,-0.934 23.394,-4.829 35.415,-9.804c4.034,-1.719 13.25,-6.399 18.073,-3.894c2.714,1.381 1.877,4.88 1.631,7.883c-0.986,11.97 -7.784,22.903 -8.029,35.019c-0.162,6.103 4.043,11.619 3.99,17.286c-6.208,1.824 -14.383,0.04 -20.786,0.592c-9.899,0.789 -18.866,3.745 -28.816,3.495c-15.27,-0.461 -30.09,-6.645 -45.509,-5.712c-7.387,0.461 -14.187,3.99 -21.379,5.421c-7.482,1.474 -15.215,1.82 -22.802,2.802c-8.861,1.23 -16.89,1.43 -25.857,1.43c-3.99,0.04 -8.816,0.934 -12.708,-0.162c-2.07,-0.539 -3.15,-2.07 -4.874,-2.855c-3.596,-1.579 -5.025,-0.592 -7.587,-3.99c-1.728,-2.315 -4.288,-6.749 -4.087,-9.609c0.368,-3.64 3.048,-7.141 3.692,-10.887c0.636,-3.74 -0.886,-11.719 4.087,-15.315z" /> <path d="M742.548,218.406c-2.663,4.926 -7.245,-0.636 -9.855,-3.89c-1.474,-1.868 -2.215,-3.937 -3.64,-5.858c-1.429,-1.774 -3.797,-2.857 -4.924,-4.879c-2.072,-3.591 0.689,-8.468 2.311,-12.261c2.07,-4.729 6.008,-7.34 9.262,-11.278c4.333,-5.226 9.604,-5.917 14.528,-10.396c7.533,-6.845 17.136,-9.307 25.07,-15.611c6.504,-5.175 10.887,-11.825 16.403,-17.782c3.987,-4.382 10.983,-3.746 13.54,-9.262c7.192,1.136 9.408,5.911 14.237,10.59c3.397,3.351 4.774,4.188 6.695,8.47c3.446,7.637 8.962,13.25 14.132,19.999c7.291,9.555 13.992,19.308 21.429,28.716c6.45,8.074 10.536,17.677 16.84,25.656c6.704,8.52 11.277,16.353 14.237,26.844c3.003,10.737 10.539,19.057 15.069,29.207c6.8,15.215 17.291,28.615 23.248,44.276c3.992,10.491 8.329,20.687 10.346,31.669c1.135,6.249 3.994,12.062 5.125,18.27c0.903,4.774 0.231,9.749 0.741,14.578c1.312,13.05 1.474,25.611 1.474,38.76c0.053,6.7 0.246,12.803 -1.131,19.358c-1.179,5.907 -2.363,11.373 -2.951,17.381c-1.282,11.972 -4.04,23.942 -5.812,35.807c-0.838,5.567 -3.004,10.787 -3.596,16.454c-0.662,5.857 0.484,11.724 -0.206,17.582c-0.736,6.895 -4.385,12.753 -5.415,19.553c-0.692,4.434 -0.052,8.425 -2.166,12.658c-1.337,2.663 -2.96,4.872 -4.043,7.683c-0.785,1.972 -1.039,3.792 -2.416,5.612c-3.936,-2.654 -9.062,-1.732 -13.986,-1.772c-4.628,-0.053 -6.845,-0.197 -11.228,-2.368c-5.025,-2.508 -7.287,-2.508 -12.217,-3.394c-9.6,-1.825 -19.056,-6.26 -28.71,-7.979c-6.058,-1.034 -12.657,-0.789 -18.665,-1.973c-1.759,-5.415 -0.285,-13.886 -0.285,-19.553c0,-3.099 -0.824,-7.532 -0.083,-10.536c0.832,-3.596 2.167,-2.895 5.807,-2.855c3.646,0.123 7.638,0.531 11.278,0.123c4.533,-0.443 9.759,-1.425 14.187,-2.46c1.729,-0.391 5.964,-1.083 7.341,-1.921c4.622,-2.809 2.351,-12.466 2.311,-16.996c0,-6.994 2.056,-12.409 1.973,-19.11c-0.054,-4.187 -0.234,-8.375 0.456,-12.557c0.812,-5.121 2.561,-10.246 1.18,-15.466c-2.017,-7.342 -3.758,-13.053 -3.596,-20.837c0.079,-5.17 0.447,-10.587 0.162,-15.712c-0.399,-6.058 -2.082,-11.619 -2.122,-17.677c-0.044,-5.666 -0.145,-10.396 -1.377,-15.957c-6.942,-31.673 -17.777,-61.568 -27.972,-92.008c-1.083,-3.197 -2.022,-6.25 -3.596,-9.21c-1.034,-1.964 -2.705,-3.446 -3.644,-5.516c-0.474,-1.083 -0.097,-2.556 -0.636,-3.591c-1.921,-3.942 -5.42,-6.797 -7.192,-10.787c-1.027,-2.366 -1.377,-4.979 -2.557,-7.29c-2.462,-4.825 -6.544,-8.326 -8.912,-13.25c-1.576,-3.249 -2.905,-5.221 -5.321,-8.023c-2.407,-2.714 -5.02,-5.421 -6.695,-8.526c-1.473,-2.752 -2.065,-4.531 -4.433,-7.141c-6.449,-7.09 -9.749,-15.906 -16.002,-23.098c-2.859,-3.247 -6.896,-10.39 -12.412,-7.29c-2.216,1.233 -4.237,4.829 -6.259,6.504c-4.332,3.596 -8.08,6.95 -11.724,11.183c-2.362,2.76 -4.429,5.86 -7.683,7.29c-1.92,0.882 -3.788,0.737 -5.858,1.868z" /> <path d="M684.22,154.232c-1.526,10.387 -2.227,8.075 -2.267,6.154c-5.12,-1.69 -14.477,4.286 -15.416,-1.18c-0.54,-3.204 2.714,-9.803 3.552,-12.807c1.379,-5.026 4.38,-8.817 6.45,-13.546c2.217,-5.02 2.656,-10.441 4.287,-15.661c0.692,-2.216 2.804,-5.318 1.574,-7.883c-0.787,-1.675 -3.252,-2.609 -4.975,-3.692c-2.217,-1.381 -4.087,-2.907 -6.499,-4.183c-7.487,-3.891 -14.087,-9.356 -21.524,-13.399c-3.2,-1.728 -6.354,-2.166 -9.704,-3.596c-5.612,-2.462 -10.632,-6.108 -16.298,-8.52c-5.908,-2.558 -12.212,-4.925 -17.974,-7.784c-4.679,-2.359 -8.226,-4.63 -13.596,-5.266c-2.906,-0.421 -5.909,0 -8.816,-0.461c-7.437,-1.083 -14.724,-4.583 -21.519,-7.587c-6.8,-3.053 -13.549,-1.031 -20.786,-2.114c-8.078,-1.284 -15.712,-4.191 -23.891,-5.125c-6.696,-0.838 -13.149,-0.693 -19.799,-1.877c-7.288,-1.278 -15.266,-2.179 -22.653,-2.508c-11.524,-0.495 -22.803,1.759 -34.332,1.921c-4.087,0.044 -8.125,0.044 -11.865,1.965c-2.172,1.082 -4.188,3.002 -6.6,3.692c-6.55,1.875 -13.987,-0.785 -20.737,0.645c-4.874,0.987 -9.402,3.346 -14.282,4.53c-6.453,1.574 -13.053,2.367 -19.503,3.841c-6.555,1.474 -12.021,5.021 -18.42,6.946c-7.045,2.065 -13.89,2.612 -20.591,5.762c-9.699,4.529 -20.786,5.858 -30.536,9.995c-6.895,2.904 -12.998,8.177 -19.894,11.374c-5.471,2.513 -10.15,4.042 -14.874,7.883c-3.946,3.152 -8.374,3.792 -12.316,6.8c-4.036,3.048 -6.549,7.588 -10.982,10.39c-3.35,2.121 -10.82,3.596 -10.491,8.721c0.048,1.02 1.215,0.885 1.377,1.53c0.338,1.771 0.284,3.841 0.794,5.516c1.083,3.788 4.032,6.347 5.562,9.75c1.636,3.746 4.053,12.066 -0.285,15.315c-2.609,1.96 -8.322,-0.044 -11.62,1.631c-2.852,1.478 -3.891,2.955 -4.137,6.253c-2.857,-0.837 -5.271,-5.368 -7.341,-7.587c-2.657,-2.853 -4.779,-5.761 -7.046,-8.861c-4.482,-6.163 -9.012,-12.266 -13.64,-18.324c-1.431,-1.876 -2.76,-4.336 -4.729,-5.717c-3.396,-2.362 -6.746,-1.479 -5.812,-7.091c0.984,-5.912 6.255,-9.559 10.542,-12.808c5.711,-4.283 12.607,-9.408 17.777,-14.383c7.096,-6.75 16.208,-12.362 22.512,-19.994c3.099,-3.796 5.666,-8.666 9.899,-12.116c5.662,-4.529 12.558,-8.869 19.598,-10.246c4.93,-0.988 8.867,-2.268 13.199,-4.829c5.618,-3.301 10.838,-4.086 16.896,-6.208c8.566,-2.954 15.853,-5.857 24.819,-7.387c13.792,-2.412 25.019,-5.762 36.202,-14.232c4.679,-3.551 10.441,-5.026 15.617,-7.688c2.118,-1.127 3.938,-2.999 6.008,-4.034c3.941,-1.986 7.246,-1.618 11.479,-1.824c9.307,-0.39 18.028,-2.385 27.431,-2.017c10.195,0.342 19.999,2.057 30.29,2.017c8.571,0 17.19,0.162 25.761,0c9.208,-0.15 14.775,2.217 23.445,4.975c5.954,1.92 12.062,2.429 18.27,2.758c8.867,0.392 15.12,2.514 23.344,5.562c6.797,2.565 13.741,1.92 20.687,3.692c6.746,1.728 12.657,2.307 19.553,2.469c7.487,0.146 14.678,4.382 21.87,6.399c16.594,4.628 34.577,10.491 49.742,18.665c5.568,2.959 10.597,2.959 16.158,6.555c5.571,3.546 11.871,4.773 17.241,8.32c4.974,3.254 8.966,7.143 14.482,9.704c2.903,1.328 6.207,1.976 9.062,3.45c1.922,1.029 5.606,2.759 5.812,5.316c0.049,1.188 -1.64,1.627 -1.723,2.368c-0.171,0.692 -0.21,2.858 -0.456,3.45c-0.882,2.558 -1.03,5.221 -1.868,7.778c-1.578,4.73 -4.288,8.817 -5.91,13.546c-2.166,6.303 -3.451,12.957 -5.762,19.11c-2.217,5.858 -3.893,12.066 -6.45,17.683c-1.087,2.462 -2.889,5.022 -3.35,8.074z" /> <path d="M119.863,163.955c-2.215,0 -3.596,-1.18 -3.64,-3.205c3.048,3.797 7.237,7.192 10.887,10.542c2.61,2.412 5.661,3.885 8.32,6.153c2.855,2.46 4.975,5.812 7.928,8.129c3.399,2.662 5.076,4.679 3.841,9.603c-0.368,1.381 -1.574,1.728 -1.868,3.004c-0.51,2.267 0.285,4.092 -1.53,5.962c-4.775,-2.758 -12.266,-10.982 -17.828,-10.832c0.04,3.495 -2.714,6.795 -4.634,9.553c-3.048,4.383 -4.969,9.313 -8.67,13.199c-3.394,3.552 -6.549,6.258 -8.861,10.542c-1.675,3.1 -3.841,6.304 -5.466,9.358c-1.675,3.15 -2.171,6.504 -3.697,9.804c-2.263,4.874 -6.208,8.52 -7.928,13.741c-1.772,5.266 -3.052,9.798 -5.271,14.874c-2.46,5.466 -5.666,11.028 -7.878,16.544c-0.838,2.022 -1.285,4.188 -1.776,6.309c-1.127,4.578 -3.346,6.795 -5.561,10.686c-3.45,6.103 -2.46,13.791 -5.176,20.14c-0.737,1.776 -2.508,3.596 -3.1,5.471c-0.986,3.495 -0.785,7.632 -1.329,11.228c-0.939,6.304 -2.758,12.708 -3.004,19.11c-0.162,4.188 0.083,7.979 -0.838,12.116c-0.838,3.99 -2.714,7.587 -3.052,11.67c-0.408,4.634 0.539,9.21 -0.368,13.791c-1.083,5.321 -1.574,9.75 -1.53,15.371c0.04,7.482 -1.574,14.132 -2.07,21.468c-0.408,6.8 -0.04,12.808 -1.377,19.407c-2.464,12.02 -0.461,26.745 -0.461,38.96c0,14.483 0.206,28.52 1.671,42.903c0.548,4.969 0.408,9.403 2.122,14.186c1.184,3.346 2.758,6.253 3.596,9.699c1.824,7.341 2.807,12.412 6.108,19.161c3.394,7.046 7.532,13.741 9.849,21.178c2.807,8.912 6.6,17.678 9.75,26.494c2.807,7.883 7.934,15.024 11.82,22.412c2.368,4.578 3.797,9.307 6.108,13.836c2.662,5.316 4.975,9.262 5.415,15.12c0.368,4.729 1.631,11.916 6.8,13.645c6.991,2.263 10.542,-1.23 14.482,-5.812c1.53,-1.824 7.141,-7.883 9.21,-7.83c4.043,0.04 2.61,5.025 2.61,8.224c-0.04,9.262 0.04,13.941 6.354,20.541c1.574,1.627 4.584,3.205 3.1,5.812c-0.737,1.285 -3.298,1.53 -4.53,2.215c-4.137,2.508 -6.94,6.549 -10.832,9.508c-5.22,4.034 -9.75,8.912 -15.512,12.116c-4.729,2.61 -10.59,5.17 -14.629,8.616c-6.399,5.466 -7.979,14.925 -18.124,12.457c-0.246,-3.793 -1.969,-5.265 -4.634,-7.878c-3.543,-3.552 -5.562,-7.096 -8.52,-11.083c-6.991,-9.21 -14.232,-18.47 -20.29,-28.469c-2.215,-3.64 -4.338,-7.237 -6.208,-10.982c-2.368,-4.829 -7.141,-9.899 -7.637,-15.416c-0.368,-3.499 0.329,-6.058 -0.636,-9.654c-1.579,-5.812 -2.61,-11.183 -3.004,-17.136c-0.285,-4.78 -2.07,-9.21 -2.907,-13.991c-1.083,-5.612 -1.377,-11.62 -3.35,-16.99c-2.017,-5.667 -4.724,-10.938 -6.504,-16.795c-2.114,-7.141 -2.706,-14.237 -4.724,-21.328c-6.896,-24.528 -7.83,-49.451 -7.83,-74.716c0,-9.95 0.838,-20.145 -0.986,-29.899c-2.122,-11.574 -0.934,-23.936 -0.934,-35.711c0,-13.199 0.246,-25.806 1.921,-38.91c0.838,-6.504 1.381,-12.998 2.166,-19.452c0.886,-7.29 3.499,-13.842 5.125,-20.932c3.004,-12.562 8.52,-24.432 10.737,-37.186c1.23,-7.096 4.287,-11.97 7.336,-18.374c2.807,-5.91 4.93,-12.161 7.733,-18.073c5.717,-11.97 13.103,-23.199 18.569,-35.214c2.311,-4.975 3.648,-10.1 5.22,-15.371c1.631,-5.561 5.025,-10.686 7.342,-16.053c4.478,-10.195 8.966,-21.03 15.566,-30.09c5.963,-8.128 9.553,-17.336 14.629,-25.907c3.298,-5.567 5.957,-9.358 10.686,-13.546c2.263,-1.965 4.679,-4.679 7.778,-5.466c5.125,-1.285 3.745,2.706 3.89,7.437z" /> <path d="M690.055,804.23c-1.824,-0.246 -2.416,-1.425 -1.969,-3.249c0.162,3.1 -0.083,4.729 1.083,7.482c2.215,5.271 6.108,11.625 9.062,16.65c6.851,11.719 14.037,23.344 20.095,35.556c3.596,7.29 5.667,15.075 8.966,22.261c0.986,2.215 2.513,4.78 3.648,7.045c1.18,2.368 3.841,4.433 3.692,7.387c-3.99,1.039 -7.638,-0.04 -11.625,1.43c-6.253,2.219 -11.77,5.762 -17.828,8.179c-5.91,2.412 -11.725,1.772 -17.19,5.22c-5.567,3.543 -11.67,5.957 -17.437,9.358c-10.34,6.058 -21.423,9.062 -32.606,13.05c-6.499,2.368 -11.474,4.087 -18.42,3.938c-4.724,-0.162 -7.387,-0.408 -11.374,1.877c-2.46,1.377 -3.15,2.657 -6.008,3.495c-3.596,1.083 -6.108,0.206 -9.459,2.267c-1.921,1.23 -2.263,2.907 -4.628,3.692c-5.962,1.973 -13.445,1.973 -19.65,3.249c-13.992,2.96 -29.357,0.162 -43.59,0.886c-12.407,0.636 -24.87,2.907 -36.989,3.89c-6.749,0.588 -12.753,2.07 -19.65,2.017c-8.32,-0.04 -16.649,0 -24.974,0c-4.578,0 -9.107,-0.04 -13.64,0.083c-9.508,0.246 -16.403,-5.712 -25.465,-6.103c-14.483,-0.69 -27.337,-9.358 -41.473,-12.954c-8.275,-2.122 -14.779,-6.159 -22.802,-9.262c-8.867,-3.45 -18.174,-4.975 -26.94,-8.721c-6.455,-2.758 -11.379,-5.858 -18.374,-7.29c-9.307,-1.82 -16.945,-7.727 -25.169,-12.161c-10.345,-5.612 -20.295,-11.574 -30.586,-17.292c-2.855,-1.574 -6.504,-2.907 -8.966,-5.17c-1.425,-1.285 -2.017,-3.105 -3.298,-4.383c-4.288,-4.233 -11.278,-5.22 -15.024,-10.291c-5.119,-6.997 -10.536,-10.447 -18.219,-14.925c-6.845,-3.99 -12.021,-10.39 -19.062,-13.836c-2.017,-0.986 -3.793,-0.794 -5.957,-2.022c-3.254,-1.82 -6.45,-4.53 -9.21,-6.94c-4.137,-3.644 -7.587,-8.37 -11.87,-11.775c-5.466,-4.332 -13.154,-5.316 -13.791,-13.645c-0.368,-4.578 2.368,-6.058 4.729,-9.603c1.377,-2.166 1.772,-4.332 3.45,-6.45c2.557,-3.298 7.186,-6.058 10.24,-9.062c4.484,-4.383 6.405,-10.246 11.625,-13.645c3.495,-2.263 7.733,-5.858 11.916,-6.8c3.254,-0.737 8.67,-0.789 11.724,0.69c2.855,1.43 11.278,9.408 10.491,12.463c-5.025,1.035 -3.894,0.368 -7.587,3.793c-2.61,2.368 -6.208,2.859 -8.867,5.22c-1.719,1.53 -2.855,3.35 -4.874,4.584c-0.886,0.592 -2.561,0.04 -3.45,0.785c-0.934,0.794 -1.377,1.877 -2.07,2.714c-0.206,0.737 -0.408,1.474 -0.64,2.215c-0.882,0.408 -1.671,0.934 -2.359,1.574c-1.333,2.46 -1.579,5.717 -1.184,8.67c0.539,4.53 3.35,5.421 6.304,9.559c6.108,8.47 12.807,16.053 19.849,23.49c6.008,6.354 14.087,10.1 20.636,15.512c8.179,6.701 16.995,12.412 25.219,19.012c5.125,4.137 9.95,5.762 16.008,8.128c5.858,2.311 10.737,6.154 16.649,8.475c13.936,5.415 27.386,11.719 41.317,16.99c6.208,2.311 10.938,3.644 17.387,3.793c6.549,0.162 12.066,3.846 18.57,4.043c7.045,0.246 13.741,1.377 20.732,1.921c6.851,0.544 13.205,3.004 20.05,3.692c5.91,0.592 11.323,1.333 17.19,2.662c6.45,1.43 12.457,0.69 18.811,1.772c7.141,1.23 13.741,4.137 20.732,5.316c8.275,1.333 17.588,2.811 26.057,2.171c3.302,-0.246 6.405,-1.131 9.704,-1.579c4.383,-0.636 9.157,0.408 13.445,-0.539c6.845,-1.474 12.998,-7.29 19.748,-9.804c7.392,-2.706 15.616,-4.874 23.199,-7.141c3.249,-0.986 6.6,-1.083 9.899,-2.219c5.466,-1.921 9.508,-5.712 14.43,-8.565c7.883,-4.53 16.595,-4.78 24.478,-9.017c5.421,-2.907 9.95,-7.437 15.512,-9.995c3.797,-1.772 7.933,-1.969 11.724,-3.644c2.61,-1.18 4.924,-3.004 7.533,-4.182c8.867,-3.841 18.47,-0.539 27.191,-5.667c6.108,-3.644 11.725,-4.087 18.27,-6.208c1.973,-0.69 3.841,-2.311 5.762,-3.105c3.45,-1.381 7.83,-0.982 11.13,-2.363c2.215,-0.986 4.433,-2.662 6.013,-4.829c3.249,-4.484 1.23,-5.321 -2.368,-9.21c-4.775,-5.176 -8.425,-10.296 -11.374,-16.7c-2.122,-4.729 -6.504,-10.441 -7.29,-15.566c-0.69,-4.183 1.373,-4.874 5.466,-5.812c5.516,-1.276 11.915,-0.456 15.566,3.45z" /></svg>