<svg xmlns="http://www.w3.org/2000/svg" width="250" height="250" viewBox="0 0 2500 2500"><path d="M440 2326v-174l53 20c32 13 87 22 145 26l92 5v297H440Zm440 24v-150h740v300H880Zm890 1v-148l93-5c57-4 112-13 145-26l52-20v348h-290zM597 2050c-119-21-234-115-278-228-19-47-23-82-27-204l-4-148h522v440h880v-440h522l-4 148c-4 123-8 157-28 207-32 82-122 173-205 206l-60 24-635 2c-349 0-657-3-683-7"/><path d="m948 1423-3-338-27-57c-14-31-45-77-68-102-39-42-145-106-177-106-9 0-13-13-13-40v-40H290V590H0V0h150v440h140V0h150v151l73-3 72-3 3-73 3-72h139v290H440v300h331l14-34c8-19 18-68 21-108 11-131 72-225 178-274 49-23 61-24 268-24h216l63 33c107 55 149 128 167 294 6 51 13 97 17 103s72 10 176 10h169V290h-290V0h139l3 72 3 73 73 3 72 3V0h150v440h140V0h150v590h-290v150h-370v40c0 27-4 40-13 40-32 0-138 64-177 106-23 25-54 71-68 102l-27 57-3 338-3 337h-229v-290h-140v290H951Z"/><path d="M751 1204c-54-46-82-102-89-177l-5-59 31 16c49 25 100 92 111 148 13 59 14 108 3 108-5 0-27-16-51-36m939 6c0-95 51-189 122-226l31-16-6 61c-6 73-40 136-96 180-21 17-42 31-45 31s-6-13-6-30"/></svg>