<svg xmlns="http://www.w3.org/2000/svg" viewBox="0 0 891 896" width="891" height="896"><path d="M400.204,-0.018h0.055c1.061,0.134 2.135,0.209 3.238,0.328l2.8,0.164c1.317,0.028 2.645,0.028 4.007,0c-3.041,0.362 -9.15,0.989 -1.594,2.472c12.514,0.156 2.854,0.878 9.772,2.636c12.39,0.778 2.346,-2.492 20.534,0.109c1.961,0.198 0.196,-0.829 -1.758,-1.428c4.197,0.631 8.156,1.023 11.036,1.206c6.117,0.08 12.097,-0.052 19.93,0.823c-5.315,-0.482 -9.339,-1.005 -2.143,-1.648c-3.12,1.204 9.872,1.316 14.548,2.199l1.261,-0.768c3.756,0.881 -0.212,1.161 -3.293,1.372c0.084,-0.287 -1.015,-0.521 -3.293,-0.493c-5.998,0.519 -3.836,3.402 5.6,3.842c10.152,-0.597 8.514,-2.549 6.752,-3.348c1.283,0.089 2.402,0.164 3.403,0.164c1.154,0 2.168,-0.055 3.129,-0.055c1.556,0.24 2.136,0.246 3.019,0.274c0.763,0.028 1.577,0.028 2.255,0c1.404,-0.061 2.59,-0.158 3.952,-0.219c2.68,-0.082 5.7,0.073 10.817,1.594c2.921,0.517 11.996,5.386 21.195,7.468c5.074,-0.759 -11.306,-3.501 -5.71,-3.897c3.64,1.755 7.42,3.059 11.42,3.623c4.077,0.52 8.253,0.702 12.572,0.823c8.713,0.282 17.992,0.366 27.947,2.964l-2.8,1.758c2.278,0.399 4.519,0.668 6.916,1.042c1.401,0.722 2.86,1.481 4.339,2.199c1.283,0.605 2.61,1.214 4.007,1.813l-5.929,-4.228c4.756,1.84 14.444,7.121 10.487,6.972c10.392,3.282 12.009,5.201 20.807,10.158c-9.513,-4.88 -0.046,-0.375 -7.522,-2.855c4.117,2.563 6.639,3.975 8.838,5.055c1.078,0.48 2.103,0.936 3.183,1.372c1.162,0.44 2.349,0.885 3.788,1.484c0.556,0.399 1.388,1.071 2.307,1.758c-1.439,-0.282 0.905,3.243 3.183,5.162c6.355,3.716 15.562,12.027 23.717,18.062l-0.383,0.438l3.293,2.636l2.8,2.417c3.276,1.037 6.47,2.116 9.828,3.238l10.543,3.515c7.038,2.278 14.063,4.364 21.14,5.6c0.355,0.061 0.703,0.191 1.042,0.219l-1.484,-0.547c-2.082,-1.572 -0.519,-1.518 5.6,0c1.759,2.2 3.823,4.863 5.819,7.303c1.681,2.084 3.245,3.998 4.284,4.999c0.279,1.237 -0.059,2.145 1.703,4.503c1.595,-0.961 4.759,4.696 6.916,6.093c2.997,5.076 -2.222,0.789 3.897,8.784c2.474,3.041 3.506,2.762 3.842,1.922c0.159,0.997 1.342,3.343 2.143,4.943c1.116,1.519 3.56,4.037 5.436,5.874c-1.68,-0.877 -3.378,-3.289 -4.339,-4.007c-1.161,0.282 1.676,2.453 0.715,3.293c3.399,3.319 2.616,0.028 6.533,4.503l-5.055,-2.636c1.481,1.878 4.147,3.398 5.108,4.116c-1.482,-1.058 -2.353,-1.198 -2.91,-0.987l5.108,4.777c1.665,-0.277 -0.79,-4.75 0.328,-5.272c3.92,4.319 7.857,7.715 11.693,10.872c1.919,1.52 3.855,3.064 5.655,4.503l2.691,2.199l3.074,2.581l2.255,3.019l-2.526,-0.659c2.961,3.88 4.564,5.661 6.203,6.697l4.228,6.315c-2.957,-3.263 -4.282,-4.142 -5.6,-3.623c4.959,6.399 10.814,15.743 13.891,16.143l-0.438,-0.055c5.159,9.436 17.936,27.849 16.856,27.728c7.316,8.873 14.734,21.542 16.856,20.424c4.52,5.157 8.161,16.048 13.399,18.284c3.635,7.437 -0.194,0.669 -3.074,-0.328c3.682,7.476 11.691,11.78 10.655,15.978c6.717,7.319 -0.836,-2.293 2.362,-0.493c-0.4,0.797 0.209,2.249 1.206,4.007c0.119,6.236 2.468,16.156 2.032,23.115c1.757,3.796 0.276,-4.11 2.472,2.526c-0.854,-0.562 -0.566,3.087 -0.383,4.887l2.143,1.539l-2.472,6.643l1.097,7.799l0.109,0.328c2.081,1.484 0.295,-4.131 6.533,7.743l-0.659,-0.878c0.242,5.234 6.817,10.942 10.817,23.334c-1.483,-4.198 -1.611,-1.271 -2.691,-2.307l3.733,6.203c-0.376,-0.551 -0.669,-0.76 -0.548,0c0.84,4 1.75,4.647 2.91,6.643c0.514,1.403 0.941,2.83 1.152,5.71c-0.643,-1.915 -1.252,-2.727 -1.648,-2.91l2.636,9.772l1.097,2.087l-0.715,-0.603l8.236,30.747l-9.333,45.845l0.328,1.042c0.2,0.06 0.476,0.081 0.659,0.109l2.199,6.259c0.925,-0.524 0.28,-5.072 -0.438,-7.908c-0.079,-2.8 5.859,9.502 8.181,16.418c4.877,18.949 -2.363,4.823 0.438,17.898l2.255,5.765l1.042,2.855v-0.164l1.316,3.678l-0.603,3.403l-0.328,2.526h-1.097c-1.276,2.563 -0.521,4.254 -0.493,5.055c-1.157,-1.519 -3.779,13.575 -5.655,20.371l1.813,-2.199c-1.716,19.711 -10.148,29.372 -12.024,44.802l-0.219,11.091l-2.307,1.813c0,1.521 -0.109,2.762 -0.109,3.842c-0.319,4.118 -0.261,6.529 -3.183,14.165c-1.997,4.877 -3.91,9.801 -5.71,14.879l-2.636,7.577l-2.636,8.127c-8.951,13.792 -16.264,26.128 -24.982,40.08l-6.643,6.533l-6.259,6.259c-4.241,4.042 -8.491,8.079 -12.849,11.915c0.596,-0.082 1.438,-0.802 3.238,-2.199c-4.238,3.077 -8.43,6.708 -11.31,9.388c-4.124,6.636 -7.658,14.019 -10.655,20.698c-1.482,3.397 -3.02,6.746 -4.503,10.104l-2.255,5.055l-1.261,2.526l-1.977,3.678c-1.558,1.202 -3.193,2.37 -4.832,3.571c-1.317,0.878 -2.645,1.784 -4.007,2.745c-2.758,1.8 -5.64,3.538 -8.838,5.217l1.206,-1.703c-11.995,8.914 1.276,-1.817 -8.236,3.623c-0.239,3.161 -14.716,12.174 -20.753,18.449c0.762,-1.201 3.087,-2.997 4.887,-4.832c-1.599,0.599 -2.92,-0.087 -6.038,2.91c-2.278,3.481 -6.331,7.613 -11.091,11.971c-2.438,2.081 -4.921,4.255 -7.522,6.533c-2.438,2.037 -4.906,4.163 -7.303,6.203c-1.762,2.317 -3.399,4.575 -4.999,6.697c-2.318,0.393 -11.854,9.633 -18.172,13.232c-0.56,1.562 -1.495,4.478 -2.255,7.194c-1.479,1.199 -2.681,2.395 -3.678,3.678c-0.601,0.722 -1.18,1.517 -1.703,2.199c-0.643,0.874 -1.268,1.741 -1.867,2.581c-1.68,0.644 -3.933,1.5 -5.055,2.143l5.491,-1.484l6.478,-7.908c-0.03,0.171 -0.055,0.317 -0.055,0.438c0.238,-0.44 0.749,-1.121 1.152,-1.758c2.118,-2.558 3.18,-4.017 2.581,-3.459c5.038,-3.76 0.668,1.123 2.307,1.922c-1.236,1.522 -3.109,3.686 -4.832,5.765c-0.881,1.079 -1.722,2.058 -2.526,3.019c-1.438,1.633 -2.752,3.025 -3.788,4.061c-1.804,0.366 -2.993,0.477 -3.515,0.328c-2.882,0.703 -3.38,0.829 -4.777,1.097c-1.236,0.238 -2.489,0.5 -4.007,0.768c-1.76,0.722 -3.783,1.355 -5.984,1.758l0.933,-0.383c-0.392,-0.121 -0.838,-0.136 -1.316,-0.164c-4.6,0.803 -9.824,2.627 -14.824,4.668c-2.518,1.041 -4.981,2.058 -7.303,3.019c-1.155,0.522 -2.281,1.044 -3.403,1.484c-0.482,0.239 -0.965,0.476 -1.484,0.659c-0.03,0.11 -0.055,0.267 -0.055,0.328c-0.029,-0.11 -0.055,-0.239 -0.055,-0.328c-0.028,-0.478 0.121,-0.993 0,-1.261c-0.238,-0.279 -0.438,-0.454 -0.878,-0.603c-0.238,-0.359 -2.406,0.425 -2.745,-0.219c-0.157,0.096 0.025,0.065 0.547,-0.274c0.319,-0.156 0.876,-0.493 1.594,-0.933c3.516,-0.88 9.657,-2.526 16.691,-4.284c-0.959,0.04 -1.603,-0.069 -1.977,-0.547c-2.921,0.24 -5.498,0.821 -8.017,1.539c-1.281,0.396 -2.505,0.876 -3.788,1.316c-1.319,0.395 -2.76,0.938 -3.238,1.206l-0.933,0.715l-1.484,1.152c-1.118,0.8 -2.202,1.534 -3.403,2.417c-2.362,1.601 -5.034,3.332 -8.236,5.055c0.718,-0.682 2.222,-2.022 1.261,-2.143c-4.873,2.601 -8.429,6.39 -8.948,7.908c-0.999,-0.319 -4.139,0.878 -7.577,2.636c-1.758,0.879 -3.538,1.976 -5.217,3.019c-0.806,0.56 -1.644,1.006 -2.362,1.484c-0.918,0.675 -1.766,1.365 -2.526,1.922c-0.139,0.089 -0.3,0.246 -0.328,0.274c-3.202,1.08 -4.152,1.607 -5.71,2.087c-1.558,0.48 -3.661,0.849 -8.181,1.372l3.897,-1.648c-11.035,0.437 -8.709,2.727 -17.788,2.91c3.596,0 3.764,-1.163 1.042,-1.042c-11.312,2.036 -11.483,2.708 -19.437,5.984l1.316,-1.977c-9.596,1.954 -27.78,5.322 -28.22,2.964c1.162,1.2 -1.058,2.004 -4.777,2.526c-1.841,0.28 -4.12,0.51 -6.478,0.659c-2.24,0.11 -4.6,0.207 -6.916,0.328c-4.12,0.637 -8.008,1.19 -10.487,1.594c2.837,-0.601 3.304,-1.486 3.515,-1.922c-6.116,1.96 -12.35,3.369 -18.668,4.449l-9.497,1.484l-10.049,1.428l-8.127,0.328l-7.855,0.493l-3.019,-2.472c-9.477,0.759 -11.808,6.238 -22.127,6.916l3.678,-1.594c-4.282,0.356 -8.118,0.804 -10.158,0.987c-3.555,-0.718 -6.685,-1.361 -9.607,-1.922c-2.598,-0.519 -4.994,-1.017 -7.358,-1.539c-4.713,-1.037 -9.272,-2.065 -14.988,-3.348l0.659,-1.703c-2.318,-0.084 -4.867,-0.447 -7.468,-0.715c-2.72,-0.32 -5.498,-0.648 -8.017,-0.987c-1.758,-0.434 -1.96,-0.454 -2.8,-0.603c-3.279,-2.638 -9.278,-5.049 -16.637,-7.413c-3.637,-1.116 -7.743,-2.347 -11.859,-3.623c-2.037,-0.643 -4.124,-1.227 -6.203,-1.867l-6.916,-2.307c-2.278,-1.235 -4.516,-2.38 -6.752,-3.623c-1.999,-1.12 -3.937,-2.37 -5.819,-3.571c-3.84,-2.4 -7.368,-4.87 -10.323,-7.468l-2.8,2.255c-2.56,-1.398 -5.405,-2.966 -8.127,-4.449c-1.351,-0.764 -2.614,-1.547 -3.897,-2.307c-1.157,-0.679 -2.792,-1.73 -2.581,-1.758c-0.196,-0.199 0.106,-0.145 -0.493,-0.328c-0.478,-0.239 -0.887,-0.504 -1.261,-0.715c-0.84,-0.482 -1.554,-1.017 -2.032,-1.539l1.758,0.547c1.48,-2.277 -8.124,-2.185 -13.123,-4.061c-3.92,-0.719 -8.201,-0.098 -4.999,1.261c-3.56,-1.198 -7.424,-2.422 -11.42,-3.623c-4.479,-1.234 -9.143,-2.559 -13.782,-3.842c-4.039,-2.761 -8.092,-5.518 -11.971,-8.236c-3.522,-2.478 -6.921,-4.915 -10.158,-7.194c-6.355,-4.637 -11.724,-8.914 -15.043,-12.352c-0.521,-0.317 -0.988,-0.667 -1.428,-0.878c-1.118,-1.081 -2.285,-2.147 -3.403,-3.183c-0.997,-0.922 -1.963,-1.808 -2.964,-2.691c-1.919,-1.759 -3.818,-3.439 -5.655,-5.162c-3.837,-3.317 -7.44,-6.565 -11.201,-9.884c-3.676,-3.28 -7.419,-6.688 -11.255,-10.323c-3.997,-3.479 -8.088,-7.139 -12.407,-11.255l0.493,-0.055c-5.676,-5.914 -17.004,-17.762 -15.043,-19.765c-13.196,-11.594 -23.792,-16.645 -38.105,-32.118l4.007,2.417c-0.565,-0.643 -1.134,-1.243 -1.813,-1.922c-0.84,-0.764 -1.753,-1.671 -2.636,-2.472c-1.243,-1.756 -1.754,-2.264 -2.472,-3.183c-0.718,-0.809 -1.323,-1.536 -1.922,-2.255c-1.279,-1.398 -2.322,-2.572 -2.8,-3.129c-1.001,-1.561 0.246,-0.715 0.768,-0.715c-2.04,-4.717 -4.974,-6.354 -7.413,-9.552l1.648,0.878c-1.638,-3.202 -3.695,-6.534 -6.093,-10.049c-1.198,-1.763 -2.457,-3.546 -3.733,-5.381c-1.482,-2 -3,-4.046 -4.558,-6.203c-2.759,-5.998 -5.685,-12.266 -8.565,-18.504c-2.759,-6.038 -5.376,-12.156 -7.577,-17.953c1.758,3.559 1.962,1.256 1.813,-0.383c-0.637,-0.718 -1.409,-1.665 -2.087,-2.745c-0.317,-0.518 -0.639,-1.049 -1.042,-1.648c-0.357,-0.721 -0.519,-0.934 -1.206,-2.417c-0.482,-1.441 -1.049,-2.958 -1.648,-4.558c-0.44,-1.441 -0.962,-2.966 -1.484,-4.449c-0.878,-3.077 -1.772,-6.256 -2.691,-9.333c-1.68,-6.114 -3.182,-11.794 -4.339,-15.152l2.526,5.055c-3.366,-8.798 -3.214,-12.209 -3.515,-16.965c0.077,-4.282 0.246,-7.629 -2.032,-15.704l-0.219,10.104c-0.638,-7.077 -2.116,-12.912 -3.238,-11.036c-0.278,-8.276 2.172,-1.393 0.493,-13.672c0.758,-0.678 1.994,8.756 2.472,4.558l-0.383,-17.348v-0.055c0.089,-0.156 -0.043,-1.303 -0.164,-2.143c-0.443,-1.115 -1.053,-2.765 -1.977,-5.162c-3.157,2.726 -5.015,-13.292 -5.655,-3.897c-2.157,-5.796 -4.074,-11.435 -5.874,-16.91c-1.8,-5.636 -3.549,-11.117 -5.272,-16.472c-0.434,-2.837 -0.858,-5.532 -1.261,-8.291c-0.48,-2.604 -0.932,-5.18 -1.372,-7.743c-0.959,-5.079 -2.044,-10.142 -3.403,-15.098c0.358,-1.599 0.423,-3.783 0.274,-6.423c-0.101,-1.361 -0.344,-2.845 -0.493,-4.284c-0.119,-0.764 -0.213,-1.506 -0.274,-2.307c-0.183,-1.118 -0.398,-2.302 -0.547,-3.459c0.999,-3.237 2.018,-6.555 3.019,-9.716c0.918,-2.796 1.741,-5.486 2.581,-7.687c1.644,-4.439 3.24,-7.173 4.558,-6.093c3.321,-11.316 5.429,-20.58 5.055,-28.22c0.951,-5.491 1.925,-11.397 2.91,-15.207c-0.922,7.794 -2.789,20.279 -2.91,26.517c2.601,-10.39 4.189,-25.472 5.108,-31.349l3.129,-2.032c0.362,-8.874 3.571,-7.082 3.571,-15.317c-0.03,-0.163 -0.027,-0.285 -0.055,-0.659c-0.168,0.287 -0.344,0.398 -0.493,0.547c-0.196,0.196 -0.42,0.414 -0.603,0.715c0.061,-0.277 0.191,-0.585 0.219,-0.768c2.338,-15.111 0.058,-16.27 1.977,-31.185l0.878,0.878c0.52,-2.039 0.647,-4.521 0.768,-7.084c0.06,-1.278 0.043,-2.566 0.164,-3.842l0.328,-1.922c0.168,-0.802 0.317,-1.495 0.438,-2.255c0.438,-1.083 0.686,-1.721 0.987,-2.199c0.321,-0.56 0.778,-0.95 1.152,-1.428l-1.261,3.842l-0.933,6.752c1.122,-0.519 2.158,-3.005 3.238,-6.203c1.201,-2.322 2.07,-3.965 2.91,-5.327c2.833,-10.315 -1.548,-4.467 -0.109,-9.662c2.239,-1.603 1.028,-0.213 1.428,3.788c1.402,-5.277 3.01,-11.345 4.449,-17.184c0.718,-2.921 1.365,-5.78 1.922,-8.455c0.559,-2.962 1.099,-5.659 1.539,-8.017c0.879,-1.477 1.356,-2.54 1.539,-3.183c0.509,-0.279 0.547,0.438 0.547,0.438c7.595,-9.797 11.711,-20.403 17.348,-25.639l-1.261,2.087c1.718,-1.398 3.349,-3.221 4.832,-5.217l2.143,-3.183c0.761,-1.043 1.473,-2.136 1.594,-2.472c0.038,-0.439 0.703,-2.435 1.042,-3.678c0.483,-1.357 0.936,-2.653 1.372,-3.733c0.922,-2.159 1.865,-3.529 3.183,-3.678c2.318,-4.116 -3.805,9.927 0.715,3.571c6.276,-13.394 0.096,-10.32 5.655,-22.073c-0.722,1.605 -0.313,1.149 -0.164,1.867c1.556,-4.6 3.451,-9.908 5.491,-15.704c4.198,-3.92 8.761,-8.217 12.959,-12.133c3.278,-1.56 7.061,-4.231 10.982,-7.468c1.92,-1.679 3.944,-3.439 5.984,-5.162c1.919,-1.717 3.9,-3.499 5.819,-5.217c1.121,-1.721 2.226,-3.429 3.348,-5.108c1.198,-1.837 2.38,-3.621 3.623,-5.217c2.478,-3.359 4.949,-6.329 7.468,-8.565c-3.716,3.118 0.666,-3.948 0.109,-4.284c0,0 0.046,0.702 0.603,0.328c2.93,-4.357 2.177,-5.616 2.855,-7.577c0.915,-0.839 1.839,-2.246 2.8,-3.842c0.998,-1.839 2.128,-3.87 3.129,-5.71c1.116,-1.322 2.191,-2.574 3.074,-3.571c0.799,-0.84 1.586,-1.545 2.143,-1.813c-0.559,-0.679 2.643,-3.419 6.038,-6.697c-6.154,7.287 -0.862,3.442 -3.019,7.358c10.554,-9.473 9.103,-14.001 20.259,-23.717l2.855,-1.813l1.484,-0.933l1.977,-1.428l2.199,-0.659c0.643,-3.04 13.339,-7.754 12.74,-8.51c2.638,-0.24 6.175,-1.414 6.203,-0.055c5.113,-3.001 13.733,-5.55 15.372,-7.908l-5.655,1.867c4.278,-1.679 8.564,-3.751 11.365,-5.272c8.677,-5.998 15.711,-12.263 25.147,-16.582l1.703,3.293c2.682,-1.079 4.969,-2.486 7.084,-4.007c2.241,-1.679 4.363,-3.219 6.478,-4.777l2.691,-1.042c0.72,-0.282 1.547,-0.585 2.307,-0.768c1.517,-0.383 3.098,-0.687 4.777,-0.715c-3.083,-0.32 -3.493,0.226 1.867,-2.855c-1.362,0.362 -3.162,0.973 -5.162,1.813c-0.959,0.357 -1.952,0.821 -3.074,1.261c-1.198,0.439 -2.45,0.95 -3.733,1.428c-1.197,0.8 -2.477,1.657 -3.678,2.417c1.036,-0.921 1.645,-1.646 3.403,-2.964c2.322,-1.004 3.02,-1.481 4.503,-2.199l3.897,-2.143l-8.784,3.403l-9.662,6.643c6.436,-5.679 6.136,-5.08 2.417,-4.558c1.039,-0.803 1.986,-1.544 2.91,-2.143c0.436,-0.276 0.913,-0.612 1.316,-0.823c0.719,-0.394 1.389,-0.81 2.032,-1.206c0.677,-0.187 1.299,-0.42 1.977,-0.603c0.357,-0.119 0.723,-0.153 1.097,-0.274c0.719,-0.139 1.334,-0.317 1.977,-0.438c1.277,-0.28 2.387,-0.447 3.623,-0.715c2.479,-0.516 5.282,-1.264 9.278,-3.183c4.12,-0.798 0.443,1.815 5.162,1.097c3.999,-1.921 8.161,-2.853 12.079,-3.571c1.998,-0.399 3.925,-0.741 5.765,-1.042c1.919,-0.482 3.106,-0.839 5.546,-1.758c-0.641,0.32 -0.979,0.619 -0.768,0.768c0.282,-0.179 0.638,-0.267 0.878,-0.328c3.322,-0.215 6.145,-0.344 8.346,-0.493c2.121,-0.2 3.738,-0.533 4.613,-1.097l-5.6,-0.274c4.919,0 5.703,-1.514 15.098,-0.878c4.05,-0.717 6.768,-1.969 5.381,-2.526c2.167,0.274 4.157,0.749 2.91,1.539c6.238,-0.121 8.436,-0.93 9.994,-1.648c0.799,-0.356 1.388,-0.719 2.307,-0.987c0.321,-0.145 1.16,-0.267 1.428,-0.328c0,-0.03 0.043,-0.083 0.164,-0.055c0.089,-0.028 0.098,-0.028 0.219,0c0.2,-0.032 1.534,-0.597 2.417,-0.933c-0.786,0.516 -1.603,1.234 -1.042,1.206c3.28,-1.475 5.815,-2.869 7.855,-4.228c-5.441,3.161 -4.176,3.36 -3.293,3.571c0.45,0.036 0.796,0.193 0.274,0.715c-0.317,0.238 -0.808,0.564 -1.648,1.042c-0.478,0.196 -1.008,0.539 -1.648,0.878c-0.564,0.282 -1.465,0.74 -1.648,0.768c0.196,0.229 0.391,0.328 0.659,0.328c0.44,-0.04 0.885,-0.255 1.484,-0.438c1.122,-0.48 2.5,-1.107 3.897,-1.867c2.761,-1.596 5.781,-3.485 8.017,-4.284c5.682,-4.633 -0.643,-2.96 2.032,-5.6c0.281,0.596 2.856,-0.76 6.093,-2.199l-3.733,0.274c2.639,-1.441 5.184,-2.792 8.181,-4.832l-4.943,3.403c2.198,-1.079 5.009,-2.16 8.127,-3.403c1.558,-0.644 3.164,-1.409 4.887,-2.087c0.839,-0.434 1.784,-0.865 2.745,-1.261c1.426,-0.756 2.836,-1.534 4.339,-2.362zM426.932,69.426c-1.051,-0.092 -2.059,-0.023 -3.074,0.328c-1.385,0.533 -1.296,0.849 -2.307,1.539c-0.028,0.028 -0.075,0.048 -0.164,0.109c0.301,-0.21 -3.679,2.37 -2.855,0.219c-2.811,7.161 0.028,13.101 0,20.259c-0.09,7.385 0.185,14.765 0.274,22.073c0.033,4.389 0.99,9.691 -0.328,13.891c-0.597,1.943 -1.384,3.17 -1.539,5.272c-0.34,5.811 -0.584,11.648 -1.152,17.459c-1.158,11.808 -2.806,23.641 -3.293,35.524c-0.446,11.132 0.419,22.321 -0.164,33.492c-0.447,9.253 -1.849,18.797 -3.348,28.056c-0.935,5.546 -1.565,11.122 -1.261,16.746c0.209,4.833 3.328,9.004 3.403,13.836c0.028,4.685 -1.311,9.212 -2.362,13.782c-1.054,4.685 -1.231,9.46 -1.867,14.22c-0.786,5.962 -3.416,11.157 -5.217,16.856c-2.584,8.024 -1.752,16.721 -1.977,24.928c-0.27,9.892 -0.612,19.865 -1.097,29.759c-0.371,6.674 -1.921,13.116 -2.745,19.711c-0.903,6.745 0.692,13.664 -0.987,20.259c-0.71,2.776 -0.89,5.39 -0.933,8.236c-0.183,7.011 -0.415,14.018 0,21.028c0.415,6.41 2.315,12.852 4.339,18.999c1.876,5.735 2.467,11.636 5.055,17.184c2.21,4.729 5.695,8.828 8.51,13.287c1.989,3.192 3.053,6.627 4.832,9.828c-14.54,2.419 -29.099,5.228 -43.373,9.333c-8.471,2.403 -17.022,3.296 -25.53,4.943c-7.947,1.542 -15.882,3.648 -23.828,4.777c-2.54,0.37 -4.862,1.167 -7.303,1.703c3.239,-2.726 4.498,-8.223 5.546,-11.584c2.996,-9.813 5.924,-19.478 8.4,-29.372c1.727,-6.967 4.818,-13.447 4.668,-20.643c-0.088,-4.493 -2.058,-8.371 -3.183,-12.684c-1.575,-6.303 -0.328,-13.025 -0.328,-19.437c-0.033,-7.46 -0.144,-14.964 1.206,-22.346c2.172,-12.145 0.328,-26.046 0.328,-38.269c0.032,-7.754 0.637,-15.778 -0.274,-23.498c-0.785,-4.717 -1.661,-9.442 -2.526,-14.165c-0.488,-8.019 -1.226,-15.941 1.813,-23.662c1.201,-2.92 2.133,-5.715 2.472,-8.784c1.952,-18.663 1.653,-37.974 1.539,-56.714c-0.028,-15.556 4.698,-30.334 7.358,-45.627c2.138,-12.631 3.403,-25.1 3.403,-37.883c0,-7.308 0.002,-14.68 1.539,-20.753c-2.195,0 -4.315,-0.319 -6.315,-0.219c-2,0.1 -3.843,0.654 -5.381,2.362c-2.341,2.578 -3.838,5.94 -5.929,8.784c-3.411,4.686 -7.324,9.872 -11.859,13.618c-2.401,1.986 -4.941,3.737 -7.303,5.874c-2.026,1.797 -3.195,4.158 -5.108,5.984c-1.125,1.061 -2.46,1.625 -3.623,2.636c-1.951,1.616 -2.78,3.782 -4.503,5.546c-1.836,1.838 -4.124,3.029 -6.038,4.943c-1.947,2.06 -3.938,3.672 -6.038,5.436c-1.502,1.232 -2.911,2.282 -4.449,3.515c-3.672,2.848 -2.376,8.052 -2.636,12.243c-0.371,5.992 -0.325,12.01 -0.164,18.007c0.094,2.477 -0.948,4.501 -1.097,7.084c-0.211,3.112 -1.499,6.146 -1.648,9.333c-0.638,13.793 -1.428,27.437 -1.428,41.343c0,12.071 -0.149,24.184 0,36.292c0,5.883 -0.943,11.446 -1.428,17.294c-0.487,6.333 -0.164,12.737 -0.164,19.108c0,11.095 0.149,22.233 0,33.328c-0.089,4.121 1.462,7.898 1.648,12.024c0.21,4.802 0.158,9.028 1.097,13.672c1.608,7.723 0.328,16.452 0.328,24.323c0,8.585 -2.247,17.838 2.362,25.749c2.024,3.452 2.787,7.345 4.887,10.872c3.186,5.469 6.1,11.396 8.948,17.02c2.326,4.642 5.429,8.665 8.017,13.123c3.263,5.591 5.236,11.483 10.708,15.868c0.691,0.57 0.993,0.816 1.372,1.152c-7.603,1.977 -15.055,4.512 -22.675,8.236c-15.518,7.572 -30.246,20.384 -43.815,32.943c-6.147,5.733 -12.101,11.637 -18.062,17.788c-6.56,6.783 -14.27,13.052 -18.504,22.839c-3.818,8.931 -3.719,22.297 -1.261,32.45c-0.477,4.569 0.955,8.495 1.206,13.837c0.224,5.06 0.435,8.422 2.199,12.959c1.611,4.198 4.426,9.411 6.862,13.013c1.612,2.448 9.438,6.515 12.024,4.339c2.359,-1.99 0.504,-8.634 0.383,-11.365c-0.263,-5.582 -0.906,-11.344 -1.428,-16.965c-0.75,-7.423 -0.724,-17.216 1.152,-24.599c2.062,-7.982 9.229,-15.148 13.727,-20.917c3.148,-4.088 6.601,-7.168 9.224,-11.971c2.062,-3.75 3.777,-5.598 6.588,-8.181c7.42,-6.825 15.366,-11.546 23.389,-16.91c9.671,-6.516 19.114,-9.867 29.759,-12.079c9.67,-2.019 19.456,-5.853 28.715,-10.049c9.333,-4.302 19.538,-7.244 29.208,-8.784c8.584,-1.38 17.041,-3.271 25.585,-4.503c11.956,-1.751 23.881,-0.559 35.799,-1.867c7.645,-0.797 14.714,-2.392 22.401,-1.648c4.798,0.479 9.48,1.411 14.165,2.472c8.132,1.837 15.908,4.517 23.553,8.565c11.846,6.335 26.462,12.016 36.019,22.62c2.248,2.51 5.063,3.42 5.819,7.468c0.561,3.217 0.562,6.051 2.362,8.674c1.314,1.837 3.543,2.565 4.668,4.777c1.616,3.073 0.606,6.529 1.097,9.939c0.672,4.537 0.857,9.026 1.539,13.563c0.235,1.765 0.491,2.835 -0.219,4.558c-1.727,4.27 -6.619,4.859 -9.994,4.887c-4.381,0.043 -8.374,-0.016 -12.572,-1.484c-3.637,-1.275 -6.49,-3.73 -10.049,-4.887c-4.944,-1.609 -8.955,-5.577 -11.803,-10.708c-2.647,-4.836 -1.461,-10.73 -2.472,-15.978c-2.061,-0.327 -5.085,3.691 -6.697,4.999c-1.836,1.456 -6.262,3.482 -6.972,5.765c-0.747,2.465 0.489,5.881 1.316,8.017c2.059,5.471 5.452,11.281 8.674,15.923c1.311,1.954 2.802,2.816 4.228,4.613c1.913,2.331 2.229,3.898 4.777,5.055c4.122,1.838 7.146,5.889 11.42,6.972c2.324,0.586 4.928,0.519 7.028,1.648c3.374,1.838 7.341,5.064 11.201,4.943c1.498,-0.031 2.711,-0.788 4.061,-1.428c3.862,-1.885 7.849,-3.629 11.859,-5.055c1.913,-0.742 3.58,-0.729 5.491,-1.261c2.739,-0.746 4.87,-3.622 7.194,-5.162c4.723,-3.228 9.062,-6.112 12.959,-10.872c3.036,-3.645 5.234,-4.87 5.874,-10.268c0.523,-4.646 0.468,-9.279 1.372,-13.891c0.674,-3.218 1.676,-6.37 1.977,-9.662c0.211,-2.177 0.183,-4.376 0,-6.588c-0.224,-3.605 -0.661,-7.468 -2.087,-10.655c-2.059,-4.612 -6.232,-6.552 -8.893,-10.487c-3.487,-5.179 -7.043,-9.451 -11.091,-13.946c-5.62,-6.373 -13.276,-9.222 -19.984,-13.343c-5.209,-3.219 -10.527,-5.566 -15.813,-8.455c-2.436,-1.348 -4.446,-3.217 -6.807,-4.832c-2.474,-1.734 -5.144,-2.184 -7.468,-4.172c-13.156,-11.246 -28.64,-13.44 -44.419,-14.715c-6.41,-0.518 -12.625,-0.959 -18.887,-1.042c1.596,-2.483 3.254,-4.956 4.558,-7.522c2.249,-4.568 3.976,-9.228 6.148,-13.836c1.872,-3.929 0.912,-7.706 3.348,-11.42c5.884,-8.838 4.341,-18.734 4.228,-28.33c-0.028,-5.473 1.443,-10.472 1.703,-15.868c0.271,-5.399 -0.164,-10.983 -0.164,-16.418v-55.015c0,-4.95 0.055,-9.943 0.055,-14.933c0,-4.196 -0.785,-8.982 0.383,-13.068c0.756,-2.55 2.784,-4.577 3.571,-7.084c1.422,-4.275 0.525,-9.147 0.493,-13.455c-0.121,-11.471 -0.269,-22.939 0,-34.371c0.3,-13.944 6.064,-27.222 8.236,-41.015c2.664,-17.09 -0.137,-34.389 1.428,-51.554c0.828,-8.735 0.833,-17.183 1.097,-25.915c0.269,-9.145 3.405,-17.597 -2.143,-25.804l-0.055,0.055c-3.486,-5.134 -6.685,-10.5 -10.432,-15.594c-3.335,-4.462 -4.893,-9.583 -8.565,-13.782c-4.01,-4.537 -7.994,-9.209 -12.079,-13.672c-3.934,-4.196 -6.599,-9.669 -12.298,-11.584c-3.186,-1.128 -6.989,-3.088 -10.323,-3.459zM546.76,136.475c-10.157,0.64 -5.203,22.576 -4.228,26.85l1.097,-6.807c-0.374,7.796 0.438,15.948 0.438,23.443v58.639c0,14.843 0.871,29.959 -0.109,44.802c-0.861,13.268 -3.364,26.464 -4.339,39.695c-1.011,12.709 -0.286,24.633 -3.129,37.227c-2.474,10.946 -4.743,21.264 -4.668,32.395c0.028,7.833 -1.098,16.184 0.328,23.94c1.236,6.63 0.275,13.369 1.539,19.93c1.84,9.562 0.19,19.082 1.097,28.715c0.904,9.372 5.337,17.948 8.072,26.905c0.596,1.986 1.987,3.831 2.472,5.819c0.415,1.767 0.008,3.291 0.219,5.055c0.413,3.56 2.455,6.836 3.129,10.323c0.861,4.2 2.495,5.579 5.381,9.171c2.326,2.919 2.443,7.224 5.327,9.772c2.921,-3.069 4.665,-5.593 6.916,-9.003c1.233,-1.873 2.789,-2.833 4.061,-4.777c2.512,-3.679 6.043,-5.873 7.468,-9.994c2.362,-6.672 4.616,-13.392 7.577,-19.875c3.262,-7.047 7.369,-13.615 7.743,-21.414c0.593,-11.171 -0.956,-22.376 0.659,-33.547c0.86,-5.959 3.15,-11.773 3.788,-17.734c0.754,-6.971 1.458,-14.332 1.648,-21.304c0.49,-15.629 -0.137,-30.929 1.922,-46.56c1.911,-14.617 2.691,-29.269 2.691,-43.924c0,-11.095 0.413,-22.269 0.055,-33.328l0.055,0.055c-0.211,-6.076 -1.72,-12.007 -1.648,-18.117c0.028,-5.175 -0.028,-10.425 0,-15.594c0.028,-10.276 -1.539,-20.348 -1.539,-30.583v-12.407c0.001,-1.498 0.648,-5.362 -0.109,-6.861c-0.3,-0.636 -1.443,-0.625 -1.703,-1.261c-1.052,-2.479 0.425,-5.544 -1.372,-7.799c-0.754,-0.956 -2.059,-1.45 -3.074,-2.087c-3.486,-2.331 -7.051,-4.975 -10.049,-7.855c-6.412,-6.224 -12.476,-12.175 -18.999,-18.172c-5.398,-5.025 -10.29,-14.213 -18.723,-13.727zM672.161,210.987c-4.609,-0.742 -3.808,0.519 -6.093,4.558c-3.446,6.034 -5.823,11.331 -5.71,18.117c0.089,8.436 0.055,16.895 0.055,25.366c0,10.602 -0.055,21.18 -0.055,31.789c0.028,10.454 -0.812,20.582 -1.484,30.966v0.438c-0.564,8.099 -2.437,15.938 -3.074,23.995c-0.522,6.747 -1.212,13.529 -1.703,20.315c-0.64,8.321 -1.548,16.775 -3.571,24.982c-1.01,4.241 -1.805,8.758 -1.206,13.068c0.369,2.654 1.98,4.143 3.293,6.533c1.609,2.89 0.569,6.319 0.274,9.388c-1.312,11.772 -0.164,24.105 -0.164,35.911c0,16.868 -1.654,34.498 7.303,50.129c3.296,5.694 4.543,11.865 6.643,17.788c0.786,2.21 2.113,7.978 5.6,8.51c1.272,-1.425 1.652,-3.297 2.964,-4.722c1.986,-2.059 4.917,-3.322 6.752,-5.765c2.55,-3.293 5.31,-6.1 7.522,-9.552c3.45,-5.399 7.33,-10.575 10.817,-15.978c3.824,-5.883 8.713,-14.244 7.962,-20.917c-0.933,-8.247 -0.383,-16.681 -0.383,-24.928c0,-16.154 -1.751,-33.095 0.768,-49.139c4.422,-28.112 -3.23,-57.137 1.867,-85.211c2.024,-11.242 2.886,-22.63 3.788,-33.985c0.269,-3.633 0.238,-7.239 0.055,-10.872v-0.055c-0.182,-2.965 -0.935,-7.273 -2.472,-9.939c-1.008,-1.615 -2.655,-2.816 -4.116,-4.007c-4.798,-3.973 -8.192,-10.724 -10.927,-16.308c-2.175,-4.387 -5.765,-7.972 -8.127,-12.243c-1.352,-2.583 -2.369,-5.615 -3.571,-8.346c-0.637,-1.426 -0.545,-1.608 -1.372,-2.691c-1.35,-1.723 -4.496,-3.755 -6.259,-4.999c-1.65,-1.13 -3.393,-1.86 -5.381,-2.199zM222.216,219.961c-1.051,0.159 -2.1,0.604 -3.019,1.316c-2.174,1.723 -3.368,4.982 -4.943,7.194c-4.648,6.521 -11.592,11.493 -17.515,16.965c-0.785,0.745 -1.597,1.521 -2.307,2.307c-6.223,6.228 -12.036,13.907 -18.559,19.382c-2.137,1.721 -2.858,3.934 -4.172,6.259c-2.209,3.976 -6.235,7.448 -6.424,11.915c-0.208,4.91 -0.274,9.856 -0.274,14.771c0.029,3.903 1.005,8.916 0.055,12.74c-0.3,1.39 -1.084,2.117 -1.648,3.348c-1.196,2.582 -1.167,5.594 -1.206,8.4c-0.06,5.056 0.493,10.032 0.493,15.098c0,6.862 -0.24,13.783 0,20.643c0.149,4.983 1.351,9.616 1.316,14.603c-0.121,13.605 0.472,26.843 1.261,40.299c0.86,14.28 -4.241,28.49 -4.503,42.771c-0.119,6.107 -2.094,11.409 -3.183,17.294c-0.525,3.037 0.862,3.612 3.074,5.6c4.236,3.784 5.402,8.221 7.687,12.794c1.826,3.721 3.515,7.158 4.999,10.708c-2.876,1.697 -5.526,3.626 -8.565,5.327c-1.8,1.021 -3.746,1.35 -5.546,2.307c-3.825,2.106 -6.848,5.309 -10.708,7.413c-2.7,1.456 -4.348,2.675 -6.259,5.108c-4.457,5.662 -9.587,10.702 -14.384,16.143c-4.348,4.837 -7.226,9.623 -9.662,15.54c-2.399,5.811 0.788,13.416 1.428,19.492c0.634,6.337 2.46,12.796 3.623,19.055c1.051,5.509 4.942,10.204 7.303,15.262c2.659,5.77 6.076,10.929 11.474,14.933c4.572,3.365 12.989,8.625 19.437,6.861c3.756,-0.98 1.557,-3.344 -0.055,-5.108c-2.136,-2.222 -3.093,-4.713 -4.668,-7.413c-8.207,-14.356 -13.257,-37.318 -5.874,-53.586c3.374,-7.532 7.854,-15.172 14.001,-20.643c2.289,-2.061 4.703,-3.639 7.139,-5.436c2.289,-1.718 4.01,-2.061 6.371,-3.293c1.573,-0.821 2.191,-1.718 3.842,-2.143c2.438,-0.668 4.974,-0.411 7.522,-1.261c2.321,-0.846 4.465,-0.784 6.752,-1.316c2.396,-0.565 4.216,-2.91 6.807,-2.91c1.687,-0.032 3.021,1.059 4.558,1.484c1.913,0.627 3.654,0.903 5.491,2.032c2.771,1.723 4.206,4.01 5.929,6.371c3.863,5.474 4.621,13.646 -0.328,18.449c-0.9,0.862 -2.589,1.404 -2.8,2.636v-0.055c2.96,-2.984 -0.913,-1.834 -2.636,-0.219c-1.986,1.879 -3.685,2.711 -3.238,5.6c0.595,3.958 2.912,0.859 5.874,0.219c1.984,-0.456 2.41,-0.572 4.061,-1.316c1.198,-0.511 2.016,-1.169 3.515,-1.594c4.799,-1.423 7.948,-5.645 10.763,-9.278c1.387,-1.719 3.427,-3.826 3.842,-6.038c0.564,-2.919 -0.055,-6.587 -0.055,-9.552c0,-4.197 0.091,-7.689 -1.484,-11.693c-0.675,-1.765 -1.194,-3.406 -2.581,-4.832c-1.235,-1.305 -2.335,-2.083 -3.238,-3.623c-2.324,-4.117 -5.176,-7.72 -7.799,-11.693c-3.15,-4.682 -8.384,-5.032 -13.782,-6.093c-0.768,-0.146 -1.456,-0.045 -2.199,-0.164c1.651,-3.58 2.966,-7.21 4.172,-11.201c1.426,-4.91 3.433,-9.968 4.558,-14.771c2.433,-10.451 2.517,-23.096 1.316,-33.93c-1.949,-17.656 -1.372,-35.421 -1.372,-53.148c0,-13.418 -0.676,-26.919 -0.055,-40.299c0.273,-5.81 1.215,-11.537 1.594,-17.348c0.523,-8.287 0.653,-16.885 1.813,-25.092c1.797,-12.667 6.756,-24.917 7.468,-37.773c0.339,-5.992 -0.116,-12.046 -0.055,-18.007c0,-4.015 -0.642,-8.123 -0.274,-12.133c0.301,-3.485 1.883,-6.771 2.032,-10.268c0.157,-3.938 -3.043,-5.86 -6.203,-5.381zM416.686,396.841c0.569,-0.139 1.342,-0.022 2.636,0c2.061,0.028 4.399,-0.183 6.424,0c1.8,0.21 2.653,0.714 4.339,1.097c3.938,0.744 9.314,-0.055 13.399,-0.055l1.261,2.087c0,4.014 1.222,7.575 1.261,11.474c0.028,1.346 0.628,3.545 0,4.777c-1.086,2.062 -3.292,1.527 -5.655,1.484c-4.424,-0.029 -8.884,0.055 -13.343,0.055c-2.473,0 -9.292,0.82 -10.268,-0.987c-0.711,-1.426 0.109,-4.872 0.109,-6.371c0,-1.873 0.28,-3.886 -0.109,-5.765c-0.447,-2.019 -1.901,-4.138 -1.261,-6.315c0.295,-0.972 0.637,-1.345 1.206,-1.484zM296.276,414.799c3.339,0 6.786,0.146 10.049,0.878c1.083,0.208 2.135,0.13 3.183,0.219c0.979,0.208 1.824,0.381 2.8,0.274c0.824,0 2.108,-0.121 2.855,0c0.596,0.119 0.973,0.331 1.648,0.438c0.301,0.85 0.055,2.006 0.055,2.91c0,0.85 0.074,1.774 -0.109,2.636v0.055c-0.147,0.64 -0.302,1.086 -0.274,1.758c0.149,1.616 0.447,3.273 0,4.887c-0.489,1.615 -1.351,2.098 -1.316,4.116c0.089,2.178 0.833,3.664 -1.867,4.228c-2.023,0.424 -4.928,-0.055 -7.028,-0.055c-4.648,0.028 -7.851,-1.798 -12.462,-2.255c-0.415,-1.765 -0.955,-3.782 -1.484,-5.546c-0.412,-1.2 -1.112,-2.007 -1.372,-3.238c-0.374,-1.765 1.15,-3.471 1.372,-5.162c0.209,-1.539 -1.064,-4.953 1.372,-6.038c0.64,-0.318 1.945,-0.11 2.581,-0.11zM557.243,415.181c2.138,0 4.34,0.042 6.478,0.438c2.922,0.64 6.239,0.164 9.278,0.164c1.01,0 4.14,0.473 4.777,-0.164c0.786,0.428 0.438,1.79 0.438,2.472c0,1.061 0.089,2.119 0,3.129l-0.055,0.055c-0.119,1.347 -0.383,2.574 -0.383,4.007c0,0.745 -0.19,1.521 -0.383,2.307c-0.029,0.424 0.066,0.855 -0.055,1.206c-0.179,0.529 -0.296,0.186 -0.328,0.933c-0.339,2.209 1.053,5.532 -2.581,6.424c-3.3,0.746 -8.632,-0.109 -12.079,-0.109c-2.139,0 -5.134,0.549 -7.194,0.109c-1.724,-0.424 -2.772,-0.944 -4.832,-1.261c-0.093,-1.574 1.092,-3.332 1.206,-5.055c0.121,-2.101 0.028,-4.287 0,-6.424c0,-2.029 -0.987,-5.763 1.152,-7.303c1.201,-0.849 3.059,-0.933 4.558,-0.933zM671.875,439.665l5.217,2.032c3.072,-0.531 6.981,1.735 9.716,2.032c1.608,0.121 4.63,-0.317 6.093,0c2.627,0.64 1.144,1.223 1.594,2.691c0.415,1.35 1.363,2.463 1.813,3.842c0.593,1.689 -0.137,3.836 -0.109,5.6c0.093,3.368 0.035,4.593 -6.038,4.668c-5.737,0.089 -10.922,0.938 -16.582,1.042c-6.11,0.028 -5.217,-0.962 -5.217,-4.394c0,-3.785 1.834,-6.849 1.758,-10.599c0,-2.74 -0.146,-4.556 1.758,-6.916zM179.658,444.11c1.445,0.207 3.082,0.659 4.339,0.823c1.424,0.21 2.24,0.716 4.228,0.823c1.765,0.028 3.636,0 5.436,0c3.599,-0.032 5.611,0.952 9.171,1.152c0.522,1.382 -0.159,2.656 0.109,4.007c0.339,1.873 1.627,3.456 1.703,5.327c0.089,1.064 0.602,3.358 0.055,4.228v0.11c-0.9,1.424 -1.836,0.933 -4.007,0.933c-4.162,0.121 -9.334,-0.608 -13.343,0c-3.789,0.529 -6.438,1.519 -10.599,0.933c-1.123,-2.478 0.318,-5.195 -0.547,-7.743c-0.489,-1.382 -0.75,-2.691 -0.933,-4.007c0.71,-1.061 1.088,-1.47 1.316,-2.745c0.15,-0.848 -0.683,-2.492 -0.164,-3.238c0.54,-0.786 1.795,-0.81 3.238,-0.603zM175.27,450.7c-0.06,0.117 -0.179,0.221 -0.328,0.328v-3.129c0.028,1.061 0.179,1.896 0.328,2.8zM747.856,469.437c-1.424,0.212 -2.249,3.181 -2.964,4.339c-1.5,2.325 -3.181,3.581 -4.832,5.6c-2.661,3.335 -4.685,8.101 -6.148,12.298c-1.125,3.071 -1.934,6.132 -2.91,9.278c-0.903,3.039 -3.701,7.494 -0.109,4.722v0.11c3.226,4.348 2.067,13.348 2.143,18.559c0.085,7.833 -0.725,16.569 -2.255,24.214c-3.034,14.992 -8.084,29.536 -15.207,42.88c-1.688,3.145 -3.448,6.412 -6.148,8.729c-3.073,2.7 -7.022,3.561 -10.432,5.655c-5.024,3.07 -8.518,8.465 -12.904,12.517c-4.911,4.537 -10.307,8.401 -15.594,12.407c-8.77,6.597 -16.969,13.863 -26.189,19.711c-8.846,5.62 -18.33,9.968 -27.288,15.484c-6.259,3.932 -12.532,8.148 -18.943,11.859c-5.996,3.409 -12.05,7.198 -18.723,8.4c-14.088,2.477 -28.89,0.072 -42.495,-3.842c-5.135,-1.499 -10.301,-2.411 -15.098,-4.887c-4.01,-2.104 -8.383,-2.888 -12.243,-5.436c-7.646,-5.06 -12.273,-12.792 -18.833,-19.163c-3.264,-3.111 -7.056,-6.138 -10.655,-8.838c-2.473,-1.911 -6.681,-3.514 -8.893,-5.874c-1.316,-1.428 -1.334,-3.351 -2.199,-4.999c-3.559,-7.045 -8.876,-13.464 -14.274,-19.163c-9.745,-10.188 -20.206,-20.688 -34.149,-24.323c-10.307,-2.7 -19.828,-2.604 -30.473,-2.636c-12.255,-0.028 -24.179,2.196 -36.402,2.8c-7.345,0.318 -13.832,2.17 -21.028,4.007c-6.106,1.544 -11.876,2.032 -18.062,2.636c-3.562,0.319 -6.502,1.448 -10.213,1.372c-5.845,-0.121 -10.087,2.83 -14.659,6.093c-3.189,2.252 -6.641,3.886 -9.939,5.874c-8.621,5.248 -15.606,13.121 -17.294,23.279c-1.164,6.819 -2.293,13.211 -5.108,19.546c-3.748,8.54 -8.967,16.274 -11.365,25.42c-2.778,10.72 -2.214,23.567 0.933,33.876c4.121,13.38 13.294,22.825 23.115,30.583c4.759,3.784 7.881,5.452 13.617,4.284c6.781,-1.348 13.968,0.291 20.753,0.823c5.773,0.529 10.864,2.607 16.637,3.129c3.41,0.313 12.963,3.423 15.923,0.328c-1.055,-2.401 -1.633,-5.899 -1.484,-8.565c0.182,-3.75 -0.307,-6.812 -0.383,-10.487c-0.032,-3.634 0.785,-3.924 -2.362,-3.403c-1.947,0.317 -3.92,0.838 -6.093,0.109c-1.461,-0.535 -3.017,-1.619 -4.668,-2.255c-2.398,-0.956 -4.074,-1.614 -6.697,-1.867c-1.464,-0.121 -2.324,-0.183 -3.788,0c-0.522,0.117 -0.969,1.174 -1.758,1.206c-1.911,0.086 -3.472,-1.635 -5.272,-2.199c-3.332,-1.128 -6.324,-2.921 -9.059,-5.162c-3.788,-3.143 -7.106,-6.895 -10.817,-10.158c-2.809,-2.433 -5.517,-5.025 -7.577,-8.181c-3.15,-4.834 -3.589,-10.01 -2.691,-15.594c1.125,-7.088 2.34,-15.921 5.491,-22.292c4.084,-8.245 10.368,-14.573 17.788,-19.82c3.861,-2.7 8.905,-5.096 13.178,-7.084c7.495,-3.487 15.546,-7.325 22.182,-11.971c6.07,-4.344 13.466,-3.847 20.589,-3.952c3.823,-0.031 5.985,1.444 9.994,1.372c5.132,-0.089 9.398,1.544 14.384,2.362c7.495,1.233 15.205,3.065 22.401,5.765c6.932,2.655 11.956,7.321 17.129,12.572c6.861,6.897 13.023,14.564 19.546,21.799c3.073,3.413 6.792,6.338 9.607,10.049c2.813,3.752 4.199,8.37 7.084,11.971c1.762,2.176 4.009,3.332 6.371,4.722c1.463,0.85 2.841,1.668 4.228,2.691c7.198,5.324 14.998,9.541 22.346,14.715c8.884,6.299 17.457,9.098 27.728,11.42c9.408,2.176 18.426,0.839 27.947,-0.219c15.141,-1.762 30.447,-4.272 45.515,-6.972c8.324,-1.497 16.645,-3.656 24.928,-5.6c12.331,-2.922 23.923,-8.906 35.469,-14.824c8.663,-4.39 16.878,-10.067 24.711,-16.143c9.895,-7.608 19.455,-16.324 29.65,-23.334c10.494,-7.234 19.223,-16.764 28.33,-26.134c9.52,-9.785 15.579,-22.093 19.327,-36.073c2.025,-7.488 3.565,-15.1 5.217,-22.675c1.2,-5.511 2.479,-11.505 2.964,-17.129c0.413,-5.28 1.013,-10.568 1.428,-15.813c0.49,-5.735 -0.594,-11.485 -0.933,-17.184c-0.562,-11.469 0.783,-22.883 -1.206,-34.315c-0.636,-3.708 -1.718,-5.143 -4.116,-7.468c-1.087,-1.129 -4.099,-5.799 -5.71,-5.546zM625.477,499.565c-1.532,3.634 -3.982,6.547 -6.643,9.278c-5.135,5.208 -13.011,7.816 -17.734,13.287c-2.994,3.373 -3.18,8.653 -4.007,12.849c-1.35,6.709 -1.324,12.454 -0.164,19.273c0.526,3.304 0.577,6.604 1.813,9.716c1.275,3.082 3.604,5.519 5.327,8.291c3.222,5.289 5.771,10.814 8.729,16.255c5.622,10.378 12.768,17.571 23.115,22.894c2.472,1.274 4.488,2.428 7.303,2.745c2.547,0.317 6.019,1.233 8.455,1.261c2.1,0.042 3.011,-1.02 4.999,-1.977c2.624,-1.381 4.981,-1.821 7.908,-2.032c4.05,-0.341 5.3,-1.27 5.272,-5.436c-0.061,-1.869 1.07,-7.303 -0.055,-8.729c-1.16,-1.497 -6.183,0.687 -8.619,0.659c-4.126,-0.107 -8.839,0.629 -12.849,-0.328c-2.1,-0.446 -5.888,-1.453 -7.799,-2.581c-2.4,-1.423 -2.953,-4.153 -4.228,-6.478c-3.523,-6.408 -7.488,-12.553 -8.838,-19.82c-2.393,-12.706 -5.484,-26.819 -2.636,-39.75c1.012,-4.761 3.178,-8.555 6.588,-12.188c1.232,-1.327 2.806,-2.624 3.129,-4.394c0.128,0.18 0.188,0.357 0.328,0.548c1.201,1.616 2.397,2.965 0,-1.648c0.107,0.453 -0.257,0.714 -0.328,1.097c-1.185,-1.667 -1.849,-2.926 -2.964,-5.162c-1.534,-3.221 -4.034,-4.892 -6.093,-7.632zM335.979,656.145c-2.175,-0.137 -4.327,-0.107 -6.315,0.328c-2.433,0.532 -4.54,1.301 -6.752,2.087c-2.774,1.061 -3.629,-0.025 -4.228,3.788c-0.903,5.402 -0.384,11.158 0.548,16.255c0.712,3.675 0.643,7.624 1.922,11.036c1.69,4.35 2.614,5.352 5.765,-1.097v-0.055c9.146,0.425 18.087,-1.681 27.233,0.055c6.785,1.232 13.211,4.658 19.546,7.358c7.945,3.379 12.574,9.794 19.546,14.439c6.031,4.008 9.161,10.678 14.11,15.813c1.8,1.915 2.895,4.178 4.394,6.315c2.511,3.558 5.54,6.85 8.127,10.377c7.909,10.717 16.605,21.335 27.288,29.317c2.512,1.914 5.346,3.064 7.855,4.943c2.097,1.648 4.184,4.41 6.807,5.272c1.347,0.425 2.658,0.078 4.007,0.274c1.95,0.319 3.415,1.288 5.327,1.703c7.533,1.617 16.313,0.637 22.949,-3.074c5.136,-2.887 10.414,-3.944 15.813,-6.038c1.575,-0.644 2.78,-1.651 4.503,-2.255c1.315,-0.53 4.29,-0.554 5.491,-1.372c4.008,-2.738 -1.021,-10.997 -2.143,-14.933c-1.161,-4.42 -0.381,-5.617 -5.108,-5.765c-3.596,-0.034 -6.157,-0.113 -9.716,0.933c-9.07,2.656 -20.772,1.103 -29.317,-2.636c-4.536,-1.986 -8.85,-3.401 -13.123,-5.984c-3.41,-2.018 -6.936,-3.989 -10.158,-6.093c-3.222,-2.104 -5.531,-5.643 -8.346,-8.236c-4.31,-4.008 -7.957,-8.249 -11.255,-13.123c-1.35,-1.99 -3.244,-3.338 -4.558,-5.217c-1.235,-1.721 -1.728,-3.836 -2.964,-5.6c-2.177,-3.112 -4.346,-6.168 -6.371,-9.388c-2.326,-3.678 -5.17,-6.95 -8.017,-10.213c-3.114,-3.558 -5.964,-7.829 -10.049,-10.377c-6.41,-3.973 -11.032,-7.833 -18.34,-10.158c-8.135,-2.581 -16.496,-6.357 -24.928,-7.632c-4.236,-0.635 -8.814,-0.336 -13.123,-0.547c-2.025,-0.104 -4.25,-0.356 -6.423,-0.493z" /></svg>