<svg xmlns="http://www.w3.org/2000/svg" viewBox="0 0 953 960" width="953" height="960"><path d="M40.71,421.125c0.117,-0.053 0.254,0.258 0.397,0.982c0.457,2.313 0.457,6.104 0,8.417c-0.457,2.313 -0.832,0.421 -0.832,-4.208c0,-3.183 0.175,-5.073 0.434,-5.19z" /> <path d="M325.78,0c-0.684,0.454 -1.441,0.915 -2.236,1.379c0.598,-0.394 1.296,-0.833 2.236,-1.379z" /> <path d="M84.239,125.514c0.043,0.025 0.054,0.096 0.047,0.189c-0.031,-0.099 -0.047,-0.189 -0.047,-0.189z" /> <path d="M600.866,888.521c0.006,0.009 0.01,0.016 0.02,0.026c-0.098,0.041 -0.103,0.025 -0.02,-0.026z" /> <path d="M663.243,860.764c0.097,-0.09 0.139,-0.109 0.157,-0.109c-0.063,0.047 -0.09,0.059 -0.157,0.109z" /> <path d="M798.774,721.895c-1.103,0.855 -1.849,1.448 -2.423,1.837c0.804,-0.62 1.608,-1.245 2.423,-1.837z" /> <path d="M427.774,0.515h0.061c1.137,0.143 2.287,0.226 3.468,0.353l2.999,0.175c1.41,0.03 2.832,0.03 4.291,0c-3.257,0.389 -9.8,1.058 -1.708,2.646c13.4,0.166 3.056,0.941 10.464,2.823c13.268,0.833 2.513,-2.668 21.99,0.117c2.1,0.212 0.21,-0.888 -1.882,-1.529c4.495,0.678 8.734,1.097 11.818,1.29c6.551,0.084 12.955,-0.057 21.344,0.88c-5.689,-0.516 -10,-1.076 -2.294,-1.765c-3.341,1.286 10.573,1.41 15.58,2.353l1.351,-0.822c4.022,0.946 -0.229,1.247 -3.528,1.47c0.09,-0.308 -1.087,-0.559 -3.526,-0.529c-6.423,0.555 -4.107,3.642 5.998,4.114c10.871,-0.639 9.117,-2.731 7.23,-3.584c1.371,0.094 2.569,0.175 3.641,0.175c1.238,0 2.324,-0.058 3.352,-0.058c1.666,0.256 2.29,0.262 3.233,0.292c0.814,0.03 1.685,0.03 2.411,0c1.504,-0.065 2.774,-0.169 4.233,-0.234c2.87,-0.088 6.104,0.078 11.584,1.706c3.128,0.554 12.849,5.768 22.697,7.997c5.433,-0.813 -12.107,-3.748 -6.115,-4.172c3.898,1.878 7.947,3.275 12.23,3.879c4.366,0.556 8.838,0.751 13.463,0.88c9.331,0.302 19.271,0.392 29.929,3.174l-2.999,1.882c2.439,0.427 4.838,0.717 7.405,1.117c1.501,0.771 3.063,1.583 4.647,2.353c1.374,0.648 2.795,1.3 4.291,1.941l-6.349,-4.527c5.093,1.97 15.467,7.625 11.23,7.466c11.128,3.515 12.86,5.571 22.282,10.879c-10.188,-5.225 -0.05,-0.401 -8.056,-3.057c4.409,2.742 7.113,4.253 9.465,5.41c1.155,0.514 2.252,1.002 3.409,1.47c1.243,0.472 2.515,0.948 4.055,1.589c0.598,0.43 1.488,1.149 2.472,1.882c-1.54,-0.302 0.97,3.471 3.409,5.527c6.805,3.979 16.664,12.882 25.397,19.342l-0.41,0.471l3.528,2.823l2.997,2.587c3.508,1.111 6.929,2.266 10.525,3.468l11.288,3.762c7.537,2.439 15.059,4.674 22.638,5.998c0.383,0.065 0.752,0.204 1.115,0.234l-1.589,-0.588c-2.229,-1.684 -0.552,-1.626 5.998,0c1.884,2.357 4.095,5.21 6.232,7.822c1.8,2.229 3.473,4.279 4.586,5.351c0.298,1.324 -0.062,2.297 1.825,4.822c1.708,-1.028 5.095,5.029 7.405,6.525c3.209,5.437 -2.378,0.848 4.172,9.407c2.65,3.257 3.756,2.96 4.116,2.06c0.168,1.065 1.434,3.578 2.292,5.291c1.195,1.627 3.811,4.323 5.82,6.291c-1.799,-0.939 -3.619,-3.521 -4.647,-4.291c-1.246,0.302 1.791,2.626 0.763,3.526c3.639,3.555 2.803,0.03 6.997,4.822l-5.412,-2.823c1.588,2.011 4.442,3.638 5.47,4.408c-1.587,-1.131 -2.52,-1.28 -3.116,-1.057l5.468,5.115c1.784,-0.298 -0.845,-5.085 0.352,-5.645c4.197,4.625 8.414,8.261 12.522,11.642c2.055,1.63 4.129,3.282 6.056,4.822l2.882,2.353l3.292,2.763l2.411,3.233l-2.704,-0.703c3.172,4.154 4.892,6.062 6.644,7.171l4.527,6.761c-3.166,-3.494 -4.587,-4.432 -5.998,-3.879c5.31,6.851 11.58,16.857 14.875,17.285l-0.469,-0.058c5.525,10.105 19.207,29.821 18.05,29.692c7.834,9.504 15.78,23.068 18.052,21.871c4.839,5.523 8.738,17.187 14.347,19.581c3.893,7.963 -0.208,0.716 -3.292,-0.352c3.941,8.006 12.515,12.616 11.406,17.111c7.189,7.837 -0.895,-2.454 2.53,-0.527c-0.428,0.853 0.222,2.407 1.29,4.289c0.129,6.676 2.645,17.304 2.177,24.753c1.883,4.064 0.296,-4.402 2.647,2.704c-0.915,-0.602 -0.605,3.307 -0.412,5.234l2.294,1.648l-2.647,7.113l1.174,8.35l0.117,0.352c2.228,1.586 0.316,-4.425 6.997,8.29l-0.705,-0.941c0.259,5.605 7.301,11.718 11.584,24.989c-1.588,-4.492 -1.725,-1.36 -2.882,-2.469l3.998,6.642c-0.403,-0.591 -0.717,-0.814 -0.588,0c0.9,4.284 1.874,4.978 3.116,7.115c0.551,1.503 1.011,3.031 1.234,6.115c-0.689,-2.054 -1.341,-2.923 -1.765,-3.116l2.823,10.464l1.174,2.231l-0.763,-0.644l8.821,32.927l-9.995,49.095l0.352,1.115c0.212,0.064 0.51,0.087 0.703,0.117l2.353,6.7c0.99,-0.56 0.298,-5.43 -0.471,-8.467c-0.084,-2.999 6.277,10.175 8.763,17.581c5.221,20.289 -2.53,5.164 0.469,19.166l2.413,6.173l1.115,3.057v-0.175l1.41,3.937l-0.644,3.641l-0.352,2.706h-1.174c-1.367,2.742 -0.559,4.552 -0.529,5.41c-1.238,-1.629 -4.047,14.534 -6.056,21.812l1.942,-2.353c-1.837,21.108 -10.867,31.455 -12.876,47.978l-0.234,11.876l-2.472,1.942c0,1.629 -0.115,2.957 -0.115,4.114c-0.342,4.409 -0.281,6.992 -3.409,15.17c-2.138,5.223 -4.188,10.497 -6.115,15.934l-2.823,8.114l-2.823,8.702c-9.588,14.77 -17.416,27.981 -26.752,42.922l-7.115,6.996l-6.7,6.7c-4.542,4.326 -9.092,8.649 -13.759,12.757c0.273,-0.036 0.616,-0.224 1.044,-0.515c-3.673,2.836 -7.159,5.86 -9.689,8.215c-4.413,7.106 -8.198,15.012 -11.407,22.165c-1.587,3.642 -3.234,7.225 -4.822,10.821l-2.411,5.412l-1.351,2.704l-2.116,3.937c-1.669,1.284 -3.424,2.535 -5.176,3.821c-1.41,0.939 -2.832,1.912 -4.291,2.94c-2.954,1.928 -6.04,3.788 -9.465,5.586l1.293,-1.823c-12.845,9.545 1.368,-1.947 -8.819,3.879c-0.255,3.386 -15.759,13.039 -22.224,19.759c0.816,-1.286 3.305,-3.214 5.232,-5.176c-1.712,0.644 -3.128,-0.093 -6.466,3.116c-2.439,3.725 -6.779,8.15 -11.876,12.817c-2.611,2.229 -5.271,4.557 -8.056,6.996c-2.611,2.182 -5.255,4.46 -7.822,6.644c-1.883,2.482 -3.636,4.899 -5.349,7.171c-2.483,0.423 -12.696,10.319 -19.462,14.17c-0.6,1.673 -1.597,4.796 -2.411,7.704c-1.585,1.286 -2.869,2.563 -3.937,3.937c-0.644,0.771 -1.265,1.623 -1.825,2.353c-0.689,0.936 -1.359,1.863 -2,2.763c-1.799,0.69 -4.208,1.605 -5.41,2.294l5.881,-1.589l6.937,-8.469c-0.032,0.183 -0.063,0.342 -0.063,0.471c0.254,-0.471 0.803,-1.202 1.234,-1.884c1.923,-2.322 3.021,-3.781 2.922,-3.811c5.08,-3.752 0.581,1.325 2.312,2.168c-1.325,1.632 -3.334,3.946 -5.176,6.173c-0.943,1.156 -1.842,2.205 -2.704,3.233c-1.54,1.748 -2.948,3.238 -4.057,4.348c-1.929,0.391 -3.2,0.512 -3.76,0.353c-3.086,0.753 -3.621,0.886 -5.117,1.174c-1.323,0.255 -2.663,0.534 -4.289,0.822c-1.886,0.773 -4.052,1.453 -6.41,1.884l0.999,-0.412c-0.42,-0.128 -0.898,-0.145 -1.41,-0.175c-4.926,0.861 -10.52,2.817 -15.875,5.001c-2.698,1.114 -5.334,2.205 -7.82,3.233c-1.235,0.559 -2.441,1.117 -3.643,1.589c-0.516,0.254 -1.036,0.51 -1.589,0.703c-0.032,0.119 -0.058,0.287 -0.058,0.352c-0.031,-0.119 -0.058,-0.257 -0.058,-0.352c-0.03,-0.512 0.129,-1.063 0,-1.351c-0.255,-0.295 -0.467,-0.483 -0.939,-0.642c-0.254,-0.379 -2.508,0.428 -2.92,-0.208c0.097,-0.042 0.286,-0.14 0.565,-0.322c0.344,-0.165 0.938,-0.525 1.708,-0.997c3.767,-0.942 10.339,-2.706 17.872,-4.588c-1.028,0.042 -1.716,-0.074 -2.116,-0.586c-3.128,0.258 -5.888,0.878 -8.585,1.648c-1.374,0.424 -2.683,0.935 -4.057,1.407c-1.413,0.423 -2.956,1.005 -3.468,1.293l-0.999,0.763l-1.589,1.234c-1.194,0.856 -2.355,1.644 -3.641,2.587c-2.529,1.713 -5.391,3.568 -8.819,5.41c0.77,-0.728 2.377,-2.163 1.349,-2.292c-5.221,2.784 -9.029,6.843 -9.582,8.469c-1.07,-0.339 -4.432,0.938 -8.114,2.821c-1.885,0.942 -3.788,2.116 -5.586,3.233c-0.862,0.599 -1.76,1.077 -2.53,1.589c-0.984,0.726 -1.89,1.464 -2.704,2.06c-0.15,0.094 -0.322,0.262 -0.352,0.292c-3.429,1.153 -4.444,1.719 -6.115,2.233c-1.671,0.514 -3.92,0.908 -8.76,1.468l4.172,-1.765c-11.817,0.469 -9.325,2.923 -19.047,3.116c3.851,0 4.03,-1.244 1.115,-1.115c-12.113,2.181 -12.296,2.9 -20.814,6.408l1.41,-2.116c-9.723,1.98 -27.666,5.31 -29.973,3.526c0.521,1.092 -1.758,1.847 -5.363,2.353c-1.971,0.3 -4.412,0.544 -6.937,0.703c-2.399,0.119 -4.926,0.223 -7.407,0.352c-4.413,0.682 -8.578,1.275 -11.23,1.706c3.035,-0.644 3.539,-1.59 3.762,-2.058c-6.549,2.098 -13.226,3.606 -19.992,4.763l-10.17,1.589l-10.762,1.531l-8.702,0.352l-8.409,0.527l-3.235,-2.646c-10.147,0.813 -12.647,6.679 -23.694,7.405l3.937,-1.706c-4.585,0.385 -8.695,0.864 -10.879,1.057c-3.807,-0.77 -7.159,-1.457 -10.287,-2.058c-2.783,-0.556 -5.349,-1.09 -7.88,-1.65c-5.048,-1.111 -9.93,-2.211 -16.051,-3.585l0.703,-1.823c-2.483,-0.09 -5.212,-0.475 -7.997,-0.763c-2.913,-0.343 -5.888,-0.694 -8.585,-1.057c-1.883,-0.462 -2.099,-0.485 -2.999,-0.644c-3.51,-2.829 -9.934,-5.408 -17.815,-7.939c-3.893,-1.197 -8.289,-2.512 -12.697,-3.879c-2.182,-0.689 -4.417,-1.315 -6.644,-2l-7.405,-2.469c-2.44,-1.322 -4.838,-2.549 -7.232,-3.879c-2.142,-1.2 -4.216,-2.537 -6.232,-3.823c-4.115,-2.571 -7.889,-5.215 -11.054,-7.997l-2.999,2.411c-2.741,-1.497 -5.787,-3.175 -8.702,-4.763c-1.446,-0.817 -2.8,-1.655 -4.174,-2.469c-1.239,-0.727 -2.986,-1.852 -2.763,-1.882c-0.21,-0.212 0.112,-0.16 -0.529,-0.353c-0.512,-0.253 -0.951,-0.538 -1.351,-0.761c-0.9,-0.516 -1.663,-1.09 -2.175,-1.65l1.882,0.588c1.583,-2.438 -8.703,-2.341 -14.053,-4.35c-4.197,-0.771 -8.779,-0.102 -5.351,1.351c-3.812,-1.282 -7.95,-2.593 -12.23,-3.879c-4.796,-1.322 -9.79,-2.74 -14.758,-4.114c-4.322,-2.956 -8.663,-5.91 -12.817,-8.821c-3.772,-2.654 -7.41,-5.265 -10.877,-7.704c-6.805,-4.965 -12.558,-9.545 -16.109,-13.227c-0.559,-0.339 -1.059,-0.716 -1.531,-0.939c-1.194,-1.158 -2.444,-2.3 -3.641,-3.409c-1.067,-0.987 -2.102,-1.939 -3.174,-2.882c-2.055,-1.886 -4.088,-3.685 -6.056,-5.527c-4.109,-3.555 -7.966,-7.035 -11.993,-10.586c-3.936,-3.515 -7.946,-7.162 -12.054,-11.054c-4.28,-3.725 -8.661,-7.644 -13.286,-12.052l0.529,-0.058c-6.081,-6.332 -18.209,-19.026 -16.109,-21.168c-14.131,-12.415 -25.48,-17.823 -40.807,-34.393l4.291,2.587c-0.604,-0.689 -1.216,-1.332 -1.942,-2.058c-0.899,-0.817 -1.878,-1.789 -2.821,-2.647c-1.33,-1.881 -1.877,-2.425 -2.647,-3.409c-0.77,-0.863 -1.417,-1.641 -2.058,-2.411c-1.371,-1.497 -2.487,-2.756 -2.999,-3.352c-1.072,-1.669 0.262,-0.763 0.822,-0.763c-2.186,-5.05 -5.327,-6.803 -7.939,-10.228l1.765,0.941c-1.755,-3.429 -3.958,-7.001 -6.527,-10.762c-1.286,-1.888 -2.63,-3.802 -3.997,-5.764c-1.588,-2.142 -3.212,-4.332 -4.881,-6.642c-2.955,-6.423 -6.088,-13.136 -9.172,-19.817c-2.955,-6.468 -5.756,-13.017 -8.114,-19.225c1.883,3.812 2.1,1.342 1.941,-0.41c-0.679,-0.769 -1.505,-1.783 -2.231,-2.94c-0.34,-0.556 -0.686,-1.124 -1.117,-1.765c-0.383,-0.771 -0.557,-0.999 -1.29,-2.587c-0.516,-1.544 -1.124,-3.168 -1.765,-4.881c-0.472,-1.544 -1.029,-3.178 -1.589,-4.766c-0.94,-3.296 -1.898,-6.7 -2.882,-9.995c-1.799,-6.546 -3.409,-12.63 -4.647,-16.226l2.706,5.412c-3.602,-9.421 -3.44,-13.076 -3.762,-18.169c0.081,-4.585 0.262,-8.169 -2.177,-16.816l-0.234,10.821c-0.684,-7.579 -2.266,-13.827 -3.468,-11.818c-0.298,-8.862 2.325,-1.494 0.527,-14.641c0.811,-0.726 2.135,9.376 2.647,4.881l-0.41,-18.579v-0.058c0.096,-0.164 -0.046,-1.392 -0.175,-2.292c-0.476,-1.196 -1.13,-2.96 -2.119,-5.527c-3.38,2.917 -5.371,-14.235 -6.056,-4.174c-2.31,-6.207 -4.364,-12.249 -6.291,-18.109c-1.928,-6.036 -3.803,-11.905 -5.645,-17.64c-0.467,-3.037 -0.92,-5.922 -1.351,-8.877c-0.514,-2.786 -0.996,-5.548 -1.468,-8.29c-1.025,-5.439 -2.19,-10.861 -3.643,-16.168c0.383,-1.712 0.453,-4.051 0.294,-6.878c-0.108,-1.458 -0.37,-3.046 -0.529,-4.586c-0.13,-0.818 -0.227,-1.614 -0.292,-2.472c-0.197,-1.193 -0.429,-2.463 -0.588,-3.701c1.07,-3.467 2.161,-7.019 3.233,-10.404c0.984,-2.994 1.865,-5.873 2.765,-8.231c1.761,-4.754 3.47,-7.684 4.881,-6.527c3.554,-12.118 5.81,-22.037 5.41,-30.219c1.018,-5.881 2.063,-12.205 3.118,-16.285c-0.987,8.347 -2.989,21.715 -3.118,28.396c2.787,-11.129 4.486,-27.278 5.47,-33.571l3.351,-2.177c0.385,-9.503 3.823,-7.583 3.823,-16.402c-0.032,-0.171 -0.028,-0.303 -0.058,-0.703c-0.18,0.309 -0.37,0.427 -0.529,0.586c-0.21,0.21 -0.451,0.441 -0.644,0.763c0.064,-0.299 0.206,-0.629 0.236,-0.822c2.504,-16.183 0.06,-17.424 2.116,-33.396l0.941,0.939c0.557,-2.184 0.693,-4.843 0.822,-7.585c0.063,-1.368 0.046,-2.749 0.175,-4.116l0.352,-2.058c0.18,-0.856 0.34,-1.597 0.469,-2.411c0.468,-1.158 0.736,-1.841 1.058,-2.353c0.343,-0.6 0.832,-1.017 1.232,-1.529l-1.349,4.114l-0.999,7.23c1.202,-0.557 2.311,-3.217 3.468,-6.642c1.286,-2.487 2.216,-4.246 3.116,-5.705c3.034,-11.046 -1.655,-4.788 -0.115,-10.348c2.398,-1.714 1.101,-0.226 1.529,4.057c1.501,-5.651 3.223,-12.153 4.763,-18.403c0.769,-3.127 1.464,-6.191 2.06,-9.053c0.599,-3.172 1.176,-6.06 1.648,-8.585c0.941,-1.582 1.455,-2.722 1.648,-3.411c0.547,-0.299 0.586,0.471 0.586,0.471c8.134,-10.492 12.542,-21.85 18.579,-27.457l-1.351,2.231c1.84,-1.498 3.588,-3.449 5.176,-5.586l2.292,-3.409c0.814,-1.116 1.577,-2.287 1.706,-2.647c0.041,-0.468 0.752,-2.607 1.115,-3.937c0.517,-1.452 1.002,-2.841 1.47,-3.998c0.987,-2.311 1.998,-3.778 3.409,-3.937c2.479,-4.407 -4.077,10.629 0.763,3.823c6.721,-14.344 0.103,-11.052 6.056,-23.638c-0.773,1.721 -0.334,1.23 -0.175,2c1.67,-4.926 3.695,-10.611 5.879,-16.818c4.496,-4.198 9.385,-8.798 13.88,-12.991c3.51,-1.671 7.56,-4.532 11.759,-7.999c2.057,-1.798 4.224,-3.685 6.408,-5.527c2.055,-1.839 4.176,-3.747 6.232,-5.586c1.204,-1.842 2.385,-3.672 3.587,-5.47c1.282,-1.967 2.549,-3.877 3.879,-5.586c2.654,-3.597 5.3,-6.778 7.997,-9.172c-3.696,3.099 0.081,-3.193 0.163,-4.399c0.059,0.191 0.202,0.424 0.595,0.161c3.138,-4.666 2.331,-6.014 3.057,-8.114c0.981,-0.899 1.971,-2.405 2.999,-4.114c1.069,-1.969 2.28,-4.144 3.352,-6.115c1.196,-1.414 2.349,-2.753 3.292,-3.821c0.853,-0.899 1.696,-1.654 2.292,-1.942c-0.599,-0.727 2.83,-3.661 6.466,-7.171c-6.59,7.807 -0.923,3.687 -3.233,7.88c11.299,-10.145 9.746,-14.995 21.693,-25.399l3.057,-1.942l1.589,-0.997l2.116,-1.529l2.353,-0.705c0.689,-3.256 14.284,-8.302 13.643,-9.112c2.825,-0.258 6.612,-1.514 6.642,-0.061c5.475,-3.213 14.71,-5.942 16.462,-8.467l-6.056,2c4.582,-1.798 9.173,-4.017 12.172,-5.645c9.293,-6.423 16.825,-13.132 26.93,-17.757l1.823,3.526c2.872,-1.154 5.322,-2.663 7.587,-4.291c2.4,-1.798 4.672,-3.446 6.937,-5.115l2.882,-1.115c0.769,-0.302 1.655,-0.629 2.469,-0.822c1.625,-0.406 3.317,-0.733 5.115,-0.763c-3.301,-0.345 -3.739,0.242 2,-3.057c-1.457,0.389 -3.386,1.041 -5.527,1.941c-1.03,0.383 -2.09,0.879 -3.292,1.351c-1.286,0.471 -2.623,1.017 -3.997,1.529c-1.28,0.857 -2.651,1.775 -3.937,2.589c1.11,-0.986 1.759,-1.763 3.641,-3.174c2.487,-1.072 3.234,-1.583 4.822,-2.353l4.172,-2.292l-9.407,3.641l-10.348,7.115c6.892,-6.082 6.571,-5.441 2.589,-4.881c1.113,-0.857 2.127,-1.651 3.116,-2.292c0.468,-0.297 0.979,-0.659 1.41,-0.882c0.771,-0.422 1.488,-0.866 2.177,-1.29c0.726,-0.198 1.39,-0.451 2.116,-0.644c0.383,-0.13 0.776,-0.163 1.176,-0.292c0.771,-0.149 1.43,-0.342 2.119,-0.471c1.367,-0.3 2.555,-0.473 3.879,-0.761c2.654,-0.553 5.654,-1.353 9.934,-3.409c4.411,-0.855 0.473,1.944 5.527,1.174c4.282,-2.055 8.741,-3.051 12.937,-3.821c2.142,-0.427 4.202,-0.795 6.173,-1.117c2.058,-0.516 3.327,-0.898 5.939,-1.882c-0.686,0.342 -1.045,0.663 -0.822,0.822c0.302,-0.193 0.681,-0.287 0.939,-0.352c3.558,-0.231 6.58,-0.37 8.938,-0.529c2.272,-0.215 4.003,-0.57 4.94,-1.174l-5.995,-0.294c5.266,0 6.11,-1.621 16.168,-0.939c4.337,-0.767 7.248,-2.108 5.762,-2.704c2.323,0.293 4.449,0.802 3.116,1.648c6.68,-0.129 9.034,-0.995 10.703,-1.765c0.855,-0.383 1.485,-0.77 2.469,-1.058c0.347,-0.159 1.241,-0.287 1.529,-0.352c0,-0.032 0.046,-0.088 0.175,-0.058c0.094,-0.03 0.107,-0.03 0.236,0c0.214,-0.033 1.644,-0.637 2.587,-0.997c-0.842,0.551 -1.716,1.32 -1.115,1.29c2.412,-1.086 4.426,-2.129 6.173,-3.148c-3.109,2.048 -2.084,2.254 -1.293,2.441c0.481,0.036 0.854,0.203 0.294,0.763c-0.342,0.255 -0.865,0.605 -1.765,1.117c-0.512,0.21 -1.08,0.576 -1.765,0.939c-0.603,0.302 -1.572,0.792 -1.765,0.822c0.21,0.249 0.415,0.352 0.703,0.352c0.472,-0.044 0.948,-0.276 1.589,-0.469c1.201,-0.518 2.676,-1.186 4.172,-2c2.956,-1.709 6.191,-3.735 8.585,-4.588c6.084,-4.964 -0.685,-3.171 2.177,-5.998c0.301,0.64 3.058,-0.813 6.525,-2.353l-3.997,0.294c2.826,-1.544 5.551,-2.992 8.76,-5.176l-5.291,3.641c2.353,-1.153 5.366,-2.311 8.704,-3.641c1.669,-0.686 3.392,-1.505 5.234,-2.231c0.898,-0.467 1.91,-0.927 2.938,-1.351c1.527,-0.81 3.037,-1.641 4.647,-2.528zM704.198,219.518c-13.254,0.197 -20.806,3.288 -42.206,12.697c-36.635,16.108 -45.349,16.259 -45.112,0.784c0.084,-5.85 -0.651,-10.637 -1.642,-10.637c-5.536,0 -16.089,14.177 -16.089,21.614c0,20.966 21.895,22.228 67.698,3.904c25.515,-10.206 27.64,-10.438 52.698,-5.753c38.763,7.244 73.234,28.066 85.106,51.405c5.155,10.135 9.374,21.418 9.374,25.07h-0.007c0,3.653 1.08,5.562 2.393,4.247c1.317,-1.316 2.296,-14.018 2.243,-28.226c-0.123,-21.265 -1.843,-28.053 -9.736,-38.402c-15.886,-20.829 -42.677,-32.53 -81.275,-35.497c-10.217,-0.786 -17.421,-1.293 -23.446,-1.204zM270.011,220.09c-1.552,0 -2.666,0.152 -3.209,0.488c-1.243,0.767 -17.955,3.301 -37.135,5.634c-33.831,4.111 -35.335,4.73 -50.262,20.697c-11.568,12.375 -16.121,21.118 -18.354,35.235c-1.634,10.327 -1.992,21.319 -0.8,24.427h0.002c1.194,3.109 2.765,5.65 3.496,5.65c0.731,0 7.524,-9.333 15.096,-20.742c18.969,-28.577 44.353,-45.994 75.596,-51.865c27.917,-5.248 40.333,-3.1 70.921,12.264c22.036,11.068 45.16,12.668 48.727,3.374c4.485,-11.687 2.355,-20.736 -6.311,-26.806c-12.574,-8.807 -22.331,-7.955 -19.796,1.732c1.664,6.362 0.119,7.813 -8.318,7.813c-5.698,0 -14.253,-2.508 -19.013,-5.575c-7.507,-4.837 -39.777,-12.33 -50.638,-12.329zM547.858,245.885c-4.048,-0.006 -9.101,0.242 -15.687,0.614c-39.136,2.212 -39.238,2.414 -37.754,78.104c0.658,33.671 2.516,62.53 4.128,64.138c5.379,5.36 101.775,17.629 105.922,13.482c2.127,-2.125 5.245,-15.313 6.929,-29.306c2.5,-20.762 5.86,-29.228 18.254,-46.005c18.576,-25.144 23.823,-29.639 40.052,-34.293c39.334,-11.281 89.623,31.978 89.623,77.094c0,11.518 -21.079,38.477 -34.848,44.572c-6.615,2.931 -12.03,6.653 -12.034,8.278v0.002c0.007,6.719 30.676,2.56 43.037,-5.838c17.368,-11.799 39.006,-43.99 39.006,-58.025c0,-15.231 -26.372,-81.434 -36.829,-92.451c-11.263,-11.869 -37.649,-16.13 -65.103,-10.515c-26.189,5.356 -25.018,4.684 -63.659,36.556c-18.577,15.325 -33.005,30.67 -36.342,38.659c-9.095,21.767 -23.951,32.602 -41.839,30.516c-22.113,-2.58 -31.019,-13.279 -31.371,-37.687c-0.239,-16.562 1.318,-21.355 8.934,-27.527c11.351,-9.199 13.134,-9.235 23.941,-0.483c5.881,4.762 9.294,12.839 10.701,25.334c1.869,16.573 1.171,18.72 -7.225,22.232c-8.414,3.522 -8.001,3.804 4.358,2.991c12.678,-0.835 14.175,-2.356 20.97,-21.32c9.834,-27.441 6.279,-52.579 -9.691,-68.55c-8.234,-8.232 -11.327,-10.553 -23.472,-10.572zM445.43,245.933c-13.007,-0.025 -26.4,1.894 -33.458,5.545c-31.235,16.15 -27.388,84.362 5.533,98.117c16.623,6.945 24.724,3.96 15.853,-5.841c-6.601,-7.293 -10.28,-27.76 -7.147,-39.741c1.198,-4.575 5.384,-7.423 10.912,-7.423c8.025,0 9.342,2.576 12.487,24.417c4.297,29.833 1.244,36.971 -17.304,40.451c-19.688,3.694 -32.373,-4.131 -43.137,-26.613c-7.435,-15.533 -15.77,-23.175 -54.695,-50.152l-45.922,-31.826l-28.959,2.076c-23.489,1.682 -30.619,3.782 -37.746,11.117c-11.972,12.323 -36.825,74.211 -36.825,91.7c0,18.67 16.207,43.945 36.692,57.227l-0.002,-0.012c11.335,7.349 21.216,10.407 33.632,10.408c23.1,0.003 32.562,-5.671 15.234,-9.136c-21.909,-4.383 -46.661,-21.458 -52.962,-36.538c-12.714,-30.425 5.056,-60.485 48.297,-81.707c25.038,-12.287 46.145,-10.337 60.305,5.57c5.068,5.696 6.19,8.035 2.49,5.202c-3.7,-2.833 -12.848,-6.532 -20.33,-8.219c-11.65,-2.627 -17.133,-1.014 -38.194,11.232c-22.965,13.352 -24.949,15.638 -30.011,34.575c-7.774,29.079 -2.462,39.722 26.808,53.711c28.447,13.597 53.841,12.006 71.017,-4.448c14.006,-13.417 16.365,-26.003 9.68,-51.627l-5.468,-20.956l11.227,11.227c9.078,9.078 11.713,15.893 13.775,35.623c3.839,36.727 3.067,36.351 58.278,28.543c25.893,-3.66 49.186,-7.964 51.765,-9.556c3.35,-2.068 4.689,-21.833 4.689,-69.178v-66.28l-10.021,-3.811c-6.486,-2.466 -16.37,-3.659 -26.487,-3.678zM677.644,299.688c-3.387,-0.021 -6.503,0.314 -9.195,1.057c-21.824,6.025 -32.216,18.594 -37.475,45.326c-3.003,15.251 -3.388,27.061 -1.083,33.035c4.38,11.346 19.228,25.371 29.812,28.157h0.002c25.208,6.637 68.579,-12.4 75.864,-33.299c6.634,-19.03 5.128,-40.005 -3.678,-51.2c-9.805,-12.466 -35.961,-22.961 -54.248,-23.077zM708.54,357.577c0,10.495 -2.254,14.211 -11.527,19.007v-0.002c-6.34,3.278 -12.054,5.839 -12.698,5.713c-14.914,-3.156 -30.472,-19.16 -30.472,-31.348c0,-3.53 3.644,-11.049 8.098,-16.711c5.225,-6.642 11.735,-9.748 18.217,-9.974c14.26,-0.497 28.382,12.943 28.382,33.315zM296.282,327.454c6.004,0.199 12.237,2.775 17.67,8.209c10.557,10.559 9.836,25.679 -1.777,37.293c-17.847,17.844 -41.197,7.998 -41.197,-17.376c0,-17.493 12.096,-28.565 25.304,-28.127zM443.073,405.983c-14.601,0 -14.82,2.4 -1.489,16.315c8.863,9.251 9.798,12.268 6.226,20.106c-6.619,14.526 -26.926,22.21 -47.907,18.127c-37.451,-7.287 -50.524,-4.995 -91.91,16.117c-58.065,29.62 -99.525,30.972 -99.525,3.247c0,-11.537 12.033,-27.787 23.377,-31.568c7.686,-2.563 1.154,-11.091 -8.496,-11.091c-10.312,0 -33.333,14.121 -38.372,23.535c-9.479,17.714 -0.327,57.758 15.085,66.006c5.725,3.063 27.435,2.63 79.31,-1.579c39.46,-3.2 72.918,-4.306 74.762,-2.462c1.833,1.835 3.702,5.766 4.15,8.732c0.448,2.966 2.147,7.524 3.774,10.128v0.002c3.606,5.771 52.235,3.922 58.376,-2.219c2.24,-2.239 5.162,-10.755 6.492,-18.922l2.423,-14.847l21.936,1.307c28.219,1.683 34.565,-5.783 34.565,-40.664c0,-42.205 -12.821,-60.268 -42.78,-60.268zM537.367,406.005c-17.965,0.145 -34.07,15.191 -39.824,39.179c-9.395,39.157 0.817,59.115 31.838,62.229c17.573,1.764 20.829,3.298 20.287,9.556c-1.228,14.171 5.742,25.141 17.048,26.842v-0.002c32.449,4.885 51.968,1.55 51.968,-8.877c0,-14.492 8.515,-15.891 49.352,-8.11c30.051,5.727 47.298,6.825 75.626,4.822l36.696,-2.593l12.91,-21.489c21.649,-36.029 14.11,-61.662 -20.018,-68.065c-25.67,-4.816 -26.447,1.055 -4.172,31.499c6,8.2 -2.423,18.211 -20.781,24.7c-19.885,7.028 -45.22,1.592 -68.504,-14.7c-45.463,-31.811 -71.642,-38.25 -107.33,-26.396c-26.047,8.652 -41.273,7 -42.93,-4.657c-1.455,-10.25 12.901,-32.237 21.049,-32.237c7.52,0 7.12,-6.391 -0.588,-9.35c-4.24,-1.627 -8.484,-2.387 -12.63,-2.353zM243.989,546.626c-13.189,0 -19.894,14.808 -19.894,43.942c0,23.195 1.864,30.09 14.651,54.198c8.058,15.193 19.931,37.741 26.386,50.11c19.77,37.882 13.115,35.371 93.747,35.371c77.368,0 83.467,1.633 78.595,21.047c-4.256,16.953 -44.513,24.358 -60.786,11.18c-4.647,-3.763 -8.949,-10.262 -9.564,-14.439c-2.956,-20.134 -25.827,-2.788 -25.827,19.584c0,18.669 5.924,28.614 20.818,34.953v0.01c9.322,3.969 25.456,4.723 65.134,3.05c29.008,-1.222 53.621,-3.009 54.695,-3.972c3.3,-2.958 -0.059,-64.61 -4.411,-80.932c-2.257,-8.463 -9.663,-20.951 -16.457,-27.745c-11.512,-11.511 -14.842,-12.545 -48.841,-15.206c-20.068,-1.581 -51.011,-1.66 -68.76,-0.178l-32.272,2.688l-30.55,-44.185c-30.959,-44.774 -40.258,-68.317 -32.624,-82.582c2.946,-5.509 2.132,-6.892 -4.041,-6.892zM724.167,556.396c2.15,1.328 3.906,9.006 3.906,17.064c0,14.595 -16.041,46.053 -36.008,70.608c-4.907,6.031 -11.812,16.282 -15.344,22.777c-6.345,11.661 -6.926,11.84 -46.882,14.361c-22.25,1.397 -55.566,2.024 -74.033,1.379c-39.241,-1.371 -42.223,0.257 -54.099,29.518c-6.819,16.812 -8.156,27.06 -7.227,55.519l1.139,34.902l35.161,2.193v-0.004c81.14,5.059 79.657,5.219 94.278,-10.283c8.027,-8.511 13.159,-17.936 13.159,-24.167c0,-13.231 -14.281,-28.297 -26.823,-28.297c-9.463,0 -9.544,0.209 -2.245,5.631c6.071,4.51 6.721,7.041 3.251,12.698c-2.383,3.885 -6.34,6.89 -8.791,6.674c-2.453,-0.214 -13.792,-0.651 -25.199,-0.973c-25.897,-0.731 -36.797,-7.511 -30.625,-19.043c6.974,-13.034 25.653,-16.705 84.956,-16.705h55.868l9.493,-12.698c5.222,-6.982 13.283,-20.609 17.913,-30.277c4.63,-9.669 16.151,-30.54 25.602,-46.381c9.451,-15.841 18.332,-35.58 19.73,-43.867c5.178,-30.645 -6.672,-50.395 -30.237,-50.395c-10.775,0 -14.428,5.139 -6.943,9.766zM554.508,566.769c-2.22,16.731 -0.769,23.262 10.957,49.382c7.432,16.554 17.847,34.935 23.147,40.843h0.004c5.299,5.909 13.241,10.746 17.648,10.746c7.741,0 7.989,-1.902 7.286,-56.637l-0.729,-56.637l-11.719,-1.767c-6.445,-0.97 -18.991,-2.541 -27.878,-3.487l-16.158,-1.72zM403.999,550.536c-8.182,0 -19.989,1.021 -26.239,2.272l-11.363,2.274l0.159,47.538c0.073,26.147 -1.376,52.375 -3.221,58.283h-0.03c-2.701,8.659 -2.133,10.744 2.931,10.744c16.029,0 51.517,-53.803 55.263,-83.785c3.808,-30.464 0.588,-37.326 -17.498,-37.326z" /></svg>