<svg xmlns="http://www.w3.org/2000/svg" viewBox="0 0 953 960" width="953" height="960"><path d="M560.484,888.506c0.006,0.009 0.01,0.016 0.02,0.026c-0.098,0.041 -0.103,0.025 -0.02,-0.026z" /> <path d="M622.858,860.75c0.097,-0.09 0.139,-0.109 0.157,-0.109c-0.063,0.047 -0.09,0.059 -0.157,0.109z" /> <path d="M758.384,721.886c-1.103,0.855 -1.849,1.448 -2.423,1.837c0.804,-0.62 1.608,-1.245 2.423,-1.837z" /> <path d="M427.768,0.521v0.012h0.061c1.137,0.143 2.287,0.226 3.468,0.353l2.999,0.175c1.41,0.03 2.832,0.03 4.291,0c-3.257,0.389 -9.799,1.058 -1.708,2.646c13.4,0.166 3.056,0.941 10.464,2.823c13.267,0.833 2.512,-2.668 21.989,0.117c2.1,0.212 0.21,-0.888 -1.882,-1.529c4.495,0.678 8.734,1.097 11.818,1.29c6.551,0.084 12.955,-0.057 21.343,0.88c-5.689,-0.516 -10,-1.076 -2.294,-1.765c-3.34,1.286 10.573,1.41 15.58,2.353l1.351,-0.822c4.021,0.946 -0.229,1.247 -3.528,1.47c0.09,-0.308 -1.087,-0.559 -3.526,-0.529c-6.422,0.555 -4.107,3.642 5.998,4.114c10.871,-0.639 9.117,-2.731 7.23,-3.584c1.371,0.094 2.569,0.175 3.641,0.175c1.238,0 2.324,-0.058 3.352,-0.058c1.666,0.256 2.29,0.262 3.233,0.292c0.814,0.03 1.685,0.03 2.411,0c1.504,-0.065 2.774,-0.169 4.233,-0.234c2.869,-0.088 6.104,0.078 11.583,1.706c3.127,0.554 12.848,5.768 22.696,7.997c5.433,-0.813 -12.107,-3.748 -6.115,-4.172c3.898,1.878 7.946,3.275 12.229,3.879c4.366,0.556 8.838,0.751 13.463,0.88c9.331,0.302 19.27,0.392 29.928,3.174l-2.999,1.882c2.439,0.427 4.838,0.717 7.405,1.117c1.501,0.771 3.063,1.583 4.647,2.353c1.374,0.648 2.795,1.3 4.291,1.941l-6.349,-4.527c5.093,1.971 15.467,7.625 11.23,7.466c11.128,3.514 12.86,5.57 22.282,10.878c-10.188,-5.225 -0.05,-0.401 -8.056,-3.057c4.409,2.742 7.113,4.253 9.465,5.41c1.155,0.514 2.252,1.002 3.409,1.47c1.244,0.472 2.515,0.948 4.055,1.589c0.598,0.43 1.488,1.149 2.472,1.882c-1.54,-0.302 0.97,3.471 3.409,5.527c6.805,3.98 16.663,12.882 25.396,19.342l-0.41,0.471l3.528,2.823l2.997,2.586c3.508,1.111 6.929,2.266 10.525,3.468l11.288,3.762c7.536,2.439 15.059,4.674 22.637,5.998c0.383,0.065 0.752,0.204 1.115,0.234l-1.589,-0.588c-2.228,-1.684 -0.552,-1.626 5.998,0c1.883,2.357 4.094,5.209 6.231,7.821c1.8,2.229 3.473,4.279 4.586,5.351c0.298,1.324 -0.062,2.297 1.825,4.822c1.708,-1.028 5.095,5.029 7.405,6.525c3.209,5.437 -2.378,0.848 4.172,9.407c2.649,3.257 3.755,2.96 4.115,2.06c0.168,1.065 1.434,3.578 2.292,5.291c1.195,1.626 3.811,4.322 5.82,6.29c-1.799,-0.939 -3.619,-3.521 -4.647,-4.291c-1.246,0.302 1.791,2.626 0.763,3.526c3.639,3.555 2.803,0.03 6.997,4.822l-5.412,-2.823c1.588,2.011 4.442,3.638 5.47,4.408c-1.587,-1.131 -2.52,-1.28 -3.116,-1.057l5.468,5.115c1.784,-0.297 -0.845,-5.084 0.352,-5.644c4.197,4.624 8.414,8.26 12.522,11.641c2.055,1.63 4.129,3.282 6.056,4.822l2.882,2.353l3.291,2.763l2.411,3.233l-2.704,-0.703c3.172,4.154 4.892,6.062 6.644,7.171l4.527,6.761c-3.166,-3.494 -4.587,-4.432 -5.998,-3.879c5.31,6.85 11.58,16.856 14.875,17.284l-0.469,-0.058c5.524,10.105 19.206,29.82 18.049,29.691c7.834,9.504 15.779,23.067 18.051,21.87c4.838,5.523 8.737,17.186 14.346,19.58c3.894,7.962 -0.207,0.716 -3.291,-0.352c3.94,8.006 12.514,12.616 11.405,17.111c7.189,7.837 -0.895,-2.454 2.53,-0.527c-0.428,0.853 0.222,2.407 1.29,4.289c0.129,6.676 2.645,17.303 2.177,24.752c1.883,4.064 0.296,-4.402 2.647,2.704c-0.915,-0.602 -0.605,3.307 -0.412,5.234l2.294,1.648l-2.647,7.113l1.174,8.35l0.117,0.352c2.228,1.586 0.317,-4.425 6.997,8.29l-0.705,-0.941c0.258,5.605 7.3,11.717 11.583,24.988c-1.588,-4.492 -1.725,-1.36 -2.882,-2.469l3.998,6.642c-0.403,-0.591 -0.717,-0.814 -0.588,0c0.9,4.283 1.874,4.977 3.116,7.114c0.551,1.503 1.011,3.031 1.234,6.115c-0.689,-2.054 -1.341,-2.923 -1.765,-3.116l2.823,10.464l1.174,2.231l-0.763,-0.644l8.821,32.926l-9.994,49.093l0.352,1.115c0.212,0.064 0.51,0.087 0.703,0.117l2.353,6.7c0.99,-0.56 0.298,-5.431 -0.471,-8.467c-0.084,-2.999 6.277,10.174 8.763,17.58c5.221,20.289 -2.53,5.165 0.469,19.166l2.413,6.173l1.115,3.057v-0.175l1.41,3.937l-0.644,3.641l-0.352,2.706h-1.174c-1.367,2.742 -0.559,4.552 -0.529,5.41c-1.238,-1.629 -4.047,14.533 -6.056,21.811l1.942,-2.353c-1.836,21.108 -10.866,31.454 -12.875,47.977l-0.234,11.876l-2.472,1.942c0,1.629 -0.115,2.957 -0.115,4.114c-0.343,4.409 -0.281,6.991 -3.409,15.169c-2.138,5.222 -4.188,10.496 -6.115,15.933l-2.823,8.114l-2.823,8.702c-9.588,14.769 -17.416,27.98 -26.751,42.92l-7.114,6.995l-6.7,6.7c-4.542,4.325 -9.091,8.648 -13.758,12.756c0.273,-0.036 0.616,-0.224 1.044,-0.515c-3.673,2.836 -7.159,5.86 -9.689,8.215c-4.413,7.106 -8.198,15.012 -11.407,22.165c-1.587,3.641 -3.234,7.224 -4.822,10.82l-2.411,5.412l-1.351,2.704l-2.116,3.937c-1.669,1.284 -3.424,2.535 -5.176,3.821c-1.41,0.939 -2.832,1.912 -4.291,2.94c-2.954,1.927 -6.04,3.787 -9.465,5.585l1.293,-1.823c-12.844,9.545 1.368,-1.946 -8.819,3.879c-0.255,3.385 -15.759,13.038 -22.224,19.758c0.817,-1.286 3.305,-3.214 5.232,-5.176c-1.712,0.644 -3.128,-0.093 -6.466,3.116c-2.439,3.725 -6.779,8.15 -11.876,12.817c-2.611,2.228 -5.271,4.556 -8.056,6.995c-2.611,2.182 -5.254,4.46 -7.821,6.644c-1.883,2.482 -3.636,4.899 -5.349,7.171c-2.483,0.424 -12.695,10.319 -19.461,14.17c-0.6,1.673 -1.597,4.796 -2.411,7.704c-1.585,1.286 -2.869,2.563 -3.937,3.937c-0.644,0.771 -1.265,1.623 -1.825,2.353c-0.689,0.936 -1.359,1.863 -2,2.763c-1.799,0.69 -4.208,1.605 -5.41,2.294l5.881,-1.589l6.936,-8.469c-0.032,0.183 -0.063,0.342 -0.063,0.471c0.254,-0.471 0.803,-1.202 1.234,-1.884c1.923,-2.322 3.021,-3.781 2.922,-3.811c5.08,-3.752 0.581,1.325 2.312,2.168c-1.325,1.632 -3.334,3.947 -5.176,6.173c-0.943,1.156 -1.842,2.205 -2.704,3.233c-1.54,1.748 -2.948,3.238 -4.057,4.348c-1.929,0.391 -3.2,0.512 -3.76,0.353c-3.086,0.753 -3.621,0.886 -5.117,1.174c-1.323,0.255 -2.663,0.534 -4.289,0.822c-1.885,0.773 -4.051,1.453 -6.409,1.884l0.999,-0.412c-0.42,-0.128 -0.898,-0.145 -1.41,-0.175c-4.925,0.86 -10.519,2.816 -15.874,5c-2.697,1.114 -5.333,2.205 -7.819,3.233c-1.235,0.559 -2.441,1.117 -3.643,1.589c-0.516,0.254 -1.036,0.51 -1.589,0.703c-0.032,0.119 -0.058,0.287 -0.058,0.352c-0.031,-0.119 -0.058,-0.257 -0.058,-0.352c-0.03,-0.512 0.129,-1.063 0,-1.351c-0.255,-0.295 -0.467,-0.483 -0.939,-0.642c-0.254,-0.379 -2.508,0.428 -2.92,-0.208c0.097,-0.042 0.286,-0.14 0.565,-0.322c0.344,-0.165 0.938,-0.525 1.708,-0.997c3.768,-0.942 10.339,-2.706 17.872,-4.588c-1.028,0.042 -1.716,-0.074 -2.116,-0.586c-3.127,0.258 -5.887,0.878 -8.584,1.648c-1.374,0.424 -2.683,0.935 -4.057,1.407c-1.413,0.423 -2.956,1.005 -3.468,1.293l-0.999,0.763l-1.589,1.234c-1.194,0.855 -2.355,1.643 -3.641,2.586c-2.53,1.713 -5.391,3.568 -8.819,5.41c0.77,-0.728 2.377,-2.163 1.349,-2.292c-5.221,2.784 -9.029,6.843 -9.582,8.469c-1.07,-0.339 -4.433,0.938 -8.114,2.821c-1.884,0.942 -3.787,2.116 -5.585,3.233c-0.862,0.599 -1.76,1.077 -2.53,1.589c-0.984,0.726 -1.89,1.464 -2.704,2.06c-0.15,0.094 -0.322,0.262 -0.352,0.292c-3.429,1.153 -4.444,1.719 -6.115,2.233c-1.671,0.514 -3.92,0.908 -8.76,1.468l4.172,-1.765c-11.817,0.469 -9.325,2.923 -19.047,3.116c3.851,0 4.03,-1.244 1.115,-1.115c-12.113,2.181 -12.296,2.9 -20.814,6.408l1.41,-2.116c-9.723,1.98 -27.665,5.31 -29.972,3.526c0.521,1.092 -1.758,1.847 -5.363,2.353c-1.97,0.3 -4.411,0.544 -6.936,0.703c-2.399,0.119 -4.926,0.223 -7.407,0.352c-4.413,0.682 -8.578,1.275 -11.23,1.706c3.035,-0.644 3.539,-1.59 3.762,-2.058c-6.549,2.098 -13.225,3.606 -19.991,4.763l-10.17,1.589l-10.761,1.531l-8.702,0.352l-8.409,0.527l-3.235,-2.646c-10.148,0.813 -12.647,6.679 -23.694,7.405l3.937,-1.706c-4.584,0.385 -8.694,0.864 -10.878,1.057c-3.807,-0.77 -7.159,-1.457 -10.287,-2.058c-2.782,-0.556 -5.348,-1.09 -7.879,-1.65c-5.047,-1.111 -9.929,-2.211 -16.05,-3.585l0.703,-1.823c-2.483,-0.09 -5.212,-0.475 -7.997,-0.763c-2.912,-0.343 -5.887,-0.694 -8.584,-1.057c-1.883,-0.462 -2.099,-0.485 -2.999,-0.644c-3.51,-2.828 -9.935,-5.407 -17.815,-7.938c-3.892,-1.197 -8.288,-2.512 -12.696,-3.879c-2.182,-0.689 -4.418,-1.315 -6.644,-2l-7.405,-2.469c-2.44,-1.323 -4.838,-2.549 -7.232,-3.879c-2.141,-1.2 -4.215,-2.537 -6.231,-3.823c-4.115,-2.571 -7.889,-5.215 -11.054,-7.997l-2.999,2.411c-2.742,-1.497 -5.787,-3.175 -8.702,-4.763c-1.446,-0.817 -2.8,-1.655 -4.174,-2.469c-1.239,-0.727 -2.986,-1.852 -2.763,-1.882c-0.21,-0.212 0.112,-0.16 -0.529,-0.353c-0.512,-0.253 -0.951,-0.538 -1.351,-0.761c-0.9,-0.516 -1.663,-1.09 -2.175,-1.65l1.882,0.588c1.582,-2.439 -8.703,-2.341 -14.053,-4.35c-4.197,-0.77 -8.779,-0.102 -5.351,1.351c-3.811,-1.282 -7.949,-2.593 -12.229,-3.879c-4.796,-1.322 -9.79,-2.74 -14.758,-4.114c-4.323,-2.956 -8.663,-5.91 -12.817,-8.821c-3.771,-2.654 -7.409,-5.265 -10.876,-7.704c-6.805,-4.965 -12.557,-9.546 -16.108,-13.227c-0.559,-0.339 -1.059,-0.716 -1.531,-0.939c-1.194,-1.158 -2.444,-2.3 -3.641,-3.409c-1.068,-0.987 -2.102,-1.939 -3.174,-2.882c-2.055,-1.886 -4.088,-3.685 -6.056,-5.527c-4.109,-3.555 -7.966,-7.035 -11.993,-10.586c-3.936,-3.515 -7.946,-7.162 -12.054,-11.054c-4.281,-3.725 -8.661,-7.644 -13.286,-12.052l0.529,-0.058c-6.08,-6.332 -18.208,-19.025 -16.108,-21.167c-14.131,-12.415 -25.479,-17.822 -40.806,-34.392l4.291,2.586c-0.604,-0.689 -1.216,-1.332 -1.942,-2.058c-0.899,-0.817 -1.878,-1.789 -2.821,-2.647c-1.33,-1.881 -1.877,-2.425 -2.647,-3.409c-0.77,-0.863 -1.417,-1.641 -2.058,-2.411c-1.371,-1.497 -2.487,-2.756 -2.999,-3.352c-1.072,-1.669 0.262,-0.763 0.822,-0.763c-2.185,-5.05 -5.326,-6.803 -7.938,-10.228l1.765,0.941c-1.755,-3.428 -3.958,-7 -6.527,-10.761c-1.285,-1.889 -2.629,-3.802 -3.996,-5.764c-1.587,-2.142 -3.211,-4.332 -4.88,-6.642c-2.955,-6.422 -6.088,-13.136 -9.172,-19.816c-2.955,-6.469 -5.756,-13.017 -8.114,-19.225c1.883,3.811 2.1,1.342 1.941,-0.41c-0.679,-0.769 -1.505,-1.783 -2.231,-2.94c-0.34,-0.556 -0.686,-1.124 -1.117,-1.765c-0.383,-0.77 -0.557,-0.998 -1.29,-2.586c-0.516,-1.543 -1.124,-3.166 -1.765,-4.88c-0.472,-1.544 -1.029,-3.178 -1.589,-4.766c-0.941,-3.295 -1.898,-6.699 -2.882,-9.994c-1.799,-6.547 -3.409,-12.63 -4.647,-16.226l2.706,5.412c-3.602,-9.42 -3.44,-13.075 -3.762,-18.168c0.081,-4.585 0.262,-8.169 -2.177,-16.815l-0.234,10.82c-0.684,-7.58 -2.266,-13.827 -3.468,-11.818c-0.298,-8.861 2.325,-1.494 0.527,-14.64c0.811,-0.727 2.135,9.375 2.647,4.88l-0.41,-18.579v-0.058c0.096,-0.164 -0.046,-1.392 -0.175,-2.292c-0.476,-1.196 -1.13,-2.96 -2.119,-5.527c-3.38,2.917 -5.371,-14.235 -6.056,-4.174c-2.31,-6.207 -4.363,-12.248 -6.29,-18.108c-1.927,-6.035 -3.802,-11.905 -5.644,-17.639c-0.467,-3.038 -0.92,-5.922 -1.351,-8.877c-0.514,-2.786 -0.996,-5.548 -1.468,-8.29c-1.025,-5.44 -2.19,-10.861 -3.643,-16.168c0.383,-1.713 0.453,-4.052 0.294,-6.878c-0.108,-1.458 -0.37,-3.046 -0.529,-4.586c-0.13,-0.818 -0.227,-1.614 -0.292,-2.472c-0.197,-1.193 -0.429,-2.463 -0.588,-3.701c1.07,-3.467 2.161,-7.019 3.233,-10.404c0.984,-2.994 1.865,-5.873 2.765,-8.231c1.76,-4.754 3.469,-7.684 4.88,-6.527c3.554,-12.117 5.81,-22.037 5.41,-30.218c1.018,-5.881 2.063,-12.205 3.118,-16.285c-0.987,8.346 -2.989,21.715 -3.118,28.395c2.787,-11.129 4.486,-27.277 5.47,-33.57l3.351,-2.177c0.385,-9.502 3.823,-7.582 3.823,-16.401c-0.032,-0.171 -0.028,-0.303 -0.058,-0.703c-0.18,0.309 -0.37,0.427 -0.529,0.586c-0.21,0.21 -0.451,0.441 -0.644,0.763c0.064,-0.299 0.206,-0.629 0.236,-0.822c2.504,-16.181 0.06,-17.422 2.116,-33.394l0.941,0.939c0.557,-2.184 0.693,-4.843 0.822,-7.585c0.063,-1.367 0.046,-2.748 0.175,-4.115l0.352,-2.058c0.18,-0.856 0.34,-1.597 0.469,-2.411c0.468,-1.158 0.736,-1.841 1.058,-2.353c0.343,-0.6 0.832,-1.017 1.232,-1.529l-1.349,4.114l-0.999,7.23c1.202,-0.557 2.311,-3.217 3.468,-6.642c1.286,-2.486 2.216,-4.245 3.116,-5.704c3.034,-11.046 -1.655,-4.788 -0.115,-10.348c2.398,-1.714 1.101,-0.226 1.529,4.057c1.501,-5.651 3.223,-12.152 4.763,-18.402c0.769,-3.127 1.464,-6.191 2.06,-9.053c0.599,-3.171 1.176,-6.059 1.648,-8.584c0.941,-1.582 1.455,-2.722 1.648,-3.411c0.547,-0.299 0.586,0.471 0.586,0.471c8.135,-10.492 12.543,-21.849 18.579,-27.456l-1.351,2.231c1.84,-1.497 3.588,-3.448 5.176,-5.585l2.292,-3.409c0.814,-1.116 1.577,-2.287 1.706,-2.647c0.041,-0.468 0.752,-2.607 1.115,-3.937c0.517,-1.452 1.002,-2.841 1.47,-3.998c0.988,-2.311 1.998,-3.778 3.409,-3.937c2.479,-4.407 -4.077,10.629 0.763,3.823c6.721,-14.343 0.103,-11.052 6.056,-23.637c-0.773,1.721 -0.334,1.23 -0.175,2c1.67,-4.925 3.695,-10.61 5.879,-16.817c4.495,-4.197 9.384,-8.797 13.879,-12.99c3.51,-1.67 7.56,-4.531 11.759,-7.998c2.057,-1.798 4.224,-3.685 6.408,-5.527c2.056,-1.838 4.176,-3.746 6.232,-5.585c1.204,-1.842 2.385,-3.672 3.587,-5.47c1.282,-1.966 2.549,-3.876 3.879,-5.585c2.654,-3.597 5.3,-6.778 7.997,-9.172c-3.696,3.099 0.081,-3.193 0.163,-4.399c0.059,0.191 0.202,0.424 0.595,0.161c3.138,-4.666 2.331,-6.014 3.057,-8.114c0.981,-0.899 1.971,-2.405 2.999,-4.114c1.069,-1.97 2.28,-4.144 3.352,-6.115c1.195,-1.414 2.348,-2.753 3.291,-3.821c0.853,-0.899 1.696,-1.654 2.292,-1.942c-0.599,-0.727 2.831,-3.661 6.466,-7.171c-6.59,7.806 -0.923,3.686 -3.233,7.879c11.298,-10.144 9.746,-14.994 21.692,-25.398l3.057,-1.942l1.589,-0.997l2.116,-1.529l2.353,-0.705c0.689,-3.256 14.284,-8.301 13.643,-9.111c2.826,-0.258 6.612,-1.514 6.642,-0.061c5.476,-3.213 14.71,-5.942 16.462,-8.467l-6.056,2c4.581,-1.798 9.172,-4.016 12.171,-5.644c9.292,-6.423 16.824,-13.132 26.929,-17.757l1.823,3.526c2.872,-1.155 5.322,-2.663 7.587,-4.291c2.4,-1.798 4.671,-3.446 6.936,-5.115l2.882,-1.115c0.769,-0.302 1.655,-0.629 2.469,-0.822c1.625,-0.406 3.317,-0.733 5.115,-0.763c-3.3,-0.345 -3.739,0.242 2,-3.057c-1.457,0.389 -3.386,1.041 -5.527,1.941c-1.029,0.383 -2.089,0.879 -3.291,1.351c-1.285,0.471 -2.622,1.017 -3.996,1.529c-1.28,0.857 -2.651,1.775 -3.937,2.589c1.11,-0.986 1.759,-1.763 3.641,-3.174c2.487,-1.072 3.234,-1.583 4.822,-2.353l4.172,-2.292l-9.407,3.641l-10.348,7.114c6.892,-6.081 6.571,-5.44 2.589,-4.88c1.113,-0.857 2.127,-1.651 3.116,-2.292c0.468,-0.297 0.979,-0.659 1.41,-0.882c0.771,-0.422 1.488,-0.866 2.177,-1.29c0.726,-0.198 1.39,-0.451 2.116,-0.644c0.383,-0.13 0.776,-0.163 1.176,-0.292c0.771,-0.149 1.43,-0.342 2.119,-0.471c1.367,-0.3 2.555,-0.473 3.879,-0.761c2.654,-0.553 5.653,-1.353 9.933,-3.409c4.411,-0.855 0.473,1.944 5.527,1.174c4.281,-2.055 8.74,-3.051 12.936,-3.821c2.142,-0.427 4.202,-0.795 6.173,-1.117c2.058,-0.516 3.327,-0.898 5.939,-1.882c-0.686,0.342 -1.045,0.663 -0.822,0.822c0.302,-0.193 0.681,-0.287 0.939,-0.352c3.558,-0.231 6.58,-0.37 8.938,-0.529c2.272,-0.215 4.003,-0.57 4.94,-1.174l-5.995,-0.294c5.266,0 6.11,-1.621 16.168,-0.939c4.337,-0.767 7.248,-2.108 5.762,-2.704c2.323,0.293 4.449,0.802 3.116,1.648c6.68,-0.129 9.034,-0.995 10.703,-1.765c0.855,-0.383 1.485,-0.77 2.469,-1.058c0.347,-0.159 1.241,-0.287 1.529,-0.352c0,-0.032 0.046,-0.088 0.175,-0.058c0.094,-0.03 0.107,-0.03 0.236,0c0.213,-0.033 1.643,-0.637 2.586,-0.997c-0.842,0.551 -1.716,1.32 -1.115,1.29c2.412,-1.086 4.426,-2.129 6.173,-3.148c-3.109,2.048 -2.084,2.254 -1.293,2.441c0.482,0.036 0.855,0.203 0.295,0.763c-0.342,0.255 -0.865,0.605 -1.765,1.117c-0.512,0.21 -1.08,0.576 -1.765,0.939c-0.603,0.302 -1.572,0.792 -1.765,0.822c0.21,0.249 0.415,0.352 0.703,0.352c0.472,-0.044 0.948,-0.276 1.589,-0.469c1.201,-0.518 2.676,-1.186 4.172,-2c2.955,-1.709 6.19,-3.735 8.584,-4.588c6.084,-4.964 -0.685,-3.172 2.177,-5.998c0.301,0.64 3.058,-0.813 6.525,-2.353l-3.996,0.294c2.826,-1.544 5.551,-2.992 8.76,-5.176l-5.291,3.641c2.353,-1.153 5.365,-2.311 8.703,-3.641c1.669,-0.686 3.392,-1.505 5.234,-2.231c0.898,-0.467 1.91,-0.927 2.938,-1.351c1.527,-0.81 3.037,-1.641 4.647,-2.528zM502.772,76c-2.367,0.01 -4.656,0.091 -6.767,0.187c-15.636,0.661 -30.333,2.119 -45.587,5.525c-20.118,4.445 -40.793,10.318 -59.139,19.874c-6.81,3.512 -13.412,7.854 -18.625,13.484c-5.49,5.838 -6.707,12.196 -9.104,19.598c-1.042,3.127 -1.739,6.185 -2.607,9.244c-0.901,3.302 -2.814,6.845 -3.544,10.147c-0.938,4.378 0.255,8.961 -0.311,13.41c-0.625,5.108 -1.215,9.451 -1.147,14.592c0.205,17.965 -0.871,37.181 8.406,52.955c5.143,8.756 8.793,17.792 15.984,25.16c3.684,3.751 5.873,8.442 9.485,12.163c3.441,3.542 8.756,5.385 12.716,8.374c6.011,4.548 10.978,8.302 18.346,10.527c7.75,2.292 15.219,2.953 22.761,4.55c11.57,2.47 23.492,1.602 35.339,1.25c5.179,-0.13 8.93,-1.456 13.795,-3.197c3.716,-1.286 12.396,-3.232 -6.864,-12.017v-0.002l-0.018,-0.006c0.007,0.003 0.011,0.005 0.018,0.008c-0.31,0.661 -0.592,1.286 -0.901,1.914c-2.189,0.486 -4.551,-1.078 -6.637,-1.599c-3.58,-0.873 -7.888,-0.626 -11.501,-1.456c-11.987,-2.744 -25.47,-8.86 -36.797,-13.73c-9.001,-3.889 -16.679,-11.361 -23.942,-17.788c-10.668,-9.451 -19.007,-17.652 -22.761,-31.553c-3.581,-13.341 -6.496,-30.611 -2.121,-44.061c1.912,-5.837 3.195,-12.366 5.699,-17.928c3.37,-7.502 9.066,-12.02 13.968,-18.14c19.146,-23.767 52.607,-35.2 82.385,-37.352c10.634,-0.764 21.474,-1.805 31.587,1.567c8.93,2.987 18.696,7.501 26.304,12.959c17.755,12.682 33.532,31.621 34.539,54.695c0.31,6.634 -0.453,14.903 -1.773,21.47c-0.624,3.057 -2.537,5.804 -3.162,8.826c-0.556,2.675 0.207,4.931 -0.28,7.435c-1.354,7.084 -4.934,14.801 -9.137,20.64c-3.51,4.9 -11.78,8.722 -17.13,11.743c-7.366,4.169 -15.046,8.757 -23.179,10.878c-16.157,4.239 -30.576,6.913 -46.908,3.685c-3.927,-0.799 -7.192,-1.952 -10.703,-3.411c-3.405,-1.426 -7.159,-0.972 -10.424,-2.185c-4.935,-1.776 -13.132,-6.568 -16.434,-11.19c-4.066,-5.664 -4.97,-15.881 -6.915,-22.759c-0.869,-3.127 -3.406,-7.196 -3.96,-9.935c-0.309,-1.53 -0.869,-2.224 -0.763,-3.821c0.13,-2.364 2.673,-2.954 2.224,-5.63c-2.433,2.084 -3.544,6.428 -4.136,9.451c-0.834,4.375 -1.528,8.754 -1.565,13.342c-0.025,5.318 1.009,8.548 3.195,13.274c1.387,3.057 1.774,5.351 3.928,7.991c2.466,3.057 6.044,5.001 8.478,8.164c5.455,7.121 13.935,13.098 22.448,16.781c5.63,2.47 11.573,3.233 17.34,5.283c8.374,2.992 17.407,1.426 26.199,1.115c12.023,-0.451 25.921,1.077 37.284,-2.992c5.246,-1.838 12.441,-2.189 17.201,-4.865c5.456,-3.092 10.526,-9.034 14.245,-14.071c2.674,-3.579 4.621,-7.228 6.427,-11.367c1.668,-3.855 3.267,-6.532 5.63,-9.972c2.119,-3.057 1.286,-4.064 2.744,-6.882c6.672,-13.202 8.373,-27.171 10.355,-41.589c0.833,-6.085 -0.001,-12.475 -0.257,-18.627c-0.205,-5.63 0.382,-11.745 -1.08,-17.165c-3.857,-14.559 -11.187,-26.477 -21.716,-37.181c-14.141,-14.316 -32.833,-18.31 -50.381,-26.512c-5.839,-2.71 -13.651,-3.31 -20.754,-3.279zM523.059,280.171c-5.178,-0.049 -8.963,1.148 -13.863,2.642c-3.785,1.182 -12.544,2.782 6.394,12.298l0.008,-0.006c0.309,-0.622 0.626,-1.251 0.973,-1.876c2.189,-0.385 4.517,1.251 6.567,1.839c3.544,1.045 7.888,0.937 11.431,1.914c11.884,3.194 25.122,9.799 36.242,15.117c8.86,4.2 16.262,11.985 23.281,18.691c10.285,9.833 18.311,18.345 21.506,32.35c3.093,13.483 5.353,30.855 0.487,44.129c-2.118,5.766 -3.649,12.226 -6.395,17.718c-1.253,2.531 -2.781,4.682 -4.439,6.676c-2.525,-3.85 -5.011,-7.914 -8.332,-10.878c-11.257,-10.074 -23.907,-16.051 -38.57,-19.18c-19.702,-4.205 -37.525,2.71 -56.672,5.454c-8.513,1.217 -17.859,7.539 -24.705,12.474c-0.069,0.05 -0.137,0.099 -0.206,0.149c-4.691,-6.724 -9.672,-13.202 -15.23,-19.55c-10.199,-11.658 -21.259,-23.2 -33.403,-33.097c0.025,-0.152 0.042,-0.303 0.077,-0.458c1.635,-7.019 5.49,-14.594 9.903,-20.259c3.718,-4.762 12.092,-8.302 17.58,-11.118c7.508,-3.86 15.359,-8.167 23.559,-9.974c16.333,-3.611 30.821,-5.732 47.013,-1.876c3.928,0.901 7.122,2.189 10.562,3.79c3.37,1.528 7.124,1.249 10.355,2.569c4.865,1.981 12.855,7.088 15.981,11.816c3.858,5.84 4.343,16.056 6.044,23.003c0.762,3.163 3.126,7.331 3.58,10.079c0.257,1.528 0.8,2.256 0.626,3.859c-0.207,2.326 -2.781,2.849 -2.434,5.557c2.504,-2.015 3.787,-6.324 4.483,-9.277c1.009,-4.379 1.84,-8.724 2.049,-13.312c0.257,-5.315 -0.659,-8.577 -2.639,-13.41c-1.287,-3.093 -1.563,-5.386 -3.613,-8.094c-2.397,-3.161 -5.872,-5.248 -8.203,-8.514c-5.178,-7.298 -13.446,-13.622 -21.785,-17.619c-5.558,-2.641 -11.431,-3.649 -17.13,-5.905c-8.27,-3.302 -17.339,-2.121 -26.129,-2.121c-12.023,0 -25.889,-2.046 -37.389,1.567c-5.315,1.667 -12.509,1.735 -17.34,4.236c-5.593,2.889 -10.875,8.619 -14.802,13.484c-2.78,3.509 -4.865,7.05 -6.847,11.118c-1.808,3.788 -3.509,6.428 -6.01,9.764c-2.225,2.987 -1.426,4.029 -2.954,6.777c-0.44,0.787 -0.86,1.579 -1.264,2.373c-5.175,-3.086 -10.705,-5.689 -16.516,-7.181c-7.785,-1.98 -13.936,0.025 -21.58,1.462c-3.232,0.621 -6.255,1.461 -9.346,2.187c-3.335,0.761 -7.332,0.798 -10.598,1.773c-4.309,1.25 -7.75,4.48 -11.918,6.149c-4.76,1.911 -8.857,3.476 -13.342,5.975c-15.637,8.859 -33.01,17.132 -42.391,32.838c-5.213,8.722 -11.397,16.261 -14.388,26.094c-1.564,5.073 -4.584,9.207 -6.112,14.142c-1.457,4.761 -0.522,10.318 -1.25,15.22c-1.11,7.471 -2.014,13.621 -0.383,21.129c1.668,7.921 4.724,14.803 6.912,22.135c3.408,11.361 9.903,21.404 15.881,31.62c2.64,4.484 5.593,7.122 9.416,10.563c2.953,2.642 8.825,9.346 7.262,-11.816l-0.002,0.042c-0.696,0.052 -1.387,0.102 -2.121,0.127c-1.457,-1.667 -1.217,-4.518 -1.773,-6.6c-0.937,-3.58 -3.231,-7.227 -4.238,-10.808c-3.37,-11.81 -4.483,-26.579 -5.664,-38.845c-0.9,-9.765 1.981,-20.086 4.1,-29.568c3.161,-13.865 6.36,-25.125 16.749,-35.06c9.972,-9.591 23.696,-20.43 37.631,-23.074c6.044,-1.145 12.372,-3.126 18.451,-3.61c8.202,-0.622 14.872,2.188 22.621,3.546c4.464,0.795 8.839,2.009 13.11,3.566c-0.404,2.254 -0.8,4.516 -1.197,6.795c-1.078,6.044 -0.487,12.438 -0.487,18.588c0,5.63 -0.799,11.743 0.453,17.201c3.299,14.699 10.149,26.93 20.292,37.979c0.702,0.767 1.42,1.501 2.147,2.215c-7.405,8.943 -14.219,18.379 -19.816,28.358c-3.753,6.672 -6.879,13.933 -8.201,21.476c-1.356,7.919 1.11,13.897 3.16,21.403c0.87,3.161 1.947,6.115 2.918,9.137c1.008,3.268 1.387,7.263 2.605,10.427c0.765,2.056 1.995,3.863 3.288,5.643c-6.417,1.672 -13.891,2.081 -20.285,1.302c-6.011,-0.73 -13.343,-6.118 -18.556,-9.386c-7.193,-4.446 -14.908,-8.997 -20.677,-15.113c-11.468,-12.128 -20.744,-23.491 -25.748,-39.37c-1.216,-3.821 -1.737,-7.227 -2.189,-11.018c-0.384,-3.646 -2.573,-6.737 -3.092,-10.178c-0.798,-5.214 -0.522,-14.699 1.911,-19.806c3.059,-6.294 11.538,-11.952 16.644,-16.993c2.365,-2.291 4.689,-6.427 6.81,-8.233c1.182,-1.009 1.528,-1.841 2.989,-2.537c2.121,-1.008 3.892,0.938 6.044,-0.731c-3.022,-1.147 -7.402,-0.025 -10.285,0.901c-4.275,1.352 -8.442,2.884 -12.474,5.038c-4.689,2.536 -7.018,5.005 -10.111,9.176c-2.015,2.711 -3.859,4.135 -5.107,7.294c-1.495,3.649 -1.494,7.716 -3.092,11.365c-3.613,8.198 -4.796,18.521 -3.96,27.764c0.592,6.114 2.743,11.674 3.718,17.72c1.426,8.791 7.123,15.981 11.606,23.487c6.184,10.354 11.538,23.282 20.537,31.31c4.169,3.68 7.922,9.865 12.544,12.718c5.352,3.334 12.96,4.898 19.182,5.729c4.448,0.628 8.582,0.593 13.031,0.156c4.205,-0.347 7.33,-0.257 11.5,0.154c3.683,0.346 4.169,-0.833 7.332,-0.937c4.254,-0.13 8.364,-0.668 12.389,-1.478c0.054,0.08 0.103,0.159 0.157,0.24c10.041,14.908 19.666,31.549 36.068,39.683c9.104,4.481 17.129,10.041 27.172,12.266c5.142,1.148 9.519,3.821 14.594,4.968c4.829,1.079 10.283,-0.323 15.22,0.024c7.54,0.52 13.759,0.939 21.127,-1.286c7.749,-2.292 14.351,-5.868 21.508,-8.649c11.049,-4.273 20.535,-11.572 30.264,-18.348c4.239,-2.951 6.639,-6.112 9.766,-10.212c2.397,-3.127 8.617,-9.522 -12.334,-6.294v0.006l0.309,2.086c-1.563,1.599 -4.412,1.599 -6.462,2.327c-3.476,1.214 -6.914,3.787 -10.39,5.073c-11.538,4.272 -26.167,6.568 -38.292,8.686c-9.662,1.705 -20.223,-0.346 -29.811,-1.734c-14.073,-2.051 -25.538,-4.344 -36.278,-13.902c-6.799,-6.045 -14.241,-13.655 -19.624,-22.03c2.015,-0.76 4.034,-1.529 6.066,-2.302c5.735,-2.224 10.947,-6.011 16.194,-9.17c4.865,-2.883 10.494,-5.318 14.558,-9.178c10.912,-10.386 17.857,-22.55 22.166,-36.934c2.002,-6.692 2.631,-13.265 2.569,-19.806c13.965,-0.211 27.302,-1.2 41.171,-3.736c20.256,-3.685 41.178,-8.791 59.869,-17.617c0.944,-0.445 1.881,-0.911 2.815,-1.389c0.25,1.499 0.509,2.994 1.058,4.376c1.01,2.504 2.848,3.997 3.859,6.359c2.71,6.673 3.962,15.079 3.647,22.236c-0.256,6.048 -5.037,13.759 -7.853,19.249c-3.891,7.506 -7.785,15.566 -13.447,21.823c-11.188,12.368 -21.751,22.516 -37.213,28.77c-3.717,1.494 -7.054,2.293 -10.805,3.023c-3.612,0.696 -6.495,3.093 -9.901,3.895c-5.108,1.217 -14.595,1.703 -19.877,-0.347c-6.497,-2.504 -12.858,-10.528 -18.278,-15.254c-2.432,-2.12 -6.776,-4.135 -8.756,-6.115c-1.078,-1.113 -1.948,-1.39 -2.744,-2.782c-1.181,-2.051 0.625,-3.925 -1.216,-5.941c-0.901,3.093 0.556,7.366 1.702,10.184c1.739,4.134 3.545,8.164 6.044,12.019c2.883,4.449 5.524,6.604 9.937,9.386c2.849,1.773 4.412,3.471 7.643,4.518c3.753,1.143 7.819,0.834 11.606,2.154c8.441,2.955 18.834,3.301 27.972,1.734c6.044,-1.042 11.43,-3.648 17.407,-5.107c8.617,-2.119 15.325,-8.339 22.484,-13.445c9.799,-6.987 22.273,-13.308 29.568,-22.934c3.335,-4.45 9.173,-8.651 11.674,-13.484c2.883,-5.594 3.858,-13.342 4.205,-19.601c0.282,-4.446 -0.104,-8.58 -0.834,-12.995c-0.73,-4.17 -0.868,-7.298 -0.761,-11.466c0.077,-3.717 -1.181,-4.099 -1.494,-7.262c-1.045,-9.366 -3.981,-17.895 -7.591,-26.268c4.29,-5.164 5.718,-10.85 8.094,-17.337c1.148,-3.092 1.979,-6.119 2.954,-9.176c1.042,-3.232 3.057,-6.707 3.891,-10.004c1.147,-4.312 0.129,-8.965 0.834,-13.38c0.834,-5.072 1.598,-9.38 1.734,-14.525c0.417,-17.964 2.225,-37.111 -6.427,-53.231c-4.796,-8.933 -8.095,-18.138 -15.01,-25.748c-3.545,-3.928 -5.525,-8.652 -9.001,-12.508c-3.301,-3.685 -8.549,-5.734 -12.405,-8.859c-5.838,-4.796 -10.635,-8.723 -17.932,-11.19c-7.644,-2.603 -15.113,-3.544 -22.551,-5.422c-11.502,-2.918 -23.454,-2.501 -35.303,-2.603zM421.867,397.27c14.477,9.551 27.02,22.722 36.597,36.561c-5.71,4.787 -11.207,9.818 -16.567,15.315c-11.629,-12.253 -20.223,-27.638 -20.327,-45.046c-0.008,-2.148 0.103,-4.466 0.297,-6.829zM532.273,426.872c1.203,-0.011 2.392,0.008 3.56,0.056c19.376,0.776 40.177,6.584 54.026,21.011c-20.328,19.249 -51.157,27.889 -78.538,28.817c-3.7,0.121 -7.423,0.265 -11.127,0.259c-0.584,-4.613 -1.141,-9.256 -1.446,-13.96c-0.513,-7.907 -5.264,-16.823 -9.433,-23.832c5.393,-3.749 11.056,-6.992 17.397,-8.684c7.996,-2.127 17.138,-3.592 25.559,-3.667zM470.672,453.817c1.935,3.969 3.472,8.089 4.271,12.474c0.365,1.985 0.673,4.049 0.937,6.143c-5.371,-2.26 -10.848,-5.033 -15.82,-8.168c3.388,-3.689 6.946,-7.183 10.612,-10.448zM444.792,484.356c8.329,4.03 17.079,7.382 25.521,11.722c1.694,0.87 3.573,1.55 5.552,2.096c-3.002,20.888 -12.069,42.476 -31.011,53.982c-3.572,2.157 -7.896,4.269 -12.201,6.036c-1.315,-4.128 -2.691,-8.303 -3.356,-12.432c-1.286,-8.094 1.007,-14.976 1.771,-22.793c1.32,-13.579 6.4,-26.668 13.725,-38.612zM216.186,493.471c-2.593,-0.125 -3.365,0.776 -6.131,0.745c-14.768,-0.104 -28.04,4.623 -41.835,9.277c-5.838,1.981 -11.155,5.562 -16.539,8.514c-4.969,2.711 -10.704,4.9 -14.907,8.619c-11.291,9.974 -18.729,21.818 -23.592,36.03c-6.496,19.041 -1.736,37.563 -1.25,56.916c0.206,8.583 5.385,18.591 9.485,25.989c7.575,13.722 15.429,26.202 25.26,38.36c12.961,16.021 27.449,31.936 44.164,44.096c6.185,4.484 13.032,8.48 20.396,10.668c7.68,2.291 13.899,0.523 21.58,-0.628c3.267,-0.486 6.324,-1.184 9.451,-1.806c3.37,-0.628 7.368,-0.521 10.67,-1.355c4.343,-1.079 7.921,-4.202 12.126,-5.699c4.866,-1.703 9,-3.093 13.585,-5.456c15.949,-8.202 33.636,-15.809 43.643,-31.132c5.525,-8.513 11.986,-15.81 15.394,-25.541c1.738,-4.967 4.935,-8.997 6.637,-13.897c1.669,-4.69 0.939,-10.249 1.842,-15.117c1.388,-7.436 2.536,-13.55 1.216,-21.125c-1.355,-7.956 -4.136,-14.942 -6.044,-22.376c-2.953,-11.467 -9.068,-21.786 -14.628,-32.211c-2.433,-4.587 -5.316,-7.331 -9.001,-10.911c-2.849,-2.781 -8.44,-9.691 -7.714,11.489c-0.005,0 -0.01,0 -0.016,0l0.016,0.014c0,-0.005 0,-0.009 0,-0.014c0.691,-0.024 1.415,-0.026 2.105,-0.052c1.386,1.735 1.04,4.588 1.526,6.672c0.8,3.611 2.955,7.367 3.823,10.945c2.883,11.953 3.442,26.755 4.1,39.055c0.557,9.798 -2.712,20.015 -5.248,29.396c-3.684,13.728 -7.298,24.843 -18.068,34.4c-10.355,9.172 -24.499,19.491 -38.502,21.543c-6.08,0.938 -12.474,2.673 -18.588,2.918c-8.236,0.323 -14.804,-2.745 -22.448,-4.448c-29.813,-6.495 -55.005,-31.376 -70.19,-57.053c-5.421,-9.171 -11.188,-18.417 -12.682,-28.976c-1.323,-9.314 -1.6,-20.088 -0.129,-29.33c3.44,-21.543 13.377,-44.091 33.564,-55.282c5.804,-3.232 13.553,-6.29 20.016,-7.993c2.989,-0.798 6.322,-0.346 9.309,-1.113c2.64,-0.695 4.31,-2.393 6.775,-3.057c6.948,-1.945 15.429,-2.189 22.516,-1.042c5.976,0.975 13.1,6.635 18.173,10.079c7.018,4.757 14.556,9.59 20.082,15.914c10.979,12.577 19.805,24.288 24.184,40.339c1.077,3.895 1.458,7.3 1.739,11.123c0.276,3.649 2.293,6.845 2.71,10.283c0.592,5.246 -0.025,14.698 -2.71,19.703c-3.266,6.15 -11.989,11.5 -17.304,16.333c-2.397,2.19 -4.898,6.254 -7.086,7.993c-1.25,0.935 -1.602,1.771 -3.094,2.393c-2.154,0.902 -3.821,-1.077 -6.044,0.521c2.954,1.252 7.369,0.32 10.285,-0.521c4.344,-1.217 8.548,-2.568 12.682,-4.584c4.76,-2.329 7.194,-4.694 10.46,-8.758c2.121,-2.607 3.998,-3.959 5.386,-7.052c1.635,-3.579 1.771,-7.645 3.544,-11.26c3.927,-8.03 5.49,-18.31 5.004,-27.587c-0.311,-6.115 -2.257,-11.744 -2.989,-17.862c-1.11,-8.826 -6.495,-16.224 -10.7,-23.905c-5.802,-10.562 -10.599,-23.696 -19.285,-32.072c-4.03,-3.858 -7.538,-10.184 -12.056,-13.205c-5.213,-3.545 -12.753,-5.384 -18.936,-6.497c-4.412,-0.799 -8.546,-0.901 -13.031,-0.695c-4.204,0.18 -7.298,0 -11.466,-0.592c-0.456,-0.065 -0.864,-0.103 -1.234,-0.121zM694.038,556.118c-3.815,0.053 -7.776,0.907 -11.503,0.803c-7.538,-0.181 -13.76,-0.383 -21.022,2.084c-7.679,2.607 -14.141,6.429 -21.195,9.451c-10.878,4.727 -20.086,12.372 -29.536,19.491c-4.136,3.127 -6.395,6.358 -9.384,10.563c-2.258,3.231 -8.233,9.834 12.581,5.84l0.006,-0.002c-0.128,-0.696 -0.277,-1.388 -0.383,-2.084c1.494,-1.636 4.343,-1.739 6.359,-2.537c3.406,-1.357 6.776,-4.067 10.217,-5.491c11.363,-4.691 25.889,-7.543 37.91,-10.113c9.59,-2.086 20.222,-0.451 29.846,0.59c14.141,1.495 25.679,3.371 36.797,12.508c10.667,8.792 23.074,21.162 27.31,34.677c1.841,5.875 4.55,11.92 5.733,17.93c1.6,8.063 -0.416,15.011 -0.868,22.864c-1.808,30.438 -22.448,59.175 -45.485,78.18c-8.201,6.778 -16.435,13.898 -26.617,17.025c-9.032,2.782 -19.599,4.728 -28.943,4.691c-21.821,-0.025 -45.658,-6.325 -59.867,-24.497c-4.098,-5.278 -8.269,-12.438 -11.013,-18.552c-1.251,-2.85 -1.287,-6.22 -2.537,-9.032c-1.079,-2.469 -2.99,-3.895 -4.065,-6.22c-2.989,-6.568 -4.552,-14.907 -4.518,-22.098c0.024,-6.013 4.517,-13.934 7.122,-19.496c3.611,-7.675 7.193,-15.879 12.613,-22.308c10.703,-12.822 20.883,-23.35 36.068,-30.194c3.684,-1.635 6.986,-2.573 10.703,-3.439c3.579,-0.837 6.393,-3.337 9.729,-4.275c5.105,-1.388 14.557,-2.224 19.909,-0.383c6.601,2.259 13.236,10.042 18.796,14.525c2.574,2.052 6.951,3.896 9.001,5.804c1.148,1.078 2.016,1.285 2.882,2.677c1.216,1.98 -0.485,3.961 1.426,5.907c0.762,-3.128 -0.834,-7.332 -2.119,-10.111c-1.841,-4.101 -3.82,-8.062 -6.462,-11.777c-3.057,-4.379 -5.768,-6.395 -10.285,-9.001c-2.918,-1.667 -4.551,-3.333 -7.819,-4.236c-3.786,-1.009 -7.853,-0.557 -11.674,-1.704c-8.548,-2.64 -18.973,-2.606 -28.009,-0.695c-6.044,1.286 -11.289,4.063 -17.199,5.765c-8.549,2.432 -15.012,8.932 -21.961,14.279c-9.555,7.367 -21.75,14.178 -28.667,24.045c-3.197,4.552 -8.857,9.034 -11.188,13.934c-2.675,5.697 -3.336,13.449 -3.477,19.736c-0.077,4.449 0.452,8.547 1.355,12.962c0.869,4.134 1.112,7.226 1.218,11.431c0.025,3.717 1.319,4.064 1.771,7.157c2.19,14.627 8.895,26.997 15.673,39.925c2.848,5.421 7.227,10.147 10.98,15.01c3.44,4.481 6.496,9.798 10.805,13.344c11.606,9.656 24.495,15.114 39.265,17.72c19.84,3.476 37.388,-4.098 56.43,-7.609c8.443,-1.529 17.547,-8.203 24.219,-13.412c12.335,-9.626 23.453,-19.321 33.946,-30.927c13.794,-15.285 27.242,-32.106 36.694,-50.484c3.475,-6.813 6.323,-14.178 7.332,-21.785c1.079,-7.957 -1.635,-13.83 -3.962,-21.266c-0.972,-3.127 -2.154,-6.047 -3.233,-9.032c-1.181,-3.232 -1.668,-7.192 -3.025,-10.319c-1.739,-4.101 -5.352,-7.159 -7.504,-11.121c-2.466,-4.481 -4.483,-8.41 -7.506,-12.546c-10.599,-14.49 -20.847,-30.783 -37.562,-38.255c-9.277,-4.169 -17.477,-9.417 -27.589,-11.26c-5.211,-0.938 -9.695,-3.439 -14.766,-4.378c-1.225,-0.225 -2.481,-0.296 -3.752,-0.278z" /></svg>