<svg xmlns="http://www.w3.org/2000/svg" viewBox="0 0 903 896" width="903" height="896"><path d="M693.813,634.858c1.893,-3.184 2.871,-6.848 2.877,-10.55c0,-3.491 -0.896,-7.033 -2.877,-10.12h-0.006c-3.248,-5.032 -7.538,-9.078 -12.285,-12.398c-1.869,-1.267 -3.566,-1.98 -4.55,-2.595l-0.018,0.021l-0.245,-0.123l-2.386,3.923l-1.611,0.245v-0.046l0.008,0.245c-0.443,-0.688 -0.812,-1.438 -1.304,-2.053c-1.955,-2.336 -4.327,-3.935 -5.902,-5.373h-0.008c-1.069,-0.958 -2.176,-1.77 -3.283,-2.631v0c-3.587,-2.582 -8.297,-4.241 -13.056,-4.267c-1.119,0 -2.25,0 -3.357,0.245c0.008,0 0.013,-0.008 0.021,-0.008l-0.021,0.008c-0.528,0.122 -1.02,0.247 -1.635,0.492c-0.651,0.246 -1.143,0.737 -1.635,1.107l-0.089,0.043h-0.581l0.008,0.615l-0.37,0.492l0.37,0.245l0.027,5.03h0.042l0.984,0.026c0.122,0 0.369,-0.026 0.492,-0.039h0.043c1.02,0 1.795,0.122 2.41,0.245c0.848,0.247 1.464,0.369 1.709,0.492l0.861,0.492l0.004,0.008c0.824,0.627 1.71,1.537 2.447,2.398l0.006,0.006c1.169,1.351 1.388,2.372 1.414,3.774c0,1.032 -0.245,2.298 -0.737,3.774c-2.041,6.179 -5.348,12.179 -10.353,15.475c-6.186,4.119 -13.898,6.082 -21.521,6.074h-0.245c-1.352,0 -2.558,0.042 -3.787,0.042c-0.764,0 -1.453,-0.046 -2.19,-0.088c-1.623,-0.123 -3.431,-0.764 -5.693,-1.501h-0.004c-3.074,-0.91 -5.755,-1.402 -8.079,-2.509c-1.784,-0.787 -3.566,-1.647 -5.337,-2.631h-0.008c-2.508,-1.304 -5.127,-3.173 -8.337,-4.636c-0.004,-0.003 -0.025,-0.015 -0.043,-0.021c-0.122,-0.122 -0.203,-0.156 -0.245,-0.245l-0.245,-0.245l-13.109,-15.898l4.648,12.737c-3.878,-1.499 -8.305,-2.619 -12.485,-2.864l-1.225,-0.03c-2.766,0 -5.176,0.492 -7.697,1.229l0.018,-0.006c-0.147,0.125 -0.982,0 -2.557,0.37l-1.832,0.492l-0.123,0.861c-1.549,0.848 -2.509,1.34 -3.124,1.832l-1.107,0.861l-0.737,1.229l-1.402,3.308l3.467,0.984c1.302,0.358 2.397,0.366 3.381,0.37l1.107,-0.004c0.627,0 1.118,0.046 1.488,0.088c3.135,0.579 6.53,2.029 9.973,3.431l-0.008,-0.008c4.284,1.746 8.538,3.16 12.363,4.956c4.193,1.955 8.325,4.229 12.371,6.615h0.006c1.844,1.095 3.64,2.029 5.239,3.013c0.628,0.37 1.513,1.144 3.001,2.005l0.008,0.008c1.279,0.65 2.398,1.611 4.021,2.864c1.611,1.205 3.088,1.894 4.317,2.631c4.605,2.718 8.97,5.251 14.836,6.579h0.006c3.062,0.639 6.185,1.254 9.345,1.746c2.989,0.466 5.805,0.492 8.547,0.492h1.677c5.817,0 11.657,-0.406 17.486,-1.39v0c5.348,-0.934 10.351,-2.387 15.295,-3.628c9.999,-2.568 16.652,-10.391 21.19,-17.99v0zM617.897,732.322l0.004,-1.28c0,-3.431 -0.123,-6.849 -1.107,-10.538c-1.414,-5.555 -2.927,-10.856 -6.701,-16.033c-1.537,-2.103 -3.123,-4.046 -4.992,-5.952l-0.031,0.03c-0.122,-0.122 -0.157,-0.156 -0.245,-0.245l-4.317,4.684c0.125,0.125 0.247,0.247 0.37,0.37l0.37,0.615c0.157,0.505 0.245,1.218 0.245,1.955c0,0.713 -0.122,1.45 -0.245,1.942c-0.541,1.968 -2.25,4.846 -3.566,7.477c-1.143,2.336 -2.691,4.341 -4.684,5.988c-2.52,2.199 -7.501,3.16 -12.173,4.389l-0.737,0.123l-0.737,-0.123c-0.394,-0.125 -0.886,-0.247 -1.501,-0.37c-0.046,-0.479 -0.089,-0.848 -0.089,-1.34c0,-1.513 0.123,-3.184 0.123,-4.98c0.012,-2.779 -0.344,-6.076 -2.435,-9.149v0c-1.256,-1.832 -2.927,-2.913 -4.526,-3.774c-1.599,-0.885 -3.198,-1.377 -4.451,-1.869c-0.492,-0.123 -1.438,-0.614 -2.545,-0.984c-1.12,-0.369 -2.422,-0.848 -3.997,-0.861c-1.39,-0.024 -3.246,0.468 -4.538,1.882l-3.591,3.873l5.128,1.352c1.069,0.257 2.077,0.934 3.885,2.041l0.492,0.245l0.013,0.245v0.012c0.013,0.701 0.026,1.366 0.026,1.981c0,1.808 -0.122,3.136 -0.737,4.514c-0.406,1.044 -0.898,2.348 -1.513,3.332c-0.567,1.021 -1.215,1.758 -1.304,1.758l-0.012,0.008c-0.394,0.247 -0.764,0.364 -1.501,0.37c-1.598,0.049 -4.29,-0.936 -6.775,-2.386c-2.497,-1.44 -4.857,-3.186 -6.235,-4.415c-4.49,-3.837 -7.33,-6.91 -8.965,-11.952c-2.017,-5.967 -5.299,-11.095 -5.791,-15.878v-0.008l-0.043,-1.107v-0.861c0,-0.872 0,-1.991 -0.37,-3.258c0.008,0.01 0.008,0.012 0.008,0.018l-0.008,-0.018c-0.529,-1.758 -1.02,-3.297 -1.39,-4.747c-1.327,-4.944 -4.045,-8.238 -6.307,-11.633l-0.008,-0.008c0.008,0 0.008,0 0.008,0.008c-2.939,-4.353 -6.702,-7.969 -9.887,-11.412c-3.734,-4.034 -7.238,-7.931 -12.649,-10.944l-0.008,-0.123l-0.37,0.009c-1.882,-1.009 -4.194,-1.72 -6.739,-1.746c-0.812,0 -1.636,0.125 -2.497,0.37c-0.01,0 -0.018,-0.004 -0.031,-0.004c-1.734,-0.247 -3.062,-0.247 -4.046,-0.492c-1.045,-0.246 -1.895,-0.492 -3.124,-1.107c-2.964,-1.427 -6.58,-3.322 -10.969,-3.357c-0.737,0 -1.513,0 -2.25,0.123l-5.705,0.984l3.849,4.279c3.21,3.467 7.882,5.607 10.773,7.525c2.201,1.352 4.095,2.299 4.71,3.16c2.288,2.779 4.624,5.915 5.731,8.694c0.281,0.752 0.364,1.268 0.37,2.005c0,1.304 -0.527,3.148 -0.615,5.866c0,0.749 -0.237,2.593 -0.245,4.389c0.122,1.119 0.122,2.238 0.737,3.676c0.96,1.857 2.336,2.607 3.32,3.222c0.96,0.615 1.684,1.019 1.697,1.107l1.393,1.541c0.517,0.576 1.132,1.241 1.993,1.856l0.012,0.008c2.816,2.176 5.62,5.141 8.264,7.993c3.517,3.776 6.074,8.031 9.284,12.667c1.045,1.501 2.053,3.258 3.369,5.054l-0.008,-0.004c1.278,1.685 1.525,3.051 2.262,5.915c1.426,4.907 4.267,8.386 5.94,11.781h0.006c1.512,2.989 3.001,6.002 4.23,8.953l-0.006,-0.008c1.82,4.489 4.069,8.067 6.972,11.781l0.004,0.008c1.771,2.252 3.923,3.726 5.817,5.018h0.008c1.919,1.279 4.305,3.282 7.071,4.66l0.004,0.008c6.173,2.963 13.222,6.022 20.932,6.111c2.165,0 4.513,0.123 6.96,0.123c3.875,0 8.067,-0.308 12.101,-2.19h0.008c4.489,-2.139 9.973,-4.353 14.302,-8.362c3.371,-3.149 6.432,-6.481 8.953,-10.674c1.118,-1.893 2.446,-3.861 3.553,-6.111c1.144,-2.25 1.979,-4.845 2.005,-7.808v-0.008zM456.042,629.709c0.677,-1.093 1.291,-2.152 1.906,-3.381l5.607,-11.781l-10.465,7.882c-1.181,0.862 -1.796,1.943 -2.288,2.927c-0.245,0.517 -0.37,1.131 -0.615,1.746c-1.414,2.188 -3.1,4.365 -4.809,6.591l-2.041,-0.615c0,0.122 -0.245,0.614 -0.737,1.229c-0.468,0.627 -1.083,1.439 -1.575,2.423c0,0 0.008,0 0.008,-0.008l-0.008,0.008c-1.537,3.025 -2.816,6.21 -3.923,9.395c-0.923,2.091 -1.66,4.182 -2.275,6.727c-0.861,3.407 -0.984,6.653 -0.984,9.714c0,0.874 0.008,1.734 0.008,2.595l-0.008,0.861v0.008c0,0.922 -0.089,1.931 -0.089,3.16l0.013,0.737c0,1.575 0.367,2.939 0.737,4.046c0.37,1.131 0.737,2.053 1.107,3.037v0.008c1.059,2.939 1.059,7.143 1.304,11.263c0.081,1.365 0.123,2.73 0.123,4.095c0,3.122 -0.37,6.185 -1.107,9.037c-1.12,3.947 -2.965,7.697 -4.907,11.767v-0.006c-2.188,4.571 -4.132,8.899 -6.8,12.686v0.004c-3.025,4.365 -5.903,8.768 -9.481,11.412c-4.148,3.073 -8.095,4.821 -13.284,6.677c-4.924,1.734 -9.056,2.714 -13.803,2.718c-1.044,0 -2.127,-0.034 -3.234,-0.123c-2.595,-0.245 -5.313,-0.37 -7.772,-0.615c-2.473,-0.283 -4.6,-0.824 -6.026,-1.808c-2.495,-1.647 -5.287,-4.081 -7.722,-6.295c-1.265,-1.131 -2.336,-2.14 -3.073,-3.124c-0.614,-0.971 -0.957,-1.672 -0.984,-2.656v0.008c-0.035,-1.119 -0.123,-2.078 -0.123,-2.939l0.088,-1.107l0.013,-0.026c0.062,-0.295 1.095,-1.39 2.079,-2.497l5.448,-6.074l-8.153,0.737l-0.737,0.031c-0.603,0.046 -1.427,-0.037 -2.288,-0.043l-1.476,0.089h-0.008c-1.943,0.247 -3.222,1.169 -4.329,1.784c-1.045,0.7 -1.844,1.316 -2.459,1.561l-0.006,0.004c-3.122,1.39 -5.152,3.998 -6.013,6.629c-0.984,2.632 -1.095,5.301 -1.107,7.772c0,1.746 0.088,3.393 0.088,4.795c0,0.689 -0.004,1.426 -0.004,2.041c-0.013,3.025 0.123,6.346 1.869,9.887c2.214,4.586 5.042,8.658 10.01,11.621c4.832,2.915 9.578,4.858 14.546,6.8v0c6.815,2.657 13.617,5.743 21.634,6.85v0c3.099,0.37 6.801,1.099 10.686,1.107c2.817,0 5.804,-0.406 8.62,-1.832c5.041,-2.607 8.35,-6.517 11.879,-8.62h0.008c1.551,-1.045 4.612,-1.671 7.551,-3.873c3.063,-2.471 4.465,-5.46 6.026,-7.378c3.579,-4.53 7.6,-8.969 10.379,-14.945c3.392,-7.395 4.943,-15.259 6.504,-22.661c1.107,-5.406 1.593,-11.259 1.599,-16.707l-0.006,-0.737v-0.861c0,-2.989 0.123,-6.111 0.123,-9.296c0,-1.241 -0.046,-2.507 -0.088,-3.774c-0.122,-2.497 -0.836,-4.538 -1.45,-6.271c-0.614,-1.733 -0.992,-3.148 -0.984,-4.389l0.042,-0.861c0.701,-4.63 0.824,-9.033 1.685,-13.079c0.751,-3.869 2.177,-8.013 2.792,-12.649c0.823,-6.273 1.193,-12.506 1.93,-18.544c0.122,-1.156 0.367,-2.914 0.737,-4.439c0.034,-0.125 0.084,-0.247 0.123,-0.37zM337.101,700.106c0,1.611 0.615,2.951 1.107,3.935c0.492,1.008 1.106,1.758 1.476,2.373l-0.008,-0.006c0.665,1.071 1.218,2.005 2.202,2.989c0.922,0.946 2.053,1.635 3.357,2.25c2.57,1.205 5.398,2.569 9.112,2.595h0.008c3.246,0 6.59,0.404 10.218,0.492l0.737,0.008c3.208,0 6.296,-0.54 9.345,-1.647h0.006c3.198,-1.18 6.739,-2.73 9.678,-5.275c3.392,-2.963 5.68,-6.419 8.127,-9.1c2.422,-2.716 4.956,-5.607 6.209,-9.849c0.689,-2.435 2.262,-5.066 3.246,-8.411c0.739,-2.766 0.614,-5.078 0.984,-6.615c0.466,-2.003 1.303,-3.16 3.172,-4.697c2.163,-1.745 3.589,-3.025 5.397,-3.762c1.671,-0.616 2.95,-0.848 4.684,-0.861h0.37l0.088,-6.358h-0.042l-0.37,-0.006c-0.013,0 -0.018,0.006 -0.026,0.006c-2.065,-0.013 -4.132,-0.013 -6.197,-0.013c-4.375,0 -8.74,0.013 -13.105,0.013h-2.348c-1.169,0 -2.386,0 -3.493,-0.013h-0.008c-0.542,-0.004 -1.145,-0.03 -1.882,-0.03c-1.23,0 -2.78,0.122 -4.415,0.737h-0.006c-2.35,0.984 -4.009,2.667 -5.116,4.451c-0.675,0.37 -1.327,0.615 -1.942,1.107c-1.167,0.788 -2.212,1.698 -3.073,2.435v0.004c-0.873,0.751 -1.489,1.722 -1.734,2.706c-0.218,0.971 -0.245,1.844 -0.245,2.459l0.013,0.861v0.241c0.012,3.407 -1.033,7.219 -1.894,11.301v-0.008c-0.651,3.344 -2.558,7.155 -4.956,9.443l-0.008,0.004c-0.775,0.773 -1.981,1.623 -3.21,2.36l-0.013,0.013c-1.131,0.649 -1.844,0.716 -3.873,0.737h-0.37c-1.279,-0.123 -1.943,-0.245 -2.804,-0.615c-0.8,-0.355 -1.71,-0.958 -2.939,-1.942v0.008c-0.763,-0.492 -1.255,-0.861 -1.378,-0.984l-0.042,-0.042c-0.455,-1.082 -0.824,-2.065 -1.316,-3.049l-0.042,-0.123l-0.615,-1.107l0.021,-0.37c0,-0.406 0,-1.02 -0.245,-1.635l-1.402,-3.923l-3.443,2.373c-1.169,0.811 -2.312,1.697 -3.419,3.001c-1.033,1.279 -1.772,3.013 -2.017,4.931v-0.004c0,0.542 -0.245,1.279 -0.615,2.386c-0.245,1.046 -0.729,2.362 -0.737,4.021v0.042zM321.041,663.84c1.489,0.37 3.21,1.205 5.436,1.82c6.422,1.807 12.681,1.685 18.571,1.93h0.008c2.865,0.125 5.779,0.366 8.78,0.37c3.873,0 7.969,-0.418 12.125,-2.139h0.006c5.496,-2.324 9.062,-7.059 11.239,-11.683l0.008,-0.004c0.922,-1.894 1.296,-3.849 1.292,-5.731c-0.012,-2.594 -0.738,-4.955 -1.599,-7.193c-1.93,-4.771 -5.177,-8.804 -8.509,-12.211c-1.28,-1.292 -2.742,-2.694 -4.341,-4.034c-0.024,-0.125 0,-0.247 -0.042,-0.37l-0.492,-1.856l-2.163,-0.492l-0.737,-0.245l-1.107,-0.123c-0.319,0 -0.738,0 -1.599,0.37l-1.241,1.107l-0.492,1.721c0,0.984 0.369,1.476 0.492,1.721l0.737,0.861l0.492,0.37c-0.579,3.296 -2.545,6.432 -5.263,8.768h-0.004c-4.859,4.267 -12.697,5.69 -20.346,5.669c-2.055,0 -4.096,-0.122 -6.026,-0.245c-5.041,-0.367 -10.193,-1.585 -15.617,-2.569h-0.008c-4.954,-0.874 -10.02,-1.796 -15.283,-2.288c-2.891,-0.37 -5.988,-0.615 -9.186,-0.615c-2.152,0 -4.353,0.123 -6.567,0.615c-2.448,0.504 -4.293,1.45 -5.731,1.942l-0.008,0.006c-1.881,0.591 -3.628,1.477 -5.189,2.927c-1.538,1.389 -3.149,2.828 -4.599,3.689l-0.008,0.006c-1.549,0.996 -3.739,1.77 -6.099,3.246c-2.472,1.587 -4.624,3.198 -6.739,4.427c-2.361,1.327 -4.317,1.679 -7.292,1.697h-0.603c-1.942,0 -3.824,0.096 -5.558,0.088c-1.059,0 -2.017,0 -3.001,-0.123h-0.006c-2.384,-0.258 -5.558,-1.415 -7.808,-2.668c-2.963,-1.623 -5.779,-3.615 -8.903,-5.62v0.008c-1.292,-0.838 -2.459,-1.551 -3.443,-2.288c-0.037,-0.122 -0.08,-0.157 -0.123,-0.245l-0.984,-1.229c-0.43,-0.419 -0.996,-1.035 -2.103,-1.28l-2.927,-0.737l-0.984,2.852l-0.245,1.229c0,0.788 0.37,1.525 0.615,2.017c0.492,0.8 0.984,1.047 1.229,1.292l0.37,0.245l0.096,0.042c0.122,0.122 0.157,0.157 0.245,0.245c0.125,0.245 0.247,0.37 0.37,0.615v0c1.131,1.402 1.789,1.851 1.746,1.894l0.004,0.004c0.848,1.402 1.709,2.767 1.832,3.628c0.886,3.702 2.742,6.715 4.771,9.469v0c0.43,0.504 0.922,1.328 1.537,2.065c0.652,0.798 1.303,1.636 2.41,2.373c0.91,0.615 1.758,0.86 2.373,1.107c0.615,0.247 1.107,0.404 1.352,0.492l0.012,0.008c4.623,2.054 9.173,2.171 13.478,2.177h0.245c3.467,0 6.984,-0.125 10.636,-0.37c3.82,-0.37 8.099,-0.246 12.502,-1.107c3.467,-0.639 6.492,-1.782 9.431,-2.766l-0.008,0.004c3.69,-1.242 7.575,-2.313 11.498,-3.566h0.006c2.766,-0.884 5.25,-1.954 7.623,-2.569h0.008c2.866,-0.835 6.223,-1.08 9.678,-1.45h0.008c1.882,-0.247 3.849,-0.37 5.755,-0.37c2.3,0 4.526,0.245 6.468,0.737c1.071,0.368 2.091,0.737 3.198,1.229l0.123,0.042l0.123,0.039c1.376,0.369 2.778,0.739 4.18,0.984v0zM294.694,578.769c0.157,1.524 0.245,3.087 0.245,4.648c0,4.102 -0.517,8.271 -1.501,12.341l-0.004,0.021c-0.122,0.898 -0.202,1.512 -0.245,1.635l-11.277,8.103l13.715,-2.447c0.135,0 0.541,0.122 1.402,0.245h0.026c1.746,0.166 2.902,0.035 3.517,0.123h0.011c1.205,0.123 2.533,0.615 4.132,1.107c1.587,0.369 3.467,0.976 5.669,0.984l0.861,-0.035c1.992,-0.122 4.02,-0.367 6.013,-0.737c1.34,-0.247 2.202,-0.523 2.447,-0.492h0.027c0,0 0.37,0 1.107,0.245c0.677,0.123 1.722,0.603 3.148,0.615l0.245,-0.012l3.762,-0.123l-1.107,-5.373c-0.123,-1.414 -0.492,-2.73 -0.615,-3.971v-0.008c-0.466,-2.841 -1.205,-5.275 -1.45,-7.525v-0.006c-0.567,-4.379 -1.827,-7.846 -1.796,-11.092c0,-4.129 0.492,-8.434 0.492,-12.984v-1.721c0,-7.331 0.367,-14.757 0.737,-22.246c0.37,-7.856 0.615,-15.72 0.615,-23.602v-1.721c0,-10.242 0.492,-20.551 0.492,-30.978v-1.352c0,-8.67 0.492,-17.392 0.492,-26.271v-0.245c0,-3.381 -0.088,-6.726 -0.088,-10.022c0,-2.41 0,-4.797 0.123,-7.157c0.492,-7.131 0.492,-14.139 0.737,-21.049c0.084,-2.791 0.123,-5.571 0.123,-8.337c0,-3.577 -0.08,-7.131 -0.088,-10.636v-0.492c-0.013,-9.132 0.775,-18.357 1.267,-27.764c0.085,-1.967 0.123,-3.935 0.123,-5.89c0,-5.911 -0.369,-11.728 -0.492,-17.495c-0.123,-6.888 -0.614,-13.712 -0.984,-20.475c-0.245,-4.034 -0.614,-8.017 -0.737,-11.928c-0.115,-3.431 0,-7.046 -0.123,-10.871c-0.246,-6.776 -0.737,-13.536 -1.107,-20.237c-0.37,-6.442 -0.245,-13.036 -0.615,-19.725c-0.369,-4.795 -0.492,-9.579 -0.492,-14.35c0,-1.327 0.012,-2.643 0.043,-3.971c0.122,-4.704 0.484,-9.475 0.492,-14.493v-0.057c-0.012,-6.185 -0.021,-12.371 -0.021,-18.544c0,-5.096 0.009,-10.176 0.021,-15.266v-0.006c0,-0.444 0.082,-1.218 0.088,-2.079l-0.043,-0.984v0c0,-0.492 -0.157,-0.859 -0.245,-1.229l6.259,0.245l-37.303,-32.227l-0.861,-0.123l-0.861,-0.086c-0.824,0 -1.772,0.246 -2.509,0.861c-1.069,0.862 -1.438,1.784 -1.561,2.521c-0.097,0.725 -0.117,1.34 -0.123,1.832c0,0.983 0.101,1.844 0.088,1.967v0.255c0.012,3.765 -0.823,7.772 -1.438,12.089h0.008c-0.332,2.484 -1.242,5.227 -1.734,8.399l-0.004,0.004c-0.449,2.596 -0.492,5.091 -0.492,7.477c0,0.701 0.004,1.342 0.012,2.079v0.858c0,3.344 -0.082,6.763 -0.086,10.218c0,3.061 0,6.172 0.245,9.296v0.008c0.627,7.927 0.098,16.236 1.611,24.93c1.649,9.354 3.099,18.879 3.591,28.212c0.221,4.791 0.958,9.391 1.328,13.854c0.75,8.976 2.288,17.751 4.255,26.481c1.476,6.376 1.721,12.994 1.721,19.794c0,3.837 -0.088,7.722 -0.088,11.645c0,6.285 0.123,12.566 0.123,18.775c0,3.751 -0.122,7.501 -0.245,11.203c-0.566,12.78 -1.685,25.616 -2.3,38.57v0.008c-0.245,4.717 -0.614,9.549 -0.737,14.468v0.004c-0.074,2.288 -0.086,4.575 -0.086,6.85c0,3.565 0.035,7.107 0.043,10.624v0.245c0,5.836 -0.492,11.812 -0.492,17.985v0.245v-0.006c0.013,5.085 0.021,10.151 0.021,15.217c0,4.709 -0.115,9.492 -0.123,14.313c0,1.955 0.043,3.911 0.086,5.866c0.245,5.801 0.984,11.321 1.229,16.658c0.202,5.231 0.245,10.482 0.245,15.769c0,6.785 -0.086,13.617 -0.086,20.467c0,3.53 -0.045,7.107 -0.045,10.711c0,1.155 0.006,2.36 0.019,3.467c0,4.764 0.615,9.29 1.107,13.717zM305.056,142.278l-13.508,-3.652l41.19,35.581l1.107,0.043c0.356,0 1.107,0.037 1.844,0.123v0c4.19,0.404 8.37,0.492 12.514,0.492c4.82,0 9.591,-0.123 14.251,-0.123c10.37,0 20.615,-0.505 30.944,-1.734h0.008c7.44,-0.91 14.737,-1.28 22.25,-1.28h4.375c3.983,0 7.969,-0.008 11.952,-0.008c3.948,0 7.895,0.008 11.842,0.008c2.963,0 5.94,0 8.903,-0.013h0.492c5.922,0 11.982,0.492 18.229,0.492h0.132c3.676,-0.004 7.354,-0.004 11.03,-0.004c7.366,0 14.733,0.004 22.099,0.004c2.927,0 6.014,0.123 9.186,0.123c2.471,0 4.992,-0.247 7.525,-0.492h0.006c4.762,-0.492 9.509,-0.978 14.219,-0.984c3.861,0 7.832,0.369 11.964,0.492c2.571,0 5.006,0.247 7.342,0.492h-0.004c3.037,0.367 5.926,0.737 9.234,0.737h0.245c0.936,0 1.992,0.039 3.099,0.045l1.525,-0.045h0.004c0.812,-0.125 1.426,-0.282 1.796,-0.37l0.37,-0.086h0.021l1.241,-0.088l22.09,-24.549l-0.737,-1.967l-3.025,1.107l1.659,-2.73l-1.229,-0.737l-0.018,0.03c-1.242,-0.862 -2.779,-1.145 -3.64,-1.107l-1.107,0.013c-2.865,0 -5.791,-0.031 -8.718,-0.031c-2.545,0 -5.114,0.035 -7.697,0.123c-6.005,0.122 -11.784,0.737 -17.465,0.737h-0.123c-6.012,-0.018 -12.025,-0.018 -18.038,-0.018c-4.918,0 -9.861,-0.088 -14.841,-0.088c-2.065,0 -4.144,0.005 -6.209,0.043c-5.267,0.122 -10.382,0.492 -15.387,0.492h-0.492l-0.861,-0.006c-5.693,0 -11.325,0.367 -16.932,0.737c-2.569,0.202 -5.176,0.245 -7.82,0.245c-2.336,0 -4.721,-0.039 -7.119,-0.039c-2.989,0.008 -5.988,0.008 -8.977,0.008c-5.982,0 -11.971,-0.008 -17.959,-0.008c-6.648,0 -13.302,0.013 -19.943,0.013c-3.689,0 -7.378,-0.005 -11.067,-0.013h-0.492c-9.786,0 -19.408,0.738 -28.913,0.861c-5.098,0 -10.04,0.492 -14.849,0.737c-2.387,0.092 -4.809,0.123 -7.244,0.123c-3.246,0 -6.541,-0.043 -9.849,-0.043h-0.123c-3.296,0 -6.593,0.038 -9.863,0.038c-5.978,0 -11.88,-0.124 -17.599,-0.861c-3.395,-0.418 -6.727,-0.665 -9.666,-1.402l-0.013,-0.006l-0.861,-0.245l-0.088,-0.088l-1.267,-0.861l-0.245,-0.123l-0.861,-0.245zM557.974,643.528c-0.491,-0.983 -1.132,-1.807 -1.869,-2.668l0.026,-0.013c-0.848,-1.23 -1.77,-2.459 -2.754,-3.566l-0.019,-0.026c-2.238,-2.559 -4.831,-4.636 -7.316,-6.53h-0.006c-2.816,-2.139 -5.767,-3.443 -8.682,-4.672c-2.324,-0.96 -5.091,-2.103 -8.239,-2.595v0c-0.665,-0.08 -1.354,-0.123 -2.091,-0.123c-0.749,0 -1.587,0.122 -2.324,0.245l-0.123,0.03l-1.561,0.492l-2.115,0.615l-0.245,3.001l0.088,0.008c-0.003,0.005 -0.024,0.005 -0.042,0.013v0c-1.783,0.602 -2.521,1.494 -2.644,1.463c-0.332,0.245 -1.426,0.527 -2.041,0.615l-0.988,0.089c-1.649,0.012 -3.64,-0.603 -6.137,-1.34h0.004c-1.573,-0.368 -2.545,-0.737 -3.652,-1.229h-0.004l-0.984,-0.737c-0.555,-0.368 -1.268,-0.984 -2.497,-1.229l-5.299,-1.39l2.288,8.645l0.245,0.37c0.884,1.5 2.065,2.533 3.172,3.517c1.119,0.934 2.3,1.709 3.037,2.324c5.454,4.058 11.505,5.018 15.956,7.366c2.717,1.366 5.582,3.001 8.226,4.612l-0.013,-0.009c1.438,0.923 2.569,1.414 3.061,1.784c0.222,0.135 0.762,0.922 1.869,1.906l-0.013,-0.009c1.5,1.266 2.521,2.213 3.505,3.541c0.751,1.032 1.562,2.434 2.177,3.738l0.089,0.37l0.37,1.229l0.123,0.37l1.28,1.647h0.004c1.39,2.029 2.975,3.935 4.648,5.681c2.299,2.399 4.992,3.974 7.808,4.956c2.816,0.982 5.729,1.31 8.718,1.352h-0.013c0.837,0 1.708,0.369 3.689,0.861l0.004,0.008c-0.004,0 -0.004,0 -0.004,-0.008c1.894,0.492 3.555,0.492 4.907,0.737h0.013c2.841,0.454 5.816,1.549 9.112,2.656c3.75,1.229 7.268,1.605 11.03,1.599h0.245c0.995,0 1.931,-0.042 2.668,-0.042l1.316,0.088l1.34,-6.209c-1.107,-0.247 -2.643,-1.291 -5.078,-1.906h-0.012c-2.214,-0.492 -3.702,-0.615 -4.809,-1.107h0.006c-1.76,-0.762 -3.345,-1.254 -4.329,-1.746c-1.698,-0.898 -3.542,-2.178 -5.472,-3.407c-3.518,-2.226 -6.394,-4.255 -8.903,-7.071h-0.004c-2.754,-3.074 -5.275,-6.185 -7.489,-9.493c-0.826,-1.231 -1.342,-2.497 -2.079,-4.206c-0.247,-0.577 -0.247,-1.943 -0.984,-4.07l-0.043,-0.123l-0.088,-0.123zM581.376,598.07c0,-5.438 -0.492,-10.627 -0.492,-15.669c0,-0.884 0.003,-1.807 0.042,-2.668c0,-2.435 0.738,-5.213 0.861,-8.435l0.008,-0.018c0.063,-1.095 0.089,-2.151 0.089,-3.258c0,-3.063 -0.245,-6.113 -0.615,-9.162v0.006c-1.082,-8.607 -2.065,-17.248 -3.049,-25.893c-1.008,-8.928 -1.969,-17.874 -3.198,-26.827c-0.725,-5.448 -1.464,-10.797 -1.709,-16.06c-0.087,-2.03 -0.123,-4.06 -0.123,-6.125c0,-2.877 0.043,-5.792 0.043,-8.743v-72.972c0,-19.04 0.123,-38.015 1.107,-56.937c0.479,-8.359 1.251,-16.841 1.34,-25.473c0.026,-2.507 0.039,-5.016 0.039,-7.525c0,-6.342 -0.089,-12.663 -0.089,-18.97c0,-2.053 0.006,-4.13 0.006,-6.209c0,-5.954 0,-11.968 -0.615,-18.067c-0.873,-8.632 -0.627,-17.579 -1.734,-26.765c-1.033,-8.061 -1.525,-16.276 -2.017,-24.49v-0.004c-0.245,-5.593 -0.737,-11.126 -0.737,-16.537l0.006,-1.107v-0.013l0.026,-1.253c0,-0.738 0,-1.784 -0.737,-3.136c-0.381,-0.689 -1.107,-1.303 -1.844,-1.673c-0.762,-0.369 -1.513,-0.479 -2.25,-0.492h-0.119c-0.689,0.008 -1.181,0.043 -1.426,0.039l-0.37,-0.013c-0.393,0 -1.131,-0.367 -2.36,-0.737h-0.006c-3.982,-1.279 -8.126,-2.459 -12.332,-3.32c-9.214,-1.882 -18.748,-2.816 -28.02,-3.431h0.008c-5.427,-0.37 -10.973,-0.615 -16.555,-0.615c-3.026,0 -6.075,0.125 -9.1,0.37c-6.465,0.504 -12.576,1.647 -18.54,2.139c-7.594,0.614 -15.363,0.492 -23.308,0.984c-4.219,0.249 -8.572,0.157 -13.11,0.245c-4.096,0.122 -8.118,0.369 -12.089,0.492c-7.532,0.247 -15.021,0.344 -22.546,0.37h-0.615c-12.432,0.012 -24.947,-1.34 -37.575,-2.447c-4.673,-0.492 -9.271,-0.711 -13.981,-0.737h-0.006c-0.048,0 -1.155,-0.115 -2.262,-0.123c-0.418,0 -0.91,0 -1.525,0.123c-0.564,0.123 -1.278,0.247 -2.139,0.984v0c-0.922,0.8 -1.457,2.164 -1.414,3.148c0.122,1.315 0.492,1.992 0.737,2.607l0.37,0.615l0.089,0.123l0.004,0.012c1.217,3.234 1.593,7.217 1.587,11.349c0,2.644 -0.092,5.35 -0.123,7.969c-0.074,5.457 -0.799,10.746 -1.906,16.242c-1.205,6.01 -2.004,12.034 -2.619,18.072c-1.352,13.608 -1.597,27.203 -1.967,40.664c-0.157,4.649 -0.245,9.322 -0.245,13.994c0,3.873 0.122,7.77 0.245,11.669c0.553,10.979 1.45,21.83 1.82,32.627c0.576,19.525 0,39.204 0.615,58.984c0.528,17.682 1.966,35.338 3.75,52.894c1.354,13.206 2.583,26.31 2.583,39.399c0,1.77 -0.046,3.529 -0.089,5.287c-0.307,11.538 -0.786,22.975 -1.647,34.435c-0.713,8.95 -2.041,17.971 -3.27,27.095c-0.552,4.182 -1.044,8.35 -1.659,12.494c-0.442,3.614 -0.688,7.057 -1.549,10.046c-0.122,0.173 -0.245,0.543 -0.737,1.28c-0.37,0.75 -1.128,2.114 -1.107,3.787v0.123c0.008,1.181 0.043,2.324 0.043,3.431c0,1.93 -0.122,3.726 -0.492,5.349l-4.538,18.753l10.379,-16.306c0.492,-0.836 0.862,-1.45 1.107,-1.82l0.492,-0.492l0.008,-0.012c0.48,-0.247 1.611,-0.513 3.099,-0.492c0.886,0 1.907,0.034 2.891,0.042l1.27,0.008c5.763,0 11.42,-0.37 17.002,-0.615c5.978,-0.219 11.978,-0.251 18.016,-0.245h6.038c1.39,0 2.766,0 4.144,-0.006c10.97,0 21.928,-0.615 32.761,-1.107c10.425,-0.468 20.676,-1.561 30.919,-2.939c17.169,-2.286 34.266,-5.042 51.261,-5.287c2.163,-0.021 4.317,-0.042 6.48,-0.042c8.797,0 17.567,0.246 26.383,0.861c3.358,0.209 6.444,0.504 9.063,1.611c1.327,0.504 2.878,1.501 4.931,2.238c1.376,0.492 2.766,0.615 3.873,0.615c1.327,0 2.459,-0.081 3.32,-0.123l0.123,0.984l1.82,0.37c0.516,0.307 1.88,1.193 4.893,3.222l1.796,-2.631h3.21zM606.056,159.736l-27.152,30.154l4.377,0.492c0.035,0.492 0.081,0.984 0.123,1.599c0.247,2.065 0.484,3.984 0.492,5.669v-0.012c0.049,5.4 0.885,10.603 1.746,15.681v0.006c0.615,3.161 0.737,6.506 1.107,10.084v0.008c0.443,4.503 1.156,8.918 1.771,13.271l0.006,0.004c0.616,3.307 0.369,7.009 0.861,11.067c0.406,3.774 1.02,7.537 1.635,11.263v-0.006c1.316,7.957 2.3,16.072 2.792,24.029c0.368,7.141 0.614,14.349 1.229,21.691c0.695,7.249 0.737,14.687 0.737,22.151v22.536c0,19.252 0.035,38.5 0.035,57.744c0,10.26 -0.003,20.523 -0.042,30.778v0.615c0,4.072 0.125,8.105 0.37,12.187v-0.006c0.157,3.951 0,8.133 0.245,12.51v0c0.245,4.807 0,9.861 0.615,15.136c0.369,4.009 0.739,7.906 0.984,11.829c0.209,5.557 0.245,11.151 0.245,16.784v4.475c0,1.28 0,2.545 0.004,3.825v0.245c0,6.099 -0.616,12.336 -0.861,18.853c-0.123,3.652 -0.941,7.599 -0.984,12.002l-0.004,1.107c0,1.267 0.018,2.485 0.018,3.714c0,1.697 0,3.32 -0.123,4.907v0.004c-0.492,4.404 -0.737,8.904 -0.737,13.405l0.004,1.241v0.364c0.012,4.891 -1.082,9.896 -1.697,15.405l-0.03,0.615c0.035,0.946 0.129,1.967 0.123,2.951l-0.035,0.615l-1.599,1.549l1.869,2.262c0.122,0.122 0.157,0.122 0.245,0.245c0.124,0.776 0.491,1.39 0.861,2.005l1.107,1.107c0.442,0.369 1.057,0.739 1.918,0.984l0.984,0.088c1.684,-0.123 2.545,-0.615 2.668,-0.615c1.71,-0.443 3.64,-0.812 5.693,-1.304h-0.013c1.747,-0.467 3.591,-0.836 5.509,-1.328v0c1.673,-0.492 2.595,-0.763 3.21,-0.737h0.035c0,0 0.246,0 0.861,0.245c0.59,0.245 1.512,0.648 2.84,0.737l6.432,0.37l-3.493,-5.275l-0.026,-0.042c-0.245,-0.528 -0.492,-2.164 -0.615,-3.025c-0.369,-2.631 -0.738,-5.385 -0.861,-8.115c-0.247,-4.172 -0.492,-8.354 -0.984,-12.719c-0.788,-6.654 -1.155,-13.596 -1.525,-20.519v0.008c-0.157,-3.752 -0.245,-7.503 -0.245,-11.277c0,-12.052 0.861,-24.251 0.984,-36.575c0.013,-1.623 0.021,-3.234 0.021,-4.833c0,-6.06 -0.089,-12.086 -0.089,-18.086c0,-0.75 0.008,-1.501 0.008,-2.238c0.036,-8.299 0.874,-16.671 1.611,-25.204c1.39,-16.71 1.39,-33.304 2.127,-49.784c0.431,-9.226 1.292,-18.537 1.292,-28.079v-0.251c0,-7.556 -0.247,-15.072 -0.492,-22.597c-0.614,-17.261 -1.783,-30.989 -2.398,-48.52v-0.006c-0.368,-8.223 -0.859,-16.374 -1.229,-24.465v-0.008c-0.332,-6.824 -1.228,-13.381 -1.316,-19.739c-0.221,-11.018 -1.081,-22.154 -2.569,-33.074c-1.501,-11.036 -3.947,-21.928 -6.137,-32.627v-0.006c-1.009,-4.9 -1.754,-9.387 -1.746,-14.11v-0.492c0.012,-0.973 0.012,-1.919 0.012,-2.903c0,-1.218 -0.008,-2.399 -0.008,-3.628l0.008,-1.438v0.013l0.013,-0.737c0,-0.528 0,-1.414 -0.615,-2.521l-2.19,-3.923zM902.162,493.112c1.414,4.218 -0.295,7.268 -2.288,11.018c-4.108,7.747 -7.01,16.134 -10.391,24.249c-0.811,1.932 -1.402,3.935 -2.386,5.817c-6.715,13.559 -8.142,27.694 -6.838,42.725c0.602,7.01 -1.218,15.133 -4.538,21.404c-12.354,23.338 -21.65,47.878 -30.995,72.431c-0.8,2.09 -1.858,4.144 -3.198,5.915c-8.194,10.824 -16.797,21.36 -24.679,32.402c-4.291,5.997 -7.599,12.711 -11.054,19.266c-2.411,4.561 -4.723,9.233 -6.382,14.09c-4.81,14.109 -15.872,20.196 -29.372,23.504c-1.143,0.283 -2.14,1.354 -3.124,2.091c-5.665,3.923 -11.384,7.784 -16.978,11.805c-1.526,1.083 -2.89,2.521 -3.997,4.034c-7.567,10.263 -14.987,20.619 -22.624,30.825c-0.812,1.045 -2.682,1.783 -4.132,1.906c-3.554,0.376 -7.145,0.349 -10.723,0.37c-165.335,0.713 -330.688,1.45 -496.034,2.065c-7.781,0 -15.603,-0.246 -23.338,-1.107c-2.473,-0.257 -5.313,-2.262 -6.948,-4.291c-9.097,-11.369 -17.566,-23.229 -26.874,-34.408c-5.87,-7.045 -14.013,-12.433 -19.018,-19.946c-7.172,-10.759 -17.874,-16.839 -27.343,-24.697c-8.342,-6.919 -16.233,-14.53 -23.426,-22.597c-3.764,-4.225 -5.584,-10.14 -8.35,-15.243c-2.694,-4.964 -5.399,-9.92 -8.276,-14.777c-6.163,-10.421 -12.877,-20.552 -18.558,-31.213c-9.013,-16.891 -16.871,-34.301 -20.093,-53.38c-0.245,-1.118 -0.636,-2.225 -0.615,-3.332c0.196,-7.19 -1.784,-13.19 -8.178,-17.507c-3.393,-2.3 -2.545,-6.014 -1.561,-9.457c0.247,-0.663 0,-1.501 -0.245,-2.238c-3.026,-8.108 -6.272,-16.145 -9.112,-24.311c-1.525,-4.377 -3.293,-8.963 -3.381,-13.501c-0.37,-18.667 -0.603,-37.162 -4.255,-55.761c-2.22,-11.279 -4.064,-23.728 -0.018,-35.385c5.977,-17.298 4.747,-35.414 6.838,-53.144c0.368,-3.11 2.36,-6.012 2.975,-9.136c2.127,-11.283 3.652,-22.68 6,-33.919c1.267,-6.021 3.419,-11.948 5.866,-17.617c1.118,-2.619 4.525,-4.192 5.853,-6.775c6.509,-12.65 13.039,-25.318 18.794,-38.305c2.68,-6.059 3.577,-12.897 5.361,-19.365c2.754,-10.028 5.397,-20.1 8.521,-30.023c0.8,-2.545 3.21,-4.587 5.878,-6.358c-0.245,1.069 -0.492,2.128 -0.737,3.578c0.788,-0.369 1.28,-0.616 1.525,-0.861c1.599,-2.213 3.553,-4.304 4.66,-6.751c7.05,-15.89 17.924,-29.212 28.623,-42.687c4.828,-6.073 9.327,-12.393 14.05,-18.554c1.464,-1.918 2.879,-4.081 4.809,-5.385c10.675,-7.172 18.559,-17.14 27.265,-26.276c3.122,-3.27 6.013,-6.764 9.345,-10.514c1.475,1.758 2.116,2.509 4.279,5.066c2.938,-3.739 5.287,-7.76 8.607,-10.711c5.366,-4.783 11.378,-8.855 17.109,-13.232c1.008,-0.775 2.164,-1.427 3.025,-2.288c5.017,-4.98 10.008,-9.456 17.079,-12.137c5.562,-2.092 9.817,-7.551 14.736,-11.4c9.525,-7.457 21.057,-10.47 32.296,-14.098c0.589,-0.176 1.733,-0.333 1.856,-0.088c3.836,6.228 7.832,0.83 11.558,-0.031c2.559,-0.603 4.833,-2.387 7.231,-3.64c-0.245,-0.443 -0.492,-0.812 -0.615,-1.304l-7.231,1.39c-0.125,-0.517 -0.247,-0.886 -0.37,-1.378c2.619,-0.935 5.202,-1.943 7.846,-2.804c13.033,-4.296 26.19,-8.243 39.052,-12.966c4.095,-1.512 7.414,-5.066 11.116,-7.649c1.708,-1.191 3.43,-2.397 5.299,-3.381c5.441,-2.755 9.449,-7.736 15.487,-9.58c1.118,-0.343 2.003,-1.573 2.864,-2.557c5.436,-5.865 7.402,-6.48 16.97,-4.624c-2.115,1.045 -3.371,1.697 -4.624,2.312c0.012,0.122 0.022,0.369 0.043,0.492c4.968,-0.835 10.022,-1.39 14.891,-2.619c2.595,-0.652 3.246,-4.316 6.972,-4.439c8.321,-0.343 16.605,-2.172 24.905,-2.127c4.723,0.024 9.385,2.816 14.18,3.923c2.608,0.615 5.46,0.368 8.19,0.245c6.403,-0.369 12.931,-1.845 19.178,-0.984c10.499,1.376 20.813,4.144 30.085,6.086c0.245,2.411 0.122,4.317 0.737,4.562c4.729,2.423 9.389,3.911 15.156,2.3c11.114,-3.111 22.148,-6.972 34.223,-4.672c3.975,0.749 8.415,-0.886 12.645,-1.378c1.278,-0.202 2.62,-0.49 3.861,-0.245c11.99,2.077 24.035,3.935 35.889,6.603c4.144,0.936 7.883,3.8 11.657,6.026c7.521,4.437 15.11,8.814 22.366,13.635c6.193,4.112 11.912,8.931 17.998,13.236c1.635,1.193 3.762,1.808 5.767,2.3c12.177,2.669 24.418,5.103 36.579,7.833c1.76,0.394 3.517,1.635 4.833,2.927c3.923,3.849 7.623,7.933 11.424,11.916c6.958,7.268 13.982,14.314 23.131,19.147c6.444,3.395 12.322,7.883 18.298,12.101c2.127,1.501 3.69,3.777 5.731,5.424c2.226,1.808 4.526,3.702 7.133,4.809c3.947,1.586 5.854,4.12 7.083,8.141c1.402,4.748 3.739,9.225 5.669,13.811c0.492,-0.122 0.859,-0.159 1.229,-0.245c0.38,-1.131 0.749,-2.264 1.241,-3.714c8.508,11.565 16.906,22.972 25.329,34.408c-0.517,0.247 -1.119,0.492 -2.226,0.984c3.973,4.562 7.783,8.941 11.596,13.318c1.673,1.918 3.592,3.688 5.018,5.779c8.467,12.403 16.411,25.178 25.364,37.216c6.472,8.715 14.247,16.481 20.605,23.725c0.738,2.324 0.862,3.799 1.599,4.66c3.947,4.593 8.127,8.984 12.062,13.57c0.848,1.034 1.339,2.559 1.709,3.911c2.793,9.259 3.849,19.079 9.1,27.576c0.614,0.934 -0.615,2.828 -0.37,4.132c0.85,3.8 2.005,7.539 3.112,11.277c0.725,2.435 1.783,4.773 2.398,7.244c0.922,4.045 1.635,8.151 2.25,12.259c0.749,5.258 1.611,10.534 1.856,15.821c0.687,14.237 4.464,27.862 9.136,41.111c4.18,11.865 2.545,23.464 1.438,35.269c-0.651,7.383 -1.671,14.751 -2.041,22.141c-0.123,2.656 1.157,5.398 2.816,7.981c0.247,-1.548 0.369,-3.111 0.492,-4.672c0.504,0 1.119,-0.157 1.611,-0.245c1.87,7.86 4.071,15.666 5.436,23.611c0.468,2.655 -1.869,5.705 -1.746,8.521c0.136,3.285 1.402,6.579 2.509,9.777z" /> <path d="M194.681,826.747c-4.41,-4.046 -8.91,-7.943 -13.829,-11.436h540.263c-3.285,2.324 -6.838,4.353 -11.179,5.779c-5.908,1.954 -10.419,7.034 -15.646,10.612c-10.124,6.937 -22.369,9.741 -34.309,13.122c-0.627,0.177 -1.832,0.334 -1.955,0.089c-4.095,-5.791 -8.338,-0.835 -12.297,0.026c-2.705,0.553 -5.128,2.274 -7.673,3.381c0.123,0.368 0.37,0.859 0.615,1.229c2.557,-0.431 5.116,-0.8 7.685,-1.292c0.125,0.419 0.247,0.788 0.37,1.28c-2.778,0.873 -5.532,1.758 -8.324,2.619c-13.856,3.983 -27.819,7.659 -41.489,12.062c-4.353,1.4 -7.87,4.721 -11.805,7.119c-1.832,1.119 -3.652,2.287 -5.633,3.148c-5.769,2.569 -10.036,7.194 -16.455,8.915c-1.193,0.321 -2.065,1.525 -3.049,2.386c-5.77,5.412 -7.859,6.039 -18.029,4.305c2.263,-0.922 3.591,-1.536 4.931,-2.151c-0.012,-0.247 -0.025,-0.369 -0.043,-0.492c-5.278,0.776 -10.639,1.328 -15.816,2.435c-2.754,0.615 -3.443,4.009 -7.402,4.132c-8.835,0.322 -17.649,2.024 -26.453,1.981c-5.015,-0.036 -9.958,-2.668 -15.061,-3.652c-2.766,-0.615 -5.791,-0.368 -8.694,-0.245c-6.806,0.246 -13.743,1.598 -20.372,0.861c-11.149,-1.28 -22.101,-3.849 -31.95,-5.657c-0.369,-2.249 -0.246,-3.997 -0.861,-4.242c-5.031,-2.274 -9.974,-3.664 -16.111,-2.151c-11.799,2.878 -23.534,6.48 -36.345,4.341c-4.233,-0.701 -8.93,0.8 -13.431,1.292c-1.354,0.081 -2.78,0.368 -4.108,0.123c-12.72,-1.956 -25.522,-3.664 -38.115,-6.149c-4.384,-0.86 -8.368,-3.542 -12.377,-5.607c-7.994,-4.121 -16.049,-8.192 -23.759,-12.68c-6.577,-3.834 -12.649,-8.298 -19.105,-12.307c-1.748,-1.044 -3.998,-1.659 -6.125,-2.151c-12.942,-2.471 -25.931,-4.747 -38.858,-7.28c-1.858,-0.358 -3.726,-1.489 -5.116,-2.718c-4.168,-3.591 -8.103,-7.39 -12.137,-11.092z" /></svg>