<svg xmlns="http://www.w3.org/2000/svg" viewBox="0 0 953 960" width="953" height="960"><path d="M560.484,888.506c0.006,0.009 0.01,0.016 0.02,0.026c-0.098,0.041 -0.103,0.025 -0.02,-0.026z" /> <path d="M622.858,860.75c0.097,-0.09 0.139,-0.109 0.157,-0.109c-0.063,0.047 -0.09,0.059 -0.157,0.109z" /> <path d="M758.384,721.886c-1.103,0.855 -1.849,1.448 -2.423,1.837c0.804,-0.62 1.608,-1.245 2.423,-1.837z" /> <path d="M427.768,0.521v0.012h0.061c1.137,0.143 2.287,0.226 3.468,0.353l2.999,0.175c1.41,0.03 2.832,0.03 4.291,0c-3.257,0.389 -9.799,1.058 -1.708,2.646c13.4,0.166 3.056,0.941 10.464,2.823c13.267,0.833 2.512,-2.668 21.989,0.117c2.1,0.212 0.21,-0.888 -1.882,-1.529c4.495,0.678 8.734,1.097 11.818,1.29c6.551,0.084 12.955,-0.057 21.343,0.88c-5.689,-0.516 -10,-1.076 -2.294,-1.765c-3.34,1.286 10.573,1.41 15.58,2.353l1.351,-0.822c4.021,0.946 -0.229,1.247 -3.528,1.47c0.09,-0.308 -1.087,-0.559 -3.526,-0.529c-6.422,0.555 -4.107,3.642 5.998,4.114c10.871,-0.639 9.117,-2.731 7.23,-3.584c1.371,0.094 2.569,0.175 3.641,0.175c1.238,0 2.324,-0.058 3.352,-0.058c1.666,0.256 2.29,0.262 3.233,0.292c0.814,0.03 1.685,0.03 2.411,0c1.504,-0.065 2.774,-0.169 4.233,-0.234c2.869,-0.088 6.104,0.078 11.583,1.706c3.127,0.554 12.848,5.768 22.696,7.997c5.433,-0.813 -12.107,-3.748 -6.115,-4.172c3.898,1.878 7.946,3.275 12.229,3.879c4.366,0.556 8.838,0.751 13.463,0.88c9.331,0.302 19.27,0.392 29.928,3.174l-2.999,1.882c2.439,0.427 4.838,0.717 7.405,1.117c1.501,0.771 3.063,1.583 4.647,2.353c1.374,0.648 2.795,1.3 4.291,1.941l-6.349,-4.527c5.093,1.971 15.467,7.625 11.23,7.466c11.128,3.514 12.86,5.57 22.282,10.878c-10.188,-5.225 -0.05,-0.401 -8.056,-3.057c4.409,2.742 7.113,4.253 9.465,5.41c1.155,0.514 2.252,1.002 3.409,1.47c1.244,0.472 2.515,0.948 4.055,1.589c0.598,0.43 1.488,1.149 2.472,1.882c-1.54,-0.302 0.97,3.471 3.409,5.527c6.805,3.98 16.663,12.882 25.396,19.342l-0.41,0.471l3.528,2.823l2.997,2.586c3.508,1.111 6.929,2.266 10.525,3.468l11.288,3.762c7.536,2.439 15.059,4.674 22.637,5.998c0.383,0.065 0.752,0.204 1.115,0.234l-1.589,-0.588c-2.228,-1.684 -0.552,-1.626 5.998,0c1.883,2.357 4.094,5.209 6.231,7.821c1.8,2.229 3.473,4.279 4.586,5.351c0.298,1.324 -0.062,2.297 1.825,4.822c1.708,-1.028 5.095,5.029 7.405,6.525c3.209,5.437 -2.378,0.848 4.172,9.407c2.649,3.257 3.755,2.96 4.115,2.06c0.168,1.065 1.434,3.578 2.292,5.291c1.195,1.626 3.811,4.322 5.82,6.29c-1.799,-0.939 -3.619,-3.521 -4.647,-4.291c-1.246,0.302 1.791,2.626 0.763,3.526c3.639,3.555 2.803,0.03 6.997,4.822l-5.412,-2.823c1.588,2.011 4.442,3.638 5.47,4.408c-1.587,-1.131 -2.52,-1.28 -3.116,-1.057l5.468,5.115c1.784,-0.297 -0.845,-5.084 0.352,-5.644c4.197,4.624 8.414,8.26 12.522,11.641c2.055,1.63 4.129,3.282 6.056,4.822l2.882,2.353l3.291,2.763l2.411,3.233l-2.704,-0.703c3.172,4.154 4.892,6.062 6.644,7.171l4.527,6.761c-3.166,-3.494 -4.587,-4.432 -5.998,-3.879c5.31,6.85 11.58,16.856 14.875,17.284l-0.469,-0.058c5.524,10.105 19.206,29.82 18.049,29.691c7.834,9.504 15.779,23.067 18.051,21.87c4.838,5.523 8.737,17.186 14.346,19.58c3.894,7.962 -0.207,0.716 -3.291,-0.352c3.94,8.006 12.514,12.616 11.405,17.111c7.189,7.837 -0.895,-2.454 2.53,-0.527c-0.428,0.853 0.222,2.407 1.29,4.289c0.129,6.676 2.645,17.303 2.177,24.752c1.883,4.064 0.296,-4.402 2.647,2.704c-0.915,-0.602 -0.605,3.307 -0.412,5.234l2.294,1.648l-2.647,7.113l1.174,8.35l0.117,0.352c2.228,1.586 0.317,-4.425 6.997,8.29l-0.705,-0.941c0.258,5.605 7.3,11.717 11.583,24.988c-1.588,-4.492 -1.725,-1.36 -2.882,-2.469l3.998,6.642c-0.403,-0.591 -0.717,-0.814 -0.588,0c0.9,4.283 1.874,4.977 3.116,7.114c0.551,1.503 1.011,3.031 1.234,6.115c-0.689,-2.054 -1.341,-2.923 -1.765,-3.116l2.823,10.464l1.174,2.231l-0.763,-0.644l8.821,32.926l-9.994,49.093l0.352,1.115c0.212,0.064 0.51,0.087 0.703,0.117l2.353,6.7c0.99,-0.56 0.298,-5.431 -0.471,-8.467c-0.084,-2.999 6.277,10.174 8.763,17.58c5.221,20.289 -2.53,5.165 0.469,19.166l2.413,6.173l1.115,3.057v-0.175l1.41,3.937l-0.644,3.641l-0.352,2.706h-1.174c-1.367,2.742 -0.559,4.552 -0.529,5.41c-1.238,-1.629 -4.047,14.533 -6.056,21.811l1.942,-2.353c-1.836,21.108 -10.866,31.454 -12.875,47.977l-0.234,11.876l-2.472,1.942c0,1.629 -0.115,2.957 -0.115,4.114c-0.343,4.409 -0.281,6.991 -3.409,15.169c-2.138,5.222 -4.188,10.496 -6.115,15.933l-2.823,8.114l-2.823,8.702c-9.588,14.769 -17.416,27.98 -26.751,42.92l-7.114,6.995l-6.7,6.7c-4.542,4.325 -9.091,8.648 -13.758,12.756c0.273,-0.036 0.616,-0.224 1.044,-0.515c-3.673,2.836 -7.159,5.86 -9.689,8.215c-4.413,7.106 -8.198,15.012 -11.407,22.165c-1.587,3.641 -3.234,7.224 -4.822,10.82l-2.411,5.412l-1.351,2.704l-2.116,3.937c-1.669,1.284 -3.424,2.535 -5.176,3.821c-1.41,0.939 -2.832,1.912 -4.291,2.94c-2.954,1.927 -6.04,3.787 -9.465,5.585l1.293,-1.823c-12.844,9.545 1.368,-1.946 -8.819,3.879c-0.255,3.385 -15.759,13.038 -22.224,19.758c0.817,-1.286 3.305,-3.214 5.232,-5.176c-1.712,0.644 -3.128,-0.093 -6.466,3.116c-2.439,3.725 -6.779,8.15 -11.876,12.817c-2.611,2.228 -5.271,4.556 -8.056,6.995c-2.611,2.182 -5.254,4.46 -7.821,6.644c-1.883,2.482 -3.636,4.899 -5.349,7.171c-2.483,0.424 -12.695,10.319 -19.461,14.17c-0.6,1.673 -1.597,4.796 -2.411,7.704c-1.585,1.286 -2.869,2.563 -3.937,3.937c-0.644,0.771 -1.265,1.623 -1.825,2.353c-0.689,0.936 -1.359,1.863 -2,2.763c-1.799,0.69 -4.208,1.605 -5.41,2.294l5.881,-1.589l6.936,-8.469c-0.032,0.183 -0.063,0.342 -0.063,0.471c0.254,-0.471 0.803,-1.202 1.234,-1.884c1.923,-2.322 3.021,-3.781 2.922,-3.811c5.08,-3.752 0.581,1.325 2.312,2.168c-1.325,1.632 -3.334,3.947 -5.176,6.173c-0.943,1.156 -1.842,2.205 -2.704,3.233c-1.54,1.748 -2.948,3.238 -4.057,4.348c-1.929,0.391 -3.2,0.512 -3.76,0.353c-3.086,0.753 -3.621,0.886 -5.117,1.174c-1.323,0.255 -2.663,0.534 -4.289,0.822c-1.885,0.773 -4.051,1.453 -6.409,1.884l0.999,-0.412c-0.42,-0.128 -0.898,-0.145 -1.41,-0.175c-4.925,0.86 -10.519,2.816 -15.874,5c-2.697,1.114 -5.333,2.205 -7.819,3.233c-1.235,0.559 -2.441,1.117 -3.643,1.589c-0.516,0.254 -1.036,0.51 -1.589,0.703c-0.032,0.119 -0.058,0.287 -0.058,0.352c-0.031,-0.119 -0.058,-0.257 -0.058,-0.352c-0.03,-0.512 0.129,-1.063 0,-1.351c-0.255,-0.295 -0.467,-0.483 -0.939,-0.642c-0.254,-0.379 -2.508,0.428 -2.92,-0.208c0.097,-0.042 0.286,-0.14 0.565,-0.322c0.344,-0.165 0.938,-0.525 1.708,-0.997c3.768,-0.942 10.339,-2.706 17.872,-4.588c-1.028,0.042 -1.716,-0.074 -2.116,-0.586c-3.127,0.258 -5.887,0.878 -8.584,1.648c-1.374,0.424 -2.683,0.935 -4.057,1.407c-1.413,0.423 -2.956,1.005 -3.468,1.293l-0.999,0.763l-1.589,1.234c-1.194,0.855 -2.355,1.643 -3.641,2.586c-2.53,1.713 -5.391,3.568 -8.819,5.41c0.77,-0.728 2.377,-2.163 1.349,-2.292c-5.221,2.784 -9.029,6.843 -9.582,8.469c-1.07,-0.339 -4.433,0.938 -8.114,2.821c-1.884,0.942 -3.787,2.116 -5.585,3.233c-0.862,0.599 -1.76,1.077 -2.53,1.589c-0.984,0.726 -1.89,1.464 -2.704,2.06c-0.15,0.094 -0.322,0.262 -0.352,0.292c-3.429,1.153 -4.444,1.719 -6.115,2.233c-1.671,0.514 -3.92,0.908 -8.76,1.468l4.172,-1.765c-11.817,0.469 -9.325,2.923 -19.047,3.116c3.851,0 4.03,-1.244 1.115,-1.115c-12.113,2.181 -12.296,2.9 -20.814,6.408l1.41,-2.116c-9.723,1.98 -27.665,5.31 -29.972,3.526c0.521,1.092 -1.758,1.847 -5.363,2.353c-1.97,0.3 -4.411,0.544 -6.936,0.703c-2.399,0.119 -4.926,0.223 -7.407,0.352c-4.413,0.682 -8.578,1.275 -11.23,1.706c3.035,-0.644 3.539,-1.59 3.762,-2.058c-6.549,2.098 -13.225,3.606 -19.991,4.763l-10.17,1.589l-10.761,1.531l-8.702,0.352l-8.409,0.527l-3.235,-2.646c-10.148,0.813 -12.647,6.679 -23.694,7.405l3.937,-1.706c-4.584,0.385 -8.694,0.864 -10.878,1.057c-3.807,-0.77 -7.159,-1.457 -10.287,-2.058c-2.782,-0.556 -5.348,-1.09 -7.879,-1.65c-5.047,-1.111 -9.929,-2.211 -16.05,-3.585l0.703,-1.823c-2.483,-0.09 -5.212,-0.475 -7.997,-0.763c-2.912,-0.343 -5.887,-0.694 -8.584,-1.057c-1.883,-0.462 -2.099,-0.485 -2.999,-0.644c-3.51,-2.828 -9.935,-5.407 -17.815,-7.938c-3.892,-1.197 -8.288,-2.512 -12.696,-3.879c-2.182,-0.689 -4.418,-1.315 -6.644,-2l-7.405,-2.469c-2.44,-1.323 -4.838,-2.549 -7.232,-3.879c-2.141,-1.2 -4.215,-2.537 -6.231,-3.823c-4.115,-2.571 -7.889,-5.215 -11.054,-7.997l-2.999,2.411c-2.742,-1.497 -5.787,-3.175 -8.702,-4.763c-1.446,-0.817 -2.8,-1.655 -4.174,-2.469c-1.239,-0.727 -2.986,-1.852 -2.763,-1.882c-0.21,-0.212 0.112,-0.16 -0.529,-0.353c-0.512,-0.253 -0.951,-0.538 -1.351,-0.761c-0.9,-0.516 -1.663,-1.09 -2.175,-1.65l1.882,0.588c1.582,-2.439 -8.703,-2.341 -14.053,-4.35c-4.197,-0.77 -8.779,-0.102 -5.351,1.351c-3.811,-1.282 -7.949,-2.593 -12.229,-3.879c-4.796,-1.322 -9.79,-2.74 -14.758,-4.114c-4.323,-2.956 -8.663,-5.91 -12.817,-8.821c-3.771,-2.654 -7.409,-5.265 -10.876,-7.704c-6.805,-4.965 -12.557,-9.546 -16.108,-13.227c-0.559,-0.339 -1.059,-0.716 -1.531,-0.939c-1.194,-1.158 -2.444,-2.3 -3.641,-3.409c-1.068,-0.987 -2.102,-1.939 -3.174,-2.882c-2.055,-1.886 -4.088,-3.685 -6.056,-5.527c-4.109,-3.555 -7.966,-7.035 -11.993,-10.586c-3.936,-3.515 -7.946,-7.162 -12.054,-11.054c-4.281,-3.725 -8.661,-7.644 -13.286,-12.052l0.529,-0.058c-6.08,-6.332 -18.208,-19.025 -16.108,-21.167c-14.131,-12.415 -25.479,-17.822 -40.806,-34.392l4.291,2.586c-0.604,-0.689 -1.216,-1.332 -1.942,-2.058c-0.899,-0.817 -1.878,-1.789 -2.821,-2.647c-1.33,-1.881 -1.877,-2.425 -2.647,-3.409c-0.77,-0.863 -1.417,-1.641 -2.058,-2.411c-1.371,-1.497 -2.487,-2.756 -2.999,-3.352c-1.072,-1.669 0.262,-0.763 0.822,-0.763c-2.185,-5.05 -5.326,-6.803 -7.938,-10.228l1.765,0.941c-1.755,-3.428 -3.958,-7 -6.527,-10.761c-1.285,-1.889 -2.629,-3.802 -3.996,-5.764c-1.587,-2.142 -3.211,-4.332 -4.88,-6.642c-2.955,-6.422 -6.088,-13.136 -9.172,-19.816c-2.955,-6.469 -5.756,-13.017 -8.114,-19.225c1.883,3.811 2.1,1.342 1.941,-0.41c-0.679,-0.769 -1.505,-1.783 -2.231,-2.94c-0.34,-0.556 -0.686,-1.124 -1.117,-1.765c-0.383,-0.77 -0.557,-0.998 -1.29,-2.586c-0.516,-1.543 -1.124,-3.166 -1.765,-4.88c-0.472,-1.544 -1.029,-3.178 -1.589,-4.766c-0.941,-3.295 -1.898,-6.699 -2.882,-9.994c-1.799,-6.547 -3.409,-12.63 -4.647,-16.226l2.706,5.412c-3.602,-9.42 -3.44,-13.075 -3.762,-18.168c0.081,-4.585 0.262,-8.169 -2.177,-16.815l-0.234,10.82c-0.684,-7.58 -2.266,-13.827 -3.468,-11.818c-0.298,-8.861 2.325,-1.494 0.527,-14.64c0.811,-0.727 2.135,9.375 2.647,4.88l-0.41,-18.579v-0.058c0.096,-0.164 -0.046,-1.392 -0.175,-2.292c-0.476,-1.196 -1.13,-2.96 -2.119,-5.527c-3.38,2.917 -5.371,-14.235 -6.056,-4.174c-2.31,-6.207 -4.363,-12.248 -6.29,-18.108c-1.927,-6.035 -3.802,-11.905 -5.644,-17.639c-0.467,-3.038 -0.92,-5.922 -1.351,-8.877c-0.514,-2.786 -0.996,-5.548 -1.468,-8.29c-1.025,-5.44 -2.19,-10.861 -3.643,-16.168c0.383,-1.713 0.453,-4.052 0.294,-6.878c-0.108,-1.458 -0.37,-3.046 -0.529,-4.586c-0.13,-0.818 -0.227,-1.614 -0.292,-2.472c-0.197,-1.193 -0.429,-2.463 -0.588,-3.701c1.07,-3.467 2.161,-7.019 3.233,-10.404c0.984,-2.994 1.865,-5.873 2.765,-8.231c1.76,-4.754 3.469,-7.684 4.88,-6.527c3.554,-12.117 5.81,-22.037 5.41,-30.218c1.018,-5.881 2.063,-12.205 3.118,-16.285c-0.987,8.346 -2.989,21.715 -3.118,28.395c2.787,-11.129 4.486,-27.277 5.47,-33.57l3.351,-2.177c0.385,-9.502 3.823,-7.582 3.823,-16.401c-0.032,-0.171 -0.028,-0.303 -0.058,-0.703c-0.18,0.309 -0.37,0.427 -0.529,0.586c-0.21,0.21 -0.451,0.441 -0.644,0.763c0.064,-0.299 0.206,-0.629 0.236,-0.822c2.504,-16.181 0.06,-17.422 2.116,-33.394l0.941,0.939c0.557,-2.184 0.693,-4.843 0.822,-7.585c0.063,-1.367 0.046,-2.748 0.175,-4.115l0.352,-2.058c0.18,-0.856 0.34,-1.597 0.469,-2.411c0.468,-1.158 0.736,-1.841 1.058,-2.353c0.343,-0.6 0.832,-1.017 1.232,-1.529l-1.349,4.114l-0.999,7.23c1.202,-0.557 2.311,-3.217 3.468,-6.642c1.286,-2.486 2.216,-4.245 3.116,-5.704c3.034,-11.046 -1.655,-4.788 -0.115,-10.348c2.398,-1.714 1.101,-0.226 1.529,4.057c1.501,-5.651 3.223,-12.152 4.763,-18.402c0.769,-3.127 1.464,-6.191 2.06,-9.053c0.599,-3.171 1.176,-6.059 1.648,-8.584c0.941,-1.582 1.455,-2.722 1.648,-3.411c0.547,-0.299 0.586,0.471 0.586,0.471c8.135,-10.492 12.543,-21.849 18.579,-27.456l-1.351,2.231c1.84,-1.497 3.588,-3.448 5.176,-5.585l2.292,-3.409c0.814,-1.116 1.577,-2.287 1.706,-2.647c0.041,-0.468 0.752,-2.607 1.115,-3.937c0.517,-1.452 1.002,-2.841 1.47,-3.998c0.988,-2.311 1.998,-3.778 3.409,-3.937c2.479,-4.407 -4.077,10.629 0.763,3.823c6.721,-14.343 0.103,-11.052 6.056,-23.637c-0.773,1.721 -0.334,1.23 -0.175,2c1.67,-4.925 3.695,-10.61 5.879,-16.817c4.495,-4.197 9.384,-8.797 13.879,-12.99c3.51,-1.67 7.56,-4.531 11.759,-7.998c2.057,-1.798 4.224,-3.685 6.408,-5.527c2.056,-1.838 4.176,-3.746 6.232,-5.585c1.204,-1.842 2.385,-3.672 3.587,-5.47c1.282,-1.966 2.549,-3.876 3.879,-5.585c2.654,-3.597 5.3,-6.778 7.997,-9.172c-3.696,3.099 0.081,-3.193 0.163,-4.399c0.059,0.191 0.202,0.424 0.595,0.161c3.138,-4.666 2.331,-6.014 3.057,-8.114c0.981,-0.899 1.971,-2.405 2.999,-4.114c1.069,-1.97 2.28,-4.144 3.352,-6.115c1.195,-1.414 2.348,-2.753 3.291,-3.821c0.853,-0.899 1.696,-1.654 2.292,-1.942c-0.599,-0.727 2.831,-3.661 6.466,-7.171c-6.59,7.806 -0.923,3.686 -3.233,7.879c11.298,-10.144 9.746,-14.994 21.692,-25.398l3.057,-1.942l1.589,-0.997l2.116,-1.529l2.353,-0.705c0.689,-3.256 14.284,-8.301 13.643,-9.111c2.826,-0.258 6.612,-1.514 6.642,-0.061c5.476,-3.213 14.71,-5.942 16.462,-8.467l-6.056,2c4.581,-1.798 9.172,-4.016 12.171,-5.644c9.292,-6.423 16.824,-13.132 26.929,-17.757l1.823,3.526c2.872,-1.155 5.322,-2.663 7.587,-4.291c2.4,-1.798 4.671,-3.446 6.936,-5.115l2.882,-1.115c0.769,-0.302 1.655,-0.629 2.469,-0.822c1.625,-0.406 3.317,-0.733 5.115,-0.763c-3.3,-0.345 -3.739,0.242 2,-3.057c-1.457,0.389 -3.386,1.041 -5.527,1.941c-1.029,0.383 -2.089,0.879 -3.291,1.351c-1.285,0.471 -2.622,1.017 -3.996,1.529c-1.28,0.857 -2.651,1.775 -3.937,2.589c1.11,-0.986 1.759,-1.763 3.641,-3.174c2.487,-1.072 3.234,-1.583 4.822,-2.353l4.172,-2.292l-9.407,3.641l-10.348,7.114c6.892,-6.081 6.571,-5.44 2.589,-4.88c1.113,-0.857 2.127,-1.651 3.116,-2.292c0.468,-0.297 0.979,-0.659 1.41,-0.882c0.771,-0.422 1.488,-0.866 2.177,-1.29c0.726,-0.198 1.39,-0.451 2.116,-0.644c0.383,-0.13 0.776,-0.163 1.176,-0.292c0.771,-0.149 1.43,-0.342 2.119,-0.471c1.367,-0.3 2.555,-0.473 3.879,-0.761c2.654,-0.553 5.653,-1.353 9.933,-3.409c4.411,-0.855 0.473,1.944 5.527,1.174c4.281,-2.055 8.74,-3.051 12.936,-3.821c2.142,-0.427 4.202,-0.795 6.173,-1.117c2.058,-0.516 3.327,-0.898 5.939,-1.882c-0.686,0.342 -1.045,0.663 -0.822,0.822c0.302,-0.193 0.681,-0.287 0.939,-0.352c3.558,-0.231 6.58,-0.37 8.938,-0.529c2.272,-0.215 4.003,-0.57 4.94,-1.174l-5.995,-0.294c5.266,0 6.11,-1.621 16.168,-0.939c4.337,-0.767 7.248,-2.108 5.762,-2.704c2.323,0.293 4.449,0.802 3.116,1.648c6.68,-0.129 9.034,-0.995 10.703,-1.765c0.855,-0.383 1.485,-0.77 2.469,-1.058c0.347,-0.159 1.241,-0.287 1.529,-0.352c0,-0.032 0.046,-0.088 0.175,-0.058c0.094,-0.03 0.107,-0.03 0.236,0c0.213,-0.033 1.643,-0.637 2.586,-0.997c-0.842,0.551 -1.716,1.32 -1.115,1.29c2.412,-1.086 4.426,-2.129 6.173,-3.148c-3.109,2.048 -2.084,2.254 -1.293,2.441c0.482,0.036 0.855,0.203 0.295,0.763c-0.342,0.255 -0.865,0.605 -1.765,1.117c-0.512,0.21 -1.08,0.576 -1.765,0.939c-0.603,0.302 -1.572,0.792 -1.765,0.822c0.21,0.249 0.415,0.352 0.703,0.352c0.472,-0.044 0.948,-0.276 1.589,-0.469c1.201,-0.518 2.676,-1.186 4.172,-2c2.955,-1.709 6.19,-3.735 8.584,-4.588c6.084,-4.964 -0.685,-3.172 2.177,-5.998c0.301,0.64 3.058,-0.813 6.525,-2.353l-3.996,0.294c2.826,-1.544 5.551,-2.992 8.76,-5.176l-5.291,3.641c2.353,-1.153 5.365,-2.311 8.703,-3.641c1.669,-0.686 3.392,-1.505 5.234,-2.231c0.898,-0.467 1.91,-0.927 2.938,-1.351c1.527,-0.81 3.037,-1.641 4.647,-2.528zM473.22,73.478c-4.965,33.729 -18.793,79.481 -40.553,134.186c-20.413,51.314 -20.569,52.075 -11.417,54.887l0.006,0.002c5.104,1.57 13.821,1.954 19.374,0.854c5.548,-1.101 30.246,-3.774 54.878,-5.935c24.633,-2.164 45.556,-4.705 46.496,-5.648c0.94,-0.943 -3.341,-12.966 -9.517,-26.721c-21.168,-47.139 -48.736,-135.834 -48.736,-156.785c0,-8.303 -1.441,-12.269 -3.312,-12.39c-2.406,-0.156 -5.526,6.044 -7.219,17.55zM304.853,196.713c-1.663,1.859 -5.382,15.834 -8.268,31.054c-5.05,26.621 -16.209,56.823 -47.979,129.85l-14.814,34.063l55.797,-1.135c30.689,-0.624 63.867,-2.168 73.732,-3.431l17.934,-2.298l-10.844,-24.243c-5.965,-13.334 -18.14,-45.317 -27.053,-71.074c-22.984,-66.415 -33.786,-93.133 -37.793,-93.138c-0.267,0 -0.504,0.119 -0.712,0.352zM650.5,196.522l-3.885,16.688c-10.817,46.443 -35.399,142.481 -40.862,159.632l-0.006,0.002l-6.201,19.477l57.413,0.509c52.413,0.461 57.155,-0.123 54.423,-6.709c-1.645,-3.971 -8.522,-28.29 -15.284,-54.047c-13.926,-53.044 -27.197,-94.4 -38.136,-118.865l-7.459,-16.688zM542.29,263.194c-0.538,0.043 -1.113,0.19 -1.731,0.427c-3.532,1.355 -12.014,2.462 -18.845,2.462c-11.201,0 -12.423,1.375 -12.423,13.954c0,19.281 -10.449,32.878 -25.265,32.878c-13.762,0 -20.119,-6.09 -22.224,-21.286c-1.345,-9.722 -3.527,-10.752 -25.214,-11.898l-23.739,-1.256l2.761,21.517c3.218,25.08 17.996,43.566 44.721,55.939l-0.004,0.004c27.461,12.713 49.239,10.697 67.165,-6.208c18.605,-17.544 26.518,-41.714 22.478,-68.653c-2.013,-13.417 -3.922,-18.171 -7.68,-17.877zM330.483,393.804v18.703c0,20.097 -3.961,23.871 -25.041,23.871c-14.681,0 -21.793,-7.093 -21.793,-21.729c0,-10.775 -1.356,-11.601 -21.29,-12.985l-21.29,-1.474l0.004,18.308c0.002,29.761 16.629,53.335 46.864,66.446l0.004,-0.002c26.5,11.493 44.931,8.85 64.093,-9.184c14.44,-13.591 17.65,-19.922 21.577,-42.575c6.241,-35.981 4.364,-39.38 -21.708,-39.38h-21.419zM698.17,402.317c-22.172,0 -22.908,0.372 -20.43,10.248c3.92,15.62 -4.769,28.07 -19.588,28.07c-15.632,0 -29.653,-13.35 -29.653,-28.231c0,-10.574 -0.893,-11.055 -15.965,-8.56c-8.78,1.451 -18.358,2.665 -21.286,2.686c-7.233,0.067 -6.928,30.585 0.476,48.082c7.081,16.73 19.109,27.902 35.253,32.738l0.002,-0.004c42.101,12.614 99.501,-16.675 99.384,-50.701c-0.12,-31.149 -2.726,-34.327 -28.192,-34.327zM475.234,438.695c-31.756,-0.161 -38.54,1.206 -55.349,11.161c-10.536,6.239 -25.614,18.064 -33.503,26.273l-14.343,14.925l16.753,-2.25c34.581,-4.638 85.669,29.933 92.902,62.869l0.004,0.002l3.09,14.071l9.053,-12.53c27.497,-38.046 59.439,-61.48 83.853,-61.501c9.536,-0.01 8.832,-1.39 -8.794,-17.248c-30.658,-27.582 -51.552,-35.538 -93.663,-35.774zM835.692,483.215l-17.746,0.021l13.839,8.435c11.441,6.975 13.839,11.06 13.839,23.592c0,16.498 -15.201,36.056 -28.027,36.056c-3.917,0 -16.935,-5.495 -28.929,-12.211c-33.285,-18.637 -55.879,-22.651 -99.614,-17.697c-45.207,5.121 -75.591,10.697 -91.7,16.831c-6.591,2.511 -16.169,4.569 -21.286,4.578c-5.118,0.007 -20.728,7.608 -34.687,16.89c-13.959,9.282 -30.701,18.045 -37.203,19.471c-6.502,1.426 -12.911,4.366 -14.249,6.525c-4.963,8.031 -14.838,3.382 -34.715,-16.339c-16.263,-16.139 -27.802,-22.865 -56.615,-32.997c-33.242,-11.688 -40.565,-12.69 -89.982,-12.298c-52.857,0.417 -54.35,0.694 -85.67,15.963c-42.642,20.792 -70.12,21.612 -89.069,2.661c-10.888,-10.885 -12.631,-15.503 -11.268,-29.802c1.895,-19.864 -0.936,-20.931 -15.076,-5.68c-10.729,11.568 -17.924,41.272 -13.067,53.928c6.818,17.773 66.514,39.643 94.085,34.473l16.052,-3.013l-11.565,13.748c-17.868,21.231 -16.137,42.03 5.085,61.205c22.624,20.439 33.242,25.607 55.725,27.12c28.031,1.889 42.572,-5.163 42.572,-20.644c0,-12.063 -0.327,-12.265 -9.463,-5.87c-13.307,9.32 -21.966,8.296 -37.043,-4.392c-14.412,-12.127 -16.169,-21.813 -7.116,-39.214c9.853,-18.935 25.759,-30.87 55.571,-41.69c34.631,-12.573 53.716,-12.916 77.502,-1.4c24.2,11.714 55.405,46.87 61.458,69.244c13.516,49.958 -10.475,106.446 -56.25,132.449l-17.484,9.932l20.516,12.163c11.284,6.691 32.091,15.331 46.238,19.202c29.026,7.945 74.761,9.839 93.865,3.895c26.334,-8.197 61.602,-24.672 75.102,-35.081l13.979,-10.782l-16.882,-5.398c-20.562,-6.574 -42.269,-26.237 -54.182,-49.09c-11.62,-22.288 -12.818,-78.407 -2.098,-98.43c10.797,-20.173 47.667,-51.099 69.982,-58.701c30.057,-10.243 69.209,-8.97 86.698,2.817c22.612,15.238 31.536,34.445 30.602,65.87c-0.934,31.513 -5.811,42.546 -21.44,48.488c-14.625,5.562 -37.627,1.273 -43.465,-8.105c-4.183,-6.721 -4.436,-6.684 -3.307,0.493c0.727,4.626 9.277,11.251 21.141,16.375l19.923,8.605l29.039,-11.5c15.974,-6.324 33.045,-15.182 37.94,-19.676c9.424,-8.652 25.124,-40.835 29.095,-59.636c1.801,-8.536 5.698,-11.872 16.246,-13.914c17.845,-3.454 52.075,-24.944 60.696,-38.101c13.69,-20.896 5.46,-69.672 -12.95,-76.736c-3.793,-1.455 -14.878,-2.639 -24.639,-2.63z" /></svg>