<svg xmlns="http://www.w3.org/2000/svg" viewBox="0 0 953 960" width="953" height="960"><path d="M560.484,888.506c0.006,0.009 0.01,0.016 0.02,0.026c-0.098,0.041 -0.103,0.025 -0.02,-0.026z" /> <path d="M622.858,860.75c0.097,-0.09 0.139,-0.109 0.157,-0.109c-0.063,0.047 -0.09,0.059 -0.157,0.109z" /> <path d="M758.384,721.886c-1.103,0.855 -1.849,1.448 -2.423,1.837c0.804,-0.62 1.608,-1.245 2.423,-1.837z" /> <path d="M427.768,0.521v0.012h0.061c1.137,0.143 2.287,0.226 3.468,0.353l2.999,0.175c1.41,0.03 2.832,0.03 4.291,0c-3.257,0.389 -9.799,1.058 -1.708,2.646c13.4,0.166 3.056,0.941 10.464,2.823c13.267,0.833 2.512,-2.668 21.989,0.117c2.1,0.212 0.21,-0.888 -1.882,-1.529c4.495,0.678 8.734,1.097 11.818,1.29c6.551,0.084 12.955,-0.057 21.343,0.88c-5.689,-0.516 -10,-1.076 -2.294,-1.765c-3.34,1.286 10.573,1.41 15.58,2.353l1.351,-0.822c4.021,0.946 -0.229,1.247 -3.528,1.47c0.09,-0.308 -1.087,-0.559 -3.526,-0.529c-6.422,0.555 -4.107,3.642 5.998,4.114c10.871,-0.639 9.117,-2.731 7.23,-3.584c1.371,0.094 2.569,0.175 3.641,0.175c1.238,0 2.324,-0.058 3.352,-0.058c1.666,0.256 2.29,0.262 3.233,0.292c0.814,0.03 1.685,0.03 2.411,0c1.504,-0.065 2.774,-0.169 4.233,-0.234c2.869,-0.088 6.104,0.078 11.583,1.706c3.127,0.554 12.848,5.768 22.696,7.997c5.433,-0.813 -12.107,-3.748 -6.115,-4.172c3.898,1.878 7.946,3.275 12.229,3.879c4.366,0.556 8.838,0.751 13.463,0.88c9.331,0.302 19.27,0.392 29.928,3.174l-2.999,1.882c2.439,0.427 4.838,0.717 7.405,1.117c1.501,0.771 3.063,1.583 4.647,2.353c1.374,0.648 2.795,1.3 4.291,1.941l-6.349,-4.527c5.093,1.971 15.467,7.625 11.23,7.466c11.128,3.514 12.86,5.57 22.282,10.878c-10.188,-5.225 -0.05,-0.401 -8.056,-3.057c4.409,2.742 7.113,4.253 9.465,5.41c1.155,0.514 2.252,1.002 3.409,1.47c1.244,0.472 2.515,0.948 4.055,1.589c0.598,0.43 1.488,1.149 2.472,1.882c-1.54,-0.302 0.97,3.471 3.409,5.527c6.805,3.98 16.663,12.882 25.396,19.342l-0.41,0.471l3.528,2.823l2.997,2.586c3.508,1.111 6.929,2.266 10.525,3.468l11.288,3.762c7.536,2.439 15.059,4.674 22.637,5.998c0.383,0.065 0.752,0.204 1.115,0.234l-1.589,-0.588c-2.228,-1.684 -0.552,-1.626 5.998,0c1.883,2.357 4.094,5.209 6.231,7.821c1.8,2.229 3.473,4.279 4.586,5.351c0.298,1.324 -0.062,2.297 1.825,4.822c1.708,-1.028 5.095,5.029 7.405,6.525c3.209,5.437 -2.378,0.848 4.172,9.407c2.649,3.257 3.755,2.96 4.115,2.06c0.168,1.065 1.434,3.578 2.292,5.291c1.195,1.626 3.811,4.322 5.82,6.29c-1.799,-0.939 -3.619,-3.521 -4.647,-4.291c-1.246,0.302 1.791,2.626 0.763,3.526c3.639,3.555 2.803,0.03 6.997,4.822l-5.412,-2.823c1.588,2.011 4.442,3.638 5.47,4.408c-1.587,-1.131 -2.52,-1.28 -3.116,-1.057l5.468,5.115c1.784,-0.297 -0.845,-5.084 0.352,-5.644c4.197,4.624 8.414,8.26 12.522,11.641c2.055,1.63 4.129,3.282 6.056,4.822l2.882,2.353l3.291,2.763l2.411,3.233l-2.704,-0.703c3.172,4.154 4.892,6.062 6.644,7.171l4.527,6.761c-3.166,-3.494 -4.587,-4.432 -5.998,-3.879c5.31,6.85 11.58,16.856 14.875,17.284l-0.469,-0.058c5.524,10.105 19.206,29.82 18.049,29.691c7.834,9.504 15.779,23.067 18.051,21.87c4.838,5.523 8.737,17.186 14.346,19.58c3.894,7.962 -0.207,0.716 -3.291,-0.352c3.94,8.006 12.514,12.616 11.405,17.111c7.189,7.837 -0.895,-2.454 2.53,-0.527c-0.428,0.853 0.222,2.407 1.29,4.289c0.129,6.676 2.645,17.303 2.177,24.752c1.883,4.064 0.296,-4.402 2.647,2.704c-0.915,-0.602 -0.605,3.307 -0.412,5.234l2.294,1.648l-2.647,7.113l1.174,8.35l0.117,0.352c2.228,1.586 0.317,-4.425 6.997,8.29l-0.705,-0.941c0.258,5.605 7.3,11.717 11.583,24.988c-1.588,-4.492 -1.725,-1.36 -2.882,-2.469l3.998,6.642c-0.403,-0.591 -0.717,-0.814 -0.588,0c0.9,4.283 1.874,4.977 3.116,7.114c0.551,1.503 1.011,3.031 1.234,6.115c-0.689,-2.054 -1.341,-2.923 -1.765,-3.116l2.823,10.464l1.174,2.231l-0.763,-0.644l8.821,32.926l-9.994,49.093l0.352,1.115c0.212,0.064 0.51,0.087 0.703,0.117l2.353,6.7c0.99,-0.56 0.298,-5.431 -0.471,-8.467c-0.084,-2.999 6.277,10.174 8.763,17.58c5.221,20.289 -2.53,5.165 0.469,19.166l2.413,6.173l1.115,3.057v-0.175l1.41,3.937l-0.644,3.641l-0.352,2.706h-1.174c-1.367,2.742 -0.559,4.552 -0.529,5.41c-1.238,-1.629 -4.047,14.533 -6.056,21.811l1.942,-2.353c-1.836,21.108 -10.866,31.454 -12.875,47.977l-0.234,11.876l-2.472,1.942c0,1.629 -0.115,2.957 -0.115,4.114c-0.343,4.409 -0.281,6.991 -3.409,15.169c-2.138,5.222 -4.188,10.496 -6.115,15.933l-2.823,8.114l-2.823,8.702c-9.588,14.769 -17.416,27.98 -26.751,42.92l-7.114,6.995l-6.7,6.7c-4.542,4.325 -9.091,8.648 -13.758,12.756c0.273,-0.036 0.616,-0.224 1.044,-0.515c-3.673,2.836 -7.159,5.86 -9.689,8.215c-4.413,7.106 -8.198,15.012 -11.407,22.165c-1.587,3.641 -3.234,7.224 -4.822,10.82l-2.411,5.412l-1.351,2.704l-2.116,3.937c-1.669,1.284 -3.424,2.535 -5.176,3.821c-1.41,0.939 -2.832,1.912 -4.291,2.94c-2.954,1.927 -6.04,3.787 -9.465,5.585l1.293,-1.823c-12.844,9.545 1.368,-1.946 -8.819,3.879c-0.255,3.385 -15.759,13.038 -22.224,19.758c0.817,-1.286 3.305,-3.214 5.232,-5.176c-1.712,0.644 -3.128,-0.093 -6.466,3.116c-2.439,3.725 -6.779,8.15 -11.876,12.817c-2.611,2.228 -5.271,4.556 -8.056,6.995c-2.611,2.182 -5.254,4.46 -7.821,6.644c-1.883,2.482 -3.636,4.899 -5.349,7.171c-2.483,0.424 -12.695,10.319 -19.461,14.17c-0.6,1.673 -1.597,4.796 -2.411,7.704c-1.585,1.286 -2.869,2.563 -3.937,3.937c-0.644,0.771 -1.265,1.623 -1.825,2.353c-0.689,0.936 -1.359,1.863 -2,2.763c-1.799,0.69 -4.208,1.605 -5.41,2.294l5.881,-1.589l6.936,-8.469c-0.032,0.183 -0.063,0.342 -0.063,0.471c0.254,-0.471 0.803,-1.202 1.234,-1.884c1.923,-2.322 3.021,-3.781 2.922,-3.811c5.08,-3.752 0.581,1.325 2.312,2.168c-1.325,1.632 -3.334,3.947 -5.176,6.173c-0.943,1.156 -1.842,2.205 -2.704,3.233c-1.54,1.748 -2.948,3.238 -4.057,4.348c-1.929,0.391 -3.2,0.512 -3.76,0.353c-3.086,0.753 -3.621,0.886 -5.117,1.174c-1.323,0.255 -2.663,0.534 -4.289,0.822c-1.885,0.773 -4.051,1.453 -6.409,1.884l0.999,-0.412c-0.42,-0.128 -0.898,-0.145 -1.41,-0.175c-4.925,0.86 -10.519,2.816 -15.874,5c-2.697,1.114 -5.333,2.205 -7.819,3.233c-1.235,0.559 -2.441,1.117 -3.643,1.589c-0.516,0.254 -1.036,0.51 -1.589,0.703c-0.032,0.119 -0.058,0.287 -0.058,0.352c-0.031,-0.119 -0.058,-0.257 -0.058,-0.352c-0.03,-0.512 0.129,-1.063 0,-1.351c-0.255,-0.295 -0.467,-0.483 -0.939,-0.642c-0.254,-0.379 -2.508,0.428 -2.92,-0.208c0.097,-0.042 0.286,-0.14 0.565,-0.322c0.344,-0.165 0.938,-0.525 1.708,-0.997c3.768,-0.942 10.339,-2.706 17.872,-4.588c-1.028,0.042 -1.716,-0.074 -2.116,-0.586c-3.127,0.258 -5.887,0.878 -8.584,1.648c-1.374,0.424 -2.683,0.935 -4.057,1.407c-1.413,0.423 -2.956,1.005 -3.468,1.293l-0.999,0.763l-1.589,1.234c-1.194,0.855 -2.355,1.643 -3.641,2.586c-2.53,1.713 -5.391,3.568 -8.819,5.41c0.77,-0.728 2.377,-2.163 1.349,-2.292c-5.221,2.784 -9.029,6.843 -9.582,8.469c-1.07,-0.339 -4.433,0.938 -8.114,2.821c-1.884,0.942 -3.787,2.116 -5.585,3.233c-0.862,0.599 -1.76,1.077 -2.53,1.589c-0.984,0.726 -1.89,1.464 -2.704,2.06c-0.15,0.094 -0.322,0.262 -0.352,0.292c-3.429,1.153 -4.444,1.719 -6.115,2.233c-1.671,0.514 -3.92,0.908 -8.76,1.468l4.172,-1.765c-11.817,0.469 -9.325,2.923 -19.047,3.116c3.851,0 4.03,-1.244 1.115,-1.115c-12.113,2.181 -12.296,2.9 -20.814,6.408l1.41,-2.116c-9.723,1.98 -27.665,5.31 -29.972,3.526c0.521,1.092 -1.758,1.847 -5.363,2.353c-1.97,0.3 -4.411,0.544 -6.936,0.703c-2.399,0.119 -4.926,0.223 -7.407,0.352c-4.413,0.682 -8.578,1.275 -11.23,1.706c3.035,-0.644 3.539,-1.59 3.762,-2.058c-6.549,2.098 -13.225,3.606 -19.991,4.763l-10.17,1.589l-10.761,1.531l-8.702,0.352l-8.409,0.527l-3.235,-2.646c-10.148,0.813 -12.647,6.679 -23.694,7.405l3.937,-1.706c-4.584,0.385 -8.694,0.864 -10.878,1.057c-3.807,-0.77 -7.159,-1.457 -10.287,-2.058c-2.782,-0.556 -5.348,-1.09 -7.879,-1.65c-5.047,-1.111 -9.929,-2.211 -16.05,-3.585l0.703,-1.823c-2.483,-0.09 -5.212,-0.475 -7.997,-0.763c-2.912,-0.343 -5.887,-0.694 -8.584,-1.057c-1.883,-0.462 -2.099,-0.485 -2.999,-0.644c-3.51,-2.828 -9.935,-5.407 -17.815,-7.938c-3.892,-1.197 -8.288,-2.512 -12.696,-3.879c-2.182,-0.689 -4.418,-1.315 -6.644,-2l-7.405,-2.469c-2.44,-1.323 -4.838,-2.549 -7.232,-3.879c-2.141,-1.2 -4.215,-2.537 -6.231,-3.823c-4.115,-2.571 -7.889,-5.215 -11.054,-7.997l-2.999,2.411c-2.742,-1.497 -5.787,-3.175 -8.702,-4.763c-1.446,-0.817 -2.8,-1.655 -4.174,-2.469c-1.239,-0.727 -2.986,-1.852 -2.763,-1.882c-0.21,-0.212 0.112,-0.16 -0.529,-0.353c-0.512,-0.253 -0.951,-0.538 -1.351,-0.761c-0.9,-0.516 -1.663,-1.09 -2.175,-1.65l1.882,0.588c1.582,-2.439 -8.703,-2.341 -14.053,-4.35c-4.197,-0.77 -8.779,-0.102 -5.351,1.351c-3.811,-1.282 -7.949,-2.593 -12.229,-3.879c-4.796,-1.322 -9.79,-2.74 -14.758,-4.114c-4.323,-2.956 -8.663,-5.91 -12.817,-8.821c-3.771,-2.654 -7.409,-5.265 -10.876,-7.704c-6.805,-4.965 -12.557,-9.546 -16.108,-13.227c-0.559,-0.339 -1.059,-0.716 -1.531,-0.939c-1.194,-1.158 -2.444,-2.3 -3.641,-3.409c-1.068,-0.987 -2.102,-1.939 -3.174,-2.882c-2.055,-1.886 -4.088,-3.685 -6.056,-5.527c-4.109,-3.555 -7.966,-7.035 -11.993,-10.586c-3.936,-3.515 -7.946,-7.162 -12.054,-11.054c-4.281,-3.725 -8.661,-7.644 -13.286,-12.052l0.529,-0.058c-6.08,-6.332 -18.208,-19.025 -16.108,-21.167c-14.131,-12.415 -25.479,-17.822 -40.806,-34.392l4.291,2.586c-0.604,-0.689 -1.216,-1.332 -1.942,-2.058c-0.899,-0.817 -1.878,-1.789 -2.821,-2.647c-1.33,-1.881 -1.877,-2.425 -2.647,-3.409c-0.77,-0.863 -1.417,-1.641 -2.058,-2.411c-1.371,-1.497 -2.487,-2.756 -2.999,-3.352c-1.072,-1.669 0.262,-0.763 0.822,-0.763c-2.185,-5.05 -5.326,-6.803 -7.938,-10.228l1.765,0.941c-1.755,-3.428 -3.958,-7 -6.527,-10.761c-1.285,-1.889 -2.629,-3.802 -3.996,-5.764c-1.587,-2.142 -3.211,-4.332 -4.88,-6.642c-2.955,-6.422 -6.088,-13.136 -9.172,-19.816c-2.955,-6.469 -5.756,-13.017 -8.114,-19.225c1.883,3.811 2.1,1.342 1.941,-0.41c-0.679,-0.769 -1.505,-1.783 -2.231,-2.94c-0.34,-0.556 -0.686,-1.124 -1.117,-1.765c-0.383,-0.77 -0.557,-0.998 -1.29,-2.586c-0.516,-1.543 -1.124,-3.166 -1.765,-4.88c-0.472,-1.544 -1.029,-3.178 -1.589,-4.766c-0.941,-3.295 -1.898,-6.699 -2.882,-9.994c-1.799,-6.547 -3.409,-12.63 -4.647,-16.226l2.706,5.412c-3.602,-9.42 -3.44,-13.075 -3.762,-18.168c0.081,-4.585 0.262,-8.169 -2.177,-16.815l-0.234,10.82c-0.684,-7.58 -2.266,-13.827 -3.468,-11.818c-0.298,-8.861 2.325,-1.494 0.527,-14.64c0.811,-0.727 2.135,9.375 2.647,4.88l-0.41,-18.579v-0.058c0.096,-0.164 -0.046,-1.392 -0.175,-2.292c-0.476,-1.196 -1.13,-2.96 -2.119,-5.527c-3.38,2.917 -5.371,-14.235 -6.056,-4.174c-2.31,-6.207 -4.363,-12.248 -6.29,-18.108c-1.927,-6.035 -3.802,-11.905 -5.644,-17.639c-0.467,-3.038 -0.92,-5.922 -1.351,-8.877c-0.514,-2.786 -0.996,-5.548 -1.468,-8.29c-1.025,-5.44 -2.19,-10.861 -3.643,-16.168c0.383,-1.713 0.453,-4.052 0.294,-6.878c-0.108,-1.458 -0.37,-3.046 -0.529,-4.586c-0.13,-0.818 -0.227,-1.614 -0.292,-2.472c-0.197,-1.193 -0.429,-2.463 -0.588,-3.701c1.07,-3.467 2.161,-7.019 3.233,-10.404c0.984,-2.994 1.865,-5.873 2.765,-8.231c1.76,-4.754 3.469,-7.684 4.88,-6.527c3.554,-12.117 5.81,-22.037 5.41,-30.218c1.018,-5.881 2.063,-12.205 3.118,-16.285c-0.987,8.346 -2.989,21.715 -3.118,28.395c2.787,-11.129 4.486,-27.277 5.47,-33.57l3.351,-2.177c0.385,-9.502 3.823,-7.582 3.823,-16.401c-0.032,-0.171 -0.028,-0.303 -0.058,-0.703c-0.18,0.309 -0.37,0.427 -0.529,0.586c-0.21,0.21 -0.451,0.441 -0.644,0.763c0.064,-0.299 0.206,-0.629 0.236,-0.822c2.504,-16.181 0.06,-17.422 2.116,-33.394l0.941,0.939c0.557,-2.184 0.693,-4.843 0.822,-7.585c0.063,-1.367 0.046,-2.748 0.175,-4.115l0.352,-2.058c0.18,-0.856 0.34,-1.597 0.469,-2.411c0.468,-1.158 0.736,-1.841 1.058,-2.353c0.343,-0.6 0.832,-1.017 1.232,-1.529l-1.349,4.114l-0.999,7.23c1.202,-0.557 2.311,-3.217 3.468,-6.642c1.286,-2.486 2.216,-4.245 3.116,-5.704c3.034,-11.046 -1.655,-4.788 -0.115,-10.348c2.398,-1.714 1.101,-0.226 1.529,4.057c1.501,-5.651 3.223,-12.152 4.763,-18.402c0.769,-3.127 1.464,-6.191 2.06,-9.053c0.599,-3.171 1.176,-6.059 1.648,-8.584c0.941,-1.582 1.455,-2.722 1.648,-3.411c0.547,-0.299 0.586,0.471 0.586,0.471c8.135,-10.492 12.543,-21.849 18.579,-27.456l-1.351,2.231c1.84,-1.497 3.588,-3.448 5.176,-5.585l2.292,-3.409c0.814,-1.116 1.577,-2.287 1.706,-2.647c0.041,-0.468 0.752,-2.607 1.115,-3.937c0.517,-1.452 1.002,-2.841 1.47,-3.998c0.988,-2.311 1.998,-3.778 3.409,-3.937c2.479,-4.407 -4.077,10.629 0.763,3.823c6.721,-14.343 0.103,-11.052 6.056,-23.637c-0.773,1.721 -0.334,1.23 -0.175,2c1.67,-4.925 3.695,-10.61 5.879,-16.817c4.495,-4.197 9.384,-8.797 13.879,-12.99c3.51,-1.67 7.56,-4.531 11.759,-7.998c2.057,-1.798 4.224,-3.685 6.408,-5.527c2.056,-1.838 4.176,-3.746 6.232,-5.585c1.204,-1.842 2.385,-3.672 3.587,-5.47c1.282,-1.966 2.549,-3.876 3.879,-5.585c2.654,-3.597 5.3,-6.778 7.997,-9.172c-3.696,3.099 0.081,-3.193 0.163,-4.399c0.059,0.191 0.202,0.424 0.595,0.161c3.138,-4.666 2.331,-6.014 3.057,-8.114c0.981,-0.899 1.971,-2.405 2.999,-4.114c1.069,-1.97 2.28,-4.144 3.352,-6.115c1.195,-1.414 2.348,-2.753 3.291,-3.821c0.853,-0.899 1.696,-1.654 2.292,-1.942c-0.599,-0.727 2.831,-3.661 6.466,-7.171c-6.59,7.806 -0.923,3.686 -3.233,7.879c11.298,-10.144 9.746,-14.994 21.692,-25.398l3.057,-1.942l1.589,-0.997l2.116,-1.529l2.353,-0.705c0.689,-3.256 14.284,-8.301 13.643,-9.111c2.826,-0.258 6.612,-1.514 6.642,-0.061c5.476,-3.213 14.71,-5.942 16.462,-8.467l-6.056,2c4.581,-1.798 9.172,-4.016 12.171,-5.644c9.292,-6.423 16.824,-13.132 26.929,-17.757l1.823,3.526c2.872,-1.155 5.322,-2.663 7.587,-4.291c2.4,-1.798 4.671,-3.446 6.936,-5.115l2.882,-1.115c0.769,-0.302 1.655,-0.629 2.469,-0.822c1.625,-0.406 3.317,-0.733 5.115,-0.763c-3.3,-0.345 -3.739,0.242 2,-3.057c-1.457,0.389 -3.386,1.041 -5.527,1.941c-1.029,0.383 -2.089,0.879 -3.291,1.351c-1.285,0.471 -2.622,1.017 -3.996,1.529c-1.28,0.857 -2.651,1.775 -3.937,2.589c1.11,-0.986 1.759,-1.763 3.641,-3.174c2.487,-1.072 3.234,-1.583 4.822,-2.353l4.172,-2.292l-9.407,3.641l-10.348,7.114c6.892,-6.081 6.571,-5.44 2.589,-4.88c1.113,-0.857 2.127,-1.651 3.116,-2.292c0.468,-0.297 0.979,-0.659 1.41,-0.882c0.771,-0.422 1.488,-0.866 2.177,-1.29c0.726,-0.198 1.39,-0.451 2.116,-0.644c0.383,-0.13 0.776,-0.163 1.176,-0.292c0.771,-0.149 1.43,-0.342 2.119,-0.471c1.367,-0.3 2.555,-0.473 3.879,-0.761c2.654,-0.553 5.653,-1.353 9.933,-3.409c4.411,-0.855 0.473,1.944 5.527,1.174c4.281,-2.055 8.74,-3.051 12.936,-3.821c2.142,-0.427 4.202,-0.795 6.173,-1.117c2.058,-0.516 3.327,-0.898 5.939,-1.882c-0.686,0.342 -1.045,0.663 -0.822,0.822c0.302,-0.193 0.681,-0.287 0.939,-0.352c3.558,-0.231 6.58,-0.37 8.938,-0.529c2.272,-0.215 4.003,-0.57 4.94,-1.174l-5.995,-0.294c5.266,0 6.11,-1.621 16.168,-0.939c4.337,-0.767 7.248,-2.108 5.762,-2.704c2.323,0.293 4.449,0.802 3.116,1.648c6.68,-0.129 9.034,-0.995 10.703,-1.765c0.855,-0.383 1.485,-0.77 2.469,-1.058c0.347,-0.159 1.241,-0.287 1.529,-0.352c0,-0.032 0.046,-0.088 0.175,-0.058c0.094,-0.03 0.107,-0.03 0.236,0c0.213,-0.033 1.643,-0.637 2.586,-0.997c-0.842,0.551 -1.716,1.32 -1.115,1.29c2.412,-1.086 4.426,-2.129 6.173,-3.148c-3.109,2.048 -2.084,2.254 -1.293,2.441c0.482,0.036 0.855,0.203 0.295,0.763c-0.342,0.255 -0.865,0.605 -1.765,1.117c-0.512,0.21 -1.08,0.576 -1.765,0.939c-0.603,0.302 -1.572,0.792 -1.765,0.822c0.21,0.249 0.415,0.352 0.703,0.352c0.472,-0.044 0.948,-0.276 1.589,-0.469c1.201,-0.518 2.676,-1.186 4.172,-2c2.955,-1.709 6.19,-3.735 8.584,-4.588c6.084,-4.964 -0.685,-3.172 2.177,-5.998c0.301,0.64 3.058,-0.813 6.525,-2.353l-3.996,0.294c2.826,-1.544 5.551,-2.992 8.76,-5.176l-5.291,3.641c2.353,-1.153 5.365,-2.311 8.703,-3.641c1.669,-0.686 3.392,-1.505 5.234,-2.231c0.898,-0.467 1.91,-0.927 2.938,-1.351c1.527,-0.81 3.037,-1.641 4.647,-2.528zM483.748,74.845c-1.88,-0.003 -3.753,0.004 -5.62,0.028c-6.939,0.221 -12.325,2.349 -17.645,4.726c-9.352,4.194 -10.375,10.375 -10.705,18.039c-0.296,6.975 0.365,13.814 0.992,20.455c0.528,5.548 1.056,10.804 1.024,16.089c-0.023,8.89 -0.022,17.745 -0.022,26.602v12.952c0,2.51 0.072,4.989 0.097,7.5c0.071,3.336 0.119,6.643 0.07,9.982c-0.072,4.328 -0.925,8.654 -1.818,13.216c-0.727,3.767 -1.452,7.667 -1.818,11.696c-0.991,11.303 -0.759,22.832 -0.527,34c0.098,4.757 0.197,9.552 0.17,14.273c0,2.712 0.072,5.453 0.097,8.194c0.097,4.393 0.196,8.952 0.024,13.314c-0.12,3.371 -0.563,6.708 -1.026,10.277c-0.497,3.898 -0.991,7.963 -1.123,12.191c-0.196,7.732 -0.097,15.566 0,23.13c0.024,5.221 0.098,10.474 0.073,15.697l-0.006,-0.008c-0.098,15.696 2.578,30.993 5.155,45.797c1.817,10.341 3.668,21.013 4.493,31.522c0.958,11.928 2.709,25.144 5.353,40.476c0.266,1.553 0.594,3.071 0.894,4.562c0.793,3.996 1.523,7.465 1.321,11.202c-0.169,2.907 1.716,5.552 4.493,6.375c0.594,0.22 1.223,0.275 1.818,0.275c2.213,0 4.297,-1.155 5.452,-3.108c1.685,-2.841 2.015,-5.418 2.28,-7.3c0.072,-0.628 0.119,-1.29 0.329,-1.983c0.072,-0.219 0.17,-0.397 0.432,-0.892c0.529,-0.991 1.354,-2.475 1.751,-4.691c0.431,-2.411 0.196,-4.659 0,-6.605c-0.121,-1.159 -0.263,-2.348 -0.119,-3.074c0.267,-1.717 0.726,-3.504 1.254,-5.42c0.296,-1.027 0.593,-2.084 0.858,-3.141c0.661,-2.674 1.522,-5.286 2.345,-7.898c1.321,-4.062 2.709,-8.259 3.435,-12.752c0.395,-2.446 1.256,-4.791 2.183,-7.306c0.694,-1.849 1.353,-3.698 1.916,-5.68c0.725,-2.545 1.057,-4.923 1.391,-7.237c0.296,-2.049 0.56,-3.999 1.09,-5.717c1.421,-4.79 2.511,-9.614 3.568,-14.273c1.918,-8.46 3.734,-16.486 7.367,-23.954c0.594,-1.189 1.092,-2.411 1.62,-3.635c1.092,-2.545 2.015,-4.725 3.403,-6.246c2.809,-3.171 6.642,-8.029 7.799,-13.813c0.396,-1.98 0.244,-3.831 0.097,-5.286c-0.023,-0.596 -0.098,-1.483 -0.073,-1.785c0.098,-0.366 0.197,-0.558 0.497,-1.188c0.529,-1.123 1.355,-2.806 1.685,-5.452c0.196,-1.685 0.024,-3.172 -0.097,-4.396c-0.024,-0.528 -0.12,-1.355 -0.097,-1.617c0.245,-1.324 0.528,-2.512 0.826,-3.701c0.562,-2.213 1.191,-4.757 1.323,-7.93c0.396,-10.934 0.263,-22.07 0.119,-32.841c-0.098,-5.587 -0.17,-11.137 -0.17,-16.688c0,-3.039 -0.021,-6.08 -0.07,-9.087c-0.096,-12.128 -0.245,-23.592 1.386,-35.058c1.289,-9.085 2.281,-18.17 2.975,-25.044c0.661,-6.244 0.727,-12.488 0.794,-18.537c0.023,-6.775 0.095,-13.152 0.922,-19.364c0.561,-4.163 1.223,-8.293 1.884,-12.423c0.793,-4.79 1.552,-9.648 2.147,-14.507c0.12,-0.991 0.246,-2.078 0.331,-3.171c0.395,-3.866 0.859,-8.692 2.411,-11.004c0.12,-0.171 0.56,-0.33 2.049,-0.66c2.379,-0.528 6.311,-1.42 8.988,-5.323c1.552,-2.247 1.452,-5.218 -0.196,-7.399l-2.28,-3.041c-6.939,-9.153 -13.447,-17.809 -23.394,-20.089c-2.28,-0.528 -4.559,-0.593 -6.541,-0.66c-1.552,-0.049 -3.039,-0.098 -4.196,-0.366c-4.229,-0.859 -7.601,-1.224 -11.202,-1.188c-2.873,0.025 -5.749,0.025 -8.588,0c-1.884,-0.012 -3.769,-0.025 -5.648,-0.028zM377.239,80.039c-3.397,0.07 -6.914,0.587 -10.156,1.372c-10.143,2.479 -18.338,4.064 -27.623,4.43c-4.824,0.171 -8.492,1.851 -10.905,4.889c-4.231,5.257 -2.908,12.457 -1.751,18.833c0.461,2.543 0.958,5.187 0.992,7.203c0.072,10.312 0.17,20.026 2.411,30.632c0.024,0.123 2.445,10.571 6.739,13.944c2.676,2.114 5.783,2.907 8.758,2.213c5.65,-1.319 8.524,-7.238 9.911,-10.081c0.498,-0.99 1.055,-2.543 1.684,-4.325c0.366,-0.96 0.926,-2.512 1.521,-3.964c2.643,5.156 3.866,12.521 4.957,19.132c0.33,2.018 0.627,3.933 0.989,5.713l0.66,3.47c1.254,6.445 2.575,13.117 2.607,19.396c0.024,1.026 -0.072,2.146 -0.099,3.338c-0.296,5.35 -0.725,12.685 4.164,17.938c1.255,1.324 2.941,2.019 4.625,2.019c1.454,0 2.908,-0.492 4.1,-1.519c4.361,-3.702 4.892,-9.586 5.321,-13.916c0.072,-0.696 0.099,-1.388 0.196,-1.979l-0.004,0.002c0.431,-3.041 0.926,-6.082 1.454,-9.12l0.858,-5.188c0.43,-2.577 1.254,-5.187 2.116,-7.93c0.595,-1.95 1.224,-3.864 1.72,-5.848c1.686,-6.711 1.654,-13.118 1.62,-19.3v-1.222c-0.072,-13.781 -0.073,-27.524 -0.024,-41.302v-18.768c0,-0.726 -0.1,-1.42 -0.366,-2.116c-2.113,-6.087 -9.003,-8.099 -16.476,-7.946zM601.727,98.903c-6.493,-0.091 -13.085,0.976 -18.437,3.667c-12.49,6.277 -13.216,23.359 -13.778,35.814c-0.12,3.305 -0.266,6.446 -0.593,8.756c-2.446,17.712 -2.117,35.951 -1.783,53.592c0.121,6.047 0.245,12.093 0.245,18.075l-0.014,-0.008l0.022,20.784c0.025,15.432 0.1,30.896 -0.07,46.327c-0.121,13.81 2.577,27.025 5.22,39.814c1.522,7.268 3.074,14.771 4.031,22.171c0.265,1.952 0.365,3.866 0.497,5.814c0.17,3.105 0.364,6.347 1.057,9.75c0.76,3.768 1.951,7.334 3.074,10.768c0.629,1.883 1.253,3.801 1.781,5.717c3.273,11.532 5.222,23.068 5.552,33.342c0.297,7.699 0.17,15.66 0.073,23.358c-0.097,4.299 -0.121,8.561 -0.121,12.855c0,1.684 0.098,3.634 0.245,5.648c0.023,0.465 0.024,0.927 0.073,1.386c-0.17,1.785 -0.297,3.634 -0.364,5.484c0,0.796 -0.001,1.585 0.022,2.348c0,0.991 0.026,1.884 -0.07,2.511c-0.098,0.4 -0.245,0.726 -0.364,1.024c-1.455,3.107 -0.245,6.808 2.841,8.362c0.923,0.463 1.882,0.693 2.873,0.693c2.213,0 4.396,-1.188 5.517,-3.304c0.761,-1.354 1.224,-2.707 1.489,-3.998c1.024,-4.063 0.958,-8.557 0.725,-12.787c0.196,-1.718 0.432,-3.473 0.695,-5.253c0.196,-1.526 0.395,-3.041 0.593,-4.56c0.826,-6.836 2.247,-13.447 3.766,-20.486l0.17,-0.725c0.959,-4.493 2.345,-8.885 3.799,-13.544c1.189,-3.866 2.412,-7.764 3.405,-11.696c0.827,-3.305 2.08,-6.51 3.435,-9.913c1.653,-4.262 3.403,-8.692 4.396,-13.613c2.842,-14.373 2.644,-28.911 2.478,-42.922c-0.023,-3.404 -0.073,-6.843 -0.073,-10.243c0,-15.86 2.214,-31.027 4.56,-47.051c0.562,-3.8 1.122,-7.634 1.652,-11.466c0.196,-1.288 0.298,-2.972 0.432,-4.79c0.196,-2.643 0.461,-6.276 0.957,-7.993c0.267,-0.726 1.19,-1.918 2.052,-2.975c0.827,-1.027 1.654,-2.049 2.315,-3.106c5.187,-8.162 6.806,-17.282 8.392,-26.105c0.495,-2.708 0.959,-5.416 1.552,-8.027c1.354,-6.012 2.345,-11.963 3.336,-17.712c0.76,-4.528 1.523,-9.088 2.446,-13.713c1.918,-9.386 1.751,-20.19 -0.529,-32.052c-0.364,-1.95 -0.496,-4.099 -0.66,-6.345c-0.244,-3.702 -0.494,-7.863 -1.916,-11.993c-2.709,-7.964 -4.726,-9.847 -5.487,-10.541c-0.496,-0.493 -1.091,-0.893 -1.72,-1.153c-0.072,-0.099 -0.121,-0.246 -0.196,-0.331c-0.463,-0.793 -0.99,-1.621 -1.585,-2.409c-2.213,-2.843 -4.527,-4.691 -6.775,-6.478l-1.125,-0.858c-4.395,-3.567 -8.227,-5.051 -12.257,-6.637c-4.957,-1.933 -11.35,-3.181 -17.843,-3.272zM277.435,112.068c-0.463,-0.005 -0.938,0.009 -1.421,0.042c-7.634,0.529 -16.387,5.188 -22.765,8.593l-1.226,0.66c-5.948,3.139 -13.91,8.824 -14.469,21.641c-0.498,11.136 3.997,18.998 8.358,26.632c1.225,2.144 2.478,4.329 3.603,6.609c0.859,1.718 1.588,3.466 2.315,5.218c1.091,2.677 2.212,5.421 3.8,8.194c1.092,1.918 2.346,3.733 3.603,5.552c1.319,1.882 2.578,3.665 3.503,5.484c1.684,3.334 3.602,6.475 5.484,9.648c3.104,5.121 6.047,9.978 8.029,15.494c0.629,1.684 1.325,3.37 2.016,5.057l-0.035,-0.028c1.319,3.235 2.607,6.308 3.202,9.283c0.461,2.248 0.398,4.856 0.331,7.601c-0.099,2.84 -0.169,5.815 0.297,8.956c0.398,2.807 1.027,5.585 1.654,8.39c0.895,3.866 1.721,7.502 1.818,11.036c0.024,0.561 -0.001,1.092 -0.024,1.587c-0.168,2.578 -0.46,6.874 3.274,10.576c1.188,1.189 2.807,1.816 4.46,1.816c0.497,0 1.025,-0.049 1.552,-0.17c2.183,-0.557 3.864,-2.176 4.493,-4.327c1.649,-5.682 2.841,-11.301 3.962,-16.721l0.794,-3.664c0.33,-1.525 1.157,-3.206 2.082,-5.024c1.157,-2.313 2.447,-4.889 3.074,-7.895c0.498,-2.446 0.431,-4.564 0.331,-6.446c-0.023,-0.793 -0.073,-1.586 -0.024,-2.446c0.072,-1.818 0.498,-3.799 0.957,-5.881c0.461,-2.248 0.957,-4.56 1.157,-7.171c0.196,-2.808 0.099,-5.585 0,-8.328c-0.023,-1.484 -0.099,-2.977 -0.099,-4.429c0.072,-9.582 -1.157,-17.908 -2.478,-25.478c-0.659,-3.865 -1.058,-7.699 -1.489,-11.729c-0.397,-3.799 -0.792,-7.63 -1.419,-11.498c-0.562,-3.337 -0.462,-6.874 -0.366,-10.606l0.073,-2.512c0.073,-3.7 -0.659,-6.178 -1.254,-8.13c-0.245,-0.793 -0.497,-1.618 -0.658,-2.577c-0.858,-4.723 -0.563,-10.604 -0.331,-16.254c0.121,-2.844 0.264,-5.653 0.264,-8.294c0,-2.017 -0.957,-3.902 -2.577,-5.089c-1.585,-1.188 -3.702,-1.552 -5.616,-0.955c-3.733,1.156 -6.246,0.366 -9.715,-0.725c-2.487,-0.782 -5.275,-1.665 -8.522,-1.696zM685.294,146.431c-1.422,-0.087 -2.865,0.3 -4.061,1.169c-2.974,2.112 -7.037,4.988 -6.048,10.143c0.43,2.214 2.015,4.031 4.131,4.758c0.097,0.024 0.197,0.048 0.297,0.097c0.364,1.849 0.758,3.664 1.155,5.45c0.496,2.083 0.959,4.198 1.355,6.444c0.629,3.467 0.463,7.203 0.297,11.167c-0.097,2.777 -0.196,5.517 -0.097,8.294c0.196,4.493 0.991,8.756 1.717,12.92c0.296,1.618 0.593,3.271 0.858,4.887c0.561,3.536 1.056,7.102 1.552,10.64c0.695,4.987 1.388,9.944 2.25,14.901c0.395,2.477 0.99,4.892 1.585,7.338c0.894,3.635 1.716,7.071 1.882,10.406c0.169,3.902 0.074,7.866 -0.022,12.03c-0.072,3.073 -0.122,6.144 -0.099,9.182c0.024,4.328 -0.593,8.822 -1.254,13.645c-0.266,2.049 -0.559,4.102 -0.791,6.149c-0.296,2.674 -0.925,5.419 -1.587,8.324c-0.63,2.843 -1.321,5.818 -1.717,8.891c-0.694,5.52 -0.594,10.968 -0.497,16.224c0.023,1.717 0.073,3.403 0.073,5.087c0.023,7.733 0,15.467 0,23.199v6.637c0,1.586 0.024,3.175 0.073,4.761c0.072,2.247 0.096,4.525 0.022,6.771c-0.023,1.257 -0.461,3.075 -0.892,4.959c-0.991,4.227 -2.213,9.448 -0.362,14.369c0.759,2.048 2.545,3.573 4.691,4c0.396,0.048 0.826,0.099 1.222,0.099c1.751,0 3.434,-0.727 4.658,-2.054c2.578,-2.805 3.964,-6.507 5.22,-9.778l0.012,0.008c0.431,-1.089 0.827,-2.179 1.254,-3.106c2.182,-4.757 4.692,-9.352 7.533,-14.439c4.627,-8.36 6.643,-16.952 8.593,-25.246c0.593,-2.545 1.221,-5.086 1.882,-7.698c0.76,-2.808 1.717,-5.587 2.644,-8.33c1.192,-3.404 2.413,-6.937 3.306,-10.705c0.396,-1.685 0.759,-3.502 1.123,-5.321c0.792,-3.932 1.585,-7.963 2.942,-10.836c0.76,-1.623 1.451,-3.236 2.147,-4.824c0.497,-1.125 0.991,-2.247 1.452,-3.304c0.072,0.659 0.098,1.388 0.121,2.149c0.072,2.277 0.169,4.923 0.894,7.664c0.76,3.007 3.567,4.989 6.739,4.691c9.218,-0.893 10.508,-12.587 11.401,-20.353c0.121,-1.355 0.266,-2.511 0.43,-3.274c0.298,-1.455 0.695,-2.843 1.057,-4.261c0.959,-3.504 1.92,-7.137 2.082,-11.268c0.17,-4.032 0.072,-8.062 0,-12.094c-0.072,-2.943 -0.12,-5.848 -0.097,-8.789c0.072,-5.418 1.388,-10.836 2.775,-16.588c1.422,-5.814 2.874,-11.862 3.074,-18.271c0.097,-2.941 0.072,-5.947 0,-8.922c-0.023,-1.683 -0.07,-3.371 -0.07,-5.089c0,-0.891 0.097,-2.018 0.196,-3.171c0.266,-3.141 0.525,-6.709 -0.247,-9.748c-2.545,-9.944 -11.563,-11.033 -16.948,-11.662c-1.818,-0.245 -3.735,-0.463 -4.824,-0.929c-2.478,-0.991 -5.121,-1.849 -7.797,-2.742c-4.956,-1.618 -9.65,-3.137 -13.35,-5.781c-2.08,-1.489 -4.261,-3.469 -6.607,-5.549c-4.36,-3.931 -8.855,-7.999 -14.042,-10.309c-3.37,-1.489 -6.345,-1.324 -8.789,-0.727c-0.529,-0.661 -1.223,-1.224 -2.016,-1.62c-0.78,-0.394 -1.625,-0.618 -2.478,-0.67zM494.867,509.125c-0.735,0.031 -1.664,0.32 -2.854,0.945c-0.793,4.859 -0.53,9.914 -1.323,14.871c-1.343,8.557 -2.049,15.988 -1.222,24.745c1.656,17.378 4.959,35.684 2.25,52.899c-1.223,7.667 0.264,14.938 -1.72,22.502c-2.045,7.829 -4.458,15.497 -6.442,23.36c-1.752,6.873 -5.385,14.142 -6.278,21.181c-0.431,3.499 0.529,6.539 0.725,10.01c0.23,4.294 -0.496,8.556 -0.892,12.784c-0.958,9.948 -1.885,18.34 -5.255,27.657c-3.502,9.579 -6.476,12.918 -14.339,18.402c-4.592,3.175 -8.757,7.305 -14.142,8.857c-3.8,1.058 -7.501,0.296 -11.104,2.28c-2.512,1.354 -4.925,3.603 -6.973,5.683c-11.663,12.059 -10.905,34.361 -14.142,50.289c-2.214,10.902 -6.841,20.716 -6.014,32.213c0.328,4.692 0.129,9.418 2.245,12.259c1.189,1.62 3.139,2.661 6.311,2.71c1.918,0.028 3.373,-0.201 5.155,-0.927c3.469,-1.39 7.862,-3.964 10.805,-6.246c6.807,-5.284 8.194,-15.071 10.64,-22.801c3.669,-11.528 6.576,-25.603 16.555,-33.237c1.519,-1.155 2.774,-2.646 4.261,-3.932c2.578,-2.214 3.468,-2.181 6.411,-3.108c5.782,-1.849 10.837,-5.351 16.42,-7.633c5.486,-2.281 10.279,-6.376 14.772,-9.944c3.536,-2.81 7.366,-6.508 12.389,-5.42c3.137,0.695 6.013,4.462 8.558,6.446c3.142,2.508 6.41,4.426 9.582,6.803c8.557,6.279 20.156,5.819 24.384,17.185c2.677,7.169 4.164,15.958 7.139,22.665c0.992,2.184 2.478,4.496 3.071,6.81c0.451,1.817 -0.262,3.965 0.331,5.751c4.03,12.817 25.046,8.325 33.405,2.873c2.678,-1.72 2.382,-0.566 2.975,-3.802c0.397,-2.014 -0.529,-5.221 -0.725,-7.337c-1.518,-15.494 -7.237,-31.849 -13.249,-46.122c-3.105,-7.337 -5.849,-11.037 -11.531,-16.224c-6.376,-5.816 -12.884,-11.828 -19.493,-17.181c-12.095,-9.846 -16.323,-26.732 -18.439,-42.031c-1.191,-8.488 -5.518,-16.156 -6.147,-24.745c-0.661,-8.623 -3.402,-16.125 -4.063,-24.551c-0.793,-10.309 -2.08,-20.055 -5.055,-29.933c-2.48,-8.196 -3.175,-16.884 -6.048,-25.046c-5.817,-16.621 -8.063,-34.295 -12.259,-51.51c-1.321,-5.517 -2.311,-10.28 -2.873,-16.094c-0.298,-2.974 -1.523,-4.328 -2.116,-6.375c-0.992,-3.383 -0.5,-8.116 -3.685,-7.983zM329.287,529.704c-2.055,0.076 -3.431,2.021 -3.554,5.139c-0.23,6.875 -1.121,13.448 -2.345,20.287c-1.386,7.733 -0.429,15.199 -1.288,22.901c-1.123,10.043 -5.417,21.013 -8.36,30.725c-1.587,5.255 -3.467,10.276 -5.253,15.398c-5.055,14.374 -7.339,30.004 -10.576,45.071c-1.95,8.919 -1.022,17.342 -4.625,26.033c-2.248,5.352 -5.585,9.581 -8.988,13.813c-0.395,-2.278 -0.793,-4.594 -1.321,-6.842c-1.849,-7.827 -3.93,-15.825 -6.276,-23.289c-2.113,-6.773 -3.139,-13.415 -7.137,-19.493c-4.594,3.071 -7.83,7.593 -9.748,13.146c-1.092,3.208 -0.858,7.137 -1.751,10.507c-1.092,3.9 -2.342,6.678 -2.512,10.873c-0.166,3.902 -0.859,6.808 -1.454,10.376c-0.585,3.799 0.033,7.534 -0.562,11.302c-0.53,3.203 -1.648,5.251 -1.818,8.789l0.002,-0.006c-0.17,4.063 -0.023,8.228 0,12.29c0.067,4.162 1.157,5.983 3.403,7.435c-3.173,12.03 3.669,32.68 14.969,39.685c3.768,2.321 8.293,2.054 12.555,2.151c7.105,0.166 14.178,0.33 21.115,-1.323c7.334,-1.748 14.209,-4.921 21.643,-6.276c6.343,-1.154 13.183,-0.23 19.065,1.983c6.012,2.213 7.102,7.399 8.457,12.819c1.819,7.367 2.975,14.074 3.701,21.377c0.398,3.832 1.225,8.226 1.951,11.928c0.395,1.952 0.824,4.926 1.781,7.006c0.164,0.365 0.35,0.728 0.595,1.058c2.444,3.637 7.533,7.693 11.862,8c3.072,0.23 3.998,-0.894 6.543,-2.019c3.104,-1.354 6.507,-1.784 9.513,-3.37c3.695,-1.984 2.841,-2.706 3.964,-5.979c2.414,-7.04 1.983,-13.055 1.983,-20.719c0,-11.995 -0.827,-23.163 -1.918,-35.091c-0.593,-6.341 -1.718,-13.942 -5.65,-18.999c-4.694,-6.048 -11.234,-9.713 -15.464,-16.488c-3.004,-4.89 -5.947,-9.351 -7.201,-15.165c-1.027,-4.591 -2.945,-8.788 -3.902,-13.38c-0.804,-3.799 -0.231,-7.601 -0.826,-11.401c-0.497,-3.207 -1.354,-6.677 -1.949,-9.913c-0.992,-5.42 -0.993,-9.519 -1.355,-14.936c-0.759,-11.696 -5.155,-21.541 -7.534,-32.843c-1.254,-6.048 -2.578,-11.959 -3.635,-18.007c-1.356,-7.7 -0.597,-15.531 -1.916,-23.265c-1.42,-8.227 0.169,-16.654 -0.858,-24.913c-1.355,-10.838 -1.388,-22.764 -4.859,-33.14c-1.188,-3.6 -1.684,-8.954 -4.162,-11.202c-1.598,-1.45 -3.077,-2.076 -4.31,-2.031zM592.479,537.982c-2.809,0.991 -5.188,7.27 -6.84,10.341c-2.873,5.251 -5.783,10.704 -8.259,16.121c-2.016,4.462 -2.147,8.561 -4.558,12.954c-3.934,7.137 -4.857,14.21 -6.311,22.238c-2.611,14.705 -4.197,31.292 -1.452,46.163c2.182,11.63 1.026,24.483 0.992,36.379c-0.023,5.848 -0.298,11.169 1.652,16.753c0.63,1.749 1.454,5.252 2.511,6.541c2.512,3.107 5.914,4.954 8.13,8.756c3.337,5.814 6.608,12.885 9.584,18.934c3.105,6.313 5.516,12.72 8.852,18.934c3.534,6.678 4.726,14.11 6.642,21.512c3.173,12.158 6.773,25.804 8.623,38.194c7.932,0 15.661,1.455 21.115,-1.452c7.105,-3.802 10.574,-10.808 11.599,-19.431c1.093,-8.987 -1.552,-19.461 -3.832,-27.986c-3.668,-13.711 -10.837,-26.201 -13.085,-40.408l-0.004,-0.002c-5.188,-32.942 -6.941,-67.704 -16.589,-99.523c-2.212,-7.367 -1.519,-15.296 -4.131,-22.765c-3.073,-8.756 -5.816,-17.349 -8.096,-26.401c-1.522,-5.913 -4.361,-11.365 -5.816,-17.084c-1.519,-6.114 0.96,-12.788 -0.725,-18.768zM190.141,546.378c-8.36,8.623 -10.439,26.499 -10.935,37.799c-0.343,7.2 1.155,14.737 -0.366,21.839c-1.321,6.279 -2.15,12.857 -3.57,19.132c-0.793,3.606 -2.674,7.104 -3.37,10.642c-0.728,3.769 0.266,7.402 -3.005,10.309c-4.791,4.327 -12.853,1.812 -18.371,0.759l-0.002,-0.01c-5.982,-1.157 -12.358,0.233 -16.488,4.924c-7.138,8.062 -5.684,22.565 1.552,30.068c3.369,3.471 6.904,6.64 9.977,10.408c3.538,4.365 7.238,4.96 12.658,6.246c2.975,0.691 5.85,1.982 8.791,2.376c5.945,0.762 10.042,0.104 15.297,3.603c5.22,3.503 8.127,9.484 10.175,15.234c2.085,5.685 5.753,11.073 7.173,16.987c1.156,4.889 2.312,8.79 5.121,13.05c0.164,0.232 0.339,0.45 0.462,0.695c4.493,6.442 6.145,7.862 13.909,9.414c5.351,1.128 9.879,2.281 14.107,-2.145c3.802,-3.965 5.522,-10.34 7.106,-15.43c2.479,-8.225 0.162,-13.544 -2.116,-21.377c-1.453,-4.986 -2.322,-8.389 -2.345,-13.742c0,-8.692 -0.958,-17.38 -3.006,-25.806c-0.925,-3.901 -2.64,-7.798 -3.202,-11.763c-0.332,-2.377 0.124,-4.564 0.196,-6.941c0.2,-7.533 -2.645,-14.999 -4.329,-22.302c-0.989,-4.228 -2.809,-8.755 -5.188,-12.817c-3.139,-5.354 -4.328,-10.708 -7.137,-16.458c-4.956,-10.144 -7.535,-21.642 -11.763,-32.084c-2.08,-5.12 -3.897,-10.409 -5.715,-15.66c-1.782,-5.185 -2.313,-12.52 -5.618,-16.95zM712.823,553.546c-2.742,0.332 -5.451,14.174 -6.112,16.654c-1.881,7.269 -2.346,15.562 -3.403,23.095c-1.193,8.753 -0.368,18.304 -2.25,26.962c-0.694,3.271 -2.643,5.91 -3.304,9.186c-0.552,2.71 0.372,5.486 -0.024,8.193c-0.165,1.322 -1.156,4.199 -1.552,5.554c-0.629,2.182 -0.992,4.329 -2.181,6.345c-2.18,3.768 -4.726,8.623 -8.954,8.623c-3.802,0 -4.394,-2.48 -5.881,-5.979c-1.782,-4.164 -3.171,-6.706 -6.541,-9.617c-2.247,2.479 -4.494,8.922 -4.99,12.257c-0.823,5.421 -1.95,10.974 -2.873,16.359c-0.727,4.063 -0.629,7.302 -1.818,11.398c-1.157,3.998 -1.915,7.234 -1.818,11.466l-0.024,-0.004c0.33,15.597 -13.546,27.955 -10.309,45.002c2.279,12.026 12.523,13.579 22.171,17.811c3.666,1.616 11.266,4.558 15.662,2.542c10.442,-4.826 -4.528,-24.744 8.623,-26.466c5.616,-0.724 11.762,-0.497 17.017,0.992c3.139,0.896 6.51,1.09 9.617,2.049c4.195,1.256 7.995,3.502 12.423,4.493c7.832,1.78 13.185,0.695 13.944,-8.128c0.148,-1.717 0.245,-3.471 0.245,-5.188c0.1,-7.003 -0.697,-14.109 -0.794,-21.048c-0.066,-5.485 -2.277,-10.772 -4.261,-15.463c-1.62,-3.8 -1.025,-3.8 -4.857,-5.057c-3.137,-1.057 -5.187,-0.926 -7.435,-3.897c-2.083,-2.775 -2.775,-5.124 -3.534,-8.259c-0.859,-3.337 -2.035,-6.409 -2.28,-10.044c-0.959,-14.903 1.289,-31.193 -1.654,-45.8c-1.257,-6.146 -2.38,-12.421 -3.932,-18.469c-1.882,-7.234 -2.047,-12.358 -2.411,-19.891c-0.297,-5.916 -2.611,-10.042 -3.966,-15.494c-0.859,-3.406 0.495,-7.868 -2.544,-10.178z" /></svg>