<svg xmlns="http://www.w3.org/2000/svg" viewBox="0 0 891 896" width="891" height="896"><path d="M400.204,-0.018h0.055c1.061,0.134 2.135,0.209 3.238,0.328l2.8,0.164c1.317,0.028 2.645,0.028 4.007,0c-3.041,0.362 -9.15,0.989 -1.594,2.472c12.514,0.156 2.854,0.878 9.772,2.636c12.39,0.778 2.346,-2.492 20.534,0.109c1.961,0.198 0.196,-0.829 -1.758,-1.428c4.197,0.631 8.156,1.023 11.036,1.206c6.117,0.08 12.097,-0.052 19.93,0.823c-5.315,-0.482 -9.339,-1.005 -2.143,-1.648c-3.12,1.204 9.872,1.316 14.548,2.199l1.261,-0.768c3.756,0.881 -0.212,1.161 -3.293,1.372c0.084,-0.287 -1.015,-0.521 -3.293,-0.493c-5.998,0.519 -3.836,3.402 5.6,3.842c10.152,-0.597 8.514,-2.549 6.752,-3.348c1.283,0.089 2.402,0.164 3.403,0.164c1.154,0 2.168,-0.055 3.129,-0.055c1.556,0.24 2.136,0.246 3.019,0.274c0.763,0.028 1.577,0.028 2.255,0c1.404,-0.061 2.59,-0.158 3.952,-0.219c2.68,-0.082 5.7,0.073 10.817,1.594c2.921,0.517 11.996,5.386 21.195,7.468c5.074,-0.759 -11.306,-3.501 -5.71,-3.897c3.64,1.755 7.42,3.059 11.42,3.623c4.077,0.52 8.253,0.702 12.572,0.823c8.713,0.282 17.992,0.366 27.947,2.964l-2.8,1.758c2.278,0.399 4.519,0.668 6.916,1.042c1.401,0.722 2.86,1.481 4.339,2.199c1.283,0.605 2.61,1.214 4.007,1.813l-5.929,-4.228c4.756,1.84 14.444,7.121 10.487,6.972c10.392,3.282 12.009,5.201 20.807,10.158c-9.513,-4.88 -0.046,-0.375 -7.522,-2.855c4.117,2.563 6.639,3.975 8.838,5.055c1.078,0.48 2.103,0.936 3.183,1.372c1.162,0.44 2.349,0.885 3.788,1.484c0.556,0.399 1.388,1.071 2.307,1.758c-1.439,-0.282 0.905,3.243 3.183,5.162c6.355,3.716 15.562,12.027 23.717,18.062l-0.383,0.438l3.293,2.636l2.8,2.417c3.276,1.037 6.47,2.116 9.828,3.238l10.543,3.515c7.038,2.278 14.063,4.364 21.14,5.6c0.355,0.061 0.703,0.191 1.042,0.219l-1.484,-0.547c-2.082,-1.572 -0.519,-1.518 5.6,0c1.759,2.2 3.823,4.863 5.819,7.303c1.681,2.084 3.245,3.998 4.284,4.999c0.279,1.237 -0.059,2.145 1.703,4.503c1.595,-0.961 4.759,4.696 6.916,6.093c2.997,5.076 -2.222,0.789 3.897,8.784c2.474,3.041 3.506,2.762 3.842,1.922c0.159,0.997 1.342,3.343 2.143,4.943c1.116,1.519 3.56,4.037 5.436,5.874c-1.68,-0.877 -3.378,-3.289 -4.339,-4.007c-1.161,0.282 1.676,2.453 0.715,3.293c3.399,3.319 2.616,0.028 6.533,4.503l-5.055,-2.636c1.481,1.878 4.147,3.398 5.108,4.116c-1.482,-1.058 -2.353,-1.198 -2.91,-0.987l5.108,4.777c1.665,-0.277 -0.79,-4.75 0.328,-5.272c3.92,4.319 7.857,7.715 11.693,10.872c1.919,1.52 3.855,3.064 5.655,4.503l2.691,2.199l3.074,2.581l2.255,3.019l-2.526,-0.659c2.961,3.88 4.564,5.661 6.203,6.697l4.228,6.315c-2.957,-3.263 -4.282,-4.142 -5.6,-3.623c4.959,6.399 10.814,15.743 13.891,16.143l-0.438,-0.055c5.159,9.436 17.936,27.849 16.856,27.728c7.316,8.873 14.734,21.542 16.856,20.424c4.52,5.157 8.161,16.048 13.399,18.284c3.635,7.437 -0.194,0.669 -3.074,-0.328c3.682,7.476 11.691,11.78 10.655,15.978c6.717,7.319 -0.836,-2.293 2.362,-0.493c-0.4,0.797 0.209,2.249 1.206,4.007c0.119,6.236 2.468,16.156 2.032,23.115c1.757,3.796 0.276,-4.11 2.472,2.526c-0.854,-0.562 -0.566,3.087 -0.383,4.887l2.143,1.539l-2.472,6.643l1.097,7.799l0.109,0.328c2.081,1.484 0.295,-4.131 6.533,7.743l-0.659,-0.878c0.242,5.234 6.817,10.942 10.817,23.334c-1.483,-4.198 -1.611,-1.271 -2.691,-2.307l3.733,6.203c-0.376,-0.551 -0.669,-0.76 -0.548,0c0.84,4 1.75,4.647 2.91,6.643c0.514,1.403 0.941,2.83 1.152,5.71c-0.643,-1.915 -1.252,-2.727 -1.648,-2.91l2.636,9.772l1.097,2.087l-0.715,-0.603l8.236,30.747l-9.333,45.845l0.328,1.042c0.2,0.06 0.476,0.081 0.659,0.109l2.199,6.259c0.925,-0.524 0.28,-5.072 -0.438,-7.908c-0.079,-2.8 5.859,9.502 8.181,16.418c4.877,18.949 -2.363,4.823 0.438,17.898l2.255,5.765l1.042,2.855v-0.164l1.316,3.678l-0.603,3.403l-0.328,2.526h-1.097c-1.276,2.563 -0.521,4.254 -0.493,5.055c-1.157,-1.519 -3.779,13.575 -5.655,20.371l1.813,-2.199c-1.716,19.711 -10.148,29.372 -12.024,44.802l-0.219,11.091l-2.307,1.813c0,1.521 -0.109,2.762 -0.109,3.842c-0.319,4.118 -0.261,6.529 -3.183,14.165c-1.997,4.877 -3.91,9.801 -5.71,14.879l-2.636,7.577l-2.636,8.127c-8.951,13.792 -16.264,26.128 -24.982,40.08l-6.643,6.533l-6.259,6.259c-4.241,4.042 -8.491,8.079 -12.849,11.915c0.596,-0.082 1.438,-0.802 3.238,-2.199c-4.238,3.077 -8.43,6.708 -11.31,9.388c-4.124,6.636 -7.658,14.019 -10.655,20.698c-1.482,3.397 -3.02,6.746 -4.503,10.104l-2.255,5.055l-1.261,2.526l-1.977,3.678c-1.558,1.202 -3.193,2.37 -4.832,3.571c-1.317,0.878 -2.645,1.784 -4.007,2.745c-2.758,1.8 -5.64,3.538 -8.838,5.217l1.206,-1.703c-11.995,8.914 1.276,-1.817 -8.236,3.623c-0.239,3.161 -14.716,12.174 -20.753,18.449c0.762,-1.201 3.087,-2.997 4.887,-4.832c-1.599,0.599 -2.92,-0.087 -6.038,2.91c-2.278,3.481 -6.331,7.613 -11.091,11.971c-2.438,2.081 -4.921,4.255 -7.522,6.533c-2.438,2.037 -4.906,4.163 -7.303,6.203c-1.762,2.317 -3.399,4.575 -4.999,6.697c-2.318,0.393 -11.854,9.633 -18.172,13.232c-0.56,1.562 -1.495,4.478 -2.255,7.194c-1.479,1.199 -2.681,2.395 -3.678,3.678c-0.601,0.722 -1.18,1.517 -1.703,2.199c-0.643,0.874 -1.268,1.741 -1.867,2.581c-1.68,0.644 -3.933,1.5 -5.055,2.143l5.491,-1.484l6.478,-7.908c-0.03,0.171 -0.055,0.317 -0.055,0.438c0.238,-0.44 0.749,-1.121 1.152,-1.758c2.118,-2.558 3.18,-4.017 2.581,-3.459c5.038,-3.76 0.668,1.123 2.307,1.922c-1.236,1.522 -3.109,3.686 -4.832,5.765c-0.881,1.079 -1.722,2.058 -2.526,3.019c-1.438,1.633 -2.752,3.025 -3.788,4.061c-1.804,0.366 -2.993,0.477 -3.515,0.328c-2.882,0.703 -3.38,0.829 -4.777,1.097c-1.236,0.238 -2.489,0.5 -4.007,0.768c-1.76,0.722 -3.783,1.355 -5.984,1.758l0.933,-0.383c-0.392,-0.121 -0.838,-0.136 -1.316,-0.164c-4.6,0.803 -9.824,2.627 -14.824,4.668c-2.518,1.041 -4.981,2.058 -7.303,3.019c-1.155,0.522 -2.281,1.044 -3.403,1.484c-0.482,0.239 -0.965,0.476 -1.484,0.659c-0.03,0.11 -0.055,0.267 -0.055,0.328c-0.029,-0.11 -0.055,-0.239 -0.055,-0.328c-0.028,-0.478 0.121,-0.993 0,-1.261c-0.238,-0.279 -0.438,-0.454 -0.878,-0.603c-0.238,-0.359 -2.406,0.425 -2.745,-0.219c-0.157,0.096 0.025,0.065 0.547,-0.274c0.319,-0.156 0.876,-0.493 1.594,-0.933c3.516,-0.88 9.657,-2.526 16.691,-4.284c-0.959,0.04 -1.603,-0.069 -1.977,-0.547c-2.921,0.24 -5.498,0.821 -8.017,1.539c-1.281,0.396 -2.505,0.876 -3.788,1.316c-1.319,0.395 -2.76,0.938 -3.238,1.206l-0.933,0.715l-1.484,1.152c-1.118,0.8 -2.202,1.534 -3.403,2.417c-2.362,1.601 -5.034,3.332 -8.236,5.055c0.718,-0.682 2.222,-2.022 1.261,-2.143c-4.873,2.601 -8.429,6.39 -8.948,7.908c-0.999,-0.319 -4.139,0.878 -7.577,2.636c-1.758,0.879 -3.538,1.976 -5.217,3.019c-0.806,0.56 -1.644,1.006 -2.362,1.484c-0.918,0.675 -1.766,1.365 -2.526,1.922c-0.139,0.089 -0.3,0.246 -0.328,0.274c-3.202,1.08 -4.152,1.607 -5.71,2.087c-1.558,0.48 -3.661,0.849 -8.181,1.372l3.897,-1.648c-11.035,0.437 -8.709,2.727 -17.788,2.91c3.596,0 3.764,-1.163 1.042,-1.042c-11.312,2.036 -11.483,2.708 -19.437,5.984l1.316,-1.977c-9.596,1.954 -27.78,5.322 -28.22,2.964c1.162,1.2 -1.058,2.004 -4.777,2.526c-1.841,0.28 -4.12,0.51 -6.478,0.659c-2.24,0.11 -4.6,0.207 -6.916,0.328c-4.12,0.637 -8.008,1.19 -10.487,1.594c2.837,-0.602 3.304,-1.486 3.515,-1.922c-6.116,1.96 -12.35,3.369 -18.668,4.449l-9.497,1.484l-10.049,1.428l-8.127,0.328l-7.855,0.493l-3.019,-2.472c-9.477,0.759 -11.808,6.238 -22.127,6.916l3.678,-1.594c-4.282,0.356 -8.118,0.804 -10.158,0.987c-3.555,-0.718 -6.685,-1.361 -9.607,-1.922c-2.598,-0.519 -4.994,-1.017 -7.358,-1.539c-4.713,-1.037 -9.272,-2.065 -14.988,-3.348l0.659,-1.703c-2.318,-0.084 -4.867,-0.447 -7.468,-0.715c-2.72,-0.321 -5.498,-0.648 -8.017,-0.987c-1.758,-0.434 -1.96,-0.454 -2.8,-0.603c-3.279,-2.638 -9.278,-5.049 -16.637,-7.413c-3.637,-1.116 -7.743,-2.347 -11.859,-3.623c-2.037,-0.643 -4.124,-1.227 -6.203,-1.867l-6.916,-2.307c-2.278,-1.235 -4.516,-2.38 -6.752,-3.623c-1.999,-1.12 -3.937,-2.37 -5.819,-3.571c-3.84,-2.4 -7.368,-4.87 -10.323,-7.468l-2.8,2.255c-2.56,-1.398 -5.405,-2.966 -8.127,-4.449c-1.352,-0.764 -2.614,-1.547 -3.897,-2.307c-1.157,-0.679 -2.792,-1.73 -2.581,-1.758c-0.196,-0.199 0.106,-0.145 -0.493,-0.328c-0.478,-0.239 -0.887,-0.504 -1.261,-0.715c-0.84,-0.482 -1.554,-1.017 -2.032,-1.539l1.758,0.547c1.48,-2.277 -8.124,-2.185 -13.123,-4.061c-3.92,-0.719 -8.201,-0.098 -4.999,1.261c-3.56,-1.198 -7.424,-2.422 -11.42,-3.623c-4.479,-1.234 -9.143,-2.559 -13.782,-3.842c-4.039,-2.761 -8.092,-5.518 -11.971,-8.236c-3.522,-2.478 -6.921,-4.915 -10.158,-7.194c-6.355,-4.637 -11.724,-8.914 -15.043,-12.352c-0.521,-0.317 -0.988,-0.667 -1.428,-0.878c-1.118,-1.081 -2.285,-2.147 -3.403,-3.183c-0.997,-0.922 -1.963,-1.808 -2.964,-2.691c-1.919,-1.759 -3.818,-3.439 -5.655,-5.162c-3.837,-3.317 -7.44,-6.565 -11.201,-9.884c-3.676,-3.28 -7.419,-6.688 -11.255,-10.323c-3.997,-3.479 -8.088,-7.139 -12.407,-11.255l0.493,-0.055c-5.676,-5.914 -17.004,-17.762 -15.043,-19.765c-13.196,-11.594 -23.792,-16.645 -38.105,-32.118l4.007,2.417c-0.565,-0.643 -1.134,-1.243 -1.813,-1.922c-0.84,-0.764 -1.753,-1.671 -2.636,-2.472c-1.243,-1.756 -1.754,-2.264 -2.472,-3.183c-0.718,-0.809 -1.323,-1.536 -1.922,-2.255c-1.279,-1.398 -2.322,-2.572 -2.8,-3.129c-1.001,-1.561 0.246,-0.715 0.768,-0.715c-2.04,-4.717 -4.974,-6.354 -7.413,-9.552l1.648,0.878c-1.638,-3.202 -3.695,-6.534 -6.093,-10.049c-1.198,-1.763 -2.457,-3.546 -3.733,-5.381c-1.482,-2 -3,-4.046 -4.558,-6.203c-2.759,-5.998 -5.685,-12.266 -8.565,-18.504c-2.759,-6.038 -5.376,-12.156 -7.577,-17.953c1.758,3.559 1.962,1.256 1.813,-0.383c-0.637,-0.718 -1.409,-1.665 -2.087,-2.745c-0.317,-0.518 -0.639,-1.049 -1.042,-1.648c-0.357,-0.721 -0.519,-0.934 -1.206,-2.417c-0.482,-1.441 -1.049,-2.958 -1.648,-4.558c-0.44,-1.441 -0.962,-2.966 -1.484,-4.449c-0.878,-3.077 -1.772,-6.256 -2.691,-9.333c-1.68,-6.114 -3.182,-11.794 -4.339,-15.152l2.526,5.055c-3.366,-8.798 -3.214,-12.209 -3.515,-16.965c0.077,-4.282 0.246,-7.629 -2.032,-15.704l-0.219,10.104c-0.638,-7.077 -2.116,-12.912 -3.238,-11.036c-0.278,-8.276 2.172,-1.393 0.493,-13.672c0.758,-0.678 1.994,8.756 2.472,4.558l-0.383,-17.348v-0.055c0.089,-0.156 -0.043,-1.303 -0.164,-2.143c-0.443,-1.115 -1.053,-2.765 -1.977,-5.162c-3.157,2.726 -5.015,-13.292 -5.655,-3.897c-2.157,-5.796 -4.074,-11.435 -5.874,-16.91c-1.8,-5.636 -3.549,-11.117 -5.272,-16.472c-0.434,-2.837 -0.858,-5.532 -1.261,-8.291c-0.48,-2.604 -0.932,-5.18 -1.372,-7.743c-0.959,-5.079 -2.044,-10.142 -3.403,-15.098c0.358,-1.599 0.423,-3.783 0.274,-6.423c-0.101,-1.361 -0.344,-2.845 -0.493,-4.284c-0.119,-0.764 -0.213,-1.506 -0.274,-2.307c-0.183,-1.118 -0.398,-2.302 -0.547,-3.459c0.999,-3.237 2.018,-6.555 3.019,-9.716c0.918,-2.796 1.741,-5.486 2.581,-7.687c1.644,-4.439 3.24,-7.173 4.558,-6.093c3.321,-11.316 5.429,-20.58 5.055,-28.22c0.951,-5.491 1.925,-11.397 2.91,-15.207c-0.922,7.794 -2.789,20.279 -2.91,26.517c2.601,-10.39 4.189,-25.472 5.108,-31.349l3.129,-2.032c0.362,-8.874 3.571,-7.082 3.571,-15.317c-0.03,-0.163 -0.027,-0.285 -0.055,-0.659c-0.168,0.287 -0.344,0.398 -0.493,0.547c-0.196,0.196 -0.42,0.414 -0.603,0.715c0.061,-0.277 0.191,-0.585 0.219,-0.768c2.338,-15.111 0.058,-16.27 1.977,-31.185l0.878,0.878c0.52,-2.039 0.647,-4.521 0.768,-7.084c0.06,-1.278 0.043,-2.566 0.164,-3.842l0.328,-1.922c0.168,-0.802 0.317,-1.495 0.438,-2.255c0.438,-1.083 0.686,-1.721 0.987,-2.199c0.321,-0.56 0.778,-0.95 1.152,-1.428l-1.261,3.842l-0.933,6.752c1.122,-0.519 2.158,-3.005 3.238,-6.203c1.201,-2.322 2.07,-3.965 2.91,-5.327c2.833,-10.315 -1.548,-4.467 -0.109,-9.662c2.239,-1.603 1.028,-0.213 1.428,3.788c1.402,-5.277 3.01,-11.345 4.449,-17.184c0.718,-2.921 1.365,-5.78 1.922,-8.455c0.559,-2.962 1.099,-5.659 1.539,-8.017c0.879,-1.477 1.356,-2.54 1.539,-3.183c0.509,-0.279 0.547,0.438 0.547,0.438c7.595,-9.797 11.711,-20.403 17.348,-25.639l-1.261,2.087c1.718,-1.398 3.349,-3.221 4.832,-5.217l2.143,-3.183c0.761,-1.043 1.473,-2.136 1.594,-2.472c0.038,-0.439 0.703,-2.435 1.042,-3.678c0.483,-1.357 0.936,-2.653 1.372,-3.733c0.922,-2.159 1.865,-3.529 3.183,-3.678c2.318,-4.116 -3.805,9.927 0.715,3.571c6.276,-13.394 0.096,-10.32 5.655,-22.073c-0.722,1.605 -0.313,1.149 -0.164,1.867c1.556,-4.6 3.451,-9.908 5.491,-15.704c4.198,-3.92 8.761,-8.217 12.959,-12.133c3.278,-1.56 7.061,-4.231 10.982,-7.468c1.92,-1.679 3.944,-3.439 5.984,-5.162c1.919,-1.717 3.9,-3.499 5.819,-5.217c1.121,-1.721 2.226,-3.429 3.348,-5.108c1.198,-1.837 2.38,-3.621 3.623,-5.217c2.478,-3.359 4.949,-6.329 7.468,-8.565c-3.716,3.118 0.666,-3.948 0.109,-4.284c0,0 0.046,0.702 0.603,0.328c2.93,-4.357 2.177,-5.616 2.855,-7.577c0.915,-0.839 1.839,-2.246 2.8,-3.842c0.998,-1.839 2.128,-3.87 3.129,-5.71c1.116,-1.322 2.191,-2.574 3.074,-3.571c0.799,-0.84 1.586,-1.545 2.143,-1.813c-0.559,-0.679 2.643,-3.419 6.038,-6.697c-6.154,7.287 -0.862,3.442 -3.019,7.358c10.554,-9.473 9.103,-14.001 20.259,-23.717l2.855,-1.813l1.484,-0.933l1.977,-1.428l2.199,-0.659c0.643,-3.04 13.339,-7.754 12.74,-8.51c2.638,-0.24 6.175,-1.414 6.203,-0.055c5.113,-3.001 13.733,-5.55 15.372,-7.908l-5.655,1.867c4.278,-1.679 8.564,-3.751 11.365,-5.272c8.677,-5.998 15.711,-12.263 25.147,-16.582l1.703,3.293c2.682,-1.079 4.969,-2.486 7.084,-4.007c2.241,-1.679 4.363,-3.219 6.478,-4.777l2.691,-1.042c0.72,-0.282 1.547,-0.585 2.307,-0.768c1.517,-0.383 3.098,-0.687 4.777,-0.715c-3.083,-0.32 -3.493,0.226 1.867,-2.855c-1.362,0.362 -3.162,0.973 -5.162,1.813c-0.959,0.357 -1.952,0.821 -3.074,1.261c-1.198,0.439 -2.45,0.95 -3.733,1.428c-1.197,0.8 -2.477,1.657 -3.678,2.417c1.036,-0.921 1.645,-1.646 3.403,-2.964c2.322,-1.004 3.02,-1.481 4.503,-2.199l3.897,-2.143l-8.784,3.403l-9.662,6.643c6.436,-5.679 6.136,-5.08 2.417,-4.558c1.039,-0.803 1.986,-1.544 2.91,-2.143c0.436,-0.276 0.913,-0.612 1.316,-0.823c0.719,-0.394 1.389,-0.81 2.032,-1.206c0.677,-0.187 1.299,-0.42 1.977,-0.603c0.357,-0.119 0.723,-0.153 1.097,-0.274c0.719,-0.139 1.334,-0.317 1.977,-0.438c1.277,-0.28 2.387,-0.447 3.623,-0.715c2.479,-0.516 5.282,-1.264 9.278,-3.183c4.12,-0.798 0.443,1.815 5.162,1.097c3.999,-1.921 8.161,-2.853 12.079,-3.571c1.998,-0.399 3.925,-0.741 5.765,-1.042c1.919,-0.482 3.106,-0.839 5.546,-1.758c-0.641,0.32 -0.979,0.619 -0.768,0.768c0.282,-0.179 0.638,-0.267 0.878,-0.328c3.322,-0.215 6.145,-0.344 8.346,-0.493c2.121,-0.2 3.738,-0.533 4.613,-1.097l-5.6,-0.274c4.919,0 5.703,-1.514 15.098,-0.878c4.05,-0.717 6.768,-1.969 5.381,-2.526c2.167,0.274 4.157,0.749 2.91,1.539c6.238,-0.121 8.436,-0.93 9.994,-1.648c0.799,-0.356 1.388,-0.719 2.307,-0.987c0.321,-0.145 1.16,-0.267 1.428,-0.328c0,-0.03 0.043,-0.083 0.164,-0.055c0.089,-0.028 0.098,-0.028 0.219,0c0.2,-0.032 1.534,-0.597 2.417,-0.933c-0.786,0.516 -1.603,1.234 -1.042,1.206c3.28,-1.475 5.815,-2.869 7.855,-4.228c-5.441,3.161 -4.176,3.36 -3.293,3.571c0.45,0.036 0.796,0.193 0.274,0.715c-0.317,0.238 -0.808,0.564 -1.648,1.042c-0.478,0.196 -1.008,0.539 -1.648,0.878c-0.564,0.282 -1.465,0.74 -1.648,0.768c0.196,0.229 0.391,0.328 0.659,0.328c0.44,-0.04 0.885,-0.255 1.484,-0.438c1.122,-0.48 2.5,-1.107 3.897,-1.867c2.761,-1.596 5.781,-3.485 8.017,-4.284c5.682,-4.633 -0.643,-2.96 2.032,-5.6c0.281,0.596 2.856,-0.76 6.093,-2.199l-3.733,0.274c2.639,-1.441 5.184,-2.792 8.181,-4.832l-4.943,3.403c2.198,-1.079 5.009,-2.16 8.127,-3.403c1.558,-0.644 3.164,-1.409 4.887,-2.087c0.839,-0.434 1.784,-0.865 2.745,-1.261c1.426,-0.756 2.836,-1.534 4.339,-2.362zM530.583,156.188c-9.084,0.337 -18.14,0.9 -27.343,0.933c-21.704,0.21 -43.244,2.278 -64.951,2.636c-14.615,0.268 -29.044,3.349 -43.539,2.964c-5.801,-0.269 -11.391,-1.879 -17.075,-2.636c-8.061,-1.044 -16.824,-0.509 -24.982,-0.438c-7.214,0.089 -14.396,1.437 -21.414,2.581c-8.624,1.238 -17.311,4.613 -26.027,4.613c-10.538,0 -20.743,2.318 -31.185,2.8c-10.904,0.347 -22.015,-0.109 -32.943,-0.109c-5.974,0 -11.995,-0.683 -17.679,0.274c-2.38,0.411 -4.689,1.36 -6.972,1.261c-3.523,-0.411 -6.033,-3.457 -9.552,-4.116c-4.345,-0.751 -7.515,4.582 -9.994,8.181c-1.703,2.747 -3.217,5.671 -5.108,8.346c-1.143,1.508 -2.162,2.106 -2.526,4.007c-0.848,4.445 0.495,7.546 -1.977,11.529c-0.95,1.335 -6.858,8.875 1.977,2.417v-0.109c25.689,0.092 51.246,-1.201 76.865,-1.372c6.068,-0.415 11.935,-0.117 18.007,0.659c3.093,0.732 6.237,1.557 9.388,2.362c-1.331,2.827 -3.459,5.595 -4.999,8.346c-2.087,3.712 -4.775,6.733 -6.862,9.772c-0.764,0.855 -1.048,1.864 -1.316,2.91c-0.867,2.843 -0.768,6.185 -0.768,9.224c0,5.392 1.029,11.11 0.547,16.691c-1.044,12.431 -7.514,23.589 -9.772,35.633c-0.777,4.174 -3.429,7.612 -4.668,11.693c-1.14,3.883 -1.702,7.921 -3.403,11.639c-3.715,7.771 -8.928,15.018 -14.22,21.743c-2.478,3.328 -6.153,5.699 -8.729,9.003c-2.744,3.425 -4.727,7.593 -7.303,11.091c-4.93,7.116 -10.625,13.639 -15.649,20.753c-5.514,7.772 -12.517,13.857 -18.395,21.359c-1.506,1.988 -2.55,4.48 -4.172,6.203c-1.998,2.181 -4.814,3.385 -7.194,5.108c-3.69,2.647 -6.871,5.686 -11.146,7.577c-3.982,1.795 -8.312,2.281 -12.298,4.172c-9.689,4.563 -19.717,9.844 -27.124,17.734c-3.038,3.205 -3.34,6.429 -5.162,10.213c-2.451,5.116 -7.323,3.439 -11.31,5.819c0.75,1.799 2.589,2.359 3.733,3.788c3.786,4.174 5.519,9.958 9.333,14.329c3.232,3.608 5.841,2.766 9.828,0.219c1.511,-0.877 2.007,-1.235 3.515,-1.922c3.034,-1.122 5.065,-2.382 7.908,-4.007c3.035,-1.89 6.888,-2.822 10.213,-4.061c2.738,-1.113 4.382,-2.275 6.861,-3.897c6.626,-4.54 14.233,-7.11 20.862,-11.748c4.66,-3.425 8.53,-7.379 12.517,-11.365c4.444,-4.733 9.532,-8.285 14.384,-12.462c5.195,-4.542 9.147,-10.315 14.439,-14.879c4.662,-4.178 8.314,-7.199 11.639,-12.684c1.892,-2.942 3.532,-3.339 6.203,-5.327c3.037,-2.574 5.022,-6.742 7.962,-9.607c4.081,-3.983 7.451,-8.34 10.872,-12.904c2.743,-3.788 5.438,-7.755 8.838,-10.982c3.717,-3.595 5.789,-7.229 8.729,-11.31c5.026,-6.916 11.458,-12.045 14.879,-20.203c1.891,-4.541 4.574,-9.422 5.546,-14.274c0.96,-5.974 0.151,-12.045 1.484,-18.117c1.237,-6.263 1.982,-12.719 4.172,-18.887c2.282,-7.019 6.513,-13.111 9.552,-19.93c2.574,-5.706 3.646,-11.78 5.929,-17.459c3.4,-8.354 1.303,-16.091 2.636,-24.928c0.084,-0.702 -0.238,-0.852 -0.274,-1.372c13.267,0.162 26.3,2.91 39.75,2.91c10.246,0 20.282,-2.526 30.528,-2.526c5.224,0.269 10.457,0.981 15.484,2.032c3.784,0.415 7.565,0.491 11.255,0.219c2.083,0.212 4,1.44 5.819,1.539c2.257,0.271 4.407,-1.116 6.588,-1.867c4.179,-1.239 8.354,-0.987 12.628,-0.987c14.134,0 27.974,0.382 41.619,4.284c7.6,2.182 15.563,1.206 23.334,1.206c11.288,0 23.011,1.082 34.204,-0.055c6.162,-0.616 12.237,-2.211 18.284,-3.459c-0.238,1.468 -0.445,2.997 -0.547,4.061c-0.211,3.498 0.415,7.266 0,10.982c-0.482,4.247 -1.357,8.184 -1.261,12.628c0,6.165 0.089,12.404 0,18.668c-0.089,8.254 2.363,16.429 7.194,23.059c2.285,3.322 4.681,6.274 6.478,9.772c2.183,4.467 3.385,9.205 5.765,13.672c4.467,8.352 7.618,17.431 12.352,25.859c3.879,7.115 8.801,14.754 14.603,20.534c1.508,1.436 3.224,2.619 4.558,4.339c4.564,5.487 7.471,12.612 11.915,18.395c2.477,1.045 5.057,1.928 7.632,2.964c5.878,2.547 9.557,6.405 14.22,10.872c4.443,4.178 9.259,7.5 12.298,13.013c1.235,3.227 2.705,6.255 4.116,9.388c1.141,1.893 2.47,3.724 4.172,5.327c1.139,2.184 2.041,4.228 3.183,6.315c1.697,1.893 3.713,3.278 6.093,4.228c2.285,1.14 4.368,2.349 6.259,3.952c4.738,4.181 8.729,8.363 12.904,12.904c1.624,1.892 3.396,3.79 4.999,5.491c1.891,1.986 3.722,4.563 5.71,6.478c2.354,2.065 5.6,2.643 7.303,5.381c2.183,3.325 3.251,6.005 6.478,8.674c2.94,2.353 4.064,4.157 8.236,4.228c4.176,0.27 10.532,1.141 14.439,-0.274c4.449,-1.625 9.095,-5.825 13.343,-8.181c1.892,-1.144 1.551,-0.37 2.307,-2.8c0.751,-2.765 1.002,-6.081 1.484,-8.948c0.55,-3.401 2.571,-6.655 2.964,-9.884c-2.19,0.093 -3.049,2.321 -5.327,2.417c-3.037,0 -5.984,-2.571 -8.072,-4.172c-10.247,-7.114 -21.87,-13.43 -27.673,-24.818c-2.648,-4.833 -5.287,-9.094 -9.003,-13.343c-6.072,-6.849 -12.542,-14.128 -19.656,-19.93c-10.639,-8.524 -22.48,-12.768 -29.595,-25.201c-2.673,-4.928 -4.654,-9.95 -7.303,-14.879c-3.32,-6.167 -7.552,-10.652 -12.407,-15.484c-5.68,-5.675 -10.606,-12.132 -15.923,-18.007c-4.177,-4.734 -8.654,-9.532 -12.079,-14.824c-3.984,-5.902 -6.815,-12.2 -7.303,-19.218c-0.482,-6.265 -1.113,-11.608 -2.91,-17.679c-1.89,-6.821 -4.404,-13.363 -5.819,-20.479c-1.433,-6.531 -2.933,-13.099 -5.217,-19.437c-0.805,-2.164 -1.539,-5.276 -2.362,-8.181c0.916,0.015 1.83,-0.02 2.745,0c4.735,0.21 8.904,1.858 13.178,3.952c2.653,1.332 5.291,2.767 7.962,4.007c2.747,0.746 5.616,0.94 8.291,0.547c10.417,0.09 20.276,4.366 30.692,4.172c3.619,0 7.954,-0.678 11.474,0.219c3.985,0.95 7.601,2.926 11.584,3.678c0.549,0.208 3.972,0.898 4.943,0.438c1.892,-1.051 1.097,-2.778 1.097,-5.055c-0.149,-7.77 0,-15.466 0,-23.334c0,-3.882 -0.271,-7.662 0.547,-11.474c0.684,-3.035 0.982,-9.187 -1.594,-11.639c-1.508,0.273 -2.955,0.922 -3.897,2.255c-2.548,1.698 -5.108,2.846 -7.855,3.403c-6.166,1.727 -12.44,1.372 -18.778,1.372c-17.166,0.085 -34.187,-5.992 -50.676,-10.655c-8.257,-2.258 -16.094,-5.68 -24.543,-7.577c-8.814,-1.894 -17.75,-3.63 -26.684,-4.503c-9.19,-0.898 -18.256,-0.775 -27.343,-0.438zM441.766,262.985c-2.95,-0.343 -5.991,-0.222 -8.455,0.493c-4.004,1.143 -6.822,4.833 -9.662,7.577c-2.841,2.937 -5.819,7.101 -8.948,9.772c-1.046,0.847 -1.29,1.484 -1.097,1.867v0.055c-0.952,2.651 -3.609,5.743 -4.943,8.291c-1.89,3.13 -4.49,6.105 -6.093,9.333c-1.797,3.325 -2.167,7.468 -2.636,11.255c-0.776,4.928 0.153,8.4 1.703,13.232c2.083,6.629 3.676,14.374 8.51,19.765c5.515,6.359 16.943,2.31 24.323,3.348c2.772,0.413 5.188,1.886 7.855,2.472c3.036,0.687 6.655,0.274 9.884,0.274c7.965,-0.088 17.234,1.412 25.201,-0.109c8.911,-1.719 12.54,-12.439 14.603,-20.039c2.769,-9.564 3.518,-18.94 -1.316,-27.947c-1.892,-3.421 -4.271,-6.481 -6.259,-9.884c-2.547,-4.177 -4.2,-9.288 -8.181,-12.517c-8.157,-6.531 -17.51,-10.059 -26.517,-14.988c-2.123,-1.148 -5.012,-1.912 -7.962,-2.255zM453.805,372.838c-3.689,0 -6.794,0.767 -10.487,1.813c-1.986,0.689 -4.777,1.757 -6.478,2.143c-1.237,0.268 -2.754,-0.192 -3.897,0.109c-0.751,0.268 -1.145,1.123 -1.703,1.316c-3.227,0.777 -3.53,0.416 -5.327,3.623c-2.285,4.344 -3.951,6.61 -5.381,3.571v106.625c0,3.886 -0.089,7.905 0,11.693c0.089,6.822 -1.641,12.71 -2.581,19.437c-0.847,5.025 -2.261,16.972 2.472,20.589c2.479,2.084 5.524,2.252 8.072,4.339c2.284,1.987 4.257,4.359 6.148,6.643c4.081,4.928 8.8,7.373 14.603,9.388c4.929,1.797 7.225,5.039 12.517,4.558c6.553,-15.829 9.204,-34.135 12.243,-50.841c1.894,-10.706 0.677,-21.524 -1.316,-32.063c-1.822,-9.492 -1.029,-19.78 -0.933,-29.372c0.151,-9.858 3.615,-18.805 4.172,-28.494c0.415,-5.584 -0.2,-10.795 -1.261,-16.308c-1.895,-10.147 -5.178,-20.268 -10.104,-29.372c-1.333,-2.449 -3.054,-4.633 -4.777,-6.916c-2.084,-2.45 -2.853,-2.472 -5.984,-2.472zM664.734,572.748c-2.125,0.313 -4.257,0.927 -6.148,1.484c-5.413,1.527 -11.08,2.323 -16.691,3.074c-9.104,1.172 -16.422,3.011 -25.915,1.703c-9.007,-1.145 -16.485,0.683 -25.201,1.922c-3.621,0.566 -7.223,0.172 -10.817,0.383c-5.705,0.268 -11.274,1.428 -17.075,1.428c-13.838,0 -27.036,-3.737 -41.069,-2.691c-7.77,0.631 -15.62,1.443 -23.608,1.097c-11.268,-0.583 -22.097,-4.962 -33.657,-4.116c-17.165,1.239 -33.499,7.505 -50.567,8.455c-18.504,1.046 -36.36,3.323 -54.961,2.636c-7.115,-0.199 -13.364,-2.469 -20.479,-3.515c-7.309,-1.112 -14.898,-1.398 -22.401,-1.813c-7.962,-0.383 -15.843,0.151 -23.443,-2.032c-6.531,-1.772 -13.191,0.527 -19.82,0.438c-4.734,-0.089 -9.486,0 -14.22,0h-9.662c-7.406,0.119 -13.095,-2.377 -20.039,0.274c-2.553,0.918 -4.413,1.731 -7.084,1.316c-3.595,-0.393 -6.934,-1.683 -10.817,-1.594c-4.371,0 -8.519,0.438 -12.794,-0.109c-2.937,-0.586 -5.625,-2.111 -8.565,-2.526c-2.744,-0.464 -7.192,-0.795 -9.939,0.055c-1.406,0.393 -2.377,1.892 -3.788,2.307c-0.854,0.301 -2.198,-0.049 -2.745,0.219c-1.729,0.559 -3.012,2.739 -3.788,4.339c-1.315,2.964 -3.337,10.623 -2.855,13.563c0.19,1.043 0.737,4.153 1.152,4.999c1.144,2.461 2.464,1.784 4.722,2.199c3.981,0.724 7.377,1.517 11.748,1.428c3.398,-0.175 6.628,-1.271 10.049,-1.539c3.034,-0.14 6.722,-0.341 9.662,0.438c2.189,0.536 3.368,1.082 5.819,0.933c3.809,0 6.744,0.565 10.432,1.316c2.842,0.489 3.208,-0.559 5.491,-1.703c5.293,-2.478 12.907,2.267 18.228,3.678c5.295,1.239 10.78,2.028 16.199,3.074c8.716,1.631 18.143,4.145 26.959,4.832c8.354,0.432 16.706,-0.159 25.037,0.109c7.017,0.173 13.256,-2.751 20.371,-3.019c6.362,-0.096 12.431,1.648 18.887,1.648c9.471,-0.199 18.771,0.102 28.166,-1.042c11.653,-1.529 23.152,-4.524 34.808,-4.613c8.161,-0.175 16.012,-2.276 24.269,-2.691c12.528,-0.657 25.156,-0.741 37.883,-1.428c11.85,-0.558 23.621,0.291 35.469,1.042c15.736,0.966 31.472,-0.651 47.111,0.493c15.564,1.24 30.743,2.621 46.283,2.472c12.529,0 25.257,1.341 37.663,-1.206c2.188,-0.388 4.966,-1.648 7.249,-1.648c1.63,0.096 2.569,0.834 4.172,1.316c2.647,0.898 5.686,0.715 8.455,0.715c5.39,0 10.5,-0.493 15.813,-0.493c3.328,0 7.741,0.827 10.872,-0.219c2.745,-0.949 4.966,-3.458 7.249,-5.381c1.439,-1.796 3.144,-2.696 5.327,-2.964c1.042,0.18 2.189,0.274 3.129,0.274c2.062,-0.751 1.273,-3.439 1.484,-5.6c0.596,-2.865 3.27,-11.025 -0.055,-12.628c-1.211,-0.661 -3.819,0.378 -5.327,0.11c-3.327,-0.191 -5.005,-1.332 -7.577,-3.129c-4.541,-3.134 -7.692,-2.218 -13.013,-2.307c-2.189,0.291 -4.187,-0.228 -5.984,-1.372c-1.335,-1.238 -2.632,-2.509 -3.842,-3.842c-1.941,-0.849 -4.078,-0.856 -6.203,-0.547zM345.467,643.529c-1.338,-0.392 -2.228,-0.496 -1.316,0.219c-6.358,0 -12.1,-0.127 -18.172,1.372c-6.169,1.33 -9.344,1.738 -13.618,6.861c-4.465,4.738 -8.541,10.075 -11.748,15.759c-3.328,5.51 -6.462,10.988 -7.799,17.348c-1.303,7.673 0.274,10.246 7.799,12.794c6.531,2.084 9.71,5.505 14.274,10.432c2.844,2.94 6.301,6.744 10.377,7.522c6.457,1.411 16.219,0.65 21.633,-3.074c10.708,-7.117 14.419,-16.591 15.923,-28.827c1.239,-10.613 0.288,-21.927 -6.148,-30.473c-2.257,-2.938 -3.313,-7.101 -7.028,-8.51c-1.044,-0.39 -2.834,-1.036 -4.172,-1.428zM438.367,647.804c-2.572,-0.951 -6.829,0.1 -4.061,4.284c-1.53,2.167 -5.921,1.792 -8.181,2.255c-3.037,0.776 -5.73,1.415 -8.181,3.403c-5.417,4.543 -10.443,13.213 -9.884,20.424c7.988,1.699 -1.852,18.283 -0.109,23.115c1.144,3.229 5.252,3.578 8.291,4.722c5.705,2.185 8.961,6.682 13.891,9.716c18.477,11.46 34.054,-9.528 38.983,-25.092c2.286,-7.186 4.176,-13.432 1.428,-20.643c-1.044,-2.652 -1.455,-6.063 -3.348,-8.346c-1.603,-1.892 -5.678,-3.126 -7.962,-4.172c-3.784,-1.604 -7.857,-1.723 -11.474,-4.007c-1.702,-1.139 -3.398,-2.194 -5.217,-3.238c-1.408,-0.85 -2.673,-1.954 -4.172,-2.417zM642.122,649.611c-0.153,0.345 0,1.116 0.547,2.472c-0.09,2.545 -5.246,1.372 -6.972,1.372c-4.084,-0.21 -8.898,-0.323 -12.684,1.648c-3.987,2.16 -6.423,7.491 -8.127,11.474c-2.937,6.362 -6.015,15.164 -6.862,22.182c-1.796,12.336 10.63,19.54 19.93,24.763c5.321,2.941 11.36,6.7 17.624,4.613c5.877,-1.892 10.427,-5.663 16.691,-6.807c13.282,-2.382 26.185,-6.825 29.705,-21.249c2.083,-8.156 -1.312,-11.758 -7.577,-17.075c-3.402,-2.841 -6.823,-6.149 -10.323,-8.893c-5.9,-4.371 -14.707,-3.792 -19.93,-8.236c-2.084,-1.797 -3.153,-2.751 -6.093,-3.788c-2.421,-0.86 -5.477,-3.503 -5.929,-2.472zM212.769,658.787c-3.4,0.208 -12.404,4.352 0.274,8.893l0.055,0.055c-1.143,0 -2.371,0.211 -3.515,0c-2.084,-0.089 -4.061,-1.357 -6.148,-1.261c-3.882,0.415 -4.752,3.893 -5.874,7.194c-1.726,4.178 -2.984,8.668 -3.348,13.013c-0.416,4.566 -2.403,8.637 -2.307,13.178c0,4.658 -0.417,8.037 3.129,11.365c4.371,3.883 8.95,8.107 13.782,11.146c6.262,4.081 12.335,3.019 19.546,3.019c4.929,0 9.268,-0.008 14.001,-1.152c7.406,-1.703 11.21,-10.407 14.439,-16.308c3.325,-5.679 1.039,-9.677 -0.219,-15.649c-1.14,-5.415 -0.196,-17.739 -6.807,-20.094c-4.834,-1.625 -9.301,-1.789 -13.672,-4.558c-3.594,-2.184 -7.502,-2.296 -10.927,-4.284c-1.701,-1.119 -2.925,-3.588 -4.722,-4.339c-1.891,-0.751 -5.503,-0.491 -7.687,-0.219zM545.385,663.56c-1.759,-0.045 -3.647,0.598 -5.546,2.255c-9.373,2.286 -21.07,3.307 -27.892,10.982c-3.985,4.561 -6.425,11.986 -8.784,17.788c-1.927,4.831 -4.564,11.332 -5.055,16.746c-0.272,3.035 -0.742,8.7 0.219,11.639c1.432,3.421 6.333,5.342 9.662,6.478c2.841,0.846 4.925,1.52 6.916,3.678c1.044,1.238 1.779,3.937 3.019,4.887c1.89,1.21 9.222,0.36 11.31,0.164c5.783,-0.15 11.374,-3.404 16.691,-5.491c5.705,-2.477 9.792,-5.701 13.946,-10.268c6.657,-7.212 8.163,-17.71 7.799,-27.399c-0.089,-7.964 -4.681,-17.155 -10.268,-22.839c-2.349,-2.275 -6.751,-8.476 -12.024,-8.619z" /></svg>