<svg xmlns="http://www.w3.org/2000/svg" viewBox="0 0 1024 1024" width="1024" height="1024"><path d="M29.912,409.21l-1.148,1.185c0,-0.592 1.148,-1.185 1.148,-1.185zM552.276,8.1l1.148,-1.185c2.296,0.741 2.684,1.185 1.148,1.185zM855.674,155.628c0.418,0 0.82,0.296 1.491,1.037zM807.389,100.083c-1.625,-1.629 -1.521,-2.074 1.461,-0.592l1.148,1.185c0,0 -0.999,-0.296 -2.61,-0.592zM715.651,968.068c-10.155,10.072 -12.615,4.592 -23.009,14.96l-19.564,10.22l-1.148,1.185c-5.413,0 -10.006,3.407 -16.105,3.407l4.593,-2.37c-18.431,2.37 -20.862,2.37 -41.41,9.183l1.148,-2.222c-9.931,3.259 -23.665,11.85 -31.061,4.592l-6.904,2.222h-6.904c-20.713,0 -18.327,1.777 -37.966,5.777l-10.364,1.037l-11.497,2.37h-9.216l-9.201,1.037l-3.445,-3.407c-14.062,2.074 -11.497,6.369 -25.32,7.998l3.46,-2.222c-13.808,4.592 -34.685,-3.111 -48.329,-5.777l1.148,-2.222c-5.741,0 -11.527,-2.37 -17.253,-2.37h-3.46c-9.887,-6.517 -27.96,-14.812 -40.262,-14.812l-8.052,-3.407c-8.664,-4.295 -19.549,-9.183 -26.469,-15.997l-3.445,2.222l-9.216,-4.592c-1.357,-1.333 -3.236,-2.074 -4.593,-3.407l-2.311,-2.222h-1.715c-1.238,0 -2.878,-2.37 -2.878,-2.37h2.296c1.73,-1.629 -25.052,-3.703 -20.713,-2.222l-13.808,-4.592c-5.189,-1.777 -10.811,-3.259 -16.105,-4.592l-13.808,-9.035c-8.604,-8.591 -19.952,-14.22 -28.765,-22.959c0,0 -2.475,-1.333 -3.445,-2.222l-3.46,-3.407c-35.267,-35.105 -75.618,-66.358 -109.304,-102.944l4.608,2.37l-8.052,-7.998c0,-2.518 -4.608,-5.777 -4.608,-5.777c-0.164,-0.296 0,-1.185 0,-1.185c-1.566,-6.221 -4.712,-6.369 -8.052,-11.405l2.311,1.185c-16.284,-16.145 -35.669,-57.619 -35.669,-69.765c0,0 -1.148,-1.333 -1.148,-2.222l-13.808,-41.177l3.445,5.777c-6.009,-11.998 -2.803,-24.44 -6.904,-36.586v11.405c0,-9.628 -3.445,-18.959 -3.445,-28.587c0,-2.222 3.445,7.998 3.445,5.777v-21.181c0,-3.407 -9.201,-13.627 -9.201,-11.998c-11.81,-23.551 -11.467,-49.028 -19.564,-73.171v-7.998c0,-1.629 -1.148,-2.962 -1.148,-4.592v-6.814c0,-23.107 17.253,-111.386 17.253,-45.769c4.697,-18.663 1.909,-17.33 5.756,-36.586l3.46,-2.222c0,-2.814 1.014,-5.48 2.088,-7.998l0.418,-1.037c1.089,-2.666 2.088,-5.332 2.088,-8.147v-1.185l-1.148,1.185c1.372,-16.293 -0.611,-19.552 2.296,-35.401v1.185c0.7,-1.335 1.125,-2.91 1.163,-4.58v-0.012v-7.998l1.148,-2.37v-3.407c1.655,0 1.148,-1.185 1.148,-2.222l1.148,-1.185l-1.148,4.592l-1.148,6.814c6.024,0 19.549,-50.657 19.549,-61.618l1.163,1.037c3.907,-6.221 13.495,-23.699 19.549,-29.624l-1.148,2.222c2.46,-2.37 2.311,-3.999 5.756,-5.629l2.296,-3.555c0,-1.185 1.148,-3.407 1.148,-3.407l8.067,-7.998c3.072,-7.554 5.741,-23.995 5.741,-23.995c8.545,-25.477 33.373,-38.808 51.774,-57.174l3.46,-6.814l9.201,-9.183c-3.355,2.222 16.105,-30.217 16.105,-30.809l6.904,-6.814c-5.935,7.258 13.615,-13.183 20.713,-19.404l3.46,-1.185l3.445,-3.407l2.296,-1.185c6.069,-11.998 31.166,-9.183 40.277,-18.219l-6.904,2.222c15.851,-5.184 26.185,-18.663 41.425,-25.18l2.296,3.407c5.07,0 11.616,-6.814 16.105,-9.035l2.296,-1.185c2.341,-2.37 -0.865,-3.407 2.311,-3.407l3.445,-2.37l-9.201,3.555l-11.512,7.998c4.936,-3.999 1.625,-9.183 8.052,-9.183c0,0 1.446,-1.185 2.311,-1.185h2.296c0,-0.741 0.194,-1.185 0.582,-1.185h2.878c5.607,0 15.643,-2.074 20.698,-3.407l13.808,-4.592c4.414,0 8.291,-2.222 12.66,-2.222h10.349c1.223,-1.185 4.608,-0.592 4.608,-2.37h-5.756c13.51,0 40.277,-4.444 40.277,-4.444c0.85,0 2.296,-1.185 2.296,-1.185h6.904c0,0 0.268,0.889 0,1.185l-2.296,1.037l-1.148,1.185h-2.311c0.552,0 1.148,1.185 1.148,1.185c0,0 1.446,-1.185 2.311,-1.185c0,0 14.122,-13.035 23.009,-15.997l-4.608,1.185c2.997,-2.962 5.562,-3.999 9.201,-5.777l-5.741,3.407c7.202,-3.555 19.699,-10.22 27.602,-10.22l2.311,1.185h4.593c-0.537,0 -11.885,0.444 -1.148,2.222c6.024,0 4.444,1.037 11.512,3.407c16.746,0 23.665,-4.74 33.358,0h23.024c-13.704,0 13.376,0.741 14.957,1.185h-6.904c-2.774,0 4.16,4.147 6.904,4.592c5.875,-0.741 2.789,-3.407 9.767,-3.407h20.713c10.409,0 22.159,7.11 31.643,10.22c21.861,-5.48 20.966,-4.74 54.071,3.407l-3.445,2.37c6.681,0 11.482,5.629 17.253,5.629l-6.904,-4.592c11.87,2.962 26.096,13.331 36.817,19.552c-19.505,-9.776 2.714,5.629 9.216,5.629l2.296,2.37c-13.6,0 20.608,17.626 31.061,26.217l3.46,3.407l3.445,2.37c3.579,1.777 7.739,3.259 11.512,4.592l11.497,3.407c6.174,2.37 17.581,5.036 22.711,6.221c4.578,4.592 22.934,18.663 29.063,25.773c7.903,9.035 13.436,19.996 20.713,29.624l-5.756,-3.407c1.059,1.037 2.938,2.518 4.265,3.555c-0.477,-0.148 -0.984,-0.148 -1.953,-0.148l6.904,5.777c0.403,0 10.349,2.222 19.549,11.405l3.46,2.222l3.445,3.555l2.311,3.407l-2.311,-1.185c2.789,4.147 3.773,4.888 6.904,7.998l4.608,6.814c-9.633,-9.48 14.837,22.811 21.861,34.364c9.35,15.405 23.039,46.806 41.425,55.989c4.19,8.295 17.253,29.328 17.253,57.174l3.445,1.037l-3.445,7.998l1.148,9.183c6.621,3.259 4.921,3.555 8.052,9.183l-1.148,-1.185c0,3.703 20.116,34.808 9.201,23.995l4.608,6.814h-1.148c1.268,3.851 3.445,11.553 3.445,11.553l4.608,13.627l-1.148,-1.037l9.201,35.401l-10.349,51.398v2.222h1.148l2.296,6.962c3.579,0 4.638,-2.222 9.201,9.035c1.357,6.814 -1.491,13.923 0,20.589l3.46,10.368l2.296,3.407l-1.148,4.592v2.222h-1.148c-0.88,1.777 -1.148,5.777 -1.148,5.777c-5.86,-5.925 -4.131,15.849 -5.756,23.995l1.148,-2.37c-1.998,27.847 -9.066,24.44 -13.808,50.361v12.59l-2.296,2.222v4.592c0,12.294 -7.471,21.626 -10.364,33.179l-3.445,9.035l-2.296,9.183c-10.692,15.108 -19.207,29.92 -28.765,45.769l-14.957,14.812c-3.668,3.703 -7.665,6.962 -11.482,10.368c0.015,0 0.045,0 0,-0.148h-0.03c-0.582,0.592 -0.641,0.592 -1.178,1.185c-0.373,0.444 -0.746,0.741 -1.118,1.185c-14.703,9.776 -22.204,28.439 -27.617,44.584l-3.46,5.629l-3.445,6.962c-4.518,4.444 -13.078,9.628 -19.475,12.146c0.358,-0.296 0.716,-0.444 1.059,-0.741l-2.296,1.185l1.238,-0.444c-43.662,29.032 -68.043,52.138 -101.341,90.65c-0.796,0.761 -1.749,1.365 -2.806,1.759l-0.057,0.019l-2.878,0.592c0.865,0 1.894,-0.296 2.878,-0.592l2.863,-0.592l8.067,-9.183l1.148,-1.185c0.85,-1.629 3.445,-4.444 3.445,-4.444c2.326,-2.37 -1.983,6.221 -3.445,9.035l-5.756,5.777c-0.761,0.741 -1.148,1.481 -1.148,2.222h-4.608c-3.996,2.074 -12.958,4.592 -17.253,4.592l1.148,-1.185h-1.148c-2.595,0.889 -28.765,6.962 -28.765,11.553h-2.296v-1.185l-1.163,-1.185c0,0 -2.639,0.889 -3.445,0h1.148l1.148,-1.185l17.268,-5.629c-5.965,0 -17.268,4.592 -17.268,4.592l-2.296,2.222zM928.533,789.879l-0.089,0.444c-0.104,0.296 -0.179,0.444 -0.418,0.592c-0.477,0.592 -1.148,0.889 -1.775,1.185l2.282,-2.222zM926.207,792.101l-1.148,1.185l0.012,-0.015c0.348,-0.424 0.739,-0.812 1.181,-1.17zM627.387,814.615c0.984,0.889 2.013,1.777 3.057,2.666c0.477,0.296 0.954,0.741 1.461,1.037c-6.308,-2.666 -12.392,-5.629 -18.207,-9.035l-17.477,-10.072c-5.831,-3.407 -11.169,-7.406 -16.015,-12.294c-2.067,-2.057 -4.204,-4.039 -6.411,-5.946l-0.15,-0.127c-2.208,-2.032 -4.577,-4.066 -7.016,-6.019l-0.261,-0.202c-2.231,-1.752 -4.154,-3.752 -5.77,-5.985l-0.06,-0.088c-1.417,-2.139 -2.871,-4.661 -4.174,-7.27l-0.195,-0.432c-6.489,-11.697 -11.002,-25.383 -12.686,-39.923l-0.048,-0.514c-1.133,-9.628 -1.879,-19.108 -2.267,-28.439l-0.283,-2.666c-0.681,-5.42 -1.32,-9.509 -2.055,-13.565l0.235,1.567c-0.731,-3.999 -1.342,-7.998 -1.819,-11.85c0,-3.851 -0.119,-7.702 -0.373,-11.553c-0.239,-3.851 -0.358,-7.554 -0.358,-10.961c-0.313,-1.491 -0.492,-3.204 -0.492,-4.959c0,-0.914 0.049,-1.817 0.143,-2.706l-0.01,0.111c0.236,-2.375 0.37,-5.134 0.37,-7.924c0,-2.79 -0.135,-5.549 -0.397,-8.271l0.027,0.346c-0.254,-3.111 -0.134,-5.925 0.358,-8.443c0.492,-1.777 1.089,-3.703 1.819,-5.629c0.731,-2.074 1.342,-3.999 1.819,-5.925l1.461,-4.295c0.477,-1.481 0.731,-3.111 0.731,-5.036c0.969,-2.962 2.177,-5.629 3.639,-8.295c1.446,-2.666 2.669,-5.48 3.639,-8.295c0.969,-2.962 2.058,-5.629 3.281,-7.998c1.208,-2.37 2.535,-4.888 3.996,-7.258c0.969,-1.481 2.073,-2.962 3.281,-4.74c1.208,-1.629 2.311,-3.259 3.281,-4.592c1.446,-2.518 2.789,-4.74 3.996,-6.962c1.223,-2.074 2.311,-4.147 3.281,-6.073c1.461,-2.962 3.027,-5.629 4.727,-7.998c1.7,-2.369 3.519,-5.036 5.458,-7.998c0.984,-1.926 2.192,-3.999 3.653,-6.073c1.446,-2.222 2.908,-4.444 4.369,-6.962c1.939,-1.926 3.758,-3.851 5.458,-5.777c1.7,-1.926 3.519,-3.999 5.458,-6.517c1.939,-2.37 4.131,-4.74 6.546,-7.11l7.292,-7.258c2.431,-2.518 4.966,-4.74 7.635,-6.962c2.669,-2.074 5.473,-4.147 8.38,-6.073c2.431,-1.926 4.981,-3.555 7.65,-4.74c2.669,-1.185 4.966,-2.518 6.919,-3.999c1.939,-1.333 3.519,-2.814 4.727,-4.295c1.208,-1.481 2.55,-2.666 3.996,-3.555c5.831,-3.407 12.138,-5.925 18.938,-7.702c6.8,-1.629 13.585,-2.962 20.385,-3.999c18.249,-1.735 39.544,-2.755 61.067,-2.814h0.101c6.785,0 13.227,1.185 19.296,3.555c6.069,2.518 12.004,5.332 17.835,8.739l7.277,5.036l1.402,0.741c1.596,1.926 3.072,3.703 4.429,5.777c1.939,2.962 4.131,5.777 6.546,8.739c1.953,3.259 3.892,6.517 5.831,9.332c1.7,2.518 3.221,5.332 4.548,8.147c0.835,11.257 1.133,22.366 0.91,33.475c-0.239,11.85 -0.358,23.699 -0.358,35.845c0,-0.07 0,-0.152 0,-0.235c0,-5.832 0.526,-11.541 1.534,-17.084l-0.088,0.581c0.984,-4.295 1.7,-8.591 2.192,-13.035l1.461,-12.886l0.015,-0.592c0.239,1.037 0.477,2.222 0.701,3.407l1.461,7.998l0.731,5.036v-28.883c0,-1.926 0.239,-3.851 0.731,-5.777c0,-1.481 0.119,-2.962 0.358,-4.444c0.073,-0.429 0.114,-0.923 0.114,-1.427c0,-1.027 -0.173,-2.013 -0.491,-2.932l0.019,0.063l-2.923,-7.998l-0.686,-3.259c-0.492,-7.998 -1.476,-15.849 -2.953,-23.403c-0.969,-9.183 -2.431,-18.367 -4.369,-27.55c-2.629,-12.713 -4.892,-21.927 -7.399,-31.04l0.853,3.638c-0.604,-4.113 -1.369,-7.669 -2.341,-11.14l0.149,0.623c-0.969,-3.703 -1.939,-7.406 -2.908,-11.257c-0.85,-1.999 -1.721,-4.512 -2.439,-7.088l-0.111,-0.467c-0.879,-3.186 -1.749,-5.748 -2.741,-8.25l0.192,0.548c-0.568,-2.682 -1.448,-5.059 -2.622,-7.258l0.072,0.148c-1.06,-2.085 -1.938,-4.508 -2.51,-7.047l-0.04,-0.211c-3.642,-9.754 -6.829,-17.181 -10.284,-24.458l0.83,1.944c-3.4,-7.11 -7.038,-14.368 -10.93,-21.626c-2.431,-4.295 -5.219,-8.443 -8.366,-12.294c-3.161,-3.851 -6.442,-7.702 -9.827,-11.553c-1.461,-1.481 -2.923,-3.111 -4.369,-4.74c-1.461,-1.629 -2.923,-3.259 -4.369,-4.74c-2.431,-2.37 -5.1,-4.444 -8.023,-6.073c-2.908,-1.777 -5.816,-3.555 -8.723,-5.48c-3.892,-1.926 -7.888,-3.999 -12.019,-6.073c-4.287,-2.291 -7.988,-4.846 -11.362,-7.764l0.074,0.062c-3.4,-2.37 -6.681,-4.74 -9.827,-7.11c-3.161,-2.518 -6.427,-4.444 -9.827,-5.925c-5.338,-2.37 -10.93,-4.444 -16.746,-6.073c-5.831,-1.629 -11.661,-3.703 -17.477,-6.073c-1.939,-1.037 -4.011,-2.074 -6.188,-2.962c-2.192,-1.037 -4.25,-1.926 -6.188,-2.814c-2.431,-0.592 -4.742,-1.037 -6.919,-1.481c-1.702,-0.474 -4.036,-0.989 -6.405,-1.406l-0.514,-0.075c-5.873,-0.519 -11.21,-1.41 -16.4,-2.671l0.743,0.153c-4.447,-1.108 -9.784,-1.999 -15.238,-2.488l-0.42,-0.03c-13.585,-1.926 -27.05,-3.703 -40.411,-5.48c-13.346,-1.629 -26.812,-3.703 -40.411,-6.073c-1.841,-0.467 -4.425,-0.984 -7.042,-1.403l-0.593,-0.078c-2.669,-0.444 -5.219,-0.741 -7.65,-0.741c-3.157,-0.453 -6.817,-0.722 -10.536,-0.741h-0.021c-3.639,0 -7.158,0.296 -10.558,0.741h-58.246c-7.292,0 -14.808,-0.148 -22.577,-0.444c-7.769,-0.148 -15.285,0 -22.577,0.444c-5.338,0.444 -10.423,1.185 -15.285,2.222c-4.846,0.889 -9.946,1.629 -15.285,2.074c-4.369,1.037 -8.738,1.777 -13.108,2.518c-5.161,0.945 -9.567,2.074 -13.852,3.468l0.744,-0.21c-2.908,1.481 -5.95,3.259 -9.111,5.184c-3.146,1.926 -6.188,3.703 -9.096,5.777c-7.769,5.184 -15.404,10.961 -22.934,17.33c-7.531,6.221 -14.927,12.442 -22.204,18.811l-17.477,17.33c-3.4,3.407 -6.308,6.814 -8.738,10.517c-2.431,3.555 -4.861,7.554 -7.277,11.85c-3.892,6.814 -6.8,14.071 -8.738,21.774c-1.938,7.703 -4.369,15.108 -7.292,22.366c-0.969,2.37 -2.058,4.888 -3.266,7.258c-1.223,2.37 -2.311,4.888 -3.281,7.258l-1.461,6.517c-0.477,1.333 -1.089,2.814 -1.819,4.295c-0.73,1.481 -1.327,3.111 -1.819,5.036c-1.85,10.428 -2.908,22.434 -2.908,34.686c0,0.043 0,0.086 0,0.129v-0.007v12.59c0,4.147 0.239,8.147 0.731,11.998c0.969,3.851 1.446,7.85 1.446,11.85c0,4.147 0.254,8.147 0.731,11.998c0.492,3.851 1.089,7.85 1.819,11.85c0.731,4.147 1.342,8.147 1.819,11.998c0.492,3.407 0.731,6.665 0.731,9.776c0,3.111 0.731,6.073 2.192,9.035c1.446,2.814 3.027,5.925 4.727,9.035c1.7,3.11 3.281,6.369 4.727,9.776l3.653,6.517l0.716,-17.33v-5.48c0,-1.629 -0.239,-3.555 -0.716,-5.48c-1.953,-7.258 -3.281,-14.516 -4.011,-22.07c-0.419,-4.082 -0.657,-8.82 -0.657,-13.615c0,-3.235 0.109,-6.446 0.323,-9.627l-0.023,0.431c0,-0.036 0,-0.078 0,-0.12c0,-8.889 1.06,-17.532 3.061,-25.811l-0.153,0.751c1.461,-3.407 2.789,-6.665 3.996,-9.776c1.223,-3.111 2.55,-6.369 4.011,-9.776c2.908,-6.221 6.069,-12.59 9.469,-18.811c3.4,-6.221 7.038,-12.59 10.916,-18.811c5.338,-8.739 11.288,-17.182 17.85,-25.625c6.546,-8.443 13.704,-16.145 21.473,-22.811c4.369,-3.851 9.096,-7.554 14.196,-10.813c5.1,-3.407 10.08,-6.814 14.927,-10.22c5.338,-3.851 10.796,-7.406 16.388,-10.517c5.577,-3.111 11.527,-6.073 17.835,-9.035c6.87,-3.543 16.694,-8.018 26.69,-12.167l3.163,-1.164c10.2,-4.147 20.877,-7.11 32.031,-9.035c5.831,-1.037 11.661,-1.777 17.477,-2.518c5.831,-0.741 11.9,-1.333 18.207,-1.777c5.338,0 10.916,-0.444 16.746,-1.185c5.83,-0.741 11.408,-1.037 16.746,-1.037h89.919c8.008,0 15.896,0.444 23.665,1.481c6.308,0.444 12.258,1.333 17.85,2.814c5.577,1.481 11.273,2.962 17.104,4.444c2.431,0.444 4.981,0.741 7.65,1.037c2.669,0.148 5.219,0.592 7.635,1.037c2.923,1.037 5.95,1.926 9.111,2.962c3.146,0.889 6.188,1.926 9.096,2.814c5.831,2.518 11.765,4.592 17.835,6.517c6.07,1.925 12.019,4.444 17.85,7.258c6.785,3.851 13.346,7.998 19.654,12.294c6.308,4.296 12.869,8.739 19.654,13.035c4.369,2.37 8.738,4.888 13.108,7.554c4.37,2.666 8.261,5.925 11.661,9.776c3.385,3.407 6.785,6.962 10.185,10.517c3.4,3.555 6.069,7.554 8.008,11.85c6.8,11.109 11.78,22.959 14.927,35.549c3.161,12.442 6.442,24.736 9.827,36.882c1.953,6.221 4.131,12.442 6.561,18.811c0.775,1.926 1.521,3.999 2.252,5.925c-0.843,-1.279 -1.707,-2.391 -2.648,-3.433l0.023,0.026c-2.56,-2.991 -4.653,-6.476 -6.107,-10.274l-0.082,-0.243c-1.016,-2.527 -2.112,-4.671 -3.373,-6.703l0.108,0.186c-1.448,-2.277 -2.769,-4.16 -4.164,-5.985l0.153,0.209c-1.939,-2.37 -3.758,-4.888 -5.458,-7.258c-1.984,-2.685 -4.013,-5.053 -6.199,-7.269l0.011,0.011c-2.379,-2.35 -4.537,-4.917 -6.443,-7.669l-0.119,-0.181c-1.939,-2.962 -4.116,-5.777 -6.546,-8.739c-3.275,-3.265 -6.842,-6.235 -10.662,-8.87l-0.253,-0.165c-3.892,-2.666 -7.769,-5.48 -11.661,-8.295c-3.35,-2.331 -7.205,-4.288 -11.322,-5.682l-0.324,-0.095c-4.369,-1.481 -8.5,-2.962 -12.377,-4.444c-5.338,-1.777 -10.677,-3.703 -16.015,-5.332c-5.338,-1.629 -10.93,-2.962 -16.746,-3.999c-2.337,-0.865 -5.053,-1.493 -7.873,-1.767l-0.135,-0.011c-3.363,-0.288 -6.352,-0.708 -9.288,-1.273l0.549,0.088c-1.461,-0.444 -2.923,-0.741 -4.369,-1.037c-1.518,-0.177 -3.289,-0.285 -5.083,-0.296h-0.017c-5.831,-0.444 -11.9,-1.333 -18.207,-2.518c-5.424,-1.17 -11.905,-2.066 -18.513,-2.497l-0.41,-0.021c-11.661,-1.037 -23.307,-1.333 -34.953,-0.741c-11.646,0.444 -23.307,1.481 -34.953,2.814c-7.769,1.037 -15.404,1.777 -22.934,2.518c-7.516,0.741 -15.165,1.629 -22.934,2.518c-3.877,0.592 -7.65,1.185 -11.288,1.926c-3.638,0.741 -7.396,1.333 -11.288,1.777c-5.816,0.889 -11.765,2.37 -17.835,4.295c-6.07,1.925 -11.765,3.851 -17.104,5.777c-4.861,1.926 -9.588,3.851 -14.211,5.777c-4.009,1.738 -8.753,3.268 -13.668,4.346l-0.529,0.097c-3.877,1.333 -7.888,2.962 -12.004,4.592c-4.131,1.777 -8.142,3.259 -12.019,4.74c-5.831,1.926 -11.527,4.295 -17.119,7.258c-5.577,2.814 -11.035,5.777 -16.373,8.591c-3.892,1.926 -8.261,3.999 -13.108,5.925c-4.861,1.926 -8.977,4.444 -12.377,7.85c-3.4,3.406 -6.8,6.665 -10.2,9.776c-3.4,3.111 -6.308,6.665 -8.738,10.517c-2.416,3.851 -4.727,7.85 -6.919,11.998c-2.177,3.999 -4.488,7.998 -6.904,11.85c-2.431,4.295 -4.503,8.739 -6.188,13.035l-5.473,13.775c-0.969,1.926 -1.939,3.999 -2.908,6.517c-0.969,2.37 -1.7,4.74 -2.177,7.258c-0.442,1.599 -0.828,3.559 -1.081,5.559l-0.022,0.217c-0.239,1.926 -0.596,3.851 -1.089,5.777c-1.461,4.295 -2.431,8.443 -2.908,12.59c-0.602,4.948 -1.372,9.227 -2.357,13.423l0.165,-0.833c-0.477,3.407 -1.208,7.11 -2.177,10.961c-0.969,3.851 -1.7,7.406 -2.192,10.813c-0.477,2.962 -0.85,5.48 -1.089,7.998c-0.239,2.37 -0.611,4.74 -1.089,7.258c-1.939,10.961 -3.519,21.922 -4.742,32.438c-1.208,10.665 -1.566,21.329 -1.089,31.846c0,5.777 1.223,11.405 3.639,17.034c2.431,5.48 4.369,10.961 5.831,16.293c0.969,2.37 1.819,4.888 2.55,7.554c0.731,2.666 1.581,5.184 2.55,7.554c0.477,1.481 1.208,3.111 2.177,4.74c0.969,1.629 1.939,3.555 2.923,5.48c1.446,3.259 3.266,6.221 5.458,8.591c2.177,2.37 4.727,4.888 7.635,7.258c1.461,1.481 2.803,3.111 4.011,5.036c1.208,1.925 2.789,3.703 4.727,5.036c1.461,1.037 3.042,1.926 4.742,2.962c1.7,0.889 3.266,2.222 4.727,3.555c1.939,1.481 4.011,3.111 6.188,4.74c2.192,1.629 4.488,3.259 6.919,4.74l5.458,5.48c1.7,1.629 3.519,3.111 5.458,4.592c1.953,1.926 4.131,3.703 6.561,5.036l7.277,4.444c3.4,1.333 6.919,2.666 10.558,3.851c3.639,1.333 7.158,2.814 10.558,4.74l-21.846,-21.626c-7.754,-9.183 -14.435,-19.256 -20.012,-30.365c-5.592,-11.109 -9.842,-22.662 -12.75,-34.808c-2.68,-9.749 -4.861,-21.433 -6.106,-33.392l-0.082,-0.972c-1.208,-11.702 -1.089,-23.403 0.358,-34.956c0.492,-3.851 1.342,-7.85 2.55,-11.998c1.223,-4.147 2.311,-7.998 3.281,-11.998c0.969,-5.777 2.311,-11.553 4.011,-17.33c1.7,-5.777 3.758,-11.553 6.188,-17.33c3.4,-7.702 6.919,-15.553 10.558,-23.551c3.639,-7.85 7.396,-15.701 11.288,-23.403c3.877,-6.814 8.485,-13.479 13.823,-19.996c5.338,-6.369 10.677,-12.886 16.03,-19.108c5.118,-5.984 10.852,-11.205 17.174,-15.657l0.287,-0.192c3.892,-2.518 8.008,-4.74 12.377,-6.962c4.369,-2.074 8.5,-4.444 12.392,-6.814c2.908,-1.926 5.696,-3.703 8.366,-5.48c2.669,-1.629 5.458,-3.259 8.38,-4.592c5.338,-2.518 10.916,-4.74 16.746,-6.962c5.816,-2.222 11.646,-3.999 17.477,-5.332c4.846,-1.481 9.454,-2.962 13.823,-4.444c4.369,-1.482 8.738,-2.666 13.108,-3.555c4.369,-0.444 8.738,-0.889 13.108,-1.185c4.369,-0.148 8.738,-0.592 13.108,-1.037c6.8,0 13.465,-0.444 20.027,-1.481c6.546,-0.889 12.988,-1.333 19.296,-1.333c6.308,0 12.735,-0.148 19.296,-0.444c6.546,-0.148 12.973,-0.148 19.296,0.444c3.877,0 7.754,0.296 11.646,1.037c3.877,0.741 8.008,1.333 12.377,1.777c3.4,1.037 6.919,1.777 10.558,2.222c3.639,0.445 7.158,1.185 10.558,2.074c7.277,1.481 14.554,3.111 21.846,4.74c7.277,1.777 14.315,3.703 21.115,6.221c7.769,2.37 15.285,4.592 22.562,6.814c7.292,2.222 14.33,4.888 21.115,8.295c2.177,1.037 4.22,2.222 6.114,3.259c-4.31,-0.889 -8.649,-1.481 -13.018,-2.074c-8.5,-1.333 -16.88,-2.666 -25.127,-3.999c-4.369,-0.592 -8.5,-1.185 -12.377,-1.926c-4.636,-0.744 -8.566,-1.62 -12.41,-2.702l0.764,0.184c-3.307,-0.379 -7.139,-0.594 -11.023,-0.594c-0.224,0 -0.449,0.001 -0.673,0.002h0.034h-10.916c-9.216,0 -17.954,0.741 -26.215,2.518c-8.246,1.629 -16.507,4.444 -24.754,8.295c-2.908,1.481 -5.696,2.666 -8.366,3.999c-2.669,1.185 -5.473,2.518 -8.38,3.851c-2.908,1.926 -6.188,3.851 -9.827,5.48c-3.639,1.629 -6.919,3.999 -9.827,6.814l-6.561,6.517l-8.008,5.184c-2.431,2.37 -4.981,4.74 -7.65,7.11c-2.669,2.518 -4.966,5.184 -6.904,7.998c-2.431,3.851 -5.1,7.406 -8.023,10.813c-2.908,3.407 -5.338,7.11 -7.277,10.961l-4.727,9.332c-1.7,3.407 -3.281,6.814 -4.742,10.072c-1.939,4.444 -3.877,8.887 -5.816,13.479c-1.939,4.592 -3.892,9.035 -5.831,13.331c-1.939,3.407 -3.758,6.814 -5.458,10.072c-1.7,3.407 -3.281,7.11 -4.727,10.961c-0.984,2.37 -1.834,4.74 -2.55,7.258c-0.731,2.37 -1.581,4.74 -2.55,7.11c-1.461,2.962 -2.431,5.777 -2.923,8.739l-1.446,8.739c-0.492,4.295 -1.089,8.443 -1.819,12.146c-0.731,3.999 -1.103,7.998 -1.103,12.294c-0.477,5.332 -0.716,10.813 -0.716,16.293v38.067c0,3.407 0.239,6.517 0.716,9.332c0.492,2.962 0.984,6.073 1.461,9.48c0.969,4.74 1.939,9.776 2.908,14.812c0.984,5.036 2.192,10.22 3.653,15.553c1.446,5.332 3.385,10.665 5.816,16.293c2.431,5.48 4.861,10.961 7.277,16.293c2.431,6.221 5.1,11.998 8.023,17.33c2.908,5.184 6.546,10.517 10.916,15.849c4.369,4.888 9.216,9.332 14.569,13.331c5.338,4.147 10.677,7.85 16.015,11.257c5.338,3.851 10.796,7.554 16.373,11.257c5.592,3.555 11.288,6.665 17.119,9.035l5.816,2.814c1.953,1.037 3.892,1.777 5.831,2.222l10.2,1.481c3.4,0.444 6.546,0.741 9.454,0.741c10.2,0.444 19.788,0.592 28.765,0.296c4.384,-0.148 8.038,-0.444 10.975,-0.889c1.357,0.444 2.923,0.741 4.682,0.889c1.939,0.296 3.877,0.444 5.831,0.444v-1.185l0.03,-0.592c2.267,0.741 4.429,1.333 6.516,1.777c3.4,0.444 6.8,1.037 10.2,1.777c3.4,0.74 6.785,1.037 10.185,1.037c4.369,0 8.619,-0.148 12.75,-0.296c4.116,-0.296 8.127,-1.185 12.004,-2.518l11.661,-2.962c0.477,0 0.85,-0.296 1.089,-1.037c0.239,-0.741 -0.119,-3.111 -1.089,-6.962c-4.369,1.926 -8.858,2.962 -13.48,2.962c-4.608,0 -9.096,-0.296 -13.465,-0.741c-8.246,-1.481 -16.254,-3.555 -24.023,-6.517c-8.758,-3.344 -16.193,-6.978 -23.245,-11.182l0.668,0.369c-4.313,-2.345 -8.024,-5.101 -11.295,-8.301l0.006,0.006c-3.146,-3.259 -6.427,-6.665 -9.827,-10.517c-1.939,-2.37 -4.011,-4.888 -6.188,-7.258c-2.132,-2.303 -3.954,-4.937 -5.371,-7.804l-0.087,-0.195c-1.663,-3.198 -3.355,-5.912 -5.232,-8.485l0.132,0.19c-1.798,-2.4 -3.493,-5.116 -4.951,-7.973l-0.149,-0.322c-1.322,-2.987 -2.567,-6.589 -3.527,-10.304l-0.112,-0.509c-0.607,-2.18 -0.955,-4.682 -0.955,-7.266c0,-1.25 0.082,-2.482 0.24,-3.689l-0.015,0.142c-0.001,-0.126 -0.001,-0.276 -0.001,-0.425c0,-5.248 0.532,-10.372 1.547,-15.322l-0.084,0.491c0.477,-3.407 0.969,-6.814 1.461,-10.517c0.477,-3.555 1.446,-7.11 2.908,-10.517c1.446,-2.814 3.027,-5.629 4.727,-8.295c1.7,-2.666 3.042,-5.332 4.011,-8.295c1.939,-2.814 3.639,-5.48 5.1,-7.998c1.446,-2.37 3.385,-4.74 5.816,-7.11c2.431,-2.518 5.1,-4.592 8.008,-6.517c2.923,-2.074 6.069,-3.999 9.469,-5.777c3.4,-1.481 6.919,-2.962 10.558,-4.444c3.639,-1.482 7.396,-2.37 11.288,-2.814c6.8,-1.037 13.346,-0.592 19.654,1.037c6.308,1.629 12.377,3.703 18.207,6.221c6.8,1.777 13.108,4.592 18.923,8.295c5.831,3.555 11.9,6.814 18.207,9.776c3.4,1.926 6.681,4.147 9.827,6.814c3.161,2.666 5.711,5.925 7.65,9.776c1.461,3.407 2.669,7.258 3.639,11.553c0.97,4.295 1.7,8.443 2.192,12.294c0,3.851 -0.119,7.554 -0.373,11.257c-0.239,3.555 -0.85,7.258 -1.819,11.109l-2.908,8.739l-2.908,5.777c-0.984,1.926 -2.192,3.555 -3.653,5.036c-5.816,5.777 -12.377,10.22 -19.654,13.035c-7.277,2.962 -15.046,4.295 -23.292,4.295c-1.918,-0.358 -4.532,-0.724 -7.175,-0.997l-0.475,-0.04c-2.669,-0.296 -5.219,-0.592 -7.65,-1.037c-3.768,-1.322 -6.772,-2.572 -9.697,-3.96l0.601,0.257c-3.965,-1.694 -6.959,-3.132 -9.892,-4.668l0.781,0.373c-3.877,-1.926 -7.396,-4.147 -10.558,-6.814c-3.146,-2.666 -5.696,-5.925 -7.635,-9.776c-1.461,-2.962 -2.669,-5.629 -3.639,-7.998c-0.948,-2.3 -1.711,-4.99 -2.163,-7.784l-0.029,-0.214c-0.584,-2.325 -1.207,-4.251 -1.938,-6.124l0.119,0.347c-0.682,-1.713 -1.081,-3.698 -1.089,-5.774v-0.003c0.477,-4.74 1.581,-9.183 3.281,-13.331c1.7,-4.148 3.758,-8.295 6.188,-12.738l-2.923,2.222c-1.939,1.481 -3.758,3.111 -5.458,5.036c-1.7,1.925 -3.281,3.851 -4.727,5.777l-3.639,3.703c-0.984,0.889 -1.953,2.37 -2.923,4.295c-0.71,1.321 -1.565,3.123 -2.352,4.961l-0.198,0.519c-0.716,1.629 -1.089,3.703 -1.089,6.073c0.492,2.37 1.089,5.036 1.819,7.998c0.731,2.814 1.819,5.48 3.281,7.998c1.461,2.814 3.161,5.48 5.1,7.85l5.816,7.258c1.953,2.962 3.892,5.629 5.831,7.998c1.939,2.369 4.131,4.74 6.546,7.258c1.953,0.889 3.653,2.074 5.1,3.555l4.369,4.295l8.738,4.444l8.738,5.777c1.733,1.345 3.817,2.329 6.092,2.798l0.097,0.017c2.192,0.592 4.488,1.037 6.919,1.481c1.939,0.444 4.011,0.741 6.188,0.741h6.919c2.908,0 5.458,-0.296 7.65,-0.741c2.177,-0.444 4.727,-1.185 7.635,-2.222c7.769,-4.295 14.808,-9.776 21.115,-16.293c6.308,-6.369 12.138,-13.331 17.477,-20.589c0.969,-1.926 2.073,-3.999 3.281,-6.073c1.208,-2.222 2.311,-4.444 3.281,-6.962c1.939,-3.259 2.789,-6.665 2.55,-10.072c-0.237,-2.987 -0.373,-6.467 -0.373,-9.978c0,-0.033 0,-0.066 0,-0.099v0.005l-1.461,-9.035c-0.477,-3.111 -0.969,-6.221 -1.446,-9.035l-2.923,-7.258l-2.908,-5.777l-2.177,-7.258c-1.15,-2.774 -2.496,-5.163 -4.086,-7.366l0.074,0.108c-1.648,-2.296 -3.006,-4.948 -3.938,-7.792l-0.059,-0.207c-3.526,-6.837 -6.913,-12.506 -10.6,-17.958l0.4,0.628c-0.889,-1.394 -1.98,-2.572 -3.248,-3.531l-0.033,-0.024c-1.208,-1.037 -2.55,-1.926 -3.996,-2.962c-2.693,-2.224 -5.833,-4.032 -9.252,-5.264l-0.218,-0.069c-3.4,-1.333 -6.8,-2.518 -10.2,-3.999c-3.877,-1.926 -7.888,-3.999 -12.004,-6.221c-3.575,-1.914 -7.791,-3.719 -12.171,-5.167l-0.579,-0.166c-1.446,0 -2.908,-0.148 -4.369,-0.444c-1.647,-0.232 -3.121,-0.595 -4.534,-1.087l0.165,0.05c-2.431,0 -4.846,-0.444 -7.277,-1.037c-2.431,-0.741 -4.861,-1.333 -7.277,-1.926c-1.621,-0.2 -3.498,-0.313 -5.401,-0.313c-6.186,0 -12.09,1.203 -17.486,3.387l0.31,-0.111c-7.769,2.814 -14.569,6.517 -20.385,10.813c-1.939,1.481 -3.639,2.962 -5.1,4.295c-1.461,1.481 -3.161,2.962 -5.1,4.444c-1.939,1.926 -3.996,3.555 -6.188,5.036c-2.177,1.481 -4.25,3.407 -6.188,5.777c-1.939,1.926 -3.877,3.999 -5.816,6.221c-1.953,2.074 -3.4,4.444 -4.369,6.814c-3.4,5.332 -6.561,11.109 -9.469,17.33c-2.923,6.221 -4.861,12.294 -5.831,18.071c-0.477,3.407 -1.089,6.814 -1.819,10.072c-0.731,3.407 -1.581,6.517 -2.55,9.48c-0.477,1.926 -1.089,3.703 -1.819,5.48c-0.688,1.526 -1.089,3.307 -1.089,5.181c0,0.053 0,0.106 0.001,0.159v-0.008l0.731,5.777v5.036l0.731,7.998l1.446,4.295c0.492,2.518 0.85,5.036 1.089,7.702c0.254,2.666 0.85,5.184 1.819,7.554c1.953,6.221 4.742,12.294 8.38,18.071c3.638,5.777 8.38,10.665 14.196,14.516c3.892,2.814 8.008,5.777 12.377,8.591c4.369,2.962 8.738,5.629 13.108,7.998c3.4,1.481 6.681,2.962 9.827,4.74c1.655,0.889 3.266,1.629 4.846,2.518h-0.104l-13.108,-1.481l-2.818,-0.444l-0.82,-0.296c-3.285,-0.548 -6.221,-1.424 -8.987,-2.613l0.249,0.095c-3.674,-1.491 -6.548,-2.833 -9.352,-4.29l0.614,0.29l-3.057,-1.926zM541.167,691.972c0.477,3.851 1.103,7.702 1.894,11.405c0.984,4.592 2.192,9.332 3.653,14.071c2.908,7.258 6.054,14.664 9.454,22.07c3.4,7.554 7.292,14.368 11.661,20.589c2.908,4.444 6.054,8.591 9.454,12.738c3.4,3.999 6.8,7.998 10.2,11.85c2.908,2.962 5.696,5.925 8.366,8.739c2.67,2.814 5.711,5.332 9.111,7.258c2.908,1.926 5.816,3.555 8.738,5.036c2.908,1.481 5.577,3.111 8.008,5.036l5.681,3.851c-1.737,-1.723 -3.359,-3.559 -4.854,-5.497l-0.097,-0.131c-2.569,-3.318 -5.192,-6.266 -8,-9.028l-0.007,-0.007c-2.15,-2.644 -4.295,-5.01 -6.56,-7.257l-0.001,-0.001c-2.416,-2.369 -4.574,-4.988 -6.435,-7.818l-0.112,-0.181c-2.313,-3.123 -4.495,-6.666 -6.368,-10.388l-0.194,-0.425l-5.816,-11.553c-1.461,-2.37 -2.923,-4.888 -4.369,-7.554c-1.143,-2.007 -2.367,-4.49 -3.459,-7.042l-0.195,-0.512c-1.939,-4.888 -3.758,-9.776 -5.458,-14.96c-1.54,-4.305 -2.692,-9.325 -3.241,-14.524l-0.025,-0.288c-0.306,-1.953 -0.481,-4.206 -0.481,-6.499c0,-4.604 0.705,-9.044 2.012,-13.22l-0.085,0.315c0.492,-4.444 1.342,-8.739 2.55,-13.035c1.208,-4.444 2.311,-8.739 3.281,-13.035c0.477,-2.962 1.089,-5.777 1.819,-8.739c0.731,-2.814 1.327,-5.48 1.819,-7.998c0.969,-2.37 1.819,-4.592 2.55,-6.814c0.731,-2.222 1.581,-4.295 2.55,-6.073l2.177,-6.517c1.461,-2.962 2.923,-5.777 4.369,-8.443c1.461,-2.666 3.4,-5.184 5.831,-7.554l6.546,-4.295c1.953,-1.037 3.773,-2.222 5.473,-3.703c1.685,-1.333 3.519,-2.518 5.458,-3.555c1.446,-0.889 2.908,-2.074 4.369,-3.259c1.446,-1.185 2.908,-2.222 4.369,-3.259l8.008,-4.295c2.431,-1.926 5.219,-3.703 8.366,-5.48c3.161,-1.629 6.442,-2.518 9.827,-2.518c6.323,-0.444 12.63,-0.444 18.938,0l18.938,1.481c1.939,0.444 3.877,0.741 5.816,1.037c1.939,0.296 4.131,0.444 6.561,0.444c1.446,0.444 2.669,0.741 3.639,1.037c0.97,0.296 2.177,0.592 3.639,1.037c1.939,1.037 4.131,1.777 6.546,2.222c2.431,0.444 4.623,1.185 6.561,2.074l-3.639,-7.85c-0.969,-1.481 -2.073,-2.962 -3.281,-4.295c-1.208,-1.481 -2.55,-2.666 -4.011,-3.703c-1.939,-0.889 -3.758,-1.777 -5.458,-2.518c-1.7,-0.741 -3.281,-1.629 -4.727,-2.518l-7.292,-3.555l-7.277,-2.962c-2.033,-0.844 -4.465,-1.608 -6.975,-2.166l-0.302,-0.056c-2.206,-0.714 -4.744,-1.125 -7.38,-1.125c-0.736,0 -1.464,0.032 -2.183,0.095l0.093,-0.007c-3.4,0.296 -6.546,0.296 -9.469,0.296c-4.369,0 -8.738,0.148 -13.108,0.444c-4.354,0.296 -8.723,0.592 -13.093,1.037c-4.37,0.445 -8.619,1.333 -12.75,2.518c-4.131,1.185 -8.366,2.518 -12.735,3.999c-4.861,1.481 -9.35,3.111 -13.48,4.74c-4.116,1.629 -8.127,3.999 -12.004,6.814c-4.369,3.407 -8.261,7.11 -11.661,10.813c-3.385,3.999 -6.546,7.998 -9.454,12.294c-3.892,4.888 -7.292,9.776 -10.2,14.96c-2.908,5.036 -5.1,10.665 -6.546,16.886c-1.461,5.332 -2.669,10.961 -3.653,17.034c-0.969,6.073 -1.7,11.998 -2.177,17.774c0,4.592 0.089,9.332 0.283,14.22z" /></svg>