<svg xmlns="http://www.w3.org/2000/svg" viewBox="0 0 953 960" width="953" height="960"><path d="M560.484,888.506c0.006,0.009 0.01,0.016 0.02,0.026c-0.098,0.041 -0.103,0.025 -0.02,-0.026z" /> <path d="M622.858,860.75c0.097,-0.09 0.139,-0.109 0.157,-0.109c-0.063,0.047 -0.09,0.059 -0.157,0.109z" /> <path d="M758.384,721.886c-1.103,0.855 -1.849,1.448 -2.423,1.837c0.804,-0.62 1.608,-1.245 2.423,-1.837z" /> <path d="M427.768,0.521v0.012h0.061c1.137,0.143 2.287,0.226 3.468,0.353l2.999,0.175c1.41,0.03 2.832,0.03 4.291,0c-3.257,0.389 -9.799,1.058 -1.708,2.646c13.4,0.166 3.056,0.941 10.464,2.823c13.267,0.833 2.512,-2.668 21.989,0.117c2.1,0.212 0.21,-0.888 -1.882,-1.529c4.495,0.678 8.734,1.097 11.818,1.29c6.551,0.084 12.955,-0.057 21.343,0.88c-5.689,-0.516 -10,-1.076 -2.294,-1.765c-3.34,1.286 10.573,1.41 15.58,2.353l1.351,-0.822c4.021,0.946 -0.229,1.247 -3.528,1.47c0.09,-0.308 -1.087,-0.559 -3.526,-0.529c-6.422,0.555 -4.107,3.642 5.998,4.114c10.871,-0.639 9.117,-2.731 7.23,-3.584c1.371,0.094 2.569,0.175 3.641,0.175c1.238,0 2.324,-0.058 3.352,-0.058c1.666,0.256 2.29,0.262 3.233,0.292c0.814,0.03 1.685,0.03 2.411,0c1.504,-0.065 2.774,-0.169 4.233,-0.234c2.869,-0.088 6.104,0.078 11.583,1.706c3.127,0.554 12.848,5.768 22.696,7.997c5.433,-0.813 -12.107,-3.748 -6.115,-4.172c3.898,1.878 7.946,3.275 12.229,3.879c4.366,0.556 8.838,0.751 13.463,0.88c9.331,0.302 19.27,0.392 29.928,3.174l-2.999,1.882c2.439,0.427 4.838,0.717 7.405,1.117c1.501,0.771 3.063,1.583 4.647,2.353c1.374,0.648 2.795,1.3 4.291,1.941l-6.349,-4.527c5.093,1.971 15.467,7.625 11.23,7.466c11.128,3.514 12.86,5.57 22.282,10.878c-10.188,-5.225 -0.05,-0.401 -8.056,-3.057c4.409,2.742 7.113,4.253 9.465,5.41c1.155,0.514 2.252,1.002 3.409,1.47c1.244,0.472 2.515,0.948 4.055,1.589c0.598,0.43 1.488,1.149 2.472,1.882c-1.54,-0.302 0.97,3.471 3.409,5.527c6.805,3.98 16.663,12.882 25.396,19.342l-0.41,0.471l3.528,2.823l2.997,2.586c3.508,1.111 6.929,2.266 10.525,3.468l11.288,3.762c7.536,2.439 15.059,4.674 22.637,5.998c0.383,0.065 0.752,0.204 1.115,0.234l-1.589,-0.588c-2.228,-1.684 -0.552,-1.626 5.998,0c1.883,2.357 4.094,5.209 6.231,7.821c1.8,2.229 3.473,4.279 4.586,5.351c0.298,1.324 -0.062,2.297 1.825,4.822c1.708,-1.028 5.095,5.029 7.405,6.525c3.209,5.437 -2.378,0.848 4.172,9.407c2.649,3.257 3.755,2.96 4.115,2.06c0.168,1.065 1.434,3.578 2.292,5.291c1.195,1.626 3.811,4.322 5.82,6.29c-1.799,-0.939 -3.619,-3.521 -4.647,-4.291c-1.246,0.302 1.791,2.626 0.763,3.526c3.639,3.555 2.803,0.03 6.997,4.822l-5.412,-2.823c1.588,2.011 4.442,3.638 5.47,4.408c-1.587,-1.131 -2.52,-1.28 -3.116,-1.057l5.468,5.115c1.784,-0.297 -0.845,-5.084 0.352,-5.644c4.197,4.624 8.414,8.26 12.522,11.641c2.055,1.63 4.129,3.282 6.056,4.822l2.882,2.353l3.291,2.763l2.411,3.233l-2.704,-0.703c3.172,4.154 4.892,6.062 6.644,7.171l4.527,6.761c-3.166,-3.494 -4.587,-4.432 -5.998,-3.879c5.31,6.85 11.58,16.856 14.875,17.284l-0.469,-0.058c5.524,10.105 19.206,29.82 18.049,29.691c7.834,9.504 15.779,23.067 18.051,21.87c4.838,5.523 8.737,17.186 14.346,19.58c3.894,7.962 -0.207,0.716 -3.291,-0.352c3.94,8.006 12.514,12.616 11.405,17.111c7.189,7.837 -0.895,-2.454 2.53,-0.527c-0.428,0.853 0.222,2.407 1.29,4.289c0.129,6.676 2.645,17.303 2.177,24.752c1.883,4.064 0.296,-4.402 2.647,2.704c-0.915,-0.602 -0.605,3.307 -0.412,5.234l2.294,1.648l-2.647,7.113l1.174,8.35l0.117,0.352c2.228,1.586 0.317,-4.425 6.997,8.29l-0.705,-0.941c0.258,5.605 7.3,11.717 11.583,24.988c-1.588,-4.492 -1.725,-1.36 -2.882,-2.469l3.998,6.642c-0.403,-0.591 -0.717,-0.814 -0.588,0c0.9,4.283 1.874,4.977 3.116,7.114c0.551,1.503 1.011,3.031 1.234,6.115c-0.689,-2.054 -1.341,-2.923 -1.765,-3.116l2.823,10.464l1.174,2.231l-0.763,-0.644l8.821,32.926l-9.994,49.093l0.352,1.115c0.212,0.064 0.51,0.087 0.703,0.117l2.353,6.7c0.99,-0.56 0.298,-5.431 -0.471,-8.467c-0.084,-2.999 6.277,10.174 8.763,17.58c5.221,20.289 -2.53,5.165 0.469,19.166l2.413,6.173l1.115,3.057v-0.175l1.41,3.937l-0.644,3.641l-0.352,2.706h-1.174c-1.367,2.742 -0.559,4.552 -0.529,5.41c-1.238,-1.629 -4.047,14.533 -6.056,21.811l1.942,-2.353c-1.836,21.108 -10.866,31.454 -12.875,47.977l-0.234,11.876l-2.472,1.942c0,1.629 -0.115,2.957 -0.115,4.114c-0.343,4.409 -0.281,6.991 -3.409,15.169c-2.138,5.222 -4.188,10.496 -6.115,15.933l-2.823,8.114l-2.823,8.702c-9.588,14.769 -17.416,27.98 -26.751,42.92l-7.114,6.995l-6.7,6.7c-4.542,4.325 -9.091,8.648 -13.758,12.756c0.273,-0.036 0.616,-0.224 1.044,-0.515c-3.673,2.836 -7.159,5.86 -9.689,8.215c-4.413,7.106 -8.198,15.012 -11.407,22.165c-1.587,3.641 -3.234,7.224 -4.822,10.82l-2.411,5.412l-1.351,2.704l-2.116,3.937c-1.669,1.284 -3.424,2.535 -5.176,3.821c-1.41,0.939 -2.832,1.912 -4.291,2.94c-2.954,1.927 -6.04,3.787 -9.465,5.585l1.293,-1.823c-12.844,9.545 1.368,-1.946 -8.819,3.879c-0.255,3.385 -15.759,13.038 -22.224,19.758c0.817,-1.286 3.305,-3.214 5.232,-5.176c-1.712,0.644 -3.128,-0.093 -6.466,3.116c-2.439,3.725 -6.779,8.15 -11.876,12.817c-2.611,2.228 -5.271,4.556 -8.056,6.995c-2.611,2.182 -5.254,4.46 -7.821,6.644c-1.883,2.482 -3.636,4.899 -5.349,7.171c-2.483,0.424 -12.695,10.319 -19.461,14.17c-0.6,1.673 -1.597,4.796 -2.411,7.704c-1.585,1.286 -2.869,2.563 -3.937,3.937c-0.644,0.771 -1.265,1.623 -1.825,2.353c-0.689,0.936 -1.359,1.863 -2,2.763c-1.799,0.69 -4.208,1.605 -5.41,2.294l5.881,-1.589l6.936,-8.469c-0.032,0.183 -0.063,0.342 -0.063,0.471c0.254,-0.471 0.803,-1.202 1.234,-1.884c1.923,-2.322 3.021,-3.781 2.922,-3.811c5.08,-3.752 0.581,1.325 2.312,2.168c-1.325,1.632 -3.334,3.947 -5.176,6.173c-0.943,1.156 -1.842,2.205 -2.704,3.233c-1.54,1.748 -2.948,3.238 -4.057,4.348c-1.929,0.391 -3.2,0.512 -3.76,0.353c-3.086,0.753 -3.621,0.886 -5.117,1.174c-1.323,0.255 -2.663,0.534 -4.289,0.822c-1.885,0.773 -4.051,1.453 -6.409,1.884l0.999,-0.412c-0.42,-0.128 -0.898,-0.145 -1.41,-0.175c-4.925,0.86 -10.519,2.816 -15.874,5c-2.697,1.114 -5.333,2.205 -7.819,3.233c-1.235,0.559 -2.441,1.117 -3.643,1.589c-0.516,0.254 -1.036,0.51 -1.589,0.703c-0.032,0.119 -0.058,0.287 -0.058,0.352c-0.031,-0.119 -0.058,-0.257 -0.058,-0.352c-0.03,-0.512 0.129,-1.063 0,-1.351c-0.255,-0.295 -0.467,-0.483 -0.939,-0.642c-0.254,-0.379 -2.508,0.428 -2.92,-0.208c0.097,-0.042 0.286,-0.14 0.565,-0.322c0.344,-0.165 0.938,-0.525 1.708,-0.997c3.768,-0.942 10.339,-2.706 17.872,-4.588c-1.028,0.042 -1.716,-0.074 -2.116,-0.586c-3.127,0.258 -5.887,0.878 -8.584,1.648c-1.374,0.424 -2.683,0.935 -4.057,1.407c-1.413,0.423 -2.956,1.005 -3.468,1.293l-0.999,0.763l-1.589,1.234c-1.194,0.855 -2.355,1.643 -3.641,2.586c-2.53,1.713 -5.391,3.568 -8.819,5.41c0.77,-0.728 2.377,-2.163 1.349,-2.292c-5.221,2.784 -9.029,6.843 -9.582,8.469c-1.07,-0.339 -4.433,0.938 -8.114,2.821c-1.884,0.942 -3.787,2.116 -5.585,3.233c-0.862,0.599 -1.76,1.077 -2.53,1.589c-0.984,0.726 -1.89,1.464 -2.704,2.06c-0.15,0.094 -0.322,0.262 -0.352,0.292c-3.429,1.153 -4.444,1.719 -6.115,2.233c-1.671,0.514 -3.92,0.908 -8.76,1.468l4.172,-1.765c-11.817,0.469 -9.325,2.923 -19.047,3.116c3.851,0 4.03,-1.244 1.115,-1.115c-12.113,2.181 -12.296,2.9 -20.814,6.408l1.41,-2.116c-9.723,1.98 -27.665,5.31 -29.972,3.526c0.521,1.092 -1.758,1.847 -5.363,2.353c-1.97,0.3 -4.411,0.544 -6.936,0.703c-2.399,0.119 -4.926,0.223 -7.407,0.352c-4.413,0.682 -8.578,1.275 -11.23,1.706c3.035,-0.644 3.539,-1.59 3.762,-2.058c-6.549,2.098 -13.225,3.606 -19.991,4.763l-10.17,1.589l-10.761,1.531l-8.702,0.352l-8.409,0.527l-3.235,-2.646c-10.148,0.813 -12.647,6.679 -23.694,7.405l3.937,-1.706c-4.584,0.385 -8.694,0.864 -10.878,1.057c-3.807,-0.77 -7.159,-1.457 -10.287,-2.058c-2.782,-0.556 -5.348,-1.09 -7.879,-1.65c-5.047,-1.111 -9.929,-2.211 -16.05,-3.585l0.703,-1.823c-2.483,-0.09 -5.212,-0.475 -7.997,-0.763c-2.912,-0.343 -5.887,-0.694 -8.584,-1.057c-1.883,-0.462 -2.099,-0.485 -2.999,-0.644c-3.51,-2.828 -9.935,-5.407 -17.815,-7.938c-3.892,-1.197 -8.288,-2.512 -12.696,-3.879c-2.182,-0.689 -4.418,-1.315 -6.644,-2l-7.405,-2.469c-2.44,-1.323 -4.838,-2.549 -7.232,-3.879c-2.141,-1.2 -4.215,-2.537 -6.231,-3.823c-4.115,-2.571 -7.889,-5.215 -11.054,-7.997l-2.999,2.411c-2.742,-1.497 -5.787,-3.175 -8.702,-4.763c-1.446,-0.817 -2.8,-1.655 -4.174,-2.469c-1.239,-0.727 -2.986,-1.852 -2.763,-1.882c-0.21,-0.212 0.112,-0.16 -0.529,-0.353c-0.512,-0.253 -0.951,-0.538 -1.351,-0.761c-0.9,-0.516 -1.663,-1.09 -2.175,-1.65l1.882,0.588c1.582,-2.439 -8.703,-2.341 -14.053,-4.35c-4.197,-0.77 -8.779,-0.102 -5.351,1.351c-3.811,-1.282 -7.949,-2.593 -12.229,-3.879c-4.796,-1.322 -9.79,-2.74 -14.758,-4.114c-4.323,-2.956 -8.663,-5.91 -12.817,-8.821c-3.771,-2.654 -7.409,-5.265 -10.876,-7.704c-6.805,-4.965 -12.557,-9.546 -16.108,-13.227c-0.559,-0.339 -1.059,-0.716 -1.531,-0.939c-1.194,-1.158 -2.444,-2.3 -3.641,-3.409c-1.068,-0.987 -2.102,-1.939 -3.174,-2.882c-2.055,-1.886 -4.088,-3.685 -6.056,-5.527c-4.109,-3.555 -7.966,-7.035 -11.993,-10.586c-3.936,-3.515 -7.946,-7.162 -12.054,-11.054c-4.281,-3.725 -8.661,-7.644 -13.286,-12.052l0.529,-0.058c-6.08,-6.332 -18.208,-19.025 -16.108,-21.167c-14.131,-12.415 -25.479,-17.822 -40.806,-34.392l4.291,2.586c-0.604,-0.689 -1.216,-1.332 -1.942,-2.058c-0.899,-0.817 -1.878,-1.789 -2.821,-2.647c-1.33,-1.881 -1.877,-2.425 -2.647,-3.409c-0.77,-0.863 -1.417,-1.641 -2.058,-2.411c-1.371,-1.497 -2.487,-2.756 -2.999,-3.352c-1.072,-1.669 0.262,-0.763 0.822,-0.763c-2.185,-5.05 -5.326,-6.803 -7.938,-10.228l1.765,0.941c-1.755,-3.428 -3.958,-7 -6.527,-10.761c-1.285,-1.889 -2.629,-3.802 -3.996,-5.764c-1.587,-2.142 -3.211,-4.332 -4.88,-6.642c-2.955,-6.422 -6.088,-13.136 -9.172,-19.816c-2.955,-6.469 -5.756,-13.017 -8.114,-19.225c1.883,3.811 2.1,1.342 1.941,-0.41c-0.679,-0.769 -1.505,-1.783 -2.231,-2.94c-0.34,-0.556 -0.686,-1.124 -1.117,-1.765c-0.383,-0.77 -0.557,-0.998 -1.29,-2.586c-0.516,-1.543 -1.124,-3.166 -1.765,-4.88c-0.472,-1.544 -1.029,-3.178 -1.589,-4.766c-0.941,-3.295 -1.898,-6.699 -2.882,-9.994c-1.799,-6.547 -3.409,-12.63 -4.647,-16.226l2.706,5.412c-3.602,-9.42 -3.44,-13.075 -3.762,-18.168c0.081,-4.585 0.262,-8.169 -2.177,-16.815l-0.234,10.82c-0.684,-7.58 -2.266,-13.827 -3.468,-11.818c-0.298,-8.861 2.325,-1.494 0.527,-14.64c0.811,-0.727 2.135,9.375 2.647,4.88l-0.41,-18.579v-0.058c0.096,-0.164 -0.046,-1.392 -0.175,-2.292c-0.476,-1.196 -1.13,-2.96 -2.119,-5.527c-3.38,2.917 -5.371,-14.235 -6.056,-4.174c-2.31,-6.207 -4.363,-12.248 -6.29,-18.108c-1.927,-6.035 -3.802,-11.905 -5.644,-17.639c-0.467,-3.038 -0.92,-5.922 -1.351,-8.877c-0.514,-2.786 -0.996,-5.548 -1.468,-8.29c-1.025,-5.44 -2.19,-10.861 -3.643,-16.168c0.383,-1.713 0.453,-4.052 0.294,-6.878c-0.108,-1.458 -0.37,-3.046 -0.529,-4.586c-0.13,-0.818 -0.227,-1.614 -0.292,-2.472c-0.197,-1.193 -0.429,-2.463 -0.588,-3.701c1.07,-3.467 2.161,-7.019 3.233,-10.404c0.984,-2.994 1.865,-5.873 2.765,-8.231c1.76,-4.754 3.469,-7.684 4.88,-6.527c3.554,-12.117 5.81,-22.037 5.41,-30.218c1.018,-5.881 2.063,-12.205 3.118,-16.285c-0.987,8.346 -2.989,21.715 -3.118,28.395c2.787,-11.129 4.486,-27.277 5.47,-33.57l3.351,-2.177c0.385,-9.502 3.823,-7.582 3.823,-16.401c-0.032,-0.171 -0.028,-0.303 -0.058,-0.703c-0.18,0.309 -0.37,0.427 -0.529,0.586c-0.21,0.21 -0.451,0.441 -0.644,0.763c0.064,-0.299 0.206,-0.629 0.236,-0.822c2.504,-16.181 0.06,-17.422 2.116,-33.394l0.941,0.939c0.557,-2.184 0.693,-4.843 0.822,-7.585c0.063,-1.367 0.046,-2.748 0.175,-4.115l0.352,-2.058c0.18,-0.856 0.34,-1.597 0.469,-2.411c0.468,-1.158 0.736,-1.841 1.058,-2.353c0.343,-0.6 0.832,-1.017 1.232,-1.529l-1.349,4.114l-0.999,7.23c1.202,-0.557 2.311,-3.217 3.468,-6.642c1.286,-2.486 2.216,-4.245 3.116,-5.704c3.034,-11.046 -1.655,-4.788 -0.115,-10.348c2.398,-1.714 1.101,-0.226 1.529,4.057c1.501,-5.651 3.223,-12.152 4.763,-18.402c0.769,-3.127 1.464,-6.191 2.06,-9.053c0.599,-3.171 1.176,-6.059 1.648,-8.584c0.941,-1.582 1.455,-2.722 1.648,-3.411c0.547,-0.299 0.586,0.471 0.586,0.471c8.135,-10.492 12.543,-21.849 18.579,-27.456l-1.351,2.231c1.84,-1.497 3.588,-3.448 5.176,-5.585l2.292,-3.409c0.814,-1.116 1.577,-2.287 1.706,-2.647c0.041,-0.468 0.752,-2.607 1.115,-3.937c0.517,-1.452 1.002,-2.841 1.47,-3.998c0.988,-2.311 1.998,-3.778 3.409,-3.937c2.479,-4.407 -4.077,10.629 0.763,3.823c6.721,-14.343 0.103,-11.052 6.056,-23.637c-0.773,1.721 -0.334,1.23 -0.175,2c1.67,-4.925 3.695,-10.61 5.879,-16.817c4.495,-4.197 9.384,-8.797 13.879,-12.99c3.51,-1.67 7.56,-4.531 11.759,-7.998c2.057,-1.798 4.224,-3.685 6.408,-5.527c2.056,-1.838 4.176,-3.746 6.232,-5.585c1.204,-1.842 2.385,-3.672 3.587,-5.47c1.282,-1.966 2.549,-3.876 3.879,-5.585c2.654,-3.597 5.3,-6.778 7.997,-9.172c-3.696,3.099 0.081,-3.193 0.163,-4.399c0.059,0.191 0.202,0.424 0.595,0.161c3.138,-4.666 2.331,-6.014 3.057,-8.114c0.981,-0.899 1.971,-2.405 2.999,-4.114c1.069,-1.97 2.28,-4.144 3.352,-6.115c1.195,-1.414 2.348,-2.753 3.291,-3.821c0.853,-0.899 1.696,-1.654 2.292,-1.942c-0.599,-0.727 2.831,-3.661 6.466,-7.171c-6.59,7.806 -0.923,3.686 -3.233,7.879c11.298,-10.144 9.746,-14.994 21.692,-25.398l3.057,-1.942l1.589,-0.997l2.116,-1.529l2.353,-0.705c0.689,-3.256 14.284,-8.301 13.643,-9.111c2.826,-0.258 6.612,-1.514 6.642,-0.061c5.476,-3.213 14.71,-5.942 16.462,-8.467l-6.056,2c4.581,-1.798 9.172,-4.016 12.171,-5.644c9.292,-6.423 16.824,-13.132 26.929,-17.757l1.823,3.526c2.872,-1.155 5.322,-2.663 7.587,-4.291c2.4,-1.798 4.671,-3.446 6.936,-5.115l2.882,-1.115c0.769,-0.302 1.655,-0.629 2.469,-0.822c1.625,-0.406 3.317,-0.733 5.115,-0.763c-3.3,-0.345 -3.739,0.242 2,-3.057c-1.457,0.389 -3.386,1.041 -5.527,1.941c-1.029,0.383 -2.089,0.879 -3.291,1.351c-1.285,0.471 -2.622,1.017 -3.996,1.529c-1.28,0.857 -2.651,1.775 -3.937,2.589c1.11,-0.986 1.759,-1.763 3.641,-3.174c2.487,-1.072 3.234,-1.583 4.822,-2.353l4.172,-2.292l-9.407,3.641l-10.348,7.114c6.892,-6.081 6.571,-5.44 2.589,-4.88c1.113,-0.857 2.127,-1.651 3.116,-2.292c0.468,-0.297 0.979,-0.659 1.41,-0.882c0.771,-0.422 1.488,-0.866 2.177,-1.29c0.726,-0.198 1.39,-0.451 2.116,-0.644c0.383,-0.13 0.776,-0.163 1.176,-0.292c0.771,-0.149 1.43,-0.342 2.119,-0.471c1.367,-0.3 2.555,-0.473 3.879,-0.761c2.654,-0.553 5.653,-1.353 9.933,-3.409c4.411,-0.855 0.473,1.944 5.527,1.174c4.281,-2.055 8.74,-3.051 12.936,-3.821c2.142,-0.427 4.202,-0.795 6.173,-1.117c2.058,-0.516 3.327,-0.898 5.939,-1.882c-0.686,0.342 -1.045,0.663 -0.822,0.822c0.302,-0.193 0.681,-0.287 0.939,-0.352c3.558,-0.231 6.58,-0.37 8.938,-0.529c2.272,-0.215 4.003,-0.57 4.94,-1.174l-5.995,-0.294c5.266,0 6.11,-1.621 16.168,-0.939c4.337,-0.767 7.248,-2.108 5.762,-2.704c2.323,0.293 4.449,0.802 3.116,1.648c6.68,-0.129 9.034,-0.995 10.703,-1.765c0.855,-0.383 1.485,-0.77 2.469,-1.058c0.347,-0.159 1.241,-0.287 1.529,-0.352c0,-0.032 0.046,-0.088 0.175,-0.058c0.094,-0.03 0.107,-0.03 0.236,0c0.213,-0.033 1.643,-0.637 2.586,-0.997c-0.842,0.551 -1.716,1.32 -1.115,1.29c2.412,-1.086 4.426,-2.129 6.173,-3.148c-3.109,2.048 -2.084,2.254 -1.293,2.441c0.482,0.036 0.855,0.203 0.295,0.763c-0.342,0.255 -0.865,0.605 -1.765,1.117c-0.512,0.21 -1.08,0.576 -1.765,0.939c-0.603,0.302 -1.572,0.792 -1.765,0.822c0.21,0.249 0.415,0.352 0.703,0.352c0.472,-0.044 0.948,-0.276 1.589,-0.469c1.201,-0.518 2.676,-1.186 4.172,-2c2.955,-1.709 6.19,-3.735 8.584,-4.588c6.084,-4.964 -0.685,-3.172 2.177,-5.998c0.301,0.64 3.058,-0.813 6.525,-2.353l-3.996,0.294c2.826,-1.544 5.551,-2.992 8.76,-5.176l-5.291,3.641c2.353,-1.153 5.365,-2.311 8.703,-3.641c1.669,-0.686 3.392,-1.505 5.234,-2.231c0.898,-0.467 1.91,-0.927 2.938,-1.351c1.527,-0.81 3.037,-1.641 4.647,-2.528zM487.273,65.227c-2.9,0.014 -5.709,0.568 -7.377,1.743c-3.118,2.221 -6.765,9.747 -7.363,12.962c-0.96,5.071 1.295,11.866 3.681,16.274c5.537,10.245 12.862,19.861 22.31,26.456c2.687,1.859 9.98,5.804 10.576,9.617c0.764,5.075 -7.756,13.859 -10.109,18.235c-4.976,9.248 -13.263,16.543 -21.517,22.508c-6.332,4.544 -7.458,8.787 -12.201,14.719c-4.073,5.108 -8.348,8.818 -10.175,15.119c-3.581,12.135 -5.227,25.129 -5.204,37.728c0.066,12.168 -6.298,24.931 -2.42,37.395c3.082,9.779 8.391,18.962 13.96,27.151c6.035,8.95 14.024,14.189 21.979,20.787c7.925,6.564 13.993,15.545 21.981,22.042c5.568,4.51 9.612,10.314 14.784,15.253c12.564,12.032 24.6,30.829 15.913,48.731c-6.66,13.824 -22.31,21.285 -32.122,32.09c-12.401,13.626 -23.668,25.992 -17.405,45.917c2.088,6.633 9.382,16.408 15.449,20.62c4.11,2.847 16.312,12.495 21.351,11.369c2.385,-6.663 -5.303,-13.36 -7.127,-18.929c-2.421,-7.323 -0.993,-17.168 1.193,-24.263c4.275,-13.99 23.104,-26.156 32.918,-36.167c4.542,-4.644 11.568,-7.625 16.607,-12.631c5.701,-5.604 6.962,-14.554 6.563,-22.145c-0.434,-7.261 -3.052,-13.561 -5.337,-20.291c-0.831,-2.455 -2.654,-5.768 -3.681,-8.885c-0.962,-2.983 -3.214,-6.927 -4.742,-9.513c-9.513,-16.211 -24.898,-28.641 -37.562,-42.334c-6.661,-7.197 -10.603,-15.317 -15.244,-23.835c-3.152,-5.735 -7.662,-10.643 -10.081,-16.71c-3.978,-10.013 -3.713,-16.211 -2.619,-26.918c0.364,-3.712 -1.525,-7.727 -0.996,-11.272c0.563,-3.945 3.282,-6.926 4.74,-10.507c7.032,-17.338 17.44,-33.02 25.662,-49.893c5.539,-11.404 7.891,-23.009 11.505,-35.043c1.592,-5.271 4.178,-10.841 4.842,-16.378c0.862,-6.964 -1.727,-11.538 -4.012,-17.769c-3.216,-8.756 -5.77,-16.909 -12.003,-24.469c-4.21,-5.07 -14.918,-17.139 -22.873,-15.083l-0.006,-0.002c0.799,-1.228 -0.989,-8.154 -4.439,-11.24c-1.79,-1.585 -5.67,-2.458 -9.398,-2.439zM363.519,107.505c-6.283,0.117 -12.155,4.974 -15.925,9.392c-7.593,8.915 -12.534,17.403 -16.91,28.378c-1.559,3.847 -2.786,6.927 -4.174,10.906c-1.858,5.436 -2.19,9.78 -3.281,15.149c-1.126,5.605 -3.391,12.004 -3.514,18.037c-0.167,6.398 0.564,14.981 1.856,21.282c0.965,4.509 3.516,7.824 4.144,12.465c0.567,3.979 0.235,7.524 1.594,11.307c1.361,3.712 2.455,5.567 3.118,9.746c0.663,4.179 2.456,5.237 3.351,8.453c2.091,7.362 1.027,15.052 3.678,22.282c2.521,6.862 3.052,14.023 5.537,20.917c2.422,6.729 2.454,13.262 5.239,19.493c2.353,5.272 4.578,10.444 7.825,15.713c6.631,10.743 14.087,20.054 19.624,31.793c1.859,3.878 4.544,7.987 3.783,12.631c-0.597,3.649 -2.19,4.478 -2.288,8.553c-0.201,6.563 0.661,13.492 -3.813,18.996c-9.382,11.602 -22.343,11.705 -36.036,13.197c-18.299,1.99 -13.589,-20.388 -5.204,-29.703c-10.108,8.883 -19.459,14.389 -14.852,30.2c2.452,8.422 17.934,14.057 25.725,16.476c5.336,1.691 10.87,3.881 16.11,3.979c5.966,0.132 10.077,-1.756 14.654,-3.611c9.179,-3.714 14.519,-6.764 20.817,-15.319c7.028,-9.513 12.53,-20.42 11.367,-32.453c-0.691,-6.832 -1.324,-13.727 -1.853,-20.588c-0.533,-6.433 -2.789,-11.44 -4.411,-17.438c-3.347,-12.298 -8.953,-24.698 -14.519,-36.964c-7.097,-15.714 -8.624,-29.834 -10.18,-47.106c-2.278,-25.628 -5.071,-50.426 -2.553,-76.117c0.731,-7.429 0.131,-14.885 2.056,-22.18c2.123,-8.025 4.873,-15.517 6.066,-23.804c1.129,-7.723 3.55,-15.979 4.178,-23.637l-0.004,-0.002c-8.189,1.525 -11.303,-7.695 -16.807,-9.681c-1.473,-0.542 -2.946,-0.769 -4.396,-0.742zM448.772,163.544c-0.004,0.039 -0.016,0.078 -0.022,0.117c-0.124,0.435 -0.242,0.81 -0.364,1.206c-0.932,2.212 -3.252,4.272 -4.39,6.238c-0.197,0.339 -0.391,0.759 -0.586,1.174c-1.549,-0.077 -3.079,-1.796 -4.737,-2.964c-1.624,-1.159 -7.821,-4.449 -9.746,-4.277c-2.123,0.23 -5.57,3.116 -8.156,3.877c-5.7,1.659 -8.953,2.984 -13.758,6.963c-13.759,11.27 -25.16,32.619 -23.934,50.454c1.855,27.253 8.982,53.21 20.586,77.708c4.043,8.487 7.325,17.207 12.199,25.162c4.245,6.929 10.675,12.135 15.947,18.567c2.949,3.615 6.694,6.698 9.479,10.408c2.454,3.283 3.777,7.394 6.63,10.41c2.123,2.224 4.407,2.654 5.669,5.638c1.037,2.52 0.518,7.36 0.763,10.047c1.193,13.922 2.585,29.802 -5.604,41.174c-9.315,12.996 -19.56,30.139 -17.9,46.577c1.423,14.49 4.505,26.39 11.268,38.227c3.315,5.768 4.875,11.7 7.956,17.139c3.018,5.305 6.2,12.929 7.559,19.293c1.326,6.331 3.115,17.87 2.187,24.234c-0.665,4.876 -5.372,11.141 -4.675,16.246c2.156,-2.091 4.808,-3.051 6.997,-5.172c2.152,-2.056 3.645,-4.805 5.701,-6.963c6.032,-6.294 10.84,-10.774 10.441,-20.187c-0.301,-7.56 -1.527,-15.119 -2.122,-22.644c-0.364,-4.874 -1.721,-6.866 -3.216,-11.141c-1.161,-3.35 -3.217,-6.993 -4.112,-9.879c-3.614,-11.536 -6.87,-24.567 -6.563,-37.762c0.166,-6.531 3.15,-10.044 6.563,-15.382c3.945,-6.132 6.531,-13.725 9.55,-20.39c4.496,-10.012 8.751,-23.737 4.772,-34.542c-2.221,-6.004 -3.214,-13.162 -5.405,-19.496c-1.059,-3.014 -1.359,-5.702 -2.718,-8.318c-1.36,-2.654 -4.346,-5.205 -5.869,-8.058c-15.416,-28.677 -28.082,-57.087 -40.049,-87.754c-3.481,-8.883 -3.936,-21.151 -4.243,-30.798c-0.297,-10.807 0.001,-25.131 3.316,-35.473c3.746,-11.535 7.425,-24.034 12.694,-34.974c0.84,-1.751 1.679,-4.131 2.532,-5.951c1.585,0.078 3.193,-1.613 4.976,-7.411c0.168,-0.398 0.302,-0.798 0.364,-1.206c0.013,-0.042 0.025,-0.074 0.037,-0.117h-0.014zM556.636,232.607c-2.904,-0.068 -5.678,0.074 -7.991,0.698c-6.562,1.756 -13.027,9.017 -16.971,14.355c-7.195,9.715 -26.388,38.292 0.051,5.669l0.063,0.018c0.05,8.39 1.889,14.787 2.985,22.807c1.027,7.197 0.861,11.075 8.32,14.988c5.338,2.818 11.701,3.081 17.074,4.772c6.73,2.157 13.23,3.45 19.958,5.141c6.763,1.691 15.811,2.946 22.74,3.544c3.019,0.244 6.265,-0.697 9.251,-0.245c4.973,0.797 8.387,2.884 13.56,3.083c15.647,0.528 30.167,7.725 45.416,12.068c18.961,5.436 38.956,12.762 54.735,24.828c7.889,6.003 19.325,11.505 25.095,19.758c3.082,4.376 2.75,9.548 3.979,14.653c1.359,5.638 4.043,10.842 4.475,16.678c0.929,12.133 2.786,24.168 2.686,36.401c-0.023,5.868 0.001,11.768 0.024,17.669c0.1,8.021 -1.654,14.618 -2.586,22.508c-1.095,9.514 -2.089,19.131 -3.746,28.546c-1.925,11.039 -2.721,20.617 -6.464,31.293c-3.646,10.408 -8.219,20.953 -13.293,30.665c-2.985,5.736 -8.786,8.787 -12.5,13.857c-4.013,5.471 -5.04,9.513 -10.741,13.926c-14.19,10.971 -27.282,19.461 -43.195,26.621c-12.698,5.701 -26.058,10.807 -39.816,14.917c-16.277,4.839 -31.462,5.339 -48.203,5.339c-6.002,0 -12.602,0.731 -18.567,0.049c-5.77,-0.664 -10.443,-4.078 -15.814,-5.503c-6.498,-1.725 -11.638,-2.818 -17.605,-6.662c-5.368,-3.45 -9.844,-7.692 -16.243,-9.279c-6.865,-1.727 -9.085,0.43 -11.438,7.125c-1.956,5.639 -4.144,12.169 -4.247,18.5c-0.246,13.296 -5.702,23.935 -5.669,36.964c0.023,3.78 0.147,7.624 0.022,11.367c-0.123,4.409 -1.82,7.294 -2.619,11.369c-1.458,7.26 1.194,15.352 -0.499,22.51c-0.627,2.751 -2.29,3.915 -2.653,7.294c-0.43,3.647 0.051,7.724 0.051,11.438c0,3.746 0.273,7.626 0.07,11.369c-0.244,4.311 -2.387,7.259 -3.083,11.371c-0.663,4.11 -1.057,7.359 -2.056,11.369c-0.76,3.117 -2.22,6.662 -2.849,9.15c-1.79,7.392 -3.349,12.299 -7.094,18.497c-2.653,4.409 -4.642,8.786 -9.12,12.203c-0.629,0.474 -1.724,1.249 -2.999,2.074c-4.512,-0.187 -8.964,-0.035 -12.448,1.339c0.953,5.152 8.009,1.533 12.448,-1.339c4.633,0.192 9.331,0.741 13.111,0.707c8.025,-0.023 14.486,2.391 22.343,2.787c18.43,0.928 35.869,5.671 54.204,5.769c6.2,0 14.887,1.594 9.316,-6.464c-3.681,-5.337 -9.581,-7.592 -14.422,-11.302c-10.639,-8.122 -14.719,-21.282 -17.534,-33.417c-3.481,-14.988 -5.769,-28.343 -5.769,-44.192c0,-7.06 0.098,-14.121 0,-21.216c-0.098,-7.361 2.486,-14.29 4.243,-21.317c1.556,-6.266 5.47,-14.355 12.663,-15.846c5.534,-1.129 15.813,4.243 21.118,6.264c19.759,7.431 41.705,5.109 63.023,5.342c23.271,0.307 46.711,-10.242 69.45,-14.489c9.649,-1.787 19.095,-6.399 27.251,-11.102c8.454,-4.875 18.73,-6.235 26.918,-12.003c33.051,-23.275 47.473,-63.615 56.028,-101.506c1.986,-8.851 5.237,-17.042 7.758,-25.662c1.924,-6.762 0.793,-13.262 2.152,-20.056c2.587,-12.862 2.221,-25.33 2.221,-38.457v-26.155c0,-4.606 -0.024,-9.247 0.022,-13.891c0.098,-7.357 -2.552,-13.295 -3.015,-20.521c-1.094,-16.676 -5.307,-34.08 -14.091,-48.731c-9.513,-15.947 -20.055,-25.66 -35.636,-34.215c-8.355,-4.572 -17.539,-5.136 -26.256,-8.418c-7.955,-3.019 -15.249,-5.702 -23.503,-7.924c-6.996,-1.855 -13.526,-4.439 -20.654,-5.666c-11.24,-1.955 -22.709,-2.358 -33.514,-6.068c-10.508,-3.645 -21.882,-3.612 -33.417,-5.405c-4.776,-0.733 -9.254,-1.957 -13.928,-2.817c-5.071,-0.958 -9.909,0.072 -14.948,-0.497c-5.504,-0.628 -11.504,-2.552 -17.041,-3.681c-5.867,-1.194 -12.795,-0.993 -18.332,-2.387c-7.989,-2.022 -13.262,-5.407 -12.93,-13.99c0.307,-7.295 1.425,-13.758 6.399,-19.192c3.799,-4.117 9.845,-8.824 15.689,-9.303c0.923,0.049 1.81,0.081 2.644,0.084c-0.871,-0.139 -1.755,-0.157 -2.644,-0.084c-3.521,-0.192 -7.579,-0.648 -11.414,-0.737zM274.259,283.626c2.918,4.177 1.559,10.311 1.626,15.151c0.05,7.824 -1.362,11.239 -6.268,16.973c-3.914,4.606 -8.251,9.082 -13.491,12.231c-6.198,3.711 -11.238,8.054 -17.209,12.1c-10.211,6.928 -21.317,12.597 -31.293,19.856c-9.55,6.929 -15.119,18.434 -21.284,28.344c-3.481,5.57 -4.047,11.141 -5.669,17.139c-2.054,7.494 -3.812,13.891 -4.142,21.613c-0.465,11.141 -2.918,21.813 -2.985,33.12c-0.049,8.651 1.16,18.002 2.688,26.39c0.528,3.016 2.585,5.304 3.146,8.318c0.662,3.616 -0.499,7.161 0.464,10.875c1.524,5.903 3.181,12.001 4.774,17.937c1.128,4.175 0.531,7.126 2.353,11.139c1.329,2.918 3.117,5.306 3.783,8.553c0.562,2.916 -0.246,6.001 0.396,9.085c1.095,5.071 3.98,9.715 4.875,14.852c1.592,8.916 5.771,14.553 9.846,22.94c6.399,13.096 13.989,23.901 22.843,35.339c8.686,11.204 16.311,19.559 30.038,23.634c10.408,3.117 22.707,3.548 33.813,4.644c14.655,1.458 28.543,3.215 43.296,3.215c16.078,-0.023 32.191,-0.245 48.269,0c11.934,0.147 23.502,1.46 28.576,12.665c2.187,4.874 4.84,10.739 5.405,15.678c0.661,5.969 -0.051,12.534 -0.051,18.567c0,13.459 0.246,25.36 -8.453,36.7c-6.1,7.989 -14.519,15.053 -22.908,20.887c-4.904,3.383 -8.385,8.65 -12.962,12.133c-4.709,3.579 -11.337,6.135 -16.444,8.819c-10.972,5.736 -23.704,10.176 -35.836,13.229c-4.209,1.026 -8.255,0.529 -12.631,0.593c-4.241,0.049 -6.262,1.228 -10.175,2.256c-3.315,0.826 -6.529,0.05 -9.713,0.862c-2.023,0.497 -5.007,2.452 -7.296,3.314c-7.491,2.818 -14.585,4.839 -21.381,8.887c-4.704,2.827 -9.27,6.826 -14.63,7.464c-1.013,-0.003 -2.026,-0.002 -3.039,-0.006c1.044,0.139 2.054,0.123 3.039,0.006c12.48,0.039 24.96,0.04 37.44,-0.006c3.682,0 7.728,-0.562 11.307,0.245c3.081,0.696 9.584,6.134 15.648,-0.245l0.004,-0.004c28.411,0 56.855,-0.148 85.268,0c13.392,0.098 25.759,-5.402 36.896,-12.1c3.978,-2.354 9.944,-5.567 12.663,-9.447c3.281,-4.607 2.653,-13.825 4.84,-19.659c2.287,-6.135 1.225,-11.768 3.051,-17.704c0.958,-3.117 3.71,-5.968 4.539,-9.347c1.226,-4.709 0.098,-9.415 1.226,-14.189c2.025,-8.819 3.846,-18.07 5.107,-27.151c1.091,-7.626 2.848,-14.687 2.784,-22.644c-0.049,-6.267 1.524,-14.753 0.123,-20.82c-0.827,-3.546 -2.552,-4.974 -3.081,-8.887c-0.499,-3.579 0.023,-7.821 0.099,-11.466c0.049,-5.935 -1.691,-10.907 -3.482,-16.442c-0.862,-2.751 -4.939,-10.941 -7.062,-12.833c-4.675,-4.246 -11.074,0.73 -16.478,2.288c-6.496,1.888 -12.994,1.395 -19.891,1.395c-2.619,0 -6.097,-0.664 -8.653,-0.099c-2.918,0.633 -4.11,2.189 -6.828,3.019c-6.5,1.987 -13.725,1.091 -20.19,2.619c-2.718,0.628 -3.979,2.485 -6.862,3.081c-2.552,0.566 -5.999,-0.099 -8.651,-0.099c-6.433,0 -13.527,0.896 -19.891,0.099c-13.493,-1.659 -25.626,-6.863 -38.356,-11.47c-6.168,-2.256 -10.906,-5.57 -17.174,-7.825c-5.768,-2.089 -8.488,-6.033 -14.121,-8.619c-8.389,-3.78 -20.258,-10.909 -25.232,-19.328c-15.581,-26.225 -23.867,-57.748 -28.873,-87.918c-1.523,-9.116 -2.918,-18.2 -2.787,-27.613c0.148,-10.575 -2.85,-19.958 -2.815,-30.668c0.024,-7.728 -1.327,-16.94 1.325,-24.168c2.387,-6.497 5.635,-12.795 9.349,-18.528c7.625,-11.838 22.573,-18.166 34.81,-24.17c2.419,-1.193 5.8,-2.949 8.52,-3.58c3.081,-0.697 6.761,-2.321 9.18,-2.819c3.183,-0.697 6.265,0 9.414,-0.529c3.513,-0.594 5.569,-3.316 9.349,-3.449c0.53,-3.745 2.42,-6.564 3.118,-9.715c0.829,-3.944 -0.274,-7.921 0.861,-11.898c1.063,-3.845 2.256,-5.468 2.187,-10.61c-0.023,-3.877 1.064,-9.216 0.149,-12.93c-0.628,-2.683 -2.086,-5.568 -2.918,-8.285c-1.324,-4.376 -2.651,-6.832 -5.767,-10.079c-5.039,-5.235 -14.822,-11.105 -21.517,-10.906z" /></svg>