<svg xmlns="http://www.w3.org/2000/svg" viewBox="0 0 891 896" width="891" height="896"><path d="M400.204,-0.018h0.055c1.061,0.134 2.135,0.209 3.238,0.328l2.8,0.164c1.317,0.028 2.645,0.028 4.007,0c-3.041,0.362 -9.15,0.989 -1.594,2.472c12.514,0.156 2.854,0.878 9.772,2.636c12.39,0.778 2.346,-2.492 20.534,0.109c1.961,0.198 0.196,-0.829 -1.758,-1.428c4.197,0.631 8.156,1.023 11.036,1.206c6.117,0.08 12.097,-0.052 19.93,0.823c-5.315,-0.482 -9.339,-1.005 -2.143,-1.648c-3.12,1.204 9.872,1.316 14.548,2.199l1.261,-0.768c3.756,0.881 -0.212,1.161 -3.293,1.372c0.084,-0.287 -1.015,-0.521 -3.293,-0.493c-5.998,0.519 -3.836,3.402 5.6,3.842c10.152,-0.597 8.514,-2.549 6.752,-3.348c1.283,0.089 2.402,0.164 3.403,0.164c1.154,0 2.168,-0.055 3.129,-0.055c1.556,0.24 2.136,0.246 3.019,0.274c0.763,0.028 1.577,0.028 2.255,0c1.404,-0.061 2.59,-0.158 3.952,-0.219c2.68,-0.082 5.7,0.073 10.817,1.594c2.921,0.517 11.996,5.386 21.195,7.468c5.074,-0.759 -11.306,-3.501 -5.71,-3.897c3.64,1.755 7.42,3.059 11.42,3.623c4.077,0.52 8.253,0.702 12.572,0.823c8.713,0.282 17.992,0.366 27.947,2.964l-2.8,1.758c2.278,0.399 4.519,0.668 6.916,1.042c1.401,0.722 2.86,1.481 4.339,2.199c1.283,0.605 2.61,1.214 4.007,1.813l-5.929,-4.228c4.756,1.84 14.444,7.121 10.487,6.972c10.392,3.282 12.009,5.201 20.807,10.158c-9.513,-4.88 -0.046,-0.375 -7.522,-2.855c4.117,2.563 6.639,3.975 8.838,5.055c1.078,0.48 2.103,0.936 3.183,1.372c1.162,0.44 2.349,0.885 3.788,1.484c0.556,0.399 1.388,1.071 2.307,1.758c-1.439,-0.282 0.905,3.243 3.183,5.162c6.355,3.716 15.562,12.027 23.717,18.062l-0.383,0.438l3.293,2.636l2.8,2.417c3.276,1.037 6.47,2.116 9.828,3.238l10.543,3.515c7.038,2.278 14.063,4.364 21.14,5.6c0.355,0.061 0.703,0.191 1.042,0.219l-1.484,-0.547c-2.082,-1.572 -0.519,-1.518 5.6,0c1.759,2.2 3.823,4.863 5.819,7.303c1.681,2.084 3.245,3.998 4.284,4.999c0.279,1.237 -0.059,2.145 1.703,4.503c1.595,-0.961 4.759,4.696 6.916,6.093c2.997,5.076 -2.222,0.789 3.897,8.784c2.474,3.041 3.506,2.762 3.842,1.922c0.159,0.997 1.342,3.343 2.143,4.943c1.116,1.519 3.56,4.037 5.436,5.874c-1.68,-0.877 -3.378,-3.289 -4.339,-4.007c-1.161,0.282 1.676,2.453 0.715,3.293c3.399,3.319 2.616,0.028 6.533,4.503l-5.055,-2.636c1.481,1.878 4.147,3.398 5.108,4.116c-1.482,-1.058 -2.353,-1.198 -2.91,-0.987l5.108,4.777c1.665,-0.277 -0.79,-4.75 0.328,-5.272c3.92,4.319 7.857,7.715 11.693,10.872c1.919,1.52 3.855,3.064 5.655,4.503l2.691,2.199l3.074,2.581l2.255,3.019l-2.526,-0.659c2.961,3.88 4.564,5.661 6.203,6.697l4.228,6.315c-2.957,-3.263 -4.282,-4.142 -5.6,-3.623c4.959,6.399 10.814,15.743 13.891,16.143l-0.438,-0.055c5.159,9.436 17.936,27.849 16.856,27.728c7.316,8.873 14.734,21.542 16.856,20.424c4.52,5.157 8.161,16.048 13.399,18.284c3.635,7.437 -0.194,0.669 -3.074,-0.328c3.682,7.476 11.691,11.78 10.655,15.978c6.717,7.319 -0.836,-2.293 2.362,-0.493c-0.4,0.797 0.209,2.249 1.206,4.007c0.119,6.236 2.468,16.156 2.032,23.115c1.757,3.796 0.276,-4.11 2.472,2.526c-0.854,-0.562 -0.566,3.087 -0.383,4.887l2.143,1.539l-2.472,6.643l1.097,7.799l0.109,0.328c2.081,1.484 0.295,-4.131 6.533,7.743l-0.659,-0.878c0.242,5.234 6.817,10.942 10.817,23.334c-1.483,-4.198 -1.611,-1.271 -2.691,-2.307l3.733,6.203c-0.376,-0.551 -0.669,-0.76 -0.548,0c0.84,4 1.75,4.647 2.91,6.643c0.514,1.403 0.941,2.83 1.152,5.71c-0.643,-1.915 -1.252,-2.727 -1.648,-2.91l2.636,9.772l1.097,2.087l-0.715,-0.603l8.236,30.747l-9.333,45.845l0.328,1.042c0.2,0.06 0.476,0.081 0.659,0.109l2.199,6.259c0.925,-0.524 0.28,-5.072 -0.438,-7.908c-0.079,-2.8 5.859,9.502 8.181,16.418c4.877,18.949 -2.363,4.823 0.438,17.898l2.255,5.765l1.042,2.855v-0.164l1.316,3.678l-0.603,3.403l-0.328,2.526h-1.097c-1.276,2.563 -0.521,4.254 -0.493,5.055c-1.157,-1.519 -3.779,13.575 -5.655,20.371l1.813,-2.199c-1.716,19.711 -10.148,29.372 -12.024,44.802l-0.219,11.091l-2.307,1.813c0,1.521 -0.109,2.762 -0.109,3.842c-0.319,4.118 -0.261,6.529 -3.183,14.165c-1.997,4.877 -3.91,9.801 -5.71,14.879l-2.636,7.577l-2.636,8.127c-8.951,13.792 -16.264,26.128 -24.982,40.08l-6.643,6.533l-6.259,6.259c-4.241,4.042 -8.491,8.079 -12.849,11.915c0.596,-0.082 1.438,-0.802 3.238,-2.199c-4.238,3.077 -8.43,6.708 -11.31,9.388c-4.124,6.636 -7.658,14.019 -10.655,20.698c-1.482,3.397 -3.02,6.746 -4.503,10.104l-2.255,5.055l-1.261,2.526l-1.977,3.678c-1.558,1.202 -3.193,2.37 -4.832,3.571c-1.317,0.878 -2.645,1.784 -4.007,2.745c-2.758,1.8 -5.64,3.538 -8.838,5.217l1.206,-1.703c-11.995,8.914 1.276,-1.817 -8.236,3.623c-0.239,3.161 -14.716,12.174 -20.753,18.449c0.762,-1.201 3.087,-2.997 4.887,-4.832c-1.599,0.599 -2.92,-0.087 -6.038,2.91c-2.278,3.481 -6.331,7.613 -11.091,11.971c-2.438,2.081 -4.921,4.255 -7.522,6.533c-2.438,2.037 -4.906,4.163 -7.303,6.203c-1.762,2.317 -3.399,4.575 -4.999,6.697c-2.318,0.393 -11.854,9.633 -18.172,13.232c-0.56,1.562 -1.495,4.478 -2.255,7.194c-1.479,1.199 -2.681,2.395 -3.678,3.678c-0.601,0.722 -1.18,1.517 -1.703,2.199c-0.643,0.874 -1.268,1.741 -1.867,2.581c-1.68,0.644 -3.933,1.5 -5.055,2.143l5.491,-1.484l6.478,-7.908c-0.03,0.171 -0.055,0.317 -0.055,0.438c0.238,-0.44 0.749,-1.121 1.152,-1.758c2.118,-2.558 3.18,-4.017 2.581,-3.459c5.038,-3.76 0.668,1.123 2.307,1.922c-1.236,1.522 -3.109,3.686 -4.832,5.765c-0.881,1.079 -1.722,2.058 -2.526,3.019c-1.438,1.633 -2.752,3.025 -3.788,4.061c-1.804,0.366 -2.993,0.477 -3.515,0.328c-2.882,0.703 -3.38,0.829 -4.777,1.097c-1.236,0.238 -2.489,0.5 -4.007,0.768c-1.76,0.722 -3.783,1.355 -5.984,1.758l0.933,-0.383c-0.392,-0.121 -0.838,-0.136 -1.316,-0.164c-4.6,0.803 -9.824,2.627 -14.824,4.668c-2.518,1.041 -4.981,2.058 -7.303,3.019c-1.155,0.522 -2.281,1.044 -3.403,1.484c-0.482,0.239 -0.965,0.476 -1.484,0.659c-0.03,0.11 -0.055,0.267 -0.055,0.328c-0.029,-0.11 -0.055,-0.239 -0.055,-0.328c-0.028,-0.478 0.121,-0.993 0,-1.261c-0.238,-0.279 -0.438,-0.454 -0.878,-0.603c-0.238,-0.359 -2.406,0.425 -2.745,-0.219c-0.157,0.096 0.025,0.065 0.547,-0.274c0.319,-0.156 0.876,-0.493 1.594,-0.933c3.516,-0.88 9.657,-2.526 16.691,-4.284c-0.959,0.04 -1.603,-0.069 -1.977,-0.547c-2.921,0.24 -5.498,0.821 -8.017,1.539c-1.281,0.396 -2.505,0.876 -3.788,1.316c-1.319,0.395 -2.76,0.938 -3.238,1.206l-0.933,0.715l-1.484,1.152c-1.118,0.8 -2.202,1.534 -3.403,2.417c-2.362,1.601 -5.034,3.332 -8.236,5.055c0.718,-0.682 2.222,-2.022 1.261,-2.143c-4.873,2.601 -8.429,6.39 -8.948,7.908c-0.999,-0.319 -4.139,0.878 -7.577,2.636c-1.758,0.879 -3.538,1.976 -5.217,3.019c-0.806,0.56 -1.644,1.006 -2.362,1.484c-0.918,0.675 -1.766,1.365 -2.526,1.922c-0.139,0.089 -0.3,0.246 -0.328,0.274c-3.202,1.08 -4.152,1.607 -5.71,2.087c-1.558,0.48 -3.661,0.849 -8.181,1.372l3.897,-1.648c-11.035,0.437 -8.709,2.727 -17.788,2.91c3.596,0 3.764,-1.163 1.042,-1.042c-11.312,2.036 -11.483,2.708 -19.437,5.984l1.316,-1.977c-9.596,1.954 -27.78,5.322 -28.22,2.964c1.162,1.2 -1.058,2.004 -4.777,2.526c-1.841,0.28 -4.12,0.51 -6.478,0.659c-2.24,0.11 -4.6,0.207 -6.916,0.328c-4.12,0.637 -8.008,1.19 -10.487,1.594c2.837,-0.602 3.304,-1.486 3.515,-1.922c-6.116,1.96 -12.35,3.369 -18.668,4.449l-9.497,1.484l-10.049,1.428l-8.127,0.328l-7.855,0.493l-3.019,-2.472c-9.477,0.759 -11.808,6.238 -22.127,6.916l3.678,-1.594c-4.282,0.356 -8.118,0.804 -10.158,0.987c-3.555,-0.718 -6.685,-1.361 -9.607,-1.922c-2.598,-0.519 -4.994,-1.017 -7.358,-1.539c-4.713,-1.037 -9.272,-2.065 -14.988,-3.348l0.659,-1.703c-2.318,-0.084 -4.867,-0.447 -7.468,-0.715c-2.72,-0.321 -5.498,-0.648 -8.017,-0.987c-1.758,-0.434 -1.96,-0.454 -2.8,-0.603c-3.279,-2.638 -9.278,-5.049 -16.637,-7.413c-3.637,-1.116 -7.743,-2.347 -11.859,-3.623c-2.037,-0.643 -4.124,-1.227 -6.203,-1.867l-6.916,-2.307c-2.278,-1.235 -4.516,-2.38 -6.752,-3.623c-1.999,-1.12 -3.937,-2.37 -5.819,-3.571c-3.84,-2.4 -7.368,-4.87 -10.323,-7.468l-2.8,2.255c-2.56,-1.398 -5.405,-2.966 -8.127,-4.449c-1.352,-0.764 -2.614,-1.547 -3.897,-2.307c-1.157,-0.679 -2.792,-1.73 -2.581,-1.758c-0.196,-0.199 0.106,-0.145 -0.493,-0.328c-0.478,-0.239 -0.887,-0.504 -1.261,-0.715c-0.84,-0.482 -1.554,-1.017 -2.032,-1.539l1.758,0.547c1.48,-2.277 -8.124,-2.185 -13.123,-4.061c-3.92,-0.719 -8.201,-0.098 -4.999,1.261c-3.56,-1.198 -7.424,-2.422 -11.42,-3.623c-4.479,-1.234 -9.143,-2.559 -13.782,-3.842c-4.039,-2.761 -8.092,-5.518 -11.971,-8.236c-3.522,-2.478 -6.921,-4.915 -10.158,-7.194c-6.355,-4.637 -11.724,-8.914 -15.043,-12.352c-0.521,-0.317 -0.988,-0.667 -1.428,-0.878c-1.118,-1.081 -2.285,-2.147 -3.403,-3.183c-0.997,-0.922 -1.963,-1.808 -2.964,-2.691c-1.919,-1.759 -3.818,-3.439 -5.655,-5.162c-3.837,-3.317 -7.44,-6.565 -11.201,-9.884c-3.676,-3.28 -7.419,-6.688 -11.255,-10.323c-3.997,-3.479 -8.088,-7.139 -12.407,-11.255l0.493,-0.055c-5.676,-5.914 -17.004,-17.762 -15.043,-19.765c-13.196,-11.594 -23.792,-16.645 -38.105,-32.118l4.007,2.417c-0.565,-0.643 -1.134,-1.243 -1.813,-1.922c-0.84,-0.764 -1.753,-1.671 -2.636,-2.472c-1.243,-1.756 -1.754,-2.264 -2.472,-3.183c-0.718,-0.809 -1.323,-1.536 -1.922,-2.255c-1.279,-1.398 -2.322,-2.572 -2.8,-3.129c-1.001,-1.561 0.246,-0.715 0.768,-0.715c-2.04,-4.717 -4.974,-6.354 -7.413,-9.552l1.648,0.878c-1.638,-3.202 -3.695,-6.534 -6.093,-10.049c-1.198,-1.763 -2.457,-3.546 -3.733,-5.381c-1.482,-2 -3,-4.046 -4.558,-6.203c-2.759,-5.998 -5.685,-12.266 -8.565,-18.504c-2.759,-6.038 -5.376,-12.156 -7.577,-17.953c1.758,3.559 1.962,1.256 1.813,-0.383c-0.637,-0.718 -1.409,-1.665 -2.087,-2.745c-0.317,-0.518 -0.639,-1.049 -1.042,-1.648c-0.357,-0.721 -0.519,-0.934 -1.206,-2.417c-0.482,-1.441 -1.049,-2.958 -1.648,-4.558c-0.44,-1.441 -0.962,-2.966 -1.484,-4.449c-0.878,-3.077 -1.772,-6.256 -2.691,-9.333c-1.68,-6.114 -3.182,-11.794 -4.339,-15.152l2.526,5.055c-3.366,-8.798 -3.214,-12.209 -3.515,-16.965c0.077,-4.282 0.246,-7.629 -2.032,-15.704l-0.219,10.104c-0.638,-7.077 -2.116,-12.912 -3.238,-11.036c-0.278,-8.276 2.172,-1.393 0.493,-13.672c0.758,-0.678 1.994,8.756 2.472,4.558l-0.383,-17.348v-0.055c0.089,-0.156 -0.043,-1.303 -0.164,-2.143c-0.443,-1.115 -1.053,-2.765 -1.977,-5.162c-3.157,2.726 -5.015,-13.292 -5.655,-3.897c-2.157,-5.796 -4.074,-11.435 -5.874,-16.91c-1.8,-5.636 -3.549,-11.117 -5.272,-16.472c-0.434,-2.837 -0.858,-5.532 -1.261,-8.291c-0.48,-2.604 -0.932,-5.18 -1.372,-7.743c-0.959,-5.079 -2.044,-10.142 -3.403,-15.098c0.358,-1.599 0.423,-3.783 0.274,-6.423c-0.101,-1.361 -0.344,-2.845 -0.493,-4.284c-0.119,-0.764 -0.213,-1.506 -0.274,-2.307c-0.183,-1.118 -0.398,-2.302 -0.547,-3.459c0.999,-3.237 2.018,-6.555 3.019,-9.716c0.918,-2.796 1.741,-5.486 2.581,-7.687c1.644,-4.439 3.24,-7.173 4.558,-6.093c3.321,-11.316 5.429,-20.58 5.055,-28.22c0.951,-5.491 1.925,-11.397 2.91,-15.207c-0.922,7.794 -2.789,20.279 -2.91,26.517c2.601,-10.39 4.189,-25.472 5.108,-31.349l3.129,-2.032c0.362,-8.874 3.571,-7.082 3.571,-15.317c-0.03,-0.163 -0.027,-0.285 -0.055,-0.659c-0.168,0.287 -0.344,0.398 -0.493,0.547c-0.196,0.196 -0.42,0.414 -0.603,0.715c0.061,-0.277 0.191,-0.585 0.219,-0.768c2.338,-15.111 0.058,-16.27 1.977,-31.185l0.878,0.878c0.52,-2.039 0.647,-4.521 0.768,-7.084c0.06,-1.278 0.043,-2.566 0.164,-3.842l0.328,-1.922c0.168,-0.802 0.317,-1.495 0.438,-2.255c0.438,-1.083 0.686,-1.721 0.987,-2.199c0.321,-0.56 0.778,-0.95 1.152,-1.428l-1.261,3.842l-0.933,6.752c1.122,-0.519 2.158,-3.005 3.238,-6.203c1.201,-2.322 2.07,-3.965 2.91,-5.327c2.833,-10.315 -1.548,-4.467 -0.109,-9.662c2.239,-1.603 1.028,-0.213 1.428,3.788c1.402,-5.278 3.01,-11.345 4.449,-17.184c0.718,-2.921 1.365,-5.78 1.922,-8.455c0.559,-2.962 1.099,-5.659 1.539,-8.017c0.879,-1.477 1.356,-2.54 1.539,-3.183c0.509,-0.279 0.547,0.438 0.547,0.438c7.595,-9.797 11.711,-20.403 17.348,-25.639l-1.261,2.087c1.718,-1.398 3.349,-3.221 4.832,-5.217l2.143,-3.183c0.761,-1.043 1.473,-2.136 1.594,-2.472c0.038,-0.439 0.703,-2.435 1.042,-3.678c0.483,-1.357 0.936,-2.653 1.372,-3.733c0.922,-2.159 1.865,-3.529 3.183,-3.678c2.318,-4.116 -3.805,9.927 0.715,3.571c6.276,-13.394 0.096,-10.32 5.655,-22.073c-0.722,1.605 -0.313,1.149 -0.164,1.867c1.556,-4.6 3.451,-9.908 5.491,-15.704c4.198,-3.92 8.761,-8.217 12.959,-12.133c3.278,-1.56 7.061,-4.231 10.982,-7.468c1.92,-1.679 3.944,-3.439 5.984,-5.162c1.919,-1.717 3.9,-3.499 5.819,-5.217c1.121,-1.721 2.226,-3.429 3.348,-5.108c1.198,-1.837 2.38,-3.621 3.623,-5.217c2.478,-3.359 4.949,-6.329 7.468,-8.565c-3.716,3.118 0.666,-3.948 0.109,-4.284c0,0 0.046,0.702 0.603,0.328c2.93,-4.357 2.177,-5.616 2.855,-7.577c0.915,-0.839 1.839,-2.246 2.8,-3.842c0.998,-1.839 2.128,-3.87 3.129,-5.71c1.116,-1.322 2.191,-2.574 3.074,-3.571c0.799,-0.84 1.586,-1.545 2.143,-1.813c-0.559,-0.679 2.643,-3.419 6.038,-6.697c-6.154,7.287 -0.862,3.442 -3.019,7.358c10.554,-9.473 9.103,-14.001 20.259,-23.717l2.855,-1.813l1.484,-0.933l1.977,-1.428l2.199,-0.659c0.643,-3.04 13.339,-7.754 12.74,-8.51c2.638,-0.24 6.175,-1.414 6.203,-0.055c5.113,-3.001 13.733,-5.55 15.372,-7.908l-5.655,1.867c4.278,-1.679 8.564,-3.751 11.365,-5.272c8.677,-5.998 15.711,-12.263 25.147,-16.582l1.703,3.293c2.682,-1.079 4.969,-2.486 7.084,-4.007c2.241,-1.679 4.363,-3.219 6.478,-4.777l2.691,-1.042c0.72,-0.282 1.547,-0.585 2.307,-0.768c1.517,-0.383 3.098,-0.687 4.777,-0.715c-3.083,-0.32 -3.493,0.226 1.867,-2.855c-1.362,0.362 -3.162,0.973 -5.162,1.813c-0.959,0.357 -1.952,0.821 -3.074,1.261c-1.198,0.439 -2.45,0.95 -3.733,1.428c-1.197,0.8 -2.477,1.657 -3.678,2.417c1.036,-0.921 1.645,-1.646 3.403,-2.964c2.322,-1.004 3.02,-1.481 4.503,-2.199l3.897,-2.143l-8.784,3.403l-9.662,6.643c6.436,-5.679 6.136,-5.08 2.417,-4.558c1.039,-0.803 1.986,-1.544 2.91,-2.143c0.436,-0.276 0.913,-0.612 1.316,-0.823c0.719,-0.394 1.389,-0.81 2.032,-1.206c0.677,-0.187 1.299,-0.42 1.977,-0.603c0.357,-0.119 0.723,-0.153 1.097,-0.274c0.719,-0.139 1.334,-0.317 1.977,-0.438c1.277,-0.28 2.387,-0.447 3.623,-0.715c2.479,-0.516 5.282,-1.264 9.278,-3.183c4.12,-0.798 0.443,1.815 5.162,1.097c3.999,-1.921 8.161,-2.853 12.079,-3.571c1.998,-0.399 3.925,-0.741 5.765,-1.042c1.919,-0.482 3.106,-0.839 5.546,-1.758c-0.641,0.32 -0.979,0.619 -0.768,0.768c0.282,-0.179 0.638,-0.267 0.878,-0.328c3.322,-0.215 6.145,-0.344 8.346,-0.493c2.121,-0.2 3.738,-0.533 4.613,-1.097l-5.6,-0.274c4.919,0 5.703,-1.514 15.098,-0.878c4.05,-0.717 6.768,-1.969 5.381,-2.526c2.167,0.274 4.157,0.749 2.91,1.539c6.238,-0.121 8.436,-0.93 9.994,-1.648c0.8,-0.356 1.388,-0.719 2.307,-0.987c0.321,-0.145 1.16,-0.267 1.428,-0.328c0,-0.03 0.043,-0.083 0.164,-0.055c0.089,-0.028 0.098,-0.028 0.219,0c0.2,-0.032 1.534,-0.597 2.417,-0.933c-0.786,0.516 -1.603,1.234 -1.042,1.206c3.28,-1.475 5.815,-2.869 7.855,-4.228c-5.441,3.161 -4.176,3.36 -3.293,3.571c0.45,0.036 0.796,0.193 0.274,0.715c-0.317,0.238 -0.808,0.564 -1.648,1.042c-0.478,0.196 -1.008,0.539 -1.648,0.878c-0.564,0.282 -1.465,0.74 -1.648,0.768c0.196,0.229 0.391,0.328 0.659,0.328c0.44,-0.04 0.885,-0.255 1.484,-0.438c1.122,-0.48 2.5,-1.107 3.897,-1.867c2.761,-1.596 5.781,-3.485 8.017,-4.284c5.682,-4.633 -0.643,-2.96 2.032,-5.6c0.281,0.596 2.856,-0.76 6.093,-2.199l-3.733,0.274c2.639,-1.441 5.184,-2.792 8.181,-4.832l-4.943,3.403c2.198,-1.079 5.009,-2.16 8.127,-3.403c1.558,-0.644 3.164,-1.409 4.887,-2.087c0.839,-0.434 1.784,-0.865 2.745,-1.261c1.426,-0.756 2.836,-1.534 4.339,-2.362zM473.777,54.513c-0.861,0.967 -1.65,1.985 -0.715,3.293c0.969,1.383 0.794,2.895 0.493,4.394c-0.304,1.68 -0.702,3.332 -0.823,5.055c-0.149,2.135 -0.676,4.105 -1.316,6.093c-0.413,1.159 -0.812,2.37 -0.933,3.571c-0.471,4.459 -1.086,8.937 -0.715,13.399c0.224,2.315 -0.265,4.529 -1.316,6.588c-1.276,2.623 -1.737,5.401 -1.648,8.291v2.91c0.118,8.543 0.444,17.154 -0.383,25.694c-0.491,4.831 -1.036,9.581 -2.087,14.384c-0.751,3.41 -1.621,6.836 -1.922,10.323c-0.596,6.447 -1.642,12.808 -3.293,19.108c-1.725,6.71 -3.211,13.508 -3.733,20.479c-0.074,1.466 -0.387,2.981 -0.878,4.449c-1.874,5.773 -3.598,11.613 -6.259,17.129c-3.785,7.684 -7.448,15.417 -11.42,22.949c-1.911,3.676 -3.164,7.803 -6.203,10.872c-0.602,0.64 -0.094,1.916 0.768,1.977c1.16,0.121 2.316,0.137 3.403,0.109c6.223,-0.276 12.449,0.137 18.559,0.987c0.752,0.121 1.499,0 2.255,0c1.612,-0.214 3.181,-0.262 4.832,-0.383c1.085,0 2.243,-0.158 3.403,-0.219c2.246,-0.107 4.557,-0.317 6.807,-0.438c1.427,-0.061 2.858,0.121 4.284,0c4.536,-0.519 9.12,-1.118 13.618,-1.758c4.462,-0.648 8.868,-0.866 13.178,0.823c3.146,1.167 6.385,1.089 9.607,0.878c0.715,0 1.507,-0.134 1.922,-0.878c0,-1.2 -0.838,-1.775 -1.594,-2.307c-2.099,-1.466 -3.049,-3.528 -3.571,-5.929c-0.187,-0.748 -0.372,-1.511 -0.493,-2.255c-0.262,-1.944 -1.115,-3.604 -1.977,-5.327c-0.671,-1.305 -1.157,-2.802 -1.648,-4.228c-0.604,-1.914 -0.862,-3.913 -1.648,-5.71c-2.659,-6.336 -4.641,-12.853 -6.478,-19.492c-1.273,-4.574 -2.746,-9.081 -4.172,-13.618c-0.377,-1.232 -0.907,-2.379 -2.032,-3.019c-1.316,-0.829 -1.859,-2.089 -2.199,-3.515c-1.835,-8.471 -2.988,-17.091 -3.403,-25.749c-0.225,-6.185 -1.053,-12.285 -2.032,-18.395c-0.564,-3.712 -1.326,-7.31 -0.987,-11.091c0.089,-0.785 -0.098,-1.676 -0.219,-2.526c-0.476,-2.73 -0.724,-5.464 -0.603,-8.236c0.08,-1.871 -0.115,-3.783 -0.383,-5.655c-0.329,-2.061 -0.465,-4.155 -0.164,-6.259c0.588,-4.349 0.566,-8.734 0.715,-13.123c0.146,-4.048 -0.447,-7.947 -1.648,-11.803c-0.638,-1.985 -1.057,-4.075 -1.428,-6.093c-0.412,-2.25 -0.648,-4.497 -0.987,-6.752c-0.089,-0.785 -0.164,-1.563 -0.164,-2.307c0,-4.087 -0.094,-8.177 0.055,-12.298c0.03,-1.572 -0.137,-2.968 -0.659,-4.394h-1.758zM505.68,273.301c-4.986,0.089 -9.93,0.158 -14.879,0.219c-1.12,0.028 -2.278,-0.012 -3.403,0.109c-4.648,0.634 -9.261,0.559 -13.946,0.438c-2.664,-0.103 -5.317,0.075 -7.908,0.715c-2.625,0.624 -5.247,0.796 -7.908,0.768c-2.139,-0.089 -4.215,-0.012 -6.315,0.109c-5.322,0.409 -10.637,0.727 -15.923,1.152c-2.134,0.189 -3.129,1.102 -3.129,3.238c0,1.231 0.245,2.501 0.274,3.733c0.06,8.21 0.136,16.373 0.164,24.543c0,1.914 0.019,3.838 -0.164,5.71c-0.61,5.807 -0.96,11.592 -0.659,17.403c0.108,3.08 -0.113,6.097 -0.823,9.059c-1.043,4.382 -1.527,8.792 -1.316,13.287c0.038,1.423 -0.153,2.858 -0.274,4.284c-0.176,1.796 -0.438,3.584 -0.438,5.381c-0.029,9.898 0.027,19.814 0.055,29.705c0.036,0.544 0.262,1.055 0.383,1.372c5.512,-0.107 10.78,-0.417 16.143,-0.328c5.401,0.107 10.764,0.043 16.199,-0.274c7.985,-0.491 15.938,-1.004 23.884,-2.087c6.335,-0.988 12.697,-1.417 19.108,-1.206c3.302,0.121 6.642,0.028 9.939,0c0.672,0 1.331,-0.075 2.087,-0.164c0.028,-1.045 0.136,-2.007 0.164,-2.964c0.15,-6.969 -0.533,-13.911 -1.097,-20.807c-0.218,-2.475 -0.317,-4.934 -0.438,-7.413c-0.176,-3.41 -0.614,-6.803 -0.493,-10.213c0.186,-5.585 -0.321,-11.031 -1.484,-16.472c-0.718,-3.071 -1.133,-6.166 -1.316,-9.278c-0.24,-3.973 -0.083,-8.008 -0.055,-12.024c0.031,-1.722 0.255,-3.385 0.438,-5.108c0.237,-2.25 0.566,-4.524 0.715,-6.807c0.15,-2.551 0.144,-5.139 0.055,-7.687c-0.072,-3.259 0.248,-6.458 1.484,-9.497c0.867,-2.117 1.008,-4.413 1.097,-6.752c-1.54,-1.574 -3.179,-2.115 -5.055,-2.087c-1.724,0 -3.473,-0.055 -5.162,-0.055zM542.794,284.892v0.055c-0.142,1.156 -0.355,2.062 -0.383,3.019c-0.121,1.871 -0.253,3.838 -0.164,5.71c0.19,4.609 -0.302,9.068 -1.206,13.563c-0.145,0.861 -0.3,1.731 -0.328,2.581c0,2.475 -0.028,4.934 0,7.413c0,3.481 0.797,4.116 4.284,4.116c2.811,0 5.738,-0.098 8.51,0.219c4.198,0.5 8.32,0.608 12.517,0.547c4.273,-0.089 8.539,-0.191 12.849,-0.219c0.752,0 1.521,0.048 2.307,0.109c0.676,1.575 1.838,2.646 3.074,3.733c0.976,0.871 1.88,1.881 2.636,2.964c2.359,3.232 4.574,6.608 6.861,9.828c0.789,1.201 1.57,2.502 2.581,3.459c2.438,2.25 4.877,4.535 7.577,6.478c2.663,1.912 4.984,4.081 7.084,6.588c2.022,2.392 3.941,4.828 5.929,7.303c0.674,0.786 1.309,1.728 1.977,2.472c2.062,2.324 4.613,3.548 7.799,3.459c3.258,-0.061 6.494,0.089 9.716,0c3.637,-0.034 7.185,0.415 10.708,1.372c1.125,0.213 2.223,0.631 3.348,0.659c2.775,0 5.503,0.504 8.236,0.715c3.222,0.318 6.453,0.426 9.716,0.547c3.11,0 6.224,0.298 9.333,1.042c2.209,0.428 4.428,0.976 6.752,0.659c0.411,0 0.814,-0.317 1.261,-0.438c-0.45,-1.686 -1.385,-2.836 -2.472,-3.897c-1.052,-0.975 -1.541,-2.073 -2.032,-3.348c-0.598,-1.502 -1.212,-3.023 -1.922,-4.449c-1.048,-2.168 -2.227,-4.179 -3.238,-6.315c-1.388,-2.859 -2.732,-5.671 -4.832,-8.072c-5.32,-6.11 -9.936,-12.786 -14.659,-19.382c-0.863,-1.192 -1.932,-2.287 -3.019,-3.348c-1.426,-1.391 -2.895,-2.753 -4.394,-4.061c-3.335,-2.888 -5.512,-6.459 -6.862,-10.655c-0.898,-2.67 -2.057,-5.36 -3.293,-7.908c-1.726,-3.674 -3.664,-7.261 -4.228,-11.31c-0.413,-0.215 -0.667,-0.349 -0.878,-0.438c-2.735,-0.408 -5.519,-0.973 -8.291,-0.548c-4.535,0.532 -9.1,0.768 -13.672,0.768c-4.535,0.104 -9.1,0.282 -13.672,0.493c-2.847,0.126 -5.667,-0.083 -8.4,-0.933c-3.187,-1.096 -6.493,-1.55 -9.828,-1.867c-3.822,-0.293 -7.562,-0.628 -11.31,-1.372c-2.884,-0.56 -5.857,-1.117 -8.784,-1.206c-5.582,-0.208 -11.185,-0.109 -17.184,-0.109zM481.137,291.372c2.847,0 5.735,0.13 8.619,0.219c0.755,0 1.499,0.098 2.255,0.219c0.749,0.108 1.421,0.286 2.472,0.603v0.055c0.028,0.798 0.192,1.447 0.164,2.087c-0.907,15.779 0.055,31.64 0.055,47.383c0,1.231 0.246,2.446 0.274,3.678c0.035,1.423 -0.533,2.208 -2.032,2.087c-1.876,-0.126 -3.641,0.293 -5.327,0.933c-0.786,0.321 -1.61,0.538 -2.472,0.659c-1.497,0.257 -2.309,-0.277 -2.8,-1.703c-0.299,-0.903 -0.57,-1.843 -0.659,-2.8c-0.221,-2.996 -0.426,-5.99 -0.547,-9.059c-0.042,-1.734 -0.139,-3.459 -1.042,-4.999c-0.679,-1.233 -0.667,-2.567 -0.328,-3.842c0.475,-1.985 0.559,-3.966 0.438,-5.984c-0.148,-4.616 -0.31,-9.304 -0.493,-13.946c-0.108,-2.518 0.027,-4.934 0.328,-7.413c0.258,-2.06 0.444,-4.117 -0.383,-6.148c-0.522,-1.276 0.134,-2.06 1.484,-2.032zM451.541,291.7c3.302,1.061 6.642,0.336 9.939,0.547c0.296,0 0.518,0.021 0.933,0.11h0.055c0.828,1.305 1.063,2.644 1.152,3.952c0.252,3.528 0.575,7.056 0.603,10.543c0.061,12.179 0.055,24.386 0.055,36.566c0,0.978 0.092,1.953 -0.548,2.91c-2.025,0.804 -4.246,1.234 -6.533,1.206c-1.95,0 -3.806,0.153 -5.381,1.428c-0.233,0.122 -0.532,0.082 -0.715,0.11c0,-6.523 -0.121,-12.954 0,-19.437c0.112,-10.008 -0.56,-19.97 -1.316,-29.978c-0.072,-0.818 -0.239,-1.676 -0.328,-2.526c-0.121,-1.199 -0.253,-2.477 -0.164,-3.678c0.112,-1.233 1.204,-2.075 2.255,-1.758zM397.87,318.36c-2.121,0.062 -4.271,0.389 -6.371,1.042c-1.763,0.519 -3.49,0.687 -5.327,0.659c-4.76,-0.107 -9.514,-0.239 -14.274,-0.328c-3.449,0 -6.858,0.043 -10.268,0.164c-7.049,0.209 -14.13,0.75 -21.14,0.11c-6.931,-0.591 -13.89,-0.52 -20.862,-0.548c-0.937,0 -1.865,-0.083 -2.8,-0.055c-0.751,0 -1.53,0.13 -1.977,0.219c-1.988,2.775 -3.763,5.401 -5.6,7.908c-2.736,3.826 -5.649,7.445 -9.059,10.708c-7.571,7.349 -15.123,14.72 -22.73,22.073c-0.934,0.887 -1.949,1.782 -3.074,2.526c-1.05,0.678 -2.101,1.218 -2.472,2.526c-0.338,1.159 -1.428,2.016 -1.428,3.515c0.972,0.215 1.841,0.626 2.745,0.715c2.439,0.213 4.922,0.448 7.358,0.659c0.489,0 0.981,0.098 1.428,0.219c3.935,0.741 7.905,0.918 11.915,0.493c4.085,-0.319 8.175,-0.504 12.298,-0.715c1.083,0 2.223,0.172 3.348,0.383c1.725,0.386 3.417,0.952 5.217,1.484c0.443,1.347 0.527,2.76 0.438,4.228c-0.089,2.475 -0.191,4.934 -0.219,7.413c-0.089,5.251 -0.158,10.453 -0.219,15.704c0,1.306 -0.108,2.61 0.383,3.842c0.339,0.215 0.61,0.41 0.878,0.438c0.561,0.089 1.165,0.11 1.758,0.11c1.574,-0.028 3.22,-0.164 4.832,-0.164c9.706,-0.028 19.389,0 29.098,0c2.847,0 5.75,-0.063 8.565,-0.274c4.273,-0.213 8.56,-0.67 12.794,-0.987c1.31,-0.089 2.692,-0.13 4.007,-0.219c2.474,-0.107 4.938,-0.383 7.413,-0.383c1.836,0 3.604,-0.236 5.327,-0.768c1.272,-0.317 2.547,-0.557 3.897,-0.768c0.937,-0.212 1.864,-0.282 2.8,-0.493c1.985,-0.428 3.982,-0.416 5.929,0.328c0.903,0.319 1.789,0.504 2.8,0.715l-0.055,-0.055c1.012,-2.019 1.18,-3.818 1.152,-5.655c0,-1.316 0.02,-2.657 0.109,-4.007c0.114,-2.136 0.355,-4.266 0.383,-6.478c0.085,-2.295 0.429,-4.552 0.768,-6.807c0.447,-2.657 0.758,-5.285 1.097,-7.908c0.148,-1.242 0.078,-2.521 0.493,-3.678c0.684,-2.016 0.724,-4.144 0.603,-6.203c-0.078,-3.177 -0.155,-6.276 0.438,-9.388c0.9,-4.539 0.977,-9.05 1.316,-13.618c0.307,-4.047 0.665,-8.195 0.933,-12.243c0.042,-1.126 0.348,-2.32 -0.438,-3.403c-0.896,-0.212 -1.883,-0.282 -2.745,-0.493c-0.935,-0.279 -1.774,-0.835 -2.636,-1.152c-0.825,-0.319 -1.645,-0.504 -2.472,-0.715c-2.14,-0.482 -4.254,-0.724 -6.371,-0.659zM566.947,336.71c-1.576,0.311 -2.127,1.246 -2.691,2.307c-1.236,2.474 -2.862,4.729 -4.887,6.643c-4.349,3.975 -8.776,7.911 -13.123,11.915c-1.01,0.904 -1.985,1.734 -2.964,2.691c-2.286,2.212 -3.929,4.839 -4.832,7.908c-0.37,1.235 -0.684,2.443 -1.206,3.571c-0.786,1.827 -1.456,3.712 -2.581,5.327c-2.849,4.157 -5.126,8.683 -7.413,13.178c-0.295,0.599 -0.612,1.173 -0.823,1.813c-0.152,0.424 0.332,1.015 0.823,0.987c0.295,0 0.522,-0.075 0.823,-0.164c3.449,-0.979 7,-1.624 10.487,-2.581c2.663,-0.804 5.355,-1.233 8.127,-1.261c1.611,0 3.275,0.102 4.887,-0.109c6.186,-0.648 12.318,-0.669 18.504,-0.548c2.548,0.105 5.139,0.343 7.687,0.768c6.596,0.965 13.258,1.583 19.93,1.372c1.913,-0.061 3.799,-0.089 5.71,0c1.726,0 3.385,0.262 5.108,0.383c0.376,0.061 0.871,0 1.539,0c-0.525,-1.349 -0.945,-2.376 -1.316,-3.459c-1.237,-3.339 -3.22,-6.036 -6.259,-7.908c-2.585,-1.574 -4.518,-3.732 -6.093,-6.315c-3.185,-5.093 -6.985,-9.766 -11.146,-14.11c-1.574,-1.661 -3.114,-3.276 -4.613,-4.999c-2.663,-3.112 -5.285,-6.297 -7.908,-9.443c-1.086,-1.316 -2.203,-2.644 -3.293,-3.952c-0.485,-0.598 -0.901,-1.227 -1.316,-1.867c-0.375,-0.595 -0.737,-1.288 -1.152,-2.032v-0.109zM668.195,387.619c-1.947,0.544 -3.904,0.527 -5.929,0.438c-0.755,0 -1.499,0.098 -2.255,0.219c-4.349,0.936 -8.776,0.534 -13.123,0.109c-0.9,-0.107 -1.81,-0.317 -2.745,-0.438c-0.604,1.276 -1.38,2.403 -1.648,3.678c-0.269,1.351 -0.055,2.816 -0.055,4.284c-0.145,13.193 0.448,26.447 -0.603,39.64c-0.295,3.639 -0.392,7.27 -0.603,10.872c-0.18,2.284 -0.454,4.524 -0.603,6.807c-0.45,6.106 -1.074,12.082 -1.977,18.117c-0.528,3.671 -1.015,7.341 -0.987,11.091c0,2.167 -0.117,4.412 -0.328,6.588c-0.412,4.277 -0.603,8.523 -0.603,12.794c0.061,16.38 0.13,32.759 0.219,49.139c0,0.824 0.02,1.726 0.109,2.855h0.055c0.9,0.215 1.503,0.349 2.143,0.438c1.947,0.209 3.818,-0.234 5.655,-0.659c3.185,-0.851 6.399,-0.863 9.662,-0.438c1.875,0.319 3.744,0.427 5.655,0.548c1.611,0.03 3.236,-0.082 4.887,-0.11c2.847,0 5.683,0.128 8.455,0.768c3.936,0.991 7.781,0.504 11.529,-0.878c1.8,-0.64 3.601,-1.171 5.436,-1.703c3.972,-1.061 7.994,-1.504 12.079,-0.547c0.789,0.121 1.553,0.192 2.307,0.164c0.902,0 1.428,-0.471 1.428,-1.428c0,-1.052 -0.063,-2.068 -0.274,-3.129c-0.564,-3.142 -1.274,-6.31 -1.867,-9.497c-0.121,-0.64 -0.109,-1.392 -0.109,-2.032c0.028,-10.455 0.075,-20.95 0.164,-31.404c0,-3.825 -0.1,-7.615 -0.768,-11.365c-0.37,-1.879 -0.647,-3.782 -0.768,-5.655c-0.411,-5.508 -1.031,-11.011 -0.438,-16.527c0.297,-2.548 0.317,-5.139 0.438,-7.687c0.199,-3.339 0.17,-6.702 0.438,-9.994c0.504,-5.624 0.533,-11.18 0.383,-16.801c-0.031,-1.796 -0.289,-3.639 -0.438,-5.436c-0.183,-1.871 -0.465,-3.741 -0.493,-5.655c-0.151,-3.716 0.086,-7.434 1.097,-11.036c1.35,-4.728 0.062,-5.833 -3.348,-7.522c-1.274,-0.64 -2.533,-1.457 -3.623,-2.307c-1.985,-1.645 -4.168,-2.938 -6.643,-3.788c-2.098,-0.707 -4.042,-1.648 -5.765,-3.074c-0.563,-0.489 -1.254,-0.78 -1.922,-1.097c-1.464,-0.605 -2.627,-1.553 -3.678,-2.636c-0.824,-0.83 -1.657,-1.615 -2.636,-2.255c-1.573,-1.019 -3.236,-1.849 -4.887,-2.91c-0.936,-0.563 -1.968,-0.865 -3.019,-0.548zM217.48,392.386c-1.349,-0.022 -2.717,0.298 -3.842,1.042c-1.387,1.05 -2.901,1.963 -3.952,3.238c-2.511,3.029 -5.456,5.583 -8.565,7.908c-1.048,0.787 -1.654,1.827 -1.922,3.074c-0.157,1.008 -0.383,2.013 -0.383,3.074c0.04,4.192 0.264,8.359 1.539,12.407c0.339,1.009 0.5,2.013 0.768,3.074c1.279,5.582 2.16,11.195 1.977,16.965c-0.061,2.25 0.034,4.579 -0.055,6.862c-0.04,2.061 -0.2,4.155 -0.383,6.259c-0.343,3.98 -0.491,7.998 0,11.971c0.326,2.846 0.466,5.662 0.438,8.51c-0.029,3.826 -0.055,7.595 -0.055,11.42c0,5.622 0.083,11.246 0.055,16.91c0,1.765 -0.179,3.544 -0.328,5.381c-0.072,1.5 -0.411,3.059 -0.383,4.558c0.183,4.2 -0.376,8.351 -0.823,12.517c-0.407,3.672 -1.023,7.325 -1.206,11.036c-0.155,3.56 -0.724,6.944 -1.703,10.323c-0.25,1.008 -0.465,2.068 -0.493,3.129c-0.039,1.661 1.056,2.628 2.745,2.417c0.637,-0.103 1.309,-0.426 1.977,-0.547c0.935,-0.215 1.842,-0.41 2.745,-0.438c4.011,-0.215 7.961,-0.836 11.971,-0.715c0.489,0.089 0.937,-0.081 1.428,-0.109c1.385,-0.215 2.802,-0.317 4.228,-0.438c0.976,-0.028 1.92,-0.02 2.855,-0.109c2.923,-0.211 5.88,-0.458 8.838,-0.547c11.022,-0.339 22.092,0.679 33.111,0.768c2.284,0.107 4.557,0.098 6.807,-0.219c2.098,-0.304 4.159,-0.527 6.259,-0.438c0.449,0 0.89,-0.081 1.261,-0.109c0.089,-0.317 0.164,-0.557 0.164,-0.768c0.028,-0.756 0.089,-1.511 0,-2.255c-0.45,-7.796 0.195,-15.374 2.032,-22.949c0.862,-3.707 1.49,-7.529 1.758,-11.31c0.368,-6.448 0.72,-12.899 0.659,-19.382c-0.088,-6.669 0.012,-13.311 -0.109,-19.984c-0.031,-2.359 -0.227,-4.738 -0.438,-7.139c-0.295,-3.485 -0.726,-6.945 -1.097,-10.432c-0.06,-1.085 -0.043,-2.068 -0.164,-3.129c-0.749,-7.046 -0.594,-14.057 0.493,-21.028c0.517,-3.672 1.003,-7.416 1.152,-11.091c0.149,-5.435 0.028,-10.867 0,-16.308c0,-2.295 -0.295,-4.497 1.428,-6.752v-0.055c-0.822,-0.215 -1.168,-0.41 -1.539,-0.438c-6.033,-0.592 -12.062,-1.417 -18.172,-1.206c-1.16,0.028 -2.296,0 -3.459,0c-5.247,0.162 -10.421,-0.572 -15.594,-1.316c-6.149,-0.947 -12.23,-2.166 -18.34,-2.91c-4.535,-0.532 -9.1,-0.504 -13.672,-0.715zM535.337,408.921c-5.472,0.648 -11.016,0.704 -16.527,0.493c-1.912,-0.089 -3.818,-0.102 -5.655,0.109c-1.764,0.235 -3.682,0.058 -5.108,1.484c-0.225,0.208 -0.726,0.219 -1.097,0.219c-1.799,0.215 -3.581,0.317 -5.381,0.438c-1.426,0.212 -2.858,0.372 -4.284,0.493c-1.5,0.061 -3.039,0.266 -4.503,0.055c-5.695,-0.954 -11.376,-0.644 -17.075,-0.219c-1.426,0.107 -2.897,0.328 -4.284,0.328c-3.109,0 -6.078,0.526 -8.893,1.758c-3.188,1.437 -6.547,2.078 -9.994,2.199c-6.745,0.215 -13.474,0.926 -20.259,0.715c-0.71,0 -1.459,0.191 -2.362,0.219c-0.028,0.891 -0.164,1.618 -0.164,2.362c0.076,5.695 -0.1,11.38 -0.768,17.075c-0.517,4.685 -0.63,9.501 0.274,14.22c0.333,1.879 0.781,3.728 1.152,5.6c0.73,3.673 0.659,7.396 0.659,11.146c-0.042,3.217 0.012,6.442 0.383,9.662c0.389,3.781 0.377,7.595 0.109,11.42c-0.308,3.744 -0.398,7.54 -0.547,11.365c-0.224,7.494 -0.504,15.033 -0.715,22.565c-0.028,0.68 -0.098,1.337 -0.219,1.977c-0.529,4.913 -1.072,9.807 -1.594,14.715c-0.263,2.475 -0.555,4.98 -0.823,7.413c-0.148,1.796 -0.312,3.544 0.328,5.381c0.64,0.107 1.181,0.239 1.703,0.328c1.799,0.215 3.617,0.317 5.381,0.438c1.238,0.089 2.497,0.136 3.733,0.164c2.363,0.215 4.775,0.227 7.139,0.438c2.663,0.216 5.301,-0.008 7.962,-0.219c1.308,-0.121 2.637,-0.121 3.952,0c4.011,0.427 7.961,0.814 11.971,0.603c1.426,-0.107 2.897,0.008 4.284,0.219c3.039,0.544 6.076,0.467 9.115,0.438c2.21,0.001 4.36,0.123 6.533,0.548c2.138,0.426 4.306,0.504 6.478,0.715c4.423,0.446 8.922,0.441 13.232,1.867c0.677,0.24 1.499,0.081 2.255,0.109c0.446,-1.128 0.814,-1.958 1.261,-3.019v0.164c0.489,-0.089 0.981,-0.191 1.428,-0.219c2.623,-0.21 5.12,0.075 7.632,0.715c2.7,0.741 5.409,0.973 8.181,0.548c4.611,-0.758 9.299,-0.78 13.946,-0.659c1.047,0.06 2.132,0.109 3.183,0.109c3.451,0.104 6.823,-0.083 10.158,-0.933c2.061,-0.544 4.159,-0.649 6.259,-0.438c5.134,0.532 10.156,1.359 14.879,3.571c2.172,0.969 4.48,1.567 6.916,1.539c1.725,0 3.385,0.227 5.108,0.438c2.286,0.383 4.524,0.189 6.697,-0.768c0.976,-0.489 1.931,-0.835 2.91,-1.152c1.387,-0.401 2.663,-0.965 3.788,-1.922c1.234,-1.007 2.653,-1.437 4.228,-1.648c1.013,-0.107 2.04,-0.29 3.019,-0.715c2.287,-0.864 3.813,-2.566 4.228,-4.999c0.25,-1.5 0.472,-3.004 0.383,-4.503c-0.151,-3.976 -0.468,-7.98 -1.372,-11.915c-1.388,-5.957 -1.841,-12.007 -1.813,-18.117c0.089,-12.482 0.075,-24.908 0.164,-37.389c0.028,-8.36 0.13,-16.754 0.219,-25.147c0.042,-3.786 0.064,-7.595 -0.383,-11.42c-0.416,-3.296 -0.585,-6.56 -0.768,-9.939c-0.149,-2.06 -0.507,-4.16 -1.261,-6.148c-0.384,-1.05 -0.898,-2.11 -0.987,-3.238c-0.15,-2.741 -0.21,-5.536 0.383,-8.236c0.088,-0.392 0.081,-0.896 0.109,-1.428c-2.924,-0.321 -5.7,-0.421 -8.4,0.219c-5.922,1.2 -11.808,1.523 -17.843,1.206c-6.745,-0.421 -13.511,-0.725 -20.259,-1.042c-1.237,0 -2.442,-0.008 -3.678,-0.219c-5.209,-0.64 -10.421,-1.337 -15.594,-1.977c-3.039,-0.329 -6.076,-0.589 -9.115,-0.164zM673.31,415.507c3.41,-0.641 4.088,0.655 4.503,3.238c0.351,2.137 0.458,4.321 0.547,6.533c0.073,1.317 0.052,2.663 0.987,3.788c0.597,0.79 0.699,1.734 0.328,2.691c-0.75,2.092 -0.559,4.302 -0.438,6.478c0.199,3.217 0.349,6.496 0.438,9.716c0.032,1.231 -0.07,2.446 -0.219,3.678c-0.336,2.925 -0.308,2.99 0.603,5.874c-0.707,0.215 -1.236,0.466 -1.758,0.438c-4.422,-0.213 -8.94,0.582 -13.287,-0.768c-0.45,-1.463 -0.285,-2.808 -0.164,-4.116c0.627,-6.561 0.313,-13.1 0.164,-19.656c-0.089,-3.706 -0.153,-7.435 -0.274,-11.146c-0.028,-1.347 -0.164,-2.657 -0.164,-4.007c-0.035,-1.116 0.433,-1.737 1.484,-1.648c2.209,0.172 4.324,-0.347 6.424,-0.987c0.263,-0.028 0.555,-0.02 0.823,-0.109zM236.047,418.138c4.273,0.103 8.56,-0.197 12.794,0.547c0.257,0.103 0.533,0.336 1.097,0.547c0.121,2.168 0.047,4.256 -0.164,6.315c-0.46,4.755 -0.17,9.46 -0.109,14.22c0.129,4.467 0.179,8.993 0.328,13.455c0.088,1.985 0.207,3.941 0.328,5.929c0.073,1.083 -0.449,1.847 -1.428,1.758c-2.358,-0.183 -4.502,0.617 -6.752,1.042c-3.937,0.787 -4.679,0.093 -5.272,-3.842c-0.282,-1.985 -0.294,-3.996 -0.383,-5.984c-0.073,-1.464 -0.18,-2.86 -1.042,-4.061c-0.712,-0.931 -0.575,-2.013 -0.274,-3.074c0.475,-1.5 0.466,-3.004 0.438,-4.503c-0.143,-2.711 -0.289,-5.304 -0.438,-7.962c-0.146,-2.881 -0.319,-5.717 0.274,-8.565c0.34,-1.423 0.354,-2.822 -0.328,-4.172c-0.415,-0.903 0.071,-1.676 0.933,-1.648zM369.145,427.912c-5.059,0.215 -10.076,0.398 -15.098,0.715c-2.401,0.109 -4.723,0.448 -7.084,0.659c-0.865,0.107 -1.664,0.206 -2.526,-0.219c-1.128,-0.544 -2.446,-0.641 -3.571,-0.109c-1.015,0.515 -2.023,0.411 -3.074,0.383c-2.548,-0.104 -5.139,0.019 -7.687,0.659c-2.663,0.639 -5.409,0.906 -8.181,0.878c-0.64,0 -1.295,0.081 -1.977,0.109c-3.445,0.264 -5.438,1.98 -6.148,5.655c-0.486,2.36 -0.477,4.778 -0.328,7.139c0.089,1.914 0.164,3.741 0.164,5.655v52.874c0,2.625 -0.075,5.262 -0.164,7.962c-0.191,8.058 -0.391,16.205 -0.659,24.269c0,1.5 -0.082,3.004 -0.383,4.503c-0.329,1.733 -0.356,3.419 -0.055,5.108c0.161,1.011 0.322,2.013 0.383,3.074c0.104,2.144 -0.175,4.241 -0.768,6.259c-0.564,1.904 -0.066,2.647 1.922,2.964c1.013,0.149 2.078,0.198 3.129,0.109c3.6,-0.178 7.186,-0.572 10.708,-1.316c3.86,-0.864 7.704,-1.032 11.639,-0.715c4.047,0.32 8.213,0.575 12.298,0.603c9.782,0.089 19.591,0.121 29.372,0c3.039,-0.105 6.118,-0.451 9.115,-0.768c3.785,-0.426 7.542,-0.926 11.365,-0.715c1.197,0 2.433,-0.098 3.897,-0.219c0.089,-0.89 0.219,-1.5 0.219,-2.032c-0.061,-2.092 -0.098,-4.2 -0.219,-6.259c-0.15,-3.639 -0.163,-7.214 0.328,-10.817c0.342,-2.167 0.557,-4.376 0.768,-6.588c0.295,-2.329 0.463,-4.723 0.878,-7.084c0.935,-5.995 1.444,-12.041 1.261,-18.117c-0.088,-4.116 -0.109,-8.231 -0.109,-12.352c0.036,-5.211 -0.592,-10.426 -1.867,-15.484c-0.824,-3.367 -0.914,-6.779 -1.097,-10.158c-0.037,-1.049 0.18,-1.941 1.042,-2.581c0.706,-0.567 0.959,-1.405 0.987,-2.255c0.06,-0.756 0.164,-1.511 0.164,-2.255c-0.028,-5.923 -0.07,-11.89 -0.219,-17.734c-0.119,-2.581 -0.447,-5.139 -0.715,-7.687c-0.036,-0.53 -0.179,-0.947 -0.328,-1.372c-0.336,-1.042 -1.164,-1.549 -2.143,-1.428c-2.06,0.321 -3.996,-0.122 -5.984,-0.547c-0.903,-0.149 -1.865,-0.198 -2.8,-0.109c-2.586,0.213 -5.139,-0.013 -7.687,-0.438c-1.985,-0.329 -3.959,-0.321 -5.984,-0.11c-2.996,0.396 -6.02,0.37 -9.059,-0.055c-1.238,-0.182 -2.497,-0.083 -3.733,-0.055zM341.849,429.559h0.823c-0.224,0.089 -0.392,0.191 -0.603,0.219c0,0 -0.098,-0.13 -0.219,-0.219zM732.283,433.399c-1.047,1.051 -1.461,2.151 -1.372,3.459c0.188,2.655 0.178,5.304 0.328,7.962c0.328,5.323 0.448,10.655 0.109,15.978c-0.237,3.229 -0.41,6.453 -0.438,9.716c-0.028,9.147 0,18.295 0,27.399c0,1.456 0.019,2.846 -0.164,4.228c-0.532,4.869 -0.692,9.726 -0.603,14.603c0.089,3.708 -0.069,7.435 -0.219,11.146c-0.108,3.338 -0.404,6.604 -0.493,9.939c-0.121,3.706 -0.144,7.435 -0.055,11.146c0,1.199 0.302,2.446 0.603,3.678c0.151,0.876 0.724,1.383 1.703,1.594c0.935,0.105 1.883,0.343 2.745,0.768c1.166,0.519 2.296,0.659 3.571,0.659c2.663,-0.028 5.356,-0.121 8.017,0c8.283,0.319 16.571,-0.659 24.818,-0.659c0.179,0 0.366,-0.11 0.823,-0.219c0.328,-1.298 0.547,-2.626 0.987,-3.842c1.082,-3.304 1.41,-6.671 1.261,-10.158c-0.224,-4.092 0.156,-8.14 0.603,-12.188c0.595,-5.695 0.942,-11.39 0.603,-17.129c-0.178,-4.042 -0.141,-8.207 0.274,-12.298c0.339,-2.921 0.679,-5.819 0.768,-8.784c0.031,-5.436 -0.109,-10.814 -0.109,-16.255c-0.037,-1.688 -0.561,-3.228 -1.648,-4.503c-2.734,-3.304 -5.367,-6.623 -8.181,-9.884c-2.814,-3.261 -5.419,-6.6 -7.855,-10.158c-0.71,-1.082 -1.5,-2.177 -2.362,-3.238c-2.214,-2.402 -3.954,-5.127 -5.491,-8.017c-0.9,-1.732 -1.724,-3.085 -3.897,-2.964c-1.35,-0.955 -2.854,-0.836 -4.394,-0.715c-2.775,0.247 -5.504,-0.036 -8.127,-1.097c-0.565,-0.179 -1.249,-0.075 -1.813,-0.164zM171.926,436.203c-0.784,0.426 -1.036,1.283 -2.087,1.372c-5.922,0.215 -11.811,0.926 -17.734,0.715c-4.386,-0.151 -8.685,0.367 -12.959,1.428c-2.734,0.668 -5.448,1.061 -8.181,0c-0.979,-0.339 -1.648,0.233 -1.648,1.316c-0.031,1.914 -0.012,3.796 0.109,5.71c0.329,6.033 0.726,12.16 1.097,18.228c0.19,2.657 0.42,5.359 0.603,8.017c0.295,4.574 0.757,9.105 0.878,13.672c0.179,5.807 0.136,11.579 0.164,17.348c0,1.347 -0.158,2.745 -0.219,4.061c-0.148,1.691 -0.344,3.419 -0.493,5.108c-0.129,1.456 -0.145,2.838 -0.328,4.228c-0.398,3.517 -0.676,7.016 -0.493,10.543c0.212,3.64 0.284,7.259 -0.055,10.817c-0.415,4.839 0.961,9.467 0.933,14.11v0.055c2.063,1.256 2.899,1.428 4.999,1.428c1.612,0.028 3.257,-0.047 4.832,0.164c3.338,0.319 6.604,0.521 9.939,0.493c0.752,-0.107 1.551,0.008 2.307,0.219c2.247,0.561 4.524,0.48 6.807,0.055c2.549,-0.5 5.084,-0.64 7.632,0c1.235,0.319 2.227,0.147 3.238,-0.493c2.057,-1.273 3.576,-2.9 3.129,-5.6c-0.029,-0.317 -0.055,-0.612 -0.055,-0.823c0.028,-3.599 -0.175,-7.259 0.164,-10.817c0.443,-4.015 0.458,-8.02 0.547,-12.024c0.187,-8.283 0.5,-16.571 0.768,-24.818c0.072,-1.456 0.115,-2.846 0.383,-4.228c0.429,-2.476 0.411,-4.961 0.383,-7.468c-0.028,-3.707 -0.028,-7.38 0,-11.091c0.224,-11.732 0.448,-23.446 0.659,-35.139v-2.581c-0.039,-1.497 -0.644,-2.539 -2.143,-2.964c-1.084,-0.317 -2.132,-0.725 -3.183,-1.042zM565.433,447.238c1.536,0 2.805,0.682 3.515,2.032c1.459,2.887 3.266,5.634 3.238,9.003c0,0.891 0.259,1.722 0.823,2.362c0.814,0.9 1.069,1.982 1.097,3.183c0.068,1.501 0.239,3.004 0.328,4.503c0.263,3.326 0.5,6.659 0.768,9.994c0.073,1.242 0.154,2.477 0.493,3.678c1.314,4.616 1.155,9.226 0.328,13.837c-0.711,3.743 -0.864,7.529 -0.715,11.31c0.042,0.818 0.285,1.728 -0.383,2.472v0.055c-1.201,0.213 -2.37,0.538 -3.571,0.659c-0.333,0.089 -0.758,-0.043 -1.097,-0.164c-1.539,-0.536 -2.95,-0.421 -4.449,0.219c-3.821,1.574 -7.902,2.044 -12.024,2.255c-1.236,0.109 -1.728,-0.224 -2.143,-1.428c-0.341,-1.081 -0.566,-2.219 -0.715,-3.348c-0.221,-1.456 -0.426,-2.909 -0.547,-4.449c-0.147,-1.614 -0.185,-3.217 -0.274,-4.832c-0.028,-1.425 -0.02,-2.894 -0.109,-4.284c-0.296,-5.547 -0.665,-11.011 -0.933,-16.527c-0.116,-2.207 0.246,-4.342 0.768,-6.478c0.529,-2.103 0.741,-4.248 1.042,-6.424c0.089,-0.935 0.098,-1.898 0.219,-2.855c0.338,-3.219 1.45,-6.054 3.623,-8.455c1.426,-1.573 2.897,-3.073 4.284,-4.613c0.82,-0.83 1.818,-1.395 3.019,-1.484c1.125,-0.089 2.243,-0.219 3.403,-0.219zM363.708,456.313c0.982,0.112 1.955,0.545 2.855,1.316c1.649,1.394 2.853,3.127 3.788,4.999c1.426,3.036 2.346,6.205 2.91,9.497c0.772,4.156 0.715,8.321 0.715,12.517v3.129h-0.055l-0.055,0.11c0,2.846 -0.061,5.706 0,8.51c0.04,2.092 0.317,4.2 0.438,6.259c0.061,1.531 0.191,3.114 0.219,4.613c0,2.167 -0.121,4.357 0,6.533c0.148,2.549 0.392,5.125 0.603,7.632c0.072,0.586 0.42,1.116 0.603,1.648c0.374,1.305 -0.078,1.949 -1.539,1.977c-0.184,0 -0.337,-0.055 -0.548,-0.055c-4.158,0 -8.394,-0.197 -12.517,0.547c-1.837,0.319 -3.581,0.504 -5.381,0.715c-1.501,0.12 -3.059,0.308 -4.558,0.219c-1.432,-0.044 -2.044,-0.697 -2.255,-2.087c-0.061,-0.561 -0.055,-1.171 -0.055,-1.703c0,-4.684 -0.081,-9.358 -0.109,-14.001c0,-0.756 -0.1,-1.503 0.493,-2.143c0.328,-0.297 0.356,-1.007 0.328,-1.539c-0.114,-2.475 -0.154,-4.98 -0.493,-7.413c-0.401,-3.039 -0.411,-6.102 -0.383,-9.171c0.029,-4.041 0.144,-8.122 0.055,-12.243c-0.077,-3.825 0.824,-7.341 3.074,-10.487c1.194,-1.734 2.546,-3.352 3.897,-4.999c1.351,-1.647 3.199,-2.721 4.999,-3.678c1.012,-0.579 1.982,-0.827 2.964,-0.715zM674.572,481.828c1.579,-0.118 2.236,0.259 2.8,1.758c0.218,0.598 0.465,1.227 0.493,1.867c0.221,2.404 0.458,4.778 0.547,7.139c0.074,1.189 0.177,2.281 0.933,3.238c0.671,0.903 0.754,1.881 0.383,2.964c-0.655,2.016 -0.614,4.099 -0.493,6.203c0.176,3.41 0.404,6.858 0.493,10.268c0,1.569 -0.082,3.26 -0.383,4.832c-0.307,1.463 -0.175,2.766 0.493,4.116c0.089,0.213 0.075,0.562 0.164,0.987c-0.375,0.212 -0.781,0.603 -1.152,0.603c-3.487,0 -7.02,0.012 -10.543,-0.109c-1.126,0 -2.261,-0.183 -3.348,-0.715c-0.39,-1.382 -0.231,-2.699 -0.11,-4.007c0.626,-6.447 0.34,-12.931 0.219,-19.382c-0.036,-4.607 -0.207,-9.292 -0.328,-13.946c-0.028,-1.302 0,-2.671 0,-4.061l0.055,-0.055c0.597,-0.211 1.126,-0.575 1.648,-0.547c2.136,0.279 4.144,-0.346 6.203,-0.878c0.601,-0.196 1.24,-0.274 1.922,-0.274zM236.315,486.106c4.424,0.317 8.94,-0.354 13.399,0.878c0.061,0.64 0.219,1.171 0.219,1.703c-0.028,1.383 0.04,2.858 -0.109,4.284c-0.49,5.022 -0.285,10.04 -0.164,15.098c0.117,4.533 0.207,9.104 0.328,13.672c0.028,1.231 0.098,2.501 0.219,3.733c0.184,1.54 -0.294,2.232 -1.758,2.143c-2.136,-0.214 -4.178,0.346 -6.203,0.878c-3.711,0.903 -4.89,0.127 -5.381,-3.623c-0.221,-1.871 -0.294,-3.796 -0.383,-5.71c-0.073,-1.421 -0.107,-2.86 -1.042,-4.061c-0.711,-0.932 -0.629,-1.958 -0.328,-3.019c0.475,-1.383 0.466,-2.802 0.438,-4.228c-0.161,-2.551 -0.179,-5.139 -0.328,-7.687c-0.19,-2.846 -0.436,-5.706 0.274,-8.51c0.409,-1.662 -0.204,-3.218 -0.768,-5.055l0.055,0.055c0.675,-0.211 1.168,-0.547 1.539,-0.547zM105.728,570.659c-1.689,0.108 -3.368,0.549 -4.999,1.261c-1.536,0.743 -3.03,1.662 -3.623,3.459c-0.15,0.424 -0.632,0.67 -0.933,0.987v2.255c0.148,0.903 0.372,1.788 0.493,2.745c0.183,1.879 0.364,3.783 0.547,5.655c0.047,0.755 0.122,1.447 0.715,2.087c0.386,0.385 0.438,1.173 0.438,1.813c0.311,2.964 -0.1,5.895 -0.547,8.784c-0.335,2.657 -0.791,5.285 -1.206,7.908c-0.074,0.639 -0.289,1.227 -0.438,1.867v7.413c0.295,0.104 0.757,0.231 0.878,0.548c0.944,1.691 1.356,3.493 1.539,5.436c0.149,2.391 1.135,3.471 3.459,3.788c3.222,0.443 6.44,1.069 9.662,1.097c6.669,0.122 13.348,0.012 19.984,-0.109c1.8,0 3.583,-0.51 5.272,-1.042c5.398,-1.869 8.613,-6.494 8.674,-12.188c0.031,-1.422 -0.081,-2.838 -0.109,-4.228v-2.307c0.265,-0.211 0.447,-0.426 0.715,-0.547c3.261,-1.346 6.633,-2.188 10.268,-1.977c5.771,0.196 11.592,0.207 17.403,0.328c2.663,0.109 5.301,0.448 7.962,0.659c2.663,0.215 5.301,0.594 7.962,0.715c5.995,0.18 12.01,0.219 18.007,0.219c30.397,-0.089 60.689,-0.191 91.085,-0.219h3.348c-0.305,0.935 -0.5,1.618 -0.768,2.362c-0.488,1.423 -0.906,2.902 -1.428,4.284c-0.9,2.325 -0.151,4.347 2.472,5.655c1.425,0.741 3.038,1.161 4.613,1.372c2.363,0.285 4.723,0.328 7.084,0.328c5.923,-0.103 11.848,-0.426 17.734,-0.547c3.748,-0.104 7.456,0.134 11.091,0.878c3.109,0.638 6.182,0.812 9.333,0.933c3.035,0.033 3.872,-0.609 4.394,-3.678c0.233,-1.583 0.234,-3.205 0.383,-4.777c0.028,-0.564 0.207,-1.116 0.328,-1.648c0.784,0 1.405,-0.028 2.087,0c5.401,0.379 10.801,0.781 16.199,1.206c6.745,0.544 13.511,1.007 20.259,1.539c6.261,0.418 12.574,0.285 18.833,0.164c4.503,-0.089 8.996,-0.047 13.455,0.164c6.855,0.424 13.637,0.944 20.534,0.823c3.039,0 6.076,-0.012 9.115,0.109c4.199,0.109 8.374,0.448 12.572,0.659c4.534,0.21 9.1,0.734 13.672,0.823c13.718,0.121 27.443,0.164 41.124,0.164c6.593,0 13.133,0.291 19.656,0.823c4.872,0.317 9.675,0.647 14.548,0.768c7.049,0.172 14.095,-0.347 21.14,-0.987c3.487,-0.319 7.02,-0.631 10.543,-0.603c11.546,0.042 23.012,-1.178 34.48,-1.922c9.407,-0.69 18.849,-1.062 28.22,-1.594c5.997,-0.421 11.956,-0.672 17.953,-1.097c3.859,-0.215 7.796,-0.687 11.693,-0.715c13.796,-0.122 27.625,-0.11 41.455,-0.11c0.525,0 1.008,0.13 1.648,0.219c-0.073,2.287 -0.437,4.383 -1.372,6.371c-0.564,1.234 -1.168,2.446 -1.539,3.678c-0.411,1.391 0.184,2.315 1.648,2.526c1.69,0.179 3.366,0.192 5.055,0.164c4.832,-0.104 9.712,-0.372 14.548,-0.493c1.689,0 3.496,0.068 5.108,0.493c3.823,1.097 7.704,1.241 11.639,1.152c3.11,-0.028 6.237,-0.081 9.388,-0.109c2.322,-0.028 4.579,0.028 6.862,0c2.627,0 5.02,-0.91 7.303,-1.867c0.147,-0.319 0.274,-0.482 0.274,-0.603c0.069,-2.578 0.361,-5.144 1.372,-7.577c0.18,-0.433 0.098,-0.947 0.219,-1.372c0.147,-0.514 0.364,-1.062 0.547,-1.594c0.263,-0.609 0.674,-1.173 0.823,-1.813c0.754,-3.039 2.278,-5.879 2.8,-8.948c0,-0.089 0.075,-0.075 0.164,-0.164l0.055,-16.143c-0.129,-0.107 -0.3,-0.227 -0.328,-0.438c-0.406,-2.25 -0.846,-4.442 -1.261,-6.697c-0.338,-1.913 -1.786,-3.25 -3.733,-3.129c-0.865,0 -1.699,0.282 -2.526,0.493c-1.086,0.317 -2.168,0.789 -3.293,0.878c-3.86,0.307 -7.742,0.74 -11.639,-0.11c-1.763,-0.317 -3.581,-0.667 -5.381,-0.878c-2.736,-0.253 -5.466,-0.676 -8.127,-1.316c-0.935,-0.208 -1.931,-0.164 -2.91,-0.164c-3.373,-0.028 -6.82,0 -10.268,0c-1.913,0 -3.746,0.402 -5.546,1.042c-1.875,0.704 -3.779,1.118 -5.655,1.758c-0.478,0.109 -1.078,0.342 -1.261,0.659c-0.487,0.729 -1.168,0.795 -1.922,0.823c-1.984,0.211 -4.05,0.336 -6.038,0.547c-5.624,0.797 -11.321,1.437 -17.02,1.648c-3.634,0.215 -7.218,0.504 -10.817,0.715c-4.011,0.317 -7.999,0.67 -11.971,0.987c-6.857,0.478 -13.639,1.02 -20.424,1.977c-5.511,0.849 -11.016,1.308 -16.527,1.097c-13.155,-0.532 -26.247,0.068 -39.366,0.493c-14.542,0.527 -29.124,0.878 -43.705,0.878c-3.6,-0.109 -7.273,-0.234 -10.872,-0.659c-5.957,-0.746 -11.918,-1.022 -17.953,-0.933c-9.222,0.105 -18.435,-0.578 -27.618,-1.428c-8.917,-0.814 -17.802,-1.739 -26.684,-2.8c-8.622,-1.028 -17.258,-1.327 -25.915,-1.206c-9.407,0.208 -18.867,0.308 -28.275,0.219c-3.223,0 -6.44,-0.343 -9.662,-0.768c-3.976,-0.529 -7.923,-0.961 -11.971,-0.933c-5.585,0.061 -11.177,0 -16.801,0c-20.165,-0.032 -40.377,0.163 -60.506,1.703c-2.473,0.213 -4.938,0.448 -7.413,0.659c-4.985,0.382 -10.076,0.672 -15.098,1.097c-1.422,0.104 -2.841,0.459 -4.228,0.548c-5.548,0.443 -11.016,0.831 -16.527,1.042c-13.98,0.758 -28.022,0.87 -42.002,0.659c-4.574,0 -9.083,-0.401 -13.618,-0.933c-5.695,-0.606 -11.338,-1.251 -17.075,-1.372c-4.947,-0.103 -9.93,-0.336 -14.879,-0.547c-3.222,-0.107 -6.44,-0.504 -9.662,-0.715c-5.401,-0.426 -10.764,-0.947 -16.199,-1.372c-6.523,-0.519 -13.116,-0.748 -19.711,-0.659c-0.753,0.03 -1.433,-0.082 -2.143,-0.11c-0.308,-0.443 -0.532,-0.725 -0.715,-1.042c-1.126,-1.968 -2.827,-2.855 -4.999,-2.855c-1.764,0 -3.348,-0.401 -4.999,-0.933c-1.652,-0.549 -3.366,-0.976 -5.055,-0.659c-1.837,0.317 -3.617,0.149 -5.381,-0.383c-2.589,-0.732 -5.194,-0.999 -7.855,-0.878c-2.472,0.104 -4.905,-0.083 -7.303,-0.933c-1.671,-0.616 -3.367,-0.876 -5.055,-0.768zM625.005,658.897c-0.937,0.602 -1.16,1.405 -1.428,2.255c-1.197,3.295 -3.212,6.033 -5.984,8.127c-1.045,0.785 -2.242,1.563 -3.293,2.307c-2.247,1.651 -4.471,3.31 -6.643,4.999c-2.097,1.652 -4.048,3.408 -6.148,5.055c-2.438,1.911 -5.197,3.202 -8.236,3.842c-5.097,1.097 -10.273,1.992 -15.484,2.417c-3.561,0.268 -6.971,0.924 -10.268,2.199c-2.663,1.083 -5.301,2.013 -7.962,3.074c-3.861,1.573 -7.901,2.32 -12.024,2.199c-2.96,-0.089 -5.876,-0.055 -8.838,-0.055c-3.26,0.028 -6.404,-0.757 -9.443,-2.032c-4.046,-1.689 -8.123,-3.24 -12.133,-4.887c-2.475,-1.018 -4.912,-2.138 -7.084,-3.678c-3.145,-2.182 -6.312,-4.277 -9.497,-6.371c-1.875,-1.276 -3.779,-2.556 -5.655,-3.788c-1.726,-1.233 -3.273,-2.615 -4.284,-4.558c-0.225,-0.467 -0.572,-1.003 -0.987,-1.428c-2.175,-2.473 -3.271,-1.929 -5.108,-0.547c-1.988,1.509 -3.537,3.446 -4.887,5.546c-1.239,1.912 -2.296,3.905 -3.571,5.819c-1.276,1.871 -2.56,3.841 -4.172,5.381c-3.786,3.634 -7.981,6.826 -12.628,9.333c-2.96,1.573 -6.068,2.702 -9.443,3.019c-1.501,0.21 -3.004,0.561 -4.503,0.878c-5.511,1.011 -10.998,2.16 -16.582,2.8c-3.187,0.393 -6.239,0.271 -9.278,-0.933c-2.925,-1.17 -5.986,-1.775 -9.059,-2.307c-2.51,-0.414 -5.01,-1.008 -7.522,-1.648c-1.387,-0.343 -2.699,-1.015 -3.678,-2.143c-1.685,-1.988 -3.921,-3.263 -6.093,-4.613c-2.358,-1.425 -4.633,-2.963 -6.916,-4.503c-2.848,-1.91 -5.607,-3.986 -8.455,-5.929c-1.988,-1.385 -3.724,-2.94 -4.999,-4.999c-0.232,-0.409 -0.484,-0.727 -0.823,-1.152c-1.576,-1.797 -3.039,-1.837 -4.503,0c-0.64,0.828 -1.181,1.786 -1.703,2.636c-1.164,2.06 -2.734,3.612 -4.722,4.887c-1.278,0.825 -2.56,1.717 -3.571,2.8c-2.064,2.065 -4.461,3.546 -7.194,4.503c-1.984,0.758 -3.908,1.567 -5.819,2.417c-2.927,1.421 -5.93,2.494 -9.115,3.238c-3.036,0.758 -6.151,1.337 -9.224,1.977c-4.535,0.931 -9.083,1.903 -13.618,2.964c-3.261,0.71 -6.248,0.246 -8.948,-1.813c-2.399,-1.753 -4.932,-3.242 -7.523,-4.668c-1.162,-0.596 -2.261,-1.399 -3.348,-2.143c-1.912,-1.383 -3.976,-2.558 -6.148,-3.515c-1.309,-0.595 -2.602,-1.226 -3.952,-1.758c-2.477,-1.042 -4.648,-2.554 -6.371,-4.613c-1.237,-1.466 -2.743,-2.721 -4.394,-3.678c-0.865,-0.564 -1.733,-1.226 -2.636,-1.758c-2.434,-1.722 -4.487,-3.724 -5.874,-6.424c-0.45,-0.862 -0.975,-1.673 -1.539,-2.417c-0.75,-1.013 -1.538,-1.938 -2.964,-2.255c-0.342,0.456 -0.703,0.836 -1.042,1.261c-1.501,1.721 -2.852,3.547 -4.503,5.162c-1.687,1.647 -3.636,3.073 -5.436,4.613c-1.835,1.53 -3.921,2.617 -6.093,3.678c-2.847,1.396 -5.627,2.841 -8.4,4.339c-2.773,1.498 -5.526,2.885 -8.565,3.842c-2.51,0.828 -4.931,1.837 -7.522,2.581c-1.725,0.55 -3.527,1.097 -5.327,1.097c-6.632,0.107 -13.257,0.421 -19.93,-0.219c-1.049,-0.061 -2.118,-0.121 -3.129,0c-3.524,0.3 -5.089,0.946 -4.449,5.217c0.31,2.242 0.079,4.342 -0.603,6.478c-0.186,0.747 -0.317,1.455 -0.438,2.199c-0.154,0.955 0.358,1.711 1.261,1.922c0.377,0.029 0.791,0.11 1.206,0.11c3.302,0.198 6.604,0.422 9.939,-0.11c2.325,-0.317 4.723,-0.67 7.084,-0.987c2.734,-0.452 5.409,-0.781 8.181,-1.206c4.31,-0.748 8.594,-1.615 12.904,-2.255c7.722,-1.111 15.557,-1.261 23.389,-1.261c1.574,0 3.202,0.234 4.777,0.659c3.748,0.786 6.848,2.758 8.948,6.093c0.406,0.64 0.835,1.282 1.206,1.922c1.125,1.645 2.666,2.597 4.613,3.129c2.811,0.786 5.699,1.622 8.51,2.472c5.136,1.625 10.217,1.733 15.428,0.383c5.435,-1.39 10.998,-2.375 16.582,-2.8c5.059,-0.301 10.058,-1.02 15.043,-1.977c5.511,-1.061 11.086,-1.303 16.746,-0.878c3.973,0.336 8.014,0.41 12.024,0.438c4.872,0.072 9.663,-0.346 14.274,-2.143c1.685,-0.629 3.312,-0.41 4.887,0.547c1.8,1.094 3.58,2.169 5.491,3.019c4.945,2.212 9.843,4.611 14.603,7.194c3.934,2.06 8.077,3.365 12.462,3.897c1.8,0.229 3.51,0.672 5.272,1.097l11.971,-0.274c1.911,-0.913 4.068,-1.031 6.093,-1.152c4.157,-0.321 8.374,-0.342 12.572,-0.659c3.785,-0.23 7.617,-0.402 11.365,-1.042c6.337,-1.064 12.684,-1.437 19.055,-1.316c2.548,0.028 5.139,0.075 7.687,0.164c2.514,0.114 4.907,-0.411 7.194,-1.539c1.385,-0.69 2.764,-1.331 4.228,-1.648c2.173,-0.522 4.188,-1.277 5.874,-2.745c1.128,-1.066 2.346,-1.191 3.733,-0.659c0.786,0.317 1.631,0.561 2.417,0.878c1.985,0.7 4.048,1.097 6.148,1.097c1.238,0 2.442,0.028 3.678,0c4.009,-0.146 7.962,0.527 11.859,1.484c6.707,1.766 13.455,3.461 20.203,5.108c9.371,2.224 18.688,2.048 27.947,-0.768c7.009,-2.104 13.881,-4.71 20.589,-7.632c1.574,-0.624 3.146,-1.278 4.832,-1.703c2.476,-0.672 4.797,-1.698 7.084,-2.855c4.795,-2.368 9.642,-4.552 14.439,-6.807c0.263,-0.089 0.555,-0.075 0.823,-0.164c1.947,-0.748 3.943,-0.793 5.819,0.164c1.277,0.638 2.608,1.293 3.733,2.143c3.523,2.624 7.493,4.033 11.803,4.777c2.997,0.456 5.957,1.075 8.729,2.307c4.198,1.84 8.339,1.988 12.462,0c0.342,-0.215 0.703,-0.317 1.042,-0.438c2.174,-0.771 4.41,-1.234 6.697,-1.206c5.361,0.107 10.71,0.239 16.032,0.328c0.936,0 1.92,0.083 2.855,0.055c2.474,-0.074 4.38,-1.062 5.655,-3.238c1.423,-2.445 2.507,-4.912 3.293,-7.577c0.032,-0.213 -0.136,-0.557 -0.164,-0.768c-3.375,-0.703 -8.428,-0.513 -13.563,0.548c-1.534,-0.56 -2.786,-1.105 -4.061,-1.316c-3.073,-0.682 -6.021,-1.599 -8.948,-2.8c-1.835,-0.785 -3.779,-1.288 -5.655,-2.032c-2.024,-0.786 -4.108,-1.498 -5.984,-2.581c-4.535,-2.654 -8.839,-5.579 -12.849,-8.948c-2.095,-1.839 -4.266,-3.549 -6.478,-5.272c-1.798,-1.394 -3.377,-3.011 -4.613,-4.999c-1.198,-1.914 -2.383,-3.873 -3.733,-5.71c-0.974,-1.278 -2.151,-2.442 -3.238,-3.571c-0.526,-0.56 -1.165,-0.781 -1.758,-1.206z" /></svg>