<svg xmlns="http://www.w3.org/2000/svg" viewBox="0 0 953 960" width="953" height="960"><path d="M560.484,888.506c0.006,0.009 0.01,0.016 0.02,0.026c-0.098,0.041 -0.103,0.025 -0.02,-0.026z" /> <path d="M622.858,860.75c0.097,-0.09 0.139,-0.109 0.157,-0.109c-0.063,0.047 -0.09,0.059 -0.157,0.109z" /> <path d="M758.384,721.886c-1.103,0.855 -1.849,1.448 -2.423,1.837c0.804,-0.62 1.608,-1.245 2.423,-1.837z" /> <path d="M427.768,0.521v0.012h0.061c1.137,0.143 2.287,0.226 3.468,0.353l2.999,0.175c1.41,0.03 2.832,0.03 4.291,0c-3.257,0.389 -9.799,1.058 -1.708,2.646c13.4,0.166 3.056,0.941 10.464,2.823c13.267,0.833 2.512,-2.668 21.989,0.117c2.1,0.212 0.21,-0.888 -1.882,-1.529c4.495,0.678 8.734,1.097 11.818,1.29c6.551,0.084 12.955,-0.057 21.343,0.88c-5.689,-0.516 -10,-1.076 -2.294,-1.765c-3.34,1.286 10.573,1.41 15.58,2.353l1.351,-0.822c4.021,0.946 -0.229,1.247 -3.528,1.47c0.09,-0.308 -1.087,-0.559 -3.526,-0.529c-6.422,0.555 -4.107,3.642 5.998,4.114c10.871,-0.639 9.117,-2.731 7.23,-3.584c1.371,0.094 2.569,0.175 3.641,0.175c1.238,0 2.324,-0.058 3.352,-0.058c1.666,0.256 2.29,0.262 3.233,0.292c0.814,0.03 1.685,0.03 2.411,0c1.504,-0.065 2.774,-0.169 4.233,-0.234c2.869,-0.088 6.104,0.078 11.583,1.706c3.127,0.554 12.848,5.768 22.696,7.997c5.433,-0.813 -12.107,-3.748 -6.115,-4.172c3.898,1.878 7.946,3.275 12.229,3.879c4.366,0.556 8.838,0.751 13.463,0.88c9.331,0.302 19.27,0.392 29.928,3.174l-2.999,1.882c2.439,0.427 4.838,0.717 7.405,1.117c1.501,0.771 3.063,1.583 4.647,2.353c1.374,0.648 2.795,1.3 4.291,1.941l-6.349,-4.527c5.093,1.971 15.467,7.625 11.23,7.466c11.128,3.514 12.86,5.57 22.282,10.878c-10.188,-5.225 -0.05,-0.401 -8.056,-3.057c4.409,2.742 7.113,4.253 9.465,5.41c1.155,0.514 2.252,1.002 3.409,1.47c1.244,0.472 2.515,0.948 4.055,1.589c0.598,0.43 1.488,1.149 2.472,1.882c-1.54,-0.302 0.97,3.471 3.409,5.527c6.805,3.98 16.663,12.882 25.396,19.342l-0.41,0.471l3.528,2.823l2.997,2.586c3.508,1.111 6.929,2.266 10.525,3.468l11.288,3.762c7.536,2.439 15.059,4.674 22.637,5.998c0.383,0.065 0.752,0.204 1.115,0.234l-1.589,-0.588c-2.228,-1.684 -0.552,-1.626 5.998,0c1.883,2.357 4.094,5.209 6.231,7.821c1.8,2.229 3.473,4.279 4.586,5.351c0.298,1.324 -0.062,2.297 1.825,4.822c1.708,-1.028 5.095,5.029 7.405,6.525c3.209,5.437 -2.378,0.848 4.172,9.407c2.649,3.257 3.755,2.96 4.115,2.06c0.168,1.065 1.434,3.578 2.292,5.291c1.195,1.626 3.811,4.322 5.82,6.29c-1.799,-0.939 -3.619,-3.521 -4.647,-4.291c-1.246,0.302 1.791,2.626 0.763,3.526c3.639,3.555 2.803,0.03 6.997,4.822l-5.412,-2.823c1.588,2.011 4.442,3.638 5.47,4.408c-1.587,-1.131 -2.52,-1.28 -3.116,-1.057l5.468,5.115c1.784,-0.297 -0.845,-5.084 0.352,-5.644c4.197,4.624 8.414,8.26 12.522,11.641c2.055,1.63 4.129,3.282 6.056,4.822l2.882,2.353l3.291,2.763l2.411,3.233l-2.704,-0.703c3.172,4.154 4.892,6.062 6.644,7.171l4.527,6.761c-3.166,-3.494 -4.587,-4.432 -5.998,-3.879c5.31,6.85 11.58,16.856 14.875,17.284l-0.469,-0.058c5.524,10.105 19.206,29.82 18.049,29.691c7.834,9.504 15.779,23.067 18.051,21.87c4.838,5.523 8.737,17.186 14.346,19.58c3.894,7.962 -0.207,0.716 -3.291,-0.352c3.94,8.006 12.514,12.616 11.405,17.111c7.189,7.837 -0.895,-2.454 2.53,-0.527c-0.428,0.853 0.222,2.407 1.29,4.289c0.129,6.676 2.645,17.303 2.177,24.752c1.883,4.064 0.296,-4.402 2.647,2.704c-0.915,-0.602 -0.605,3.307 -0.412,5.234l2.294,1.648l-2.647,7.113l1.174,8.35l0.117,0.352c2.228,1.586 0.317,-4.425 6.997,8.29l-0.705,-0.941c0.258,5.605 7.3,11.717 11.583,24.988c-1.588,-4.492 -1.725,-1.36 -2.882,-2.469l3.998,6.642c-0.403,-0.591 -0.717,-0.814 -0.588,0c0.9,4.283 1.874,4.977 3.116,7.114c0.551,1.503 1.011,3.031 1.234,6.115c-0.689,-2.054 -1.341,-2.923 -1.765,-3.116l2.823,10.464l1.174,2.231l-0.763,-0.644l8.821,32.926l-9.994,49.093l0.352,1.115c0.212,0.064 0.51,0.087 0.703,0.117l2.353,6.7c0.99,-0.56 0.298,-5.431 -0.471,-8.467c-0.084,-2.999 6.277,10.174 8.763,17.58c5.221,20.289 -2.53,5.165 0.469,19.166l2.413,6.173l1.115,3.057v-0.175l1.41,3.937l-0.644,3.641l-0.352,2.706h-1.174c-1.367,2.742 -0.559,4.552 -0.529,5.41c-1.238,-1.629 -4.047,14.533 -6.056,21.811l1.942,-2.353c-1.836,21.108 -10.866,31.454 -12.875,47.977l-0.234,11.876l-2.472,1.942c0,1.629 -0.115,2.957 -0.115,4.114c-0.343,4.409 -0.281,6.991 -3.409,15.169c-2.138,5.222 -4.188,10.496 -6.115,15.933l-2.823,8.114l-2.823,8.702c-9.588,14.769 -17.416,27.98 -26.751,42.92l-7.114,6.995l-6.7,6.7c-4.542,4.325 -9.091,8.648 -13.758,12.756c0.273,-0.036 0.616,-0.224 1.044,-0.515c-3.673,2.836 -7.159,5.86 -9.689,8.215c-4.413,7.106 -8.198,15.012 -11.407,22.165c-1.587,3.641 -3.234,7.224 -4.822,10.82l-2.411,5.412l-1.351,2.704l-2.116,3.937c-1.669,1.284 -3.424,2.535 -5.176,3.821c-1.41,0.939 -2.832,1.912 -4.291,2.94c-2.954,1.927 -6.04,3.787 -9.465,5.585l1.293,-1.823c-12.844,9.545 1.368,-1.946 -8.819,3.879c-0.255,3.385 -15.759,13.038 -22.224,19.758c0.817,-1.286 3.305,-3.214 5.232,-5.176c-1.712,0.644 -3.128,-0.093 -6.466,3.116c-2.439,3.725 -6.779,8.15 -11.876,12.817c-2.611,2.228 -5.271,4.556 -8.056,6.995c-2.611,2.182 -5.254,4.46 -7.821,6.644c-1.883,2.482 -3.636,4.899 -5.349,7.171c-2.483,0.424 -12.695,10.319 -19.461,14.17c-0.6,1.673 -1.597,4.796 -2.411,7.704c-1.585,1.286 -2.869,2.563 -3.937,3.937c-0.644,0.771 -1.265,1.623 -1.825,2.353c-0.689,0.936 -1.359,1.863 -2,2.763c-1.799,0.69 -4.208,1.605 -5.41,2.294l5.881,-1.589l6.936,-8.469c-0.032,0.183 -0.063,0.342 -0.063,0.471c0.254,-0.471 0.803,-1.202 1.234,-1.884c1.923,-2.322 3.021,-3.781 2.922,-3.811c5.08,-3.752 0.581,1.325 2.312,2.168c-1.325,1.632 -3.334,3.947 -5.176,6.173c-0.943,1.156 -1.842,2.205 -2.704,3.233c-1.54,1.748 -2.948,3.238 -4.057,4.348c-1.929,0.391 -3.2,0.512 -3.76,0.353c-3.086,0.753 -3.621,0.886 -5.117,1.174c-1.323,0.255 -2.663,0.534 -4.289,0.822c-1.885,0.773 -4.051,1.453 -6.409,1.884l0.999,-0.412c-0.42,-0.128 -0.898,-0.145 -1.41,-0.175c-4.925,0.86 -10.519,2.816 -15.874,5c-2.697,1.114 -5.333,2.205 -7.819,3.233c-1.235,0.559 -2.441,1.117 -3.643,1.589c-0.516,0.254 -1.036,0.51 -1.589,0.703c-0.032,0.119 -0.058,0.287 -0.058,0.352c-0.031,-0.119 -0.058,-0.257 -0.058,-0.352c-0.03,-0.512 0.129,-1.063 0,-1.351c-0.255,-0.295 -0.467,-0.483 -0.939,-0.642c-0.254,-0.379 -2.508,0.428 -2.92,-0.208c0.097,-0.042 0.286,-0.14 0.565,-0.322c0.344,-0.165 0.938,-0.525 1.708,-0.997c3.768,-0.942 10.339,-2.706 17.872,-4.588c-1.028,0.042 -1.716,-0.074 -2.116,-0.586c-3.127,0.258 -5.887,0.878 -8.584,1.648c-1.374,0.424 -2.683,0.935 -4.057,1.407c-1.413,0.423 -2.956,1.005 -3.468,1.293l-0.999,0.763l-1.589,1.234c-1.194,0.855 -2.355,1.643 -3.641,2.586c-2.53,1.713 -5.391,3.568 -8.819,5.41c0.77,-0.728 2.377,-2.163 1.349,-2.292c-5.221,2.784 -9.029,6.843 -9.582,8.469c-1.07,-0.339 -4.433,0.938 -8.114,2.821c-1.884,0.942 -3.787,2.116 -5.585,3.233c-0.862,0.599 -1.76,1.077 -2.53,1.589c-0.984,0.726 -1.89,1.464 -2.704,2.06c-0.15,0.094 -0.322,0.262 -0.352,0.292c-3.429,1.153 -4.444,1.719 -6.115,2.233c-1.671,0.514 -3.92,0.908 -8.76,1.468l4.172,-1.765c-11.817,0.469 -9.325,2.923 -19.047,3.116c3.851,0 4.03,-1.244 1.115,-1.115c-12.113,2.181 -12.296,2.9 -20.814,6.408l1.41,-2.116c-9.723,1.98 -27.665,5.31 -29.972,3.526c0.521,1.092 -1.758,1.847 -5.363,2.353c-1.97,0.3 -4.411,0.544 -6.936,0.703c-2.399,0.119 -4.926,0.223 -7.407,0.352c-4.413,0.682 -8.578,1.275 -11.23,1.706c3.035,-0.644 3.539,-1.59 3.762,-2.058c-6.549,2.098 -13.225,3.606 -19.991,4.763l-10.17,1.589l-10.761,1.531l-8.702,0.352l-8.409,0.527l-3.235,-2.646c-10.148,0.813 -12.647,6.679 -23.694,7.405l3.937,-1.706c-4.584,0.385 -8.694,0.864 -10.878,1.057c-3.807,-0.77 -7.159,-1.457 -10.287,-2.058c-2.782,-0.556 -5.348,-1.09 -7.879,-1.65c-5.047,-1.111 -9.929,-2.211 -16.05,-3.585l0.703,-1.823c-2.483,-0.09 -5.212,-0.475 -7.997,-0.763c-2.912,-0.343 -5.887,-0.694 -8.584,-1.057c-1.883,-0.462 -2.099,-0.485 -2.999,-0.644c-3.51,-2.828 -9.935,-5.407 -17.815,-7.938c-3.892,-1.197 -8.288,-2.512 -12.696,-3.879c-2.182,-0.689 -4.418,-1.315 -6.644,-2l-7.405,-2.469c-2.44,-1.323 -4.838,-2.549 -7.232,-3.879c-2.141,-1.2 -4.215,-2.537 -6.231,-3.823c-4.115,-2.571 -7.889,-5.215 -11.054,-7.997l-2.999,2.411c-2.742,-1.497 -5.787,-3.175 -8.702,-4.763c-1.446,-0.817 -2.8,-1.655 -4.174,-2.469c-1.239,-0.727 -2.986,-1.852 -2.763,-1.882c-0.21,-0.212 0.112,-0.16 -0.529,-0.353c-0.512,-0.253 -0.951,-0.538 -1.351,-0.761c-0.9,-0.516 -1.663,-1.09 -2.175,-1.65l1.882,0.588c1.582,-2.439 -8.703,-2.341 -14.053,-4.35c-4.197,-0.77 -8.779,-0.102 -5.351,1.351c-3.811,-1.282 -7.949,-2.593 -12.229,-3.879c-4.796,-1.322 -9.79,-2.74 -14.758,-4.114c-4.323,-2.956 -8.663,-5.91 -12.817,-8.821c-3.771,-2.654 -7.409,-5.265 -10.876,-7.704c-6.805,-4.965 -12.557,-9.546 -16.108,-13.227c-0.559,-0.339 -1.059,-0.716 -1.531,-0.939c-1.194,-1.158 -2.444,-2.3 -3.641,-3.409c-1.068,-0.987 -2.102,-1.939 -3.174,-2.882c-2.055,-1.886 -4.088,-3.685 -6.056,-5.527c-4.109,-3.555 -7.966,-7.035 -11.993,-10.586c-3.936,-3.515 -7.946,-7.162 -12.054,-11.054c-4.281,-3.725 -8.661,-7.644 -13.286,-12.052l0.529,-0.058c-6.08,-6.332 -18.208,-19.025 -16.108,-21.167c-14.131,-12.415 -25.479,-17.822 -40.806,-34.392l4.291,2.586c-0.604,-0.689 -1.216,-1.332 -1.942,-2.058c-0.899,-0.817 -1.878,-1.789 -2.821,-2.647c-1.33,-1.881 -1.877,-2.425 -2.647,-3.409c-0.77,-0.863 -1.417,-1.641 -2.058,-2.411c-1.371,-1.497 -2.487,-2.756 -2.999,-3.352c-1.072,-1.669 0.262,-0.763 0.822,-0.763c-2.185,-5.05 -5.326,-6.803 -7.938,-10.228l1.765,0.941c-1.755,-3.428 -3.958,-7 -6.527,-10.761c-1.285,-1.889 -2.629,-3.802 -3.996,-5.764c-1.587,-2.142 -3.211,-4.332 -4.88,-6.642c-2.955,-6.422 -6.088,-13.136 -9.172,-19.816c-2.955,-6.469 -5.756,-13.017 -8.114,-19.225c1.883,3.811 2.1,1.342 1.941,-0.41c-0.679,-0.769 -1.505,-1.783 -2.231,-2.94c-0.34,-0.556 -0.686,-1.124 -1.117,-1.765c-0.383,-0.77 -0.557,-0.998 -1.29,-2.586c-0.516,-1.543 -1.124,-3.166 -1.765,-4.88c-0.472,-1.544 -1.029,-3.178 -1.589,-4.766c-0.941,-3.295 -1.898,-6.699 -2.882,-9.994c-1.799,-6.547 -3.409,-12.63 -4.647,-16.226l2.706,5.412c-3.602,-9.42 -3.44,-13.075 -3.762,-18.168c0.081,-4.585 0.262,-8.169 -2.177,-16.815l-0.234,10.82c-0.684,-7.58 -2.266,-13.827 -3.468,-11.818c-0.298,-8.861 2.325,-1.494 0.527,-14.64c0.811,-0.727 2.135,9.375 2.647,4.88l-0.41,-18.579v-0.058c0.096,-0.164 -0.046,-1.392 -0.175,-2.292c-0.476,-1.196 -1.13,-2.96 -2.119,-5.527c-3.38,2.917 -5.371,-14.235 -6.056,-4.174c-2.31,-6.207 -4.363,-12.248 -6.29,-18.108c-1.927,-6.035 -3.802,-11.905 -5.644,-17.639c-0.467,-3.038 -0.92,-5.922 -1.351,-8.877c-0.514,-2.786 -0.996,-5.548 -1.468,-8.29c-1.025,-5.44 -2.19,-10.861 -3.643,-16.168c0.383,-1.713 0.453,-4.052 0.294,-6.878c-0.108,-1.458 -0.37,-3.046 -0.529,-4.586c-0.13,-0.818 -0.227,-1.614 -0.292,-2.472c-0.197,-1.193 -0.429,-2.463 -0.588,-3.701c1.07,-3.467 2.161,-7.019 3.233,-10.404c0.984,-2.994 1.865,-5.873 2.765,-8.231c1.76,-4.754 3.469,-7.684 4.88,-6.527c3.554,-12.117 5.81,-22.037 5.41,-30.218c1.018,-5.881 2.063,-12.205 3.118,-16.285c-0.987,8.346 -2.989,21.715 -3.118,28.395c2.787,-11.129 4.486,-27.277 5.47,-33.57l3.351,-2.177c0.385,-9.502 3.823,-7.582 3.823,-16.401c-0.032,-0.171 -0.028,-0.303 -0.058,-0.703c-0.18,0.309 -0.37,0.427 -0.529,0.586c-0.21,0.21 -0.451,0.441 -0.644,0.763c0.064,-0.299 0.206,-0.629 0.236,-0.822c2.504,-16.181 0.06,-17.422 2.116,-33.394l0.941,0.939c0.557,-2.184 0.693,-4.843 0.822,-7.585c0.063,-1.367 0.046,-2.748 0.175,-4.115l0.352,-2.058c0.18,-0.856 0.34,-1.597 0.469,-2.411c0.468,-1.158 0.736,-1.841 1.058,-2.353c0.343,-0.6 0.832,-1.017 1.232,-1.529l-1.349,4.114l-0.999,7.23c1.202,-0.557 2.311,-3.217 3.468,-6.642c1.286,-2.486 2.216,-4.245 3.116,-5.704c3.034,-11.046 -1.655,-4.788 -0.115,-10.348c2.398,-1.714 1.101,-0.226 1.529,4.057c1.501,-5.651 3.223,-12.152 4.763,-18.402c0.769,-3.127 1.464,-6.191 2.06,-9.053c0.599,-3.171 1.176,-6.059 1.648,-8.584c0.941,-1.582 1.455,-2.722 1.648,-3.411c0.547,-0.299 0.586,0.471 0.586,0.471c8.135,-10.492 12.543,-21.849 18.579,-27.456l-1.351,2.231c1.84,-1.497 3.588,-3.448 5.176,-5.585l2.292,-3.409c0.814,-1.116 1.577,-2.287 1.706,-2.647c0.041,-0.468 0.752,-2.607 1.115,-3.937c0.517,-1.452 1.002,-2.841 1.47,-3.998c0.988,-2.311 1.998,-3.778 3.409,-3.937c2.479,-4.407 -4.077,10.629 0.763,3.823c6.721,-14.343 0.103,-11.052 6.056,-23.637c-0.773,1.721 -0.334,1.23 -0.175,2c1.67,-4.925 3.695,-10.61 5.879,-16.817c4.495,-4.197 9.384,-8.797 13.879,-12.99c3.51,-1.67 7.56,-4.531 11.759,-7.998c2.057,-1.798 4.224,-3.685 6.408,-5.527c2.056,-1.838 4.176,-3.746 6.232,-5.585c1.204,-1.842 2.385,-3.672 3.587,-5.47c1.282,-1.966 2.549,-3.876 3.879,-5.585c2.654,-3.597 5.3,-6.778 7.997,-9.172c-3.696,3.099 0.081,-3.193 0.163,-4.399c0.059,0.191 0.202,0.424 0.595,0.161c3.138,-4.666 2.331,-6.014 3.057,-8.114c0.981,-0.899 1.971,-2.405 2.999,-4.114c1.069,-1.97 2.28,-4.144 3.352,-6.115c1.195,-1.414 2.348,-2.753 3.291,-3.821c0.853,-0.899 1.696,-1.654 2.292,-1.942c-0.599,-0.727 2.831,-3.661 6.466,-7.171c-6.59,7.806 -0.923,3.686 -3.233,7.879c11.298,-10.144 9.746,-14.994 21.692,-25.398l3.057,-1.942l1.589,-0.997l2.116,-1.529l2.353,-0.705c0.689,-3.256 14.284,-8.301 13.643,-9.111c2.826,-0.258 6.612,-1.514 6.642,-0.061c5.476,-3.213 14.71,-5.942 16.462,-8.467l-6.056,2c4.581,-1.798 9.172,-4.016 12.171,-5.644c9.292,-6.423 16.824,-13.132 26.929,-17.757l1.823,3.526c2.872,-1.155 5.322,-2.663 7.587,-4.291c2.4,-1.798 4.671,-3.446 6.936,-5.115l2.882,-1.115c0.769,-0.302 1.655,-0.629 2.469,-0.822c1.625,-0.406 3.317,-0.733 5.115,-0.763c-3.3,-0.345 -3.739,0.242 2,-3.057c-1.457,0.389 -3.386,1.041 -5.527,1.941c-1.029,0.383 -2.089,0.879 -3.291,1.351c-1.285,0.471 -2.622,1.017 -3.996,1.529c-1.28,0.857 -2.651,1.775 -3.937,2.589c1.11,-0.986 1.759,-1.763 3.641,-3.174c2.487,-1.072 3.234,-1.583 4.822,-2.353l4.172,-2.292l-9.407,3.641l-10.348,7.114c6.892,-6.081 6.571,-5.44 2.589,-4.88c1.113,-0.857 2.127,-1.651 3.116,-2.292c0.468,-0.297 0.979,-0.659 1.41,-0.882c0.771,-0.422 1.488,-0.866 2.177,-1.29c0.726,-0.198 1.39,-0.451 2.116,-0.644c0.383,-0.13 0.776,-0.163 1.176,-0.292c0.771,-0.149 1.43,-0.342 2.119,-0.471c1.367,-0.3 2.555,-0.473 3.879,-0.761c2.654,-0.553 5.653,-1.353 9.933,-3.409c4.411,-0.855 0.473,1.944 5.527,1.174c4.281,-2.055 8.74,-3.051 12.936,-3.821c2.142,-0.427 4.202,-0.795 6.173,-1.117c2.058,-0.516 3.327,-0.898 5.939,-1.882c-0.686,0.342 -1.045,0.663 -0.822,0.822c0.302,-0.193 0.681,-0.287 0.939,-0.352c3.558,-0.231 6.58,-0.37 8.938,-0.529c2.272,-0.215 4.003,-0.57 4.94,-1.174l-5.995,-0.294c5.266,0 6.11,-1.621 16.168,-0.939c4.337,-0.767 7.248,-2.108 5.762,-2.704c2.323,0.293 4.449,0.802 3.116,1.648c6.68,-0.129 9.034,-0.995 10.703,-1.765c0.855,-0.383 1.485,-0.77 2.469,-1.058c0.347,-0.159 1.241,-0.287 1.529,-0.352c0,-0.032 0.046,-0.088 0.175,-0.058c0.094,-0.03 0.107,-0.03 0.236,0c0.213,-0.033 1.643,-0.637 2.586,-0.997c-0.842,0.551 -1.716,1.32 -1.115,1.29c2.412,-1.086 4.426,-2.129 6.173,-3.148c-3.109,2.048 -2.084,2.254 -1.293,2.441c0.482,0.036 0.855,0.203 0.295,0.763c-0.342,0.255 -0.865,0.605 -1.765,1.117c-0.512,0.21 -1.08,0.576 -1.765,0.939c-0.603,0.302 -1.572,0.792 -1.765,0.822c0.21,0.249 0.415,0.352 0.703,0.352c0.472,-0.044 0.948,-0.276 1.589,-0.469c1.201,-0.518 2.676,-1.186 4.172,-2c2.955,-1.709 6.19,-3.735 8.584,-4.588c6.084,-4.964 -0.685,-3.172 2.177,-5.998c0.301,0.64 3.058,-0.813 6.525,-2.353l-3.996,0.294c2.826,-1.544 5.551,-2.992 8.76,-5.176l-5.291,3.641c2.353,-1.153 5.365,-2.311 8.703,-3.641c1.669,-0.686 3.392,-1.505 5.234,-2.231c0.898,-0.467 1.91,-0.927 2.938,-1.351c1.527,-0.81 3.037,-1.641 4.647,-2.528zM360.896,220.3c-3.622,0.03 -7.242,0.101 -10.858,0.242c-6.251,0.263 -12.255,1.28 -18.437,2.026c-9.951,1.136 -19.936,1.313 -29.916,2.558c-7.565,0.924 -15.241,1.743 -22.845,2.135c-7.817,0.425 -15.737,-0.534 -23.554,0.327c-14.706,1.632 -26.005,8.954 -38.901,14.887c-3.871,1.739 -8.135,2.662 -11.688,4.974c-4.086,2.629 -6.36,5.754 -11.512,6.289c-8.42,0.885 -19.327,1.065 -27.426,-0.533c-7.462,-1.49 -13.998,-6.289 -21.636,-6.397c-1.812,-0.026 -3.696,-0.105 -5.509,0c-2.237,0.105 -3.727,1.103 -5.824,1.491c-3.091,0.568 -7.426,-1.595 -9.629,1.248c-2.947,3.801 1.562,8.173 3.659,11.155c6.147,8.884 11.761,18.261 17.409,27.461c3.162,5.186 4.55,10.588 6.967,16.06c1.457,3.304 3.269,5.933 3.976,9.519c0.853,4.372 2.628,8.205 3.871,12.469c1.423,4.763 1.919,9.772 3.199,14.57c3.199,11.936 9.521,22.912 14.352,34.247c5.219,12.293 12.398,23.77 17.94,35.955c5.97,13.109 8.633,28.845 11.69,42.845c5.577,25.507 15.952,49.171 30.093,71.412c2.628,4.154 5.364,8.242 8.029,12.399c3.483,5.401 5.721,11.334 8.954,16.838c2.807,4.868 6.854,9.17 10.054,13.855c3.554,5.224 5.933,10.98 9.235,16.345c4.086,6.576 8.172,12.826 11.51,19.825c3.053,6.433 7.709,11.511 11.793,17.338c3.908,5.579 6.576,11.83 10.196,17.585c4.653,7.318 10.481,13.715 14.745,21.282c3.976,7.143 7.602,14.353 12.896,20.747c6.751,8.138 12.398,16.238 17.443,25.44c6.643,12.152 13.644,24.23 21.102,35.951c2.879,4.512 5.19,9.772 8.672,13.857c3.909,4.545 7.747,8.918 11.19,13.855c7.566,10.907 15.28,22.772 20.925,34.709c2.808,5.97 5.078,11.298 8.883,16.767c3.054,4.44 3.587,9.804 6.499,14.317c3.803,5.97 8.101,11.084 12.116,16.876c2.845,4.159 6.466,7.745 9.273,11.83c2.593,3.803 3.164,11.264 7.353,13.501c0.463,-3.159 0.746,-6.11 -1.209,-10.729c0.105,-4.086 -1.313,-8.917 -2.843,-12.754c-4.051,-10.41 -8.491,-21.029 -13.641,-30.981c-5.26,-10.162 -9.274,-20.962 -14.069,-31.37c-4.017,-8.703 -7.744,-17.444 -11.296,-26.29c-4.653,-11.546 -8.849,-22.847 -15.527,-33.538c-6.961,-11.12 -12.113,-23.126 -18.901,-34.422c-6.747,-11.227 -14.849,-22.062 -19.965,-34.105c-4.512,-10.589 -9.343,-20.998 -14.352,-31.37c-5.898,-12.189 -11.155,-24.551 -18.369,-36.133c-3.481,-5.616 -7.244,-11.618 -9.695,-17.694c-1.919,-4.832 -2.702,-9.769 -5.616,-14.245c-7.565,-11.689 -18.048,-21.814 -23.235,-34.818c-2.449,-6.219 -5.256,-12.042 -8.667,-17.833c-4.087,-6.966 -9.663,-13.432 -12.08,-21.139c-1.418,-4.44 -2.238,-8.492 -4.087,-12.827c-1.738,-4.157 -4.476,-8.171 -5.755,-12.469c-1.278,-4.153 -1.382,-7.885 -3.443,-11.866c-3.058,-5.969 -5.471,-11.97 -8.207,-18.117c-1.495,-3.304 -3.768,-6.219 -4.796,-9.699c-1.313,-4.619 -2.095,-9.273 -3.98,-13.783c-3.765,-8.811 -4.439,-18.334 -9.271,-26.754c-1.703,-2.983 -4.052,-5.686 -5.65,-8.703c-1.527,-2.879 -1.244,-4.195 -1.882,-7.428c-0.887,-4.476 -3.411,-8.703 -4.513,-13.216c-2.273,-9.522 -5.788,-18.758 -8.173,-28.243c-1.101,-4.44 -1.101,-7.92 -3.55,-12.076c-2.665,-4.624 -3.236,-7.25 -4.301,-12.044c-0.997,-4.476 -3.589,-8.206 -4.334,-12.756c-0.531,-3.054 -2.773,-6.502 -2.593,-9.449c1.988,-0.887 2.524,0.924 4.226,1.279c3.694,0.855 8.35,0.501 12.222,1.069c3.803,0.533 7.602,0.329 11.476,0.297c6.71,-0.026 13.678,0.641 20.357,-0.297c5.613,-0.784 10.656,-0.961 16.411,-1.032c8.066,-0.079 15.38,-1.988 23.305,-2.875c14.992,-1.709 29.913,-3.34 44.941,-4.477c9.095,-0.677 17.872,-1.101 26.967,-0.996c8.313,0.054 16.448,-1.312 24.761,-1.526c21.102,-0.568 43.059,1.101 63.949,3.73c15.063,1.919 30.2,2.414 45.298,4.336c8.208,1.028 16.378,2.417 24.654,3.092c8.099,0.605 14.497,3.84 22.171,5.792c5.579,1.388 10.589,0.922 16.198,1.026c11.014,0.236 20.926,5.473 31.658,7.356c11.329,1.989 22.701,-0.235 33.821,-2.627c4.086,-0.887 7.675,-2.772 11.797,-3.554c4.405,-0.886 8.704,-1.064 13.213,-1.027c8.812,0.053 17.585,0.026 26.397,0c7.175,0 14.673,0.602 21.672,-1.279c4.904,-1.278 9.31,-3.197 14.46,-3.802c6.783,-0.746 13.535,-1.383 20.252,-1.811c2.025,-0.105 2.449,-0.642 4.366,-1.102c7.034,-1.742 16.558,-0.329 23.843,-0.329c7.604,0 16.625,-1.069 24.156,0.105c-1.527,4.369 -2.203,8.846 -3.905,13.11c-1.6,4.05 -2.417,7.535 -3.092,11.797c-0.96,5.966 -3.622,10.086 -5.792,15.628c-1.774,4.55 -2.77,9.381 -4.651,13.891c-3.909,9.272 -8.459,18.726 -12.864,27.714c-2.843,5.826 -3.266,11.935 -5.473,18.012c-1.703,4.724 -5.898,9.663 -8.883,13.788c-2.841,3.905 -5.718,6.496 -7.351,11.046c-1.316,3.657 -3.768,6.074 -5.507,9.629c-2.773,5.614 -4.374,12.296 -6.289,18.229c-1.352,4.228 -3.162,8.204 -4.726,12.361c-2.38,6.147 -4.406,12.649 -7.676,18.404c-3.194,5.541 -4.832,11.829 -8.56,17.053c-2.239,3.127 -5.187,5.541 -7.034,8.952c-1.46,2.662 -2.207,5.788 -3.554,8.528c-2.312,4.652 -5.366,9.023 -8.102,13.463c-2.912,4.691 -5.718,9.807 -8.098,14.744c-2.699,5.651 -3.199,11.833 -6.147,17.412c-1.382,2.594 -3.34,4.76 -4.868,7.282c-1.528,2.489 -2.129,5.331 -3.304,7.924c-1.631,3.622 -4.264,6.821 -6.074,10.374c-3.303,6.356 -7.105,12.258 -10.87,18.334c-3.98,6.465 -6.005,13.536 -9.487,20.216c-5.187,9.805 -8.349,20.783 -12.472,31.048c-4.051,10.127 -9.842,19.255 -15.489,28.564c-5.365,8.882 -8.243,19.187 -12.435,28.528c-2.417,5.435 -4.018,10.589 -5.935,16.098c-1.638,4.618 -4.476,9.127 -6.464,13.713c-3.626,8.241 -9.737,15.56 -14.037,23.517c-3.162,5.86 -5.255,12.185 -8.098,18.154c-1.918,4.086 -4.228,8.274 -5.543,12.572c-2.489,8.136 -8.243,15.135 -12.08,22.88c-4.227,8.563 -8.419,17.478 -11.83,26.363c-2.524,6.608 -3.484,13.715 -7.144,19.93c-1.245,2.096 -3.338,4.158 -3.16,6.784c0.747,-1.847 1.991,-2.771 2.985,-4.263c2.559,-3.943 4.193,-8.277 7.034,-12.151c2.312,-3.125 5.793,-5.506 7.781,-8.778c2.062,-3.372 2.983,-7.211 5.222,-10.551c4.618,-6.928 9.594,-13.003 14.957,-19.469c2.381,-2.875 3.766,-6.854 7.603,-8.313c1.527,-0.605 2.913,-0.461 4.372,-1.353c3.696,-2.307 6.749,-7.994 9.451,-11.296c3.591,-4.368 7.213,-8.703 10.98,-12.932c5.469,-6.111 10.835,-11.83 15.951,-18.369c6.323,-7.996 11.26,-16.449 17.12,-24.659c5.472,-7.567 11.444,-14.318 15.846,-22.558c4.369,-8.172 9.983,-15.562 15.953,-22.74c6.57,-7.886 11.44,-15.807 16.876,-24.334c5.116,-7.961 10.124,-14.997 13.039,-24.019c4.651,-14.387 9.768,-28.637 14.208,-43.097c4.366,-14.246 5.79,-30.48 13.426,-43.625c8.849,-15.243 19.72,-29.348 27.142,-45.37c2.488,-5.435 4.833,-11.012 6.466,-16.731c2.416,-8.316 3.021,-17.088 6.11,-25.26c2.594,-6.892 6.005,-13.572 8.777,-20.392c3.411,-8.421 6.466,-16.807 11.512,-24.443c3.945,-5.97 5.223,-12.896 7.995,-19.362c3.34,-7.817 8.595,-14.496 11.44,-22.595c9.168,-26.362 25.01,-49.881 36.381,-75.317c1.918,-4.263 4.122,-8.276 5.792,-12.649c1.774,-4.582 4.62,-8.562 6.432,-13.035c1.171,-2.878 0.64,-4.943 0.922,-7.89c0.264,-2.523 2.413,-5.466 1.773,-7.953c0.002,0.001 0.005,0.003 0.008,0.004l-0.008,-0.008c0,0.001 0,0.003 0,0.004c-10.549,-4.406 -19.106,-11.721 -30.901,-13.035c-14.816,-1.633 -29.557,-1.99 -44.231,-4.76c-9.311,-1.741 -18.796,-1.595 -28.068,-3.338c-6.961,-1.314 -13.641,-3.73 -20.607,-5.045c-6.215,-1.17 -12.681,-2.841 -18.972,-3.34c-7.246,-0.568 -14.565,0.261 -21.85,-0.392c-16.411,-1.384 -32.897,-0.131 -49.275,-1.773c-7.959,-0.783 -15.878,-0.355 -23.837,-0.996c-8.495,-0.673 -16.772,-1.171 -25.297,-1.066c-15.242,0.156 -30.339,-1.419 -45.543,-1.384c-15.491,0.027 -30.626,0.356 -46.01,1.384c-13.395,0.885 -26.47,1.354 -39.863,1.389c-6.93,0 -13.999,0.46 -20.891,-0.262c-8.065,-0.816 -15.312,-2.628 -23.484,-2.558c-10.845,0.079 -21.729,-0.203 -32.595,-0.111zM487.801,342.349c-9.127,1.812 -16.196,18.299 -20.569,25.083c-4.653,7.176 -3.09,12.576 -4.477,20.499c-0.748,4.122 -1.421,8.953 -2.24,13.076c-1.277,6.569 -4.723,11.794 -6.32,18.296c-2.453,9.914 -5.08,19.968 -8.208,29.701c-2.415,7.566 -4.085,16.234 -8.455,22.985c-4.012,6.147 -4.619,9.097 -4.582,16.557c0.054,8.242 -1.632,18.652 -0.133,26.822c0.71,4.087 2.699,7.247 3.304,11.335c0.499,3.412 -0.355,7.212 -0.157,10.66c0.463,9.414 6.893,17.478 8.598,26.822c0.602,3.267 0.157,6.572 1.209,9.734c1.209,3.803 4.369,6.715 5.258,10.66c1.953,8.454 -1.455,17.656 0.925,26.147c2.275,8.099 2.414,15.455 2.379,24.194c-0.054,8.067 1.527,13.642 3.8,21.209c4.743,15.99 11.13,31.983 11.325,48.824c-0.069,0.677 -0.071,1.382 0.01,2.122c0.014,-0.71 -0.002,-1.415 -0.01,-2.122c0.476,-4.692 4.17,-8.047 6.157,-12.049c2.772,-5.474 4.264,-12.329 6.147,-18.191c5.01,-15.67 10.374,-28.635 18.938,-42.883c3.053,-5.078 8.952,-9.45 10.906,-15.169c1.99,-5.898 -0.354,-12.363 1.279,-18.369l-0.032,0.002c3.945,-14.564 1.495,-29.808 2.312,-45.121c0.263,-4.831 0.673,-7.92 2.201,-12.752c1.526,-4.936 4.938,-7.884 6.466,-12.257c1.847,-5.223 0.529,-12.681 0.529,-18.227c0,-20.962 -4.974,-39.826 -8.564,-60.362c-3.126,-18.117 -6.11,-34.459 -14.637,-51.195c-3.659,-7.138 -7.353,-14.212 -9.946,-21.567c0.105,4.726 -0.355,9.7 -0.355,14.32l-1.242,-19.435c-0.641,-2.489 -1.209,-5.045 -1.494,-7.674c0.329,1.211 0.776,2.351 1.244,3.484l-1.565,-25.155z" /></svg>