<svg xmlns="http://www.w3.org/2000/svg" viewBox="0 0 988 992" width="988" height="992"><path d="M699.857,532.422c9.949,4.606 18.791,12.204 23.213,22.244c3.96,8.841 3.96,19.618 -0.737,27.955c-0.598,1.109 -1.287,2.212 -2.071,3.18c-1.887,2.394 -4.192,4.513 -5.618,7.184c-1.564,2.856 -2.073,6.357 -4.283,8.751c-2.074,2.167 -5.157,2.992 -8.06,3.685c-25.562,5.931 -51.996,8.061 -78.11,5.711c-18.238,-1.661 -38.825,-7.368 -46.516,-23.949c-2.578,-5.62 -4.144,-13.541 -4.928,-19.666c-1.89,-15.797 15.014,-27.91 29.06,-27.91c16.811,0 26.99,9.949 38.18,41.174c-1.703,-11.054 3.549,-22.153 2.903,-33.298c-0.691,-12.02 -8.244,-22.796 -17.731,-30.165c-9.442,-7.366 -11.561,-8.194 -22.751,-12.616c-8.796,-3.503 -34.403,-5.161 -40.896,1.61c-10.408,10.961 -14.691,13.035 -22.153,30.95c1.234,-5.711 -0.112,-19.299 0.036,-22.844c0.321,-9.165 1.523,-18.284 1.014,-27.403c-3.315,-60.241 -16.442,-76.361 14.278,-34.173c2.717,3.73 7.597,5.109 10.961,8.289c9.028,8.521 20.082,16.294 32.516,16.258c3.592,0 7.23,-0.657 10.731,0.036c10.547,2.119 16.167,15.474 26.805,17.04c4.191,0.645 8.842,-0.689 12.573,1.382c2.579,1.427 4.056,4.096 5.666,6.54c5.896,9.258 14.417,16.766 24.318,21.508c7.001,3.317 14.601,5.25 21.601,8.521z" /> <path d="M557.826,304.154c-5.574,-6.585 -9.81,-14.092 -14.6,-21.185c-24.363,8.516 -48.406,3.174 -73.183,1.332c-2.903,1.012 -6.033,0.688 -8.889,-0.461c-1.656,-0.038 -3.316,-0.074 -5.02,-0.074c-2.303,0.043 -4.331,-0.459 -6.034,-1.289c-8.567,6.218 -17.456,13.125 -16.856,19.159c1.106,1.058 2.211,2.119 3.316,3.224c0.196,0.137 0.268,0.321 0.416,0.505c9.901,3.823 15.796,12.895 19.757,22.337c3.5,8.383 7.875,20.724 3.316,29.245c-2.442,-4.56 -5.804,-8.153 -10.363,-10.731c-17.04,-9.626 -26.803,-24.041 -41.772,-36.154c-5.066,-4.099 -3.915,-12.205 0,-16.488c0.459,-0.458 0.964,-0.874 1.473,-1.242c14.691,-15.153 29.244,-29.613 41.219,-46.378c0.368,-0.504 0.83,-1.009 1.198,-1.518c1.565,0.921 3.134,2.254 4.652,3.636c2.992,-0.368 6.08,0.372 8.658,1.798c1.476,-0.545 3.086,-0.877 4.928,-0.877c12.066,0 23.765,0.552 35.647,2.487c1.841,0.323 3.499,1.105 4.881,2.21c9.349,-4.329 20.08,-6.219 29.522,-2.903c1.796,-0.646 3.637,-1.014 5.527,-0.83c1.472,-0.875 2.993,-1.704 4.559,-2.762c8.796,10.27 16.027,23.165 24.179,29.89c3.224,2.671 9.303,5.62 12.711,8.198c1.562,1.152 1.646,4.147 1.978,6.909c1.15,9.212 11.467,15.66 8.796,25.561c-1.887,6.816 -9.394,10.178 -16.165,12.204c-11.468,3.502 -15.615,7.553 -21.417,17.502c-4.881,8.471 -10.869,17.731 -19.527,6.677c-2.948,-3.73 -3.408,-8.382 -2.487,-13.402c2.303,-12.02 12.759,-26.021 16.949,-33.528c0.693,-1.198 1.614,-2.21 2.628,-3.04z" /> <path d="M784.637,577.142c12.894,-14.323 19.482,-17.593 11.745,-35.647c-2.267,-5.251 -2.523,-11.238 -2.487,-17.317c-8.336,-7.553 -16.396,-15.383 -25.238,-21.876c-2.532,0.325 -5.109,-0.091 -7.184,-1.473c-1.98,-1.335 -4.006,-2.673 -6.125,-3.822c-0.184,-0.091 -0.964,-0.553 -1.61,-0.921c-1.058,-0.505 -2.396,-0.773 -3.545,-1.105c-3.131,-0.829 -5.39,-2.903 -6.816,-5.481c-0.552,-0.158 -1.105,-0.342 -1.657,-0.416c-0.646,0.689 -1.379,1.335 -2.256,1.887c-5.065,3.269 -13.173,1.289 -15.935,-4.145c-1.196,-2.397 -2.394,-4.792 -3.636,-7.139c-3.73,0.596 -7.691,-0.368 -9.994,-3.18c-1.018,-1.241 -1.798,-2.487 -2.444,-3.776c-0.644,0.112 -1.289,0.184 -2.026,0.148c-13.68,-0.507 -23.995,-8.428 -36.845,-11.652c-4.19,-1.059 -6.907,-4.606 -7.921,-8.521c-1.523,-1.476 -2.535,-3.134 -2.996,-4.928c-4.284,-1.521 -8.199,-3.317 -10.961,-5.527c-9.719,-7.737 -9.074,-21.14 -4.238,-31.732c1.75,-3.777 7.782,-7.967 8.198,-12.389c0.276,-3.131 -0.368,-5.343 -1.566,-7c-12.573,-16.168 -26.665,-18.055 -33.205,6.354c-1.106,4.056 9.807,19.066 8.658,23.12c-2.579,8.981 -11.1,5.296 -18.514,2.256c-9.671,-4.007 -15.844,-16.12 -20.541,-24.732c-5.155,-9.488 -4.373,-15.659 2.259,-23.811c6.587,-8.151 12.528,-15.704 22.015,-20.494c2.119,-2.394 4.607,-4.42 7.737,-5.802c3.869,-1.646 7.783,-1.83 11.099,-0.22c11.008,-1.475 21.924,0.782 29.89,8.658c0.737,0.6 1.473,1.149 2.21,1.842c1.15,1.107 1.978,2.399 2.487,3.731c8.703,3.178 15.705,9.258 18.652,18.054c6.218,18.238 -7.507,15.428 -19.896,24.547c-15.244,11.238 0.645,15.797 11.929,20.08c17.5,6.631 49.233,11.467 59.503,28.048c6.172,0.691 8.935,5.667 14.83,4.974c1.658,11.419 12.205,6.355 20.31,10.27c8.107,3.867 13.587,4.559 19.989,9.533c-4.422,-12.664 -17.824,-20.08 -25.193,-31.041c-8.244,-12.204 -11.884,-24.915 -21.969,-36.383c-14.139,-15.982 -31.502,-28.371 -44.627,-45.411c-16.487,-21.324 -34.266,-38.41 -58.675,-50.707c-16.165,-15.06 -30.488,-31.916 -47.667,-45.825c-27.496,-22.335 -43.936,-58.537 -60.885,-88.702c-5.113,-9.164 -12.711,-19.068 -16.212,-28.969c-5.989,-17.086 -10.086,-38.364 -13.587,-56.418c1.428,7.414 -6.677,16.717 -8.796,23.533c-2.994,9.578 -3.454,18.422 -7.323,27.955c-8.473,20.817 -16.028,40.069 -28.462,58.721c-6.216,9.855 -12.296,19.896 -18.698,29.66c-14.23,21.737 -34.448,36.659 -50.936,56.095c-5.34,6.309 -8.105,15.289 -14.414,20.632c-9.304,7.828 -22.108,11.743 -31.641,19.941c-21.599,18.56 -47.344,34.311 -63.648,57.938c-6.677,9.626 -16.165,16.258 -23.074,26.298c-2.396,3.547 -4.838,9.44 -7.462,12.343c-3.777,4.099 -6.727,3.547 -10.179,6.125c-6.08,4.561 -10.409,10.916 -14.185,18.009c-3.822,7.185 -13.218,19.989 -12.757,27.91c5.204,-3.41 8.933,-9.578 14.414,-12.802c11.283,-6.632 23.396,-6.816 35.278,-11.145c7.875,-2.902 14.507,-8.704 22.244,-11.791c7.737,-3.085 18.1,-8.982 26.298,-10.408c8.935,-1.517 15.797,1.519 24.732,-2.026c10.87,-4.372 15.199,-9.392 6.955,-19.064c-6.678,-7.783 -17.134,-6.08 -23.12,-11.652c-14.276,-13.218 9.165,-35.278 22.153,-41.219c0.23,-0.072 0.426,-0.146 0.646,-0.22c1.06,-4.699 4.652,-8.705 10.87,-8.705c0.412,0 0.737,0.112 1.105,0.148c0.177,-0.154 0.361,-0.264 0.509,-0.412c5.113,-3.225 11.192,-4.338 17.133,-4.374c1.014,-0.036 1.935,0.148 2.856,0.332c0.92,-0.258 1.841,-0.368 2.762,-0.332c16.488,0.368 29.338,17.178 38.825,29.06c9.994,12.482 6.632,51.721 -16.165,47.576c-2.533,-0.465 -4.929,-1.855 -7.507,-2.075c-2.035,-0.23 0.22,-18.745 -0.148,-20.771c-4.697,-28.094 -16.856,-22.476 -22.567,-15.705c-0.074,0 -0.11,0 -0.258,0c-0.737,0 -1.519,-0.036 -2.303,-0.036c-0.646,0.036 -1.332,0.148 -1.978,0.184c-6.355,9.533 -10.178,14.415 -5.25,26.942c2.764,7.045 9.996,19.895 7.093,29.06c3.87,4.424 3.133,11.145 -0.552,15.428c-0.275,0.461 -0.589,0.921 -0.921,1.382c-1.058,1.52 -2.21,3.085 -3.452,4.467c-1.66,1.798 -3.775,2.848 -6.034,3.18c-1.889,5.157 -6.863,9.442 -13.725,8.244c-16.351,-2.856 -28.233,4.651 -41.681,12.895c-4.56,2.808 -8.933,2.028 -12.113,-0.416c-1.841,2.761 -4.881,4.8 -9.21,4.836c-4.697,0 -8.934,0.321 -12.895,1.014c-4.974,4.697 -11.697,7.185 -18.836,8.751c-1.702,1.521 -3.409,3.131 -5.066,5.113c-5.02,5.859 -11.743,4.338 -15.797,-0.036c-0.234,0.129 -0.426,0.313 -0.646,0.461c-6.494,3.869 -13.172,7.369 -19.712,11.238c-1.291,0.78 -2.717,1.148 -4.19,1.332c0.074,0.412 0.148,0.828 0.148,1.289c-0.23,9.947 -2.808,20.171 -8.658,28.369c-0.277,0.462 -0.646,0.874 -1.014,1.242c0.112,1.149 0.258,2.254 0.332,3.452c1.014,12.711 6.587,25.743 14.876,35.876c9.028,11.053 15.107,25.193 27.68,32.377c13.264,7.601 28.876,11.147 41.956,18.009c39.148,20.633 97.776,21.83 138.029,3.316c8.519,-3.915 15.106,-11.834 23.718,-14.646c3.638,-1.153 8.981,0.324 12.573,-0.737c6.585,-1.841 7.276,-3.868 11.882,-10.408c1.519,-2.118 3.041,-4.144 4.559,-6.079c-0.321,35.324 -1.289,60.656 -3.545,64.432c-12.941,22.151 -20.633,30.026 -29.015,52.916c-10.409,28.554 -31.593,45.641 -55.727,61.622c-17.823,11.791 -30.488,34.635 -55.22,34.035c1.244,3.96 4.605,16.487 7.876,18.422c2.212,1.336 17.318,-2.009 21.094,-1.935c4.606,0.14 9.488,1.523 14.278,0.877c5.068,-0.737 8.983,-4.329 13.357,-5.066c4.377,-0.786 14.877,0.874 18.193,3.636c-3.593,-9.949 -5.481,-15.797 2.671,-23.811c11.652,-11.377 23.764,-18.009 36.982,-28.094c7.784,-5.895 7.689,-5.85 9.487,-14.139c1.519,-7.046 2.024,-12.434 5.388,-19.343c0.11,-0.148 0.22,-0.332 0.368,-0.368c10.547,-5.113 15.612,11.652 16.626,18.145c2.119,13.355 -6.4,19.434 -0.873,33.389c2.165,5.388 4.559,10.915 4.559,16.717c0,4.927 -2.026,9.67 -6.171,12.757c27.541,-4.65 55.267,-3.451 82.67,2.903c1.983,-7.737 -8.378,-16.169 -11.19,-23.949c-3.729,-10.409 -5.158,-21.601 -4.19,-32.562c0.368,-4.376 10.455,-27.31 5.527,-30.581c0.826,0.553 1.287,1.286 1.703,2.163c6.08,13.173 14.231,17.134 25.33,25.93c12.113,9.672 18.423,18.1 26.805,30.443c5.527,8.107 7.461,20.402 16.119,26.252c11.929,-11.052 47.483,5.111 60.333,3.501c8.069,-0.967 11.192,-9.579 8.105,-17.409c-3.545,-9.028 -18.468,-12.252 -26.942,-17.686c-8.383,-5.393 -17.916,-8.153 -26.114,-13.173c-8.751,-5.388 -18.607,-14.001 -27.035,-20.541c-15.887,-12.298 -25.375,-30.536 -32.468,-48.313c-6.677,-16.627 -11.192,-33.114 -18.238,-49.418c-1.566,-3.64 -1.566,-16.765 -1.014,-59.228c2.718,5.896 6.264,9.349 14.094,15.199c7.737,5.709 6.677,4.19 17.04,6.677c7.094,1.703 15.429,7.368 22.522,10.224c13.678,5.571 28.37,6.08 42.97,3.452c14.507,-2.579 28.139,-1.89 42.601,-3.316c13.31,-1.289 20.726,-8.244 32.93,-12.159c15.522,-4.927 28.094,-5.896 38.78,-18.698c10.317,-12.343 19.573,-24.78 30.074,-36.477zM983.471,521.614c-1.519,8.935 2.075,15.751 3.685,23.488c0.737,3.592 -1.382,7.737 -2.303,11.606c-2.212,9.439 -4.282,18.743 -5.159,28.553c-0.921,9.533 -5.757,18.652 -8.244,28.185c-1.843,7.003 -2.488,14.324 -4.006,21.417c-2.029,9.581 -3.915,19.209 -6.771,28.601c-2.992,10.04 -7.002,19.851 -10.638,29.752c-0.877,2.303 -1.982,4.606 -3.271,6.677c-4.192,6.909 -9.074,13.402 -12.666,20.541c-10.408,20.726 -27.771,35.186 -44.075,50.707c-4.099,3.824 -7.964,8.292 -10.592,13.173c-5.389,10.085 -10.04,20.541 -14.692,30.995c-5.389,12.207 -16.257,17.088 -27.633,21.417c-1.291,0.466 -2.671,0.921 -3.685,1.798c-5.066,4.281 -9.349,9.806 -15.06,12.802c-14.83,7.828 -24.363,21.553 -36.706,32.1c-8.335,7.139 -16.626,14.369 -25.1,21.462c-2.028,1.703 -2.996,4.744 -4.422,7.184l1.198,0.737c1.381,-1.196 2.762,-2.396 4.697,-4.099c-0.148,1.794 0.184,3.13 -0.368,3.776c-5.48,6.172 -9.627,13.68 -19.205,15.153c-13.587,2.119 -26.942,5.252 -39.285,11.606c-0.965,0.46 -2.486,1.289 -2.947,0.921c-5.02,-3.729 -8.109,0.416 -11.745,2.535c-11.93,7.046 -23.72,14.369 -35.97,20.771c-4.049,2.162 -9.438,1.794 -14.228,2.578c-0.505,0.072 -1.101,-0.038 -1.61,0.036c-10.178,2.119 -20.311,4.511 -30.581,6.309c-8.152,1.473 -16.396,2.347 -24.64,3.408c-10.408,1.289 -20.771,2.444 -31.179,3.776c-20.634,2.623 -41.267,5.431 -61.899,7.966c-2.073,0.229 -4.33,-1.105 -6.54,-1.289c-2.212,-0.241 -4.929,-0.794 -6.586,0.22c-15.336,9.164 -30.949,4.881 -46.654,1.657c-10.686,-2.165 -20.635,-7.242 -31.825,-7.462c-2.949,-0.093 -5.711,-2.764 -8.751,-3.869c-9.073,-3.224 -18.054,-6.771 -27.357,-9.258c-13.031,-3.501 -24.362,-10.044 -35.184,-17.824c-1.334,-0.932 -3.59,-0.636 -5.388,-0.968c-1.149,-0.184 -2.531,-0.093 -3.452,-0.693c-5.573,-3.638 -10.686,-8.474 -16.672,-10.961c-5.941,-2.487 -12.757,-2.764 -19.205,-3.869c-1.842,-0.332 -3.776,-0.036 -5.618,-0.368c-27.403,-4.927 -47.024,-23.074 -67.149,-40.16c-12.943,-10.963 -25.47,-22.476 -37.904,-34.128c-7.783,-7.323 -16.534,-14.324 -22.106,-23.213c-7.967,-12.572 -19.481,-20.587 -30.857,-28.969c-10.133,-7.412 -18.468,-16.807 -24.547,-27.124c-11.516,-19.482 -25.976,-37.304 -33.944,-58.905c-7.968,-21.601 -17.087,-42.74 -21.048,-65.537c-0.688,-4.053 -0.781,-8.198 -1.149,-12.297c-0.319,-3.822 -0.688,-7.691 -1.149,-12.757c-0.966,1.748 -1.308,2.253 -1.566,2.762c-2.905,-5.756 -3.133,-10.87 -0.646,-17.547c2.258,-5.941 1.382,-13.865 -3.408,-20.219c1.011,0.505 2.069,0.965 3.13,1.426c0.318,-0.228 0.632,-0.469 0.964,-0.689c-2.856,-4.467 -5.664,-8.935 -8.567,-13.309c-0.784,-1.198 -2.119,-2.026 -2.671,-3.224c-8.658,-20.771 -12.527,-42.831 -16.488,-64.8c-2.44,-13.401 -1.887,-27.265 5.113,-39.469c9.763,-16.904 12.114,-35.556 15.244,-54.208c0.688,-4.284 2.576,-8.567 4.742,-12.389c3.871,-6.771 2.441,-14.185 3.087,-21.324c0.6,-6.907 0.322,-13.953 0.968,-20.862c0.553,-5.434 1.979,-10.777 2.947,-15.981c0.184,0.462 0.435,1.289 0.693,2.119c0.455,0.148 0.871,0.22 1.332,0.368c2.717,-8.29 5.711,-16.488 8.014,-24.916c2.487,-9.119 4.327,-18.423 6.493,-27.633c0.414,-1.704 0.782,-3.594 1.703,-5.02c5.343,-8.243 10.777,-16.395 16.258,-24.547c0.92,-1.289 2.253,-2.304 3.13,-3.636c3.501,-5.02 7.046,-10.04 10.317,-15.244c1.518,-2.439 2.392,-5.295 4.742,-7.598c-0.129,1.426 -0.313,2.812 -0.461,4.238c0.552,0.148 1.105,0.22 1.657,0.368c1.149,-4.743 2.21,-9.488 3.408,-14.185c2.992,-11.607 4.789,-23.904 14.553,-32.332c9.856,-8.519 20.91,-15.751 30.029,-24.961c7.462,-7.6 13.309,-16.949 18.975,-26.114c6.218,-10.04 9.856,-21.785 19.85,-30.213c0.325,0.738 0.83,1.75 1.798,3.685c4.145,-5.479 7.781,-9.856 10.961,-14.553c8.612,-12.895 21.783,-19.757 35.001,-26.389c5.618,-2.811 12.434,-3.18 17.961,-6.079c7.691,-4.054 14.599,-9.442 21.876,-14.278c4.468,-2.948 8.842,-6.077 13.494,-8.705c1.521,-0.841 3.731,-0.361 5.666,-0.509c0.228,0.741 0.517,1.522 0.737,2.259c5.388,-3.638 10.777,-7.279 16.165,-10.915c-0.184,-0.507 -0.368,-1.012 -0.552,-1.521c-2.578,0.83 -5.159,1.657 -7.737,2.487c-0.275,-0.228 -0.564,-0.469 -0.784,-0.689c1.29,-1.196 2.488,-3.12 3.961,-3.452c8.474,-1.752 16.258,-6.72 25.423,-5.388c1.291,0.184 2.717,-0.847 4.099,-1.105c9.949,-1.935 19.941,-3.822 29.89,-5.757c8.105,-1.567 16.211,-3.315 24.363,-4.697c2.118,-0.325 4.465,0.884 6.54,0.552c5.249,-0.923 10.362,-2.396 15.612,-3.501c0.921,-0.184 2.026,0.426 3.087,0.646c-0.038,0.555 -0.038,1.104 -0.074,1.704c3.592,-1.889 7.23,-3.733 10.731,-5.711c0.921,-0.505 2.163,-1.519 2.163,-2.256c-0.091,-5.345 4.79,-6.309 7.83,-8.06c5.805,-3.408 12.205,-5.939 18.607,-8.105c2.442,-0.83 5.525,0.332 8.337,0.552c0.074,0.048 0.11,0.416 0.258,0.416c6.862,1.289 13.678,3.084 20.587,3.636c7.323,0.589 14.739,0 22.153,-0.148c7.096,-0.072 14.231,-0.368 21.324,-0.22c3.363,0.044 6.68,0.817 9.258,1.149c0.971,1.75 1.426,3.858 2.303,4.006c5.618,1.059 11.42,3.087 16.533,-1.703c0.504,-0.498 1.564,-0.646 2.394,-0.646c11.375,0.186 22.936,-0.922 33.528,4.928c9.904,5.434 20.955,4.604 31.641,5.618c9.21,0.878 18.561,0.878 27.771,2.21c4.652,0.644 9.074,3.272 13.541,5.25c8.153,3.638 16.351,7.184 24.272,11.329c7.093,3.727 15.291,6.859 20.357,12.616c9.578,10.87 22.383,17.547 32.607,27.403c3.317,3.224 7.601,5.987 11.975,7.553c10.731,3.916 21.739,7.046 32.7,10.27c2.578,0.729 5.527,0.325 8.289,0.693c1.889,0.229 4.42,0.32 5.434,1.518c4.054,4.7 7.553,9.811 11.284,14.785c0.921,1.198 2.163,2.212 3.04,3.501c2.533,3.683 4.927,7.459 7.414,11.19c1.517,2.21 3.131,4.33 4.697,6.493c2.116,2.903 4.279,5.758 6.354,8.705c3.132,4.561 6.173,9.165 9.303,13.771c0.458,-0.232 0.965,-0.416 1.426,-0.6c0.203,-1.384 0.313,-2.717 0.461,-3.915c7.83,6.539 15.935,12.757 23.397,19.712c3.685,3.453 8.447,8.06 8.705,12.434c0.601,8.106 6.543,11.837 10.179,17.409c4.192,6.402 8.705,12.62 12.988,18.929c6.539,9.58 11.744,20.586 19.896,28.462c9.074,8.795 12.989,20.956 21.601,28.736c0.177,1.796 -0.184,3.406 0.509,4.374c3.683,5.343 7.691,10.5 11.513,15.797c0.644,0.921 0.957,2.21 1.105,3.408c0.83,6.909 1.382,13.862 2.303,20.771c0.321,2.394 0.97,4.975 2.119,7.046c3.501,6.263 -1.521,12.665 0.689,18.836c0.413,1.105 0.829,2.166 1.518,3.087c1.519,2.073 3.592,3.824 4.79,6.034c2.901,5.527 5.988,11.054 8.014,16.856c3.408,9.763 6.266,19.758 9.074,29.752c3.408,12.02 6.679,24.086 9.626,36.199c0.877,3.683 1.014,7.782 0.368,11.513c-2.349,13.171 -5.39,26.251 -7.646,39.469c-0.686,4.008 0.388,8.292 0.646,12.482c0.6,-0.038 1.198,-0.074 1.798,-0.074v-5.204c5.247,7.692 10.865,16.165 9.392,24.916z" /> <path d="M466.758,472.836c-0.83,2.994 1.978,14.278 0.412,16.581c0.184,9.856 -0.11,40.299 -0.036,50.2c-4.744,-3.546 -12.068,-19.804 -20.034,-27.68c-7.459,-7.369 -11.973,-5.527 -26.573,-7.369c-6.403,-0.829 -11.191,4.004 -15.981,6.448c-19.389,9.949 -58.72,27.771 -52.18,70.327c2.488,-10.271 17.502,-32.882 26.437,-34.68c7.278,-1.477 23.397,8.931 29.108,14.228c13.955,12.85 5.159,36.383 -11.19,41.219c-13.909,4.099 -25.7,12.757 -39.516,16.533c-15.935,4.423 -31.547,2.581 -46.332,-4.742c-0.552,-0.279 -0.921,-0.636 -1.382,-0.968c-2.027,0.81 -4.422,0.995 -7.093,0.258c-11.193,-3.086 -23.95,-1.519 -32.332,-11.468c-1.383,-1.612 -2.304,-3.456 -2.856,-5.343c-1.196,-1.151 -2.21,-2.625 -2.947,-4.467c-9.395,-23.672 4.928,-54.762 31.87,-56.004c1.153,-0.036 2.21,0.112 3.224,0.332c0.646,-0.325 1.335,-0.61 2.119,-0.83c13.356,-3.822 16.671,-8.705 30.258,-11.513c2.303,-0.507 15.982,-11.654 17.824,-11.054c16.534,-18.193 34.449,-17.084 36.568,-17.777c27.774,-8.892 24.272,-12.066 34.128,-21.508c1.105,-1.061 1.891,-2.35 2.487,-3.776c3.273,-8.428 35.049,-49.004 38.457,-42.279c3.869,7.782 7.229,39.468 5.572,45.318z" /></svg>