<svg xmlns="http://www.w3.org/2000/svg" viewBox="0 0 1024 1024" width="1024" height="1024"><path d="M29.906,409.122l-1.148,1.185c0,-0.592 1.148,-1.185 1.148,-1.185zM552.255,8.012l1.148,-1.185c2.311,0.741 2.684,1.185 1.163,1.185zM807.368,99.995c-1.61,-1.629 -1.521,-2.074 1.461,-0.592l1.163,1.185c0,0 -0.999,-0.148 -2.624,-0.592zM855.667,155.54c0.403,0.148 0.805,0.444 1.491,1.037zM715.645,967.98c-10.155,10.072 -12.63,4.592 -23.024,14.812l-19.549,10.368l-1.148,1.185c-5.428,0 -10.006,3.407 -16.12,3.407l4.608,-2.37c-18.446,2.37 -20.862,2.37 -41.425,9.183l1.163,-2.222c-9.931,3.259 -23.665,11.85 -31.076,4.444l-6.904,2.37h-6.904c-20.698,0 -18.312,1.777 -37.966,5.629l-10.349,1.185l-11.512,2.37h-9.201l-9.201,1.037l-3.46,-3.407c-14.047,2.074 -11.482,6.369 -25.305,7.998l3.445,-2.222c-13.794,4.592 -34.67,-2.962 -48.315,-5.777l1.148,-2.222c-5.741,0 -11.542,-2.37 -17.268,-2.37h-3.445c-9.902,-6.517 -27.96,-14.812 -40.277,-14.812l-8.052,-3.407c-8.649,-4.295 -19.535,-9.183 -26.454,-15.997l-3.46,2.222l-9.201,-4.444c-1.357,-1.481 -3.251,-2.222 -4.608,-3.555l-2.296,-2.222h-1.73c-1.223,0 -2.878,-2.222 -2.878,-2.222h2.311c1.73,-1.777 -25.052,-3.851 -20.713,-2.37l-13.808,-4.592c-5.189,-1.629 -10.811,-3.259 -16.105,-4.592l-13.808,-9.035c-8.604,-8.591 -19.967,-14.22 -28.765,-22.959c0,0 -2.475,-1.333 -3.445,-2.222l-3.46,-3.407c-35.282,-35.105 -75.618,-66.358 -109.304,-102.944l4.608,2.37l-8.052,-7.998c0,-2.518 -4.608,-5.777 -4.608,-5.777c-0.164,-0.296 0,-1.185 0,-1.185c-1.581,-6.221 -4.727,-6.369 -8.052,-11.405l2.296,1.185c-16.269,-16.145 -35.669,-57.619 -35.669,-69.765c0,0 -1.148,-1.333 -1.148,-2.222l-13.808,-41.177l3.46,5.777c-6.024,-11.998 -2.803,-24.44 -6.904,-36.586v11.405c0,-9.628 -3.46,-18.959 -3.46,-28.587c0,-2.222 3.46,7.998 3.46,5.777v-21.181c0,-3.407 -9.201,-13.627 -9.201,-11.998c-11.81,-23.403 -11.467,-49.028 -19.564,-73.171v-7.998c0,-1.629 -1.148,-2.962 -1.148,-4.592v-6.814c0,-23.107 17.253,-111.386 17.253,-45.769c4.697,-18.663 1.909,-17.478 5.756,-36.586l3.445,-2.222c0,-2.814 1.014,-5.48 2.088,-7.998l0.432,-1.185c1.074,-2.518 2.088,-5.184 2.088,-7.998v-1.037l-1.148,1.037c1.357,-16.293 -0.611,-19.552 2.296,-35.401v1.185c0.696,-1.336 1.116,-2.911 1.148,-4.582v-0.01v-7.998l1.163,-2.37v-3.407c1.655,0 1.148,-1.185 1.148,-2.222l1.148,-1.185l-1.148,4.592l-1.148,6.814c6.024,0 19.549,-50.657 19.549,-61.618l1.148,1.037c3.922,-6.221 13.51,-23.699 19.564,-29.624l-1.148,2.222c2.446,-2.37 2.311,-3.999 5.756,-5.629l2.296,-3.555c0,-1.185 1.148,-3.407 1.148,-3.407l8.052,-7.998c3.072,-7.554 5.756,-23.995 5.756,-23.995c8.545,-25.477 33.373,-38.808 51.774,-57.026l3.46,-6.962l9.201,-9.183c-3.355,2.222 16.105,-30.217 16.105,-30.809l6.904,-6.814c-5.935,7.406 13.615,-13.183 20.713,-19.404l3.445,-1.185l3.46,-3.407l2.296,-1.185c6.069,-11.998 31.151,-9.183 40.277,-18.219l-6.904,2.222c15.851,-5.184 26.185,-18.663 41.41,-25.18l2.311,3.407c5.055,0 11.616,-6.814 16.105,-9.035l2.296,-1.185c2.326,-2.37 -0.865,-3.407 2.296,-3.407l3.46,-2.37l-9.201,3.555l-11.512,7.998c4.921,-3.999 1.625,-9.183 8.052,-9.183c0,0 1.446,-1.185 2.296,-1.185h2.311c0,-0.741 0.194,-1.185 0.567,-1.185h2.878c5.622,0 15.643,-2.074 20.713,-3.407l13.808,-4.592c4.399,0 8.291,-2.222 12.66,-2.222h10.349c1.208,-1.185 4.608,-0.592 4.608,-2.222h-5.756c13.51,0 40.262,-4.592 40.262,-4.592c0.865,0 2.311,-1.185 2.311,-1.185h6.904c0,0 0.268,0.889 0,1.185l-2.311,1.037l-1.148,1.185h-2.296c0.537,0 1.148,1.185 1.148,1.185c0,0 1.446,-1.185 2.296,-1.185c0,0 14.136,-13.035 23.024,-15.997l-4.608,1.185c2.982,-2.962 5.562,-3.851 9.201,-5.777l-5.756,3.407c7.217,-3.555 19.714,-10.22 27.617,-10.22l2.296,1.185h4.608c-0.537,0 -11.885,0.444 -1.148,2.222c6.024,0 4.444,1.185 11.512,3.407c16.746,0 23.65,-4.74 33.358,0h23.009c-13.704,0 13.376,0.741 14.957,1.185h-6.904c-2.759,0 4.175,4.147 6.904,4.592c5.89,-0.741 2.803,-3.407 9.782,-3.407h20.713c10.409,0 22.159,7.11 31.643,10.22c21.861,-5.332 20.966,-4.74 54.071,3.407l-3.445,2.37c6.666,0 11.467,5.629 17.253,5.629l-6.904,-4.592c11.87,2.962 26.081,13.479 36.817,19.552c-19.52,-9.776 2.714,5.629 9.201,5.629l2.311,2.37c-13.6,0 20.608,17.626 31.061,26.217l3.445,3.407l3.46,2.37c3.579,1.777 7.739,3.259 11.497,4.592l11.512,3.407c6.174,2.37 17.581,5.036 22.696,6.221c4.593,4.592 22.949,18.663 29.078,25.773c7.888,9.035 13.436,19.996 20.713,29.624l-5.756,-3.407c1.059,1.037 2.938,2.518 4.265,3.555c-0.492,-0.148 -0.984,-0.148 -1.953,-0.148l6.889,5.777c0.418,0 10.364,2.222 19.564,11.405l3.46,2.37l3.445,3.407l2.296,3.407l-2.296,-1.185c2.774,4.147 3.773,4.888 6.904,7.998l4.608,6.814c-9.633,-9.48 14.822,22.811 21.861,34.364c9.35,15.405 23.024,46.806 41.41,55.989c4.205,8.295 17.268,29.476 17.268,57.174l3.445,1.037l-3.445,7.998l1.148,9.183c6.621,3.259 4.921,3.555 8.052,9.183l-1.148,-1.185c0,3.703 20.116,34.808 9.201,23.995l4.608,6.962h-1.163c1.268,3.703 3.46,11.405 3.46,11.405l4.608,13.627l-1.163,-1.185l9.216,35.549l-10.364,51.398v2.222h1.148l2.311,6.962c3.579,0 4.638,-2.222 9.201,9.035c1.357,6.814 -1.491,13.923 0,20.589l3.445,10.368l2.311,3.407l-1.148,4.592v2.222h-1.163c-0.865,1.777 -1.148,5.777 -1.148,5.777c-5.845,-5.925 -4.131,15.849 -5.741,23.995l1.148,-2.37c-1.998,27.847 -9.066,24.44 -13.808,50.361v12.59l-2.311,2.222v4.592c0,12.294 -7.456,21.626 -10.349,33.179l-3.445,9.035l-2.311,9.183c-10.677,15.256 -19.192,29.92 -28.765,45.769l-14.957,14.812c-3.653,3.703 -7.65,6.962 -11.467,10.368c0.015,0 0.045,0 0,-0.148l-0.03,0.148c-0.582,0.444 -0.656,0.444 -1.178,1.037c-0.373,0.444 -0.746,0.741 -1.133,1.185c-14.688,9.776 -22.204,28.439 -27.602,44.584l-3.46,5.629l-3.445,6.962c-4.518,4.444 -13.078,9.628 -19.475,12.146c0.358,-0.296 0.701,-0.444 1.059,-0.741l-2.296,1.185l1.238,-0.444c-43.677,29.032 -68.043,52.138 -101.341,90.65c-0.799,0.764 -1.758,1.368 -2.822,1.759l-0.056,0.018l-2.878,0.592c0.88,0 1.909,-0.296 2.878,-0.592l2.878,-0.592l8.052,-9.183l1.148,-1.185c0.865,-1.629 3.46,-4.444 3.46,-4.444c2.311,-2.37 -1.983,6.221 -3.46,9.035l-5.741,5.777c-0.775,0.741 -1.163,1.481 -1.163,2.222h-4.593c-4.011,2.074 -12.958,4.592 -17.253,4.592l1.148,-1.037h-1.148c-2.595,0.741 -28.765,6.814 -28.765,11.405h-2.311v-1.185l-1.148,-1.185c0,0 -2.639,0.889 -3.445,0h1.148l1.148,-1.037l17.253,-5.777c-5.95,0 -17.253,4.592 -17.253,4.592l-2.296,2.222zM928.527,789.791l-0.089,0.444c-0.104,0.296 -0.194,0.444 -0.418,0.592c-0.492,0.592 -1.163,0.889 -1.789,1.185l2.296,-2.222zM926.186,792.013l-1.148,1.185c0.403,-0.444 0.79,-0.889 1.193,-1.185zM747.467,635.45c2.595,-0.444 5.189,-1.481 7.769,-2.666c2.595,-1.333 4.667,-2.666 6.218,-4.295c2.595,-1.481 5.04,-3.555 7.381,-6.221c2.326,-2.518 4.011,-5.036 5.04,-7.702c1.551,-2.518 3.117,-4.888 4.667,-7.258c1.55,-2.37 3.102,-4.74 4.653,-7.406c0.522,-1.037 1.163,-1.926 1.939,-2.962c0.79,-1.037 1.432,-2.074 1.953,-3.111c1.029,-1.629 1.804,-2.962 2.326,-4.295c0.522,-1.333 1.297,-2.666 2.326,-4.295c1.044,-2.962 2.848,-5.777 5.443,-7.998c2.58,-2.37 5.428,-4.295 8.545,-5.777c2.58,-2.074 5.309,-3.703 8.157,-5.036c2.848,-1.333 5.562,-2.962 8.142,-5.036c1.044,-1.037 2.341,-1.777 3.892,-2.37c1.524,-0.417 2.832,-1.189 3.877,-2.222v0c2.073,-1.037 3.758,-2.222 5.055,-3.555c1.297,-1.185 2.714,-2.37 4.265,-3.407c4.667,-3.703 9.708,-6.517 15.15,-8.443c5.428,-2.074 11.005,-3.703 16.701,-4.74l6.203,-1.481c2.073,-0.592 3.892,-1.037 5.443,-1.629c1.551,-0.444 2.595,-0.889 3.102,-1.037l2.341,-1.185c-1.019,-1.014 -2.17,-1.898 -3.425,-2.624l-0.08,-0.042c-1.412,-0.936 -2.578,-2.123 -3.461,-3.507l-0.029,-0.048c-1.044,-1.037 -2.073,-1.926 -3.117,-2.666c-1.029,-0.741 -2.058,-1.481 -3.102,-1.926c-5.807,-2.265 -10.407,-4.356 -14.887,-6.646l0.915,0.425c-4.667,-1.481 -9.201,-2.37 -13.6,-2.666c-4.399,-0.296 -8.932,-0.592 -13.585,-1.185c-3.703,-0.445 -8.022,-0.713 -12.398,-0.74h-0.039h-29.123c-5.428,0 -10.737,0.741 -15.911,2.37c-1.566,0.444 -2.848,0.889 -3.892,1.037c-1.029,0.296 -2.326,0.741 -3.877,1.185c-1.044,0.592 -2.207,1.037 -3.504,1.629c-1.282,0.444 -2.714,1.037 -4.265,1.481l-15.538,6.221c-2.073,0.444 -3.877,1.185 -5.428,2.222c-1.566,1.037 -3.117,2.37 -4.667,3.851c-2.58,2.074 -4.399,4.444 -5.428,6.962c-1.044,2.666 -2.341,5.184 -3.892,7.702l-3.102,6.221c-1.044,2.074 -2.326,4.147 -3.892,6.221c-1.551,1.481 -2.848,3.111 -3.877,5.036c-1.029,1.777 -2.073,3.703 -3.102,5.777c-1.044,1.926 -1.953,3.999 -2.729,6.073c-0.963,2.557 -1.877,4.608 -2.889,6.602l0.175,-0.38c-1.029,5.184 -1.685,10.072 -1.939,14.96c-0.268,4.888 -0.388,9.924 -0.388,15.108c0,1.037 -0.134,1.926 -0.388,2.666c-0.248,0.776 -0.391,1.667 -0.391,2.593c0,0.078 0.001,0.156 0.003,0.233v-0.011v6.073c0,1.037 -0.268,1.777 -0.775,2.37c0,0.444 0.119,1.185 0.388,2.222c0.254,1.037 0.388,1.926 0.388,2.37l-1.163,2.37c-0.268,0.444 -0.134,1.185 0.388,2.222c0.507,0.592 1.163,0.889 1.939,0.889h1.939c1.551,0.444 3.102,0.741 4.667,0.741h15.523c1.551,0 3.117,0.148 4.667,0.296c1.551,0.296 2.848,0.444 3.877,0.444h12.422zM689.996,521.989l-3.877,-3.851c-1.019,-1.014 -2.17,-1.898 -3.425,-2.624l-0.08,-0.042c-1.327,-0.773 -2.472,-1.656 -3.489,-2.666v0c-1.031,-0.564 -1.921,-1.203 -2.724,-1.935l0.01,0.009c-0.766,-0.776 -1.664,-1.421 -2.657,-1.901l-0.057,-0.025c-2.595,-1.629 -5.443,-2.962 -8.545,-4.295c-2.738,-1.217 -5.934,-1.926 -9.297,-1.926c-0.008,0 -0.016,0 -0.024,0h-19.414c-1.044,0 -1.685,0.296 -1.953,0.741l-1.163,2.37c-0.522,2.074 -1.029,4.295 -1.551,6.517c-0.522,2.37 -1.029,4.592 -1.551,6.665c0,2.518 -0.388,4.888 -1.163,7.258c-0.775,2.37 -1.432,4.74 -1.939,7.258c-0.522,1.037 -1.178,2.222 -1.953,3.555c-0.775,1.333 -1.417,2.37 -1.939,3.407c1.551,0 2.982,-0.148 4.28,-0.296c1.282,-0.296 2.714,-0.444 4.265,-0.444c2.073,0 4.011,0.148 5.831,0.444c1.804,0.148 3.489,0.889 5.04,1.926c1.044,0.444 1.685,0.889 1.939,1.185c0.268,0.148 0.656,0.889 1.178,1.926c0,0.444 0.119,0.889 0.388,1.481c0.236,0.429 0.378,0.937 0.388,1.478v0.003v2.37c0.507,1.037 0.895,2.222 1.163,3.555c0.254,1.185 0.641,2.37 1.163,3.407c0.522,4.147 0.641,8.591 0.388,13.479c-0.253,4.888 -1.685,9.183 -4.28,12.738c-0.375,1.315 -1.204,2.399 -2.305,3.098l-0.022,0.013c-1.029,0.444 -2.326,1.037 -3.877,1.481c-0.522,0 -0.91,0.148 -1.163,0.444l-0.388,0.296h-1.953c-0.012,0 -0.026,0 -0.04,0c-0.762,0 -1.444,0.344 -1.895,0.885l-0.003,0.004c-1.029,0 -1.685,0.148 -1.939,0.741c-0.254,0.444 -0.134,1.333 0.388,2.37c0.522,1.481 1.685,2.222 3.489,2.222h15.926c0.522,0 1.163,0.296 1.939,0.741c0.775,0.592 1.432,0.889 1.953,0.889c1.029,0 1.67,-0.148 1.939,-0.444c0.254,-0.296 0.388,-0.592 0.388,-1.185c0.865,-1.18 1.532,-2.566 1.92,-4.063l0.018,-0.084c0.37,-1.637 1.042,-3.078 1.962,-4.328l-0.023,0.033c0.522,-1.629 0.91,-2.962 1.163,-4.295c0.268,-1.333 0.656,-2.666 1.163,-4.147c1.044,-2.666 2.207,-4.888 3.504,-6.962c1.297,-2.074 2.46,-4.147 3.489,-6.221l6.218,-12.294l3.102,-4.74c1.044,-1.481 1.819,-2.962 2.326,-4.592c0.522,-1.037 0.91,-2.222 1.178,-3.407c0.254,-1.333 0.895,-2.518 1.939,-3.555c0.465,-0.89 0.864,-1.925 1.141,-3.009l0.022,-0.102c0.378,-1.184 1.05,-2.186 1.931,-2.956l0.007,-0.006c0.522,-1.037 1.044,-1.926 1.551,-2.814c0.522,-0.741 1.044,-1.926 1.551,-3.407v-1.481l-1.551,-0.889zM635.628,561.389c-0.507,-2.074 -0.895,-3.999 -1.163,-5.777c-0.239,-1.807 -1.252,-3.339 -2.691,-4.281l-0.023,-0.014c-1.628,-1.217 -3.684,-1.95 -5.913,-1.95c-0.244,0 -0.486,0.009 -0.725,0.026l0.032,-0.002c-2.16,0.283 -4.657,0.445 -7.192,0.445c-0.061,0 -0.122,0 -0.184,0h0.009h-3.892c-1.551,0 -2.58,0.444 -3.102,1.481c-0.459,0.812 -0.743,1.777 -0.775,2.805v0.01v1.926c-2.595,0 -4.146,0.148 -4.667,0.741l-1.551,1.481c-0.465,0.89 -0.864,1.925 -1.141,3.009l-0.022,0.102c-0.197,0.915 -0.604,1.715 -1.17,2.378l0.006,-0.008c-1.044,1.481 -1.685,2.962 -1.939,4.147c-0.268,1.333 -0.388,2.666 -0.388,4.295c0.507,3.111 1.67,5.332 3.489,6.962c1.804,1.481 3.758,2.814 5.831,3.851c1.551,1.037 3.236,1.629 5.04,1.926c1.819,0.296 3.489,0.296 5.055,0.296h5.04c1.819,0 3.236,-0.148 4.28,-0.741c1.958,-0.913 3.545,-2.337 4.626,-4.101l0.027,-0.047c1.044,-1.926 1.819,-3.851 2.326,-5.777c1.044,-2.074 1.566,-4.295 1.566,-6.665c0,-2.222 -0.268,-4.444 -0.79,-6.517zM203.809,525.1c1.044,0 1.939,0.148 2.714,0.444c0.775,0.148 1.685,0.148 2.729,-0.444c1.029,-0.444 2.192,-1.185 3.489,-2.222c1.297,-1.037 2.46,-2.074 3.489,-3.111c1.044,-0.592 1.819,-1.185 2.341,-1.926c0.581,-0.839 1.369,-1.498 2.291,-1.912l0.035,-0.014c0.522,0 1.029,-0.148 1.551,-0.444c0.605,-0.307 1.119,-0.704 1.546,-1.18l0.005,-0.005c1.674,-1.736 3.765,-3.063 6.114,-3.822l0.105,-0.029l0.388,-0.296c0.767,-0.56 1.679,-0.974 2.669,-1.177l0.045,-0.008c-0.507,-1.037 -0.507,-1.777 0,-2.37c0.522,-0.444 0.775,-1.185 0.775,-2.222c0,-0.592 -0.254,-1.185 -0.775,-2.074c-0.516,-0.752 -1.032,-1.625 -1.489,-2.532l-0.061,-0.134c-0.465,-0.89 -0.864,-1.925 -1.141,-3.009l-0.022,-0.102c-0.246,-1.023 -0.969,-1.839 -1.917,-2.214l-0.021,-0.007c-0.833,-0.878 -1.883,-1.543 -3.066,-1.912l-0.051,-0.014c-1.029,-0.296 -2.058,-0.741 -3.102,-1.185c-1.551,-0.592 -2.848,-1.037 -3.877,-1.481c-1.05,-0.563 -2.299,-0.893 -3.625,-0.893c-0.094,0 -0.188,0.002 -0.281,0.005h0.014c-1.029,0 -2.192,-0.148 -3.489,-0.296c-1.041,-0.264 -2.242,-0.424 -3.476,-0.444h-0.013c-1.044,0 -1.819,0.148 -2.341,0.444c-0.507,0.148 -0.775,0.889 -0.775,1.926c-0.443,0.355 -0.735,0.881 -0.775,1.475v0.006v1.629c0,0.444 -0.134,1.037 -0.388,1.926c-0.254,0.741 -0.641,1.629 -1.163,2.666v8.443c0,1.037 -0.134,2.37 -0.388,3.851c-0.195,1.434 -0.604,2.733 -1.196,3.925l0.033,-0.074v7.702c0,1.629 0.119,2.518 0.388,2.814c0.651,0.2 1.399,0.315 2.174,0.315c0.19,0 0.378,-0.007 0.565,-0.021l-0.025,0.001zM816.598,575.313c-5.174,2.518 -8.932,5.036 -11.258,7.258l-5.055,5.036c-1.029,1.481 -2.192,3.259 -3.489,5.036c-1.297,1.777 -2.207,3.703 -2.729,5.777c-0.473,0.905 -0.758,1.973 -0.775,3.105v0.006c0,1.037 -0.254,2.074 -0.775,3.111c0,1.481 0.134,2.518 0.388,2.962c0.268,0.592 0.91,0.889 1.953,0.889c1.551,0.444 3.236,0.889 5.04,1.185c1.819,0.148 3.489,0.296 5.055,0.296c2.58,-0.444 5.04,-1.185 7.366,-1.926c2.275,-0.715 4.229,-1.885 5.836,-3.412l-0.006,0.005c1.551,-1.629 2.982,-3.555 4.265,-5.777c1.152,-1.909 1.866,-4.196 1.953,-6.641l0.001,-0.024c0.241,-0.911 0.38,-1.958 0.38,-3.036c0,-1.078 -0.139,-2.125 -0.399,-3.123l0.019,0.086l-1.551,-6.221c0,-0.444 -0.656,-1.481 -1.953,-3.111c-1.282,-1.481 -2.714,-2.074 -4.265,-1.481zM884.94,566.722c0,-2.074 -0.254,-3.851 -0.775,-5.332l-1.551,-4.592c-0.506,-1.025 -1.03,-2.299 -1.478,-3.608l-0.072,-0.244c-0.414,-1.519 -1.591,-2.692 -3.086,-3.103l-0.031,-0.007c-2.58,0.444 -4.399,0.741 -5.428,0.741c-1.044,0 -2.326,0.296 -3.892,0.741c-1.029,0.592 -2.192,1.037 -3.489,1.629c-1.188,0.356 -2.147,1.154 -2.702,2.197l-0.012,0.024c-0.936,1.347 -1.615,2.943 -1.927,4.666l-0.011,0.074c-0.268,1.481 -0.388,3.259 -0.388,5.332v9.332c0,2.962 0.254,6.073 0.775,9.183c0.507,3.555 0.641,7.406 0.388,11.109c-0.268,3.999 -0.656,7.702 -1.163,11.257c0,2.074 -0.403,3.851 -1.178,5.48c-0.736,1.465 -1.167,3.191 -1.167,5.018c0,0.111 0.002,0.221 0.005,0.331v-0.016c-0.48,0.47 -0.777,1.123 -0.777,1.845c0,0.028 0,0.057 0.001,0.085v-0.004c0,0.741 -0.254,1.333 -0.775,1.926c-0.616,1.676 -1.541,3.109 -2.716,4.297l0.002,-0.002l-4.28,4.147c-1.182,0.679 -2.201,1.465 -3.1,2.368l-0.001,0.001l-3.102,3.111c-0.58,0.566 -1.092,1.197 -1.526,1.883l-0.025,0.043c-0.626,0.799 -1.407,1.448 -2.303,1.908l-0.039,0.018c-1.551,1.037 -2.848,2.222 -3.877,3.407c-1.044,1.333 -2.326,2.518 -3.892,3.555c-1.524,0.417 -2.832,1.189 -3.877,2.222v0c-1.073,1.028 -2.367,1.836 -3.803,2.347l-0.074,0.023c-1.044,0 -2.073,0.148 -3.117,0.296c-1.029,0.296 -2.326,0.741 -3.877,1.185c-0.77,0.5 -1.698,0.823 -2.697,0.888l-0.017,0.001c-0.007,0 -0.016,0 -0.024,0c-0.998,0 -1.932,0.275 -2.728,0.754l0.024,-0.013l-9.32,1.481c-3.102,0.592 -6.203,0.741 -9.32,0.741h-15.523c-0.045,0 -0.098,0 -0.151,0c-3.28,0 -6.433,-0.542 -9.373,-1.542l0.204,0.06c-3.555,-1.205 -6.638,-2.76 -9.451,-4.676l0.131,0.084c-0.695,-0.711 -1.461,-1.345 -2.29,-1.894l-0.051,-0.032c-1.029,-0.741 -1.551,-1.481 -1.551,-1.926c-0.522,-0.592 -0.775,-0.889 -0.775,-1.185v-1.185c-0.522,-0.444 -1.297,-0.592 -2.326,-0.444l-1.551,0.444c-1.044,0 -1.953,0.296 -2.729,0.741c-0.775,0.592 -1.67,1.037 -2.714,1.629h-2.326c-1.044,0 -1.819,0.148 -2.326,0.741c-1.044,0 -2.46,0.296 -4.28,0.741c-1.661,0.472 -3.093,1.291 -4.272,2.376l0.007,-0.006c-0.522,1.037 -0.388,1.777 0.388,2.222c0.775,0.592 1.417,1.037 1.939,1.629c0.89,0.354 1.582,1.041 1.93,1.903l0.008,0.023c0.268,0.741 0.656,1.629 1.163,2.666c1.551,2.074 3.37,3.999 5.443,5.777c2.073,1.778 4.146,3.259 6.218,4.295c1.551,0.444 2.967,1.037 4.265,1.481c1.297,0.592 2.714,1.037 4.265,1.629c0.522,0.444 1.178,0.889 1.953,1.037c0.775,0.296 1.417,0.741 1.939,1.185h2.326c0.522,0 1.297,0.296 2.326,0.741c4.667,1.629 9.32,2.518 13.987,2.814c4.653,0.148 9.32,0.296 13.972,0.296h16.314l12.422,-3.111c3.117,-1.037 5.965,-1.926 8.545,-2.962l7.769,-3.111c2.073,-1.037 4.011,-2.222 5.831,-3.555c1.804,-1.185 3.758,-2.37 5.816,-3.407c1.044,-1.037 2.073,-1.926 3.117,-2.666c1.029,-0.889 2.073,-1.777 3.102,-2.814c0.868,-0.907 1.895,-1.653 3.04,-2.195l0.062,-0.027l3.117,-1.629c2.073,-2.074 4.011,-4.295 5.816,-6.962c1.819,-2.518 3.504,-5.036 5.055,-7.702c1.551,-1.926 2.714,-3.999 3.489,-6.073c0.775,-2.074 1.685,-4.147 2.729,-6.221c1.029,-3.111 1.804,-5.925 2.326,-8.443c0.522,-2.666 1.029,-5.48 1.551,-8.591c0.522,-1.481 0.91,-3.111 1.163,-4.888c0.268,-1.926 0.656,-3.555 1.163,-5.036v-3.851c0,-1.629 0.268,-2.814 0.775,-3.851v-13.183c-0.507,-1.481 -0.775,-3.259 -0.775,-5.036c0,-1.777 -0.254,-3.407 -0.775,-5.036zM374.669,493.55c1.044,0.444 2.073,0.889 3.117,1.037c1.029,0.296 2.073,0.444 3.102,0.444c4.146,1.037 8.291,1.481 12.422,1.185c4.146,-0.296 8.291,-0.148 12.437,0.296c4.653,1.037 9.32,1.777 13.972,2.074c4.667,0.148 9.32,0.592 13.987,1.037c2.58,0 5.04,0.296 7.381,0.889c2.326,0.444 4.518,0.889 6.591,1.481h20.191c2.073,0 3.892,-0.592 5.443,-1.481c0.522,0 1.819,-0.444 3.877,-1.185c2.073,-0.741 3.117,-1.777 3.117,-2.814l11.646,-6.073c-1.029,0 -1.685,-0.296 -1.939,-0.741c-0.268,-0.592 -0.656,-1.037 -1.163,-1.629c-0.522,-1.037 -1.044,-2.222 -1.551,-3.851l-1.566,-4.592c-0.507,-1.629 -1.029,-2.962 -1.551,-4.295c-0.522,-1.185 -1.029,-2.37 -1.551,-3.407l-1.551,-3.111c-0.448,-0.903 -0.964,-1.681 -1.565,-2.387l0.014,0.017c-0.956,-0.973 -2.129,-1.733 -3.441,-2.202l-0.064,-0.02c-1.282,-0.592 -2.46,-1.037 -3.489,-1.629c-1.572,-0.871 -3.437,-1.411 -5.422,-1.481l-0.021,-0.001c-1.551,0 -3.102,-0.296 -4.653,-0.741c-0.979,-0.559 -2.153,-0.889 -3.404,-0.889c-0.035,0 -0.07,0 -0.105,0.001h0.005c-1.282,0 -2.192,-0.148 -2.714,-0.741h-34.163c-3.639,0 -7.128,-0.296 -10.498,-0.741c-3.682,-0.564 -6.965,-1.924 -9.78,-3.899l0.072,0.048l-3.102,-1.481c-0.884,-0.542 -1.953,-0.87 -3.097,-0.889h-0.005c-0.095,-0.002 -0.206,-0.003 -0.318,-0.003c-1.27,0 -2.501,0.163 -3.674,0.47l0.1,-0.022c-1.029,0.296 -2.073,0.592 -3.102,1.185l-2.714,2.666c-0.782,0.754 -1.436,1.635 -1.928,2.61l-0.025,0.056l-2.714,2.814c-0.868,0.942 -1.534,2.083 -1.922,3.345l-0.016,0.062c-0.522,1.037 -1.029,2.222 -1.551,3.407c-0.999,2.665 -2.179,4.961 -3.587,7.096l0.083,-0.134c-0.731,1.198 -1.164,2.647 -1.164,4.195c0,0.035 0,0.07 0.001,0.106v-0.005c-0.507,1.481 -1.029,3.259 -1.551,5.332c-0.173,0.565 -0.272,1.215 -0.272,1.887c0,1.333 0.39,2.575 1.064,3.62l-0.016,-0.027c0,0.444 0.268,1.037 0.775,1.481l1.551,1.629zM295.457,575.313c-1.029,0.444 -2.207,1.037 -3.489,1.481c-1.297,0.592 -2.729,1.333 -4.28,2.37c-1.551,1.481 -2.982,3.407 -4.265,5.777c-1.297,2.222 -2.46,4.444 -3.504,6.517c-0.507,1.629 -0.895,3.407 -1.163,5.48c-0.089,0.547 -0.14,1.179 -0.14,1.821c0,1.253 0.193,2.461 0.551,3.596l-0.023,-0.085c0,1.037 0.522,1.629 1.551,1.926c1.044,0.296 2.073,0.444 3.117,0.444c0.024,0 0.051,0.001 0.079,0.001c0.996,0 1.914,-0.335 2.645,-0.897l-0.01,0.007c0.777,-0.462 1.713,-0.737 2.713,-0.741h0.001c0.522,0 1.297,-0.148 2.341,-0.296c0.928,-0.281 1.996,-0.443 3.101,-0.444h0.001c1.029,-0.592 1.939,-1.185 2.714,-1.926c0.782,-0.751 1.432,-1.633 1.914,-2.611l0.025,-0.055c1.044,-1.037 1.953,-2.074 2.729,-3.111c0.776,-1.037 1.685,-2.074 2.714,-3.111c1.029,-1.481 1.804,-3.259 2.326,-5.036c0.522,-1.777 0.775,-3.703 0.775,-5.777v-2.666c0,-0.741 -0.254,-1.629 -0.775,-2.666c0,-0.592 -0.119,-1.037 -0.388,-1.629c-0.254,-0.444 -0.134,-1.037 0.388,-1.481c-4.653,1.037 -7.501,1.629 -8.545,1.926c-1.029,0.296 -2.073,0.592 -3.102,1.185zM597.572,551.317c0,-0.444 0.268,-1.037 0.775,-1.481l1.566,-1.629c0.507,-0.444 1.282,-1.037 2.326,-1.926c1.029,-0.741 1.297,-2.666 0.775,-5.777c0.001,-0.054 0.002,-0.117 0.002,-0.18c0,-1.976 -0.735,-3.782 -1.949,-5.162l0.008,0.009c-1.25,-1.537 -2.194,-3.374 -2.708,-5.382l-0.021,-0.098c0,-1.037 -0.388,-2.074 -1.163,-2.962c-0.693,-0.845 -1.125,-1.924 -1.163,-3.102v-0.008l-1.551,-4.592c-0.522,-1.629 -1.029,-2.962 -1.551,-3.999c-2.531,-3.976 -6.484,-6.864 -11.135,-7.974l-0.124,-0.025c-4.921,-1.333 -9.708,-1.185 -14.375,0.296c-2.58,1.629 -5.428,3.111 -8.545,4.74c-3.102,1.481 -6.203,2.222 -9.32,2.222h-2.326c-0.522,0 -1.029,0.592 -1.551,1.629v1.481c0,0.592 -0.134,0.889 -0.388,1.185l-0.388,0.444c-0.522,0.444 -0.656,0.889 -0.388,1.037l1.163,1.185c0.522,1.037 1.163,2.222 1.939,3.555c0.775,1.185 1.417,2.37 1.939,3.407c0.522,1.037 1.044,2.222 1.551,3.407c0.522,1.333 1.044,2.518 1.566,3.555c0.507,0.444 0.895,1.037 1.163,1.481c0.254,0.592 0.388,1.333 0.388,2.37c0.507,1.037 1.029,1.777 1.551,2.37l1.551,1.481c0.522,1.037 0.91,1.926 1.163,2.666c0.268,0.741 0.656,1.481 1.163,1.926c1.044,1.037 1.939,2.222 2.729,3.555c0.775,1.185 1.417,2.37 1.939,3.407c1.551,1.629 3.102,3.407 4.653,5.48c1.551,1.926 2.848,3.999 3.892,6.073c0.507,1.033 1.156,1.915 1.936,2.664l0.003,0.003l1.939,1.926c0,1.037 0.254,2.074 0.775,2.814c0.521,0.74 0.775,1.333 0.775,1.926c0.522,1.037 1.044,2.074 1.551,3.407c0.522,1.333 1.044,2.518 1.566,3.555l1.551,2.962c0.522,1.037 1.297,2.074 2.326,3.111c0,0.592 0.254,1.037 0.775,1.629c0.522,0.444 1.044,0.741 1.551,0.741h6.994c1.551,0 2.595,-0.296 3.102,-0.741c1.044,-1.037 1.163,-2.222 0.388,-3.555c-0.775,-1.185 -1.417,-2.222 -1.939,-2.666c-1.029,-1.481 -1.939,-3.259 -2.714,-5.036c-1.199,-2.757 -2.108,-4.656 -3.061,-6.528l0.347,0.752c-0.986,-1.795 -1.566,-3.933 -1.566,-6.204c0,-0.006 0,-0.012 0,-0.018v0.001c0,-1.037 0.134,-2.074 0.388,-2.962c0.268,-1.037 0.656,-2.074 1.178,-3.111c0.604,-1.782 1.531,-3.314 2.722,-4.601l-0.008,0.009c1.297,-1.629 2.46,-3.111 3.489,-4.74h0.775zM738.937,431.044c-0.515,0.983 -0.923,2.124 -1.164,3.324l-0.014,0.083c-0.28,1.407 -0.968,2.623 -1.937,3.553l-0.002,0.002c0.009,0.105 0.014,0.227 0.014,0.351c0,0.678 -0.148,1.321 -0.413,1.9l0.012,-0.029c-0.312,0.628 -0.7,1.165 -1.164,1.63v0c-0.32,1.077 -0.504,2.315 -0.504,3.595c0,0.613 0.042,1.216 0.124,1.806l-0.008,-0.069c0.254,1.629 0.91,3.111 1.939,4.592c2.595,3.111 5.831,5.777 9.708,7.702c3.892,2.074 7.635,3.703 11.258,4.74c1.044,0 2.073,0.148 3.117,0.741c1.102,0.469 2.384,0.742 3.731,0.742c0.051,0 0.103,0 0.154,-0.001h-0.008c1.044,0.592 2.073,0.741 3.117,0.741h3.102c2.073,0.592 4.265,0.889 6.606,0.889h22.905c0.522,0 0.775,-0.592 0.775,-1.629c0.48,-0.461 0.778,-1.107 0.778,-1.821c0,-0.037 -0.001,-0.073 -0.002,-0.11v0.005c0,-0.741 0.268,-1.333 0.775,-1.926c0,-1.481 0.268,-3.259 0.775,-5.036c0.522,-1.777 1.044,-3.407 1.566,-5.036v-15.701c0,-1.333 -0.268,-2.814 -0.79,-4.295c0,-1.037 -0.388,-2.222 -1.163,-3.555c-0.62,-0.939 -1.265,-2.055 -1.847,-3.206l-0.092,-0.2c-0.541,-2.093 -1.785,-3.839 -3.462,-5.018l-0.028,-0.018c-1.819,-1.185 -3.504,-2.962 -5.055,-5.036c-0.885,-0.989 -1.66,-2.108 -2.284,-3.317l-0.042,-0.09c-1.029,-1.777 -3.102,-2.962 -6.218,-3.407c-0.507,0 -0.895,0 -1.163,0.296c-0.254,0.296 -0.641,0.444 -1.163,0.444h-0.775l-1.551,1.481c-2.073,0.592 -4.146,0.741 -6.218,0.741c-2.072,0 -3.877,0.296 -5.428,0.889c-1.044,0.444 -1.953,0.889 -2.729,1.037c-0.775,0.296 -1.685,0.741 -2.714,1.185c-1.029,0.592 -2.207,1.185 -3.489,1.926c-1.297,0.741 -2.46,1.481 -3.504,1.926c-1.031,0.564 -1.921,1.203 -2.724,1.935l0.01,-0.009c-0.766,0.776 -1.664,1.421 -2.657,1.901l-0.057,0.025c-1.566,1.629 -3.236,3.111 -5.055,4.74c-1.804,1.481 -3.489,2.962 -5.04,4.592zM540.877,564.5c-1.029,-1.629 -1.939,-2.814 -2.714,-3.851c-0.866,-1.317 -1.536,-2.852 -1.92,-4.495l-0.019,-0.096c-0.499,-1.636 -1.158,-3.06 -1.983,-4.371l0.044,0.076c-0.79,-1.333 -1.685,-2.666 -2.729,-4.295c-1.029,-2.074 -1.939,-3.999 -2.714,-5.777c-0.874,-1.958 -1.781,-3.611 -2.803,-5.183l0.089,0.147c-1.577,-4.241 -3.544,-7.908 -5.932,-11.259l0.101,0.15c-2.028,-2.873 -4.213,-6.307 -6.247,-9.839l-0.359,-0.678c-0.806,-2.244 -2.299,-4.081 -4.223,-5.308l-0.042,-0.025c-1.295,-0.774 -3.204,-1.809 -5.143,-2.793l-0.688,-0.317c-2.073,3.111 -3.624,4.592 -4.653,4.592h-2.326c-0.713,0.035 -1.379,0.195 -1.99,0.458l0.037,-0.014c-0.569,0.249 -1.231,0.409 -1.925,0.444l-0.013,0.001c-1.029,0 -2.073,0.148 -3.102,0.296c-0.933,0.28 -2.005,0.442 -3.115,0.444h-0.001c-0.507,0 -1.282,0.148 -2.326,0.296c-0.685,0.233 -1.477,0.391 -2.299,0.443l-0.027,0.001c-2.595,0.444 -4.921,0.889 -6.994,1.185c-2.073,0.296 -4.146,0.592 -6.203,1.185c-1.803,0.922 -3.899,1.597 -6.111,1.913l-0.107,0.013c-2.069,0.174 -4.505,0.281 -6.964,0.296h-0.03c-5.174,1.037 -10.349,1.629 -15.538,1.629h-16.299c-3.117,0 -6.218,0.148 -9.32,0.296c-3.117,0.296 -6.218,0.741 -9.32,1.185c-1.551,0 -3.37,0.148 -5.443,0.444c-2.15,0.238 -4.035,1.214 -5.425,2.663l-0.003,0.004c-1.03,1.061 -1.831,2.349 -2.32,3.78l-0.021,0.071l-1.551,4.592c-0.593,0.687 -1.11,1.466 -1.522,2.305l-0.029,0.065c-0.247,0.45 -0.392,0.986 -0.392,1.555c0,0.569 0.145,1.105 0.4,1.573l-0.009,-0.017c0,1.037 0.388,2.074 1.163,3.407c0.775,1.333 1.432,2.518 1.939,3.555c0.522,1.481 1.163,2.962 1.939,4.592c0.79,1.481 1.432,3.259 1.953,5.332c1.551,3.703 3.236,7.11 5.04,10.517c1.819,3.259 3.504,6.814 5.055,10.368c1.551,2.518 3.102,5.036 4.653,7.258c1.551,2.37 2.848,4.74 3.892,7.406c0.507,1.033 1.156,1.915 1.936,2.664l0.003,0.003c0.775,0.741 1.685,1.481 2.714,1.926c0.522,0.592 1.163,0.889 1.939,1.185c0.776,0.296 1.432,0.592 1.953,1.185l2.326,1.185c0.522,0.148 1.297,0.296 2.326,0.296h3.892c1.029,0 2.058,0.148 3.102,0.444c1.029,0.148 2.073,0.592 3.102,1.185c5.174,0.444 10.364,0.889 15.538,1.037c5.174,0.296 10.349,0.444 15.538,0.444c4.653,0 9.052,-0.296 13.197,-0.741c4.146,-0.592 8.291,-0.741 12.422,-0.741h37.28c2.595,0 5.831,-0.148 9.708,-0.444c3.892,-0.296 6.606,-1.926 8.157,-5.036c1.044,-1.481 1.432,-3.407 1.163,-5.777c-0.187,-2.129 -0.599,-4.092 -1.216,-5.963l0.053,0.186c-0.562,-2.204 -1.497,-4.135 -2.746,-5.823l0.033,0.046c-1.124,-1.44 -2.044,-3.11 -2.676,-4.913l-0.038,-0.123c-0.522,-1.481 -1.044,-2.962 -1.566,-4.295c-0.386,-0.869 -0.912,-2.242 -1.396,-3.635l-0.155,-0.513zM622.431,363.056h13.987c2.058,0 4.011,-0.148 5.816,-0.741c1.819,-0.444 3.504,-0.741 5.055,-0.741c2.58,0 5.04,-0.444 7.366,-1.185c2.341,-0.741 4.533,-1.185 6.606,-1.185h20.191c2.595,0 5.309,0.296 8.157,0.889c2.848,0.444 5.577,0.889 8.157,1.481c3.624,1.481 7.381,2.962 11.258,4.295c3.892,1.185 7.381,2.962 10.483,5.036c1.044,0.444 1.819,1.185 2.341,2.222c0.507,1.037 1.029,1.777 1.551,2.37c1.029,1.037 1.551,2.074 1.551,3.111c0,0.889 0.254,2.222 0.775,3.851c0.518,0.985 0.922,2.126 1.151,3.329l0.012,0.077c0.268,1.333 0.134,2.666 -0.388,4.295c0,1.037 -0.254,2.074 -0.775,3.407c-0.454,1.047 -0.736,2.263 -0.775,3.54v0.015c0,0.444 0.134,0.889 0.388,1.481c0.254,0.444 0.134,1.037 -0.388,1.481c0,1.037 -0.134,1.926 -0.388,2.37c-0.315,0.573 -0.702,1.062 -1.159,1.477l-0.004,0.004v6.962c0,1.037 0.522,1.926 1.551,2.37h0.775c1.044,0.444 2.073,0.741 3.102,0.741c1.044,0 1.566,-0.444 1.566,-1.481c1.029,0 1.67,-0.444 1.939,-1.185c0.254,-0.741 0.388,-1.481 0.388,-1.926c1.029,-1.481 1.804,-3.259 2.326,-5.036c0.522,-1.777 1.044,-3.407 1.551,-5.036c1.551,-3.111 2.982,-6.221 4.28,-9.628c0.556,-1.404 0.879,-3.03 0.879,-4.731c0,-2.047 -0.467,-3.986 -1.301,-5.717l0.035,0.08c-0.838,-2.608 -1.501,-4.426 -2.211,-6.22l0.258,0.739c-0.66,-1.906 -1.878,-3.48 -3.459,-4.572l-0.03,-0.02c-1.241,-1.183 -2.641,-2.215 -4.162,-3.058l-0.103,-0.052c-1.629,-0.896 -3.035,-1.929 -4.287,-3.118l0.008,0.007c-1.779,-1.174 -3.042,-2.052 -4.29,-2.949l0.413,0.283c-0.869,-0.611 -1.887,-1.248 -2.938,-1.834l-0.179,-0.092c-1.33,-1.306 -2.719,-2.564 -4.159,-3.765l-0.106,-0.086c-1.225,-0.985 -2.614,-2.007 -4.047,-2.972l-0.218,-0.139c-3.117,-1.481 -6.218,-2.962 -9.32,-4.147c-2.24,-1.017 -5.323,-2.22 -8.465,-3.299l-0.855,-0.255c-1.34,-0.924 -2.889,-1.681 -4.548,-2.19l-0.12,-0.032l-4.653,-1.629c-2.073,-0.444 -4.026,-0.741 -5.831,-0.741h-15.538c-3.355,0 -6.859,0.296 -10.483,0.741c-3.102,0 -6.218,0.148 -9.32,0.444c-3.102,0.148 -6.218,0.592 -9.32,1.185h-8.545c-1.029,0 -2.073,0 -3.102,0.296c-1.044,0.296 -1.819,0.592 -2.326,1.185c-1.044,0 -2.073,0.148 -3.117,0.444c-1.029,0.148 -2.073,0.296 -3.102,0.296c-0.575,0.01 -1.109,0.174 -1.564,0.452l0.013,-0.008c-0.522,0.296 -1.044,0.592 -1.551,1.185c-1.594,1.56 -2.804,3.504 -3.479,5.68l-0.026,0.096c-0.256,0.598 -0.404,1.294 -0.404,2.024c0,1.466 0.599,2.793 1.567,3.753v0c2.595,2.074 5.189,3.555 7.769,4.592c2.595,1.037 5.174,1.481 7.769,1.481zM349.051,560.649c0,0.444 0.254,1.185 0.775,1.926c0.521,0.741 1.029,1.333 1.551,1.926c0,1.037 0.388,2.222 1.163,3.407c0.775,1.333 1.163,2.518 1.163,3.555c1.044,2.518 1.297,5.48 0.775,8.887c-0.507,3.259 -0.775,6.221 -0.775,8.739c-0.522,2.074 -1.029,4.295 -1.551,6.665c-0.522,2.222 -1.297,4.444 -2.326,6.517c-0.522,1.481 -1.432,3.259 -2.729,5.036c-1.21,1.644 -2.145,3.573 -2.688,5.659l-0.026,0.117c-0.522,0 -0.775,0.148 -0.775,0.296v0.444h-42.708c-3.117,0 -6.352,-0.148 -9.723,-0.444c-3.355,-0.148 -6.591,-0.296 -9.708,-0.296h-20.578c-0.746,-0.003 -1.426,-0.284 -1.941,-0.743l0.003,0.002c0,-0.592 0.134,-1.037 0.388,-1.629c0.315,-0.573 0.702,-1.062 1.159,-1.477l0.004,-0.004c2.191,-4.87 4.658,-9.055 7.519,-12.934l-0.137,0.195c2.848,-3.851 5.562,-7.85 8.157,-11.998c2.073,-2.518 4.265,-5.036 6.606,-7.702c2.326,-2.518 4.787,-4.592 7.366,-6.221c2.073,-1.481 4.28,-2.814 6.606,-4.147c2.326,-1.333 4.533,-2.666 6.606,-4.295c2.073,-1.037 4.011,-2.074 5.816,-3.111c1.819,-1.037 3.758,-2.074 5.831,-2.962c0.522,-0.592 1.297,-0.889 2.326,-0.889c1.044,0 1.819,-0.148 2.341,-0.741c1.029,-0.444 1.939,-1.037 2.714,-1.481c0.775,-0.592 1.417,-1.037 1.939,-1.629c0.751,-0.282 1.395,-0.684 1.942,-1.188l-0.004,0.003c0.268,-0.148 0.91,-0.592 1.939,-1.037l6.218,-3.111c2.073,-1.037 4.011,-2.222 5.831,-3.555c1.804,-1.185 3.489,-2.666 5.04,-4.147c2.073,-2.074 3.892,-4.295 5.443,-6.665c1.551,-2.222 2.848,-4.888 3.877,-7.998c0,-1.629 0.268,-2.962 0.775,-4.295c0.492,-1.221 0.777,-2.637 0.777,-4.118c0,-0.062 -0.001,-0.125 -0.002,-0.187v0.009c0.505,-1.099 0.8,-2.383 0.8,-3.736c0,-0.145 -0.003,-0.289 -0.01,-0.432l0.001,0.02v-5.036c0.006,-0.136 0.009,-0.296 0.009,-0.456c0,-2.125 -0.585,-4.114 -1.604,-5.818l0.029,0.053c-1.029,-1.481 -1.029,-3.259 0,-5.332c-0.372,-0.874 -1.059,-1.556 -1.915,-1.917l-0.024,-0.009c-0.569,-0.249 -1.231,-0.409 -1.925,-0.444l-0.013,-0.001c-0.522,-0.444 -1.029,-0.889 -1.551,-1.185l-0.775,-0.296h-1.551c-0.58,-0.009 -1.119,-0.173 -1.58,-0.452l0.014,0.008c-0.507,-0.296 -1.029,-0.296 -1.551,-0.296c-1.002,-0.602 -2.183,-1.021 -3.445,-1.18l-0.044,-0.005c-1.046,-0.265 -2.252,-0.426 -3.492,-0.444h-0.012c-0.507,-0.444 -1.029,-0.741 -1.551,-0.741h-1.551c-1.106,-0.002 -2.173,-0.165 -3.181,-0.465l0.079,0.02c-1.044,-0.148 -1.819,-0.296 -2.326,-0.296h-25.634c-1.551,0 -2.982,0.148 -4.28,0.296c-1.282,0.296 -2.967,0.741 -5.04,1.185c-1.129,0.568 -2.441,0.984 -3.825,1.177l-0.067,0.008c-1.551,0.296 -3.102,0.592 -4.653,1.185c-0.522,0.444 -1.163,1.037 -1.939,1.481c-0.676,0.47 -1.515,0.752 -2.421,0.752c-0.108,0 -0.216,-0.004 -0.322,-0.012l0.014,0.001l-1.163,0.444c-0.569,0.249 -1.231,0.409 -1.925,0.444l-0.013,0.001c-1.772,0.498 -3.317,1.154 -4.752,1.978l0.099,-0.053c-1.566,0.741 -3.117,1.333 -4.667,1.926c-1.029,0.444 -1.939,0.889 -2.714,1.185c-0.775,0.148 -1.685,0.592 -2.729,1.037c-0.507,0 -1.163,0.296 -1.939,0.889c-0.749,0.4 -1.389,0.894 -1.934,1.477l-0.004,0.005c-1.551,0.444 -2.982,1.037 -4.265,1.481c-1.357,0.605 -2.517,1.402 -3.506,2.371l0.001,-0.001c-4.146,2.074 -8.157,4.147 -12.034,6.221c-3.892,1.926 -7.635,4.295 -11.258,6.962c-1.044,0.889 -2.207,1.777 -3.504,2.666c-1.282,0.741 -2.46,1.629 -3.489,2.666c-1.029,1.037 -2.073,1.926 -3.102,2.666c-1.044,0.741 -2.073,1.629 -3.117,2.666c-0.659,1.165 -1.577,2.115 -2.681,2.795l-0.033,0.019c-1.162,0.608 -2.09,1.521 -2.697,2.632l-0.017,0.034c-2.595,2.074 -4.787,4.295 -6.606,6.962c-1.819,2.518 -3.489,5.036 -5.055,7.702c-1.551,2.074 -2.848,3.999 -3.877,5.777c-1.029,1.778 -2.073,3.703 -3.102,5.777c-0.937,0.903 -1.622,2.06 -1.943,3.359l-0.01,0.048c-0.363,1.638 -1.036,3.08 -1.961,4.327l0.022,-0.031c0,0.444 -0.254,1.185 -0.775,1.926c-0.487,0.71 -0.777,1.587 -0.777,2.531c0,0.048 0.001,0.095 0.002,0.142v-0.007c0,0.592 -0.134,1.185 -0.388,1.926c-0.247,0.794 -0.389,1.707 -0.389,2.654c0,0.057 0.001,0.113 0.002,0.169v-0.008c0,1.037 -0.254,1.926 -0.775,2.962c-0.48,0.903 -0.766,1.973 -0.775,3.108v0.003c-0.462,1.276 -0.744,2.748 -0.775,4.281v0.014c0,1.185 -0.268,2.666 -0.775,4.295c0,0.889 -0.268,2.074 -0.775,3.407c-0.522,1.333 -1.044,2.37 -1.566,3.407l-3.102,6.221c-0.522,0 -0.775,0.148 -0.775,0.444v0.296c-2.595,-0.444 -5.055,-0.889 -7.381,-1.185c-2.46,-0.203 -4.708,-0.57 -6.893,-1.099l0.302,0.062c-1.626,-0.379 -3.493,-0.597 -5.411,-0.597c-0.967,0 -1.922,0.055 -2.86,0.163l0.114,-0.011c-2.673,0.192 -5.011,1.472 -6.593,3.39l-0.013,0.016c-1.029,1.629 -1.939,2.962 -2.714,4.295c-0.775,1.333 -1.685,2.666 -2.729,4.295c-1.029,1.481 -2.073,3.407 -3.102,5.777c-1.029,2.222 -1.551,4.444 -1.551,6.517c-0.522,1.629 -0.388,2.666 0.388,3.407c0.775,0.889 1.685,1.481 2.714,2.074c1.044,0.444 2.207,0.889 3.504,1.037c1.282,0.296 2.46,0.444 3.489,0.444h15.538c0,1.037 -0.268,1.926 -0.775,2.666c-0.469,0.726 -0.985,1.357 -1.564,1.924l-0.001,0.001l-1.551,1.629c0,1.037 0.388,1.481 1.163,1.481h1.163c1.566,0.444 2.848,0.889 3.892,1.185c1.029,0.296 2.326,0.296 3.877,0.296c1.551,0.592 3.117,0.889 4.667,0.889h35.729c3.102,0 6.203,-0.741 9.32,-1.926c3.102,-1.333 6.203,-2.518 9.32,-3.555c1.551,0 2.848,-0.296 3.877,-1.185c0.992,-0.656 2.211,-1.047 3.522,-1.047c0.125,0 0.249,0.004 0.372,0.011l-0.017,-0.001c1.044,0 1.953,-0.148 2.729,-0.444c0.776,-0.296 1.685,-0.592 2.714,-1.185h65.24c2.595,0.592 5.443,0.889 8.545,1.185c3.102,0.296 6.218,0.444 9.32,0.444h3.102c-0.507,0 -0.775,0 -0.775,0.296v0.444c-0.952,0.959 -1.734,2.087 -2.297,3.335l-0.029,0.072c-0.55,1.385 -1.339,2.569 -2.327,3.555l0.001,-0.001c-2.073,2.074 -4.146,3.555 -6.218,4.592c-2.072,1.037 -4.399,2.074 -6.994,3.111c-1.551,0.444 -2.848,0.889 -3.877,1.185c-1.044,0.148 -2.326,0.592 -3.892,1.037c-1.029,0 -2.192,0.148 -3.489,0.444c-1.297,0.296 -2.714,0.592 -4.265,1.185c-5.189,1.037 -10.23,1.481 -15.15,1.481h-26.021c-2.073,0 -4.011,-0.296 -5.816,-0.741c-1.819,-0.592 -3.504,-1.037 -5.055,-1.481c-2.595,-0.592 -4.921,-1.333 -6.994,-2.37l-6.203,-3.111c-0.756,-0.284 -1.404,-0.685 -1.958,-1.189l0.004,0.004c-0.254,-0.148 -0.895,-0.148 -1.939,0.444c-0.012,0 -0.025,0 -0.039,0c-0.414,0 -0.801,0.11 -1.135,0.302l0.011,-0.006l-1.163,1.185l-2.326,1.185c-0.599,0.286 -1.303,0.453 -2.046,0.453c-0.104,0 -0.207,-0.003 -0.309,-0.01l0.014,0.001l-3.877,1.926c-1.323,0.534 -2.393,1.463 -3.086,2.637l-0.016,0.029c-2.595,4.147 -1.297,7.406 3.877,10.072c5.174,2.518 8.798,4.592 10.871,6.073c1.044,0.592 2.341,1.037 3.892,1.629c1.551,0.444 2.848,1.037 3.877,1.481c1.551,0.592 3.102,0.889 4.667,1.185c1.551,0.296 3.102,0.592 4.653,1.185c4.667,1.037 9.066,2.074 13.212,3.111c4.131,1.037 8.53,1.777 13.197,2.222h6.606c2.326,0 4.518,-0.148 6.591,-0.741c2.073,-0.444 4.414,-0.889 6.994,-1.185c2.319,-0.08 4.457,-0.787 6.266,-1.954l-0.048,0.029l7.769,-3.111c2.58,-1.037 4.906,-1.777 6.979,-2.222c2.595,-1.037 4.921,-1.777 6.994,-2.37c2.073,-0.444 4.146,-1.185 6.218,-2.222c8.412,-4.541 15.655,-9.4 22.382,-14.863l-0.253,0.199c6.994,-5.777 13.331,-11.85 19.028,-18.515h191.066c2.073,0 4.131,-0.296 6.203,-0.889c2.073,-0.444 4.146,-0.741 6.218,-0.741c2.073,-0.444 4.146,-0.889 6.218,-1.185c2.073,-0.148 4.131,-0.592 6.203,-1.037c2.073,0 4.28,-0.444 6.606,-1.185c2.326,-0.889 4.533,-1.481 6.606,-1.926c5.696,-1.037 10.871,-2.962 15.523,-5.777c4.667,-2.814 8.813,-6.369 12.437,-10.517l4.653,-4.592c1.551,-1.481 2.595,-3.407 3.117,-5.332v-3.555c0.001,-0.035 0.001,-0.075 0.001,-0.116c0,-1.199 -0.287,-2.331 -0.796,-3.333l0.02,0.042h-0.79l-11.646,3.851c-1.04,-1.01 -2.464,-1.634 -4.035,-1.634c-0.081,0 -0.161,0.002 -0.241,0.005h0.011c-0.157,0.006 -0.342,0.01 -0.528,0.01c-1.621,0 -3.178,-0.275 -4.625,-0.78l0.098,0.03h-12.809c-0.091,-0.003 -0.197,-0.004 -0.304,-0.004c-1.431,0 -2.797,0.273 -4.049,0.771l0.074,-0.026c-0.507,0 -1.029,0.296 -1.551,0.889l-1.551,1.481c-0.345,0.554 -0.612,1.198 -0.767,1.884l-0.008,0.042c0,0.296 -0.254,0.592 -0.775,1.185l-1.551,1.481c-0.358,0.453 -0.909,0.741 -1.528,0.741c-0.008,0 -0.016,0 -0.024,0h0.001c-0.522,0.592 -1.297,0.889 -2.341,0.889h-2.326c-2.595,0.444 -5.309,1.037 -8.157,1.481c-2.848,0.592 -5.816,0.741 -8.932,0.741h-49.701c-2.073,0 -4.399,0.296 -6.994,0.889c-2.58,0 -5.309,0 -8.157,0.296c-2.848,0.296 -5.562,0.592 -8.157,1.185c-8.276,0.444 -16.567,0.741 -24.843,0.741h-83.879c0.955,-2.735 1.521,-5.889 1.551,-9.169v-0.014c0.522,-2.074 0.775,-4.295 0.775,-6.665v-6.517c0,-2.074 -0.134,-3.999 -0.388,-5.777c-0.247,-1.69 -0.388,-3.641 -0.388,-5.625c0,-0.053 0,-0.107 0,-0.16v0.008c-0.522,-1.481 -0.775,-3.259 -0.775,-5.036c0,-1.777 -0.268,-3.407 -0.775,-5.036c0,-1.037 -0.268,-1.926 -0.775,-2.666c-0.487,-0.71 -0.777,-1.587 -0.777,-2.531c0,-0.048 0.001,-0.095 0.002,-0.142v0.007c-0.883,-2.725 -1.546,-4.542 -2.249,-6.339l0.296,0.859c-0.96,-2.487 -1.873,-4.488 -2.883,-6.431l0.169,0.358c-0.871,-2.713 -1.529,-4.531 -2.229,-6.328l0.29,0.848c-0.66,-1.909 -1.884,-3.485 -3.474,-4.572l-0.031,-0.02c-1.029,-0.444 -2.058,-1.185 -3.102,-1.926c-1.029,-0.741 -1.804,-1.185 -2.326,-1.185l-10.871,20.885zM516.81,438.746c-1.044,0.444 -1.953,1.037 -2.729,1.481c-0.816,0.627 -1.471,1.42 -1.921,2.331l-0.017,0.039c-0.443,0.355 -0.735,0.881 -0.775,1.475v0.006c0,0.592 -0.254,1.037 -0.775,1.629c-0.562,1.081 -1.349,1.976 -2.304,2.651l-0.023,0.015c-1.044,0.741 -2.073,1.629 -3.117,2.666c-1.551,2.074 -2.967,4.444 -4.265,6.962c-1.171,2.221 -2.109,4.797 -2.68,7.507l-0.034,0.195v3.111c-0.321,0.763 -0.508,1.649 -0.508,2.579c0,0.45 0.044,0.89 0.127,1.316l-0.007,-0.043c0.254,1.037 0.641,2.074 1.163,3.111c0,1.481 0.119,2.814 0.388,3.851c0.254,1.037 0.641,2.074 1.163,3.111c1.029,1.037 2.207,2.074 3.489,3.111c1.297,1.037 2.729,1.777 4.28,2.222c1.029,0.592 2.192,1.185 3.489,1.926c1.297,0.741 2.714,1.629 4.28,2.666c2.58,1.037 5.696,1.629 9.32,1.629h21.742c3.624,0 7.247,-0.296 10.871,-0.741c3.624,0 7.128,-0.296 10.483,-0.889c3.37,-0.444 6.606,-0.741 9.708,-0.741h19.415c6.218,0 12.437,-0.296 18.64,-0.741c5.189,-0.592 10.23,-0.741 15.15,-0.741h14.375c4.131,0 8.142,-0.148 12.034,-0.444c3.877,-0.296 7.635,-0.592 11.258,-1.185c6.218,-0.444 12.69,-0.741 19.415,-0.741c6.74,0 12.944,-1.481 18.64,-4.592c3.102,-1.481 5.95,-3.703 8.545,-6.517c2.595,-2.814 4.667,-5.777 6.218,-8.887c1.551,-2.074 2.714,-3.851 3.489,-5.48c0.796,-1.53 1.462,-3.308 1.906,-5.171l0.032,-0.161c0.522,-1.629 0.775,-3.259 0.775,-5.036c0,-1.777 -0.254,-3.407 -0.775,-5.036c0,-2.074 -0.119,-3.999 -0.388,-5.777c-0.247,-1.69 -0.388,-3.641 -0.388,-5.625c0,-0.053 0,-0.107 0,-0.16v0.008c-0.522,-1.037 -0.641,-1.926 -0.388,-2.666c0.268,-0.741 0.134,-1.629 -0.388,-2.666c-0.092,-1.925 -0.808,-3.668 -1.951,-5.051l0.012,0.015c-1.129,-1.601 -2.275,-3.002 -3.511,-4.319l0.021,0.023c-1.044,-1.481 -2.207,-2.962 -3.504,-4.295c-1.458,-1.314 -3.115,-2.45 -4.913,-3.349l-0.127,-0.058l-9.32,-6.221c-2.018,-1.963 -4.73,-3.23 -7.736,-3.405l-0.033,-0.002c-3.117,-0.296 -5.965,-0.889 -8.545,-1.926c-2.595,-0.592 -4.921,-0.741 -6.994,-0.741h-26.409c-7.247,0 -14.494,0.592 -21.742,1.926c-7.247,1.185 -14.494,2.962 -21.742,5.036c-3.117,0.889 -6.352,1.777 -9.708,2.222c-3.37,0.592 -6.859,1.333 -10.498,2.37c-3.624,1.037 -7.247,2.074 -10.871,3.407c-3.624,1.333 -6.979,2.666 -10.095,4.295l-13.972,4.592c-4.667,1.629 -9.066,2.814 -13.212,3.851c-4.131,1.037 -8.157,2.518 -12.034,4.295c-3.877,1.777 -7.903,3.407 -12.034,5.036c-8.813,3.555 -11.005,4.592 -6.606,2.962l6.606,-2.222z" /></svg>