<svg xmlns="http://www.w3.org/2000/svg" viewBox="0 0 988 992" width="988" height="992"><path d="M266.061,726.307c3.04,-3.317 5.895,-6.4 7.921,-9.119c5.572,-7.459 11.836,-16.026 17.04,-25.145c0.324,0.129 0.693,0.313 1.061,0.461c-4.378,9.397 -5.895,24.134 -7.277,40.76c-0.509,6.356 -0.968,11.834 -1.614,14.83c-2.212,10.731 -4.743,23.394 -6.725,35.876c-0.112,0.554 -0.184,1.151 -0.332,1.703c-4.283,-7.784 -9.073,-15.291 -14.507,-22.844l-1.242,-1.657c-3.731,-5.111 -8.844,-12.111 -7.646,-17.224c0.966,-4.19 8.381,-12.295 13.309,-17.638z" /> <path d="M253.033,402.834l0.737,1.61c16.072,34.31 15.195,44.764 14.046,47.667c-0.11,0.338 -0.184,0.412 -0.184,0.412c-2.58,1.009 -4.422,3.406 -4.79,6.168c-1.426,10.408 -0.043,19.986 1.289,29.244c0.874,6.129 1.787,12.481 1.751,18.745c-0.046,10.269 -2.212,21.553 -4.559,32.652c-4.188,-5.341 -8.747,-10.592 -12.616,-15.105l-2.44,-2.812c-7.876,-9.164 -18.42,-17.179 -33.205,-25.145c-8.337,-4.513 -16.719,-8.335 -23.949,-11.606c-14.462,-6.538 -31.779,-9.855 -47.069,-12.802l-1.751,-0.332c0.552,-0.228 1.152,-0.469 1.657,-0.689c1.842,-0.737 3.315,-1.339 4.513,-1.751c20.218,-6.909 31.363,-13.034 47.805,-26.159c1.614,-1.336 3.18,-2.487 4.606,-3.592c7.692,-5.848 14.231,-10.868 19.205,-23.165c0.412,-1.014 0.877,-2.026 1.289,-3.04l0.784,-1.657c0.693,-1.612 1.429,-3.226 2.166,-4.836c1.935,-4.329 3.959,-8.842 5.757,-13.448l0.505,-1.332c2.302,-5.85 5.208,-13.402 6.54,-21.048c6.447,6.493 11.606,18.052 15.612,26.941c0.785,1.749 1.566,3.455 2.303,5.065z" /> <path d="M696.732,692.511c0.368,-0.129 0.737,-0.277 1.105,-0.461c5.205,9.119 11.423,17.683 16.995,25.145c2.026,2.717 4.925,5.848 7.921,9.119c4.929,5.388 12.343,13.448 13.357,17.638c1.151,5.111 -3.96,12.111 -7.691,17.224l-1.198,1.657c-5.479,7.553 -10.27,15.11 -14.553,22.89c-0.112,-0.602 -0.258,-1.199 -0.332,-1.751c-1.983,-12.434 -4.515,-25.1 -6.725,-35.831c-0.642,-3.04 -1.058,-8.522 -1.61,-14.876c-1.336,-16.627 -2.903,-31.368 -7.277,-40.76z" /> <path d="M412.067,712.82c0.412,0.074 0.83,0.074 1.242,0.074c3.592,0 6.632,-2.394 7.553,-5.802c1.841,5.941 4.374,12.527 7.875,17.777c-4.558,-1.335 -9.071,-2.303 -13.125,-2.303c-7,0.044 -14.278,1.842 -21.278,3.545c-4.144,1.014 -8.012,1.978 -11.513,2.487c-29.936,4.516 -57.984,21.232 -75.761,44.536c0.459,-4.054 0.92,-8.014 1.332,-11.929c0.556,-4.836 1.798,-9.856 2.996,-14.737c2.07,-8.473 4.236,-17.272 3.452,-26.85c-0.268,-3.131 -0.416,-6.169 -0.6,-9.165c-0.23,-4.927 -0.505,-9.809 -1.198,-14.737c4.743,0.412 9.717,0.781 15.06,1.149c10.822,0.689 21,1.381 31.547,2.899c5.343,0.782 9.763,3.133 14.876,5.895c3.453,1.845 7.045,3.779 11.19,5.297c4.743,1.751 9.163,1.935 12.066,1.935c1.841,0 3.73,-0.11 5.572,-0.184c1.66,-0.074 3.224,-0.184 4.79,-0.184c1.521,0 2.766,0.11 3.915,0.294z" /> <path d="M898.064,483.712c2.534,-1.701 3.869,-4.788 3.364,-7.78c-0.507,-3.038 -2.719,-5.479 -5.666,-6.309c-3.315,-0.921 -6.769,-1.548 -10.454,-1.842c0.404,-1.519 0.361,-3.085 -0.148,-4.606c-0.829,-2.531 -2.903,-4.466 -5.481,-5.159c-9.672,-2.487 -17.504,-5.389 -28.508,-9.856c-4.929,-2.029 -9.949,-3.593 -14.785,-5.159c-14.924,-4.697 -27.772,-8.797 -35.049,-23.304c-8.658,-17.408 -18.21,-48.956 -18.468,-68.299c-0.048,-5.298 2.164,-10.456 4.742,-16.397c2.44,-5.757 4.973,-11.698 5.941,-18.698c0.369,-2.808 0.663,-5.666 0.921,-8.474c0.736,-7.782 1.426,-15.153 4.742,-20.955c2.397,-4.099 6.264,-7.646 10.363,-11.422c3.04,-2.856 6.17,-5.757 9.026,-9.165c1.15,-1.38 2.255,-2.717 3.316,-4.099c2.947,-3.731 5.71,-7.232 9.026,-9.626c2.624,-1.89 3.82,-5.114 3.04,-8.244c-0.736,-3.129 -3.313,-5.432 -6.493,-5.941c-0.873,-0.11 -1.751,-0.184 -2.624,-0.184c-16.902,0 -33.576,23.488 -39.93,33.528c-4.559,7.184 -9.901,14.091 -15.06,20.816c-6.356,8.199 -12.895,16.722 -18.422,26.114c-5.48,9.396 -12.159,16.811 -19.205,24.686c-3.545,3.961 -7.186,8.06 -10.822,12.482c-7.691,9.488 -11.238,21.417 -14.646,32.93c-1.657,5.434 -3.178,10.593 -5.065,15.29c-1.658,4.053 -3.408,8.059 -5.159,12.113c-5.804,13.264 -11.743,26.942 -13.909,41.956c-2.766,19.389 0.136,46.055 3.452,63.004c1.66,8.521 4.055,16.904 6.402,25.009c4.33,15.244 8.427,29.567 7.966,44.443c-0.368,11.516 -5.159,22.383 -10.224,33.944c-3.314,7.552 -6.721,15.337 -8.98,23.626c-1.475,-1.795 -3.687,-2.856 -6.034,-2.856c-0.646,0 -1.289,0.074 -1.935,0.258c-3.135,0.784 -5.438,3.362 -5.85,6.586c-0.461,3.453 0,6.725 0.412,9.303c0.112,0.552 0.258,1.61 0.332,2.578c-0.275,0 -0.636,0 -0.968,0c-1.704,-0.038 -3.502,-0.074 -4.928,-0.074c-2.028,0 -3.133,0.072 -4.054,0.22c-4.376,0.873 -8.242,2.717 -11.606,4.374c-2.162,1.062 -4.233,2.028 -6.168,2.628c-5.343,1.654 -13.955,3.452 -22.06,3.452c-7.782,0 -13.495,-1.705 -14.921,-4.467c-0.785,-1.429 -1.89,-2.579 -3.316,-3.316c-1.566,-0.83 -3.271,-1.242 -4.974,-1.242c-8.799,0 -12.482,9.165 -16.765,19.757c-2.808,7 -4.79,11.146 -5.895,12.388c-3.547,1.473 -5.573,5.343 -4.652,9.119c0.83,3.592 4.006,6.079 7.646,6.079c0.412,0 0.826,-0.074 1.242,-0.148c1.153,-0.146 2.442,-0.22 3.915,-0.22c1.567,0 3.131,0.112 4.697,0.148c1.98,0.146 3.821,0.22 5.711,0.22c2.901,0 7.323,-0.184 12.02,-1.935c4.145,-1.567 7.737,-3.456 11.238,-5.343c5.112,-2.715 9.488,-5.111 14.876,-5.895c10.501,-1.524 20.725,-2.163 31.502,-2.856c5.388,-0.365 10.363,-0.733 15.06,-1.149c-0.646,4.882 -0.94,9.764 -1.198,14.692c-0.136,2.997 -0.294,6.035 -0.552,9.165c-0.831,9.579 1.333,18.375 3.452,26.896c1.196,4.836 2.438,9.901 2.947,14.737c0.411,3.869 0.871,7.875 1.332,11.929c-17.732,-23.35 -45.78,-40.023 -75.761,-44.582c-3.453,-0.509 -7.368,-1.473 -11.513,-2.487c-7.002,-1.703 -14.277,-3.471 -21.048,-3.545c-7.737,0 -16.765,3.269 -24.686,6.125c-2.765,0.968 -5.157,1.794 -7.139,2.394c-3.915,1.153 -6.261,5.068 -5.481,9.074c0.737,3.683 3.961,6.354 7.737,6.354c0.232,0 0.526,0 0.784,-0.036c0.969,-0.112 1.933,-0.148 2.947,-0.148c8.29,0 18.193,3.177 27.726,6.264c6.909,2.212 14,4.515 20.955,5.757c12.943,2.394 30.627,8.428 41.312,23.672c0.873,1.242 1.703,2.44 2.487,3.545c4.238,6.217 7.875,11.468 14.646,17.593c2.855,2.533 6.127,4.927 9.303,7.23c4.652,3.362 9.442,6.816 11.929,10.224c3.777,5.113 9.628,16.626 13.264,25.975c0,0.693 0.11,1.336 0.294,1.982l0.258,1.105c0.642,2.487 1.379,5.341 3.545,8.521c1.473,2.119 3.915,3.408 6.493,3.408c1.057,0 2.115,-0.184 3.083,-0.6c2.212,-0.922 3.776,-2.762 4.422,-4.928c4.238,-2.258 6.448,-6.908 8.014,-10.179c0.321,-0.645 0.663,-1.287 0.921,-1.887c3.408,-6.678 6.355,-11.329 10.04,-17.27l2.856,-4.513c3.178,-5.158 4.836,-10.731 6.402,-16.119c1.105,-3.685 2.115,-7.23 3.545,-10.133c3.499,-7.046 8.658,-15.244 13.678,-22.981c3.13,-4.885 5.527,-6.127 9.901,-8.337c2.672,-1.38 5.941,-3.04 9.672,-5.802c2.994,-2.21 5.343,-4.377 7.646,-6.448c3.362,-3.085 5.988,-5.529 9.994,-7.507c3.869,-1.935 7.645,-4.053 11.606,-6.309c11.193,-6.264 22.706,-12.757 33.621,-12.757c0.368,0 0.729,0 1.061,0h0.036c2.947,0 5.389,-1.335 6.862,-3.545c1.337,-2.075 4.329,-4.79 14.462,-4.79c4.281,0 8.796,0.505 12.802,0.921c1.291,0.158 2.536,0.268 3.685,0.416c0.275,0 0.522,0.036 0.78,0.036c3.131,0 5.941,-1.887 7.23,-4.79c1.337,-3.131 0.507,-6.767 -2.071,-9.026c-1.383,-1.246 -2.993,-2.21 -4.559,-3.224c1.629,-1.797 2.396,-4.285 1.887,-6.725c-0.783,-3.731 -2.442,-7.092 -4.099,-10.363c-1.105,-2.212 -2.487,-4.972 -2.671,-6.402c-0.413,-3.456 0.325,-7.83 1.105,-12.482c0.83,-4.791 1.65,-9.765 1.43,-14.785c-0.325,-8.195 -0.828,-16.07 -1.289,-23.9c-0.783,-12.573 -1.52,-24.456 -1.704,-37.029c-0.091,-4.559 -0.338,-8.89 -0.596,-13.08c-0.599,-9.808 -1.152,-19.065 1.058,-29.244c1.198,-5.527 5.02,-11.652 8.705,-17.593c5.663,-9.074 11.522,-18.422 11.19,-29.199c-0.095,-2.671 -1.475,-5.111 -3.731,-6.493c-1.246,-0.781 -2.719,-1.149 -4.145,-1.149c-1.154,0 -2.303,0.232 -3.364,0.737c-8.981,4.191 -17.318,11.927 -25.423,19.389c-3.319,3.133 -6.495,6.036 -9.487,8.567c-3.362,2.765 -6.63,5.989 -9.81,9.119c-4.79,4.697 -9.764,9.626 -14.6,12.434c-2.21,1.338 -4.929,2.536 -7.553,3.685c-4.558,1.98 -9.626,4.238 -13.632,7.83c-3.408,0.646 -6.311,2.208 -8.658,4.652c-2.056,2.119 -2.766,5.206 -1.798,8.014c0.966,2.806 3.41,4.834 6.309,5.25c0.968,0.184 1.564,0.22 2.21,0.22c2.488,0 4.559,-0.921 7.23,-2.578c0.412,0.036 0.828,0.074 1.289,0.184c1.612,0.247 3.638,0.505 5.757,0.505c0.83,0 1.61,-0.074 2.44,-0.148c7.094,-0.737 16.857,-2.764 25.009,-5.711c0.503,7.783 0.817,15.888 1.149,24.409c0.737,18.743 1.472,38.688 4.559,57.752c-4.514,-10.731 -20.955,-23.074 -52.78,-39.884l-2.119,-1.105c-16.211,-8.796 -32.33,-18.652 -47.897,-28.139l-0.332,-0.22l-2.44,-1.473c2.807,-2.856 5.435,-5.987 7.966,-9.074c3.868,-4.606 7.828,-9.397 11.882,-12.527c6.679,-5.065 11.884,-11.145 16.949,-17.04c5.481,-6.403 10.64,-12.434 17.133,-16.488c19.298,-12.068 43.845,-20.173 61.024,-24.87c3.317,-0.921 7.416,-1.748 11.745,-2.578c11.284,-2.303 24.086,-4.835 32.607,-10.592zM517.773,718.417c5.065,4.374 11.006,6.677 17.224,6.677c9.21,0 18.006,-5.02 23.533,-13.448c5.711,-8.613 9.721,-18.698 13.357,-28.324c3.021,-8.198 2.983,-16.026 2.947,-22.935c0,-3.546 -0.044,-7.184 0.368,-10.685c1.06,-9.533 5.666,-17.777 10.547,-26.528l0.416,-0.784c0.412,-0.737 0.725,-1.564 0.873,-2.394c1.519,-8.428 2.717,-15.842 3.822,-22.751c0.964,-6.125 1.885,-11.698 2.899,-17.27c0.148,-0.964 0.148,-1.931 -0.036,-2.899c-1.107,-5.849 -0.325,-11.146 2.394,-15.705c1.382,-1.243 2.212,-2.626 2.624,-4.099c1.242,-4.788 2.394,-8.841 3.636,-12.802l1.61,-5.343c4.975,-16.026 10.088,-32.561 17.502,-47.298c3.038,-6.032 7.228,-14.276 12.616,-18.698c1.796,-1.475 4.19,-2.674 6.677,-4.006c4.008,-2.073 8.566,-4.467 12.297,-8.521c5.343,-5.805 7.046,-12.391 8.567,-18.193c0.644,-2.487 1.289,-5.02 2.21,-7.323c2.487,-6.216 17.362,-40.573 20.218,-45.916c0.78,-0.968 1.352,-2.073 1.61,-3.271c0.074,-0.141 0.148,-0.545 0.148,-0.693c0.038,-0.322 0.038,-0.636 0.074,-0.968c11.006,-23.765 22.383,-50.247 24.04,-67.61c1.659,-17.406 -0.828,-37.302 -7.23,-57.566c-0.369,-1.152 -1.012,-2.253 -1.842,-3.13c-8.012,-8.289 -15.519,-18.468 -24.224,-32.975c-0.148,-0.258 -0.184,-0.332 -0.184,-0.332c2.989,-2.394 3.639,-6.585 1.657,-9.901c-1.518,-2.396 -2.578,-4.424 -3.408,-6.402c-0.275,-0.787 -0.737,-1.519 -1.289,-2.119l-0.552,-0.646l-0.22,-0.332c-0.6,-0.642 -1.245,-1.198 -1.982,-1.61c-16.904,-9.994 -18.377,-37.581 -19.666,-61.944l-0.036,-0.505c0,-0.552 -0.11,-1.105 -0.258,-1.657c-4.697,-17.225 -11.79,-24.5 -32.975,-33.758c-6.355,-2.765 -13.125,-4.054 -21.369,-4.054c-5.434,0 -10.822,0.553 -16.026,1.105c-2.255,0.23 -4.467,0.462 -6.677,0.646c-1.476,0.14 -2.856,0.689 -4.054,1.566c-2.487,1.844 -5.758,2.812 -9.764,2.812c-2.717,0 -5.618,-0.416 -8.658,-1.289c-0.368,-3.364 -2.487,-5.988 -5.527,-6.909c-9.765,-3.041 -18.193,-4.467 -26.482,-4.467c-10.224,0 -20.219,2.257 -30.627,6.909c-10.869,4.882 -19.988,7.783 -28.646,9.165c-1.057,0.184 -2.07,0.553 -2.947,1.105c-6.263,1.982 -11.145,2.903 -15.428,2.903c-6.082,0 -10.822,-1.749 -15.474,-5.618c-0.074,-0.072 -0.222,-0.22 -0.258,-0.22c-1.016,-0.969 -2.349,-1.596 -3.731,-1.89c-7.368,-1.474 -18.329,-3.268 -28.462,-3.268c-12.02,0 -20.079,2.533 -24.731,7.737c-13.864,15.705 -29.706,60.471 -32.746,69.267c-2.44,7.093 -4.468,13.679 -5.941,18.929c-2.977,10.869 -3.123,21.001 -3.271,30.765c-0.137,7.416 -0.23,15.107 -1.703,22.844c-2.994,15.935 -12.943,29.658 -22.844,42.324c-4.468,5.711 -6.634,14.785 -5.666,23.765c0.691,6.585 3.499,24.684 5.113,34.633c-0.036,1.011 -0.11,2.069 -0.184,3.13c-0.091,1.193 0.045,2.391 0.461,3.452c2.899,7.737 3.96,19.159 4.974,30.258c0.556,5.988 1.105,12.206 1.982,18.008c0.138,0.964 0.459,1.885 0.968,2.762c0.036,0.036 0.146,0.22 0.22,0.368c2.21,4.513 4.744,8.75 7.184,12.895c2.947,4.929 5.712,9.579 7.875,14.507c0.074,0.196 0.112,0.38 0.148,0.416c0.415,1.246 1.152,2.347 2.166,3.224c0.321,0.321 0.693,0.663 1.105,0.921c0.552,0.505 1.012,0.847 1.473,1.105l3.452,5.25c6.723,10.087 13.08,19.575 17.961,31.088c1.75,4.1 3.317,8.383 4.79,12.482c4.284,11.656 8.66,23.674 17.502,33.944c1.65,1.888 1.65,2.627 1.614,5.757c-0.097,2.487 -0.141,5.572 0.964,9.303c2.533,8.89 8.935,17.456 14.094,24.318l0.412,0.552l0.552,0.737l0.552,0.83c1.61,2.165 3.131,4.286 4.513,6.264c0.602,0.874 1.382,1.611 2.259,2.163c3.499,2.258 6.448,5.16 8.658,8.612c4.556,7.09 6.263,16.209 5.065,27.124c-0.074,0.646 -0.074,1.332 0,1.978c1.381,9.765 2.026,21.417 2.947,37.536l0.036,1.061c0.192,3.731 0.338,7.782 0.412,12.02c0,1.198 0.321,2.347 0.83,3.408c2.44,4.789 2.808,11.329 2.808,17.086c0,0.268 -0.036,0.416 -0.036,0.416c-1.663,1.564 -2.479,3.91 -2.259,6.354c0,0.093 0.504,3.179 1.518,7.646c-0.689,-0.733 -1.517,-1.382 -2.531,-1.794c-1.108,-1.244 -3.042,-5.388 -5.85,-12.343c-4.283,-10.64 -7.969,-19.805 -16.765,-19.805c-1.703,0 -3.408,0.412 -4.974,1.242c-1.426,0.738 -2.579,1.89 -3.316,3.316c-1.473,2.763 -7.184,4.467 -14.921,4.467c-8.151,0 -16.763,-1.795 -22.106,-3.452c-1.887,-0.602 -3.962,-1.567 -6.125,-2.628c-3.408,-1.659 -7.23,-3.501 -11.652,-4.374c-0.924,-0.146 -2.028,-0.22 -4.054,-0.22c-1.427,0 -3.177,0.038 -4.928,0.074c-0.322,0 -0.636,0 -0.968,0c0.11,-0.921 0.294,-2.026 0.368,-2.578c0.376,-2.578 0.873,-5.851 0.412,-9.303c-0.416,-3.222 -2.72,-5.802 -5.85,-6.586c-0.646,-0.184 -1.289,-0.258 -1.978,-0.258c-2.303,0 -4.513,1.062 -6.034,2.856c-1.842,-6.909 -4.511,-13.309 -6.955,-18.975l-1.978,-4.606c-5.111,-11.561 -9.892,-22.476 -10.224,-33.989c-0.508,-14.876 3.592,-29.245 7.966,-44.443c2.303,-8.108 4.699,-16.488 6.402,-25.009c3.304,-16.949 6.214,-43.615 3.452,-63.004c-2.164,-15.014 -8.152,-28.692 -13.909,-41.91c-1.795,-4.099 -3.549,-8.105 -5.159,-12.159c-1.935,-4.698 -3.451,-9.856 -5.065,-15.29c-3.454,-11.513 -6.955,-23.443 -14.692,-32.93c-3.546,-4.422 -7.184,-8.473 -10.685,-12.388c-6.447,-7.228 -12.572,-14.044 -17.731,-22.288l-0.6,-0.921c-0.368,-0.552 -0.706,-1.014 -0.964,-1.566c-5.527,-9.397 -12.068,-17.916 -18.422,-26.114c-5.204,-6.722 -10.547,-13.632 -15.06,-20.816c-6.402,-10.04 -23.029,-33.528 -39.93,-33.528c-0.877,0 -1.798,0.11 -2.628,0.184c-3.224,0.507 -5.76,2.811 -6.54,5.941c-0.736,3.131 0.462,6.354 3.04,8.244c3.315,2.396 6.127,5.895 9.026,9.626c1.106,1.384 2.167,2.717 3.316,4.099c2.856,3.408 6.034,6.309 9.074,9.165c4.099,3.776 7.97,7.323 10.317,11.422c3.364,5.802 4.053,13.175 4.79,20.955c0.228,2.808 0.509,5.662 0.921,8.474c0.921,7.001 3.501,12.941 5.941,18.698c2.578,5.943 4.771,11.1 4.697,16.397c-0.275,19.343 -9.763,50.891 -18.468,68.299c-7.23,14.508 -20.125,18.607 -35.001,23.304c-4.836,1.567 -9.856,3.133 -14.83,5.159c-10.96,4.468 -18.79,7.369 -28.462,9.856c-2.624,0.692 -4.65,2.628 -5.527,5.159c-0.486,1.523 -0.486,3.088 -0.074,4.606c-3.73,0.276 -7.185,0.921 -10.501,1.842c-2.947,0.828 -5.157,3.269 -5.618,6.309c-0.505,3.038 0.833,6.077 3.364,7.78c8.521,5.756 21.277,8.289 32.561,10.592c4.376,0.827 8.474,1.657 11.745,2.578c17.179,4.697 41.726,12.804 61.069,24.87c2.81,1.796 5.575,4.054 8.705,7.184c2.855,2.855 5.526,5.987 8.382,9.303c5.067,5.895 10.272,11.975 16.949,17.04c4.102,3.135 8.06,7.921 11.882,12.527c2.578,3.088 5.204,6.218 7.966,9.074l-1.704,1.061c-9.303,5.666 -18.93,11.513 -28.508,17.179c-5.572,3.269 -12.941,7.552 -20.448,11.606l-2.075,1.149c-31.87,16.763 -48.267,29.106 -52.78,39.837c3.041,-19.066 3.822,-39.007 4.559,-57.752c0.321,-8.474 0.644,-16.629 1.105,-24.409c8.198,2.949 17.961,4.974 25.054,5.711c0.78,0.112 1.61,0.148 2.394,0.148c2.166,0 4.188,-0.285 5.802,-0.505c0.412,-0.11 0.826,-0.148 1.242,-0.184c2.717,1.657 4.79,2.578 7.23,2.578c0.737,0 1.382,-0.072 2.119,-0.22c2.808,-0.414 5.345,-2.438 6.309,-5.25c0.967,-2.855 0.325,-5.943 -1.657,-8.014c-2.394,-2.442 -5.294,-4.006 -8.658,-4.652c-4.006,-3.592 -9.119,-5.852 -13.632,-7.83c-2.624,-1.15 -5.339,-2.348 -7.598,-3.685c-4.836,-2.808 -9.764,-7.737 -14.6,-12.434c-3.132,-3.133 -6.4,-6.357 -9.764,-9.119c-3.04,-2.533 -6.172,-5.437 -9.533,-8.567c-8.06,-7.46 -16.397,-15.199 -25.423,-19.389c-1.013,-0.517 -2.167,-0.737 -3.316,-0.737c-1.474,0 -2.903,0.365 -4.145,1.149c-2.258,1.38 -3.657,3.822 -3.731,6.493c-0.323,10.777 5.524,20.125 11.19,29.199c3.685,5.941 7.507,12.066 8.705,17.593c2.212,10.18 1.61,19.434 1.014,29.244c-0.22,4.191 -0.516,8.521 -0.552,13.08c-0.185,12.573 -0.919,24.456 -1.703,37.029c-0.455,7.826 -0.964,15.702 -1.332,23.9c-0.184,5.021 0.643,9.995 1.473,14.785c0.803,4.652 1.522,9.03 1.061,12.482c-0.137,1.428 -1.519,4.192 -2.624,6.402c-1.659,3.27 -3.362,6.632 -4.099,10.363c-0.55,2.487 0.276,4.927 1.89,6.725c-1.612,1.014 -3.177,1.982 -4.559,3.224c-2.627,2.255 -3.457,5.896 -2.075,9.026c1.244,2.903 4.1,4.79 7.23,4.79c0.279,0 0.526,-0.036 0.784,-0.036c1.154,-0.158 2.396,-0.268 3.685,-0.416c4.006,-0.416 8.519,-0.921 12.802,-0.921c10.133,0 13.08,2.715 14.462,4.79c1.427,2.213 3.915,3.545 6.586,3.545c0.645,0 1.014,0 1.382,0c10.912,0 22.427,6.493 33.572,12.757c4.006,2.255 7.783,4.374 11.652,6.309c3.96,1.98 6.63,4.42 9.994,7.507c2.258,2.074 4.606,4.238 7.646,6.448c3.686,2.762 7.001,4.42 9.672,5.802c4.329,2.212 6.725,3.456 9.901,8.337c4.974,7.737 10.131,15.935 13.632,22.981c1.473,2.903 2.487,6.448 3.592,10.133c1.566,5.389 3.222,10.961 6.402,16.074l2.808,4.559c3.731,5.941 6.676,10.593 10.04,17.27c0.321,0.6 0.589,1.242 0.921,1.842c1.566,3.315 3.824,7.968 8.014,10.224c0.691,2.166 2.257,4.007 4.467,4.928c0.969,0.416 1.979,0.6 3.04,0.6c2.624,0 5.02,-1.289 6.493,-3.408c2.21,-3.178 2.946,-6.034 3.592,-8.521l0.148,-0.693c0.264,-0.783 0.412,-1.61 0.412,-2.44v-0.036c3.686,-9.351 9.488,-20.771 13.264,-25.884c2.49,-3.408 7.276,-6.86 11.882,-10.224c3.178,-2.302 6.491,-4.695 9.303,-7.23c6.816,-6.126 10.408,-11.423 14.646,-17.502c0.78,-1.153 1.61,-2.398 2.531,-3.64c10.685,-15.244 28.371,-21.278 41.312,-23.672c6.91,-1.244 14.048,-3.547 20.91,-5.757c9.578,-3.084 19.482,-6.264 27.771,-6.264c1.012,0 1.979,0.074 2.947,0.148c0.275,0.036 0.522,0.036 0.78,0.036c3.731,0 7,-2.669 7.737,-6.354c0.553,-2.949 -0.598,-5.848 -2.808,-7.646c1.522,-0.875 3.086,-1.98 4.652,-3.731c1.841,-2.073 2.901,-4.285 3.731,-6.079c0.278,-0.643 0.536,-1.195 0.83,-1.704c1.151,-2.028 2.625,-2.812 5.941,-4.422c2.118,-1.01 4.746,-2.255 7.277,-4.19c3.592,-2.767 6.307,-5.895 8.935,-8.935c2.624,-3.04 5.109,-5.895 7.921,-7.646c1.844,-1.196 3.915,-1.842 5.666,-1.842c0.739,0 1.475,0.148 2.071,0.368c1.473,0.642 3.177,2.256 4.881,3.822c3.915,3.731 7.97,7.553 10.317,11.975l0.596,1.149c1.104,2.164 2.441,4.925 5.065,7.184zM987.158,545.098c0.737,3.546 -1.382,7.737 -2.303,11.606c-2.163,9.44 -4.282,18.743 -5.159,28.553c-0.921,9.532 -5.757,18.652 -8.244,28.139c-1.84,7.048 -2.488,14.369 -4.006,21.462c-2.028,9.581 -3.963,19.209 -6.725,28.601c-3.039,10.04 -7.049,19.85 -10.685,29.706c-0.877,2.351 -1.982,4.654 -3.271,6.725c-4.192,6.909 -9.074,13.402 -12.666,20.541c-10.409,20.725 -27.772,35.187 -44.075,50.661c-4.054,3.869 -7.969,8.337 -10.547,13.218c-5.434,10.085 -10.085,20.541 -14.737,30.995c-5.389,12.207 -16.257,17.088 -27.633,21.417c-1.291,0.466 -2.671,0.921 -3.685,1.798c-5.02,4.236 -9.348,9.81 -15.014,12.757c-14.876,7.828 -24.409,21.599 -36.752,32.146c-8.335,7.139 -16.626,14.369 -25.1,21.462c-2.028,1.703 -2.996,4.744 -4.422,7.184c0.412,0.232 0.826,0.517 1.242,0.737c1.336,-1.196 2.717,-2.396 4.652,-4.099c-0.148,1.796 0.184,3.135 -0.368,3.731c-5.48,6.218 -9.627,13.725 -19.205,15.198c-13.539,2.119 -26.941,5.252 -39.284,11.606c-0.965,0.46 -2.438,1.289 -2.947,0.921c-5.02,-3.729 -8.109,0.416 -11.745,2.535c-11.929,7.046 -23.72,14.369 -35.924,20.771c-4.099,2.162 -9.488,1.794 -14.278,2.578c-0.505,0.072 -1.058,-0.038 -1.61,0.036c-10.178,2.119 -20.311,4.515 -30.581,6.309c-8.152,1.473 -16.396,2.347 -24.64,3.408c-10.363,1.289 -20.771,2.444 -31.179,3.776c-20.634,2.623 -41.223,5.435 -61.899,7.966c-2.073,0.229 -4.33,-1.105 -6.54,-1.289c-2.212,-0.232 -4.929,-0.784 -6.586,0.184c-15.336,9.21 -30.903,4.927 -46.654,1.703c-10.686,-2.212 -20.635,-7.242 -31.825,-7.462c-2.949,-0.093 -5.711,-2.764 -8.751,-3.869c-9.073,-3.224 -18.054,-6.771 -27.357,-9.258c-13.031,-3.501 -24.362,-10.044 -35.184,-17.824c-1.334,-0.932 -3.59,-0.636 -5.388,-0.968c-1.149,-0.184 -2.531,-0.093 -3.452,-0.689c-5.573,-3.684 -10.638,-8.474 -16.672,-10.961c-5.896,-2.487 -12.757,-2.764 -19.205,-3.869c-1.842,-0.332 -3.776,-0.036 -5.618,-0.368c-27.403,-4.976 -47.024,-23.074 -67.149,-40.16c-12.943,-10.963 -25.47,-22.476 -37.904,-34.128c-7.783,-7.323 -16.534,-14.324 -22.106,-23.213c-7.966,-12.62 -19.48,-20.632 -30.856,-28.969c-10.133,-7.413 -18.468,-16.807 -24.547,-27.124c-11.516,-19.481 -25.978,-37.304 -33.944,-58.95c-7.968,-21.555 -17.042,-42.694 -21.048,-65.491c-0.688,-4.053 -0.781,-8.198 -1.149,-12.297c-0.319,-3.822 -0.688,-7.689 -1.149,-12.802c-0.966,1.751 -1.272,2.303 -1.566,2.812c-2.905,-5.757 -3.133,-10.87 -0.646,-17.547c2.258,-5.94 1.382,-13.864 -3.408,-20.218c1.059,0.458 2.072,0.965 3.13,1.426l0.968,-0.693c-2.856,-4.468 -5.668,-8.935 -8.567,-13.357c-0.784,-1.154 -2.166,-1.982 -2.671,-3.18c-8.658,-20.771 -12.527,-42.831 -16.488,-64.8c-2.439,-13.448 -1.887,-27.265 5.159,-39.469c9.717,-16.904 12.068,-35.556 15.198,-54.208c0.688,-4.283 2.576,-8.566 4.742,-12.388c3.867,-6.816 2.441,-14.184 3.087,-21.323c0.598,-6.907 0.321,-13.953 1.014,-20.862c0.505,-5.434 1.931,-10.777 2.899,-15.981c0.184,0.462 0.399,1.289 0.693,2.119c0.455,0.148 0.92,0.22 1.332,0.368c2.717,-8.29 5.711,-16.488 8.014,-24.916c2.487,-9.12 4.33,-18.423 6.493,-27.633c0.415,-1.704 0.783,-3.59 1.704,-5.02c5.343,-8.244 10.777,-16.395 16.258,-24.547c0.92,-1.289 2.253,-2.303 3.13,-3.592c3.501,-5.066 7.093,-10.086 10.317,-15.29c1.518,-2.439 2.395,-5.295 4.742,-7.598c-0.129,1.426 -0.313,2.812 -0.461,4.238c0.552,0.148 1.105,0.22 1.657,0.368c1.149,-4.743 2.21,-9.488 3.408,-14.185c2.992,-11.607 4.836,-23.904 14.553,-32.332c9.856,-8.519 20.91,-15.751 30.029,-24.961c7.462,-7.601 13.309,-16.949 18.975,-26.114c6.218,-10.088 9.856,-21.785 19.85,-30.213c0.325,0.738 0.83,1.75 1.798,3.685c4.145,-5.527 7.785,-9.856 10.961,-14.553c8.612,-12.896 21.783,-19.757 35.001,-26.389c5.618,-2.808 12.48,-3.176 17.961,-6.079c7.691,-4.054 14.599,-9.442 21.876,-14.278c4.467,-2.948 8.841,-6.077 13.493,-8.705c1.521,-0.837 3.776,-0.357 5.666,-0.505c0.228,0.738 0.517,1.472 0.737,2.256c5.388,-3.638 10.777,-7.276 16.165,-10.961c-0.184,-0.459 -0.368,-0.964 -0.552,-1.473c-2.578,0.83 -5.159,1.657 -7.737,2.487c-0.279,-0.232 -0.564,-0.473 -0.784,-0.693c1.29,-1.193 2.488,-3.12 3.961,-3.452c8.474,-1.752 16.304,-6.72 25.423,-5.388c1.287,0.137 2.717,-0.847 4.099,-1.105c9.949,-1.935 19.941,-3.87 29.89,-5.757c8.105,-1.61 16.211,-3.315 24.363,-4.697c2.118,-0.325 4.465,0.884 6.54,0.552c5.249,-0.923 10.362,-2.396 15.612,-3.501c0.921,-0.184 2.073,0.426 3.087,0.646c-0.038,0.552 -0.038,1.105 -0.074,1.657c3.593,-1.844 7.232,-3.684 10.777,-5.666c0.877,-0.505 2.119,-1.519 2.119,-2.256c-0.091,-5.341 4.79,-6.309 7.83,-8.06c5.805,-3.408 12.205,-5.939 18.607,-8.105c2.442,-0.83 5.529,0.294 8.337,0.552c0.11,0.044 0.146,0.412 0.294,0.412c6.863,1.289 13.679,3.084 20.541,3.636c7.369,0.589 14.785,0 22.199,-0.148c7.095,-0.074 14.23,-0.332 21.323,-0.258c3.362,0.093 6.679,0.866 9.303,1.198c0.927,1.703 1.382,3.822 2.259,4.006c5.618,1.058 11.42,3.086 16.533,-1.704c0.552,-0.498 1.564,-0.646 2.394,-0.646c11.375,0.186 22.936,-0.922 33.528,4.928c9.904,5.424 20.956,4.604 31.641,5.572c9.21,0.924 18.606,0.924 27.771,2.256c4.652,0.644 9.119,3.272 13.541,5.25c8.153,3.638 16.351,7.184 24.272,11.329c7.093,3.727 15.292,6.859 20.357,12.616c9.626,10.87 22.383,17.547 32.607,27.403c3.363,3.224 7.601,5.987 11.975,7.553c10.731,3.868 21.739,7.046 32.7,10.27c2.623,0.729 5.527,0.325 8.289,0.693c1.889,0.229 4.42,0.32 5.481,1.518c4.008,4.7 7.507,9.811 11.238,14.785c0.969,1.196 2.167,2.21 3.04,3.452c2.533,3.731 4.927,7.507 7.414,11.238c1.517,2.21 3.131,4.33 4.697,6.493c2.116,2.903 4.283,5.758 6.354,8.705c3.135,4.56 6.22,9.166 9.303,13.725c0.462,-0.184 0.969,-0.38 1.43,-0.6c0.203,-1.334 0.313,-2.671 0.461,-3.869c7.83,6.538 15.935,12.756 23.397,19.711c3.685,3.454 8.447,8.06 8.705,12.434c0.601,8.105 6.543,11.836 10.179,17.408c4.192,6.402 8.705,12.62 12.988,18.929c6.539,9.58 11.698,20.587 19.896,28.462c9.074,8.747 12.989,20.956 21.601,28.736c0.177,1.796 -0.184,3.406 0.509,4.374c3.683,5.343 7.691,10.5 11.513,15.797c0.644,0.921 0.995,2.21 1.105,3.408c0.83,6.909 1.382,13.862 2.303,20.771c0.325,2.394 0.97,4.927 2.119,7.046c3.501,6.263 -1.517,12.668 0.693,18.836c0.413,1.061 0.829,2.166 1.518,3.087c1.522,2.073 3.592,3.824 4.79,6.034c2.901,5.527 5.988,11.006 8.014,16.856c3.456,9.765 6.266,19.757 9.074,29.706c3.408,12.068 6.679,24.133 9.626,36.292c0.873,3.638 1.014,7.737 0.368,11.468c-2.349,13.171 -5.387,26.25 -7.646,39.423c-0.686,4.053 0.388,8.382 0.646,12.527c0.596,-0.074 1.198,-0.112 1.794,-0.148v-5.159c5.247,7.692 10.865,16.165 9.392,24.916c-1.474,8.935 2.071,15.751 3.685,23.488z" /> <path d="M834.478,667.172c1.566,0 3.085,-0.455 4.422,-1.332c4.146,-2.81 6.366,-6.771 6.586,-11.238c2.903,14.876 7.37,29.015 14.6,41.449c-3.362,-0.552 -6.816,-0.968 -10.592,-0.968c-17.226,0 -36.015,5.895 -52.596,11.054c-7.414,2.302 -14.46,4.513 -19.757,5.618c-7,1.426 -11.467,2.21 -15.198,2.21c-5.388,0 -9.21,-1.796 -15.06,-7.093c-2.442,-2.21 -5.022,-4.649 -7.646,-7.184c-9.164,-8.749 -19.388,-18.514 -30.165,-24.086c0.319,-2.074 0.56,-4.238 0.78,-6.264c0.184,-1.566 0.332,-3.223 0.552,-4.974c0.313,-2.442 0.425,-4.881 0.461,-7.184c0.135,-3.499 0.228,-6.816 1.149,-9.578c0.968,-3.039 2.715,-5.759 4.79,-8.889c2.394,-3.779 5.159,-8.014 6.677,-13.357c1.566,-5.388 3.076,-14 3.408,-22.337c2.81,1.245 5.666,2.396 8.337,3.501c2.717,1.105 5.113,2.119 7.139,3.04l0.737,0.368c11.558,5.25 21.553,9.857 33.159,13.402c3.915,6.587 13.08,11.054 21.969,15.383c3.82,1.84 7.782,3.778 9.392,5.02c7.185,5.711 12.482,11.516 18.561,18.193l2.487,2.719c1.519,1.61 3.592,2.531 5.802,2.531z" /> <path d="M128.747,696.051c7.184,-12.436 11.697,-26.62 14.553,-41.496c0.23,4.467 2.487,8.426 6.632,11.238c1.292,0.877 2.808,1.382 4.422,1.382c2.165,0 4.284,-0.968 5.757,-2.578l2.487,-2.719c6.125,-6.677 11.423,-12.434 18.607,-18.145c1.562,-1.243 5.57,-3.175 9.392,-5.065c8.889,-4.283 18.054,-8.751 21.969,-15.337c5.066,-1.567 10.179,-3.456 15.981,-5.85c5.895,-2.44 11.702,-5.113 17.87,-7.921c2.074,-0.921 4.511,-1.935 7.139,-3.04c2.671,-1.101 5.574,-2.303 8.382,-3.545c0.321,8.337 1.842,16.949 3.408,22.383c1.518,5.343 4.283,9.581 6.677,13.357c1.014,1.566 1.983,3.04 2.856,4.606c0.874,1.612 1.523,2.951 1.935,4.283c0.885,2.716 1.031,6.033 1.105,9.578c0.093,2.303 0.203,4.697 0.461,7.184c0.22,1.748 0.404,3.41 0.552,4.928c0.23,2.071 0.462,4.19 0.83,6.309c-10.777,5.572 -21.001,15.335 -30.12,24.04c-2.717,2.532 -5.251,4.974 -7.691,7.184c-5.85,5.299 -9.672,7.093 -15.06,7.093c-3.73,0 -8.243,-0.784 -15.198,-2.21c-5.295,-1.059 -12.343,-3.269 -19.757,-5.572c-16.581,-5.204 -35.372,-11.054 -52.596,-11.054c-3.776,0 -7.276,0.372 -10.592,0.968z" /> <path d="M842.326,469.043c1.244,0.414 2.717,1.01 4.374,1.703c0.6,0.228 1.196,0.443 1.842,0.737l-1.751,0.332c-15.289,2.946 -32.607,6.309 -47.114,12.802c-17.592,7.92 -41.68,18.788 -57.154,36.796l-2.394,2.812c-3.911,4.467 -8.426,9.717 -12.616,15.105c-2.396,-11.192 -4.57,-22.43 -4.606,-32.7c0,-6.218 0.874,-12.577 1.751,-18.745c1.368,-9.258 2.714,-18.836 1.332,-29.199c-0.414,-2.81 -2.212,-5.157 -4.836,-6.218c0,0 -0.11,-0.158 -0.184,-0.416c-1.107,-2.901 -1.98,-13.355 14.046,-47.667l0.737,-1.566c0.785,-1.613 1.523,-3.314 2.303,-5.065c4.006,-8.933 9.21,-20.493 15.658,-26.941c1.289,7.644 4.234,15.151 6.493,21.001l0.552,1.382c1.658,4.329 3.637,8.612 5.527,12.757c1.52,3.408 3.135,6.863 4.467,10.179c4.97,12.343 11.511,17.318 19.064,23.12c1.518,1.101 3.085,2.304 4.742,3.636c16.397,13.125 27.542,19.25 47.76,26.159z" /> <path d="M574.7,521.842c-3.363,10.731 -7.278,20.955 -11.054,30.856c-3.592,9.349 -7.277,18.975 -10.501,29.015c-3.777,11.836 -5.066,25.514 -6.264,38.732c-1.38,15.108 -2.808,30.72 -8.105,41.865c-1.107,-36.199 -4.79,-62.174 -13.541,-97.914c-0.875,-3.547 -4.01,-6.034 -7.646,-6.034c-0.458,0 -0.965,0.074 -1.426,0.148c-4.099,0.739 -6.907,4.56 -6.402,8.705c3.133,25.7 -1.427,56.465 -5.572,83.729c-1.244,-0.184 -2.533,-0.332 -3.822,-0.332c-4.19,0 -8.291,1.889 -11.836,4.145c-3.452,-30.443 -5.848,-69.452 -3.961,-87.69c0.415,-4.283 -2.579,-8.06 -6.862,-8.612c-0.321,-0.036 -0.646,-0.036 -1.014,-0.036c-3.868,0 -7.141,2.763 -7.737,6.632c-1.154,7.23 -2.303,14.046 -3.364,20.632c-5.343,32.284 -9.579,57.8 -9.074,97.223c-0.203,0.148 -0.313,0.258 -0.461,0.332c-5.019,-7.275 -4.687,-32.1 -4.467,-47.344c0.181,-12.343 0.321,-23.995 -0.968,-32.884c-4.468,-30.947 -14.278,-53.01 -31.825,-71.523l-0.461,-0.505l-0.416,-0.416c-18.377,-19.48 -22.522,-27.633 -35.556,-55.772c-4.283,-9.304 -8.981,-21.003 -13.909,-33.437c-12.204,-30.538 -25.882,-64.707 -42.14,-84.88c6.493,-0.736 13.632,-1.841 20.632,-5.986c10.224,-5.988 19.943,-13.357 28.785,-20.357c1.382,14.136 5.157,30.026 8.337,43.244c1.289,5.434 2.534,10.592 3.364,14.737c6.539,32.284 18.329,63.049 36.015,94.044c11.836,20.771 26.343,41.541 44.304,63.556c1.519,1.842 3.731,2.856 6.125,2.856c1.659,0 3.274,-0.505 4.606,-1.473c3.358,-2.44 4.236,-7.091 2.026,-10.592c-14.094,-22.151 -25.423,-47.298 -35.647,-79.214c-4.193,-13.127 -8.198,-27.035 -12.159,-42.556c-6.448,-24.915 -15.06,-84.971 -7.646,-119.835c2.533,-1.475 5.115,-2.949 7.646,-4.422c5.94,-3.408 12.02,-6.865 17.915,-10.501c0.552,-0.369 1.105,-0.781 1.566,-1.242c0.461,-0.508 0.866,-1.057 1.198,-1.657c4.42,-7.876 11.468,-14.047 18.882,-20.587c2.671,-2.349 5.344,-4.652 7.875,-7.046c0.737,-0.736 1.339,-1.566 1.751,-2.487c1.796,-3.961 3.915,-8.383 6.125,-10.454c1.336,-1.278 1.982,-1.426 1.982,-1.426c1.152,0.414 4.65,4.925 6.54,7.369c1.245,1.612 2.537,3.27 3.869,4.836c1.473,1.748 3.683,2.762 5.986,2.762c1.75,0 3.458,-0.553 4.79,-1.614c3.406,2.994 5.938,6.586 7.78,9.442c1.193,1.796 2.347,3.594 3.452,5.481c0.737,1.199 1.754,2.21 2.996,2.856c2.902,1.61 5.574,2.947 8.152,4.145c1.472,0.69 2.993,1.383 4.559,2.163c-1.748,18.79 2.119,40.528 6.218,63.463c4.055,22.565 8.196,45.96 6.402,65.626c-3.224,34.864 -12.527,63.372 -22.337,93.585c-1.845,5.665 -3.687,11.238 -5.481,16.949c-2.394,3.361 -4.465,9.211 -7.966,20.31c-0.552,1.747 -1.179,3.682 -1.473,4.559c-1.563,2.855 -1.149,6.493 1.061,8.98c1.476,1.657 3.64,2.578 5.85,2.578c1.888,0 3.733,-0.645 5.159,-1.887c0.038,-0.038 0.222,-0.222 0.258,-0.258c26.987,-25.516 41.91,-76.959 49.647,-115.645c8.154,-40.666 12.205,-85.846 11.284,-125.362l0.693,0.505c8.153,6.127 17.086,10.595 25.791,14.969c12.802,6.4 26.066,13.032 36.567,25.145c5.572,6.355 8.703,13.908 12.343,22.613c1.198,2.901 2.44,5.895 3.822,8.935c-13.448,6.541 -26.16,27.726 -40.667,51.905c-8.613,14.414 -16.763,28.046 -23.718,35.692c-15.935,17.639 -18.516,27.126 -22.89,42.877c-1.107,4.006 -2.349,8.519 -4.006,13.816z" /> <path d="M586.046,185.012l-0.258,-0.412c-9.258,-16.856 -1.797,-24.086 9.487,-35.001c0.646,-0.648 1.289,-1.29 1.935,-1.89c0.276,0.112 0.517,0.184 0.737,0.332c0.505,0.22 1.014,0.404 1.566,0.552c2.348,0.602 4.602,1.57 6.677,2.812c2.949,2.856 5.711,6.634 7.462,10.27c0.83,1.655 1.32,3.038 1.614,4.099c2.994,12.989 -4.099,27.587 -12.204,31.502c-0.644,0.313 -1.289,0.461 -2.026,0.461c-4.237,0 -10.317,-5.02 -14.507,-11.929l-0.461,-0.784z" /> <path d="M452.919,217.023c-12.343,16.258 -25.977,28.556 -40.391,36.661c-5.02,2.763 -14.093,10.131 -26.666,20.31c-18.93,15.335 -46.378,37.579 -65.537,47.712c5.941,-19.987 19.066,-38.593 28.922,-51.443c9.626,-12.527 13.217,-34.312 16.397,-56.049c6.034,5.622 13.68,8.705 21.969,8.705c14.508,0 28.047,-9.256 35.37,-24.086c9.624,-19.434 10.915,-38.316 3.822,-56.14c-0.228,-0.553 -0.469,-1.062 -0.689,-1.614c1.796,0.232 3.547,0.473 5.204,0.693l5.113,0.693c8.106,1.151 15.797,2.256 23.304,2.256c4.975,0 9.303,-0.505 13.264,-1.473c20.68,-5.204 36.431,-7.507 50.984,-7.507c13.356,0 26.62,1.887 42.187,6.125c-5.022,3.824 -9.576,8.476 -11.19,13.541c-3.085,9.856 0.555,23.304 11.745,43.752c1.245,2.255 2.396,4.282 3.364,5.986l1.473,2.578c6.264,11.234 16.626,17.452 29.199,17.452c7.876,0 16.167,-2.533 23.397,-7.139c0.074,-0.11 0.184,-0.148 0.258,-0.184c4.836,12.205 12.25,27.08 25.607,41.865c22.106,24.502 27.403,30.304 32.1,73.919c1.014,9.212 -1.243,17.363 -4.467,24.87c-20.171,-51.214 -50.523,-74.424 -80.09,-93.722c-3.87,-2.533 -7.692,-4.97 -11.468,-7.414c-14.369,-9.165 -27.955,-17.87 -41.726,-29.936c-0.325,-0.321 -0.517,-0.505 -0.737,-0.689c-5.986,-5.527 -11.513,-13.726 -16.856,-21.692c-3.642,-5.388 -7.368,-10.961 -11.422,-15.935c-1.149,-1.38 -2.715,-2.346 -4.513,-2.762c-4.929,-1.014 -10.686,-2.119 -16.581,-2.119c-2.67,0 -5.158,0.23 -7.598,0.646c-5.112,0.966 -10.316,2.949 -15.797,6.079c-1.012,0.599 -1.932,1.382 -2.578,2.35c-2.626,3.776 -5.068,7.784 -7.462,11.606c-2.808,4.56 -5.481,8.889 -7.921,12.113z" /> <path d="M395.454,193.818c-5.434,0 -12.25,-3.592 -17.27,-6.354c-0.736,-3.501 -0.873,-11.008 0.921,-22.844c0.177,-1.061 0.325,-2.075 0.509,-2.996c0.274,-1.612 0.642,-3.226 1.242,-5.02c3.039,-4.79 6.495,-8.38 10.501,-10.915c2.119,0.736 4.24,1.141 6.218,1.473c0.325,0.368 0.737,0.682 1.198,1.014c1.292,3.362 2.949,5.939 4.422,8.198c2.301,3.501 3.951,6.034 4.099,11.745c0.184,7.969 -3.133,19.85 -5.711,22.89c-1.703,1.982 -3.454,2.812 -6.125,2.812z" /></svg>