<svg xmlns="http://www.w3.org/2000/svg" viewBox="0 0 862 880" width="862" height="880"><path d="M851.632,341.175c-0.671,-0.905 -1.218,-1.691 -1.807,-2.475l2.003,3.336c-0.031,-0.196 -0.031,-0.432 -0.177,-0.863zM651.49,823.274c-0.507,0.187 -0.882,0.273 -1.137,0.333c0.236,0.06 0.63,0.06 1.297,0c0.473,-0.235 1.18,-0.59 2.163,-1.217c0.784,-0.472 1.333,-0.863 2.239,-1.612c0.403,-0.506 0.514,-0.981 0.589,-1.414c-0.04,0.061 -0.148,0.277 -0.186,0.394c-0.825,0.589 -1.569,1.136 -2.239,1.65c-1.021,0.708 -1.922,1.338 -2.711,1.886zM583.607,749.498c2.676,-3.888 5.621,-8.445 4.638,-13.476c-0.785,-3.849 -4.32,-8.015 -6.169,-11.351c-3.966,-7.307 -6.365,-14.655 -8.604,-22.629c-2.317,-8.527 -7.189,-15.439 -10.961,-23.377c-3.809,-7.895 -7.699,-14.3 -13.632,-20.783c-14.496,-15.949 -23.219,-37.95 -32.058,-57.317c-10.176,-22.356 -21.568,-43.886 -32.96,-65.648c-5.149,-9.864 -10.372,-20.077 -14.773,-30.213c-4.44,-10.213 -7.113,-21.096 -11.157,-31.468c-4.912,-12.533 -13.634,-23.258 -19.645,-35.317c-4.516,-9.075 -9.035,-17.68 -14.81,-26.088c-2.081,-2.987 -4.402,-5.775 -6.405,-8.839c-2.984,-4.518 -4.987,-9.587 -8.092,-14.065c-1.533,-2.123 -3.259,-4.008 -4.597,-6.284c-1.254,-2.122 -1.807,-4.167 -3.612,-6.011c-2.828,-2.911 -7.506,-4.286 -10.961,-6.247c-8.685,-4.754 -19.565,-9.351 -29.505,-10.334c-11.039,-1.061 -27.385,1.414 -31.822,13.358c-2.081,5.658 -3.105,15.793 -1.061,21.41c1.179,3.341 3.772,5.108 5.499,8.055c1.691,2.789 1.532,12.061 4.324,3.694c-0.825,8.915 2.12,14.65 6.912,22.392c12.297,19.72 29.387,35.159 40.779,55.667c13.241,23.848 24.356,48.874 36.105,73.466c11.627,24.357 28.717,44.904 44.587,66.55c9.705,13.2 19.8,26.165 29.428,39.405c5.342,7.306 10.173,15.044 15.359,22.433c0.67,1.02 6.209,9.781 9.156,12.139c11.786,9.583 18.504,22.352 27.108,34.61c4.008,5.734 9.113,13.396 14.733,17.914c2.475,1.963 6.835,5.029 9.936,6.169c5.186,1.964 9.706,-4.047 12.258,-7.819zM320.384,247.517c3.771,3.93 5.34,6.601 11.079,8.604c2.866,1.02 5.186,1.65 7.816,3.064c3.146,1.728 5.185,4.401 9.233,4.518c1.238,-1.297 0.721,-3.415 0.942,-5.031c0.47,-3.142 1.884,-6.442 2.592,-9.584c1.691,-7.543 3.614,-14.968 5.658,-22.433c2.516,-9.076 5.969,-17.601 9.233,-26.518c1.06,-2.988 1.413,-10.058 5.262,-11.355c6.051,11.709 7.542,25.576 10.802,37.951c3.3,12.494 5.933,22.003 16.069,31.038c8.055,7.19 14.185,15.516 18.663,24.555c5.694,11.351 8.133,23.254 14.497,34.451c3.926,6.953 8.84,13.789 12.176,20.942c3.852,8.327 5.579,17.597 8.486,26.201c3.063,9.037 6.6,17.836 10.842,26.599c3.419,7.109 6.76,13.827 8.803,21.292c1.298,4.518 3.89,9.977 6.56,14.025c0.706,1.061 9.443,13.072 9.664,12.806c2.947,-2.867 5.894,-7.739 7.661,-11.234c4.909,-9.824 7.66,-20.626 8.445,-31.587c1.612,-23.89 5.226,-47.97 -1.297,-71.464c-1.569,-5.698 -1.255,-11.55 -2.552,-17.248c-2.751,-12.175 -9.624,-26.754 -19.76,-36.183c-2.439,-2.317 -5.58,-3.848 -8.25,-5.97c-8.095,-6.366 -9.116,-16.579 -13.477,-24.674c-3.653,-6.637 -7.188,-12.176 -14.22,-16.854c-5.345,-3.495 -10.218,-6.755 -14.262,-11.469c-18.072,-21.097 -21.685,-48.204 -31.508,-72.012c-2.907,-7.113 -4.321,-14.538 -7.113,-21.687c-1.885,-4.795 -4.751,-9.509 -5.97,-14.459c-2.28,-9.429 -3.874,-20.036 -4.242,-29.583c-0.157,-5.342 1.651,-10.921 1.102,-16.184c-0.672,-5.753 -3.853,-3.319 -6.483,-0.177c-3.617,4.285 -8.174,9.392 -10.372,14.302c-4.402,9.625 -6.092,19.878 -10.177,29.542c-2.829,6.72 -6.206,13.32 -8.998,20.037c-1.804,4.36 -2.552,8.803 -5.027,12.964c-1.963,3.381 -30.683,43.254 -41.368,27.225c-7.583,-11.509 -0.825,-23.101 -4.95,-34.846c-1.337,-3.812 -4.048,-7.543 -4.873,-11.473c-0.43,-2.2 0.906,-5.165 -2.788,-4.869c-1.219,0.078 -3.495,2.122 -4.32,2.906c-5.461,4.909 -5.657,13.159 -6.799,19.447c-2.198,12.218 -7.267,23.573 -10.095,35.712c-1.297,5.617 -3.613,8.762 -7.149,13.2c-2.281,2.87 -3.459,7.031 -4.873,10.331c-2.906,6.681 -1.926,15.244 -2.398,22.316c-0.508,8.327 -0.235,17.049 -1.686,25.299c-0.553,3.419 -1.731,7.036 -2.988,10.608c-1.573,-4.202 -3.3,-8.368 -5.499,-12.335c-4.872,-8.646 -3.811,-17.679 -5.933,-27.108c-1.571,-6.758 -5.42,-12.569 -6.087,-19.133c-3.734,0.158 -4.795,5.658 -5.539,7.859c-2.084,6.401 -3.889,12.924 -5.856,19.329c-3.889,12.689 -4.243,25.535 -1.845,38.382c1.414,7.621 2.787,18.74 -1.65,26.205c-1.65,2.747 -3.732,4.909 -4.674,8.014c-2.829,9.429 -0.631,20.545 1.451,29.937c2.202,9.82 3.734,20.192 9.469,29.112c2.945,4.597 5.816,8.605 7.583,13.632c1.533,4.319 2.394,8.563 5.186,12.533c2.123,2.946 5.146,4.869 7.385,7.58c2.079,2.515 2.787,5.504 4.437,8.173c0.789,1.338 1.769,2.592 2.711,3.889c1.455,7.583 0.513,17.166 4.678,24.002c3.965,6.445 7.661,13.751 15.122,17.759c9.233,4.95 16.382,11.432 23.538,18.227c7.385,6.954 22.313,4.99 17.679,0.431c-4.166,-4.125 -9.51,-7.461 -12.611,-12.294c-2.673,-4.206 -2.909,-9.116 -3.734,-13.713c-0.943,-5.463 -2.63,-10.842 -3.495,-16.305c-1.101,-7.072 0.432,-13.355 1.61,-20.272c1.378,-8.051 -0.429,-16.146 -5.067,-23.255c-5.775,-8.763 -5.539,-17.367 -4.714,-27.19c0.236,-3.1 1.731,-5.499 2.122,-8.522c0.673,-4.595 -0.075,-9.545 -0.075,-14.183c0,-12.569 0.63,-24.002 3.536,-36.418c2.317,-10.212 3.3,-20.548 5.775,-30.72c1.219,-5.031 3.929,-9.588 5.539,-14.538c1.61,-4.833 1.338,-10.372 3.3,-15.045c2.987,1.65 5.421,6.913 7.465,9.819c3.3,4.756 6.519,8.881 10.608,13.123zM857.998,440.213c0.667,-2.711 3.142,10.449 3.536,17.602c-0.159,19.13 -3.381,3.966 -4.089,17.049l0.983,9.823l0.146,7.385l-0.983,0.117c-0.844,2.632 0.15,4.282 0.296,4.99c-1.376,-1.26 -1.493,13.708 -2.201,20.544l1.456,-2.358c0.177,2.711 0.266,5.227 0.177,7.661c-0.078,2.593 -0.236,4.089 -0.626,7.742c-0.473,0.861 -0.984,1.803 -1.456,2.628l-1.061,1.767c-0.75,1.102 -1.456,2.201 -2.164,3.3c-1.451,2.163 -2.906,4.207 -4.32,6.288c-2.789,4.165 -5.381,8.367 -7.308,13.512l-2.828,10.489l-2.669,1.178c-0.237,0.708 -0.237,0.971 -0.266,1.339c0.117,4.283 0.665,6.876 -1.886,15.48c-2.986,9.229 -5.378,18.11 -7.819,28.287c-3.337,7.385 -6.164,13.79 -9.152,20.862l-9.152,21.369l-7.27,7.072l-6.755,6.483c-4.561,4.242 -9.115,8.408 -13.753,12.375c0.553,-0.039 1.497,-0.707 3.264,-2.042c-1.767,1.256 -3.458,2.514 -5.067,3.772c-1.413,1.178 -2.826,2.356 -4.165,3.417c-0.631,1.137 -1.726,3.454 -2.475,5.262c-0.902,1.886 -1.65,3.732 -2.399,5.58c-1.449,3.689 -2.67,7.306 -3.848,10.842c-1.136,3.574 -2.281,7.072 -3.417,10.608l-1.767,5.262c-0.708,1.927 -0.985,2.946 -2.317,6.169c-1.297,1.45 -2.591,2.946 -3.93,4.397c-1.178,1.219 -2.317,2.438 -3.495,3.653c-2.399,2.438 -5.032,4.872 -7.938,7.23l0.825,-1.886c-9.781,10.919 0.903,-1.964 -7.23,5.067c0.159,2.24 -5.34,8.408 -10.92,14.692c-2.828,2.633 -4.951,4.639 -6.795,6.6c0.708,-1.255 2.947,-3.1 4.556,-4.986c-1.532,0.667 -2.907,0.037 -5.815,3.142c-2.041,3.575 -5.93,7.895 -10.449,12.492c-2.357,2.281 -4.792,4.637 -7.267,7.032c-2.633,2.475 -5.267,4.913 -7.819,7.308c-2.398,1.767 -4.637,3.458 -6.795,5.067c-2.321,-0.272 -13.791,5.815 -20.708,7.465c-0.98,1.296 -2.63,3.847 -4.085,6.169c-1.65,0.708 -3.104,1.533 -4.361,2.358c-1.297,0.903 -2.281,1.687 -4.008,3.101c-2.122,0.788 -3.223,1.413 -4.32,2.044l4.597,-1.339l7.461,-5.105c-0.074,0.153 -0.152,0.27 -0.186,0.33c0.353,-0.355 1.02,-0.825 1.65,-1.297c2.634,-1.885 4.008,-2.884 3.26,-2.516c5.815,-2.158 0.317,1.18 1.65,2.399c-1.569,1.06 -3.772,2.592 -5.93,4.048c-1.101,0.742 -2.203,1.45 -3.145,2.081c-1.414,0.867 -2.711,1.65 -3.731,2.281c-1.845,0.383 -3.154,0.472 -3.3,0.266c-2.829,0.749 -4.755,1.102 -7.702,1.691c-1.727,0.745 -3.613,1.413 -5.735,1.844l0.865,-0.431c-0.396,-0.117 -0.866,-0.146 -1.338,-0.146c-4.521,0.865 -9.665,2.751 -14.538,4.795c-2.475,1.098 -4.91,2.2 -7.149,3.183c-1.138,0.51 -2.24,1.019 -3.26,1.533c-0.512,0.195 -0.982,0.431 -1.495,0.667c-0.408,0.251 -0.184,0.251 -0.296,0.368v0.206c-0.041,-0.176 -0.075,-0.355 -0.075,-0.472c-0.185,-0.472 0.759,-1.107 0.368,-1.373c-0.117,-0.187 -0.486,-0.216 -0.67,-0.333c-0.117,-0.089 -0.324,-0.177 -0.508,-0.206c-0.237,-0.352 -2.566,0.462 -2.752,-0.206c-0.118,0.162 0.077,0.09 0.549,-0.206c0.317,-0.193 0.906,-0.507 1.614,-0.901c3.454,-0.942 9.583,-2.632 16.577,-4.518c-0.865,0.083 -1.571,0 -1.962,-0.548c-2.87,0.353 -5.386,0.942 -7.897,1.767c-1.259,0.431 -2.475,0.825 -3.734,1.256c-1.137,0.438 -2.828,1.031 -3.3,1.297c-0.313,0.316 -1.492,1.102 -2.552,1.808c-1.06,0.706 -2.162,1.453 -3.34,2.198c-2.358,1.495 -5.068,3.026 -8.21,4.559c0.708,-0.67 2.239,-1.976 1.297,-2.122c-4.873,2.358 -8.526,5.969 -9.115,7.425c-0.942,-0.316 -4.084,0.743 -7.542,2.276c-1.728,0.826 -3.536,1.732 -5.186,2.674c-0.861,0.472 -1.609,0.979 -2.394,1.373c-0.906,0.631 -1.808,1.219 -2.633,1.767c-0.21,0.206 -0.356,0.412 -0.431,0.472c-1.531,0.316 -2.633,0.572 -3.653,0.749c-0.789,0.214 -1.414,0.393 -2.203,0.51c-1.609,0.296 -3.69,0.356 -8.051,0.296l4.008,-1.102c-10.767,-0.978 -8.84,1.573 -17.679,0.631c3.536,0.472 3.849,-0.736 1.216,-0.942c-11.233,0.514 -11.509,1.136 -19.564,3.3l1.495,-1.691c-0.472,0.029 -0.944,0.086 -1.378,0.146l-0.785,0.029l-0.296,0.06c-0.117,0.063 -0.788,0.254 -1.414,0.431c-0.67,0.176 -1.297,0.326 -1.967,0.472c-1.297,0.315 -2.67,0.655 -4.008,1.023c-2.711,0.627 -5.422,1.253 -7.816,1.767c-4.913,0.964 -8.625,1.394 -8.88,0.333c1.255,1.137 -0.984,2.079 -4.792,2.828c-1.886,0.428 -4.165,0.84 -6.6,1.136c-1.178,0.139 -2.396,0.295 -3.653,0.472l-1.886,0.177c-0.589,0.086 -1.372,0.175 -1.297,0.146c-3.536,0.866 -6.836,1.732 -8.958,2.239c2.711,-0.859 2.996,-1.726 3.142,-2.198c-6.011,2.67 -12.298,4.716 -18.622,6.442l-9.624,2.516l-10.689,2.633l-7.737,-0.33l-6.677,-0.177l-2.751,-2.633c-9.351,-0.037 -12.063,5.139 -22.158,4.873l3.653,-1.219c-4.91,0.06 -9.075,0.06 -11.55,0.089c-3.104,-0.708 -5.894,-1.379 -8.486,-1.927c-2.356,-0.589 -4.554,-1.136 -6.717,-1.65c-4.321,-1.138 -8.603,-2.278 -13.83,-3.613l0.63,-1.65c-5.263,-0.395 -10.921,-1.692 -16.777,-2.281c-0.236,-0.029 -0.446,-0.117 -0.667,-0.146c-3.419,-2.631 -9.625,-4.833 -17.208,-7.109c-3.772,-1.1 -7.897,-2.239 -12.099,-3.458c-2.085,-0.629 -4.283,-1.217 -6.405,-1.844l-6.954,-2.085c-2.122,-1.061 -4.203,-2.122 -6.247,-3.183c-1.887,-0.98 -3.732,-2.005 -5.499,-3.024c-3.536,-2.081 -6.836,-4.284 -9.628,-6.523l-2.747,2.281c-7.388,-3.849 -17.406,-7.738 -19.564,-12.099l1.61,0.942c1.925,-1.768 -7.191,-4.243 -11.433,-7.348c-3.494,-1.714 -7.737,-2.306 -5.067,-0.146c-18.621,-12.454 -46.867,-28.365 -57.397,-38.342l-0.146,-0.117c-13.708,-9.866 -23.844,-15.875 -37.321,-25.658c-2.163,-2.157 -4.32,-4.478 -6.6,-6.795c-2.082,-2.239 -4.203,-4.557 -6.483,-6.994l0.513,-0.029c-5.107,-6.21 -15.361,-18.704 -13.317,-20.548c-0.394,-0.432 -0.865,-0.825 -1.259,-1.219c-5.735,-4.713 -11.433,-8.603 -17.009,-12.647c-2.829,-2.002 -5.697,-4.165 -8.644,-6.64c-1.492,-1.219 -3.023,-2.516 -4.556,-3.93c-1.769,-1.686 -3.577,-3.419 -5.503,-5.222c-0.471,-0.75 -0.943,-1.575 -1.451,-2.441c0.353,0.277 1.216,1.336 1.886,2.044l1.845,1.297l1.137,0.631c-0.272,-0.274 -0.529,-0.575 -0.861,-0.905c-0.472,-0.473 -1.024,-0.944 -1.573,-1.492c-1.337,-2.004 -1.809,-2.749 -2.711,-3.848c-0.785,-1.025 -1.61,-2.086 -2.358,-3.028c-1.609,-1.846 -2.947,-3.336 -3.536,-4.044c-0.982,-1.574 0.236,-0.708 0.708,-0.708c-1.887,-4.636 -4.755,-6.286 -7.149,-9.469l1.65,0.866c-1.851,-3.694 -4.285,-7.661 -7.113,-11.867c-2.906,-4.125 -5.97,-8.563 -8.958,-13.277c-6.207,-9.271 -12.807,-19.016 -17.874,-28.246c2.158,3.218 2.018,0.943 1.65,-0.631c-0.906,-0.825 -1.414,-1.178 -2.711,-2.828c-6.364,-9.116 -13.83,-26.676 -17.719,-33.667l3.34,4.437c-1.65,-2.711 -2.792,-4.909 -3.653,-6.836c-0.906,-2.081 -1.061,-2.906 -2.203,-5.97c-0.041,-1.025 -0.15,-2.593 -0.075,-3.028l0.109,-1.726c0.075,-1.221 0.109,-2.433 0.075,-3.813c-0.036,-2.748 -0.471,-6.166 -1.922,-11.392l-0.296,9.94c-0.512,-6.953 -1.963,-12.691 -3.064,-10.883c-0.195,-8.092 2.163,-1.297 0.63,-13.396c0.785,-0.589 1.886,8.605 2.435,4.516l-0.255,-16.972c0,-0.431 0,-0.667 0.034,-1.215l-0.034,1.136c0.198,-0.549 -0.038,-2.671 -0.98,-8.055c-3.576,2.003 -1.967,-13.79 -4.559,-4.91c-0.785,-5.421 -1.373,-10.685 -1.886,-15.752c-0.471,-5.267 -0.979,-10.412 -1.451,-15.439c0.14,-3.065 0.326,-6.051 0.472,-9.039c0.147,-2.829 0.256,-5.619 0.368,-8.405c0.134,-5.579 0.109,-11.078 -0.259,-16.658c1.06,-2.122 1.666,-6.559 1.962,-10.567c-0.431,-11.786 -2.982,-28.758 0.63,-27.502c-0.629,-6.641 -1.373,-11.944 -2.515,-17.602c0.221,-4.715 0,-7.78 -0.368,-11.116c-0.701,2.239 -0.551,5.222 -0.626,7.58c-0.789,-3.143 1.061,-16.972 1.922,-22.707c-0.068,7.739 -0.859,19.683 -0.034,26.283c0.034,0.031 0.034,0.06 0.034,0.06v-0.06c1.141,-10.884 1.471,-25.3 1.767,-31.233l2.828,-2.317c-0.355,-6.876 1.531,-7.072 2.084,-11.314c0.625,-1.455 1.037,-2.868 1.333,-5.149l-1.374,1.219c6.679,-14.773 4.557,-15.951 10.332,-29.895l0.63,0.982c0.749,-1.375 1.338,-3.066 1.927,-4.833c0.313,-0.903 0.643,-1.803 0.902,-2.711l0.431,-1.256l0.184,-0.631c0,-0.352 0,-0.389 0.075,-0.978c0.075,-0.63 0.15,-1.177 0.296,-1.808c0.236,-1.14 0.629,-2.2 1.178,-3.223l-0.589,6.288l-0.785,1.927c0.629,-0.119 1.49,-0.906 2.198,-1.533c0.472,-0.631 0.983,-2.515 1.455,-4.048c0.513,-1.651 0.904,-3.225 1.338,-4.32c0.589,-10.452 -2.454,-3.93 -2.122,-9.192c1.79,-2.046 0.903,-0.436 2.122,3.336c0.236,-5.028 0.523,-10.803 0.744,-16.383c0.041,-2.79 0.075,-5.541 0.075,-8.133c0,-2.982 -0.041,-5.811 -0.075,-8.286c0.553,-1.102 1.101,-2.003 1.495,-2.869c0.493,-0.944 0.606,-1.296 0.861,-1.927c0.506,-0.275 0.472,0.433 0.472,0.433c7.112,-9.823 10.806,-20.234 16.147,-25.575l-1.137,2.081c7.62,-6.56 12.098,-22.041 16.54,-21.527c3.071,-3.419 -5.77,8.679 -0.112,3.612c8.838,-11.472 2.276,-9.9 10.095,-19.958c-1.062,1.399 -0.549,1.059 -0.549,1.767c2.198,-3.613 4.752,-7.697 7.58,-12.294c4.125,-4.087 8.723,-8.644 12.888,-12.769c5.933,-3.105 13.711,-10.725 20.702,-17.402c4.678,-6.953 10.254,-14.968 15.403,-19.292c-3.709,2.947 0.693,-3.869 0.221,-4.202c0,0 -0.041,0.701 0.472,0.333c3.017,-4.243 2.357,-5.499 2.983,-7.385c0.866,-0.747 1.731,-1.845 2.556,-3.142c1.021,-1.731 2.158,-3.576 3.219,-5.384c1.927,-1.138 3.734,-2.318 5.267,-3.219c1.256,-0.706 2.316,-1.268 2.983,-1.414c-0.312,-0.787 3.537,-2.437 7.702,-4.559c-7.895,5.069 -1.844,3.028 -5.027,6.092c12.648,-5.894 12.571,-10.491 25.848,-16.383l2.633,-0.749l1.297,-0.333c0.394,-0.117 0.529,-0.088 0.825,-0.117c0.235,-0.156 0.38,-0.156 0.748,-0.333l1.178,-0.627c-0.317,-2.911 10.608,-10.766 9.819,-11.238c2.398,-1.023 5.447,-2.988 5.815,-1.691c4.048,-4.203 11.55,-8.759 12.415,-11.433l-4.795,3.223c1.532,-1.177 2.986,-2.356 4.324,-3.458c1.491,-1.255 2.864,-2.435 4.242,-3.613c0.743,-0.472 1.532,-0.942 2.276,-1.414l1.808,-1.178c1.178,-0.825 2.316,-1.612 3.417,-2.399c2.281,-1.491 4.401,-2.982 6.523,-4.438c4.203,-2.869 8.405,-5.463 13.436,-7.661l1.61,3.377c4.555,-1.805 7.583,-4.163 11.627,-6.991c4.441,-1.732 7.543,-2.947 11.708,-3.064c-3.025,-0.394 -3.495,0.117 1.767,-2.711c-1.532,0.353 -3.613,1.095 -5.933,2.003c-1.138,0.431 -2.356,0.901 -3.653,1.373c-1.374,0.473 -2.199,0.825 -4.242,1.492c-0.625,0.315 -1.214,0.655 -1.767,1.023c0.353,-0.316 1.101,-0.864 1.65,-1.258l1.69,-0.784l1.219,-0.589l2.511,-1.256l4.873,-2.475l-10.842,3.889l-7.62,4.91c6.402,-5.344 6.047,-4.755 2.435,-4.361c1.414,-0.983 1.925,-1.413 4.242,-2.786c0.785,-0.237 1.572,-0.495 2.28,-0.672c0.472,-0.162 0.864,-0.251 1.257,-0.368c0.866,-0.174 1.572,-0.361 2.28,-0.507c1.452,-0.277 2.747,-0.502 4.085,-0.708c2.71,-0.436 5.54,-1.061 9.977,-3.064c4.006,-0.708 0.433,1.805 5.067,1.178c6.838,-3.104 14.539,-3.222 19.883,-4.678c1.216,-0.506 3.143,-1.529 4.361,-2.628c2.198,-0.589 -3.653,1.845 -2.792,2.434c5.656,-3.064 9.862,-4.873 11.119,-6.64l-5.145,1.927c4.397,-1.925 4.478,-3.653 13.16,-6.758c4.437,-3.023 6.404,-5.97 1.137,-3.495c2.044,-1.256 7.111,-2.516 5.933,-0.749c4.791,-2.2 6.677,-3.655 7.819,-4.833c0.509,-0.626 0.942,-1.137 1.374,-1.609c0.236,-0.277 0.529,-0.518 0.825,-0.784c0.393,-0.318 1.218,-0.747 2.043,-1.219c0.666,-0.146 1.374,-0.368 2.239,-0.514c0.432,-0.124 0.98,-0.213 1.569,-0.33c1.178,-0.139 2.593,-0.326 4.442,-0.472c-0.906,0.311 -1.85,0.708 -1.297,0.825c3.455,-0.472 6.283,-1.023 8.522,-1.691c-11.903,2.711 4.325,2.122 -9.977,4.361c1.963,1.574 10.883,-1.826 15.517,-2.003c6.641,-2.67 0.2,-2.906 3.536,-4.556c0.04,0.615 2.911,0.026 6.328,-0.368l-3.576,-0.825c2.868,-0.552 5.698,-1.141 9.075,-2.164l-5.658,1.73c1.963,-0.316 4.244,-0.502 6.836,-0.708c1.256,-0.097 2.634,-0.216 4.048,-0.333c0.707,-0.06 1.414,-0.146 2.158,-0.206c1.219,-0.195 2.475,-0.412 3.734,-0.589c1.374,0.353 2.787,0.708 4.242,1.102c0.904,0.195 1.886,0.461 2.866,0.667c1.968,0.353 3.971,0.731 6.129,0.908c-3.024,-0.083 -9.076,-0.201 -1.923,2.198c12.139,1.767 2.628,1.22 9.111,3.848c11.944,2.381 2.633,-2.122 19.958,2.711c1.926,0.472 0.353,-0.784 -1.455,-1.609c1.415,0.391 2.751,0.768 4.048,1.136c1.138,0.273 2.199,0.581 3.26,0.787c3.736,0.271 7.036,0.537 10.453,0.743c3.572,0.278 7.344,0.59 11.822,1.339c-5.186,-0.748 -9.113,-1.561 -2.081,-1.767c-3.106,1.02 9.664,1.845 14.183,2.906l1.258,-0.667c3.577,1.118 -0.353,1.149 -3.377,1.178c0.155,-0.236 -0.906,-0.55 -3.105,-0.667c-5.892,0.195 -4.006,3.183 5.227,4.125c9.977,0 8.522,-2.088 6.872,-2.947c0.942,0.089 1.848,0.206 2.556,0.266c11.198,2.26 11.55,-1.333 23.06,1.927c1.415,0.236 4.285,1.533 7.938,2.947c1.767,0.747 3.77,1.531 5.892,2.239c1.061,0.352 2.158,0.651 3.219,1.019l2.909,0.825h0.368c1.115,-0.589 0.449,-0.922 -0.259,-1.099c-0.195,-0.15 -0.412,-0.267 -0.667,-0.296c-0.395,-0.101 -0.866,-0.285 -1.297,-0.431c-0.906,-0.273 -1.808,-0.581 -2.556,-0.787c-1.437,-0.472 -2.066,-0.884 -0.221,-1.061c0.906,0.47 1.768,0.848 2.633,1.178c0.985,0.352 1.908,0.689 2.163,0.866c0.235,0.031 0.371,0.06 0.667,0.06l1.297,0.029h2.592c1.768,-0.064 3.537,-0.217 5.304,-0.394c3.536,-0.39 7.191,-0.903 10.961,-1.492c3.77,-0.589 7.66,-1.084 11.708,-1.414c2.082,-0.149 4.125,-0.266 6.247,-0.266c1.061,0 2.122,0.029 3.219,0.029c1.454,0.029 2.909,0.086 4.401,0.146c-1.414,0.784 -2.947,1.49 -3.536,2.198c1.531,0 3.024,-0.06 4.519,-0.06c1.886,0.979 3.808,1.964 5.775,2.947c1.61,0.863 3.337,1.688 5.186,2.513l-5.658,-4.125c4.36,1.65 14.025,7.005 10.095,6.799c10.177,3.218 11.746,5.144 20.313,10.017c-9.274,-4.831 -0.04,-0.319 -7.348,-2.828c6.877,4.321 8.916,5.184 12.964,6.872c1.218,0.786 2.634,1.73 4.401,2.908c-1.456,-0.159 1.019,3.183 3.336,4.986c6.364,3.302 15.793,11.044 24.043,16.583l-0.431,0.431c1.454,1.1 2.906,2.199 4.401,3.26c12.492,7.662 25.022,18.072 38.499,24.279c0.276,0.127 0.562,0.216 0.748,0.333l-1.061,-0.708c-4.087,-4.402 12.099,4.909 16.972,6.6c0.744,0.943 0.785,1.963 3.3,3.336c1.062,-1.534 6.167,2.161 8.682,2.555c4.755,3.221 -1.728,1.61 6.994,6.129c2.041,1.009 3.654,1.361 4.28,1.215c0.472,0 0.618,-0.235 0.589,-0.627c1.102,1.727 2.044,3.219 3.653,5.222c1.574,1.966 3.46,4.124 5.227,6.051c-1.574,-0.903 -3.224,-3.34 -4.125,-4.048c-1.136,0.235 1.609,2.398 0.708,3.223c3.183,3.3 2.515,0.041 6.247,4.519l-4.873,-2.674c1.416,1.884 3.974,3.497 4.833,4.242c-1.414,-1.121 -2.277,-1.267 -2.828,-1.061l4.95,4.755c1.613,-0.236 -0.667,-4.714 0.435,-5.186c6.325,7.308 12.336,11.946 18.542,17.208c2.085,2.279 3.502,3.847 5.186,5.815l-2.475,-0.333c3.223,3.537 4.949,5.069 6.64,5.974l4.714,5.735c-3.183,-2.918 -4.519,-3.653 -5.775,-3.064c5.343,5.816 11.826,14.509 14.89,14.655h-0.472c1.451,2.003 3.339,4.558 5.304,7.344c5.304,9.9 11.275,20.782 10.526,20.665c6.404,9.389 12.653,22.277 14.614,21.528c3.736,5.657 5.816,16.777 10.608,19.605c2.516,7.738 -0.314,0.668 -2.983,-0.667c2.511,7.74 9.781,13.003 8.169,16.892c0.668,0.945 1.125,1.652 1.493,2.085c0.655,2.228 0.626,1.286 0.626,-0.206c-0.507,-1.337 -1.096,-3.029 0.236,-1.968c-0.175,0.513 -0.175,1.102 -0.029,1.927c-0.63,5.11 3.083,16.855 2.906,24.674c1.885,3.655 0.075,-4.047 2.516,2.358c-0.866,-0.472 -0.383,3.066 -0.117,4.869l2.122,1.38l-2.122,6.519l0.942,5.58l1.217,2.044c2.163,1.178 -0.118,-4.089 7.23,6.913l-0.708,-0.825c0.785,5.068 7.702,10.018 12.888,21.645c-1.925,-3.922 -1.73,-1.06 -2.908,-1.961l4.283,5.699c-0.397,-0.514 -0.66,-0.749 -0.514,0c1.102,3.535 2.201,4.481 3.536,6.284c0,1.297 -0.195,3.381 -1.061,6.092c0.083,-2.004 -0.135,-2.931 -0.431,-3.264l-1.178,9.864l0.206,2.317l-0.394,-0.784l-3.772,32.253l4.478,44.197v1.019c0.183,0.12 0.374,0.206 0.551,0.266l0.51,6.483c1.023,-0.234 1.552,-4.673 1.612,-7.542z" /></svg>