<svg xmlns="http://www.w3.org/2000/svg" viewBox="0 0 976 992" width="976" height="992"><path d="M908.387,483.771c0.781,-0.784 1.185,-1.842 1.149,-2.947c0,-0.784 -0.074,-1.657 -0.148,-2.487v-0.509c-0.137,-2.119 -1.887,-3.776 -4.006,-3.776c-0.921,-0.074 -1.794,-0.074 -2.715,-0.11c-6.77,-1.517 -13.864,-2.668 -21.646,-3.452c-9.028,-2.074 -17.409,-4.561 -22.89,-6.264c-23.488,-7.414 -46.332,-12.02 -70.511,-16.856l-7.646,-1.52c-3.27,-0.692 -6.727,-1.333 -10.363,-2.026c-19.437,-3.64 -43.616,-8.198 -59.228,-18.377c-6.124,-3.96 -11.652,-9.255 -17.502,-14.921c-7.553,-7.231 -15.337,-14.69 -24.87,-19.62c-4.56,-2.349 -8.935,-3.961 -13.218,-5.481c-7.184,-2.581 -13.402,-4.836 -19.02,-10.179c-0.829,-0.78 -1.75,-1.657 -2.671,-2.578c5.298,-10.547 15.615,-20.496 24.825,-29.338c16.164,-15.612 16.349,-19.436 14.507,-37.213l-0.258,-2.624c-1.105,-11.145 -0.368,-19.066 6.816,-26.712c2.487,-2.626 6.68,-4.837 11.054,-7.093c6.309,-3.269 12.848,-6.677 16.488,-12.434c2.874,-4.559 3.058,-13.032 3.132,-26.389c0.036,-1.89 0.036,-3.779 0.036,-5.666c0.036,-0.158 0.036,-0.268 0.036,-0.416c0,-2.256 -1.796,-4.054 -4.006,-4.054h-0.074c-0.184,0 -0.368,0 -0.552,0v0c-0.689,0.138 -1.335,0.368 -1.887,0.784c-0.369,0.277 -0.663,0.598 -0.921,1.014c-0.122,0.228 -0.268,0.443 -0.416,0.737c-4.376,10.178 -10.64,17.456 -18.561,21.646c-0.275,0.148 -0.56,0.258 -0.78,0.332l-0.461,0.148c-0.322,0.136 -0.674,0.332 -0.968,0.552l-0.552,0.412c-0.459,0.372 -0.924,0.693 -1.52,1.061c-3.178,2.028 -6.816,3.176 -10.592,4.422c-2.116,0.646 -4.188,1.336 -6.17,2.166c-0.505,0.184 -0.97,0.505 -1.382,0.873c-0.412,0.461 -0.781,0.83 -1.242,1.198c-4.561,3.408 -8.337,7.737 -11.561,13.309c-0.682,1.242 -0.682,2.715 -0.036,3.961c1.014,1.935 1.291,4.099 0.83,6.402c-1.105,5.297 -1.842,10.731 -2.531,15.935c-1.151,8.796 -2.258,17.131 -5.02,25.145c-2.026,5.847 -7.091,6.493 -9.21,6.493c-0.738,0 -1.475,-0.072 -2.259,-0.22c-0.228,-0.074 -0.522,-0.11 -0.78,-0.11c-1.382,0 -2.721,0.78 -3.501,2.026c-4.283,7.368 -9.349,14.782 -14.737,21.737c-11.42,-11.79 -23.026,-25.238 -33.389,-37.213l-0.83,-1.014c-6.539,-7.507 -8.335,-16.351 -10.27,-25.7c-2.026,-10.04 -4.145,-20.401 -11.975,-29.981c-4.972,-6.127 -10.499,-11.422 -15.842,-16.581c-4.788,-4.652 -9.808,-9.44 -14.23,-14.737c-8.479,-9.994 -9.075,-12.895 -11.378,-23.581l-0.412,-1.935c-0.827,-3.637 -1.567,-7.323 -2.347,-11.099c-3.13,-14.876 -6.354,-30.35 -11.697,-45.364c-0.234,-0.737 -0.572,-1.519 -0.83,-2.303c1.075,-6.541 1.813,-13.586 -0.074,-21.646c-1.062,-4.331 -2.303,-8.797 -3.64,-13.541c-2.44,-8.705 -4.975,-17.685 -6.309,-26.252c-0.275,-1.979 -2.024,-3.452 -4.006,-3.452c-0.154,0 -0.264,0.036 -0.412,0.036l-1.014,0.11l-0.368,0.036c-0.036,0 -0.146,0 -0.22,0l-0.596,0.036c-1.798,0.184 -3.272,1.473 -3.64,3.271c-0.234,1.198 -0.462,2.351 -0.646,3.685l-0.148,0.258c-0.11,0.278 -0.22,0.572 -0.368,0.83c-0.794,1.246 -0.794,2.763 -0.148,3.961c-0.203,1.705 -0.387,3.452 -0.461,5.25c-0.784,3.87 -1.701,7.692 -2.578,11.468c-2.576,10.822 -5.204,21.967 -5.204,34.817c0,19.62 0,31.456 -7.184,47.76c-2.994,6.771 -5.759,13.357 -8.521,19.805c-13.218,31.273 -24.64,58.26 -49.417,85.617c-5.988,6.634 -11.098,15.476 -16.028,24.088c-3.454,5.989 -7.001,12.159 -10.777,17.502c-2.578,3.592 -6.171,6.404 -10.04,9.303c-1.014,-1.705 -1.887,-3.271 -2.671,-4.697c-5.02,-9.073 -7.875,-13.356 -21.969,-19.113c-4.79,-1.933 -11.099,-3.085 -17.731,-4.283c-9.441,-1.704 -20.125,-3.639 -24.731,-7.968c-2.487,-2.349 -2.413,-3.729 -2.119,-6.816c0.184,-2.485 0.457,-5.525 -0.877,-9.21c-2.119,-6.034 -7.507,-10.179 -12.204,-13.771c-1.521,-1.149 -2.994,-2.303 -4.283,-3.408c-11.19,-10.089 -20.862,-18.747 -35.876,-25.886c-3.085,-1.47 -6.262,-2.575 -9.349,-3.636l-1.105,-0.416c-0.416,-0.146 -0.876,-0.22 -1.337,-0.22c-1.29,0 -2.488,0.642 -3.268,1.703c-0.693,0.92 -1.429,1.794 -2.166,2.671c-1.162,1.428 -1.393,3.547 -0.332,5.02c0.83,1.242 1.61,2.443 2.44,3.592c0.415,0.596 1.011,1.094 1.657,1.426c9.581,4.237 17.547,11.192 24.318,21.232c0.321,0.416 0.689,0.773 1.105,1.105c2.119,1.474 4.327,2.949 6.586,4.606c7.12,5.02 7.12,8.475 7.23,15.337c0.043,3.04 0.091,6.448 0.78,10.454c2.21,13.218 7.415,16.165 16.902,21.462l3.224,1.794c1.98,1.155 4.468,2.303 7.139,3.549c5.849,2.719 13.818,6.402 16.028,10.133c2.789,4.7 2.679,7.139 2.531,9.074c-0.507,7.046 3.453,8.796 14,11.652c3.408,0.921 6.357,2.075 8.935,3.18c-11.008,10.133 -24.87,18.699 -37.213,26.068c-34.541,20.493 -85.707,46.562 -133.099,54.344c-6.908,1.107 -13.724,2.443 -20.31,3.685c-12.297,2.35 -23.903,4.56 -36.292,5.802l-4.606,0.784c-7.554,1.244 -15.337,2.58 -23.028,4.006c-4.741,1.152 -9.671,2.257 -14.507,3.087l-3.501,0.83l-1.614,0.368c-1.471,0.369 -2.576,1.474 -2.992,2.856c-0.508,1.75 0.185,3.638 1.751,4.606c1.89,1.149 3.641,2.531 4.93,3.636c0.6,0.462 1.245,0.72 1.982,0.83c0.228,0.038 0.469,0.074 0.689,0.074c9.211,1.844 18.882,4.56 30.443,8.521c0.416,0.148 0.828,0.184 1.289,0.184c13.173,0.091 22.845,2.485 30.443,7.598l0.596,0.461c0.465,0.369 1.062,0.589 1.614,0.737c4.191,0.784 8.383,1.705 12.573,2.535c6.632,1.428 13.493,2.857 20.448,4.099c43.708,7.875 86.355,25.331 126.883,51.859l1.198,0.83c6.172,4.006 12.482,8.151 18.561,12.573c-14.646,11.008 -24.087,20.127 -28.048,27.173c-3.084,5.434 -4.329,9.672 -5.343,13.08c-1.705,5.847 -2.671,9.071 -13.034,15.105l-2.026,1.198c-12.712,7.369 -31.917,18.561 -38.273,31.318c-1.739,3.547 -1.813,7.046 -1.887,10.133c0,2.208 -0.043,4.099 -0.689,5.388c-2.671,5.804 -4.606,6.952 -8.889,9.58c-1.796,1.058 -4.004,2.442 -6.632,4.329c-7.691,5.666 -11.098,12.113 -14.416,18.377c-1.887,3.592 -3.681,7.002 -6.309,10.363c-0.824,1.061 -1.75,2.074 -2.899,3.132c-1.378,1.337 -1.657,3.456 -0.689,5.113c0.112,0.084 0.258,0.342 0.332,0.416c0.693,0.921 1.707,1.504 2.812,1.614c0.167,0.036 0.313,0.036 0.461,0.036c0.965,0 1.934,-0.368 2.671,-1.014c6.404,-5.343 13.866,-9.533 21.05,-13.632c7.969,-4.515 16.213,-9.167 23.213,-15.337c7.139,-6.357 11.192,-12.573 14.737,-18.054c5.297,-8.153 9.488,-14.6 22.199,-19.252c14.737,-5.388 22.567,-17.224 30.165,-28.646c6.078,-9.119 12.34,-18.559 22.106,-24.593c2.394,-1.474 4.741,-2.811 7,-4.145c3.362,-1.935 6.54,-3.824 9.58,-5.85c4.468,4.93 8.844,9.029 13.173,12.99c6.218,5.711 12.068,11.147 17.87,18.929c4.561,6.172 9.949,11.745 15.153,17.133c7.83,8.105 15.199,15.751 19.989,25.145c3.085,5.99 4.974,12.529 7,19.438c2.763,9.444 5.618,19.161 11.652,27.498c2.119,2.95 4.608,5.619 6.955,8.154c3.176,3.408 6.17,6.677 8.289,10.408c5.249,9.442 7.968,21.83 10.592,33.805c2.116,9.581 4.281,19.482 7.782,28.233c7.23,18.145 7.23,32.009 7.23,53.01c0,14.094 2.628,26.391 5.159,38.273c0.921,4.283 1.84,8.567 2.624,12.941c0.129,1.98 0.277,3.915 0.461,5.802c-0.61,1.15 -0.657,2.627 0.036,3.869c0.22,0.414 0.368,0.83 0.552,1.198l0.036,0.148c0.279,1.934 1.937,3.74 3.915,3.776c0.737,0.038 1.473,0.074 2.21,0.074l1.198,0.11c0.036,0 0.148,0 0.184,0c1.98,0 3.674,-1.429 4.006,-3.364c1.428,-8.428 3.638,-17.086 5.757,-25.423c1.333,-5.25 2.578,-10.179 3.592,-14.876c1.916,-8.888 1.179,-16.395 0.074,-23.902l0.074,-0.368l0.784,-2.394c5.296,-16.533 8.52,-33.528 11.652,-49.97c0.781,-4.144 1.563,-8.198 2.347,-12.204l0.412,-2.166c2.349,-11.883 2.994,-15.107 11.468,-26.252c4.468,-5.85 9.442,-11.145 14.278,-16.258c5.341,-5.666 10.868,-11.559 15.842,-18.284c7.737,-10.501 9.807,-21.83 11.882,-32.791c1.935,-10.408 3.731,-20.218 10.317,-28.646l0.596,-0.784c9.626,-12.252 20.448,-26.068 31.134,-38.457c1.105,0.689 2.303,1.287 3.776,2.071c1.061,0.552 2.303,1.198 3.776,1.982c10.179,5.479 13.309,10.359 19.573,20.125l0.737,1.105c8.199,12.757 16.858,21.462 27.312,27.403c4.283,2.394 8.796,4.189 13.125,5.895c7.507,2.994 14.6,5.802 19.85,11.652l0.784,0.873c1.153,1.335 2.442,2.812 4.145,4.054c0.602,0.405 1.291,0.701 2.075,0.737c17.961,1.428 29.659,6.125 37.857,15.29c0.509,0.503 1.105,0.929 1.798,1.149l0.552,0.184c0.965,0.273 1.933,0.615 2.947,0.873c0.321,0.112 0.69,0.148 1.058,0.148c0.83,0 1.614,-0.228 2.303,-0.737c1.014,-0.691 1.603,-1.749 1.751,-2.947c0.551,-6.4 -1.473,-12.295 -3.271,-16.717c-0.184,-0.459 -0.412,-0.877 -0.596,-1.289l-0.294,-0.6c-0.321,-0.646 -0.782,-1.198 -1.382,-1.614c-3.87,-2.812 -8.383,-4.975 -13.357,-6.448c-7.139,-2.119 -11.329,-4.699 -16.165,-7.691c-1.703,-1.061 -3.452,-2.166 -5.434,-3.271c-4.467,-2.533 -9.303,-5.527 -14.416,-8.935c-0.693,-0.462 -1.475,-0.646 -2.259,-0.646c-0.321,0 -0.682,0 -1.014,0.074c-0.173,0.074 -0.321,0.11 -0.505,0.11c-0.275,0 -0.589,-0.11 -0.921,-0.184c-13.034,-4.559 -22.29,-12.618 -25.975,-22.797c-0.232,-0.6 -0.6,-1.153 -1.105,-1.614c-5.62,-5.067 -11.652,-9.58 -17.502,-13.909c-6.08,-4.561 -12.343,-9.212 -18.009,-14.462c-2.165,-1.932 -4.006,-4.191 -5.757,-6.862c1.566,-1.703 3.224,-3.501 4.79,-5.204c2.578,-2.807 5.064,-5.481 7.23,-7.737c5.618,-5.941 11.836,-8.43 19.02,-11.238c4.284,-1.705 8.658,-3.451 13.264,-6.079c9.535,-5.388 17.272,-13.678 24.825,-21.646c5.85,-6.218 11.377,-12.114 17.502,-16.488c15.613,-11.144 39.746,-16.164 59.135,-20.218c3.637,-0.737 7.09,-1.473 10.408,-2.21l7.553,-1.657c24.224,-5.389 47.114,-10.409 70.647,-18.607c7.875,-2.763 19.711,-6.539 31.363,-8.842c3.085,-0.416 6.492,-0.968 9.81,-1.614c1.612,-0.11 3.594,-0.22 6.034,-0.22c1.105,0 2.119,-0.462 2.903,-1.246zM987.079,545.105c0.733,3.546 -1.386,7.737 -2.259,11.606c-2.208,9.394 -4.283,18.743 -5.204,28.553c-0.875,9.533 -5.757,18.653 -8.244,28.14c-1.796,7 -2.486,14.323 -4.006,21.462c-2.028,9.581 -3.917,19.207 -6.725,28.601c-3.04,10.039 -7.001,19.85 -10.686,29.751c-0.877,2.303 -1.935,4.558 -3.224,6.677c-4.192,6.863 -9.121,13.357 -12.666,20.541c-10.408,20.725 -27.816,35.187 -44.12,50.661c-4.054,3.869 -7.923,8.337 -10.547,13.218c-5.389,10.04 -10.086,20.541 -14.692,30.995c-5.39,12.207 -16.258,17.088 -27.68,21.417c-1.291,0.464 -2.671,0.921 -3.685,1.798c-5.02,4.236 -9.348,9.765 -15.014,12.757c-14.876,7.826 -24.363,21.553 -36.706,32.1c-8.383,7.139 -16.672,14.415 -25.1,21.508c-2.073,1.705 -2.994,4.745 -4.467,7.139l1.242,0.784c1.379,-1.196 2.715,-2.396 4.697,-4.099c-0.184,1.796 0.141,3.131 -0.368,3.731c-5.481,6.219 -9.672,13.679 -19.252,15.199c-13.539,2.119 -26.895,5.25 -39.284,11.606c-0.921,0.46 -2.442,1.289 -2.903,0.921c-5.019,-3.729 -8.154,0.416 -11.79,2.535c-11.929,7.046 -23.674,14.369 -35.924,20.771c-4.097,2.117 -9.486,1.794 -14.23,2.578c-0.549,0.072 -1.105,-0.074 -1.61,0.036c-10.224,2.119 -20.357,4.467 -30.581,6.309c-8.152,1.472 -16.442,2.35 -24.64,3.364c-10.408,1.335 -20.817,2.488 -31.225,3.822c-20.633,2.624 -41.22,5.434 -61.852,7.921c-2.12,0.277 -4.332,-1.069 -6.542,-1.289c-2.21,-0.196 -4.975,-0.748 -6.632,0.22c-15.289,9.21 -30.902,4.927 -46.607,1.703c-10.685,-2.212 -20.678,-7.242 -31.87,-7.462c-2.948,-0.093 -5.713,-2.764 -8.705,-3.869c-9.074,-3.224 -18.1,-6.772 -27.403,-9.303c-13.033,-3.499 -24.364,-9.995 -35.186,-17.777c-1.334,-0.968 -3.546,-0.636 -5.388,-0.968c-1.149,-0.184 -2.531,-0.089 -3.452,-0.689c-5.573,-3.683 -10.638,-8.471 -16.672,-11.006c-5.895,-2.44 -12.711,-2.717 -19.159,-3.822c-1.842,-0.332 -3.824,-0.036 -5.618,-0.368c-27.448,-4.974 -47.069,-23.074 -67.194,-40.16c-12.941,-11.008 -25.468,-22.522 -37.857,-34.128c-7.83,-7.323 -16.535,-14.324 -22.153,-23.213c-7.921,-12.62 -19.478,-20.632 -30.856,-28.969c-10.133,-7.414 -18.468,-16.809 -24.502,-27.126c-11.513,-19.481 -26.021,-37.304 -33.989,-58.95c-7.921,-21.553 -17.04,-42.693 -21.001,-65.537c-0.688,-4.006 -0.781,-8.151 -1.149,-12.25c-0.369,-3.824 -0.688,-7.691 -1.149,-12.804c-1.018,1.75 -1.282,2.303 -1.614,2.808c-2.899,-5.757 -3.127,-10.915 -0.596,-17.547c2.214,-5.94 1.338,-13.862 -3.452,-20.218c1.057,0.462 2.118,0.969 3.132,1.43c0.318,-0.232 0.632,-0.473 0.964,-0.693c-2.856,-4.468 -5.668,-8.935 -8.567,-13.357c-0.737,-1.154 -2.115,-1.982 -2.624,-3.18c-8.658,-20.771 -12.527,-42.831 -16.488,-64.8c-2.44,-13.448 -1.887,-27.265 5.113,-39.469c9.718,-16.904 12.067,-35.556 15.199,-54.208c0.736,-4.284 2.624,-8.567 4.79,-12.389c3.87,-6.816 2.444,-14.184 3.04,-21.323c0.646,-6.909 0.325,-13.955 1.014,-20.864c0.507,-5.436 1.933,-10.778 2.947,-16.028c0.137,0.509 0.431,1.336 0.689,2.166l1.334,0.368c2.671,-8.29 5.665,-16.488 7.968,-24.916c2.536,-9.12 4.332,-18.423 6.542,-27.633c0.411,-1.702 0.736,-3.594 1.657,-5.02c5.343,-8.243 10.823,-16.393 16.304,-24.547c0.873,-1.289 2.211,-2.302 3.132,-3.636c3.499,-5.02 7.046,-10.04 10.27,-15.244c1.566,-2.439 2.443,-5.295 4.79,-7.598c-0.173,1.426 -0.321,2.808 -0.505,4.238c0.557,0.074 1.154,0.22 1.706,0.368c1.105,-4.743 2.21,-9.488 3.408,-14.185c2.992,-11.656 4.787,-23.906 14.553,-32.334c9.808,-8.519 20.907,-15.751 29.981,-24.961c7.462,-7.601 13.309,-16.995 18.975,-26.114c6.263,-10.088 9.856,-21.785 19.85,-30.213c0.368,0.738 0.873,1.75 1.794,3.685c4.19,-5.527 7.829,-9.901 10.961,-14.553c8.66,-12.895 21.831,-19.757 35.049,-26.389c5.572,-2.808 12.434,-3.18 17.961,-6.079c7.645,-4.054 14.6,-9.442 21.83,-14.278c4.467,-2.948 8.844,-6.077 13.541,-8.705c1.473,-0.837 3.726,-0.357 5.618,-0.505c0.271,0.736 0.522,1.472 0.78,2.256c5.388,-3.638 10.777,-7.276 16.165,-10.961c-0.188,-0.459 -0.38,-0.968 -0.6,-1.473l-7.737,2.487c-0.228,-0.228 -0.522,-0.469 -0.78,-0.689c1.335,-1.196 2.486,-3.123 4.006,-3.455c8.474,-1.749 16.258,-6.723 25.423,-5.434c1.242,0.181 2.672,-0.803 4.054,-1.061c9.995,-1.98 19.942,-3.867 29.936,-5.802c8.105,-1.565 16.209,-3.27 24.363,-4.652c2.075,-0.321 4.423,0.877 6.542,0.509c5.204,-0.874 10.363,-2.347 15.567,-3.452c0.966,-0.184 2.071,0.426 3.132,0.646c-0.074,0.552 -0.112,1.105 -0.148,1.657c3.593,-1.844 7.232,-3.688 10.777,-5.666c0.877,-0.508 2.155,-1.522 2.119,-2.259c-0.091,-5.389 4.838,-6.309 7.83,-8.06c5.848,-3.408 12.25,-5.942 18.652,-8.105c2.394,-0.83 5.527,0.294 8.289,0.552c0.112,0 0.184,0.416 0.332,0.416c6.816,1.286 13.632,3.084 20.541,3.636c7.323,0.589 14.784,0 22.153,-0.148c7.138,-0.074 14.23,-0.332 21.323,-0.258c3.362,0.049 6.725,0.866 9.303,1.198c0.925,1.703 1.429,3.822 2.259,4.006c5.618,1.012 11.467,3.087 16.533,-1.703c0.552,-0.498 1.614,-0.646 2.394,-0.646c11.421,0.186 22.982,-0.92 33.574,4.93c9.856,5.424 20.907,4.558 31.593,5.572c9.258,0.876 18.606,0.876 27.771,2.21c4.699,0.691 9.119,3.315 13.541,5.297c8.155,3.638 16.398,7.184 24.274,11.329c7.139,3.729 15.29,6.861 20.403,12.618c9.58,10.87 22.337,17.547 32.561,27.403c3.363,3.224 7.646,5.987 11.975,7.553c10.731,3.868 21.739,7.046 32.7,10.27c2.623,0.756 5.527,0.314 8.289,0.646c1.889,0.277 4.467,0.324 5.481,1.566c4.007,4.697 7.553,9.807 11.284,14.737c0.917,1.245 2.162,2.259 2.992,3.501c2.532,3.731 4.927,7.507 7.462,11.238c1.472,2.21 3.086,4.329 4.652,6.448c2.118,2.949 4.33,5.804 6.356,8.751c3.133,4.56 6.22,9.166 9.303,13.725l1.473,-0.6c0.129,-1.334 0.313,-2.671 0.461,-3.869c7.828,6.539 15.935,12.757 23.349,19.712c3.731,3.454 8.419,8.06 8.751,12.434c0.599,8.105 6.543,11.836 10.179,17.408c4.194,6.4 8.661,12.573 12.99,18.882c6.541,9.626 11.696,20.632 19.85,28.508c9.119,8.751 13.034,20.955 21.646,28.692c0.129,1.839 -0.185,3.453 0.461,4.374c3.731,5.388 7.737,10.545 11.513,15.842c0.688,0.921 1.001,2.21 1.149,3.408c0.786,6.909 1.386,13.862 2.259,20.771c0.324,2.394 0.968,4.927 2.166,7.046c3.501,6.263 -1.517,12.666 0.693,18.836c0.368,1.061 0.827,2.166 1.473,3.087c1.566,2.028 3.641,3.824 4.79,6.034c2.947,5.527 5.985,11.006 8.06,16.856c3.408,9.765 6.264,19.757 9.026,29.706c3.408,12.02 6.727,24.086 9.626,36.245c0.877,3.686 1.062,7.783 0.416,11.468c-2.348,13.217 -5.432,26.296 -7.691,39.469c-0.688,4.053 0.352,8.337 0.646,12.527c0.596,-0.038 1.198,-0.112 1.794,-0.148v-5.159c5.297,7.646 10.915,16.165 9.442,24.87c-1.519,8.98 2.026,15.751 3.64,23.533z" /> <path d="M537.161,474.921c1.289,-0.737 2.062,-2.163 2.026,-3.636c-0.093,-1.475 -0.925,-2.812 -2.259,-3.501c-14.922,-7.462 -27.449,-19.066 -35.14,-32.607c-0.14,-0.276 -0.332,-0.517 -0.552,-0.737c-6.08,-6.679 -11.236,-13.586 -15.29,-20.541c-0.553,-1.014 -1.57,-1.715 -2.719,-1.935c-0.228,-0.074 -0.522,-0.11 -0.78,-0.11c-0.878,0 -1.751,0.278 -2.444,0.83c-9.856,7.414 -18.791,16.626 -27.403,25.468c-10.87,11.193 -22.106,22.752 -35.463,31.134c-1.567,0.97 -2.256,2.855 -1.751,4.606c0.507,1.754 2.117,2.903 3.915,2.903h0.404c25.377,0 43.615,34.17 52.227,54.527c0.596,1.291 1.794,2.256 3.224,2.44c0.184,0 0.368,0 0.552,0c1.245,0 2.443,-0.552 3.18,-1.566c16.81,-21.553 35.185,-43.752 58.259,-57.293zM754.202,472.718c4.743,1.154 9.533,2.259 14.185,3.501c4.467,1.152 9.026,2.26 13.632,3.318c-4.606,1.153 -9.212,2.397 -13.725,3.731c-4.652,1.335 -9.395,2.576 -14.185,3.822c-16.718,4.329 -33.988,8.842 -48.404,18.329c-17.686,11.651 -36.752,24.408 -56.234,38.686c-6.173,4.513 -12.85,7.828 -19.298,11.099c-8.382,4.19 -17.086,8.565 -24.363,15.474c-7.787,-11.009 -18.84,-19.575 -32.334,-25.009c-2.947,-1.199 -5.481,-1.982 -7.691,-2.719c-5.204,-1.66 -8.658,-2.765 -14.046,-7.462c-1.521,-1.334 -3.636,-4.652 -5.711,-7.876c-4.19,-6.493 -8.151,-12.664 -13.264,-13.862c-1.707,-0.368 -3.317,-0.552 -4.79,-0.552c-5.482,0 -9.626,2.671 -11.652,7.507c-2.383,5.711 -1.325,13.955 0.332,17.686c3.684,14.092 13.403,15.89 22.797,17.593c4.374,0.83 8.935,1.657 13.632,3.592c8.888,3.683 13.45,9.855 15.244,20.632l0.646,3.961c1.935,11.836 2.394,13.127 11.836,18.745c0.6,0.319 1.289,0.733 1.982,1.149c-1.98,2.855 -3.96,5.665 -5.986,8.521c-7.185,10.133 -14.599,20.541 -21.001,32.009c-5.155,9.303 -10.131,19.298 -14.921,29.015c-9.258,18.743 -18.836,38.18 -30.811,53.608c-8.383,10.824 -15.842,24.779 -21.508,40.069c-1.568,-3.546 -3.319,-6.956 -5.113,-10.408c-2.717,-5.295 -5.574,-10.822 -8.014,-17.408c-1.751,-4.79 -3.177,-9.81 -4.559,-14.646c-3.133,-11.145 -6.357,-22.613 -14.139,-32.423c-12.848,-16.119 -26.159,-38.088 -39.653,-65.307c-0.324,-0.642 -0.827,-1.198 -1.473,-1.61c-5.895,-3.731 -10.27,-7.968 -13.357,-13.034c-3.87,-6.309 -6.218,-13.632 -8.244,-20.587c-0.184,-0.509 -0.462,-1.012 -0.83,-1.473c-5.62,-6.587 -12.297,-10.502 -18.745,-14.278c-3.224,-1.888 -6.311,-3.686 -9.119,-5.757c5.065,-10.272 8.796,-14.646 22.06,-20.91c1.564,-0.737 4.282,-1.703 7.414,-2.808c14.741,-5.25 27.128,-10.27 29.11,-18.607c1.057,-4.559 0.505,-8.246 -1.614,-10.961c-1.98,-2.487 -5.249,-3.869 -9.21,-3.869c-2.671,0 -5.571,0.642 -7.737,1.703c-1.982,-0.036 -3.776,-0.036 -5.527,-0.036c-10.039,0 -20.677,0.737 -30.856,9.856c-3.317,2.994 -5.436,7.185 -7.323,10.87c-1.154,2.253 -2.259,4.372 -3.364,5.802c-3.408,4.191 -7.046,7.23 -11.652,10.27c-1.703,-1.337 -3.406,-2.717 -5.204,-4.099c-12.113,-9.349 -25.512,-15.106 -38.502,-20.678c-6.816,-2.946 -13.263,-5.709 -19.527,-8.98c-38.273,-19.941 -73.597,-30.627 -112.79,-38.916c40.344,-9.58 81.886,-24.042 118.776,-41.496c6.311,-2.946 12.758,-5.481 19.62,-8.105c12.943,-5.067 26.344,-10.271 38.457,-18.745l3.087,-2.163c9.578,-6.725 17.961,-12.573 25.468,-18.791c2.855,0.97 5.665,2.119 7.968,3.685c14.555,10.224 30.95,25.191 40.76,37.304c0.738,0.968 1.934,1.52 3.132,1.52c0.322,0 0.636,-0.038 0.968,-0.074c3.962,-0.968 5.437,-2.21 6.586,-5.481c0.368,-1.151 0.968,-2.901 3.271,-6.125c0.67,-1.012 0.928,-2.254 0.596,-3.452c-0.324,-1.151 -1.154,-2.119 -2.259,-2.624c-1.566,-0.784 -3.085,-7.785 -3.869,-11.561c-1.104,-5.02 -2.212,-10.177 -4.422,-13.678c-6.817,-10.917 -14.876,-12.484 -24.225,-14.278c-2.44,-0.459 -5.018,-0.964 -7.737,-1.657c-1.105,-0.275 -2.166,-0.553 -3.224,-0.921c5.848,-7.094 10.961,-15.015 15.842,-24.502c10.317,-20.216 28.278,-44.95 53.378,-73.503c7.276,-8.289 8.197,-13.08 9.258,-18.652c0.602,-3.132 1.289,-6.677 3.364,-11.79c2.441,-5.939 5.249,-10.915 7.968,-15.705c1.84,-3.224 3.638,-6.355 5.204,-9.626c5.711,13.909 13.218,26.62 21.646,36.476c11.929,13.955 21.507,31.547 30.765,48.542c4.788,8.796 9.717,17.87 14.921,26.298c6.402,10.408 13.816,19.85 20.955,28.969c4.699,5.988 9.167,11.699 13.357,17.64c-10.131,12.25 -27.539,18.193 -43.429,22.383c-0.83,0.229 -1.567,0.688 -2.119,1.334c-7.057,8.612 -9.303,19.02 -6.909,31.87c0.074,0.368 0.184,0.682 0.332,1.014c1.15,2.442 2.533,5.02 4.19,8.06c-0.146,0.416 -0.22,0.876 -0.22,1.337c0,4.422 3.915,4.422 12.482,4.422c4.283,0 5.525,-0.275 6.586,-0.921c4.377,-2.673 6.634,-5.944 9.258,-9.766l0.258,-0.368c1.934,-2.81 2.58,-5.85 3.132,-8.521c0.602,-2.949 1.061,-5.252 2.996,-7.139c4.145,-4.004 8.382,-4.329 13.725,-4.697c3.685,-0.273 7.461,-0.551 11.422,-2.071c5.342,-2.071 9.946,-5.204 14,-9.533c4.65,2.672 9.58,4.929 14.416,7.139c6.448,2.947 13.128,5.986 19.298,10.04c19.436,12.895 38.503,24.502 56.234,35.094c14.412,8.567 31.641,12.666 48.358,16.581z" /></svg>