<svg xmlns="http://www.w3.org/2000/svg" viewBox="0 0 988 992" width="988" height="992"><path d="M502.295,226.935c-0.877,0.736 -1.798,1.43 -2.903,1.982c-3.824,1.935 -20.909,2.21 -30.581,1.289c10.731,-8.475 23.672,-11.285 33.482,-3.271z" /> <path d="M440.127,184.473c22.06,-0.874 44.352,-0.322 66.458,0.646c1.289,6.583 2.91,13.217 2.578,19.573c-0.184,3.592 -0.412,7.968 -1.426,12.113c-2.073,-0.553 -4.238,-1.109 -6.632,-1.614c-7.922,-1.752 -36.293,-11.606 -51.951,-5.113c-3.315,-7.369 -6.402,-16.258 -9.026,-25.607z" /> <path d="M446.867,624.451c0.325,0 0.682,0.036 1.014,0.036c-4.513,40.483 -11.468,79.538 -6.632,120.205c-3.465,3.638 -5.022,8.658 -3.501,15.567c0.693,17.777 -0.148,35.233 -0.184,52.503c-14.646,-2.257 -29.154,-5.067 -42.463,-8.889c-12.482,-3.596 -26.712,-5.528 -38.273,-11.378c-14.23,-7.234 -23.902,-19.623 -35.463,-30.722c-13.034,-12.482 -27.173,-24.363 -40.944,-36.154c-11.559,-9.808 -26.021,-16.21 -36.613,-26.573c-21.921,-21.551 -21.691,-60.379 -34.587,-87.736c-11.054,-23.397 -13.357,-40.392 -13.357,-65.999c0,-12.848 0.258,-25.744 0,-38.548c-0.691,-32.471 -6.864,-61.393 7.414,-91.099c13.998,-29.015 31.177,-56.095 43.243,-85.801c11.745,-29.018 28.094,-52.595 46.194,-77.097c5.893,-6.356 12.295,-10.685 17.454,-15.337c27.403,-24.502 65.583,-43.614 105.145,-50.339c3.453,19.344 9.072,38.319 20.264,56.741c0.185,0 0.426,0 0.646,0c-6.309,39.01 -15.935,76.269 -7.507,116.383c0.921,0.228 1.931,0.589 2.899,0.921c-4.973,38.273 -14.74,74.657 -5.666,113.666c-5.766,4.329 -8.517,10.501 -5.618,19.482c6.264,44.811 2.579,88.796 26.528,130.154z" /> <path d="M438.027,151.75c-1.659,0 -3.273,-0.038 -4.93,-0.074c-2.069,-14.507 -2.206,-26.851 0.509,-32.423c4.008,-15.798 11.422,-13.125 18.193,-17.04c3.961,-2.303 2.855,-9.626 8.705,-10.363c7.185,-0.922 26.253,7.967 30.259,11.882c8.566,8.339 10.868,24.045 14.737,35.558c1.105,3.224 1.694,5.802 2.026,8.105c-22.981,1.612 -45.826,4.374 -69.498,4.374z" /> <path d="M511.967,587.043c-8.151,-1.798 -38.272,-12.804 -53.378,-3.132c-10.409,-28.924 -16.948,-72.538 -10.777,-84.467c0.968,-3.453 2.073,-5.986 3.271,-7.921c20.682,9.442 45.321,21.324 64.573,15.199c1.198,4.652 2.303,9.304 3.545,13.403c4.561,14.599 0.321,17.27 -1.105,30.627c-1.198,11.284 4.054,23.671 3.224,35.049c-0.11,1.105 -0.22,2.303 -0.294,3.545c-2.718,-0.783 -5.71,-1.566 -9.074,-2.303z" /> <path d="M529.158,771.357c2.164,7.921 2.854,16.904 4.374,24.318c2.305,11.283 0.325,15.289 -1.978,22.244c-13.632,2.029 -27.541,2.581 -42.417,1.061c-9.074,-0.921 -18.607,-1.891 -28.233,-3.04c-1.563,-18.652 -1.059,-36.2 2.259,-44.905c18.145,10.549 40.024,24.318 56.741,14.185c4.008,-2.394 6.955,-7.46 9.258,-13.862z" /> <path d="M653.95,232.597c55.956,36.89 121.034,80.09 138.811,148.344c9.442,36.292 6.356,65.492 4.79,102.889c-1.289,32.284 -5.388,71.755 -17.961,101.875c-15.383,36.936 -38.734,78.94 -68.347,105.099c-22.706,20.034 -37.259,49.002 -60.563,67.563c-21.094,16.81 -43.661,36.291 -68.807,45.871c-6.955,2.626 -13.771,4.974 -20.587,7c0.046,-12.343 -1.289,-24.641 -5.02,-36.154c-5.895,-18.284 -9.119,-27.588 -20.632,-32.469c1.378,-8.614 2.533,-16.858 4.006,-22.844c6.309,-26.25 11.006,-56.234 7.83,-83.498c-0.786,-6.678 -1.479,-12.389 -2.259,-17.27c6.311,-13.723 2.21,-38.041 3.224,-51.259c1.75,-23.027 0.784,-48.772 -8.658,-70.464c-2.58,-5.849 -4.743,-10.731 -6.909,-14.83c3.039,-10.961 4.653,-23.12 7.184,-30.811c7.093,-21.923 12.252,-47.069 8.198,-70.327c-4.147,-23.857 -6.034,-33.021 -26.253,-39.469c1.105,-5.158 2.166,-9.901 3.364,-13.632c6.998,-21.924 12.434,-47.069 9.994,-70.189c-0.828,-7.414 -1.47,-13.399 -2.531,-18.329c7.508,-13.125 2.394,-38.871 3.04,-52.826c42.095,4.513 82.762,22.428 118.086,45.732z" /> <path d="M468.168,857.798c18.927,4.239 37.857,7.279 53.792,3.318c2.439,-0.6 4.882,-1.289 7.369,-2.026c-0.072,0.646 -0.11,1.289 -0.22,1.935c-1.382,7.83 -3.453,19.577 -12.711,23.029c-5.159,1.935 -32.332,-1.198 -36.477,-3.822c-4.561,-2.902 -8.569,-11.33 -11.745,-22.429z" /> <path d="M456.307,246.183c18.009,3.179 39.701,8.107 56.925,4.836c0.517,8.06 -0.294,16.995 -0.22,24.502c0.184,15.153 -3.915,16.765 -8.337,29.383c-3.363,9.671 -2.626,21.414 -5.02,31.593c-12.434,-3.04 -35.508,-8.659 -51.075,-5.527c-2.487,-25.882 1.195,-66.871 7.737,-84.787z" /> <path d="M476.35,754.87c9.949,-8.058 21.924,-11.422 33.069,-6.816c-2.164,5.48 -5.113,10.225 -9.626,11.882c-3.269,1.198 -15.474,-1.89 -23.442,-5.066z" /> <path d="M525.521,631.925c0.516,9.994 -0.036,19.85 0.184,25.975c0.598,17.961 -3.456,20.034 -7.462,35.14c-3.362,12.757 -1.704,28.324 -4.744,41.265c-0.318,1.244 -0.632,2.581 -0.964,3.915c-1.382,-0.074 -2.765,-0.222 -4.238,-0.258c-6.861,-0.414 -26.896,-3.317 -43.936,-1.703c-5.113,-28.139 -3.04,-84.464 3.408,-109.289c18.328,3.454 40.342,8.61 57.751,4.974z" /> <path d="M848.023,531.679c1.751,-31.919 -6.816,-60.334 -6.816,-91.791c0,-16.256 0.782,-28.324 -5.527,-42.877c-12.298,-28.601 -17.825,-57.755 -27.312,-87.322c-6.125,-19.114 -7.782,-15.706 -21.185,-22.89c-19.757,-10.64 -38.686,-28.51 -56.602,-42.372c-12.711,-9.811 -27.034,-18.19 -40.621,-26.344c-16.074,-9.717 -27.955,-21.001 -42.74,-32.423c-26.389,-20.356 -77.419,-38.869 -113.02,-39.285c-1.612,-10.408 -4.283,-20.587 -8.612,-29.981c-12.481,-26.942 -15.935,-33.574 -52.273,-31.732c-13.493,0.691 -78.711,-3.04 -67.333,29.706c2.028,12.389 3.272,24.732 4.606,36.936c-12.159,0.093 -23.995,1.337 -35.233,6.725c-12.85,6.219 -23.029,14.601 -35.049,22.338c-15.935,10.224 -35.233,14.462 -48.358,28.692c-2.119,2.349 -3.638,5.924 0.784,6.034c-26.896,5.802 -60.056,60.056 -74.379,78.11c-11.145,14.046 -13.403,23.856 -19.389,39.607c-7.185,18.7 -17.732,38.411 -26.437,56.925c-7.968,16.947 -20.909,32.791 -27.864,49.463c-4.332,10.363 -4.283,27.035 -4.744,38.089c-1.887,45.364 14.969,88.241 26.482,132.041c10.179,38.733 17.224,75.855 41.358,109.06c10.04,13.725 29.658,31.364 45.041,40.667c16.072,9.671 27.126,20.311 41.265,34.312c14.369,14.232 29.199,26.896 47.897,35.233c16.258,7.232 33.899,8.797 50.432,13.541c8.612,2.44 16.028,4.79 25.054,5.527c7,0.6 14.507,1.935 22.244,3.592c1.887,13.634 5.295,27.173 11.513,40.76c23.258,2.119 66.504,25.377 92.065,10.915c13.874,-7.876 12.159,-36.8 14.094,-53.517c10.963,-4.099 21.97,-8.242 33.069,-11.329c15.66,-4.375 32.884,-5.803 46.839,-12.896c5.801,-2.992 11.054,-7.138 17.179,-10.27c10.175,-5.206 22.151,-7.002 31.225,-14.416c5.85,-4.791 10.363,-12.205 16.442,-17.409c13.816,-11.745 27.173,-22.338 36.845,-38.457c7.737,-12.848 10.823,-26.942 20.31,-38.041c12.666,-14.781 29.983,-25.789 39.332,-43.243c21.185,-39.468 46.887,-85.801 49.418,-131.672zM983.457,521.607c-1.519,8.932 2.075,15.752 3.685,23.534c0.737,3.547 -1.382,7.692 -2.303,11.561c-2.212,9.44 -4.283,18.788 -5.204,28.554c-0.875,9.578 -5.711,18.698 -8.198,28.185c-1.84,7 -2.485,14.323 -4.006,21.462c-2.027,9.579 -3.959,19.205 -6.771,28.554c-2.992,10.086 -7.002,19.896 -10.638,29.752c-0.877,2.351 -1.982,4.606 -3.271,6.725c-4.192,6.863 -9.074,13.357 -12.666,20.541c-10.408,20.725 -27.771,35.187 -44.075,50.661c-4.05,3.869 -7.968,8.288 -10.592,13.218c-5.389,10.04 -10.04,20.496 -14.692,30.95c-5.389,12.252 -16.255,17.088 -27.633,21.417c-1.291,0.509 -2.671,0.968 -3.685,1.798c-5.02,4.283 -9.348,9.812 -15.014,12.804c-14.876,7.826 -24.409,21.553 -36.752,32.1c-8.335,7.139 -16.626,14.416 -25.1,21.462c-2.028,1.75 -2.992,4.744 -4.422,7.184c0.418,0.275 0.786,0.49 1.198,0.784c1.379,-1.242 2.762,-2.442 4.697,-4.145c-0.148,1.794 0.184,3.176 -0.368,3.776c-5.48,6.173 -9.625,13.679 -19.205,15.199c-13.586,2.074 -26.943,5.252 -39.332,11.561c-0.873,0.509 -2.438,1.289 -2.899,0.921c-5.02,-3.731 -8.109,0.412 -11.745,2.578c-11.929,7 -23.72,14.369 -35.97,20.771c-4.051,2.117 -9.44,1.794 -14.23,2.578c-0.505,0.072 -1.105,-0.112 -1.61,0.036c-10.178,2.119 -20.311,4.467 -30.581,6.309c-8.153,1.472 -16.397,2.35 -24.641,3.364c-10.362,1.336 -20.816,2.487 -31.179,3.776c-20.634,2.671 -41.267,5.437 -61.899,7.968c-2.074,0.277 -4.332,-1.069 -6.542,-1.289c-2.212,-0.241 -4.929,-0.794 -6.586,0.22c-15.335,9.164 -30.947,4.881 -46.653,1.657c-10.686,-2.165 -20.633,-7.168 -31.871,-7.462c-2.903,-0.046 -5.713,-2.761 -8.705,-3.822c-9.073,-3.269 -18.054,-6.816 -27.357,-9.303c-13.033,-3.499 -24.364,-10.04 -35.186,-17.777c-1.334,-0.968 -3.594,-0.636 -5.388,-0.968c-1.149,-0.185 -2.531,-0.137 -3.452,-0.737c-5.618,-3.638 -10.683,-8.426 -16.717,-10.961c-5.895,-2.487 -12.711,-2.72 -19.159,-3.869c-1.842,-0.258 -3.776,0 -5.618,-0.368c-27.403,-4.928 -47.023,-23.028 -67.149,-40.114c-12.943,-11.009 -25.515,-22.522 -37.904,-34.174c-7.783,-7.323 -16.534,-14.323 -22.106,-23.165c-7.967,-12.62 -19.479,-20.632 -30.857,-28.969c-10.131,-7.46 -18.468,-16.809 -24.547,-27.126c-11.517,-19.482 -25.978,-37.305 -33.946,-58.951c-7.97,-21.553 -17.089,-42.74 -21.05,-65.537c-0.688,-4.052 -0.781,-8.151 -1.149,-12.25c-0.319,-3.869 -0.688,-7.691 -1.149,-12.804c-0.97,1.75 -1.308,2.303 -1.566,2.808c-2.905,-5.802 -3.133,-10.916 -0.646,-17.593c2.258,-5.943 1.382,-13.817 -3.408,-20.173c1.013,0.462 2.071,0.921 3.132,1.426c0.322,-0.228 0.636,-0.443 0.968,-0.737c-2.856,-4.42 -5.664,-8.887 -8.567,-13.309c-0.779,-1.149 -2.162,-1.978 -2.671,-3.224c-8.658,-20.771 -12.527,-42.786 -16.488,-64.755c-2.44,-13.448 -1.887,-27.265 5.113,-39.469c9.763,-16.904 12.112,-35.601 15.244,-54.208c0.69,-4.284 2.578,-8.567 4.744,-12.389c3.867,-6.817 2.437,-14.185 3.083,-21.324c0.6,-6.955 0.322,-13.955 0.968,-20.91c0.553,-5.389 1.979,-10.731 2.947,-15.981c0.137,0.463 0.431,1.289 0.689,2.166l1.334,0.368c2.717,-8.335 5.711,-16.533 8.014,-24.916c2.487,-9.119 4.327,-18.423 6.493,-27.633c0.417,-1.748 0.785,-3.593 1.706,-5.066c5.343,-8.244 10.777,-16.397 16.258,-24.502c0.922,-1.333 2.211,-2.347 3.132,-3.636c3.501,-5.02 7.046,-10.04 10.317,-15.244c1.52,-2.485 2.397,-5.342 4.744,-7.598c-0.129,1.382 -0.313,2.808 -0.461,4.19c0.552,0.148 1.105,0.258 1.657,0.368c1.149,-4.698 2.21,-9.441 3.408,-14.185c2.992,-11.606 4.787,-23.901 14.553,-32.284c9.855,-8.519 20.907,-15.751 29.981,-24.961c7.508,-7.6 13.355,-16.995 19.021,-26.114c6.218,-10.087 9.811,-21.785 19.805,-30.213c0.369,0.689 0.878,1.75 1.842,3.685c4.145,-5.528 7.781,-9.905 10.961,-14.602c8.612,-12.85 21.783,-19.758 35.001,-26.344c5.618,-2.808 12.434,-3.176 17.961,-6.079c7.691,-4.054 14.598,-9.488 21.876,-14.278c4.468,-2.948 8.842,-6.081 13.494,-8.705c1.521,-0.884 3.731,-0.404 5.666,-0.552c0.232,0.786 0.517,1.522 0.737,2.259c5.388,-3.637 10.777,-7.279 16.165,-10.915c-0.184,-0.505 -0.368,-1.012 -0.552,-1.473l-7.737,2.487c-0.275,-0.232 -0.564,-0.473 -0.784,-0.693c1.29,-1.193 2.441,-3.12 3.961,-3.452c8.474,-1.749 16.258,-6.723 25.423,-5.434c1.291,0.184 2.717,-0.811 4.099,-1.105c9.949,-1.935 19.941,-3.822 29.89,-5.757c8.105,-1.565 16.209,-3.27 24.363,-4.652c2.074,-0.368 4.467,0.877 6.542,0.509c5.249,-0.921 10.362,-2.391 15.612,-3.452c0.921,-0.184 2.026,0.376 3.087,0.596c-0.074,0.601 -0.074,1.154 -0.11,1.706c3.592,-1.889 7.23,-3.733 10.731,-5.711c0.924,-0.459 2.166,-1.473 2.166,-2.21c-0.091,-5.39 4.79,-6.311 7.83,-8.105c5.803,-3.408 12.205,-5.895 18.607,-8.105c2.439,-0.826 5.527,0.342 8.289,0.6c0.148,0 0.184,0.38 0.332,0.416c6.863,1.285 13.632,3.084 20.541,3.636c7.369,0.545 14.785,-0.074 22.199,-0.148c7.094,-0.074 14.231,-0.332 21.324,-0.258c3.363,0.049 6.68,0.83 9.258,1.198c0.969,1.705 1.426,3.813 2.303,3.961c5.618,1.062 11.42,3.087 16.533,-1.657c0.502,-0.498 1.564,-0.646 2.394,-0.646c11.375,0.137 22.936,-0.921 33.528,4.881c9.904,5.434 20.955,4.604 31.641,5.618c9.212,0.876 18.561,0.876 27.726,2.21c4.698,0.691 9.119,3.315 13.587,5.297c8.155,3.638 16.353,7.185 24.274,11.284c7.093,3.729 15.291,6.907 20.357,12.618c9.578,10.916 22.383,17.548 32.607,27.449c3.317,3.224 7.601,5.987 11.975,7.553c10.731,3.868 21.739,7.044 32.7,10.224c2.578,0.767 5.529,0.325 8.244,0.693c1.936,0.231 4.467,0.322 5.481,1.52c4.054,4.699 7.553,9.855 11.284,14.785c0.921,1.245 2.167,2.259 3.04,3.501c2.533,3.685 4.927,7.507 7.414,11.238c1.517,2.165 3.131,4.285 4.697,6.448c2.118,2.901 4.285,5.804 6.356,8.751c3.132,4.515 6.171,9.119 9.303,13.725c0.462,-0.184 0.969,-0.416 1.43,-0.6c0.203,-1.334 0.313,-2.72 0.461,-3.869c7.83,6.541 15.935,12.757 23.397,19.666c3.685,3.456 8.373,8.108 8.705,12.482c0.599,8.106 6.543,11.837 10.179,17.409c4.194,6.4 8.707,12.573 12.99,18.882c6.539,9.626 11.698,20.587 19.896,28.508c9.074,8.751 12.989,20.955 21.601,28.692c0.167,1.839 -0.185,3.453 0.461,4.374c3.731,5.343 7.739,10.5 11.561,15.797c0.644,0.964 0.957,2.259 1.105,3.408c0.83,6.909 1.382,13.862 2.303,20.771c0.325,2.441 0.921,4.974 2.119,7.093c3.501,6.218 -1.517,12.665 0.693,18.836c0.415,1.062 0.831,2.167 1.52,3.04c1.522,2.073 3.592,3.823 4.79,6.079c2.901,5.478 5.988,11.006 8.014,16.856c3.456,9.765 6.266,19.757 9.074,29.706c3.408,12.02 6.679,24.086 9.626,36.245c0.873,3.638 1.014,7.783 0.368,11.468c-2.349,13.216 -5.387,26.251 -7.646,39.469c-0.689,4.006 0.38,8.337 0.6,12.527c0.644,-0.038 1.246,-0.112 1.842,-0.148v-5.159c5.249,7.646 10.867,16.119 9.394,24.87z" /> <path d="M504.034,382.759c6.587,-3.086 10.591,-12.112 13.587,-22.429c0.036,0.074 0.184,0.222 0.22,0.258c6.081,10.132 4.283,25.93 5.02,37.996c0.966,15.198 -3.778,16.765 -8.337,29.383c-3.824,10.638 -1.612,23.904 -5.113,34.726c-0.277,0.877 -0.545,1.798 -0.877,2.719c-5.389,-0.626 -11.882,-0.736 -20.219,-0.368c-5.757,0.229 -20.722,-0.369 -35.324,1.334c-7.644,-21.417 -6.493,-71.249 0.6,-94.507c16.536,8.844 35.279,17.963 50.432,10.87z" /> <path d="M517.402,603.473c-1.474,2.717 -3.501,5.063 -6.448,6.493c-4.561,2.267 -28.094,2.083 -35.233,0.332c6.677,-7.969 17.684,-12.814 28.185,-12.85c5.987,0 10.314,2.349 13.494,6.034z" /> <path d="M497.42,343.912c-2.442,6.999 -6.079,14.923 -12.85,16.765c-3.178,0.828 -14.368,-1.888 -22.244,-4.744c6.264,-7.23 11.836,-4.515 18.1,-6.309c4.468,-1.244 5.295,-8.614 11.145,-7.921c1.567,0.184 3.64,1.061 5.85,2.21z" /> <path d="M469.021,479.228c1.428,-2.994 2.255,-6.632 6.309,-7.093c5.388,-0.646 17.224,4.238 24.547,8.428c-1.75,1.475 -3.824,2.627 -6.218,3.132c-3.456,0.782 -15.431,-1.706 -24.641,-4.468z" /></svg>