<svg xmlns="http://www.w3.org/2000/svg" viewBox="0 0 1024 1024" width="1024" height="1024"><path d="M29.921,409.165l-1.149,1.185c0,-0.591 1.149,-1.185 1.149,-1.185zM552.269,8.056l1.149,-1.185c2.312,0.742 2.683,1.185 1.162,1.185h-2.312zM715.661,968.023c-10.156,10.074 -12.631,4.593 -23.025,14.812l-19.551,10.368l-1.147,1.037c-5.427,0 -10.007,3.407 -16.12,3.407l4.608,-2.222c-18.447,2.222 -20.864,2.371 -41.426,9.185l1.149,-2.371c-9.933,3.405 -23.652,11.999 -31.063,4.593l-6.904,2.368h-6.904c-20.698,0 -18.312,1.779 -37.965,5.629l-10.348,1.185l-11.512,2.222h-9.201l-9.201,1.185l-3.461,-3.407c-14.047,1.925 -11.482,6.221 -25.306,7.997l3.446,-2.222c-13.793,4.444 -34.67,-3.11 -48.315,-5.775l1.149,-2.222c-5.742,0 -11.543,-2.371 -17.27,-2.371h-3.443c-9.902,-6.518 -27.96,-14.812 -40.279,-14.812l-8.051,-3.405c-8.663,-4.296 -19.533,-9.185 -26.455,-16l-3.456,2.225l-9.203,-4.593c-1.357,-1.331 -3.251,-2.074 -4.608,-3.405l-2.296,-2.225h-1.731c-1.221,0 -2.877,-2.371 -2.877,-2.371h2.312c1.731,-1.628 -25.052,-3.702 -20.71,-2.22l-13.811,-4.593c-5.189,-1.777 -10.811,-3.259 -16.102,-4.593l-13.811,-9.183c-8.617,-8.443 -19.968,-14.072 -28.764,-22.81c0,0 -2.476,-1.334 -3.459,-2.222l-3.446,-3.556c-35.282,-34.957 -75.617,-66.355 -109.304,-102.794l4.608,2.222l-8.051,-8c0,-2.371 -4.608,-5.629 -4.608,-5.629c-0.179,-0.294 0,-1.183 0,-1.183c-1.582,-6.221 -4.728,-6.369 -8.054,-11.407l2.296,1.185c-16.269,-16.292 -35.668,-57.618 -35.668,-69.765c0,0 -1.149,-1.48 -1.149,-2.22l-13.806,-41.178l3.456,5.627c-6.021,-11.848 -2.801,-24.292 -6.902,-36.436v11.405c0,-9.626 -3.459,-19.108 -3.459,-28.588c0,-2.222 3.456,7.852 3.456,5.629v-21.033c0,-3.407 -9.198,-13.775 -9.198,-11.999c-11.809,-23.552 -11.482,-49.027 -19.564,-73.17v-8c0,-1.628 -1.149,-2.962 -1.149,-4.593v-6.812c0,-23.107 17.254,-111.386 17.254,-45.77c4.695,-18.662 1.907,-17.477 5.755,-36.582l3.446,-2.225c0,-2.816 1.014,-5.478 2.086,-8.146l0.433,-1.037c1.075,-2.668 2.086,-5.184 2.086,-8v-1.183l-1.147,1.183c1.357,-16.292 -0.612,-19.551 2.296,-35.4v1.037c0.711,-1.284 1.135,-2.813 1.149,-4.44v-0.004v-7.997l1.147,-2.371v-3.405c1.669,0 1.162,-1.334 1.162,-2.225l1.149,-1.183l-1.149,4.59l-1.162,6.815c6.042,0 19.564,-50.657 19.564,-61.768l1.149,1.185c3.922,-6.221 13.509,-23.698 19.564,-29.773l-1.147,2.371c2.445,-2.516 2.312,-3.999 5.755,-5.775l2.296,-3.407c0,-1.185 1.149,-3.405 1.149,-3.405l8.051,-8c3.072,-7.703 5.757,-23.995 5.757,-23.995c8.543,-25.477 33.372,-38.81 51.773,-57.175l3.443,-6.815l9.216,-9.183c-3.354,2.222 16.105,-30.216 16.105,-30.81l6.904,-6.812c-5.934,7.258 13.614,-13.184 20.713,-19.553l3.446,-1.037l3.459,-3.405l2.296,-1.188c6.067,-12.145 31.15,-9.331 40.261,-18.365l-6.886,2.371c15.849,-5.332 26.184,-18.662 41.408,-25.18l2.296,3.405c5.069,0 11.633,-6.963 16.12,-9.183l2.296,-1.037c2.327,-2.371 -0.865,-3.405 2.296,-3.405l3.461,-2.373l-9.201,3.407l-11.512,8c4.92,-3.853 1.626,-9.037 8.051,-9.037c0,0 1.446,-1.185 2.296,-1.185h2.312c0,-0.74 0.195,-1.185 0.566,-1.185h2.88c5.622,0 15.642,-2.074 20.71,-3.405l13.809,-4.593c4.401,0 8.294,-2.222 12.662,-2.222h10.348c1.208,-1.185 4.608,-0.591 4.608,-2.371h-5.755c13.509,0 40.261,-4.59 40.261,-4.59c0.865,0 2.312,-1.037 2.312,-1.037h6.904c0,0 0.269,0.888 0,1.037l-2.312,1.185l-1.147,1.185h-2.296c0.538,0 1.147,1.183 1.147,1.183c0,0 1.446,-1.183 2.296,-1.183c0,0 14.136,-13.036 23.009,-16l-4.593,1.188c2.982,-3.11 5.563,-4.001 9.201,-5.778l-5.755,3.405c7.201,-3.551 19.694,-10.214 27.615,-10.214l2.296,1.037h4.608c-0.538,0 -11.899,0.591 -1.147,2.368c6.024,0 4.444,1.037 11.494,3.407c16.763,0 23.667,-4.89 33.375,0h23.009c-13.704,0 13.376,0.742 14.956,1.185h-6.902c-2.76,0 4.173,4.147 6.902,4.593c5.891,-0.742 2.806,-3.556 9.784,-3.556h20.71c10.409,0 22.144,7.258 31.644,10.368c21.862,-5.478 20.951,-4.89 54.07,3.405l-3.443,2.225c6.666,0 11.469,5.775 17.254,5.775l-6.907,-4.59c11.855,2.962 26.081,13.33 36.818,19.405c-19.52,-9.631 2.714,5.775 9.201,5.775l2.312,2.222c-13.614,0 20.608,17.626 31.06,26.365l3.446,3.405l3.459,2.222c3.171,1.601 6.976,3.158 10.91,4.429l0.587,0.164l11.512,3.405c6.175,2.519 17.582,5.187 22.697,6.372c4.593,4.59 22.948,18.514 29.079,25.626c7.887,9.183 13.435,20.142 20.71,29.773l-5.755,-3.41c1.044,1.037 2.939,2.519 4.265,3.407c-0.492,-0.148 -0.986,0 -1.969,0l6.904,5.778c0.417,0 10.363,2.222 19.564,11.405l3.446,2.222l3.459,3.405l2.296,3.558l-2.296,-1.188c2.775,4.147 3.773,4.89 6.904,8l4.608,6.812c-9.633,-9.626 14.822,22.664 21.862,34.217c9.349,15.552 23.022,46.953 41.408,56.138c4.191,8.294 17.27,29.327 17.27,57.024l3.443,1.185l-3.443,8l1.147,9.183c6.623,3.259 4.923,3.556 8.054,9.183l-1.149,-1.185c0,3.556 20.101,34.808 9.201,23.997l4.608,6.812h-1.162c1.267,3.853 3.459,11.405 3.459,11.405l4.593,13.775l-1.147,-1.185l9.216,35.402l-10.365,51.546v2.222h1.149l2.312,6.812c3.579,0 4.636,-2.074 9.201,9.185c1.357,6.664 -1.508,13.921 0,20.588l3.443,10.22l2.312,3.558l-1.147,4.442v2.371h-1.165c-0.865,1.777 -1.147,5.627 -1.147,5.627c-5.847,-5.775 -4.132,16 -5.757,23.997l1.165,-2.222c-1.997,27.845 -9.068,24.438 -13.809,50.36v12.442l-2.312,2.371v4.59c0,12.147 -7.457,21.627 -10.35,33.032l-3.459,9.183l-2.296,9.185c-10.675,15.107 -19.192,29.919 -28.764,45.768l-14.958,14.812c-3.668,3.556 -7.649,6.963 -11.469,10.368c0,0 0.046,-0.146 0,-0.146h-0.028c-0.581,0.591 -0.655,0.591 -1.178,1.183c-0.389,0.297 -0.745,0.742 -1.134,1.185c-14.687,9.628 -22.203,28.442 -27.602,44.585l-3.459,5.629l-3.446,6.812c-4.518,4.593 -13.076,9.777 -19.474,12.147c0.358,-0.148 0.701,-0.445 1.057,-0.594l-2.296,1.037c0.404,-0.148 0.819,-0.294 1.239,-0.443c-43.679,29.03 -68.045,52.137 -101.343,90.798c-0.699,0.74 -1.759,1.331 -2.877,1.628l-2.877,0.591c0.02,0 0.044,0 0.069,0c1.017,0 1.982,-0.218 2.853,-0.609l-0.044,0.018l2.877,-0.445l8.054,-9.183l1.147,-1.185c0.865,-1.628 3.461,-4.59 3.461,-4.59c2.312,-2.222 -1.984,6.221 -3.461,9.183l-5.74,5.775c-0.776,0.742 -1.165,1.482 -1.165,2.222h-4.593c-4.012,1.925 -12.959,4.593 -17.267,4.593l1.162,-1.185h-1.162c-2.596,0.888 -28.764,6.963 -28.764,11.405h-2.296v-1.037l-1.149,-1.185c0,0 -2.637,0.742 -3.443,0h1.147l1.149,-1.185l17.254,-5.627c-5.952,0 -17.254,4.59 -17.254,4.59l-2.296,2.222zM928.543,789.834c-0.031,0.148 -0.061,0.297 -0.09,0.297c-0.106,0.284 -0.247,0.53 -0.421,0.748l0.004,-0.005c-0.458,0.518 -1.073,0.887 -1.771,1.031l-0.021,0.004c0.763,-0.591 1.523,-1.331 2.299,-2.074zM926.2,792.056l-1.147,1.037c0.399,-0.294 0.789,-0.74 1.193,-1.185zM807.383,100.04c-1.613,-1.631 -1.521,-2.074 1.459,-0.594l1.152,1.185c0,0 -0.986,-0.297 -2.611,-0.591zM855.683,155.438c0.402,0.146 0.804,0.443 1.49,1.183c0,0 -0.625,-0.445 -1.49,-1.185zM800.94,468.71c2.104,-1.482 3.686,-3.704 4.744,-6.221c1.149,-2.963 2.207,-5.305 3.366,-7.586l-0.22,0.477c2.39,-3.171 4.503,-6.777 6.175,-10.618l0.133,-0.344c1.58,-3.702 3.43,-7.552 5.53,-11.699c1.047,-2.668 1.702,-4.741 1.971,-6.223c0.269,-1.628 -1.178,-1.331 -4.339,0.742c-1.652,4.337 -3.507,8.045 -5.679,11.536l0.162,-0.28c-1.317,2.013 -3.407,5.496 -5.434,9.019l-0.874,1.646c-2.059,4.056 -3.765,7.11 -5.559,10.103l0.429,-0.772c-2.203,3.854 -4.162,6.948 -6.233,9.959l0.312,-0.479l-4.726,6.221c-1.582,2.074 -3.162,3.999 -4.744,5.478c-1.042,1.631 -2.099,2.964 -3.146,4.298c-1.057,1.331 -2.102,2.516 -3.162,3.553l-0.387,-0.742c-0.269,-0.589 -0.655,-1.034 -1.193,-1.628c-0.378,-0.711 -0.774,-1.59 -1.12,-2.493l-0.058,-0.172c-0.269,-0.888 -0.924,-1.777 -1.971,-2.816c-1.58,-2.516 -3.814,-4.887 -6.707,-6.961c-2.893,-2.074 -5.652,-3.999 -8.276,-5.478c-2.102,-1.631 -4.086,-3.261 -5.921,-4.741c-1.848,-1.631 -3.814,-3.11 -5.919,-4.741c-3.149,-3.11 -6.444,-5.775 -9.856,-7.849c-3.756,-2.32 -6.972,-4.615 -10.029,-7.099l0.173,0.136c-4.206,-2.665 -8.026,-5.627 -11.441,-9.034c-3.43,-3.405 -7.232,-6.518 -11.436,-9.037c-1.582,-1.628 -3.43,-2.962 -5.532,-4.293c-2.104,-1.334 -3.937,-2.816 -5.519,-4.296c-2.099,-1.631 -4.07,-3.259 -5.919,-5.184c-1.803,-1.722 -3.728,-3.372 -5.739,-4.915l-0.166,-0.123c-5.263,-4.739 -11.182,-8.146 -17.759,-10.22c-6.561,-2.074 -13.005,-4.147 -19.328,-6.221c-2.624,-0.591 -5.381,-1.037 -8.274,-1.628c-2.805,-0.443 -5.327,-1.271 -7.65,-2.438l0.149,0.068c-1.567,-0.445 -3.013,-1.037 -4.326,-1.925c-1.326,-0.742 -2.772,-1.334 -4.339,-1.928c-4.219,-1.628 -8.543,-3.11 -13.018,-4.739c-4.472,-1.482 -8.543,-3.405 -12.227,-5.478l-5.517,-2.668c-1.582,-0.888 -3.162,-1.779 -4.744,-2.816c-1.58,-1.037 -3.279,-1.777 -5.13,-2.368c-1.833,-0.445 -3.548,-1.037 -5.128,-1.482c-3.149,-1.037 -6.308,-1.925 -9.454,-2.371c-3.162,-0.591 -6.579,-1.037 -10.26,-1.628c-3.162,-1.037 -6.71,-1.482 -10.647,-1.482h-39.828c-5.266,0 -10.26,0.148 -14.986,0.742c-4.741,0.011 -9.407,0.279 -13.998,0.792l0.576,-0.052c-4.206,0.591 -8.41,1.331 -12.616,2.371c-2.624,0 -5.13,0.294 -7.501,0.74c-2.355,0.591 -4.593,0.888 -6.694,0.888l-4.744,1.482c-1.401,0.556 -3.025,0.882 -4.723,0.888h-0.003c-3.162,0.443 -6.308,0.888 -9.469,1.185c-3.146,0.146 -6.308,0.591 -9.469,1.037c-7.258,0.627 -13.956,2.044 -20.326,4.177l0.614,-0.178c-6.308,2.074 -12.616,3.85 -18.939,5.478c-2.102,1.039 -4.339,1.779 -6.694,2.371c-2.24,0.422 -4.23,1.249 -5.981,2.408l0.06,-0.037c-1.58,1.037 -2.893,1.925 -3.937,2.668c-1.057,0.888 -2.102,1.777 -3.162,2.813c-4.204,2.519 -8.41,4.89 -12.616,6.963c-4.544,2.245 -8.423,4.609 -12.071,7.27l0.231,-0.161c-2.113,1.064 -3.929,2.348 -5.527,3.86l0.011,-0.01c-1.66,1.718 -3.463,3.274 -5.399,4.658l-0.118,0.08l-9.469,6.221c-3.162,2.222 -6.308,4.296 -9.469,6.666c-3.161,2.37 -6.308,4.444 -9.469,5.926l-12.616,7.849c-4.452,2.851 -8.325,5.927 -11.86,9.35l0.02,-0.019c-1.944,2.047 -3.873,4.218 -5.73,6.452l-0.173,0.215c-1.851,2.371 -3.817,4.89 -5.921,7.552c-1.622,2.127 -3.303,4.013 -5.116,5.764l-0.014,0.014c-1.789,1.879 -3.252,4.088 -4.285,6.523l-0.054,0.143c-2.33,4.711 -4.69,8.688 -7.309,12.472l0.213,-0.325c-2.275,3.37 -4.632,7.343 -6.769,11.448l-0.33,0.696c-0.522,-0.445 -1.06,-1.185 -1.58,-1.925c-0.498,-0.715 -0.795,-1.602 -0.795,-2.558c0,-0.038 0,-0.077 0.001,-0.115v0.006c-4.182,-5.923 -8.367,-12.753 -12.115,-19.85l-0.498,-1.034c-3.684,-6.963 -7.621,-14.218 -11.84,-21.478c-1.044,-1.628 -1.969,-3.11 -2.76,-4.739c-1.016,-1.931 -1.931,-3.481 -2.908,-4.986l0.151,0.247c-0.522,-1.037 -1.178,-2.222 -1.971,-3.407c-0.788,-1.334 -1.178,-2.519 -1.178,-3.556c-0.538,-1.037 -0.788,-2.222 -0.788,-3.556c0,-1.331 -0.269,-2.516 -0.791,-3.553c-1.057,2.074 -1.193,4.444 -0.402,7.109c0.791,2.519 1.446,4.593 1.984,6.221c0,2.668 0.118,5.184 0.387,7.406c0.269,2.371 0.655,4.593 1.178,6.666c0.538,2.074 1.06,4.296 1.582,6.666c0.522,2.368 1.057,4.59 1.58,6.664l6.308,20.442c2.363,7.603 5.039,14.077 8.215,20.251l-0.327,-0.701c0.522,2.074 1.313,4.001 2.373,5.481c1.042,1.631 1.833,3.405 2.371,5.478c-0.538,1.039 -0.924,2.074 -1.193,3.113c-0.256,1.037 -0.655,2.074 -1.178,3.11c-1.06,3.702 -2.104,7.552 -3.162,11.405c-1.044,3.999 -2.104,7.703 -3.149,11.405c-0.633,3.605 -1.454,6.743 -2.501,9.776l0.133,-0.443l-3.162,9.48c-0.618,3.592 -1.435,6.73 -2.485,9.76l0.129,-0.429l-3.164,9.48c0.522,-1.037 1.178,-2.222 1.971,-3.556c0.788,-1.331 1.444,-2.519 1.981,-3.556c2.358,-4.173 4.445,-7.51 6.653,-10.758l-0.345,0.538c1.956,-2.883 3.799,-6.19 5.35,-9.655l0.166,-0.416c2.276,-4.714 3.986,-7.966 5.766,-11.174l-0.636,1.248c2.355,-4.178 4.315,-7.37 6.365,-10.498l-0.444,0.722c0.52,-0.443 0.909,-1.037 1.178,-1.48c0.269,-0.594 0.387,-1.037 0.387,-1.631l3.162,6.369c0.522,0.888 1.06,1.925 1.58,2.668c0.522,0.74 1.044,1.628 1.582,2.816c1.567,1.48 2.893,3.405 3.937,5.775c1.057,2.368 2.102,4.59 3.162,6.664c1.564,2.668 3.146,5.332 4.726,8.294c1.582,2.816 3.162,5.632 4.728,8.148c3.014,6.049 5.899,11.044 9.044,15.853l-0.365,-0.595c3.162,5.033 6.577,10.071 10.258,15.404c1.06,1.037 2.104,2.22 3.162,3.405c1.044,1.334 2.104,2.519 3.149,3.556c1.58,1.628 3.026,3.259 4.337,5.184c1.313,1.777 2.506,3.405 3.551,5.036c2.624,3.11 5.517,6.075 8.678,8.591c3.013,2.553 6.369,4.906 9.932,6.938l0.326,0.171c9.573,4.653 15.773,7.912 21.905,11.279l-2.981,-1.5c6.308,3.405 12.884,6.07 19.73,8.143c2.624,1.037 5.381,2.074 8.276,2.816c2.893,0.74 5.65,1.628 8.289,2.665c3.668,1.631 7.099,3.11 10.245,4.444c3.162,1.185 6.308,2.665 9.469,4.296c3.67,2.264 8.194,4.731 12.842,6.984l0.967,0.422c3.831,1.885 8.65,3.887 13.595,5.622l0.989,0.302c1.58,0.445 3.159,0.888 4.741,1.185c1.58,0.148 3.146,0.297 4.726,0.297l9.472,3.11c3.144,1.037 6.707,1.628 10.644,1.628c3.937,0 7.757,0.297 11.438,0.742c3.684,1.037 7.501,1.628 11.438,1.628h12.227c3.684,0 7.232,0.297 10.65,1.185c3.412,0.742 6.963,1.331 10.644,1.925c2.104,0.445 4.206,0.742 6.308,0.742c2.104,0 4.221,0.294 6.323,0.74c1.567,0 3.279,0.294 5.115,0.888c1.848,0.443 3.817,1.037 5.919,1.482c2.104,0.589 4.07,0.888 5.921,0.888h5.919c4.206,0.443 8.141,0.74 11.827,0.74c3.681,0 7.365,-0.297 11.049,-0.742c7.069,-1.273 12.909,-2.66 18.634,-4.32l-1.293,0.321l17.357,-4.739c5.266,-1.037 10.65,-2.371 16.179,-3.85c5.905,-1.738 11.003,-3.854 15.814,-6.436l-0.438,0.215c2.104,-0.594 3.953,-1.334 5.519,-2.371c1.58,-1.037 3.159,-1.925 4.741,-2.371c1.044,-0.591 2.237,-1.185 3.548,-1.925c1.313,-0.888 2.491,-1.482 3.551,-2.074c1.042,-1.037 1.966,-2.074 2.757,-3.11c0.791,-1.036 1.446,-1.779 1.969,-2.371c1.58,-2.074 3.548,-3.702 5.921,-5.036c2.371,-1.334 4.608,-2.519 6.707,-3.556c3.866,-1.839 6.838,-3.418 9.743,-5.099l-0.676,0.36c2.893,-1.482 5.921,-3.11 9.068,-4.593c2.044,-1.583 4.387,-2.929 6.904,-3.931l0.194,-0.068c2.711,-1.087 5.049,-2.381 7.198,-3.922l-0.101,0.069l6.323,-3.11c2.102,-1.037 3.937,-2.074 5.517,-3.259c2.104,-1.48 3.937,-3.11 5.519,-5.036c1.58,-1.777 3.159,-3.553 4.741,-5.036c1.044,-1.037 2.222,-1.925 3.548,-2.816c1.313,-0.74 2.222,-1.923 2.76,-3.405c1.044,-1.631 1.969,-3.259 2.757,-4.741c0.794,-1.628 1.446,-3.11 1.971,-4.739c2.839,-5.11 5.711,-9.467 8.871,-13.591l-0.192,0.261c2.802,-3.607 5.663,-7.714 8.315,-11.964l0.364,-0.626c0.728,-1.257 2.178,-4.173 3.58,-7.117l0.76,-1.771c1.486,-3.297 2.935,-6.018 4.534,-8.637l-0.194,0.343c2.594,-3.828 4.794,-6.868 7.072,-9.845l-0.378,0.514c2.109,-2.861 4.325,-6.196 6.384,-9.636l0.325,-0.586c0.522,-1.628 0.927,-2.962 1.178,-3.999c0.269,-1.037 0.658,-2.222 1.196,-3.85c1.093,-3.887 2.573,-7.281 4.446,-10.413l-0.107,0.193c2.312,-3.923 4.262,-6.968 6.301,-9.949l-0.397,0.615v0.297c0,0.297 0.269,0.445 0.791,0.445c2.736,3.913 6.643,9.902 10.44,15.968l1.4,2.398c3.266,5.252 6.683,11.565 9.746,18.077l0.499,1.179l3.162,7.852c1.057,2.516 2.371,5.184 3.935,7.849c0,0.445 0.136,1.037 0.404,1.482c0.269,0.591 0.387,1.037 0.387,1.628c0.538,0 0.791,0.148 0.791,0.445v0.294l6.308,19.553c0.538,0 0.791,0.148 0.791,0.443c0,0.297 0.266,0.445 0.788,0.445l-3.146,-9.48c-0.961,-1.802 -1.657,-3.9 -1.97,-6.12l-0.012,-0.1c-0.256,-2.074 -0.911,-4.444 -1.971,-7.109c-0.493,-1.87 -0.908,-4.136 -1.159,-6.452l-0.019,-0.215c-0.276,-2.532 -0.695,-4.798 -1.267,-7.002l0.074,0.336c-0.52,-2.516 -1.178,-4.89 -1.966,-6.963c-0.968,-2.602 -1.897,-4.701 -2.931,-6.739l0.171,0.372c-1.054,-2.516 -2.528,-6.644 -3.886,-10.825l-0.454,-1.616c-1.485,-4.848 -2.958,-8.777 -4.632,-12.599l0.292,0.749c-1.179,-2.87 -2.521,-6.758 -3.69,-10.721l-0.247,-0.978c-1.442,-4.982 -2.789,-8.871 -4.293,-12.682l0.34,0.977c0.522,-0.591 1.06,-1.48 1.582,-2.816c0.522,-1.331 0.791,-2.516 0.791,-3.553c1.58,-4.147 3.279,-8.443 5.128,-12.887c1.836,-4.442 4.339,-8.443 7.485,-12.145zM755.192,537.736c-2.627,3.553 -5.384,7.404 -8.276,11.256c-2.893,3.999 -5.652,7.703 -8.292,11.405c-4.206,5.184 -8.141,10.516 -11.827,15.7c-3.681,5.184 -7.885,10.368 -12.613,15.7c-4.221,4.147 -8.425,8.74 -12.631,13.627c-4.206,5.038 -8.41,9.777 -12.616,14.515c-1.58,1.631 -3.415,3.113 -5.517,4.741c-2.117,1.482 -4.475,3.11 -7.114,4.593l-4.726,3.259c-1.58,1.037 -3.415,1.777 -5.517,2.22c-1.451,1.088 -3.171,1.909 -5.036,2.352l-0.094,0.019c-1.848,0.594 -3.548,1.334 -5.13,2.371c-2.624,1.628 -5.13,3.11 -7.485,4.739c-2.371,1.631 -5.13,2.816 -8.292,3.853c-6.08,3.659 -8.395,5.127 -10.702,6.605l3.606,-2.161c-2.241,1.268 -4.851,2.422 -7.578,3.316l-0.312,0.089c-0.491,0.451 -7.036,2.718 -13.617,4.908l-6.095,1.758c-6.845,2.371 -13.676,4.147 -20.518,5.184c-5.248,1.037 -10.65,1.777 -16.166,2.371c-5.517,0.443 -10.916,1.037 -16.179,1.482c-4.726,1.037 -9.318,1.777 -13.793,1.925c-4.069,0.282 -8.818,0.443 -13.605,0.443c-0.072,0 -0.143,0 -0.215,0h0.011c-3.684,0 -7.365,-0.148 -11.049,-0.443c-3.668,-0.148 -7.352,-0.888 -11.034,-1.925c-3.686,-0.445 -7.621,-1.185 -11.843,-1.928c-4.204,-0.74 -8.141,-1.628 -11.825,-2.813c-2.984,-0.521 -5.632,-1.292 -8.151,-2.317l0.263,0.095c-2.28,-1.051 -4.93,-1.875 -7.702,-2.344l-0.188,-0.026c-5.661,-1.381 -9.878,-2.601 -14.037,-3.953l1.421,0.4c-2.738,-0.952 -6.96,-2.173 -11.237,-3.257l-1.392,-0.299c-9.992,-2.519 -19.712,-5.924 -29.184,-9.777c-10.778,-4.42 -19.854,-9.037 -28.506,-14.281l0.904,0.509c-3.681,-2.074 -7.501,-4.147 -11.436,-6.221c-4.477,-2.387 -8.217,-4.695 -11.804,-7.206l0.366,0.243c-3.684,-2.222 -7.099,-4.444 -10.26,-6.815c-2.862,-2.058 -6.212,-4.212 -9.668,-6.202l-0.59,-0.313c-2.627,-1.631 -5.248,-3.407 -7.89,-5.184c-2.996,-2.023 -5.567,-3.971 -8.03,-6.043l0.142,0.117c-3.684,-2.516 -7.099,-5.478 -10.245,-8.591c-2.948,-2.885 -6.033,-5.691 -9.217,-8.384l-0.252,-0.208c-4.204,-3.702 -8.289,-7.406 -12.227,-11.405c-3.946,-3.832 -7.681,-7.791 -11.238,-11.908l-0.2,-0.237c-2.713,-3.2 -5.422,-6.098 -8.263,-8.86l-0.029,-0.028c-2.877,-2.962 -5.115,-6.221 -6.694,-9.923c-2.29,-3.895 -4.506,-7.183 -6.897,-10.331l0.187,0.257c-2.248,-2.949 -4.462,-6.287 -6.458,-9.767l-0.239,-0.453c-0.538,-0.594 -0.922,-1.037 -1.193,-1.631l-0.387,-0.74c0.522,-1.037 0.909,-2.074 1.178,-3.11c0.269,-1.036 0.655,-2.074 1.178,-3.11c7.243,-11.915 11.415,-18.437 15.643,-24.918l-3.012,4.922c4.342,-6.703 9.293,-12.492 14.909,-17.557l0.077,-0.068c4.514,-4.519 9.41,-8.655 14.636,-12.355l0.35,-0.235l15.777,-10.962c1.588,-1.502 3.404,-2.786 5.386,-3.79l0.131,-0.06l18.939,-9.48c2.779,-1.346 6.057,-2.561 9.461,-3.466l0.395,-0.089c3.415,-0.742 6.963,-1.925 10.65,-3.405c3.286,-1.225 8.153,-2.746 13.091,-4.096l1.506,-0.351c4.995,-1.183 10.125,-2.665 15.373,-4.293c9.472,-2.519 18.806,-5.481 28.006,-8.591c9.2,-3.11 18.534,-5.778 28.004,-7.852c2.624,-0.443 5.13,-1.185 7.485,-1.925c2.371,-0.742 5.13,-1.482 8.292,-1.925c3.162,0 6.308,-0.297 9.469,-0.742l9.454,-1.628c4.741,-0.445 9.216,-1.185 13.42,-1.925c4.206,-0.742 8.41,-1.482 12.616,-1.925h47.329c6.83,0 13.407,0.443 19.715,1.48c1.58,0 3.295,0.445 5.13,1.185c1.848,0.742 3.548,1.482 5.13,1.925c2.099,0.594 4.204,0.891 6.308,1.185c2.099,0.297 4.204,0.742 6.305,1.185c3.686,0.594 7.368,1.331 11.052,2.371l11.049,3.11c3.531,1.298 8.141,2.671 12.844,3.805l0.949,0.193c4.475,1.037 8.814,2.371 13.018,3.85c3.162,1.037 6.308,2.222 9.472,3.558c3.144,1.331 6.305,2.516 9.467,3.553c2.102,1.037 4.206,1.925 6.308,2.665c2.102,0.742 4.206,1.779 6.308,2.816c0.522,0.443 1.313,1.183 2.371,1.925c1.044,0.74 1.836,1.48 2.355,1.925c3.162,1.628 6.19,3.11 9.083,4.296c2.893,1.331 5.906,3.11 9.065,5.184c2.627,1.48 5.402,3.405 8.294,5.775c2.644,2.18 5.615,4.149 8.781,5.794l0.281,0.133l9.472,6.221c3.146,2.074 6.039,4.444 8.663,7.109c2.637,2.668 5.263,5.036 7.887,7.406c2.639,2.371 5.263,5.184 7.89,8.294c1.58,2.074 3.295,4.147 5.128,6.221c1.851,2.074 3.551,4.147 5.13,6.221c1.966,3.332 3.528,5.797 5.147,8.221l-0.419,-0.667c1.432,2.01 2.998,4.427 4.468,6.908l0.273,0.498c1.044,1.037 1.836,2.074 2.371,3.11c0.522,1.037 1.313,1.779 2.355,2.371c-2.099,5.184 -4.457,10.22 -7.096,14.812l-7.887,14.221zM612.424,649.713l11.827,-11.699c1.057,-1.631 2.099,-3.113 3.159,-4.298c1.044,-1.331 2.104,-2.813 3.149,-4.442c1.053,-1.454 1.979,-3.114 2.7,-4.879l0.058,-0.159c1.186,-2.674 2.114,-4.57 3.09,-6.438l-0.315,0.663c2.303,-4.027 4.435,-8.724 6.129,-13.626l0.179,-0.595c1.58,-4.59 2.893,-9.626 3.935,-14.812c1.06,-3.702 1.582,-7.404 1.582,-11.405c0,-3.85 0.269,-7.7 0.788,-11.405c0,-1.48 0.136,-3.259 0.389,-5.036c0.269,-1.777 0.133,-3.556 -0.389,-5.036c0,-2.668 -0.52,-5.038 -1.58,-7.112c-1.044,-2.074 -1.833,-4.147 -2.355,-6.221c-0.884,-2.479 -1.705,-5.513 -2.305,-8.625l-0.066,-0.411c-0.563,-3.141 -1.386,-5.925 -2.474,-8.572l0.101,0.277c-1.316,-4.519 -2.524,-8.013 -3.868,-11.439l0.32,0.925c-1.541,-4.012 -3,-7.233 -4.613,-10.361l0.274,0.585c-1.17,-3.496 -2.502,-6.483 -4.079,-9.313l0.141,0.277c-1.49,-2.599 -2.369,-5.714 -2.371,-9.034v0l-1.58,-6.221c-0.522,-2.074 -1.313,-4.147 -2.373,-6.369c-0.52,-2.074 -1.178,-3.999 -1.969,-5.775c-0.833,-1.993 -1.757,-3.699 -2.827,-5.297l0.07,0.111c-1.582,-2.516 -3.162,-5.036 -4.728,-7.404c-1.58,-2.371 -3.162,-4.741 -4.741,-7.406c-1.667,-3.902 -3.646,-7.267 -5.99,-10.337l0.084,0.115c-2.371,-3.11 -5.128,-5.924 -8.289,-8.591l-4.339,-4.296c-1.313,-1.331 -3.028,-2.516 -5.13,-3.553c-1.567,-1.037 -3.415,-2.371 -5.517,-3.853c-2.104,-1.628 -4.206,-2.665 -6.308,-3.256c-9.301,-3.798 -20.28,-7.031 -31.646,-9.164l-1.086,-0.169c-10.073,-1.959 -21.666,-3.09 -33.519,-3.11h-0.017h-9.068c-2.893,0 -5.921,0.297 -9.068,0.742c-4.204,0.591 -8.156,1.48 -11.84,2.813c-2.665,0.947 -6.616,2.115 -10.622,3.143l-1.202,0.262c-3.684,1.039 -7.365,1.779 -11.049,2.074c-3.684,0.151 -7.352,1.188 -11.034,2.668c-2.642,1.631 -5.535,3.11 -8.678,4.741c-3.164,1.48 -6.057,3.405 -8.678,5.478c-4.728,3.704 -9.605,7.112 -14.602,10.519c-4.992,3.405 -9.334,7.7 -13.002,13.033c-1.827,2.924 -3.65,5.438 -5.626,7.82l0.094,-0.117c-1.8,2.268 -3.617,4.828 -5.299,7.482l-0.217,0.367l-1.582,4.741c-0.492,1.412 -0.78,3.04 -0.788,4.735v0.004c-1.282,3.779 -2.483,6.767 -3.815,9.682l0.264,-0.646c-1.311,2.816 -2.488,5.629 -3.548,8.146c-1.365,3.899 -2.596,8.631 -3.462,13.49l-0.086,0.582c-0.75,4.396 -1.178,9.46 -1.178,14.625c0,0.118 0,0.236 0.001,0.354v-0.018v12.59c0,1.48 0.251,3.11 0.788,4.59c0.522,1.631 0.791,3.259 0.791,4.741v6.221c0,2.074 0.253,4.296 0.791,6.369l4.726,21.921c1.801,8.252 3.972,15.335 6.647,22.164l-0.339,-0.983c1.06,3.11 2.624,6.072 4.728,9.037c2.117,2.813 4.219,5.33 6.323,7.404c1.746,2.79 3.565,5.209 5.566,7.462l-0.049,-0.056c2.166,2.421 4.486,4.605 6.981,6.578l0.116,0.088c1.06,1.037 1.971,1.777 2.76,2.371c0.791,0.443 1.715,1.037 2.76,1.48c1.057,1.037 2.235,2.222 3.548,3.11c1.326,1.185 2.504,2.222 3.548,3.259c2.104,1.037 4.086,2.074 5.921,3.11c1.848,1.037 3.814,1.779 5.919,2.371c3.684,1.037 7.368,1.631 11.034,1.925c3.686,0.297 7.368,0.594 11.052,1.185c0.522,0.445 1.313,0.742 2.371,0.742h2.355c1.06,0.591 2.104,0.888 3.162,1.183c1.06,0.297 2.104,0.148 3.162,-0.443c-0.538,-1.482 -1.981,-3.11 -4.339,-4.593c-2.371,-1.628 -4.086,-2.962 -5.13,-3.999c-2.099,-1.037 -4.204,-2.222 -6.308,-3.405c-2.099,-1.336 -4.204,-2.816 -6.323,-4.447l-6.305,-4.59c-2.09,-1.601 -3.905,-3.404 -5.467,-5.414l-0.05,-0.067c-1.582,-1.628 -3.028,-3.11 -4.342,-4.741c-1.311,-1.628 -2.757,-3.11 -4.339,-4.739c-1.58,-1.482 -2.893,-3.259 -3.935,-5.036c-0.521,-0.839 -1.573,-2.779 -2.596,-4.737l-0.566,-1.19c-0.391,-0.726 -0.788,-1.604 -1.127,-2.511l-0.051,-0.154c-0.241,-0.81 -0.653,-1.506 -1.195,-2.076l0.002,0.002c-0.43,-1.171 -0.836,-2.61 -1.142,-4.087l-0.036,-0.208c-0.284,-1.348 -0.69,-2.536 -1.22,-3.655l0.042,0.099l-6.323,-12.442c-0.461,-0.887 -0.864,-1.921 -1.153,-3.001l-0.025,-0.109c-0.489,-1.879 -0.893,-3.213 -1.331,-4.532l0.154,0.533c-1.011,-0.979 -1.817,-2.164 -2.349,-3.488l-0.024,-0.068c-0.474,-1.067 -1.011,-2.49 -1.483,-3.943l-0.099,-0.353c-0.378,-0.711 -0.774,-1.59 -1.12,-2.493l-0.058,-0.172c-0.352,-1.093 -0.751,-2.024 -1.224,-2.91l0.046,0.094c-0.538,-0.443 -1.057,-1.183 -1.58,-2.368l-1.582,-3.11c-1.58,-3.11 -2.757,-5.926 -3.548,-8.591c-0.791,-2.668 -1.446,-5.778 -1.969,-9.331c-0.936,-3.89 -1.902,-9.118 -2.646,-14.417l-0.114,-0.989c-0.788,-5.478 -0.133,-10.22 1.971,-14.367l5.919,-11.85c1.564,-3.018 3.285,-6.873 4.816,-10.824l0.299,-0.875c1.58,-4.147 2.893,-8.294 3.95,-12.147c1.044,-3.999 3.149,-7.406 6.308,-10.665c3.162,-4.147 7.232,-7.703 12.229,-10.962c4.995,-3.11 10.125,-5.478 15.373,-6.963c2.038,-0.729 3.605,-1.378 5.138,-2.086l-0.395,0.163c1.58,-0.888 3.146,-1.482 4.726,-2.074c3.684,-1.037 7.636,-1.631 11.84,-1.925c4.206,-0.297 8.141,-0.891 11.827,-1.928l12.628,-3.11c3.668,-1.037 7.219,-2.074 10.65,-3.11c3.412,-1.037 6.963,-1.925 10.644,-2.368c2.624,0 5.248,-0.148 7.89,-0.445c2.367,-0.283 5.108,-0.445 7.887,-0.445h5.517c1.582,0 3.415,0.594 5.517,1.631c1.06,0.591 2.237,1.185 3.551,1.925c1.326,0.888 2.772,1.482 4.339,2.074c1.057,0.888 2.371,1.777 3.95,2.222c1.582,0.591 2.893,1.331 3.937,2.371c3.045,1.221 5.641,2.563 8.089,4.117l-0.199,-0.118c2.637,1.48 5.53,2.816 8.678,3.85c2.102,0.594 4.339,1.185 6.71,1.925c2.355,0.891 4.339,2.222 5.906,4.296c2.637,2.222 5.01,4.444 7.112,7.112l6.308,7.849c2.102,1.631 3.937,3.259 5.517,5.036c1.582,1.928 2.893,3.853 3.953,5.926c1.044,1.037 1.969,2.368 2.76,3.85c0.873,1.825 1.791,3.379 2.826,4.844l-0.069,-0.103l3.149,6.369c1.057,2.074 1.848,4.147 2.368,6.221c0.522,2.074 1.178,4.147 1.971,6.221c0.788,2.074 1.444,4.444 1.981,7.109c0.522,1.037 1.044,2.371 1.567,3.85l1.58,4.741c0.522,2.074 0.924,4.296 1.193,6.666c0.256,2.368 0.655,4.739 1.178,7.406c0.522,2.074 1.044,4.293 1.582,6.664c0.522,2.371 1.044,4.89 1.564,7.406c0.538,2.074 1.06,4.147 1.582,5.926c0.538,1.777 0.791,3.85 0.791,5.924v12.442c0,3.11 0.402,6.518 1.193,9.925c0.773,3.259 1.431,6.518 1.966,9.774c0.522,3.11 1.044,6.518 1.582,10.516c0.522,3.853 0.776,7.706 0.776,11.407c0,2.516 -0.256,5.184 -0.776,7.849c-0.538,2.519 -1.06,5.481 -1.582,8.591l-3.159,6.221c-1.044,2.074 -1.836,4.147 -2.373,6.221c-1.042,2.668 -2.488,4.89 -4.324,6.666c-1.773,1.815 -3.453,3.746 -5.017,5.771l-0.113,0.152zM595.067,740.659h-13.407c-2.637,0 -5.263,0.148 -7.885,0.742c-2.642,0.443 -5.266,0.74 -7.89,0.74c-3.666,0.554 -7.905,0.877 -12.217,0.888h-0.012h-98.207c-1.06,0 -2.491,-0.148 -4.339,-0.445c-1.836,-0.297 -3.548,-0.148 -5.13,0.445c1.06,1.48 2.102,2.962 3.162,4.296c1.044,1.331 2.102,2.368 3.149,3.405c1.619,2.751 3.184,5.072 4.872,7.295l-0.133,-0.183c1.582,2.074 2.893,4.444 3.937,7.109c0.538,1.037 1.193,2.222 1.984,3.405c0.776,1.334 1.446,2.519 1.969,3.558c1.044,1.628 2.102,2.962 3.146,4.293c1.057,1.334 2.102,2.816 3.162,4.296c1.057,1.631 2.102,3.407 3.162,5.184c1.042,1.779 1.833,3.704 2.355,5.926c2.372,5.198 4.612,9.423 7.057,13.511l-0.347,-0.627c2.371,3.853 4.593,8.148 6.712,12.887c1.85,4.834 3.971,8.982 6.47,12.863l-0.165,-0.273c2.416,3.756 4.787,8.131 6.837,12.683l0.262,0.65c0.522,1.48 1.178,2.813 1.969,3.85c0.791,1.037 1.715,2.371 2.76,3.999c1.057,1.482 2.102,3.259 3.162,5.036c1.042,1.779 2.099,3.558 3.146,5.038c1.057,1.037 2.099,1.925 3.162,2.813c1.042,0.742 2.099,1.628 3.159,2.665c1.044,2.074 2.222,4.001 3.551,5.481c1.382,1.73 2.802,3.278 4.32,4.723l0.019,0.018c1.044,1.628 1.969,2.962 2.757,4.296c0.794,1.331 1.7,2.516 2.76,3.553c1.044,1.631 2.102,2.816 3.149,3.853c1.057,1.037 1.846,2.368 2.368,3.999v-5.926c0,-1.777 -0.269,-3.702 -0.788,-5.924c-0.662,-3.339 -1.21,-5.684 -1.812,-8.006l0.229,1.043c-0.398,-1.415 -0.941,-3.811 -1.421,-6.23l-0.145,-0.879c-1.307,-3.091 -2.629,-5.67 -4.113,-8.141l0.163,0.292c-1.382,-2.184 -2.701,-4.716 -3.809,-7.359l-0.128,-0.344c0,-2.222 -0.269,-3.999 -0.791,-5.627l-1.58,-4.593c-0.522,-1.631 -1.178,-2.962 -1.969,-3.999c-0.791,-1.037 -1.446,-2.371 -1.984,-3.853c-1.042,-2.665 -1.833,-5.627 -2.355,-9.037c-0.538,-3.405 -1.313,-6.367 -2.371,-9.034c-0.87,-2.012 -1.809,-4.617 -2.613,-7.282l-0.147,-0.567c-0.49,-1.402 -1.166,-3.729 -1.775,-6.083l-0.193,-0.88c-0.624,-3.651 -1.447,-6.84 -2.502,-9.92l0.132,0.443c-0.924,-2.601 -1.747,-5.74 -2.317,-8.965l-0.054,-0.368c0,-1.037 -0.133,-2.074 -0.389,-3.11c-0.245,-0.975 -0.391,-2.097 -0.402,-3.252v-0.007c0.538,-2.074 1.06,-3.999 1.582,-5.775c0.522,-1.925 2.102,-3.259 4.741,-4.296c4.728,-2.074 9.992,-3.556 15.777,-4.296c6.488,-0.992 12.079,-2.232 17.532,-3.796l-0.979,0.24c3.681,-1.037 7.232,-1.925 10.66,-2.813c3.415,-0.742 6.963,-1.628 10.65,-2.665c2.099,-0.594 4.457,-1.185 7.096,-2.074c2.122,-0.641 4.563,-1.018 7.089,-1.037h0.01c0.9,-0.544 1.983,-0.872 3.141,-0.891h0.005c1.057,0 2.102,-0.146 3.162,-0.74l4.726,-1.628c1.582,-0.445 3.162,-0.742 4.744,-0.742h3.548c1.311,0 2.491,-0.294 3.548,-0.74c0.522,0 0.924,-0.297 1.178,-0.742c0.269,-0.589 0.404,-1.628 0.404,-3.256c-1.582,0 -3.297,0.148 -5.13,0.443c-1.534,0.27 -3.308,0.432 -5.118,0.445h-0.013zM634.509,356.731c1.044,-5.332 2.371,-8.591 3.937,-10.22l4.741,-4.741c1.622,-2.125 3.303,-4.011 5.116,-5.761l0.015,-0.014l5.115,-5.184c1.06,-2.074 2.371,-3.999 3.953,-5.926c1.58,-1.777 3.146,-3.405 4.726,-5.036c1.582,-1.037 2.506,-1.628 2.76,-1.925c0.269,-0.297 0.402,-1.185 0.402,-2.816v-27.4c-0.004,-2.771 -0.15,-5.502 -0.431,-8.193l0.029,0.341c-0.077,-0.767 -0.122,-1.658 -0.122,-2.559c0,-1.872 0.191,-3.7 0.553,-5.465l-0.03,0.174c0.522,-2.074 0.791,-3.853 0.791,-5.481v-5.481c-0.491,-0.9 -0.783,-1.97 -0.791,-3.108v-0.002v-31.252c0,-1.631 0.133,-2.519 0.387,-2.816c0.269,-0.294 0.927,-0.443 1.984,-0.443h59.156c2.102,0 4.07,0.148 5.919,0.443c1.836,0.297 3.804,0.148 5.906,-0.443c1.06,0 2.102,0 3.162,-0.297c0.947,-0.281 2.035,-0.444 3.161,-0.445h0.001c1.044,0 2.624,0.148 4.726,0.445c2.104,0.297 3.684,-0.148 4.728,-1.185c-0.522,0 -0.791,-0.297 -0.791,-0.742v-1.628c0.001,-0.04 0.001,-0.088 0.001,-0.135c0,-0.955 -0.142,-1.876 -0.405,-2.745l0.017,0.067c-0.233,-0.569 -0.375,-1.228 -0.389,-1.919v-0.006c-0.538,-1.482 -0.924,-3.259 -1.193,-5.036c-0.347,-2.366 -0.758,-4.371 -1.268,-6.337l0.09,0.411c0,-1.037 -0.269,-2.222 -0.791,-3.553c-0.522,-1.185 -0.788,-2.371 -0.788,-3.407c-0.522,-0.594 -0.658,-1.185 -0.389,-2.074c0.256,-0.742 0.389,-1.334 0.389,-1.925c-1.044,-2.074 -3.282,-2.668 -6.712,-1.928c-3.415,0.742 -5.903,1.185 -7.485,1.185c-2.102,0.445 -4.472,1.037 -7.096,1.482c-2.369,0.561 -5.091,0.885 -7.887,0.888h-0.002c-3.684,0 -7.365,0.297 -11.049,1.185c-3.684,0.742 -7.352,1.185 -11.034,1.185c-2.47,0.285 -5.333,0.448 -8.233,0.448c-1.684,0 -3.356,-0.055 -5.013,-0.163l0.226,0.012c-1.308,-0.096 -2.834,-0.151 -4.372,-0.151c-3.049,0 -6.048,0.216 -8.982,0.634l0.337,-0.039c-3.162,0.445 -6.175,0.888 -9.068,1.185c-2.893,0.297 -5.65,0.297 -8.289,0.297c-1.044,0 -3.013,0 -5.906,-0.297c-2.893,-0.297 -4.877,0.148 -5.919,1.185c0,0.443 0.133,1.331 0.387,2.665c0.269,1.334 0.402,2.222 0.402,2.816v21.921c0,3.702 -0.269,7.552 -0.788,11.699c0,5.335 -0.658,10.668 -1.971,16.146c-1.326,5.481 -2.504,11.11 -3.548,16.74c-2.912,17.233 -4.699,26.411 -6.581,35.553l1.453,-8.448c-1.851,9.183 -2.237,18.365 -1.193,27.845c1.057,5.187 1.981,10.222 2.757,15.258c0.791,4.89 1.193,9.777 1.193,14.515zM492.518,318.221c2.102,0 4.204,0 6.308,-0.297c1.899,-0.283 4.092,-0.444 6.322,-0.445h0.001c1.564,0.594 3.279,0.891 5.115,1.185c1.533,0.27 3.306,0.432 5.115,0.445h0.013c2.639,0 5.399,0.297 8.292,0.742c2.893,0.589 5.652,1.034 8.276,1.628c1.58,0 2.757,-0.148 3.548,-0.445c0.791,-0.297 1.193,-1.185 1.193,-2.816c-2.117,-2.074 -3.684,-4.293 -4.741,-6.515c-0.975,-2.159 -1.794,-4.686 -2.33,-7.316l-0.04,-0.236c-1.567,-4.15 -3.149,-8.148 -4.728,-12.147c-1.429,-3.346 -2.778,-7.396 -3.816,-11.569l-0.122,-0.578c-2.263,-5.114 -4.548,-11.462 -6.429,-17.982l-0.278,-1.126c-0.589,-1.306 -2.354,-7.752 -4.031,-14.234l-1.102,-5.019c-1.58,0 -2.893,1.628 -3.935,4.739c-1.06,3.11 -1.582,4.89 -1.582,5.478c-2.102,4.147 -4.086,8.294 -5.919,12.444c-1.969,4.53 -4.215,8.425 -6.837,12.03l0.124,-0.179c-2.624,3.553 -4.995,7.552 -7.096,11.699c-1.713,3.285 -3.571,7.435 -5.214,11.692l-0.306,0.901c-1.042,2.074 -1.833,3.999 -2.371,5.924c-0.522,1.777 -1.311,3.704 -2.355,5.778c-0.538,0.591 -1.06,1.48 -1.58,2.813c-0.522,1.185 -0.794,2.371 -0.794,3.405h21.297zM266.14,240.755h14.986c3.149,0 6.042,0.294 8.666,0.74c2.637,0.589 5.263,0.74 7.885,0.74c4.224,0 8.428,0.148 12.634,0.443c4.204,0.297 8.141,0.594 11.825,1.185c3.162,0.594 6.188,1.482 9.08,2.668c2.893,1.331 4.864,3.553 5.906,6.664c0.538,1.185 0.791,2.074 0.791,3.259v3.11c-0.522,2.074 -1.178,4.001 -1.971,5.778c-0.745,1.737 -1.178,3.759 -1.178,5.882c0,0.015 0,0.029 0,0.044v-0.002c0,9.925 0.12,19.996 0.389,30.218c0.284,10.81 1.562,21.154 3.748,31.158l-0.2,-1.091l1.178,2.371c0.269,0.591 0.927,1.037 1.984,1.628c1.582,0.445 3.028,0.888 4.339,1.185c1.313,0.297 2.491,0.594 3.551,1.185c1.58,0.445 3.279,1.185 5.128,1.925c1.836,0.742 3.551,1.631 5.115,2.668c1.582,1.185 3.43,1.925 5.532,2.368c2.104,0.594 4.206,1.334 6.308,2.371c1.044,0.594 3.028,1.185 5.921,1.925c2.893,0.891 6.963,1.482 12.211,2.074c-1.042,-0.591 -1.564,-1.037 -1.564,-1.628v-1.482c-0.444,-2.075 -0.865,-4.751 -1.159,-7.465l-0.034,-0.384c-0.29,-3.023 -0.706,-5.702 -1.262,-8.329l0.085,0.478c-0.522,-2.665 -1.06,-5.332 -1.582,-8.294c-0.483,-2.44 -0.769,-5.253 -0.788,-8.13v-0.016c-0.477,-1.771 -0.765,-3.809 -0.793,-5.909v-0.017v-12.145c0,-2.074 -0.251,-4.147 -0.773,-6.221c0,-2.222 -0.133,-4.147 -0.402,-5.924c-0.248,-1.694 -0.39,-3.649 -0.39,-5.637c0,-0.102 0,-0.203 0.001,-0.305v0.016c0,-4.593 -0.133,-9.48 -0.402,-14.515c-0.253,-4.89 -0.387,-9.777 -0.387,-14.367v-24.294c0.48,-1.411 0.767,-3.036 0.788,-4.726v-0.01v-4.741c0,-1.037 0.12,-2.074 0.389,-3.11c0.269,-1.039 -0.136,-1.779 -1.178,-2.371c-1.06,-0.594 -2.104,-0.888 -3.162,-1.185c-1.044,-0.297 -2.104,-0.297 -3.149,-0.297h-4.337c-1.329,0 -2.775,-0.297 -4.342,-0.888c-4.014,-0.461 -8.678,-0.731 -13.403,-0.742h-0.017c-4.726,0 -9.201,-0.294 -13.407,-0.74c-2.597,-0.378 -5.596,-0.594 -8.646,-0.594c-1.538,0 -3.064,0.055 -4.575,0.163l0.203,-0.012c-3.882,0.278 -8.42,0.439 -12.995,0.443h-9.879c-0.047,0 -0.102,0 -0.157,0c-3.429,0 -6.783,-0.323 -10.032,-0.941l0.333,0.053c-2.48,-0.456 -5.342,-0.725 -8.263,-0.74h-0.013c-2.893,0 -5.652,-0.297 -8.294,-0.742c-1.58,-0.589 -3.144,-0.888 -4.726,-1.183c-1.425,-0.282 -3.064,-0.444 -4.74,-0.445h-0.001c-1.044,-0.443 -1.969,-0.591 -2.76,-0.443c-0.788,0.294 -1.446,1.037 -1.966,2.074c-1.582,2.516 -2.627,5.627 -3.162,9.037c-0.522,3.405 -1.044,6.664 -1.567,9.774c-0.538,2.516 -1.06,5.332 -1.58,8.146c-0.522,2.962 -0.794,5.629 -0.794,8.294c1.582,0.445 3.418,0.594 5.519,0.297c2.102,-0.148 3.953,-0.297 5.532,-0.297z" /></svg>