<svg xmlns="http://www.w3.org/2000/svg" viewBox="0 0 940 944" width="940" height="944"><path d="M916.859,366.779c-0.296,-1.147 -0.625,-2.122 -0.848,-3.187l0.72,4.163c0.063,-0.255 0.127,-0.466 0.127,-0.975zM765.196,488.951c5.908,3.952 9.095,10.621 12.876,16.358c2.848,4.422 6.076,8.501 8.88,12.963c7.311,11.513 14.406,26.046 15.641,39.858c0.436,5.269 0.159,10.58 0.159,15.851c0,2.377 -0.35,4.972 0.159,7.266c3.358,-3.148 3.399,-9.65 4.928,-13.769c0.892,-2.548 2.892,-4.803 3.657,-7.353c0.668,-2.08 0.15,-4.336 0.509,-6.458c0.51,-3.187 1.187,-6.418 1.741,-9.605c0.705,-4.206 0.239,-8.708 0.239,-12.959c0.044,-5.653 -0.085,-10.072 -1.614,-15.553c-2.084,-7.31 -4.295,-13.215 -9.267,-19.079c-2.462,-2.931 -5.055,-5.825 -7.605,-8.712c-1.786,-2.041 -3.526,-4.037 -5.311,-6.036c-2.677,-2.933 -5.442,-5.737 -8.33,-8.414c-4.463,-4.164 -9.052,-8.159 -13.769,-11.984c-5.183,-4.206 -8.968,-9.179 -14.959,-12.493c-4.419,-2.378 -8.669,-2.296 -13.47,-3.526c-8.33,-2.168 -17.294,-1.357 -25.752,-2.677c-2.084,-0.3 -4.079,-0.975 -6.075,-1.402c-6.036,-1.231 -13.09,-0.339 -18.656,2.294c-3.741,1.741 -7.31,3.825 -11.175,5.227c-2.549,0.937 -5.142,1.147 -7.648,1.995c-4.122,1.49 -7.565,4.379 -11.517,6.291c-4.418,2.123 -8.84,1.357 -13.342,3.015c-4.251,1.618 -8.33,3.569 -12.493,5.271c-6.035,2.422 -12.199,4.081 -18.019,6.968c-15.98,7.694 -29.15,20.525 -36.333,36.759c-2.378,5.355 -6.291,9.773 -8.625,15.215c-2.167,4.844 -4.081,10.111 -5.61,15.254c-1.531,4.971 -2.295,10.198 -3.913,15.17c-1.53,4.972 -2.905,9.433 -3.144,14.744c-0.427,8.968 -1.064,17.848 -1.064,26.899c0,10.625 -1.104,21.672 1.275,32.126c2.638,11.561 7.904,21.972 12.454,32.807c3.569,8.458 9.135,15.936 12.493,24.477c3.143,8.286 6.586,16.954 11.641,24.349c0.937,1.403 2,2.761 3.187,4.036c2.167,2.423 4.844,4.422 7.648,6.08c3.104,1.824 5.654,2.548 7.522,5.819c1.829,3.187 2.254,2.849 5.697,1.574c5.609,-2.041 11.855,-1.658 17.465,-4.04c4.291,-1.824 7.904,-4.798 11.557,-7.648c4.888,-3.824 13.302,-8.031 14.744,-14.616c1.107,-5.015 -1.402,-10.708 -2.08,-15.724c-0.637,-4.674 -0.852,-9.944 -3.402,-14.151c-3.226,-5.267 -7.732,-8.453 -12.15,-12.62c-7.012,-6.629 -14.787,-11.091 -19.632,-19.8c-5.271,-9.476 -9.606,-19.165 -13.769,-29.153c-1.7,-4.163 -2.764,-8.414 -3.696,-12.788c-1.191,-5.653 -2.673,-11.179 -2.593,-17.043c0.084,-5.011 -0.426,-10.111 1.064,-14.999c1.402,-4.633 4.164,-8.924 6.032,-13.43c4.505,-11.091 10.286,-21.927 16.744,-32.038c7.903,-12.283 20.269,-24.947 34.209,-30.214c5.776,-2.168 11.386,-4.761 17.166,-6.928c7.055,-2.634 14.45,-4.38 21.716,-6.247c8.541,-2.21 16.063,-4.633 25.026,-3.868c7.863,0.637 14.532,4.08 21.034,8.203c5.568,3.57 12.027,4.845 17.507,8.459zM374.64,98.982c-5.525,1.617 -6.589,6.799 -10.796,9.776c-1.571,1.102 -3.526,1.485 -5.267,2.25c2.845,0.848 5.139,0.765 7.988,1.32c4.845,0.932 9.39,2.761 14.322,3.526c6.119,0.891 12.15,2.252 18.23,3.358c2.59,0.424 5.184,1.412 7.777,1.699c4.928,0.727 9.219,-0.038 14.107,1.447c3.442,1.104 4.888,2.721 7.86,4.462c2.338,1.32 4.844,2.169 7.266,3.271c7.055,3.148 13.939,7.394 20.397,11.689c5.608,3.697 11.943,5.099 17.636,8.581c3.016,1.829 6.203,3.444 8.924,5.697c2.083,1.698 3.697,3.865 5.653,5.694c2.079,1.829 4.589,2.848 6.756,4.506c2.079,1.657 3.781,3.655 5.693,5.522c3.525,3.53 7.948,7.055 10.242,11.601c3.355,6.462 5.649,13.939 6.713,21.162c0.427,3.187 1.105,5.824 1.064,9.095c-0.087,4.544 1.185,8.839 1.148,13.341c-0.08,3.996 -0.487,8.203 0.239,12.111c0.533,3.187 0.929,5.992 0.892,9.267c-0.088,4.374 -1.192,7.266 -2.765,11.218c-1.441,3.443 -0.509,7.012 -2.294,10.582c-2.08,4.036 -2.633,8.453 -5.183,12.366c-1.447,2.251 -3.398,4.08 -4.546,6.458c-1.531,3.271 -1.49,6.458 -2.04,9.86c-0.597,3.27 -1.828,6.668 -2.976,9.772c-2.084,5.525 -5.398,10.071 -8.37,15.126c-5.187,8.712 -9.562,17.808 -15.342,26.134c-7.521,10.964 -16.489,21.034 -24.306,31.789c-6.672,9.095 -13.301,18.186 -19.759,27.409c-9.777,13.896 -19.421,27.963 -27.154,43.133c-8.203,16.102 -8.713,34.42 -13.346,51.714c-4.418,16.401 -2.462,34.337 -2.462,51.248c0,17.549 1.359,35.058 3.06,52.523c1.315,13.896 1.486,28.429 4.673,41.986c3.824,16.191 11.135,31.445 19.461,45.723c2.976,5.056 7.394,8.967 9.179,14.661c1.573,4.716 2.976,9.604 4.422,14.405c1.996,6.585 2.167,13.851 5.649,19.931c1.658,2.888 4.079,5.566 7.139,6.796c3.06,1.234 5.227,2.765 7.992,4.677c1.697,1.147 3.058,1.568 5.011,2.167c1.618,-0.086 3.06,0.337 4.295,1.402c1.019,1.147 2.25,1.803 3.696,2.122c3.099,0.638 7.477,-0.127 10.621,-0.127h16.318c6.501,0 13.175,0.287 19.72,0.064c3.653,-0.128 7.096,-1.699 10.621,-2.55c3.02,-0.804 6.545,-1.912 9.394,-3.098c1.913,-0.807 3.654,-1.871 5.227,-3.146c2.123,-1.019 4.373,-1.995 6.585,-2.804c2.933,-1.359 5.61,-3.271 8.414,-4.845c3.696,-2.168 6.629,-1.021 10.497,-1.741c1.188,-3.442 -0.381,-7.82 -2.593,-10.497c-2.976,-3.527 -5.737,-6.714 -8.159,-10.709c-2.084,-3.271 -3.742,-6.924 -6.331,-9.856c-2.083,-2.339 -4.549,-4.252 -6.119,-7.012c-0.239,-0.424 -0.478,-0.835 -0.637,-1.233c-0.725,-1.57 -1.275,-3.229 -1.956,-4.845c-2.976,-6.712 -8.115,-12.66 -12.832,-18.059c-6.207,-7.139 -11.517,-14.107 -16.445,-22.138c-9.861,-15.853 -21.588,-32.086 -27.835,-49.763c-6.757,-19.167 -10.37,-40.074 -12.028,-60.3c-0.805,-10.369 -1.741,-20.779 -1.741,-31.189c0,-10.837 0.911,-21.546 1.191,-32.381c0.467,-19.167 5.865,-35.95 14.064,-53.248c3.569,-7.522 6.756,-14.279 11.561,-21.075c2.08,-2.932 4.12,-5.441 5.311,-8.884c2.679,-7.776 9.391,-13.979 13.813,-20.947c12.704,-20.058 25.707,-39.946 36.587,-61.152c10.538,-20.437 20.31,-40.835 22.055,-64.124c0.676,-8.836 0.932,-16.867 -2.849,-25.07c-3.697,-8.16 -6.585,-16.234 -9.645,-24.732c-5.781,-16.106 -11.433,-32.508 -22.397,-45.894c-5.776,-7.012 -11.768,-14.279 -17.887,-20.991c-5.442,-5.908 -11.689,-11.434 -18.191,-16.023c-8.541,-6.032 -18.314,-9.348 -28.257,-12.239c-7.988,-2.294 -15.724,-3.737 -23.031,-7.904c-5.481,-3.164 -10.115,-3.323 -16.66,-3.355c-9.856,-0.089 -19.461,-0.044 -29.321,-0.809c-5.609,-0.382 -11.257,-0.191 -16.867,-0.223c-3.569,0 -7.648,-0.659 -11.091,0.361zM165.761,453.17c3.996,8.797 9.816,16.318 16.063,23.584c6.712,7.733 14.577,14.916 23.202,20.441c10.454,6.757 20.736,13.471 32.17,18.398c9.051,3.912 17.211,7.183 24.688,13.557c5.016,4.29 9.435,9.134 13.813,14.023c5.904,6.629 11.43,13.215 16.784,20.27c3.614,4.673 6.756,8.498 8.968,13.979c3.059,7.522 3.867,13.94 3.908,21.971c0.043,5.863 1.912,9.943 -0.849,15.086c-1.4,2.716 -1.32,4.971 -1.32,8.031c0.044,7.69 -0.128,15.466 -1.614,23.032c-1.784,9.39 -4.761,18.529 -7.183,27.835c-0.255,0.931 -0.442,1.824 -0.681,2.716c-1.951,7.649 -3.824,15.087 -6.796,22.397c-0.765,1.996 -0.682,4.12 -1.191,6.119c-0.476,1.784 -0.557,3.098 -0.594,5.055c0,1.956 -0.343,4.124 1.103,5.737c1.104,1.229 3.103,2.676 4.418,3.696c1.362,1.147 2.55,1.316 4.123,1.995c3.059,1.36 4.717,3.613 8.077,4.337c6.247,1.402 12.621,1.911 18.74,3.696c6.374,1.828 12.279,5.06 18.74,6.673c2.762,0.733 4.885,0.86 7.817,0.892c1.618,0 3.232,0.274 4.805,-0.191c1.531,-0.425 2.677,-1.638 4.335,-1.999c3.187,-0.647 6.586,0.765 9.518,-0.679c1.063,-0.554 1.486,-1.479 2.721,-1.702c0.765,-0.159 2.124,0.452 2.761,0.032c1.957,-1.403 -0.299,-5.187 -0.808,-6.972c-0.932,-3.099 -1.798,-6.84 -1.996,-10.027c-0.318,-5.653 0.649,-11.345 -0.159,-17.039c-0.893,-6.502 -2.423,-12.963 -3.443,-19.465c-1.275,-8.286 -3.14,-15.553 -3.099,-24.094c0.04,-9.517 0.254,-18.995 -0.554,-28.468c-0.889,-10.88 2.043,-21.506 -0.041,-32.17c-0.636,-3.143 -2.08,-6.036 -2.589,-9.179c-0.398,-2.25 0.08,-4.506 0,-6.756c-0.255,-6.969 -3.569,-12.793 -5.824,-19.167c-1.952,-5.438 -3.443,-10.876 -6.669,-15.808c-2.084,-3.188 -4.804,-5.905 -6.844,-9.092c-2.336,-3.657 -4.59,-7.355 -7.096,-10.88c-4.25,-6.035 -9.688,-9.561 -14.959,-14.489c-2.677,-2.51 -5.438,-4.973 -8.581,-6.972c-3.187,-2.039 -6.756,-3.145 -9.943,-5.14c-2.211,-1.362 -3.996,-3.186 -6.036,-4.76c-5.693,-4.124 -12.749,-4.207 -19.123,-6.674c-4.419,-1.698 -9.223,-4.373 -13.47,-6.63c-2.804,-1.441 -5.099,-3.482 -7.82,-5.011c-3.398,-1.828 -6.968,-3.274 -10.326,-5.059c-5.693,-2.972 -11.517,-5.948 -16.955,-9.262c-12.792,-7.692 -23.628,-20.608 -31.954,-32.847c-3.741,-5.482 -5.609,-11.561 -8.374,-17.509c-2.423,-5.183 -5.056,-10.243 -6.331,-15.892c-2.423,-11.218 -3.358,-23.501 -1.064,-34.719c1.147,-5.608 1.808,-11.262 2.167,-16.955c0.255,-3.952 0.597,-7.988 2.167,-11.645c1.191,-2.762 2.976,-5.226 4.422,-7.817c4.8,-8.374 7.179,-17.892 11.812,-26.433c1.319,-2.466 3.908,-4.589 4.972,-7.183c-3.187,5.271 -8.713,8.12 -13.175,12.111c-2.079,1.829 -4.374,3.315 -6.414,5.227c-2.339,2.082 -3.952,4.761 -6.207,6.883c-12.577,11.944 -19.078,30.979 -22.349,47.723c-4.335,22.309 -5.78,46.447 1.275,68.247c1.147,3.654 2.887,6.84 4.207,10.41c1.785,4.845 2.549,9.817 4.673,14.534zM729.828,754.804c8.542,-10.792 15.98,-22.776 17.553,-36.759c0.637,-5.396 1.072,-10.793 1.231,-16.231c0.211,-4.972 2.721,-9.86 1.275,-14.832c-0.81,-2.761 -2.848,-5.528 -4.506,-7.988c-1.614,-2.382 -3.865,-4.078 -5.737,-6.29c-1.657,-1.913 -2.633,-4.421 -4.418,-6.291c-1.868,-2.041 -4.461,-3.272 -6.84,-4.801c-3.869,-2.423 -6.246,-5.611 -9.689,-8.371c-2.975,-2.383 -6.717,-3.657 -9.943,-5.697c-2.593,-1.613 -4.761,-3.78 -7.438,-5.227c-2.039,-1.147 -4.035,-1.785 -6.075,-3.098c-5.736,-3.824 -11.855,-2.894 -18.867,-2.894h-12.708c-2.462,0 -5.904,-0.533 -8.242,0.191c0,1.867 2.084,2.167 3.908,2.932c2.932,1.231 5.398,2.973 8.031,4.589c2.128,1.233 4.677,2.297 6.63,3.738c1.912,1.362 2.892,3.058 4.633,4.422c1.486,1.148 3.398,1.785 5.016,2.719c3.143,1.785 5.82,4.079 8.88,5.864c4.462,2.637 7.267,4.506 10.753,8.031c3.398,3.403 8.242,5.314 11.429,8.884c4.207,4.845 4.207,12.662 4.207,18.486c0,6.756 -2.294,12.365 -4.673,18.867c-2.128,5.864 -4.251,12.577 -7.865,17.931c-2.806,4.125 -5.609,4.846 -10.454,6.968c-6.159,2.677 -11.301,6.08 -17.931,8.031c-7.139,2.127 -14.705,3.529 -22.055,5.187c-7.095,1.66 -14.361,1.911 -21.544,3.355c-8.497,1.746 -17.038,3.613 -25.496,5.442c-47.722,10.199 -97.863,24.349 -147.836,20.27c-6.628,-0.51 -13.218,-1.447 -19.803,-2.339c-7.012,-1 -13.685,-0.65 -20.736,-0.809c-6.418,-0.166 -13.174,-1.02 -19.421,-2.333c-5.526,-1.109 -11.39,-1.019 -16.784,-2.511c-3.314,-0.931 -6.207,-2.806 -9.433,-3.908c-10.752,-3.698 -22.397,-1.403 -33.401,-3.825c-7.565,-1.657 -14.916,-4.079 -22.481,-5.653c-4.844,-1.06 -9.095,-2.806 -13.641,-4.801c-4.673,-2.123 -9.561,-3.104 -14.362,-4.717c-5.144,-1.658 -8.924,-4.545 -14.239,-5.61c-5.609,-1.191 -10.027,-4.289 -14.999,-7.139c-4.888,-2.677 -8.88,-5.82 -12.705,-9.86c-2.722,-2.804 -6.59,-6.584 -8.502,-10.027c-3.992,-7.479 -3.227,-17 -1.231,-24.86c1.231,-4.844 1.021,-11.601 3.443,-16.019c0.808,-1.446 2.083,-2.126 3.358,-3.187c3.526,-2.976 5.355,-7.565 7.777,-11.39c3.316,-5.355 7.35,-5.269 12.749,-7.605c5.055,-2.255 9.218,-5.316 13.895,-8.203c-0.808,-2.76 -4.08,-1.912 -6.374,-1.912c-4.206,0 -7.098,0.893 -10.923,2.085c-0.466,0.104 -0.977,0.306 -1.486,0.465c-7.096,2.212 -14.278,5.992 -20.991,9.39c-4.462,2.294 -9.178,4.165 -13.6,6.756c-5.777,3.359 -6.458,9.223 -8.414,14.916c-1.148,3.274 -2.805,6.036 -5.267,8.414c-2.381,2.422 -5.78,3.95 -7.947,6.589c-1.742,2.08 -2.587,5.31 -2.55,7.904c0.043,3.697 -0.385,7.733 0.08,11.386c0.427,2.765 1.148,5.654 1.618,8.541c0.478,2.637 0.167,5.271 0.637,7.904c0.55,3.53 3.059,7.738 4.418,11.052c1.191,2.888 2.338,5.225 4.462,7.561c4.972,5.355 8.458,11.773 13.43,17.171c3.353,3.735 7.095,6.967 10.748,10.365c2.977,2.849 5.57,6.077 8.502,9.051c2.717,2.721 5.183,5.398 8.454,7.31c4.294,2.55 9.095,4.376 13.513,6.585c9.394,4.845 18.613,8.16 28.389,12.028c8.582,3.398 16.573,6.757 25.453,9.262c7.733,2.167 15,4.589 22.055,8.585c4.718,2.677 9.435,5.183 14.534,7.095c6.502,2.508 13.003,4.633 19.294,7.648c5.737,2.765 11.43,3.913 17.633,5.143c8.967,1.785 17.848,3.525 26.688,5.864c9.39,2.467 17.975,2.499 27.664,2.467c9.943,-0.032 20.014,0.561 30.002,-0.159c9.009,-0.592 18.103,-2.167 26.983,-3.696c7.777,-1.358 15.128,-4.29 22.776,-6.075c8.159,-1.873 16.406,-2.255 24.477,-4.633c8.669,-2.55 17.466,-5.652 26.517,-6.713c7.609,-0.892 14.788,-2.805 22.098,-5.099c9.988,-3.147 20.481,-4.971 30.341,-8.414c8.243,-2.805 16.19,-6.418 24.094,-10.071c6.546,-2.976 13.004,-5.27 19.079,-9.179c7.864,-4.889 15.043,-10.924 21.887,-17.171c10.876,-9.983 21.883,-19.545 31.018,-31.062zM714.484,879.433c-2.127,1.363 -3.741,2.422 -5.143,3.314c0.594,0.089 1.829,-0.21 4.717,-2.205c0.442,-0.509 0.56,-1.02 0.681,-1.529c-0.08,0.133 -0.159,0.356 -0.239,0.42zM938.145,515.834l1.912,6.968l-2.677,6.928l-1.058,-0.223c-1.893,2.339 -1.575,4.334 -1.702,5.143c-0.848,-1.828 -6.928,13.17 -10.41,19.8l2.378,-1.823c-1.066,3.442 -2.251,6.54 -3.526,9.39c-0.682,1.446 -1.361,2.804 -2.04,4.079l-1.065,1.867l-0.637,1.02c-0.975,4.932 -1.867,9.433 -2.804,13.983c-0.877,4.844 -1.498,9.728 -1.275,15.082l1.613,11.728l-2.167,2.257c0.3,2.167 0.536,3.864 0.727,5.438c-0.637,2.593 -0.85,4.08 -1.529,6.075c-0.683,2.083 -1.703,4.549 -3.57,8.119c-6.334,11.768 -12.454,24.134 -17.509,37.01c-4.973,13.131 -9.944,26.389 -14.916,39.564l-5.82,8.075l-5.569,7.605c-3.781,5.015 -7.561,9.944 -11.474,14.704c0.637,-0.169 1.446,-1.016 3.104,-2.763c-3.781,3.868 -7.225,7.864 -9.988,11.39c-4.757,7.564 -8.414,15.213 -11.685,22.52c-1.657,3.657 -3.27,7.266 -4.888,10.88c-0.805,1.828 -1.697,3.652 -2.55,5.481l-1.315,2.721l-2.211,4.036c-1.785,1.191 -3.614,2.38 -5.399,3.613c-1.403,0.848 -2.845,1.785 -4.335,2.677c-2.932,1.741 -6.119,3.441 -9.518,5.009l1.402,-1.785c-13.175,8.84 1.402,-1.825 -8.924,3.402c-0.211,1.315 -2.593,3.444 -5.948,5.904c-1.658,1.192 -3.53,2.549 -5.442,3.913l-2.888,2.04l-1.486,0.975l-0.765,0.555c-0.681,0.892 -1.319,1.699 -1.956,2.55c-0.764,0.975 -1.447,1.912 -2.084,2.804c0.299,-0.764 0.937,-1.656 1.745,-2.721c0.722,-1.019 1.794,-2.377 1.953,-2.804c-0.804,0.127 -2.804,0.127 -5.354,3.741c-1.741,4.374 -5.521,9.983 -10.071,16.019c-2.335,2.932 -4.757,6.075 -7.223,9.179c-2.761,3.441 -5.482,6.884 -8.115,10.115c-1.235,0.765 -2.466,1.529 -3.657,2.294c-0.804,0.552 -1.657,1.103 -2.422,1.658c-2.507,-0.47 -15.255,5.311 -22.86,6.669c-1.148,1.363 -3.06,3.953 -4.805,6.335c-5.523,2.08 -8.924,4.927 -11.984,7.904c4.379,-2.637 8.286,-4.971 11.262,-6.756c-0.08,0.166 -0.159,0.293 -0.239,0.357c0.426,-0.383 1.19,-0.852 1.868,-1.32c2.975,-1.823 4.504,-2.792 3.696,-2.505c6.419,-1.912 0.299,1.319 1.618,2.721c-4.591,2.589 -13.641,8.624 -15.426,8.031c-2.721,1.613 -4.59,2.55 -7.522,4.035c-1.574,1.317 -3.275,2.551 -5.442,3.653l0.853,-0.72c-0.47,-0.065 -0.981,0.064 -1.49,0.191c-4.589,2.338 -9.6,6.079 -14.317,9.86c-2.256,1.957 -4.55,3.869 -6.63,5.61c-2.422,1.996 -3.104,2.887 -7.227,5.864c1.192,-0.975 2.04,-1.785 2.721,-2.422c0.606,-0.597 0.567,-0.746 0.765,-1.065c0.196,-0.519 0,-0.774 -0.398,-0.806c-0.426,-0.254 -3.271,1.02 -5.143,1.613c-1.486,-0.169 -2.556,-0.424 -2.677,-0.848c0.254,0 1.019,-0.032 2.338,-0.064c3.016,-1.869 10.497,-6.414 19.206,-11.685c-0.892,0.287 -1.698,0.462 -2.207,0.064c-3.147,1.275 -5.781,2.848 -8.374,4.589c-2.845,2 -5.692,4.04 -8.836,6.29c-1.574,0.173 -3.148,0.402 -4.845,0.593c-1.236,0.108 -2.55,0.3 -3.913,0.427c-2.718,0.255 -5.737,0.351 -9.092,0.319c1.019,-0.254 3.142,-0.803 2.294,-1.402c-5.824,-0.083 -11.135,1.702 -12.366,2.804c-1.574,-1.529 -14.195,-1.912 -20.314,-0.72c-1.701,0.554 -2.295,0.911 -2.721,1.23l-0.721,0.809c-0.382,0.255 -1.064,0.622 -1.701,1.02c-1.359,0.765 -3.355,1.657 -6.542,3.015l3.482,-2.846c-11.091,3.698 -8.031,5.393 -17.21,8.287c3.697,-1.049 3.53,-2.339 0.765,-1.447c-10.875,5.481 -10.875,6.163 -17.887,11.812l0.722,-2.333c-0.593,0.341 -1.275,0.663 -1.912,1.061c-1.019,0.556 -2.039,1.109 -3.103,1.658c-1.02,0.108 -2.079,0.3 -3.143,0.427l-2.084,0.398c-1.402,0.172 -2.844,0.446 -4.29,0.637c-2.804,0.465 -5.609,0.911 -8.115,1.102c-5.015,0.555 -8.76,0.6 -8.84,-0.465c3.486,3.526 -22.481,3.78 -31.405,3.653c3.06,-0.214 3.588,-1.02 3.868,-1.444c-9.35,1.539 -18.824,1.826 -28.429,1.826l-14.322,-0.159c-4.801,0.166 -9.518,0.51 -14.278,0.975l-3.226,-2.633c-9.988,1.06 -12.411,6.926 -23.246,7.777l3.781,-1.702c-5.438,0.593 -10.027,1.071 -12.788,1.358c-3.486,-0.593 -6.589,-1.149 -9.477,-1.658c-2.549,-0.465 -4.928,-0.93 -7.266,-1.402c-4.716,-0.976 -9.389,-1.913 -15.086,-3.143l0.637,-1.785c-2.762,-0.083 -5.777,-0.401 -8.753,-0.72c-3.486,-0.382 -6.927,-0.62 -10.071,-0.981c-0.382,-0.146 -0.705,-0.306 -1.103,-0.465c-0.383,-0.299 -0.765,-0.573 -1.191,-0.892l-0.765,-0.682c-0.466,-0.421 -1.02,-0.803 -1.614,-1.23c-1.148,-0.847 -2.466,-1.743 -3.952,-2.594c-2.931,-1.74 -6.461,-3.525 -10.326,-5.354c-7.481,-3.4 -16.106,-7.434 -24.604,-11.347c-1.872,-0.338 -3.825,-0.701 -5.697,-1.058c-2.25,-0.472 -4.461,-0.983 -6.585,-1.492c-4.29,-1.148 -8.329,-2.379 -11.899,-3.908l-2.08,3.271c-3.53,-0.676 -7.395,-1.358 -11.091,-2.04c-1.785,-0.297 -3.569,-0.721 -5.187,-1.148c-0.975,-0.255 -1.825,-0.52 -2.633,-0.679c-1.358,-0.382 -2.593,-0.745 -3.696,-1.106c-1.995,-1.823 -3.616,-3.525 -3.696,-4.29l2.124,1.658c0.681,-0.382 0.171,-1.148 -0.721,-2.04c-0.637,-0.593 -1.741,-1.358 -3.016,-2.167c-2.638,-1.615 -6.035,-3.525 -8.119,-5.399c-3.57,-2.336 -8.031,-3.442 -5.394,-0.803c-3.148,-2.722 -6.63,-5.572 -10.326,-8.459c-3.231,-2.55 -6.628,-5.183 -10.071,-7.86c-3.868,-1.063 -7.777,-2.21 -11.561,-3.275c-4.246,-1.231 -8.414,-2.42 -12.322,-3.609c-7.732,-2.383 -14.406,-4.678 -18.784,-6.972c-2.334,-0.509 -4.589,-1.057 -6.585,-1.529c-1.02,-1.403 -1.996,-2.805 -3.06,-4.207l-2.211,-3.015c-1.315,-1.702 -2.633,-3.358 -3.908,-5.016c-2.593,-3.27 -5.098,-6.502 -7.648,-9.728c-2.506,-3.23 -4.972,-6.502 -7.565,-9.86c-2.252,-3.016 -4.546,-6.163 -7.012,-9.477c-0.041,-0.063 -0.041,-0.063 -0.159,-0.127l-1.148,-0.975c-0.765,-0.683 -1.573,-1.403 -2.338,-2.085c-1.614,-1.4 -3.231,-2.889 -4.928,-4.374l0.509,-0.127c-6.163,-6.164 -18.573,-18.484 -16.533,-20.613c-14.406,-11.857 -25.752,-16.995 -41.261,-32.891l4.335,2.382c-1.021,-1.11 -2.251,-2.295 -3.614,-3.443c-1.697,-1.363 -3.441,-2.765 -5.011,-4.04c-0.597,-0.931 -1.553,-2.362 -1.912,-2.76c-0.383,-0.554 -0.75,-1.064 -1.148,-1.529c-0.681,-0.892 -1.259,-1.613 -1.618,-2.04c-0.892,-1.702 0.344,-0.765 0.853,-0.765c-1.785,-5.101 -4.76,-7.012 -7.139,-10.582l1.741,0.975c-3.485,-8.159 -9.688,-17.76 -16.19,-27.959c-6.119,-10.371 -12.665,-21.25 -17.676,-31.533c2.183,3.614 2.183,1.102 1.824,-0.593c-1.019,-0.98 -2.123,-2.255 -3.226,-3.784c-0.598,-0.764 -1.148,-1.613 -1.785,-2.422c-0.638,-1.018 -0.98,-1.442 -2.211,-3.609c-1.02,-2.933 -2.084,-6.163 -3.187,-9.394c-0.937,-3.016 -1.869,-6.03 -2.761,-8.924c-1.745,-5.776 -3.274,-11.003 -4.506,-14.234l2.849,5.271c-2.255,-5.527 -3.148,-9.224 -3.57,-12.239c-0.28,-1.49 -0.361,-2.803 -0.398,-4.167l-0.118,-1.954l-0.08,-1.02l0.08,-0.398c-0.043,-0.157 0.041,-0.128 -0.08,-0.555c-0.183,-0.424 -0.263,-0.832 -0.422,-1.23c-0.343,-0.854 -0.726,-1.746 -1.235,-2.721c-0.892,-1.996 -2.167,-4.292 -3.952,-7.055l2.892,10.326c-2.765,-6.968 -6.119,-12.408 -6.673,-10.199c-2.804,-8.242 1.785,-2.039 -3.696,-13.979c0.638,-0.935 4.76,8.203 3.952,3.825l-5.78,-17.382h-0.037c-0.161,-0.465 -0.2,-0.764 -0.359,-1.313l0.359,1.23c0,-0.256 -0.17,-0.81 -0.597,-1.785c-0.465,-1.02 -1.06,-2.209 -2.589,-5.183c-0.041,-0.599 -0.079,-1.53 -0.159,-2.55c-4.099,1.443 -0.68,-15.131 -4.418,-5.952c-0.277,-7.351 -0.314,-14.363 -0.277,-21.203c0.038,-6.588 0.081,-13.046 0.118,-19.337c-0.339,-2.207 -0.701,-4.46 -1.02,-6.669l-1.191,-7.1c-0.805,-4.672 -1.825,-9.262 -3.016,-13.895c0.518,-1.995 0.518,-5.055 0.159,-8.625c-0.127,-1.742 -0.358,-3.615 -0.597,-5.61c-0.295,-2.168 -0.657,-4.462 -0.976,-6.674c0.382,-3.101 0.784,-6.205 1.103,-9.092c0.344,-2.677 0.726,-5.099 1.148,-7.139c0.765,-4.04 1.745,-6.462 3.187,-5.653c1.43,-12.45 1.175,-22.692 0.239,-30.596c-0.828,2.423 -0.509,5.692 -0.509,8.242c-1.274,-3.482 1.191,-18.397 2.128,-24.604c-0.121,8.33 -1.455,21.545 0.118,28.301c0.159,-2.845 0.28,-5.993 0.398,-9.219c0.239,-3.147 0.478,-6.417 0.637,-9.521c0.34,-6.203 0.69,-11.769 0.849,-14.956l3.103,-2.467c-0.427,-9.773 3.398,-7.606 2.334,-17.466l-1.06,1.613c0.295,-1.785 0.562,-3.443 0.721,-4.845c4.08,-13.17 2.423,-14.955 6.801,-29.15l0.765,1.02c1.104,-2.633 1.658,-6.075 2.55,-9.477c0.383,-1.658 0.849,-3.357 1.486,-4.845c0.338,-0.765 0.638,-1.485 1.064,-2.167c0.51,-0.765 0.977,-1.53 1.486,-2.25l-3.443,10.537c1.828,-0.466 4.461,-5.648 6.585,-9.473c0.638,-0.81 1.048,-1.32 1.446,-1.747c5.182,-10.016 -0.681,-4.929 1.956,-9.984c2.717,-1.191 1.102,-0.044 0.637,4.207c5.737,-11.22 13.596,-26.35 16.102,-35.23c0.395,-0.082 0.591,0.331 0.554,0.427l0.427,-0.765c0.338,-1.32 0.655,-2.595 0.932,-3.825c0.298,-1.491 0.612,-2.976 0.892,-4.378c0.471,-2.889 0.937,-5.693 1.363,-8.287c0.848,-5.227 1.74,-9.86 3.398,-13.43l-0.398,2.55c1.485,-2.761 2.506,-6.119 3.314,-9.562c0.382,-1.74 0.784,-3.525 1.103,-5.183c0.151,-0.851 0.352,-1.702 0.47,-2.467c0.256,-1.186 0.564,-2.296 0.765,-3.398c0.849,-1.276 1.696,-2.424 2.422,-3.526c0.594,-0.81 1.147,-1.492 1.697,-2.085c1.107,-1.148 2.211,-1.772 3.187,-1.613c3.588,-3.612 -6.651,9.18 -0.277,3.865c10.111,-12.024 2.932,-10.581 11.856,-21.075c-1.191,1.428 -0.6,1.106 -0.637,1.826c5.521,-8.243 12.876,-19.25 18.995,-28.385c6.757,-5.526 13.808,-16.656 21.839,-27.708c6.674,-5.903 12.282,-10.491 17.892,-13.341c-4.59,2.124 1.785,-3.91 1.358,-4.378c0,0 -0.167,0.659 0.427,0.468c4.291,-3.614 3.908,-5.143 5.099,-6.972c3.144,-1.613 6.967,-6.458 10.497,-10.111c1.868,-1.574 2.761,-2.278 3.653,-2.639c-0.467,-0.805 3.314,-3.27 7.35,-6.247c-7.521,6.798 -1.442,3.485 -4.207,7.353c12.41,-8.501 11.518,-13.473 24.565,-22.182l7.988,-3.696c-0.128,-3.231 12.282,-10.835 11.429,-11.434c2.677,-0.931 6.181,-2.805 6.461,-1.358c4.673,-4.206 13.087,-8.625 14.278,-11.429l-5.442,3.098c2.256,-1.486 4.379,-2.971 6.335,-4.418c2.252,-1.702 4.335,-3.316 6.331,-4.845c0.976,-0.341 1.956,-0.708 2.932,-1.065l1.912,-0.765c1.274,-0.548 2.505,-1.061 3.696,-1.529c2.466,-1.058 4.801,-1.995 7.139,-2.932c4.718,-1.869 9.35,-3.482 14.661,-4.502l0.937,3.865c6.247,-0.892 11.601,-3.862 16.358,-5.819c2.422,-1.319 5.57,-2.636 8.669,-3.104c-3.272,0 -3.738,0.682 1.529,-3.143c-2.506,0.892 -6.798,3.399 -10.494,5.398c-1.107,0.423 -2.976,1.102 -4.462,1.529c1.402,-0.727 3.271,-1.619 4.163,-2.212c1.785,-1.359 4.59,-3.144 6.801,-4.673l-7.139,3.738l-11.262,4.335c7.988,-4.246 7.522,-3.699 3.57,-4.119c1.446,-0.599 2.761,-1.131 3.952,-1.529c0.638,-0.201 1.232,-0.44 1.741,-0.599c0.598,-0.202 1.148,-0.393 1.148,-0.361c1.276,-0.426 2.383,-0.745 3.443,-1.102c1.191,-0.427 2.422,-0.748 3.657,-1.109c2.462,-0.892 5.183,-1.996 9.051,-4.374c4.207,-1.318 0.677,1.869 5.564,0.549c7.905,-4.884 17.084,-5.692 23.075,-8.963c0.637,-0.47 1.74,-1.234 2.466,-1.999c1.952,-0.636 -1.657,1.193 -2.422,2.085c-0.196,0.157 -0.357,0.428 -0.159,0.555c0.121,-0.032 0.2,-0.127 0.28,-0.159c5.482,-3.398 9.901,-5.654 11.004,-7.605l-5.438,2.46c4.634,-2.379 4.59,-4.247 13.769,-8.199c4.59,-3.549 6.501,-6.883 1.02,-3.868c2.084,-1.448 7.522,-3.187 6.374,-1.192c5.82,-3.188 7.478,-4.97 8.585,-6.414c0.51,-0.727 0.932,-1.403 1.697,-2.04c0.892,-0.807 1.146,-1.061 5.059,-3.146c1.104,-0.111 2.379,-0.318 3.825,-0.509c0.805,-0.063 1.784,-0.095 2.804,-0.127c-0.98,0.3 -2.04,0.682 -1.446,0.809c3.74,-0.337 6.8,-0.848 9.306,-1.485c-13.174,2.507 4.888,2.423 -11.262,4.374c2.637,1.746 11.984,-1.536 17.171,-1.568c7.307,-2.638 0.295,-3.147 3.952,-4.805c0.039,0.689 3.144,0.202 6.84,-0.159l-3.825,-0.981c3.144,-0.552 6.247,-0.975 9.9,-2.04l-6.159,1.702c2.422,-0.299 5.31,-0.428 8.541,-0.555c1.613,-0.032 3.354,-0.159 5.099,-0.223c0.893,-0.064 1.785,-0.159 2.761,-0.223l1.402,-0.127l2.167,-0.361c1.064,0.064 2.211,0.127 3.314,0.191c0.809,0 1.657,0.032 2.506,0.032c1.745,0.032 3.486,-0.032 5.315,-0.159c-3.232,0.51 -9.689,1.491 -1.618,2.677c13.258,-0.338 3.02,0.851 10.454,2.422c13.131,0.254 2.382,-2.76 21.76,-0.848c2.08,0.127 0.212,-0.892 -1.872,-1.447c1.829,0.181 3.529,0.341 5.187,0.468c1.868,0.166 3.61,0.293 5.311,0.357c3.997,1.021 7.606,1.872 11.474,2.85c3.569,0.931 7.35,1.996 11.729,3.525c-5.311,-1.744 -9.39,-3.314 -1.868,-2.212c-3.44,0.47 9.945,3.742 14.534,5.737l1.486,-0.42c3.653,1.785 -0.555,1.102 -3.781,0.593c0.167,-0.255 -0.893,-0.81 -3.231,-1.275c-6.33,-0.975 -4.844,2.595 4.845,5.311c10.581,1.915 9.433,-0.593 7.86,-1.823c0.852,0.255 1.701,0.529 2.466,0.72c0.467,0.17 0.849,0.297 1.275,0.361c0.936,-0.21 3.442,-0.766 4.801,-1.275c1.574,-0.511 2.892,-1.104 4.251,-1.613c2.804,-1.102 5.908,-2.059 11.899,-2.25c3.143,-0.382 13.895,1.571 23.879,0.679c4.888,-2.52 -12.493,0.128 -6.968,-2.122c1.829,0.268 3.614,0.395 5.438,0.427c1.872,0 3.359,-0.037 6.502,-0.398l3.402,0.892l2.506,0.509c1.657,0.293 3.398,0.605 5.143,0.892c3.441,0.469 7.052,1.022 10.748,1.571c7.354,1.063 15.17,2.465 23.246,5.525l-3.231,1.529c2.421,0.637 4.804,1.275 7.266,1.912c1.403,0.937 2.805,1.829 4.295,2.804c1.275,0.765 2.589,1.575 3.952,2.378l-5.78,-5.183c4.845,2.55 14.406,9.224 10.283,8.625c10.581,4.677 12.027,6.844 20.652,13.091c-9.389,-6.247 0,-0.382 -7.561,-3.825c4.206,3.271 6.756,5.056 9.007,6.414c1.064,0.681 2.083,1.236 3.231,1.829c0.932,0.51 1.912,1.02 3.143,1.702c0.338,0.032 0.892,0.095 1.486,0.159c-1.53,0.469 2.382,2.64 5.442,3.443c7.816,0.383 20.48,3.787 31.062,5.61l-0.159,0.599c3.528,0.721 6.078,1.317 10.835,2.55l4.506,4.63l11.685,12.454c5.27,5.521 10.669,10.835 16.445,15.381c0.3,0.195 0.567,0.434 0.765,0.593l-0.932,-1.148c-1.574,-2.887 1.314,-0.592 4.374,2.085c3.657,2.251 9.649,6.501 12.111,7.693c0.682,1.149 0.598,2.207 3.148,4.036c1.276,-1.529 6.287,3.232 8.924,3.952c4.673,4.207 -1.999,1.486 6.713,7.605c3.442,2.256 4.469,1.701 4.506,0.809c0.721,1.064 1.442,2.04 4.207,4.462c0.765,1.402 1.658,3.017 2.55,4.633c0.892,1.403 1.698,2.805 2.506,4.163c-1.485,-1.274 -2.721,-4.208 -3.525,-5.183c-1.278,0 1.185,2.889 0.037,3.609c2.721,4.168 2.677,0.597 5.697,6.119l-4.633,-3.865c1.103,2.294 3.486,4.5 4.29,5.481c-1.275,-1.511 -2.167,-1.861 -2.804,-1.702l4.251,6.075c1.768,0.087 0.298,-5.215 1.529,-5.438c6.884,11.983 14.616,19.676 20.951,28.257l-2.721,-0.509c3.359,3.952 5.227,5.736 6.968,6.756l4.805,6.461c-3.315,-3.379 -4.717,-4.207 -6.119,-3.57c5.565,6.501 12.151,16.124 15.465,16.485l-0.55,-0.032c6.203,9.472 19.462,29.224 18.397,29.065c6.501,7.944 13.219,18.908 16.19,21.075c0.51,0.287 1.179,0.542 1.402,0.319c5.314,5.016 10.115,16.192 15.896,18.059c4.503,7.565 -0.171,0.765 -3.314,0c4.502,7.564 13.426,11.389 12.661,15.851c7.481,6.883 -1.021,-2.211 2.422,-0.682c-0.337,1.108 0.555,2.805 2.467,5.187c1.232,6.542 4.589,15.764 5.016,22.565c2.336,3.783 -0.299,-4.377 2.932,2.336c-1.019,-0.467 -0.171,3.315 0.256,5.227l2.46,1.32l-1.741,7.223l2.253,8.626c0.893,0.746 1.192,-0.318 1.785,0.191c0.597,0.594 1.317,2.505 2.891,9.306l-0.398,-1.102c-1.146,5.437 3.99,13.042 4.845,26.811c-0.426,-4.673 -1.364,-1.696 -2.167,-3.06l2.167,7.353c-0.222,-0.615 -0.445,-0.911 -0.509,-0.191c-0.256,4.845 0.765,5.698 1.402,8.502c0.337,0.977 0.701,2.551 0.892,4.845c-0.727,-1.956 -1.32,-2.913 -1.785,-3.104l2.887,10.37l1.148,2.294l-0.765,-0.682l9.263,33.317l-4.546,48.4l0.191,1.102c0.217,0.095 0.446,0.127 0.637,0.159l1.829,6.801c1.051,-0.426 0.708,-5.27 0.159,-8.33c0.167,-2.977 5.521,10.497 7.35,17.974c3.697,20.353 -2.804,4.928 -0.892,18.951l1.741,5.78z" /></svg>