<svg xmlns="http://www.w3.org/2000/svg" viewBox="0 0 953 960" width="953" height="960"><path d="M560.484,888.506c0.006,0.009 0.01,0.016 0.02,0.026c-0.098,0.041 -0.103,0.025 -0.02,-0.026z" /> <path d="M622.858,860.75c0.097,-0.09 0.139,-0.109 0.157,-0.109c-0.063,0.047 -0.09,0.059 -0.157,0.109z" /> <path d="M758.384,721.886c-1.103,0.855 -1.849,1.448 -2.423,1.837c0.804,-0.62 1.608,-1.245 2.423,-1.837z" /> <path d="M427.768,0.521v0.012h0.061c1.137,0.143 2.287,0.226 3.468,0.353l2.999,0.175c1.41,0.03 2.832,0.03 4.291,0c-3.257,0.389 -9.799,1.058 -1.708,2.646c13.4,0.166 3.056,0.941 10.464,2.823c13.267,0.833 2.512,-2.668 21.989,0.117c2.1,0.212 0.21,-0.888 -1.882,-1.529c4.495,0.678 8.734,1.097 11.818,1.29c6.551,0.084 12.955,-0.057 21.343,0.88c-5.689,-0.516 -10,-1.076 -2.294,-1.765c-3.34,1.286 10.573,1.41 15.58,2.353l1.351,-0.822c4.021,0.946 -0.229,1.247 -3.528,1.47c0.09,-0.308 -1.087,-0.559 -3.526,-0.529c-6.422,0.555 -4.107,3.642 5.998,4.114c10.871,-0.639 9.117,-2.731 7.23,-3.584c1.371,0.094 2.569,0.175 3.641,0.175c1.238,0 2.324,-0.058 3.352,-0.058c1.666,0.256 2.29,0.262 3.233,0.292c0.814,0.03 1.685,0.03 2.411,0c1.504,-0.065 2.774,-0.169 4.233,-0.234c2.869,-0.088 6.104,0.078 11.583,1.706c3.127,0.554 12.848,5.768 22.696,7.997c5.433,-0.813 -12.107,-3.748 -6.115,-4.172c3.898,1.878 7.946,3.275 12.229,3.879c4.366,0.556 8.838,0.751 13.463,0.88c9.331,0.302 19.27,0.392 29.928,3.174l-2.999,1.882c2.439,0.427 4.838,0.717 7.405,1.117c1.501,0.771 3.063,1.583 4.647,2.353c1.374,0.648 2.795,1.3 4.291,1.941l-6.349,-4.527c5.093,1.971 15.467,7.625 11.23,7.466c11.128,3.514 12.86,5.57 22.282,10.878c-10.188,-5.225 -0.05,-0.401 -8.056,-3.057c4.409,2.742 7.113,4.253 9.465,5.41c1.155,0.514 2.252,1.002 3.409,1.47c1.244,0.472 2.515,0.948 4.055,1.589c0.598,0.43 1.488,1.149 2.472,1.882c-1.54,-0.302 0.97,3.471 3.409,5.527c6.805,3.98 16.663,12.882 25.396,19.342l-0.41,0.471l3.528,2.823l2.997,2.586c3.508,1.111 6.929,2.266 10.525,3.468l11.288,3.762c7.536,2.439 15.059,4.674 22.637,5.998c0.383,0.065 0.752,0.204 1.115,0.234l-1.589,-0.588c-2.228,-1.684 -0.552,-1.626 5.998,0c1.883,2.357 4.094,5.209 6.231,7.821c1.8,2.229 3.473,4.279 4.586,5.351c0.298,1.324 -0.062,2.297 1.825,4.822c1.708,-1.028 5.095,5.029 7.405,6.525c3.209,5.437 -2.378,0.848 4.172,9.407c2.649,3.257 3.755,2.96 4.115,2.06c0.168,1.065 1.434,3.578 2.292,5.291c1.195,1.626 3.811,4.322 5.82,6.29c-1.799,-0.939 -3.619,-3.521 -4.647,-4.291c-1.246,0.302 1.791,2.626 0.763,3.526c3.639,3.555 2.803,0.03 6.997,4.822l-5.412,-2.823c1.588,2.011 4.442,3.638 5.47,4.408c-1.587,-1.131 -2.52,-1.28 -3.116,-1.057l5.468,5.115c1.784,-0.297 -0.845,-5.084 0.352,-5.644c4.197,4.624 8.414,8.26 12.522,11.641c2.055,1.63 4.129,3.282 6.056,4.822l2.882,2.353l3.291,2.763l2.411,3.233l-2.704,-0.703c3.172,4.154 4.892,6.062 6.644,7.171l4.527,6.761c-3.166,-3.494 -4.587,-4.432 -5.998,-3.879c5.31,6.85 11.58,16.856 14.875,17.284l-0.469,-0.058c5.524,10.105 19.206,29.82 18.049,29.691c7.834,9.504 15.779,23.067 18.051,21.87c4.838,5.523 8.737,17.186 14.346,19.58c3.894,7.962 -0.207,0.716 -3.291,-0.352c3.94,8.006 12.514,12.616 11.405,17.111c7.189,7.837 -0.895,-2.454 2.53,-0.527c-0.428,0.853 0.222,2.407 1.29,4.289c0.129,6.676 2.645,17.303 2.177,24.752c1.883,4.064 0.296,-4.402 2.647,2.704c-0.915,-0.602 -0.605,3.307 -0.412,5.234l2.294,1.648l-2.647,7.113l1.174,8.35l0.117,0.352c2.228,1.586 0.317,-4.425 6.997,8.29l-0.705,-0.941c0.258,5.605 7.3,11.717 11.583,24.988c-1.588,-4.492 -1.725,-1.36 -2.882,-2.469l3.998,6.642c-0.403,-0.591 -0.717,-0.814 -0.588,0c0.9,4.283 1.874,4.977 3.116,7.114c0.551,1.503 1.011,3.031 1.234,6.115c-0.689,-2.054 -1.341,-2.923 -1.765,-3.116l2.823,10.464l1.174,2.231l-0.763,-0.644l8.821,32.926l-9.994,49.093l0.352,1.115c0.212,0.064 0.51,0.087 0.703,0.117l2.353,6.7c0.99,-0.56 0.298,-5.431 -0.471,-8.467c-0.084,-2.999 6.277,10.174 8.763,17.58c5.221,20.289 -2.53,5.165 0.469,19.166l2.413,6.173l1.115,3.057v-0.175l1.41,3.937l-0.644,3.641l-0.352,2.706h-1.174c-1.367,2.742 -0.559,4.552 -0.529,5.41c-1.238,-1.629 -4.047,14.533 -6.056,21.811l1.942,-2.353c-1.836,21.108 -10.866,31.454 -12.875,47.977l-0.234,11.876l-2.472,1.942c0,1.629 -0.115,2.957 -0.115,4.114c-0.343,4.409 -0.281,6.991 -3.409,15.169c-2.138,5.222 -4.188,10.496 -6.115,15.933l-2.823,8.114l-2.823,8.702c-9.588,14.769 -17.416,27.98 -26.751,42.92l-7.114,6.995l-6.7,6.7c-4.542,4.325 -9.091,8.648 -13.758,12.756c0.273,-0.036 0.616,-0.224 1.044,-0.515c-3.673,2.836 -7.159,5.86 -9.689,8.215c-4.413,7.106 -8.198,15.012 -11.407,22.165c-1.587,3.641 -3.234,7.224 -4.822,10.82l-2.411,5.412l-1.351,2.704l-2.116,3.937c-1.669,1.284 -3.424,2.535 -5.176,3.821c-1.41,0.939 -2.832,1.912 -4.291,2.94c-2.954,1.927 -6.04,3.787 -9.465,5.585l1.293,-1.823c-12.844,9.545 1.368,-1.946 -8.819,3.879c-0.255,3.385 -15.759,13.038 -22.224,19.758c0.817,-1.286 3.305,-3.214 5.232,-5.176c-1.712,0.644 -3.128,-0.093 -6.466,3.116c-2.439,3.725 -6.779,8.15 -11.876,12.817c-2.611,2.228 -5.271,4.556 -8.056,6.995c-2.611,2.182 -5.254,4.46 -7.821,6.644c-1.883,2.482 -3.636,4.899 -5.349,7.171c-2.483,0.424 -12.695,10.319 -19.461,14.17c-0.6,1.673 -1.597,4.796 -2.411,7.704c-1.585,1.286 -2.869,2.563 -3.937,3.937c-0.644,0.771 -1.265,1.623 -1.825,2.353c-0.689,0.936 -1.359,1.863 -2,2.763c-1.799,0.69 -4.208,1.605 -5.41,2.294l5.881,-1.589l6.936,-8.469c-0.032,0.183 -0.063,0.342 -0.063,0.471c0.254,-0.471 0.803,-1.202 1.234,-1.884c1.923,-2.322 3.021,-3.781 2.922,-3.811c5.08,-3.752 0.581,1.325 2.312,2.168c-1.325,1.632 -3.334,3.947 -5.176,6.173c-0.943,1.156 -1.842,2.205 -2.704,3.233c-1.54,1.748 -2.948,3.238 -4.057,4.348c-1.929,0.391 -3.2,0.512 -3.76,0.353c-3.086,0.753 -3.621,0.886 -5.117,1.174c-1.323,0.255 -2.663,0.534 -4.289,0.822c-1.885,0.773 -4.051,1.453 -6.409,1.884l0.999,-0.412c-0.42,-0.128 -0.898,-0.145 -1.41,-0.175c-4.925,0.86 -10.519,2.816 -15.874,5c-2.697,1.114 -5.333,2.205 -7.819,3.233c-1.235,0.559 -2.441,1.117 -3.643,1.589c-0.516,0.254 -1.036,0.51 -1.589,0.703c-0.032,0.119 -0.058,0.287 -0.058,0.352c-0.031,-0.119 -0.058,-0.257 -0.058,-0.352c-0.03,-0.512 0.129,-1.063 0,-1.351c-0.255,-0.295 -0.467,-0.483 -0.939,-0.642c-0.254,-0.379 -2.508,0.428 -2.92,-0.208c0.097,-0.042 0.286,-0.14 0.565,-0.322c0.344,-0.165 0.938,-0.525 1.708,-0.997c3.768,-0.942 10.339,-2.706 17.872,-4.588c-1.028,0.042 -1.716,-0.074 -2.116,-0.586c-3.127,0.258 -5.887,0.878 -8.584,1.648c-1.374,0.424 -2.683,0.935 -4.057,1.407c-1.413,0.423 -2.956,1.005 -3.468,1.293l-0.999,0.763l-1.589,1.234c-1.194,0.855 -2.355,1.643 -3.641,2.586c-2.53,1.713 -5.391,3.568 -8.819,5.41c0.77,-0.728 2.377,-2.163 1.349,-2.292c-5.221,2.784 -9.029,6.843 -9.582,8.469c-1.07,-0.339 -4.433,0.938 -8.114,2.821c-1.884,0.942 -3.787,2.116 -5.585,3.233c-0.862,0.599 -1.76,1.077 -2.53,1.589c-0.984,0.726 -1.89,1.464 -2.704,2.06c-0.15,0.094 -0.322,0.262 -0.352,0.292c-3.429,1.153 -4.444,1.719 -6.115,2.233c-1.671,0.514 -3.92,0.908 -8.76,1.468l4.172,-1.765c-11.817,0.469 -9.325,2.923 -19.047,3.116c3.851,0 4.03,-1.244 1.115,-1.115c-12.113,2.181 -12.296,2.9 -20.814,6.408l1.41,-2.116c-9.723,1.98 -27.665,5.31 -29.972,3.526c0.521,1.092 -1.758,1.847 -5.363,2.353c-1.97,0.3 -4.411,0.544 -6.936,0.703c-2.399,0.119 -4.926,0.223 -7.407,0.352c-4.413,0.682 -8.578,1.275 -11.23,1.706c3.035,-0.644 3.539,-1.59 3.762,-2.058c-6.549,2.098 -13.225,3.606 -19.991,4.763l-10.17,1.589l-10.761,1.531l-8.702,0.352l-8.409,0.527l-3.235,-2.646c-10.148,0.813 -12.647,6.679 -23.694,7.405l3.937,-1.706c-4.584,0.385 -8.694,0.864 -10.878,1.057c-3.807,-0.77 -7.159,-1.457 -10.287,-2.058c-2.782,-0.556 -5.348,-1.09 -7.879,-1.65c-5.047,-1.111 -9.929,-2.211 -16.05,-3.585l0.703,-1.823c-2.483,-0.09 -5.212,-0.475 -7.997,-0.763c-2.912,-0.343 -5.887,-0.694 -8.584,-1.057c-1.883,-0.462 -2.099,-0.485 -2.999,-0.644c-3.51,-2.828 -9.935,-5.407 -17.815,-7.938c-3.892,-1.197 -8.288,-2.512 -12.696,-3.879c-2.182,-0.689 -4.418,-1.315 -6.644,-2l-7.405,-2.469c-2.44,-1.323 -4.838,-2.549 -7.232,-3.879c-2.141,-1.2 -4.215,-2.537 -6.231,-3.823c-4.115,-2.571 -7.889,-5.215 -11.054,-7.997l-2.999,2.411c-2.742,-1.497 -5.787,-3.175 -8.702,-4.763c-1.446,-0.817 -2.8,-1.655 -4.174,-2.469c-1.239,-0.727 -2.986,-1.852 -2.763,-1.882c-0.21,-0.212 0.112,-0.16 -0.529,-0.353c-0.512,-0.253 -0.951,-0.538 -1.351,-0.761c-0.9,-0.516 -1.663,-1.09 -2.175,-1.65l1.882,0.588c1.582,-2.439 -8.703,-2.341 -14.053,-4.35c-4.197,-0.77 -8.779,-0.102 -5.351,1.351c-3.811,-1.282 -7.949,-2.593 -12.229,-3.879c-4.796,-1.322 -9.79,-2.74 -14.758,-4.114c-4.323,-2.956 -8.663,-5.91 -12.817,-8.821c-3.771,-2.654 -7.409,-5.265 -10.876,-7.704c-6.805,-4.965 -12.557,-9.546 -16.108,-13.227c-0.559,-0.339 -1.059,-0.716 -1.531,-0.939c-1.194,-1.158 -2.444,-2.3 -3.641,-3.409c-1.068,-0.987 -2.102,-1.939 -3.174,-2.882c-2.055,-1.886 -4.088,-3.685 -6.056,-5.527c-4.109,-3.555 -7.966,-7.035 -11.993,-10.586c-3.936,-3.515 -7.946,-7.162 -12.054,-11.054c-4.281,-3.725 -8.661,-7.644 -13.286,-12.052l0.529,-0.058c-6.08,-6.332 -18.208,-19.025 -16.108,-21.167c-14.131,-12.415 -25.479,-17.822 -40.806,-34.392l4.291,2.586c-0.604,-0.689 -1.216,-1.332 -1.942,-2.058c-0.899,-0.817 -1.878,-1.789 -2.821,-2.647c-1.33,-1.881 -1.877,-2.425 -2.647,-3.409c-0.77,-0.863 -1.417,-1.641 -2.058,-2.411c-1.371,-1.497 -2.487,-2.756 -2.999,-3.352c-1.072,-1.669 0.262,-0.763 0.822,-0.763c-2.185,-5.05 -5.326,-6.803 -7.938,-10.228l1.765,0.941c-1.755,-3.428 -3.958,-7 -6.527,-10.761c-1.285,-1.889 -2.629,-3.802 -3.996,-5.764c-1.587,-2.142 -3.211,-4.332 -4.88,-6.642c-2.955,-6.422 -6.088,-13.136 -9.172,-19.816c-2.955,-6.469 -5.756,-13.017 -8.114,-19.225c1.883,3.811 2.1,1.342 1.941,-0.41c-0.679,-0.769 -1.505,-1.783 -2.231,-2.94c-0.34,-0.556 -0.686,-1.124 -1.117,-1.765c-0.383,-0.77 -0.557,-0.998 -1.29,-2.586c-0.516,-1.543 -1.124,-3.166 -1.765,-4.88c-0.472,-1.544 -1.029,-3.178 -1.589,-4.766c-0.941,-3.295 -1.898,-6.699 -2.882,-9.994c-1.799,-6.547 -3.409,-12.63 -4.647,-16.226l2.706,5.412c-3.602,-9.42 -3.44,-13.075 -3.762,-18.168c0.081,-4.585 0.262,-8.169 -2.177,-16.815l-0.234,10.82c-0.684,-7.58 -2.266,-13.827 -3.468,-11.818c-0.298,-8.861 2.325,-1.494 0.527,-14.64c0.811,-0.727 2.135,9.375 2.647,4.88l-0.41,-18.579v-0.058c0.096,-0.164 -0.046,-1.392 -0.175,-2.292c-0.476,-1.196 -1.13,-2.96 -2.119,-5.527c-3.38,2.917 -5.371,-14.235 -6.056,-4.174c-2.31,-6.207 -4.363,-12.248 -6.29,-18.108c-1.927,-6.035 -3.802,-11.905 -5.644,-17.639c-0.467,-3.038 -0.92,-5.922 -1.351,-8.877c-0.514,-2.786 -0.996,-5.548 -1.468,-8.29c-1.025,-5.44 -2.19,-10.861 -3.643,-16.168c0.383,-1.713 0.453,-4.052 0.294,-6.878c-0.108,-1.458 -0.37,-3.046 -0.529,-4.586c-0.13,-0.818 -0.227,-1.614 -0.292,-2.472c-0.197,-1.193 -0.429,-2.463 -0.588,-3.701c1.07,-3.467 2.161,-7.019 3.233,-10.404c0.984,-2.994 1.865,-5.873 2.765,-8.231c1.76,-4.754 3.469,-7.684 4.88,-6.527c3.554,-12.117 5.81,-22.037 5.41,-30.218c1.018,-5.881 2.063,-12.205 3.118,-16.285c-0.987,8.346 -2.989,21.715 -3.118,28.395c2.787,-11.129 4.486,-27.277 5.47,-33.57l3.351,-2.177c0.385,-9.502 3.823,-7.582 3.823,-16.401c-0.032,-0.171 -0.028,-0.303 -0.058,-0.703c-0.18,0.309 -0.37,0.427 -0.529,0.586c-0.21,0.21 -0.451,0.441 -0.644,0.763c0.064,-0.299 0.206,-0.629 0.236,-0.822c2.504,-16.181 0.06,-17.422 2.116,-33.394l0.941,0.939c0.557,-2.184 0.693,-4.843 0.822,-7.585c0.063,-1.367 0.046,-2.748 0.175,-4.115l0.352,-2.058c0.18,-0.856 0.34,-1.597 0.469,-2.411c0.468,-1.158 0.736,-1.841 1.058,-2.353c0.343,-0.6 0.832,-1.017 1.232,-1.529l-1.349,4.114l-0.999,7.23c1.202,-0.557 2.311,-3.217 3.468,-6.642c1.286,-2.486 2.216,-4.245 3.116,-5.704c3.034,-11.046 -1.655,-4.788 -0.115,-10.348c2.398,-1.714 1.101,-0.226 1.529,4.057c1.501,-5.651 3.223,-12.152 4.763,-18.402c0.769,-3.127 1.464,-6.191 2.06,-9.053c0.599,-3.171 1.176,-6.059 1.648,-8.584c0.941,-1.582 1.455,-2.722 1.648,-3.411c0.547,-0.299 0.586,0.471 0.586,0.471c8.135,-10.492 12.543,-21.849 18.579,-27.456l-1.351,2.231c1.84,-1.497 3.588,-3.448 5.176,-5.585l2.292,-3.409c0.814,-1.116 1.577,-2.287 1.706,-2.647c0.041,-0.468 0.752,-2.607 1.115,-3.937c0.517,-1.452 1.002,-2.841 1.47,-3.998c0.988,-2.311 1.998,-3.778 3.409,-3.937c2.479,-4.407 -4.077,10.629 0.763,3.823c6.721,-14.343 0.103,-11.052 6.056,-23.637c-0.773,1.721 -0.334,1.23 -0.175,2c1.67,-4.925 3.695,-10.61 5.879,-16.817c4.495,-4.197 9.384,-8.797 13.879,-12.99c3.51,-1.67 7.56,-4.531 11.759,-7.998c2.057,-1.798 4.224,-3.685 6.408,-5.527c2.056,-1.838 4.176,-3.746 6.232,-5.585c1.204,-1.842 2.385,-3.672 3.587,-5.47c1.282,-1.966 2.549,-3.876 3.879,-5.585c2.654,-3.597 5.3,-6.778 7.997,-9.172c-3.696,3.099 0.081,-3.193 0.163,-4.399c0.059,0.191 0.202,0.424 0.595,0.161c3.138,-4.666 2.331,-6.014 3.057,-8.114c0.981,-0.899 1.971,-2.405 2.999,-4.114c1.069,-1.97 2.28,-4.144 3.352,-6.115c1.195,-1.414 2.348,-2.753 3.291,-3.821c0.853,-0.899 1.696,-1.654 2.292,-1.942c-0.599,-0.727 2.831,-3.661 6.466,-7.171c-6.59,7.806 -0.923,3.686 -3.233,7.879c11.298,-10.144 9.746,-14.994 21.692,-25.398l3.057,-1.942l1.589,-0.997l2.116,-1.529l2.353,-0.705c0.689,-3.256 14.284,-8.301 13.643,-9.111c2.826,-0.258 6.612,-1.514 6.642,-0.061c5.476,-3.213 14.71,-5.942 16.462,-8.467l-6.056,2c4.581,-1.798 9.172,-4.016 12.171,-5.644c9.292,-6.423 16.824,-13.132 26.929,-17.757l1.823,3.526c2.872,-1.155 5.322,-2.663 7.587,-4.291c2.4,-1.798 4.671,-3.446 6.936,-5.115l2.882,-1.115c0.769,-0.302 1.655,-0.629 2.469,-0.822c1.625,-0.406 3.317,-0.733 5.115,-0.763c-3.3,-0.345 -3.739,0.242 2,-3.057c-1.457,0.389 -3.386,1.041 -5.527,1.941c-1.029,0.383 -2.089,0.879 -3.291,1.351c-1.285,0.471 -2.622,1.017 -3.996,1.529c-1.28,0.857 -2.651,1.775 -3.937,2.589c1.11,-0.986 1.759,-1.763 3.641,-3.174c2.487,-1.072 3.234,-1.583 4.822,-2.353l4.172,-2.292l-9.407,3.641l-10.348,7.114c6.892,-6.081 6.571,-5.44 2.589,-4.88c1.113,-0.857 2.127,-1.651 3.116,-2.292c0.468,-0.297 0.979,-0.659 1.41,-0.882c0.771,-0.422 1.488,-0.866 2.177,-1.29c0.726,-0.198 1.39,-0.451 2.116,-0.644c0.383,-0.13 0.776,-0.163 1.176,-0.292c0.771,-0.149 1.43,-0.342 2.119,-0.471c1.367,-0.3 2.555,-0.473 3.879,-0.761c2.654,-0.553 5.653,-1.353 9.933,-3.409c4.411,-0.855 0.473,1.944 5.527,1.174c4.281,-2.055 8.74,-3.051 12.936,-3.821c2.142,-0.427 4.202,-0.795 6.173,-1.117c2.058,-0.516 3.327,-0.898 5.939,-1.882c-0.686,0.342 -1.045,0.663 -0.822,0.822c0.302,-0.193 0.681,-0.287 0.939,-0.352c3.558,-0.231 6.58,-0.37 8.938,-0.529c2.272,-0.215 4.003,-0.57 4.94,-1.174l-5.995,-0.294c5.266,0 6.11,-1.621 16.168,-0.939c4.337,-0.767 7.248,-2.108 5.762,-2.704c2.323,0.293 4.449,0.802 3.116,1.648c6.68,-0.129 9.034,-0.995 10.703,-1.765c0.855,-0.383 1.485,-0.77 2.469,-1.058c0.347,-0.159 1.241,-0.287 1.529,-0.352c0,-0.032 0.046,-0.088 0.175,-0.058c0.094,-0.03 0.107,-0.03 0.236,0c0.213,-0.033 1.643,-0.637 2.586,-0.997c-0.842,0.551 -1.716,1.32 -1.115,1.29c2.412,-1.086 4.426,-2.129 6.173,-3.148c-3.109,2.048 -2.084,2.254 -1.293,2.441c0.482,0.036 0.855,0.203 0.295,0.763c-0.342,0.255 -0.865,0.605 -1.765,1.117c-0.512,0.21 -1.08,0.576 -1.765,0.939c-0.603,0.302 -1.572,0.792 -1.765,0.822c0.21,0.249 0.415,0.352 0.703,0.352c0.472,-0.044 0.948,-0.276 1.589,-0.469c1.201,-0.518 2.676,-1.186 4.172,-2c2.955,-1.709 6.19,-3.735 8.584,-4.588c6.084,-4.964 -0.685,-3.172 2.177,-5.998c0.301,0.64 3.058,-0.813 6.525,-2.353l-3.996,0.294c2.826,-1.544 5.551,-2.992 8.76,-5.176l-5.291,3.641c2.353,-1.153 5.365,-2.311 8.703,-3.641c1.669,-0.686 3.392,-1.505 5.234,-2.231c0.898,-0.467 1.91,-0.927 2.938,-1.351c1.527,-0.81 3.037,-1.641 4.647,-2.528zM485.734,86.558c-0.898,-0.1 -2.147,0.643 -3.611,2.324c-3.667,4.124 -5.714,12.759 -8.075,17.767c-7.229,15.127 -17.279,28.244 -24.824,42.983c-3.138,6.168 -5.501,12.761 -10.472,17.591c-5.464,5.322 -10.397,10.437 -15.089,16.573c-4.759,6.241 -7.616,12.974 -12.658,18.686c-2.539,2.857 -3.666,5.889 -5.571,9.202c-0.915,1.589 -2.113,1.974 -2.607,3.809c0.052,1.409 0.13,2.819 0.182,4.267c-0.141,1.095 -0.702,1.87 -1.69,2.327c-0.705,3.491 0.03,7.118 -0.602,10.646c-0.351,1.905 -1.518,3.349 -1.941,5.396c-0.599,2.891 0.079,6.735 0.105,9.732c0.039,13.117 1.873,27.853 -0.458,40.794c-2.54,13.891 -5.712,28.135 -2.009,41.851c1.765,6.556 1.269,17.524 0.497,24.257c-0.498,4.302 -2.108,7.405 -2.082,12.092c0.051,3.281 0.181,6.703 0.052,10.016c-0.244,4.757 -2.325,9.165 -5.569,12.728c-1.833,1.972 -4.583,3.348 -6.559,5.216c-3.806,3.701 -6.629,8.394 -10.152,12.341c-7.512,8.463 -14.914,18.336 -20.626,28.136c-2.961,5.115 -7.795,10.581 -10.156,15.692c-1.907,4.161 -2.645,7.62 -5.464,12.026c-1.943,3.065 -3.46,5.111 -4.164,8.705c-0.419,2.046 0.34,3.808 -0.261,5.959c-0.528,1.798 -2.112,4.481 -3.102,6.066c-1.126,1.906 -3.03,2.786 -4.087,4.338c-3.104,4.617 -5.503,9.235 -8.994,13.785c-4.438,5.745 -9.942,10.295 -14.101,16.112c-10.682,14.841 -23.655,28.841 -35.4,42.77c-0.554,0.67 -0.21,2.575 -0.847,3.207c-1.481,1.445 -3.805,0.636 -5.251,2.823c-2.33,3.56 0.139,10.19 1.127,13.608c4.727,16.537 12.095,32.653 17.066,49.433c3.379,11.459 8.001,21.861 15.23,31.24c4.794,6.24 8.002,14.561 10.507,21.79c1.163,3.247 2.255,5.183 4.055,8.358c2.964,5.184 3.07,11.528 6.383,16.359c2.503,3.665 5.608,5.89 7.722,9.872c3.034,5.675 7.193,10.508 10.192,16.147c4.83,9.131 8.568,19.112 13.045,28.491c3.947,8.286 5.956,16.888 11.036,24.574c3.947,5.996 6.979,12.624 12.092,17.666c2.292,2.293 3.386,2.681 6.064,3.95c3.456,1.621 6.172,3.909 9.522,6.1c2.89,1.902 6.345,2.925 9.166,4.828c4.3,2.964 6.381,7.442 9.556,11.389c3.668,4.585 8.427,7.546 12.058,12.448c5.396,7.262 11.565,12.164 19.606,15.303c2.011,-3.175 14.316,-5.044 2.574,-9.734c0.564,-0.17 1.13,-0.247 1.656,-0.352c1.267,-3.806 0.877,-10.717 0.42,-14.772c-0.597,-5.291 -2.855,-8.286 -6.133,-12.06c-1.798,-2.114 -2.361,-4.337 -3.914,-6.666c-2.295,-3.419 -5.183,-3.523 -7.722,-6.274c-1.833,-2.011 -3.212,-6.698 -4.269,-9.344c-1.586,-3.912 -4.053,-6.558 -5.853,-10.472c-2.539,-5.465 -3.244,-11.67 -6.383,-16.712c-1.338,-2.15 -2.892,-3.916 -4.089,-5.993c-1.269,-2.19 -1.128,-4.056 -1.973,-6.137c-2.895,-7.017 -7.055,-13.787 -11.214,-20.028c-4.374,-6.664 -9.061,-12.868 -13.54,-19.781c-2.292,-3.56 -3.42,-7.934 -5.749,-11.281c-0.881,-1.273 -2.64,-2.293 -3.382,-3.562c-0.752,-1.268 -0.356,-4.162 -0.779,-5.255c-0.953,-2.429 -3.21,-3.492 -4.584,-5.569c-3.489,-5.218 -2.116,-11.034 -4.618,-16.817c-0.847,-2.008 -1.799,-3.279 -2.574,-5.251c-1.131,-3.033 -1.66,-6.242 -3.528,-9.239c-2.044,-3.279 -5.112,-6.205 -7.084,-9.451c-1.375,-2.221 -0.708,-3.808 -1.801,-6.133c-0.279,-0.599 -1.972,-0.989 -2.429,-1.626c-1.238,-1.658 -2.22,-3.242 -2.821,-5.289c-2.117,-7.156 -2.291,-16.182 -5.43,-22.847c-2.077,-4.445 -5.673,-7.968 -7.613,-12.518c-2.149,-5.111 -3.879,-11.213 -5.499,-16.749c-0.565,-1.939 -1.802,-3.734 -2.574,-5.781c-0.986,-2.645 -0.672,-9.414 -3.174,-10.756c2.469,-4.37 5.078,-9.592 7.862,-14.279c3.278,-5.467 6.875,-9.624 9.977,-15.549c2.471,-4.726 4.831,-6.418 7.97,-10.049c3.066,-3.598 3.845,-9.555 6.133,-13.718c1.765,-3.207 3.844,-6.275 5.82,-9.166c9.239,-13.537 20.482,-28.312 34.516,-37.126c6.699,-4.229 11.071,-10.435 17.736,-14.701c7.122,-4.548 9.167,-11.357 14.067,-18.126c2.009,-2.787 3.597,-4.233 6.24,-6.205c3.489,-2.643 6.627,-5.606 9.909,-8.425c3.668,-3.104 3.032,-1.868 6.523,-3.314c4.161,-1.73 6.699,-6.698 10.082,-9.729c2.045,-1.868 4.164,-4.054 6.313,-5.856c7.754,-6.451 9.745,-14.594 9.693,-24.362c-0.052,-13.646 0.105,-27.293 0,-40.937c-0.032,-5.287 -0.455,-10.576 0.353,-15.832c0.884,-5.604 3.456,-10.86 3.845,-16.535c0.526,-7.263 -0.483,-14.489 0.292,-21.823c1.056,-9.836 1.272,-19.079 1.482,-28.913c0.247,-10.97 4.325,-21.119 4.091,-32.052c-0.106,-4.832 -0.249,-9.801 0.388,-14.63c0.845,-6.595 3.517,-12.869 3.843,-19.531c0.391,-8.92 -0.139,-17.274 1.412,-26.161c0.784,-4.516 0.483,-9.17 0.458,-13.752c-0.069,-4.406 1.515,-6.062 2.047,-10.049c0.247,-2.008 -0.367,-4.161 -0.105,-6.133c0.281,-1.943 1.328,-3.073 1.62,-4.445c0.812,-3.74 0.46,-7.759 0.46,-11.638c0,-3.351 0.025,-6.733 0,-10.082l0.047,0.006c-0.072,-6.275 2.927,-11.564 3.594,-17.841c0.296,-2.718 -0.276,-4.242 -1.43,-4.37zM517.657,109.331c1.092,13.964 -3.207,28.141 -4.019,41.961c-0.634,10.786 -1.904,21.327 -1.904,32.152c0,3.313 -0.052,6.666 0,9.979c0.032,2.962 -1.095,4.333 -1.587,6.484c-0.546,2.648 -0.098,5.009 -0.39,7.69c-0.32,2.854 -1.588,4.262 -2.151,6.908c-1.04,5.109 0.901,10.933 -0.051,16.044c-0.456,2.435 -1.739,3.066 -1.868,6.205c-0.182,2.961 0.131,5.961 0.051,8.958c-0.175,7.51 -2.08,14.594 -2.08,22.28v18.161c0,11.667 -2.134,25.631 0.156,36.95c0.529,2.576 1.711,3.137 1.868,6.381c0.132,2.999 -0.024,6.066 -0.024,9.063v22.318c0,11.319 -1.164,23.414 1.587,34.166c0.48,1.94 -0.562,6.203 0.742,7.685c1.093,1.267 5.5,1.478 7.26,2.784c2.786,2.082 4.266,5.221 6.488,7.722c3.243,3.598 7.334,3.951 10.969,6.842c6.38,5.113 11.42,14.742 16.287,21.333c5.253,7.087 11.284,15.552 17.593,21.72c13.717,13.33 26.765,27.468 37.904,43.122c2.609,3.627 3.775,8.145 5.47,12.231c1.656,4.127 4.233,7.195 6.205,11.145c1.339,2.752 3.034,4.618 4.406,6.84c2.576,4.055 3.454,7.335 7.052,10.753c5.567,5.324 9.095,12.624 14.315,17.984c3.209,3.279 7.084,6.204 10.397,9.732c2.999,3.242 4.694,7.085 8.007,10.084c3.528,3.241 6.733,6.627 10.119,10.082c3.563,3.598 7.648,3.951 8.675,9.59c1.409,7.899 -3.564,16.82 -7.407,23.269c-4.195,7.016 -10.297,13.507 -12.943,21.3c-2.816,8.355 -6.451,15.584 -11.454,22.952c-5.499,8.075 -9.523,16.925 -14.774,24.859c-5.925,8.921 -10.157,20.767 -17.454,29.3c-5.042,5.956 -9.589,14.771 -13.608,21.508c-2.718,4.585 -5.89,6.205 -9.029,10.154c-2.259,2.786 -3.845,6.557 -5.713,9.624c-2.536,4.267 -3.278,3.987 -6.064,6.842c-2.86,2.999 -4.196,6.981 -6.525,10.259c-5.605,7.901 -14.846,13.402 -19.568,21.969c-3.244,5.925 -3.667,13.996 -4.655,20.765c-0.99,7.089 -3.528,12.48 -6.525,19.077c-4.336,9.658 3.421,10.011 9.166,3.594c4.054,-4.513 3.563,-5.763 9.559,-5.606c2.606,0.068 5.077,-0.126 6.945,-0.388c3.382,-1.8 6.381,-6.417 8.497,-8.958c7.862,-9.483 15.935,-19.074 23.34,-28.946c12.129,-16.291 24.926,-31.982 36.95,-48.13c5.609,-7.545 12.129,-13.889 17.064,-22.035c3.915,-6.49 6.737,-12.729 11.496,-18.546c2.188,-2.646 5.254,-5.183 7.23,-8.042c1.799,-2.714 2.542,-5.603 4.55,-8.249c3.139,-4.16 6.842,-8.18 9.132,-12.694c0.955,-1.872 0.917,-3.564 1.658,-5.289c1.341,-3.067 2.752,-2.962 4.76,-5.464c3.176,-3.986 5.291,-10.015 7.442,-14.774c2.537,-5.609 6.452,-11.106 8.072,-17.064c1.587,-5.713 3.352,-9.59 6.525,-14.67c4.441,-7.017 8.427,-15.092 12.163,-22.494l0.014,0.004c7.336,-14.561 -13.363,-24.573 -20.8,-34.481c-7.16,-9.519 -18.021,-16.998 -24.014,-27.082c-3.066,-5.147 -8.285,-10.117 -12.128,-14.667c-4.724,-5.536 -10.262,-10.263 -14.176,-16.607c-6.311,-10.331 -15.9,-18.968 -22.918,-29.228c-2.958,-4.303 -7.756,-6.877 -9.872,-11.496c-1.444,-3.103 -1.832,-6.946 -3.914,-9.767c-0.596,-0.772 -2.915,-1.761 -3.207,-2.324c-0.635,-1.237 -0.282,-2.752 -0.739,-4.021c-1.622,-4.692 -4.338,-5.01 -7.3,-8.112c-1.974,-2.045 -2.604,-5.358 -4.406,-7.615c-4.335,-5.466 -6.806,-11.779 -10.612,-17.702c-2.398,-3.699 -3.88,-7.297 -5.783,-11.211c-1.234,-2.537 -2.681,-5.038 -3.845,-7.613c-3.454,-7.654 -1.513,-15.832 -1.902,-23.942c-0.212,-4.269 -1.796,-7.865 -2.185,-12.028c-0.496,-5.149 0.105,-10.72 0.105,-15.9v-74.079c0,-15.194 -2.022,-29.019 -2.047,-44.285c0,-8.816 -0.986,-17.948 -5.888,-25.634c-3.278,-5.113 -7.791,-7.758 -11.846,-11.918c-5.889,-6.03 -5.535,-15.022 -10.474,-21.652c-3.663,-4.933 -6.202,-6.482 -8.105,-12.336c-0.774,-2.47 -1.624,-4.902 -2.469,-7.368c-1.304,-3.774 -1.731,-7.932 -3.491,-11.599c-1.201,-2.432 -3.489,-4.407 -4.621,-7.125c-2.538,-5.957 -4.055,-12.481 -7.017,-18.371c-1.482,-2.995 -4.052,-9.167 -6.664,-11.316zM706.503,253.64c-5.67,-0.044 -11.314,-0.026 -16.922,0.848c-5.853,0.88 -12.129,0.234 -18.017,0.234c-7.333,0 -14.63,0.027 -21.93,-0.026c-8.391,-0.027 -15.619,2.258 -23.694,3.843c-7.193,1.409 -15.407,0.235 -23.727,1.234l-0.01,-0.03c-0.052,6.842 2.677,13.223 3.491,20.063c0.563,4.795 0.563,9.521 0.563,14.313c-0.025,2.999 -0.778,6.985 -0.024,9.874c0.354,1.374 -0.389,1.373 0.952,2.185c0.492,0.326 3.029,-0.026 3.453,-0.026c2.538,0 4.23,-0.354 6.666,-0.81c2.362,-0.495 4.723,-0.025 7.084,-0.424c2.575,-0.458 5.08,-1.308 7.69,-1.622c3.771,-0.458 7.581,0.05 11.353,-0.427c6.278,-0.845 12.41,-0.292 18.722,-0.844c3.914,-0.326 7.72,-1.518 11.636,-1.977c4.23,-0.531 8.426,-1.056 12.621,-1.761c7.544,-1.234 15.058,-2.294 22.708,-2.294c14.315,0 28.243,5.363 42.486,5.043c6.277,-0.129 12.303,1.658 18.511,2.539c7.334,1.057 14.843,2.612 22.282,2.539c22.178,-0.296 44.39,0 66.57,0c-11.388,-0.129 -21.014,-5.361 -30.922,-10.541c-5.536,-2.893 -11.18,-4.903 -16.222,-8.607c-4.759,-3.523 -10.015,-5.499 -15.022,-8.605c-5.11,-3.207 -10.79,-5.007 -16.64,-6.521c-6.349,-1.625 -12.303,-3.598 -18.366,-6.032c-11.498,-4.584 -22.988,-8.85 -35.087,-11.353c-4.828,-0.987 -9.59,-0.779 -14.525,-0.779c-1.894,0 -3.788,-0.022 -5.678,-0.037zM342.77,254.669c-5.997,0.051 -11.99,0.051 -17.951,0.026c-3.351,0 -6.842,-0.052 -9.944,0.983c-2.784,0.954 -4.51,3.491 -7.685,4.338c-7.333,2.01 -15.305,1.093 -22.811,1.973c-4.973,0.6 -10.016,1.552 -14.95,2.467c-2.999,0.597 -5.537,0.846 -8.252,2.29c-2.502,1.377 -5.042,2.858 -7.65,3.986c-5.432,2.363 -13.116,2.855 -19.075,3.171c-6.839,0.327 -13.998,0.21 -20.765,-0.563c-3.947,-0.419 -8.002,-0.419 -11.882,-1.446c-3.774,-0.983 -7.266,-2.29 -11.145,-2.892c-5.957,-0.915 -12.267,-2.08 -18.297,-2.256c-7.266,-0.234 -14.527,0.052 -21.79,0c-5.499,-0.026 -10.787,1.409 -16.183,2.187c-6.382,0.88 -12.833,1.269 -19.321,1.868c-0.268,0.031 -0.622,0.094 -1.02,0.175c-0.071,-0.006 -0.144,-0.015 -0.214,-0.022c-3.421,-0.286 -6.804,0.001 -10.19,-0.18c1.459,2.415 7.453,0.799 10.404,0.202c9.075,0.829 18.995,3.113 27.076,7.347c6.062,3.175 11.567,6.913 18.087,9.132c2.997,1.027 5.993,2.082 9.132,2.436c3.636,0.457 7.443,0.051 11.109,0.026c8.286,-0.027 15.163,1.022 23.094,2.784c5.712,1.269 11.002,3.314 16.714,4.511c5.536,1.165 10.577,3.74 16.287,4.655c5.469,0.848 12.87,0.848 18.369,0c3.314,-0.495 6.524,-1.906 9.734,-2.856c4.687,-1.341 9.414,-2.432 14.103,-3.841c10.257,-3.105 21.011,-3.282 31.696,-3.247c10.999,0.052 22.811,-1.62 33.146,2.751c3.418,1.446 6.698,3.279 10.259,4.445c2.468,0.775 5.04,0.989 7.545,1.656c2.785,0.742 5.639,2.821 6.769,-0.915c1.34,-4.654 0.157,-10.93 0.157,-15.652v-13.891c0,-2.189 -0.774,-6.487 0.159,-8.463c0.293,-0.027 0.563,-0.083 0.847,-2.147c0.01,0.013 0.027,0.024 0.035,0.035l-0.032,-0.04c0,0.002 -0.002,0.003 -0.002,0.006c-1.14,-1.392 -7.63,-2.436 -9.166,-2.751c-5.36,-1.056 -10.931,-2.325 -16.395,-2.288zM361.318,337.346v5.083c-2.123,0.761 -3.15,0.696 -5.323,1.188c-1.799,0.42 -2.262,1.372 -3.74,1.868c-0.774,0.264 -1.831,0.233 -2.676,0.525c-3.491,1.162 -6.911,1.936 -10.366,3.171c-3.878,1.338 -7.405,3.349 -11.211,4.866c-3.212,1.27 -5.927,3.633 -9.029,5.253c-3.139,1.627 -5.961,1.262 -9.519,1.236c-6.417,0 -12.8,-0.28 -19.146,0.743c-5.57,0.916 -11.532,1.267 -16.924,2.784c-5.255,1.446 -10.683,2.821 -15.867,4.548c-5.995,2.009 -12.236,2.998 -18.229,5.075c-10.295,3.561 -21.261,4.014 -32.049,3.988c-15.902,0 -31.803,0.026 -47.706,0.026h-21.118c-5.466,0 -12.52,-1.145 -17.916,0.157c1.906,4.406 8.36,5.994 12.52,7.368c5.536,1.801 11.32,3.349 16.607,5.783c3.387,1.587 6.491,1.905 10.192,2.502c3.528,0.565 6.803,2.011 10.331,2.574c7.932,1.269 15.9,2.61 23.869,3.774c5.289,0.731 10.403,0.705 15.692,1.057c3.277,0.249 6.308,1.196 9.483,1.727c5.145,0.845 9.097,1.019 13.608,3.77c3.598,2.223 8.041,3.387 12.06,4.728c4.829,1.622 8.531,2.845 13.786,2.819c12.555,-0.105 25.138,0 37.728,0c4.972,0 9.979,-0.026 14.982,0c2.259,0 4.583,0.352 6.664,-0.563c2.749,-1.198 6.203,-3.949 8.497,-5.921c2.89,-2.505 5.218,-5.708 8.18,-8.144c2.252,-1.869 5.04,-3.63 7.437,-5.325c3.632,-2.543 8.146,-3.881 11.529,-6.773c2.083,-1.726 5.079,-3.384 6.42,-5.781c1.257,-2.256 1.232,-4.76 1.232,-7.265c-0.026,-4.229 0,-8.461 0,-12.691v-19.065c0.014,-0.005 0.024,-0.006 0.038,-0.012c1.336,-0.494 2.429,-1.342 -0.026,-5.041l-0.012,-0.03zM644.96,350.281c-10.586,0.127 -21.309,1.672 -31.685,4.184l-0.002,0.021c0.494,3.774 1.34,7.09 1.057,11.006c-0.353,5.361 -1.341,10.927 -2.324,16.25c-0.389,2.082 -1.165,4.164 -1.517,6.24c-0.389,2.22 -0.052,4.374 -0.46,6.559c-0.529,3.03 -1.055,5.676 1.45,8.073c1.302,1.197 2.218,1.13 3.946,1.482c3.418,0.703 6.806,1.76 10.192,2.574c3.879,0.914 7.546,0.95 11.456,1.197c2.647,0.158 4.971,1.021 7.652,1.058c8.992,0.129 17.981,-0.052 26.973,0c3.032,0.027 5.747,-0.425 8.748,-0.777c4.473,-0.565 9.027,-0.261 13.503,-0.261c8.394,0 16.857,0.026 25.283,0c6.383,-0.052 12.587,0.292 18.896,1.305c3.913,0.601 7.691,0.495 11.565,0.952c5.182,0.564 10.366,0.953 15.549,1.555c4.795,0.562 9.59,0.026 14.422,0.157c3.139,0.104 6.098,0.914 9.204,1.092c2.575,0.13 5.18,-0.026 7.72,-0.026c3.455,0 6.946,-0.158 10.261,-0.99c2.715,-0.632 4.23,-1.902 6.981,-2.009c3.771,-0.129 8.565,-1.129 12.163,-2.257c-0.352,-1.657 -4.125,-2.256 -5.674,-2.819c-4.583,-1.591 -9.591,-2.08 -14.35,-2.997c-5.535,-1.057 -10.581,-3.034 -15.975,-4.516c-4.616,-1.231 -9.308,-3.207 -13.048,-6.238c-2.644,-2.149 -5.569,-3.983 -8.11,-6.24c-3.491,-3.068 -5.993,-6.452 -10.012,-8.882c-3.421,-2.048 -6.84,-3.141 -10.646,-4.34c-2.752,-0.88 -5.609,-1.83 -8.462,-2.466c-3.281,-0.706 -6.525,-0.742 -9.769,-1.763c-6.417,-2.083 -12.164,-4.126 -18.97,-4.865c-5.675,-0.637 -11.283,-2.294 -16.888,-3.247c-5.89,-1.02 -11.248,-3.805 -17.173,-4.758c-4.48,-0.705 -8.71,-2.084 -13.153,-2.856c-6.149,-1.045 -12.452,-1.478 -18.803,-1.402zM306.874,451.29c-4.441,0.667 -8.569,0.026 -13.08,0c-4.302,0 -8.111,0.565 -12.341,1.27c-5.925,1.019 -11.918,0.949 -17.914,1.761c-6.945,0.953 -13.925,1.231 -20.906,1.973c-8.322,0.85 -17.453,1.906 -25.459,4.267c-4.019,1.201 -7.931,2.612 -12.056,3.279c-3.282,0.527 -6.56,0.736 -9.804,1.478c-8.461,1.977 -16.571,5.433 -25.317,6.137c-2.327,0.177 -12.762,0.564 -13.998,4.055c1.836,1.516 5.111,1.045 7.3,1.02c3.173,-0.025 6.382,-0.026 9.592,-0.026c4.583,0 9.239,-0.244 13.821,0.052c11.387,0.741 22.95,1.482 34.234,3.102c10.187,1.479 18.684,7.581 27.851,11.563c6.419,2.754 14.705,3.163 21.545,3.459c4.619,0.181 9.274,-0.106 13.893,-0.081c1.306,0.034 2.466,0.284 3.456,-0.457c1.939,-1.412 3.632,-5.571 4.584,-7.722c1.306,-2.892 3.068,-5.568 4.374,-8.427c1.796,-4.018 3.525,-8.251 5.606,-12.233c2.64,-5.043 4.621,-8.887 4.621,-14.491zM640.55,451.489c-1.049,-0.062 -1.517,0.511 -0.442,2.732c2.008,4.125 7.157,8.603 11.492,9.944c2.303,0.696 3.788,2.486 -0.88,1.264c-0.048,-0.017 -0.093,-0.041 -0.143,-0.056l0.004,0.024c0.056,0.014 0.087,0.018 0.14,0.032c1.294,0.462 2.158,1.625 3.312,2.338c2.185,1.306 4.478,2.151 6.63,3.633c6.206,4.268 11.812,8.393 14.598,15.69c1.131,2.962 2.785,9.731 6.555,10.612c1.413,0.326 3.667,0.001 5.081,-0.156c4.194,-0.529 7.896,-0.915 12.231,-0.915c10.58,0.025 21.156,0.08 31.734,0c4.019,-0.024 7.508,0.705 11.424,1.057c2.963,0.296 6.133,-0.052 9.132,-0.026c3.491,0 6.593,-0.233 10.016,-0.987c3.772,-0.846 6.77,-2.714 10.364,-4.126c2.894,-1.124 5.958,-1.484 8.992,-2.189c2.432,-0.563 4.866,-1.23 7.3,-1.799c1.199,-0.293 2.503,-0.325 3.351,-1.23c-1.625,-1.551 -4.128,-1.658 -6.137,-2.154c-5.89,-1.479 -11.671,-3.384 -17.561,-4.899c-11.845,-3.067 -23.379,-6.029 -34.481,-11.139c-10.544,-4.867 -22.106,-5.361 -33.251,-7.758c-10.012,-2.187 -20.238,-2.82 -30.321,-4.126c-4.267,-0.564 -8.25,-2.187 -12.48,-2.997c-4.158,-0.771 -8.603,-0.704 -12.728,-1.692c-1.251,-0.319 -2.881,-1.015 -3.93,-1.076zM485.515,503.627c-3.597,0.036 -4.794,5.852 -5.958,8.213c-6.486,13.013 -17.418,23.486 -24.891,35.931c-2.717,4.513 -6.42,8.356 -8.922,13.009c-3.806,7.052 -7.473,14.281 -11.139,21.718c-4.053,8.181 -8.675,15.621 -12.131,24.224c-3.205,7.97 -6.837,15.938 -10.01,24.084c-1.329,3.387 -2.122,6.45 -1.591,10.19c0.707,4.619 4.024,5.714 6.561,9.909c3.807,6.309 6.027,13.61 9.977,19.778c3.243,5.08 7.756,8.359 9.977,14.14c2.083,5.36 1.905,10.188 5.748,14.738c5.112,6.031 8.815,11.424 12.589,18.477c3.1,5.783 7.755,7.156 11.702,12.023c1.728,2.15 2.606,5.852 4.406,7.788c2.329,2.47 5.183,2.895 7.23,5.854c2.256,3.284 3.099,5.713 5.958,8.607c7.725,7.861 9.946,0.142 13.048,-6.488c2.89,-6.204 5.778,-11.917 7.578,-15.408c0,0.842 -0.027,1.692 -0.052,2.537c2.926,-1.974 2.855,-8.075 4.091,-11.214c1.584,-4.163 2.292,-8.147 3.491,-12.413c1.021,-3.528 2.748,-4.864 4.194,-7.934c4.269,-8.99 6.241,-19.354 9.944,-28.311c3.244,-7.897 4.937,-16.148 8.11,-24.117c2.222,-5.567 7.473,-11.879 6.593,-18.156c-0.779,-5.538 -5.466,-9.52 -8.605,-14.455c-2.894,-4.514 -5.145,-9.171 -7.615,-13.893c-1.73,-3.352 -4.128,-4.901 -6.1,-7.827c-3.243,-4.762 -3.104,-10.719 -5.394,-15.83c-1.096,-2.435 -3.139,-4.024 -4.198,-6.349c-1.513,-3.386 -2.186,-7.122 -3.911,-10.684c-4.692,-9.626 -6.315,-19.989 -10.581,-29.828l0.014,0.004c-0.635,-1.48 -1.762,-2.189 -2.114,-3.772c-0.483,-1.978 0.643,-4.268 0.184,-6.276c-0.245,-1.057 -1.563,-1.658 -1.692,-2.362c-0.482,-2.435 0.279,-5.327 -0.353,-7.69c-0.497,-1.901 -4.129,-8.238 -6.137,-8.213z" /></svg>