<svg xmlns="http://www.w3.org/2000/svg" viewBox="0 0 988 992" width="988" height="992"><path d="M544.74,596.451c-13.54,-0.598 -27.909,-5.02 -42.278,-4.19c-18.008,1.061 -36.337,0.184 -54.391,0.184c-16.212,0 -33.023,0.784 -49.74,1.245c0.736,-3.915 -1.162,-9.074 -0.83,-14.646c0.137,-2.394 0.462,-4.79 0.83,-7.184c34.635,-0.552 69.313,-2.451 75.531,-2.487c31.179,0 60.978,3.282 91.834,3.318c6.586,0 13.172,0.112 19.804,0.148c0.461,6.632 1.245,12.896 2.671,17.686c0.459,1.427 0.968,2.857 1.52,4.283c-15.29,-0.693 -30.165,2.303 -44.95,1.657z" /> <path d="M436.419,783.956c-0.782,15.887 -5.388,31.731 -10.224,46.791c-2.165,6.768 -11.975,30.12 -8.244,38.916c-4.099,-0.921 -8.244,-1.751 -12.527,-2.535c-9.347,-1.749 -17.363,-2.947 -25.561,-6.862c-3.269,-1.566 -6.123,-3.499 -9.119,-5.297c6.723,-4.513 8.982,-25.422 10.408,-29.751c5.711,-17.315 18.557,-31.454 20.632,-49.831c3.04,-27.126 7.139,-51.166 11.468,-77.234c2.073,-12.434 7.553,-24.732 11.238,-37.12c6.127,0.461 12.207,1.057 18.377,1.703c-3.084,16.718 -2.163,60.517 -4.145,70.418c-3.317,16.81 -1.473,33.62 -2.303,50.799z" /> <path d="M549.534,804.45c1.383,17.731 6.08,37.029 10.363,53.93c1.658,6.677 3.451,15.381 5.343,21.737c-8.705,2.81 -17.408,5.388 -25.975,7.691c-8.381,2.255 -18.698,4.699 -28.738,6.309c1.012,-2.347 1.933,-4.699 2.394,-7.277c1.705,-10.085 -1.234,-21.507 -1.198,-31.777c0.136,-30.904 -9.763,-61.069 -8.337,-91.65c0.782,-16.487 8.103,-31.454 7.691,-45.87c-0.278,-11.007 -5.252,-21.139 -4.238,-31.916c0.827,-8.89 3.271,-16.904 2.578,-26.114c5.62,0.14 11.193,1.245 16.765,2.35c3.085,8.706 2.442,25.146 3.915,30.811c3.085,11.745 7.138,21.417 7.875,33.114c1.751,26.573 9.442,51.765 11.561,78.661z" /> <path d="M495.339,871.505c-0.321,8.06 -0.46,11.375 1.061,18.882c0.368,1.751 0.767,3.456 1.061,5.159c-1.52,0.074 -2.994,0.184 -4.467,0.184c-13.816,0.046 -24.64,-9.119 -36.706,-14.323c-9.717,-4.192 -19.249,-7.14 -29.015,-9.58c2.993,-4.561 3.959,-14.557 4.559,-18.193c3.04,-17.636 9.075,-32.884 12.527,-49.97c4.468,-21.83 13.807,-40.989 13.955,-64.063c0.137,-18.652 -5.572,-37.946 -1.105,-55.772c0.781,-3.131 3.499,-12.664 2.947,-19.941c0.23,0 0.426,0 0.646,0c9.028,0.046 17.824,-1.196 26.482,-2.394c0.074,0.148 0.112,0.22 0.148,0.368c2.892,8.014 2.44,15.981 3.224,24.363c1.473,16.258 3.82,34.91 2.671,51.075c-0.461,6.309 -4.145,10.822 -5.665,16.672c-2.442,9.349 1.851,16.074 2.071,25.054c0.094,3.085 -3.119,6.633 -3.267,10.178c-0.096,2.165 1.905,6.634 2.163,9.165c0.663,5.618 -0.67,11.468 -0.074,17.086c1.242,11.238 0.181,23.074 2.347,34.219c1.475,7.368 4.799,14.232 4.467,21.83z" /> <path d="M725.882,833c9.394,-24.64 -11.423,-52.779 -19.298,-75.485c-5.94,-17.086 -15.796,-32.653 -24.317,-48.358c-7.967,-14.6 -15.105,-30.49 -25.468,-43.799c5.065,0.83 10.178,1.291 15.428,0.83c7.232,-0.6 13.448,-4.423 20.541,-5.665c11.238,-1.89 23.026,2.303 33.159,4.374c-2.534,-4.099 -1.382,-7.969 -2.166,-13.034c-1.288,-8.014 -4.238,-15.337 -4.606,-22.476c-0.737,-15.935 5.572,-29.337 5.572,-44.397c-22.382,3.269 -45.593,5.8 -68.621,8.428c-11.79,1.333 -23.717,2.163 -35.692,2.347c-1.47,-7.093 -1.886,-15.06 -2.347,-23.074c5.989,-0.184 11.929,-0.507 17.87,-0.968c11.468,-0.967 27.587,-1.151 38.088,-5.757c-6.955,-16.716 -33.989,-19.25 -59.043,-18.882c-0.877,-3.454 -2.026,-6.77 -3.592,-9.81c-5.204,-10.085 -9.763,-15.796 -12.066,-26.757c-0.737,-3.408 -0.737,-7.14 -1.149,-10.592c0.509,-0.325 0.968,-0.682 1.473,-1.014c16.533,-10.961 25.053,-18.975 29.797,-37.811c2.212,-8.75 5.988,-17.731 7.277,-26.343c1.751,-11.513 -4.603,-16.304 -6.309,-26.298c-3.188,-18.329 9.43,-30.393 0.22,-48.219c-6.218,-12.066 -15.199,-20.955 -21.876,-32.1c-9.164,-15.199 -14.691,-23.811 -30.028,-33.621c-19.391,-12.389 -52.594,-30.167 -50.247,-56.556c1.75,0.232 4.144,-0.588 5.895,-0.368c2.994,-10.454 5.527,-48.035 -5.941,-49.233c-1.842,-12.25 9.766,-40.068 -1.426,-50.338c-7.782,2.793 -22.382,-0.342 -31.547,0.074c-14.507,0.701 -28.462,-1.325 -42.462,-0.036c1.429,1.378 1.841,2.577 2.578,3.822c-0.122,-0.112 -0.196,-0.222 -0.416,-0.332c-4.93,8.612 0.036,16.397 0,25.377c-0.046,6.632 -2.442,15.474 -3.731,22.383c-10.822,-11.283 -10.121,12.295 -9.901,18.145c0.414,10.363 -1.614,20.955 1.198,31.318c2.071,-0.369 5.065,0.784 7.184,0.368c-0.137,8.013 0.093,9.165 -2.347,15.981c-2.164,5.989 -5.709,10.179 -6.493,16.074c-9.164,3.96 -14.323,10.547 -22.244,15.612c-9.257,5.85 -18.606,9.672 -27.725,15.89c-16.715,11.376 -30.581,24.456 -40.989,44.167c-9.903,18.745 -4.606,48.082 -2.166,68.53c3.224,26.85 13.125,46.655 26.205,70.004c3.178,5.663 6.447,10.224 10.178,14.23c-0.332,13.721 2.21,28.876 -0.552,39.607c-1.292,4.975 -2.672,9.946 -4.054,14.876c-18.331,2.442 -35.694,6.08 -54.023,5.434c4.145,2.993 -0.968,4.227 -3.408,4.559c-0.597,5.802 23.303,7.701 52.318,7.921c-1.798,7.139 -1.798,14.737 -2.166,22.06c-10.499,-0.091 -20.907,-0.459 -31.04,-1.473c-20.955,-2.181 -47.669,-7.203 -67.794,-0.11c2.669,1.703 4.818,0.829 4.744,4.374c1.011,2.766 -4.82,10.135 -4.93,14.602c-0.043,4.836 2.996,12.527 2.628,18.284c-0.877,13.448 -2.672,25.606 1.382,38.363c18.975,1.752 39.009,-2.071 58.675,-2.992c-4.836,6.771 -11.881,17.64 -13.218,21.462c-1.978,5.757 0.048,10.547 -2.808,17.04c-3.776,8.337 -8.335,14.785 -11.836,23.074c-2.626,6.125 -1.933,13.908 -3.915,20.264c-2.946,9.578 -7.323,18.19 -10.085,27.632c-3.545,12.298 -9.07,24.363 -12.434,36.522c-1.154,4.283 -4.606,12.065 -2.996,16.901c-0.461,0.227 -0.877,0.457 -1.382,0.873c-4.42,14.414 23.81,16.949 33.252,21.139c18.881,8.335 39.238,12.02 58.811,19.527c23.165,8.889 46.468,16.258 70.463,22.935c9.531,2.624 18.699,4.652 27.357,8.658c6.079,2.808 23.81,7.69 25.836,10.822c9.995,-0.276 12.296,1.566 21.001,-2.947c8.796,-4.559 14.23,-7.874 24.179,-10.777c28.876,-8.473 56.233,-19.527 85.57,-27.771c33.805,-9.487 66.78,-23.901 97.729,-38.179c1.43,0.185 2.904,0.462 4.238,0.646zM450.568,86.878c-9.81,-0.038 -23.81,3.932 -32.377,-0.074c2.487,2.672 5.986,5.527 9.717,6.448c0.277,1.151 -0.137,2.44 -1.105,2.256c6.955,-0.278 17.04,26.527 22.383,35.646c11.836,-7.048 36.06,-1.751 50.338,-1.014c8.29,0.352 23.765,4.45 30.811,-0.294c4.467,-3.038 9.717,-15.704 13.218,-20.678c4.652,-6.632 10.544,-14.323 13.862,-21.139c-21.278,0.324 -42.556,-0.137 -63.695,-1.058c-14.324,-0.662 -28.785,-0.11 -43.154,-0.11zM983.474,521.61c-1.523,8.935 2.026,15.706 3.636,23.488c0.736,3.546 -1.383,7.737 -2.256,11.606c-2.208,9.394 -4.283,18.743 -5.204,28.553c-0.876,9.533 -5.757,18.652 -8.244,28.139c-1.84,7 -2.485,14.323 -4.006,21.462c-2.028,9.581 -3.917,19.207 -6.725,28.601c-3.039,10.04 -7,19.85 -10.685,29.751c-0.877,2.303 -1.935,4.558 -3.224,6.677c-4.193,6.909 -9.117,13.357 -12.666,20.541c-10.408,20.726 -27.817,35.187 -44.12,50.661c-4.054,3.869 -7.923,8.337 -10.547,13.218c-5.388,10.04 -10.085,20.541 -14.691,30.995c-5.39,12.206 -16.258,17.087 -27.68,21.416c-1.291,0.464 -2.671,0.921 -3.685,1.798c-5.02,4.236 -9.349,9.765 -15.014,12.757c-14.876,7.831 -24.363,21.601 -36.706,32.148c-8.38,7.093 -16.672,14.369 -25.145,21.462c-2.028,1.705 -2.949,4.745 -4.422,7.139c0.412,0.275 0.83,0.49 1.242,0.784c1.379,-1.196 2.715,-2.396 4.697,-4.099c-0.184,1.796 0.141,3.131 -0.368,3.731c-5.481,6.218 -9.672,13.678 -19.252,15.198c-13.539,2.119 -26.896,5.25 -39.284,11.606c-0.921,0.46 -2.442,1.289 -2.947,0.921c-4.975,-3.729 -8.109,0.416 -11.745,2.535c-11.929,7.046 -23.674,14.369 -35.924,20.771c-4.097,2.117 -9.486,1.794 -14.23,2.578c-0.549,0.072 -1.105,-0.074 -1.61,0.036c-10.224,2.119 -20.357,4.467 -30.581,6.309c-8.152,1.474 -16.442,2.347 -24.64,3.361c-10.409,1.335 -20.817,2.488 -31.225,3.822c-20.632,2.624 -41.219,5.434 -61.851,7.921c-2.12,0.278 -4.376,-1.058 -6.542,-1.242c-2.21,-0.232 -4.975,-0.784 -6.632,0.184c-15.29,9.21 -30.902,4.927 -46.653,1.703c-10.64,-2.212 -20.633,-7.242 -31.825,-7.462c-2.948,-0.093 -5.713,-2.764 -8.705,-3.869c-9.074,-3.224 -18.1,-6.768 -27.403,-9.303c-13.033,-3.499 -24.364,-9.995 -35.186,-17.777c-1.334,-0.932 -3.546,-0.636 -5.388,-0.968c-1.149,-0.184 -2.531,-0.089 -3.452,-0.689c-5.573,-3.683 -10.638,-8.471 -16.672,-11.006c-5.895,-2.44 -12.711,-2.717 -19.159,-3.822c-1.843,-0.332 -3.823,-0.036 -5.665,-0.368c-27.402,-4.973 -47.023,-23.073 -67.148,-40.159c-12.941,-11.009 -25.468,-22.522 -37.856,-34.128c-7.83,-7.322 -16.535,-14.323 -22.153,-23.212c-7.921,-12.62 -19.478,-20.632 -30.856,-28.969c-10.133,-7.415 -18.468,-16.809 -24.502,-27.126c-11.513,-19.482 -26.021,-37.304 -33.989,-58.95c-7.921,-21.553 -17.041,-42.692 -21.001,-65.536c-0.733,-4.006 -0.781,-8.151 -1.149,-12.25c-0.368,-3.824 -0.689,-7.691 -1.198,-12.804c-0.97,1.747 -1.234,2.303 -1.566,2.808c-2.903,-5.757 -3.131,-10.915 -0.6,-17.547c2.213,-5.94 1.338,-13.862 -3.452,-20.218c1.057,0.458 2.118,0.965 3.132,1.426c0.322,-0.228 0.636,-0.469 0.968,-0.689c-2.856,-4.468 -5.668,-8.935 -8.567,-13.357c-0.736,-1.154 -2.119,-1.982 -2.628,-3.18c-8.658,-20.771 -12.528,-42.831 -16.488,-64.8c-2.44,-13.448 -1.887,-27.264 5.113,-39.468c9.717,-16.903 12.066,-35.555 15.198,-54.207c0.736,-4.283 2.624,-8.566 4.79,-12.388c3.87,-6.816 2.444,-14.184 3.04,-21.323c0.646,-6.909 0.325,-13.955 1.014,-20.864c0.507,-5.436 1.933,-10.778 2.947,-16.028c0.137,0.509 0.431,1.336 0.689,2.166l1.337,0.368c2.671,-8.289 5.665,-16.487 7.968,-24.915c2.536,-9.119 4.332,-18.422 6.542,-27.632c0.415,-1.702 0.736,-3.594 1.657,-5.02c5.342,-8.244 10.822,-16.393 16.303,-24.547c0.876,-1.289 2.211,-2.302 3.132,-3.636c3.5,-5.02 7.046,-10.04 10.27,-15.244c1.519,-2.439 2.443,-5.295 4.79,-7.598c-0.177,1.43 -0.325,2.812 -0.509,4.238c0.557,0.074 1.154,0.22 1.706,0.368c1.105,-4.743 2.21,-9.488 3.408,-14.185c2.992,-11.609 4.787,-23.906 14.553,-32.334c9.808,-8.519 20.908,-15.751 29.981,-24.961c7.462,-7.601 13.31,-16.995 18.975,-26.114c6.264,-10.088 9.856,-21.785 19.85,-30.213c0.368,0.738 0.877,1.75 1.798,3.685c4.191,-5.527 7.829,-9.856 10.961,-14.553c8.659,-12.896 21.83,-19.757 35.048,-26.389c5.573,-2.808 12.434,-3.176 17.961,-6.079c7.645,-4.054 14.6,-9.442 21.83,-14.278c4.468,-2.948 8.844,-6.081 13.541,-8.705c1.473,-0.837 3.726,-0.357 5.618,-0.505c0.276,0.736 0.517,1.472 0.737,2.256c5.392,-3.638 10.826,-7.325 16.214,-10.961c-0.184,-0.459 -0.376,-0.968 -0.596,-1.473l-7.737,2.487c-0.232,-0.232 -0.49,-0.473 -0.784,-0.693c1.335,-1.193 2.486,-3.12 4.006,-3.452c8.473,-1.752 16.257,-6.722 25.422,-5.388c1.242,0.14 2.672,-0.811 4.054,-1.105c9.994,-1.933 19.941,-3.867 29.935,-5.802c8.105,-1.565 16.209,-3.27 24.363,-4.652c2.075,-0.325 4.423,0.873 6.542,0.505c5.204,-0.874 10.363,-2.347 15.567,-3.452c0.968,-0.184 2.073,0.426 3.087,0.646c0,0.552 -0.038,1.105 -0.074,1.657c3.593,-1.843 7.232,-3.687 10.777,-5.665c0.877,-0.508 2.155,-1.522 2.119,-2.259c-0.091,-5.389 4.834,-6.309 7.83,-8.06c5.848,-3.408 12.25,-5.942 18.652,-8.105c2.394,-0.83 5.527,0.258 8.289,0.552c0.112,0 0.184,0.416 0.332,0.416c6.816,1.286 13.632,3.084 20.541,3.636c7.323,0.589 14.785,0 22.153,-0.148c7.138,-0.074 14.23,-0.368 21.323,-0.258c3.362,0.049 6.725,0.866 9.303,1.198c0.925,1.703 1.429,3.822 2.259,4.006c5.618,1.012 11.468,3.087 16.533,-1.703c0.552,-0.498 1.61,-0.646 2.394,-0.646c11.421,0.186 22.982,-0.92 33.574,4.93c9.856,5.424 20.908,4.558 31.593,5.572c9.258,0.876 18.606,0.876 27.771,2.21c4.699,0.691 9.119,3.315 13.541,5.297c8.155,3.638 16.399,7.184 24.274,11.329c7.093,3.729 15.289,6.861 20.402,12.618c9.58,10.87 22.337,17.547 32.561,27.403c3.363,3.224 7.646,5.987 11.975,7.553c10.731,3.868 21.739,7.046 32.7,10.27c2.624,0.725 5.527,0.321 8.289,0.689c1.889,0.231 4.467,0.278 5.481,1.52c4.006,4.7 7.552,9.811 11.283,14.785c0.921,1.196 2.162,2.21 2.992,3.452c2.532,3.731 4.931,7.507 7.462,11.238c1.472,2.21 3.086,4.327 4.652,6.493c2.118,2.903 4.33,5.758 6.356,8.705c3.133,4.56 6.216,9.166 9.303,13.725c0.505,-0.184 0.964,-0.38 1.473,-0.6c0.129,-1.334 0.313,-2.671 0.461,-3.869c7.828,6.538 15.935,12.756 23.349,19.711c3.731,3.454 8.419,8.06 8.751,12.434c0.552,8.105 6.542,11.836 10.178,17.408c4.194,6.4 8.661,12.573 12.99,18.882c6.493,9.626 11.696,20.633 19.85,28.508c9.119,8.751 13.034,20.955 21.646,28.692c0.129,1.839 -0.185,3.453 0.461,4.374c3.731,5.388 7.737,10.545 11.513,15.842c0.688,0.921 1.001,2.21 1.149,3.408c0.786,6.909 1.382,13.862 2.259,20.771c0.324,2.394 0.968,4.927 2.166,7.046c3.501,6.263 -1.521,12.666 0.689,18.836c0.368,1.061 0.827,2.166 1.473,3.087c1.566,2.028 3.641,3.824 4.79,6.034c2.947,5.527 5.985,11.006 8.06,16.856c3.408,9.765 6.218,19.757 9.026,29.706c3.408,12.065 6.723,24.131 9.626,36.244c0.873,3.686 1.058,7.783 0.412,11.468c-2.348,13.216 -5.432,26.295 -7.691,39.468c-0.688,4.054 0.388,8.337 0.646,12.527c0.6,-0.074 1.198,-0.112 1.798,-0.148v-5.159c5.297,7.645 10.915,16.164 9.442,24.915z" /> <path d="M386.63,774.88c-2.071,12.804 -10.224,24.224 -14.737,36.153c-1.844,4.835 -12.438,29.612 -9.258,40.159c-11.745,-4.376 -24.502,-9.073 -37.397,-13.402c-0.461,-7.046 1.658,-11.789 6.632,-19.066c10.408,-15.196 16.303,-29.842 24.317,-46.1c11.975,-24.363 8.29,-55.312 16.258,-80.596c1.934,-6.173 3.962,-13.128 6.356,-19.298c1.382,-3.638 2.347,-6.677 3.224,-9.717c9.028,-0.969 18.054,-1.971 27.173,-2.303c-2.44,9.119 -1.703,24.825 -2.992,29.292c-3.637,12.85 -9.485,24.227 -12.388,37.536c-3.499,15.704 -4.606,31.316 -7.184,47.344z" /> <path d="M675.306,732.002c9.535,18.423 15.476,39.378 25.009,57.984c5.756,11.193 8.982,24.366 10.408,36.984c-5.389,0.414 -11.377,2.439 -14.969,4.19c-4.143,1.98 -8.243,3.869 -12.297,5.711c0.598,-11.147 -12.943,-21.556 -15.153,-32.148c-5.297,-25.1 -7.739,-50.522 -19.62,-73.826c-8.887,-17.363 -23.349,-30.811 -31.593,-48.312c-3.223,-6.863 -4.328,-14.83 -13.586,-24.133c9.488,-0.644 18.837,-0.505 27.817,1.198c3.732,0.736 7.556,1.66 11.378,2.628c0.6,4.604 0.509,9.303 2.487,13.493c2.578,5.527 7.552,9.256 9.303,15.612c2.07,7.507 0.458,11.422 5.388,18.836c5.158,7.6 11.19,13.587 15.428,21.785z" /> <path d="M658.774,811.267c5.573,8.889 7.185,24.133 17.086,28.969c-8.612,3.683 -17.272,7.137 -26.666,10.408c-1.889,0.644 -3.773,1.337 -5.665,2.026c4.974,-10.038 -5.941,-31.134 -10.04,-37.536c-7.507,-11.697 -8.288,-22.244 -11.606,-35.876c-2.992,-12.252 -8.798,-23.995 -11.329,-36.292c-1.012,-5.02 -0.873,-10.224 -2.21,-15.337c-1.612,-6.218 -3.869,-8.705 -5.895,-14.139c-4.006,-10.731 -8.842,-19.573 -13.955,-29.613c-2.118,-4.279 -7.507,-15.243 -14.093,-22.105c7.784,-1.014 15.66,-2.119 23.442,-2.856c2.626,7.46 6.175,14.139 9.442,21.185c3.961,8.52 5.711,17.086 11.238,25.514c13.816,21.046 19.711,47.575 27.725,71.477c4.422,13.079 4.974,22.06 12.527,34.173z" /> <path d="M606.541,799.66c4.836,16.626 15.383,44.443 29.522,55.635c-18.972,6.816 -38.408,14.001 -57.751,20.494c-1.06,-7.785 -8.014,-13.817 -10.454,-21.785c-5.018,-16.074 -2.762,-35.139 -5.618,-51.72c-3.04,-17.638 -6.448,-36.705 -5.802,-54.989c0.507,-15.198 -5.802,-26.711 -10.408,-41.587c-3.683,-12.02 -3.499,-31.686 -14.737,-42.924c2.992,0.553 6.034,0.957 9.026,1.105c6.954,0.321 14.093,-0.048 21.323,-0.737c2.026,6.125 6.032,14.508 7.414,18.284c2.947,8.014 9.581,13.586 11.468,22.014c1.842,8.014 2.903,12.85 5.711,20.587c4.744,13.125 10.315,26.159 13.402,39.791c2.719,11.836 3.545,24.27 6.909,35.831z" /> <path d="M538.894,372.36c-2.165,-0.09 -3.915,-0.737 -5.85,-1.61c-1.105,-5.989 -0.737,-13.312 6.079,-15.383c3.96,-1.798 6.539,-3.085 11.006,-1.382c0.232,-0.828 0.782,-1.426 1.566,-1.842c20.171,8.705 -4.146,36.751 -12.804,20.218z" /> <path d="M430.667,445.357l2.531,-2.394c6.079,-3.04 12.111,-4.329 18.697,-2.21c1.335,4.695 1.612,4.098 3.822,7.23c-0.55,10.594 -12.804,15.153 -23.212,13.034c-10.131,-2.117 -15.428,-13.86 -1.842,-15.658z" /> <path d="M507.527,425.511c-11.238,4.881 -39.791,2.487 -49.233,-5.85c-4.283,-3.821 -5.802,-11.19 -6.17,-16.303c-0.875,-11.974 7.092,-14.69 12.573,-22.844c-0.091,-10.399 18.975,-13.865 32.561,-10.547c23.856,5.851 36.982,43.936 10.27,55.542z" /> <path d="M465.205,228.303c-17.824,-2.58 -7.784,-35.739 5.02,-38.779c3.501,-7.83 17.502,-10.824 22.89,-4.606c-0.642,-0.817 0,-1.113 0.968,-1.149c-0.203,0 -0.313,0 -0.461,0c5.756,-2.718 14.875,1.473 19.711,4.744c6.496,4.374 6.08,12.943 12.482,15.935c-3.132,8.428 -5.018,13.125 -3.869,22.29c-10.915,4.745 -12.434,13.311 -28.508,11.929c-7.738,-0.646 -28.693,-0.093 -28.232,-10.363z" /> <path d="M534.054,434.583l5.02,-7.184c-2.119,1.472 -4.929,2.514 -7.139,2.256c0,-1.244 0.693,-4.469 1.061,-5.711c9.99,-1.519 26.802,-3.96 31.04,7.323c5.572,14.895 -11.006,16.258 -20.955,15.153c-2.301,-4.468 -6.539,-7.323 -9.026,-11.836z" /> <path d="M345.322,766.589c-3.546,8.703 -5.618,17.363 -9.303,25.836c-3.224,7.462 -8.564,13.082 -12.618,20.864c-3.133,5.897 -6.357,13.911 -8.751,21.05c-7.969,-2.533 -15.751,-4.74 -23.258,-6.632c0.689,-1.565 1.241,-3.179 1.657,-4.652c4.19,-14.737 9.162,-28.647 11.881,-43.752c3.683,-20.541 12.296,-36.062 21.876,-54.898c8.246,-16.165 16.397,-34.633 20.864,-51.766c0.368,-1.428 1.058,-4.418 1.61,-7.598c7.646,0.181 15.199,-0.275 22.706,-0.968c0.092,6.861 -0.044,14.232 -1.242,20.402c-2.071,10.87 -11.513,18.561 -14.921,27.91c-6.447,17.594 -3.224,36.199 -10.501,54.207z" /> <path d="M557.184,528.349c9.856,-4.606 17.316,-10.178 24.593,-15.935c2.119,12.939 2.715,27.219 2.899,33.989c0,0.601 0,1.289 0,1.935c-2.302,0.11 -4.469,0.184 -6.356,0.184c-43.797,0.463 -87.871,2.029 -131.716,3.271c-14.505,0.416 -29.886,0.048 -44.855,0.6c0,-0.173 0.036,-0.357 0.036,-0.505c0.874,-10.269 2.765,-18.604 4.238,-28.553c0.357,-2.396 0.541,-4.746 0.689,-7.093c5.943,3.36 12.71,6.863 19.252,8.473c9.397,2.348 29.292,-3.87 28.094,9.394c19.159,4.42 29.799,11.561 51.536,8.842c19.204,-2.398 34.448,-6.588 51.581,-14.602z" /> <path d="M425.364,377.195c-9.166,-2.624 -5.206,-10.916 -11.192,-17.086c2.623,-3.729 6.31,-5.563 10.777,-5.895c5.895,1.016 12.297,1.521 18.238,3.731c1.234,4.053 1.794,8.291 1.198,12.804c-7.507,1.612 -10.731,8.798 -19.02,6.448z" /> <path d="M387.646,386.595c-1.38,5.847 0.83,16.348 1.382,22.612c0.968,10.362 5.343,15.244 10.133,24.133c9.44,17.409 12.296,34.819 28.738,45.641c14.83,9.762 35.923,14.139 54.391,16.901c27.541,4.145 39.239,-1.796 61.253,-15.153c18.516,-11.145 36.338,-18.143 40.944,-40.805c1.473,-7.135 -0.074,-16.072 0,-23.349c0.093,-11.652 4.017,-23.81 3.869,-34.864c-0.184,-14.183 -15.567,-31.268 -25.284,-41.631c-7.784,-8.291 -18.053,-12.711 -27.725,-18.008c-8.52,-4.652 -17.041,-13.309 -25.514,-17.04c-11.606,-5.019 -26.159,-4.834 -38.179,-1.887c-9.487,2.35 -28.232,2.948 -32.377,11.192c-7.691,3.915 -14.6,7.921 -13.632,15.796c-7.553,-1.612 -18.193,8.15 -22.706,13.493c-8.012,9.396 -1.656,14.969 -4.006,24.87c-1.566,6.402 -9.763,11.697 -11.283,18.099zM394.039,472.783c-5.02,-7.83 -8.565,-16.119 -9.533,-20.448c-3.637,-16.488 -16.349,-29.29 -14.507,-45.916c1.426,-13.128 1.887,-28.278 1.887,-42.556c0,-9.167 2.025,-19.85 7.782,-27.312c5.48,-7.093 11.882,-7.6 19.389,-12.113c3.454,-2.073 3.915,-5.897 6.955,-7.968c5.527,-3.731 14.783,-7.507 20.264,-10.731c7.92,-4.654 13.816,-7.602 23.81,-6.725c-11.699,-4.697 19.664,-7.735 28.369,-9.349c18.975,-3.499 37.028,-1.565 54.114,3.271c15.015,4.238 21.417,8.521 32.009,19.298c11.422,11.606 23.535,16.163 29.844,32.377c5.481,14.047 15.677,26.113 15.751,41.864c0.092,14.369 0.6,31.272 -1.242,45.825c-2.028,15.745 -10.64,26.985 -20.173,38.407c-5.895,7.046 -11.744,11.929 -18.008,15.935l-1.61,-0.294c0.459,0.093 0.877,0.277 1.289,0.461c-8.521,5.388 -17.961,9.116 -29.706,14.046c-19.297,8.06 -41.448,11.377 -63.049,8.521c-14,-1.841 -48.266,-5.617 -52.825,-20.402c-11.099,7.458 -22.797,-3.826 -30.765,-16.214h-0.036z" /></svg>