<svg xmlns="http://www.w3.org/2000/svg" viewBox="0 0 891 896" width="891" height="896"><path d="M400.204,-0.018h0.055c1.061,0.134 2.135,0.209 3.238,0.328l2.8,0.164c1.317,0.028 2.645,0.028 4.007,0c-3.041,0.362 -9.15,0.989 -1.594,2.472c12.514,0.156 2.854,0.878 9.772,2.636c12.39,0.778 2.346,-2.492 20.534,0.109c1.961,0.198 0.196,-0.829 -1.758,-1.428c4.197,0.631 8.156,1.023 11.036,1.206c6.117,0.08 12.097,-0.052 19.93,0.823c-5.315,-0.482 -9.339,-1.005 -2.143,-1.648c-3.12,1.204 9.872,1.316 14.548,2.199l1.261,-0.768c3.756,0.881 -0.212,1.161 -3.293,1.372c0.084,-0.287 -1.015,-0.521 -3.293,-0.493c-5.998,0.519 -3.836,3.402 5.6,3.842c10.152,-0.597 8.514,-2.549 6.752,-3.348c1.283,0.089 2.402,0.164 3.403,0.164c1.154,0 2.168,-0.055 3.129,-0.055c1.556,0.24 2.136,0.246 3.019,0.274c0.763,0.028 1.577,0.028 2.255,0c1.404,-0.061 2.59,-0.158 3.952,-0.219c2.68,-0.082 5.7,0.073 10.817,1.594c2.921,0.517 11.996,5.386 21.195,7.468c5.074,-0.759 -11.306,-3.501 -5.71,-3.897c3.64,1.755 7.42,3.059 11.42,3.623c4.077,0.52 8.253,0.702 12.572,0.823c8.713,0.282 17.992,0.366 27.947,2.964l-2.8,1.758c2.278,0.399 4.519,0.668 6.916,1.042c1.401,0.722 2.86,1.481 4.339,2.199c1.283,0.605 2.61,1.214 4.007,1.813l-5.929,-4.228c4.756,1.84 14.444,7.121 10.487,6.972c10.392,3.282 12.009,5.201 20.807,10.158c-9.513,-4.88 -0.046,-0.375 -7.522,-2.855c4.117,2.563 6.639,3.975 8.838,5.055c1.078,0.48 2.103,0.936 3.183,1.372c1.162,0.44 2.349,0.885 3.788,1.484c0.556,0.399 1.388,1.071 2.307,1.758c-1.439,-0.282 0.905,3.243 3.183,5.162c6.355,3.716 15.562,12.027 23.717,18.062l-0.383,0.438l3.293,2.636l2.8,2.417c3.276,1.037 6.47,2.116 9.828,3.238l10.543,3.515c7.038,2.278 14.063,4.364 21.14,5.6c0.355,0.061 0.703,0.191 1.042,0.219l-1.484,-0.547c-2.082,-1.572 -0.519,-1.518 5.6,0c1.759,2.2 3.823,4.863 5.819,7.303c1.681,2.084 3.245,3.998 4.284,4.999c0.279,1.237 -0.059,2.145 1.703,4.503c1.595,-0.961 4.759,4.696 6.916,6.093c2.997,5.076 -2.222,0.789 3.897,8.784c2.474,3.041 3.506,2.762 3.842,1.922c0.159,0.997 1.342,3.343 2.143,4.943c1.116,1.519 3.56,4.037 5.436,5.874c-1.68,-0.877 -3.378,-3.289 -4.339,-4.007c-1.161,0.282 1.676,2.453 0.715,3.293c3.399,3.319 2.616,0.028 6.533,4.503l-5.055,-2.636c1.481,1.878 4.147,3.398 5.108,4.116c-1.482,-1.058 -2.353,-1.198 -2.91,-0.987l5.108,4.777c1.665,-0.277 -0.79,-4.75 0.328,-5.272c3.92,4.319 7.857,7.715 11.693,10.872c1.919,1.52 3.855,3.064 5.655,4.503l2.691,2.199l3.074,2.581l2.255,3.019l-2.526,-0.659c2.961,3.88 4.564,5.661 6.203,6.697l4.228,6.315c-2.957,-3.263 -4.282,-4.142 -5.6,-3.623c4.959,6.399 10.814,15.743 13.891,16.143l-0.438,-0.055c5.159,9.436 17.936,27.849 16.856,27.728c7.316,8.873 14.734,21.542 16.856,20.424c4.52,5.157 8.161,16.048 13.399,18.284c3.635,7.437 -0.194,0.669 -3.074,-0.328c3.682,7.476 11.691,11.78 10.655,15.978c6.717,7.319 -0.836,-2.293 2.362,-0.493c-0.4,0.797 0.209,2.249 1.206,4.007c0.119,6.236 2.468,16.156 2.032,23.115c1.757,3.796 0.276,-4.11 2.472,2.526c-0.854,-0.562 -0.566,3.087 -0.383,4.887l2.143,1.539l-2.472,6.643l1.097,7.799l0.109,0.328c2.081,1.484 0.295,-4.131 6.533,7.743l-0.659,-0.878c0.242,5.234 6.817,10.942 10.817,23.334c-1.483,-4.198 -1.611,-1.271 -2.691,-2.307l3.733,6.203c-0.376,-0.551 -0.669,-0.76 -0.548,0c0.84,4 1.75,4.647 2.91,6.643c0.514,1.403 0.941,2.83 1.152,5.71c-0.643,-1.915 -1.252,-2.727 -1.648,-2.91l2.636,9.772l1.097,2.087l-0.715,-0.603l8.236,30.747l-9.333,45.845l0.328,1.042c0.2,0.06 0.476,0.081 0.659,0.109l2.199,6.259c0.925,-0.524 0.28,-5.072 -0.438,-7.908c-0.079,-2.8 5.859,9.502 8.181,16.418c4.877,18.949 -2.363,4.823 0.438,17.898l2.255,5.765l1.042,2.855v-0.164l1.316,3.678l-0.603,3.403l-0.328,2.526h-1.097c-1.276,2.563 -0.521,4.254 -0.493,5.055c-1.157,-1.519 -3.779,13.575 -5.655,20.371l1.813,-2.199c-1.716,19.711 -10.148,29.372 -12.024,44.802l-0.219,11.091l-2.307,1.813c0,1.521 -0.109,2.762 -0.109,3.842c-0.319,4.118 -0.261,6.529 -3.183,14.165c-1.997,4.877 -3.91,9.801 -5.71,14.879l-2.636,7.577l-2.636,8.127c-8.951,13.792 -16.264,26.128 -24.982,40.08l-6.643,6.533l-6.259,6.259c-4.241,4.042 -8.491,8.079 -12.849,11.915c0.596,-0.082 1.438,-0.802 3.238,-2.199c-4.238,3.077 -8.43,6.708 -11.31,9.388c-4.124,6.636 -7.658,14.019 -10.655,20.698c-1.482,3.397 -3.02,6.746 -4.503,10.104l-2.255,5.055l-1.261,2.526l-1.977,3.678c-1.558,1.202 -3.193,2.37 -4.832,3.571c-1.317,0.878 -2.645,1.784 -4.007,2.745c-2.758,1.8 -5.64,3.538 -8.838,5.217l1.206,-1.703c-11.995,8.914 1.276,-1.817 -8.236,3.623c-0.239,3.161 -14.716,12.174 -20.753,18.449c0.762,-1.201 3.087,-2.997 4.887,-4.832c-1.599,0.599 -2.92,-0.087 -6.038,2.91c-2.278,3.481 -6.331,7.613 -11.091,11.971c-2.438,2.081 -4.921,4.255 -7.522,6.533c-2.438,2.037 -4.906,4.163 -7.303,6.203c-1.762,2.317 -3.399,4.575 -4.999,6.697c-2.318,0.393 -11.854,9.633 -18.172,13.232c-0.56,1.562 -1.495,4.478 -2.255,7.194c-1.479,1.199 -2.681,2.395 -3.678,3.678c-0.601,0.722 -1.18,1.517 -1.703,2.199c-0.643,0.874 -1.268,1.741 -1.867,2.581c-1.68,0.644 -3.933,1.5 -5.055,2.143l5.491,-1.484l6.478,-7.908c-0.03,0.171 -0.055,0.317 -0.055,0.438c0.238,-0.44 0.749,-1.121 1.152,-1.758c2.118,-2.558 3.18,-4.017 2.581,-3.459c5.038,-3.76 0.668,1.123 2.307,1.922c-1.236,1.522 -3.109,3.686 -4.832,5.765c-0.881,1.079 -1.722,2.058 -2.526,3.019c-1.438,1.633 -2.752,3.025 -3.788,4.061c-1.804,0.366 -2.993,0.477 -3.515,0.328c-2.882,0.703 -3.38,0.829 -4.777,1.097c-1.236,0.238 -2.489,0.5 -4.007,0.768c-1.76,0.722 -3.783,1.355 -5.984,1.758l0.933,-0.383c-0.392,-0.121 -0.838,-0.136 -1.316,-0.164c-4.6,0.803 -9.824,2.627 -14.824,4.668c-2.518,1.041 -4.981,2.058 -7.303,3.019c-1.155,0.522 -2.281,1.044 -3.403,1.484c-0.482,0.239 -0.965,0.476 -1.484,0.659c-0.03,0.11 -0.055,0.267 -0.055,0.328c-0.029,-0.11 -0.055,-0.239 -0.055,-0.328c-0.028,-0.478 0.121,-0.993 0,-1.261c-0.238,-0.279 -0.438,-0.454 -0.878,-0.603c-0.238,-0.359 -2.406,0.425 -2.745,-0.219c-0.157,0.096 0.025,0.065 0.547,-0.274c0.319,-0.156 0.876,-0.493 1.594,-0.933c3.516,-0.88 9.657,-2.526 16.691,-4.284c-0.959,0.04 -1.603,-0.069 -1.977,-0.547c-2.921,0.24 -5.498,0.821 -8.017,1.539c-1.281,0.396 -2.505,0.876 -3.788,1.316c-1.319,0.395 -2.76,0.938 -3.238,1.206l-0.933,0.715l-1.484,1.152c-1.118,0.8 -2.202,1.534 -3.403,2.417c-2.362,1.601 -5.034,3.332 -8.236,5.055c0.718,-0.682 2.222,-2.022 1.261,-2.143c-4.873,2.601 -8.429,6.39 -8.948,7.908c-0.999,-0.319 -4.139,0.878 -7.577,2.636c-1.758,0.879 -3.538,1.976 -5.217,3.019c-0.806,0.56 -1.644,1.006 -2.362,1.484c-0.918,0.675 -1.766,1.365 -2.526,1.922c-0.139,0.089 -0.3,0.246 -0.328,0.274c-3.202,1.08 -4.152,1.607 -5.71,2.087c-1.558,0.48 -3.661,0.849 -8.181,1.372l3.897,-1.648c-11.035,0.437 -8.709,2.727 -17.788,2.91c3.596,0 3.764,-1.163 1.042,-1.042c-11.312,2.036 -11.483,2.708 -19.437,5.984l1.316,-1.977c-9.596,1.954 -27.78,5.322 -28.22,2.964c1.162,1.2 -1.058,2.004 -4.777,2.526c-1.841,0.28 -4.12,0.51 -6.478,0.659c-2.24,0.11 -4.6,0.207 -6.916,0.328c-4.12,0.637 -8.008,1.19 -10.487,1.594c2.837,-0.602 3.304,-1.486 3.515,-1.922c-6.116,1.96 -12.35,3.369 -18.668,4.449l-9.497,1.484l-10.049,1.428l-8.127,0.328l-7.855,0.493l-3.019,-2.472c-9.477,0.759 -11.808,6.238 -22.127,6.916l3.678,-1.594c-4.282,0.356 -8.118,0.804 -10.158,0.987c-3.555,-0.718 -6.685,-1.361 -9.607,-1.922c-2.598,-0.519 -4.994,-1.017 -7.358,-1.539c-4.713,-1.037 -9.272,-2.065 -14.988,-3.348l0.659,-1.703c-2.318,-0.084 -4.867,-0.447 -7.468,-0.715c-2.72,-0.321 -5.498,-0.648 -8.017,-0.987c-1.758,-0.434 -1.96,-0.454 -2.8,-0.603c-3.279,-2.638 -9.278,-5.049 -16.637,-7.413c-3.637,-1.116 -7.743,-2.347 -11.859,-3.623c-2.037,-0.643 -4.124,-1.226 -6.203,-1.867l-6.916,-2.307c-2.278,-1.235 -4.516,-2.38 -6.752,-3.623c-1.999,-1.12 -3.937,-2.37 -5.819,-3.571c-3.84,-2.4 -7.368,-4.87 -10.323,-7.468l-2.8,2.255c-2.56,-1.398 -5.405,-2.966 -8.127,-4.449c-1.352,-0.764 -2.614,-1.547 -3.897,-2.307c-1.157,-0.679 -2.792,-1.73 -2.581,-1.758c-0.196,-0.199 0.106,-0.145 -0.493,-0.328c-0.478,-0.239 -0.887,-0.504 -1.261,-0.715c-0.84,-0.482 -1.554,-1.017 -2.032,-1.539l1.758,0.547c1.48,-2.277 -8.124,-2.185 -13.123,-4.061c-3.92,-0.719 -8.201,-0.098 -4.999,1.261c-3.56,-1.198 -7.424,-2.422 -11.42,-3.623c-4.479,-1.234 -9.143,-2.559 -13.782,-3.842c-4.039,-2.761 -8.092,-5.518 -11.971,-8.236c-3.522,-2.478 -6.921,-4.915 -10.158,-7.194c-6.355,-4.637 -11.724,-8.914 -15.043,-12.352c-0.521,-0.317 -0.988,-0.667 -1.428,-0.878c-1.118,-1.081 -2.285,-2.147 -3.403,-3.183c-0.997,-0.922 -1.963,-1.808 -2.964,-2.691c-1.919,-1.759 -3.818,-3.439 -5.655,-5.162c-3.837,-3.317 -7.44,-6.565 -11.201,-9.884c-3.676,-3.28 -7.419,-6.688 -11.255,-10.323c-3.997,-3.479 -8.088,-7.139 -12.407,-11.255l0.493,-0.055c-5.676,-5.914 -17.004,-17.762 -15.043,-19.765c-13.196,-11.594 -23.792,-16.645 -38.105,-32.118l4.007,2.417c-0.565,-0.643 -1.134,-1.243 -1.813,-1.922c-0.84,-0.764 -1.753,-1.671 -2.636,-2.472c-1.243,-1.756 -1.754,-2.264 -2.472,-3.183c-0.718,-0.809 -1.323,-1.536 -1.922,-2.255c-1.279,-1.398 -2.322,-2.572 -2.8,-3.129c-1.001,-1.561 0.246,-0.715 0.768,-0.715c-2.04,-4.717 -4.974,-6.354 -7.413,-9.552l1.648,0.878c-1.638,-3.202 -3.695,-6.534 -6.093,-10.049c-1.198,-1.763 -2.457,-3.546 -3.733,-5.381c-1.482,-2 -3,-4.046 -4.558,-6.203c-2.759,-5.998 -5.685,-12.266 -8.565,-18.504c-2.759,-6.038 -5.376,-12.156 -7.577,-17.953c1.758,3.559 1.962,1.256 1.813,-0.383c-0.637,-0.718 -1.409,-1.665 -2.087,-2.745c-0.317,-0.518 -0.639,-1.049 -1.042,-1.648c-0.357,-0.721 -0.519,-0.934 -1.206,-2.417c-0.482,-1.441 -1.049,-2.958 -1.648,-4.558c-0.44,-1.441 -0.962,-2.966 -1.484,-4.449c-0.878,-3.077 -1.772,-6.256 -2.691,-9.333c-1.68,-6.114 -3.182,-11.794 -4.339,-15.152l2.526,5.055c-3.366,-8.798 -3.214,-12.209 -3.515,-16.965c0.077,-4.282 0.246,-7.629 -2.032,-15.704l-0.219,10.104c-0.638,-7.077 -2.116,-12.912 -3.238,-11.036c-0.278,-8.276 2.172,-1.393 0.493,-13.672c0.758,-0.678 1.994,8.756 2.472,4.558l-0.383,-17.348v-0.055c0.089,-0.156 -0.043,-1.303 -0.164,-2.143c-0.443,-1.115 -1.053,-2.765 -1.977,-5.162c-3.157,2.726 -5.015,-13.292 -5.655,-3.897c-2.157,-5.796 -4.074,-11.435 -5.874,-16.91c-1.8,-5.636 -3.549,-11.117 -5.272,-16.472c-0.434,-2.837 -0.858,-5.532 -1.261,-8.291c-0.48,-2.604 -0.932,-5.18 -1.372,-7.743c-0.959,-5.079 -2.044,-10.142 -3.403,-15.098c0.358,-1.599 0.423,-3.783 0.274,-6.423c-0.101,-1.361 -0.344,-2.845 -0.493,-4.284c-0.119,-0.764 -0.213,-1.506 -0.274,-2.307c-0.183,-1.118 -0.398,-2.302 -0.547,-3.459c0.999,-3.237 2.018,-6.555 3.019,-9.716c0.918,-2.796 1.741,-5.486 2.581,-7.687c1.644,-4.439 3.24,-7.173 4.558,-6.093c3.321,-11.316 5.429,-20.58 5.055,-28.22c0.951,-5.491 1.925,-11.397 2.91,-15.207c-0.922,7.794 -2.789,20.279 -2.91,26.517c2.601,-10.39 4.189,-25.472 5.108,-31.349l3.129,-2.032c0.362,-8.874 3.571,-7.082 3.571,-15.317c-0.03,-0.163 -0.027,-0.285 -0.055,-0.659c-0.168,0.287 -0.344,0.398 -0.493,0.547c-0.196,0.196 -0.42,0.414 -0.603,0.715c0.061,-0.277 0.191,-0.585 0.219,-0.768c2.338,-15.111 0.058,-16.27 1.977,-31.185l0.878,0.878c0.52,-2.039 0.647,-4.521 0.768,-7.084c0.06,-1.278 0.043,-2.566 0.164,-3.842l0.328,-1.922c0.168,-0.802 0.317,-1.495 0.438,-2.255c0.438,-1.083 0.686,-1.721 0.987,-2.199c0.321,-0.56 0.778,-0.95 1.152,-1.428l-1.261,3.842l-0.933,6.752c1.122,-0.519 2.158,-3.005 3.238,-6.203c1.201,-2.322 2.07,-3.965 2.91,-5.327c2.833,-10.315 -1.548,-4.467 -0.109,-9.662c2.239,-1.603 1.028,-0.213 1.428,3.788c1.402,-5.278 3.01,-11.345 4.449,-17.184c0.718,-2.921 1.365,-5.78 1.922,-8.455c0.559,-2.962 1.099,-5.659 1.539,-8.017c0.879,-1.477 1.356,-2.54 1.539,-3.183c0.509,-0.279 0.547,0.438 0.547,0.438c7.595,-9.797 11.711,-20.403 17.348,-25.639l-1.261,2.087c1.718,-1.398 3.349,-3.221 4.832,-5.217l2.143,-3.183c0.761,-1.043 1.473,-2.136 1.594,-2.472c0.038,-0.439 0.703,-2.435 1.042,-3.678c0.483,-1.357 0.936,-2.653 1.372,-3.733c0.922,-2.159 1.865,-3.529 3.183,-3.678c2.318,-4.116 -3.805,9.927 0.715,3.571c6.276,-13.394 0.096,-10.32 5.655,-22.073c-0.722,1.605 -0.313,1.149 -0.164,1.867c1.556,-4.6 3.451,-9.908 5.491,-15.704c4.198,-3.92 8.761,-8.217 12.959,-12.133c3.278,-1.56 7.061,-4.231 10.982,-7.468c1.92,-1.679 3.944,-3.439 5.984,-5.162c1.919,-1.717 3.9,-3.499 5.819,-5.217c1.121,-1.721 2.226,-3.429 3.348,-5.108c1.198,-1.837 2.38,-3.621 3.623,-5.217c2.478,-3.359 4.949,-6.329 7.468,-8.565c-3.716,3.118 0.666,-3.948 0.109,-4.284c0,0 0.046,0.702 0.603,0.328c2.93,-4.357 2.177,-5.616 2.855,-7.577c0.915,-0.839 1.839,-2.246 2.8,-3.842c0.998,-1.839 2.128,-3.87 3.129,-5.71c1.116,-1.322 2.191,-2.574 3.074,-3.571c0.799,-0.84 1.586,-1.545 2.143,-1.813c-0.559,-0.679 2.643,-3.419 6.038,-6.697c-6.154,7.287 -0.862,3.442 -3.019,7.358c10.554,-9.473 9.103,-14.001 20.259,-23.717l2.855,-1.813l1.484,-0.933l1.977,-1.428l2.199,-0.659c0.643,-3.04 13.339,-7.754 12.74,-8.51c2.638,-0.24 6.175,-1.414 6.203,-0.055c5.113,-3.001 13.733,-5.55 15.372,-7.908l-5.655,1.867c4.278,-1.679 8.564,-3.751 11.365,-5.272c8.677,-5.998 15.711,-12.263 25.147,-16.582l1.703,3.293c2.682,-1.079 4.969,-2.486 7.084,-4.007c2.241,-1.679 4.363,-3.219 6.478,-4.777l2.691,-1.042c0.72,-0.282 1.547,-0.585 2.307,-0.768c1.517,-0.383 3.098,-0.687 4.777,-0.715c-3.083,-0.32 -3.493,0.226 1.867,-2.855c-1.362,0.362 -3.162,0.973 -5.162,1.813c-0.959,0.357 -1.952,0.821 -3.074,1.261c-1.198,0.439 -2.45,0.95 -3.733,1.428c-1.197,0.8 -2.477,1.657 -3.678,2.417c1.036,-0.921 1.645,-1.646 3.403,-2.964c2.322,-1.004 3.02,-1.481 4.503,-2.199l3.897,-2.143l-8.784,3.403l-9.662,6.643c6.436,-5.679 6.136,-5.08 2.417,-4.558c1.039,-0.803 1.986,-1.544 2.91,-2.143c0.436,-0.276 0.913,-0.612 1.316,-0.823c0.719,-0.394 1.389,-0.81 2.032,-1.206c0.677,-0.187 1.299,-0.42 1.977,-0.603c0.357,-0.119 0.723,-0.153 1.097,-0.274c0.719,-0.139 1.334,-0.317 1.977,-0.438c1.277,-0.28 2.387,-0.447 3.623,-0.715c2.479,-0.516 5.282,-1.264 9.278,-3.183c4.12,-0.798 0.443,1.815 5.162,1.097c3.999,-1.921 8.161,-2.852 12.079,-3.571c1.998,-0.399 3.925,-0.741 5.765,-1.042c1.919,-0.482 3.106,-0.839 5.546,-1.758c-0.641,0.32 -0.979,0.619 -0.768,0.768c0.282,-0.179 0.638,-0.267 0.878,-0.328c3.322,-0.215 6.145,-0.344 8.346,-0.493c2.121,-0.2 3.738,-0.533 4.613,-1.097l-5.6,-0.274c4.919,0 5.703,-1.514 15.098,-0.878c4.05,-0.717 6.768,-1.969 5.381,-2.526c2.167,0.274 4.157,0.749 2.91,1.539c6.238,-0.121 8.436,-0.93 9.994,-1.648c0.8,-0.356 1.388,-0.719 2.307,-0.987c0.321,-0.145 1.16,-0.267 1.428,-0.328c0,-0.03 0.043,-0.083 0.164,-0.055c0.089,-0.028 0.098,-0.028 0.219,0c0.2,-0.032 1.534,-0.597 2.417,-0.933c-0.786,0.516 -1.603,1.234 -1.042,1.206c3.28,-1.475 5.815,-2.869 7.855,-4.228c-5.441,3.161 -4.176,3.36 -3.293,3.571c0.45,0.036 0.796,0.193 0.274,0.715c-0.317,0.238 -0.808,0.564 -1.648,1.042c-0.478,0.196 -1.007,0.539 -1.648,0.878c-0.564,0.282 -1.465,0.74 -1.648,0.768c0.196,0.229 0.391,0.328 0.659,0.328c0.44,-0.04 0.885,-0.255 1.484,-0.438c1.122,-0.48 2.5,-1.107 3.897,-1.867c2.761,-1.596 5.781,-3.485 8.017,-4.284c5.682,-4.633 -0.643,-2.96 2.032,-5.6c0.281,0.596 2.856,-0.76 6.093,-2.199l-3.733,0.274c2.639,-1.441 5.184,-2.792 8.181,-4.832l-4.943,3.403c2.198,-1.079 5.009,-2.16 8.127,-3.403c1.558,-0.644 3.164,-1.409 4.887,-2.087c0.839,-0.434 1.784,-0.865 2.745,-1.261c1.426,-0.756 2.836,-1.534 4.339,-2.362zM404.948,70.517c-1.013,0.211 -2.008,0.519 -3.019,0.547c-6.894,0.545 -13.8,0.844 -20.698,1.484c-5.472,0.521 -11.001,1.399 -16.472,2.143c-4.948,0.682 -9.935,1.484 -14.771,2.91c-3.076,0.859 -6.076,1.982 -9.115,3.183c-1.161,0.446 -2.303,1.072 -3.238,1.922c-1.426,1.153 -3.054,1.723 -4.777,2.255c-1.763,0.533 -3.619,1.014 -5.381,1.758c-5.956,2.475 -11.92,4.954 -17.843,7.577c-7.007,3.041 -14.291,5.469 -21.414,8.127c-4.085,1.54 -8.103,3.315 -12.188,4.887c-2.137,0.828 -4.321,1.611 -6.533,2.143c-3.221,0.71 -6.176,1.955 -8.948,3.678c-6.337,3.857 -12.72,7.631 -19.055,11.529c-2.849,1.766 -5.908,3.106 -9.059,4.339c-3.485,1.351 -6.89,2.871 -10.377,4.339c-3.259,1.423 -6.475,2.934 -9.772,4.284c-4.799,1.881 -9.222,4.412 -13.232,7.632c-3.676,2.956 -7.241,6.059 -10.763,9.171c-4.535,4.009 -8.056,8.72 -10.268,14.384c-2.734,6.893 -6.863,12.973 -11.474,18.668c-4.047,4.945 -7.924,9.93 -11.859,14.988c-3.56,4.608 -6.814,9.528 -9.662,14.659c-2.997,5.511 -5.876,11.091 -8.838,16.637c-2.589,4.949 -3.707,10.361 -4.943,15.759c-1.988,8.77 -3.823,17.648 -6.371,26.189c-4.086,13.943 -7.998,27.956 -12.794,41.674c-1.61,4.648 -2.962,9.33 -3.897,14.165c-0.64,3.296 -1.236,6.592 -1.758,9.884c-0.976,5.998 -2.819,11.736 -4.394,17.624c-1.537,5.957 -3.444,11.832 -6.259,17.348c-1.499,2.92 -2.124,6.096 -2.307,9.388c-0.298,4.984 -0.808,10.005 -1.372,14.988c-0.487,4.872 -1.194,9.751 -1.758,14.659c-0.149,1.126 -0.043,2.275 -1.206,3.019v6.315c0.408,0.317 0.945,0.398 1.316,0.823c1.647,1.607 3.679,2.374 5.929,2.691c3.485,0.562 6.984,1.127 10.432,1.977c1.836,0.522 3.701,0.314 5.162,-1.261c0.45,-0.421 1.309,-0.878 1.977,-0.878c1.8,-0.073 3.385,-0.947 5.108,-1.372c1.09,-0.266 1.844,-0.908 2.526,-1.758c0.751,-1.008 1.301,-2.04 1.484,-3.348c0.596,-3.293 1.757,-6.483 3.183,-9.552c0.529,-1.198 0.758,-2.547 1.097,-3.897c0.224,-0.786 0.392,-1.673 0.603,-2.417c0.459,-1.424 0.631,-2.785 0.603,-4.284c0,-1.455 0.336,-2.913 0.547,-4.339c0.235,-1.879 0.631,-3.763 0.659,-5.6c0,-3.485 0.413,-6.878 1.316,-10.213c0.371,-1.315 0.61,-2.699 0.878,-4.007c0.637,-3.069 1.554,-6.012 3.129,-8.784c1.09,-1.912 1.821,-3.989 2.417,-6.093c2.06,-7.347 4.05,-14.784 6.038,-22.127c0.028,-0.212 0.081,-0.392 0.109,-0.603c1.084,-5.472 2.058,-10.922 3.183,-16.363c0.45,-2.139 1.008,-4.277 1.648,-6.371c1.501,-4.419 3.132,-8.806 4.558,-13.343c2.212,-6.858 4.637,-13.63 8.236,-19.93c1.122,-1.986 2.048,-4.123 2.91,-6.259c1.011,-2.329 1.605,-4.755 1.484,-7.303c-0.111,-2.881 0.523,-5.645 1.648,-8.236c2.848,-6.668 3.543,-13.792 4.668,-20.807c0.562,-3.633 1.438,-7.103 3.238,-10.323c1.764,-3.144 3.346,-6.276 5.108,-9.388c1.125,-1.986 2.51,-3.873 3.897,-5.71c2.064,-2.625 4.235,-5.195 6.371,-7.743c1.084,-1.306 2.187,-2.534 3.238,-3.842c1.613,-1.912 3.313,-3.788 4.777,-5.819c2.547,-3.635 5.394,-6.906 8.729,-9.828c2.625,-2.36 5.02,-5.027 7.303,-7.799c1.048,-1.274 2.147,-2.521 3.348,-3.678c2.885,-2.731 5.845,-5.387 8.729,-8.127c3.371,-3.22 7.113,-5.856 11.31,-7.799c10.042,-4.647 19.684,-10.158 29.317,-15.704c2.246,-1.314 4.574,-2.549 6.861,-3.678c2.097,-1.097 4.319,-1.692 6.643,-1.813c1.838,-0.116 3.496,-0.684 5.108,-1.428c3.411,-1.605 6.803,-3.237 10.213,-4.777c5.172,-2.325 10.311,-4.649 15.484,-6.861c2.771,-1.199 5.607,-2.232 8.455,-3.293c1.763,-0.694 3.599,-1.114 5.436,-1.539c1.911,-0.317 3.927,-0.451 5.874,-0.768c4.648,-0.756 9.299,-1.511 13.946,-2.255c5.997,-0.98 11.875,-2.454 17.459,-4.887c1.725,-0.744 3.549,-1.343 5.272,-2.087c6.861,-2.93 13.976,-4.116 21.359,-4.116c6.595,0 13.225,-0.066 19.82,0.055c5.624,0.118 11.232,0.478 16.856,1.539c5.511,1.011 11.162,1.837 16.746,2.581c7.869,1.083 15.772,1.492 23.717,1.703c2.848,0 5.695,-0.098 8.51,-0.219c3.222,-0.107 6.453,-0.317 9.716,-0.438c2.587,-0.118 5.175,0.2 7.687,1.261c1.725,0.723 3.544,1.169 5.381,1.594c3.261,0.671 6.587,1.227 9.884,1.867c4.948,0.895 9.794,1.973 14.329,4.228c3.298,1.646 6.711,2.915 10.158,4.116c16.156,5.733 32.271,11.555 48.427,17.294c2.888,1.054 5.565,2.425 7.962,4.339c1.163,0.894 2.355,1.841 3.515,2.691c8.396,6.448 17.025,12.473 26.244,17.679c4.198,2.317 8.152,5.12 11.639,8.455c3.411,3.232 7.344,5.529 11.803,7.028c2.923,0.967 5.857,2.092 8.784,3.293c3.563,1.425 7.007,3.208 10.158,5.491c13.043,9.632 24.013,21.16 33.383,34.315c2.324,3.222 4.551,6.546 6.315,10.104c1.201,2.368 2.813,4.345 4.613,6.259c2.136,2.286 4.312,4.651 6.259,7.084c4.684,5.886 9.149,11.923 13.946,17.734c3.41,4.123 6.293,8.583 8.729,13.343c1.123,2.254 2.58,4.348 4.228,6.259c1.013,1.174 2.063,2.37 3.074,3.571c1.645,1.916 2.962,4.088 3.897,6.371c2.921,6.968 6.065,13.806 9.552,20.479c0.826,1.616 1.35,3.311 1.261,5.108c-0.222,3.11 0.54,6.045 1.703,8.893c1.533,3.818 2.242,7.811 2.581,11.859c0.715,7.723 1.24,15.447 1.922,23.171c0.488,5.844 1.182,11.664 2.307,17.403c1.501,7.608 2.554,15.23 2.032,23.059c-0.031,1.012 -0.012,2.068 0.109,3.129c0.451,2.964 1.946,4.511 4.943,4.722c2.51,0.12 5.01,0.191 7.522,0.219c4.237,0.189 7.504,-1.752 9.828,-5.162c0.789,-1.241 1.433,-2.541 2.143,-3.788c0.191,-0.213 0.476,-0.448 0.659,-0.659l-0.055,-7.577c-0.189,-0.831 -0.458,-1.618 -0.547,-2.362c-0.478,-7.233 -1.005,-14.394 -0.219,-21.633c0.208,-2.475 0.043,-5.07 0.164,-7.577c0.071,-0.976 -0.151,-2.109 0.603,-2.964v-31.404c-0.183,-0.509 -0.465,-0.896 -0.493,-1.428c-0.189,-3.934 -1.649,-7.568 -2.964,-11.201c-2.212,-5.958 -4.502,-11.943 -7.687,-17.459c-1.422,-2.508 -2.078,-5.256 -2.417,-8.072c-0.56,-4.043 -1.828,-7.912 -3.403,-11.693c-3.938,-9.556 -9.336,-18.21 -16.308,-25.859c-1.047,-1.156 -2.147,-2.336 -3.348,-3.293c-1.803,-1.499 -3.269,-3.296 -4.394,-5.327c-0.564,-1.022 -1.194,-1.903 -1.758,-2.964c-3,-5.391 -6.583,-10.396 -10.817,-14.933c-3.483,-3.745 -6.461,-7.992 -9.388,-12.188c-6.074,-8.769 -12.348,-17.372 -19.656,-25.201c-8.509,-9.222 -17.296,-18.193 -26.628,-26.628c-5.585,-4.95 -11.667,-9.157 -18.228,-12.684c-3.975,-2.138 -7.98,-4.179 -11.915,-6.315c-9.072,-4.799 -17.836,-10.104 -25.971,-16.363c-2.924,-2.254 -6.02,-4.2 -9.059,-6.259c-4.349,-2.888 -8.702,-5.654 -13.013,-8.619c-7.308,-4.942 -14.964,-9.254 -23.171,-12.517c-2.322,-0.947 -4.648,-1.849 -6.972,-2.91c-6.037,-2.624 -12.255,-4.737 -18.778,-5.984c-1.01,-0.107 -1.985,-0.29 -2.964,-0.715c-6.109,-2.548 -12.572,-3.953 -18.943,-5.6c-8.433,-2.102 -16.964,-3.82 -25.585,-4.777c-12.07,-1.303 -23.828,-4.204 -35.633,-6.862c-7.311,-1.643 -14.777,-3.098 -22.237,-3.842c-3.449,-0.428 -6.931,-0.448 -10.377,-0.659c-5.437,-0.318 -10.82,-0.508 -16.255,-0.933c-0.896,0 -1.81,-0.336 -2.745,-0.547h-15.704zM429.153,135.889c-0.556,-0.069 -1.125,0.122 -1.594,0.547c-0.224,0.108 -0.476,0.392 -0.659,0.603c-0.636,1.317 -1.734,2.287 -2.745,3.348c-0.786,0.786 -1.455,1.739 -1.977,2.8c-0.863,1.53 -1.5,3.182 -2.362,4.722c-2.03,3.633 -1.943,3.659 -2.032,7.632c0,2.475 -0.023,5.089 -0.438,7.522c-0.899,5.13 -1.963,10.259 -3.238,15.317c-1.497,6.033 -2.292,12.099 -2.143,18.284c0.074,2.294 -0.365,4.578 -0.548,6.861c-0.142,1.241 -0.294,2.501 -0.383,3.733c-0.149,2.958 0.247,3.711 3.019,4.668c1.802,0.678 3.443,1.465 5.055,2.526c1.652,1.049 3.348,2.117 4.999,3.074c0.179,-0.196 0.3,-0.239 0.328,-0.328c1.947,-6.524 3.831,-13.041 5.819,-19.492c0.603,-2.102 1.117,-4.266 1.206,-6.478c0.071,-1.65 0.336,-3.296 0.547,-4.943c0.117,-0.678 0.231,-1.496 0.987,-1.813c3.258,0.935 6.453,2.056 9.716,2.8c2.022,0.48 4.018,1.017 5.929,1.867c3.224,1.421 4.682,1.021 6.371,-2.199c1.089,-2.189 2.709,-3.34 5.217,-3.129c0.935,0 2.014,-0.013 2.8,-0.438c2.848,-1.499 5.799,-1.549 8.838,-1.428c1.049,0.06 2.118,-0.027 3.129,-0.055c1.35,-0.076 2.111,-0.875 2.526,-2.032c0.18,-0.598 0.303,-1.227 0.274,-1.867c0,-1.766 -0.043,-3.53 -0.164,-5.327c-0.113,-2.742 -1.698,-4.418 -4.284,-5.162c-1.834,-0.561 -3.68,-1.178 -5.819,-1.922c-0.225,0.104 -0.65,0.282 -1.097,0.493c-1.239,0.595 -2.403,1.441 -3.678,1.758c-2.1,0.604 -4.232,0.999 -6.371,1.316c-6.485,0.942 -12.989,0.423 -19.437,-0.109c-0.637,-0.107 -1.267,-0.317 -1.977,-0.438v0.164c-2.473,-3.558 -3.487,-7.372 -3.515,-11.42c-0.061,-3.144 0.069,-6.242 0.219,-9.388c0.102,-2.815 0.217,-5.639 -0.274,-8.455c-0.191,-0.904 -0.463,-1.786 -0.878,-2.636c-0.28,-0.58 -0.82,-0.919 -1.372,-0.987zM460.824,137.14c-1.239,-0.415 -1.915,0.423 -2.362,1.484c0.977,3.26 0.896,3.387 -0.603,6.533c-0.34,0.745 -0.722,1.563 -0.933,2.307c-0.249,0.782 -0.401,1.552 -0.603,2.745c1.42,0 2.389,-0.066 3.293,0.055c1.347,0.108 2.806,0.071 4.007,0.603c3.338,1.462 7.049,1.738 10.158,3.842c0.148,0.148 0.392,0.191 0.603,0.219c0.975,0.276 1.871,-0.03 2.362,-0.987c0.34,-0.637 0.566,-1.288 0.715,-2.032c0.449,-2.435 0.96,-4.934 1.261,-7.413c0.121,-0.943 0.011,-1.843 -0.11,-2.8c-0.409,-2.507 -1.513,-3.69 -4.061,-4.007c-1.571,-0.149 -3.147,-0.109 -4.722,-0.109c-2.996,0 -6.006,0.623 -9.003,-0.438zM339.808,143.666c-0.542,0.257 -0.885,0.905 -1.261,2.032c-0.09,0.212 -0.11,0.392 -0.11,0.603c-0.413,2.06 -1.517,3.64 -3.129,4.887c-1.651,1.242 -2.931,2.779 -3.571,4.722c-0.298,1.055 -1.021,1.83 -2.032,2.255c-2.775,1.053 -5.146,2.779 -7.358,4.722c-1.314,1.232 -2.794,1.839 -4.558,1.867c-0.489,0 -0.993,0.02 -1.484,0.109c-0.488,0.564 -0.45,1.278 -1.206,1.703c-1.422,0.829 -2.801,1.843 -4.116,2.8c-1.948,1.466 -3.936,2.721 -6.148,3.678c-0.976,0.456 -1.951,0.891 -2.855,1.316c-2.327,1.022 -3.983,2.688 -5.108,4.943c-1.429,2.922 -2.315,5.986 -2.526,9.278c-0.149,2.401 0.319,4.6 1.594,6.588c3.114,4.872 6.116,9.741 10.763,13.343c2.661,2.072 4.355,4.852 5.217,8.072c0.341,1.304 0.594,2.699 0.715,4.007c0.336,2.998 1.259,5.757 2.91,8.236c1.872,2.846 3.979,5.606 6.038,8.346c0.822,1.082 1.757,2.049 3.183,2.581c1.314,-1.808 3.188,-2.539 5.327,-2.964c0.715,-0.107 1.433,-0.227 2.143,-0.438c1.947,-0.394 3.854,-0.674 5.765,-1.206c1.945,-0.564 2.889,-1.715 2.8,-3.733c-0.071,-3.187 -0.232,-6.442 -0.603,-9.662c-0.262,-2.4 -1.483,-4.307 -3.733,-5.436c-0.332,-0.213 -0.726,-0.448 -1.097,-0.659c-2.96,-1.581 -5.232,-3.83 -6.807,-6.752c-0.411,-0.831 -0.901,-1.676 -1.316,-2.526c-1.314,-2.67 -2.995,-4.982 -4.943,-7.194c-0.896,-1.008 -1.606,-2.246 -2.199,-3.403c-0.751,-1.571 -1.674,-2.85 -2.91,-4.007c-0.751,-0.757 -1.447,-1.512 -2.087,-2.362c-1.577,-2.061 -0.457,-5.011 1.867,-5.436c1.913,-0.308 3.496,-1.298 5.108,-2.255c0.716,-0.443 1.499,-0.78 2.255,-1.097c4.833,-1.721 9.62,-3.493 14.493,-5.108c1.536,-0.536 2.846,-1.271 3.897,-2.472c0.789,-0.869 1.555,-1.684 2.417,-2.745c-0.157,-0.618 -0.355,-1.059 -0.383,-1.484c-0.26,-1.836 0.085,-2.324 1.922,-2.964c1.273,-0.443 2.547,-0.672 3.897,-1.097c2.212,-0.596 4.404,-1.328 6.315,-2.636c2.061,-1.464 2.387,-2.449 0.328,-4.172c-0.308,-0.212 -0.476,-0.392 -0.659,-0.603c-2.471,-2.744 -5.118,-5.346 -5.874,-9.171c-0.262,-1.275 -1.126,-2.159 -2.362,-2.691c-1.047,-0.421 -2.223,-0.725 -3.348,-1.042c-0.897,-0.211 -1.787,-0.336 -2.691,-0.547c-1.163,-0.356 -1.93,-0.474 -2.472,-0.219zM530.773,159.93c-0.866,0.465 -1.587,0.891 -2.255,1.316c-2.102,1.574 -4.009,3.41 -5.546,5.546c-0.827,1.127 -1.565,2.438 -2.087,3.788c-0.71,1.882 -1.346,3.73 -3.183,4.887c-0.252,0.213 -0.482,0.557 -0.603,0.768c-0.601,1.797 -1.995,2.885 -3.459,3.842c-1.946,1.276 -2.792,3.044 -2.581,5.327c0.061,0.421 0.027,0.836 0.055,1.261c0.039,1.498 0.049,2.86 -1.152,4.061c-0.711,0.714 -1.048,1.734 -1.539,2.691c0.266,1.008 0.482,1.673 0.603,2.417c0.301,2.061 1.695,3.137 3.571,3.348c3.486,0.448 6.895,0.054 10.158,-1.372c1.908,-0.831 2.999,-2.029 2.91,-4.284c-0.074,-1.766 0.153,-3.563 0.274,-5.327c0.262,-3.07 1.516,-5.608 3.952,-7.522c0.489,-0.424 0.937,-0.836 1.428,-1.261c1.274,-1.202 1.966,-2.671 2.087,-4.394c0.089,-1.083 0.128,-2.122 -0.055,-3.183c-0.64,-3.599 -1.322,-7.205 -2.032,-10.763c-0.039,-0.409 -0.279,-0.62 -0.547,-1.152zM553.57,165.682c-0.72,0.31 -1.289,0.927 -1.758,1.922c-0.554,1.095 -0.89,2.314 -1.261,3.515c-0.562,1.795 -1.458,3.256 -3.293,3.788c-1.311,3.482 -2.553,6.57 -3.678,9.716c-2.437,6.821 -5.785,13.169 -10.432,18.833c-0.674,0.858 -1.309,1.843 -1.977,2.8c-2.398,3.304 -4.17,6.992 -5.71,10.817c-2.144,5.288 -2.238,10.817 -1.867,16.363c0.225,3.518 1.907,4.955 4.722,5.272c2.061,0.267 3.882,1.067 5.381,2.417c0.897,0.862 1.59,2.005 2.417,2.855c0.824,0.979 1.622,1.95 2.526,2.8c0.789,0.729 1.816,0.635 2.526,-0.109c0.384,-0.382 0.686,-0.836 0.987,-1.261c1.12,-1.614 2.243,-3.272 3.403,-4.887c2.36,-3.231 4.649,-6.483 6.148,-10.158c0.598,-1.454 1.537,-2.539 3.074,-2.964c1.758,-0.56 2.708,-1.788 3.348,-3.403c1.242,-3.112 1.529,-6.315 1.261,-9.607c-0.076,-1.082 -0.604,-2.049 -1.539,-2.581c-0.564,-0.317 -1.139,-0.506 -1.703,-0.823c-1.201,-0.638 -1.847,-1.724 -1.758,-3.074c0.04,-0.943 0.044,-1.895 0.383,-2.745c0.675,-1.648 1.555,-3.237 2.417,-4.777c0.859,-1.404 2.153,-2.241 3.842,-2.362c1.16,-0.104 2.278,-0.404 3.403,-0.493c2.248,-0.181 3.599,-1.415 4.503,-3.403c0.824,-1.914 1.865,-3.674 2.8,-5.546c0.715,-1.383 1.55,-2.802 2.143,-4.228c0.293,-0.68 0.458,-1.343 0.547,-2.087c0.152,-1.098 -0.393,-1.882 -1.372,-2.199c-0.18,-0.028 -0.42,-0.109 -0.603,-0.109c-1.726,0.105 -2.688,-0.886 -3.623,-2.087c-0.749,-1.011 -1.568,-2.005 -2.472,-2.855c-1.686,-1.691 -3.298,-3.487 -4.613,-5.546c-1.314,-2.063 -3.259,-3.148 -5.546,-3.788c-1.048,-0.282 -1.92,-0.308 -2.636,0zM366.552,174.094c-2.285,0.107 -4.574,0.117 -6.861,0.328c-1.833,0.265 -3.476,1.092 -4.116,2.964c-0.522,1.689 -1.739,2.296 -3.238,2.417c-1.35,0.075 -2.072,0.738 -2.636,1.867c-0.38,0.715 -0.844,1.497 -1.484,1.922c-1.834,1.347 -1.808,1.366 -0.493,3.238c0.119,0.104 0.153,0.282 0.274,0.493v0.055c-0.157,0.818 -0.355,1.567 -0.383,2.417c-0.075,1.382 0.218,2.751 0.933,3.952c0.636,1.064 1.62,1.605 2.745,1.922c1.426,0.403 2.181,1.492 2.745,2.8c0.605,1.423 1.115,2.953 1.977,4.228c1.164,1.732 2.582,3.272 3.897,4.887c0.71,0.83 1.62,1.363 2.745,1.484c1.013,0.121 2.023,0.137 3.074,0.109c1.536,-0.043 2.837,-0.809 3.623,-2.199c1.738,-2.994 2.552,-6.108 0.715,-9.443c-1.771,-3.26 -1.422,-6.404 0.603,-9.443c0.486,-0.789 1.048,-1.512 1.539,-2.362c0.935,-1.573 1.041,-3.145 -0.274,-4.613c-1.013,-1.126 -1.596,-2.416 -2.087,-3.842c-0.145,-0.467 -0.392,-0.896 -0.603,-1.428c-0.489,-1.233 -1.455,-1.786 -2.691,-1.758zM252.127,216.819c-0.444,0.212 -0.851,0.286 -1.152,0.603c-1.913,1.808 -3.779,3.654 -5.655,5.491c-0.261,0.231 -0.398,0.617 -0.547,1.042c-0.673,2.208 -1.439,4.376 -2.032,6.588c-0.294,0.903 -0.377,1.895 -0.438,2.745c-0.114,2.17 0.999,3.599 2.91,4.449c1.236,0.548 2.602,0.631 3.952,0.603c2.175,-0.089 4.376,-0.191 6.588,-0.219c0.939,0 1.88,0.128 2.636,0.768c1.949,1.614 3.889,3.198 5.765,4.887c1.552,1.351 2.059,3.077 1.758,5.108c-0.189,1.315 -0.447,2.699 -0.715,4.007c-0.373,1.723 -0.209,3.296 0.878,4.722c1.012,1.243 1.677,2.673 2.199,4.172c0.221,0.679 0.642,1.547 1.206,1.758c1.572,0.784 1.895,2.053 1.867,3.403v0.164c-1.574,1.826 -3.302,3.467 -4.503,5.381c-2.583,4.042 -5.411,7.988 -7.358,12.407c-1.124,2.4 -2.497,4.534 -5.381,5.491v3.842c0,1.455 0.183,2.913 0,4.339c-0.337,3.394 -2.332,5.126 -5.819,3.183c-1.196,-0.64 -2.458,-1.278 -3.733,-1.703c-2.997,-0.787 -5.238,-2.382 -6.588,-5.272c-0.677,-1.466 -1.703,-2.715 -3.129,-3.459c-2.964,-1.614 -5.419,-3.865 -7.855,-6.148c-1.722,-1.573 -3.61,-2.831 -5.71,-3.788c-2.098,-0.978 -4.159,-1.953 -6.259,-2.91c-1.01,-0.424 -2.206,-0.776 -3.293,-0.987c-1.427,-0.304 -2.82,-0.317 -4.284,-0.438c-1.008,1.275 -1.001,1.341 -1.372,2.691c-0.188,0.788 -0.332,1.723 -0.823,2.255c-2.024,1.945 -2.562,4.493 -3.348,6.972c-0.636,1.838 0.36,3.195 2.307,3.074c1.235,0 2.442,-0.451 3.678,-0.768c1.274,-0.341 2.582,-0.886 3.897,-1.097c2.024,-0.296 3.726,0.402 4.777,2.199c0.636,1.081 1.084,2.275 1.648,3.403c0.751,1.5 1.351,3.162 2.362,4.394c2.81,3.376 5.857,6.552 8.784,9.772c0.143,0.215 0.289,0.317 0.438,0.438c2.513,2.062 5.206,3.938 7.194,6.533c0.189,0.212 0.447,0.392 0.715,0.603c1.462,0.859 2.717,1.951 3.842,3.183c1.012,0.954 2.296,1.069 3.459,0.219c0.827,-0.641 1.55,-1.405 2.143,-2.255c1.499,-2.062 3.247,-3.755 5.272,-5.327c0.755,-0.564 1.501,-1.118 2.255,-1.758c1.686,-1.276 2.886,-2.918 3.897,-4.832c1.499,-2.846 3.236,-5.574 4.887,-8.346c1.465,-2.517 3.062,-5.029 4.449,-7.577c0.934,-1.678 1.887,-3.228 3.348,-4.503c4.464,-3.751 7.711,-8.491 10.708,-13.399c2.063,-3.451 3.45,-7.262 3.571,-11.31c0.18,-4.464 0.109,-8.971 0.109,-13.508c0.044,-1.156 -0.177,-2.226 -0.933,-3.183c-0.86,-1.052 -1.279,-2.343 -1.428,-3.733c1.125,-1.198 2.91,-1.854 2.91,-3.842c-0.339,-0.213 -0.555,-0.538 -0.823,-0.659c-0.486,-0.107 -1.048,-0.239 -1.539,-0.328c-1.427,-0.317 -2.913,-0.506 -4.339,-0.823c-2.736,-0.756 -5.427,-1.511 -8.127,-2.255c-2.551,-0.668 -5.022,-1.502 -7.194,-3.074c-1.764,-1.275 -3.527,-2.61 -5.327,-3.842c-1.873,-1.277 -3.257,-2.8 -3.897,-5.055c-0.522,-1.722 -1.45,-3.228 -2.8,-4.503zM631.463,222.95c-4.873,-0.03 -8.888,1.769 -12.298,5.327c-1.426,1.463 -3.056,2.841 -4.668,4.116c-1.683,1.307 -2.974,2.925 -4.061,4.722c-1.69,2.848 -2.351,5.986 -2.472,9.278c-0.028,1.011 -0.081,2.013 -0.109,3.074c-0.412,0.107 -0.719,0.328 -0.987,0.328c-3.258,-0.109 -6.494,-0.234 -9.716,-0.659c-3.447,-0.414 -6.663,0.393 -9.772,1.594c-0.716,0.269 -1.474,0.954 -1.813,1.594c-0.758,1.54 -1.05,3.164 -0.603,4.887c0.298,1.2 0.872,2.101 2.032,2.526c1.082,0.424 2.187,0.729 3.238,1.261c0.672,0.268 1.124,0.684 1.539,1.428c0.861,1.486 1.17,1.629 2.745,1.097c0.41,-0.107 0.835,-0.227 1.206,-0.438c2.325,-1.378 4.755,-1.195 7.303,-0.878c1.763,0.215 3.51,0.438 5.272,0.438c3.976,0.06 7.998,0.006 11.971,-0.055c1.613,0 3.059,0.402 4.558,1.042c1.459,0.615 3.147,1.062 4.722,1.594c1.202,0.421 2.408,0.617 3.571,1.042c2.811,1.043 5.661,1.594 8.619,1.594c3.221,-0.028 6.453,-0.109 9.716,-0.109c1.128,0 2.24,-0.202 3.515,0.438c0.296,1.766 0.065,3.599 -0.274,5.436c-1.124,5.999 -3.976,11.399 -6.259,17.02c-0.487,1.05 -1.256,1.94 -2.307,2.472c-2.663,1.305 -5.364,2.378 -8.291,2.91c-1.574,0.317 -3.152,0.291 -4.613,0.823c-3.448,1.126 -6.129,-0.056 -8.565,-2.417c-0.824,-0.79 -1.555,-1.728 -2.417,-2.472c-0.491,-0.421 -0.951,-1.14 -1.813,-0.823v-0.219c-0.061,0.212 -0.219,0.372 -0.219,0.493c0.418,3.339 0.457,6.714 0.274,10.049c-0.06,0.639 -0.034,1.227 0.055,1.867c0.111,1.085 0.652,1.94 1.703,2.472c0.637,0.321 1.377,0.538 2.087,0.659c2.474,0.456 4.922,0.891 7.358,1.316c1.874,0.317 3.724,0.612 5.6,0.823c2.662,0.253 5.216,-0.189 7.577,-1.539c1.836,-1.007 3.615,-2.007 5.491,-2.964c1.573,-0.83 2.973,-1.943 3.952,-3.515c0.787,-1.233 1.704,-2.33 3.019,-3.074c2.66,-1.528 4.36,-3.855 5.71,-6.478c1.464,-2.846 2.343,-5.857 2.526,-9.003c0.31,-3.528 0.31,-7.097 0.493,-10.655c0.068,-1.039 -0.236,-2.109 0.328,-3.238c1.984,-0.467 3.959,-1.003 5.984,-1.428c2.064,-0.319 4.176,-0.392 6.315,-0.603c-0.028,-0.528 -0.015,-0.836 -0.164,-1.261c-1.01,-2.133 -1.108,-4.469 -0.987,-6.752c0.079,-1.382 0.265,-2.775 -0.328,-4.007c-0.34,-0.214 -0.665,-0.172 -0.933,-0.383c-1.763,-1.112 -3.596,-1.414 -5.655,-1.097c-1.538,0.149 -3.111,0.109 -4.722,0.109c-1.871,0.04 -3.539,-0.378 -4.061,-2.472c-0.868,-0.213 -1.615,-0.448 -2.255,-0.659c-0.675,-0.279 -1.271,-0.727 -1.867,-1.152c-0.825,-0.529 -1.712,-0.614 -2.691,-0.493c-0.715,0.104 -1.461,0.176 -2.143,0.493c-2.735,1.15 -5.692,1.456 -8.619,1.484c-2.437,0.041 -4.745,0.522 -7.028,1.372c-2.662,0.936 -5.443,1.418 -8.291,1.539c-3.335,0.149 -6.625,-0.29 -9.552,-1.758c-1.425,-5.325 0.611,-9.57 3.459,-13.618c0.825,-1.168 1.96,-1.833 3.459,-1.922c1.277,-0.028 2.297,0.244 2.636,1.594c0.448,1.86 1.828,2.538 3.403,2.855c1.652,0.319 3.31,0.404 4.999,0.493c1.426,0.071 1.669,-0.255 1.758,-1.867c0.111,-1.936 0.14,-1.937 2.087,-2.362c0.407,0 0.759,-0.098 1.206,-0.219c0.143,-0.5 0.41,-0.781 0.438,-1.206c0.336,-2.623 -0.062,-5.18 -1.152,-7.687c-1.049,-2.465 -2.905,-3.796 -5.491,-4.007c-1.571,-0.24 -3.11,-0.164 -4.722,-0.164zM205.685,224.494c-1.01,0.521 -1.606,1.293 -1.977,2.143c-1.064,2.168 -1.676,4.465 -1.261,6.972c0.452,2.475 0.737,4.939 1.152,7.522l0.055,0.055c0.751,0.424 1.535,0.836 2.362,1.261c2.734,1.347 5.481,2.581 8.181,4.007c2.96,1.588 5.902,3.183 8.674,5.055c4.799,3.114 7.394,7.573 7.577,13.343c0.029,0.861 -0.006,1.622 0.055,2.472c0.114,0.935 0.31,1.95 0.493,2.8c0.522,2.142 1.838,3.317 3.897,4.061c1.612,0.533 2.941,0.135 3.952,-1.097c0.747,-0.861 1.282,-1.843 1.922,-2.8c0.752,-1.156 1.372,-2.446 2.307,-3.403c1.763,-1.914 3.667,-3.68 5.655,-5.327c1.205,-1.013 1.555,-2.103 1.372,-3.571c-0.304,-2.137 -1.139,-4.04 -2.526,-5.655c-0.863,-0.978 -1.68,-1.849 -2.362,-2.91c-0.824,-1.2 -1.888,-1.882 -3.238,-2.307c-0.972,-0.317 -2.029,-0.562 -2.964,-0.987c-1.163,-0.488 -2.313,-1.027 -2.581,-2.526c-0.074,-0.409 -0.507,-0.941 -0.878,-1.152c-1.835,-0.787 -2.863,-2.392 -3.842,-4.007c-1.011,-1.767 -2.318,-3.201 -4.007,-4.284c-2.624,-1.69 -5.356,-3.328 -8.017,-4.943c-1.197,-0.7 -2.51,-1.125 -3.897,-1.097c-2.025,0.043 -3.873,-0.573 -5.71,-1.428c-1.462,-0.756 -2.93,-1.455 -4.394,-2.199zM425.577,243.49c-8.656,0.593 -17.275,1.338 -25.859,2.91c-4.122,0.722 -8.313,1.415 -12.024,3.403c-2.21,1.199 -4.524,2.062 -6.807,3.019c-8.657,3.745 -17.288,7.488 -26.134,10.708c-0.119,0.028 -0.246,0.081 -0.274,0.109c-2.209,1.083 -4.428,1.886 -6.752,2.526c-1.385,0.373 -2.732,1.069 -4.007,1.813c-3.41,1.985 -6.748,4.172 -10.158,6.203c-1.163,0.715 -2.335,1.39 -3.571,1.922c-4.385,1.942 -8.809,3.822 -13.232,5.765c-2.471,1.084 -4.816,2.561 -6.916,4.284c-1.539,1.233 -3.004,2.534 -4.503,3.842c-2.885,2.476 -5.201,5.401 -6.588,9.003c-1.201,3.144 -3.008,5.961 -5.108,8.619c-0.896,1.127 -1.766,2.331 -2.745,3.459c-5.473,6.525 -9.946,13.676 -13.618,21.359c-1.273,2.623 -2.309,5.369 -2.8,8.291c-2.064,11.958 -5.612,23.56 -9.171,35.139c-1.537,5.023 -2.709,10.131 -3.571,15.262c-1.126,6.262 -2.5,12.473 -5.272,18.284c-0.676,1.425 -1.003,2.963 -1.152,4.503c-0.491,5.886 -1.072,11.727 -1.594,17.571c-0.061,0.832 0.006,1.622 -0.055,2.472c-0.11,1.35 0.65,2.104 1.813,2.636c0.672,0.321 1.377,0.537 2.087,0.659c1.652,0.213 3.31,0.538 4.999,0.659c1.198,0.181 2.497,0.156 3.733,-0.055c2.363,-0.5 4.778,-0.575 7.139,-0.547c2.608,0 4.938,-0.775 7.249,-2.472v-4.558c-0.033,-4.614 -0.093,-9.215 0.547,-13.782c0.711,-5.289 1.182,-10.607 2.307,-15.813c1.798,-8.396 4.3,-16.596 7.522,-24.543c0.561,-1.345 1.113,-2.738 1.484,-4.116c1.314,-4.687 3.319,-9.072 5.491,-13.343c1.498,-2.956 2.844,-6.025 4.007,-9.171c1.647,-4.458 3.604,-8.677 6.643,-12.352c0.34,-0.424 0.632,-0.836 0.933,-1.261c1.648,-2.253 2.696,-4.696 2.964,-7.468c0.074,-0.818 0.32,-1.728 0.659,-2.472c3.227,-6.973 7.265,-13.38 12.849,-18.778c6.483,-6.223 12.802,-12.595 20.149,-17.843c0.339,-0.213 0.686,-0.451 0.987,-0.768c3.639,-3.221 7.697,-5.805 11.971,-8.017c5.845,-3.028 11.915,-5.561 18.062,-7.962c1.162,-0.424 2.387,-0.776 3.623,-0.987c1.425,-0.319 2.913,-0.398 4.339,-0.715c9.633,-2.112 19.459,-2.649 29.317,-3.074c9.408,-0.318 18.812,0.075 28.22,0.715c3.936,0.269 7.887,0.798 11.748,1.648c6.035,1.308 12.012,2.94 17.898,4.777c6.634,2.031 13.417,2.983 20.315,3.515c4.085,0.317 8.085,0.621 12.133,1.261c6.335,1.083 12.408,3.085 17.843,6.643c1.197,0.784 2.473,1.611 3.788,2.143c3.41,1.426 6.456,3.384 9.607,5.327c2.663,1.614 5.394,3.15 8.127,4.722c1.8,1.038 3.583,2.136 5.272,3.293c9.484,6.597 17.349,14.829 24.433,23.828c1.459,1.88 3.111,3.639 4.722,5.436c1.385,1.573 2.802,3.114 4.228,4.613c1.836,2.029 3.58,4.095 5.491,6.038c3.073,3.112 6.362,6.08 8.948,9.607c2.212,2.952 4.384,5.909 6.371,8.948c1.31,1.988 2.597,4.116 3.459,6.371c1.576,4.042 2.934,8.241 4.284,12.407c0.371,1.274 0.674,2.657 0.823,4.007c0.523,4.266 1.549,8.325 3.238,12.298c1.949,4.611 3.202,9.514 4.777,14.274c0.189,0.715 0.3,1.455 0.328,2.199c0.224,2.923 0.735,5.763 2.199,8.346c0.088,0.108 0.081,0.185 0.109,0.274c0.637,1.968 1.141,2.428 3.129,2.307c2.626,-0.105 5.269,-0.343 7.855,-0.768c4.349,-0.752 7.374,-4.435 6.588,-8.674c-0.121,-0.747 -0.014,-1.455 -0.164,-2.199c-0.744,-3.634 -0.692,-7.307 -0.603,-10.982c0.114,-3.26 0.344,-6.442 0.493,-9.662c0.225,-6.445 0.113,-12.811 -2.362,-18.887c-0.933,-2.404 -1.963,-4.884 -3.238,-7.139c-1.535,-2.771 -2.912,-5.487 -3.403,-8.674c-0.029,-0.598 -0.337,-1.281 -0.548,-1.813c-2.473,-6.713 -6.298,-12.491 -11.584,-17.294c-1.65,-1.499 -3.065,-3.085 -4.228,-4.999c-1.61,-2.658 -3.646,-5.074 -5.819,-7.358c-1.987,-2.133 -3.779,-4.442 -5.655,-6.697c-1.574,-1.942 -3.073,-3.931 -4.613,-5.874c-6.26,-7.682 -13.664,-14.215 -21.084,-20.589c-3.298,-2.803 -6.957,-5.058 -10.817,-6.972c-2.174,-1.051 -4.338,-2 -6.478,-3.129c-3.601,-1.879 -7.241,-3.76 -10.763,-5.819c-4.945,-2.968 -9.823,-6.059 -14.659,-9.171c-8.884,-5.658 -18.443,-9.634 -28.827,-11.693c-0.636,-0.211 -1.274,-0.336 -1.867,-0.547c-7.797,-2.51 -15.805,-3.978 -23.94,-4.722c-6.334,-0.668 -12.574,-1.787 -18.833,-3.019c-6.894,-1.299 -13.817,-2.376 -20.862,-2.255c-2.662,0.108 -5.481,-0.239 -8.181,-0.328c-2.285,-0.061 -4.574,-0.176 -6.861,-0.055zM694.278,318.11c-0.789,0.168 -1.621,0.62 -2.143,1.152c-1.762,2.059 -4.211,3.458 -5.71,5.819c-0.339,0.586 -0.962,1.114 -1.484,1.539c-1.799,1.614 -3.557,3.322 -4.832,5.381c-0.115,0.213 -0.279,0.647 -0.547,0.768c-1.95,0.901 -3.185,2.625 -4.722,4.007c-1.652,1.436 -3.242,3.021 -4.668,4.668c-5.36,6.259 -8.116,13.542 -8.455,22.237h0.055c0.148,1.243 0.282,2.911 0.493,4.558c0.935,6.108 2.477,12.043 2.745,18.228c0,1.618 0.724,3.064 1.703,4.339c1.388,1.837 2.82,3.672 4.284,5.436c1.463,1.793 3.263,3.211 5.436,4.061c2.246,0.903 4.54,1.788 6.752,2.745c1.947,0.812 3.779,0.829 5.655,-0.328c1.836,-1.124 3.774,-1.656 5.874,-1.867c3.001,-0.297 5.691,-1.419 8.127,-3.183c1.76,-1.277 3.032,-2.843 3.403,-5.055c0.225,-1.722 1.095,-3.159 1.922,-4.613c1.313,-2.25 2.484,-4.555 3.571,-6.916c0.63,-1.319 0.357,-1.947 -0.768,-2.691c-1.307,-0.797 -2.652,-1.667 -4.116,-2.199c-3.301,-1.053 -6.415,-0.767 -9.115,1.594c-0.861,0.788 -1.677,1.511 -2.581,2.255c-2.888,2.253 -5.953,2.523 -8.236,-1.152c-1.123,-1.688 -2.348,-3.182 -3.623,-4.722c-1.308,-1.573 -2.032,-3.342 -2.032,-5.436c0,-0.483 -0.089,-1.062 0,-1.594c0.304,-4.428 -0.092,-8.724 -0.878,-13.068c0,-0.317 -0.081,-0.67 -0.109,-0.987c-0.224,-2.552 0.078,-4.982 1.428,-7.194c0.407,-0.756 0.995,-1.511 1.206,-2.255c0.484,-1.753 1.587,-2.715 3.238,-3.459c4.086,-1.796 7.365,-4.585 10.213,-8.072c2.958,-3.604 2.749,-7.536 1.922,-11.584c-0.408,-2.086 -1.948,-2.949 -4.007,-2.417zM211.769,336.287c-1.876,0.329 -3.724,0.43 -5.6,0.219c-1.948,-0.234 -3.768,0.079 -5.491,0.823c-2.735,1.168 -5.548,1.801 -8.51,1.922c-2.587,0.148 -4.982,0.875 -7.194,2.032c-1.574,0.786 -3.114,1.734 -4.613,2.691c-4.833,3.143 -9.722,6.167 -14.933,8.674c-1.836,0.87 -3.024,2.173 -3.515,4.116c-0.224,0.903 -0.398,1.843 -0.547,2.8c-0.378,3.071 -1.387,6.015 -2.143,9.278c-0.559,-0.76 -0.871,-1.194 -1.539,-2.255v0.164c-0.293,0.883 -0.519,1.335 -0.547,1.867c-0.061,1.051 -0.149,2.068 0,3.129c0.336,2.552 0.112,4.957 -0.823,7.358c-0.293,0.758 -0.519,1.673 -0.547,2.417c-0.186,3.444 -0.465,6.925 -0.493,10.377c0,1.766 0.238,3.62 1.813,4.777c1.305,0.975 1.904,2.138 2.087,3.678c0.259,1.911 1.474,3.257 3.238,3.897c0.489,0.212 0.993,0.371 1.484,0.493c2.512,0.831 4.993,1.673 7.468,2.417c0.897,0.317 1.788,0.557 2.691,0.768c2.512,0.382 4.993,0.672 7.468,1.097c1.348,0.216 2.716,0.313 3.952,-0.219c1.274,-2.284 1.242,-2.314 3.678,-3.623c2.326,-1.233 3.981,-3.017 5.217,-5.272c2.025,-3.708 0.045,-7.421 -4.116,-7.632c-0.859,-0.028 -1.664,0 -2.526,0c-5.131,-0.072 -9.927,-1.235 -14.274,-4.007c-1.047,-0.606 -1.433,-1.325 -1.372,-2.526c0.147,-1.871 0.274,-3.728 0.274,-5.6c0.075,-4.276 1.694,-7.938 4.394,-11.201c1.577,-1.942 3.099,-3.934 4.449,-6.038c4.836,-7.647 16.335,-11.893 25.256,-8.291c1.572,0.64 2.882,1.547 4.007,2.855c1.467,1.648 1.987,3.574 2.255,5.71c0.119,1.008 -0.147,2.068 0.715,3.129c0.257,0 0.627,0.219 1.042,0.219c1.237,0.09 2.552,0.083 3.788,0.055c3.411,-0.107 6.861,-0.662 10.158,0.878c0.934,0.48 1.95,-0.345 1.922,-1.428c-0.034,-1.423 0.332,-2.677 0.823,-3.952c0.532,-1.274 0.522,-2.446 -0.603,-3.403c-1.392,-1.124 -1.27,-2.412 -0.823,-3.952c0.381,-1.275 0.64,-2.656 0.823,-4.007c0.413,-3.116 -0.726,-5.524 -3.459,-7.139c-1.725,-0.979 -3.508,-1.95 -5.272,-2.8c-2.249,-1.093 -4.531,-2.106 -6.478,-3.678c-1.087,-0.878 -2.256,-1.14 -3.571,-0.823zM736.285,336.548c-0.525,-0.094 -1.135,0.067 -1.867,0.438c-1.086,0.555 -2.185,1.169 -3.348,1.594c-1.537,0.618 -3.182,0.954 -4.722,1.594c-2.514,1.095 -5.122,1.711 -7.855,1.922c-3.148,0.233 -6.227,0.373 -9.224,1.648c-2.621,1.075 -5.352,1.605 -8.236,1.484c-2.402,-0.117 -3.543,0.915 -3.571,3.348c-0.031,1.531 0.264,3.128 0.603,4.668c0.745,3.22 1.493,6.474 1.372,9.884c0,0.382 0.02,0.781 0.109,1.206c0.152,0.7 0.753,1.382 1.539,1.261c0.636,-0.103 1.329,-0.426 1.922,-0.547c0.552,-3.654 1.035,-4.462 3.403,-6.861c1.723,-1.69 3.6,-2.789 6.148,-2.472c3.897,0.457 7.706,-0.075 11.529,-0.715c1.277,-0.268 2.552,-0.788 3.788,-1.428c0.823,-0.414 1.521,-1.116 2.307,-1.648c1.612,-1.2 3.391,-1.988 5.491,-1.867c0.754,0 1.531,0.102 2.199,-0.109c1.123,-0.213 2.227,-0.617 3.238,-1.042c0.413,-0.135 0.851,-0.781 0.823,-1.206c-0.111,-1.943 -0.06,-4.17 -1.261,-5.71c-1.125,-1.427 -2.115,-2.854 -3.019,-4.394c-0.392,-0.635 -0.846,-0.95 -1.372,-1.042zM441.85,346.161c-0.601,0 -1.227,-0.034 -1.867,0.055c-1.389,0.152 -2.453,0.865 -2.636,2.255c-0.301,1.988 -1.435,3.475 -2.636,4.943c-1.123,1.346 -2.187,2.746 -3.238,4.172c-4.76,6.372 -9.476,12.789 -14.274,19.163c-8.583,11.433 -18.363,21.76 -29.759,30.418c-9.931,7.533 -19.502,15.483 -29.098,23.389c-6.743,5.587 -12.749,11.838 -17.734,18.999c-2.773,4.048 -5.814,7.872 -9.224,11.474c-2.136,2.318 -3.781,5.021 -4.832,8.017c-4.048,10.982 -7.303,22.238 -8.729,33.93c-1.125,8.92 -2.498,17.758 -3.623,26.684c-0.504,3.741 -0.926,7.474 -0.715,11.255c0.41,5.886 0.791,11.684 1.206,17.571c0.191,2.359 0.431,4.778 0.878,7.139c1.052,6.183 2.83,12.21 4.777,18.172c2.512,7.756 6.48,14.731 11.915,20.807c1.685,1.914 3.257,3.767 4.832,5.71c2.476,3.068 5.108,5.89 8.181,8.291c2.399,1.954 4.227,4.289 5.162,7.358c0.526,1.793 1.525,3.406 2.8,4.832c0.868,1.009 1.691,2.147 2.255,3.348c0.788,1.679 1.922,2.995 3.459,3.952c1.91,1.245 3.904,2.432 5.929,3.515c7.869,4.354 15.806,8.59 23.717,12.904c8.548,4.688 16.852,9.598 24.763,15.262c11.318,8.094 21.545,17.344 29.978,28.439c9.78,12.86 18.007,26.683 25.694,40.851c2.325,4.238 3.958,8.76 4.668,13.563c0.191,1.382 0.557,2.699 0.768,4.007c0.9,4.766 2.043,9.405 2.636,14.165c1.024,7.382 1.332,14.811 0.768,22.237c-0.179,2.74 -0.075,5.45 -0.164,8.181c-0.029,2.167 -0.063,4.376 -0.274,6.588c-0.338,3.847 -0.106,4.107 3.678,4.228c1.877,0.105 3.746,-0.082 5.546,0.768h6.861c2.062,-1.308 3.12,-3.309 3.459,-5.71c0.129,-1.052 0.239,-2.012 0.328,-3.074c0.267,-4.271 0.522,-8.633 0.823,-12.904c0.569,-8.06 0.485,-16.04 0.274,-24.104c-0.116,-2.435 -0.344,-4.793 -0.715,-7.194c-1.425,-10.193 -4.332,-20.026 -8.455,-29.428c-2.997,-6.786 -5.881,-13.66 -8.729,-20.479c-1.39,-3.409 -3.108,-6.647 -5.055,-9.716c-2.06,-3.304 -4.182,-6.57 -6.093,-9.939c-2.959,-5.217 -6.559,-9.898 -10.982,-13.946c-1.464,-1.391 -2.913,-2.734 -4.339,-4.116c-2.922,-2.846 -5.859,-5.654 -8.674,-8.619c-6.035,-6.261 -11.918,-12.605 -17.953,-18.833c-2.477,-2.552 -5.04,-5.113 -7.855,-7.249c-4.046,-3.153 -8.32,-5.971 -12.517,-8.893c-3.675,-2.507 -7.661,-4.353 -11.971,-5.436c-0.821,-0.212 -1.59,-0.392 -2.417,-0.603c-4.312,-1.078 -7.788,-3.451 -10.599,-6.861c-0.824,-0.976 -1.576,-2.007 -2.362,-2.964c-2.51,-3.071 -5.086,-6.112 -7.522,-9.224c-1.16,-1.466 -2.343,-2.979 -3.129,-4.668c-1.35,-2.741 -2.99,-5.292 -5.162,-7.468c-3.599,-3.749 -6.243,-8.097 -8.455,-12.74c-1.949,-4.159 -4.178,-8.177 -6.203,-12.298c-0.674,-1.276 -1.384,-2.588 -1.977,-3.897c-1.5,-3.146 -2.335,-6.507 -2.636,-9.994c-0.181,-2.476 -0.616,-4.989 -0.987,-7.468c-0.489,-3.072 -1.16,-6.112 -1.428,-9.224c-0.375,-4.091 -0.093,-8.195 0.547,-12.243c1.501,-9.107 3.446,-18.046 7.194,-26.517c1.086,-2.405 1.987,-4.848 3.074,-7.249c1.239,-2.885 2.236,-5.879 2.8,-8.948c0.714,-3.795 2.418,-7.089 4.668,-10.158c2.062,-2.816 4.405,-5.365 7.028,-7.577c3.823,-3.259 7.796,-6.351 11.693,-9.497c2.209,-1.796 4.471,-3.475 6.643,-5.272c2.102,-1.761 3.954,-3.713 5.491,-6.038c2.584,-3.973 5.802,-7.397 9.662,-10.213c3.452,-2.517 7,-4.87 10.599,-7.303c3.148,-2.139 6.476,-4.195 9.662,-6.371c5.885,-4.01 10.568,-9.2 14.055,-15.428c1.162,-2.105 2.369,-4.159 3.348,-6.371c3.334,-7.235 7.281,-14.105 12.079,-20.479c1.125,-1.5 2.199,-3.109 2.91,-4.832c1.612,-3.969 3.475,-7.876 6.697,-10.872c-0.34,-2.287 -0.279,-4.457 -1.594,-6.371c-0.326,-0.491 -0.41,-1.173 -0.438,-1.813c-0.121,-0.671 -0.055,-1.455 -0.055,-2.199c-1.876,-0.979 -3.638,-1.842 -5.327,-2.8c-1.425,-0.849 -2.891,-1.042 -4.503,-1.042c-2.21,0.089 -4.376,0 -6.588,0zM511.605,362.764c-0.982,0.214 -1.883,0.786 -2.691,1.758c-1.835,2.251 -3.67,4.595 -5.546,6.807c-14.242,16.719 -28.454,33.45 -42.771,50.129c-6.556,7.648 -12.815,15.465 -18.062,24.05c-2.771,4.571 -6.008,8.821 -9.607,12.794c-1.238,1.423 -2.513,2.838 -3.788,4.228c-3.373,3.744 -6.254,7.824 -8.729,12.243c-4.236,7.456 -7.341,15.458 -10.268,23.553c-0.678,1.838 -1.133,3.822 -1.316,5.765c-0.562,5.511 -0.925,11.011 -1.372,16.527c-0.299,3.739 0.728,7.164 2.417,10.543c3.373,6.709 6.677,13.495 9.828,20.315c2.509,5.548 5.085,10.993 8.236,16.199c1.574,2.626 3.148,5.285 4.613,7.908c2.962,5.14 6.547,9.695 10.708,13.891c4.872,4.868 10.03,9.438 15.428,13.782c2.623,2.167 5.51,4.17 8.619,5.71c11.918,6.108 23.825,12.118 35.743,18.228c2.402,1.24 4.852,2.429 7.139,3.897c4.909,3.142 9.861,6.37 14.659,9.662c6.108,4.159 11.464,9.081 15.923,15.043c2.401,3.153 5.066,6.113 7.799,9.003c4.047,4.203 7.193,8.931 9.443,14.329c3.26,7.685 6.437,15.376 9.772,23.059c2.734,6.299 4.129,12.92 4.722,19.711c0.678,7.424 1.181,14.811 1.703,22.237c0.121,2.281 0.149,4.633 0,6.916c-0.411,5.845 -0.943,11.69 -1.922,17.459c-0.268,1.199 -0.253,2.477 -0.164,3.678c0.115,1.615 0.973,2.538 2.472,2.855c0.755,0.122 1.469,0.11 2.255,0.11c3.708,0 7.471,-0.089 11.255,0c1.72,0.038 2.716,-0.64 3.238,-2.255c0.673,-2.1 1.392,-4.159 2.032,-6.259c0.9,-2.923 2.048,-5.723 3.623,-8.346c0.483,-0.79 0.881,-1.622 1.372,-2.472c1.499,-2.879 2.46,-5.932 2.581,-9.224c0.148,-4.537 0.344,-9.013 0.493,-13.508h-0.109c0,-4.086 0.094,-8.152 -0.055,-12.243c-0.073,-2.7 -0.301,-5.408 -0.823,-8.072c-1.16,-6.337 -2.567,-12.722 -3.842,-19.055c-1.122,-5.436 -2.092,-10.857 -3.293,-16.255c-1.387,-5.96 -3.22,-11.697 -6.259,-17.02c-4.009,-6.858 -8.014,-13.727 -12.024,-20.589c-2.662,-4.578 -6.037,-8.546 -10.158,-11.915c-5.662,-4.612 -11.044,-9.64 -16.255,-14.771c-4.985,-4.943 -10.422,-9.353 -16.308,-13.178c-4.16,-2.775 -8.41,-5.414 -12.684,-8.072c-4.009,-2.507 -7.875,-5.167 -11.474,-8.236c-3.748,-3.221 -7.839,-5.951 -12.298,-8.127c-7.574,-3.672 -14.185,-8.775 -20.371,-14.439c-1.764,-1.605 -3.388,-3.42 -4.999,-5.217c-2.174,-2.548 -4.075,-5.364 -5.162,-8.51c-3.185,-9.108 -6.249,-18.16 -6.588,-27.947c-0.279,-8.807 -0.74,-17.589 0.164,-26.353c0.788,-7.72 2.522,-15.282 5.819,-22.401c7.688,-16.643 16.79,-32.465 27.511,-47.384c3.559,-5.062 7.635,-9.707 12.133,-13.946c3.522,-3.339 7.022,-6.584 10.432,-9.994c1.683,-1.691 3.257,-3.522 4.722,-5.436c1.724,-2.24 3.22,-4.647 4.832,-6.972c0.385,-0.491 0.665,-1.062 0.933,-1.594c0.789,-1.767 0.912,-3.427 -0.438,-4.999c-0.265,-0.317 -0.532,-0.67 -0.715,-0.987c-0.8,-1.272 -0.76,-2.046 0.219,-3.129c0.529,-0.64 1.212,-1.173 1.703,-1.813c1.726,-2.43 0.942,-5.332 -1.758,-6.533c-0.453,-0.212 -0.993,-0.337 -1.484,-0.548c-2.551,-0.948 -5.135,-1.699 -7.194,-3.571c-0.264,-0.318 -0.61,-0.426 -0.878,-0.547c-1.125,-0.541 -2.149,-0.704 -3.129,-0.493zM730.356,367.515c-1.824,-0.081 -3.636,0.127 -5.436,0.659v0.055c-1.454,1.871 -1.622,3.801 -1.594,5.819c0.032,2.391 -0.091,4.793 -0.274,7.194c-0.116,2.178 -0.392,4.357 -0.603,6.533c-0.263,2.294 -0.612,4.578 -0.823,6.861c-0.159,1.392 -0.546,2.846 0.164,4.228c0.412,0.028 0.686,0.253 0.987,0.164c0.824,-0.21 1.652,-0.453 2.362,-0.878c1.801,-0.956 3.525,-1.025 5.436,-0.493c1.009,0.319 2.112,0.918 3.348,0.493c0.06,-0.528 0.136,-0.836 0.164,-1.261c0.191,-2.1 0.212,-4.185 0.659,-6.203c1.482,-6.823 1.472,-13.706 1.261,-20.643c0,-0.467 -0.136,-1.003 -0.164,-1.428c-1.82,-0.634 -3.67,-1.016 -5.491,-1.097zM213.649,388.323c0.139,0.814 0.239,1.535 0.383,2.362c-0.402,0.319 -0.703,0.504 -1.042,0.715c-2.401,1.646 -4.259,3.717 -5.162,6.533c-1.388,4.167 0.321,6.877 4.668,7.194c2.473,0.321 4.993,-0.13 7.468,-0.219c3.86,-0.114 7.537,-6.032 6.038,-10.377c-0.521,-1.612 -1.584,-2.789 -3.348,-2.91c-1.425,-0.148 -2.58,-0.575 -3.515,-1.703c-0.222,-0.319 -0.737,-0.404 -1.152,-0.493c-1.387,-0.339 -2.764,-0.672 -4.339,-1.097z" /></svg>