<svg xmlns="http://www.w3.org/2000/svg" viewBox="0 0 903 896" width="903" height="896"><path d="M367.066,507c-4.576,2.472 -7.946,4.513 -10.283,5.498l-0.861,0.37l-0.37,0.123l-0.245,0.088l-0.861,0.37c-2.116,0.996 -3.617,1.906 -5.08,2.767c-1.45,0.91 -2.754,1.734 -4.145,2.841c-1.722,1.341 -3.408,2.828 -4.859,4.403c-5.991,6.442 -8.759,13.28 -10.604,18.213l-1.242,3.518l-0.245,0.737l-0.492,1.833c-0.367,1.328 -0.614,2.471 -0.737,3.456c-0.616,4.046 -0.616,5.718 -0.861,6.088l-2.877,10.234c-2.51,9.573 -3.641,18.527 -4.871,26.436c-1.155,7.801 -2.373,16.027 -3.48,24.034l-1.513,12.129l-1.513,13.009c-0.37,4.662 -0.615,8.512 -0.985,11.574c-0.122,1.513 -0.247,2.817 -0.492,4.047l-0.123,0.861l-0.37,1.415l-0.737,2.743c-0.787,2.989 -1.574,5.608 -2.435,8.106l-8.771,-9.04l1.23,8.757l-29.342,-16.797l-30.432,-43.615l-28.188,-45.115l-20.473,-47.818l-7.959,-51.101l-0.043,-52.171l10.037,-50.444l27.251,-45.102l25.592,-45.854l39.597,-34.026l27.923,-20.963l33.937,-9.398l33.621,-12.054l35.14,-4.613l35.095,-8.622l33.868,8.315l35.631,9.237l53.954,12.714l4.563,2.707l-13.396,5.867l10.861,0.012l-7.59,4.981l-5.437,3.677l-5.596,3.985l-5.608,4.023l-2.731,1.981l-2.017,1.549c-2.89,2.226 -6.777,4.931 -11.082,9.04c-1.168,1.131 -2.006,1.992 -2.743,2.853l-2.399,2.644l-4.76,5.351c-0.737,0.763 -1.833,2.19 -2.57,3.297c-0.838,1.169 -1.564,2.313 -2.301,3.42c-1.401,2.202 -2.606,4.243 -3.591,6.064l-2.964,5.228c-1.143,2.005 -2.447,4.416 -3.677,7.368c-1.438,3.703 -2.312,5.497 -3.948,8.61l-3.259,6.076c-1.045,2.042 -2.14,4.244 -2.755,5.548l-1.107,2.289l-0.37,0.985l0.245,-0.123c-0.013,0.196 -0.627,0.934 -1.612,2.238c-0.504,0.652 -1.156,1.438 -1.771,2.423c-0.492,0.615 -0.492,0.74 -0.615,0.985l-0.492,0.861c-1.292,2.373 -3.163,5.363 -4.515,10.443c-0.657,2.227 -0.86,6.864 -0.615,6.987l0.492,3.395l0.861,7.023c0.382,2.977 0.997,5.547 1.612,7.651l1.549,5.253c0.122,0.37 0.156,0.492 0.245,1.107l0.37,1.796l0.737,3.518c2.264,9.185 5.339,17.161 7.885,24.885c1.217,3.74 2.202,7.134 2.447,10.431c0.245,4.71 0.982,8.572 0.737,11.673c-0.172,2.815 -1.316,6.96 -2.423,11.18l-1.451,6.151l-1.525,5.757c-1.255,3.8 -2.608,8.709 -3.715,10.849l-1.328,2.57l-0.615,1.23l-0.615,0.861c-0.786,1.057 -2.14,2.46 -3.677,4.256c-2.041,2.25 1.366,-1.194 -4.157,2.865c-1.451,1.278 -1.904,1.771 -1.943,1.648c-0.111,0 -0.702,0.37 -1.439,0.615l-11.132,3.653c-8.513,2.596 -16.895,5.793 -24.165,8.007l-6.014,1.722l-6.372,2.054c-4.219,1.39 -8.352,2.94 -12.411,4.539l-11.98,4.871l-12.35,5.536c-2.769,1.29 -6.139,2.472 -10.899,4.895c-2.522,1.278 -4.564,2.472 -6.593,3.579l-6.163,3.543c-1.467,0.86 -1.008,0.614 -1.378,0.737l-1.477,0.615c-1.304,0.565 -4.021,1.734 -6.617,3.161z" /> <path d="M759.981,518.231l-4.515,-43.484l0.737,-44.825l-15.136,-42.23l-11.034,-44.177l-23.445,-39.346l-37.275,-27.307l-30.141,-35.049l-2.128,6.569l-8.942,3.42l-7.811,11.206l-16.259,9.914l-10.997,12.96l-9.816,7.441l-9.3,10.061l-2.904,11.168l-4.305,10.787l-2.546,10.577l-8.771,2.805l-0.615,7.515l-9.052,6.876l5.831,9.667l2.817,14.216l-4.465,22.561l6.052,19.079l3.85,15.353l-9.3,11.144l-2.891,9.41l-2.387,8.45l2.263,8.745l-4.453,7.368l-7.33,-0.615l-2.092,5.916l-4.957,4.933l-9.065,6.163l-24.457,9.914l-34.336,8.942l-9.681,8.783l-12.866,6.581l-9.717,5.769l-9.989,3.899l-13.318,8.18l-6.027,4.059l-6.569,18.949l1.23,7.688l-7.676,11.783l-1.698,29.311l-4.157,41.41l-3.074,24.76l-10.553,17.816l-6.778,6.826l-4.65,9.422l41.389,15.972l42.721,10.702l43.956,5.277l43.762,-2.755l41.592,-13.504l39.791,-16.922l38.577,-20.109l32.393,-29.008l28.904,-32.367l22.322,-37.157l16.081,-40.113zM352.014,670.554c0.923,-2.805 1.685,-5.524 2.177,-8.07c1.083,-5.106 1.662,-9.484 2.399,-13.027c0.652,-2.99 1.514,-7.417 2.251,-11.538l2.214,-12.436c1.376,-8.366 2.767,-16.505 3.874,-25.103c1.009,-8.487 1.796,-15.997 3.026,-22.59c0.467,-2.91 1.907,-7.486 2.644,-13.98l0.245,-2.546l0.089,-1.993c0.034,-0.985 0.052,-1.68 0.021,-1.722l-0.245,0.737l0.123,-0.737l0.615,-2.423c0.738,-2.916 1.231,-3.898 0.861,-3.653l-0.37,0.088l0.861,-0.861l0.245,-0.37l-0.123,0.042l1.477,-0.737l1.943,-1.107c5.019,-2.915 8.5,-5.634 11.132,-7.368c0.985,-0.701 2.054,-1.316 4.453,-2.656c1.144,-0.64 2.484,-1.426 3.973,-2.411c1.391,-0.884 3.456,-2.644 3.826,-2.767l4.391,-3.137l4.011,-3.014c2.462,-1.746 6.607,-4.181 10.899,-7.318l19.536,-13.531c3.32,-2.263 6.641,-4.465 9.975,-6.581l5.019,-3.087l5.51,-3.137c7.99,-4.501 14.332,-9.175 21.381,-12.607l11.771,-6.384c1.155,-0.687 2.361,-1.401 3.874,-2.668c1.549,-1.403 2.411,-2.572 2.534,-2.695h-0.123l0.123,-0.123l0.615,-0.37l1.23,-0.861c1.807,-1.365 2.988,-3.051 3.48,-3.788c1.008,-1.487 2.423,-3.173 3.912,-5.608c0.37,-0.602 0.615,-1.254 0.985,-1.869l0.737,-1.648l1.34,-3.038c0.467,-1.108 0.958,-2.337 1.328,-3.752l0.861,-3.161l1.734,-5.867l3.149,-12.153c0.947,-3.801 2.682,-7.503 3.543,-12.928c0.738,-5.13 0.616,-9.57 0.861,-13.125c0.37,-4.99 -0.123,-9.813 -0.615,-14.167c-0.985,-8.452 -1.847,-16.609 -1.477,-23.879l0.123,-2.681l0.123,-1.304c0.05,-0.418 0.071,-1.316 0.089,-1.931c0.057,-2.719 -0.031,-5.08 -0.031,-7.061c0,-1.991 0.125,-3.591 0.37,-4.698c0.125,-0.356 0.247,-1.685 0.37,-2.546l0.492,-2.841l0.37,-2.817c0.177,-1.882 0.177,0.616 0.088,0.861c-0.135,1.083 0.209,0.493 1.316,-0.492l0.737,-0.737l0.123,0.021c0.356,-0.257 1.242,-0.982 2.57,-2.373c0.665,-0.701 1.465,-1.623 2.202,-2.608l1.23,-1.66l2.128,-3.062l6.839,-9.693c1.328,-1.905 2.99,-4.34 4.232,-6.629c0.627,-1.182 1.242,-2.325 1.857,-3.555l1.513,-3.199l5.215,-9.275l2.608,-4.711l1.107,-1.808c0.493,-0.553 0.615,-0.923 1.23,-1.66l3.37,-4.083l3.087,-3.85c1.525,-1.832 4.244,-4.205 7.724,-7.33l17.513,-16.077l4.748,-4.268l2.361,-2.14c0.394,-0.418 2.596,-2.226 3.703,-3.456c2.435,-2.657 3.482,-4.341 3.727,-4.711l0.042,-0.123l1.477,-1.477l2.164,-2.202c2.988,-3.038 6.396,-6.384 9.631,-10.493c2.57,-3.554 4.65,-6.407 7.097,-9.508c1.194,-1.513 2.399,-3.002 3.641,-4.453c1.229,-1.39 2.781,-3.333 4.133,-4.981c2.805,-3.444 5.512,-6.863 8.18,-10.356c3.149,-4.292 4.479,-8.13 6.348,-10.971c0.985,-1.489 2.522,-3.322 3.814,-5.548c0.554,-1.513 2.202,-3.148 3.309,-5.658l-3.567,-2.472c-1.28,0.924 -3.235,1.587 -5.351,3.297c-1.439,0.923 -3.211,1.637 -5.253,3.002c-4.195,2.865 -7.38,6.113 -10.111,7.7c-3.468,2.116 -6.924,4.282 -10.258,6.446l-5.178,3.322c-1.919,1.242 -3.826,2.522 -5.671,3.85c-3.641,2.558 -7.344,5.682 -10.431,8.204c-1.008,0.774 -2.202,1.612 -3.309,2.349l-15.633,-5.363l-47.967,-35.578l-41.072,-2.238l-57.365,-10.726l-57.765,11.046l-38.433,5.277l-39.53,14.962l-32.563,23.939l-30.358,24.045l-53.13,60.711l-19.388,44.529l-17.118,45.288l-0.985,48.978l5.411,45.988l2.263,49.021l31.16,51.495l29.72,51.138l45.766,36.91l39.34,23.723l-2.387,3.444c-1.035,1.537 -2.092,3.074 -3.199,4.587c-2.203,3.05 -4.588,5.99 -6.975,9.016c-2.412,2.99 -5.02,6.015 -7.393,8.598c-5.03,5.275 -10.922,10.416 -17.257,15.644c-6.388,5.026 -13.047,10.795 -19.172,15.764c-6.188,5.044 -13.275,9.226 -20.447,14.663l2.066,3.788c7.957,-1.574 16.612,-3.027 25.112,-5.904c8.427,-3.111 15.981,-6.051 23.952,-9.471c7.932,-3.341 16.124,-7.179 23.997,-12.432c4.059,-2.693 7.601,-5.289 11.18,-8.032c3.617,-2.742 7.048,-5.742 10.443,-8.843c1.683,-1.561 3.357,-3.148 5.005,-4.784l4.563,-4.638c3.15,-3.321 6.606,-7.123 9.779,-11.907l7.147,-12.153c2.546,-4.563 4.527,-9.249 6.249,-13.517l1.23,-3.149l0.615,-1.549l0.737,-2.092zM902.388,493.186c1.426,4.208 -0.296,7.27 -2.289,11.022c-4.11,7.751 -7,16.123 -10.395,24.253c-0.812,1.931 -1.402,3.948 -2.387,5.817c-6.716,13.561 -8.131,27.703 -6.839,42.733c0.615,7.017 -1.217,15.145 -4.539,21.418c-12.362,23.348 -21.664,47.886 -31,72.455c-0.8,2.09 -1.859,4.145 -3.199,5.916c-8.202,10.822 -16.793,21.359 -24.69,32.405c-4.292,5.996 -7.602,12.726 -11.058,19.271c-2.411,4.566 -4.736,9.24 -6.384,14.099c-4.817,14.112 -15.873,20.201 -29.381,23.51c-1.144,0.284 -2.14,1.355 -3.125,2.092c-5.672,3.924 -11.393,7.786 -16.989,11.809c-1.512,1.095 -2.89,2.534 -3.997,4.047c-7.559,10.262 -14.992,20.629 -22.63,30.839c-0.811,1.046 -2.682,1.784 -4.133,1.907c-3.554,0.378 -7.147,0.352 -10.726,0.37c-165.389,0.727 -330.786,1.464 -496.177,2.079c-7.785,0 -15.613,-0.246 -23.349,-1.107c-2.46,-0.27 -5.301,-2.276 -6.937,-4.305c-9.098,-11.364 -17.569,-23.23 -26.881,-34.41c-5.867,-7.056 -14.018,-12.442 -19.023,-19.957c-7.169,-10.765 -17.889,-16.846 -27.347,-24.707c-8.349,-6.921 -16.241,-14.521 -23.437,-22.603c-3.764,-4.217 -5.572,-10.135 -8.351,-15.239c-2.695,-4.969 -5.402,-9.926 -8.267,-14.785c-6.163,-10.419 -12.874,-20.561 -18.569,-31.225c-9.008,-16.888 -16.867,-34.311 -20.09,-53.39c-0.245,-1.108 -0.641,-2.227 -0.615,-3.334c0.209,-7.193 -1.784,-13.195 -8.18,-17.513c-3.394,-2.287 -2.546,-6.002 -1.561,-9.446c0.247,-0.663 0,-1.501 -0.245,-2.238c-3.039,-8.106 -6.286,-16.142 -9.127,-24.31c-1.513,-4.388 -3.284,-8.964 -3.37,-13.503c-0.37,-18.683 -0.603,-37.176 -4.256,-55.779c-2.211,-11.29 -4.068,-23.738 -0.021,-35.399c5.978,-17.305 4.747,-35.421 6.839,-53.165c0.368,-3.112 2.361,-6.014 2.976,-9.139c2.104,-11.293 3.641,-22.695 5.99,-33.926c1.268,-6.032 3.408,-11.948 5.855,-17.631c1.131,-2.608 4.539,-4.195 5.867,-6.778c6.522,-12.645 13.04,-25.315 18.797,-38.307c2.682,-6.069 3.579,-12.905 5.363,-19.375c2.767,-10.035 5.399,-20.113 8.524,-30.027c0.8,-2.546 3.211,-4.589 5.892,-6.36c-0.245,1.069 -0.492,2.14 -0.737,3.579c0.776,-0.369 1.268,-0.616 1.513,-0.861c1.612,-2.215 3.555,-4.294 4.662,-6.754c7.055,-15.899 17.928,-29.225 28.63,-42.702c4.831,-6.075 9.332,-12.393 14.056,-18.556c1.475,-1.907 2.866,-4.083 4.809,-5.387c10.681,-7.169 18.557,-17.145 27.278,-26.284c3.113,-3.259 6.002,-6.753 9.336,-10.517c1.487,1.758 2.116,2.522 4.28,5.08c2.939,-3.727 5.3,-7.75 8.622,-10.714c5.368,-4.782 11.37,-8.854 17.115,-13.232c1.009,-0.762 2.165,-1.414 3.026,-2.275c5.009,-4.994 10.002,-9.473 17.075,-12.141c5.572,-2.103 9.828,-7.553 14.749,-11.415c9.53,-7.46 21.058,-10.474 32.301,-14.103c0.59,-0.176 1.734,-0.333 1.857,-0.088c3.85,6.228 7.835,0.84 11.574,-0.021c2.558,-0.603 4.833,-2.387 7.232,-3.641c-0.245,-0.431 -0.37,-0.8 -0.615,-1.292l-7.245,1.391c-0.125,-0.517 -0.247,-0.886 -0.37,-1.378c2.607,-0.948 5.203,-1.956 7.835,-2.817c13.035,-4.281 26.202,-8.23 39.067,-12.966c4.097,-1.5 7.417,-5.068 11.12,-7.651c1.71,-1.192 3.432,-2.397 5.301,-3.382c5.435,-2.757 9.456,-7.726 15.496,-9.583c1.119,-0.332 2.004,-1.573 2.865,-2.558c5.437,-5.856 7.418,-6.483 16.975,-4.626c-2.128,1.059 -3.384,1.698 -4.638,2.313c0.022,0.122 0.034,0.369 0.043,0.492c4.982,-0.836 10.025,-1.39 14.896,-2.62c2.609,-0.64 3.26,-4.318 6.975,-4.441c8.327,-0.332 16.63,-2.171 24.921,-2.128c4.729,0.05 9.391,2.829 14.175,3.936c2.62,0.615 5.461,0.368 8.192,0.245c6.406,-0.246 12.949,-1.722 19.186,-0.861c10.497,1.378 20.818,4.133 30.093,6.076c0.245,2.411 0.122,4.318 0.737,4.563c4.735,2.424 9.397,3.925 15.166,2.301c11.119,-3.099 22.168,-6.975 34.234,-4.674c3.99,0.762 8.417,-0.886 12.649,-1.378c1.291,-0.202 2.632,-0.49 3.874,-0.245c11.99,2.09 24.038,3.937 35.895,6.605c4.146,0.935 7.885,3.801 11.661,6.027c7.528,4.426 15.115,8.804 22.373,13.639c6.191,4.115 11.924,8.925 18,13.23c1.636,1.194 3.764,1.809 5.769,2.301c12.189,2.657 24.412,5.104 36.589,7.823c1.761,0.394 3.519,1.648 4.835,2.94c3.924,3.863 7.626,7.947 11.427,11.92c6.961,7.272 13.983,14.331 23.134,19.154c6.437,3.408 12.329,7.897 18.307,12.117c2.128,1.501 3.677,3.777 5.719,5.425c2.24,1.795 4.527,3.702 7.147,4.809c3.96,1.585 5.855,4.119 7.085,8.142c1.403,4.747 3.74,9.225 5.671,13.825c0.493,-0.122 0.86,-0.159 1.23,-0.245c0.381,-1.132 0.75,-2.264 1.242,-3.715c8.509,11.559 16.912,22.971 25.337,34.411c-0.516,0.248 -1.119,0.493 -2.226,0.985c3.973,4.555 7.785,8.934 11.599,13.312c1.685,1.931 3.592,3.701 5.019,5.793c8.475,12.402 16.414,25.189 25.368,37.231c6.473,8.713 14.255,16.478 20.615,23.723c0.726,2.325 0.85,3.801 1.587,4.662c3.948,4.602 8.13,8.995 12.066,13.582c0.849,1.035 1.34,2.56 1.71,3.912c2.793,9.268 3.838,19.085 9.103,27.585c0.615,0.934 -0.615,2.829 -0.37,4.133c0.85,3.8 2.006,7.528 3.113,11.267c0.738,2.449 1.796,4.786 2.411,7.258c0.911,4.059 1.636,8.154 2.251,12.275c0.75,5.252 1.612,10.528 1.857,15.817c0.689,14.242 4.477,27.881 9.139,41.125c4.17,11.868 2.436,23.474 1.451,35.283c-0.651,7.386 -1.672,14.747 -2.042,22.152c-0.123,2.656 1.157,5.4 2.817,7.983c0.247,-1.561 0.369,-3.125 0.492,-4.686c0.505,0 1.12,-0.156 1.612,-0.245c1.87,7.873 4.072,15.666 5.437,23.625c0.456,2.657 -1.881,5.707 -1.758,8.524c0.149,3.298 1.403,6.593 2.51,9.792z" /> <path d="M193.88,826.756c-4.413,-4.047 -8.914,-7.947 -13.835,-11.44h540.421c-3.283,2.313 -6.838,4.342 -11.18,5.781c-5.91,1.957 -10.424,7.037 -15.652,10.616c-10.128,6.939 -22.376,9.744 -34.32,13.126c-0.627,0.177 -1.832,0.333 -1.955,0.088c-4.096,-5.79 -8.339,-0.834 -12.3,0.027c-2.707,0.553 -5.13,2.275 -7.676,3.382c0.123,0.369 0.37,0.86 0.615,1.23c2.558,-0.431 5.118,-0.8 7.688,-1.292c0.125,0.419 0.247,0.788 0.37,1.28c-2.779,0.874 -5.534,1.759 -8.327,2.62c-13.86,3.984 -27.83,7.663 -41.502,12.066c-4.354,1.402 -7.873,4.722 -11.809,7.121c-1.833,1.108 -3.653,2.276 -5.634,3.137c-5.769,2.558 -10.038,7.196 -16.458,8.918c-1.193,0.307 -2.065,1.512 -3.05,2.373c-5.771,5.412 -7.862,6.039 -18.034,4.305c2.265,-0.922 3.593,-1.537 4.933,-2.152c-0.012,-0.247 -0.025,-0.369 -0.043,-0.492c-5.28,0.775 -10.643,1.328 -15.821,2.435c-2.755,0.615 -3.444,4.01 -7.405,4.133c-8.84,0.321 -17.654,2.023 -26.461,1.981c-5.017,-0.024 -9.974,-2.656 -15.066,-3.641c-2.768,-0.615 -5.793,-0.368 -8.697,-0.245c-6.808,0.246 -13.748,1.598 -20.377,0.861c-11.15,-1.28 -22.106,-3.85 -31.958,-5.658c-0.369,-2.251 -0.246,-3.999 -0.861,-4.244c-5.034,-2.275 -9.991,-3.665 -16.116,-2.152c-11.803,2.879 -23.539,6.482 -36.354,4.342c-4.233,-0.701 -8.945,0.8 -13.434,1.292c-1.354,0.081 -2.781,0.368 -4.109,0.123c-12.723,-1.957 -25.529,-3.666 -38.125,-6.151c-4.398,-0.86 -8.37,-3.542 -12.381,-5.608c-7.996,-4.123 -16.042,-8.195 -23.766,-12.684c-6.578,-3.835 -12.652,-8.3 -19.11,-12.311c-1.761,-1.045 -4.011,-1.66 -6.139,-2.152c-12.949,-2.459 -25.94,-4.748 -38.871,-7.282c-1.858,-0.37 -3.726,-1.501 -5.117,-2.731c-4.17,-3.592 -8.106,-7.392 -12.141,-11.095z" /></svg>