<svg xmlns="http://www.w3.org/2000/svg" viewBox="0 0 725 497" width="725" height="497"><path d="M232.746,22.302c18.98,16.847 20.174,44.864 17.024,68.708c-1.066,13.546 0.875,27.427 -2.46,40.476c-3.114,13.07 -9.578,26.418 -18.574,36.622c-7.459,7.161 -15.587,11.228 -23.644,17.607c-33.28,33.642 -87.083,25.991 -121.529,-1.252c-4.11,-2.696 -4.665,-3.926 -5.653,-7.332c-2.859,-9.621 -13.703,-16.981 -17.913,-26.382c-10.489,-17.749 -4.458,-37.511 4.274,-54.997c3.079,-7.125 8.932,-9.877 15.474,-12.409c4.579,-2.034 10.581,-10.169 19.911,-14.67c6.798,-3.2 14.215,-6.237 20.025,-10.987c12.345,-9.721 12.167,-30.4 25.145,-40.612c26.133,-26.688 60.715,-16.832 87.111,4.473zM498.753,355.726c-6.158,-4.103 -12.352,-5.724 -14.492,-13.589c-11.94,-30.414 -37.845,-55.396 -48.384,-85.156c-13.348,-34.916 -31.125,-12.921 -51.3,0.704c-31.09,19.236 -58.709,31.723 -89.244,51.748c-26.19,15.723 -48.932,33.899 -73.991,50.624c-18.176,12.395 -35.499,20.48 -53.632,31.872c-5.476,6.037 -10.745,8.05 -16.043,12.587c-2.901,2.894 -7.076,3.307 -11.271,7.161c-2.084,1.892 -4.338,3.705 -6.827,5.198c-15.374,9.678 -28.395,24.007 -45.084,32.327c-7.097,3.577 -15.047,9.152 -23.31,13.177c-16.085,9.764 -40.377,23.431 -56.981,12.494c-6.272,-4.43 -11.499,-11.769 -5.412,-18.183c6.571,-9.927 14.606,-19.186 25.941,-25.685c18.681,-12.174 26.539,-31.957 42.254,-46.016c12.416,-11.648 29.788,-24.761 43.527,-32.932c14.322,-5.888 20.203,-15.844 30.585,-27.342c18.852,-12.43 33.465,-26.012 51.904,-39.239c32.242,-20.629 61.191,-43.065 92.459,-67.392c9.948,-7.922 20.167,-14.834 30.471,-22.087c16.334,-11.285 32.299,-29.703 50.204,-42.076c14.428,-9.813 27.292,-18.418 40.1,-28.167c16.085,-11.001 34.51,-19.854 54.421,-20.473c28.935,-0.114 50.852,24.676 67.989,45.44c13.476,18.169 30.556,33.963 46.542,50.012c39.545,36.366 72.149,79.474 95.275,127.808c28.423,37.056 54.471,81.244 49.5,129.792c1.301,19.499 -16.05,36.772 -34.887,38.35c-26.233,0.043 -52.096,-11.719 -71.787,-28.309c-6.507,-6.514 -12.48,-9.23 -17.358,-15.701c-2.503,-3.719 -4.395,-7.047 -6.898,-10.368c-4.814,-6.3 -8.967,-6.357 -15.865,-11.115c-4.231,-3.25 -7.886,-6.649 -12.153,-10.219c-6.564,-4.629 -12.452,-14.976 -17.579,-19.413c-3.833,-3.513 -9.671,-5.028 -14.315,-7.303c-3.093,-2.034 -3.449,-5.959 -4.878,-9.067c-5.774,-11.335 -21.17,-21.618 -28.892,-29.013z" /></svg>