<svg xmlns="http://www.w3.org/2000/svg" viewBox="0 0 923 640" width="923" height="640"><path d="M341.979,639.824c-1.475,-0.144 -2.999,-0.436 -3.394,-0.655c-1.083,-0.6 -2.587,-2.305 -2.999,-3.392c-0.225,-0.594 -0.455,-8.719 -0.59,-20.891c-0.125,-10.955 -0.358,-28.035 -0.525,-37.956c-0.345,-20.735 -0.485,-21.847 -3.435,-27.855c-1.345,-2.734 -2.195,-3.915 -4.38,-6.084c-4.783,-4.743 -9.569,-6.556 -17.355,-6.581c-3.935,-0.013 -5.024,0.115 -7.143,0.82c-6.805,2.271 -11.935,6.573 -14.971,12.556c-2.855,5.633 -3.125,7.795 -2.695,21.755c0.715,23.355 1.416,51.843 1.417,57.586c0.002,5.855 -0.015,5.972 -0.905,7.035c-0.499,0.595 -1.485,1.435 -2.185,1.869c-1.265,0.783 -1.385,0.787 -11.355,0.565c-11.365,-0.255 -12.424,-0.442 -13.564,-2.385c-0.72,-1.228 -0.735,-1.843 -0.986,-35.888c-0.143,-19.224 -0.415,-36.074 -0.618,-37.86c-0.885,-7.842 -3.192,-13.282 -7.487,-17.66c-4.64,-4.726 -10.005,-6.763 -16.735,-6.343c-2.372,0.147 -3.442,0.415 -5.242,1.299c-4.447,2.19 -8.476,7.835 -10.088,14.139c-0.745,2.918 -0.758,12.392 -0.065,48.566c0.575,30.057 0.575,29.899 -0.005,30.995c-0.784,1.475 -2.327,1.797 -6.56,1.373c-2.007,-0.204 -5.338,-0.465 -7.402,-0.585c-6.185,-0.355 -8.965,-0.855 -10.265,-1.839c-2.369,-1.793 -2.337,-1.571 -2.625,-18.516c-0.145,-8.445 -0.275,-22.025 -0.291,-30.175c-0.041,-20.746 -0.535,-25.23 -3.435,-31.015c-3.656,-7.305 -10.023,-11.045 -18.2,-10.695c-2.709,0.115 -3.508,0.299 -5.094,1.165c-4.205,2.295 -7.605,7.581 -8.86,13.765c-0.627,3.1 -0.617,11.385 0.045,37.137c0.961,37.236 0.996,35.501 -0.765,36.656c-1.595,1.045 -11.274,-0.03 -13.515,-1.499c-1.161,-0.761 -1.872,-2.418 -2.135,-4.983c-0.122,-1.177 -0.541,-9.375 -0.932,-18.213c-1.191,-26.94 -2.437,-47.314 -3.04,-49.656c-0.673,-2.615 -2.335,-5.105 -5.338,-7.985c-2.995,-2.875 -4.748,-3.665 -7.146,-3.215c-4.501,0.845 -9.719,4.475 -11.405,7.933c-2.052,4.208 -2.425,6.72 -2.616,17.57c-0.096,5.499 0.024,20.165 0.265,32.595c0.341,17.356 0.345,22.832 0.024,23.612c-0.576,1.395 -1.835,1.898 -5.241,2.095c-3.299,0.192 -5.953,-0.475 -7.205,-1.807c-1.946,-2.074 -1.885,-1.035 -2.013,-34.306c-0.102,-26.905 -0.189,-31.095 -0.703,-33.415c-0.808,-3.665 -2.138,-6.452 -3.899,-8.175c-3.039,-2.975 -6.576,-3.465 -10.524,-1.451c-2.7,1.376 -3.901,2.965 -4.973,6.565c-0.593,1.989 -0.635,4.528 -0.635,35.566c0,27.285 -0.086,33.526 -0.475,33.995c-0.775,0.935 -2.855,1.425 -5.235,1.235c-2.445,-0.195 -3.789,-0.885 -4.415,-2.255c-0.297,-0.655 -0.424,-8.035 -0.449,-26.687c-0.021,-14.182 -0.141,-28.605 -0.267,-32.048c-0.267,-7.275 -0.385,-7.618 -4.476,-12.981l-2.378,-3.116l-4.375,9.054l-0.285,4.515c-0.155,2.483 -0.295,16.685 -0.304,31.564l-0.015,27.049l-1.314,1.454c-1.65,1.825 -2.772,2.406 -5.175,2.683c-2.277,0.26 -3.606,-0.185 -4.468,-1.501c-0.596,-0.913 -0.635,-2.765 -0.645,-30.103l-0.005,-29.13l-4.852,-9.905l-0.965,1.245c-0.533,0.685 -1.888,2.367 -3.015,3.737c-1.127,1.37 -2.407,3.278 -2.845,4.244l-0.796,1.752l-0.188,28.443c-0.183,27.345 -0.215,28.471 -0.871,29.195c-1.16,1.282 -2.935,1.515 -8.728,1.155c-6.425,-0.399 -7.673,-0.851 -8.685,-3.142c-0.655,-1.475 -0.675,-2.689 -0.575,-31.095c0.055,-16.255 0.069,-31.485 0.027,-33.843c-0.113,-6.42 -1.435,-10.809 -4.606,-15.265c-1.395,-1.956 -2.065,-4.463 -1.725,-6.455c0.175,-1.038 0.815,-2.025 2.518,-3.881c2.647,-2.885 4.448,-6.36 5.333,-10.286c0.923,-4.099 1.081,-21.165 0.375,-40.436c-0.316,-8.695 -0.675,-16.6 -0.795,-17.572c-0.287,-2.338 -1.088,-4.535 -3.455,-9.485c-1.08,-2.258 -2.418,-5.555 -2.975,-7.321c-0.889,-2.831 -1.011,-3.766 -1.015,-7.855c-0.005,-4.163 0.095,-4.945 0.994,-7.552c1.238,-3.605 4.286,-8.259 7.902,-12.057c1.478,-1.555 2.865,-3.358 3.079,-4.01c0.26,-0.787 0.413,-7.66 0.455,-20.565l0.065,-19.381l-2.755,-5.535c-5.395,-10.831 -6.955,-18.655 -5.449,-27.302c1.474,-8.445 5.635,-14.892 16.935,-26.236c25.555,-25.661 55.826,-47.881 93.406,-68.569c50.309,-27.695 105.058,-47.896 171.228,-63.177c8.545,-1.975 25.347,-5.515 34.105,-7.193c3.144,-0.602 6.838,-1.324 8.215,-1.604c19.105,-3.895 34.143,-6.655 35.456,-6.506c4.213,0.468 10.301,5.275 11.815,9.328c0.715,1.909 0.755,2.678 0.755,13.626c0,11.55 -0.005,11.614 -0.859,13.3c-1.406,2.776 -3.425,8.195 -3.425,9.195c0,0.635 0.755,1.808 2.355,3.667c6.734,7.826 11.779,18.135 15.644,31.942c0.672,2.399 2.375,8.944 3.787,14.54c2.766,10.974 6.535,22.859 8.285,26.145c2.357,4.428 5.615,4.505 25.025,0.594c10.485,-2.115 15.097,-2.528 17.578,-1.582c5.835,2.227 10.54,14.321 11.652,29.936c0.448,6.312 0.145,15.151 -0.96,28.108c-1.265,14.785 -0.028,28.793 3.778,42.89c1.892,7.003 3.718,12.224 7.486,21.387c3.715,9.041 5.127,12.721 9.105,23.745c5.141,14.255 6.961,18.875 7.777,19.751c1.801,1.928 0.585,1.855 30.325,1.841c15.183,-0.005 41.548,-0.156 58.594,-0.335c30.643,-0.316 31.004,-0.33 32.21,-1.075c0.673,-0.415 1.554,-1.291 1.956,-1.945c0.711,-1.149 0.735,-1.692 0.755,-15.425c0.025,-19.362 -0.645,-24.615 -4.032,-31.445c-5.055,-10.2 -15.145,-16.897 -25.45,-16.891c-13.725,0.009 -24.995,9.37 -29.235,24.28c-1.564,5.495 -2.096,10.715 -1.963,19.135l0.124,7.602l-1.225,1.265c-0.675,0.695 -1.716,1.415 -2.322,1.597c-1.727,0.524 -8.875,0.745 -13.884,0.428c-4.546,-0.285 -4.578,-0.295 -5.81,-1.485c-0.681,-0.659 -1.383,-1.766 -1.557,-2.463c-0.174,-0.697 -0.5,-5.038 -0.719,-9.655c-0.605,-12.698 -1.018,-17.045 -1.855,-19.428c-2.165,-6.162 -7.835,-12.938 -12.83,-15.333c-8.525,-4.085 -17.248,-1.625 -24.363,6.875c-1.331,1.59 -2.535,2.891 -2.677,2.891c-0.273,0 -3.114,-6.295 -4.349,-9.643c-1.905,-5.155 -3.653,-13.465 -4.275,-20.355c-0.495,-5.465 -0.485,-18.55 0.031,-33.21l0.419,-11.965l0.925,-1.015c1.475,-1.614 2.559,-1.979 6.505,-2.202c3.276,-0.185 50.215,-1.517 76.076,-2.163c6.005,-0.149 9.825,-0.389 10.345,-0.648c1.289,-0.644 1.659,-1.845 2.045,-6.651c0.273,-3.404 0.669,-5.484 1.674,-8.748c0.725,-2.355 1.855,-6.235 2.513,-8.615c1.955,-7.081 2.62,-8.205 5.21,-8.83c1.435,-0.345 43.53,0.415 56.546,1.02c62.576,2.915 109.016,8.863 159.447,20.413c22.974,5.263 39.429,11.085 59.033,20.888c14.281,7.143 26.486,14.432 42.026,25.095c5.145,3.533 7.068,5.115 10.892,8.957c3.285,3.305 5.201,5.575 6.55,7.76c5.739,9.3 7.328,17.667 5.951,31.329c-0.921,9.125 -0.645,14.756 1.026,21.135c0.705,2.685 1.433,6.224 1.615,7.855c0.215,1.925 0.165,11.638 -0.149,27.611c-0.265,13.553 -0.529,32.033 -0.585,41.066c-0.115,18.427 -0.334,16.571 2.697,23.143c1.165,2.525 1.285,3.082 1.285,5.893c0,2.365 -0.26,4.039 -1.092,7.035c-1.495,5.385 -1.724,11.195 -1.745,44.742c-0.023,30.82 0.293,28.025 -3.55,31.585c-3.248,3.007 -7.113,4.655 -9.506,4.055c-1.973,-0.495 -2.035,-1.072 -2.365,-21.994c-0.415,-26.293 -0.845,-38.042 -1.465,-39.835c-0.275,-0.795 -1.425,-3.175 -2.559,-5.285l-2.061,-3.842l-2.144,4.45c-1.625,3.378 -2.215,5.037 -2.447,6.895c-0.382,3.045 -1.094,36.856 -1.045,49.727c0.025,7.575 -0.074,9.825 -0.477,10.783c-1.087,2.575 -2.885,3.355 -9.049,3.932c-5.72,0.535 -6.524,0.286 -7.141,-2.207c-0.253,-1.015 -0.557,-10.281 -0.82,-24.815c-0.715,-39.522 -0.812,-40.806 -3.575,-46.76c-2.371,-5.107 -5.507,-6.748 -8.793,-4.595c-1.525,0.996 -2.945,4.505 -4.762,11.738c-1.545,6.155 -1.565,6.605 -1.795,36.604c-0.242,32.055 -0.085,29.996 -2.468,32.265c-1.015,0.965 -1.395,1.055 -7.085,1.693c-3.306,0.371 -7.008,0.675 -8.225,0.677c-3.295,0.005 -3.324,-0.066 -3.328,-8.376c-0.005,-3.735 -0.157,-12.096 -0.345,-18.578c-0.188,-6.482 -0.438,-15.4 -0.562,-19.818c-0.63,-22.775 -0.765,-25.516 -1.325,-26.784c-0.745,-1.687 -6.736,-8 -8.673,-9.135c-2.076,-1.216 -3.385,-1.205 -5.201,0.055c-3.027,2.098 -5.651,6.055 -7.075,10.665c-1.912,6.197 -1.935,6.657 -2.152,40.016c-0.185,28.698 -0.247,31.155 -0.825,32.213c-0.835,1.525 -2.385,1.944 -5.538,1.495c-1.325,-0.186 -3.073,-0.305 -3.885,-0.265c-1.238,0.065 -1.628,-0.095 -2.401,-0.971c-1.989,-2.259 -1.94,-1.557 -2.369,-33.365c-0.453,-33.45 -0.689,-39.216 -1.741,-42.221c-1.175,-3.356 -3.615,-7.716 -5.445,-9.715c-3.592,-3.929 -8.755,-4.987 -13.333,-2.735c-3.665,1.805 -6.055,5.423 -8.592,13.013c-2.485,7.435 -2.429,6.468 -2.474,42.553c-0.042,34.695 0.025,33.344 -1.745,34.451c-0.905,0.565 -8.336,1.18 -12.321,1.022c-2.345,-0.095 -3.075,-0.254 -3.439,-0.755c-0.363,-0.495 -0.515,-5.245 -0.686,-21.605c-0.125,-11.535 -0.385,-28.065 -0.585,-36.743c-0.412,-17.916 -0.54,-18.853 -3.38,-24.58c-2.198,-4.435 -4.194,-6.613 -7.593,-8.294c-2.614,-1.292 -2.885,-1.349 -6.326,-1.349c-3.335,0 -3.766,0.085 -5.955,1.161c-3.774,1.856 -5.854,4.619 -8.684,11.53c-2.234,5.454 -2.705,8.331 -3.095,18.915c-0.202,5.444 -0.27,17.463 -0.155,26.962c0.346,28.468 0.329,32.762 -0.139,33.765c-0.855,1.832 -1.238,1.899 -12.695,2.253c-15.716,0.485 -15.21,0.527 -16.515,-1.465c-0.578,-0.884 -0.643,-3.295 -0.856,-32.575c-0.24,-32.608 -0.527,-41.026 -1.542,-45.014c-1.635,-6.433 -5.653,-11.635 -11.05,-14.305c-5.105,-2.525 -13.031,-3.547 -17.816,-2.302c-8.165,2.125 -15.112,9.955 -17.405,19.623c-0.748,3.155 -0.755,3.585 -0.661,38.975c0.091,33.495 0.055,35.843 -0.525,36.73c-0.343,0.523 -0.975,1.078 -1.405,1.237c-1.243,0.457 -19.138,0.795 -19.925,0.375c-1.645,-0.881 -1.752,-1.725 -1.76,-14.158c-0.005,-6.443 -0.163,-21.291 -0.35,-32.995c-0.356,-22.245 -0.617,-26.075 -2.165,-31.745c-2.649,-9.725 -9.375,-16.06 -19.217,-18.095c-3.835,-0.795 -11.855,-0.505 -15.085,0.545c-6.363,2.065 -13.006,8.593 -15.767,15.486c-2.07,5.172 -2.045,4.605 -2.045,42.866v35.12l-0.836,1.135c-1.735,2.355 -2.475,2.675 -6.975,3.025c-2.283,0.177 -7.395,0.236 -11.365,0.134c-7.938,-0.211 -8.475,-0.34 -10.375,-2.505c-0.943,-1.074 -1.118,-1.603 -1.292,-3.855c-0.11,-1.436 -0.365,-18.444 -0.565,-37.787c-0.4,-38.755 -0.451,-39.628 -2.662,-46.138c-3.125,-9.196 -9.406,-14.835 -18.882,-16.941c-3.115,-0.694 -12.095,-0.785 -15.755,-0.159c-8.412,1.435 -15.495,7.111 -19.275,15.445c-2.671,5.886 -2.505,2.555 -2.397,47.796l0.095,40.531l-1.095,1.505c-0.603,0.826 -1.585,1.759 -2.188,2.071c-1.414,0.73 -9.522,1.219 -20.471,1.235c-9.115,0.013 -9.849,-0.138 -11.555,-2.375c-1.171,-1.535 -1.067,0.625 -1.725,-36.357c-0.582,-32.755 -0.915,-41.296 -1.785,-45.856c-2.786,-14.609 -13.465,-22.205 -30.565,-21.745c-4.404,0.117 -5.495,0.268 -7.695,1.061c-7.105,2.559 -13.905,9.798 -16.843,17.935c-2.205,6.11 -2.2,5.967 -2.2,46.146c0,20.435 -0.14,36.886 -0.316,37.352c-0.412,1.082 -2.466,3.11 -3.611,3.564c-1.098,0.435 -16.675,0.69 -20.355,0.335zM900.852,518.849c0.485,-0.325 1.325,-0.996 1.865,-1.495l0.983,-0.905v-11.509c0,-6.33 0.142,-11.564 0.315,-11.627c0.421,-0.159 -0.497,-21.179 -1.225,-27.975c-0.665,-6.225 -0.943,-6.925 -4.597,-11.585l-2.473,-3.15l-2.644,3.235c-3.055,3.745 -3.867,5.185 -4.165,7.401c-0.788,5.854 -1.985,47.247 -1.472,50.973c0.295,2.153 1.343,3.889 2.869,4.767c0.866,0.498 7.877,2.335 9.295,2.435c0.203,0.015 0.765,-0.24 1.25,-0.565zM873.927,511.387c1.007,-1.537 1.244,-37.806 0.319,-49.439c-0.748,-9.445 -1.035,-11.907 -1.665,-14.433c-1.549,-6.184 -4.413,-9.269 -9.037,-9.745c-4.11,-0.425 -7.835,1.716 -9.79,5.625c-2.275,4.555 -2.591,8.654 -2.805,36.449c-0.159,20.874 -0.115,23.651 0.398,25.419c1.145,3.937 3.188,5.262 10.614,6.87c2.433,0.525 5.225,1.159 6.205,1.405c1.68,0.421 1.887,0.394 3.525,-0.478c0.956,-0.508 1.963,-1.264 2.234,-1.675zM837.06,506.582l1.292,-1.429l-0.005,-23.477c-0.007,-34.656 -0.565,-40.767 -4.229,-46.361c-2.755,-4.205 -5.593,-6.044 -9.335,-6.044c-2.935,0 -4.526,0.755 -7.195,3.401c-2.4,2.385 -4.285,5.917 -5.375,10.085c-0.719,2.75 -0.779,3.972 -0.913,18.655c-0.077,8.643 -0.227,18.044 -0.335,20.891c-0.108,2.847 -0.075,8.78 0.065,13.183l0.258,8.005l1.309,1.405c1.285,1.375 1.385,1.415 5.225,1.915c6.234,0.816 9.705,1.105 13.965,1.155l3.975,0.047l1.292,-1.429zM24.729,505.695c4.291,-1.563 6.1,-2.515 6.615,-3.477c0.927,-1.735 -0.615,-44.231 -1.669,-46.024c-0.185,-0.315 -1.325,-1.645 -2.531,-2.955l-2.193,-2.378l-1.696,1.884c-3.231,3.585 -3.242,3.615 -4.085,11.525c-0.935,8.763 -1.725,20.535 -1.382,20.535c0.14,0 0.307,4.137 0.375,9.195c0.1,7.719 0.225,9.548 0.785,11.399c0.652,2.152 0.69,2.195 1.598,1.844c0.514,-0.198 2.395,-0.895 4.179,-1.545zM798.293,504.09c0.976,-0.976 1.085,-1.335 1.315,-4.375c0.397,-5.31 -0.025,-53.516 -0.505,-57.408c-0.759,-6.168 -2.475,-10.295 -5.665,-13.641c-4.975,-5.215 -11.415,-5.455 -16.455,-0.615c-3.655,3.515 -5.523,8.059 -6.165,15.014c-0.261,2.818 -0.345,8.977 -0.235,16.995c0.095,6.915 0.045,12.622 -0.112,12.675c-0.157,0.053 -0.321,6.635 -0.365,14.625c-0.094,15.953 -0.114,15.791 2.065,16.665c1.065,0.425 11.455,0.986 19.996,1.078l5.062,0.055zM754.646,502.692c0.906,-0.555 1.148,-0.981 1.339,-2.369c0.335,-2.442 0.255,-53.777 -0.095,-59.087c-0.467,-7.165 -2.473,-12.005 -6.713,-16.214c-2.537,-2.516 -5.705,-4.14 -8.548,-4.377c-5.226,-0.438 -11.035,3.747 -13.908,10.029c-2.638,5.765 -3.092,12.566 -2.935,44.128l0.113,22.675l0.84,1.705c1.436,2.919 3.43,3.495 13.265,3.822c13.935,0.465 15.41,0.436 16.641,-0.315zM706.771,501.221c2.455,-1.515 2.335,-0.605 2.791,-21.546c0.715,-32.821 0.592,-35.416 -2.105,-44.332c-2.799,-9.255 -6.345,-15.445 -10.255,-17.915c-1.895,-1.196 -5.325,-2.015 -7.162,-1.71c-5.784,0.963 -9.515,4.535 -13.619,13.042c-2.683,5.556 -3.055,7.31 -3.415,16.045c-0.355,8.585 -0.372,30.625 -0.035,44.956l0.222,9.425l1.372,1.11c1.346,1.091 1.455,1.115 6.249,1.313c2.685,0.112 9.358,0.233 14.835,0.267c9.425,0.063 10.018,0.025 11.124,-0.655zM48.593,498.859c4.698,-1.225 7.943,-2.686 8.452,-3.805c0.464,-1.015 -0.157,-42.049 -0.753,-49.715c-0.434,-5.584 -0.755,-6.314 -4.793,-10.848l-2.835,-3.185l-1.095,1.34c-0.602,0.735 -1.935,2.335 -2.968,3.555c-1.033,1.22 -2.107,2.665 -2.394,3.215c-0.768,1.485 -1.544,6.945 -1.955,13.782c-1.105,18.383 -1.175,20.245 -0.781,20.636c0.273,0.273 0.395,3.805 0.395,11.305c0,6.002 0.155,11.455 0.345,12.119c0.816,2.851 2.412,3.155 8.375,1.596zM74.459,492.636c10.725,-2.076 16.588,-3.574 17.602,-4.488c1.815,-1.644 1.83,-1.774 2.175,-18.702c0.522,-25.678 0.254,-29.401 -2.785,-38.522c-3.62,-10.865 -8.315,-14.835 -14.258,-12.061c-3.004,1.402 -6.075,5.575 -8.345,11.335c-1.986,5.045 -1.985,5.034 -2,34.367l-0.013,27.082l1.003,0.863c1.22,1.049 1.795,1.061 6.625,0.125zM123.076,484.061c12.775,-1.524 13.839,-1.799 15.513,-4.043c0.726,-0.975 0.735,-1.275 0.705,-25.511c-0.025,-20.687 -0.125,-25.305 -0.635,-29.524c-0.334,-2.749 -0.775,-5.637 -0.985,-6.418c-1.145,-4.265 -4.902,-9.05 -8.489,-10.813c-1.648,-0.81 -2.465,-0.98 -4.675,-0.974c-3.329,0.012 -5.421,0.995 -8.055,3.792c-2.326,2.473 -3.773,5.043 -5.194,9.243c-1.066,3.155 -1.165,3.865 -1.456,10.525c-0.173,3.927 -0.205,17.345 -0.076,29.813l0.235,22.67l1.189,1.189c1.365,1.365 0.898,1.362 11.926,0.046zM167.894,479.085c5.388,-0.455 17.063,-1.703 18.595,-1.989c0.635,-0.119 1.593,-0.674 2.125,-1.23l0.971,-1.015l0.185,-18.685c0.201,-20.05 -0.325,-39.978 -1.175,-44.464c-1.088,-5.755 -5.274,-11.563 -10.005,-13.885c-1.845,-0.905 -2.532,-1.045 -5.165,-1.045c-2.641,0 -3.301,0.135 -5.076,1.035c-4.005,2.028 -7.725,6.815 -9.387,12.076c-1.325,4.19 -1.659,9.382 -1.575,24.385c0.042,7.465 -0.049,13.861 -0.202,14.215c-0.153,0.354 -0.205,6.865 -0.117,14.464c0.145,12.634 0.215,13.903 0.813,14.815c0.935,1.425 2.24,2.005 4.124,1.83c0.885,-0.083 3.535,-0.311 5.893,-0.508zM228.967,473.382c8.832,-0.639 18.814,-1.525 22.555,-1.998c1.129,-0.145 1.765,-0.495 2.588,-1.435c1.055,-1.202 1.094,-1.362 1.105,-4.714c0.005,-1.907 0.154,-12.065 0.324,-22.575c0.17,-10.51 0.179,-22.801 0.021,-27.317c-0.255,-7.302 -0.392,-8.563 -1.218,-11.355c-2.284,-7.705 -6.539,-13.335 -12.236,-16.175c-2.687,-1.341 -2.925,-1.394 -6.38,-1.395c-3.427,0 -3.709,0.058 -6.305,1.341c-3.927,1.941 -7.445,5.755 -9.873,10.705c-3.475,7.087 -3.269,4.512 -3.269,41.166v32.099l1.142,1.176c0.626,0.646 1.311,1.175 1.516,1.175c0.205,-0.005 4.72,-0.316 10.028,-0.703zM298.414,468.193c3.635,-0.285 10.465,-0.769 15.175,-1.075c14.321,-0.935 18.585,-1.435 19.825,-2.317c1.335,-0.953 2.005,-2.215 2.274,-4.285c0.115,-0.882 0.385,-9.796 0.6,-19.815c0.725,-33.56 -0.085,-41.084 -5.628,-52.306c-2.113,-4.275 -2.703,-5.141 -5.28,-7.755c-3.355,-3.404 -6.085,-4.895 -10.284,-5.624c-8.175,-1.419 -15.949,2.857 -21.301,11.715c-3.685,6.101 -4.801,9.715 -5.376,17.43c-0.397,5.315 -0.202,61.526 0.22,62.904c0.185,0.6 1.951,1.632 2.811,1.641c0.195,0.005 3.33,-0.228 6.965,-0.515zM395.724,463.02c4.321,-0.193 11.875,-0.525 16.785,-0.74c8.425,-0.368 9,-0.436 10.224,-1.232c2.605,-1.691 2.725,-2.157 3.135,-12.322c1.03,-25.515 0.809,-42.086 -0.671,-50.241c-1.835,-10.117 -6.385,-19.875 -11.635,-24.955c-4.025,-3.895 -8.951,-5.913 -14.44,-5.913c-4.581,0 -8.265,1.205 -12.437,4.065c-4.736,3.247 -10.455,11.455 -12.712,18.245c-1.155,3.484 -1.385,8.335 -1.445,30.972c-0.035,12.286 -0.181,22.535 -0.325,22.766c-0.144,0.231 -0.147,4.148 -0.006,8.696l0.255,8.271l2.474,2.735l6.475,-0.005c3.562,0 10.011,-0.159 14.333,-0.352zM878.432,425.978c0.942,-0.847 1.35,-2.713 1.586,-7.239c0.118,-2.258 0.32,-4.185 0.447,-4.285c0.355,-0.275 -0.268,-10.101 -0.885,-13.925c-0.301,-1.865 -0.857,-4.035 -1.239,-4.821c-0.65,-1.339 -6.605,-7.651 -6.895,-7.304c-0.074,0.087 -1.297,1.525 -2.725,3.19c-1.428,1.665 -2.898,3.628 -3.273,4.36c-1.096,2.152 -1.515,7.7 -1.274,16.885c0.19,7.18 0.299,8.315 0.875,9.105c0.795,1.095 3.075,2.245 7.575,3.825c3.505,1.231 4.622,1.271 5.801,0.206zM901.984,400.748c0.185,-2.383 0.245,-5.615 0.125,-7.186c-0.301,-4.005 -1.265,-5.823 -4.808,-9.035l-2.855,-2.588l-0.361,1.348c-0.821,3.071 -1.061,5.236 -1.255,11.346c-0.122,3.825 -0.061,6.94 0.15,7.695c0.413,1.475 1.831,2.924 4.825,4.924l2.144,1.432l0.845,-1.8c0.645,-1.375 0.926,-2.825 1.185,-6.131zM31.025,401.614c3.575,-2.291 5.815,-4.556 7,-7.089c1.044,-2.225 1.106,-3.459 0.593,-11.235c-0.157,-2.385 -0.123,-4.011 0.095,-4.285c0.485,-0.614 -0.629,-17.855 -1.385,-21.371c-0.375,-1.745 -2.665,-5.565 -4.845,-8.087l-1.005,-1.163l-1.835,2.271c-1.009,1.248 -2.295,2.965 -2.855,3.817l-1.022,1.545l0.074,22.518c0.04,12.385 0.155,22.855 0.26,23.265c0.155,0.615 1.225,1.449 1.987,1.554c0.097,0.015 1.421,-0.772 2.937,-1.745zM751.183,398.646c1.945,-0.999 2.215,-1.877 3.081,-9.995c0.185,-1.755 0.325,-2.055 0.945,-2.055c0.497,0 0.664,-0.167 0.523,-0.535c-0.114,-0.295 -0.46,-1.941 -0.774,-3.66c-2.695,-14.843 -4.436,-19.745 -8.035,-22.595c-3.71,-2.938 -7.847,-3.475 -11.785,-1.525c-4.685,2.318 -8.135,6.393 -9.875,11.655c-0.876,2.655 -0.965,3.415 -0.985,8.625c-0.015,3.144 0.203,8.075 0.477,10.961c0.572,5.961 0.186,5.405 4.495,6.515c10.128,2.605 19.715,3.745 21.926,2.607zM56.187,384.318c7.225,-3.994 8.591,-4.844 9.705,-6.045l0.845,-0.913l-0.049,-13.145c-0.055,-14.044 -0.558,-31.256 -1.086,-37.018c-0.266,-2.913 -0.492,-3.773 -1.305,-4.999c-1.185,-1.795 -5.946,-7.325 -6.241,-7.25c-0.343,0.086 -4.383,4.923 -5.579,6.675c-1.985,2.905 -2.317,5.205 -3.135,21.604c-0.445,8.955 -0.485,13.308 -0.195,22.675c0.372,12.025 0.775,21.769 0.904,21.769c0.041,0 2.805,-1.507 6.14,-3.353zM850.394,379.56c0.543,-0.825 0.655,-2.048 0.777,-8.482c0.269,-13.945 0.275,-13.783 -0.605,-15.451c-1.125,-2.129 -2.743,-3.872 -5.049,-5.435c-3.403,-2.305 -4.24,-2.638 -5.395,-2.161c-2.373,0.984 -2.308,0.585 -2.202,13.845c0.086,10.735 0.165,12.155 0.752,13.449c1.018,2.255 2.479,3.376 5.623,4.315c3.901,1.164 5.295,1.145 6.096,-0.084zM88.366,367.47c11.621,-5.177 14.385,-6.586 15.235,-7.772c0.714,-0.989 0.725,-1.445 0.722,-24.462c-0.005,-23.115 -0.015,-23.498 -0.805,-26.617c-2.209,-8.728 -8.26,-14.879 -13.77,-13.997c-4.005,0.64 -7.195,3.368 -9.465,8.095c-2.925,6.09 -3.159,9.125 -3.225,41.796l-0.046,24.515l1.262,1.105c0.695,0.608 1.345,1.105 1.445,1.105c0.1,0 3.994,-1.696 8.646,-3.772zM789.87,365.201l1.165,-1.043v-15.832c0,-12.745 -0.095,-16.062 -0.498,-17.015c-0.375,-0.885 -1.042,-1.455 -2.675,-2.28c-5.592,-2.824 -9.225,-3.494 -11.074,-2.041c-1.564,1.228 -2.035,2.928 -2.425,8.715c-0.405,6.012 -0.115,22.165 0.435,24.155c0.785,2.848 2.922,4.23 8.56,5.537c4.548,1.055 5.124,1.036 6.512,-0.205zM691.537,351.651c2.403,-0.241 2.735,-0.375 3.781,-1.515c1.101,-1.201 1.155,-1.405 1.351,-4.983c0.323,-5.915 -0.265,-26.368 -0.797,-27.835c-0.654,-1.792 -2.364,-3.465 -3.817,-3.737c-0.682,-0.126 -3.435,-0.225 -6.115,-0.214l-4.875,0.019l-3.225,3.225v14.905c0,15.451 0.119,16.912 1.524,18.635c1.351,1.657 5.495,2.166 12.181,1.497zM132.926,349.448c8.245,-0.785 13.135,-2.505 14.955,-5.261c0.485,-0.734 1.165,-2.375 1.517,-3.655c0.585,-2.125 0.637,-4.365 0.63,-26.605c-0.009,-27.435 -0.018,-27.545 -2.688,-32.96c-2.774,-5.625 -7.365,-9.147 -11.945,-9.165c-5.754,-0.024 -11.581,5.975 -13.58,13.972c-0.801,3.204 -1.062,12.565 -1.062,38.156c0,21.056 0.042,22.575 0.647,23.685c1.202,2.201 3.615,2.585 11.521,1.835zM177.02,335.509c9.395,-2.895 18.979,-6.085 20.345,-6.775c2.319,-1.171 2.221,0.217 2.032,-28.599c-0.195,-29.384 -0.175,-29.135 -2.775,-34.486c-3.134,-6.435 -8.955,-10.535 -14.195,-9.995c-4.727,0.487 -9.527,4.425 -12.164,9.978c-1.525,3.215 -2.045,5.052 -2.544,8.965c-0.179,1.415 -0.43,15.595 -0.556,31.514l-0.233,28.941l1.135,1.135c0.72,0.72 1.489,1.135 2.109,1.135c0.535,0 3.616,-0.815 6.845,-1.807zM231.278,319.102c7.335,-1.792 13.303,-3.303 21.946,-5.558c3.792,-0.989 4.825,-1.405 5.715,-2.294l1.085,-1.085l0.376,-12.583c0.456,-15.235 0.366,-30.839 -0.201,-34.724c-0.995,-6.801 -4.53,-13.889 -8.803,-17.65c-0.925,-0.815 -2.863,-2.065 -4.305,-2.775c-8.425,-4.165 -17.666,0.21 -22.778,10.785c-3.045,6.305 -2.955,5.345 -3.115,33.033c-0.077,13.455 -0.052,26.365 0.058,28.693c0.196,4.173 0.215,4.244 1.273,5.085c0.589,0.472 1.153,0.855 1.25,0.855c0.097,0 3.474,-0.805 7.499,-1.785zM300.655,305.717c28.585,-3.495 35.296,-4.425 36.234,-5.031c1.998,-1.295 1.91,-0.026 1.968,-28.235c0.065,-31.605 -0.139,-34.261 -3.146,-40.776c-3.646,-7.904 -10.717,-13.785 -17.792,-14.805c-12.225,-1.762 -23.71,8.207 -25.548,22.179c-1.032,7.835 -1.182,13.406 -0.725,26.955c0.345,10.224 0.355,13.595 0.043,13.908c-0.295,0.295 -0.415,3.655 -0.415,11.815v11.404l1.56,1.56c1.795,1.795 1.673,1.777 7.824,1.025zM20.803,301.877c-0.095,-0.637 -0.259,-5.257 -0.361,-10.265c-0.356,-17.665 -2.105,-29.788 -6.325,-43.891c-0.844,-2.815 -1.345,-5.13 -1.225,-5.617c0.265,-1.053 1.715,-1.805 4.084,-2.12c3.184,-0.423 3.867,-1.461 4.525,-6.855c0.207,-1.705 0.446,-2.112 2.536,-4.285c1.36,-1.415 2.775,-3.353 3.445,-4.715c1.085,-2.205 1.14,-2.525 1.16,-6.605c0.015,-3.021 0.175,-4.574 0.535,-5.245c1.248,-2.319 20.532,-22.415 32.1,-33.45c39.946,-38.109 81.874,-68.959 130.359,-95.917c9.285,-5.163 33.845,-17.595 43.386,-21.965c9.205,-4.215 23.994,-10.536 33.033,-14.125c16.675,-6.617 33.565,-12.678 35.296,-12.665c1.46,0.013 3.725,1.19 4.845,2.515c0.555,0.658 1.465,2.167 2.026,3.355c1.585,3.351 10.205,25.335 23.045,58.756c9.187,23.924 11.965,30.791 12.816,31.725c1.304,1.425 2.855,1.805 7.522,1.825c3.432,0.015 6.005,0.603 8.725,1.985c5.885,2.99 11.23,9.575 13.56,16.706c0.735,2.254 0.765,2.65 0.375,5.535c-0.228,1.709 -0.485,3.323 -0.57,3.585c-0.103,0.315 -0.835,-0.132 -2.155,-1.31c-1.102,-0.983 -2.969,-2.3 -4.15,-2.929c-1.909,-1.016 -2.359,-1.12 -4.055,-0.92c-2.822,0.333 -39.376,7.345 -52.462,10.067c-53.034,11.027 -85.614,20.065 -123.199,34.176c-51.978,19.515 -93.796,41.826 -128.875,68.766c-10.725,8.235 -17.665,14.352 -30.035,26.465c-5.796,5.675 -9.007,8.583 -9.485,8.583c-0.165,0 -0.383,-0.524 -0.478,-1.161zM41.333,257.127c3.265,-2.396 5.995,-6.135 7.281,-9.975c1.005,-2.995 1.162,-6.305 0.885,-18.522c-0.245,-10.811 -0.317,-11.789 -0.935,-12.407c-0.657,-0.657 -0.739,-0.595 -3.875,2.935c-1.764,1.985 -3.721,4.415 -4.351,5.405c-1.911,2.997 -2.071,4.445 -2.045,18.485c0.023,12.567 0.191,15.355 0.927,15.355c0.21,0 1.164,-0.574 2.115,-1.275zM88.969,213.385c4.995,-3.455 8.526,-7.495 9.914,-11.345c0.823,-2.285 0.824,-2.306 0.385,-17.735c-0.235,-8.232 -0.405,-10.523 -0.829,-11.165c-0.295,-0.445 -0.717,-0.736 -0.943,-0.652c-0.226,0.084 -1.832,1.245 -3.573,2.575c-8.118,6.209 -8.825,7.113 -9.803,12.534c-0.795,4.407 -0.894,11.122 -0.299,20.577c0.505,8.035 0.732,8.265 5.145,5.212zM176.184,160.355c0.94,-0.305 3.825,-1.587 6.415,-2.847c3.599,-1.753 4.945,-2.603 5.715,-3.611l1.005,-1.319l0.115,-14.815c0.065,-8.146 0.025,-15.165 -0.081,-15.591c-0.106,-0.426 -0.722,-1.055 -1.365,-1.395l-1.168,-0.617l-4.851,1.945c-9.706,3.889 -10.845,5.295 -11.466,14.168c-0.415,5.895 -0.126,19.852 0.446,21.895c0.755,2.684 2.053,3.225 5.235,2.186zM21.198,198.74c-0.549,-1.398 -0.525,-1.636 0.626,-6.695c0.658,-2.885 1.306,-5.725 1.443,-6.315c1.245,-5.445 3.445,-11.041 7.661,-19.463c14.401,-28.774 36.206,-53.216 70.386,-78.898c47.246,-35.504 99.168,-62.541 161.433,-84.066c10.674,-3.689 10.975,-3.755 12.562,-2.776c1.739,1.075 7.205,6.855 9.935,10.505c2.653,3.545 5.496,8.722 5.851,10.636c0.223,1.205 0.125,1.376 -1.667,2.985c-1.728,1.55 -2.819,2.056 -11.904,5.537c-75.146,28.795 -140.547,66.536 -195.514,112.827c-18.435,15.525 -30.095,26.658 -47.786,45.626c-8.225,8.821 -11.095,11.543 -12.175,11.543c-0.155,0 -0.538,-0.654 -0.854,-1.451z" /></svg>