<svg xmlns="http://www.w3.org/2000/svg" viewBox="0 0 1024 1024" width="1024" height="1024"><path d="M272.788,887.006c0,75.154 -61.028,135.802 -136.494,135.802c-75.192,0 -136.292,-60.648 -136.292,-135.802c0,-74.742 61.096,-136.076 136.292,-136.076c75.47,0 136.492,61.334 136.494,136.076zM676.018,1024h-197.122c0,-128.264 -49.898,-248.982 -140.282,-339.3c-90.5,-90.54 -210.674,-140.512 -338.458,-140.512v-196.258c372.58,0 675.86,303.25 675.862,676.07zM1024,1024h-196.856c0,-456.31 -370.974,-827.644 -826.756,-827.644v-196.356c564.358,0 1023.612,459.53 1023.612,1024z" /></svg>