<svg xmlns="http://www.w3.org/2000/svg" viewBox="0 0 891 896" width="891" height="896"><path d="M549.08,716.221c1.444,0.001 1.589,0.344 0.458,1.035c-4.368,2.667 -14.978,3.905 -17.865,2.081v0.002c-2.123,-1.341 -1.755,-1.701 1.785,-1.739c2.457,-0.017 7.683,-0.482 11.613,-1.013c1.808,-0.245 3.142,-0.369 4.008,-0.368z" /> <path d="M100.206,410.613c0.11,-0.049 0.237,0.241 0.371,0.917c0.427,2.161 0.427,5.7 0,7.861c-0.427,2.161 -0.777,0.393 -0.777,-3.929c0,-2.973 0.163,-4.737 0.405,-4.847z" /> <path d="M366.413,17.355c-0.639,0.425 -1.346,0.855 -2.088,1.288c0.558,-0.369 1.21,-0.778 2.088,-1.288z" /> <path d="M140.854,134.564c0.04,0.024 0.051,0.09 0.044,0.177c-0.029,-0.093 -0.044,-0.177 -0.044,-0.177z" /> <path d="M623.296,847.084c0.006,0.008 0.01,0.015 0.019,0.024c-0.092,0.039 -0.096,0.024 -0.019,-0.024z" /> <path d="M681.546,821.163c0.091,-0.084 0.13,-0.102 0.147,-0.102c-0.059,0.044 -0.084,0.055 -0.147,0.102z" /> <path d="M808.108,691.483c-1.029,0.798 -1.725,1.352 -2.262,1.715c0.75,-0.578 1.5,-1.162 2.262,-1.715z" /> <path d="M400.236,0.005v0.011h0.057c1.062,0.133 2.137,0.21 3.239,0.329l2.801,0.164c1.317,0.028 2.645,0.028 4.008,0c-3.042,0.363 -9.151,0.988 -1.595,2.471c12.514,0.156 2.854,0.88 9.772,2.637c12.39,0.777 2.345,-2.492 20.534,0.109c1.961,0.198 0.196,-0.83 -1.757,-1.428c4.197,0.634 8.156,1.025 11.036,1.205c6.118,0.079 12.098,-0.053 19.931,0.822c-5.313,-0.481 -9.338,-1.005 -2.142,-1.648c-3.119,1.201 9.874,1.317 14.55,2.197l1.262,-0.767c3.755,0.884 -0.214,1.165 -3.295,1.373c0.084,-0.289 -1.016,-0.523 -3.293,-0.495c-5.998,0.518 -3.835,3.401 5.601,3.842c10.152,-0.598 8.514,-2.552 6.752,-3.348c1.279,0.088 2.399,0.164 3.4,0.164c1.156,0 2.17,-0.055 3.13,-0.055c1.556,0.239 2.139,0.245 3.019,0.273c0.76,0.028 1.572,0.028 2.251,0c1.404,-0.06 2.59,-0.156 3.953,-0.218c2.678,-0.082 5.699,0.073 10.816,1.593c2.92,0.518 11.998,5.388 21.195,7.469c5.075,-0.76 -11.306,-3.501 -5.71,-3.897c3.64,1.753 7.42,3.058 11.42,3.622c4.078,0.52 8.254,0.702 12.573,0.822c8.714,0.282 17.996,0.367 27.949,2.964l-2.801,1.757c2.277,0.399 4.517,0.67 6.915,1.043c1.401,0.72 2.86,1.478 4.339,2.197c1.285,0.606 2.611,1.215 4.008,1.813l-5.929,-4.228c4.755,1.841 14.443,7.12 10.487,6.972c10.393,3.28 12.01,5.201 20.809,10.158c-9.514,-4.879 -0.047,-0.374 -7.523,-2.855c4.118,2.561 6.644,3.971 8.84,5.052c1.079,0.48 2.103,0.936 3.184,1.373c1.162,0.441 2.349,0.886 3.787,1.484c0.558,0.401 1.39,1.073 2.308,1.757c-1.438,-0.282 0.907,3.241 3.184,5.161c6.355,3.717 15.561,12.03 23.716,18.063l-0.384,0.44l3.295,2.637l2.798,2.415c3.276,1.038 6.471,2.117 9.829,3.239l10.542,3.513c7.037,2.277 14.063,4.365 21.14,5.601c0.359,0.06 0.703,0.19 1.042,0.218l-1.484,-0.549c-2.081,-1.572 -0.516,-1.519 5.601,0c1.759,2.2 3.824,4.864 5.819,7.303c1.682,2.081 3.244,3.996 4.283,4.997c0.279,1.236 -0.058,2.144 1.704,4.503c1.595,-0.96 4.758,4.697 6.915,6.094c2.997,5.078 -2.22,0.792 3.897,8.785c2.474,3.042 3.507,2.764 3.843,1.924c0.157,0.995 1.338,3.341 2.14,4.941c1.116,1.518 3.559,4.036 5.435,5.874c-1.68,-0.878 -3.379,-3.289 -4.339,-4.008c-1.163,0.282 1.673,2.453 0.713,3.293c3.398,3.32 2.617,0.028 6.534,4.503l-5.054,-2.637c1.483,1.878 4.149,3.398 5.109,4.117c-1.482,-1.056 -2.353,-1.195 -2.91,-0.987l5.106,4.777c1.666,-0.278 -0.789,-4.748 0.329,-5.271c3.921,4.318 7.859,7.714 11.695,10.871c1.92,1.523 3.857,3.065 5.656,4.503l2.692,2.197l3.073,2.58l2.251,3.019l-2.526,-0.656c2.963,3.88 4.569,5.661 6.205,6.697l4.228,6.314c-2.957,-3.262 -4.283,-4.138 -5.601,-3.622c4.959,6.397 10.814,15.742 13.891,16.141l-0.438,-0.055c5.158,9.436 17.936,27.847 16.855,27.727c7.317,8.875 14.737,21.541 16.858,20.423c4.517,5.158 8.159,16.049 13.397,18.285c3.637,7.435 -0.193,0.669 -3.073,-0.329c3.68,7.476 11.687,11.781 10.651,15.979c6.713,7.318 -0.837,-2.292 2.362,-0.493c-0.399,0.797 0.207,2.249 1.205,4.006c0.12,6.234 2.47,16.158 2.033,23.115c1.758,3.796 0.276,-4.11 2.471,2.526c-0.854,-0.563 -0.565,3.089 -0.385,4.888l2.142,1.539l-2.472,6.643l1.096,7.798l0.109,0.329c2.08,1.481 0.296,-4.134 6.534,7.741l-0.658,-0.878c0.239,5.234 6.816,10.942 10.816,23.335c-1.483,-4.195 -1.611,-1.27 -2.692,-2.306l3.733,6.203c-0.376,-0.552 -0.669,-0.76 -0.549,0c0.841,4 1.751,4.648 2.91,6.643c0.515,1.403 0.945,2.83 1.153,5.71c-0.643,-1.918 -1.252,-2.73 -1.648,-2.91l2.637,9.772l1.096,2.084l-0.713,-0.602l8.238,30.749l-9.332,45.846l0.329,1.042c0.198,0.06 0.476,0.081 0.656,0.109l2.197,6.257c0.925,-0.522 0.279,-5.072 -0.44,-7.907c-0.079,-2.801 5.861,9.501 8.183,16.417c4.875,18.947 -2.363,4.824 0.438,17.899l2.254,5.765l1.042,2.855v-0.164l1.316,3.677l-0.602,3.4l-0.329,2.527h-1.096c-1.277,2.561 -0.523,4.25 -0.495,5.052c-1.156,-1.521 -3.78,13.572 -5.656,20.369l1.813,-2.197c-1.715,19.712 -10.148,29.373 -12.024,44.804l-0.218,11.091l-2.308,1.813c0,1.522 -0.107,2.761 -0.107,3.842c-0.321,4.118 -0.263,6.529 -3.184,14.166c-1.996,4.876 -3.911,9.802 -5.71,14.879l-2.637,7.578l-2.637,8.127c-8.954,13.792 -16.265,26.13 -24.982,40.081l-6.643,6.532l-6.257,6.257c-4.242,4.039 -8.489,8.077 -12.848,11.913c0.253,-0.035 0.574,-0.21 0.974,-0.482c-3.43,2.648 -6.686,5.472 -9.049,7.671c-4.122,6.636 -7.656,14.019 -10.653,20.699c-1.482,3.4 -3.02,6.746 -4.503,10.104l-2.251,5.054l-1.262,2.526l-1.977,3.677c-1.559,1.199 -3.198,2.367 -4.834,3.568c-1.317,0.877 -2.645,1.786 -4.008,2.746c-2.759,1.799 -5.641,3.536 -8.84,5.215l1.207,-1.702c-11.995,8.913 1.277,-1.817 -8.236,3.622c-0.237,3.161 -14.716,12.175 -20.754,18.451c0.763,-1.201 3.087,-3.002 4.886,-4.834c-1.599,0.602 -2.922,-0.087 -6.039,2.91c-2.278,3.478 -6.331,7.61 -11.091,11.969c-2.438,2.08 -4.922,4.255 -7.523,6.532c-2.438,2.039 -4.905,4.165 -7.303,6.205c-1.758,2.318 -3.395,4.576 -4.995,6.697c-2.319,0.396 -11.855,9.637 -18.174,13.233c-0.56,1.561 -1.491,4.478 -2.251,7.194c-1.481,1.201 -2.679,2.394 -3.677,3.677c-0.601,0.72 -1.181,1.516 -1.704,2.197c-0.643,0.874 -1.27,1.74 -1.868,2.58c-1.68,0.644 -3.93,1.499 -5.052,2.142l5.492,-1.484l6.477,-7.909c-0.03,0.171 -0.059,0.32 -0.059,0.44c0.238,-0.439 0.751,-1.122 1.153,-1.759c1.797,-2.168 2.821,-3.531 2.729,-3.559c4.744,-3.503 0.543,1.238 2.16,2.025c-1.238,1.525 -3.114,3.686 -4.834,5.765c-0.881,1.08 -1.721,2.059 -2.526,3.019c-1.437,1.632 -2.752,3.024 -3.788,4.06c-1.801,0.364 -2.988,0.477 -3.511,0.329c-2.882,0.703 -3.382,0.827 -4.779,1.096c-1.237,0.237 -2.487,0.498 -4.006,0.767c-1.76,0.722 -3.783,1.357 -5.985,1.759l0.933,-0.385c-0.392,-0.12 -0.838,-0.136 -1.316,-0.164c-4.599,0.803 -9.823,2.629 -14.824,4.669c-2.518,1.04 -4.979,2.059 -7.301,3.019c-1.154,0.523 -2.28,1.043 -3.402,1.484c-0.483,0.236 -0.968,0.476 -1.484,0.656c-0.031,0.112 -0.055,0.267 -0.055,0.329c-0.03,-0.112 -0.055,-0.239 -0.055,-0.329c-0.028,-0.478 0.12,-0.993 0,-1.262c-0.237,-0.275 -0.435,-0.451 -0.876,-0.599c-0.236,-0.355 -2.341,0.4 -2.726,-0.194c0.09,-0.04 0.267,-0.131 0.527,-0.301c0.321,-0.154 0.876,-0.49 1.595,-0.931c3.519,-0.88 9.655,-2.528 16.69,-4.285c-0.961,0.039 -1.604,-0.069 -1.977,-0.547c-2.92,0.241 -5.497,0.82 -8.016,1.539c-1.283,0.396 -2.505,0.873 -3.788,1.314c-1.32,0.395 -2.761,0.938 -3.239,1.207l-0.933,0.713l-1.484,1.153c-1.115,0.798 -2.199,1.535 -3.4,2.415c-2.363,1.599 -5.035,3.332 -8.236,5.052c0.719,-0.679 2.22,-2.02 1.26,-2.14c-4.877,2.6 -8.433,6.39 -8.949,7.909c-1,-0.316 -4.141,0.877 -7.578,2.635c-1.759,0.88 -3.536,1.976 -5.215,3.019c-0.805,0.56 -1.644,1.006 -2.363,1.484c-0.92,0.678 -1.766,1.367 -2.526,1.924c-0.14,0.088 -0.301,0.245 -0.329,0.273c-3.201,1.078 -4.149,1.605 -5.71,2.086c-1.561,0.481 -3.662,0.848 -8.181,1.371l3.897,-1.648c-11.035,0.438 -8.708,2.73 -17.787,2.91c3.597,0 3.765,-1.162 1.042,-1.042c-11.312,2.038 -11.484,2.709 -19.438,5.985l1.316,-1.977c-9.08,1.849 -25.836,4.959 -27.99,3.293c0.487,1.019 -1.641,1.725 -5.008,2.197c-1.839,0.28 -4.118,0.508 -6.477,0.656c-2.24,0.112 -4.6,0.209 -6.917,0.329c-4.121,0.636 -8.011,1.191 -10.487,1.593c2.834,-0.601 3.305,-1.485 3.513,-1.922c-6.117,1.96 -12.35,3.367 -18.669,4.448l-9.498,1.484l-10.049,1.43l-8.127,0.329l-7.852,0.493l-3.021,-2.471c-9.477,0.759 -11.81,6.236 -22.127,6.915l3.677,-1.593c-4.281,0.359 -8.118,0.807 -10.158,0.987c-3.555,-0.719 -6.686,-1.361 -9.607,-1.922c-2.598,-0.52 -4.995,-1.018 -7.358,-1.541c-4.712,-1.038 -9.271,-2.065 -14.988,-3.348l0.656,-1.702c-2.32,-0.084 -4.868,-0.444 -7.469,-0.713c-2.719,-0.321 -5.497,-0.648 -8.016,-0.987c-1.758,-0.432 -1.961,-0.454 -2.801,-0.602c-3.278,-2.641 -9.278,-5.05 -16.637,-7.413c-3.634,-1.118 -7.74,-2.345 -11.856,-3.622c-2.039,-0.643 -4.126,-1.228 -6.205,-1.868l-6.915,-2.306c-2.279,-1.235 -4.518,-2.38 -6.754,-3.622c-1.999,-1.12 -3.936,-2.369 -5.819,-3.57c-3.844,-2.402 -7.368,-4.872 -10.324,-7.469l-2.801,2.251c-2.561,-1.398 -5.404,-2.965 -8.127,-4.448c-1.352,-0.763 -2.616,-1.546 -3.899,-2.306c-1.158,-0.678 -2.788,-1.729 -2.58,-1.757c-0.196,-0.197 0.103,-0.149 -0.495,-0.329c-0.478,-0.237 -0.889,-0.503 -1.262,-0.711c-0.84,-0.483 -1.553,-1.018 -2.031,-1.541l1.757,0.549c1.477,-2.277 -8.128,-2.186 -13.124,-4.062c-3.92,-0.719 -8.198,-0.094 -4.997,1.262c-3.559,-1.196 -7.423,-2.421 -11.42,-3.622c-4.479,-1.234 -9.142,-2.559 -13.782,-3.842c-4.037,-2.761 -8.089,-5.52 -11.969,-8.238c-3.522,-2.478 -6.919,-4.917 -10.157,-7.194c-6.356,-4.637 -11.727,-8.916 -15.043,-12.353c-0.522,-0.316 -0.989,-0.668 -1.43,-0.876c-1.115,-1.082 -2.282,-2.148 -3.4,-3.184c-0.997,-0.922 -1.963,-1.812 -2.964,-2.692c-1.92,-1.761 -3.818,-3.441 -5.656,-5.161c-3.837,-3.32 -7.44,-6.57 -11.2,-9.886c-3.676,-3.284 -7.421,-6.689 -11.257,-10.324c-3.998,-3.477 -8.088,-7.138 -12.407,-11.254l0.495,-0.055c-5.678,-5.914 -17.004,-17.767 -15.043,-19.767c-13.195,-11.595 -23.793,-16.644 -38.107,-32.118l4.008,2.415c-0.563,-0.643 -1.134,-1.243 -1.813,-1.922c-0.84,-0.763 -1.755,-1.67 -2.635,-2.472c-1.243,-1.757 -1.753,-2.265 -2.472,-3.184c-0.719,-0.805 -1.324,-1.532 -1.922,-2.251c-1.281,-1.398 -2.323,-2.573 -2.801,-3.13c-1.002,-1.559 0.244,-0.713 0.767,-0.713c-2.04,-4.716 -4.974,-6.353 -7.413,-9.552l1.648,0.878c-1.639,-3.201 -3.697,-6.537 -6.096,-10.049c-1.199,-1.764 -2.454,-3.551 -3.731,-5.383c-1.482,-2.001 -2.998,-4.046 -4.557,-6.203c-2.76,-5.997 -5.685,-12.267 -8.565,-18.505c-2.76,-6.042 -5.376,-12.157 -7.578,-17.954c1.759,3.557 1.961,1.252 1.813,-0.384c-0.635,-0.719 -1.405,-1.665 -2.084,-2.746c-0.317,-0.519 -0.641,-1.05 -1.043,-1.648c-0.358,-0.719 -0.521,-0.932 -1.205,-2.415c-0.481,-1.441 -1.05,-2.957 -1.648,-4.557c-0.441,-1.441 -0.961,-2.967 -1.484,-4.45c-0.879,-3.077 -1.773,-6.255 -2.692,-9.332c-1.68,-6.115 -3.183,-11.795 -4.339,-15.153l2.527,5.054c-3.364,-8.798 -3.212,-12.211 -3.513,-16.967c0.076,-4.282 0.244,-7.629 -2.033,-15.703l-0.218,10.104c-0.64,-7.078 -2.117,-12.912 -3.239,-11.036c-0.277,-8.274 2.172,-1.394 0.493,-13.671c0.757,-0.679 1.994,8.755 2.472,4.557l-0.384,-17.35v-0.055c0.089,-0.153 -0.044,-1.3 -0.164,-2.14c-0.445,-1.117 -1.055,-2.763 -1.979,-5.161c-3.157,2.723 -5.016,-13.295 -5.656,-3.899c-2.157,-5.796 -4.075,-11.437 -5.874,-16.91c-1.8,-5.635 -3.551,-11.117 -5.271,-16.472c-0.437,-2.837 -0.86,-5.53 -1.262,-8.29c-0.481,-2.601 -0.93,-5.181 -1.371,-7.741c-0.958,-5.081 -2.046,-10.143 -3.402,-15.099c0.358,-1.6 0.423,-3.784 0.275,-6.423c-0.102,-1.362 -0.347,-2.845 -0.495,-4.283c-0.122,-0.763 -0.211,-1.506 -0.273,-2.308c-0.183,-1.115 -0.401,-2.301 -0.549,-3.457c0.999,-3.238 2.018,-6.555 3.019,-9.716c0.92,-2.796 1.743,-5.485 2.583,-7.687c1.643,-4.44 3.239,-7.177 4.557,-6.096c3.319,-11.315 5.425,-20.579 5.052,-28.219c0.951,-5.492 1.926,-11.398 2.912,-15.208c-0.922,7.794 -2.792,20.279 -2.912,26.517c2.603,-10.394 4.19,-25.474 5.109,-31.351l3.129,-2.033c0.359,-8.874 3.57,-7.081 3.57,-15.317c-0.031,-0.159 -0.027,-0.283 -0.055,-0.656c-0.168,0.288 -0.347,0.399 -0.495,0.547c-0.196,0.196 -0.422,0.412 -0.602,0.713c0.059,-0.279 0.192,-0.587 0.22,-0.767c2.339,-15.11 0.057,-16.268 1.977,-31.185l0.878,0.876c0.519,-2.038 0.647,-4.523 0.767,-7.083c0.059,-1.277 0.044,-2.566 0.164,-3.843l0.329,-1.922c0.168,-0.799 0.318,-1.491 0.438,-2.251c0.436,-1.081 0.686,-1.719 0.987,-2.197c0.321,-0.561 0.778,-0.95 1.151,-1.428l-1.26,3.842l-0.933,6.752c1.123,-0.52 2.158,-3.004 3.239,-6.203c1.201,-2.322 2.07,-3.964 2.91,-5.327c2.833,-10.314 -1.545,-4.47 -0.107,-9.663c2.239,-1.601 1.029,-0.212 1.428,3.788c1.402,-5.278 3.01,-11.348 4.448,-17.185c0.719,-2.92 1.367,-5.782 1.924,-8.454c0.559,-2.96 1.098,-5.657 1.539,-8.016c0.878,-1.477 1.359,-2.542 1.539,-3.185c0.511,-0.279 0.547,0.44 0.547,0.44c7.597,-9.799 11.714,-20.405 17.35,-25.641l-1.262,2.084c1.719,-1.397 3.351,-3.22 4.834,-5.215l2.14,-3.184c0.76,-1.042 1.473,-2.136 1.593,-2.472c0.039,-0.437 0.703,-2.435 1.042,-3.677c0.484,-1.356 0.936,-2.652 1.373,-3.733c0.923,-2.158 1.866,-3.529 3.184,-3.677c2.316,-4.116 -3.806,9.926 0.713,3.57c6.277,-13.393 0.096,-10.32 5.656,-22.073c-0.722,1.607 -0.312,1.149 -0.164,1.868c1.559,-4.599 3.45,-9.909 5.49,-15.705c4.198,-3.92 8.763,-8.215 12.961,-12.131c3.278,-1.559 7.061,-4.231 10.982,-7.469c1.921,-1.679 3.945,-3.441 5.985,-5.161c1.92,-1.716 3.899,-3.498 5.819,-5.215c1.125,-1.721 2.228,-3.43 3.35,-5.109c1.196,-1.834 2.38,-3.619 3.622,-5.215c2.479,-3.359 4.95,-6.329 7.469,-8.565c-3.451,2.894 0.076,-2.981 0.153,-4.108c0.056,0.178 0.189,0.395 0.556,0.15c2.931,-4.358 2.176,-5.617 2.855,-7.578c0.917,-0.839 1.841,-2.246 2.801,-3.842c0.997,-1.839 2.129,-3.869 3.13,-5.71c1.116,-1.321 2.193,-2.57 3.073,-3.568c0.796,-0.84 1.583,-1.544 2.14,-1.813c-0.559,-0.679 2.644,-3.419 6.039,-6.697c-6.154,7.29 -0.862,3.442 -3.019,7.358c10.55,-9.473 9.101,-14.002 20.257,-23.718l2.855,-1.813l1.484,-0.931l1.977,-1.428l2.197,-0.658c0.643,-3.04 13.339,-7.752 12.741,-8.508c2.64,-0.241 6.175,-1.413 6.203,-0.057c5.114,-3 13.737,-5.548 15.373,-7.907l-5.656,1.868c4.278,-1.68 8.565,-3.751 11.366,-5.271c8.677,-5.999 15.712,-12.264 25.148,-16.583l1.702,3.293c2.682,-1.079 4.969,-2.488 7.085,-4.008c2.241,-1.679 4.361,-3.218 6.477,-4.777l2.692,-1.042c0.718,-0.282 1.546,-0.587 2.306,-0.767c1.518,-0.38 3.098,-0.685 4.777,-0.713c-3.081,-0.323 -3.491,0.226 1.868,-2.855c-1.36,0.364 -3.162,0.973 -5.161,1.813c-0.961,0.358 -1.951,0.821 -3.073,1.262c-1.199,0.441 -2.448,0.95 -3.731,1.428c-1.196,0.8 -2.476,1.657 -3.677,2.417c1.036,-0.921 1.643,-1.646 3.4,-2.964c2.322,-1 3.02,-1.478 4.503,-2.197l3.897,-2.14l-8.785,3.4l-9.663,6.643c6.436,-5.678 6.136,-5.08 2.417,-4.557c1.04,-0.801 1.986,-1.542 2.91,-2.14c0.436,-0.278 0.914,-0.616 1.316,-0.824c0.72,-0.394 1.39,-0.809 2.033,-1.205c0.679,-0.185 1.298,-0.422 1.977,-0.602c0.358,-0.122 0.725,-0.153 1.098,-0.273c0.72,-0.139 1.336,-0.32 1.979,-0.44c1.277,-0.28 2.386,-0.442 3.622,-0.711c2.479,-0.517 5.279,-1.264 9.276,-3.184c4.119,-0.799 0.441,1.815 5.161,1.096c3.997,-1.919 8.162,-2.849 12.08,-3.568c2.001,-0.399 3.924,-0.742 5.765,-1.043c1.922,-0.481 3.108,-0.838 5.547,-1.757c-0.639,0.319 -0.975,0.619 -0.767,0.767c0.281,-0.181 0.635,-0.267 0.876,-0.329c3.323,-0.216 6.145,-0.347 8.347,-0.495c2.122,-0.2 3.738,-0.532 4.613,-1.096l-5.599,-0.275c4.918,0 5.706,-1.513 15.099,-0.876c4.05,-0.717 6.769,-1.969 5.381,-2.526c2.17,0.274 4.154,0.748 2.91,1.539c6.238,-0.12 8.436,-0.929 9.995,-1.648c0.799,-0.357 1.387,-0.718 2.306,-0.987c0.324,-0.149 1.159,-0.267 1.428,-0.329c0,-0.031 0.044,-0.083 0.164,-0.055c0.087,-0.028 0.1,-0.028 0.22,0c0.199,-0.031 1.535,-0.595 2.415,-0.931c-0.787,0.515 -1.603,1.233 -1.042,1.205c2.253,-1.015 4.134,-1.988 5.765,-2.94c-2.903,1.913 -1.945,2.105 -1.207,2.28c0.45,0.034 0.798,0.19 0.275,0.713c-0.32,0.238 -0.808,0.565 -1.648,1.043c-0.479,0.196 -1.008,0.537 -1.648,0.876c-0.563,0.282 -1.468,0.739 -1.648,0.767c0.196,0.233 0.387,0.329 0.656,0.329c0.441,-0.04 0.886,-0.258 1.484,-0.438c1.123,-0.484 2.5,-1.108 3.897,-1.868c2.759,-1.596 5.78,-3.489 8.016,-4.285c5.682,-4.636 -0.639,-2.962 2.033,-5.601c0.282,0.598 2.856,-0.759 6.094,-2.197l-3.731,0.275c2.639,-1.442 5.184,-2.794 8.181,-4.834l-4.941,3.4c2.197,-1.076 5.01,-2.158 8.127,-3.4c1.559,-0.641 3.168,-1.405 4.888,-2.084c0.839,-0.437 1.784,-0.866 2.744,-1.262c1.426,-0.756 2.835,-1.531 4.339,-2.36zM163.539,264.85c-25.253,0.028 -50.459,4.989 -75.414,17.101c-41.418,20.098 -53.811,87.291 -38.36,127.307c19.713,50.991 62.763,101.749 113.756,123.39c51.581,21.89 112.462,13.302 162.574,-9.903c29.623,-13.727 56.539,-31.471 82.505,-50.61c-11.488,-16.695 -18.611,-31.78 -5.233,-41.132l0.009,-0.002c6.137,-5.531 10.674,-10.828 13.918,-15.947c3.079,1.008 6.157,2.024 9.236,3.053c0.364,0.241 0.822,0.367 1.421,0.375c0.066,0.063 0.205,0.163 0.329,0.217c1.011,0.347 2.019,0.698 3.034,1.029c1.072,0.269 2.136,0.476 2.729,0.602c5.264,1.117 9.23,0.268 13.822,-2.844c3.048,-2.056 5.48,-4.931 7.205,-8.166c1.346,-2.511 2.653,-5.273 3.585,-8.107c-0.869,-1.217 -1.243,-1.756 -2.114,-2.968c-4.454,-0.424 -8.896,-1.485 -13.235,-2.434l0.011,0.013c-3.423,0.936 -6.018,-0.617 -9.467,-1.438c-4.043,-0.949 -7.269,-0.468 -9.842,0.973c0.363,-6.187 -0.83,-12.192 -2.955,-18.133c-5.162,3.827 -10.285,7.672 -15.371,11.543c-43.759,-41.513 -87.085,-83.551 -144.925,-104.295c-32.201,-11.543 -64.749,-19.657 -97.218,-19.621zM203.664,319.575c16.261,0.112 32.528,2.861 50.484,8.548c51.721,16.364 86.676,46.354 124.533,81.196c-46.203,34.905 -93.724,67.897 -152.462,78.144c-31.215,5.446 -62.18,6.34 -89.383,-12.873c-26.869,-19.001 -44.799,-49.206 -39.262,-82.015c6.179,-36.646 19.074,-55.782 55.655,-65.723c17.924,-4.864 34.175,-7.391 50.435,-7.279zM526.972,324.368c-10.43,0.149 -24.296,8.735 4.217,17.101c1.279,2.397 2.558,4.819 3.834,7.262v-0.011c0.13,0.332 0.288,0.6 0.449,0.787c0.031,0.103 0.098,0.203 0.139,0.32c0.321,0.629 0.652,1.269 0.985,1.897c0.331,0.574 0.68,1.075 0.859,1.373c1.521,2.396 2.499,2.764 3.339,1.292c0.823,-1.441 1.118,-4.326 1.153,-8.183c0.012,-1.895 0,-3.96 -0.115,-6.133c-0.368,-1.109 -0.948,-2.778 -1.323,-3.873c-1.215,-1.626 -2.474,-3.711 -3.711,-5.701l-0.02,0.006c-0.858,0.012 -1.324,-2.429 -2.857,-4.086c-1.377,-1.472 -4.026,-2.092 -6.946,-2.051zM477.754,341.647c-24.971,13.468 -48.256,29.582 -26.709,33.955c5.703,1.153 12.259,0.946 13.743,4.075l0.002,0.004c6.687,1.484 13.709,2.894 19.431,4.93c3.114,-0.395 6.172,-0.761 9.337,-1.216c4.894,-3.175 9.411,-6.466 13.488,-9.64c7.992,-6.225 13.511,-11.937 15.075,-17.255c1.587,-5.422 -0.936,-8.44 -8.724,-10.173c-0.946,-0.231 -2.603,-0.643 -4.418,-0.987c-1.894,-0.239 -3.826,-0.445 -5.721,-0.662c-0.332,0 -0.65,0 -0.937,0.041c-0.687,-0.348 -1.52,-0.453 -2.467,-0.412l0.03,-0.02c-7.423,-0.83 -14.815,-1.727 -22.13,-2.639zM496.49,447.648c3.461,17.253 -0.25,33.951 -25.296,50.645c-14.615,7.298 -9.745,23.248 -0.806,41.454c7.912,-4.213 15.781,-8.532 23.631,-12.941c25.066,29.143 52.095,57.124 82.837,79.245c44.025,31.677 103.74,64.8 159.351,68.463c58.275,3.856 87.442,-43.867 83.501,-97.436h0.002c-3.962,-53.939 -34.137,-110.774 -75.041,-145.27c-3.129,-2.638 -6.679,-4.751 -10.157,-5.878c-3.112,-2.346 -6.305,-4.522 -9.775,-6.109c-5.847,-2.682 -12.447,-4.696 -19,-6.466c-19.369,-7.786 -41.438,-8.669 -62.083,-9.515c-3.346,-0.135 -6.669,-0.177 -9.971,-0.133c-49.532,0.659 -94.248,20.922 -137.193,43.941zM422.359,429.192c-6.538,0.139 -12.498,5.968 -17.017,12.2c2.858,2.984 5.674,6.008 8.487,9.025c0,0 0.011,-0.001 0.011,-0.013c0.205,0.375 0.539,0.73 1.064,1.026c0.039,0.115 0.129,0.245 0.192,0.368c0.73,0.778 1.45,1.564 2.179,2.317c0.823,0.755 1.676,1.44 2.114,1.831c3.598,3.085 7.059,4.326 11.579,4.202c4.598,-0.115 9.057,-1.755 12.858,-4.326c2.291,-1.548 4.614,-3.317 6.647,-5.289c-0.378,-1.234 -0.859,-2.431 -1.281,-3.629c-3.524,-2.431 -6.774,-5.318 -10.003,-8.109l0.007,-0.006c-3.46,-0.806 -4.988,-3.394 -7.647,-5.765c-3.129,-2.782 -6.221,-3.894 -9.193,-3.831zM478.573,458.734c-0.982,1.677 -1.986,3.315 -3.003,4.978h0.011c-0.159,0.142 -0.253,0.332 -0.331,0.602c-0.039,0.022 -0.1,0.105 -0.131,0.142c-0.249,0.423 -0.525,0.857 -0.778,1.267c-0.241,0.475 -0.447,0.936 -0.573,1.199c-0.936,2.013 -1.04,3.713 -0.425,5.732c0.628,2.056 1.94,3.854 3.585,5.241c0.984,0.833 2.064,1.654 3.217,2.319c0.502,-0.321 0.987,-0.677 1.475,-1.029c0.652,-1.895 1.551,-3.728 2.389,-5.523l0.021,-0.006c-0.089,-1.679 0.906,-2.683 1.628,-4.167c2.754,-5.642 -2.164,-8.944 -7.083,-10.755zM666.568,462.714c2.324,0.002 4.63,0.046 6.909,0.137c13.461,0.537 33.903,-0.787 45.863,5.723c0.346,0.207 0.665,0.475 1.011,0.679c4.882,1.344 9.605,3.267 13.95,5.78c9.98,5.767 17.688,14.089 23.57,23.938c3.112,5.213 5.161,10.801 7.083,16.459c0.445,0.217 0.856,0.501 1.292,0.707c11.748,31.985 11.739,71.357 -16.149,89.462l-0.009,-0.013c-46.98,30.524 -120.867,-14.335 -160.719,-39.035c-25.01,-15.512 -46.239,-35.111 -65.748,-56.538c12.797,-7.296 25.627,-14.55 38.593,-21.482c30.152,-16.149 69.501,-25.856 104.354,-25.821zM460.691,474.916c-4.227,-0.06 -11.175,3.741 -21.79,14.297c-3.805,-0.021 -7.627,-0.106 -11.498,-0.174c0.011,0.012 0.011,0.013 0.03,0.013c-0.502,-0.062 -0.948,-0.063 -1.279,0.011c-0.14,-0.014 -0.321,-0.042 -0.488,-0.063c-0.993,-0.011 -1.986,-0.018 -2.97,-0.039c-0.935,0.022 -1.768,0.104 -2.262,0.131c-3.984,0.216 -5.085,1.167 -3.834,3.213c1.217,1.974 4.569,4.292 9.238,6.93c2.474,1.395 5.228,2.844 8.184,4.283c1.576,0.249 3.086,0.488 4.66,0.743c2.88,-0.422 6.474,-0.582 9.901,-0.778l0.004,-0.006c0.549,-1.039 3.881,0.012 6.954,-0.754c8.977,-2.283 15.949,-27.653 5.148,-27.807zM406.905,497.528c-0.982,1.655 -1.986,3.316 -3.003,4.956h0.013c-0.142,0.14 -0.251,0.334 -0.323,0.604c-0.039,0.02 -0.101,0.104 -0.142,0.139c-0.267,0.424 -0.525,0.857 -0.778,1.279c-0.241,0.459 -0.444,0.937 -0.549,1.192c-0.949,2.011 -1.066,3.711 -0.449,5.751c0.628,2.056 1.942,3.834 3.587,5.229c0.984,0.833 2.064,1.652 3.217,2.317c0.502,-0.32 0.987,-0.678 1.475,-1.026c0.651,-1.897 1.55,-3.726 2.386,-5.525l0.024,-0.002c-0.089,-1.654 0.904,-2.683 1.626,-4.167c2.754,-5.643 -2.166,-8.94 -7.083,-10.747zM428.742,519.003c-4.008,0.076 -7.941,1.278 -11.457,3.245c-2.42,1.346 -4.9,2.888 -7.092,4.675c0.267,1.267 0.629,2.496 0.946,3.745c3.303,2.729 6.289,5.904 9.261,8.94l0.013,0.006c3.38,1.111 4.676,3.827 7.109,6.416c9.192,9.747 19.506,2.423 26.835,-6.052c-2.575,-3.219 -5.136,-6.467 -7.665,-9.731v0.013c-0.169,-0.398 -0.489,-0.755 -0.985,-1.109c-0.031,-0.115 -0.099,-0.242 -0.161,-0.375c-0.664,-0.835 -1.315,-1.68 -1.959,-2.513c-0.755,-0.821 -1.527,-1.576 -1.957,-2.012c-3.316,-3.38 -6.635,-4.931 -11.169,-5.215c-0.575,-0.035 -1.15,-0.046 -1.722,-0.035zM387.729,527.463c-10.43,0.15 -24.295,8.736 4.221,17.101c1.28,2.398 2.56,4.82 3.84,7.255c0.13,0.331 0.284,0.602 0.445,0.787c0.031,0.106 0.101,0.206 0.142,0.323c0.322,0.629 0.664,1.269 0.987,1.897c0.345,0.551 0.679,1.062 0.856,1.36c1.521,2.421 2.501,2.777 3.337,1.314c0.823,-1.439 1.116,-4.329 1.151,-8.186c0.012,-1.898 0.001,-3.96 -0.098,-6.135c-0.374,-1.107 -0.962,-2.778 -1.345,-3.871c-1.198,-1.626 -2.474,-3.727 -3.711,-5.697l-0.017,-0.007c-0.858,0.011 -1.324,-2.447 -2.857,-4.089c-1.377,-1.472 -4.028,-2.093 -6.948,-2.051zM371.46,549.963c-1.137,0.628 -2.268,1.371 -3.297,2.225c0.129,0.582 0.295,1.155 0.456,1.737c1.566,1.266 2.97,2.731 4.372,4.139h-0.015c1.575,0.502 2.216,1.771 3.367,2.973c4.341,4.496 9.131,1.025 12.529,-2.96c-1.233,-1.498 -2.433,-3.003 -3.629,-4.52h-0.013c-0.063,-0.169 -0.215,-0.345 -0.456,-0.501c0,-0.062 -0.042,-0.127 -0.083,-0.168c-0.296,-0.399 -0.617,-0.789 -0.911,-1.168c-0.369,-0.373 -0.733,-0.731 -0.937,-0.935c-1.564,-1.565 -3.129,-2.269 -5.237,-2.386c-0.269,-0.015 -0.536,-0.016 -0.804,-0.009c-1.872,0.055 -3.711,0.642 -5.342,1.573z" /></svg>