<svg xmlns="http://www.w3.org/2000/svg" viewBox="0 0 878 896" width="878" height="896"><path d="M254.211,895.687c-11.931,-0.635 -19.691,-2.323 -27.069,-5.889c-9.097,-4.4 -15.053,-10.739 -18.716,-19.924c-5.659,-14.189 -5.834,-15.078 -5.834,-29.587c0,-11.904 0.107,-13.157 1.389,-16.163c3.552,-8.334 14.662,-21.729 20.621,-24.863c3.899,-2.051 12.092,-5.51 17.963,-7.584c4.324,-1.528 6.719,-1.953 12.483,-2.216c5.152,-0.234 7.223,-0.56 7.456,-1.17c0.45,-1.17 -0.97,-26.402 -1.717,-30.549c-0.335,-1.859 -0.878,-12.445 -1.208,-23.525c-0.33,-11.08 -0.786,-21.593 -1.015,-23.363l-0.417,-3.219l-5.43,1.174c-8.47,1.831 -22.49,6.567 -28.721,9.703c-11.241,5.655 -16.492,10.321 -21.93,19.482l-2.615,4.406l-0.44,22.889l-2.198,1.043c-4.955,2.351 -15.073,2.388 -19.553,0.073c-1.203,-0.623 -2.021,-1.62 -2.238,-2.736c-0.493,-2.515 0.065,-19.579 0.73,-22.317c1.349,-5.56 9.602,-16.173 16,-20.574c4.808,-3.308 15.024,-8.155 21.978,-10.43c11.635,-3.804 27.931,-7.283 34.148,-7.289c1.365,0 4.156,-0.349 6.206,-0.772l3.725,-0.769l-0.399,-4.109c-0.904,-9.292 -1.588,-20.871 -1.598,-27.085c-0.012,-8.122 -1.057,-29.421 -2.267,-46.268c-0.497,-6.924 -1.323,-29.02 -1.834,-49.101c-0.511,-20.081 -1.235,-48.266 -1.606,-62.635c-2.107,-81.417 -2.11,-82.349 -0.246,-103.551c0.595,-6.768 0.989,-19.816 1.074,-35.491l0.133,-24.789l-8.183,-2.974c-15.831,-5.751 -33.776,-14.007 -39.073,-17.975c-5.523,-4.138 -10.216,-9.173 -11.667,-12.516c-2.281,-5.257 -1.579,-14.015 1.77,-22.084c1.722,-4.149 7.505,-13.134 9.904,-15.387l1.52,-1.428l6.183,2.361c3.401,1.298 6.427,2.578 6.726,2.843c0.299,0.265 -0.301,1.711 -1.328,3.213c-4.777,6.98 -6.643,12.775 -6.657,20.672c-0.018,9.337 1.179,12.541 6.705,17.965c5.681,5.576 7.501,6.922 14.902,11.023c5.734,3.177 17.848,8.783 18.98,8.783c0.301,0 0.47,-19.457 0.382,-43.565l-0.161,-43.565l-2.718,-0.787c-1.494,-0.433 -7.857,-1.092 -14.138,-1.464c-13.547,-0.805 -16.646,-1.211 -31.93,-4.18c-9.785,-1.901 -15.317,-3.497 -34.622,-9.989c-12.636,-4.249 -24.932,-8.47 -27.322,-9.38c-13.631,-5.187 -29.544,-16.502 -45.674,-32.478c-8.92,-8.834 -12.808,-13.954 -17.442,-22.966c-1.953,-3.8 -6.145,-11.165 -9.315,-16.367c-7.884,-12.943 -9.984,-16.83 -12.616,-23.359c-2.376,-5.895 -6.717,-21.787 -9.873,-36.144l-1.868,-8.498l-1.119,-61.061l1.553,-8.592c2.146,-11.873 2.356,-10.979 -2.696,-11.457c-2.337,-0.22 -8.789,-0.403 -14.339,-0.406l-10.089,-0.004l-18.221,-5.921l4.406,-0.498c4.361,-0.494 24.148,-0.634 35.415,-0.25c6.818,0.231 8.965,-0.073 8.965,-1.272c0,-1.15 -0.06,-1.155 12.117,0.829l10.544,1.716v1.681c0,1.196 0.409,1.805 1.417,2.111c1.39,0.423 1.383,0.442 -0.315,1.071c-0.997,0.369 -1.837,1.219 -1.979,2.004c-0.135,0.749 -0.694,4.054 -1.244,7.343c-0.55,3.289 -1.422,8.074 -1.941,10.634c-0.784,3.864 -0.896,9.477 -0.662,33.048c0.313,31.424 0.399,32.32 4.731,49.167c5.432,21.122 10.102,32.409 19.283,46.59c2.468,3.814 5.831,9.62 7.474,12.904c4.683,9.363 9.451,16.059 16.967,23.823c9.451,9.765 18.557,17.508 27.654,23.521c12.647,8.358 15.3,9.473 48.907,20.562c18.022,5.946 23.226,7.389 35.252,9.774c7.76,1.538 16.684,2.986 19.832,3.215l5.724,0.418l0.43,-20.675c0.557,-26.771 1.486,-47.423 2.627,-58.444c1.161,-11.209 1.171,-26.264 0.022,-34.154c-1.023,-7.024 -1.472,-14.615 -1.947,-32.887c-0.414,-15.953 -4.075,-68.556 -5.133,-73.777l-0.344,-1.701l4.375,0.367c3.19,0.268 5.218,0.087 7.485,-0.665c5.149,-1.711 13.432,-2.966 14.784,-2.242c0.652,0.349 1.186,0.875 1.186,1.17c0,0.757 -4.007,2.568 -5.681,2.568c-1.638,0 -1.629,0.301 0.537,16.051c2.563,18.652 4.199,44.399 4.2,66.098c0.002,31.6 -0.337,45.536 -1.279,52.703c-1.397,10.641 -2.72,35.616 -3.126,59.032c-0.206,11.945 -0.511,22.567 -0.675,23.606c-0.522,3.298 -0.085,3.443 8.555,2.821c12.451,-0.894 21.698,-2.702 29.066,-5.682c3.567,-1.443 10.452,-4.037 15.299,-5.763c4.847,-1.726 11.129,-4.361 13.96,-5.851c5.331,-2.808 21.58,-13.951 30.755,-21.091c33.872,-26.358 41.207,-33.3 50.449,-47.745c3.025,-4.727 8.499,-12.562 12.164,-17.409c9.593,-12.684 10.451,-14.049 13.867,-22.004c3.642,-8.489 12.397,-34.752 15.015,-45.037c5.033,-19.78 6.628,-29.682 6.211,-38.565c-0.218,-4.67 -0.096,-6.915 0.395,-7.223c0.391,-0.245 1.986,-0.61 3.545,-0.812l2.833,-0.366l-2.695,-0.858c-1.482,-0.471 -2.473,-1.043 -2.204,-1.272c0.884,-0.744 12.947,-3.745 18.748,-4.662c3.115,-0.494 9.968,-1.077 15.227,-1.296c9.271,-0.387 9.653,-0.353 12.591,1.129c1.665,0.841 6.984,3.147 11.821,5.126c13.437,5.497 13.468,5.365 -1.255,5.37c-13.883,0.006 -25.197,0.813 -30.38,2.165c-2.918,0.763 -3.737,0.76 -5.929,-0.014c-3.194,-1.127 -3.647,-1.123 -3.647,0.032c0,0.511 -0.67,1.368 -1.489,1.905c-1.38,0.904 -1.466,1.283 -1.183,5.241c0.343,4.806 -0.581,12.929 -2.376,20.881c-0.665,2.943 -1.944,8.75 -2.844,12.904c-2.012,9.295 -11.994,40.817 -15.806,49.917c-3.57,8.521 -4.025,9.258 -12.722,20.559c-3.983,5.177 -9.387,12.593 -12.007,16.479c-9.142,13.559 -18.472,22.953 -36.239,36.496c-4.848,3.694 -10.654,8.337 -12.904,10.316c-2.25,1.979 -7.775,6.112 -12.275,9.186c-22.608,15.435 -24.565,16.541 -37.653,21.274c-4.437,1.604 -11.125,4.179 -14.864,5.719c-7.27,2.996 -13.645,4.305 -26.169,5.369c-3.809,0.324 -9.615,0.875 -12.904,1.227c-3.289,0.352 -7.468,0.644 -9.286,0.651l-3.305,0.01l-0.035,2.989c-0.198,16.517 -0.023,89.067 0.216,89.305c0.172,0.172 8.346,1.28 18.165,2.461c28.94,3.485 36.857,4.991 57.269,10.901c25.653,7.427 31.703,10.822 48.085,26.984c9.687,9.556 10.206,10.199 13.491,16.691c3.347,6.614 4.28,8.011 12.433,18.593c2.204,2.861 4.969,6.968 6.145,9.128c2.92,5.364 6.368,15.796 9.098,27.532c0.684,2.943 1.827,7.792 2.54,10.778c1.56,6.537 2.195,10.606 3.532,22.586c2.131,19.109 -0.094,86.231 -3.417,103.075c-6.202,31.449 -14.548,49.12 -30.05,63.633c-6.053,5.666 -11.475,9.428 -30.643,21.253c-11.428,7.049 -12.943,7.802 -18.255,9.052c-3.186,0.75 -8.627,2.048 -12.089,2.881c-3.462,0.833 -9.351,1.816 -13.085,2.184c-3.735,0.368 -9.974,1.494 -13.862,2.504c-4.614,1.198 -10.783,2.177 -17.759,2.817c-11.376,1.043 -17.165,1.721 -25.005,2.926l-4.874,0.749l0.365,17.059c0.202,9.382 0.775,21.449 1.275,26.816c0.5,5.367 1.055,15.422 1.232,22.348c0.176,6.924 0.465,13.769 0.638,15.211l0.316,2.621l3.274,0.446c1.8,0.245 6.531,1.239 10.514,2.205c3.983,0.966 9.044,2.085 11.249,2.483c5.874,1.059 12.224,3.598 15.054,6.021c3.555,3.044 10.689,13.971 13.124,20.1c4.853,12.225 4.38,27.781 -1.32,43.361c-1.681,4.595 -2.827,6.659 -7.036,12.677c-4.092,5.848 -6.24,7.525 -13.731,10.715c-5.347,2.275 -8.176,3.085 -12.59,3.594c-3.13,0.362 -7.826,1.304 -10.433,2.092c-5.791,1.75 -15.204,2.259 -28.623,1.546zM272.636,889.819c3.905,-1.131 5.859,-1.378 8.373,-1.055c3.031,0.388 3.521,0.258 6.496,-1.747c1.77,-1.193 4.492,-2.821 6.05,-3.619c3.535,-1.811 5.988,-4.396 9.653,-10.171c6.473,-10.199 9.584,-18.542 10.624,-28.483c1.605,-15.356 -2.424,-28.02 -11.884,-37.35c-4.655,-4.592 -7.002,-6.143 -12.485,-8.257c-4.528,-1.744 -12.101,-3.538 -13.22,-3.13c-0.378,0.138 -0.504,1.923 -0.315,4.473c0.457,6.173 -1.616,37.914 -2.877,44.047c-0.62,3.013 -8.339,9.544 -10.45,8.841c-0.925,-0.308 -0.786,-4.916 0.526,-17.485c1.412,-13.526 1.715,-24.214 0.867,-30.585c-0.41,-3.075 -0.856,-5.704 -0.991,-5.839c-0.447,-0.447 -6.736,1.86 -12.854,4.716c-6.657,3.108 -9.67,5.66 -14.773,12.509c-6.749,9.06 -7.796,11.919 -8.183,22.348c-0.339,9.117 0.64,15.885 3.381,23.362c4.377,11.945 7.916,17.298 14.437,21.847c4.825,3.365 6.682,4.249 12.768,6.081c5.849,1.76 7.217,1.715 14.855,-0.497zM297.981,697.152c4.664,-1.169 10.745,-2.317 13.516,-2.551c7.359,-0.624 11.602,-1.451 17.786,-3.467c3.029,-0.987 6.782,-2 8.339,-2.249c3.608,-0.579 4.753,-1.169 15.422,-7.961c15.623,-9.947 25.386,-17.132 31.591,-23.253c8.193,-8.082 15.044,-18.056 18.401,-26.788c6.531,-16.991 9.506,-30.759 11.064,-51.205c0.54,-7.098 1.304,-16.871 1.697,-21.718c0.393,-4.847 0.78,-20.002 0.861,-33.677c0.175,-29.259 -0.595,-38.327 -4.809,-56.654c-3.585,-15.597 -4.62,-19.742 -6.365,-25.495c-2.634,-8.681 -4.726,-12.573 -11.973,-22.265c-4.613,-6.17 -6.828,-9.779 -9.905,-16.135c-3.199,-6.607 -3.759,-7.339 -12.235,-15.963c-12.442,-12.66 -20,-18.193 -27.445,-20.097c-8.065,-2.061 -24.059,-4.686 -39.27,-6.447c-15.446,-1.788 -21.326,-2.884 -30.522,-5.69c-2.201,-0.671 -4.352,-1.221 -4.781,-1.221c-0.597,0 -0.875,4.842 -1.177,20.615c-0.245,12.789 -0.76,23.246 -1.353,27.541c-2.037,14.72 -2.508,36.08 -2.457,111.42c0.04,60.896 0.229,76.486 1.085,90.018c1.196,18.891 2.142,38.933 2.957,62.635c0.315,9.176 0.848,19.514 1.185,22.977c0.337,3.463 0.626,7.259 0.643,8.438l0.031,2.144l9.619,-0.414c7.899,-0.341 11.136,-0.794 18.097,-2.539zM869.543,892.75c-0.865,-0.133 -4.264,-0.688 -7.553,-1.23c-3.289,-0.542 -9.554,-1.212 -13.921,-1.49c-7.2,-0.455 -8.342,-0.7 -12.254,-2.618c-6.325,-3.102 -11.571,-8.669 -15.001,-15.921c-5.745,-12.141 -10.058,-24.865 -12.605,-37.184c-0.573,-2.769 -1.309,-6.168 -1.636,-7.553c-0.327,-1.385 -1.169,-7.759 -1.87,-14.163c-1.349,-12.311 -2.726,-18.88 -5.319,-25.361c-2.245,-5.608 -9.719,-20.101 -13.055,-25.313c-1.552,-2.424 -4.327,-7.381 -6.167,-11.016c-4.164,-8.225 -5.106,-9.717 -10.347,-16.367c-7.707,-9.779 -8.568,-10.672 -14.728,-15.279c-3.367,-2.517 -7.247,-5.474 -8.624,-6.571c-2.258,-1.799 -12.609,-7.641 -21.703,-12.249c-3.301,-1.673 -3.879,-1.756 -12.433,-1.77l-8.97,-0.014l-0.008,3.619c-0.007,1.991 0.314,11.551 0.707,21.245c0.533,13.099 0.539,32.822 0.023,76.798c-0.69,58.867 -0.779,61.05 -2.914,70.764l-0.427,1.941l13.111,0.014c7.212,0.008 14.245,0.293 15.631,0.633c1.386,0.34 6.275,0.802 10.867,1.027c4.592,0.225 8.224,0.535 8.071,0.688c-0.153,0.153 -2.352,0.481 -4.886,0.727l-4.608,0.45l4.406,0.459c5.663,0.591 8.685,1.067 8.406,1.323c-0.273,0.249 -48.825,1.074 -59.709,1.015c-19.481,-0.106 -28.427,-0.738 -38.085,-2.689c-5.193,-1.048 -9.583,-2.049 -9.757,-2.221c-0.174,-0.172 7.901,-0.232 17.941,-0.132c19.367,0.195 30.556,-0.371 30.493,-1.543c-0.021,-0.382 -0.304,-2.11 -0.631,-3.843c-0.327,-1.733 -0.847,-23.542 -1.158,-48.472c-0.362,-29.076 -0.925,-50.514 -1.567,-59.801c-0.552,-7.963 -1.281,-20.427 -1.619,-27.699c-0.611,-13.091 -2.001,-34.443 -2.265,-34.816c-0.076,-0.106 -4.487,0.563 -9.806,1.488c-15.715,2.732 -20.857,4.686 -34.163,12.987c-13.976,8.718 -26.651,19.964 -35.049,31.094c-5.547,7.352 -7.099,9.773 -13.683,21.352c-11.457,20.149 -15.551,29.64 -23.085,53.507c-3.802,12.047 -8.179,20.538 -18.333,35.567c-5.029,7.443 -9.841,14.511 -10.694,15.705c-4.622,6.474 -16.715,17.255 -22.001,19.616c-2.051,0.917 -5.019,1.225 -15.108,1.571c-13.433,0.461 -20.225,0.052 -22.094,-1.327c-2.204,-1.628 -0.08,-2.489 6.254,-2.541c3.496,-0.028 6.429,-0.376 7.376,-0.875c6.722,-3.543 18.324,-15.308 25.347,-25.702c2.851,-4.221 7.145,-10.538 9.541,-14.039c2.396,-3.501 4.804,-7.161 5.351,-8.133c3.987,-7.085 7.292,-14.357 9.255,-20.363c2.415,-7.396 8.283,-24.609 9.991,-29.312c1.057,-2.909 10.551,-22.993 11.639,-24.616c0.347,-0.52 1.622,-2.785 2.834,-5.035c7.256,-13.489 14.034,-22.784 25.191,-34.546c6.441,-6.791 17.409,-15.757 24.347,-19.903c16.219,-9.694 20.64,-11.163 42.38,-14.091c5.193,-0.699 12.663,-1.465 16.599,-1.703l7.158,-0.432l-0.397,-7.311c-1.169,-21.553 -1.676,-40.897 -1.389,-52.949c0.177,-7.443 0.48,-21.608 0.67,-31.475c0.19,-9.867 0.764,-29.129 1.276,-42.805c0.511,-13.676 1.377,-37.471 1.923,-52.878c0.546,-15.407 1.251,-34.811 1.565,-43.121c0.315,-8.309 0.58,-26.271 0.589,-39.915l0.019,-24.807l-11.803,0.374c-19.399,0.615 -57.545,-0.511 -67.199,-1.982c-17.865,-2.724 -28.796,-5.944 -38.715,-11.403c-3.635,-2 -9.247,-4.943 -12.468,-6.539c-7.134,-3.535 -10.274,-5.66 -16.608,-11.24c-6.117,-5.391 -9.621,-10.282 -14.663,-20.471c-4.767,-9.63 -9.139,-18.93 -9.139,-19.433c0,-0.201 -0.406,-1.257 -0.903,-2.348c-7.995,-17.587 -9.436,-22.991 -10.768,-40.383c-0.975,-12.735 -0.788,-42.111 0.301,-47.159c0.368,-1.701 0.596,-3.165 0.511,-3.252c-0.085,-0.087 -5.965,-0.236 -13.063,-0.333l-12.904,-0.176l-0.188,1.855c-0.301,2.973 -2.007,8.489 -3.596,11.626c-2.648,5.226 -8.925,9.82 -15.836,11.589c-9.675,2.479 -20.448,2.335 -26.703,-0.355c-5.767,-2.481 -12.838,-13.1 -14.378,-21.594c-2.677,-14.763 2.809,-33.683 11.197,-38.614c2.796,-1.645 3.275,-1.715 11.417,-1.689c9.252,0.029 14.356,1.044 24.089,4.798c6.396,2.467 8.786,4.447 8.525,7.066c-0.159,1.586 0.055,1.994 1.126,2.147c1.069,0.152 1.512,0.995 2.32,4.406c0.55,2.319 1.172,5.351 1.384,6.736c0.212,1.385 0.533,3.479 0.715,4.653l0.33,2.135l9.555,-0.391c5.256,-0.216 11.39,-0.752 13.635,-1.194l4.081,-0.803l0.774,-5.348c0.426,-2.941 0.924,-7.048 1.108,-9.124c0.967,-10.931 1.915,-15.198 6.083,-27.383c2.661,-7.777 7.784,-23.854 8.926,-28.012c0.487,-1.772 4.109,-11.704 4.823,-13.22c0.326,-0.693 1.77,-4.092 3.209,-7.553c4.905,-11.801 11.045,-23.765 16.317,-31.789c8.675,-13.207 10.824,-15.709 26.327,-30.659c13.427,-12.947 15.855,-15.03 21.531,-18.472c1.903,-1.154 5.019,-3.297 6.923,-4.763c3.508,-2.701 14.403,-9.115 20.825,-12.259c5.665,-2.775 13.508,-4.935 22.694,-6.251c13.507,-1.937 31.368,-0.563 33.299,2.561c0.208,0.337 2.661,0.945 5.452,1.351l5.074,0.739l0.739,5.392c0.407,2.965 1.435,9.216 2.283,13.89c3.515,19.354 3.91,28.567 4.371,101.979c0.314,49.829 0.808,69.13 1.916,74.649c0.227,1.128 1.029,1.427 5.715,2.123c2.999,0.446 6.899,1.318 8.67,1.938c1.771,0.62 5.91,1.842 9.199,2.719c7.68,2.044 30.298,9.144 36.826,11.56c7.315,2.708 11.023,4.747 15.522,8.539c5.489,4.627 10.67,8.37 12.297,8.886c1.98,0.628 8.444,7.775 10.785,11.921c4.794,8.492 5.993,15.189 7.575,42.276c0.555,9.51 -0.539,13.861 -6.604,26.228c-5.022,10.242 -12.984,18.868 -27.299,29.58c-9.183,6.871 -15.039,9.683 -26.754,12.851c-3.463,0.936 -8.278,2.24 -10.702,2.897c-2.443,0.663 -9.479,1.597 -15.789,2.096c-6.261,0.496 -11.809,1.065 -12.33,1.266c-0.815,0.313 -1.016,4.403 -1.441,29.135c-0.272,15.825 -0.568,30.188 -0.66,31.918c-0.092,1.73 -0.349,8.388 -0.573,14.792c-0.224,6.405 -0.667,17.028 -0.987,23.606c-0.32,6.578 -0.747,19.184 -0.95,28.012c-0.203,8.828 -0.641,19.876 -0.973,24.55c-1.244,17.573 -1.907,39.18 -2.277,74.28c-0.357,33.785 -0.11,45.335 1.456,68.366l0.389,5.731l7.31,0.408c12.552,0.701 22.224,3.343 33.435,9.135c2.597,1.341 7.979,4.109 11.961,6.148c17.359,8.893 34.745,25.868 42.796,41.787c1.316,2.602 3.83,6.902 5.588,9.555c1.758,2.653 6.016,10.387 9.465,17.185c6.869,13.545 8.718,19.4 10.137,32.107c2.112,18.93 5.766,35.349 10.454,46.984c1.586,3.934 3.403,8.449 4.039,10.034c4.591,11.445 12.45,18.209 22.954,19.762c3.252,0.481 5.936,1.301 7.56,2.311c1.385,0.861 4.147,2.218 6.138,3.015c1.991,0.797 3.619,1.699 3.619,2.005c0,0.541 -5.649,0.632 -8.813,0.141zM501.446,887.685c-0.778,-0.15 -2.053,-0.15 -2.833,0c-0.78,0.15 -0.142,0.273 1.417,0.273c1.559,0 2.195,-0.122 1.417,-0.273zM682.831,389.15l6.228,-0.413l-0.372,-35.938c-0.204,-19.765 -0.793,-44.436 -1.309,-54.823c-0.516,-10.387 -1.089,-26.11 -1.279,-34.939c-0.189,-8.83 -0.529,-18.907 -0.758,-22.395l-0.415,-6.34l-7.623,-0.731c-4.193,-0.402 -12.157,-1.644 -17.696,-2.757l-10.073,-2.026l-32.105,-0.091c-18.506,-0.052 -34.904,-0.388 -38.715,-0.792c-3.635,-0.385 -15.133,-0.71 -25.552,-0.722l-18.942,-0.021l-0.719,3.305c-0.395,1.817 -1.049,4.864 -1.453,6.768c-1.585,7.461 -0.961,40.019 1.041,54.321c1.078,7.7 2.306,11.662 6.677,21.533c1.687,3.809 3.066,7.142 3.066,7.408c0,0.266 1.729,4.091 3.84,8.498c2.111,4.408 4.285,9.148 4.83,10.533c3.726,9.471 12.435,20.66 20.553,26.403c4.712,3.334 18.32,11.043 24.676,13.979c5.64,2.606 20.867,7.695 24.444,8.17c2.503,0.332 32.115,1.197 47.556,1.387c4.328,0.053 10.672,-0.089 14.097,-0.315zM732.427,382.928c15.803,-4.539 23.384,-8.632 27.039,-14.605c0.794,-1.298 3.013,-4.399 4.93,-6.89c5.297,-6.882 9.071,-13.03 12.579,-20.486c1.749,-3.717 3.182,-6.909 3.182,-7.089c0,-0.18 0.53,-1.53 1.18,-2.997c0.649,-1.467 1.523,-3.917 1.943,-5.443c0.737,-2.678 0.96,-15.387 0.338,-19.257c-0.167,-1.039 -0.583,-6.15 -0.925,-11.358c-0.716,-10.913 -2.718,-19.893 -5.79,-25.976c-1.673,-3.311 -2.901,-4.662 -7.4,-8.139c-2.968,-2.293 -8.007,-6.27 -11.198,-8.838c-4.819,-3.878 -7.172,-5.237 -13.886,-8.023c-10.434,-4.329 -13.393,-5.06 -28.932,-7.144l-12.902,-1.73l0.414,8.22c0.229,4.521 0.817,14.594 1.307,22.383c2.396,38.047 3.451,68.488 3.458,99.713l0.007,21.97l6.251,-0.41c4.861,-0.318 8.956,-1.186 18.413,-3.902zM451.106,249.141c9.865,-3.297 15.701,-9.861 17.172,-19.314l0.367,-2.354l-3.664,-1.163c-2.015,-0.639 -4.797,-1.669 -6.182,-2.287l-2.518,-1.124l12.904,0.665v-3.322c0,-1.827 -0.449,-6.188 -0.999,-9.692c-0.909,-5.804 -1.195,-6.573 -3.212,-8.666c-1.217,-1.263 -3.638,-3.072 -5.38,-4.019c-2.846,-1.548 -3.599,-1.687 -7.442,-1.365c-4.963,0.416 -7.23,1.431 -9.841,4.405c-2.693,3.066 -4.403,6.936 -6.216,14.046c-1.356,5.326 -1.533,7.088 -1.215,12.204c0.566,9.117 1.971,13.123 7.015,19.977c2.792,3.794 3.439,3.935 9.211,2.007zM684.156,224.168c-0.254,-0.952 -0.687,-35.3 -0.961,-76.326c-0.408,-60.849 -0.68,-76.22 -1.481,-83.408c-0.9,-8.072 -1.739,-17.261 -2.659,-29.103l-0.354,-4.553l-1.757,0.908c-0.966,0.499 -3.563,1.203 -5.77,1.563c-12.504,2.042 -26.333,8.169 -37.624,16.667c-1.868,1.406 -5.173,3.829 -7.346,5.388c-7.165,5.135 -21.24,17.907 -37.23,33.784c-7.446,7.394 -11.286,12.571 -21.397,28.85c-1.199,1.932 -4.522,9.042 -8.677,18.571c-1.283,2.943 -2.588,5.917 -2.899,6.61c-1.659,3.699 -5.894,15.887 -8.418,24.236c-0.576,1.904 -2.687,8.561 -4.693,14.792c-4.685,14.563 -5.619,18.996 -7.301,34.685l-0.413,3.84l17.52,0.552c9.636,0.303 32.391,0.558 50.568,0.567c32.086,0.015 33.269,0.059 40.603,1.493c9.751,1.909 15.705,2.417 29.503,2.526l11.248,0.088z" /></svg>