<svg xmlns="http://www.w3.org/2000/svg" width="1030.143" height="1024"><path d="m22.687 438.849-.241 15.102c-.07 3.814-.121 7.655-.121 11.489 0 154.348 46.187 293.862 130.884 394.95C237.674 961.197 361.478 1024 515.072 1024s277.398-62.803 361.863-163.61c84.691-101.087 130.884-240.597 130.884-394.95 0-3.838-.054-7.622-.121-11.43l-.241-15.158H823.393l-.726 14.617c-7.998 155.124-142.828 277.957-307.61 277.957s-299.614-122.828-307.61-277.957l-.726-14.617zm30.736 30.801h127.099C197.28 634.235 340.398 762.224 515.08 762.224S832.878 634.236 849.638 469.65h127.099c-.862 146.444-44.875 277.27-123.369 370.95-79.051 94.345-193.008 152.603-338.286 152.603S255.849 934.946 176.796 840.6C98.305 746.921 54.288 616.099 53.427 469.65z"/></svg>