<svg xmlns="http://www.w3.org/2000/svg" viewBox="0 0 1024 1024" width="1024" height="1024"><path d="M1024,512c0,282.8 -229.2,512 -512,512c-282.8,0 -512,-229.2 -512,-512c0,-282.8 229.2,-512 512,-512c282.8,0 512,229.2 512,512zM958.4,472.8l-1,-10.6c0.2,3.6 0.6,7 1,10.6zM881.2,258l7.2,10.8c-2.4,-3.6 -4.8,-7.2 -7.2,-10.8zM856.2,225.2l4.4,5.4c-1.4,-1.8 -2.8,-3.6 -4.4,-5.4zM798.6,167.6l-5.4,-4.4c2,1.6 3.6,3 5.4,4.4zM755.2,135.6l10.8,7.2c-3.6,-2.4 -7.2,-4.8 -10.8,-7.2zM551,65.8l10.8,1c-3.6,-0.4 -7.2,-0.8 -10.8,-1zM472.8,65.6l-10.8,1c3.6,-0.2 7.2,-0.6 10.8,-1zM258,142.8l10.8,-7.2c-3.6,2.4 -7.2,4.8 -10.8,7.2zM230.6,163.4l-5.2,4.2c1.8,-1.4 3.4,-2.8 5.2,-4.2zM167.6,225.4l-4.4,5.4c1.6,-1.8 3,-3.6 4.4,-5.4zM142.8,258l-7.2,10.8c2.4,-3.6 4.8,-7.2 7.2,-10.8zM65.8,473l1,-10.8c-0.4,3.6 -0.8,7.2 -1,10.8zM65.6,551.2l1,10.8c-0.2,-3.6 -0.6,-7.2 -1,-10.8zM142.8,765.8l-7.2,-10.8c2.4,3.8 4.8,7.4 7.2,10.8zM160.6,790l37,-30.4l10.2,12.4l-37,30.4c6,7 12.4,13.8 18.8,20.6l25,-25l233.4,-350l350,-233.4l25.6,-25c-6.8,-6.4 -13.6,-12.8 -20.8,-18.8l-30.4,37l-12.4,-10.2l30.4,-37c-7.2,-5.8 -14.8,-11.2 -22.4,-16.6l-53.4,79.8l-13.4,-8.8l53.4,-79.8c-56.2,-36.2 -120.8,-60.2 -190.4,-68.2l-4.6,47.8l-16,-1.6l4.6,-47.8c-9.4,-0.8 -18.6,-1.2 -28,-1.4v96h-16v-96c-9.4,0.2 -18.8,0.6 -28,1.4l4.8,47.8l-16,1.6l-4.8,-47.8c-69.6,8 -134.2,31.8 -190.4,68l53.4,79.8l-13.4,8.8l-53.4,-79.8c-7.6,5.4 -15,11 -22.4,16.8l30.4,37l-12.4,10.2l-30.4,-37.2c-7,6 -13.8,12.4 -20.6,18.8l67.8,67.8l-11.4,11.4l-67.8,-67.8c-6.4,6.8 -12.8,13.6 -18.8,20.8l37,30.4l-10.2,12.4l-37,-30.4c-5.8,7.2 -11.2,14.8 -16.6,22.4l80,53l-8.8,13.4l-79.8,-53.4c-36.2,56.2 -60.2,120.8 -68.2,190.4l47.8,4.6l-1.6,16l-47.8,-4.6c-0.8,9.4 -1.2,18.6 -1.4,28h96v16h-96c0.2,9.4 0.6,18.8 1.4,28l47.8,-4.8l1.6,16l-47.8,4.8c8,69.6 31.8,134.2 68,190.4l79.8,-53.4l8.8,13.4l-79.8,53.4c5.4,7.6 10.8,15.2 16.6,22.4zM163.4,793.4c1.4,1.8 2.8,3.4 4.2,5.2zM230.6,860.6l-5.2,-4.2c1.8,1.4 3.4,2.8 5.2,4.2zM268.8,888.2l-10.8,-7.2c3.6,2.6 7.2,5 10.8,7.2zM473,958.2l-10.8,-1c3.6,0.4 7.2,0.8 10.8,1zM551.2,958.4l10.6,-1c-3.6,0.2 -7,0.6 -10.6,1zM766,881.2l-10.8,7.2c3.6,-2.4 7.2,-4.8 10.8,-7.2zM798.8,856.2l-5.4,4.4c1.8,-1.4 3.6,-2.8 5.4,-4.4zM829.2,828.4l-0.8,0.8c0.2,-0.2 0.6,-0.6 0.8,-0.8zM856.4,798.6l4.4,-5.4c-1.6,1.8 -3,3.6 -4.4,5.4zM880,768l-79.8,-53.4l8.8,-13.4l79.8,53.4c36.2,-56.2 60.2,-120.8 68.2,-190.4l-47.8,-4.6l1.6,-16l47.8,4.6c0.8,-9.4 1.2,-18.6 1.4,-28h-96v-16h96c-0.2,-9.4 -0.6,-18.8 -1.4,-28l-47.8,4.8l-1.6,-16l47.8,-4.8c-8,-69.6 -31.8,-134.2 -68,-190.4l-79.8,53.4l-8.8,-13.4l79.8,-53.4c-5.4,-7.6 -11,-15 -16.8,-22.4l-37,30.4l-10.2,-12.4l37,-30.4c-6,-7 -12.4,-13.8 -18.8,-20.6l-25,25l-233.4,350l-350,233.4l-25.2,25c6.8,6.4 13.6,12.8 20.8,18.8l30.4,-37l12.4,10.2l-30.4,37c7.2,5.8 14.8,11.2 22.4,16.6l53,-79.8l13.4,8.8l-53.4,79.8c56.2,36.2 120.8,60.2 190.4,68.2l4.6,-47.8l16,1.6l-4.6,47.8c9.4,0.8 18.6,1.2 28,1.4v-96h16v96c9.4,-0.2 18.8,-0.6 28,-1.4l-4.8,-47.8l16,-1.6l4.8,47.8c69.6,-8 134.2,-31.8 190.4,-68l-53.4,-79.8l13.4,-8.8l53.4,79.8c7.6,-5.4 15,-11 22.4,-16.8l-30.4,-37l12.4,-10.2l30.4,37.2c7,-6 13.8,-12.4 20.6,-18.8l-67.8,-67.8l11.4,-11.4l67.8,67.8c6.4,-6.8 12.8,-13.6 18.8,-20.8l-37,-30.4l10.2,-12.4l37,30.4c5.8,-7.4 11.4,-14.8 16.6,-22zM957.4,561.8c0.4,-3.6 0.6,-7.2 1,-10.8zM881.2,766c2.4,-3.6 4.8,-7.2 7.2,-10.8z" /> <path d="M432.535,71.075l18.73,94.157l-15.693,3.122l-18.73,-94.157z" /> <path d="M591.656,952.95l-18.73,-94.157l15.693,-3.122l18.73,94.157z" /> <path d="M389.628,80.89l13.939,45.931l-15.31,4.646l-13.939,-45.931z" /> <path d="M634.434,942.887l-13.939,-45.931l15.31,-4.646l13.939,45.931z" /> <path d="M348.014,95.099l36.739,88.694l-14.782,6.123l-36.739,-88.694z" /> <path d="M676.123,928.965l-36.739,-88.694l14.782,-6.123l36.739,88.694z" /> <path d="M293.62,120.659l14.11,-7.544l22.632,42.331l-14.11,7.544z" /> <path d="M730.101,903.289l-14.11,7.544l-22.632,-42.331l14.11,-7.544z" /> <path d="M120.601,293.826l42.336,22.622l-7.541,14.112l-42.336,-22.622z" /> <path d="M903.244,730.195l-42.336,-22.622l7.541,-14.112l42.336,22.622z" /> <path d="M183.811,384.623l-88.694,-36.739l6.123,-14.782l88.694,36.739z" /> <path d="M840.32,639.301l88.694,36.739l-6.123,14.782l-88.694,-36.739z" /> <path d="M85.543,374.387l45.936,13.93l-4.643,15.312l-45.936,-13.93z" /> <path d="M938.308,649.667l-45.936,-13.93l4.643,-15.312l45.936,13.93z" /> <path d="M74.069,416.782l94.157,18.73l-3.122,15.693l-94.157,-18.73z" /> <path d="M949.741,607.243l-94.157,-18.73l3.122,-15.693l94.157,18.73z" /> <path d="M70.965,591.548l94.157,-18.73l3.122,15.693l-94.157,18.73z" /> <path d="M952.842,432.427l-94.157,18.73l-3.122,-15.693l94.157,-18.73z" /> <path d="M80.974,634.514l45.931,-13.939l4.646,15.31l-45.931,13.939z" /> <path d="M942.969,389.707l-45.931,13.939l-4.646,-15.31l45.931,-13.939z" /> <path d="M101.142,690.912l-6.123,-14.782l88.694,-36.739l6.123,14.782z" /> <path d="M922.794,333.231l6.122,14.782l-88.694,36.73l-6.122,-14.782z" /> <path d="M120.824,730.267l-7.544,-14.11l42.331,-22.632l7.544,14.11z" /> <path d="M903.455,293.785l7.544,14.11l-42.331,22.632l-7.544,-14.11z" /> <path d="M307.878,910.846l-14.11,-7.542l22.627,-42.331l14.11,7.542z" /> <path d="M716.073,113.074l14.112,7.541l-22.622,42.336l-14.112,-7.541z" /> <path d="M333.267,922.799l36.739,-88.694l14.782,6.123l-36.739,88.694z" /> <path d="M690.884,101.11l-36.739,88.694l-14.782,-6.123l36.739,-88.694z" /> <path d="M389.634,943.028l-15.31,-4.645l13.934,-45.931l15.31,4.645z" /> <path d="M634.349,80.882l15.312,4.642l-13.925,45.936l-15.312,-4.642z" /> <path d="M432.472,952.839l-15.693,-3.122l18.73,-94.157l15.693,3.122z" /> <path d="M591.536,70.969l15.693,3.122l-18.73,94.157l-15.693,-3.122z" /></svg>