<svg xmlns="http://www.w3.org/2000/svg" viewBox="0 0 999 833" width="999" height="833"><path d="M408.618,438.189c-20.23,-1.129 -40.415,-2.26 -60.42,-4.607c-0.27,-1.446 -0.451,-2.935 -0.497,-4.38c-0.768,-15.4 13.954,-11.514 26.913,-11.831c33.732,-0.901 66.517,-8.399 100.114,-12.101c46.375,-5.014 95.418,-10.252 141.884,-11.38c11.469,-0.271 20.23,4.877 28.99,10.071c-19.055,8.129 -38.564,15.126 -58.884,20.23c-5.645,1.309 -32.603,7.495 -37.616,8.85c-30.209,7.271 -63.354,7.992 -94.514,8.129c-10.025,-0.858 -35.449,-2.35 -45.971,-2.981z" /> <path d="M552.441,532.387c2.123,-2.528 7.181,-6.502 6.954,-9.889c-2.438,-0.36 -7.181,1.896 -9.528,2.574c-8.309,2.484 -14.448,5.058 -22.984,6.547c-1.759,0.317 -6.817,0.768 -8.579,1.265c-1.759,0.543 -6.276,1.761 -8.172,1.671c-2.754,-0.137 -9.347,-0.905 -12.238,-0.995c-3.523,-0.134 -12.237,0.183 -16.663,0.046c-3.702,-0.136 -7.404,-0.27 -11.063,-0.587c-2.664,-0.224 -5.238,-0.361 -7.902,-0.361c-1.626,0 -1.942,0.18 -0.904,1.399c0.948,1.128 2.123,1.806 3.251,2.664c3.116,2.348 6.547,3.749 9.889,5.735c1.355,0.814 2.754,1.626 4.109,2.394c1.085,0.586 1.896,1.626 2.981,2.257c1.218,0.724 2.483,1.355 3.702,2.033c3.071,1.716 6.189,3.298 9.394,4.697c6.005,2.664 22.353,2.664 28.539,0c7.495,-3.298 14.902,-7.361 21.088,-13.006c2.845,-2.62 5.645,-5.464 8.129,-8.445zM593.58,473.233c21.539,-2.664 42.719,-7.046 63.491,-12.735c-16.03,44.933 -45.788,79.929 -87.423,109.823c-23.438,16.799 -50.668,42.718 -79.658,31.655c-19.192,-7.361 -38.701,-25.154 -52.338,-39.829c-12.237,-13.143 -23.12,-25.379 -34.725,-38.791c-14.722,-17.069 -31.43,-32.829 -43.171,-52.248c-3.25,-5.328 -6.727,-11.561 -9.121,-18.017c18.604,4.47 37.479,8.037 56.13,11.424c10.161,1.896 35.178,6.639 45.113,8.716c26.416,4.018 51.931,5.192 78.664,5.689c8.986,0.407 23.074,-1.265 32.468,-2.574l30.572,-3.115z" /> <path d="M726.391,404.544c-2.076,-3.252 -3.882,-6.684 -5.418,-10.386c-5.962,-14.495 -4.29,-21.81 3.115,-34.545c4.604,-7.902 7.45,-21.041 17.43,-23.842c6.05,-1.716 14.81,4.245 19.914,7.496c19.192,12.148 29.804,34.818 36.985,53.693c8.443,22.353 13.277,32.378 24.52,53.603c11.153,21.134 18.965,52.881 23.074,76.813c5.374,31.023 0.767,63.945 -4.831,94.651c-5.915,32.602 -20.186,66.606 -43.668,90.405c-17.206,17.433 -30.075,25.695 -54.595,24.657c-18.381,-0.768 -30.753,-4.155 -42.223,-19.102c-7.677,-10.024 -18.787,-27.727 -15.896,-41.184c7.721,11.334 12.237,17.567 25.558,22.307c33.283,11.831 65.434,-3.883 82.73,-34.952c8.85,-15.941 17.294,-32.922 20.681,-51.029c3.298,-17.703 -1.309,-33.012 -3.883,-50.261c-6.91,-46.241 -37.391,-81.147 -55.679,-122.105c-3.566,-7.949 -9.301,-14.812 -15.353,-20.908c-4.741,-4.787 -8.941,-9.801 -12.463,-15.309z" /> <path d="M828.353,544.266c-5.688,-30.572 -15.126,-63.447 -21.268,-95.328c0.634,3.208 8.129,13.91 10.162,17.115c4.333,6.774 11.288,11.56 15.533,18.47c9.798,15.94 19.463,34.546 26.236,52.067c2.846,7.36 6.64,14.358 9.484,21.539c5.057,12.779 7.812,26.461 9.257,39.873c2.8,25.38 5.689,51.75 4.109,77.671c-1.806,30.299 -19.191,55.046 -43.848,72.161c-10.432,7.181 -23.708,11.11 -36.171,13.096c-6.277,1.039 -12.646,1.446 -19.012,1.309c-3.974,-0.09 -14.09,-3.295 -17.386,-1.896c11.244,-4.741 24.34,-0.631 36.171,-6.864c26.102,-13.819 38.474,-33.417 44.526,-62.273c5.014,-23.979 3.703,-46.873 0.678,-71.032c-3.117,-24.567 -2.937,-55.409 -18.47,-75.91z" /> <path d="M240.053,377.046c10.656,-5.692 29.17,-8.536 43.034,-6.82c20.367,2.483 19.916,19.687 3.659,27.455c-15.85,7.542 -32.558,12.147 -48.454,20.501c-22.851,12.103 -45.067,29.081 -58.524,51.705c-24.249,40.687 -1.762,79.028 34.048,102.96c33.551,22.488 40.776,56.854 40.822,95.192c0.044,15.759 -0.317,32.196 -7.09,46.647c-6.864,14.72 -21.812,40.912 -40.507,41.68c3.975,-5.645 13.91,-8.085 19.328,-14.632c5.688,-6.863 10.52,-15.263 13.907,-23.842c9.347,-23.526 2.888,-54.911 -6.052,-77.399c-7.541,-18.922 -16.302,-32.422 -33.056,-43.712c-17.566,-11.876 -28.811,-29.17 -43.081,-44.389c-30.887,-32.965 -26.553,-76.225 -9.257,-117.138c12.328,-29.171 34.815,-83.181 52.111,-93.476c9.391,-5.555 22.984,30.572 32.151,24.52c5.555,-3.658 2.574,11.378 6.954,10.747z" /> <path d="M296.178,384.765c-24.566,15.76 -64.529,38.564 -67.871,71.89c-1.308,13.232 4.924,27.365 12.916,37.436c11.154,13.953 20.457,28.855 30.933,43.487c19.69,27.681 28.947,57.168 27.321,91.489c-1.67,34.411 -14.496,94.29 23.437,114.881c-11.741,-5.375 -27.003,-5.602 -36.848,-19.509c-11.064,-15.624 -6.955,-37.75 -5.375,-55.453c2.212,-24.746 2.844,-55.816 -9.484,-77.942c-7.812,-13.908 -14.045,-24.113 -25.515,-34.635c-12.509,-11.47 -23.979,-23.752 -36.985,-35.132c-19.282,-16.799 -39.376,-56.223 -26.146,-81.962c7.541,-14.632 26.913,-29.307 40.55,-37.706c8.535,-5.238 17.025,-6.501 26.779,-8.263c12.329,-2.256 35.764,-1.85 46.286,-8.579z" /> <path d="M569.559,723.718c9.754,-31.43 23.346,-61.144 34.184,-92.12c2.934,-8.219 13.637,-42.944 16.754,-52.745c5.058,-16.031 11.787,-31.52 14.542,-47.868c10.973,-2.438 25.334,-11.424 35.359,-16.798c24.52,-13.05 52.291,-28.313 79.115,-35.179c11.921,-3.071 26.236,-6.096 38.611,-5.375c10.252,0.631 20.727,4.29 31.293,3.025c-43.939,74.554 -102.145,138.813 -152.904,208.988c-31.61,43.712 -64.937,88.328 -101.107,128.157c-5.915,6.503 -22.216,19.282 -22.216,19.282c0,0 18.965,-85.394 26.372,-109.372z" /> <path d="M183.642,464.652c12.418,0.27 25.558,2.934 36.848,5.465c14.765,3.342 30.03,6.456 44.977,8.67c19.87,2.934 37.977,11.605 57.125,17.476c18.875,5.78 48.363,11.334 58.57,30.255c8.806,16.438 7.948,36.488 10.386,54.461c2.167,15.987 3.612,31.971 5.598,47.958c3.025,23.889 3.205,47.19 6.413,70.762c2.484,18.244 17.115,109.687 17.115,109.687c0,0 -11.47,-16.121 -16.121,-24.204c-11.878,-20.591 -23.121,-39.015 -39.602,-56.718c-20.637,-22.263 -33.326,-47.505 -48.228,-73.786c-17.025,-29.939 -34.184,-57.936 -55.543,-85.077c-8.85,-11.243 -20.863,-20.41 -29.714,-31.746c-10.747,-13.684 -23.074,-27.411 -33.009,-41.499c-3.161,-4.426 -4.831,-9.664 -7.992,-13.998c-4.426,-6.096 -12.282,-10.295 -14.451,-17.521c2.484,-0.18 5.058,-0.227 7.631,-0.18z" /> <path d="M678.473,206.713c1.402,-7.541 1.762,-13.051 1.175,-19.689c-1.265,-15.039 -4.246,-31.385 -7.09,-47.19c-0.811,-4.47 -1.579,-8.895 -2.347,-13.14c-0.497,-2.981 -1.219,-6.142 -2.077,-9.484l-1.399,0.317c-31.564,6.683 -50.168,10.297 -83.992,14.451c-23.708,2.887 -55.182,4.74 -80.199,4.74c-10.883,0 -20.5,-0.317 -28.629,-0.995c-10.793,-0.904 -21.903,-1.535 -33.056,-2.213c-22.354,-1.312 -45.475,-2.665 -67.06,-6.052c-11.605,-1.806 -22.938,-5.148 -34.048,-8.67c-0.768,2.394 -1.491,4.787 -2.213,7.181c-3.433,11.198 -5.601,25.198 -5.871,38.338c-0.091,3.071 -0.224,6.233 -0.361,9.484c-0.137,4.382 -0.317,8.943 -0.407,13.503c-0.134,11.29 -0.271,25.29 5.194,33.553c5.284,7.993 19.102,13.142 30.165,17.296l4.109,1.536c29.577,11.336 43.982,16.121 71.032,22.083c19.643,4.333 45.7,7.134 66.472,7.134v0c8.67,0 16.258,-0.497 22.534,-1.445c9.801,-1.446 19.87,-2.531 29.624,-3.569c18.877,-1.987 38.384,-4.065 55.905,-8.987c9.845,-2.801 20.684,-9.123 31.16,-15.219c4.47,-2.619 8.895,-5.193 13.14,-7.496c10.072,-5.372 16.031,-13.681 18.244,-25.468zM994.532,151.799c14.045,13.003 -16.21,47.641 -22.443,62.316c-5.734,13.412 -67.691,85.62 -99.074,105.172c-28.406,17.703 -92.618,54.461 -110.321,62.363c-15.803,7.09 -32.331,11.2 -48.001,18.831c-36.127,17.612 -75.592,32.559 -115.151,40.913c-17.026,3.613 -34.365,5.419 -51.39,9.121c-16.121,3.522 -79.205,3.567 -96.32,1.038c-55.452,-8.263 -110.681,-10.205 -163.83,-29.848c-108.515,-40.1 -164.691,-94.244 -246.38,-132.04c-24.519,-11.289 -53.149,-31.744 -35.222,-53.827c18.921,-23.255 70.401,-47.822 97.495,-55.453c33.731,-9.438 51.84,-14.993 86.385,-19.96c42.627,-6.142 86.883,-8.535 130.324,-9.303c0.903,-10.071 2.8,-20.547 5.825,-29.714c8.128,-25.063 18.424,-54.777 34.364,-75.955c15.49,-20.59 42.54,-32.511 67.15,-37.886c13.186,-2.891 28.042,-2.033 41.138,-4.787c12.012,-2.53 23.843,-1.942 35.63,-1.355c11.788,0.543 19.645,0.046 31.25,1.265c12.238,1.265 27.05,3.115 39.242,5.148c17.566,2.847 35.493,6.729 50.485,16.754c15.67,10.522 24.295,25.604 33.416,41.725c9.483,16.842 19.057,37.976 22.579,57.078c1.852,10.116 4.018,20.862 5.871,31.655c43.17,3.206 98.896,7.406 134.389,4.922c43.893,-3.068 158.321,-21.448 172.591,-8.172z" /></svg>