<svg xmlns="http://www.w3.org/2000/svg" viewBox="0 0 1171 976" width="1171" height="976"><path d="M660.542,974.729c-41.705,-15.104 -76.317,-38.056 -94.19,-82.213c-2.837,-7.263 -16.455,-9.589 -24.114,-15.397c-25.817,-19.178 -51.068,-39.219 -77.169,-58.105c-10.213,-7.556 -21.278,-16.267 -32.91,-18.3c-44.825,-8.133 -73.196,-31.956 -85.111,-77.861c-2.553,-9.874 -16.171,-22.366 -25.817,-23.819c-54.472,-8.425 -104.971,-23.24 -149.797,-58.974c-13.334,-10.748 -36.031,-9.005 -54.188,-13.654c-59.862,-15.397 -91.921,-52.873 -101.85,-115.041c-2.837,-17.721 -9.93,-34.571 -14.753,-51.711c0,-51.13 0,-102.26 0,-153.098c10.213,-20.336 16.171,-44.448 31.208,-59.845c52.485,-54.906 91.069,-128.405 173.627,-146.417c4.823,-1.162 7.944,-8.715 12.767,-11.039c32.059,-15.978 63.266,-34.57 96.744,-45.61c53.053,-17.431 107.807,-29.341 161.995,-43.576c74.898,0 149.797,0 224.411,0c29.791,9.296 59.297,20.626 89.366,27.889c56.174,13.654 113.203,24.112 145.54,81.924c2.838,4.939 7.38,11.62 11.637,11.911c30.069,3.777 25.534,26.437 25.812,46.772c-8.221,-2.905 -16.735,-5.229 -24.678,-9.005c-15.323,-7.263 -37.164,-11.911 -43.688,-24.403c-23.552,-45.32 -66.677,-52.873 -106.679,-65.365c-47.375,-14.816 -95.605,-25.565 -136.744,-36.314c-12.766,5.81 -23.548,15.688 -32.91,14.525c-40.286,-4.648 -81.707,14.526 -121.71,-5.52c-5.957,-2.905 -15.32,1.162 -22.98,2.905c-62.983,14.235 -127.951,23.822 -188.664,45.319c-47.379,16.559 -90.503,46.482 -133.909,73.789c-14.469,9.005 -22.412,28.469 -34.896,41.833c-22.412,24.112 -49.365,44.447 -67.806,71.465c-10.781,15.397 -9.93,40.09 -11.916,61.007c-0.851,8.425 8.511,19.464 5.958,26.146c-16.739,44.157 -1.135,87.443 -0.568,131.019c0.851,58.392 60.429,104.874 110.645,92.673c5.957,-1.453 15.887,2.033 20.427,6.682c49.932,49.676 110.078,66.526 177.6,60.716c19.291,-1.743 26.668,4.939 24.398,25.565c-5.957,55.776 19.008,80.761 74.615,79.021c8.795,-0.293 22.129,7.841 25.817,15.682c17.874,37.186 44.826,61.594 84.828,67.109c18.725,2.619 23.264,13.078 31.492,28.475c11.632,22.075 30.073,47.06 51.351,55.194c19.292,7.263 48.233,-2.033 68.654,-12.493c8.514,-4.359 7.665,-30.208 9.362,-46.482c1.419,-11.908 -0.278,-24.108 -0.563,-36.023c11.344,5.23 25.249,7.848 33.763,15.982c37.727,36.601 86.528,34.567 123.121,15.689c28.372,-14.526 58.448,-24.693 85.965,-39.804c16.172,-9.004 30.925,-23.237 42.277,-38.056c28.65,-37.471 36.593,-85.699 68.089,-124.336c18.154,-22.369 35.46,-62.46 38.012,-96.449c8.229,-108.36 6.81,-216.429 -72.06,-303.872c-24.964,-27.889 -50.213,-55.488 -75.184,-83.086c7.095,-7.844 13.904,-15.688 22.696,-25.274c59.582,37.185 132.491,128.114 146.681,199.579c6.81,34.571 19.288,66.817 26.383,100.517c0,6.972 0,13.944 0,20.916c-2.267,10.749 -5.391,21.498 -6.524,32.538c-3.123,28.469 1.419,59.845 -8.799,85.119c-27.802,67.689 -60.423,133.633 -93.052,199.001c-38.02,76.398 -117.168,91.216 -184.978,119.106c-29.506,12.2 -67.803,2.033 -106.101,2.033c-4.257,40.382 -43.973,47.645 -76.603,63.62c-11.63,-0.578 -22.981,-0.578 -34.329,-0.578zM798.989,198.78c-2.838,-1.162 -5.39,-2.323 -7.943,-4.067c-7.373,13.654 -15.324,26.727 -21.848,40.672c-25.249,54.616 -62.128,60.136 -104.969,20.626c-17.589,-16.558 -43.407,-27.888 -67.238,-32.246c-22.696,-4.067 -40.853,-6.972 -51.918,-30.503c-4.255,-8.716 -16.171,-13.364 -24.682,-20.046c-3.404,9.006 -6.241,18.593 -10.497,27.308c-5.106,10.458 -10.78,20.916 -17.589,30.503c-0.851,0.872 -14.469,-3.776 -15.604,-7.553c-3.404,-12.492 -7.093,-26.727 -3.972,-38.347c3.405,-11.911 14.469,-21.789 17.874,-39.8c-10.498,4.067 -20.711,10.167 -31.492,11.62c-13.334,1.743 -26.952,0 -40.57,-0.871c-5.958,-0.291 -11.915,-2.324 -18.157,-2.905c-8.795,-0.872 -17.874,-1.163 -26.952,-1.453c2.553,-12.492 4.54,-24.984 7.66,-37.475c0.568,-2.324 5.107,-4.358 8.228,-5.52c59.01,-20.626 118.304,-44.157 176.464,1.743c1.986,1.743 1.136,7.554 0.568,3.196c11.348,15.397 18.441,27.308 27.803,36.604c6.242,5.811 15.887,9.296 24.399,10.458c3.12,0.291 9.362,-8.424 11.064,-14.234c22.696,-71.175 55.89,-82.505 117.74,-41.543c8.792,5.81 22.126,8.135 32.622,6.682c41.992,-5.811 85.965,26.436 79.726,61.878c38.583,-13.073 18.439,18.303 24.115,35.152c34.041,-21.497 57.593,0.291 81.708,20.917c47.089,39.8 84.538,86.862 102.985,146.997c3.116,10.168 -4.257,24.112 -7.943,36.023c-1.141,3.487 -9.933,6.391 -9.37,8.134c9.085,35.733 -24.108,57.231 -27.516,87.444c-1.704,15.106 9.362,31.955 14.753,47.933c5.676,-3.196 13.049,-4.648 17.306,-9.296c7.095,-7.263 11.915,-16.85 19.01,-27.308c19.009,36.313 4.256,56.358 -21.563,71.755c-22.696,13.654 -66.67,6.391 -85.965,-19.464c-17.869,-24.112 -38.868,-38.348 -65.536,-51.13c-17.305,-8.134 -25.812,-35.442 -38.868,-55.487c-3.971,7.843 -8.221,22.078 -17.02,32.246c-6.239,7.553 -18.44,9.587 -27.802,14.235c0.285,-9.007 3.686,-19.174 0.563,-27.018c-15.886,-40.962 22.419,-66.527 26.105,-101.388c0.849,-7.553 -1.419,-19.755 -6.524,-23.531c-26.667,-20.046 -28.086,-39.51 -3.408,-61.879c3.408,-3.196 3.408,-10.168 -1.134,-21.207c-25.249,24.403 -50.783,48.806 -76.032,73.209c-3.402,-2.034 -6.525,-4.358 -9.648,-6.391c17.027,-48.225 34.048,-96.449 51.068,-144.674zM983.397,342.581c6.525,0.581 11.067,22.369 17.306,35.442c37.164,-31.375 35.467,-30.213 1.134,-63.621c-27.516,-26.727 -34.326,6.391 -47.66,13.944c-39.431,22.66 -39.717,28.761 -18.154,71.466c15.887,-19.756 9.363,-60.427 47.375,-57.231zM1008.932,437.288c-11.63,36.603 -20.992,65.073 -30.069,93.834c36.308,-22.95 47.375,-57.811 30.069,-93.834zM973.187,446.002c-3.123,-3.195 -6.239,-6.681 -9.362,-9.877c-13.619,7.844 -28.087,14.235 -40.572,23.822c-5.676,4.067 -7.095,13.944 -10.496,21.207c8.228,1.452 19.858,7.262 24.115,3.776c13.619,-11.33 24.4,-25.855 36.315,-38.928zM578.551,721.117c1.418,-2.326 2.553,-4.644 2.553,-7.262c5.391,0 10.781,0 16.739,0c-0.568,-1.453 -0.852,-2.905 -1.703,-4.067c-6.525,-10.458 -17.873,-20.916 -17.873,-31.375c0,-7.263 15.037,-18.884 24.683,-20.917c19.575,-4.067 20.994,-13.364 16.455,-29.632c-10.781,-38.347 -17.874,-46.772 -55.89,-60.135c7.944,-13.074 18.441,-24.694 22.129,-38.057c2.837,-9.586 0.284,-25.564 -6.241,-32.246c-13.335,-13.945 -13.902,1.162 -17.59,10.749c-0.852,2.614 -11.632,-0.291 -16.739,2.033c-7.093,3.196 -19.292,9.587 -19.008,13.654c2.553,27.018 -11.916,28.18 -37.166,20.046c13.051,27.599 23.264,49.096 34.612,72.918c11.065,-8.425 19.858,-18.593 30.356,-21.789c10.498,-3.196 24.115,-1.452 34.329,2.905c5.674,2.615 7.093,15.107 10.497,23.241c-9.079,3.486 -19.008,5.809 -26.952,11.039c-6.809,4.647 -15.888,13.073 -15.604,19.464c1.135,34.861 1.418,70.009 8.511,103.713c3.121,14.526 22.129,25.856 33.761,38.349c-27.803,14.519 -55.889,4.644 -69.791,-29.923c-10.496,-26.441 -14.468,-55.78 -24.114,-82.798c-5.391,-15.107 -16.455,-28.18 -24.967,-42.124c-4.256,1.743 -8.227,3.777 -12.199,5.81c1.986,10.749 6.241,21.498 5.106,31.956c-1.135,12.782 -4.256,26.727 -11.632,36.314c-3.688,4.937 -23.548,4.937 -26.952,0.29c-6.241,-8.716 -5.106,-22.369 -7.376,-33.699c-7.66,-38.638 1.418,-73.79 21.278,-106.617c1.985,-3.195 1.702,-10.167 -0.568,-13.363c-23.548,-35.152 4.255,-44.739 26.952,-57.231c21.561,-11.91 43.69,-22.95 63.833,-37.185c5.107,-3.777 3.405,-17.722 4.823,-27.018c-6.525,-0.871 -14.752,-4.939 -19.859,-2.324c-20.427,9.878 -38.868,24.984 -60.146,31.375c-12.483,3.777 -28.371,-5.229 -42.839,-8.425c7.659,-10.167 13.05,-22.95 22.696,-30.213c32.059,-24.693 69.224,-33.408 108.943,-29.051c14.753,1.743 23.548,5.811 21.278,26.437c-1.418,13.072 11.065,28.179 18.725,41.833c8.511,15.106 19.576,28.759 27.236,44.447c5.957,12.202 5.107,29.341 13.05,38.928c28.371,34.281 30.356,70.594 21.278,113.008c-11.632,54.329 3.405,105.163 27.801,154.549c6.524,13.363 -3.97,36.022 -8.509,53.745c-0.284,1.163 -22.413,0.293 -24.115,-3.774c-5.107,-13.078 -10.78,-30.793 -6.241,-42.123c15.603,-38.057 -3.688,-59.268 -29.789,-79.024c-11.348,-8.711 -22.413,-17.715 -33.761,-26.434zM350.167,259.786c-13.617,-8.716 -24.398,-22.079 -41.988,-38.928c1.987,40.38 -15.32,54.906 -49.364,59.554c-18.44,2.614 -36.882,17.721 -51.634,31.375c-5.959,5.811 -4.257,22.95 -2.27,34.28c9.363,49.097 4.256,50.258 -41.988,43.867c-37.732,-5.229 -57.025,-26.146 -72.912,-55.197c-3.972,-7.552 -5.674,-22.078 -1.419,-27.598c18.158,-22.95 39.436,-43.577 59.295,-65.074c8.228,-9.006 15.887,-18.883 24.682,-27.598c10.498,-10.168 20.995,-26.727 32.627,-27.598c32.626,-2.615 52.769,-17.721 74.898,-42.415c33.476,-37.475 67.238,-24.402 78.302,25.275c7.093,31.374 34.612,22.95 53.904,31.084c9.929,4.358 20.71,9.006 27.235,16.85c2.838,3.196 -3.12,16.559 -7.943,22.95c-2.553,3.195 -13.334,3.776 -17.306,0.871c-17.873,-13.364 -30.073,-14.235 -39.435,10.168c-1.986,5.81 -19.576,11.33 -24.683,8.134zM372.864,464.014c13.334,13.073 28.655,24.112 46.244,38.057c-44.541,6.972 -69.791,-9.587 -81.423,-47.934c-2.269,-7.262 -9.362,-13.073 -12.483,-20.335c-11.349,-27.308 0.851,-59.845 30.356,-66.527c76.884,-17.721 154.336,-34.57 232.355,-45.319c52.202,-6.972 101.282,9.006 136.749,54.035c3.401,4.067 8.507,9.587 13.334,9.877c36.594,2.905 41.421,29.05 39.717,57.811c-0.848,13.073 -4.82,30.794 -13.619,37.185c-7.095,5.229 -26.383,-0.29 -35.745,-7.263c-28.935,-21.788 -54.756,-47.934 -83.41,-70.303c-13.618,-10.749 -30.356,-20.045 -46.811,-23.241c-63.267,-12.491 -125.965,-5.229 -185.544,18.593c-18.157,7.262 -31.775,28.179 -45.393,44.447c-2.838,3.196 1.135,16.269 5.674,20.917zM358.113,561.624c7.66,-3.196 15.887,-5.52 22.413,-9.587c5.107,-3.196 8.511,-9.297 12.483,-13.945c7.377,7.553 18.441,13.945 21.562,23.241c7.093,20.626 -11.348,46.481 -34.328,50.258c-63.267,10.458 -121.143,-0.29 -169.089,-47.934c-9.93,-9.587 -19.576,-19.755 -30.924,-27.018c-4.823,-2.904 -14.185,0 -21.278,1.453c-9.362,2.034 -19.859,8.716 -27.519,6.101c-7.093,-2.323 -9.646,-15.687 -16.455,-21.497c-17.023,-14.235 -9.079,-38.638 -18.725,-52.002c-16.739,-23.531 -3.972,-24.693 12.483,-27.598c9.929,-1.743 19.575,-2.614 27.235,-3.486c-3.405,-8.424 -5.391,-17.139 -10.214,-24.112c-2.836,-4.066 -11.915,-8.715 -14.185,-7.262c-16.455,11.911 -16.171,12.492 -33.193,-17.14c47.946,11.911 88.516,18.302 125.965,33.118c13.617,5.52 23.831,29.632 28.654,47.353c9.646,34.28 28.087,55.778 61.564,66.817c17.59,5.811 32.909,19.464 49.932,28.18c2.837,1.452 9.079,-3.196 13.618,-4.939zM180.512,459.656c25.25,57.23 78.019,129.567 123.128,121.433c-39.719,-39.219 -81.423,-80.181 -123.128,-121.433zM870.767,822.791c-7.658,4.067 -25.527,-11.907 -39.146,-17.715c-1.419,8.133 -2.838,17.715 -5.391,34.567c-17.028,-13.071 -29.791,-23.238 -43.125,-32.827c-11.067,-8.133 -9.077,-40.96 -35.745,-20.048c-1.99,-17.137 -6.81,-34.86 -3.972,-50.834c1.419,-6.978 24.678,-17.43 28.935,-14.241c27.802,21.504 54.47,30.508 87.384,11.045c8.229,-4.937 21.841,-0.871 34.326,-9.004c-22.981,-4.36 -46.241,-7.556 -68.659,-13.948c-12.201,-3.487 -22.697,-12.202 -34.041,-18.303c6.81,-11.33 13.334,-22.66 20.707,-33.408c2.553,-3.777 7.095,-6.682 11.067,-8.135c13.048,-4.938 26.104,-9.005 39.153,-13.363c-3.972,11.911 -7.943,23.822 -11.915,36.314c23.544,3.486 30.354,-60.136 61.842,-17.721c5.676,7.553 -1.419,25.274 -2.831,38.056c-3.693,1.743 -7.095,3.486 -10.781,5.23c18.439,5.229 36.878,10.749 57.307,16.559c-3.687,11.037 -7.658,22.367 -11.352,33.989c1.419,1.163 3.123,2.326 4.542,3.489c6.81,-8.719 11.915,-19.463 20.429,-25.856c5.39,-4.067 15.031,-2.034 22.974,-2.904c0,6.678 2.553,14.519 0,20.041c-23.545,49.678 -51.917,59.845 -89.081,36.893c-10.781,15.111 -18.725,34.575 -32.629,42.123zM358.11,561.625c-6.242,-5.81 -11.632,-14.235 -18.441,-15.978c-63.266,-20.916 -87.664,-72.046 -99.013,-133.053c-3.12,-15.977 -5.957,-31.955 -6.525,-47.933c-0.851,-24.113 1.986,-50.549 28.938,-56.359c83.41,-17.722 167.67,-31.957 254.768,-48.225c-3.404,36.022 -22.413,45.9 -45.109,52.582c-57.875,16.85 -115.467,34.28 -173.06,51.711c-2.553,0.871 -5.107,4.938 -6.241,8.134c-22.697,67.979 1.986,126.371 65.82,156.584c5.674,2.614 11.065,6.1 17.022,9.587c-7.093,9.005 -12.766,15.978 -18.157,22.95zM710.471,781.253c-3.686,-0.87 -7.372,-1.456 -11.344,-2.326c-19.01,-53.16 -37.168,-106.326 12.478,-155.713c18.725,-18.593 12.2,-36.895 -7.658,-48.515c-30.356,-18.301 -44.541,-42.705 -51.634,-79.018c-3.971,-20.917 -29.789,-37.766 -47.378,-58.102c24.965,-11.33 46.243,1.743 57.024,19.754c23.263,39.219 42.273,80.471 102.989,68.851c-1.419,3.776 -2.56,7.844 -3.972,11.62c-9.362,5.52 -18.724,11.04 -32.914,19.174c9.933,8.134 17.877,18.012 27.802,21.788c8.799,3.487 20.428,2.325 30.076,-0.29c13.897,-3.776 27.231,-10.748 40.85,-16.268c1.419,3.195 2.838,6.1 4.257,9.296c-7.372,15.396 -12.485,32.537 -22.981,45.319c-6.525,8.134 -23.545,6.682 -31.203,14.235c-10.781,10.748 -17.028,26.436 -26.953,42.704c-0.855,-0.581 -7.38,-6.101 -16.742,-13.654c-7.658,41.543 -15.316,81.34 -22.696,121.144zM1052.058,637.157c-3.972,20.626 -18.161,34.28 -44.544,27.889c-1.983,-0.291 -6.525,-1.453 -11.067,-0.872c-57.593,5.81 -57.308,5.81 -75.747,-54.616c-2.838,-8.715 -10.781,-17.14 -18.154,-22.95c-13.334,-10.458 -28.658,-18.301 -42.277,-28.469c-4.535,-3.195 -5.954,-10.749 -8.792,-16.268c6.525,-2.905 14.753,-9.586 19.01,-7.553c23.545,10.749 45.671,23.53 68.367,35.732c27.238,14.816 55.04,29.342 81.993,44.739c11.63,6.681 32.344,17.139 31.21,22.369zM630.752,283.316c-22.98,1.162 -46.528,0.581 -72.912,0.291c16.739,-31.956 56.741,-42.705 80.289,-24.403c3.688,3.196 8.511,11.04 7.376,13.074c-3.404,4.939 -9.362,10.749 -14.752,11.039z" /></svg>