<svg xmlns="http://www.w3.org/2000/svg" viewBox="0 0 728 769" width="728" height="769"><path d="M551.8,0.4v76.8c53.488,0.02 123.1,0.05 123.1,0.05h19.2v19.2c0,126.687 12.38,236.647 28.85,328.7c3.146,17.588 5.535,34.671 4.2,51.65c-1.335,16.979 -7.033,34.349 -19.7,48.15c-9,9.805 -24.185,15.175 -38.8,21.05l28.4,196.8h-186.25c-6.93,7.604 -17.2,21.35 -17.2,21.35l-5.3,4.25h-6.75c-35.194,0 -64.061,-10.767 -89.9,-25.6h-351.85v-274.05c-12.89,-77.644 -30.106,-205.728 -38.35,-306.8l-1.35,-16.65l114.6,-25.5c-1.148,-7.419 -2.65,-16.224 -4.2,-24.75c-3.164,-17.399 -6.35,-33.3 -6.35,-33.3l-3.65,-18.25l18.2,-4.2c0,0 168.68,-38.897 413.9,-38.9zM145.55,73.6c1.131,5.881 1.361,6.911 2.75,14.55c1.523,8.378 3.037,17.052 4.25,24.8c28.224,-4.838 197.272,-31.979 360.85,-34.35v-38.55c-209.106,2.13 -344.709,28.532 -367.85,33.55zM139.5,153.649c-0.001,0.002 -0.35,0.051 -0.35,0.051l-97.35,21.65c8.619,97.4 24.144,217.083 36.15,289.1c4.861,29.159 11.685,40.765 25.7,48.75c14.015,7.985 40.549,12 83.35,12h86.9c-12.922,-76.595 -16.5,-153.056 -16.5,-198.4v-18l234.25,-15.3v20.5c0,70.331 6.913,142.537 20.35,211.2h46.2c74.805,0 108.708,-12.862 120.95,-26.2c6.121,-6.669 8.825,-14.073 9.7,-25.2c0.875,-11.127 -0.762,-25.479 -3.7,-41.9c-15.923,-88.996 -27.301,-195.615 -28.55,-316.25c-17.738,-0.007 -75.576,-0.031 -124,-0.05c-176.221,0 -392.52,37.948 -393.1,38.049zM296.3,344.75c0.047,14.932 0.92,33.858 1.5,52.45h87.6v-19.2h38.4v19.2h33.3c-0.904,-21.068 -2.749,-42.277 -2.9,-62.8zM320.7,576c12.289,43.741 30.617,82.884 56.35,110.2c24.125,25.609 55.079,40.443 97,42.35c3.581,-3.205 10.515,-8.485 18.8,-23.65c10.266,-18.79 17.274,-43.348 4.4,-75.55c-24.105,-60.299 -33.368,-126.933 -38.35,-193.75h-35.1v70.4h-38.4v-70.4h-86.5c3.028,45.628 9.012,94.885 21.8,140.4zM78.2,704.4h265.35c-28.16,-32.895 -47.403,-73.874 -59.8,-118c-2.114,-7.526 -1.912,-15.152 -3.7,-22.8h-93.05c-44.723,0 -76.902,-2.551 -102.35,-17.05c-2.763,-1.574 -3.966,-4.742 -6.45,-6.6zM558.2,563.6h-37.3c4.543,16.865 5.743,35.799 12,51.45c13.953,34.903 8.803,64.803 -0.35,89.35h120.2l-21.35,-147.75c-21.2,3.623 -42.731,6.95 -73.2,6.95z" /> <path d="M628.55,97.4l-0.45,8.95l-0.35,8.45l-38.35,-1.65l0.35,-8.65l0.5,-9.1zM626.998,140l-0.2,7.8l-0.151,9.45l-0.1,10.15v10.65l0.051,11.15l0.151,11.55l0.251,12l0.1,3.05l-38.4,1.1l-0.1,-3.25l-0.251,-12.25l-0.151,-11.9l-0.051,-11.4l0.051,-10.9l0.051,-10.4l0.151,-9.75l0.2,-7.95zM107.8,172.55l4.55,31l2.5,17.25l-38,5.5l-2.45,-17.2l-4.6,-30.85l-4.2,-27.8l38,-5.7zM628.45,250.35l0.75,12.95l0.9,13.05l1.05,13.1l1.3,13.05l1.4,13.05l0.1,0.5l-38.1,4.85l-0.1,-0.85l-1.5,-13.6l-1.35,-13.6l-1.1,-13.6l-0.95,-13.5l-0.75,-13.35l-0.45,-9.55l38.35,-1.85zM124.25,286.85l3.2,23.4l1.65,12.2l-38.1,5.1l-1.6,-12.15l-3.2,-23.3l-5.7,-40.5l38.05,-5.35zM637.351,341.2l1,6.2l1.05,6.25l1.15,6.1l1.15,6.05l1.25,5.95l1.25,5.9l1.35,5.75l1.45,5.65l1.45,5.5l1.6,5.6c1.031,3.683 2.451,7.889 3.95,12.7l-36.65,11.4c-1.237,-3.972 -2.8,-8.489 -4.25,-13.65l-1.7,-5.9l-1.6,-6.1l-1.55,-6.2l-1.5,-6.25l-2.7,-12.8l-1.25,-6.5l-1.2,-6.55l-1.15,-6.6l-1.05,-6.7l-0.051,-0.4l38,-5.5zM133.75,358l3,23.7l2.8,23.1l2.25,19.6l-38.15,4.4l-2.25,-19.5l-2.8,-22.9l-2.95,-23.5l-1.3,-10.05l38.1,-4.95zM660.344,444.601l0.051,3l-0.151,2.95l-0.3,3l-0.45,2.95l-0.7,2.95l-0.85,2.95l-1.05,2.9l-1.3,2.8l-1.5,2.75l-1.75,2.6l-1.9,2.45l-2.05,2.3l-2.2,2.15l-2.35,1.95l-2.45,1.8l-2.5,1.65l-2.6,1.45l-2.65,1.35l-2.75,1.2l-2.75,1.05l-2.85,1l-2.9,0.85l-3,0.8l-3,0.75l-3.2,0.65l-6.35,1.1l-6.85,0.95l-7.2,0.7l-7.6,0.6h-0.35l-2.15,-38.3l6.7,-0.55l6.1,-0.6l5.5,-0.75l4.95,-0.85l2.05,-0.45l2,-0.45l1.8,-0.5l1.65,-0.5l1.45,-0.5l1.3,-0.5l1.1,-0.5l0.95,-0.45l0.8,-0.45l0.6,-0.4l0.5,-0.35l0.35,-0.3l0.251,-0.251l0.151,-0.2l0.151,-0.151l0.2,-0.399l0.151,-0.2l0.1,-0.35l0.1,-0.4l0.151,-0.55l0.1,-0.7l0.1,-0.85l0.051,-1v-1.15l-0.1,-1.2l38.4,-1.8zM146.302,445.301l0.95,1.9l0.5,0.8l0.45,0.75l0.5,0.65l1,1.2l0.55,0.55l0.6,0.5l0.6,0.55l0.65,0.5l0.75,0.45l0.8,0.5l0.85,0.5l1,0.5l1.05,0.45l1.2,0.5c0.059,0.023 0.141,0.029 0.2,0.051l0.1,0.051c1.534,0.574 3.221,1.083 5.05,1.55l4.1,0.9l4.05,0.7l4.5,0.65l5,0.5l5.45,0.4l5.9,0.35l3,0.1l-1.5,38.4l-3.3,-0.151l-6.65,-0.35l-6.35,-0.5l-6.05,-0.65l-5.85,-0.75l-5.65,-1l-5.15,-1.15l-0.251,-0.051c-3.346,-0.827 -6.823,-1.85 -10.35,-3.2l-0.151,-0.051l-2.35,-0.95l-2.4,-1.1l-2.4,-1.2l-2.35,-1.3l-2.3,-1.4l-2.25,-1.5l-2.15,-1.6l-2.05,-1.75l-2,-1.8l-1.9,-1.95l-1.8,-2l-1.7,-2.1l-1.6,-2.2l-1.5,-2.25l-1.35,-2.35l-1.25,-2.35l-1.15,-2.45l-0.9,-2.05l35.3,-15.1zM558.55,499.3l-8.55,0.151l-20.55,0.151h-48.05v-38.4h47.85l20.25,-0.151l8.35,-0.151zM276.649,499.599l-56.55,0.154l-0.35,-0.051l0.4,-38.4l56.401,-0.102z" /></svg>