<svg xmlns="http://www.w3.org/2000/svg" viewBox="0 0 899 961" width="899" height="961"><path d="M414.155,371.775c-24.237,0 -38.504,-8.159 -43.704,-24.953c-4.246,-11.213 -1.718,-22.234 1.002,-33.875l0.334,-1.527c1.527,-2.624 3.197,-5.725 4.628,-9.065c1.574,-3.674 4.151,-7.157 6.918,-10.878c2.863,-3.864 5.725,-7.777 7.968,-12.357c6.107,-12.501 9.971,-23.999 11.976,-35.115c2.528,-14.361 5.725,-30.726 11.546,-42.941c1.432,-3.053 2.29,-6.011 3.006,-8.635c0.859,-3.149 1.527,-5.63 3.006,-7.586c4.533,-6.25 8.349,-12.787 11.451,-18.369c2.863,-5.01 5.821,-9.877 8.827,-14.79c2.051,-3.339 4.056,-6.632 6.011,-9.924c14.314,-24.237 30.249,-49.573 53.867,-69.515c16.747,-14.123 34.782,-27.912 50.717,-40.078c2.72,-2.051 5.725,-4.581 8.97,-7.299l0.715,-0.573c10.83,-9.113 29.056,-24.381 41.318,-24.381c3.912,0 7.205,1.288 10.306,4.008c4.056,3.531 0.811,17.367 -0.763,23.999c-0.334,1.432 -1.098,4.867 -1.098,4.867c-1.479,7.157 -4.198,14.075 -7.777,22.234c-1.574,3.626 -2.958,7.395 -4.294,11.117c-1.527,4.151 -3.053,8.445 -5.01,12.453c-5.725,12.024 -14.075,22.854 -22.186,33.35c-6.489,8.349 -12.882,16.651 -18.369,25.717c-3.912,6.489 -9.494,19.705 -11.594,24.715l-0.715,1.574c-6.536,13.931 -11.642,28.198 -13.837,36.261c-0.763,1.861 -0.907,4.151 -0.907,4.198c0.048,0.715 0.048,1.384 0.191,2.195c0.859,4.867 4.723,7.872 10.306,7.872c7.014,0 15.173,-4.342 18.56,-6.68c3.96,-1.909 7.92,-4.819 11.785,-7.682c4.294,-3.197 8.349,-6.203 12.835,-7.92c1.145,-0.429 2.243,-0.668 3.339,-0.668c2.768,0 4.771,1.479 5.964,2.768c2.338,2.433 3.578,6.011 3.387,9.542c0.286,6.823 -2.338,13.025 -5.153,19.562c-1.098,2.576 -2.195,5.153 -3.149,7.824c-1.288,3.722 -2.338,7.443 -3.387,11.117c-1.718,6.107 -3.339,11.832 -5.869,17.128c-4.246,8.827 -10.878,16.747 -16.699,23.474c-5.487,5.773 -10.926,11.928 -16.317,18.131c-14.123,16.174 -28.675,32.873 -47.235,43.8l-2.099,1.05c-16.938,8.635 -34.448,17.558 -51.72,23.187c-9.971,1.765 -18.989,2.672 -27.053,2.672z" /> <path d="M898.127,254.109c1.336,8.159 1.432,16.985 -2.528,24.19c-3.483,6.25 -6.489,7.729 -13.598,10.735c-11.785,5.009 -23.284,5.534 -35.927,6.107l-2.815,0.143c-5.248,0.286 -11.88,0.286 -18.703,0.286c-9.064,0 -18.464,0.048 -25.573,0.621c-5.439,0.477 -9.877,0.764 -14.266,1.002c-4.962,0.334 -9.828,0.62 -16.031,1.193c-6.393,0.525 -13.597,1.861 -20.563,3.101c-4.104,0.764 -13.217,3.197 -20.946,5.487c-10.734,3.101 -31.203,12.119 -32.014,12.405h-0.048l11.832,-1.527c0.954,-0.048 16.173,-2.625 27.672,-2.243c3.818,0.143 13.169,-0.048 16.986,-0.334c2.91,-0.191 7.205,0.286 10.115,-0.048c19.037,-1.956 35.689,-2.958 50.909,-3.006h1.622c7.872,0 32.157,-0.381 40.65,6.489c4.676,3.818 7.73,9.447 8.159,15.125c0.238,3.197 -0.287,7.873 -4.056,12.024c-6.727,7.347 -24.094,12.405 -35.354,16.174c-2.386,0.763 -4.677,1.527 -6.728,2.29c-8.588,3.054 -17.081,4.199 -26.146,5.392c-5.534,0.765 -11.355,1.528 -17.653,2.768c-9.112,1.814 -18.989,2.052 -28.531,2.243c-9.4,0.238 -19.133,0.477 -28.437,2.147l-1.384,0.286c-11.642,2.099 -29.199,5.296 -39.887,9.494c-18.035,7.061 -30.631,18.56 -42.797,29.677c-8.206,7.444 -16.699,15.221 -26.957,21.805c-6.441,4.103 -12.167,8.97 -17.701,13.645c-6.155,5.248 -12.023,10.21 -18.846,14.266c-7.109,4.2 -14.408,8.112 -21.661,12.024c-5.391,2.91 -10.83,5.821 -16.126,8.874c-8.159,4.628 -14.266,10.735 -18.56,18.703c-0.955,1.813 -2.148,3.626 -3.293,5.439c-3.244,-1.766 -6.203,-3.197 -8.206,-4.056c-8.349,-3.768 -17.129,-9.208 -25.335,-15.792c-6.918,-5.583 -14.122,-9.495 -21.088,-13.312c-3.34,-1.861 -6.728,-3.674 -10.115,-5.773c-25.812,-15.649 -51.91,-29.867 -77.579,-42.32c-9.303,-4.485 -18.654,-9.256 -27.672,-13.837c-11.355,-5.773 -23.092,-11.737 -34.686,-17.224c-9.161,-4.246 -18.846,-7.681 -28.198,-10.974c-13.884,-4.867 -26.957,-9.494 -38.742,-16.747c-0.381,-0.238 -0.858,-0.477 -1.24,-0.715c1.241,-0.524 2.481,-1.097 3.674,-1.622c10.925,-4.819 22.234,-9.781 32.73,-16.222c10.735,-6.632 23.283,-7.062 36.547,-7.539c12.548,-0.429 25.526,-0.906 37.406,-6.823c6.727,-3.339 10.402,-8.301 13.741,-14.79c1.193,-2.29 2.529,-4.485 3.817,-6.632c-0.143,0.477 -0.334,1.002 -0.477,1.479c-2.337,10.067 -2.624,20.563 0.191,30.726c14.027,44.515 76.577,34.781 108.21,16.603c39.458,-13.74 65.605,-47.425 91.989,-77.913c14.6,-14.743 21.996,-34.638 26.671,-54.248c3.148,-9.303 8.779,-18.654 8.206,-29.342c0.478,-11.069 -9.256,-21.519 -20.563,-16.986c-9.781,4.054 -16.461,12.022 -25.526,16.603c-6.012,4.104 -20.898,10.926 -21.566,0.859c4.675,-12.261 10.64,-23.569 17.987,-34.829l2.481,-3.053c0,0 6.965,-6.345 8.635,-7.824c3.674,-3.291 8.255,-6.25 12.93,-8.349c2.624,-1.192 5.201,-2.528 7.777,-3.912c2.624,-1.384 5.248,-2.767 7.92,-3.912c1.909,-0.859 3.864,-1.623 5.821,-2.386c4.724,-1.861 9.638,-3.817 14.266,-6.68l8.541,-5.344c9.018,-5.583 18.035,-11.213 27.053,-16.461c18.799,-10.878 39.84,-17.606 60.213,-24.142l6.584,-2.099c6.966,-2.242 14.266,-3.673 21.327,-5.105c5.152,-1.049 10.257,-2.051 15.267,-3.387c6.202,-1.575 12.357,-3.388 18.512,-5.153c2.29,-0.716 4.341,-1.765 6.298,-2.815c1.812,-1.003 3.531,-1.909 5.105,-2.243c3.054,-0.715 6.107,-1.335 9.113,-2.003l4.819,-1.002c2.816,-0.62 5.726,-0.954 8.589,-0.954c5.583,0 10.973,1.24 15.554,3.483c15.84,7.874 23.045,22.52 19.8,40.317c-0.906,4.963 -5.153,9.496 -12.882,13.885c-3.912,2.243 -13.837,5.631 -22.568,8.589c-7.681,2.624 -14.981,5.057 -18.798,6.918c-0.859,0.429 -2.242,0.907 -3.674,1.336c-8.206,2.148 -16.747,4.437 -22.472,6.346c-30.154,13.025 -62.36,21.899 -87.981,43.131c19.609,-12.645 40.173,-22.187 62.931,-27.101c14.647,-4.58 28.96,-9.065 43.608,-13.025c6.25,-0.954 46.375,-7.109 56.538,-7.586c4.771,-0.191 9.59,-0.858 14.409,-1.479c5.821,-0.763 15.363,-1.574 20.802,-1.574c8.206,0 14.648,1.765 20.182,5.534c10.973,7.396 11.403,26.527 7.109,41.175c-3.101,10.639 -30.392,15.649 -42.893,18.321l-4.246,0.907c-13.55,3.054 -22.425,4.677 -32.921,6.68c-5.2,0.953 -10.782,2.003 -17.51,3.339c-1.431,0.239 -2.672,0.621 -3.912,0.907c-0.048,0.048 -0.048,0 -0.048,0c-0.142,0.048 -12.261,2.863 -25.048,5.869c-5.964,0.669 -8.397,1.146 -16.174,2.768c-9.017,1.957 -23.425,6.489 -24.046,6.68v0.096c-14.361,4.389 -27.864,11.928 -40.555,19.514c14.314,-5.63 31.585,-8.874 49.191,-11.117c6.679,0.668 16.412,1.479 24.953,1.479c2.48,0 4.914,-0.095 7.061,-0.238c2.672,-0.19 5.01,-0.286 7.157,-0.286c3.102,0 5.821,0.143 8.589,0.334c3.054,0.143 6.202,0.334 9.924,0.334c1.384,0 2.815,-0.048 4.342,-0.096c5.773,-0.19 11.499,-0.715 17.272,-1.24c6.966,-0.668 14.171,-1.336 21.232,-1.336c3.387,0 7.491,-0.191 11.88,-0.382c4.914,-0.239 10.21,-0.477 15.363,-0.477c7.396,0 17.415,0.334 21.327,1.432c0,0 11.976,3.722 14.266,17.845z" /> <path d="M411.902,605.039c0.478,-0.716 0.478,-1.623 0.096,-2.386c-3.387,-7.443 -8.874,-13.646 -14.17,-19.371c-7.634,-8.397 -16.078,-17.081 -24.237,-25.478c-7.729,-7.92 -15.697,-16.127 -22.854,-23.999c-6.346,-7.3 -12.644,-15.125 -18.751,-22.711c-3.436,-4.198 -6.871,-8.445 -10.354,-12.643c-4.343,-5.25 -9.4,-9.639 -14.314,-13.885c-6.727,-5.821 -13.073,-11.309 -17.415,-18.656c-0.429,-0.763 -1.24,-1.24 -2.147,-1.24c-0.859,0 -1.669,0.477 -2.147,1.193c-0.478,0.716 -0.525,1.623 -0.096,2.386c4.199,8.588 10.735,15.22 17.081,21.661c4.532,4.627 8.827,8.969 12.214,13.931c3.244,4.438 6.441,8.875 9.638,13.36c14.552,20.421 29.629,41.557 48.427,58.877c5.392,5.248 11.451,9.923 17.272,14.456c6.06,4.675 12.358,9.494 17.845,14.981l0.573,0.573l1.193,0.143c0.859,0 1.67,-0.43 2.147,-1.193zM331.984,669.542c0.763,-3.912 -0.286,-6.871 -1.336,-9.781c-0.383,-1.05 -0.812,-2.148 -1.098,-3.293c-6.059,-18.512 -16.222,-35.306 -26.003,-51.528c-4.199,-6.966 -8.589,-14.171 -12.453,-21.28c-5.726,-13.025 -15.601,-30.774 -22.329,-41.7c-3.96,-8.062 -10.352,-14.838 -16.555,-21.422c-4.723,-5.01 -9.16,-9.733 -12.643,-15.029c-0.43,-0.859 -1.241,-1.384 -2.195,-1.384c-0.859,0 -1.67,0.43 -2.147,1.098l-0.573,0.907l0.334,1.384c3.34,6.393 7.777,11.88 12.071,17.176c5.344,6.584 10.83,13.359 14.123,21.47c6.632,13.073 9.352,18.369 10.688,20.516l-0.191,0.048c9.638,27.911 25.573,53.675 41.032,78.581c5.01,8.159 10.258,16.604 15.077,24.81l0.573,1.05l1.432,0.096c1.05,0 1.957,-0.668 2.195,-1.718zM252.117,696.786c0.954,-6.87 -1.336,-13.884 -3.531,-20.659c-1.145,-3.531 -2.242,-6.87 -2.863,-10.067c-5.439,-23.235 -17.462,-43.942 -29.104,-63.981c-3.578,-6.155 -7.3,-12.548 -10.735,-18.894c-2.91,-4.914 -7.156,-9.685 -11.307,-14.266c-5.154,-5.725 -10.45,-11.642 -12.501,-17.224c-0.191,-1.144 -1.241,-2.051 -2.481,-2.051h-1.098l-0.621,0.954c-2.003,3.197 0.717,7.443 2.72,10.544c0.382,0.573 0.669,1.098 0.907,1.527c13.645,16.699 22.663,36.309 31.394,55.298l2.624,5.678c3.673,8.254 7.108,16.843 10.401,25.192c6.489,16.413 13.217,33.351 22.377,48.714l2.958,4.962l0.859,-5.725zM641.683,733.767c5.773,10.115 9.829,20.563 0.191,29.915c-7.3,7.109 -15.506,14.122 -26.194,10.783c-19.657,-6.107 -40.46,-13.264 -56.491,-27.195c-9.017,-7.825 -18.703,-14.552 -27.768,-21.995c-8.923,-7.3 -17.224,-15.554 -26.862,-22.043c-11.355,-7.586 -22.472,-14.647 -32.921,-23.665c-10.211,-8.732 -21.136,-18.035 -35.021,-17.367c-0.142,1.526 -0.142,2.099 0.573,3.339c-0.381,-1.097 0.144,0.095 0.573,-0.382c2.672,-0.095 8.636,11.451 11.069,14.409c4.246,5.2 5.629,10.209 8.349,16.555c4.58,10.688 12.405,18.847 18.989,28.389c3.388,4.914 5.63,10.64 9.113,15.363c4.103,5.583 9.351,10.354 13.502,16.079c10.352,14.313 18.273,30.488 28.483,44.944c3.101,4.342 8.922,12.881 11.165,17.462c1.813,3.769 4.771,6.966 7.109,10.449c5.487,8.159 8.827,15.935 13.073,23.999c10.353,19.609 6.107,39.648 -10.974,49.811c-4.533,2.672 -10.783,2.863 -16.079,3.006c-6.106,0.238 -11.163,-0.143 -16.555,-3.149c-6.727,-3.817 -9.828,-10.545 -14.409,-16.27c-5.869,-7.347 -12.549,-14.171 -18.56,-21.47c-15.125,-18.416 -28.722,-38.074 -44.467,-56.013c-13.026,-14.79 -28.389,-27.577 -40.603,-43.227c-7.586,-9.686 -13.741,-22.139 -22.806,-30.488c-3.626,-3.339 -10.783,-8.254 -15.411,-9.494c0.382,3.531 2.624,7.349 3.817,10.688c7.3,20.134 18.369,39.744 27.959,59.067c5.677,11.451 11.928,22.043 17.367,33.589c6.107,12.882 13.073,25.669 18.178,39.744c2.48,6.822 5.725,13.025 8.349,19.8c3.77,9.924 9.877,19.419 12.93,29.486c3.243,10.735 2.099,17.367 -2.768,26.623c-5.248,9.971 -16.031,17.749 -27.768,15.029c-12.309,-2.815 -19.371,-12.692 -25.907,-22.234c-7.156,-10.497 -13.502,-21.661 -21.47,-31.49c-4.819,-5.916 -5.534,-12.978 -10.019,-18.989c-3.864,-5.248 -7.348,-10.734 -11.546,-15.792c-10.687,-12.882 -16.508,-25.955 -24.285,-40.698c-4.867,-9.161 -9.018,-18.894 -14.123,-27.912c-3.96,-7.061 -8.685,-13.503 -12.024,-20.898c-3.483,-7.586 -10.067,-11.451 -14.552,-18.56c-11.545,3.245 5.25,46.328 7.253,53.437c2.147,7.396 3.101,13.503 6.87,20.469c3.101,5.869 6.965,10.688 6.536,17.749c1.813,2.911 2.1,7.635 3.674,11.213c1.622,3.626 3.578,6.442 4.485,10.354c3.054,12.548 -1.861,28.436 -11.355,37.215c-11.976,11.069 -21.853,-0.382 -34.496,-7.777c-5.583,-3.245 -7.348,-12.263 -9.781,-17.845c-9.351,-21.756 -22.853,-41.127 -32.73,-62.645c-3.34,-7.253 -5.82,-14.983 -9.113,-22.282c-4.532,-10.163 -9.209,-19.371 -13.073,-29.677c-4.866,-12.93 -9.399,-26.146 -14.695,-38.933c-2.577,-6.203 -6.06,-12.024 -10.163,-17.224c-4.485,-5.63 -10.735,-15.411 -14.266,-21.518c-2.862,-4.915 -5.916,-10.019 -9.59,-14.6c-8.159,-10.115 -16.843,-19.943 -24.19,-30.631c-3.96,-5.725 -8.206,-11.164 -12.262,-16.842c-3.245,-4.533 -9.066,-11.976 -11.069,-16.27c-2.625,-5.679 -7.3,-11.117 -10.449,-16.986c-6.25,-11.736 -13.407,-23.378 -20.516,-34.638c-4.15,-6.488 -9.971,-11.689 -15.315,-17.176c-4.867,-5.01 -7.348,-10.926 -11.499,-15.888c-6.822,-8.064 -20.468,-2.195 -29.39,-4.867c-28.817,-8.684 -15.649,-43.036 -7.729,-61.071c4.866,-11.069 13.741,-20.707 21.613,-29.629c12.978,-14.79 26.337,-28.245 39.887,-42.797c13.026,-13.979 29.152,-27.004 45.565,-36.881c10.878,-6.537 21.995,-11.642 33.16,-17.415c10.019,-5.106 14.313,-5.917 24.667,0.715c7.251,4.627 9.733,9.016 13.979,16.555c7.443,13.407 25.43,19.991 37.787,27.625c21.136,12.978 46.137,18.035 67.846,28.245c20.707,9.638 41.224,20.802 62.312,30.965c26.194,12.691 51.958,26.814 76.768,41.891c10.449,6.392 20.755,10.782 30.249,18.416c8.064,6.442 17.415,12.549 27.339,16.986c7.109,3.197 19.418,9.733 24.285,16.413c4.819,6.537 0.668,21.042 -4.246,27.912c-6.202,8.684 -17.033,9.638 -27.434,8.159c-15.363,-7.587 -28.483,-20.373 -42.32,-30.536c-18.941,-12.022 -37.215,-23.712 -54.439,-37.739c16.222,14.695 34.352,27.768 52.387,40.507c16.651,13.646 31.203,30.583 52.387,38.217c3.769,2.958 7.252,6.345 10.878,9.494c7.348,6.345 16.842,10.305 23.57,17.558c4.629,4.962 8.255,10.545 13.36,15.22c8.731,8.064 18.227,15.22 27.387,22.854c8.493,7.108 14.314,16.222 22.234,24.094c7.539,7.586 16.509,13.073 23.427,20.993c10.352,11.833 21.04,25.525 29.008,39.41z" /></svg>