<svg xmlns="http://www.w3.org/2000/svg" viewBox="0 0 1181 768" width="1181" height="768"><path d="M1.888,761.158c-1.443,-3.762 -1.77,-17.212 -0.729,-29.884l1.891,-23.041h1177.4v59.766h-340.67c-266.549,0 -343.595,-1.671 -354.116,-7.681c-8.309,-4.746 -13.446,-5.316 -13.446,-1.494c0,4.071 -43.322,6.186 -126.618,6.186c-118.033,0 -127.474,-0.803 -139.234,-11.851c-12.582,-11.821 -12.678,-11.82 -35.32,0.318c-18.759,10.053 -35.2,12.373 -94.619,13.347c-49.476,0.81 -72.736,-0.956 -74.538,-5.664zM58.074,682.833c-1.352,-2.466 -1.924,-15.241 -1.267,-28.388l1.192,-23.907l68.154,-1.755c59.649,-1.535 71.622,-0.137 95.956,11.205l27.802,12.96l37.607,-12.701c28.394,-9.589 52.22,-12.702 97.254,-12.702h59.646l-14.111,15.02c-9.3,9.899 -12.097,17.034 -8.202,20.931c3.895,3.897 12.825,-1.227 26.195,-15.02l20.286,-20.931h661.72l-3.642,56.778l-436.296,3.192l-54.936,-29.831l-27.834,29.626h-273.533c-150.442,0 -274.637,-2.017 -275.992,-4.482zM140.458,561.939c1.674,-23.082 4.433,-61.076 6.13,-84.432c1.697,-23.356 6.94,-47.96 11.646,-54.68c7.189,-10.264 7.293,-14.706 0.658,-27.762c-7.043,-13.859 -4.009,-118.831 8.18,-283.001c0.762,-10.242 31.999,-3.606 42.198,8.965l10.91,13.446l14.341,-13.446c12.089,-11.334 21.004,-13.446 56.75,-13.446h42.409l4.242,50.945c2.334,28.018 2.598,59.167 0.588,69.222c-2.01,10.055 -1.335,22.764 1.503,28.247c2.838,5.483 7.041,50.867 9.344,100.854l4.187,90.882l-21.35,8.922c-11.742,4.906 -21.306,11.074 -21.251,13.709c0.102,5.004 19.684,38.262 36.75,62.419c5.474,7.747 10.854,26.19 11.954,40.983l2.001,26.896l-224.233,3.253l3.042,-41.97zM498.642,521.598c2.341,-45.126 7.072,-85.438 10.512,-89.586c3.626,-4.369 4.554,-16.618 2.204,-29.132c-4.906,-26.154 2.53,-213.642 8.883,-223.917c6.675,-10.799 84.238,10.974 87.815,24.652c2.163,8.269 5.565,9.061 18.571,4.322c11.222,-4.088 22.88,-3.438 39.48,2.206c29.618,10.07 31.026,15.275 37.806,139.494c4.414,80.919 3.862,97.234 -3.594,106.082c-7.814,9.27 -7.353,15.469 4.064,54.768c7.082,24.372 12.876,55.302 12.876,68.736v24.424h-222.874zM817.369,571.214c-21.724,-31.294 -27.978,-53.076 -17.156,-59.764c4.29,-2.65 207.418,30.256 256.223,41.506c18.68,4.306 17.925,28.446 -1.284,41.034c-17.947,11.76 -98.479,13.582 -109.583,2.479c-5.577,-5.577 -7.171,-5.577 -7.171,0c0,5.005 -14.902,7.15 -49.307,7.1l-49.307,-0.066l-22.411,-32.286zM139.018,57.971c-17.51,-17.448 -25.4,-30.385 -25.4,-41.641v-16.329h274.925v13.674c0,8.417 -10.995,24.5 -28.594,41.838c-25.935,25.543 -31.218,28.165 -56.778,28.165c-22.242,0 -28.182,-2.085 -28.182,-9.892c0,-9.204 -0.761,-9.204 -10.929,0c-8.154,7.379 -22.194,9.842 -55.284,9.696c-44.077,-0.195 -44.514,-0.354 -69.755,-25.506z" /></svg>