<svg xmlns="http://www.w3.org/2000/svg" viewBox="0 0 748 748" width="748" height="748"><path d="M487.7,76.3c49.556,49.556 75.9,120.97 75.9,205.7c0,84.73 -26.344,156.144 -75.9,205.7c-49.556,49.556 -120.97,75.9 -205.7,75.9c-84.73,0 -156.144,-26.344 -205.7,-75.9c-49.556,-49.556 -75.9,-120.97 -75.9,-205.7c0,-84.73 26.344,-156.144 75.9,-205.7c49.556,-49.556 120.97,-75.9 205.7,-75.9c84.73,0 156.144,26.344 205.7,75.9zM112.5,112.5c-38.679,38.679 -60.9,95.172 -60.9,169.5c0,74.328 22.221,130.821 60.9,169.5c38.679,38.679 95.172,60.9 169.5,60.9c74.328,0 130.821,-22.221 169.5,-60.9c38.679,-38.679 60.9,-95.172 60.9,-169.5c0,-74.328 -22.221,-130.821 -60.9,-169.5c-38.679,-38.679 -95.172,-60.9 -169.5,-60.9c-74.328,0 -130.821,22.221 -169.5,60.9zM748.1,711.9l-36.2,36.2l-224,-224l36.2,-36.2z" /></svg>