<svg xmlns="http://www.w3.org/2000/svg" viewBox="0 0 307 959" width="307" height="959"><path d="M149.847,255.493c0.59,-2.527 5.087,-20.056 1.528,-20.877c-2.064,5.259 -4.308,10.439 -6.293,15.698c-3.09,8.036 -3.442,16.445 -4.145,24.935c-0.787,9.691 -3.321,18.802 -5.389,28.29c-1.985,8.988 -3.309,18.022 -4.719,27.133c-1.294,7.992 -4.686,16.074 -7.047,23.858c-2.936,9.856 -5.473,19.631 -7.621,29.741c-2.315,10.603 -3.981,21.203 -5.426,32.018c-1.654,12.258 -4.061,24.397 -5.259,36.699c-1.281,13.34 -0.28,26.675 -2.935,39.89c-1.08,5.43 -3.194,10.349 -4.015,15.822c-1.129,7.418 -0.778,14.908 -1.95,22.328c-1.738,11.679 -4.183,23.283 -6.507,34.919c-2.115,10.728 -3.229,21.702 -5.096,32.517c-2.278,13.091 -4.497,26.47 -4.966,39.685c-0.392,11.186 0,22.374 -0.04,33.554c-0.026,9.94 1.172,19.593 1.172,29.575l-1.172,21.291c2.278,-11.64 3.735,-23.277 5.636,-34.959c0.624,-4.342 1.328,-7.457 1.445,-11.929c0.046,-3.479 1.245,-9.313 3.195,-12.343c1.114,-1.75 2.877,-2.735 3.932,-4.685c1.608,-2.948 2.03,-6.39 3.475,-9.618c2.102,-4.683 7.621,-10.65 5.837,-16.156c-0.953,0.867 -10.487,14.161 -11.848,9.275c-0.189,-0.707 0.938,-2.022 1.055,-2.608c0.468,-1.704 0.274,-3.688 0.234,-5.426c-0.08,-3.815 1.047,-7.211 1.281,-10.979c0.377,-6.668 0.859,-12.761 2.031,-19.301c1.562,-8.988 -0.422,-18.103 1.445,-27.133c1.482,-6.999 0.824,-14.039 2.068,-21.002c1.278,-7.208 2.454,-15.289 2.688,-22.616c0.143,-4.511 0.964,-8.824 1.198,-13.296c0.157,-3.852 -0.469,-7.621 0.117,-11.473c1.034,-6.75 3.324,-13.214 4.262,-19.964c0.552,-3.735 0.201,-7.164 1.373,-10.815c1.376,-4.22 2.327,-8.118 3.03,-12.51c1.235,-7.661 2.361,-15.697 4.886,-23.071c1.998,-5.842 2.781,-11.717 4.309,-17.73c1.524,-6.089 0.821,-12.72 0.821,-18.93c0,-7.791 0.166,-15.822 1.41,-23.489c0.917,-5.502 1.738,-11.515 3.605,-16.774c2.068,-6.008 4.062,-11.97 6.13,-17.937c2.277,-6.585 2.725,-13.912 4.262,-20.712c1.495,-6.544 0.355,-12.93 1.41,-19.47c0.951,-5.927 4.322,-11.023 4.556,-17.069c0.293,-6.007 0.209,-10.68 1.654,-16.693c1.411,-5.883 2.985,-11.771 4.229,-17.687zM284.599,41.802c7.578,12.632 16.326,24.397 25.06,36.285l-26.469,-33.388c-0.235,-0.566 -0.587,-1.152 -0.821,-1.738c0,0.352 0.04,0.587 0.04,0.821l0.821,0.938c11.513,23.898 20.967,48.712 21.788,75.511c0.166,6.256 0.083,12.513 -1.784,18.559c-1.738,5.637 -4.966,9.9 -7.537,15.079c-2.735,5.598 -4.64,11.184 -7.914,16.61c-4.392,7.293 -8.127,14.669 -11.519,22.453c-2.986,6.793 -6.507,13.301 -9.078,20.298c-2.83,7.622 -3.534,16.693 -3.768,24.77c-0.149,6.381 0,12.76 0.085,19.137c0.083,6.171 -2.358,9.282 -4.062,15.035c-1.667,5.633 -1.901,11.85 -1.901,17.687c-0.049,6.089 1.738,11.725 2.441,17.771c0.787,6.421 2.056,12.72 3.228,19.097c1.114,6.585 2.922,13.668 2.688,20.338c-0.118,4.849 -2.069,4.062 -4.51,8.077c-3.324,5.384 -3.442,12.92 -4.145,19.012c-0.963,8.2 -1.453,16.895 -4.602,24.645c-2.734,6.745 -7.16,12.016 -11.929,17.313c-4.92,5.431 -6.54,10.154 -9.442,16.611c-1.069,2.445 -2.114,5.393 -3.559,7.587c-1.243,1.868 -2.981,3.065 -4.262,4.803c-1.49,2.111 -2.935,4.803 -4.262,7.537c-1.281,1.821 -2.517,3.686 -3.689,5.636c-8.284,14.124 -23.366,23.115 -33.758,35.748c-3.324,4.054 -5.966,8.953 -9.781,12.592c-1.207,1.164 -2.76,1.868 -3.815,3.149c-1.361,1.62 -2.065,3.689 -3.475,5.309c-3.195,3.638 -5.309,5.506 -6.67,10.145c-1.035,3.478 -3.019,6.421 -4.803,9.57c7.418,-6.545 15.162,-13.499 21.501,-21.166c3.978,-4.843 8.039,-8.742 13.089,-12.51c5.096,-3.775 9.359,-8.494 14.044,-12.756c2.856,-2.605 5.753,-5.179 8.408,-8.031c-0.235,1.248 -0.235,2.537 0.234,3.982c0.898,3.182 0.938,5.837 0.938,9.358c0.117,4.02 0.703,8.332 -0.352,12.264c-1.411,5.221 -4.522,9.647 -7.047,14.332c-4.065,7.744 -6.343,15.28 -8.244,23.734c-1.277,5.633 -2.877,11.189 -3.932,16.859c-0.786,4.184 -1.209,8.694 -3.03,12.592c-2.688,5.793 -7.08,10.478 -9.651,16.361c-4.061,9.322 -9.32,18.644 -12.138,28.459c-3.065,10.563 -6.833,20.79 -8.981,31.605c-1.21,6.129 -0.54,12.175 -3.442,17.811c-3.312,6.334 -8.701,10.35 -11.226,17.313c-5.176,14.208 -12.798,27.254 -17.19,41.795c-3.688,12.054 -12.879,20.553 -19.759,30.862c2.851,1.067 6.339,-1.236 8.864,-2.408c6.585,-3.111 13.579,-6.046 20.379,-8.617c2.692,-0.996 5.59,-0.913 7.704,-2.981c1.997,-2.031 2.114,-3.52 5.309,-3.605c2.031,-0.032 4.191,0.319 6.176,0.085c0.469,0 0.703,-0.149 1.172,-0.234l-0.821,6.21c0.117,0.118 0.352,0.235 0.586,0.352c0.045,-1.491 0.085,-2.981 0.085,-4.472c0,-0.704 0.077,-1.411 0.117,-2.114c1.985,-0.352 3.735,-0.938 5.967,-0.938c3.722,0 4.509,-0.445 5.753,3.03c1.035,2.982 4.979,6.587 4.51,9.815c-2.03,1.164 -4.271,1.977 -6.339,3.149c-3.935,2.148 -8.453,2.688 -12.552,4.719c-3.149,1.529 -6.13,3.312 -9.195,5.05c-1.658,0.951 -4.183,1.775 -4.886,3.559c6.381,1.587 13.467,-0.853 19.924,-0.938c4.439,-0.034 5.766,1.164 9.618,3.605c5.347,3.393 9.936,8.204 14.705,12.303c6.172,5.385 12.221,10.854 18.351,16.28c4.388,3.895 8.86,7.37 12.302,12.219c1.21,1.692 5.05,6.293 4.229,8.324c-0.871,2.101 -10.359,0.195 -10.275,0.234c-11.182,-1.574 -22.165,-5.598 -32.557,-9.944c-9.816,-4.1 -19.426,-8.738 -29.161,-13.13c-6.375,-2.901 -11.6,-5.916 -17.19,-10.145c-2.28,-1.704 -6.421,-5.967 -9.57,-6.67c-1.784,-0.351 -3.605,0.469 -5.389,-0.234c-2.985,-1.244 -4.522,-5.519 -7.997,-5.636c-0.54,1.914 -0.658,4.108 -1.361,5.929c-0.997,2.395 -1.244,1.809 -3.605,2.278c-2.174,0.457 -1.822,-0.33 -2.408,1.738c-0.384,1.248 0.202,2.948 0.085,4.229c-0.41,3.358 -2.358,2.898 -4.472,5.012c-1.491,1.491 -1.939,3.191 -3.559,4.719c-1.738,1.658 -2.973,3.229 -3.559,5.59c-0.586,2.361 -0.351,4.593 -1.172,6.917c-0.669,1.834 -1.904,3.405 -2.49,5.226c-1.21,4.184 0.821,8.283 0.938,12.428c0.247,7.332 -0.657,13.832 -1.901,21.042c-0.951,5.343 -1.772,11.179 -3.392,16.405c-0.963,2.441 -1.939,4.836 -3.111,7.244c-0.775,2.864 -1.244,5.766 -1.361,8.701c-0.867,5.506 -3.065,8.981 -5.389,13.503c-2.035,4.013 -4.066,9.356 -4.769,13.794c-0.54,3.147 -0.084,5.555 -1.738,8.49c-1.621,2.938 -2.902,7.209 -5.343,9.57c-2.441,2.361 -6.753,2.277 -9.605,4.685c-3.019,2.525 -5.131,5.883 -8.161,8.324c-3.228,2.655 -5.954,4.648 -8.278,8.207c-2.688,4.025 -5.134,7.993 -8.655,11.435c5.636,-11.226 8.818,-24.192 11.929,-36.287c3.689,-14.207 5.967,-28.705 9.241,-42.955c1.327,-5.838 2.031,-11.849 3.358,-17.686c1.243,-5.35 2.734,-10.525 4.015,-15.822c1.442,-5.967 2.806,-12.178 3.392,-18.27c0.586,-5.55 1.939,-10.646 3.111,-16.072c1.114,-5.345 3.241,-10.638 4.179,-15.947c0.352,-1.607 0.117,-4.296 0,-5.916c-0.247,-2.311 -0.87,-2.361 -2.361,-4.015c-2.198,-2.395 -1.704,-3.793 -4.769,-4.262c-4.224,-0.574 -2.7,-1.855 -3.521,-5.67c-0.624,-3.144 -2.947,-6.046 -4.145,-9.157c-2.231,-5.754 -4.685,-11.356 -6.833,-17.109c-2.081,-0.195 -4.146,0.156 -6.26,0.039c-1.867,-0.143 -4.555,-1.901 -6.339,-1.198c-1.196,5.311 -0.037,11.064 -1.281,16.57c-1.281,5.718 -1.902,12.679 -3.852,18.185c-1.234,3.521 -4.475,4.648 -7.41,6.716c-3.23,2.242 -8.455,10.064 -12.387,10.65c-1.552,-4.89 -0.234,-12.634 0.938,-17.483c0.787,-3.345 3.642,-5.669 4.886,-8.981c2.324,-6.088 3.383,-13.253 4.438,-19.676c0.351,-2.358 0.703,-4.766 1.172,-7.127c0.226,-1.314 0.578,-2.55 1.281,-3.722c0.117,-1.951 -0.586,-2.738 -1.055,-4.639c-1.035,-4.602 1.034,-5.473 4.932,-6.176c4.721,-0.938 8.243,-1.294 12.882,0.234c4.184,1.386 7.496,2.48 11.888,2.441c1.984,0 5.213,0.729 6.833,-0.469c0.163,-1.114 0.658,-2.114 1.361,-2.935c0.787,-0.351 1.62,-0.351 2.441,-0.117c2.856,-0.331 2.621,-0.95 3.559,-3.605c0.624,-1.7 1.286,-3.145 1.327,-5.012c0.177,-6.217 -4.755,-10.396 -7.95,-15.035c-3.232,-4.805 -5.133,-10.395 -8.244,-15.244c-2.655,-4.186 -4.979,-8.531 -7.667,-12.676c-2.982,-4.594 -5.799,-8.609 -7.244,-14.082c-1.524,-5.966 -1.289,-12.554 -1.055,-18.684c0.166,-5.339 0.355,-11.435 1.41,-16.694c0.95,-4.607 2.901,-8.869 3.722,-13.588c0.853,-4.932 1.055,-9.818 0.938,-14.83c-0.247,-7.912 -3.441,-14.701 -4.932,-22.368c-1.491,-7.622 -2.442,-15.07 -4.556,-22.657c-2.032,-7.124 -2.856,-14.254 -3.442,-21.664c-0.352,-4.927 0.234,-9.985 -0.352,-14.871c-1.197,-9.405 -5.342,-18.305 -7.08,-27.63c-2.069,-10.853 -4.146,-21.788 -5.967,-32.683c-0.821,-4.841 -0.821,-9.233 -0.938,-14.082c-0.117,-7.163 -2.772,-13.454 -4.639,-20.254c-0.54,-2.073 -4.145,-16.171 1.985,-16.405c0.469,1.529 0,2.973 0.469,4.51c2.864,0 4.355,3.191 5.636,5.259c3.065,4.809 5.59,10.022 8.408,14.954c4.312,7.582 5.263,16.072 7.704,24.316c1.574,4.186 2.927,8.448 3.982,12.757c-0.189,1.574 0.234,2.973 1.055,4.145c0.741,-4.31 2.022,-8.572 2.608,-12.881c1.16,-8.45 -2.198,-16.279 -5.179,-23.983c-3.149,-8.036 -7.211,-15.239 -11.226,-22.826c-1.47,-2.735 -2.173,-4.393 -2.525,-7.374c-1.163,-9.322 -2.321,-18.23 -2.361,-27.672c-0.046,-13.38 4.225,-25.807 6.046,-38.977c1.411,-10.149 -0.456,-21.168 3.195,-30.903c2.734,-7.333 6.209,-14.621 9.404,-21.748c3.808,-8.494 10.432,-15.411 12.756,-24.606c1.784,-7.209 1.901,-14.339 1.784,-21.749c-0.213,-9.154 0.737,-17.154 3.392,-25.972c2.525,-8.45 6.867,-16.027 11.096,-23.694c8.326,-15.16 15.657,-31.191 25.145,-45.647c3.651,-5.549 7.21,-11.017 10.191,-16.984c3.099,-6.126 6.327,-11.059 10.309,-16.611c7.952,-11.186 8.374,-25.428 17.896,-35.996c8.284,-9.112 15.828,-19.017 20.254,-30.653c3.067,-7.988 6.676,-14.788 15.41,-17.606c2.24,-0.703 3.651,-1.031 5.552,-2.441c3.931,-2.901 5.845,-7.373 10.191,-10.028c11.515,-6.961 26.097,-11.353 39.227,-13.878c3.063,-0.575 6.082,-1.047 9.03,-1.985c2.441,-0.825 4.342,-1.443 6.997,-1.528c2.7,0 4.685,-0.352 7.21,-0.821c1.411,-0.234 3.229,-0.82 4.639,-0.117c0.49,2.571 -0.084,4.966 -1.704,7.21c-3.115,5.55 -5.637,11.352 -7.587,17.398c-4.64,15.204 -3.97,31.48 -8.655,46.684c-2.5,8.284 -0.235,17.189 0.234,25.89c-0.234,1.528 -0.352,3.102 0,4.639c0.085,-1.528 0.04,-3.065 0,-4.639c0.996,-5.757 5.552,-11.345 8.37,-15.867c7.413,-11.969 14.712,-24.067 21.416,-36.41c2.278,-4.216 5.979,-9.195 6.917,-13.834c0.554,-3.098 -0.853,-6.868 0.085,-9.898c3.312,0.213 4.426,5.506 6,7.75c2.29,3.275 5.272,5.682 8.994,6.88c4.346,1.365 5.753,1.621 8.408,5.967z" /></svg>