<svg xmlns="http://www.w3.org/2000/svg" viewBox="0 0 478 1024" width="478" height="1024"><path d="M222.964,1024c-49.36,0 -91.116,-14.406 -124.104,-42.82c-33.224,-28.614 -50.068,-62.038 -50.068,-99.344c0,-18.128 6.6,-33.756 19.622,-46.458c13.232,-12.914 29.782,-19.744 47.85,-19.744c18.002,0 34.194,6.41 46.826,18.542c12.472,11.972 18.796,27.824 18.796,47.104c0,11.318 -1.85,23.818 -5.494,37.146c-3.616,13.178 -4.376,19.938 -4.376,23.292c0,3.682 0.924,8.076 7.774,12.756c12.76,8.824 28.066,13.084 46.876,13.084c22.576,0 42.718,-7.858 61.574,-24.022c18.578,-15.942 27.612,-32.318 27.612,-50.056c0,-19.736 -5.27,-36.826 -16.12,-52.242c-18.336,-25.758 -52.878,-55.954 -102.612,-89.668c-79.858,-53.454 -133.07,-99.766 -162.58,-141.52c-22.89,-32.684 -34.476,-67.89 -34.476,-104.704c0,-37.062 12.142,-73.948 36.092,-109.63c20.508,-30.554 50.8,-58.12 90.228,-82.138c-21.096,-22.7 -36.896,-44.064 -47.094,-63.688c-12.872,-24.76 -19.398,-50.372 -19.398,-76.122c0,-47.814 18.91,-89.16 56.206,-122.89c37.32,-33.76 83.86,-50.878 138.322,-50.878c50.086,0 92.206,14.082 125.182,41.852c33.328,28.082 50.222,60.898 50.222,97.54c0,18.656 -6.986,35.364 -20.766,49.66l-0.276,0.282c-7.976,7.924 -22.618,17.37 -47.046,17.37c-19.148,0 -35.934,-6.272 -48.54,-18.136c-12.558,-11.794 -18.93,-25.918 -18.93,-41.966c0,-6.934 1.702,-17.416 5.352,-32.98c1.778,-7.364 2.668,-14.142 2.668,-20.25c0,-10.338 -3.726,-18.272 -11.724,-24.966c-8.282,-6.93 -20.108,-10.302 -36.142,-10.302c-24.868,0 -45.282,7.562 -62.41,23.118c-17.19,15.606 -25.544,34.088 -25.544,56.508c0,20.156 4.568,36.762 13.58,49.362c17.112,23.938 46.796,49.79 88.22,76.836c84.17,54.588 142.902,104.672 174.518,148.826c23.35,33.12 35.152,68.34 35.152,104.792c0,36.598 -11.882,73.496 -35.318,109.676c-20.208,31.18 -50.722,59.276 -90.884,83.71c22.178,23.466 37.812,44.042 47.554,62.538c12.082,22.97 18.208,48.048 18.208,74.542c0,49.664 -18.926,91.862 -56.244,125.422c-37.34,33.554 -83.866,50.566 -138.288,50.566zM173.416,356.346c-48.222,28.952 -71.712,62.19 -71.712,101.314c0,22.756 6.498,43.13 19.86,62.278c19.936,27.926 59.27,62.054 116.804,101.288c24.358,16.586 46.36,32.712 65.592,48.06c49.06,-29.504 72.956,-62.366 72.956,-100.178c0,-20.598 -8.142,-42.774 -24.204,-65.916c-16.808,-24.196 -52.85,-55.796 -107.128,-93.914c-28.328,-19.562 -52.558,-37.334 -72.168,-52.932z" /></svg>