<svg xmlns="http://www.w3.org/2000/svg" viewBox="0 0 584 832" width="584" height="832"><path d="M297.818,347.737c-12.188,-5.366 -24.875,-10.565 -37.856,-16.058c-13.188,-5.866 -26.166,-11.732 -38.854,-17.556l-192.066,-81.743c18.512,-36.9 45.344,-67.433 80.411,-91.311c34.943,-23.754 73.963,-38.063 116.852,-42.431c2.913,-0.838 5.99,-1.456 9.398,-1.456c3.29,-0.331 6.863,-0.66 10.271,-0.66h17.514c1.498,0.496 3.573,0.66 6.532,0.66h2.242c0.942,0 1.792,0.331 2.947,0.789c1.449,0.496 2.913,0.66 4.362,0.66c2.913,0 5.2,0.331 7.324,0.838c1.792,0.461 3.75,0.625 5.86,0.625c2.242,0 4.529,0.331 6.485,0.838c3.243,1.456 6.828,2.58 10.237,3.578c3.243,0.461 6.992,1.291 11.06,2.246c26.623,7.322 51.999,19.509 75.876,36.4c0.942,1.456 1.792,2.288 2.913,2.288c0.354,0 0.825,0.331 0.825,0.66c30.534,23.046 54.912,51.668 72.966,86.277c17.845,34.612 26.955,72.633 26.955,113.899c0,26.832 -4.411,53.956 -13.02,81.077l-130.789,-56.202c-0.708,1.121 -1.285,1.456 -2.288,1.456c0,-0.955 -0.473,-1.456 -1.449,-1.456c-9.729,-4.41 -19.344,-8.277 -28.453,-11.69c-8.738,-3.91 -17.514,-7.654 -26.291,-11.732zM52.423,497.414c-3.408,-2.746 -5.826,-6.155 -7.324,-10.068c-15.1,-21.963 -26.79,-46.799 -35.067,-74.587c-1.178,-3.244 -1.956,-6.49 -2.959,-9.444c-0.473,-3.412 -1.178,-6.655 -1.449,-9.568c-1.449,-4.742 -2.123,-8.944 -2.123,-12.356c-0.591,-1.456 -0.825,-4.075 -0.825,-8.112v-0.66c-0.473,-3.244 -0.708,-8.277 -0.708,-14.644c-1.178,-2.411 -1.449,-6.155 -1.449,-11.69v-1.456c0,-4.699 0.354,-8.443 1.449,-10.9v-11.69c0.354,-0.955 0.708,-1.956 0.708,-2.911v-2.288c0.354,-1.788 0.825,-3.578 0.825,-5.035c0,-1.956 0.354,-3.91 1.498,-5.866v-1.456c1.449,-12.688 4.374,-24.544 8.773,-35.733l1.449,-1.456c0,0.955 0.354,1.456 1.449,1.456l11.686,5.035c23.711,10.732 48.089,21.59 72.965,32.155c24.875,10.234 49.088,20.8 73.131,31.365c25.168,10.732 50.377,21.798 75.211,32.821c24.71,10.9 49.92,21.797 75.919,32.987c0.942,0 2.242,0.496 3.702,1.456l140.899,61.275c-2.913,5.866 -6.485,11.69 -10.896,17.556c-4.034,5.532 -8.113,11.066 -12.479,16.724c-15.141,15.766 -30.244,28.453 -45.178,38.021c-15.268,9.941 -30.741,17.556 -46.799,23.419c-16.1,5.532 -32.656,9.236 -49.755,11.69c-17.056,1.956 -35.067,2.911 -53.914,2.911c-30.41,0 -56.741,-2.911 -78.996,-8.779c-22.422,-6.155 -41.268,-12.812 -56.201,-19.636c-15.143,-6.822 -26.667,-13.188 -34.321,-19.012c-7.949,-6.197 -12.021,-10.234 -12.479,-11.69c-6.367,-5.866 -11.732,-12.064 -16.099,-19.051c-0.473,0 -0.708,-0.13 -0.708,-0.789zM582.652,323.694c0.473,4.868 0.825,9.899 0.825,15.268v19.012c0,1.498 -0.354,2.955 -0.825,4.41v10.9c0,1.121 -0.473,2.246 -1.449,3.702v6.532l-2.913,16.89c-2.452,13.643 -5.531,27.29 -9.444,40.768c-3.408,13.188 -7.949,26.165 -13.812,38.853c-19.012,42.266 -44.677,78.499 -76.667,108.075c-26.997,25.834 -58.196,46.468 -93.599,62.068c-8.491,4.368 -16.763,7.612 -25.541,10.234c-8.773,2.911 -17.845,5.532 -26.955,7.946c-4.08,1.456 -7.983,2.453 -11.686,2.955c-4.08,0.461 -7.819,1.121 -11.06,2.246c-4.869,0.838 -9.116,1.456 -12.356,1.456c-1.178,0.838 -2.581,1.498 -4.362,1.498c-1.498,0 -3.29,0.164 -5.2,0.625c-4.907,0 -8.491,0.164 -10.896,0.838h-4.411c-4.362,0 -7.618,0.164 -9.562,0.625h-12.356c-6.321,0 -10.896,-0.294 -13.812,-0.625h-12.523c-0.473,-0.66 -1.449,-0.838 -2.913,-0.838h-5.86c-1.956,-0.461 -4.869,-0.625 -8.773,-0.625c-1.449,-1.167 -2.913,-1.498 -4.362,-1.498c-1.449,0 -2.913,-0.294 -4.411,-0.789c-1.449,0 -3.243,-0.331 -5.036,-0.66c-1.449,0 -3.243,-0.625 -5.2,-1.456c-2.749,-0.625 -6.155,-1.121 -9.398,-1.456c-3.408,-0.66 -6.485,-1.456 -9.444,-2.911c-5.531,-1.167 -10.069,-2.288 -13.978,-3.744c-4.034,-1.456 -7.949,-2.62 -12.356,-3.578c-1.449,0 -2.581,-0.331 -2.913,-0.838v11.066c-0.708,2.288 -2.288,6.032 -5.2,10.9c-2.913,3.868 -7.652,7.322 -13.812,10.234c-1.178,0 -2.288,0.164 -3.737,0.789c-0.942,0.331 -2.123,0.66 -3.573,0.66h-0.825c-6.828,0 -12.688,-2.122 -17.389,-6.49c-5.036,-4.075 -7.983,-8.779 -8.773,-14.644c0,-1.121 -0.473,-2.288 -0.825,-3.744v-3.578c0.942,-7.612 4.411,-14.267 10.237,-19.636c0.942,-1.003 1.792,-1.456 2.947,-1.456c0,-1.498 -0.473,-2.288 -1.449,-2.288c0,0 -0.473,-0.164 -1.498,-0.66c-1.91,-1.456 -4.034,-2.246 -5.826,-2.246c-1.956,-0.331 -4.08,-1.167 -5.86,-2.122l-0.591,-1.456v-0.838c0.236,-0.331 0.591,-1.121 0.591,-2.122l29.908,-64.355c13.643,6.364 29.244,12.064 46.8,16.763c14.933,4.368 33.155,8.112 54.121,11.024c21.258,2.955 45.468,3.412 72.299,1.498c30.076,-1.788 56.868,-7.322 80.287,-16.1c23.38,-9.11 43.222,-19.675 59.156,-31.365c15.6,-11.69 28.912,-23.712 40.267,-36.565c11.06,-12.688 20.634,-25.044 28.453,-37.189c7.618,-12.688 13.812,-24.544 18.18,-35.941c4.411,-11.024 7.819,-20.8 10.237,-29.078c9.116,-37.524 12.521,-69.055 9.611,-95.055c-2.619,-25.668 -5.531,-45.675 -8.773,-59.819c-1.178,-5.366 -3.243,-12.646 -6.649,-21.924c-2.913,-9.11 -6.367,-18.346 -10.237,-27.124c-2.947,-6.657 -5.531,-12.522 -7.983,-17.387c-2.581,-5.366 -4.362,-9.276 -5.826,-11.732c-1.956,-2.411 -3.737,-4.868 -5.2,-7.28c-1.332,-2.453 -3.243,-4.908 -5.036,-7.322c-12.854,-17.888 -26.831,-33.988 -42.431,-48.255c-15.601,-14.144 -33.488,-26.998 -53.956,-38.688c-2.123,-1.456 -4.198,-2.453 -6.649,-2.913c-1.956,-0.331 -4.08,-1.456 -5.86,-2.955c0,0 -1.285,-0.294 -3.573,-1.456h-0.825c-0.473,0 -1.285,-0.331 -2.123,-1.456c-4.362,-1.788 -8.773,-3.91 -13.145,-5.866c-4.08,-1.748 -8.148,-3.868 -12.523,-5.824c-0.942,0 -2.619,-0.838 -5.036,-2.288h-0.825v-2.122c0.473,-0.294 0.825,-0.955 0.825,-1.456c1.449,-2.911 2.123,-4.036 2.123,-3.744c0,0.66 0.473,-0.625 1.449,-3.578c1.449,-1.788 2.288,-3.868 2.288,-5.824c0.236,-2.453 1.449,-4.699 2.913,-7.322c0,0 0.354,-0.66 1.449,-2.122h2.123c4.869,2.453 8.443,4.075 11.026,5.035c0,0.496 0.708,0.838 2.123,0.838l0.825,-0.838v-2.08c-0.708,-1.956 -0.708,-4.075 0,-6.699c0,-3.702 1.449,-7.612 4.362,-11.69c3.243,-5.2 8.277,-8.944 15.268,-10.9c2.452,-0.294 6.038,-0.789 11.06,-0.789c5.2,0.66 9.729,2.911 13.812,7.322c4.362,4.368 6.992,9.402 7.949,14.602c0.473,1.167 0.825,2.788 0.825,5.2c0,8.779 -3.408,15.931 -10.237,21.798c-0.473,0.625 -1.178,0.789 -1.449,0.789c-0.473,0 -1.178,0.331 -1.449,0.66v1.456l0.825,0.838l11.521,5.824c54.122,31.2 96.554,74.255 127.253,129.374c12.021,22.88 21.3,46.634 27.622,71.467c3.408,8.779 5.365,17.222 5.86,24.875l2.913,13.812c0.473,2.122 0.825,4.244 0.825,6.655c0,1.956 0.118,3.91 0.591,5.866c0,5.824 0.473,10.234 1.449,13.146zM468.087,784.532c0,0.331 0.118,1.003 0.708,1.456c0.354,1.003 0.825,1.664 0.825,2.288c0,1.456 -0.825,3.244 -2.288,5.866c0,0 -0.473,0.955 -1.449,3.578c-1.449,0.331 -2.783,0.955 -3.573,1.456c-0.708,0.955 -1.285,1.622 -2.288,2.122c-1.449,0.461 -2.749,0.955 -3.573,1.456c-1.178,0.955 -2.123,1.788 -2.913,2.246l-13.978,5.866c-3.408,1.003 -6.485,1.622 -9.444,2.122c-2.913,0.955 -6.155,2.288 -9.562,3.744c-2.913,0.789 -6.321,1.456 -10.069,1.456c-4.08,0.331 -7.819,1.456 -11.06,2.911c-1.956,0.331 -4.08,0.66 -5.86,0.66c-1.91,0 -4.034,0.496 -5.826,1.456c-2.619,0.496 -4.705,0.838 -6.485,0.838c-1.498,0 -3.737,0.13 -6.699,0.625h-4.362c-1.449,0.496 -2.749,0.838 -3.573,0.838c-2.581,0.789 -5.86,1.456 -10.237,1.456c0,0 -0.354,0.164 -0.825,0.625c-5.365,0 -9.234,0.164 -11.686,0.838h-2.913c-2.452,0 -4.08,0.331 -5.036,1.456c-6.367,0 -11.403,0.164 -14.644,0.66h-11.686c-0.473,0.461 -1.449,0.789 -2.913,0.789h-13.188c-1.956,0 -4.198,0.164 -6.485,0.66h-64.356c-4.362,0 -7.782,-0.331 -10.237,-0.66h-18.22c-0.473,-0.625 -1.746,-0.789 -3.702,-0.789h-10.896c-0.473,-0.496 -1.449,-0.66 -2.913,-0.66h-7.324c-1.956,0 -4.244,-0.331 -6.485,-0.789c-2.123,-0.496 -4.08,-0.66 -5.86,-0.66c-0.708,0 -1.285,-0.331 -2.288,-0.838h-3.573c-1.178,0 -2.581,-0.294 -4.362,-0.625h-5.86c-1.178,0 -2.581,-0.331 -4.362,-0.838c-1.462,-0.461 -2.959,-0.625 -4.411,-0.625c-1.449,-0.66 -4.198,-0.838 -8.113,-0.838l-13.812,-2.911c-2.619,-0.496 -4.869,-1.003 -7.324,-1.456c-1.956,0 -4.362,-0.496 -7.324,-1.456c-5.494,-1.003 -10.565,-2.122 -15.268,-3.578c-5.036,-1.167 -9.905,-2.288 -14.603,-3.744c-2.619,-1.003 -5.036,-1.788 -7.324,-2.122c-2.123,-0.496 -4.08,-1.289 -5.86,-2.288c-1.956,-1.456 -3.737,-2.411 -5.2,-2.911c-1.449,0 -2.913,-0.66 -4.362,-2.122c-1.956,-1.456 -3.408,-2.746 -4.411,-3.578c-1.449,-1.121 -2.417,-2.246 -2.913,-3.744c-0.942,-0.461 -1.449,-1.121 -1.449,-1.456c0,0 -0.354,-0.461 -0.708,-1.456c-0.473,-1.956 -0.473,-4.202 0,-6.49c0.354,-0.66 0.942,-1.167 1.462,-1.456c0.354,-0.66 0.942,-1.332 1.498,-2.288l2.913,-2.913c0.942,-1.167 2.913,-2.122 5.826,-3.578c2.959,-2.122 5.86,-3.578 8.773,-4.41c5.86,-3.578 11.06,-5.532 16.099,-5.824c7.324,-2.955 14.934,-4.742 23.42,-5.2l13.812,-2.955c2.417,-0.955 4.541,-1.788 6.485,-2.08h5.86c1.449,-0.66 2.913,-0.838 4.362,-0.838c1.449,0 2.581,-0.331 3.75,-0.66c1.449,0 2.913,-0.294 4.362,-0.789c1.449,-0.495 2.947,-0.66 4.411,-0.66c1.792,0 3.737,-0.331 5.826,-0.789h4.411c1.792,0 3.077,-0.331 3.573,-0.66h6.649c1.449,-1.121 3.75,-1.456 7.324,-1.456c1.792,0 3.737,-0.331 5.826,-0.838h7.324c3.243,0 5.365,-0.294 6.485,-0.625h7.983c1.449,0 2.581,-0.331 3.737,-0.838c2.913,-1.456 5.494,-2.911 7.949,-4.368c2.455,-1.457 4.869,-3.244 7.324,-5.035c3.915,-2.619 6.828,-4.742 8.773,-6.657l5.826,-5.866c2.452,-3.91 3.915,-6.197 4.411,-6.49c0,-1.167 0.825,-2.787 2.288,-5.035v-4.41c0,-2.911 -0.825,-5.7 -2.288,-8.112c-1.449,-2.619 -2.619,-4.244 -2.913,-5.035c0,-0.66 -0.354,-0.838 -0.708,-0.838v-1.456h49.546v0.838c0,0.294 -0.473,0.789 -1.449,1.456c-0.942,1.456 -1.449,2.911 -1.449,4.368c-1.956,4.411 -2.581,8.112 -2.123,11.69c0,1.788 0.354,3.578 1.449,5.035l2.123,5.2c1.449,1.332 2.288,2.288 2.288,2.787l2.913,2.911c2.913,2.955 5.2,5.2 7.324,6.655l8.773,5.866c2.288,1.456 5.99,3.578 10.896,6.49c0.236,0.496 1.792,0.838 4.362,0.838h8.113c0.354,0.331 0.825,0.625 1.498,0.625h5.826c2.288,0 4.575,0.164 6.485,0.838h7.324c1.792,0 3.077,0.331 3.573,1.456h7.324c1.449,0.331 3.243,0.66 5.2,0.66h4.362c0.354,0.461 1.178,0.789 2.123,0.789h2.913c1.498,0 2.947,0.164 4.411,0.66c1.956,0.496 3.915,0.789 5.86,0.789c0.942,0.331 2.581,0.66 5.2,0.66c2.242,0.496 4.541,0.838 6.485,0.838c1.792,0.294 3.915,0.625 5.826,0.625c6.203,1.456 12.521,2.619 18.387,3.744c5.696,1.456 11.521,3.078 17.387,5.035c2.913,1.003 5.531,1.622 8.113,2.288c2.288,0.789 5.2,2.122 8.773,3.578c1.792,0.331 3.573,0.955 5.036,1.456c1.449,0.331 3.077,1.456 5.2,2.911c2.288,1.456 3.75,2.453 4.411,2.955c1.449,0.294 2.074,0.955 2.074,1.456c0.354,0.955 1.498,1.622 2.947,2.246c0.942,1.498 1.628,2.453 2.242,3.578z" /></svg>