<svg xmlns="http://www.w3.org/2000/svg" viewBox="0 0 843 864" width="843" height="864"><path d="M434.939,36.444c-2.581,7.786 12.509,11.918 17.604,14.724c8.634,4.723 16.755,10.629 25.388,15.611c30.406,17.529 50.407,27.6 83.621,37.973c19.778,6.199 38.564,6.825 54.689,20.923c10.183,8.894 17.896,18.195 24.834,30.001c7.788,13.215 17.822,26.054 27.123,38.305c11.109,14.617 21.994,29.891 34.65,43.139c22.364,23.36 40.375,54.948 42.624,87.718c0.96,14.023 2.916,27.344 2.916,41.552c0.027,17.306 0,34.579 0,51.886c0.039,13.984 1.071,28.082 -1.587,41.882c-2.066,10.519 -5.201,20.779 -7.23,31.294c-3.396,17.307 -5.095,34.948 -14.688,49.745c-7.714,11.957 -13.469,24.538 -21.735,36.201c-8.342,11.773 -15.242,23.394 -22.217,35.942c-4.023,7.198 -7.567,13.063 -10.483,20.813c-2.065,5.462 -2.473,5.057 -7.047,8.597c-11.474,8.893 -19.447,21.182 -31.734,29.376c-8.709,5.831 -18.155,10.075 -26.866,15.681c-4.428,2.844 -6.64,5.131 -11.882,6.644c-15.609,4.428 -30.811,9.706 -46.531,14.021c-20.078,5.534 -41.149,12.992 -61.962,14.948c-5.61,0.514 -10.738,2.473 -16.31,3.062c-8.782,0.935 -18.046,-0.136 -26.939,-0.136c-30.629,0 -61.183,0.407 -91.113,-6.087c-6.608,-1.438 -11.92,-6.386 -18.38,-8.303c-4.243,-1.254 -8.007,-1.621 -12.212,-3.394c-9.891,-4.097 -19.816,-8.343 -29.153,-13.507c-22.251,-12.287 -48.452,-12.399 -72.142,-20.775c-9.891,-3.467 -19.153,-7.528 -26.46,-15.203c-9.043,-9.522 -12.993,-24.909 -19.08,-36.201c-8.23,-15.317 -19.853,-33.214 -20.738,-51.258c-0.997,-21.11 1.328,-39.746 8.966,-59.452c4.687,-12.066 5.166,-25.426 5.572,-38.192c0.258,-8.38 4.133,-15.687 5.609,-23.767c1.03,-5.533 -0.186,-11.105 0.921,-16.606c2.916,-14.536 12.732,-27.048 16.57,-40.96c3.175,-11.549 7.528,-17.198 15.316,-26.091c12.803,-14.575 25.24,-31.625 35.019,-48.561c4.392,-7.642 11.918,-15.465 17.713,-22.142c6.644,-7.642 15.939,-12.216 22.547,-20.004c9.854,-11.551 23.877,-21.477 39.155,-22.326c11.144,-0.591 21.475,-2.95 32.732,-2.95c10.923,0 21.809,0 32.732,0c15.13,0 31.071,-1.586 45.905,1.476c10.075,2.065 20.114,1.476 30.41,1.476c10.738,0.036 20.224,-0.554 30.258,3.321c6.568,2.549 13.359,5.058 19.744,7.713c4.834,1.994 7.305,5.165 11.105,8.044c3.619,2.694 8.266,4.466 11.918,7.641c6.754,5.866 12.255,13.063 17.529,20.223c9.446,12.917 17.343,26.825 22.068,42.289c2.36,7.75 2.546,15.978 5.018,23.875c2.914,9.152 2.212,18.155 2.212,28.009c0,8.45 0.3,16.975 0.055,25.426c-0.221,8.266 -3.838,14.537 -5.647,22.287c-3.098,13.248 -6.05,26.164 -10.515,39.005c-2.656,7.788 -7.452,14.211 -12.103,20.779c-6.568,9.26 -11.517,10.809 -21.219,16.05c-5.868,3.176 -10.665,7.344 -16.681,10.406c-6.752,3.431 -13.023,6.2 -19.631,9.706c-15.795,8.342 -34.283,7.565 -51.698,6.716c-14.061,-0.665 -31.183,-7.306 -44.727,-11.957c-15.426,-5.278 -31.367,-10.923 -47.014,-15.611c-10.332,-3.102 -27.453,-15.905 -29.485,-27.383c-0.873,-5.091 -0.912,-14.353 -0.027,-19.485c0.551,-3.1 1.884,-8.856 3.321,-11.622c1.474,-2.77 3.95,-4.798 5.387,-7.604c3.985,-7.713 4.207,-15.942 10.185,-22.51c3.248,-3.544 4.687,-6.825 7.603,-10.629c6.418,-8.449 16.125,-13.284 23.578,-20.444c17.529,-16.825 52.363,-20.44 66.461,1.182c-20.147,-16.975 -46.456,-3.171 -63.432,12.77c-8.932,8.374 -20.076,21.846 -20.704,35.094c-0.699,15.055 5.019,27.231 14.098,38.819c4.355,5.536 9.485,8.011 15.351,11.736c3.581,2.289 7.234,4.948 11.109,6.754c2.064,0.997 4.427,1.183 6.456,2.032c4.242,1.77 7.344,4.981 11.809,6.235c2.473,0.704 6.275,1.552 8.82,2.18c6.754,1.659 13.544,3.67 20.554,3.615c13.507,-0.183 31.182,3.361 44.098,-0.589c7.859,-2.397 16.091,-7.16 23.62,-10.591c6.271,-2.804 6.385,-5.46 11.549,-9.779c2.841,-2.397 6.31,-3.099 9.041,-5.718c4.501,-4.355 9.52,-12.178 12.326,-17.64c6.347,-12.288 13.58,-28.119 14.169,-42.067c0.899,-21.957 1.377,-45.723 -0.136,-67.718c-0.996,-15.021 -8.93,-28.928 -14.021,-42.88c-4.505,-12.326 -11.995,-22.288 -21.296,-31.329c-11.143,-10.775 -28.82,-17.565 -44.098,-18.563c-10.7,-0.701 -20.885,-2.988 -31.698,-2.879c-10.038,0.055 -20.115,-0.136 -30.152,-0.109c-8.192,0.071 -15.39,2.655 -23.47,3.21c-4.538,0.32 -9.297,-0.86 -13.8,-0.308c-10.113,1.182 -19.152,5.279 -28.672,8.341c-27.458,8.819 -50.595,25.24 -68.527,48.379c-7.16,9.226 -11.554,20.593 -18.119,30.408c-5.647,8.38 -10.333,17.236 -14.025,26.683c-7.711,19.63 -7.784,41.659 -11.768,61.919c-2.55,12.918 -0.613,27.568 -0.668,40.668c-0.039,12.842 1.106,22.066 5.056,34.098c3.725,11.219 7.784,22.547 13.285,33.026c4.796,9.078 8.265,19.816 13.912,28.269c7.194,10.774 17.6,18.374 26.57,27.415c3.135,3.174 5.827,6.124 8.597,9.593c4.132,5.132 7.232,5.501 12.066,8.932c3.652,2.584 5.757,6.087 9.153,9.003c4.314,3.652 9.187,4.795 13.615,8.08c3.913,2.877 5.057,4.466 10,6.681c4.871,2.175 9.743,4.315 14.834,6.05c11.918,4.057 24.39,7.012 36.829,8.08c7.269,0.629 12.77,3.046 20.369,2.991c15.722,-0.185 29.524,-0.185 44.948,-3.729c20.294,-4.613 40.74,-5.757 61.037,-11.957c7.16,-2.177 13.985,-2.252 20.998,-4.392c4.205,-1.29 8.451,-1.444 12.656,-2.841c4.727,-1.549 8.709,-4.69 13.36,-6.237c15.757,-5.203 31.406,-10.85 42.511,-23.729c5.98,-6.9 13.101,-12.732 19.595,-19.003c8.893,-8.561 16.347,-18.968 23.841,-28.709c3.579,-4.649 8.597,-8.119 11.736,-13.062c2.287,-3.544 3.578,-7.713 5.718,-11.328c3.394,-5.647 6.348,-11.516 8.82,-17.679c5.684,-14.022 11.478,-28.706 11.847,-43.948c0.256,-10.26 3.319,-18.638 5.128,-28.709c2.325,-12.991 0.668,-27.274 0.668,-40.445c0,-19.376 2.694,-40.63 -2.14,-59.302c-3.766,-14.54 -7.749,-28.565 -13.25,-42.586c-3.802,-9.632 -6.089,-18.824 -10.333,-28.195c-6.679,-14.65 -16.755,-27.492 -23.395,-42.217c-4.651,-10.146 -11.886,-17.416 -17.713,-26.9c-5.427,-8.818 -10.776,-16.79 -18.38,-23.875c-13.952,-13.025 -27.567,-26.055 -44.727,-34.948c-7.822,-4.059 -17.159,-6.863 -25.203,-10.369c-4.687,-2.066 -9.891,-2.655 -15.278,-4.428c-13.653,-4.5 -26.9,-9.741 -41.182,-9.632c-13.616,0.081 -14.834,-0.794 -28.413,-0.055c-6.312,0.332 -11.032,3.134 -17.64,3.025c-6.088,-0.111 -9.188,0.183 -14.06,2.841c-2.288,-6.863 -0.625,-18.266 -0.625,-25.351c0,-10.336 -0.297,-19.929 1.476,-30.039c2.62,-14.872 1.476,-30.444 1.476,-45.576z" /> <path d="M399.697,5.945c4.205,3.394 4.613,14.982 5.868,19.925c2.029,8.011 3.838,40.558 5.204,48.526c2.14,12.362 0.625,51.294 0.661,63.914c0.027,5.462 2.032,12.44 -2.731,15.023c-2.879,1.586 -11.328,2.693 -14.87,2.879c-5.722,0.343 -11.918,0.343 -17.64,0c-2.802,-0.136 -14.391,-1.701 -16.051,-3.175c-3.692,-3.285 1.177,-9.741 1.437,-14.725c0.274,-5.387 -0.055,-36.272 -0.055,-41.661c0,-5.278 -0.774,-11.219 -0.055,-16.423c0.699,-5.241 2.802,-7.75 3.025,-13.285c0.245,-5.387 -0.776,-34.948 -0.055,-40.26c0.661,-5.164 2.544,-7.859 2.989,-13.285c0.628,-7.75 1.441,-7.972 8.893,-10.483c4.834,-1.66 9.151,-3.025 14.613,-2.911z" /> <path d="M408.515,753.108c2.843,5.497 2.545,8.376 2.879,14.87c0.274,5.722 2.292,12.178 3.652,17.827c0.776,3.321 2.18,5.387 2.362,8.929c0.109,2.843 -0.736,6.091 -0.191,8.932c1.108,6.46 4.797,45.723 2.475,52.771c-3.729,11.292 -22.032,6.568 -31.701,6.677c-6.641,0.109 -11.292,-2.766 -17.638,-3.025c-5.609,-0.274 -10.15,0.164 -13.321,-5.795c-4.872,-9.041 -0.305,-60.63 1.476,-69.967c1.257,-6.531 2.77,-10.959 2.991,-17.859c0.219,-6.347 2.511,-11.513 2.989,-17.859c0.668,-8.782 1.513,-7.49 10.296,-7.381c5.866,0.055 11.736,0 17.6,0c12.548,0 24.211,0.998 22.032,17.827z" /> <path d="M837.456,405.151c0,6.422 -0.308,12.953 0,19.372c0.182,4.025 0.549,4.835 2.135,8.048c1.334,2.731 3.915,4.316 3.469,7.822c-6.9,1.81 -36.126,1.144 -43.139,4.169c-4.354,1.885 -7.932,3.657 -12.326,5.095c-7.823,2.62 -11.718,3.914 -11.882,-5.831c-0.146,-6.125 -2.25,-9.112 -2.952,-14.797c-0.76,-5.719 0.055,-12.179 0.055,-17.935c-0.039,-6.384 -2.472,-13.802 4.503,-15.091c5.718,-1.072 14.06,3.265 20.479,3.21c6.347,-0.055 36.24,0 42.586,0z" /> <path d="M120.566,393.272c-0.808,0.164 8.08,2.14 7.271,2.325c-3.469,9.963 4.538,36.716 -2.991,42.18c-1.843,1.327 -6.385,-0.055 -8.711,0.343c-2.989,0.589 -5.718,2.212 -8.782,2.841c-5.718,1.107 -37.051,2.622 -42.916,2.916c-12.253,0.555 -16.2,-3.1 -28.119,-0.164c-2.437,0.589 -3.025,2.655 -5.572,3.247c-2.584,0.668 -6.31,-0.109 -8.932,-0.136c-2.879,0 -6.087,-0.406 -8.893,-0.055c-2.289,0.343 -5.128,2.288 -6.531,2.475c-11.995,1.623 -0.998,-16.868 1.441,-22.476c2.212,-5.091 1.397,-9.889 2.879,-15.572c1.068,-4.097 1.735,-13.69 5.018,-15.094c5.312,-2.288 5.643,0.245 11.367,0.245c6.786,0 13.654,0.48 20.331,-0.661c14.982,-2.622 54.836,-5.316 73.14,-2.325z" /> <path d="M330.412,53.844c-3.36,9.002 2.027,13.875 3.321,22.141c0.5,3.029 -0.113,5.795 0.555,8.82c0.774,3.581 4.281,4.727 1.956,9.891c-14.688,-3.322 -32.179,-5.167 -46.976,-0.479c-3.434,1.072 -6.199,1.442 -9.484,2.989c-5.203,2.472 -7.972,6.9 -12.731,9.891c-1.993,1.254 -6.086,2.511 -8.378,3.579c-4.721,2.288 -9.149,4.982 -13.8,7.344c-14.133,7.269 -28.782,17.788 -40.739,28.157c-16.422,14.283 -33.137,23.839 -45.832,41.921c-12.584,17.826 -36.866,37.31 -40.076,59.561c-0.582,3.913 0.33,7.453 -0.555,11.257c-0.812,3.469 -2.584,5.349 -2.475,10.146c0.185,6.825 -2.212,12.395 -3.838,19.003c-1.068,4.244 -1.367,8.602 -2.325,12.807c-0.59,2.656 -2.841,3.284 -3.469,5.977c-1.82,7.415 0.136,18.006 0.136,25.647c0,15.387 2.36,27.527 9.335,40.331c-9.817,3.321 -8.782,-1.293 -18.819,0.48c-5.316,0.96 -8.931,3.192 -14.503,3.356c-3.539,0.136 -14.021,1.667 -17.381,0.191c-5.72,-2.546 -2.95,-19.262 -2.95,-25.572c0,-4.205 0.054,-8.416 0.027,-12.656c-0.073,-5.646 1.921,-9.005 2.879,-14.209c1.514,-8.121 1.697,-15.72 4.059,-23.764c2.137,-7.235 6.75,-15.17 9.556,-22.217c2.731,-6.864 7.305,-13.952 10.665,-20.483c5.166,-10.072 11.107,-19.411 17.123,-29.113c2.766,-4.393 4.944,-8.969 8.044,-13.1c1.032,-1.443 2.986,-2.179 3.984,-3.583c2.77,-3.947 3.69,-9.371 6.091,-13.544c4.614,-8.083 8.266,-16.349 11.954,-24.577c3.766,-8.412 8.416,-15.166 13.62,-22.991c2.067,-3.171 2.214,-6.936 4.023,-9.925c1.66,-2.806 6.385,-5.534 9.335,-7.49c6.79,-4.503 14.097,-8.818 20.888,-12.991c5.351,-3.357 10.369,-7.713 16.31,-10.738c14.836,-7.528 32.511,-15.501 47.014,-24.098c13.285,-7.897 26.346,-13.284 41.588,-16.863c6.311,-1.479 13.098,-5.688 19.706,-7.235c6.864,-1.589 14.281,-3.837 21.588,-5.241c0.186,-0.885 0.391,-1.77 0.555,-2.658z" /> <path d="M91.304,463.052c-3.503,3.25 -2.802,5.906 -3.21,10.114c-0.369,4.023 -1.551,6.347 -2.511,10.146c-2.14,8.342 -0.699,18.082 -0.736,26.791c-0.027,11.549 1.144,15.941 5.681,26.237c4.134,9.447 8.525,17.49 13.765,26.276c14.169,23.691 17.16,53.693 33.8,76.017c14.357,19.189 29.781,37.198 45.945,54.615c21.442,23.066 51.294,23.508 76.386,38.417c11.513,6.863 21.404,14.503 33.914,19.003c9.484,3.431 20.519,3.729 29.376,7.49c5.609,2.362 13.395,8.633 18.153,12.585c-3.394,8.672 -6.419,17.935 -8.488,26.31c-1.66,6.79 0.739,5.609 -6.347,6.829c-5.351,0.921 -8.707,-1.035 -12.987,-3.431c-6.275,-3.469 -12.508,-4.947 -19.301,-7.567c-10,-3.948 -18.672,-7.713 -29.116,-11.073c-9.593,-3.062 -20.26,-3.281 -29.079,-7.417c-9.556,-4.503 -19.631,-9.556 -28.228,-15.278c-15.611,-10.333 -28.822,-22.547 -44.098,-32.879c-6.237,-4.205 -12.66,-8.893 -18.048,-14.244c-6.494,-6.456 -13.431,-11.403 -19.372,-18.672c-6.494,-7.972 -13.431,-15.351 -20.148,-23.691c-5.686,-7.047 -11.478,-14.943 -17.788,-21.847c-12.508,-13.725 -20.26,-33.946 -23.654,-51.812c-1.182,-6.163 -4.688,-9.446 -6.275,-14.651c-1.327,-4.353 -1.144,-9.335 -3.135,-13.839c-4.542,-10.185 -0.589,-19.52 -3.062,-30.369c-0.406,-1.773 -2.439,-2.77 -2.693,-3.95c-0.702,-3.469 -0.191,-5.941 -0.628,-9.481c-0.628,-5.387 -2.693,-7.934 -3.396,-13.321c-1.327,-10.483 0.406,-21.144 3.213,-30.185c3.285,-10.406 0.055,-24.211 11.697,-26.941c4.613,-1.107 10.959,-0.552 15.831,-0.343c5.609,0.274 12.435,4.574 14.538,10.146z" /> <path d="M438,778.09c8.266,-1.182 16.091,7.859 24.542,6.641c11.995,-1.766 24.281,-5.204 35.757,-9.593c4.688,-1.806 8.857,-4.169 13.952,-4.982c5.866,-0.921 11.809,0.628 17.6,-0.055c11.663,-1.401 23.398,-3.8 34.802,-6.163c15.313,-3.21 27.529,-6.973 40.998,-15.534c6.938,-4.428 15.242,-6.237 21.513,-11.182c7.603,-5.941 31.551,-25.094 38.711,-31.475c6.681,-5.945 10.554,-10.223 15.132,-17.494c0.661,-1.068 0.245,-2.841 0.958,-3.838c1.068,-1.476 2.989,-2.916 4.094,-4.315c2.77,-3.583 9.262,-8.048 11.441,-12.326c7.047,-13.875 22.141,-25.353 31.664,-37.973c7.563,-10.075 9.889,-18.97 16.531,-29.376c3.725,-5.866 7.638,-10.223 13.544,-14.131c6.531,-4.319 3.871,-9.191 7.34,-16.347c2.475,-5.095 3.1,-8.416 6.904,-13.398c2.989,-3.984 4.907,-7.453 6.75,-11.882c1.626,-3.913 3.175,-8.044 4.319,-12.178c1.182,-4.428 4.023,-8.966 4.909,-12.953c1.657,-7.563 -2.292,-16.57 -0.343,-24.098c0.519,-1.991 2.215,-2.135 2.622,-3.469c0.661,-2.289 0,-4.722 0.625,-6.863c0.888,-2.989 3.875,-6.087 3.139,-9.372c3.36,5.274 2.511,8.525 3.175,13.984c0.589,4.797 2.658,7.013 3.356,11.772c0.555,3.838 -1.215,8.342 -0.245,12.103c0.699,2.693 2.802,2.952 3.469,5.647c0.699,2.619 -0.109,6.385 -0.136,9.079c-0.055,9.41 0.589,17.935 -2.359,26.754c-3.175,9.41 -7.825,18.966 -12.585,27.415c-4.353,7.788 -8.932,15.392 -13.431,22.991c-5.241,8.82 -12.103,17.604 -16.719,26.163c-7.675,14.465 -15.203,30.743 -24.759,44.137c-5.647,7.898 -14.098,13.69 -21.773,19.67c-8.413,6.568 -14.982,15.093 -21.588,23.36c-11.809,14.722 -24.504,30.554 -40.26,41.513c-7.567,5.204 -13.763,12.178 -21.292,17.05c-9.116,5.905 -18.38,8.413 -27.864,13.395c-9.925,5.204 -19.481,6.79 -30.258,9.56c-6.016,1.513 -11.294,5.351 -17.089,6.934c-6.2,1.735 -11.182,2.292 -17.381,4.209c-13.504,4.244 -28.559,9.632 -42.955,11.401c-11.549,1.404 -24.5,-0.027 -36.201,-0.136c-2.434,-0.027 -5.827,-0.699 -8.08,-0.136c-2.619,0.589 -3.356,3.247 -6.014,3.431c-2.879,0.164 -12.695,-3.8 -14.542,-6.125c-2.77,-3.469 -1.81,-10.629 -1.513,-15.019c0.406,-6.46 4.503,-9.226 9.556,-26.754z" /></svg>