<svg xmlns="http://www.w3.org/2000/svg" viewBox="0 0 1024 1024" width="1024" height="1024"><path d="M0,512c0,-282.77 229.23,-512 512,-512c282.77,0 512,229.23 512,512c0,282.77 -229.23,512 -512,512c-282.77,0 -512,-229.23 -512,-512zM96,512c0,229.75 186.25,416 416,416c229.75,0 416,-186.25 416,-416c0,-229.75 -186.25,-416 -416,-416c-229.75,0 -416,186.25 -416,416zM384,704c0,-70.692 57.308,-128 128,-128c70.692,0 128,57.308 128,128c0,70.692 -57.308,128 -128,128c-70.692,0 -128,-57.308 -128,-128zM640,352c0,-53.019 28.654,-96 64,-96c35.346,0 64,42.981 64,96c0,53.019 -28.654,96 -64,96c-35.346,0 -64,-42.981 -64,-96zM256,352c0,-53.019 28.654,-96 64,-96c35.346,0 64,42.981 64,96c0,53.019 -28.654,96 -64,96c-35.346,0 -64,-42.981 -64,-96z" /></svg>