<svg xmlns="http://www.w3.org/2000/svg" viewBox="0 0 1024 830" width="1024" height="830"><path d="M717,537.2c-10.8,-111.2 -157.2,-188 -326.8,-171.2c-169.4,16.8 -298,120.4 -287,231.8c11,111.2 157.4,188 327,171.2c169.4,-16.6 298,-120.4 286.8,-231.8zM893.4,539.6c0,128.4 -185.4,290.2 -463.8,290.2c-212.4,0 -429.6,-103 -429.6,-272.2c0,-88.6 56,-191.2 152.4,-287.4c129,-129 279.4,-187.8 336,-131.2c25,25 27.4,68 11.4,119.6c-8.4,25.8 24.4,11.6 24.4,11.6c104.2,-43.8 195.2,-46.2 228.4,1.2c17.8,25.4 16.2,60.8 -0.2,102c-7.6,19 2.4,21.8 16.8,26.2c58.8,18.2 124.2,62.2 124.2,140z" /> <path d="M1010.8,354.2v0.2c-6.8,20.6 -28.8,31.8 -49.4,25.2c-20.6,-6.8 -31.8,-28.8 -25.2,-49.4v0c20.6,-63.2 7.6,-135.4 -40.2,-188.4c-47.8,-53 -118.2,-73.2 -183.4,-59.4c-21.2,4.6 -41.8,-8.8 -46.4,-30c-4.6,-21 8.8,-41.8 30,-46.4v0c91.6,-19.4 190.8,9 258,83.6c67.2,74.6 85.4,176.2 56.6,264.6z" /> <path d="M878.4,312.2c-5.8,17.8 -24.8,27.4 -42.6,21.8c-17.8,-5.8 -27.4,-25 -21.8,-42.6v0c7,-21.2 2.6,-45.4 -13.4,-63.2c-16,-17.6 -39.6,-24.4 -61.4,-19.8v0c-18,4 -36,-7.6 -40,-25.8c-3.8,-18.2 7.8,-36.4 26,-40.2c44.4,-9.6 92.8,4.2 125.6,40.6c32.8,36.2 41.6,85.8 27.6,129.2z" /> <path d="M431.6,542.2c-10,-3.8 -22.6,1 -28.6,10.8c-5.8,9.8 -2.8,21.4 7.4,25.4c10.2,4.2 23.2,-0.6 29.2,-10.8c5.6,-10.4 2,-21.8 -8,-25.4zM366.4,568.8c-26.2,-11 -60.2,0.4 -76.4,25.8c-16.4,25.6 -8.6,56 17.4,67.8c26.4,12 61.6,0.6 78,-25.6c16.2,-26.4 7.6,-56.6 -19,-68zM539,628.6c-34.6,78 -134.2,119.8 -218.6,92.6c-81.4,-26.4 -116,-107 -80.2,-179.4c35,-71 126.2,-111.2 206.8,-90.2c83.6,21.8 126.2,100.4 92,177z" /></svg>