<svg xmlns="http://www.w3.org/2000/svg" viewBox="0 0 1024 1024" width="1024" height="1024"><path d="M674.604,257.212c1.398,0.004 2.302,0.107 2.676,0.309c3.752,2.022 8.033,7.294 11.375,14c1.712,3.434 37.769,66.447 80.129,140.027c42.36,73.58 77.621,135.982 78.363,138.664c1.692,6.132 -0.131,10.52 -5.539,13.316c-3.302,1.706 -6.96,1.846 -21.262,0.828c-17.728,-1.258 -23.826,-0.643 -31.09,3.121c-12.19,6.32 -16.523,22.172 -10.629,38.91c1.404,3.988 8.201,15.68 15.105,25.988c14.61,21.808 50.197,83.582 51.289,89.02c0.968,4.84 -1.105,5.912 -20.027,10.336c-16.67,3.896 -72.632,13.023 -74.25,12.105c-0.566,-0.326 -1.039,-1.826 -1.039,-3.332c0,-1.506 -3.522,-7.419 -7.828,-13.141c-4.306,-5.722 -7.579,-10.649 -7.285,-10.941c0.3,-0.3 10.223,-1.916 22.055,-3.598c11.832,-1.682 22.041,-3.544 22.699,-4.148c0.654,-0.602 -1.458,-4.978 -4.684,-9.73c-14.416,-21.23 -21.202,-43.607 -21.246,-70.051c-0.032,-18.118 1.501,-28.447 6.863,-46.289c1.916,-6.378 3.148,-11.926 2.734,-12.34c-0.414,-0.414 -5.296,-0.048 -10.848,0.828c-10.332,1.616 -160.449,23.959 -243.961,36.309c-80.5,11.904 -81.733,12.206 -90.809,22.254c-6.068,6.712 -7.719,12.791 -7.723,28.383c-0.004,6.87 -0.693,25.293 -1.535,40.941c-1.47,27.29 -1.414,28.784 1.328,36.578c5.378,15.294 14.656,23.008 27.75,23.074c3.326,0.014 20.99,-2.156 39.254,-4.828c18.264,-2.672 33.809,-4.855 34.551,-4.855c0.742,0 1.34,1.16 1.34,2.582c0,1.798 2.847,4.011 9.371,7.285l9.371,4.707v13.879l-47.883,7.23v0.016c-26.336,3.976 -50.382,7.24 -53.434,7.25c-7.596,0.028 -19.461,-6.642 -31.297,-17.602c-9.378,-8.68 -10.878,-11.18 -86.656,-144.016c-42.416,-74.348 -77.797,-135.603 -78.629,-136.117c-2.75,-1.704 -6.684,-12.528 -8.074,-22.238c-2.13,-14.858 4.636,-130.777 8.086,-138.547c6.594,-14.854 25.676,-24.257 53.684,-26.449c26.588,-2.082 178.999,-21.908 362.621,-47.172c12.234,-1.682 20.888,-2.556 25.082,-2.547zM693.926,622.642c1.958,0 3.054,1.166 3.59,3.82c0.424,2.098 3.335,17.525 6.465,34.285c3.13,16.762 6.736,32.301 8.012,34.535c1.276,2.234 3.089,5.386 4.031,7.004c0.948,1.618 1.724,5.285 1.734,8.145c0.016,4.258 1.812,7.618 9.934,18.566l9.914,13.363l5.238,45.973c2.88,25.286 5.1,46.113 4.934,46.277c-0.166,0.164 -8.217,-4.205 -17.895,-9.715c-34.432,-19.606 -58.086,-38.945 -72.836,-59.547l-7.805,-10.902l-6.34,12.867c-3.486,7.078 -9.186,17.24 -12.672,22.582c-15.192,23.298 -47.348,59.305 -69.836,78.199l0.008,-0.02c-6.186,5.198 -13.591,11.194 -16.453,13.328l-5.207,3.883l0.027,-3.289c0.012,-1.806 1.254,-26.081 2.758,-53.945c3.49,-64.66 3.495,-63.734 -0.395,-69.508c-2.788,-4.135 -5.179,-6.134 -13.977,-11.688c-1.986,-1.25 -2.019,-3.815 -0.359,-26.371c1.014,-13.742 1.717,-25.152 1.551,-25.348c-0.16,-0.2 -6.646,0.354 -14.414,1.242c-7.768,0.888 -14.362,1.355 -14.648,1.063c-1.348,-1.412 -2.784,-43.268 -1.496,-43.73c2.36,-0.846 193.147,-31.07 196.137,-31.07z" /></svg>