<svg xmlns="http://www.w3.org/2000/svg" viewBox="0 0 1024 1024" width="1024" height="1024"><path d="M518.48,195.274c7.834,-0.046 16.041,0.02 24.66,0.188c49.794,0.972 76.228,4.48 112.848,14.98c40.802,11.7 72.843,28.691 94.375,50.051c26.644,26.432 41.388,61.597 47.328,112.887c1.918,16.557 1.01,37.893 -2.18,51.313c-8.135,34.206 -35.761,63.783 -87.063,93.199c-8.046,4.614 -31.869,17.954 -52.941,29.648c-43.172,23.956 -59.679,33.721 -80.805,47.789c-46.532,30.984 -62.489,70.496 -35.699,88.398c10.654,7.12 19.684,9.14 37.586,8.402l15.336,-0.633l-4.777,4.02c-7.058,5.938 -22.783,13.248 -35.305,16.414c-11.408,2.884 -39.313,3.766 -46.797,1.48l-0.012,-0.004c-7.38,-2.254 -15.027,-7.083 -20.105,-12.703c-8.116,-8.982 -10.978,-16.714 -11.668,-31.516c-0.504,-10.828 -0.029,-14.755 3.109,-25.695c4.248,-14.806 7.71,-21.671 17.824,-35.359c12.076,-16.342 34.838,-37.552 74.25,-69.18c81.974,-65.784 91.937,-79.117 93.633,-125.297c2.072,-56.334 -11.06,-106.966 -35.492,-136.84c-30.668,-37.492 -82.405,-54.58 -146.629,-48.426c-44.704,4.282 -66.631,13.464 -91.363,38.262c-11.62,11.65 -15.049,16.118 -19.879,25.918c-17.202,34.896 -11.678,66.779 16.422,94.781c15.024,14.974 21.998,18.079 42.918,19.117c19.2,0.952 26.703,-0.756 57.109,-13.008c14.108,-5.684 26.298,-10.336 27.09,-10.336c0.836,0 1.006,1.024 0.406,2.438c-3.834,9.048 -5.139,15.973 -7.633,40.527c-4.078,40.11 -7.052,49.267 -19.832,61.047c-13.1,12.074 -24.213,15.758 -56.285,18.652c-32.73,2.952 -61.595,-1.457 -84.785,-12.953c-34.296,-17 -59.939,-46.528 -68.961,-79.414c-9.798,-35.714 -3.839,-82.644 14.805,-116.578c19.842,-36.118 52.374,-61.754 105.008,-82.754c32.071,-12.796 68.665,-18.492 123.504,-18.816zM526.973,789.562c3.811,0.181 7.458,1.109 10.813,2.824c6.898,3.528 21.615,18.685 25.461,26.227c7.054,13.828 10.927,41.86 8.609,62.344c-2.58,22.804 -7.089,33.372 -19.543,45.828c-14.665,14.665 -30.686,18.809 -44.625,11.551h-0.004c-8.436,-4.395 -19.589,-16.779 -24.84,-27.57c-9.624,-19.78 -11.772,-39.95 -7.082,-66.488c3.814,-21.586 5.869,-26.399 15.945,-37.281c10.926,-11.802 23.834,-17.977 35.266,-17.434z" /></svg>