<svg xmlns="http://www.w3.org/2000/svg" viewBox="0 0 1024 1024" width="1024" height="1024"><path d="M1024,512c0,282.77 -229.23,512 -512,512c-282.77,0 -512,-229.23 -512,-512c0,-282.77 229.23,-512 512,-512c282.77,0 512,229.23 512,512zM393.374,330.626c6.248,6.25 14.436,9.374 22.626,9.374c8.19,0 16.38,-3.124 22.628,-9.374c12.498,-12.496 12.498,-32.758 0,-45.254c-44.528,-44.53 -128.726,-44.53 -173.254,0c-12.498,12.496 -12.498,32.758 0,45.254c12.496,12.498 32.758,12.498 45.254,0c19.334,-19.332 63.412,-19.332 82.746,0zM640,672c0,-88.366 -57.308,-160 -128.002,-160c-70.694,0 -128.002,71.634 -128.002,160c0,88.366 57.308,160 128.002,160c70.694,0 128.002,-71.634 128.002,-160zM758.628,285.372c-44.528,-44.53 -128.726,-44.53 -173.254,0c-12.498,12.496 -12.498,32.758 0,45.254c12.496,12.498 32.758,12.498 45.254,0c19.332,-19.332 63.414,-19.332 82.746,0c6.248,6.25 14.436,9.374 22.626,9.374c8.19,0 16.38,-3.124 22.628,-9.374c12.498,-12.496 12.498,-32.756 0,-45.254z" /></svg>