<svg xmlns="http://www.w3.org/2000/svg" viewBox="0 0 926 960" width="926" height="960"><path d="M166.01,76.463c-0.412,-0.367 -0.595,-0.778 -0.961,-1.19c12.168,-9.561 24.747,-18.572 37.829,-27.034c10.474,-0.229 21.453,0 30.327,-1.647c7.272,-1.418 11.847,-4.62 17.473,-8.005c8.921,-6.083 27.08,-8.141 45.743,-7.364c27.583,1.693 55.348,4.529 83.114,7.822c1.738,-1.418 3.888,-2.653 6.221,-3.751c10.201,-5.672 26.211,-5.489 37.189,-10.246c5.123,-2.241 8.325,-6.038 12.213,-9.972c6.131,-7.227 19.121,-11.39 32.615,-12.853c52.923,-4.254 107.402,-1.235 160.509,-0.503c8.28,0.503 14.867,1.51 21.362,3.888c9.515,3.111 14.592,9.744 21.545,13.403c8.142,3.339 17.884,4.391 28.314,4.574c21.865,11.161 42.906,5.397 62.667,19.532c-10.749,2.516 -22.551,4.025 -31.928,7.822c-34.169,12.717 -82.153,18.892 -118.289,8.737c-15.415,-4.528 -32.294,11.573 -49.676,12.808c-1.007,0.092 -1.967,0.092 -2.928,0.092c4.666,3.248 8.736,6.542 13.585,9.103c17.382,7.365 40.985,9.789 64.954,11.893c21.545,0.367 42.632,2.837 64.085,3.843c32.156,2.334 65.044,-2.835 97.659,-6.083c14.363,12.534 27.903,25.981 40.619,40.116c-27.079,4.299 -53.93,10.292 -81.375,12.076c-11.253,0.869 -22.506,1.738 -33.667,2.653c-4.757,-0.274 -9.514,-0.457 -14.18,-0.823c-12.624,-0.687 -25.158,-1.693 -37.691,-3.248c-4.849,-0.64 -9.788,-1.28 -14.866,-1.692c-3.11,0.229 -6.083,0.594 -9.011,1.052c-10.795,1.6 -8.645,0.914 -20.858,1.463c-7.228,2.013 -14.318,4.071 -21.682,5.032c-2.196,0.228 -4.482,0.412 -6.77,0.549l-0.777,-1.281l-37.783,-37.143l-17.199,-28.04l-16.421,28.451l-33.209,32.111l-19.898,14.958v25.615l-2.699,8.554h-8.828l-12.625,3.522h-12.945v-13.677h-47.114v16.056c-0.869,-0.092 -1.738,-0.229 -2.653,-0.275c-5.123,-0.549 -10.063,0 -15.049,1.052c-10.567,2.287 -20.767,6.999 -30.968,9.423c-5.718,0.777 -11.345,1.464 -16.971,2.104c-4.208,0.091 -8.371,0.182 -12.442,0.64c-2.149,0.184 -4.253,0.595 -6.312,0.961c-5.352,0.319 -10.659,0.64 -15.919,0.777v-22.322l-1.052,-2.973l-19.761,-47.618c12.168,-0.732 24.106,-2.333 36.228,-3.339c16.605,-1.601 33.62,-0.091 50.591,1.144c11.299,0.777 22.551,1.51 33.621,1.052c10.749,-1.051 3.155,-3.979 13.539,-6.129c5.17,-1.234 13.769,-2.561 17.886,-5.397c1.327,-0.96 2.104,-2.103 2.104,-3.43c-0.182,-2.334 -3.978,-4.62 -9.788,-5.764c-9.514,-1.875 -19.897,-1.19 -30.281,-1.967c-10.2,-0.733 -4.574,-3.66 -14.683,-5.078c1.738,-0.549 -12.122,0.366 -10.292,0c-16.33,-1.738 -32.248,-3.065 -46.977,-3.065c-3.614,0.32 -7.273,0.594 -11.07,0.686h-0.412c-19.714,0.731 -42.219,-0.869 -63.398,-4.437c-28.726,-4.94 -55.119,-13.631 -69.025,-25.707l-1.555,-1.509z" /> <path d="M111.645,237.856c-23.283,-0.457 -46.52,-1.006 -69.574,-1.509c11.39,-28.086 24.884,-54.479 40.162,-78.814c3.522,-0.549 7.044,-1.052 10.658,-1.418c10.932,-1.327 22.093,-1.967 33.163,-3.019c0.64,0.092 1.19,0.092 1.83,0.092c2.196,-0.091 4.391,0.046 6.587,0.092l-1.647,2.561l-1.647,2.47l-0.869,3.065l-18.526,62.896l-2.288,7.822l2.15,5.764z" /> <path d="M906.607,193.918c4.482,7.365 8.782,14.867 12.853,22.506c-0.502,0.412 -0.869,0.823 -1.463,1.235c-28.635,16.742 -77.533,9.744 -113.807,13.22c-52.604,2.928 -102.966,17.657 -155.295,19.395c-7.593,0.366 -15.232,0.275 -22.871,0l6.724,-3.98l13.266,-7.959l-5.26,-14.821l-9.56,-26.988v-18.068l-1.327,-3.385l-0.321,-0.915c0.732,0 1.418,0.046 2.15,0.046c25.432,-0.778 50.91,3.293 76.343,3.659c8.006,0.091 15.827,-0.549 23.558,-1.418h0.092c4.438,-0.366 8.966,-0.915 13.357,-1.327c11.252,1.235 22.368,2.379 33.529,3.065c41.58,3.98 91.027,0.686 128.033,15.735z" /> <path d="M761.697,652.523c54.707,3.477 109.506,6.954 164.26,10.43c-6.313,15.094 -13.357,29.869 -21.179,44.141l-6.266,-0.915v11.984c-83.982,144.362 -243.166,241.839 -425.814,241.839c-226.561,0 -417.032,-149.852 -472.655,-353.222l5.764,-1.967l4.345,24.198l8.646,-2.47l5.626,-86.362h15.552l3.111,40.436l11.755,-5.947l17.382,11.71l44.645,3.293v-12.076l11.161,2.47v-21.179l6.221,-11.436l19.898,2.47l11.755,-9.743h17.977l-10.475,-7.548c6.678,-4.437 13.357,-8.966 20.081,-13.494c1.921,4.529 3.98,9.057 5.901,13.494l-6.175,10.567l16.102,0.686l0.686,25.89l74.468,6.038v24.746l16.696,6.724l7.502,-4.849l11.71,-22.368l3.797,-35.633l8.646,-7.822l8.05,8.371v41.671l12.442,-19.898l9.88,16.879l13.723,-41.671l14.272,15.781l16.788,-58.55l8.05,24.746l8.646,-24.198l25.433,39.202l-3.111,30.831l36.045,13.311v16.925l20.493,-4.849l15.506,37.326l8.646,-9.515v13.86l15.552,21.728l11.161,-26.073h21.773v-41.58l6.77,2.47l3.111,39.11h9.332v-16.788l7.364,3.019v18.114l6.221,3.019l10.017,25.342l5.535,-14.454l35.999,3.568l2.424,-29.001l12.442,3.019v29.001l16.102,-2.333v-19.395l12.442,2.47v16.925l23.008,0.549l3.111,26.53h24.198l7.456,-29.549z" /> <path d="M402.131,543.169h40.39v-166.227l-38.195,8.188zM164.591,543.718h81.33v-134.437l-76.939,6.587zM732.343,608.077l80.827,15.69v-134.619l-76.893,-10.658zM155.578,344.101v-87.825l-8.646,-15.323l25.844,-58.55c8.417,-8.554 16.696,-17.153 25.113,-25.707c9.332,5.535 18.617,11.162 27.903,16.788l21.499,56.034v17.84l-11.482,15.323l2.882,64.908l30.053,3.843l15.735,30.556v-43.272l28.68,-2.561l-8.6,47.16l40.162,2.424v-30.51l28.589,-1.327l15.781,-40.711v-64.908h25.799v52.147l25.844,-15.187l7.09,-24.289h25.844v77.762l17.108,34.353v-31.791l14.363,-1.327v-56.034l-11.482,-12.762l11.482,-33.071v-17.84l15.827,-10.841l22.871,-36.32l24.335,36.32l10.063,22.277v16.604l11.482,27.995l-17.199,8.965l-1.509,53.473h11.482v72.548l117.969,22.962l39.658,-78.997l17.244,-49.676l18.571,-3.797v40.711l34.353,-12.716l53.016,91.713l-8.6,45.605l25.844,-2.333l5.214,259.45l-119.113,64.954c-0.686,-0.092 -1.281,-0.092 -1.967,-0.092c-7.41,0 -14.455,2.471 -19.807,6.77c-3.34,-1.921 -7.319,-3.156 -11.39,-3.705c-3.66,-8.051 -11.665,-14.226 -21.728,-16.056l-12.67,-2.196c-0.733,-0.183 -1.51,-0.274 -2.196,-0.366c-3.567,-2.927 -7.912,-5.031 -12.853,-6.175l-12.67,-2.79c-2.378,-0.548 -4.757,-0.777 -7.227,-0.777c-6.129,0 -12.167,1.738 -17.199,4.895c-7.137,4.574 -11.574,11.618 -12.397,19.257v0.183l-1.463,-0.092c-0.228,-0.273 -0.411,-0.457 -0.594,-0.594v-3.43c0,-10.658 -7.135,-20.218 -18.205,-24.381l-2.104,-0.686v-0.549c-0.869,-10.382 -8.508,-19.257 -19.486,-22.779l-6.908,-2.288c-3.293,-1.052 -6.724,-1.555 -10.109,-1.555c-6.039,0 -11.985,1.647 -17.017,4.712c-8.004,4.94 -12.67,13.036 -12.67,21.636v10.063c-2.653,-2.151 -5.718,-3.797 -9.194,-4.941c-1.006,-0.365 -1.967,-0.594 -2.973,-0.777l-4.666,-10.292c-4.116,-9.057 -13.448,-15.14 -23.923,-16.284c-3.338,-4.301 -8.096,-7.731 -13.951,-9.698l-15.415,-5.26l0.961,-8.508c0.595,-5.901 -0.869,-11.71 -4.437,-16.742l-25.936,-36.503c-5.444,-7.731 -15.05,-12.305 -25.113,-12.305c-1.097,0 -2.195,0.091 -3.385,0.183c-1.372,0.183 -2.744,0.365 -4.071,0.686c-3.065,-0.961 -6.312,-1.373 -9.56,-1.373h-0.594c-13.082,0.137 -24.564,8.004 -28.04,19.257l-6.495,20.813c-0.915,0.091 -1.784,0.183 -2.699,0.366c-5.122,0.96 -9.788,3.064 -13.539,6.083l-3.385,-3.248c-5.444,-5.214 -12.854,-8.187 -20.767,-8.462h-1.098c-7.502,0 -14.729,2.47 -20.172,7.044l-8.919,7.364c-5.215,4.345 -8.509,10.2 -9.286,16.65l-0.777,7.044c-2.379,-0.823 -4.94,-1.234 -7.639,-1.509l-49.265,-3.614l-0.092,-0.458c-0.229,-8.873 -5.26,-16.604 -12.991,-21.27l-5.535,-11.528c-3.568,-7.273 -10.474,-12.762 -19.074,-14.958c-2.699,-0.686 -5.444,-1.052 -8.234,-1.052c-5.947,0 -11.847,1.601 -16.925,4.666l-14.408,8.965l-6.038,3.705c-3.201,1.921 -5.854,4.391 -7.913,7.227c-0.731,0.412 -1.327,0.869 -1.921,1.327l-2.059,1.555l-7.41,-0.869c-1.189,-0.091 -2.469,-0.183 -3.659,-0.183c-6.816,0 -13.358,0.321 -18.526,4.026v-202.501h-18.571l54.387,-128.673z" /></svg>