<svg xmlns="http://www.w3.org/2000/svg" viewBox="0 0 927 1024" width="927" height="1024"><path d="M447,768l-224,224l-224,-224h160v-768h128v768z" /> <path d="M831,448c-17.674,0 -32,-14.328 -32,-32v-352h-32c-17.674,0 -32,-14.328 -32,-32c0,-17.672 14.326,-32 32,-32h64c17.674,0 32,14.328 32,32v384c0,17.672 -14.326,32 -32,32z" /> <path d="M927,608v384c0,17.674 -14.326,32 -32,32h-192c-17.674,0 -32,-14.326 -32,-32c0,-17.674 14.326,-32 32,-32h160v-128h-160c-17.674,0 -32,-14.326 -32,-32v-192c0,-17.674 14.326,-32 32,-32h192c17.674,0 32,14.326 32,32zM735,768h128v-128h-128z" /></svg>