<?xml version="1.0" encoding="UTF-8" standalone="no"?>
<svg
   version="1.0"
   width="334.61707"
   height="325.53015"
   viewBox="139.78471 5 333.52117 324.83083"
   preserveAspectRatio="xMidYMid"
   id="svg15"
   sodipodi:docname="souls_of_darkness-revelations.svg"
   inkscape:version="1.4.2 (ebf0e940, 2025-05-08)"
   xmlns:inkscape="http://www.inkscape.org/namespaces/inkscape"
   xmlns:sodipodi="http://sodipodi.sourceforge.net/DTD/sodipodi-0.dtd"
   xmlns="http://www.w3.org/2000/svg"
   xmlns:svg="http://www.w3.org/2000/svg">
  <defs
     id="defs15" />
  <sodipodi:namedview
     id="namedview15"
     pagecolor="#ffffff"
     bordercolor="#000000"
     borderopacity="0.25"
     inkscape:showpageshadow="2"
     inkscape:pageopacity="0.0"
     inkscape:pagecheckerboard="0"
     inkscape:deskcolor="#d1d1d1"
     inkscape:zoom="0.11926606"
     inkscape:cx="205.42308"
     inkscape:cy="109"
     inkscape:window-width="896"
     inkscape:window-height="245"
     inkscape:window-x="0"
     inkscape:window-y="565"
     inkscape:window-maximized="0"
     inkscape:current-layer="svg15" />
  <metadata
     id="metadata1">
Created by potrace 1.16, written by Peter Selinger 2001-2019
</metadata>
  <g
     transform="matrix(0.1,0,0,-0.1,132.59954,335)"
     fill="#000000"
     stroke="none"
     id="g15">
    <path
       d="m 1563,3000 c -94,-165 -169,-301 -165,-304 4,-2 45,4 92,14 l 85,17 76,129 c 42,71 82,129 89,129 14,0 36,-37 620,-1050 479,-832 471,-818 481,-808 5,5 14,54 20,111 l 12,101 -85,148 c -76,133 -522,906 -751,1303 -49,85 -135,235 -191,332 -55,98 -103,178 -106,178 -3,0 -82,-135 -177,-300 z"
       id="path1" />
    <path
       d="m 1585,2683 c -442,-55 -829,-330 -1029,-731 -45,-89 -89,-220 -111,-327 -30,-145 -30,-452 0,-462 6,-1 36,43 67,98 52,91 58,107 58,159 0,138 53,339 128,484 167,326 481,559 836,621 93,16 298,19 379,6 29,-5 47,-4 47,2 0,12 -58,116 -78,140 -13,15 -32,17 -141,16 -69,-1 -139,-4 -156,-6 z"
       id="path2" />
    <path
       d="m 2202,2592 c 2,-5 27,-51 57,-103 50,-86 61,-98 123,-138 90,-57 227,-186 298,-282 225,-302 290,-704 174,-1064 -33,-102 -111,-253 -174,-336 -26,-35 -46,-67 -43,-71 2,-5 42,-8 88,-8 h 83 l 40,63 c 219,347 270,754 142,1139 -107,322 -344,596 -650,753 -101,51 -146,67 -138,47 z"
       id="path3" />
    <path
       d="M 1334,2425 C 1201,2375 1204,2378 1098,2193 1045,2101 893,1836 760,1605 626,1374 423,1021 307,820 192,619 91,448 84,439 50,401 59,400 413,400 c 189,0 346,3 350,6 3,4 -22,37 -55,75 l -62,69 H 487 c -134,0 -158,2 -154,14 3,8 101,180 218,383 117,202 296,514 399,693 162,281 444,772 456,792 10,17 -16,14 -72,-7 z"
       id="path4" />
    <path
       d="m 1635,2308 c -55,-56 -109,-122 -134,-165 -82,-139 -131,-304 -131,-443 0,-78 3,-80 64,-55 34,15 36,17 36,64 0,107 51,275 115,380 19,32 61,86 94,122 l 59,64 37,-35 c 27,-26 98,-115 110,-137 4,-9 126,-39 130,-33 10,17 -116,188 -189,258 -42,40 -81,72 -87,72 -7,0 -53,-42 -104,-92 z"
       id="path5" />
    <path
       d="m 1640,2061 c -25,-7 -81,-93 -68,-106 3,-4 32,-2 64,4 285,53 582,-123 674,-399 16,-47 34,-78 68,-112 25,-27 50,-48 54,-48 13,0 9,59 -8,130 -20,86 -82,212 -137,279 -134,161 -352,263 -554,260 -37,-1 -79,-4 -93,-8 z"
       id="path6" />
    <path
       d="m 1295,1910 c -73,-57 -141,-144 -185,-235 -115,-235 -92,-516 59,-723 30,-41 33,-42 86,-42 30,0 55,4 55,10 0,5 -21,38 -46,72 -89,121 -125,225 -125,363 -1,168 51,305 157,420 27,29 42,57 55,107 20,81 14,84 -56,28 z"
       id="path7" />
    <path
       d="m 1997,1818 c 5,-24 8,-97 8,-163 -1,-93 -6,-138 -23,-199 -29,-100 -87,-213 -152,-293 -27,-34 -50,-66 -50,-70 0,-4 16,-19 35,-32 l 36,-24 25,24 c 45,42 134,185 169,271 18,46 41,121 49,167 18,94 21,263 6,291 -9,18 -87,70 -103,70 -4,0 -4,-19 0,-42 z"
       id="path8" />
    <path
       d="m 1555,1636 c -125,-30 -259,-89 -342,-152 -31,-23 -33,-29 -33,-85 0,-32 2,-59 4,-59 3,0 34,22 70,49 139,106 305,161 483,161 56,0 125,-5 153,-11 29,-6 55,-7 60,-3 4,5 11,26 14,47 6,34 5,38 -21,49 -44,17 -317,20 -388,4 z"
       id="path9" />
    <path
       d="m 2146,1539 c -3,-8 -7,-30 -10,-50 -6,-35 -5,-38 41,-64 61,-36 189,-164 236,-237 40,-62 95,-191 104,-244 5,-30 2,-35 -23,-45 -16,-6 -65,-16 -110,-22 -72,-11 -85,-16 -127,-53 -26,-23 -47,-44 -47,-48 0,-10 151,-7 216,5 73,13 185,48 201,63 16,15 -8,132 -47,234 -62,159 -194,327 -329,416 -82,55 -99,62 -105,45 z"
       id="path10" />
    <path
       d="m 1428,1444 c -16,-8 -28,-17 -28,-20 0,-2 14,-40 31,-84 54,-142 165,-289 290,-385 70,-55 179,-115 207,-115 28,0 113,42 109,53 -1,5 -28,19 -59,31 -134,51 -272,157 -352,270 -50,71 -98,162 -116,224 -15,47 -33,53 -82,26 z"
       id="path11" />
    <path
       d="M 943,1173 C 881,1058 828,862 853,842 c 18,-14 134,-50 201,-61 108,-20 263,-14 371,14 108,27 265,98 265,119 0,8 -16,26 -35,40 l -34,27 -59,-30 c -116,-59 -193,-76 -342,-76 -79,0 -161,6 -197,14 -77,17 -78,22 -28,155 28,75 33,99 26,122 -5,16 -12,41 -15,57 -4,15 -10,27 -14,27 -5,0 -27,-35 -49,-77 z"
       id="path12" />
    <path
       d="m 2327,1213 c -2,-4 -12,-31 -21,-60 -41,-125 -156,-255 -285,-322 -131,-68 -280,-89 -414,-57 -54,13 -64,12 -123,-7 -35,-12 -64,-24 -64,-28 0,-7 69,-35 145,-61 25,-8 90,-13 175,-13 122,0 143,3 216,28 190,65 333,191 420,369 l 28,57 -20,36 c -22,42 -50,70 -57,58 z"
       id="path13" />
    <path
       d="m 3025,916 -29,-84 77,-134 c 42,-74 77,-137 77,-141 0,-4 -489,-7 -1086,-7 -864,0 -1085,-3 -1082,-12 2,-7 41,-41 87,-75 l 82,-63 h 1129 c 776,0 1130,3 1130,10 0,6 -9,23 -20,38 -10,15 -86,144 -168,287 -82,142 -154,261 -159,262 -6,2 -23,-34 -38,-81 z"
       id="path14" />
    <path
       d="m 600,948 c -11,-18 -30,-52 -42,-76 l -23,-42 42,-83 C 702,504 945,279 1208,161 1364,91 1508,59 1688,53 c 220,-8 377,20 572,103 102,43 300,166 308,192 3,9 -24,12 -112,12 h -116 l -87,-44 c -159,-80 -319,-116 -515,-116 -263,0 -497,78 -704,234 -84,62 -216,203 -269,285 -48,75 -125,227 -125,248 0,23 -20,14 -40,-19 z"
       id="path15" />
  </g>
</svg>
