<?xml version="1.0" standalone="no"?>
<!DOCTYPE svg PUBLIC "-//W3C//DTD SVG 20010904//EN"
 "http://www.w3.org/TR/2001/REC-SVG-20010904/DTD/svg10.dtd">
<svg version="1.0" xmlns="http://www.w3.org/2000/svg" width="100" height="100" viewBox="0.37580295090871274 0.15863578109662058 99.59930480850625 99.50254981073046" preserveAspectRatio="xMidYMid meet">
<metadata>
Created by potrace 1.16, written by Peter Selinger 2001-2019
</metadata>
<g transform="translate(0.000000,100.000000) scale(0.100000,-0.100000)"
fill="#000000" stroke="none">
<path d="M400 989 c-136 -26 -280 -139 -344 -270 -97 -199 -57 -421 104 -573
79 -74 144 -109 248 -132 255 -57 526 122 581 384 73 348 -237 659 -589 591z
m235 -61 c61 -15 113 -45 168 -96 46 -43 107 -125 107 -144 0 -14 -206 -10
-219 5 -8 11 -5 13 17 9 36 -5 58 18 43 47 -6 11 -11 38 -11 60 0 68 -57 79
-90 17 -7 -14 -16 -26 -20 -26 -5 0 -78 118 -88 142 -4 9 13 6 93 -14z m-205
8 c0 -2 -34 -63 -76 -135 l-76 -131 -94 0 c-52 0 -94 4 -94 9 0 24 89 137 136
173 69 52 204 108 204 84z m109 -143 c22 -56 41 -106 41 -111 0 -5 -43 -10
-96 -11 -72 0 -95 2 -91 12 3 6 24 60 48 120 23 59 46 104 49 100 4 -5 26 -54
49 -110z m36 42 c41 -65 46 -78 37 -102 l-10 -28 -10 27 c-6 15 -25 59 -42 99
-16 39 -30 73 -30 75 0 13 14 -4 55 -71z m-144 18 c-62 -160 -73 -183 -92
-183 -10 0 -19 4 -19 9 0 11 120 221 126 221 2 0 -4 -21 -15 -47z m286 -29 c5
-14 1 -27 -31 -83 l-14 -23 -11 21 c-9 17 -7 29 9 61 22 42 37 50 47 24z m7
-95 c-3 -5 -10 -7 -15 -3 -5 3 -7 10 -3 15 3 5 10 7 15 3 5 -3 7 -10 3 -15z
m-67 -28 c14 -22 9 -31 -16 -24 -13 3 -17 11 -14 24 7 24 15 24 30 0z m-397
-58 c0 -1 -7 -18 -16 -37 l-17 -34 -48 31 c-27 18 -49 34 -49 37 0 3 29 5 65
5 36 0 65 -1 65 -2z m75 -20 c-10 -43 -33 -93 -42 -93 -4 0 -16 7 -27 15 -18
14 -18 16 8 60 18 30 34 45 48 45 17 0 19 -4 13 -27z m245 23 c0 -3 -12 -37
-26 -75 l-26 -71 -97 0 c-54 0 -100 3 -103 6 -4 3 3 27 13 52 11 26 24 56 28
67 7 18 19 20 110 23 55 1 101 0 101 -2z m132 -39 l28 -42 -21 -17 c-33 -28
-45 -22 -68 33 -27 66 -27 69 7 69 21 0 33 -10 54 -43z m110 8 c-29 -20 -57
-33 -62 -30 -6 4 -17 19 -25 36 l-16 29 78 0 78 0 -53 -35z m115 8 c12 -41 10
-210 -2 -221 -5 -6 -20 -13 -32 -16 -18 -6 -27 0 -49 35 l-26 42 23 18 24 19
-32 0 c-24 0 -37 7 -50 26 -14 22 -15 27 -2 34 8 5 39 26 69 48 30 22 58 41
62 41 4 1 11 -11 15 -26z m-784 -35 c51 -34 56 -41 46 -59 -15 -28 -37 -34
-58 -15 -24 22 -48 20 -61 -4 -8 -14 -8 -26 0 -40 13 -24 37 -26 62 -3 32 29
27 10 -17 -66 l-43 -73 -13 53 c-23 96 -14 269 14 253 7 -4 38 -25 70 -46z
m496 -75 c1 -9 -14 -13 -44 -13 -25 0 -45 2 -45 5 0 2 10 30 22 62 l21 58 23
-50 c13 -27 23 -56 23 -62z m-389 2 c10 -13 9 -15 -8 -15 -22 0 -36 13 -25 24
10 10 20 7 33 -9z m508 -2 c2 -9 -7 -13 -28 -13 -28 0 -31 2 -20 15 15 18 41
16 48 -2z m-648 -23 c0 -5 -4 -10 -10 -10 -5 0 -10 5 -10 10 0 6 5 10 10 10 6
0 10 -4 10 -10z m160 -13 c0 -12 -60 -142 -67 -143 -4 -1 -29 -4 -54 -7 l-45
-4 44 78 c44 77 45 79 83 79 22 0 39 -1 39 -3z m132 -61 c26 -17 48 -33 47
-36 0 -3 -31 -24 -69 -48 -67 -42 -71 -43 -105 -31 -19 7 -35 16 -35 21 0 4 9
31 21 60 12 29 25 64 30 77 10 26 -3 31 111 -43z m108 60 c0 -2 -7 -20 -15
-41 l-16 -37 -27 18 c-15 9 -43 28 -62 41 l-35 23 78 0 c42 0 77 -2 77 -4z
m55 -21 c-29 -24 -50 -33 -42 -17 2 4 7 15 10 25 4 11 17 17 34 17 l28 -1 -30
-24z m185 -6 c-32 -27 -36 -28 -47 -12 -24 32 -16 43 35 43 l47 -1 -35 -30z
m-82 -4 c18 -40 15 -48 -38 -84 l-50 -34 -35 24 c-19 13 -35 26 -35 29 0 8
123 89 136 89 6 1 16 -10 22 -24z m157 -41 c25 -42 26 -47 11 -69 -32 -49 -11
-48 38 1 20 20 39 34 42 31 9 -9 -44 -111 -79 -152 l-33 -38 -44 107 c-37 92
-41 110 -28 117 8 4 26 17 39 28 13 11 25 20 26 21 0 0 13 -21 28 -46z m-96
-111 c17 -42 30 -77 28 -79 -3 -3 -146 90 -146 96 0 6 71 58 80 59 4 1 21 -34
38 -76z m-299 -33 c-17 -46 -28 -85 -26 -87 3 -3 43 23 91 57 47 34 89 60 94
58 29 -11 190 -125 188 -132 -7 -21 -129 -77 -198 -92 -82 -17 -185 -8 -257
21 -45 19 -133 77 -129 87 1 3 26 22 56 42 42 28 57 34 67 25 19 -15 18 -39
-2 -54 -34 -24 2 -84 41 -69 30 12 25 64 -13 130 -11 20 -7 25 50 62 34 23 64
40 65 38 2 -2 -10 -40 -27 -86z m95 74 c14 -9 25 -19 25 -23 0 -8 -91 -74 -95
-69 -4 4 37 108 42 108 2 0 15 -7 28 -16z m-339 -59 c-3 -13 -11 -36 -16 -51
l-11 -27 -29 39 c-41 54 -39 64 16 64 44 0 46 -1 40 -25z m76 4 c19 -10 18
-12 -17 -36 -20 -14 -38 -23 -41 -21 -7 8 17 68 28 68 5 0 18 -5 30 -11z m88
-124 c0 -8 -4 -15 -9 -15 -13 0 -22 16 -14 24 11 11 23 6 23 -9z"/>
</g>
</svg>
