<?xml version="1.0" encoding="UTF-8" standalone="no"?>
<svg
   version="1.0"
   width="1477.8948"
   height="1166"
   viewBox="10.2 215.39752 1477.3951 1166.4775"
   preserveAspectRatio="xMidYMid"
   id="svg2"
   sodipodi:docname="souls_of_darkness-thralls.svg"
   inkscape:version="1.4.2 (ebf0e940, 2025-05-08)"
   xmlns:inkscape="http://www.inkscape.org/namespaces/inkscape"
   xmlns:sodipodi="http://sodipodi.sourceforge.net/DTD/sodipodi-0.dtd"
   xmlns="http://www.w3.org/2000/svg"
   xmlns:svg="http://www.w3.org/2000/svg">
  <defs
     id="defs2" />
  <sodipodi:namedview
     id="namedview2"
     pagecolor="#ffffff"
     bordercolor="#000000"
     borderopacity="0.25"
     inkscape:showpageshadow="2"
     inkscape:pageopacity="0.0"
     inkscape:pagecheckerboard="0"
     inkscape:deskcolor="#d1d1d1"
     inkscape:zoom="0.041166381"
     inkscape:cx="740.89583"
     inkscape:cy="583"
     inkscape:window-width="896"
     inkscape:window-height="245"
     inkscape:window-x="0"
     inkscape:window-y="565"
     inkscape:window-maximized="0"
     inkscape:current-layer="svg2" />
  <metadata
     id="metadata1">
Created by potrace 1.16, written by Peter Selinger 2001-2019
</metadata>
  <g
     transform="matrix(0.1,0,0,-0.1,-0.55283008,1600)"
     fill="#000000"
     stroke="none"
     id="g2">
    <path
       d="m 7345,13582 c -93,-147 -388,-611 -655,-1032 C 6422,12129 5959,11400 5660,10930 5361,10460 4948,9810 4742,9485 4019,8348 3759,7939 3255,7145 2975,6705 2654,6199 2540,6020 2426,5841 2136,5385 1895,5005 1654,4626 1379,4194 1285,4045 1190,3897 916,3465 675,3085 434,2706 207,2348 170,2290 l -68,-105 3700,-3 c 2035,-1 5361,-1 7392,0 l 3693,3 -749,1185 c -412,652 -815,1291 -897,1420 -82,129 -386,611 -676,1070 -291,459 -717,1134 -948,1500 -231,366 -446,706 -477,755 -31,50 -263,416 -515,815 -1227,1942 -2408,3809 -2670,4225 -353,559 -435,688 -438,691 -1,2 -79,-117 -172,-264 z m 541,-1732 c 197,-311 394,-623 440,-695 45,-71 294,-465 553,-874 259,-409 471,-746 471,-748 0,-3 -39,17 -87,43 -566,310 -1130,456 -1768,456 -592,0 -1107,-123 -1638,-391 -97,-49 -177,-88 -177,-86 0,2 219,347 486,766 268,420 676,1061 907,1424 231,363 424,666 430,673 6,7 14,9 18,5 4,-4 168,-262 365,-573 z M 7740,9209 c 1038,-86 1957,-759 2364,-1731 259,-618 286,-1328 75,-1968 -106,-319 -260,-606 -471,-873 -112,-142 -360,-385 -500,-490 -346,-260 -726,-435 -1125,-518 -330,-69 -722,-78 -1048,-23 -686,114 -1312,481 -1743,1022 -325,408 -519,861 -599,1397 -25,167 -25,570 0,740 129,881 614,1612 1367,2065 384,231 795,357 1290,394 59,4 246,-3 390,-15 z m 3736,-3039 c 185,-294 390,-618 454,-720 64,-102 375,-594 692,-1095 316,-500 645,-1021 731,-1158 87,-136 157,-250 157,-252 0,-3 -1095,-5 -2432,-4 -2222,0 -2430,1 -2393,16 22,8 92,36 155,60 356,140 722,361 1020,618 544,470 935,1077 1130,1756 105,367 147,707 137,1108 -3,122 -1,219 3,215 4,-5 160,-250 346,-544 z m -7610,378 c -10,-181 4,-478 33,-673 160,-1072 764,-1996 1681,-2570 210,-132 498,-273 684,-335 37,-12 65,-24 63,-26 -7,-7 -4847,-9 -4847,-2 0,4 356,567 792,1250 435,684 964,1515 1176,1848 358,563 420,660 425,660 1,0 -2,-69 -7,-152 z"
       id="path1" />
    <path
       d="M 6784,8665 C 6194,8491 5636,8021 5369,7475 5150,7025 5092,6462 5211,5930 c 12,-52 25,-102 30,-111 18,-35 322,-173 534,-242 186,-61 438,-118 581,-132 69,-7 73,-8 120,-57 97,-100 229,-195 378,-274 43,-23 74,-44 68,-48 -21,-13 -357,-6 -480,9 -360,45 -667,137 -984,296 -65,32 -120,59 -124,59 -10,0 166,-332 223,-420 283,-435 677,-731 1175,-884 428,-131 1012,-140 1473,-21 223,57 475,168 655,287 264,175 524,456 695,753 91,158 209,425 265,600 39,122 143,542 138,557 -2,6 -12,-2 -23,-18 -48,-74 -316,-413 -420,-532 -164,-186 -442,-470 -553,-563 -407,-343 -835,-514 -1245,-496 -108,4 -267,30 -267,44 0,2 27,55 60,117 l 60,113 73,7 c 338,33 642,179 893,430 275,276 416,596 431,980 15,400 -123,772 -395,1057 -226,239 -501,389 -810,445 -783,141 -1536,-369 -1702,-1152 -39,-184 -36,-474 7,-633 l 6,-25 -49,29 c -158,91 -277,254 -325,446 -19,74 -21,102 -16,239 14,377 156,701 464,1062 231,270 545,508 940,713 l 213,110 -103,6 c -221,14 -326,10 -413,-16 z m 905,-1312 c 277,-55 526,-245 655,-500 72,-143 99,-259 98,-423 -1,-292 -115,-532 -348,-725 -183,-153 -423,-225 -676,-203 -118,11 -194,31 -295,78 -347,162 -553,482 -553,860 0,474 344,867 812,929 78,11 209,4 307,-16 z"
       id="path2" />
  </g>
</svg>
