<?xml version="1.0" standalone="no"?>
<!DOCTYPE svg PUBLIC "-//W3C//DTD SVG 20010904//EN"
 "http://www.w3.org/TR/2001/REC-SVG-20010904/DTD/svg10.dtd">
<svg version="1.0" xmlns="http://www.w3.org/2000/svg" width="105" height="164" viewBox="44 16.163113538169313 105.4 164.3368864618307" preserveAspectRatio="xMidYMid meet">
<metadata>
Created by potrace 1.16, written by Peter Selinger 2001-2019
</metadata>
<g transform="translate(0.000000,200.000000) scale(0.100000,-0.100000)"
fill="#000000" stroke="none">
<path d="M957 1835 c-3 -16 -14 -120 -22 -230 -20 -241 -27 -281 -54 -308 -25
-26 -29 -22 -36 33 -8 62 -15 63 -15 2 0 -39 -4 -52 -15 -52 -26 0 -43 52 -50
158 -4 57 -9 102 -11 100 -2 -2 -6 -49 -10 -103 -6 -97 -15 -132 -38 -147 -22
-15 -25 -7 -29 65 l-3 72 -2 -72 c-2 -57 -5 -73 -17 -73 -29 0 -45 47 -60 175
-8 70 -16 130 -19 132 -2 2 -5 -53 -8 -122 -5 -121 -6 -127 -33 -155 -21 -22
-38 -30 -62 -30 -18 0 -33 -3 -33 -6 0 -4 80 -84 178 -179 244 -237 300 -319
301 -435 1 -73 -29 -136 -110 -230 -59 -68 -61 -72 -28 -52 20 12 41 22 48 22
7 0 11 -30 11 -92 0 -50 2 -89 5 -86 3 3 6 47 6 99 0 94 16 146 38 123 12 -11
61 -178 61 -205 0 -36 18 -19 25 23 10 56 44 170 56 182 5 5 14 4 24 -4 12
-10 15 -38 17 -129 l2 -116 3 102 c3 66 8 103 15 103 6 0 27 -10 47 -22 l36
-22 -20 25 c-11 13 -39 45 -63 72 -111 123 -121 247 -29 387 16 25 120 134
230 243 l201 197 -41 0 c-30 0 -47 7 -65 25 -30 30 -38 69 -38 194 0 52 -2 92
-5 89 -3 -3 -12 -63 -20 -133 -15 -128 -31 -175 -60 -175 -11 0 -15 15 -17 63
l-2 62 -3 -55 c-5 -69 -15 -79 -42 -44 -15 19 -21 42 -22 78 0 28 -4 74 -8
101 -7 46 -8 42 -15 -55 -8 -106 -23 -150 -51 -150 -11 0 -15 12 -15 46 0 27
-4 43 -10 39 -5 -3 -10 -24 -10 -46 0 -45 -13 -48 -41 -8 -19 26 -22 51 -48
354 -11 127 -19 189 -24 170z m155 -652 c-3 -16 -7 -22 -10 -15 -4 13 4 42 11
42 2 0 2 -12 -1 -27z m-67 -28 c-2 -11 -5 -56 -5 -99 0 -101 -9 -93 -16 14 -3
46 -10 93 -14 105 -8 21 -7 22 16 11 18 -8 23 -17 19 -31z"/>
</g>
</svg>
