<?xml version="1.0" encoding="UTF-8" standalone="no"?>
<svg
   version="1.0"
   width="166.63228"
   height="324.23984"
   viewBox="174.82243 23 165.88041 324.95535"
   preserveAspectRatio="xMidYMid"
   id="svg5"
   sodipodi:docname="souls_of_darkness-feast_of_flesh.svg"
   inkscape:version="1.4.2 (ebf0e940, 2025-05-08)"
   xmlns:inkscape="http://www.inkscape.org/namespaces/inkscape"
   xmlns:sodipodi="http://sodipodi.sourceforge.net/DTD/sodipodi-0.dtd"
   xmlns="http://www.w3.org/2000/svg"
   xmlns:svg="http://www.w3.org/2000/svg">
  <defs
     id="defs5" />
  <sodipodi:namedview
     id="namedview5"
     pagecolor="#ffffff"
     bordercolor="#000000"
     borderopacity="0.25"
     inkscape:showpageshadow="2"
     inkscape:pageopacity="0.0"
     inkscape:pagecheckerboard="0"
     inkscape:deskcolor="#d1d1d1"
     inkscape:zoom="0.55813953"
     inkscape:cx="51.0625"
     inkscape:cy="43"
     inkscape:window-width="896"
     inkscape:window-height="245"
     inkscape:window-x="0"
     inkscape:window-y="25"
     inkscape:window-maximized="0"
     inkscape:current-layer="svg5" />
  <metadata
     id="metadata1">
Created by potrace 1.16, written by Peter Selinger 2001-2019
</metadata>
  <g
     transform="matrix(0.1,0,0,-0.1,22.64102,360)"
     fill="#000000"
     stroke="none"
     id="g5">
    <path
       d="m 1870,3289 c 0,-92 -15,-158 -66,-291 -20,-51 -42,-121 -49,-155 -25,-117 21,-238 108,-286 22,-12 51,-28 65,-36 33,-18 139,-17 184,2 42,18 128,99 150,142 41,78 29,179 -36,321 -50,107 -97,174 -178,255 -64,64 -151,129 -172,129 -3,0 -6,-36 -6,-81 z m 180,-195 c 0,-8 -4,-12 -10,-9 -5,3 -10,10 -10,16 0,5 5,9 10,9 6,0 10,-7 10,-16 z m 65,-105 c 9,-29 -4,-38 -21,-15 -18,25 -18,36 0,36 8,0 18,-9 21,-21 z m -265,-80 c -32,-112 19,-252 114,-310 40,-25 16,-25 -32,0 -102,53 -137,158 -98,295 10,32 19,56 21,54 3,-2 0,-20 -5,-39 z"
       id="path1" />
    <path
       d="m 2498,2794 c 6,-138 -16,-233 -118,-514 -44,-118 -86,-240 -94,-270 -38,-139 -29,-242 31,-360 33,-64 50,-84 128,-147 117,-95 182,-118 320,-111 81,4 104,10 170,41 95,45 178,126 223,216 31,63 32,67 32,207 0,134 -2,148 -31,231 -33,92 -49,128 -117,257 -108,203 -255,377 -399,472 -46,31 -99,62 -117,69 l -33,14 z m 292,-364 c 15,-28 1,-49 -17,-25 -15,22 -17,45 -3,45 5,0 14,-9 20,-20 z m 109,-176 c 26,-33 28,-77 4,-72 -22,4 -57,64 -49,83 8,22 22,18 45,-11 z m -454,-160 c -53,-250 58,-495 260,-573 l 30,-11 -37,4 c -70,9 -155,55 -212,117 -85,91 -120,209 -96,325 15,72 60,217 66,212 2,-3 -3,-36 -11,-74 z"
       id="path2" />
    <path
       d="m 1600,2223 c 0,-53 -9,-93 -40,-183 -25,-73 -40,-133 -40,-164 0,-44 5,-55 47,-104 64,-75 97,-88 177,-68 34,9 65,23 71,33 6,9 23,29 39,44 75,71 20,265 -116,414 -42,47 -110,95 -133,95 -3,0 -5,-30 -5,-67 z m 130,-123 c 0,-5 -2,-10 -4,-10 -3,0 -8,5 -11,10 -3,6 -1,10 4,10 6,0 11,-4 11,-10 z m 46,-88 c -9,-8 -26,10 -26,26 1,15 2,15 15,-2 8,-11 13,-21 11,-24 z m -191,-89 c 1,-67 33,-136 75,-159 18,-9 20,-13 8,-14 -26,0 -85,62 -96,102 -7,24 -7,52 0,82 5,25 10,46 11,46 1,0 2,-26 2,-57 z"
       id="path3" />
    <path
       d="m 1868,1537 c -2,-161 -6,-177 -108,-463 -64,-179 -95,-297 -83,-317 3,-5 6,-32 7,-61 3,-76 52,-171 120,-234 141,-128 335,-147 491,-48 122,79 186,194 186,336 0,96 -28,195 -91,324 -93,191 -135,252 -259,376 -121,122 -174,162 -228,173 l -33,7 z m 260,-307 c 3,-21 2,-22 -12,-11 -19,16 -21,44 -3,39 6,-3 14,-15 15,-28 z m 112,-181 c 0,-14 -6,-19 -17,-17 -24,4 -48,50 -39,74 7,18 9,17 32,-9 13,-15 24,-37 24,-48 z m -409,-90 c -46,-197 46,-416 201,-484 45,-19 12,-19 -45,1 -61,21 -141,93 -175,158 -36,70 -38,196 -4,304 25,80 39,92 23,21 z"
       id="path4" />
    <path
       d="m 2610,937 c 0,-94 -20,-177 -83,-342 -34,-91 -42,-123 -43,-185 -2,-94 14,-136 72,-189 24,-22 44,-44 44,-49 0,-18 78,-45 148,-50 66,-4 78,-2 137,27 36,18 70,42 76,54 7,12 27,46 46,75 34,51 35,54 31,135 -5,99 -42,198 -121,327 -42,68 -68,97 -137,152 -47,37 -101,81 -121,97 -20,17 -39,31 -43,31 -3,0 -6,-37 -6,-83 z m 185,-198 c 11,-17 -1,-21 -15,-4 -8,9 -8,15 -2,15 6,0 14,-5 17,-11 z m 63,-101 c 7,-7 12,-21 12,-32 0,-18 -1,-19 -20,-1 -20,18 -27,45 -12,45 4,0 13,-5 20,-12 z M 2582,491 c -7,-131 46,-237 142,-283 35,-16 36,-18 11,-13 -108,23 -185,118 -185,226 0,27 28,149 35,149 1,0 0,-35 -3,-79 z"
       id="path5" />
  </g>
</svg>
