<?xml version="1.0" standalone="no"?>
<!DOCTYPE svg PUBLIC "-//W3C//DTD SVG 20010904//EN"
 "http://www.w3.org/TR/2001/REC-SVG-20010904/DTD/svg10.dtd">
<svg version="1.0" xmlns="http://www.w3.org/2000/svg" width="199" height="179" viewBox="0.05486999006204432 -0.07777777777778283 198.94513000993797 179.01055400206468" preserveAspectRatio="xMidYMid meet">
<metadata>
Created by potrace 1.16, written by Peter Selinger 2001-2019
</metadata>
<g transform="translate(0.000000,194.000000) scale(0.100000,-0.100000)"
fill="#000000" stroke="none">
<path d="M404 1911 c-294 -102 -468 -393 -381 -633 29 -79 131 -239 191 -298
41 -40 46 -49 46 -90 0 -85 57 -143 140 -144 l47 -1 -1 -52 c-1 -84 58 -146
142 -149 l47 -2 6 -56 c10 -85 67 -136 153 -136 34 0 35 -1 29 -34 -8 -53 26
-120 76 -145 83 -43 140 -21 253 97 51 54 81 94 89 120 11 38 15 41 58 47 89
13 128 50 140 134 l6 46 48 7 c82 11 117 47 131 134 7 40 8 41 51 42 74 1 115
42 130 130 4 26 32 85 71 149 75 124 114 235 114 327 0 264 -255 516 -540 534
-124 7 -245 -35 -388 -134 -35 -24 -65 -44 -67 -44 -2 0 -43 25 -89 55 -197
128 -335 155 -502 96z m281 -13 c22 -5 62 -21 90 -35 56 -29 195 -122 195
-132 0 -3 -80 -86 -177 -183 -174 -174 -177 -177 -159 -197 49 -54 183 -66
277 -24 69 31 162 105 219 175 29 35 56 64 59 66 4 1 139 -130 300 -293 l294
-295 -5 -52 c-7 -69 -47 -108 -111 -108 -42 0 -46 3 -259 210 -119 116 -219
207 -222 202 -3 -5 89 -102 205 -218 189 -189 209 -212 209 -242 0 -46 -26
-97 -56 -111 -14 -6 -43 -11 -65 -11 -38 0 -49 8 -181 133 -78 72 -174 162
-214 200 -64 59 -102 84 -92 58 2 -4 99 -98 215 -207 193 -181 213 -202 213
-232 0 -41 -21 -91 -49 -116 -12 -11 -41 -21 -69 -24 -46 -4 -48 -3 -72 34
-32 48 -78 75 -132 77 l-43 2 3 42 c7 85 -58 154 -145 158 l-45 1 -2 47 c-3
79 -62 138 -141 141 l-47 2 -1 55 c-2 68 -31 110 -89 133 -76 31 -109 17 -223
-95 l-99 -99 -34 33 c-41 39 -154 207 -177 262 -63 151 -23 330 103 467 147
159 341 224 527 176z"/>
</g>
</svg>
