<?xml version="1.0" encoding="UTF-8" standalone="no"?>
<svg
   version="1.0"
   width="99.247246"
   height="98.216545"
   viewBox="0.092564866 0.52269985 98.908998 98.427299"
   preserveAspectRatio="xMidYMid"
   id="svg5"
   sodipodi:docname="souls_of_darkness-unhallowed_oath.svg"
   inkscape:version="1.4.2 (ebf0e940, 2025-05-08)"
   xmlns:inkscape="http://www.inkscape.org/namespaces/inkscape"
   xmlns:sodipodi="http://sodipodi.sourceforge.net/DTD/sodipodi-0.dtd"
   xmlns="http://www.w3.org/2000/svg"
   xmlns:svg="http://www.w3.org/2000/svg">
  <defs
     id="defs5" />
  <sodipodi:namedview
     id="namedview5"
     pagecolor="#ffffff"
     bordercolor="#000000"
     borderopacity="0.25"
     inkscape:showpageshadow="2"
     inkscape:pageopacity="0.0"
     inkscape:pagecheckerboard="0"
     inkscape:deskcolor="#d1d1d1"
     inkscape:zoom="0.64"
     inkscape:cx="25.78125"
     inkscape:cy="37.5"
     inkscape:window-width="896"
     inkscape:window-height="245"
     inkscape:window-x="0"
     inkscape:window-y="565"
     inkscape:window-maximized="0"
     inkscape:current-layer="svg5" />
  <metadata
     id="metadata1">
Created by potrace 1.16, written by Peter Selinger 2001-2019
</metadata>
  <g
     transform="matrix(0.1,0,0,-0.1,-0.1416255,100)"
     fill="#000000"
     stroke="none"
     id="g5">
    <path
       d="m 440,969 c -17,-18 -29,-38 -26,-45 6,-17 -4,-74 -13,-74 -3,0 -15,29 -26,65 -10,36 -22,65 -25,65 -3,0 -16,-16 -29,-36 l -25,-36 18,-50 c 10,-27 15,-52 13,-54 -3,-3 -9,9 -15,25 -6,17 -15,31 -21,31 -5,0 -12,13 -16,30 -9,43 -21,45 -45,5 -17,-27 -19,-38 -10,-55 6,-11 8,-20 5,-20 -3,0 2,-16 10,-36 8,-20 15,-39 15,-42 0,-12 -59,74 -60,87 0,8 -6,11 -16,7 -9,-3 -17,-6 -19,-6 -2,0 -9,-16 -15,-36 -11,-31 -10,-39 7,-63 38,-51 34,-67 -7,-24 -27,28 -42,38 -47,30 -10,-16 -4,-48 11,-67 7,-8 16,-23 19,-33 6,-16 3,-16 -24,4 -41,29 -58,14 -35,-33 9,-18 11,-27 4,-20 -21,21 -36,14 -34,-17 1,-21 -3,-31 -16,-34 -25,-7 -23,-20 9,-58 26,-30 26,-31 5,-25 -21,7 -21,6 -11,-18 7,-14 16,-26 21,-26 4,0 8,-7 8,-15 0,-9 7,-18 15,-21 8,-4 12,-10 10,-15 -8,-13 32,-49 55,-49 11,0 20,-7 20,-15 0,-9 9,-15 23,-15 13,0 28,-5 35,-12 7,-7 27,-13 45,-14 17,0 42,-4 55,-8 19,-6 22,-4 22,21 1,15 7,39 14,53 13,22 12,27 -10,53 -29,34 -33,104 -8,143 18,27 84,68 125,78 17,4 32,18 43,40 18,39 20,50 6,41 -7,-4 -10,50 -10,154 0,88 -4,162 -9,165 -5,4 -23,-8 -41,-25 z"
       id="path1" />
    <path
       d="m 572,957 c -7,-19 -12,-86 -12,-156 0,-105 -2,-122 -15,-117 -18,6 -19,-9 -5,-51 9,-23 20,-33 53,-43 61,-18 103,-46 126,-86 27,-46 26,-73 -4,-118 -22,-32 -24,-42 -16,-73 5,-19 7,-41 4,-49 -3,-10 2,-14 18,-13 25,0 141,37 124,39 -5,0 5,7 23,15 18,8 45,24 59,35 22,17 23,20 7,21 -18,0 -17,1 2,10 23,12 48,86 31,96 -6,4 -3,11 7,19 10,7 19,24 21,39 2,23 -1,26 -21,22 -29,-5 -31,4 -4,28 19,18 28,55 12,55 -4,0 -18,-8 -32,-17 l -24,-17 17,24 c 18,27 23,60 8,60 -6,0 -13,-4 -16,-10 -3,-5 -11,-10 -17,-10 -7,0 -7,4 1,13 6,8 8,16 5,20 -3,3 -1,14 5,26 17,31 -3,33 -43,6 -32,-21 -35,-22 -26,-5 5,10 15,22 20,25 14,9 13,65 -1,65 -7,0 -23,-12 -37,-27 -32,-35 -42,-15 -13,26 12,16 21,35 21,43 0,16 -28,58 -38,58 -4,0 -18,-21 -32,-47 -23,-43 -25,-45 -30,-22 -4,13 -2,31 3,40 16,27 -5,74 -34,74 -20,0 -25,-7 -34,-47 -14,-64 -21,-67 -30,-11 -13,91 -60,124 -83,60 z"
       id="path2" />
    <path
       d="m 630,511 c 0,-5 6,-14 13,-20 22,-17 9,-65 -21,-79 -14,-6 -60,-12 -102,-12 -71,0 -78,2 -90,25 -7,13 -17,22 -22,19 -4,-3 -6,10 -4,29 5,35 -3,41 -30,24 -16,-10 -23,-52 -11,-72 7,-13 6,-16 -2,-11 -18,12 -12,-6 11,-31 l 21,-23 -21,-23 c -26,-27 -29,-79 -7,-101 21,-21 19,-37 -10,-68 -15,-16 -21,-29 -15,-33 6,-4 20,5 31,19 11,14 26,26 32,26 6,0 -3,-15 -19,-33 -32,-33 -42,-74 -20,-74 7,0 28,25 47,54 33,52 36,54 69,49 19,-3 47,-6 62,-6 25,0 27,-4 34,-57 4,-32 13,-63 20,-70 19,-20 42,-5 46,29 l 3,30 24,-21 c 49,-42 48,29 0,75 -16,15 -29,32 -29,38 0,5 6,3 13,-6 6,-9 30,-24 52,-33 l 39,-16 -24,25 c -13,14 -32,28 -42,32 -17,5 -18,8 -5,22 8,10 13,25 12,34 -2,10 1,20 5,23 13,8 -7,65 -27,80 -16,12 -16,13 0,30 15,14 47,78 47,92 0,2 -4,1 -10,-2 -5,-3 -10,1 -10,9 0,8 -9,20 -19,26 -24,12 -41,13 -41,1 z M 465,274 c 9,-9 14,-21 12,-28 -6,-18 -52,-19 -67,0 -12,14 -12,18 5,30 24,18 30,18 50,-2 z m 173,7 c 25,-16 9,-46 -26,-49 -28,-3 -32,0 -32,22 0,31 30,45 58,27 z M 533,192 c -5,-12 -7,-12 -15,2 -11,20 1,44 12,25 5,-6 6,-19 3,-27 z m 82,-23 c 11,-17 2,-18 -19,-3 -17,12 -17,14 -4,14 9,0 20,-5 23,-11 z"
       id="path3" />
    <path
       d="M 426,124 C 397,72 394,57 413,42 c 19,-16 46,10 66,66 16,44 17,51 4,56 -26,10 -31,7 -57,-40 z"
       id="path4" />
    <path
       d="m 493,95 c -20,-62 -20,-65 -3,-65 10,0 21,-6 23,-12 4,-10 6,-10 6,0 1,7 6,10 12,6 17,-10 29,16 29,63 0,53 -8,73 -29,73 -12,0 -23,-19 -38,-65 z"
       id="path5" />
  </g>
</svg>
