<?xml version="1.0" encoding="UTF-8" standalone="no"?>
<svg
   version="1.0"
   width="79.21315"
   height="144.31554"
   viewBox="38.17573 4.3231187 79.02999 138.22255"
   preserveAspectRatio="xMidYMid"
   id="svg3"
   sodipodi:docname="souls_of_darkness.svg"
   inkscape:version="1.4.2 (ebf0e940, 2025-05-08)"
   xmlns:inkscape="http://www.inkscape.org/namespaces/inkscape"
   xmlns:sodipodi="http://sodipodi.sourceforge.net/DTD/sodipodi-0.dtd"
   xmlns="http://www.w3.org/2000/svg"
   xmlns:svg="http://www.w3.org/2000/svg">
  <defs
     id="defs3" />
  <sodipodi:namedview
     id="namedview3"
     pagecolor="#ffffff"
     bordercolor="#000000"
     borderopacity="0.25"
     inkscape:showpageshadow="2"
     inkscape:pageopacity="0.0"
     inkscape:pagecheckerboard="0"
     inkscape:deskcolor="#d1d1d1"
     inkscape:zoom="0.330032"
     inkscape:cx="-28.785087"
     inkscape:cy="3.0300092"
     inkscape:window-width="896"
     inkscape:window-height="245"
     inkscape:window-x="0"
     inkscape:window-y="565"
     inkscape:window-maximized="0"
     inkscape:current-layer="svg3" />
  <metadata
     id="metadata1">
Created by potrace 1.16, written by Peter Selinger 2001-2019
</metadata>
  <g
     transform="matrix(0.1,0,0,-0.1,2.1757301,149.78051)"
     fill="#000000"
     stroke="none"
     id="g3">
    <path
       d="m 550,1448 c -127,-12 -172,-24 -168,-46 5,-29 91,-43 298,-49 263,-8 460,15 460,52 0,41 -345,66 -590,43 z"
       id="path1" />
    <path
       d="m 360,1355 c 0,-4 9,-52 21,-108 59,-292 211,-483 384,-481 95,0 157,42 234,156 60,90 132,282 148,394 6,44 5,47 -13,40 -132,-52 -624,-53 -756,-1 -10,4 -18,4 -18,0 z"
       id="path2" />
    <path
       d="m 674,718 c -3,-10 -9,-18 -14,-18 -15,0 -41,-60 -35,-79 3,-10 14,-26 25,-36 25,-23 25,-47 0,-127 C 625,377 577,320 519,302 352,251 313,135 441,70 518,30 599,16 750,17 c 131,0 153,3 229,28 99,32 141,68 141,120 0,45 -31,80 -104,116 -67,34 -120,79 -142,121 -8,15 -21,56 -29,92 l -15,64 30,30 c 36,37 37,49 5,96 -14,20 -25,40 -25,44 0,4 -36,7 -80,7 -68,1 -81,-2 -86,-17 z"
       id="path3" />
  </g>
</svg>
