<?xml version="1.0" standalone="no"?>
<!DOCTYPE svg PUBLIC "-//W3C//DTD SVG 20010904//EN"
 "http://www.w3.org/TR/2001/REC-SVG-20010904/DTD/svg10.dtd">
<svg version="1.0" xmlns="http://www.w3.org/2000/svg" width="160" height="143" viewBox="18.598493363622506 30.112176916078624 160.30971056887685 143.00849064893904" preserveAspectRatio="xMidYMid meet">
<metadata>
Created by potrace 1.16, written by Peter Selinger 2001-2019
</metadata>
<g transform="translate(0.000000,198.000000) scale(0.100000,-0.100000)"
fill="#000000" stroke="none">
<path d="M895 1668 c-55 -20 -129 -76 -168 -127 -49 -64 -72 -124 -92 -242
-21 -120 -68 -241 -112 -290 -34 -37 -34 -39 -12 -39 29 0 100 76 134 144 l26
51 -6 -44 c-7 -56 -24 -87 -74 -136 -38 -36 -46 -39 -105 -43 -124 -8 -220 63
-247 184 -15 69 -2 136 42 208 l31 51 -40 -39 c-113 -108 -115 -294 -4 -410
76 -79 203 -117 274 -80 16 8 51 17 76 19 36 3 53 12 83 41 21 21 42 34 46 30
5 -4 8 -110 8 -234 0 -238 4 -264 49 -302 13 -10 12 -4 -4 31 -26 58 -25 89 6
190 25 77 27 97 25 239 -1 155 13 266 30 239 5 -8 8 -104 7 -214 -2 -213 3
-248 56 -407 14 -42 26 -91 26 -108 0 -35 -23 -95 -48 -125 -9 -11 -2 -7 15 9
19 17 40 51 49 79 17 51 17 78 -5 266 -6 54 -7 123 -1 191 9 100 35 258 43
267 3 2 13 -47 23 -109 20 -121 24 -319 10 -484 -6 -66 -5 -102 4 -130 15 -44
47 -94 61 -94 5 0 0 13 -12 30 -38 51 -36 117 7 250 l37 115 4 225 c4 242 7
267 26 235 8 -13 12 -81 12 -205 1 -173 3 -191 29 -278 30 -101 30 -131 -4
-196 l-19 -39 24 23 c47 45 58 96 49 227 -9 124 -6 275 6 307 6 17 9 16 29
-13 13 -17 46 -45 74 -61 45 -26 62 -30 127 -30 90 0 138 20 205 81 65 60 87
108 93 199 3 56 0 86 -12 115 -23 55 -63 111 -93 131 l-26 16 27 -35 c62 -81
73 -202 28 -288 -41 -79 -97 -114 -182 -114 -51 0 -72 5 -96 22 -46 33 -82 92
-89 148 l-7 50 28 -54 c35 -69 103 -141 133 -141 21 0 20 4 -18 46 -46 53 -94
183 -111 301 -5 40 -20 98 -32 128 -40 99 -135 192 -227 223 -42 15 -175 14
-216 0z m245 -93 c79 -41 79 -162 0 -209 -104 -61 -221 56 -165 164 29 55 105
76 165 45z m-298 -92 c10 -9 18 -27 18 -40 0 -28 -33 -63 -60 -63 -26 0 -60
34 -60 62 0 50 63 76 102 41z m88 -128 c26 -32 -13 -81 -47 -59 -35 22 -23 74
17 74 10 0 23 -7 30 -15z m382 -52 c10 -9 18 -27 18 -40 0 -28 -33 -63 -60
-63 -26 0 -60 34 -60 62 0 50 63 76 102 41z m-152 -8 c26 -32 -13 -81 -47 -59
-35 22 -23 74 17 74 10 0 23 -7 30 -15z m-348 -32 c10 -9 18 -27 18 -40 0 -28
-33 -63 -60 -63 -26 0 -60 34 -60 62 0 50 63 76 102 41z m180 -20 c10 -9 18
-27 18 -40 0 -28 -33 -63 -60 -63 -26 0 -60 34 -60 62 0 50 63 76 102 41z"/>
</g>
</svg>
