<svg xmlns="http://www.w3.org/2000/svg" viewBox="0 0 1057 897" width="1057" height="897"><path d="M952.107,549.83c12.616,-3.177 25.461,-4.341 38.26,-2.104c12.172,2.107 24.793,5.867 35.757,11.729c16.469,8.86 26.359,28.194 34.906,43.812c-31.73,-36.786 -94.61,-22.331 -135.021,-13.694c-49.141,10.517 -85.927,49.541 -130.232,71.291c-43.412,21.252 -99.89,52.178 -149.878,38.708c-18.793,-5.055 -34.283,-8.814 -49.719,-21.121c-13.202,-10.472 -22.061,-22.645 -30.387,-37.234c-15.572,-27.433 -26.134,-60.415 -37.098,-89.997c-6.217,-16.782 -8.503,-33.298 -18.17,-49.182c-9.444,-15.575 -21.527,-30.567 -35.892,-41.89c-19.87,-15.71 -54.286,-26.269 -78.899,-19.02c-27.79,8.146 -57.461,18.168 -75.496,41.351c-9.532,12.174 -15.886,21.125 -19.556,35.847c-1.969,7.785 -3.043,17.23 -4.162,24.793c-3.043,20.184 1.39,36.116 6.086,54.867c-25.33,-12.352 -26.494,-55.941 -22.869,-78.988c3.893,-24.703 27.526,-51.955 45.069,-68.963c27.165,-26.36 60.102,-41.62 98.32,-38.174c54.778,5.012 99.53,39.65 117.476,90.847c14.767,42.202 34.504,81.274 58.177,119.086c7.433,11.904 12.754,29.36 22.869,38.845c15.932,14.905 34.773,10.116 54.553,8.413c79.122,-6.757 147.189,-54.867 214.9,-92.189c18.436,-10.204 39.338,-21.57 60.998,-27.03z" /> <path d="M816.404,537.965c-2.503,8.146 -5.415,16.022 -8.771,23.54c-3.763,8.461 -8.142,18.035 -14.41,24.793c-6.847,7.385 -16.647,8.951 -25.822,12.219c-13.335,4.833 -36.696,17.811 -50.212,5.952c15.395,-10.565 33.427,-22.823 46.766,-36.741c22.241,-23.226 34.951,-67.397 33.34,-99.305c-1.073,-21.48 -3.848,-46.856 -20.272,-61.802c-7.295,-6.623 -13.111,-11.412 -22.017,-16.29c-6.665,-3.623 -12.216,-7.292 -19.556,-10.115c-27.434,-10.562 -63.325,6.264 -78.138,30.52c-10.024,16.425 -16.157,33.158 -8.727,51.958c6.936,17.542 14.544,31.19 31.953,39.516c11.905,5.683 31.684,-0.852 32.177,-16.022c0.58,26.135 -20.943,37.323 -44.574,32.893c-25.688,-4.788 -34.997,-38.174 -39.293,-60.505c-1.831,-9.577 -4.966,-20.765 -3.086,-30.52c2.371,-12.262 12.844,-27.837 20.541,-37.77c7.428,-9.581 17.498,-14.77 28.462,-19.29c11.86,-4.834 23.093,-11.902 35.892,-13.829c17.811,-2.636 36.922,6.448 52.63,14.235c18.213,8.951 34.951,22.243 45.154,40.009c21.347,37.19 20.542,85.302 7.966,126.563z" /> <path d="M29.705,624.749c5.369,-0.849 -12.083,-3.175 -6.445,-14.274c4.25,-8.37 36.918,11.052 43.634,14.722c16.068,8.685 30.299,20.097 46.007,29.358c14.682,8.636 30.835,14.54 46.095,22.152c41.127,20.498 82.657,27.926 127.902,31.551c34.414,2.73 72.098,-5.236 104.855,-14.813c27.164,-7.966 52.401,-18.259 77.6,-31.237c65.74,-33.879 137.21,-48.512 209.619,-59.565c12.619,-1.923 25.417,-0.223 38.084,-1.073c26.224,-1.79 48.731,-11.234 73.93,-16.917c-28.328,28.551 -59.519,26.674 -96.977,30.03c-41.082,3.627 -81.807,12.219 -120.786,25.644c-41.351,14.234 -79.748,35.399 -119.846,52.494c-8.458,3.578 -17.497,8.545 -26.672,9.485c-9.04,0.94 -17.767,0.447 -26.986,2.237c-22.957,4.432 -45.375,11.502 -68.516,15.127c-24.033,3.715 -46.05,3.446 -70.306,3.446c-37.281,0 -80.108,-2.866 -114.255,-19.514c-25.644,-12.487 -49.002,-27.926 -72.857,-43.455c-14.051,-9.174 -36.339,-19.691 -44.081,-35.399z" /> <path d="M940.743,659.374c9.667,-5.818 19.87,-10.201 31.058,-11.904c14.81,-2.238 24.296,5.773 33.247,16.066c7.339,8.413 10.74,16.648 9.219,28.283c-1.702,12.802 -9.398,13.742 -16.424,22.693c5.236,-15.262 6.131,-39.205 -13.47,-45.559c-17.409,-5.638 -36.205,11.143 -48.243,21.034c-16.603,13.516 -35.13,26.222 -53.344,37.503c-25.375,15.615 -57.596,26.895 -86.506,33.295c-34.553,7.654 -68.833,9.535 -104.187,8.28c-30.074,-1.03 -61.49,-2.327 -90.668,-9.219c-24.479,-5.773 -48.198,-14.813 -72.454,-21.481c-24.526,-6.757 -52.004,-20.004 -72.724,-34.638c-13.471,-9.489 -28.955,-15.081 -43.32,-22.959c-11.813,-6.531 -17.946,-16.779 -31.551,-20.673c-12.352,-3.491 -26.494,-3.491 -39.293,-4.162c-35.311,-1.705 -74.692,5.504 -106.466,21.212c-32.355,15.98 -64.036,32.181 -93.8,53.078c-21.122,14.813 -38.307,27.433 -62.518,35.354c-14.813,4.834 -29.402,6.176 -44.976,6.221c-14.321,0.046 -25.061,-6.399 -38.353,-10.157c26.941,4.386 53.256,2.862 78.809,-6.623c12.978,-4.789 24.211,-12.354 37.234,-17.274c14.813,-5.638 28.597,-14.589 41.306,-23.942c26,-19.109 54.507,-34.371 83.328,-48.691c21.792,-10.872 41.304,-24.343 65.873,-27.52c42.918,-5.503 78.764,-3.441 119.758,11.771c37.01,13.694 72.902,33.116 107.316,52.584c23.63,13.426 47.258,21.482 72.364,31.237c54.998,21.301 112.105,26.27 169.925,12.754c25.058,-5.866 48.288,-17.633 72.409,-26.315c12.709,-4.609 25.106,-8.726 36.696,-15.842c20.136,-12.399 38.665,-31.73 59.744,-44.397z" /> <path d="M92.204,560.842c10.562,1.073 21.121,1.433 31.774,2.775c22.059,2.775 50.212,0.179 70.484,-9.485c18.93,-8.951 39.832,-29.316 44.528,-50.257c4.43,-19.738 1.387,-47.351 -12.352,-63.011c-13.202,-15.082 -17.904,-38.484 -36.163,-49.362c18.975,4.878 39.202,9.353 49.764,27.836c14.053,24.569 15.127,58.223 11.729,85.48c-3.534,28.15 -28.059,56.657 -54.867,65.696c-13.157,4.43 -27.343,4.654 -40.994,6.578c-21.436,3.086 -40.411,8.144 -62.116,5.414c-16.2,-2.059 -32.757,-10.605 -49.048,-8.056c-9.175,1.433 -31.729,8.771 -34.28,19.601c4.162,-17.722 20.225,-34.105 38.89,-35.757c10.562,-0.94 21.884,-0.447 32.309,1.209c3.446,0.583 6.892,0.985 10.338,1.342z" /> <path d="M345.623,865.207c5.415,-1.166 34.504,-4.299 41.62,-6.044c30.565,-7.426 61.623,-22.062 88.519,-38.576c16.292,-9.987 29.044,-24.483 43.812,-36.387c15.394,-12.396 34.236,-19.646 52.047,-28.014c9.891,-4.656 21.258,-12.13 32.446,-12.891c17.496,-1.166 31.729,10.922 48.646,10.115c-7.656,2.595 -16.919,0.895 -24.975,2.73c-13.156,3.042 -25.641,8.097 -37.322,14.813c-18.173,10.471 -37.324,21.168 -56.209,29.939c-18.256,8.548 -32.936,21.256 -48.734,33.699c-21.078,16.558 -45.334,25.463 -69.769,35.578c-20.362,8.458 -42.246,17.896 -64.667,18.437c-24.882,0.538 -85.477,-5.998 -90.444,-38.531c12.262,4.432 24.792,12.222 37.994,16.022c15.216,4.341 31.823,2.373 47.035,-0.895z" /> <path d="M509.563,859.161c27.836,-29.671 79.347,-49.224 119.31,-50.614c52.047,-1.79 103.557,3.715 155.381,3.715c44.036,0 84.223,-16.245 126.339,-25.732c14.32,-3.222 25.598,-5.144 37.322,-14.498c11.635,-9.353 15.884,-13.115 16.871,-27.478c16.2,31.237 -14.365,56.343 -41.485,65.204c-17.364,5.683 -34.728,4.117 -52.673,4.92c-25.91,1.164 -51.421,6.268 -76.84,11.099c-45.826,8.771 -93.577,9.261 -139.852,3.758c-36.249,-4.341 -70.574,4.834 -102.706,20.586c-22.059,10.829 -44.081,22.376 -66.321,31.908c5.236,-13.202 23.942,-23.45 24.658,-22.869z" /> <path d="M374.236,829.43c22.823,5.191 53.836,-24.032 37.681,-48.869c-11.681,-17.993 -27.434,-15.529 -45.2,-15.394c-27.879,0.266 -44.173,6.175 -68.831,21.121c-21.436,12.978 -39.918,27.482 -60.281,42.47c-17.944,13.292 -34.906,19.285 -55.671,25.777c-35.041,10.964 -72.23,15.128 -104.407,-5.144c-24.075,-15.126 -36.696,-32.354 -51.823,-55.985c-0.404,-0.4 -0.447,-0.354 -0.045,0.093c8.775,4.741 15.039,10.916 22.245,18.528c12.89,13.652 27.569,21.932 45.559,25.423c29.266,5.643 57.73,3.047 86.461,-3.8c60.012,-14.411 97.917,-75.81 158.422,-84.671c28.597,-4.163 83.195,-5.416 95.949,28.283c14.767,38.98 -30.656,61.983 -60.058,52.182z" /> <path d="M542.657,369.165c7.966,-17.409 30.432,-59.922 8.589,-77.285c23.407,9.485 22.555,32.446 16.917,54.284c-2.282,8.951 -5.82,16.871 -10.562,24.882c-5.82,9.801 -10.647,11.505 -19.377,17.319c-1.164,-6.94 2.104,-16.917 4.43,-19.199z" /> <path d="M545.418,191.768c-1.031,-2.863 -1.3,-6.04 -0.807,-9.084c11.678,-0.317 19.152,30.521 9.261,36.518c-8.593,-8.593 -8.056,-19.02 -8.458,-30.208z" /> <path d="M593.244,369.165c-5.192,-1.297 -4.344,-8.461 -2.641,-12.709c5.504,-0.177 13.154,7.924 15.305,12.667c1.566,3.489 6.045,18.573 5.728,22.107c-0.982,11.143 -7.382,2.238 -10.157,-3.222c-3.268,-6.356 -8.996,-15.529 -9.175,-22.511z" /> <path d="M859.809,439.024c24.121,-26.001 25.423,-62.922 25.956,-95.548c10.069,18.661 15.212,45.871 7.34,67.039c-4.386,11.729 -11.995,22.917 -19.29,33.117c-3.401,4.743 -13.381,18.08 -19.377,16.379c1.745,-6.94 3.758,-17.766 5.368,-20.989z" /> <path d="M292.958,406.356c-8.727,2.151 -17.99,2.237 -25.061,0.269c-8.861,-2.461 -20.407,-5.638 -28.105,-10.871c-2.823,-1.88 -12.891,-20.496 -10.472,-20.001c7.878,1.566 15.17,6.802 23.047,9.084c15.529,4.472 35.715,14.498 51.734,10.157c4.206,-1.119 9.037,-4.072 13.023,-4.52c-4.565,8.102 -14.011,13.381 -24.166,15.884z" /> <path d="M94.215,230.745c-10.922,-8.545 19.731,5.998 21.835,8.011c7.653,7.43 1.254,10.697 -5.728,7.206c-6.665,-3.308 -10.38,-10.74 -16.108,-15.212z" /> <path d="M937.03,372.834c4.788,-5.728 45.692,-33.923 46.766,-18.576c-12.576,5.596 -19.601,16.784 -33.433,20.989c-4.788,1.433 -10.069,2.104 -14.722,4.072c-4.788,2.059 -6.668,6.131 -12.128,6.268c5.596,-5.774 11.859,-14.813 13.516,-12.754z" /> <path d="M834.069,549.337c5.683,-10.695 10.647,-22.421 16.556,-32.624c4.967,-8.637 11.771,-14.142 14.498,-24.079c-0.045,7.164 2.775,15.436 1.164,22.645c-1.611,7.116 -6.94,14.498 -10.605,20.72c-6.892,11.59 -17.185,18.128 -25.375,27.702c1.611,-5.102 2.73,-14.903 3.758,-14.365z" /> <path d="M607.006,509.821c-15.436,-14.634 -31.371,-47.258 -30.478,-68.785c-0.761,-1.031 -0.985,-1.342 -1.745,-2.599c6.758,15.036 14.988,30.163 22.017,45.2c3.715,8.056 20.449,20.541 20.183,27.881c-5.862,0.093 -12.933,-1.255 -9.979,-1.703z" /> <path d="M581.255,253.349c0.224,-5.055 13.786,-7.697 17.008,-3.758c4.565,5.639 -8.373,15.574 -12.397,17.543c-5.329,2.596 -13.432,3.982 -11.729,-4.386c0.854,-4.476 11.818,-9.219 9.891,-10.338z" /> <path d="M869.011,306.646c-4.026,-7.026 -5.951,-10.874 -5.368,-19.154c8.19,-0.757 22.153,6.09 22.824,14.903c0.448,5.595 -6.175,14.903 -12.667,12.397c-1.748,-0.671 -10.472,-14.455 -11.233,-16.424z" /> <path d="M293.899,541.15c-0.805,-2.51 -1.342,-4.878 -1.521,-6.982c-0.63,-8.995 5.503,-20.988 9.261,-28.954c1.968,5.773 1.831,12.126 3.758,18.17c4.207,13.026 14.812,30.431 24.927,39.65c21.346,19.422 39.874,3.893 63.861,1.611c-7.518,17.812 -38.307,29.895 -55.671,23.764c-11.231,-3.939 -23.091,-11.01 -30.297,-20.765c-4.698,-6.31 -11.366,-17.318 -14.32,-26.493z" /> <path d="M454.4,481.31c4.16,0.807 15.263,3.492 14.722,10.115c-0.536,6.131 -10.112,3.803 -14.946,2.73c-4.924,-1.075 -19.468,-7.027 -12.219,-13.829c3.803,-3.531 13.068,2.016 17.05,2.823z" /> <path d="M204.366,347.106c-0.716,-8.368 -7.563,-16.556 -11.053,-24.121c-5.144,-10.964 -7.43,-21.167 -14.142,-31.413c-6.4,-9.801 -18.528,-24.658 -29.894,-27.926c18.885,-3.625 42.246,25.106 48.869,40.187c9.398,21.391 15.082,41.037 15.436,64.13c-4.743,-9.577 -14.142,-23.809 -12.891,-34.638z" /> <path d="M521.57,701.006c37.681,-4.654 75.678,-5.997 113.583,-5.057c15.931,0.447 23.855,2.775 37.279,9.846c12.667,6.716 27.072,5.505 40.635,9.037c20.496,5.281 40.056,10.157 59.61,18.17c15.484,6.354 26.176,16.29 40.77,23.631c14.41,7.249 24.613,20.989 37.413,30.789c11.143,8.589 22.511,20.765 31.998,31.237c7.295,8.102 15.976,15.66 22.959,23.987c7.34,8.727 12.978,17.185 23.631,22.693c15.931,8.28 37.77,7.563 52.27,16.784c-8.637,6.758 -30.968,1.073 -39.919,-2.73c-17.722,-7.473 -35.085,-18.352 -50.704,-29.447c-18.259,-12.933 -39.516,-25.91 -53.256,-43.991c-12.844,-16.871 -28.776,-28.91 -48.065,-38.755c-36.115,-18.437 -72.678,-30.744 -112.373,-38.129c-34.952,-6.492 -67.711,-14.235 -103.467,-14.235c-35.085,0 -71.872,4.072 -105.436,14.456c-31.15,9.667 -63.28,15.305 -94.069,26.176c-56.925,20.094 -108.48,40.366 -170.058,38.442c-28.552,-0.895 -56.79,-8.458 -83.646,-17.498c-18.618,-6.268 -42.825,-17.232 -51.554,-36.473c17.588,16.962 42.515,24.345 66.188,27.388c11.681,1.521 24.435,2.73 36.163,1.433c12.754,-1.387 23.183,0.807 36.07,2.059c29.671,2.862 58.805,2.461 87.804,-6.131c24.166,-7.116 46.409,-20.272 70.441,-28.283c11.367,-3.8 22.869,-6.623 34.549,-9.398c40.056,-9.485 80.151,-20.897 121.188,-26.001z" /> <path d="M967.122,727.5c-31.1,-11.098 -54.508,-32.939 -84.85,-45.469c-26.717,-11.057 -58.847,-16.338 -87.491,-13.563c-51.42,4.971 -98.325,25.154 -142.536,47.575c10.919,-10.692 24.256,-20.007 36.563,-29.268c34.325,-25.867 76.66,-41.844 122.129,-44.081c32.309,-1.568 68.561,12.842 97.023,26.358c18.128,8.596 33.164,21.167 51.692,28.821c11.814,4.924 21.974,12.083 33.564,17.857c16.468,8.23 32.087,11.053 50.167,11.053c-22.469,1.835 -47.351,9.491 -69.951,2.775c-2.148,-0.626 -4.251,-1.343 -6.31,-2.059z" /> <path d="M847.17,858.048c14.764,-3.356 29.806,-4.967 44.528,-8.413c14.097,-3.313 26.358,-8.816 39.874,-13.918c18.212,-6.932 33.609,-14.003 53.479,-14.32c11.726,-0.133 34.858,-1.342 42.246,10.248c-14.767,5.191 -33.519,-2.727 -49.764,1.521c-17.588,4.651 -30.61,16.287 -47.527,22.331c-24.035,8.637 -48.332,13.292 -73.483,18.035c-38.353,7.246 -79.258,12.975 -118.148,14.988c-37.991,1.926 -77.062,8.102 -114.789,1.255c-14.411,-2.64 -27.972,-8.323 -42.068,-12.038c-13.158,-3.487 -27.343,-5.639 -39.964,-11.099c-10.159,-4.431 -21.35,-12.259 -29.939,-19.199c-9.13,-7.341 -19.199,-11.188 -28.507,-18.394c-15.933,-12.262 -32.715,-24.074 -48.065,-37.189c-15.753,-13.471 -30.253,-28.686 -44.663,-43.991c17.633,1.425 30.428,15.973 43.767,26.176c30.474,23.271 64.399,42.739 99.529,57.775c54.508,23.361 109.061,30.205 167.776,31.908c48.154,1.433 98.232,5.146 145.714,-5.683z" /> <path d="M165.942,833.473c-27.748,-12.485 -55.133,-41.442 -63.637,-70.843c-6.492,-22.376 -8.951,-58.805 4.834,-78.585c13.339,-19.199 31.551,-37.234 52.182,-48.289c27.612,-14.858 67.669,-23.092 98.992,-20.001c-58.446,12.891 -116.986,32.803 -128.664,99.036c-8.503,48.065 34.235,90.802 77.467,101.856c11.681,2.954 21.345,2.375 30.52,9.219c8.28,6.176 16.469,11.412 25.33,16.693c9.622,5.728 19.556,10.964 29.447,15.931c11.904,5.952 23.45,12.667 37.01,13.516c8.102,0.541 16.424,-0.317 24.527,0.179c-20.631,13.292 -52.673,3.894 -74.199,-1.342c-15.931,-3.894 -31.46,-9.485 -47.035,-14.544c-10.293,-3.356 -19.514,-8.906 -30.073,-12.038c-12.219,-3.67 -24.975,-5.505 -36.696,-10.786z" /> <path d="M778.916,758.017c-24.166,7.295 -51.197,-0.447 -76.126,0.895c-25.284,1.297 -51.868,4.024 -76.481,10.338c-31.637,8.102 -65.025,20.72 -94.471,34.683c-11.729,5.55 -27.478,13.247 -37.098,19.377c10.248,-4.341 20.897,-12.262 29.134,-19.738c12.53,-11.323 24.569,-20.586 38.036,-30.968c9.485,-7.295 21.303,-18.706 33.433,-21.303c10.517,-2.282 26.176,-0.85 37.413,-0.626c6.534,0.093 13.115,0.895 19.78,0.895h9.622z" /> <path d="M882.789,893.173c-4.472,4.162 -26.986,0 -34.057,0c-11.995,0 -24.345,1.342 -35.847,-2.551c-11.904,-3.982 -20.943,-12.709 -32.309,-17.857c-13.918,-6.354 -28.328,-11.771 -42.562,-17.274c-28.328,-10.919 -53.526,-25.106 -84.178,-29.316c-11.729,-1.611 -36.563,-5.952 -46.049,-1.031c6.94,-0.985 12.443,-5.55 18.528,-8.727c7.295,-3.894 15.212,-5.144 23.407,-6.94c14.187,-3.086 29.894,-2.685 44.35,-3.67c17.364,-1.209 31.998,6.578 47.841,12.262c32.085,11.457 63.727,23.316 94.2,39.202c18.394,9.622 35.715,14.235 55.851,18.214c18.93,3.758 35.175,-3.58 53.078,-3.491c-19.29,7.563 -56.523,32.533 -78.809,21.167z" /> <path d="M411.408,611.857c-4.788,3.67 -9.398,2.862 -13.963,-1.031c3.982,0.179 9.891,-6.354 12.262,-9.084c2.151,-2.461 8.413,-10.517 7.921,-13.918c1.387,9.846 2.327,17.543 -6.221,24.032z" /> <path d="M361.16,820.451c0.847,1.789 1.299,3.487 0.94,5.414c-15.798,3.67 -26.717,-26.896 -12.307,-32.177c-4.43,10.248 4.386,25.016 13.605,30.118z" /> <path d="M986.67,626.583c6.086,-9.801 8.637,-15.394 9.353,-27.296c4.248,6.044 8.28,16.826 3.894,24.121c-2.999,5.012 -15.529,10.024 -17.857,5.012z" /> <path d="M934.29,747.905c-6.485,3.76 -10.293,-3.848 -9.084,-9.979c9.399,-1.701 15.662,6.709 8.144,13.649z" /> <path d="M759.601,704.047c4.924,-1.207 8.636,3.358 5.774,7.34c-5.819,8.054 -15.082,-5.103 -5.774,-7.34z" /> <path d="M551.16,657.955c6.802,-3.715 12.305,3.58 8.547,9.532c-5.724,9.044 -17.094,-4.878 -8.547,-9.532z" /> <path d="M601.475,582.407c3.623,-7.873 14.629,-2.145 9.933,6.492c-4.789,8.724 -12.843,2.552 -8.995,-5.55z" /> <path d="M270.558,622.913c8.006,1.744 8.006,10.695 -1.703,8.144c-1.12,-3.848 -0.136,-7.159 3.534,-8.144z" /> <path d="M128.061,642.201c4.52,-16.108 -2.237,-25.375 -9.979,-38.26c8.727,5.596 17.319,7.878 20.049,18.483c2.685,10.562 -0.402,18.214 -10.069,19.78z" /> <path d="M727.443,73.178c3.939,-4.743 22.329,-1.744 13.068,7.34c-9.443,9.308 -19.02,-4.61 -7.563,-8.28z" /> <path d="M634.561,136.593c7.921,-7.253 9.397,12.578 -1.656,9.979c-0.802,-3.448 0.182,-5.951 2.599,-7.206z" /> <path d="M754.094,1.439c6.489,-5.372 7.474,5.058 1.969,7.295c-0.135,-1.924 -0.494,-4.427 -0.135,-6.354z" /> <path d="M743.98,337.928c-7.473,-1.164 -17.766,-20.363 -20.225,-27.612c-3.268,-9.485 -5.774,-22.107 -2.73,-31.861c-1.656,13.563 8.413,29.716 14.456,41.128c4.654,8.813 8.637,21.212 16.693,27.254c-2.73,-4.472 -6.086,-8.951 -8.189,-8.906z" /> <path d="M833.132,227.61c6.531,1.39 9.265,4.523 8.682,11.505c-2.416,-0.985 -4.386,-2.682 -5.907,-5.057z" /> <path d="M43.468,197.272c7.565,-1.12 5.639,10.338 -0.761,9.979c-0.896,-3.266 -0.401,-6.399 1.703,-8.144z" /> <path d="M336.724,361.784c13.966,-9.577 14.499,15.619 0.179,13.739c-0.669,-4.519 -0.623,-9.489 2.599,-12.799z" /> <path d="M250.345,735.067c4.879,-2.016 13.247,-0.938 15.484,3.534c-9.308,1.789 -19.514,8.189 -29.223,4.788c2.727,-5.464 15.172,-8.419 21.079,-8.326z" /> <path d="M765.135,777.353c5.369,-3.356 12.128,-0.269 17.364,2.73c-0.402,0.809 -0.668,1.659 -0.985,2.599c-8.769,-0.224 -20.314,5.77 -27.52,-1.703c4.163,-6.131 11.991,-4.565 18.483,-4.565z" /> <path d="M472.424,797.223c9.039,-0.448 14.906,8.279 18.93,15.842c-1.073,0.716 -2.104,1.654 -3.177,2.685c-10.429,-6.493 -28.866,-6.983 -31.998,-21.705c9.667,-4.967 17.944,2.596 25.822,7.206z" /></svg>