<svg xmlns="http://www.w3.org/2000/svg" viewBox="0 0 711 960" width="711" height="960"><path d="M152.969,651.935c1.912,11.341 3.196,22.772 5.336,34.073c1.953,10.432 5.417,18.866 10.606,27.105c-0.869,2.876 -1.712,5.697 -2.782,8.479c0,6.378 -25.599,19.22 -25.599,25.6c-4.054,32.346 -5.565,59.589 -17.401,83.32c-1.912,-2.141 -4.066,-4.147 -5.47,-6.38c-2.314,-3.691 -1.646,-8.787 -2.047,-13.16c-0.869,-11.8 -1.39,-23.645 -2.327,-35.441c-1.27,-16.447 -4.695,-33.163 -4.6,-49.564c0.134,-12.752 1.069,-25.733 0.401,-38.399c-0.589,-11.116 -2.368,-21.364 -9.068,-30.752c-5.784,-8.063 -14.303,-14.205 -20.91,-21.548c-3.959,-4.415 -9.682,-10.661 -11.02,-16.853c-1.74,-8.336 -4.026,-20.273 -0.937,-28.337c1.833,-4.789 5.377,-3.41 9.844,-3.451c7.974,-0.094 14.623,0.094 22.594,2.1c6.652,1.685 15.172,2.955 20.227,7.877c1.779,1.725 3.049,3.731 4.467,5.603c1.926,2.514 3.785,4.052 6.246,6.152c5.2,4.418 11.299,10.437 14.669,16.401c4.373,7.747 6.326,18.542 7.784,27.195z" /> <path d="M623.525,587.993c1.23,15.352 1.07,19.591 -0.134,22.641c-1.458,2.006 -2.861,4.105 -4.199,6.152c-2.782,4.556 -5.337,9.209 -7.61,13.984c-8.88,21.275 -6.018,44.921 -7.516,67.38c-2.166,31.473 -1.244,62.863 0.803,94.295c0.522,9.201 1.057,18.451 1.592,27.653c0.802,3.236 0.936,6.42 0.401,9.616c-1.55,5.374 -5.429,10.296 -7.569,15.579c-3.558,8.885 -3.37,17.312 -9.161,25.831c-10.932,11.296 -22.779,21.596 -35.484,30.838c-15.49,13.301 -32.027,25.053 -49.611,35.258c-8.974,2.916 -18.127,3.732 -27.195,6.741c-40.632,13.441 -85.048,8.105 -127.095,7.971c-17.448,-0.081 -34.575,1.457 -51.885,3.878c-10.206,2.006 -20.499,3.343 -30.89,4.146c-2.728,-0.355 -5.417,-0.355 -8.105,0.046c0.681,-3.959 -1.552,-7.022 -6.741,-9.295c-6.836,-8.105 -14.389,-15.441 -22.641,-22.048c-5.734,-4.882 -10.709,-7.744 -17.222,-10.98c-4.186,-2.741 -8.386,-5.47 -12.572,-8.158c-13.804,-8.931 -25.512,-19.954 -35.262,-33.074c-1.458,-4.146 -1.552,-8.345 -3.183,-12.304c-1.364,-3.41 -3.652,-6.059 -6.286,-8.332c5.282,-0.401 10.752,-0.401 16.583,0.267c0,-19.226 25.651,-32.072 12.799,-51.294c-3.37,-3.37 -7.65,-6.299 -12.117,-9.161c12.121,-4.006 27.149,-5.838 37.768,-16.444c-9.521,-4.783 -19.041,-9.571 -28.563,-14.305c8.615,-1.097 16.398,-2.876 21.226,-6.019c0.039,0 0.087,0.047 0.134,0.047c3.691,2.327 6.834,6.232 11.622,5.697c0.696,-6.058 -1.404,-11.795 2.969,-16.811c3.745,-4.24 6.474,-2.381 11.074,0.401c9.563,5.877 8.653,14.94 11.569,24.462c1.418,4.6 2.46,7.101 6.473,9.522c3.505,2.194 7.932,2.364 11.93,2.461c3.05,0.094 6.286,0.683 7.65,-2.273c0.984,-2.1 0.047,-6.433 0.047,-8.8c0,-3.01 0,-6.018 0,-9.068c0,-3.878 -0.267,-7.877 0,-11.755c4.052,-2.073 15.166,-0.615 19.085,1.338c4.293,2.089 7.663,9.378 9.121,13.711c1.565,4.51 2.186,10.529 2.233,15.263c0.039,4.695 1.497,9.243 1.631,13.937c0.135,2.367 -0.789,4.735 0.803,6.513c1.912,2.194 8.881,2.327 11.609,2.461c4.743,0.172 9.518,-0.095 14.306,-0.095c5.513,0 15.035,2.461 17.857,-3.009c1.698,-3.183 1.565,-7.877 2.233,-11.435c1.592,-8.2 -2.647,-24.833 8.747,-26.558c4.467,-0.615 8.92,0.402 13.347,1.07c2.782,0.455 7.838,0.28 10.111,2.233c2.259,1.913 3.153,6.968 3.196,9.616c0.147,4.427 -1.096,7.878 -1.631,12.117c-0.321,2.595 0.588,10.205 2.688,11.983c1.912,1.646 5.737,0 8.198,-0.267c3.089,-0.321 7.877,0.548 9.883,-2.421c2.54,-3.872 0.668,-12.577 0.668,-17.085c-0.041,-7.194 0.187,-14.068 2.875,-20.862c2.822,-7.062 11.111,-5.607 17.584,-5.564c7.469,0.054 15.449,-0.963 22.685,1.458c3.731,1.23 8.158,3.732 8.693,7.61c1.109,10.431 -1.927,21.723 -0.095,32.021c3.424,0.454 10.58,-2.915 12.211,-5.51c0.924,-1.377 1.325,-4.2 1.592,-5.885c0.181,-1.992 -0.22,-4.052 0.047,-6.005c0.601,-3.557 1.499,-6.018 1.404,-9.883c-0.094,-3.557 0.829,-6.379 1.364,-9.883c0.308,-2.501 -0.268,-5.283 0.267,-7.744c0.963,-4.239 5.872,-6.7 9.75,-6.834c4.368,-0.228 11.564,0.133 15.442,2.233c2.621,1.364 3.156,6.286 3.691,9.202c0.548,3.918 -1.725,10.618 2.875,13.213c5.108,2.875 8.385,-2.127 10.98,-5.417c3.878,-4.823 6.42,-9.557 9.295,-14.573c6.832,-11.849 16.72,-21.506 21,-35.032c3.744,-11.889 6.365,-24.009 7.569,-36.353c0.722,-6.925 2.822,-13.893 3.089,-20.821c0.186,-7.011 0.895,-14.443 2.233,-21.411c1.364,-7.558 2.755,-15.117 3.959,-22.727c1.003,-6.066 2.955,-12.98 6.058,-18.316c2.18,-3.732 3.638,-7.997 7.877,-9.335c3.223,-0.935 8.332,-1.337 11.609,-0.267c4.573,1.511 3.904,4.748 5.108,8.479c0.536,1.551 1.107,2.153 1.204,4.146c0.095,1.778 0.043,3.611 0,5.336c-0.053,3.638 1.057,7.008 1.725,10.566c2.086,0.361 7.328,-4.587 8.92,-5.791c2.742,-2.047 4.6,-3.691 6.794,-6.286c2.875,-3.371 6.875,-5.471 9.75,-8.841c1.458,-1.739 2.367,-4.347 4.788,-4.882z" /> <path d="M294.281,370.301c2.38,-8.928 0.695,-17.359 -0.803,-26.333c-1.324,-7.743 -1.591,-15.169 -3.785,-22.458c-2.458,-8.019 -13.395,-12.847 -20.363,-16.806c-3.731,-2.14 -6.914,-4.828 -10.472,-7.195c-4.094,-2.728 -8.694,-3.784 -13.027,-5.831c-2.916,-1.35 -5.658,-3.931 -8.747,-4.868c-4.653,-1.451 -11.394,-0.756 -16.222,0.047c-12.753,2.141 -26.145,1.204 -39.131,1.204c-4.559,0 -9.881,-0.802 -14.348,-0.134c-4.103,0.642 -10.255,3.009 -13.986,4.962c-6.652,3.464 -12.937,7.061 -19.905,10.017c-10.026,4.236 -17.127,10.892 -25.285,17.994c-5.831,5.057 -11.716,13.979 -12.384,21.91c-0.358,4.374 0.043,9.069 0.043,13.442c0,4.782 -0.177,9.61 -0.043,14.438c0.133,4.427 1.364,8.572 1.631,12.986c0.224,4.146 -0.177,8.332 -0.043,12.478c0.134,3.503 1.418,6.472 1.552,9.883c0.361,9.748 3.183,21.776 9.335,29.653c10.842,13.949 27.058,20.77 43.869,24.1c7.152,1.43 14.719,0.267 21.821,-0.803c4.107,-0.534 8.386,-0.17 12.532,-0.267c7.61,-0.174 15.122,-1.418 22.732,-1.685c-3.918,-2.381 -8.205,-3.853 5.417,-2.916c5.778,-0.815 9.241,-4.413 13.347,-8.051c4.323,-3.824 9.566,-6.994 15.169,-8.332c5.465,-1.23 13.623,-0.602 17.542,-4.788c2.407,-2.608 3.865,-6.566 5.697,-9.616c2.594,-4.423 5.108,-8.931 7.422,-13.531c0.402,-0.909 0.535,-2.019 1.07,-2.822c0.629,-1.191 2.567,-2.916 3.37,-4.28c1.952,-3.196 3.785,-6.379 6.058,-9.482c4.867,-6.742 7.689,-14.891 9.883,-22.822zM313.635,189.445c3.784,7.516 11.941,8.426 19.363,11.796c-29.797,47.694 -26.051,88.51 -25.784,142.857c-0.637,108.284 -121.995,140.263 -205.086,172.243c24.554,11.158 42.908,30.926 55.306,54.889c-5.474,-0.039 -10.984,-0.44 -16.401,0.095c-0.348,-0.937 -1.017,-0.803 -1.552,-1.338c-1.739,2.408 -9.977,1.338 -11.622,1.338c-3.971,0 -7.836,0.134 -11.755,-0.401c-4.332,-0.387 -13.987,-3.678 -17.037,1.338c-1.591,-4.012 -6.152,-1.832 -9.522,-2.367c-5.868,-0.923 -11.526,-2.85 -17.584,-3.518c-12.437,-1.407 -33.124,-1.635 -40.68,-13.39c-4.132,-6.427 -3.865,-15.169 -3.464,-22.458c0.642,-12.8 4.788,-26.382 9.522,-38.405c3.143,-7.879 7.878,-14.706 9.75,-23.185c1.552,-7.106 1.404,-20.088 -2.1,-27.016c-1.872,-3.731 -5.243,-7.516 -8.747,-9.883c-12.027,-8.248 -23.471,-19.679 -27.563,-33.801c-1.042,-3.691 -1.685,-7.289 -3.089,-10.886c-2.194,-5.6 -4.615,-11.111 -4.882,-17.263c-0.087,-3.424 0,-7.021 0.047,-10.485c0.054,-4.6 0.802,-8.839 1.739,-13.347c1.551,-6.97 2.14,-14.58 4.373,-21.321c2.969,-9.017 3.638,-19.537 3.504,-29.153c-0.135,-8.7 2.326,-17.132 4.373,-25.785c2.006,-8.426 2.728,-16.985 5.51,-25.237c2.22,-6.558 4.64,-13.071 6.553,-19.678c2.594,-8.789 7.155,-15.265 11.301,-23.142c3.102,-5.969 4.613,-11.84 6.566,-18.126c2.233,-7.015 6.793,-13.354 9.388,-20.322c2.421,-6.467 2.648,-10.518 7.021,-15.895c3.237,-4.012 5.925,-8.292 9.563,-11.983c3.932,-3.972 8.574,-7.062 12.171,-11.208c8.794,-10.204 22.506,-16.22 29.795,-27.695c2.647,-4.092 4.521,-8.197 8.519,-11.247c6.059,-4.653 13.751,-7.155 20.184,-11.394c6.783,-4.467 13.527,-9.014 20.816,-12.572c8.015,-3.917 14.897,-9.883 22.868,-14.122c7.242,-3.825 14.536,-7.57 21.731,-11.435c11.979,-6.566 24.099,-12.438 37.352,-16.035c7.288,-2.006 14.799,-5.122 22.368,-5.925c4.508,-0.441 8.199,-0.147 12.666,-1.645c3.317,-1.204 6.193,-1.337 9.697,-1.872c7.427,-1.004 14.532,-3.692 21.821,-5.377c8.7,-1.992 16.806,-2.795 25.647,-3.33c4.454,-0.281 8.559,-1.551 13.067,-1.685c2.687,-0.09 5.376,-0.09 8.064,-0.047c0.639,61.179 9.98,124.138 -43.778,151.011c19.222,6.38 44.873,12.805 32.074,32.027l-0.047,0.047c-10.706,0.147 -21.368,1.057 -32.027,6.38z" /> <path d="M615.323,341.481c1.083,-4.467 -3.103,-9.75 -5.564,-12.986c-4.468,-5.779 -8.106,-10.072 -14.579,-13.71c-11.296,-6.34 -24.364,-7.798 -36.307,-12.666c-7.242,-2.955 -13.9,-6.967 -21.363,-9.883c-2.862,-1.137 -5.778,-2.072 -8.747,-3.009c-1.912,-0.535 -0.909,-0.803 -3.731,-1.07c-3.37,-0.401 -6.741,-0.803 -10.111,-1.204c-6.883,-0.776 -12.847,-2.514 -18.585,-6.834c-1.364,-1.043 -2.956,-3.517 -4.467,-4.052c-3.276,-1.338 -8.746,-0.134 -12.25,-0.134c-12.3,0 -23.457,0.816 -33.621,8.787c-8.102,6.333 -12.837,19.367 -17.812,27.926c-2.406,4.052 -4.239,8.799 -6.058,13.213c-2.367,5.738 -5.283,10.753 -8.292,16.263c-2.997,5.515 -5.832,10.343 -7.236,16.401c-1.966,7.973 -1.23,15.078 0.134,23.183c1.23,7.111 2.06,14.497 4.333,21.411c1.685,5.237 4.962,12.486 9.335,15.99c1.685,1.364 4.641,2.072 6.647,3.009c5.918,2.689 11.522,5.925 17.353,8.841c6.6,3.29 13.126,7.436 19.452,11.301c18.267,11.302 41.042,8.8 61.452,8.841c15.805,0 32.116,1.993 47.785,0.401c5.016,-0.535 9.71,-2.086 11.663,8.707c0.267,-2.822 2.433,-6.286 3.37,-9.068c1.325,-3.825 2.3,-7.328 3.103,-11.341c2.006,-10.795 2.969,-21.873 5.697,-32.573c1.779,-6.785 3.009,-13.485 4.561,-20.132c1.325,-5.97 5.925,-10.838 7.289,-16.763c0.548,-2.273 1.431,-3.917 1.966,-5.964c0.669,-2.875 -0.535,-6.326 -0.134,-9.295c0.588,-4.559 3.624,-9.2 4.694,-13.573zM410.45,559.122c-0.133,-0.721 -0.267,-1.47 -0.267,-2.273c0,-2.234 -0.134,-4.334 -0.535,-6.607c-0.575,-3.917 -1.11,-7.836 -1.913,-11.755c-1.284,-6.968 -1.979,-14.074 -2.782,-21.095c-1.044,-8.468 -2.595,-16.987 -4.28,-25.373c-1.083,-5.46 -2.728,-10.929 -4.092,-16.306c-1.324,-5.105 -2.501,-10.2 -4.146,-15.216c-1.057,-3.236 -2.047,-6.379 -3.558,-9.388c-0.536,-1.364 -0.536,-2.273 -0.937,-3.691c-0.683,-2.274 -2.113,-4.052 -3.05,-6.152c-0.856,-1.952 -1.124,-4.145 -2.194,-6.058c-0.589,-1.084 -1.565,-1.98 -2.1,-3.05c-1.405,-2.541 -2.474,-5.738 -3.411,-8.466c-0.735,-2.047 -1.938,-3.464 -2.875,-5.283c-1.778,-3.236 -3.744,-5.75 -6.566,-8.064c-2.969,-2.367 -6.112,-4.561 -8.613,-7.383c-1.725,-1.913 -2.794,-4.468 -3.597,-7.102c-0.776,2.635 -1.873,5.189 -3.558,7.102c-2.099,2.327 -4.6,4.239 -7.061,6.152c-2.233,1.765 -4.279,3.906 -6.7,5.417c-1.686,0.989 -3.357,1.631 -4.561,3.183c-1.819,2.18 -3.076,4.961 -4.28,7.516c-1.832,3.771 -2.982,8.278 -3.785,12.384c-1.19,5.966 -3.504,11.796 -4.962,17.721c-2.006,8.063 -3.143,16.402 -5.51,24.373c-2.286,7.654 -4.266,15.578 -5.336,23.549c-0.87,6.02 -2.916,11.664 -4.561,17.495c-1.044,3.557 -1.846,7.195 -3.05,10.659c-1.498,4.323 -3.343,8.976 -4.146,13.484c-1.378,7.2 -2.314,13.705 -1.913,21.048c0,1.458 -0.133,2.956 -0.267,4.414c-0.268,1.993 -1.071,4.694 -0.134,6.647c1.27,2.54 4.774,2.54 7.195,2.273c4.012,-0.401 7.984,-1.472 11.943,-1.739c2.688,-0.268 4.909,-0.803 7.65,-0.803c1.471,0 3.236,0.313 4.654,0.046c1.136,-0.268 1.979,-0.669 3.183,-0.803c1.044,-0.135 1.98,-0.706 3.05,-0.803c1.003,-0.091 1.98,0.14 3.05,0.043c1.872,-0.12 3.932,-0.79 5.657,-1.458c2.274,-0.869 4.079,-2.045 5.283,-4.239c1.524,-2.955 2.06,-6.647 2.728,-9.83c0.989,-4.602 2.822,-9.604 3.089,-14.258c0.133,-1.417 0.172,-2.875 0.267,-4.333c0.254,-3.196 2.126,-6.38 1.458,-9.616c0.267,1.003 0.534,2.113 0.668,3.05c0.133,-1.003 0.401,-1.98 0.668,-3.05c-0.561,2.407 0.402,4.734 0.937,7.061c0.67,2.595 0.402,5.283 0.937,7.931c0.803,4.373 1.204,8.425 0.937,12.852c-0.133,2.916 -0.669,6.34 0.535,9.068c1.591,3.571 5.229,3.438 8.425,4.508c5.059,1.59 10.837,2.367 16.173,3.998c3.223,1.03 6.512,1.699 9.789,2.1c1.458,0.135 2.421,0.757 3.919,0.803c3.197,0.268 6.192,0 9.295,-0.535c1.417,-0.214 4.427,0.401 4.694,-1.552c0.134,-0.588 -0.708,-1.512 -0.803,-2.18c-0.803,-3.637 -0.046,-8.198 0,-11.889c0,-1.592 -0.268,-3.01 -0.535,-4.508zM710.208,359.734c0.047,3.411 0.181,7.021 0.047,10.432c-0.228,6.149 -2.649,11.699 -4.882,17.263c-1.418,3.597 -2.033,7.195 -3.103,10.886c-4.101,14.123 -15.536,25.603 -27.559,33.801c-3.504,2.42 -6.875,6.192 -8.747,9.883c-3.504,6.927 -3.652,19.914 -2.1,27.016c1.819,8.474 6.607,15.355 9.75,23.232c4.734,11.979 8.854,25.599 9.522,38.357c0.361,7.291 0.722,16.028 -3.464,22.501c-7.563,11.716 -28.24,11.983 -40.678,13.347c-6.056,0.696 -11.712,2.715 -17.584,3.518c-3.37,0.508 -7.93,-1.631 -9.522,2.421c-3.052,-5.123 -12.703,-1.873 -17.036,-1.338c-3.905,0.444 -7.783,0.401 -11.702,0.401c-1.686,0 -9.938,1.029 -11.663,-1.338c-0.482,0.427 -1.151,0.427 -1.552,1.364c-6.52,-0.632 -13.167,0 -19.68,-0.097c-5.925,-0.094 -12.211,1.177 -15.447,6.647c-2.273,3.825 -2.634,8.975 -4.186,13.027c-1.685,4.32 -4.735,7.97 -6.246,12.384c-2.595,7.563 -4.333,15.668 -5.831,23.506c-1.164,6.379 -1.297,12.758 -1.832,19.178c-0.307,3.103 -1.591,5.416 -1.725,8.559c-0.133,1.819 0.803,4.641 -0.267,6.286c-2.555,3.904 -9.429,1.323 -12.572,3.236c-2.756,1.645 -1.371,8.84 -1.418,11.983c-0.094,8.604 1.552,17.586 3.183,26.052c0.976,4.973 2.849,11.032 1.511,16.127c-1.499,5.643 -9.39,7.395 -14.579,8.198c-4.788,0.723 -8.293,1.859 -12.893,3.411c-5.939,2.007 -5.804,-0.588 -6.607,-5.456c-1.591,-9.61 -2.059,-19.545 -4.6,-28.973c-1.191,-4.333 -2.876,-6.566 -7.249,-8.613c-2.514,-1.203 -6.152,-2.675 -8.519,-0.535c-2.662,2.326 -1.07,9.708 -1.07,12.758c-0.04,6.145 0.923,11.936 1.458,17.994c0.401,4.782 0.134,9.663 0.134,14.438c0,2.42 0.802,5.336 0.401,7.703c-5.651,2.488 -11.255,2.89 -17.447,3.558l-15.579,1.552c-2.876,0.269 -5.698,0.67 -8.573,0.937c-7.718,-0.91 -6.283,-11.393 -6.38,-17.037c-0.227,-13.115 -2.406,-26.972 -7.422,-39.222c-1.163,2.274 -1.43,4.735 -2.367,7.102c-1.003,2.541 -3.612,5.243 -4.28,7.784c-1.726,6.241 -0.134,14.352 -0.134,20.772c0,6.515 1.15,13.893 -0.535,20.273c-1.684,6.42 -11.293,5.752 -17.084,6.019c-6.515,0.321 -11.838,1.285 -15.623,-4.734c-0.402,-0.682 -0.669,-1.512 -1.07,-2.18c-0.402,0.722 -0.535,1.512 -1.07,2.18c-3.79,6.072 -9.113,5.001 -15.626,4.734c-5.783,-0.281 -15.399,0.401 -17.084,-6.019c-1.605,-6.377 -0.535,-13.76 -0.535,-20.273c0,-6.421 1.644,-14.526 -0.134,-20.772c-0.683,-2.541 -3.343,-5.229 -4.28,-7.784c-0.909,-2.368 -1.297,-4.829 -2.367,-7.102c-5.014,12.253 -7.155,26.102 -7.422,39.222c-0.094,5.643 1.323,16.1 -6.38,17.037c-2.875,-0.269 -5.738,-0.67 -8.613,-0.937c-5.142,-0.482 -10.344,-1.017 -15.533,-1.552c-6.194,-0.736 -11.798,-1.137 -17.495,-3.558c-0.267,-2.367 0.354,-5.282 0.401,-7.703c0,-4.782 -0.267,-9.663 0.134,-14.438c0.521,-6.051 1.505,-11.842 1.458,-17.994c0,-3.048 1.485,-10.431 -1.07,-12.758c-2.421,-2.153 -6.018,-0.669 -8.519,0.535c-4.387,2.06 -6.045,4.28 -7.249,8.613c-2.553,9.431 -3.048,19.357 -4.6,28.973c-0.776,4.921 -0.735,7.462 -6.607,5.456c-4.601,-1.539 -8.105,-2.743 -12.893,-3.411c-5.23,-0.776 -13.068,-2.541 -14.579,-8.198c-1.311,-5.107 0.574,-11.165 1.511,-16.127c1.645,-8.468 3.277,-17.452 3.143,-26.052c0,-3.142 1.364,-10.338 -1.364,-11.983c-3.144,-1.898 -10.017,0.629 -12.572,-3.236c-1.07,-1.632 -0.224,-4.454 -0.267,-6.286c-0.147,-3.142 -1.472,-5.456 -1.739,-8.559c-0.668,-6.42 -0.668,-12.798 -1.872,-19.178c-1.471,-7.832 -3.196,-15.95 -5.791,-23.506c-1.552,-4.413 -4.601,-8.064 -6.246,-12.384c-1.591,-4.053 -1.913,-9.202 -4.186,-13.027c-0.589,-1.003 -1.244,-1.887 -2.047,-2.555c3.464,-5.327 4.922,-11.159 4.922,-14.168c0.535,-0.775 0.937,-1.47 1.338,-2.273c8.11,-2.42 16.215,-6.473 24.373,-10.525c0,-6.427 -12.853,-12.806 -6.42,-19.226c12.801,-6.42 32.017,0 44.869,0c-7.699,-5.151 -15.391,-10.246 -23.094,-15.395c9.562,-0.909 19.31,-2.14 29.515,-3.825c-12.842,-12.848 -32.068,-19.227 -51.29,-25.647c32.023,-12.848 70.518,-19.226 83.317,-44.869c19.226,-25.649 19.226,-57.674 44.869,-76.943c6.433,-6.378 -6.42,-25.605 0,-32.025h25.647c-19.216,-12.848 -25.648,-38.447 -32.068,-57.67c19.226,0 38.495,-12.848 38.495,-25.647c0,-64.093 25.601,-89.742 32.021,-141.036c4.058,-32.206 10.615,-69.517 21.274,-105.501c6.699,0.428 13.389,0.83 20.089,1.498c15.811,1.458 33.164,3.41 47.926,9.656c17.584,7.427 32.568,19.638 48.743,29.427c5.098,3.049 11.116,4.695 16.078,7.931c3.37,2.18 5.964,4.868 9.522,6.968c4.467,2.595 7.783,5.471 11.435,9.068c5.686,5.607 12.025,10.342 17.174,16.4c2.688,3.237 4.921,6.687 8.332,9.335c1.952,1.498 3.785,2.408 5.51,4.28c1.952,2.141 3.37,4.788 5.51,6.741c2.555,2.327 5.657,3.825 8.252,6.152c5.96,5.417 12.808,10.205 18.037,16.263c3.612,4.2 8.252,7.289 12.171,11.208c3.638,3.731 6.327,8.01 9.563,12.023c4.373,5.374 4.654,9.386 7.021,15.899c2.594,6.927 7.155,13.256 9.388,20.317c1.992,6.248 3.45,12.159 6.553,18.084c4.146,7.883 8.693,14.402 11.288,23.189c1.912,6.605 4.372,13.119 6.566,19.632c2.822,8.294 3.504,16.858 5.51,25.283c2.046,8.611 4.507,17.038 4.373,25.785c-0.133,9.611 0.508,20.136 3.464,29.11c2.274,6.785 2.862,14.349 4.414,21.317c1.057,4.553 1.682,8.74 1.725,13.394z" /></svg>