<svg xmlns="http://www.w3.org/2000/svg" viewBox="0 0 795 896" width="795" height="896"><path d="M520.293,624.221c1.177,4.221 2.813,8.06 3.916,12.208c0.563,2.28 1.634,5.628 0.872,8.064c-0.378,1.252 -1.405,1.748 -2.357,2.66c-3.802,3.725 -5.777,8.821 -9.049,12.969c-6.162,7.795 -14.531,14.222 -21.793,20.878c-3.122,2.853 -6.013,5.894 -8.976,8.898c-1.978,2.015 -4.453,3.651 -6.391,5.703c-2.508,2.626 -4.449,5.934 -6.806,8.711c-2.357,2.736 -4.567,5.63 -6.24,8.862c-2.585,4.944 -5.894,9.431 -8.288,14.413c-1.294,2.588 -2.513,5.247 -3.997,7.721c-2.092,3.424 -3.272,6.884 -4.868,10.535c-2.431,5.626 -3.309,11.524 -5.931,17.113c-1.181,2.431 -2.967,4.37 -4.148,6.806c-0.798,1.559 -0.987,3.27 -1.519,4.905c-2.588,7.909 -9.549,13.767 -7.001,22.893c0.698,2.431 0.493,4.487 0.838,7.034c0.301,2.853 1.596,5.552 2.28,8.328c0.798,3.234 1.52,6.656 3.004,9.814c1.294,2.699 2.052,5.666 3.574,8.443c1.864,3.35 3.993,6.619 5.552,10.042c2.093,4.674 6.237,8.858 7.38,13.804c-1.823,-0.497 -3.081,-2.399 -5.019,-3.081c-3.423,-1.179 -6.957,-1.786 -10.229,-3.537c-2.817,-1.523 -4.791,-4.072 -7.608,-5.593c-2.28,-1.25 -5.284,-2.243 -7.262,-3.953c-2.244,-1.94 -4.185,-4.944 -5.516,-7.644c-0.765,-1.599 -3.122,-6.847 -4.718,-7.192c-1.861,8.751 -3.423,17.23 -5.247,25.978c-0.604,2.776 -0.604,5.478 -0.569,8.369c0.078,3.383 1.828,6.497 0.912,9.884c-1.674,0.114 -2.244,-2.13 -3.31,-3.196c-0.948,-0.988 -2.357,-1.327 -3.232,-2.509c-0.835,-1.067 -0.872,-2.589 -1.556,-3.689c-0.916,-1.522 -2.247,-2.515 -2.703,-4.225c-0.455,-1.787 -0.228,-3.078 -1.257,-4.788c0.229,4.104 -0.15,7.906 1.181,11.903c0.721,2.206 3.121,6.272 1.978,8.479c-0.952,-1.787 -2.471,-2.812 -3.688,-4.409c-0.989,-1.295 -1.596,-2.816 -2.662,-4.108c-1.328,-1.598 -2.622,-2.666 -3.688,-4.489c-0.607,-1.067 -1.063,-2.016 -1.938,-2.931c0.264,2.739 -1.828,4.944 -2.703,7.456c-0.747,2.206 -0.607,4.299 -0.607,6.578c0.038,1.407 -0.277,3.081 -0.032,4.452c0.342,2.016 1.787,3.311 1.066,5.439c-5.556,0.688 -8.142,-6.501 -10.995,-9.773c-1.561,-1.79 -3.387,-3.079 -4.221,-5.402c-0.533,-1.407 -0.154,-2.168 -1.371,-3.158c0.241,4.147 -0.758,8.865 0,12.932c0.647,3.688 4.489,6.882 3.272,10.99c-2.279,0.46 -3.574,-1.938 -5.21,-3.077c-1.827,-1.293 -3.879,-1.33 -5.287,-3.081c-1.446,-1.71 -1.482,-4.527 -2.284,-6.542c-0.872,-2.279 -1.519,-4.561 -2.394,-6.806c-1.103,3.232 -0.073,7.035 0.802,10.193c0.644,2.207 1.099,4.108 2.28,6.163c0.684,1.213 2.311,2.734 2.206,4.18c-3.803,1.481 -9.775,-2.667 -11.676,-5.516c-2.47,-3.728 -3.651,-6.504 -4.982,-10.762c0.07,2.317 -0.105,4.635 0,6.92c0.159,2.923 2.178,5.552 2.21,8.324c-3.158,0.115 -7.457,-3.801 -9.321,-6.008c-2.585,-3.045 -4.674,-7.303 -5.133,-11.259c0.17,2.434 -0.218,4.868 0.275,7.266c0.687,3.575 2.246,7.149 3.158,10.686c0.764,3.003 1.75,5.438 3.386,8.1c0.688,1.1 1.827,2.241 2.21,3.423c-2.891,-0.915 -4.942,-3.498 -7.873,-4.527c-2.891,-1.03 -5.323,-0.875 -7.759,-3.082c-4.677,-4.218 -8.711,-9.013 -13.234,-13.425c-3.044,-2.966 -6.923,-6.808 -8.633,-10.724c-0.838,-1.864 -0.989,-3.992 -1.596,-5.894c-0.724,-2.248 -1.75,-6.579 -3.272,-8.443c-1.788,-2.211 -6.086,-3.767 -8.708,-4.603c-1.636,-0.494 -3.004,-0.991 -4.375,-2.091c-1.063,-0.839 -1.75,-2.052 -2.699,-2.967c-1.596,-1.573 -1.596,-1.179 -3.729,-1.823c-2.431,-0.765 -5.284,-2.355 -7.718,-3.537c-3.5,-1.71 -6.202,-5.283 -8.596,-8.214c-2.812,-3.423 -5.82,-6.997 -8.328,-10.648c-2.853,-4.225 -4.754,-9.013 -7.721,-13.123c-6.766,-9.277 -12.208,-19.51 -16.161,-30.35c-1.674,-4.637 -1.446,-9.204 -2.703,-13.881c-1.636,-6.119 -2.736,-12.436 -3.879,-18.635c-0.606,-3.192 -1.481,-6.311 -2.165,-9.469c-0.648,-3.232 -0.726,-6.502 -1.295,-9.774c-0.607,-3.386 -1.18,-6.655 -1.673,-10.078c-0.534,-3.766 -1.953,-6.884 -2.093,-10.763c-0.191,-4.983 -6.468,-8.898 -9.814,-12.208c-3.993,-3.955 -10.119,-6.466 -15.594,-7.532c-4.563,-0.908 -7.415,-2.887 -11.027,-5.74c-2.666,-2.055 -4.261,-2.319 -7.571,-3.045c-6.082,-1.291 -13.958,-3.268 -18.863,-7.262c-3.534,-2.893 -5.097,-8.027 -7.869,-11.564c-3.045,-3.879 -5.82,-6.847 -7.799,-11.333c-3.689,-8.256 -10.878,-14.719 -13.653,-23.467c-2.471,-7.909 -0.569,-17.226 -1.484,-25.404c-0.416,-3.725 -0.684,-7.376 -0.608,-11.141c0.037,-3.537 0.987,-5.633 2.016,-8.865c1.065,-3.383 1.101,-6.883 2.166,-10.189c1.257,-3.92 2.015,-8.215 1.179,-12.326c-0.494,-2.242 -0.909,-4.37 -1.938,-6.309c-1.861,-3.461 -5.97,-3.884 -8.936,-6.733c-2.433,-2.324 -5.668,-4.64 -8.557,-6.391c-1.979,-1.217 -4.223,-1.594 -6.161,-2.625c-2.204,-1.213 -3.916,-3.724 -5.741,-5.475c-4.525,-4.258 -8.745,-10.609 -12.131,-15.782c-3.651,-5.515 -3.349,-14.299 -3.881,-20.69c-1.064,-12.7 1.748,-24.453 9.66,-34.531c5.97,-7.532 9.318,-14.872 9.242,-24.836c-0.04,-5.058 -1.064,-10.307 -3.386,-14.83c-2.433,-4.718 -7.226,-7.762 -10.952,-11.45c-4.031,-3.993 -7.721,-8.103 -11.107,-12.667c-3.88,-5.283 -6.238,-11.329 -9.964,-16.616c-4.222,-5.935 -9.776,-10.648 -12.893,-17.304c-1.521,-3.118 -2.892,-6.085 -4.602,-9.13c-3.917,-6.697 -9.584,-12.363 -13.273,-19.169c-1.714,-3.235 -2.894,-6.923 -3.995,-10.383c-1.714,-5.399 -4.032,-10.609 -6.39,-15.782c-4.109,-9.207 -6.276,-18.826 -7.912,-28.754c-1.367,-8.331 -2.623,-16.661 -3.232,-25.103c-0.611,-8.633 -3.308,-16.58 -3.5,-25.327c-0.265,-14.795 -5.058,-29.056 -5.59,-43.775c1.408,7.19 3.877,14.223 6.084,21.184c4.223,13.315 8.062,27.118 14.338,39.671c10.079,20.191 19.394,40.727 29.207,61.076c3.461,7.147 6.313,14.641 10.344,21.488c4.259,7.303 9.507,13.995 13.31,21.562c5.704,11.296 14.109,20.958 20.079,32.137c2.281,4.299 3.994,8.707 6.618,12.818c3.272,5.137 5.856,10.459 8.291,16.087c5.17,11.829 8.593,24.073 12.359,36.395c1.371,4.49 0.988,8.939 2.13,13.425c1.827,7.262 5.022,14.108 6.732,21.488c1.289,5.704 3.576,11.179 4.789,16.885c1.066,5.059 2.016,10.115 3.045,15.171c1.026,5.096 3.651,9.472 5.247,14.377c0.802,2.394 1.448,5.589 3.386,7.34c0.762,0.651 2.317,1.696 3.346,1.751c2.283,0.192 2.283,-1.099 3.045,-3.004c2.548,-6.232 2.398,-12.777 6.354,-18.517c2.662,-3.919 6.273,-7.265 10.038,-10.078c4.945,-3.755 9.512,-3.948 15.48,-3.92c5.972,0 10.267,0.459 15.558,3.346c5.283,2.891 10.607,5.82 15.325,9.509c5.251,4.07 9.811,8.824 15.363,12.513c4.945,3.273 8.865,7.421 12.932,11.715c5.74,6.085 6.618,14.26 9.126,21.981c2.694,8.29 3.615,17.152 2.589,25.9c-0.879,7.61 -5.21,14.682 -10.042,20.462c-2.243,2.661 -4.184,5.512 -7.53,6.769c-4.188,1.597 -9.928,1.445 -14.303,0.836c-9.395,-1.29 -18.525,-9.623 -23.427,-17.381c-2.056,-3.273 -3.693,-7.604 -3.196,-11.598c0.184,-1.561 0.321,-3.54 0.493,-5.404c-0.19,-0.028 -0.397,0 -0.569,-0.028c-1.673,-0.079 -3.232,-0.659 -4.905,-0.799c-1.787,-0.192 -3.842,-0.342 -5.552,-1.031c-0.614,-0.23 -1.75,-1.171 -2.324,-1.446c-1.255,-0.569 -2.582,-0.719 -3.839,-1.213c-1.901,-0.724 -3.269,-2.247 -5.019,-3.272c-3.044,-1.86 -5.894,-3.574 -7.53,-6.92c-0.651,-1.293 -1.589,-2.624 -1.864,-4.07c-0.313,-1.405 -0.038,-2.772 -0.383,-4.067c-0.584,-2.129 -0.919,-5.777 -0.275,-8.1c1.731,0.343 1.027,1.559 1.559,2.703c0.305,0.683 1.483,1.978 2.015,2.547c1.901,1.977 3.84,3.92 5.63,6.085c3.423,4.069 8.365,6.732 13.461,8.596c3.614,1.294 6.96,3.157 10.575,4.452c3.346,1.213 7.074,1.659 10.648,1.631c3.346,0 7.375,0.699 10.571,-0.14c1.636,-0.442 3.232,-0.579 4.868,-0.607c-1.367,0.457 -2.548,1.674 -2.548,3.082c-2.283,0.113 -4.144,2.309 -6.35,2.584c-2.742,0.384 -5.824,0 -8.596,0c-2.171,0 -4.374,0.027 -6.58,0.055c0.187,0.383 0.427,0.75 0.532,0.915c2.015,2.434 5.283,4.298 8.214,5.401c4.832,1.789 10.722,2.091 15.782,1.371c6.126,-0.876 10.384,-3.762 12.057,-9.888c0.912,-3.384 1.482,-8.631 0.379,-12.017c-0.949,-2.891 -3.463,-5.626 -5.401,-7.873c-3.349,-3.955 -8.898,-6.73 -13.237,-9.583c-4.677,-3.081 -9.697,-7.224 -15.403,-8.1c-3.269,-0.446 -7.075,-0.028 -10.421,-0.028c-3.537,0.038 -6.729,-0.949 -10.229,-1.144c-6.159,-0.338 -11.41,3.112 -17.268,3.387c-4.791,0.232 -9.204,-0.155 -13.348,-1.978c-1.831,-0.796 -3.122,-1.716 -5.291,-1.371c-1.364,0.191 -1.519,-0.381 -2.28,0.99c-0.484,0.875 0.035,3.725 -0.105,4.791c-0.607,3.688 -2.663,6.92 -3.232,10.571c-0.416,2.666 -1.368,5.25 -1.787,7.799c-0.747,1.289 -0.672,2.696 -0.14,4.18c0.302,3.154 1.255,5.817 1.824,9.277c1.371,8.902 -0.942,17.878 -0.872,26.776c0.073,4.604 -0.443,9.395 0.245,13.958c0.456,3.273 1.901,6.126 2.813,9.244c1.107,3.648 2.552,6.579 4.225,10.002c1.71,3.537 2.508,7.415 4.03,11.027c1.294,3.195 3.765,5.854 5.361,8.935c1.482,2.853 3.155,5.055 5.475,7.262c2.703,2.589 4.681,5.708 7.457,8.255c3.575,3.158 7.719,4.339 11.789,6.618c2.203,1.255 4.106,2.588 6.542,3.346c2.776,0.876 5.82,2.392 8.596,3.118c4.446,1.202 8.821,-0.839 13.079,1.257c3.578,1.787 5.671,4.559 8.255,7.49c2.548,2.855 5.437,5.778 7.721,9.05c2.662,3.806 5.012,7.762 5.287,12.285c0.191,2.588 1.636,4.223 2.206,6.732c0.564,2.475 0.032,5.745 0.032,8.292v13.579c0,2.927 0.035,5.894 0,8.821c-0.036,4.111 1.295,7.379 1.979,11.373c0.569,3.195 0.878,5.361 2.474,8.214c1.746,3.12 2.621,7.224 3.228,10.724c0.459,2.588 0.838,5.06 1.445,7.644c0.989,4.148 3.269,6.773 5.133,10.388c0.687,1.327 0.537,3.307 1.371,4.523c0.379,0.537 1.029,0.688 1.408,1.257c0.835,1.142 1.143,2.472 1.787,3.802c1.978,4.034 4.909,7.111 8.027,10.229c3.001,3.08 7.336,6.615 10.836,8.708c0.567,0.305 3.155,0.926 3.839,1.066c2.854,0.645 3.118,0.453 5.63,2.66c1.214,1.028 2.357,1.216 3.574,2.018c1.215,0.756 2.241,2.355 3.612,2.849c3.306,1.257 7.564,-0.908 10.836,0.418c1.294,0.534 1.938,1.747 3.574,2.055c1.482,0.317 3.46,-0.028 4.982,-0.028c3.538,0 7.263,0.491 10.535,-0.839c1.217,-0.493 2.207,-0.719 3.31,-1.408c1.181,-0.721 1.902,-1.71 3.045,-2.509c1.18,-0.864 2.055,-0.495 3.386,-1.029c1.71,-0.685 2.467,-1.905 4.677,-2.015c2.927,-0.13 6.883,-0.508 9.696,0.25c1.482,0.417 2.89,1.802 4.754,2.052c2.663,0.345 5.097,0.534 7.759,1.216c1.901,0.451 3.269,1.446 5.247,0.726c1.29,-0.458 2.394,-2.319 3.537,-3.118c1.901,-1.371 4.295,-1.487 6.159,-2.817c2.362,-1.71 3.994,-3.802 6.542,-5.361c4.07,-2.589 8.328,-4.298 11.145,-8.406c4.257,-6.082 9.736,-11.178 13.692,-17.532c2.318,-3.729 4.333,-7.762 6.58,-11.564c2.243,-3.726 4.219,-8.214 5.703,-12.322c2.317,-6.239 5.663,-11.902 7.869,-18.142c1.746,-4.868 3.155,-9.846 4.677,-14.792c1.144,-3.611 2.589,-7.38 4.225,-10.803c1.747,-3.765 2.85,-7.681 4.905,-11.369c2.052,-3.652 5.015,-6.733 7.225,-10.458c2.508,-4.225 6.085,-7.685 8.633,-11.829c1.026,-1.751 1.522,-3.769 2.699,-5.442c1.596,-2.316 3.883,-4.145 5.593,-6.424c3.916,-5.324 5.971,-11.564 8.862,-17.381c2.967,-5.899 6.997,-10.502 10.648,-15.863c3.274,-4.868 8.105,-8.67 11.109,-13.73c1.328,-2.243 1.979,-4.752 3.192,-7.034c1.522,-2.849 3.423,-5.247 4.718,-8.214c2.015,-4.522 5.975,-8.633 7.571,-13.27c1.253,-3.731 2.394,-19.363 9.961,-16.546c1.372,6.045 2.438,12.321 3.31,18.447c0.876,6.273 0.423,12.7 2.133,18.863z" /> <path d="M461.837,436.299c3.423,-0.682 6.924,-0.414 10.156,0.799c4.603,1.673 7.799,4.454 11.979,6.733c3.194,1.71 5.287,4.145 7.835,6.692c2.431,2.438 4.792,4.226 6.656,7.189c1.977,3.122 3.077,6.24 5.287,9.207c1.993,2.699 1.481,6.77 2.165,10.193c1.372,7.035 -0.606,15.25 -2.776,21.868c-1.026,3.077 -2.508,6.349 -4.144,9.126c-0.761,1.331 -1.787,2.469 -2.776,3.651c-1.75,2.015 -3.272,4.417 -4.982,6.354c-4.257,4.868 -10.037,7.831 -13.692,13.27c-1.257,1.865 -1.359,3.616 -1.327,5.744c0.069,1.827 0.207,3.613 -0.172,5.401c-0.383,1.596 -1.482,3.039 -1.791,4.677c-0.28,1.408 0.135,2.891 -0.14,4.221c-0.227,0.917 -0.924,0.917 -1.099,1.788c-0.45,2.321 0.224,4.677 -0.345,6.997c-1.179,4.79 -3.346,8.555 -7.721,11.067c-2.544,1.449 -5.284,2.511 -7.604,4.221c-1.75,1.258 -3.231,2.361 -5.21,3.31c-2.361,1.104 -3.769,2.32 -5.784,3.839c-2.853,2.182 -4.449,1.601 -7.795,2.21c-2.931,0.531 -5.899,1.638 -8.866,2.015c-2.85,0.38 -6.272,0.055 -9.163,0c-5.55,-0.226 -10.458,-3.989 -14.146,-7.758c-0.952,-0.948 -1.216,-2.168 -2.165,-3.155c-0.761,-0.763 -1.942,-1.216 -2.776,-1.942c-1.94,-1.71 -2.702,-4.108 -4.452,-6.045c-1.176,-1.292 -2.544,-2.242 -3.346,-3.839c-0.836,-1.599 -2.28,-4.261 -1.405,-6.012c1.445,0.377 2.511,1.82 4.221,2.165c1.791,0.33 3.652,-0.291 5.516,0.165c5.324,1.257 11.032,0.867 16.66,0.839c5.209,0 9.431,-1.026 14.413,-2.165c1.865,-0.459 3.615,-1.484 5.442,-1.978c3.386,-0.953 6.728,-1.519 10.038,-2.776c2.32,-0.838 4.678,-1.335 6.428,-3.045c1.332,-1.295 1.714,-3.046 2.703,-4.486c0.607,-0.952 1.599,-1.408 2.243,-2.36c0.607,-0.836 1.254,-2.322 1.71,-3.196c1.18,-2.242 2.092,-4.79 3.537,-6.883c1.066,-1.52 2.742,-2.432 3.386,-4.067c0.606,-1.636 0.687,-3.838 1.066,-5.589c1.063,-5.174 4.519,-8.98 4.449,-14.455c-0.032,-0.874 -0.172,-1.977 -0.032,-2.813c0.114,-0.686 0.811,-1.409 0.916,-1.868c0.493,-2.394 -0.532,-2.658 -0.952,-4.978c-0.721,-4.148 -0.191,-9.812 -4.6,-12.248c-1.942,-1.058 -4.525,-1.258 -6.618,-1.368c-4.299,-0.232 -6.163,0.532 -10.002,1.978c-6.809,2.622 -13.693,0.264 -20.576,1.289c-2.813,0.458 -5.17,2.095 -7.759,3.158c-2.658,1.106 -5.625,1.559 -8.328,2.703c-5.323,2.32 -9.921,6.045 -13.079,10.877c-2.324,3.575 -3.159,8.141 -4.111,12.171c-0.456,1.941 0,3.847 -0.456,5.784c-0.648,2.813 -2.011,4.526 -1.979,7.53c0.038,4.64 1.445,7.693 6.618,7.721c6.237,0.055 12.737,0.511 18.9,0.055c3.761,-0.305 7.755,-2.396 10.836,-4.489c3.041,-2.092 6.163,-3.993 9.281,-6.045c2.696,-1.748 5.435,-3.765 7.869,-5.858c1.026,-0.912 1.901,-3.324 2.776,-3.574c2.055,3.193 -3.765,6.957 -5.361,8.821c-2.472,2.891 -4.033,5.477 -7.148,7.759c-3.994,2.963 -8.443,6.043 -13.311,7.225c-2.777,0.68 -5.247,0.947 -8.064,1.937c-2.317,0.802 -5.322,1.703 -7.756,1.978c-3.692,0.407 -10.002,0.791 -13.539,-0.275c-1.181,-0.38 -2.133,-1.443 -3.346,-1.788c-1.14,-0.346 -2.206,-0.076 -3.346,-0.456c-2.133,-0.687 -3.501,-2.817 -5.516,-3.883c-5.67,-3.037 -6.965,-8.402 -9.737,-13.649c-1.293,-2.512 -2.369,-4.034 -2.474,-6.887c-0.14,-3.956 0,-7.945 0,-11.939c0,-5.214 0.114,-9.777 1.103,-14.91l-4.413,8.255c0.036,-2.211 0.194,-3.196 0.952,-5.06c1.145,-2.776 2.703,-5.556 4.108,-8.328c0.115,-1.409 0.215,-2.854 0.46,-4.262c0.949,-5.438 7.531,-9.847 11.105,-13.388l-5.854,10.954c0.533,-0.606 1.026,-1.253 1.636,-2.052c3.386,-4.453 8.101,-7.343 12.057,-11.145c3.497,-3.346 7.376,-6.197 11.027,-9.469c2.206,-1.901 4.718,-3.196 6.883,-5.133c1.747,-1.637 3.004,-2.815 5.247,-3.997c3.883,-2.015 7.685,-3.953 11.373,-6.273c2.203,-1.369 4.104,-2.812 6.428,-3.956c1.75,-0.836 3.728,-2.583 5.552,-3.115c2.776,-0.847 6.504,-0.165 9.391,-0.165c4.072,-0.038 7.683,-0.072 11.676,-0.871z" /> <path d="M278.906,765.063c-0.35,-1.522 0.07,-3.726 0.07,-5.361c0,-3.35 -0.612,-7.34 0.035,-10.612c0.417,-2.132 2.053,-3.993 3.001,-5.971c0.879,-1.826 1.372,-3.805 2.21,-5.628c1.442,-3.273 3.155,-6.086 4.714,-9.358c1.558,-3.306 1.522,-7.038 2.474,-10.612c0.379,-1.253 1.062,-2.434 1.636,-3.5c1.302,-2.32 0.952,-3.65 1.372,-6.159c0.567,-3.31 1.975,-6.35 3.115,-9.395c1.181,-3.044 2.17,-6.696 4.718,-8.633c3.31,-2.508 3.729,0.839 4.339,3.916c0.868,4.677 0.07,10.193 0.07,14.984v21.603c0,3.501 0.038,6.159 -1.143,9.431c-0.835,2.36 -1.897,5.209 -2.206,7.721c-0.209,1.559 -0.038,3.422 0.032,5.019c0.036,2.205 -0.229,2.877 2.165,2.849c3.119,-0.077 4.182,-3.687 5.325,-5.894c1.143,-2.28 1.864,-4.677 2.474,-6.997c1.168,-4.372 0.342,-8.366 1.063,-12.741c0.611,-3.879 1.637,-7.721 2.284,-11.56c0.72,-4.221 1.136,-8.633 2.165,-12.817c0.721,-3.045 1.75,-5.858 2.508,-8.862c0.459,-1.864 0.873,-2.818 0.838,-4.946c-0.041,-2.166 0.036,-2.776 1.099,-4.564c5.899,-9.774 8.597,3.654 11.109,8.442c1.901,3.651 2.622,7.99 4.144,11.943c1.446,3.883 2.582,7.991 2.512,12.171c-0.077,3.806 1.258,8.064 2.357,11.715c0.533,1.79 0.744,2.287 0.916,4.339c0.191,2.056 1.559,3.806 2.015,5.516c2.092,7.986 1.301,16.848 1.371,25.254c0.036,4.335 -1.181,8.519 -3.31,12.208c-1.03,1.787 -1.979,3.764 -3.045,5.552c-1.14,1.901 -2.967,2.397 -3.953,4.375c-0.993,1.901 -0.84,2.964 -2.324,4.523c-0.684,0.683 -2.015,2.282 -2.849,2.776c-1.257,0.684 -3.118,0.609 -4.489,1.029c-1.636,0.535 -3.195,1.476 -4.982,1.751c-8.67,1.099 -22.172,0.379 -21.602,-11.145l-2.243,17.723c0.688,-2.658 -4.295,-5.703 -5.552,-7.718c-0.915,-1.448 -1.371,-3.122 -2.434,-4.452c-1.672,-2.166 -3.308,-2.964 -4.489,-5.589c-1.444,-3.118 -3.573,-6.163 -4.754,-9.391c-1.103,-3.122 -1.217,-6.203 -1.596,-9.435c-0.152,-1.563 -0.872,-2.092 -1.181,-3.5z" /> <path d="M172.197,317.052c-0.455,-18.139 -2.331,-35.712 -2.436,-53.964c-0.073,-11.943 -0.227,-24.151 3.045,-35.789c1.444,-5.211 4.147,-9.888 5.552,-15.175c1.637,-6.203 1.71,-12.135 4.413,-18.106c5.019,-11.065 10.877,-22.779 16.583,-33.579c2.166,-4.184 5.248,-7.534 7.832,-11.373c3.347,-5.019 4.527,-11.063 7.95,-16.009c3.651,-5.21 9.623,-8.519 14.072,-13.046c2.853,-2.891 7.074,-7.529 10.917,-8.519c1.86,3.459 -1.563,4.261 -2.21,7.148c-0.449,1.978 0.386,4.188 -0.07,6.24c-0.342,1.371 -1.636,1.522 -2.015,2.817c-3.045,10.612 -7.112,19.36 -12.399,29.133c-3.196,5.892 -5.898,13.5 -7.571,19.964c-1.026,3.92 -2.7,24.346 1.408,25.217c2.129,-6.277 0.456,-13.084 3.004,-19.816c3.159,-8.365 10.65,-14.715 15.253,-22.4c5.516,-9.2 14.756,-14.069 22.25,-21.485c6.692,-6.656 13.917,-12.244 20.878,-18.635c0.57,10.726 -6.203,20.992 -10.042,30.578c-4.754,11.711 -8.82,21.52 -15.211,32.515c-7.53,13.006 -12.056,29.589 -14.792,44.194c-0.828,4.486 -1.714,11.332 -0.688,15.859c0.761,3.46 3.994,6.542 5.247,9.888c1.6,4.295 1.335,8.329 2.324,12.852c0.683,3.196 4.677,6.542 5.21,10.002c0.382,-1.216 1.599,-1.483 1.978,-2.967c0.618,-2.659 -0.154,-5.512 0.758,-7.983c0.952,-2.625 5.21,-6.655 7.38,-8.748c1.519,-1.408 7.946,-7.96 9.163,-8.1c6.885,-0.99 2.282,6.919 1.484,9.964c-2.475,9.392 -1.865,18.71 -6.24,27.306c-3.154,6.195 -6.503,12.244 -10.115,18.252c-4.298,7.187 -11.907,12.896 -13.958,20.879c-2.129,8.292 -3.223,15.634 -3.118,24.724c0.074,5.59 -1.062,20.727 -8.747,20.195c-4.221,-0.265 -8.975,-7.909 -11.446,-10.726c-4.185,-4.677 -4.071,-5.931 -5.63,-11.829c-3.69,0.613 -2.697,22.974 -1.484,27.577c3.155,11.748 10.69,22.172 16.999,31.755c2.208,3.309 3.384,7.99 5.82,11.45c2.772,3.953 7.453,7.261 10.571,11.255c3.041,3.92 5.703,7.38 8.442,11.41c1.861,2.702 4.942,6.809 13.311,22.705l1.596,0.028c-4.453,0.647 -6.694,-4.108 -9.13,-6.961c-4.791,-5.552 -10.042,-10.612 -15.175,-15.859c-6.386,-6.468 -14.109,-10.877 -20.308,-17.495c-6.579,-7.074 -11.943,-15.326 -17.76,-23.011c-8.1,-10.723 -15.592,-21.826 -21.22,-34.152c-3.31,-7.148 -4.946,-14.98 -6.542,-22.665c-1.71,-8.442 -4.892,-16.885 -5.133,-25.518z" /> <path d="M322.266,223.805c-2.053,-2.891 -5.892,-8.862 -6.58,-12.591c-0.834,-4.751 0,-10.991 1.75,-15.249c1.865,-4.452 2.167,-7.875 3.196,-12.516c1.367,-6.045 5.817,-13.689 8.214,-19.926c3.231,-8.483 6.158,-16.965 8.747,-25.673c-0.684,2.85 1.75,3.462 2.243,5.854c0.443,2.166 -0.738,4.604 -0.245,6.769c0.76,3.461 4.221,7.755 6.085,10.8c2.47,4.033 3.236,8.254 5.401,12.516c1.522,3.078 4.717,5.704 6.618,8.557c2.471,3.765 4.446,6.578 7.604,9.924c3.232,3.424 2.967,6.619 4.791,10.307c4.18,8.366 16.047,3.423 22.665,1.942c2.474,-0.572 2.015,-2.854 5.173,-1.597c1.294,0.529 2.431,2.695 2.778,3.839c1.152,4.066 -0.105,11.063 -0.105,15.325c0,5.25 -0.035,10.498 0,15.708c0.037,5.475 -2,8.557 -2.206,13.653c-0.267,6.692 0.416,7.744 -6.504,7.604c-5.055,-0.11 -10.151,0 -15.211,0h-15.175c-6.696,0 -15.289,-1.638 -21.566,0.345c-0.191,2.772 -1.368,5.36 -2.206,7.869c0.181,-0.105 0.316,-0.27 0.456,-0.38c-0.648,0.647 -1.522,1.637 -2.813,3.045c0,-11.296 1.022,-21.716 -3.769,-32.137c-2.434,-5.247 -6.236,-9.622 -9.354,-13.994z" /> <path d="M378.355,135.267c-4.411,-5.706 -3.879,-9.431 -3.879,-16.432c0,-4.828 -0.697,-10.345 0.175,-15.021c0.378,-2.019 1.706,-3.081 2.051,-5.593c0.313,-2.397 -0.035,-5.211 -0.07,-7.644c-0.036,-5.361 1.372,-8.064 3.196,-12.932c1.331,-3.534 3.497,-6.538 5.019,-9.884c1.6,-3.537 1.901,-7.229 3.196,-10.766c2.739,0.761 1.491,3.918 1.596,6.427c0.151,3.423 1.825,5.817 2.357,9.163c0.552,3.309 -0.344,7.001 -0.172,10.384c0.229,3.307 1.56,5.515 2.284,8.711c0.798,3.309 1.479,5.78 2.736,9.126c1.6,4.257 0.571,8.632 1.979,12.74c1.562,4.526 6.998,10.001 11.45,10.803c4.906,0.911 9.467,-0.265 11.903,5.552c2.28,5.511 -0.529,13.461 1.181,19.469c2.129,7.572 3.118,14.984 6.847,21.831c3.46,6.428 6.346,13.767 9.277,20.007c-1.254,0.264 -2.471,0.563 -3.688,0.871c-0.952,4.754 -5.055,15.939 -9.163,10.648c-1.869,-2.434 -2.133,-6.464 -4.718,-8.862c-4.299,-4.031 -8.821,-8.442 -13.539,-12.131c-7.34,-5.779 -13.083,-4.997 -21.945,-5.247c-5.164,-0.152 -5.233,-0.115 -5.439,-5.439c-0.191,-6.047 -0.305,-8.327 8.821,-0.682c0.277,-3.769 0.424,-7.876 -0.032,-11.336c-0.57,-4.186 -2.777,-6.885 -4.413,-10.724c-2.051,-4.754 -3.765,-8.902 -6.997,-13.046z" /> <path d="M421.802,48.563c-1.255,-2.963 -2.854,-3.917 -4.413,-6.35c-2.967,-4.791 -1.558,-8.862 0.607,-13.539c2.931,-6.39 4.604,-15.101 6.049,-21.907c0.416,-2.128 -0.606,-6.769 2.622,-6.769c3.993,-0.036 1.596,4.833 2.055,6.961c1.559,6.843 6.196,14.145 11.064,19.47c4.983,5.442 8.784,12.708 11.487,19.628c1.901,4.945 4.335,11.027 8.519,14.682c2.317,2.054 4.828,2.016 6.694,4.676c1.901,2.853 1.452,5.593 1.522,8.821c0.064,5.894 0.172,11.902 0.032,17.837c-0.191,8.821 -3.346,16.009 -1.75,25.139c0.684,3.802 4.902,16.351 -0.345,18.102c-4.144,1.371 -9.846,-5.36 -13.042,-7.262c-7.075,-4.262 -9.244,-8.825 -13.046,-16.205c-2.507,-4.865 -6.196,-9.201 -8.935,-13.804c-0.952,-1.596 -1.939,-4.675 -3.423,-6.656c0.42,0.085 0.839,0.195 1.372,0.25v1.443c0,-10.874 2.321,-24.303 -2.739,-34.076c-1.787,-3.424 -2.816,-6.884 -4.335,-10.421z" /> <path d="M476.922,46.207c1.331,-0.56 2.703,-0.63 4.148,-0.25l2.165,4.372c0,-3.992 -0.07,-7.982 0,-11.979c0.074,-6.579 -2.438,-10.116 -3.993,-16.429c-0.913,-3.688 -0.839,-9.086 -0.42,-12.969c0.572,-5.133 1.484,-4.294 6.58,-4.294c5.627,0 4.946,0.077 7.608,4.335c1.714,2.779 2.434,5.669 3.765,8.596c4.067,9.204 8.406,18.143 12.55,27.306c1.181,2.589 3.615,6.391 4.148,8.862c0.379,1.75 -0.313,3.692 0.07,5.365c0.455,1.973 2.159,2.165 2.434,4.18c0.875,6.654 -10.954,9.928 -14.528,14.108c-2.056,2.36 -5.251,11.678 -9.7,9.7c-2.927,-1.331 -4.755,-12.586 -5.858,-15.289c-1.633,-3.842 -1.975,-6.732 -3.115,-10.648c-1.445,-5.096 -6.39,-9.204 -5.858,-14.984z" /> <path d="M794.243,402.541c0.657,9.244 -0.105,18.903 -0.105,28.184c0,9.583 0.688,18.978 -1.522,28.295c-1.099,4.563 -2.584,8.707 -4.18,12.932c0.455,-8.37 0.419,-17.65 -2.394,-23.695c-3.269,-7.035 -1.253,-12.245 -2.625,-19.551c-1.331,-7.263 -7.074,-14.602 -9.354,-21.791c-2.968,-9.244 -8.33,-17.492 -12.628,-26.129c-3.803,-7.567 -5.211,-16.087 -8.671,-23.882c-4.029,-9.207 -5.857,-19.514 -10.762,-28.335c-3.538,-6.428 -7.303,-12.399 -10.421,-19.091c-5.211,-11.145 -16.543,-23.276 -26.585,-30.92c-4.221,-3.232 -7.947,-7.075 -12.929,-9.13c-4.755,-1.975 -6.997,-3.31 -10.88,-6.538c-6.693,-5.555 -13.117,-10.802 -21.868,-10.343c-8.176,0.382 -12.59,7.721 -16.884,13.575c-4.299,5.821 -5.971,13.885 -4.868,21.301c0.835,5.59 4.103,3.5 7.148,8.064c1.863,2.809 1.75,5.931 3.158,9.277c1.901,4.413 4.791,7.3 7.111,10.8c2.927,4.335 4.067,4.373 8.821,6.58c8.708,4.11 13.197,14.453 18.977,21.793c5.059,6.501 11.296,12.623 15.745,19.966c2.475,4.106 2.854,8.821 4.718,13.156c1.596,3.652 4.412,6.277 6.199,9.737c2.585,4.868 4.372,10.99 5.931,16.318c2.246,7.604 2.246,15.171 2.625,22.97c0.264,6.39 2.313,12.244 2.243,18.712c-0.102,8.292 -0.102,16.62 -0.032,24.908c0.077,6.92 -1.519,11.369 -3.839,17.837c-4.563,12.55 -1.558,25.522 -7.835,37.653c-8.218,16.011 -14.414,32.822 -22.022,49.063c-3.916,8.365 -12.663,25.823 -22.437,28.181c-1.486,-3.501 1.331,-5.858 2.853,-8.862c1.901,-3.765 2.622,-7.95 4.372,-11.752c2.588,-5.704 7.721,-9.778 10.766,-15.139c1.636,-2.853 2.545,-6.081 3.916,-9.163c1.734,-4.034 1.027,-6.809 1.559,-11.45c1.218,-10.038 7.876,-19.697 8.862,-30.5c1.19,-12.7 -0.105,-26.239 -0.105,-39.02c0,-11.483 2.357,-25.596 -1.559,-36.432c-2.015,-5.511 -4.03,-10.949 -6.961,-16.009c-5.247,-9.167 -8.785,-18.407 -13.16,-27.916c-6.997,-15.245 -8.251,-35.024 -21.639,-46.014c-4.075,-3.346 -6.276,-8.252 -10.384,-11.789c-4.49,-3.883 -9.28,-7.075 -13.388,-11.487c-4.601,-4.905 -4.375,-6.92 -11.181,-6.92c0.46,2.634 -0.57,3.306 -2.129,2.662c0.43,1.979 0.169,4.221 -0.14,6.123c-0.607,3.536 -1.788,4.185 -3.953,6.618c-2.133,2.356 -3.651,5.551 -5.556,8.1c-1.445,1.978 -3.346,4.108 -4.449,6.273c-0.342,1.481 -0.724,2.966 -1.217,4.412c-0.908,2.203 -1.975,4.295 -3.232,6.313c-1.673,3.042 -3.537,5.857 -5.475,8.748c-3.5,5.251 -6.924,10.726 -10.042,16.087c-2.849,4.869 -3.156,11.145 -5.74,16.091c-3.118,5.932 -2.243,12.131 -2.243,18.709c0,9.509 -0.496,17.992 3.306,26.927c2.55,6.049 8.442,5.325 13.274,2.398c6.542,-4.033 10.421,-8.975 15.44,-14.491c6.582,-7.149 15.216,-12.131 22.364,-18.599c1.75,-1.596 9.28,-12.322 9.964,-5.854c0.228,2.17 -0.912,4.336 -1.445,6.354c-0.912,3.423 -1.408,6.423 -3.272,9.505c-3.346,5.437 -4.597,11.486 -6.692,17.454c-1.441,4.111 -3.423,7.913 -4.978,11.943c-1.519,3.92 -2.823,6.314 -2.548,10.726c0.151,2.508 0.912,5.816 1.938,8.174c0.761,1.674 1.974,2.889 2.776,4.527c1.788,0.155 4.792,-1.478 6.656,-1.823c3.196,-0.609 5.78,-1.524 8.671,-3.045c3.5,-1.901 7.453,-3.801 10.042,-6.883c-2.019,4.563 -6.883,6.997 -10.079,10.686c-3.119,3.574 -5.706,7.645 -8.747,11.145c-2.284,2.622 -5.325,3.119 -7.152,6.542c-1.102,2.015 -1.559,3.574 -3.5,4.982c-2.999,2.206 -5.776,4.146 -8.324,6.883c-2.629,2.775 -5.173,6.655 -4.225,10.648c1.104,4.601 3.612,8.292 7.987,10.229c1.637,0.72 2.89,0.445 4.6,0.72c2.511,0.342 4.563,1.031 7.152,1.031c3.156,-0.085 7.946,-0.864 10.991,0.165c-1.257,2.28 -2.434,5.019 -3.5,7.567c-1.937,4.603 -4.104,8.671 -7.262,12.476c-2.625,3.159 -5.247,7.568 -6.883,11.333c-2.398,5.398 -5.439,9.546 -9.395,14.149c-4.795,5.589 -8.939,10.914 -12.513,17.418c-1.445,2.658 -3.005,5.437 -3.953,8.328c-0.84,2.508 -1.067,4.181 -2.891,6.159c-1.56,1.675 -4.071,5.287 -6.733,4.262c-1.294,-0.496 -3.955,-4.108 -4.452,-5.247c-2.89,-6.923 -0.57,-15.826 1.331,-22.595c0.61,-2.206 2.323,-3.994 2.967,-6.159c0.342,-1.294 0.446,-2.775 0.721,-4.07c0.765,-3.652 2.096,-7.607 2.703,-11.219c1.103,-6.96 -0.114,-15.213 -2.357,-21.793c-0.61,-1.824 -2.205,-4.755 -4.184,-5.324c-1.746,-0.541 -4.828,0.028 -6.692,0.028c1.066,-4.299 0.952,-5.818 3.346,-9.09c1.977,-2.739 2.206,-5.707 3.272,-8.862c0.989,-2.89 1.75,-5.096 2.129,-8.1c0.383,-3.004 0.461,-5.894 1.295,-8.821c1.75,-6.276 5.023,-13.237 4.225,-19.929c-0.269,-2.242 -0.46,-5.247 -2.133,-6.504c-1.177,-0.874 -4.56,-1.024 -6.082,-1.408c-2.208,-0.609 -4.337,-1.518 -6.58,-2.093c-5.056,-1.216 -13.119,1.295 -17.227,-2.165c-1.636,-1.408 -1.713,-6.657 -2.206,-8.748c-0.423,-1.939 -1.029,-3.802 -1.522,-5.744c-0.838,-3.382 -1.441,-6.765 -1.75,-10.229c-0.383,-4.522 -1.941,-8.821 -2.548,-13.307c-0.606,-4.299 -0.985,-8.67 -1.901,-12.932c-0.567,-2.855 -1.632,-5.592 -2.051,-8.483c-0.481,-3.573 -0.242,-7.339 -0.172,-10.913c0.036,-4.715 0.529,-9.469 -0.688,-14.032c-0.952,-3.575 -3.351,-9.473 -5.516,-12.591c-1.595,-2.356 -3.309,-2.469 -5.703,-3.651c-3.5,-1.672 -4.982,-5.096 -7.306,-8.1c-2.243,-2.89 -4.828,-5.402 -7.225,-8.137c-2.432,-2.702 -4.144,-5.936 -6.58,-8.596c-1.787,-2.019 -4.107,-3.383 -5.817,-5.479c-1.939,-2.431 -4.641,-6.92 -5.325,-10.075c-1.083,-4.567 -0.21,-10.005 -0.245,-14.682c-0.155,-17.039 3.725,-32.975 8.935,-49.139c3.611,-11.182 8.936,-20.651 14.223,-31.034c3.611,-7.075 7.759,-13.917 13.539,-19.433c6.997,-6.619 11.409,-15.102 18.142,-21.908c4.64,-4.718 9.391,-9.358 14.223,-13.881c2.625,-2.47 4.185,-3.951 7.685,-4.677c3.955,-0.835 6.426,-3.235 9.772,-5.287c7.034,-4.297 12.362,-10.686 18.521,-15.973c3.382,-2.889 7.53,-4.488 11.181,-6.997c2.699,-1.861 5.21,-3.956 7.909,-5.858c5.288,-3.728 10.844,-7.111 16.091,-10.99c4.335,-3.196 8.824,-6.123 12.663,-9.888c0.643,-0.571 2.165,-1.828 3.46,-3.158c-0.985,2.588 -1.636,5.665 -2.853,7.416c-1.214,1.791 -3.383,3.35 -4.865,5.06c-2.357,2.739 -4.108,5.666 -6.692,8.214c-3.92,3.879 -8.024,7.494 -11.903,11.373c-4.718,4.718 -8.711,9.355 -14.682,12.513c-4.64,2.475 -9.7,3.272 -14.223,6.049c-4.828,3.037 -9.281,7.185 -12.969,11.52c-2.092,2.435 -4.107,4.831 -5.78,7.608c-2.052,3.346 -4.755,5.931 -6.92,9.163c-2.779,4.109 -3.044,9.055 -4.452,13.692c-1.33,4.411 -2.128,8.784 -3.423,13.196c-1.295,4.375 -2.358,8.519 -3.196,13.046c-0.644,3.382 -2.129,6.119 -3.115,9.391c-1.563,5.133 -3.96,9.585 -6.354,14.373c-1.6,3.27 -3.159,6.619 -5.516,9.395c-1.828,2.129 -4.034,3.842 -5.898,5.894c-1.901,2.134 -3.687,5.671 -6.883,4.225c-3.309,-1.562 -2.208,-6.504 -2.243,-9.435c-0.037,-5.058 1.144,-10.915 2.471,-15.82c2.246,-8.406 7.873,-16.16 13.046,-23.007c4.18,-5.555 8.707,-10.611 12.244,-16.62c2.203,-3.651 3.042,-8.063 6.542,-10.685c1.026,-0.726 3.214,-1.141 3.386,-2.436c-2.552,-1.199 -7.037,-0.222 -9.928,-0.25c-2.43,-0.041 -4.412,0.264 -6.692,1.103c-2.546,0.914 -5.322,1.788 -7.756,3.045c-2.549,1.291 -3.88,3.535 -5.516,5.78c-6.121,8.405 -10.953,17.116 -14.413,26.89c-1.409,4.03 -1.901,7.909 -2.508,12.171c-0.838,5.857 -2.011,11.829 -1.941,17.76c0.114,13.578 -0.188,27.573 5.287,40.012c0.496,1.177 0.878,2.849 1.636,3.839c0.382,0.528 1.066,0.796 1.445,1.33c0.379,0.569 0.342,1.443 0.762,2.015c0.834,1.1 1.367,1.788 2.051,2.964c1.217,2.095 2.777,2.286 4.409,3.883c0.989,0.987 0.798,1.826 2.055,2.358c0.908,0.346 2.887,-0.11 3.953,-0.11c2.626,0 4.755,0.154 7.189,-0.758c5.857,-2.206 10.535,-10.152 12.704,-15.822c2.508,-6.5 3.88,-13.156 6.733,-19.51c1.252,-2.817 2.357,-5.667 2.736,-8.671c0.724,-5.552 3.044,-10.76 4.489,-16.164c1.636,-6.235 2.585,-12.7 4.335,-18.863c1.673,-5.858 4.563,-11.369 6.769,-17.039c2.324,-5.971 5.783,-11.979 9.093,-17.381c3.464,-5.702 8.402,-10.684 13.348,-15.211c1.257,-1.176 2.853,-3.228 4.148,-4.067c1.254,-0.833 3.004,-1.144 4.409,-2.015c2.703,-1.636 4.261,-3.765 6.354,-6.125c2.588,-2.85 6.125,-4.299 8.633,-7.075c2.165,-2.357 3.838,-5.212 6.085,-7.604c1.94,-2.052 3.728,-4.184 5.552,-6.391c1.408,-1.636 3.158,-3.158 4.489,-4.868c1.902,-2.471 2.813,-5.44 4.486,-8.027c2.781,-4.369 6.049,-8.707 9.09,-12.965c0.912,-1.254 3.919,-7.034 6.199,-6.427c0.077,1.255 -0.774,3.156 -0.949,4.527c-0.309,2.129 -0.764,4.335 -1.408,6.387c-2.015,6.655 -1.751,13.462 -3.92,20.08c-2.432,7.567 -5.704,14.641 -8.557,22.095c-3.078,8.138 -7.49,15.518 -13.042,22.21c-3.994,4.791 -6.921,10.23 -11.903,14.146c-4.79,3.728 -9.85,7.759 -13.994,12.211c-1.865,2.052 -3.998,4.032 -5.439,6.424c-1.6,2.625 -2.475,4.718 -4.718,6.883c-3.269,3.158 -5.399,7.762 -7.494,11.829c-2.508,4.832 -3.944,10.763 -3.839,16.205c0.188,8.248 -1.941,15.363 -3.879,23.272c-0.571,2.398 -1.824,4.413 -2.512,6.733c-0.759,2.777 -0.796,5.247 -2.66,7.645c-3.689,4.791 -9.086,8.597 -11.41,14.451c-1.063,2.629 -0.188,5.782 -1.596,8.369c-1.176,2.165 -3.309,2.702 -5.019,4.375c-2.284,2.206 -2.662,5.402 -5.06,7.53c-1.062,0.989 -2.548,1.558 -3.155,3.004c-1.04,2.397 -0.206,6.733 -0.206,9.317c0.037,2.89 -1.063,6.277 2.247,7.148c10.722,2.889 21.448,-5.895 27.647,-13.503c4.03,-4.902 8.671,-9.807 13.425,-14.032c3.423,-3.122 6.618,-6.045 9.012,-10.042c0.419,-0.72 0.724,-1.403 1.257,-1.823c-3.725,-2.207 -9.545,-10.421 -8.214,-19.283c0.798,-5.096 3.994,-13.539 6.656,-17.911c1.368,-2.287 3.537,-2.966 5.247,-5.173c2.092,-2.74 3.577,-6.884 5.173,-10.002c1.828,-3.611 1.486,-7.457 3.045,-10.917c1.367,-3.115 5.287,-5.021 7.302,-7.718c2.43,-3.195 2.853,-6.846 5.74,-9.623c2.398,-2.356 6.126,-4.408 8.862,-6.504c3.233,-2.434 6.162,-5.21 9.358,-7.681c3.462,-2.66 7.528,-3.116 11.676,-4.298c13.193,-3.688 23.158,-8.86 36.053,-1.139c10.27,6.195 17.8,16.2 21.639,27.154c2.816,8.097 9.431,11.829 13.77,18.595c3.151,4.868 5.853,9.737 9.163,14.605c6.504,9.472 10.042,20.764 15.175,31.071c4.031,8.178 9.505,15.557 12.55,24.265c2.32,6.656 4.224,12.781 7.225,19.209c2.3,4.942 1.828,9.924 2.475,15.171c1.291,10.193 5.438,20.199 6.159,30.428z" /></svg>