<svg xmlns="http://www.w3.org/2000/svg" viewBox="0 0 1024 1024" width="1024" height="1024"><path d="M0,512c0,-34.642 27.526,-62.834 61.902,-63.946c0.018,-0.544 0.038,-1.072 0.058,-1.62c0.052,-3.422 0.434,-6.912 0.738,-10.528c0.316,-3.618 0.644,-7.342 0.98,-11.164c0.192,-1.91 0.284,-3.866 0.568,-5.812c0.27,-1.952 0.542,-3.926 0.82,-5.922c0.556,-4.008 1.126,-8.11 1.708,-12.3c0.148,-1.05 0.296,-2.106 0.444,-3.168c0.198,-1.048 0.396,-2.104 0.596,-3.164c0.404,-2.126 0.812,-4.27 1.222,-6.434c0.838,-4.344 1.69,-8.77 2.558,-13.272c1.08,-4.462 2.178,-8.996 3.296,-13.602c0.564,-2.312 1.132,-4.64 1.702,-6.988c0.586,-2.344 1.342,-4.646 2.016,-7.004c1.394,-4.706 2.808,-9.478 4.24,-14.31c1.526,-4.806 3.308,-9.586 4.994,-14.484c0.86,-2.444 1.722,-4.904 2.592,-7.376c0.886,-2.466 1.944,-4.872 2.918,-7.334c2.006,-4.914 4.026,-9.876 6.068,-14.878c8.828,-19.732 19.106,-39.774 31.142,-59.376c12.21,-19.464 25.976,-38.546 41.112,-56.728c15.354,-17.964 32.028,-34.978 49.602,-50.69c17.714,-15.536 36.388,-29.57 55.278,-42.21c4.826,-3.006 9.612,-5.984 14.35,-8.936c2.39,-1.454 4.73,-2.988 7.14,-4.354c2.422,-1.35 4.832,-2.692 7.23,-4.028c4.816,-2.638 9.542,-5.376 14.328,-7.846c4.836,-2.384 9.616,-4.74 14.33,-7.062c2.372,-1.138 4.698,-2.36 7.074,-3.408c2.384,-1.034 4.75,-2.06 7.098,-3.078c4.72,-2.034 9.368,-4.036 13.936,-6.004c4.662,-1.758 9.244,-3.484 13.74,-5.182c2.258,-0.842 4.498,-1.676 6.714,-2.5c1.11,-0.412 2.216,-0.82 3.316,-1.226c1.114,-0.358 2.22,-0.712 3.324,-1.066c4.424,-1.408 8.756,-2.786 12.988,-4.134c2.126,-0.67 4.226,-1.332 6.3,-1.988c2.076,-0.668 4.164,-1.142 6.208,-1.708c4.11,-1.082 8.112,-2.136 12.004,-3.162c3.902,-1.008 7.688,-2.074 11.406,-2.786c7.45,-1.558 14.418,-3.014 20.864,-4.362c6.834,-1.108 13.212,-2.052 18.958,-2.908c2.884,-0.42 5.61,-0.816 8.176,-1.192c2.164,-0.256 4.192,-0.496 6.076,-0.718c2.114,-0.246 4.028,-0.468 5.776,-0.672c3.676,-0.772 7.474,-1.212 11.352,-1.322c0.132,-0.016 0.222,-0.028 0.222,-0.028l0.002,0.022c0.54,-0.014 1.078,-0.042 1.62,-0.042c34.938,0 63.316,27.998 63.966,62.778c0.838,0.03 1.66,0.06 2.512,0.092c3.422,0.052 6.91,0.434 10.526,0.738c3.62,0.316 7.342,0.644 11.164,0.98c1.91,0.194 3.868,0.286 5.814,0.57c1.95,0.27 3.924,0.544 5.922,0.82c4.008,0.556 8.108,1.126 12.3,1.71c1.048,0.146 2.106,0.294 3.166,0.442c1.048,0.198 2.104,0.396 3.166,0.596c2.124,0.402 4.268,0.81 6.434,1.222c4.344,0.838 8.77,1.69 13.27,2.558c4.462,1.082 8.998,2.18 13.604,3.298c2.31,0.564 4.64,1.13 6.986,1.702c2.344,0.586 4.648,1.342 7.004,2.014c4.708,1.396 9.48,2.81 14.312,4.242c4.806,1.526 9.586,3.31 14.484,4.994c2.446,0.858 4.906,1.722 7.376,2.592c2.468,0.886 4.874,1.944 7.336,2.918c4.914,2.006 9.874,4.028 14.878,6.068c19.732,8.828 39.772,19.106 59.376,31.142c19.462,12.21 38.546,25.976 56.726,41.112c17.966,15.352 34.98,32.026 50.692,49.602c15.534,17.714 29.57,36.386 42.21,55.278c3.004,4.826 5.984,9.61 8.934,14.35c1.454,2.39 2.988,4.73 4.356,7.14c1.348,2.422 2.692,4.832 4.028,7.23c2.638,4.816 5.376,9.542 7.846,14.328c2.384,4.836 4.74,9.616 7.062,14.33c1.138,2.374 2.36,4.7 3.408,7.076c1.034,2.384 2.058,4.75 3.078,7.098c2.034,4.72 4.036,9.366 6.004,13.936c1.758,4.66 3.484,9.242 5.18,13.74c0.844,2.26 1.676,4.498 2.502,6.714c0.412,1.11 0.818,2.216 1.226,3.316c0.356,1.114 0.712,2.222 1.064,3.324c1.41,4.424 2.788,8.756 4.136,12.99c0.668,2.126 1.332,4.224 1.988,6.3c0.668,2.074 1.142,4.164 1.708,6.208c1.082,4.108 2.136,8.11 3.16,12.002c1.01,3.902 2.076,7.688 2.786,11.408c1.56,7.448 3.016,14.418 4.364,20.862c1.108,6.834 2.052,13.212 2.908,18.958c0.42,2.882 0.816,5.61 1.19,8.176c0.258,2.162 0.496,4.19 0.718,6.076c0.246,2.114 0.47,4.028 0.674,5.776c0.772,3.676 1.212,7.472 1.322,11.35c0.016,0.134 0.028,0.224 0.028,0.224h-0.022c0.014,0.54 0.042,1.078 0.042,1.62c0,35.254 -28.508,63.846 -63.732,63.992c-0.018,0.53 -0.038,1.04 -0.058,1.574c-0.052,3.422 -0.434,6.912 -0.738,10.528c-0.316,3.618 -0.644,7.342 -0.98,11.164c-0.192,1.91 -0.284,3.866 -0.568,5.812c-0.27,1.952 -0.542,3.926 -0.82,5.922c-0.556,4.008 -1.126,8.11 -1.708,12.3c-0.148,1.05 -0.296,2.106 -0.444,3.168c-0.198,1.048 -0.396,2.104 -0.596,3.164c-0.404,2.126 -0.812,4.27 -1.222,6.434c-0.838,4.344 -1.69,8.77 -2.558,13.272c-1.08,4.462 -2.178,8.996 -3.296,13.602c-0.564,2.312 -1.132,4.64 -1.702,6.988c-0.586,2.344 -1.342,4.646 -2.016,7.004c-1.394,4.706 -2.808,9.478 -4.24,14.31c-1.526,4.806 -3.308,9.586 -4.994,14.484c-0.86,2.444 -1.722,4.904 -2.592,7.376c-0.886,2.466 -1.944,4.872 -2.918,7.334c-2.006,4.914 -4.026,9.876 -6.068,14.878c-8.828,19.732 -19.106,39.774 -31.142,59.376c-12.21,19.464 -25.976,38.546 -41.112,56.728c-15.354,17.964 -32.028,34.978 -49.602,50.69c-17.714,15.536 -36.388,29.57 -55.278,42.21c-4.826,3.006 -9.612,5.984 -14.35,8.936c-2.39,1.454 -4.73,2.988 -7.14,4.354c-2.422,1.35 -4.832,2.692 -7.23,4.028c-4.816,2.638 -9.542,5.376 -14.328,7.846c-4.836,2.384 -9.616,4.74 -14.33,7.062c-2.372,1.138 -4.698,2.36 -7.074,3.408c-2.384,1.034 -4.75,2.06 -7.098,3.078c-4.72,2.034 -9.368,4.036 -13.936,6.004c-4.662,1.758 -9.244,3.484 -13.74,5.182c-2.258,0.842 -4.498,1.676 -6.714,2.5c-1.11,0.412 -2.216,0.82 -3.316,1.226c-1.114,0.358 -2.22,0.712 -3.324,1.066c-4.424,1.408 -8.756,2.786 -12.988,4.134c-2.126,0.67 -4.226,1.332 -6.3,1.988c-2.076,0.668 -4.164,1.142 -6.208,1.708c-4.11,1.082 -8.112,2.136 -12.004,3.162c-3.902,1.008 -7.688,2.074 -11.406,2.786c-7.45,1.558 -14.418,3.014 -20.864,4.362c-6.834,1.108 -13.212,2.052 -18.958,2.908c-2.884,0.42 -5.61,0.816 -8.176,1.192c-2.164,0.256 -4.192,0.496 -6.076,0.718c-2.114,0.246 -4.028,0.468 -5.776,0.672c-3.676,0.772 -7.472,1.212 -11.35,1.322c-0.134,0.016 -0.224,0.028 -0.224,0.028v-0.022c-0.54,0.014 -1.078,0.042 -1.62,0.042c-34.96,0 -63.354,-28.034 -63.968,-62.846c-0.23,-0.01 -0.452,-0.018 -0.682,-0.026c-3.422,-0.05 -6.91,-0.434 -10.526,-0.738c-3.62,-0.316 -7.342,-0.644 -11.164,-0.98c-1.91,-0.192 -3.868,-0.284 -5.814,-0.57c-1.95,-0.27 -3.924,-0.542 -5.922,-0.816c-4.008,-0.558 -8.108,-1.128 -12.3,-1.71c-1.048,-0.15 -2.106,-0.294 -3.166,-0.442c-1.048,-0.2 -2.104,-0.398 -3.166,-0.598c-2.124,-0.402 -4.268,-0.812 -6.434,-1.222c-4.344,-0.836 -8.77,-1.69 -13.27,-2.558c-4.462,-1.082 -8.998,-2.178 -13.604,-3.296c-2.31,-0.564 -4.64,-1.13 -6.986,-1.704c-2.344,-0.586 -4.648,-1.34 -7.004,-2.012c-4.708,-1.398 -9.48,-2.812 -14.312,-4.242c-4.806,-1.524 -9.586,-3.308 -14.484,-4.992c-2.446,-0.86 -4.906,-1.726 -7.376,-2.594c-2.468,-0.886 -4.874,-1.946 -7.336,-2.918c-4.914,-2.004 -9.874,-4.026 -14.878,-6.066c-19.732,-8.832 -39.772,-19.108 -59.376,-31.144c-19.462,-12.212 -38.546,-25.978 -56.726,-41.114c-17.966,-15.352 -34.98,-32.024 -50.692,-49.602c-15.534,-17.712 -29.57,-36.384 -42.21,-55.278c-3.004,-4.824 -5.984,-9.61 -8.934,-14.348c-1.454,-2.39 -2.988,-4.73 -4.356,-7.14c-1.348,-2.422 -2.692,-4.832 -4.028,-7.23c-2.638,-4.816 -5.376,-9.542 -7.846,-14.328c-2.384,-4.836 -4.74,-9.618 -7.062,-14.332c-1.138,-2.37 -2.36,-4.698 -3.408,-7.074c-1.034,-2.384 -2.06,-4.75 -3.078,-7.098c-2.034,-4.72 -4.036,-9.368 -6.004,-13.934c-1.758,-4.664 -3.484,-9.246 -5.18,-13.742c-0.844,-2.256 -1.676,-4.496 -2.502,-6.714c-0.412,-1.108 -0.818,-2.214 -1.226,-3.316c-0.356,-1.114 -0.712,-2.218 -1.064,-3.324c-1.41,-4.422 -2.788,-8.754 -4.136,-12.988c-0.668,-2.124 -1.332,-4.226 -1.988,-6.3c-0.668,-2.076 -1.142,-4.166 -1.708,-6.208c-1.082,-4.11 -2.136,-8.114 -3.16,-12.004c-1.01,-3.902 -2.076,-7.688 -2.786,-11.406c-1.56,-7.45 -3.016,-14.418 -4.364,-20.864c-1.108,-6.834 -2.052,-13.212 -2.908,-18.958c-0.42,-2.884 -0.816,-5.61 -1.19,-8.176c-0.258,-2.164 -0.496,-4.192 -0.718,-6.078c-0.246,-2.114 -0.47,-4.028 -0.674,-5.774c-0.772,-3.676 -1.212,-7.474 -1.322,-11.352c-0.016,-0.132 -0.028,-0.222 -0.028,-0.222l0.022,-0.004c-0.014,-0.54 -0.042,-1.076 -0.042,-1.618zM127.958,510.38h0.022c0,0 -0.008,0.092 -0.016,0.224c0.01,0.466 0.036,0.93 0.036,1.396c0,3.398 -0.27,6.734 -0.766,9.994c-0.114,1.762 -0.242,3.692 -0.38,5.82c-0.118,1.852 -0.244,3.836 -0.378,5.958c-0.048,1.708 -0.102,3.52 -0.156,5.434c-0.138,3.87 -0.294,8.152 -0.462,12.816c0.116,5.062 0.24,10.534 0.372,16.382c-0.016,2.948 0.29,5.948 0.508,9.058c0.228,3.118 0.462,6.324 0.7,9.614c0.142,1.648 0.184,3.336 0.41,5.012c0.21,1.68 0.426,3.38 0.642,5.102c0.428,3.454 0.864,6.992 1.31,10.602c0.11,0.906 0.222,1.82 0.332,2.734c0.16,0.906 0.322,1.816 0.484,2.73c0.324,1.828 0.65,3.678 0.98,5.546c0.662,3.75 1.336,7.574 2.024,11.46c0.88,3.852 1.778,7.77 2.688,11.75c0.452,2 0.908,4.014 1.368,6.042c0.47,2.03 1.11,4.018 1.66,6.054c1.144,4.078 2.3,8.21 3.474,12.394c1.254,4.164 2.756,8.296 4.142,12.546c0.708,2.124 1.422,4.258 2.136,6.406c0.734,2.142 1.632,4.224 2.444,6.36c1.668,4.27 3.352,8.582 5.05,12.934c7.42,17.132 16.064,34.606 26.26,51.734c10.372,16.992 22.092,33.704 35.02,49.676c13.144,15.758 27.446,30.722 42.55,44.598c15.238,13.696 31.34,26.098 47.636,37.328c4.172,2.664 8.304,5.304 12.402,7.918c2.064,1.292 4.08,2.668 6.166,3.878c2.096,1.194 4.182,2.386 6.256,3.57c4.168,2.344 8.25,4.796 12.394,6.996c4.188,2.124 8.328,4.226 12.41,6.296c2.054,1.018 4.066,2.12 6.126,3.054c2.068,0.922 4.118,1.836 6.156,2.746c4.092,1.824 8.12,3.62 12.08,5.39c4.048,1.578 8.028,3.124 11.932,4.648c1.962,0.758 3.904,1.512 5.83,2.258c0.962,0.372 1.92,0.742 2.876,1.114c0.968,0.322 1.932,0.638 2.892,0.954c3.844,1.274 7.612,2.52 11.292,3.738c1.848,0.608 3.676,1.214 5.478,1.812c1.802,0.608 3.626,1.03 5.404,1.546c3.578,0.984 7.068,1.944 10.454,2.878c3.346,0.912 6.592,1.882 9.792,2.522c4.964,-29.778 30.484,-52.59 61.488,-53.364v-0.02c0,0 0.092,0.006 0.224,0.014c0.466,-0.01 0.93,-0.036 1.396,-0.036c3.398,0 6.734,0.272 9.99,0.782c1.76,0.114 3.69,0.242 5.82,0.38c1.85,0.118 3.836,0.244 5.958,0.378c1.706,0.048 3.518,0.102 5.432,0.156c3.87,0.138 8.154,0.294 12.818,0.462c5.06,-0.116 10.532,-0.24 16.38,-0.372c2.948,0.016 5.948,-0.29 9.058,-0.508c3.118,-0.228 6.324,-0.462 9.616,-0.7c1.646,-0.142 3.336,-0.182 5.01,-0.408c1.68,-0.212 3.382,-0.428 5.102,-0.644c3.456,-0.428 6.992,-0.862 10.604,-1.31c0.906,-0.11 1.818,-0.22 2.734,-0.332c0.904,-0.16 1.814,-0.322 2.728,-0.484c1.83,-0.322 3.678,-0.65 5.546,-0.98c3.752,-0.662 7.574,-1.336 11.462,-2.022c3.852,-0.882 7.77,-1.778 11.748,-2.688c2,-0.454 4.014,-0.91 6.044,-1.368c2.028,-0.472 4.016,-1.112 6.054,-1.662c4.078,-1.142 8.208,-2.3 12.392,-3.474c4.166,-1.254 8.298,-2.756 12.548,-4.142c2.124,-0.708 4.258,-1.422 6.404,-2.136c2.144,-0.734 4.224,-1.632 6.36,-2.444c4.272,-1.668 8.584,-3.35 12.934,-5.05c17.134,-7.42 34.604,-16.064 51.734,-26.258c16.99,-10.372 33.702,-22.094 49.676,-35.022c15.756,-13.144 30.724,-27.444 44.598,-42.548c13.698,-15.24 26.096,-31.34 37.33,-47.638c2.662,-4.17 5.302,-8.304 7.918,-12.402c1.29,-2.064 2.666,-4.08 3.876,-6.166c1.196,-2.096 2.386,-4.182 3.57,-6.256c2.344,-4.168 4.796,-8.25 6.998,-12.392c2.124,-4.19 4.224,-8.328 6.294,-12.412c1.016,-2.054 2.12,-4.066 3.052,-6.126c0.922,-2.066 1.838,-4.118 2.746,-6.156c1.826,-4.09 3.624,-8.12 5.392,-12.08c1.576,-4.048 3.126,-8.026 4.646,-11.93c0.76,-1.962 1.514,-3.906 2.26,-5.83c0.374,-0.962 0.744,-1.922 1.114,-2.876c0.322,-0.968 0.64,-1.934 0.956,-2.892c1.272,-3.844 2.518,-7.612 3.736,-11.294c0.608,-1.848 1.214,-3.674 1.81,-5.476c0.612,-1.804 1.03,-3.626 1.546,-5.406c0.986,-3.578 1.946,-7.066 2.88,-10.454c0.924,-3.4 1.912,-6.694 2.556,-9.942c0.068,-0.3 0.132,-0.588 0.198,-0.884c-29.446,-5.242 -51.914,-30.604 -52.682,-61.37h-0.022c0,0 0.008,-0.092 0.016,-0.224c-0.01,-0.466 -0.036,-0.928 -0.036,-1.396c0,-3.398 0.27,-6.734 0.768,-9.99c0.114,-1.76 0.242,-3.69 0.38,-5.82c0.118,-1.85 0.244,-3.836 0.378,-5.958c0.048,-1.706 0.102,-3.518 0.156,-5.432c0.138,-3.87 0.294,-8.154 0.462,-12.818c-0.116,-5.06 -0.24,-10.532 -0.372,-16.38c0.016,-2.948 -0.29,-5.948 -0.508,-9.058c-0.228,-3.118 -0.462,-6.324 -0.7,-9.616c-0.142,-1.646 -0.184,-3.336 -0.41,-5.01c-0.21,-1.68 -0.426,-3.38 -0.642,-5.1c-0.428,-3.456 -0.864,-6.992 -1.31,-10.604c-0.11,-0.906 -0.222,-1.818 -0.332,-2.734c-0.16,-0.904 -0.322,-1.814 -0.484,-2.728c-0.324,-1.832 -0.65,-3.68 -0.98,-5.548c-0.662,-3.752 -1.336,-7.574 -2.024,-11.462c-0.88,-3.852 -1.778,-7.77 -2.688,-11.748c-0.452,-2 -0.908,-4.016 -1.368,-6.046c-0.47,-2.028 -1.11,-4.016 -1.66,-6.054c-1.144,-4.076 -2.3,-8.208 -3.474,-12.392c-1.254,-4.164 -2.756,-8.298 -4.142,-12.548c-0.708,-2.124 -1.422,-4.258 -2.136,-6.404c-0.734,-2.144 -1.632,-4.224 -2.444,-6.36c-1.668,-4.27 -3.352,-8.584 -5.05,-12.932c-7.42,-17.136 -16.064,-34.606 -26.26,-51.736c-10.372,-16.99 -22.092,-33.702 -35.02,-49.676c-13.144,-15.756 -27.446,-30.724 -42.55,-44.598c-15.238,-13.698 -31.34,-26.096 -47.636,-37.33c-4.172,-2.662 -8.304,-5.302 -12.402,-7.918c-2.064,-1.29 -4.08,-2.666 -6.166,-3.876c-2.096,-1.198 -4.182,-2.388 -6.256,-3.572c-4.168,-2.344 -8.25,-4.796 -12.394,-6.998c-4.188,-2.124 -8.328,-4.224 -12.41,-6.294c-2.054,-1.018 -4.066,-2.122 -6.126,-3.054c-2.068,-0.922 -4.118,-1.838 -6.156,-2.746c-4.092,-1.826 -8.12,-3.624 -12.08,-5.392c-4.048,-1.576 -8.028,-3.126 -11.932,-4.646c-1.962,-0.76 -3.904,-1.514 -5.83,-2.26c-0.962,-0.372 -1.92,-0.742 -2.876,-1.112c-0.968,-0.322 -1.932,-0.64 -2.892,-0.956c-3.844,-1.272 -7.612,-2.518 -11.292,-3.736c-1.848,-0.61 -3.676,-1.216 -5.478,-1.812c-1.802,-0.612 -3.626,-1.03 -5.404,-1.546c-3.578,-0.986 -7.068,-1.946 -10.454,-2.88c-3.4,-0.924 -6.696,-1.912 -9.942,-2.556c-0.548,-0.12 -1.07,-0.236 -1.612,-0.356c-4.806,29.97 -30.416,52.976 -61.556,53.754v0.02c0,0 -0.092,-0.006 -0.224,-0.014c-0.466,0.01 -0.93,0.036 -1.396,0.036c-3.398,0 -6.734,-0.272 -9.99,-0.782c-1.76,-0.114 -3.69,-0.242 -5.82,-0.38c-1.85,-0.118 -3.836,-0.244 -5.958,-0.378c-1.706,-0.048 -3.518,-0.102 -5.432,-0.156c-3.87,-0.138 -8.154,-0.294 -12.818,-0.462c-5.06,0.116 -10.532,0.24 -16.38,0.372c-2.948,-0.016 -5.948,0.29 -9.058,0.508c-3.118,0.228 -6.324,0.462 -9.616,0.7c-1.646,0.142 -3.336,0.182 -5.01,0.408c-1.68,0.212 -3.382,0.428 -5.102,0.644c-3.456,0.428 -6.992,0.862 -10.604,1.31c-0.906,0.11 -1.818,0.22 -2.734,0.332c-0.904,0.16 -1.814,0.322 -2.728,0.484c-1.83,0.322 -3.678,0.65 -5.546,0.98c-3.752,0.662 -7.574,1.336 -11.462,2.022c-3.852,0.882 -7.77,1.778 -11.748,2.688c-2,0.454 -4.014,0.91 -6.044,1.368c-2.028,0.472 -4.016,1.112 -6.054,1.662c-4.078,1.142 -8.208,2.3 -12.392,3.474c-4.166,1.254 -8.298,2.756 -12.548,4.142c-2.124,0.708 -4.258,1.422 -6.404,2.136c-2.144,0.734 -4.224,1.632 -6.36,2.444c-4.272,1.668 -8.584,3.35 -12.934,5.05c-17.134,7.42 -34.604,16.064 -51.734,26.258c-16.99,10.372 -33.702,22.094 -49.676,35.022c-15.756,13.144 -30.724,27.444 -44.598,42.548c-13.698,15.24 -26.096,31.34 -37.33,47.638c-2.662,4.17 -5.302,8.304 -7.918,12.402c-1.29,2.064 -2.666,4.08 -3.876,6.166c-1.196,2.096 -2.386,4.182 -3.57,6.256c-2.344,4.168 -4.796,8.25 -6.998,12.392c-2.124,4.19 -4.224,8.328 -6.294,12.412c-1.016,2.054 -2.12,4.066 -3.052,6.126c-0.922,2.066 -1.838,4.118 -2.746,6.156c-1.826,4.09 -3.624,8.12 -5.392,12.08c-1.576,4.048 -3.126,8.026 -4.646,11.93c-0.76,1.962 -1.514,3.906 -2.26,5.83c-0.374,0.962 -0.744,1.922 -1.114,2.876c-0.322,0.968 -0.64,1.934 -0.956,2.892c-1.272,3.844 -2.518,7.612 -3.736,11.294c-0.608,1.848 -1.214,3.674 -1.81,5.476c-0.612,1.804 -1.03,3.626 -1.546,5.406c-0.986,3.578 -1.946,7.066 -2.88,10.454c-0.924,3.4 -1.912,6.694 -2.556,9.942c-0.042,0.196 -0.086,0.384 -0.128,0.58c30.306,4.52 53.66,30.294 54.44,61.674z" /></svg>