<svg xmlns="http://www.w3.org/2000/svg" viewBox="0 0 975 993" width="975" height="993"><path d="M497,299.096c-32.964,0 -59.686,-26.724 -59.686,-59.686v-179.06c0,-32.964 26.722,-59.686 59.686,-59.686c32.962,0 59.688,26.722 59.688,59.686v179.06c0,32.964 -26.726,59.686 -59.688,59.686z" /> <path d="M497,992.956c-20.602,0 -37.304,-16.702 -37.304,-37.304v-179.06c0,-20.602 16.702,-37.304 37.304,-37.304c20.604,0 37.304,16.704 37.304,37.304v179.06c0,20.602 -16.7,37.304 -37.304,37.304z" /> <path d="M362.756,331.36c-19.34,0 -38.146,-10.034 -48.512,-27.988l-89.53,-155.07c-15.452,-26.764 -6.282,-60.986 20.482,-76.438c26.762,-15.45 60.986,-6.284 76.438,20.482l89.53,155.072c15.452,26.764 6.282,60.986 -20.482,76.438c-8.81,5.084 -18.432,7.504 -27.926,7.504z" /> <path d="M720.856,929.256c-11.602,0 -22.886,-6.022 -29.108,-16.792l-89.53,-155.07c-9.27,-16.056 -3.77,-36.592 12.29,-45.864c16.056,-9.264 36.59,-3.77 45.864,12.292l89.532,155.068c9.27,16.058 3.768,36.592 -12.292,45.864c-5.286,3.048 -11.06,4.502 -16.756,4.502z" /> <path d="M264.344,425.94c-8.86,0 -17.838,-2.256 -26.064,-7.006l-155.072,-89.53c-24.978,-14.422 -33.538,-46.362 -19.116,-71.342c14.42,-24.978 46.364,-33.538 71.342,-19.116l155.07,89.53c24.98,14.422 33.538,46.362 19.116,71.34c-9.668,16.756 -27.226,26.124 -45.276,26.124z" /> <path d="M884.648,761.674c-5.064,0 -10.196,-1.29 -14.894,-4.004l-155.068,-89.53c-14.274,-8.24 -19.164,-26.494 -10.924,-40.768c8.242,-14.276 26.496,-19.166 40.766,-10.924l155.07,89.532c14.274,8.24 19.164,26.492 10.924,40.766c-5.53,9.574 -15.562,14.928 -25.874,14.928z" /> <path d="M228.41,556.496h-179.06c-26.784,0 -48.496,-21.712 -48.496,-48.496c0,-26.784 21.712,-48.496 48.496,-48.496h179.06c26.784,0 48.496,21.712 48.496,48.496c0,26.784 -21.712,48.496 -48.496,48.496z" /> <path d="M944.65,537.844c-0.002,0 0,0 0,0h-179.06c-16.482,-0.002 -29.844,-13.364 -29.844,-29.844c0,-16.48 13.364,-29.844 29.844,-29.844c0.002,0 0,0 0,0h179.06c16.482,0 29.844,13.362 29.844,29.844c0,16.48 -13.364,29.844 -29.844,29.844z" /> <path d="M109.366,776.598c-15.472,0 -30.518,-8.028 -38.81,-22.39c-12.362,-21.41 -5.026,-48.79 16.384,-61.148l155.072,-89.532c21.41,-12.368 48.79,-5.028 61.15,16.384c12.362,21.412 5.026,48.79 -16.384,61.15l-155.072,89.53c-7.05,4.07 -14.748,6.006 -22.34,6.006z" /> <path d="M729.632,403.552c-10.314,0 -20.346,-5.352 -25.874,-14.926c-8.24,-14.274 -3.35,-32.526 10.924,-40.768l155.07,-89.528c14.272,-8.236 32.526,-3.352 40.768,10.922c8.24,14.274 3.35,32.526 -10.924,40.768l-155.07,89.528c-4.7,2.714 -9.83,4.004 -14.894,4.004z" /> <path d="M273.136,936.716c-6.962,0 -14.016,-1.774 -20.48,-5.504c-19.626,-11.332 -26.35,-36.428 -15.02,-56.054l89.53,-155.07c11.33,-19.628 36.426,-26.352 56.054,-15.022c19.626,11.332 26.35,36.43 15.02,56.054l-89.53,155.072c-7.598,13.166 -21.392,20.524 -35.574,20.524z" /> <path d="M631.266,305.242c-5.062,0 -10.196,-1.29 -14.894,-4.002c-14.274,-8.242 -19.164,-26.494 -10.924,-40.766l89.534,-155.07c8.24,-14.274 26.492,-19.166 40.766,-10.922c14.274,8.242 19.164,26.494 10.924,40.766l-89.532,155.07c-5.53,9.57 -15.56,14.924 -25.874,14.924z" /></svg>