<svg xmlns="http://www.w3.org/2000/svg" viewBox="0 0 1024 903" width="1024" height="903"><path d="M416,807c0,-53.019 42.981,-96 96,-96c53.019,0 96,42.981 96,96c0,53.019 -42.981,96 -96,96c-53.019,0 -96,-42.981 -96,-96zM0,391c0,-53.019 42.981,-96 96,-96c53.019,0 96,42.981 96,96c0,53.019 -42.981,96 -96,96c-53.019,0 -96,-42.981 -96,-96zM832,391c0,-53.019 42.981,-96 96,-96c53.019,0 96,42.981 96,96c0,53.019 -42.981,96 -96,96c-53.019,0 -96,-42.981 -96,-96zM121.844,96.844c0,-53.019 42.981,-96 96,-96c53.019,0 96,42.981 96,96c0,53.019 -42.981,96 -96,96c-53.019,0 -96,-42.981 -96,-96zM710.156,685.156c0,-53.019 42.981,-96 96,-96c53.019,0 96,42.981 96,96c0,53.019 -42.981,96 -96,96c-53.019,0 -96,-42.981 -96,-96zM121.844,685.156c0,-53.019 42.981,-96 96,-96c53.019,0 96,42.981 96,96c0,53.019 -42.981,96 -96,96c-53.019,0 -96,-42.981 -96,-96zM710.156,96.844c0,-53.019 42.981,-96 96,-96c53.019,0 96,42.981 96,96c0,53.019 -42.981,96 -96,96c-53.019,0 -96,-42.981 -96,-96z" /></svg>