<svg xmlns="http://www.w3.org/2000/svg" viewBox="0 0 864 1024" width="864" height="1024"><path d="M384,224c0,105.924 -63.022,194.666 -147.706,217.998l31.788,518.124c2.154,35.132 -24.882,63.878 -60.082,63.878h-32c-35.2,0 -62.236,-28.746 -60.082,-63.878l31.788,-518.124c-84.684,-23.332 -147.706,-112.074 -147.706,-217.998c0,-123.712 85.96,-224 192,-224c106.04,0 192,100.288 192,224zM864,0v416c0,17.672 -14.326,32 -32,32h-83.338l31.42,512.122c2.154,35.132 -24.882,63.878 -60.082,63.878h-32c-35.2,0 -62.236,-28.746 -60.082,-63.878l31.42,-512.122h-83.338c-17.674,0 -32,-14.328 -32,-32v-416h26.666l53.334,320h40l26.666,-320h26.668l26.666,320h40l53.334,-320z" /></svg>