<svg xmlns="http://www.w3.org/2000/svg" viewBox="0 0 1024 1024" width="1024" height="1024"><path d="M1024,512c0,281.6 -230.4,512 -512,512c-281.6,0 -512,-230.4 -512,-512c0,-281.6 230.4,-512 512,-512c284.2,0 512,230.4 512,512zM734.6,696.4c-133,-82 -302,-100 -496.6,-56.4c-15.4,5.2 -28.2,20.4 -23,38.4c5.2,15.4 20.4,28.2 38.4,23c179.2,-41 330.2,-25.6 450.6,48.6c15.4,10.2 33.4,5.2 43.6,-10.2c7.6,-15.4 5,-35.8 -13,-43.4zM798.8,548c-158.8,-97.4 -389.2,-125.6 -576,-69.2c-20.4,5 -30.8,28.2 -25.6,48.6c5,20.4 28.2,30.8 48.6,25.6c161.2,-51.2 371.2,-25.6 509.4,58.8c18,12.8 41,5.2 53.8,-12.8c12.8,-17.8 5,-43.4 -10.2,-51zM880.8,443c12.8,-23 5,-53.8 -18,-66.6c-189.6,-112.8 -489,-123 -670.8,-69.2c-23.2,7.6 -38.4,33.2 -30.8,58.8c7.6,23.2 33.2,38.4 58.8,30.8c156.2,-48.8 430.2,-38.4 594,58.8c23.2,12.8 53.8,5.2 66.8,-12.6z" /></svg>