<svg xmlns="http://www.w3.org/2000/svg" viewBox="0 0 906 898" width="906" height="898"><path d="M450.888,439.365c1.131,-0.904 2.354,-1.764 3.666,-2.443c4.751,-2.535 10.682,-1.222 15.932,-1.131c4.933,0.045 9.913,2.534 13.352,5.93c2.535,2.489 6.111,6.563 7.469,9.867c0.859,1.992 3.032,3.666 3.62,5.612c0.95,3.078 0.227,9.008 -0.996,11.859c-0.769,1.811 -2.127,3.034 -3.077,4.708c-0.859,1.584 -0.951,3.35 -1.72,4.934c-1.312,2.67 -4.255,5.251 -6.336,7.378c-1.131,1.086 -2.624,2.263 -4.028,2.897c-1.313,0.634 -3.123,0.408 -4.527,0.861c-1.628,0.543 -3.169,1.402 -5.024,1.855c-4.027,0.906 -8.101,1.268 -12.22,0.634c-3.305,-0.543 -7.334,-0.181 -10.366,-1.855c-1.99,-1.086 -2.851,-3.259 -4.39,-4.843c-1.22,-1.312 -2.67,-2.173 -3.62,-3.712c-1.809,-2.943 -1.991,-6.7 -2.67,-10.004c-0.725,-3.305 -1.357,-6.881 -0.272,-10.366c2.942,-9.415 7.423,-15.842 15.208,-22.178z" /> <path d="M431.607,334.132c-2.535,8.147 -6.427,15.524 -11.181,21.001c-3.485,4.028 -6.835,7.106 -11.405,9.867c-4.708,2.897 -9.912,3.439 -13.805,7.604c-3.396,3.62 -6.654,11.632 -9.823,16.159c-5.839,8.374 -13.67,18.966 -15.705,29.148c-1.946,9.686 1.449,20.143 2.127,29.783c0.724,9.912 1.72,17.833 6.427,26.298c8.012,14.528 18.829,30.824 35.621,36.345c21.862,7.197 42.999,10.229 64.951,3.123c11.678,-3.757 20.459,-5.748 29.104,-13.397c-5.612,27.021 -51.192,37.341 -73.958,30.009c-14.666,-4.708 -32.679,-7.558 -45.444,-16.52c-13.851,-9.823 -25.528,-24.713 -33.767,-39.017c-6.336,-11.135 -12.22,-29.737 -8.69,-42.456c2.489,-8.871 5.069,-14.666 5.885,-24.667c0.815,-9.867 2.173,-19.735 6.743,-28.651c7.876,-15.344 26.071,-21.5 37.568,-33.675c12.312,-13.035 21.047,-26.025 10.455,-42.365c-9.505,-14.666 -28.017,-21.409 -45.172,-18.602c-11.859,1.992 -15.843,8.871 -20.64,19.236c0.815,-14.936 9.008,-30.144 23.944,-34.218c24.894,-6.789 38.745,-7.242 57.935,10.727c13.578,12.763 14.71,35.531 8.827,54.269z" /> <path d="M533.446,382.109c-3.077,-2.535 -11.813,-7.92 -24.17,-12.628c12.177,-7.423 34.717,-1.992 45.987,4.708c14.077,8.284 26.478,24.532 35.667,37.659c6.698,9.506 13.533,20.323 18.467,30.869c11.722,25.211 4.662,54.043 0.135,79.752c-1.312,7.513 -1.584,15.797 -4.209,23.129c-3.258,9.188 -9.369,11.86 -15.389,18.784c-4.979,5.75 -6.292,12.992 -12.085,17.97c-5.839,5.115 -13.173,8.146 -18.966,14.031c-11.723,11.86 -24.26,27.792 -27.836,44.493c-4.392,20.548 13.216,28.108 28.198,31.91c5.974,1.539 21.544,3.35 26.84,0.408c-16.61,9.189 -56.17,25.799 -64.589,-1.765c-3.394,-11.043 -5.205,-33.721 -2.625,-45.126c3.124,-13.988 17.742,-26.705 26.795,-37.071c11.813,-13.486 24.125,-24.983 31.367,-41.595c8.284,-18.965 8.012,-37.343 9.008,-57.71c0.996,-20.82 -2.443,-40.782 -11.405,-59.203c-5.023,-10.276 -12.175,-17.654 -18.693,-26.932c-6.563,-9.324 -15.614,-13.353 -22.495,-21.681z" /> <path d="M508.235,331.644c22.902,-6.835 47.119,-9.869 70.79,-10.954c20.685,-0.907 36.39,0.135 54.541,11.043c16.204,9.731 29.737,23.22 45.172,34.037c11.406,8.01 26.072,16.791 32.815,29.329c7.65,14.166 5.342,27.745 8.419,42.772c1.72,8.328 3.123,16.34 3.531,24.759c0.813,16.701 -4.934,35.848 -8.646,51.961c-4.119,18.059 -13.443,39.559 -27.021,52.414c-12.356,11.722 -21.363,11.27 -36.526,8.69c4.436,-7.241 17.698,-9.188 24.306,-14.122c10.638,-7.966 15.119,-22.041 19.735,-33.81c6.381,-16.25 7.558,-32.273 6.562,-49.744c-0.543,-9.505 -1.901,-18.693 -1.901,-28.379c0.089,-23.806 -7.288,-40.691 -23.447,-57.754c-8.239,-8.735 -19.417,-11.451 -29.602,-17.109c-17.606,-9.821 -32.226,-23.174 -51.146,-30.325c-27.112,-10.274 -52.233,-4.39 -79.797,0.272c-11.815,1.991 -24.489,5.296 -34.536,12.22c-10.637,7.287 -15.706,15.887 -22.224,26.388c-15.163,24.397 -40.464,35.939 -41.007,67.396c-18.604,-5.793 -10.683,-30.099 -6.111,-43.361c7.152,-20.729 29.601,-41.144 47.571,-53.319c14.937,-10.093 31.367,-17.29 48.522,-22.405z" /> <path d="M56.878,569.316c-5.069,21.274 10.093,53.818 24.805,68.346c19.825,19.554 38.971,41.234 64.68,53.455c9.912,4.708 16.52,7.061 28.017,7.423c12.131,0.408 23.401,4.481 36.437,3.485c9.641,-0.724 29.51,1.131 36.075,-6.924c-14.439,35.894 -97.268,41.868 -123.611,21.636c-9.37,-7.197 -16.25,-17.743 -24.94,-25.166c-11.723,-10.047 -16.793,-23.174 -26.433,-35.033c-13.94,-17.244 -26.932,-36.934 -31.864,-58.887c-5.342,-23.809 2.761,-44.267 12.131,-65.766c2.897,7.831 9.324,39.242 4.708,37.433z" /> <path d="M534.99,517.853c-0.316,2.489 -0.769,4.932 -1.493,7.332l-0.046,-1.267c-5.568,21.093 -22.767,37.75 -39.741,50.695c-13.805,10.501 -28.698,20.775 -46.214,21.725c-21.59,1.133 -42.184,6.654 -63.593,8.646c-17.969,1.674 -36.799,0.77 -54.813,-0.272c-19.509,-1.088 -46.846,-5.342 -62.462,-18.332c-18.421,-15.343 -34.625,-34.806 -48.476,-54.269c-9.731,-13.624 -19.146,-35.53 -8.147,-50.965c4.843,15.072 8.689,32.952 17.878,46.711c9.052,13.624 25.437,24.578 39.876,31.367c27.385,12.945 56.171,23.898 86.135,28.425c30.596,4.616 54.904,-2.716 84.233,-7.288c8.6,-1.358 18.693,-4.073 26.343,-8.419c10.094,-5.749 19.69,-13.127 28.787,-20.912c4.209,-3.576 8.282,-7.288 12.266,-10.908c21.816,-19.871 29.601,-60.516 21.544,-88.352c-1.538,-5.295 -4.753,-9.549 -8.238,-13.533c-5.024,-5.839 -12.085,-14.212 -17.924,-18.377c-0.861,-0.588 9.187,0.543 10.817,1.177c4.978,2.037 9.323,5.341 13.216,9.053c7.649,7.377 13.67,17.063 17.29,27.021c7.559,20.685 -4.572,40.599 -7.242,60.742z" /> <path d="M724.183,621.322c-1.765,2.037 -3.576,4.119 -5.386,6.201c-31.457,35.848 -77.173,63.412 -126.645,58.75c-13.489,-1.267 -26.932,3.258 -40.419,2.807c-14.62,-0.543 -14.528,-6.881 -21.455,-17.336c3.485,5.296 10.32,7.378 18.558,7.558c19.372,0.408 46.665,-9.823 57.303,-13.489c20.685,-7.061 42.275,-16.34 60.834,-27.928c16.475,-10.32 30.371,-24.079 45.218,-36.164c15.797,-12.809 31.321,-28.651 38.021,-48.476c7.242,-21.544 9.867,-44.267 11.316,-66.897c1.267,-19.328 -1.404,-41.37 4.435,-59.927c8.282,-26.433 29.375,-51.645 53.365,-65.269c8.646,-4.934 20.594,-10.455 30.733,-10.727c10.139,-0.316 17.97,6.246 26.932,9.823c21.455,8.6 29.421,34.037 28.606,55.537c-0.408,11.181 -2.716,18.92 -11.769,24.441c-7.469,4.616 -20.051,14.982 -29.375,13.262c7.242,-10.32 21.455,-20.775 23.628,-33.675c1.901,-11.089 -3.847,-26.388 -9.505,-35.621c-4.934,-8.057 -3.531,-11.813 -12.538,-12.493c-11.089,-0.861 -31.594,2.081 -40.464,8.916c-29.783,23.083 -35.983,70.654 -42.953,105.371c-5.386,27.158 -13.127,51.69 -22.359,77.762c-13.127,37.16 -44.041,70.384 -77.716,90.298c-14.666,8.69 -31.005,23.853 -47.253,27.701c-17.516,4.165 -36.572,3.757 -52.822,3.757h3.032z" /> <path d="M386.978,198.165c1.449,2.625 2.716,5.431 3.666,7.469c0.543,1.131 3.258,14.304 1.901,13.035c-11.405,-10.863 -25.8,-21.363 -42.049,-16.928c-16.612,4.481 -37.975,9.37 -52.685,18.196c-7.197,4.3 -10.908,11.362 -15.886,17.97c-10.863,14.439 -18.558,31.232 -22.043,48.974c-7.288,37.296 -10.139,77.263 -0.769,114.333c7.966,31.594 24.125,56.488 43.723,81.835c15.524,20.143 34.943,40.012 58.842,49.156c-10.366,3.531 -34.083,1.404 -43.949,-3.439c-14.936,-7.332 -29.602,-23.401 -40.691,-35.441c-17.155,-18.648 -29.104,-44.267 -39.106,-67.215c-10.636,-24.486 -20.731,-46.033 -13.443,-73.008c7.785,-29.059 13.896,-58.523 21.681,-87.582c5.205,-19.463 7.197,-44.493 25.029,-56.804c21.001,-14.485 48.114,-26.388 74.32,-23.628c12.131,1.312 28.109,-2.67 37.433,7.106c1.404,1.449 2.761,3.666 4.028,5.974z" /> <path d="M470.849,286.924c-1.042,4.797 -2.4,9.55 -4.435,14.167c-5.974,13.443 -15.616,25.936 -26.751,35.531c-13.578,11.632 -31.321,32.136 -51.645,29.51c2.942,-9.777 17.97,-14.077 25.029,-20.594c8.374,-7.739 15.57,-19.328 22.632,-27.746c10.093,-11.994 14.71,-28.198 16.747,-43.86c1.449,-10.999 1.085,-24.306 -0.497,-35.168c-10.592,-72.104 -96.817,-147.782 -172.676,-114.152c-20.005,8.871 -28.109,22.224 -42.14,37.296c-7.966,-26.659 12.357,-50.332 37.341,-55.084c16.928,-3.214 36.663,-3.938 52.957,-9.143c13.489,-4.3 11.27,-3.531 23.536,3.439c6.382,3.576 14.982,4.435 21.997,5.93c13.308,2.761 27.202,4.481 39.287,9.731c11.678,5.115 17.336,12.312 26.478,20.685c11.904,10.863 12.266,20.912 18.648,34.943c4.481,9.867 10.501,18.24 14.212,29.194c9.823,28.741 5.566,56.714 -0.724,85.32z" /> <path d="M578.393,579.41c-8.827,10.592 -25.029,17.244 -33.767,26.343c-17.426,18.014 -19.236,47.888 -28.56,70.293c-15.797,37.749 -45.263,67.939 -85.41,78.62c-8.735,2.354 -17.2,7.469 -26.298,8.554c-13.127,1.539 -31.14,0.453 -44.222,-1.63c-22.133,-3.531 -41.687,-15.208 -61.647,-24.713c-36.482,-17.381 -83.962,-20.367 -115.826,8.193c-17.426,15.57 -30.236,32.453 -33.902,55.808c-3.35,21.636 12.582,32.679 21.725,49.699c-11.043,0.634 -24.848,0 -33.629,-7.151c-12.447,-10.047 -11.043,-35.26 -9.505,-50.106c2.354,-22.721 26.478,-42.23 41.37,-58.072c8.646,-9.234 22.089,-23.22 33.629,-28.606c6.336,-2.942 16.882,-3.169 23.717,-4.616c8.827,-1.901 17.063,-6.065 25.89,-7.106c30.236,-3.531 68.889,0.272 92.109,21.5c5.93,5.386 6.881,7.65 15.027,9.505c6.02,1.358 13.94,2.354 20.232,1.765c16.882,-1.493 34.943,-13.216 50.603,-19.598c11.859,-4.797 27.474,-8.419 37.341,-16.612c10.139,-8.374 20.367,-20.64 28.198,-31.14c12.085,-16.113 20.912,-33.54 33.041,-49.2c13.851,-17.924 28.697,-46.892 55.945,-45.669c-0.497,5.431 -2.761,9.958 -6.065,13.94z" /> <path d="M599.122,261.171c-34.263,9.143 -63.367,23.536 -94.236,41.188c8.057,-9.324 8.328,-22.948 17.743,-32.725c14.166,-14.801 28.56,-18.151 47.118,-23.809c17.608,-5.386 34.444,-11.722 52.776,-15.298c33.495,-6.608 70.609,-10.23 103.968,-0.815c22.043,6.2 39.695,14.438 63.096,6.562c18.242,-6.11 32.499,-19.96 40.737,-37.296c9.731,-20.413 1.719,-34.672 -5.885,-53.681c-12.9,-32.182 -4.346,-88.306 35.168,-98.898c10.366,-2.805 35.169,7.016 41.687,15.797c4.573,6.11 6.608,25.527 -0.135,30.869c-3.621,-8.149 -2.082,-16.296 -9.867,-23.447c-6.791,-6.292 -12.9,-5.25 -21.319,-1.811c-15.252,6.292 -22.268,18.785 -25.256,34.717c-2.173,11.677 2.489,17.832 6.743,27.836c1.584,3.757 1.131,6.246 3.439,9.596c1.766,2.58 5.342,3.439 6.881,6.427c2.489,4.978 2.127,11.496 3.531,16.701c6.381,22.993 9.958,50.106 -9.324,68.98c-12.99,12.719 -32.136,18.785 -46.122,30.009c-9.413,7.559 -21.771,15.978 -34.218,16.974c-26.659,2.082 -55.673,-16.069 -80.296,-23.989c-30.552,-9.821 -65.903,-1.99 -96.228,6.111z" /> <path d="M506.651,298.737c5.793,-11.043 12.493,-19.598 16.204,-31.91c4.346,-14.574 8.374,-28.109 11.043,-43.18c2.535,-14.574 3.169,-29.602 0.905,-44.267c-2.173,-13.851 -8.871,-25.256 -12.674,-38.518c-6.427,-22.178 -11.859,-39.922 -27.474,-58.117c-29.964,-35.033 -76.041,-56.577 -122.027,-58.162c-22.993,-0.769 -49.788,7.469 -71.334,14.348c-14.258,4.527 -29.286,8.646 -43.407,14.982c-28.922,13.081 -55.583,32.453 -75.996,56.895c-9.823,11.678 -18.602,23.717 -21.137,38.472c-2.897,17.155 -10.954,33.494 -12.538,50.876c-1.312,14.847 3.847,29.602 7.332,43.905c6.743,27.474 1.085,45.126 -16.159,67.079c-32.815,41.822 -104.103,51.734 -126.327,-4.889c-7.061,-17.97 4.797,-36.164 18.648,-46.621c-0.408,18.332 -4.3,39.695 14.212,50.377c20.685,11.994 37.749,9.823 57.257,-3.938c10.954,-7.65 19.282,-18.377 25.166,-30.099c5.885,-11.769 4.3,-17.697 1.584,-29.602c-4.616,-20.232 -8.147,-41.641 -9.097,-62.462c-0.497,-11.904 0.181,-17.924 5.839,-28.787c3.893,-7.513 11.224,-13.805 13.896,-21.862c2.716,-8.147 2.988,-15.751 6.835,-23.989c7.739,-16.701 17.652,-32.952 31.864,-44.945c34.399,-28.968 72.873,-40.826 114.785,-55.446c17.652,-6.155 39.967,-8.735 58.661,-7.739c12.538,0.679 21.862,5.069 33.403,8.374c10.546,3.077 22.359,1.539 33.222,4.3c16.204,4.165 31.367,8.147 44.856,19.282c7.469,6.065 13.624,13.624 21.182,19.644c6.201,5.024 15.435,7.061 20.731,12.855c19.282,20.866 30.009,40.782 39.967,67.939c8.962,24.441 17.244,44.538 16.882,71.108c-0.362,27.791 -11.678,47.48 -25.347,70.473c-8.101,13.624 -21.907,16.974 -31.91,27.971c-1.584,-8.6 8.057,-16.974 12.22,-24.035z" /> <path d="M97.84,445.662c12.855,6.746 23.807,17.382 31.457,29.467c8.692,13.759 5.839,30.007 13.67,44.311c15.073,27.475 31.458,50.876 52.007,74.774c11.632,13.533 23.447,25.166 38.745,34.037c7.559,4.391 19.916,11.497 28.787,8.6c-5.885,7.242 -21.139,2.219 -29.24,0.815c-10.772,-1.946 -23.762,-1.63 -33.585,-6.835c-23.445,-12.357 -40.78,-33.676 -59.112,-52.369c-16.475,-16.702 -16.43,-40.737 -21.59,-62.146c-5.928,-24.578 -19.463,-41.778 -44.13,-50.468c-37.387,-13.216 -71.243,25.437 -68.708,60.923c-5.161,-4.075 -5.432,-29.15 -5.523,-37.478c-0.497,-47.706 62.463,-61.829 97.224,-43.633z" /> <path d="M824.89,504.319c1.358,-5.161 0.905,-26.886 -1.992,-44.81c8.011,6.608 9.369,25.618 13.759,35.033c5.25,11.36 3.214,25.664 0.453,37.93c-3.531,15.616 -4.708,30.914 -10.954,45.534c-7.603,17.834 -14.167,35.894 -21.725,53.772c-9.097,21.635 -9.775,49.563 -25.029,68.03c-15.027,18.194 -40.691,29.827 -61.557,39.468c-15.163,7.015 -28.922,14.619 -45.715,14.031c-16.203,-0.542 -31.095,5.388 -46.665,9.008c-16.476,3.892 -33.631,3.62 -50.332,7.558c-7.829,1.855 -11.54,7.874 -18.24,11.405c-5.34,2.762 -9.912,1.901 -14.574,5.839c-8.327,7.062 -10.727,24.713 -11.043,34.898c-0.317,10.228 6.473,23.083 14.393,29.51c19.417,15.797 73.37,20.459 93.286,4.616c11.858,-9.369 23.808,-23.808 21.681,-39.967c-0.996,-7.423 -10.004,-37.567 -17.562,-36.798c15.389,2.173 28.063,9.459 34.218,25.302c6.292,16.34 3.077,36.664 -1.72,53.184c-5.93,20.549 -25.981,26.161 -44.086,32.091c-10.365,3.395 -22.721,3.576 -33.675,3.938c-14.891,0.588 -24.714,-8.374 -36.934,-14.847c-10.32,-5.476 -26.659,-6.608 -35.486,-15.117c-18.196,-17.608 -29.104,-54.587 -14.031,-76.811c10.908,-16.069 31.095,-35.259 50.603,-38.79c12.447,-2.219 25.528,-2.399 37.84,-5.296c12.899,-3.031 27.156,-3.892 39.287,-8.916c14.393,-5.929 28.109,-11.089 43.995,-11.994c68.572,-3.893 96.182,-89.348 118.134,-141.49c6.745,-15.977 12.13,-32.498 16.023,-49.426c1.857,-8.238 1.811,-20.324 7.65,-26.886z" /> <path d="M593.013,765.302c-10.004,5.523 -20.143,5.115 -31.186,5.342c-11.089,0.227 -20.324,4.572 -30.779,8.916c-10.954,4.616 -19.644,13.081 -30.914,17.471c-6.246,2.4 -12.9,3.439 -18.784,7.016c-7.016,4.165 -11.497,11.27 -17.97,16.113c-5.793,4.346 -12.9,6.654 -18.92,10.636c-6.427,4.3 -9.053,10.501 -13.624,16.159c-13.397,16.566 -33.991,28.334 -54.45,34.58c-22.632,6.835 -41.007,17.471 -65.223,15.254c-21.681,-2.037 -42.818,-1.63 -60.245,-17.426c-7.785,-7.061 -13.851,-14.077 -17.244,-24.216c-6.065,-18.059 -9.053,-31.367 -2.535,-50.06c6.246,-17.97 23.898,-33.178 43.814,-30.371c11.405,1.584 47.253,28.109 35.305,42.953c-0.091,0.091 -18.151,-21.409 -21.001,-23.401c-9.641,-6.518 -27.52,-11.904 -36.482,-1.404c-4.616,5.342 -4.527,18.693 -5.16,25.482c-1.72,18.966 13.94,42.14 30.869,51.192c11.632,6.201 28.063,4.435 40.51,1.267c16.204,-4.165 31.502,-5.974 46.937,-13.489c12.628,-6.155 27.701,-15.344 37.659,-25.347c6.473,-6.518 12.447,-14.982 20.367,-20.685c16.023,-11.451 34.49,-19.372 50.784,-31.005c12.266,-8.781 27.067,-12.582 40.6,-18.739c12.131,-5.566 22.721,-10.727 35.894,-12.447c23.31,-3.032 43.949,-9.324 67.939,-8.057c3.304,12.266 -25.029,20.143 -31.095,27.928c-1.223,-0.181 -0.272,-0.815 4.934,-3.666z" /> <path d="M589.482,201.739c2.127,-10.274 3.757,-19.508 11.089,-28.606c4.843,-6.065 11.497,-10.093 16.656,-15.932c12.9,-14.528 24.397,-26.433 24.623,-47.164c0.362,-30.325 -20.413,-72.465 -51.418,-80.024c-13.94,-3.396 -25.981,1.855 -39.333,3.847c16.385,-17.652 43.135,-27.113 66.354,-16.793c30.009,13.352 40.057,46.756 47.118,75.77c2.988,12.312 4.708,27.067 0.996,39.468c-3.757,12.357 -13.578,22.902 -19.916,33.767c-6.155,10.592 -15.344,17.697 -26.705,22.314c-8.509,3.439 -24.26,4.797 -29.467,13.352z" /></svg>