<svg xmlns="http://www.w3.org/2000/svg" viewBox="0 0 365 1024" width="365" height="1024"><path d="M305.818,135.991c48.027,29.24 56.409,52.217 58.529,79.386c2.071,27.169 -20.956,41.765 -20.956,41.765c0,0 -68.932,-23.57 -160.892,-23.57c-92.008,0 -160.941,23.57 -160.941,23.57c0,0 -22.977,-14.596 -20.906,-41.765c2.121,-27.169 10.503,-50.146 58.529,-79.386c48.026,-29.24 75.491,-68.932 90.135,-102.364c7.84,-17.897 21.4,-32.369 33.184,-33.627c11.785,1.281 26.035,15.729 33.875,33.627c14.645,33.432 41.419,73.124 89.445,102.364z" /> <path d="M331.751,261.732c1.325,3.55 2.317,7.296 2.317,11.293c0,18.293 -14.94,33.233 -33.184,33.233h-236.777c-18.244,0 -33.184,-14.94 -33.184,-33.233c0,-3.997 0.989,-7.743 2.317,-11.293c23.274,-6.552 79.584,-20.068 149.256,-20.068c69.672,0 125.982,13.513 149.255,20.068z" /> <path d="M267.967,354.052c-109.76,-5.77 -170.951,69.572 -170.951,69.572v110.648c54.288,-65.882 170.951,-77.413 170.951,-77.413zM267.967,580.03c-109.76,-5.769 -170.951,69.574 -170.951,69.574v110.647c54.288,-65.826 170.951,-77.413 170.951,-77.413zM267.967,805.268c-109.76,-5.768 -170.951,69.525 -170.951,69.525v110.697c54.288,-65.882 170.951,-77.413 170.951,-77.413zM86.661,319.042h191.71v704.958h-191.71z" /></svg>