<svg xmlns="http://www.w3.org/2000/svg" viewBox="0 0 891 896" width="891" height="896"><path d="M447.243,884.569c-3.945,-6.803 -8.584,-15.139 -10.308,-18.521c-1.724,-3.382 -7.874,-12.733 -13.666,-20.779c-5.792,-8.044 -15.95,-24.741 -22.571,-37.102c-12.406,-23.163 -24.412,-38.768 -33.408,-43.42c-3.4,-1.758 -6.273,-5.66 -8.465,-11.498c-5.029,-13.391 -19.605,-37.183 -30.11,-49.154c-10.58,-12.055 -14.071,-21.508 -11.391,-30.849c3.472,-12.107 9.9,-18.134 22.577,-21.17c4.357,-1.043 5.089,-0.533 6.146,4.279c0.661,3.005 4.436,10.472 8.393,16.592c3.957,6.12 11.163,19.286 16.015,29.258c4.852,9.972 10.553,21.048 12.667,24.613c2.114,3.565 6.267,12.733 9.23,20.372c4.585,11.825 14.624,31.402 24.502,47.775c4.627,7.67 13.386,11.696 24.151,11.099c7.952,-0.441 9.936,0.058 10.773,2.701c0.565,1.783 1.776,3.241 2.693,3.241c2.672,0 23.616,-36.725 34.971,-61.323c4.702,-10.185 10.313,-16.952 33.348,-40.213c22.299,-22.519 35.708,-37.793 43.99,-50.112c0.956,-1.421 9.775,5.437 11.758,9.143c1.697,3.17 0.601,6.471 -6.607,19.908c-9.834,18.333 -22.519,37.708 -37.66,57.518c-19.486,25.495 -24.812,34.501 -42.321,71.56c-21.997,46.556 -25.128,55.127 -23.827,65.201c1.072,8.301 0.449,9.186 -8.215,11.67c-5.313,1.523 -5.722,1.175 -12.663,-10.795zM432.183,630.646c-3.564,-0.862 -10.99,-2.498 -16.499,-3.633c-14.141,-2.914 -43.869,-16.675 -58.358,-27.013c-13.139,-9.374 -32.73,-30.032 -43.127,-45.468c-10.129,-15.042 -24.436,-46.153 -26.796,-58.275c-2.735,-14.043 -2.725,-50.248 0.018,-64.818c3.039,-16.149 31.771,-72.652 43.432,-85.411c16.499,-18.053 42.203,-33.779 61.683,-37.741c5.001,-1.016 13.335,-2.701 18.523,-3.744c5.363,-1.077 27.733,-1.644 51.854,-1.312c40.389,0.553 42.959,0.805 53.615,5.227c32.023,13.289 60.415,38.964 75.79,68.537c19.151,36.835 24.53,63.402 22.759,112.427c-0.816,22.582 -1.545,27.026 -6.671,40.639c-7.687,20.411 -10.181,25.052 -21.651,40.273c-17.324,22.993 -33.431,35.603 -61.665,48.279c-10.069,4.52 -22.383,9.043 -27.365,10.05c-12.509,2.529 -57.643,3.896 -65.542,1.982zM507.846,580.497c26.894,-10.892 58.483,-42.609 72.703,-72.995c5.541,-11.842 5.789,-13.331 4.92,-29.453c-1.113,-20.608 -4.506,-29.398 -15.156,-39.27c-6.585,-6.103 -8.452,-9.351 -10.188,-17.714c-3.839,-18.491 -11.444,-31.366 -29.132,-49.318c-12.247,-12.43 -19.567,-18.18 -28.937,-22.733l-12.543,-6.094l-29.157,1.012c-26.519,0.92 -30.496,1.515 -43.941,6.572c-8.131,3.058 -17.203,6.108 -20.161,6.778c-6.053,1.371 -18.662,9.586 -24.255,15.802c-2.037,2.264 -6.725,5.658 -10.416,7.542c-7.985,4.075 -15.738,12.835 -20.387,23.034c-2.622,5.751 -3.386,12.091 -3.418,28.348c-0.026,11.516 0.721,24.435 1.649,28.706c5.176,23.788 6.143,29.53 7.411,44.004c1.782,20.357 8.197,33.832 23.308,48.965c8.124,8.134 14.349,12.428 23.149,15.967c6.621,2.661 16.205,6.541 21.298,8.621c20.675,8.447 26.849,9.498 52.781,8.988c23.555,-0.463 25.896,-0.854 40.475,-6.757zM412.183,556.073c-1.35,-1.35 -2.222,-7.906 -2.222,-16.691c0,-14.148 -4.445,-35.078 -9.409,-44.311c-1.294,-2.404 -3.038,-7.497 -3.879,-11.317c-0.841,-3.82 -2.325,-10.487 -3.298,-14.816c-2.543,-11.305 -2.21,-31.516 0.8,-48.404c2.153,-12.083 4.207,-17.04 11.899,-28.706c15.258,-23.143 14.577,-22.435 21.568,-22.435c7.511,0 7.721,1.134 2.691,14.372c-2.037,5.358 -3.703,12.999 -3.703,16.981c0,3.982 -1.323,12.401 -2.939,18.711c-2.695,10.522 -2.685,13.716 0.127,38.577c1.687,14.907 4.676,32.035 6.643,38.059c4.921,15.071 4.504,24.072 -2.065,44.582c-4.923,15.371 -6.175,17.616 -9.815,17.616c-2.295,0 -5.173,-1.001 -6.394,-2.222zM475.063,542.091c-2.209,-11.346 -5.467,-34.74 -5.482,-39.354c-0.005,-1.528 -0.632,-17.088 -1.393,-34.579c-1.751,-40.215 0.052,-50.598 10.882,-62.649c6.02,-6.699 8.693,-8.334 13.636,-8.334c3.381,0 6.147,0.208 6.146,0.463c-0.001,0.255 -1.251,7.547 -2.776,16.205c-3.165,17.969 -3.562,43.73 -0.841,54.633c1.016,4.074 2.584,16.575 3.484,27.78c1.55,19.31 1.4,20.951 -2.875,31.476c-5.57,13.716 -12.889,25.009 -16.209,25.009c-1.567,0 -3.271,-3.971 -4.571,-10.648zM647.462,596.238c-4.369,-3.116 -9.71,-11.963 -9.714,-16.09c-0.002,-1.754 2.7,-2.238 9.95,-1.785c12.756,0.795 22.149,-3.828 37.261,-18.337c13.936,-13.381 29.707,-22.985 45.443,-27.671c6.671,-1.987 14.064,-5.414 16.429,-7.617c4.764,-4.438 9.445,-14.342 9.445,-19.98c0,-3.378 0.95,-3.578 12.5,-2.65c11.044,0.889 13.235,0.498 18.795,-3.349c3.462,-2.395 7.799,-7.189 9.639,-10.651c3.252,-6.12 3.243,-6.425 -0.269,-10.89c-4.011,-5.099 -8.071,-18.082 -6.465,-20.679c1.546,-2.499 -7.614,-8.283 -22.162,-13.993c-23.926,-9.391 -70.138,-33.259 -88.384,-45.649c-15.13,-10.275 -22.548,-13.015 -33.621,-12.422l-9.485,0.509l-2.332,-7.065c-2.863,-8.674 -0.544,-19.016 5.955,-26.545l4.421,-5.122l16.35,8.015c8.993,4.408 24.291,12.476 33.997,17.928c9.706,5.452 22.207,11.626 27.78,13.716c5.573,2.092 15.967,7.226 23.096,11.411c7.129,4.185 20.255,10.535 29.169,14.114c8.912,3.577 16.205,7.189 16.205,8.026c0,2.636 19.567,11.223 27.333,11.996c4.089,0.407 15.654,4.834 25.7,9.837c10.046,5.003 20.712,9.68 23.697,10.391c7.665,1.825 18.834,13.66 21.206,22.476c5.126,19.036 -12.173,38.484 -31.02,34.875c-3.581,-0.686 -9.23,1.575 -21.262,8.515c-9.012,5.197 -22.347,11.827 -29.631,14.735c-7.284,2.908 -21.162,9.942 -30.838,15.631c-9.677,5.69 -18.875,10.353 -20.442,10.364c-5.41,0.037 -35.512,11.419 -47.208,17.848c-11,6.046 -45.436,20.316 -53.654,22.231c-2.037,0.475 -5.583,-0.478 -7.881,-2.117zM242.359,588.132c-2.037,-0.703 -11.621,-5.091 -21.298,-9.753c-18.571,-8.947 -35.97,-15.796 -55.076,-21.679c-6.355,-1.957 -22.19,-9.792 -35.188,-17.409c-21.946,-12.863 -46.438,-23.589 -53.864,-23.589c-1.737,0 -8.146,-2.429 -14.243,-5.396c-6.097,-2.967 -14.417,-5.934 -18.492,-6.593c-14.621,-2.365 -26.017,-5.221 -31.101,-7.795c-5.44,-2.753 -12.4,-12.477 -12.411,-17.34c-0.005,-1.575 6.868,-7.35 15.271,-12.832c8.403,-5.482 26.273,-17.529 39.712,-26.768c13.438,-9.239 28.022,-19.111 32.409,-21.936c4.387,-2.825 12.028,-8.034 16.981,-11.574c8.151,-5.825 10.197,-6.436 21.527,-6.436c6.887,0 15.873,-1.183 19.971,-2.628c7.725,-2.725 28.036,-14.791 39.316,-23.352c5.683,-4.315 33.213,-12.911 41.345,-12.911c4.3,0 1.332,9.134 -4.081,12.559c-6.195,3.922 -18.715,12.928 -41.321,29.723c-12.684,9.424 -18.599,15.09 -20.173,19.325c-2.4,6.457 -17.265,17.914 -44.13,34.013c-14.263,8.547 -14.708,9.021 -11.668,12.382c1.74,1.923 5.386,4.644 8.105,6.051c2.987,1.545 5.841,5.277 7.212,9.429c3.331,10.092 17.202,23.821 34.107,33.758c15.281,8.981 39.022,18.696 45.693,18.696c3.387,0 20.881,16.474 40.129,37.787c3.379,3.741 8.562,7.286 11.522,7.877c4.587,0.917 5.105,1.589 3.516,4.558c-1.882,3.515 -6.948,4.191 -13.771,1.836zM351.62,246.145c-8.978,-3.066 -14.962,-9.594 -17.526,-19.117c-1.593,-5.918 -1.183,-9.426 2.435,-20.827c2.393,-7.54 6.56,-17.86 9.261,-22.933c2.701,-5.073 4.909,-10.082 4.909,-11.132c0,-1.05 4.854,-10.641 10.787,-21.313c5.933,-10.672 14.144,-25.654 18.245,-33.293c4.101,-7.639 14.534,-26.39 23.183,-41.67c8.649,-15.28 21.417,-38.801 28.372,-52.272c14.178,-27.461 13.685,-27.158 29.603,-18.058c13.655,7.805 20.557,18.529 29.767,46.256c17.742,53.408 20.79,60.292 39.079,88.254c12.691,19.401 20.895,39.403 26.709,65.098c4.962,21.931 5.154,24.125 2.555,29.151c-4.355,8.421 -19.387,16.159 -26.815,13.802c-3.592,-1.141 -12.341,-21.031 -14.663,-33.333c-0.96,-5.092 -4.796,-17.177 -8.526,-26.853c-3.73,-9.676 -7.987,-22.177 -9.464,-27.78c-1.477,-5.602 -4.386,-13.519 -6.464,-17.593c-4.836,-9.477 -19.136,-24.301 -27.738,-28.752c-5.044,-2.611 -7.754,-5.954 -11.111,-13.709c-2.443,-5.641 -4.906,-10.27 -5.473,-10.288c-0.567,-0.018 -3.704,5.337 -6.97,11.897c-3.266,6.56 -8.351,13.649 -11.305,15.751c-3.512,2.5 -9.668,12.285 -17.814,28.313c-6.845,13.47 -14.259,27.424 -16.474,31.011c-2.215,3.587 -5.568,10.637 -7.451,15.67c-3.736,9.989 -26.421,54.214 -28.452,55.47c-0.693,0.427 -4.589,-0.36 -8.66,-1.751z" /></svg>