<svg xmlns="http://www.w3.org/2000/svg" viewBox="0 0 585 549" width="585" height="549"><path d="M192.318,547.212l47.689,-66.114l5.504,-116.147c-24.459,14.296 -51.972,32.761 -82.545,55.395c-30.57,22.634 -51.97,46.457 -64.199,71.475c-17.12,-27.399 -34.24,-54.203 -51.361,-80.41c-15.897,-27.399 -31.794,-54.799 -47.692,-82.198l84.378,7.15c20.789,-8.338 40.355,-17.273 58.697,-26.803c19.566,-10.723 38.521,-21.442 56.865,-32.165c-20.791,-11.911 -38.521,-21.442 -53.197,-28.592c-13.451,-8.338 -26.902,-14.888 -40.353,-19.653c-12.229,-4.765 -26.292,-7.746 -42.189,-8.934c-15.898,-2.384 -36.686,-3.573 -62.366,-3.573c15.897,-27.399 31.794,-54.203 47.692,-80.411c17.12,-27.399 33.629,-54.798 49.526,-82.196c14.675,20.251 25.68,36.333 33.018,48.246c8.558,11.912 17.119,22.634 25.68,32.164c9.783,8.339 20.787,16.677 33.017,25.015c13.451,8.338 31.795,18.465 55.029,30.38c-2.447,-30.976 -3.668,-53.012 -3.668,-66.116c0,-13.104 -1.225,-23.825 -3.668,-32.164c-1.225,-9.53 -4.893,-19.656 -11.008,-30.377c-4.89,-11.912 -14.062,-31.568 -27.513,-58.967c9.783,0 18.955,0 27.513,0c9.783,-1.191 19.566,-1.787 29.349,-1.787c23.237,0 45.861,0.596 67.869,1.787c22.012,0 44.635,0 67.869,0c-8.558,17.869 -18.341,35.738 -29.349,53.606c-11.004,16.677 -16.508,35.142 -16.508,55.393v82.197c26.906,-16.68 46.471,-28.592 58.697,-35.738c12.229,-8.338 22.623,-16.678 31.184,-25.017c7.336,-7.147 14.062,-15.486 20.176,-25.016c7.34,-10.721 17.733,-26.208 31.184,-46.459c17.119,26.207 33.017,53.011 47.693,80.409c15.898,27.398 32.406,54.798 49.525,82.197c-25.68,3.573 -45.246,5.361 -58.697,5.361c-12.229,0 -23.234,1.189 -33.017,3.573c-8.561,1.192 -19.566,4.765 -33.02,10.723c-12.226,5.954 -31.181,16.677 -56.861,32.161c24.455,13.104 53.193,26.207 86.21,39.314c33.02,13.104 63.59,18.461 91.717,16.08c-17.119,27.399 -33.631,54.799 -49.525,82.194c-14.676,27.399 -30.574,54.799 -47.693,82.198l-34.853,-75.048c-17.119,-10.723 -34.242,-21.442 -51.361,-32.165c-17.119,-10.723 -34.238,-20.846 -51.361,-30.376c0,14.296 0.611,29.78 1.836,46.457c1.221,16.68 3.057,33.953 5.5,51.822c3.672,16.677 7.951,33.353 12.84,50.033c4.893,15.484 11.619,29.184 20.18,41.095c-17.123,1.192 -33.631,1.788 -49.529,1.788c-14.672,0 -30.57,0 -47.689,0c-17.123,0 -33.631,0 -49.529,0c-14.672,0 -30.57,-0.596 -47.689,-1.788z" /></svg>