<svg xmlns="http://www.w3.org/2000/svg" viewBox="0 0 896 896" width="896" height="896"><path d="M256,288v576c0,17.6 -14.4,32 -32,32h-192c-17.6,0 -32,-14.4 -32,-32v-576c0,-17.6 14.4,-32 32,-32h192c17.6,0 32,14.4 32,32zM224,576h-192v256h192zM576,160v704c0,17.6 -14.4,32 -32,32h-192c-17.6,0 -32,-14.4 -32,-32v-704c0,-17.6 14.4,-32 32,-32h192c17.6,0 32,14.4 32,32zM544,512h-192v320h192zM896,32v832c0,17.6 -14.4,32 -32,32h-192c-17.6,0 -32,-14.4 -32,-32v-832c0,-17.6 14.4,-32 32,-32h192c17.6,0 32,14.4 32,32zM864,448h-192v384h192z" /></svg>