<svg xmlns="http://www.w3.org/2000/svg" viewBox="0 0 832 1024" width="832" height="1024"><path d="M832.002,608c0,229.75 -186.25,416 -416,416c-229.75,0 -416,-186.25 -416,-416c0,-218.986 169.202,-398.45 384,-414.788v-65.212h-128v-64c0,-35.346 28.654,-64 64,-64h191.998c35.348,0 64.002,28.654 64.002,64v64h-128v65.212c214.798,16.34 384,195.804 384,414.788zM736.002,608c0,-85.474 -33.286,-165.834 -93.726,-226.274c-58.04,-58.038 -134.45,-91.018 -216.116,-93.55l21.676,314.022c1.862,26.29 -12.464,37.802 -31.836,37.802c-19.372,0 -33.696,-11.512 -31.836,-37.802l21.678,-314.02c-81.666,2.53 -158.074,35.51 -216.114,93.548c-60.44,60.44 -93.726,140.8 -93.726,226.274c0,85.474 33.286,165.834 93.726,226.274c60.44,60.44 140.798,93.726 226.274,93.726c85.476,0 165.832,-33.286 226.274,-93.726c60.44,-60.44 93.726,-140.8 93.726,-226.274z" /></svg>