<svg xmlns="http://www.w3.org/2000/svg" viewBox="0 0 404 962" width="404" height="962"><path d="M12.126,960.665c-4.424,-1.043 -8.472,-4.414 -10.54,-8.778c-1.13,-2.386 -1.283,-3.119 -1.281,-6.145c0.005,-3.978 0.794,-6.145 3.22,-8.83c3.148,-3.485 8.107,-4.897 17.233,-4.908l5.904,-0.008l-0.017,-3.941c-0.009,-2.168 0.197,-4.988 0.489,-6.265c0.4,-1.832 0.417,-5.428 0.066,-16.979c-1.257,-42.95 -1.434,-55.924 -1.441,-105.817c-0.007,-51.356 0.197,-63.183 1.438,-90.255c0.335,-7.202 0.295,-13.26 -0.197,-27.895c-2.955,-88.144 -3.738,-183.695 -2.226,-271.36c0.335,-19.392 0.295,-37.91 -0.098,-77.619c-0.647,-62.658 -0.65,-138.079 -0.008,-156.149c0.459,-12.881 0.453,-13.083 -0.427,-16.575c-0.748,-2.968 -0.893,-4.67 -0.896,-10.61c-0.008,-7.632 0.44,-10.109 2.866,-15.894c3.122,-7.443 10.693,-15.536 18.102,-19.352l1.576,-0.812l-0.263,-5.519c-0.131,-3.036 -0.735,-10.885 -1.316,-17.445c-1.316,-14.789 -1.471,-27.454 -0.417,-34.085c2.304,-14.492 8.751,-23.696 20.325,-29.026c1.967,-0.906 6.598,-3.173 10.294,-5.037c17.648,-8.906 35.274,-14.849 56.913,-19.188c8.511,-1.706 8.909,-1.707 8.928,-0.023c0.005,0.449 0.164,0.426 0.755,-0.112c0.722,-0.654 0.781,-0.512 1.651,3.878c3.802,19.193 9.577,35.669 25.687,73.283c3.714,8.671 8.084,19.082 9.713,23.135c2.859,7.121 2.981,7.563 3.608,13.138c0.926,8.23 1.428,18.142 1.445,28.409c0.02,12.743 0.68,30.164 1.402,37.028c0.992,9.411 2.909,18.995 5.039,25.161c0.446,1.298 1.451,4.935 2.229,8.085c4.554,18.445 9.757,33.7 23.875,70.005c8.546,21.978 12.49,32.609 15.97,43.054c7.946,23.852 12.347,44.037 13.791,63.267c0.457,6.058 0.621,6.883 2.617,13.006c2.903,8.905 5.045,16.94 10.27,38.537c8.98,37.114 11.957,45.642 23.849,68.321c4.756,9.07 8.404,20.557 10.315,32.487c1.747,10.901 1.875,13.689 2.243,49.377c0.197,19.122 0.45,35.403 0.562,36.181c0.098,0.778 0.4,3.325 0.64,5.66c0.23,2.334 0.807,6.519 1.261,9.298c0.676,4.141 1.067,5.454 2.167,7.277c9.295,15.386 16.943,34.851 26.286,66.906c5.391,18.495 9.11,30.627 11.238,36.661c1.556,4.41 2.485,6.191 6.644,12.734c18.189,28.612 31.05,57.807 40.662,92.302c5.349,19.195 10.68,47.609 10.961,58.416c0.131,5.037 0.61,7.156 4.286,18.867c3.277,10.438 4.12,14.068 4.174,17.922c0.033,3.578 -0.68,5.417 -2.466,6.232c-2.479,1.129 -80.516,-0.043 -118.769,-1.785c-10.015,-0.456 -18.137,-0.497 -40.427,-0.203c-88.161,1.156 -107.151,1.306 -137.855,1.087c-31.345,-0.223 -49.275,-0.604 -68.668,-1.456c-7.931,-0.349 -8.053,-0.341 -10.106,0.596c-4.403,2.01 -9.421,2.676 -13.299,1.762zM290.364,803.427v-37.61l-42.145,0.233c-41.513,0.227 -64.841,0.646 -79.54,1.424c-10.166,0.538 -11.244,0.55 -16.52,0.181l-4.594,-0.322l0.263,6.634c0.197,5.557 0.295,22.949 0.197,49.082c-0.013,4.58 0.853,13.691 1.353,14.187c0.68,0.681 87.323,3.219 120.365,3.527c5.225,0.05 12.002,0.131 15.059,0.181l5.559,0.092zM343.54,840.488c0.008,-0.032 -0.131,-9.428 -0.328,-20.878c-0.263,-17.088 -0.437,-21.037 -0.929,-22.033c-0.328,-0.668 -1.793,-2.941 -3.253,-5.053c-5.015,-7.258 -8.384,-15.26 -9.836,-23.353c-0.413,-2.298 -0.824,-4.252 -0.916,-4.343c-0.098,-0.092 -3.614,0.004 -7.829,0.21c-4.215,0.206 -8.511,0.381 -9.545,0.387l-1.882,0.013l-0.197,5.357c-0.098,2.947 -0.417,6.812 -0.686,8.59c-0.669,4.434 -0.295,13.144 1.208,27.49c1.865,17.876 1.996,25.701 0.551,32.926l-0.197,1.043l16.91,-0.148c9.3,-0.083 16.916,-0.177 16.925,-0.207zM132.542,830.02c-0.131,-3.613 -0.437,-17.939 -0.673,-31.836c-0.23,-13.897 -0.463,-26.41 -0.505,-27.807l-0.066,-2.54l-14.149,-0.125c-13.843,-0.122 -16.143,-0.312 -20.43,-1.672c-0.643,-0.203 -0.728,0.24 -0.923,4.741c-0.131,2.731 -0.398,5.875 -0.623,6.987c-0.811,3.991 -0.509,15.205 0.781,29.107c0.818,8.809 1.248,15.833 1.261,20.677l0.023,7.336l2.479,0.236c1.362,0.131 7.48,0.433 13.595,0.673c6.115,0.24 11.39,0.495 11.724,0.567c0.335,0.072 2.216,0.151 4.187,0.177l3.58,0.046l-0.23,-6.569zM262.671,750.691c9.116,-0.329 19.167,-0.712 22.335,-0.85l5.761,-0.253v-26.373c0,-14.505 0.131,-29.379 0.263,-33.053l0.263,-6.68l-6.024,-0.269c-32.47,-1.451 -78.112,-2.681 -121.595,-3.277l-16.931,-0.233l0.263,31.245c0.131,17.185 0.371,33.032 0.503,35.217l0.23,3.972l6.927,-0.302c11.845,-0.514 38.352,-0.409 43.716,0.174c2.669,0.289 7.125,0.668 9.905,0.843c8.707,0.546 37.096,0.46 54.374,-0.164zM130.993,731.38c-0.066,-10.506 -0.021,-26.378 0.098,-35.272l0.197,-16.17l-17.99,0.148c-9.895,0.083 -17.998,0.171 -18.009,0.203c-0.197,0.56 0.588,69.081 0.788,69.28c0.459,0.459 8.826,0.776 22.385,0.848l12.643,0.066zM324.17,749.37c-0.098,-0.389 -1.31,-4.569 -2.656,-9.289c-3.732,-13.081 -7.565,-24.731 -11.275,-34.271l-1.888,-4.852l-0.098,7.074c-0.066,3.891 0.033,14.806 0.197,24.256l0.295,17.181l5.457,0.22c10.9,0.44 10.183,0.463 9.955,-0.322zM289.617,666.394c-3.676,-15.914 -4.334,-22.144 -4.912,-46.49c-0.23,-9.227 -0.509,-19.012 -0.647,-21.744l-0.263,-4.967l-7.741,0.256c-7.495,0.249 -41.478,-0.131 -93.647,-1.043c-18.889,-0.33 -26.032,-0.591 -28.299,-1.029c-1.668,-0.322 -4.195,-0.705 -5.618,-0.849l-2.587,-0.263l0.295,37.156c0.164,20.435 0.341,37.199 0.391,37.251c0.164,0.177 32.143,1.28 49.962,1.724c25.825,0.645 24.971,0.636 60.438,0.62c28.895,-0.013 32.73,-0.085 32.606,-0.622zM101.369,664.082c4.066,-0.745 15.577,-0.903 24.695,-0.338l5.289,0.328l0.263,-14.065c0.131,-7.735 0.263,-24.186 0.263,-36.556v-22.492l-8.995,0.943c-9.363,0.983 -22.245,1.373 -26.141,0.792l-2.19,-0.325l0.263,11.241c0.131,6.183 0.263,22.588 0.263,36.457l0.001,25.216l1.313,-0.266c0.722,-0.148 2.951,-0.566 4.952,-0.934zM277.51,578.337c2.38,-0.168 4.438,-0.417 4.573,-0.552c0.131,-0.135 0.033,-1.35 -0.197,-2.7c-0.368,-2.03 -0.328,-3.068 0.263,-6.005c1.031,-5.109 1.018,-20.462 -0.027,-26.189c-1.642,-9.009 -4.332,-18.119 -8.727,-29.547l-2.501,-6.504l-17.253,-0.266c-9.49,-0.148 -37.673,-0.266 -62.632,-0.266h-45.378l0.002,30.421c0.001,16.732 0.131,33.037 0.263,36.234l0.263,5.813l41.069,-0.253c24.119,-0.151 42.821,-0.102 45.314,0.118c4.672,0.411 38.075,0.188 44.957,-0.299zM131.892,542.482v-36.186l-36.991,0.21l-0.098,35.486c-0.066,28.182 0.001,35.522 0.404,35.664c0.588,0.207 21.447,0.853 30.525,0.948l6.165,0.066zM107.399,491.669c4.05,-0.368 7.178,-0.36 13.947,0.03c4.799,0.276 9.062,0.538 9.472,0.58c0.713,0.076 0.745,-0.577 0.709,-15.083c-0.021,-8.338 -0.164,-24.832 -0.295,-36.653l-0.263,-21.492l-16.615,-0.19c-9.138,-0.105 -17.084,-0.319 -17.66,-0.473l-1.047,-0.282l-0.263,13.678c-0.131,7.524 -0.263,24.611 -0.263,37.972l-0.001,24.294l3.537,-0.954c1.947,-0.525 5.887,-1.167 8.758,-1.427zM166.052,492.828c10.986,-2.209 52.055,-2.901 87.264,-1.47c5.972,0.243 10.928,0.371 11.013,0.286c0.098,-0.085 -0.942,-3.053 -2.285,-6.594c-3.086,-8.14 -5.817,-17.218 -6.437,-21.396c-1.349,-9.099 -3.959,-17.068 -10.977,-33.529l-4.934,-11.573l-6.299,0.315c-3.465,0.174 -24.628,0.315 -47.029,0.315h-40.729v74.677l8.59,-0.19c5.547,-0.125 9.736,-0.423 11.825,-0.843zM234.979,405.318c0,-0.177 -0.374,-1.952 -0.831,-3.941c-1.084,-4.717 -1.487,-13.978 -0.794,-18.271c0.591,-3.676 1.703,-7.489 3.106,-10.654l1.005,-2.264l-2.619,-5.417c-1.441,-2.979 -3.367,-7.469 -4.279,-9.978c-1.493,-4.105 -5.157,-16.451 -5.877,-19.8l-0.295,-1.319l-6.132,0.015c-3.372,0.008 -8.951,-0.168 -12.398,-0.389c-8.997,-0.579 -30.371,-0.503 -46.029,0.168c-7.418,0.315 -13.583,0.672 -13.7,0.79c-0.131,0.118 -0.295,15.482 -0.417,34.141l-0.197,33.928l3.798,0.233c2.088,0.128 11.075,0.336 19.968,0.46c23.027,0.325 59.251,1.756 61.044,2.413c0.807,0.295 4.649,0.203 4.649,-0.112zM130.467,380.274c-0.164,-11.951 -0.411,-27.05 -0.548,-33.554l-0.263,-11.824l-32.745,-0.072l-0.263,10.041c-0.131,5.523 -0.394,20.34 -0.564,32.928l-0.328,22.888l6.225,0.312c3.424,0.171 8.681,0.44 11.683,0.597c3.002,0.157 8.069,0.315 11.261,0.35l5.804,0.063l-0.295,-21.73zM119.557,318.114l9.99,-0.299l-0.263,-13.189c-0.131,-7.254 -0.433,-21.557 -0.643,-31.785c-0.197,-10.228 -0.384,-20.37 -0.384,-22.538l-0.005,-3.941l-5.963,0.024c-6.278,0.025 -7.961,0.223 -12.229,1.43c-1.815,0.514 -4.014,0.747 -7.111,0.757l-4.483,0.013l-0.263,21.83c-0.164,12.007 -0.45,27.72 -0.663,34.919c-0.197,7.198 -0.328,13.202 -0.23,13.341c0.098,0.139 2.883,0.138 6.214,-0.004c3.331,-0.142 10.554,-0.391 16.048,-0.556zM220.673,317.614c-0.131,-0.389 -0.761,-2.909 -1.432,-5.6c-1.763,-7.064 -4.149,-14.635 -6.291,-19.97c-3.113,-7.752 -5.925,-12.691 -12.551,-22.033c-2.048,-2.888 -7.567,-14.141 -9.615,-19.607l-1.743,-4.649h-21.062c-11.584,0 -21.143,0.092 -21.242,0.203c-0.099,0.111 -0.295,16.256 -0.433,35.879l-0.263,35.676l17.682,0.056c9.725,0.031 24.504,0.177 32.842,0.328c8.338,0.148 17.219,0.306 19.736,0.348c4.188,0.072 4.557,0.018 4.364,-0.63zM184.652,229.484c-1.399,-5.448 -3.279,-18.036 -5.669,-37.9c-1.553,-12.901 -3.001,-23.608 -4.065,-30.044l-0.23,-1.341l-13.62,0.26c-7.492,0.144 -13.848,0.332 -14.126,0.419c-0.398,0.125 -0.505,7.346 -0.505,34.331v34.173l2.728,0.039c1.5,0.022 8.004,0.266 14.453,0.545c6.448,0.276 13.881,0.533 16.518,0.566l4.794,0.063l-0.295,-1.112zM127.849,227.564c0,-0.556 0.295,-2.693 0.653,-4.75c0.92,-5.266 0.551,-16.046 -1.06,-31.028c-1.313,-12.21 -1.73,-22.907 -1.1,-28.348l0.295,-2.677l-4.959,-0.276c-6.28,-0.352 -17.126,-1.31 -20.946,-1.852c-1.612,-0.23 -3.01,-0.338 -3.102,-0.243c-0.098,0.096 -0.033,15.548 0.131,34.34l0.295,34.169l1.858,0.223c1.021,0.122 7.044,0.424 13.38,0.668c6.337,0.247 11.704,0.507 11.926,0.583c0.23,0.076 0.906,0.151 1.517,0.171c0.926,0.026 1.113,-0.138 1.113,-0.979zM130.275,109.154c10.416,-1.05 19.031,-1.664 29.612,-2.111c3.502,-0.148 6.368,-0.385 6.368,-0.528c0,-0.143 -0.713,-2.89 -1.583,-6.107c-2.016,-7.453 -4.614,-15.311 -7.317,-22.134l-2.127,-5.371l-31.241,0.115c-17.183,0.063 -31.346,0.22 -31.473,0.348c-0.831,0.833 -1.163,5.369 -1.012,13.916c0.098,5.114 0.131,12.144 0.131,15.621l-0.033,6.323l5.094,0.461c2.8,0.253 5.821,0.53 6.711,0.613c3.885,0.364 17.772,-0.227 26.883,-1.147z" /></svg>