<svg xmlns="http://www.w3.org/2000/svg" viewBox="0 0 944 832" width="944" height="832"><path d="M0.382,832l192,-640h223.232l192,640h-113.632l-57.6,-192h-264.764l-57.6,192zM210.018,512h187.964l-57.6,-192h-72.764zM624,832l160,-256l160,256z" /> <path d="M855.476,160c15.236,16.998 24.524,39.432 24.524,64c0,52.934 -43.064,96 -96,96h-128c-17.674,0 -32,-14.328 -32,-32c0,-17.672 14.326,-32 32,-32h128c17.644,0 32,-14.356 32,-32c0,-17.644 -14.356,-32 -32,-32h-64c-28.366,0 -53.888,-12.376 -71.476,-32c-15.236,-16.998 -24.524,-39.432 -24.524,-64c0,-52.934 43.064,-96 96,-96h128c17.674,0 32,14.328 32,32c0,17.672 -14.326,32 -32,32h-128c-17.644,0 -32,14.356 -32,32c0,17.644 14.356,32 32,32h64c28.368,0 53.888,12.376 71.476,32z" /></svg>