<svg xmlns="http://www.w3.org/2000/svg" viewBox="0 0 889 710" width="889" height="710"><path d="M779.75,34.95c20.186,20.624 34.313,47.906 42.15,77.6c15.674,59.387 6.392,130.536 -42.8,176.35l-2.05,1.9l-2.5,1.2c-25.338,12.633 -47.911,15.099 -68.45,15.8c-20.539,0.701 -39.32,0.131 -63.9,5.65l-8.4,-37.5c29.244,-6.567 52.115,-5.907 70.95,-6.55c17.675,-0.604 31.828,-2.919 49.45,-11.05c34.414,-33.862 43.111,-88.598 30.6,-136c-6.377,-24.164 -18.013,-45.749 -32.5,-60.55c-14.487,-14.801 -31.039,-22.95 -50.3,-22.95c-30.462,0 -105.942,20.257 -171.25,63.2c21.228,25.057 40.917,54.375 51.75,88.7c13.599,43.088 13.652,92.541 -13.4,137.5l-2.85,4.75l-5,2.5c0,0 -43.986,21.96 -109.2,43.7l-12.15,-36.4c58.956,-19.654 93.131,-36.801 97.8,-39.1c18.075,-33.102 18.834,-67.548 8.15,-101.4c-10.358,-32.819 -31.24,-63.297 -53.05,-86.45c-14.355,0.69 -33.139,3.488 -71.05,5.3c-17.49,0.836 -57.572,-2.174 -82.75,-2.45c48.495,36.055 81.9,90.988 81.9,156.15c0,49.003 -23.224,92.535 -60.95,122.45c-37.726,29.915 -89.606,46.9 -148.65,46.9h-0.8l-0.85,-0.05c-43.314,-3.734 -76.33,-24.827 -96.8,-53.15c-20.47,-28.323 -29.2,-63.061 -29.2,-96.3c0,-34.082 11.3,-68.442 34.75,-94.75c23.45,-26.308 59.364,-43.65 104,-43.65c44.636,0 76.719,18.027 95.05,42.4c18.331,24.373 23.75,53.073 23.75,76.15c0,52.574 -50.517,98.65 -118.8,98.65v-38.4c51.264,0 80.4,-33.347 80.4,-60.25c0,-16.659 -4.494,-37.686 -16.05,-53.05c-11.556,-15.364 -29.288,-27.1 -64.35,-27.1c-35.063,0 -58.951,12.402 -75.35,30.8c-16.399,18.398 -25,43.675 -25,69.2c0,26.365 7.246,53.524 21.9,73.8c14.538,20.116 35.638,34.136 68.35,37.15c51.16,-0.211 94.216,-14.991 123.8,-38.45c29.795,-23.626 46.4,-55.186 46.4,-92.35c0,-89.075 -70.689,-159.65 -160.1,-159.65c-91.965,0 -162.176,52.434 -180.45,143.55c-17.793,88.714 37.692,209.931 151.8,232.75c100.975,20.192 228.248,45.107 310.3,163.5c133.721,-102.465 273.778,-186.343 352.65,-304.65l31.95,21.3c-88.883,133.323 -240.273,218.951 -375.5,324.5l-17.15,13.35l-11.15,-18.65c-72.302,-120.725 -191.44,-140.271 -298.6,-161.7c-136.929,-27.383 -204.006,-167.977 -181.95,-277.95c21.575,-107.571 110.818,-174.4 218.1,-174.4c0.549,0 1.002,0.296 1.55,0.3v-0.2c94.964,7.891 155.272,7.844 195.95,5.9c38.231,-1.827 57.608,-5.214 76.55,-5.65c75.132,-54.433 160.035,-76.7 205.55,-76.7c30.549,0 57.564,13.876 77.75,34.5zM699.85,361v23.45h23.5v38.4h-23.5v23.5h-38.4v-23.5h-23.45v-38.4h23.45v-23.45zM529.2,425v44.8h44.8v38.4h-44.8v44.8h-38.4v-44.8h-44.8v-38.4h44.8v-44.8z" /></svg>