<svg xmlns="http://www.w3.org/2000/svg" viewBox="0 0 1024 1024" width="1024" height="1024"><path d="M1024.002,512c0,53.02 -42.98,96 -96,96c-28.428,0 -53.96,-12.366 -71.536,-32h-189.956l134.32,134.316c26.312,-1.454 53.108,7.854 73.21,27.956c37.49,37.492 37.49,98.276 0,135.766c-37.49,37.49 -98.274,37.49 -135.766,0c-20.102,-20.1 -29.412,-46.898 -27.956,-73.21l-134.318,-134.318v189.956c19.634,17.578 32,43.108 32,71.536c0,53.02 -42.98,96 -96,96c-53.02,0 -96,-42.98 -96,-96c0,-28.428 12.366,-53.96 32,-71.536v-189.956l-134.316,134.32c1.454,26.312 -7.856,53.108 -27.958,73.21c-37.49,37.49 -98.272,37.49 -135.764,0c-37.49,-37.49 -37.49,-98.274 0,-135.766c20.102,-20.102 46.898,-29.412 73.212,-27.956l134.318,-134.318h-189.956c-17.578,19.634 -43.108,32 -71.536,32c-53.02,0 -96,-42.98 -96,-96c0,-53.02 42.98,-96 96,-96c28.428,0 53.958,12.366 71.536,32h189.956l-134.32,-134.318c-26.314,1.456 -53.11,-7.854 -73.212,-27.956c-37.49,-37.49 -37.49,-98.272 0,-135.764c37.49,-37.49 98.274,-37.49 135.764,0c20.102,20.1 29.412,46.898 27.958,73.21l134.318,134.318v-189.954c-19.634,-17.578 -32,-43.108 -32,-71.536c0,-53.02 42.98,-96 96,-96c53.02,0 96,42.98 96,96c0,28.428 -12.366,53.958 -32,71.536v189.954l134.314,-134.318c-1.454,-26.312 7.854,-53.108 27.956,-73.21c37.492,-37.49 98.276,-37.49 135.766,0c37.49,37.49 37.49,98.274 0,135.764c-20.1,20.102 -46.898,29.412 -73.21,27.956l-134.318,134.318h189.956c17.578,-19.634 43.108,-32 71.536,-32c53.02,0 96.002,42.98 96.002,96z" /></svg>