<svg xmlns="http://www.w3.org/2000/svg" viewBox="0 0 896 1024" width="896" height="1024"><path d="M896,576c0,247.424 -200.576,448 -448,448c-247.422,0 -448,-200.576 -448,-448c0,-202.94 134.952,-374.332 320,-429.412v135.956c-36.206,15.804 -69.5,38.408 -98.274,67.182c-60.44,60.44 -93.726,140.8 -93.726,226.274c0,85.474 33.286,165.834 93.726,226.274c60.44,60.44 140.798,93.726 226.274,93.726c85.476,0 165.834,-33.286 226.274,-93.726c60.44,-60.44 93.726,-140.8 93.726,-226.274c0,-85.474 -33.284,-165.834 -93.726,-226.274c-28.774,-28.772 -62.068,-51.376 -98.274,-67.18v-135.958c185.05,55.08 320,226.472 320,429.412zM384,0h128v512h-128z" /></svg>