<svg xmlns="http://www.w3.org/2000/svg" viewBox="0 0 3992 1024" width="3992" height="1024"><path d="M3881.748,578.916c0,0 -1071.228,-519.826 -1803.398,-436.613c-1018.695,115.824 -1753.691,673.015 -1753.691,673.015c0,0 31.231,50.674 57.292,73.356c26.06,22.681 87.694,70.942 87.694,70.942c0,0 -129.611,2.541 -234.335,13.582c-86.729,9.107 -222.133,40.194 -222.133,40.194c0,0 69.838,-143.471 98.863,-205.863c29.025,-62.324 85.351,-259.569 85.351,-259.569c0,0 36.127,122.926 45.365,143.401c14.481,31.851 39.021,61.014 39.021,61.014c0,0 831.103,-626.894 1799.952,-728.998c1035.17,-109.068 1900.123,379.872 1900.123,379.872z" /> <path d="M2080.998,15.906c1037.866,-109.352 1904.273,380.931 1904.273,380.931l6.488,3.44l-103.821,182.068l-3.049,6.097l-6.488,-3.049c0,0 -267.126,-129.85 -625.98,-249.246c-358.852,-119.397 -809.348,-228.017 -1173.328,-186.649c-1009.797,114.812 -1734.044,660.774 -1743.581,667.966c4.631,7.27 29.011,46.381 51.147,65.65c25.627,22.304 87.409,70.614 87.409,70.614l16.416,12.605l-20.612,0.782c0,0 -129.766,2.384 -233.978,13.367c-85.792,9.009 -221.001,40.078 -221.001,40.078l-14.892,3.44l6.488,-13.739c0,0 69.918,-143.524 98.859,-205.734c14.032,-30.122 35.369,-95.285 53.055,-152.297c17.681,-57.01 32.064,-106.109 32.064,-106.109l6.879,-24.428l7.25,24.045c0,0 8.911,30.882 19.093,64.126c10.174,33.242 21.744,70.146 25.574,78.628c12.624,27.788 31.039,49.305 34.733,53.819c10.143,-7.622 831.456,-624.608 1797.017,-726.365zM2082.585,30.811c-966.169,101.819 -1796.255,727.508 -1796.255,727.508l-5.726,4.202l-4.573,-5.335c0,0 -25.011,-29.82 -40.078,-62.978c-5.414,-11.98 -16.137,-46.819 -26.338,-80.157c-6.449,-21.053 -8.677,-28.557 -12.214,-40.459c-4.476,15.497 -11.032,38.364 -24.81,82.828c-17.745,57.192 -38.83,122.003 -53.819,154.204c-27.217,58.509 -84.319,176.223 -92.371,192.756c16.103,-3.655 126.213,-28.808 208.025,-37.407c96.691,-10.182 197.628,-12.195 216.037,-12.586c-14.93,-11.726 -51.241,-39.971 -73.285,-59.162c-27.954,-24.331 -58.781,-75.195 -58.781,-75.195l-3.44,-5.726l5.335,-3.811c0,0 736.395,-558.376 1757.322,-674.454c368.188,-41.845 819.631,67.7 1179.435,187.411c356.069,118.47 615.907,244.681 621.399,247.339l93.133,-163.366c-10.612,-5.96 -862.936,-483.697 -1889.005,-375.586z" /></svg>