<svg xmlns="http://www.w3.org/2000/svg" viewBox="0 0 1249 576" width="1249" height="576"><path d="M931.316,575.834c-12.842,-1.238 -23.644,-3.21 -42.962,-7.844c-23.189,-5.562 -36.42,-7.309 -55.229,-7.291c-19.243,0.018 -32.765,1.958 -53.537,7.673c-19.306,5.314 -28.883,6.809 -45.779,7.15c-19.875,0.401 -32.99,-1.382 -53.87,-7.322c-34.485,-9.807 -67.229,-10.454 -99.396,-1.958c-31.772,8.393 -40.217,9.671 -61.233,9.276c-17.24,-0.321 -26.339,-1.724 -45.617,-7.016c-22.595,-6.206 -37.576,-8.162 -58.651,-7.659c-19.346,0.464 -37.132,3.236 -57.686,8.99c-3.717,1.04 -7.657,2.129 -8.757,2.415c-3.551,0.923 -11.752,1.899 -22.541,2.678l-10.541,0.761l-1.661,-1.026c-2.714,-1.679 -3.085,-2.936 -3.083,-10.445c0.005,-7.727 0.437,-9.755 2.457,-11.453c2.231,-1.877 5.486,-2.565 17.331,-3.664c17.807,-1.652 26.168,-3.141 40.514,-7.218c10.404,-2.957 16.986,-4.443 26.105,-5.9c6.26,-0.997 8.61,-1.113 22.208,-1.103c13.379,0.014 15.98,0.142 21.65,1.084c8.474,1.404 15.624,3.029 24.99,5.675c20.48,5.79 36.662,8.114 56.426,8.105c20.904,-0.009 36.518,-2.317 59.859,-8.843c16.196,-4.529 26.053,-6.174 39.586,-6.61c14.009,-0.45 28.778,1.259 42.481,4.919c35.021,9.347 42.712,10.585 65.895,10.598c20.573,0.012 31.263,-1.486 53.341,-7.467c12.274,-3.326 17.699,-4.496 26.879,-5.801c23.423,-3.331 45.34,-1.76 70.876,5.073c14.333,3.839 22.469,5.297 37.652,6.752c16.657,1.598 18.148,1.796 20.156,2.682c1.184,0.523 2.228,1.38 2.471,2.021c0.23,0.612 0.321,5.675 0.21,11.25c-0.164,8.008 -0.356,10.288 -0.908,10.851c-0.716,0.727 -5.54,1.067 -9.617,0.671zM925.041,524.676c-0.797,-0.111 -3.186,-0.425 -5.31,-0.698c-6.674,-0.861 -13.616,-2.399 -23.87,-5.279c-16.55,-4.649 -29.165,-7.142 -42.589,-8.411c-26.69,-2.523 -48.434,-0.464 -76.434,7.23c-17.194,4.724 -27.33,6.37 -41.999,6.818c-15.287,0.468 -29.948,-1.217 -45.617,-5.242c-21.974,-5.642 -26.332,-6.683 -31.861,-7.61c-20.786,-3.488 -43.328,-3.404 -63.163,0.233c-5.792,1.062 -11.75,2.518 -27.59,6.747c-13.508,3.605 -24.331,5.065 -39.949,5.389c-19.453,0.402 -30.704,-0.977 -52.01,-6.385c-15.104,-3.83 -21.073,-4.981 -41.22,-7.925l-16.117,-2.357l-15.017,2.624c-22.442,3.92 -26.956,4.813 -39.879,7.924c-22.127,5.324 -32.252,6.539 -50.875,6.121c-16.127,-0.365 -26.042,-1.8 -44.131,-6.395c-13.459,-3.419 -19.346,-4.379 -42.755,-6.962c-13.109,-1.445 -14.703,-1.832 -15.646,-3.758c-0.228,-0.464 -0.397,-5.457 -0.376,-11.093c0.033,-9.899 0.071,-10.283 1.103,-11.311c2.016,-2.016 4.943,-1.784 24.998,1.989c10.089,1.896 23.45,4.538 29.687,5.865c23.46,4.998 31.377,5.921 50.927,5.952c22.343,0.032 34.43,-1.688 57.677,-8.222c18.048,-5.072 30.429,-6.953 45.698,-6.955c14.273,0 25.169,1.373 38.551,4.869c3.983,1.04 10.998,2.868 15.591,4.064c15.64,4.073 28.535,5.907 44.753,6.357c21.359,0.592 40.89,-2.093 64.929,-8.924c31.42,-8.932 57.05,-8.886 88.584,0.158c13.892,3.983 25.862,6.467 38.858,8.06c6.809,0.833 33.772,0.833 40.55,-0.005c12.272,-1.512 19.269,-3.011 40.877,-8.764c15.039,-4.002 28.436,-5.522 45.772,-5.189c17.168,0.331 26.285,1.76 45.539,7.142c22.523,6.293 35.544,7.97 58.439,7.538c20.941,-0.4 36.075,-2.823 58.208,-9.332c8.221,-2.417 14.585,-3.875 21.254,-4.865c7.906,-1.175 29.894,-1.165 39.317,0.019c7.259,0.912 7.907,1.245 9.734,5.018c0.905,1.868 0.991,2.633 0.716,6.315c-0.172,2.306 -0.441,6.203 -0.599,8.661l-0.287,4.469l-2.599,0.756c-2.273,0.662 -3.862,0.689 -12.614,0.212c-25.12,-1.366 -48.296,1.706 -81.942,10.868c-12.344,3.362 -18.729,4.199 -33.068,4.351c-7.034,0.073 -13.443,0.042 -14.243,-0.068zM302.782,471.823c-10.284,-0.921 -20.156,-2.868 -32.94,-6.504c-20.736,-5.9 -38.266,-8.42 -58.526,-8.42c-20.489,0 -39.038,2.666 -60.689,8.721c-4.721,1.319 -10.975,2.813 -13.892,3.317c-7.762,1.342 -21.02,2.662 -22.64,2.255c-2.553,-0.644 -3.965,-2.75 -4.573,-6.818c-0.91,-6.116 -0.716,-12.488 0.451,-14.774c1.391,-2.728 3.047,-3.263 12.452,-4.046c4.419,-0.365 10.426,-1.209 13.343,-1.868c2.917,-0.659 11.17,-2.533 18.329,-4.157c26.49,-6.017 31.479,-6.927 46.231,-8.461c8.97,-0.932 11.327,-1.326 11.795,-1.967c0.541,-0.74 1.207,-0.666 8.456,0.93c68.712,15.114 67.202,14.837 86.163,15.728c22.838,1.076 42.962,-1.499 67.755,-8.663c29.093,-8.406 55.697,-8.863 83.733,-1.44c19.058,5.045 22.495,5.885 28.643,6.998c12.341,2.237 17.384,2.722 31.109,2.993c23.445,0.468 39.207,-1.643 63.834,-8.555c25.941,-7.279 46.181,-8.582 70.239,-4.52c4.962,0.838 12.443,2.66 25.343,6.17c29.353,7.986 57.556,9.433 85.929,4.412c6.323,-1.121 9.464,-1.876 28.724,-6.913c15.662,-4.098 29.895,-5.723 46.049,-5.261c15.053,0.428 27.392,2.397 42.775,6.814c20.921,6.008 35.296,8.123 55.274,8.132c22.145,0.012 40.424,-2.771 65.895,-10.031c16.745,-4.772 33.384,-6.494 48.998,-5.067c10.859,0.992 16.052,1.886 37.444,6.458c4.397,0.941 16.781,3.242 27.518,5.117c10.737,1.875 20.217,3.633 21.065,3.911c1.757,0.572 4.37,3.31 4.694,4.919c0.122,0.591 0.332,4.415 0.473,8.494c0.289,8.392 -0.095,10.112 -2.545,11.378c-2.93,1.517 -6.458,1.004 -31.39,-4.562c-34.468,-7.694 -41.269,-8.816 -58.191,-9.608c-23.306,-1.087 -42.539,1.416 -69.54,9.048c-18.257,5.162 -36.959,7.217 -53.807,5.918c-12.245,-0.945 -18.572,-2.217 -39.845,-8.003c-7.984,-2.173 -21.71,-4.786 -30.413,-5.794c-9.348,-1.085 -27.259,-1.463 -36.446,-0.77c-14.72,1.111 -28.897,3.704 -45.136,8.258c-17.618,4.943 -27.651,6.422 -43.688,6.455c-18.39,0.034 -30.911,-1.902 -52.496,-8.114c-3.245,-0.932 -9.104,-2.367 -13.028,-3.185c-29.939,-6.251 -57.479,-5.603 -87.022,2.039c-5.179,1.339 -12.227,3.166 -15.662,4.061c-7.213,1.877 -18.437,3.821 -26.096,4.526c-6.854,0.631 -21.689,0.626 -28.481,-0.006c-11.474,-1.07 -16.556,-2.12 -41.819,-8.618c-18.615,-4.79 -37.535,-6.742 -56.367,-5.819c-15.092,0.743 -27.419,2.642 -42.291,6.514c-4.514,1.175 -11.464,2.989 -15.449,4.028c-16.242,4.243 -33.782,5.774 -49.732,4.347zM96.468,420.69c-10.505,-0.88 -19.955,-2.696 -32.63,-6.269c-4.514,-1.274 -10.138,-2.768 -12.497,-3.326c-8.239,-1.944 -8.726,-2.795 -8.627,-15.035c0.034,-4.388 0.284,-8.555 0.554,-9.266c0.887,-2.336 2.856,-2.261 14,0.526c18.469,4.613 30.011,6.026 49.289,6.035c23.033,0.009 39.338,-2.297 59.619,-8.425c22.829,-6.899 47.687,-8.469 71.25,-4.503c3.875,0.653 9.851,1.914 13.275,2.804c3.424,0.89 10.508,2.731 15.742,4.085c18.228,4.725 29.295,6.107 48.658,6.08c19.302,-0.03 31.379,-1.569 49.61,-6.323c4.709,-1.229 12.2,-3.173 16.649,-4.316c21.831,-5.626 42.791,-6.373 65.046,-2.318c5.541,1.012 9.023,1.853 17.938,4.345c14.711,4.112 25.511,6.287 37.818,7.61c25.142,2.706 49.136,0.517 75.712,-6.917c19.076,-5.333 27.932,-6.765 44.107,-7.13c16.997,-0.383 30.074,1.112 45.761,5.219c20.615,5.401 26.472,6.773 33.662,7.88c11.984,1.845 20.846,2.389 33.682,2.063c16.06,-0.409 28.787,-2.241 44.169,-6.366c22.204,-5.953 29.446,-7.408 42.197,-8.483c8.418,-0.71 23.905,-0.347 32.144,0.755c7.215,0.966 15.764,2.687 22.688,4.577c29.408,8.013 38.579,9.419 61.306,9.389c22.847,-0.03 33.098,-1.634 64.023,-10.031c13.199,-3.584 25.475,-5.191 39.491,-5.178c13.721,0.014 24.588,1.424 37.93,4.915c35.096,9.185 41.927,10.259 65.409,10.282c19.058,0.015 29.416,-1.129 47.567,-5.253c4.097,-0.932 7.887,-1.694 8.42,-1.694c0.95,0 0.977,0.287 0.977,11.039c0,12.965 0.081,12.732 -5.191,14.737c-7.241,2.75 -21.315,6.052 -32.46,7.617c-3.045,0.428 -9.455,0.635 -19.067,0.617c-12.426,-0.024 -15.45,-0.179 -21.316,-1.091c-8.501,-1.319 -15.593,-2.903 -25.403,-5.668c-37.544,-10.582 -71.205,-11.037 -107.972,-1.454c-4.397,1.147 -11.793,3.07 -16.439,4.277c-13.882,3.605 -26.267,5 -40.307,4.541c-14.314,-0.466 -22.696,-1.858 -39.826,-6.598c-12.171,-3.371 -16.512,-4.36 -26.31,-5.991c-13.367,-2.229 -16.631,-2.471 -33.548,-2.453c-13.91,0.014 -17.267,0.167 -23.991,1.079c-11.252,1.527 -23.013,4.003 -34.844,7.332c-19.041,5.36 -27.144,6.535 -44.951,6.522c-15.917,-0.012 -22.975,-0.885 -37.411,-4.631c-21.929,-5.69 -26.052,-6.674 -32.864,-7.85c-11.989,-2.069 -20.641,-2.789 -33.512,-2.79c-20.138,0 -34.918,2.21 -57.204,8.546c-15.207,4.325 -26.345,6.017 -41.797,6.358c-17.924,0.392 -28.553,-0.802 -44.853,-5.036c-4.648,-1.208 -11.696,-3.034 -15.661,-4.059c-8.017,-2.075 -21.593,-4.434 -30.442,-5.297c-7.438,-0.725 -26.249,-0.722 -34.034,0.006c-13.077,1.225 -27.284,3.974 -41.657,8.059c-18.356,5.216 -28.308,6.7 -44.993,6.7c-16.727,0 -26.723,-1.49 -45.136,-6.729c-23.228,-6.611 -39.53,-8.763 -62.941,-8.321c-20.695,0.392 -35.123,2.617 -57.031,8.797c-15.42,4.347 -25.437,5.918 -39.812,6.242c-4.91,0.112 -11.192,0.012 -13.955,-0.221zM305.714,368.06c-11.563,-0.843 -20.786,-2.57 -36.023,-6.746c-22.696,-6.22 -37.787,-8.393 -58.376,-8.411c-21.308,-0.019 -36.199,2.183 -59.684,8.831c-15.764,4.46 -26.816,6.001 -43.136,6.017c-15.773,0.014 -26.2,-1.313 -44.896,-5.72c-9.914,-2.336 -18.178,-3.695 -41.033,-6.746c-11.02,-1.472 -20.415,-2.795 -20.877,-2.939c-0.777,-0.242 -0.844,-1.274 -0.844,-12.558c0,-11.255 0.071,-12.322 0.844,-12.641c0.464,-0.192 4.865,-0.331 9.776,-0.312c11.093,0.041 15.022,0.689 37.652,6.188c29.402,7.147 50.252,9.59 72.168,8.456c12.101,-0.626 20.408,-2.132 43.688,-7.925c23.932,-5.954 30.2,-6.974 42.999,-6.989c14.9,-0.014 24.237,1.306 42.881,6.062c19.489,4.973 28.967,6.818 41.801,8.144c10.724,1.107 21.887,1.389 31.136,0.783c14.459,-0.945 21.822,-2.237 50.927,-8.942c21.684,-4.992 33.01,-6.374 48.515,-5.909c14.138,0.423 25.106,2.012 40.55,5.882c4.648,1.165 11.922,2.777 16.17,3.587c10.4,1.985 36.869,5.684 43.448,6.071c13.737,0.811 38.597,-2.941 67.344,-10.166c14.945,-3.757 21.254,-4.865 31.595,-5.567c15.748,-1.067 31.991,1.049 50.471,6.582c21.668,6.485 33.149,8.191 55.031,8.17c20.561,-0.019 27.083,-0.878 56.685,-7.466c27.467,-6.115 36.118,-7.342 51.692,-7.348c15.732,-0.005 27.055,1.733 43.241,6.62c23.65,7.146 37.772,9.323 56.924,8.78c14,-0.401 21.047,-1.486 61.547,-9.491c29.198,-5.772 30.763,-5.99 42.721,-5.981c14.558,0.014 26.95,1.906 45.376,6.935c15.94,4.349 17.537,4.721 23.655,5.486c3.317,0.419 9.617,0.981 14,1.254c4.383,0.273 12.739,0.856 18.571,1.298c19.768,1.499 32.216,-0.095 64.703,-8.267c17.668,-4.446 21.164,-5.199 29.102,-6.278c7.358,-0.996 7.587,-0.977 9.518,0.832l1.677,1.571l0.566,7.484c0.698,9.224 0.392,11.703 -1.698,13.793c-1.908,1.908 -4.186,2.399 -14.062,3.038c-6.503,0.419 -9.285,0.939 -27.315,5.073c-39.947,9.167 -40.014,9.176 -60.061,9.203c-19.031,0.026 -25.58,-0.896 -44.504,-6.287c-22.166,-6.311 -37.691,-8.591 -58.559,-8.609c-21.295,-0.015 -35.375,2.057 -59.859,8.808c-15.458,4.262 -25.223,5.774 -40.066,6.191c-18.878,0.534 -31.397,-1.22 -54.068,-7.574c-8.163,-2.288 -20.867,-4.901 -29.446,-6.053c-9.019,-1.213 -31.307,-1.49 -41.513,-0.518c-15.221,1.454 -24.482,3.324 -51.653,10.428c-22.505,5.887 -46.895,5.793 -70.101,-0.266c-18.986,-4.955 -25.403,-6.503 -31.757,-7.648c-16.34,-2.948 -32.172,-4.048 -46.472,-3.231c-17.699,1.013 -26.684,2.615 -50.315,8.986c-16.552,4.46 -26.312,5.743 -43.688,5.743c-17.483,0 -26.958,-1.246 -43.688,-5.738c-24.827,-6.67 -35.891,-8.55 -54.309,-9.23c-21.276,-0.788 -40.237,1.985 -69.756,10.197c-15.521,4.316 -33.704,6.185 -49.217,5.054zM71.082,332.009c-3.092,-0.428 -18.059,-3.758 -32.585,-7.251c-14.84,-3.569 -15.396,-3.667 -23.171,-3.965c-8.685,-0.338 -10.826,-0.924 -11.381,-3.128c-0.158,-0.635 0.05,-5.25 0.468,-10.248c0.716,-8.582 1.265,-15.953 2.938,-39.263c0.392,-5.441 1.155,-15.98 1.697,-23.414c0.542,-7.434 1.304,-18.077 1.689,-23.655c0.385,-5.576 0.819,-11.333 0.961,-12.794c0.142,-1.461 0.581,-7.325 0.977,-13.035c0.392,-5.71 1.141,-16.134 1.661,-23.171c0.52,-7.037 1.286,-17.573 1.701,-23.414c1.425,-20.053 1.743,-23.099 2.642,-25.103c2.03,-4.528 7.43,-8.45 12.965,-9.419c1.988,-0.347 6.882,-0.5 12.731,-0.401c10.794,0.185 10.674,0.149 14.027,4.55c2.57,3.377 4.449,7.079 6.107,12.048c2.624,7.871 3.047,11.864 2.998,28.265c-0.032,9.566 0.2,17.31 0.651,21.965c2.64,27.268 3.65,38.885 4.882,56.187c1.382,19.383 2.66,38.06 3.37,49.238c0.396,6.241 0.923,13.843 1.166,16.898c0.243,3.055 0.708,9.896 1.031,15.206c0.518,8.555 0.5,9.859 -0.173,11.433c-0.599,1.401 -1.148,1.886 -2.606,2.291c-1.876,0.519 -2.163,0.531 -4.747,0.176zM46.241,205.065c2.253,-1.329 2.579,-2.815 2.227,-10.159c-0.239,-4.982 -0.521,-6.917 -1.175,-8.051c-1.81,-3.137 -7.124,-4.208 -10.292,-2.078c-2.604,1.751 -2.876,2.822 -2.89,11.264c-0.014,8.474 0.185,9.032 3.485,9.869c2.305,0.584 7.008,0.127 8.646,-0.842zM1172.359,331.616c-1.895,-1.031 -2.525,-3.475 -2.156,-8.402c0.168,-2.274 0.635,-8.375 1.031,-13.55c1.347,-17.501 5.019,-67.601 7.007,-95.582c0.518,-7.303 1.823,-25.439 2.894,-40.307c1.071,-14.868 2.264,-31.379 2.642,-36.689c0.914,-12.848 1.684,-15.341 5.862,-19.021c3.929,-3.457 7.151,-4.154 19.249,-4.154c11.743,0 11.201,-0.163 16.439,4.91c6.746,6.53 7.941,10.4 7.939,25.7c0,7.568 0.263,12.47 0.959,17.906c0.527,4.117 1.4,15.086 1.941,24.377c0.541,9.291 1.304,21.022 1.697,26.069c0.676,8.684 2.822,38.444 4.336,60.099c0.382,5.441 0.912,12.504 1.177,15.69c1.454,17.33 2.012,26.096 1.751,27.491c-0.302,1.619 -1.75,3.247 -3.416,3.849c-0.531,0.194 -4.658,0.975 -9.173,1.739c-4.515,0.764 -14.505,2.719 -22.208,4.343c-30.362,6.408 -35.087,7.097 -37.976,5.527zM1211.828,205.814c3.29,-0.828 3.578,-1.551 3.578,-8.953v-6.386l-3.457,-3.402c-1.903,-1.871 -3.664,-3.402 -3.919,-3.402c-0.923,0 -6.053,4.874 -6.812,6.468c-0.58,1.22 -0.779,3.092 -0.779,7.263c0,5.281 0.068,5.693 1.154,6.773c0.635,0.635 1.994,1.292 3.019,1.459c1.025,0.167 2.192,0.374 2.588,0.459c1.482,0.313 2.525,0.25 4.631,-0.279zM93.77,331.418c-3.272,-0.482 -4.014,-0.869 -4.881,-2.543c-0.745,-1.445 -1.518,-8.721 -2.579,-24.278c-0.291,-4.248 -0.842,-11.959 -1.229,-17.138c-1.581,-21.245 -2.183,-29.39 -2.414,-32.828c-0.134,-1.993 -0.572,-7.965 -0.968,-13.275c-0.396,-5.31 -1.165,-15.737 -1.7,-23.171c-0.536,-7.434 -1.296,-17.753 -1.688,-22.928c-0.392,-5.175 -1.15,-15.386 -1.688,-22.688c-0.537,-7.303 -1.416,-18.782 -1.949,-25.512c-0.533,-6.73 -0.832,-12.97 -0.662,-13.865c0.356,-1.904 2.147,-3.866 3.816,-4.186c0.646,-0.122 4.901,-0.117 9.455,0.014l8.277,0.239l2.881,3.884c3.178,4.287 4.469,6.584 4.919,8.771c0.167,0.797 0.625,5.792 1.018,11.102c0.393,5.31 1.157,15.196 1.697,21.965c0.536,6.772 1.296,16.979 1.688,22.688c0.392,5.709 0.824,11.464 0.968,12.794c0.142,1.328 0.582,7.085 0.977,12.794c0.395,5.709 1.157,16.352 1.688,23.655c0.536,7.303 1.4,19.466 1.93,27.032c1.373,19.707 2.867,41.285 3.308,47.765c0.426,6.206 0.126,7.423 -2.21,9.005c-1.19,0.806 -2.372,0.924 -9.799,0.986c-4.648,0.041 -9.536,-0.088 -10.86,-0.284zM1137.26,331.373c-1.538,-0.222 -2.985,-0.769 -3.551,-1.335c-1.733,-1.733 -1.74,-1.494 1.079,-39.443c0.534,-7.169 1.292,-17.923 1.69,-23.895c0.398,-5.972 0.834,-11.948 0.974,-13.275c0.14,-1.328 0.572,-7.194 0.968,-13.035c0.396,-5.841 1.049,-15.29 1.458,-21c0.41,-5.71 1.157,-16.352 1.664,-23.655c1.292,-18.617 1.886,-26.717 3.11,-42.362l1.067,-13.64l1.417,-1.49c0.779,-0.819 2.021,-1.805 2.761,-2.192c0.839,-0.437 1.841,-1.733 2.657,-3.434c0.923,-1.922 1.668,-2.831 2.516,-3.066c1.888,-0.527 16.205,-0.487 17.609,0.05c0.723,0.275 1.545,1.162 1.928,2.075c0.706,1.688 0.698,1.808 -1.427,31.238c-0.411,5.71 -1.072,14.832 -1.463,20.273c-0.982,13.586 -1.56,21.656 -2.658,37.171c-0.518,7.303 -1.369,19.031 -1.895,26.069c-0.526,7.038 -1.184,16.16 -1.463,20.273c-0.283,4.117 -0.731,10.198 -0.998,13.515c-0.267,3.317 -0.8,10.598 -1.184,16.17c-2.381,34.701 -2.318,34.226 -4.427,35.028c-1.407,0.536 -18.077,0.5 -21.829,-0.045zM123.259,296.965c-0.827,-0.607 -0.824,-0.77 0.13,-3.848c1.512,-4.895 2.237,-6.031 6.835,-10.728c5.408,-5.525 6.753,-7.526 6.753,-10.052c0,-2.849 -1.323,-5.163 -6.807,-11.912c-4.56,-5.612 -11.82,-15.845 -11.456,-16.149c0.318,-0.266 2.273,-1.229 2.498,-1.229c0.127,0 4.628,5.106 10.003,11.345c5.375,6.239 9.847,11.345 9.941,11.345c0.094,0 0.167,-7.708 0.167,-17.123v-17.123l-1.528,-0.79c-1.013,-0.523 -4.08,-1 -9.05,-1.408c-7.938,-0.651 -9.41,-0.995 -10.791,-2.528c-1.177,-1.31 -2.264,-6.818 -2.273,-11.538c-0.006,-3.164 0.173,-4.153 0.917,-5.07c0.86,-1.058 1.229,-1.131 5.189,-1.032c2.345,0.059 5.646,-0.014 7.331,-0.167l3.069,-0.272l-1.622,-1.695c-0.892,-0.932 -3.686,-3.173 -6.206,-4.976c-2.52,-1.803 -5.279,-4.01 -6.131,-4.901c-1.652,-1.728 -3.041,-4.568 -3.041,-6.21c0,-1.018 1.013,-0.381 19.013,11.958c2.093,1.436 4.1,2.723 4.466,2.862c0.554,0.212 0.662,-2.997 0.662,-19.589c0,-10.913 -0.104,-19.843 -0.228,-19.843c-0.124,0 -5.639,3.59 -12.258,7.979c-11.381,7.547 -12.101,7.947 -13.307,7.395c-0.703,-0.32 -1.191,-0.815 -1.085,-1.101c0.106,-0.286 0.545,-1.733 0.977,-3.218c0.428,-1.485 1.267,-3.317 1.863,-4.074c1.191,-1.512 23.306,-16.246 39.245,-26.145c53.906,-33.478 110.267,-61.907 169.198,-85.344c81.312,-32.34 162.124,-52.188 241.61,-59.351c43.831,-3.947 93.647,-3.074 137.095,2.4c115.242,14.527 224.459,51.062 337.704,112.965c11.775,6.437 30.355,17.079 39.794,22.796c19.811,11.994 48.461,30.826 49.811,32.735c1.22,1.726 3.533,6.268 3.533,6.933c0,0.266 -0.644,0.818 -1.427,1.225l-1.427,0.738l-23.936,-15.868l-0.131,9.862c-0.071,5.423 -0.071,14.33 0,19.787l0.131,9.923l7.241,-4.919c3.983,-2.705 9.212,-6.278 11.624,-7.936l4.383,-3.02l2.336,1.778l-4.103,4.145c-2.317,2.338 -6.728,5.976 -10.13,8.348l-6.026,4.202l7.315,0.24c6.89,0.229 7.386,0.311 8.546,1.4c1.832,1.724 2.386,3.983 2.101,8.572c-0.284,4.581 -1.652,7.932 -3.9,9.556c-1.243,0.899 -2.07,0.991 -9.014,0.991c-7.005,0 -7.759,0.086 -9.012,1.013c-2.277,1.687 -2.418,2.986 -2.192,20.084l0.21,15.782l10.121,-11.803c5.567,-6.492 10.303,-11.803 10.526,-11.803c1.744,0 1.832,0.536 0.606,3.774c-1.391,3.668 -2.787,5.627 -10.026,14.035c-7.169,8.327 -7.954,9.489 -7.954,11.738c0,2.77 0.887,4.082 5.798,8.572c2.439,2.228 4.995,4.937 5.681,6.02c1.387,2.192 5.036,10.473 4.747,10.768c-0.428,0.428 -20.561,-15.786 -36.741,-29.588c-43.02,-36.702 -42.464,-36.276 -49.631,-37.826c-1.193,-0.257 -172.167,-0.491 -417.413,-0.57l-415.395,-0.131l-3.056,1.076c-4.217,1.482 -5.932,2.66 -13.001,8.906c-6.587,5.825 -59.867,52.151 -64.374,55.973c-2.948,2.499 -3.209,2.597 -4.487,1.661zM165.116,252.222c8.038,-7.843 8.245,-7.259 -4.487,-12.609c-5.441,-2.288 -10.384,-4.311 -10.984,-4.496l-1.085,-0.338v29.29l2.651,1.609l4.105,-3.947c2.256,-2.174 6.665,-6.449 9.797,-9.502zM1099.429,264.799c1.084,-0.905 1.085,-0.959 1.085,-15.465c0,-13.646 -0.052,-14.54 -0.844,-14.288c-0.464,0.149 -5.386,2.178 -10.931,4.514c-7.867,3.308 -10.175,4.48 -10.488,5.324c-0.352,0.95 0.757,2.255 9.306,10.967c5.339,5.441 9.95,9.882 10.247,9.873c0.297,-0.009 1.03,-0.424 1.625,-0.923zM1085.392,235.443c8.078,-3.317 10.29,-4.415 10.292,-5.104c0.005,-0.828 -0.59,-0.869 -10.095,-0.725c-9.923,0.153 -10.121,0.176 -11.345,1.328c-0.825,0.779 -1.247,1.68 -1.247,2.689c0,1.602 1.337,6.035 1.823,6.035c0.158,0 4.913,-1.902 10.571,-4.226zM175.016,237.806c0.507,-0.32 0.524,-1.018 0.086,-3.516c-0.3,-1.715 -0.734,-3.425 -0.968,-3.805c-0.338,-0.551 -2.426,-0.725 -10.346,-0.878c-9.675,-0.184 -9.922,-0.164 -9.922,0.782c0,0.734 0.732,1.273 3.019,2.216c12.136,5.009 13.788,5.603 15.567,5.603c1.062,0 2.215,-0.182 2.561,-0.401zM1066.65,233.676c-0.734,-3.65 -1.733,-4.349 -5.452,-3.812l-2.714,0.392l4.242,3.192c2.333,1.758 4.297,3.151 4.361,3.099c0.064,-0.052 -0.131,-1.346 -0.437,-2.867zM186.263,233.627c3.675,-2.967 3.947,-4.1 0.986,-4.091c-0.968,0.005 -2.3,0.282 -2.966,0.617c-1.022,0.516 -1.247,1.034 -1.454,3.371c-0.137,1.519 -0.158,2.764 -0.053,2.764c0.105,0 1.678,-1.198 3.488,-2.66zM308.796,208.863c3.875,-1.906 4.334,-5.45 4.359,-33.815c0.015,-18.626 -0.039,-19.943 -0.806,-19.649c-2.042,0.784 -25.804,15.926 -26.222,16.709c-0.707,1.319 -1.138,16.952 -0.724,26.233c0.482,10.841 -0.125,10.265 12.083,11.417c4.964,0.469 9.22,0.131 11.314,-0.901zM206.211,207.36c1.429,-1.463 1.787,-2.151 1.563,-3.029c-0.66,-2.624 -23.648,-58.307 -24.077,-58.313c-1.22,-0.009 -1.418,4.676 -1.257,30.168c0.143,23.069 0.266,26.771 0.938,28.238c1.751,3.83 4.477,4.748 14.204,4.793l6.782,0.032l1.85,-1.895zM226.155,203.131c14.762,-10.544 15.566,-11.291 16.286,-15.141c0.357,-1.91 -0.005,-2.768 -11.689,-27.734c-7.702,-16.457 -11.817,-24.881 -12.921,-26.457c-0.644,-0.919 -0.724,3.129 -0.724,37.211c0,21.034 0.107,38.245 0.239,38.245c0.132,0 4.096,-2.756 8.809,-6.125zM276.941,207.828l1.475,-1.049v-30.459l-1.328,0.86c-0.731,0.473 -4.044,2.732 -7.361,5.02c-3.317,2.288 -8.096,5.432 -10.62,6.98c-5.599,3.441 -6.125,3.89 -7.354,6.3c-0.825,1.618 -0.941,2.545 -0.739,6.062c0.299,5.232 0.737,6.08 3.38,6.53c4.658,0.793 9.626,1.106 15.187,0.959c5.126,-0.134 6.079,-0.292 7.361,-1.204zM345.337,208.404c0.565,-0.313 1.18,-0.959 1.364,-1.428c0.35,-0.899 0.374,-70.179 0.023,-70.53c-0.224,-0.224 -16.097,8.357 -21.002,11.354c-2.225,1.36 -3.56,2.597 -4.586,4.253l-1.448,2.336v23.935c0,23.513 0.018,23.972 1.044,26.193c1.244,2.689 2.876,3.673 7.083,4.256c4.219,0.587 16.259,0.336 17.521,-0.365zM378.702,207.376l2.38,-1.879l0.32,-10.991c0.176,-6.044 0.32,-24.585 0.319,-41.205c-0.003,-27.98 -0.223,-33.836 -1.281,-33.836c-0.698,0 -21.806,10.625 -22.99,11.57c-0.737,0.59 -1.823,1.976 -2.408,3.079l-1.067,2.005l-0.005,32.828c-0.005,30.649 0.052,32.979 0.878,35.114c1.607,4.171 4.181,5.027 15.368,5.135l6.112,0.059l2.38,-1.879zM412.737,208.746c3.488,-0.968 3.289,2.39 3.146,-52.799c-0.096,-37.769 -0.266,-49.604 -0.707,-50.047c-1.058,-1.058 -3.209,-0.524 -10.589,2.641c-11.705,5.012 -13.392,6.082 -15.245,9.662c-1.022,1.972 -1.032,2.353 -1.247,39.227c-0.264,45.617 -0.068,48.155 3.877,50.198c0.85,0.437 2.636,0.959 3.974,1.157c3.754,0.553 14.771,0.532 16.792,-0.032zM448.207,208.278c0.592,-0.383 1.301,-1.328 1.571,-2.102c0.714,-2.047 0.675,-110.175 -0.041,-112.227c-0.79,-2.268 -2.066,-2.318 -7.241,-0.293c-2.497,0.977 -7.007,2.615 -10.023,3.641c-3.016,1.026 -6.205,2.411 -7.079,3.079c-3.317,2.532 -3.173,-0.032 -3.02,53.847l0.14,48.515l1.092,2.041c1.334,2.498 3.128,3.479 7.304,4.001c5.087,0.635 16.029,0.32 17.303,-0.502zM480.263,207.999c0.698,-0.354 1.841,-1.319 2.534,-2.144l1.265,-1.502v-60.788c0,-60.143 -0.012,-60.799 -0.967,-61.754c-0.531,-0.531 -1.175,-0.967 -1.435,-0.967c-0.26,0 -3.353,0.959 -6.881,2.135c-3.525,1.175 -8.245,2.622 -10.486,3.217c-5.072,1.346 -7.105,3.003 -7.637,6.235c-0.196,1.193 -0.248,26.501 -0.116,56.237c0.238,52.862 0.264,54.109 1.207,55.967c1.427,2.808 2.939,3.686 7.052,4.091c4.877,0.482 13.897,0.059 15.458,-0.732zM516.709,208.013c0.737,-0.552 1.525,-1.706 1.746,-2.565c0.221,-0.859 0.34,-29.843 0.264,-64.41c-0.135,-59.566 -0.188,-62.952 -1.022,-64.852c-1.607,-3.667 -4.316,-3.857 -15.293,-1.094c-7.111,1.79 -9.356,2.831 -10.643,4.932c-0.932,1.522 -0.948,2.636 -0.824,62.133c0.124,59.497 0.14,60.619 1.088,62.502c1.827,3.63 5.54,4.586 17.222,4.435c5.369,-0.068 6.287,-0.203 7.461,-1.079zM549.356,208.746c3.542,-0.986 3.284,4.77 3.142,-70.26c-0.13,-67.147 -0.134,-67.543 -1.121,-69.225c-1.475,-2.512 -2.741,-2.995 -6.972,-2.669c-5.366,0.416 -14.555,2.339 -16.448,3.443c-0.911,0.532 -1.926,1.499 -2.257,2.147c-0.474,0.932 -0.579,14.901 -0.482,65.868c0.117,63.602 0.136,64.718 1.085,66.606c1.788,3.553 4.747,4.423 15.449,4.532c3.186,0.032 6.611,-0.167 7.61,-0.445zM583.631,208.746c3.515,-0.977 3.245,4.98 3.299,-72.951c0.046,-63.698 -0.023,-70.397 -0.725,-71.762c-0.428,-0.825 -1.193,-1.725 -1.706,-2.001c-1.31,-0.701 -5.23,-0.617 -8.807,0.192c-1.677,0.379 -5.219,0.841 -7.874,1.024c-5.42,0.378 -7.092,1.006 -7.907,2.972c-0.419,1.005 -0.527,18.563 -0.429,68.934c0.128,66.489 0.145,67.614 1.094,69.502c1.22,2.426 3.227,3.578 7.088,4.082c4.494,0.582 13.881,0.59 15.967,0.009zM619.924,207.832l1.247,-1.171l-0.128,-71.233c-0.122,-67.786 -0.168,-71.313 -1.004,-72.843c-1.404,-2.572 -3.384,-3.123 -10.949,-3.045c-10.386,0.11 -13.946,1.004 -14.999,3.771c-0.302,0.797 -0.426,26.132 -0.339,70.332c0.131,67.994 0.149,69.122 1.097,71.007c1.845,3.666 5.388,4.591 16.984,4.437c6.521,-0.086 6.908,-0.148 8.093,-1.262zM653.626,208.17c0.767,-0.501 1.481,-1.578 1.766,-2.655c0.721,-2.732 0.22,-137.725 -0.522,-140.199c-0.311,-1.032 -1.089,-2.406 -1.733,-3.047c-2.066,-2.066 -4.037,-2.412 -13.739,-2.417c-8.762,-0.005 -9.068,0.03 -10.139,1.094l-1.103,1.101l-0.132,65.517c-0.134,66.093 0.059,75.811 1.535,78.065c1.76,2.687 6.233,3.599 16.963,3.461c4.631,-0.059 6.078,-0.248 7.102,-0.921zM687.359,208.325c0.7,-0.345 1.552,-1.198 1.886,-1.898c0.49,-1.013 0.591,-14.944 0.509,-68.375c-0.061,-40.184 -0.285,-67.798 -0.561,-68.838c-1.058,-4.041 -3.344,-5.049 -15.485,-6.836c-8.168,-1.202 -10.139,-1.069 -11.11,0.738c-0.437,0.817 -0.548,17.431 -0.464,69.864c0.059,37.835 0.237,69.333 0.392,69.999c0.883,3.803 3.038,5.225 8.803,5.814c5.307,0.545 14.513,0.275 16.029,-0.469zM722.171,208.17c0.77,-0.503 1.48,-1.573 1.761,-2.655c0.563,-2.143 0.618,-115.814 0.062,-125.264c-0.32,-5.449 -0.502,-6.359 -1.598,-8.015c-0.761,-1.153 -2.089,-2.267 -3.469,-2.915c-2.318,-1.091 -11.024,-2.773 -16.961,-3.278c-3.162,-0.268 -3.502,-0.203 -4.477,0.842l-1.054,1.13l0.131,67.604c0.131,67.005 0.14,67.616 1.112,69.275c2.005,3.416 5.873,4.348 17.384,4.199c4.631,-0.059 6.078,-0.248 7.102,-0.921zM756.191,208.29c0.59,-0.383 1.301,-1.252 1.58,-1.93c0.351,-0.847 0.468,-20.03 0.375,-61.563c-0.147,-65.743 0.015,-62.133 -2.917,-65.247c-1.886,-2.003 -4.849,-3.24 -12.596,-5.252c-7.681,-1.994 -10.634,-2.144 -11.474,-0.572c-0.707,1.319 -0.62,127.35 0.087,129.823c0.519,1.814 2.175,3.695 3.839,4.361c3.409,1.364 19.157,1.651 21.106,0.382zM790.491,208.269c0.607,-0.384 1.324,-1.463 1.598,-2.39c0.779,-2.661 0.356,-110.718 -0.446,-113.093c-1.49,-4.415 -4.691,-6.404 -15.304,-9.509c-7.513,-2.198 -10.067,-2.435 -10.829,-1.011c-0.716,1.337 -0.689,118.32 0.032,120.957c1.319,4.856 4.851,6.026 17.573,5.838c4.526,-0.068 6.584,-0.288 7.376,-0.795zM823.531,208.752c3.515,-0.977 3.272,2.777 3.272,-51.035c0,-53.478 0.045,-52.628 -2.975,-56.291c-1.758,-2.13 -6.287,-4.352 -14.162,-6.944c-8.033,-2.642 -8.169,-2.669 -9.409,-1.665l-1.058,0.858l0.066,53.568c0.036,29.462 0.257,54.419 0.493,55.463c0.887,3.92 3.101,5.558 8.217,6.09c5.036,0.523 13.604,0.5 15.555,-0.041zM854.617,208.775c1.625,0 2.378,-0.347 4.103,-1.877l2.113,-1.877l0.157,-42.719c0.106,-29.497 -0.005,-43.316 -0.365,-44.653c-0.516,-1.913 -0.599,-1.968 -7.395,-5.086c-9.234,-4.235 -19.019,-8.546 -19.387,-8.546c-0.167,0 -0.24,22.212 -0.169,49.361c0.127,48.272 0.149,49.402 1.094,51.26c1.886,3.713 4.995,4.73 13.275,4.352c2.524,-0.115 5.481,-0.212 6.575,-0.212zM892.097,208.746c3.473,-0.966 3.288,1.355 3.143,-39.049l-0.131,-36.32l-1.324,-1.057c-1.265,-1.01 -24.976,-13.334 -25.652,-13.334c-0.178,0 -0.266,18.953 -0.194,42.117c0.131,41.126 0.158,42.158 1.1,43.757c1.41,2.397 3.02,3.382 6.277,3.857c4.154,0.604 14.646,0.623 16.781,0.031zM925.826,208.004c0.698,-0.356 1.841,-1.319 2.534,-2.147l1.265,-1.502v-25.233c0,-15.854 -0.184,-25.757 -0.491,-26.644c-0.307,-0.879 -1.346,-1.931 -2.777,-2.801c-2.384,-1.454 -21.254,-12.254 -23.185,-13.271l-1.108,-0.582l0.141,33.458c0.14,32.351 0.176,33.521 1.108,35.357c1.319,2.596 3.012,3.703 6.35,4.145c3.95,0.527 14.603,0.014 16.16,-0.779zM960.603,208.008c0.776,-0.401 1.832,-1.426 2.353,-2.273c0.88,-1.445 0.941,-2.518 0.942,-16.511c0,-13.298 -0.095,-15.15 -0.842,-16.619c-0.685,-1.339 -3.218,-3.137 -13.397,-9.504c-6.903,-4.318 -12.722,-7.865 -12.929,-7.88c-0.207,-0.015 -0.319,10.778 -0.24,23.987c0.128,22.171 0.205,24.152 1.023,25.799c1.783,3.585 4.514,4.319 14.743,3.969c4.847,-0.167 7.367,-0.456 8.348,-0.968zM1013.623,208.629l3.137,-0.584l-5.297,-3.723c-3.2,-2.249 -5.475,-3.551 -5.739,-3.282c-0.242,0.242 -0.545,1.535 -0.675,2.876c-0.464,4.811 1.697,5.999 8.576,4.717zM1031.965,171.543c0,-34.331 -0.068,-37.655 -0.762,-37.078c-1.031,0.855 -1.924,2.678 -14.477,29.474c-8.906,19.013 -10.852,23.545 -10.733,24.969c0.14,1.67 0.644,2.108 12.696,11.021c6.903,5.108 12.713,9.293 12.912,9.304c0.199,0.011 0.364,-16.951 0.364,-37.69zM1063.313,207.901c0.647,-0.482 1.625,-1.479 2.174,-2.21c0.977,-1.305 0.998,-1.922 1.154,-30.058l0.158,-28.725l-1.049,0.158c-0.851,0.131 -1.571,1.427 -3.838,6.917c-1.535,3.717 -6.392,15.494 -10.796,26.174c-4.404,10.68 -8.327,20.633 -8.717,22.118c-1.098,4.208 -0.284,5.639 3.805,6.692c0.531,0.138 4.334,0.149 8.447,0.032c6.258,-0.184 7.674,-0.363 8.66,-1.094zM174.062,208.363c-0.087,-0.226 -5.485,-8.483 -11.988,-18.353c-9.59,-14.549 -12.011,-17.917 -12.794,-17.815c-0.946,0.127 -0.966,0.483 -0.941,17.366c0.023,16.079 0.086,17.303 0.921,18.222c0.855,0.945 1.418,0.986 12.929,0.986c6.62,0 11.962,-0.185 11.874,-0.41zM243.071,207.927c0.752,-0.658 1.031,-1.679 1.256,-4.613c0.224,-2.93 0.157,-3.687 -0.311,-3.415c-0.698,0.41 -2.128,1.427 -7.088,5.036l-3.591,2.615l1.904,0.572c2.949,0.889 6.692,0.797 7.832,-0.196zM995.019,208.244c2.425,-0.609 2.525,-0.833 2.969,-6.471c0.419,-5.324 -0.201,-6.621 -4.964,-10.427c-2.912,-2.327 -18.186,-12.693 -22.288,-15.125c-0.532,-0.316 -0.617,1.958 -0.482,13.066c0.153,12.631 0.229,13.588 1.22,15.743c0.581,1.262 1.123,2.297 1.204,2.3c0.082,0.005 1.017,0.32 2.079,0.704c2.378,0.858 17.086,1.008 20.257,0.211zM1099.582,208.273c0.896,-0.482 0.932,-1.195 0.932,-18.345c0,-16.682 -0.056,-17.843 -0.844,-17.82c-0.702,0.021 -11.082,15.314 -23.945,35.278l-0.893,1.384h11.905c7.286,0 12.27,-0.194 12.839,-0.5zM175.592,173.294c0,-15.53 -0.131,-28.238 -0.295,-28.238c-0.164,0 -5.834,3.422 -12.602,7.602c-8.556,5.288 -12.443,7.956 -12.754,8.762c-0.491,1.27 -1.306,-0.072 16.503,27.174c4.631,7.088 8.585,12.897 8.785,12.912c0.2,0.015 0.364,-12.678 0.364,-28.211zM1089.503,178.254c7.997,-12.181 10.069,-15.665 9.851,-16.544c-0.179,-0.716 -1.621,-1.973 -4.025,-3.507c-5.873,-3.753 -20.444,-12.715 -21.056,-12.95c-0.41,-0.158 -0.518,7.043 -0.423,28.139l0.13,28.35l2.696,-4.028c1.483,-2.218 7.257,-10.973 12.827,-19.457zM209.752,142.989l-0.127,-17.582l-7.725,4.289c-4.248,2.357 -8.879,5.054 -10.294,5.99c-2.614,1.733 -3.947,3.812 -3.947,6.152c0,1.742 17.92,46.122 20.678,51.212l1.287,2.373l0.127,-17.424c0.068,-9.582 0.068,-25.337 0,-35.006zM1044.511,184.877c1.941,-4.779 6.756,-16.592 10.699,-26.249c3.943,-9.657 7.169,-18.041 7.169,-18.632c0,-0.59 -0.382,-1.404 -0.844,-1.813c-1.155,-1.013 -21.209,-12.443 -21.83,-12.443c-0.764,0 -0.681,67.204 0.085,67.969c0.32,0.32 0.716,0.418 0.887,0.218c0.171,-0.2 1.895,-4.271 3.839,-9.05zM259.978,179.227c11.111,-7.112 14.489,-9.743 15.569,-12.121c0.505,-1.112 0.923,-2.478 0.929,-3.036c0.014,-1.148 -22.586,-46.6 -24.094,-48.467l-0.977,-1.207l-0.012,35.149c-0.009,27.995 0.113,35.072 0.592,34.781c0.331,-0.203 3.929,-2.498 7.99,-5.099zM997.692,150.362c0,-30.126 -0.086,-34.276 -0.725,-34.276c-0.941,0 -25.458,48.911 -25.25,50.376c0.106,0.75 3.654,3.389 12.911,9.603c7.02,4.712 12.83,8.572 12.912,8.572c0.082,0 0.149,-15.422 0.149,-34.276zM243.449,107.992c-0.248,-0.248 -21.083,10.623 -23.081,12.044c-1.925,1.368 -2.138,2.931 -0.824,6.125c0.617,1.498 5.77,12.497 11.454,24.444c5.684,11.947 10.805,22.811 11.381,24.136l1.04,2.415l0.122,-34.473c0.068,-18.959 0.027,-34.569 -0.093,-34.689zM1018.938,148.978c6.636,-14.135 12.065,-26.096 12.065,-26.582c0,-0.486 -0.273,-1.105 -0.604,-1.382c-0.331,-0.275 -6.143,-3.452 -12.912,-7.062l-12.308,-6.565l-0.123,33.646c-0.097,26.483 0.005,33.724 0.48,34.016c0.33,0.203 0.77,0.204 0.976,0c0.203,-0.203 5.801,-11.939 12.434,-26.073zM298.975,154.243c13.028,-7.865 12.434,-7.43 12.401,-9.064c-0.014,-0.778 -3.677,-8.114 -8.735,-17.51c-13.323,-24.729 -15.244,-28.164 -15.899,-28.371c-0.48,-0.152 -0.604,6.323 -0.604,31.28v31.474l1.085,-0.689c0.599,-0.379 5.884,-3.587 11.75,-7.124zM963.419,130.571c0,-17.258 -0.185,-31.379 -0.41,-31.379c-0.968,0 -1.505,0.943 -20.054,35.321c-2.819,5.224 -5.125,9.905 -5.125,10.409c0,0.504 0.275,1.287 0.608,1.746c0.588,0.804 23.873,15.251 24.611,15.269c0.2,0.005 0.364,-14.108 0.364,-31.37zM277.757,91.615c-0.212,-0.212 -10.652,4.524 -16.961,7.7c-4.931,2.48 -5.729,3.208 -6.459,5.9c-0.493,1.814 -0.374,2.237 2.183,7.725c1.489,3.191 6.862,14.059 11.939,24.148l9.235,18.345l0.123,-31.818c0.068,-17.501 0.041,-31.901 -0.059,-32zM984.611,129.248c9.68,-19.4 11.723,-23.837 11.455,-24.899c-0.356,-1.418 -1.247,-1.916 -16.6,-9.293l-8.329,-4.001v31.361c0,29.723 0.043,31.336 0.844,30.902c0.464,-0.254 6.145,-11.084 12.623,-24.069zM337.55,132.236c4.523,-2.594 6.033,-4.343 6.035,-7.008c0.002,-1.719 -15.749,-30.866 -21.698,-40.154l-1.934,-3.02l-0.023,59.683l6.638,-3.506c3.65,-1.929 8.591,-4.624 10.984,-5.995zM929.144,112.356v-29.317l-1.135,1.195c-0.626,0.658 -5.549,9.124 -10.942,18.815c-5.393,9.691 -10.438,18.752 -11.21,20.133c-2.474,4.442 -2.705,4.188 10.735,11.75c6.503,3.659 11.991,6.674 12.191,6.695c0.2,0.021 0.364,-13.15 0.364,-29.273zM312.691,105.709c0,-25.502 -0.092,-29.206 -0.716,-29.206c-0.393,0 -5.226,1.95 -10.742,4.335c-14.629,6.328 -14.929,6.8 -10.229,15.903c9.455,18.306 20.642,38.173 21.5,38.173c0.103,0 0.185,-13.144 0.185,-29.206zM943.224,123.314c3.895,-6.472 11.489,-20.022 16.088,-28.72c2.129,-4.026 2.741,-5.612 2.504,-6.518c-0.338,-1.283 0.437,-0.896 -16.38,-8.251l-8.569,-3.749v57.578l1.356,-2.147c0.746,-1.181 2.995,-4.868 5,-8.195zM894.868,96.268v-27.059l-1.015,0.712c-0.559,0.392 -6.098,9.139 -12.308,19.436c-8.681,14.396 -11.293,19.094 -11.293,20.318v1.598l12.191,5.988c6.703,3.292 12.245,6.008 12.308,6.03c0.063,0.022 0.122,-12.136 0.122,-27.017zM366.002,117.592c9.74,-4.77 10.802,-5.411 11.534,-6.953c0.445,-0.933 0.806,-2.084 0.806,-2.552c0,-0.468 -1.454,-3.371 -3.232,-6.444c-5.985,-10.353 -20.363,-33.828 -20.717,-33.828c-0.104,0 -0.187,12.381 -0.187,27.518c0,19.832 0.149,27.518 0.536,27.518c0.293,0 5.362,-2.363 11.264,-5.252zM346.798,62.658c-0.194,-0.194 -8.872,3.076 -17.123,6.458c-8.015,3.285 -8.432,4.565 -4.116,12.646c4.496,8.412 18.227,32.954 19.747,35.291l1.414,2.174l0.124,-28.195c0.068,-15.508 0.047,-28.274 -0.05,-28.371zM913.813,99.555c15.026,-27.167 14.097,-25.318 13.3,-26.515c-0.454,-0.68 -4.601,-2.608 -12.434,-5.779c-6.467,-2.615 -11.831,-4.757 -11.921,-4.757c-0.09,0 -0.167,12.381 -0.167,27.518c0,22.504 0.116,27.518 0.639,27.518c0.351,0 5.115,-8.092 10.582,-17.982zM404.411,99.985c10.788,-4.766 10.631,-4.507 6.728,-10.935c-3.107,-5.117 -22.154,-33.787 -22.442,-33.787c-0.118,0 -0.213,11.606 -0.213,25.797v25.797l3.499,-1.463c1.924,-0.806 7.52,-3.236 12.431,-5.406zM860.114,57.003c-0.332,-0.332 -0.707,-0.266 -1.162,0.212c-1.346,1.412 -23.943,36.607 -23.943,37.292c0,0.39 0.282,0.941 0.626,1.225c0.344,0.284 6.044,2.882 12.672,5.769l12.047,5.252l0.125,-24.629c0.083,-16.205 -0.041,-24.798 -0.365,-25.12zM878.009,86.37c16.259,-27.167 15.665,-26.033 14.261,-27.194c-0.527,-0.437 -23.126,-8.736 -23.786,-8.736c-0.093,0 -0.167,11.66 -0.167,25.907c0,14.247 0.104,25.802 0.23,25.674c0.128,-0.128 4.385,-7.169 9.459,-15.647zM381.542,76.326c-0.374,-26.259 -0.11,-24.702 -4.163,-24.305c-1.193,0.119 -6.071,1.616 -10.832,3.326c-6.68,2.399 -8.875,3.399 -9.601,4.375l-0.942,1.265l10.769,18.016c14.372,24.053 12.848,21.767 14.078,21.109l1.031,-0.552zM435.273,87.786c9.469,-3.529 11.273,-4.358 11.827,-5.432c0.628,-1.22 0.446,-1.568 -4.726,-9.014c-8.449,-12.165 -19.202,-27.252 -19.419,-27.252c-0.112,0 -0.202,10.319 -0.202,22.928c0,19.292 0.106,22.928 0.672,22.928c0.371,0 5.702,-1.875 11.847,-4.163zM825.951,69.208c-0.126,-22.068 -0.158,-22.709 -1.004,-21.604c-0.88,1.148 -16.016,22.595 -20.773,29.435c-2.912,4.19 -3.074,5.567 -0.779,6.665c1.929,0.923 21.588,8.213 22.208,8.231c0.319,0.009 0.437,-7.793 0.354,-22.728zM846.958,66.919c6.172,-9.464 11.224,-17.69 11.224,-18.275c0,-0.585 -0.381,-1.274 -0.843,-1.52c-0.954,-0.509 -22.235,-7.305 -22.876,-7.305c-0.23,0 -0.402,10.481 -0.391,23.292c0.023,22.037 0.068,23.232 0.844,22.154c0.451,-0.626 5.871,-8.879 12.043,-18.345zM415.511,63.529c0,-23.531 0.168,-22.365 -3.263,-22.415c-2.399,-0.034 -19.247,4.982 -20.431,6.081c-0.509,0.473 -0.927,1.247 -0.927,1.713c0,0.466 3.281,5.836 7.286,11.93c4.009,6.096 9.167,13.955 11.464,17.466c2.705,4.132 4.478,6.39 5.025,6.395c0.792,0.009 0.844,-1.319 0.844,-21.173zM791.148,78.478l1.139,-0.923v-20.197c0,-19.462 -0.032,-20.197 -0.91,-20.197c-1.049,0 -17.015,22.868 -19.846,28.427c-3.326,6.53 -2.309,7.637 10.742,11.669c3.65,1.13 6.881,2.074 7.186,2.098c0.305,0.024 1.063,-0.369 1.688,-0.878zM468.739,76.689c3.123,-0.887 6.34,-1.958 7.146,-2.374c3.74,-1.932 4.244,-4.217 1.915,-8.644c-1.226,-2.327 -18.171,-27.614 -19.433,-28.994c-0.285,-0.312 -0.689,-0.149 -1.142,0.467c-0.588,0.797 -0.698,4.078 -0.671,20.099c0.032,20.975 -0.105,19.956 2.894,21.123c1.383,0.537 1.713,0.481 9.288,-1.679zM450.178,58.158c0.176,-18.203 -0.119,-23.693 -1.358,-25.224c-1.153,-1.423 -3.931,-1.328 -10.688,0.372c-8.915,2.238 -11.287,3.066 -12.512,4.37l-1.175,1.254l1.448,2.625c0.797,1.445 6.118,9.239 11.828,17.325c8.177,11.579 10.583,14.675 11.345,14.594c0.941,-0.104 0.968,-0.518 1.112,-15.314zM808.495,62.988c11.426,-16.13 15.894,-22.775 15.894,-23.648c0,-2.071 -3.436,-3.533 -15.296,-6.501c-5.328,-1.335 -7.425,-1.508 -8.875,-0.732c-0.901,0.482 -0.932,1.222 -0.932,20.717c0,20.134 0.063,20.984 1.531,20.62c0.177,-0.044 3.632,-4.75 7.677,-10.46zM756.021,68.319c2.019,-0.769 2.228,-2.777 2.229,-21.384c0.005,-16.298 -0.046,-17.258 -0.868,-17.258c-1.177,0 -20.795,29.678 -21.181,32.044c-0.239,1.483 -0.113,1.749 1.175,2.413c1.94,1.004 14.252,4.361 16.862,4.595c0.314,0.03 1.116,-0.157 1.781,-0.41zM505.765,66.22c5.558,-1.427 6.083,-1.661 6.899,-3.074l0.886,-1.53l-2.256,-3.54c-10.265,-16.089 -18.743,-28.4 -19.564,-28.4c-0.874,0 -0.91,0.653 -0.906,16.294c0,9.678 0.203,17.018 0.5,18.08c1.16,4.18 4.604,4.694 14.445,2.169zM483.964,45.727c-0.16,-19.973 -0.212,-20.268 -3.551,-21.371c-2.057,-0.68 -3.968,-0.446 -12.524,1.534c-4.948,1.144 -6.503,1.703 -7.358,2.642l-1.085,1.193l2.966,4.442c13.919,20.857 19.905,29.302 20.767,29.302c0.901,0 0.923,-0.516 0.786,-17.742zM774.679,52.143c10.785,-15.701 12.614,-18.707 12.893,-21.182c0.209,-1.847 0.08,-2.212 -1.094,-3.137c-1.723,-1.355 -4.442,-2.138 -12.02,-3.47c-5.791,-1.014 -6.278,-1.034 -7.815,-0.302l-1.638,0.78v38.702l1.027,-0.155c0.725,-0.11 3.263,-3.408 8.642,-11.239zM722.972,60.21c1.022,-0.84 1.031,-0.975 0.897,-18.941c-0.113,-15.638 -0.23,-18.113 -0.857,-18.222c-0.693,-0.122 -2.435,2.3 -17.96,24.994c-6.804,9.944 -7.35,9.14 8.064,11.84c7.751,1.357 8.565,1.384 9.853,0.329zM540.971,58.981c5.765,-0.949 6.566,-1.199 7.394,-2.309l0.929,-1.247l-9.753,-14.18c-11.966,-17.392 -12.479,-18.1 -13.036,-18.041c-0.248,0.026 -0.664,0.081 -0.932,0.122c-0.646,0.096 -0.644,28.058 0.005,31.47c1.049,5.531 3.359,6.159 15.394,4.181zM518.273,57.724c0.545,-0.347 0.622,-3.416 0.432,-17.735c-0.257,-19.6 -0.401,-20.543 -3.347,-22.125c-1.634,-0.877 -2.075,-0.905 -5.793,-0.365c-2.216,0.32 -5.936,1.073 -8.272,1.67c-4.033,1.035 -4.303,1.188 -5.409,3.065l-1.166,1.976l5.677,8.888c7.979,12.488 16.439,25.061 16.862,25.052c0.194,-0.005 0.653,-0.194 1.015,-0.428zM741.044,45.006c10.269,-15.606 12.353,-19.091 12.704,-21.25c0.536,-3.317 -2.275,-4.595 -13.091,-5.945c-6.305,-0.788 -6.512,-0.787 -8.07,0.126l-1.601,0.934l-0.126,19.402c-0.125,19.27 -0.121,19.402 0.86,19.402c0.761,0 2.922,-2.94 9.328,-12.672zM574.478,54.106c5.522,-0.626 10.116,-1.22 10.211,-1.319c0.095,-0.099 -5.083,-7.673 -11.505,-16.834c-8.61,-12.288 -11.921,-16.655 -12.623,-16.655c-0.923,0 -0.953,0.458 -1.076,17.093c-0.113,15.393 -0.048,17.18 0.68,17.982c1.036,1.146 2.045,1.126 14.315,-0.267zM688.634,54.511l1.074,-0.752v-17.35c0,-16.725 -0.032,-17.35 -0.916,-17.35c-0.658,0 -4.271,4.78 -12.773,16.898c-6.521,9.293 -11.812,16.91 -11.755,16.927c0.057,0.017 4.226,0.536 9.275,1.153c11.3,1.382 13.703,1.455 15.098,0.477zM654.159,51.366l1.274,-1.002v-17.103c0,-16.428 -0.036,-17.104 -0.909,-17.104c-0.662,0 -4.05,4.811 -12.551,17.834c-6.404,9.808 -11.642,17.955 -11.642,18.104c0,0.149 5.075,0.266 11.281,0.266c10.679,0 11.345,-0.052 12.551,-1.002zM615.949,50.398l0.927,-1.243l-4.593,-7.205c-12.865,-20.183 -16.529,-25.547 -17.462,-25.547c-0.911,0 -0.941,0.465 -0.941,15.206c0,14.414 0.05,15.296 0.983,16.898c1.751,3.011 3.242,3.407 12.243,3.263c7.876,-0.125 7.917,-0.131 8.843,-1.369zM552.366,33.531c0,-14.198 -0.085,-15.849 -0.878,-17.447c-1.294,-2.604 -2.765,-3.026 -9.17,-2.64c-8.438,0.509 -11.831,1.249 -12.756,2.785c-0.761,1.265 -0.723,1.345 5.67,10.62c13.856,20.111 15.686,22.622 16.412,22.493c0.626,-0.113 0.725,-2.248 0.725,-15.809zM706.99,37.025c9.671,-13.747 11.642,-16.883 12.004,-19.119c0.469,-2.886 -1.79,-3.785 -12.29,-4.892c-9.779,-1.031 -9.509,-1.217 -9.923,6.857c-0.175,3.398 -0.317,11.327 -0.319,17.61c0,10.49 0.068,11.444 0.842,11.624c0.464,0.105 0.977,0.068 1.139,-0.086c0.162,-0.154 4.007,-5.552 8.542,-11.999zM675.18,29.22c6.665,-9.545 12.114,-17.544 12.114,-17.778c0,-0.427 -12.938,-1.562 -17.763,-1.562c-2.831,0.002 -4.568,0.717 -6.341,2.615l-1.175,1.257l-0.023,13.148c-0.018,11.327 0.373,19.666 0.916,19.666c0.086,0 5.61,-7.808 12.272,-17.351zM585.665,41.625c0.59,-5.038 1.13,-19.587 0.932,-25.223c-0.212,-6.215 -0.419,-6.512 -4.514,-6.526c-6.18,-0.021 -20.336,1.166 -20.201,1.691c0.203,0.779 22.771,33.036 23.126,33.058c0.167,0.009 0.458,-1.341 0.653,-3.002zM621.158,27.096c0,-15.984 -0.058,-17.114 -0.894,-17.87c-0.791,-0.716 -2.211,-0.794 -12.533,-0.68l-11.64,0.131l6.772,10.38c16.313,25.007 16.376,25.103 17.348,25.103c0.921,0 0.944,-0.449 0.944,-17.061zM641.539,26.387c6.314,-9.636 11.48,-17.618 11.48,-17.735c0,-0.117 -5.144,-0.212 -11.426,-0.212c-9.957,0 -11.543,0.104 -12.308,0.797c-0.824,0.744 -0.883,1.947 -0.883,17.897c0,15.913 0.059,17.087 0.833,16.937c0.477,-0.093 5.716,-7.619 12.308,-17.681z" /></svg>