<svg xmlns="http://www.w3.org/2000/svg" viewBox="0 0 850 851" width="850" height="851"><path d="M327.666,0.333c33.931,0 66.507,13.507 90.5,37.5l394.667,394.667c49.627,49.63 49.627,131.37 0,181l-199.333,199.333c-49.63,49.627 -131.37,49.627 -181,0l-394.667,-394.667c-23.993,-23.993 -37.5,-56.569 -37.5,-90.5v-199.333c0,-70.187 57.813,-128 128,-128zM128.334,85.666c-24.069,0 -42.667,18.598 -42.667,42.667v199.333c0,11.331 4.488,22.155 12.5,30.167l394.667,394.667c17.02,17.019 43.313,17.019 60.333,0l199.333,-199.333c17.019,-17.02 17.019,-43.313 0,-60.333l-394.667,-394.667c-8.012,-8.012 -18.836,-12.5 -30.167,-12.5h-199.333z" /> <path d="M405.667,267c0,76.078 -62.589,138.667 -138.667,138.667c-76.078,0 -138.667,-62.589 -138.667,-138.667c0,-76.078 62.589,-138.667 138.667,-138.667c76.078,0 138.667,62.589 138.667,138.667zM213.667,267c0,29.96 23.373,53.333 53.333,53.333c29.96,0 53.333,-23.373 53.333,-53.333c0,-29.96 -23.373,-53.333 -53.333,-53.333c-29.96,0 -53.333,23.373 -53.333,53.333z" /></svg>