<svg xmlns="http://www.w3.org/2000/svg" viewBox="0 0 831 831" width="831" height="831"><path d="M324.8,0.4c20.359,0 39.904,8.104 54.3,22.5l428.8,428.8c29.778,29.778 29.778,78.822 0,108.6l-247.6,247.6c-29.778,29.778 -78.822,29.778 -108.6,0l-428.8,-428.8c-14.396,-14.396 -22.5,-33.941 -22.5,-54.3v-247.6c0,-42.112 34.688,-76.8 76.8,-76.8zM51.6,77.2v247.6c0,6.799 2.693,13.293 7.5,18.1l428.8,428.8c10.209,10.209 25.991,10.209 36.2,0l247.6,-247.6c10.209,-10.209 10.209,-25.991 0,-36.2l-428.8,-428.8c-4.807,-4.807 -11.301,-7.5 -18.1,-7.5h-247.6c-14.441,0 -25.6,11.159 -25.6,25.6z" /> <path d="M371.6,250c0,66.854 -54.746,121.6 -121.6,121.6c-66.854,0 -121.6,-54.746 -121.6,-121.6c0,-66.854 54.746,-121.6 121.6,-121.6c66.854,0 121.6,54.746 121.6,121.6zM179.6,250c0,39.184 31.216,70.4 70.4,70.4c39.184,0 70.4,-31.216 70.4,-70.4c0,-39.184 -31.216,-70.4 -70.4,-70.4c-39.184,0 -70.4,31.216 -70.4,70.4z" /></svg>