<svg xmlns="http://www.w3.org/2000/svg" viewBox="0 0 832 870" width="832" height="870"><path d="M381.654,860.703c-29.358,-8.103 -82.122,-40.033 -117.253,-70.957c-35.131,-30.924 -71.657,-56.225 -81.17,-56.225c-9.512,0 -41.807,19.414 -71.767,43.143c-54.437,43.115 -86.285,54.36 -86.285,30.466c0,-6.972 118.103,-133.997 262.45,-282.279c144.347,-148.282 262.45,-279.125 262.45,-290.764c0,-29.233 -128.954,-75.774 -209.991,-75.788c-108.718,-0.019 -228.625,106.417 -228.625,202.941c0,40.822 -32.644,70.283 -77.875,70.283c-31.882,0 -43.625,-64.565 -21.63,-118.921c21.214,-52.427 214.12,-246.442 277.92,-279.519c80.157,-41.557 265.553,-6.391 370.863,70.345c20.797,15.154 33.354,8.873 85.528,-42.784c33.633,-33.301 66.346,-60.546 72.695,-60.546c26.528,0 7.945,54.508 -38.503,112.936c-49.574,62.361 -49.678,62.805 -26.961,115.047c62.121,142.859 78.762,281.939 49.054,409.975c-33.285,143.453 -264.563,265.793 -420.899,222.646zM601.47,660.486c70.714,-75.7 90.689,-207.551 47.714,-314.956c-12.723,-31.798 -27.707,-57.814 -33.299,-57.814c-15.207,0 -331.851,326.966 -331.851,342.669c0,16.452 55.371,54.054 94.075,63.885c15.489,3.935 62.776,7.904 105.082,8.822c68.414,1.484 81.494,-3.228 118.278,-42.606zM239.3,407.616c-28.957,-7.74 -59.365,-72.048 -49.204,-104.06c8.773,-27.643 80.124,-73.363 114.489,-73.363c28.621,0 55.824,66.516 44.939,109.885c-4.405,17.552 -18.169,42.072 -30.586,54.489c-22.537,22.537 -35.931,24.731 -79.637,13.05z" /></svg>