<svg xmlns="http://www.w3.org/2000/svg" viewBox="0 0 812 766" width="812" height="766"><path d="M368.169,752.594c-35.259,-12.735 -63.626,-52.63 -64.931,-91.318c-0.537,-15.921 113.457,-131.666 129.674,-131.666c31.202,0 95.748,36.667 101.356,57.579c19.96,74.424 -1.069,139.004 -53.339,163.808c-41.414,19.652 -61.968,19.943 -112.76,1.597zM660.227,680.917c-64.24,-15.109 -100.576,-81.23 -76.536,-139.27c7.027,-16.964 29.35,-46.908 49.608,-66.543c50.835,-49.271 104.123,-49.723 147.433,-1.251c26.364,29.506 30.78,43.503 30.78,97.549c0,70.138 -11.68,87.063 -74.682,108.222c-20.238,6.797 -37.287,11.859 -37.887,11.25c-0.6,-0.609 -18.023,-5.09 -38.717,-9.958zM740.437,601.834c25.089,-18.346 25.29,-66.718 0.39,-94.231c-10.596,-11.71 -23.009,-21.291 -27.583,-21.291c-18.373,0 -74.926,57.335 -74.926,75.962c0,45.928 61.062,69.582 102.119,39.56zM164.733,523.93c-67.983,-59.959 -72.055,-86.581 -21.65,-141.543c111.712,-121.811 102.638,-114.924 140.54,-106.675c46.004,10.011 71.063,28.08 96.146,69.326c24.849,40.86 25.481,63.196 3.354,118.496c-18.742,46.842 -77.676,94.369 -129.355,104.319c-27.227,5.242 -40.989,-1.547 -89.035,-43.922zM274.914,469.301c9.356,-9.356 17.01,-33.711 17.01,-54.124c0,-33.957 -2.741,-37.114 -32.225,-37.114c-22.428,0 -37.615,8.227 -49.956,27.062c-16.426,25.069 -16.426,29.055 0,54.124c20.404,31.14 40.918,34.304 65.171,10.052zM551.421,326.979c-45.923,-31.932 -63.917,-61.025 -64.291,-103.944c-0.303,-34.707 7.92,-50.167 51.058,-96.005c28.28,-30.05 59.942,-63.799 70.361,-74.998c24.254,-26.07 47.987,-25.672 92.64,1.552c62.245,37.95 99.153,160.202 62.816,208.067c-7.89,10.393 -32.761,33.531 -55.268,51.418c-47.914,38.077 -114.139,43.933 -157.315,13.91zM54.971,244.5c-36.148,-20.894 -54.483,-58.747 -54.932,-113.411c-0.501,-61.075 11.496,-81.315 64.615,-109.002c61.676,-32.148 102.335,-29.352 152.645,10.494c35.908,28.439 42.151,39.558 42.151,75.069c0,22.927 -4.338,52.962 -9.64,66.745c-23.698,61.605 -138.241,102.818 -194.839,70.105z" /></svg>