<svg xmlns="http://www.w3.org/2000/svg" viewBox="0 0 813 405" width="813" height="405"><path d="M14.157,401.956c-24.557,-8.222 -15.65,-30.174 25.594,-63.083c34.547,-27.565 55.254,-33.278 156.459,-43.167c64.153,-6.268 189.61,-14.44 278.792,-18.159c93.719,-3.908 162.149,-11.469 162.149,-17.915c0,-6.134 -14.081,-28.047 -31.292,-48.695c-17.211,-20.648 -39.534,-49.497 -49.607,-64.108c-19.651,-28.503 -126.573,-73.083 -146.197,-60.956c-20.68,12.781 -12.93,26.146 22.276,38.419c53.896,18.788 41.924,69.498 -24.843,105.231c-32.408,17.344 -96.386,2.664 -117.066,-26.86c-32.081,-45.802 -21.923,-82.434 40.041,-144.398l57.436,-57.436h86.324c116.312,0 166.982,17.23 226.913,77.161c71.458,71.458 108.308,139.441 110.531,203.915c1.748,50.692 -0.387,54.89 -36.849,72.376c-27.395,13.139 -100.544,22.399 -250.336,31.693c-244.906,15.195 -489.774,22.864 -510.326,15.982z" /></svg>