<svg xmlns="http://www.w3.org/2000/svg" viewBox="0 0 828 569" width="828" height="569"><path d="M711.851,539.257c-63.036,-45.663 -186.071,-171.472 -194.902,-199.298c-4.176,-13.155 -18.33,-35.498 -31.453,-49.652l-23.861,-25.733l-33.049,30.386c-18.176,16.712 -57.113,44.015 -86.525,60.673c-29.412,16.658 -90.268,57.038 -135.234,89.735c-159.319,115.847 -208.008,135.814 -206.57,84.712c0.556,-19.625 185.89,-185.734 266.525,-238.872c23.982,-15.804 63.225,-46.634 87.207,-68.51c82.806,-75.536 134.631,-109.918 165.599,-109.861c54.888,0.1 270.769,252.994 297.727,348.771c14.985,53.24 13.832,62.433 -10.941,87.207c-29.023,29.024 -43.249,27.585 -94.522,-9.557zM111.173,222.207c-65.698,-40.909 -70.004,-115.818 -8.275,-143.944c14.962,-6.817 30.122,-21.592 33.69,-32.832c11.53,-36.328 51.077,-54.305 89.78,-40.813c39.484,13.764 49.096,36.598 47.385,112.564c-1.003,44.429 -6.958,60.562 -31.356,84.927c-41.211,41.154 -86.316,48.062 -131.224,20.098z" /></svg>