<svg xmlns="http://www.w3.org/2000/svg" viewBox="0 0 888 856" width="888" height="856"><path d="M590.017,-0.058l-22.429,54.549c-23.997,58.362 -38.471,116.138 -46.372,185.113c-4.841,42.255 -4.392,43.113 30.63,58.565c19.549,8.625 41.505,15.705 48.792,15.734c28.936,0.113 83.541,20.219 83.769,30.842c0.45,20.976 121.665,63.123 172.195,59.874c14.958,-0.962 28.813,2.92 30.789,8.627c3.522,10.172 -149.442,125.494 -166.457,125.494c-4.762,0 -8.664,3.163 -8.67,7.028c-0.006,3.865 -10.548,19.279 -23.426,34.254c-12.878,14.974 -23.415,32.747 -23.415,39.494c0,6.747 -8.276,16.698 -18.392,22.111c-11.857,6.346 -16.285,15.332 -12.463,25.293c4.123,10.744 2.399,13.268 -5.661,8.287c-7.249,-4.48 -10.667,-2.424 -9.126,5.491c3.193,16.396 -9.678,55.635 -24.128,73.561c-6.232,7.731 -16.549,30.922 -22.926,51.537c-6.377,20.615 -13.843,42.936 -16.589,49.603l-107.699,-16.191l-39.091,-41.075c-63.842,-67.082 -119.448,-106.238 -189.017,-133.101c-122.005,-47.11 -124.39,-48.421 -103.074,-56.652c10.307,-3.98 31.104,-17.435 46.215,-29.898c20.383,-16.812 34.41,-21.274 54.345,-17.287c18.774,3.755 24.88,2.153 20.264,-5.318c-11.425,-18.487 62.495,-1.102 84.929,19.973c11.189,10.512 25.342,19.112 31.45,19.112c6.108,0 35.021,23.724 64.25,52.72c49.323,48.93 54.038,51.496 65.595,35.691c6.849,-9.366 12.452,-22.495 12.452,-29.176c0,-6.681 31.625,-44.289 70.278,-83.574c38.653,-39.285 70.278,-74.688 70.278,-78.673c0,-3.985 9.488,-9.846 21.083,-13.023c17.343,-4.753 18.624,-7.358 7.22,-14.688c-7.625,-4.901 -30.817,-11.514 -51.537,-14.696c-62.953,-9.669 -157.422,-42.657 -195.338,-68.211c-19.718,-13.289 -44.038,-40.211 -54.045,-59.827l-18.195,-35.665l22.723,-35.188c12.497,-19.353 27.45,-58.092 33.228,-86.086c5.778,-27.994 15.074,-56.403 20.658,-63.131zM30.359,512.136c-16.042,-10.181 -30.111,-101.358 -30.177,-195.579c-0.047,-67.123 2.562,-79.378 20.453,-96.046c11.279,-10.508 25.686,-19.106 32.015,-19.106c6.329,0 19.949,-11.588 30.266,-25.751c23.632,-32.441 32.211,-24.026 33.242,32.604c2.108,115.788 -21.479,266.178 -45.996,293.269c-18.563,20.511 -22.534,21.57 -39.803,10.61zM207.629,483.748c-18.332,-11.9 -26.929,-70.786 -34.519,-236.448l-6.699,-146.197l33.988,-25.924c18.694,-14.258 33.988,-31.749 33.988,-38.867c0,-22.023 15.953,-14.276 26.409,12.825c17.025,44.127 20.126,114.465 11.258,255.343c-11.634,184.808 -11.193,182.333 -32.982,185.119c-10.307,1.318 -24.457,-1.314 -31.443,-5.85z" /></svg>