<svg xmlns="http://www.w3.org/2000/svg" viewBox="0 0 918 864" width="918" height="864"><path d="M241.845,856.499c-99.573,-23.656 -216.714,-123.028 -236.168,-200.344c-15.166,-60.274 0.514,-113.742 47.955,-163.519c21.686,-22.754 42.911,-47.594 47.168,-55.2c10.242,-18.302 44.424,-17.848 44.424,0.589c0,7.931 -10.58,35.299 -23.512,60.819c-12.932,25.52 -23.512,61.205 -23.512,79.301c0,61.052 83.616,129.308 191.768,156.541c33.975,8.555 55.538,8.328 97.711,-1.028c96.824,-21.48 125.528,-88.292 92.017,-214.184c-7.306,-27.448 -17.394,-54.958 -22.416,-61.131c-12.794,-15.727 -49.644,-138.492 -44.21,-147.284c2.459,-3.979 6.285,-33.745 8.503,-66.146c4.026,-58.841 4.114,-58.995 73.1,-128.933c37.988,-38.512 90.036,-80.785 115.663,-93.94c82.304,-42.247 173.37,-20.495 243.041,58.051c56.15,63.303 83.31,220.62 49.407,286.18c-14.779,28.579 -96.603,76.144 -130.987,76.144c-26.852,0 -27.51,-25.733 -1.529,-59.797c44.799,-58.735 40.401,-132.727 -11.99,-201.742c-48.955,-64.488 -115.701,-75.818 -178.529,-30.306c-21.198,15.356 -42.994,36.238 -48.435,46.406c-17.88,33.409 -10.407,96.297 24.03,202.223c30.632,94.221 33.373,111.063 28.249,173.548c-10.476,127.726 -94.023,235.985 -210.485,272.741c-67.466,21.293 -82.625,22.564 -131.261,11.01zM246.402,663.777c-49.846,-17.26 -74.489,-48.93 -68.868,-88.508c4.877,-34.344 28.811,-67.019 49.09,-67.019c6.957,0 12.65,-4.232 12.65,-9.405c0,-5.173 8.507,-17.912 18.906,-28.31c15.243,-15.243 26.63,-17.834 58.78,-13.376c76.95,10.671 101.006,38.462 101.006,116.689c0,68.09 -93.34,117.016 -171.564,89.929zM624.877,403.075c-57.296,-21.482 -86.665,-79.871 -66.651,-132.511c5.412,-14.235 19.496,-30.281 31.298,-35.658c11.802,-5.377 28.25,-21.613 36.553,-36.079c19.802,-34.503 48.897,-41.539 77.79,-18.812c12.534,9.859 29.454,15.368 37.6,12.242c19.482,-7.476 33.924,30.406 33.755,88.538c-0.197,67.23 -8.366,85.536 -46.963,105.227c-45.584,23.255 -74.235,27.982 -103.381,17.054zM700.111,292.389c0,-15.843 -17.172,-28.666 -38.389,-28.666c-15.256,0 -9.202,36.368 7.622,45.783c20.166,11.286 30.767,5.388 30.767,-17.117z" /></svg>