<svg xmlns="http://www.w3.org/2000/svg" viewBox="0 0 934 799" width="934" height="799"><path d="M388.678,791.605c-51.866,-12.517 -75.174,-30.849 -94.356,-74.212c-17.347,-39.217 -17.602,-44.981 -3.48,-78.78c13.598,-32.544 58.303,-82.701 74.442,-83.521c3.367,-0.17 8.834,16.651 12.149,37.383c7.414,46.364 34.038,71.923 77.007,73.927c30.516,1.423 32.809,-0.702 35.503,-32.913c1.995,-23.857 -6.465,-51.669 -27.543,-90.541c-41.186,-75.955 -76.704,-104.551 -130.073,-104.723c-23.118,-0.078 -58.493,-7.084 -78.611,-15.578c-20.118,-8.494 -39.178,-15.442 -42.355,-15.442c-3.177,0 -16.564,24.392 -29.748,54.203c-16.522,37.359 -23.233,68.697 -21.595,100.844c2.237,43.915 0.842,46.818 -23.867,49.675c-26.324,3.044 -35.804,-7.494 -66.149,-73.526c-10.745,-23.383 1.905,-85.808 22.598,-111.52c17.702,-21.994 36.295,-69.233 30.77,-78.174c-2.662,-4.307 -17.107,-10.444 -32.1,-13.639c-37.839,-8.062 -91.21,-42.824 -91.21,-59.407c0,-7.574 11.682,-21.425 25.96,-30.781c25.566,-16.751 71.963,-16.654 141.516,0.299c21.497,5.239 26.436,1.579 36.894,-27.344c6.641,-18.367 12.075,-45.082 12.075,-59.368c0,-24.143 32.555,-66.094 51.291,-66.094c19.787,0 29.481,54.939 19.963,113.142c-10.719,65.549 -8.944,73.788 15.896,73.788c10.549,0 21.777,-12.878 29.253,-33.555c28.184,-77.943 174.019,-263.049 192.601,-244.467c12.711,12.711 4.531,55.726 -20.715,108.939c-33.066,69.697 -35.342,137.674 -5.915,176.709c17.956,23.819 25.553,26.441 68.145,23.517c26.365,-1.81 61.218,-10.932 77.452,-20.272c27.25,-15.678 29.594,-21.396 30.547,-74.498c0.902,-50.25 4.32,-59.912 27.056,-76.474c14.313,-10.426 26.024,-25.229 26.024,-32.894c0,-7.665 3.885,-13.937 8.634,-13.937c15.841,0 33.922,30.147 45.552,75.949l11.511,45.335l49.966,2.527c70.433,3.562 92.836,17.58 89.06,55.726c-2.652,26.795 -9.226,33.009 -52.226,49.368c-111.461,42.405 -113.142,43.589 -113.142,79.642c0,39.649 17.606,56.649 66.925,64.619c28.058,4.534 37.104,10.959 39.549,28.088c5.925,41.504 -111.282,74.435 -165.372,46.464c-34.474,-17.827 -59.164,-60.762 -59.164,-102.884c0,-23.996 -4.17,-30.004 -20.824,-30.004c-22.491,0 -22.362,1.9 4.988,73.788c19.667,51.693 19.568,113.31 -0.295,184.108c-19.157,68.276 -50.575,98.878 -123.857,120.64c-54.115,16.07 -74.358,17.054 -120.728,5.863z" /></svg>