<svg xmlns="http://www.w3.org/2000/svg" viewBox="0 0 858 782" width="858" height="782"><path d="M670.809,768.3c-24.185,-8.762 -55.064,-25.88 -68.621,-38.041c-13.557,-12.161 -55.528,-39.241 -93.269,-60.177c-37.741,-20.937 -97.536,-57.477 -132.878,-81.2c-35.342,-23.723 -77.155,-46.37 -92.919,-50.327c-27.936,-7.011 -54.405,-46.344 -54.405,-80.843c0,-9.432 15.332,-25.916 34.071,-36.631c18.739,-10.715 39.95,-33.635 47.135,-50.934c20.753,-49.963 51.457,-39.243 134.704,47.031c41.651,43.165 119.474,114.578 172.941,158.694c124.812,102.984 146.243,126.989 150.723,168.83c3.15,29.417 -0.403,34.682 -24.918,36.919c-15.726,1.435 -48.38,-4.56 -72.564,-13.321zM577.02,493.613c-33.803,-33.803 -34.373,-40.89 -6.17,-76.745c12.046,-15.314 58.747,-99.64 103.78,-187.39c110.733,-215.775 183.112,-287.108 183.112,-180.467c0,43.973 -102.935,356.309 -132.092,400.809c-19.231,29.351 -81.658,71.753 -105.741,71.822c-8.149,0.025 -27.448,-12.59 -42.888,-28.029zM320.212,289.313c-3.145,-3.087 -59.757,-8.459 -125.805,-11.938c-117.988,-6.214 -194.425,-16.686 -194.425,-26.636c0,-2.772 5.107,-14.583 11.349,-26.246c13.965,-26.094 46.988,-36.839 228.824,-74.452c278.66,-57.642 334.939,-66.491 352.487,-55.422c22.901,14.445 46.233,96.979 35.567,125.812c-15.03,40.63 -86.686,65.939 -199.347,70.411c-56.612,2.247 -105.504,1.559 -108.649,-1.528z" /></svg>