<svg xmlns="http://www.w3.org/2000/svg" viewBox="0 0 529 765" width="529" height="765"><path d="M270.134,762.045c-6.681,-2.672 -12.147,-9.138 -12.147,-14.368c0,-5.23 -11.387,-33.58 -25.305,-63c-13.918,-29.42 -27.486,-69.748 -30.151,-89.619c-4.099,-30.564 -0.201,-41.099 25.305,-68.405c16.583,-17.752 30.151,-35.696 30.151,-39.874c0,-4.178 -34.881,-21.658 -77.514,-38.844c-76.758,-30.941 -145.99,-88.04 -145.99,-120.404c0,-7.35 -9.839,-19.911 -21.865,-27.915c-21.691,-14.437 -21.162,-15.252 66.9,-102.942c48.82,-48.615 91.65,-99.886 95.176,-113.937c8.85,-35.263 44.904,-81.902 63.313,-81.902c8.379,0 21.333,13.776 28.787,30.614c18.441,41.662 71.745,92.836 145.247,139.443c33.715,21.379 74.997,50.392 91.738,64.475c27.707,23.307 29.399,27.885 18.86,51.017c-8.837,19.395 -18.663,25.413 -41.495,25.413c-80.566,0 -194.243,-47.02 -244.016,-100.931l-27.934,-30.256l-21.762,25.218c-11.969,13.87 -29.414,27.945 -38.768,31.277c-26.522,9.449 -20.094,32.328 15.216,54.15c17.722,10.953 40.68,29.425 51.017,41.05c10.337,11.625 49.406,40.664 86.819,64.531c78.452,50.048 131.187,97.255 131.187,117.436c0,11.182 -10.762,12.919 -53.028,8.557c-64.363,-6.643 -63.954,-7.423 -72.329,138.022c-5.609,97.41 -10.925,111.788 -37.412,101.193z" /></svg>