<svg xmlns="http://www.w3.org/2000/svg" viewBox="0 0 738 834" width="738" height="834"><path d="M48.171,815.87c-63.655,-34.539 -63.809,-105.023 -0.415,-189.602c37.401,-49.899 52.859,-43.522 59.092,24.377c3.975,43.299 7.418,46.506 49.931,46.506c41.004,0 46.905,-4.744 57.854,-46.506c29.702,-113.295 -22.903,-295.559 -116.023,-401.993l-60.992,-69.712l34.396,-25.067c18.918,-13.787 58.85,-51.158 88.739,-83.047c29.889,-31.889 59.35,-57.98 65.469,-57.98c6.119,0 11.126,20.657 11.126,45.904c0,41.942 -4.014,46.657 -46.506,54.629c-25.578,4.799 -46.506,11.681 -46.506,15.293c0,3.612 15.337,24.795 34.081,47.072c18.745,22.277 55.766,82.934 82.27,134.793c43.969,86.033 48.673,106.018 53.711,228.225c4.854,117.747 2.043,140.754 -23.256,190.345c-45.827,89.829 -161.316,131.068 -242.971,86.763zM504.379,807.379c-80.917,-43.618 -108.679,-137.19 -93.989,-316.787c6.021,-73.615 19.231,-121.771 51.239,-186.788c49.334,-100.211 114.315,-184.658 142.092,-184.658c27.887,0 23.478,30.588 -19.765,137.12c-47.523,117.078 -68.536,236.713 -54.785,311.915c18.218,99.627 86.955,143.234 118.084,74.913c33.553,-73.64 108.195,-3.077 86.823,82.077c-18.715,74.566 -154.035,122.996 -229.7,82.209zM294.989,198.889c-53.333,-21.507 -50.698,-60.11 8.117,-118.926c67.001,-67.001 95.14,-68.336 124.901,-5.925c28.841,60.48 19.459,90.102 -37.028,116.907c-50.136,23.791 -55.577,24.241 -95.991,7.944zM481.837,90.419c-5.369,-8.688 3.003,-25.598 19.147,-38.67c15.779,-12.777 28.689,-29.747 28.689,-37.71c0,-19.326 30.589,-18.438 50.492,1.466c22.781,22.781 19.698,72.784 -5.073,82.289c-34.141,13.101 -82.988,9.239 -93.255,-7.374z" /></svg>