<svg xmlns="http://www.w3.org/2000/svg" viewBox="0 0 866 877" width="866" height="877"><path d="M813.262,102.904c69.779,45.636 66.825,334.956 9.809,503.561c-36.897,109.108 -192.326,236.077 -360.541,261.408c-96.124,14.475 -178.533,13.491 -266.053,-28.794c-43.294,-20.917 -123.373,-92.192 -142.961,-130.602c-56.795,-111.371 -59.286,-105.753 -46.434,-242.461c1.781,-18.948 10.416,-55.019 23.146,-79.972c25.976,-50.917 139.651,-174.268 160.598,-174.268c21.73,0 15.829,39.426 -14.115,94.308c-15.531,28.467 -30.946,81.417 -35.065,120.449c-8.899,84.341 10.856,130.84 83.453,196.427c105.918,95.69 223.928,124.427 350.799,85.424c94.862,-29.163 150.094,-56.115 162.756,-79.421c23.73,-43.675 47.086,-181.692 40.151,-237.255c-14.046,-112.529 -95.976,-247.861 -177.95,-293.939c-38.076,-21.402 -122.705,16.707 -150.263,29.304c-20.202,9.235 -38.87,19.154 -4.84,52.585c13.13,13.13 43.866,27.451 68.303,31.825c37.76,6.759 49.305,3.487 76.903,-21.792c24.984,-22.885 34.642,-26.235 41.879,-14.526c37.182,60.161 -78.075,172.008 -163.908,159.058c-53.544,-8.078 -128.484,-57.45 -138.555,-91.283c-18.102,-60.811 -10.328,-92.828 33.668,-138.662c23.943,-24.942 55.971,-67.756 81.831,-85.196c140.408,-71.206 367.387,83.821 367.387,83.821z" /></svg>