<svg xmlns="http://www.w3.org/2000/svg" viewBox="0 0 914 819" width="914" height="819"><path d="M608.041,803.962c-21.78,-8.095 -48.51,-19.807 -59.401,-26.028c-27.836,-15.9 -25.698,-48.935 4.4,-67.979c13.31,-8.422 30.784,-23.568 38.83,-33.657c12.559,-15.748 25.017,-18.514 88.001,-19.54c40.354,-0.658 79.939,-4.072 87.965,-7.587c56.55,-24.769 44.991,-215.624 -16.425,-271.205c-31.133,-28.175 -89.088,-43.003 -127.572,-32.64c-45.525,12.259 -158.987,120.225 -215.334,204.904c-23.062,34.658 -50.655,72.914 -61.318,85.014c-10.663,12.1 -20.684,33.481 -22.268,47.513c-1.585,14.032 -10.022,29.872 -18.75,35.2c-13.217,8.069 -20.801,4.343 -45.393,-22.303c-28.628,-31.019 -29.744,-35.028 -36.743,-132.001c-3.97,-55.006 -6.361,-127.055 -5.313,-160.11c1.048,-33.055 -1.419,-58.795 -5.482,-57.2c-4.063,1.594 -25.017,24.678 -46.564,51.299c-21.547,26.621 -55.961,57.698 -76.475,69.062c-61.395,34.01 -107.589,7.866 -72.904,-41.261c27.349,-38.736 51.649,-99.407 62.983,-157.252c12.637,-64.494 7.689,-85.455 -18.231,-77.228c-27.564,8.748 -61.213,-17.45 -61.213,-47.659c0,-19.563 5.784,-27.525 26.108,-35.944c14.359,-5.948 28.487,-18.312 31.396,-27.477c6.237,-19.651 35.767,-37.465 48.776,-29.425c16.498,10.196 50.941,96.451 57.123,143.054c6.591,49.687 15.014,56.687 31.197,25.928c20.606,-39.164 91.619,-129.801 101.699,-129.801c5.663,0 29.822,-21.908 53.688,-48.684c34.966,-39.231 45.317,-46.363 53.31,-36.733c24.229,29.194 11.694,125.916 -41.863,323.019c-15.124,55.66 -26.403,112.802 -25.064,126.982l2.434,25.781l39.6,-42.238c44.905,-47.896 107.306,-108.05 129.965,-125.285c8.38,-6.374 31.076,-23.905 50.436,-38.959c46.218,-35.937 65.809,-42.801 125.889,-44.109c36.334,-0.791 60.432,4.303 87.648,18.527c42.87,22.406 96.992,81.413 104.805,114.265c2.909,12.23 8.627,26.511 12.707,31.736c4.08,5.225 12.214,47.468 18.075,93.873c22.202,175.785 -26.536,271.97 -162.034,319.776c-45.306,15.985 -88.996,14.842 -138.689,-3.627zM581.641,579.892c-37.645,-18.977 -32.93,-46.174 16.427,-94.759c24.301,-23.921 48.079,-43.493 52.84,-43.493c18.87,0 45.134,47.028 45.134,80.818c0,31.992 -2.662,35.652 -37.4,51.42c-44.303,20.11 -48.402,20.43 -77.001,6.013z" /></svg>