<svg xmlns="http://www.w3.org/2000/svg" viewBox="0 0 966 960" width="966" height="960"><path d="M822.423,310.2c11.99,-18.101 12.299,-39.838 13.15,-60.956c-0.773,3.712 -5.723,9.21 -7.813,11.139c-3.172,3.015 -6.187,6.264 -8.354,10.132c-2.089,3.791 -1.778,8.201 -3.326,11.913c-2.862,6.732 -5.415,8.045 -12.609,11.604c-4.176,2.088 -8.895,4.027 -13.072,5.956c-3.636,1.697 -6.112,3.473 -10.366,3.868c-9.437,1.004 -17.637,3.171 -26.765,5.414c-7.581,1.857 -12.61,5.414 -19.339,8.663c-3.093,1.469 -4.951,3.318 -7.659,5.028c-4.486,2.708 -10.519,3.636 -15.47,4.951c-6.035,1.556 -12.222,1.381 -18.334,2.784c-3.25,0.695 -5.338,2.083 -8.51,2.938c-10.443,2.938 -22.124,3.868 -32.103,7.271c-5.184,1.774 -8.973,1.688 -14.466,1.929c-10.598,0.463 -16.399,7.734 -26.146,10.442c-10.134,2.785 -18.565,10.592 -29.395,11.293c-2.784,0.155 -5.49,-0.7 -8.198,0.155c-3.249,1.005 -7.04,4.333 -10.211,5.956c-4.875,2.554 -13.462,7.194 -17.174,11.604c-1.161,2.319 -2.476,4.558 -3.945,6.729c-1.469,1.237 -2.86,2.697 -4.022,4.254c-1.787,2.784 -2.259,5.028 -1.864,8.277c-0.386,-5.192 -3.403,-5.259 -5.956,-3.482c-2.248,1.625 -2.467,3.164 -4.177,5.028c-2.243,2.319 -5.493,4.016 -7.736,6.187c-0.636,0.548 -1.162,1.009 -1.71,1.557c-4.098,-6.42 -8.122,-12.917 -13.15,-18.487c-3.635,-4.099 -7.122,-8.819 -9.205,-13.691c-0.526,-1.315 -1.315,-2.465 -1.929,-3.868c-1.163,-2.476 -1.009,-3.483 -1.623,-6.112c-1.24,-4.718 -1.789,-10.058 -3.017,-14.621c-0.078,-0.22 -0.078,-0.527 -0.155,-0.768c0.636,-2.861 1.316,-5.647 1.864,-8.431c0.844,-4.486 0.778,-10.132 2.861,-14.233c0.789,-1.392 1.557,-2.155 2.017,-3.712c0.307,-1.236 0,-2.397 0.548,-3.712c2.399,-5.337 6.961,-13.615 13.073,-15.084c5.416,-1.238 12.454,0 18.024,0.077c3.868,0 6.962,-1.162 10.753,-1.557c3.173,-0.24 6.576,0.769 9.67,0.155c4.41,-0.774 8.666,-3.712 11.295,-7.194c1.546,-2.088 2.712,-2.855 4.795,-4.872c1.397,-1.392 2.406,-3.017 3.48,-4.486c1.699,-0.541 3.168,-1.471 2.861,-3.094c-1.151,0.851 -2.006,1.932 -2.861,3.094c-1.472,0.394 -3.18,0.624 -4.101,0.701c-3.405,0.385 -5.726,2.083 -9.052,2.784c-6.729,1.314 -12.685,-1.47 -19.261,-1.315c-3.788,0 -8.275,-0.329 -11.834,-1.403c-1.084,-0.395 -1.479,-1.162 -2.553,-1.557c-2.011,-0.614 -4.712,-0.373 -6.729,-1.382c-2.011,-1.004 -3.164,-2.563 -5.028,-3.945c-2.552,-1.858 -5.177,-2.013 -7.194,-4.642c0.85,-2.242 5.872,-3.556 7.889,-4.718c2.165,-1.159 3.397,-2.861 5.414,-4.33c3.714,-2.63 7.041,-5.724 9.67,-9.515c4.254,-5.955 8.354,-12.532 12.376,-18.796c2.475,-3.788 5.878,-6.42 8.354,-10.132c1.392,-2.244 3.095,-5.033 4.718,-6.962c1.393,-1.626 3.027,-2.481 4.101,-4.41c1.16,-2.167 1.934,-3.862 3.403,-5.879c1.012,-1.316 2.086,-2.776 2.941,-4.333c1.008,-1.704 0.767,-2.71 1.315,-4.333c0.697,-2.094 2.467,-3.168 4.177,-4.177c1.702,-1.083 3.482,-2.317 5.105,-3.326c2.087,-1.229 4.1,-1.229 6.729,-1.074c4.875,0.308 10.366,1.787 15.24,2.861c7.115,1.625 10.132,5.028 10.132,12.532c0,-2.476 0,-4.951 0,-7.427c0,-3.248 0.379,-3.873 -2.017,-5.956c-2.784,-2.399 -5.569,-4.024 -8.198,-6.885c-2.63,-2.784 -4.718,-5.029 -8.277,-6.652c-1.701,-0.765 -4.102,-2.234 -5.725,-2.629c-2.32,-0.703 -5.646,-0.232 -8.122,-0.155c-3.483,0.087 -6.809,0.087 -9.903,1.469l-43.318,30.942c-2.087,1.316 -4.177,2.638 -6.42,3.559c-2.784,1.078 -5.724,1.692 -8.277,3.249c-3.172,1.782 -5.493,4.797 -8.819,6.112c-1.083,0.373 -2.329,0.526 -3.403,1.074c-1.314,0.543 -2.86,1.552 -4.022,2.32c-3.326,2.17 -4.719,2.861 -8.973,2.784c-3.403,-0.088 -7.04,0.395 -10.211,1.469c-2.243,0.778 -3.642,2.16 -5.725,2.861c-9.282,-0.767 -18.796,-1.228 -21.737,-0.46c-7.892,2.012 -14.466,3.791 -18.876,11.062c-1.077,1.778 -2.393,3.95 -3.094,5.879c-0.768,2.243 -0.395,4.405 -1.009,6.576c-0.307,1.171 -1.073,1.478 -1.228,2.399c-0.482,2.321 0.154,4.719 -0.241,7.039c-0.46,2.708 -1.238,4.41 -1.315,7.271c0,2.63 -0.153,5.26 0.307,7.813c0.618,3.093 1.782,4.104 3.559,6.187c3.635,4.177 5.26,9.823 9.128,13.924c3.944,4.098 9.126,6.111 11.525,11.525c0.153,0.373 0.307,0.679 0.548,1.074v0.077c-0.079,5.724 0.851,11.603 2.32,17.017c2.01,7.194 3.017,13.847 4.486,21.118c1.469,7.116 1.622,15.549 0.921,22.897c-1.238,12.841 -8.123,24.136 -14.852,35.12c-2.167,-2.013 -4.486,-3.947 -6.885,-6.267c-2.243,-2.165 -5.565,-3.867 -7.736,-6.187c-1.778,-1.857 -1.934,-3.405 -4.177,-5.028c-2.553,-1.778 -5.64,-1.701 -6.035,3.482c0.466,-3.249 0,-5.493 -1.777,-8.277c-1.24,-1.546 -2.544,-3.026 -4.101,-4.254c-1.469,-2.166 -2.794,-4.409 -3.868,-6.729c-3.712,-4.41 -12.299,-9.051 -17.25,-11.604c-3.093,-1.626 -6.883,-4.947 -10.132,-5.956c-2.784,-0.856 -5.493,0 -8.277,-0.155c-10.829,-0.696 -19.184,-8.509 -29.395,-11.293c-9.669,-2.706 -15.548,-9.982 -26.069,-10.442c-5.49,-0.219 -9.359,-0.152 -14.542,-1.929c-9.902,-3.403 -21.66,-4.33 -32.025,-7.271c-3.171,-0.855 -5.261,-2.237 -8.587,-2.938c-6.11,-1.402 -12.22,-1.227 -18.255,-2.784c-4.951,-1.315 -11.062,-2.243 -15.472,-4.951c-2.785,-1.702 -4.64,-3.559 -7.657,-5.028c-6.73,-3.247 -11.836,-6.799 -19.417,-8.663c-9.052,-2.243 -17.25,-4.405 -26.688,-5.414c-4.332,-0.386 -6.808,-2.158 -10.444,-3.868c-4.101,-1.934 -8.896,-3.873 -12.997,-5.956c-7.192,-3.558 -9.824,-4.875 -12.685,-11.604c-1.472,-3.715 -1.232,-8.122 -3.249,-11.913c-2.167,-3.868 -5.26,-7.115 -8.354,-10.132c-2.088,-1.934 -7.045,-7.427 -7.813,-11.139c0.772,21.118 1.083,42.855 13.15,60.956c3.25,4.951 8.122,8.124 11.913,12.687c3.25,4.024 4.873,9.594 10.056,11.837c3.712,1.548 7.89,2.168 11.681,3.791c10.598,4.642 21.119,9.826 31.793,14.389c7.195,3.173 13.848,6.653 20.268,11.295c5.802,4.177 11.139,9.438 17.406,12.764c11.294,6.032 23.826,9.746 35.042,15.702c8.43,4.41 16.399,5.647 25.372,8.973c4.256,1.625 8.354,2.004 12.145,3.868c3.173,1.546 6.885,2.158 9.979,4.022c-12.763,-0.774 -25.217,-2.853 -37.904,-4.41c-4.796,-0.695 -9.438,-1.789 -14.001,-3.171c-3.791,-0.241 -7.583,-0.546 -11.295,-0.701c-2.631,-0.618 -4.946,-1.702 -7.117,-3.171c-2.474,-0.308 -4.949,-0.527 -7.348,-0.768c-4.642,-1.16 -9.282,-4.09 -13.924,-5.493c-4.949,-1.469 -10.442,-1.548 -15.16,-3.868c-3.868,-1.935 -5.339,-3.011 -9.361,-3.712c-9.438,-1.625 -16.786,-6.111 -25.063,-10.288c-6.576,-3.406 -15.084,-3.559 -20.886,-7.969c-5.414,-4.022 -11.681,-6.806 -16.786,-11.216c-2.32,-2.011 -8.35,-12.609 -10.521,-5.647c-0.929,2.938 3.955,7.966 5.183,10.365c1.934,3.558 3.17,6.188 5.802,9.205c1.932,2.088 3.857,3.636 5.414,5.879c2.32,3.248 3.55,7.425 5.414,10.984c3.173,6.189 5.493,14.62 11.913,17.946c4.875,2.553 10.521,3.559 15.472,5.879c4.563,2.088 8.121,4.792 13.301,5.647c2.784,0.088 5.493,0.241 8.277,0.548c2.32,1.469 4.718,2.703 7.271,3.712c4.41,1.778 8.975,4.098 13.538,5.26c12.299,3.094 23.13,10.984 35.506,14.233c9.745,2.629 20.189,2.708 29.936,5.337c6.499,1.775 12.608,2.553 19.184,2.476c5.803,-0.077 10.83,3.397 16.477,3.945c-38.29,-0.542 -76.272,3.868 -114.331,3.868c-17.87,0 -37.905,1.083 -52.912,-9.67c-5.493,-3.948 -11.295,-8.125 -16.865,-11.837c-4.021,-2.786 -7.58,-3.792 -11.757,-6.112c7.117,16.245 23.67,27.229 34.114,41.23c4.101,5.569 9.825,8.749 16.477,9.823c15.858,2.543 31.174,1.929 47.264,1.929c20.035,0 39.838,2.01 58.945,7.889c8.122,2.553 18.023,4.023 26.533,3.868c3.017,-0.088 5.956,-0.154 8.973,0.46c1.548,0.22 2.476,1.075 3.791,1.382c-10.211,-0.077 -20.964,-1.151 -31.02,-0.077c-9.206,1.006 -16.554,5.492 -24.29,9.593c-2.013,1.015 -4.25,1.388 -6.267,2.243c-3.712,1.548 -5.414,4.177 -8.663,6.576c-3.637,2.631 -8.51,5.879 -12.687,7.194c-9.823,3.105 -19.958,2.951 -30.014,4.333c-6.497,0.851 -12.687,2.55 -19.184,3.559c-10.365,1.702 -21.66,-0.385 -30.4,-6.187c-0.373,-0.308 -0.679,-0.614 -1.074,-1.009c-1.315,-2.006 -3.1,-3.409 -5.183,-4.177c1.857,2.012 3.947,3.714 6.267,5.183c5.49,5.8 11.138,11.37 17.094,16.786c5.802,5.802 11.99,11.139 18.566,16.09c1.701,1.623 3.326,1.842 4.795,0.614c3.557,1.228 5.491,1.852 9.592,1.929c2.632,0 5.34,0.472 7.969,0.395c9.515,-0.309 18.101,-6.034 26.997,-8.663c6.883,-2.088 14.001,-2.553 20.73,-5.337c15.78,-6.654 31.638,-10.135 48.347,-13.306c7.349,-1.403 14.774,-0.548 22.201,-2.017c5.722,-1.009 11.603,0.153 17.017,-1.557c-14.001,9.746 -28.313,19.03 -40.689,30.555c-8.432,7.814 -17.792,13.074 -29.241,16.477c-11.912,3.485 -27.151,1.009 -39.683,1.009c-6.73,0 -13.848,0.614 -20.577,-0.307c-1.083,3.017 12.3,9.664 15.084,10.365c5.104,1.393 10.442,1.787 15.625,2.708c4.566,0.855 8.434,0.78 12.997,0.855c8.51,0.233 17.096,2.715 25.527,3.636c7.812,0.928 16.941,0.154 24.135,-3.482c4.951,-2.475 8.818,-6.034 14.001,-8.277c4.254,-1.934 8.275,-4.712 12.608,-6.729c4.563,-2.167 7.967,-3.559 13.15,-5.028c16.245,-4.796 41.075,-8.201 54.304,4.486c3.094,3.018 7.195,4.563 10.056,7.504c2.938,3.018 5.493,6.654 8.973,9.515c4.796,3.947 9.05,9.285 14.001,12.997c0.22,4.795 0.307,9.667 -1.162,13.768c-2.784,7.812 -5.021,15.858 -6.885,24.135c-1.161,5.027 -4.178,7.966 -5.647,12.608c-0.767,2.553 -0.241,5.028 -1.162,7.348c-0.696,1.78 -2.783,4.092 -3.945,5.802c-2.322,3.25 -4.102,5.802 -5.725,9.67c-2.554,6.11 -5.648,12.763 -7.117,19.107c-2.785,12.531 -9.44,25.837 -9.747,39.296c-0.318,12.3 1.546,25.373 -0.077,37.595c-0.636,4.409 -1.864,7.969 -1.864,12.455c0.077,3.945 0.154,7.889 0.077,11.834c-0.077,16.013 -6.11,29.474 -12.222,44.016c11.603,-17.483 23.516,-36.899 30.787,-56.779c2.245,-6.034 4.874,-11.527 4.874,-18.024c0.087,-3.712 -0.219,-6.65 0.855,-10.132c5.879,-17.715 18.255,-32.18 22.665,-50.823c0,15.471 -2.238,30.786 -2.083,46.258c0.065,8.044 0.679,16.398 -0.395,24.367c-2.002,15.317 -2.311,29.937 1.557,44.944c2.938,11.293 5.188,22.511 7.271,34.036c1.469,8.432 2.476,16.939 5.802,24.985c5.416,12.764 13.229,27.152 13.229,40.766c0,-15.239 -0.077,-30.477 0,-45.717c0,-15.007 1.469,-28.466 5.028,-42.932c1.703,-6.962 4.26,-13.229 4.874,-20.268c0.928,-9.436 2.948,-18.874 4.022,-28.312c1.392,-12.608 3.557,-25.526 3.712,-38.213c0.087,-3.482 -1.78,-15.321 1.469,-17.25c0.79,2.554 0.472,5.03 0.395,7.659c-0.241,9.67 -0.087,19.261 0.768,28.931c2.244,26.146 7.576,51.75 7.116,78.128c-0.226,8.973 1.862,17.559 2.017,26.455c0.078,7.58 0,15.239 -0.077,22.82c-0.079,6.961 1.77,12.996 3.48,19.493c0.92,3.635 -1.63,16.55 1.929,17.559c2.477,-4.641 1.622,-18.721 1.929,-23.284c0.844,-13.537 1.304,-26.996 2.861,-40.534c0.923,-7.192 2.02,-14.387 3.094,-21.581c0.22,-8.045 0.527,-16.089 0.768,-24.135c1.239,-10.365 3.094,-20.81 5.493,-30.942c3.248,-13.614 3.939,-27.926 5.956,-41.694c0.921,-6.344 0.154,-14.157 -0.241,-20.577c-0.087,1.239 0.373,2.486 0.614,3.868c2.09,11.836 6.654,23.825 9.903,35.429c3.248,11.68 5.802,23.517 8.431,35.351c3.703,16.709 2.629,33.419 2.629,50.513v34.192c0,3.715 -1.856,16.24 1.315,18.257c8.198,-12.222 10.589,-32.334 12.299,-45.872c2.236,-17.56 1.852,-34.81 1.929,-52.292c0.154,-10.365 2.16,-20.498 2.083,-30.942c-0.077,-8.123 0,-16.244 0,-24.29v-20.112c0,-5.49 -0.153,-9.437 -1.074,-13.459c2.166,4.177 5.019,8.354 6.576,11.062c3.096,5.494 4.493,8.201 6.576,13.383c2.088,5.028 5.958,8.51 7.581,13.847c1.392,4.33 2.396,7.656 4.795,11.757c4.565,7.736 7.042,14.465 6.885,23.826c-0.065,4.333 -0.306,8.433 0.395,12.687c0.548,3.714 1.929,7.271 1.469,11.062c-0.242,-17.868 2.004,-35.583 1.929,-53.452c0,-14.001 1.934,-29.24 0.157,-43.087c-0.618,-5.108 -2.929,-10.289 -4.486,-15.24c-1.392,-4.41 -3.01,-9.594 -4.874,-13.771c-3.868,-8.741 -10.52,-16.478 -14.621,-25.218c-2.244,-4.874 -5.879,-8.51 -9.438,-12.378c-3.25,-3.557 -4.952,-7.271 -7.736,-11.216c-10.365,-14.543 -19.029,-29.705 -25.605,-45.872c1.316,-1.315 2.708,-2.706 4.177,-3.868c3.482,-2.863 5.955,-6.498 8.896,-9.515c2.861,-2.941 7.038,-4.487 10.132,-7.504c13.151,-12.684 37.981,-9.281 54.304,-4.486c5.104,1.469 8.584,2.857 13.15,5.028c4.255,2.011 8.278,4.8 12.532,6.729c5.181,2.242 9.049,5.801 14.077,8.277c7.115,3.639 16.321,4.403 24.057,3.482c8.51,-0.928 17.017,-3.395 25.527,-3.636c4.566,-0.087 8.511,0 12.997,-0.855c5.181,-0.931 10.597,-1.305 15.625,-2.708c2.864,-0.695 16.237,-7.348 15.163,-10.365c-6.729,0.921 -13.847,0.307 -20.653,0.307c-12.454,0 -27.693,2.473 -39.606,-1.009c-11.449,-3.404 -20.81,-8.664 -29.241,-16.477c-12.454,-11.527 -26.687,-20.808 -40.766,-30.555c5.492,1.712 11.37,0.548 17.017,1.557c7.504,1.469 14.852,0.635 22.279,2.017c16.709,3.174 32.568,6.654 48.27,13.306c6.732,2.784 13.847,3.254 20.809,5.337c8.818,2.628 17.481,8.356 26.919,8.663c2.708,0.065 5.415,-0.395 8.045,-0.395c4.1,-0.065 6.034,-0.701 9.515,-1.929c1.547,1.25 3.171,1.009 4.873,-0.614c6.574,-4.951 12.764,-10.288 18.565,-16.09c5.879,-5.414 11.602,-10.984 17.095,-16.786c2.243,-1.471 4.409,-3.166 6.266,-5.183c-2.166,0.774 -3.868,2.16 -5.26,4.177c-0.31,0.395 -0.7,0.702 -1.007,1.009c-8.741,5.792 -20.035,7.897 -30.478,6.187c-6.498,-1.006 -12.686,-2.704 -19.184,-3.559c-9.979,-1.392 -20.191,-1.239 -30.014,-4.333c-4.098,-1.315 -8.972,-4.565 -12.608,-7.194c-3.249,-2.399 -5.027,-5.019 -8.663,-6.576c-2.013,-0.861 -4.25,-1.234 -6.267,-2.243c-7.814,-4.1 -15.162,-8.584 -24.367,-9.593c-10.058,-1.085 -20.732,0 -31.02,0.077c1.313,-0.308 2.232,-1.141 3.789,-1.382c3.096,-0.615 5.958,-0.537 9.052,-0.46c8.432,0.154 18.332,-1.315 26.533,-3.868c19.107,-5.872 38.909,-7.889 58.867,-7.889c16.09,0 31.483,0.624 47.264,-1.929c6.73,-1.083 12.377,-4.253 16.554,-9.823c10.366,-14.001 26.997,-24.986 34.114,-41.23c-4.177,2.321 -7.812,3.328 -11.835,6.112c-5.57,3.715 -11.294,7.892 -16.864,11.837c-14.93,10.744 -35.042,9.67 -52.834,9.67c-38.136,0 -76.04,-4.416 -114.331,-3.868c5.647,-0.542 10.675,-4.022 16.4,-3.945c6.652,0.077 12.764,-0.699 19.184,-2.476c9.746,-2.629 20.267,-2.708 30.014,-5.337c12.377,-3.249 23.13,-11.139 35.506,-14.233c4.564,-1.159 9.128,-3.483 13.46,-5.26c2.553,-1.004 5.029,-2.243 7.349,-3.712c2.706,-0.307 5.492,-0.471 8.199,-0.548c5.261,-0.852 8.819,-3.564 13.383,-5.647c4.95,-2.32 10.52,-3.326 15.471,-5.879c6.42,-3.327 8.741,-11.759 11.913,-17.946c1.779,-3.557 3.094,-7.735 5.337,-10.984c1.625,-2.243 3.558,-3.796 5.415,-5.879c2.63,-3.018 3.945,-5.646 5.879,-9.205c1.238,-2.396 6.033,-7.424 5.106,-10.365c-2.089,-6.961 -8.2,3.63 -10.443,5.647c-5.106,4.41 -11.449,7.192 -16.786,11.216c-5.802,4.41 -14.387,4.566 -20.963,7.969c-8.2,4.176 -15.626,8.665 -24.986,10.288c-4.023,0.695 -5.57,1.783 -9.438,3.712c-4.64,2.311 -10.133,2.399 -15.084,3.868c-4.719,1.392 -9.282,4.331 -13.924,5.493c-2.474,0.22 -4.872,0.461 -7.348,0.768c-2.166,1.461 -4.564,2.557 -7.117,3.171c-3.791,0.153 -7.583,0.46 -11.295,0.701c-4.563,1.394 -9.283,2.47 -14.001,3.171c-12.686,1.549 -25.217,3.642 -37.981,4.41c3.171,-1.851 6.807,-2.465 10.056,-4.022c3.713,-1.851 7.813,-2.245 12.067,-3.868c8.972,-3.326 17.018,-4.563 25.372,-8.973c11.294,-5.955 23.747,-9.667 35.042,-15.702c6.266,-3.326 11.603,-8.587 17.482,-12.764c6.344,-4.643 12.997,-8.124 20.268,-11.295c10.598,-4.566 21.118,-9.747 31.793,-14.389c3.79,-1.62 7.967,-2.234 11.68,-3.791c5.184,-2.245 6.731,-7.815 10.057,-11.837c3.791,-4.565 8.587,-7.736 11.913,-12.687zM963.977,457.719c2.091,4.177 1.934,4.487 1.934,9.67c-0.077,10.21 0.464,21.04 -2.553,30.787c-2.397,7.736 -8.122,14.157 -9.282,22.046c-1.006,6.962 -2.63,13.614 -4.332,20.653c-1.315,5.493 -2.707,11.14 -4.332,16.477c-1.083,3.403 -3.249,6.112 -4.409,9.515c-2.166,6.341 -3.172,13.071 -5.415,19.338c-2.088,5.646 -3.019,8.896 -2.862,14.698c0.387,11.989 -1.392,25.14 -4.486,36.821c-1.625,6.111 -4.641,11.68 -6.498,17.715c-1.008,3.093 -0.076,5.956 -1.083,8.74c0,0 -3.095,4.017 -2.707,3.403c-2.63,3.868 -3.326,8.587 -5.956,12.455c-2.862,4.177 -7.271,6.731 -10.288,10.753c-4.176,5.725 -6.11,12.687 -11.68,17.482c-4.642,4.022 -11.835,5.419 -17.328,7.348c-2.786,1.009 -5.57,2.17 -8.587,1.71c-4.485,10.985 1.161,23.67 -3.79,34.423c-1.624,3.636 -2.012,7.115 -4.796,10.056c-4.178,4.332 -10.057,7.735 -15.394,10.288c-3.017,1.393 -6.111,1.701 -8.741,4.177c-4.951,4.563 -9.128,13.847 -11.758,19.803c-1.779,4.023 -2.243,3.947 -6.188,6.576c-3.095,2.087 -6.111,4.249 -9.051,6.42c0.544,0.462 0.926,1.076 1.083,1.777c-2.862,2.786 -6.266,5.185 -8.896,8.046c-3.091,3.324 -1.236,2.469 -2.784,4.486c-2.785,3.635 -7.504,7.659 -11.294,11.062c-13.693,12.145 -29.164,23.516 -44.48,33.031c-6.497,4.1 -13.149,8.355 -19.261,13.15c-4.72,3.714 -8.897,5.648 -13.383,8.819c-8.277,5.725 -16.553,11.757 -25.063,17.25c-8.278,5.338 -20.112,7.272 -29.55,10.056c-4.795,1.393 -9.744,1.707 -14.31,3.636c-11.294,4.797 -15.936,14.39 -29.086,16.013c-3.791,0.46 -7.892,0.307 -11.295,1.228c-0.532,0.088 -1.475,0.852 -2.396,1.009c-3.48,0.46 -7.581,-0.942 -10.907,-0.241c-2.167,0.464 -3.641,1.863 -5.57,2.784c-4.021,1.934 -9.049,2.394 -13.459,3.403c-11.604,2.708 -23.285,5.493 -34.501,9.747c-5.722,2.172 -10.982,1.934 -17.017,1.777c-5.491,0 -10.519,0.856 -16.012,1.557c-6.033,0.767 -11.37,0.526 -17.017,1.929c-3.173,0.833 -5.493,0.219 -8.51,-0.395c-9.671,-2.013 -18.257,-5.802 -26.688,-11.295c-3.559,-2.397 -6.729,-6.274 -10.83,-7.348c-4.72,-1.149 -11.449,-0.075 -16.477,-0.075c-4.563,0 -9.205,0 -13.768,0c-5.646,0.067 -10.597,-0.614 -16.167,-1.315c-6.344,-0.774 -12.379,-1 -18.566,-3.017c-2.784,-0.928 -5.336,-2.623 -8.277,-3.171c-4.563,-0.921 -7.813,0.237 -12.067,-2.083c-5.646,-3.094 -10.441,-4.712 -16.553,-6.576c-8.895,-2.553 -20.885,-6.729 -27.847,-12.685c-7.347,-6.264 -16.941,-9.049 -26.146,-11.757c-11.448,-3.326 -20.034,-4.33 -29.472,-11.757c-6.42,-5.029 -11.757,-9.903 -19.261,-13.306c-15.007,-6.806 -29.705,-15.239 -41.772,-26.455c-4.177,-3.868 -8.508,-7.504 -12.685,-11.449c-3.869,-3.791 -5.726,-6.653 -8.046,-11.139c-2.554,-4.796 -6.962,-8.74 -10.211,-13.15c-1.393,-1.855 -2.544,-4.246 -4.101,-5.956c-4.256,-4.486 -10.986,-5.8 -15.472,-10.442c-2.475,-2.629 -3.559,-4.33 -5.028,-7.889c-4.487,-11.372 -8.355,-24.135 -15.24,-34.346c-9.671,-14.387 -33.341,-16.554 -41.463,-32.102c-6.806,-13.072 -10.597,-27.459 -20.035,-39.296c-6.341,-8.046 -11.834,-16.71 -18.178,-24.832c-2.632,-3.403 -4.171,-6.497 -6.035,-10.365c-2.476,-5.26 -4.719,-11.76 -7.736,-16.632c-2.785,-4.486 -8.123,-6.499 -10.907,-10.521c-3.704,-5.261 -0.68,-13.304 0.241,-19.88c1.163,-7.426 2.785,-14.62 1.623,-22.124c-1.934,-13.151 -9.287,-24.986 -11.216,-37.827c-0.789,-5.261 0.855,-10.83 -0.548,-15.935c-0.856,-2.785 -1.402,-4.024 -1.557,-7.736c-0.232,-7.35 2.32,-12.378 4.563,-19.649c2.872,-9.437 1.469,-20.576 0.855,-30.246c-0.702,-11.371 -4.342,-26.533 -1.25,-37.749c0.771,-2.784 2.638,-5.181 3.712,-7.889c1.402,-3.868 1.775,-7.812 2.476,-11.757c1.471,-8.355 5.03,-14.775 9.052,-22.279c6.264,-11.912 10.288,-19.57 11.757,-32.334c1.083,-10.134 4.863,-20.035 6.42,-30.246c1.47,-10.365 2.475,-22.742 7.117,-32.257c4.486,-9.281 8.045,-18.797 13.073,-27.847c2.473,-4.486 4.563,-9.284 6.806,-13.847c4.178,-8.509 9.438,-16.088 14.466,-24.057c2.476,-3.942 1.779,-3.723 6.962,-3.482c4.332,0.155 4.332,0.308 6.885,-2.553c6.73,-7.427 9.591,-18.257 15.393,-26.455c1.779,-2.476 4.013,-4.798 5.57,-7.427c3.947,-6.576 4.25,-14.235 6.267,-21.351c5.26,-18.876 19.725,-27.306 33.804,-39.838c8.044,-7.195 12.774,-9.361 14.156,-18.799c0.395,-2.167 1.404,-4.095 1.864,-6.112c0.465,4.631 5.952,2.083 7.969,1.382c2.941,-1.162 4.487,-1.928 7.813,-2.083c1.857,-0.086 4.025,0.462 5.802,0.155c4.564,-0.927 8.82,-3.324 13.383,-4.486c4.331,-1.083 9.282,-2.936 14.31,-3.791c7.118,-1.313 12.92,-4.872 19.417,-7.348c7.583,-2.864 15.472,-4.489 19.34,-11.837c1.934,-3.636 6.266,-7.355 10.288,-9.438c2.709,-1.322 6.343,-1.081 8.896,-2.243c2.245,-1.006 3.405,-2.55 5.725,-3.559c2.784,-1.238 5.57,-1.304 8.431,-2.861c1.546,-0.855 2.851,-2.083 4.254,-2.938c3.713,-2.167 7.658,-3.95 11.449,-5.879c1.624,-0.924 3.56,-2.24 5.183,-2.941c2.553,-1.074 4.255,-1.228 7.504,-1.929c3.559,-0.695 6.885,-2.329 10.365,-3.403c11.604,-3.713 23.903,-1.623 35.584,-5.956c5.106,-1.934 9.67,-2.164 14.621,-4.563c6.962,-3.248 12.3,-7.424 18.487,-11.525c5.493,-3.552 12.764,-4.956 19.261,-5.416c10.365,-0.69 21.039,0.078 31.483,0.078c3.479,0 7.966,0.701 11.525,0.241c6.034,-0.697 11.913,-3.947 17.406,-6.267c7.657,-3.267 15.782,-1.096 23.98,-1.71c3.712,-0.307 6.652,-1.864 10.597,-2.171c5.88,-0.391 10.675,0.855 16.477,1.929c10.056,1.858 21.195,2.011 30.865,5.57c2.786,1.084 5.262,3.024 8.046,3.945c4.333,1.478 9.052,2.092 13.538,2.399c10.83,0.618 19.958,4.177 30.014,7.889c4.639,1.701 11.601,2.242 15.16,6.187c2.629,2.862 3.868,6.809 6.497,9.747c8.43,8.975 17.868,12.997 29.163,17.715c5.569,2.32 9.359,5.949 15.084,7.813c4.41,1.469 6.961,2.629 10.597,5.337c6.265,4.565 13.306,8.896 20.112,12.687c5.802,3.249 11.604,5.802 17.174,8.896c10.984,6.187 22.974,15.394 31.87,24.444c5.723,5.879 11.447,11.604 18.023,16.632c4.718,3.561 6.034,3.32 11.294,3.868c8.432,0.851 16.245,7.427 23.362,11.604c8.277,4.874 14.62,13.305 20.19,20.809c3.791,5.106 7.813,10.288 10.443,16.09c2.475,5.339 4.254,10.136 7.426,14.931c2.244,3.403 3.636,10.444 6.576,12.764c3.636,2.857 6.575,0.84 10.907,2.243c1.472,7.89 -4.329,15.163 0.157,22.279c3.249,5.261 6.885,12.147 8.277,18.334c2.243,10.21 3.945,18.721 7.194,28.544c1.703,5.107 0.775,10.745 5.493,12.455c2.707,0.919 12.763,-1.787 16.631,-1.71c2.476,0.088 4.718,0.088 7.194,-0.46c0.619,-0.154 1.007,-1.932 2.167,-1.777c3.865,0.541 3.715,17.947 3.79,21.892c0.155,2.94 1.318,4.332 1.857,6.885c0.619,2.785 0.08,5.726 0.619,8.587c1.857,10.132 4.796,20.344 7.813,30.323c1.548,5.028 4.409,9.052 6.266,13.847c2.088,5.416 2.707,11.063 5.337,16.323c3.636,7.271 8.277,14.233 11.526,21.737c2.087,4.719 2.32,9.98 4.254,14.698c1.083,2.786 2.707,4.875 3.481,7.504c1.469,5.184 1.007,11.293 2.476,16.709c0.774,2.709 2.089,5.416 3.404,7.969z" /></svg>