<svg xmlns="http://www.w3.org/2000/svg" viewBox="0 0 524 960" width="524" height="960"><path d="M355.845,890.512c4.159,1.617 8.19,3.057 12.531,3.889c3.604,0.701 7.171,1.582 10.775,2.176c-6.242,5.045 -13.226,9.065 -19.374,14.381c-8.969,7.817 -19.007,12.998 -28.389,19.979c-4.579,3.366 -9.11,6.934 -12.951,11.417c-1.154,1.344 -2.129,2.699 -3.556,3.651c-0.833,0.546 -1.618,1.023 -2.45,1.617c-0.475,0.416 -0.238,1.238 -0.832,1.713c-0.963,0.035 -1.866,0.079 -2.818,0.119c-2.164,0.358 -4.341,0.714 -6.517,0.952c-7.908,1.297 -15.676,3.46 -23.632,4.531c-10.913,1.617 -22.056,1.998 -32.925,4.257c-3.878,0.832 -4.709,1.069 -8.087,0.475c0.357,-8.823 0.321,-8.586 0.238,-8.229c-2.926,-0.512 -4.305,-3.187 -5.97,-5.637c-4.16,-6.055 -9.667,-10.218 -15.125,-14.427c-7.811,-6.011 -15.303,-12.531 -23.212,-18.311c-3.139,-2.261 -8.039,-4.615 -10.584,-8.135c-1.03,-1.427 -1.386,-2.069 0.041,-3.14c1.486,-1.189 6.386,-0.317 8.003,-0.357c5.968,-0.082 11.652,-1.011 17.432,-2.818c5.785,-1.76 11.517,-3.794 17.297,-5.637c5.828,-1.761 12.25,-3.01 17.708,-6.018c2.165,-1.201 3.984,-2.26 4.341,-5.316c2.545,-0.273 5.458,1.012 8.003,1.487c4.993,1.106 9.94,2.116 14.935,3.187c7.816,1.569 14.376,4.769 21.689,8.229c4.115,1.939 7.528,3.604 11.833,1.939c6.477,-2.592 13.18,-4.625 19.471,-8.003c2.26,-1.201 5.221,-2.818 7.302,-4.531c0.749,-0.594 1.511,-1.832 2.224,-2.307c2.628,-1.474 6.327,2.367 8.646,3.568c4.433,2.308 9.475,3.509 14.054,5.316z" /> <path d="M145.221,169.152c-0.368,3.483 2.902,2.889 5.316,3.008c-0.701,0.499 -1.891,1.273 -2.366,1.986c-0.666,1.106 -0.666,2.259 -1.379,3.33c-1.426,1.939 -4.4,3.425 -2.497,6.612c0.642,1.106 2.391,1.439 2.866,2.866c0.356,1.296 -0.119,3.091 -0.238,4.388c-0.239,2.51 0,6.482 -1.071,8.658c-0.843,-0.37 -1.201,-1.464 -1.795,-1.939c-0.737,-0.475 -1.463,-0.237 -2.176,-0.594c-1.154,-0.594 -2.366,-2.842 -3.556,-2.723c-2.307,0.321 -6.066,8.36 -6.66,10.584c-0.464,1.583 -0.833,4.817 -3.33,3.152c-0.774,-0.595 -1.13,-2.949 -1.249,-4.02c-0.238,-1.761 -0.594,-3.795 -0.713,-5.602c-0.119,-1.904 0.832,-3.711 0.475,-5.602c-3.46,1.249 -11.606,0.274 -10.037,-6.196c0.833,-3.568 3.057,-1.903 5.09,-4.162c1.76,-1.844 0.607,-2.676 -0.832,-4.852c-1.153,-1.844 -3.283,-2.355 -4.115,-4.436c-0.786,-1.986 0.796,-4.554 2.782,-5.506c1.154,-0.629 2.497,0.322 3.746,0.084c1.379,-0.321 2.355,-1.438 4.115,-1.522c1.474,-0.095 4.793,-0.19 5.268,-2.497c-2.449,-1.023 -3.472,-1.439 -5.363,-3.889c-0.737,-0.963 -2.456,-2.772 -2.497,-4.115c3.472,-0.69 6.933,0.379 10.358,1.569c0.357,-1.523 0.594,-3.105 0.832,-3.937c0.559,-1.891 0.879,-5.459 2.818,-5.221c2.391,0.321 0.952,2.818 1.19,4.757c2.271,-0.791 4.852,0.239 7.076,-0.832c0.879,-0.477 1.343,-2.201 2.592,-0.952c0.856,0.832 -0.475,3.651 -0.713,4.483c-0.975,3.103 -1.426,6.529 -2.497,9.573c-0.559,1.571 -1.272,1.844 -1.391,3.604z" /> <path d="M132.416,162.643c0,-0.119 0,-0.357 1.487,-0.952c-0.475,0.475 -0.832,0.832 -1.487,0.952z" /> <path d="M208.644,68.161c0.273,-2.268 1.664,-15.539 -2.545,-13.732c-2.355,1.01 -4.709,8.039 -5.78,10.631c-1.202,3.199 -1.535,5.97 -3.794,8.467c-1.475,1.665 -2.211,3.186 -3.282,5.125c-1.297,2.26 -2.724,2.914 -4.531,4.341c-2.259,1.808 -3.746,4.067 -5.827,6.196c-1.473,1.582 -2.912,2.414 -4.209,4.305c-0.178,1.249 -0.785,2.249 -1.617,2.962c-1.058,0.512 -2.092,1.142 -3.044,1.855c-1.295,1.011 -2.163,2.355 -3.234,3.556c-1.439,1.57 -2.497,2.402 -4.257,3.651c-1.474,1.344 -3.009,2.58 -4.626,3.651c-1.533,0.713 -3.056,1.069 -4.673,0.594c-1.855,0.226 -2.033,0.785 -3.104,2.676c-1.332,2.415 -2.83,5.138 -4.02,7.683c-0.737,1.617 -0.737,2.997 -2.176,3.472c-0.916,-0.237 -1.819,-0.475 -2.771,-0.594c-0.785,-0.119 -1.511,0.119 -2.224,0.594c-2.046,0.237 -3.937,-0.595 -6.018,-0.357c-2.402,0.417 -3.555,1.606 -6.1,1.249c-2.081,-0.368 -3.508,-0.416 -5.125,-2.081c-1.345,-0.881 -1.98,-2.176 -1.939,-3.889c0.642,-1.071 1.297,-2.082 2.129,-2.914c0.737,-3.567 -4.757,-4.816 -6.886,-6.707c-3.615,-3.151 -7.908,-4.115 -11.702,-6.755c-1.297,-0.879 -6.077,-3.139 -6.196,-4.899c-0.178,-2.094 2.926,-2.272 3.52,-3.937c-1.808,-2.735 -5.696,-5.186 -8.372,-6.755c-1.843,-1.119 -3.794,-0.642 -5.637,-1.713c-2.498,-1.391 -4.674,-3.056 -7.219,-4.305c0.833,-1.297 0.952,-1.297 1.071,-2.914c0.178,-1.295 -0.477,-4.625 -1.071,-5.874c-0.689,-1.57 -1.986,-2.723 -2.818,-4.02c-1.011,-1.439 -0.833,-2.058 -2.45,-2.771c-7.028,-2.865 -5.042,6.708 -5.042,10.917c-0.119,1.938 0.238,3.793 0.238,5.732c0,1.665 -0.476,3.234 -0.238,4.947c0.272,1.761 1.224,2.998 1.343,4.805c0.356,2.546 0.118,5.233 0.475,7.909c0.595,5.187 -1.011,10.634 0.238,15.771c0.511,2.105 0.879,3.176 2.818,2.224c2.586,-1.343 1.593,-4.625 2.545,-6.897c2.056,1.665 1.224,8.836 1.343,11.654c0.178,2.913 1.331,5.411 2.402,8.003c1.796,4.487 3.318,9.755 3.556,14.75c1.796,0.869 3.461,0.392 5.268,-0.083c0.964,-0.358 1.642,0 2.355,-0.952c0.952,-1.201 -0.059,-1.797 1.19,-2.272c0.535,3.615 -0.911,7.313 -0.952,10.917c0,2.592 0.595,4.863 0.238,7.539c-0.439,3.747 -0.439,7.861 -1.391,11.512c-1.712,6.657 -5.007,11.604 -8.467,17.062c-1.761,2.772 -3.081,5.316 -3.794,8.646c-0.784,3.603 -2.592,6.421 -4.209,9.573c-1.95,3.83 -5.137,5.126 -7.313,8.551c-0.855,1.428 -1.094,2.403 -1.807,4.02c-1.058,2.318 -3.508,5.042 -4.995,7.123c-1.761,2.533 -3.663,4.994 -5.602,7.349c-1.511,1.808 -1.273,2.545 -1.986,4.852c-0.595,1.808 -2.021,4.627 -3.092,6.196c-1.713,2.544 -4.436,3.793 -6.196,6.338c-3.104,4.627 -8.099,8.92 -10.085,14.474c-0.285,0.607 -2.045,5.697 -1.807,6.291c0.69,2.01 1.843,0 2.914,-0.119c2.771,-0.434 5.863,2.217 7.944,0.041c0.655,-0.701 0.893,-2.295 1.487,-3.008c0.891,-1.153 1.606,-1.153 2.081,-2.818c0.434,-1.427 -0.119,-3.972 0.475,-5.221c0.928,-1.796 3.33,-0.595 4.995,-0.357c2.307,0.358 4.579,0.595 6.838,0.952c0.929,0.119 3.105,0.951 3.937,0.594c1.011,-0.369 1.618,-1.962 2.45,-2.914c0.654,-0.689 1.582,-1.154 2.176,-1.986c1.618,-2.081 0.274,-6.005 2.45,-7.492c1.808,-1.284 2.784,0.477 4.353,1.071c1.248,0.516 2.913,0.713 4.162,0.475c0.536,-0.119 0.536,-0.748 1.249,-0.832c0.642,-0.118 1.439,0.476 2.033,0.357c1.117,-0.238 1.355,-1.332 2.307,-1.807c1.296,-0.596 2.461,0.594 3.651,-1.071c0.637,-1.023 0.475,-3.056 0.594,-4.257c0.322,-3.425 -0.833,-7.123 0.238,-10.263c1.153,0.56 2.044,2.13 3.234,2.962c1.248,0.868 1.951,1.224 3.52,1.343c2.403,0.356 7.529,2.235 9.336,0.713c2.556,-2.092 2.675,-5.648 2.081,-8.514c-0.535,-2.497 -0.774,-5.09 -1.487,-7.587c-0.38,-1.522 -1.57,-3.556 -1.332,-5.173c1.617,-0.047 1.795,1.761 2.866,2.355c1.202,0.714 2.677,0.596 4.02,1.071c1.808,0.653 3.473,2.117 5.28,2.592c2.223,0.714 2.818,-0.119 4.899,-0.238c2.081,-0.239 4.626,1.665 6.612,0.713c1.523,-0.701 2.914,-3.757 4.531,-3.841c1.582,-0.13 4.08,2.32 5.602,2.914c1.059,0.477 2.819,0.12 3.651,0.952c0.617,0.594 1.094,2.724 1.569,3.556c2.402,3.746 6.755,6.053 9.478,9.478c1.296,1.581 1.344,3.698 2.771,5.185c1.38,1.521 2.64,3.056 3.972,4.673c0.368,0.465 1.332,0.94 1.807,1.297c1.165,0.927 1.808,2.056 2.64,3.008c2.081,2.307 3.615,5.637 5.922,7.492c2.831,2.259 3.759,5.125 6.018,8.039c2.129,2.688 3.699,4.769 5.316,7.861c2.081,3.972 4.769,7.445 7.076,11.191c1.44,2.402 2.914,4.262 5.602,4.305c-1.236,-1.665 -1.475,-3.008 -2.307,-4.721c-1.01,-2.164 -2.853,-2.676 -2.259,-5.494c0.285,-1.391 1.118,-2.223 1.475,-3.52c0.356,-1.201 0.119,-2.497 0.594,-3.746c0.452,-1.439 2.069,-5.137 3.782,-4.305c-1.569,-1.938 -2.497,-4.197 -4.483,-5.268c-2.224,-1.201 -5.138,-2.223 -6.755,-4.673c-1.903,-2.819 0.178,-6.612 1.891,-8.693c0.82,-1.022 1.891,-1.818 2.723,-3.008c0.416,-0.642 0.893,-1.356 1.487,-1.713c0.523,-0.279 1.119,-0.279 1.713,-0.238c-2.402,-0.654 -4.245,-2.497 -6.1,-4.769c-1.891,-2.307 -1.796,-3.069 -4.388,-3.782c-0.119,-1.166 0,-4.65 0.594,-5.602c0.88,-1.19 2.33,-0.594 3.282,-1.665c2.271,-2.501 1.676,-9.707 2.033,-13.132c0.879,-8.37 1.76,-16.781 2.592,-25.201l-0.119,1.939c-2.961,11.69 -4.947,8.966 -7.397,6.933c-2.034,-1.712 -4.389,-1.902 -5.221,-5.28c-1.664,-6.969 5.543,-4.353 8.135,-6.612c-1.059,-1.166 -1.605,-2.747 -2.676,-3.937c-1.951,-2.117 -3.889,-2.902 -5.602,-5.542c-0.88,-1.843 -1.987,-3.556 -3.33,-4.995c-1.166,-0.594 -1.951,-1.569 -2.545,-2.818c-0.381,-2.783 1.938,-3.234 3.46,-4.305c3.378,-2.272 6.707,-3.615 4.947,-8.372c-1.439,-4.031 -4.257,-7.813 -6.612,-11.238c-1.392,-2.034 -8.788,-7.956 -5.554,-11.06c1.153,-1.07 7.123,-0.357 8.42,-0.238c2.687,0.239 5.267,1.19 8.003,1.071c1.902,-0.143 3.663,-0.464 4.257,-2.688c0.702,-2.213 -0.369,-6.101 -1.201,-8.087c-1.713,-4.065 -8.551,-9.987 -7.302,-14.982c1.475,-0.5 1.605,0.726 2.676,1.439c1.296,0.928 2.081,1.403 3.698,1.76c2.176,0.357 8.799,2.521 9.989,0.119c1.605,-3.425 -1.962,-6.148 -3.152,-8.693c-0.607,-1.427 -0.845,-3.092 -1.439,-4.579c-0.594,-1.808 -2.426,-4.21 -2.307,-6.291c0.927,-1.224 4.161,-0.986 5.458,-1.343c3.317,-0.832 6.327,-0.32 8.919,-3.472c4.627,-5.459 2.13,-13.915 2.962,-20.67zM432.434,222.276c3.47,27.932 9.994,54.846 17.759,81.523c-14.985,33.944 -28.209,70.611 -50.452,99.697c-0.643,0.477 -1.273,0.596 -1.986,1.071c-57.569,38.751 -123.925,61.592 -180.432,102.101c-10.228,7.304 -12.487,19.237 -8.325,28.347c-13.228,17.201 -31.121,30.84 -47.122,45.59c-5.274,4.81 -10.399,9.852 -15.489,14.847c-4.899,1.248 -9.621,4.436 -13.319,10.358c-1.843,2.962 -3.734,6.066 -5.589,9.11c-13.182,14.149 -25.764,28.763 -37.549,43.929c-6.79,8.646 -5.862,20.897 -0.594,29.317c-18.308,33.709 -33.44,68.207 -33.202,109.363c0.42,67.095 83.236,59.556 130.957,60.899c13.32,0.356 26.637,0.51 39.952,0.594c0,0.044 -0.041,0.085 -0.041,0.085c-3.652,5.597 -5.447,12.714 -9.752,17.804c-4.21,5.002 -10.307,5.127 -16.325,5.042c-0.046,1.665 -0.153,3.282 -1.343,4.769c-1.011,1.331 -2.77,1.866 -4.067,2.818c-4.067,2.819 -7.492,6.708 -11.559,9.526c-3.984,2.736 -7.123,4.221 -11.702,4.305c-1.76,0.095 -4.364,-0.607 -5.316,1.617c-0.475,1.248 -0.511,6.813 -0.594,7.765c-0.239,3.473 -0.952,7.029 -1.071,10.501c-0.274,4.019 2.176,5.173 4.483,7.397c1.576,1.522 2.409,1.855 -0.041,3.282c-3.424,1.973 -7.955,0.832 -11.559,0.594c-3.65,-0.238 -7.313,-0.594 -10.917,-0.713c-56.783,-19.928 -111.439,-46.887 -139.833,-93.547c-0.488,-1.902 -0.726,-3.936 -1.201,-5.922c0.238,-3.186 0.594,-6.374 0.832,-9.43c1.285,-12.577 2.402,-25.155 4.067,-37.64c1.843,-13.367 3.556,-26.59 4.899,-40.091c1.01,-10.174 2.033,-19.698 5.125,-29.366c6.894,-21.363 14.246,-41.849 23.356,-62.007c5.545,-12.254 12.257,-23.124 18.727,-34.636c4.947,-8.737 9.704,-17.431 15.258,-25.708c7.074,-10.543 15.032,-20.342 22.429,-30.521c5.641,-7.725 11.466,-15.491 17.662,-22.567c4.345,-4.997 9.34,-9.195 13.597,-14.427c3.936,-4.756 7.301,-10.13 11.238,-14.935c6.29,-7.769 12.721,-15.493 19.702,-22.474c27.605,-27.744 56.968,-52.299 87.023,-76.158c7.446,-5.916 14.621,-11.149 22.612,-16.001c5.591,-3.377 11.24,-6.516 16.508,-10.631c6.427,-5.042 12.028,-11.473 17.344,-17.943c4.162,-5.082 8.836,-9.113 13.224,-13.87c2.308,-2.545 4.115,-5.554 6.47,-8.051c2.081,-2.224 4.185,-3.425 5.137,-6.897c1.438,-5.501 1.676,-12.344 1.795,-18.124c0.322,-9.204 -2.866,-17.433 -7.123,-24.878c-2.64,-4.584 -5.638,-8.14 -8.646,-12.255c-2.355,-3.235 -4.341,-6.886 -6.517,-10.311c-6.104,-9.573 -11.93,-19.091 -19.886,-26.774c-2.949,-2.866 -5.733,-5.185 -8.551,-8.277c-2.818,-3.104 -5.637,-4.721 -9.288,-6.018c-4.257,-1.427 -8.931,-2.687 -13.367,-3.044c-4.669,-0.428 -9.2,1.462 -13.873,1.379c-4.213,0 -8.507,-0.119 -12.716,-0.357c-2.865,-0.178 -6.706,-0.416 -9.382,-1.617c-1.57,-0.737 -3.652,-1.903 -4.995,-3.651c0.69,1.747 1.403,3.555 1.522,5.684c0.368,4.02 1.665,7.813 2.259,11.833c1.393,8.692 5.46,16.19 7.267,24.693c2.07,9.621 0.477,18.955 -0.475,28.671c-0.595,6.612 -0.477,13.315 -0.952,19.927c-0.368,4.483 -1.082,8.931 -1.439,13.367c-0.477,5.685 1.165,14.616 -1.19,19.789c-1.998,-1.058 -2.688,-4.162 -4.305,-5.827c-2.366,-2.497 -5.054,-4.305 -7.313,-7.028c-2.45,-2.998 -4.805,-6.006 -7.397,-8.872c-2.687,-3.009 -5.649,-7.029 -8.693,-9.526c-2.449,-1.938 -5.363,-2.723 -7.765,-4.709c-3.378,-2.77 -6.29,-6.79 -9.252,-10.215c-6.293,-7.309 -12.762,-14.798 -16.924,-24.002c-2.033,-4.535 -3.936,-9.34 -6.612,-13.407c-2.224,-3.33 -5.09,-5.958 -7.635,-8.872c-2.129,-2.402 -4.257,-4.435 -6.612,-6.564c-1.986,-1.808 -4.626,-5.506 -7.076,-6.707c-6.567,-3.284 -12.025,3.603 -16.14,8.693c-4.345,5.449 -11.788,9.16 -17.246,13.132c-6.427,4.674 -13.78,6.897 -20.44,11.238c-5.824,3.794 -10.592,8.194 -17.062,10.549c-7.448,2.688 -14.982,4.674 -22.521,6.85c-6.842,1.987 -13.458,4.947 -20.439,6.196c-2.687,0.559 -4.495,0.441 -7.123,0.084c-1.487,-0.119 -4.259,0.239 -5.602,-0.832c-1.665,-1.249 -2.163,-4.257 -3.234,-6.148c-1.201,-2.319 -2.676,-4.578 -4.067,-6.707c-0.737,-1.106 -2.272,-4.733 -2.866,-4.02c1.795,-0.297 1.985,-0.297 3.234,-1.487c0.417,-1.189 1.154,-2.212 1.986,-3.044c1.011,-0.832 2.045,-1.76 2.997,-2.592c2.593,-2.77 4.353,-6.422 7.076,-9.204c2.64,-2.628 5.505,-4.389 8.467,-6.422c2.402,-1.665 4.662,-4.02 6.517,-6.47c1.903,-2.45 2.675,-5.459 4.162,-8.182c1.797,-3.235 4.211,-4.531 6.47,-7.076c1.855,-1.986 2.592,-4.305 3.841,-6.755c1.938,-3.698 4.531,-7.123 6.933,-10.453c2.95,-4.118 5.506,-7.722 8.182,-12.205c2.034,-3.425 3.699,-5.043 6.196,-7.445c3.009,-2.902 5.697,-6.005 7.956,-9.799c2.355,-4.067 4.245,-8.419 7.623,-11.559c1.201,-1.165 2.163,-2.175 3.234,-3.472c1.581,-1.998 1.581,-0.558 1.343,-3.52c-0.237,-1.571 0.322,-3.057 0.238,-4.579c-0.096,-1.522 -0.845,-2.354 -1.439,-3.651c-1.808,-4.018 -4.222,-8.597 -4.579,-13.27c-0.321,-5.69 -0.88,-9.936 -2.545,-15.442c-2.128,-7.123 -6.148,-13.227 -8.562,-20.255c-1.605,-4.761 -4.007,-9.208 -5.494,-14.013c-1.428,-4.813 -1.784,-9.938 -1.903,-15.028c0,-3.841 0.118,-7.456 0.475,-11.286c0.416,-3.794 1.582,-7.029 2.176,-10.727c1.891,-12.393 4.519,-25.247 4.757,-37.963c1.57,2.165 4.496,4.293 6.291,6.422c2.688,3.187 4.638,5.958 6.529,9.799c0.404,0.928 0.881,1.665 1.475,2.497c3.33,4.951 7.219,9.576 10.727,14.381c2.462,3.425 5.233,6.612 7.635,10.132c1.069,1.664 1.759,3.841 3.008,5.268c1.427,1.581 3.222,2.688 4.709,4.257c4.394,4.854 9.948,8.599 15.073,12.393c3.246,2.355 7.908,3.877 10.405,7.397c1.295,1.855 5.256,6.065 4.899,8.467c1.76,-0.274 3.067,-3.283 4.257,-4.805c1.808,-2.485 3.711,-5.363 5.97,-7.349c3.556,-3.187 7.587,-5.649 11.191,-8.693c3.793,-3.247 7.349,-6.433 10.869,-10.037c2.355,-2.402 3.556,-3.555 6.422,-4.852c2.498,-1.107 3.793,-2.629 5.732,-4.805c3.377,-3.841 8.051,-5.28 10.132,-10.405c2.497,-6.154 3.556,-12.111 7.028,-17.713c3.65,-5.873 5.636,-12.765 9.43,-18.497c1.665,-2.497 3.353,-4.805 4.305,-7.813c1.011,-2.914 1.939,-5.542 3.508,-8.087c0.784,-1.249 3.602,-7.717 4.899,-6.148c0.398,0.463 0,2.414 0.041,3.008c0.154,1.808 0.154,3.52 0.238,5.506c0.131,4.991 2.069,9.938 2.307,15.028c0.119,2.771 0,5.506 0.357,8.277c0.285,2.724 1.45,5.22 1.807,7.956c0.559,5.315 -1.071,12.022 -1.665,17.385c-0.487,4.621 -0.964,9.247 -1.439,13.873c-0.511,5.219 -1.856,9.845 -2.45,14.935c-0.607,4.765 -2.665,9.058 -3.378,13.731c-0.417,2.366 -1.403,4.352 -1.76,6.707c-0.238,2.319 -0.238,4.578 -0.832,6.802c-1.153,4.119 -2.26,8.413 -3.092,12.67c-0.558,2.997 -1.569,5.411 -1.807,8.551c-0.13,1.713 0.048,4.709 -1.201,5.78c3.282,-1.927 6.755,-1.105 10.215,-2.402c2.414,-0.88 4.626,-2.058 7.123,-2.771c3.045,-0.916 5.637,-1.332 8.551,-3.092c4.718,-2.855 8.738,-5.495 13.875,-7.302c6.75,-2.307 13.408,-6.278 20.389,-7.349c5.687,-0.891 11.336,-0.594 17.02,-1.843c2.913,-0.642 5.731,-1.558 8.693,-2.033c5.786,-0.916 11.696,-0.12 17.523,0.832c0.642,6.153 3.555,12.349 9.573,16.975c36.483,28.112 78.239,50.541 110.287,82.354c-1.13,2.628 -1.606,5.506 -1.249,8.646z" /> <path d="M264.012,859.233c87.626,-0.739 174.699,-6.796 261.451,-17.201c-2.914,2.355 -5.828,4.579 -8.646,6.612c-7.309,5.182 -15.038,9.296 -22.613,13.875c-6.75,4.116 -11.887,9.334 -16.739,16.231c-4.252,6.103 -7.083,11.289 -13.873,13.548c-4.628,1.524 -9.718,1.558 -14.427,1.439c-5.177,-0.119 -12.673,-2.153 -17.525,0.713c-2.735,1.617 -1.248,1.664 -2.497,4.209c-1.391,2.759 -4.626,2.996 -7.028,3.234c-2.307,0.321 -4.947,0.738 -6.886,2.307c-1.023,0.833 -1.521,1.808 -2.592,2.402c-5.185,2.96 -10.214,1.212 -14.151,-3.604c-8.047,-9.938 -14.842,-20.857 -24.094,-29.408c-4.257,-3.881 -9.526,-11.219 -15.258,-11.932c-2.414,-0.273 -5.28,1.285 -7.635,1.76c-4.852,1.071 -9.205,1.546 -14.152,1.071c-4.111,-0.435 -8.047,-0.317 -12.162,0.04c-4.205,0.317 -9.295,-1.212 -13.315,0.357c-2.866,1.105 -3.426,2.77 -6.47,2.176c-2.318,-0.475 -3.983,-0.119 -6.338,0.119c-9.389,0.844 -18.263,-9.014 -27.836,-7.207c-1.855,0.38 -7.135,5.269 -7.492,1.332c-0.119,-0.642 0.119,-1.297 0.238,-2.129z" /></svg>