<svg xmlns="http://www.w3.org/2000/svg" viewBox="0 0 1034 976" width="1034" height="976"><path d="M645.223,220.952c48.313,31.608 86.808,65.581 109.885,146.272c-11.77,-20.868 -15.169,-40.398 -28.936,-56.227c-24.411,-28.117 -57.102,-34.385 -82.388,-53.401c-26.519,-20.048 -43.171,-34.232 -71.748,-47.286c-3.335,-1.484 -6.686,-3.189 -9.92,-4.982c-5.141,-8.531 -10.285,-16.703 -18.195,-23.129c-3.351,-2.724 -8.173,-1.79 -11.365,0.875c-9.972,-11.765 -17.573,-27.338 -30.89,-14.853c-4.168,4.005 -7.256,10.269 -10.184,16.753c-12.747,12.129 -27.808,22.614 -36.593,38.341c-0.05,0 -0.05,0.05 -0.05,0.05c-17.012,10.485 -35.257,19.886 -51.55,30.477c-28.884,18.808 -53.708,43.891 -82.695,60.852c-13.671,8.026 -27.909,5.345 -43.07,9.614c-1.747,-9.245 -0.438,-20.959 0,-21.687c36.131,-7.706 120.112,-85.581 138.256,-95.749c20.149,-11.257 38.755,-28.113 55.508,-50.215c6.264,-8.272 12.996,-20.654 20.251,-31.144c5.446,-3.146 11.199,-5.52 17.319,-6.686c8.996,-1.647 18.187,-0.058 27.394,1.851c13.055,16.137 24.054,38.038 38.805,50.933c23.23,20.405 45.742,33.305 70.156,49.29z" /> <path d="M777.332,207.917c7.151,22.563 11.159,47.387 8.944,70.618c-3.134,32.636 -36.597,96.159 -48.106,122.834c3.186,-37.417 36.597,-61.519 32.328,-100.89c-6.476,-60.03 -14.648,-68.921 -44.253,-101.609c-22.255,-24.671 -31.972,-49.803 -41.938,-82.285c0.054,-0.051 0.054,-0.051 0.103,-0.101c9.56,-27.601 -0.717,-57.615 -28.679,-64.812c-8.531,-4.269 -19.117,-1.588 -35.05,-6.322c-48.673,-14.452 -81.979,-13.635 -134.042,-0.581c-42.66,10.742 -114.048,-39.472 -138.411,52.477c-9.354,35.257 -9.764,92.666 -27.651,115.948c-20.711,26.931 -46.664,65.786 -43.43,106.133c5.814,42.145 -4.838,-23.95 -6.527,-39.265c-0.875,-8.789 0.976,-17.995 5.245,-23.387c13.825,-17.679 27.348,-36.698 31.66,-59.311c4.532,-24.051 -0.205,-45.228 6.221,-68.664c8.634,-31.25 32.07,-92.361 48.003,-110.298c9.148,-10.33 40.397,-6.426 59.363,-2.622c0.144,0.144 0.187,0.188 0.291,0.291c15.214,12.953 32.07,11.423 49.905,5.814c0.93,-0.291 1.689,-0.728 2.417,-1.166c13.67,-2.157 26.82,-6.833 39.831,-12.647c23.848,-10.679 43.944,-9.865 66.866,-2.769c0.263,3.904 2.463,7.633 7.096,8.944c11.306,3.351 23.948,3.351 33.097,-3.54c17.63,-1.484 35.364,-5.141 52.117,2.157c24.82,10.898 31.913,18.297 37.057,37.16c1.801,33.714 3.703,73.393 30.583,89.222c0.291,0.438 0.728,0.728 1.019,1.166c1.487,3.497 3.235,6.686 5.144,9.819c-3.439,2.971 -5.085,8.011 -1.952,13.155c9.613,15.934 20.096,31.4 32.844,44.613z" /> <path d="M442.07,212.378c-45.332,11.248 -26.778,151.257 -15.008,196.898c15.984,62.189 33.562,114.1 63.269,160.87c-40.962,-50.111 -84.958,-115.382 -102.074,-199.878c-4.881,-24.054 -18.348,-68.356 -15.11,-94.929c5.857,-47.696 36.388,-21.743 68.923,-62.96z" /> <path d="M585.921,210.257c33.867,25.705 36.652,25.982 39.317,27.293c7.968,103.202 -16.188,277.436 -74.574,332.584c0.976,-0.82 8.378,-28.735 12.442,-32.07c14.904,-47.438 31.913,-91.69 37.057,-147.352c5.347,-57.51 -26.007,-133.322 -14.235,-180.452z" /> <path d="M663.659,479.105c27.754,-30.684 66.3,-124.282 91.536,-111.84c-1.078,-0.615 -25.24,55.867 -27.804,62.189c-4.211,10.641 -4.153,21.377 -12.02,30.015c-6.374,6.942 -16.349,9.402 -23.488,15.216c-8.431,6.89 -14.186,17.84 -19.067,27.601c-11.105,21.948 -18.097,46.207 -25.441,69.746c-1.91,6.061 -3.381,11.67 -4.838,17.062c-0.801,0.713 -1.53,1.646 -2.258,2.665c-5.245,8.942 -6.163,18.355 -4.37,27.547c-2.827,15.626 -5.042,31.507 -8.742,51.911c-7.041,12.644 -13.773,24.362 -15.419,39.215c-1.601,14.183 1.487,27.296 -3.758,41.167c-4.375,11.665 -9.357,24.303 -16.19,34.692c-8.48,12.748 -24.831,17.788 -37.726,6.686c-2.259,-1.995 -3.525,-5.141 -4.982,-7.91c-3.799,-7.143 -9.656,-12.694 -15.47,-18.144c-2.824,-2.68 -5.752,-5.404 -9.25,-6.891c-6.325,-2.666 -13.623,-1.035 -19.48,2.622c-9.048,5.654 -14.235,15.571 -22.613,21.997c-6.938,5.288 -15.01,5.652 -19.891,14.336c-1.546,2.723 -2.464,5.915 -4.575,8.231c-16.763,18.758 -29.655,-33.82 -30.53,-42.094c1.821,-1.793 2.987,-4.373 2.987,-7.708c0,-9.716 -0.758,-19.012 -4.721,-26.778c-0.143,-5.603 -0.29,-10.994 -0.581,-15.933c-1.24,-21.637 -2.054,-37.575 -3.963,-50.935c1.646,-14.492 -0.104,-29.452 -8.072,-41.836c-3.947,-6.062 -8.828,-10.695 -14.336,-14.235c-2.316,-3.293 -4.779,-6.79 -7.561,-10.49c-6.058,-8.121 -14.332,-18.855 -17.218,-28.938c-2.519,-8.992 2.114,-14.702 -5.346,-23.386c-14.184,-16.395 -18.701,-37.313 -27.238,-57.461c-7.812,-18.449 -17.942,-32.43 -28.679,-48.672c-0.934,-1.399 -2.026,-2.464 -3.192,-3.192c-0.54,-0.526 -1.27,-0.964 -1.851,-1.545c-0.144,-0.294 -0.144,-0.584 -0.291,-0.875c-5.606,-12.9 -13.923,-24.102 -20.043,-36.645c-0.147,-0.29 -0.291,-0.437 -0.438,-0.728c-3.191,-21.484 -3.191,-47.645 -9.513,-64.657c0.144,-2.301 0.241,-4.575 0.291,-6.833c34.795,25.029 62.909,117.184 84.906,164.621c17.474,37.727 23.281,49.035 49.083,76.273c20.71,21.844 32.995,48.313 38.647,87.22c4.474,31.248 -5.91,97.24 11.977,111.991c12.696,10.485 44.665,-41.528 62.55,-41.528c24.723,0.058 39.832,42.042 56.332,14.495c17.168,-28.578 11.006,-77.097 21.844,-110.862c8.584,-26.622 19.423,-50.419 27.96,-77.763c10.383,-33.306 8.633,-43.067 32.739,-69.692z" /> <path d="M536.573,736.252c5.814,-41.374 15.574,-91.28 10.431,-133.012c12.384,50.525 17.27,87.477 17.836,149.254c-7.867,-1.311 -19.481,-1.952 -28.012,-4.838c0.875,-4.676 1.646,-26.008 -0.291,-11.408z" /> <path d="M494.031,603.314c-3.235,31.454 2.986,106.031 8.638,142.625c-6.372,8.479 -15.324,11.16 -24.516,12.179c-1.179,-63.063 7.141,-99.297 15.883,-154.805z" /> <path d="M386.254,46.027c-15.11,-1.545 -24.979,12.136 -28.216,30.786c-1.909,11.307 -4.78,33.614 0,42.299c12.442,6.934 33.458,19.325 46.36,4.168c5.756,-6.79 10.125,-25.234 9.862,-36.544c-0.438,-17.269 -9.614,-19.89 -12.895,-32.636c-3.293,-2.463 -1.851,0.291 -3.862,-3.862c-6.322,-0.728 -12.849,-1.311 -17.836,-6.12c8.479,-23.179 34.076,-1.588 40.141,13.666c9.091,22.769 5.086,44.922 -4.575,64.449c-18.707,37.829 -69.949,35.719 -72.676,-19.374c-0.581,-11.815 3.862,-30.118 8.99,-38.548c7.766,-12.748 27.396,-17.578 34.692,-18.297z" /> <path d="M645.723,50.701c-15.675,15.883 -36.749,30.633 -19.171,62.55c7.662,13.871 22.719,26.984 35.772,20.661c14.751,-7.038 26.316,-30.684 21.328,-52.27c-3.029,-13.155 -17.475,-29.5 -26.057,-30.89c17.319,1.457 26.21,13.623 30.991,35.977c4.734,22.203 9.513,44.613 -8.886,56.383c-16.961,10.897 -41.476,12.283 -53.762,-9.718c-6.12,-11.001 -25.851,-43.171 -20.659,-59.773c2.665,-8.479 18.195,-17.679 24.054,-20.765c9.048,-4.78 24.925,-4.474 16.394,-2.157z" /> <path d="M649.322,742.701c8.43,16.098 42.454,11.83 60.082,6.38c7.451,-2.316 14.18,-7.356 21.946,-8.843c2.159,-0.395 16.997,0.334 17.578,-0.104c7.255,-6.371 1.355,-15.522 2.521,-24.206c5.853,8.124 15.207,10.89 15.06,22.561c-3.548,-37.261 26.689,-66.916 27.855,-103.408c0.976,-31.762 -12.751,-61.367 -18.813,-92.36c-4.52,-22.87 -7.65,-55.456 -4.416,-78.225c3.444,-23.902 15.161,-45.64 24.105,-67.793c7.917,-19.582 10.942,-43.791 24.054,-59.929c13.826,-16.96 28.474,-30.066 39.781,-49.391c12.641,-21.64 29.905,-39.472 43.222,-60.596c8.173,-12.848 29.039,-40.957 45.075,-38.598c-7.199,5.196 -11.978,12.598 -17.835,19.532c-8.274,9.867 -19.781,17.105 -26.161,28.164c-7.181,12.489 -6.628,27.399 -8.638,41.836c-2.362,17.114 -14.22,30.579 -13.929,47.079c0.36,26.159 13.055,69.077 25.032,92.975c14.749,29.548 43.944,31.253 69.847,41.785c13.208,5.349 24.418,9.66 38.289,13.259c-8.735,10.841 -32.371,-1.806 -42.555,-5.245c-24.824,-8.531 -38.649,-16.034 -58.848,-32.226c-13.105,-10.485 -21.277,-14.444 -27.804,-30.581c-3.951,-9.766 -9.033,-19.639 -12.895,-29.605c-4.678,-12.078 -11.511,-28.681 -8.684,-41.836c-21.687,2.62 -33.361,34.023 -42.452,53.656c-5.493,11.871 -33.814,69.789 -13.565,78.121c2.824,20.867 -4.213,39.987 -4.11,60.905c0.159,22.203 7.151,46.82 11.261,68.356c6.323,-13.362 22.662,-31.506 32.175,-42.608c18.039,-21.02 46.411,-34.185 70.566,-45.023c18.4,-8.271 41.735,-12.598 61.109,-16.343c18.246,-3.54 38.445,-7.647 56.485,-2.665c-13.312,8.995 -38.961,11.458 -54.429,15.727c-26.727,7.246 -57.564,18.244 -81.926,33.458c-17.887,11.207 -27.961,31.043 -44.922,43.996c-13.672,10.433 -23.901,29.969 -37.261,37.313c25.543,15.519 51.702,31.914 78.48,46.512c9.714,5.242 86.292,43.634 63.37,59.157c-9.351,-10.175 -17.216,-19.221 -28.523,-28.165c-8.685,-6.937 -38.487,-16.142 -39.215,-26.879c-16.753,-4.627 -30.734,-11.096 -47.437,-18.758c-10.382,-4.733 -28.782,-11 -36.184,-17.628c3.556,10.999 1.139,32.477 -2.359,44.613c-3.087,10.637 -11.261,17.778 -14.801,28.473c-2.521,7.707 -1.502,15.978 -2.521,23.64c-2.312,18.967 -0.668,28.016 -19.273,30.274c-26.418,3.234 -51.344,3.075 -77.351,6.833c-14.031,2.062 -23.541,10.483 -35.925,15.058c-10.794,4.02 -21.389,0.162 -32.227,1.909c10.947,-3.547 17.222,-45.796 27.188,-40.551z" /> <path d="M917.022,597.874c6.12,-6.833 17.937,-9.66 27.342,-15.159c11.714,-6.934 22.255,-20.044 32.945,-28.938c13.519,-11.203 28.32,-27.96 43.121,-34.847c0.581,19.582 -21.225,38.237 -25.594,58.231c-4.416,20.456 -1.019,37.468 -0.875,57.203c0.438,26.879 2.769,52.012 3.905,79.253c0.581,11.772 -4.575,25.03 -3.192,36.235c0.875,6.833 7.402,15.214 8.886,22.512c-33.098,-49.75 -25.595,-127.31 -31.352,-185.848c-9.556,7.197 -30.734,11.772 -42.504,13.054c-8.072,0.875 -15.727,-4.11 -21.995,2.359c2.01,0.291 1.689,1.019 9.25,-4.064z" /> <path d="M787.283,752.479c17.679,7.708 35.465,27.238 50.266,40.601c15.777,14.336 25.183,13.519 48.106,8.785c31.453,-6.469 94.723,-37.159 124.738,-11.001c-14.907,-1.457 -39.833,-5.958 -49.7,9.048c-22.922,-0.875 -44.922,15.829 -64.964,25.8c-10.389,5.187 -15.265,12.237 -24.414,19.016c-11.671,8.742 -19.223,7.662 -27.855,21.074c-6.163,9.513 -13.36,20.867 -18.297,30.785c-5.086,10.226 -6.38,23.231 -12.485,33.153c-6.628,10.737 -11.365,17.835 -17.062,29.039c-3.963,7.766 -6.79,17.578 -15.777,7.867c1.019,3.804 1.457,6.264 3.498,9.354c-2.463,-12.237 -15.11,-38.649 -22.719,-48.981c-6.686,-9.149 -20.199,-16.343 -28.883,-24.157c-9.455,-8.58 -13.519,-15.523 -20.711,-25.699c-14.336,-20.404 -37.829,-30.785 -60.082,-34.847c-22.613,-4.168 -48.211,-17.731 -69.847,-15.574c9.92,-2.886 27.186,-10.695 38.288,-10.591c12.485,0.103 28.063,5.756 40.809,7.708c38.649,5.814 78.48,29.758 99.761,65.942c8.742,14.801 9.354,39.522 22.719,49.906c-7.402,-25.34 -11.261,-56.692 -14.293,-84.753c-1.952,-17.731 -9.819,-34.282 -8.332,-52.013c1.166,-13.623 0.728,-26.109 3.804,-39.369c14.541,6.732 13.666,61.265 17.012,77.558c3.192,15.367 6.264,30.941 8.684,45.999c1.646,10.33 7.46,21.227 7.139,31.094c8.173,-19.53 18.247,-37.211 30.425,-54.12c6.016,-8.274 16.036,-20.558 13.213,-32.739c-2.665,-11.772 -21.896,-28.577 -29.298,-38.496c-9.308,-12.485 -18.504,-25.082 -25.39,-38.855c2.01,-0.049 3.657,0.291 1.646,-1.545z" /> <path d="M384.652,742.707c9.966,-5.245 16.242,37.004 27.188,40.551c-10.838,-1.747 -21.433,2.111 -32.226,-1.909c-12.384,-4.575 -21.894,-12.996 -35.925,-15.058c-26.008,-3.758 -50.933,-3.599 -77.351,-6.833c-18.606,-2.258 -16.961,-11.307 -19.273,-30.274c-1.019,-7.662 0,-15.933 -2.521,-23.641c-3.54,-10.695 -11.714,-17.835 -14.801,-28.471c-3.498,-12.136 -5.915,-33.614 -2.359,-44.614c-7.402,6.628 -25.8,12.895 -36.182,17.63c-16.704,7.662 -30.684,14.131 -47.439,18.758c-0.728,10.737 -30.53,19.942 -39.215,26.879c-11.307,8.944 -19.171,17.99 -28.523,28.165c-22.922,-15.523 53.656,-53.915 63.372,-59.157c26.778,-14.598 52.937,-30.993 78.48,-46.512c-13.36,-7.344 -23.591,-26.88 -37.261,-37.313c-16.961,-12.953 -27.036,-32.789 -44.922,-43.996c-24.363,-15.214 -55.2,-26.212 -81.926,-33.458c-15.47,-4.269 -41.117,-6.732 -54.429,-15.727c18.038,-4.982 38.239,-0.875 56.484,2.665c19.376,3.745 42.711,8.072 61.109,16.343c24.157,10.838 52.527,24.003 70.567,45.023c9.513,11.102 25.852,29.246 32.175,42.608c4.11,-21.536 11.102,-46.153 11.248,-68.356c0.103,-20.918 -6.934,-40.038 -4.11,-60.905c20.251,-8.332 -8.072,-66.25 -13.565,-78.121c-9.091,-19.633 -20.765,-51.036 -42.452,-53.656c2.827,13.155 -4.006,29.758 -8.684,41.836c-3.862,9.966 -8.944,19.839 -12.895,29.605c-6.527,16.137 -14.7,20.096 -27.804,30.581c-20.2,16.192 -34.024,23.695 -58.848,32.226c-10.184,3.439 -33.82,16.086 -42.555,5.245c13.883,-3.599 25.081,-7.91 38.288,-13.259c25.903,-10.532 55.098,-12.237 69.848,-41.785c11.977,-23.898 24.671,-66.816 25.03,-92.975c0.291,-16.5 -11.567,-29.965 -13.929,-47.079c-2.01,-14.437 -1.457,-29.347 -8.638,-41.836c-6.368,-11.059 -17.885,-18.297 -26.16,-28.164c-5.857,-6.934 -10.636,-14.336 -17.835,-19.532c16.034,-2.359 36.902,25.75 45.073,38.598c13.317,21.124 30.581,38.956 43.223,60.596c11.307,19.325 25.955,32.431 39.781,49.391c13.112,16.138 16.137,40.347 24.054,59.929c8.944,22.153 20.659,43.891 24.105,67.793c3.234,22.769 0.103,55.355 -4.416,78.225c-6.062,30.993 -19.789,60.598 -18.813,92.36c1.166,36.492 31.352,66.147 27.856,103.408c-0.147,-11.671 9.207,-14.437 15.058,-22.561c1.166,8.684 -4.734,17.835 2.521,24.206c0.581,0.438 15.418,-0.291 17.578,0.104c7.766,1.487 14.495,6.527 21.946,8.843c17.628,5.45 51.652,9.718 60.081,-6.38z" /> <path d="M117.039,597.865c7.561,5.083 7.24,4.355 9.25,4.064c-6.27,-6.469 -13.925,-1.484 -21.997,-2.359c-11.769,-1.282 -32.947,-5.857 -42.503,-13.054c-5.758,58.538 1.746,136.098 -31.352,185.848c1.484,-7.298 8.011,-15.679 8.886,-22.512c1.383,-11.205 -3.773,-24.463 -3.192,-36.235c1.136,-27.241 3.467,-52.374 3.905,-79.253c0.144,-19.735 3.541,-36.747 -0.875,-57.203c-4.368,-19.994 -26.176,-38.649 -25.595,-58.231c14.801,6.887 29.602,23.644 43.121,34.847c10.691,8.894 21.231,22.004 32.945,28.938c9.407,5.499 21.224,8.326 27.344,15.159z" /> <path d="M246.716,752.468c-1.995,1.836 -0.364,1.495 1.646,1.545c-6.888,13.773 -16.084,26.37 -25.392,38.855c-7.402,9.918 -26.631,26.724 -29.296,38.496c-2.823,12.181 7.197,24.465 13.213,32.739c12.178,16.909 22.252,34.59 30.425,54.12c-0.321,-9.867 5.493,-20.764 7.139,-31.094c2.42,-15.058 5.492,-30.632 8.684,-45.999c3.346,-16.293 2.471,-70.826 17.012,-77.558c3.076,13.26 2.638,25.746 3.804,39.369c1.487,17.731 -6.38,34.283 -8.332,52.012c-3.032,28.063 -6.891,59.415 -14.293,84.753c13.365,-10.383 13.977,-35.104 22.719,-49.905c21.281,-36.184 61.112,-60.128 99.761,-65.942c12.747,-1.952 28.323,-7.605 40.808,-7.708c11.101,-0.104 28.369,7.705 38.289,10.591c-21.637,-2.157 -47.234,11.406 -69.847,15.574c-22.255,4.062 -45.746,14.443 -60.082,34.847c-7.192,10.176 -11.256,17.119 -20.711,25.699c-8.684,7.814 -22.197,15.008 -28.883,24.157c-7.609,10.332 -20.256,36.744 -22.719,48.981c2.041,-3.09 2.479,-5.55 3.498,-9.354c-8.987,9.711 -11.814,-0.101 -15.777,-7.867c-5.697,-11.204 -10.434,-18.302 -17.062,-29.039c-6.117,-9.922 -7.399,-22.927 -12.485,-33.153c-4.937,-9.918 -12.134,-21.272 -18.297,-30.785c-8.632,-13.412 -16.184,-12.332 -27.855,-21.074c-9.149,-6.779 -14.025,-13.829 -24.414,-19.016c-20.044,-9.971 -42.042,-26.675 -64.964,-25.8c-9.869,-15.006 -34.793,-10.505 -49.7,-9.048c30.015,-26.158 93.285,4.532 124.738,11.001c22.973,4.734 32.329,5.551 48.106,-8.785c14.801,-13.363 32.586,-32.893 50.266,-40.601z" /></svg>