<svg xmlns="http://www.w3.org/2000/svg" xml:space="preserve" width="33.007" height="31.029"><path d="M15.418 6.483h.17v-.68h-.17Zm-3.485-2.04c-.508.028-.29.421-.382.593-.541.37-.201.89-.261 1.306-.003.013.14.046.261.086 0-.454 0-.88.042-1.305.509-.03.289-.423.304-.71q.034.031.066.065l.279-.236-.108-.108c-.079.093-.157.185-.201.309m3.06 15.041c-.126.464.222.956.506 1.218 1.224 1.13 2.126 2.498 3.087 3.829.281.39.633.695.888 1.15.713 1.277 1.084 2.573.933 4.146l-.992.77c-.456-.106-1.11.157-1.846-.227-1.164-.61-2.595-.754-3.256-2.126l1.809.402c.275-.276.455-.503.681-.666.16-.116.384-.144.57-.208v-.548c.534-.396.385-.858.173-1.366-.605-1.443-1.655-2.496-2.908-3.376.007-.004.028-.027.05-.05l-.237-.277-.106.107c.092.08.185.158.293.22.053.19.024.453.141.598.65.804 1.362 1.562 1.999 2.376.393.503.704 1.076.595 1.768-.83.343-1.58 1.008-2.63.712-2.174-1.418-4.333-2.866-6.534-4.244-.93-.582-1.952-1.017-3.03-1.57-1.265 0-1.265 0-1.94-.34-1.12.21-1.99.814-2.732 1.785-.172-.91-.57-1.665-.498-2.575.073-.934.433-1.752.837-2.54.39-.757 1.261-1.078 1.99-1.277.886-.243 1.938-.332 2.806-.088 1.447.405 2.957.747 4.23 1.637 1.009.707 2 1.438 3.018 2.132.208.142.493.168.743.247.113.113.226.227.356.323-.007.004-.03.026-.052.049l.237.277.108-.106a2 2 0 0 0-.293-.22c-.13-.096-.243-.21-.356-.323-.6-.883-1.204-1.761-1.794-2.65-.113-.173-.165-.385-.246-.577-.227-.528-.423-1.072-.688-1.581-.34-.653-.651-1.355-1.13-1.897-.54-.61.196-1.498-.562-1.984.156-.786-.28-1.49-.322-2.236-.07-1.183-.214-2.42.04-3.548.223-.986.41-2.047 1.132-2.928.494-.603.742-1.4 1.342-1.982C13.133.042 14.958-.398 17.355.356c.155.048.339.006.574.006l.926 2.12q-.1.067-.202.133l1.13.913c-.138 1.088.304 2.195-1.122 2.759-.18.063-.112.19-.064.184.162-.023.318-.093.476-.147-.204-.058-.41-.116-.412-.037.412.479.522.833.393 1.03-.563.86-.87 1.797-1.07 2.789-.026.138-.226.242-.394.409h-1.416l-.77-.725c-.16-.898-.086-1.835-.495-2.448-.475-.71.144-1.603-.596-2.143.128-.783.254-1.567.393-2.413H13.04a9 9 0 0 0-.411.652 1 1 0 0 0-.048-.051l-.277.237.106.107c.079-.092.159-.185.219-.293.41-.034.881.12 1.185-.343l.36.359c-.176.809-.346 1.57-.009 2.432.219.554.181 1.328-.028 1.898-.187.51-.215.999-.14 1.448.21 1.248.541 2.476.832 3.71.004.012.107 0 .163 0-.036.809.664 1.311.84 2.031 1.428.96 2.06 2.651 3.544 3.642a13.2 13.2 0 0 1 3.577 3.588c.785 1.178 1.759 2.454 1.577 4.096-.03.284.174.594.262.868l-.372 1.601-1.799 1.861c-.816.142-1.604.28-2.31.4l.802-.8c0-.62.045-.853-.008-1.058a130 130 0 0 0-1.03-3.82c-.086-.295-.274-.58-.475-.819a104 104 0 0 0-2.279-2.624 50 50 0 0 0-2.33-2.424c0-.25.06-.45-.009-.584-.621-1.213-1.285-2.404-1.898-3.621-1.14-2.266-1.872-4.638-1.836-7.207.005-.412-.048-.824-.074-1.236-.556 4.745.642 8.967 3.818 12.648"/><path d="m32.896 10.944-.643-1.062h-2.279c-1.9.77-3.38 2.035-4.702 3.504-.32.356-.547.796-.85 1.171-.585.724-1.209 1.417-1.789 2.147-.299.377-.696.628-.9 1.153-.19.49-.69 1.061-1.53.844-.689-.728-1.427-1.496-2.138-2.29-.085-.093-.012-.329-.012-.58 1.847-1.597 2.937-3.92 4.852-5.551 1.315-1.119 2.752-2.023 4.355-2.608 2.146-.786 4.832.353 5.664 2.296.061.144.086.314.082.472-.002.153-.064.304-.11.504M11.477 26.527c.23.324.384.537.652.913-.702.182-1.247.326-1.792.462-.258.064-.523.098-.779.17-2.17.602-4.176-.037-6.044-1.013-.639-.335-.99-1.243-1.435-1.912-.26-.39-.45-.83-.685-1.272l.428-.988c1.232-.796 2.441-.36 3.683.073l-.378 1.083c.764 1.947 2.483 2.34 4.063 2.79.656.186 1.55.329 2.287-.306"/><path d="M31.313 10.134c.321.284.642.57.944.836.03.136.09.246.07.341-.098.463-.088 1.025-.356 1.364-1.345 1.703-3.024 2.893-5.29 2.984-.715.028-1.43.004-2.39.004l1.391-1.94c.968-.147 1.953-.203 2.877-.47a5.2 5.2 0 0 0 1.916-1.05c.532-.461.563-1.23.483-1.965zM7.832 10.712l.566.567.514 2.018c-.898-.46-1.687-.885-2.495-1.273-.859-.413-1.385-1.376-2.56-1.567C2.717 9.433 1.6 8.205.973 6.587.61 5.65.583 5.575 1.392 4.71c0 .502-.042.886.01 1.258.07.507.252.928.778 1.212.74.399 1.026 1.31 1.796 1.722 1.197.644 2.356 1.366 3.856 1.809M14.6 12.578c1.125.16 1.838.303 2.558.354s1.448.01 2.219.01c-.001.926-.544 1.443-1.116 2.003h-1.805c-.28-.857-.723-1.616-1.856-2.367M1.784 4.501h1.242l.012.211-1.23.081zM14.282 28.28l-.277-.238q.051-.053.106-.106l.238.277zM13.973 21.443l-.34-.34z"/></svg>