<svg xmlns="http://www.w3.org/2000/svg" width="231.375" height="224.863" viewBox="0 0 2313.75 2248.635"><path d="M176.875 2063.635c-177-177-184-185-174-212 14-41 52-42 89-3 16 16 34 30 39 30 6 0 82-71 169-158l158-159-73-73c-128-128-133-148-59-221 84-85 71-93 394 229 153 152 285 290 294 306 18 35 11 64-24 107-35 41-84 62-117 49-14-5-62-45-107-89-70-68-85-79-98-68-45 36-301 300-301 311 0 7 14 25 30 41 17 16 30 36 30 45 0 20-31 50-51 50-8 0-97-83-199-185m1727 167c-24-27-21-44 13-77 17-16 30-34 30-41 0-11-256-275-301-311-13-11-28-1-97 67-44 44-92 84-107 90-34 13-82-7-118-49-35-43-42-72-24-107 9-16 141-154 294-306 323-322 310-314 394-229 74 73 69 93-59 222l-73 73 158 158c87 87 163 158 169 158 5 0 23-14 39-30 37-39 75-38 89 3 10 27 3 35-174 212-102 102-192 185-201 185s-23-8-32-18m-1109-789-127-128 89-100c50-55 90-105 90-112 0-6-8-18-19-25-10-7-56-47-102-89s-151-136-234-209c-158-140-317-283-347-313-31-30-38-63-53-256-9-102-18-192-20-200-4-10 2-12 27-7 18 3 110 12 205 20 107 9 183 21 201 30 16 8 62 52 103 98 82 92 80 90 129 144 19 22 71 80 115 129 44 50 82 92 85 95s52 58 109 123c57 64 107 117 111 117s54-53 111-117c57-65 106-120 109-123s41-45 85-95c70-78 125-141 160-179 6-6 44-49 85-94 41-46 87-90 103-99 18-9 95-20 205-29 97-7 190-17 206-20 18-4 26-2 22 4-3 5-12 95-21 199-8 105-19 202-24 216-12 32-55 72-431 406-162 145-296 268-298 274-1 7 38 57 87 112l90 100-127 128c-70 70-130 127-134 127s-55-43-114-95c-58-52-110-95-114-95s-56 43-114 95c-59 52-110 95-114 95s-64-57-134-127"/></svg>