<svg xmlns="http://www.w3.org/2000/svg" viewBox="0 0 832 832" width="832" height="832"><path d="M415.996,794.186c37.226,0 73.164,-5.476 107.155,-15.507c-156.657,-46.193 -271.05,-191.053 -271.05,-362.665c0,-171.647 114.395,-316.467 271.05,-362.696c-33.991,-10.03 -69.929,-15.506 -107.155,-15.506c-208.875,0 -378.169,169.332 -378.169,378.203c0,208.834 169.298,378.17 378.169,378.17zM593.304,39.652c141.041,66.584 238.677,210.048 238.677,376.366c0,166.322 -97.636,309.784 -238.677,376.332c-53.795,25.39 -113.877,39.65 -177.305,39.65c-229.742,0 -415.98,-186.233 -415.98,-415.981c0,-229.748 186.235,-416.018 415.98,-416.018c63.428,0 123.51,14.255 177.305,39.65z" /></svg>