<svg xmlns="http://www.w3.org/2000/svg" viewBox="0 0 716 880" width="716" height="880"><path d="M351.591,0.001c-0.08,16.162 16.082,32.325 21.302,47.214c4.034,11.43 0.987,22.701 -3.412,33.434c-3.25,7.978 -10.158,20.027 -8.223,35.201c6.701,12.584 6.99,26.938 11.925,40.675c6.618,18.259 12.707,36.804 19.616,54.982c3.947,10.531 5.552,19.945 10.691,30.147c5.266,10.444 10.325,20.975 15.71,31.295c3.005,5.84 3.005,9.129 4.361,15.174c1.149,5.347 4.4,8.84 6.249,13.86c4.028,11.062 7.198,23.196 9.542,34.299c2.591,12.092 11.555,24.922 17.149,35.984c3.782,7.607 12.337,33.93 20.438,34.873c7.729,-15.954 9.704,10.487 15.834,-6.084c-0.247,27.1 4.276,15.75 -5.02,39.974c-3.577,9.21 -6.538,18.464 -9.95,27.717c-1.276,3.498 -3.826,12.541 -8.267,13.325c-5.799,1.069 -7.198,-6.415 -9.377,-10.938c-5.756,-11.763 -13.942,-20.154 -19.944,-31.299c-3.415,-6.293 -5.471,-14.886 -9.912,-20.357c-1.314,-1.605 -4.319,-2.178 -5.016,-3.085c-3.251,-4.111 -4.812,-8.182 -7.28,-12.832c-8.598,-15.954 -22.293,-29.196 -31.214,-45.193c-5.924,-10.609 -9.419,-25.168 -17.728,-33.889c-4.4,2.469 -1.603,16.699 -1.643,21.923c-0.124,10.032 0.039,19.987 0.451,30.061c0.376,10.692 -1.439,19.907 0.493,30.27c1.357,7.361 3.042,14.31 4.114,21.752c3.287,23.526 5.859,47.832 6.168,71.643c0.081,7.854 0.618,13.942 1.808,21.672c1.479,9.419 -2.345,17.273 -2.962,26.403c-1.154,17.191 0.451,34.996 1.603,52.188c0.535,7.939 -1.646,15.873 -1.234,23.607c0.327,6.416 2.51,10.773 3.99,17.065c3.042,13.201 -0.209,25.868 -0.906,38.7c-1.209,21.22 0.823,42.972 -1.48,63.823c-2.672,24.47 -2.097,49.682 -4.318,74.356c-1.11,12.543 -0.944,24.551 -2.386,37.136c-0.862,8.142 0.865,17.064 -0.902,24.922c-8.882,-2.757 -11.721,-19.658 -16.864,-26.815c-4.769,-6.704 -9.623,-11.308 -13.405,-19.042c-3.782,-7.771 -7.693,-15.421 -11.556,-23.109c-11.473,-22.91 -22.99,-45.857 -34.506,-68.762c-14.639,-29.241 -27.798,-59.344 -48.526,-84.347c-22.453,-27.143 -1.522,0.451 -18.344,8.674c-2.672,-4.275 -17.744,-4.152 -18.012,-9.58c-0.657,-12.789 0.247,-26.772 2.386,-39.357c2.018,-12.133 -4.565,-21.672 -0.697,-33.064c2.098,-6.087 4.4,-25.127 10.938,-26.73c11.147,12.462 13.367,31.172 25.416,43.14c13.282,13.201 24.716,28.951 36.438,43.552c9.211,11.392 17.025,19.08 23.603,32.405c3.417,6.994 6.91,10.159 11.722,15.834c3.332,3.99 9.338,8.636 11.968,12.954c4.935,-2.716 1.647,-20.975 1.072,-25.706c-2.059,-17.311 4.77,-32.324 2.344,-49.104c-2.551,-17.476 -5.883,-33.311 -4.607,-50.83c0.959,-13.732 -0.077,-27.92 -0.231,-41.862c-0.08,-9.542 -1.664,-19 -1.973,-28.499c-0.413,-9.87 2.55,-18.672 2.962,-28.461c0.617,-15.255 -4.855,-30.185 -6.292,-45.236c-0.944,-9.993 -4.688,-18.999 -6.334,-28.912c-1.236,-7.774 -0.822,-15.544 -2.056,-23.318c-2.839,-18.174 -5.465,-35.571 -5.348,-54.162c0.209,-30.801 3.702,-62.305 5.305,-93.064c1.522,-30.472 9.461,-61.852 8.389,-92.326c-0.493,-13.447 4.899,-24.755 4.935,-38.041c0.043,-16.038 3.005,-31.295 5.514,-47.252c2.012,-13.283 0.203,-28.499 4.275,-41.165c1.277,-3.991 6.127,-17.995 11.227,-17.809z" /> <path d="M410.31,179.127c0.575,-14.067 0.8,-12.623 1.068,-11.186c9.87,1.316 15.71,5.387 25.087,6.621c8.427,1.126 17.723,0.232 26.317,0.386c8.722,0.147 17.439,0.278 26.199,0.493c13.121,0.37 20.522,4.403 33.23,8.475c11.266,3.66 23.813,4.726 34.792,8.101c6.046,1.85 10.897,7.032 16.448,9.542c16.246,7.115 33.273,9.499 47.005,21.506c21.387,18.715 37.549,47.501 53.465,70.572c20.932,30.312 31.707,61.195 31.048,97.59c-0.123,7.859 -2.342,18.179 -0.82,25.871c2.053,10.446 10.384,14.27 10.652,26.033c0.247,14.022 1.767,32.571 -0.863,46.389c-6.169,32.116 -14.891,75.383 -37.468,98.824c-20.642,21.506 -35.162,47.414 -56.217,68.801c-9.048,9.13 -17.026,15.504 -22.743,26.692c-7.688,14.929 -18.791,26.854 -32.324,37.753c-23.892,19.327 -53.584,19.203 -81.798,27.223c-7.934,2.221 -11.143,5.278 -20.766,4.892c-10.981,-0.451 -16.082,1.277 -26.241,3.578c-7.157,1.566 -14.065,3.17 -21.013,4.731c-8.226,1.894 -17.11,-1.029 -24.674,3.578c4.028,-2.386 16.243,-5.304 20.604,-6.538c6.171,-1.646 10.57,-2.591 15.955,-4.688c14.477,-5.756 27.02,-15.341 41.046,-22.659c21.506,-11.227 97.961,-87.312 97.961,-87.312l18.297,-21.714c0,0 10.241,-20.149 17.439,-29.568c6.827,-8.883 0.82,-18.217 6.827,-27.636c2.716,-4.238 4.357,-8.679 7.442,-12.627c1.233,-1.604 5.674,-2.549 6.376,-4.029c2.752,-5.551 1.726,-10.32 4.973,-15.71c1.195,-1.975 4.565,-2.63 5.76,-4.646c1.807,-3.127 -0.124,-6.126 1.024,-9.211c2.262,-6.045 5.058,-11.722 5.921,-18.056c1.603,-11.555 3.455,-32.9 0.863,-44.211c-1.149,-5.016 -4.565,-7.033 -5.467,-12.542c-0.888,-5.675 0.37,-11.394 -0.617,-17.149c-4.155,-23.072 -26.979,-44.169 -29.158,-68.763c-1.276,-14.639 -2.344,-27.181 -5.509,-41.535c-3.331,-15.219 -10.652,-23.114 -19.288,-34.422c-8.513,-11.184 -13.121,-20.029 -25.416,-28.457c-15.421,-10.487 -30.349,-19.123 -46.882,-27.802c-20.19,-10.567 -39.355,-22.782 -59.547,-33.557c-10.118,-5.428 -27.142,-15.422 -38.987,-13.614z" /> <path d="M287.024,177.111c0.944,0.386 1.932,0.74 2.881,1.07c-7.403,8.513 -22.293,15.627 -31.423,18.544c-5.755,1.813 -13.159,4.565 -19.204,5.799c-2.919,0.577 -5.921,-0.78 -8.84,-0.35c-5.348,0.82 -7.033,3.782 -11.474,4.731c-8.267,1.849 -15.174,2.097 -23.156,4.48c-7.071,2.097 -10.857,3.127 -17.311,6.334c-4.114,2.016 -8.679,2.221 -13.163,4.892c-5.058,3.045 -10.363,6.909 -15.544,9.419c-10.938,5.305 -21.548,12.666 -28.951,24.262c-6.045,9.499 -9.993,22.084 -14.847,32.409c-5.961,12.746 -12.993,26.811 -17.273,39.808c-4.85,14.847 -13.529,28.334 -17.353,43.718c-3.209,12.993 -7.484,26.033 -9.499,39.808c-1.19,7.977 1.769,16.86 0.617,24.84c-1.356,9.211 -4.607,15.091 -4.399,24.837c0.115,7.117 1.767,18.302 0.386,25.087c-1.152,5.675 -3.868,8.267 -4.565,14.558c-1.769,15.957 0.386,33.681 0.451,49.802c0.154,31.379 10.61,50.256 30.925,71.766c6.87,7.237 13.325,15.008 20.152,22.041c10.567,10.857 19.863,19.659 30.185,29.776c9.87,9.661 20.071,18.175 29.776,28.376c9.172,9.661 23.36,24.633 34.916,29.815c12.295,5.551 24.386,8.636 37.34,11.763c1.522,0.386 2.838,3.412 5.143,4.072c3.987,1.067 9.291,-0.95 13.363,-0.493c6.253,0.74 15.63,4.152 20.441,8.921c-9.462,4.773 -28.376,-11.598 -37.753,-13.899c-3.331,-0.863 -7.322,0.574 -10.733,-0.062c-2.922,-0.58 -3.417,-3.824 -6.746,-4.773c-9.377,-2.508 -17.026,1.564 -26.36,-3.165c-6.334,-3.165 -13.898,-8.803 -20.068,-10.652c-7.526,-2.344 -16.369,-2.628 -23.853,-5.182c-11.556,-3.824 -21.88,-9.087 -31.461,-18.507c-10.074,-9.908 -22.658,-16.039 -34.176,-24.633c-10.24,-7.65 -18.507,-19.616 -25.003,-30.968c-7.239,-12.585 -15.34,-23.731 -18.383,-37.505c-3.293,-15.009 -8.143,-32.244 -13.779,-46.346c-2.179,-5.39 -6.701,-15.916 -7.896,-21.141c-1.11,-4.855 0.115,-9.377 -0.82,-14.064c-0.697,-3.375 -3.209,-3.578 -3.702,-5.755c-3.497,-15.298 -10.529,-30.147 -13.325,-44.624c-2.881,-14.805 -1.973,-33.227 -1.399,-48.568c0.386,-11.432 6.538,-18.629 8.721,-29.446c2.63,-13.325 4.318,-27.679 7.237,-41.25c3.578,-16.86 8.101,-33.268 13.818,-48.445c5.799,-15.383 11.763,-32.817 20.275,-46.431c6.455,-10.363 19.161,-19.493 28.006,-27.432c12.091,-10.814 26.279,-17.434 38.122,-28.786c14.146,-13.533 33.844,-21.838 51.363,-29.035c13.078,-5.348 29.694,-13.942 44.211,-13.818c17.397,0.186 34.835,-0.215 52.27,-0.386c8.721,-0.031 17.439,-0.031 26.118,-0.154c3.824,-0.062 9.581,-1.356 13.325,-0.35c5.385,1.437 6.126,7.36 -17.562,15.256z" /></svg>