<svg xmlns="http://www.w3.org/2000/svg" width="207.478" height="208.11" viewBox="0 0 2074.783 2081.104"><path d="M1678.783 2055c-70-35-166-132-206-208-17-33-55-118-83-190-92-226-154-296-299-335l-44-12 58-58c66-67 61-67 190-5 107 52 171 110 271 252 148 209 262 297 489 377l20 7-20 12c-12 7-61 11-125 11-101-1-146-11-262-59-13-5-4 22 33 105 27 62 49 116 49 121 0 14-12 11-71-18m-1240-98c-82-30-127-65-83-65 8 0 64-48 124-106l109-106 11 39c19 66 24 171 10 198-26 49-100 66-171 40m-197-152c-80-39-187-192-226-322-22-75-21-185 3-238 46-100 166-95 299 14 24 19 42 39 40 44-2 4-56 42-122 83-112 71-117 75-90 81 84 20 106 28 135 52 47 40 89 135 89 203 0 70-19 100-63 100-18 0-47-8-65-17"/><path d="M689.783 1788c0-43-50-197-90-278-49-97-87-154-158-236l-55-63 31-68 30-69-75 34-75 35-55-21c-29-11-63-20-73-20-44 0-13-18 121-69 78-30 205-85 281-123 77-37 151-68 164-68 73 0 207 117 260 227 22 46 28 72 29 128 0 69-1 71-50 135-68 88-160 243-220 372-27 59-53 107-57 108-5 0-8-11-8-24"/><path d="M445.783 1687c-3-9-6-24-6-33 0-34-59-141-99-180l-41-39 58-36 57-36 27 32c15 18 47 71 72 118l45 85-53 53c-43 43-54 49-60 36m1339-62c-31-8-68-47-175-184-135-172-205-231-329-274l-34-11 48-38c38-28 55-36 75-31 67 16 123 56 250 180 74 72 157 146 183 164 43 29 156 85 211 105 18 6 18 8-4 31-50 53-144 77-225 58m-689-495c-17-105-135-268-230-319-25-13-45-27-43-32 5-16 163-127 181-127 67 0 187 107 236 212 29 62 40 148 22 173-10 14-149 135-155 135-2 0-7-19-11-42m245-205c-23-115-137-269-236-318l-44-22c-2-1 25-33 59-70 78-85 180-237 248-371 31-60 64-109 79-119s53-19 91-21l64-4-3 46c-2 25-3 46-2 46 2 0 25-14 53-31 56-34 65-34 147 13 106 60 203 168 237 266l15 42-65 53-66 52 77 3 78 3-5 72c-5 82-35 159-68 177-13 7-72 23-133 37-150 34-292 84-413 147l-102 53z"/></svg>