<svg xmlns="http://www.w3.org/2000/svg" viewBox="0 0 789 832" width="789" height="832"><path d="M788.293,375.897c-0.215,0.239 -0.501,0.475 -0.714,0.714c-0.799,1.394 -1.554,2.893 -2.438,4.287c-2.606,3.823 -6.219,5.966 -10.966,5.753c-2.815,-0.042 -5.63,-0.085 -8.444,-0.239c-3.361,-0.239 -5.041,-1.977 -5.545,-5.299c-0.131,-1.19 -0.166,-2.359 -0.131,-3.491c0.583,-8.778 -0.583,-17.351 -2.269,-25.879c-1.26,-6.43 -2.017,-12.942 -2.563,-19.494c-0.761,-8.658 -1.385,-17.31 -2.184,-25.965c-0.382,-4.538 -1.178,-9.04 -2.899,-13.319c-1.304,-3.192 -2.142,-6.468 -1.892,-9.956c0.085,-2.012 -0.501,-3.907 -1.427,-5.716c-3.907,-7.48 -7.394,-15.165 -10.672,-22.981c-1.047,-2.56 -2.563,-4.955 -4.412,-7.098c-1.131,-1.346 -2.269,-2.727 -3.403,-4.037c-1.849,-2.143 -3.488,-4.453 -4.747,-6.978c-2.731,-5.337 -5.966,-10.338 -9.789,-14.957c-5.377,-6.515 -10.42,-13.319 -15.672,-19.914c-2.184,-2.727 -4.622,-5.337 -7.015,-7.897c-2.017,-2.143 -3.823,-4.406 -5.168,-7.063c-1.974,-3.989 -4.453,-7.693 -7.059,-11.303c-10.502,-14.747 -22.813,-27.645 -37.434,-38.442c-3.53,-2.56 -7.352,-4.584 -11.343,-6.182c-3.278,-1.346 -6.598,-2.607 -9.874,-3.692c-4.999,-1.68 -9.41,-4.24 -13.234,-7.859c-3.907,-3.738 -8.318,-6.897 -13.024,-9.492c-10.335,-5.835 -20.04,-12.604 -29.452,-19.831c-1.302,-0.954 -2.606,-1.977 -3.907,-2.977c-2.689,-2.143 -5.673,-3.692 -8.907,-4.87c-18.108,-6.43 -36.173,-12.942 -54.282,-19.369c-3.867,-1.346 -7.69,-2.776 -11.385,-4.622c-5.084,-2.525 -10.546,-3.788 -16.09,-4.788c-3.698,-0.714 -7.394,-1.346 -11.049,-2.097c-2.06,-0.475 -4.116,-0.954 -6.051,-1.762c-2.815,-1.19 -5.714,-1.514 -8.613,-1.382c-3.655,0.12 -7.311,0.358 -10.924,0.475c-3.152,0.12 -6.302,0.239 -9.496,0.239c-8.907,-0.239 -17.814,-0.714 -26.636,-1.931c-6.26,-0.834 -12.563,-1.762 -18.739,-2.893c-6.302,-1.19 -12.604,-1.595 -18.907,-1.726c-7.394,-0.12 -14.788,-0.042 -22.184,-0.042c-8.276,0 -16.301,1.298 -23.991,4.584c-1.932,0.834 -3.948,1.514 -5.883,2.347c-6.26,2.727 -12.856,4.406 -19.578,5.503c-5.208,0.834 -10.42,1.68 -15.63,2.525c-2.186,0.358 -4.453,0.475 -6.598,0.834c-2.06,0.475 -4.116,0.954 -6.091,1.726c-3.192,1.19 -6.344,2.394 -9.453,3.738c-5.797,2.477 -11.596,5.038 -17.393,7.646c-3.823,1.726 -7.604,3.572 -11.428,5.372c-1.807,0.834 -3.655,1.464 -5.714,1.595c-2.606,0.12 -5.084,0.834 -7.436,2.061c-2.563,1.263 -5.168,2.645 -7.69,4.121c-10.797,6.217 -21.638,12.353 -32.897,17.561c-4.705,2.178 -8.865,5.168 -12.645,8.778c-3.234,3.074 -6.554,6.051 -9.789,9.11c-1.346,1.298 -2.606,2.692 -3.781,4.121c-2.563,3.109 -5.252,6.051 -8.193,8.693c-3.738,3.275 -6.933,6.978 -9.789,11.052c-1.639,2.275 -3.53,4.371 -5.337,6.515c-1.178,1.464 -2.438,2.858 -3.655,4.323c-2.396,2.858 -4.791,5.716 -7.101,8.658c-1.554,2.061 -3.109,4.155 -4.37,6.383c-1.974,3.491 -3.738,7.014 -5.714,10.539c-2.017,3.608 -3.024,7.527 -3.655,11.6c-1.26,7.859 -2.06,15.797 -5.252,23.275c-1.26,2.906 -1.932,6.013 -1.807,9.241c0.131,2.858 -0.548,5.584 -1.681,8.194c-0.965,2.394 -1.974,4.788 -3.234,7.014c-4.035,7.063 -6.765,14.662 -9.243,22.352c-1.595,5.086 -3.445,10.004 -5.127,14.957c-0.714,2.347 -1.346,4.752 -1.849,7.145c-1.26,6.098 -2.353,12.185 -3.571,18.318c-0.043,0.239 -0.085,0.475 -0.131,0.714c-2.228,8.229 -4.412,16.511 -6.723,24.746c-0.668,2.359 -1.514,4.704 -2.731,6.847c-1.764,3.109 -2.815,6.43 -3.53,9.874c-0.297,1.464 -0.548,2.977 -0.965,4.453c-1.012,3.738 -1.471,7.562 -1.471,11.469c-0.043,2.061 -0.501,4.155 -0.761,6.264c-0.251,1.595 -0.583,3.24 -0.583,4.87c0.043,1.68 -0.215,3.24 -0.714,4.835c-0.251,0.834 -0.382,1.811 -0.631,2.692c-0.382,1.514 -0.668,3.024 -1.26,4.371c-1.597,3.441 -2.856,6.978 -3.53,10.67c-0.215,1.464 -0.881,2.645 -1.723,3.776c-0.761,0.954 -1.554,1.68 -2.773,1.977c-1.932,0.475 -3.738,1.464 -5.755,1.548c-0.749,0 -1.681,0.475 -2.186,0.954c-1.639,1.762 -3.738,2.012 -5.797,1.429c-3.867,-0.954 -7.815,-1.595 -11.72,-2.228c-2.521,-0.358 -4.791,-1.19 -6.637,-2.989c-0.417,-0.475 -1.012,-0.595 -1.471,-0.954v-7.063c1.304,-0.834 1.217,-2.143 1.385,-3.406c0.631,-5.503 1.385,-10.968 1.932,-16.427c0.631,-5.584 1.217,-11.218 1.554,-16.804c0.215,-3.692 0.881,-7.229 2.563,-10.504c3.152,-6.182 5.337,-12.73 7.059,-19.41c1.764,-6.598 3.823,-13.066 4.915,-19.789c0.583,-3.692 1.26,-7.395 1.974,-11.087c1.047,-5.418 2.563,-10.67 4.37,-15.88c5.376,-15.377 9.746,-31.09 14.327,-46.718c2.856,-9.575 4.873,-19.494 7.101,-29.325c1.385,-6.051 2.646,-12.141 5.545,-17.687c3.32,-6.217 6.554,-12.477 9.915,-18.653c3.192,-5.753 6.847,-11.218 10.839,-16.387c4.412,-5.669 8.782,-11.303 13.319,-16.847c5.168,-6.383 9.789,-13.15 12.856,-20.881c2.477,-6.348 6.429,-11.635 11.512,-16.134c3.948,-3.491 7.941,-6.978 12.058,-10.29c4.495,-3.608 9.453,-6.468 14.83,-8.574c3.698,-1.514 7.311,-3.192 10.966,-4.788c3.907,-1.645 7.729,-3.359 11.638,-4.87c3.53,-1.382 6.933,-2.893 10.125,-4.87c7.101,-4.371 14.284,-8.574 21.385,-12.9c3.11,-1.931 6.386,-3.322 9.999,-4.121c2.477,-0.595 4.959,-1.464 7.352,-2.394c4.58,-1.762 9.075,-3.776 13.655,-5.503c7.983,-2.977 16.133,-5.669 23.991,-9.075c6.637,-2.942 13.319,-5.753 19.999,-8.527c1.974,-0.834 4.035,-1.382 6.009,-1.977c1.932,-0.595 3.781,-1.19 5.377,-2.477c1.047,-0.954 2.31,-1.645 3.613,-2.143c3.403,-1.346 6.806,-2.645 10.251,-3.608c5.42,-1.595 11.007,-2.477 16.554,-3.24c6.133,-0.834 12.31,-1.811 18.443,-2.394c7.729,-0.714 15.462,-1.073 23.191,-1.68c1.131,-0.044 2.269,-0.358 3.403,-0.595h17.604c1.047,0.239 2.06,0.595 3.066,0.595c6.091,0.475 12.142,0.714 18.233,1.073c3.865,0.239 7.772,0.239 11.638,0.714c8.361,0.834 16.679,2.477 24.873,4.323c13.234,2.977 26.468,6.182 39.995,7.646c9.664,1.073 19.2,3.024 28.653,5.383c7.143,1.846 14.369,3.406 21.217,6.264c1.096,0.475 2.228,0.714 3.361,0.834c7.311,1.394 14.284,3.738 21.049,6.681c2.606,1.19 5.21,2.178 7.815,3.24c9.2,3.657 17.729,8.492 25.922,14.034c4.831,3.322 9.746,6.468 14.619,9.705c3.403,2.31 6.891,4.491 10.167,7.014c9.117,7.014 18.948,12.942 29.114,18.318c4.412,2.394 8.907,4.669 13.359,7.063c7.352,3.954 14.159,8.693 20.417,14.242c10.46,9.457 20.292,19.494 29.829,29.829c8.193,8.778 15.251,18.442 22.056,28.273c3.278,4.704 6.598,9.457 10.502,13.656c4.747,5.086 8.74,10.719 12.099,16.764c0.631,1.19 1.385,2.178 2.017,3.322c1.26,2.275 2.899,4.24 4.917,5.92c1.346,1.073 2.563,2.394 3.738,3.692c7.815,8.574 13.865,18.275 18.275,28.989c1.764,4.24 3.192,8.574 3.823,13.108c0.382,3.155 1.096,6.264 2.689,9.075c3.571,6.182 6.176,12.9 8.654,19.579c1.471,4.074 3.066,8.11 3.278,12.52c0.041,0.595 0.382,1.073 0.583,1.645v35.207c-0.846,0.954 -0.583,2.228 -0.668,3.322c-0.131,2.811 0.041,5.669 -0.215,8.444c-0.881,8.11 -0.297,16.134 0.251,24.24c0.085,0.834 0.417,1.762 0.631,2.692z" /> <path d="M446.232,831.983c-2.017,-0.954 -4.116,-0.714 -6.219,-0.834c-4.244,-0.12 -4.495,-0.475 -4.116,-4.788c0.251,-2.477 0.297,-4.92 0.332,-7.349c0.085,-3.062 -0.041,-6.133 0.166,-9.206c0.631,-8.326 0.297,-16.637 -0.846,-24.915c-0.668,-5.337 -1.932,-10.539 -2.941,-15.88c-0.251,-1.464 -0.668,-2.942 -0.881,-4.491c-0.799,-5.383 -2.646,-10.42 -5.252,-15.167c-8.613,-15.88 -17.814,-31.426 -28.778,-45.836c-9.454,-12.435 -20.924,-22.77 -33.612,-31.844c-8.865,-6.348 -18.193,-11.886 -27.771,-17.141c-8.865,-4.835 -17.772,-9.575 -26.593,-14.452c-2.269,-1.216 -4.453,-2.56 -6.598,-3.954c-1.723,-1.073 -3.024,-2.525 -3.907,-4.406c-0.631,-1.346 -1.554,-2.645 -2.521,-3.776c-1.427,-1.595 -2.521,-3.406 -3.11,-5.418c-1.047,-3.441 -3.11,-6.051 -5.797,-8.241c-3.445,-2.692 -6.386,-5.8 -9.159,-9.241c-1.764,-2.178 -3.571,-4.287 -5.462,-6.43c-6.091,-6.812 -10.546,-14.62 -13.359,-23.316c-2.184,-6.681 -4.116,-13.445 -5.294,-20.378c-0.501,-2.645 -0.799,-5.337 -1.012,-7.979c-0.464,-6.598 -0.881,-13.11 -1.346,-19.703c-0.251,-4.24 0.251,-8.407 0.799,-12.604c1.26,-10.004 2.773,-19.957 4.035,-29.958c1.595,-13.108 5.252,-25.712 9.789,-38.021c1.178,-3.359 3.024,-6.348 5.42,-8.944c3.823,-4.037 7.268,-8.361 10.379,-12.898c5.587,-8.028 12.31,-14.999 19.871,-21.26c10.756,-8.86 21.47,-17.815 32.602,-26.258c12.773,-9.705 23.737,-21.259 33.358,-34.072c5.377,-7.145 10.628,-14.327 15.965,-21.47c1.178,-1.595 2.396,-3.192 3.655,-4.704c1.346,-1.645 2.606,-3.275 2.941,-5.503c0.215,-1.56 1.385,-2.359 2.941,-2.525c0.714,-0.085 1.427,-0.085 2.1,-0.085c2.477,0 4.915,0.085 7.394,0c1.807,0 3.445,0.239 5.041,1.19c1.892,1.073 3.907,2.012 6.009,3.109c0,0.834 -0.085,1.726 0.041,2.477c0.041,0.714 0.131,1.464 0.501,2.012c1.471,2.143 1.385,4.622 1.764,7.182c-3.613,3.359 -5.673,7.693 -7.48,12.141c-0.799,1.931 -2.017,3.738 -3.278,5.418c-5.377,7.145 -9.789,14.872 -13.527,22.981c-1.096,2.477 -2.477,4.788 -3.781,7.145c-3.907,6.978 -9.117,12.773 -15.712,17.268c-3.571,2.441 -7.311,4.752 -10.839,7.145c-4.035,2.727 -8.025,5.372 -11.889,8.194c-4.328,3.155 -7.941,6.978 -10.839,11.434c-1.723,2.607 -3.781,4.788 -6.134,6.765c-2.438,2.012 -4.959,3.907 -7.436,5.92c-4.37,3.526 -8.821,6.978 -13.109,10.635c-2.941,2.477 -5.587,5.337 -7.898,8.492c-2.521,3.441 -4.412,7.182 -5.208,11.434c-0.631,3.441 -1.807,6.765 -3.192,10.004c-1.217,2.692 -2.228,5.418 -3.445,8.11c-4.202,9.492 -6.344,19.535 -8.025,29.746c-0.714,4.538 -1.047,9.11 -0.631,13.696c0.297,3.491 1.047,6.932 1.597,10.373c0.417,2.776 0.93,5.584 1.131,8.361c0.332,3.907 1.26,7.646 2.941,11.172c0.668,1.464 1.471,2.942 2.228,4.371c2.269,4.622 4.747,9.159 6.933,13.823c2.477,5.205 5.462,10.087 9.496,14.285c2.438,2.441 4.284,5.252 5.797,8.326c0.881,1.893 2.184,3.608 3.488,5.252c2.731,3.491 5.587,6.932 8.404,10.373c0.881,1.073 1.723,2.228 2.646,3.322c3.152,3.823 7.059,6.43 11.889,7.646c0.93,0.239 1.807,0.475 2.731,0.714c4.831,1.216 9.285,3.24 13.402,6.051c4.705,3.275 9.496,6.468 14.034,10.004c3.152,2.394 6.009,5.252 8.782,8.11c6.765,6.978 13.359,14.116 20.124,21.132c3.152,3.322 6.469,6.468 9.746,9.658c1.597,1.548 3.234,3.024 4.873,4.584c4.959,4.538 8.99,9.824 12.31,15.672c2.142,3.776 4.495,7.43 6.806,11.135c2.184,3.441 4.116,7.063 5.673,10.886c3.192,7.646 6.429,15.334 9.789,22.939c4.622,10.539 7.858,21.552 9.453,32.98c0.417,2.692 0.714,5.337 0.846,8.063c0.251,9.04 0.332,18.025 -0.297,27.057c-0.332,4.788 -0.668,9.623 -0.965,14.411c-0.085,1.19 -0.251,2.31 -0.382,3.491c-0.382,2.692 -1.514,4.92 -3.823,6.383z" /> <path d="M574.948,742.608c-0.166,5.038 -0.382,10.04 -0.548,15.126c-0.131,3.692 -1.217,7.145 -2.899,10.373c-0.548,0.954 -1.012,1.893 -1.554,2.776c-1.764,2.942 -3.024,6.098 -4.035,9.372c-0.714,2.359 -1.514,4.622 -2.269,6.978c-0.583,1.811 -1.723,2.607 -3.655,2.56c-4.244,-0.085 -8.486,0 -12.645,0c-0.881,0 -1.681,0 -2.521,-0.12c-1.681,-0.358 -2.646,-1.382 -2.773,-3.192c-0.085,-1.346 -0.085,-2.811 0.215,-4.155c1.096,-6.468 1.681,-13.023 2.142,-19.578c0.166,-2.56 0.166,-5.168 0.041,-7.729c-0.583,-8.326 -1.131,-16.595 -1.892,-24.915c-0.668,-7.611 -2.228,-15.04 -5.294,-22.099c-3.738,-8.611 -7.311,-17.268 -10.966,-25.879c-2.521,-6.051 -6.051,-11.338 -10.589,-16.049c-3.066,-3.24 -6.051,-6.55 -8.74,-10.087c-4.999,-6.681 -11.007,-12.184 -17.856,-16.847c-5.377,-3.692 -10.924,-7.313 -16.426,-10.836c-2.563,-1.645 -5.294,-2.977 -7.983,-4.371c-13.359,-6.847 -26.761,-13.613 -40.124,-20.46c-3.488,-1.726 -6.679,-3.954 -9.622,-6.383c-6.051,-4.87 -11.848,-10.004 -17.31,-15.461c-4.663,-4.704 -8.697,-9.824 -12.017,-15.587c-1.639,-2.942 -3.361,-5.883 -5.127,-8.824c-3.53,-5.835 -6.429,-11.931 -9.243,-18.15c-3.53,-7.646 -7.226,-15.251 -11.007,-22.77c-1.892,-3.788 -3.066,-7.611 -2.731,-11.802c0.501,-6.182 0.881,-12.395 1.514,-18.571c0.215,-2.178 0.749,-4.406 1.514,-6.468c3.278,-9.075 6.765,-18.025 11.512,-26.384c2.773,-4.955 5.965,-9.539 9.746,-13.738c1.427,-1.56 2.856,-3.109 4.244,-4.704c4.035,-4.453 7.69,-9.206 10.797,-14.327c5.883,-9.623 12.899,-18.402 20.25,-26.971c16.049,-18.697 31.973,-37.475 47.938,-56.214c2.1,-2.477 4.16,-5.086 6.219,-7.611c1.807,-2.178 4.035,-2.645 6.554,-1.429c0.297,0.12 0.631,0.239 0.93,0.595c2.31,2.097 5.252,2.977 8.108,4.037c0.548,0.239 1.131,0.358 1.639,0.595c3.024,1.346 3.907,4.584 1.974,7.313c-0.548,0.714 -1.302,1.346 -1.892,2.061c-1.096,1.216 -1.131,2.097 -0.251,3.526c0.215,0.358 0.501,0.714 0.799,1.073c1.514,1.762 1.385,3.657 0.501,5.634c-0.297,0.595 -0.668,1.216 -1.096,1.762c-1.807,2.607 -3.488,5.299 -5.42,7.812c-1.639,2.143 -3.403,4.205 -5.294,6.098c-3.823,3.823 -7.729,7.48 -11.681,11.218c-5.041,4.752 -9.578,9.956 -13.57,15.629c-12.017,16.723 -22.266,34.451 -30.881,53.104c-3.698,7.979 -5.587,16.427 -6.469,25.083c-1.012,9.824 -0.548,19.663 -0.251,29.536c0.382,10.968 3.823,21.132 7.394,31.341c1.217,3.526 3.361,6.681 5.797,9.539c1.807,2.012 3.613,4.037 5.587,5.835c6.933,6.348 14.369,12.099 22.855,16.218c4.999,2.441 9.578,5.467 13.78,9.075c4.035,3.441 8.361,6.43 12.856,9.241c4.791,2.977 9.536,5.966 14.201,9.075c6.598,4.287 12.731,9.206 18.318,14.747c5.841,5.753 11.848,11.385 18.193,16.555c4.622,3.776 8.404,8.229 11.385,13.359c4.495,7.693 8.99,15.377 13.487,23.067c3.403,5.966 5.462,12.394 7.015,19.075c1.346,6.051 2.438,12.141 3.698,18.233c1.427,7.098 2.984,14.242 4.284,21.342c0.583,2.989 0.881,6.051 0.965,9.075c0.166,4.584 0.041,9.159 0.041,13.738h0.131z" /> <path d="M215.441,408.306c-2.606,1.931 -5.21,2.811 -8.151,2.811c-2.646,-0.042 -5.337,0.041 -7.983,0.595c-1.385,0.239 -2.856,0.239 -4.202,0.041c-1.892,-0.12 -3.738,-0.475 -5.587,-0.714c-0.799,-0.12 -1.597,-0.358 -2.353,-0.714c-1.304,-0.595 -2.142,-1.464 -2.017,-2.977c0.085,-0.954 0,-1.846 0.085,-2.776c0.583,-6.55 1.217,-13.067 1.764,-19.663c0.166,-1.726 0.501,-3.441 1.26,-5.038c3.11,-6.515 4.705,-13.527 5.966,-20.546c0.965,-5.753 2.228,-11.469 3.948,-17.1c3.991,-12.981 7.983,-25.964 10.293,-39.366c0.548,-3.275 1.723,-6.348 3.152,-9.289c4.116,-8.611 9.117,-16.637 15.251,-23.949c1.096,-1.263 2.06,-2.607 3.066,-3.87c2.353,-2.977 4.412,-6.133 5.755,-9.658c1.554,-4.037 4.116,-7.349 7.352,-10.122c1.681,-1.464 3.361,-2.942 5.084,-4.323c2.352,-1.931 4.959,-3.572 7.729,-4.788c4.959,-2.178 9.915,-4.287 14.83,-6.468c1.385,-0.595 2.731,-1.346 4.035,-2.143c3.823,-2.275 7.562,-4.704 11.385,-6.932c1.427,-0.834 2.899,-1.645 4.453,-2.061c2.606,-0.714 5.127,-1.595 7.604,-2.811c0.043,-0.042 0.166,-0.085 0.297,-0.12c9.915,-3.608 19.578,-7.777 29.283,-11.974c2.563,-1.073 5.168,-2.061 7.648,-3.406c4.16,-2.228 8.821,-2.977 13.445,-3.788c9.622,-1.762 19.285,-2.607 28.989,-3.275c2.563,-0.12 5.168,0 7.729,0.085c3.024,0.085 6.134,0.475 9.117,0.358c7.898,-0.12 15.672,1.073 23.402,2.525c7.015,1.382 14.034,2.607 21.132,3.359c9.117,0.834 18.107,2.525 26.847,5.337c0.668,0.239 1.346,0.358 2.059,0.595c11.638,2.31 22.393,6.765 32.351,13.11c5.42,3.491 10.839,6.932 16.386,10.253c3.948,2.31 8.025,4.406 12.058,6.515c2.396,1.263 4.873,2.347 7.311,3.526c4.328,2.143 8.404,4.669 12.099,7.812c8.318,7.145 16.595,14.451 23.612,23.065c1.723,2.178 3.445,4.453 5.21,6.634c2.1,2.525 4.116,5.086 6.344,7.48c2.438,2.56 4.705,5.299 6.512,8.276c1.302,2.143 2.899,3.907 4.747,5.584c5.923,5.383 10.211,11.886 12.981,19.411c0.251,0.595 0.548,1.346 0.583,2.012c0.548,3.572 2.1,6.634 3.823,9.743c1.427,2.525 2.563,5.287 3.613,7.979c2.773,6.812 2.899,13.906 2.646,21.132c-0.166,3.608 -0.417,7.229 -0.548,10.886c-0.085,4.121 -0.166,8.194 0.668,12.267c0.166,0.834 0.085,1.645 0.251,2.477c0.881,4.752 -2.563,8.909 -7.436,9.755c-2.899,0.475 -5.841,0.714 -8.782,0.834c-2.228,0.12 -2.815,-0.358 -3.53,-2.56c-0.041,-0.085 0,-0.239 -0.085,-0.358c-1.639,-2.893 -2.184,-6.051 -2.438,-9.326c-0.041,-0.834 -0.215,-1.645 -0.417,-2.441c-1.764,-5.337 -3.152,-10.836 -5.337,-16.007c-1.892,-4.453 -3.066,-9.04 -3.655,-13.824c-0.166,-1.514 -0.464,-3.062 -0.881,-4.491c-1.514,-4.669 -3.066,-9.372 -4.831,-13.906c-0.965,-2.525 -2.396,-4.87 -3.867,-7.098c-2.228,-3.406 -4.663,-6.728 -7.143,-10.04c-2.899,-3.954 -6.554,-7.313 -9.999,-10.801c-2.142,-2.178 -4.116,-4.491 -6.176,-6.765c-1.597,-1.68 -3.192,-3.406 -4.747,-5.168c-1.807,-2.012 -3.655,-3.989 -5.294,-6.098c-7.941,-10.087 -16.722,-19.325 -27.35,-26.722c-1.892,-1.298 -3.907,-2.525 -5.923,-3.692c-3.066,-1.762 -6.134,-3.491 -9.117,-5.299c-3.53,-2.178 -6.975,-4.371 -10.797,-5.966c-1.471,-0.595 -2.899,-1.514 -4.244,-2.394c-6.091,-3.989 -12.856,-6.217 -19.956,-7.43c-4.538,-0.714 -9.033,-1.073 -13.613,-1.429c-7.729,-0.595 -15.376,-1.68 -22.813,-3.954c-6.598,-2.061 -13.277,-3.87 -20.04,-5.337c-4.328,-0.954 -8.782,-1.514 -13.192,-1.811c-10.546,-0.714 -21.092,-1.19 -31.636,-0.834c-11.049,0.475 -22.016,1.073 -32.812,3.441c-1.597,0.358 -3.278,0.475 -4.873,0.834c-1.385,0.239 -2.773,0.595 -4.076,1.073c-6.891,2.692 -13.696,5.549 -20.25,8.944c-4.791,2.477 -9.328,5.383 -13.402,8.99c-0.332,0.358 -0.714,0.595 -1.096,0.834c-8.235,5.883 -15.334,13.066 -22.602,20.04c-6.26,6.051 -10.797,13.235 -14.411,21.049c-0.382,0.834 -0.631,1.811 -0.714,2.727c-0.297,3.109 -1.514,5.883 -3.361,8.407c-0.332,0.475 -0.631,0.954 -1.012,1.429c-3.403,4.121 -5.63,8.824 -7.478,13.824c-1.304,3.526 -2.815,6.978 -4.495,10.29c-2.438,4.788 -4.663,9.705 -6.134,14.957c-0.417,1.548 -1.012,3.109 -1.639,4.622c-3.613,8.909 -6.429,18.065 -8.444,27.476c-1.26,5.835 -1.807,11.802 -2.606,17.729c-0.714,5.121 -0.668,10.29 -0.631,15.461v5.086z" /> <path d="M596.228,247.256c0.965,-0.358 1.514,0.475 2.06,0.954c0.965,0.834 1.764,1.893 2.689,2.776c2.731,2.645 5.755,3.954 9.622,2.692c1.639,-0.595 3.402,-0.595 5.168,-0.954c3.278,-0.595 6.26,-1.811 9.243,-3.275c1.178,-0.595 2.1,-1.548 2.646,-2.727c2.563,-6.299 5.755,-12.351 7.015,-19.075c0.382,-2.061 0.631,-4.155 0.297,-6.133c-1.427,-0.714 -2.731,-0.475 -3.991,-0.475c-3.655,0 -7.268,0.085 -10.882,0.12c-3.32,0 -6.512,-0.595 -9.664,-1.762c-1.304,-0.475 -2.646,-0.714 -3.991,-1.19c-1.764,-0.595 -3.655,-1.073 -5.294,-1.762c-1.681,-0.714 -3.32,-1.19 -5.127,-1.19c-4.453,0.085 -8.907,0.12 -13.359,0.085c-1.974,0 -3.948,-0.239 -5.923,-0.475c-2.856,-0.358 -5.587,-0.595 -8.193,0.954c-0.417,0.239 -0.881,0.358 -1.346,0.475c-1.764,0.595 -2.1,0.475 -3.066,-1.19c-0.464,-0.834 -1.012,-1.298 -1.764,-1.595c-1.178,-0.595 -2.396,-0.954 -3.613,-1.429c-1.302,-0.475 -1.974,-1.514 -2.31,-2.858c-0.501,-1.931 -0.131,-3.738 0.714,-5.467c0.382,-0.714 1.217,-1.514 2.017,-1.811c3.488,-1.346 7.101,-2.228 10.966,-1.762c3.613,0.475 7.226,0.595 10.882,0.714c0.297,0 0.631,-0.239 1.096,-0.358c0.041,-1.19 0.085,-2.31 0.131,-3.441c0.131,-3.692 0.881,-7.229 2.773,-10.42c1.217,-2.012 2.689,-3.823 4.58,-5.287c1.807,-1.429 3.613,-2.977 5.208,-4.622c3.823,-3.989 8.318,-6.001 13.78,-5.966c1.807,0 3.53,-0.044 5.294,0.239c2.899,0.239 4.959,1.726 6.133,4.491c1.217,2.811 1.681,5.634 1.304,8.574c-0.041,0.475 -0.297,0.834 -0.464,1.394c-0.501,0.12 -0.93,0.239 -1.385,0.239c-2.184,0.475 -2.184,0.475 -2.31,2.645c-0.085,1.811 -0.382,2.178 -1.974,2.097c-1.892,-0.085 -3.781,-0.239 -5.63,-0.595c-1.764,-0.358 -3.278,-1.073 -3.781,-3.155c-0.382,-1.514 -1.554,-1.846 -2.984,-1.811c-1.681,0.085 -2.941,0.834 -3.867,2.143c-3.192,4.538 -5.462,9.326 -3.867,15.294c3.278,1.645 6.975,2.143 10.714,1.977c3.192,-0.12 6.302,-0.714 9.285,-1.762c2.563,-0.954 5.168,-1.464 7.898,-1.514c3.278,-0.044 6.554,-0.358 9.622,-1.645c0.761,-0.358 1.597,-0.475 2.396,-0.595c1.096,-0.12 2.1,0 3.024,0.595c0.668,0.475 1.346,0.954 2.1,1.263c0.714,0.239 1.554,0.475 2.521,0.714c0.583,2.347 2.438,2.858 4.538,2.811c1.807,0 3.571,0.044 5.294,-0.12c2.31,-0.358 4.412,-0.042 6.386,1.216c0.297,0.239 0.631,0.239 1.012,0.475c0.668,1.382 0.464,2.942 0.382,4.491c-0.131,2.56 0,5.121 1.131,7.515c0.166,0.475 0.131,0.834 0.166,1.429c-2.396,0.239 -4.747,0.358 -7.059,0.714c-2.269,0.475 -4.495,1.073 -6.722,1.595c-0.631,1.263 -0.297,2.441 -0.382,3.608c-0.215,3.989 -0.251,7.979 -0.583,11.931c-0.215,3.526 -1.131,6.932 -2.773,10.122c-1.514,2.942 -3.445,5.549 -6.429,7.264c-1.471,0.834 -2.521,2.061 -3.402,3.441c-1.096,1.762 -2.646,2.977 -4.412,3.907c-2.1,1.073 -4.116,2.228 -6.176,3.359c-2.646,1.514 -5.504,2.012 -8.486,1.726c-2.1,-0.239 -4.16,-0.595 -6.26,-0.954c-2.731,-0.475 -5.504,-0.954 -8.276,-1.464c-0.799,-0.12 -1.597,-0.358 -2.31,-0.714c-1.178,-0.595 -1.807,-1.56 -1.932,-2.776c-0.085,-0.714 -0.085,-1.382 -0.041,-2.097c0.215,-3.738 0.166,-7.515 -0.297,-11.253c0,-0.12 0.166,-0.358 0.251,-0.595z" /> <path d="M204.927,220.153c0.043,-1.514 -0.332,-2.942 -2.1,-3.823c-0.631,-0.239 -1.096,-1.216 -1.346,-1.977c-0.583,-1.68 -1.304,-3.275 -2.438,-4.669c-1.217,-1.595 -1.427,-3.406 -1.012,-5.337c0.297,-1.464 0.583,-2.977 0.799,-4.453c0.332,-2.275 -0.251,-4.24 -1.974,-5.753c-2.1,-1.893 -4.244,-3.657 -6.429,-5.467c-0.846,-0.714 -1.891,-0.834 -2.941,-0.834c-2.477,0.042 -4.959,0.12 -7.394,0.239c-1.514,0.042 -3.066,-0.085 -4.453,-0.714c-2.142,-0.954 -3.361,-2.525 -3.234,-4.955c0.085,-0.954 0.131,-2.097 0.464,-3.109c0.668,-2.477 1.514,-4.87 2.269,-7.349c0.166,-0.475 0.332,-0.954 0.631,-1.216c2.1,-2.061 4.202,-4.074 6.344,-6.098c0.332,-0.358 0.761,-0.475 1.26,-0.714c1.514,1.429 2.563,3.109 3.152,5.038c0.714,2.525 2.31,4.24 4.412,5.669c2.017,1.382 3.991,2.893 5.965,4.323c2.438,1.762 5.208,2.692 8.067,3.441c3.024,0.834 6.051,1.68 9.117,2.525c1.597,0.358 3.234,0.595 4.831,0.954c0.548,0.085 1.178,0.239 1.723,0.358c0.297,0.12 0.548,0.475 0.93,0.714c0,2.228 -2.017,2.942 -3.278,4.287c0.166,1.56 0.631,3.024 1.597,4.205c0.846,1.073 1.096,2.31 1.047,3.608c0,5.086 0.085,10.122 -0.131,15.126c-0.131,4.538 -1.639,8.778 -3.948,12.646c-3.361,5.503 -7.015,10.836 -12.017,15.04c-1.639,1.429 -2.731,3.155 -3.781,5.038c-1.554,2.858 -3.32,5.669 -4.959,8.492c-1.849,3.109 -3.781,6.182 -5.462,9.372c-1.131,2.143 -2.477,3.989 -4.37,5.418c-0.846,0.714 -1.681,1.298 -2.521,1.931c-2.269,1.762 -4.284,3.657 -5.965,5.966c-0.668,0.954 -1.471,1.811 -2.396,2.525c-1.304,0.954 -2.689,0.834 -3.823,-0.239c-1.26,-1.382 -2.689,-2.56 -4.328,-3.526c-0.297,-0.239 -0.583,-0.475 -0.799,-0.714c-2.228,-2.906 -5.252,-5.001 -8.067,-7.313c-0.166,-0.12 -0.332,-0.239 -0.501,-0.475c-3.278,-3.608 -6.723,-7.182 -9.874,-10.968c-1.131,-1.382 -1.807,-3.24 -2.646,-4.92c-0.631,-1.263 -1.096,-2.607 -1.807,-3.823c-1.178,-2.012 -3.11,-2.776 -5.377,-2.441c-1.471,0.239 -2.941,0.834 -4.37,1.216c-1.385,0.358 -2.731,0.834 -4.116,0.834c-2.184,0.12 -3.32,-1.346 -2.606,-3.406c0.881,-2.776 1.514,-5.634 3.781,-7.812c0.548,-0.595 0.714,-1.68 0.93,-2.56c0.417,-1.514 0.382,-1.548 1.514,-2.977c1.639,0.12 3.234,0.12 4.831,0.475c1.217,0.239 2.521,0.595 3.655,1.073c2.352,1.073 4.663,2.178 7.015,3.275c2.352,1.073 4.495,2.477 6.429,4.24c2.731,2.56 5.504,5.121 8.821,6.932c1.597,0.834 2.731,2.228 3.488,3.87c1.514,3.24 4.035,5.001 7.394,5.883c1.427,0.475 2.815,1.216 4.158,1.931c3.907,2.178 6.176,0.239 6.554,-3.572c0.215,-1.595 -0.043,-3.24 -0.043,-4.87c0,-1.429 0,-2.776 0,-4.287c3.234,-1.073 4.791,-3.491 6.051,-6.182c2.184,-4.955 5.337,-9.372 8.235,-13.906c1.346,-2.143 3.278,-3.954 5.041,-6.001z" /> <path d="M287.632,111.805c-0.965,1.19 -1.764,2.097 -2.646,3.074c-1.178,1.346 -2.646,2.178 -4.37,2.776c-5.462,1.811 -10.839,3.788 -16.258,5.716c-0.846,0.358 -1.723,0.714 -2.521,1.216c-1.807,1.073 -3.571,2.178 -5.714,2.525c-2.606,0.475 -3.907,3.823 -2.142,6.133c0.714,0.954 1.514,1.762 2.353,2.607c1.385,1.298 2.438,2.776 3.278,4.538c0.668,1.298 1.471,2.645 2.477,3.776c2.186,2.477 4.035,5.121 5.504,8.11c0.464,0.954 1.047,1.846 1.514,2.776c1.764,3.275 4.284,5.835 7.604,7.611c0.417,0.239 0.846,0.475 1.217,0.714c2.521,1.263 3.907,3.406 4.202,6.098c0.417,3.608 0.583,7.264 0.668,10.836c0.085,2.263 -0.93,3.526 -3.11,4.155c-2.142,0.595 -4.328,0.954 -6.512,1.394c-0.799,0.239 -1.595,0.358 -2.396,0.475c-2.396,0.475 -4.453,1.298 -5.923,3.322c-1.595,-0.595 -2.689,-1.68 -3.613,-2.893c-2.31,-3.074 -4.663,-6.182 -6.765,-9.372c-1.849,-2.776 -2.899,-5.883 -3.278,-9.241c-0.131,-1.464 -0.417,-2.989 -0.799,-4.453c-0.965,-3.608 -2.815,-6.716 -5.797,-9.04c-5.208,-4.037 -8.613,-9.492 -12.099,-14.957c-1.429,-2.228 -1.932,-4.704 -1.764,-7.395c0.251,-3.692 1.217,-7.145 2.815,-10.42c1.26,-2.525 3.11,-4.406 5.714,-5.549c1.012,-0.475 2.1,-0.954 3.192,-1.464c2.477,-1.073 4.747,-2.477 6.933,-4.121c1.471,-1.073 3.024,-2.178 4.622,-3.109c0.846,-0.475 0.799,-1.298 1.346,-1.931c0.548,-0.085 1.131,-0.12 1.681,-0.12c1.974,-0.042 3.613,-0.714 5.084,-2.097c2.477,-2.178 5.127,-4.074 8.235,-5.252c1.131,-0.475 1.974,-1.346 2.31,-2.525c0.714,-2.178 2.1,-3.907 3.948,-5.299c1.807,-1.394 3.066,-3.155 3.53,-5.467c0,-0.239 0.043,-0.475 0.131,-0.714c0.846,-2.525 1.554,-2.811 4.158,-2.012c1.012,0.239 2.06,0.358 3.066,0.595c1.26,0.358 2.521,0.714 3.698,1.19c1.385,0.595 2.396,1.595 2.689,3.024c0.846,4.287 3.781,7.182 6.554,10.253c0.215,0.239 0.417,0.475 0.761,0.714c2.31,1.931 1.932,2.977 -0.382,4.622c-2.142,1.464 -4.58,2.31 -7.059,2.977c-1.514,0.475 -2.984,0.714 -4.412,1.216c-2.06,0.714 -2.396,1.298 -2.1,3.359c0.043,0.475 0.215,0.954 0.382,1.645z" /> <path d="M77.574,331.837c0.749,1.19 1.096,1.68 1.723,2.525c0.846,-3.657 1.932,-6.978 2.352,-10.42c0.166,-1.073 0.382,-2.097 0.631,-3.109c0.548,-2.178 1.892,-3.692 3.948,-4.669c5.841,-2.811 11.303,-6.182 16.722,-9.705c1.681,-1.073 3.403,-2.097 5.168,-2.977c2.477,-1.298 5.168,-2.143 8.067,-2.31c3.32,-0.12 6.469,-0.834 9.536,-2.143c1.932,-0.834 3.991,-1.216 6.176,-0.954c2.1,0.239 4.202,0.12 6.302,-0.239c1.471,-0.358 2.731,-0.044 3.948,0.954c2.186,1.762 4.791,2.893 7.311,4.121c1.974,0.954 3.948,2.012 5.883,3.109c3.066,1.811 4.37,4.538 3.907,8.028c-0.215,1.514 -0.501,3.024 -0.93,4.453c-0.501,1.726 -0.631,3.192 0.93,4.453c1.26,1.073 1.26,2.394 0.668,3.823c-0.548,1.429 -0.965,2.858 -0.93,4.453c0.043,1.216 -1.096,2.097 -2.142,1.56c-3.698,-1.726 -7.604,-1.073 -11.428,-0.954c-1.385,0.041 -2.815,0 -4.202,-0.085c-0.464,0 -0.93,-0.239 -1.217,-0.239c-0.965,-1.19 -0.631,-2.359 -0.761,-3.491c-0.297,-2.394 -0.881,-4.584 -2.521,-6.43c-1.26,-1.464 -2.773,-2.441 -4.538,-3.155c-9.999,-4.037 -22.855,0.714 -28.275,9.289c-1.514,2.359 -3.234,4.584 -4.999,6.765c-3.024,3.657 -4.831,7.729 -4.915,12.52c0,2.097 -0.166,4.205 -0.332,6.299c-0.085,1.346 0.382,2.178 1.554,2.858c4.873,3.109 10.251,4.406 16.008,4.491c0.965,0 1.892,-0.041 2.856,0c4.663,0.239 6.889,4.371 4.622,8.527c-1.385,2.525 -3.278,4.538 -5.883,5.92c-2.731,1.464 -2.689,1.514 -4.116,4.074c-1.385,0.595 -2.899,0.475 -4.412,0.239c-2.773,-0.475 -5.545,-0.834 -8.361,-1.263c-1.012,-0.239 -2.06,-0.475 -3.066,-0.834c-2.773,-0.834 -5.545,-1.762 -8.361,-2.692c-0.548,-0.12 -1.096,-0.358 -1.639,-0.595c-1.974,-0.714 -3.361,-2.178 -3.655,-4.323c-0.215,-1.726 -0.846,-3.062 -2.31,-4.155c-1.764,-1.298 -2.06,-3.359 -2.06,-5.337c0.043,-3.87 0.332,-7.777 0.548,-11.635c0.043,-0.834 0.297,-1.846 0.631,-2.692c1.047,-2.692 1.304,-5.418 0.93,-8.276c-0.166,-1.19 -0.085,-2.347 0,-3.526c0.043,-0.595 0.297,-1.073 0.631,-2.061z" /> <path d="M514.211,116.992c2.059,-0.595 3.066,-2.228 3.698,-4.24c0.417,-1.346 0.761,-2.727 1.385,-3.954c1.047,-2.228 2.563,-2.811 4.915,-2.178c2.563,0.714 4.747,1.977 6.219,4.287c1.472,2.31 3.32,4.287 5.208,6.182c1.012,0.954 1.892,2.061 2.731,3.192c1.047,1.346 2.142,2.477 4.076,2.359c0.215,0 0.464,0.085 0.668,0.12c1.096,0.358 1.723,1.216 1.554,2.441c-0.085,0.834 -0.297,1.595 -0.631,2.359c-0.668,1.595 -1.554,3.155 -2.353,4.704c-1.047,2.097 -2.269,4.121 -3.192,6.264c-1.012,2.228 -2.477,3.572 -4.999,3.776c-1.26,0.085 -2.521,0.475 -3.823,0.595c-1.892,0.12 -3.361,1.073 -4.328,2.645c-0.965,1.726 -1.932,3.491 -2.689,5.337c-0.382,0.954 -0.417,2.012 -0.464,3.074c-0.085,1.514 0.631,2.727 1.974,3.441c0.631,0.358 1.26,0.595 1.892,0.954c1.047,0.595 1.681,1.645 1.764,2.858c0.297,3.692 -0.041,7.264 -1.427,10.755c-0.714,1.811 -1.807,3.24 -3.781,3.87c-1.723,0.475 -2.773,1.645 -3.445,3.275c-1.681,4.121 -4.202,7.812 -6.847,11.434c-1.302,1.811 -2.563,3.657 -3.823,5.467c-0.332,0.475 -0.668,0.954 -1.096,1.382c-0.799,0.834 -1.974,0.954 -2.856,0.12c-1.012,-0.954 -1.891,-2.061 -2.815,-3.155c-0.93,-0.954 -1.723,-2.228 -2.731,-3.192c-1.681,-1.514 -3.699,-2.394 -6.009,-2.692c-3.152,-0.358 -5.041,-1.977 -5.294,-5.92c-0.417,-6.217 -0.297,-12.394 2.1,-18.318c1.723,-4.287 3.698,-8.396 6.386,-12.099c0.749,-1.073 1.471,-2.178 2.228,-3.144c5.208,-6.348 8.95,-13.488 11.681,-21.132c1.26,-3.526 2.646,-7.014 4.116,-10.921z" /> <path d="M388.37,109.923c0.799,0.12 1.471,0.358 2.184,0.475c7.226,0.595 14.494,1.19 21.763,0.12c2.396,-0.358 4.831,-0.834 7.184,-1.514c1.427,-0.358 2.731,-1.263 4.116,-1.931c0.501,-0.239 0.965,-0.475 1.217,-0.595c2.396,0.834 4.495,1.548 6.554,2.178c2.899,0.834 4.622,2.727 4.747,5.8c0.131,2.012 0.215,3.989 0.215,5.966c0.041,0.714 -0.085,1.429 -0.297,2.097c-0.464,1.298 -1.346,2.178 -2.856,2.263c-1.131,0.042 -2.31,0.085 -3.488,0.042c-3.403,-0.12 -6.722,-0.042 -9.915,1.645c-0.881,0.475 -2.06,0.475 -3.11,0.475c-2.815,-0.239 -4.622,1.073 -5.841,3.526c-1.892,3.608 -3.53,4.037 -7.143,2.441c-2.142,-0.954 -4.412,-1.56 -6.679,-2.097c-3.655,-0.834 -7.226,-2.061 -10.882,-3.109c-0.846,0.358 -0.965,1.216 -1.096,1.977c-0.251,1.846 -0.548,3.738 -0.631,5.584c-0.085,2.477 -0.668,4.87 -1.346,7.229c-2.228,7.229 -4.37,14.537 -6.554,21.847c-0.041,0.085 -0.131,0.12 -0.332,0.358c-1.849,-1.073 -3.781,-2.228 -5.63,-3.406c-1.807,-1.19 -3.613,-2.097 -5.63,-2.858c-3.11,-1.073 -3.571,-1.893 -3.403,-5.205c0.085,-1.382 0.297,-2.811 0.464,-4.205c0.215,-2.56 0.668,-5.121 0.583,-7.693c-0.166,-6.932 0.761,-13.738 2.438,-20.502c1.427,-5.669 2.606,-11.434 3.613,-17.183c0.464,-2.727 0.464,-5.634 0.464,-8.407c0.085,-4.453 0.041,-4.453 2.31,-8.527c0.965,-1.726 1.681,-3.572 2.646,-5.287c0.583,-1.19 1.302,-2.275 2.184,-3.155c1.131,-1.19 2.396,-2.263 3.11,-3.738c0.215,-0.239 0.464,-0.595 0.714,-0.714c1.047,-0.954 2.689,-0.834 3.32,0.475c0.464,0.954 0.799,1.977 1.012,2.989c0.548,3.155 0.417,6.299 0.297,9.457c-0.166,3.526 -0.297,7.014 -0.251,10.539c0.041,4.538 1.178,8.824 3.948,12.814z" /> <path d="M642.547,328.552c0.382,-9.743 3.445,-17.896 9.454,-24.914c1.597,-1.846 3.402,-3.608 5.252,-5.217c1.723,-1.548 3.066,-3.526 5.252,-4.538c0.297,-0.12 0.501,-0.595 0.631,-0.834c1.427,-2.31 3.402,-4.205 5.42,-6.013c0.583,-0.475 1.26,-1.073 1.639,-1.726c1.681,-2.645 4.412,-4.24 6.386,-6.55c0.583,-0.595 1.554,-1.073 2.438,-1.263c2.31,-0.595 4.035,0.358 4.495,2.692c0.93,4.538 1.131,8.944 -2.184,12.981c-3.192,3.907 -6.847,7.063 -11.428,9.075c-1.849,0.834 -3.11,1.893 -3.655,3.858c-0.251,0.834 -0.846,1.68 -1.304,2.525c-1.514,2.477 -1.892,5.205 -1.639,8.063c0.041,0.358 0.131,0.714 0.131,1.073c0.881,4.87 1.304,9.743 0.965,14.705c-0.085,0.595 0,1.19 0,1.726c0,2.347 0.846,4.371 2.31,6.133c1.427,1.726 2.815,3.406 4.076,5.299c2.563,4.121 5.965,3.823 9.2,1.298c1.012,-0.834 1.932,-1.68 2.899,-2.56c3.024,-2.645 6.512,-2.942 10.211,-1.762c1.639,0.595 3.152,1.548 4.622,2.441c1.26,0.834 1.554,1.548 0.846,3.024c-1.217,2.645 -2.521,5.252 -3.991,7.777c-0.93,1.632 -1.891,3.192 -2.142,5.121c-0.417,2.477 -1.849,4.24 -3.823,5.669c-2.731,1.977 -5.714,3.24 -9.075,3.572c-2.353,0.239 -4.58,0.834 -6.637,2.097c-2.1,1.298 -4.16,1.263 -6.344,0.358c-2.477,-1.073 -4.999,-2.061 -7.521,-3.074c-2.438,-0.954 -4.495,-2.525 -6.134,-4.538c-1.639,-1.977 -3.192,-4.037 -4.747,-6.098c-1.096,-1.429 -1.932,-3.024 -1.932,-4.835c-0.297,-6.932 -2.06,-13.613 -3.11,-20.46c-0.251,-1.846 -0.382,-3.692 -0.548,-5.086z" /> <path d="M129.022,191.222c-0.464,-2.893 -0.799,-5.669 -1.304,-8.444c-0.464,-2.811 0.251,-5.383 1.429,-7.812c0.417,-0.954 1.047,-1.811 2.184,-2.394c1.639,0.834 3.278,1.595 4.915,2.441c2.06,0.954 4.16,1.645 6.429,1.595c1.554,-0.042 3.024,0.475 4.37,1.263c2.984,1.811 6.009,3.608 8.95,5.503c1.892,1.216 3.403,2.858 4.538,4.835c1.096,1.811 2.228,3.572 4.284,4.453c0.417,0.239 0.93,0.834 1.012,1.298c0.297,1.68 1.554,2.31 2.856,2.858c1.047,0.475 2.228,0.714 3.32,1.073c1.514,0.475 2.731,1.263 3.655,2.607c0.761,1.19 1.681,2.178 2.646,3.275c1.554,1.811 2.477,3.907 2.815,6.299c0.215,1.645 -0.215,2.858 -1.554,3.989c-2.228,1.846 -4.37,3.87 -6.344,6.013c-1.047,1.073 -1.723,2.477 -2.563,3.776c-0.714,1.073 -1.304,2.228 -2.142,3.192c-1.131,1.382 -2.606,1.811 -4.412,1.216c-2.31,-0.834 -3.823,-2.178 -4.412,-4.584c-0.215,-0.954 -0.417,-2.061 -0.548,-3.109c-0.085,-0.954 -0.043,-1.846 -0.085,-2.811c-0.215,-6.468 -3.11,-11.469 -8.486,-14.957c-3.11,-2.097 -6.386,-3.858 -9.705,-5.634c-3.024,-1.595 -6.091,-2.977 -9.159,-4.491c-0.93,-0.475 -1.849,-0.954 -2.689,-1.429z" /> <path d="M290.849,130.902c-0.131,-0.239 -0.166,-0.475 -0.297,-0.595c-1.471,-2.097 -1.471,-2.097 0.583,-3.608c0.714,-0.475 1.217,-1.346 1.639,-2.143c0.631,-1.263 1.429,-2.012 2.942,-2.097c1.681,-0.12 3.024,-0.834 3.613,-2.727c0.714,-2.097 2.563,-3.024 4.622,-3.322c2.563,-0.239 5.168,-0.239 7.729,-0.358c1.385,-0.044 2.438,0.595 2.984,1.977c0.251,0.595 0.501,1.073 0.668,1.595c0.548,1.595 1.217,3.024 2.353,4.287c1.471,1.645 1.385,3.406 0.332,5.168c-0.548,0.954 -1.178,1.762 -1.723,2.645c-2.269,3.406 -2.646,6.932 -0.668,10.589c2.06,3.738 1.096,7.264 -0.846,10.624c-0.881,1.56 -2.31,2.394 -4.035,2.441c-1.178,0.042 -2.352,0 -3.488,-0.12c-1.26,-0.12 -2.228,-0.714 -3.024,-1.645c-1.471,-1.811 -3.066,-3.526 -4.37,-5.467c-0.965,-1.429 -1.554,-3.155 -2.228,-4.752c-0.631,-1.464 -1.514,-2.692 -3.11,-3.144c-1.26,-0.358 -2.353,-0.954 -3.066,-2.143c-0.799,-1.346 -1.096,-2.858 -1.012,-4.406c0.042,-0.954 0.215,-1.811 0.382,-2.727z" /> <path d="M688.794,330.118c-0.668,0.12 -1.427,0.475 -2.142,0.595c-0.881,0.12 -1.597,-0.595 -1.764,-1.382c-0.085,-0.475 -0.085,-0.954 -0.085,-1.382c0.131,-3.823 -0.714,-7.48 -1.554,-11.087c-0.382,-1.726 -0.668,-3.491 -0.631,-5.205c0.041,-2.727 1.26,-3.907 3.948,-3.776c3.234,0.12 6.302,-0.475 9.243,-1.68c3.361,-1.429 6.847,-1.548 10.379,-1.811c3.066,-0.239 5.965,-0.954 8.782,-2.178c1.723,-0.714 3.571,-1.073 5.294,-1.762c1.304,-0.475 2.563,-1.19 3.781,-1.811c1.639,-0.834 2.731,-0.714 3.613,0.714c1.012,1.726 2.1,3.322 3.361,4.92c1.346,1.726 1.304,4.205 1.427,6.383c0.041,0.475 -0.464,1.19 -0.93,1.346c-1.131,0.475 -2.396,0.954 -3.655,1.19c-0.749,0.239 -1.597,0.12 -2.438,0.12c-2.353,-0.12 -4.37,0.714 -6.176,2.061c-0.881,0.595 -1.639,1.382 -2.563,1.846c-1.385,0.714 -2.815,1.298 -4.244,1.595c-4.284,0.714 -8.572,1.346 -12.941,0.834c-2.856,-0.358 -4.959,0.834 -6.891,2.727c-2.689,2.727 -3.192,3.572 -3.823,7.812z" /> <path d="M470.696,137.749c0.548,-1.073 0.93,-2.263 1.723,-3.062c1.346,-1.346 1.346,-2.858 1.304,-4.538c-0.041,-0.475 -0.041,-0.954 -0.085,-1.429c-0.251,-2.56 0.714,-4.538 2.899,-5.966c1.639,-1.073 3.234,-2.31 3.907,-4.323c0.131,-0.239 0.382,-0.595 0.668,-0.834c2.06,-1.298 2.773,-3.359 3.571,-5.467c0.583,-1.514 1.427,-2.977 2.353,-4.24c1.723,-2.394 3.823,-4.453 6.176,-6.217c0.749,-0.475 1.597,-0.954 2.563,-1.476c0.297,0.595 0.583,0.834 0.631,1.298c0.799,3.989 1.554,8.028 2.269,12.058c0.215,1.19 0.131,2.31 0.041,3.526c-0.131,1.931 -0.93,3.572 -2.353,4.92c-0.548,0.475 -1.047,0.954 -1.597,1.429c-2.731,2.143 -4.116,5.001 -4.412,8.444c-0.131,1.977 -0.417,3.989 -0.332,5.966c0.085,2.525 -1.096,3.907 -3.234,4.835c-3.655,1.595 -7.478,2.012 -11.385,1.514c-2.1,-0.239 -3.655,-1.429 -3.991,-3.738c-0.131,-0.834 -0.417,-1.595 -0.714,-2.727z" /> <path d="M713.343,333.636c4.035,-1.19 8.151,-0.954 12.227,0.475c0.041,0.475 0.251,1.073 0.251,1.595c0.251,7.777 0.251,15.461 -1.427,23.108c-0.501,2.263 -0.501,4.622 -0.714,6.978c-0.041,0.475 -0.131,0.834 -0.215,1.429c-1.385,0.475 -2.606,-0.239 -3.738,-0.595c-2.142,-0.595 -4.116,-0.475 -6.134,0.595c-0.799,0.475 -1.681,0.714 -2.606,0.954c-0.332,0.085 -0.668,-0.085 -1.131,-0.12c-0.799,-1.548 -0.382,-3.192 -0.215,-4.752c0.251,-2.56 0.631,-5.121 0.93,-7.693c0.251,-2.441 0.583,-4.87 0.714,-7.313c0.215,-2.692 0.332,-5.383 0.297,-8.063c-0.041,-2.263 0.131,-4.453 1.764,-6.55z" /> <path d="M412.272,89.338c0.251,-1.382 0.382,-2.263 0.668,-3.155c0.251,-0.834 0.714,-1.726 1.096,-2.56c1.681,-3.526 1.723,-3.692 0.631,-7.349c0.501,-1.19 1.302,-2.097 2.689,-1.632c3.361,1.19 6.722,0.475 10.083,0.475c1.764,0 3.488,-0.042 5.252,0.12c2.856,0.358 4.116,1.68 4.58,4.491c0.131,1.073 0.251,2.097 0.085,3.155c-0.332,2.776 -0.881,5.549 -1.385,8.276c-0.166,0.834 -0.417,1.595 -0.799,2.31c-0.548,1.073 -1.554,1.382 -2.646,1.073c-0.251,-0.042 -0.501,-0.085 -0.668,-0.239c-3.488,-2.359 -7.69,-2.645 -11.428,-4.287c-1.346,-0.595 -2.984,-0.595 -4.495,-0.714c-1.012,-0.12 -2.06,-0.042 -3.655,-0.042z" /> <path d="M140.723,358.884c-0.166,-0.954 -0.297,-1.762 -0.464,-2.692c1.764,0.475 3.32,0.834 4.873,1.216c0.464,0.085 1.012,0.239 1.26,0.595c1.047,1.263 2.352,1.726 3.948,1.893c1.974,0.12 3.152,1.464 3.738,3.275c1.681,4.87 -2.438,11.469 -6.765,11.6c-2.773,0.085 -5.587,0.595 -8.361,0.239c-4.873,-0.358 -6.765,-3.359 -5.208,-8.028c1.012,-3.155 3.066,-5.467 5.755,-7.313c0.382,-0.239 0.761,-0.475 1.217,-0.834z" /></svg>