<svg xmlns="http://www.w3.org/2000/svg" width="713.063" height="893.424" viewBox="0 0 7130.627 8934.236"><path d="M4212.361 8928.304c-82-27-163-74-185-107-8-13-24-64-34-113-11-49-37-127-59-174-72-157-84-215-103-505-8-122-17-193-34-252-24-83-65-312-86-486-19-159-7-333 37-532 33-149 37-187 38-310 1-147-6-189-52-300-13-33-25-61-26-62s-19 2-40 8c-54 15-113-2-216-61-47-26-152-76-235-109-82-34-175-73-205-86-55-24-55-24-58-4-8 48 22 159 70 261 55 120 64 177 34 223-10 15-30 31-44 36-17 6-34 26-47 52-15 31-34 50-75 74-80 47-94 52-173 64-105 16-220 46-285 75-78 36-108 45-172 52l-55 7-17 52c-35 110-42 195-28 336 12 117 12 145-3 247-9 63-33 183-52 265-20 83-40 176-46 207-10 59-1 177 21 273 6 28 15 85 20 129 10 84 23 110 50 101 26-8 55 71 46 123-4 28 2 64 20 123 14 46 28 113 31 149 5 57 3 68-18 94-49 62-238 123-350 113-32-3-75-13-96-24-44-21-87-80-102-139l-11-42-42 15c-32 11-55 12-106 4-77-12-101-27-141-85-55-80-61-166-21-301 10-33 23-84 29-114 7-34 22-66 40-87 16-18 39-59 51-91 22-57 22-60 6-153-8-52-45-198-81-325-36-126-73-266-82-310-19-90-23-281-9-416 5-48 6-107 2-132l-7-45-57-6c-31-4-82-18-112-32-39-19-82-29-145-35-49-4-117-17-150-29s-85-26-115-31c-31-6-98-34-155-64-55-29-130-65-166-80-80-31-142-82-171-138-28-55-27-144 4-267 20-81 23-116 20-239-1-80-4-146-5-148-2-1-36-6-77-9-68-7-76-10-115-48-59-57-80-124-60-198 7-29 23-74 34-100s32-93 46-150c18-69 48-145 91-230 35-69 81-177 103-240 63-185 87-235 159-336 70-99 236-361 266-420 9-17 37-92 63-165 76-221 130-304 231-363 26-15 55-35 64-45 28-28 121-42 243-36 109 5 110 5 129-21l19-25-29-27c-44-39-74-85-104-159-20-50-32-67-51-71-31-8-72-69-100-152l-23-67-15 31c-23 47-117 116-190 138-106 33-170 20-93-19 21-11 43-31 50-46 13-28 16-113 5-166-6-34-64-97-157-173-59-48-85-102-86-177 0-130 90-276 203-325 23-10 43-18 44-19 2-1-2-15-9-31-14-39 12-98 54-120 26-13 32-14 51-1s25 12 49-6c34-26 75-17 84 19 6 24 7 24 65-31 81-77 131-98 250-103 69-3 112 0 151 12 50 14 61 14 129 0 124-26 234-4 349 71 36 23 79 57 95 74l30 32 5-28c4-23 11-29 38-31 21-2 41 3 52 13 15 14 18 14 30 0 19-22 55-18 89 11 33 27 51 85 33 107-8 10 1 17 39 30 124 44 229 186 231 312 1 86-24 136-115 224-86 83-101 114-100 208 1 75 25 123 69 138 52 17 43 30-22 33-115 5-262-75-281-155-9-37-10-36-17 37-8 79-23 115-54 124-14 5-21 20-25 58-12 98-92 215-196 283-48 32-45 47 8 39 48-8 349 88 358 114 4 9 18 33 33 52 58 74 86 162 120 370 11 69 27 145 35 170 15 43 109 268 117 275 1 2 4-40 4-93 1-115 37-299 89-454 19-59 35-119 35-135 0-15 20-84 44-153 97-274 155-431 205-553l52-129-49-52c-27-29-57-67-66-84l-17-32 37-38c45-46 63-82 104-207 43-132 69-181 122-232 49-47 155-117 204-135 19-7 34-15 34-19 0-3-14-24-31-45-54-67-78-127-88-216-5-46-19-119-30-163-23-87-26-124-11-174 6-23 5-66-6-142-15-104-14-112 5-182 12-40 21-89 21-108 0-67 30-141 183-457 16-33 199-224 230-241 14-7 31-27 38-42 23-57 131-128 246-162 44-13 80-14 215-7 167 8 224 21 277 62 14 10 43 27 65 37 53 23 103 66 123 105 9 17 38 53 65 80 29 29 64 80 85 125 21 42 52 94 69 116 37 46 64 97 64 119 0 8 13 30 29 48 15 18 54 83 85 145 59 115 122 196 179 232 18 11 72 31 120 44 99 28 124 46 169 125 26 46 34 53 54 48 22-6 24-3 24 28 0 44 13 79 40 106 21 21 74 27 85 10 3-6 12-10 20-10 16 0 23 29 33 135 5 46 11 70 20 70 16 0 16 3 2 55-19 66-17 178 3 217 21 40 32 46 74 45 44-2 42 12-8 58-90 82-290 180-369 180q-30 0-30 15c0 22 37 55 60 55 26 0 25 21-2 48-30 27-71 43-135 51l-53 6 30 45c35 53 37 68 10 78-18 7-14 17 54 130 82 137 113 174 201 237 79 56 143 88 246 120 86 28 390 155 491 206 48 24 73 29 165 35 100 5 113 4 175-20 44-16 92-27 136-28 97-4 125 17 197 149 57 106 62 127 44 202-7 33-23 57-60 93-27 26-58 48-69 48-23 0-54-31-70-70-19-47-57-53-145-25-92 30-149 31-240 4-83-24-190-45-495-94-124-20-268-45-321-55-112-23-274-90-369-154-77-51-189-163-267-268-31-40-57-75-59-77s-12 3-21 11c-13 11-25 13-40 7-26-10-38-30-63-113-18-58-59-127-60-100-1 33 54 214 93 311 81 197 161 345 232 428 100 118 120 170 91 240-9 21-15 39-14 40 2 0 48 34 103 75 134 99 262 224 476 466 98 111 278 298 399 415 253 244 323 323 345 390 26 78 10 118-89 214-46 44-109 113-141 153-67 87-126 127-208 144-44 9-70 23-109 56-199 169-431 246-599 196-70-21-169-71-252-128-37-25-76-46-86-46-64 0-331 194-331 242 0 39-31 141-86 281-48 122-55 147-49 187 9 65-18 246-61 411-36 141-85 285-198 583-63 166-82 265-72 383 10 113 30 163 121 297 46 69 89 143 94 163 15 52 13 137-3 206l-14 58 30 31c64 68 112 183 101 241-7 38-48 74-125 113-104 52-220 76-278 58m-3940-3543c-7-31-13-60-15-66-4-16-26 48-27 79-1 19 7 36 23 49 31 25 35 11 19-62m233-351c108-141 223-275 333-390 74-78 92-102 97-135 4-22 32-89 62-149 48-96 53-112 41-125-28-31-28-68-3-168 14-54 28-127 32-163l6-65-94 157c-98 162-143 226-257 363-37 44-72 95-78 114-16 46-57 111-146 230-80 107-125 194-146 276-13 51-22 248-13 271 3 9 21-11 45-49 22-34 77-109 121-167m1988-278c-27-83-53-173-57-199-4-27-27-88-51-137-24-48-65-138-90-200-25-61-46-112-47-113s-1 44-1 101c0 77-4 108-16 126-15 22-14 30 13 114 15 50 30 111 32 135 4 40 14 55 95 145 50 56 107 124 128 153 21 28 39 46 41 39 1-7-20-80-47-164m779-627c52-42 134-103 183-136 80-55 103-79 77-79-5 0-28-17-51-37-91-82-91-134 2-318 63-126 63-126 67-226 4-89-11-269-25-306-10-26-23-11-77 90-48 90-86 171-199 432-85 195-160 425-188 575-16 85-36 175-44 199-8 25-15 47-15 49 0 3 39-34 88-81 48-48 130-121 182-162"/></svg>