<svg xmlns="http://www.w3.org/2000/svg" viewBox="0 0 570 928" width="570" height="928"><path d="M247.159,882.486c-14.432,-26.05 -35.344,-58.82 -46.468,-72.822c-11.124,-14.002 -22.42,-33.478 -25.101,-43.28c-2.682,-9.802 -5.957,-57.686 -7.283,-106.409l-2.409,-88.59l-17.315,-18.336c-26.217,-27.762 -59.572,-80.043 -59.711,-93.594c-0.051,-6.07 -41.501,-60.171 -72.759,-94.987l-15.705,-17.494l14.538,-41.045c7.997,-22.575 27.05,-65.11 42.34,-94.523c33.093,-63.659 47.589,-92.459 59.913,-119.043c5.161,-11.131 19.31,-27.122 32.451,-36.671c12.815,-9.312 31.989,-26.281 42.611,-37.708c10.622,-11.427 21.504,-19.422 24.185,-17.766c9.249,5.715 4.932,34.471 -7.65,50.966c-6.888,9.03 -18.19,29.231 -25.115,44.888c-6.925,15.657 -19.781,38.92 -28.57,51.696c-8.789,12.775 -20.501,34.034 -26.023,47.242c-5.522,13.208 -15.515,35.472 -22.202,49.475c-22.041,46.152 -38.316,87.675 -38.316,97.756c0,5.459 8.02,21.202 17.821,34.99c9.801,13.788 17.822,28.104 17.822,31.82c0,3.715 32.632,38.884 72.52,78.153l72.519,71.396l5.951,100.075c3.273,55.04 9.558,137.721 13.967,183.737c4.409,46.016 7.165,84.513 6.126,85.553c-1.04,1.04 -13.697,-19.424 -28.129,-45.476zM310.76,861.852c-1.779,-20.303 -5.651,-60.974 -8.597,-90.378c-2.946,-29.404 -4.587,-90.345 -3.643,-135.425l1.713,-81.962l25.458,-25.601c46.471,-46.729 81.204,-88.883 104.379,-126.676c12.603,-20.55 34.942,-49.991 49.644,-65.426c14.702,-15.435 26.731,-31.704 26.731,-36.156c0,-9.768 -54.843,-110.315 -82.594,-151.426c-10.946,-16.217 -30.238,-42.173 -42.868,-57.679c-15.317,-18.805 -25.421,-37.625 -30.342,-56.524c-8.376,-32.156 -6.544,-37.629 8.144,-24.336c5.635,5.099 11.593,7.924 13.241,6.278c4.571,-4.57 74.228,81.37 122.643,151.315c29.9,43.196 78.911,139.65 74.66,146.935c-1.945,3.336 -14.445,17.524 -27.771,31.525c-38.338,40.282 -81.584,93.755 -107.092,132.412c-43.276,65.589 -41.685,59.119 -44.161,179.634c-2.129,103.683 -2.741,109.085 -14.11,124.747c-12.005,16.537 -35.125,61.458 -49.699,96.563c-4.359,10.502 -8.957,19.094 -10.215,19.094c-1.258,0 -3.746,-16.612 -5.529,-36.916zM243.395,380.686c-16.543,-24.504 -36.692,-60.142 -44.78,-79.198l-14.703,-34.645l11.095,-21.365c21.953,-42.277 39.349,-70.075 56.861,-90.862c9.802,-11.635 18.585,-23.098 19.517,-25.473c4.282,-10.892 17.148,-2.356 26.123,17.321c12.802,28.081 33.237,82.223 41.015,108.674c5.64,19.179 5.095,22.482 -6.846,41.395c-16.264,25.764 -36.675,73.916 -44.494,104.972c-3.285,13.051 -7.715,23.729 -9.842,23.729c-2.129,0 -17.403,-20.048 -33.945,-44.553z" /></svg>