<svg xmlns="http://www.w3.org/2000/svg" width="248.9" height="249.473" viewBox="0 0 2489 2494.727"><path d="M45 2458.727c90-74 326-322 397-417 166-222 313-489 382-694l35-103h773l28 83c79 238 227 504 414 746 75 97 263 293 360 375l55 46H0Zm1087-1356c35-106 29-190-24-295-32-65-39-88-39-140 0-69 17-101 75-140 40-28 119-31 194-8 27 8 73 15 101 15 82 0 110-25 175-156 91-183 135-245 214-299 64-44 115-61 216-75 129-18 225 15 312 106 57 60 92 138 93 206 0 50-4 61-28 85l-27 28-178 5c-158 5-182 8-219 28-52 27-68 51-92 134-32 116-72 163-152 179-55 10-158-5-252-37-86-29-122-30-165-4-64 39-69 115-16 217 37 71 74 173 74 205 0 17-11 18-143 18h-143z"/></svg>