<svg xmlns="http://www.w3.org/2000/svg" xml:space="preserve" width="28.651" height="28.624"><path d="m5.422 20.736 6.048-6.106-6.13-6.643c-2.726 2.876-2.728 9.873.082 12.75m11.546-6.098c1.674 1.643 3.529 3.464 5.388 5.279.268.26.565.489.842.726 2.804-2.525 2.779-10.18-.022-12.642-1.994 2.13-3.991 4.268-6.208 6.637m3.558-9.265c-2.014-2.891-10.842-2.74-12.361-.14l6.11 6.5zM8.088 23.363c2.54 2.867 10.548 2.597 12.429-.121l-6.22-6.39zM.017 14.35C-.362 7.142 6.118-.457 15.16.022c7.105.377 13.693 6.582 13.485 14.754-.178 7.022-6.285 13.939-14.552 13.847C6.301 28.538-.287 21.767.016 14.35"/></svg>