<svg xmlns="http://www.w3.org/2000/svg" viewBox="0 0 782 896" width="782" height="896"><path d="M131.472,648.666c4.368,-1.459 7.877,-2.613 12.693,-2.613c2.912,0 6.681,-0.89 7.728,2.317c-5.564,3.504 -10.379,7.018 -16.353,9.631c-6.421,2.763 -11.386,2.763 -15.157,8.922c-2.911,4.514 -5.115,10.038 -9.184,13.404c-1.455,1.302 -2.911,2.158 -4.107,3.915c-2.612,5.264 -2.464,13.144 -3.92,18.817c-2.352,9.484 -3.212,20.567 1.456,29.457c2.203,3.961 6.871,8.47 9.932,11.836c4.666,4.663 9.334,8.441 15.158,11.5c5.825,3.513 11.089,7.164 17.622,8.625c6.273,1.314 10.829,4.521 16.801,6.573c5.674,1.863 11.499,3.058 17.062,5.524c5.228,2.349 10.342,4.371 16.017,5.673c8.923,1.905 17.66,4.668 26.545,6.72c12.993,2.911 26.845,0.148 39.538,4.519c3.809,1.312 7.131,3.461 11.089,4.519c6.421,1.905 13.253,1.598 19.825,3.059c7.429,1.461 15.307,2.658 22.886,2.763c8.325,0.106 16.352,-0.455 24.529,0.847c7.729,1.155 15.606,2.234 23.334,2.763c59.064,4.817 118.278,-11.797 174.691,-23.894c9.932,-2.202 19.974,-4.414 29.906,-6.424c8.624,-1.609 17.062,-2.053 25.686,-3.958c8.439,-2.055 17.325,-3.621 25.949,-5.97c7.728,-2.467 13.703,-6.572 21.132,-9.631c5.712,-2.615 8.921,-3.366 12.245,-8.181c4.404,-6.384 6.869,-14.264 9.333,-21.281c2.799,-7.579 5.563,-14.145 5.563,-22.326c0,-6.684 0,-16.022 -4.965,-21.842c-3.809,-4.105 -9.633,-6.274 -13.553,-10.381c-4.105,-4.065 -7.429,-6.424 -12.693,-9.631c-3.657,-1.874 -6.72,-4.668 -10.341,-6.837c-2.054,-1.037 -4.257,-1.757 -6.012,-3.059c-2.016,-1.598 -3.321,-3.651 -5.525,-5.259c-2.352,-1.906 -5.264,-3.058 -7.728,-4.519c-3.36,-1.905 -5.974,-3.809 -9.633,-5.524c-2.053,-0.9 -4.517,-1.049 -4.517,-3.366c2.613,-0.741 6.868,-0.317 9.781,-0.317h14.86c8.325,0 15.606,-1.005 22.326,3.514c2.315,1.609 4.668,2.158 7.28,3.619c3.06,1.756 5.712,4.412 8.773,6.127c3.769,2.498 8.138,4.107 11.797,6.72c3.92,3.354 6.72,7.164 11.237,10.074c2.912,1.609 5.975,3.207 8.14,5.524c2.203,2.2 3.212,5.112 5.264,7.429c2.203,2.646 4.965,4.668 6.72,7.578c2.016,2.646 4.371,6.012 5.376,9.219c1.755,5.972 -1.161,11.801 -1.605,17.621c-0.148,6.272 -0.705,12.841 -1.456,19.265c-1.755,16.314 -10.491,30.466 -20.684,43.159c-10.677,13.553 -23.782,25.09 -36.626,36.627c-8.026,7.429 -16.614,14.563 -25.798,20.533c-7.319,4.514 -14.898,7.319 -22.477,10.79c-9.334,4.259 -18.817,8.47 -28.562,11.984c-11.685,3.928 -23.933,6.129 -35.73,9.748c-8.773,2.805 -17.098,5.165 -26.134,6.012c-10.791,1.312 -21.132,4.931 -31.213,7.99c-9.596,2.656 -19.228,3.217 -28.861,5.419c-9.184,2.201 -17.808,5.672 -27.142,7.133c-10.492,1.906 -21.281,3.778 -31.773,4.519c-11.833,0.741 -23.781,0.105 -35.318,0.105c-11.5,0 -21.729,0 -32.781,-2.91c-10.378,-2.614 -20.869,-4.816 -31.51,-6.985c-7.28,-1.302 -14.001,-2.795 -20.721,-5.97c-7.429,-3.503 -15.307,-6.159 -22.886,-8.922c-5.973,-2.456 -11.686,-5.376 -17.062,-8.583c-8.325,-4.668 -17.061,-7.588 -26.097,-10.234c-10.378,-2.914 -20.01,-6.831 -30.054,-10.789c-11.536,-4.518 -22.476,-8.583 -33.565,-14.149c-5.227,-2.763 -10.903,-4.816 -15.868,-7.875c-3.958,-2.159 -6.869,-5.376 -10.081,-8.435c-3.51,-3.656 -6.57,-7.582 -9.894,-10.789c-4.407,-3.958 -8.775,-7.726 -12.844,-12.097c-5.712,-6.57 -9.932,-13.998 -15.756,-20.422c-2.464,-2.646 -3.956,-5.556 -5.264,-8.922c-1.605,-3.92 -4.518,-9.042 -5.376,-12.957c-0.446,-3.207 0,-6.424 -0.593,-9.483c-0.559,-3.354 -1.459,-6.72 -2.052,-10.074c-0.413,-4.217 0,-9.033 0,-13.404c0,-3.058 0.897,-6.868 2.949,-9.334c2.612,-3.207 6.532,-4.965 9.445,-7.875c2.949,-2.762 4.965,-5.969 6.161,-9.779c2.316,-6.682 3.063,-13.706 10.044,-17.621c5.265,-3.069 10.641,-5.419 15.905,-8.032c8.028,-3.955 16.616,-8.475 24.941,-11.088c0.559,-0.107 1.311,-0.319 1.755,-0.424z" /> <path d="M167.502,682.156c0.117,-1.197 0.413,-2.202 0.708,-3.366c2.913,-10.789 6.273,-21.728 8.476,-32.818c1.868,-8.89 2.016,-18.069 1.868,-27.293c0,-3.324 0,-6.276 1.605,-9.334c3.212,-5.97 1.047,-10.941 0.9,-17.773c0,-9.483 -0.9,-17.062 -4.517,-25.949c-2.501,-6.573 -6.421,-10.939 -10.528,-16.652c-6.384,-8.286 -12.956,-16.017 -19.974,-23.893c-5.077,-5.715 -10.341,-11.388 -16.166,-16.502c-8.923,-7.429 -18.518,-11.5 -29.197,-16.017c-13.553,-5.863 -25.649,-13.741 -38.045,-21.73c-10.081,-6.573 -19.414,-14.897 -27.405,-24.23c-7.467,-8.435 -14.149,-17.361 -18.817,-27.702c-2.501,-5.673 -3.509,-11.537 -5.712,-17.212c-1.456,-4.222 -3.621,-8.032 -4.816,-12.246c-8.289,-25.836 -6.684,-54.247 -1.456,-80.644c3.808,-19.712 11.388,-42.301 26.246,-56.451c2.652,-2.349 4.556,-5.524 7.317,-8.022c2.612,-2.052 5.116,-3.915 7.579,-6.127c5.376,-4.668 11.797,-8.181 15.605,-14.3c-1.157,3.059 -4.219,5.566 -5.972,8.477c-5.413,10.044 -8.177,21.281 -13.701,31.213c-1.904,3.207 -4.107,5.82 -5.264,9.187c-2.052,4.519 -2.464,9.037 -2.612,13.701c-0.297,6.72 -1.196,13.404 -2.501,19.974c-2.764,13.292 -1.605,27.853 1.308,41.143c1.344,6.678 4.517,12.693 7.168,18.817c3.509,6.837 5.675,14.149 10.044,20.685c9.781,14.3 22.625,29.606 37.783,38.641c6.273,3.958 13.253,7.471 19.974,10.941c3.958,2.202 8.177,3.81 12.097,6.012c3.212,1.715 6.012,4.371 9.334,5.97c4.965,2.466 10.677,5.82 15.905,7.875c7.429,2.763 15.756,3.059 22.477,7.875c2.612,1.863 4.668,4.065 7.132,5.673c3.808,2.202 8.177,3.661 11.836,5.98c3.771,2.349 6.833,5.259 10.193,8.181c6.123,5.82 12.693,9.927 17.51,17.062c2.913,4.222 5.675,8.583 8.437,12.843c2.501,3.915 5.563,7.133 8.177,10.789c3.808,5.82 5.525,12.246 7.729,18.668c2.764,7.578 6.572,14.301 7.019,22.738c0,2.498 -0.444,5.259 0,7.875c0.413,3.661 2.315,7.133 3.061,10.789c2.315,12.694 -1.196,25.238 0,37.933c0.858,11.237 0.708,22.438 0.708,33.825c-0.297,9.927 2.203,18.668 3.659,28.301c1.157,7.725 3.061,15.457 3.92,23.036c1.047,6.72 -0.147,13.404 0.147,20.125c0.444,3.661 1.456,8.181 2.613,11.798c0.444,2.202 3.099,6.573 0.9,8.181c-0.751,0.636 -2.352,-0.105 -3.36,0c-1.456,0.424 -1.904,1.302 -3.212,2.052c-3.509,1.608 -7.429,0 -11.237,0.847c-2.016,0.424 -3.324,1.757 -5.077,2.349c-1.755,0.424 -3.808,0.105 -5.713,0.105c-3.36,0 -5.972,-0.105 -9.184,-1.058c-7.579,-1.715 -14.709,-5.673 -22.177,-7.875c-7.28,-2.169 -14.709,-2.613 -22.14,-4.222c-3.958,-1.058 -5.861,-3.619 -9.484,-5.112c-1.904,-0.847 -3.212,-1.154 -4.816,-2.317c-1.605,-1.302 -4.069,-2.91 -5.264,-4.668c-1.605,-1.757 -1.308,-4.222 -1.308,-6.72c0,-2.169 0.147,-3.768 0.751,-5.97c0.561,-2.317 0.561,-4.815 1.456,-6.985c3.472,-8.773 5.675,-17.509 8.028,-26.546z" /> <path d="M522.187,722.106c-6.012,-8.73 -9.932,-18.966 -13.74,-28.748c-4.069,-10.192 -10.641,-18.781 -14.71,-28.861c-5.563,-12.694 -11.685,-25.09 -14.748,-38.791c-2.913,-12.245 -1.456,-25.238 -1.456,-37.783c0,-10.789 0.751,-21.281 1.308,-31.921c0.147,-6.276 1.755,-11.537 3.659,-17.362c1.755,-5.97 2.913,-11.947 4.517,-17.957c1.755,-5.98 4.108,-12.097 6.72,-17.922c2.612,-6.424 7.28,-11.684 10.044,-17.921c8.624,-19.265 24.081,-34.422 42.898,-43.494c6.981,-3.324 14.149,-5.376 21.281,-8.139c5.116,-2.052 9.781,-4.371 14.897,-6.276c5.228,-2.052 10.492,-1.058 15.717,-3.514c4.556,-2.349 8.773,-5.82 13.441,-7.429c3.212,-1.154 6.273,-1.302 9.184,-2.349c4.517,-1.757 8.588,-4.222 13.253,-6.424c6.421,-2.91 14.897,-3.927 21.878,-2.466c2.353,0.317 4.816,1.154 7.318,1.608c9.894,1.608 20.534,0.636 30.317,3.059c5.563,1.461 10.641,1.461 15.905,4.371c7.132,3.81 11.5,9.631 17.66,14.598c5.675,4.668 11.052,9.187 16.316,14.3c3.36,3.059 6.572,6.276 9.781,9.748c2.016,2.349 4.219,4.668 6.421,7.164c2.913,3.366 5.974,6.837 8.885,10.339c5.824,6.868 8.588,13.852 10.94,22.476c1.755,6.531 1.904,11.798 1.904,18.369c-0.147,5.112 0.561,10.339 -0.297,15.457c-0.751,3.768 -1.456,7.429 -2.052,11.238c-0.444,2.466 0.147,5.229 -0.708,7.578c-0.9,3.059 -3.212,5.673 -4.405,8.73c-1.605,4.815 -1.717,12.544 -5.675,16.205c-0.593,-2.646 -0.297,-5.715 -0.297,-8.625c0,-6.127 0.444,-12.544 -0.147,-18.667c-1.456,-16.317 -9.745,-33.379 -18.518,-47.08c-3.212,-5.259 -6.981,-10.074 -10.341,-15.196c-4.517,-6.837 -8.177,-14.709 -15.158,-19.377c-6.572,-4.222 -14.001,-5.82 -20.721,-10.074c-7.729,-4.815 -15.605,-8.89 -24.79,-9.631c-10.64,-0.847 -19.526,2.052 -29.757,4.551c-8.437,2.169 -17.212,4.222 -25.537,7.429c-6.684,2.613 -13.404,5.673 -20.236,8.169c-16.502,6.234 -30.95,21.133 -40.434,35.581c-7.579,12.097 -14.261,24.941 -19.825,38.045c-2.165,5.259 -5.376,10.381 -6.981,15.756c-1.904,5.82 -1.308,11.798 -1.308,17.661c-0.147,6.837 1.605,13.404 3.061,20.125c1.156,5.229 2.315,10.192 4.368,15.008c4.965,11.836 9.894,23.485 16.316,34.573c5.712,10.339 14.897,15.607 23.037,23.334c5.264,4.963 10.528,8.73 14.3,14.861c3.212,4.963 3.36,11.237 4.108,16.801c0.858,5.82 3.771,12.508 2.464,18.667c-1.605,7.578 -11.537,12.509 -17.361,17.062c-4.368,3.471 -8.588,6.837 -13.701,9.037c-6.72,2.91 -13.852,2.466 -20.721,4.815c-3.92,1.461 -4.517,1.863 -6.684,-1.905c-2.204,-3.81 -5.264,-4.668 -8.923,-6.868c-3.212,-2.01 -6.273,-4.371 -8.885,-7.133c-1.456,-1.608 -2.612,-3.207 -3.771,-4.815z" /> <path d="M456.963,715.044c0.454,0.614 0.604,1.144 0.751,1.461c2.052,3.471 4.965,5.673 7.28,8.286c3.063,3.504 5.116,7.875 7.468,11.685c2.912,4.661 6.385,8.586 9.745,12.693c2.649,3.062 4.369,8.438 2.913,12.396c-4.517,0.856 -7.988,-0.603 -12.245,2.01c-3.361,1.905 -6.422,4.107 -9.894,5.715c-2.651,1.005 -5.264,2.01 -7.728,3.354c-2.054,1.599 -4.107,2.71 -6.123,3.768c-3.51,1.459 -7.765,2.814 -11.089,3.661c-4.256,0.858 -8.476,2.805 -12.545,2.91c-7.88,0.317 -15.607,0 -23.485,0h-19.265c-3.622,0 -8.886,0.846 -12.545,0.105c-1.604,-0.296 -3.06,-1.301 -4.368,-2.498c-1.456,-1.291 -3.061,-1.82 -4.965,-1.715c-2.464,-0.751 -3.92,-1.195 -6.123,-2.656c-3.209,-2.158 -5.674,-4.063 -9.333,-5.524c-3.621,-1.451 -6.421,-4.521 -8.437,-7.875c-4.108,-7.28 -4.256,-15.908 -6.72,-23.633c-1.605,-5.675 -3.21,-11.536 -4.965,-16.912c-2.167,-6.72 -7.58,-11.382 -10.94,-17.362c-9.784,-16.912 -18.52,-34.983 -23.037,-53.949c-3.657,-16.054 -4.069,-33.265 -5.525,-49.581c-1.904,-20.72 -3.659,-41.292 -3.659,-62.125c0,-20.012 -2.351,-40.995 2.913,-60.409c5.525,-20.421 5.973,-42.001 15.905,-61.079c9.036,-17.959 20.422,-34.423 31.922,-50.925c7.578,-10.94 15.606,-21.73 23.334,-32.37c9.335,-12.693 19.826,-24.492 28.749,-37.634c6.683,-9.744 11.947,-20.426 18.22,-30.765c3.36,-5.974 7.428,-11.391 9.781,-17.772c1.456,-3.653 2.916,-7.875 3.36,-11.685c0.708,-3.923 0.708,-7.88 2.612,-11.648c1.456,-2.657 3.659,-4.815 5.264,-7.62c3.062,-4.516 3.77,-9.745 6.123,-14.56c2.171,-4.11 1.159,-8.47 2.764,-12.545c1.756,-4.665 3.212,-7.883 3.212,-13.142c0,-3.922 -0.296,-7.129 -1.047,-10.939c-0.71,-4.663 -0.414,-9.593 -0.117,-14.261c0,-5.565 -1.757,-10.38 -1.493,-15.904c0,-3.805 -0.715,-6.874 -1.308,-10.642c-1.306,-8.625 -3.92,-17.511 -7.878,-25.089c-2.613,-5.26 -7.878,-9.482 -12.097,-13.589c-2.164,-2.16 -4.219,-4.509 -6.72,-6.531c-2.464,-2.052 -5.674,-3.057 -7.989,-5.259c-2.352,-2.201 -4.108,-4.815 -6.72,-6.72c-3.212,-2.773 -6.871,-4.825 -10.492,-6.688c-6.721,-4.264 -14.15,-5.863 -20.87,-10.234c-7.431,-5.079 -15.608,-10.191 -24.045,-13.852c-2.801,-1.152 -5.712,-2.307 -8.476,-3.915c-3.659,-2.053 -5.264,-3.958 -9.483,-5.112c-5.525,-1.757 -10.641,-0.91 -16.465,-1.757c-3.06,-0.444 -6.121,-1.416 -9.333,-2.052c-7.019,-1.302 -14.3,-2.857 -21.58,-3.915c-5.861,-1.015 -11.088,-3.164 -16.801,-4.222c-3.359,-0.614 -6.121,-0.614 -9.333,-1.461c2.055,-0.9 4.256,-1.461 6.124,-2.805c4.966,-3.624 6.272,-9.594 12.844,-11.499c3.957,-1.165 8.885,-0.424 12.993,-0.424c6.682,0 13.254,-0.212 19.974,0.424c11.649,0.847 22.886,0.847 34.722,0.847c7.578,0 13.105,0.297 19.526,3.958c8.625,4.931 17.809,6.529 27.293,9.334c11.648,3.36 23.185,7.427 33.229,14.412c7.729,5.563 15.046,11.981 21.43,18.966c7.317,8.026 14.3,16.505 21.169,24.791c13.104,15.904 19.676,35.317 26.545,54.098c3.622,10.08 6.832,19.715 11.5,29.346c4.259,9.593 3.963,19.225 3.212,29.606c-2.167,27.403 -13.553,51.484 -25.949,75.677c-12.844,25.088 -28.3,48.423 -43.458,72.205c-4.965,8.139 -12.993,15.457 -16.353,24.791c-1.158,3.915 -3.471,6.974 -6.123,10.488c-5.525,7.876 -9.484,15.899 -13.553,24.789c-9.632,20.422 -16.056,40.097 -16.764,62.872c-0.152,12.805 -1.308,25.349 -1.308,38.342c0,12.246 1.158,24.493 2.016,36.738c2.052,23.782 6.271,48.573 14.149,71.161c7.429,21.019 21.317,39.985 32.966,58.653c5.674,9.633 12.097,17.77 19.414,26.247c5.525,6.568 11.499,13.397 15.158,21.429c0.709,1.756 1.307,3.809 2.165,5.566z" /></svg>