<svg xmlns="http://www.w3.org/2000/svg" xml:space="preserve" width="23.237" height="29.319"><path d="M20.916 8.187c-.34.993-.575 1.56-1.113.93-1.004-1.174-2.499-2.368-3.436-2.797-.647-.296-.586-.563-.084-1.38.597-.976 1.082-2.41 2.134-2.736 1.302-.403 2.415-.397 3.08.51.628.858-.24 4.48-.58 5.473M6.87 6.32c-.938.43-2.432 1.623-3.436 2.797-.538.63-.772.063-1.114-.93-.34-.994-1.209-4.615-.58-5.474.664-.906 1.78-.912 3.08-.509 1.051.325 1.538 1.76 2.134 2.736.501.817.562 1.084-.084 1.38M17.51.768C17.292.165 17.073 0 17.073 0H6.165s-.22.165-.438.768C.3-.055-.137 1.425.027 4.111c.165 2.685 1.041 5.37 1.754 6.685-.11 6.248 1.238 7.893 3.495 10.048 1.764 1.683 3.93 2.928 4.841 3.905.16.288.126 1.204-.092 1.488-1.228.56-2.997.891-3.586 1.822-.447.706-.11 1.26.768 1.26h8.825c.876 0 1.215-.554.767-1.26-.588-.931-2.359-1.262-3.587-1.822-.217-.284-.25-1.2-.09-1.488.91-.977 3.077-2.222 4.84-3.905 2.257-2.155 3.605-3.8 3.495-10.048.712-1.315 1.59-4 1.754-6.685.164-2.686-.275-4.166-5.7-3.343"/></svg>