<svg xmlns="http://www.w3.org/2000/svg" xml:space="preserve" width="33.765" height="38.077"><path d="M9.724 24.17c0-1.594-.056-3.114.022-4.626a2.96 2.96 0 0 1 1.264-2.287c.494-.356 1.05-.626 1.572-.932 2.452 0 4.877-.013 7.302.004 1.998.016 3.743 1.636 3.828 3.599.062 1.375.012 2.753.012 4.115-1.049.286-11.068.38-14 .128M27.562 34.97l.504 2.682c-.404.168-.684.355-.981.393-.468.059-.95.019-1.424.019q-9.128 0-18.254-.003H5.89l-.778-.753.818-2.337zM22.824 10.522H10.343c.573-2.512 1.834-4.344 4.326-4.988 2.114-.547 4.267-.368 6.047.945 1.233.91 2.123 2.236 2.108 4.043M33.727 24.212h-7.452c-.008-1.177-.02-2.305-.024-3.432-.004-1.138-.001-2.278-.001-3.397 1.377-.353 4.04-.284 5.1.116 1.36.516 2.2 1.519 2.35 2.939.128 1.216.027 2.456.027 3.774"/><path d="M24.548 17.538c-.317-.35-.523-.544-.692-.766-1.03-1.338-2.453-1.866-4.07-1.9-2.089-.045-4.185-.094-6.27.014-1.835.094-3.507.681-4.572 2.561-.22-.93-.085-1.763-.11-2.58-.026-.804-.007-1.608-.007-2.395 1.04-.284 13.593-.365 15.72-.109zM7.1 17.168v7.044l-6.863.001c-.252-.844-.324-3.495-.112-4.17.582-1.853 1.976-2.68 3.79-2.857 1.023-.101 2.066-.018 3.186-.018M26.434 31.738l.442 1.593c-.05.108-.064.156-.092.19-.03.035-.073.078-.114.082-.282.027-.564.061-.846.061-6.37.004-12.741.003-19.077.003-.45-.807.017-1.35.276-1.93zM25.007 27.245c-1.22.246-15.226.276-16.724.05l.542-1.52h15.69zM26.334 12.51c-.106-.702-.13-1.386-.822-1.857l-1.105-.116-.292-1.973c1.985-.859 3.95-.844 5.852.304 1.45.875 2.116 2.136 1.98 3.643zM7.352 29.964l.615-1.277h17.5l.444 1.192c-.114.044-.227.128-.34.128q-2.783.016-5.564.014-5.565.002-11.128-.003c-.463 0-.924-.032-1.527-.054M1.79 12.5c-.198-3.28 3.435-5.256 7.468-4.131l-.164 2.125q-.68.076-1.372.155c-.514.675-.514.675-.637 1.85zM33.727 25.807c0 .652.014 1.215-.008 1.776-.006.177-.104.35-.162.536-.986.548-2.035.41-3.06.42-1.042.008-2.084.001-3.163.001-1.053-.578-.877-1.76-1.401-2.733zM7.154 25.882c.116.933-.432 1.67-.688 2.453-1.906.443-5.205.262-6.346-.352-.03-.146-.095-.326-.1-.508-.014-.517-.004-1.034-.004-1.534 1.102-.26 5.682-.291 7.138-.06M26.304 15.75v-1.62h7.339v3.006c-1.245-1.108-2.636-1.518-4.227-1.398-.986.074-1.982.013-3.112.013M.067 17.22v-3.087h6.94c.318.401.122.924.144 1.498-.802.234-1.612.144-2.394.106-1.699-.084-3.298.098-4.69 1.484M15.997 3.743V.48c.683-.638.683-.638 1.456-.017v3.104c-.104.053-.218.157-.342.167-.322.024-.647.008-1.114.008M27.537 6.281h-1.493V3.648c.642-.619.642-.619 1.606.013-.02.842.127 1.728-.113 2.62M6.326 3.536c.477-.533.91-.537 1.398.028v2.714l-1.398.064z"/></svg>