<svg xmlns="http://www.w3.org/2000/svg" width="237.85" height="225.894" viewBox="0 0 2378.5 2258.941"><path d="M667.25 2228.942c-24-25-29-36-24-58 13-52 38-62 152-62 91 0 107 3 124 20 30 30 27 83-6 109-23 18-41 21-121 21-92 0-95-1-125-30m377 5c-32-31-33-74-2-103 23-22 24-22 506-22h482l24 25c14 13 25 31 25 39 0 28-22 64-47 75-16 8-171 11-494 11h-470zm-303-301c-30-21-31-83-1-110 20-18 49-19 713-22 380-1 700 0 711 2 31 8 65 44 65 70 0 13-9 35-21 50l-20 26h-713c-628 0-714-2-734-16m-140-291c-7-3-19-18-28-35-13-25-13-35-3-59 6-17 20-34 30-39 11-6 346-10 878-10h860l20 26c27 34 27 64 0 98l-20 26-862-1c-474 0-868-3-875-6m-337-168c-14-13-25-34-25-46 0-32 206-239 238-239 59 0 91 48 68 103-7 18-54 71-104 120-102 98-132 108-177 62m401-147c28-91 148-175 265-185 56-6 59-7 59-33 0-30 29-119 55-171 45-87 156-185 255-224 57-22 209-31 279-16 88 19 161 61 236 136 39 39 78 89 89 111 17 40 20 42 73 47 153 16 304 163 321 313l5 44h-1644zm-101-235c-115-156-93-371 52-503 74-67 144-94 253-94 102 0 177 26 240 82l43 38-39 26c-91 60-194 189-230 285-21 59-32 73-53 73-30 0-116 47-174 94l-57 46zm-544-169c-27-34-27-64 0-98 20-26 21-26 165-26 141 0 146 1 169 25 32 31 32 69 0 100-23 24-28 25-169 25-144 0-145 0-165-26m413-386c-72-54-194-192-194-220 0-11 14-33 30-50 44-43 68-33 178 75 103 101 117 123 101 164-21 55-66 67-115 31m782 1c-19-15-26-30-26-56 0-31 11-47 91-129 106-108 133-123 178-100 34 18 50 70 33 102-6 11-53 61-105 112-102 100-123 109-171 71m-396-179c-18-18-20-33-20-169v-150l26-20c43-34 86-24 112 26 8 13 12 72 12 153 0 126-1 132-25 155-30 31-77 33-105 5"/></svg>