<svg xmlns="http://www.w3.org/2000/svg" viewBox="0 0 935 896" width="935" height="896"><path d="M36.964,860.151c0,-45.073 25.187,-96.976 61.639,-127.023c26.565,-21.896 81.092,-43.561 179.996,-71.511c58.545,-16.545 76.177,-28.764 90.571,-62.772c14.278,-33.733 11.963,-52.293 -9.289,-74.473c-14.406,-15.037 -19.754,-29.038 -22.155,-58.01c-2.865,-34.558 -1.127,-40.514 18.291,-62.629c11.801,-13.441 52.223,-41.433 89.826,-62.204c37.603,-20.771 68.369,-40.099 68.369,-42.95c0,-2.851 -3.567,-8.753 -7.927,-13.111c-11.345,-11.345 -1.351,-23.415 19.385,-23.415c40.597,0 81.141,39.33 81.141,78.713c0,8.421 -11.346,26.658 -25.211,40.523c-59.603,59.603 -54.629,73.959 45.843,132.337c58.187,33.808 104.323,78.427 111.769,108.089c8.994,35.83 -3.493,91.768 -26.32,117.916c-35.106,40.215 -58.264,91.145 -53.839,118.408c3.933,24.237 -4.501,32.774 -12.3,12.45c-12.609,-32.861 5.451,-81.075 51.738,-138.128c23.537,-29.009 25.852,-35.834 25.852,-76.178c0,-40.995 -1.869,-46.239 -24.93,-70.039c-13.713,-14.149 -56.051,-44.852 -94.088,-68.229c-61.667,-37.899 -69.661,-45.187 -73.81,-67.301c-3.344,-17.825 -1.116,-30.196 7.923,-43.992c8.526,-13.013 9.948,-20.069 4.417,-21.913c-5.799,-1.933 -6.041,-6.674 -0.842,-16.391c6.079,-11.358 4.91,-13.671 -6.902,-13.671c-7.82,0 -20.864,7.133 -28.985,15.849c-13.881,14.899 -14.004,16.178 -2.058,21.351c7.573,3.279 3.538,3.883 -9.984,1.493c-15.284,-2.7 -29.234,0.172 -42.738,8.799c-17.076,10.91 -18.672,11.067 -10.766,1.06c7.857,-9.944 7.31,-12.258 -3.562,-15.078c-7.063,-1.831 0.552,-3.703 16.92,-4.156c17.535,-0.486 34.723,-5.785 41.83,-12.892c11.339,-11.339 11.263,-12.382 -1.272,-17.307c-9.097,-3.575 -3.712,-5.4 16.934,-5.742c16.651,-0.275 30.274,-3.705 30.274,-7.623c0,-3.918 3.395,-7.123 7.543,-7.123c4.15,0 5.563,3.205 3.142,7.123c-2.421,3.918 -0.981,7.123 3.201,7.123c5.018,0 4.646,4.736 -1.09,13.923c-4.781,7.657 -6.432,16.185 -3.665,18.95c6.419,6.419 31.96,-16.458 37.356,-33.456c5.874,-18.511 -15.517,-55.811 -36.605,-63.831c-24.358,-9.261 -24.113,-9.39 -24.229,12.772c-0.101,17.437 -7.326,23.369 -65.889,54.021c-78.398,41.036 -103.894,61.663 -112.256,90.815c-7.349,25.626 0.293,49.572 25.302,79.295c18.893,22.453 22.21,49.463 10.031,81.696c-14.386,38.076 -40.102,56.666 -101.579,73.435c-88.253,24.071 -152.745,49.431 -176.472,69.396c-30.502,25.667 -56.28,80.248 -56.28,119.169c0,17.759 -3.205,32.291 -7.122,32.291c-3.917,0 -7.123,-16.134 -7.123,-35.852zM445.736,869.581c2.667,-4.739 0.763,-15.155 -4.23,-23.149c-12.464,-19.957 -62.66,-19.744 -97.41,0.413c-22.576,13.097 -23.681,13.236 -8.917,1.127l16.854,-13.824l-39.137,-1.279c-21.525,-0.703 -47.724,1.984 -58.219,5.975c-12.466,4.739 -17.559,4.793 -14.692,0.161c2.681,-4.336 -8.681,-7.102 -29.175,-7.102h-33.565l16.426,-14.245c19.389,-16.816 26.78,-18.664 14.245,-3.562c-7.777,9.372 -0.444,10.685 59.675,10.685c50.027,0 68.57,-2.405 68.65,-8.904c0.08,-6.529 1.748,-6.317 6.253,0.793c8.835,13.945 119.455,8.665 129.949,-6.203c6.338,-8.981 6.901,-8.761 3.647,1.425c-2.963,9.275 1.38,12.696 18.917,14.888c15.02,1.876 9.958,3.232 -14.882,3.983c-35.948,1.088 -37.285,1.817 -29.613,16.15c6.097,11.389 5.904,16.975 -0.793,23.149c-6.666,6.146 -7.64,6.029 -3.981,-0.474zM225.725,860.388c2.421,-3.917 5.817,-7.122 7.543,-7.122c1.726,0 3.142,3.205 3.142,7.122c0,3.917 -3.395,7.123 -7.543,7.123c-4.148,0 -5.563,-3.205 -3.142,-7.123zM551.959,857.975c-3.132,-5.244 -12.106,-13.161 -19.943,-17.591c-12.643,-7.148 -11.441,-8.016 10.685,-7.709c13.713,0.182 20.95,1.954 16.084,3.919c-6.433,2.598 -6.852,7.303 -1.531,17.245c8.213,15.347 3.568,18.975 -5.297,4.137zM101.071,853.686c0,-3.687 3.169,-8.66 7.041,-11.054c4.038,-2.496 5.231,0.363 2.799,6.702c-4.736,12.341 -9.841,14.597 -9.841,4.352zM139.83,850.096c7.605,-6.093 16.954,-11.078 20.775,-11.078c9.051,0 5.009,3.29 -16.794,13.674c-16.792,7.997 -17.017,7.848 -3.982,-2.597zM606.809,839.491c0,-3.658 -8.814,-7.986 -19.589,-9.617c-18.232,-2.762 -17.985,-3.042 3.562,-4.035c16.303,-0.75 23.149,2.093 23.149,9.617c0,5.876 -1.603,10.685 -3.562,10.685c-1.959,0 -3.562,-2.992 -3.562,-6.65zM113.62,826.858c8.86,-1.704 21.682,-1.64 28.493,0.142c6.811,1.784 -0.439,3.177 -16.109,3.098c-15.67,-0.079 -21.243,-1.538 -12.383,-3.241zM579.969,796.28c0,-13.713 1.465,-19.321 3.257,-12.466c1.792,6.855 1.791,18.075 0,24.93c-1.791,6.855 -3.257,1.246 -3.257,-12.466zM108.194,786.016c0,-5.646 2.906,-12.061 6.459,-14.257c3.553,-2.196 4.781,2.424 2.731,10.265c-4.349,16.632 -9.19,18.735 -9.19,3.992zM531.837,769.569c4.578,-15.606 3.31,-16.026 -48.33,-16.026c-38.822,0 -55.446,2.908 -62.041,10.857c-4.955,5.971 -10.723,9.144 -12.817,7.049c-2.094,-2.095 2.37,-8.48 9.919,-14.191c12.459,-9.427 9.202,-10.406 -35.295,-10.611c-37.151,-0.161 -55.261,3.394 -74.793,14.722c-24.416,14.162 -24.845,14.192 -8.178,0.567l17.593,-14.382l-24.717,-2.989c-15.351,-1.857 -7.669,-3.423 20.27,-4.13c24.744,-0.628 51.574,-4.666 59.625,-8.974c10.644,-5.696 13.317,-5.696 9.795,0c-6.908,11.178 47.763,10.186 59.104,-1.071c7.191,-7.139 8.029,-6.433 4.223,3.562c-4.086,10.734 -0.271,12.466 27.476,12.466c19.113,0 33.684,-3.622 35.815,-8.904c2.875,-7.123 3.705,-7.123 4.155,0c0.826,13.083 78.12,11.832 92.855,-1.505c10.213,-9.243 11.501,-8.844 11.501,3.562c0,11.907 -4.972,13.968 -33.685,13.968c-26.704,0 -36.12,3.322 -45.433,16.026l-11.748,16.026zM129.564,765.098c0,-1.479 5.609,-7.089 12.466,-12.466c11.298,-8.86 11.549,-8.608 2.689,2.689c-9.304,11.865 -15.155,15.639 -15.155,9.777zM204.357,760.665c2.421,-3.917 7.609,-7.122 11.526,-7.122c3.917,0 5.143,3.205 2.721,7.122c-2.421,3.917 -7.609,7.123 -11.526,7.123c-3.917,0 -5.143,-3.205 -2.721,-7.123zM163.844,748.675c5.142,-2.058 11.286,-1.805 13.653,0.564c2.367,2.367 -1.84,4.051 -9.349,3.742c-8.297,-0.342 -9.986,-2.03 -4.304,-4.304zM204.357,746.419c-19.929,-5.071 -19.299,-5.495 9.324,-6.28c18.836,-0.517 28.992,1.911 26.291,6.28c-4.832,7.818 -4.893,7.818 -35.615,0zM643.25,709.023c-0.722,-10.895 -8.965,-12.466 -65.401,-12.466c-35.517,0 -70.704,3.28 -78.194,7.287c-10.987,5.88 -12.814,5.192 -9.455,-3.562c2.289,-5.968 8.629,-10.849 14.086,-10.849c5.457,0 9.922,-3.205 9.922,-7.123c0,-3.917 3.395,-7.123 7.543,-7.123c4.148,0 5.399,3.469 2.779,7.709c-3.179,5.144 5.573,7.294 26.291,6.462c48.925,-1.965 132.434,1.692 115.189,5.045c-8.575,1.666 -17.017,8.442 -18.763,15.057c-2.879,10.915 -3.25,10.875 -3.999,-0.439zM316.695,703.026c6.938,-4.039 10.756,-10.353 8.483,-14.03c-2.379,-3.85 10.397,-6.337 30.122,-5.866l34.255,0.819l-27.073,5.242c-14.89,2.883 -30.757,8.925 -35.259,13.427c-4.502,4.502 -11.551,8.087 -15.664,7.969c-4.113,-0.119 -1.803,-3.521 5.136,-7.561zM393.118,693.247c0,-1.821 6.797,-6.95 15.106,-11.395c9.303,-4.978 13.355,-5.252 10.549,-0.712c-2.681,4.339 5.024,8.559 18.728,10.255c18.062,2.236 15.695,3.139 -10.549,4.024c-18.609,0.627 -33.834,-0.35 -33.834,-2.171zM592.563,679.512c0,-1.54 4.809,-4.644 10.685,-6.899c5.876,-2.255 10.685,-0.995 10.685,2.799c0,3.795 -4.809,6.899 -10.685,6.899c-5.876,0 -10.685,-1.26 -10.685,-2.799zM489.424,654.277c-2.407,-7.583 -9.835,-15.225 -16.507,-16.981c-6.672,-1.756 1.682,-3.564 18.563,-4.02c22.517,-0.607 29.267,-3.199 25.345,-9.73c-4.125,-6.867 -3.001,-7.033 4.921,-0.721c5.649,4.501 30.772,8.439 55.827,8.755c25.055,0.316 47.227,2.243 49.268,4.283c2.041,2.041 -7.942,3.711 -22.183,3.711c-21.389,0 -25.221,2.169 -22.018,12.466c3.69,11.872 3.493,11.872 -4.138,0c-6.041,-9.398 -17.689,-12.466 -47.318,-12.466c-36.061,0 -38.929,1.175 -34.782,14.245c2.486,7.835 2.919,14.245 0.959,14.245c-1.958,0 -5.531,-6.205 -7.938,-13.788zM419.912,641.657c8.86,-1.703 21.681,-1.639 28.493,0.144c6.812,1.783 -0.439,3.177 -16.109,3.098c-15.672,-0.078 -21.244,-1.537 -12.383,-3.241zM641.929,635.415c-11.732,-14.135 -6.47,-16.597 13.37,-6.251c12.742,6.643 14.06,9.483 5.863,12.628c-5.817,2.233 -14.47,-0.637 -19.232,-6.377zM566.47,599.938c-3.661,-9.539 -16.181,-10.586 -87.033,-7.282c-46.198,2.154 -74.893,1.306 -64.952,-1.922c9.793,-3.18 30.629,-4.193 46.3,-2.249c25.913,3.212 27.607,2.459 18.716,-8.307c-5.766,-6.982 -6.67,-11.837 -2.202,-11.837c4.165,0 9.482,3.086 11.812,6.856c2.33,3.77 24.677,6.508 49.659,6.083c38.193,-0.651 44.862,-2.592 41.901,-12.2c-2.92,-9.48 -1.771,-9.303 6.75,1.041c6.369,7.73 20.797,12.678 37.977,13.027c15.239,0.31 22.898,2.392 17.022,4.629c-5.876,2.237 -13.04,7.594 -15.918,11.903c-3.619,5.421 -5.267,5.091 -5.341,-1.069c-0.061,-5.457 -10.055,-8.904 -25.802,-8.904c-19.912,0 -24.771,2.404 -21.593,10.685c2.255,5.876 2.498,10.685 0.539,10.685c-1.959,0 -5.485,-5.014 -7.836,-11.141zM482.155,546.389c-23.506,-2.279 -37.931,-4.908 -32.053,-5.844c7.802,-1.239 6.839,-3.351 -3.562,-7.819c-13.735,-5.901 -13.685,-6.139 1.361,-6.622c8.584,-0.275 17.588,2.705 20.009,6.622c2.421,3.917 10.814,7.123 18.649,7.123c8.546,0 12.309,-3.135 9.404,-7.833c-3.291,-5.326 0.142,-5.164 10.736,0.503c8.568,4.585 25.782,7.645 38.255,6.797c36.851,-2.499 71.701,0.184 66.745,5.14c-6.083,6.083 -75.981,7.127 -129.544,1.932zM416.621,523.087c-3.132,-5.302 -10.505,-11.459 -16.381,-13.685c-8.843,-3.347 -8.652,-4.14 1.114,-4.606c8.267,-0.395 10.909,-5.359 8.826,-16.589c-1.678,-9.041 -0.92,-11.37 1.734,-5.341c2.59,5.876 8.118,12.901 12.285,15.607c10.64,6.912 76.537,5.654 72.191,-1.379c-1.963,-3.175 4.216,-2.1 13.729,2.389c9.513,4.489 16.169,9.291 14.791,10.67c-1.379,1.379 -25.053,2.296 -52.61,2.037c-41.344,-0.387 -49.399,1.366 -46.073,10.032c5.054,13.17 -1.961,13.799 -9.606,0.861zM428.733,474.293c0,-4.071 -10.898,-5.959 -24.93,-4.321c-29.001,3.386 -31.028,-1.065 -9.026,-19.836c14.233,-12.144 14.846,-12.206 5.831,-0.596c-9.401,12.104 -8.244,12.819 17.291,10.685c19.557,-1.635 27.876,-5.845 29.155,-14.753c1.307,-9.101 -3.327,-12.601 -17.169,-12.966c-10.427,-0.275 -25.369,-3.185 -33.204,-6.468c-10.214,-4.278 -6.182,-5.349 14.245,-3.784c15.671,1.201 34.494,2.509 41.829,2.906c11.585,0.627 12.054,2.27 3.562,12.502c-9.893,11.921 -9.658,17.305 1.045,23.921c3.245,2.006 -1.869,7.315 -11.364,11.795c-11.082,5.229 -17.266,5.558 -17.266,0.917zM477.259,470.876c5.143,-2.058 11.286,-1.804 13.653,0.563c2.367,2.367 -1.84,4.051 -9.349,3.742c-8.297,-0.343 -9.986,-2.03 -4.304,-4.304zM485.61,426.211c9.736,-7.481 19.352,-11.779 21.37,-9.551c2.018,2.228 -0.359,5.487 -5.281,7.245c-4.921,1.757 -7.136,6.126 -4.921,9.709c2.215,3.583 -3.375,6.444 -12.422,6.356l-16.447,-0.16zM548.044,314.318c4.897,-1.976 12.911,-1.976 17.808,0c4.897,1.976 0.89,3.592 -8.904,3.592c-9.793,0 -13.801,-1.617 -8.904,-3.592zM598.85,270.954c15.475,-28.413 57.534,-59.205 108.868,-79.7c46.638,-18.621 63.9,-21.804 118.249,-21.804c62.473,0 108.503,9.36 108.503,22.066c0,8.973 -7.828,8.101 -43.624,-4.858c-72.1,-26.103 -202.93,9.415 -262.284,71.206c-26.113,27.184 -40.946,33.719 -29.711,13.089zM413.935,247.265c-64.608,-48.419 -170.941,-104.741 -221.452,-117.301c-52.959,-13.168 -93.919,-8.288 -154.19,18.373c-31.321,13.854 -46.575,13.652 -32.491,-0.432c3.885,-3.885 26.109,-14.043 49.386,-22.573c52.415,-19.206 120.959,-20.297 170.538,-2.713c68.974,24.463 243.063,137.089 230.949,149.412c-2.261,2.301 -21.495,-8.843 -42.738,-24.764zM710.696,128.493c-113.689,-93.967 -184.988,-122.544 -281.154,-112.692c-56.645,5.803 -106.701,26.098 -155.916,63.215c-42.641,32.158 -59.779,30.149 -22.522,-2.64c43.327,-38.133 115.547,-69.061 174.07,-74.545c83.729,-7.847 145.091,9.04 222.284,61.172c79.782,53.879 123.894,91.574 107.588,91.936c-6.617,0.147 -26.575,-11.753 -44.35,-26.444z" /></svg>