<svg xmlns="http://www.w3.org/2000/svg" width="183.608" height="182.599" viewBox="0 0 1836.085 1825.987"><path d="M589.063 1820.87c-37-7-20-27 29-35 117-18 287-89 349-145 14-13 30-23 36-23s24-17 39-37c16-21 33-42 39-48 26-23 50-74 62-130 16-73 17-115 4-115-5 0-10 5-10 11 0 34-213 229-251 229-10 0-20 4-24 9-3 5-36 20-73 33-55 19-87 23-182 23-114-1-150-8-280-57-53-20-150-77-150-88 0-6-6-10-13-10-21 0-129-120-123-137 5-12 12-10 38 9 143 102 284 151 438 152 120 1 200-22 261-74 24-21 41-41 38-45-4-3-43-1-86 5-63 8-100 7-174-4-105-15-148-31-213-75-25-17-47-31-51-31-13 0-98-87-133-135-20-27-39-52-43-55-9-7-56-112-79-175-42-121-51-311-13-303 10 2 24 40 44 117 50 193 146 335 283 419 54 32 70 37 136 40l75 3-41-28c-102-69-227-225-246-308-4-16-15-61-24-100-46-198 44-475 204-627 33-32 65-58 71-58 23 0 20 21-8 52-37 43-115 206-135 285-25 96-21 244 8 315 23 56 72 126 90 127 4 1 5-20 1-46-13-88-7-205 15-275 35-114 129-263 190-302 14-8 43-31 65-51 22-19 46-35 54-35 7 0 28-9 46-20 62-38 159-67 247-75 151-12 226 16 107 40-217 44-402 161-478 301-39 73-67 204-43 204 4 0 16-14 25-30 31-51 125-147 185-187 31-21 95-51 142-67 76-27 98-30 200-30 98 1 127 5 200 28 100 33 151 58 201 97 20 16 39 29 42 29s31 25 62 56c37 37 55 63 53 76-3 20-4 20-30-2-44-34-179-106-233-123-178-56-362-42-467 36-57 42-47 46 105 46 163 0 203 9 316 72 91 51 183 141 242 240 54 89 56 93 81 194 35 145 36 275 3 275-9 0-15-10-15-23 0-80-89-297-156-378-24-30-44-56-44-59s-18-16-40-30-40-28-40-31-26-18-57-32c-65-29-163-46-163-29 0 6 24 30 53 54 213 175 298 405 237 641-18 72-84 236-98 247-4 3-26 30-49 61-48 62-118 123-133 114-5-3 16-47 47-97 120-198 152-402 87-561-26-62-77-128-90-115-3 3 0 42 6 85 21 154-20 310-116 443-90 125-279 239-439 265-87 14-165 17-213 8"/></svg>