<svg xmlns="http://www.w3.org/2000/svg" width="231.13" height="214.202" viewBox="0 0 2311.295 2142.023"><path d="M292.963 2073c-36-39-99-108-141-152-135-145-160-174-150-178 5-1 44-36 87-76l77-74 33 36c18 20 37 36 41 36s46-37 93-81 124-117 173-162c48-45 87-88 87-96 0-13-27-44-198-223l-64-67 72-68c39-37 79-72 87-77 17-10 37 9 293 283 74 79 149 158 165 176 32 34 230 246 287 308l35 38-84 82-85 82-20-25c-48-59-244-260-254-260-6 0-38 26-71 58-34 31-111 104-172 160-61 57-111 108-111 114s13 26 30 44l30 34-81 78c-45 42-84 78-88 79-3 1-35-30-71-69m879-636c-24-26-72-77-107-114l-64-67 50-48c130-125 151-143 156-135 3 5 34 17 68 27 35 9 68 20 73 25 6 4 39 15 75 25 114 31 115 27-12 146-62 57-131 123-154 146l-42 41zm-320-340c-41-43-88-94-106-114l-31-35 101-95c56-52 127-118 157-146 60-57 67-59 113-37 28 13 66 27 183 67l31 10-22 61c-14 39-35 71-56 90-19 17-70 64-114 106s-103 98-131 124l-51 47z"/><path d="M1505.963 1093c-18-6-33-14-33-18s-12-11-27-15c-21-5-120-48-141-61-2-1 11-33 29-71 22-48 44-78 76-103 24-19 55-44 67-55s37-31 56-45c18-14 43-33 54-42 23-19 87-71 131-105l29-23-31-37c-16-21-35-38-41-38-5 0-27 14-47 30-82 67-113 91-145 115-18 14-42 32-53 41-18 14-24 14-46 3-65-34-261-124-270-124-21 0-11-19 21-42 18-12 40-30 48-38 9-8 31-26 50-40 37-28 178-139 197-155 6-5 46-37 88-70 43-33 116-92 164-130l87-70 169 12c207 14 299 22 344 29 31 5 33 7 26 37-3 18-17 95-30 172-47 284-57 330-68 337-11 6-156 119-184 143-6 5-46 37-88 70-75 58-272 215-347 275-40 33-39 33-85 18"/></svg>