<svg xmlns="http://www.w3.org/2000/svg" viewBox="0 0 794 801" width="794" height="801"><path d="M498.104,400.603c0.473,-5.201 0.094,-10.939 0,-16.136c-0.134,-7.3 -1.475,-14.331 -2.231,-21.504c-0.379,-3.105 -0.755,-6.365 -0.473,-9.502c0.898,-6.632 -1.305,-14.434 -4.169,-20.435c-2.097,-4.566 -3.26,-10.565 -6.397,-14.335c-2.598,-3.133 -5.47,-6.507 -8.334,-9.502c-5.967,-6.001 -10.933,-13.034 -16.669,-19.403c-5.967,-6.77 -15.597,-9.234 -22.77,-14.603c-3.403,-2.317 -7.164,-1.655 -10.934,-2.599c-3.938,-1.028 -7.699,-1.955 -11.469,-2.333c-2.201,-0.228 -4.165,-0.794 -6.132,-1.172c-3.505,-0.474 -7.038,-0.378 -10.403,-0.756c-2.098,-0.226 -4.17,-1.153 -6.267,-1.531c-2.874,-0.66 -5.736,0.095 -8.705,-0.378c-9.902,-1.834 -19.938,0.273 -29.571,3.137c-9.002,2.331 -16.937,6.904 -25.537,10.269c-5.733,2.599 -11.337,5.869 -17.035,8.6c-3.811,1.834 -6.805,4.934 -5.605,7.665c-2.241,0.265 -5.367,6.399 -6.672,7.968c-3.1,3.13 -5.329,6.363 -7.531,10.133c-2.228,3.672 -4.035,7.565 -6.132,11.203c-2.467,4.296 -3.373,9.134 -5.736,13.434c-2.337,4.429 -4.801,8.465 -6.768,13.134c-1.794,4.7 -3.23,9.506 -5.197,14.202c-2.098,4.432 -2.731,9.904 -4.3,14.335c-1.571,4.665 -3.904,9.107 -5.605,13.803c-2.588,7.801 -2.021,16.666 -1.832,24.87c0.132,4.434 1.568,8.734 2.731,12.903c1.2,5.066 1.607,10.264 2.363,15.235c1.294,9.101 2.693,18.733 2.599,27.871c-0.132,5.068 0.462,9.998 1.031,14.969c0.662,6.503 0.756,12.503 0.756,19.005c0,3.899 -0.284,8.199 0.378,12.103c0.794,3.403 2.258,6.805 2.731,10.301c0.934,4.296 1.566,7.67 3.533,11.469c2.072,4.439 4.537,8.597 6.768,12.869c1.836,3.67 2.6,7.431 4.169,11.069c2.468,5.501 5.473,10.705 8.204,16.035c1.974,3.899 3.269,8.199 4.838,12.103c2.062,5.6 5.067,10.433 6.768,16.169c0.899,2.969 1.662,5.699 2.731,8.705c1.664,4.832 4.037,7.969 6.768,12.269c1.571,2.599 3.638,4.537 5.605,6.768c3.773,4.3 7.533,5.605 12.504,8.469c6.501,3.631 12.505,8.705 20.036,9.367c9.27,0.66 18.367,3.647 27.505,0.282c4.401,-1.701 7.398,-5.85 12.369,-6.132c1.662,0 3.362,0.282 4.931,0c2.598,-0.405 3.77,-1.833 6.001,-3.269c3.365,-2.203 7.797,-2.203 10.934,-5.067c2.998,-2.734 6.503,-4.696 9.367,-7.665c1.832,-1.701 3.128,-4.3 5.197,-5.605c1.295,-0.691 2.626,-0.5 3.931,-1.069c3.638,-1.566 5.605,-5.971 8.204,-8.835c1.673,-2.098 3.148,-3.536 3.904,-6.267c0.897,-2.864 2.598,-4.435 4.034,-6.768c2.07,-4.038 3.403,-9.1 4.801,-13.269c1.342,-3.936 2.871,-7.035 4.838,-10.834c1.966,-3.631 3.137,-8.073 5.736,-11.569c0.636,-1.039 1.806,-1.834 2.468,-3.006c2.1,-3.001 2.733,-6.632 4.169,-9.769c1.426,-3.265 3.629,-6.137 4.829,-9.502c0.407,-1.569 0.407,-3.77 1.163,-5.339c0.396,-0.804 1.039,-1.211 1.701,-1.967c1.936,-3.265 3.372,-8.464 4.535,-12.234c1.287,-4.701 1.287,-9.508 2.231,-14.204c1.426,-6 4.668,-11.596 5.831,-17.569c0.802,-4.568 2.2,-9.134 2.769,-13.669c0.191,-3.532 -0.282,-7.301 -0.282,-10.969c0,-4.538 0.492,-8.703 1.436,-13.269c1.333,-5.334 1.05,-10.306 1.806,-15.503c0.625,-6.37 1.663,-13.407 1.569,-19.804c0,-4.933 -0.568,-9.771 0.094,-14.702c0.263,-2.995 1.55,-5.736 1.832,-8.6zM520.126,392.656c0.66,5.734 0.282,11.598 0.282,17.203v36.073c0,5.469 -0.361,10.806 -1.305,16.003c-0.569,4.296 -1.513,8.065 -0.569,12.234c0.264,2.097 -0.927,3.904 -1.305,6.001c-0.473,2.067 -0.568,4.431 -0.662,6.633c-0.444,4.702 -0.256,9.373 -1.2,14.069c-0.899,4.304 -1.787,8.604 -2.731,13.035c-1.297,5.97 -3.498,11.703 -5.067,17.704c-1.836,7.035 -3.403,13.936 -6.267,20.704c-3.9,9.502 -8.569,18.375 -12.869,27.606c-5.2,10.434 -10.304,20.203 -17.969,29.038c-3.126,3.77 -5.867,7.835 -8.731,11.869c-2.731,3.632 -6.132,7.035 -8.6,11.069c-3.503,5.466 -5.999,11.697 -10.534,16.535c-3.9,4.169 -8.606,7.8 -13.803,10.133c-3.796,1.701 -7.83,2.771 -11.734,4.169c-6.001,2.363 -10.937,6.001 -16.134,9.669c-10.435,6.909 -20.703,7.003 -32.972,7.003c-4.269,0 -8.834,0.569 -13.134,0c-6.135,-0.501 -12.103,-3.365 -18.104,-4.801c-9.502,-2.101 -17.336,-8.473 -25.406,-13.803c-2.871,-1.834 -5.971,-3.535 -8.835,-5.472c-4.031,-3.138 -6.904,-7.304 -10.703,-10.669c-3.099,-3.135 -4.667,-6.395 -6.898,-10.033c-4.938,-8.602 -11.07,-16.538 -13.669,-26.171c-3,-11.336 -7.801,-21.903 -11.835,-32.972c-2.863,-8.068 -4.299,-16.667 -7.294,-24.737c-3.127,-8.336 -6.36,-17.44 -7.796,-26.305c-1.333,-7.802 -1.92,-15.899 -2.864,-23.837c-0.935,-9.102 -3.137,-17.709 -5.104,-26.705c-2.731,-11.301 -2.069,-22.903 -2.069,-34.506v-14.834c0,-1.559 0.284,-3.127 0.378,-4.696c0.405,-4.402 1.058,-8.571 1.436,-13.002c0.822,-10.168 0.131,-20.338 1.2,-30.472c0.5,-4.433 1.975,-8.602 2.069,-12.902c0.094,-3.903 -0.575,-7.296 0.756,-10.934c2.605,-6.767 6.236,-13.537 9.769,-19.669c3.9,-6.266 7.265,-12.638 11.169,-18.77c5.367,-8.067 11.867,-15.105 18.369,-22.136c1.568,-1.664 2.098,-4.034 3.799,-5.698c5.2,-5.6 11.833,-10.295 17.569,-15.634c9.637,-8.466 20.037,-14.204 31.906,-19.135c4.304,-1.843 8.604,-3.533 13.035,-4.838c6.769,-1.964 13.273,-4.838 20.304,-6.369c6.635,-1.437 13.141,-2.506 19.804,-2.506c6.367,-0.131 12.104,2.505 18.236,3.668c6.369,1.038 13.137,0.633 19.404,2.069c4.402,1.174 7.805,4.575 11.169,7.306c5.366,4.036 8.463,5.605 15.135,5.605c6.635,-0.131 12.865,-0.266 18.204,4.3c2.636,2.201 4.573,4.932 6.936,7.531c1.804,1.833 3.64,2.864 5.973,4.064c5.866,3.5 9.003,6.897 12.103,13.003c3.271,6.267 6.265,12.637 10.169,18.769c5.463,8.568 6.503,18.235 8.6,28.237c1.171,6.767 2.607,13.572 3.77,20.47c1.162,7.802 3.006,15.472 3.668,23.305c0.662,5.466 0.375,11.063 0.944,16.535z" /> <path d="M242.132,489.765c1.17,3.894 4.034,4.167 5.339,5.33c2.09,1.835 2.468,3.8 2.468,6.531v6.369c0,1.161 -0.378,2.685 0,3.629c0.672,1.568 2.372,2.731 3.403,3.931c2.334,2.965 3.005,6.502 4.706,9.733c0.767,1.569 1.843,2.864 2.599,4.3c2.062,3.136 2.912,6.396 3.006,10.034c0.095,3.896 -0.094,7.704 -0.094,11.333c0,4.031 -0.669,8.066 1.163,11.734c2.069,3.632 2.826,7.035 3.77,11.069c0.671,3.1 2.468,5.197 4.3,7.796c5.33,6.635 10.34,13.169 10.434,22.004c0,4.565 0,8.338 0.756,12.769c0.396,1.836 0.632,3.498 1.701,5.067c1.304,2.097 3.099,3.137 4.535,5.234c1.967,2.732 3.269,6.238 5.5,8.969c1.173,1.966 2.741,3.128 3.904,5.197c3.233,5.464 8.468,9.405 11.833,14.602c2.869,4.431 10.172,6.226 15.103,7.531c10.567,2.638 20.838,5.737 31.772,7.569c6.533,0.907 12.768,-0.568 19.536,-0.662c6.535,0 12.273,-0.501 18.104,-3.904c4.832,-3.007 9.768,-5.605 14.334,-8.705c9.102,-6.135 16.274,-14.337 25.005,-20.97c6.901,-5.6 14.201,-10.432 20.57,-16.669c4.566,-4.301 5.869,-10.563 8.6,-16.035c2.862,-5.466 5.866,-10.531 9.231,-15.369c4.035,-5.2 7.834,-9.905 10.302,-15.869c3.132,-7.435 7.033,-13.806 11.202,-20.469c3.023,0.534 3.307,7.832 3.496,9.901c0.661,5.334 2.191,9.763 2.097,15.235c0,4.969 1.938,8.607 3.269,13.303c0.501,2.203 0.908,4.168 1.664,6.237c0.669,2.467 2.381,4.299 3.137,6.898c1.701,4.965 1.568,10.297 7.173,12.234c1.937,0.472 4.035,0.284 5.736,0.378c2.995,0.396 5.964,1.302 8.6,2.333c4.035,1.438 8.701,3.138 12.369,5.369c4.529,2.865 7.533,7.8 11.702,11.069c4.567,3.496 9.138,7.663 14.069,10.669c3.265,1.832 6.269,4.932 9.634,6.237c1.963,0.804 4.3,1.211 6.132,1.967c8.601,3.4 17.172,10.033 24.336,15.769c4.702,3.765 10.8,7.037 14.069,12.234c2.599,3.769 5.727,7.538 7.796,11.602c5.369,10.002 -0.898,22.901 -9.733,28.506c-3.8,2.598 -8.235,4.43 -12.269,6.898c-6.769,4.166 -13.407,9.363 -21.203,11.869c-8.468,2.738 -15.638,7.001 -23.471,10.534c-6.501,2.871 -13.266,4.932 -19.635,7.938c-3.267,1.57 -6.669,2.6 -9.769,4.169c-1.303,0.653 -2.598,0.842 -4.034,1.031c-2.734,0.804 -5.237,2.864 -7.968,4.169c-17.168,8.238 -35.538,12.774 -54.307,15.769c-10.27,1.702 -19.903,4.564 -29.806,6.633c-10.803,2.37 -22.004,3.798 -32.838,5.234c-13.269,1.673 -26.403,2.203 -39.706,3.904c-13.136,1.692 -26.572,1.023 -39.706,-0.944c-8.47,-1.436 -17.205,-3.1 -25.805,-3.1c-2.732,0 -5.605,0.284 -8.204,-0.094c-3.638,-0.662 -7.032,-2.202 -10.802,-2.864c-7.433,-1.566 -14.467,-4.035 -21.736,-6.132c-6.136,-1.701 -11.6,-4.67 -17.469,-7.306c-5.064,-2.069 -9.364,-4.535 -14.202,-7.399c-3.904,-2.336 -8.569,-4.3 -13.135,-5.605c-3.269,-1.033 -6.001,-3.13 -9.138,-4.566c-3.106,-1.702 -6.366,-2.741 -9.769,-3.904c-4.164,-1.293 -8.2,-2.862 -12.234,-4.931c-12.234,-6.135 -23.705,-13.032 -35.139,-20.469c-7.567,-4.666 -14.468,-9.099 -21.236,-14.835c-5.866,-4.969 -11.605,-9.767 -16.935,-15.503c-2.465,-2.996 -3.94,-5.065 -4.034,-8.969c-0.13,-2.232 -0.13,-2.724 1.967,-3.668c2.97,-1.569 5.568,-3.772 8.204,-5.869c6.101,-4.666 12.738,-9.77 19.636,-13.135c2.995,-1.425 5.736,-2.995 8.731,-4.431c2.099,-1.038 4.037,-1.7 5.869,-3.269c4.936,-4.3 12.108,-7.269 18.505,-9.101c11.433,-3.531 16.004,-14.331 23.035,-23.036c2.191,-2.626 4.932,-4.696 7.796,-6.898c1.835,-1.436 3.535,-2.862 5.104,-4.431c2.465,-2.239 4.934,-4.705 7.031,-7.569c3.901,-5.201 9.232,-9.374 13.002,-14.704c2.363,-3.268 4.961,-7.698 6.397,-11.602c5.065,-12.769 5.065,-27.072 7.796,-40.506c1.919,-10.136 0.756,-20.838 0.756,-30.972c0,-5.867 -0.282,-11.733 0,-17.469c0.105,-1.927 0.643,-2.995 1.305,-4.696c0.38,-0.897 1.231,-0.897 0.662,-2.202z" /> <path d="M669.673,292.188c0.282,-3.638 0.282,-7.531 -1.031,-10.802c-1.701,-4.431 -5.339,-7.938 -7.569,-11.969c-2.599,-4.971 -6.106,-7.164 -9.869,-10.934c-1.436,-1.436 -2.636,-3.269 -3.931,-4.838c-2.202,-2.864 -5.067,-4.931 -8.07,-6.768c-2.599,-1.701 -4.801,-3.904 -7.665,-5.33c-1.967,-0.944 -3.904,-1.163 -6.132,-1.701c-6.633,-1.569 -13.269,-4.838 -19.535,-7.665c-4.669,-2.231 -9.101,-4.971 -14.069,-6.936c-4.169,-1.305 -7.665,-2.468 -11.434,-4.801c-7.306,-4.169 -14.334,-7.703 -22.67,-9.367c-10.302,-1.967 -18.903,-7.833 -26.57,-14.602c-4.696,-4.3 -9.101,-7.938 -14.203,-11.569c-5.472,-4.064 -9.634,-9.138 -15.103,-13.034c-8.865,-6.633 -16.269,-15.636 -20.169,-26.306c-2.231,-6.633 -3.533,-13.402 -3.799,-20.335c-0.189,-7.003 0.662,-14.035 2.097,-20.937c0.756,-3.403 2.069,-6.898 2.333,-10.301c0,-1.701 -0.282,-3.496 0,-5.067c0.569,-4.034 5.197,-8.865 8.07,-11.602c1.305,-1.163 2.363,-1.436 3.799,-2.468c3.496,-2.231 5.973,-5.736 9.367,-8.07c1.436,-0.944 2.995,-1.305 4.566,-2.097c1.305,-0.569 1.794,-1.569 2.969,-2.468c2.231,-1.701 6.898,-1.967 9.533,-2.468c2.864,-0.756 5.605,-1.569 8.469,-2.363c2.834,-0.473 5.964,-0.189 9.101,-0.756c4.3,-0.756 8.865,-1.569 13.134,-1.569c2.097,0 3.931,0.756 5.869,1.305c2.864,0.569 5.234,-0.944 8.07,-1.031c3.006,-0.094 7.031,1.701 9.669,2.864c2.834,1.305 4.262,3.365 6.768,5.067c4.034,2.731 7.665,6.132 11.569,9.138c3.403,2.468 5.605,5.831 8.07,9.231c2.097,2.995 3.403,6.768 5.234,9.901c2.995,4.931 2.599,9.101 1.305,14.835c-1.031,3.904 -1.436,8.731 -3.533,12.369c-1.031,2.231 -2.731,4.169 -4.405,6.001c-0.756,0.944 -1.2,1.832 -2.506,2.202c1.701,-1.031 1.701,-4.034 2.231,-5.869c0.473,-2.599 1.806,-5.568 1.937,-8.07v-5.736c0.094,-2.731 -1.031,-3.231 -2.468,-5.197c-0.944,-1.436 -1.569,-3.231 -2.731,-4.566c-1.436,-1.436 -3.496,-2.333 -5.067,-3.365c-8.865,-7.306 -20.469,-10.169 -30.472,-15.503c-2.864,-1.436 -5.234,-1.305 -8.334,-1.305c-3.137,-0.094 -5.472,-0.944 -8.469,-1.436c-3.269,-0.569 -8.6,0.094 -11.733,1.436c-1.163,0.378 -2.069,1.305 -3.006,1.967c-5.736,4.169 -11.569,7.796 -15.504,13.934c-3.629,5.831 -8.334,12.603 -7.796,19.77c0.282,3.904 2.599,8.204 4.169,11.734c1.832,3.904 3.629,7.164 6.001,10.669c2.202,2.995 4.034,6.132 5.869,9.367c1.305,2.363 3.1,4.064 4.535,6.267c3.668,5.067 7.833,9.502 12.234,14.069c3.799,3.77 8.6,6.369 12.769,9.769c8.204,6.502 18.104,11.969 27.871,16.134c6.267,2.468 12.769,4.3 19.036,7.173c5.973,2.731 11.569,5.605 17.836,7.665c13.269,4.838 26.305,7.294 38.806,14.069c3.638,1.967 9.769,3.799 12.369,7.306c0.944,1.031 1.305,2.995 1.832,4.169c1.305,2.731 2.969,5.339 4.931,7.703c2.731,2.969 5.605,6.094 8.334,9.367c4.838,6.094 8.07,13.269 8.996,21.103c0.662,4.3 1.163,6.898 2.969,11.069c2.231,4.535 2.494,8.334 2.363,13.269c0,9.903 0.756,20.069 0,29.838c-0.944,8.969 -4.838,17.169 -10.033,24.47c-6.001,8.865 -14.835,15.369 -18.904,25.404c-1.806,4.535 -5.472,7.173 -9.502,9.903c-4.931,3.629 -10.133,7.031 -15.369,10.403c-5.472,3.533 -10.669,8.6 -16.803,11.069c-2.834,1.305 -5.698,1.832 -8.705,2.864c-8.996,3.137 -17.203,8.334 -26.305,11.202c-7.164,2.333 -14.602,4.431 -21.904,7.173c-6.502,2.468 -8.835,1.569 -14.969,-1.701c-3.137,-1.967 -7.665,-3.77 -8.705,-7.796c-1.569,-5.472 0,-13.434 0,-18.904c0,-2.069 -0.662,-4.931 0.944,-6.106c1.569,-1.163 4.801,-0.094 6.633,-0.378c0.094,0 0.282,-0.756 0.944,-0.944c2.097,-0.378 4.971,0 7.031,-0.094c6.672,-0.569 13.434,-1.436 19.804,-3.137c8.865,-2.468 17.704,-4.696 26.438,-7.938c18.369,-7.031 33.071,-20.97 44.406,-37.139c6.502,-9.367 12.634,-19.27 14.969,-30.838c0.756,-4.971 2.506,-9.903 2.731,-14.869c0,-1.305 0.094,-2.731 0.094,-4.169z" /> <path d="M210.345,518.245c1.032,3.634 -1.53,8.069 -1.436,12.103v7.796c0,3.904 1.163,5.889 -3.137,6.267c-5.201,0.662 -12.768,1.154 -17.835,-0.282c-5.867,-1.702 -11.197,-6.503 -16.669,-9.367c-3.769,-2.107 -8.2,-3.941 -12.369,-5.472c-4.17,-1.559 -6.899,-3.932 -10.302,-6.663c-6.902,-5.202 -14.44,-9.906 -17.435,-18.336c-1.303,-3.931 -3.09,-7.835 -4.034,-11.869c-0.67,-3.766 -0.945,-7.67 -1.701,-11.469c-1.294,-7.034 -1.843,-14.069 -2.599,-21.203c-0.538,-4.033 -1.844,-6.273 -3.638,-9.769c-1.701,-3.006 -2.995,-6.143 -4.696,-9.138c-1.965,-3.497 -2.864,-7.401 -4.696,-10.934c-1.796,-3.273 -4.535,-5.34 -6.502,-8.204c-4.036,-5.602 -8.868,-11.07 -13.669,-15.636c-4.435,-4.173 -9.897,-9.105 -15.369,-11.969c-3.271,-1.568 -6.769,-1.975 -10.302,-2.731c-3.907,-1.032 -7.669,-2.77 -11.703,-2.864c-2.468,-0.094 -5.605,-0.869 -7.968,0.662c-1.528,0.935 -2.598,2.636 -4.034,3.799c-4.807,3.9 -9.503,8.973 -13.803,13.669c-1.03,1.038 -1.787,2.2 -2.731,3.269c-0.763,1.531 -1.605,3.233 -1.794,5.33c-0.274,4.432 0.749,9.233 1.031,13.533c0.132,13.669 10.166,22.404 17.435,32.573c5.601,8.069 15.101,12.601 19.27,22.005c4.708,10.802 6.805,24.07 6.805,35.672c0,13.535 0.228,28.138 -6.936,39.84c-0.5,0.937 -1.153,1.844 -1.531,2.506c-2.864,4.036 -7.968,8.07 -12.002,10.669c-2.193,1.426 -4.659,1.7 -7.031,2.731c-1.794,0.633 -3.23,2.2 -4.931,3.269c-4.566,2.186 -11.604,2.468 -16.535,2.468c-2.469,0 -5.34,0.379 -7.703,-0.094c0,-2.191 4.3,-1.528 5.736,-2.097c1.305,-0.368 2.106,-1.275 3.137,-1.937c2.202,-1.832 4.574,-2.589 7.173,-3.533c4.936,-1.438 8.838,-2.466 12.769,-5.869c3.504,-3.1 6.777,-7.134 8.571,-11.434c2.505,-5.332 4.169,-10.165 4.169,-16.034v-15.869c0,-8.201 -1.305,-17.197 -5.605,-24.37c-2.468,-4.168 -5.34,-8.703 -8.705,-12.502c-4.435,-4.666 -10.303,-7.537 -14.869,-12.103c-4.398,-4.567 -8.331,-10.172 -12.101,-15.369c-3.762,-5.735 -8.423,-11.338 -9.367,-18.369c-0.376,-4.3 -0.094,-8.334 -0.094,-12.634c0,-4.397 -0.85,-8.969 0.094,-13.535c0.767,-3.265 1.843,-6.63 2.599,-10.033c0.763,-2.996 1.437,-6.37 3.269,-8.969c2.599,-3.266 4.536,-6.405 6.633,-10.034c2.334,-3.892 5.328,-6.367 8.731,-9.231c4.265,-3.801 8.973,-6.901 13.669,-10.434c1.794,-1.389 2.463,-2.615 4.931,-2.333c6.902,0.284 13.938,0.379 20.836,0.473c3.896,0.131 7.563,1.106 11.333,1.2c5.336,0.136 9.24,2.97 13.936,5.067c2.203,1.04 4.3,1.701 6.237,3.137c3.664,2.599 6.263,6.106 10.033,8.705c5.465,3.665 10.938,7.965 15.634,12.634c5.072,5.102 8.606,11.597 13.803,16.435c1.569,1.305 3.356,2.468 4.3,4.169c0.736,1.163 1.023,2.202 1.305,3.365c1.437,5.069 2.201,10.436 3.77,15.503c0.937,2.333 1.937,3.903 2.506,6.502c1.153,5.735 1.531,11.873 1.531,17.704c-0.093,6.666 1.201,12.398 3.403,18.635c1.436,3.631 3.268,6.503 5.736,9.367c2.864,3.265 3.761,7.697 6.898,10.834c6,5.703 14.435,10.266 22.769,11.835c6.936,1.438 18.235,0.397 23.971,5.869c1.076,1.039 1.55,2.062 1.832,3.006z" /> <path d="M206.2,365.632c-4.169,-2.202 -8.865,-3.1 -12.769,-5.973c-5.472,-4.034 -7.437,-10.169 -9.633,-16.535c-2.202,-6.397 -2.864,-13.934 -2.864,-20.469c0,-3.77 0.662,-7.269 1.163,-10.802c0.282,-2.599 0.662,-5.869 1.569,-8.334c1.832,-4.169 4.696,-8.204 7.437,-11.833c5.067,-7.306 10.403,-14.335 15.634,-21.636c3.496,-4.931 7.399,-9.769 10.534,-15.235c2.731,-5.067 4.3,-10.534 5.472,-16.269c1.436,-7.938 4.838,-15.103 6.502,-22.936c1.294,-5.698 2.363,-11.703 2.599,-17.836c0.378,-5.605 0.378,-11.333 -0.756,-16.803c-0.378,-2.202 -0.944,-4.931 -1.832,-7.031c-0.756,-1.937 -2.333,-3.638 -3.365,-5.339c-2.231,-3.904 -3.668,-10.269 -7.833,-13.134c-1.531,-1.163 -3.365,-1.436 -5.067,-2.468c-1.832,-1.069 -3.403,-2.769 -5.197,-4.064c-5.339,-4.034 -11.469,-6.502 -17.969,-7.531c-3.006,-0.569 -6.531,-0.094 -9.502,-1.031c-1.069,-0.282 -1.967,-0.756 -2.995,-1.305c-7.569,-2.636 -15.369,-2.372 -23.305,-1.967c-2.231,0.282 -4.566,1.436 -6.805,1.701c-0.944,0 -1.531,0.094 -2.333,0.282c-1.163,0.473 -2.202,1.031 -3.496,1.531c-3.269,1.832 -6.397,2.864 -9.271,5.369c-5.067,4.535 -9.101,10.934 -11.333,17.435c-1.305,3.403 -2.731,6.633 -3.231,10.434c-0.662,4.034 -0.094,8.334 -0.094,12.502c-0.094,8.43 1.832,16.535 1.937,25.005c0.094,5.698 -0.189,13.669 -3.77,18.87c-1.031,1.163 -2.333,2.333 -3.231,3.77c-1.569,2.097 -2.097,4.838 -3.006,7.306c-1.069,2.599 -2.864,4.931 -4.3,7.306c-2.231,3.904 -4.696,7.665 -8.07,10.533c-0.756,0.756 -1.069,1.569 -1.832,1.967c-1.701,1.163 -3.269,1.163 -5.067,2.599c-2.231,1.832 -3.533,4.3 -6.267,5.33c-4.169,1.832 -8.469,3.137 -12.769,4.566c-5.605,1.937 -11.569,3.496 -17.169,5.605c-1.967,0.662 -3.403,0.756 -5.369,1.305c-0.756,0.094 -1.305,0.662 -2.333,0.756h-2.468c-4.034,-0.473 -4.971,-4.431 -7.569,-6.633c-1.664,-1.436 -6.369,-3.403 -5.964,-6.369c2.731,-0.944 5.472,0.378 7.938,1.031c3.269,0.756 6.237,0.756 9.633,0.756c8.731,0 14.969,-4.3 22.405,-8.07c7.031,-3.904 13.669,-10.401 16.535,-18.235c2.333,-6.237 4.3,-12.769 4.931,-19.269c0.944,-7.437 1.305,-14.969 1.305,-22.405c0,-4.669 -0.944,-10.669 0.094,-15.235c1.069,-3.904 2.494,-6.898 2.995,-10.802c0.569,-3.77 2.231,-7.031 3.668,-10.669c1.531,-4.169 2.333,-8.731 4.034,-12.902c5.472,-12.369 18.104,-20.304 28.105,-28.538c2.864,-2.333 6.132,-6.502 9.669,-7.399c1.305,-0.282 2.468,0 3.77,0.094c4.669,0.094 9.633,-1.701 14.202,-2.995c8.334,-2.333 16.004,-3.668 24.87,-3.668c6.237,0 12.103,0 18.235,1.331c6.237,1.531 11.435,3.629 16.769,7.134c5.369,3.533 10.569,6.898 15.369,11.069c5.605,4.971 11.869,11.202 15.769,17.603c6.267,10.534 11.601,22.77 13.269,35.039c0.944,7.134 0.662,14.304 0.662,21.47c0.094,7.306 -0.662,15.103 -2.731,22.27c-1.305,3.77 -2.202,7.306 -5.067,10.033c-1.701,1.937 -2.864,3.904 -4.034,6.106c-2.363,5.605 -3.799,11.603 -6.132,17.204c-3.006,7.437 -7.437,15.102 -13.169,20.569c-2.468,2.599 -5.197,4.566 -7.665,7.173c-2.731,2.995 -4.034,6.132 -5.869,9.502c-1.832,3.269 -3.137,7.173 -5.197,10.169c-5.197,7.294 -5.067,17.569 0.378,24.469c1.664,1.967 4.535,4.169 4.801,7.031c0.378,2.468 -1.701,4.696 -2.468,7.031c-1.701,4.431 -2.333,9.367 -3.629,13.803c-0.756,3.137 -2.506,6.001 -4.706,8.469c-0.756,-0.662 -1.832,-1.436 -2.731,-1.832z" /> <path d="M548.689,484.953c0,-1.832 0.282,-3.668 1.2,-4.838c2.834,-3.269 7.938,-0.282 10.934,1.163c9.769,4.696 20.305,9.271 29.306,15.369c10.401,7.031 21.87,15.369 28.505,26.57c2.995,4.931 6.267,9.101 10.034,13.403c4.669,5.33 7.399,13.803 8.835,20.603c0.569,2.468 0.378,4.801 0.662,7.269c0.094,1.832 1.031,3.533 1.305,5.33c0.094,2.864 -1.569,6.001 -1.701,8.996c-0.094,1.701 0.094,3.506 0.094,5.472c-0.094,4.931 1.967,9.367 2.468,14.202c0.569,5.067 2.731,9.633 3.269,14.704c0.378,4.169 3.403,7.306 4.431,11.069c0.473,1.701 0.473,3.668 0.944,5.472c0.944,3.533 3.006,6.001 6.001,8.204c2.864,1.967 5.736,3.931 8.469,6.001c3.231,2.333 6.106,4.566 10.269,5.067c3.799,0.569 7.306,2.097 11.069,1.832c8.731,-0.569 14.069,-6.001 20.705,-10.033c5.605,-3.496 10.969,-5.831 13.703,-12.234c2.069,-4.931 3.496,-9.101 1.569,-14.204c-1.436,-4.034 -1.569,-8.204 -3.137,-12.101c-1.832,-4.431 -3.403,-8.07 -4.431,-12.769c-0.662,-2.864 -1.967,-5.605 -2.202,-8.334c-0.094,-3.1 0.944,-6.502 1.806,-9.231c0.569,-2.333 0.569,-4.566 1.305,-6.768c0.662,-2.599 1.967,-5.197 2.864,-7.938c2.363,-6.663 6.633,-10.434 12.634,-14.469c2.333,-1.569 4.838,-2.864 7.031,-4.431c1.031,-0.662 1.305,-1.436 2.599,-1.305c0.094,2.468 -3.231,5.33 -4.566,7.306c-2.731,4.3 -5.339,8.334 -7.003,13.134c-4.696,12.769 -1.832,25.006 2.069,37.506c1.305,3.668 3.77,7.306 4.034,10.934c0.569,2.864 -0.944,5.5 -1.031,8.334c-0.282,4.3 -1.701,8.099 -2.995,12.002c-1.031,3.231 -1.436,6.768 -2.599,10.034c-2.995,8.571 -8.469,15.735 -15.503,21.736c-1.967,1.701 -3.496,3.496 -6.001,4.431c-1.664,0.756 -2.969,1.031 -4.535,2.202c-4.971,3.904 -9.502,7.031 -15.769,8.469c-2.864,0.756 -5.736,2.097 -8.865,2.202c-2.468,0 -4.535,-0.756 -6.768,-1.305c-5.736,-1.294 -10.269,-3.1 -15.369,-6.237c-9.769,-5.869 -17.035,-14.969 -20.835,-25.805c-2.731,-8.571 -5.197,-17.569 -8.07,-26.305c-2.202,-7.269 -3.638,-14.834 -6.001,-22.269c-2.202,-7.134 -2.969,-15.235 -6.094,-22.27c-1.569,-3.365 -3.668,-6.369 -5.067,-9.733c-1.701,-4.431 -2.363,-9.138 -4.696,-13.303c-3.533,-6.633 -9.769,-13.934 -15.634,-19.135c-7.938,-6.898 -20.569,-11.734 -30.606,-15.103c-3.006,-1.069 -6.106,-2.231 -9.367,-2.231c-2.333,-0.094 -5.472,1.163 -7.031,-1.163c-2.468,-3.638 2.864,-9.101 4.3,-12.103c1.436,-3.269 2.599,-7.031 3.269,-10.434c0.094,-0.756 0.094,-1.937 0.189,-2.969z" /> <path d="M233.039,221.343c1.794,-6.768 3.638,-12.769 7.134,-18.869c6.531,-11.203 15.503,-20.437 25.671,-28.538c3.77,-3.1 8.334,-4.669 12.769,-6.898c5.067,-2.333 10.034,-5.197 15.103,-7.665c4.566,-2.097 9.231,-2.731 13.934,-4.566c4.696,-1.569 9.101,-3.77 13.669,-5.736c17.569,-7.796 32.938,-23.306 42.706,-39.706c6.531,-10.434 12.369,-23.971 9.404,-36.606c-0.378,-2.202 -1.569,-4.169 -2.231,-6.237c-1.031,-2.864 -1.031,-5.869 -2.202,-8.865c-1.069,-3.006 -2.864,-6.001 -5.104,-8.6c-1.436,-1.937 -3.365,-3.365 -4.801,-5.605c-1.163,-1.664 -1.967,-3.496 -3.269,-5.197c-2.731,-3.496 -6.768,-6.001 -10.401,-8.865c-5.472,-4.169 -12.134,-8.204 -19.17,-9.869c-4.169,-1.069 -8.43,-0.378 -12.603,0.944c-3.269,0.944 -6.001,2.731 -9.271,3.269c-6.898,1.031 -14.969,6.106 -14.569,14.169c0.094,2.864 0,5.736 0,8.6c0,4.838 0.282,8.731 1.305,13.302c1.305,5.472 4.669,10.403 6.369,15.869c0.378,1.569 0.756,4.3 1.701,5.33c1.163,1.436 2.069,2.506 3.137,4.169c0.756,1.436 1.794,3.006 2.864,4.3c0.473,0.944 2.468,2.468 1.794,3.904c-1.031,-0.189 -2.069,-1.305 -3.1,-1.664c-2.506,-1.163 -3.533,-2.231 -5.736,-3.799c-3.137,-2.333 -6.54,-4.801 -9.404,-7.665c-2.333,-2.202 -3.1,-5.067 -4.801,-7.703c-1.436,-1.937 -3.269,-3.365 -4.566,-5.197c-3.77,-5.472 -2.731,-12.769 -2.599,-18.735c0,-7.569 -0.756,-14.069 3.904,-20.335c2.731,-3.77 4.838,-7.665 7.569,-11.335c2.599,-3.496 7.665,-5.067 10.802,-7.796c2.097,-1.701 4.034,-3.269 6.502,-4.3c2.506,-1.163 5.234,-2.864 7.703,-3.629c2.864,-0.662 6.898,-0.094 9.901,-0.094h8.469c8.334,0 16.669,1.569 23.804,6.132c4.566,2.834 8.996,6.502 12.634,10.269c4.3,4.034 8.865,7.294 12.502,11.969c3.269,4.3 6.397,8.865 8.204,13.835c0.756,1.664 1.701,3.1 2.506,4.669c3.006,6.898 3.365,14.835 4.169,22.005c1.163,10.434 1.937,21.236 0.756,31.672c-0.944,8.835 -2.599,19.904 -8.731,26.937c-1.531,1.569 -3.365,2.599 -5.067,3.904c-5.197,3.668 -7.531,10.169 -12.502,14.069c-4.3,3.533 -8.969,6.397 -13.269,9.502c-6.672,4.431 -13.702,6.898 -20.335,10.834c-5.197,2.969 -9.101,4.931 -14.969,6.106c-4.431,0.662 -7.796,2.097 -11.603,3.668c-2.864,1.031 -5.831,1.305 -8.571,2.599c-5.605,2.333 -10.569,6.369 -15.003,10.403c-4.535,3.904 -9.769,7.437 -13.535,12.103c-2.995,3.533 -4.931,7.437 -7.665,10.969c-3.533,4.535 -5.104,10.403 -8.469,15.103c-3.904,5.067 -7.031,11.335 -9.404,17.169c-1.531,3.931 -3.77,14.335 -10.002,9.769c-3.904,-2.864 -1.967,-8.469 -1.967,-12.769c-0.094,-5.33 1.031,-10.669 1.031,-16.003c-0.094,-3.629 0,-7.173 -3.1,-4.566z" /> <path d="M631,363.968c3.77,-3.403 7.703,-7.031 11.469,-10.434c4.669,-4.169 10.269,-6.768 15.503,-10.169c6.502,-4.169 12.769,-9.231 19.904,-12.234c4.034,-1.701 8.334,-2.731 12.269,-4.535c4.034,-1.967 7.665,-2.995 12.103,-3.137c6.633,-0.378 13.669,-3.77 20.435,-2.995c4.034,0.378 7.938,1.967 11.869,2.864c4.801,1.163 8.705,3.137 13.134,5.736c7.703,4.669 17.336,5.197 22.936,13.003c4.801,6.898 10.269,12.769 14.169,20.469c2.864,5.736 5.869,11.835 7.437,17.836c6.502,26.836 -8.6,56.108 -30.47,71.111c-6.369,4.405 -13.035,8.334 -20.437,11.069c-3.904,1.305 -7.968,2.468 -12.134,3.231c-4.169,0.756 -8.334,0.282 -12.603,1.069c-4.3,0.662 -8.6,0.756 -13.169,0.662c-2.599,0 -4.696,-2.202 -7.164,-1.937c0.569,0.094 1.031,0 1.569,-0.094c-0.094,-2.097 -2.468,-2.506 -3.638,-3.137c-2.231,-1.436 -3.403,-4.034 -5.104,-5.869c-1.664,-1.701 -3.638,-4.3 -4.669,-6.237c-0.756,-1.569 -0.094,-3.269 -0.662,-4.829c-0.282,-1.031 -1.163,-1.701 -1.031,-2.864c0.378,9.138 8.969,8.469 15.503,10.434c4.431,1.163 7.531,2.969 12.502,1.436c3.638,-1.2 7.269,-0.282 10.934,-1.2c3.904,-1.163 6.898,-5.472 10.934,-7.031c3.638,-1.531 7.437,-1.664 10.403,-4.405c3.668,-3.137 8.231,-3.931 11.869,-7.173c2.333,-2.231 4.931,-5.605 6.502,-8.469c3.006,-5.605 5.736,-11.603 5.736,-17.836c0,-6.132 0.094,-12.234 0.282,-18.104c0.094,-2.864 0.662,-5.869 0.378,-8.6c-0.282,-2.864 -2.097,-5.605 -3.006,-8.334c-0.756,-2.468 -1.569,-4.431 -3.77,-5.605c-5.234,-2.599 -9.271,-6.898 -15.003,-8.334c-7.665,-2.069 -15.369,-4.838 -23.17,-6.237c-6.898,-1.331 -15.903,0.662 -22.004,4.169c-2.468,1.398 -5.067,2.468 -7.703,3.638c-5.472,2.333 -9.769,6.001 -14.704,9.231c-4.696,3.137 -8.334,7.173 -13.035,10.034c-4.535,2.731 -8.334,6.768 -11.969,10.301c-3.496,3.365 -7.569,2.864 -11.969,4.034c-5.472,1.794 -9.769,5.197 -14.603,8.204z" /></svg>