<svg xmlns="http://www.w3.org/2000/svg" viewBox="0 0 950 960" width="950" height="960"><path d="M546.378,957.764c-4.012,-1.153 -9.002,-1.65 -11.087,-1.104c-3.453,0.903 -3.868,-1.417 -4.654,-25.985c-0.474,-14.837 -1.545,-29.857 -2.378,-33.378c-0.833,-3.521 -1.926,-8.439 -2.426,-10.93l-0.909,-4.529l-14.431,5.281c-14.373,5.26 -23.17,8.1 -54.258,17.513l-16.355,4.953l1.118,11.993c0.615,6.596 1.836,15.435 2.712,19.642l1.594,7.648l-36.502,2.507c-54.382,3.734 -213.274,3.172 -224.281,-0.793c-4.694,-1.691 -14.297,-3.102 -21.338,-3.136c-22.269,-0.107 -22.405,-0.217 -22.405,-18.39v-15.755h11.964c10.033,0 11.755,-0.546 10.67,-3.375c-0.712,-1.856 -1.296,-10.036 -1.296,-18.177v-14.802l-19.951,15.883c-10.972,8.736 -26.051,19.825 -33.507,24.645c-12.093,7.816 -14.522,8.617 -22.488,7.423c-13.893,-2.083 -32.865,2.968 -36.782,9.793c-4.122,7.182 -24.582,13.705 -38.182,12.172c-5.137,-0.579 -9.875,-1.587 -10.528,-2.241c-1.714,-1.714 5.72,-20.951 10.04,-25.986c4.634,-5.4 10.563,-17.049 10.563,-20.754c0,-1.555 4.44,-9.963 9.866,-18.682c10.959,-17.611 17.873,-32.493 17.873,-38.47c0,-2.165 3.436,-10.487 7.634,-18.494c7.842,-14.955 12.252,-26.476 14.723,-38.464c0.775,-3.759 3.136,-9.04 5.247,-11.737c5.599,-7.15 18.086,-32.947 22.513,-46.511c2.107,-6.455 5.136,-15.356 6.729,-19.781c1.593,-4.425 2.899,-12.518 2.899,-17.986c0,-9.929 2.169,-18.97 7.724,-32.188c1.62,-3.854 2.947,-12.976 2.948,-20.272c0.002,-8.638 1.304,-15.607 3.734,-19.983c7.313,-13.17 15.47,-24.074 19.703,-26.339c5.137,-2.75 5.418,-8.854 1.228,-26.69c-1.654,-7.042 -4.149,-28.263 -5.544,-47.159c-2.453,-33.229 -2.389,-34.69 1.972,-44.548c5.46,-12.342 6.113,-35.822 1.316,-47.302c-2.693,-6.445 -2.813,-10.854 -0.77,-28.187c1.529,-12.963 1.927,-35.517 1.077,-61.107c-2.914,-87.821 -3.644,-97.692 -8.014,-108.327c-3.224,-7.845 -3.647,-11.133 -1.862,-14.467c2.827,-5.281 1.812,-53.313 -1.962,-92.994l-2.663,-27.992l13.094,-25.355c14.851,-28.756 21.252,-40.999 23.856,-45.626c0.99,-1.761 3.389,-6.272 5.331,-10.025l3.53,-6.824l48.202,-0.644c42.498,-0.568 48.856,-0.215 53.722,2.987c8.323,5.476 29.312,8.071 65.431,8.089l32.542,0.016v10.776c0,5.95 1.603,13.834 3.58,17.604c1.969,3.756 4.312,10.67 5.206,15.365c2.752,14.456 8.046,31.325 11.467,36.547c4.095,6.25 14.459,11.707 22.68,11.94c3.464,0.098 6.81,1.008 7.436,2.021c0.626,1.013 2.106,1.244 3.289,0.513c2.026,-1.252 17.1,-3.788 41.299,-6.95c5.868,-0.766 15.15,-4.078 20.626,-7.359l9.957,-5.966l-0.154,-26.042c-0.084,-14.323 0.477,-28.004 1.25,-30.401c1.669,-5.184 24.942,-19.123 35.537,-21.283c4.108,-0.837 8.615,-2.445 10.015,-3.571c2.881,-2.317 31.608,-6.228 44.104,-6.004c4.533,0.082 10.967,1.557 14.298,3.279c3.331,1.722 10.008,3.131 14.838,3.131c4.83,0 10.399,0.861 12.376,1.913c1.977,1.052 11.204,3.188 20.505,4.747c13.265,2.223 17.099,2.27 17.782,0.221c0.648,-1.943 11.35,-2.595 41.769,-2.542c45.144,0.081 46.202,0.363 53.459,14.397c1.918,3.709 5.229,7.676 7.357,8.815c6.778,3.628 12.933,30.532 14.687,64.205c1.17,22.456 -2.206,66.526 -7.11,92.822c-2.596,13.921 -2.973,31.046 -2.044,92.822c0.626,41.663 1.697,87.082 2.378,100.929c1.163,23.643 1.538,25.314 6.16,27.421c4.02,1.832 5.157,4.452 6.205,14.298c0.706,6.63 4.816,31.26 9.135,54.732c4.319,23.472 8.188,46.998 8.6,52.279c2.188,28.101 5.644,45.086 10.531,51.761c2.786,3.805 5.932,8.84 6.99,11.187c5.51,12.217 12.831,33.363 15.145,43.744c3.24,14.533 8.319,32.634 12.137,43.253c1.591,4.425 2.892,10.937 2.892,14.472c0,3.535 1.545,9.997 3.434,14.361c1.888,4.363 5.152,14.175 7.253,21.803c2.101,7.628 7.859,23.952 12.798,36.276c4.938,12.322 9.799,26.726 10.802,32.008c4.95,26.064 12.913,44.414 27.022,62.269c3.249,4.112 9.14,14.589 13.088,23.283c3.948,8.694 9.487,20.904 12.308,27.135l5.128,11.329l-6.093,6.093c-4.421,4.421 -8.969,6.444 -16.576,7.373c-5.766,0.704 -17.06,2.85 -25.099,4.767c-15.378,3.668 -13.181,3.78 -73.56,-3.738c-22.811,-2.841 -45.642,-2.438 -50.583,0.891c-2.315,1.56 -11.41,4.046 -20.212,5.527c-8.802,1.481 -20.325,4.068 -25.606,5.751c-9.087,2.896 -44.81,3.491 -130.593,2.176c-12.351,-0.189 -19.459,0.608 -21.232,2.382c-3.134,3.136 -22.998,3.246 -33.648,0.187zM336.628,913.28c6.202,-2.357 17.587,-5.18 25.299,-6.272c7.712,-1.092 14.181,-2.284 14.373,-2.648c0.192,-0.365 -0.328,-32.83 -1.155,-72.146c-1.471,-69.952 -3.696,-115.059 -7.894,-160.039c-1.15,-12.322 -2.695,-51.693 -3.433,-87.487c-0.933,-45.241 -2.61,-74.753 -5.5,-96.804c-2.287,-17.448 -4.169,-41.933 -4.182,-54.413c-0.016,-12.48 -1.954,-34.693 -4.312,-49.363c-2.358,-14.67 -5.177,-45.397 -6.264,-68.283c-1.087,-22.885 -3.46,-55.053 -5.274,-71.483c-1.814,-16.43 -4.705,-42.837 -6.427,-58.681c-1.721,-15.844 -3.659,-43.099 -4.305,-60.567c-0.646,-17.468 -1.75,-35.357 -2.452,-39.751c-1.216,-7.606 -1.743,-8.054 -10.946,-9.316c-5.317,-0.729 -19.964,-1.326 -32.548,-1.326c-20.618,0 -24.227,0.607 -36.511,6.136c-7.497,3.375 -19.393,7.772 -26.435,9.772c-7.042,2 -18.213,6.041 -24.825,8.981l-12.022,5.346l1.089,18.49c0.599,10.17 2.948,25.692 5.221,34.494c4.977,19.279 9.153,102.029 7.161,141.901c-0.704,14.083 -0.257,70.084 0.995,124.445c2.183,94.865 2.48,99.498 7.375,115.227c8.864,28.477 9.326,32.182 11.773,94.274c2.074,52.619 1.95,63.76 -0.919,82.672c-3.897,25.688 -4.449,90.714 -0.948,111.507c1.284,7.628 2.478,26.115 2.651,41.081c0.245,21.072 0.929,26.979 3.037,26.186c3.94,-1.484 31.437,4.237 46.357,9.647c36.744,13.322 53.042,15.254 71.023,8.42zM234.561,674.117c-1.312,-2.453 -2.547,-15.973 -2.742,-30.044c-0.355,-25.57 -0.352,-25.587 5.632,-30.748c11.953,-10.31 26.6,-4.674 31.406,12.084c2.283,7.958 2.858,44.395 0.787,49.793c-1.019,2.655 -4.647,3.375 -16.996,3.375c-13.743,0 -15.998,-0.557 -18.087,-4.461zM295.835,672.887c-0.782,-0.782 -1.422,-7.457 -1.422,-14.832c0,-7.375 -1.016,-18.148 -2.258,-23.939c-4.485,-20.911 4.315,-32.58 24.802,-32.89c7.861,-0.118 10.864,0.967 15.477,5.593c5.62,5.637 5.722,6.229 5.623,32.881c-0.056,14.928 -0.745,28.822 -1.534,30.876c-1.216,3.168 -4.303,3.734 -20.349,3.734c-10.403,0 -19.556,-0.64 -20.338,-1.422zM224.076,564.628c-1.109,-2.917 -2.301,-13.894 -2.648,-24.395c-0.712,-21.518 1.412,-25.975 14.432,-30.273c5.614,-1.852 8.37,-1.67 13.312,0.886c9.137,4.725 11.353,12.344 10.649,36.606l-0.616,21.231l-16.556,0.623c-15.925,0.6 -16.632,0.422 -18.572,-4.68zM296.973,560.789c-2.692,-2.692 -3.656,-34.777 -1.235,-41.088c1.971,-5.136 12.267,-9.697 21.886,-9.697c6.626,0 9.456,1.232 12.909,5.622c3.748,4.765 4.422,8.623 4.422,25.316v19.694l-9.9,1.357c-15.078,2.066 -25.248,1.63 -28.082,-1.204zM222.646,467.827c-3.76,-2.44 -9.032,-20.145 -9.581,-32.182c-0.587,-12.87 3.207,-18.324 15.262,-21.936c20.543,-6.155 34.533,16.503 27.721,44.899l-2.603,10.852l-14.191,-0.032c-7.805,-0.016 -15.277,-0.738 -16.607,-1.6zM285.952,463.199c-1.215,-2.27 -2.209,-10.833 -2.209,-19.029c0,-20.542 7.348,-35.775 18.244,-37.819c7.883,-1.479 18.243,1.674 22.551,6.864c3.564,4.295 6.751,44.733 3.94,49.987c-1.928,3.604 -4.612,4.124 -21.262,4.124c-16.655,0 -19.333,-0.519 -21.263,-4.128zM207.975,363.513c-3.618,-7.639 -4.275,-31.74 -1.094,-40.108c1.15,-3.025 4.612,-6.648 7.692,-8.051c4.629,-2.109 6.702,-1.92 11.952,1.093c3.493,2.004 8.026,3.645 10.073,3.645c7.491,0 13.446,9.627 14.95,24.171c0.782,7.552 0.606,16.179 -0.392,19.172c-1.738,5.215 -2.602,5.468 -20.905,6.122l-19.092,0.682zM275.585,365.435c-2.267,-4.441 0.66,-37.442 4.053,-45.695c3.135,-7.626 12.459,-11.216 24.752,-9.532c11.557,1.584 15.251,4.196 19.161,13.548c3.833,9.171 3.444,18.869 -1.218,30.367c-3.607,8.898 -4.572,9.663 -15.352,12.179c-17.071,3.985 -29.088,3.653 -31.396,-0.868zM212.792,268.346c-2.054,-2.054 -3.734,-6.669 -3.734,-10.258c0,-3.589 -1.057,-10.722 -2.349,-15.853c-2.765,-10.98 0.307,-23.325 6.648,-26.719c7.473,-3.999 21.095,-2.525 26.488,2.869c7.884,7.884 12.338,34.89 7.747,46.967c-1.824,4.798 -3.351,5.352 -16.537,6.007c-11.648,0.578 -15.267,-0.016 -18.262,-3.013zM278.413,257.342c-4.817,-4.817 -5.339,-7.029 -5.339,-22.604c0,-15.486 0.54,-17.805 5.238,-22.503c7.404,-7.404 24.703,-7.499 32.026,-0.176c10.102,10.102 12.457,30.722 4.806,42.1c-4.561,6.783 -5.731,7.292 -18.133,7.885c-11.752,0.562 -13.864,0.032 -18.597,-4.704zM204.53,164.716c-1.03,-2.717 -1.873,-6.171 -1.873,-7.674c0,-1.503 -1.555,-5.851 -3.456,-9.661c-3.262,-6.54 -3.219,-7.247 0.767,-12.638c2.322,-3.142 4.902,-7.853 5.734,-10.471c1.293,-4.072 3.024,-4.76 11.981,-4.76c9.437,0 10.792,0.622 13.726,6.295c1.791,3.462 3.262,7.543 3.269,9.068c0.007,1.525 1.299,5.238 2.872,8.25c4.57,8.759 5.922,16.702 3.584,21.071c-1.782,3.331 -5.077,4.18 -18.45,4.758c-15.363,0.663 -16.386,0.424 -18.153,-4.237zM268.249,166.859c-3.075,-3.716 -4.589,-23.385 -2.746,-35.672c2.092,-13.951 6.987,-18.078 21.441,-18.078c19.271,0 23.013,6.179 21.968,36.276l-0.63,18.138l-18.86,1.067c-14.017,0.793 -19.454,0.349 -21.173,-1.73zM594.479,907.99c2.79,-1.828 5.073,-4.262 5.073,-5.408c0,-3.41 27.139,-2.368 38.949,1.495c9.464,3.096 14.283,3.283 35.632,1.386c26.16,-2.325 36.509,-5.872 41.018,-14.056c5.256,-9.539 8.277,-56.006 10.579,-162.683c1.291,-59.855 1.996,-115.548 1.567,-123.763c-1.422,-27.17 -0.812,-125.438 0.948,-152.57c0.952,-14.67 3.592,-39.89 5.868,-56.043c3.432,-24.356 4.154,-42.022 4.232,-103.492c0.049,-40.767 1.024,-78.442 2.162,-83.724c1.138,-5.282 2.569,-33.352 3.18,-62.381c1.561,-74.133 3.297,-71.812 -56.011,-74.873c-33.796,-1.744 -40.222,-1.552 -49.479,1.476c-16.919,5.534 -28.897,4.597 -41.61,-3.257c-13.326,-8.232 -25.339,-8.993 -34.867,-2.209c-11.02,7.847 -12.269,14.049 -9.47,47.036c1.359,16.02 3.013,40.649 3.676,54.733c0.663,14.084 2.543,37.609 4.18,52.279c3.916,35.099 4.01,47.091 0.956,121.629c-4.603,112.361 -4.903,174.187 -0.912,188.539c3.937,14.163 3.192,52.409 -2.19,112.333c-1.634,18.191 -3.55,52.184 -4.259,75.54c-0.739,24.354 -2.295,44.347 -3.65,46.878c-3.71,6.932 -0.394,125.878 3.732,133.856c7.069,13.669 25.824,17.025 40.695,7.281zM583.26,732.507l-8.824,-0.805l-1.496,-19.957c-0.976,-13.021 -0.697,-21.452 0.805,-24.258c2.614,-4.884 11.106,-7.935 27.487,-9.876c10.498,-1.243 11.722,-0.897 17.604,4.986c7.306,7.306 8.183,15.773 3.121,30.122c-1.761,4.989 -3.201,11.227 -3.201,13.859c0,3.874 -1.526,5.039 -8.002,6.11c-8.033,1.327 -11.182,1.307 -27.495,-0.181zM658.495,728.08c-0.58,-0.94 -2.194,-8.239 -3.583,-16.219c-2.324,-13.344 -2.19,-14.962 1.663,-20.163c4.615,-6.227 27.053,-15.188 38.136,-15.231c12.887,-0.049 18.87,13.523 16.687,37.851l-1.387,15.471h-25.229c-13.876,0 -25.705,-0.77 -26.286,-1.709zM669.847,636.82c-3.869,-4.662 -7.324,-53.411 -4.34,-61.239c2.664,-6.989 9.707,-10.098 22.879,-10.098c20.092,0 24.26,7.613 24.26,44.316c0,16.792 -0.858,26.106 -2.56,27.808c-4.044,4.044 -36.759,3.404 -40.238,-0.787zM594.733,635.666c-2.063,-1.172 -4.617,-1.596 -5.676,-0.941c-3.661,2.262 -8.711,-1.434 -8.711,-6.378c0,-3.088 -1.612,-5.474 -4.267,-6.317c-3.193,-1.013 -3.795,-2.257 -2.395,-4.945c1.029,-1.975 2.548,-11.004 3.375,-20.064c1.043,-11.43 2.792,-18.111 5.71,-21.82c5.08,-6.459 18.379,-10.412 28.585,-8.497c12.303,2.308 15.081,8.077 16.697,34.688c0.781,12.851 0.904,24.711 0.273,26.354c-1.036,2.701 -10.022,5.984 -24.507,8.956c-2.934,0.602 -7.023,0.136 -9.085,-1.036zM581.303,514.091c-2.778,-4.494 1.366,-37.408 5.582,-44.341c3.919,-6.444 4.6,-6.69 18.503,-6.659c7.939,0.016 16.836,1.244 19.769,2.726c7.417,3.747 10.91,15.656 9.248,31.543c-1.18,11.293 -2.073,13.237 -7.325,15.952c-7.22,3.733 -43.571,4.352 -45.78,0.778zM672.829,509.453c-2.066,-3.343 -4.237,-41.251 -2.618,-45.731c2.333,-6.459 9.102,-9.585 21.549,-9.953c15.274,-0.451 19.403,5.017 22.852,30.254c3.786,27.704 4.279,27.047 -20.283,27.047c-11.275,0 -20.95,-0.727 -21.501,-1.617zM585.657,402.514c-1.655,-3.959 -3.178,-13.947 -3.386,-22.196c-0.315,-12.481 0.422,-16.12 4.39,-21.694c4.708,-6.612 4.972,-6.689 20.878,-6.078c14.347,0.551 16.546,1.205 20.097,5.973c5.15,6.913 7.384,29.955 4.084,42.125l-2.459,9.068h-40.597zM687.573,403.858c-9.682,-0.396 -17.729,-1.401 -17.883,-2.233c-0.797,-4.336 -2.253,-24.382 -2.566,-35.326c-0.329,-11.496 0.145,-12.875 6.045,-17.596c11.79,-9.434 28.043,-9.411 34.241,0.049c5.257,8.023 6.763,41.148 2.266,49.844c-1.948,3.768 -3.757,6.654 -4.021,6.416c-0.264,-0.238 -8.401,-0.758 -18.082,-1.153zM587.456,299.57c-6.16,-9.402 -3.665,-48.691 3.504,-55.179c2.373,-2.148 9.907,-3.816 21.148,-4.683c19.17,-1.478 25.917,0.528 29.7,8.829c2.522,5.536 0.892,47.136 -2.072,52.882c-1.657,3.212 -5.194,3.734 -25.274,3.734c-22.828,0 -23.429,-0.124 -27.007,-5.585zM675.532,291.11c-0.712,-1.856 -1.296,-8.98 -1.296,-15.831c0,-7.845 -1.349,-14.807 -3.645,-18.807c-4.816,-8.391 -1.339,-16.493 8.916,-20.779c18.172,-7.593 33.781,-0.978 36.223,15.35c0.678,4.529 2.181,12.328 3.341,17.333c3.037,13.097 2.647,17.036 -2.158,21.841c-3.59,3.59 -7.113,4.267 -22.177,4.267c-14.362,0 -18.166,-0.668 -19.205,-3.375zM594.371,183.294c-0.557,-1.633 -1.538,-8.971 -2.182,-16.306c-0.644,-7.335 -1.726,-18.882 -2.404,-25.659c-1.652,-16.52 1.629,-19.613 21.426,-20.2c12.759,-0.378 14.885,0.14 18.401,4.482c2.186,2.7 4.955,8.434 6.151,12.741c2.604,9.377 2.933,42.334 0.439,43.876c-0.968,0.598 -10.549,1.751 -21.29,2.562c-15.747,1.189 -19.725,0.899 -20.541,-1.495zM675.177,174.029c-4.583,-6.996 -5.968,-38.809 -1.964,-45.131c6.025,-9.514 27.317,-14.73 37.62,-9.216c6.201,3.319 10.204,14.541 11.762,32.975c0.971,11.494 0.557,17.586 -1.454,21.343c-2.681,5.01 -3.751,5.258 -22.675,5.258c-18.724,0 -20.058,-0.299 -23.287,-5.228zM795.866,913.454c0,-1.955 -16.875,-8.897 -28.273,-11.631c-5.557,-1.332 -5.868,-1.009 -5.868,6.102v7.509h17.071c9.389,0 17.071,-0.892 17.071,-1.981zM62.89,901.492c7.042,-1.613 20.004,-4.562 28.807,-6.55c8.803,-1.988 18.404,-4.828 21.338,-6.308c9.155,-4.62 23.472,-22.676 23.472,-29.603c0,-1.764 5.281,-7.11 11.736,-11.878c13.136,-9.705 13.688,-11.737 8.691,-32.008c-4.465,-18.109 -5.191,-19.205 -12.723,-19.205c-7.987,0 -14.173,4.507 -32.83,23.919c-7.795,8.111 -16.85,15.337 -20.887,16.669c-3.921,1.294 -7.74,4.282 -8.489,6.642c-0.76,2.396 -2.606,3.813 -4.18,3.208c-1.882,-0.722 -6.789,6.856 -14.757,22.785c-6.565,13.127 -14.063,27.171 -16.66,31.209c-4.487,6.977 -4.513,7.261 -0.521,5.699c2.311,-0.904 9.964,-2.964 17.005,-4.578zM865.982,900.451c5.116,-2.321 10.397,-4.226 11.737,-4.232c1.501,-0.007 2.676,-5.227 3.065,-13.615c0.541,-11.675 -0.294,-15.424 -5.887,-26.432c-8.831,-17.379 -32.603,-38.163 -47.932,-41.906c-8.839,-2.159 -31.973,4.443 -45.543,12.996c-6.185,3.898 -12.666,7.087 -14.404,7.087c-2.509,0 -3.159,3.294 -3.159,16.004c0,12.257 0.696,16.004 2.973,16.004c1.635,0 3.506,1.39 4.158,3.089c1.81,4.718 13.5,9.935 23.261,10.381c7.303,0.334 9.331,1.453 12.277,6.776c2.511,4.537 6.562,7.385 14.038,9.87c8.936,2.97 26.55,7.092 33.982,7.953c1.174,0.136 6.32,-1.653 11.436,-3.974zM464.342,863.168c3.362,-1.753 7.822,-3.193 9.913,-3.201c2.091,-0.008 4.363,-1.478 5.051,-3.269c0.687,-1.791 6.309,-5.649 12.493,-8.575c6.184,-2.926 14.845,-8.182 19.249,-11.68c4.402,-3.499 9.673,-6.362 11.712,-6.362c4.777,0 6.377,-7.976 6.367,-31.741c-0.007,-14.582 -0.886,-19.845 -4.237,-25.34c-2.326,-3.815 -5.211,-6.935 -6.411,-6.935c-1.2,0 -3.719,-3.841 -5.598,-8.535c-1.879,-4.694 -4.094,-8.535 -4.925,-8.535c-0.831,0 -4.485,3.361 -8.122,7.468c-7.628,8.617 -15.367,9.747 -21.913,3.201c-5.041,-5.04 -5.503,-12.487 -1.134,-18.263c5.19,-6.862 3.801,-7.995 -8.277,-6.748c-12.405,1.281 -21.347,5.888 -25.124,12.947c-7.792,14.559 -13.032,76.702 -8.968,106.352c1.303,9.505 1.327,9.529 9.806,9.367c4.675,-0.089 8.945,0.558 9.489,1.438c1.444,2.335 3.775,1.987 10.629,-1.587zM791.487,791.75c3.582,-2.551 6.513,-5.394 6.513,-6.32c0,-2.257 -14.325,-20.917 -16.764,-21.839c-1.061,-0.401 -4.781,-5.251 -8.268,-10.778l-6.338,-10.05l-1.386,22.652c-0.762,12.458 -1.386,26.26 -1.386,30.671v8.019l10.557,-3.859c5.807,-2.122 13.489,-5.946 17.071,-8.497zM121.571,776.352c19.765,-20.861 18.445,-16.194 20.105,-71.101c0.816,-26.993 2.459,-52.192 3.652,-55.996c1.193,-3.804 1.831,-8.606 1.419,-10.67c-0.571,-2.86 -2.131,-1.732 -6.562,4.746c-4.526,6.618 -5.812,10.999 -5.812,19.803c0,7.105 -1.898,15.839 -5.109,23.511c-7.955,19 -14.08,40.585 -16.485,58.083c-2.002,14.562 -4.827,23.212 -15.612,47.78l-3.645,8.303l9.224,-7.162c5.073,-3.939 13.545,-11.722 18.826,-17.297zM823.576,756.517c2.476,-4.627 2.084,-7.598 -3.167,-24.006c-3.296,-10.299 -6.56,-19.686 -7.252,-20.859c-2.909,-4.929 -6.541,-22.724 -8.709,-42.677c-6.439,-59.227 -7.685,-65.082 -13.848,-65.082c-3.438,0 -4.551,-3.179 -6.502,-18.567c-0.774,-6.104 -3.655,-19.067 -6.404,-28.807l-4.997,-17.708l-0.153,45.004c-0.083,24.752 -0.78,60.914 -1.547,80.362l-1.394,35.358l5.121,0.725c4.355,0.616 6.252,3.819 12.689,21.419c9.519,26.03 19.153,40.12 27.427,40.12c4.102,0 6.772,-1.614 8.734,-5.28zM521.097,687.844c11.821,-5.954 12.459,-10.097 10.194,-66.185c-1.129,-27.963 -2.077,-75.615 -2.105,-105.893c-0.056,-58.986 -0.771,-63.485 -11.145,-70.177c-12.3,-7.933 -23.767,-6.636 -35.347,3.999c-6.488,5.96 -9.164,7.104 -14.374,6.151c-9.389,-1.717 -16.708,0.945 -28.922,10.521c-18.057,14.157 -17.38,10.437 -18.611,102.386c-0.975,72.851 -0.722,81.934 2.454,88.075c4.462,8.63 10.867,11.902 32.275,16.492c11.129,2.386 20.858,6.118 27.954,10.724c15.298,9.929 23.898,10.822 37.626,3.907zM464.773,384.292c2.483,-1.329 5.651,-4.537 7.038,-7.129c1.387,-2.592 4.77,-6.481 7.519,-8.643c5.96,-4.687 14.572,-19.24 16.644,-28.124c0.817,-3.502 3.685,-11.184 6.374,-17.071c6.284,-13.759 7.107,-18.058 9.608,-50.179c1.142,-14.67 3.107,-39.499 4.365,-55.174c2.87,-35.747 2.457,-37.331 -9.251,-35.513c-17.577,2.728 -16.704,1.501 -15.103,21.241c1.318,16.245 1.064,18.063 -3.104,22.231c-9.424,9.424 -23.744,2.671 -23.744,-11.198c0,-3.961 -0.615,-10.273 -1.365,-14.027c-1.562,-7.809 -3.667,-7.777 -23.683,0.372c-13.231,5.386 -12.15,1.297 -15.387,58.199c-3.421,60.133 -3.012,108.616 0.981,116.337c6.821,13.191 23.684,16.932 39.108,8.678z" /></svg>