<svg xmlns="http://www.w3.org/2000/svg" width="197.8" height="214.8" viewBox="0 0 1978 2148"><path d="m37 2074-37-74 67-30c79-36 231-85 320-103l62-13V302l-77-18c-99-23-253-72-320-101L1 160l35-74C55 46 73 11 75 9s41 10 86 28c86 34 312 95 388 105 25 4 79 12 120 19 46 7 175 12 335 11 220 0 279-3 385-22 142-24 330-76 437-120l71-30 40 77 41 77-72 31c-83 36-237 85-319 104l-58 12v1553l78 18c106 24 337 100 370 121 1 1-14 37-34 79-28 59-40 76-53 71-313-120-615-171-971-162-294 7-522 47-741 132-50 19-94 35-98 35s-23-33-43-74m1312-994V332l-62 7c-142 17-321 20-468 10-85-7-163-14-172-17-17-5-18 35-18 741v746l113-8c186-13 472-6 600 16 4 0 7-336 7-747"/></svg>