<svg xmlns="http://www.w3.org/2000/svg" viewBox="0 0 835 800" width="835" height="800"><path d="M139.299,161.385c5.719,-2.265 11.246,-4.863 16.493,-8.077c8.979,-5.438 18.807,-8.319 27.786,-13.657c7.844,-4.581 16.681,-7.14 24.905,-11.011c3.922,-1.848 6.946,-4.863 10.727,-6.806c5.767,-2.932 11.908,-2.974 17.202,-7.327c2.978,-2.411 5.105,-5.105 8.506,-7.045c3.168,-1.794 6.238,-3.59 9.31,-5.438c2.881,-1.647 5.008,-3.403 7.514,-5.438c2.552,-1.981 4.111,-2.035 6.71,-3.308c3.214,-1.702 4.962,-4.3 8.506,-5.573c3.403,-1.34 5.528,-3.121 8.222,-5.719c3.592,-3.456 5.244,-7.944 7.608,-12.244c7.703,-14.081 18.099,-29.725 29.868,-40.781c6.71,-6.189 16.919,-10.971 21.502,-19.092c1.795,-3.162 2.41,-6.898 4.348,-9.968c5.813,0.805 8.175,4.729 13.517,7.085c8.413,3.777 14.792,8.787 20.698,16.068c7.608,9.364 14.507,18.668 22.022,28.07c2.127,2.693 4.916,4.394 7.041,7.045c2.694,3.308 4.582,6.953 7.419,10.206c3.686,4.245 7.94,7.045 11.531,11.198c4.582,5.479 9.641,10.302 14.368,15.454c2.175,2.357 3.356,5.156 5.34,7.461c1.559,1.794 6.19,5.814 4.254,9.029c-0.897,1.515 -7.656,2.357 -9.452,2.745c-3.686,0.669 -6.806,-0.046 -10.584,0.937c-5.624,1.46 -10.631,3.682 -15.831,6.189c-7.797,3.737 -15.454,5.479 -22.681,10.635c-16.444,11.816 -37.144,16.681 -54.156,27.692c-7.94,5.251 -18.099,9.218 -25.187,15.454c-7.797,6.858 -16.162,12.19 -24.669,18.194c-9.405,6.657 -18.856,13.234 -28.306,19.754c-12.381,8.6 -24.905,16.494 -35.347,27.408c-9.073,9.551 -16.54,20.556 -23.819,31.521c-2.269,3.403 -5.01,6.189 -6.994,9.873c-1.559,2.785 -2.881,6.47 -5.008,8.787c-3.119,3.349 -5.859,2.076 -9.169,0.132c-4.346,-2.506 -8.931,-5.668 -12.475,-9.31c-4.582,-4.769 -8.081,-10.676 -12.57,-15.548c-6.521,-7.274 -13.517,-14.224 -19.612,-21.738c-9.641,-11.761 -16.729,-25.376 -26.889,-36.767c-3.969,-4.542 -7.797,-9.218 -11.673,-13.844c-1.559,-1.848 -2.976,-3.831 -4.346,-5.869c-1.138,-1.702 -4.819,-5.479 -4.962,-7.516c-0.281,-3.737 11.956,-7.89 16.162,-9.256c5.576,-1.794 11.389,-2.932 17.013,-4.487c5.105,-1.515 10.206,-3.216 15.169,-5.156z" /> <path d="M259.035,192.285c4.773,-2.078 9.452,-3.912 14.46,-5.855c5.387,-1.98 10.349,-4.674 14.931,-7.982c3.354,-2.466 6.616,-5.344 10.16,-7.663c2.739,-1.742 5.719,-2.359 8.506,-3.966c2.6,-1.514 4.442,-4.259 6.806,-6.148c3.074,-2.504 6.001,-2.84 9.169,-4.634c4.349,-2.464 6.9,-7.086 11.343,-9.644c1.322,-0.75 7.797,-4.019 2.741,-4.956c-2.359,7.232 -0.563,15.122 -0.469,22.543c0.134,7.088 -1.231,14.267 -0.147,21.407c0.71,5.197 3.166,8.787 6.569,12.753c6.899,8.032 14.46,15.401 21.406,23.438c13.61,15.69 25.377,32.892 36.671,50.328c10.396,16.256 21.407,31.33 33.977,45.886c9.924,11.577 17.344,24.901 27.504,36.341c28.401,31.946 77.027,55.052 88.181,99.427c1.226,4.723 4.489,12.947 4.394,18.052c-0.096,2.84 -1.938,5.292 -4.065,7.327c-3.307,3.268 -7.797,5.251 -11.435,8.131c-4.535,3.643 -12.475,8.224 -15.027,13.516c-2.599,0.187 -4.82,-2.935 -6.71,-4.542c-6.331,-5.343 -12.855,-9.925 -18.525,-16.019c-10.066,-10.869 -16.918,-24.573 -25.991,-36.294c-9.878,-12.948 -19.706,-25.938 -29.725,-38.892c-27.833,-36.008 -52.738,-73.908 -82.934,-108.076c-18.287,-20.745 -37.425,-41.113 -58.881,-58.597c-7.137,-5.91 -14.226,-12.285 -21.975,-17.39c-4.678,-3.121 -9.783,-6.524 -15.027,-8.559c-6.097,-2.466 -12.947,-2.558 -19.328,-4.113c-3.45,-0.899 -12.471,-0.939 -12.994,-5.668c3.165,-0.24 6.002,-3.269 9.121,-4.206c4.252,-1.368 9.262,-2.319 13.231,-4.113c1.371,-0.642 2.74,-1.313 4.065,-1.848z" /> <path d="M630.441,480.318c2.646,2.224 4.771,3.311 6.946,6.243c4.632,6.245 8.743,11.577 14.13,17.202c4.162,4.301 7.846,8.843 11.343,13.706c8.885,12.475 19.564,23.774 28.166,36.34c8.934,13.044 16.731,26.322 27.269,38.325c6.475,7.514 12.524,15.551 19.281,22.731c3.922,4.246 8.176,7.929 11.862,12.471c7.088,8.699 14.129,17.434 21.029,26.181c3.593,4.447 8.036,7.797 11.768,12.003c5.481,6.09 11.011,12.668 16.162,19.044c3.542,4.342 5.811,9.123 8.836,13.798c5.578,8.837 8.27,18.81 11.673,28.402c2.694,7.609 6.945,15.965 8.27,23.628c1.367,8.129 0.374,16.585 0.992,24.81c0.757,8.374 -2.079,19.276 -10.349,21.219c-5.669,1.368 -13.137,3.938 -19.375,3.403c-3.495,-0.27 -7.039,-0.673 -10.584,-0.805c-3.545,-0.132 -5.72,1.423 -9.452,-0.132c-2.27,-0.95 -4.583,-2.559 -6.852,-4.019c-3.071,-2.022 -5.53,-2.117 -8.411,-4.675c-4.774,-4.395 -9.453,-8.748 -14.272,-13.142c-6.71,-6.189 -14.129,-11.478 -20.698,-17.721c-2.975,-2.88 -6.188,-5.384 -9.356,-8.077c-3.12,-2.786 -5.623,-6.149 -8.79,-8.842c-6.098,-5.109 -13.188,-9.409 -19.519,-14.272c-3.307,-2.546 -6.662,-5.012 -9.876,-7.556c-4.822,-3.912 -8.271,-8.171 -12.619,-12.471c-7.845,-7.847 -15.736,-15.742 -24.101,-23.016c-9.639,-8.269 -18.003,-17.815 -27.408,-26.321c-10.82,-9.786 -21.692,-17.673 -31.236,-29.018c-10.349,-12.286 -18.997,-26.173 -28.684,-39.032c-21.363,-28.306 -45.7,-54.298 -66.444,-83.219c-4.821,-6.803 -8.886,-14.125 -13.375,-21.17c-1.275,-1.984 -2.972,-4.246 -3.306,-6.565c-0.662,-4.246 3.025,-9.592 5.294,-12.377c3.686,-4.494 5.387,-9.451 7.514,-15.17c0.757,-2.077 2.691,-4.3 2.316,-6.619l5.34,-25.281c-0.334,-0.037 -0.71,-0.086 -1.044,-0.132c1.844,-3.216 2.55,-5.854 6.569,-5.76c1.75,0 3.215,0.671 5.294,0.269c1.983,-0.535 3.971,-0.938 6.002,-1.34c5.342,-1.032 9.781,-3.401 15.075,-4.769c3.874,-0.939 6.519,-3.066 10.584,-3.871c4.442,-0.937 5.576,-1.03 9.498,2.319c5.008,4.206 9.876,8.842 15.027,12.9c3.357,2.733 7.232,4.435 10.538,7.18c4.489,3.632 8.6,8.172 12.286,12.566c4.017,4.863 7.939,8.692 13.279,12.095c4.205,2.694 7.324,6.284 11.011,9.592c3.687,3.308 7.941,5.344 11.673,8.413c3.875,3.268 6.946,7.232 10.727,10.448z" /> <path d="M0.587,502.271c3.598,4.018 3.403,-0.617 3.356,-5.251c-0.096,-6.051 -2.033,-11.247 -2.127,-17.436c-0.148,-4.018 -0.71,-8.318 -0.429,-12.337c0.046,-0.857 0.993,-7.744 1.89,-8.413c2.834,-1.796 11.247,3.054 14.177,4.26c5.861,2.237 10.917,1.971 17.155,1.702c2.694,-0.134 3.403,0 5.624,1.072c3.973,2.21 2.645,2.451 3.168,7.461c0.377,3.59 1.883,6.243 2.125,9.925c0.094,2.693 -0.095,5.05 0.523,7.703c1.747,8.409 2.03,16.963 4.582,25.376c2.41,7.751 3.261,16.065 7.089,23.297c2.364,4.501 5.196,7.703 6.521,12.859c1.37,5.525 2.553,8.927 5.859,13.656c3.874,5.528 6.144,11.717 9.641,17.436c3.449,5.567 7.845,10.539 11.814,15.736c8.13,10.915 19.139,20.834 25.614,32.89c3.214,5.951 7.797,10.868 11.011,16.87c2.647,4.864 4.962,9.312 8.506,13.706c5.858,7.369 13.089,12.433 20.083,18.714c2.265,1.986 5.054,2.937 7.181,4.918c2.029,1.889 2.833,3.349 5.197,5.105c4.725,3.403 5.719,5.453 11.814,4.918c-5.578,5.905 -13.752,9.495 -18.903,15.643c-1.984,2.319 -2.364,5.585 -4.348,7.85c-1.465,1.795 -3.73,2.559 -5.197,4.206c-2.081,2.492 -2.221,4.809 -4.962,6.752c-5.529,3.971 -9.121,6.149 -15.973,3.925c-8.269,-2.65 -17.485,-5.531 -24.763,-10.206c-6.571,-4.249 -12.949,-9.54 -18.668,-14.884c-8.317,-7.608 -16.822,-13.844 -23.486,-23.062c-12.808,-17.815 -27.221,-35.536 -35.443,-55.998c-10.396,-26.038 -16.066,-52.265 -22.21,-79.484c-3.64,-16.019 -5.904,-32.558 -6.427,-48.957z" /> <path d="M57.442,573.819c-0.187,-0.402 -0.429,-0.669 -0.656,-0.937c-4.157,-6.43 -7.844,-12.806 -12.286,-19.092c-2.456,-3.444 -6.284,-6.189 -8.27,-9.873c4.111,3.59 14.225,2.974 19.281,3.682c7.892,1.072 16.919,0.402 24.856,-0.132c6.331,-0.535 12.428,-2.076 18.668,-3.256c5.197,-0.937 10.823,-0.402 15.689,-2.265c17.675,-6.953 34.168,-16.494 51.225,-24.906c14.176,-6.953 28.591,-13.705 42.106,-21.831c19.519,-11.816 42.816,-21.267 59.684,-36.719c5.387,-4.956 13.563,-8.413 20.463,-3.966c2.881,1.848 4.916,4.863 6.757,7.663c1.231,1.742 2.457,3.644 3.592,5.479c1.702,2.88 2.881,6.002 4.582,8.881c2.221,3.644 6.284,6.752 7.514,10.957c0.656,2.13 -0.242,4.956 0.094,7.18c0.469,3.162 2.364,3.831 0.334,6.47c-2.269,2.932 -8.836,5.344 -11.908,6.806c-6.049,2.88 -12.24,5.531 -18.099,8.747c-15.169,8.037 -32.324,11.293 -47.633,19.375c-8.506,4.487 -16.256,9.968 -24.29,15.265c-7.797,5.105 -16.115,9.069 -23.77,14.367c-11.011,7.663 -21.784,15.594 -33.317,22.306c-8.648,5.05 -15.122,9.779 -21.927,17.248c-3.072,3.403 -4.348,7.461 -6.806,11.011c-3.072,4.3 -6.664,9.738 -7.797,15.169c-1.37,6.376 3.638,11.816 1.656,17.818c-1.138,-0.269 -3.592,-5.251 -4.916,-6.657c-3.544,-4.058 -8.032,-8.077 -12.097,-11.532c-8.882,-7.756 -16.681,-16.021 -22.825,-26.132c-6.521,-10.676 -13.182,-20.606 -19.894,-31.002z" /> <path d="M819.614,161.245c4.157,-2.785 9.593,-7.434 14.649,-7.703c1.559,4.25 -8.885,11.244 -12.713,15.169c-2.93,3.014 -5.339,5.237 -9.025,7.461c-5.292,3.109 -4.016,3.966 -6.994,7.556c-3.544,4.206 -13.372,9.269 -18.288,12.525c-12.239,8.317 -24.574,16.448 -37.002,24.525c-24.478,15.927 -51.839,28.259 -76.508,43.902c-23.204,14.697 -45.841,29.582 -69.469,43.807c-28.402,17.011 -55.337,34.827 -82.934,52.879c-14.273,9.309 -29.442,16.875 -44.469,24.952c-14.885,8.032 -29.488,16.923 -44.184,25.281c-25.992,14.741 -51.652,30.384 -77.123,45.884c-13.706,8.412 -27.504,16.818 -40.925,25.66c-12.051,7.986 -23.724,17.057 -36.53,24.102c-13.613,7.419 -26.227,15.878 -39.744,23.581c-14.46,8.169 -31.662,15.215 -47.162,20.225c-3.117,0.951 -7.512,2.357 -10.206,4.3c-4.013,2.894 -3.496,4.366 -8.032,3.831c-5.012,-0.617 -10.446,-5.762 -12.856,-8.694c-3.733,-4.489 -4.631,-10.301 -8.506,-14.695c3.592,-4.676 11.908,-8.413 17.013,-11.669c5.434,-3.495 10.584,-7.367 15.878,-11.011c3.072,-2.116 7.562,-5.988 5.056,0.669c1.606,-2.077 4.489,-3.307 7.23,-4.675c11.389,-5.907 22.019,-13.756 32.984,-20.508c35.818,-22.211 72.302,-43.57 108.783,-64.789c20.318,-11.909 40.119,-24.903 60.581,-36.53c13.99,-7.423 28.309,-14.267 42.816,-20.51c14.98,-7.137 29.818,-14.55 44.61,-22.306l129.388,-69.656c16.87,-8.126 32.37,-16.822 48.626,-26.132c18.807,-10.727 38.941,-19.562 58.173,-29.676c15.361,-8.079 30.954,-15.971 46.219,-24.384c9.071,-5.105 20.98,-10.529 28.494,-17.482c2.883,-2.704 4.158,-6.202 7.514,-8.559c4.3,-3.069 9.972,-4.207 14.649,-7.369z" /></svg>