<svg xmlns="http://www.w3.org/2000/svg" width="296.592" height="290.09" viewBox="0 0 2965.922 2900.899"><path d="M777.585 2884.899c-144-63-300-237-402-449-56-116-74-187-65-259 31-246 201-405 486-457l75-14-115-8c-496-36-654-189-725-702-18-126-39-692-29-775 10-88 39-145 92-180 115-76 261-46 466 97 45 31 83 59 86 62s39 35 80 71c197 171 405 419 550 655 56 91 163 314 186 388 10 31 20 57 23 57s17-35 31-78c59-183 256-515 417-704 254-296 508-504 703-573 136-48 288 17 321 137 17 64 6 677-15 828-75 531-228 682-726 716-100 6-110 8-75 16 22 5 72 16 110 24 95 22 199 78 265 144 102 102 163 270 140 390-19 101-94 249-187 372-122 160-258 258-359 258-122 0-341-198-480-433-51-85-134-280-134-312 0-25-18-16-25 13-14 55-71 189-113 267-97 175-222 317-367 413-69 47-82 52-128 51-29 0-67-7-86-15"/></svg>