<svg xmlns="http://www.w3.org/2000/svg" viewBox="0 0 373 959" width="373" height="959"><path d="M202.536,945.212c-6.138,-24.785 -17.788,-65.781 -30.483,-107.265c-2.118,-6.922 -6.424,-21.192 -9.568,-31.713c-18.983,-63.52 -32.31,-94.305 -51.425,-118.798c-12.237,-15.681 -23.851,-25.972 -60.231,-53.376c-26.736,-20.138 -37.766,-30.673 -45.412,-43.372c-6.716,-11.154 -6.827,-19.074 -0.375,-26.902c6.301,-7.644 26.427,-19.188 42.675,-24.477c8.753,-2.85 6.735,-3.006 -5.085,-0.393c-16.945,3.746 -18.261,2.943 -17.162,-10.475c1.294,-15.802 7.748,-49.23 9.744,-50.464c0.509,-0.314 0.925,-1.245 0.925,-2.069c0,-2.212 6.711,-16.15 10.332,-21.46c7.499,-10.995 25.891,-26.623 29.041,-24.677c0.766,0.473 0.945,0.321 0.49,-0.415c-0.395,-0.639 -0.233,-1.162 0.359,-1.162c0.717,0 0.821,1.432 0.311,4.279c-1.287,7.18 -0.69,24.909 1.162,34.481c1.728,8.933 6.6,24.562 13.181,42.284c1.851,4.984 5.456,14.95 8.011,22.148c2.555,7.198 5.287,14.674 6.072,16.612c1.805,4.459 11.638,30.144 19.08,49.835c3.139,8.306 7.021,18.5 8.627,22.652c13.574,35.106 28.205,78.4 48.82,144.471c12.543,40.197 18.774,70.272 24.092,116.281c1.312,11.351 2.433,20.185 2.49,19.632c0.059,-0.554 1.462,-9.841 3.123,-20.639c7.678,-49.929 14.158,-78.14 26.71,-116.281c30.453,-92.532 33.368,-110.262 34.273,-208.401c0.261,-28.239 0.801,-54.449 1.198,-58.243l0.724,-6.898l8.674,8.121c12.094,11.322 29.699,34.672 37.667,49.959c3.882,7.448 4.251,9.71 1.9,11.661c-1.858,1.542 -13.93,1.844 -26.092,0.652l-8.054,-0.789l5.889,2.48c8.482,3.572 23.527,12.18 38.572,22.07c15.994,10.513 23.725,18.348 26.071,26.417c3.023,10.4 -0.417,17.39 -17.025,34.591c-33.18,34.365 -65.057,86.501 -87.463,143.047c-6.135,15.483 -14.34,38.547 -16.833,47.317c-1.023,3.599 -5.341,18.549 -9.595,33.223c-11.74,40.493 -18.351,69.215 -20.864,90.653c-0.165,1.409 -2.212,-5.16 -4.55,-14.598zM58.54,536.258c-0.692,-0.279 -1.824,-0.279 -2.517,0c-0.693,0.279 -0.126,0.508 1.258,0.508c1.385,0 1.951,-0.229 1.258,-0.508zM181.711,730.552l-26.054,-78.106l6.824,-24.286c3.753,-13.357 9.067,-31.259 11.81,-39.782c2.743,-8.523 5.237,-17.938 5.545,-20.923l0.56,-5.426l-8.198,-7.656c-4.509,-4.21 -8.198,-8.221 -8.198,-8.913c0,-3.579 12.547,-7.529 23.913,-7.529c12.556,0 27.432,3.868 27.432,7.133c0,0.576 -3.213,4.692 -7.139,9.148c-8.53,9.681 -8.521,8.712 -0.274,27.685c3.088,7.103 6.974,16.087 8.637,19.962c1.663,3.875 4.786,10.812 6.939,15.412c2.154,4.601 3.917,8.583 3.917,8.848c0,0.265 1.989,4.882 4.421,10.26c2.432,5.377 6.067,13.483 8.078,18.012l3.657,8.235l-3.015,12.404c-1.657,6.822 -7.356,30.526 -12.661,52.674c-16.701,69.72 -18.847,78.497 -19.502,79.739c-0.352,0.666 -12.364,-33.937 -26.693,-76.895zM128.776,542.272c-6.319,-3.283 -7.307,-9.052 -2.999,-17.498c3.048,-5.974 4.274,-12.145 3.052,-15.36c-1.112,-2.924 -3.39,-4.177 -19.699,-10.838c-12.847,-5.247 -16.87,-10.714 -13.163,-17.883c2.907,-5.621 10.744,-6.562 26.204,-3.143c15.524,3.432 21.315,6.973 44.191,27.023c9.386,8.227 15.378,11.434 22.463,12.021c10.889,0.903 18.815,-2.895 34.07,-16.327c14.419,-12.696 21.4,-16.7 29.124,-16.7c9.613,0 9.079,3.696 -2.076,14.35c-9.838,9.397 -12.827,14.473 -11.227,19.063c1.225,3.516 4.194,5.605 11.188,7.875c6.555,2.128 8.709,5.245 6.803,9.847c-1.856,4.481 -6.395,6.249 -16.043,6.249c-5.893,0 -10.322,-0.701 -16.246,-2.572c-12.756,-4.029 -22.673,-5.59 -35.82,-5.637c-12.968,-0.048 -11.026,-0.495 -33.661,7.772c-9.886,3.61 -21.142,4.367 -26.162,1.758zM186.721,494.576c-14.477,-3.61 -55.5,-28.041 -69.697,-41.506c-8.156,-7.736 -14.448,-16.778 -17.737,-25.492c-2.128,-5.636 -2.242,-7.444 -2.31,-36.636c-0.071,-29.417 -0.183,-31.192 -2.719,-42.284c-3.867,-16.911 -6.619,-24.126 -16.49,-43.244c-7.043,-13.641 -9.279,-17.162 -10.898,-17.161c-1.12,0 -4.982,1.434 -8.582,3.186c-5.608,2.73 -7.696,3.196 -14.598,3.261c-6.548,0.059 -8.863,-0.354 -12.378,-2.223c-15.859,-8.429 -22.257,-25.83 -14.972,-40.72c4.805,-9.82 13.687,-16.069 29.757,-20.933l7.442,-2.253l-0.615,-9.172c-1.556,-23.226 -9.337,-59.737 -19.223,-90.216c-2.425,-7.476 -6.749,-21.368 -9.609,-30.873c-4.919,-16.348 -5.131,-17.511 -3.926,-21.532c4.485,-14.968 42.021,-37.537 89.467,-53.791c23.739,-8.133 60.436,-17.287 85.072,-21.224c26.359,-4.211 55.901,-0.603 64.769,7.91c6.73,6.46 9.067,14.011 11.745,37.962c5.665,50.655 13,85.468 24.099,114.379c2.527,6.581 4.594,12.307 4.594,12.723c0,0.416 -2.914,0.757 -6.474,0.757c-22.511,0 -115.549,16.858 -153.161,27.752c-11.387,3.298 -60.908,20.685 -62.524,21.952c-0.095,0.071 23.919,0.107 53.359,0.071c43.87,-0.048 56.25,-0.368 68.628,-1.79c35.714,-4.102 53.913,-8.092 81.045,-17.766c46.528,-16.59 58.201,-19.495 76.237,-18.973c9.716,0.282 11.575,0.61 13.26,2.341c3.729,3.832 3.127,9.45 -1.575,14.653c-6.403,7.087 -33.063,18.468 -51.715,22.075l-5.573,1.078l-1.251,10.528c-1.606,13.524 -2.599,11.357 20.2,44.137c9.49,13.646 11.829,17.691 11.829,20.458c0,7.717 -5.123,12.374 -15.93,14.481c-3.502,0.682 -7.012,1.887 -7.803,2.677c-1.873,1.873 -1.836,8.456 0.071,13.026c2.222,5.317 1.897,6.89 -2.078,10.079c-3.54,2.841 -3.567,2.918 -2.019,5.887c2.031,3.894 2.015,4.024 -0.841,6.742c-3.828,3.646 -7.646,9.916 -7.646,12.554c0,1.329 0.906,4.192 2.014,6.364c3.837,7.522 1.862,19.334 -4.159,24.868c-1.326,1.219 -4.671,3.258 -7.432,4.53c-4.69,2.162 -6.306,2.315 -24.481,2.315c-18.1,0 -19.559,0.137 -20.89,1.955c-1.898,2.592 -1.826,11.273 0.172,20.698c1.987,9.381 1.387,16.2 -2.115,24.003c-2.116,4.715 -5.16,8.403 -14.424,17.475c-13.635,13.354 -18.622,17.464 -26.59,21.922c-6.425,3.593 -14.401,4.709 -21.325,2.982z" /></svg>