<svg xmlns="http://www.w3.org/2000/svg" width="244.572" height="214.919" viewBox="0 0 2445.719 2149.192"><path d="m37.719 2118.148-24-30 31-25c18-13 32-29 32-34s-18-18-40-29c-39-20-40-22-34-58 4-20 7-38 8-39 1-2 34 12 72 31l70 33 39-33c35-30 62-41 187-80 13-4 16-1 12 10s14 25 65 51c39 19 71 38 71 41 0 9-30 64-35 64-3 0-43-21-90-46l-85-46-40 34c-22 18-40 38-40 43 0 6 29 25 65 43l65 32-16 33c-9 17-18 34-20 36-1 1-36-15-77-38-85-47-97-49-123-20-10 12-30 29-44 39-25 17-25 17-49-12m574-298c-26-61-52-113-56-116-5-3-67 11-137 31-71 19-133 35-139 35-5 0-17-25-27-55-17-54-17-56 3-84 40-55 253-251 368-338 65-48 175-127 246-175l128-86 42 45c65 70 125 97 225 99l84 2 41 46c40 44 48 48 181 86 76 22 145 40 151 40 7 0 62-33 121-73 60-39 141-89 181-110 76-39 78-43 88-123 9-74 42-127 85-136 74-15 182 21 225 75l24 31-20 28-20 27-32-19c-51-31-103-26-142 13-20 20-36 48-40 70-7 38-64 95-299 302l-79 69-93 4c-117 5-297-13-395-39-41-11-84-23-96-26-18-4-26 3-43 37-12 23-20 43-18 45 2 1 18 10 37 20 18 9 29 20 25 25-36 32-553 360-569 360-1 0-24-50-50-110m-488 14c-47-24-48-26-41-62 4-20 8-38 9-40 2-2 17 3 33 12 21 11 35 29 46 63 9 25 16 48 16 50 0 7-18 1-63-23"/><path d="M1211.719 1068.148c-57-16-137-99-161-168-30-86-26-199 10-278 59-129 181-186 285-132 54 27 115 100 134 161 23 71 22 185-3 251-47 127-156 195-265 166m385-390c0-10-8-40-19-67l-19-50 117-105c64-57 128-117 144-133l27-30-26-69c-20-53-24-79-20-113 10-76 71-133 111-103 6 4 11 30 11 58 1 34 14 78 38 133 20 45 36 86 36 90s-90 98-200 208c-127 127-200 193-200 181"/></svg>