<svg xmlns="http://www.w3.org/2000/svg" viewBox="0 0 504 960" width="504" height="960"><path d="M55.57,959.492l-48.768,-0.627l-6.17,-5.827l0.58,-8.468c1.604,-23.42 16.747,-131.812 22.695,-162.451c2.782,-14.334 3.936,-17.006 7.841,-18.168c5.505,-1.639 86.994,-2.559 226.595,-2.559c150.828,0 210.175,0.779 214.512,2.817c2.99,1.405 4.096,3.705 6.132,12.753c4.667,20.731 22.655,144.742 23.772,163.888l0.606,10.372l-2.838,3.131c-2.442,2.695 -3.862,3.283 -10.194,4.22c-8.424,1.247 -352.754,1.974 -434.764,0.92zM152.894,703.339c-23.468,-0.357 -43.987,-1.073 -45.597,-1.591c-1.61,-0.518 -3.704,-2.272 -4.654,-3.899c-1.661,-2.844 -1.614,-4.656 1.22,-47.018c8.232,-123.067 33.769,-491.715 34.969,-504.804l0.603,-6.574l12.775,-16.477c17.637,-22.747 63.652,-80.422 81.525,-102.187c8.14,-9.912 15.516,-18.92 16.391,-20.017c1.542,-1.934 2.051,-1.441 16.582,16.06c10.933,13.167 88.611,109.949 97.288,121.215c0.484,0.629 2.85,29.542 5.257,64.251c26.405,380.648 30.565,443.301 31.495,474.247c0.61,20.29 0.577,20.803 -1.57,24.278l-2.194,3.549l-100.711,-0.191c-55.391,-0.105 -119.912,-0.484 -143.381,-0.841z" /></svg>