<svg xmlns="http://www.w3.org/2000/svg" width="185.2" height="250" viewBox="0 0 1852 2500"><path d="M840 2491c0-4-17-11-38-13-175-24-407-226-483-422-11-28-29-69-39-91s-24-61-30-87c-9-36-21-53-49-73-86-59-133-134-134-210 0-46-36-187-57-227-6-10-10-118-10-240V905l38-55c20-31 60-76 87-100 28-25 52-47 55-51 10-11 107-67 128-73 12-4 28-13 34-20 23-22 196-75 298-91 25-4 51-12 59-18 19-16 409-16 442 0 13 6 64 18 112 27 95 18 238 61 247 75 3 5 30 20 60 34 69 32 113 58 123 74 4 6 30 28 57 48 28 20 50 41 50 45 0 5 14 30 31 55l31 46-4 247c-4 238-5 249-30 313-18 46-26 84-25 126 0 76-34 137-114 202-46 37-56 52-69 100-9 31-20 63-25 71s-10 17-11 20c0 3-10 28-22 55-95 220-288 399-473 437-33 7-59 16-59 20s-40 8-90 8c-49 0-90-4-90-9m207-202c24-10 48-19 55-19 47-1 209-158 253-247 11-21 25-41 30-45 7-5 7-8 0-8-6 0-5-4 1-8 15-9 48-117 64-209 12-65 16-73 35-73 75 0 125-32 125-79 0-39-47-61-129-61h-60l-3-102c-3-97-4-103-27-114-13-7-26-16-30-22-3-5-25-21-49-36-50-31-192-165-192-181 0-6-13-25-29-42-16-18-35-55-42-82-7-28-16-51-21-51-4 0-14 13-22 28-21 40-88 105-133 127-21 11-47 27-58 36s-33 21-50 27c-97 34-169 62-174 69-4 5-29 20-56 34-81 42-95 72-95 200v109h-61c-81 0-129 22-129 60 0 47 47 80 114 80h33l13 72c18 101 47 200 62 210 7 4 9 8 3 8-7 0-7 3 0 8 6 4 19 24 30 45 48 95 195 235 265 252 14 4 39 13 55 20 59 27 154 25 222-6"/><path d="M264 491c7-47 91-217 113-229 8-5 14-11 13-13-6-10 70-83 115-111 27-17 52-34 55-38 10-15 126-58 193-71 37-7 67-16 67-21 0-4 50-8 110-8 61 0 110 3 110 8 0 4 28 13 63 19 61 12 187 58 197 73 3 4 25 19 50 34 42 26 160 142 160 157 0 4 16 35 34 68 19 34 32 61 29 61s-1 6 5 13 14 32 18 55c8 50-1 53-61 17-24-13-80-35-126-49-79-22-85-26-94-57-10-35-45-71-99-102-29-16-46-17-98-1-10 3-18 0-18-6 0-13-48-56-94-84-66-40-164-14-228 63-24 28-28 29-62 20-28-8-43-6-68 6-51 24-88 61-102 101-11 35-17 38-92 60-44 12-103 34-131 48s-54 26-58 26-5-18-1-39"/></svg>