<svg xmlns="http://www.w3.org/2000/svg" width="250" height="250" viewBox="0 0 2500 2500"><path d="M7 2486c-7-18 10-82 29-111 8-12 31-29 52-38 20-9 480-163 1022-343 542-179 1023-339 1070-355 102-35 161-37 215-6 115 65 140 229 43 291-13 8-404 141-869 295l-845 281H368c-299 0-357-2-361-14m1658-25-110-38 285-93 285-93 156 52c99 33 163 60 177 74 26 27 42 69 42 108v29l-362-1-363-1zM218 1982c-75-26-149-56-163-67s-33-40-41-64c-37-109 63-241 184-241 43 0 747 230 735 240-14 12-537 180-558 179-11 0-82-22-157-47m1423-489c93-98 132-174 133-259 1-56-3-67-38-118-44-64-102-119-119-113-13 5-14 20-2 56 7 22 5 23-21 17-16-4-66-25-112-47-110-54-213-154-265-257-20-40-39-89-43-108-3-19-10-37-15-39-4-3-20 32-35 77-24 72-28 100-28 208-1 122 0 127 31 186 37 71 95 127 166 160l51 23-56 26c-190 87-388 62-497-62-23-25-41-50-41-54 0-5-4-9-9-9-17 0-34 72-33 139 1 76 21 139 59 190l28 36-41-32c-198-156-254-363-158-588 10-22 38-75 63-117l45-78 17 69c39 153 136 290 263 373 74 48 99 49 47 3-72-66-137-221-165-395-12-74-12-98 0-167 31-182 138-366 311-536l70-68 6 128c14 299 97 484 289 645l51 43-6-47c-9-68 7-142 53-233 36-73 119-184 106-142-3 10-10 47-16 83-22 138 29 294 142 437 71 91 83 121 83 223 0 76-4 98-24 138-45 86-225 235-335 276-24 9-16-3 45-67"/></svg>