<svg xmlns="http://www.w3.org/2000/svg" viewBox="0 0 847 877" width="847" height="877"><path d="M646.743,459.998c2.24,0 9.252,-1.252 15.979,-1.522c-0.81,-0.697 -0.668,-1.714 -1.294,-2.489c-0.512,-0.626 -1.387,-0.946 -2.055,-1.323c-1.586,-0.889 -3.037,-1.949 -4.58,-3.058c-3.008,-2.162 -6.294,-3.179 -9.572,-4.715c-1.528,-0.711 -2.858,-1.949 -4.252,-2.873c-1.664,-1.109 -3.67,-1.941 -5.348,-2.958c-2.759,-1.664 -5.582,-3.407 -8.469,-4.836c-3.05,-1.514 -6.08,-2.211 -9.358,-3.612c-3.122,-1.344 -6.215,-3.001 -9.465,-3.883c-1.906,-0.512 -3.79,-1.017 -5.71,-1.636c-1.166,-0.37 -1.87,-0.413 -3.065,-0.555c-1.01,-0.114 -1.323,-0.612 -2.219,-0.818c-0.505,-0.121 -1.109,0.192 -1.607,0.078c-0.37,-0.078 -0.661,-0.576 -0.889,-0.633c-0.825,-0.207 -1.671,-0.363 -2.496,-0.548c-2.098,-0.477 -3.897,-1.067 -6.094,-1.131c-1.799,-0.057 -2.987,-0.782 -4.935,-0.768c-1.941,0.008 -4.046,-0.241 -5.916,0.164c-1.458,0.32 -3.036,1.258 -4.736,1.372c-0.967,0.064 -2.155,-0.285 -3.079,-0.057c-0.903,0.214 -1.223,0.69 -2.226,0.818c-3.428,0.426 -7.154,0.839 -10.29,2.261c-3.079,1.401 -7.047,1.877 -10.254,3.065c-1.174,0.441 -1.067,0.207 -2.091,0.932c-0.704,0.498 -1.287,0.946 -2.105,1.344c-0.725,0.348 -1.863,0.483 -2.517,0.917c-0.647,0.426 -0.996,1.329 -1.65,1.756c-1.401,0.91 -2.745,1.145 -4.018,2.453c-1.244,1.273 -3.086,2.119 -4.224,3.399c-0.981,1.109 -1.721,2.752 -2.517,3.925c-1.244,1.814 -2.275,3.022 -4.039,4.274c-1.081,0.768 -1.942,1.942 -2.916,2.859c-1.287,1.202 -2.88,1.678 -4.203,2.638c-0.996,0.718 -1.629,1.941 -2.603,2.688c-1.351,1.032 -2.88,1.714 -4.21,2.66c-2.858,2.041 -4.658,4.608 -7.502,6.656c-0.853,0.618 -1.408,0.689 -2.041,1.5c-0.569,0.739 -0.697,1.521 -1.486,2.133c-0.498,0.384 -1.194,0.504 -1.742,0.924c-0.605,0.462 -1.16,1.166 -1.7,1.714c-1.017,1.039 -2.098,1.579 -3.207,2.468c-1.607,1.295 -3.186,2.731 -4.942,3.812c-3.428,2.112 -7.09,2.717 -10.489,4.779c-1.123,0.682 -2.488,1.002 -3.612,1.692c-0.526,0.327 -1.152,1.095 -1.678,1.365c-0.803,0.412 -1.848,0.092 -2.716,0.327c-0.448,0.114 -1.799,0.839 -1.806,1.351c-0.022,0.832 1.379,0.967 2.005,1.145c2.474,0.69 3.733,-0.128 6.094,-0.412c2.126,-0.256 3.719,0.697 5.703,0.804c2.012,0.107 4.075,-0.014 6.087,-0.014c3.605,0 7.836,0.654 11.015,-0.846c1.728,-0.825 3.087,-1.586 4.964,-2.034c0.896,-0.214 1.785,-0.349 2.66,-0.548c0.924,-0.206 2.069,-0.803 2.837,-0.974c1.629,-0.348 3.357,0.014 4.985,-0.334c0.803,-0.17 1.344,-0.604 2.453,-0.59c1.123,0.014 2.332,-0.149 3.42,0.064c3.712,0.725 7.275,1.65 10.866,2.382c0.64,0.135 1.159,0.512 2.062,0.597c1.01,0.092 1.714,0.355 2.674,0.59c2.034,0.505 4.068,1.038 6.08,1.522c1.913,0.462 3.719,0.952 5.71,0.924c2.19,-0.022 3.996,0.803 6.094,0.782c1.827,-0.021 2.965,-0.789 4.935,-0.775c0.889,0 1.792,0.05 2.674,0.007c1.344,-0.071 1.486,-0.448 2.617,-0.789c1.849,-0.569 3.748,-0.768 5.746,-0.747c2.127,0.029 3.584,-0.512 5.419,-1.422c1.628,-0.811 2.915,-0.654 4.679,-1.024c1.493,-0.32 3.079,-1.131 4.736,-1.522c3.975,-0.939 6.926,-3.492 10.482,-5.369c1.28,-0.675 2.368,-1.571 3.591,-2.453c1.344,-0.96 2.887,-1.372 4.21,-2.261c2.816,-1.892 5.262,-3.613 8.384,-4.964c1.451,-0.619 3.008,-1.422 4.523,-1.913c1.671,-0.534 3.655,-0.221 5.326,-0.747c0.682,-0.207 1.664,-0.548 2.325,-0.939c0.633,-0.377 1.024,-1.259 1.636,-1.579c1.373,-0.718 4.367,-0.17 5.931,-0.149c1.92,0.021 2.389,-0.818 3.975,-1.351c1.586,-0.533 2.873,-0.888 4.395,-1.692c0.995,-0.526 1.201,-0.526 2.268,-0.569c0.903,-0.035 1.678,0.142 2.61,-0.27c0.861,-0.377 1.33,-1.117 2.347,-1.387c1.053,-0.277 2.34,-0.057 3.428,-0.057zM413.936,486.624c0.263,0 0.476,0.007 0.718,0.007c-1.11,-0.604 -2.312,-1.145 -3.172,-1.358c-0.91,-0.234 -1.792,-0.106 -2.702,-0.348c-0.889,-0.228 -2.226,-0.981 -3.214,-1.344c-3.42,-1.273 -6.379,-2.944 -9.6,-4.473c-3.641,-1.721 -7.211,-3.791 -10.98,-5.419c-3.385,-1.458 -6.556,-4.217 -9.685,-6.279c-2.908,-1.92 -4.928,-4.9 -7.758,-6.841c-2.702,-1.863 -4.928,-4.408 -7.602,-6.3c-2.78,-1.97 -6.151,-3.997 -9.152,-5.682c-3.2,-1.807 -6.4,-3.727 -9.721,-5.54c-2.752,-1.507 -5.426,-3.704 -8.256,-5.02c-3.1,-1.444 -6.065,-3.072 -9.244,-4.068c-1.579,-0.505 -3.044,-1.984 -4.729,-2.503c-1.899,-0.583 -4.067,-0.803 -6.087,-1.301c-1.167,-0.284 -1.785,-0.519 -3.044,-0.576c-1.188,-0.05 -1.913,-0.633 -3.044,-0.818c-0.476,-0.086 -1.088,0.192 -1.564,0.078c-0.533,-0.121 -0.533,-0.533 -0.889,-0.633c-0.455,-0.121 -0.939,-0.05 -1.351,-0.171c-0.241,-0.064 -1.507,-0.547 -1.692,-0.59c-0.967,-0.213 -1.913,0.036 -2.873,-0.128c-1.131,-0.192 -1.864,-0.768 -3.044,-0.818c-2.09,-0.093 -3.477,-0.754 -5.71,-0.747c-2.112,0.014 -3.399,-0.569 -5.326,-0.761c-1.074,-0.1 -1.494,-0.526 -2.347,-0.69c-1.095,-0.214 -2.262,0.099 -3.371,-0.05c-1.067,-0.142 -1.287,-0.59 -2.226,-0.818c-0.882,-0.213 -2.176,0.036 -3.086,0.043c-2.446,0 -4.501,-0.505 -6.862,-0.747c-1.017,-0.1 -1.344,-0.605 -2.226,-0.818c-0.967,-0.235 -2.112,0.284 -3.086,0.078c-1.991,-0.413 -3.833,-1.195 -5.675,-1.593c-4.586,-0.974 -9.827,0.69 -14.485,0.064c-1.216,-0.171 -2.176,-0.74 -3.42,-0.811c-1.258,-0.064 -2.545,0.021 -3.804,0.021c-2.154,0 -4.608,-0.305 -6.677,0.164c-0.199,0.05 -0.548,0.555 -0.896,0.633c-0.747,0.178 -1.614,-0.256 -2.361,-0.078c-1.117,0.263 -1.259,0.768 -2.61,0.811c-2.226,0.071 -3.925,0.86 -5.888,1.344c-1.828,0.455 -3.2,1.123 -4.971,1.877c-0.889,0.377 -1.814,0.662 -2.674,1.124c-1.103,0.583 -0.96,1.287 -2.596,0.953c1.23,-0.185 3.534,1.472 4.537,2.091c0.782,0.476 1.088,0.811 2.048,1.159c1.216,0.441 2.289,0.903 3.413,1.415c1.92,0.881 3.904,1.564 5.739,2.197c1.835,0.64 3.79,0.903 5.632,1.586c3.584,1.337 6.692,5.945 9.6,8.341c2.894,2.382 5.554,5.077 8.505,7.388c1.528,1.194 3.69,2.147 5.34,3.022c1.742,0.918 2.752,2.162 4.188,3.442c3.243,2.887 7.026,5.277 10.482,7.794c2.987,2.176 6.116,4.587 9.195,6.443c1.743,1.053 3.257,2.496 4.9,3.641c0.825,0.583 1.436,1.202 2.261,1.707c0.804,0.491 1.692,0.84 2.496,1.316c1.642,0.989 3.2,2.091 5.07,2.532c2.24,0.526 5.341,-0.036 7.652,-0.036c4.6,0 10.929,-0.995 15.004,0.626c1.131,-1.935 9.06,-0.505 10.859,-0.036c3.256,0.846 7.651,0.249 11.036,0.178c1.998,-0.043 3.634,-0.782 5.703,-0.768c1.906,0.014 3.804,0 5.71,0c1.771,0 3.548,0.014 5.319,0c1.977,-0.021 3.057,0.797 4.949,0.754c2.076,-0.036 3.698,0.747 5.703,0.775c1.927,0.022 3.057,0.775 4.949,0.747c3.847,-0.05 6.805,0.775 10.652,0.768c0.818,-0.007 1.906,-0.199 2.688,-0.028c0.768,0.164 1.11,0.654 1.835,0.825c1.643,0.398 4.039,-0.022 5.746,-0.036c1.877,-0.021 2.809,0.697 4.558,0.768c1.984,0.078 3.911,-0.106 5.71,0.37c3.79,1.002 8.356,-0.591 12.217,0.341c0.896,0.214 1.23,0.69 2.226,0.818c0.974,0.128 2.07,-0.014 3.058,-0.014zM694.829,723.214c-0.028,3.634 0.028,7.282 -0.064,10.916c-0.057,1.941 -0.796,3.449 -0.789,5.454c0.007,1.685 -0.022,3.378 -0.036,5.063c-0.007,0.91 0.036,1.828 -0.007,2.738c-0.049,1.038 -0.44,1.387 -0.604,2.112c-0.17,0.761 -0.12,1.373 -0.156,2.162c-0.05,1.06 -0.533,1.743 -0.718,2.724c-0.356,1.827 -0.093,3.975 -0.107,5.845c0,0.882 -0.143,1.863 -0.043,2.738c0.106,1.003 0.633,1.75 0.789,2.724c0.526,3.228 -0.057,7.239 -0.107,10.524c-0.029,1.984 0.682,3.534 0.718,5.461c0.028,1.692 -0.036,3.385 -0.043,5.07c-0.021,3.235 0.583,7.345 -0.135,10.46c-0.22,0.953 -0.661,1.216 -0.704,2.389c-0.036,0.974 0.071,1.785 -0.178,2.738c-0.426,1.678 -0.483,2.894 -0.59,4.672c-0.106,1.834 -0.711,4.074 -1.173,5.838c-0.441,1.685 -0.561,3.371 -0.981,5.063c-0.463,1.842 -0.548,3.563 -1.131,5.447c-0.462,1.501 -0.782,2.937 -1.337,4.281c-0.583,1.422 -1.237,2.709 -3.008,1.564c-0.725,-0.469 -2.026,-1.941 -2.19,-2.766c-0.313,-3.755 -0.007,1.365 -0.043,7.033c-0.021,2.852 -0.043,5.703 -0.057,8.555c-0.022,2.724 0.071,5.476 -0.05,8.185c-0.071,1.686 -0.519,2.838 -1.337,4.324c-0.384,0.697 -0.96,2.026 -1.472,2.517c-1.351,1.301 -5.767,0.754 -7.495,0.327c-0.541,-0.135 -0.882,-0.533 -1.636,-0.64c-0.455,-0.064 -1.081,0.171 -1.543,0.05c-1.273,-0.32 -1.764,-0.846 -3.307,-0.839c-1.479,0.007 -2.788,0.036 -4.089,0.363c-0.974,0.249 -1.998,0.975 -2.951,1.195c-0.49,0.106 -1.073,-0.214 -1.564,-0.1c-0.675,0.163 -0.739,0.689 -1.415,0.853c-0.868,0.213 -2.887,0.085 -3.776,-0.043c-1.472,-0.213 -2.077,-0.832 -3.705,-0.825c-1.237,0.015 -2.475,-0.035 -3.712,-0.028c-2.489,0.021 -4.864,-1.287 -7.431,-1.607c-1.572,-0.192 -2.823,-0.818 -4.466,-0.804c-1.131,0.007 -2.681,0.291 -3.755,0.014c-0.569,-0.149 -0.64,-0.669 -1.138,-0.761c-0.59,-0.114 -1.209,0.071 -1.799,-0.036c-0.825,-0.15 -1.394,-0.733 -2.226,-0.882c-0.476,-0.086 -1.01,0.163 -1.486,0.078c-1.615,-0.291 -2.745,-0.853 -4.459,-0.853c-1.244,0 -2.482,-0.021 -3.719,-0.028c-2.731,-0.014 -5.461,-0.014 -8.185,-0.05c-0.605,-0.014 -1.693,-0.199 -2.276,-0.057c-0.675,0.163 -0.739,0.682 -1.415,0.853c-1.074,0.263 -2.66,-0.064 -3.755,-0.071c-2.481,-0.014 -4.963,-0.029 -7.445,-0.05c-2.852,-0.014 -5.703,-0.036 -8.555,-0.057c-2.439,-0.014 -5.419,0.448 -7.815,-0.007c-1.693,-0.327 -2.631,-0.853 -4.459,-0.853c-1.237,0 -2.482,-0.014 -3.719,-0.021c-2.603,-0.021 -5.212,-0.064 -7.815,-0.057c-1.7,0.007 -2.852,-0.583 -4.459,-0.832c-1.287,-0.206 -2.78,0.021 -4.096,0c-2.447,-0.036 -4.182,0.76 -6.699,0.732c-5.454,-0.043 -10.916,-0.114 -16.37,-0.107c-1.735,0 -2.838,-0.533 -4.459,-0.846c-1.237,-0.242 -2.475,0.192 -3.719,-0.164c-1.444,-0.398 -2.162,-0.605 -3.712,-0.626c-1.458,-0.022 -1.785,0.512 -2.951,0.796c-1.507,0.377 -2.773,-0.412 -3.918,-0.668c-1.16,-0.263 -2.347,-0.199 -3.556,-0.199c-2.837,-0.007 -5.326,0.37 -8.021,0.903c-0.917,0.178 -2.411,0.989 -3.321,1.188c-1.167,0.249 -2.368,0.306 -3.556,-0.021c-1.358,-0.384 -2.261,-0.64 -3.712,-0.633c-1.337,0.007 -2.069,-0.028 -3.136,-0.59c-1.074,-0.555 -2.375,-1.565 -3.506,-1.835c-1.336,-0.32 -2.048,-0.106 -3.292,-0.846c-0.292,-0.178 -0.534,-0.455 -0.818,-0.654c-0.334,0.014 -0.64,0.121 -0.988,0.114c-3.861,-0.107 -7.737,-0.007 -11.598,-0.007h-17.031c-3.349,0 -6.699,-0.007 -10.041,0.014c-2.645,0.021 -5.383,0.199 -8.007,-0.128c-1.991,-0.241 -3.918,-0.732 -5.852,-1.173c-4.487,-0.028 -8.974,-0.057 -13.461,-0.085c-2.226,-0.014 -4.459,-0.057 -6.692,-0.05c-1.372,0.007 -2.105,-0.37 -3.349,-0.64c-1.301,-0.291 -2.062,0.477 -3.349,0.626c-3.798,0.455 -8.704,0.285 -12.274,-0.711c-1.942,-0.547 -4.31,-0.206 -6.322,-0.22c-0.953,-0.007 -2.041,0.135 -2.98,0.014c-0.96,-0.128 -1.664,-0.69 -2.596,-0.868c-2.425,-0.469 -4.615,0.406 -6.869,0.811c-1.913,0.349 -4.266,-0.085 -6.222,-0.071c-2.425,0.014 -4.48,-0.825 -6.962,-0.832c-1.188,-0.007 -2.596,-0.256 -3.762,-0.064c-1.344,0.221 -2.297,0.783 -3.726,0.811c-2.709,0.05 -5.134,0.782 -7.822,0.711c-2.026,-0.056 -3.577,0.79 -5.582,0.74c-1.479,-0.043 -2.361,0.227 -3.719,0.583c-1.017,0.263 -1.97,0.064 -2.98,0.327c-1.863,0.483 -3.712,0.867 -5.589,1.351c-2.027,0.512 -4.252,1.429 -6.336,1.536c-1.97,0.092 -3.982,-0.05 -5.952,-0.064c-3.96,-0.021 -7.914,-0.05 -11.868,-0.078c-1.493,-0.007 -3.036,0.157 -4.487,-0.199c-1.358,-0.341 -2.29,-0.64 -3.769,-0.633c-2.268,0.015 -4.124,-0.547 -6.293,-0.853c-2.318,-0.32 -4.814,0.469 -7.097,-0.185c-1.998,-0.583 -3.719,-0.633 -5.874,-0.647c-1.33,-0.007 -2.809,-0.221 -4.139,-0.057c-1.059,0.128 -1.905,0.697 -2.972,0.818c-1.842,0.213 -3.89,-0.057 -5.746,-0.071c-2.617,-0.014 -5.234,-0.036 -7.851,-0.05c-0.889,-0.007 -1.905,-0.164 -2.773,-0.05c-1.06,0.142 -1.913,0.697 -2.98,0.825c-2.069,0.235 -4.245,-0.199 -6.329,-0.092c-1.167,0.057 -1.856,0.619 -2.98,0.818c-0.911,0.163 -2.041,-0.057 -2.98,-0.057c-4.444,-0.021 -7.865,1.437 -11.925,3.25c-4.039,1.806 -7.929,3.385 -11.57,5.945c-2.88,2.027 -5.262,4.765 -8.412,6.066c-1.686,-1.294 -0.477,-3.221 -0.868,-4.985c-0.384,-1.686 -0.79,-2.674 -0.747,-4.651c0.071,-3.286 -1.444,-6.628 -2.539,-9.764c-1.081,-3.107 -2.56,-5.106 -4.786,-7.438c-2.233,-2.34 -3.812,-5.277 -5.931,-7.78c-2.083,-2.468 -3.47,-5.255 -4.565,-8.256c-0.669,-1.814 -1.202,-3.257 -1.643,-5.099c-0.434,-1.813 -0.256,-3.648 -0.711,-5.461c-0.896,-3.599 -0.285,-7.922 -0.292,-11.691c0,-2.112 0.818,-3.761 0.782,-5.845c-0.028,-1.799 0.526,-3.569 0.946,-5.276c0.199,-0.825 0.519,-1.408 0.576,-2.51c0.05,-1.06 0.533,-1.743 0.718,-2.724c0.171,-0.903 -0.106,-1.835 0.043,-2.731c0.164,-0.968 0.69,-1.743 0.832,-2.724c0.142,-0.995 -0.271,-2.169 -0.036,-3.143c0.178,-0.768 0.647,-1.152 0.818,-1.877c0.2,-0.839 -0.071,-1.898 -0.028,-2.773c0.056,-1.038 0.44,-1.394 0.604,-2.112c0.419,-1.892 0.192,-4.096 0.206,-6.066c0.015,-2.062 0.384,-4.551 -0.021,-6.556c-0.334,-1.649 -0.583,-2.417 -0.633,-4.188c-0.028,-1.059 -0.341,-1.543 -0.583,-2.51c-0.441,-1.785 0.142,-3.676 -0.292,-5.461c-1.095,-4.502 -1.337,-9.344 -1.934,-14.002c-0.534,-4.139 -1.579,-8.1 -2.212,-12.146c-0.668,-4.231 -1.906,-8.483 -2.112,-12.878c-0.092,-2.026 -0.746,-3.697 -0.725,-5.852c0.015,-0.896 0.079,-1.828 0.036,-2.724c-0.043,-1.053 -0.505,-1.757 -0.676,-2.738c-0.669,-3.726 -0.007,-8.285 0.014,-12.082c0.014,-2.005 -0.285,-4.309 0.206,-6.236c0.484,-1.884 0.605,-3.427 0.619,-5.454c0.022,-3.94 0.79,-7.368 0.818,-11.3c0.015,-2.176 0.093,-3.811 0.619,-5.838c0.234,-0.931 -0.05,-1.87 0.149,-2.759c0.178,-0.768 0.654,-1.145 0.825,-1.877c0.398,-1.664 -0.007,-4.146 0,-5.881c0.015,-2.076 0.029,-4.16 0.043,-6.236c0.014,-1.834 -0.313,-4.067 0,-5.852c0.178,-0.989 0.711,-1.714 0.832,-2.724c0.1,-0.868 -0.021,-1.842 -0.014,-2.731c0.028,-3.897 0.057,-7.794 0.078,-11.691c0.015,-1.948 0.008,-3.897 0.036,-5.845c0.036,-1.863 -0.675,-2.908 -0.718,-4.672c-0.05,-1.955 -0.761,-3.164 -0.704,-5.084c0.057,-1.842 -0.768,-2.823 -0.711,-4.679c0.057,-1.891 -0.754,-3.235 -1.081,-5.077c-0.32,-1.827 -0.562,-3.669 -1.081,-5.468c-0.562,-1.927 -0.811,-3.911 -1.287,-5.852c-0.228,-0.946 -0.007,-1.792 -0.114,-2.731c-0.113,-1.003 -0.632,-1.75 -0.796,-2.731c-0.164,-1.01 0.185,-2.119 0.078,-3.136c-0.1,-0.967 -0.548,-1.237 -0.683,-2.005c-0.32,-1.806 0.05,-3.591 -0.398,-5.39c-0.377,-1.479 -0.093,-2.609 -0.313,-4.117c-0.128,-0.924 -0.662,-1.614 -0.804,-2.517c-0.185,-1.174 -0.235,-1.956 -0.519,-3.122c-0.192,-0.811 -0.17,-1.508 -0.149,-2.34c0.071,-2.197 -0.732,-3.982 -0.704,-6.222c0.014,-1.131 0.164,-2.354 0.05,-3.463c-0.106,-1.038 -0.618,-1.778 -0.789,-2.802c-0.654,-3.961 0.675,-8.221 -0.249,-12.153c-0.555,-2.34 -0.313,-4.743 -0.327,-7.168c-0.007,-2.225 0.789,-3.975 0.782,-6.229c-0.007,-3.939 -0.512,-8.505 0.455,-12.245c0.548,-2.126 0.427,-4.373 0.42,-6.613c-0.014,-2.219 0.739,-4.068 0.782,-6.251c0.071,-3.897 0.05,-7.801 0.078,-11.698c0.015,-1.948 0.029,-3.897 0.036,-5.845c0.008,-0.889 0.143,-1.87 0.036,-2.745c-0.107,-0.903 -0.519,-1.244 -0.683,-2.005c-0.214,-0.996 0.078,-2.041 -0.107,-3.051c-0.17,-0.96 -0.561,-1.721 -0.661,-2.731c-0.185,-1.827 -0.754,-3.704 -1.273,-5.468c-1.173,-3.989 -1.799,-8.121 -2.702,-12.103c-0.448,-1.955 -0.441,-3.904 -0.91,-5.852c-0.234,-0.953 -0.128,-1.757 -0.142,-2.731c-0.021,-1.194 -0.32,-1.785 -0.569,-2.901c-0.455,-2.055 -0.256,-4.736 -0.135,-6.848c0.106,-1.906 0.824,-3.442 0.796,-5.447c-0.022,-2.097 0.782,-3.719 0.782,-5.845c-0.007,-2.041 0.036,-3.548 0.69,-5.454c0.626,-1.82 1.536,-3.925 1.636,-5.838c0.106,-1.934 0.668,-3.598 0.782,-5.447c0.227,-3.883 0.775,-7.368 0.796,-11.3c0.007,-1.01 0.171,-2.126 0.05,-3.122c-0.121,-1.003 -0.611,-1.75 -0.789,-2.731c-0.342,-1.884 0.064,-4.295 0.078,-6.215c0.028,-4.153 -0.342,-8.562 0.661,-12.494c0.484,-1.906 -0.22,-3.982 0.178,-5.874c0.164,-0.782 0.647,-1.13 0.825,-1.87c0.199,-0.881 -0.149,-1.87 0.043,-2.773c0.249,-1.188 0.668,-1.814 0.704,-3.115c0.028,-0.904 0.007,-1.821 0.014,-2.724c0.015,-1.82 0.022,-3.641 0.036,-5.461c0.007,-1.017 -0.114,-2.126 0,-3.136c0.106,-0.875 0.554,-1.28 0.718,-1.991c0.362,-1.65 0.775,-3.683 0.846,-5.383c0.042,-1.038 -0.15,-2.112 0.078,-3.122c0.234,-1.039 0.654,-1.636 0.718,-2.724c0.1,-1.728 -0.284,-3.627 0.178,-5.284c0.256,-0.896 0.59,-1.365 0.597,-2.51c0.007,-1.103 0.121,-1.7 0.391,-2.724c0.27,-1.024 0.263,-1.707 0.37,-2.745c0.099,-0.995 0.562,-1.209 0.711,-1.991c0.356,-1.856 -0.263,-3.918 0.064,-5.781c0.206,-1.174 0.754,-1.885 0.825,-3.115c0.043,-0.768 -0.007,-1.564 -0.007,-2.332c0.021,-2.027 -0.235,-4.26 0.028,-6.258c0.114,-0.903 0.547,-1.237 0.711,-1.991c0.178,-0.818 0.078,-1.664 0.242,-2.489c1.265,-6.244 8.96,-10.795 13.532,-14.699c5.141,-4.402 11.499,-7.168 16.391,-11.57c1.607,-1.444 2.944,-2.376 4.309,-4.068c1.173,-1.458 2.866,-3.207 4.487,-4.096c1.415,-0.783 2.837,-1.287 4.217,-2.091c1.365,-0.789 2.333,-1.884 3.641,-2.709c2.887,-1.82 5.924,-2.787 8.434,-5.205c2.247,-2.176 4.473,-3.755 6.926,-5.604c2.531,-1.899 4.466,-4.473 7.31,-6.023c1.33,-0.718 2.162,-1.636 3.342,-2.681c1.074,-0.946 2.261,-1.607 3.534,-2.318c6.621,-3.705 12.85,-7.41 19.435,-10.788c2.994,-1.536 5.853,-3.165 8.683,-4.715c2.646,-1.451 5.156,-3.435 7.915,-4.53c6.122,-2.418 12.444,-4.615 17.55,-8.846c1.465,-1.216 3.172,-1.586 4.708,-2.702c1.252,-0.911 2.162,-1.97 3.556,-2.724c1.628,-0.875 3.292,-1.052 5.013,-1.671c1.799,-0.647 3.442,-1.927 5.227,-2.638c3.25,-1.302 5.689,-3.335 8.59,-5.483c2.937,-2.176 6.066,-3.712 9.337,-5.397c3.413,-1.756 6.577,-3.243 10.076,-4.615c2.005,-0.782 3.946,-0.747 5.966,-1.522c1.764,-0.676 3.456,-1.614 5.22,-2.297c1.799,-0.69 3.62,-0.924 5.44,-1.415l0.569,-2.46c6.87,-3.414 13.817,-6.671 20.9,-9.636l7.9,-3.086c0.37,0.234 0.733,0.241 1.081,0.021c1.984,-0.81 3.862,-1.465 5.867,-2.197c2.418,-0.882 4.494,-2.148 7.033,-2.809c3.065,-0.796 6.137,-1.593 9.209,-2.375c3.854,-0.995 7.204,-1.792 11.264,-1.998c2.88,-0.142 5.611,-0.789 8.505,-0.761c6.066,0.071 12.502,-0.768 18.482,0.171c1.792,0.284 2.496,1.074 3.925,1.927c1.046,0.626 2.788,0.654 3.947,1.074c1.785,0.654 2.838,1.401 4.324,2.375c0.683,0.448 2.496,1.351 3.065,2.176c0.206,0.306 0.355,0.654 0.469,1.031c0.782,0.022 1.656,-0.213 2.396,-0.021c0.64,0.171 0.96,0.569 1.529,0.747c2.923,0.91 6.087,1.856 9.209,2.645c3.513,0.889 6.926,2.724 10.389,3.62c2.866,0.746 5.738,1.756 8.526,2.588c0.725,0.22 1.387,0.341 2.041,0.583c0.789,0.291 1.636,0.711 2.432,0.91c1.622,0.405 3.208,0.569 4.836,0.846c1.536,0.264 3.008,1.252 4.43,1.828c1.6,0.64 3.2,0.988 4.786,1.472c3.015,0.911 6.301,2.667 9.337,3.883c3.35,1.344 6.671,1.771 10.027,2.788c3.385,1.017 6.77,2.077 10.041,3.385c5.994,2.411 11.264,6.344 16.661,10.148c5.547,3.918 11.456,7.545 16.633,11.705c3.193,2.56 6.472,4.942 9.508,7.687c1.991,1.806 3.605,3.89 5.71,5.582c2.396,1.934 5.034,3.619 7.196,5.788c2.61,2.624 5.255,5.376 7.929,7.851c2.454,2.283 5.12,4.345 7.716,6.464c1.365,1.11 2.624,2.646 3.769,3.94c0.498,0.568 1.01,1.336 1.536,1.884c0.768,0.804 1.835,1.081 2.567,2.027c0.697,0.896 0.939,1.92 1.778,2.688c0.832,0.768 1.799,1.159 2.617,2.012c1.415,1.472 2.674,2.908 4.046,4.359c2.638,2.802 4.956,5.59 7.239,8.818c3.868,5.483 7.665,11.321 11.605,16.619c3.819,5.141 6.856,11.242 10.66,16.476c1.949,2.681 4.246,5.135 6.258,7.787c1.06,1.401 2.027,2.824 2.944,4.132c0.825,1.167 1.864,2.07 2.596,3.307c1.899,3.185 3.911,6.435 5.696,9.621c1.728,3.101 3.719,6.315 5.703,9.259c4.124,6.101 6.57,12.572 9.173,19.484c0.853,2.268 1.109,3.392 1.095,5.852c-0.007,1.685 0.05,3.392 -0.028,5.077c-0.071,1.65 -0.711,2.546 -1.429,3.975c-0.747,1.5 -0.612,2.545 -1.024,4.188c-0.789,3.15 -1.792,6.343 -2.503,9.337c-0.334,1.4 -0.881,2.837 -1.173,4.252c-0.156,0.747 0.128,1.607 0.043,2.368c-0.121,1.01 -0.654,1.743 -0.832,2.724c-0.178,0.996 0.235,2.119 0.057,3.115c-0.149,0.846 -0.69,1.493 -0.839,2.332c-0.15,0.903 0.156,1.821 -0.043,2.731c-0.178,0.832 -0.59,1.472 -0.711,2.332c-0.263,1.827 -0.491,3.634 -0.825,5.454c-0.178,0.975 -0.875,1.636 -0.754,2.724c0.093,0.847 0.683,1.501 0.818,2.347c0.541,3.342 -0.114,7.381 -0.782,10.517c-0.661,3.043 -0.348,7.388 -0.156,10.524c0.142,2.262 0.746,4.267 0.718,6.628c-0.014,1.692 -0.007,3.378 -0.028,5.07c-0.05,3.677 1.472,6.898 1.415,10.532c-0.05,3.278 0.569,7.374 -0.235,10.524c-0.853,3.342 -0.661,6.968 -0.647,10.524c0.008,3.797 -1.365,7.644 -2.14,11.328c-0.419,1.969 -0.889,4.202 -0.974,6.229c-0.078,1.835 -0.718,3.279 -0.768,5.092c-0.213,7.9 0.007,15.808 -0.142,23.708c-0.071,3.57 1.465,6.948 1.415,10.539c-0.057,3.498 -0.092,7.018 -0.071,10.524c0.007,1.963 -0.789,3.484 -0.775,5.447c0.007,1.692 -0.029,3.378 -0.036,5.07c-0.014,1.77 -0.249,3.698 -0.064,5.454c0.178,1.77 1.266,3.335 1.522,5.077c0.256,1.799 0.697,3.612 0.661,5.461c-0.028,1.607 -0.248,3.498 0.036,5.07c0.633,3.556 1.379,6.799 1.351,10.532c-0.007,1.01 0.114,2.14 0,3.136c-0.093,0.811 -0.441,1.11 -0.612,1.714c-0.241,0.903 -0.007,1.685 -0.149,2.581c-0.135,0.846 -0.64,1.095 -0.825,1.877c-0.206,0.875 0.235,1.913 0.05,2.795c-0.164,0.789 -0.647,1.13 -0.825,1.877c-0.377,1.579 0.306,3.449 -0.057,5.042c-0.178,0.754 -0.604,1.067 -0.711,1.991c-0.107,0.882 -0.007,1.849 -0.007,2.745c0.007,1.799 -0.356,3.378 -0.754,5.063c-0.854,3.619 -1.551,6.677 -1.579,10.517c-0.021,3.505 -0.043,7.011 -0.071,10.524c-0.021,3.328 -0.583,7.274 -0.007,10.524c0.604,3.356 1.393,6.321 1.365,9.749c-0.035,3.641 -0.05,7.282 -0.078,10.916c-0.021,3.264 -0.718,7.381 -0.092,10.553c0.156,0.789 0.632,1.144 0.796,1.884c0.185,0.832 -0.078,1.905 -0.064,2.773c0.022,1.608 0.455,3.378 0.882,4.9c0.221,0.782 0.512,1.095 0.569,2.119c0.064,1.152 0.313,1.693 0.562,2.738c0.192,0.825 -0.014,1.536 0.107,2.34c0.149,0.989 0.696,1.721 0.796,2.738c0.349,3.677 1.579,6.927 2.169,10.539c0.164,1.003 -0.263,2.112 -0.092,3.115c0.128,0.811 0.846,1.536 0.839,2.347c-0.008,0.896 -0.754,1.8 -0.868,2.724c-0.086,0.74 0.014,1.586 0.014,2.34c-0.008,1.813 -0.015,3.634 -0.036,5.454c-0.021,1.991 0.448,3.221 0.747,5.07c0.164,1.003 -0.256,2.119 -0.092,3.122c0.136,0.847 0.669,1.494 0.804,2.34c0.249,1.55 -0.064,3.484 -0.071,5.07z" /> <path d="M205.55,55.829l0.128,0.604c-0.192,-0.242 -0.37,-0.476 -0.569,-0.718c0.142,0.029 0.327,0.107 0.441,0.114z" /> <path d="M200.689,52.402c1.771,-0.306 3.392,2.041 4.352,3.221c0.021,0.035 0.043,0.064 0.071,0.092c-1.55,-0.32 -4.309,-1.863 -4.423,-3.314z" /> <path d="M308.691,0.862c0.456,0.234 0.939,0.391 1.444,0.462c-0.178,0.022 -0.348,0.029 -0.519,0.043c-0.32,-0.164 -0.554,-0.37 -0.924,-0.505z" /> <path d="M722.073,861.593c0.128,0.007 0.256,0 0.384,0.007c-0.149,0.221 -0.277,0.135 -0.384,-0.007z" /> <path d="M114.847,740.035c1.657,2.126 2.646,3.605 3.314,4.764c0.007,-0.249 0.057,-0.505 0.057,-0.761c0,-1.415 -0.015,-2.759 0.021,-4.11c0.007,-0.221 0.05,-0.463 0.057,-0.683c-0.427,-0.036 -0.847,-0.078 -1.252,0.014c-0.839,0.185 -1.066,1.067 -2.197,0.775zM845.872,522.39c-1.309,0.868 0.248,2.702 0.348,3.897c0.135,1.6 -0.925,2.226 -1.081,3.705c-1.565,-0.69 -2.638,-1.508 -4.466,-1.6c-2.319,-0.121 -4.694,0.007 -7.019,0.007c-5.76,0.007 -11.371,1.607 -17.188,0.661c-6.641,-1.074 -13.397,-1.508 -20.188,-1.508c-3.037,0 -6.294,0.349 -9.316,0.043c-1.565,-0.156 -2.887,-0.832 -4.459,-0.91c-1.237,-0.064 -2.503,0.014 -3.74,0.014h-36.409c0.057,0.789 0.149,1.607 0.192,2.375c0.171,3.121 0.256,6.122 0.199,8.917c-0.05,2.724 0.057,5.561 0.206,8.427c0.149,2.873 0.348,5.774 0.469,8.647c0.228,5.689 1.294,12.061 1.202,17.323c-0.092,4.857 -0.142,9.764 -0.22,14.642c-0.028,2.311 0.043,4.822 0.064,7.282c0.021,2.46 -0.007,4.864 -0.242,6.94c-0.128,1.124 -0.548,1.792 -0.619,3.001c-0.049,0.967 -0.007,2.041 -0.021,3.051c-0.043,2.617 -0.085,5.241 -0.128,7.865c-0.043,2.695 -0.085,5.39 -0.121,8.092c-0.029,1.636 -0.228,3.037 -0.42,4.452c4.43,-0.59 8.69,-1.458 13.305,-1.458c4.864,0 9.721,-0.043 14.585,0c3.392,0.022 6.386,-0.86 9.828,-0.846c2.482,0.007 4.636,-0.121 6.983,-0.661c4.893,-1.138 11.087,-0.171 16.107,-0.192c1.088,0 2.411,-0.271 3.442,-0.043c1.351,0.298 2.119,0.832 3.541,0.91c2.397,0.142 4.872,-0.014 7.268,-0.014h13.774c2.574,0 10.062,-1.258 11.57,0.868c-3.733,-0.761 -3.52,7.025 -3.897,8.924c-0.398,2.041 -0.939,2.887 -2.994,2.951c-2.119,0.064 -4.26,-0.007 -6.379,-0.007c-4.132,0 -7.723,0.846 -11.883,0.846c-4.559,0 -8.598,-0.839 -13.163,-0.846c-2.262,-0.007 -3.812,0.612 -5.938,0.882c-2.233,0.278 -4.971,0.135 -7.225,-0.014c-1.137,-0.078 -1.898,-0.583 -2.965,-0.796c-1.173,-0.242 -2.432,-0.057 -3.641,-0.071c-2.339,-0.022 -4.188,0.867 -6.556,0.846c-1.977,-0.021 -3.961,0 -5.945,0c-0.981,0 -1.991,-0.071 -2.965,-0.021c-1.315,0.071 -2.14,0.689 -3.399,0.917c-3.67,0.647 -8.15,-0.05 -11.89,-0.05c-4.267,0 -8.569,0.107 -12.871,0.164c-0.099,0.853 -0.213,1.692 -0.277,2.574c-0.106,1.429 -0.149,2.908 -0.078,4.48c0.143,3.328 0.477,6.55 0.42,9.771c-0.064,3.968 -0.291,7.751 0.249,12.032c0.227,1.806 0.213,3.519 0.142,5.212c-0.071,1.693 -0.206,3.35 -0.206,5.035c0,1.771 0.348,3.62 0.476,5.433c0.157,2.254 -0.071,4.224 0.242,6.549c0.22,1.642 0.27,3.221 0.263,4.764c-0.015,1.543 -0.086,3.058 -0.107,4.601c-0.029,1.657 0.078,3.463 -0.043,5.077c-0.121,1.557 -0.612,2.83 -0.704,4.43c-0.086,1.45 -0.384,2.78 -0.683,4.117c-0.306,1.337 -0.605,2.681 -0.697,4.139c-0.206,3.371 -0.711,6.478 -0.775,9.984c-0.015,0.633 0.014,1.316 0.028,1.984c0.014,0.668 0.007,1.33 -0.071,1.934c-0.107,0.874 -0.384,1.628 -0.576,2.453c1.778,0.085 3.555,0.256 5.063,0.256h11.911c4.458,0 9.365,-0.583 13.788,-0.05c1.43,0.177 2.589,0.796 4.011,0.917c1.053,0.086 2.184,-0.007 3.236,-0.021c2.083,-0.022 3.662,0.768 5.703,0.86c3.663,0.157 7.375,-0.014 11.044,-0.014c4.388,0 8.334,-0.846 12.729,-0.846c9.337,0 18.816,0.462 28.146,-0.043c-0.953,0.996 -2.24,1.508 -3.3,2.361c-1.543,1.244 -1.806,2.19 -2.453,4.06c-0.896,2.61 1.059,5.767 -0.057,8.818c-0.974,-0.441 -1.088,-0.626 -2.169,-0.59c-0.007,0 -1.656,0.669 -1.884,0.697c-1.906,0.242 -4.039,-0.021 -5.966,-0.021c-2.297,0 -4.743,0.27 -6.983,-0.185c-3.115,-0.633 -5.931,-0.533 -9.152,-0.64c-3.065,-0.106 -5.796,-0.91 -8.939,-0.86c-2.688,0.043 -5.141,-0.732 -7.829,-0.839c-2.716,-0.1 -5.098,-0.882 -7.9,-0.868c-2.233,0.007 -4.537,0.156 -6.763,0.014c-2.077,-0.121 -3.734,-0.882 -5.924,-0.868c-1.841,0.014 -3.683,0 -5.525,0c-3.797,0 -7.673,0.227 -11.463,0.021c-2.091,-0.114 -3.741,-0.882 -5.938,-0.868c-1.579,0.007 -3.157,0 -4.736,0c-0.754,3.691 -1.927,7.289 -2.418,11.136c-0.157,1.223 0.042,2.56 -0.171,3.755c-0.298,1.699 -0.697,3.164 -0.718,5.006c-0.043,3.029 -0.15,6.016 -0.164,9.017c-0.021,3.001 0.05,6.009 0.363,9.067c0.164,1.543 0.128,3.03 0.121,4.523c-0.007,1.486 0.007,2.98 0.27,4.544c0.27,1.629 0.327,3.264 0.384,4.9c0.064,1.635 0.121,3.271 0.384,4.892c1.074,6.393 2.275,12.672 3.854,18.795c1.586,6.13 3.555,12.104 6.158,17.892c1.294,2.866 2.489,5.81 3.598,8.761c0.668,-0.036 1.322,-0.1 2.005,-0.1c4.864,0 9.721,-0.043 14.585,0c3.392,0.022 6.393,-0.86 9.828,-0.846c2.482,0.007 4.636,-0.121 6.983,-0.661c4.893,-1.138 11.087,-0.171 16.107,-0.192c1.088,0 2.411,-0.271 3.449,-0.043c1.344,0.298 2.112,0.832 3.541,0.91c2.389,0.142 4.864,-0.014 7.26,-0.014h13.774c2.574,0 10.062,-1.258 11.57,0.868c-3.733,-0.761 -3.52,7.025 -3.897,8.924c-0.398,2.041 -0.932,2.887 -2.994,2.951c-2.119,0.064 -4.253,-0.007 -6.379,-0.007c-4.125,0 -7.723,0.846 -11.883,0.846c-4.559,0 -8.598,-0.839 -13.163,-0.846c-2.254,-0.007 -3.812,0.612 -5.938,0.882c-2.233,0.278 -4.971,0.135 -7.225,-0.014c-1.138,-0.078 -1.898,-0.583 -2.958,-0.796c-1.181,-0.242 -2.439,-0.057 -3.641,-0.071c-2.339,-0.022 -4.195,0.867 -6.556,0.846c-1.984,-0.021 -3.968,0 -5.945,0c-0.981,0 -1.998,-0.071 -2.972,-0.021c-1.308,0.071 -2.14,0.689 -3.399,0.917c-3.662,0.647 -8.142,-0.043 -11.89,-0.043c-0.036,0 -0.078,0 -0.121,0c-1.963,0.54 -4.75,0.213 -6.407,0.092c-0.036,0 -0.078,-0.014 -0.114,-0.014c-6.905,0.107 -13.838,0.249 -20.693,-0.121c0.206,-0.291 0.476,-1.258 0.853,-3.605c-1.394,-0.654 -2.774,-1.358 -4.21,-1.913c-4.018,-1.536 -8.27,-3.121 -12.359,-4.508c-1.472,-0.498 -2.93,-1.031 -4.395,-1.543c-2.119,-0.732 -3.342,-1.735 -5.077,0.434l-2.247,-12.864c-0.32,-0.057 -0.583,-0.199 -0.789,-0.434v0v0c0.547,0.178 0.32,0.072 0.789,0.036c0.213,0.256 0.533,0.433 0.91,0.54c0.37,0.107 0.796,0.135 1.216,0.107c0.853,-0.064 1.685,-0.399 2.069,-0.939c0.206,-0.285 0.377,-0.896 0.526,-1.508c0.106,-0.441 0.199,-0.86 0.277,-1.159c0.015,-0.036 0.022,-0.092 0.036,-0.128c0.348,-1.195 0.27,-2.46 0.334,-3.712c0.093,-1.87 -0.149,-4.16 0.249,-5.966c0.214,-0.981 0.527,-1.941 0.868,-2.887c0.334,-0.939 0.697,-1.856 1.017,-2.759c0.655,-1.863 1.408,-3.655 2.02,-5.504c0.306,-0.924 0.576,-1.87 0.782,-2.837c0.206,-0.967 0.348,-1.97 0.391,-3.015c0.05,-1.096 0.143,-2.048 0.299,-2.98c0.163,-0.931 0.376,-1.842 0.668,-2.83c0.561,-1.942 1.486,-4.018 1.685,-6.059c0.796,-8.419 -0.263,-17.735 1.941,-25.543c1.173,-4.139 2.965,-7.666 3.1,-12.21c0.071,-2.29 0.889,-4.096 0.939,-6.386c0,-0.085 0.021,-0.121 0.021,-0.206c0.057,-1.223 0.299,-1.82 0.626,-2.908c0.363,-1.209 0.263,-2.667 0.313,-4.004c0.093,-2.361 0.427,-4.202 0.868,-6.357c0.199,-0.96 0.327,-2.148 0.37,-3.364c0.035,-1.216 -0.014,-2.453 -0.178,-3.513c-0.348,-2.204 -0.853,-4.722 -0.917,-6.912c-0.057,-1.949 0.078,-3.919 0.213,-5.86c0.043,-0.676 0.092,-1.359 0.128,-2.02c0.036,-0.704 0,-1.295 -0.071,-1.892c-0.078,-0.597 -0.177,-1.195 -0.284,-1.927c-0.164,-1.201 0.085,-2.126 0.028,-3.285c-0.064,-1.258 -0.52,-2.474 -0.548,-3.726c-0.043,-1.664 -0.022,-2.937 -0.299,-4.615c-0.242,-1.451 0.135,-1.636 0.476,-2.724c0.335,-1.081 0.249,-2.397 0.299,-3.634c0.086,-2.311 0.192,-4.622 0.292,-6.933c0.078,-1.948 0.15,-3.904 0.242,-5.845c0.057,-1.144 -0.007,-1.848 -0.192,-3.036c-0.227,-1.486 -0.035,-2.795 -0.277,-4.274c-0.192,-1.152 -0.391,-2.368 -0.54,-3.57c-0.157,-1.208 -0.277,-2.41 -0.313,-3.548c-0.014,-0.555 0.042,-1.088 0.142,-1.607c0.106,-0.526 0.248,-1.038 0.412,-1.529c0.327,-0.995 0.725,-1.941 0.974,-2.837c0.057,-0.206 0.114,-0.398 0.178,-0.59c0.199,-0.676 0.419,-1.316 0.59,-2.02c0.192,-0.832 0.534,-1.052 0.74,-1.792c0.213,-0.79 -0.014,-2.091 0.078,-2.98c0.114,-1.195 0.484,-2.262 0.761,-3.307c0.448,-1.7 1.429,-3.264 2.076,-4.772c0.363,-0.832 0.768,-1.714 1.131,-2.624c0.363,-0.91 0.683,-1.863 0.882,-2.837c0.875,-4.324 1.6,-8.747 1.778,-13.604c0.128,-3.491 -0.413,-7.274 -0.612,-10.908c-0.064,-1.209 -0.093,-2.404 -0.043,-3.57c0.1,-2.318 -0.434,-4.615 -0.327,-6.94c0.043,-0.938 0.128,-1.877 0.121,-2.844c-0.007,-0.768 -0.121,-1.529 -0.235,-2.297c-0.114,-0.768 -0.22,-1.536 -0.206,-2.325c0.043,-2.183 0.768,-3.385 0.818,-5.497c0.021,-1.11 0.206,-1.885 0.391,-2.667c0.178,-0.775 0.362,-1.55 0.398,-2.652c0.071,-2.091 0.242,-4.004 0.505,-5.81c0.256,-1.813 0.604,-3.513 1.024,-5.184c0.1,-0.413 0.128,-0.882 0.114,-1.38c-0.042,-1.507 -0.476,-3.321 -0.405,-4.807c0.093,-2.027 0.15,-4.075 0.228,-6.116c0.156,-4.082 0.306,-8.156 0.462,-12.238c0.163,-4.494 -0.221,-9.031 -0.05,-13.518c0.036,-1.003 0.107,-1.977 0.128,-2.994c0.007,-0.683 -0.064,-1.322 -0.164,-1.97c-0.1,-0.648 -0.214,-1.302 -0.292,-2.02c-0.072,-0.739 -0.086,-1.4 -0.1,-2.076c-0.007,-0.675 -0.028,-1.358 -0.128,-2.14c-0.206,-1.679 -0.519,-3.663 -0.512,-5.156c0.021,-2.609 -0.22,-5.212 -0.199,-7.829c0.015,-1.692 -0.227,-3.583 -0.54,-5.525c-0.313,-1.942 -0.704,-3.94 -0.981,-5.867c-0.946,-6.492 -0.889,-11.726 -0.654,-17.237c0.099,-2.276 0.547,-4.772 0.348,-7.332c-0.128,-1.571 -0.448,-3.029 -0.405,-4.501c0.029,-0.803 0.071,-1.586 0.114,-2.375c0.036,-0.789 0.071,-1.586 0.107,-2.382c0.05,-1.067 0.029,-2.319 0.057,-3.499c0,-0.043 0.007,-0.078 0.007,-0.121c0.029,-1.038 0.114,-1.998 0.299,-2.745c0.022,-0.078 0.029,-0.185 0.05,-0.263c0.156,-0.512 0.263,-0.917 0.348,-1.365c0.085,-0.455 0.142,-0.953 0.192,-1.657c0.099,-1.351 0.661,-1.749 0.718,-3.136c0.05,-1.173 -0.342,-2.503 -0.434,-3.804c-0.092,-1.244 0.128,-2.354 0.178,-3.463c0.107,-2.432 0.206,-4.885 0.313,-7.324c0.178,-4.125 0.192,-8.562 0.526,-12.466c0.078,-0.925 0.306,-1.671 0.569,-2.347c0.263,-0.682 0.569,-1.294 0.811,-1.941c0.313,-0.847 0.576,-1.671 0.768,-2.603c0.199,-0.938 0.334,-1.984 0.391,-3.292c0.092,-2.155 -0.327,-4.587 -0.235,-6.699c0.042,-1.045 0.185,-1.87 0.334,-2.695c0.106,-0.54 0.199,-1.095 0.277,-1.692c0.064,-0.448 0.114,-0.911 0.135,-1.451c0.079,-1.849 0.15,-3.705 0.228,-5.554c0.007,-0.079 0.007,-0.15 0.014,-0.228c0.049,-1.23 0.106,-2.446 0.149,-3.698c0.043,-1.422 -0.177,-2.681 -0.284,-4.309c-0.079,-1.152 -0.043,-2.226 0.021,-3.25c0.064,-1.031 0.156,-2.02 0.199,-3.008c0.05,-1.287 0.071,-2.545 0.043,-3.868c-0.028,-1.323 -0.107,-2.71 -0.256,-4.26c-0.27,-2.773 -0.412,-5.376 -0.661,-8.135c-0.128,-1.359 -0.192,-2.518 -0.213,-3.62c-0.021,-1.11 0.007,-2.162 0.057,-3.314c0.093,-2.169 0.064,-4.409 0.043,-6.656c-0.029,-2.225 -0.057,-4.451 0.028,-6.62c0.022,-0.483 0.029,-0.974 0.05,-1.422c0.029,-0.448 0.078,-0.853 0.178,-1.173c0.079,-0.242 0.327,0.199 0.427,-0.185c0.043,-0.178 0.021,-0.498 0.007,-0.818c-0.021,-0.32 -0.036,-0.64 0.007,-0.818c0.376,-1.508 1.294,-1.743 1.756,-3.115c0.342,-1.01 0.747,-1.749 1.188,-2.382c0.789,-1.145 1.721,-1.778 2.816,-1.991c0.647,-0.128 1.33,0.057 1.87,-0.334c0.37,-0.277 1.259,-1.259 0.704,-3.719c-0.213,-0.96 -1.216,-2.787 -1.557,-3.676c-0.292,-0.775 -0.548,-1.401 -0.804,-2.027c-0.256,-0.619 -0.512,-1.231 -0.825,-1.963c-0.846,-1.962 -1.742,-4.024 -2.624,-6.044c-0.875,-2.012 -1.735,-3.982 -2.617,-6.044c-1.849,-4.295 -3.782,-8.504 -5.781,-12.679c-1.999,-4.175 -4.068,-8.306 -6.187,-12.452c-1.124,-2.205 -2.247,-4.43 -3.392,-6.649c-3.428,-6.67 -6.976,-13.297 -10.866,-19.093c-1.259,-1.87 -2.532,-3.783 -3.819,-5.71c-3.847,-5.782 -7.822,-11.691 -11.932,-16.932c-2.461,-3.136 -5.071,-6.322 -7.716,-8.939c-1.415,-1.401 -2.766,-2.944 -4.117,-4.466c-1.358,-1.529 -2.716,-3.03 -4.16,-4.338c-2.418,-2.204 -4.878,-4.416 -7.367,-6.556c-1.301,-1.117 -2.609,-2.24 -3.925,-3.314c-1.834,-1.493 -3.271,-3.385 -5.07,-5.049c-0.711,-0.668 -1.457,-1.18 -2.204,-1.692c-0.754,-0.512 -1.501,-1.017 -2.226,-1.664c-1.735,-1.544 -3.478,-3.293 -5.234,-4.836c-2.141,-1.87 -4.288,-3.989 -6.443,-6.137c-2.162,-2.14 -4.331,-4.309 -6.507,-6.272c-7.8,-7.04 -15.964,-13.077 -24.284,-19.129c-2.204,-1.607 -4.423,-3.1 -6.663,-4.636c-2.126,-1.458 -4.152,-3.435 -6.3,-4.8c-2.112,-1.337 -4.28,-2.667 -6.428,-3.954c-1.138,-0.683 -2.29,-1.159 -3.442,-1.643c-1.159,-0.484 -2.311,-0.982 -3.456,-1.714c-4.459,-2.858 -9.031,-5.155 -13.689,-7.132c-4.658,-1.977 -9.401,-3.633 -14.194,-5.205c-2.333,-0.768 -4.139,-1.693 -6.372,-2.802c-2.155,-1.066 -4.267,-1.28 -6.436,-2.126c-2.453,-0.953 -4.643,-2.354 -7.175,-3.051c-1.543,-0.427 -3.107,-0.775 -4.679,-1.145c-1.571,-0.363 -3.136,-0.747 -4.686,-1.216c-0.569,-0.177 -1.081,-0.44 -1.621,-0.668c-1.607,-0.683 -3.157,-1.472 -4.885,-1.892c-2.119,-0.504 -4.253,-0.917 -6.386,-1.372c-4.921,-1.038 -9.586,-0.939 -14.528,-1.799c-5.092,-0.889 -10.212,-1.65 -15.346,-2.304c-5.134,-0.654 -10.282,-1.202 -15.445,-1.657c-5.113,-0.455 -10.368,-1.137 -15.495,-1.109c-4.885,0.028 -9.799,1.18 -14.649,1.536c-2.105,0.157 -4.281,0.143 -6.464,0.1c-2.183,-0.043 -4.366,-0.121 -6.478,-0.1c-3.342,0.035 -6.556,0.924 -9.799,1.678c-1.081,0.248 -2.169,0.483 -3.257,0.668c-4.16,0.711 -7.858,1.479 -12.103,1.806c-2.347,0.184 -4.053,0.625 -6.272,1.308c-2.353,0.725 -4.65,0.604 -7.004,1.436c-2.162,0.761 -4.409,1.551 -6.663,2.283c-2.254,0.739 -4.516,1.415 -6.706,1.941c-2.162,0.527 -4.48,0.662 -6.656,1.003c-1.052,0.164 -2.034,0.527 -3.022,0.868c-1.55,0.541 -3.079,1.138 -4.693,1.529c-1.251,0.306 -2.389,0.498 -3.527,0.747c-1.138,0.256 -2.261,0.562 -3.47,1.088c-2.262,0.989 -4.253,1.394 -6.578,1.913c-2.176,0.484 -4.409,0.889 -6.564,1.522c-2.695,0.789 -5.156,2.296 -7.872,3.036c-2.496,0.669 -4.928,1.323 -7.332,2.091c-2.403,0.775 -4.786,1.671 -7.175,2.844c-2.176,1.067 -4.401,1.629 -6.613,2.354c-1.394,0.462 -2.681,1.081 -3.954,1.735c-1.273,0.662 -2.532,1.358 -3.883,1.97c-1.116,0.512 -2.247,0.932 -3.392,1.316c-3.42,1.159 -6.904,2.005 -10.14,4.039c-1.308,0.818 -2.616,1.522 -3.932,2.176c-1.308,0.654 -2.624,1.259 -3.932,1.863c-2.61,1.216 -5.212,2.468 -7.758,4.217c-1.935,1.323 -3.975,2.091 -5.931,3.015c-1.045,0.498 -1.97,1.13 -2.88,1.806c-0.911,0.669 -1.8,1.38 -2.788,2.027c-0.96,0.632 -1.962,1.066 -2.958,1.5c-0.996,0.441 -1.991,0.875 -2.944,1.508c-1.194,0.796 -2.268,1.628 -3.349,2.432c-1.074,0.811 -2.162,1.593 -3.392,2.276c-0.739,0.419 -1.451,0.91 -2.183,1.358c-3.122,1.905 -6.194,3.996 -9.202,6.229c-3.712,2.752 -7.367,5.61 -11.036,8.22c-1.849,1.323 -3.385,3.2 -5.191,4.587c-2.062,1.593 -3.605,3.029 -5.568,4.878c-1.82,1.713 -3.726,2.588 -5.504,4.38c-1.899,1.913 -3.356,3.499 -5.319,5.099c-3.072,2.496 -6.08,5.12 -9.045,7.765c-1.756,1.565 -3.42,3.321 -5.063,5.092c-1.65,1.777 -3.279,3.562 -4.964,5.205c-1.621,1.572 -2.795,3.072 -4.281,4.978c-1.408,1.806 -2.831,2.908 -4.203,4.8c-1.109,1.522 -2.29,3.2 -3.463,4.814c-1.18,1.622 -2.36,3.179 -3.484,4.459c-1.01,1.145 -2.056,2.29 -3.044,3.534c-1.08,1.373 -1.941,3.079 -2.972,4.537c-0.953,1.344 -1.991,2.354 -2.944,3.634c-1.123,1.522 -2.069,3.471 -3.164,5.028c-1.764,2.51 -3.172,5.099 -4.914,7.552c-1.678,2.383 -3.044,4.416 -4.53,7.275c-1.415,2.724 -2.973,5.106 -4.402,7.737c-0.007,0.007 -0.014,0.021 -0.021,0.028c0.057,0.185 0.142,0.363 0.178,0.555c0.392,2.211 -0.462,4.672 0.036,6.876c0.498,2.183 1.145,4.508 0.633,6.848c-0.249,1.138 -0.676,1.814 -0.704,3.044c-0.021,1.137 0.007,2.282 0.007,3.42c0,2.034 0.512,4.928 0.043,6.884c-0.271,1.102 -0.754,1.266 -0.811,2.617c-0.043,1.017 0.007,2.041 0.007,3.051c0,2.226 0.185,4.381 -0.633,6.258c1.259,0.732 0.299,1.529 0.043,2.496c-0.271,1.01 -0.178,1.999 -0.171,3.044c0.014,2.283 0,4.565 0,6.848c0,0.953 0.207,2.112 0.043,3.044c-0.199,1.11 -0.754,1.878 -0.818,3.044c-0.136,2.404 0.021,4.608 0.604,6.841c1.003,3.854 0.171,8.939 0.171,12.935c0,1.01 -0.071,2.041 -0.014,3.044c0.057,1.145 0.619,1.949 0.818,3.044c0.369,2.112 -0.043,4.693 -0.043,6.848c0,1.913 -0.37,4.217 -0.036,6.087c0.199,1.131 0.832,1.849 0.832,3.044c0,1.393 -0.761,2.417 -0.818,3.804c-0.085,2.09 -0.519,3.989 -0.718,6.101c-0.036,0.42 -0.455,0.946 -0.441,1.337c0.007,0.306 0.455,0.519 0.462,0.889c0.014,1.28 -0.668,2.233 -0.832,3.463c-0.149,1.124 0.171,2.162 -0.142,3.257c-0.263,0.924 -0.604,1.258 -0.583,2.453c0.021,2.076 0.107,4.217 -0.384,6.087c-0.988,3.733 -0.384,8.533 -0.384,12.551c0,4.203 -0.512,8.768 -0.028,12.935c0.128,1.067 0.846,1.97 0.846,3.044c0,1.074 -0.718,1.977 -0.846,3.044c-0.242,2.076 0.028,4.366 0.028,6.464c0,4.067 0.747,8.946 0.043,12.935c-0.377,2.14 -1.145,3.64 -0.633,5.916c0.214,0.945 0.811,1.493 0.619,2.837c-0.178,1.208 -0.74,2.168 -0.804,3.42c-0.107,1.877 -0.284,4.281 0.185,6.087c0.298,1.159 0.569,1.735 0.59,3.001c0.014,1.422 -0.328,3.221 -0.036,4.601c0.235,1.117 0.754,1.878 0.818,3.051c0.05,1.003 -0.021,2.034 -0.021,3.044c0,2.283 -0.007,4.558 0,6.841c0.007,2.432 -0.547,4.502 -0.775,6.827c-0.249,2.553 0.81,4.978 0.782,7.595c-0.042,2.823 0.761,5.333 0.754,8.199c-0.007,3.115 0,6.236 0,9.351c0,4.736 0.576,9.956 -0.59,14.443c-1.081,4.174 -0.171,9.735 -0.171,14.073v3.904c0.69,1.963 1.373,3.947 1.906,6.144c0.441,1.792 0.896,3.57 1.337,5.369c0.434,1.799 0.853,3.626 1.223,5.525c0.81,4.203 1.372,8.754 2.382,12.836c0.817,3.3 1.635,6.706 2.261,10.283c0.633,3.57 1.074,7.303 1.131,11.264c0.036,2.155 0,4.316 -0.014,6.471c-0.015,2.162 -0.015,4.31 0.085,6.436c0.128,2.574 0.249,5.127 0.306,7.701c0.057,2.581 0.057,5.184 -0.057,7.865c-0.199,4.778 -0.491,9.536 -0.839,14.293c-0.348,4.75 -0.747,9.501 -1.152,14.265c-0.213,2.453 -0.391,4.892 -0.569,7.324c-0.348,4.864 -0.689,9.699 -1.244,14.556c-0.277,2.425 -0.612,4.857 -1.024,7.296c-1.152,6.77 -1.259,13.568 -1.458,20.231c-0.064,2.218 -0.135,4.423 -0.263,6.606c-0.519,8.946 0.875,17.152 1.188,25.899c0.135,3.79 0.263,7.438 0.782,11.122c0.519,3.698 0.434,6.77 0.064,10.61c-0.185,1.87 -0.291,3.669 -0.341,5.461c-0.043,1.792 -0.021,3.577 0.064,5.412c0.192,3.897 -0.462,7.794 -0.327,11.634c0.043,0.995 0.164,1.955 0.313,2.908c0.227,1.457 0.498,2.894 0.647,4.373c0.092,0.945 0.142,1.905 0.064,2.908c-0.143,1.885 -0.171,3.726 -0.171,5.561c0,1.835 0.029,3.663 -0.028,5.54c-0.056,2.219 -0.227,4.608 -0.476,6.976c-0.199,1.813 -0.426,3.633 -0.796,5.269c-0.697,3.136 -1.785,5.362 -3.961,7.68c-0.221,0.234 -0.527,0.519 -0.875,0.789c-0.704,0.541 -1.586,1.01 -2.347,0.875c-0.377,-0.071 -0.719,-0.291 -0.996,-0.732c-0.611,0.263 -1.23,0.462 -1.863,0.661c-0.52,0.164 -1.046,0.356 -1.572,0.562c-0.014,0.107 -0.007,0.206 -0.028,0.306c-0.598,3.528 -4.758,8.868 -7.851,10.852c-2.012,1.287 -5.248,1.649 -7.495,2.524c-2.247,0.868 -3.754,2.454 -6.35,2.788c-2.467,0.327 -5.127,-0.398 -7.566,0.043c-0.783,0.142 -1.927,0.725 -2.859,0.96c-0.768,0.199 -0.832,0.548 -1.863,0.683c-0.512,0.071 -1.223,-0.014 -1.721,-0.014c-2.589,-0.036 -4.651,0.867 -7.218,0.846c-2.261,-0.021 -4.53,0 -6.791,0c-1.188,0 -2.66,-0.249 -3.819,-0.043c-1.244,0.221 -2.076,0.932 -3.399,0.932c-1.337,0 -2.133,-0.712 -3.399,-0.932c-1.031,-0.185 -2.34,0.043 -3.392,0.043c-2.73,0 -5.084,-0.007 -7.644,0.661c-1.166,0.306 -2.247,-0.05 -3.392,0.142c-1.259,0.213 -2.091,0.846 -3.399,0.917c-2.333,0.121 -4.95,-0.441 -7.218,0.05c-2.275,0.498 -4.515,1.066 -6.791,1.55c-1.28,0.277 -2.539,-0.071 -3.819,0.263c-1.315,0.341 -1.963,0.675 -3.399,0.661c-1.095,-0.014 -2.339,-0.163 -3.42,-0.021c-1.181,0.156 -1.43,0.661 -2.482,0.917c-2.681,0.647 -5.177,-0.789 -7.687,-0.917c-0.974,-0.043 -1.948,0.128 -2.894,-0.05c-1.017,-0.192 -1.294,-0.732 -2.617,-0.782c-1.088,-0.05 -2.816,-0.292 -3.868,-0.043c-0.988,0.242 -1.308,1.188 -2.524,0.96c-2.183,-0.42 -2.417,-3.378 -2.716,-5.035c-0.59,-3.307 -0.91,-6.464 -2.19,-9.607c-0.391,-0.953 -0.775,-1.351 -1.244,-2.169c-1.571,-2.695 1.579,-1.941 3.627,-1.934c1.266,0.007 2.546,-0.035 3.819,-0.007c1.444,0.028 2.048,0.498 3.392,0.782c1.102,0.241 2.233,-0.057 3.328,0.149c1.01,0.185 1.302,0.732 2.61,0.782c4.651,0.199 9.358,-0.007 14.023,-0.007h8.299c1.18,0 2.411,-0.099 3.584,-0.021c1.287,0.092 2.162,0.697 3.399,0.917c4.324,0.761 9.593,-0.05 14.009,-0.05c2.404,0 4.814,-0.014 7.218,0c2.439,0.022 4.402,-0.874 6.791,-0.846c2.61,0.036 4.729,-0.803 7.218,-0.86c2.219,-0.042 4.594,0.299 6.791,0.043c1.366,-0.156 2.425,-0.825 3.826,-0.903c1.116,-0.057 2.268,0.021 3.392,0.021c2.162,0 4.522,0.256 6.606,-0.185c0.79,-0.171 2.134,-1.159 2.923,-1.323c1.067,-0.221 2.133,-0.057 3.207,-0.363c1.528,-0.427 2.375,-1.657 3.42,-2.738c0.875,-0.889 1.266,-1.643 1.458,-2.489c0.071,-1.138 0.156,-2.269 0.149,-3.492c-0.007,-0.853 -0.014,-1.7 -0.014,-2.553c-0.007,-0.875 0,-1.749 -0.021,-2.624c-0.021,-1.28 0.135,-2.539 0.306,-3.812c0.149,-1.052 0.299,-2.112 0.327,-3.2c0.014,-0.633 0.121,-1.216 0.249,-1.792c0.128,-0.576 0.277,-1.145 0.377,-1.764c0.1,-0.591 0.092,-1.181 0.064,-1.764c-0.022,-0.591 -0.071,-1.174 -0.05,-1.764c0.043,-1.315 0.576,-2.425 0.711,-3.733c0.128,-1.259 -0.064,-2.596 -0.078,-3.84c-0.021,-2.447 -0.028,-4.893 -0.085,-7.339c-0.042,-1.735 0.534,-3.1 0.683,-4.814c0.071,-0.775 0.05,-1.564 0.014,-2.354c-0.036,-0.79 -0.093,-1.579 -0.1,-2.347v0c-0.071,-5.781 1.209,-11.662 1.131,-17.536c-0.015,-1.422 -0.107,-2.823 -0.228,-4.21c-0.242,-2.773 -0.597,-5.504 -0.718,-8.313c-0.057,-1.408 -0.05,-2.837 0.057,-4.302c0.092,-1.301 0.618,-2.567 0.661,-3.861c0.028,-1.195 -0.128,-2.24 0.064,-3.463c0.007,-0.043 0,-0.071 0.007,-0.107c0.249,-1.437 0.362,-2.795 0.398,-4.139c0.043,-1.351 0.014,-2.688 -0.007,-4.089c-0.021,-1.344 0.114,-2.681 0.256,-4.018c0,-0.028 0,-0.05 0,-0.078c-0.534,-0.085 -1.095,-0.27 -1.387,-0.327c-2.091,-0.362 -4.665,0.05 -6.791,0.05c-4.437,0 -8.306,0.91 -12.743,0.846c-4.388,-0.057 -8.427,2.396 -12.736,2.567c-4.572,0.192 -8.903,1.728 -13.575,1.671c-1.557,-0.022 -2.553,0.376 -4.039,0.668c-1.586,0.306 -3.086,-0.043 -4.672,0.142c-2.823,0.342 -5.483,1.465 -8.235,1.764c-4.53,0.504 -9.159,0.888 -13.632,1.628c-4.729,0.783 -8.711,2.596 -13.582,2.596c-2.261,0.007 -4.53,0 -6.791,0c-1.43,0 -5.092,-0.669 -6.002,0.533c0.064,-0.882 0.335,-2.276 0.1,-3.122c-0.277,-0.989 -1.287,-1.444 -1.593,-2.482c-0.426,-1.464 0.349,-2.14 0.932,-3.42c0.526,-1.145 0.59,-2.034 0.761,-3.25c1.131,-0.05 1.743,-0.846 2.795,-1.024c1.046,-0.178 2.375,0.028 3.435,0.028c2.261,0 4.523,-0.007 6.791,0c0.896,0.007 2.155,0.256 3.015,0.043c1.024,-0.242 1.33,-0.782 2.482,-0.91c1.116,-0.128 2.296,0.1 3.42,0.043c1.287,-0.071 2.162,-0.697 3.392,-0.917c1.095,-0.192 2.304,0.284 3.399,0.092c1.066,-0.192 1.884,-0.796 2.972,-0.924c1.77,-0.214 3.726,0.028 5.518,0.028c2.033,0 4.366,0.32 6.364,0.036c1.073,-0.157 1.912,-0.747 2.972,-0.932c0.981,-0.163 1.976,0.185 2.972,-0.028c3.961,-0.84 7.744,-2.511 11.89,-2.468c2.119,0.014 4.245,-0.021 6.364,-0.007c2.09,0.014 3.548,-0.484 5.518,-0.868c2.141,-0.42 4.111,-0.853 6.372,-0.825c2.055,0.021 3.577,-0.662 5.518,-0.882c2.027,-0.235 4.324,0.014 6.372,0.028c2.176,0.014 3.869,-0.768 5.938,-0.868c2.119,-0.099 3.911,-0.739 5.945,-0.846c0.192,-0.014 0.611,-0.049 1.116,-0.085c0.028,-0.263 0.021,-0.505 0.064,-0.782c0.363,-2.617 0.356,-5.262 0.249,-7.886c-0.106,-2.616 -0.305,-5.212 -0.348,-7.708l-0.228,-15.388c-0.064,-4.516 -0.128,-9.038 -0.199,-13.554c-0.014,-0.967 0.05,-2.019 -0.028,-2.951c-0.086,-1.059 -0.534,-1.749 -0.676,-2.759c-0.142,-0.996 -0.149,-2.141 -0.128,-3.3c0.028,-1.167 0.078,-2.347 0.064,-3.435c-0.057,-3.889 -0.668,-8.028 -0.206,-12.188c0.128,-1.138 0.533,-2.219 0.576,-3.371c0.028,-1.01 -0.05,-1.963 -0.064,-2.944c-0.035,-2.069 -0.042,-4.16 -0.092,-6.222c-0.05,-2.076 0.505,-4.273 0.455,-6.364c-0.05,-2.297 -0.071,-4.615 -0.107,-6.926c0,-0.284 -0.007,-0.569 -0.014,-0.853c-6.933,0.092 -13.909,-0.064 -20.814,-0.064c-3.741,0 -8.221,0.697 -11.883,0.05c-1.259,-0.227 -2.091,-0.846 -3.399,-0.917c-0.974,-0.05 -1.991,0.021 -2.972,0.021c-1.977,0 -3.961,-0.021 -5.938,0c-2.368,0.022 -4.217,-0.867 -6.564,-0.846c-1.202,0.014 -2.461,-0.171 -3.634,0.071c-1.066,0.213 -1.827,0.718 -2.965,0.796c-2.254,0.149 -4.992,0.291 -7.225,0.014c-2.126,-0.27 -3.684,-0.889 -5.938,-0.882c-4.566,0.007 -8.605,0.846 -13.163,0.846c-4.16,0 -7.759,-0.846 -11.883,-0.846c-2.127,0 -4.26,0.071 -6.379,0.007c-2.062,-0.064 -2.596,-0.91 -2.994,-2.951c-0.377,-1.898 -0.164,-9.685 -3.897,-8.924c1.508,-2.127 8.996,-0.868 11.57,-0.868h13.774c2.396,0 4.871,0.156 7.26,0.014c1.429,-0.078 2.197,-0.611 3.541,-0.91c1.038,-0.227 2.361,0.043 3.449,0.043c5.021,0.021 11.215,-0.946 16.107,0.192c2.347,0.54 4.501,0.668 6.983,0.661c3.435,-0.014 6.436,0.867 9.828,0.846c4.864,-0.043 9.721,0 14.585,0c5.298,0 10.119,1.173 15.275,1.721c1.437,0.149 4.423,0.44 7.09,0.284c-0.113,-7.36 -0.227,-14.713 -0.341,-22.073c-0.014,-0.889 -0.007,-1.678 0.036,-2.489c0.049,-0.818 0.135,-1.65 0.284,-2.638c0.156,-0.996 0.17,-1.949 0.142,-2.866c-0.029,-0.925 -0.1,-1.813 -0.114,-2.681c-0.014,-0.853 -0.057,-1.628 -0.121,-2.368c-0.177,-2.211 -0.497,-4.053 -0.54,-6.613c-0.029,-1.664 -0.036,-3.35 -0.057,-5.028c-0.05,-5.028 -0.085,-10.084 -0.249,-14.976c-0.036,-1.01 -0.235,-1.209 -0.42,-1.92c-0.192,-0.74 0,-1.814 -0.128,-2.61c-0.056,-0.362 -0.17,-0.611 -0.284,-0.853c-0.114,-0.249 -0.22,-0.505 -0.27,-0.889c-0.043,-0.377 -0.05,-0.84 -0.036,-1.316c0.007,-0.476 0.021,-0.967 0.014,-1.408c-0.007,-0.775 0.022,-1.635 -0.021,-2.375c-0.056,-1.01 -0.405,-1.202 -0.54,-2.062c-0.107,-0.683 -0.078,-1.586 -0.043,-2.496c0.035,-0.91 0.064,-1.82 -0.043,-2.51c-0.135,-0.903 -0.363,-1.643 -0.569,-2.418c-0.199,-0.783 -0.37,-1.6 -0.398,-2.66c-0.014,-0.54 -0.007,-1.109 -0.014,-1.664c-1.679,0 -3.35,0.007 -5.028,0c-2.197,-0.014 -3.847,0.754 -5.945,0.868c-3.783,0.207 -7.666,-0.021 -11.463,-0.021c-1.834,0 -3.676,0.014 -5.518,0c-2.191,-0.014 -3.848,0.747 -5.924,0.868c-2.226,0.135 -4.53,-0.007 -6.77,-0.014c-2.794,-0.014 -5.177,0.768 -7.893,0.868c-2.688,0.099 -5.141,0.882 -7.836,0.839c-3.136,-0.05 -5.867,0.753 -8.932,0.853c-3.221,0.114 -6.037,0.014 -9.152,0.647c-2.24,0.455 -4.686,0.185 -6.983,0.185c-1.927,0 -4.067,0.263 -5.966,0.021c-0.227,-0.029 -1.877,-0.697 -1.884,-0.697c-1.088,-0.036 -1.202,0.142 -2.169,0.59c-1.117,-3.051 0.839,-6.208 -0.057,-8.818c-0.647,-1.87 -0.91,-2.816 -2.453,-4.06c-1.06,-0.861 -2.347,-1.365 -3.3,-2.361c9.323,0.505 18.809,0.043 28.146,0.043c4.395,0 8.334,0.846 12.729,0.846c3.669,0 7.381,0.171 11.036,0.007c2.048,-0.085 3.626,-0.874 5.71,-0.853c1.045,0.014 2.183,0.106 3.228,0.021c1.43,-0.128 2.589,-0.739 4.018,-0.917c4.416,-0.533 9.329,0.043 13.788,0.043h11.911c1.77,0 3.904,-0.213 5.98,-0.277c-0.021,-0.213 -0.035,-0.448 -0.078,-0.633c-0.312,-1.394 -0.497,-3.136 -0.732,-4.679c-0.206,-1.329 0.142,-3.683 -0.057,-5.02c-0.121,-0.79 -0.292,-1.472 -0.448,-2.148c-0.164,-0.675 -0.327,-1.351 -0.434,-2.119c-0.085,-0.612 0.043,-1.643 -0.028,-2.276c-0.113,-0.989 -0.377,-1.536 -0.405,-2.731c-0.071,-3.506 -0.284,-6.756 -0.86,-9.145c-0.313,-1.309 -0.455,-2.916 -0.718,-4.338c-0.106,-0.59 -0.071,-1.323 -0.085,-2.112c-0.029,-0.981 -0.256,-1.201 -0.363,-1.941c-0.085,-0.59 -0.007,-1.515 -0.028,-2.247c-0.028,-0.988 -0.284,-1.059 -0.405,-1.806c-0.042,-0.263 -0.036,-0.683 -0.021,-1.131c0.015,-0.448 0.043,-0.918 0.043,-1.266c0,-0.647 -0.05,-1.059 -0.128,-1.429c-0.071,-0.363 -0.156,-0.683 -0.213,-1.138c-0.221,-1.735 0.284,-4.629 0.334,-6.876c0.05,-2.183 -0.007,-4.16 -0.014,-6.222v-0.007c-0.008,-2.346 0.341,-5.24 0.348,-7.58c0.015,-2.311 0.143,-4.85 0.363,-7.602c0.114,-1.486 0.192,-2.894 0.235,-4.238c0.05,-1.351 0.071,-2.645 0.071,-3.911c0.007,-0.405 0,-0.789 0,-1.18h-36.843c-1.237,0 -2.503,-0.085 -3.74,-0.021c-1.572,0.078 -2.895,0.754 -4.459,0.91c-3.023,0.305 -6.28,-0.043 -9.316,-0.043c-6.791,0 -13.546,0.434 -20.188,1.508c-5.817,0.946 -11.428,-0.654 -17.188,-0.661c-2.326,0 -4.701,-0.128 -7.019,-0.007c-1.828,0.099 -2.901,0.91 -4.473,1.607c-0.149,-1.486 -1.216,-2.112 -1.081,-3.712c0.107,-1.195 1.664,-3.022 0.356,-3.89c1.927,0.491 4.373,-0.803 6.478,-0.789c1.131,0.007 2.261,-0.021 3.392,0c1.259,0.015 1.828,-0.469 2.745,-0.661c2.105,-0.427 4.423,-1.074 6.599,-1.031c2.575,0.05 4.594,-0.903 7.14,-0.86c2.638,0.043 4.821,-0.725 7.296,-0.86c2.247,-0.128 4.544,0.021 6.791,0.021c2.268,0 4.53,-0.021 6.798,0c2.325,0.015 4.124,-0.768 6.364,-0.86c4.928,-0.213 9.927,0.007 14.862,0.007h8.277c2.709,0 6.08,-0.541 8.725,-0.043c2.354,0.441 4.281,1.088 6.77,0.91c1.308,-0.092 2.14,-0.69 3.399,-0.91c1.031,-0.185 2.34,0.043 3.392,0.043c0.974,0 2.866,-0.207 4.857,-0.292c0,-1.287 -0.007,-2.574 -0.014,-3.861c0,-1.031 -0.021,-2.026 -0.021,-3.086c0.007,-0.768 0.078,-1.657 0.156,-2.546c0.071,-0.896 0.15,-1.799 0.171,-2.588c-0.078,-0.676 -0.199,-1.173 -0.192,-1.785c0,-0.64 0.036,-1.316 0.064,-1.984c0.114,-0.192 0.199,-0.427 0.313,-0.619c0.086,-1.586 0.171,-3.171 0.242,-4.743c0.035,-0.605 0.057,-1.188 0.078,-1.778c0.071,-1.813 0.114,-3.556 0.064,-5.056c-0.021,-0.611 -0.12,-0.875 -0.22,-1.159c-0.057,-0.171 -0.121,-0.32 -0.149,-0.626c-0.085,-0.918 0.2,-2.703 0.292,-4.075c0.071,-1.102 -0.085,-1.586 -0.007,-2.681c0.049,-0.754 0.135,-1.615 0.22,-2.475c0.079,-0.868 0.171,-1.749 0.235,-2.553c0.185,-2.19 0.419,-4.459 0.583,-6.578c0.178,-2.34 0.121,-3.968 0.107,-5.817c-0.014,-1.557 -0.029,-3.143 -0.05,-4.679c-0.028,-1.906 0.277,-4.402 0.249,-6.308c-0.05,-3.306 -0.377,-4.977 -0.398,-8.405c-0.007,-1.749 -0.156,-2.979 -0.341,-4.053c-0.185,-1.067 -0.413,-1.97 -0.569,-3.058c-0.078,-0.512 0.029,-1.728 -0.028,-2.297c-0.064,-0.604 -0.242,-0.661 -0.306,-1.237c-0.035,-0.292 0.015,-0.925 -0.028,-1.202c-0.021,-0.185 -0.164,0.299 -0.185,0.171c-0.092,-0.612 0.021,-2.041 -0.064,-2.667c-0.064,-0.491 -0.185,-0.669 -0.263,-1.067c-1.521,0.064 -2.41,0.619 -3.925,0.818c-3.485,0.462 -6.564,-0.882 -10.02,-0.868c-10.261,0.028 -20.523,0.05 -30.784,0c-2.986,-0.014 -5.546,0.718 -8.462,0.889c-3.001,0.185 -6.116,-0.036 -9.131,-0.043c-2.823,-0.007 -5.084,0.377 -7.815,0.775c-2.745,0.405 -5.575,-0.299 -8.313,0.028c-2.425,0.299 -4.516,0.91 -7.026,0.896c-1.551,-0.007 -3.101,0 -4.651,0c-3.001,0 -6.137,-0.334 -8.725,0.747c-0.1,-1.322 -1.152,-2.147 -1.7,-3.292c-0.462,-0.967 -0.633,-2.055 -1.038,-2.972c-0.448,-1.024 -0.655,-2.432 -1.323,-3.42c-0.633,-0.938 -1.835,-1.329 -2.624,-2.14c4.416,0.242 8.875,0.007 13.291,0.043c2.162,0.014 3.876,-0.761 5.938,-0.868c2.247,-0.121 4.544,0.021 6.798,0.014c2.524,0 4.352,-0.562 6.791,-0.889c2.688,-0.362 5.767,0.043 8.491,0.043h32.242c2.844,0 5.696,0.043 8.54,0c2.667,-0.029 4.928,0.874 7.616,0.846c1.394,-0.014 2.88,-0.135 4.267,-0.014c1.429,0.114 2.595,0.768 4.039,0.91c1.458,0.149 2.766,-0.199 4.238,0.142c1.031,0.242 1.686,0.612 2.738,0.683c0.32,0.022 0.69,0.015 1.031,0.036c0.043,-0.398 0.064,-0.761 0.128,-1.159c0.455,-3.157 1.209,-6.713 1.835,-9.799c0.128,-0.626 0.285,-1.436 0.441,-2.19c-0.277,-5.917 -0.242,-11.897 0.37,-17.977c1.686,-2.233 4.217,-3.904 5.291,-6.542c1.152,-2.831 2.034,-5.007 3.975,-7.396c0.598,-0.733 1.295,-1.487 2.02,-2.219c1.095,-2.645 2.19,-5.298 3.356,-7.872c1.6,-3.534 3.065,-7.488 4.757,-10.866c0.761,-1.529 1.6,-3.058 2.432,-4.594c-1.593,-0.072 -3.086,-0.221 -4.757,-0.868c-0.803,-0.313 -1.322,-0.534 -2.197,-0.747c-0.946,-0.235 -1.621,-0.683 -2.503,-0.896c-0.946,-0.22 -2.041,0.164 -3.015,-0.028c-1.216,-0.227 -2.105,-0.697 -3.399,-0.775c-1.258,-0.071 -1.827,-0.355 -2.972,-0.661c-1.166,-0.306 -2.24,0.05 -3.392,-0.142c-2.297,-0.392 -4.523,-1.216 -6.791,-1.764c-8.541,-2.063 -16.797,-3.2 -25.522,-5.099c-4.552,-0.989 -9.003,-2.368 -13.54,-3.769c-5.49,-1.699 -10.987,-3.363 -16.562,-4.7c-1.259,-0.298 -2.546,-0.647 -3.819,-1.052c-1.252,-0.405 -2.112,-0.384 -3.392,-0.597c-2.361,-0.384 -4.893,-1.259 -7.218,-1.828c-4.672,-1.131 -9.074,-2.517 -13.945,-3.52c0.335,-1.38 2.617,-0.647 5.028,-9.984l-0.064,-0.448c1.259,0.057 2.112,-1.124 3.442,-1.266c2.289,-0.249 3.811,0.512 5.916,0.91c2.169,0.412 4.459,-0.384 6.649,0.149c2.197,0.526 4.352,0.981 6.585,1.422c7.857,1.564 15.644,2.496 23.324,4.352c3.456,0.839 7.083,2.162 10.603,2.56c1.245,0.135 2.382,-0.143 3.641,0.156c1.017,0.242 1.671,0.619 2.731,0.683c2.069,0.121 3.541,0.704 5.525,1.259c7.21,2.02 14.556,3.044 21.653,5.298c3.968,1.266 7.901,2.596 11.883,3.819c1.835,0.562 3.357,1.486 5.099,1.913c0.783,0.185 1.728,0.199 2.596,0.377c0.903,0.185 1.287,0.982 2.332,1.06c0.128,0.462 0.228,0.925 0.306,1.394c0.726,0.1 1.423,0.178 2.148,0.249c0.853,-1.5 1.735,-2.944 2.624,-4.38c2.027,-3.285 3.947,-7.218 6.137,-10.489c2.319,-3.427 4.424,-7.346 6.884,-10.695c1.159,-1.578 2.283,-3.078 3.406,-4.629c1.123,-1.551 2.24,-3.165 3.399,-4.971c1.181,-1.842 2.383,-3.122 3.627,-4.644c1.287,-1.572 2.297,-3.3 3.57,-5.035c2.333,-3.207 5.028,-5.795 7.531,-8.469c0.107,-0.107 0.206,-0.206 0.306,-0.313c-2.716,-1.679 -4.992,-3.563 -7.509,-5.924c-3.278,-3.065 -7.701,-5.418 -11.449,-7.957c-8.377,-5.674 -15.858,-12.757 -25.06,-17.301c-4.736,-2.339 -8.981,-5.525 -13.582,-8.085c-4.437,-2.467 -9.351,-3.875 -13.589,-6.556c-4.431,-2.809 -9.458,-5.027 -13.604,-8.263c-0.953,-0.747 -1.024,-1.785 -1.842,-2.61c-0.683,-0.69 -2.005,-1.28 -2.809,-1.863c-1.252,-0.91 -4.296,-2.418 -4.58,-4.082c0.939,-0.27 1.863,-0.277 2.809,-0.092c0.953,0.185 0.889,1.145 12.388,-6.869c-1.294,-0.235 -2.638,-2.07 -3.996,-2.603c1.841,0 3.513,1.301 5.269,1.678c1.934,0.42 3.25,-0.007 4.992,1.024c1.323,0.776 2.56,1.842 3.876,2.66c0.946,0.583 2.055,0.896 3.008,1.458c1.465,0.854 2.638,2.134 4.153,2.93c2.716,1.436 4.999,2.673 7.317,4.764c1.977,1.77 4.586,2.901 6.798,4.43c3.79,2.624 8.007,4.935 12.309,6.492c3.556,1.287 6.969,4.153 9.764,6.699c2.866,2.61 6.315,4.694 9.529,6.77c3.243,2.098 6.344,4.316 9.572,6.471c3.186,2.14 6.372,3.762 9.579,5.838c1.6,1.031 3.065,2.283 4.779,3.193c1.479,0.783 2.973,1.103 4.537,1.899c0.583,0.299 1.109,0.669 1.657,1.01c0.69,-0.704 1.351,-1.472 2.062,-2.112c1.486,-1.337 3.186,-2.61 4.672,-4.11c1.301,-1.315 2.382,-2.958 3.74,-4.174c1.429,-1.294 2.802,-2.411 4.167,-3.577c1.366,-1.159 2.731,-2.368 4.146,-3.84c0.348,-0.355 0.704,-0.604 1.052,-0.903c1.152,-0.988 2.311,-1.806 3.484,-2.972c0.718,-0.718 1.337,-1.33 1.97,-1.913c0.626,-0.576 1.273,-1.131 2.048,-1.735c1.991,-1.572 3.918,-3.762 5.902,-5.675c0.661,-0.64 1.336,-1.252 2.012,-1.792c1.401,-1.116 2.937,-1.848 4.366,-2.844c1.38,-0.967 2.404,-2.161 3.769,-3.292c1.394,-1.166 2.901,-1.6 4.302,-2.716c1.578,-1.266 2.78,-2.596 4.444,-3.648c1.75,-1.102 3.022,-2.475 4.722,-3.712c0.206,-0.15 0.434,-0.235 0.647,-0.37c-0.049,-0.078 -0.099,-0.178 -0.149,-0.249c-0.896,-1.28 -1.728,-2.262 -2.503,-3.57c-1.991,-3.35 -4.779,-6.408 -7.04,-9.572c-5.796,-8.121 -10.674,-17.081 -17.842,-24.199c-3.698,-3.676 -5.461,-8.441 -8.889,-12.309c-2.667,-3.008 -5.646,-5.795 -8.135,-8.917c-3.171,-3.975 -6.841,-7.531 -9.486,-11.89c-1.223,-2.019 -3.058,-3.755 -4.281,-5.703c-0.377,-0.604 -1.301,-1.479 -0.142,-1.927c1.06,-0.412 1.564,1.224 13.952,-4.252c-0.007,-0.028 -0.014,-0.057 -0.014,-0.085c1.401,1.764 2.717,3.499 4.281,5.177c0.861,0.925 1.629,1.878 2.482,2.731c1.009,1.01 2.517,1.636 3.484,2.553c1.614,1.529 2.659,3.954 3.989,5.774c2.652,3.626 5.838,6.855 8.896,10.126c3.677,3.94 6.806,8.455 9.97,12.779c2.788,3.798 6.308,6.87 8.754,11.058c2.218,3.804 5.233,6.997 7.196,11.015c1.635,3.363 4.117,6.201 6.364,9.109c1.01,1.309 1.856,2.781 3.058,3.94c3.079,-1.7 5.944,-3.798 9.18,-5.291c1.55,-0.718 3.115,-1.508 4.679,-2.169c2.12,-0.888 3.961,-0.96 6.052,-1.628c3.719,-1.187 7.025,-3.989 10.709,-5.326c3.384,-1.223 6.464,-3.392 9.948,-4.608c1.814,-0.632 3.648,-1.23 5.49,-1.82c1.841,-0.597 3.683,-1.181 5.532,-1.785c3.691,-1.216 7.381,-2.503 11.015,-4.089c3.328,-1.458 6.897,-2.098 10.325,-2.958c0.455,-0.114 0.932,-0.199 1.401,-0.299c-0.541,-1.408 -0.939,-3.15 -1.209,-4.295c-0.854,-3.606 -2.141,-7.133 -4.011,-10.34c-1.287,-2.204 -1.906,-4.885 -3.079,-7.175c-1.436,-2.809 -2.439,-5.824 -3.925,-8.619c-2.148,-4.039 -4.601,-7.339 -7.296,-10.802c-3.271,-4.203 -5.568,-9.586 -7.986,-14.436c-1.863,-3.74 -3.676,-7.118 -5.198,-10.965c-1.337,-3.378 -3.847,-6.898 -4.907,-10.347c-1.081,-3.498 -2.659,-6.663 -4.231,-10.14c-0.768,-1.686 -1.472,-3.243 -2.453,-4.843c-0.874,-1.422 -1.834,-3.256 -0.846,-4.7c2.197,-3.2 8.803,-1.963 16.263,-2.695c2.795,1.443 3.819,3.804 5.412,6.734c2.332,4.302 4.658,8.433 6.784,12.757c2.411,4.892 5.519,9.337 7.851,14.222c2.347,4.899 3.541,10.069 5.504,15.068c0.839,2.147 1.906,4.224 2.759,6.35c1.039,2.567 2.61,4.764 3.627,7.31c1.92,4.771 3.933,9.031 6.379,13.511c2.29,4.181 4.082,8.441 5.902,12.736c0.726,1.7 1.87,3.314 2.93,4.914c0.747,-0.214 1.465,-0.491 2.24,-0.626c4.003,-0.718 8.014,-1.443 12.046,-2.062c3.798,-0.591 7.616,-1.039 11.435,-1.572c2.247,-0.313 3.897,-1.259 6.08,-1.728c0.939,-0.207 1.928,-0.292 2.916,-0.356c0.982,-0.064 1.977,-0.093 2.923,-0.185c3.939,-0.362 7.452,-0.704 11.285,-1.614c1.187,-0.285 2.354,-0.363 3.527,-0.441c0.946,-0.064 1.899,-0.128 2.852,-0.341c1.159,-0.256 2.218,-0.49 3.278,-0.661c1.066,-0.178 2.147,-0.299 3.356,-0.327c3.947,-0.086 7.893,-0.178 11.833,-0.178c2.261,0 4.615,0.199 6.862,0.114c2.361,-0.092 4.452,-0.896 6.841,-0.846c4.26,0.099 8.52,0.426 12.772,0.668c1.33,0.071 2.639,0.248 3.947,0.476c3.912,0.675 7.759,1.792 11.812,1.927c7.929,0.263 15.779,2.396 23.637,4.11c0.462,-0.733 0.946,-1.465 1.266,-2.233c1.82,-4.295 3.619,-8.555 5.902,-12.736c2.454,-4.48 4.466,-8.739 6.379,-13.511c1.024,-2.546 2.596,-4.743 3.634,-7.31c0.853,-2.126 1.913,-4.202 2.759,-6.35c1.963,-4.999 3.157,-10.176 5.497,-15.068c2.34,-4.885 5.44,-9.337 7.851,-14.229c2.133,-4.316 4.459,-8.448 6.791,-12.75c1.593,-2.93 2.617,-5.29 5.412,-6.734c7.459,0.732 14.066,-0.505 16.263,2.695c0.989,1.443 0.029,3.278 -0.846,4.693c-0.981,1.607 -1.692,3.165 -2.453,4.85c-1.571,3.47 -3.15,6.641 -4.231,10.14c-1.067,3.449 -3.57,6.962 -4.907,10.34c-1.522,3.854 -3.335,7.232 -5.198,10.972c-2.418,4.85 -4.715,10.233 -7.986,14.436c-2.695,3.456 -5.156,6.763 -7.296,10.802c-1.486,2.795 -2.496,5.81 -3.925,8.619c-1.173,2.29 -1.792,4.963 -3.079,7.175c-1.871,3.207 -3.158,6.734 -4.011,10.332c-0.021,0.099 -0.057,0.227 -0.078,0.327c2.219,0.789 4.566,1.187 6.77,1.692c2.653,0.612 4.95,2.084 7.538,2.93c1.536,0.498 3.101,0.918 4.665,1.33c2.46,0.661 4.92,1.294 7.324,2.012c4.792,1.436 9.365,3.555 14.044,5.447c2.19,0.882 4.174,2.418 6.357,3.3c2.12,0.846 4.26,1.557 6.372,2.382c3.179,1.244 6.315,2.588 9.458,3.925c1.308,0.554 2.631,1.059 3.925,1.628c3.62,1.593 7.268,3.207 10.88,4.942c1.935,-2.446 3.911,-4.9 5.291,-7.73c1.962,-4.018 4.977,-7.211 7.196,-11.015c2.447,-4.189 5.967,-7.261 8.747,-11.058c3.172,-4.324 6.293,-8.839 9.977,-12.779c3.058,-3.271 6.236,-6.499 8.896,-10.126c1.329,-1.82 2.368,-4.245 3.989,-5.774c0.967,-0.917 2.474,-1.543 3.484,-2.553c0.854,-0.854 1.614,-1.807 2.482,-2.731c1.565,-1.678 2.88,-3.413 4.281,-5.177c-0.007,0.028 -0.007,0.057 -0.014,0.085c12.388,5.475 12.885,3.84 13.952,4.252c1.159,0.448 0.235,1.323 -0.142,1.927c-1.223,1.948 -3.058,3.683 -4.281,5.703c-2.645,4.359 -6.322,7.915 -9.486,11.89c-2.489,3.121 -5.468,5.909 -8.135,8.917c-3.428,3.868 -5.198,8.633 -8.889,12.309c-7.168,7.118 -12.046,16.078 -17.842,24.199c-1.835,2.567 -3.933,5.099 -5.753,7.744c0.42,0.306 0.861,0.548 1.273,0.868c1.949,1.501 3.876,2.76 5.803,3.94c1.927,1.18 3.861,2.282 5.831,3.47c1.912,1.159 3.832,2.262 5.724,3.506c1.244,0.825 2.425,1.834 3.591,2.837c1.173,1.01 2.347,2.005 3.591,2.823c4.053,2.659 7.95,5.255 11.733,8.974c0.867,0.853 1.756,1.578 2.645,2.254c0.896,0.676 1.792,1.309 2.674,1.977c0.626,0.483 1.188,1.066 1.771,1.614c1.65,1.536 3.222,3.193 4.914,4.679c3.499,3.086 6.735,6.464 10.155,9.614c1.145,1.059 2.148,2.29 3.186,3.527c0.548,-0.391 1.088,-0.789 1.65,-1.152c3.207,-2.076 6.393,-3.698 9.579,-5.838c3.229,-2.155 6.322,-4.373 9.572,-6.471c3.207,-2.077 6.663,-4.16 9.529,-6.77c2.795,-2.546 6.208,-5.412 9.764,-6.699c4.302,-1.557 8.519,-3.868 12.309,-6.492c2.211,-1.529 4.821,-2.659 6.791,-4.43c2.325,-2.09 4.608,-3.328 7.324,-4.764c1.515,-0.797 2.688,-2.077 4.153,-2.93c0.953,-0.562 2.062,-0.875 3.001,-1.458c1.323,-0.818 2.56,-1.885 3.883,-2.66c1.742,-1.031 3.058,-0.604 4.992,-1.024c1.756,-0.377 3.427,-1.678 5.262,-1.678c-1.351,0.534 -2.695,2.368 -3.989,2.603c11.498,8.014 11.434,7.054 12.38,6.869c0.953,-0.185 1.877,-0.178 2.816,0.092c-0.285,1.664 -3.336,3.172 -4.58,4.082c-0.811,0.583 -2.133,1.173 -2.809,1.863c-0.818,0.825 -0.889,1.863 -1.842,2.61c-4.153,3.235 -9.174,5.454 -13.611,8.263c-4.231,2.68 -9.152,4.088 -13.582,6.556c-4.601,2.56 -8.846,5.745 -13.582,8.085c-9.202,4.544 -16.683,11.626 -25.06,17.301c-3.677,2.489 -7.993,4.814 -11.25,7.794c1.038,1.124 2.076,2.226 3.136,3.371c3.029,3.278 5.767,7.303 8.668,10.766c4.977,5.938 9.728,12.132 14.229,18.546c0.974,1.386 1.955,2.716 2.901,4.181c0.547,0.854 1.052,1.814 1.564,2.788c0.505,0.967 1.003,1.948 1.536,2.83c1.984,3.335 4.046,6.372 5.938,9.593c0.683,1.138 1.365,2.354 2.055,3.513c0.718,-0.306 1.437,-0.626 2.226,-0.868c3.983,-1.223 7.908,-2.553 11.883,-3.819c7.097,-2.254 14.442,-3.278 21.653,-5.298c1.984,-0.555 3.456,-1.138 5.518,-1.259c1.067,-0.064 1.721,-0.441 2.738,-0.683c1.252,-0.298 2.397,-0.021 3.641,-0.156c3.52,-0.398 7.147,-1.721 10.603,-2.56c7.68,-1.856 15.466,-2.788 23.324,-4.352c2.233,-0.441 4.388,-0.896 6.585,-1.422c2.183,-0.533 4.48,0.263 6.642,-0.149c2.112,-0.398 3.627,-1.159 5.924,-0.91c1.323,0.142 2.183,1.323 3.442,1.266l-0.064,0.448c2.411,9.337 4.694,8.604 5.028,9.984c-4.871,1.003 -9.273,2.389 -13.945,3.52c-2.326,0.569 -4.857,1.444 -7.218,1.828c-1.28,0.213 -2.14,0.192 -3.399,0.597c-1.266,0.405 -2.553,0.753 -3.812,1.052c-5.582,1.336 -11.072,3 -16.562,4.7c-4.537,1.401 -8.989,2.781 -13.54,3.769c-8.726,1.899 -16.989,3.037 -25.522,5.099c-2.268,0.548 -4.494,1.373 -6.791,1.764c-1.152,0.192 -2.226,-0.164 -3.399,0.142c-1.137,0.305 -1.706,0.59 -2.965,0.661c-1.294,0.078 -2.183,0.547 -3.399,0.775c-0.342,0.071 -0.711,0.028 -1.074,0c0.199,0.448 0.448,0.839 0.64,1.287c0.711,1.643 1.252,3.378 1.977,4.999c0.689,1.557 1.401,2.994 2.069,4.494c0.605,1.344 1.195,2.695 1.778,4.039c0.476,1.103 0.86,2.162 1.23,3.243c0.37,1.073 0.732,2.169 1.166,3.349c0.576,1.55 1.209,2.937 1.764,4.416c0.591,1.572 1.031,3.086 1.579,4.8c0.469,1.465 0.882,2.517 1.337,3.854c0.64,1.878 1.216,4.089 1.806,6.059c0.419,1.408 0.867,2.895 1.301,4.395c0.426,1.501 0.853,3.023 1.23,4.516c0.69,2.702 1.358,5.838 2.041,8.37c1.116,4.132 2.155,9.124 3.008,14.073c0.753,-0.22 1.5,-0.448 2.325,-0.512c1.387,-0.121 2.866,0 4.267,0.014c2.681,0.029 4.942,-0.874 7.616,-0.846c2.844,0.043 5.689,0 8.533,0h32.249c2.717,0 5.803,-0.406 8.491,-0.043c2.439,0.327 4.267,0.889 6.791,0.889c2.254,0.007 4.551,-0.135 6.791,-0.014c2.069,0.107 3.776,0.882 5.945,0.868c4.416,-0.036 8.875,0.199 13.284,-0.043c-0.782,0.81 -1.984,1.201 -2.617,2.14c-0.669,0.988 -0.875,2.396 -1.323,3.42c-0.405,0.917 -0.576,2.005 -1.038,2.972c-0.548,1.144 -1.6,1.969 -1.707,3.292c-2.581,-1.081 -5.717,-0.747 -8.718,-0.747c-1.551,0 -3.101,-0.007 -4.651,0c-2.51,0.014 -4.601,-0.597 -7.026,-0.896c-2.738,-0.327 -5.568,0.377 -8.313,-0.028c-2.73,-0.398 -4.999,-0.782 -7.822,-0.775c-3.008,0.007 -6.123,0.228 -9.124,0.043c-2.915,-0.171 -5.482,-0.903 -8.462,-0.889c-10.261,0.05 -20.523,0.028 -30.784,0c-3.292,-0.014 -6.258,1.166 -9.543,0.882c-0.207,0.057 -0.42,0.128 -0.619,0.235c-0.214,0.107 -0.42,0.242 -0.619,0.427c-0.391,0.377 -0.747,0.945 -1.031,1.877c-0.654,2.183 -1.387,4.246 -2.169,6.322c-0.071,0.199 -0.157,0.384 -0.242,0.576c-0.256,0.561 -0.519,1.13 -0.619,2.069c-0.136,1.266 -0.015,3.214 -0.1,4.601c-0.029,0.377 -0.064,0.683 -0.121,0.96c-0.1,0.548 -0.235,0.981 -0.32,1.593c-0.042,0.306 -0.071,0.661 -0.085,1.088c-0.022,1.351 -0.157,2.404 -0.299,3.449c-0.142,1.053 -0.285,2.098 -0.313,3.449c-0.007,0.028 -0.007,0.057 -0.007,0.085c-0.021,0.86 -0.092,1.636 -0.085,2.56c0.014,1.244 0.298,2.901 0.341,4.181v0c0.035,1.123 0,2.147 -0.05,3.143c-0.049,0.988 -0.121,1.956 -0.149,2.944c-0.049,1.742 -0.128,3.42 -0.156,5.212c-0.014,1.295 0.178,2.567 0.292,4.075c0.05,0.725 0.015,1.273 -0.028,1.813c-0.043,0.533 -0.085,1.06 -0.057,1.728c0.021,0.562 0.107,1.216 0.185,1.863c0.085,0.654 0.164,1.301 0.185,1.856c0.021,0.569 -0.021,1.024 -0.057,1.486c-0.035,0.47 -0.064,0.946 -0.014,1.572c0.192,2.461 0.341,4.758 0.54,7.218c0.05,0.64 0.051,1.138 0.036,1.607c-0.015,0.469 -0.043,0.917 -0.036,1.465c0,1.088 0.228,2.354 0.313,3.556c0.092,1.195 -0.093,1.849 -0.057,2.944c0.014,0.427 0.078,0.911 0.135,1.387c1.55,0.256 3.008,0.69 4.743,0.676c2.048,-0.014 4.345,-0.263 6.372,-0.028c1.941,0.221 3.463,0.903 5.518,0.882c2.254,-0.028 4.231,0.405 6.364,0.825c1.977,0.384 3.434,0.882 5.525,0.868c2.119,-0.014 4.245,0.021 6.364,0.007c4.146,-0.042 7.929,1.629 11.89,2.468c0.988,0.213 1.991,-0.136 2.972,0.028c1.059,0.184 1.898,0.775 2.972,0.924c1.998,0.292 4.33,-0.028 6.364,-0.028c1.792,0 3.747,-0.241 5.518,-0.028c1.088,0.128 1.905,0.732 2.972,0.924c1.095,0.192 2.304,-0.284 3.399,-0.092c1.23,0.22 2.105,0.846 3.392,0.917c1.123,0.057 2.304,-0.171 3.42,-0.043c1.152,0.128 1.458,0.668 2.482,0.91c0.86,0.213 2.119,-0.036 3.015,-0.043c2.261,-0.007 4.53,0 6.791,0c1.053,0 2.39,-0.206 3.428,-0.028c1.053,0.178 1.671,0.974 2.795,1.024c0.178,1.216 0.242,2.105 0.761,3.25c0.591,1.28 1.366,1.955 0.939,3.42c-0.306,1.038 -1.316,1.494 -1.593,2.482c-0.234,0.846 0.036,2.24 0.1,3.122c-0.91,-1.201 -4.573,-0.533 -6.002,-0.533c-2.261,0 -4.53,0.007 -6.791,0c-4.878,0 -8.853,-1.813 -13.582,-2.588c-4.473,-0.747 -9.102,-1.131 -13.632,-1.636c-2.752,-0.299 -5.412,-1.423 -8.235,-1.764c-1.586,-0.185 -3.086,0.164 -4.672,-0.142c-1.486,-0.291 -2.482,-0.689 -4.039,-0.668c-4.672,0.057 -9.002,-1.479 -13.582,-1.671c-4.302,-0.171 -8.348,-2.617 -12.736,-2.567c-4.43,0.057 -8.299,-0.846 -12.736,-0.846c-0.121,0 -0.263,-0.021 -0.384,-0.021c-0.056,1.137 -0.128,2.275 -0.156,3.413c-0.014,0.547 0.036,1.166 0.057,1.756c0.071,1.842 0.234,3.783 0.213,5.504c-0.029,2.226 -0.114,4.352 -0.164,6.535c-0.171,7.517 -0.605,14.834 -0.555,22.756c0.021,2.638 0.093,5.347 0.249,8.149c0.043,0.783 0.021,1.48 -0.007,2.148c-0.028,0.676 -0.064,1.337 -0.071,2.048c-0.007,1.486 0.341,3.278 0.398,4.814c0.1,2.823 -0.142,5.312 -0.199,7.922c-0.064,2.852 -0.057,5.817 0.05,8.896c0.078,2.304 0.263,4.722 0.462,7.147c2.119,0.071 4.174,0.299 5.205,0.299c1.052,0 2.361,-0.228 3.392,-0.043c1.259,0.22 2.091,0.818 3.399,0.91c2.489,0.178 4.416,-0.476 6.77,-0.91c2.645,-0.497 6.016,0.043 8.718,0.043h8.284c4.935,0 9.934,-0.22 14.862,-0.007c2.24,0.092 4.039,0.874 6.364,0.853c2.268,-0.014 4.53,0 6.791,0c2.254,0 4.551,-0.142 6.798,-0.014c2.475,0.135 4.658,0.896 7.296,0.86c2.546,-0.043 4.566,0.903 7.14,0.86c2.176,-0.043 4.494,0.597 6.599,1.031c0.918,0.192 1.486,0.675 2.738,0.661c1.131,-0.021 2.268,0.007 3.399,0c2.105,-0.014 4.551,1.28 6.478,0.782z" /> <path d="M650.812,52.4c-0.114,1.451 -2.873,2.994 -4.423,3.314c0.028,-0.028 0.05,-0.056 0.071,-0.092c0.96,-1.18 2.581,-3.527 4.352,-3.221z" /> <path d="M646.389,55.717c-0.192,0.242 -0.377,0.476 -0.569,0.718l0.128,-0.604c0.114,-0.007 0.306,-0.086 0.441,-0.114z" /> <path d="M541.364,0.367c0.512,-0.078 0.989,-0.227 1.444,-0.462c-0.369,0.135 -0.604,0.341 -0.924,0.505c-0.171,-0.022 -0.341,-0.022 -0.519,-0.043z" /></svg>