<svg xmlns="http://www.w3.org/2000/svg" viewBox="0 0 875 960" width="875" height="960"><path d="M444.777,144.746c0.37,4.191 0.37,9.533 -0.041,13.682c-0.164,1.85 -0.821,3.452 -1.109,5.301c-0.247,1.808 0.083,3.657 -0.164,5.506c-0.904,6.245 -7.395,9.45 -11.997,11.299c-5.341,2.136 -11.34,1.56 -16.681,3.533c-4.972,1.807 -9.614,1.438 -14.791,1.602c-4.313,0.123 -8.505,2.054 -12.901,1.397c-1.932,-0.288 -1.849,0.205 -2.301,-1.973c-0.205,-0.905 -0.164,-3.164 0,-4.109c0.287,-1.766 1.52,-3.697 2.999,-4.478c1.027,-0.575 2.054,-0.493 3.04,-1.109c1.109,-0.658 1.89,-1.52 3.204,-1.767c2.67,-0.493 5.957,0.042 8.628,0.083c3.738,0.042 7.641,-1.397 10.764,-3.985c2.795,-2.301 2.507,-4.437 2.466,-8.012c0,-3.04 0.41,-6.408 -0.247,-9.326c-0.576,-2.63 -0.74,-5.629 -2.918,-7.067c-3.328,-2.259 -9.533,-0.945 -13.518,-0.945h-30.774c-2.958,0 -6.039,-0.821 -8.381,1.233c-2.753,2.464 -5.383,5.916 -7.478,9.162c-1.478,2.301 -3.328,4.684 -5.834,5.465c-0.863,0.247 -1.931,-0.041 -2.753,0.411c-1.274,0.78 -2.506,3.615 -3.287,4.848c-1.808,2.753 -3.616,5.465 -5.054,8.464c-0.823,1.848 -2.054,3.287 -3.082,4.93c-0.945,1.438 -1.438,3.246 -2.383,4.684c-1.931,2.958 -3.123,5.587 -4.766,8.669c-1.519,2.835 -3.656,5.218 -5.094,8.136c-1.068,2.219 -1.931,5.382 -2.342,8.012c-0.78,5.053 -0.122,11.504 1.521,15.941c1.891,5.26 0.863,12.327 0.863,18.038c0,6.779 -0.862,12.49 -2.054,19.023c-1.192,6.615 -0.206,14.258 -0.247,21.037c-0.042,4.684 1.766,10.026 3.985,13.97c0.493,0.903 1.561,1.396 2.054,2.259c0.616,1.027 0.534,2.054 1.068,3.04c1.48,2.877 4.274,3.658 6.698,4.972c2.752,1.479 6.122,3.082 8.505,5.177c1.232,1.067 1.315,1.89 2.958,2.588c1.397,0.575 2.753,0.616 4.027,1.397c5.218,3.04 9.984,6.368 15.531,8.505c3.616,1.398 7.108,4.438 10.888,5.301c1.561,0.329 3.123,-0.083 4.684,0c2.383,0.123 4.52,1.315 6.944,1.479c6.985,0.452 14.052,0.74 20.708,3.287c2.713,1.026 5.835,2.177 8.588,2.999c1.602,0.453 3.164,0.124 4.725,0.576c1.274,0.411 1.932,1.315 3.411,1.068c1.767,-14.217 9.081,-10.561 9.286,-1.973c0.083,3.862 -1.315,7.642 -2.383,11.258c-2.013,7.067 -5.958,14.257 -9.162,20.749c-2.877,5.834 -7.355,9.656 -11.587,13.97c-6.327,6.451 -17.174,1.192 -24.365,-1.314c-3.204,-1.11 -6.573,-2.178 -9.655,-3.616c-3.574,-1.644 -6.245,-3.945 -10.066,-4.808c-5.834,-1.314 -11.381,-3.41 -16.763,-6.368c-5.794,-3.163 -12.038,-5.67 -17.955,-8.628c-3.328,-1.644 -6.779,-2.507 -9.943,-4.602c-2.301,-1.521 -4.108,-3.123 -6.779,-3.78c-5.917,-1.439 -12.901,-0.206 -18.9,-0.247c-2.218,0 -5.629,-0.863 -7.683,0.205c-1.355,0.74 -2.424,2.712 -3.533,3.78c-4.396,4.027 -9.983,4.684 -14.339,8.505c-4.684,4.11 -8.752,7.684 -14.586,9.533c-4.931,1.562 -9.574,4.068 -14.504,5.753c-7.683,2.67 -15.367,5.547 -23.132,7.971c-11.34,3.533 -23.584,4.314 -35.253,4.314c4.642,-3.164 11.38,-3.288 16.434,-5.301c7.56,-2.959 14.71,-8.383 21.818,-12.532c8.053,-4.683 15.901,-9.49 22.269,-16.886c2.507,-2.876 4.807,-5.794 6.656,-9.286c1.274,-2.423 2.918,-10.559 1.233,-13.106c-1.725,-2.629 -7.19,-4.15 -9.614,-5.259c-8.011,-3.78 -16.106,-7.56 -24.323,-10.971c-6.122,-2.506 -12.326,-2.054 -18.818,-2.054c-4.233,0 -9.738,-0.945 -13.806,0.205c-4.932,1.396 -10.56,2.875 -14.751,6.039c-6.328,4.807 -12.203,10.231 -17.421,16.27c-2.054,2.425 -3.492,5.219 -5.465,7.643c-1.644,1.973 -2.63,2.671 -3.739,5.013c-1.932,4.233 -3.616,8.505 -5.465,12.614c-0.862,1.89 -2.012,3.493 -2.588,5.506c-0.616,2.26 -0.945,4.314 -1.808,6.492c-1.931,4.889 -3.821,11.053 -3.944,16.312c-0.041,2.465 -0.781,4.437 -0.904,6.779c-0.123,2.383 0,4.807 0,7.231c0,1.89 -0.041,3.821 0,5.711c0.041,2.877 1.397,3.74 2.547,6.246c2.588,5.67 6.287,10.929 12.121,13.764c3.656,1.808 7.765,3.533 11.792,4.396c4.561,0.986 8.587,1.15 13.271,1.15c4.93,0 9.82,-0.041 14.709,0c4.848,0 7.724,-1.684 11.052,-5.259c2.835,-3.04 5.013,-6.039 5.301,-10.395c0.041,-0.534 0.041,-1.274 0,-1.808c-0.082,-2.136 -0.369,-1.766 -1.89,-2.999c-1.931,-1.644 -2.507,-2.137 -5.054,-2.753c5.506,-2.835 13.313,1.89 16.641,6.286c2.711,3.616 3.573,7.724 3.204,12.285c-0.205,2.712 -1.93,6.533 -3.903,8.546c-1.932,2.054 -4.315,3.492 -6.246,5.423c-1.479,1.52 -1.767,2.835 -3.698,3.944c-1.026,0.575 -2.176,1.027 -3.204,1.643c-2.261,1.397 -3.904,2.671 -6.41,3.575c-2.711,0.945 -5.546,1.274 -8.258,2.137c-3.164,1.027 -6.328,2.014 -9.697,2.383c-1.52,0.164 -3.081,-0.288 -4.602,0.041c-1.315,0.247 -2.301,0.74 -3.657,0.863c-2.588,0.247 -5.629,0.123 -8.217,0c-7.026,-0.329 -13.846,-4.52 -19.804,-7.848c-2.342,-1.273 -4.601,-2.67 -6.82,-4.149c-2.219,-1.398 -5.013,-2.835 -7.067,-4.602c-1.89,-1.643 -4.191,-2.466 -5.67,-4.561c-2.096,-2.958 -4.479,-5.382 -5.753,-8.957c-1.439,-3.985 -1.768,-8.136 -3.082,-12.121c-1.028,-3.123 -1.562,-6.163 -2.671,-9.245c-1.151,-3.205 -0.206,-6.41 -0.863,-9.697c-0.657,-3.164 -0.74,-6.081 -0.74,-9.368c0,-6.862 -0.863,-14.38 1.356,-20.913c1.192,-3.452 3.082,-6.493 4.068,-10.026c0.452,-1.602 1.11,-2.916 1.726,-4.437c0.863,-2.136 1.068,-4.848 2.301,-6.779c2.916,-4.642 6.408,-9.039 9.326,-13.723c2.465,-3.985 5.218,-7.56 8.094,-11.381c1.602,-2.177 3.246,-4.355 4.848,-6.533c1.766,-2.383 4.231,-3.78 6.039,-5.999c0.986,-1.109 1.315,-2.095 2.424,-3.204c1.685,-1.603 3.04,-3.493 4.725,-5.136c2.054,-2.012 3.902,-4.518 5.423,-6.984c1.725,-2.752 2.957,-6.163 4.149,-9.203c0.657,-1.726 1.766,-3.369 2.342,-5.054c0.576,-1.725 0.617,-3.615 1.233,-5.341c0.494,-1.521 0.616,-2.548 0.863,-4.109c0.287,-1.685 1.314,-2.999 1.643,-4.684c0.905,-4.232 2.918,-7.765 2.918,-12.121c-0.042,-1.604 -0.206,-3.247 -0.083,-4.808c0.165,-1.561 1.151,-3.082 1.028,-4.643c-0.329,-4.192 -2.547,-8.053 -3.369,-12.121c-0.945,-4.848 -2.547,-9.573 -4.52,-14.093c-2.095,-4.93 -3.738,-9.532 -3.821,-15.12c-0.04,-3.369 0.288,-5.958 -0.616,-9.162c-0.411,-1.52 -1.192,-2.835 -1.561,-4.396c-1.109,-5.177 -1.561,-10.107 -3.492,-15.079c-1.15,-2.958 -1.89,-5.999 -2.506,-9.039c-2.219,-6.903 -3.78,-11.71 -3.533,-10.436c-1.357,-3.78 -3.206,-7.231 -4.356,-11.258c-1.396,-4.93 -3.328,-9.862 -4.314,-14.956c-0.493,-2.547 -0.739,-4.848 -1.643,-7.272c-0.986,-2.588 -2.917,-4.561 -3.328,-7.396c-0.247,-1.685 0.288,-3.451 0.041,-5.218c-0.451,-2.795 -1.89,-5.383 -2.588,-8.136c-0.575,-2.218 -0.903,-4.437 -1.643,-6.574c-0.945,-2.958 -2.424,-4.52 -3.821,-7.067c-1.972,-3.533 -3.616,-6.368 -5.999,-9.614c-4.355,-5.958 -9.737,-11.463 -16.599,-11.34c-9.326,0.083 -18.695,0.041 -28.021,0c-9.122,-0.082 -17.708,3.657 -26.501,6.656c-6.86,2.301 -8.915,8.711 -11.216,16.024c-2.095,6.779 -5.999,12.161 -8.341,18.612c-1.973,5.341 -3.822,13.97 -2.137,19.763c2.259,0.329 2.752,2.67 4.437,3.698c1.109,0.657 2.753,0.822 4.027,1.233c3.164,0.945 6.492,0.657 9.779,0.657c3.903,0 5.506,0.329 8.012,-3.246c1.931,-2.794 4.602,-6.903 7.478,-8.505c7.766,-4.273 11.422,8.752 8.834,15.12c-2.548,6.327 -10.23,10.026 -15.983,9.943c-5.998,-0.083 -12.039,0 -18.078,0c-6.203,0 -12.901,1.069 -18.776,-1.643c-3.616,-1.684 -7.026,-3.78 -9.245,-7.683c-1.808,-3.205 -1.356,-6.697 -1.356,-10.354c0,-6.368 -0.698,-13.352 0.083,-19.598c0.657,-5.218 2.958,-10.19 3.369,-15.408c0.287,-3.615 1.972,-6.369 3.451,-9.573c4.108,-9.081 7.519,-17.667 14.134,-24.858c0.329,-0.369 1.316,-0.041 1.685,-0.452c0.616,-0.616 0.657,-1.48 1.397,-2.137c0.617,-0.574 2.22,-1.068 2.918,-1.602c0.945,-0.658 1.931,-1.603 2.876,-2.301c1.068,-0.78 2.054,-2.465 2.999,-2.958c1.972,-1.069 6.327,-0.083 8.546,-0.083h59.863c3.287,0 6.574,-0.082 9.902,-0.123c1.397,-0.042 2.63,-0.083 3.863,-0.083c4.027,0.123 9.614,0.123 10.354,0.164c3.903,0.246 6.697,1.766 9.861,3.944c1.93,1.314 3.163,2.177 3.903,4.889c0.699,2.588 2.055,5.711 2.466,8.546c0.205,1.48 -0.124,3.163 -0.083,4.684c0.082,2.012 0.535,3.04 0.904,4.93c1.398,7.148 1.274,14.38 2.466,21.611c0.576,3.574 1.767,6.533 2.671,10.066c0.987,3.78 0.945,7.354 0.904,11.381c-0.041,3.615 0.575,7.149 3.246,9.368c2.342,1.931 5.423,2.259 7.396,4.889c0.534,0.698 1.89,1.685 3.533,2.835c1.028,-2.957 2.137,-5.875 3.123,-8.874c1.069,-3.286 1.603,-6.656 2.671,-9.984c0.945,-2.835 2.384,-5.382 2.918,-8.3c1.398,-7.519 3.74,-14.175 2.712,-21.858c-0.863,-6.903 0.124,-15.327 4.602,-20.421c1.356,-1.521 2.712,-2.918 4.068,-4.356c1.355,-1.48 2.752,-2.097 4.273,-3.411c3.862,-3.287 7.766,-7.436 12.696,-8.464c7.806,-1.602 15.736,-1.438 23.83,-1.438c9.574,0 18.613,-1.314 28.186,-1.314h72.929c3.78,0 8.381,0.822 12.038,-0.123c3.287,-0.863 8.176,-1.273 8.71,-5.793c0.904,-7.805 -2.054,-22.515 -10.148,-23.501c-7.108,-0.862 -14.915,-0.04 -22.146,0.083c-3.041,0.041 -4.15,0.698 -4.684,-2.671c-0.288,-1.972 0.123,-3.78 1.109,-5.341c1.766,-2.712 5.136,-7.396 8.176,-8.094c3.245,-0.781 7.272,0.205 10.271,1.15c1.89,0.576 3.902,0.329 5.875,0.288c1.644,-0.04 2.465,0.699 3.657,1.028c6.081,1.521 15.448,1.932 19.311,8.3c1.768,2.875 3.658,5.834 4.356,9.326c0.74,3.615 1.109,7.067 2.835,10.313c1.973,3.74 4.233,7.108 4.356,11.669c0.081,3.985 -1.11,7.026 -2.178,10.683c-0.574,2.055 -0.862,3.328 -2.095,5.013c-0.493,0.658 -1.233,0.905 -1.767,1.521c-0.123,0.124 -1.973,4.109 -2.342,4.356c-2.096,1.397 -6.369,0.452 -8.916,0.452c-1.726,0 -3.451,0.083 -5.177,0c-1.807,-0.083 -2.177,-0.904 -3.533,-1.233c-3.862,-0.864 -8.546,-0.124 -12.49,-0.083c-2.342,0 -4.602,0.123 -6.903,-0.288c-3.74,-0.698 -7.108,-2.67 -10.724,-3.492c-3.04,-0.698 -6.286,-0.658 -9.326,-1.274c-1.685,-0.371 -3.246,-0.329 -4.972,-0.288c-4.396,0.042 -8.834,0 -13.23,-0.041c-5.711,-0.041 -11.217,1.274 -16.846,1.438c-6.164,0.205 -12.039,0.247 -18.202,0.945c-4.767,0.575 -9.738,-0.494 -14.422,0.534c-5.67,1.273 -11.668,6.327 -16.229,10.354c-2.054,1.849 -4.601,4.232 -5.793,6.903c-0.904,2.054 -1.315,4.273 -2.301,6.286c-1.15,2.342 -2.424,3.821 -2.958,6.533c-0.575,3.04 -0.657,6.122 -1.479,9.121c-1.521,5.424 -3.246,10.887 -5.054,16.188c-1.274,3.697 -2.629,7.313 -3.821,11.052c-1.109,3.492 -2.424,7.19 -2.958,10.888c-2.095,14.626 2.507,29.131 5.506,43.059c1.725,7.971 0.657,18.078 5.423,24.734c1.356,1.932 3.328,3.287 4.396,5.465c1.521,3.04 0.945,6.41 0.781,9.738c-0.288,4.89 0.493,9.615 0.945,14.463c0.207,2.054 0.945,4.314 1.521,6.327c0.617,2.218 0.617,3.287 0.781,5.629c0.288,3.41 1.972,6.369 3.739,8.957c2.753,3.944 5.629,5.053 9.573,6.779c2.916,1.274 4.437,1.028 7.436,1.233c2.423,0.164 4.56,1.274 6.984,1.438c6.327,0.329 12.038,2.63 18.448,2.63c4.149,0 7.56,0.904 10.559,-2.588c2.177,-2.507 4.972,-8.547 5.588,-12.08c0.288,-1.725 0.206,-5.094 -0.041,-6.779c-0.329,-1.767 -0.904,-2.424 -1.233,-4.109c-0.657,-3.04 0.082,-7.272 0.041,-10.436c-0.041,-3.657 1.068,-6.615 1.109,-10.313c0.083,-4.642 1.685,-8.998 1.192,-13.723c-0.698,-7.395 -11.791,-8.381 -16.599,-8.258c-6.82,0.206 -11.751,-2.136 -16.599,-7.683c-1.274,-1.48 -2.383,-3.739 -2.466,-5.917c-0.164,-5.136 5.424,-3.451 8.588,-3.451c2.013,0 4.068,0.124 6.081,0.041c2.259,-0.124 4.108,-1.15 6.327,-1.438c3.78,-0.493 7.929,0.083 11.709,0.083c3.287,0 6.574,-0.082 9.861,-0.041c3.738,0.082 6.245,-2.096 9.491,-3.698c3.409,-1.643 6.903,-3.123 10.107,-5.218c4.89,-3.164 8.218,-8.752 10.971,-14.175c1.479,-2.918 3.698,-5.506 4.602,-8.752c0.863,-3.287 -0.164,-6.163 -0.698,-9.409c-0.616,-3.862 0.247,-8.957 2.671,-11.833c0.781,-0.862 1.768,-0.986 2.466,-1.643c0.862,-0.904 1.15,-2.958 2.054,-3.698c1.48,-1.191 5.999,-0.205 7.807,-0.205c4.766,0 8.957,0.576 13.682,1.192c9.162,1.232 18.981,0.123 28.226,0.123c13.682,0 27.65,-0.575 40.963,1.274c3.287,0.452 5.875,1.438 9.286,1.397c1.027,0 2.465,-0.33 3.451,-0.083c2.013,0.493 1.397,1.233 2.301,2.794c3.369,5.957 11.997,6.532 12.737,14.996z" /> <path d="M512.907,217.304c-0.329,-3.165 -0.329,-7.232 -0.041,-10.478c0.617,-6.451 7.478,-6.903 10.19,-11.423c0.699,-1.233 0.247,-1.768 1.808,-2.137c0.78,-0.206 1.972,0.041 2.753,0.041c2.711,0.041 4.806,-0.699 7.436,-1.068c10.6,-1.397 21.735,-0.945 32.664,-0.945c7.396,0 15.244,0.821 22.516,-0.083c3.78,-0.493 7.108,-0.945 10.929,-0.945c1.438,0 5.054,-0.74 6.204,0.164c0.74,0.575 0.987,2.137 1.685,2.794c0.534,0.534 1.315,0.617 1.931,1.274c1.973,2.219 2.63,6.081 2.137,9.039c-0.411,2.466 -1.232,4.685 -0.534,7.191c0.699,2.466 2.465,4.479 3.657,6.698c2.178,4.15 4.849,8.423 8.752,10.806c2.547,1.603 5.341,2.753 8.053,4.027c2.588,1.192 4.602,2.835 7.56,2.794c2.63,0 5.259,0.041 7.889,0.041c3.04,0 6.327,-0.452 9.326,-0.083c1.766,0.246 3.286,1.026 5.094,1.109c1.562,0.082 3.206,-0.041 4.808,-0.041c2.548,0 6.985,-1.273 6.862,2.63c-0.083,1.685 -0.945,3.411 -1.973,4.52c-3.862,4.274 -7.807,6.04 -13.23,5.917c-3.821,-0.124 -12.695,0.657 -13.271,6.286c-0.37,3.616 0.903,6.903 0.986,10.478c0.041,2.835 0.904,5.095 0.863,7.889c0,2.383 0.576,5.629 0.083,7.971c-0.288,1.274 -0.781,1.767 -0.986,3.123c-0.246,1.314 4.068,1.725 4.356,3.451c0.575,3.534 3.41,9.574 5.588,12.08c2.999,3.492 6.41,2.588 10.559,2.588c6.41,0 12.121,-2.301 18.448,-2.63c2.423,-0.164 4.56,-1.274 6.984,-1.438c2.999,-0.205 4.518,0.041 7.436,-1.233c3.944,-1.725 6.861,-2.835 9.573,-6.779c1.766,-2.589 3.451,-5.546 3.739,-8.957c0.165,-2.342 0.165,-3.41 0.781,-5.629c0.576,-2.012 1.316,-4.273 1.521,-6.368c0.452,-4.808 1.233,-9.533 0.986,-14.422c-0.205,-3.328 -0.781,-6.698 0.74,-9.738c1.068,-2.178 3.04,-3.534 4.396,-5.465c4.766,-6.696 3.738,-16.763 5.423,-24.734c3,-13.928 7.601,-28.432 5.506,-43.059c-0.534,-3.698 0.74,-8.094 0,-10.929c-0.821,-3.04 -1.725,-5.958 -2.547,-8.957c-1.069,-3.822 -2.63,-7.724 -2.137,-11.751c0.451,-3.41 -0.987,-7.067 -2.918,-9.902c-1.069,-1.561 -1.191,-3.287 -2.219,-4.848c-0.657,-1.028 -1.602,-2.014 -2.424,-2.918c-2.095,-2.424 -4.643,-4.108 -7.231,-6.081c-1.15,-0.862 -2.259,-1.397 -3.287,-2.383c-0.781,-0.74 -1.397,-1.397 -2.383,-1.89c-3.492,-1.766 -6.944,-3.492 -10.888,-3.985c-1.932,-0.246 -3.78,-0.657 -5.753,-0.657c-1.603,-0.042 -3,-0.657 -4.602,-0.74c-7.191,-0.328 -14.504,0.041 -21.735,0.041c-6.451,0 -12.901,0.041 -19.352,0c-4.232,-0.041 -8.383,0.74 -12.532,1.397c-3.41,0.493 -7.149,2.629 -10.148,4.314c-1.562,0.864 -3.123,1.602 -5.013,1.233c-1.397,-0.33 -3.902,-1.028 -4.93,-1.973c-0.821,-0.739 -1.191,-1.725 -2.013,-2.547c-1.191,-1.15 -2.013,-2.178 -2.547,-3.821c-0.862,-2.671 -1.438,-6.163 -0.698,-8.998c0.739,-2.671 0.903,-5.794 2.095,-8.341c1.602,-3.533 2.465,-7.313 3.944,-10.929c1.191,-2.835 5.218,-6.327 7.765,-8.094c2.999,-2.096 5.998,-3.944 8.669,-6.41c2.424,-2.218 5.259,-5.176 4.191,-8.874c-2.629,-0.739 -6.286,-0.041 -9.039,-0.041c-3.411,0 -6.779,0 -10.19,0c-4.191,-0.042 -8.259,0.698 -12.408,0.698c-3.575,-0.04 -7.191,-0.247 -10.724,0.329c-6.533,1.027 -13.641,0.412 -20.297,0.329c-2.506,0 -2.342,1.068 -3.78,2.794c-1.191,1.439 -2.588,2.589 -4.478,2.753c-1.973,0.205 -5.342,0.369 -7.191,-0.329c-2.177,-0.821 -2.012,-2.63 -1.643,-4.684c0.822,-4.232 2.424,-8.545 6.081,-11.011c2.629,-1.808 4.026,-1.931 7.272,-1.931h78.763c3.411,0 6.82,0 10.231,0c2.671,0 5.177,0.699 7.848,0.74c4.149,0.041 8.341,1.931 8.957,6.533c0.781,5.834 -0.493,12.861 -4.437,17.257c-0.821,0.945 -1.93,1.89 -3.204,2.259c-1.109,0.329 -2.259,-0.041 -3.451,0.288c-1.89,0.493 -3.575,0.534 -5.629,0.534c-2.793,-0.04 -5.135,0.698 -7.765,1.274c-2.218,0.493 -3.37,0.904 -4.684,2.835c-1.109,1.643 -2.589,3 -3.903,4.561c-1.684,1.89 -4.601,3.945 -4.93,6.492c-0.288,2.341 0.575,4.026 1.438,6.039c0.493,1.109 1.191,2.301 2.383,2.958c0.739,0.411 1.89,0.329 2.547,0.822c0.371,0.247 0.452,0.781 0.74,1.028c1.602,1.273 3.123,2.589 5.177,2.958c1.643,0.329 3.82,0 5.341,-0.369c1.15,-0.288 1.931,-0.288 3.123,-0.329c1.11,-0.042 1.809,-0.535 2.918,-0.74c1.726,-0.328 3.944,0.041 5.711,0.041c4.725,0 9.45,-0.041 14.175,0c3.411,0 6.328,0.493 8.752,-2.095c0.411,-0.451 1.068,-0.945 1.397,-1.479c0.246,-0.452 0.124,-1.356 0.329,-1.849c0.164,-0.535 0.821,-1.397 1.15,-1.849c1.15,-1.437 3.163,-2.424 4.848,-2.958c1.931,-0.575 4.52,-0.123 6.574,-0.123h26.871c1.972,0 4.561,-0.41 6.574,-0.041c1.479,0.288 2.794,1.644 3.698,2.794c2.26,2.957 3.945,7.97 4.602,11.709c0.206,1.192 -0.124,2.383 0.123,3.616c0.246,1.315 0.452,2.26 0.493,3.657c0.083,2.055 0.617,4.56 1.233,6.533c0.37,1.192 0.822,2.63 0.863,3.863c0.123,1.356 0.328,1.725 0.616,2.753c0.206,0.74 0.083,1.602 0.083,2.342c-0.042,1.191 0.287,1.356 0.534,2.219c0.452,1.602 0.164,3.697 0.164,5.382c-0.041,2.136 0.698,4.067 0.657,6.204c0,3.903 4.89,7.601 8.588,7.56c4.027,-0.04 7.643,-0.246 10.026,-3.903c0.822,-1.274 1.521,-2.548 2.63,-3.698c0.534,-0.535 1.11,-0.987 1.479,-1.685c0.534,-1.028 0.74,-2.055 1.438,-3.123c0.616,-0.945 0.987,-1.725 1.356,-2.753c0.821,-2.259 1.89,-4.807 2.095,-7.231c0.164,-2.096 0,-4.315 0,-6.41c0,-4.15 -0.246,-8.011 1.192,-11.874c0.41,-1.068 1.233,-2.711 2.383,-3.287c1.314,-0.657 3.903,-0.164 5.382,-0.164c4.149,0 8.135,0.04 12.038,-1.028c2.342,-0.617 5.012,-0.659 7.478,-1.028c0.986,-0.122 1.89,-0.615 2.876,-0.698c1.15,-0.165 1.973,-0.041 3.123,-0.329c4.396,-1.191 8.833,0.123 13.106,0.863c3.862,0.698 8.135,0.164 12.038,0.164c2.423,0 4.807,0 7.231,0c2.055,0 4.233,-0.205 6.246,0c2.137,0.206 2.589,1.068 3.575,2.753c0.739,1.233 1.931,2.26 2.424,3.657c0.205,0.575 0.124,1.274 0.493,1.767c0.534,0.863 1.849,1.027 2.547,1.767c0.493,0.534 0.493,1.191 0.904,1.643c0.287,0.328 0.903,0.081 1.15,0.369c4.437,5.588 6.697,12.285 9.45,19.352c0.986,2.506 2.137,4.643 2.342,7.478c0.246,4.068 1.808,7.97 2.219,11.997c0.535,4.889 0.083,10.312 0.083,15.284c0,2.835 0.288,5.587 -0.945,8.053c-1.479,3.041 -3.739,4.685 -6.163,5.999c-3.904,2.096 -8.424,1.274 -12.573,1.274c-4.027,0 -8.053,-0.041 -12.08,0c-3.862,0.083 -8.998,-2.835 -10.724,-7.724c-1.726,-4.972 0.699,-15.12 5.917,-11.792c1.931,1.233 3.699,4.437 5.013,6.574c1.684,2.835 2.753,2.547 5.341,2.547c2.218,0.041 4.437,0.247 6.574,-0.493c0.822,-0.288 1.931,-0.452 2.671,-0.986c1.15,-0.781 1.479,-2.588 2.958,-2.876c1.15,-4.52 -0.083,-11.218 -1.397,-15.367c-1.561,-5.054 -4.191,-9.245 -5.588,-14.504c-1.52,-5.711 -2.917,-10.682 -7.519,-12.49c-5.875,-2.342 -11.627,-5.259 -17.708,-5.218c-6.286,0.041 -12.53,0.123 -18.776,0c-4.602,-0.04 -8.217,4.232 -11.135,8.834c-1.602,2.547 -2.711,4.766 -3.985,7.519c-0.945,2.014 -1.931,3.205 -2.588,5.506c-0.492,1.683 -0.699,3.409 -1.068,5.094c-0.493,2.177 -1.479,4.19 -1.726,6.368c-0.205,1.356 0.164,2.754 0,4.068c-0.246,2.178 -1.562,3.74 -2.219,5.753c-0.616,1.89 -0.78,3.697 -1.109,5.67c-0.657,3.986 -1.931,7.848 -2.876,11.669c-0.781,3.123 -2.014,5.834 -2.918,8.752c0.164,-0.985 -0.904,2.754 -2.383,8.136c-0.411,2.383 -0.904,4.766 -1.685,7.067c-1.274,3.861 -1.561,7.682 -2.342,11.709c-0.206,1.233 2.013,10.764 1.602,12.285c-0.904,3.163 -0.575,5.793 -0.616,9.162c-0.082,5.587 -1.726,10.19 -3.821,15.12c-3.082,7.148 -5.588,15.53 -5.465,23.501c0.165,10.641 -3.533,21.036 -2.588,31.719c0.205,2.342 0.617,4.725 0.986,7.067c0.37,2.465 0.781,4.93 1.726,7.231c1.275,3.122 3.494,5.711 4.808,8.71c1.603,3.616 3.287,7.889 4.027,11.792c0.452,2.588 2.548,4.847 3.616,7.313c1.028,2.383 1.973,4.931 2.918,7.355c0.534,1.397 1.437,2.507 2.013,3.863c0.575,1.438 0.657,3.042 1.561,4.356c2.918,4.15 8.998,6.739 13.806,7.889c4.725,1.109 11.381,1.807 16.353,0.698c5.628,-1.274 10.724,-5.218 14.873,-8.998c5.71,-5.177 8.669,-10.6 11.709,-17.462c1.192,-2.712 0.781,-4.725 1.397,-7.56c0.615,-3.082 0.657,-5.793 0.698,-8.957c0.082,-5.999 -3.123,-10.847 -7.519,-14.504c-0.986,-0.821 -2.424,-1.438 -3.492,-2.054c-1.438,-0.863 -2.178,-0.535 -3.739,-0.904c-1.192,-0.246 -2.302,-0.821 -3.616,-1.15c-1.356,-0.329 -3.246,-0.411 -4.52,-0.863c-0.698,-2.63 8.505,-1.685 10.026,-1.685c4.355,0 8.833,-0.329 12.901,0.863c3.286,0.985 6.409,3.287 9.203,5.341c2.26,1.684 5.835,3.78 7.478,5.793c1.602,2.014 3.534,4.725 4.684,7.108c0.74,1.521 1.027,3.657 1.356,5.506c0.33,1.604 0.247,3.165 0.247,4.808c-0.041,1.931 0.699,2.794 0.904,4.561c0.411,3.533 0.781,9.49 -0.205,12.901c-0.452,1.643 -1.273,4.149 -2.547,5.341c-1.109,1.067 -1.15,0.616 -2.013,2.095c-1.069,1.89 -1.972,4.067 -3.164,5.834c-1.397,2.012 -3.163,4.313 -4.93,6.039c-0.822,0.821 -1.972,1.437 -2.712,2.259c-0.74,0.822 -0.658,1.479 -1.192,2.383c-1.849,3.082 -6.163,4.642 -8.957,6.615c-3.615,2.465 -8.094,5.095 -12.203,6.492c-4.849,1.685 -10.231,1.521 -15.408,1.521h-17.257c-4.233,0 -8.752,0.493 -12.861,-0.205c-0.74,-0.122 -1.644,-0.615 -2.753,-0.698c-1.355,-0.123 -1.89,-0.081 -3.204,-0.657c-1.48,-0.657 -2.835,-1.438 -4.356,-1.89c-2.095,-0.576 -3.04,-1.357 -4.561,-2.918c-2.752,-2.877 -5.999,-5.055 -8.998,-7.643c-3.246,-2.835 -5.629,-6.655 -8.3,-10.066c-1.437,-1.89 -2.424,-4.231 -3.903,-6.204c-2.014,-2.794 -3.699,-5.546 -5.958,-8.176c-3.492,-4.108 -7.272,-7.436 -12.654,-8.628c-2.425,-0.534 -4.356,-0.698 -6.862,-0.698c-4.313,0 -6.203,-0.206 -9.121,2.876c-2.835,2.959 -7.15,3.821 -10.971,5.013c-4.972,1.52 -9.574,4.355 -14.422,6.656c-2.423,1.11 -7.888,2.629 -9.614,5.259c-1.685,2.547 -0.041,10.64 1.233,13.106c1.848,3.493 4.15,6.368 6.656,9.286c6.368,7.395 14.216,12.202 22.269,16.886c7.109,4.151 14.258,9.574 21.818,12.532c5.053,2.014 11.791,2.137 16.434,5.301c-11.669,0 -23.913,-0.781 -35.253,-4.314c-7.765,-2.424 -15.449,-5.3 -23.132,-7.971c-4.931,-1.685 -9.574,-4.192 -14.504,-5.753c-5.834,-1.89 -9.861,-5.424 -14.586,-9.533c-4.355,-3.821 -9.943,-4.478 -14.339,-8.505c-1.109,-1.068 -2.219,-3.04 -3.533,-3.78c-2.054,-1.109 -5.464,-0.205 -7.683,-0.205c-5.999,0.042 -12.983,-1.191 -18.9,0.247c-2.67,0.657 -4.478,2.259 -6.779,3.78c-3.164,2.096 -6.615,2.959 -9.943,4.602c-5.917,2.917 -12.162,5.464 -17.955,8.628c-5.382,2.957 -10.929,5.054 -16.763,6.368c-3.82,0.864 -6.491,3.165 -10.066,4.808c-3.081,1.438 -6.451,2.507 -9.655,3.616c-7.191,2.506 -18.038,7.765 -24.365,1.314c-4.232,-4.315 -8.711,-8.136 -11.587,-13.97c-3.204,-6.491 -7.149,-13.682 -9.162,-20.749c-1.068,-3.615 -2.465,-7.395 -2.342,-11.258c0.164,-8.586 7.478,-12.243 9.245,1.973c1.48,0.246 2.137,-0.657 3.411,-1.068c1.602,-0.453 3.164,-0.124 4.725,-0.576c2.754,-0.821 5.876,-1.971 8.588,-2.999c6.657,-2.547 13.724,-2.835 20.708,-3.287c2.383,-0.165 4.561,-1.356 6.944,-1.479c1.561,-0.083 3.123,0.329 4.684,0c3.78,-0.864 7.272,-3.904 10.888,-5.301c5.547,-2.178 10.313,-5.465 15.531,-8.505c1.274,-0.781 2.63,-0.821 4.027,-1.397c1.644,-0.698 1.725,-1.52 2.958,-2.588c2.383,-2.095 5.752,-3.698 8.505,-5.177c2.424,-1.315 5.217,-2.096 6.738,-4.972c0.494,-0.986 0.412,-2.012 1.028,-3.04c0.533,-0.862 1.561,-1.355 2.054,-2.259c2.218,-3.944 4.026,-9.327 3.985,-13.97c-0.042,-6.779 0.945,-14.422 -0.247,-21.037c-1.191,-6.533 2.342,-9.45 2.342,-14.627c0,-4.355 -0.823,-9.737 0.698,-13.764c1.315,-3.41 1.808,-8.3 1.192,-12.203c-0.328,-1.972 -0.986,-4.396 -1.849,-6.081c-1.15,-2.219 -2.876,-4.067 -4.068,-6.204c-1.314,-2.383 -2.259,-4.397 -3.78,-6.656c-0.781,-1.109 -1.191,-2.466 -1.931,-3.575c-0.781,-1.273 -1.768,-2.342 -2.466,-3.739c-1.109,-2.301 -2.588,-4.397 -3.985,-6.492c-0.658,-0.945 -1.603,-3.122 -2.671,-3.698c-0.617,-0.37 -1.48,-0.124 -2.178,-0.329c-2.013,-0.575 -3.451,-2.424 -4.684,-4.191c-1.644,-2.464 -3.739,-5.053 -5.958,-6.984c-1.85,-1.561 -4.315,-0.904 -6.698,-0.904c-2.671,-0.041 -5.341,0 -8.012,0h-16.517c-3.163,0 -8.135,-1.028 -10.806,0.698c-1.725,1.109 -1.849,3.369 -2.301,5.382c-0.534,2.26 -0.205,4.807 -0.205,7.149c-0.04,2.711 -0.246,4.355 1.973,6.122c2.466,1.972 5.589,3.081 8.588,3.04c2.137,0 4.766,-0.41 6.903,-0.041c1.026,0.164 1.643,0.821 2.547,1.314c0.781,0.493 1.602,0.453 2.424,0.822c1.191,0.616 2.136,2.095 2.383,3.451c0.123,0.74 0.164,2.466 0,3.164c-0.329,1.643 -0.287,1.274 -1.808,1.479c-3.534,0.534 -6.862,-0.985 -10.313,-1.068c-4.109,-0.124 -7.807,0.164 -11.792,-1.233c-4.274,-1.479 -9.081,-1.028 -13.313,-2.671c-3.656,-1.438 -8.875,-3.861 -9.573,-8.669c-0.205,-1.397 0.042,-2.794 -0.164,-4.191c-0.206,-1.397 -0.699,-2.63 -0.863,-4.027z" /> <path d="M763.427,559.635c0.328,2.301 -0.082,4.725 -0.041,7.067c0.082,5.629 -4.231,8.957 -8.094,12.573c-0.494,5.3 -2.918,11.093 -4.808,14.791c-4.766,9.162 -18.489,13.682 -30.938,22.187c-3.903,33.199 -33.28,34.637 -62.986,22.968c-8.136,-3.164 -16.476,-6.204 -25.022,-8.053c-0.905,-0.164 -1.685,-0.288 -2.466,-0.493l0.452,-0.164c-0.74,-0.205 -1.479,-0.329 -2.219,-0.534c-4.273,-2.423 -8.546,-7.846 -11.504,-11.709c-2.424,-3.122 -5.752,-6.738 -9.368,-8.628c-7.601,-3.985 -14.585,-6.738 -22.392,-8.381l0.123,-0.083c-2.547,-0.288 -4.397,-2.424 -6.903,-2.835c-1.767,-0.288 -3.739,0.452 -5.506,0.123c-2.713,-0.452 -4.027,-1.397 -6.862,-1.438c-2.752,-0.041 -5.505,0 -8.258,0h-46.921c-5.26,0 -11.299,0.781 -16.476,0.083c-5.751,-0.781 -11.175,-3.328 -16.886,-4.232c-6.615,-1.109 -12.613,-1.972 -19.064,-3.78c-2.26,-0.617 -4.643,-0.987 -6.862,-1.685c-3.163,-0.986 -6.203,-2.547 -9.326,-3.78c-2.301,-0.904 -3.739,-2.466 -5.834,-3.575c-2.876,-1.479 -4.971,-1.439 -7.601,-3.698c-1.768,-1.561 -3.78,-2.219 -4.808,-4.027c-1.109,-1.807 -2.547,-5.67 -2.835,-7.724c-0.33,-2.383 -0.412,-3.903 -1.028,-6.204c-0.576,-2.137 -0.452,-4.643 -0.329,-6.862c0.205,-3.863 2.055,-9.162 3.369,-12.737c1.233,-3.328 3.452,-4.232 3.575,-7.971c0.123,-2.63 -0.288,-4.438 0.945,-6.862c0.986,-1.972 2.835,-3.369 3.287,-5.547c0.37,-1.973 -0.164,-4.849 -0.123,-6.862c0.042,-3.615 -1.52,-9.86 -6.204,-9.819c-3.615,0.082 -6.533,4.15 -8.916,6.492c-4.068,4.068 -7.807,8.588 -11.423,13.025c-2.423,3 -5.834,5.054 -8.176,8.094c-1.972,2.588 -4.437,4.232 -6.656,6.451c-2.754,2.794 -4.15,6.82 -6.903,9.614c-1.437,1.519 -2.957,2.67 -4.149,4.437c-1.027,1.479 -1.684,3.985 -3.04,5.506c-0.576,0.698 -1.48,0.821 -2.178,1.643c-0.41,0.493 0,1.972 -0.493,2.506c-2.054,2.301 -4.519,3.78 -6.368,6.533c-2.137,3.123 -4.027,4.848 -7.191,7.026c-2.958,2.055 -6.327,3.862 -9.326,5.999c-1.849,1.315 -3.904,2.507 -5.917,3.821c-0.986,0.699 -2.342,1.725 -3.04,2.753c-4.437,6.493 4.068,3.822 7.272,3.082c10.559,-2.423 18.695,-12.12 28.309,-17.379c1.191,-0.616 7.396,-4.108 9.039,-3.492c2.178,0.781 1.274,4.684 1.233,6.451c0,2.013 0.369,4.273 -0.247,6.204c-0.863,2.63 -3.369,3.657 -5.259,5.465c-3.369,3.246 -7.026,5.876 -9.984,9.368c-1.602,1.89 -3.697,3.246 -5.218,5.136c-0.862,1.026 -1.602,2.383 -2.383,3.492c-1.028,1.397 -1.931,1.849 -3.123,2.999c-3.163,3.081 -4.889,6.902 -8.217,9.614c-3.411,2.875 -7.231,6.902 -10.395,10.066c-5.095,5.259 -11.217,9.45 -16.394,14.504c-4.478,4.396 -9.819,7.272 -14.996,11.011c-4.766,3.492 -9.368,6.78 -13.764,10.683c-2.711,2.465 -5.793,4.725 -5.177,8.669c0.453,2.67 0.124,2.219 2.712,2.753c3.081,0.657 6.779,-0.082 9.655,-0.986c3.287,-1.028 6.246,-3.534 9.45,-4.356c3.492,-0.903 6.039,0.042 9.121,-2.424c3.575,-2.876 7.026,-5.916 9.902,-9.491c1.808,-2.26 4.109,-4.109 6.122,-6.204c2.054,-2.219 3.369,-4.684 5.423,-6.862c4.397,-4.643 7.765,-9.409 12.778,-13.477c4.274,-3.451 8.547,-7.231 13.477,-9.655c4.642,-2.259 8.915,-5.054 13.435,-7.56c3.41,-1.931 8.752,-6.615 10.806,-1.109c2.013,5.423 0.164,11.175 -3.575,15.284c-5.711,6.245 -9.943,13.518 -14.873,20.338c-1.807,2.507 -3.533,4.232 -5.67,6.451c-2.958,3.082 -3.862,6.451 -5.67,10.19c-1.397,2.959 -3.944,4.684 -6.081,7.108c-3.328,3.82 -6.82,7.478 -10.436,11.011c-4.232,4.108 -6.41,9.778 -9.614,14.791c-1.15,1.768 -2.424,3.247 -3.821,4.808c-2.341,2.628 -3.821,5.834 -6.204,8.381c-14.257,15.326 -26.624,31.884 -36.526,50.332c-2.219,4.109 -5.464,7.93 -8.094,11.833c-1.192,1.807 -2.342,3.944 -3.616,5.67c-1.438,1.89 -2.959,3.534 -4.356,5.547c-0.738,1.069 -1.602,2.055 -2.259,3.123c-0.657,0.986 -0.945,1.89 -1.643,3.04c-2.26,3.904 -5.63,7.765 -3.657,12.778c1.192,3.164 4.273,3.164 7.067,3.78c2.3,0.493 5.3,2.178 7.601,1.15c4.19,-1.932 6.779,-8.875 9.943,-12.203c4.725,-5.013 8.957,-10.765 14.011,-15.449c2.876,-2.63 5.135,-4.602 7.601,-7.396c2.22,-2.589 5.137,-5.095 7.643,-7.478c4.232,-3.944 8.259,-7.806 12.408,-11.997c3.986,-4.027 7.519,-8.423 11.299,-12.696c1.643,-1.849 3.369,-4.027 5.218,-5.588c1.316,-1.151 3.042,-1.685 4.356,-2.794c1.438,-1.233 1.479,-2.424 2.547,-3.78c8.135,-10.435 16.312,-20.954 24.981,-30.856c2.712,-3.082 5.136,-5.424 9.245,-5.341c2.054,0.04 4.19,-0.246 6.163,0.123c1.274,0.205 2.095,1.643 3.533,1.109c1.151,-0.411 1.808,-2.794 2.63,-3.657c1.355,-1.48 4.478,-2.671 5.382,-4.808c0.74,-1.807 0.494,-5.423 0.083,-7.272c-1.726,-8.053 -9.45,-3.369 -15.079,-4.766c-2.096,-0.535 -1.725,0.452 -2.753,-1.521c-0.945,-1.848 0.452,-5.423 1.356,-6.984c0.945,-1.685 2.343,-2.754 3.657,-4.068c5.67,-5.711 10.971,-11.34 17.093,-16.353c3.04,-2.464 5.711,-6.615 8.012,-9.655c1.767,-2.342 3.78,-4.561 5.465,-6.944c3.247,-4.643 5.958,-8.547 10.683,-11.751c5.999,-4.109 4.93,0.452 2.835,5.382c-2.465,5.875 -5.506,11.299 -6.656,17.667c-0.37,2.136 -2.218,5.752 -0.904,8.053c0.945,1.602 3.944,1.725 5.382,2.999c3.739,3.246 2.753,7.519 2.753,12.08c0,5.425 0.575,11.218 0.041,16.641c-0.164,2.055 -0.863,5.999 -1.685,7.889c-0.74,1.726 -2.178,2.259 -3.123,3.78c-0.987,1.521 -0.411,2.466 -0.74,4.109c-0.41,2.342 -1.315,4.067 -1.438,6.533c-0.123,2.383 0.124,4.807 0.041,7.231c-0.083,2.671 -0.74,10.724 -2.918,13.559l-1.233,0.945c0.452,-0.123 0.864,-0.493 1.233,-0.945l1.109,-0.904c-0.452,0.987 -0.945,1.932 -1.397,2.918c-3.246,6.78 -6.451,13.601 -9.697,20.421c-0.862,1.849 -1.725,3.698 -2.588,5.547c-21.242,44.66 -47.044,86.281 -79.421,123.383c-10.519,12.121 -25.104,21.364 -39.238,29.5c-9.614,5.587 -19.146,11.34 -28.514,17.379c-7.642,4.93 -14.873,10.847 -23.296,14.463c-6.286,2.67 -10.847,5.423 -14.832,11.216c-3.452,5.012 -7.806,21.611 -14.668,11.093c-2.177,-3.409 -1.767,-6.737 -1.808,-10.6c-0.041,-3.904 1.356,-6.903 1.561,-10.642c0.206,-3.492 -0.082,-7.067 -0.041,-10.6c0.04,-3.821 -1.069,-8.423 -2.219,-12.121c-1.11,-3.616 -4.231,-6.738 -5.259,-9.984c-0.493,-1.602 -0.041,-3.451 -0.452,-5.177c-0.494,-2.095 -1.151,-3.369 -1.192,-5.711c-0.083,-3.535 -0.494,-7.602 0.369,-10.971c0.986,-3.985 2.671,-7.601 2.712,-11.792c0.042,-3.327 1.192,-4.889 1.521,-7.929c0.699,-6.122 -0.041,-12.779 -0.041,-18.983c0,-8.217 0,-16.517 -2.259,-24.282c-0.493,-1.685 -1.52,-3.492 -1.931,-5.177c-0.657,-2.506 0.123,-4.93 -0.288,-7.436c-0.493,-3.082 -2.588,-5.218 -3.451,-8.176c-1.028,-3.616 -3.658,-6 -4.972,-9.533c-1.274,-3.287 -2.548,-6.327 -4.109,-9.491c-3.082,-6.205 -6.78,-11.875 -12.573,-16.148c-3.041,-2.259 -6.944,-3.45 -10.19,-5.423c-3.451,-2.095 -6.409,-4.766 -10.066,-6.451c-3.656,-1.726 -7.56,-2.26 -11.052,-4.109c-2.589,-1.356 -5.219,-2.218 -7.807,-3.451c-4.191,-1.973 -7.602,-4.437 -12.08,-6.122c-3.493,-1.274 -6.204,-3.533 -9.368,-5.67c-2.095,-1.438 -4.108,-3.082 -6.327,-4.52c-5.876,-3.861 -11.258,-8.504 -17.257,-12.161c-5.834,-3.533 -10.847,-9.655 -14.832,-15.161c-5.013,-6.903 -8.505,-14.298 -10.642,-22.721c-1.028,-4.149 -0.083,-8.71 -0.288,-12.942c-0.205,-4.52 -1.561,-8.382 -1.561,-13.066c0.041,-4.848 -0.739,-10.271 0.329,-14.996c0.985,-4.232 2.506,-8.669 3.451,-13.025c0.658,-2.958 0.822,-5.793 2.219,-8.546c1.316,-2.629 1.973,-6.122 3.411,-8.546c2.096,-3.533 4.725,-4.109 8.464,-4.766c9.82,-1.726 19.681,-5.095 29.254,-7.807c11.71,-3.328 23.338,-6.862 34.801,-11.011c13.723,-4.971 26.377,-13.148 39.238,-20.379c3.492,-2.013 6.205,-5.67 8.793,-8.957c14.463,-18.366 29.337,-36.443 42.936,-55.426c10.56,-14.709 19.64,-30.528 29.131,-46.017c12.367,-20.214 24.159,-40.717 36.896,-60.685c3.287,-5.177 9.326,-8.504 13.682,-13.106c18.037,-19.187 43.88,-23.543 68.245,-32.993c-16.188,-19.105 -30.568,-36.157 -45.072,-53.043c-0.945,-1.11 -3.698,-3.945 -2.342,-5.588c1.15,-1.356 4.684,-0.576 6.163,-0.74c2.301,-0.206 4.478,-0.905 6.779,-1.028c3.534,-0.206 7.231,-0.041 10.642,0.822c1.275,0.328 2.507,0.945 3.863,1.15c1.438,0.246 2.958,-0.206 4.396,0.041c1.479,0.247 2.589,0.74 4.191,0.74c1.109,-0.041 2.178,-0.082 3.287,0.123c0.205,0.083 0.78,0.453 1.109,0.576c0.534,0.124 1.191,0.124 1.767,0.288c1.478,0.452 2.67,0.904 4.149,1.068c1.027,0.124 1.767,0.535 2.753,0.74c1.028,0.166 2.014,-0.164 3.082,0.083c2.876,0.659 5.464,2.959 8.258,3.863c1.11,0.329 1.932,0.37 2.918,0.986c0.533,0.288 0.945,0.904 1.561,1.233c0.821,0.452 1.725,0.452 2.547,0.863c1.807,0.863 3.369,2.342 5.218,3.082c2.178,0.945 3.739,1.849 5.506,3.451c2.054,1.849 4.56,3.205 6.779,4.848c1.604,1.15 3.123,2.424 4.808,3.616c1.232,0.822 2.218,1.521 3.451,2.219c1.068,0.576 1.767,1.48 2.753,2.137c2.383,1.519 4.561,3.451 6.944,4.93c4.683,2.957 9.532,5.34 14.709,7.313c3.863,1.52 7.972,2.3 12.121,2.588c3.409,0.206 7.395,0.78 10.764,0.123c2.465,-0.452 3.986,-1.931 5.588,-3.821c0.903,-1.069 1.848,-2.137 2.876,-3.123c1.644,-1.48 3.78,-3.534 6.122,-3.863c0.945,-0.123 1.808,0 2.63,-0.534c1.192,-0.739 1.973,-2.013 3.082,-2.876c1.15,-0.863 2.424,-1.561 3.616,-2.301c1.192,-0.699 2.466,-1.233 3.575,-1.973c0.74,-0.534 1.275,-1.151 1.973,-1.767c0.987,-0.904 2.219,-1.192 3.411,-1.808c1.849,-1.028 3.863,-2.342 5.917,-2.918c2.671,-0.74 5.053,-2.178 7.765,-2.835c1.192,-0.287 2.425,-0.616 3.575,-1.15c1.478,-0.657 2.875,-0.904 4.396,-1.438c1.275,-0.452 2.549,-0.74 3.863,-1.192c1.438,-0.452 2.999,-1.069 4.52,-1.233c1.232,-0.164 1.89,-0.041 2.999,-0.493c1.849,-0.781 3.904,-1.15 5.917,-1.726c2.464,-0.657 4.766,-1.849 7.272,-2.342c0.945,-0.165 2.013,-0.493 2.958,-0.576c0.945,-0.042 1.89,0.164 2.794,-0.083c1.438,-0.37 3.082,-0.781 4.561,-0.781c1.562,0 2.424,-0.739 3.821,-0.986c0.781,-0.124 1.397,-0.124 2.178,-0.329c0.905,-0.247 1.562,-0.371 2.466,-0.74c0.821,-0.329 1.479,-0.165 2.342,-0.329c1.315,-0.247 2.589,-0.864 3.903,-1.233c1.274,-0.328 1.357,0.124 1.726,1.274c0.412,1.15 1.069,2.055 1.521,3.123c0.411,0.903 0.699,1.89 0.904,2.876c0.206,0.863 0.575,1.479 0.822,2.301c0.247,0.74 -0.081,1.52 0.083,2.301c0.124,0.821 0.452,1.396 0.493,2.259c0,0.123 0,0.288 0,0.411c0,1.725 0,3.41 0,5.136c0,1.603 0.124,2.548 -0.657,4.027c-0.575,1.109 -0.287,2.096 -0.616,3.246c-0.658,2.547 -2.219,5.013 -3.698,7.108c-3.78,5.423 -8.792,9.984 -13.846,14.175c-0.493,0.369 -0.945,0.781 -1.397,1.15c-10.765,8.67 -19.968,19.024 -28.761,29.583c-1.356,1.603 -2.547,2.877 -3.944,4.027l16.846,18.776c4.027,1.972 6.984,3.451 7.56,3.739c6.287,3.205 11.875,6.78 17.298,11.258c5.834,4.849 7.97,12.901 11.216,20.092c5.958,2.3 11.751,5.054 17.01,8.258c4.848,2.918 8.218,6.493 10.806,10.642c0.411,0.205 0.863,0.369 1.561,0.452c2.219,0.246 3.369,0.329 5.547,0.986c4.642,1.521 9.86,2.137 14.051,4.808c1.726,1.109 3.328,2.342 5.218,3.082c3.122,1.233 6.491,1.233 9.573,2.466c3.328,1.356 6.573,2.835 9.984,4.027c1.15,0.37 2.342,0.698 3.451,1.274c0.904,0.452 1.808,0.863 2.63,1.356c1.069,0.658 2.178,0.534 3.328,0.781c1.356,0.288 2.754,1.152 4.068,1.521c1.067,0.329 2.054,0.698 3.04,1.274c1.932,1.027 3.986,1.519 6.081,2.095c2.752,0.74 5.341,1.314 7.929,2.342c1.274,0.534 2.424,1.274 3.698,1.767c0.616,0.246 1.233,0.452 1.849,0.657c0.821,0.329 1.314,0.823 2.054,1.192c1.52,0.699 3.245,0.987 4.766,1.685c0.533,0.287 1.027,0.739 1.561,1.068c0.986,0.616 2.054,1.026 3.04,1.602c1.151,0.657 2.178,1.561 3.246,2.342c1.233,0.904 2.424,1.849 3.492,2.958c2.219,2.219 4.231,4.19 6.204,6.656c1.479,1.85 2.629,3.74 3.903,5.753c1.15,1.808 2.424,3.698 3.328,5.629c1.151,2.382 2.835,4.272 3.863,6.738c0.288,0.698 0.823,1.356 1.192,2.054c0.657,1.274 1.233,2.588 1.931,3.821c0.78,1.274 1.603,2.342 2.301,3.575c0.862,1.52 2.054,2.835 2.835,4.396c0.287,0.616 0.78,1.192 1.068,1.808c0.288,0.616 0.246,1.192 0.493,1.849c0.452,1.273 1.191,2.465 1.602,3.739c0.616,1.89 1.438,3.739 2.342,5.547c0.534,0.987 0.986,1.973 1.274,3.082c0.206,0.781 0.657,1.397 0.904,2.137c0.205,0.657 -0.041,1.397 0.164,2.095c0.288,1.109 0.658,1.89 0.822,3.04c0.206,1.603 0.945,3.698 1.685,5.136c0.698,1.438 1.15,2.958 1.89,4.437c0.451,0.863 0.41,1.849 0.698,2.712c0.288,0.863 0.699,1.315 0.822,2.137z" /></svg>