<svg xmlns="http://www.w3.org/2000/svg" width="234.121" height="249.625" viewBox="0 0 2341.205 2496.25"><path d="m3.041 2493.25 87-4-15-35c-17-40-13-51 47-126 73-93 83-134 87-383l3-220-59-62c-66-69-88-122-86-213 2-74 30-140 84-196 64-67 116-89 215-89 69 1 87 4 134 30 58 32 114 91 138 145 8 19 18 80 22 134 6 79 11 102 26 112 15 11 108 14 485 14 532 0 500 5 500-84 0-81 28-177 66-229 136-187 404-162 512 48 55 108 24 255-74 345l-46 42 4 226c4 225 4 227 32 287 16 33 43 79 62 101 52 64 59 86 40 122l-16 31 87 4c49 1-477 3-1167 3s-1216-2-1168-3m1687-40c-10-21-19-50-19-65v-28h-1010v43c0 23-7 53-16 65l-15 22h1079zm-19-312c0-85 23-81-501-81-522 0-496-4-506 83l-6 47h1013z"/><path d="M803.041 1458.25c-7-7-12-30-12-52-1-136-134-307-272-351-29-10-59-23-66-30-8-7-20-55-28-106-13-87-18-119-29-175-3-14-15-23-32-27-42-8-113-74-134-125-46-106 0-235 102-287 43-22 117-29 167-16 47 13 115 68 138 113 12 24 20 28 43 25 34-6 51-15 173-97l96-65 1-57c0-82 45-158 113-194 36-19 180-19 216 0 67 35 113 113 114 191 0 29 3 57 7 62 3 4 56 41 116 81 86 56 119 72 147 72 27 0 38-5 43-19 10-31 90-99 131-110 148-41 294 65 294 213 0 84-78 195-151 213-33 9-33 9-50 108-10 55-18 114-19 130-1 48-21 77-65 92-161 54-268 178-298 348l-12 70-361 3c-271 2-363-1-372-10m594-159c9-15 32-159 47-288 10-97 10-104-8-117-10-8-43-14-72-14-75 0-109-20-124-73-16-55-36-77-70-77-30 0-69 40-69 71 0 51-42 79-120 79-74 0-90 11-90 65 0 48 45 340 55 356 9 14 442 12 451-2m-911-759c23-25 15-59-18-84-26-19-30-19-55-5-22 12-27 22-27 54 0 31 5 42 23 51 28 14 55 8 77-16m1471-6c19-28 11-59-21-80-47-31-109 21-86 72 21 46 79 51 107 8m-744-281c36-32 11-103-36-103-34 0-66 28-66 57 0 55 62 83 102 46"/></svg>