<svg xmlns="http://www.w3.org/2000/svg" viewBox="0 0 550 960" width="550" height="960"><path d="M261.341,947.277l-12.523,-12.723l-1.44,-17.302c-2.113,-25.389 -4.093,-28.195 -5.831,-8.268l-1.486,17.039l-18.591,-18.591l-2.408,-22.062c-2.495,-22.853 -3.047,-22.661 -6.229,2.167l-1.279,9.98l-17.764,-17.924l-2.547,-22.391c-2.238,-19.671 -2.731,-21.402 -4.061,-14.249c-0.832,4.478 -1.567,12.036 -1.63,16.793c-0.063,4.757 -0.847,8.651 -1.74,8.651c-0.893,0 -5.031,-3.49 -9.197,-7.757c-6.42,-6.575 -8.472,-11.105 -13.467,-29.721l-5.892,-21.964l10.687,-16.589c14.129,-21.932 16.7,-26.766 13.079,-24.591c-1.511,0.907 -15.503,9.786 -31.095,19.73l-28.347,18.081l-101.253,-101.253l7.257,-15.281c10.413,-21.926 18.03,-61.461 16.785,-87.123l-0.928,-19.144l-41.246,-40.702v-68.939l10.498,-20.437c17.34,-33.757 42.142,-64.502 70.319,-87.17c82.036,-65.994 189.944,-85.559 290.439,-52.659c74.717,24.461 133.934,73.791 167.856,139.829l10.498,20.437v68.939l-41.246,40.702l-0.928,19.144c-1.244,25.662 6.373,65.197 16.785,87.123l7.257,15.281l-101.253,101.253l-28.347,-18.081c-15.591,-9.944 -29.584,-18.822 -31.095,-19.73c-3.622,-2.174 -1.05,2.66 13.079,24.591l10.687,16.589l-5.892,21.964c-4.994,18.616 -7.046,23.146 -13.467,29.721c-4.166,4.267 -8.304,7.757 -9.197,7.757c-0.893,0 -1.675,-3.893 -1.74,-8.651c-0.062,-4.758 -0.799,-12.315 -1.63,-16.793c-1.329,-7.153 -1.822,-5.422 -4.061,14.249l-2.547,22.391l-17.764,17.924l-1.279,-9.98c-3.181,-24.825 -3.733,-25.023 -6.222,-2.229l-2.402,21.999l-17.92,18.291l-1.376,-8.753c-0.757,-4.815 -1.522,-12.876 -1.702,-17.914c-0.472,-13.277 -3.035,-3.684 -4.9,18.348l-1.463,17.275l-12.523,12.723c-6.888,6.997 -13.034,12.723 -13.658,12.723c-0.624,0 -6.771,-5.725 -13.658,-12.723zM272.001,779.886c0.794,-9.536 2.144,-17.339 2.998,-17.339c0.854,0 2.204,7.803 2.998,17.339c0.794,9.536 2.047,19.57 2.785,22.297l1.341,4.958l8.142,-3.709c16.941,-7.716 22.787,-20.111 17.846,-37.833c-3.506,-12.576 -30.565,-68.192 -33.178,-68.192c-2.695,0 -27.789,51.429 -32.466,66.538c-5.96,19.254 -0.689,31.31 17.264,39.487l8.142,3.709l1.341,-4.958c0.738,-2.727 1.991,-12.761 2.785,-22.297zM222.074,693.725c12.942,-5.074 18.328,-9.665 31.655,-26.984c10.702,-13.909 9.649,-14.418 -9.704,-4.691c-5.281,2.654 -10.628,4.825 -11.884,4.825c-1.256,0 -33.321,-15.114 -71.256,-33.587c-37.935,-18.473 -69.954,-33.587 -71.152,-33.587c-1.198,0 -4.888,5.725 -8.198,12.723c-4.951,10.466 -6.019,15.352 -6.021,27.546c-0.001,8.632 1.285,17.902 3.079,22.195c1.694,4.055 2.839,7.592 2.544,7.86c-0.295,0.268 -6.948,2.311 -14.784,4.539c-7.93,2.255 -12.895,4.557 -11.196,5.192c2.561,0.957 73.359,15.525 89.566,18.429c2.799,0.502 18.829,0.691 35.623,0.42c25.683,-0.413 32.313,-1.189 41.73,-4.881zM451.079,689.344c22.391,-4.67 42.086,-8.981 43.765,-9.58c1.679,-0.599 -3.359,-2.988 -11.196,-5.308c-7.837,-2.32 -14.437,-4.323 -14.666,-4.451c-0.229,-0.128 0.876,-3.862 2.455,-8.297c1.58,-4.435 2.912,-14.477 2.96,-22.313c0.069,-11.676 -0.999,-16.547 -5.931,-26.972c-3.31,-6.997 -7.055,-12.723 -8.32,-12.723c-1.265,0 -33.339,15.114 -71.274,33.587c-37.935,18.473 -69.946,33.587 -71.134,33.587c-1.188,0 -6.481,-2.171 -11.762,-4.825c-19.356,-9.727 -20.407,-9.217 -9.694,4.705c12.73,16.544 16.729,20.219 27.104,24.912c14.148,6.4 24.242,7.63 56.448,6.879c26.237,-0.611 36.262,-1.907 71.245,-9.202zM394.081,532.525c59.896,-7.837 110.251,-14.249 111.9,-14.249c1.895,0 4.238,-4.269 6.37,-11.603c4.316,-14.848 2.924,-38.03 -3.213,-53.493c-19.372,-48.811 -82.471,-89.724 -167.941,-108.894c-13.15,-2.949 -24.268,-5.003 -24.707,-4.565c-0.439,0.438 9.737,19.003 22.612,41.256c16.481,28.485 22.658,40.871 20.873,41.855c-1.394,0.768 -16.733,5.293 -34.087,10.056c-17.354,4.763 -32.29,9.303 -33.192,10.09c-0.903,0.787 13.125,15.499 31.172,32.692l32.812,31.261l-39.314,19.813c-21.622,10.897 -37.711,19.862 -35.752,19.922c1.959,0.06 52.569,-6.304 112.465,-14.14zM107.197,288.498c-1.603,-10.25 -25.579,-223.498 -25.579,-227.505c0,-1.792 29.854,32.678 66.341,76.601c36.487,43.923 67.041,79.072 67.895,78.111c0.854,-0.962 11.916,-33.758 24.581,-72.88c21.253,-65.648 22.749,-71.297 19.415,-73.282c-9.189,-5.469 -14.152,-10.613 -17.632,-18.275c-4.963,-10.927 -4.825,-20.29 0.457,-31.204c12.951,-26.753 51.695,-26.753 64.645,0c9.136,18.872 2.597,37.711 -17.174,49.478c-3.335,1.985 -1.837,7.633 19.415,73.282c12.666,39.122 23.731,71.922 24.591,72.889c0.86,0.967 31.412,-34.177 67.895,-78.099c36.483,-43.922 66.333,-78.21 66.333,-76.196c0,4.267 -23.871,216.089 -25.604,227.202l-1.168,7.49l-16.639,-7.125c-78.059,-33.427 -173.69,-39.306 -255.7,-15.718c-9.583,2.756 -27.21,8.968 -39.172,13.806l-21.748,8.794z" /></svg>