<svg xmlns="http://www.w3.org/2000/svg" viewBox="0 0 564 1024" width="564" height="1024"><path d="M416.022,428.702c2.522,-18.005 1.663,-38.827 1.494,-56.832c0,-19.669 -12.672,-34.346 -19.328,-51.839c-8.021,-20.182 -22.997,-25.856 -36.992,-40.32c-13.354,-13.182 -20.991,-18.516 -39.85,-23.68c-21.162,-6.023 -43.477,-8.66 -66.986,-4.185c-10.837,1.826 -49.835,5.842 -35.328,11.514c-12.331,-1.028 -19.67,2.649 -29.355,8.321c-6.997,4.182 -18.474,8.827 -25.173,13.483c-3.797,2.516 -4.309,7.172 -8.661,9.688c-9.301,5.839 -17.323,6.48 -24.149,15.019c-6.998,9.3 -9.515,22.654 -9.515,33.962c0,17.664 -0.64,36.522 -2.475,52.864c-2.176,20.48 13.653,36.479 18.133,56.832c2.858,13.994 27.519,60.671 49.834,45.482c5.675,18.341 48.171,22.998 65.664,25.344c26.666,3.496 54.186,-0.52 78.165,-10.498c25.515,-10.667 42.197,-16.683 59.52,-37.505c11.99,-13.994 22.657,-27.989 25.003,-47.658zM244.035,127.694c-15.829,3.84 -28.33,44.843 -6.186,48c-0.512,12.893 25.344,12.167 34.987,13.014c19.84,1.663 21.845,-9.006 35.2,-14.848c-1.365,-11.35 1.152,-17.15 4.821,-27.648c-7.85,-3.67 -7.339,-14.337 -15.488,-19.84c-5.846,-4.004 -17.195,-9.168 -24.363,-5.842h0.677c-1.149,0.17 -2.177,0.52 -1.149,1.488c-6.826,-7.639 -24.192,-4.016 -28.501,5.672zM226.841,69.761v1.209l0.508,-0.484c-0.169,-0.363 -0.339,-0.484 -0.508,-0.605zM442.685,399.094c2.176,12.501 9.984,18.346 7.851,32.683c-1.536,10.666 -6.187,21.674 -9.003,32.511c-5.845,23.467 -16.512,33.323 -37.034,46.976c-18.134,12.16 -30.806,26.327 -52.651,36.523c-21.162,9.983 -40.149,15.147 -63.829,18.304c-27.008,3.195 -40.149,-5.515 -64.17,-10.97c1.664,-16.691 -22.997,-8.841 -34.645,-11.865c-9.003,-2.177 -18.517,-7.341 -26.368,-11.816c-18.133,-10.497 -28.33,-19.841 -37.973,-36.822c-16.171,-29.014 -28.331,-53.504 -32.512,-86.87c-2.988,-25.472 -9.516,-61.823 2.687,-84.991c12.971,-24.49 30.165,-40.662 50.816,-54.827c11.349,-7.68 22.997,-12.329 34.517,-19.84c9.813,-6.144 16.128,-14.163 27.477,-19.158c0.981,-7.509 5.333,-12.669 8.149,-20.01c2.859,-8.495 2.69,-9.814 2.859,-19.84c-2.518,0.484 -6.358,-0.847 -8.833,-0.484c-3.499,-12.843 -1.192,-26.027 -1.664,-38.827c-0.171,-7.168 -1.024,-36.522 12.501,-22.528c1.493,-8.661 4.309,-19.496 4.309,-27.648c0.169,-11.179 -5.973,-20.863 0,-31.53c0.351,0.242 0.351,0.363 0.859,0.363c-1.195,-1.669 -1.664,-2.987 -3.328,-4.656c17.322,-1.5 34.645,0.847 52.65,0c11.349,-0.484 29.483,3.326 39.168,0c13.653,12.671 -0.512,47.147 1.664,62.336c14.337,1.492 11.179,48.17 7.339,61.141c-2.005,-0.363 -5.163,0.605 -7.168,0.484c-2.986,32.683 38.187,54.656 62.336,70.016c18.987,12.33 25.814,22.827 37.163,41.642c8.319,13.866 19.498,24.832 27.178,39.85c11.48,22.017 -4.179,36.992 -0.339,59.99z" /> <path d="M6.04,632.976c0.128,-4.294 -2.517,-3.326 -5.845,-5.503c25.002,-8.877 57.983,-2.564 84.01,0.121c42.496,4.185 89.002,-0.121 132.309,-0.121c22.528,0 45.184,1.197 67.498,-0.121c17.835,-1.149 35.67,4.317 52.523,5.164c19.669,0.846 39.338,-3.677 59.818,-2.008c25.813,2.347 52.48,0.847 78.165,-1.838c28.671,-3.326 57.514,-6.483 85.162,-10.498c0,18.687 -7.807,35.328 -6.827,54.997c0.512,8.831 4.011,18.011 5.675,27.989c0.981,6.191 -0.513,11.005 2.645,16c-12.501,-2.48 -27.136,-7.813 -41.173,-5.334c-8.661,1.536 -16.469,6.156 -25.472,7.003c-17.664,1.367 -34.347,-4.995 -50.688,-7.982c-35.498,-6.996 -75.989,7.003 -112.81,5.334c-13.695,-0.677 -27.178,-5.987 -41.002,-5.503c-18.858,0.508 -37.674,5.503 -57.685,5.503c-18.176,-0.17 -35.967,-3.822 -53.802,-4.185c-28.672,-0.472 -56.831,6.471 -85.674,5.503c-29.184,-0.98 -59.52,6.362 -88.021,3.846c-4.992,-15.829 -2.813,-30.975 -1.664,-47.658c0.511,-7.168 -3.327,-16.68 -3.158,-22.655c0,-5.504 7.165,-14.68 6.016,-18.006z" /> <path d="M11.673,919.189c6.528,-4.992 5.162,-2.005 3.029,-1.664c31.318,6.827 68.139,20.651 98.816,32c6.827,2.475 11.819,6.998 18.347,10.155c10.154,4.821 20.138,6.315 31.829,8.32c22.485,4.352 42.325,8.832 63.146,17.835c15.019,6.528 28.331,17.835 45.355,17.835c17.663,-0.17 40.661,-5.504 57.514,-9.813c44.971,-11.989 91.989,-30.677 136.32,-46.165c20.65,-7.168 38.314,-15.019 57.813,-24.192c8.832,-4.138 28.672,-9.813 32.853,1.195c-38.656,17.664 -79.829,35.84 -122.026,47.659c-36.309,10.155 -70.314,23.979 -106.154,34.475c-12.331,3.499 -18.987,7.68 -29.995,13.355c-10.838,5.504 -13.654,3.328 -26.155,3.669c-2.347,-4.01 -24.363,-9.984 -32,-13.525c-10.667,-4.992 -22.187,-7.467 -33.835,-10.795c-29.824,-8.192 -58.837,-17.366 -87.509,-28.331c-24.32,-9.344 -49.493,-13.867 -72.832,-24.363c-11.648,-5.163 -46.848,-8.15 -41.344,-26.155c3.03,-2.176 4.864,-2.176 6.827,-1.493z" /> <path d="M334.355,446.368c12.501,1.323 32.982,-0.341 25.984,-18.859c-5.333,-13.993 -26.154,-10.969 -38.485,-9.131c-0.339,1.657 -1.149,5.467 -1.149,7.124c2.645,0.339 6.144,-0.98 8.661,-2.818l-6.186,8.998c3.158,5.679 8.32,9.174 11.179,14.677zM290.368,420.518c32.981,-14.508 16.811,-61.651 -12.672,-68.992c-17.024,-4.011 -40.491,0.17 -40.491,13.184c-6.87,9.984 -16.854,13.312 -15.531,28.16c0.341,6.485 2.175,15.488 7.509,20.181c11.648,10.486 47.189,13.473 61.184,7.462zM197.184,464.39c12.842,2.817 28.154,-2.858 29.013,-16c-2.859,-4.016 -3.157,-3.338 -4.864,-9.18c-8.149,-2.516 -15.658,-1.016 -23.296,2.818l-3.03,3.024c-16.981,2.304 -10.325,16.811 2.176,19.327zM174.522,339.377c7.339,7.51 2.475,17.837 13.824,21.163c10.325,2.988 14.336,-6.023 23.68,-7.982c0.639,-5.671 0,-11.005 -1.494,-16c-7.509,-2.685 -15.359,-3.314 -22.698,-4.523c0.351,0 0.52,-0.121 0.859,-0.121h-1.494c0.169,0.121 0.472,0.121 0.641,0.121c-5.504,0.338 -10.154,2.685 -13.312,7.341zM329.53,333.36c-8.539,2.518 -9.003,11.689 -7.68,19.2c2.518,0.991 4.652,1.838 7.339,1.959c10.837,20.523 40.832,-14.331 16,-25.131c-1.196,0.472 -1.668,1.101 -2.176,2.31c-5.504,-2.165 -8.662,-0.629 -13.483,1.669zM390.5,366.038c0.17,13.824 -4.652,28.842 -4.821,43.178c0,9.003 2.005,20.142 0,28.971c-5.674,28.031 -27.818,36.864 -50.645,50.688c-27.35,16.516 -41.856,23.809 -76.032,18.645c-22.827,-3.327 -49.152,-8.661 -67.499,-20.991c-20.309,-13.312 -23.979,-34.816 -35.669,-56.32c-5.802,-11.179 -11.304,-17.152 -12.501,-29.994c-0.807,-7.851 -3.499,-20.868 -1.835,-28.161c2.005,-7.851 12.202,-14.338 14.165,-22.357c3.029,-12.331 -4.992,-19.329 4.864,-30.976c5.632,-6.524 18.986,-18.691 28.16,-16.683c-1.195,-9.688 7.509,-14.671 16.981,-19.497c5.163,-10.331 28.331,-11.009 40.021,-13.996c14.976,-3.496 33.152,-3.834 47.488,2.479c10.667,4.693 21.163,15.357 31.659,21.162c11.99,6.528 24.662,11.858 34.347,22.187c12.16,13.013 31.148,34.176 31.317,51.669z" /> <path d="M190.19,11.057c1.154,0.182 1.662,-1.536 1.323,-2.854c-4.65,-1.149 -9.003,-4.825 -11.989,-7.982c10.667,4.947 27.99,0.121 39.979,0.121c18.005,0 35.839,-0.847 53.674,0.121c26.197,1.088 52.693,1.572 79.018,1.209c-4.181,8.32 -11.349,18.002 -17.152,26.154c-4.352,6.187 -11.008,22.021 -16.512,25.686c-8.662,5.83 -27.862,0.847 -38.187,0.363c-17.664,-0.859 -47.659,-7.511 -62.507,1.318c-6.485,-11.349 -19.158,-44.523 -27.648,-44.16z" /> <path d="M397.848,500.676c6.526,5.674 4.522,16.175 6.357,25.173c2.645,13.653 8.491,20.65 14.976,32.98c14.165,27.861 1.834,71.339 20.181,92.672c-22.997,22.996 -42.325,-4.823 -49.024,-26.497c-4.311,-13.994 -3.972,-38.314 -4.48,-54.656c-0.342,-16.981 -2.987,-72.488 -18.987,-74.496z" /> <path d="M275.523,684.696h-5.504c15.19,6.655 21.336,9.984 22.485,25.472c1.195,11.69 -1.958,21.678 -2.986,32.853c-1.493,13.141 4.824,25.813 5.163,39.509c0.512,18.005 -8.662,36.651 -9.472,56.832c-1.707,38.144 10.494,75.477 10.325,113.664c0,12.843 3.669,27.136 1.323,39.509c-1.153,7.297 -5.675,13.657 -7.339,20.309c-4.309,2.177 -9.344,3.701 -13.824,4.185c4.65,-5.845 2.175,-13.008 0.81,-20.011c-1.831,-9.344 -1.662,-13.483 -1.323,-23.509c0.512,-9.471 -3.84,-17.828 -5.504,-27.008c-2.647,-13.994 -1.322,-28.501 -2.986,-42.495c-0.69,-6.827 0.979,-14.16 0.169,-21.163c-0.341,-3.156 -2.687,-8.829 -2.687,-11.308c0.17,-4.35 4.181,-8.825 4.181,-12.671c-0.341,-11.179 -5.675,-19.663 -2.645,-31.189c1.962,-7.168 6.484,-12.669 7.125,-20.651c1.365,-20.01 -1.664,-43.178 -3.499,-63.359c-0.81,-10.325 -0.299,-20.14 -3.968,-30.166c-2.005,-5.794 -0.682,-10.329 -4.181,-7.003z" /> <path d="M83.351,710.674c1.664,-13.304 6.998,-18.982 11.52,-6.821c1.493,4.01 -1.662,18.811 -2.859,22.996c-5.504,21.334 -15.659,44.161 -25.813,64.171c-12.032,23.509 -22.699,42.667 -27.349,68.181c-3.158,18.815 -9.344,35.968 -14.507,54.315c-2.475,8.091 -8.491,21.16 -17.152,7.849c-3.498,-5.675 1.494,-16.857 3.158,-22.699c4.181,-14.977 11.008,-29.994 15.488,-45.312c3.371,-11.69 8.832,-22.36 12.331,-34.176c2.518,-7.979 1.706,-17.661 4.864,-25.172c4.31,-10.326 9.984,-18.307 14.677,-28.672c3.627,-7.979 0.982,-13.991 3.627,-21.163c2.347,-6.826 19.84,-32.175 22.016,-33.493z" /> <path d="M465.516,706.497c18.688,18.176 29.184,43.178 41.515,65.535c10.666,19.499 22.827,38.997 30.165,60.16c9.643,27.989 35.499,62.976 23.808,93.483c-5.632,-0.847 -11.989,-1.838 -17.963,-2.479c-1.536,-17.195 -5.675,-35.371 -13.525,-50.688c-11.819,-23.168 -19.328,-49.152 -31.147,-71.979c-5.163,-10.196 -12.672,-17.536 -19.2,-27.008c-5.973,-9.168 -3.968,-13.994 -6.656,-23.509c-2.005,-7.68 -8.149,-12.33 -11.307,-19.328c-3.499,-6.991 -2.005,-15.188 -4.523,-22.655c-2.176,-0.121 -4.821,-0.484 8.833,-1.536z" /> <path d="M64.707,586.69c23.296,0.605 45.141,-4.015 68.48,-7.003c26.155,-3.326 54.997,-2.008 81.493,-2.685c54.528,-1.488 109.013,-3.495 163.327,-3.967c30.677,-0.363 105.173,-10.837 118.826,21.462c-13.141,5.672 -33.152,5.842 -47.146,7.172c-29.013,2.346 -58.325,1.367 -87.168,1.367c-38.315,-0.121 -75.349,-4.185 -114.005,-4.185c-16.171,0 -189.823,10.667 -187.989,-6.483c2.986,-0.484 9.344,-2.008 4.181,-5.672z" /> <path d="M176.367,703.859c12.842,-4.33 7.808,-4.33 14.165,-3.846c-3.67,19.499 -13.824,38.826 -17.195,58.495c-5.332,32.342 -10.496,62.165 -14.165,95.829c-2.646,22.827 -18.475,40.363 -25.643,61.696c-2.176,6.485 -5.504,41.638 -18.176,37.973c-14.849,-4.65 4.01,-48.166 6.826,-55.338c5.504,-14.805 15.659,-29.142 18.176,-44.971c3.158,-19.84 4.481,-39.168 9.003,-58.667c3.498,-16.512 10.837,-30.678 15.317,-46.507c2.175,-8.362 -0.811,-47.356 11.69,-44.671z" /> <path d="M356.673,706.498c14.848,-4.822 29.696,25.685 34.005,34.175c6.529,12.672 12.502,23.68 17.323,36.992c2.518,6.698 5.334,9.685 7.339,17.365c1.661,6.315 1.364,12.796 2.858,19.158c2.987,15.318 10.326,29.654 13.995,44.843c4.011,17.152 4.992,30.165 14.336,44.672c5.976,9.471 24.491,45.146 6.315,51.967c-18.986,-11.818 -33.322,-49.493 -39.637,-71.167c-4.182,-14.508 -5.206,-29.824 -8.534,-44.502c-3.968,-16.981 -10.837,-33.152 -16.64,-49.322c-3.669,-9.643 -4.864,-15.665 -7.168,-25.643c-2.346,-10.369 -10.666,-17.201 -14.165,-27.179c-2.687,-7.339 -13.525,-28.675 -10.026,-31.36z" /> <path d="M213.528,706.497c27.307,-10.325 16.171,26.834 14.507,34.175c-5.503,22.187 1.492,46.166 1.323,69.334c-0.342,28.501 -11.819,52.352 -17.323,79.359c-4.352,21.163 -11.691,40.15 -15.531,61.995c-1.152,7.168 -3.498,35.328 -15.829,21.973c-7.979,-8.32 5.845,-41.305 8.661,-50.303c6.187,-18.688 11.863,-38.357 12.843,-58.197c1.023,-21.163 -1.153,-42.155 2.687,-62.976c3.157,-15.019 0.81,-93.352 8.661,-95.36z" /> <path d="M306.538,706.506c27.477,9.514 25.813,42.837 31.488,61.524c5.674,18.347 13.654,32.641 13.013,51.67c-0.854,22.485 3.327,46.337 7.125,68.138c3.542,20.523 0.684,44.032 6.87,64c3.797,12.032 16,20.523 12.8,34.006c-0.47,-0.339 -1.967,-2.008 -2.475,-2.129c-4.01,2.31 -4.693,0.303 -7.509,4.826c0,0 -2.981,-1.209 -3.84,-1.209c-0.338,1.016 -0.338,1.886 -0.169,2.854c-2.986,-7.509 -5.972,-22.355 -8.661,-32.853c-5.334,-20.992 -11.179,-45.141 -12.843,-66.986c-2.646,-33.323 -11.99,-64.512 -14.336,-97.664c-0.81,-14.335 -5.973,-26.496 -9.813,-40.832c-2.346,-9.856 0,-45.233 -11.648,-45.354z" /> <path d="M399.681,701.165c20.693,15.018 21.675,27.687 26.496,38.016c10.198,21.674 28.331,38.485 39.339,60.159c14.677,28.672 17.663,60.16 24.192,91.349c3.157,14.975 24.832,29.824 17.493,45.994c-19.84,-0.512 -21.035,-24.831 -29.355,-37.845c-9.344,-14.976 -9.984,-26.155 -15.488,-42.326c-9.984,-29.653 -17.152,-62.506 -34.517,-88.661c-6.827,-10.325 -8.833,-20.991 -13.824,-31.658c-5.162,-11.52 -11.178,-22.015 -14.336,-35.029z" /> <path d="M121.839,707.856c9.003,-5.878 13.184,-5.394 17.664,-6.362c-6.314,4.185 -2.815,6.023 -4.309,11.526c-1.151,4.306 -2.517,8.66 -4.522,13.994c-2.987,7.68 -5.462,16.346 -7.808,23.808c-9.856,31.361 -5.333,69.845 -20.352,100.182c-9.814,20.181 -17.323,38.186 -29.995,57.173c-8.149,11.648 -10.154,18.175 -6.826,32.511c-4.992,-2.007 -11.99,-2.975 -17.835,-2.854c2.816,-10.325 8.491,-26.151 13.995,-36.48c5.163,-9.515 11.691,-16.677 15.659,-26.026c4.694,-10.495 7.168,-21.162 11.52,-31.999c9.173,-22.145 5.162,-45.483 13.141,-67.329c4.01,-11.476 16,-20.991 18.517,-34.303c2.008,-10.368 1.657,-23.167 1.149,-33.834z" /> <path d="M164.502,503.534c1.196,-1.028 1.837,-0.338 2.176,-2.346c-1.317,13.653 -0.171,26.497 -2.176,40.491c-1.963,12.33 -4.137,22.655 -5.334,35.498c-0.812,10.837 -4.657,22.186 -5.334,33.664c-0.469,10.838 5.675,20.697 -4.991,25.003c-0.17,1.838 -0.339,3.507 -0.339,4.995c-8.661,2.165 -19.158,-1.33 -27.648,3.834c3.327,-13.653 0.682,-29.994 4.991,-44.5c3.84,-12.673 7.68,-25.643 10.838,-38.827c6.357,-23.679 -8.491,-64.81 13.013,-82.346z" /></svg>