<svg xmlns="http://www.w3.org/2000/svg" xml:space="preserve" width="37.204" height="32.473"><path d="M22.518 27.264c-1.007 1.01-2.623 1.083-3.5 2.179v.844c.818.258 1.702-.172 2.458.26.199-.46.558-.959.604-1.484.056-.634.963-.967.438-1.799m-7.931.601 1.12 2.466h2.479v-1.254c-.323-.165-.691-.33-1.036-.534-.8-.475-1.764-.688-2.372-1.474-.02-.025-.116.012-.191.022zm9.896-7.933 4.12 2.895 1.559-1.366c.108-1.069-.443-2.022-.254-3.046.032-.172-.05-.364-.085-.576-.32.128-.59.162-.753.314-.764.708-1.682.812-2.656.776-.636-.024-1.272-.005-1.931-.005zm-11.77.236c.01-.136.04-.336.037-.535-.002-.238-.031-.477-.048-.709-1.038 0-1.987.047-2.931-.013-.89-.056-1.535-.796-2.375-1.058-.116.502-.214.932-.33 1.424.73.57-.382 1.246.097 1.799l1.499 1.5c.098-.035.305-.07.473-.172a99 99 0 0 0 2.057-1.27c.48-.3.955-.606 1.52-.966m-.1 5.801L8.595 29.32l-.535.059c.195 1.256.538 1.512 1.57 1.792 1.089.296 2.174.261 3.26.214.673-.028 1.389-.11 1.94-.572-.1-.177-.254-.321-.243-.452.048-.586-.225-1.024-.556-1.46-.117-.153-.13-.382-.243-.542-.388-.562-.186-1.214-.284-1.839-.284-.176-.56-.347-.892-.55m11.075.88c-.02 1.163-.047 1.147-.71 2.293-.191.33-.446.692-.357 1.154.03.154-.121.342-.198.539 1.093.675 2.32.65 3.514.547.996-.086 2.06-.088 2.856-.763l.304-1.101-4.046-3.314h-.726zm2.79-21.19c-.943 0-1.813-.061-2.67.019-.835.077-1.664.281-2.219.899l1.144 1.142c.136 1.136.82 1.962 1.01 3.034.188 1.049.397 2.092.502 3.146l.442.442c.152.577-.26 1.248.388 1.688.965.184 1.7-.166 2.306-1.019l-.302-1.063-1.646-1.102 2.382-1.704c.86-.214.672.842 1.324.997 0-.184.054-.373-.01-.503-.478-.981-.518-2.085-.992-3.093-.708-1.512-.618-1.6-1.596-2.559-.046-.046-.033-.157-.062-.324m-15.72-.002c-.256.638-.914.845-1.12 1.424-.2.565-.424 1.121-.638 1.682-.213.56-.581 1.116-.597 1.682-.016.569-.563 1.086-.224 1.717.517-.33.432-1.288 1.172-1.056l2.456 1.768-1.883 1.175v1.112c.572.724 1.295 1.05 2.147.881.753-.444.276-1.13.504-1.835.075-.054.28-.209.33-.248.143-.872.391-1.577.333-2.257-.067-.779.509-1.276.602-1.987.083-.634.559-1.218.862-1.824l-.096-.052.962-.964v-.534c-1.541-.895-3.158-.652-4.81-.684m8.282 15.404v2.558c.884-.076.82-1.025 1.396-1.358.59-.342.883-1.039 1.459-1.442.544-.38 1.039-.829 1.46-1.172v-1.022H22.1l-.452-1.172c.39-.663.69-1.344 1.139-1.904.67-.834.632-1.775.63-2.734-.487-.357-.146-.884-.297-1.34-.678-.585-.496-1.554-.93-2.316-.451-.793-1.091-1.421-1.534-2.329-.301.163-.537.304-.785.421-.288.135-.584.248-.875.371v9.795l1.736 2.094.328 1.084-.37.415c-.786-.292-.786-.292-1.65.05m11.015 9.209c.959-.744 1.975-1.304 2.677-2.131a16.5 16.5 0 0 0 2.54-3.996c.659-1.483.92-3.036 1.115-4.593.193-1.538-.144-3.063-.457-4.591-.486-2.363-1.642-4.323-3.204-6.075a10.3 10.3 0 0 0-2.004-1.734c-.852-.56-1.786-1.019-2.87-1.239.758 1.637 1.586 3.141 1.872 4.868.103.62.4 1.21.61 1.812.144.843-.076 1.759.373 2.579.283.514.247 1.046.25 1.585.004 1.153 0 2.307 0 3.536 1.183-.317 1.722-1.243 2.482-1.887q.25 0 .512.002l.31.31c-.402.631-.905 1.204-1.16 1.872-.376.974-.562 2.018-.848 3.026-.13.462-.218.974-.486 1.349-.27.375-.507.71-.64 1.173-.187.647-.61 1.228-.78 1.878-.178.673-.632 1.338-.292 2.256m-22.817-.107c0-.465.088-.899-.016-1.277-.28-1.004-.672-1.976-.948-2.98-.071-.258-.095-.515-.323-.643-.556-.31-.565-.927-.695-1.4-.116-.43-.234-.855-.401-1.268-.06-.148-.15-.3-.156-.452-.065-1.333-.648-2.423-1.545-3.37l.366-.369h.503c.735.586 1.205 1.488 2.23 1.78 0-1.189.054-2.314-.02-3.432-.046-.656.155-1.253.327-1.828.094-.313.206-.614.21-.945.008-.476.002-.952.002-1.364.172-.293.338-.53.452-.787.066-.145.04-.328.07-.49.142-.756.402-1.488.62-2.216.325-1.086.918-2.092 1.398-3.132-.077-.023-.172-.088-.228-.063-1.106.495-2.193.964-3.2 1.716-1.45 1.083-2.452 2.452-3.342 3.95C1.37 13.563.976 15.767.806 18.01c-.07.917.093 1.834.197 2.754a12.2 12.2 0 0 0 1.216 4.052c.477.959 1.041 1.947 1.84 2.766.42.43.697.949 1.283 1.272.532.292.865.913 1.472 1.161.11.045.226.08.424.148m8.892-9.124c-.064.663.562.897.94 1.252.354.332.5.901 1.094 1.1v-2.33l-1.41-.185c-.224.059-.418.11-.683.23l.084-.114-.293-.505c.312-.55.394-1.165.922-1.605.464-.387.762-.974 1.118-1.452V7.564l-1.344-.644c-.372.468-.76.86-1.032 1.32-.364.619-.751 1.263-.912 1.945-.106.452-.248.859-.48 1.232-.258.42-.002.87-.223 1.338-.388.818-.12 1.73.279 2.505.4.783.958 1.487 1.393 2.141l-.496 1.271h-1.264v.808c.812.588 1.53 1.107 2.307 1.56m.737 10.107c-1.127.645-2.22 1.046-3.444 1.046-.365-.001-.775-.144-1.073.246-.048.062-.251.024-.378.005-.528-.08-1.053-.18-1.582-.255-.487-.069-.976.09-1.467-.238-.417-.28-.98-.338-1.47-.518-.449-.166-.95-.281-1.32-.561-1.989-1.496-3.763-3.197-4.817-5.51-.786-1.723-1.38-3.498-1.31-5.437.034-.994-.003-1.992.008-2.988.029-2.932 1.12-5.449 2.842-7.794C3.9 7.72 5.251 6.759 6.7 5.879c.942-.572 2.01-.783 3.082-1.046.98-.24 1.933-.218 2.892-.189 1.098.033 2.169.344 3.226.657.038.011.063.059.114.11.66-1.734.685-3.594 1.218-5.411h2.47c.558 1.755.582 3.621 1.222 5.425.222-.053.46-.084.679-.166 1.68-.638 3.452-.847 5.185-.587 1.284.192 2.623.455 3.772 1.221.508.34 1.063.606 1.527 1.019.403.36.892.632 1.257 1.024 1.524 1.627 2.687 3.484 3.327 5.632.293.985.55 1.983.532 3.03-.02 1.257-.01 2.513-.003 3.769.008 1.42-.47 2.714-.907 4.041-.794 2.407-2.462 4.144-4.266 5.757-.958.858-2.183 1.364-3.42 1.754-.55.172-1.104.344-1.71.282-.314-.03-.677-.15-.968.178-.08.093-.328.096-.48.061-1.544-.357-3.225-.123-4.634-1.041-.342-.223-.687-.258-1.067-.255-.952.007-1.905.003-2.881.003"/></svg>