<svg xmlns="http://www.w3.org/2000/svg" xml:space="preserve" width="21.028" height="40.234"><path d="M9.786 32.107c-.05-.043-.074-.076-.106-.087-.019-.007-.072.024-.07.032.006.036.018.09.043.099s.068-.02.133-.044m-6.376-.6c-.053-.034-.082-.062-.116-.07-.02-.004-.068.036-.065.042.013.037.032.088.061.096.024.008.064-.034.12-.067m1.458-7.092c-.018.036-.039.068-.047.103-.001.008.06.044.068.038.028-.024.045-.058.067-.09zM3.9 26.723l.006-.075-.264.023.002.052zm-1.016 2.434c.042-.017.093-.032.092-.037-.007-.037-.024-.072-.038-.107-.025.01-.07.019-.073.034-.004.033.01.07.019.11m11.528-12.07-.026-.08-.216.065.03.087zm-1.228-1.922c-.083-.256-.195-.158-.376-.061zm-6.11 1.187c-.192-.268-.286-.213-.4-.024zm.576 1.83.118-.009-.039-.214-.079.009zm-.452 14.114c.175.101.29.123.424-.035-.149-.082-.26-.11-.424.035m.723-16.137c-.116.164-.185.26-.259.362h.326zm3.57-3.255v.5c.157-.183.193-.284 0-.5M4.635 20.41l.008.124c.117-.004.257.109.39-.152zm10.598.213c-.192-.076-.32-.141-.406.063.136.084.248.108.406-.063m1.523 10.417c-.133.167-.136.167-.115.312.003.015.048.024.115.055zm-11.23-9.417-.333.34c.21-.017.314-.027.447-.039zm-.915 8.853.02.07h.38l-.09-.256c-.123.073-.217.129-.31.186M16.77 31.71c-.178-.142-.35-.135-.583.012.237.092.408.093.583-.012M3.545 33.27l-.357.293.357-.016zm.675-2.85c-.11-.005-.184-.016-.256-.01-.036.005-.07.04-.128.078l.317.363zm9.074-15.483h.428l.274-.31c-.35-.154-.483.154-.702.31m-3.714-4.32c-.243 0-.426-.002-.61.004-.033 0-.066.028-.129.057l.715.345c.01-.15.014-.25.024-.405M5.857 15.8v.37l.503-.046.025-.324zm.841 2.796c.167-.161.418-.253.275-.56-.243-.058-.443-.024-.584.23.103.112.2.214.31.33M18.847 29.49l-1.004.147c-.056.207.126.207.201.253l.733-.114zm1.5-4.398c-.08-.11-.147-.208-.222-.3a.4.4 0 0 0-.138-.114c-.078-.034-.207-.097-.236-.068-.204.202-.579.155-.696.5.43.154.852.194 1.292-.018M2.866 29.783l-1.046.3.013.276c.33.149.496-.234.804-.171.28.059.583.012.864.012l.275-.307c-.054-.033-.083-.065-.103-.061a1 1 0 0 0-.212.076c-.283.15-.283.153-.595-.125m-.738-4.575c.142.168.196.28.282.324.288.143.614.208.863.43.03.027.088.027.132.027.26.003.52.002.801.002.018-.191.068-.34-.069-.427l-.87-.157-.131-.2zM5.78 35.495c.397.057.61.397.986.325.332-.061.7.092.988-.12l-.213-.515H6.406zm-.85-3.647c-.616-.141-1.153.023-1.705.22.005.075.01.161.016.233.057.026.084.048.112.048q1.26.01 2.521.01c.043 0 .086-.054.21-.138-.418-.004-.652-.294-.999-.24-.055.008-.128-.11-.155-.133M2.82 21.5c.07.06.133.103.185.157.21.223.412.43.712.567.215.099.441.101.63.193.306.15.611.188.938.19.148 0 .296.044.453.068l.3-.494-.66.054c-.572-.42-1.15-.596-1.76-.68l-.066-.323-.238-.1-.46.13zm-1.203 7.684.188-.336-.557-.328v-.287l.605-.125c-.241-.196-.415-.39-.63-.497-.183-.091-.183-.216-.214-.386.119 0 .273-.044.32.008.173.196.388.156.599.163.105.003.206-.019.282.107.036.056.163.066.252.078.148.019.307-.022.406.152.024.043.142.042.217.042.375.004.748.002 1.18.002l.165-.342c.036.02-.002-.022-.036-.018-.386.03-.657-.188-.932-.412a5 5 0 0 0-.554-.393c-.05-.03-.144.013-.23.025-.053-.074-.105-.15-.165-.236l-.383-.045-.42-.737-.408-.022c-.365-.417-.365-.417-.188-.804.176.106.346.227.531.31.083.036.225.032.295-.02.168-.12.31-.28.51-.47l.406-.074a4.1 4.1 0 0 0-1.068-.595c.048-.192.321-.28.145-.528-.179-.157-.281.099-.45.16-.127-.204-.057-.343.125-.464-.11-.139-.222-.277-.356-.447.23-.07.381-.094.594.066.196.148.451.226.611.437.304-.02.472.213.685.417.088-.281.09-.486-.126-.66-.106-.084-.174-.212-.279-.296-.21-.165-.364-.36-.405-.634l-.507-.031-.017-.33.568-.118c-.147-.107-.239-.173-.34-.248.09-.357.54-.177.681-.45.293-.014.519-.249.824-.245.284.004.58.05.965-.108-.234-.062-.37-.098-.534-.144.056-.3-.19-.432-.358-.582v-.712c.326-.038.346-.02.855.305.257.164.537.295.837.457l.327-.302-.092-.26c-.03.005-.067 0-.073.012-.098.188-.25.204-.47.156 0-.114.008-.22-.002-.324a.7.7 0 0 0-.064-.264c-.15-.28-.156-.276.04-.531-.139-.148-.326-.036-.419-.067-.18-.206-.324-.373-.468-.54.173-.137.503-.158.705-.028.16.103.315.215.484.295a.36.36 0 0 0 .272-.008c.17-.083.316-.219.49-.288.165-.067.353-.075.533-.11-.085-.175-.165-.34-.29-.591l-.127.258c-.139-.141-.139-.141.046-.51L5.724 17c-.167-.124-.31-.244-.366-.487a.46.46 0 0 0-.373-.352c-.235-.046-.384-.22-.353-.51.366-.147.765.005 1.133-.088.136-.262-.01-.454-.141-.642.033-.108.064-.201.09-.288-.225-.152-.27.114-.462.146l-.436-.04c.008-.114-.019-.247.026-.282.3-.222.091-.384-.057-.557l.023-.376-.015.016c.03.005.079-.001.09.017.286.427.785.586 1.157.907.184.159.442.23.713.361l.1.358h1.073c.008-.244.374-.1.468-.383h-.592c-.189-.105-.296-.184-.417-.23-.372-.14-.753-.254-1.121-.405-.098-.04-.158-.173-.224-.252.002-.053-.008-.092.008-.113.332-.488.326-.463.89-.319.38.096.718.326 1.123.335.063.001.121.087.187.124.117.068.233.079.336-.028-.106-.408-.106-.408-.582-.808 0-.088.004-.195 0-.3-.008-.108-.026-.215-.042-.348-.106-.017-.208-.043-.312-.052-.108-.008-.218-.001-.263-.001-.241.22-.437.4-.615.56-.26.017-.498.086-.649-.163-.116.056-.153.288-.36.103l.068-.232c.66-.331 1.405-.486 1.95-1.08-.35-.003-.7.005-1.047-.012-.328-.016-.668.062-.986-.147.098-.017.195-.041.292-.05.094-.01.187-.003.272-.003.15-.104.287-.202.438-.308l.096-.903c.162.132.297.203.381.313.297.399.683.354 1.1.263.087-.299.01-.64.332-.888-.17-.043-.296-.075-.445-.11l-.047-.471-.303-.094-.252-.374c.204-.06.363-.07.536.064.324.249.667.47 1.048.637.191.084.343.095.522.007-.136-.223-.266-.432-.428-.7-.236-.13-.544-.3-.858-.471l.076-.293c-.15-.184-.316-.383-.442-.536l-.228-.703.27-.019c.112.186.223.368.34.558h.72l.076-.352.152-.032.06.16c.036-.02.072-.04.176-.092l-.249-.055a5 5 0 0 0-.29-.67c-.035-.065-.053-.14-.083-.22.141-.163.273-.283.496-.354.17-.053.277-.296.461-.51l.343-.129-.455-.148c-.068-.166-.31-.293-.228-.605l.516.395c.116-.178.223-.34.325-.5.176-.092.391-.152.528-.29.187-.188.372-.17.666-.134l-.479.54-.37.042c-.009.118-.015.222-.022.326-.104.205-.432.276-.345.61.204.068.393.096.578-.092.102-.104.27-.121.402-.19.338-.172.641-.371.898-.724.042.158.067.258.102.394l-.554.403-.092.239-.273.052c-.228.333-.37.685-.3 1.158l-.556.552c.085.01.223.072.283.028.181-.133.428-.117.581-.23.187-.14.372-.122.575-.155.293-.163.464-.51.846-.639l.118.318c-.15.24-.312.389-.598.35-.026.112-.049.215-.08.343l-.328.07v.507l.86-.242c.18.126.135.286.123.437-.284.24-.62.321-1.023.299.258.318.208.625.187.95-.325.07-.637.11-.932-.125-.188.105-.324.233-.195.53.13 0 .283.02.427-.007.127-.027.239-.131.367-.16.134-.028.28-.006.41-.032.378-.1.664-.42 1.128-.435-.02.108-.006.21-.052.26-.205.225-.428.435-.644.65-.042.04-.082.11-.13.118-.4.07-.584.403-.838.656-.108.11-.112.205-.072.325.408.204.772-.014 1.08-.185.476-.265 1.007-.479 1.323-.95h.34l-.235.733-.532.557.187.213c-.55.16-1.021.388-1.059 1.027-.313.113-.612.221-.958.348.237.161.47.06.59.085.87-.433 1.411-1.141 2.08-1.698.215.304.216.424.054.708a2.8 2.8 0 0 0-.268.577c-.046.152-.079.33.11.459.06.042.048.192.054.222l-.954.766c-.134.008-.349.018-.585.03l-.053.24.265.286h1.444c.119-.112.247-.238.38-.358.097-.086.159-.197.325-.221.127-.019.242-.17.343-.279.093-.101.161-.225.247-.348l.324.024c.197.306.028.606.037.914l-.339.169a1.8 1.8 0 0 1-.178.76c-.11.22.076.545-.279.74-.085.017-.228.05-.37.08.435.243.91.045 1.391.192-.229.237-.554.036-.729.196-.225.205-.47.115-.705.141-.258.028-.53-.065-.814.118.343.088.622.213.662.629l-.332.257-.436.039c.15.315.105.712.518.817l.087.319c.044.004.08.02.103.008.21-.108.43-.168.672-.16.133.005.753-.221.95-.312.27-.121.496-.288.714-.488.18-.165.413-.276.632-.395.057-.032.146-.005.254-.005l-.244.55q-.159.126-.402.314l.306.273c-.165.035-.29.036-.388.088-.104.055-.182.158-.262.23l-.023.462-.53.148c-.027.324-.17.586-.397.799-.053.05-.11.12-.173.128-.292.039-.404.244-.508.51l.29.211c1.08-.488 2.166-.921 3-1.708h.531c.054.323-.265.168-.36.362v.762l-.389.102c-.073.4-.215.768-.727.818-.12.422-.437.554-.862.548-.082.364-.346.61-.59.872l.376.276c.222-.065.434-.13.708-.21.2-.148.427-.406.712-.51.376-.137.65-.412.991-.582.088-.043.201-.034.333-.051v.499l-.306.106c-.11.178-.01.29.088.447.077.124.034.324.048.544-.21-.063-.346-.316-.552-.116.052.12.106.245.172.392-.132.141-.227.312-.46.339-.17.02-.318.2-.52.005l-.044.283.346.406-.349.375.044.261c.048-.01.083-.005.104-.02.21-.141.436-.264.623-.432.356-.32.714-.644 1.025-1.008.228-.266.548-.324.824-.478.041-.024.115.012.199.024 0 .076.024.153-.004.189-.304.396-.192.845-.18 1.279l.314.348c-.062.182-.12.35-.18.52-.32.098-.648.2-.973.298l-.017.338.01-.012-.536.037c-.022.188-.045.367-.07.57-.18.02-.346.042-.542.065l-.085.316-.339.088v.27c.102.1.33.082.523-.012.76-.362 1.376-.913 1.996-1.522.123.196.077.388.028.574-.061.236-.132.47-.219.775l-.49.513c-.234.36.208.59.093.935-.427.001-.856.13-1.279-.128l-.102.253c.12.043.26.09.398.14l-.1.107q.069.013.136.028c.14.035.294-.03.42.13.06.077.28.094.392.05.331-.125.646-.292.963-.45.03-.015.024-.089.045-.13.012-.023.046-.035.092-.068.126.135.104.288.022.415-.239.365-.495.717-.73 1.053l-.372.05-.336.534h-.953c-.256.413-.66.484-1.093.5.26.195.53.119.79.07.208-.04.407-.125.62-.193l.243.266c.448 0 .908.06 1.343-.2.128-.076.33-.032.528-.046l.036.376-.506.444h-.446l.01.046c-.136.06-.288.097-.402.185-.103.079-.164.212-.248.328-.01.13-.022.268-.034.435-.394.026-.557.374-.82.589l-.352.048c-.094.207 0 .343.154.517-.19.035-.35.082-.51.088-.344.014-.688.004-1.032.008-.12.003-.242.018-.37.027l-.079.31c-.05.02-.076.04-.104.043-.281.028-.579-.061-.832.172-.07.064-.241.019-.365.02-.148.003-.303-.028-.483.1l.395.147.001.079-.487.117-.088.256.38.188-.24.12c-.389-.237-.788-.439-1.078-.83-.05.163-.08.282-.126.393-.016.038-.069.06-.1.082.156.359.47.375.794.37l.033.1-.347.296c-.277-.094-.53-.178-.826-.276l-.383-.731h-.304l-.039.553c-.338.288-.772-.117-1.153.154-.01.062-.039.166-.04.272-.004.374-.007.749.003 1.124.005.27-.023.532.133.8.105.18.057.457.056.69-.001.239.019.464.15.674.131.212.12.44.053.693-.364.115-.735.03-1.138.056-.014-.132-.04-.25-.04-.367q.001-1.64.007-3.278c0-.188.007-.376-.17-.548-.389-.011-.793-.046-1.21.096-.3.1-.643.08-1.053.12l-.554.412.11.124-.315-.022-.2-.324c-.217-.106-.38-.01-.52.152-.121-.193-.235-.373-.344-.55-.165-.016-.304-.031-.504-.052l-.44-.334-.059.314c-.2.096-.333.03-.433-.132-.239-.067-.521.08-.745-.152.165-.192.38-.058.576-.16.32-.311.701-.586 1.236-.544l.146-.323c-.1-.02-.174-.043-.249-.047-.604-.03-1.215.074-1.815-.074-.228.122-.537-.024-.726.218-.134-.048-.272-.148-.4-.137-.412.036-.77-.084-1.138-.303.33-.322.76.012 1.111-.196.09-.206.19-.43.303-.684l-.327-.037-.123.397c-.154-.01-.326.01-.476-.036-.148-.046-.273-.161-.458-.278 0-.3-.31-.428-.543-.628-.272-.074-.592.06-.828-.146.167-.136.335-.273.541-.444-.364-.148-.402-.494-.578-.741-.08-.112-.015-.33-.015-.532.17-.01.32-.017.473-.025.266.264.526.52.76.754.19.078.354.156.524.21.114.037.28.096.35.045.22-.16.566-.17.645-.523l-.337-.074-.096-.347c-.29-.095-.538-.333-.848-.256-.09-.177-.186-.315-.232-.467-.08-.262-.107-.528.196-.73l.438-.024.346-.327-.639-.056zm8.822-25.248c-.365.113-.452-.075-.58-.235l.26-.282.65-.063c-.009.084.009.181-.031.236-.104.145-.234.27-.3.344m-.574-2.46v-.278c.086-.01.159-.021.25-.033.094.085.19.175.314.29l-.07.377zm.362.901c-.016.2.031.376.283.536-.453.054-.51-.25-.683-.424.14-.154.282-.098.412-.1z"/><path d="M9.38 4.865c-.253.128-.45.286-.729.208.183-.328.295-.361.728-.208M6.41 9.674l-.081.43-.312-.443.047-.281zM1.605 29.172l.02.15c-.162.087-.312.083-.506-.04.173-.133.338-.106.498-.1zm13.619 6.113c.119-.1.236-.15.379-.01-.133.153-.257.08-.379.01M10.168 0l.038.292-.102.019q-.028-.148-.058-.294zm9.427 26.186c.046.004.098-.005.132.016.026.016.028.07.04.11-.048-.002-.108.014-.142-.008-.024-.016-.014-.084-.02-.13zM4.808 13.524c-.107.007-.202.004-.104-.215l.089.231zm5.43-11.134c.002-.046-.012-.098.007-.133.016-.027.072-.028.11-.041 0 .05.017.106-.003.145-.01.021-.082.012-.126.016z"/></svg>