<svg xmlns="http://www.w3.org/2000/svg" viewBox="0 0 856 864" width="856" height="864"><path d="M318.109,412.295c4.645,1.11 9.433,3.845 11.411,4.356c3.235,1.01 6.438,1.551 9.684,2.265c5.902,1.019 10.974,1.324 16.882,1.019c3.234,-0.143 8.316,-1.266 10.112,1.112c3.795,4.788 0.509,11.408 0.408,16.45c-0.103,7.451 1.122,14.796 0.714,22.102c-0.135,1.692 -0.54,3.203 -1.154,4.897c-0.971,2.95 -2.776,5.225 -3.49,8.174c-1.56,4.932 -1.051,10.552 -1.255,15.622c-0.409,5.903 -0.817,11.946 -0.817,17.854c0,3.205 -0.305,6.879 0,10.112c0.236,2.519 1.255,4.929 1.255,7.448c0.428,4.641 -0.694,7.018 -2.091,11.374c-4.97,12.813 2.05,26.457 -0.614,39.667c-2.521,11.518 -1.112,24.727 -1.112,36.679c0,5.904 -1.255,11.407 -1.255,17.458v11.52c0,7.883 -0.101,15.766 0,23.613c0.206,4.506 1.623,9.718 0.511,14.219c-0.541,2.093 -1.683,3.785 -2.091,5.908c-1.733,5.904 -1.019,12.091 -1.019,17.999c0,8.026 1.255,15.726 1.255,23.9c0,6.334 1.296,12.53 1.296,18.825c0.236,5.508 1.56,10.543 1.255,15.91c0,7.451 -0.429,14.473 1.694,21.38c1.398,4.752 1.255,9.249 3.092,13.75c2.091,5.219 0.408,8.995 0,14.362c0,2.092 1.12,4.94 0.101,6.878c-1.268,2.142 -2.664,1.532 -5.042,1.837c-3.96,0.145 -7.165,2.153 -11.266,2.664c-7.018,1.306 -14.185,0.145 -21.092,2.123c-2.378,0.531 -3.642,1.532 -4.356,-1.019c-0.969,-3.054 1.409,-7.555 1.409,-10.942c0.101,-4.64 0.406,-9.577 0.101,-14.506c-0.142,-3.201 -1.989,-5.906 -2.806,-8.998c-1.396,-4.895 -2.619,-10.26 -3.233,-15.586c-0.641,-6.91 0,-13.927 -1.255,-20.805c-0.531,-3.525 -2.264,-7.881 -1.55,-11.554c1.55,-7.451 3.101,-15.049 4.356,-22.497c1.009,-5.905 4.337,-10.798 4.642,-16.595c0,-5.76 -1.255,-11.38 -1.255,-17.134c-0.287,-4.209 -1.694,-8.024 -2.806,-12.238c-1.88,-7.595 -1.266,-15.185 -1.266,-23.073v-19.112c0,-14.759 -0.991,-30.236 0.305,-44.995c1.427,-17.421 1.019,-34.986 1.019,-52.444v-39.63c0,-6.622 0.305,-13.498 0,-19.977c0,-2.664 -0.203,-4.501 -0.817,-7.02c-1.112,-4.932 -0.704,-10.696 -1.112,-15.766c-0.541,-5.76 -0.847,-11.664 -1.255,-17.134c-0.287,-7.739 -1.399,-13.787 2.519,-20.409z" /> <path d="M497.839,844.05c-1.296,-0.396 -2.703,-0.836 -3.815,-1.55c2.806,0.582 6.764,2.418 8.714,4.356c3.674,4.106 -1.947,10.688 -6.192,12.238c-1.95,0.714 -4.501,0.714 -6.592,1.019c-12.525,0.511 -24.907,-0.508 -37.253,0.511c-13.245,0.817 -26.312,-0.438 -39.522,0.817c-14.075,1.225 -28.545,0.408 -42.727,0.408c-17.168,-0.236 -34.051,-0.95 -51.041,-1.255c-10.547,-0.236 -20.841,-1.255 -31.388,-1.255c-10.114,0.141 -19.938,0.866 -29.948,1.978c-19.402,2.245 -38.226,1.938 -57.628,1.837c-7.883,0 -20.806,3.1 -28.112,-2.551c-2.275,-1.69 -5.365,-7.996 -3.387,-10.547c1.263,-1.734 4.937,-1.427 6.733,-1.938c9.573,-2.406 18.431,-6.335 27.859,-9.284c2.377,-0.714 4.928,-1.397 7.306,-2.551c3.377,-1.655 6.479,-3.645 9.969,-5.042c10.836,-5.213 23.072,-7.008 35.024,-6.907c4.36,0 7.88,-0.498 11.951,-1.112c3.241,-0.306 7.017,0.408 10.547,0.408c2.96,0.103 5.765,0.103 8.714,0.408c3.092,0 5.367,1.001 8.316,1.409c3.926,0.54 7.6,-0.54 11.374,-1.154c5.616,-0.686 11.237,-0.686 16.45,-3.205c13.067,-6.325 31.208,-2.959 45.138,-2.551c7.307,0.206 14.761,0.513 22.209,0.614c8.028,0.203 15.914,-0.715 24.046,-0.614c14.469,0.438 26.996,3.674 40.206,9.866c11.952,5.469 24.765,8.856 37.003,13.498c1.95,0.979 4.357,1.215 6.051,2.234z" /> <path d="M720.122,114.93c0.715,-1.296 2.907,-6.051 2.806,-7.347c-0.54,-1.826 -3.776,-1.826 -5.326,-2.234c-4.068,-1.56 -8.169,-1.255 -12.67,-1.255c-6.445,-0.287 -12.632,1.58 -18.97,2.091c-8.856,1.183 -18.139,1.694 -26.853,1.694h-18.286c-7.882,0 -15.439,-1.56 -23.613,-1.255c-6.623,0.145 -12.386,-2.214 -18.825,-2.519c-8.889,-0.541 -17.598,-1.154 -26.455,-1.255c-8.856,-0.277 -17.71,-1.296 -26.853,-1.296c-5.904,0 -11.124,0.103 -17.135,0.817c-11.554,1.328 -23.505,-0.601 -35.167,0.511c-17.71,1.683 -34.734,5.215 -51.761,9.571c-16.305,4.358 -33.293,6.766 -49.889,6.766h-59.643c-21.489,-0.203 -43.014,2.489 -64.503,0.511c-12.67,-1.125 -25.339,0 -37.831,-0.511c-8.172,-0.427 -16.302,-2.856 -24.476,-3.673c-8.423,-0.795 -17.033,-1.714 -25.45,-1.409c-6.624,0 -12.923,-1.409 -19.402,-1.409c-6.624,0.093 -12.675,0 -18.97,-1.019c-9.718,-1.356 -20.124,-0.101 -29.695,-0.101h-18.681c-2.265,0 -5.214,0.511 -7.448,0c-1.552,-0.438 -2.664,-1.142 -4.501,-1.55c-2.665,-0.306 -5.51,0 -8.316,-0.714c-4.896,-0.969 -8.712,-3.917 -13.498,-5.611c-3.497,-1.324 -6.732,-1.019 -10.547,-1.019c-3.102,0 -3.643,0.112 -6.051,1.55c-1.655,0.969 -4.634,2.519 -5.042,4.897c-0.868,4.783 8.416,6.091 4.642,6.192c7.452,5.902 12.489,14.074 18.681,21.38c5.507,6.19 8.712,14.464 15.191,19.688c3.674,3.09 8.02,5.183 11.806,8.132c4.101,3.092 6.908,7.06 10.979,10.152c3.092,2.234 6.62,3.205 9.825,5.183c4.106,2.519 7.596,5.611 12.238,7.448c14.36,6.048 25.448,17.025 37.542,26.564c5.761,4.64 11.525,9.282 16.595,14.506c3.1,3.382 5.621,7.169 8.57,10.402c3.821,4.069 8.32,7.16 12.238,11.231c5.506,5.22 11.409,10.258 17.601,14.759c7.558,5.651 13.604,12.384 19.401,19.69c3.782,5.073 8.281,8.023 13.21,11.951c7.739,6.336 16.308,12.24 23.47,19.402c7.163,7.342 13.493,14.501 18.717,23.215c1.551,2.665 2.806,6.338 4.897,8.857c1.296,1.409 2.705,2.519 3.96,3.928c6.192,7.595 11.516,15.766 18.394,22.928c3.242,3.236 7.058,4.501 10.548,6.766c2.692,1.804 4.488,5.039 7.193,6.733c1.265,1.02 2.816,1.123 4.071,1.837c0.979,0.827 0.979,1.95 2.234,2.664c2.274,1.53 5.225,1.019 7.744,1.019c5.364,0 13.208,-4.101 16.595,-8.602c2.408,-3.38 4.928,-7.166 7.734,-10.258c1.695,-1.836 3.817,-2.662 6.051,-3.774c4.641,-2.956 8.169,-7.455 12.67,-10.547c1.939,-1.296 4.345,-2.418 6.295,-3.815c3.103,-2.378 5.511,-5.47 8.857,-7.448c6.911,-4.358 13.099,-9 19.437,-13.929c4.894,-3.78 8.281,-9.105 13.21,-12.778c2.081,-1.408 4.06,-1.98 5.754,-4.214c1.693,-1.98 2.368,-4.499 3.387,-7.05c0.971,-1.939 1.653,-4.499 2.949,-6.295c1.695,-1.98 4.9,-4.357 6.878,-6.051c4.217,-3.815 9.429,-5.908 13.93,-8.857c12.489,-7.737 24.727,-14.902 36.389,-23.9c3.379,-2.703 6.325,-5.938 9.571,-8.998c3.1,-2.551 6.774,-4.245 9.866,-6.479c5.039,-4.064 7.703,-9.429 12.059,-13.93c10.296,-10.69 21.958,-20.812 34.196,-29.229c5.76,-3.81 10.258,-8.311 16.45,-11.698c7.991,-4.359 15.588,-9.104 24.046,-12.491c7.308,-3.092 13.641,-7.734 20.374,-11.662c9.142,-5.217 18.86,-9.86 28.399,-14.074c8.172,-3.668 16.307,-7.596 23.613,-12.525c1.837,-0.981 3.092,-1.95 4.388,-3.246c1.255,-1.255 2.224,-2.521 3.633,-3.633c3.816,-2.806 7.307,-6.049 11.122,-8.998c3.238,-2.519 7.166,-6.192 10.258,-8.998c1.693,-1.542 3.928,-3.532 5.183,-5.47zM756.519,94.937c0.723,3.499 -0.573,5.183 -2.664,7.744c-6.336,7.45 -12.956,14.903 -19.834,22.209c-11.122,11.662 -22.208,23.614 -34.446,34.304c-9.142,7.596 -18.143,14.323 -28.112,20.661c-10.548,6.48 -19.977,13.935 -29.661,21.526c-8.027,6.191 -16.445,11.083 -22.496,19.257c-5.363,7.594 -13.247,14.223 -20.409,19.977c-3.486,2.949 -7.016,6.041 -11.23,7.591c-2.41,0.971 -4.247,1.54 -6.338,2.949c-5.218,3.092 -9.973,6.297 -14.902,10.112c-4.072,3.246 -9.142,5.327 -13.356,8.857c-1.982,1.836 -3.819,2.519 -6.338,3.673c-4.497,2.092 -8.312,5.908 -12.526,8.714c-7.849,5.181 -16.455,9.682 -24.046,15.333c-11.949,8.71 -21.236,19.542 -32.178,28.939c-6.192,5.507 -11.659,11.801 -17.026,17.709c-10.547,11.841 -23.757,22.102 -35.851,32.071c-14.075,11.662 -27.284,24.045 -41.61,35.707c-3.528,2.807 -7.315,5.366 -10.548,8.458c-2.132,1.95 -3.246,4.501 -5.224,6.592c-5.039,4.784 -16.99,2.705 -23.469,2.806c-3.53,0.295 -6.479,-0.203 -9.825,-0.817c-3.962,-0.614 -8.023,0 -12.094,0c-5.36,0 -6.769,-2.805 -10.402,-6.192c-2.561,-2.519 -3.816,-3.784 -5.51,-6.733c-3.49,-5.509 -10.404,-10.292 -15.333,-14.793c-7.019,-6.73 -14.183,-13.352 -21.489,-20.085c-9.574,-9 -16.59,-19.542 -25.16,-29.408c-3.82,-4.212 -7.881,-8.569 -11.554,-13.355c-3.928,-4.901 -7.306,-10.258 -11.662,-14.614c-9.574,-9.431 -19.258,-17.998 -30.38,-25.304c-9.143,-6.192 -16.883,-12.918 -24.045,-20.806c-7.307,-8.025 -12.351,-17.458 -20.085,-24.62c-9.576,-9.287 -16.306,-22.352 -27.717,-29.372c-9.539,-5.757 -17.857,-13.096 -27.285,-19.004c-5.474,-3.632 -10.401,-7.845 -14.902,-12.346c-2.377,-2.124 -5.183,-4.501 -7.847,-6.338c-3.815,-2.806 -6.764,-6.195 -10.294,-9.428c-5.902,-5.903 -12.63,-10.695 -17.854,-16.99c-4.206,-5.222 -7.024,-11.263 -12.094,-15.334c-2.949,-2.562 -4.745,-5.765 -7.591,-8.316c-3.777,-3.781 -8.564,-6.046 -11.951,-10.547c-4.06,-5.039 -2.948,-11.375 -5.754,-16.845c-1.112,-1.98 -2.541,-3.244 -2.949,-5.367c-0.541,-3.09 1.104,-4.927 1.409,-7.591c0,-0.541 0,-0.95 0.305,-1.255c0.979,-3.706 3.928,-3.806 8.029,-3.092c3.347,0.815 5.327,1.019 8.714,1.019c15.587,-0.305 31.208,-0.714 46.686,-1.019c16.881,-0.438 33.726,-0.95 50.608,-1.255c15.874,-0.409 31.783,0.61 47.657,0.305c11.952,-0.1 24.189,-1.019 36.14,-0.714c16.739,0.581 33.618,2.805 50.213,4.214c33.295,3.09 66.34,2.692 99.815,1.978c38.406,-1.11 76.921,-1.836 115.291,-3.774c11.951,-0.428 23.902,-1.161 35.6,-1.978c12.633,-1.55 25.159,-2.947 37.794,-4.356c15.477,-0.847 30.811,-0.847 46.253,-1.255c31.243,-1.01 62.739,0.684 94.091,1.796c16.451,0.724 32.755,1.337 49.205,1.438c3.092,0 6.622,-0.203 9.571,0.511c4.072,0.723 7.705,3.082 11.806,3.387c3.491,0.428 6.061,-1.264 6.878,3.092z" /> <path d="M422.76,184.851c-0.337,0.101 -0.746,0 -1.154,0c-1.397,-1.55 -2.947,-3.092 1.154,0z" /> <path d="M439.093,269.34c0.612,-3.351 0,-7.311 0.101,-10.657c0,-3.956 0.255,-7.201 -1.255,-10.834c-1.837,-4.357 -2.56,-8.314 -3.815,-12.815c-2.123,-7.848 -6.879,-16.99 -13.929,-21.346c-5.036,-3.122 -11.988,-7.448 -11.374,-3.53c-6.875,-4.212 -13.501,-9.823 -20.949,-13.21c-4.495,-2.121 -9.575,-3.53 -14.361,-5.367c-6.732,-2.673 -14.618,-5.04 -22.066,-3.928c-5.904,0.826 -11.812,2.949 -17.566,4.786c-5.362,1.695 -9.72,4.9 -15.046,6.878c-3.817,1.55 -6.623,2.52 -9.969,5.51c-3.956,3.205 -8.029,6.154 -11.844,9.684c-3.633,3.388 -6.438,7.449 -9.825,10.979c-5.614,5.903 -10.684,14.178 -13.93,22.066c-3.233,7.737 -2.519,18.433 -2.519,26.708c0.141,3.955 0.581,6.914 2.519,10.547c2.122,3.675 3.389,7.879 5.908,11.266c2.266,3.346 6.622,4.642 9.428,7.591c4.358,4.5 4.928,10.798 8.714,15.299c2.95,3.528 7.736,6.334 11.266,8.998c3.38,2.838 5.902,4.112 10.258,4.929c3.532,0.968 5.756,2.418 9.143,3.673c5.184,1.805 11.083,1.95 16.45,3.928c3.377,1.254 6.336,3.101 9.969,3.815c5.076,0.693 10.697,1.102 15.91,1.51c6.733,0.284 10.937,-1.655 16.845,-5.042c5.903,-3.524 11.954,-6.33 16.055,-12.238c5.761,-8.171 10.688,-17.022 15.73,-25.592c4.502,-7.883 9.288,-15.049 13.93,-22.497c2.377,-3.233 5.08,-6.876 6.192,-11.121zM459.286,253.925c1.264,10.834 -3.122,20.949 -3.633,31.64c-0.43,7.161 -3.246,13.065 -6.338,19.544c-3.52,7.596 -5.611,15.295 -10.112,22.642c-4.357,7.024 -10.841,11.228 -16.595,16.595c-2.266,2.224 -3.816,4.499 -6.622,6.152c-2.092,1.407 -4.784,1.98 -7.162,3.53c-9.287,5.217 -18.862,11.124 -29.121,14.614c-4.5,1.409 -9.827,1.509 -14.469,2.123c-4.793,0.573 -8.17,0.428 -12.384,-1.55c-4.896,-2.523 -10.403,-4.215 -15.586,-6.338c-2.805,-1.552 -5.897,-3.357 -9.143,-4.071c-3.092,-0.695 -6.192,-0.695 -9.284,-1.409c-10.977,-2.413 -18.429,-12.531 -28.976,-15.623c-2.377,-0.682 -4.069,-0.682 -6.192,-2.519c-1.937,-1.98 -2.805,-5.072 -4.642,-7.306c-4.212,-5.51 -9.535,-8.172 -15.586,-11.662c-6.907,-3.817 -9.428,-8.026 -12.815,-15.046c-2.508,-5.222 -4.345,-9.723 -5.754,-15.334c-2.941,-10.545 -1.245,-19.687 0.305,-30.666c1.837,-12.095 2.378,-25.161 6.051,-36.823c1.836,-5.902 5.225,-9.717 8.174,-14.759c3.094,-5.073 7.847,-7.881 12.633,-11.411c5.076,-3.926 10.259,-7.884 15.91,-11.374c2.663,-1.55 5.04,-2.418 7.989,-3.673c4.499,-1.691 8.459,-4.642 12.815,-6.733c6.732,-3.673 14.331,-4.787 21.238,-8.174c6.299,-3.386 12.923,-5.038 20.229,-6.192c10.834,-1.409 20.372,0.866 30.919,1.978c8.17,0.837 15.051,3.53 21.958,7.744c4.641,3.097 9.395,7.158 13.355,11.229c1.409,1.692 2.949,3.714 5.183,3.815c0.44,0.438 0.849,0.936 1.154,1.55c1.265,1.94 3.205,2.949 4.755,4.786c1.542,2.224 2.551,4.357 4.388,6.295c2.091,2.267 3.786,4.36 6.051,6.338c1.655,1.256 2.378,3.377 3.633,4.786c1.694,1.978 3.674,3.233 5.224,5.07c2.805,3.094 5.612,7.165 7.306,10.655c2.348,4.644 0.818,10.149 1.837,15.046c0.827,4.782 2.835,9.577 3.346,14.506z" /> <path d="M327,247.348c1.542,0 2.979,0.408 4.388,0.408c0.541,-0.101 0.939,-0.101 1.653,0c1.54,0.601 3.233,1.112 5.07,1.112c1.825,0.103 3.815,0.307 5.611,0.408c3.815,0.828 4.499,2.378 6.907,5.47c1.55,2.549 3.245,5.213 5.183,7.591c1.978,2.265 5.213,3.52 6.907,5.611c2.346,2.954 2.652,8.751 1.938,12.525c-0.827,3.67 -5.47,8.029 -7.989,10.548c-1.982,1.98 -4.215,3.52 -6.338,5.898c-2.265,2.662 -3.929,5.469 -7.162,6.907c-4.211,1.937 -10.404,5.469 -14.505,3.346c-3.205,-1.407 -5.756,-4.653 -9.143,-6.449c-4.755,-2.948 -8.998,-5.223 -11.662,-10.152c-2.521,-4.212 -8.134,-7.304 -10.112,-11.518c-1.274,-3.527 -0.438,-10.982 0.817,-14.074c1.696,-3.784 4.939,-6.305 7.888,-9.254c1.409,-1.694 3.246,-2.848 3.96,-4.786c0.541,-1.947 2.521,-1.947 4.071,-2.561c1.265,-0.398 2.521,-0.807 4.071,-1.112h7.162z" /> <path d="M341.625,167.142c2.091,-0.101 3.346,-1.154 5.326,-1.296c5.367,-0.408 9.571,-1.112 14.759,-2.519c5.51,-1.255 12.525,-3.774 18.141,-2.378c4.214,1.255 7.448,4.071 11.951,4.786c4.214,0.714 8.602,0.101 12.815,0.101c4.642,0 10.402,1.296 14.469,-1.409c7.448,-4.501 11.266,-12.346 15.766,-19.545c6.592,-10.547 13.21,-22.496 13.21,-35.131c-0.101,-4.929 -0.101,-9.428 -0.101,-14.074c0.101,-9.684 5.47,-15.731 11.52,-22.353c2.806,-2.664 4.214,-3.246 8.029,-4.356c6.878,-1.837 13.355,-4.642 20.229,-6.338c5.651,-1.255 11.266,-1.409 16.882,-2.519c6.338,-1.255 12.526,-2.664 19.113,-3.092c9.866,-0.408 15.622,-5.183 23.074,-10.834c4.929,-3.633 7.734,-8.132 11.518,-12.635c3.673,-4.356 9.284,-7.448 13.788,-10.834c3.53,-2.949 5.611,-1.978 9.866,-3.928c5.908,-2.949 11.52,-6.907 18.249,-8.174c5.651,-1.255 10.834,-2.265 16.306,-4.214c7.591,-2.664 15.765,-2.949 23.648,-4.214c4.897,-0.408 9.539,-0.817 14.759,-0.714c4.786,0 9.825,-1.837 14.614,-1.409c3.673,0.101 6.479,3.673 9.969,4.642c5.51,1.694 11.951,-1.019 15.91,4.356c3.092,4.071 5.326,6.878 9.428,10.112c3.092,2.408 2.806,6.338 5.754,9.284c7.162,7.744 17.708,10.834 25.16,18.286c3.673,3.633 8.029,5.183 12.094,8.029c4.929,3.06 3.53,8.417 6.338,12.778c1.694,2.664 4.356,4.214 6.192,6.878c0,1.296 0.714,2.408 1.796,2.949c1.255,0.408 2.561,1.019 3.673,1.55c2.091,1.978 2.806,6.051 4.786,8.316c2.091,2.234 4.071,4.356 6.295,6.051c3.387,2.664 6.622,7.02 10.547,8.714c6.479,2.519 14.219,-0.408 20.841,1.55c4.214,1.112 7.448,1.978 11.806,1.255c4.642,-0.511 8.857,-2.234 13.498,-2.234c7.847,-0.305 14.328,5.042 21.778,6.592c1.112,2.806 -2.519,7.591 -3.918,9.571c-2.561,3.774 -5.224,6.733 -9.866,6.733c-3.918,-0.101 -7.448,-0.511 -10.112,-3.928c-1.978,-2.806 -1.694,-5.47 -5.183,-6.338c-1.837,-0.714 -5.51,0 -7.591,0c-2.551,0.101 -4.245,0.817 -6.622,1.837c-2.378,0.714 -4.501,0.305 -6.878,1.019c-3.96,1.154 -8.174,4.929 -11.698,7.204c-3.49,2.091 -7.306,3.928 -11.374,4.071c-1.019,0 -4.071,0.511 -4.929,-0.101c-0.714,-1.019 0,-3.673 -0.408,-4.786c-3.387,-0.101 -4.101,-3.233 -5.908,-5.611c-2.846,-3.246 -5.651,-5.908 -7.591,-9.724c-1.296,-2.378 -2.265,-4.897 -3.815,-6.878c-1.255,-1.409 -2.519,-1.978 -3.774,-3.387c-4.101,-4.642 -4.929,-11.951 -8.174,-16.99c-4.214,-6.192 -10.402,-9.428 -14.759,-15.333c-5.367,-6.622 -8.998,-12.67 -17.026,-17.026c-4.786,-2.806 -10.402,-4.071 -15.732,-6.592c-3.387,-1.55 -6.479,-3.673 -9.724,-5.51c-2.519,-1.255 -4.786,-3.246 -7.448,-4.501c-5.47,-2.519 -13.355,-1.837 -18.971,-0.408c-3.815,1.154 -7.02,2.846 -11.121,3.53c-3.928,0.714 -7.306,1.409 -11.088,2.664c-4.642,1.409 -9.866,2.265 -14.506,2.949c-9.684,1.837 -18.825,4.501 -28.544,6.479c-17.854,3.673 -30.633,18.141 -44.273,29.37c-3.387,2.949 -6.907,5.938 -10.834,8.602c-2.949,1.938 -6.192,2.519 -9.284,4.214c-7.744,3.774 -15.046,10.112 -22.065,15.192c-6.192,4.356 -12.095,10.258 -17.71,15.586c-6.907,6.479 -15.046,10.834 -22.209,17.026c-4.786,3.928 -6.622,7.448 -7.448,13.788c-1.154,7.877 -1.837,16.595 -4.356,24.187c-4.929,15.731 -18.717,30.343 -14.361,47.945c1.255,5.764 3.233,10.691 3.092,16.737c0,4.071 0.101,8.132 0,12.203c0.714,-5.611 -4.501,-11.662 -6.878,-16.558c-1.409,-3.53 -3.673,-5.651 -5.651,-8.602c-2.091,-3.246 -3.346,-6.581 -6.295,-9.143c-3.092,-2.519 -3.815,-3.774 -5.367,-7.448c-1.55,-3.092 -4.071,-5.47 -5.908,-8.275c-1.694,-2.949 -2.806,-3.815 -5.908,-5.07c-3.774,-1.837 -6.878,-4.786 -10.691,-6.581c-3.633,-1.837 -7.591,-2.705 -11.229,-4.642c-3.387,-1.837 -6.622,-4.356 -10.294,-6.051c-2.519,-1.409 -4.755,-1.409 -7.306,-2.123c-2.519,-0.714 -5.183,-1.978 -7.847,-2.664c-3.53,-0.817 -6.338,-1.019 -9.428,-2.664c-2.408,-1.409 -4.071,-2.265 -6.907,-2.123c-3.205,0 -7.02,1.694 -9.969,2.949c-1.409,0.408 -6.479,4.356 2.123,-6.733z" /> <path d="M415.207,197.483c13.067,-0.251 16.69,11.7 17.709,14.219c1.123,2.234 2.519,4.785 4.356,6.622c1.98,1.797 3.674,2.951 4.929,5.47c1.072,2.376 1.99,6.334 2.091,8.998c0.428,3.633 0.818,6.051 1.837,9.684c1.561,4.499 1.121,10.406 -0.817,14.651c-1.154,2.073 -2.959,3.787 -5.51,2.378c-1.58,-0.968 -1.377,-2.377 -2.091,-3.673c-1.011,-1.651 -1.837,-2.365 -2.949,-3.774c-3.96,-5.328 -5.366,-11.956 -10.152,-17.026c-4.496,-5.035 -12.393,-7.015 -13.21,-14.759c-0.541,-3.387 1.694,-4.071 2.408,-7.02c0.509,-1.552 0.101,-3.817 0.101,-5.367c-0.154,-3.78 0.438,-6.587 1.255,-10.402z" /> <path d="M393.637,194.966h-8.998c-3.774,0 -10.69,-1.255 -14.469,0c-2.408,0.714 -2.265,3.233 -3.815,5.07c-0.408,0.408 -2.378,1.112 -2.949,1.694c-1.837,1.112 -2.949,2.378 -5.042,2.378c-0.101,1.255 -0.101,2.123 -1.154,3.246c-1.255,-2.408 0.408,-5.51 -0.204,-8.029c-1.019,-3.092 -3.092,-1.112 -6.192,-1.978c0,-0.714 -0.305,-1.409 -0.408,-2.091c-4.071,-1.55 -6.338,1.266 -9.969,2.664c-2.265,1.112 -3.815,0.408 -6.338,0.817c-1.837,0.204 -3.092,2.234 -4.501,2.519c-2.551,0.408 -3.96,-3.96 -6.338,-4.786c-0.714,-0.408 -1.694,0.101 -2.378,-0.305c-0.817,-0.101 -1.55,-0.714 -2.123,-0.817c-1.978,-0.714 -3.774,-0.614 -5.611,-1.694c3.928,0.408 10.548,-2.806 14.039,-4.501c4.786,-1.978 8.744,-5.213 13.642,-7.02c3.96,-1.694 8.029,-4.929 12.094,-6.051c3.673,-0.714 8.029,-0.101 11.411,-0.101c8.132,0 16.018,-1.154 23.324,2.519c1.255,0.714 2.949,1.112 4.214,2.265c1.154,0.714 1.837,2.091 3.246,2.664c1.837,0.714 9.969,-1.255 -1.409,11.52z" /></svg>