<svg xmlns="http://www.w3.org/2000/svg" viewBox="0 0 1008 720" width="1008" height="720"><path d="M651.752,713.812c-10.031,5.858 -22.351,6.74 -34.309,5.931c-4.004,-0.258 -7.651,-1.946 -11.655,-2.132c-4.309,-0.256 -7.656,0.051 -11.858,-0.917c-6.387,-1.417 -11.76,-1.109 -17.84,-3.645c-0.3,-2.278 1.064,-6.641 1.722,-8.818c1.419,-4.814 3.65,-9.273 4.665,-14.24c1.064,-4.917 1.312,-9.784 2.836,-14.597c0.906,-2.786 2.076,-5.219 2.633,-8.106c4.308,-23.922 5.931,-47.993 5.931,-72.32v-65.68c0,-17.538 -0.559,-34.513 -2.027,-51.998c-0.407,-4.863 -1.746,-9.575 -2.078,-14.441c-0.367,-5.169 0.595,-10.186 -0.367,-15.358c-1.774,-9.832 -2.079,-19.561 -3.702,-29.345c-1.879,-11.353 -7.503,-21.943 -9.377,-33.497c-1.418,-8.917 -2.227,-17.837 -3.954,-26.708c-2.334,-12.009 -2.482,-23.615 -2.482,-35.882c0,-11.655 0.155,-22.451 1.574,-33.954c0.981,-8.361 -0.201,-16.722 0.908,-25.086c0.755,-6.028 1.822,-11.961 3.088,-17.886c1.879,-9.174 0.411,-19.866 0.411,-29.141c0,-4.562 2.738,-21.134 -1.569,-23.873c-0.099,-0.81 0.201,-1.462 0.809,-1.974c-1.773,-1.468 -7.402,-4.205 -9.68,-4.866c-4.814,-1.43 -10.131,0.447 -15.053,-0.367c-3.291,-0.559 -5.22,-2.483 -8.258,-3.546c-3.146,-1.12 -6.592,-0.715 -9.781,-1.824c-5.879,-2.081 -10.288,-3.446 -16.321,-4.359c-6.586,-1.066 -10.186,-4.46 -12.06,3.803c-1.11,5.067 -0.907,10.436 -1.824,15.503c-0.662,3.703 -1.984,6.387 -2.132,10.341c-0.111,2.381 0.037,4.864 0.037,7.296v13.431c0,3.954 0.608,8.314 0.148,12.212c-0.507,4.258 -2.84,7.554 -3.748,11.655c-2.227,9.936 -2.08,20.273 -3.954,30.209c-1.525,8.158 -0.46,17.38 -0.46,25.692c0,11.808 -0.036,23.664 0.037,35.477c0.253,28.428 -6.84,57.164 -11.453,85.137c-1.979,12.06 -5.22,23.917 -8.667,35.623c-2.029,7 -0.804,13.329 -2.177,20.273c-1.013,5.172 -4.358,9.479 -5.32,14.648c-2.026,10.54 -2.94,21.538 -4.359,32.181c-1.063,8.055 -4.004,15.66 -4.004,23.766c0,7.095 -2.483,13.936 -3.546,20.934c-0.92,6.533 -0.416,13.225 -0.416,19.813c0,32.74 -5.978,64.666 -5.978,97.252c-0.037,5.117 -0.148,10.187 -0.037,15.256c0.038,1.165 0.719,4.863 -0.294,5.876c-1.675,1.601 -9.373,0.332 -11.706,0.332c-9.279,0 -18.653,0.33 -27.928,-0.037c-3.594,-0.101 -6.078,-0.911 -9.525,-1.468c-1.522,-0.254 -5.316,0.1 -6.638,-0.714c-2.986,-1.926 -0.096,-8.006 0.608,-10.948c0.612,-2.43 2.029,-5.825 3.044,-8.612c2.484,-7.094 2.026,-13.886 3.954,-21.035c4.915,-17.886 7.854,-36.282 10.031,-54.783c2.076,-16.922 5.271,-33.694 7.043,-50.574c1.67,-16.065 3.396,-32.129 5.878,-48.092c3.593,-22.756 6.228,-45.764 10.031,-68.517c2.684,-16.065 4.356,-32.435 7.498,-48.398c4.915,-25.338 5.322,-51.136 10.491,-76.374c4.307,-21.285 7.449,-42.415 9.476,-64.007c0.962,-10.383 3.19,-20.575 4.409,-30.909c1.267,-10.646 2.331,-21.693 4.004,-32.231c2.532,-15.66 3.899,-32.078 7.549,-47.334c0.605,-2.685 -1.012,-2.735 1.824,-3.954c1.213,-0.535 4.762,0.073 6.135,0.073c3.345,0.037 6.687,0 9.983,0c5.169,0 11.149,-0.806 16.065,0.46c4.257,1.108 7.295,1.524 11.908,1.524c7.91,0 14.601,1.573 22.2,3.447c10.593,2.642 24.529,0.46 35.679,0.46c3.595,0 8.512,-0.908 12.009,-0.148c5.422,1.163 3.19,3.949 3.848,7.903c0.762,4.761 3.938,8.716 4.157,13.632c0.154,4.005 1.518,5.932 1.978,9.68c0.962,7.758 2.029,15.762 3.903,23.367c0.659,2.838 1.93,4.762 2.078,7.753c0.184,2.331 -0.608,5.065 -0.148,7.398c0.501,2.48 1.716,4.152 2.228,6.688c0.422,2.381 -0.698,5.015 -0.186,7.398c1.618,8.515 3.844,17.13 5.622,25.596c3.348,15.864 3.244,32.585 5.981,48.296c1.28,7.145 -0.353,14.542 0.913,21.789c1.976,11.812 0.856,23.215 1.419,35.123c0.607,12.415 2.33,25.086 4.663,37.298c1.828,9.579 1.454,19.007 1.417,28.687c0,18.548 3.854,36.69 7.043,54.984c3.498,19.766 7.096,39.628 10.491,59.445c1.373,7.953 2.555,17.124 2.482,25.185c-0.15,13.783 1.468,27.112 1.928,40.796c0.404,13.632 4.204,26.859 4.056,40.543c-0.037,9.223 -0.037,18.445 -0.037,27.619c0,7.65 -0.037,15.3 0,22.956c0.049,4.609 -1.421,7.651 -1.978,11.958z" /> <path d="M661.637,134.384c-5.421,-9.596 -4.864,-9.45 -4.307,-9.377c1.32,3.594 1.876,14.494 -2.078,16.772c-3.295,1.877 -6.585,-0.355 -9.578,-1.114c-3.345,-0.879 -6.638,0.19 -9.983,-0.367c-2.637,-0.458 -7.194,-1.671 -8.111,-3.853c-0.961,-2.179 0.148,-7.344 0.148,-9.88c0,-3.35 -0.037,-6.691 -0.037,-10.038c0.054,-5.372 -1.063,-8.717 -2.078,-13.684c-0.959,-4.66 0.258,-10.586 1.119,-15.148c0.824,-4.511 0.052,-9.278 0.861,-13.632c0.787,-4.206 5.043,-9.887 -0.332,-13.178c-4.357,-2.749 -16.012,-0.416 -21.384,-0.416h-33.599c-5.47,0 -10.997,0.223 -16.419,0.037c-6.586,-0.201 -12.418,-2.636 -18.849,-3.497c-14.091,-1.876 -28.078,-1.929 -42.114,-3.903c-16.47,-2.284 -34.61,-0.423 -51.283,-0.46c-7.454,0 -11.807,0.918 -17.485,5.731c-2.988,2.533 -7.247,7.903 -8.111,11.706c-0.424,1.926 0.695,4.104 0.186,6.027c-0.256,1.065 -1.475,1.574 -1.623,2.278c-0.608,2.739 -0.46,5.425 -0.46,8.312c0.055,6.993 0.302,13.227 1.568,20.069c1.065,6.134 0.41,11.909 1.978,17.84c0.914,3.491 1.924,10.999 -1.978,13.227c-3.849,2.237 -14.086,0.416 -18.547,0.416c-5.319,0 -11.656,0.881 -16.772,-0.332c0.404,-3.4 1.524,-7.554 2.228,-10.949c0.301,-1.471 1.329,-2.231 1.623,-4.258c0.295,-1.772 -0.037,-4.1 -0.037,-5.878c0,-7.147 0,-14.293 0,-21.437c0,-7.144 -1.052,-15.255 -0.037,-22.348c0.509,-3.802 2.095,-6.637 2.022,-10.693c-0.045,-3.748 0.461,-6.129 1.727,-9.222c-2.683,-2.183 -4.106,-3.493 -7.194,-4.866c-2.989,-1.318 -6.285,-1.16 -9.022,-2.887c-5.62,-3.498 -3.443,-12.721 -3.443,-18.445c0,-3.755 -0.981,-9.63 -0.073,-13.28c0.407,-1.624 1.817,-2.029 2.228,-3.702c0.293,-1.214 -0.586,-2.835 -0.219,-4.101c1.218,-4.135 4.309,-3.347 7.656,-4.208c1.827,-0.455 1.927,-1.242 4.409,-1.574c1.87,-0.182 4.099,0.037 6.027,0.037c19.309,0.073 38.667,0 57.978,0c22.451,0 45.559,-0.204 67.348,4.307c5.375,1.103 10.037,1.103 15.66,1.47c4.208,0.254 7.858,1.859 12.111,2.078c11.401,0.52 23.006,-0.037 34.464,-0.037c26.705,0 53.415,0 80.123,0c5.674,0 16.318,-0.861 17.886,5.777c0.566,2.482 0,6.236 -0.148,8.818c-0.154,3.191 -1.471,4.005 -2.132,6.688c-0.867,3.594 0.652,8.055 0.148,11.807c-0.407,3.088 -1.667,4.559 -2.078,7.701c-0.608,4.457 -1.167,9.936 -5.879,12.72c-3.983,2.331 -4.204,1.825 -4.056,6.74c0.15,4.155 -1.264,4.356 -2.078,7.701c-1.395,5.375 0.073,13.026 0.073,18.547v20.424c0,3.249 -0.223,6.538 -0.037,9.735c0.153,3.291 2.741,6.54 2.027,9.729z" /> <path d="M621.742,186.816c14.089,0 30.1,-2.228 43.887,0.46c5.32,1.015 10.693,1.978 16.065,2.993c4.056,0.759 7.907,-0.148 11.908,0.367c3.497,0.416 6.385,1.978 10.038,2.078c3.038,0.073 3.898,-0.148 6.382,1.318c3.902,2.278 6.842,8.312 9.022,12.218c2.027,3.696 3.144,7.549 4.971,11.195c1.873,3.702 4.712,6.638 6.993,10.288c3.291,5.218 3.999,7.853 -3.497,7.701c-25.287,-0.46 -50.574,0.073 -75.864,0c-2.683,0 -5.678,-0.367 -8.364,-0.073c-4.157,0.411 -7.397,2.942 -11.655,1.727c-5.017,-1.419 -10.235,-5.067 -11.453,-9.831c-0.608,-2.482 0.073,-4.813 -0.332,-7.352c-0.509,-2.836 -1.978,-4.764 -2.182,-7.753c-0.256,-5.169 0.037,-10.436 4.056,-25.287z" /> <path d="M446.088,173.208c-7.956,16.772 -12.771,28.374 -17.738,38.11c-2.331,4.613 -1.571,11.554 -8.111,12.617c-3.999,0.714 -7.802,-1.817 -11.655,-2.228c-2.788,-0.294 -5.929,0.073 -8.713,0.073c-13.632,0 -28.937,1.78 -42.418,-0.148c-9.88,-1.405 -19.054,-1.772 -29.141,-1.772c-6.538,0 -13.532,0.645 -20.019,0.037c-2.13,-0.206 -5.273,-0.107 -6.842,-1.928c-2.077,-2.435 0.052,-2.181 0.512,-4.409c0.809,-4.106 1.417,-8.06 2.432,-12.217c0.608,-2.532 1.372,-4.308 2.536,-6.79c1.061,-2.229 0.809,-4.506 1.618,-6.638c1.169,-2.988 4.057,-6.28 5.326,-9.324c1.925,-4.51 3.138,-6.789 8.409,-7.397c3.498,-0.453 9.78,-0.796 13.125,-0.037c4.257,1.014 6.841,2.027 11.908,2.027c4.307,0 8.565,0 12.924,0h85.85z" /> <path d="M625.746,258.781h103.686c9.222,0 21.032,-1.874 30.052,0.46c3.702,0.908 5.98,1.568 9.985,1.468c4.153,-0.037 6.182,-0.219 8.562,3.447c1.373,2.078 2.177,4.208 3.803,6.234c2.887,3.645 4.764,3.443 5.573,7.802c1.119,6.135 3.65,12.72 6.234,18.294c1.119,2.333 1.673,4.663 2.683,7.043c1.322,3.144 4.764,5.629 4.866,9.426c-7.753,1.928 -17.735,0.219 -25.744,0.219h-30.052c-26.961,0 -52.857,-2.941 -79.313,-7.296c-3.546,-0.608 -6.891,-0.416 -10.436,-0.46c-3.652,-0.037 -5.629,-1.063 -8.92,-1.772c-5.425,-1.163 -12.066,0.714 -17.081,-2.432c-4.409,-2.784 -4.967,-12.718 -6.385,-17.176c-0.658,-2.078 -2.536,-4.511 -3.038,-6.283c-0.962,-3.497 -0.46,-7.549 5.527,-19.004z" /> <path d="M432.159,256.803c-2.029,20.423 -3.298,26.704 -5.931,33.04c-1.822,4.36 -3.442,10.695 -6.283,14.391c-3.191,4.207 -6.893,3.144 -12.111,3.144c-7.197,0 -14.391,0 -21.536,0h-99.988c-16.476,0 -33.603,1.976 -49.516,-2.383c2.183,-6.233 7.549,-12.109 9.276,-19.007c0.956,-3.695 1.265,-7.042 2.278,-10.738c0.855,-3.143 1.264,-5.678 2.177,-8.716c0.809,-2.686 1.419,-4.969 2.482,-7.753c1.114,-2.791 0.858,-6.998 3.447,-8.871c3.442,-2.534 7.952,-0.096 11.604,0.608c3.647,0.755 6.841,1.057 10.387,1.974c10.238,2.586 21.792,-0.504 31.978,1.928c9.631,2.334 21.086,0.151 30.966,1.417c17.485,2.234 35.68,0.968 53.261,0.968h37.505z" /> <path d="M643.682,342.396c32.892,0 65.83,0 98.724,0c15.249,0 29.998,1.928 45.254,1.928c8.916,0.037 16.926,2.027 25.692,1.974c4.613,-0.037 14.845,-1.928 18.801,0.037c3.549,1.772 2.482,5.724 3.088,8.769c0.46,2.182 1.524,4.056 2.538,6.184c2.941,6.08 4.303,13.376 5.925,20.014c1.47,5.878 4.562,11.098 5.372,17.182c-27.872,5.271 -58.933,2.228 -87.57,2.228h-84.226c-9.377,0 -18.699,0.608 -27.619,-1.524c-3.601,-0.861 -5.116,0.46 -6.082,-3.241c-0.658,-2.633 0.037,-7.043 0.073,-9.834c0.037,-6.33 -2.991,-10.334 -4.101,-16.521c-0.61,-3.546 -0.512,-6.234 -1.419,-9.729c-0.861,-3.142 -0.46,-6.438 5.52,-17.485z" /> <path d="M398.194,342.4c-3.991,16.114 -3.587,18.958 -3.954,21.44c-0.36,2.684 -1.575,3.292 -2.132,5.675c-1.071,4.357 0.742,9.273 -0.367,13.734c-1.875,7.538 -4.41,7.794 -11.858,7.757c-7.856,-0.037 -15.709,0 -23.567,0h-133.486c-9.476,0 -18.955,-0.037 -28.434,0c-3.14,0.049 -6.534,0.497 -9.578,-0.367c2.228,-5.118 4.51,-10.79 5.98,-16.116c1.415,-5.169 3.584,-10.435 3.803,-15.558c0.128,-3.039 -0.354,-5.876 0.46,-8.763c0.352,-1.367 1.362,-2.433 1.618,-3.903c0.326,-1.622 -0.553,-3.399 -0.186,-4.967c1.523,-6.588 13.126,-0.937 18.498,-0.864c13.684,0.367 27.418,-0.037 41.102,0c11.915,0 22.805,1.928 34.618,1.928c35.825,0.037 71.657,0 107.488,0z" /> <path d="M653.667,431.843c51.738,0 103.483,-0.073 155.227,0c11.656,0.037 22.956,-2.022 34.51,-1.923c6.638,0.037 13.28,0 19.868,0c3.949,0 12.617,-1.673 16.065,-0.148c3.392,1.513 1.824,10.942 2.836,14.644c0.759,2.887 1.978,5.931 2.587,8.818c0.658,3.241 -0.148,6.589 0.809,9.782c2.027,6.688 8.162,8.818 11.711,14.338c1.318,2.132 2.022,2.432 1.972,5.07c-0.037,3.898 -0.46,3.493 -4.051,3.898c-6.438,0.714 -13.583,0 -20.069,0h-95.327c-14.644,0 -29.042,0.61 -43.483,-1.513c-11.858,-1.824 -23.867,-2.536 -35.933,-2.383c-4.663,0.037 -7.802,-1.47 -12.263,-2.078c-4.307,-0.563 -9.324,0.073 -13.631,0.073c-2.887,0 -6.033,0.367 -8.871,0.037c-4.866,-0.557 -3.088,-0.661 -4.157,-4.866c-3.142,-12.014 -11.554,-23.417 -7.802,-43.791z" /> <path d="M402.204,433.769v-1.266c0,10.792 0,21.585 0,32.383c0,1.824 0.913,6.283 0.148,7.903c-1.269,2.688 -3.497,1.874 -6.438,1.824c-10.544,-0.186 -21.082,0 -31.623,0c-11.503,0 -23.158,-0.411 -34.665,-0.073c-7.453,0.219 -14.549,1.928 -21.996,2.132c-7.599,0.148 -15.256,-0.073 -22.907,-0.073c-8.567,0 -17.127,0 -25.744,0c-12.267,0 -23.771,-3.549 -35.983,-3.954c-8.414,-0.219 -16.318,-3.392 -24.376,-3.848c-8.511,-0.512 -16.318,-2.027 -24.985,-1.874c-7.247,0.073 -13.734,-2.027 -20.931,-1.974c-4.967,0.037 -14.542,2.228 -11.554,-5.422c0.658,-1.727 3.142,-3.954 4.107,-5.83c1.063,-1.978 1.928,-4.056 2.887,-6.283c1.219,-2.633 2.683,-5.271 4.056,-7.802c1.978,-3.601 1.574,-4.813 2.432,-8.818c0.504,-2.182 1.673,-3.447 2.132,-5.629c0.411,-1.873 -1.17,-6.182 0,-7.802c1.928,-2.587 7.043,-0.658 9.929,-0.148c8.567,1.574 17.182,4.813 25.948,5.116c11.453,0.367 22.144,-0.704 33.497,1.772c11.604,2.582 24.074,3.038 35.933,3.752c10.896,0.608 21.18,0 31.928,1.671c10.389,1.569 21.592,0.411 32.079,0.411c25.389,0 50.729,0 76.122,3.898z" /> <path d="M663.649,521.293h236.466c3.853,0 7.753,-0.148 11.554,-0.037c3.902,0.148 6.74,1.618 10.387,2.078c5.527,0.658 12.622,-1.928 17.031,1.821c3.803,3.197 1.419,10.794 2.432,16.014c1.219,6.283 2.784,13.026 6.033,18.703c1.568,2.784 2.228,4.711 3.493,7.802c1.065,2.432 2.683,3.702 4.005,6.033c1.109,2.027 5.675,11.402 3.702,13.431c-1.164,1.163 -6.789,0.46 -8.414,0.704c-8.567,1.417 -16.982,2.383 -25.692,1.063c-13.941,-2.027 -28.029,-3.038 -41.914,-5.372c-25.34,-4.208 -49.969,-3.347 -75.561,-3.803c-10.133,-0.148 -20.019,-2.379 -29.998,-3.594c-7.701,-0.917 -15.609,-0.367 -23.361,-0.367c-12.72,-0.037 -25.491,0 -38.211,0c-9.983,0 -20.424,1.013 -29.798,-1.524c-7.093,-1.978 -15.558,2.633 -20.627,-3.752c-2.887,-3.594 -2.228,-6.486 -3.447,-10.436c-0.962,-3.093 -2.132,-3.954 -2.078,-7.656c0.073,-6.487 0,-12.971 4.005,-31.113z" /> <path d="M378.224,529.124c-9.174,14.492 -8.364,22.551 -5.472,31.118c1.417,4.258 3.953,12.415 -1.419,13.684c-7.499,1.787 -19.001,-0.037 -26.303,-0.037c-11.705,0 -23.31,0.45 -34.813,-1.524c-8.157,-1.428 -17.127,-0.46 -25.34,-0.46c-13.382,0 -26.809,0 -40.191,0c-15.302,0 -30.203,-0.255 -45.403,-1.524c-13.682,-1.114 -27.414,0.866 -40.845,-2.278c-5.222,-1.214 -10.237,-2.887 -15.609,-3.696c-6.993,-1.036 -14.548,-0.332 -21.641,-0.332c-11.452,0.074 -22.955,0.037 -34.408,0.037c-7.496,0 -14.996,-0.073 -22.449,0c-2.837,0 -6.641,0.861 -8.663,-1.367c1.918,-2.18 0.693,-4.006 1.109,-6.438c0.404,-2.333 1.369,-5.676 2.027,-7.853c1.271,-4.055 3.551,-7.402 5.169,-11.503c1.923,-4.971 1.975,-10.593 2.784,-15.66c0.866,-5.225 3.752,-9.986 4.511,-15.358c4.919,4.105 17.538,1.772 23.518,1.772c14.038,0 28.178,-0.607 42.112,0.962c10.591,1.165 21.03,2.327 31.623,2.836c4.714,0.204 9.576,1.621 14.239,2.482c10.948,2.026 21.544,3.548 32.642,4.409c17.584,1.37 35.322,2.839 52.757,5.375c15.355,2.183 30.558,2.839 45.814,4.866c14.088,1.93 29.087,0.46 43.278,0.46h20.98z" /> <path d="M683.62,624.372c3.493,-0.367 5.931,0.411 9.222,1.417c7.247,2.177 14.694,2.487 22.2,3.65c29.545,4.612 59.091,8.716 89.039,8.567c49.407,-0.186 98.871,0 148.337,0h26.602c4.056,0 12.418,-1.673 16.12,-0.148c3.443,1.468 1.821,8.515 1.821,12.111c0,5.067 -0.557,10.341 0.46,15.358c0.809,4.107 0.759,8.667 1.722,12.617c1.065,4.511 4.307,8.567 6.336,12.471c2.582,4.866 1.419,11.353 1.928,16.723c0.367,3.093 2.432,3.398 -2.278,4.663c-2.887,0.765 -6.385,0.148 -9.324,0.219c-6.184,0.332 -12.317,1.322 -18.547,1.623c-14.598,0.704 -30.512,1.368 -45.107,0c-7.808,-0.704 -14.851,-1.874 -22.703,-1.824c-12.572,0.037 -25.34,0.814 -37.807,-0.416c-12.111,-1.114 -23.766,-1.524 -35.927,-1.419c-11.762,0.037 -23.163,-1.722 -34.869,-2.132c-17.027,-0.608 -34.207,0.61 -51.233,0.219c-6.74,-0.219 -12.977,-1.824 -19.614,-2.132c-6.027,-0.332 -12.212,0.073 -18.294,0.073c-5.52,0 -14.694,1.722 -19.918,0.073c-0.809,-0.219 -2.333,-1.569 -2.633,-1.623c-1.266,-0.332 -3.546,0.073 -4.409,-0.557c-2.683,-1.928 -0.658,-4.866 0.367,-7.448c1.918,-4.971 3.142,-10.288 4.101,-15.508c1.673,-8.818 0.46,-17.13 -3.142,-25.185c-2.941,-6.588 -4.461,-10.643 -2.432,-31.472z" /> <path d="M362.26,630.106c-9.981,17.129 -7.954,25.747 -7.954,35.223c0,5.119 0.111,10.236 -0.037,15.407c-0.106,4.153 -1.724,7.195 -2.334,11.251c-2.735,0.455 -4.968,1.871 -7.651,2.383c-2.789,0.585 -6.49,-0.073 -9.377,-0.073c-16.975,0.05 -33.701,-2.001 -50.676,-1.928c-38.869,0.148 -77.741,0 -116.559,0c-38.263,0 -76.524,-0.037 -114.789,0c-11.655,0 -23.159,0.301 -34.763,-0.968c-3.955,-0.455 -13.027,0.561 -16.318,-2.078c-4.917,-3.851 0.652,-5.878 2.784,-9.022c6.132,-9.225 5.928,-22.094 11.199,-31.928c2.127,-4.051 5.524,-9.93 6.79,-14.339c0.606,-2.183 -0.302,-4.464 1.47,-5.777c1.059,-0.802 4.558,-0.074 5.925,-0.037c5.273,0.037 10.544,-0.037 15.863,0c3.952,0 8.868,-0.787 12.721,-0.073c2.989,0.503 5.321,1.754 8.414,2.121c14.088,1.55 29.439,-0.073 43.633,-0.073h251.666z" /></svg>