<svg xmlns="http://www.w3.org/2000/svg" viewBox="0 0 820 858" width="820" height="858"><path d="M699.6,120.4c90.056,90.059 129.598,211.896 118.1,329.6l-47.3,10.9c-17.034,-27.77 -37.61,-54.011 -61.7,-78.1c-165.172,-165.172 -432.229,-165.172 -597.4,0c-24.092,24.092 -44.566,50.326 -61.6,78.1l-47.3,-10.9c-11.501,-117.705 27.939,-239.539 118,-329.6c79.872,-79.872 184.721,-119.8 289.6,-119.8c104.879,0 209.729,39.928 289.6,119.8zM156.6,156.6c-57.533,57.533 -83.138,130.403 -93.4,205.1c4.411,-4.786 7.257,-10.457 11.9,-15.1c184.737,-184.738 485.062,-184.738 669.8,0c4.643,4.643 7.489,10.314 11.9,15.1c-10.264,-74.696 -35.87,-147.568 -93.4,-205.1c-70.088,-70.089 -161.731,-105.2 -253.4,-105.2c-91.669,0 -183.311,35.111 -253.4,105.2zM230.5,410c0,99.46 80.037,179.5 179.5,179.5c99.461,0 179.5,-80.041 179.5,-179.5h51.2c0,127.131 -103.568,230.7 -230.7,230.7c-127.134,0 -230.7,-103.569 -230.7,-230.7zM216.9,639.3l-105.6,105.6l-36.2,-36.2l105.6,-105.6zM744.9,708.7l-36.2,36.2l-105.6,-105.6l36.2,-36.2zM435.6,698v160h-51.2v-160z" /></svg>