<svg xmlns="http://www.w3.org/2000/svg" viewBox="0 0 819 956" width="819" height="956"><path d="M215.751,812.79v1.746c0,2.98 0.052,6.051 0.052,9.181c0,5.431 -0.196,11.12 -1.701,16.915c-2.717,10.722 -8.962,18.968 -16.969,24.763c-7.996,5.84 -17.68,9.331 -27.629,11.122c-1.369,0.249 -2.635,0.301 -3.838,0.301c-1.896,0 -3.461,-0.151 -4.966,-0.151l-1.64,0.049c-4.049,0.392 -8.203,1.694 -13.591,1.746h-0.603v0c-3.793,-0.151 -7.134,-0.751 -10.565,-1.354v0c-6.204,-1.265 -13.277,-0.964 -20.712,-2.318v0c-5.529,-1.07 -11.067,-3.583 -15.583,-6.307c-4.259,-2.514 -7.118,-5.885 -8.864,-9.527c-1.73,-3.642 -2.528,-7.39 -3.431,-11.333c-1.023,-4.305 -2.077,-8.458 -3.13,-12.567c-0.301,-1.58 -0.704,-3.733 -0.753,-6.096c0,-1.432 0,-2.921 0.603,-4.456c0.513,-1.536 1.595,-3.297 3.537,-4.35l2.198,-1.354l2.107,1.505c5.954,4.198 10.514,8.669 15.074,12.356c4.618,3.687 9.132,6.606 15.228,8.352c9.276,2.558 16.547,4.665 25.065,4.665c1.446,0 2.86,0 4.365,-0.151c6.249,-0.45 12.556,-1.58 16.093,-4.861c2.409,-2.196 3.552,-4.107 4.305,-6.561c0.844,-2.409 1.294,-5.479 2.047,-9.377c0.601,-3.687 1.053,-7.525 1.053,-11.378c0,-6.612 -1.173,-13.113 -3.793,-18.606c-2.618,-5.479 -6.622,-9.995 -12.567,-13.019c-3.898,-2.032 -9.542,-2.783 -14.87,-3.386v0c-3.235,-0.451 -6.711,-0.602 -10.459,-0.903c-3.733,-0.482 -6.863,-1.644 -8.714,-1.535h-0.107v0c-3.793,0 -9.165,2.002 -12.25,4.456c-3.478,2.662 -6.668,6.621 -10.099,10.459v0c-0.977,1.128 -1.67,1.806 -3.175,3.386c-1.444,1.537 -3.431,3.943 -6.561,8.143l-7.284,9.844v-12.401c0,-8.457 1.07,-17.171 4.305,-25.118c3.176,-7.896 8.714,-15.075 17.277,-19.89c8.56,-4.665 18.144,-3.913 25.428,-4.966c6.916,-0.95 13.944,-2.153 21.53,-2.153c0.977,0 1.971,0 3.024,0.052v0c4.365,0.256 8.113,1.355 11.8,2.258v0c3.702,0.95 8.113,1.1 13.079,2.153c7.276,1.685 13.538,5.013 18.971,9.738h0.047c7.795,6.664 11.738,14.137 13.891,24.041c0.902,4.363 0.902,8.156 1.053,11.994c0.105,4.199 1.593,8.713 1.64,14.508v0.301v0z" /> <path d="M72.247,662.976v0l-0.053,0.052zM92.972,680.521v0.052c-1.7,2.15 -2.979,5.176 -5.282,8.457c-3.326,4.709 -7.691,8.201 -12.657,10.715c-4.77,2.334 -9.377,3.537 -14.192,3.537c-2.318,0 -4.725,-0.301 -7.239,-0.753v0c-3.476,-0.617 -6.199,-1.821 -8.864,-2.724c-2.873,-1.128 -6.621,-1.399 -10.926,-3.235v0c-5.989,-2.619 -12.911,-4.666 -19.173,-9.331c-10.053,-7.534 -13.943,-18.808 -13.891,-29.991c0,-4.2 0.602,-8.458 1.505,-12.552c0.872,-3.642 2.422,-5.795 2.874,-7.48c0.932,-2.874 1.233,-6.411 2.979,-10.505c1.175,-2.708 2.544,-4.921 4.049,-7.119c2.62,-3.837 4.456,-8.865 7.691,-13.786c2.453,-3.687 5.885,-6.862 9.12,-9.271v0c3.537,-2.739 7.435,-3.694 10.972,-3.642c2.77,0 5.282,0.451 7.947,0.903v-0.052c3.282,0.632 6.473,1.083 9.693,1.535v-0.052c1.024,0.15 2.243,0.451 3.748,0.903c1.432,0.512 2.906,1.205 4.411,2.559c1.054,0.874 1.956,2.303 2.107,4.094l0.301,2.514l-2.153,1.354c-4.757,2.964 -9.226,4.861 -13.064,6.968c-3.853,2.107 -7.075,4.305 -9.949,7.947c-5.267,6.712 -9.12,11.527 -11.529,18.917c-1.038,3.025 -1.791,6.155 -1.791,8.714c0,1.234 0.302,2.378 0.603,3.281c0.826,2.197 1.67,3.357 3.024,4.56c1.384,1.175 3.386,2.348 5.9,4.049c5.945,3.898 13.274,6.722 19.941,6.667c4.863,0 9.316,-1.339 13.32,-4.77c2.362,-1.941 4.409,-5.583 6.456,-9.12v-0.052c1.233,-2.047 2.288,-4.454 3.642,-6.968v0c1.535,-2.665 3.281,-4.591 3.582,-5.644c0.602,-1.324 0.903,-3.326 0.903,-5.222c0,-1.445 -0.302,-2.906 -0.603,-3.959c-0.768,-3.087 -2.559,-6.352 -4.305,-9.949c-0.602,-1.082 -0.902,-1.73 -1.505,-3.235c-0.678,-1.384 -1.746,-3.491 -3.748,-6.817l-6.262,-10.505l11.273,4.665c6.051,2.513 11.951,5.84 16.661,10.505c4.77,4.671 8.323,10.871 9.226,18.457c0.107,0.889 0.107,1.716 0.107,2.469c-0.045,6.712 -2.846,12.461 -4.049,17.171c-1.595,5.686 -2.875,11.795 -5.749,17.891c-1.475,3.071 -3.371,5.478 -5.117,7.736z" /> <path d="M154.838,474.883l-2.514,0.301c-4.35,0.408 -8.038,0.194 -11.273,0.301c-3.281,0.166 -6.036,0.497 -9.015,2.002c-5.838,2.783 -9.887,4.68 -13.891,8.774c-2.467,2.499 -4.469,5.117 -4.62,7.119l-0.049,1.053c0,1.128 0.301,1.911 0.753,2.964c0.513,1.07 1.356,2.454 2.409,4.2c1.942,3.386 4.607,6.561 7.631,8.819c3.026,2.243 6.307,3.597 9.693,3.597c1.128,0 2.288,-0.151 3.491,-0.452c1.987,-0.528 4.56,-2.168 7.119,-3.959v0c1.489,-0.962 2.979,-2.273 4.815,-3.476v0c2.093,-1.356 3.899,-2.107 4.2,-2.559v0c1.294,-1.083 2.784,-3.748 3.085,-5.539c0.249,-1.55 0.301,-3.386 0.301,-5.388v-2.544c0,-1.188 0.105,-1.701 0.105,-3.341c0,-1.113 0,-2.708 -0.151,-5.117l-0.903,-10.821l-0.301,1.701l-0.903,2.409zM156.611,498.099v0.052zM99.527,525.026c-3.117,-3.687 -7.165,-7.48 -9.994,-12.913c-1.956,-3.897 -2.859,-8.007 -2.859,-11.95c0.06,-8.254 3.748,-15.883 8.774,-22.145h0.047c1.942,-2.363 3.853,-3.401 4.456,-4.154c1.535,-1.581 2.92,-3.883 5.644,-6.201c1.791,-1.535 3.536,-2.679 5.282,-3.582c2.86,-1.685 5.84,-4.454 9.783,-6.817c3.072,-1.791 6.563,-2.723 9.633,-3.326c0.978,-0.192 1.971,-0.301 2.874,-0.301c2.467,0 4.77,0.782 6.621,1.685c1.896,0.977 3.446,2.032 5.026,3.235c2.047,1.491 4.004,2.906 6.051,4.26h-0.052c0.872,0.557 1.866,1.461 2.919,2.514c0.799,1.083 2.002,2.513 2.153,4.876l-0.047,-0.753l8.098,9.181c4.966,5.737 9.325,12.87 9.377,21.327c0,2.619 -0.451,5.282 -1.354,7.947c-2.198,5.943 -6.863,9.271 -9.422,12.295c-2.921,3.326 -5.885,7.119 -9.994,10.354v0c-2.152,1.685 -4.259,2.784 -6.201,3.687c-1.746,0.813 -3.642,2.408 -6.411,3.943v0c-3.989,2.227 -8.292,3.13 -12.657,3.13h-0.301c-6.051,0.106 -11.079,-1.896 -15.789,-5.433c-2.258,-1.64 -3.777,-3.386 -5.282,-4.921c-1.431,-1.595 -3.838,-3.041 -6.352,-5.9v0z" /> <path d="M418.161,854.563c1.474,3.132 1.926,6.563 2.979,9.844c3.838,11.893 3.838,24.252 3.235,36.804c-0.361,8.358 -1.7,17.018 -5.9,24.302c-4.215,7.233 -6.878,14.713 -12.612,20.914c-4.101,4.366 -13.071,6.894 -18.971,7.797c-9.79,1.655 -18.509,2.454 -28.247,0.452c-7.894,-1.64 -16.106,-3.325 -23.887,-5.071c-0.241,-0.6 -0.993,-1.094 -1.746,-1.203c-1.477,0.044 -2.951,0.099 -4.456,0.151c-2.105,-0.362 -4.514,-1.204 -6.561,-1.957c-4.665,-1.746 -8.307,-4.559 -10.399,-8.97c-1.188,-2.408 -4.529,-9.993 -3.024,-11.935c5.388,1.19 9.121,6.201 14.147,8.203c9.276,3.567 23.018,2.949 32.5,1.053c4.667,-0.919 9.075,-2.303 13.531,-3.838c2.514,-0.871 6.156,-1.489 7.947,-3.491c1.356,-1.489 1.506,-3.28 2.559,-5.071c1.189,-2.152 2.995,-3.431 3.898,-5.945c1.054,-2.919 0.753,-5.493 0.753,-8.608c0,-4.198 1.354,-8.247 1.354,-12.401c-0.061,-5.379 -1.098,-11.325 -1.701,-16.607c-0.919,-9.837 -3.386,-15.375 -9.482,-23.021c-5.792,-7.226 -13.58,-14.194 -22.399,-17.685c-10.359,-4.032 -21.271,-2.828 -32.197,-2.979c-11.586,-0.151 -19.111,4.666 -26.245,13.38c-6.307,7.741 -7.541,16.923 -9.226,26.149c-1.656,9.227 0.15,18.968 -0.753,28.345c-10.306,-3.535 -18.509,-13.63 -23.686,-22.66c-3.597,-6.148 -6.352,-11.325 -6.051,-18.609c0.211,-5.48 3.085,-10.25 3.386,-15.683l2.363,7.54c-0.151,-2.213 -0.151,-4.305 -0.151,-6.051c0,-10.151 3.944,-22.247 10.761,-29.833c10.56,-11.791 26.148,-14.319 41.063,-15.072c8.25,-0.452 16.304,-1.957 24.656,-1.505c6.823,0.42 13.792,1.625 20.504,2.979c23.016,4.613 44.496,18.812 55.829,39.625c1.941,3.582 4.455,7.119 6.201,10.761z" /> <path d="M605.134,742.806c20.144,12.354 35.263,34.808 38.393,61.265c0.542,4.56 1.595,9.211 1.896,13.831c0.3,3.853 -0.602,7.842 -0.753,11.74c-0.721,14.356 -5.388,27.842 -10.459,41.523c-3.431,9.074 -7.886,18.152 -14.553,24.864c-6.614,6.61 -11.897,14 -19.633,18.966c-5.485,3.523 -14.922,3.373 -20.867,2.62c-9.891,-1.445 -18.395,-3.236 -26.913,-8.518c-6.922,-4.305 -14.041,-8.819 -20.813,-13.169c0,-0.904 -0.45,-1.656 -1.203,-1.957c-1.431,-0.45 -2.8,-0.751 -4.305,-1.203c-1.836,-1.085 -3.838,-2.755 -5.478,-4.26c-3.792,-3.34 -6.154,-7.645 -6.606,-13.184c-0.211,-3.024 -0.572,-12.401 1.535,-14.041c4.664,2.981 6.35,9.693 10.459,13.486c7.433,6.924 20.718,10.581 30.396,11.484c4.77,0.353 9.437,0.353 14.252,0.052c2.723,-0.151 6.365,0.286 8.819,-1.354c1.851,-1.188 2.665,-3.085 4.305,-4.77c1.897,-1.956 4.139,-2.828 5.84,-5.237c2.092,-2.934 2.74,-5.855 3.943,-9.286c1.58,-4.562 4.305,-8.625 5.84,-13.23c1.957,-5.897 3.011,-12.82 4.516,-18.765c2.632,-11.122 2.316,-18.036 -0.603,-28.345c-2.829,-9.792 -7.691,-19.952 -14.764,-26.558c-8.357,-7.781 -19.121,-9.843 -29.43,-13.425c-10.97,-3.896 -19.884,-0.977 -29.833,6.352c-8.816,6.51 -13.377,16.202 -18.403,25.835c-4.981,9.587 -6.772,20.917 -11.122,30.911c-8.458,-7.127 -12.507,-20.915 -14.147,-32.399c-1.145,-7.937 -1.926,-14.453 1.053,-22.4c2.198,-5.996 6.712,-10.299 8.97,-16.199l-0.603,9.015c0.753,-2.467 1.504,-4.725 2.107,-6.667c3.738,-11.176 11.936,-23.224 21.222,-29.425c14.305,-9.633 30.043,-7.525 44.446,-3.582c7.996,2.197 16.196,3.071 23.887,6.201c6.369,2.619 12.508,6.216 18.408,9.798z" /> <path d="M792.475,556.659c0.662,5.178 1.911,10.506 2.363,15.683c0.45,4.455 -0.602,8.924 -0.753,13.38c-0.663,16.25 -5.945,31.579 -11.74,47.061c-3.838,10.252 -8.925,20.553 -16.661,28.093c-7.587,7.438 -13.683,15.79 -22.608,21.374c-6.303,3.927 -17.334,3.777 -24.196,2.724c-11.481,-1.701 -21.467,-3.808 -31.371,-9.904c-8.098,-4.963 -16.355,-10.14 -24.302,-15.121c0,-1.055 -0.451,-1.806 -1.354,-2.258c-1.7,-0.602 -3.341,-1.053 -5.026,-1.505c-2.166,-1.234 -4.469,-3.236 -6.411,-4.921c-4.471,-3.838 -7.194,-8.698 -7.797,-14.96c-0.301,-3.49 -0.768,-14.145 1.595,-15.996c5.539,3.434 7.541,11.078 12.311,15.428c8.713,7.902 24.199,12.132 35.472,13.335c5.49,0.452 10.968,0.452 16.507,0.151c3.175,-0.151 7.434,0.437 10.248,-1.354c2.107,-1.384 3.07,-3.552 4.921,-5.388c2.212,-2.258 4.83,-3.176 6.772,-5.945c2.409,-3.28 3.102,-6.621 4.456,-10.459c1.851,-5.222 4.966,-9.783 6.712,-14.96c2.212,-6.722 3.431,-14.563 5.026,-21.275c3.04,-12.61 2.634,-20.455 -0.903,-32.195c-3.383,-11.171 -9.072,-22.756 -17.379,-30.296c-9.79,-8.962 -22.352,-11.383 -34.346,-15.583c-12.711,-4.516 -23.073,-1.28 -34.602,6.923c-10.202,7.331 -15.334,18.296 -21.068,29.222c-5.689,10.816 -7.691,23.689 -12.657,34.962c-9.896,-8.15 -14.756,-23.84 -16.713,-36.964c-1.401,-8.97 -2.333,-16.398 1.053,-25.428c2.512,-6.757 7.689,-11.634 10.248,-18.301l-0.603,10.309c0.768,-2.771 1.61,-5.388 2.363,-7.586c4.199,-12.664 13.581,-26.248 24.296,-33.216c16.558,-10.821 34.859,-8.262 51.674,-3.642c9.276,2.574 18.815,3.642 27.785,7.284c7.375,3.025 14.614,7.119 21.476,11.273c23.478,14.249 41.329,39.882 45.167,69.977z" /> <path d="M817.954,314.213c0.663,11.33 0,23.224 -4.876,33.683c-4.815,10.354 -7.54,20.855 -14.719,30.036c-5.024,6.412 -17.167,11.077 -25.22,13.184c-13.432,3.463 -25.329,5.87 -39.115,4.516c-11.232,-1.128 -22.764,-2.334 -33.886,-3.537c-0.557,-0.902 -1.356,-1.505 -2.559,-1.505c-2.047,0.15 -4.094,0.452 -6.201,0.753c-2.92,-0.211 -6.412,-1.143 -9.331,-1.746c-6.713,-1.64 -12.146,-5.026 -15.683,-10.67c-1.942,-3.071 -7.586,-12.869 -5.84,-15.683c7.644,0.768 13.529,7.073 20.813,9.075c13.331,3.582 32.347,0.813 45.215,-3.085c6.307,-1.941 12.295,-4.349 18.301,-7.073c3.386,-1.535 8.262,-2.876 10.505,-5.84c1.671,-2.198 1.671,-4.604 2.874,-7.224c1.385,-3.025 3.867,-5.072 4.62,-8.503c0.946,-4.154 0.194,-7.6 -0.107,-11.8c-0.452,-5.691 0.754,-11.32 0.151,-16.964c-0.767,-7.284 -3.055,-15.126 -4.56,-22.199c-2.665,-13.18 -6.819,-20.35 -16.301,-29.787c-8.972,-9.013 -20.758,-17.322 -33.475,-20.813c-14.967,-3.957 -29.886,-0.751 -45.06,0.603c-16.099,1.379 -25.888,8.923 -34.602,21.731c-7.751,11.283 -8.233,23.887 -9.286,36.604c-1.069,12.664 2.831,25.635 2.724,38.398c-14.713,-3.282 -27.474,-15.899 -35.886,-27.323c-5.794,-7.844 -10.323,-14.398 -10.926,-24.302c-0.465,-7.475 2.86,-14.307 2.559,-21.682l4.305,9.844c-0.45,-2.906 -0.902,-5.734 -1.053,-8.143c-1.384,-13.687 2.469,-30.56 10.866,-41.833c13.072,-17.382 34.292,-23.072 54.957,-26.096c11.378,-1.686 22.351,-4.77 33.986,-5.373c9.538,-0.527 19.381,0.15 28.863,1.053c32.552,3.026 64.333,19.274 82.842,45.778c3.237,4.561 7.12,8.971 10.099,13.681c2.454,4.004 3.537,8.608 5.433,12.868c7.028,15.585 8.594,32.292 9.497,49.314z" /> <path d="M294.886,176.76c-2.364,-2.467 -4.516,-4.876 -6.262,-6.923c-10.261,-11.941 -17.726,-30.193 -17.123,-46.186c0.816,-24.709 16.966,-43.829 34.245,-60.08c9.528,-9.02 17.686,-19.168 28.191,-27.221c8.612,-6.618 18.246,-12.352 27.683,-17.74c32.344,-18.392 72.538,-23.93 107.09,-11.273c5.94,2.197 12.501,3.747 18.296,6.201c4.923,2.15 8.97,5.733 13.486,8.457c16.708,9.993 28.962,24.605 40.956,39.831c8,10.146 15.134,21.689 17.377,34.602c2.258,12.765 6.653,24.345 5.9,37.575c-0.512,9.281 -8.819,21.53 -14.915,28.709c-10.308,11.999 -19.837,21.993 -33.578,29.684c-11.23,6.306 -22.762,12.716 -33.884,18.812c-1.188,-0.452 -2.333,-0.452 -3.386,0.301c-1.761,1.64 -3.491,3.235 -5.237,4.815c-2.876,1.732 -6.729,3.253 -9.904,4.456c-7.331,2.86 -14.555,3.22 -21.583,0.301c-3.845,-1.64 -15.479,-7.118 -15.63,-10.866c7.636,-4.168 17.223,-2.197 25.321,-5.071c14.765,-5.331 30.651,-20.305 40.193,-32.344c4.604,-5.905 8.608,-12.046 12.401,-18.457c2.213,-3.642 5.9,-8.141 6.051,-12.295c0.106,-3.19 -1.444,-5.493 -2.047,-8.623c-0.6,-3.748 0.302,-7.224 -1.203,-10.972c-1.73,-4.561 -4.666,-7.285 -7.736,-10.972c-4.154,-4.972 -6.666,-11.083 -10.926,-15.944c-5.426,-6.255 -12.756,-12.095 -18.656,-17.739c-11.123,-10.504 -19.695,-14.506 -34.655,-17.171c-14.25,-2.512 -30.652,-2.617 -44.753,2.409c-16.66,5.946 -28.452,18.711 -41.727,29.833c-14.143,11.793 -18.298,25.227 -18.147,42.805c0.154,15.583 7.939,27.634 15.223,40.246c7.228,12.508 19.318,22.034 27.58,33.984c-15.889,6.516 -36.038,3.13 -51.315,-2.047c-10.507,-3.544 -19.073,-6.658 -26.041,-15.583c-5.284,-6.67 -6.623,-15.224 -11.74,-21.891l10.459,6.411z" /> <path d="M271.662,599.446v-11.484h0.151c-0.049,-0.15 -0.049,-0.194 -0.049,-0.301c0,-1.641 0.151,-3.326 0.452,-5.117c0.406,-2.361 1.234,-4.77 3.13,-6.621c1.836,-1.866 3.973,-2.618 5.478,-2.919c1.025,-0.302 1.912,-0.452 2.665,-0.603h0.049c1.325,-0.3 2.619,-0.601 4.154,-0.903c1.535,-0.302 3.326,-0.603 5.433,-0.603h0.097c0.768,0 1.55,0 2.303,0c1.745,0 3.491,0 5.282,0h1.302c2.361,0 4.514,0 6.877,0.452c2.363,0.467 4.981,1.64 7.028,3.491c1.339,1.28 2.484,2.725 3.537,4.365v0.049c0.949,1.341 1.55,2.828 2.002,4.365c0.452,1.537 0.554,3.057 0.603,4.411c0.058,0.662 0.107,1.566 0.107,2.769c0,0.663 0,1.445 -0.107,2.198c-0.151,1.686 -1.053,3.446 -1.354,4.049l-0.107,0.151c-0.452,1.836 -1.054,4.152 -1.957,6.606c-0.919,2.469 -2.152,5.072 -4.305,7.435c-3.341,3.551 -7.496,4.105 -10.972,4.154c-4.575,-0.045 -8.715,-1.189 -11.95,-2.769h-0.052c-1.444,-0.723 -3.13,-1.416 -5.026,-2.469c-1.836,-1.022 -4.124,-2.709 -5.478,-5.478c-0.751,-1.595 -1.151,-3.446 -1.203,-5.282c-0.15,0 -0.452,0 -0.753,0c-2.363,0 -4.86,0.049 -7.48,0.049z" /> <path d="M335.512,705.839c-13.481,3.536 -26.764,6.593 -40.956,7.947c-5.177,0.45 -11.377,1.053 -17.533,1.053c-4.258,0 -8.413,-0.3 -12.356,-1.053c-8.15,-1.7 -16.049,-4.77 -23.378,-7.239c-10.152,-3.433 -22.862,-6.141 -32.706,-13.681c-3.371,-2.617 -7.842,-4.619 -12.552,-6.817c-4.666,-2.258 -9.587,-4.725 -13.591,-8.925c-2.664,-2.708 -4.892,-6.244 -5.945,-10.655c-1.037,-4.064 -1.037,-7.902 -1.64,-10.776c-0.948,-4.259 -1.746,-8.866 -1.851,-13.636l-0.049,-2.107c0,-6.771 0.782,-12.972 1.685,-19.428c1.084,-8.103 1.745,-17.434 3.898,-26.042c1.233,-4.875 3.476,-9.225 4.981,-12.973c1.746,-4.516 4.712,-8.098 7.586,-11.183c1.233,-1.339 2.695,-2.271 3.898,-2.874c1.279,-0.602 2.183,-0.902 3.386,-1.505v0c4.454,-2.062 8.247,-4.229 14.403,-5.282c3.642,-0.602 7.435,-0.903 11.333,-0.903c10.562,0.06 21.626,2.258 30.505,7.435l15.837,9.226l-18.249,-1.685c-1.64,-0.192 -3.235,-0.301 -4.77,-0.301c-5.071,0 -9.587,0.872 -14.252,3.085v0c-3.898,1.791 -7.947,4.921 -12.823,7.435c-2.363,1.219 -4.56,2.273 -6.923,3.326v0c-0.799,0.437 -1.399,0.887 -2.002,1.64c-0.542,0.766 -1.143,1.821 -1.595,3.175c-1.039,2.62 -1.489,6.006 -2.092,9.181c-0.452,2.663 -0.753,5.629 -0.753,8.714c0,5.739 0.904,11.895 1.957,17.223c0.601,2.829 0.752,5.687 1.053,8.307c0.301,2.663 0.751,5.027 1.354,6.667c0.724,1.7 1.942,2.828 4.2,5.026v0c2.665,2.56 4.29,5.283 5.644,7.797c1.384,2.512 2.333,4.77 3.838,7.028c0.512,0.872 3.026,3.13 5.84,4.876c2.77,1.791 5.99,3.341 7.736,3.793c0.557,0.15 1.356,0.15 2.559,0.301c1.234,0.151 2.964,0.452 4.71,1.505c1.266,0.768 2.017,1.7 2.62,2.303l1.053,1.203c1.642,1.311 3.703,1.911 6.262,2.514c2.558,0.451 5.539,0.751 8.714,1.354c0.935,0.194 1.717,0.301 2.62,0.301c2.213,0 4.562,-0.6 8.053,-1.203v0c4.56,-0.782 8.759,-0.932 12.763,-1.535c8.66,-1.445 16.552,-0.844 23.987,-2.198v0c8.819,-1.535 19.076,-4.607 25.788,-9.377c4.619,-3.131 7.751,-8.459 12.717,-13.741c3.642,-3.733 7.585,-5.944 10.309,-8.503c2.876,-2.665 5.75,-6.412 8.053,-9.949c1.746,-2.768 3.748,-4.77 5.644,-6.516c1.957,-1.746 3.687,-3.175 5.388,-4.921c2.815,-2.874 4.094,-6.139 6.201,-10.655c0.948,-2.002 1.55,-3.403 1.851,-4.456c0.452,-1.13 0.603,-2.197 0.603,-4.154v-0.603c-0.047,-1.685 -0.047,-3.386 -0.047,-5.071c0,-1.535 0,-3.13 0,-4.665c0,-3.13 0.047,-6.156 0.047,-9.075c0,-6.008 -0.151,-11.531 -1.354,-16.663c-1.113,-5.117 -3.07,-9.889 -6.757,-14.659c-5.846,-7.589 -14.048,-13.791 -22.251,-20.352v0c-4.861,-3.899 -8.804,-8.157 -12.763,-12.311c-0.151,0.055 -0.347,0.107 -0.452,0.107c-2.213,-0.151 -3.627,-0.752 -5.132,-1.505c-1.43,-0.723 -2.634,-1.565 -3.537,-2.318c-3.687,-3.371 -7.013,-6.712 -10.61,-9.271c-1.489,-1.01 -2.604,-1.61 -4.109,-2.213c-1.49,-0.558 -3.281,-1.145 -5.328,-2.198c-4.862,-2.558 -8.399,-6.561 -11.529,-8.759c-1.941,-1.444 -4.727,-2.376 -7.947,-2.979c-3.22,-0.588 -6.817,-1.038 -10.399,-1.791c-1.791,-0.452 -4.363,-0.752 -7.028,-1.505c-2.665,-0.769 -5.493,-1.746 -7.947,-3.748c-1.686,-1.324 -3.19,-3.221 -3.793,-5.584l-0.301,-1.505l-0.052,-1.354c0,-2.002 0.303,-4.711 0.603,-7.48c0.3,-2.769 0.6,-5.327 1.203,-7.329c0.15,-0.497 0.301,-1.098 0.753,-1.851c0.226,-0.377 0.527,-0.977 1.58,-1.58v0c1.385,-0.794 2.695,-0.903 3.748,-0.903c2.107,0 3.943,0.45 5.689,1.053c1.701,0.6 3.19,1.094 3.793,1.203h0.052c10.255,2.409 23.127,2.997 36.296,4.2c13.226,1.233 26.756,3.069 38.706,8.457c7.941,3.53 15.119,8.812 20.658,16.458v0c0.602,0.993 0.752,1.444 0.903,1.896l0.301,0.903v0c0.573,0.766 2.364,2.077 4.411,3.431c2.047,1.386 4.35,2.725 6.307,4.305c5.889,4.965 13.324,10.503 16.815,19.428v0.052c1.16,3.22 1.762,6.396 2.665,8.759c4.155,12.356 8.834,25.224 9.437,39.115c0.437,10.508 1.791,21.382 1.791,32.399v1.58c-0.105,4.877 0.362,11.077 -2.258,17.022c-1.776,3.943 -4.454,7.075 -7.013,9.949c-2.617,2.876 -5.071,5.433 -6.817,7.947c-3.793,5.533 -6.877,12.095 -11.333,18.296c-7.384,10.004 -18.193,14.352 -25.99,20.403c-6.618,5.02 -12.413,12.515 -17.228,19.89c-0.482,0.616 -0.932,1.716 -1.685,2.919c-0.707,1.234 -1.415,2.59 -2.769,3.793c-3.943,3.642 -8.969,4.335 -12.506,5.388v0z" /> <path d="M319.301,804.262c-0.724,-0.15 -2.771,-0.6 -4.411,-1.203c-0.648,-0.3 -0.948,-0.3 -1.851,-0.903c-2.002,-1.294 -2.994,-3.04 -3.597,-4.725l-0.301,-0.753l0.052,-0.753c0.046,-1.278 0.099,-2.589 0.151,-3.943c-0.15,-1.083 -0.451,-2.077 -0.903,-3.13l-0.301,-0.603l-0.107,-0.603c-0.249,-1.746 -0.301,-3.371 -0.301,-4.876c0,-2.617 0.151,-4.966 0.151,-7.073c0,-0.874 -0.044,-1.806 -0.151,-2.559c-0.661,-5.833 -2.572,-12.05 -3.175,-18.912c-0.768,-8.612 -4.305,-17.846 -7.179,-26.966c-0.737,-2.515 -1.037,-4.786 -1.64,-5.539l-0.603,-0.753c-0.332,-0.391 -0.932,-0.993 -1.535,-1.896c-1.054,-1.537 -1.806,-3.162 -2.559,-4.516c-0.738,-1.309 -1.49,-2.513 -1.791,-2.814l-8.608,-8.608l12.039,1.746h0.151l0.753,-0.301c0.677,-0.3 1.79,-0.902 3.491,-1.203c0.874,-0.151 1.701,-0.151 2.454,-0.151c1.489,0 2.995,0.104 3.898,0.151c3.943,0.15 7.225,1.745 9.949,3.898v0c7.075,5.543 9.844,13.385 13.531,18.863c4.049,6.056 5.253,11.894 6.156,18.201c0.92,6.919 4.11,14.146 4.411,23.071v1.505c0,4.77 -0.452,9.434 -0.452,13.845c0,2.71 0.151,5.327 0.603,7.736c1.053,5.011 1.354,9.572 1.354,14.553v7.947l-6.456,-4.665c-1.58,-1.054 -2.784,-1.956 -3.687,-2.559l-0.753,0.049c-3.627,-0.09 -6.862,-1.384 -8.864,-1.836z" /> <path d="M511.381,738.517c0.151,1.806 -1.053,2.137 -1.354,3.491c-1.084,3.792 -1.37,7.435 -2.724,11.378c-1.233,3.552 -1.339,5.659 -5.237,4.305c-6.462,-2.213 -13.475,-7.239 -18.863,-11.333c-7.783,-5.897 -15.489,-11.285 -22.502,-18.147c-7.385,-7.179 -15.794,-13.636 -24.402,-19.024c-9.435,-5.835 -17.325,-12.863 -25.888,-19.936c-3.748,-3.087 -7.239,-6.262 -10.776,-9.648c-3.477,-3.325 -7.631,-5.749 -10.761,-9.331c-3.853,-4.409 -7.797,-6.606 -9.437,-12.401c-0.87,-3.132 -1.434,-5.644 18.663,-15.382c13.633,5.893 26.294,12.615 37.883,21.992c14.559,11.791 29.264,22.56 42.75,35.323c3.116,2.919 6.804,5.794 9.783,8.864c2.303,2.409 3.28,5.584 5.433,8.098c4.962,5.897 11.433,10.518 15.482,17.23l1.896,4.501z" /> <path d="M512.363,509.853c12.048,-1.656 24.499,-0.602 36.704,-0.753c20.042,-0.308 37.165,12.156 56.338,15.482c5.629,0.962 9.934,1.067 11.635,6.862c2.258,7.794 3.311,17.482 2.258,25.58c-3.282,0.211 -6.818,-1.188 -10.099,-1.791c-6.816,-1.084 -13.74,-1.521 -20.557,-2.724c-11.023,-1.851 -22.05,-3.13 -33.067,-4.77c-29.833,-4.456 -59.774,-5.945 -89.967,-6.096c-10.916,-0.06 -21.625,2.212 -32.551,3.115c-6.362,0.542 -13.376,2.498 -19.787,1.595c-8.037,-1.078 -4.606,-13.834 -7.736,-17.069c0.87,-5.131 13.167,-7.977 17.171,-9.331c8.15,-2.753 18.51,-4.168 27.013,-5.071c8.511,-0.902 16.815,-0.45 25.272,-1.203c6.714,-0.573 13.382,-1.567 20.049,-2.62c5.735,-0.902 11.529,-0.3 17.324,-1.053z" /> <path d="M539.386,306.749c4.921,-2.318 9.587,-5.945 14.719,-7.691c9.025,-3.084 18.358,-5.542 27.991,-5.493c6.146,0.059 20.758,0.571 20.865,10.158c0.061,3.688 -5.583,3.974 -8.457,5.328c-7.588,3.476 -15.793,6.35 -23.122,10.248c-4.92,2.602 -8.713,5.177 -14.101,6.862c-4.667,1.445 -9.06,2.979 -13.32,5.388c-12.048,6.61 -24.407,11.485 -36.042,19.071c-12.763,8.302 -24.4,17.888 -37.419,25.835c-15.69,9.482 -29.994,21.016 -45.215,31.219c-8.104,5.378 -15.629,11.94 -22.145,19.119c-4.363,4.772 -8.156,9.904 -12.205,14.975c-1.34,1.641 -3.251,3.386 -4.154,5.328c-1.144,2.361 -1.595,5.837 -2.047,8.457c-0.827,5.177 -1.851,6.051 -7.179,7.646c-5.494,1.595 -10.716,1.384 -8.518,-3.793c-0.046,-11.072 3.596,-20.248 9.587,-29.579c3.326,-5.177 7.028,-9.738 10.866,-14.508c5.495,-6.713 9.438,-14.359 16.15,-19.943c6.309,-5.177 13.021,-9.332 18.966,-15.021c6.462,-6.15 13.581,-10.92 20.609,-16.353c5.376,-4.212 9.847,-9.434 15.069,-13.845c5.905,-4.966 12.106,-9.166 18.863,-12.868c14.101,-7.746 28.407,-14.91 42.81,-22.194c5.791,-2.874 11.586,-5.583 17.426,-8.352z" /> <path d="M290.972,463.789c-5.383,0.754 -10.816,0.203 -16.204,0.151c-0.964,0 -2.604,-0.109 -4.35,-0.109c-0.046,-0.602 -0.099,-0.902 -0.151,-1.505c-1.052,-6.824 -1.25,-13.221 -1.203,-20.249c0.106,-23.786 -0.345,-47.523 2.469,-71.204c2.107,-17.74 4.665,-35.372 7.224,-53.01c1.444,-9.636 2.678,-19.426 4.981,-28.908c5.03,-20.459 8.913,-41.373 15.429,-61.314c2.319,-7.072 7.39,-13.121 11.183,-19.428c2.919,-4.981 5.418,-5.78 10.655,-6.983c3.283,-0.723 6.518,-2.062 9.904,-2.363c6.461,-0.721 12.705,0.407 18.711,2.409c4.049,1.339 8.203,3.084 11.017,6.621c2.454,3.011 1.354,5.84 0.301,9.527c-2.061,6.87 -3.386,13.026 -6.621,19.587c-4.355,8.867 -11.534,16.298 -16.455,24.966c-5.94,10.613 -10.502,21.734 -17.123,31.937c-6.978,10.66 -13.074,22.921 -16.761,35.216c-2.107,7.025 -4.802,14.159 -6.156,21.383c-1.55,8.351 -1.399,17.271 -2.002,25.728c-0.993,12.51 -1.948,25.022 -1.896,37.528c0.06,9.637 -1.587,18.866 -1.535,28.453c0,7.224 0.739,14.508 -1.203,21.476z" /> <path d="M208.362,693.8c3.85,0 8.468,2.138 22.916,1.535c-0.602,4.004 -3.371,7.54 -5.478,10.821c-2.768,4.456 -3.612,9.693 -4.966,14.659c-1.745,6.468 -3.476,12.865 -5.071,19.381c-0.766,3.13 -0.872,6.757 -3.386,8.97c-5.182,4.559 -14.563,6.154 -21.019,6.606c-6.822,0.452 -16.259,5.84 -21.737,0c-4.455,-4.774 0.677,-12.405 2.769,-17.431c3.642,-8.712 6.214,-18.15 10.715,-26.653c2.874,-5.43 9.331,-12.819 14.764,-15.588c3.492,-1.7 6.667,-2.303 10.505,-2.303z" /> <path d="M117.657,637.251c4.003,-1.151 7.856,-0.6 11.95,-1.203c5.737,-1.052 11.381,-1.151 17.07,-1.203c1.85,4.755 3.16,10.203 1.957,14.659c-1.233,4.305 -5.642,10.024 -10.158,11.529c-2.048,0.712 -4.921,0.06 -7.119,0.109c-3.538,0.105 -6.608,1.339 -10.099,1.64c-4.3,0.407 -14.397,1.489 -18.145,-1.535c-3.808,-3.069 -2.454,-9.63 -2.454,-14.041c0,-1.957 -0.646,-5.237 0.107,-7.028c1.233,-3.161 4.305,-2.258 7.224,-2.258c3.431,0 6.412,0.15 9.693,-0.753z" /> <path d="M155.332,517.804c7.586,-2.107 10.311,1.942 15.021,7.435c4.709,5.434 8.141,11.424 12.295,17.324c2.409,3.477 6.91,8.715 6.307,13.275l-6.201,3.07c-0.557,3.928 -1.896,3.235 -4.305,4.981c-1.278,0.963 -1.64,2.256 -3.235,2.859c-1.279,0.452 -3.356,-0.2 -4.71,-0.151c-2.723,0.03 -5.959,1.836 -8.518,1.535c-2.303,-0.256 -2.589,-0.467 -3.943,-2.514c-4.004,-5.843 -6.216,-12.963 -9.03,-19.479c-2.077,-4.928 -3.379,-12.257 -3.431,-17.585c0,-1.492 -0.902,-6.744 0.301,-8.098c1.025,-1.311 8.279,-2.364 9.482,-2.665z" /></svg>