<svg xmlns="http://www.w3.org/2000/svg" viewBox="0 0 1026 576" width="1026" height="576"><path d="M23.245,570.612c11.201,-2.069 25.042,-7.627 30.749,-12.352c5.707,-4.725 12.738,-6.232 15.617,-3.352c8.919,8.919 -2.983,14.656 -35.509,17.111c-17.176,1.295 -22.061,0.664 -10.858,-1.408zM101.128,564.475c17.795,-13.459 36.184,-16.142 36.184,-5.284c0,3.957 -8.248,9.409 -18.331,12.109c-29.551,7.92 -34.731,5.939 -17.851,-6.826zM202.492,557.119c0,-13.75 0.562,-13.843 203.691,-33.205c324.398,-30.919 399.854,-38.182 475.704,-45.805c44.302,-4.45 82.363,-6.277 84.586,-4.054c7.132,7.132 34.485,-11.848 34.485,-23.935c0,-7.033 4.861,-9.814 12.221,-6.988c6.721,2.578 12.221,8.995 12.221,14.251c0,11.029 -47.758,31.09 -58.387,24.52c-3.91,-2.416 -18.958,-0.569 -33.432,4.112c-38.41,12.416 -333.767,46.874 -531.47,61.999c-94.105,7.2 -177.516,14.953 -185.358,17.23c-9.102,2.641 -14.26,-0.299 -14.26,-8.131zM170.69,548.875c-7.213,-8.689 -6.51,-12.361 3.075,-16.04c8.545,-3.28 12.43,0.238 12.43,11.271c0,18.994 -2.947,19.901 -15.504,4.769zM6.951,543.847c6.721,-4.342 19.21,-7.953 27.748,-8.023c8.538,-0.07 28.03,-9.661 43.311,-21.316c15.281,-11.655 30.026,-18.949 32.764,-16.213c11.83,11.83 -64.506,53.795 -97.448,53.572c-14.993,-0.094 -16.228,-1.652 -6.373,-8.023zM100.646,537.271c13.442,-8.464 25.742,-12.046 27.328,-7.969c3.801,9.767 1.516,11.254 -27.328,17.806l-24.442,5.548zM135.275,507.433c-18.973,-26.093 -17.992,-49.475 2.956,-70.42c21.568,-21.568 69.357,-16.447 90.742,9.719c19.292,23.606 17.989,30.688 -6.796,36.909c-11.578,2.906 -29.745,13.974 -40.369,24.599c-23.872,23.872 -28.648,23.791 -46.534,-0.805zM199.186,512.502c-3.615,-5.853 6.169,-10.959 27.544,-14.377c42.863,-6.853 47.461,-15.834 21.811,-42.607c-15.158,-15.82 -18.798,-25.168 -13.234,-33.965c6.75,-10.678 7.69,-10.641 7.798,0.31c0.067,6.844 7.006,18.337 15.413,25.537c14.124,12.091 16.299,11.911 28.516,-2.355c7.276,-8.496 13.225,-22.738 13.225,-31.648c0,-10.768 5.463,-16.204 16.294,-16.204c9.052,0 16.294,5.431 16.294,12.221c0,6.721 3.667,12.221 8.149,12.221c4.482,0 8.149,-7.331 8.149,-16.294c0,-8.961 3.667,-16.294 8.149,-16.294c4.482,0 8.149,5.5 8.149,12.221c0,6.721 3.667,12.221 8.149,12.221c4.482,0 8.149,-5.5 8.149,-12.221c0,-6.721 3.667,-12.221 8.149,-12.221c4.482,0 8.149,5.5 8.149,12.221c0,19.842 16.248,13.936 16.811,-6.11l0.517,-18.331l7.564,18.856c7.844,19.561 23.996,17.518 23.996,-3.041c0,-6.457 3.667,-11.74 8.149,-11.74c4.482,0 8.149,7.548 8.149,16.776c0,9.823 3.606,14.548 8.703,11.398c4.786,-2.956 6.781,-10.39 4.431,-16.515c-2.35,-6.125 -0.768,-13.305 3.518,-15.952c4.286,-2.65 7.79,0.901 7.79,7.888c0,6.987 3.667,12.703 8.149,12.703c4.481,0 8.257,-6.416 8.394,-14.26c0.237,-13.578 0.643,-13.578 8.554,0c11.15,19.146 23.791,18.062 23.791,-2.038c0,-8.961 3.667,-16.294 8.149,-16.294c4.482,0 8.149,5.5 8.149,12.221c0,6.721 3.667,12.221 8.149,12.221c4.482,0 8.149,-6.2 8.149,-13.779c0,-12.015 1.532,-11.754 11.963,2.038c10.822,14.31 11.986,14.458 12.221,1.556c0.313,-17.322 16.555,-19.32 16.555,-2.038c0,6.721 4.093,12.221 9.097,12.221c5.088,0 7.22,-7.186 4.837,-16.294c-3.631,-13.882 -0.247,-16.294 22.828,-16.294c14.899,0 32.888,-2.227 39.973,-4.945c8.455,-3.244 12.888,-0.445 12.888,8.149c0,18.895 13.603,16.114 18.823,-3.847c3.183,-12.177 9.751,-16.186 23.357,-14.26c10.408,1.476 18.926,6.961 18.926,12.188c0,5.227 2.749,12.253 6.111,15.617c3.361,3.361 6.11,-1.832 6.11,-11.542c0,-9.71 3.667,-17.653 8.149,-17.653c4.481,0 8.149,11.217 8.149,24.925c0,15.997 3.199,22.945 8.932,19.404c4.91,-3.037 7.447,-15.623 5.636,-27.973c-3.265,-22.252 -2.791,-22.5 52.814,-27.669c51.709,-4.806 57.289,-3.767 71.187,13.234c9.337,11.425 12.199,21.396 7.51,26.187c-14.953,15.287 -7.096,27.938 18.911,30.443c21.592,2.082 26.932,6.436 28.924,23.584c2.38,20.479 0.661,21.285 -65.182,30.566c-37.192,5.242 -120.79,14.962 -185.764,21.595c-64.974,6.633 -169.47,17.462 -232.205,24.058c-182.712,19.21 -294.257,24.4 -300.692,13.986zM475.112,465.79c0.503,-11.497 -1.966,-22.686 -5.491,-24.863c-3.525,-2.177 -6.404,9.7 -6.404,26.396c0,33.362 10.426,32.018 11.895,-1.532zM297.51,460.336c-2.263,-5.602 -4.108,-1.02 -4.108,10.183c0,11.203 1.849,15.786 4.108,10.183c2.263,-5.602 2.263,-14.766 0,-20.371zM349.15,464.818c0,-16.384 -2.353,-19.642 -9.229,-12.768c-5.076,5.076 -7.024,14.975 -4.33,22c7.457,19.435 13.558,15.286 13.558,-9.229zM381.738,461.893c0,-9.228 -3.667,-14.512 -8.149,-11.74c-4.482,2.772 -8.149,10.318 -8.149,16.776c0,6.457 3.667,11.74 8.149,11.74c4.482,0 8.149,-7.548 8.149,-16.776zM414.327,462.371c0,-8.961 -3.667,-16.294 -8.149,-16.294c-4.482,0 -8.149,7.331 -8.149,16.294c0,8.961 3.667,16.294 8.149,16.294c4.482,0 8.149,-7.331 8.149,-16.294zM446.918,462.371c0,-8.961 -3.667,-16.294 -8.149,-16.294c-4.482,0 -8.149,7.331 -8.149,16.294c0,8.961 3.667,16.294 8.149,16.294c4.482,0 8.149,-7.331 8.149,-16.294zM503.951,454.225c0,-8.961 -3.667,-16.294 -8.149,-16.294c-4.482,0 -8.149,7.331 -8.149,16.294c0,8.961 3.667,16.294 8.149,16.294c4.482,0 8.149,-7.331 8.149,-16.294zM536.542,454.225c0,-8.961 -3.667,-16.294 -8.149,-16.294c-4.482,0 -8.149,7.331 -8.149,16.294c0,8.961 3.667,16.294 8.149,16.294c4.482,0 8.149,-7.331 8.149,-16.294zM569.133,449.671c0,-6.457 -3.667,-11.74 -8.149,-11.74c-4.482,0 -8.149,7.548 -8.149,16.776c0,9.228 3.667,14.512 8.149,11.74c4.482,-2.772 8.149,-10.318 8.149,-16.776zM593.576,446.079c0,-8.961 -3.667,-16.294 -8.149,-16.294c-4.482,0 -8.149,7.331 -8.149,16.294c0,8.961 3.667,16.294 8.149,16.294c4.482,0 8.149,-7.331 8.149,-16.294zM626.167,446.079c0,-8.961 -3.667,-16.294 -8.149,-16.294c-4.482,0 -8.149,7.331 -8.149,16.294c0,8.961 3.667,16.294 8.149,16.294c4.482,0 8.149,-7.331 8.149,-16.294zM658.756,442.003c0,-6.721 -3.667,-12.221 -8.149,-12.221c-4.482,0 -8.149,5.5 -8.149,12.221c0,6.721 3.667,12.221 8.149,12.221c4.482,0 8.149,-5.5 8.149,-12.221zM715.215,431.819c-0.499,-19.561 -1.404,-20.335 -7.128,-6.111c-3.604,8.961 -4.963,19.046 -3.019,22.405c6.901,11.929 10.714,5.809 10.147,-16.294zM805.411,429.303c0,-14.539 -3.395,-22.827 -8.149,-19.887c-4.48,2.767 -8.149,13.984 -8.149,24.925c0,10.941 3.667,19.887 8.149,19.887c4.481,0 8.149,-11.217 8.149,-24.925zM689.785,437.319c-1.606,-4.819 -6.403,-8.76 -10.66,-8.76c-4.257,0 -9.054,3.941 -10.66,8.76c-1.606,4.819 3.19,8.76 10.66,8.76c7.47,0 12.264,-3.941 10.66,-8.76zM748.378,433.858c0,-6.721 -3.667,-12.221 -8.149,-12.221c-4.482,0 -8.149,5.5 -8.149,12.221c0,6.721 3.667,12.221 8.149,12.221c4.482,0 8.149,-5.5 8.149,-12.221zM838.001,413.005c0,-8.698 -3.667,-15.816 -8.149,-15.816c-4.482,0 -8.149,9.382 -8.149,20.848c0,11.824 3.525,18.67 8.149,15.815c4.481,-2.767 8.149,-12.153 8.149,-20.848zM870.592,413.968c0,-8.698 -3.667,-18.08 -8.149,-20.848c-4.621,-2.857 -8.149,3.991 -8.149,15.816c0,11.468 3.667,20.848 8.149,20.848c4.482,0 8.149,-7.114 8.149,-15.815zM895.034,404.859c0,-8.698 -3.667,-15.816 -8.149,-15.816c-4.482,0 -8.149,9.382 -8.149,20.848c0,11.824 3.526,18.67 8.149,15.815c4.481,-2.767 8.149,-12.153 8.149,-20.848zM654.335,381.461c2.578,-4.171 0.959,-9.886 -3.595,-12.703c-4.554,-2.817 -8.281,0.598 -8.281,7.583c0,14.312 4.89,16.42 11.875,5.116zM683.2,372.749c0,-4.481 -3.667,-8.149 -8.149,-8.149c-4.482,0 -8.149,3.667 -8.149,8.149c0,4.481 3.667,8.149 8.149,8.149c4.482,0 8.149,-3.667 8.149,-8.149zM748.378,364.602c0,-4.481 -3.667,-8.149 -8.149,-8.149c-4.482,0 -8.149,3.667 -8.149,8.149c0,4.481 3.667,8.149 8.149,8.149c4.482,0 8.149,-3.667 8.149,-8.149zM831.484,346.676c-7.604,-7.604 -9.778,-5.431 -9.778,9.778c0,15.209 2.173,17.383 9.778,9.778c7.604,-7.604 7.604,-11.948 0,-19.552zM859.092,342.238c-8.9,-8.9 -15.004,5.252 -8.614,19.975c6.061,13.961 6.499,13.945 9.876,-0.285c1.941,-8.194 1.376,-17.052 -1.262,-19.689zM257.504,381.085c-14.638,-17.095 -10.291,-21.452 9.123,-9.157c6.148,3.892 9.787,11.255 8.086,16.36c-1.87,5.611 -8.672,2.762 -17.209,-7.204zM281.929,366.571c-12.325,-7.64 -22.405,-16.483 -22.405,-19.651c0,-3.168 17.416,-7.957 38.702,-10.642c66.347,-8.365 99.753,-20.054 100.453,-35.149c0.391,-8.493 2.245,-9.958 4.753,-3.748c2.852,7.069 26.131,10.183 76.09,10.183c81.904,0 97.759,-3.95 97.759,-24.358c0,-12.063 10.156,-15.419 61.105,-20.191c49.947,-4.681 61.105,-8.266 61.105,-19.637c0,-11.394 7.739,-13.846 42.773,-13.563l42.773,0.347l2.433,-51.16c2.533,-53.266 17.937,-64.484 17.937,-13.06c0,16.935 3.307,26.473 8.149,23.481c4.481,-2.768 8.149,-13.985 8.149,-24.925c0,-10.94 3.667,-19.887 8.149,-19.887c4.481,0 8.187,17.416 8.239,38.702c0.047,21.286 2.322,52.203 5.051,68.701c4.513,27.299 7.814,30.485 36.607,35.347c41.747,7.051 34.082,16.519 -19.104,23.592c-204.078,27.134 -540.15,69.419 -552.236,69.482c-2.24,0.013 -14.156,-6.232 -26.481,-13.872zM736.156,299.419c2.767,-4.481 1.153,-8.149 -3.595,-8.149c-4.748,0 -8.627,3.667 -8.627,8.149c0,4.481 1.615,8.149 3.595,8.149c1.98,0 5.859,-3.667 8.627,-8.149zM284.611,310.964c0.391,-9.49 2.321,-11.423 4.922,-4.922c2.353,5.881 2.065,12.91 -0.643,15.617c-2.708,2.707 -4.632,-2.102 -4.279,-10.695zM808.595,109.988c-4.459,-10.084 -7.161,-13.865 -6.002,-8.41c3.955,18.607 -14.638,20.34 -33.016,3.076c-10.084,-9.472 -21.352,-14.44 -25.042,-11.038c-3.69,3.402 -4.838,-1.444 -2.554,-10.768c3.514,-14.35 0.625,-16.744 -18.823,-15.589c-12.64,0.751 -21.082,-1.703 -18.766,-5.449c7.917,-12.811 40.348,-6.843 54.852,10.101c11.083,12.943 17.068,14.773 25.474,7.798c13.684,-11.357 53.284,-2.326 53.284,12.154c0,5.863 -4.585,12.518 -10.183,14.791c-7.663,3.109 -7.159,6.27 2.038,12.775c10.783,7.627 10.727,8.658 -0.463,8.769c-6.978,0.067 -16.335,-8.123 -20.794,-18.207zM825.78,95.731c2.767,-4.48 1.153,-8.149 -3.595,-8.149c-4.748,0 -8.627,3.667 -8.627,8.149c0,4.481 1.615,8.149 3.595,8.149c1.98,0 5.859,-3.667 8.627,-8.149zM499.098,102.62c-3.435,-5.558 -2.253,-7.204 2.896,-4.023c4.792,2.961 10.006,1.495 11.591,-3.259c1.585,-4.754 8.312,-9.463 14.953,-10.462c6.639,-1.003 16.615,-4.658 22.163,-8.127c6.913,-4.318 8.563,-2.321 5.24,6.34c-2.668,6.952 -10.174,12.644 -16.681,12.644c-6.507,0 -9.563,3.667 -6.795,8.149c2.768,4.481 -2.299,8.149 -11.26,8.149c-8.961,0 -18.913,-4.234 -22.108,-9.407zM455.067,95.251c0,-4.747 3.667,-6.362 8.149,-3.594c4.482,2.768 8.149,6.653 8.149,8.626c0,1.975 -3.667,3.595 -8.149,3.595c-4.482,0 -8.149,-3.883 -8.149,-8.627zM572.768,95.02c-10.757,-17.402 10.945,-27.404 33.394,-15.39c18.104,9.688 22.117,9.608 28.556,-0.571c4.72,-7.459 7.537,-8.223 7.618,-2.065c0.233,18.249 -26.733,26.611 -38.254,11.863c-9.699,-12.415 -10.147,-12.352 -5.579,0.764c5.566,15.979 -16.354,20.578 -25.735,5.402zM662.577,63.547c2.632,-4.256 -3.208,-12.016 -12.974,-17.242c-15.18,-8.123 -17.023,-7.591 -12.703,3.667c2.778,7.241 1.5,13.171 -2.839,13.171c-4.342,0 -7.891,-5.283 -7.891,-11.74c0,-6.457 -4.059,-14.251 -9.022,-17.315c-6.07,-3.75 -7.222,0.094 -3.523,11.74c7.961,25.087 -10.595,21.802 -20.245,-3.585c-4.369,-11.496 -7.945,-22.495 -7.945,-24.442c0,-7.311 31.837,-3.207 36.746,4.738c2.813,4.554 7.969,6.519 11.454,4.362c3.485,-2.157 16.752,6.952 29.479,20.236c18.759,19.579 20.444,24.151 8.914,24.151c-7.825,0 -12.073,-3.482 -9.445,-7.738zM365.442,21.545c0,-4.009 8.867,-7.289 19.704,-7.289c10.837,0 26.419,-2.416 34.627,-5.371c8.209,-2.956 12.466,-2.632 9.46,0.715c-8.752,9.743 -63.787,20.056 -63.787,11.947zM499.879,22.399c-2.767,-4.48 -1.153,-8.149 3.595,-8.149c4.748,0 8.627,3.667 8.627,8.149c0,4.481 -1.615,8.149 -3.595,8.149c-1.98,0 -5.859,-3.667 -8.627,-8.149zM524.378,22.491c-2.855,-4.62 0.417,-5.984 7.666,-3.2c14.116,5.415 16.699,11.254 4.978,11.254c-4.216,0 -9.905,-3.622 -12.644,-8.053zM458.661,9.728c-15.187,-12.167 -15.088,-12.316 2.515,-3.786c10.084,4.885 18.331,10.588 18.331,12.67c0,6.233 -4.225,4.432 -20.848,-8.884z" /></svg>