<svg xmlns="http://www.w3.org/2000/svg" viewBox="0 0 1024 1024" width="1024" height="1024"><path d="M511.865,692.251l-0.988,-0.984c0,-0.984 -0.395,-1.376 -1.382,-1.376h-5.729c-0.988,0 -1.976,0.193 -2.568,0.392c-0.396,0.392 -0.593,0.392 -0.988,0.392c-0.395,0 -0.79,0.199 -1.383,0.392c-0.987,0 -1.581,0.392 -1.778,0.984c-0.395,0.592 -0.987,1.184 -2.173,1.775c-0.592,0 -1.383,0 -2.173,0.193c-0.987,0.199 -1.581,0.199 -2.173,0.199c-0.987,0.392 -1.778,0.392 -2.765,0.392c-0.987,0 -1.778,0.193 -2.766,0.392c-0.592,0 -1.185,-0.392 -1.778,-0.984l-1.382,-1.376c-2.766,-0.592 -4.939,-0.592 -6.322,0c-0.592,0.392 -0.987,0.592 -1.185,0.984c-0.198,0.392 -0.592,0.785 -1.186,1.376c-0.395,0.392 -0.592,0.392 -0.987,0.392c-0.593,0.392 -1.383,0.392 -1.976,0.392c-0.791,0 -1.383,0.199 -1.976,0.399c-0.988,0.392 -1.976,0.392 -2.964,0.392c-0.988,0 -2.37,0.193 -3.951,0.392h-2.765c-3.359,-0.984 -6.124,-0.984 -8.693,-0.392l-0.395,-0.392c-0.592,-0.592 -1.186,-1.576 -1.778,-2.759c-0.987,-2.161 -2.568,-2.946 -4.938,-2.161c-0.593,0 -1.186,0.392 -1.778,0.984c-1.186,0.592 -2.173,1.376 -3.161,2.161c-0.592,0.592 -1.383,0.984 -2.173,0.984c-0.592,0 -0.987,0.392 -1.383,0.984c0,1.184 -0.592,1.576 -1.778,0.984h-1.382c-0.988,-0.984 -1.976,-1.376 -2.964,-1.576c-0.987,-0.193 -2.173,-0.392 -3.359,-0.585l-0.987,0.392c0,0.984 -0.395,1.376 -0.988,1.376c-1.185,0.392 -2.765,0.392 -4.544,0.392c-1.185,0.392 -2.173,0.592 -2.963,0.592c-0.791,0.193 -1.976,0.193 -3.359,0.193c0,0.399 -0.197,0.399 -0.592,0.199c-0.395,-0.2 -0.593,-0.392 -0.593,-0.592v-2.361c0,-0.392 -0.395,-0.392 -1.382,-0.392c-1.581,0 -2.371,0.199 -2.766,0.392c0,0.592 -0.197,0.984 -0.395,1.376c-0.395,0.399 -0.592,0.791 -0.988,1.376c-0.395,1.184 -0.987,1.775 -2.173,1.775l-0.395,-0.392c0.395,-0.984 0.395,-1.576 0.395,-2.168c0,-0.592 0.198,-1.177 0.396,-1.769c0,-0.392 -0.197,-0.592 -0.396,-0.984c-0.395,-0.392 -0.592,-0.392 -0.987,0c-0.988,0 -1.581,0.392 -2.173,0.984c-0.396,0 -0.791,0.392 -1.383,0.984c-0.395,0.592 -0.592,1.376 -0.987,2.161c-0.396,0.984 -0.593,1.576 -0.988,2.168c-0.395,0.585 -0.987,0.984 -1.778,0.984h-3.951c-0.395,0 -0.395,-0.199 -0.395,-0.399v-3.145c0.987,-2.952 0.395,-6.097 -1.778,-9.05c0,-0.392 -0.395,-0.785 -0.987,-1.376c-0.593,-1.184 -0.988,-2.168 -0.988,-3.152c-0.395,-0.585 -0.395,-1.376 -0.395,-2.161c0,-0.984 -0.197,-1.769 -0.395,-2.753c-0.396,-0.592 -0.396,-1.376 -0.396,-1.968c0,-0.791 -0.395,-1.576 -0.987,-2.56c-0.592,-1.576 -0.988,-3.145 -1.383,-5.113c-0.395,-1.968 -0.395,-4.129 -0.395,-6.493c0,-1.181 -0.395,-2.952 -0.987,-5.509c-0.593,-1.18 -0.988,-2.558 -1.186,-3.935c-0.198,-1.377 -0.395,-2.557 -0.592,-3.345c-0.593,-1.771 -0.988,-3.345 -0.988,-4.525c0.395,-1.574 0,-3.345 -0.987,-5.509c-0.593,-2.164 -0.791,-3.738 -0.396,-4.919c0,-1.181 -0.395,-2.951 -0.987,-5.509c-0.592,-1.18 -0.988,-2.164 -0.988,-3.148c-0.987,-2.755 -1.185,-5.115 -0.987,-7.28c0.395,-1.771 0.395,-3.345 0,-4.525c-0.395,-2.164 -0.592,-4.132 -0.592,-5.903c-0.198,-1.771 -0.197,-3.541 -0.197,-4.919c0,-1.18 -0.198,-2.164 -0.396,-2.754c-0.395,-3.541 -1.185,-7.477 -2.765,-11.805c0,-1.771 0.395,-2.952 0.987,-3.541c0.395,-2.164 0.395,-4.132 0,-5.903c0,-0.59 -0.197,-1.18 -0.395,-1.771c-0.395,-0.59 -0.395,-1.18 -0.395,-1.771v-2.754c-0.592,-1.574 -0.988,-3.541 -1.383,-6.296c-0.395,-2.755 -0.197,-5.312 0.395,-7.673c0.396,-0.59 0.396,-1.18 0.198,-1.574c-0.198,-0.394 -0.198,-0.984 -0.198,-1.574c-0.987,-1.574 -1.382,-3.148 -1.58,-4.722c-0.198,-1.574 -0.197,-3.148 -0.197,-4.722c-0.593,-1.18 -0.988,-2.361 -0.988,-3.345c0,-0.984 -0.197,-2.164 -0.395,-3.345v-4.131c0.395,-1.181 0.395,-2.755 0,-4.526c-0.395,-1.18 -0.593,-2.361 -0.988,-3.541c-0.395,-1.18 -0.395,-2.557 -0.395,-4.131c-0.395,-1.574 -0.592,-3.541 -0.592,-5.903c-0.197,-2.361 -0.592,-4.132 -1.186,-5.509c-0.395,-1.574 -0.395,-3.148 -0.395,-4.722v-4.722c-0.395,-1.181 -0.395,-2.361 -0.395,-3.541v-4.132c0,-1.574 0,-2.951 0.197,-4.525c0.197,-1.574 0,-2.951 -0.197,-4.525c-0.988,-1.771 -0.988,-3.541 0,-5.509c0.395,-1.181 0.395,-2.558 0,-4.132c-0.593,-1.18 -0.988,-2.557 -0.988,-3.935c0,-1.378 0.395,-3.738 0.988,-7.082c0.592,-0.984 0.592,-1.968 0,-3.148c-1.186,-2.754 -1.186,-4.919 0,-6.689c0,-0.59 0,-0.983 0.197,-1.18c0.197,-0.197 0.197,-0.59 0.197,-1.18c0,-2.164 0,-4.132 0.197,-5.903c0.197,-1.771 0,-3.738 -0.592,-5.902c-0.988,-2.361 -0.791,-4.329 0.395,-5.903c0.395,-1.771 0.395,-3.541 0,-5.509c0,-1.771 0.395,-3.148 1.383,-4.131c0.592,-1.574 1.185,-3.345 1.778,-5.706c0.592,-2.164 1.185,-4.132 1.778,-5.706c2.173,-0.983 4.149,-1.377 5.927,-1.377c0.592,0 0.987,0.197 1.382,0.394c0.395,0 0.593,0.197 0.988,0.394c0.987,0.59 1.976,0.983 2.963,1.377c0.987,0.394 1.976,0.787 2.964,1.377c1.581,0 2.963,0.59 4.544,1.574c1.581,0.984 2.964,2.361 4.544,3.935c1.581,1.771 3.556,2.951 6.322,3.541c1.58,0.59 2.963,1.18 4.149,1.771c1.186,0.591 2.568,1.18 4.149,1.771c1.581,0.59 2.963,0.983 4.346,1.377c1.383,0.394 2.964,0.59 4.741,0.983c0.988,0.394 1.778,0.59 2.569,0.984c0.791,0.394 1.382,0.59 1.976,0.983c3.358,2.164 6.322,3.541 9.088,4.132c2.173,0.983 4.149,1.771 5.927,2.754c1.778,0.983 3.555,2.164 5.531,3.541c0.988,0.984 2.173,1.377 4.149,1.377c1.186,0 2.766,0.59 4.544,1.771c1.185,1.574 2.963,2.361 5.532,2.755c0.592,0.393 1.382,0.59 2.173,0.59c0.987,0.197 2.173,0.59 3.555,1.181c2.174,1.574 3.952,2.557 5.532,3.345c1.58,0.788 2.964,1.377 4.544,1.968c3.358,1.77 6.124,3.738 8.692,5.902c1.186,1.18 2.37,2.951 3.556,4.919c1.186,2.164 2.568,3.541 4.149,4.132l2.766,1.377c0.592,0.59 1.382,1.18 2.173,1.574c0.791,0.394 1.58,0.984 2.173,1.574c1.58,1.574 2.963,2.361 4.544,2.755c1.778,0.59 2.963,0.983 3.161,0.983c1.58,0.59 3.555,1.18 5.927,1.771c2.372,0.591 4.149,1.574 4.938,2.754c0.592,0.59 1.581,1.181 2.766,1.771c2.963,1.181 5.333,2.361 6.717,3.541c0.592,0.59 1.186,0.984 1.778,1.181c0.592,0.197 1.185,0.393 1.778,0.59c0.593,0.197 2.173,0.59 2.963,1.181c0.791,0.393 1.383,0.983 1.976,1.574c0.593,0.591 1.186,0.983 1.778,1.377c0.593,0.394 1.186,0.787 1.778,1.377c0.988,0.59 1.778,1.18 2.766,1.574c0.988,0.394 1.777,0.787 2.765,1.18c1.778,0.984 3.161,1.968 4.149,3.148c0.395,0.983 0.988,1.574 1.778,1.771c1.778,2.361 3.754,4.131 5.927,5.508c1.186,1.181 2.964,2.952 5.532,5.509c2.37,2.361 3.951,4.329 4.544,5.903c0.592,1.18 1.186,2.164 1.778,3.148c0.592,0.984 1.383,1.771 2.173,2.754c1.186,0.984 2.173,1.968 2.964,3.148c0.791,1.18 1.382,2.361 1.976,3.541c0.592,0.984 1.185,1.771 1.778,2.755c0.593,0.984 1.185,1.771 1.777,2.754c0.988,1.18 1.581,2.361 1.778,3.541c0.593,2.951 1.581,4.919 2.766,5.903c1.186,1.18 1.778,2.361 1.778,3.541c0,1.18 0.197,2.164 0.592,3.148c0.395,0.983 0.988,1.771 1.581,2.754c2.173,5.706 3.16,10.428 3.16,13.969c0,2.361 0.791,5.115 2.174,8.066c0.592,1.574 0.987,2.952 1.382,4.329c0.395,1.377 0.593,2.754 0.988,4.328c0.395,1.574 0.592,2.951 0.987,4.329c0.395,1.378 0.395,2.754 0.395,4.328c0,0.59 0.396,1.771 0.988,3.541c0.395,1.771 0.79,4.132 1.383,6.689c0,1.18 0,2.164 0.197,3.148c0.197,0.984 0.197,1.968 0.197,3.148c0,1.574 0,2.951 0.197,4.131c0.197,1.18 0.395,2.361 0.592,3.541c0.395,0.59 0.395,1.377 0.395,2.164c0,0.983 0.198,1.771 0.396,2.754c0,0.984 0.395,2.558 0.987,4.919c0.395,0.984 0.395,2.164 0.395,4.132v4.131c0,2.755 0.396,5.115 1.383,7.28c0.592,3.345 0.988,6.492 1.383,9.641c0.395,3.149 0.197,6.495 -0.395,10.232v0.984c0,2.361 -0.197,3.93 -0.396,4.721c-0.395,0.785 -0.79,1.968 -1.382,3.345l-1.383,2.753c-0.592,0.984 -1.186,1.376 -1.778,1.376h-4.938c-1.778,0.392 -3.556,0 -4.939,-0.984c-0.592,-0.392 -1.581,-0.392 -2.765,-0.392c-1.186,0.392 -2.964,0.392 -5.532,0.392h-5.927c-1.778,0 -2.964,0.199 -3.556,0.392c-1.186,0.399 -2.964,0.399 -5.532,0.399h-9.483c-1.58,0 -2.173,0.585 -2.173,1.769l-0.987,0.984c-0.593,0.592 -0.988,0.984 -1.383,0.984c-2.173,0.392 -4.149,0.592 -5.927,1.177c-1.778,0.399 -3.754,0.984 -5.927,1.576c-0.395,0 -0.79,-0.392 -1.383,-0.984v-1.769c-0.395,0 -0.395,0 -0.395,-0.199c0,-0.193 -0.197,-0.193 -0.395,-0.193c-0.988,0 -1.581,0.392 -1.778,0.984c-0.395,0.392 -0.592,0.585 -0.592,0.984c-0.197,0.392 -0.396,0.585 -0.593,0.977c0,0.592 -0.395,0.984 -0.987,0.984c-0.592,0 -1.186,0 -1.778,0.199c-0.592,0.199 -1.186,0.199 -1.778,0.199h-0.592c-0.593,-0.592 -0.988,-0.984 -1.383,-0.984l-1.383,1.376c-0.592,0.592 -1.382,0.984 -2.173,0.984c-2.765,0 -5.532,0.585 -8.297,1.376zM560.858,491.767c-1.186,-0.59 -2.964,-1.18 -5.532,-1.574c-2.37,-0.394 -4.149,-0.984 -5.532,-1.574c-2.765,-1.771 -5.532,-3.738 -8.297,-5.706c-2.963,-1.968 -5.532,-4.132 -7.902,-6.492c-0.592,-0.59 -1.383,-1.18 -1.976,-1.771c-0.79,-0.59 -1.581,-1.18 -2.568,-1.771c-0.988,-2.754 -1.778,-4.525 -2.766,-5.115c-0.987,-0.787 -1.976,-1.377 -3.16,-1.968c-0.593,-0.394 -1.186,-0.59 -1.778,-0.983c-0.592,-0.393 -1.186,-0.787 -1.778,-1.378c-1.186,-1.574 -2.569,-2.754 -4.149,-3.541c-1.581,-0.983 -2.766,-2.164 -3.556,-3.541c-0.592,-0.59 -1.383,-0.984 -2.173,-1.378c-0.988,-0.393 -2.766,-0.787 -5.532,-1.377c-1.778,-0.59 -3.359,-1.18 -4.544,-1.771c-2.371,-1.771 -4.544,-2.951 -6.322,-3.148c-3.951,-1.18 -7.902,-2.951 -11.854,-5.509c-0.987,-0.59 -1.778,-0.983 -2.568,-1.377c-0.79,-0.394 -1.581,-0.787 -2.568,-1.377c-2.37,-0.59 -4.544,-1.574 -6.124,-2.951c-1.58,-1.377 -3.161,-2.755 -4.742,-4.329c-1.778,-2.164 -4.938,-3.935 -9.483,-5.509c-1.58,-0.983 -2.37,-2.164 -2.765,-4.131c-0.592,-1.574 -1.383,-2.755 -1.976,-3.541c-0.79,-0.984 -1.383,-1.771 -1.976,-2.755c-1.186,-0.983 -2.37,-1.574 -3.556,-2.164c-2.173,-0.394 -3.754,-1.378 -4.938,-3.148c-0.988,-0.983 -2.173,-1.967 -4.149,-3.148c-1.581,-0.393 -2.766,-0.983 -3.556,-2.164c-1.186,-0.984 -2.37,-1.771 -3.359,-2.558c-0.989,-0.787 -2.173,-1.574 -3.359,-2.557c-1.581,-0.984 -2.963,-1.968 -4.544,-2.952c-1.581,-0.984 -3.161,-1.968 -4.939,-2.951c-0.395,-0.394 -0.592,-0.59 -0.987,-0.59c-0.395,-0.197 -0.592,-0.59 -0.988,-1.18c-1.58,-0.983 -3.16,-1.771 -4.741,-2.557c-1.581,-0.786 -3.161,-1.378 -4.741,-1.968c-0.988,-0.394 -1.581,-0.984 -1.778,-1.771c-0.593,-1.181 -0.988,-2.164 -0.988,-2.755c-0.395,-0.393 -0.395,-0.787 -0.395,-1.377c0.395,-1.18 0.592,-2.557 0.592,-4.131c0.197,-1.575 0.593,-3.148 1.186,-4.919c0.592,-0.983 1.185,-1.967 1.581,-3.148c0.396,-1.181 1.185,-2.164 2.568,-3.148c2.37,-2.361 4.741,-4.722 7.112,-7.083c2.173,-2.164 4.149,-4.525 5.729,-7.083c1.185,-2.164 2.765,-4.131 4.544,-5.902c1.581,-1.574 2.765,-2.952 3.556,-4.526c0.987,-1.574 1.976,-2.951 3.16,-4.525c0.988,-1.574 1.976,-3.148 2.964,-5.115c0.988,-1.967 2.173,-3.935 3.359,-5.706c0.592,-0.59 0.987,-1.18 1.382,-1.771c0.395,-0.591 0.791,-1.18 1.383,-1.771c0.987,-0.983 1.778,-1.967 2.765,-2.951c0.987,-0.984 1.778,-1.968 2.766,-2.951c1.185,-0.984 2.765,-2.164 4.544,-4.132c1.581,-0.983 3.161,-1.574 4.741,-2.164c1.58,-0.59 4.149,-1.181 7.507,-1.771c1.778,-0.59 3.556,-1.181 5.137,-1.771c1.581,-0.59 3.359,-1.181 5.137,-1.771c2.37,-1.574 4.741,-2.361 7.309,-2.755c1.186,-0.59 2.37,-1.18 3.556,-1.574c1.186,-0.394 2.37,-1.18 3.556,-1.968c1.778,-0.983 3.556,-1.771 5.532,-2.754c1.778,-0.984 3.556,-1.574 5.532,-2.164c1.185,-0.59 2.173,-0.983 3.16,-0.983c0.988,-0.394 2.568,-0.59 4.939,-0.59c2.37,-0.197 4.149,-0.59 4.938,-1.18c0.592,-0.394 0.988,-0.394 1.383,-0.394c0.395,0 0.79,-0.197 1.383,-0.394c0.592,0 1.185,0 1.778,-0.197c0.593,-0.197 1.185,-0.197 1.777,-0.197c2.371,0 4.742,-0.196 7.112,-0.393c2.173,-0.394 4.544,-0.59 7.112,-0.984h3.556c3.555,0.59 7.111,0 10.47,-1.771c0.987,-0.393 2.37,-0.393 4.544,-0.393h8.1c1.778,0 3.556,-0.394 4.939,-0.984c1.185,-0.59 2.963,-0.983 5.532,-0.983c2.173,0.983 4.149,1.18 6.322,0.983h0.395c0.592,0.394 1.186,0.394 1.581,0.394c0.395,0 0.987,0.197 1.581,0.394c1.778,0.59 3.556,0.983 5.532,1.377c1.777,0.394 3.555,0.983 5.531,1.771c3.951,1.771 8.495,3.738 13.631,5.902c2.173,0.984 3.951,1.574 5.137,2.164c1.383,0.59 2.568,1.18 3.951,1.771l5.532,2.754c2.765,1.575 5.333,3.935 7.705,7.28c0.592,0.984 1.185,1.771 1.976,2.755c0.791,0.984 1.382,1.771 1.976,2.754c0.395,0.59 0.395,1.377 0.395,2.164c-0.395,1.574 -0.592,2.951 -0.592,4.525c-0.197,1.574 -0.593,2.951 -1.186,4.525c-0.592,1.771 -0.987,3.541 -1.383,5.115c-0.396,1.574 -0.592,3.148 -0.987,4.722c0,2.951 -0.791,5.705 -2.173,8.066c-0.988,2.361 -1.778,4.919 -2.766,7.477c-0.988,2.558 -2.173,5.115 -3.555,7.476c-0.396,0.59 -0.593,1.378 -0.593,2.164c-0.197,0.983 -0.395,1.574 -0.592,2.164c-0.592,1.18 -0.988,2.361 -1.186,3.345c-0.198,0.984 -0.592,2.361 -1.185,3.935c-1.186,6.099 -2.766,11.214 -4.544,15.739c-0.395,0.59 -0.592,1.378 -0.987,2.164c-0.395,0.984 -0.791,1.574 -1.383,2.164c-1.778,1.574 -2.765,2.951 -2.765,4.131c0,1.574 -1.186,3.541 -3.556,5.903c-0.592,0.59 -1.186,1.18 -1.581,1.574c-0.395,0.394 -0.79,0.984 -1.185,1.574c-0.593,1.18 -1.186,2.755 -1.778,4.526c-0.593,1.574 -1.383,2.951 -2.174,4.525c-1.185,1.771 -2.173,3.541 -2.765,4.919c-0.592,1.771 -1.186,3.541 -1.581,5.509c-0.395,1.771 -0.79,3.345 -1.185,4.525c-0.395,0.984 -0.396,2.164 -0.396,4.132c-0.395,1.574 -0.592,3.148 -0.987,4.722c-0.395,1.574 -0.79,3.148 -1.383,4.722c-0.395,0.394 -0.79,1.574 -1.382,3.541c-0.593,1.771 -1.186,2.951 -1.778,3.541c-1.778,2.361 -2.964,4.329 -3.161,5.903c-0.395,0.59 -0.592,1.18 -0.988,1.574c-0.396,0.394 -0.592,0.983 -0.987,1.574c-1.581,1.771 -2.963,4.525 -4.149,7.87c-1.186,3.541 -2.568,6.492 -4.149,8.854c-0.592,0.984 -1.186,1.968 -1.778,2.951c-0.592,0.983 -1.383,1.968 -2.173,2.952c-1.778,2.164 -3.161,4.722 -4.149,7.673c-0.396,0.394 -0.593,0.59 -0.593,0.984c-0.197,0.59 -0.592,0.787 -0.79,1.18zM644.818,360.735c0.592,1.181 1.185,1.968 1.778,2.164c0.395,0.983 1.382,1.968 3.16,3.148c2.37,1.181 4.544,2.951 6.322,5.509c1.58,2.754 2.37,4.132 2.765,4.132c0.988,2.164 1.778,3.934 2.568,5.705c0.791,1.574 1.383,3.148 1.976,4.722c1.186,2.361 2.172,4.131 2.764,4.919c0.592,0.59 0.991,1.377 1.19,1.967c0.193,0.787 0.592,1.378 1.184,1.968c1.184,2.164 2.174,4.132 3.158,6.099c0.991,1.968 1.975,4.131 3.165,6.492c0.592,0.983 1.184,1.968 1.975,2.951c0.785,0.984 1.383,1.968 1.975,2.952c0.984,1.574 1.576,3.345 1.775,5.508c0.399,0.984 0.399,1.968 0.399,3.148c0,1.18 0.193,2.164 0.392,3.148c0.592,1.574 0.991,3.148 1.383,4.722c0.392,1.574 0.592,3.148 0.984,4.722c0.399,1.771 0.598,3.541 0.598,5.115c0.193,1.574 0.392,3.345 0.592,5.115c0,1.771 0.392,4.132 0.984,7.28c0.592,2.361 1.19,4.722 1.975,7.083c0.791,2.164 1.383,4.525 1.975,7.083c0.598,4.131 1.383,7.673 2.174,10.624c0.991,2.951 1.583,5.508 2.174,7.87v1.377c1.583,3.541 2.174,6.886 2.174,10.034c0,0.59 0.199,1.181 0.392,1.771c0.399,0.59 0.592,1.181 0.991,1.771c0.392,0.984 0.392,2.361 0.392,4.526v3.148c0,2.164 0.199,4.328 0.399,6.689c0.392,2.361 0.592,5.706 0.984,10.034c0.399,1.18 0.399,2.361 0.399,3.345c0,0.984 0.392,2.164 0.984,3.345v2.164c0.592,1.771 0.592,3.935 0,6.296c0,1.771 0.199,3.148 0.399,4.132c0,1.771 -0.199,3.148 -0.399,4.131c0,0.59 -0.193,1.377 -0.392,1.968c-0.399,0.787 -0.399,1.574 -0.399,2.558c0.598,1.18 0.598,2.164 0.199,3.148c-0.392,0.983 -0.791,1.968 -1.184,3.148c0,0.59 -0.399,0.983 -1.383,0.983c-0.991,0.394 -1.782,0.394 -2.766,0.394c-0.991,0 -1.583,0.197 -2.174,0.394c-0.592,-0.59 -0.984,-0.983 -0.984,-1.377c0,-1.574 -0.991,-1.771 -3.165,-0.984c-0.392,0.394 -1.383,0.984 -3.158,2.164c-1.583,0.983 -2.567,1.18 -3.165,0.983c-0.984,0 -1.576,0.197 -2.168,0.394c-0.592,0.394 -1.19,0.787 -1.782,1.377c-1.184,1.771 -2.567,2.755 -3.95,2.755c-1.383,0 -2.567,-0.394 -3.95,-0.984c-0.991,0 -1.583,-0.59 -2.174,-1.771c-0.592,-0.983 -1.583,-1.377 -3.158,-1.377c-1.187,0.394 -3.36,0.394 -6.324,0.394c-0.987,0 -1.581,0.983 -1.778,2.754c0,1.181 -0.987,2.361 -2.765,3.541h-2.569c-0.987,0 -1.976,0.394 -2.568,0.984c-1.581,0 -2.963,-0.984 -4.149,-2.755c-0.592,-0.983 -0.988,-0.983 -1.383,0c-0.395,1.181 -0.79,2.361 -1.383,3.541c-0.592,0.394 -1.58,0.394 -2.765,0.394c-2.963,0.984 -5.532,0.197 -7.31,-2.164c-0.987,-1.771 -1.778,-1.771 -2.765,0c-0.592,1.771 -1.581,3.148 -3.161,4.132c-1.185,1.18 -2.173,1.968 -2.765,2.164c-0.395,0.393 -0.592,0.393 -0.592,0.393c-0.197,0 -0.396,0.197 -0.593,0.394c-1.185,0 -1.976,-0.394 -2.173,-0.983c0,-0.59 -0.592,-0.984 -1.778,-0.984l-0.987,0.394c-0.592,1.181 -1.186,2.164 -1.778,2.755c-1.778,0.59 -3.161,0.983 -4.149,0.983c0,-0.394 0,-0.59 -0.197,-0.59c-0.198,-0.197 -0.197,-0.393 -0.197,-0.59c0.395,-0.59 0.395,-1.181 0.395,-1.968c0,-0.787 0.197,-1.377 0.395,-1.968c0,-1.18 -0.197,-1.968 -0.395,-2.164c-0.988,-2.754 -1.581,-5.115 -1.976,-7.28c-0.395,-2.165 -0.988,-3.934 -1.581,-5.508c-0.592,-2.164 -1.976,-3.935 -4.149,-5.509c-2.766,-3.345 -4.742,-6.492 -6.124,-9.64c-1.382,-3.148 -2.766,-6.493 -4.347,-9.641c-0.592,-1.18 -0.987,-1.968 -0.987,-2.164c-0.592,-2.361 -1.186,-4.131 -1.778,-5.508c-0.592,-0.59 -0.987,-1.574 -1.383,-2.755c-0.396,-1.181 -0.395,-3.148 -0.395,-5.902c0,-1.574 -0.395,-2.952 -0.987,-4.132c-0.988,-1.771 -1.383,-3.738 -1.581,-5.706c-0.198,-1.968 0,-3.934 0.197,-5.705c0.395,-2.952 1.186,-5.903 2.765,-8.657c0.593,-2.164 1.383,-4.132 2.173,-5.903c0.988,-1.771 1.778,-3.541 2.766,-5.509c2.37,-3.541 4.149,-9.247 4.938,-17.117c0,-2.164 0.988,-4.131 2.766,-5.902c2.173,-1.574 3.556,-3.148 4.544,-4.919c0.592,-1.574 1.186,-2.952 1.976,-4.526c0.79,-1.574 1.581,-2.951 2.569,-4.525c1.58,-2.164 2.173,-3.935 2.173,-5.509c0.592,-1.771 1.185,-3.345 1.778,-4.525c0.395,-0.984 0.592,-1.771 0.987,-2.755c0.395,-0.984 0.395,-1.771 0.395,-2.754c0.395,-1.771 0.593,-4.132 1.186,-6.689c0.395,-2.754 0.987,-4.722 1.581,-6.296c0.592,-1.181 0.987,-2.361 1.382,-3.345c0.395,-0.984 0.593,-2.361 0.988,-3.935c0.395,-1.574 1.581,-5.903 2.765,-8.657c0.395,-0.59 0.593,-1.18 0.593,-1.574c0.197,-0.394 0.395,-0.984 0.592,-1.574c0.592,-1.574 1.185,-2.952 1.778,-4.329c0.593,-1.377 1.185,-2.754 1.778,-4.328c0.592,-1.574 1.185,-2.951 1.58,-4.526c0.395,-1.575 1.186,-3.345 1.976,-5.508c0.396,-0.59 0.593,-1.378 0.593,-2.164c0.197,-0.983 0.592,-1.968 1.185,-3.148c0.396,-0.59 0.396,-1.377 0.396,-2.164c0,-0.787 0.197,-1.574 0.395,-2.164c0.592,-1.574 1.185,-2.951 1.778,-4.131c0.593,-1.18 1.185,-2.558 1.778,-4.132c0.592,-0.59 0.987,-0.983 1.382,-0.983c2.173,0.983 3.359,1.377 4.939,2.361z" /></svg>