<svg xmlns="http://www.w3.org/2000/svg" viewBox="0 0 1024 1024" width="1024" height="1024"><path d="M651.597,176.739c0.319,-0.04 0.551,0.038 0.711,0.197c0.319,0.318 0.642,0.316 0.961,0.316l6.697,2.224c0.638,0 0.961,-0.001 0.961,0.316c0.319,0.318 0.951,0.329 1.908,0.329c1.595,1.906 3.517,3.169 5.75,3.487c0.958,0.953 1.915,1.902 2.553,2.855c0.638,0.953 1.596,1.915 2.553,2.868h0.632c0.957,0.953 1.592,2.216 1.592,3.487c0.956,0.953 1.605,2.229 1.605,3.5c0.957,0.952 1.592,1.902 1.592,2.855v6.355c-0.634,0.953 -0.632,1.902 -0.632,2.855c0,0.953 -0.328,1.915 -0.645,2.868c-0.64,2.541 -0.645,3.811 -0.645,4.447c0,0.636 -0.629,1.271 -1.592,2.224c-0.957,0.953 -1.587,2.218 -1.908,3.171c-0.319,1.271 -0.964,2.543 -1.921,4.132c0,0.636 0.003,0.961 -0.316,0.961c-0.319,0.318 -0.316,0.629 -0.316,0.947c0,0.636 -0.01,0.632 -0.329,0.632c-0.319,0 -0.316,0.327 -0.316,0.645c-0.957,0.953 -1.589,1.904 -1.908,2.539c-0.319,0.635 -0.964,1.586 -1.921,2.539c-0.638,0.636 -0.954,0.632 -1.592,0.632c-1.914,0.953 -3.194,1.592 -3.513,1.592c-0.638,0.636 -0.954,0.632 -1.592,0.632l-1.592,1.592v0.632c0,0.954 0.003,1.588 -0.316,2.224c-0.319,0.636 -0.329,1.271 -0.329,2.224c0,0.953 0.003,1.902 -0.316,2.855c-0.319,0.953 -0.003,1.915 0.316,2.868v7.303c-0.638,1.588 -0.632,2.858 -0.632,4.447c0,1.589 -0.313,2.547 -0.632,3.5c-0.638,1.907 -1.28,4.443 -2.237,7.303c0,0.953 0.003,1.589 -0.316,2.224c-0.319,0.635 -0.329,0.957 -0.329,1.592c-0.638,0.953 -0.947,1.902 -0.947,2.855c-0.319,0.953 -0.642,1.902 -0.961,2.855c0,0.636 0.003,0.961 -0.316,0.961c-0.319,0.318 -0.329,0.629 -0.329,0.947v5.092l-2.224,15.237c0,1.589 -0.326,2.547 -0.645,3.5c0,0.635 0.003,0.947 -0.316,0.947c-0.32,0.318 -0.316,0.643 -0.316,0.961l-2.237,4.447c-0.957,1.906 -1.599,3.49 -2.237,5.079c0,1.589 -0.313,2.547 -0.632,3.5c0,0.954 -0.326,1.589 -0.645,2.224l-0.632,0.632c-0.956,1.589 -2.237,2.547 -3.513,3.5c-0.638,0.635 -0.632,0.947 -0.632,0.947c0,0.318 -0.326,0.643 -0.645,0.961l-0.632,1.579c0,0.636 -0.01,0.961 -0.329,0.961c-0.32,0.318 -0.316,0.955 -0.316,1.908c0,0.635 0.003,0.944 -0.316,1.579c-0.319,0.635 -0.316,0.956 -0.316,1.592l-6.066,4.447c-1.914,1.907 -3.504,3.182 -4.461,3.5c-0.957,0.953 -1.605,1.577 -1.605,1.895c0,0.318 -0.313,0.955 -0.632,1.908l-2.237,4.447c-0.638,0.953 -0.947,1.59 -0.947,1.908c-0.32,0.317 -0.642,0.955 -0.961,1.908c-2.552,4.448 -5.103,8.256 -7.974,11.75l-6.697,6.671c-0.957,0.954 -1.605,1.589 -1.605,2.224c-0.638,0.954 -0.954,1.918 -1.592,2.553c-0.638,0.635 -0.954,1.586 -1.592,2.539c-0.638,0.635 -0.961,0.957 -0.961,1.592c-0.318,0.635 -0.628,0.944 -0.947,1.579l-0.645,0.645c-0.638,0.953 -1.592,2.216 -2.868,3.487c0,1.906 -0.326,3.494 -0.645,4.447c0,0.953 0.003,2.231 -0.316,3.184c-0.319,1.271 -0.316,2.218 -0.316,3.171c-0.638,0.636 -0.645,0.957 -0.645,1.592h0.645c0.638,0 0.954,-0.327 1.592,-0.645c1.914,-1.905 3.51,-3.494 5.105,-4.447c0.957,-0.953 1.911,-1.579 2.868,-1.579l1.592,-1.592c1.914,-0.953 3.197,-1.59 3.197,-1.908c0.32,-0.317 0.958,-1.265 2.553,-3.171c2.552,-1.588 3.823,-3.185 4.461,-5.092l1.592,-1.579c0.638,-1.588 1.606,-2.551 2.882,-2.868c1.914,-1.907 3.188,-3.169 4.145,-3.487c0.638,-0.636 2.224,-1.271 4.776,-2.224c0.957,-0.952 1.925,-1.592 2.882,-1.592c1.914,-0.953 3.823,-1.588 5.737,-2.224c1.914,-0.636 3.823,-1.271 5.737,-2.224c0.957,-0.636 1.599,-0.632 2.237,-0.632c0.638,0 1.28,-0.327 2.237,-0.645c2.552,-0.635 4.468,-0.943 6.382,-1.579c1.595,-0.636 3.507,-1.271 5.421,-2.224l2.868,-1.592c0.957,-0.635 1.915,-0.957 2.553,-1.592c0.638,-0.635 1.596,-0.944 2.553,-1.579c0.638,-0.636 1.28,-0.645 2.237,-0.645h5.092c0.957,0 1.6,0.002 2.237,-0.316c0.64,-0.318 0.952,-0.316 1.592,-0.316l2.882,-1.592c1.913,-0.953 3.824,-1.591 5.737,-1.908c1.913,-0.317 3.83,-0.63 5.75,-0.947c0.633,0 0.947,0.002 0.947,-0.316c0.316,-0.318 0.637,-0.316 0.96,-0.316h3.513c0.957,-0.636 1.585,-0.645 1.908,-0.645c0.317,0 0.964,-0.626 1.921,-1.579c0.957,-0.953 1.591,-1.59 2.224,-1.908c0.64,-0.317 1.28,-0.955 2.237,-1.908c0.634,0 0.632,0.002 0.632,-0.316c0,-0.318 0.328,-0.316 0.645,-0.316c0.957,0 1.913,-0.011 2.553,-0.329c0.64,-0.318 1.596,-0.316 2.553,-0.316c0.956,-0.636 1.911,-0.632 3.184,-0.632c1.28,0 2.24,-0.314 3.197,-0.632c0.957,-0.636 2.867,-1.271 5.737,-2.224c0.956,-0.635 1.912,-0.957 2.868,-1.592c0.956,-0.635 1.911,-0.957 2.868,-1.592c0.64,-0.636 1.6,-1.271 3.513,-2.224c2.554,-0.953 4.469,-1.902 6.382,-2.855c1.597,-0.953 3.508,-2.229 5.421,-3.5l4.461,-2.224c2.87,-0.953 4.793,-1.579 5.75,-1.579c0.64,-0.636 0.947,-0.645 0.947,-0.645c0.324,0 0.644,-0.314 0.961,-0.632c0.956,-0.952 1.924,-1.904 3.197,-2.539c1.273,-0.635 2.227,-1.586 3.184,-2.539l0.645,-1.592v-3.5c0,-3.494 0.309,-6.028 0.632,-7.934v-5.724c0,-0.954 0.322,-1.589 0.645,-2.224v-0.947c0.634,-0.953 0.961,-2.229 0.961,-3.5c0.317,-1.589 0.951,-2.534 1.908,-3.487c1.913,-2.86 3.19,-5.083 3.513,-6.671c0.634,-0.636 0.632,-0.961 0.632,-0.961c0,-0.318 0.315,-0.629 0.632,-0.947c0.957,-0.953 1.926,-1.588 2.882,-2.224c0.956,-0.636 1.911,-1.271 2.868,-2.224c0.64,0 0.947,0.001 0.947,-0.316c0.324,-0.318 0.644,-0.329 0.961,-0.329c1.596,-0.635 3.192,-0.944 4.789,-1.579c1.589,-0.635 3.192,-0.957 4.789,-1.592c1.913,-0.953 3.502,-1.592 5.092,-1.592c0.64,-0.636 1.6,-0.632 3.513,-0.632c0.957,0.636 1.597,0.632 2.237,0.632c0.634,0 1.267,0.327 2.224,0.645h1.605c0.64,0 0.947,-0.001 0.947,0.316c0.317,0.318 0.644,0.316 0.961,0.316c0.956,0.635 1.917,0.957 3.197,1.592c1.273,0.635 2.227,0.943 3.184,1.579c0.64,0 0.961,-0.001 0.961,0.316c0.323,0.318 0.63,0.329 0.947,0.329c1.914,2.86 3.517,4.758 4.474,5.711c0.64,0.636 0.645,0.961 0.645,0.961c0,0.317 0.309,0.63 0.632,0.947c0,0.635 0.635,1.593 1.592,3.5c0.64,0.952 0.952,1.903 1.592,2.855c0.64,0.952 0.965,1.902 1.605,2.855c0.634,0.635 1.267,1.594 2.224,3.5c0.64,0.635 0.645,0.957 0.645,1.592v5.711c0,1.907 -0.322,3.818 -0.645,5.724v1.579c0,1.589 0.001,2.862 -0.316,4.132c-0.317,1.27 -0.316,2.231 -0.316,3.184c-0.64,0.953 -0.645,1.591 -0.645,1.908c0,0.317 -0.315,0.955 -0.632,1.908c0,0.953 -0.648,1.902 -1.605,2.855c-0.956,1.907 -1.911,3.806 -2.868,5.395l-2.868,4.763l-1.592,1.592c-0.957,0.953 -1.92,1.591 -2.553,1.908c-0.64,0.318 -1.596,0.955 -2.553,1.908c-0.64,0 -0.952,0.314 -1.592,0.632c-1.596,0.636 -3.192,1.271 -5.105,2.224c-0.957,0 -1.598,-0.002 -1.921,0.316c-0.317,0.318 -0.951,0.316 -1.908,0.316h-3.513c-0.633,0 -0.952,0.328 -1.592,0.645h-0.632c-1.913,1.589 -4.472,3.173 -7.342,5.079c-0.956,0.953 -2.227,1.904 -3.184,2.539c-1.273,0.635 -2.24,1.586 -3.197,2.539l-2.237,2.224c-0.957,1.906 -2.22,3.504 -3.5,5.092c-0.957,0.954 -1.925,1.589 -2.882,2.224c-0.957,0.953 -1.584,1.59 -2.224,1.908c-0.64,0.318 -1.28,0.942 -2.237,1.895c-0.957,0 -1.592,0.639 -1.592,1.592l-2.237,4.447c-0.64,0.953 -1.267,1.902 -2.224,2.855c-0.64,0.954 -0.965,1.588 -1.605,2.224c-0.64,0.636 -0.952,1.271 -1.592,2.224c-0.641,0.636 -0.961,0.645 -0.961,0.645c-0.316,0 -0.63,0.315 -0.947,0.632c-2.554,0.954 -4.469,1.589 -6.382,2.224c-1.597,0.636 -3.829,1.271 -6.382,2.224c-0.957,0.636 -1.913,0.961 -2.553,0.961c-0.634,0.318 -1.59,0.942 -2.553,1.895c-0.957,0.636 -1.92,0.961 -2.553,0.961c-0.64,0.318 -1.596,0.629 -2.553,0.947l-4.461,4.447c-0.957,0.953 -1.913,1.588 -2.553,2.224c-0.64,0.636 -1.596,1.271 -2.553,2.224c-1.914,0.952 -3.511,1.915 -4.474,2.868c-1.914,0.953 -3.504,1.579 -4.461,1.579l-8.934,4.447l-2.237,1.592l-4.461,4.447l-1.592,1.592c-0.957,0.635 -1.913,0.947 -2.553,0.947c-0.64,0.318 -1.596,0.643 -2.553,0.961c-0.956,0 -2.233,0.635 -3.513,2.224c-0.957,0.635 -1.591,0.947 -1.908,0.947c-0.317,0.318 -0.964,0.643 -1.921,0.961c2.23,1.589 1.286,2.224 0.329,2.224l-1.592,0.632c-2.553,0.635 -6.07,1.581 -10.855,3.487c-0.957,0.953 -1.911,1.592 -2.868,1.592c-0.958,0.953 -2.547,1.902 -4.461,2.855c-0.958,0.953 -1.925,1.592 -2.882,1.592h-0.632c-0.957,0.636 -1.915,0.961 -2.553,0.961c-0.638,0.317 -1.596,0.63 -2.553,0.947h-6.382c-0.956,0 -2.237,0.639 -3.513,1.592c-0.957,0.953 -2.227,1.904 -3.184,2.539c-1.276,0.635 -2.227,1.586 -3.184,2.539c-2.872,2.541 -5.741,5.087 -7.974,7.947c-0.956,0.953 -1.605,1.588 -1.605,2.224c-0.638,0.952 -0.632,1.903 -0.632,2.855c0,0.952 -0.326,1.902 -0.645,2.855v2.224c0.957,0.953 1.925,2.865 2.882,5.724c0.638,0.635 0.632,0.947 0.632,0.947c0,0.318 0.313,0.644 0.632,0.961c0.957,0.954 1.602,1.588 1.921,2.224c0.319,0.636 0.951,1.271 1.908,2.224c0,0.635 0.01,0.944 0.329,1.579c0.319,0.635 0.316,0.957 0.316,1.592c0.638,0.954 0.632,1.588 0.632,2.224c0,0.636 0.326,1.271 0.645,2.224c0,0.635 0.635,2.233 1.592,5.092c0.957,1.906 1.599,3.804 2.237,5.711c0.638,1.907 1.28,3.818 2.237,5.724c0,0.635 -0.004,0.944 0.316,1.579c0.32,0.635 0.316,0.957 0.316,1.592v5.724c0,0.953 -0.003,1.591 0.316,1.908c0.319,0.317 0.316,0.63 0.316,0.947c0,0.636 0.326,0.632 0.645,0.632c0.638,0.953 0.961,1.915 0.961,2.868c0.319,0.952 0.628,1.902 0.947,2.855c0.638,0.953 1.28,2.865 2.237,5.724c0,0.953 -0.003,1.904 0.316,2.539c0.319,0.635 0.329,1.586 0.329,2.539c0,1.905 0.313,3.494 0.632,4.447v0.632c0,2.542 0.326,4.453 0.645,5.724c0,2.542 0.313,4.44 0.632,5.711h0.645c0.957,2.86 1.592,4.771 1.592,5.724c0.957,1.906 1.592,3.49 1.592,5.079c0.638,0.952 0.632,2.54 0.632,4.447v7.947c0.638,1.906 1.606,3.805 2.882,5.711v10.803c0.957,4.766 1.911,8.579 2.868,10.803v2.868c0.957,1.906 1.27,3.49 0.632,5.079v6.039c0,0.635 0.326,1.58 0.645,3.487c0.638,0.636 0.632,1.271 0.632,2.224c0.638,0.953 0.645,2.55 0.645,5.092c0,0.954 -0.326,1.589 -0.645,2.224v6.671c-0.638,4.448 -0.638,8.57 0,12.382v7.947c0.957,1.906 0.957,3.49 0,5.079v34.947c0,0.95 -0.635,1.905 -1.592,2.855c-0.957,0.957 -1.599,1.591 -2.237,1.908c-0.638,0.317 -1.267,0.958 -2.224,1.908c-0.958,0.64 -1.925,1.274 -2.882,2.224c-0.638,0.64 -0.947,0.959 -0.947,1.592c-0.319,0.633 -0.964,0.959 -1.921,1.592c-0.638,1.59 -1.592,2.538 -2.868,2.855c-0.637,0.64 -2.234,1.58 -5.105,3.487c-0.957,0.957 -1.592,1.591 -1.592,2.224c-0.956,0.633 -1.911,1.593 -2.868,3.5l-2.237,2.855l-2.868,2.868c-1.914,0.95 -4.471,2.848 -7.342,5.711c-0.958,0.95 -1.586,1.591 -2.224,1.908c-0.638,0.323 -0.967,0.958 -1.605,1.908c-0.638,0.64 -0.947,0.946 -0.947,1.579c-0.319,0.633 -0.642,0.959 -0.961,1.592c-1.914,1.907 -3.823,4.453 -5.737,7.316c-0.638,0.633 -0.961,0.946 -0.961,1.579c-0.319,0.64 -0.964,0.959 -1.921,1.592c-0.957,0.633 -2.223,1.595 -3.5,2.868l-8.934,8.882c-0.957,0.633 -1.915,0.952 -2.553,1.592c-0.638,0.633 -1.596,0.959 -2.553,1.592c0,0.64 -0.635,1.267 -1.592,2.224c-0.957,1.906 -1.911,3.49 -2.868,4.447c-0.957,1.907 -1.925,3.177 -2.882,3.5c-0.638,0 -0.632,0.315 -0.632,0.632c-1.914,0.95 -2.868,1.591 -2.868,1.908c0,0.317 -0.968,1.264 -2.882,3.171c-1.914,2.547 -3.184,3.5 -3.184,3.5c-0.319,0 -1.593,1.264 -4.145,3.487l-0.645,0.632c-0.957,0.633 -1.589,0.958 -1.908,1.592c-0.319,0.634 -0.951,1.274 -1.908,2.224l-2.237,2.224c0,0.335 -0.197,0.598 -0.368,0.868c-2.057,-17.158 -7.214,-45.44 -17.539,-67.237c5.516,27.583 3.854,60.789 1.539,81.75c-0.26,0.36 -0.508,0.657 -0.855,0.829c-0.638,0.317 -1.28,0.945 -2.237,1.895l-2.237,2.224c-1.594,1.59 -2.549,2.543 -2.868,3.5c-1.914,1.907 -3.504,3.496 -4.461,5.079c-2.87,2.863 -5.428,5.094 -7.342,6.684l-2.237,2.224c-0.957,0.633 -1.589,0.939 -1.908,1.579c-0.319,0.634 -0.964,1.267 -1.921,2.224c-1.914,0.95 -3.181,1.905 -3.5,2.855l-2.237,2.224l-6.697,8.895c-0.957,0.957 -1.592,1.597 -1.592,2.237c-0.957,0 -1.592,0.629 -1.592,1.579h-1.605c-0.638,-0.633 -0.954,-0.947 -1.592,-0.947c-0.638,-0.317 -0.954,-0.958 -1.592,-1.908l-0.645,-0.632c-1.914,-2.546 -3.826,-4.455 -5.421,-6.355c-1.595,-1.59 -3.507,-3.808 -5.421,-6.355l-2.237,-2.224c-2.552,-0.633 -4.148,-1.582 -5.105,-2.855c-2.871,-1.906 -4.78,-3.502 -5.737,-5.092c0,-0.634 -0.313,-0.632 -0.632,-0.632l-6.697,-8.895l-8.934,-8.895c-0.638,-0.95 -0.967,-1.591 -1.605,-1.908c-0.575,-0.285 -0.911,-0.57 -1.434,-0.855c-4.826,-31.227 -9.947,-97.978 1.224,-167.487c-24.625,61.563 -29.174,113.071 -28.105,140.776l-0.382,-0.382c-0.638,-0.64 -0.961,-0.959 -0.961,-1.592c-0.319,-0.64 -0.964,-0.959 -1.921,-1.592c-0.638,-0.633 -0.954,-0.947 -1.592,-0.947c-0.638,-0.323 -1.28,-0.958 -2.237,-1.908c-0.638,-0.64 -0.947,-0.645 -0.947,-0.645c-0.32,0 -0.642,-0.315 -0.961,-0.632c-0.638,-0.957 -0.954,-1.59 -1.592,-2.224c-0.638,-0.634 -0.954,-1.274 -1.592,-2.224l-2.237,-2.224c-0.957,-0.64 -1.599,-0.959 -2.237,-1.592c-0.638,-0.633 -1.28,-0.946 -2.237,-1.579c-0.956,-0.95 -1.911,-1.92 -2.868,-2.553c-0.957,-0.633 -1.911,-1.589 -2.868,-2.539c-0.638,-0.64 -0.961,-0.946 -0.961,-1.579c-0.319,-0.64 -0.628,-0.959 -0.947,-1.592c-1.914,-1.906 -3.194,-3.497 -3.513,-4.447c-0.957,-0.957 -1.911,-1.591 -2.868,-2.224c-0.638,-0.956 -1.599,-1.911 -3.513,-2.868c-0.638,-0.95 -0.954,-1.585 -1.592,-1.908c-0.638,-0.316 -0.954,-0.63 -1.592,-0.947c-0.638,-0.957 -0.967,-1.591 -1.605,-2.224c-0.638,-0.64 -0.954,-1.274 -1.592,-2.224l-2.237,-2.224c-0.638,0 -0.632,0.007 -0.632,-0.316c0,-0.317 -0.313,-0.316 -0.632,-0.316c-1.595,-1.583 -2.234,-2.224 -2.553,-2.224c-0.319,0 -0.964,-0.948 -1.921,-2.855l-2.237,-4.447l-2.224,-2.237c-0.957,-0.633 -1.911,-0.946 -2.868,-1.579c-0.957,-0.64 -1.925,-1.274 -2.882,-2.224c-1.594,-0.64 -2.549,-1.595 -2.868,-2.868l-4.461,-4.447c-0.638,-0.949 -0.954,-1.576 -1.592,-2.21c-0.638,-0.634 -0.967,-1.274 -1.605,-2.224c-0.638,-0.956 -1.267,-1.911 -2.224,-2.868c-0.638,-0.634 -0.645,-1.267 -0.645,-2.224v-0.632c0,-0.633 0.003,-0.952 -0.316,-1.592c-0.319,-0.633 -0.316,-0.952 -0.316,-1.592c0,-3.806 -0.326,-6.672 -0.645,-8.895c-0.638,-1.906 -0.632,-4.754 -0.632,-7.934c0,-0.953 -0.01,-1.588 -0.329,-2.224c-0.319,-0.636 -0.316,-1.271 -0.316,-2.224c0,-0.953 -0.003,-1.59 0.316,-1.908c0.319,-0.318 0.329,-0.955 0.329,-1.908v-4.132c-0.638,-0.953 -0.645,-2.54 -0.645,-4.447c-0.638,-1.588 -0.961,-3.175 -0.961,-4.763c-0.318,-1.588 -0.628,-3.174 -0.947,-4.763v-5.092c0,-1.588 -0.004,-2.859 0.316,-4.447c0.32,-1.588 0.316,-2.858 0.316,-4.447c0.957,-2.859 1.592,-5.397 1.592,-7.303v-1.592c0.638,-1.589 0.645,-3.809 0.645,-7.303c-0.638,-0.953 -0.645,-2.537 -0.645,-5.079v-9.855c0.638,-1.588 1.28,-4.122 2.237,-7.934c0.638,-0.952 0.645,-1.903 0.645,-2.539c0,-0.636 0.313,-1.6 0.632,-2.553v-13.026c0.638,-0.954 0.645,-1.588 0.645,-2.224c0,-0.636 0.313,-1.271 0.632,-2.224c0,-1.588 0.326,-2.537 0.645,-2.855c0.957,-2.859 1.586,-5.397 2.224,-7.303c0.957,-2.859 1.592,-5.082 1.592,-6.671c0.638,-1.588 1.28,-4.135 2.237,-7.947c0.638,-0.636 0.645,-1.271 0.645,-2.224c0,-0.954 -0.009,-1.588 -0.329,-2.224c-0.32,-0.636 -0.316,-1.271 -0.316,-2.224v-4.447c0.638,-0.635 0.645,-0.947 0.645,-0.947c0,-0.318 0.313,-0.644 0.632,-0.961c0.957,-1.907 1.599,-3.169 2.237,-3.487v-2.224c0,-0.635 0.313,-0.957 0.632,-1.592v-3.816c0,-1.589 0.648,-3.173 1.605,-5.079l0.632,-0.632l4.461,-10.803c0.638,-0.636 0.645,-1.271 0.645,-2.224c0,-2.859 0.313,-5.082 0.632,-6.671c0,-0.952 0.326,-1.915 0.645,-2.868c0.957,-1.905 1.911,-3.494 2.868,-4.447l0.645,-1.579v-2.224c0,-1.588 0.313,-2.55 0.632,-2.868v-3.487c0.638,-0.953 0.961,-1.591 0.961,-1.908c0.32,-0.318 0.642,-0.955 0.961,-1.908c1.914,-3.811 3.504,-6.984 4.461,-9.526c1.595,-1.588 2.237,-3.185 2.237,-5.092c0.957,-2.541 1.586,-4.436 2.224,-6.342c0.638,-1.588 0.967,-3.814 1.605,-6.355c0,-0.636 0.635,-1.271 1.592,-2.224c0.957,-1.906 1.911,-3.494 2.868,-4.447c0,-0.953 0.313,-1.592 0.632,-1.592v-0.316l-0.632,-0.645c-2.552,-2.541 -4.468,-4.764 -6.382,-6.671c-1.595,-1.906 -3.507,-4.129 -5.421,-6.671c-0.638,-0.636 -1.28,-0.632 -2.237,-0.632l-0.632,-0.632c-1.914,-0.635 -3.827,-0.957 -5.421,-1.592c-1.594,-0.635 -3.52,-0.956 -5.434,-1.592c-0.956,-0.635 -1.901,-0.947 -2.539,-0.947c-0.638,-0.318 -1.596,-0.629 -2.553,-0.947c-0.638,-0.636 -0.967,-0.645 -1.605,-0.645c-2.871,-1.907 -5.102,-3.17 -6.697,-3.487c-0.638,0 -0.632,-0.011 -0.632,-0.329c0,-0.318 -0.326,-0.316 -0.645,-0.316c-1.595,-0.953 -2.234,-1.579 -2.553,-1.579c-0.319,0 -0.951,-0.639 -1.908,-1.592c-1.595,-0.953 -2.869,-1.902 -4.145,-2.855c-1.276,-0.953 -2.55,-1.915 -4.145,-2.868c-1.595,-0.953 -3.517,-2.537 -5.75,-5.079l-2.868,-2.855c-0.957,-0.636 -1.599,-0.645 -2.237,-0.645c-0.638,0 -1.267,-0.314 -2.224,-0.632h-1.605c-0.957,-0.635 -1.589,-0.947 -1.908,-0.947c-0.319,-0.318 -0.964,-0.644 -1.921,-0.961c-1.914,-0.953 -3.504,-1.902 -4.461,-2.855c-0.638,0 -0.632,0.002 -0.632,-0.316c0,-0.318 -0.326,-0.316 -0.645,-0.316c-0.957,-0.953 -1.592,-1.589 -1.592,-2.224c-1.594,-1.588 -3.191,-3.495 -5.105,-6.671c-0.957,-1.588 -2.231,-3.187 -4.145,-4.776c-1.595,-1.589 -3.194,-3.488 -4.789,-5.395l-2.237,-2.224c-2.871,-1.907 -4.773,-3.182 -5.092,-3.5c-0.638,-0.636 -0.961,-0.632 -0.961,-0.632c-0.319,0 -0.642,-0.314 -0.961,-0.632c-0.638,-1.589 -1.599,-3.173 -3.513,-5.079l-2.224,-2.224c-0.957,-0.635 -1.599,-0.957 -2.237,-1.592c-0.638,-0.635 -1.28,-0.957 -2.237,-1.592c-0.638,0 -1.267,-0.639 -2.224,-1.592c-0.957,-0.953 -1.602,-1.588 -1.921,-2.224c-0.319,-0.636 -0.951,-1.271 -1.908,-2.224c-0.638,-0.953 -1.606,-2.216 -2.882,-3.487l-2.224,-3.5l-3.513,-2.224c-1.914,-0.953 -3.826,-1.901 -5.421,-3.171c-1.595,-1.27 -3.507,-2.231 -5.421,-3.184c-0.956,-0.953 -2.24,-1.904 -3.197,-2.539c-1.276,-0.635 -2.227,-1.586 -3.184,-2.539c0,-0.636 0.003,-0.632 -0.316,-0.632c-0.319,0 -0.329,-0.327 -0.329,-0.645c-0.958,-0.952 -1.586,-1.904 -2.224,-2.539c-0.638,-0.635 -1.28,-1.586 -2.237,-2.539c-0.638,-0.636 -0.632,-1.271 -0.632,-2.224c-0.957,-2.541 -1.599,-4.765 -2.237,-6.671c-0.638,-1.906 -0.954,-4.13 -1.592,-6.671l-0.645,-1.592v-3.487c0.957,-1.906 1.602,-3.819 1.921,-5.408c0.319,-1.589 0.951,-3.488 1.908,-5.395c0,-1.588 0.326,-2.537 0.645,-2.855c0,-0.635 0.313,-0.957 0.632,-1.592l2.237,-4.447c0.957,-0.952 2.553,-1.915 5.105,-2.868c0,-0.636 0.313,-0.632 0.632,-0.632c0.638,-0.636 1.28,-0.632 2.237,-0.632c1.595,-0.636 3.191,-0.632 5.105,-0.632c0.638,0 0.954,-0.328 1.592,-0.645c2.871,-0.953 4.78,-1.579 5.737,-1.579c0,-0.636 0.648,-0.645 1.605,-0.645h0.632c1.595,0 2.549,0.327 2.868,0.645c2.552,0.635 4.468,0.943 6.382,1.579c1.595,0.635 3.507,0.957 5.421,1.592h1.592c0.638,0.636 0.961,0.632 0.961,0.632c0.32,0 0.642,0.327 0.961,0.645h0.632l2.553,2.539c0.638,0.635 1.596,1.586 2.553,2.539c0.957,1.588 1.925,3.494 2.882,6.671c0.638,0.635 0.632,0.956 0.632,1.592c0.638,1.906 1.28,4.443 2.237,7.303v4.447c0,0.635 -0.01,0.947 -0.329,0.947c-0.32,0.318 -0.316,0.643 -0.316,0.961v3.171c0,0.317 0.635,0.95 1.592,2.539l3.513,3.5c0,0.636 0.635,1.271 1.592,2.224c1.594,1.589 3.507,3.173 6.697,5.079c1.595,0.954 2.882,1.588 4.158,2.224c1.276,0.636 2.227,0.957 3.184,1.592c2.552,0.953 4.79,2.231 7.342,3.184c2.552,1.271 4.777,2.218 7.329,3.171h0.645c0.958,0.952 1.586,1.592 2.224,1.592l3.513,3.487c0.638,0.636 0.961,0.645 0.961,0.645c0.32,0 0.642,0.314 0.961,0.632c0,0.636 0.635,0.632 1.592,0.632l19.776,4.447c0.957,0.636 1.599,0.632 2.237,0.632c0.638,0 1.267,0.328 2.224,0.645c0.956,0 1.921,-0.002 3.197,0.316c1.276,0.318 2.227,0.316 3.184,0.316h5.105c0.638,0 0.954,0.314 1.592,0.632c1.596,0.635 2.869,0.956 4.145,1.592c1.276,0.636 2.24,0.957 3.197,1.592l1.592,1.592c1.594,0.953 3.191,2.541 5.105,4.447c0.957,0.954 1.592,1.589 1.592,2.224c0.957,0.953 1.602,1.904 1.921,2.539c0.319,0.635 0.951,1.586 1.908,2.539c0,0.636 0.635,1.271 1.592,2.224c1.914,1.905 3.194,3.494 3.513,4.447c0.957,0.953 1.599,1.592 2.237,1.592c0,0.953 0.635,1.579 1.592,1.579l9.566,9.539c0.956,0 1.911,0.626 2.868,1.579l8.934,6.671c0,0.636 0.326,0.645 0.645,0.645l2.224,2.224c0.957,0.636 1.915,0.944 2.553,1.579c0.638,0.635 1.596,0.957 2.553,1.592l4.474,4.447l0.632,0.632c0.638,0 0.645,0.011 0.645,0.329c0,0.318 0.313,0.316 0.632,0.316c1.914,0.954 3.51,1.589 5.105,2.224c0.638,0 1.28,0.626 2.237,1.579c0.957,0.635 1.586,0.957 2.224,1.592c0.638,0.635 1.28,0.957 2.237,1.592c0.957,0.953 1.592,0.953 1.592,0c0.638,0 0.645,-0.315 0.645,-0.632c0.638,0 0.632,-0.328 0.632,-0.645c-0.638,0 -0.632,-0.314 -0.632,-0.632c-0.957,-1.588 -1.911,-2.861 -2.868,-4.132c-0.957,-1.271 -1.925,-2.544 -2.882,-4.132l-2.224,-2.224c-1.594,-1.589 -2.549,-2.534 -2.868,-3.487c-0.638,-0.952 -0.961,-1.904 -0.961,-2.539c-0.319,-0.636 -0.964,-1.6 -1.921,-2.553l-1.592,-1.579c-0.957,-0.636 -1.915,-0.957 -2.553,-1.592c-0.638,-0.635 -1.596,-0.957 -2.553,-1.592c-0.638,-0.635 -0.954,-0.947 -1.592,-0.947c-0.638,-0.317 -0.954,-0.955 -1.592,-1.908c-1.596,-1.588 -2.879,-2.858 -4.474,-4.447c-1.595,-1.589 -2.543,-3.173 -3.5,-5.079c-0.958,-0.954 -1.915,-1.918 -2.553,-2.553c-0.638,-0.635 -1.596,-1.586 -2.553,-2.539l-2.868,-2.855l-2.237,-3.5c-0.957,-1.906 -1.589,-3.171 -1.908,-3.171c-0.319,-0.318 -0.958,-0.95 -2.553,-2.539c-0.638,-0.635 -0.961,-0.957 -0.961,-1.592c-0.319,-0.636 -0.964,-1.271 -1.921,-2.224c-0.638,-0.635 -0.632,-0.956 -0.632,-1.592c0,-0.636 -0.326,-1.271 -0.645,-2.224l-2.224,-4.447c-0.958,-1.907 -1.915,-3.806 -2.553,-5.395c-0.638,-1.589 -1.596,-3.501 -2.553,-5.408l-2.237,-4.447c0,-1.588 -0.313,-2.534 -0.632,-3.487c0,-0.953 -0.648,-2.54 -1.605,-4.447c-1.914,-3.494 -3.497,-6.678 -5.092,-9.855c-1.595,-3.177 -3.191,-6.348 -5.105,-9.842v-0.632c0,-0.636 -0.01,-0.645 -0.329,-0.645c-0.319,0 -0.316,-0.315 -0.316,-0.632v-2.224c0.638,-3.495 0.635,-6.667 0.316,-9.526c-0.319,-2.859 -0.316,-6.045 -0.316,-9.539v-3.487c0.638,-1.588 0.645,-3.5 0.645,-5.724v-1.592c-0.638,0 -0.645,0.002 -0.645,-0.316c0,-0.318 -0.313,-0.316 -0.632,-0.316c-0.638,-0.635 -0.961,-0.957 -0.961,-1.592c-0.32,-0.635 -0.642,-0.944 -0.961,-1.579c-0.638,0 -1.28,-1.276 -2.237,-3.5c-0.638,-0.953 -0.632,-1.589 -0.632,-2.224c0,-0.635 -0.326,-0.956 -0.645,-1.592c-0.638,-0.635 -0.632,-0.947 -0.632,-0.947c0,-0.318 -0.313,-0.643 -0.632,-0.961c-1.595,-1.589 -2.563,-2.534 -2.882,-3.487c-0.638,0 -0.954,-0.315 -1.592,-0.632v-0.645c-0.638,-1.589 -0.632,-3.487 -0.632,-5.711c-0.638,-0.635 -0.645,-1.597 -0.645,-2.868v-3.487c0,-2.542 -0.313,-4.126 -0.632,-5.079v-1.592c-0.638,-1.906 -0.645,-3.184 -0.645,-3.184c0,-0.317 0.635,-0.95 1.592,-2.539c1.914,-2.859 4.471,-6.346 7.342,-10.158l0.632,-0.645c1.914,-2.86 3.51,-4.758 5.105,-5.711c0,-0.636 0.648,-0.645 1.605,-0.645v-0.632l15.303,-4.447h1.592c1.914,0.636 4.471,1.271 7.342,2.224c0.638,0 1.28,0.639 2.237,1.592c1.914,0.953 3.51,2.216 5.105,3.487c0.638,0 1.267,0.639 2.224,1.592c2.551,2.859 4.151,4.771 4.789,5.724c0.638,0.953 1.912,3.177 4.145,6.671c0.638,0.636 0.645,1.271 0.645,2.224v10.158c-0.957,2.542 -1.602,4.774 -1.921,7.316c-0.319,2.542 -0.951,4.762 -1.908,7.303c0,1.589 -0.635,3.173 -1.592,5.079c0,0.954 -0.326,1.589 -0.645,2.224l0.645,0.645c0.638,0.952 1.267,1.902 2.224,2.855c1.914,1.588 4.471,4.135 7.342,7.947l1.592,1.579c0.638,0.952 0.954,2.231 1.592,3.184c0.638,1.272 0.954,2.543 1.592,4.132c0,0.635 0.01,0.947 0.329,0.947c0.32,0.318 0.316,0.63 0.316,0.947c0.638,0.953 0.632,1.591 0.632,1.908c0,0.317 0.326,0.955 0.645,1.908c0.956,2.859 1.911,5.41 2.868,7.316v0.632c1.914,3.812 3.517,6.985 4.474,9.526c0,0.636 -0.003,0.961 0.316,0.961c0.32,0.318 0.316,0.942 0.316,1.895c0.638,0 0.645,0.011 0.645,0.329c0,0.318 0.313,0.316 0.632,0.316l1.592,1.579l4.474,2.224c0.957,0.954 1.592,1.589 1.592,2.224c0.957,0.954 1.589,1.588 1.908,2.224c0.319,0.636 0.964,1.271 1.921,2.224c0.638,0.635 0.632,0.956 0.632,1.592c0,0.636 0.648,0.632 1.605,0.632l4.461,4.461l1.592,1.579c0.638,0.953 0.961,1.915 0.961,2.868c0.319,0.953 0.642,1.902 0.961,2.855c0,0.636 0.635,1.271 1.592,2.224c2.552,1.906 4.138,3.17 4.776,3.487c0.638,0.635 2.237,1.593 4.789,3.5c0.956,0.635 2.237,1.584 3.513,2.855c1.914,0.952 3.51,2.231 5.105,3.184c1.595,1.271 3.191,2.218 5.105,3.171c0.957,0.953 2.547,1.902 4.461,2.855l4.461,2.237c1.914,0.953 3.194,1.579 3.513,1.579c1.914,0.954 3.51,1.589 5.105,2.224h2.868c3.508,0 5.747,-0.315 7.342,-0.632h1.592c1.594,0 2.549,-0.315 2.868,-0.632c1.914,-0.636 3.836,-1.271 5.75,-2.224l4.461,-2.224c0.957,-1.907 1.599,-3.182 2.237,-3.5c0.957,-1.906 1.589,-2.855 1.908,-2.855c0.319,0 1.283,-0.639 3.197,-1.592c0.638,-0.636 0.954,-0.632 1.592,-0.632c0.638,0 0.954,-0.327 1.592,-0.645c0.638,0 1.28,-0.626 2.237,-1.579c1.594,-1.906 3.181,-3.818 4.776,-5.724c1.595,-1.906 3.194,-4.129 4.789,-6.671c0.957,-0.952 1.599,-1.902 2.237,-2.855c0.638,-0.953 0.954,-1.902 1.592,-2.855c0.957,-0.953 1.589,-1.592 1.908,-1.592c0.319,0 0.964,-0.639 1.921,-1.592c0.957,-0.635 1.586,-0.956 2.224,-1.592c0.638,-0.636 1.28,-0.944 2.237,-1.579c0.957,0 1.592,-0.639 1.592,-1.592c0.638,-0.953 0.967,-1.591 1.605,-1.908c0.638,-0.317 0.954,-0.955 1.592,-1.908c0.638,-0.954 0.954,-1.588 1.592,-2.224c0.638,-0.636 0.954,-1.271 1.592,-2.224c1.914,-1.905 3.194,-3.494 3.513,-4.447c0.638,-0.953 0.954,-1.904 1.592,-2.539c0.638,-0.635 0.954,-1.586 1.592,-2.539c0.957,-2.859 1.605,-4.761 1.605,-5.079c0.957,-2.859 1.592,-4.771 1.592,-5.724c1.914,-2.859 3.194,-4.762 3.513,-5.079l0.632,-0.645c0.957,-1.907 1.592,-3.169 1.592,-3.487l0.645,-0.645c0.958,-1.906 1.586,-3.805 2.224,-5.711c0.638,-1.906 1.28,-3.818 2.237,-5.724c0,-0.954 -0.003,-1.588 0.316,-2.224c0.319,-0.636 0.329,-1.271 0.329,-2.224c0.957,-2.86 1.592,-4.758 1.592,-5.711c0.638,-0.953 0.632,-2.229 0.632,-3.5c0,-0.952 0.01,-1.903 0.329,-2.855c0.319,-0.952 0.316,-1.915 0.316,-2.868c0,-0.954 -0.004,-1.588 0.316,-2.224c0.32,-0.636 0.316,-1.271 0.316,-2.224c0.957,-1.906 1.592,-3.49 1.592,-5.079v-1.592c-0.638,-0.953 -1.592,-2.216 -2.868,-3.487c-0.638,-0.954 -0.954,-1.588 -1.592,-2.224c-0.638,-0.636 -0.954,-1.271 -1.592,-2.224c-1.594,-2.541 -3.191,-5.088 -5.105,-7.947c-0.638,-0.635 -0.632,-0.947 -0.632,-0.947c0,-0.318 -0.326,-0.644 -0.645,-0.961v-11.434c0.638,-0.953 0.645,-1.904 0.645,-2.539c0,-0.635 0.313,-1.586 0.632,-2.539c0.638,-0.953 0.954,-1.902 1.592,-2.855c0.638,-0.953 0.954,-1.915 1.592,-2.868l1.605,-1.579c0.958,-0.953 1.586,-1.59 2.224,-1.908c0.638,-0.318 1.28,-0.955 2.237,-1.908l1.592,-1.592h0.645c1.914,-0.952 3.509,-1.903 5.105,-2.855c1.596,-0.952 2.866,-1.915 4.461,-2.868c0.957,0 1.592,-0.314 1.592,-0.632h2.237l1.592,-0.632h2.868c2.552,0 4.79,-0.315 7.342,-0.632c0.957,0 1.589,-0.011 1.908,-0.329c0.319,-0.318 0.964,-0.316 1.921,-0.316c0.478,-0.317 0.878,-0.473 1.197,-0.513zM198.703,436.17l2.237,2.224c1.594,0.954 3.507,2.852 6.697,5.711l2.868,2.868l3.513,2.855c1.914,1.907 4.471,3.817 7.342,5.724c0.958,0.952 2.547,1.902 4.461,2.855c1.595,0.953 3.194,2.229 4.789,3.5c1.595,1.589 3.507,2.534 5.421,3.487c1.914,1.589 3.823,2.861 5.737,4.132c1.914,1.271 3.823,2.218 5.737,3.171c1.914,0.954 3.839,1.918 5.434,2.553c1.595,0.635 3.507,1.586 5.421,2.539c0.638,0.636 0.947,0.632 0.947,0.632c0.32,0 0.642,0.315 0.961,0.632c0.958,0 1.915,-0.002 2.553,0.316c0.638,0.318 1.596,0.329 2.553,0.329c0.638,0 0.954,-0.002 1.592,0.316c0.638,0.318 0.967,0.316 1.605,0.316l2.868,1.592c2.87,0.953 5.102,1.579 6.697,1.579c1.595,0.636 3.181,0.957 4.776,1.592c1.595,0.635 3.52,0.957 5.434,1.592c0.957,0.636 1.915,0.632 2.553,0.632c0.638,0 1.596,0.315 2.553,0.632h0.632c1.594,0 3.507,0.639 6.697,1.592c0.957,0 1.592,0.315 1.592,0.632c0.958,0.636 1.925,0.645 2.882,0.645c0.957,0 1.911,0.314 2.868,0.632h2.868c1.594,0 3.19,0.639 5.105,1.592h1.592c1.596,0.953 2.865,1.579 4.461,1.579c1.596,0 2.879,0.328 4.474,0.645h2.237c0.638,0.636 1.267,0.632 2.224,0.632h2.868c0.956,0 1.921,-0.002 3.197,0.316c1.276,0.318 2.227,0.316 3.184,0.316c0.638,0 0.961,-0.001 0.961,0.316c-0.318,0.953 0.326,1.276 0.645,1.276c0.638,0 0.954,-0.002 1.592,0.316c0.638,0.318 0.954,0.316 1.592,0.316c-4.785,16.519 -9.883,38.44 -14.987,66.079c-0.358,1.938 -0.591,3.974 -0.921,5.934c-11.597,-1.966 -37.093,-4.29 -64.855,6.289c23.504,-0.281 48.937,5.931 62.408,9.724c-2.665,21.366 -3.722,44.027 -3.013,68.276c-0.957,0.952 -2.237,1.592 -3.513,1.592c0,0.636 -0.326,0.632 -0.645,0.632c-0.957,0.953 -1.901,1.59 -2.539,1.908c-0.638,0.318 -1.596,0.643 -2.553,0.961c-0.958,0.954 -1.915,1.589 -2.553,2.224c-0.638,0.635 -1.596,0.943 -2.553,1.579c-0.957,0.952 -2.56,1.915 -4.474,2.868c-1.595,0.953 -3.181,2.218 -4.776,3.171c-1.594,1.272 -3.194,2.546 -4.789,4.132l-2.868,1.592c-1.594,1.59 -3.194,2.857 -4.789,4.447c-1.595,1.59 -3.194,3.172 -4.789,5.079c-1.914,0.95 -4.458,2.861 -7.329,5.724c-0.638,0.95 -0.961,1.585 -0.961,1.908c-0.32,0.317 -0.642,0.945 -0.961,1.895l-2.224,2.237h-0.645v-0.645c-0.638,0 -0.632,-0.315 -0.632,-0.632c0,-2.54 -0.326,-4.451 -0.645,-5.724v-1.592c-0.957,-2.857 -1.592,-5.396 -1.592,-7.303c-0.638,-0.64 -0.632,-1.582 -0.632,-2.855c-0.957,-1.907 -1.599,-3.821 -2.237,-5.724c-0.638,-1.906 -1.28,-3.805 -2.237,-5.711c-0.638,-1.906 -0.954,-3.503 -1.592,-5.092c-0.638,-1.589 -0.954,-3.173 -1.592,-5.079c-0.638,0 -0.645,-0.314 -0.645,-0.632c-0.957,-1.588 -1.915,-3.175 -2.553,-4.763c-0.638,-1.588 -1.596,-3.187 -2.553,-4.776c-0.957,-1.588 -1.915,-2.859 -2.553,-4.447c-0.638,-1.588 -1.596,-2.859 -2.553,-4.447c-1.914,-2.86 -4.458,-6.346 -7.329,-10.158v-0.645c-1.595,-1.588 -2.869,-2.858 -4.145,-4.447c-1.276,-1.589 -2.55,-2.534 -4.145,-3.487c-3.828,-3.495 -7.665,-6.353 -10.855,-8.895l-2.224,-2.224c-0.638,0 -0.967,-0.327 -1.605,-0.645c-1.594,-0.953 -3.181,-1.902 -4.776,-2.855c-1.595,-0.953 -3.194,-1.902 -4.789,-2.855c-0.638,0 -0.954,-0.315 -1.592,-0.632c-0.957,0 -1.592,-0.635 -1.592,-2.224v-2.224c0,-1.906 -0.003,-3.504 0.316,-5.092c0.319,-1.588 0.316,-2.858 0.316,-4.447c0.638,-1.589 0.645,-3.487 0.645,-5.711v-3.5c-0.638,-1.589 -0.648,-2.861 -0.329,-4.132c0.319,-1.271 0.329,-2.544 0.329,-4.132c0.638,-1.589 0.632,-3.487 0.632,-5.711c0,-4.765 -0.313,-8.264 -0.632,-10.171v-10.171c0.638,-0.953 0.632,-2.537 0.632,-5.079c-0.638,-3.813 -0.638,-7.934 0,-12.382c0,-2.542 -0.313,-4.139 -0.632,-5.092c0,-2.542 -0.326,-4.44 -0.645,-5.711v-12.395c-0.638,-0.953 -0.632,-2.229 -0.632,-3.5c-0.638,-1.588 -0.645,-2.858 -0.645,-4.447c0,-1.589 -0.313,-3.172 -0.632,-5.079v-5.079c0,-1.588 -0.009,-3.174 -0.329,-4.763c-0.32,-1.589 -0.316,-3.502 -0.316,-5.408c-0.638,-1.906 -0.961,-3.805 -0.961,-5.711c-0.319,-1.906 -0.628,-4.13 -0.947,-6.671c-0.638,-1.589 -0.961,-2.861 -0.961,-4.132c-0.32,-1.271 -0.316,-2.543 -0.316,-4.132v-3.816c-0.638,-0.952 -0.645,-1.902 -0.645,-2.855c0,-0.953 -0.313,-1.915 -0.632,-2.868c0,-1.905 -0.326,-3.494 -0.645,-4.447c0,-1.588 -0.313,-2.537 -0.632,-2.855c0,-0.636 0.313,-0.632 0.632,-0.632zM830.952,436.173h0.632v1.263h-0.947c-0.64,0.953 -0.645,2.551 -0.645,5.092c-0.957,2.86 -1.592,4.758 -1.592,5.711c-0.957,2.859 -1.592,5.723 -1.592,7.947c0,1.588 -0.006,3.174 -0.329,4.763c-0.317,1.588 -0.316,3.174 -0.316,4.763c-0.64,1.906 -0.961,3.503 -0.961,5.092c-0.323,1.589 -0.63,3.172 -0.947,5.079c0,0.635 -0.006,0.956 -0.329,1.592c-0.317,0.636 -0.316,1.271 -0.316,2.224v2.224c0,4.765 -0.322,8.251 -0.645,10.158v2.224c-0.634,1.906 -0.632,3.819 -0.632,5.408c0,1.589 -0.315,3.489 -0.632,5.395v5.724c0,1.907 -0.322,3.805 -0.645,5.711v10.171c0,2.859 -0.315,5.083 -0.632,6.671v24.145c0.634,2.541 0.632,5.723 0.632,10.171v1.579c-0.633,1.906 -0.632,3.819 -0.316,5.408c0.317,1.588 0.316,3.175 0.316,4.763c0,1.588 0.328,2.537 0.645,2.855v2.224c0.64,1.905 0.632,5.091 0.632,9.539v3.487c0,0.953 -0.315,1.592 -0.632,1.592l-0.645,0.632c-1.913,0.953 -3.19,1.592 -3.513,1.592c-0.957,0.635 -1.907,0.957 -2.54,1.592c-0.64,0.635 -1.596,0.944 -2.553,1.579c-1.913,0.953 -3.824,2.229 -5.421,3.5c-1.596,1.589 -3.199,2.534 -4.789,3.487c-0.957,0.635 -1.925,1.284 -2.882,2.237l-10.197,10.158l-1.605,1.592c-0.957,0.953 -1.584,1.902 -2.224,2.855c-0.64,0.953 -1.28,1.902 -2.237,2.855c-0.64,0.636 -0.632,0.961 -0.632,0.961c0,0.317 -0.328,0.629 -0.645,0.947c-0.957,1.906 -2.233,3.817 -3.513,5.724c-1.59,1.906 -2.537,4.129 -3.5,6.671l-1.592,2.855c-1.914,6.354 -4.787,13.022 -7.974,20.329c-0.956,1.905 -1.605,3.494 -1.605,4.447c-0.64,2.541 -0.952,4.448 -1.592,6.355c-0.633,1.59 -1.28,3.815 -2.237,6.355c0,0.956 0.001,1.905 -0.316,2.855c-0.324,0.956 -0.316,1.911 -0.316,2.868c0,1.59 -0.315,2.543 -0.632,3.5c0,0.634 -0.328,0.632 -0.645,0.632c0,-0.634 -0.322,-0.632 -0.645,-0.632c-0.64,-0.64 -0.947,-0.959 -0.947,-1.592c-0.317,-0.633 -0.644,-0.959 -0.961,-1.592l-11.803,-11.75c-0.957,-0.95 -1.913,-1.591 -2.553,-2.224c-0.634,-0.634 -1.59,-1.267 -2.553,-2.224c-0.957,-0.95 -2.867,-2.541 -5.737,-4.447c-1.597,-0.953 -2.872,-1.915 -4.145,-2.868c-1.28,-0.953 -2.24,-1.902 -3.197,-2.855c-1.913,-0.953 -3.184,-1.59 -3.184,-1.908c-0.324,-0.318 -0.956,-0.955 -2.553,-1.908l-13.408,-6.671c-1.913,-22.238 -4.131,-42.253 -6.368,-59.408c-0.397,-3.058 -0.799,-5.663 -1.197,-8.579c13.174,-3.756 39.452,-10.301 63.5,-10.013c-28.511,-10.866 -54.639,-8.134 -65.763,-6.145c-1.081,-7.189 -2.158,-13.905 -3.237,-20.053c-2.236,-12.708 -4.473,-23.197 -7.026,-32.092c-2.553,-8.895 -4.784,-15.875 -6.697,-21.276h2.868c1.596,-0.636 3.51,-0.645 6.697,-0.645c0.956,-0.636 1.911,-0.632 2.868,-0.632c0.957,0 1.919,-0.314 2.882,-0.632c1.913,-0.636 3.509,-0.632 5.105,-0.632c1.596,0 3.192,-0.328 5.105,-0.645c1.59,-0.636 2.872,-0.632 4.145,-0.632c1.28,0 2.548,-0.314 4.145,-0.632c3.827,-0.953 7.019,-1.588 9.566,-2.224c0.957,-0.636 2.24,-0.645 3.513,-0.645c1.913,-0.635 3.824,-0.943 5.737,-1.579c1.92,-0.635 3.837,-0.957 5.75,-1.592c1.913,0 4.459,-0.639 7.329,-1.592c0.957,0 1.604,0.002 1.921,-0.316c0.317,-0.318 0.951,-0.316 1.908,-0.316c0.64,-0.636 1.274,-0.632 2.237,-0.632c0.957,-0.636 2.227,-0.961 3.5,-0.961c1.596,-0.318 2.556,-0.629 3.513,-0.947h0.645c0.956,-0.636 1.912,-0.645 2.868,-0.645c0.956,0 1.911,-0.626 2.868,-1.579c2.553,-0.953 5.739,-1.915 9.566,-2.868c1.913,-0.635 3.837,-1.584 5.75,-2.855c1.596,-0.953 3.186,-1.902 4.776,-2.855c1.596,-0.953 3.192,-1.902 4.789,-2.855c1.914,-0.953 3.504,-1.915 4.461,-2.868c0.964,-0.635 2.561,-1.58 4.474,-3.487c1.596,-0.952 3.192,-1.915 5.105,-2.868c0.957,-0.952 2.548,-1.902 4.461,-2.855c0,-0.636 0.648,-1.272 1.605,-2.224c0.957,-0.952 2.867,-2.54 5.737,-4.447c2.553,-1.906 4.784,-3.807 6.697,-5.395c1.913,-1.588 4.144,-3.813 6.697,-6.355c0.634,-0.636 0.632,-0.961 0.632,-0.961c0,-0.318 0.648,-0.63 1.605,-0.947z" /></svg>