<svg xmlns="http://www.w3.org/2000/svg" viewBox="0 0 1024 1024" width="1024" height="1024"><path d="M506.928,356.517c29.292,0 57.8,14.908 85.524,44.724c27.462,29.031 41.193,68.786 41.193,119.263c-0.262,50.739 -13.731,90.755 -40.408,120.047c-26.677,29.556 -55.578,44.331 -86.701,44.331c-30.863,0 -59.632,-16.085 -86.309,-48.254c-26.677,-32.169 -40.016,-70.877 -40.016,-116.124c0,-44.985 13.732,-83.563 41.193,-115.732c27.461,-32.169 55.708,-48.254 84.739,-48.254zM504.966,380.056c-23.016,0.261 -39.624,14.123 -49.824,41.585c-10.2,27.462 -16.085,60.547 -17.654,99.255v7.062c-0.262,3.4 -0.392,5.492 -0.392,6.277c0,32.693 6.015,61.855 18.046,87.486c13.339,26.677 30.077,40.016 50.216,40.016c19.615,-1.569 35.307,-14.908 47.077,-40.016c11.77,-25.108 18.831,-58.716 21.185,-100.824c0,-2.615 0.13,-5.623 0.392,-9.023v-8.631c0,-34 -5.231,-61.854 -15.692,-83.562c-12.031,-25.893 -29.685,-38.839 -52.962,-38.839z" /></svg>