<svg xmlns="http://www.w3.org/2000/svg" viewBox="0 0 1024 1024" width="1024" height="1024"><path d="M509.645,157.644l-12.803,12.803c0,-9.432 -0.671,-18.2 -0.671,-27.632l12.803,-12.789c0,8.757 0.671,18.186 0.671,27.618zM515.712,130.026l12.789,12.789c0,8.758 0.003,18.2 -0.671,27.632l-12.803,-12.803c0.673,-9.431 0.684,-18.186 0.684,-27.618zM490.105,148.212l2.026,26.276l-12.132,12.118l-2.026,-26.263l12.132,-12.132zM534.565,148.21l12.132,12.132l-2.026,26.263l-12.118,-12.118l2.013,-26.276zM562.869,176.5c-0.673,8.758 -2.021,17.521 -3.368,25.605l-11.461,-11.447c1.347,-8.758 2.021,-16.847 3.368,-25.605zM473.263,165.725c1.347,8.084 2.021,16.176 3.368,24.934l-11.447,11.447c-1.347,-8.084 -2.021,-16.837 -3.368,-24.921l11.447,-11.461zM577.684,192c-0.673,8.084 -2.692,16.166 -4.039,24.25l-10.776,-10.776l4.039,-24.25zM457.092,181.894c2.021,7.411 3.377,15.495 4.724,23.579l-8.658,8.658c-1.516,-2.428 -2.486,-4.125 -3.697,-5.934l-0.013,-0.013c-1.096,-5.326 -2.236,-10.585 -3.132,-15.513l10.776,-10.776zM443.617,195.368c0.41,2.463 0.846,4.808 1.276,7.184c-0.465,-0.52 -0.812,-0.93 -1.368,-1.553l-0.263,-0.289l-0.276,-0.276c-0.447,-0.445 -1.088,-1.117 -2.329,-2.105l2.961,-2.961zM581.724,196.04l10.776,10.776c-1.348,6.736 -3.364,12.802 -4.711,19.539c0,0.673 -0.671,2.023 -0.671,2.697l-10.776,-10.105c2.021,-7.411 3.361,-15.497 5.382,-22.908zM453.053,214.224l-0.066,0.066c-0.367,-0.484 -0.676,-1.086 -1.066,-1.474zM595.131,214.805v5.539l3.513,3.5c0.576,0.796 1.102,1.736 1.724,2.355l-1.684,-2.053c1.489,2.224 2.764,4.254 4.079,6.342c-0.039,0.208 -0.123,0.38 -0.158,0.592c-1.347,3.368 -2.021,7.408 -3.368,10.776l-9.421,-9.434c0.674,-1.348 0.668,-2.69 1.342,-4.711c1.489,-4.466 2.678,-8.635 3.974,-12.908zM604.765,233.354c0.474,0.642 0.787,1.1 1.539,2l-0.329,0.658v3.184c0,0.773 0.262,-1.197 0.908,-3.092c0.025,0.027 0.013,0.027 0.039,0.053c-1.408,3.406 -1.579,6.623 -1.579,7.487c0,0.953 -0.171,0.204 0.368,-1.408l0.013,-0.013c-0.837,2.498 -0.738,3.794 -0.75,5.092l-3.711,-3.447l3.5,-10.513zM244.883,238.487h17.513c6.811,7.629 13.622,14.954 20.434,22.276c-0.611,-0.046 -1.217,-0.092 -1.829,-0.092h-0.632c-0.478,0 -1.327,-0.412 -4.855,0.592c-0.478,0.136 -1.276,0.968 -1.882,1.224c-1.211,0.443 -3.459,0.642 -4.855,1.105l-0.395,0.132c-7.872,-8.334 -15.755,-16.691 -23.5,-25.237zM754.184,238.487c-15.495,18.189 -30.311,35.697 -45.132,52.539c-9.431,10.779 -18.857,21.566 -28.289,31.671l-8.092,-8.092c8.758,-10.779 17.515,-21.55 26.947,-32.329c12.127,-14.821 24.253,-28.968 37.053,-43.789zM271.157,239.158h17.513c11.453,14.821 23.582,28.968 36.382,43.789c8.758,10.779 18.189,21.563 26.947,32.342l-4.053,4.053c-1.249,-0.507 -2.477,-0.978 -3.842,-1.658l-0.632,-0.316l-0.658,-0.25c-1.219,-0.455 -3.496,-1.669 -6.947,-3c-0.026,-0.011 -0.052,-0.026 -0.079,-0.039l-11.645,-13.316v-3.079l-0.697,-2.079c-0.738,-2.207 -1.296,-4.407 -2.158,-7.026c-0.112,-0.507 0.039,-0.476 -0.158,-1.066c-0.203,-0.607 -0.563,-0.774 -0.829,-1.316c-1.187,-3.608 -2.592,-6.775 -3.829,-8.829l-0.868,-1.434l-1.171,-1.171c-0.955,-0.951 -1.912,-1.9 -2.553,-2.539l-6.5,-6.461h-1.263l-1.276,-1.276h-5.355c-0.757,-0.198 -2.45,-0.712 -2.25,-0.632l-0.368,-0.145l-0.368,-0.118c-1.218,-0.404 -2.181,-0.629 -3.145,-0.868c-6.733,-7.806 -13.464,-15.608 -20.197,-23.566zM310.908,239.158l26.276,34.355l24.25,32.342l-8.092,8.079c-8.758,-10.779 -17.505,-21.56 -26.263,-33.013c-10.779,-13.474 -21.563,-27.616 -32.342,-41.763zM356.711,239.157h14.158c0.139,0.232 0.235,0.465 0.368,0.697c-0.014,0.673 -0.076,1.442 0.224,3.237c0.063,0.378 0.641,1.031 0.763,1.487c-0.02,1.444 -0.12,2.95 0.25,4.908v7.276l6.934,3.461c0.102,0.185 0.236,0.286 0.342,0.461c0.316,0.608 0.663,1.245 0.342,0.605c-0.016,-0.031 -0.036,-0.161 -0.053,-0.197c0.178,0.271 0.367,0.501 0.553,0.75c0.456,1.641 0.304,2.607 1.184,3.921l-1.184,-2.171c0.54,1.256 0.978,2.406 2.066,4.211c0.331,0.549 1.124,1.414 1.737,2.171l-0.118,0.303v6.092c0,2.112 0.03,4.289 0.118,6.526l-2.079,2.079c-5.389,-10.105 -11.453,-20.211 -16.842,-30.316c-2.695,-5.389 -6.068,-10.784 -8.763,-15.5zM677.303,239.158c-0.552,0.128 -1.118,0.212 -1.711,0.434c0.231,-0.105 0.428,-0.299 0.645,-0.434zM679.302,239.157h8.197c-5.389,8.084 -10.111,16.166 -15.5,24.25c-0.842,1.348 -1.684,2.632 -2.526,3.961c0.415,-1.396 1.092,-4.002 1.092,-6.882c0,-0.27 -0.01,-0.084 -0.013,-0.197l0.645,-1.645v-12.105l-0.105,-0.329c2.154,-0.969 4.145,-2.254 5.079,-3.184c1.314,-1.308 2.274,-2.558 3.132,-3.868zM692.21,239.158h15.5c-7.411,10.779 -15.497,21.56 -22.908,33.013c-7.283,10.594 -15.207,21.182 -22.513,31.776l2.211,-15.158v-3.645c0.022,-0.082 0.178,-0.253 0.197,-0.329c0.14,-0.556 0.001,-0.279 0.079,-0.684c0.212,-0.632 0.422,-1.266 0.632,-1.895l0.395,-1.171l1.25,-1.868v-2.855c2.579,-3.829 5.181,-7.636 7.645,-11.579c5.389,-8.758 11.45,-16.847 17.513,-25.605zM730.605,239.158c-12.126,14.147 -22.905,27.616 -33.684,41.763c-8.758,10.779 -17.508,21.563 -25.592,32.342l-7.408,-7.408l24.25,-32.342l26.276,-34.355zM762.277,239.158h18.184c-19.537,20.884 -39.75,41.774 -59.961,62.658c-10.105,10.105 -20.211,20.208 -30.316,30.987l-8.079,-8.092c9.432,-10.779 19.542,-20.879 28.974,-31.658c16.842,-18.19 33.681,-36.379 51.197,-53.895zM331.789,239.829c6.063,8.084 12.124,16.176 17.513,24.934c6.737,10.779 14.145,20.879 20.882,31.658l-8.079,8.079c-7.411,-10.779 -15.497,-21.55 -22.908,-32.329c-7.411,-10.779 -14.824,-21.563 -22.908,-32.342zM337.185,239.829h14.816c3.368,5.389 7.408,10.779 10.776,16.842c6.063,10.105 12.124,20.211 17.513,30.316l-8.079,8.092c-6.737,-10.779 -13.474,-20.892 -20.211,-31.671c-4.716,-8.084 -10.1,-16.168 -14.816,-23.579zM671.842,240.881c-0.111,0.01 -0.242,0.081 -0.368,0.132c0.126,-0.192 0.24,-0.373 0.368,-0.566zM671.842,241.131v2.395l-0.842,0.842c-0.002,-0.299 0.197,-1.174 0.197,-1.355c0,-0.405 -0.411,1.105 -0.474,1.632l-0.118,0.118l-0.039,-0.145c0.38,-1.377 0.617,-2.339 0.684,-3.263c0.04,-0.062 0.077,-0.122 0.118,-0.184c0.117,-0.009 0.392,-0.045 0.474,-0.039zM239.499,243.868c7.288,7.053 14.567,14.081 21.855,21.105c-0.741,0.391 -1.499,0.92 -2.329,1.329c-0.156,0.043 -0.203,0.052 -0.368,0.105l0.079,-0.118c-0.114,0.042 -0.203,0.141 -0.316,0.184c-1.03,0.363 -0.887,-0.22 -2.211,0.658c-0.494,0.328 -0.6,0.89 -1.026,1.276l-0.013,0.013c-0.16,0.142 -0.434,0.171 -0.579,0.316l0.211,-0.092c-1.601,0.818 -3.232,1.575 -4.776,2.724c-3.51,-3.335 -7.016,-6.594 -10.526,-9.974v-17.526zM785.184,243.871v16.803c-0.853,0.253 -1.765,0.495 -2.355,0.789l1.026,-0.461c-0.162,0.064 -1.762,0.377 -4.803,1.592c-0.144,0.054 -1.866,0.562 -3.829,1.263h-3.434l-3.947,3.921c0.104,-0.104 0.141,-0.082 -0.816,0.553c-0.96,0.638 -2.907,1.889 -4.921,3.895l-0.026,0.026l-0.013,0.013c-0.122,0.122 -0.653,0.551 -1.632,1.842c-0.074,0.097 -0.141,0.533 -0.224,0.645l-2.263,2.276l-0.816,3.961c0.547,-2.69 0.13,-0.686 -1.395,1.684c-1.688,2.276 -3.438,5.525 -4.039,8.539l-0.066,0.342l-1.145,1.724v2.158c-6.389,5.944 -12.778,11.885 -19.197,17.829c-6.173,5.76 -12.624,11.741 -19.145,17.697c-0.372,0.149 -0.703,0.243 -1.039,0.342l0.316,-0.158c-0.341,0.014 -0.838,0.09 -1.224,0.105l0.171,-0.053c-0.14,0 -0.637,0.091 -0.908,0.118c-1.211,0.081 -2.473,0.185 -4.026,0.803c-0.502,0.127 -0.925,0.192 -1.461,0.355h-0.724c0.801,-0.135 2.572,-0.632 2.013,-0.632c-0.141,0 -1.51,-0.102 -4.145,0.632h-2.697l-3.947,3.934c-0.305,0.304 -0.302,0.285 -0.355,0.316l-2.579,-2.579c10.105,-10.105 20.208,-20.211 30.987,-30.316c20.884,-20.211 41.774,-39.75 62.658,-59.961zM378.855,256.038c0,0.02 0.091,0.273 0.092,0.303l-0.026,-0.013c-0.005,-0.109 -0.066,-0.182 -0.066,-0.289zM379.896,260.461l0.053,0.026c-0.179,-0.089 0.3,0.157 0.289,0.158c0.076,0.34 0.169,0.509 0.263,0.868c0.113,0.102 0.303,0.474 0.408,0.579c0.071,0.071 -0.274,-0.327 -0.368,-0.421c0.013,0.049 0.025,0.068 0.039,0.118l-0.408,-0.566c-0.063,-0.08 -0.007,0.004 -0.079,-0.092c-0.003,-0.003 -0.01,-0.022 -0.013,-0.026l-0.053,-0.066c-0.025,-0.054 -0.039,-0.226 -0.066,-0.289v-0.013c-0.026,-0.061 -0.039,-0.208 -0.066,-0.276zM777.46,263.79c-0.026,-0.027 -0.374,0.04 -0.671,0.066h-0.868l3.342,-0.645c-0.078,0 -1.069,0.339 -1.803,0.579zM777.356,263.855h-0.092c0.086,-0.029 0.116,-0.04 0.197,-0.066c0.026,0.027 -0.009,0.066 -0.105,0.066zM777.262,263.855c-1.69,0.564 -4.002,1.418 -6.289,2.684c1.396,-0.83 2.998,-2.119 3.842,-2.329c1.157,-0.288 1.584,-0.321 1.974,-0.355h0.474zM298.225,265.118c0,0 2.214,0.15 3.197,0.395c0.26,0.065 0.44,0.173 0.684,0.25h-1.974c-0.839,-0.158 -0.875,-0.645 -1.908,-0.645zM383.369,266.25c0.276,0.73 0.589,1.47 0.868,2.224l-0.395,-0.25l-0.474,-1.974zM245.842,276.645l-1.763,3.539c0.246,-0.49 0.224,-0.521 -0.434,0.789c-0.253,0.504 -0.359,1.756 -0.632,2.632c-0.144,0.528 -0.918,1.401 -1.039,1.882c-0.201,0.802 -0.169,1.504 -0.263,2.25c-0.235,0.596 -0.471,1.193 -0.711,1.789c-0.717,-0.615 -1.47,-1.256 -2.184,-1.868v-16.842c2.384,1.943 4.664,3.886 7.026,5.829zM758.566,277.685c0.097,-0.225 0.162,-0.52 0.263,-0.724c0.452,-0.906 0.819,-1.252 1.224,-1.75c-0.463,0.643 -1.008,1.469 -1.487,2.474zM666.329,278.025c-0.103,0.438 -0.121,0.552 -0.224,0.895v-0.105c0.12,-0.286 0.122,-0.507 0.224,-0.789zM757.868,279.632c0.008,-0.035 0.005,-0.073 0.013,-0.105c0.037,-0.147 0.104,-0.241 0.145,-0.382c-0.049,0.166 -0.115,0.31 -0.158,0.487zM660.868,291.316l-0.145,0.053c0.237,-0.232 0.186,-0.398 0.395,-0.632c-0.174,0.219 -0.057,0.386 -0.25,0.579zM238.816,294.394c0.145,0.106 0.276,0.211 0.421,0.316c-0.11,0.287 -0.114,0.414 -0.263,0.711l-0.158,0.316v-1.342zM749.844,300.525v5.711l0.197,-2.25c-0.338,1.995 -0.573,5.087 -0.684,8.382c-0.243,0.207 -0.554,0.387 -0.763,0.579c-0.044,0.022 -0.102,0.031 -0.145,0.053c-0.297,0.148 -0.438,0.354 -0.711,0.513c-0.887,0.389 -2.832,0.529 -3.974,0.908l-0.908,0.289l-6.079,3.026l-0.697,0.461c-1.721,1.143 -3.239,2.14 -4.382,2.842c-1.679,0.834 -2.958,1.479 -4.671,2.118l-0.658,0.25l-0.632,0.316c-2.451,1.221 -4.786,2.527 -7,4.724l2.039,-1.671c0.633,-0.421 -0.203,-0.057 -1.908,1c4.667,-4.165 9.301,-8.322 13.763,-12.487c5.813,-4.919 11.497,-9.844 17.211,-14.763zM662.197,304.066c-0.012,0.018 -0.027,0.035 -0.039,0.053c0.039,-0.351 0.118,-0.63 0.118,-1.066zM325.106,306.369l-1.066,-1.066c-0.002,-0.012 0.013,-0.069 0.013,-0.092c0.354,0.39 0.701,0.769 1.053,1.158zM752.158,310.263l0.118,-0.184c0.159,-0.101 0.228,-0.16 0.566,-0.329c-0.373,0.186 -0.343,0.32 -0.684,0.513zM320.093,314.275c-0.167,0.208 -0.053,0.37 -0.237,0.553l-0.132,0.053c0.225,-0.22 0.168,-0.382 0.368,-0.605zM239.498,316.633c0.297,0.204 0.61,0.427 0.908,0.632c0.031,0.094 0.034,0.141 0.066,0.237c0.379,1.131 1.082,3.304 1.829,5.461c0.063,0.486 -0.039,0.462 0.105,1.105c0.542,2.428 2.301,5.703 4.211,7.605c-0.054,-0.054 0.825,0.902 1.132,1.289v1.118l3.974,3.947c0.813,0.809 2.495,2.569 5.237,4.211c0.38,0.251 1.237,0.973 1.132,0.868l1.553,1.539l1.961,0.974c1.911,0.952 2.972,1.615 3.026,1.658c2.825,2.251 5.262,3.424 7.132,4.342l0.447,0.289l1.421,2.224l1.053,1.039c0.483,0.481 0.933,1.072 1.184,1.447l0.368,0.566c-3.688,-2.471 -7.349,-4.929 -11.145,-7.539c-8.758,-6.063 -17.508,-11.45 -25.592,-17.513v-15.5zM698.237,334.21c0.12,-0.069 0.143,-0.282 0.263,-0.342c0.398,-0.2 -0.004,0.07 0.342,-0.092c-0.2,0.095 -0.397,0.322 -0.605,0.434zM695.696,335.815c-0.769,0.387 -1.092,0.671 -1.513,0.974l-0.039,-0.039c0.211,-0.157 0.601,-0.443 1.553,-0.934zM239.501,337.512c8.084,4.716 16.166,10.113 24.25,14.829c6.576,4.11 12.878,8.148 19.105,12.105c0.35,0.321 0.421,0.462 1.013,0.921c0.747,0.579 1.921,1.418 3.526,2.105c0.347,0.249 0.824,0.673 1.158,0.882l1.763,1.75c0.852,0.849 0.453,0.404 0.513,0.553l1.026,2.579l0.842,0.842l-6.039,6.553c-10.106,-6.063 -19.54,-11.45 -29.645,-17.513c-6.063,-3.368 -11.45,-7.408 -17.513,-10.776v-14.829zM697.604,337.868c-0.061,0 -1.141,0.383 -1.789,0.553l-0.092,-0.079c0.467,-0.22 0.722,-0.474 1.882,-0.474zM260.908,341.316c0.08,0 -0.313,0.221 -2.737,-0.316c-0.379,-0.084 -0.925,-0.896 -1.408,-1.105c1.46,0.445 3.006,1.421 4.145,1.421zM239.499,356.383c5.39,2.695 10.769,6.055 16.158,8.75c10.106,5.389 19.54,10.779 29.645,16.842l-8.75,8.763c-8.758,-4.716 -18.189,-9.429 -26.947,-14.145c-3.368,-2.021 -6.737,-3.374 -10.105,-5.395v-14.816zM240.171,374.566v0.316c-0.215,-0.104 -0.464,-0.212 -0.671,-0.316zM240.171,374.881c2.576,1.244 5.592,2.48 8.079,3.724c8.758,4.042 17.518,8.758 26.276,13.474l-8.079,8.763c-7.411,-3.368 -15.497,-6.734 -22.908,-10.776c-1.347,-0.673 -2.694,-1.352 -3.368,-2.026v-13.158zM785.182,374.563v14.145c-1.347,0.673 -2.021,1.355 -3.368,1.355c-8.084,3.368 -15.495,7.408 -23.579,10.776l-2.605,-2.605c1.577,-0.525 3.2,-1.053 5.382,-1.868l2.75,-1.026l1.605,-1.605c0.789,-0.566 1.712,-1.085 2.329,-1.697l0.961,-0.934l0.737,-1.118c1.038,-1.546 0.879,-1.134 -0.092,-0.171c1.939,-1.926 2.683,-3.269 3.039,-3.882c1.135,-1.355 2.034,-2.595 2.474,-3.25l0.474,-0.697l1.632,-3.25l0.026,-0.039l0.224,-0.434c2.469,-1.232 4.932,-2.465 8.013,-3.697zM239.499,391.408c0.674,0 1.339,0.671 2.013,0.671c7.411,3.368 14.826,6.739 22.237,9.434l-8.763,8.763c-6.063,-2.695 -12.121,-4.713 -18.184,-7.408c-0.673,0 -1.352,-0.684 -2.026,-0.684l4.724,-3.368v-7.408zM785.854,392.078v6.737l4.711,4.724c-1.347,0.674 -2.023,0.671 -2.697,0.671c-6.063,2.695 -12.121,4.713 -18.184,7.408l-8.763,-8.75c7.411,-3.368 14.824,-6.737 22.908,-10.105c0.673,0 1.352,-0.684 2.026,-0.684zM232.764,405.553c0.673,0.673 2.021,1.352 3.368,2.026c5.389,2.021 11.45,4.045 17.513,6.066l-9.434,9.434l-12.132,-4.053c-3.368,-1.347 -6.053,-2.021 -9.421,-3.368l10.105,-10.105zM791.922,405.553l9.421,9.434c-2.695,2.021 -5.382,2.692 -8.75,4.039l-12.132,4.053l-9.434,-9.434c6.063,-2.021 11.463,-4.042 17.526,-6.737c1.347,-0.673 2.021,-0.681 3.368,-1.355zM219.962,419.027c3.368,0.673 7.408,2.021 10.776,3.368c3.368,1.347 7.408,2.021 10.776,3.368l-9.434,9.434c-1.348,-0.674 -2.69,-0.668 -4.711,-1.342c-5.354,-1.19 -10.635,-2.858 -15.526,-4.171c-0.445,-0.374 -0.887,-0.749 -1.408,-1.132l9.526,-9.526zM804.712,419.025l10.105,10.105c-6.063,1.348 -11.45,2.703 -17.513,4.724c-1.348,0.674 -3.364,0.668 -4.711,1.342l-9.434,-9.434c3.368,-1.347 7.408,-2.021 10.776,-3.368c3.368,-1.347 7.408,-2.021 10.776,-3.368zM814.025,433.473c-0.142,0.125 -0.497,0.492 -0.618,0.592c-2.033,1.688 -4.043,3.382 -6.158,4.961c-2.531,1.718 -4.445,3.224 -6.092,4.737l-5.868,-5.868c0.673,0 2.01,-0.671 2.684,-0.671c5.351,-1.07 10.702,-2.505 16.053,-3.75zM217.29,434.712c3.136,0.785 6.272,1.572 9.408,2.513l2.697,0.671l-4.053,3.789c-0.529,-0.433 -1.523,-1.103 -1.816,-1.395l-0.487,-0.474l-3.5,-2.868l-2.25,-2.237zM186.987,451.328c0.038,0.179 0.113,0.381 0.158,0.566v1.75c0,1.052 0.264,3.081 0.474,4.908l-6.737,-1.118l6.105,-6.105zM842.447,456.763c-0.702,0.191 -1.471,0.32 -2.184,0.5c0,-0.336 0.013,-0.802 0.013,-1.079c0,0.117 0.252,-0.924 0.316,-1.276zM176.169,461.474c4.287,0.612 8.235,1.214 12.092,1.763c0.111,0.491 0.276,0.882 0.408,1.342c0.289,2.24 0.572,4.372 0.882,6.224l-0.184,-2.224c0,1.994 0.594,3.895 0.974,5.842c-0.001,0.521 0.015,1.212 0.013,1.829l-0.039,0.039c-8.758,-1.347 -16.847,-2.021 -25.605,-3.368l11.461,-11.447zM847.158,461.476l11.447,11.447c-6.684,0.557 -13.761,1.6 -20.605,2.697c0.133,-0.692 0.262,-1.413 0.408,-2.132l0.263,-1.329v-1.355c0,0.201 -0.085,0.232 0.263,-0.803l0.697,-2.079v-2.211c0,-1.549 0.068,-2.141 0.053,-2.079v-0.053c0.085,-0.423 0.082,-0.72 0.145,-1.118c2.46,-0.314 4.952,-0.591 7.329,-0.987zM864,477.646l12.132,12.118l-26.276,2.026l-12.132,-12.132l26.276,-2.013zM160.672,478.317l26.276,2.026l-12.132,12.118l-26.263,-2.013l12.118,-12.132zM894.316,508.632c-8.757,0 -18.186,0.671 -27.618,0.671l-12.803,-12.803c9.431,0 18.186,-0.671 27.618,-0.671zM142.487,496.501c9.431,0 18.186,0.01 27.618,0.684l-12.803,12.789c-9.431,0 -18.186,-0.671 -27.618,-0.671l12.803,-12.803zM170.777,527.5c-9.431,0 -18.186,0.671 -27.618,0.671l-12.803,-12.803c9.431,0 18.186,0.003 27.618,-0.671zM894.315,515.368l-12.803,12.803c-8.757,0 -18.186,0.003 -27.618,-0.671l12.803,-12.803c9.431,0 18.186,0.671 27.618,0.671zM175.5,532.21l12.118,12.132l-26.276,2.013l-12.118,-12.118l26.276,-2.026zM849.855,532.212l26.276,2.026l-12.132,12.118l-26.276,-2.013l12.132,-12.132zM833.895,547.738c8.675,1.325 16.709,2.006 25.395,3.342l-11.461,11.447c-4.485,-0.345 -8.961,-0.879 -13.355,-1.487c-0.075,-1.475 -0.284,-3.033 -0.579,-4.658v-8.645zM190.988,548.382l2.539,2.539v3.592l0.184,1.105c0.088,0.528 0.257,2.668 0.355,5.342c-5.568,0.695 -11.185,1.342 -16.553,2.237l-11.447,-11.447c8.084,-1.347 16.837,-2.694 24.921,-3.368zM194.078,564.815c-0.015,0.138 -0.033,0.502 -0.039,0.553l-0.513,1.303v2.605c0,1.588 -0.118,1.641 0.079,0.855c-0.533,2.121 -0.603,4.995 -0.224,7.816c-0.118,0.022 -0.249,0.057 -0.368,0.079l-10.776,-10.789c3.802,-0.691 7.776,-1.557 11.842,-2.421zM843.118,566.566l-8.908,8.908c-0.03,-0.79 -0.022,-1.449 -0.184,-2.487l0.5,-1.526v-3.763c0,-0.882 -0.018,-1.715 -0.013,-2.566zM240.197,649.79c-0.259,0.107 -0.429,0.209 -0.697,0.316v-1.711c0.24,0.51 0.467,0.97 0.697,1.395zM241.619,652.317c0.25,0.37 0.584,0.885 0.724,1.118c0.956,1.586 1.532,2.68 1.592,2.829c1.16,2.888 2.411,4.877 3.355,6.434c-2.951,1.698 -5.828,3.409 -8.474,4.921v-14.145h0.684c0.72,-0.432 1.404,-0.774 2.118,-1.158zM247.013,661.039l-0.132,-0.092l-1.368,-4.934c0,0.106 0.932,2.914 1.5,5.026zM784.5,666.579c-1.037,-0.529 -2.049,-1.119 -3.079,-1.684c1.107,-2.782 2.117,-5.584 3.079,-8.395zM785.184,666.947h-0.684v-0.368c0.229,0.117 0.454,0.253 0.684,0.368zM247.407,662.645c-0.011,0.007 -0.027,0.006 -0.039,0.013l-0.329,-1.158c0.068,0.235 0.294,0.866 0.368,1.145zM248.763,666.869c0.072,0.212 0.378,1.541 1.276,4.224l0.303,0.908l0.434,0.855c0.418,0.832 0.862,2.04 1.5,3.947v0.013c0.141,0.421 0.436,1.103 0.658,1.658c-4.194,2.733 -8.388,5.461 -12.763,8.013v-14.145h-0.671c3.209,-1.783 6.232,-3.591 9.263,-5.474zM785.184,670.987v15.5c-3.238,-1.889 -6.338,-3.915 -9.447,-5.934c0.373,-1.514 0.654,-2.873 0.961,-4.092l0.289,-1.184c-0.104,0.816 -0.175,0.411 0.289,-0.513l0.158,-0.329l0.145,-0.329c0.887,-2.036 1.693,-4.039 2.526,-6.053c1.678,0.976 3.321,1.957 5.079,2.934zM709.054,672.342c10.779,8.758 21.563,17.515 32.342,26.947c1.024,0.838 2.007,1.687 3.026,2.526v7.382h8.855c10.606,8.873 21.108,17.818 31.908,27.145v16.842c-17.516,-14.821 -34.366,-29.653 -51.882,-44.474l-32.329,-28.289l8.079,-8.079zM317.63,675.012l6.079,6.079l-32.342,28.303c-17.515,14.822 -34.352,29.64 -51.868,44.461v-17.513c10.538,-8.621 20.791,-17.247 31.132,-25.868h6.368l8.434,-8.421l0.474,-1.408l2.184,-2.171v-0.487c0.125,-0.088 0.868,-0.71 0.816,-0.684l2.526,-1.25l1.816,-2.171c1.126,-1.345 2.367,-2.595 3.961,-4.184c0.639,-0.637 2.007,-1.869 3.237,-3l3.079,-1.711l1.329,-1.316c0.906,-0.901 2.015,-1.808 3.474,-2.974c1.512,-0.992 3.016,-2.009 3.408,-2.25c1.605,-0.795 3.216,-1.614 5.053,-3.079c0.135,-0.007 0.418,-0.115 0.842,-0.355zM731.289,710.737c18.19,16.842 36.379,33.684 53.895,50.526v18.184c-20.884,-19.537 -41.774,-39.739 -62.658,-59.276c-10.105,-10.105 -20.208,-20.211 -30.987,-30.316l8.079,-8.092c10.779,9.432 20.892,19.542 31.671,28.974zM254.079,682.054c0.005,0.037 -0.007,0.035 0,0.079c0.078,0.468 0.765,1.259 0.934,1.842c0.222,1.88 0.56,3.623 1.026,5.184v2.513l0.408,1.605c0.062,0.246 0.237,1.034 0.237,2.447c0,0.01 0.094,0.335 0.145,0.474c-5.781,4.052 -11.548,8.178 -17.329,12.513v-16.842c4.991,-3.456 9.776,-6.673 14.579,-9.816zM332.461,689.855c-10.105,10.105 -20.882,20.211 -30.987,30.316c-20.884,20.21 -41.1,39.739 -62.658,59.276v-17.513h0.684c17.516,-16.842 35.706,-33.684 53.895,-50.526c10.779,-10.106 20.879,-19.529 31.658,-28.961zM774.737,684.052c3.659,2.578 7.315,5.183 11.118,7.816v15.5h-0.671c-4.503,-3.096 -9.01,-6.21 -13.513,-9.355c0.417,-1.486 0.974,-3.789 0.974,-6.421c0,-0.861 0.015,0.011 -0.355,1.303c0.507,-1.558 0.331,-2.047 0.447,-3.184c0.895,-2.475 1.654,-4.804 1.816,-5.211l0.145,-0.342l0.039,-0.105zM341.895,698.605c-9.432,10.779 -19.542,21.566 -28.974,31.671c-16.842,18.19 -33.684,36.379 -50.526,53.895h-17.513c18.863,-20.211 39.078,-41.103 59.289,-61.987c10.105,-10.105 20.211,-20.882 30.316,-30.987zM721.184,722.184c20.21,20.884 39.736,41.774 59.947,62.658h-18.184c-17.515,-18.19 -34.355,-35.706 -51.197,-53.895c-9.432,-10.779 -19.542,-20.879 -28.974,-31.658l8.092,-8.092c10.105,10.105 20.211,20.882 30.316,30.987zM743.54,696.5c0.034,0.091 0.07,0.185 0.105,0.276c-0.018,-0.013 -0.035,-0.026 -0.053,-0.039l-0.053,-0.237zM257.316,699.907v10.566h6.421c-8.229,6.376 -16.552,12.756 -24.921,19.132v-16.171h0.684c5.942,-4.543 11.874,-9.077 17.816,-13.526zM343.92,700.632l8.079,8.079c-8.758,10.779 -18.189,21.563 -26.947,32.342c-12.127,14.821 -24.253,28.968 -37.053,43.789h-17.513c14.821,-17.515 29.637,-35.026 45.132,-51.868l28.303,-32.342zM709.052,732.974c14.822,17.515 29.64,34.352 44.461,51.868h-17.513c-12.127,-14.821 -24.256,-28.968 -36.382,-43.789c-8.758,-10.779 -18.189,-21.563 -26.947,-32.342l8.092,-8.079zM769.751,702.317l15.434,11.789v16.171c-8.682,-7.442 -17.159,-14.328 -25.645,-21.066c1.321,-0.036 3.236,-0.37 6.197,-2.316c1.815,-1.193 3.04,-2.861 4.013,-4.579zM361.434,718.145l-24.25,32.342c-8.758,11.452 -17.521,22.902 -25.605,34.355h-16.171c10.105,-14.147 20.892,-27.616 31.671,-41.763c8.758,-10.779 17.505,-22.234 26.263,-33.013zM696.25,743.75c10.779,13.474 21.563,27.616 32.342,41.763h-16.171c-7.41,-12.126 -16.163,-23.573 -24.921,-35.026l-24.263,-32.342l7.421,-7.408c8.758,10.779 17.508,21.56 25.592,33.013zM684.803,751.829c7.411,10.779 14.824,21.563 22.908,32.342h-15.5c-6.063,-8.084 -11.45,-16.176 -17.513,-24.934c-6.737,-10.779 -14.145,-20.879 -20.882,-31.658l8.079,-8.079c7.411,10.779 15.497,21.55 22.908,32.329zM370.184,728.25c-6.737,10.779 -14.145,20.892 -20.882,31.671c-5.389,8.758 -11.45,16.834 -17.513,25.592h-15.5c8.084,-11.452 15.497,-22.234 22.908,-33.013c7.411,-10.779 15.497,-21.55 22.908,-32.329zM372.21,729.605l8.079,8.079l-18.184,30.316c-3.368,6.063 -6.734,11.45 -10.776,17.513h-14.829c5.389,-8.758 10.784,-16.166 15.5,-24.25c6.737,-10.779 13.474,-20.879 20.211,-31.658zM651.788,729.605c6.737,10.779 13.474,20.879 20.211,31.658c4.716,8.084 10.1,16.168 14.816,23.579h-14.816c-3.368,-6.063 -6.734,-11.45 -10.776,-17.513c-6.063,-10.106 -11.45,-20.213 -17.513,-29.645l8.079,-8.079zM382.316,739.027l5.526,5.526l0.053,0.079l0.053,0.026l3.132,3.132c-4.716,9.431 -9.442,18.186 -14.158,27.618c-2.021,3.368 -3.361,6.737 -5.382,10.105h-14.145c2.021,-6.063 4.711,-11.455 8.079,-16.171c5.389,-10.105 11.453,-20.211 16.842,-30.316zM641.685,739.71c5.389,10.106 11.453,19.527 16.842,29.632c2.695,5.389 6.068,10.784 8.763,15.5h-14.158c-1.348,-3.368 -3.361,-6.737 -5.382,-10.105c-4.716,-8.758 -9.429,-18.189 -14.145,-26.947l8.079,-8.079zM401.184,757.895c-3.368,8.084 -7.421,15.495 -10.789,23.579c-0.674,1.347 -1.339,2.021 -2.013,3.368h-13.474c1.347,-2.695 2.692,-5.395 4.039,-8.763c4.716,-8.758 8.758,-18.189 13.474,-26.947zM645.724,776.079c1.347,2.695 2.692,5.395 4.039,8.763h-13.474c-1.347,-1.347 -1.339,-2.021 -2.013,-3.368c-3.368,-8.084 -7.408,-15.495 -10.776,-23.579l8.75,-8.763c4.716,8.758 8.758,17.515 13.474,26.947zM403.198,759.922l8.763,8.75c-2.695,6.063 -4.713,12.131 -7.408,18.868c0,0.674 -0.684,1.339 -0.684,2.013l-4.711,-4.711h-6.737c0,-0.673 0.671,-1.352 0.671,-2.026c3.368,-7.411 6.737,-15.484 10.105,-22.895zM621.475,760.592c3.368,7.411 6.737,14.824 10.105,22.908c0,0.674 0.671,1.339 0.671,2.013h-6.737l-4.711,4.039c0,-0.674 -0.671,-1.339 -0.671,-2.013c-2.695,-6.063 -4.726,-12.134 -7.421,-18.197l8.763,-8.75zM413.973,770.026l9.434,10.105l-4.039,12.118c-1.347,2.695 -2.021,6.068 -3.368,8.763l-10.105,-10.105c0.674,-1.347 0.668,-2.021 1.342,-3.368c2.021,-6.063 4.042,-11.45 6.737,-17.513zM610.696,770.697c2.021,6.063 4.042,11.45 6.737,17.513c0.674,1.347 0.668,2.021 1.342,3.368l-9.434,9.434c-2.021,-2.695 -2.692,-5.395 -4.039,-8.763l-4.039,-12.118l9.434,-9.434zM425.435,782.145l9.434,9.434c-0.673,1.348 -0.681,3.364 -1.355,4.711c-1.348,6.063 -3.364,11.463 -4.711,17.526l-10.105,-10.105c1.347,-2.694 2.694,-6.737 3.368,-10.105c1.347,-4.043 2.021,-7.419 3.368,-11.461zM598.567,782.817c1.347,3.368 2.021,7.421 3.368,10.789c1.347,3.368 2.021,7.408 3.368,10.776l-10.105,10.105c-1.348,-6.063 -2.69,-12.124 -4.711,-17.513c-0.673,-1.348 -0.681,-3.377 -1.355,-4.724l9.434,-9.434zM437.553,794.946l10.789,10.105c-2.021,7.411 -3.374,15.497 -5.395,22.908l-10.776,-10.776c2.022,-6.063 3.364,-12.805 4.711,-18.868c0,-1.347 0.671,-2.021 0.671,-3.368zM587.118,797.644c1.348,6.737 3.364,13.474 4.711,20.211l-10.776,10.776c-0.674,-8.084 -2.69,-16.168 -4.711,-23.579l10.105,-10.105c0,0.673 0.671,2.023 0.671,2.697zM451.027,807.75l10.789,10.776l-4.053,24.25l-10.776,-10.776c0.673,-8.084 2.692,-16.166 4.039,-24.25zM578.356,831.329l-10.776,10.776c-2.022,-7.411 -3.364,-15.495 -4.711,-23.579l10.776,-10.776c1.348,8.084 3.364,16.168 4.711,23.579zM465.183,821.894l7.895,7.895l2.487,3.303h0.816l0.25,0.25c-1.347,8.758 -2.021,16.847 -3.368,25.605l-11.447,-11.447c0.673,-8.758 2.021,-16.847 3.368,-25.605zM560.171,821.894c1.347,8.084 2.021,16.837 3.368,24.921l-11.461,11.461c-1.347,-8.084 -2.694,-16.85 -3.368,-24.934l11.461,-11.447zM544.672,836.711l2.026,26.276l-12.132,12.132l-2.013,-26.276l12.118,-12.132zM480.67,837.396l12.132,12.118l-2.026,26.276l-12.118,-12.132c0,-8.758 0.666,-17.505 2.013,-26.263zM509.645,866.356c0,9.431 -0.671,18.186 -0.671,27.618l-12.803,-12.789c0,-8.758 0.671,-18.2 0.671,-27.632zM527.828,853.553c0,9.432 0.671,18.2 0.671,27.632l-12.789,12.789c0,-9.431 -0.01,-18.186 -0.684,-27.618l6.263,-6.263h4.461v-1.579h1.592v-4.474l0.487,-0.487z" /></svg>