<svg xmlns="http://www.w3.org/2000/svg" viewBox="0 0 1024 1024" width="1024" height="1024"><path d="M438.698,634.123c12.64,-78.045 104.588,-113.824 174.661,-122.547c-52.154,30.84 -121.474,117.493 -82.849,196.938c-123.746,30.813 -253.639,-112.806 -219.752,-231.627c0,48.411 57.548,146.85 127.94,157.235zM524.807,208.649c-22.041,52.446 -46.507,116.355 -19.195,159.519c14.902,23.55 59.415,34.617 98.51,44.938c-54.569,13.364 -107.807,41.566 -148.584,80.075c-27.904,-83.369 -29.483,-211.082 69.268,-284.532zM719.566,419.598c42.27,88.141 -20.719,206.341 -64.919,280.259c8.536,-42.197 48.242,-197.036 -3.803,-217.768c-72.831,0 -141.817,29.282 -206.443,60.327c73.284,-71.288 171.196,-123.088 275.165,-123.088z" /></svg>