<svg xmlns="http://www.w3.org/2000/svg" viewBox="0 0 1024 1024" width="1024" height="1024"><path d="M495.351,437.393c-5.231,3.139 -9.285,5.493 -12.162,7.062c-4.185,2.354 -8.108,5.101 -11.769,8.239l-2.354,2.354c-1.047,1.046 -2.616,1.831 -4.708,2.354c-0.523,0 -1.308,0.13 -2.354,0.392h-1.962c-3.4,0 -5.623,-0.523 -6.669,-1.569c-4.446,-2.878 -6.669,-5.624 -6.669,-8.239c0,-1.307 0.392,-2.353 1.177,-3.138c1.569,-3.401 3.007,-5.755 4.315,-7.062c6.538,-5.755 15.038,-11.901 25.5,-18.439c10.984,-6.8 19.484,-13.862 25.5,-21.185c7.061,-8.37 12.684,-16.216 16.869,-23.539l0.392,-0.785c6.015,-10.2 10.854,-18.7 14.516,-25.5c1.831,-3.4 3.4,-5.492 4.708,-6.277c3.139,-1.308 5.885,-1.962 8.239,-1.962h1.569l1.177,0.393c3.923,0.262 5.885,3.008 5.885,8.239c0,3.138 -0.915,6.669 -2.746,10.592c0,10.984 -0.13,21.185 -0.392,30.6c-0.262,9.415 -0.392,24.584 -0.392,45.508v80.032c0,25.893 0.262,46.293 0.785,61.201c0.522,14.646 1.438,26.285 2.746,34.916c2.354,18.308 5.361,30.077 9.023,35.308c2.877,4.184 5.623,6.277 8.239,6.277c0.522,-0.262 1.046,-0.392 1.569,-0.392c0.523,0 0.915,-0.131 1.177,-0.392c2.876,0 4.315,2.877 4.315,8.631c0,3.4 -2.093,5.1 -6.277,5.1c-8.108,-1.044 -15.17,-1.701 -21.185,-1.962c-5.232,-0.262 -12.162,-0.392 -20.793,-0.392c-6.277,0 -13.731,0.392 -22.362,1.177c-8.631,0.785 -16.085,1.569 -22.362,2.354c-4.446,0 -6.669,-1.043 -6.669,-3.138c0,-0.262 0.13,-0.654 0.392,-1.177v-0.785c1.831,-7.847 4.577,-11.901 8.239,-12.162c3.4,-0.524 6.67,-3.793 9.808,-9.808c3.4,-6.539 6.015,-19.093 7.846,-37.662c1.569,-13.862 2.354,-34.655 2.354,-62.378v-15.3c-0.262,-6.539 -0.392,-12.685 -0.392,-18.439v-64.731c-0.524,-2.877 -2.093,-4.707 -4.708,-5.492c-0.785,-0.524 -2.092,-0.785 -3.923,-0.785c-1.569,0 -2.746,0.262 -3.531,0.785z" /> <path d="M317.568,541.689c-0.088,0.011 -0.167,0.021 -0.256,0.028c-1.156,0.09 -2.292,-0.362 -3.071,-1.228c-1.037,-1.153 -1.255,-2.827 -0.547,-4.207l11.092,-21.624c0.515,-1.003 1.402,-1.766 2.472,-2.124c0.396,-0.132 0.81,-0.207 1.227,-0.22c0.177,-0.006 0.336,0.003 0.512,0.011c2.933,0.14 31.338,1.47 49.901,1.422c18.581,-0.048 47.006,-1.527 49.941,-1.682c0.176,-0.009 0.335,-0.019 0.513,-0.011c0.887,0.039 1.728,0.422 2.341,1.074c0.294,0.313 0.521,0.686 0.46,1.111c-0.432,3.02 -5.7,13.845 -7.79,18.055c-0.546,1.1 -1.452,1.975 -2.564,2.495c-0.685,0.32 -1.429,0.495 -2.184,0.514c-0.071,0.001 -0.135,0.001 -0.206,0.001c-1.841,-0.003 -28.847,-0.023 -47.046,1.008c-20.341,1.152 -52.56,5.101 -54.795,5.377z" /></svg>