<svg xmlns="http://www.w3.org/2000/svg" viewBox="0 0 1024 1024" width="1024" height="1024"><path d="M672.342,627.77c0.446,3.763 -0.446,7.747 -2.447,12.174c-1.11,1.107 -2.221,2.435 -3.551,4.649c-1.117,1.328 -2.226,2.656 -3.337,3.763c-1.111,1.107 -2.222,2.434 -3.333,3.762c-1.112,0.664 -2.001,1.771 -3.112,3.099c-1.778,2.435 -4,2.656 -6.667,1.107c-0.667,-0.664 -1.555,-1.107 -2.444,-1.549c-1.112,-0.443 -1.778,-0.886 -2.445,-1.549c-1.778,-0.664 -3.111,-1.107 -4,-1.549c-1.112,-0.443 -2.223,-0.664 -3.556,-1.107c-6.223,-3.32 -12.89,-5.312 -20.447,-6.197h-17.78c-6.223,0 -13.113,0.221 -20.892,0.443c-5.556,0 -10.223,0.664 -14.224,1.991c-1.111,0 -2,0.221 -2.889,0.443c-0.889,0.443 -1.778,0.886 -2.889,1.549c-1.334,0.443 -2.445,1.549 -3.111,3.541c-0.445,1.771 -0.667,3.32 -1.111,5.091c-0.444,1.771 -0.667,3.32 -1.112,5.091c-1.111,3.765 -1.111,6.863 0,9.736c0.445,1.33 0.667,2.44 1.112,3.544c0.445,1.104 0.666,2.214 1.111,3.544c0.666,0.665 1.111,1.104 1.555,1.104c1.778,-0.439 3.334,-0.665 5.112,-0.665c1.778,-0.219 3.333,-0.219 5.111,-0.219c1.111,-0.446 1.778,0.219 2.445,1.549c0.667,1.33 1.333,2.434 2,3.544c0,0.439 0.445,0.884 1.111,1.549c0.667,1.769 1.334,1.769 2,0.439c0.445,0 0.889,-0.439 1.556,-1.104l1.111,-0.446c1.111,-0.665 1.778,-0.439 2.445,1.11c0,1.104 0,1.988 0.222,3.099c0.222,1.104 0.222,1.988 0.222,3.099c0,1.988 0.667,4.422 2,7.082c1.778,2.653 2.89,5.978 3.556,9.735c0.667,3.764 1.334,7.527 2,11.736c1.112,1.769 0.001,3.099 -3.111,3.983c-0.444,0.439 -0.667,0.665 -1.333,0.665c-0.445,0.219 -0.889,0.439 -1.334,0.665c-0.666,0.439 -1.333,1.104 -2,2.434c0,1.104 -0.444,1.769 -1.111,1.988c-1.778,1.33 -3.334,2.66 -4.667,3.764c-1.333,1.11 -2.889,2.214 -4.667,3.318c-0.667,0.665 -1.111,1.11 -1.556,1.11c-0.666,0.665 -1.333,0.439 -2,-0.446c-0.667,-0.665 -1.111,-1.323 -1.111,-1.988c-0.667,-1.775 -1.111,-3.325 -1.333,-5.093c-0.222,-1.768 -0.445,-3.318 -0.667,-5.087c0,-1.33 0,-2.44 -0.222,-3.544c-0.223,-1.11 -0.445,-2.434 -0.667,-3.983c0,-0.446 -0.222,-0.446 -0.445,-0.446h-0.889c-0.666,2.66 -1.111,4.428 -1.111,5.093c-0.667,3.764 -0.444,6.862 0.445,9.735c0.444,1.11 0.444,2.214 0.444,3.325v3.318c0,3.099 -1.111,5.313 -3.111,6.643c-0.445,0 -0.667,0 -0.667,0.219c-0.222,0.219 -0.444,0.219 -0.667,0.219c-1.333,0.665 -2.667,1.33 -3.778,1.995c-1.111,0.665 -2.444,1.33 -3.778,1.988c-0.444,0 -0.666,0 -0.666,0.226c-0.223,0.219 -0.445,0.219 -0.667,0.219c-2.445,0.665 -3.556,-0.219 -3.556,-2.434c-0.444,-0.665 -0.444,-1.769 -0.444,-3.099c0,-0.665 0,-1.33 0.222,-1.775c0.222,-0.439 0.222,-1.104 0.222,-1.769c0,-1.104 -0.444,-1.769 -1.111,-2.434c0,-1.33 -0.445,-1.549 -1.556,-0.446c-0.666,0.446 -1.333,1.11 -2,2.44c-2.445,0.658 -3.778,1.323 -4,2.208c-0.445,0.891 -0.445,1.549 -0.445,2.214c2.445,1.11 3.778,1.995 4,3.099c0.445,1.11 0.445,1.995 0.445,3.099c0,0.665 -0.889,1.33 -2.889,1.995c-1.778,0.665 -3.111,1.104 -3.778,1.549c-1.778,1.33 -3.778,2.214 -6.223,2.434c-2.444,0.446 -4.444,0.219 -6.222,-0.439c-1.778,-1.11 -3.112,-2.44 -4.001,-3.99c-0.666,-1.988 -1.111,-3.757 -1.111,-5.087c0,-1.775 0,-3.325 0.222,-4.648c0.223,-1.33 0.222,-2.66 0.222,-3.983c0.445,-1.775 0.445,-3.544 0.445,-5.313v-5.313c-0.444,-1.769 -0.667,-3.544 -0.667,-5.532c-0.222,-1.995 -0.666,-4.209 -1.333,-6.643c-0.667,0 -1.111,-0.219 -1.556,-0.446c-0.666,2.66 -1.333,5.093 -1.778,7.308c-0.445,2.215 -1.111,4.428 -1.778,6.417c-0.444,1.775 -0.666,3.325 -0.666,4.648c-0.223,1.33 -0.222,2.879 -0.222,4.648c0,1.33 -0.001,2.434 0.222,3.544c0.222,1.104 0.444,2.214 0.666,3.537c0.445,1.11 0.445,1.995 0.445,2.879c0,0.884 0.222,1.775 0.444,2.879c0,1.33 -0.222,2.214 -0.444,2.434c-0.667,1.33 -1.333,2.434 -2,3.099c-3.334,1.33 -6.445,1.769 -9.112,1.11c-2.445,-0.446 -4,-1.995 -4.667,-5.093c-0.667,-2.653 -1.111,-4.648 -1.111,-6.197v-3.983c0,-0.446 0,-0.665 -0.222,-0.665c-0.223,-0.219 -0.223,-0.446 -0.223,-0.665c-0.666,0.665 -1.111,1.104 -1.111,1.549c0,0.445 -0.222,0.884 -0.444,1.549c-0.667,1.995 -1.334,3.764 -2,5.093c0,0.665 -0.445,1.323 -1.112,1.988c-0.444,0.665 -1.111,1.11 -2,1.11c-4,-0.665 -7.111,-1.549 -8.89,-2.434c-1.778,-1.11 -3.556,-2.44 -4.89,-3.99c-1.333,-1.323 -2,-3.537 -2,-6.636c0,-3.764 0,-7.308 0.223,-10.626c0.223,-3.318 0.666,-6.862 1.333,-10.626l-1.111,-0.439v0.439c-1.778,3.099 -3.334,5.978 -4.667,8.857c-1.334,2.873 -2.445,5.971 -3.112,9.296c-0.444,0.665 -0.444,1.323 -0.444,2.214c0,0.884 -0.222,1.549 -0.444,2.208c0,0.446 -0.001,0.665 -0.223,0.665c-0.222,0.226 -0.222,0.446 -0.222,0.665c-0.667,1.33 -1.556,1.769 -2.445,1.11c-1.777,-0.665 -3.555,-2.44 -5.556,-5.093c-2.445,-3.764 -3.779,-7.527 -4.001,-11.729c-1.111,-5.532 -0.889,-10.845 0.445,-16.158c0.666,-1.995 1.111,-3.983 1.555,-5.758c0.445,-1.769 0.667,-3.537 1.111,-5.313c1.112,-7.082 4.445,-13.498 10.223,-19.25c0.667,-0.665 1.334,-1.33 2.001,-1.775c0.666,-0.439 1.333,-1.104 2,-1.769c0.667,-0.446 1.778,-1.11 3.111,-2.434c1.333,-1.11 2,-2.66 2,-5.093c0,-0.665 0,-1.104 0.222,-1.33c0.223,-0.219 0.223,-0.658 0.223,-1.323c-0.667,-3.986 -0.223,-8.413 1.555,-13.282c0.667,-1.992 0.667,-3.32 0,-3.763c-0.667,-0.443 -1.778,-1.106 -3.555,-1.771c-1.112,-0.443 -2.001,-0.443 -2.89,-0.443c-0.889,0 -1.777,-0.221 -2.889,-0.442c-1.111,-0.443 -2,-0.443 -3.111,-0.443c-1.111,0 -2,-0.443 -3.111,-1.106c-2.667,-0.664 -5.556,-1.107 -8.223,-1.55c-2.667,-0.443 -5.556,-0.664 -8.223,-1.106c-2.667,0 -6,0 -9.779,-0.221c-3.779,-0.221 -7.556,0 -11.335,0.664c-1.333,0.443 -2.666,0.443 -4,0.443c-1.334,0 -2.667,0.221 -4,0.442c-2.667,0.664 -5.334,1.329 -7.556,1.771c-2.445,0.443 -4.667,1.328 -7.112,2.214c-2.444,1.328 -4.667,2.214 -7.112,2.435c-1.111,0.664 -3.111,1.328 -6.222,1.991c-4,1.107 -8.223,0 -12.224,-3.099l-0.445,-0.443c-2.667,-2.656 -5.111,-5.312 -7.111,-8.189c-2,-2.656 -4.001,-5.534 -5.556,-8.632c-2,-3.099 -3.556,-6.197 -4.667,-9.739c-1.111,-3.984 -0.889,-7.968 0.444,-11.731c0.445,-1.107 0.667,-1.992 1.111,-3.099c0.444,-1.107 0.889,-2.435 1.556,-3.984c0.667,-1.992 1.333,-3.763 2,-5.091c0.667,-1.328 1.334,-2.656 2,-3.984c2.667,-3.763 3.778,-8.411 3.112,-14.166c-0.445,-2.656 -0.667,-5.091 -1.112,-7.304c-0.445,-2.213 -0.888,-4.427 -1.555,-6.861c-0.445,-1.329 -0.667,-2.656 -0.667,-3.984c-0.222,-1.328 -0.444,-2.656 -0.667,-3.984c-0.666,-6.197 -1.111,-11.509 -1.333,-15.936c-0.222,-4.649 0,-8.854 0.667,-13.059c0.666,-5.312 1.555,-10.846 2.444,-16.157c1.111,-5.312 1.778,-11.731 2.445,-18.814c0.444,-2.435 0.667,-4.649 1.111,-6.641c0.444,-1.992 0.445,-3.984 0.445,-6.197c0,-1.771 0,-3.32 0.222,-4.869c0.222,-1.549 0.222,-3.099 0.222,-4.869c0,-4.649 -0.222,-9.739 -0.444,-14.83c-0.445,-5.091 -1.112,-11.067 -2.001,-17.707c-0.666,-3.32 -1.333,-5.755 -2,-7.083c0,-0.443 -0.222,-0.443 -0.444,-0.443l-0.445,0.443v24.347c0,1.328 -0.222,2.877 -0.444,4.648c-0.667,1.771 -1.111,3.32 -1.334,4.648c-0.223,1.328 -0.666,2.877 -1.333,4.648c-0.667,1.329 -1.111,2.435 -1.556,3.541c-0.445,1.106 -0.889,2.214 -1.555,3.541c-1.334,3.099 -2.223,6.198 -2.889,9.075c-0.445,3.099 -0.889,6.197 -1.334,9.075c0,3.32 0,5.754 0.222,7.304c0.222,1.55 0,2.877 -0.666,4.426c0,0.443 -0.223,0.443 -0.445,0.443c-0.444,-0.443 -0.444,-0.664 -0.444,-1.107c-0.667,-3.763 -1.334,-7.746 -1.778,-11.952c-0.444,-4.206 -0.889,-7.968 -1.334,-11.509c-0.666,-5.312 -1.111,-10.846 -1.333,-15.936c-0.222,-5.312 0,-10.624 0.222,-15.936c0.445,-4.649 0.667,-8.854 0.667,-12.174c0.222,-3.32 0.444,-6.419 0.667,-9.075c0.666,-3.763 1.333,-7.304 1.778,-10.624c0.445,-3.32 1.111,-6.861 1.777,-10.624c0.667,-2.656 1.112,-5.312 1.556,-7.968c0.445,-2.435 0.889,-5.534 1.556,-8.854c1.333,-7.083 3.556,-13.28 6.667,-18.371c2,-3.763 4.445,-7.304 7.334,-10.846c2.889,-3.542 6.667,-7.083 11.557,-10.403c4.667,-6.197 9.779,-11.952 15.335,-17.264c5.333,-5.312 11.112,-10.181 16.891,-14.166c3.111,-1.991 5.778,-3.762 8,-5.091c2.222,-1.329 4.445,-2.434 6.667,-3.541c2.223,-1.107 4.667,-1.992 7.556,-2.878c2.889,-0.886 6.445,-1.992 10.89,-3.32c6.223,-1.992 12.668,-3.984 19.336,-5.534c6.889,-1.771 14.446,-3.099 22.891,-3.984c6.445,-1.992 13.113,-3.099 20.003,-3.099c2,-0.442 4,-0.664 6.222,-0.664c2.001,-0.221 4.001,0 6.223,0.221c3.111,0.442 6.223,0.442 9.334,0.442c3.334,0 7.334,0.221 12.446,0.443c5.333,1.107 10.89,2.214 16.002,3.541c5.333,1.328 10.445,2.877 15.557,4.648c8.223,2.656 16.224,5.976 24.003,9.739c7.779,3.763 14.891,8.189 20.891,13.28c5.112,4.648 9.557,9.96 13.335,15.715c2.667,3.984 5.778,7.968 9.334,11.509c3.556,3.541 7.334,7.304 10.89,10.846c1.778,1.992 3.334,4.205 4.89,6.64c1.556,2.435 2.889,4.648 4.444,7.083c2.445,4.426 4.445,9.739 5.776,15.715c1.556,6.197 2.892,11.509 3.783,16.157c1.11,7.083 1.556,14.166 1.556,21.249v21.249c-0.446,2.656 -0.672,5.533 -0.672,8.189c-0.219,2.656 -0.439,5.534 -0.665,8.189l-1.556,12.174c-0.446,1.992 -0.446,3.984 -0.446,5.755c0,1.771 -0.219,3.541 -0.446,5.312c-0.439,8.19 -1.11,14.166 -1.997,18.371c0,2.434 -0.444,5.312 -1.111,8.632c0,0.664 -0.445,1.771 -1.111,3.099h-0.889c-0.667,-1.328 -1.111,-2.435 -1.556,-3.541c-0.445,-1.106 -0.444,-2.214 -0.444,-3.32c0,-1.106 -0.223,-2.435 -0.445,-3.763c-0.444,-1.771 -0.444,-3.541 -0.444,-5.755c0,-2.214 -0.223,-5.091 -0.445,-8.853c0,-3.099 -0.444,-5.976 -1.555,-8.632c-0.667,-2.656 -1.112,-5.312 -1.556,-8.19c-0.445,-2.656 -0.667,-5.312 -1.111,-8.189v-18.814c-0.445,0.443 -0.667,0.443 -1.111,0.443c0,0.664 -0.001,1.106 -0.223,1.549c-0.222,0.443 -0.222,0.885 -0.222,1.549c-0.667,3.763 -1.111,7.526 -1.556,11.509c-0.445,3.983 -0.889,7.969 -1.555,11.952c-0.445,3.763 -0.667,7.526 -1.334,11.51c-0.444,3.984 -0.666,8.632 -0.666,14.387c0.666,3.099 1.333,5.976 1.777,8.854c0.444,2.878 1.556,5.755 3.334,8.411c1.778,2.656 3.333,5.534 4.667,8.411c1.334,2.877 2.667,5.755 4,8.411c1.334,1.992 2,3.984 2,5.534c0.445,1.328 0.667,2.878 1.112,4.427c0.445,1.549 0.886,4.205 1.557,7.968c0.665,1.992 1.33,4.206 2.221,6.419c0.891,2.213 1.556,4.427 2.221,6.419c1.782,7.082 2.001,13.723 1.11,19.92l-1.556,12.174c-0.665,4.648 -0.884,8.411 -0.439,11.288c0.439,2.656 0.884,5.312 1.549,7.526c0,0.664 0,1.328 0.226,1.771c0.219,0.443 0.219,1.106 0.219,1.771c0.891,-0.443 0.891,0.885 0.891,2.434zM473.432,600.767c1.778,-1.328 3.334,-2.656 4.889,-3.763c1.555,-1.107 3.778,-2.434 6.89,-3.762c0.666,-1.329 1.333,-2.435 2.222,-3.541c0.889,-1.106 1.556,-1.992 2.222,-3.099c0.667,-0.442 1.556,-0.442 2.445,0c1.333,0.664 2.445,1.55 3.556,2.435c1.111,1.106 2,1.771 3.111,2.435c0.445,0.442 0.889,0.442 1.556,0.442c0.444,0 0.444,-0.442 0.444,-1.106c0,-3.099 -0.222,-5.312 -0.444,-6.64c-0.445,-1.771 -0.667,-3.32 -1.333,-4.869c-0.445,-1.549 -1.112,-3.099 -1.779,-4.87c-0.666,-2.434 -0.666,-4.869 0,-7.525c1.112,-1.771 1.334,-3.32 1.112,-5.091v-4.427c0,-1.549 -0.222,-3.762 -0.445,-6.861c0,-0.664 -0.222,-1.106 -0.667,-1.328c-0.445,-0.222 -0.888,0 -1.333,0.221l-1.111,1.106c-0.445,2.656 -0.667,4.427 -1.333,5.091c-0.445,0.664 -1.112,0.886 -1.778,0.443c-0.666,-0.443 -1.778,-0.443 -3.112,-0.443c0,-2.656 0,-4.205 -0.222,-4.648c-0.222,-0.443 -0.222,-0.664 -0.222,-1.106c-1.111,-2.435 -2.445,-4.427 -4,-6.198c-1.778,-1.771 -4.668,-3.32 -9.112,-4.648c-4.001,-2.434 -8.445,-4.205 -12.668,-5.534c-4.445,-1.328 -9.112,-2.434 -13.779,-3.099c-2.666,-0.664 -4.444,-0.885 -5.333,-0.443c-0.889,0.442 -2.445,1.107 -4.89,2.435c-0.444,-0.443 -0.666,-0.443 -0.666,-0.443c-0.223,0 -0.445,-0.221 -0.667,-0.442c-2.445,-1.771 -6.223,-1.55 -11.779,0.442h-0.444c-0.445,0 -0.445,0.221 -0.445,0.443c-3.778,1.771 -6.889,2.435 -9.112,1.992c-0.667,0 -1.112,0 -1.556,-0.221c-0.444,-0.221 -0.889,-0.221 -1.556,-0.221c-1.111,-0.443 -2.889,-0.443 -5.556,-0.443c-3.778,0 -6.889,0.664 -9.779,1.992c-0.667,0.443 -1.111,0.443 -1.556,0.443c-0.445,0 -0.889,0.221 -1.555,0.443c-1.334,0.664 -2.445,0.885 -3.556,0.442l-1.111,-0.442h-0.889c-1.334,0 -2.001,0.442 -2.001,1.549c0,3.099 -0.444,5.091 -1.555,6.197c-0.667,1.107 -1.111,2.214 -1.334,3.763c-0.223,1.549 0,3.763 0.223,6.861c0.444,1.771 0.222,3.984 -0.445,6.64c-0.444,1.771 -0.667,3.32 -0.667,4.869c-0.222,1.549 -0.444,3.099 -0.666,4.869v3.541c0.666,7.526 2.222,14.387 4.667,20.806c0.444,1.992 1.111,3.984 2.444,5.534c1.778,3.763 3.556,6.64 5.556,8.854c2,2.214 4.223,3.984 6.667,5.312c1.334,0.664 3.112,1.992 5.112,3.984c0.444,1.771 1.111,2.878 2,3.541c0.667,0.664 1.111,1.107 1.556,1.107c0.666,0.664 1.333,0.885 2,0.664c0.667,-0.221 1.333,-0.664 2,-1.328l1.556,-3.099c2.444,-3.099 5.556,-4.648 9.779,-4.648h12.224c1.778,0.442 3.556,0.442 5.556,0.221c2,-0.221 4,-0.221 5.556,-0.221c5.112,-0.664 9.779,-1.992 13.779,-3.984c2,-1.106 4,-2.656 5.778,-4.869c2,-0.886 3.778,-3.32 5.556,-5.755zM544.773,657.872c0.445,-1.771 0.667,-3.099 0.667,-4.427c0.222,-1.106 0.223,-2.434 0.223,-3.762c-0.445,-0.664 -0.445,-1.771 -0.445,-3.541c-0.667,-1.771 -1.111,-3.32 -1.556,-4.869c-0.445,-1.549 -0.666,-3.099 -1.111,-4.87c-0.667,-1.991 -1.778,-3.984 -3.111,-5.754c-1.333,-1.77 -3.778,-3.541 -7.112,-5.312c-1.333,-1.771 -2.444,-3.32 -3.333,-4.869c-0.889,-1.549 -1.778,-3.099 -2.89,-4.869c-0.666,-1.107 -1.111,-1.992 -1.555,-2.878c-0.444,-0.886 -0.889,-1.992 -1.556,-3.32c-0.667,-3.763 -1.778,-6.197 -3.111,-7.525c-2.445,-1.771 -4.667,-1.992 -6.667,-1.107c-5.556,3.763 -9.112,8.854 -10.668,15.272c-0.444,1.771 -1.111,4.206 -2.444,7.526c-1.778,3.984 -3.556,7.968 -5.334,11.509c-1.778,3.541 -4,7.304 -6.445,10.846c-1.333,1.992 -2.445,4.648 -3.556,8.189c-5.778,7.747 -5.556,14.164 0.445,18.812c1.111,2.66 2.444,5.313 4,8.192c1.111,1.995 2.445,3.544 4.667,4.648c1.111,0.665 2,1.33 3.111,1.995c1.111,0.658 2.001,1.323 3.112,1.988c1.333,0.665 2.444,1.11 3.555,1.11c2.001,0.658 3.556,0.219 4.667,-1.549c0.445,-0.446 0.889,-1.11 1.556,-2.44c0.445,-0.658 0.445,-1.104 0.445,-1.549c0,-0.439 0.222,-0.884 0.444,-1.549c0.445,-2.434 1.556,-4.202 3.556,-5.532c2,-1.33 3.778,-1.104 5.111,1.11c0.667,0.665 1.112,1.104 1.334,1.549c0.222,0.439 0.666,0.884 1.333,1.549c1.778,1.769 3.556,1.988 5.556,1.104c2.445,-0.665 5.112,-1.769 8.223,-3.318c3.111,-1.549 4.889,-3.544 5.556,-6.423c0,-0.658 0,-1.104 0.222,-1.549c0.222,-0.439 0.222,-0.884 0.222,-1.549c0.445,-1.323 0.667,-2.653 0.667,-3.983c0.222,-1.323 0.667,-3.097 1.333,-5.089c0.445,-1.549 0.667,-2.878 0.889,-3.763zM657.674,586.601v-3.32c0,-1.106 0.223,-2.656 0.445,-4.426c-0.445,-1.328 -0.445,-2.656 -0.445,-3.984v-4.648c0,-1.992 -0.444,-3.984 -1.555,-6.197c-1.334,-2.656 -2.889,-5.976 -4.667,-9.739c-1.778,-3.763 -4,-6.861 -6.667,-9.074c-1.112,-0.664 -2,-1.107 -2.889,-1.55c-0.889,-0.443 -2.223,-0.885 -3.778,-1.549c-3.334,-1.771 -6.668,-3.32 -9.779,-4.648c-3.111,-1.328 -6.223,-2.877 -9.112,-4.648c-1.111,-1.107 -2,-1.549 -3.111,-1.549c-2,-1.329 -4.667,-1.329 -8.223,0c-0.444,0.442 -0.667,0.664 -1.111,0.664c-0.444,0.221 -0.667,0.443 -1.111,0.664c-0.667,0 -1.334,0.443 -2,1.106c-2.667,1.107 -5.334,1.549 -7.557,1.549c-1.333,0 -3.555,-0.442 -6.667,-1.549c-2,-0.443 -4,-1.106 -5.556,-1.992c-1.778,-0.664 -2.889,-0.442 -3.555,1.107c-0.667,1.328 -1.112,2.213 -1.112,2.434c-0.666,1.771 -1.778,2.435 -3.111,2.435c-2.445,0 -4.667,0.885 -7.111,2.434c-1.112,0.664 -2.001,1.107 -2.89,1.329c-0.889,0.222 -1.778,0.664 -2.889,1.328c-2.667,1.328 -5.111,1.771 -7.111,1.549c-1.778,0 -4.001,0.443 -6.668,1.106c-0.444,0.443 -0.666,0.443 -0.666,0.443c-0.222,0 -0.445,0.221 -0.667,0.443c-1.333,0 -1.556,0.885 -0.444,2.434c0.666,0.443 1.111,0.664 1.333,0.664c0.222,0.221 0.667,0.443 1.333,0.664c0.667,2.656 1.112,4.426 1.112,5.091v1.992c0.444,3.32 -0.445,6.861 -2.445,10.181c-0.667,0.664 -1.333,1.549 -1.778,2.434c-0.444,1.107 -1.111,1.771 -1.778,2.435c-1.111,1.771 -2,3.32 -2.889,5.091c-0.889,1.771 -1.556,3.32 -2.222,5.091v1.106h1.111c1.333,-0.664 2.222,-1.106 2.444,-1.106c1.112,0 1.556,0.221 1.556,0.443c0.445,1.771 1.556,3.984 3.556,6.64c1.778,2.434 3.556,4.648 5.556,6.64c2,1.992 4.223,4.426 6.667,7.083c1.334,2.656 2.889,4.869 4.667,6.64l6.223,3.099c7.556,3.099 16.669,5.534 27.558,7.526c3.334,0.442 6.89,0.442 10.223,0c5.112,-0.443 10.223,-1.771 15.335,-4.649c4.444,-1.771 8.89,-4.426 13.557,-7.968c4.667,-3.542 9.334,-7.304 14.002,-10.846c2,-1.771 3.334,-3.099 3.556,-3.984c0.445,-1.107 0.889,-2.878 1.556,-5.534v-0.886z" /></svg>