<svg xmlns="http://www.w3.org/2000/svg" viewBox="0 0 1024 1024" width="1024" height="1024"><path d="M377.566,460.523c-0.013,-0.109 -0.025,-0.207 -0.034,-0.319c-0.104,-1.425 0.456,-2.823 1.523,-3.782c1.428,-1.285 3.501,-1.553 5.21,-0.677l26.776,13.735c1.243,0.637 2.187,1.736 2.63,3.061c0.159,0.477 0.25,0.975 0.271,1.477c0.009,0.227 -0.001,0.441 -0.012,0.665l-0.003,0.059c-0.133,2.801 -1.022,21.817 -1.483,40.788c22.388,-0.343 50.985,-1.827 54.473,-2.012c0.023,-0.001 0.047,-0.002 0.071,-0.003c0.219,-0.012 0.43,-0.023 0.652,-0.011c1.084,0.058 2.109,0.531 2.858,1.328c0.366,0.388 0.646,0.849 0.571,1.376c-0.535,3.74 -7.058,17.144 -9.647,22.358c-0.675,1.362 -1.797,2.446 -3.174,3.089c-0.844,0.394 -1.759,0.61 -2.689,0.636c-0.092,0.003 -0.173,0.003 -0.264,0.003l-0.02,-0.001c-1.886,-0.002 -23.123,-0.017 -43.051,0.606c0.315,22.516 1.837,51.849 2.024,55.384c0.001,0.023 0.003,0.047 0.004,0.071c0.012,0.219 0.023,0.43 0.011,0.652c-0.058,1.084 -0.531,2.109 -1.329,2.858c-0.388,0.366 -0.849,0.646 -1.376,0.571c-3.74,-0.535 -17.144,-7.058 -22.358,-9.647c-1.362,-0.675 -2.446,-1.797 -3.089,-3.174c-0.394,-0.844 -0.61,-1.759 -0.636,-2.689c-0.003,-0.093 -0.003,-0.174 -0.003,-0.265v-0.02c0.002,-1.861 0.017,-22.559 -0.581,-42.251c-24.119,1.939 -53.235,5.505 -55.7,5.809l-0.034,0.004c-0.109,0.014 -0.207,0.026 -0.319,0.034c-1.425,0.104 -2.823,-0.455 -3.782,-1.522c-1.285,-1.429 -1.553,-3.501 -0.677,-5.21l13.735,-26.777c0.637,-1.242 1.736,-2.186 3.061,-2.629c0.477,-0.159 0.975,-0.25 1.477,-0.271c0.227,-0.009 0.441,0.001 0.665,0.012c0.02,0.001 0.039,0.002 0.059,0.003c2.759,0.131 21.243,0.995 39.923,1.462c-1.954,-23.926 -5.431,-52.311 -5.731,-54.744l-0.004,-0.035z" /> <path d="M385.805,452.747l26.776,13.737c2.025,1.039 3.567,2.829 4.289,4.987c0.261,0.78 0.4,1.593 0.434,2.408v0.013c0.016,0.408 -0.002,0.721 -0.013,0.947v0.066c-0.121,2.543 -0.862,19.977 -1.342,37.132c21.467,-0.449 47.523,-1.71 50.776,-1.882h0.013c0.052,-0.003 0.088,-0.002 0.053,0h0.013c0.218,-0.012 0.569,-0.036 1.013,-0.013h0.013c1.941,0.107 3.777,0.955 5.118,2.382c0.688,0.731 1.739,2.201 1.461,4.158c-0.23,1.606 -0.804,3.138 -1.566,5.092c-0.762,1.954 -1.737,4.179 -2.763,6.447c-2.051,4.536 -4.34,9.214 -5.645,11.842c-1.019,2.054 -2.707,3.684 -4.763,4.645c-1.262,0.589 -2.635,0.909 -4.026,0.947c-0.142,0.004 -0.267,0 -0.355,0h-0.132c-1.812,-0.002 -21.128,0.071 -39.447,0.553c0.424,21.716 1.72,48.566 1.895,51.882v0.013c0.001,0.021 0.012,0.037 0.013,0.053v0.013c0.012,0.218 0.036,0.569 0.013,1.013v0.013c-0.107,1.941 -0.967,3.777 -2.395,5.118c-0.735,0.691 -2.206,1.738 -4.158,1.461c-1.606,-0.23 -3.125,-0.804 -5.079,-1.566c-1.954,-0.762 -4.193,-1.737 -6.461,-2.763c-4.536,-2.051 -9.214,-4.34 -11.842,-5.645c-2.054,-1.019 -3.671,-2.707 -4.632,-4.763c-0.588,-1.258 -0.921,-2.627 -0.961,-4.013c-0.004,-0.15 0,-0.277 0,-0.368v-0.026c0.003,-1.684 -0.073,-20.552 -0.526,-38.513c-22.952,1.983 -49.686,5.139 -51.974,5.421h-0.013l-0.039,0.013c-0.11,0.013 -0.268,0.024 -0.474,0.039c-2.459,0.181 -4.87,-0.776 -6.526,-2.618c-2.211,-2.459 -2.68,-6.058 -1.171,-9l13.737,-26.776c1.039,-2.024 2.829,-3.567 4.987,-4.289c0.78,-0.26 1.593,-0.413 2.408,-0.447h0.013c0.391,-0.015 0.684,0.002 0.908,0.013h0.039c-0.005,0 0.027,0 0.013,0h0.053c2.481,0.118 19.33,0.836 36.013,1.316c-1.987,-22.617 -5.052,-48.57 -5.329,-50.816v-0.039c-0.014,-0.108 -0.037,-0.26 -0.053,-0.461v-0.026c-0.18,-2.46 0.791,-4.871 2.632,-6.526c2.459,-2.212 6.058,-2.68 9,-1.171zM382.725,458.75c-0.476,-0.244 -1.024,-0.173 -1.421,0.184c-0.293,0.263 -0.437,0.637 -0.408,1.026l-0.013,-0.013c0.001,0.023 0.012,0.061 0.026,0.171v0.026c0.302,2.452 3.787,30.848 5.75,54.882l0.303,3.737l-3.75,-0.092c-18.703,-0.468 -37.137,-1.327 -39.947,-1.461c-0.097,-0.003 -0.124,-0.002 -0.066,0h-0.039c-0.223,-0.011 -0.336,-0.015 -0.382,-0.013c-0.184,0.009 -0.368,0.035 -0.539,0.092c-0.488,0.166 -0.898,0.517 -1.132,0.974l-13.724,26.776c-0.245,0.477 -0.174,1.022 0.184,1.421c0.262,0.292 0.636,0.45 1.026,0.421c0.012,-0.001 0.049,-0.013 0.158,-0.026h0.026c2.485,-0.306 31.61,-3.868 55.842,-5.816l3.526,-0.289l0.118,3.539c0.601,19.765 0.582,40.476 0.579,42.355v0.013c0,0.091 -0.001,0.137 0,0.171c0.013,0.468 0.118,0.93 0.316,1.355c0.326,0.698 0.869,1.26 1.539,1.592c2.586,1.284 7.214,3.547 11.618,5.539c2.203,0.995 4.358,1.926 6.132,2.618c1.209,0.472 1.782,0.612 2.447,0.803c0,-0.032 -0.006,-0.053 -0.013,-0.184c-0.002,-0.027 0.001,-0.059 0,-0.079v-0.013c-0.187,-3.552 -1.709,-32.886 -2.026,-55.513l-0.053,-3.316l3.316,-0.092c20.005,-0.625 41.263,-0.62 43.158,-0.618h0.053c0.054,0 0.105,0.001 0.132,0c0.468,-0.013 0.93,-0.118 1.355,-0.316c0.698,-0.326 1.26,-0.869 1.592,-1.539c1.284,-2.586 3.547,-7.214 5.539,-11.618c0.995,-2.202 1.926,-4.344 2.618,-6.118c0.474,-1.216 0.613,-1.797 0.803,-2.461c-0.034,0 -0.048,0.005 -0.197,0.013c-0.058,0.003 -0.103,0.002 -0.066,0h-0.013c-3.506,0.185 -32.099,1.668 -54.592,2.013l-3.513,0.066l0.092,-3.513c0.463,-19.015 1.353,-38.031 1.487,-40.855v-0.066c0.01,-0.215 0.014,-0.32 0.013,-0.368c-0.007,-0.184 -0.049,-0.368 -0.105,-0.539c-0.165,-0.492 -0.514,-0.909 -0.974,-1.145l-26.776,-13.724z" /> <path d="M508.607,436.41c-5.3,3.18 -9.408,5.565 -12.322,7.155c-4.24,2.385 -8.215,5.167 -11.924,8.347l-2.385,2.385c-1.061,1.06 -2.651,1.855 -4.77,2.385c-0.53,0 -1.325,0.132 -2.385,0.397h-1.987c-3.445,0 -5.697,-0.53 -6.757,-1.59c-4.505,-2.915 -6.757,-5.697 -6.757,-8.347c0,-1.325 0.397,-2.385 1.192,-3.18c1.59,-3.446 3.047,-5.831 4.372,-7.155c6.625,-5.83 15.236,-12.057 25.836,-18.681c11.129,-6.89 19.741,-14.045 25.836,-21.464c7.154,-8.479 12.851,-16.429 17.091,-23.848l0.397,-0.795c6.095,-10.335 10.997,-18.947 14.707,-25.836c1.855,-3.446 3.445,-5.565 4.77,-6.36c3.18,-1.325 5.962,-1.988 8.347,-1.988h1.59l1.192,0.398c3.975,0.265 5.962,3.047 5.962,8.347c0,3.18 -0.927,6.757 -2.782,10.732c0,11.129 -0.132,21.464 -0.397,31.003c-0.265,9.539 -0.397,24.908 -0.397,46.107v81.085c0,26.233 0.265,46.902 0.795,62.006c0.529,14.838 1.457,26.631 2.782,35.375c2.385,18.549 5.432,30.473 9.142,35.773c2.914,4.24 5.697,6.36 8.347,6.36c0.53,-0.265 1.061,-0.397 1.59,-0.397c0.529,0 0.927,-0.132 1.192,-0.397c2.914,0 4.372,2.914 4.372,8.744c0,3.444 -2.121,5.167 -6.36,5.167c-8.215,-1.06 -15.37,-1.722 -21.464,-1.987c-5.3,-0.265 -12.322,-0.397 -21.066,-0.397c-6.36,0 -13.912,0.397 -22.656,1.192c-8.744,0.795 -16.296,1.59 -22.656,2.385c-4.505,0 -6.757,-1.061 -6.757,-3.18c0,-0.265 0.132,-0.662 0.397,-1.192v-0.795c1.855,-7.95 4.637,-12.057 8.347,-12.322c3.445,-0.53 6.757,-3.843 9.937,-9.937c3.444,-6.625 6.094,-19.344 7.949,-38.157c1.59,-14.044 2.385,-35.11 2.385,-63.198v-15.501c-0.265,-6.625 -0.397,-12.852 -0.397,-18.681v-65.583c-0.531,-2.915 -2.12,-4.77 -4.77,-5.565c-0.795,-0.53 -2.12,-0.795 -3.975,-0.795c-1.59,0 -2.782,0.265 -3.577,0.795z" /></svg>