<svg xmlns="http://www.w3.org/2000/svg" viewBox="0 0 1024 1024" width="1024" height="1024"><path d="M379.311,461.193c-0.013,-0.108 -0.025,-0.204 -0.034,-0.315c-0.103,-1.406 0.45,-2.785 1.503,-3.733c1.41,-1.268 3.456,-1.533 5.143,-0.668l26.429,13.557c1.227,0.629 2.158,1.714 2.596,3.021c0.158,0.472 0.247,0.963 0.268,1.459c0.009,0.224 -0.001,0.435 -0.012,0.656l-0.003,0.057c-0.131,2.765 -1.009,21.533 -1.464,40.258c22.098,-0.338 50.324,-1.803 53.766,-1.985c0.023,-0.001 0.047,-0.003 0.07,-0.004c0.217,-0.012 0.425,-0.023 0.644,-0.011c1.07,0.058 2.082,0.524 2.821,1.311c0.36,0.383 0.637,0.838 0.563,1.358c-0.528,3.691 -6.967,16.921 -9.522,22.068c-0.667,1.344 -1.774,2.414 -3.133,3.049c-0.833,0.389 -1.736,0.603 -2.654,0.628c-0.091,0.003 -0.171,0.002 -0.261,0.002h-0.02c-1.862,-0.002 -22.823,-0.017 -42.492,0.598c0.311,22.223 1.814,51.174 1.998,54.664l0.004,0.07c0.012,0.217 0.023,0.424 0.011,0.644c-0.057,1.07 -0.524,2.082 -1.311,2.821c-0.383,0.36 -0.838,0.637 -1.358,0.563c-3.691,-0.527 -16.92,-6.966 -22.067,-9.521c-1.344,-0.667 -2.414,-1.774 -3.049,-3.133c-0.389,-0.833 -0.603,-1.736 -0.628,-2.654c-0.003,-0.092 -0.003,-0.172 -0.003,-0.262v-0.019c0.003,-1.836 0.017,-22.265 -0.573,-41.702c-23.806,1.913 -52.544,5.433 -54.977,5.734l-0.034,0.004c-0.108,0.013 -0.205,0.025 -0.315,0.033c-1.406,0.103 -2.786,-0.449 -3.733,-1.503c-1.268,-1.41 -1.533,-3.456 -0.668,-5.142l13.557,-26.429c0.629,-1.227 1.713,-2.158 3.021,-2.595c0.471,-0.158 0.963,-0.248 1.458,-0.268c0.224,-0.009 0.435,0.001 0.656,0.012c0.019,0.001 0.039,0.002 0.058,0.003c2.723,0.13 20.968,0.982 39.405,1.443c-1.929,-23.616 -5.361,-51.632 -5.657,-54.034l-0.004,-0.034z" /> <path d="M508.65,437.393c-5.231,3.139 -9.285,5.493 -12.162,7.062c-4.185,2.354 -8.108,5.101 -11.769,8.239l-2.354,2.354c-1.047,1.046 -2.616,1.831 -4.708,2.354c-0.523,0 -1.308,0.13 -2.354,0.392h-1.962c-3.4,0 -5.623,-0.523 -6.669,-1.569c-4.446,-2.878 -6.669,-5.624 -6.669,-8.239c0,-1.307 0.392,-2.353 1.177,-3.138c1.569,-3.401 3.007,-5.755 4.315,-7.062c6.538,-5.755 15.038,-11.901 25.5,-18.439c10.984,-6.8 19.484,-13.862 25.5,-21.185c7.061,-8.37 12.684,-16.216 16.869,-23.539l0.392,-0.785c6.015,-10.2 10.854,-18.7 14.516,-25.5c1.831,-3.4 3.4,-5.492 4.708,-6.277c3.139,-1.308 5.885,-1.962 8.239,-1.962h1.569l1.177,0.393c3.923,0.262 5.885,3.008 5.885,8.239c0,3.138 -0.915,6.669 -2.746,10.592c0,10.984 -0.13,21.185 -0.392,30.6c-0.262,9.415 -0.392,24.584 -0.392,45.508v80.032c0,25.893 0.262,46.293 0.785,61.201c0.522,14.646 1.438,26.285 2.746,34.916c2.354,18.308 5.361,30.077 9.023,35.308c2.877,4.184 5.623,6.277 8.239,6.277c0.522,-0.262 1.046,-0.392 1.569,-0.392c0.523,0 0.915,-0.131 1.177,-0.392c2.876,0 4.315,2.877 4.315,8.631c0,3.4 -2.093,5.1 -6.277,5.1c-8.108,-1.044 -15.17,-1.701 -21.185,-1.962c-5.232,-0.262 -12.162,-0.392 -20.793,-0.392c-6.277,0 -13.731,0.392 -22.362,1.177c-8.631,0.785 -16.085,1.569 -22.362,2.354c-4.446,0 -6.669,-1.043 -6.669,-3.138c0,-0.262 0.13,-0.654 0.392,-1.177v-0.785c1.831,-7.847 4.577,-11.901 8.239,-12.162c3.4,-0.524 6.67,-3.793 9.808,-9.808c3.4,-6.539 6.015,-19.093 7.846,-37.662c1.569,-13.862 2.354,-34.655 2.354,-62.378v-15.3c-0.262,-6.539 -0.392,-12.685 -0.392,-18.439v-64.731c-0.524,-2.877 -2.093,-4.707 -4.708,-5.492c-0.785,-0.524 -2.092,-0.785 -3.923,-0.785c-1.569,0 -2.746,0.262 -3.531,0.785z" /></svg>