<svg xmlns="http://www.w3.org/2000/svg" viewBox="0 0 1024 1024" width="1024" height="1024"><path d="M402.659,181.893c5.825,-0.381 11.62,0.488 17.434,0.632c16.481,43.378 39.776,86.318 77.112,114.766c19.667,30.914 52.175,48.925 77.572,74.465c20.944,33.707 53.436,23.146 83.371,11.337c37.072,0.909 69.216,-16.588 103.848,-26.458c25.683,1.437 82.641,-43.111 84.872,1.969c-51.172,48.634 -104.243,95.728 -163.013,135.079c44.684,44.359 80.917,96.42 112.702,150.56c23.378,6.621 -7.363,34.128 10.983,19.283c4.511,22.568 46.79,55.911 28.275,72.458c21.584,-8.372 11.428,28.62 -8.405,19.845c-95.43,-21.638 -187.388,-56.559 -277.88,-93.522c-26.344,-11.64 -60.546,-36.734 -74.914,4.768c-30.311,38.294 -61.667,78.56 -71.461,127.762c-4.42,31.745 -8.317,67.196 -23.582,91.005c-36.208,-8.78 -45.588,-56.421 -61.333,-86.332c-10.703,-33.404 -23.958,-71.73 -17.972,-105.643c18.977,-22.413 -4.959,-62.361 15.358,-78.52c-11.006,-2.573 0.193,-57.912 2.4,-83.32c-56.606,-35.414 -108.062,-81.014 -143.529,-138.069c-10.657,-22.459 -50.573,-78.241 -5.532,-81.049c52.124,34.982 115.376,45.468 174.956,61.815c8.92,-34.312 18.614,-68.414 28.209,-102.541c10.958,-29.577 12.269,-64.924 30.528,-90.288zM411.896,230.183c-2.109,7.664 -4.268,15.314 -6.446,22.958c-13.232,17.509 -5.004,69.361 -29.838,67.042c17.694,7.224 4.886,21.024 1.109,32.455c-1.294,43.002 15.491,-21.733 29.736,-26.676c21.783,5.115 45.878,4.89 64.604,22.007c41.596,5.519 69.737,44.476 106.373,63.583c-29.006,-30.041 -61.838,-56.934 -95.984,-80.701c-19.116,-33.777 -55.15,-61.144 -69.555,-100.667zM183.58,352.882c24.342,54.615 67.883,97.905 115.092,133.331c18.694,14.45 14.886,3.866 -1.02,-5.694c-16.939,-20.941 -66.515,-35.343 -51.932,-68.074c25.303,6.981 16.643,-18.487 35.991,-22.435c51.116,13.881 104.257,22.935 157.475,25.094c-9.897,-2.991 -63.353,-7.254 -89.73,-12.077c-56.091,-13.205 -113.468,-25.353 -165.877,-50.145zM413.153,393.671c0.623,-14.821 34.595,-14.023 35.147,-0.289c-6.138,2.616 30.253,-9.711 44.476,-0.738c4.863,-12.39 -64.32,-9.241 -77.052,-35.381c-11.48,12.553 -6.209,22.791 -2.571,36.408zM407.447,379.908l0.171,-1.776zM759.797,385.28c-20.266,21.582 -83.331,9.081 -78.177,34.907c18.765,15.633 -16.496,13.362 -2.327,21.261c-25.755,38.482 -68.683,61.646 -100.53,94.92c68.801,-52.938 144.227,-97.625 207.013,-158.105c-8.983,0.858 -17.692,3.524 -25.979,7.017zM519.197,386.947l-4.137,5.389zM638.526,395.829l2.543,3.859zM593.382,425.829c-6.617,8.35 -6.581,8.329 0,0zM649.053,434.908c-17.519,-5.77 -8.294,26.815 0,0zM322.319,464.742c23.542,-11.228 1.245,-40.062 -22.187,-29.387c-14.507,10.177 13.755,26.032 22.187,29.387zM390.764,438.539c-0.634,4.793 -1.986,9.437 -3.001,14.151c3.286,33.769 0.812,-0.989 23.369,-4.248c42.962,-8.216 -5.497,-8.397 -20.369,-9.903zM627.658,443.25l-1.75,1.057zM515.553,443.447c-10.305,-8.713 -5.692,9.332 0,0zM551.429,447l-0.126,-0.921zM357.935,447.46c-12.524,77.634 -24.635,155.88 -23.284,234.752c7.543,29.686 -5.907,59.338 2.213,87.303c4.291,26.638 13.642,41.675 40.219,29.883c0.892,-35.098 19.29,-68.487 38.246,-97.83c9.855,-25.768 71.996,-64.039 22.31,-79.079c-28.013,10.832 -31.023,64.083 -66.745,62.935c-27.561,-27.362 -2.465,-74.138 -15.398,-111.149c1.347,-37.013 -6.301,-77.22 4.82,-112.294c21.838,-6.171 -1.485,2.691 -2.382,-14.52zM607.395,450.763l0.473,-0.592zM465.378,452.906l-3.286,-0.485zM571.616,491.932c6.419,17.61 27.811,-44.907 -8.682,-34.221c-4.751,12.123 12.264,21.474 8.682,34.221zM474.694,509.489c-26.473,-14.369 -10.276,11.856 4.814,20.298c24.968,21.569 20.359,-21.671 35.166,-15.843c-7.332,4.553 0.932,-43.853 -21.003,-46.905c-2.244,14.826 -3.593,35.14 -18.977,42.45zM613.053,467.961c-1.909,6.883 7.228,-2.998 0,0zM398.231,531.339c45.665,24.103 -8.072,-36.51 17.848,-55.036c-25.531,6.545 -42.059,35.923 -17.848,55.036zM537.407,485.133c-6.522,30.243 15.561,3.611 -1.131,-5.725zM472.026,492.671l-0.551,0.743zM650.769,518.837l-0.466,-0.719zM680.682,572.323c8.268,21.303 45.819,81.555 -3.73,67.826c-33.84,-14.831 -69.926,-9.931 -104.852,-14.033c-29.535,-3.193 -57.794,-13.506 -86.184,-21.522c47.101,23.306 96.57,41.613 145.299,61.243c37.968,19.852 93.24,25.131 122.593,47.261c-1.869,-2.689 34.754,0.794 49.811,9.935c9.305,-7.92 -22.63,-45.504 -30.195,-65.021c-21.564,-6.162 8.135,-33.356 -10.516,-17.71c-26.778,-42.441 -55.345,-84.241 -90.855,-119.947c-22.415,6.258 7.066,37.354 8.629,51.968zM567.713,579.886c-19.971,13.738 -8.734,12.508 8.699,14.879c27.918,8.962 58.299,1.426 86.425,13.198c1.148,-16.018 -20.274,-54.487 -30.679,-77.845c-21.551,16.494 -44.022,31.844 -64.445,49.768zM482.869,573.928c23.349,19.311 36.873,-20.069 4.21,-12.665c-16.711,3.439 -30.911,8.226 -4.21,12.665zM469.763,563.737c1.059,2.018 5.502,-1.946 0,0zM425.934,565.553c-4.762,10.468 0.363,0.051 0,0zM388.724,568.132c-6.569,9.992 -6.01,9.162 0,0zM397.925,627.213c26.404,-17.484 10.525,-40.486 -14.846,-46.766c4.535,6.025 -4.911,72.769 14.846,46.766zM615.434,600.342c3.113,2.355 2.541,1.922 0,0zM619.908,610.5c-2.803,1.95 2.324,2.189 0,0zM691.079,624.763c-2.355,-1.48 -1.425,3.423 0,0zM351.829,819.579c-10.715,4.503 -8.019,3.385 0,0zM369.098,871.73l6.468,-4.388z" /></svg>