<svg xmlns="http://www.w3.org/2000/svg" viewBox="0 0 1024 1024" width="1024" height="1024"><path d="M631.208,364.738c3.139,0 4.708,2.093 4.708,6.277c-0.262,4.185 -2.223,8.239 -5.885,12.162c-6.538,6.016 -16.346,15.3 -29.423,27.854l-1.177,1.177c-9.154,8.892 -18.177,18.57 -27.07,29.031c-1.046,1.57 -1.831,3.531 -2.354,5.885c0,2.615 1.962,4.315 5.885,5.1c24.847,6.8 43.547,21.054 56.101,42.762c6.016,10.462 10.462,21.709 13.339,33.739c2.877,12.03 4.315,26.023 4.315,41.977c-0.261,15.17 -4.97,30.077 -14.123,44.724c-9.153,14.647 -20.269,27.593 -33.346,38.839c-13.339,11.511 -27.985,20.534 -43.939,27.07c-16.477,6.802 -31.908,10.2 -46.293,10.2c-30.077,0 -55.185,-9.024 -75.324,-27.07c-19.877,-18.046 -29.816,-37.53 -29.816,-58.454c0,-29.031 13.862,-49.432 41.585,-61.201c4.97,-2.615 10.854,-4.054 17.654,-4.315c4.707,0 8.238,0.262 10.592,0.785c2.354,0.262 4.316,0.916 5.885,1.962c1.308,0.784 1.962,2.222 1.962,4.315v3.531c0,4.184 -3.53,8.107 -10.592,11.769c-6.8,3.399 -11.639,7.323 -14.516,11.769c-3.923,5.493 -5.885,12.947 -5.885,22.362c0,0.523 0.131,1.83 0.392,3.923v4.708c0,14.646 5.885,28.115 17.654,40.408c12.031,12.293 26.285,18.439 42.762,18.439c23.277,0 42.108,-9.024 56.493,-27.07c14.647,-18.046 22.101,-38.315 22.362,-60.808c0.785,-4.708 1.177,-9.155 1.177,-13.339c0,-17.785 -5.622,-33.869 -16.869,-48.254c-14.123,-17.262 -31.907,-25.893 -53.354,-25.893c-4.708,0 -9.415,1.045 -14.123,3.138c-3.4,1.83 -7.847,2.746 -13.339,2.746c-3.139,0 -4.708,-1.962 -4.708,-5.885c0,-4.969 1.962,-9.154 5.885,-12.554c10.2,-8.631 21.315,-18.831 33.346,-30.6c10.2,-9.939 20.532,-20.923 30.993,-32.954c2.354,-3.139 3.531,-5.231 3.531,-6.277l-0.392,-0.785c-1.046,-0.523 -3.008,-0.916 -5.885,-1.177c-7.847,-0.785 -16.085,-1.177 -24.716,-1.177c-15.169,0 -26.938,0.523 -35.308,1.569c-23.015,2.354 -37.662,7.846 -43.939,16.477c-5.753,9.415 -13.076,14.123 -21.969,14.123c-3.4,0 -5.1,-2.485 -5.1,-7.454c0.785,-4.969 2.485,-8.762 5.1,-11.377c10.723,-12.293 20.531,-26.809 29.423,-43.547c0.785,-1.569 1.962,-3.662 3.531,-6.277c1.569,-2.354 3.792,-3.531 6.669,-3.531c12.816,1.046 25.5,1.831 38.054,2.354c12.816,0.261 26.94,0.392 42.37,0.392c26.939,0 53.485,-0.785 79.639,-2.354z" /> <path d="M324.218,515.091c-0.088,0.011 -0.167,0.021 -0.256,0.028c-1.156,0.09 -2.292,-0.362 -3.071,-1.228c-1.037,-1.153 -1.255,-2.827 -0.547,-4.207l11.092,-21.624c0.515,-1.003 1.402,-1.766 2.472,-2.124c0.396,-0.132 0.81,-0.207 1.227,-0.22c0.177,-0.006 0.336,0.003 0.512,0.011c2.933,0.14 31.338,1.47 49.901,1.422c18.581,-0.048 47.006,-1.527 49.941,-1.682c0.176,-0.009 0.335,-0.019 0.513,-0.011c0.887,0.039 1.728,0.422 2.341,1.074c0.294,0.313 0.521,0.686 0.46,1.111c-0.432,3.02 -5.7,13.845 -7.79,18.055c-0.546,1.1 -1.452,1.975 -2.564,2.495c-0.685,0.32 -1.429,0.495 -2.184,0.514c-0.071,0.001 -0.135,0.001 -0.206,0.001c-1.841,-0.003 -28.847,-0.023 -47.046,1.008c-20.341,1.152 -52.56,5.101 -54.795,5.377z" /></svg>