<svg xmlns="http://www.w3.org/2000/svg" viewBox="0 0 1024 1024" width="1024" height="1024"><path d="M721.355,606.808c1.117,6.419 1.337,12.616 0.672,18.814c-0.446,6.198 -2.221,11.953 -5.333,17.707c-1.782,2.656 -3.557,5.091 -5.559,7.083c-2.002,1.992 -4.442,3.984 -7.115,5.534c-10.885,8.854 -21.777,14.389 -32.668,16.823c-5.778,1.104 -12.667,1.104 -20.446,0.439c-1.778,-0.439 -3.555,-0.439 -5.556,-0.439c-2.001,0 -4,-0.219 -5.556,-0.446c-3.333,-0.665 -6.445,-1.549 -9.334,-2.214c-2.889,-0.884 -6.222,-1.549 -10.001,-2.214c-7.779,-1.988 -15.335,-4.202 -22.225,-6.637c-6.89,-2.435 -13.113,-4.869 -18.225,-7.526c-0.667,-0.443 -1.111,-0.443 -1.556,-0.443c-0.445,0 -0.666,-0.221 -1.111,-0.442c-1.333,-0.443 -2.667,-0.221 -4,0.442c-0.667,0.664 -1.111,1.107 -1.556,1.329c-0.445,0.222 -0.666,0.664 -1.111,1.328c-10.223,9.741 -19.78,19.476 -28.67,28.772c-8.89,9.296 -18.446,18.153 -28.669,26.784l-3.556,3.544h-0.889c0,-0.446 -0.222,-0.446 -0.445,-0.446c-0.666,-0.665 -1.333,-1.33 -1.778,-1.769c-0.444,-0.446 -1.111,-1.11 -1.777,-1.775c-9.779,-7.746 -18.891,-16.377 -27.337,-25.673c-8.446,-9.296 -17.335,-18.811 -27.336,-28.109c-0.667,-0.664 -1.111,-1.106 -1.556,-1.328c-0.445,-0.222 -0.889,-0.664 -1.555,-1.328h-2.889c-9.557,5.312 -21.336,9.96 -35.782,13.722c-2.667,0.665 -5.334,1.104 -8,1.549c-2.445,0.446 -5.112,0.446 -8.001,0.446c-2.445,0.439 -4.667,0.665 -6.667,0.665c-2,0.219 -4.445,0.439 -7.112,0.658c-0.444,0.446 -1.111,0.446 -2.445,0.446h-11.334c-3.778,0 -7.556,0.219 -11.334,0.446c-4,0 -7.556,-0.665 -10.668,-1.775c-3.112,-1.104 -6.001,-2.653 -8.668,-4.428c-1.777,-1.767 -3.555,-3.317 -5.556,-4.645c-2.001,-1.328 -4.001,-2.877 -6.223,-4.648c-10.446,-7.746 -18.447,-19.477 -24.003,-34.971c-1.111,-3.32 -1.556,-6.641 -1.778,-9.739c-0.222,-3.098 0,-5.976 0.667,-8.632c0.666,-1.992 1.333,-4.205 2.222,-6.64c0.889,-2.435 2,-4.869 3.334,-7.525c1.778,-4.427 3.778,-8.632 6.222,-13.059c2.445,-4.205 4.89,-8.411 7.557,-12.395c2.666,-3.762 5.111,-6.861 7.334,-9.739c2.223,-2.656 4.445,-6.197 6.89,-10.181c0.667,-1.328 1.111,-2.435 1.555,-3.541v-0.443c1.778,-2.656 2.667,-5.312 3.112,-8.189l1.111,-1.992c7.112,-11.509 13.335,-24.126 18.447,-38.07c0,-0.664 0.222,-1.106 0.444,-1.106c2,-3.32 3.556,-6.64 4.667,-9.96c1.111,-3.32 1.778,-6.64 2.445,-10.403v-0.443c0.667,-1.106 1.111,-1.992 1.333,-3.099c0.222,-1.107 0.667,-1.771 1.334,-2.435c1.778,-3.762 3.111,-6.861 4.445,-9.074c1.111,-2.435 2.222,-5.312 3.333,-9.075c1.778,-3.984 3.556,-8.189 5.334,-12.174c1.778,-3.985 3.556,-8.189 4.889,-12.616c1.111,-4.426 2,-8.411 3.112,-11.731c1.112,-3.32 2,-7.083 3.111,-11.288v-4.648c0.666,-2.435 1.556,-4.649 2.444,-6.861c1.112,-2.214 2.001,-4.427 3.112,-6.861c3.111,-7.083 6,-13.723 8.667,-19.478c2.667,-5.976 5.556,-12.174 8.667,-19.035c0.667,-1.328 1.111,-2.435 1.556,-3.541c0.445,-1.106 0.889,-2.214 1.556,-3.541c0.666,-1.106 1.333,-1.992 1.778,-3.099c0.445,-1.107 1.111,-1.771 1.777,-2.435c0,-0.442 0.223,-0.442 0.445,-0.442c1.778,-1.771 3.111,-3.541 4,-5.312c1.111,-1.771 1.778,-3.541 2.445,-5.312h1.111c0.667,-0.664 1.111,-1.107 1.111,-1.549c2.667,-3.32 5.334,-6.861 7.556,-10.181c2.445,-3.32 5.334,-7.083 9.112,-11.289c5.778,-5.754 11.557,-11.288 17.558,-16.822c6,-5.312 12.224,-10.181 19.114,-14.166c2,-2.434 5.333,-4.869 10.223,-7.525c1.112,-0.664 2.223,-1.329 3.556,-1.992l1.112,-1.107c0.444,0 0.666,0 0.666,-0.221c0.222,-0.221 0.445,-0.221 0.667,-0.221c3.111,-1.107 6.222,-1.771 9.112,-2.435c3.111,-0.664 6.222,-1.771 9.112,-3.099c1.334,0.664 2.667,1.106 4.001,1.106c1.778,0.443 4.222,1.107 7.556,2.435c2.445,1.106 4.222,1.992 5.334,3.099c1.112,1.107 2.222,1.992 2.889,3.099c2.666,1.329 5.333,2.878 7.556,4.427c2.444,1.549 4.667,3.099 7.111,4.869c8.89,6.861 16.669,14.166 23.559,22.134c6.89,7.968 12.668,15.936 17.335,23.683h0.445c0.666,1.771 1.778,3.32 3.111,5.091c1.333,1.771 2.667,3.32 4,5.091c0.667,0.443 1.112,0.664 1.334,1.107c0.222,0.443 0.667,0.664 1.333,1.106c1.778,4.648 4.001,9.296 6.89,13.723c2.889,4.427 5.778,8.411 8.445,12.174c0,0.443 0,0.664 0.222,0.664c0.222,0.221 0.222,0.443 0.222,0.664c2.667,5.534 5.556,11.288 8.445,17.707c2.889,6.419 5.334,13.059 7.334,19.92c0.667,2.656 1.334,5.534 1.778,8.411c0.444,2.877 1.334,5.755 2.222,8.411c0.667,4.649 1.334,10.181 2.001,16.601c0.666,6.197 1.778,12.837 3.555,19.477c1.778,6.861 3.556,12.838 5.334,18.15c1.778,5.312 4,11.288 6.445,18.149c1.778,5.755 3.556,11.289 5.778,16.158c2.223,5.091 4.667,9.296 7.335,12.616c0,1.329 0.446,3.099 1.11,5.091c1.11,3.984 3.112,7.526 6.224,10.624l0.446,0.443c1.33,3.099 2.44,6.419 3.557,9.96c1.11,3.541 2.44,7.083 3.996,10.403c-0.665,0 -0.665,0.443 0,1.106c0.665,1.992 1.11,3.321 1.556,3.984c2.666,3.763 5.559,7.526 8.671,11.509c3.112,3.983 6.224,8.19 9.11,13.059c3.331,4.426 6.443,9.296 9.11,14.829c5.339,6.198 8.225,12.616 10.001,18.371zM503.778,606.144c2.001,0.443 4.001,0.443 5.778,0.443h5.334c5.778,0 10.89,-1.329 15.335,-3.984c1.111,-0.664 1.778,-1.328 2.444,-1.771c0.666,-0.443 1.334,-1.106 2,-1.771c0,-3.763 0.889,-7.083 2.445,-10.181c0,-0.443 0,-0.443 0.222,-0.443c0.222,0 0.223,-0.221 0.223,-0.443c0.666,-1.771 0.444,-3.32 -0.445,-4.648c-0.444,-0.443 -0.667,-0.664 -0.667,-1.106c-0.222,-0.443 -0.444,-0.664 -0.666,-1.107c-0.667,-1.328 -0.667,-1.991 0,-1.991c1.333,-1.107 2.667,-1.771 4,-1.992c2,-0.664 4,-1.549 5.556,-2.878c1.778,-1.106 3.334,-2.434 5.111,-3.762c2.445,-2.435 4.445,-5.312 6.223,-8.632c0.445,-0.664 0.445,-1.329 0.445,-1.992c0,-0.663 0.222,-1.328 0.444,-1.992c0.667,-1.328 1.111,-2.656 1.556,-3.763c0.445,-1.107 0.889,-2.656 1.555,-4.426c0.667,-3.763 1.778,-7.304 3.112,-10.624c1.334,-3.32 3.111,-6.64 5.111,-9.739c0.667,-1.107 1.334,-1.992 2,-2.878c0.666,-0.886 1.334,-1.771 2,-2.877c1.112,-1.328 2.001,-2.656 3.112,-3.763c1.111,-1.107 1.778,-2.434 2.444,-3.763c1.112,-1.106 1.778,-2.213 2.445,-3.541c0.445,-0.442 0.445,-1.106 0.445,-2.434c0,-1.992 -0.667,-4.206 -1.778,-6.64c-1.111,-2.434 -3.112,-4.649 -5.779,-6.64c-1.333,-1.329 -3.778,-2.656 -7.111,-3.984c-3.111,-1.106 -6.001,-1.992 -8.89,-3.099c-2.889,-1.107 -6,-1.771 -9.334,-2.435c-1.778,-0.443 -3.333,-0.664 -4.667,-0.664c-1.333,-0.221 -2.889,-0.664 -4.667,-1.328c-2,-0.442 -3.556,-0.664 -4.445,-1.328c-0.889,-0.443 -2.222,-1.106 -3.777,-1.771c-6.223,-1.992 -10.446,-6.197 -13.335,-12.616c-0.444,-1.106 -0.667,-1.991 -1.111,-2.877c-0.444,-0.886 -0.667,-1.771 -1.111,-2.877c-0.445,-1.107 -0.445,-1.992 -0.445,-3.099c0,-1.107 -0.222,-1.992 -0.444,-3.099c0,-1.328 -1.778,-1.991 -5.112,-1.991c-0.666,-0.443 -1.778,-0.443 -3.111,-0.443c-2.445,-0.443 -4.223,-0.221 -5.556,0.443c-1.333,1.991 -2.445,4.648 -3.556,8.189c-0.666,1.771 -1.333,3.32 -2,4.648c-0.667,1.328 -1.333,2.877 -2,4.648c-1.111,1.992 -2.223,3.763 -3.556,5.091c-1.333,2.435 -3.334,3.541 -5.556,3.541h-1.556c-3.111,-0.442 -6,-0.221 -8.89,0.443c-2.89,0.664 -5.778,1.328 -8.445,1.992c-3.334,1.328 -6.667,2.214 -10.001,2.877c-3.333,0.443 -6.445,1.107 -10.001,1.771c-4,0 -7.111,0.443 -9.112,1.549c-1.112,0.664 -2.667,2.214 -5.112,4.649c-2.444,1.771 -3.778,3.762 -4,6.197c-0.667,1.992 -0.889,3.541 -0.667,4.648c0.222,1.107 0.667,2.435 1.334,3.984c1.333,3.763 3.333,7.526 6.222,11.288c1.778,4.427 3.556,9.075 5.556,13.723c2,4.648 4,9.739 6.223,15.272c1.111,1.992 2,3.763 3.111,5.312c1.111,1.549 2,3.541 3.112,6.419c1.111,3.099 3.111,5.976 6.222,8.632c0.667,0.664 2,1.771 4.001,3.099c1.333,1.328 2.666,2.656 3.777,3.763c1.111,1.107 2.223,2.656 3.334,4.426c0.667,0.664 1.111,1.328 1.334,1.992c0.223,0.664 0.666,1.328 1.333,1.992c1.333,1.771 2.667,3.32 4,4.869c1.333,1.549 2.889,3.099 4.667,4.869c2,1.771 3.556,3.099 4.667,4.426c1.111,1.107 2.889,2.214 5.556,3.321c3.778,1.106 8.223,2.213 13.113,2.877zM484.443,509.198v1.107c0.444,0.442 1.111,0.442 2.444,0.442c0.445,0 0.667,0 0.667,0.221c0.222,0.221 0.444,0.221 0.667,0.221c2.667,0 4.889,1.107 6.667,3.541c2.667,3.099 6.889,4.206 12.224,3.541c2,-0.664 3.334,-1.549 4,-2.435c0.667,-0.442 1.111,-0.664 1.334,-1.106c0.223,-0.442 0.666,-0.664 1.333,-1.106c1.111,-1.771 2.445,-2.214 4,-1.549c1.778,0.442 3.112,0.442 4.445,0.442h3.778c1.778,-0.664 2.223,-0.221 1.556,1.55c0,3.099 -0.889,5.976 -2.445,8.632c-0.444,1.329 -1.333,2.878 -3.111,4.649c-3.111,2.434 -5.334,5.091 -6.89,7.968c-1.556,2.877 -2.889,6.198 -3.778,9.96v3.099c0,1.106 0.445,1.77 1.556,1.991c1.111,0 2.223,0.443 3.556,1.107c2.445,0.664 4.667,1.328 6.889,1.771c2.222,0.443 4.445,1.106 6.89,1.771c2,0.664 3.333,1.106 3.556,1.106c0,0.443 0.222,0.443 0.444,0.443c-0.444,0.442 -0.667,0.442 -1.111,0.442c-1.778,0 -3.334,0.001 -4.889,-0.221c-1.555,-0.222 -3.112,-0.221 -4.89,-0.221h-10.445c-1.556,0 -3.111,0.221 -4.889,0.442c-1.778,0.664 -3.334,0.664 -4.667,0c-1.778,-0.442 -3.334,-0.442 -4.889,-0.442c-1.555,0 -3.112,-0.221 -4.89,-0.443h-10.223c0.445,-0.443 0.667,-0.443 1.112,-0.443c0,-0.664 0.889,-1.328 2.889,-2.213c1.778,-0.886 4.222,-1.55 6.889,-2.214c1.111,0 2.445,-0.443 4.667,-1.107c1.334,0 2,-0.664 2,-1.991c0.445,-3.32 -0.444,-6.861 -2.444,-10.181c-0.667,-1.107 -1.556,-1.992 -2.445,-3.099c-1.111,-1.106 -1.778,-1.991 -2.445,-3.099c-2.667,-3.32 -5.556,-7.083 -8.223,-11.288c-0.445,-1.771 -0.445,-4.649 -0.445,-9.075v-2.214zM514.668,567.631c1.333,1.329 2.667,2.435 3.778,3.541c1.111,1.106 2.445,2.214 3.778,3.541c0.445,0.443 0.445,0.664 0.445,0.664c0,0.221 0.222,0.443 0.444,0.664c0,0.664 -0.444,1.329 -1.111,1.992c-1.111,0.443 -2.445,0.443 -4.667,0.443c-0.667,0 -1.556,0 -2.223,-0.221c-0.889,-0.221 -1.555,-0.221 -2.222,-0.221c-2.445,-0.443 -4.667,-0.443 -7.112,0c-2.444,0 -4.222,0.221 -5.556,0.443c-2,0 -3.555,-0.221 -4.667,-0.443c-1.334,-0.443 -3.334,-1.106 -6.223,-2.434c-1.111,-1.107 -1.111,-1.549 0,-1.549c1.333,-0.664 2.222,-1.107 2.444,-1.55c3.112,-1.106 6.223,-2.434 9.112,-4.648c0.667,-0.443 1.556,-0.443 2.445,-0.443h11.334z" /></svg>