<svg xmlns="http://www.w3.org/2000/svg" viewBox="0 0 1024 1024" width="1024" height="1024"><path d="M405.444,580.673c32.063,-40.277 61.078,-77.375 87.047,-111.293c28.883,-37.627 55.381,-76.049 79.495,-115.267c4.77,-9.01 11.659,-13.647 20.669,-13.912c4.77,0.265 7.552,2.782 8.347,7.552c0.795,3.975 1.457,5.962 1.987,5.962l-2.385,155.015c-0.265,6.625 -0.397,15.767 -0.397,27.426c0,10.6 0.132,18.152 0.397,22.656c0,3.71 0.397,7.154 1.192,10.334c0.795,3.18 4.504,4.77 11.129,4.77h14.309c7.419,0 11.129,3.445 11.129,10.334v12.322c0,7.155 -3.71,10.732 -11.129,10.732h-11.924c-4.24,0 -7.154,1.458 -8.744,4.372c-1.325,2.65 -1.987,4.902 -1.987,6.757c1.59,12.455 3.577,21.332 5.962,26.631c2.385,5.035 4.77,8.613 7.155,10.732c2.385,1.856 4.372,3.446 5.962,4.77c1.59,1.06 2.517,4.24 2.782,9.539c0,3.445 -2.121,5.167 -6.36,5.167c-5.83,-0.795 -12.587,-1.59 -20.271,-2.385c-7.42,-0.795 -14.309,-1.192 -20.669,-1.192c-6.095,0 -13.515,0.397 -22.259,1.192c-8.744,0.795 -16.296,1.59 -22.656,2.385c-1.325,0 -2.915,-0.66 -4.77,-1.987c-1.325,-1.06 -1.987,-2.12 -1.987,-3.18c4.24,-7.949 8.082,-12.719 11.527,-14.309l4.77,-2.385c1.59,-0.795 2.782,-1.325 3.577,-1.59c2.385,-1.324 4.372,-3.843 5.962,-7.552c1.59,-3.709 2.517,-12.189 2.782,-25.438c0,-6.359 -1.192,-9.539 -3.577,-9.539c-1.59,-0.264 -3.975,-0.397 -7.155,-0.397h-136.333c-6.889,-1.059 -10.334,-4.769 -10.334,-11.129c0.795,-6.094 3.577,-11.261 8.347,-15.501zM544.56,439.969c-14.839,22.524 -30.474,44.119 -46.902,64.788c-16.693,20.934 -32.195,42 -46.504,63.198c-1.59,1.856 -2.385,3.975 -2.385,6.36c0,1.59 1.325,2.385 3.975,2.385h1.192c0.795,-0.264 1.457,-0.397 1.987,-0.397l85.854,-1.987h7.552c3.975,0 5.962,-3.577 5.962,-10.732c0,-10.334 -0.132,-18.416 -0.397,-24.246c-0.265,-7.684 -0.662,-17.092 -1.192,-28.221v-35.375c0,-15.899 0.132,-27.69 0.397,-35.375c0,-6.624 -0.795,-9.937 -2.385,-9.937c-0.795,0 -1.457,0.53 -1.987,1.59c-3.18,3.446 -5.167,5.831 -5.962,7.155z" /> <path d="M288.063,542.079c-0.09,0.011 -0.169,0.022 -0.259,0.028c-1.172,0.092 -2.322,-0.366 -3.111,-1.244c-1.051,-1.168 -1.271,-2.865 -0.554,-4.262l11.238,-21.908c0.521,-1.017 1.42,-1.789 2.504,-2.152c0.402,-0.134 0.821,-0.21 1.243,-0.223c0.179,-0.006 0.34,0.003 0.519,0.011c2.972,0.141 31.751,1.49 50.558,1.441c18.825,-0.049 47.625,-1.547 50.598,-1.704c0.179,-0.009 0.34,-0.02 0.519,-0.011c0.899,0.039 1.751,0.427 2.372,1.088c0.298,0.317 0.527,0.695 0.466,1.126c-0.437,3.06 -5.775,14.027 -7.893,18.293c-0.553,1.114 -1.471,2.001 -2.598,2.528c-0.694,0.324 -1.448,0.501 -2.213,0.521c-0.072,0.001 -0.137,0.001 -0.209,0.001c-1.865,-0.003 -29.226,-0.024 -47.665,1.021c-20.609,1.167 -53.251,5.169 -55.516,5.447z" /> <path d="M401.462,508.687h0.013c1.769,0.08 3.45,0.859 4.671,2.158c0.618,0.659 1.607,2.032 1.342,3.895v0.013c-0.205,1.436 -0.686,2.674 -1.316,4.289c-0.63,1.615 -1.421,3.454 -2.263,5.316c-1.684,3.723 -3.563,7.544 -4.632,9.697c-0.896,1.806 -2.379,3.248 -4.184,4.092c-1.115,0.521 -2.325,0.798 -3.553,0.829h-0.026c-0.11,0.002 -0.191,0 -0.263,0h-0.013c-1.843,-0.003 -29.226,-0.008 -47.474,1.026c-20.375,1.154 -53.044,5.144 -55.289,5.421c-0.089,0.011 -0.229,0.025 -0.408,0.039c-2.213,0.173 -4.394,-0.686 -5.882,-2.342c-1.978,-2.2 -2.39,-5.421 -1.039,-8.053l11.237,-21.908c0.922,-1.799 2.516,-3.175 4.434,-3.816c0.709,-0.237 1.445,-0.371 2.197,-0.395c0.356,-0.012 0.621,0.005 0.789,0.013c2.955,0.14 31.758,1.495 50.395,1.447c18.656,-0.049 47.469,-1.554 50.421,-1.711c0.156,-0.008 0.455,-0.029 0.842,-0.013zM400.266,515.46c-3.658,0.193 -31.324,1.636 -50.053,1.684c-18.977,0.049 -47.736,-1.305 -50.724,-1.447h-0.013c-0.189,-0.009 -0.236,-0.013 -0.237,-0.013c-0.092,0.003 -0.195,0.022 -0.289,0.053c-0.25,0.084 -0.459,0.252 -0.579,0.487l-11.237,21.921c-0.084,0.164 -0.057,0.324 0.066,0.461c0.09,0.1 0.211,0.155 0.342,0.145h0.013c-0.013,0.001 -0.009,-0.002 0.079,-0.013h0.013c2.284,-0.282 34.895,-4.293 55.737,-5.474c18.629,-1.055 45.981,-1.029 47.868,-1.026c0.059,0 0.088,0 0.118,0c0.302,-0.007 0.595,-0.07 0.868,-0.197c0.449,-0.21 0.803,-0.551 1.013,-0.974c1.049,-2.113 2.902,-5.896 4.526,-9.487c0.812,-1.796 1.558,-3.552 2.118,-4.987c0.225,-0.579 0.219,-0.673 0.368,-1.132z" /></svg>