<svg xmlns="http://www.w3.org/2000/svg" viewBox="0 0 1024 1024" width="1024" height="1024"><path d="M402.502,531.949c0.395,0 0.593,0 0.988,0.197c0.395,0.197 0.592,0.197 0.987,0.197c-2.963,10.231 -6.124,23.806 -9.284,40.923c-3.16,17.117 -4.544,35.611 -3.951,55.875c-0.593,0.59 -1.383,0.984 -2.173,0.984c0,0.394 -0.198,0.394 -0.396,0.394c-0.592,0.59 -1.185,0.983 -1.58,1.18c-0.395,0.197 -0.988,0.394 -1.581,0.59c-0.593,0.59 -1.186,0.983 -1.581,1.377c-0.395,0.394 -0.988,0.59 -1.581,0.983c-0.592,0.59 -1.581,1.181 -2.765,1.771c-0.988,0.59 -1.976,1.377 -2.964,1.968c-0.987,0.787 -1.976,1.574 -2.963,2.558l-1.778,0.983c-0.988,0.983 -1.976,1.771 -2.964,2.754c-0.988,0.983 -1.976,1.968 -2.963,3.148c-1.186,0.59 -2.766,1.77 -4.544,3.541c-0.396,0.59 -0.593,0.984 -0.593,1.181c-0.197,0.197 -0.395,0.59 -0.592,1.18l-1.383,1.377h-0.395v-0.393c-0.395,0 -0.395,-0.197 -0.395,-0.394c0,-1.574 -0.197,-2.755 -0.395,-3.541v-0.984c-0.593,-1.771 -0.988,-3.345 -0.988,-4.525c-0.395,-0.394 -0.395,-0.983 -0.395,-1.771c-0.592,-1.18 -0.988,-2.361 -1.383,-3.541c-0.395,-1.18 -0.79,-2.361 -1.382,-3.541c-0.396,-1.18 -0.593,-2.164 -0.988,-3.148c-0.395,-0.984 -0.592,-1.968 -0.987,-3.148c-0.396,0 -0.396,-0.197 -0.396,-0.394c-0.592,-0.983 -1.185,-1.968 -1.58,-2.951c-0.395,-0.983 -0.988,-1.968 -1.581,-2.951c-0.593,-0.984 -1.186,-1.771 -1.581,-2.755c-0.395,-0.984 -0.988,-1.771 -1.581,-2.754c-0.593,-0.983 -2.765,-3.935 -4.544,-6.296v-0.393c-0.988,-0.984 -1.778,-1.771 -2.568,-2.755c-0.79,-0.984 -1.581,-1.574 -2.569,-2.164c-2.37,-2.164 -4.741,-3.934 -6.717,-5.508l-1.383,-1.378c-0.395,0 -0.592,-0.196 -0.987,-0.393c-0.988,-0.59 -1.976,-1.181 -2.964,-1.771c-0.988,-0.59 -1.976,-1.181 -2.963,-1.771c-0.396,0 -0.593,-0.197 -0.988,-0.394c-0.592,0 -0.988,-0.394 -0.988,-1.377v-1.377c0,-1.181 0,-2.164 0.198,-3.148c0.198,-0.984 0.197,-1.77 0.197,-2.754c0.395,-0.983 0.395,-2.164 0.395,-3.541v-2.164c-0.395,-0.983 -0.395,-1.771 -0.197,-2.557c0.198,-0.786 0.197,-1.574 0.197,-2.558c0.395,-0.983 0.395,-2.164 0.395,-3.541c0,-2.951 -0.197,-5.115 -0.395,-6.296v-6.296c0.395,-0.59 0.395,-1.574 0.395,-3.148c-0.395,-2.361 -0.395,-4.919 0,-7.673c0,-1.574 -0.197,-2.557 -0.395,-3.148c0,-1.574 -0.197,-2.754 -0.395,-3.541v-7.673c-0.396,-0.59 -0.396,-1.377 -0.396,-2.164c-0.395,-0.984 -0.395,-1.771 -0.395,-2.755c0,-0.984 -0.197,-1.968 -0.395,-3.148v-3.148c0,-0.983 0,-1.968 -0.197,-2.951c-0.197,-0.983 -0.197,-2.164 -0.197,-3.345c-0.395,-1.181 -0.592,-2.361 -0.592,-3.541c-0.198,-1.181 -0.395,-2.558 -0.593,-4.132c-0.395,-0.983 -0.592,-1.771 -0.592,-2.557c-0.197,-0.787 -0.197,-1.574 -0.197,-2.558v-2.361c-0.395,-0.59 -0.395,-1.18 -0.395,-1.77c0,-0.59 -0.197,-1.181 -0.396,-1.771c0,-1.181 -0.197,-2.164 -0.395,-2.755c0,-0.983 -0.197,-1.574 -0.395,-1.771c0,-0.394 0.197,-0.394 0.395,-0.394l1.383,1.378c0.987,0.59 2.173,1.771 4.149,3.541l1.778,1.771l2.173,1.77c1.186,1.181 2.766,2.361 4.544,3.541c0.593,0.59 1.581,1.181 2.766,1.771c0.987,0.59 1.976,1.378 2.963,2.164c0.988,0.984 2.173,1.574 3.359,2.164c1.186,0.983 2.37,1.771 3.556,2.557c1.186,0.786 2.37,1.378 3.556,1.968c1.185,0.59 2.37,1.181 3.359,1.574c0.989,0.393 2.172,0.984 3.358,1.574c0.395,0.394 0.593,0.394 0.593,0.394c0.197,0 0.395,0.197 0.592,0.394c0.592,0 1.185,0 1.581,0.197c0.396,0.197 0.987,0.197 1.58,0.197c0.395,0 0.592,0 0.988,0.197c0.396,0.197 0.592,0.196 0.987,0.196l1.778,0.984c1.778,0.59 3.161,0.983 4.149,0.983c0.988,0.394 1.976,0.59 2.964,0.984c0.988,0.394 2.173,0.59 3.359,0.983c0.592,0.394 1.185,0.394 1.58,0.394c0.395,0 0.988,0.197 1.581,0.394h0.395c0.988,0 2.174,0.394 4.149,0.983c0.592,0 0.987,0.197 0.987,0.394c0.592,0.394 1.185,0.394 1.778,0.394c0.593,0 1.185,0.197 1.778,0.393h1.778c0.987,0 1.976,0.394 3.16,0.984h0.988c0.987,0.59 1.778,0.983 2.765,0.983c0.987,0 1.778,0.197 2.766,0.394h1.382c0.395,0.394 0.791,0.394 1.383,0.394h1.778c0.592,0 1.185,0 1.976,0.197c0.791,0.197 1.382,0.197 1.976,0.197c0.395,0 0.592,0 0.592,0.197c-0.197,0.59 0.197,0.787 0.395,0.787zM615.266,487.681l-0.988,0.394c-1.58,0.393 -3.754,0.983 -6.717,2.164c-0.592,0.59 -1.186,0.984 -1.778,0.984c-0.592,0.59 -1.581,1.18 -2.766,1.771c-0.592,0.59 -1.185,0.983 -1.777,0.983h-0.396c-0.592,0.394 -1.185,0.59 -1.58,0.59c-0.395,0.197 -0.988,0.394 -1.581,0.59h-3.951c-0.592,0 -1.383,0.393 -2.173,0.983c-0.593,0.59 -1.383,1.18 -1.976,1.574c-0.791,0.394 -1.383,0.983 -1.976,1.574c-1.778,1.574 -3.556,3.148 -4.939,4.919c-0.592,0.59 -0.987,0.984 -0.987,1.377c-0.395,0.59 -0.396,1.181 -0.396,1.771c0,0.59 -0.197,1.181 -0.395,1.771v1.378c0.593,0.59 1.186,1.771 1.778,3.541c0.395,0.393 0.395,0.59 0.395,0.59c0,0.197 0.198,0.394 0.396,0.59c0.592,0.59 0.987,0.983 1.185,1.377c0.198,0.394 0.592,0.787 1.186,1.377c0,0.394 0,0.59 0.197,0.984c0.197,0.394 0.197,0.59 0.197,0.983c0.395,0.59 0.395,0.983 0.395,1.377c0,0.394 0.197,0.787 0.395,1.377c0,0.394 0.396,1.378 0.988,3.148c0.592,1.18 0.988,2.361 1.383,3.541c0.395,1.18 0.79,2.361 1.382,3.541c0,0.394 0,0.59 0.197,0.984c0.197,0.394 0.197,0.59 0.197,0.983v3.541c0,0.59 0.001,0.984 0.198,1.181c0.197,0.197 0.197,0.393 0.197,0.59c0,0.197 0.197,0.394 0.395,0.394c0.395,0.59 0.592,1.18 0.592,1.771c0.197,0.59 0.395,1.18 0.592,1.771c0.396,0.59 0.791,1.771 1.383,3.541c0,0.59 0,1.18 0.197,1.574c0.197,0.394 0.197,0.983 0.197,1.574c0,0.591 0.198,2.164 0.396,2.754v0.394c0,1.574 0.197,2.755 0.395,3.541c0,1.574 0.197,2.755 0.395,3.541h0.395c0.593,1.771 0.988,2.951 0.988,3.541c0.592,1.18 0.987,2.164 0.987,3.148c0.395,0.59 0.395,1.574 0.395,2.755v4.919c0.396,1.18 0.988,2.361 1.778,3.541v6.689c0.593,2.951 1.186,5.312 1.778,6.689v1.771c0.593,1.18 0.791,2.164 0.395,3.148v3.738c0,0.394 0.198,0.983 0.396,2.164c0.395,0.393 0.395,0.787 0.395,1.377c0.395,0.59 0.395,1.574 0.395,3.148c0,0.59 -0.197,0.983 -0.395,1.377v4.132c-0.395,2.754 -0.395,5.312 0,7.673v4.919c0.592,1.181 0.592,2.164 0,3.148v21.642c0,0.59 -0.395,1.18 -0.988,1.771c-0.593,0.591 -0.987,0.983 -1.382,1.18c-0.395,0.197 -0.791,0.59 -1.383,1.181c-0.592,0.393 -1.186,0.787 -1.778,1.377c-0.395,0.393 -0.592,0.59 -0.592,0.983c-0.197,0.394 -0.592,0.59 -1.186,0.984c-0.395,0.983 -0.987,1.574 -1.778,1.771c-0.395,0.393 -1.382,0.983 -3.16,2.164c-0.593,0.59 -0.988,0.984 -0.988,1.377c-0.592,0.394 -1.185,0.984 -1.778,2.166l-1.383,1.769l-1.777,1.769c-1.186,0.592 -2.766,1.775 -4.544,3.544c-0.592,0.592 -0.987,0.984 -1.382,1.177c-0.396,0.199 -0.593,0.592 -0.988,1.184c-0.395,0.392 -0.592,0.592 -0.592,0.984c-0.197,0.392 -0.396,0.592 -0.593,0.984c-1.185,1.177 -2.37,2.753 -3.555,4.522c-0.395,0.399 -0.593,0.592 -0.593,0.984c-0.197,0.399 -0.592,0.592 -1.185,0.984c-0.593,0.392 -1.383,0.984 -2.173,1.775l-5.532,5.506c-0.593,0.392 -1.186,0.592 -1.581,0.984c-0.395,0.392 -0.987,0.592 -1.581,0.984c0,0.392 -0.395,0.785 -0.987,1.376c-0.593,1.184 -1.186,2.168 -1.778,2.753c-0.593,1.184 -1.186,1.968 -1.778,2.168c-0.395,0 -0.395,0.193 -0.395,0.392c-1.186,0.592 -1.778,0.984 -1.778,1.177c0,0.199 -0.593,0.791 -1.778,1.968c-1.186,1.576 -1.976,2.168 -1.976,2.168c-0.197,0 -0.988,0.785 -2.568,2.161l-0.396,0.392c-0.592,0.399 -0.987,0.592 -1.185,0.984c-0.197,0.399 -0.593,0.791 -1.186,1.383l-1.382,1.376c0,0.585 -0.396,0.984 -1.383,1.376c-0.593,0.392 -1.383,0.984 -2.173,1.769c-0.396,0.392 -0.593,0.392 -0.593,0.392c-0.197,0 -0.395,0.199 -0.592,0.392c-1.185,1.184 -1.976,2.168 -2.173,2.759c-1.186,1.177 -2.173,1.968 -2.765,2.161c-0.396,0.592 -0.593,0.984 -0.988,1.184c-0.395,0.193 -0.791,0.585 -1.383,1.177l-1.382,1.376c-0.988,0.984 -1.581,1.576 -1.778,2.168c-1.186,1.177 -2.174,2.161 -2.766,3.145c-1.778,1.775 -3.358,3.152 -4.544,4.136l-1.383,1.376c-0.592,0.392 -0.987,0.585 -1.185,0.984c-0.197,0.392 -0.593,0.785 -1.186,1.376c-1.186,0.592 -1.976,1.177 -2.173,1.769l-1.383,1.376l-4.149,5.512c-0.592,0.585 -0.987,0.984 -0.987,1.376c-0.593,0 -0.988,0.392 -0.988,0.984h-0.987c-0.396,-0.392 -0.593,-0.592 -0.988,-0.592c-0.395,-0.199 -0.592,-0.592 -0.987,-1.184l-0.395,-0.392c-1.186,-1.569 -2.371,-2.753 -3.359,-3.936c-0.988,-0.977 -2.173,-2.361 -3.359,-3.93l-1.383,-1.376c-1.58,-0.399 -2.568,-0.984 -3.16,-1.775c-1.778,-1.177 -2.964,-2.161 -3.556,-3.145c0,-0.392 -0.197,-0.392 -0.395,-0.392l-4.149,-5.512l-5.532,-5.506c-0.395,-0.592 -0.592,-0.984 -0.988,-1.184c-0.395,-0.193 -0.592,-0.392 -0.987,-0.592c-1.581,-0.585 -2.37,-1.376 -2.766,-2.161c-0.592,-0.392 -0.987,-0.592 -1.185,-0.984c-0.198,-0.392 -0.593,-0.785 -1.186,-1.376c-0.395,-0.592 -0.79,-1.184 -1.383,-1.769c-1.185,-0.984 -2.173,-1.775 -3.16,-2.759c-0.987,-0.984 -1.778,-1.769 -2.766,-2.753c-1.185,-1.177 -1.976,-2.161 -2.173,-2.753l-2.173,-2.168c-0.395,-0.392 -0.592,-0.585 -0.592,-0.984c-0.197,-0.392 -0.592,-0.585 -1.186,-0.977c-0.395,-0.399 -0.592,-0.592 -0.987,-0.592c-0.395,-0.199 -0.791,-0.592 -1.383,-1.184c-0.395,-0.392 -0.592,-0.392 -0.592,-0.392c-0.197,0 -0.395,-0.199 -0.593,-0.392c-0.395,-0.592 -0.592,-0.984 -0.987,-1.376c-0.395,-0.392 -0.592,-0.791 -0.988,-1.376l-1.382,-1.376c-0.592,-0.399 -0.988,-0.592 -1.383,-0.984c-0.395,-0.399 -0.79,-0.592 -1.383,-0.984c-0.592,-0.592 -1.185,-1.184 -1.778,-1.576c-0.593,-0.392 -1.185,-0.984 -1.778,-1.576c-0.395,-0.392 -0.592,-0.592 -0.592,-0.984c-0.197,-0.392 -0.395,-0.585 -0.592,-0.984c-1.186,-1.177 -1.976,-2.161 -2.173,-2.753c-0.592,-0.592 -1.186,-0.984 -1.778,-1.376c-0.395,-0.592 -0.988,-1.184 -2.173,-1.769c-0.395,-0.592 -0.592,-0.984 -0.988,-1.184c-0.395,-0.193 -0.592,-0.392 -0.987,-0.592c-0.395,-0.585 -0.592,-0.984 -0.988,-1.376c-0.396,-0.392 -0.592,-0.785 -0.987,-1.376l-1.383,-1.376c-0.395,0 -0.395,0 -0.395,-0.199c0,-0.193 -0.197,-0.193 -0.395,-0.193c-0.988,-0.984 -1.383,-1.376 -1.581,-1.376c-0.198,0 -0.592,-0.592 -1.186,-1.775l-1.382,-2.753l-1.383,-1.376c-0.592,-0.392 -1.186,-0.592 -1.778,-0.984c-0.592,-0.392 -1.185,-0.786 -1.778,-1.376c-0.987,-0.394 -1.581,-0.983 -1.778,-1.771l-2.765,-2.754c-0.395,-0.59 -0.593,-0.984 -0.988,-1.377c-0.395,-0.393 -0.592,-0.787 -0.987,-1.378c-0.395,-0.59 -0.79,-1.18 -1.383,-1.771c-0.395,-0.393 -0.395,-0.787 -0.395,-1.377v-0.394c0,-0.393 0,-0.59 -0.197,-0.983c-0.197,-0.393 -0.197,-0.59 -0.197,-0.983c0,-2.361 -0.198,-4.132 -0.396,-5.509c-0.395,-1.181 -0.395,-2.951 -0.395,-4.919c0,-0.59 0,-0.984 -0.197,-1.378c-0.197,-0.394 -0.197,-0.787 -0.197,-1.377c0,-0.59 0,-0.983 0.197,-1.18c0.197,-0.197 0.197,-0.59 0.197,-1.18v0.197v-2.755c-0.395,-0.59 -0.395,-1.574 -0.395,-2.754c-0.395,-0.984 -0.592,-1.968 -0.592,-2.952c-0.197,-0.983 -0.396,-1.967 -0.593,-2.951v-3.148c0,-0.983 0.001,-1.771 0.198,-2.754c0.197,-0.983 0.197,-1.771 0.197,-2.755c0.592,-1.771 0.987,-3.345 0.987,-4.525v-0.984c0.395,-0.983 0.395,-2.361 0.395,-4.525c-0.395,-0.59 -0.395,-1.574 -0.395,-3.148v-6.099c0.395,-0.983 0.791,-2.557 1.383,-4.919c0.395,-0.59 0.395,-1.18 0.395,-1.574c0,-0.394 0.197,-0.983 0.395,-1.574v-8.066c0.395,-0.59 0.395,-0.984 0.395,-1.377c0,-0.393 0.198,-0.787 0.396,-1.378c0,-0.983 0.197,-1.574 0.395,-1.77c0.592,-1.771 0.988,-3.345 1.383,-4.526c0.592,-1.771 0.987,-3.148 0.987,-4.131c0.395,-0.984 0.79,-2.558 1.383,-4.919c0.395,-0.393 0.395,-0.787 0.395,-1.377c0,-0.59 0,-0.983 -0.197,-1.377c-0.197,-0.394 -0.197,-0.787 -0.197,-1.377v-2.755c0.395,-0.393 0.395,-0.59 0.395,-0.59c0,-0.197 0.197,-0.394 0.395,-0.59c0.593,-1.18 0.988,-1.968 1.383,-2.164v-1.377c0,-0.394 0.197,-0.59 0.395,-0.983v-2.361c0,-0.983 0.395,-1.968 0.988,-3.148l0.395,-0.394l2.765,-6.689c0.395,-0.394 0.395,-0.787 0.395,-1.377c0,-1.771 0.198,-3.148 0.396,-4.132c0,-0.59 0.197,-1.18 0.395,-1.771c0.592,-1.18 1.185,-2.164 1.778,-2.754l0.395,-0.984v-1.377c0,-0.983 0.197,-1.574 0.395,-1.771v-2.164c0.395,-0.59 0.592,-0.984 0.592,-1.181c0.197,-0.197 0.396,-0.59 0.593,-1.18c1.185,-2.361 2.173,-4.328 2.765,-5.903c0.988,-0.983 1.383,-1.967 1.383,-3.148c0.592,-1.574 0.987,-2.754 1.382,-3.934c0.396,-0.984 0.593,-2.361 0.988,-3.935c0,-0.394 0.395,-0.787 0.987,-1.377c0.593,-1.181 1.186,-2.164 1.778,-2.755c0,-0.59 0.198,-0.983 0.396,-0.983v-0.197l-0.396,-0.394c-1.58,-1.574 -2.765,-2.951 -3.951,-4.131c-0.987,-1.181 -2.173,-2.558 -3.358,-4.132c-0.395,-0.394 -0.791,-0.394 -1.383,-0.394l-0.395,-0.394c-1.186,-0.393 -2.37,-0.59 -3.359,-0.983c-0.989,-0.393 -2.173,-0.59 -3.359,-0.983c-0.592,-0.394 -1.185,-0.59 -1.58,-0.59c-0.395,-0.197 -0.988,-0.394 -1.581,-0.59c-0.395,-0.394 -0.593,-0.393 -0.988,-0.393c-1.778,-1.181 -3.16,-1.968 -4.149,-2.164c-0.395,0 -0.395,0 -0.395,-0.197c0,-0.197 -0.197,-0.197 -0.395,-0.197c-0.988,-0.59 -1.383,-0.983 -1.581,-0.983c-0.198,0 -0.592,-0.394 -1.186,-0.984c-0.987,-0.59 -1.777,-1.18 -2.568,-1.771c-0.791,-0.591 -1.581,-1.18 -2.568,-1.771c-0.988,-0.59 -2.173,-1.574 -3.556,-3.148l-1.778,-1.771c-0.592,-0.394 -0.988,-0.394 -1.383,-0.394c-0.395,0 -0.79,-0.197 -1.382,-0.393h-0.988c-0.592,-0.394 -0.987,-0.59 -1.185,-0.59c-0.197,-0.197 -0.593,-0.394 -1.186,-0.59c-1.186,-0.59 -2.173,-1.18 -2.765,-1.771c-0.396,0 -0.396,0 -0.396,-0.197c0,-0.197 -0.197,-0.197 -0.395,-0.197c-0.592,-0.59 -0.987,-0.983 -0.987,-1.377c-0.988,-0.983 -1.976,-2.164 -3.161,-4.131c-0.592,-0.984 -1.383,-1.968 -2.568,-2.952c-0.988,-0.983 -1.976,-2.164 -2.964,-3.345l-1.382,-1.377c-1.778,-1.18 -2.964,-1.968 -3.161,-2.164c-0.395,-0.393 -0.592,-0.393 -0.592,-0.393c-0.197,0 -0.396,-0.197 -0.593,-0.394c-0.395,-0.984 -0.987,-1.968 -2.173,-3.148l-1.382,-1.377c-0.593,-0.394 -0.988,-0.59 -1.383,-0.984c-0.395,-0.394 -0.791,-0.59 -1.383,-0.983c-0.395,0 -0.79,-0.394 -1.383,-0.984c-0.593,-0.59 -0.987,-0.983 -1.185,-1.377c-0.197,-0.394 -0.593,-0.787 -1.186,-1.377c-0.395,-0.59 -0.987,-1.377 -1.778,-2.164l-1.382,-2.164l-2.173,-1.377c-1.186,-0.59 -2.371,-1.18 -3.359,-1.968c-0.988,-0.788 -2.173,-1.377 -3.359,-1.968c-0.592,-0.59 -1.383,-1.18 -1.976,-1.574c-0.79,-0.393 -1.383,-0.983 -1.976,-1.574c0,-0.393 0,-0.393 -0.197,-0.393c-0.197,0 -0.197,-0.197 -0.197,-0.394c-0.593,-0.59 -0.988,-1.181 -1.383,-1.574c-0.395,-0.393 -0.79,-0.984 -1.382,-1.574c-0.396,-0.394 -0.396,-0.787 -0.396,-1.378c-0.592,-1.574 -0.987,-2.951 -1.382,-4.131c-0.395,-1.18 -0.593,-2.558 -0.988,-4.132l-0.395,-0.983v-2.164c0.592,-1.18 0.987,-2.361 1.186,-3.345c0.199,-0.984 0.592,-2.164 1.185,-3.345c0,-0.983 0.197,-1.574 0.395,-1.771c0,-0.394 0.197,-0.59 0.396,-0.983l1.382,-2.755c0.592,-0.59 1.581,-1.18 3.161,-1.771c0,-0.394 0.197,-0.394 0.395,-0.394c0.395,-0.393 0.79,-0.393 1.383,-0.393c0.987,-0.394 1.976,-0.394 3.16,-0.394c0.395,0 0.592,-0.197 0.988,-0.394c1.778,-0.59 2.963,-0.983 3.556,-0.983c0,-0.394 0.395,-0.394 0.987,-0.394h0.395c0.988,0 1.581,0.197 1.778,0.394c1.581,0.393 2.766,0.59 3.951,0.983c0.988,0.394 2.173,0.59 3.359,0.984h0.987c0.395,0.393 0.593,0.393 0.593,0.393c0.197,0 0.395,0.197 0.592,0.394h0.395c0.592,0.59 1.186,1.18 1.581,1.574c0.395,0.394 0.987,0.984 1.581,1.574c0.592,0.984 1.185,2.164 1.778,4.132c0.395,0.394 0.395,0.59 0.395,0.983c0.395,1.181 0.79,2.755 1.383,4.526v2.754c0,0.394 0,0.59 -0.197,0.59c-0.197,0.197 -0.198,0.393 -0.198,0.59v1.968c0,0.197 0.395,0.59 0.988,1.574l2.173,2.164c0,0.394 0.395,0.787 0.988,1.377c0.987,0.984 2.173,1.968 4.149,3.148c0.987,0.59 1.777,0.984 2.568,1.378c0.791,0.394 1.382,0.59 1.976,0.983c1.581,0.59 2.963,1.377 4.544,1.968c1.581,0.787 2.964,1.377 4.544,1.968h0.395c0.592,0.59 0.987,0.983 1.382,0.983l2.174,2.164c0.395,0.394 0.592,0.394 0.592,0.394c0.197,0 0.395,0.197 0.592,0.393c0,0.394 0.395,0.394 0.988,0.394l12.248,2.755c0.592,0.393 0.988,0.393 1.383,0.393c0.395,0 0.79,0.197 1.382,0.394c0.593,0 1.186,0 1.976,0.197c0.79,0.197 1.383,0.197 1.976,0.197h3.161c0.395,0 0.592,0.197 0.987,0.394c0.988,0.393 1.778,0.59 2.569,0.983c0.791,0.393 1.383,0.59 1.976,0.984l0.987,0.983c0.988,0.59 1.976,1.574 3.161,2.754c0.592,0.59 0.987,0.984 0.987,1.378c0.593,0.59 0.988,1.18 1.186,1.574c0.198,0.394 0.592,0.983 1.185,1.574c0,0.393 0.396,0.787 0.988,1.377c1.186,1.18 1.976,2.164 2.173,2.754c0.593,0.59 0.988,0.984 1.383,0.984c0,0.59 0.395,0.983 0.987,0.983l5.927,5.903c0.593,0 1.186,0.393 1.778,0.983l5.532,4.132c0,0.393 0.197,0.393 0.395,0.393l1.383,1.378c0.592,0.393 1.186,0.59 1.581,0.983c0.395,0.393 0.987,0.59 1.58,0.984l3.161,3.148c0.396,0 0.395,0 0.395,0.197c0,0.197 0.197,0.196 0.395,0.196c1.186,0.59 2.174,0.984 3.161,1.378c0.396,0 0.791,0.393 1.383,0.983c0.592,0.394 0.987,0.59 1.383,0.984c0.396,0.394 0.79,0.59 1.382,0.983c0.593,0.59 0.988,0.59 0.988,0c0.395,0 0.395,-0.197 0.395,-0.394c0.395,0 0.395,-0.197 0.395,-0.394c-0.395,0 -0.395,-0.196 -0.395,-0.393c-0.592,-0.984 -1.186,-1.771 -1.778,-2.558c-0.592,-0.787 -1.185,-1.574 -1.778,-2.557l-1.383,-1.378c-0.987,-0.983 -1.58,-1.574 -1.777,-2.164c-0.396,-0.59 -0.593,-1.181 -0.593,-1.574c-0.197,-0.394 -0.592,-0.984 -1.185,-1.574l-0.988,-0.984c-0.592,-0.394 -1.185,-0.59 -1.581,-0.983c-0.396,-0.393 -0.987,-0.59 -1.581,-0.984c-0.395,-0.394 -0.592,-0.59 -0.987,-0.59c-0.395,-0.197 -0.592,-0.59 -0.988,-1.181c-0.987,-0.983 -1.777,-1.771 -2.765,-2.754c-0.988,-0.983 -1.581,-1.968 -2.173,-3.148c-0.592,-0.59 -1.185,-1.181 -1.581,-1.574c-0.396,-0.393 -0.987,-0.984 -1.581,-1.574l-1.778,-1.771l-1.382,-2.164c-0.592,-1.18 -0.988,-1.968 -1.186,-1.968c-0.197,-0.197 -0.592,-0.59 -1.581,-1.574c-0.395,-0.394 -0.592,-0.59 -0.592,-0.984c-0.197,-0.393 -0.592,-0.787 -1.186,-1.377c-0.395,-0.393 -0.395,-0.59 -0.395,-0.983c0,-0.393 -0.197,-0.787 -0.395,-1.377l-1.383,-2.755c-0.592,-1.18 -1.185,-2.361 -1.58,-3.345c-0.395,-0.984 -0.988,-2.164 -1.581,-3.345l-1.383,-2.754c0,-0.984 -0.197,-1.574 -0.395,-2.164c0,-0.59 -0.395,-1.574 -0.988,-2.754c-1.185,-2.164 -2.173,-4.132 -3.16,-6.099c-0.987,-1.967 -1.976,-3.935 -3.161,-6.099v-0.394c0,-0.394 0,-0.394 -0.197,-0.394c-0.197,0 -0.197,-0.197 -0.197,-0.394v-1.377c0.395,-2.164 0.395,-4.131 0.197,-5.902c-0.198,-1.771 -0.197,-3.738 -0.197,-5.903v-2.164c0.395,-0.983 0.395,-2.164 0.395,-3.541v-0.983c-0.395,0 -0.395,0 -0.395,-0.197c0,-0.197 -0.197,-0.197 -0.395,-0.197c-0.395,-0.394 -0.593,-0.59 -0.593,-0.983c-0.197,-0.394 -0.395,-0.59 -0.592,-0.984c-0.395,0 -0.79,-0.787 -1.383,-2.164c-0.395,-0.59 -0.395,-0.984 -0.395,-1.378c0,-0.394 -0.197,-0.59 -0.395,-0.983c-0.395,-0.394 -0.395,-0.59 -0.395,-0.59c0,-0.197 -0.197,-0.393 -0.395,-0.59c-0.988,-0.984 -1.581,-1.574 -1.778,-2.164c-0.395,0 -0.592,-0.197 -0.988,-0.394v-0.394c-0.395,-0.983 -0.395,-2.164 -0.395,-3.541c-0.395,-0.394 -0.395,-0.984 -0.395,-1.771v-2.164c0,-1.574 -0.197,-2.558 -0.395,-3.148v-0.984c-0.395,-1.18 -0.396,-1.968 -0.396,-1.968c0,-0.197 0.396,-0.59 0.988,-1.574c1.185,-1.771 2.765,-3.934 4.544,-6.296l0.395,-0.394c1.186,-1.771 2.174,-2.951 3.161,-3.541c0,-0.394 0.395,-0.394 0.988,-0.394v-0.393l9.482,-2.755h0.988c1.186,0.394 2.765,0.787 4.544,1.377c0.396,0 0.791,0.394 1.383,0.984c1.186,0.59 2.173,1.377 3.16,2.164c0.396,0 0.791,0.393 1.383,0.983c1.581,1.771 2.569,2.951 2.964,3.541c0.395,0.59 1.185,1.968 2.568,4.132c0.395,0.393 0.395,0.787 0.395,1.377v6.296c-0.592,1.574 -0.987,2.951 -1.185,4.526c-0.198,1.575 -0.593,2.951 -1.186,4.525c0,0.983 -0.395,1.968 -0.988,3.148c0,0.59 -0.197,0.983 -0.395,1.377l0.395,0.394c0.396,0.59 0.791,1.18 1.383,1.771c1.186,0.983 2.766,2.557 4.544,4.919l0.988,0.984c0.395,0.59 0.592,1.377 0.987,1.967c0.396,0.787 0.593,1.574 0.988,2.558c0,0.394 0,0.59 0.197,0.59c0.197,0.196 0.197,0.393 0.197,0.59c0.396,0.59 0.395,0.984 0.395,1.181c0,0.197 0.198,0.59 0.396,1.18c0.592,1.771 1.185,3.345 1.777,4.525v0.394c1.186,2.361 2.174,4.328 2.766,5.903c0,0.393 0,0.59 0.197,0.59c0.197,0.197 0.197,0.59 0.197,1.18c0.396,0 0.395,0 0.395,0.197c0,0.197 0.197,0.197 0.396,0.197l0.987,0.984l2.766,1.377c0.592,0.59 0.987,0.983 0.987,1.377c0.592,0.59 0.987,0.983 1.186,1.377c0.199,0.394 0.592,0.787 1.185,1.377c0.396,0.394 0.395,0.59 0.395,0.984c0,0.394 0.396,0.394 0.988,0.394l3.754,3.738c0.395,0.59 0.592,1.181 0.592,1.771c0.197,0.59 0.395,1.181 0.592,1.771c0,0.394 0.396,0.787 0.988,1.378c1.581,1.18 2.568,1.967 2.964,2.164c0.395,0.394 1.382,0.984 2.963,2.164c0.592,0.394 1.383,0.984 2.173,1.771c1.186,0.59 2.173,1.377 3.161,1.968c0.987,0.787 1.976,1.377 3.16,1.968c0.593,0.59 1.581,1.18 2.766,1.771l2.765,1.377c1.186,0.59 1.976,0.983 2.173,0.983c1.186,0.59 2.174,0.984 3.161,1.378h1.778c2.173,0 3.556,-0.197 4.544,-0.394h0.988c0.987,0 1.58,-0.197 1.778,-0.394c1.185,-0.394 2.37,-0.787 3.555,-1.377l2.766,-1.377c0.592,-1.181 0.987,-1.968 1.383,-2.164c0.592,-1.18 0.987,-1.771 1.185,-1.771c0.198,0 0.791,-0.394 1.976,-0.984c0.395,-0.393 0.592,-0.393 0.988,-0.393c0.396,0 0.592,-0.197 0.987,-0.394c0.395,0 0.79,-0.394 1.383,-0.983c0.987,-1.181 1.976,-2.361 2.963,-3.541c0.987,-1.18 1.976,-2.558 2.964,-4.132c0.592,-0.59 0.987,-1.18 1.383,-1.771c0.396,-0.591 0.592,-1.18 0.987,-1.771c0.592,-0.59 0.988,-0.983 1.186,-0.983c0.198,0 0.592,-0.394 1.185,-0.984c0.592,-0.394 0.988,-0.59 1.383,-0.983c0.395,-0.393 0.79,-0.59 1.383,-0.984c0.592,0 0.987,-0.393 0.987,-0.983c0.395,-0.59 0.592,-0.983 0.988,-1.18c0.396,-0.197 0.592,-0.59 0.987,-1.181c0.395,-0.59 0.592,-0.983 0.988,-1.377c0.396,-0.394 0.592,-0.787 0.987,-1.377c1.186,-1.18 1.976,-2.164 2.173,-2.754c0.395,-0.59 0.593,-1.181 0.988,-1.575c0.395,-0.394 0.592,-0.983 0.987,-1.574c0.593,-1.771 0.988,-2.951 0.988,-3.148c0.592,-1.771 0.987,-2.951 0.987,-3.541c1.186,-1.771 1.976,-2.951 2.173,-3.148l0.396,-0.394c0.592,-1.18 0.987,-1.968 0.987,-2.164l0.395,-0.394c0.593,-1.181 0.988,-2.361 1.383,-3.541c0.395,-1.18 0.79,-2.361 1.383,-3.541c0,-0.59 0,-0.983 0.197,-1.377c0.197,-0.394 0.197,-0.787 0.197,-1.377c0.592,-1.771 0.987,-2.952 0.987,-3.541c0.395,-0.59 0.396,-1.378 0.396,-2.164c0,-0.59 0,-1.18 0.197,-1.771c0.197,-0.591 0.197,-1.18 0.197,-1.771c0,-0.59 0,-0.983 0.197,-1.377c0.197,-0.394 0.197,-0.787 0.197,-1.377c0.592,-1.181 0.987,-2.164 0.987,-3.148v-0.983c-0.395,-0.59 -0.987,-1.377 -1.777,-2.164c-0.396,-0.59 -0.593,-0.983 -0.988,-1.377c-0.395,-0.394 -0.592,-0.787 -0.987,-1.377c-0.988,-1.574 -1.976,-3.148 -3.161,-4.919c-0.395,-0.394 -0.395,-0.59 -0.395,-0.59c0,-0.197 -0.197,-0.394 -0.395,-0.59v-7.083c0.395,-0.59 0.395,-1.18 0.395,-1.574c0,-0.394 0.197,-0.983 0.395,-1.574c0.395,-0.59 0.592,-1.18 0.987,-1.771c0.395,-0.591 0.593,-1.18 0.988,-1.771l0.987,-0.983c0.593,-0.59 0.988,-0.983 1.383,-1.18c0.395,-0.197 0.79,-0.59 1.383,-1.181l0.987,-0.983h0.396c1.185,-0.59 2.173,-1.18 3.16,-1.771c0.987,-0.591 1.778,-1.18 2.766,-1.771c0.592,0 0.987,-0.197 0.987,-0.394h1.383l0.987,-0.394h1.778c1.581,0 2.964,-0.196 4.544,-0.393c0.593,0 0.988,0 1.186,-0.197c0.198,-0.197 0.592,-0.197 1.186,-0.197c0.592,-0.394 0.987,-0.394 1.185,-0.197c0.198,0.197 0.396,0.197 0.593,0.197l4.149,1.377c0.395,0 0.592,0 0.592,0.197c0.197,0.197 0.592,0.197 1.186,0.197c0.987,1.18 2.173,1.968 3.555,2.164c0.593,0.59 1.186,1.18 1.581,1.771c0.395,0.591 0.988,1.18 1.581,1.771h0.395c0.593,0.59 0.988,1.377 0.988,2.164c0.592,0.59 0.987,1.377 0.987,2.164c0.593,0.59 0.988,1.18 0.988,1.771v-0.197v4.132c-0.395,0.59 -0.396,1.18 -0.396,1.771c0,0.591 -0.197,1.18 -0.395,1.771c-0.395,1.574 -0.395,2.361 -0.395,2.754c0,0.393 -0.395,0.787 -0.987,1.377c-0.593,0.59 -0.988,1.377 -1.186,1.968c-0.197,0.787 -0.592,1.574 -1.186,2.558c0,0.393 0,0.59 -0.197,0.59c-0.197,0.197 -0.197,0.394 -0.197,0.59c0,0.394 0,0.394 -0.197,0.394c-0.197,0 -0.197,0.197 -0.197,0.393c-0.592,0.59 -0.988,1.181 -1.186,1.575c-0.198,0.394 -0.592,0.983 -1.185,1.574c-0.395,0.393 -0.592,0.393 -0.988,0.393c-1.185,0.59 -1.976,0.984 -2.173,0.984c-0.395,0.394 -0.592,0.394 -0.987,0.394l-0.988,0.983v0.394c0,0.59 0,0.983 -0.197,1.377c-0.197,0.394 -0.197,0.787 -0.197,1.377c0,0.59 0,1.18 -0.197,1.771c-0.197,0.591 0,1.18 0.197,1.771v4.525c-0.395,0.984 -0.395,1.771 -0.395,2.755c0,0.984 -0.197,1.574 -0.395,2.164c-0.198,0.59 -0.791,2.754 -1.383,4.525c0,0.59 0,0.983 -0.197,1.377c-0.197,0.394 -0.197,0.59 -0.197,0.984c-0.395,0.59 -0.593,1.18 -0.593,1.771c-0.197,0.59 -0.395,1.18 -0.592,1.771c0,0.393 0,0.59 -0.197,0.59c-0.197,0.197 -0.197,0.394 -0.197,0.59v3.148l-1.383,9.443c0,0.984 -0.197,1.575 -0.395,2.164c0,0.394 0,0.59 -0.197,0.59c-0.197,0.197 -0.197,0.394 -0.197,0.59l-1.383,2.754c-0.592,1.18 -0.987,2.164 -1.383,3.148c0,0.984 -0.197,1.574 -0.395,2.164c0,0.59 -0.197,0.983 -0.395,1.377l-0.395,0.394c-0.593,0.983 -1.383,1.574 -2.173,2.164c-0.395,0.393 -0.396,0.59 -0.396,0.59c0,0.197 -0.197,0.394 -0.395,0.59l-0.395,0.983c0,0.394 0,0.59 -0.197,0.59c-0.197,0.197 -0.197,0.59 -0.197,1.18c0,0.394 0,0.59 -0.197,0.984c-0.197,0.394 -0.197,0.59 -0.197,0.983l-3.754,2.754c-1.186,1.181 -2.173,1.968 -2.766,2.164c-0.592,0.59 -0.987,0.984 -0.987,1.181c0,0.197 -0.197,0.59 -0.395,1.18l-1.383,2.754c-0.395,0.59 -0.592,0.984 -0.592,1.181c-0.197,0.196 -0.396,0.59 -0.593,1.18c-1.581,2.754 -3.16,5.115 -4.938,7.28l-4.149,4.131c-0.593,0.59 -0.988,0.984 -0.988,1.377c-0.395,0.59 -0.592,1.181 -0.987,1.574c-0.395,0.393 -0.593,0.984 -0.988,1.575c-0.395,0.393 -0.592,0.59 -0.592,0.983c-0.197,0.394 -0.395,0.59 -0.592,0.983l-0.396,0.394c-0.395,0.59 -0.987,1.377 -1.777,2.164c0,1.18 -0.198,2.164 -0.396,2.754c0,0.59 0,1.378 -0.197,1.968c-0.197,0.787 -0.197,1.377 -0.197,1.968c-0.395,0.394 -0.395,0.59 -0.395,0.983h0.395c0.395,0 0.592,-0.196 0.988,-0.393c1.185,-1.181 2.173,-2.164 3.16,-2.755c0.593,-0.59 1.186,-0.983 1.778,-0.983l0.988,-0.984c1.185,-0.59 1.976,-0.983 1.976,-1.18c0.197,-0.197 0.592,-0.787 1.58,-1.968c1.581,-0.983 2.371,-1.968 2.766,-3.148l0.987,-0.983c0.395,-0.984 0.988,-1.574 1.778,-1.771c1.186,-1.181 1.976,-1.968 2.569,-2.164c0.395,-0.394 1.382,-0.787 2.963,-1.377c0.592,-0.59 1.185,-0.984 1.778,-0.984c1.185,-0.59 2.37,-0.983 3.556,-1.377c1.186,-0.394 2.37,-0.787 3.556,-1.377c0.592,-0.394 0.987,-0.394 1.382,-0.394c0.395,0 0.791,-0.197 1.383,-0.394c1.581,-0.393 2.765,-0.59 3.951,-0.983c0.987,-0.394 2.173,-0.787 3.359,-1.377l1.778,-0.984c0.592,-0.393 1.185,-0.59 1.58,-0.983c0.395,-0.393 0.988,-0.59 1.581,-0.983c0.396,-0.394 0.791,-0.394 1.383,-0.394h3.16c0.593,0 0.988,0 1.383,-0.197c0.395,-0.197 0.593,-0.197 0.988,-0.197l1.778,-0.983c1.185,-0.59 2.37,-0.984 3.555,-1.181c1.185,-0.197 2.371,-0.394 3.556,-0.59c0.396,0 0.592,0 0.592,-0.197c0.198,-0.197 0.396,-0.197 0.593,-0.197h2.173c0.592,-0.394 0.987,-0.394 1.185,-0.394c0.198,0 0.593,-0.394 1.186,-0.983c0.593,-0.59 0.988,-0.984 1.383,-1.181c0.395,-0.197 0.79,-0.59 1.382,-1.18c0.396,0 0.396,0 0.396,-0.197c0,-0.197 0.197,-0.197 0.395,-0.197c0.592,0 1.186,0 1.581,-0.197c0.395,-0.197 0.987,-0.197 1.58,-0.197c0.593,-0.393 1.186,-0.393 1.976,-0.393c0.79,0 1.383,-0.197 1.976,-0.394c0.593,-0.394 1.779,-0.787 3.556,-1.377c0.593,-0.394 1.186,-0.59 1.778,-0.984c0.592,-0.394 1.186,-0.59 1.778,-0.983c0.396,-0.394 0.988,-0.787 2.173,-1.377c1.581,-0.59 2.766,-1.181 3.951,-1.771c0.988,-0.59 2.173,-1.377 3.359,-2.164l2.765,-1.377c1.778,-0.59 2.964,-0.984 3.556,-0.984c0.396,-0.393 0.593,-0.393 0.593,-0.393c0.197,0 0.395,-0.197 0.592,-0.394c0.592,-0.59 1.186,-1.181 1.976,-1.574c0.79,-0.393 1.383,-0.984 1.976,-1.574l0.395,-0.984v-2.164c0,-2.164 0.197,-3.738 0.395,-4.919v-3.541c0,-0.59 0.197,-0.983 0.396,-1.377v-0.59c0.395,-0.59 0.592,-1.378 0.592,-2.164c0.197,-0.984 0.591,-1.574 1.183,-2.164c1.19,-1.771 1.975,-3.148 2.174,-4.132c0.399,-0.393 0.399,-0.59 0.399,-0.59c0,-0.197 0.193,-0.394 0.392,-0.59c0.592,-0.59 1.184,-0.983 1.775,-1.377c0.598,-0.394 1.19,-0.787 1.782,-1.377c0.392,0 0.592,0 0.592,-0.197c0.199,-0.197 0.392,-0.197 0.592,-0.197c0.991,-0.394 1.975,-0.59 2.966,-0.983c0.984,-0.394 1.975,-0.59 2.959,-0.984c1.19,-0.59 2.174,-0.983 3.165,-0.983c0.392,-0.394 0.984,-0.394 2.174,-0.394c0.592,0.394 0.984,0.394 1.376,0.394c0.399,0 0.791,0.197 1.383,0.393h0.991c0.392,0 0.592,0 0.592,0.197c0.199,0.197 0.399,0.197 0.592,0.197c0.592,0.394 1.19,0.59 1.975,0.984c0.791,0.393 1.383,0.59 1.975,0.983c0.399,0 0.598,0 0.598,0.197c0.193,0.197 0.392,0.197 0.592,0.197c1.184,1.771 2.174,2.951 2.766,3.541c0.392,0.394 0.392,0.59 0.392,0.59c0,0.197 0.199,0.394 0.399,0.59c0,0.394 0.392,0.984 0.984,2.164c0.392,0.59 0.592,1.18 0.991,1.771c0.392,0.59 0.592,1.18 0.984,1.771c0.399,0.394 0.791,0.983 1.383,2.164c0.399,0.393 0.399,0.59 0.399,0.983v3.541c0,1.18 -0.199,2.361 -0.399,3.541v0.983c0,0.984 0,1.771 -0.199,2.558c-0.193,0.787 -0.193,1.377 -0.193,1.968c-0.399,0.59 -0.399,0.983 -0.399,1.18c0,0.197 -0.193,0.59 -0.392,1.18c0,0.59 -0.399,1.181 -0.991,1.771c-0.592,1.181 -1.184,2.361 -1.775,3.345c-0.591,0.984 -1.184,1.968 -1.775,2.952l-0.991,0.983c-0.592,0.59 -1.184,0.983 -1.583,1.18c-0.392,0.197 -0.984,0.59 -1.576,1.181c-0.399,0 -0.598,0.196 -0.991,0.393c-0.984,0.394 -1.975,0.787 -3.158,1.378c-0.592,0 -0.991,0 -1.19,0.196c-0.193,0.197 -0.592,0.197 -1.184,0.197h-2.174c-0.392,0 -0.592,0.197 -0.984,0.394h-0.399c-1.184,0.984 -2.766,1.968 -4.542,3.148c-0.592,0.59 -1.383,1.181 -1.975,1.574c-0.791,0.394 -1.383,0.984 -1.975,1.574l-1.383,1.378c-0.592,1.18 -1.383,2.164 -2.174,3.148c-0.592,0.59 -1.184,0.983 -1.775,1.377c-0.592,0.59 -0.991,0.983 -1.383,1.18c-0.399,0.197 -0.791,0.59 -1.383,1.181c-0.592,0 -0.991,0.393 -0.991,0.983l-1.382,2.754c-0.395,0.59 -0.79,1.181 -1.382,1.771c-0.396,0.59 -0.593,0.984 -0.988,1.378c-0.395,0.394 -0.592,0.787 -0.987,1.377c-0.396,0.394 -0.593,0.394 -0.593,0.394c-0.197,0 -0.395,0.196 -0.592,0.393c-1.581,0.59 -2.765,0.984 -3.951,1.378c-0.988,0.393 -2.37,0.787 -3.951,1.377c-0.592,0.394 -1.185,0.59 -1.581,0.59c-0.395,0.197 -0.987,0.59 -1.581,1.181c-0.592,0.393 -1.185,0.59 -1.581,0.59c-0.395,0.197 -0.987,0.394 -1.58,0.59l-2.766,2.754c-0.592,0.59 -1.185,0.984 -1.581,1.378c-0.396,0.394 -0.987,0.787 -1.58,1.377c-1.186,0.59 -2.173,1.18 -2.766,1.771c-1.185,0.59 -2.173,0.983 -2.765,0.983l-5.532,2.755l-1.383,0.983l-3.754,3.738c-0.592,0.394 -1.185,0.59 -1.58,0.59c-0.395,0.196 -0.988,0.393 -1.581,0.59c-0.592,0 -1.383,0.394 -2.173,1.377c-0.592,0.394 -0.988,0.59 -1.186,0.59c-0.197,0.197 -0.592,0.394 -1.185,0.59c1.382,0.983 0.79,1.377 0.197,1.377zM705.15,494.371c-0.392,0.59 -0.392,1.574 -0.392,3.148c-0.592,1.771 -0.991,2.951 -0.991,3.541c-0.592,1.771 -0.984,3.541 -0.984,4.919c0,0.984 0,1.968 -0.199,2.951c-0.199,0.983 -0.199,1.968 -0.199,2.952c-0.392,1.18 -0.592,2.164 -0.592,3.148c-0.193,0.983 -0.392,1.968 -0.592,3.148c0,0.394 0,0.59 -0.199,0.984c-0.193,0.393 -0.193,0.787 -0.193,1.377v1.377c0,2.951 -0.199,5.115 -0.399,6.296v1.377c-0.392,1.181 -0.392,2.361 -0.392,3.345c0,0.984 -0.199,2.164 -0.399,3.345v3.541c0,1.181 -0.193,2.361 -0.392,3.541v6.296c0,1.771 -0.199,3.148 -0.392,4.131v14.953c0.392,1.574 0.392,3.541 0.392,6.296v0.983c-0.392,1.181 -0.392,2.361 -0.199,3.345c0.199,0.984 0.199,1.968 0.199,2.952c0,0.984 0.199,1.574 0.392,1.771v1.377c0.399,1.18 0.399,3.148 0.399,5.902v2.164c0,0.59 -0.199,0.984 -0.399,0.984l-0.392,0.393c-1.184,0.59 -1.975,0.984 -2.174,0.984c-0.592,0.394 -1.184,0.59 -1.576,0.983c-0.399,0.394 -0.991,0.59 -1.583,0.984c-1.184,0.59 -2.374,1.377 -3.358,2.164c-0.991,0.984 -1.975,1.574 -2.966,2.164c-0.592,0.394 -1.184,0.787 -1.775,1.377l-7.308,7.28c-0.598,0.59 -0.991,1.18 -1.383,1.771c-0.399,0.59 -0.791,1.18 -1.383,1.771c-0.399,0.394 -0.399,0.59 -0.399,0.59c0,0.197 -0.199,0.393 -0.392,0.59c-0.592,1.181 -1.383,2.361 -2.174,3.541c-0.991,1.181 -1.583,2.558 -2.174,4.132l-0.984,1.771c-1.19,3.935 -2.966,8.066 -4.942,12.591c-0.592,1.181 -0.988,2.164 -0.988,2.755c-0.395,1.574 -0.592,2.754 -0.987,3.935c-0.395,0.983 -0.791,2.361 -1.383,3.934c0,0.59 0,1.181 -0.197,1.771c-0.197,0.59 -0.197,1.181 -0.197,1.771c0,0.984 -0.197,1.574 -0.395,2.164c0,0.394 -0.197,0.394 -0.395,0.394c0,-0.394 -0.197,-0.394 -0.396,-0.394c-0.395,-0.394 -0.592,-0.59 -0.592,-0.983c-0.197,-0.394 -0.395,-0.59 -0.592,-0.984l-7.31,-7.28c-0.592,-0.59 -1.185,-0.983 -1.581,-1.377c-0.396,-0.394 -0.987,-0.787 -1.581,-1.377c-0.592,-0.59 -1.778,-1.574 -3.556,-2.754c-0.987,-0.59 -1.777,-1.181 -2.568,-1.771c-0.791,-0.59 -1.382,-1.181 -1.976,-1.771c-1.185,-0.59 -1.976,-0.984 -1.976,-1.181c-0.197,-0.197 -0.592,-0.59 -1.581,-1.18l-8.297,-4.132c-1.185,-13.772 -2.568,-26.167 -3.951,-36.791c-1.383,-10.624 -2.765,-19.872 -4.149,-27.741c-1.382,-7.87 -2.765,-14.363 -4.346,-19.871c-1.581,-5.508 -2.964,-9.838 -4.149,-13.182h1.778c0.987,-0.393 2.173,-0.393 4.149,-0.393c0.592,-0.394 1.186,-0.394 1.778,-0.394c0.592,0 1.186,-0.197 1.778,-0.394c0.592,-0.197 2.173,-0.394 3.16,-0.394c0.988,0 1.976,-0.197 3.161,-0.394c0.987,-0.393 1.778,-0.393 2.568,-0.393c0.79,0 1.581,-0.197 2.568,-0.394c2.371,-0.59 4.347,-0.984 5.927,-1.377c0.593,-0.394 1.383,-0.394 2.173,-0.394c1.186,-0.394 2.371,-0.59 3.556,-0.984c1.185,-0.394 2.371,-0.59 3.556,-0.983c1.186,0 2.766,-0.394 4.544,-0.983c0.593,0 0.988,0 1.186,-0.197c0.198,-0.197 0.593,-0.197 1.186,-0.197c0.395,-0.394 0.79,-0.394 1.382,-0.394c0.593,-0.394 1.383,-0.59 2.174,-0.59c0.987,-0.196 1.58,-0.393 2.173,-0.59h0.395c0.592,-0.394 1.186,-0.394 1.778,-0.394c0.592,0 1.185,-0.394 1.778,-0.983c1.58,-0.59 3.555,-1.181 5.929,-1.771c1.184,-0.394 2.367,-0.984 3.551,-1.771c0.991,-0.59 1.982,-1.181 2.966,-1.771c0.991,-0.59 1.975,-1.181 2.966,-1.771c1.184,-0.59 2.174,-1.181 2.766,-1.771c0.592,-0.394 1.576,-0.984 2.766,-2.164c0.984,-0.59 1.975,-1.18 3.158,-1.771c0.592,-0.59 1.583,-1.18 2.766,-1.771c0,-0.394 0.392,-0.787 0.991,-1.377c0.592,-0.59 1.775,-1.574 3.551,-2.755c1.583,-1.18 2.966,-2.361 4.149,-3.345c1.183,-0.984 2.567,-2.361 4.149,-3.934c0.399,-0.394 0.399,-0.59 0.399,-0.59c0,-0.197 0.392,-0.394 0.984,-0.59h0.392v0.787z" /></svg>