<svg xmlns="http://www.w3.org/2000/svg" viewBox="0 0 1024 1024" width="1024" height="1024"><path d="M495.11,479.605c1.381,-0.125 2.975,-0.044 4.816,0.289c2.007,0 3.68,-0.008 4.684,0.658c5.019,0 7.697,1.001 7.697,3c0.335,1.667 0.671,3.005 0.671,4.671c0,1.666 0.002,3.005 0.671,4.671c0.67,1.667 1.002,2.996 1.671,4.329c0.669,1.333 1.002,2.663 1.671,4.329c4.351,9.665 10.709,16.001 20.079,19c2.342,1 4.345,1.991 5.684,2.658c1.338,1 3.686,1.333 6.697,2c2.677,1 5.018,1.667 7.026,2c2.007,0 4.349,0.333 7.026,1c5.019,1 9.703,2.004 14.053,3.671c4.35,1.667 8.697,3.005 13.382,4.671c5.02,2 8.703,3.988 10.711,5.987c4.015,2.999 7.024,6.334 8.697,10c1.673,3.666 2.684,7.001 2.684,10c0,1.999 -0.001,3.004 -0.671,3.671c-1.004,2 -2.011,3.662 -3.684,5.329c-1.004,1.999 -1.999,4.004 -3.671,5.671c-1.672,1.667 -3.024,3.659 -4.697,5.658c-1.004,1.666 -1.996,2.996 -3,4.329c-1.004,1.333 -2.009,2.675 -3.013,4.342c-3.011,4.665 -5.69,9.659 -7.697,14.658c-2.007,4.999 -3.68,10.334 -4.684,16c-1.004,2.666 -1.672,4.991 -2.342,6.658c-0.67,1.667 -1.338,3.672 -2.342,5.671c-0.335,1 -0.671,2 -0.671,3c0,1 -0.001,2 -0.671,3c-2.677,4.999 -5.687,9.334 -9.368,13c-2.677,2 -5.02,3.992 -7.697,5.658c-2.342,2 -5.357,3.329 -8.368,4.329c-2.007,0.333 -4.018,1.334 -6.026,3c-1.004,0 -1.004,1 0,3c0.334,0.666 0.678,1.005 1.013,1.671c0,0.666 0.331,1.005 1,1.671c1.339,2 1.675,4.319 0.671,6.987c0,0.337 -0.007,0.671 -0.342,0.671c-0.335,0 -0.329,0.004 -0.329,0.671c-2.342,4.669 -3.684,9.67 -3.684,15.329c-1.004,1.004 -2.009,1.991 -3.013,2.658c-1.004,0.667 -1.998,1.674 -3.671,2.671c-6.692,4.002 -14.392,6 -23.092,6h-8.039c-2.676,0 -5.686,-0.004 -8.697,-0.671c-7.362,-0.997 -14.048,-2.658 -19.737,-4.329c-4.015,-1.664 -6.695,-3.329 -8.368,-5c-1.673,-1.994 -4.015,-3.99 -7.026,-6.658c-2.677,-2.668 -5.018,-4.998 -7.026,-7.329c-2.008,-2.338 -4.018,-4.674 -6.026,-7.342c-1.004,-0.997 -1.679,-1.998 -2.013,-3c-0.335,-1 -0.996,-2 -2,-3c-1.672,-2.667 -3.353,-4.992 -5.026,-6.658c-1.673,-1.666 -3.676,-3.672 -5.684,-5.671c-3.011,-2 -5.022,-3.658 -6.026,-4.658c-4.684,-3.999 -7.695,-8.334 -9.368,-13c-1.673,-4.332 -3.011,-7.339 -4.684,-9.671c-1.673,-2.332 -3.011,-5.001 -4.684,-8c-3.346,-8.332 -6.357,-15.988 -9.368,-22.987c-3.011,-6.999 -5.691,-13.993 -8.368,-20.658c-4.35,-5.665 -7.36,-11.335 -9.368,-17c-1.004,-2.333 -1.678,-4.334 -2.013,-6c-0.335,-1.666 0.009,-4.001 1.013,-7c0.335,-3.666 2.345,-6.663 6.026,-9.329c3.681,-3.666 6.024,-6 7.697,-7c3.012,-1.666 7.688,-2.329 13.711,-2.329c5.354,-1 10.046,-2.004 15.066,-2.671c5.02,-1 10.034,-2.33 15.053,-4.329c4.016,-1 8.36,-2 12.711,-3c4.351,-1 8.71,-1.338 13.395,-0.671h2.342c3.346,0 6.36,-1.663 8.368,-5.329c2.007,-1.999 3.669,-4.672 5.342,-7.671c1.004,-2.666 2.009,-4.988 3.013,-6.987c1.004,-1.999 2.009,-4.334 3.013,-7c1.673,-5.331 3.347,-9.343 5.355,-12.342c1.004,-0.5 2.173,-0.822 3.553,-0.947zM467.144,561.211v1.658c0.165,0.164 0.442,0.196 0.658,0.289v1.382c0,6.665 0.001,11.005 0.671,13.671c4.016,6.332 8.366,11.988 12.382,16.987c1.004,1.667 2.011,3.004 3.684,4.671c1.338,1.666 2.68,2.992 3.684,4.658c3.011,4.999 4.353,10.343 3.684,15.342c0,2 -1.005,2.987 -3.013,2.987c-3.346,1 -5.353,1.671 -7.026,1.671c-4.016,1 -7.705,1.996 -10.382,3.329c-3.012,1.333 -4.342,2.342 -4.342,3.342c-0.669,0 -1.015,-0.008 -1.684,0.658h15.395c2.677,0.333 5.026,0.671 7.368,0.671c2.342,0 4.678,0.005 7.355,0.671c2.008,1 4.349,1 7.026,0c2.677,-0.333 5.026,-0.671 7.368,-0.671h15.724c2.677,0 5.026,-0.004 7.368,0.329c2.342,0.333 4.678,0.342 7.355,0.342c0.67,0 1.002,-0.005 1.671,-0.671c-0.335,0 -0.671,-0.004 -0.671,-0.671c-0.334,0 -2.331,-0.658 -5.342,-1.658c-3.681,-1 -7.036,-2.005 -10.382,-2.671c-3.346,-0.666 -6.687,-1.671 -10.368,-2.671c-2.008,-1 -3.682,-1.658 -5.355,-1.658c-1.673,-0.333 -2.342,-1.333 -2.342,-3v-4.671c1.338,-5.666 3.341,-10.667 5.684,-15c2.343,-4.333 5.697,-8.321 10.382,-11.987c2.676,-2.666 4.015,-5.001 4.684,-7c2.342,-3.999 3.671,-8.335 3.671,-13c1.004,-2.666 0.335,-3.329 -2.342,-2.329h-5.684c-2.007,0 -4.02,-0.004 -6.697,-0.671c-2.342,-1 -4.34,-0.337 -6.013,2.329c-1.004,0.667 -1.678,1.005 -2.013,1.671c-0.335,0.666 -1.009,1.005 -2.013,1.671c-1.004,1.333 -3.002,2.658 -6.013,3.658c-8.032,1 -14.392,-0.664 -18.408,-5.329c-2.676,-3.666 -6.024,-5.329 -10.039,-5.329c-0.335,0 -0.666,-0.009 -1,-0.342c0,-0.334 -0.343,-0.329 -1.013,-0.329c-1.512,0 -2.354,-0.098 -3.013,-0.382v-1.947h-0.658zM495.58,648.855c-1.338,0 -2.667,0.004 -3.671,0.671c-4.351,3.332 -9.039,5.333 -13.724,7c-0.335,0.666 -1.676,1.329 -3.684,2.329c-1.673,0 -1.673,0.663 0,2.329c4.35,2 7.36,3.005 9.368,3.671c1.673,0.334 4.015,0.658 7.026,0.658c2.008,-0.333 4.687,-0.658 8.368,-0.658c3.681,-0.666 7.03,-0.666 10.711,0c1.004,0 2.003,-0.004 3.342,0.329c1.004,0.333 2.351,0.329 3.355,0.329c3.347,0 5.353,0.008 7.026,-0.658c1.004,-1 1.671,-2 1.671,-3c-0.335,-0.333 -0.671,-0.667 -0.671,-1c0,0 -0.001,-0.334 -0.671,-1c-2.007,-2 -4.011,-3.662 -5.684,-5.329c-1.673,-1.667 -3.689,-3.343 -5.697,-5.342v-0.329h-17.066z" /> <path d="M510.39,182c19.206,3.208 89.629,19.25 128.041,154.002c30.73,107.801 66.155,198.919 80.026,231.003c-29.878,-11.764 -80.027,-57.751 -108.836,-112.293c-38.977,-73.793 -54.417,-157.211 -118.438,-150.794c-64.021,6.417 -86.428,198.919 -236.877,314.421c25.609,-41.709 81.947,-152.077 102.434,-259.878c25.608,-109.085 134.444,-179.669 153.65,-176.461z" /> <path d="M269.327,788.211c-25.608,0 -51.216,-19.247 -67.222,-51.335c57.619,41.708 108.835,28.685 153.65,12.834c61.047,-21.592 121.639,-25.667 134.444,19.254c-6.403,-3.213 -52.674,-17.455 -89.63,-3.213c-41.613,16.047 -105.634,22.461 -131.242,22.461z" /> <path d="M662.808,778.159c-81.801,-27.17 -142.498,-18.823 -152.102,-9.196c6.93,-17.421 36.372,-43.513 122.343,-9.627c108.63,42.819 150.492,1.071 168.635,-9.627c-12.807,18.183 -59.52,54.797 -138.876,28.45z" /></svg>