<svg xmlns="http://www.w3.org/2000/svg" viewBox="0 0 1024 1024" width="1024" height="1024"><path d="M634.274,781.474c-3.368,-8.084 -7.411,-15.495 -10.779,-23.579l8.758,-8.758c4.716,8.758 8.758,17.516 13.474,26.947c1.347,2.695 2.695,5.389 4.042,8.758h-13.474c-1.347,-1.347 -1.347,-2.021 -2.021,-3.368zM388.379,784.842h-13.474c1.347,-2.695 2.695,-5.389 4.042,-8.758c4.716,-8.758 8.758,-18.189 13.474,-26.947l8.758,8.758c-3.368,8.084 -7.411,15.495 -10.779,23.579c-0.674,1.347 -1.347,2.021 -2.021,3.368zM390.4,242.526c3.368,8.084 7.411,15.495 10.779,23.579l-8.758,8.758c-4.716,-8.758 -8.758,-18.189 -13.474,-26.947c-1.347,-2.695 -2.695,-5.389 -4.042,-8.758h13.474c0.674,1.347 1.347,2.021 2.021,3.368zM635.621,239.157h13.474c-1.347,2.695 -2.695,6.063 -4.042,8.758c-4.042,8.758 -8.758,17.516 -13.474,26.274l-8.084,-8.084c3.368,-8.084 7.411,-15.495 10.779,-22.905c0.674,-2.021 0.674,-2.695 1.347,-4.042zM785.179,707.368c-10.779,-7.411 -21.558,-14.821 -32.337,-22.905c-10.779,-7.411 -21.558,-15.495 -32.337,-22.906l8.084,-8.084c10.779,6.737 20.884,14.147 31.663,20.885c8.758,5.389 16.842,11.453 25.6,17.516v15.495zM785.179,388.715c-1.347,0.674 -2.021,1.347 -3.368,1.347c-8.084,3.368 -15.495,7.411 -23.579,10.779l-8.758,-8.758c8.758,-4.716 17.516,-8.758 26.947,-13.474c2.695,-1.347 5.389,-2.695 8.758,-4.042zM785.179,371.199c-3.368,2.021 -6.737,3.368 -9.432,5.389c-9.432,4.716 -18.189,9.432 -27.621,14.147l-8.084,-8.084c10.105,-5.389 19.537,-11.453 29.642,-16.842c5.389,-2.695 10.779,-6.063 15.495,-8.758zM785.179,352.336c-6.063,3.368 -11.453,6.737 -17.516,10.105c-10.105,6.063 -20.211,12.126 -30.316,17.516l-8.084,-8.084c10.779,-6.737 20.884,-13.474 31.663,-20.211c8.084,-4.716 16.168,-10.105 23.579,-14.821v15.495zM785.179,332.799c-8.758,5.389 -16.842,11.453 -25.6,17.516c-10.105,6.737 -20.884,14.147 -31.663,20.884l-8.084,-8.084c10.779,-7.411 21.558,-15.495 32.337,-22.905c10.779,-7.41 21.558,-14.821 32.337,-22.905v15.495zM785.179,311.241l-34.358,26.274l-32.337,24.253l-7.411,-8.084c10.779,-8.758 21.558,-17.516 32.337,-25.6c13.474,-10.779 27.621,-21.558 41.768,-32.337zM785.179,686.484c-8.084,-4.716 -15.495,-10.105 -23.579,-14.822c-10.779,-6.737 -20.884,-13.474 -31.663,-20.211l8.084,-8.084c10.105,6.063 19.537,11.453 29.642,17.516c6.063,3.368 11.453,6.737 17.516,10.105zM785.179,666.947c-5.389,-2.695 -10.779,-6.063 -15.495,-8.758c-10.105,-5.389 -19.537,-10.779 -29.642,-16.842l8.084,-8.084c8.758,4.716 18.189,9.432 26.947,14.147c3.368,2.021 6.737,3.368 9.432,5.389v14.147zM785.179,648.757c-2.695,-1.347 -5.389,-2.695 -8.758,-4.042c-8.758,-4.042 -17.516,-8.758 -26.274,-12.8l8.758,-8.758c7.411,3.368 15.495,6.737 22.905,10.779c1.347,0.674 2.021,0.674 3.368,1.347zM792.589,588.799c1.347,0.674 3.368,0.674 4.716,1.347c6.063,1.347 11.453,3.368 17.516,4.716l-10.105,10.105c-3.368,-1.347 -7.411,-2.021 -10.779,-3.368c-3.368,-1.347 -7.411,-2.021 -10.779,-3.368zM797.979,587.452c-0.674,0 -2.021,-0.674 -2.695,-0.674l10.105,-10.779c7.411,2.021 15.495,3.368 22.905,5.389l-10.779,10.779c-6.063,-1.347 -12.8,-3.368 -19.537,-4.716zM808.084,573.305l10.779,-10.779l24.253,4.042l-10.779,10.779c-8.084,-0.674 -16.168,-2.695 -24.253,-4.042zM822.232,559.157l11.453,-11.453c8.758,1.347 16.842,2.021 25.6,3.368l-11.453,11.453c-8.758,-0.674 -17.516,-2.021 -25.6,-3.368zM837.726,544.336l12.126,-12.126l26.274,2.021l-12.126,12.126zM853.895,527.494l12.8,-12.8c9.432,0 18.189,0.674 27.621,0.674l-12.8,12.8c-8.758,0 -18.189,0 -27.621,-0.674zM866.695,509.305l-12.8,-12.8c9.432,0 18.189,-0.674 27.621,-0.674l12.8,12.8c-8.758,0 -18.189,0.674 -27.621,0.674zM849.853,491.789l-12.126,-12.126l26.274,-2.021l12.126,12.126zM833.684,476.294l-11.453,-11.453c8.084,-1.347 16.842,-2.021 24.926,-3.368l11.453,11.453c-8.084,0.674 -16.842,2.021 -24.926,3.368zM818.863,461.473l-10.779,-10.779c8.084,-1.347 16.168,-3.368 23.579,-4.716l10.779,10.779c-7.411,2.021 -15.495,3.368 -23.579,4.716zM805.389,447.999l-10.105,-10.105c0.674,0 2.021,-0.674 2.695,-0.674c6.737,-1.347 13.474,-3.368 20.211,-4.716l10.779,10.779c-8.084,0.674 -15.495,2.695 -23.579,4.716zM797.305,433.852c-1.347,0.674 -3.368,0.674 -4.716,1.347l-9.432,-9.432c3.368,-1.347 7.411,-2.021 10.779,-3.368c3.368,-1.347 7.411,-2.021 10.779,-3.368l10.105,10.105c-6.063,1.347 -11.453,2.695 -17.516,4.716zM792.589,419.031l-12.126,4.042l-9.432,-9.432c6.063,-2.021 11.453,-4.042 17.516,-6.737c1.347,-0.674 2.021,-0.674 3.368,-1.347l9.432,9.432c-2.695,2.021 -5.389,2.695 -8.758,4.042zM787.874,404.21c-6.063,2.695 -12.126,4.716 -18.189,7.411l-8.758,-8.758c7.411,-3.368 14.821,-6.737 22.905,-10.105c0.674,0 1.347,-0.674 2.021,-0.674v6.737l4.716,4.716c-1.347,0.674 -2.021,0.674 -2.695,0.674zM741.389,324.715c-10.779,8.758 -21.558,17.516 -32.337,26.947l-8.084,-8.084c10.779,-9.432 21.558,-18.863 31.663,-28.295c17.516,-14.821 34.358,-29.642 51.874,-44.463v16.842c-14.147,12.8 -28.295,24.926 -43.116,37.053zM785.179,262.736c-17.516,16.842 -35.705,33.684 -53.895,50.526c-10.105,9.432 -20.884,19.537 -31.663,28.968l-8.084,-8.084c10.105,-10.105 20.211,-20.211 30.989,-30.316c20.884,-20.211 41.768,-39.747 62.653,-59.958zM720.505,301.81c-10.105,10.105 -20.211,20.211 -30.316,30.989l-8.084,-8.084c9.432,-10.779 19.537,-20.884 28.968,-31.663c16.842,-18.189 33.684,-36.379 51.2,-53.895h18.189c-19.537,20.884 -39.747,41.768 -59.958,62.653zM709.053,291.031c-9.432,10.779 -18.863,21.558 -28.295,31.663l-8.084,-8.084c8.758,-10.779 17.516,-21.558 26.947,-32.337c12.126,-14.821 24.253,-28.968 37.053,-43.789h17.516c-15.495,18.189 -30.316,35.705 -45.137,52.547zM696.926,280.926c-8.758,10.779 -17.516,21.558 -25.6,32.337l-7.411,-7.411l24.253,-32.337l26.274,-34.358h16.168c-12.126,14.147 -22.905,27.621 -33.684,41.768zM684.8,272.168c-7.411,10.779 -15.495,21.558 -22.905,32.337l-8.084,-8.084c6.737,-10.779 14.147,-20.884 20.884,-31.663c5.389,-8.758 11.453,-16.842 17.516,-25.6h15.495c-7.411,10.779 -15.495,21.558 -22.905,33.011zM672,263.41c-6.737,10.779 -13.474,20.884 -20.211,31.663l-7.411,-8.758c6.063,-10.105 11.453,-20.211 17.516,-29.642c3.368,-6.063 6.737,-11.453 10.779,-17.516h14.821c-5.389,8.084 -10.105,16.168 -15.495,24.253zM658.526,255.326c-5.389,10.105 -10.779,19.537 -16.842,29.642l-8.084,-8.084c4.716,-8.758 9.432,-18.189 14.147,-26.947c2.021,-3.368 3.368,-6.737 5.389,-10.105h14.147c-2.695,4.716 -5.389,10.105 -8.758,15.495zM601.263,243.873l4.042,-12.126c1.347,-3.368 2.021,-6.063 3.368,-9.432l9.432,9.432c-0.674,1.347 -0.674,2.695 -1.347,3.368c-2.021,6.063 -4.042,11.453 -6.063,17.516zM602.611,231.073c-1.347,3.368 -2.021,7.411 -3.368,10.779l-9.432,-9.432c0.674,-1.347 0.674,-2.695 1.347,-4.716c2.021,-6.063 3.368,-11.453 5.389,-17.516l10.105,10.105c-2.021,3.368 -3.368,6.737 -4.042,10.779zM587.789,226.357c0,0.674 -0.674,2.021 -0.674,2.695l-10.779,-10.105c2.021,-7.411 3.368,-15.495 5.389,-22.905l10.779,10.779c-1.347,6.737 -3.368,12.8 -4.716,19.537zM573.642,216.252l-10.779,-10.779l4.042,-24.253l10.779,10.779c-0.674,8.084 -2.695,16.168 -4.042,24.253zM559.495,202.105l-11.453,-11.453c1.347,-8.758 2.021,-16.842 3.368,-25.6l11.453,11.453c-0.674,8.758 -2.021,17.516 -3.368,25.6zM544.674,186.61l-12.126,-12.126l2.021,-26.274l12.126,12.126zM527.832,170.441l-12.8,-12.8c0.674,-9.432 0.674,-18.189 0.674,-27.621l12.8,12.8c0,8.758 0,18.189 -0.674,27.621zM509.642,157.641l-12.8,12.8c0,-9.432 -0.674,-18.189 -0.674,-27.621l12.8,-12.8c0,8.758 0.674,18.189 0.674,27.621zM492.126,174.484l-12.126,12.126l-2.021,-26.274l12.126,-12.126zM476.632,190.652l-11.453,11.453c-1.347,-8.084 -2.021,-16.842 -3.368,-24.926l11.453,-11.453c1.347,8.084 2.021,16.168 3.368,24.926zM461.811,205.473l-10.779,10.779c-1.347,-8.084 -3.368,-16.168 -4.716,-23.579l10.779,-10.779c2.021,7.411 3.368,15.495 4.716,23.579zM448.337,218.947l-10.105,10.105c0,-1.347 -0.674,-2.021 -0.674,-3.368c-1.347,-6.737 -3.368,-12.8 -4.716,-19.537l10.779,-10.779c1.347,8.084 2.695,15.495 4.716,23.579zM434.189,227.031c0.674,1.347 0.674,3.368 1.347,4.716l-9.432,9.432c-1.347,-4.042 -2.021,-7.411 -3.368,-11.453c-1.347,-3.368 -2.021,-6.737 -3.368,-10.779l10.105,-10.105c1.347,6.737 2.695,12.126 4.716,18.189zM419.368,231.073l4.042,12.126l-9.432,9.432c-2.021,-6.063 -4.042,-11.453 -6.737,-17.516c-0.674,-1.347 -0.674,-2.021 -1.347,-3.368l10.105,-10.105c1.347,4.042 2.021,6.737 3.368,9.432zM239.495,635.957c1.347,-0.674 2.021,-1.347 3.368,-1.347c8.084,-3.368 15.495,-7.411 23.579,-10.779l8.758,8.758c-8.758,4.716 -18.189,8.758 -26.947,13.474c-2.695,1.347 -5.389,2.695 -8.758,4.042zM239.495,316.631c10.779,7.411 22.232,15.495 33.011,22.905c10.779,7.41 21.558,15.495 32.337,22.905l-8.084,8.084c-10.779,-6.737 -20.884,-13.474 -31.663,-20.884c-8.758,-6.063 -17.516,-11.453 -25.6,-17.516zM239.495,337.515c8.084,4.716 16.168,10.105 24.253,14.821c10.779,6.737 20.884,13.474 30.989,19.537l-8.084,8.758c-10.105,-6.063 -19.537,-11.453 -29.642,-17.516c-6.063,-3.368 -11.453,-7.411 -17.516,-10.779zM239.495,356.378c5.389,2.695 10.779,6.063 16.168,8.758c10.105,5.389 19.537,10.779 29.642,16.842l-8.758,8.758c-8.758,-4.716 -18.189,-9.432 -26.947,-14.147c-3.368,-2.021 -6.737,-3.368 -10.105,-5.389zM239.495,374.568c2.695,1.347 6.063,2.695 8.758,4.042c8.758,4.042 17.516,8.758 26.274,13.474l-8.084,8.758c-7.411,-3.368 -15.495,-6.737 -22.905,-10.779c-1.347,-0.674 -2.695,-1.347 -3.368,-2.021v-13.474zM239.495,653.473c3.368,-2.021 6.737,-3.368 9.432,-5.389c9.432,-4.716 18.189,-9.432 27.621,-14.147l8.084,8.084c-10.105,5.389 -20.211,11.453 -30.316,16.842c-5.389,2.695 -10.779,6.063 -15.495,8.758v-14.147zM239.495,672.336c6.063,-3.368 11.453,-6.737 17.516,-10.779l30.316,-18.189l8.084,8.084c-10.779,6.737 -20.884,13.474 -31.663,20.211c-8.084,4.716 -15.495,10.106 -23.579,14.822v-14.148zM239.495,691.874c8.758,-6.063 16.842,-11.453 25.6,-16.842c10.779,-6.738 21.558,-14.148 31.663,-20.885l8.084,8.084c-10.779,8.084 -21.558,15.495 -33.011,23.58c-10.779,7.411 -21.558,14.821 -32.337,22.905zM239.495,713.432c11.453,-8.758 22.905,-17.516 34.358,-25.6c10.779,-8.084 21.558,-16.169 32.337,-24.253l7.411,7.411c-10.779,8.759 -22.232,17.516 -33.011,26.274c-13.474,10.779 -27.621,21.558 -41.768,32.337v-16.168zM376.253,249.262c4.716,9.432 9.432,18.189 14.147,27.621l-8.084,8.084c-5.389,-10.105 -11.453,-20.211 -16.842,-30.316c-2.695,-5.389 -6.063,-10.779 -8.758,-15.495h14.147c2.021,3.368 3.368,6.737 5.389,10.105zM362.779,256.673c6.063,10.105 12.126,20.211 17.516,30.316l-8.084,8.084c-6.737,-10.779 -13.474,-20.884 -20.211,-31.663c-4.716,-8.084 -10.105,-16.168 -14.821,-23.579h14.821c3.368,5.389 7.411,10.779 10.779,16.842zM349.305,264.757c6.737,10.779 14.147,20.884 20.884,31.663l-8.084,8.084c-7.411,-10.779 -15.495,-21.558 -22.905,-32.337c-7.41,-10.779 -14.821,-21.558 -22.905,-32.337h15.495c6.063,8.084 12.126,16.168 17.516,24.926zM337.179,273.515l24.253,32.337l-8.084,8.084c-8.758,-10.779 -17.516,-21.558 -26.274,-33.011c-10.779,-13.474 -21.558,-27.621 -32.337,-41.768h16.168zM325.053,282.947c8.758,10.779 18.189,21.558 26.947,32.337l-8.084,8.084l-28.295,-32.337c-14.821,-17.516 -29.642,-34.358 -44.463,-51.874h17.516c11.453,14.821 23.579,28.968 36.379,43.789zM312.926,293.052c10.105,10.779 19.537,21.558 28.968,31.663l-7.411,7.411c-10.105,-10.105 -20.211,-20.884 -30.316,-30.989c-19.537,-20.211 -39.747,-41.095 -59.284,-62.653h17.516c16.842,18.863 33.684,36.379 50.526,54.568zM302.147,303.831c10.105,10.105 20.211,20.211 30.989,30.316l-7.411,7.411c-10.779,-9.432 -20.884,-18.863 -31.663,-28.968c-18.189,-16.842 -36.379,-33.684 -54.568,-51.2v-17.516c20.884,20.211 41.768,40.421 62.653,59.958zM291.368,315.284c10.779,9.432 20.884,18.863 31.663,28.295l-8.084,8.084c-10.779,-8.758 -21.558,-17.516 -32.337,-26.947c-14.821,-12.126 -29.642,-24.926 -43.789,-37.053v-16.842c18.189,14.821 35.705,29.642 52.547,44.463zM281.263,327.41c10.779,8.758 21.558,17.516 32.337,25.6l-8.084,8.084l-32.337,-24.253l-34.358,-26.274v-16.168c14.821,10.779 28.295,21.558 42.442,33.011zM239.495,398.82v-7.411c0.674,0 1.347,0.674 2.021,0.674c7.411,3.368 14.821,6.737 22.232,9.432l-8.758,8.758c-6.063,-2.695 -12.126,-4.716 -18.189,-7.411c-0.674,0 -1.347,-0.674 -2.021,-0.674zM236.126,407.578c5.389,2.021 11.453,4.042 17.516,6.063l-9.432,9.432l-12.126,-4.042c-3.368,-1.347 -6.063,-2.021 -9.432,-3.368l10.105,-10.105c0.674,0.674 2.021,1.347 3.368,2.021zM230.737,422.399c3.368,1.347 7.411,2.021 10.779,3.368l-9.432,9.432c-1.347,-0.674 -2.695,-0.674 -4.716,-1.347c-6.063,-1.347 -12.126,-3.368 -17.516,-4.716l10.105,-10.105c3.368,0.674 7.411,2.021 10.779,3.368zM226.695,437.22l2.695,0.674l-10.779,10.105c-7.411,-2.021 -15.495,-3.368 -22.905,-5.389l10.779,-10.779c6.737,2.021 13.474,3.368 20.211,5.389zM215.916,450.694l-10.779,10.779l-24.253,-4.042l10.779,-10.779c8.758,1.347 16.168,2.695 24.253,4.042zM201.768,464.841l-11.453,11.453c-8.758,-1.347 -16.842,-2.021 -25.6,-3.368l11.453,-11.453c9.432,1.347 17.516,2.695 25.6,3.368zM186.947,480.336l-12.126,12.126l-26.274,-2.021l12.126,-12.126zM170.105,497.178l-12.8,12.8c-9.432,0 -18.189,-0.674 -27.621,-0.674l12.8,-12.8c9.432,0 18.189,0 27.621,0.674zM157.979,514.694l12.8,12.8c-9.432,0 -18.189,0.674 -27.621,0.674l-12.8,-12.8c9.432,0 18.189,0 27.621,-0.674zM175.495,532.21l12.126,12.126l-26.274,2.021l-12.126,-12.126zM190.989,548.378l11.453,11.453c-8.084,1.347 -16.842,2.021 -24.926,3.368l-11.453,-11.453c8.084,-1.347 16.842,-2.695 24.926,-3.368zM205.811,562.526l10.779,10.779c-8.084,1.347 -16.168,3.368 -23.579,4.716l-10.779,-10.779c7.411,-1.347 15.495,-3.368 23.579,-4.716zM219.284,575.999l10.105,10.105c-1.347,0 -2.021,0.674 -3.368,0.674c-6.737,1.347 -12.8,3.368 -19.537,4.716l-10.779,-10.779c8.084,-0.674 16.168,-2.695 23.579,-4.716zM227.368,590.82c2.021,-0.674 3.368,-0.674 5.389,-1.347l9.432,9.432c-4.042,1.347 -7.411,2.695 -11.453,3.368c-3.368,1.347 -6.737,2.021 -10.105,3.368l-10.105,-10.105c5.389,-2.021 10.779,-3.368 16.842,-4.716zM231.411,605.641c4.042,-1.347 8.758,-2.695 12.8,-4.042l9.432,9.432c-6.063,2.021 -12.126,4.716 -17.516,6.737c-0.674,0.674 -2.021,0.674 -2.695,1.347l-10.105,-10.105c2.695,-1.347 5.389,-2.695 8.084,-3.368zM236.8,619.789c6.063,-2.695 12.8,-4.716 18.863,-7.411l8.758,8.758c-7.411,3.368 -15.495,6.737 -22.905,10.105c-0.674,0 -1.347,0.674 -2.021,0.674v-7.411l-4.042,-4.042c0,0 0.674,0 1.347,-0.674zM283.284,699.958c10.779,-8.758 21.558,-18.189 32.337,-26.948l8.084,8.085l-32.337,28.295c-17.516,14.821 -34.358,29.642 -51.874,44.463v-17.516c14.821,-12.126 28.968,-24.253 43.789,-36.379zM239.495,761.937c17.516,-16.842 35.705,-33.684 53.895,-50.526c10.779,-10.105 20.884,-19.537 31.663,-28.968l7.411,7.411c-10.105,10.105 -20.884,20.211 -30.989,30.316c-20.884,20.211 -41.095,39.747 -62.653,59.284v-17.516zM304.168,722.189c10.105,-10.105 20.211,-20.884 30.316,-30.989l7.411,7.411c-9.432,10.779 -19.537,21.558 -28.968,31.663c-16.842,18.189 -33.684,36.379 -50.526,53.895h-17.516c18.863,-20.211 39.074,-41.095 59.284,-61.979zM315.621,732.968l28.295,-32.337l8.084,8.084c-8.758,10.779 -18.189,21.558 -26.947,32.337c-12.126,14.821 -24.253,28.968 -37.053,43.789h-17.516c14.821,-17.516 29.642,-35.032 45.137,-51.874zM327.074,743.074c8.758,-10.779 17.516,-22.232 26.274,-33.011l8.084,8.084l-24.253,32.337c-8.758,11.453 -17.516,22.905 -25.6,34.358h-16.168c10.105,-14.147 20.884,-27.621 31.663,-41.768zM339.2,752.505c7.411,-10.779 15.495,-21.558 22.905,-32.337l8.084,8.084c-6.737,10.779 -14.147,20.884 -20.884,31.663c-5.389,8.758 -11.453,16.842 -17.516,25.6h-15.495c8.084,-11.453 15.495,-22.232 22.905,-33.011zM352,761.263c6.737,-10.779 13.474,-20.884 20.211,-31.663l8.084,8.084l-18.189,30.316c-3.368,6.063 -6.737,11.453 -10.779,17.516h-14.821c5.389,-8.758 10.779,-16.168 15.495,-24.253zM365.474,769.347c5.389,-10.105 11.453,-20.211 16.842,-30.316l8.758,8.758c-4.716,9.432 -9.432,18.189 -14.147,27.621c-2.021,3.368 -3.368,6.737 -5.389,10.105h-14.147c2.021,-6.063 4.716,-11.453 8.084,-16.168zM423.411,780.126l-4.042,12.126c-1.347,2.695 -2.021,6.063 -3.368,8.758l-10.105,-10.105c0.674,-1.347 0.674,-2.021 1.347,-3.368c2.021,-6.063 4.042,-11.453 6.737,-17.516zM422.063,793.6c1.347,-4.042 2.021,-7.411 3.368,-11.453l9.432,9.432c-0.674,1.347 -0.674,3.368 -1.347,4.716c-1.347,6.063 -3.368,11.453 -4.716,17.516l-10.105,-10.105c1.347,-2.695 2.695,-6.737 3.368,-10.105zM436.884,798.316c0,-1.347 0.674,-2.021 0.674,-3.368l10.779,10.105c-2.021,7.411 -3.368,15.495 -5.389,22.905l-10.779,-10.779c2.021,-6.063 3.368,-12.8 4.716,-18.863zM451.032,807.747l10.779,10.779l-4.042,24.253l-10.779,-10.779c0.674,-8.084 2.695,-16.168 4.042,-24.253zM465.179,821.895l11.453,11.453c-1.347,8.758 -2.021,16.842 -3.368,25.6l-11.453,-11.453c0.674,-8.758 2.021,-16.842 3.368,-25.6zM480.674,837.389l12.126,12.126l-2.021,26.274l-12.126,-12.126c0,-8.758 0.674,-17.516 2.021,-26.274zM496.842,853.558l12.8,12.8c0,9.432 -0.674,18.189 -0.674,27.621l-12.8,-12.8c0,-8.758 0.674,-18.189 0.674,-27.621zM515.032,866.358l12.8,-12.8c0,9.432 0.674,18.189 0.674,27.621l-12.8,12.8c0,-9.432 0,-18.189 -0.674,-27.621zM532.547,848.842l12.126,-12.126l2.021,26.274l-12.126,12.126zM548.716,833.347l11.453,-11.453c1.347,8.084 2.021,16.842 3.368,24.926l-11.453,11.453c-1.347,-8.084 -2.695,-16.842 -3.368,-24.926zM562.863,818.526l10.779,-10.779c1.347,8.084 3.368,16.168 4.716,23.579l-10.779,10.779c-2.021,-7.411 -3.368,-15.495 -4.716,-23.579zM576.337,805.053l10.105,-10.105c0,0.674 0.674,2.021 0.674,2.695c1.347,6.737 3.368,13.474 4.716,20.211l-10.779,10.779c-0.674,-8.084 -2.695,-16.168 -4.716,-23.579zM590.484,796.968c-0.674,-1.347 -0.674,-3.368 -1.347,-4.716l9.432,-9.432c1.347,3.368 2.021,7.411 3.368,10.779c1.347,3.368 2.021,7.411 3.368,10.779l-10.105,10.105c-1.347,-6.063 -2.695,-12.126 -4.716,-17.516zM605.305,792.253l-4.042,-12.126l9.432,-9.432c2.021,6.063 4.042,11.453 6.737,17.516c0.674,1.347 0.674,2.021 1.347,3.368l-9.432,9.432c-2.021,-2.695 -2.695,-5.389 -4.042,-8.758zM647.747,774.737c-4.716,-8.758 -9.432,-18.189 -14.147,-26.947l8.084,-8.084c5.389,10.105 11.453,19.537 16.842,29.642c2.695,5.389 6.063,10.779 8.758,15.495h-14.147c-1.347,-3.368 -3.368,-6.737 -5.389,-10.105zM661.221,767.326c-6.063,-10.105 -11.453,-20.211 -17.516,-29.642l8.084,-8.084c6.737,10.779 13.474,20.884 20.211,31.663c4.716,8.084 10.105,16.168 14.821,23.579h-14.821c-3.368,-6.063 -6.737,-11.453 -10.779,-17.516zM674.695,759.242c-6.737,-10.779 -14.147,-20.884 -20.884,-31.663l8.084,-8.084c7.411,10.779 15.495,21.558 22.905,32.337c7.41,10.779 14.821,21.558 22.905,32.337h-15.495c-6.063,-8.084 -11.453,-16.168 -17.516,-24.926zM687.495,750.484l-24.253,-32.337l7.411,-7.411c8.758,10.779 17.516,21.558 25.6,33.011c10.779,13.474 21.558,27.621 32.337,41.768h-16.168c-7.411,-12.126 -16.168,-23.579 -24.926,-35.032zM699.621,741.053c-8.758,-10.779 -18.189,-21.558 -26.947,-32.337l8.084,-8.084l28.295,32.337c14.821,17.516 29.642,34.358 44.463,51.874h-17.516c-12.126,-14.821 -24.253,-28.968 -36.379,-43.789zM711.747,730.947c-9.432,-10.779 -19.537,-20.884 -28.968,-31.663l8.084,-8.084c10.105,10.105 20.211,20.884 30.316,30.989c20.211,20.884 39.747,41.768 59.958,62.653h-18.189c-17.516,-18.189 -34.358,-35.705 -51.2,-53.895zM722.526,720.168c-10.105,-10.105 -20.211,-20.211 -30.989,-30.316l8.084,-8.084c10.779,9.432 20.884,19.537 31.663,28.968c18.189,16.842 36.379,33.684 53.895,50.526v18.189c-20.884,-19.537 -41.768,-39.747 -62.653,-59.284zM733.305,708.716l-32.337,-28.295l8.084,-8.085c10.779,8.759 21.558,17.516 32.337,26.948c14.821,12.126 28.968,24.253 43.789,37.053v16.842c-17.516,-14.821 -34.358,-29.642 -51.874,-44.463zM743.411,696.589c-10.779,-8.758 -21.558,-17.516 -32.337,-25.601l7.411,-7.411c10.779,8.084 21.558,16.169 32.337,24.253l34.358,26.274v16.168c-14.147,-12.126 -27.621,-22.905 -41.768,-33.684zM785.179,625.178v6.737c-0.674,0 -1.347,-0.674 -2.021,-0.674c-7.411,-3.368 -15.495,-6.737 -22.905,-10.105l8.758,-8.758c6.063,2.695 12.126,4.716 18.189,7.411c0.674,0 1.347,0.674 2.021,0.674zM788.547,616.42c-6.063,-2.021 -11.453,-4.042 -17.516,-6.737l9.432,-9.432l12.126,4.042c2.695,1.347 6.063,2.021 8.758,3.368l-9.432,9.432c-0.674,0.674 -2.021,0 -3.368,-0.674zM632.253,239.157c0,0.674 -0.674,1.347 -0.674,2.021c-3.368,7.411 -6.737,14.821 -9.432,22.232l-8.758,-8.758c2.695,-6.063 4.716,-12.126 7.411,-18.189c0,-0.674 0.674,-1.347 0.674,-2.021l4.716,4.716zM403.874,234.441c0,0.674 0.674,1.347 0.674,2.021c2.695,6.063 4.716,12.126 7.411,18.863l-8.758,8.758c-3.368,-7.411 -6.737,-15.495 -10.105,-22.905c0,-0.674 -0.674,-1.347 -0.674,-2.021h7.411zM392.421,784.842c0,-0.674 0.674,-1.347 0.674,-2.021c3.368,-7.411 6.737,-15.495 10.105,-22.905l8.758,8.758c-2.695,6.063 -4.716,12.126 -7.411,18.863c0,0.674 -0.674,1.347 -0.674,2.021l-4.716,-4.716zM620.8,789.558c0,-0.674 -0.674,-1.347 -0.674,-2.021c-2.695,-6.063 -4.716,-12.126 -7.411,-18.189l8.758,-8.758c3.368,7.411 6.737,14.821 10.105,22.905c0,0.674 0.674,1.347 0.674,2.021h-6.737z" /> <path d="M152.196,481.633c3.253,0 6.098,1.62 8.944,4.454c2.846,3.239 4.879,6.478 6.099,10.122c2.033,4.454 3.253,9.313 4.472,14.981c-1.219,6.073 -2.846,11.337 -4.472,15.791c-1.22,3.644 -3.253,7.288 -6.099,10.122c-2.846,3.239 -5.691,4.454 -8.944,4.454c-5.692,0 -10.977,-1.62 -15.856,-4.454c-4.879,-3.239 -9.351,-6.478 -13.01,-10.122c-4.472,-4.454 -8.131,-9.718 -11.383,-15.791c3.253,-5.668 6.911,-10.527 11.383,-14.981c3.659,-3.644 8.131,-7.288 13.01,-10.122c4.879,-2.834 10.164,-4.454 15.856,-4.454zM235.134,529.411c-6.911,0.81 -12.603,2.024 -17.889,4.454c-4.878,2.429 -9.351,6.478 -12.603,12.147c-3.252,5.669 -5.285,13.766 -5.285,24.294c-6.098,-3.24 -11.384,-6.074 -15.856,-8.503c-4.472,-2.429 -8.131,-5.263 -11.383,-8.503c-3.253,-3.239 -4.473,-6.883 -4.473,-11.337c2.439,0 4.879,-0.81 7.318,-2.834c2.033,-1.215 3.659,-3.644 5.285,-6.883c1.626,-3.239 2.846,-8.503 4.066,-15.386v-10.122c-1.219,-6.883 -2.846,-11.742 -4.066,-15.386c-1.626,-3.239 -3.253,-5.668 -5.285,-6.883c-2.439,-2.024 -4.879,-2.834 -7.318,-2.834c0,-3.644 1.626,-7.288 4.473,-10.528c3.252,-3.239 6.911,-6.478 11.383,-8.907c4.472,-2.429 9.758,-5.263 15.856,-8.503c0,10.527 1.626,18.625 5.285,24.294c3.253,5.668 7.725,9.717 12.603,12.147c4.878,2.43 10.978,4.049 17.889,4.454c17.888,-1.215 33.744,-2.429 47.161,-3.644c13.417,-1.215 24.8,-2.429 34.151,-3.644c-2.033,2.024 -3.659,4.049 -5.692,6.478c-3.253,4.454 -5.692,10.123 -7.318,16.601c-1.219,1.215 -1.219,2.024 0,2.834c2.033,8.098 4.473,13.767 7.318,17.816c2.033,2.429 3.659,4.454 5.692,5.668c-9.351,-1.215 -20.735,-2.429 -34.151,-3.644c-13.416,-1.215 -29.272,-2.429 -47.161,-3.644zM794.557,555.324c9.351,1.215 15.043,4.859 17.893,10.527c2.439,6.074 3.247,13.767 2.843,23.889c-1.219,9.313 -3.254,16.601 -5.693,22.269c-2.439,5.668 -5.282,10.123 -8.536,12.957c-3.254,3.644 -6.912,6.073 -11.385,7.288c-1.219,-13.766 -3.254,-23.889 -6.501,-30.772c-3.254,-6.883 -6.104,-11.742 -9.351,-14.981c-3.254,-3.239 -6.508,-4.049 -10.166,-2.834c-3.658,1.215 -6.912,3.239 -9.351,6.478c-5.693,9.313 -14.228,20.245 -25.613,32.392c-11.385,12.551 -28.463,20.65 -50.823,25.103c-8.536,2.024 -17.48,2.834 -26.018,2.834c0,9.312 -0.812,17.816 -2.846,25.911c-4.472,22.272 -12.603,39.276 -25.207,50.614c-12.604,11.338 -23.174,19.84 -32.525,25.506c-3.253,2.432 -5.285,5.672 -6.505,9.317c-1.22,3.645 -0.406,7.289 2.846,10.119c3.253,3.24 8.131,6.077 15.043,9.317c6.911,3.234 17.075,5.261 30.899,6.474c-1.22,4.453 -3.659,8.098 -7.318,11.338c-3.253,3.24 -7.724,6.077 -13.416,8.906c-6.099,2.836 -13.416,4.453 -21.954,5.268c-10.164,0.808 -17.889,-0.404 -23.987,-2.836c-6.098,-2.432 -9.351,-8.502 -10.571,-17.819c-2.439,-4.857 -3.659,-11.331 -3.659,-19.429c0,-8.098 0.813,-16.606 2.033,-25.108c1.22,-9.715 2.846,-20.244 4.473,-30.767c11.383,-11.338 19.515,-21.868 25.207,-31.582c4.879,-8.502 7.318,-17.413 6.505,-25.916c-0.813,-8.503 -7.318,-15.386 -20.735,-20.65c-2.439,0.81 -4.473,1.62 -6.505,2.835c-2.032,1.215 -3.253,2.429 -4.472,3.239c-1.22,0.81 -2.439,1.62 -3.659,2.429c-4.472,0.81 -8.538,1.215 -13.01,2.024c-3.659,0.81 -8.131,1.215 -13.01,1.215c-4.879,0.405 -10.164,0.405 -15.856,0.405c-6.098,0 -11.79,0 -16.669,-0.405c-4.879,-0.405 -9.351,-0.81 -13.01,-1.215c-4.472,-0.81 -8.538,-1.215 -13.01,-2.024c-2.439,-1.215 -5.691,-3.239 -9.351,-5.668l-5.692,-2.835c-13.823,4.859 -20.734,11.742 -21.141,20.65c-0.406,8.503 2.033,17.414 6.911,25.916c5.692,10.119 13.823,20.648 25.207,31.582c2.033,10.523 3.252,20.648 4.472,30.767c1.219,8.502 1.626,17.011 1.219,25.108c-0.407,8.097 -1.219,14.572 -3.253,19.429c-1.219,9.317 -4.472,14.983 -10.164,17.819c-5.692,2.432 -13.823,3.24 -24.393,2.836c-9.351,-0.815 -16.669,-2.432 -22.361,-5.268c-5.691,-2.829 -10.164,-5.666 -13.01,-8.906c-3.659,-3.24 -6.098,-6.885 -7.318,-11.338c13.823,-1.213 23.987,-3.24 30.899,-6.474c6.911,-3.24 11.79,-6.077 15.043,-9.317c3.253,-3.24 4.066,-6.474 2.846,-10.119c-1.219,-3.645 -3.252,-6.885 -6.504,-9.317c-9.351,-5.666 -20.328,-14.168 -32.525,-25.506c-12.603,-11.338 -20.735,-28.342 -25.207,-50.614c-2.033,-8.096 -2.846,-16.599 -2.846,-25.911c-9.351,0 -17.888,-0.81 -26.02,-2.834c-22.36,-4.454 -39.436,-12.552 -50.819,-25.103c-11.383,-12.551 -19.922,-23.079 -25.613,-32.392c-2.033,-3.239 -4.879,-5.263 -8.945,-6.478c-4.066,-1.215 -7.724,-0.405 -10.57,2.834c-3.253,3.239 -6.099,8.098 -9.351,14.981c-3.252,6.883 -5.286,17.006 -6.505,30.772c-4.473,-1.215 -8.131,-3.644 -11.384,-7.288c-3.253,-3.239 -6.098,-7.288 -8.945,-12.957c-2.847,-5.669 -4.472,-12.956 -5.285,-22.269c-0.813,-9.717 0.407,-17.815 2.846,-23.889c2.439,-6.074 8.538,-9.312 17.888,-10.527c4.879,-2.024 11.384,-2.834 19.515,-3.239c8.131,-0.405 16.669,0 25.207,1.215c9.758,1.215 20.328,2.834 30.899,4.454c11.384,11.337 21.954,19.435 31.712,25.103c8.538,4.859 17.482,7.288 26.02,6.883c8.538,-0.405 15.45,-7.288 20.735,-21.055l-2.846,-5.668c-2.439,-3.644 -4.473,-6.883 -5.692,-9.312c-0.813,-4.454 -1.22,-8.503 -2.033,-12.957c-0.813,-3.644 -0.813,-8.098 -0.813,-12.956v-32.392c0,-4.859 0.407,-9.312 0.813,-12.956c0.813,-4.454 1.22,-8.503 2.033,-12.957c0.813,-1.215 1.219,-2.429 2.439,-3.644c0.813,-1.215 2.033,-2.834 3.253,-4.454c1.219,-2.024 2.033,-4.049 2.846,-6.478c-4.879,-12.957 -11.79,-19.84 -20.735,-20.65c-8.538,-0.81 -17.482,1.62 -26.02,6.478c-10.164,5.668 -20.735,13.767 -31.712,25.103c-10.57,2.024 -20.735,3.239 -30.899,4.454c-8.538,1.215 -17.075,2.024 -25.207,2.024c-8.132,0 -14.636,-1.215 -19.515,-3.644c-9.351,-1.215 -15.45,-4.859 -17.888,-10.527c-2.439,-6.073 -3.253,-13.767 -2.846,-23.889c0.813,-8.503 2.439,-15.791 5.285,-21.864c2.846,-6.073 5.692,-10.528 8.945,-13.362c3.253,-3.644 6.911,-6.073 11.384,-7.288c1.219,13.767 3.253,23.889 6.505,30.772c3.252,6.883 6.098,11.742 9.351,14.981c3.253,3.239 6.504,4.049 10.57,2.834c4.066,-1.215 6.912,-3.239 8.945,-6.478c5.692,-9.313 14.23,-20.245 25.613,-32.392c11.383,-12.551 28.459,-20.649 50.819,-25.103c8.131,-2.024 16.669,-2.834 26.02,-2.834c0,-8.503 0.813,-17.411 2.846,-25.913c4.472,-22.269 12.603,-39.275 25.207,-50.612c12.604,-11.337 23.174,-19.84 32.525,-25.508c3.253,-2.429 5.285,-5.668 6.504,-9.312c1.219,-3.644 0.407,-7.289 -2.846,-10.123c-3.253,-3.239 -8.131,-6.073 -15.043,-9.312c-6.912,-3.239 -17.075,-5.264 -30.899,-6.479c1.22,-4.454 3.659,-8.098 7.318,-11.337c3.253,-3.239 7.318,-6.073 13.01,-8.503c5.692,-2.43 13.01,-4.454 22.361,-5.669c10.571,-0.81 18.701,0.405 24.393,2.834c5.692,2.429 8.945,8.503 10.164,17.816c2.033,4.859 2.846,11.337 3.253,19.435c0.407,8.098 0,16.601 -1.219,25.103c-1.22,10.123 -2.846,20.245 -4.472,30.772c-11.384,11.337 -19.515,21.864 -25.207,31.582c-4.878,8.503 -7.318,17.41 -6.911,25.913c0.407,8.503 7.318,15.386 21.141,20.65l5.692,-2.834c1.22,-1.215 2.846,-2.024 4.473,-2.834c2.033,-0.81 3.252,-1.62 4.472,-2.835c4.472,-0.81 8.538,-1.215 13.01,-2.024c3.659,-0.81 8.131,-1.215 13.01,-1.215c4.879,-0.405 10.571,-0.405 16.669,-0.405c5.692,0 10.977,0 15.856,0.405c4.879,0.405 9.351,0.81 13.01,1.215c4.473,0.81 8.538,1.215 13.01,2.024c2.033,2.024 4.472,3.645 8.538,5.669c2.033,1.215 4.066,2.024 6.505,2.834c13.01,-4.859 19.922,-11.742 20.735,-20.65c0.813,-8.503 -1.626,-17.411 -6.505,-25.913c-5.692,-9.718 -13.823,-20.65 -25.207,-31.582c-2.033,-10.527 -3.253,-20.649 -4.473,-30.772c-1.219,-8.503 -2.033,-17.006 -2.033,-25.103c0,-8.097 1.219,-14.577 3.659,-19.435c1.22,-9.312 4.879,-14.981 10.571,-17.816c6.098,-2.429 13.823,-3.239 23.987,-2.834c8.538,1.215 15.855,3.24 21.954,5.669c6.099,2.429 10.57,5.263 13.416,8.503c3.659,3.239 6.098,6.883 7.318,11.337c-13.823,1.215 -23.987,3.24 -30.899,6.479c-6.912,3.239 -11.79,6.073 -15.043,9.312c-3.253,3.239 -4.066,6.478 -2.846,10.123c1.22,3.645 3.253,6.883 6.505,9.312c9.351,5.668 20.328,14.172 32.525,25.508c12.603,11.337 20.735,28.343 25.207,50.612c2.033,8.503 2.846,17.411 2.846,25.913c8.538,0 17.482,0.81 26.018,2.834c22.36,4.454 39.437,12.552 50.823,25.103c11.386,12.551 19.921,23.079 25.613,32.392c2.439,3.239 5.693,5.263 9.351,6.478c3.658,1.215 7.316,0.405 10.166,-2.834c3.247,-3.239 6.097,-8.098 9.351,-14.981c3.247,-6.883 5.282,-17.005 6.501,-30.772c4.473,1.215 8.131,3.644 11.385,7.288c3.254,3.239 6.097,7.693 8.536,13.362c2.439,6.073 4.473,13.361 5.693,21.864c0.815,10.122 -0.404,17.816 -2.843,23.889c-2.439,6.073 -8.542,9.312 -17.893,10.527c-4.877,2.429 -11.379,3.644 -19.51,3.644c-8.131,0 -16.674,-0.81 -25.209,-2.024c-10.166,-1.215 -20.325,-2.834 -30.902,-4.454c-11.379,-11.337 -21.949,-19.435 -31.71,-25.103c-8.536,-4.859 -17.48,-7.288 -26.018,-6.478c-8.538,0.81 -15.45,7.288 -20.735,20.65c0.813,2.429 1.626,4.454 2.846,6.478c2.033,3.644 3.659,6.478 5.692,8.503c0.813,4.454 1.22,8.503 2.033,12.957c0.812,3.644 1.219,8.098 1.219,12.956c0.406,4.859 0.406,10.123 0.406,15.791c0,6.073 0,11.742 -0.406,16.601c-0.406,4.859 -0.813,9.312 -1.219,12.956c-0.813,4.454 -1.22,8.503 -2.033,12.957c-1.219,1.215 -2.033,2.834 -2.846,4.454c-0.813,2.024 -1.626,3.239 -2.846,4.454l-2.846,5.668c4.879,13.767 11.79,20.65 20.735,21.055c8.538,0.405 17.482,-2.024 26.018,-6.883c9.762,-5.668 20.736,-13.767 31.71,-25.103c10.577,-2.024 20.736,-3.239 30.902,-4.454c8.536,-1.215 17.078,-1.62 25.209,-1.215c7.72,0.405 14.228,1.215 19.51,3.239zM582.335,582.047c10.571,-6.883 19.108,-14.172 25.207,-21.864c6.099,-7.692 10.977,-15.386 13.823,-22.674c3.253,-8.098 4.879,-16.601 5.692,-25.913c-0.813,-8.503 -2.439,-17.006 -5.692,-25.103c-3.253,-6.883 -7.724,-14.172 -13.823,-22.269c-6.099,-8.097 -14.636,-15.386 -25.207,-22.269c-6.911,-10.527 -14.23,-19.03 -22.36,-25.103c-8.13,-6.073 -15.45,-10.932 -22.361,-13.767c-8.131,-3.239 -16.669,-4.859 -25.207,-5.668c-9.351,0.81 -17.888,2.429 -26.02,5.668c-7.318,3.24 -15.043,7.693 -22.767,13.767c-7.724,6.074 -15.043,14.577 -21.955,25.103c-11.383,6.883 -19.921,14.172 -25.613,22.269c-6.098,8.098 -10.571,15.386 -13.416,22.269c-3.253,8.098 -4.879,16.601 -5.692,25.103c0.813,9.312 2.439,17.816 5.692,25.913c3.253,7.288 7.724,14.981 13.416,22.674c6.098,7.693 14.636,14.981 25.613,21.864c6.912,11.337 14.23,19.84 21.955,25.508c7.724,6.073 15.449,10.528 22.767,13.362c8.131,3.239 16.669,4.859 26.02,5.668c8.538,-0.81 17.075,-2.429 25.207,-5.668c6.911,-3.239 14.23,-7.693 22.361,-13.362c8.131,-5.669 15.449,-14.171 22.36,-25.508zM492.892,235.456c-0.813,-6.073 -2.033,-11.742 -4.473,-16.6c-2.439,-4.454 -6.505,-8.503 -12.196,-12.147c-5.691,-3.644 -13.823,-5.668 -24.393,-5.668c2.439,-5.668 5.285,-10.933 8.538,-15.791c3.253,-3.644 6.098,-7.288 9.351,-10.527c3.253,-3.239 6.505,-5.263 10.164,-5.263c0,2.429 0.813,4.859 2.846,7.288c1.22,2.024 3.659,3.644 6.912,5.668c3.253,2.024 8.538,3.239 15.449,3.644h13.823c6.911,-0.81 11.79,-2.024 15.449,-3.644c3.253,-2.024 5.692,-3.644 6.911,-5.668c2.033,-2.429 2.846,-4.859 2.846,-7.288c3.253,0 6.505,1.62 9.757,5.263c3.253,3.239 6.505,6.883 9.758,10.527c3.253,4.859 6.098,10.123 8.538,15.791c-10.57,0 -18.701,2.024 -24.393,5.668c-5.692,3.644 -9.758,7.693 -12.196,12.147c-2.439,4.859 -4.066,10.527 -4.473,16.6c1.22,17.816 2.439,33.607 3.659,47.373c1.22,13.766 2.439,25.103 3.659,34.417c-2.033,-1.215 -4.066,-2.834 -6.505,-4.454c-2.033,-1.215 -4.066,-2.429 -6.911,-4.05c-2.845,-1.621 -6.098,-2.834 -9.758,-4.049c-2.439,-2.024 -4.472,-2.024 -6.504,0c-6.912,2.024 -12.604,4.454 -17.889,8.503c-2.439,2.024 -4.472,3.239 -5.692,4.454c1.22,-9.313 2.439,-20.65 4.066,-34.417c2.033,-14.171 2.846,-29.962 3.659,-47.778zM531.108,788.541c0.813,6.885 2.033,12.557 4.473,17.819c2.439,4.453 6.504,8.098 12.196,11.742c5.692,3.24 13.823,5.261 24.393,5.261c-2.439,6.077 -5.285,11.338 -8.538,15.791c-3.253,4.453 -6.505,8.098 -9.758,11.338c-3.252,3.24 -6.504,4.453 -9.757,4.453c0,-2.425 -0.813,-4.857 -2.846,-7.289c-1.219,-2.021 -3.659,-3.645 -6.911,-5.261c-3.252,-1.616 -8.538,-2.836 -15.449,-4.049h-13.823c-6.911,1.213 -11.79,2.432 -15.449,4.049c-3.253,1.617 -5.692,3.24 -6.912,5.261c-2.033,2.432 -2.846,4.864 -2.846,7.289c-3.659,0 -7.318,-1.617 -10.164,-4.453c-3.253,-3.24 -6.098,-6.885 -9.351,-11.338c-3.253,-4.453 -6.099,-9.715 -8.538,-15.791c10.57,0 18.701,-1.617 24.393,-5.261c5.691,-3.24 9.757,-7.289 12.196,-11.742c2.439,-4.857 4.066,-10.934 4.473,-17.819c-0.813,-17.812 -1.626,-33.603 -3.253,-47.367c-1.626,-13.77 -2.846,-25.108 -4.066,-34.419c1.219,2.021 3.253,3.645 5.692,5.666c3.659,3.24 9.757,5.672 17.888,7.289c2.033,2.432 4.066,2.432 6.505,0c6.911,-2.021 12.603,-4.453 16.669,-7.289c2.439,-2.021 4.472,-3.645 6.504,-5.666c-1.219,9.31 -2.439,20.648 -3.659,34.419c-1.626,13.763 -2.846,29.555 -4.066,47.367zM512.407,173.102c-6.098,-1.215 -11.384,-2.834 -15.856,-4.454c-3.659,-1.215 -7.318,-3.24 -10.164,-5.669c-3.253,-2.429 -4.473,-5.668 -4.473,-9.312c0,-5.668 1.626,-10.528 4.473,-15.386c3.253,-4.454 6.505,-8.907 10.164,-12.551c4.472,-4.454 9.758,-8.503 15.856,-12.147c5.692,3.644 10.571,7.693 15.043,12.147c3.659,3.644 7.318,8.098 10.164,12.551c3.253,4.454 4.472,9.718 4.472,15.386c0,3.644 -1.626,6.883 -4.472,9.312c-3.253,2.429 -6.505,4.454 -10.164,5.669c-4.472,1.62 -9.351,3.239 -15.043,4.454zM512.407,850.897c5.692,1.213 10.571,2.836 15.043,4.453c3.659,1.219 7.318,3.24 10.164,6.077c3.253,2.829 4.472,5.666 4.472,8.906c0,5.666 -1.626,10.934 -4.472,15.791c-3.253,4.857 -6.505,9.31 -10.164,12.955c-4.472,4.453 -9.351,8.098 -15.043,11.338c-6.098,-3.24 -11.384,-6.885 -15.856,-11.338c-3.659,-3.645 -7.318,-8.098 -10.164,-12.955c-3.253,-4.857 -4.473,-10.125 -4.473,-15.791c0,-3.24 1.626,-6.077 4.473,-8.906c3.253,-2.836 6.505,-4.857 10.164,-6.077c4.472,-1.617 9.758,-3.24 15.856,-4.453zM839.283,518.883c0.808,6.884 2.028,11.742 3.658,15.386c2.035,3.239 3.658,5.668 5.693,6.883c2.439,2.024 4.877,2.834 7.316,2.834c0,3.645 -1.624,7.289 -5.288,10.123c-3.247,3.239 -6.912,6.073 -10.57,9.312c-4.473,3.239 -9.351,6.074 -15.043,8.503c0,-10.528 -2.028,-18.625 -5.686,-24.294c-3.665,-5.669 -7.727,-9.718 -12.2,-12.147c-5.693,-2.429 -11.385,-4.049 -17.886,-4.454c-17.893,1.215 -33.745,2.429 -47.569,3.644c-13.824,1.215 -25.209,2.429 -34.56,3.644c1.219,-1.215 2.85,-3.239 4.473,-5.668c3.658,-4.859 6.508,-10.932 8.542,-17.816c2.028,-2.024 2.028,-4.049 0,-6.478c-1.226,-3.644 -2.85,-6.883 -4.069,-9.717c-1.624,-2.835 -2.843,-5.264 -4.062,-6.884c-2.035,-2.429 -3.254,-4.454 -4.473,-6.478c9.351,1.215 20.729,2.429 34.553,3.644c13.824,1.215 29.683,2.429 47.569,3.644c6.097,-0.81 12.2,-2.024 17.886,-4.454c4.473,-2.429 8.542,-6.478 12.2,-12.147c3.658,-5.669 5.693,-13.767 5.693,-24.294c5.693,2.429 10.57,5.263 15.043,8.503c3.658,3.239 7.316,6.478 10.57,9.717c3.254,3.239 5.282,6.479 5.282,9.718c-2.439,0 -4.877,0.81 -7.316,2.834c-2.035,1.215 -3.658,3.644 -5.693,6.883c-2.035,3.239 -3.254,8.503 -3.658,15.386v14.171zM871.808,481.633c5.686,0 10.57,1.62 15.448,4.454c4.473,3.239 8.94,6.478 12.605,10.122c4.467,4.454 8.536,9.313 12.194,14.981c-3.658,6.073 -7.727,11.337 -12.194,15.791c-3.665,3.644 -8.131,7.288 -12.605,10.122c-4.473,3.239 -9.762,4.454 -15.448,4.454c-3.665,0 -6.912,-1.62 -9.351,-4.454c-2.445,-3.239 -4.473,-6.478 -5.693,-10.122c-2.035,-4.454 -3.254,-9.718 -4.473,-15.791c1.219,-5.668 2.843,-10.527 4.473,-14.981c1.219,-3.644 3.247,-7.288 5.693,-10.122c2.439,-2.834 5.686,-4.454 9.351,-4.454z" /></svg>