<?xml version="1.0" encoding="UTF-8" standalone="no"?>
<svg
   width="1024"
   height="1024"
   viewBox="0 0 1024 1024"
   fill="none"
   version="1.1"
   id="svg6"
   sodipodi:docname="token_moon_outline.svg"
   inkscape:version="1.1.2 (0a00cf5339, 2022-02-04)"
   xmlns:inkscape="http://www.inkscape.org/namespaces/inkscape"
   xmlns:sodipodi="http://sodipodi.sourceforge.net/DTD/sodipodi-0.dtd"
   xmlns="http://www.w3.org/2000/svg"
   xmlns:svg="http://www.w3.org/2000/svg">
  <defs
     id="defs10" />
  <sodipodi:namedview
     id="namedview8"
     pagecolor="#ffffff"
     bordercolor="#666666"
     borderopacity="1.0"
     inkscape:pageshadow="2"
     inkscape:pageopacity="0.0"
     inkscape:pagecheckerboard="0"
     showgrid="false"
     inkscape:zoom="0.76367188"
     inkscape:cx="511.34527"
     inkscape:cy="511.34527"
     inkscape:window-width="1920"
     inkscape:window-height="1016"
     inkscape:window-x="0"
     inkscape:window-y="0"
     inkscape:window-maximized="1"
     inkscape:current-layer="svg6" />
  <path
     d="M509.642 866.358C509.642 875.79 508.968 884.547 508.968 893.979L496.168 881.179C496.168 872.421 496.842 862.99 496.842 853.558L509.642 866.358ZM527.832 853.558C527.832 862.99 528.506 871.747 528.506 881.179L515.706 893.979C515.706 884.547 515.706 875.79 515.032 866.358L527.832 853.558ZM492.8 849.515C492.126 858.273 491.453 867.031 490.779 875.789L478.653 863.663C478.653 854.905 479.327 846.147 480.674 837.389L492.8 849.515ZM546.694 862.99L534.568 875.116C533.894 866.358 533.221 857.6 532.547 848.842L544.673 836.716C545.347 845.474 546.02 854.232 546.694 862.99ZM476.632 833.348C475.285 842.106 474.611 850.19 473.264 858.948L461.811 847.495C462.485 838.737 463.832 830.653 465.179 821.895L476.632 833.348ZM560.169 821.894C561.516 829.978 562.19 838.736 563.537 846.82L552.084 858.273C550.737 850.189 549.389 841.431 548.716 833.347L560.169 821.894ZM461.811 818.526C460.464 826.61 459.116 834.694 457.769 842.779L446.99 832C447.664 823.916 449.685 815.832 451.032 807.747L461.811 818.526ZM573.642 807.747C574.989 815.83 577.01 823.915 578.358 831.326L567.579 842.105C565.558 834.694 564.211 826.61 562.863 818.526L573.642 807.747ZM586.442 794.948C586.442 795.622 587.116 796.969 587.116 797.643C588.463 804.38 590.484 811.117 591.832 817.854L581.053 828.633C580.379 820.549 578.358 812.465 576.337 805.054V805.053L586.442 794.948ZM448.337 805.053C446.316 812.464 444.969 820.549 442.948 827.958L432.169 817.179C434.19 811.116 435.536 804.379 436.884 798.316C436.884 796.969 437.558 796.295 437.558 794.948L448.337 805.053ZM599.745 786.387C600.44 788.825 601.042 791.361 601.937 793.599C603.284 796.967 603.958 801.01 605.305 804.378L595.2 814.483C593.853 808.42 592.505 802.357 590.484 796.967V796.968C589.81 795.621 589.81 793.6 589.137 792.252L592.911 788.478C595.201 787.809 597.479 787.111 599.745 786.387ZM424.163 786.358C426.771 787.192 429.396 787.991 432.037 788.752L434.863 791.579C434.189 792.926 434.189 794.947 433.516 796.295C432.169 802.358 430.148 807.748 428.8 813.811L418.695 803.706C420.042 801.011 421.39 796.969 422.063 793.601V793.6C422.92 791.029 423.504 788.731 424.163 786.358ZM614.499 781.225C615.399 783.504 616.362 785.805 617.432 788.211C618.106 789.558 618.106 790.232 618.779 791.579L609.347 801.011C607.326 798.316 606.652 795.622 605.305 792.253C604.536 789.945 603.766 787.636 602.997 785.328C606.868 784.039 610.703 782.671 614.499 781.225ZM409.452 781.207C413.462 782.735 417.515 784.177 421.609 785.529C420.862 787.77 420.115 790.011 419.369 792.252C418.022 794.947 417.348 798.315 416.001 801.01L405.896 790.905C406.57 789.558 406.57 788.884 407.243 787.537C407.968 785.36 408.695 783.272 409.452 781.207ZM396.222 775.781C399.876 777.387 403.57 778.92 407.301 780.376C406.429 782.695 405.534 785.071 404.547 787.537C404.547 788.211 403.873 788.884 403.873 789.558L399.157 784.842H392.421C392.421 784.168 393.095 783.495 393.095 782.821C394.138 780.526 395.179 778.165 396.222 775.781ZM628.201 775.594C629.326 778.169 630.452 780.794 631.578 783.495C631.578 784.169 632.252 784.842 632.252 785.516H625.515L620.8 789.558C620.8 788.884 620.126 788.211 620.126 787.537C619.041 785.096 618.065 782.655 617.111 780.214C620.846 778.749 624.543 777.209 628.201 775.594ZM356.364 754.365C359.708 756.517 363.099 758.601 366.536 760.617C365.059 763.078 363.582 765.539 362.106 768C358.738 774.063 355.368 779.453 351.327 785.516H336.506C341.895 776.758 347.285 769.348 352.001 761.263H352C353.455 758.937 354.91 756.642 356.364 754.365ZM343.854 745.844C347.155 748.222 350.508 750.531 353.912 752.77C352.353 755.128 350.812 757.504 349.305 759.915C343.916 768.672 337.852 776.757 331.789 785.515H316.294C324.378 774.062 331.789 763.283 339.199 752.504L339.2 752.505C340.726 750.285 342.282 748.065 343.854 745.844ZM369.354 762.248C373.03 764.347 376.757 766.369 380.532 768.309C379.33 770.647 378.129 773.006 376.927 775.41C374.906 778.778 373.559 782.147 371.538 785.515H357.391C359.412 779.452 362.107 774.062 365.475 769.347H365.474C366.736 766.981 368.035 764.614 369.354 762.248ZM691.521 737.214C693.12 739.37 694.7 741.545 696.253 743.747C707.032 757.221 717.811 771.368 728.59 785.515H712.422C705.011 773.389 696.254 761.936 687.496 750.483L687.495 750.484C685.879 748.329 684.263 746.175 682.647 744.021C685.65 741.809 688.608 739.539 691.521 737.214ZM654.604 762.271C655.937 764.604 657.251 766.957 658.526 769.348C661.221 774.737 664.589 780.127 667.284 784.843H653.137C651.79 781.475 649.769 778.106 647.748 774.738L647.747 774.737C646.55 772.512 645.352 770.244 644.154 767.955C647.68 766.13 651.164 764.235 654.604 762.271ZM709.053 732.969C723.874 750.485 738.695 767.327 753.516 784.843H736C723.874 770.022 711.747 755.875 699.621 741.054V741.053C697.931 738.974 696.217 736.894 694.487 734.815C697.627 732.24 700.712 729.6 703.74 726.897C705.511 728.921 707.282 730.945 709.053 732.969ZM332.054 736.875C335.243 739.431 338.488 741.919 341.787 744.339C340.25 746.387 338.715 748.436 337.179 750.484C328.421 761.937 319.663 773.389 311.579 784.842H295.411C305.516 770.695 316.295 757.221 327.074 743.074C328.735 741.029 330.393 738.959 332.054 736.875ZM382.441 769.283C386.076 771.117 389.755 772.876 393.477 774.559C392.417 776.829 391.379 779.123 390.4 781.474C389.726 782.821 389.053 783.495 388.379 784.842H374.905C376.252 782.147 377.6 779.453 378.947 776.084C380.148 773.854 381.305 771.578 382.441 769.283ZM642.209 768.952C643.353 771.292 644.518 773.666 645.727 776.084C647.074 778.779 648.422 781.473 649.769 784.842H636.295C634.948 783.495 634.948 782.821 634.274 781.474C633.258 779.036 632.18 776.658 631.079 774.305C634.833 772.598 638.544 770.813 642.209 768.952ZM667.636 754.365C669.09 756.642 670.546 758.937 672 761.263C676.716 769.347 682.105 777.431 686.821 784.842H672C668.632 778.779 665.263 773.389 661.221 767.326C659.894 765.114 658.601 762.902 657.325 760.698C660.809 758.657 664.247 756.546 667.636 754.365ZM715.176 716.113C717.178 718.157 719.177 720.187 721.179 722.189C741.39 743.073 760.926 763.957 781.137 784.842H762.948C745.432 766.653 728.589 749.137 711.747 730.947C709.908 728.845 708.043 726.769 706.163 724.708C709.229 721.908 712.234 719.042 715.176 716.113ZM320.637 727.234C323.672 729.934 326.765 732.571 329.913 735.143C328.276 737.113 326.653 739.083 325.053 741.052C312.927 755.873 300.8 770.02 288 784.841H270.484C285.305 767.325 300.126 749.809 315.621 732.967V732.968C317.293 731.057 318.965 729.145 320.637 727.234ZM309.504 716.791C312.277 719.534 315.107 722.22 317.989 724.848C316.285 726.675 314.596 728.486 312.927 730.274C296.085 748.463 279.243 766.653 262.401 784.169H244.885C263.748 763.958 283.959 743.074 304.169 722.19L304.168 722.189C305.948 720.409 307.725 718.606 309.504 716.791ZM680.461 745.616C681.926 747.688 683.376 749.759 684.8 751.832C692.21 762.611 699.621 773.39 707.705 784.169H692.21C686.147 776.085 680.757 768.001 674.694 759.243L674.695 759.242C673.288 756.991 671.85 754.77 670.397 752.566C673.803 750.319 677.159 748.002 680.461 745.616ZM299.155 706.014C301.783 708.896 304.47 711.725 307.212 714.499C305.283 716.39 303.366 718.279 301.475 720.17C280.591 740.381 260.38 759.917 238.822 779.454V761.938H239.496L239.495 761.937C257.011 745.095 275.2 728.253 293.39 711.411C295.331 709.591 297.25 707.794 299.155 706.014ZM725.365 705.443C727.32 707.224 729.29 708.992 731.284 710.736C749.473 727.578 767.663 744.42 785.179 761.262V779.451C764.295 759.914 743.411 739.704 722.526 720.167V720.168C720.625 718.268 718.723 716.368 716.818 714.467C719.731 711.521 722.58 708.512 725.365 705.443ZM289.485 694.853C292.065 697.99 294.711 701.071 297.419 704.094C295.402 705.859 293.385 707.625 291.368 709.39C273.852 724.211 257.009 739.032 239.494 753.853V736.337C254.314 724.212 268.462 712.084 283.283 699.958H283.284C285.351 698.279 287.418 696.573 289.485 694.853ZM735.238 693.971C737.288 695.721 739.339 697.49 741.389 699.284C756.21 711.41 770.357 723.537 785.178 736.337V753.179C767.662 738.358 750.821 723.537 733.305 708.716C731.274 706.939 729.243 705.162 727.212 703.385C729.953 700.305 732.629 697.167 735.238 693.971ZM750.822 687.83C762.275 696.588 773.727 705.346 785.18 714.104V730.272C771.033 718.146 757.559 707.367 743.412 696.588L743.411 696.589C741.339 694.906 739.266 693.225 737.195 691.546C739.513 688.643 741.775 685.693 743.982 682.7C746.262 684.41 748.542 686.12 750.822 687.83ZM280.258 683.027C282.501 686.06 284.802 689.047 287.159 691.988C284.95 693.747 282.756 695.505 280.59 697.264C267.116 708.043 252.969 718.822 238.822 729.601V713.433H239.496L239.495 713.432C250.948 704.674 262.4 695.916 273.853 687.832C275.988 686.23 278.123 684.628 280.258 683.027ZM271.712 670.818C273.984 674.248 276.327 677.627 278.74 680.953C276.461 682.552 274.16 684.167 271.831 685.811C261.052 693.222 250.273 700.632 239.494 708.716L239.495 691.874C248.253 685.811 256.337 680.421 265.095 675.032C267.303 673.652 269.51 672.243 271.712 670.818ZM753.026 669.697C755.411 671.274 757.814 672.834 760.252 674.358C769.01 679.747 777.094 685.812 785.852 691.874V707.369H785.178L785.179 707.368C774.4 699.957 763.621 692.547 752.842 684.463C750.601 682.922 748.359 681.351 746.118 679.763C748.489 676.459 750.793 673.103 753.026 669.697ZM263.5 657.663C265.523 661.106 267.614 664.503 269.774 667.853C267.783 669.122 265.778 670.394 263.748 671.663C255.665 676.379 248.253 681.769 240.169 686.485V672.337L239.495 672.336C245.558 668.968 250.948 665.599 257.011 661.557C259.174 660.259 261.337 658.961 263.5 657.663ZM760.952 656.892C763.165 658.199 765.398 659.524 767.663 660.883C773.726 664.251 779.116 667.62 785.179 670.988V686.484C777.095 681.768 769.684 676.379 761.6 671.662C759.245 670.19 756.923 668.716 754.618 667.244C756.799 663.841 758.911 660.39 760.952 656.892ZM256.173 644.403C257.985 647.897 259.867 651.349 261.817 654.758C259.316 656.154 256.816 657.529 254.316 658.863C248.927 661.558 243.537 664.926 238.821 667.621V653.474L239.495 653.473C242.862 651.452 246.232 650.105 248.927 648.084C251.381 646.858 253.787 645.629 256.173 644.403ZM785.177 666.946H784.505V666.605C784.729 666.719 784.953 666.834 785.177 666.946ZM768.163 643.75C770.495 644.971 772.807 646.19 775.073 647.41C778.441 649.431 781.81 650.778 784.505 652.799V666.605C779.342 663.971 774.203 660.772 769.684 658.189C767.243 656.887 764.841 655.584 762.459 654.272C764.431 650.809 766.333 647.301 768.163 643.75ZM249.879 631.485C251.575 635.199 253.348 638.871 255.195 642.499C252.851 643.657 250.53 644.837 248.253 646.063C245.558 647.41 242.864 648.758 239.495 650.105V635.957C240.841 635.283 241.516 634.61 242.863 634.61C245.249 633.616 247.576 632.562 249.879 631.485ZM774.658 630.3C777.08 631.46 779.479 632.664 781.81 633.936C783.157 634.61 783.831 634.61 785.178 635.283V648.756C782.484 647.41 779.79 646.062 776.421 644.715C774.076 643.633 771.732 642.501 769.387 641.348C771.22 637.709 772.977 634.026 774.658 630.3ZM243.743 617.004C245.218 620.77 246.77 624.497 248.397 628.183C246.067 629.203 243.76 630.221 241.516 631.241C240.842 631.241 240.169 631.915 239.495 631.915V624.504L235.453 620.462C235.453 620.462 236.127 620.463 236.8 619.789C239.045 618.791 241.382 617.886 243.743 617.004ZM780.285 616.933C782.59 617.837 784.895 618.764 787.2 619.789C787.874 619.789 788.547 620.463 789.221 620.463L785.179 625.179V631.915C784.505 631.915 783.832 631.241 783.158 631.241C780.732 630.138 778.233 629.039 775.71 627.937C777.308 624.308 778.834 620.639 780.285 616.933ZM238.78 603.319C240.1 607.271 241.504 611.186 242.989 615.06C240.621 616.014 238.318 616.947 236.127 617.768C235.453 618.442 234.106 618.442 233.432 619.115L223.327 609.01C226.021 607.663 228.716 606.315 231.411 605.642V605.641C233.73 604.868 236.271 604.092 238.78 603.319ZM792.589 604.293C795.284 605.64 798.652 606.314 801.347 607.661L791.915 617.093C791.242 617.767 789.894 617.094 788.547 616.42C786.099 615.604 783.761 614.785 781.443 613.924C782.934 609.985 784.341 606.004 785.662 601.984C787.971 602.754 790.28 603.524 792.589 604.293ZM235.247 591.962C236.063 594.792 236.921 597.603 237.821 600.396C235.504 601.174 233.25 601.854 230.736 602.273C227.368 603.62 223.999 604.294 220.631 605.641L210.526 595.536C215.915 593.515 221.305 592.168 227.368 590.82C229.389 590.146 230.736 590.146 232.757 589.473L235.247 591.962ZM792.589 588.799C793.936 589.473 795.957 589.473 797.305 590.146C803.368 591.493 808.758 593.514 814.821 594.862L804.716 604.967C801.559 603.704 797.807 603.033 794.576 601.844L793.298 601.354C791.157 600.566 788.789 600.002 786.515 599.346C787.194 597.212 787.848 595.066 788.478 592.911L792.589 588.799ZM805.389 575.999C812.8 578.02 820.884 579.367 828.294 581.388L817.515 592.167C811.452 590.82 804.715 588.799 797.978 587.451L797.979 587.452C797.305 587.452 795.958 586.778 795.284 586.778L805.389 575.999ZM229.389 586.104C228.042 586.104 227.368 586.778 226.021 586.778C219.284 588.125 213.221 590.146 206.484 591.494L195.705 580.715C203.789 580.041 211.873 578.02 219.284 575.999L229.389 586.104ZM216.59 573.305C208.506 574.652 200.422 576.673 193.011 578.021L182.232 567.242C189.643 565.895 197.727 563.874 205.811 562.526L216.59 573.305ZM843.116 566.568L832.337 577.347C824.253 576.673 816.169 574.652 808.084 573.305L818.863 562.526C826.947 563.873 835.031 565.221 843.116 566.568ZM202.442 559.831C194.358 561.178 185.6 561.852 177.516 563.199L166.063 551.746C174.147 550.399 182.905 549.051 190.989 548.378L202.442 559.831ZM833.685 547.704C842.443 549.051 850.527 549.725 859.285 551.072L847.832 562.525C839.074 561.851 830.316 560.504 822.232 559.157L833.685 547.704ZM187.621 544.336C178.863 545.01 170.105 545.683 161.347 546.357L149.221 534.231C157.979 533.557 166.737 532.884 175.495 532.21L187.621 544.336ZM876.126 534.231L864 546.357C855.242 545.683 846.484 545.01 837.726 544.336L849.852 532.21C858.61 532.884 867.368 533.557 876.126 534.231ZM170.779 527.494C161.347 527.494 152.59 528.168 143.158 528.168L130.358 515.368C139.79 515.368 148.547 515.368 157.979 514.694L170.779 527.494ZM866.695 514.694C876.127 514.694 884.884 515.368 894.316 515.368L881.516 528.168C872.758 528.168 863.327 528.168 853.895 527.494L866.695 514.694ZM142.484 496.504C151.916 496.504 160.673 496.504 170.105 497.178L157.305 509.978C147.873 509.978 139.116 509.304 129.684 509.304L142.484 496.504ZM894.316 508.631C885.558 508.631 876.127 509.305 866.695 509.305L853.895 496.505C863.327 496.505 872.084 495.831 881.516 495.831L894.316 508.631ZM186.947 480.336L174.821 492.462C166.063 491.788 157.305 491.115 148.547 490.441L160.673 478.315C169.431 478.989 178.189 479.662 186.947 480.336ZM876.127 489.768C867.369 490.442 858.611 491.115 849.853 491.789L837.727 479.663C846.485 478.989 855.243 478.316 864.001 477.642L876.127 489.768ZM176.168 461.473C185.6 462.82 193.684 464.168 201.768 464.841L190.315 476.294C181.557 474.947 173.473 474.273 164.715 472.926L176.168 461.473ZM858.61 472.926C850.526 473.6 841.768 474.947 833.684 476.294L822.231 464.841C830.315 463.494 839.073 462.82 847.157 461.473L858.61 472.926ZM191.663 446.652C200.421 447.999 207.831 449.347 215.916 450.694L205.137 461.473C197.053 460.126 188.969 458.778 180.884 457.431L191.663 446.652ZM842.442 456.757C835.031 458.778 826.947 460.125 818.863 461.473L808.084 450.694C816.168 449.347 824.253 447.326 831.663 445.978L842.442 456.757ZM206.485 431.831C213.222 433.852 219.958 435.199 226.695 437.22L229.39 437.894L218.611 447.999C211.2 445.979 203.116 444.631 195.706 442.61L206.485 431.831ZM828.969 443.283C820.885 443.957 813.474 445.978 805.39 447.999H805.389L795.284 437.894C795.958 437.894 797.305 437.22 797.979 437.22C804.716 435.873 811.453 433.852 818.19 432.504L828.969 443.283ZM219.957 419.031C223.325 419.705 227.368 421.052 230.736 422.399H230.737C232.85 423.244 235.23 423.824 237.541 424.472C236.743 426.979 235.978 429.5 235.247 432.036L232.084 435.199C230.737 434.525 229.389 434.525 227.368 433.852C221.305 432.505 215.242 430.484 209.852 429.136L219.957 419.031ZM814.82 429.136C808.757 430.483 803.368 431.831 797.305 433.852C795.958 434.526 793.937 434.526 792.589 435.199L788.477 431.086C787.847 428.931 787.194 426.785 786.515 424.651C788.788 423.995 791.156 423.432 793.297 422.644L794.575 422.154C797.806 420.965 801.558 420.294 804.715 419.031L814.82 429.136ZM801.347 414.989C798.652 417.01 795.958 417.684 792.589 419.031C790.214 419.822 787.837 420.614 785.461 421.406C784.18 417.536 782.819 413.702 781.379 409.907C783.717 408.987 786.077 408.002 788.547 406.904C789.894 406.23 790.569 406.23 791.915 405.557L801.347 414.989ZM232.757 405.558C233.431 406.232 234.779 406.905 236.125 407.579L236.126 407.578C238.203 408.356 240.379 409.135 242.617 409.914C241.203 413.641 239.865 417.404 238.604 421.204C236.431 420.479 234.258 419.755 232.084 419.031C228.716 417.684 226.021 417.01 222.652 415.663L232.757 405.558ZM785.853 398.821L790.569 403.537C789.222 404.21 788.548 404.21 787.874 404.21C785.374 405.322 782.874 406.317 780.373 407.293C778.915 403.558 777.381 399.861 775.773 396.204C778.399 395.055 781.077 393.906 783.832 392.758C784.506 392.758 785.179 392.084 785.853 392.084V398.821ZM239.495 391.409C240.169 391.409 240.842 392.083 241.516 392.083C243.887 393.161 246.258 394.236 248.628 395.291C247.076 398.79 245.592 402.326 244.176 405.896C241.718 404.935 239.259 403.954 236.801 402.862C236.127 402.862 235.454 402.188 234.78 402.188L239.496 398.82H239.495V391.409ZM785.179 388.715C783.832 389.389 783.158 390.062 781.811 390.062C779.32 391.1 776.893 392.201 774.491 393.328C772.79 389.571 771.01 385.858 769.155 382.19C771.539 381.026 773.957 379.841 776.421 378.609C779.116 377.262 781.81 375.914 785.179 374.567V388.715ZM240.17 374.895C242.738 376.132 245.779 377.373 248.253 378.61C250.507 379.65 252.761 380.736 255.015 381.854C253.125 385.578 251.314 389.348 249.583 393.164C247.538 392.169 245.513 391.141 243.538 390.063C242.191 389.389 240.843 388.716 240.17 388.042V374.895ZM785.179 371.199C781.811 373.22 778.442 374.567 775.747 376.588C773.206 377.859 770.713 379.131 768.243 380.402C766.4 376.821 764.484 373.284 762.497 369.792C764.867 368.438 767.256 367.104 769.684 365.809C775.073 363.114 780.463 359.746 785.179 357.051V371.199ZM239.495 356.378C244.883 359.073 250.274 362.441 255.663 365.136C257.854 366.305 260.012 367.475 262.154 368.651C260.014 372.372 257.956 376.147 255.98 379.97C253.827 378.843 251.694 377.717 249.6 376.589C246.232 374.568 242.863 373.221 239.495 371.2V356.378ZM240.17 374.568V374.895C239.942 374.785 239.715 374.678 239.495 374.568H240.17ZM239.495 337.515C247.579 342.231 255.663 347.62 263.748 352.336C265.78 353.606 267.787 354.878 269.776 356.143C267.517 359.647 265.331 363.203 263.222 366.809C261.173 365.598 259.106 364.372 257.011 363.115C250.948 359.747 245.558 355.704 239.495 352.336V337.515ZM784.505 352.336H785.179C779.116 355.704 773.726 359.073 767.663 362.441C765.333 363.839 763.001 365.236 760.67 366.626C758.56 363.024 756.372 359.472 754.112 355.971C756.361 354.535 758.628 353.098 760.926 351.662C769.01 346.946 777.094 341.557 784.505 336.841V352.336ZM784.506 332.8H785.177C776.42 338.189 768.336 344.252 759.579 350.315C757.482 351.712 755.357 353.139 753.209 354.583C750.948 351.125 748.614 347.718 746.21 344.366C748.196 342.963 750.183 341.576 752.169 340.21C762.948 332.8 773.727 325.389 784.506 317.305V332.8ZM239.496 316.631C250.274 324.042 261.727 332.126 272.506 339.536C274.45 340.872 276.393 342.23 278.336 343.602C275.908 346.966 273.55 350.384 271.266 353.854C269.229 352.471 267.174 351.07 265.096 349.641C256.338 343.578 247.58 338.188 239.496 332.125V316.631ZM785.178 311.241C773.725 319.999 762.274 328.757 750.821 337.515C748.753 339.066 746.685 340.616 744.618 342.166C742.267 338.952 739.852 335.788 737.373 332.676C739.385 331.125 741.398 329.593 743.41 328.084C756.884 317.305 771.031 306.526 785.178 295.747V311.241ZM238.821 294.399C253.642 305.178 267.116 315.957 281.263 327.41C283.198 328.982 285.136 330.552 287.071 332.121C284.548 335.271 282.091 338.475 279.7 341.732C277.526 340.102 275.353 338.472 273.179 336.841C261.726 328.083 250.274 319.325 238.821 310.567V294.399ZM238.821 270.821C257.01 285.642 274.526 300.463 291.368 315.284C293.282 316.959 295.174 318.637 297.054 320.313C294.22 323.489 291.454 326.728 288.76 330.029C286.71 328.279 284.66 326.51 282.61 324.716C267.789 312.59 252.968 299.79 238.821 287.663V270.821ZM784.505 287.662C770.358 300.462 756.21 312.588 741.389 324.715C739.288 326.423 737.188 328.131 735.086 329.843C732.474 326.648 729.795 323.511 727.05 320.432C728.93 318.716 730.792 316.999 732.631 315.283C750.147 300.462 766.989 285.641 784.505 270.82V287.662ZM785.179 262.736C767.663 279.578 749.474 296.42 731.284 313.262C729.371 315.047 727.432 316.855 725.476 318.679C722.609 315.515 719.672 312.415 716.668 309.381C718.601 307.531 720.552 305.68 722.526 303.83C743.41 283.619 764.294 264.083 785.179 243.872V262.736ZM239.494 243.874C260.377 264.084 281.262 284.295 302.147 303.832V303.831C303.935 305.619 305.725 307.405 307.517 309.193C304.777 311.956 302.092 314.774 299.464 317.646C297.679 315.977 295.879 314.294 294.062 312.59C275.873 295.748 257.683 278.906 239.494 261.39V243.874ZM780.462 239.157C760.925 260.041 740.716 280.925 720.505 301.81C718.605 303.71 716.706 305.612 714.805 307.517C711.863 304.599 708.859 301.743 705.794 298.954C707.571 297.003 709.334 295.04 711.073 293.052C727.915 274.863 744.757 256.673 762.273 239.157H780.462ZM262.399 238.484C279.241 257.347 296.083 274.863 312.925 293.052H312.926C314.741 294.988 316.531 296.928 318.307 298.86C315.431 301.475 312.608 304.149 309.84 306.877C307.948 304.947 306.059 303.029 304.167 301.137C284.63 280.926 264.42 260.042 244.883 238.484H262.399ZM754.19 238.484C738.695 256.673 723.874 274.189 709.053 291.031C707.281 293.056 705.507 295.079 703.736 297.099C700.553 294.257 697.307 291.485 693.999 288.785C695.849 286.614 697.721 284.444 699.621 282.273C711.747 267.452 723.874 253.305 736.674 238.484H754.19ZM288.674 239.157C300.127 253.978 312.253 268.126 325.053 282.947C326.653 284.916 328.277 286.885 329.913 288.855C326.765 291.427 323.673 294.065 320.638 296.765C318.966 294.854 317.293 292.942 315.621 291.031C300.8 273.515 285.979 256.673 271.158 239.157H288.674ZM337.179 273.515C338.715 275.563 340.251 277.611 341.788 279.66C338.448 282.11 335.163 284.63 331.936 287.218C330.315 285.141 328.694 283.045 327.074 280.925C316.295 267.451 305.516 253.304 294.737 239.157H310.905C319.663 250.61 328.421 262.062 337.179 273.515ZM730.61 239.157C718.484 253.304 707.705 266.778 696.926 280.925V280.926C695.254 282.984 693.583 285.043 691.915 287.101C689.015 284.778 686.071 282.509 683.08 280.297C684.776 278.037 686.473 275.776 688.168 273.515C696.926 262.062 705.684 250.61 714.442 239.157H730.61ZM331.79 239.83C337.853 247.914 343.916 255.998 349.306 264.756L349.305 264.757C350.712 267.008 352.149 269.229 353.602 271.433C350.196 273.68 346.841 275.998 343.538 278.383C342.074 276.311 340.624 274.24 339.2 272.167C331.79 261.388 324.379 250.609 316.295 239.83H331.79ZM707.706 239.158C700.295 249.937 692.211 260.716 684.801 272.169L684.8 272.168C683.376 274.24 681.925 276.311 680.46 278.382C677.158 275.997 673.802 273.68 670.397 271.433C671.85 269.229 673.288 267.009 674.695 264.758C680.084 256 686.148 247.916 692.211 239.158H707.706ZM687.494 239.157C682.105 247.241 677.39 255.325 672 263.41C670.648 265.574 669.293 267.71 667.94 269.831C664.563 267.652 661.139 265.542 657.667 263.502C659.05 261.194 660.453 258.915 661.894 256.673C665.262 250.61 668.631 245.22 672.673 239.157H687.494ZM352 239.831C355.368 245.22 359.411 250.61 362.779 256.673C364.098 258.872 365.416 261.071 366.728 263.27C363.121 265.381 359.564 267.568 356.06 269.83C354.708 267.709 353.353 265.574 352 263.41C347.284 255.326 341.895 247.242 337.179 239.831H352ZM667.283 239.832C664.588 244.547 661.894 249.937 658.525 255.327L658.526 255.326C657.337 257.554 656.145 259.749 654.95 261.926C651.488 259.943 647.982 258.029 644.432 256.188C645.537 254.079 646.643 251.989 647.747 249.937C649.768 246.569 651.115 243.199 653.136 239.832H667.283ZM370.863 239.156C372.884 242.524 374.231 245.893 376.252 249.261L376.253 249.262C377.411 251.577 378.568 253.852 379.726 256.106C376.226 257.919 372.769 259.801 369.355 261.751C368.036 259.385 366.736 257.018 365.474 254.651C362.779 249.262 359.411 243.872 356.716 239.156H370.863ZM649.095 239.157C647.748 241.852 646.4 245.22 645.053 247.915C643.992 250.213 642.883 252.511 641.742 254.81C638.257 253.049 634.732 251.357 631.168 249.735C632.238 247.545 633.286 245.373 634.274 243.2C634.948 241.179 634.948 240.505 635.621 239.158V239.157H649.095ZM388.379 239.158C389.053 240.505 389.726 241.179 390.4 242.526C391.379 244.877 392.417 247.17 393.477 249.44C389.755 251.123 386.076 252.882 382.441 254.716C381.305 252.421 380.148 250.147 378.947 247.916C377.6 245.221 376.252 242.527 374.905 239.158H388.379ZM632.252 239.158C632.252 239.831 631.579 240.504 631.579 241.178C630.477 243.602 629.377 246.025 628.299 248.449C624.801 246.903 621.266 245.423 617.696 244.014C618.679 241.497 619.681 238.98 620.8 236.463C620.8 235.789 621.474 235.116 621.474 234.442L626.19 239.158H632.252ZM403.874 234.441C403.874 235.115 404.548 235.788 404.548 236.462C405.594 238.815 406.537 241.169 407.458 243.561C403.674 245.036 399.928 246.59 396.223 248.218C395.18 245.834 394.139 243.473 393.096 241.178C393.096 240.504 392.422 239.831 392.422 239.157H399.833L403.874 234.441ZM618.105 231.747C617.431 233.093 617.431 234.442 616.758 235.115C615.892 237.713 615.024 240.187 614.158 242.644C610.473 241.246 606.752 239.921 602.997 238.671C603.766 236.363 604.536 234.055 605.305 231.747C606.652 228.379 607.326 225.684 608.673 222.315L618.105 231.747ZM415.999 221.642C417.346 225.684 418.02 228.379 419.367 231.074L419.368 231.073C420.182 233.516 420.996 235.96 421.811 238.404C417.942 239.678 414.11 241.033 410.316 242.465C409.375 240.067 408.367 237.65 407.241 235.115C406.567 233.768 406.567 233.093 405.894 231.747L415.999 221.642ZM606.652 220.293C604.631 223.661 603.284 227.03 602.61 231.072L602.611 231.073C601.767 233.183 601.186 235.558 600.539 237.867C598.012 237.051 595.47 236.269 592.913 235.522L589.811 232.42C590.485 231.073 590.485 229.725 591.158 227.704C593.179 221.641 594.526 216.251 596.547 210.188L606.652 220.293ZM429.473 208.842C430.82 215.579 432.168 220.968 434.189 227.031C434.863 228.378 434.863 230.399 435.536 231.747L432.035 235.248C429.662 235.932 427.302 236.645 424.955 237.388C424.247 234.865 423.643 232.448 422.736 229.726C421.389 226.358 420.715 222.989 419.368 218.947L429.473 208.842ZM443.622 195.368C444.968 203.452 446.316 210.863 448.337 218.947L438.232 229.052C438.232 227.705 437.558 227.031 437.558 225.684C436.211 218.947 434.19 212.884 432.842 206.147L443.622 195.368ZM592.504 206.821C591.157 213.558 589.136 219.621 587.788 226.358L587.789 226.357C587.789 227.031 587.115 228.378 587.115 229.052L576.336 218.947C578.357 211.536 579.704 203.452 581.725 196.042L592.504 206.821ZM457.095 181.894C459.116 189.305 460.463 197.389 461.811 205.473L451.032 216.252C449.685 208.169 447.664 200.084 446.316 192.673L457.095 181.894ZM577.684 191.999C577.01 200.083 574.989 208.167 573.642 216.252L562.863 205.473C564.21 197.389 565.558 189.305 566.905 181.22L577.684 191.999ZM473.264 165.726C474.611 173.81 475.285 181.894 476.632 190.652L465.179 202.105C463.832 194.021 463.158 185.263 461.811 177.179L473.264 165.726ZM562.863 176.505C562.189 185.263 560.842 194.021 559.495 202.105L548.042 190.652C549.389 181.894 550.063 173.81 551.41 165.052L562.863 176.505ZM492.126 174.484L480 186.61C479.326 177.852 478.653 169.094 477.979 160.336L490.105 148.21C490.779 156.968 491.452 165.726 492.126 174.484ZM546.695 160.336C546.021 169.094 545.348 177.852 544.674 186.61L532.548 174.484C533.222 165.726 533.895 156.968 534.569 148.21L546.695 160.336ZM508.968 130.02C508.968 138.778 509.642 148.209 509.642 157.641L496.842 170.441C496.842 161.009 496.168 152.252 496.168 142.82L508.968 130.02ZM528.506 142.82C528.506 151.578 528.506 161.009 527.832 170.441L515.032 157.641C515.706 148.209 515.706 139.452 515.706 130.02L528.506 142.82Z"
     fill="#E6E1D3"
     id="path4" />
</svg>
