<svg xmlns="http://www.w3.org/2000/svg" viewBox="0 0 1024 1024" width="1024" height="1024"><path d="M511.999,97.685l0.276,0.276l0.368,-0.224l7.026,4.5c6.565,4.203 12.239,8.917 17.289,13.947c4.241,4.224 8.258,9.161 11.671,14.421c1.768,2.469 3.016,5.097 4.053,7.763l65.868,65.868c6.714,2.764 12.435,6.309 17.066,11.316c1.144,1.056 2.233,2.201 3.276,3.395h166.158v165.789c2.085,1.569 4.056,3.267 5.763,5.145c4.689,4.769 8.295,10.529 11.158,17.184l0.066,0.158l0.066,0.158c0.083,0.207 0.155,0.437 0.237,0.645l62.25,62.25c3.363,1.084 6.551,2.483 9.434,4.158l0.579,0.342l0.553,0.395c4.478,3.243 9.482,6.798 14.197,11.487h0.013v0.013c5.038,5.025 9.776,10.665 14,17.211l4.566,7.066l-4.342,7.197c-4.161,6.909 -8.896,13.069 -14.224,18.382l-0.013,0.013c-4.233,4.209 -9.184,8.196 -14.46,11.592c-2.947,2.094 -6.106,3.51 -9.303,4.592l-63,63c-0.21,0.523 -0.4,1.097 -0.618,1.605c-2.805,6.52 -6.359,12.287 -11.553,17.053c-1.611,1.732 -3.444,3.3 -5.368,4.776v165.895h-165.974c-1.174,1.372 -2.423,2.66 -3.737,3.842c-4.765,4.643 -10.28,8.047 -16.513,11.145l-0.316,0.158c-0.215,0.1 -0.442,0.166 -0.658,0.263l-65.263,65.263c-0.951,2.509 -2.031,4.951 -3.355,7.211l-0.197,0.355l-0.237,0.329c-3.445,5.144 -7.124,10.3 -11.842,15v0.013c-5.34,5.317 -11.292,9.748 -17.882,13.5l-6.447,3.658l-0.066,-0.039l-0.566,0.566l-1.829,-1.829l-4.092,-2.171c-6.946,-3.691 -13.41,-8.079 -19.039,-13.684v-0.013c-4.259,-4.243 -8.461,-9.385 -11.987,-15.303c-1.625,-2.478 -2.8,-5.093 -3.789,-7.737l-66.276,-66.276c-5.535,-2.852 -10.58,-6.071 -14.961,-10.803c-1.164,-1.072 -2.27,-2.231 -3.329,-3.447h-167.75v-166.987c-1.497,-1.246 -2.919,-2.563 -4.197,-3.974c-4.295,-4.364 -7.949,-9.621 -11.171,-16.039c-0.045,-0.089 -0.074,-0.186 -0.118,-0.276l-65.145,-65.145c-3.071,-1.034 -6.028,-2.301 -8.75,-3.882l-0.342,-0.197l-0.342,-0.224c-5.167,-3.43 -10.333,-7.103 -15.053,-11.803h-0.013c-5.63,-5.607 -10.042,-12.05 -13.75,-18.974l-3.526,-6.592l3.724,-6.474c3.77,-6.569 8.214,-12.511 13.553,-17.829h0.013c4.366,-4.348 9.613,-8.666 15.737,-12.224c3.103,-1.802 6.478,-3.264 10.026,-4.342l64.263,-64.263c2.995,-6.233 6.382,-11.641 11.329,-16.184c1.168,-1.258 2.428,-2.459 3.763,-3.592v-167.105h167.605c1.167,-1.362 2.406,-2.641 3.711,-3.816c3.773,-3.691 8.449,-7.004 14.026,-9.737l67.342,-67.342c0.92,-2.302 1.933,-4.533 3.132,-6.579l0.342,-0.592l0.395,-0.553c3.252,-4.454 6.82,-9.445 11.539,-14.145c5.34,-5.318 11.533,-10.031 18.461,-14.171l5.408,-3.237l1.092,-1.092z" /></svg>