<svg xmlns="http://www.w3.org/2000/svg" viewBox="0 0 1024 1024" width="1024" height="1024"><path d="M632.781,362.799c3.18,0 4.77,2.121 4.77,6.36c-0.265,4.24 -2.252,8.347 -5.962,12.322c-6.625,6.095 -16.562,15.502 -29.811,28.221l-1.192,1.192c-9.274,9.01 -18.416,18.814 -27.426,29.413c-1.06,1.59 -1.855,3.577 -2.385,5.962c0,2.65 1.987,4.372 5.962,5.167c25.174,6.89 44.12,21.332 56.839,43.325c6.095,10.6 10.599,21.993 13.514,34.183c2.915,12.19 4.372,26.366 4.372,42.53c-0.265,15.369 -5.035,30.473 -14.309,45.312c-9.274,14.839 -20.536,27.956 -33.785,39.35c-13.514,11.66 -28.353,20.804 -44.517,27.426c-16.694,6.891 -32.328,10.334 -46.902,10.334c-30.473,0 -55.911,-9.142 -76.315,-27.426c-20.138,-18.284 -30.208,-38.025 -30.208,-59.224c0,-29.413 14.044,-50.082 42.132,-62.006c5.035,-2.649 10.997,-4.107 17.886,-4.372c4.77,0 8.347,0.265 10.732,0.795c2.385,0.265 4.372,0.927 5.962,1.987c1.325,0.795 1.987,2.253 1.987,4.372v3.577c0,4.24 -3.577,8.215 -10.732,11.924c-6.89,3.445 -11.792,7.42 -14.707,11.924c-3.975,5.565 -5.962,13.117 -5.962,22.656c0,0.53 0.132,1.856 0.397,3.975v4.77c0,14.839 5.962,28.486 17.886,40.94c12.19,12.454 26.631,18.681 43.325,18.681c23.583,0 42.662,-9.142 57.236,-27.426c14.839,-18.283 22.391,-38.819 22.656,-61.608c0.795,-4.77 1.192,-9.274 1.192,-13.514c0,-18.018 -5.696,-34.315 -17.091,-48.889c-14.309,-17.489 -32.327,-26.233 -54.056,-26.233c-4.77,0 -9.539,1.061 -14.309,3.18c-3.444,1.855 -7.949,2.782 -13.514,2.782c-3.18,0 -4.77,-1.987 -4.77,-5.962c0,-5.034 1.987,-9.274 5.962,-12.719c10.334,-8.744 21.596,-19.079 33.785,-31.003c10.334,-10.069 20.801,-21.198 31.4,-33.388c2.385,-3.18 3.577,-5.3 3.577,-6.36l-0.397,-0.795c-1.06,-0.529 -3.047,-0.927 -5.962,-1.192c-7.95,-0.795 -16.297,-1.192 -25.041,-1.192c-15.369,0 -27.293,0.53 -35.773,1.59c-23.318,2.385 -38.157,7.95 -44.517,16.694c-5.83,9.539 -13.249,14.309 -22.259,14.309c-3.444,0 -5.167,-2.517 -5.167,-7.552c0.795,-5.035 2.517,-8.877 5.167,-11.527c10.865,-12.454 20.802,-27.161 29.811,-44.12c0.795,-1.59 1.987,-3.71 3.577,-6.36c1.59,-2.385 3.843,-3.577 6.757,-3.577c12.985,1.061 25.836,1.855 38.555,2.385c12.984,0.265 27.293,0.397 42.927,0.397c27.293,0 54.189,-0.795 80.687,-2.385z" /> <path d="M321.747,515.132c-0.09,0.011 -0.169,0.022 -0.259,0.028c-1.172,0.092 -2.322,-0.366 -3.111,-1.244c-1.051,-1.168 -1.271,-2.865 -0.554,-4.262l11.238,-21.908c0.521,-1.017 1.42,-1.789 2.504,-2.152c0.402,-0.134 0.821,-0.21 1.243,-0.223c0.179,-0.006 0.34,0.003 0.519,0.011c2.972,0.141 31.751,1.49 50.558,1.441c18.825,-0.049 47.625,-1.547 50.598,-1.704c0.179,-0.009 0.34,-0.02 0.519,-0.011c0.899,0.039 1.751,0.427 2.372,1.088c0.298,0.317 0.527,0.695 0.466,1.126c-0.437,3.06 -5.775,14.027 -7.893,18.293c-0.553,1.114 -1.471,2.001 -2.598,2.528c-0.694,0.324 -1.448,0.501 -2.213,0.521c-0.072,0.001 -0.137,0.001 -0.209,0.001c-1.865,-0.003 -29.226,-0.024 -47.665,1.021c-20.609,1.167 -53.251,5.169 -55.516,5.447z" /> <path d="M435.146,481.74h0.013c1.769,0.08 3.45,0.859 4.671,2.158c0.618,0.659 1.607,2.032 1.342,3.895v0.013c-0.205,1.436 -0.686,2.674 -1.316,4.289c-0.63,1.615 -1.421,3.454 -2.263,5.316c-1.684,3.723 -3.563,7.544 -4.632,9.697c-0.896,1.806 -2.379,3.248 -4.184,4.092c-1.115,0.521 -2.325,0.798 -3.553,0.829h-0.026c-0.11,0.002 -0.191,0 -0.263,0h-0.013c-1.843,-0.003 -29.226,-0.008 -47.474,1.026c-20.375,1.154 -53.044,5.144 -55.289,5.421c-0.089,0.011 -0.229,0.025 -0.408,0.039c-2.213,0.173 -4.394,-0.686 -5.882,-2.342c-1.978,-2.2 -2.39,-5.421 -1.039,-8.053l11.237,-21.908c0.922,-1.799 2.516,-3.175 4.434,-3.816c0.709,-0.237 1.445,-0.371 2.197,-0.395c0.356,-0.012 0.621,0.005 0.789,0.013c2.955,0.14 31.758,1.495 50.395,1.447c18.656,-0.049 47.469,-1.554 50.421,-1.711c0.156,-0.008 0.455,-0.029 0.842,-0.013zM433.95,488.512c-3.658,0.193 -31.324,1.636 -50.053,1.684c-18.977,0.049 -47.736,-1.305 -50.724,-1.447h-0.013c-0.189,-0.009 -0.236,-0.013 -0.237,-0.013c-0.092,0.003 -0.195,0.022 -0.289,0.053c-0.25,0.084 -0.459,0.252 -0.579,0.487l-11.237,21.921c-0.084,0.164 -0.057,0.324 0.066,0.461c0.09,0.1 0.211,0.155 0.342,0.145h0.013c-0.013,0.001 -0.009,-0.002 0.079,-0.013h0.013c2.284,-0.282 34.895,-4.293 55.737,-5.474c18.629,-1.055 45.981,-1.029 47.868,-1.026c0.059,0 0.088,0 0.118,0c0.302,-0.007 0.595,-0.07 0.868,-0.197c0.449,-0.21 0.803,-0.551 1.013,-0.974c1.049,-2.113 2.902,-5.896 4.526,-9.487c0.812,-1.796 1.558,-3.552 2.118,-4.987c0.225,-0.579 0.219,-0.673 0.368,-1.132z" /></svg>