<svg xmlns="http://www.w3.org/2000/svg" viewBox="0 0 1024 1024" width="1024" height="1024"><path d="M567.136,18.545l-38.395,90.645c-3.337,7.878 -6.647,15.908 -9.908,23.947l9.671,9.671c0,8.758 0.003,18.2 -0.671,27.632l-12.803,-12.803c0.403,-5.649 0.537,-11.084 0.605,-16.539c-2.087,5.259 -4.021,10.538 -6,15.816c0.001,0.243 0.013,0.481 0.013,0.724l-0.474,0.474c-8.52,22.843 -15.933,45.703 -20.224,67.487c-7.398,37.567 -5.399,68.624 9.408,91.842c5.672,8.894 21.521,19.861 46.263,29.474c20.42,7.934 44.557,14.541 69.026,20.974c4.987,1.021 9.754,1.948 14.092,2.737c23.929,4.35 76.453,7.922 115.987,9.934c8.723,-4.848 17.111,-10.03 25.961,-14.75c5.389,-2.695 10.784,-6.068 15.5,-8.763v14.145c-3.368,2.021 -6.739,3.374 -9.434,5.395c-2.57,1.285 -5.041,2.57 -7.526,3.855c1.63,-0.09 3.262,-0.153 4.895,-0.224c1.091,-0.534 2.169,-1.051 3.303,-1.618c2.695,-1.347 5.395,-2.692 8.763,-4.039v5.316c1.921,-0.028 3.837,-0.092 5.763,-0.092h26.947v21.895c6.561,14.722 11.294,29.818 14.605,45.132l9.947,9.947c-2.459,0.671 -5.076,1.178 -7.658,1.724c0.252,1.517 0.421,3.046 0.645,4.566c3.96,-0.476 7.921,-0.945 11.724,-1.579l11.447,11.447c-7.008,0.584 -14.463,1.697 -21.605,2.855c2.326,23.862 1.467,48.059 -1.776,72.132c8.161,1.195 15.834,1.905 24.066,3.171l-11.461,11.447c-4.908,-0.377 -9.779,-0.989 -14.566,-1.671c-0.223,1.316 -0.461,2.632 -0.697,3.947l10.553,1.763l-10.776,10.776c-0.724,-0.06 -1.447,-0.183 -2.171,-0.263c-3.623,17.24 -8.237,34.321 -13.645,51.039c-8.588,26.545 -19.195,52.521 -30.671,77.5v1.75h-0.671c-0.028,-0.019 -0.051,-0.047 -0.079,-0.066c-0.767,1.66 -1.501,3.349 -2.276,5l2.355,1.803v16.171c-2.66,-2.28 -5.267,-4.405 -7.895,-6.592c-0.681,1.4 -1.355,2.805 -2.04,4.197c3.317,2.841 6.571,5.556 9.934,8.461v16.842c-5.317,-4.499 -10.506,-8.999 -15.75,-13.5c-0.781,1.536 -1.583,3 -2.368,4.526c6.046,5.684 12.207,11.37 18.118,17.053v18.184c-8.144,-7.619 -16.288,-15.392 -24.434,-23.118c-0.814,1.537 -1.618,3.134 -2.434,4.658c7.586,7.95 15.123,15.905 22.816,23.855h-18.184c-3.823,-3.97 -7.487,-7.839 -11.25,-11.763c-1.08,1.963 -2.158,3.929 -3.237,5.868c1.684,1.976 3.369,3.904 5.053,5.895h-8.303c-9.202,16.349 -18.297,31.788 -26.855,45.987l-80.724,133.947l31.237,-153.237c1.291,-6.324 2.967,-14.024 4.908,-22.868c0.249,-1.139 0.572,-2.653 0.829,-3.829h-2.605c-3.368,-6.063 -6.734,-11.45 -10.776,-17.513c-6.063,-10.106 -11.45,-20.213 -17.513,-29.645l8.079,-8.079c6.737,10.779 13.474,20.879 20.211,31.658c1.811,3.104 3.752,6.184 5.684,9.25c0.387,-1.796 0.749,-3.421 1.145,-5.276c-1.373,-2 -2.702,-3.934 -4.132,-6c-6.737,-10.779 -14.145,-20.879 -20.882,-31.658l8.079,-8.079c6.605,9.608 13.699,19.209 20.421,28.816c0.249,-1.218 0.5,-2.515 0.75,-3.75l-19.829,-26.421l7.421,-7.408c5.164,6.355 10.28,12.756 15.303,19.25c0.285,-1.481 0.571,-2.805 0.855,-4.303c-4.773,-5.659 -9.548,-11.317 -14.145,-16.974l8.092,-8.079l8.803,10.066c0.198,-1.118 0.396,-2.218 0.592,-3.342c-2.469,-2.681 -4.979,-5.32 -7.382,-8.066l8.092,-8.092c0.566,0.566 1.131,1.167 1.697,1.737c0.097,-0.606 0.193,-1.209 0.289,-1.816c-0.447,-0.421 -0.867,-0.842 -1.316,-1.263l1.816,-1.816c2.304,-14.814 4.323,-29.86 5.763,-44.697h0.013c3.198,-32.895 3.384,-63.546 -0.921,-85.868c-0.338,-1.751 -0.776,-3.107 -1.158,-4.684c-2.351,-0.198 -4.85,-0.31 -7.618,-0.184c-10.211,0.463 -23.291,3.419 -38.803,10.75l-2.566,1.513c-33.84,19.854 -75.711,59.841 -101.158,106.895c-25.371,46.915 -34.061,97.634 -10.382,145.961l13.566,27.671c-0.564,-4.07 -1.057,-8.148 -1.382,-12.053l11.461,-11.447c1.347,8.084 2.021,16.837 3.368,24.921l-11.461,11.461c-0.56,-3.363 -1.093,-6.867 -1.605,-10.368l-4.842,1.197l1.066,13.882l-12.132,12.132l-1.75,-22.842l-14.026,3.474c-5.453,1.347 -10.908,2.446 -16.355,3.395l7.211,7.211c0,9.431 -0.671,18.186 -0.671,27.618l-12.803,-12.789c0,-6.726 0.329,-13.886 0.513,-21.105c-1.585,0.237 -3.166,0.467 -4.75,0.671l-1.158,15.039l-12.118,-12.132c0,-0.522 0.061,-1.044 0.066,-1.566c-79.118,5.768 -155.43,-28.088 -213.75,-80.645c-0.859,0.899 -1.72,1.83 -2.579,2.724h-17.513c3.479,-3.728 7.185,-7.573 10.75,-11.342c-1.587,-1.536 -3.102,-3.133 -4.658,-4.697c-4.065,3.766 -8.007,7.555 -12.158,11.316v-17.513h0.684c0.93,-0.893 1.895,-1.79 2.829,-2.684c-55.615,-59.881 -92.11,-140.063 -88.658,-220.566l-4.447,-4.447l4.724,-0.368c0.125,-1.988 0.26,-3.974 0.434,-5.961c-3.702,0.131 -7.389,0.263 -11.224,0.263l-12.803,-12.803c8.731,0 16.921,-0.045 25.566,-0.579c0.232,-1.61 0.459,-3.221 0.724,-4.829c-9.177,-0.031 -17.754,-0.658 -26.961,-0.658l12.803,-12.803c5.723,0 11.236,0.07 16.763,0.224c0.402,-1.785 0.792,-3.573 1.237,-5.355l-11.934,-0.921l12.118,-12.132l3.329,0.25l1.592,-5.526c-0.301,-0.044 -0.58,-0.072 -0.882,-0.118l1.276,-1.276l49.447,-172.053v123.961l4.526,-4.526c3.368,0.673 7.408,2.021 10.776,3.368c3.368,1.347 7.408,2.021 10.776,3.368l-9.434,9.434c-1.348,-0.674 -2.69,-0.668 -4.711,-1.342c-4.073,-0.905 -8.066,-2.064 -11.934,-3.171v3.539c3.754,0.942 7.509,1.874 11.263,3l2.697,0.671l-10.789,10.105c-1.027,-0.28 -2.122,-0.492 -3.171,-0.75v3.368c0.162,0.027 0.325,0.052 0.487,0.079l-0.487,0.487v39.711c0,25.809 18.195,76.164 50.171,119.895c7.795,10.662 16.297,20.587 25.171,29.816l75.947,-73.276c0.997,-0.962 2.07,-1.862 3.092,-2.803c4.903,-5.42 9.948,-10.629 15.158,-15.5l-2.816,-8.342c-10.701,-20.004 -18.979,-44.087 -24.118,-68.658c-4.874,-23.3 -7.037,-46.969 -5.895,-67.789c-2.304,-29.557 -1.982,-60.182 1.816,-90.908l-0.618,0.605c-8.758,-10.779 -17.505,-21.56 -26.263,-33.013c-10.779,-13.474 -21.563,-27.616 -32.342,-41.763h16.171l26.276,34.355l18.855,25.158c0.095,-0.596 0.165,-1.192 0.263,-1.789c0.025,-0.149 0.054,-0.298 0.079,-0.447c-5.751,-8.086 -11.623,-16.175 -17.184,-24.263c-7.411,-10.779 -14.824,-21.563 -22.908,-32.342h15.5c6.063,8.084 12.124,16.176 17.513,24.934c3.279,5.246 6.716,10.327 10.158,15.408c0.262,-1.251 0.567,-2.5 0.842,-3.75c-2.768,-4.296 -5.535,-8.584 -8.303,-13.013c-4.716,-8.084 -10.1,-16.168 -14.816,-23.579h14.816c3.368,5.389 7.408,10.779 10.776,16.842c0.566,0.943 1.119,1.886 1.684,2.829c0.403,-1.495 0.789,-2.995 1.211,-4.487c-0.063,-0.118 -0.134,-0.237 -0.197,-0.355c-2.695,-5.389 -6.068,-10.784 -8.763,-15.5h13.829c20.127,-60.442 57.081,-117.656 117.382,-162.158l79.211,-58.447zM535.528,58.617l-39.605,29.224c-75.794,55.935 -113.399,133.172 -126.316,211.224c-12.917,78.052 -1.728,157.11 19.474,219.961l6.697,19.855l15.289,-14.329c58.216,-54.551 134.788,-94.828 212.934,-113.816l51.855,-12.605l-51.632,-13.526c-28.878,-7.565 -59.286,-15.342 -84.487,-25.132c-25.201,-9.79 -44.513,-21.893 -52.737,-34.789c-17.523,-27.477 -18.96,-62.667 -11.276,-101.684c7.684,-39.017 24.432,-80.872 40.605,-119.053l19.197,-45.329zM534.565,148.21l12.132,12.132l-2.026,26.263l-12.118,-12.118l2.013,-26.276zM562.869,176.5c-0.673,8.758 -2.021,17.521 -3.368,25.605l-11.461,-11.447c1.347,-8.758 2.021,-16.847 3.368,-25.605zM452.053,180.512c-3.561,11.961 -7.003,23.98 -9.368,35.987c-8.52,43.268 -8.189,88.497 15.921,126.303c14.868,23.313 41.449,37.401 68.934,48.079c7.77,3.018 16.322,5.241 24.539,7.868c-50.247,19.438 -97.802,46.611 -139.276,80.382c-23.971,-91.626 -23.571,-208.225 39.25,-298.618zM577.684,192c-0.673,8.084 -2.692,16.166 -4.039,24.25l-10.776,-10.776l4.039,-24.25zM581.724,196.04l10.776,10.776c-1.348,6.736 -3.364,12.802 -4.711,19.539c0,0.673 -0.671,2.023 -0.671,2.697l-10.776,-10.105c2.021,-7.411 3.361,-15.497 5.382,-22.908zM596.553,210.185l10.105,10.105c-2.021,3.368 -3.379,6.747 -4.053,10.789c-1.347,3.368 -2.021,7.408 -3.368,10.776l-9.421,-9.434c0.674,-1.348 0.668,-2.69 1.342,-4.711c2.021,-6.063 3.374,-11.463 5.395,-17.526zM608.672,222.316l9.434,9.434c-0.674,1.347 -0.668,2.694 -1.342,3.368c-2.021,6.063 -4.045,11.45 -6.066,17.513l-9.434,-8.763l4.039,-12.118c1.347,-3.368 2.021,-6.066 3.368,-9.434zM621.473,234.446l4.711,4.711h6.066c0,0.673 -0.671,1.352 -0.671,2.026c-3.368,7.411 -6.739,14.813 -9.434,22.224l-8.75,-8.75c2.695,-6.063 4.713,-12.134 7.408,-18.197c0,-0.674 0.671,-1.339 0.671,-2.013zM262.395,238.487c16.842,18.863 33.684,36.377 50.526,54.566c10.106,10.779 19.542,21.553 28.974,31.658l-7.408,7.421c-10.105,-10.105 -20.211,-20.895 -30.316,-31c-19.536,-20.211 -39.752,-41.087 -59.289,-62.645zM754.184,238.487c-15.495,18.189 -30.311,35.697 -45.132,52.539c-9.431,10.779 -18.857,21.566 -28.289,31.671l-8.092,-8.092c8.758,-10.779 17.515,-21.55 26.947,-32.329c12.127,-14.821 24.253,-28.968 37.053,-43.789zM271.159,239.158h17.513c11.453,14.821 23.582,28.968 36.382,43.789c8.758,10.779 18.189,21.563 26.947,32.342l-8.079,8.079l-28.303,-32.342c-14.822,-17.515 -29.64,-34.352 -44.461,-51.868zM649.092,239.158c-1.347,2.695 -2.692,6.068 -4.039,8.763c-4.042,8.758 -8.758,17.505 -13.474,26.263l-8.079,-8.079c3.368,-8.084 7.408,-15.497 10.776,-22.908c0.674,-2.021 0.668,-2.692 1.342,-4.039zM672.672,239.158h14.829c-5.389,8.084 -10.111,16.166 -15.5,24.25c-6.737,10.779 -13.474,20.892 -20.211,31.671l-7.408,-8.763c6.063,-10.106 11.45,-20.213 17.513,-29.645c3.368,-6.063 6.734,-11.45 10.776,-17.513zM707.711,239.158c-7.411,10.779 -15.497,21.56 -22.908,33.013c-7.411,10.779 -15.497,21.55 -22.908,32.329l-8.079,-8.079c6.737,-10.779 14.145,-20.879 20.882,-31.658c5.389,-8.758 11.45,-16.847 17.513,-25.605zM730.605,239.158c-12.126,14.147 -22.905,27.616 -33.684,41.763c-8.758,10.779 -17.508,21.563 -25.592,32.342l-7.408,-7.408l24.25,-32.342l26.276,-34.355zM762.277,239.158h18.184c-19.537,20.884 -39.75,41.774 -59.961,62.658c-10.105,10.105 -20.211,20.208 -30.316,30.987l-8.079,-8.092c9.432,-10.779 19.542,-20.879 28.974,-31.658c16.842,-18.19 33.681,-36.379 51.197,-53.895zM653.131,239.828h14.158c-2.695,4.716 -5.395,10.111 -8.763,15.5c-5.389,10.106 -10.779,19.54 -16.842,29.645l-8.079,-8.092c4.716,-8.758 9.429,-18.189 14.145,-26.947c2.021,-3.368 3.361,-6.737 5.382,-10.105zM239.5,243.867c20.884,20.211 41.761,40.424 62.645,59.961c10.105,10.105 20.208,20.211 30.987,30.316l-7.408,7.408c-10.779,-9.432 -20.879,-18.856 -31.658,-28.961c-18.19,-16.842 -36.377,-33.681 -54.566,-51.197v-17.526zM785.184,243.869v18.868c-17.516,16.842 -35.706,33.684 -53.895,50.526c-10.105,9.432 -20.892,19.542 -31.671,28.974l-8.079,-8.092c10.105,-10.105 20.208,-20.211 30.987,-30.316c20.884,-20.211 41.774,-39.75 62.658,-59.961zM238.815,270.816c18.19,14.821 35.711,29.653 52.553,44.474c10.779,9.431 20.879,18.857 31.658,28.289l-8.079,8.079c-10.779,-8.758 -21.563,-17.515 -32.342,-26.947c-14.821,-12.127 -29.642,-24.927 -43.789,-37.053v-16.842zM784.5,287.658c-14.147,12.8 -28.284,24.927 -43.105,37.053c-10.779,8.758 -21.563,17.515 -32.342,26.947l-8.079,-8.079c10.779,-9.431 21.553,-18.857 31.658,-28.289c17.515,-14.821 34.352,-29.653 51.868,-44.474zM281.263,327.408c10.779,8.758 21.563,17.521 32.342,25.605l-8.092,8.079l-32.329,-24.25l-34.368,-26.276v-16.171c14.821,10.779 28.3,21.56 42.447,33.013zM785.184,311.237l-34.368,26.276l-32.329,24.25l-7.408,-8.079c10.779,-8.758 21.55,-17.521 32.329,-25.605c13.473,-10.779 27.629,-21.55 41.776,-32.329zM272.5,339.54c10.779,7.411 21.563,15.497 32.342,22.908l-8.079,8.079c-10.779,-6.737 -20.892,-13.471 -31.671,-20.882c-8.758,-6.063 -17.508,-11.45 -25.592,-17.513v-15.5c10.779,7.411 22.221,15.497 33,22.908zM784.5,332.803h0.684c-8.758,5.389 -16.847,11.45 -25.605,17.513c-10.105,6.737 -20.879,14.145 -31.658,20.882l-8.092,-8.079c10.779,-7.411 21.563,-15.497 32.342,-22.908c10.779,-7.411 21.55,-14.824 32.329,-22.908zM784.5,336.843v15.5h0.684c-6.063,3.368 -11.463,6.737 -17.526,10.105c-10.105,6.063 -20.211,12.124 -30.316,17.513l-8.079,-8.092c10.779,-6.737 20.879,-13.474 31.658,-20.211c8.084,-4.716 16.168,-10.1 23.579,-14.816zM263.75,352.342c10.779,6.737 20.882,13.463 30.987,19.526l-8.079,8.763c-10.106,-6.063 -19.54,-11.45 -29.645,-17.513c-6.063,-3.368 -11.45,-7.408 -17.513,-10.776v-14.829c8.084,4.716 16.166,10.113 24.25,14.829zM239.499,356.383c5.39,2.695 10.769,6.055 16.158,8.75c10.106,5.389 19.54,10.779 29.645,16.842l-8.75,8.763c-8.758,-4.716 -18.189,-9.429 -26.947,-14.145c-3.368,-2.021 -6.737,-3.374 -10.105,-5.395v-14.816zM240.171,374.566v0.316c-0.215,-0.104 -0.464,-0.212 -0.671,-0.316zM240.171,374.881c2.576,1.244 5.592,2.48 8.079,3.724c8.758,4.042 17.518,8.758 26.276,13.474l-8.079,8.763c-7.411,-3.368 -15.497,-6.734 -22.908,-10.776c-1.347,-0.673 -2.694,-1.352 -3.368,-2.026v-13.158zM239.499,391.408c0.674,0 1.339,0.671 2.013,0.671c7.411,3.368 14.826,6.739 22.237,9.434l-8.763,8.763c-6.063,-2.695 -12.121,-4.713 -18.184,-7.408c-0.673,0 -1.352,-0.684 -2.026,-0.684l4.724,-3.368v-7.408zM790.945,393.262c-157.664,0 -304.902,77.616 -414.868,183.75l-59.526,57.461l74.684,-35.592c93.871,-44.741 192.639,-85.905 295.237,-86.75c3.875,1.85 7.276,4.676 10.342,8.211l-64.039,7.908c-53.146,6.564 -114.309,23.102 -165.632,53.342c-47.042,27.717 -85.011,68.478 -99,122.605c-42.449,-10.514 -83.162,-44.082 -113.408,-85.447c-32.834,-44.904 -52.776,-97.844 -52.776,-127.855v-95.645l-26.421,91.921c-26.63,92.646 10.919,192.981 77.934,264.342c67.015,71.361 165.113,115.102 262.092,91.145l16.211,-4l-7.342,-15c-26.207,-53.484 -16.026,-109.009 10.632,-158.303c26.658,-49.294 70.245,-91.04 106.171,-112.118l55.737,-32.684c6.532,7.632 11.446,18.739 14.461,34.368c4.675,24.235 4.344,56.374 1.105,89.724c-6.478,66.701 -24.013,137.894 -30.474,169.592l-15.618,76.605l40.355,-66.961c32.748,-54.339 72.769,-125.299 96.908,-199.908c23.756,-73.424 32.193,-151.222 0.711,-219.368v-11.342h-13.474zM232.764,405.553c0.673,0.673 2.021,1.352 3.368,2.026c5.389,2.021 11.45,4.045 17.513,6.066l-9.434,9.434l-12.132,-4.053c-3.368,-1.347 -6.053,-2.021 -9.421,-3.368l10.105,-10.105zM777.025,427.488c22.001,55.259 15.961,120.197 -5.368,186.118c-8.566,26.479 -19.542,52.516 -31.421,77.855c2.191,-14.441 4.412,-28.987 5.829,-43.566c3.385,-34.904 4.142,-69.829 -1.553,-99.355c-5.633,-29.169 -18.914,-57.558 -47.421,-68.829l-3.579,-1.421h-3.855c-59.518,0 -116.702,13.078 -171.697,31.592c78.839,-48.326 167.271,-79.523 259.066,-82.395zM864,477.646l12.132,12.118l-26.276,2.026l-12.132,-12.132l26.276,-2.013zM894.316,508.632c-8.757,0 -18.186,0.671 -27.618,0.671l-12.803,-12.803c9.431,0 18.186,-0.671 27.618,-0.671zM894.315,515.368l-12.803,12.803c-8.757,0 -18.186,0.003 -27.618,-0.671l12.803,-12.803c9.431,0 18.186,0.671 27.618,0.671zM849.855,532.212l26.276,2.026l-12.132,12.118l-26.276,-2.013l12.132,-12.132zM505.434,649.329c-26.233,48.506 -38.422,106.567 -20,164.171c-75.32,9.411 -152.055,-26.107 -207.408,-85.053c-31.364,-33.399 -53.979,-73.543 -66.447,-115.079c5.207,8.484 10.003,17.115 15.961,25.263c35.839,49.014 86.678,93.405 146.566,102.171l19.671,2.868l3.197,-19.605c8.078,-49.49 41.365,-86.396 87.276,-113.447c22.538,-13.279 47.889,-22.912 73.605,-30.947c-19.572,20.603 -38.176,43.315 -52.421,69.658zM305.816,654.5c1,0.883 2.032,1.63 3.039,2.487c0.817,-1.701 1.593,-3.361 2.461,-5.105zM641.685,739.71c5.389,10.106 11.453,19.527 16.842,29.632c2.695,5.389 6.068,10.784 8.763,15.5h-14.158c-1.348,-3.368 -3.361,-6.737 -5.382,-10.105c-4.716,-8.758 -9.429,-18.189 -14.145,-26.947l8.079,-8.079zM645.724,776.079c1.347,2.695 2.692,5.395 4.039,8.763h-13.474c-1.347,-1.347 -1.339,-2.021 -2.013,-3.368c-3.368,-8.084 -7.408,-15.495 -10.776,-23.579l8.75,-8.763c4.716,8.758 8.758,17.515 13.474,26.947zM621.475,760.592c3.368,7.411 6.737,14.824 10.105,22.908c0,0.674 0.671,1.339 0.671,2.013h-6.737l-4.711,4.039c0,-0.674 -0.671,-1.339 -0.671,-2.013c-2.695,-6.063 -4.726,-12.134 -7.421,-18.197l8.763,-8.75zM610.696,770.697c2.021,6.063 4.042,11.45 6.737,17.513c0.674,1.347 0.668,2.021 1.342,3.368l-9.434,9.434c-2.021,-2.695 -2.692,-5.395 -4.039,-8.763l-4.039,-12.118l9.434,-9.434zM598.567,782.817c1.347,3.368 2.021,7.421 3.368,10.789c1.347,3.368 2.021,7.408 3.368,10.776l-10.105,10.105c-1.348,-6.063 -2.69,-12.124 -4.711,-17.513c-0.673,-1.348 -0.681,-3.377 -1.355,-4.724l9.434,-9.434zM587.118,797.644c1.348,6.737 3.364,13.474 4.711,20.211l-10.776,10.776c-0.674,-8.084 -2.69,-16.168 -4.711,-23.579l10.105,-10.105c0,0.673 0.671,2.023 0.671,2.697zM578.356,831.329l-10.776,10.776c-2.022,-7.411 -3.364,-15.495 -4.711,-23.579l10.776,-10.776c1.348,8.084 3.364,16.168 4.711,23.579zM527.828,853.553c0,9.432 0.671,18.2 0.671,27.632l-12.789,12.789c0,-9.431 -0.01,-18.186 -0.684,-27.618l12.803,-12.803z" /></svg>