<svg xmlns="http://www.w3.org/2000/svg" viewBox="0 0 1024 1024" width="1024" height="1024"><path d="M495.133,436.41c-5.3,3.18 -9.408,5.565 -12.322,7.155c-4.24,2.385 -8.215,5.167 -11.924,8.347l-2.385,2.385c-1.061,1.06 -2.651,1.855 -4.77,2.385c-0.53,0 -1.325,0.132 -2.385,0.397h-1.987c-3.445,0 -5.697,-0.53 -6.757,-1.59c-4.505,-2.915 -6.757,-5.697 -6.757,-8.347c0,-1.325 0.397,-2.385 1.192,-3.18c1.59,-3.446 3.047,-5.831 4.372,-7.155c6.625,-5.83 15.236,-12.057 25.836,-18.681c11.129,-6.89 19.741,-14.045 25.836,-21.464c7.154,-8.479 12.851,-16.429 17.091,-23.848l0.397,-0.795c6.095,-10.335 10.997,-18.947 14.707,-25.836c1.855,-3.446 3.445,-5.565 4.77,-6.36c3.18,-1.325 5.962,-1.988 8.347,-1.988h1.59l1.192,0.398c3.975,0.265 5.962,3.047 5.962,8.347c0,3.18 -0.927,6.757 -2.782,10.732c0,11.129 -0.132,21.464 -0.397,31.003c-0.265,9.539 -0.397,24.908 -0.397,46.107v81.085c0,26.233 0.265,46.902 0.795,62.006c0.529,14.838 1.457,26.631 2.782,35.375c2.385,18.549 5.432,30.473 9.142,35.773c2.914,4.24 5.697,6.36 8.347,6.36c0.53,-0.265 1.061,-0.397 1.59,-0.397c0.529,0 0.927,-0.132 1.192,-0.397c2.914,0 4.372,2.914 4.372,8.744c0,3.444 -2.121,5.167 -6.36,5.167c-8.215,-1.06 -15.37,-1.722 -21.464,-1.987c-5.3,-0.265 -12.322,-0.397 -21.066,-0.397c-6.36,0 -13.912,0.397 -22.656,1.192c-8.744,0.795 -16.296,1.59 -22.656,2.385c-4.505,0 -6.757,-1.061 -6.757,-3.18c0,-0.265 0.132,-0.662 0.397,-1.192v-0.795c1.855,-7.95 4.637,-12.057 8.347,-12.322c3.445,-0.53 6.757,-3.843 9.937,-9.937c3.444,-6.625 6.094,-19.344 7.949,-38.157c1.59,-14.044 2.385,-35.11 2.385,-63.198v-15.501c-0.265,-6.625 -0.397,-12.852 -0.397,-18.681v-65.583c-0.531,-2.915 -2.12,-4.77 -4.77,-5.565c-0.795,-0.53 -2.12,-0.795 -3.975,-0.795c-1.59,0 -2.782,0.265 -3.577,0.795z" /> <path d="M315.01,542.079c-0.09,0.011 -0.169,0.022 -0.259,0.028c-1.172,0.092 -2.322,-0.366 -3.111,-1.244c-1.051,-1.168 -1.271,-2.865 -0.554,-4.262l11.238,-21.908c0.521,-1.017 1.42,-1.789 2.504,-2.152c0.402,-0.134 0.821,-0.21 1.243,-0.223c0.179,-0.006 0.34,0.003 0.519,0.011c2.972,0.141 31.751,1.49 50.558,1.441c18.825,-0.049 47.625,-1.547 50.598,-1.704c0.179,-0.009 0.34,-0.02 0.519,-0.011c0.899,0.039 1.751,0.427 2.372,1.088c0.298,0.317 0.527,0.695 0.466,1.126c-0.437,3.06 -5.775,14.027 -7.893,18.293c-0.553,1.114 -1.471,2.001 -2.598,2.528c-0.694,0.324 -1.448,0.501 -2.213,0.521c-0.072,0.001 -0.137,0.001 -0.209,0.001c-1.865,-0.003 -29.226,-0.024 -47.665,1.021c-20.609,1.167 -53.251,5.169 -55.516,5.447z" /> <path d="M428.409,508.687h0.013c1.769,0.08 3.45,0.859 4.671,2.158c0.618,0.659 1.607,2.032 1.342,3.895v0.013c-0.205,1.436 -0.686,2.674 -1.316,4.289c-0.63,1.615 -1.421,3.454 -2.263,5.316c-1.684,3.723 -3.563,7.544 -4.632,9.697c-0.896,1.806 -2.379,3.248 -4.184,4.092c-1.115,0.521 -2.325,0.798 -3.553,0.829h-0.026c-0.11,0.002 -0.191,0 -0.263,0h-0.013c-1.843,-0.003 -29.226,-0.008 -47.474,1.026c-20.375,1.154 -53.044,5.144 -55.289,5.421c-0.089,0.011 -0.229,0.025 -0.408,0.039c-2.213,0.173 -4.394,-0.686 -5.882,-2.342c-1.978,-2.2 -2.39,-5.421 -1.039,-8.053l11.237,-21.908c0.922,-1.799 2.516,-3.175 4.434,-3.816c0.709,-0.237 1.445,-0.371 2.197,-0.395c0.356,-0.012 0.621,0.005 0.789,0.013c2.955,0.14 31.758,1.495 50.395,1.447c18.656,-0.049 47.469,-1.554 50.421,-1.711c0.156,-0.008 0.455,-0.029 0.842,-0.013zM427.214,515.46c-3.658,0.193 -31.324,1.636 -50.053,1.684c-18.977,0.049 -47.736,-1.305 -50.724,-1.447h-0.013c-0.189,-0.009 -0.236,-0.013 -0.237,-0.013c-0.092,0.003 -0.195,0.022 -0.289,0.053c-0.25,0.084 -0.459,0.252 -0.579,0.487l-11.237,21.921c-0.084,0.164 -0.057,0.324 0.066,0.461c0.09,0.1 0.211,0.155 0.342,0.145h0.013c-0.013,0.001 -0.009,-0.002 0.079,-0.013h0.013c2.284,-0.282 34.895,-4.293 55.737,-5.474c18.629,-1.055 45.981,-1.029 47.868,-1.026c0.059,0 0.088,0 0.118,0c0.302,-0.007 0.595,-0.07 0.868,-0.197c0.449,-0.21 0.803,-0.551 1.013,-0.974c1.049,-2.113 2.902,-5.896 4.526,-9.487c0.812,-1.796 1.558,-3.552 2.118,-4.987c0.225,-0.579 0.219,-0.673 0.368,-1.132z" /></svg>