<svg xmlns="http://www.w3.org/2000/svg" viewBox="0 0 1024 1024" width="1024" height="1024"><path d="M455.488,345.37v-0.397c30.208,2.385 54.851,4.24 73.93,5.565c2.914,0 7.419,0.132 13.514,0.397c5.829,0.264 10.069,0.397 12.719,0.397c16.164,0 30.606,-0.927 43.325,-2.782c3.444,-0.795 6.094,-1.987 7.949,-3.577c2.119,-1.854 4.769,-3.312 7.949,-4.372c4.504,0 7.552,1.192 9.142,3.577c0.795,0.795 1.192,1.722 1.192,2.782c0,2.121 -0.927,4.24 -2.782,6.36c-9.539,10.599 -16.827,21.199 -21.861,31.798c-2.65,5.299 -5.962,8.214 -9.937,8.744c-2.65,0.264 -5.697,0.397 -9.142,0.397h-0.397c-0.795,0 -1.987,-0.265 -3.577,-0.795c-20.669,-1.325 -39.616,-1.987 -56.839,-1.987c-19.344,0 -33.918,0.397 -43.722,1.192c-4.77,0 -7.155,1.326 -7.155,3.975c0,2.649 0.132,4.372 0.397,5.167v25.438c0,4.769 -0.265,7.949 -0.795,9.539c0,2.915 1.325,4.372 3.975,4.372c1.854,0 3.312,-0.265 4.372,-0.795c15.104,-5.3 31.003,-8.347 47.697,-9.142c33.122,0.265 61.475,11.925 85.059,34.978c23.053,22.259 34.58,52.467 34.58,90.624c0,0.265 0.132,1.325 0.397,3.18v3.577c0,30.738 -11.925,57.634 -35.773,80.687c-25.439,24.643 -54.454,36.965 -87.047,36.965c-30.738,0 -56.972,-6.097 -78.7,-18.284c-21.199,-11.924 -31.798,-32.195 -31.798,-60.813c0.53,-24.113 7.684,-41.735 21.464,-52.864c11.925,-9.539 26.631,-14.309 44.12,-14.309h4.372c1.59,0.264 3.18,0.397 4.77,0.397c5.829,0 8.744,3.047 8.744,9.142c0,5.565 -2.253,8.612 -6.757,9.142h-0.397c-21.993,6.095 -32.99,21.199 -32.99,45.312c0,15.369 5.565,28.485 16.694,39.35c11.394,10.864 25.173,16.296 41.337,16.296c4.77,0 8.347,-0.132 10.732,-0.397c19.078,-2.915 35.109,-11.792 48.094,-26.631c12.719,-14.309 19.079,-34.58 19.079,-60.813c-0.266,-24.908 -6.89,-45.047 -19.874,-60.416c-12.455,-14.84 -28.354,-23.716 -47.697,-26.631c-4.77,-0.795 -9.408,-1.192 -13.912,-1.192c-10.069,0 -19.079,2.385 -27.028,7.155c-11.395,6.89 -18.55,11.792 -21.464,14.707c-4.24,3.444 -7.42,5.167 -9.539,5.167c-7.42,0 -11.129,-3.71 -11.129,-11.129c0,-7.155 0.132,-12.454 0.397,-15.899c0.53,-10.069 1.325,-20.535 2.385,-31.4c1.06,-9.539 1.59,-20.271 1.59,-32.195c0,-11.924 -0.53,-22.656 -1.59,-32.195c-1.061,-10.864 -1.855,-21.596 -2.385,-32.195c0,-2.12 0.662,-3.842 1.987,-5.167c1.325,-1.325 2.65,-1.987 3.975,-1.987l1.59,0.397c0.795,0 1.457,0.133 1.987,0.397c0.53,0.264 1.325,0.397 2.385,0.397z" /> <path d="M288.063,542.079c-0.09,0.011 -0.169,0.022 -0.259,0.028c-1.172,0.092 -2.322,-0.366 -3.111,-1.244c-1.051,-1.168 -1.271,-2.865 -0.554,-4.262l11.238,-21.908c0.521,-1.017 1.42,-1.789 2.504,-2.152c0.402,-0.134 0.821,-0.21 1.243,-0.223c0.179,-0.006 0.34,0.003 0.519,0.011c2.972,0.141 31.751,1.49 50.558,1.441c18.825,-0.049 47.625,-1.547 50.598,-1.704c0.179,-0.009 0.34,-0.02 0.519,-0.011c0.899,0.039 1.751,0.427 2.372,1.088c0.298,0.317 0.527,0.695 0.466,1.126c-0.437,3.06 -5.775,14.027 -7.893,18.293c-0.553,1.114 -1.471,2.001 -2.598,2.528c-0.694,0.324 -1.448,0.501 -2.213,0.521c-0.072,0.001 -0.137,0.001 -0.209,0.001c-1.865,-0.003 -29.226,-0.024 -47.665,1.021c-20.609,1.167 -53.251,5.169 -55.516,5.447z" /> <path d="M401.462,508.687h0.013c1.769,0.08 3.45,0.859 4.671,2.158c0.618,0.659 1.607,2.032 1.342,3.895v0.013c-0.205,1.436 -0.686,2.674 -1.316,4.289c-0.63,1.615 -1.421,3.454 -2.263,5.316c-1.684,3.723 -3.563,7.544 -4.632,9.697c-0.896,1.806 -2.379,3.248 -4.184,4.092c-1.115,0.521 -2.325,0.798 -3.553,0.829h-0.026c-0.11,0.002 -0.191,0 -0.263,0h-0.013c-1.843,-0.003 -29.226,-0.008 -47.474,1.026c-20.375,1.154 -53.044,5.144 -55.289,5.421c-0.089,0.011 -0.229,0.025 -0.408,0.039c-2.213,0.173 -4.394,-0.686 -5.882,-2.342c-1.978,-2.2 -2.39,-5.421 -1.039,-8.053l11.237,-21.908c0.922,-1.799 2.516,-3.175 4.434,-3.816c0.709,-0.237 1.445,-0.371 2.197,-0.395c0.356,-0.012 0.621,0.005 0.789,0.013c2.955,0.14 31.758,1.495 50.395,1.447c18.656,-0.049 47.469,-1.554 50.421,-1.711c0.156,-0.008 0.455,-0.029 0.842,-0.013zM400.266,515.46c-3.658,0.193 -31.324,1.636 -50.053,1.684c-18.977,0.049 -47.736,-1.305 -50.724,-1.447h-0.013c-0.189,-0.009 -0.236,-0.013 -0.237,-0.013c-0.092,0.003 -0.195,0.022 -0.289,0.053c-0.25,0.084 -0.459,0.252 -0.579,0.487l-11.237,21.921c-0.084,0.164 -0.057,0.324 0.066,0.461c0.09,0.1 0.211,0.155 0.342,0.145h0.013c-0.013,0.001 -0.009,-0.002 0.079,-0.013h0.013c2.284,-0.282 34.895,-4.293 55.737,-5.474c18.629,-1.055 45.981,-1.029 47.868,-1.026c0.059,0 0.088,0 0.118,0c0.302,-0.007 0.595,-0.07 0.868,-0.197c0.449,-0.21 0.803,-0.551 1.013,-0.974c1.049,-2.113 2.902,-5.896 4.526,-9.487c0.812,-1.796 1.558,-3.552 2.118,-4.987c0.225,-0.579 0.219,-0.673 0.368,-1.132z" /></svg>