<svg xmlns="http://www.w3.org/2000/svg" viewBox="0 0 1024 1024" width="1024" height="1024"><path d="M526.44,354.164c25.108,0 46.162,6.931 63.162,20.793c17,13.862 25.5,29.685 25.5,47.47c0,10.461 -3.138,19.876 -9.415,28.246c-6.277,8.108 -13.731,15.954 -22.362,23.539c-1.831,1.569 -4.577,3.662 -8.239,6.277c-0.785,0 -1.177,0.523 -1.177,1.569c0,1.831 2.747,3.923 8.239,6.277c18.57,8.892 33.609,22.1 45.116,39.623c11.246,17.001 16.869,35.831 16.869,56.493c0,26.939 -11.899,50.347 -35.7,70.224c-24.061,20.141 -51.523,30.208 -82.385,30.208c-31.123,0 -57.67,-8.632 -79.639,-25.893c-21.969,-17.261 -32.954,-40.931 -32.954,-71.008c0,-18.308 6.147,-35.047 18.439,-50.216c12.554,-15.17 25.893,-27.986 40.016,-38.447c1.308,-1.307 1.962,-2.353 1.962,-3.138c0,-1.046 -0.785,-1.961 -2.354,-2.746c-3.923,-1.831 -8.108,-4.708 -12.554,-8.631c-5.23,-4.446 -10.33,-10.853 -15.3,-19.223c-4.97,-8.631 -7.716,-21.577 -8.239,-38.839c0,-19.615 8.762,-36.485 26.285,-50.608c17.785,-14.123 39.101,-21.185 63.947,-21.185zM526.835,664.091c16.739,-1.308 31.515,-6.67 44.331,-16.085c12.816,-9.415 20.531,-27.592 23.146,-54.531c0,-14.384 -3.53,-26.285 -10.592,-35.7c-8.369,-10.724 -17.916,-19.747 -28.639,-27.07c-11.508,-7.847 -21.839,-13.6 -30.993,-17.262c-9.676,-3.661 -15.692,-5.492 -18.046,-5.492c-13.077,0 -24.324,9.677 -33.739,29.031c-8.108,16.216 -12.162,32.562 -12.162,49.039c0,0.523 0.131,1.83 0.392,3.923v3.923c1.308,18.831 8.37,35.569 21.185,50.216c12.031,13.6 27.07,20.4 45.116,20.4zM526.048,373.389c-13.076,0 -24.192,4.184 -33.346,12.554c-9.677,8.892 -14.516,19.484 -14.516,31.777c0,12.031 8.631,23.408 25.893,34.131c17.523,10.724 31.516,16.085 41.977,16.085c8.893,-1.57 15.955,-7.323 21.185,-17.262c4.97,-9.677 7.454,-20.661 7.454,-32.954c0,-12.031 -5.623,-22.362 -16.869,-30.993c-11.246,-8.631 -21.838,-13.078 -31.777,-13.339z" /> <path d="M284.322,521.741c-0.088,0.011 -0.167,0.021 -0.256,0.028c-1.156,0.09 -2.292,-0.362 -3.071,-1.228c-1.037,-1.153 -1.255,-2.827 -0.547,-4.207l11.092,-21.624c0.515,-1.003 1.402,-1.766 2.472,-2.124c0.396,-0.132 0.81,-0.207 1.227,-0.22c0.177,-0.006 0.336,0.003 0.512,0.011c2.933,0.14 31.338,1.47 49.901,1.422c18.581,-0.048 47.006,-1.527 49.941,-1.682c0.176,-0.009 0.335,-0.019 0.513,-0.011c0.887,0.039 1.728,0.422 2.341,1.074c0.294,0.313 0.521,0.686 0.46,1.111c-0.432,3.02 -5.7,13.845 -7.79,18.055c-0.546,1.1 -1.452,1.975 -2.564,2.495c-0.685,0.32 -1.429,0.495 -2.184,0.514c-0.071,0.001 -0.135,0.001 -0.206,0.001c-1.841,-0.003 -28.847,-0.023 -47.046,1.008c-20.341,1.152 -52.56,5.101 -54.795,5.377z" /></svg>