<svg xmlns="http://www.w3.org/2000/svg" viewBox="0 0 948 960" width="948" height="960"><path d="M403.135,474.104c0,-37.697 31.165,-68.434 69.628,-68.434c38.463,0 69.825,30.738 69.825,68.434c0,37.503 -31.362,68.24 -69.825,68.24c-38.463,0 -69.628,-30.737 -69.628,-68.24z" /> <path d="M858.933,269.674c-34.321,-62.44 -114.008,-85.831 -177.719,-52.001c-63.711,33.636 -87.381,111.736 -53.06,174.176c34.321,62.44 114.008,85.638 177.719,52.001c63.711,-33.636 87.578,-111.736 53.06,-174.176zM804.887,513.829c-62.725,-35.57 -143.004,-14.692 -179.297,46.782c-36.293,61.474 -14.793,140.153 47.931,175.723c62.724,35.57 142.807,14.499 179.1,-46.975c36.293,-61.475 14.99,-140.153 -47.734,-175.53zM603.893,172.436c0,-70.947 -58.582,-128.554 -131.169,-128.554c-72.39,0 -131.169,57.608 -131.169,128.554c0,70.946 58.779,128.554 131.169,128.554c72.587,0 131.169,-57.607 131.169,-128.554zM472.723,592.702c66.867,0 121.307,-53.161 121.307,-118.695c0,-65.533 -54.441,-118.695 -121.307,-118.695c-66.866,0 -121.109,53.161 -121.109,118.695c0,65.533 54.242,118.695 121.109,118.695zM603.893,775.578c0,-70.947 -58.582,-128.554 -131.169,-128.554c-72.39,0 -131.169,57.607 -131.169,128.554c0,70.947 58.779,128.554 131.169,128.554c72.587,0 131.169,-57.607 131.169,-128.554zM272.123,211.678c-62.725,-35.57 -143.004,-14.5 -179.297,46.975c-36.293,61.475 -14.793,140.153 47.931,175.53c62.724,35.57 143.003,14.692 179.1,-46.782c36.293,-61.474 14.99,-140.153 -47.734,-175.723zM317.49,556.166c-34.518,-62.44 -114.008,-85.638 -177.719,-52.001c-63.908,33.636 -87.578,111.736 -53.257,174.176c34.518,62.44 114.008,85.831 177.719,52.001c63.711,-33.636 87.578,-111.736 53.257,-174.176zM893.056,474.396c-1.973,31.124 30.967,36.537 45.958,80.806c14.991,43.303 5.721,88.345 -13.018,120.242c-16.568,28.03 -33.138,56.255 -49.706,84.285c-18.737,31.703 -55.229,63.987 -103.554,73.846c-42.211,8.699 -58.977,-10.439 -86.394,5.606c-26.234,15.272 -23.67,39.822 -44.578,67.08c-16.766,22.038 -49.114,46.008 -116.967,53.741h-107.894c-62.133,-3.093 -92.705,-23.392 -109.077,-40.983c-28.798,-30.737 -23.669,-63.795 -54.44,-78.293c-27.812,-12.952 -42.606,9.086 -81.463,1.353c-36.687,-7.347 -66.077,-29.385 -91.719,-73.267c-19.527,-32.863 -38.858,-65.726 -58.188,-98.783c-21.302,-35.957 -26.826,-75.586 -14.596,-115.602c12.229,-40.403 38.069,-45.236 37.477,-76.939c-0.394,-31.897 -26.628,-35.57 -38.463,-75.393c-11.441,-37.889 -6.116,-75.393 15.582,-112.122c18.541,-31.703 37.28,-63.214 55.821,-94.917c19.33,-32.863 52.862,-59.734 97.045,-71.913c50.692,-13.918 79.885,9.086 102.371,-13.725c15.78,-16.046 7.693,-33.444 31.757,-61.088c12.032,-14.112 24.853,-21.844 32.545,-26.484c23.67,-14.113 51.088,-21.845 79.491,-21.845h112.036c65.486,7.153 94.678,29.577 108.88,50.455c18.936,27.258 11.047,50.456 33.138,66.694c26.431,19.524 50.495,-3.673 98.426,6.959c45.564,10.246 80.477,38.47 99.807,71.333c18.542,31.124 36.688,62.44 55.032,93.564c19.724,33.443 26.627,77.519 10.059,117.535c-15.583,37.696 -43.591,39.049 -45.367,67.853z" /></svg>