<svg xmlns="http://www.w3.org/2000/svg" viewBox="0 0 848 959" width="848" height="959"><path d="M741.587,612.355c0.445,-3.207 0.887,-6.45 1.285,-9.657c-0.077,-36.254 -5.807,-70.945 -17.142,-104.112c-6.411,-21.553 -15.862,-42.263 -28.482,-62.093c-16.864,-21.831 -33.728,-43.624 -50.553,-65.455c-40.382,-40.061 -87.89,-67.784 -142.691,-83.124c-28.645,-3.845 -57.285,-7.691 -85.929,-11.579c-58.364,0.197 -112.77,14.902 -163.203,44.146c-24.474,12.941 -46.425,31.406 -65.974,50.955c-19.587,19.591 -36.933,41.983 -50.875,65.78c-33.846,57.884 -31.245,66.817 -38.495,120.658c-5.498,14.338 -7.414,28.756 -5.73,43.179c-1.683,44.549 7.572,86.049 27.841,124.589c20.63,48.909 20.549,57.884 67.059,104.433c48.147,48.189 82.037,61.087 144.931,84.4c42.981,13.463 85.967,15.386 128.91,5.772c43.02,-1.965 83.12,-14.744 120.213,-38.378c37.697,-20.311 67.904,-48.069 90.737,-83.282c28.559,-31.206 47.867,-67.862 57.845,-109.923c0.72,-5.288 1.439,-10.615 2.124,-15.904c5.248,-20.148 7.983,-40.258 8.13,-60.406zM847.433,633.117c0.48,2.765 -0.557,1.759 -1.242,3.764c-0.639,1.764 -1.149,1.721 -1.478,4.089c-0.762,4.844 -2.527,6.329 -6.171,9.134c-1.606,1.239 -2.523,3.003 -3.927,4.124c-0.801,0.599 -2.364,1.002 -3.246,1.482c-3.486,-5.251 -4.206,-7.481 -10.856,-7.451c-3.644,0.037 -8.051,-0.794 -11.575,0.327c-3.444,1.08 -6.929,3.726 -10.415,5.01c-3.126,1.157 -5.768,1.802 -8.093,4.124c-1.803,1.76 -3.242,3.726 -4.886,5.687c-2.287,2.724 -4.761,3.726 -4.728,7.61c0.042,2.406 1.044,5.97 1.764,8.213c0.963,3.203 3.845,6.731 4.53,10.132c0.409,1.842 -0.11,4.288 -0.11,6.21c0,6.813 0.441,12.539 -2.205,18.907c-4.604,11.181 -9.095,26.88 -20.949,32.13c-3.644,1.563 -6.171,3.645 -9.575,5.567c-2.082,1.204 -4.566,1.283 -6.728,2.646c-3.686,2.359 -7.331,5.288 -10.376,8.449c-1.761,1.845 -5.726,5.328 -6.45,7.935c-1.002,3.606 1.88,9.613 4.248,12.299c1.358,1.527 3.281,1.487 4.604,3.204c1.165,1.524 1.606,5.129 2.244,6.971c0.917,2.728 2.565,9.015 0.843,12.179c-1.126,2.004 -4.368,3.006 -5.85,4.809c-1.962,2.36 -2.767,4.683 -5.289,6.77c-3.486,2.84 -5.726,7.408 -9.173,10.051c-1.802,1.322 -4.646,2.206 -6.65,3.327c-1.961,1.121 -4.047,1.878 -6.128,2.679c-5.169,1.881 -10.295,4.526 -15.545,6.051c-12.3,3.563 -26.52,11.014 -34.65,21.27c-6.252,7.892 -12.74,16.183 -20.11,23.232c-2.727,2.607 -3.888,5.612 -6.012,8.414c-1.363,1.762 -2.774,1.881 -2.921,4.488c-0.4,0.085 -0.84,0.232 -1.24,0.29c-0.801,-4.33 -5.208,-0.202 -8.732,4.843c-0.155,0.403 -0.345,0.757 -0.519,1.121c-1.203,1.006 -3.405,2.164 -4.689,3.087c-2.883,2.161 -6.605,5.529 -10.295,4.364c-1.884,-0.559 -3.204,-2.322 -5.49,-2.762c-3.405,-0.681 -7.811,0.043 -11.177,1.042c-5.61,1.683 -9.816,6.491 -11.417,12.02c-0.844,2.847 -1.082,5.806 -1.883,8.654c-0.964,3.605 -1.161,4.445 -4.608,6.248c-5.127,2.755 -12.539,0.309 -18.106,-0.29c-5.505,-0.562 -2.843,0.639 -5.768,-2.163c-5.327,-5.13 -9.772,-13.06 -17.587,-13.463c-7.893,-0.44 -13.421,1.161 -19.468,6.21c-4.569,3.845 -6.932,5.207 -13.022,6.008c-6.608,0.883 -12.578,1.558 -19.549,1.442c-3.887,-0.039 -8.171,-0.4 -11.777,1.403c-3.686,1.841 -6.41,4.528 -10.256,6.248c-5.85,2.646 -7.053,9.216 -12.74,12.62c-6.008,3.636 -8.971,7.25 -15.703,3.606c-5.49,-2.963 -10.012,-6.647 -15.982,-8.774c-3.606,-1.238 -6.492,-2.402 -9.657,-4.685c-3.767,-2.727 -6.368,-6.332 -11.177,-7.331c-3.366,-0.685 -5.687,0.158 -8.813,0.757c-3.486,0.679 -18.388,-1.362 -18.907,3.567c-3.683,1.073 -7.931,0 -11.738,0.147c-3.006,0.123 -5.448,1.125 -8.329,1.565c-7.207,1.044 -17.266,-2.561 -24.516,-3.726c-6.368,-1.042 -16.62,-2.644 -21.27,-7.65c-2.338,-2.565 -1.803,-4.646 -2.485,-8.213c-0.882,-4.406 -2.925,-7.811 -6.492,-10.616c-10.415,-8.171 -26.559,-4.724 -38.614,-9.134c-3.605,-1.285 -6.128,-3.805 -9.575,-5.37c-3.002,-1.403 -6.248,-2.2 -9.254,-3.725c-7.13,-3.605 -13.899,-8.09 -20.709,-12.26c-9.575,-5.888 -21.351,-6.805 -31.486,-11.695c-4.769,-2.282 -9.414,-5.206 -13.981,-7.892c-2.804,-1.679 -6.369,-3.362 -8.053,-6.368c-2,-3.485 -1.802,-7.609 -4.005,-11.215c-3.164,-5.168 -8.092,-7.653 -12.298,-11.738c-3.804,-3.764 -6.367,-8.611 -10.174,-12.418c-3.966,-3.966 -8.331,-7.572 -12.499,-11.336c-3.567,-3.207 -6.972,-5.488 -11.659,-6.851c-4.125,-1.201 -8.452,-1.079 -12.577,-2.322c-9.937,-3.007 -17.788,-6.533 -24.317,-14.783c-6.851,-8.731 -13.101,-15.664 -16.707,-26.28c-1.563,-4.685 -2.965,-9.335 -5.009,-13.819c-0.76,-1.764 -3.284,-5.167 -2.765,-7.211c2.085,1.884 1.201,3.757 4.288,4.047c1.279,-0.804 2.723,-1.287 4.245,-1.403c1.562,-0.162 3.165,-0.043 4.726,0.397c6.49,1.323 13.26,3.007 19.47,5.25c2.485,0.925 10.654,2.809 14.822,5.73c-1.082,-3.323 -1.803,-7.806 -2.441,-9.331c-2.563,-6.29 -5.525,-13.3 -10.534,-18.028c-8.173,-7.768 -18.149,-12.577 -27.12,-19.189c-4.086,-3.002 -7.89,-6.368 -11.976,-9.374c-4.366,-3.165 -9.251,-5.807 -12.217,-10.577c-3.605,-5.846 -1.644,-15.541 -1.644,-22.191c0,-7.61 -0.41,-15.301 -0.089,-22.876c0.36,-7.811 3.486,-13.498 5.61,-20.829c1.881,-6.651 -0.923,-13.982 -1.763,-20.632c-0.961,-7.571 -0.76,-14.821 -3.726,-22.032c-0.802,-1.923 -1.646,-4.407 -3.005,-6.008c-1.643,-1.962 -3.724,-2.848 -5.249,-4.929c-3.447,-4.731 -3.245,-11.215 -5.769,-16.345c-1.963,-3.844 -4.529,-6.085 -5.409,-10.654c-1.284,-6.731 -1.406,-13.738 -2.607,-20.508c-0.602,-3.327 -3.487,-9.738 -2.005,-12.86c2.12,3.965 2.12,7.052 5.447,10.573c3.524,3.851 4.087,2.888 9.534,2.888c13.418,0.039 27.6,-3.486 37.413,-13.618c4.206,-4.329 3.554,-9.695 3.524,-15.305c-0.039,-4.047 0.721,-8.453 -1.121,-12.179c-2.885,-6.051 -7.408,-9.215 -6.409,-16.705c1.241,-9.015 4.526,-16.384 10.736,-22.996c5.85,-6.209 11.817,-10.496 19.028,-14.941c5.888,-3.605 6.765,-5.648 6.649,-12.418c-0.158,-12.299 -5.889,-26.076 -16.783,-33.047c-5.288,-3.365 -10.177,-1.245 -13.822,3.285c-1.88,2.321 -3.404,7.61 -5.567,8.933c-1.4,-5.284 -1.158,-15.501 -0.116,-20.91c1.403,-7.374 7.293,-11.661 12.86,-15.986c5.727,-4.484 11.577,-9.135 18.467,-11.695c7.529,-2.784 16.023,-2.149 23.673,-0.263c7.129,1.801 11.255,6.128 17.625,9.091c11.938,5.571 22.797,-2.683 31.528,-10.333c5.85,-5.127 16.263,-10.936 19.47,-18.346c1.803,-4.128 0.314,-7.974 0.519,-12.179c0.279,-5.126 3.11,-9.49 3.284,-14.74c0.116,-4.569 -0.926,-9.498 0.116,-13.943c1.202,-5.25 3.967,-9.978 5.009,-15.305c0.91,-4.608 1.112,-9.254 0.88,-13.939c-0.481,-10.217 -2.645,-27.565 -13.539,-31.809c5.769,0.479 11.496,1.525 17.263,2.163c4.728,0.483 11.378,0.162 15.943,2.243c2.685,1.204 5.251,3.328 7.695,4.929c3.118,2.082 2.886,2.202 3.002,6.171c0.403,12.821 -0.317,24.234 7.695,35.171c3.687,5.01 8.132,9.096 12.136,13.823c1.523,1.803 5.606,9.495 8.813,8.453c-2.721,-6.813 -4.484,-13.142 -4.484,-20.713c0,-4.402 0.357,-8.252 1.561,-12.577c0.599,-2.244 1.281,-8.333 2.604,-10.457c1.922,-3.04 7.288,-3.884 10.894,-4.724c3.884,-0.882 7.73,0.441 11.494,-2.047c1.682,-1.037 2.085,-1.801 3.366,-3.28c4.008,-4.569 7.974,-7.853 12.98,-11.219c3.246,-2.163 6.41,-4.725 9.053,-7.61c3.486,-3.844 2.726,-5.764 1.763,-10.654c-1.599,-8.132 -3.886,-15.702 -8.13,-22.872c-1.606,-2.723 -2.522,-5.606 -4.047,-8.252c-1.563,-2.721 -3.807,-4.563 -5.13,-7.53c-3.682,-8.573 -4.406,-19.069 -5.687,-28.242c-1.362,-9.533 3.161,-14.821 7.37,-22.791c3.884,-7.413 6.77,-14.624 12.094,-21.232c2.128,-2.685 4.69,-5.007 6.612,-7.772c3.006,-4.364 4.046,-8.248 8.534,-11.614c6.047,-4.569 9.451,-9.452 14.02,-15.34c5.488,-7.049 6.004,-14.38 5.888,-23.193c-0.12,-5.088 -1.923,-8.132 -4.364,-12.299c-2.248,-3.807 -2.966,-7.61 -4.329,-11.699c-2.163,-6.287 -1.799,-11.177 -2.163,-17.704c1.682,1.199 2.161,4.726 2.925,6.449c1.04,2.565 0.719,2.803 3.323,4.368c4.971,2.92 11.339,4.162 16.589,6.766c5.931,2.927 11.935,5.892 16.585,10.697c3.126,3.207 5.125,7.01 7.61,10.697c6.047,8.736 14.462,15.425 18.463,25.638c4.046,10.377 3.447,22.676 2.967,33.57c-0.436,10.375 -1.571,20.388 -1.601,30.845c0,3.648 -0.84,8.054 0,11.66c1.281,5.37 6.608,8.492 10.295,12.136c3.001,3.045 7.287,6.531 9.331,10.415c0.84,1.644 1.039,3.529 2.124,5.13c4.046,5.89 11.861,4.167 18.028,4.167c7.049,0.039 14.1,-0.682 21.03,-1.803c8.089,-1.323 14.86,-7.969 21.711,-12.217c3.243,-2.004 6.247,-4.047 7.65,-7.691c0.762,-1.923 0.441,-4.041 1.165,-5.927c1.122,-3.123 3.966,-4.728 5.61,-7.53c2.243,-3.764 1.51,-6.291 1.684,-10.295c0.202,-3.726 1.51,-7.169 1.684,-10.856c0.086,-2.004 -0.45,-3.889 0.116,-5.85c1.002,-3.327 5.969,-9.255 8.894,-11.177c1.721,-1.124 6.644,-4.929 8.53,-3.85c-2.685,4.77 -0.163,11.858 1.002,16.628c1.525,6.248 0.36,12.058 0.959,18.388c0.403,4.045 2.488,7.691 3.606,11.575c0.724,2.483 1.16,4.609 2.444,6.65c2.643,4.244 7.807,11.696 13.777,10.415c1.922,-0.403 7.651,-2.368 8.971,-3.486c2.524,-2.124 0.325,-3.365 1.883,-5.409c1.006,-0.565 2.045,-1.045 3.087,-1.442c2.803,-1.842 4.57,-4.403 5.327,-7.73c1.843,-6.29 0.48,-14.02 0.48,-20.512c0,-3.844 -0.146,-7.768 -0.03,-11.614c0.202,-4.205 1.769,-8.016 1.442,-12.26c-0.081,-1.482 -1.72,-8.492 -4.205,-14.86c3.966,3.486 8.048,6.852 12.338,10.094c6.569,4.928 13.899,8.731 20.349,13.78c6.009,4.689 12.059,9.857 17.866,14.782c5.966,5.087 10.175,10.654 14.86,16.906c5.169,6.847 10.438,10.855 10.496,19.908c0.039,8.248 -4.048,14.016 1.442,21.471c3.447,4.604 9.293,7.049 12.299,11.935c1.601,2.607 1.259,4.569 1.201,7.571c-0.159,4.41 0,8.295 1.763,12.38c2.364,5.528 6.012,10.457 7.13,16.504c1.482,7.853 -0.921,16.144 -4.565,23.034c-2.043,3.885 -6.049,6.569 -7.25,10.856c-1.443,5.129 0.36,11.741 3.083,16.105c4.286,6.731 15.264,15.507 23.394,16.949c10.175,1.803 16.705,-1.002 23.193,-8.933c4.248,-5.207 8.89,-11.541 11.134,-17.947c1.443,-4.087 1.563,-8.53 2.488,-12.697c2,-9.014 7.327,-17.588 13.896,-24.238c8.894,-8.933 19.193,-11.614 31.29,-13.258c5.451,-0.699 11.978,-0.941 17.425,-0.058c5.13,0.839 10.256,3.207 15.266,4.646c6.41,1.884 11.058,5.853 13.22,12.14c1.88,5.529 5.448,15.022 3.165,20.872c-2.603,0.441 -8.894,-6.65 -11.9,-7.973c-4.204,-1.864 -7.97,-1.14 -12.214,0.058c-3.802,1.083 -7.408,1.962 -9.091,5.931c-1.242,2.883 -1.923,6.326 -3.045,9.293c-0.882,2.403 -1.446,3.765 -1.482,6.488c-0.077,5.729 2.403,9.13 5.73,13.66c1.922,2.601 4.166,4.85 6.092,7.41c2.844,3.769 4.407,8.655 6.488,12.86c3.207,6.449 3.846,13.057 2.608,20.268c-0.963,5.734 -2.043,11.378 -3.006,17.108c-1.084,6.325 -4.364,9.292 -8.09,14.26c-2.843,3.764 -3.842,8.209 -3.768,13.018c0.124,7.169 -0.638,14.261 1.443,21.232c2.407,8.05 5.893,15.583 7.854,23.595c1.722,7.087 7.73,16.26 12.094,21.87c4.008,5.128 10.055,10.294 16.303,12.418c2.205,0.758 5.969,0.437 7.973,1.482c2.642,1.319 4.124,6.205 5.648,8.693c1.641,2.683 4.206,5.368 4.848,8.49c0.29,1.683 -0.222,3.285 0.18,4.929c2.882,-0.758 6.766,-1.683 8.774,-4.124c2.685,-3.246 1.764,-8.655 1.764,-12.419c0,-3.047 0.12,-6.65 -0.723,-9.737c0.646,0.444 1.246,0.835 1.884,1.165c1.482,0.758 3.405,0.923 4.728,1.803c2.84,1.922 6.128,8.01 7.73,10.534c2.484,3.927 5.687,7.811 7.691,12.059c9.01,19.146 2.363,41.86 -5.73,60.128c-4.205,9.452 -10.577,17.226 -16.024,25.836c-2.925,4.608 -7.173,7.695 -11.417,10.937c-4.561,3.485 -4.923,5.165 -4.89,10.535c0,2.124 -0.364,4.411 -0.11,6.492c0.402,3.603 1.605,4.563 3.207,7.65c2.325,4.607 2.565,8.694 8.295,10.097c2.321,0.559 3.242,0.321 5.528,1.561c2.921,1.517 5.807,3.08 8.689,4.724c4.929,2.804 7.973,5.168 11.579,9.652c2.283,2.767 5.528,5.208 7.25,8.415c0.878,1.602 0.839,2.924 1.443,4.608c0.557,1.521 2.151,3.043 2.441,4.604z" /></svg>