<svg xmlns="http://www.w3.org/2000/svg" viewBox="0 0 956 704" width="956" height="704"><path d="M438.304,697.31c-56.378,-20.917 -85.014,-56.666 -92.391,-115.33c-4.293,-34.142 -6.233,-37.691 -23.107,-42.2c-24.985,-6.676 -54.741,-36.376 -54.741,-54.636c0,-8.205 -3.975,-24.429 -8.83,-36.053c-7.453,-17.833 -13.024,-21.808 -35.657,-25.427c-50.672,-8.102 -83.278,-35.29 -98.391,-82.033c-6.048,-18.713 -9.184,-20.667 -35.938,-22.402c-31.158,-2.021 -38.396,-9.458 -46.844,-48.137c-3.548,-16.249 -6.023,-17.822 -22.763,-14.472c-17.335,3.468 -18.782,2.34 -18.782,-14.64c0,-17.912 1.469,-18.735 55.666,-31.191c138.442,-31.818 265.329,-45.524 421.475,-45.524c156.146,0 283.038,13.705 421.475,45.524c53.807,12.367 55.666,13.393 55.666,30.744c0,17.214 -1.025,17.815 -24.987,14.6c-24.481,-3.284 -25.029,-2.921 -27.038,17.991c-1.661,17.287 -8.397,26.065 -35.451,46.204c-34.843,25.933 -39.705,37.751 -24.061,58.438c10.926,14.445 12.578,49.248 3.172,66.822c-7.336,13.709 -50.46,37.774 -67.686,37.774c-6.133,0 -17.078,7.44 -24.329,16.531c-9.827,12.324 -20.958,17.408 -43.721,19.973c-16.797,1.894 -31.488,6.621 -32.65,10.507c-1.162,3.886 -3.657,14.22 -5.545,22.969c-5.627,26.042 -19.621,40.032 -40.729,40.717c-17.078,0.555 -21.968,5.144 -37.84,35.528c-30.744,58.852 -99.469,88.689 -155.978,67.723zM519.861,668.515c84.167,-38.227 85.52,-149.255 2.333,-191.694c-42.523,-21.695 -87.774,-13.052 -121.713,23.25c-32.438,34.694 -39.002,75.53 -18.576,115.551c14.624,28.65 29.046,42.269 58.123,54.883c29.277,12.699 48.552,12.216 79.833,-1.99zM451.91,615.164c-44.27,-29.735 -26.378,-93.634 26.219,-93.634c23.749,0 35.8,8.776 50.147,36.525c9.749,18.849 -5.127,48.611 -30.977,61.98c-23.192,11.993 -19.736,12.362 -45.392,-4.868zM640.875,580.283c10.327,-6.895 21.63,-30.608 21.63,-45.384c0,-15.372 17.628,-26.088 42.899,-26.088c35.624,0 53.829,-32.78 35.469,-63.864c-9.164,-15.514 -11.798,-16.449 -28.529,-10.131c-15.428,5.825 -22.81,4.639 -45.271,-7.255c-34.37,-18.204 -47.528,-17.892 -62.775,1.491c-6.804,8.65 -22.177,17.518 -34.315,19.795c-12.095,2.27 -21.992,5.541 -21.992,7.274c0,1.733 7.236,8.839 16.082,15.799c20.255,15.933 39.596,53.418 45,87.206c4.12,25.768 14.529,32.698 31.804,21.162zM350.769,528.78c0,-3.009 7.126,-15.978 15.836,-28.813l15.836,-23.337l-15.836,-6.023c-13.54,-5.148 -15.836,-10.053 -15.836,-33.82c0,-39.617 -14.621,-51.939 -47.933,-40.408c-29.222,10.115 -36.537,28.562 -27.42,69.13c7.082,31.523 19.953,47.999 46.727,59.818c22.763,10.049 28.628,10.753 28.628,3.449zM805.338,461.632c34.528,-14.427 43.973,-42.892 25.794,-77.743c-14.085,-27.004 -11.842,-44.727 7.299,-57.688c53.998,-36.567 75.048,-74.444 45.15,-81.241c-46.239,-10.511 -76.533,-16.28 -77.187,-14.702c-0.41,0.995 -4.326,8.211 -8.697,16.033c-4.371,7.822 -7.952,22.918 -7.952,33.535c0,24.921 -23.238,37.706 -48.013,26.417c-40.838,-18.607 -45.843,0.257 -5.594,21.074c19.773,10.225 25.378,17.01 26.893,32.533c1.165,11.938 -1.947,22.82 -7.952,27.803c-11.031,9.157 -12.93,32.881 -3.97,49.66c3.243,6.077 7.449,16.055 9.345,22.182c4.175,13.485 16.33,14.064 44.889,2.129zM429.501,448.448c33.123,-14.647 35.782,-17.397 35.782,-36.981c0,-15.203 -5.373,-26.303 -19.086,-39.441c-10.498,-10.058 -19.086,-21.031 -19.086,-24.388c0,-3.357 12.884,-19.874 28.628,-36.709c17.966,-19.206 28.628,-36.469 28.628,-46.342c0,-23.744 -25.97,-60.562 -42.942,-60.881c-12.106,-0.226 -14.316,3.086 -14.316,21.487c0,20.455 -1.898,22.387 -31.808,32.322c-34.59,11.49 -36.746,15.181 -21.996,37.691c8.242,12.579 8.619,19.927 2.371,45.898c-4.094,17.01 -11.798,34.414 -17.119,38.679c-7.877,6.312 -8.183,9.552 -1.647,17.426c5.099,6.143 6.529,17.668 3.919,31.576c-3.218,17.155 -1.653,23.337 7.233,28.506c16.342,9.511 21.693,8.742 61.443,-8.839zM538.445,445.19c2.162,-3.5 10.282,-6.364 18.046,-6.364c7.764,0 20.591,-4.538 28.507,-10.082c13.226,-9.263 14.046,-13.271 10.109,-49.306c-4.563,-41.77 -16.836,-72.758 -30.965,-78.179c-17.44,-6.694 -23.756,-36.042 -13.199,-61.312c5.374,-12.859 9.769,-26.335 9.769,-29.948c0,-3.889 -18.162,-6.566 -44.534,-6.566c-24.492,0 -44.534,1.696 -44.534,3.768c0,2.072 5.726,11.048 12.722,19.944c24.327,30.927 10.203,76.395 -33.872,109.034c-11.138,8.245 -10.69,9.763 8.775,29.849c17.848,18.413 20.079,24.371 17.188,45.912c-3.523,26.259 -3.437,26.32 53.654,38.66c2.417,0.523 6.166,-1.912 8.328,-5.412zM732.033,397.153c10.744,-15.923 19.537,-33.039 19.537,-38.044c0,-5.005 -11.358,-14.889 -25.235,-21.969c-31.444,-16.044 -40.871,-32.907 -35.866,-64.191c2.195,-13.726 1.111,-25.922 -2.503,-28.155c-3.505,-2.167 -6.375,-10.929 -6.375,-19.469c0,-13.268 -3.01,-15.538 -20.675,-15.583c-11.371,-0.03 -35.056,-1.784 -52.632,-3.897l-31.958,-3.842l-10.577,33.072c-10.217,31.95 -9.553,51.063 1.779,51.063c12.915,0 37.72,48.246 37.72,73.365c0,29.233 8.614,41.146 29.749,41.146c7.963,0 23.854,5.715 35.308,12.7c30.399,18.534 39.99,16.018 61.731,-16.198zM279.681,392.016c9.356,-4.658 30.53,-12.124 47.049,-16.594c17.278,-4.676 31.264,-12.527 32.926,-18.486c10.028,-35.965 10.258,-50.102 0.941,-57.837c-12.623,-10.478 -12.623,-31.778 0.006,-41.012c8.855,-6.474 8.823,-9.598 -0.319,-31.477c-7.193,-17.217 -12.986,-23.203 -19.894,-20.553c-5.361,2.056 -13.459,3.739 -17.995,3.739c-4.536,0 -11.853,8.697 -16.257,19.33c-9.087,21.938 -23.483,31.565 -47.196,31.565c-11.479,0 -16.323,3.4 -16.323,11.452c0,14.658 -12.062,26.72 -26.715,26.72c-16.959,0 -74.875,33.639 -74.982,43.552c-0.127,12.423 23.964,44.305 40.112,53.07c7.629,4.142 28.188,10.83 45.681,14.865c25.991,5.99 32.19,5.759 33.884,-1.269c1.139,-4.731 9.73,-12.412 19.086,-17.067zM174.395,300.409c10.698,-9.642 10.273,-10.621 -7.952,-18.283c-15.105,-6.353 -19.256,-12.049 -19.256,-26.428c0,-10.082 -1.535,-19.871 -3.416,-21.748c-2.979,-2.979 -85.432,11.677 -89.7,15.945c-2.599,2.599 8.923,49.604 13.206,53.886c2.151,2.151 15.053,3.252 28.67,2.448c13.617,-0.804 26.736,1.736 29.149,5.644c5.517,8.927 34.027,2.295 49.297,-11.468zM775.924,273.365c1.15,-12.217 6.283,-26.87 11.409,-32.563c11.87,-13.178 6.507,-15.468 -50.56,-21.577c-36.144,-3.87 -42.461,-3.075 -42.461,5.363c0,5.451 3.178,11.875 7.064,14.273c4.023,2.488 5.641,13.124 3.758,24.723c-3.152,19.424 -2.093,20.658 23.156,26.934c39.732,9.873 45.282,7.877 47.634,-17.149zM229.889,267.055c2.991,-12.857 8.498,-16.516 28.734,-19.086c18.55,-2.358 27.094,-7.299 32.988,-19.086c6.386,-12.771 6.369,-16.26 -0.091,-17.705c-9.472,-2.118 -131.699,15.677 -135.791,19.768c-8.174,8.174 7.464,35.349 25.311,43.985c28.419,13.756 44.42,11.173 48.853,-7.881zM414.163,229.302c11.171,-20.874 7.532,-25.867 -18.86,-25.867c-27.662,0 -31.983,7.684 -14.92,26.538c13.583,15.01 25.515,14.772 33.78,-0.671zM64.483,171.914c0,-7.253 -3.45,-18.713 -7.671,-25.468c-6.323,-10.126 -5.57,-14.603 4.304,-25.513c9.18,-10.143 10.225,-14.977 4.49,-20.714c-9.125,-9.125 -9.911,-30.388 -1.122,-30.388c3.5,0 6.364,3.944 6.364,8.762c0,4.818 4.296,12.326 9.543,16.682c12.722,10.558 12.049,16.256 -3.658,30.891c-8.445,7.87 -10.739,13.822 -6.364,16.528c8.62,5.33 8.97,33.221 0.479,38.467c-3.5,2.162 -6.364,-2.001 -6.364,-9.255zM900.079,168.746c2.098,-5.472 -3.315,-14.24 -13.263,-21.489l-16.812,-12.247l17.125,-20.354c11.699,-13.9 17.125,-27.66 17.125,-43.403c0,-23.662 7.828,-22.477 15.29,2.316c2.626,8.729 -1.473,21.338 -11.963,36.799c-13.195,19.444 -14.317,24.151 -6.463,27.165c10.96,4.207 13.161,40.453 2.457,40.453c-3.874,0 -5.447,-4.159 -3.495,-9.243zM176.736,144.933c2.637,-16.253 0.346,-23.966 -9.873,-33.215c-17.3,-15.659 -17.606,-48.102 -0.588,-62.673c6.999,-5.991 12.722,-16.816 12.722,-24.055c0,-7.239 2.864,-11.391 6.364,-9.23c10.489,6.483 7.211,27.781 -6.364,41.354c-16.28,16.28 -16.173,33.079 0.309,47.994c14.361,12.997 15.492,53.939 1.613,58.495c-5.325,1.748 -6.584,-3.878 -4.186,-18.668zM675.228,154.41c-14.377,-5.254 -38.172,-28.495 -38.172,-37.278c0,-4.26 7.858,-9.718 17.461,-12.128c28.727,-7.211 33.347,-14.527 29.607,-46.91l-3.42,-29.609l13.008,27.378c15.381,32.368 8.832,50.591 -20.323,56.562c-21.122,4.328 -19.575,14.707 3.9,26.15c24.806,12.093 23.12,25.042 -2.062,15.835zM793.809,154.49c-2.239,-2.239 -4.068,-10.749 -4.068,-18.914c0,-10.454 3.654,-14.845 12.348,-14.845c20.561,0 22.795,-13.81 4.582,-28.331c-16.718,-13.331 -24.353,-48.012 -10.568,-48.012c3.5,0 6.364,5.594 6.364,12.436c0,6.842 7.354,19.789 16.341,28.778c19.003,19.003 18.2,35.679 -2.151,44.631c-7.902,3.474 -13.019,9.825 -11.374,14.109c3.372,8.784 -5.229,16.393 -11.47,10.148zM563.925,138.276c-14.732,-12.671 -18.365,-20.828 -17.822,-40c0.424,-14.867 4.564,-26.253 10.828,-29.761c5.58,-3.122 10.145,-9.829 10.145,-14.903c0,-5.074 2.864,-9.226 6.364,-9.226c10.537,0 7.182,19.217 -6.364,36.437c-16.341,20.773 -16.046,24.437 3.505,43.993c22.047,22.047 16.462,33.346 -6.657,13.459zM293.513,124.416c0,-12.002 4.292,-16.341 19.453,-19.673c25.232,-5.541 23.436,-26.427 -3.548,-41.262c-14.218,-7.816 -19.608,-15.854 -21.138,-31.51c-1.128,-11.557 0.971,-24.04 4.666,-27.735c10.026,-10.026 15.296,-0.93 7.695,13.275c-7.702,14.39 -1.084,24.827 26.648,42.023c14.504,8.993 17.498,14.901 15.904,31.366c-1.527,15.78 -5.308,20.757 -17.014,22.413c-8.301,1.173 -16.48,7.595 -18.237,14.316c-4.527,17.316 -14.427,15.109 -14.427,-3.216zM371.233,127.87c-2.107,-5.495 2.14,-13.217 10.231,-18.589c9.664,-6.419 13.838,-15.67 13.838,-30.679c0,-11.82 2.864,-21.489 6.364,-21.489c9.612,0 8.036,57.173 -1.59,57.659c-4.373,0.223 -1.513,2.993 6.363,6.155c21.39,8.597 17.295,16.341 -8.641,16.341c-14.383,0 -24.303,-3.512 -26.561,-9.4zM471.646,127.836c0,-6.631 5.682,-13.469 12.722,-15.308c10.071,-2.635 12.722,-8.677 12.722,-28.994c0,-14.119 3.031,-27.54 6.738,-29.832c3.707,-2.292 5.929,-10.333 4.942,-17.87c-0.987,-7.54 0.99,-13.707 4.395,-13.707c6.254,0 6.199,4.791 -0.743,65.21c-3.13,27.252 -6.067,33.402 -15.945,33.402c-6.661,0 -12.109,4.296 -12.109,9.543c0,5.247 -2.864,9.543 -6.364,9.543c-3.499,0 -6.363,-5.393 -6.363,-11.983z" /></svg>