<svg xmlns="http://www.w3.org/2000/svg" viewBox="0 0 668 876" width="668" height="876"><path d="M668.214,776.23c0.604,-4.36 -2.951,-1.224 -7.289,0.348c-4.188,1.522 -8.107,3.264 -11.847,5.703c-5.547,3.619 -11.655,6.3 -17.209,9.884c-4.131,2.667 -8.277,5.966 -12.693,8.263c-2.638,1.379 -4.821,3.406 -7.637,4.487c-2.716,1.045 -5.603,1.643 -8.277,2.809c-5.44,2.354 -10.233,5.49 -15.289,8.334c-5.504,3.101 -11.428,4.331 -17.188,6.628c-5.817,2.311 -10.589,4.822 -16.562,6.386c-5.525,1.444 -10.673,4.103 -15.893,6.059c-5.625,2.119 -11.235,3.406 -16.59,5.703c-2.681,1.152 -5.084,2.908 -7.566,4.167c-2.545,1.287 -6.208,1.934 -8.981,2.588c-5.319,1.251 -10.005,3.989 -14.606,6.471c-5.795,3.128 -11.719,4.608 -17.877,6.108c-5.725,1.394 -11.4,3.883 -17.188,5.248c-2.958,0.697 -5.966,1.522 -8.917,2.233c-2.979,0.726 -5.93,1.842 -8.917,2.546c-5.803,1.365 -11.087,1.571 -17.195,1.557c-3.52,-0.015 -6.229,1.123 -9.55,1.301c-2.709,0.15 -5.596,-0.434 -8.277,-0.078c-3.136,0.42 -5.596,1.366 -8.917,1.323c-3.072,-0.036 -5.354,1.145 -8.277,1.301c-2.824,0.157 -6.756,0.498 -9.444,-0.135c-0.939,-0.22 -1.522,-0.981 -2.61,-1.216c-1.308,-0.277 -3.128,0.043 -4.508,0.05c-6.364,0.021 -12.736,0 -19.1,0c-6.059,0 -11.129,-1.273 -17.195,-1.273c-5.945,0 -11.89,-0.057 -17.828,0c-3.249,0.029 -5.76,-1.223 -8.917,-1.287c-2.759,-0.057 -5.525,0.014 -8.277,0.014h-17.835c-2.972,0 -5.945,-0.043 -8.917,-0.007c-2.986,0.042 -5.333,-1.145 -8.277,-1.266c-2.859,-0.121 -6.521,-0.817 -9.266,-1.557c-1.878,-0.505 -4.203,-1.6 -6.123,-2.148c-11.428,-3.221 -21.654,-7.182 -32.37,-12.537c-10.162,-5.084 -19.321,-10.211 -29.824,-14.485c-4.445,-1.806 -8.925,-4.466 -13.483,-5.568c-5.341,-1.294 -11.101,-2.411 -16.555,-4.466c-5.839,-2.191 -12.331,-3.592 -17.899,-6.372c-5.028,-2.503 -9.536,-6.329 -14.571,-8.91c-3.754,-1.928 -6.549,-3.314 -9.564,-6.372c-2.218,-2.254 -4.465,-4.657 -7.125,-6.364c-4.104,-2.631 -7.744,-6.769 -12.26,-8.668c-2.731,-1.144 -6.386,-1.386 -9.266,-2.14c-2.816,-0.74 -5.468,-1.565 -8.277,-2.212c-5.284,-1.216 -10.048,-4.559 -15.282,-5.803c-2.738,-0.654 -4.21,-1.273 -6.692,-2.51c-1.721,-0.861 -3.791,-2.183 -5.54,-2.745c-2.439,-0.782 -5.454,-2.304 -8.149,-2.738c-1.237,-0.199 -2.297,0.135 -3.541,-0.213c-1.202,-0.335 -1.892,-0.939 -3.456,-1.003c-11.349,-0.477 -23.239,-0.562 -34.588,0.078c1.28,-1.777 5.141,-1.806 7.196,-2.332c1.479,-0.377 2.894,-0.064 4.345,-0.384c0.925,-0.206 1.529,-0.988 2.61,-1.216c3.128,-0.669 7.324,0.128 10.524,0.078c3.478,-0.057 6.407,-1.23 9.899,-1.294c1.856,-0.029 2.767,-0.555 4.459,-1.003c1.593,-0.42 2.88,-0.064 4.459,-0.235c1.65,-0.178 2.838,-1.11 4.459,-1.387c1.238,-0.213 2.582,0.341 3.819,0.128c1.842,-0.313 3.165,-1.258 5.099,-1.365c1.259,-0.072 2.553,0.028 3.819,0.028c2.972,0 5.945,-0.021 8.917,0c3.278,0.022 5.802,-1.13 8.917,-1.301c2.716,-0.15 5.575,0.391 8.277,0.078c3.114,-0.37 5.603,-1.344 8.91,-1.323c3.256,0.021 5.269,-0.825 8.284,-1.344c1.65,-0.277 3.164,0.228 4.807,-0.22c0.953,-0.256 2.311,-1.309 3.456,-1.636c2.354,-0.675 4.7,-1.671 6.99,-1.927c1.686,-0.185 3.186,0.213 4.836,-0.249c1.01,-0.284 1.451,-0.889 2.802,-1.024c2.88,-0.292 5.426,-1.152 8.306,-1.252c3.157,-0.113 5.262,0.932 8.32,1.252c1.231,0.121 1.92,0.839 2.795,1.024c1.436,0.299 2.702,0.072 4.174,0.228c1.643,0.185 2.852,1.11 4.459,1.394c1.415,0.249 3.022,-0.149 4.466,-0.078c1.707,0.079 2.148,0.64 3.456,1.003c1.244,0.341 2.304,0.007 3.541,0.213c2.915,0.469 6.08,1.891 8.91,2.581c2.666,0.647 5.326,1.365 7.644,2.581c4.288,2.255 9.721,3.812 14.649,5.099c6.35,1.65 12.103,5.853 18.46,7.353c10.787,2.553 22.236,6.642 33.756,6.656c1.578,0 3.633,-0.42 5.141,-0.05c1.038,0.249 1.707,1.003 2.61,1.209c2.959,0.697 5.455,-0.171 8.171,-0.882c6.073,-1.585 11.912,1.032 17.828,0.996c5.732,-0.043 11.463,0 17.195,0c3.186,0 6.371,-0.05 9.55,-0.007c2.816,0.035 4.309,-1.088 6.997,-1.266c5.461,-0.37 10.653,-2.517 15.929,-3.79c1.82,-0.433 3.321,-0.988 5.127,-1.308c1.166,-0.206 1.899,-0.746 2.802,-0.988c2.795,-0.754 5.909,-0.676 8.697,-1.522c10.112,-3.057 20.438,-7.289 30.5,-9.941c1.743,-0.462 3.485,0.178 5.163,-0.22c1.237,-0.292 1.721,-1.145 3.065,-1.387c1.245,-0.221 2.525,0.228 3.762,-0.057c1.237,-0.285 1.792,-1.003 3.264,-1.195c2.866,-0.384 6.052,0.028 8.946,0.028c3.2,0 5.319,0.526 8.277,1.166c2.994,0.64 5.575,0.292 8.32,1.344c2.283,0.874 4.409,1.848 6.969,2.46c5.753,1.38 11.634,3.442 17.259,5.184c2.169,0.669 4.501,1.721 6.585,2.297c1.444,0.399 2.802,-0.028 4.224,0.235c1.337,0.249 1.82,1.095 3.072,1.387c1.415,0.342 3.058,-0.234 4.523,0.043c1.565,0.306 2.809,0.981 4.452,1.166c2.801,0.313 5.44,0.867 8.284,1.223c5.817,0.726 11.421,2.923 17.195,3.94c3.079,0.541 6.478,-0.625 9.55,0.043c3.35,0.732 5.618,1.159 9.266,1.166c5.831,0 11.655,0 17.479,0c5.796,0 12.089,-0.718 17.835,-0.05c3.15,0.37 5.539,1.337 8.91,1.323c2.745,-0.015 5.546,0.177 8.277,0.028c3.129,-0.17 5.632,-1.344 8.917,-1.301c3.022,0.035 5.539,-0.341 8.327,-1.273c1.322,-0.448 2.346,-0.996 3.726,-1.323c1.372,-0.327 2.802,0.163 4.224,-0.235c0.989,-0.277 1.479,-0.868 2.802,-1.024c1.465,-0.164 3.022,0.263 4.487,0.078c5.504,-0.697 8.881,-5.575 13.653,-7.438c1.635,-0.633 3.264,0.199 4.878,-0.185c1.039,-0.249 1.366,-1.166 2.411,-1.408c1.223,-0.285 2.752,-0.299 3.89,-0.569c1.031,-0.249 2.389,-0.561 3.541,-0.917c1.294,-0.391 1.735,-0.953 3.449,-1.01c1.521,-0.043 2.752,0.142 4.188,-0.263c1.003,-0.284 1.472,-0.875 2.802,-1.024c1.429,-0.164 3.036,0.035 4.487,0.028c2.972,0 5.945,0.014 8.917,0c1.302,0 3.243,-0.37 4.523,-0.064c1.038,0.256 1.373,1.152 2.418,1.408c2.93,0.704 6.343,-1.046 9.024,0.526c1.813,1.052 3.492,3.804 3.776,5.774z" /> <path d="M487.361,814.438c-4.95,-8.946 -1.956,-20.124 2.894,-30.528c3.613,-7.744 5.284,-16.164 7.012,-24.306c0.782,-3.669 1.294,-7.623 1.557,-11.392c0.27,-3.925 1.301,-7.488 1.273,-11.463c-0.028,-3.612 0,-7.218 0,-10.83c0,-1.472 0.12,-2.987 0.028,-4.459c-0.107,-1.828 -1.202,-3.343 -1.081,-5.092c0.128,-1.913 1.073,-3.513 1.052,-5.732c-0.021,-1.7 -0.007,-3.4 0,-5.092c0.007,-3.335 -0.896,-5.298 -1.301,-8.256c-2.055,-15.083 2.56,-31.36 -0.96,-46.13c-1.358,-5.675 0.775,-10.823 1.038,-16.299c0.221,-4.615 -1.138,-8.377 -1.358,-12.807c-0.341,-6.983 -3.925,-13.226 -3.79,-20.309c0.05,-2.532 -0.932,-4.011 -1.337,-6.372c-0.242,-1.415 0.206,-2.93 -0.043,-4.352c-0.163,-0.96 -0.995,-2.652 -1.287,-3.804c-0.277,-1.117 -0.91,-2.56 -1.273,-3.819c-0.256,-0.896 -0.988,-0.925 -1.223,-1.97c-0.178,-0.804 0.277,-1.806 0.142,-2.617c-0.277,-1.65 -0.931,-3.478 -1.308,-5.092c-0.739,-3.144 -1.87,-6.393 -2.702,-9.444c-1.422,-5.206 -4.21,-11.335 -6.407,-16.619c-1.423,-3.427 -1.636,-7.089 -2.667,-10.588c-0.696,-2.361 -2.083,-4.679 -2.908,-7.275c-2.162,-6.827 -4.843,-13.576 -7.161,-20.388c-2.034,-5.988 -5.013,-11.264 -4.935,-17.835c0.05,-3.911 -1.344,-7.04 -1.273,-10.823c0.064,-3.484 -1.081,-6.201 -1.273,-9.557c-0.22,-3.747 -1.273,-6.905 -1.28,-10.823c0,-3.399 0,-6.791 0,-10.19c0.007,-1.615 -0.341,-3.528 -0.064,-5.092c0.327,-1.863 1.265,-3.151 1.372,-5.099c0.199,-3.712 0.1,-6.67 0.96,-10.183c0.739,-2.993 2.417,-5.817 2.901,-8.917c0.548,-3.548 1.088,-6.72 2.162,-10.19c2.084,-6.706 6.393,-12.345 7.993,-19.108c0.803,-3.392 1.116,-6.855 2.197,-10.19c0.555,-1.706 0.981,-3.406 1.593,-5.084c0.583,-1.607 1.571,-2.709 2.254,-4.11c2.951,-6.038 5.924,-12.615 8.249,-18.795c1.258,-3.363 2.183,-6.784 3.854,-9.934c1.5,-2.838 2.787,-6.009 3.783,-9.195c2.034,-6.563 4.451,-13.504 4.743,-20.38c0.149,-3.534 2.19,-6.286 3.221,-9.543c1.002,-3.172 1.394,-6.194 2.19,-9.28c1.28,-4.928 4.43,-10.781 7.04,-15.538c3.136,-5.717 6.364,-13.988 6.72,-20.409c0.099,-1.892 -0.349,-3.876 0.078,-5.732c0.462,-2.027 1.13,-2.916 1.173,-5.092c0.071,-3.171 0.036,-6.378 -0.007,-9.55c-0.05,-3.762 1.28,-6.947 1.273,-10.83c-0.014,-3.178 0,-6.364 0,-9.55c-0.007,-12.764 -3.761,-25.685 -9.557,-36.935c-1.145,-2.233 -3.406,-4.317 -4.174,-6.649c-0.932,-2.844 -1.188,-4.992 -1.508,-8c-0.398,-3.776 -2.795,-6.179 -4.217,-9.55c-1.195,-2.83 -2.119,-5.483 -3.314,-8.327c-1.28,-3.057 -2.276,-6.371 -3.627,-9.5c-1.365,-3.157 -3.377,-6.158 -4.06,-9.55c-0.384,-1.884 -0.519,-3.115 -1.074,-4.743c-0.526,-1.55 -1.351,-3.214 -1.65,-4.814c-0.313,-1.636 0.519,-3.549 0.128,-5.163c-0.284,-1.188 -1.073,-1.821 -1.372,-3.065c-0.476,-2.012 -0.441,-3.726 -1.237,-5.781c-0.682,-1.764 -1.201,-3.215 -1.301,-5.099c-0.178,-3.122 0.483,-6.457 0.071,-9.55c-0.27,-2.033 -1.202,-3.64 -1.344,-5.724c-0.149,-2.197 0.526,-2.474 1.017,-4.11c0.896,-2.98 1.614,-6.087 1.557,-9.266c-0.078,-4.117 1.486,-5.241 3.534,-8.597c1.707,-2.78 1.138,-5.667 2.482,-8.597c1.735,-3.769 0.874,-6.3 1.557,-10.19c0.341,-1.927 1.522,-3.058 1.401,-5.127c-0.1,-1.749 -1.038,-2.218 -1.401,-3.726c-0.868,-3.598 0.825,-6.947 1.408,-10.254c0.555,-3.157 -0.114,-6.962 -0.071,-10.183c0.022,-1.827 -0.725,-2.809 -0.988,-4.11c-0.306,-1.522 -0.185,-3.015 -0.569,-4.523c-0.591,-2.311 -2.361,-5.105 -4.331,-6.748c1.664,-0.156 5.832,2.269 7.204,3.243c2.332,1.664 4.843,3.811 6.976,5.767c1.877,1.707 3.612,3.613 5.404,5.412c0.839,0.839 1.764,1.657 2.546,2.553c1.401,1.607 0.817,1.749 1.557,3.534c1.209,2.93 3.293,5.917 4.537,8.882c1.188,2.809 1.103,6.542 1.835,9.6c0.391,1.656 1.131,2.588 1.337,4.38c0.185,1.643 -0.028,3.463 -0.028,5.12c0,3.392 -0.05,6.791 -0.007,10.183c0.043,3.356 -1.671,5.333 -3.47,8c-1.785,2.659 -3.178,4.658 -4.046,7.943c-1.615,6.122 -2.667,11.733 -2.667,18.453c0,3.819 0.021,7.644 0,11.463c-0.015,1.671 -0.164,3.221 0.284,4.807c0.164,0.597 0.854,0.59 1.06,1.486c0.192,0.846 -0.334,1.849 -0.142,2.688c0.434,1.863 1.266,2.126 1.358,4.38c0.057,1.55 -0.377,3.52 0.085,4.999c0.96,3.094 4.971,5.277 6.649,8.1c3.136,5.255 5.412,10.944 7.545,16.839c1.408,3.897 2.794,7.374 4.7,10.873c1.272,2.333 2.467,5 3.292,7.588c1.159,3.619 2.375,7.196 3.506,10.837c1.031,3.321 2.98,6.762 3.57,10.19c0.597,3.47 -0.526,7.31 -0.114,10.823c0.213,1.821 1.123,3.279 1.365,5.092c0.221,1.642 -0.44,3.527 -0.092,5.148c0.363,1.685 1.145,2.581 1.351,4.38c0.185,1.636 -0.021,3.47 -0.028,5.12c-0.028,3.683 1.316,6.592 1.266,10.19c-0.043,3.577 -0.676,7.957 -0.064,11.463c0.334,1.892 1.401,3.094 1.401,5.092c0,1.984 -1.067,3.236 -1.401,5.099c-0.54,3.086 0.021,7.04 0.064,10.19c0.05,3.584 -1.287,6.514 -1.266,10.183c0.036,7.914 -2.026,15.367 -3.861,22.926c-0.861,3.555 -1.693,7.331 -3.115,10.83c-1.408,3.47 -2.126,6.848 -3.854,10.183c-1.842,3.577 -3.449,7.139 -4.736,10.83c-1.23,3.513 -3.406,6.599 -4.494,10.19c-2.304,7.537 -6.25,14.108 -9.884,21.013c-3.648,6.926 -6.777,14.144 -9.785,21.013c-0.96,2.176 -2.603,4.175 -3.57,6.436c-0.469,1.088 -0.96,1.963 -1.436,3.072c-1.408,3.271 -1.713,6.834 -2.517,10.233c-1.607,6.848 -6.784,12.821 -7.516,19.74c-0.377,3.584 -1.593,6.919 -2.581,10.126c-0.498,1.614 -0.725,3.477 -1.273,5.191c-0.369,1.159 -1.031,2.56 -1.308,3.726c-0.406,1.707 0.156,4.032 0.078,5.81c-0.078,1.977 -0.881,2.389 -1.173,3.918c-0.562,2.93 -0.107,6.422 -0.107,9.444c0,7.161 -0.776,14.862 0.988,21.646c0.505,1.956 0.007,3.762 0.235,5.732c0.206,1.828 1.159,3.271 1.365,5.099c0.199,1.7 -0.306,3.407 0.064,5.092c0.413,1.892 0.861,3.165 1.131,5.099c0.982,7.047 4.857,13.881 5.163,21.006c0.291,6.82 4.216,13.099 6.492,19.748c2.233,6.528 3.663,13.141 6.564,19.74c2.901,6.592 4.821,13.085 7.445,19.634c1.017,2.532 3.15,5.682 3.733,8.313c0.185,0.839 -0.334,1.856 -0.142,2.688c0.207,0.874 0.903,0.91 1.067,1.486c0.406,1.515 0.242,3.001 0.562,4.53c0.15,0.69 0.804,1.87 0.996,2.802c0.177,0.896 0.049,1.6 0.284,2.574c0.412,1.7 1.422,3.421 1.941,5.099c1.009,3.257 2.752,6.819 2.901,10.183c0.149,3.484 1.159,5.859 1.223,9.557c0.071,3.534 1.294,6.499 1.287,10.19c-0.014,6.691 1.323,12.92 1.273,19.74c-0.028,3.882 1.316,6.983 1.273,10.83c-0.043,3.819 -0.007,7.637 0,11.456c0.014,4.26 -1.351,7.908 -1.266,12.132c0.071,3.556 -0.711,6.77 -1.557,10.162c-2.027,8.114 -2.304,16.591 -3.648,24.939c-0.675,4.203 -2.19,7.929 -3.399,11.961c-1.152,3.869 -1.43,7.787 -2.866,11.499c-1.763,4.558 -1.905,9.507 -3.477,13.973c-1.515,4.302 -3.058,8.689 -5.12,12.764c-3.435,6.776 -6.45,13.987 -10.503,20.38c-1.152,1.82 -2.275,3.634 -3.477,5.376c-1.003,1.458 -3.214,2.574 -3.975,3.826c-1.771,2.916 1.671,7.332 -1.465,9.906z" /> <path d="M353.627,743.111c-2.972,-3.797 -6.272,-7.602 -8.917,-11.463c-5.724,-8.349 -9.138,-17.33 -12.736,-26.745c-0.661,-1.721 -0.732,-3.513 -1.237,-5.156c-0.313,-1.01 -1.131,-1.394 -1.38,-2.418c-0.284,-1.209 0.235,-2.674 0.1,-3.918c-0.149,-1.337 -0.74,-1.792 -1.024,-2.802c-1.351,-4.786 -0.206,-11.228 -0.277,-16.27c-0.036,-2.801 0.882,-4.942 1.55,-7.644c0.625,-2.531 0.995,-5.255 1.628,-7.637c1.266,-4.772 1.28,-10.51 2.553,-15.289c1.266,-4.779 0.633,-10.738 0.633,-15.922c0,-5.391 0.725,-11.428 -0.633,-16.555c-1.458,-5.469 -2.73,-11.008 -4.622,-16.555c-1.771,-5.213 -3.52,-10.069 -5.604,-15.289c-2.198,-5.483 -5.59,-9.927 -8.242,-15.282c-2.781,-5.597 -4.95,-10.923 -7.659,-16.555c-2.496,-5.191 -2.282,-11.065 -3.932,-16.448c-1.408,-4.601 -4.032,-9.486 -5.02,-14.073c-0.583,-2.738 0.1,-5.724 -0.583,-8.327c-0.647,-2.425 -0.64,-4.906 -0.64,-7.637c0,-2.766 0.007,-5.525 0,-8.284c-0.007,-3.228 0.804,-5.226 1.337,-8.277c0.477,-2.673 -0.533,-5.603 0.043,-8.277c0.612,-2.83 1.615,-5.617 2.795,-8.277c2.446,-5.497 3.982,-11.293 6.969,-16.626c2.397,-4.274 5.269,-7.964 6.969,-12.672c0.996,-2.752 2.247,-5.625 3.385,-8.32c1.059,-2.538 2.41,-4.537 3.726,-6.99c2.218,-4.117 4.195,-8.839 6.3,-13.02c1.188,-2.36 1.906,-4.814 2.866,-7.324c0.789,-2.084 1.813,-4.779 2.268,-6.649c1.152,-4.729 4.273,-8.825 5.404,-13.732c1.237,-5.376 3.171,-11.072 3.79,-16.562c0.633,-5.639 3.89,-10.781 3.812,-16.555c-0.014,-1.522 0.427,-3.691 0.071,-5.163c-0.249,-1.039 -1.152,-1.373 -1.401,-2.411c-0.569,-2.36 0.036,-5.916 0.064,-8.348c0.029,-3.05 -1.187,-5.354 -1.308,-8.277c-0.121,-2.887 -0.654,-5.504 -1.365,-8.277c-0.711,-2.773 -2.24,-4.522 -3.413,-7.004c-0.768,-1.635 -2.339,-4.209 -2.716,-5.845c-0.619,-2.639 -0.725,-5.504 -1.351,-8.164c-0.583,-2.503 -2.211,-4.622 -2.631,-6.962c-0.924,-5.191 0.171,-11.306 0.064,-16.604c-0.043,-1.842 -0.576,-2.767 -1.003,-4.459c-0.391,-1.522 -0.078,-2.944 -0.391,-4.452c-0.526,-2.531 -1.138,-5.155 -1.806,-7.644c-0.433,-1.643 -0.433,-2.802 -0.604,-4.487c-0.143,-1.458 -0.932,-2.084 -1.195,-3.264c-0.547,-2.418 -0.988,-5.085 -1.415,-7.545c-0.469,-2.652 -0.725,-4.935 -1.337,-7.63c-0.526,-2.353 -2.268,-4.792 -3.086,-7.004c-1.991,-5.348 -3.136,-10.546 -4.423,-15.972c-1.088,-4.572 -2.794,-9.088 -3.982,-13.959c-0.74,-3.036 -1.479,-5.909 -2.304,-8.924c-0.662,-2.432 -1.43,-4.387 -1.387,-6.997c0.022,-1.358 0.32,-3.193 0.043,-4.501c-0.235,-1.088 -1.003,-1.678 -1.216,-2.61c-0.285,-1.237 0.078,-2.453 -0.057,-3.712c-0.178,-1.643 -1.23,-2.866 -1.422,-4.459c-0.213,-1.785 0.925,-2.845 1.266,-4.459c0.27,-1.273 -0.057,-2.546 0.213,-3.819c0.377,-1.813 1.273,-2.29 0.91,-4.174c-0.192,-1.024 -1.308,-1.294 -1.109,-2.866c0.142,-1.159 1.187,-1.856 1.415,-3.1c0.213,-1.18 -0.057,-2.659 -0.05,-3.868c0.015,-2.894 -1.009,-4.388 -1.301,-6.976c-0.313,-2.709 0.143,-5.589 0.043,-8.32c-0.113,-2.908 -0.76,-3.264 -2.716,-5.212c3.215,3.093 7.41,4.821 10.66,8.092c1.735,1.743 3.535,3.208 5.419,4.772c2.304,1.927 3.35,3.406 5.092,5.781c1.159,1.585 2.567,3.022 3.534,4.693c1.301,2.269 0.924,4.615 0.924,7.353c0,2.702 0.334,5.639 0.028,8.313c-0.263,2.34 -1.01,3.883 -1.266,6.372c-0.277,2.603 -1.336,4.075 -1.308,6.976c0.029,2.517 -0.64,5.93 -0.071,8.341c0.256,1.06 0.996,2.013 1.344,3.065c0.412,1.266 0.561,2.624 1.116,3.918c0.896,2.098 1.622,4.21 2.546,6.372c1.017,2.375 1.01,4.21 1.721,6.67c0.562,1.942 2.218,3.897 2.894,6.002c2.902,9.073 8,16.241 11.748,24.853c2.126,4.885 4.096,9.991 6.862,14.485c3.094,5.034 4.146,9.991 6.066,15.445c1.763,4.985 3.406,10.738 3.982,15.915c0.619,5.582 3.577,10.944 3.847,16.562c0.149,3.05 0.91,5.369 1.294,8.277c0.377,2.859 -0.05,6.08 -0.05,8.96c0,5.81 -0.74,12.288 0.64,17.835c1.258,5.063 0.938,10.916 -0.356,15.872c-1.301,4.978 -0.277,11.392 -0.284,16.555c0,3.193 -0.512,5.297 -1.166,8.277c-0.554,2.545 -0.135,5.134 -0.732,7.708c-1.5,6.456 -2.489,12.807 -4.629,19.036c-3.065,8.938 -6.841,18.055 -11.62,26.076c-4.644,7.793 -9.806,15.331 -14.969,22.421c-3.093,4.26 -4.359,9.735 -6.649,14.265c-2.275,4.515 -5.781,7.893 -7.068,13.02c-1.251,4.957 -0.931,10.503 -2.197,15.289c-0.697,2.617 -0.604,5.34 -0.64,8.277c-0.028,2.894 1.031,4.913 1.323,7.637c0.583,5.426 1.528,10.603 2.78,15.922c1.401,5.931 5.007,10.887 7.076,16.562c1.814,4.964 3.2,9.871 5.22,14.692c1.742,4.146 4.018,8.739 5.134,12.807c0.732,2.674 1.65,4.018 3.015,6.606c0.932,1.757 2.411,3.421 3.193,5.348c2.07,5.099 4.146,11.221 5.412,16.583c1.138,4.829 1.977,9.465 3.15,14.009c1.258,4.914 0.917,10.723 2.012,15.815c0.469,2.176 2.069,4.636 2.51,7.111c0.413,2.339 -0.071,5.248 -0.071,7.644c0.007,5.789 1.195,10.774 1.273,16.555c0.036,3.022 -1.244,5.312 -1.287,8.277c-0.028,2.738 -0.739,3.954 -1.301,6.322c-0.391,1.628 0.32,3.477 -0.064,5.141c-0.313,1.373 -1.003,2.404 -1.202,3.826c-0.405,2.944 -1.337,4.814 -2.368,7.637c-1.835,5.02 -4.295,10.083 -6.194,14.933c-1.28,3.264 -2.602,11.535 -6.684,12.452z" /> <path d="M195.705,745.663c7.616,-8.47 8.732,-4.907 8.903,-0.626c0.107,2.823 1.259,5.596 1.92,8.27c0.668,2.652 1.835,5.447 1.927,8.263c0.121,3.563 1.002,5.647 2.517,8.932c2.972,6.428 6.193,12.651 10.517,18.112c3.577,4.509 9.849,12.822 8.647,18.866c-0.768,3.847 -3.264,3.783 -6.414,4.338c-2.376,0.42 -2.667,1.387 -5.092,0.448c-1.629,-0.633 -3.712,-1.643 -5.156,-2.603c-1.984,-1.323 -4.622,-3.748 -6.023,-5.696c-0.718,-0.996 -1.095,-2.141 -1.884,-3.186c-0.874,-1.166 -1.934,-2.276 -2.716,-3.52c-3.833,-6.101 -8.505,-12.117 -11.918,-18.453c-0.967,-1.785 -1.721,-3.719 -2.553,-5.44c-0.484,-0.989 -1.444,-2.411 -1.664,-3.435c-0.669,-3.1 -0.583,-5.781 -1.138,-8.988c-0.37,-2.162 -1.308,-3.435 -1.351,-5.732c-0.029,-1.686 0.22,-3.449 -0.107,-5.092c-0.59,-2.98 -0.448,-2.162 0.014,-5.106c0.369,-2.389 -0.697,-2.119 -1.06,-3.918c-0.683,-3.414 0.775,-7.424 -0.043,-10.788c-0.355,-1.472 -1.18,-2.048 -1.365,-3.719c-0.185,-1.628 0.028,-3.484 0.028,-5.127c0,-3.335 0.74,-7.637 0.05,-10.873c-0.312,-1.458 -1.059,-2.268 -1.372,-3.726c-0.313,-1.472 0.05,-3.619 0.05,-5.141c-0.008,-3.918 0.035,-7.161 0.988,-10.823c0.846,-3.242 0.071,-6.855 0.256,-10.19c0.121,-2.276 1.045,-4.118 1.301,-6.372c0.206,-1.828 0.597,-3.343 1.273,-5.092c1.386,-3.584 1.038,-6.421 1.244,-10.19c0.114,-2.098 1.109,-3.684 1.351,-5.732c0.185,-1.608 -0.05,-3.471 -0.05,-5.092c0,-3.185 0,-6.371 0,-9.557c0,-3.605 -0.683,-7.936 -0.064,-11.463c0.334,-1.885 1.265,-3.122 1.372,-5.092c0.085,-1.679 -0.036,-3.414 -0.036,-5.099c0.007,-1.906 -0.05,-3.819 -0.007,-5.732c0.043,-2.141 0.832,-3.108 1.188,-5.106c0.426,-2.389 -0.711,-2.119 -1.067,-3.918c-0.313,-1.557 -0.114,-3.364 -0.114,-4.985c0.014,-3.605 0.007,-7.218 0,-10.823c0,-3.861 -0.433,-6.549 -1.308,-10.19c-0.497,-2.091 -0.86,-4.274 -1.237,-6.4c-0.277,-1.593 -0.853,-2.261 -1.308,-3.719c-1.003,-3.229 -1.849,-6.372 -3.186,-9.636c-4.985,-12.202 -12.025,-23.346 -22.315,-32.206c-4.374,-3.776 -7.901,-7.751 -11.364,-12.231c-4.707,-6.094 -11.641,-10.076 -16.654,-16.078c-4.139,-4.95 -8.541,-9.245 -12.196,-14.628c-3.705,-5.468 -7.858,-10.994 -11.015,-16.896c-3.115,-5.817 -4.893,-12.352 -8.569,-18.119c-4.011,-6.293 -5.625,-12.344 -7.36,-19.1c-0.568,-2.233 -0.519,-4.146 -1.244,-6.372c-0.548,-1.7 -0.953,-3.421 -1.586,-5.092c-1.216,-3.25 -2.695,-6.848 -3.534,-10.19c-0.832,-3.349 -0.284,-7.353 -0.284,-10.823c0,-3.498 -0.242,-6.876 0.633,-10.19c0.497,-1.863 0.519,-3.591 0.924,-5.447c0.298,-1.358 1.038,-2.233 0.988,-4.103c-0.05,-2.012 0.554,-2.567 0.988,-4.11c0.462,-1.635 -0.064,-3.164 0.22,-4.807c0.598,-3.449 2.205,-6.272 3.25,-9.543c1.102,-3.456 1.87,-6.819 3.029,-10.197c2.361,-6.883 5.703,-13.553 8.754,-20.053c1.607,-3.427 4.067,-6.243 5.404,-9.877c1.294,-3.506 1.33,-6.442 1.287,-10.19c-0.092,-7.005 3.954,-13.092 5.12,-19.755c0.59,-3.342 1.272,-5.817 1.244,-9.536c-0.036,-3.307 0.633,-5.632 1.55,-8.64c1.764,-5.753 5.298,-12.039 8.036,-17.422c1.898,-3.741 1.123,-7.026 1.806,-10.873c0.306,-1.728 0.996,-3.427 1.344,-5.127c0.313,-1.557 1.017,-2.297 1.344,-3.726c0.291,-1.294 -0.135,-2.518 0.213,-3.89c0.234,-0.946 0.867,-1.479 1.052,-2.546c0.277,-1.551 -0.064,-3.499 -0.064,-5.092c0,-3.143 -0.569,-6.919 0.284,-9.906c0.412,-1.472 1.002,-2.233 0.981,-4.11c-0.014,-1.608 0.348,-3.528 0.071,-5.092c-0.327,-1.856 -1.265,-3.144 -1.365,-5.092c-0.093,-1.679 0.028,-3.414 0.028,-5.099c-0.007,-4.103 -1.073,-7.495 -1.244,-11.456c-0.15,-3.57 -2.461,-6.627 -2.61,-10.19c-0.285,-6.67 -2.532,-12.359 -5.22,-18.311c-2.624,-5.81 -6.244,-11.527 -8.761,-17.287c-2.645,-6.051 -4.33,-11.996 -7.004,-17.884c-1.315,-2.901 -2.268,-6.044 -3.143,-8.896c-0.981,-3.179 -2.602,-5.81 -3.541,-8.953c-2.105,-7.033 -5.284,-13.212 -6.969,-20.373c-0.775,-3.264 -2.468,-6.485 -3.698,-9.5c-1.302,-3.2 -1.899,-6.322 -2.674,-9.6c-0.875,-3.733 -2.553,-8.178 -4.487,-11.534c-1.5,-2.596 -1.714,-5.021 -2.83,-7.609c-2.24,-5.177 -2.83,-10.794 -5.134,-15.886c-0.945,-2.084 -2.823,-7.047 -0.092,-8.363c1.785,-0.861 3.058,0.953 4.224,1.102c1.771,0.227 2.055,-1.245 3.506,-1.145c3.435,0.241 4.437,5.639 5.063,7.836c0.768,2.695 2.289,3.982 2.581,6.94c0.299,3.001 1.308,5.838 2.24,8.562c1.017,3.001 1.472,5.966 2.859,8.633c0.86,1.657 1.443,3.314 2.197,5.092c0.604,1.436 2.161,2.823 2.645,4.103c0.54,1.422 0.561,2.532 1.18,3.826c0.761,1.6 1.763,3.193 2.574,4.807c1.429,2.866 2.397,5.71 4.281,8.135c1.621,2.098 2.894,4.139 4.316,6.464c3.335,5.454 5.817,10.752 10.539,15.047c5.006,4.544 8.163,9.18 10.318,15.566c4.636,13.781 11.406,26.354 15.758,40.128c2.255,7.146 3.357,14.72 6.052,21.646c1.451,3.74 1.87,7.616 2.823,11.463c0.889,3.599 2.226,7.382 2.297,11.179c0.143,7.083 -0.021,14.194 -0.028,21.284c0,2.198 0.519,4.978 0.064,7.083c-0.398,1.849 -1.273,3.087 -1.365,5.028c-0.17,3.577 -1.336,6.684 -1.244,10.19c0.064,2.532 -0.925,4.011 -1.337,6.372c-0.285,1.608 0.184,3.456 0.092,5.092c-0.171,3.15 -1.38,6.57 -2.418,9.557c-2.474,7.047 -4.792,13.852 -6.492,21.013c-1.842,7.758 -6.848,13.234 -9.934,20.409c-2.731,6.329 -3.954,13.248 -6.77,19.712c-0.881,2.02 -2.645,3.556 -3.42,5.732c-0.604,1.664 -0.924,3.428 -1.564,5.092c-1.273,3.342 -1.735,6.791 -2.51,10.19c-1.657,7.224 -7.14,12.565 -8.825,19.74c-0.853,3.627 -1.507,7.239 -2.396,10.823c-0.747,3.008 -2.361,5.795 -2.887,8.917c-1.202,7.076 0.071,15.922 1.614,22.642c0.732,3.172 1.13,6.023 2.588,8.882c1.117,2.197 2.51,4.344 3.506,6.62c3.114,7.139 4.124,15.118 8.597,21.781c3.861,5.745 9.223,10.702 13.532,15.964c5.276,6.442 11.356,11.356 17.351,17.052c6.485,6.158 10.453,14.165 16.078,20.942c4.615,5.561 8.804,10.823 12.224,17.237c2.332,4.366 4.985,8.441 7.36,12.736c1.223,2.212 2.126,4.331 3.506,6.457c1.174,1.82 2.703,3.278 3.883,5.07c5.092,7.723 5.846,18.546 8.05,27.257c1.181,4.644 2.823,9.109 3.627,13.817c0.839,4.871 2.026,9.678 2.652,14.613c0.405,3.235 -0.149,6.179 0.569,9.422c0.662,2.993 0.669,5.532 0.619,8.604c-0.043,3.129 0.704,5.384 1.18,8.42c0.455,2.873 0.093,6.016 0.121,8.932c0.043,3.812 -1.123,7.119 -1.351,10.852c-0.171,2.915 0.071,5.93 0.071,8.853c-0.014,6.073 -1.358,11.783 -1.244,17.792c0.078,3.932 -0.974,7.594 -1.273,11.47c-0.249,3.364 -1.003,6.948 -1.593,10.283c-0.996,5.696 -2.823,11.122 -3.57,16.846c-1.124,8.576 -2.667,16.803 -5.369,25.159c-1.145,3.52 -1.642,6.67 -2.517,10.19c-0.611,2.467 -0.448,6.947 -3.541,7.637z" /> <path d="M521.749,667.969c3.243,-1.614 4.736,-3.463 7.595,-5.732c2.823,-2.24 6.009,-3.797 8.64,-6.052c2.937,-2.51 4.942,-5.618 7.324,-8.604c2.155,-2.695 4.978,-4.942 7.26,-7.573c5.369,-6.187 10.645,-12.409 14.748,-19.477c1.956,-3.364 3.314,-7.566 6.123,-10.51c2.56,-2.688 6.229,-3.94 8.484,-6.663c2.709,-3.264 4.58,-6.023 7.964,-8.64c0.704,-0.548 3.186,-3.058 3.975,-3.129c1.685,-0.156 2.475,2.233 3.356,3.748c1.266,2.19 2.581,3.442 3.669,5.646c0.654,1.337 1.621,2.681 2.212,4.053c0.22,0.512 1.223,2.745 1.216,3.143c-0.028,1.202 -0.882,0.996 -0.939,1.948c-0.128,2.396 -0.996,3.52 -1.458,5.554c-0.626,2.724 -0.476,4.366 -1.842,7.068c-0.967,1.913 -1.948,3.499 -3.15,5.212c-2.795,3.954 -5.34,8.277 -8.313,12.032c-2.105,2.652 -5.084,4.836 -7.644,6.962c-3.129,2.61 -5.781,5.596 -8.903,8.277c-2.994,2.574 -6.507,4.231 -9.849,6.016c-3.868,2.084 -7.332,4.281 -11.143,6.4c-2.638,1.465 -5.02,1.372 -7.673,2.524c-2.34,1.017 -4.245,2.56 -6.407,3.847c-3.1,1.842 -7.751,6.308 -15.246,-6.052z" /> <path d="M505.196,625.942c0.128,-2.439 -2.503,-2.46 -3.89,-3.79c-1.245,-1.187 -2.148,-2.631 -3.435,-3.854c-1.949,-1.856 -3.485,-4.153 -5.412,-6.087c-3.036,-3.051 -6.286,-6.322 -9.536,-9.195c-7.076,-6.264 -15.844,-9.237 -24.057,-12.892c-3.791,-1.685 -8.043,-2.979 -11.62,-4.942c-3.577,-1.97 -7.41,-3.378 -10.788,-5.412c-4.7,-2.831 -6.748,-5.632 -7.957,-10.859c-0.896,-3.861 -4.388,-7.58 -4.85,-11.719c-0.598,-5.362 0.028,-11.179 0.028,-16.583c0.007,-3.748 -0.391,-11.876 4.814,-12.58c0.185,2.46 2.07,4.003 3.186,5.852c1.024,1.707 2.019,3.612 2.83,5.44c2.062,4.643 4.209,8.889 7.637,12.75c3.328,3.733 4.729,7.858 8.917,10.823c3.683,2.603 6.698,6.23 10.19,8.932c7.502,5.803 15.886,9.266 23.31,14.948c3.441,2.631 6.186,6.186 8.213,9.806c1.386,2.475 2.61,5.099 3.534,7.737c0.81,2.325 1.777,4.779 0.988,7.481c-3.257,-0.534 -3.598,-7.296 -7.232,-7.282c-0.235,0.789 0.142,1.137 1.116,1.045z" /> <path d="M496.277,538.058c0,-4.843 -0.853,-10.61 0.284,-15.282c1.109,-4.508 3.918,-9.173 6.087,-13.39c2.204,-4.288 6.763,-7.296 10.439,-10.468c4.032,-3.47 8.348,-5.81 12.551,-8.974c3.371,-2.532 6.812,-4.572 9.486,-7.915c1.458,-1.82 3.022,-3.676 4.452,-5.39c0.967,-1.159 1.351,-2.425 2.197,-3.605c0.747,-1.038 1.892,-1.387 2.617,-2.411c2.702,-3.797 7.232,-9.408 7.986,-14.08c0.206,-1.252 -0.412,-2.652 -0.128,-3.883c0.256,-1.074 1.159,-1.323 1.415,-2.418c0.469,-2.076 -0.789,-5.682 2.219,-6.329c0.704,2.361 0.604,6.386 -0.028,8.811c-0.825,3.164 -0.988,5.525 -0.988,8.917c0,2.702 0.747,6.428 0.057,8.981c-0.505,1.906 -2.532,3.634 -3.563,5.305c-2.802,4.544 -5.625,9.067 -7.957,13.732c-2.361,4.708 -3.989,9.778 -6.222,14.692c-0.868,1.899 -1.877,3.712 -2.702,5.618c-1.188,2.78 -1.934,6.464 -3.463,9.045c-2.681,4.523 -7.495,7.829 -11.193,11.399c-3.932,3.797 -9.124,5.376 -13.419,8.64c-2.617,1.984 -4.885,4.572 -7.58,6.386c-0.782,0.526 -2.83,1.671 -3.819,1.664c-1.927,-0.028 -2.965,-1.849 1.273,-9.045z" /> <path d="M464.436,455.273c-4.729,-1.771 -6.215,-6.528 -8.889,-10.539c-1.969,-2.958 -4.252,-5.59 -6.108,-8.626c-2.389,-3.897 -6.421,-7.609 -10.126,-10.446c-3.527,-2.702 -7.787,-4.957 -10.88,-8.249c-3.207,-3.407 -2.937,-6.962 -3.435,-11.179c-0.541,-4.629 -2.503,-9.294 -2.603,-14.009c-0.049,-2.296 -0.142,-4.707 -0.021,-7.004c0.128,-2.289 1.245,-4.074 1.337,-6.364c0.199,-4.708 1.394,-9.472 2.83,-14.009c1.472,-4.644 2.269,-9.621 5.099,-13.881c0.811,0.149 1.536,0.69 2.041,1.472c-1.003,2.026 -1.138,3.527 -1.088,6.037c0.05,2.659 -1.095,4.494 -1.33,7.004c-0.249,2.595 1.265,4.48 1.365,7.004c0.107,2.525 0.718,3.961 1.28,6.372c1.849,7.957 6.976,18.318 12.345,24.448c1.834,2.091 2.936,4.694 4.764,6.756c2.183,2.46 4.729,4.501 6.798,7.068c2.532,3.15 4.224,6.457 5.668,10.098c1.927,4.892 2.233,8.775 2.226,14.037c-0.007,4.921 -1.28,9.081 -1.273,14.009z" /> <path d="M502.645,361.023c-0.711,-1.387 -1.06,-4.729 -2.332,-5.447c1.956,-4.224 3.854,-5.845 8.42,-7.609c4.942,-1.906 9.472,-5.383 14.293,-7.708c2.254,-1.081 4.487,-2.055 6.649,-3.157c1.244,-0.633 2.34,-0.626 3.541,-1.458c1.479,-1.017 2.439,-2.837 3.847,-3.982c4.53,-3.684 7.851,-8.697 11.435,-13.291c7.047,-9.045 10.169,-20.075 13.852,-30.585c1.771,-5.063 3.029,-10.389 5.234,-15.282c1.323,-2.923 3.463,-11.563 7.374,-11.94c0.149,2.617 2.34,5.02 2.894,7.417c0.754,3.243 -0.583,7.26 -1.301,10.254c-0.327,1.358 -1.131,2.439 -1.372,3.826c-0.292,1.636 0.313,3.463 0.092,5.12c-0.377,2.887 -1.948,5.902 -2.887,8.889c-0.804,2.532 -1.152,5.042 -2.517,7.324c-1.6,2.681 -3.804,4.8 -4.53,7.957c-1.287,5.582 -2.311,10.937 -4.388,16.555c-4.523,12.231 -13.198,21.376 -23.879,28.338c-6.229,4.06 -13.17,6.834 -20.132,9.557c-3.492,1.365 -6.656,3.236 -10.19,4.452c-1.458,0.498 -2.133,1.401 -4.11,1.017c-1.82,-0.348 -3.108,-1.749 0.007,-10.247z" /> <path d="M516.656,290.972c1.543,-5.632 -2.574,-6.848 -5.376,-7.964c-3.278,-1.302 -4.75,-2.468 -7.36,-4.708c-2.375,-2.033 -3.478,-5.112 -5.099,-7.708c-1.621,-2.588 -3.47,-5.034 -5.433,-7.388c-4.949,-5.916 -13.973,-6.777 -17.173,-14.549c-1.735,-4.224 -3.413,-8.214 -4.423,-12.452c-1.251,-5.291 -4.857,-9.024 -4.807,-14.642c0.021,-2.332 -0.035,-4.672 -0.007,-7.004c0.043,-2.745 -0.967,-3.861 -1.294,-6.343c-0.576,-4.323 1.65,-11.015 -0.256,-14.926c-1.536,1.394 -1.23,5.262 -1.017,7.289c0.235,2.319 1.223,3.314 2.823,5.035c3.47,3.734 8.185,5.931 12.551,8.626c8.277,5.099 16.554,10.567 21.269,19.392c2.837,5.305 4.65,10.98 6.684,16.619c0.839,2.332 1.358,4.615 1.913,6.976c0.598,2.553 0.235,5.07 0.747,7.637c0.519,2.631 1.18,4.202 1.166,7.004c-0.022,2.404 -0.328,5.077 0.284,7.36c0.498,1.871 1.891,4.281 2.574,6.372c0.548,1.7 1.301,3.691 2.233,5.376z" /> <path d="M534.486,186.536c2.453,-2.162 0.697,-5.532 1.372,-8.292c0.64,-2.624 3.278,-5.063 4.679,-7.275c1.586,-2.51 3.093,-4.395 4.928,-6.663c2.233,-2.759 3.74,-6.891 4.992,-10.247c2.041,-5.511 2.588,-13.127 1.906,-19.108c-0.626,-5.511 -4.971,-10.226 -6.3,-15.388c-1.173,-4.508 2.34,-12.949 7.872,-8.548c1.806,1.436 3.193,5.803 3.548,8.014c0.42,2.66 1.614,6.357 0.917,8.917c-0.804,2.901 -0.583,5.269 -0.939,8.277c-0.199,1.628 -1.116,2.859 -1.387,4.459c-0.284,1.65 0.242,3.164 -0.22,4.814c-0.277,0.988 -0.868,1.479 -1.017,2.802c-0.171,1.465 0.27,3.022 0.071,4.487c-0.398,2.944 -1.28,6.023 -1.956,8.91c-0.761,3.264 -1.287,7.061 -2.482,10.19c-1.472,3.847 -3.669,5.191 -7.076,6.656c-3.407,1.465 -6.905,3.186 -10.468,4.167c-3.449,0.953 -8.939,3.186 1.557,3.826z" /> <path d="M497.55,106.296c-9.038,0.483 -15.381,-3.641 -20.437,-6.713c-3.392,-2.048 -6.521,-4.011 -10.155,-5.703c-5.027,-2.339 -10.012,-5.795 -12.11,-11.15c-1.948,-4.999 -4.103,-10.34 -5.696,-15.232c-0.931,-2.859 -1.095,-5.291 -1.244,-8.327c-0.142,-2.908 -1.329,-5.248 -1.301,-8.277c0.028,-2.752 0.057,-5.518 0,-8.277c-0.057,-2.973 0.789,-5.732 2.716,-1.97c2.616,5.106 3.612,10.802 5.916,16.007c1.031,2.346 1.465,5.233 3.115,7.324c1.6,2.027 4.195,3.52 6.087,5.348c4.252,4.118 9.301,8 14.286,11.186c8.903,5.668 18.681,14.592 18.823,25.785z" /> <path d="M339.62,671.79c-11.392,-4.125 -13.284,-9.174 -16.811,-12.388c-2.937,-2.681 -6.322,-5.191 -9.87,-6.72c-8.163,-3.513 -15.125,-7.772 -22.478,-12.736c-7.822,-5.284 -17.073,-8.555 -20.956,-17.856c-1.714,-4.103 -0.591,-7.659 0.028,-12.075c0.633,-4.452 2.098,-8.754 2.866,-13.241c3.492,0.497 5.732,7.317 7.673,9.813c2.816,3.598 5.625,7.154 8.128,11.072c2.475,3.882 5.099,7.331 8.434,10.51c3.207,3.051 7.502,3.727 11.143,6.052c4.153,2.638 8.597,4.594 12.807,6.969c3.52,1.984 6.13,6.194 9.166,8.946c2.503,2.268 5.724,4.643 7.317,7.58c2.318,4.267 2.56,9.273 2.553,14.073z" /> <path d="M351.083,641.222c0.249,-1.536 4.757,-5.241 6.052,-6.713c1.458,-1.657 3.456,-2.972 4.807,-4.715c1.365,-1.764 1.892,-4.324 2.795,-6.407c1.358,-3.122 2.631,-6.258 3.556,-9.55c0.804,-2.852 1.778,-5.945 1.906,-8.91c0.142,-3.179 -0.213,-6.386 -0.043,-9.557c0.171,-3.122 1.323,-5.625 1.308,-8.91c-0.007,-1.266 -0.1,-2.567 -0.028,-3.826c0.107,-1.984 1.031,-3.207 1.365,-5.092c1.003,-5.696 -1.664,-12.046 1.308,-17.159c1.536,-2.645 4.658,-4.864 7.588,-2.517c1.7,1.358 2.958,4.843 4.06,6.628c1.856,3.008 4.7,4.224 4.836,7.95c0.107,2.923 0.164,6.002 0,8.917c-0.156,2.894 -1.095,5.945 -1.586,8.853c-0.612,3.641 -1.543,7.324 -2.382,10.887c-1.515,6.407 -5.76,12.039 -8.796,17.82c-1.792,3.406 -3.484,6.969 -5.22,10.197c-1.564,2.916 -3.84,6.521 -21.525,12.103z" /> <path d="M312.878,521.499c6.25,0.676 10.766,-5.774 14.293,-10.126c2.34,-2.894 4.508,-5.98 6.72,-8.974c2.161,-2.923 5.048,-5.326 7.004,-8.391c1.778,-2.795 2.226,-5.967 3.776,-8.804c1.223,-2.248 2.866,-4.566 4.153,-6.692c2.73,-4.537 4.935,-8.953 4.814,-14.322c-0.043,-1.884 -0.562,-3.129 1.18,-3.918c0.533,-0.241 3.378,-0.149 3.968,0.036c2.51,0.76 3.264,4.16 3.797,6.428c0.689,2.958 0.654,5.93 1.173,8.91c0.292,1.686 1.444,2.724 1.28,4.459c-0.114,1.117 -0.939,2.674 -1.216,3.812c-3.079,12.565 -5.327,26.752 -13.995,36.999c-1.934,2.282 -4.338,4.145 -6.386,6.421c-1.714,1.906 -2.802,4.217 -4.75,5.945c-2.162,1.92 -4.601,3.428 -6.713,5.412c-1.494,1.408 -4.701,2.667 -5.092,4.459z" /> <path d="M310.328,457.82c-14.471,-0.1 -20.181,-5.547 -23.516,-13.362c-1.6,-3.747 -5.113,-7.04 -7.687,-10.19c-2.944,-3.598 -3.179,-6.321 -3.186,-10.837c0,-1.905 -0.021,-3.818 0,-5.724c0.022,-2.297 -0.504,-3.022 -0.988,-4.75c-0.868,-3.065 -0.669,-7.986 -0.313,-11.207c0.419,-3.805 2.14,-7.538 2.574,-11.435c0.227,-2.034 1.009,-3.72 1.308,-5.732c0.313,-2.055 0.128,-3.264 1.237,-5.276c1.941,1.465 2.503,6.791 2.56,9.102c0.107,3.947 -0.291,7.772 0.612,11.584c0.91,3.811 1.764,7.41 3.84,10.702c1.785,2.837 3.022,5.255 4.437,8.284c3.256,6.947 7.736,12.892 11.164,19.733c2.624,5.234 5.155,14.358 9.991,17.828c-0.519,0.683 -1.195,1.116 -2.034,1.28z" /> <path d="M352.356,405.601l1.06,-0.213c0.199,-1.522 -0.021,-2.83 1.116,-3.982c1.479,-1.5 2.532,-0.32 4.26,-0.832c2.553,-0.761 4.537,-4.508 6.016,-6.507c3.804,-5.127 9.657,-7.879 12.06,-13.909c1.316,-3.307 1.707,-6.77 2.517,-10.219c0.811,-3.442 2.759,-6.72 3.577,-10.19c0.761,-3.25 1.721,-6.706 1.266,-10.219c-0.341,-2.588 -1.529,-5.035 -2.389,-7.417c1.486,0.555 3.684,1.173 4.971,2.29c1.849,1.6 1.792,3.236 2.446,5.127c1.429,4.132 1.87,8.924 1.358,13.404c-0.235,2.069 -1.372,3.854 -1.97,5.732c-0.604,1.892 -0.633,3.577 -0.626,5.732c0.007,2.119 0.533,5.02 0.064,7.068c-0.32,1.408 -1.607,2.816 -2.261,4.039c-2.048,3.833 -4.665,7.14 -6.436,11.207c-1.436,3.307 -2.852,5.959 -5.035,8.924c-2.66,3.612 -8.249,5.113 -12.444,6.208c-5.006,1.308 -10.667,2.766 -9.55,-6.244z" /> <path d="M351.082,361.023c4.8,-10.19 0.306,-9.756 -4.473,-12.693c-2.653,-1.628 -3.556,-4.188 -5.689,-6.414c-1.934,-2.019 -4.024,-3.598 -6.108,-5.404c-1.514,-1.316 -2.915,-3.044 -4.43,-4.466c-1.43,-1.344 -2.994,-1.991 -4.523,-3.179c-3.427,-2.659 -6.016,-5.994 -7.893,-9.806c-2.161,-4.395 -4.586,-7.723 -7.317,-11.812c-1.124,-1.671 -2.575,-3.52 -2.916,-5.404c-0.391,-2.147 0.043,-4.843 0.043,-7.047c0,-4.409 -0.825,-9.692 -0.064,-14.016c0.441,-2.489 2.098,-4.274 1.387,-7.047c-0.328,-1.287 -2.525,-3.925 -0.356,-4.316c0.555,2.752 1.558,4.679 1.586,7.538c0.021,2.468 0.654,4.153 1.273,6.379c0.604,2.183 0.562,2.787 2.503,4.444c1.956,1.671 4.082,3.228 6.123,4.814c7.843,6.129 10.24,17.045 16.86,24.54c1.429,1.621 2.482,2.823 3.456,4.693c1.038,1.984 2.083,4.232 3.15,6.052c2.61,4.458 6.25,8.341 8.974,12.7c2.738,4.373 2.937,9.813 3.456,14.713c0.185,1.706 2.589,5.24 1.131,6.812c-1.443,1.557 -4.856,-0.441 -6.172,-1.081z" /> <path d="M352.356,294.795c5.22,-1.024 7.829,-11.25 9.87,-15.282c1.436,-2.837 3.719,-7.076 4.203,-10.183c-0.043,-0.875 -0.085,-1.749 -0.135,-2.624c0.085,-0.69 0.441,-1.188 1.06,-1.486c0.277,-1.23 0.299,-2.268 0.284,-3.541c-0.057,-3.676 0.263,-6.834 -1.273,-10.254c-1.237,-2.759 -2.773,-5.803 -3.534,-8.846c-1.458,-5.881 1.685,-13.376 4.281,-18.468c4.004,-7.844 9.564,0.583 11.705,4.736c3.243,6.272 -0.057,13.07 1.515,19.506c0.683,2.816 1.785,4.921 1.351,8.263c-0.356,2.667 -1.486,5.092 -2.581,7.545c-1.301,2.93 -2.069,5.76 -2.823,8.704c-0.626,0.299 -0.981,0.789 -1.067,1.479c0.05,0.896 0.092,1.792 0.142,2.688c-0.37,1.593 -1.913,1.764 -1.344,3.755z" /> <path d="M339.623,236.204c-2.951,-2.98 -6.208,-5.142 -9.266,-7.922c-2.532,-2.304 -4.167,-4.644 -7.296,-6.08c-2.731,-1.266 -4.743,-3.271 -7.36,-4.814c-2.347,-1.379 -4.815,-2.396 -7.268,-3.591c-5.319,-2.588 -10.354,-5.589 -15.346,-8.647c-3.847,-2.361 -7.694,-3.513 -10.524,-7.225c-2.859,-3.747 -4.395,-8.106 -6.272,-12.38c-1.736,-3.947 -4.075,-7.403 -5.156,-11.748c-0.491,-1.949 -0.014,-3.776 -0.242,-5.732c-0.242,-2.041 -1.237,-3.634 -1.351,-5.732c-0.171,-3.079 -0.803,-8.504 0.313,-11.356c1.842,0.313 0.889,3.399 0.96,4.992c0.114,2.581 1.259,4.053 2.297,6.393c1.443,3.293 2.695,6.4 4.565,9.529c4.345,7.246 10.695,12.096 16.775,17.721c3.2,2.958 6.741,6.13 10.773,8.064c1.807,0.868 3.343,2.034 5.035,2.866c2.055,1.017 4.408,1.607 6.428,2.83c2.617,1.586 5.924,4.239 7.666,6.82c1.365,2.027 2.353,9.181 5.077,9.458z" /> <path d="M191.879,707.451c0.085,0.341 0.164,0.683 0.249,1.024c3.072,0.228 4.053,2.361 7.388,0.932c1.038,-0.441 2.709,-1.508 3.57,-2.276c1.344,-1.195 0.981,-2.105 1.778,-3.47c3.413,-5.881 7.943,-10.88 11.861,-16.59c1.614,-2.347 3.186,-5.099 4.444,-7.573c1.564,-3.086 1.586,-6.428 3.186,-9.614c1.458,-2.887 3.086,-5.525 4.743,-8.284c1.451,-2.418 4.281,-4.8 4.878,-7.573c0.306,-1.387 0.149,-2.56 0.555,-3.89c0.363,-1.166 1.052,-2.603 1.579,-3.826c1.244,-2.894 2.674,-5.874 5.099,-7.95c2.51,-2.155 3.961,-2.916 6.393,-0.633c1.984,1.863 3.435,4.764 4.174,7.253c1.977,6.62 0.932,12.814 -0.676,19.164c-1.508,5.966 -2.908,11.982 -7.004,17.195c-2.34,2.98 -4.85,5.867 -7.246,8.811c-1.486,1.828 -2.674,3.911 -4.459,5.476c-1.522,1.337 -3.484,2.204 -4.864,3.655c-2.361,2.503 -4.551,6.4 -6.357,9.351c-1.28,2.084 -1.792,4.423 -3.3,6.393c-4.729,6.194 -12.267,7.787 -25.991,-7.573z" /> <path d="M182.965,642.494c9.614,9.301 5.81,7.815 3.826,7.36c-1.792,-0.413 -4.523,-1.579 -6.059,-2.553c-4.637,-2.944 -7.652,-6.052 -13.049,-7.673c-4.843,-1.45 -6.763,-3.271 -9.536,-7.324c-2.788,-4.067 -5.54,-7.58 -8.548,-11.399c-1.998,-2.531 -4.139,-4.935 -5.831,-7.701c-1.493,-2.432 -2.304,-5.283 -3.79,-7.708c-2.88,-4.693 -7.56,-7.737 -9.124,-13.312c-0.583,-2.076 -1.33,-4.821 -1.415,-7.004c-0.114,-2.787 -1.109,-4.935 -1.273,-7.637c-0.178,-2.951 0.888,-4.913 1.372,-7.644c0.398,-2.24 -1.188,-5.596 0.924,-7.26c0.704,3.313 2.589,6.506 4.388,9.493c2.112,3.506 4.274,6.514 7.36,9.159c1.899,1.636 3.129,3.485 5.063,5.099c1.97,1.635 3.712,3.114 5.76,4.636c3.598,2.674 6.45,6.82 9.55,9.97c5.39,5.469 11.2,9.927 15.957,15.993c0.611,0.782 1.749,2.858 1.948,3.79c0.171,0.825 -0.284,1.785 -0.142,2.624c0.213,1.23 1.002,2.069 1.237,3.271c0.776,4.046 -2.062,12.857 1.38,15.822z" /> <path d="M207.162,573.72c-0.533,-3.335 2.809,-6.329 3.534,-9.202c0.917,-3.634 1.344,-7.36 1.529,-11.179c0.1,-1.97 1.01,-3.179 1.372,-5.063c0.391,-2.062 -0.576,-4.409 -0.135,-6.464c0.398,-1.842 1.266,-3.086 1.372,-5.028c0.114,-2.105 -0.028,-4.26 -0.028,-6.372c-0.007,-1.586 0.334,-3.534 0.064,-5.092c-0.327,-1.87 -1.252,-3.122 -1.372,-5.063c-0.121,-2.069 0.484,-4.437 0.1,-6.464c-0.384,-2.012 -1.003,-3.627 -1.308,-5.668c-0.299,-2.055 -1.223,-3.62 -1.337,-5.732c-0.092,-1.678 0.028,-3.406 0.028,-5.092c0,-3.378 -0.69,-7.58 -0.043,-10.873c0.576,-2.944 2.852,-4.444 5.774,-4.437c2.887,0.007 6.564,2.439 8.028,5.056c0.804,1.436 1.536,4.167 2.197,5.796c0.661,1.629 1.138,3.428 1.714,5.092c0.569,1.636 1.287,3.385 1.486,5.084c0.277,2.382 -0.405,4.7 0.235,7.083c0.519,1.941 1.017,2.88 0.981,5.028c-0.021,1.529 -0.412,3.705 -0.057,5.163c0.356,1.472 1.173,2.048 1.365,3.726c0.235,2.055 -0.028,4.316 -0.028,6.393c0,3.755 0.078,6.699 0.988,10.19c1.081,4.124 -0.555,7.559 -0.988,11.463c-0.434,3.911 -1.956,7.595 -2.61,11.463c-0.142,0.825 0.128,1.714 0.1,2.546c-0.078,1.806 -0.619,2.155 -1.031,3.826c-0.498,2.027 -0.732,3.676 -1.401,5.682c-1.756,5.276 -2.916,10.603 -6.805,14.756c-1.252,1.344 -4.26,3.1 -6.08,3.534c-2.247,0.54 -3.911,-0.896 -6.151,-1.294c-0.078,-0.341 -0.149,-0.683 -1.493,-18.859z" /> <path d="M165.131,517.679c-1.18,4.33 -5.539,3.128 -9.87,0.988c-3.605,-1.778 -6.883,-4.203 -10.574,-5.831c-2.346,-1.038 -5.034,-1.572 -7.573,-1.522c-3.249,0.064 -5.248,-0.889 -8.277,-1.323c-1.458,-0.214 -3.029,0.27 -4.487,0.078c-1.23,-0.164 -1.849,-0.747 -2.802,-1.024c-2.29,-0.661 -4.949,-0.277 -7.36,-0.284c-2.418,0 -5.056,0.306 -7.36,-0.284c-2.333,-0.604 -4.601,-2.752 -6.649,-4.188c-4.117,-2.873 -9.415,-5.518 -13.98,-7.303c-5.305,-2.076 -9.323,-5.198 -13.689,-8.917c-3.377,-2.887 -7.438,-6.841 -8.981,-11.143c-1.614,-4.508 -2.845,-11.733 -1.273,-16.462c1.017,0.228 2.574,4.011 3.214,5.312c1.109,2.255 2.147,3.065 3.797,5.028c3.171,3.783 6.983,7.965 11.527,10.29c4.957,2.538 9.7,4.942 15.282,6.3c1.764,0.427 4.303,1.835 6.123,2.155c1.422,0.256 2.923,-0.199 4.345,0.043c1.422,0.249 2.404,1.166 3.826,1.408c1.238,0.213 2.582,-0.341 3.819,-0.128c1.885,0.32 3.115,1.258 5.092,1.365c2.538,0.135 5.112,-0.199 7.644,-0.057c4.864,0.27 9.472,3.378 13.689,5.44c4.409,2.155 8.924,5.113 13.056,7.943c4.523,3.1 9.707,6.691 11.463,12.117z" /> <path d="M129.471,462.914c1.735,-0.356 3.314,-2.994 3.712,-4.565c0.363,-1.422 0.014,-2.88 0.391,-4.352c0.434,-1.692 0.967,-2.61 1.003,-4.459c0.057,-2.752 -0.007,-5.518 -0.014,-8.277c0,-3.591 -0.825,-6.172 -1.308,-9.55c-0.853,-6.073 -2.517,-11.556 -5.369,-17.195c-1.308,-2.581 -2.866,-5.44 -3.399,-8.277c-0.526,-2.823 -0.078,-6.023 -0.107,-8.917c-0.028,-2.916 0.633,-5.518 1.237,-8.27c0.789,-3.563 1.835,-4.359 4.174,-1.628c3.378,3.954 6.997,8.754 8.32,13.369c1.579,5.518 2.773,11.584 5.511,16.796c2.652,5.042 6.3,8.612 6.222,14.756c-0.1,7.73 -1.095,14.407 -3.819,21.653c-1.28,3.413 -2.219,6.976 -3.819,10.254c-0.505,1.045 -1.159,2.176 -1.899,3.122c-1.316,1.671 -3.172,2.724 -10.837,-4.459z" /> <path d="M93.809,396.684c-3.399,-0.405 -5.177,-3.271 -7.922,-4.814c-1.821,-1.024 -3.165,-1.295 -4.843,-2.795c-1.109,-0.995 -2.105,-2.168 -3.15,-3.228c-2.07,-2.077 -3.961,-3.214 -5.419,-5.689c-0.974,-1.65 -2.062,-3.406 -2.866,-5.056c-1.728,-3.541 -4.48,-7.523 -5.163,-11.534c-0.732,-4.317 0.007,-9.6 0.064,-14.002c0.036,-2.475 -0.704,-3.563 -1.301,-5.703c-0.576,-2.041 -0.768,-3.648 -1.557,-5.739c-1.543,-4.081 -3.549,-8.576 -3.499,-12.764c0.029,-2.574 0.022,-4.643 0.619,-7.111c0.648,-2.688 1.835,-5.44 1.956,-8.171c0.114,-2.653 0.782,-4.466 1.273,-7.019c0.192,-0.974 -0.014,-1.892 0.256,-2.88c0.256,-0.96 1.174,-1.387 1.266,-2.681c1.294,0.171 3.065,2.766 3.278,3.954c0.398,2.191 -0.91,4.288 -1.01,6.699c-0.128,3.065 -0.654,6.315 -1.237,9.287c-0.576,2.923 -1.913,5.49 -1.202,8.569c0.263,1.138 1.045,2.006 1.23,3.172c0.213,1.309 -0.199,2.496 0.185,3.826c0.625,2.162 2.41,3.989 3.413,5.838c2.218,4.089 4.423,8.448 6.67,12.473c2.268,4.06 5.703,6.386 8.448,10.055c2.745,3.684 3.151,8.022 4.395,12.388c1.273,4.501 5.611,7.687 7.14,11.74c0.541,1.436 1.238,3.342 1.586,4.75c0.711,2.845 -1.394,3.727 -1.586,6.187c-0.341,0.085 -0.683,0.164 -1.024,0.249z" /> <path d="M118.008,316.446c2.837,-0.021 4.693,-0.149 7.111,-1.102c2.716,-1.074 5.127,-2.66 7.644,-3.982c5.077,-2.667 9.564,-6.194 13.867,-9.721c5.582,-4.572 9.109,-9.87 13.084,-15.822c1.23,-1.835 2.617,-3.008 3.506,-5.02c1.252,-2.816 1.941,-5.106 1.913,-8.292c-0.028,-2.688 -0.327,-5.639 -0.028,-8.306c0.178,-1.529 -0.348,-2.048 1.237,-2.638c1.998,-0.74 2.347,0.64 2.667,1.97c0.604,2.482 -0.228,5.76 -0.085,8.334c0.085,1.572 0.64,2.382 1.017,3.826c0.462,1.742 -0.171,3.484 0.22,5.156c0.569,2.404 2.084,3.954 1.387,6.99c-0.704,3.072 -3.307,4.971 -5.682,7.004c-1.216,1.038 -3.072,2.375 -3.954,3.726c-1.486,2.297 -2.133,5.298 -3.769,7.687c-1.771,2.581 -4.395,4.729 -6.094,7.289c-1.316,1.977 -2.055,4.224 -3.413,6.208c-1.557,2.283 -4.601,4.878 -6.748,6.628c-2.311,1.892 -5.724,1.5 -23.879,-9.934z" /> <path d="M137.112,260.408c-15.431,-3.556 -23.502,-3.919 -26.46,-11.435c-2.489,-6.307 -4.032,-12.722 -6.969,-18.823c-1.358,-2.823 -0.441,-4.587 0.626,-7.666c0.868,-2.51 1.465,-4.935 0.683,-7.929c-1.458,-5.554 -3.478,-10.738 -4.85,-16.555c-0.377,-1.593 -1.024,-3.471 -1.301,-5.099c-0.213,-1.231 0.37,-2.589 0.135,-3.812c-0.476,-2.447 -2.169,-5.611 2.162,-4.843c4.943,0.875 8.619,9.365 10.219,13.753c2.091,5.725 4.06,11.776 4.103,17.828c0.043,6.4 -3.058,12.31 -2.574,18.852c0.469,6.436 5.262,10.318 10.247,13.945c4.75,3.463 10.296,7.004 13.98,11.783z" /> <path d="M148.575,189.083c-0.213,-0.818 -0.149,-1.6 0.185,-2.361c3.285,-0.284 5.589,-1.173 7.452,-3.982c1.088,-1.636 2.119,-3.3 2.901,-5.12c0.782,-1.82 0.967,-4.004 2.148,-5.625c0.924,-1.266 2.091,-1.828 2.944,-3.264c0.974,-1.614 1.493,-3.513 2.482,-5.12c2.524,-4.103 3.563,-5.924 3.541,-10.823c-0.021,-3.499 0.235,-6.869 -0.64,-10.183c-1.017,-3.854 -0.633,-8.043 -0.633,-12.11c0,-3.783 0.292,-7.687 0.028,-11.456c-0.121,-1.756 -0.825,-2.773 -1.195,-4.466c-0.412,-1.877 0.277,-3.854 -0.043,-5.732c-0.583,-3.42 -2.88,-5.39 -2.638,-8.917c0.199,-2.923 0.825,-9.259 4.473,-8.875c2.375,0.256 7.132,2.98 9.28,4.075c2.972,1.515 6.172,5.732 5.44,9.308c-0.377,1.842 -0.832,1.97 -0.747,3.726c0.064,1.244 0.811,3.392 1.273,4.508c1.458,3.548 4.089,5.838 3.292,10.19c-0.341,1.892 -1.287,3.108 -1.372,5.092c-0.064,1.692 -0.22,2.866 -0.604,4.459c-0.846,3.563 -1.636,7.452 -3.179,10.887c-3.072,6.827 -2.873,15.161 -7.332,21.589c-2.574,3.712 -5.092,6.862 -8.59,9.564c-2.702,2.091 -5.945,5.348 -18.468,14.635z" /> <path d="M134.566,126.675c-0.441,-1.7 0.875,-2.041 1.166,-3.292c0.32,-1.372 0.092,-2.923 0.1,-4.352c0.028,-3.207 -1.301,-5.71 -1.259,-8.91c0.071,-5.931 0.74,-12.295 -1.287,-17.835c-2.148,-5.867 -7.396,-8.796 -8.875,-15.218c-0.846,-3.698 -1.301,-6.485 -1.308,-10.254c0,-1.266 0.1,-2.56 0.028,-3.819c-0.107,-1.984 -1.067,-3.214 -1.372,-5.099c-0.484,-2.98 -0.661,-5.924 -1.131,-8.91c-0.491,-3.079 -2.268,-5.796 -2.617,-8.917c-0.356,-3.129 -1.508,-5.604 -1.308,-8.917c0.135,-2.133 0.747,-6.158 2.83,-7.381c4.309,-2.51 9.493,7.481 10.93,10.212c1.301,2.482 1.892,5.988 2.546,8.633c0.334,1.337 -0.007,2.524 0.213,3.826c0.384,2.247 1.33,3.669 1.372,6.087c0.213,11.008 -1.081,22.45 -3.847,33.102c-1.778,6.834 -2.297,13.874 -6.372,19.392z" /> <path d="M98.904,97.387c-2.24,-1.814 -3.229,-4.516 -5.348,-6.436c-1.629,-1.472 -3.968,-2.553 -5.796,-3.755c-3.634,-2.397 -6.976,-5.113 -10.51,-7.652c-8.085,-5.803 -13.973,-14.208 -21.71,-20.466c-4.253,-3.442 -9.863,-6.322 -13.625,-10.411c-3.698,-4.018 -2.859,-9.771 -2.873,-14.969c0,-2.048 -1.06,-6.621 1.756,-6.329c1.543,0.164 4.16,3.983 4.928,5.028c1.642,2.24 2.922,4.586 4.181,6.997c0.726,1.401 1.067,2.34 1.842,3.506c0.775,1.187 1.508,2.218 2.226,3.541c6.279,11.548 19.897,14.976 30.919,20.373z" /></svg>