<svg xmlns="http://www.w3.org/2000/svg" viewBox="0 0 1152 1024" width="1152" height="1024"><path d="M1152,1024h-896c0,-128.968 166.898,-235.64 384,-253.388v-52.78c-70.498,-39.728 -128,-138.772 -128,-237.832c0,-159.058 0,-288 192,-288c192,0 192,128.942 192,288c0,99.06 -57.502,198.104 -128,237.832v52.78c217.102,17.748 384,124.42 384,253.388z" /> <path d="M279.006,832h-279.006c0,-128.968 166.898,-235.64 384,-253.388v-52.78c-70.498,-39.728 -128,-138.772 -128,-237.832c0,-159.058 0,-288 192,-288c119.882,0 164.908,50.27 181.822,126.75c-76.094,14.992 -129.516,54.984 -159.222,119.488c-30.6,66.452 -30.6,147.72 -30.6,233.762c0,59.836 16.078,120.66 46.492,175.894c11.784,21.398 25.438,41.236 40.492,59.02c-75.708,16.778 -144.478,44.264 -199.788,80.414c-17.594,11.5 -33.672,23.762 -48.19,36.672z" /></svg>