<svg xmlns="http://www.w3.org/2000/svg" viewBox="0 0 1024 1024" width="1024" height="1024"><path d="M397.306,832h-397.306c0,-128.968 166.898,-235.64 384,-253.388v-52.78c-70.498,-39.728 -128,-138.772 -128,-237.832c0,-159.058 0,-288 192,-288c192,0 192,128.942 192,288c0,40.636 -9.688,81.262 -25.968,117.8c-134.158,49.714 -230.032,178.966 -230.032,330.2c0,33.268 4.642,65.47 13.306,96z" /> <path d="M1024,736c0,159.058 -128.944,288 -288,288c-159.058,0 -288,-128.942 -288,-288c0,-159.058 128.942,-288 288,-288c159.058,0 288,128.942 288,288zM896,704h-320v64h320z" /></svg>