<svg xmlns="http://www.w3.org/2000/svg" viewBox="0 0 797 896" width="797" height="896"><path d="M643.439,83.793c-8.137,-3.87 -5.558,-4.066 -1.925,-3.487c4.322,0.689 8.501,2.506 12.789,3.415c12.062,2.58 22.417,4.434 30.81,14.063c6.575,7.558 10.755,17.948 18.42,24.561c3.235,2.764 7.594,4.143 11.155,6.433c6.468,4.14 12.208,9.085 18.965,12.826c9.665,5.378 14.569,14.968 20.747,23.725c7.958,11.228 13.881,20.129 16.678,33.573c3.524,17.004 5.412,34.444 13.407,50.069c5.631,11.009 12.933,19.549 12.388,32.119c-0.398,9.084 -1.887,18.785 -3.85,27.687c-6.577,29.756 -9.992,60.023 -15.659,89.962c-2.798,14.715 -5.85,30.593 -14.171,43.528c-1.962,3.016 -4.65,4.979 -6.757,7.886c-4.506,6.251 -6.759,12.791 -8.503,20.166c-2.18,9.299 -4.033,15.405 -1.199,24.888c6.071,20.419 15.189,41.347 15.953,62.858c0.508,14.498 -3.707,29.648 -6.65,43.709c-4.105,19.586 -12.318,37.86 -17.913,56.973c-3.379,11.59 -14.315,17.039 -22.127,25.978c-7.81,8.975 -12.57,20.203 -20.237,29.141c-1.017,1.2 -1.924,2.362 -3.342,3.199c2.47,-4.725 0.438,-11.045 2.072,-16.133c3.452,-10.755 8.139,-20.599 14.424,-30.012c7.667,-11.59 13.19,-24.562 18.167,-37.424c3.126,-7.959 6.502,-15.769 7.195,-24.381c0.435,-5.266 -1.171,-11.079 -1.272,-16.457c-0.182,-7.669 -0.399,-12.864 -5.159,-19.368c-3.453,-4.76 -7.958,-7.848 -11.191,-13.043c-4.578,-7.375 -7.159,-15.043 -12.826,-21.728c-3.962,-4.721 -10.539,-13.915 -10.138,-20.419c3.016,3.124 1.962,10.321 2.435,14.497c1.124,10.065 3.452,20.31 3.887,30.411c0.581,11.955 -2.216,24.019 -5.232,35.536c-1.455,5.56 -4.181,10.756 -6.178,16.134c-1.417,3.816 -2.398,8.83 -5.523,11.809c-3.851,3.633 -8.902,7.269 -13.407,10.283c-8.428,5.633 -16.751,10.72 -24.053,17.841c-13.806,13.407 -24.272,28.631 -34.989,44.436c-6.032,8.939 -10.502,18.495 -15.732,27.797c-2.726,4.83 -6.105,9.12 -9.048,13.769c-3.67,5.888 -6.684,12.318 -10.247,18.205c-3.85,6.358 -10.209,11.444 -16.749,15.26c-9.265,5.413 -17.478,12.536 -26.925,17.586c-6.286,3.378 -13.044,6.102 -19.439,9.301c-11.118,5.487 -23.544,10.683 -35.825,13.117c-6.759,1.296 -14.279,0.095 -21.146,0.239c-18.93,0.326 -31.61,18.241 -45.163,28.123c-15.298,11.192 -31.392,20.384 -45.563,33.101c-3.087,2.797 -20.165,13.916 -16.64,20.456c7.376,-7.557 16.168,-13.444 23.399,-21.256c8.503,-9.229 17.586,-17.805 25.216,-27.796c2.581,-3.416 3.125,-7.048 5.378,-10.501c0.944,-1.492 2.508,-2.582 3.525,-3.998c4.833,-6.832 7.34,-15.225 10.393,-22.89c3.452,-8.647 6.359,-16.133 13.699,-21.982c3.198,-2.544 5.268,-5.705 8.793,-7.958c4.723,-3.015 10.245,-6.031 15.333,-8.393c11.481,-5.304 24.088,-7.992 35.208,-14.243c6.831,-3.815 12.135,-9.121 18.53,-13.517c12.68,-8.721 26.851,-14.097 37.424,-25.542c7.268,-7.886 10.936,-15.915 14.098,-26.016c2.508,-8.068 2.216,-16.605 3.743,-24.853c0.835,-4.47 2.36,-8.795 3.053,-13.263c1.38,-8.538 4.795,-17.041 10.608,-23.763c4.542,-5.268 10.209,-10.356 15.297,-15.224c4.07,-3.927 6.541,-7.16 11.953,-8.686c14.389,-3.996 14.062,-22.309 16.569,-34.262c3.522,-16.788 7.52,-33.32 7.555,-50.434c0,-6.213 0.365,-8.43 -4.286,-12.898c-1.382,-1.307 -2.763,-3.271 -4.325,-4.324c-1.745,-1.162 -3.088,-1.018 -4.795,-1.927c-3.742,-1.999 -8.574,-3.851 -12.135,-6.285c-3.598,-2.435 -5.962,-5.558 -8.868,-8.465c-5.159,-5.125 -11.045,-9.52 -15.586,-15.406c-3.125,-4.034 -3.563,-6.359 -8.503,-8.43c-3.381,-1.416 -6.759,-2.655 -10.393,-2.942c-2.761,-0.219 -3.67,0.914 -5.85,1.344c-3.198,0.583 -6.358,0.144 -9.591,0.727c-7.086,1.211 -13.662,1.306 -20.857,1.306c-12.716,0 -27.286,2.106 -39.459,-1.563c-21.872,-6.612 -40.73,-18.966 -51.811,-38.913c-3.235,-5.85 -5.232,-12.247 -8.175,-18.204c-2.724,-5.56 -5.451,-10.647 -5.777,-16.968c-0.256,-5.633 0.508,-11.337 0.254,-16.968c-0.691,-15.078 -10.031,-27.941 -17.041,-41.167c-4.541,-8.539 -2.616,-21.474 0.691,-30.121c3.269,-8.574 8.282,-15.769 12.86,-23.616c1.274,-2.145 2.617,-2.581 1.6,-5.015c-4.359,-0.727 -8.139,4.433 -10.537,7.231c-8.176,9.411 -18.275,18.058 -24.633,28.74c-9.629,16.098 -8.649,31.939 -4.288,49.342c2.325,9.376 3.378,19.076 7.557,27.796c1.453,2.943 1.525,3.454 4.288,5.487c5.487,4.105 10.828,9.011 15.841,13.698c4.032,3.777 5.595,5.197 6.685,9.846c0.874,3.853 1.746,7.268 1.781,11.228c0.11,6.976 0.838,11.916 -6.393,15.369c-9.374,4.471 -23.182,2.072 -33.32,2.037c-4.831,-0.034 -8.974,0.435 -13.699,1.272c-4.468,0.837 -8.648,-0.034 -13.261,0.837c-6.65,1.236 -13.879,3.599 -19.692,6.794c-4.687,2.546 -7.085,4.329 -12.135,4.473c-5.198,0.144 -10.355,0 -15.552,0c-14.496,0 -30.156,1.626 -44.545,-0.335c-20.672,-2.798 -33.461,-17.221 -51.92,-24.815c-18.821,-7.776 -42.655,-2.109 -62.094,0.727c-17.077,2.468 -34.264,-0.182 -51.268,-2.401c-5.195,-0.651 -10.063,-2.684 -15.333,-3.195c-5.523,-0.507 -9.194,0.364 -14.061,-2.578c-2.834,-1.706 -6.905,-3.27 -9.447,-5.159c-2.906,-2.179 -5.304,-6.322 -7.484,-9.192c-10.101,-13.117 -17.986,-28.085 -26.996,-41.855c-7.047,-10.792 -13.152,-23.182 -14.497,-36.044c-1.669,-15.551 -0.506,-32.736 2.036,-48.069c2.252,-13.663 5.122,-26.271 10.717,-39.024c4.07,-9.301 9.848,-18.24 14.825,-27.178c3.778,-6.794 9.083,-11.444 12.028,-18.785c2.688,-6.684 4.542,-13.514 6.867,-20.31c2.109,-6.176 4.653,-13.045 6.178,-19.366c1.127,-4.617 -0.218,-9.341 2.18,-13.517c2.217,-3.816 5.595,-9.266 8.72,-12.355c6.794,-6.686 16.64,-11.264 24.525,-16.678c5.088,-3.485 11.409,-5.159 16.933,-7.737c5.013,-2.327 9.883,-4.724 15.151,-6.541c16.024,-5.521 30.121,-12.896 44.873,-21.037c7.703,-4.249 15.587,-8.211 23.326,-12.497c7.122,-3.924 14.825,-5.705 21.983,-9.374c12.86,-6.684 27.651,-15.951 37.351,-26.668c5.957,-6.577 12.39,-9.231 20.237,-13.517c5.487,-3.015 10.537,-7.85 16.168,-10.428c6.939,-3.161 18.53,-3.343 26.125,-4.505c6.795,-1.052 13.552,-1.378 20.346,-2.033c17.366,-1.655 34.662,-1.177 52.102,-1.272c11.446,-0.073 24.454,2.109 35.173,5.959c7.92,2.832 17.33,5.413 24.598,9.555c5.049,2.867 8.973,4.289 14.46,6.178c5.124,1.782 9.738,4.614 15.043,5.886c5.631,1.306 12.353,1.851 18.13,2.434c6.575,0.666 13.225,-0.334 19.838,0.049c5.779,0.325 11.483,1.42 17.296,1.707c9.082,0.474 18.602,2.726 27.577,4.252c8.066,1.419 16.459,2.036 24.126,5.451c7.12,3.162 14.278,6.177 21.363,9.52c9.81,4.651 20.13,10.538 28.595,17.223c3.38,2.688 9.157,6.611 11.373,10.245c1.017,1.636 1.418,3.635 2.325,5.305z" /></svg>