<svg xmlns="http://www.w3.org/2000/svg" viewBox="0 0 1024 886" width="1024" height="886"><path d="M1023.6,205c-4.6,99.6 -74.2,236.2 -208.8,409.4c-139.2,180.8 -257,271.4 -353.4,271.4c-59.6,0 -110.2,-55 -151.4,-165.2c-27.6,-101 -55,-202 -82.6,-303c-30.6,-110.2 -63.4,-165.2 -98.6,-165.2c-7.6,0 -34.4,16.2 -80.4,48.2l-48.2,-62c50.6,-44.4 100.4,-88.8 149.4,-133.2c67.4,-58.2 118,-88.8 151.8,-92c79.6,-7.6 128.8,46.8 147.2,163.4c19.8,125.8 33.6,204 41.4,234.6c23,104.4 48.2,156.6 75.8,156.6c21.4,0 53.6,-33.8 96.6,-101.6c42.8,-67.6 65.8,-119.2 69,-154.6c6.2,-58.4 -16.8,-87.8 -69,-87.8c-24.6,0 -49.8,5.6 -75.8,16.8c50.4,-164.8 146.4,-244.8 288.4,-240.2c105,2.8 154.6,71 148.6,204.4z" /></svg>