<svg xmlns="http://www.w3.org/2000/svg" viewBox="0 0 907 769" width="907" height="769"><path d="M711.836,753.649c-26.333,-13.23 -28.758,-13.407 -40.362,-2.909c-8.939,8.091 -24.415,11.17 -56.129,11.17c-37.419,0 -46.756,-2.501 -64.213,-17.19c-15.222,-12.809 -20.43,-22.782 -20.43,-39.126c0,-24.918 -8.004,-29.998 -47.253,-29.998c-24.191,0 -25.692,-1.04 -19.143,-13.278c8.646,-16.156 47.322,-18.305 59.755,-3.318c4.545,5.478 12.714,9.959 18.15,9.959c7.701,0 8.922,-5.133 5.526,-23.238c-5.298,-28.236 3.801,-30.678 13.966,-3.75c5.674,15.034 10.458,18.678 20.915,15.944c7.458,-1.95 15.164,-7.734 17.13,-12.85c5.674,-14.788 18.409,-10.782 16.069,5.052c-1.486,10.057 -10.646,17.454 -30.581,24.699c-37.48,13.619 -44.635,36.007 -18.654,58.357c24.792,21.325 45.152,20.064 55.556,-3.439c4.602,-10.397 16.016,-22.386 25.367,-26.646c14.506,-6.609 16.362,-10.656 12.645,-27.576c-5.078,-23.118 6.6,-27.557 12.34,-4.69c4.972,19.806 -1.736,44.617 -12.066,44.617c-10.302,0 -31.518,22.96 -26.166,28.314c6.989,6.988 34.093,-9.268 42.902,-25.726c10.109,-18.885 28.988,-21.942 23.217,-3.757c-3.024,9.529 3.243,15.426 29.411,27.684c18.291,8.566 35.033,13.798 37.204,11.627c7.191,-7.191 -13.654,-53.442 -25.489,-56.552c-15.382,-4.045 -14.923,-14.786 0.63,-14.786c13.092,0 34.228,19.506 34.228,31.587c0,15.711 21.57,28.168 48.611,28.073c56.56,-0.198 81.739,-31.666 47.13,-58.891c-9.822,-7.724 -24.322,-14.046 -32.226,-14.046c-12.513,0 -14.021,3.003 -11.658,23.238c1.661,14.225 -0.15,23.238 -4.652,23.238c-4.05,0 -7.473,-6.723 -7.604,-14.939c-0.277,-17.262 -21.566,-44.494 -47.899,-61.27c-10.042,-6.398 -18.258,-15.906 -18.258,-21.129c0,-5.223 -7.65,-17.148 -17.001,-26.5c-9.352,-9.352 -15.551,-18.45 -13.781,-20.224c7.127,-7.127 29.219,5.881 36.27,21.356c9.803,21.515 30.556,22.84 24.023,1.531c-6.906,-22.523 -14.226,-29.349 -51.283,-47.815c-39.502,-19.686 -61.363,-22.222 -55.298,-6.418c2.215,5.778 4.029,20.547 4.029,32.823c0,17.706 4.074,24.726 19.71,33.964c18.853,11.137 30.462,27.462 24.069,33.856c-1.654,1.655 -16.663,-6.386 -33.354,-17.868c-29.079,-20.007 -30.344,-22.239 -30.344,-53.479c0,-28.734 -3.028,-35.78 -25.53,-59.438c-33.87,-35.603 -55.042,-36.753 -30.458,-1.654c5.724,8.173 9.46,21.534 8.298,29.694c-1.794,12.637 -4.324,10.624 -17.046,-13.587c-8.215,-15.631 -14.939,-35.424 -14.939,-43.981c0,-17.638 -31.146,-76.987 -40.405,-76.987c-11.333,0 -6.141,31.075 7.206,43.159c7.302,6.609 13.278,16.634 13.278,22.277c0,7.978 -1.77,8.489 -7.967,2.29c-26.285,-26.285 -25.123,21.822 1.328,55.11c10.955,13.785 19.918,32.165 19.918,40.842c0,8.677 3.621,21.575 8.047,28.662c4.426,7.086 5.994,14.943 3.48,17.454c-7.896,7.895 -24.809,-11.502 -24.809,-28.452c0,-19.032 -10.999,-41.909 -20.154,-41.909c-3.522,0 -6.405,10.117 -6.405,22.482c0,19.237 -3.411,24.102 -23.622,33.69c-18.679,8.863 -25.643,9.534 -33.281,3.196c-12.011,-9.967 -0.942,-26.171 17.878,-26.171c10.118,0 12.466,-5.004 12.466,-26.559c0,-26.081 -0.433,-26.559 -23.967,-26.559h-23.967l6.996,86.314h-19.038c-11.097,0 -21.894,4.846 -25.888,11.62c-5.971,10.134 -7.698,10.347 -13.506,1.661c-4.038,-6.042 -6.701,-6.847 -6.762,-2.052c-0.17,13.724 13.565,17.039 25.575,6.17c6.824,-6.175 26.371,-11.202 47.719,-12.27c33.086,-1.653 36.339,-0.537 38.28,13.133c1.854,13.062 -0.81,14.939 -21.216,14.939c-18.912,0 -24.998,3.462 -32.09,18.258c-4.813,10.042 -10.95,17.513 -13.64,16.6c-2.69,-0.913 -22.818,-1.661 -44.729,-1.661h-39.836v-219.105h-112.873v217.974l-43.565,2.226c-23.959,1.225 -61.308,1.215 -82.996,-0.025l-39.43,-2.249v-132.201c0,-72.712 -2.078,-132.201 -4.615,-132.201c-2.537,0 -12.978,8.01 -23.193,17.799l-18.578,17.799l-33.258,-31.242l151.036,-153.227c83.071,-84.274 154.635,-154.168 159.032,-155.315c4.397,-1.147 13.362,4.572 19.918,12.714c6.558,8.142 21.55,25.515 33.319,38.607c17.991,20.011 21.427,21.69 21.581,10.525c0.093,-7.302 -6.224,-31.206 -14.056,-53.118l-14.238,-39.837l15.894,-32.773c21.051,-43.403 33.308,-50.525 56.795,-32.989c9.978,7.448 20.334,21.75 23.018,31.778c7.588,28.37 18.604,37.302 45.996,37.302c20.73,0 27.949,-3.729 40.013,-20.67c36.914,-51.84 123.406,-51.955 166.939,-0.222c23.322,27.715 31.374,85.877 16.272,117.543c-10.098,21.174 -39.316,35.987 -71.203,36.102c-5.659,0.02 -13.878,3.622 -18.258,8.005c-11.107,11.107 -9.973,42.959 1.692,47.435c13.517,5.187 36.818,53.157 36.818,75.798c0,10.371 -3.584,22.441 -7.967,26.824c-12.074,12.074 -41.347,9.55 -60.071,-5.178c-9.192,-7.23 -24.714,-16.188 -34.494,-19.906c-9.78,-3.718 -16.103,-9.474 -14.055,-12.787c5.299,-8.574 29.463,-1.107 58.815,18.183c21.698,14.258 26.502,15.26 34.379,7.179c22.806,-23.406 -16.014,-83.599 -58.207,-90.247c-20.252,-3.192 -28.209,-1.1 -40.796,10.723c-18.387,17.274 -27.596,8.964 -13.063,-11.786c7.746,-11.058 16.844,-14.36 39.56,-14.36c24.036,0 29.502,-2.226 29.502,-12.009c0,-6.606 4.121,-17.645 9.154,-24.53c5.85,-8 7.944,-22.238 5.802,-39.447c-3.432,-27.556 7.784,-27.882 12.674,-0.368c3.49,19.64 46.553,22.094 64.948,3.699c16.811,-16.811 18.747,-70.872 3.585,-100.19c-18.682,-36.127 -86.044,-54.439 -124.41,-33.821c-23.13,12.431 -43.95,48.715 -39.952,69.629c2.226,11.643 -0.594,22.446 -7.988,30.618c-6.285,6.945 -9.465,15.804 -7.066,19.686c2.399,3.882 1.105,7.059 -2.877,7.059c-12.759,0 -15.427,-20.022 -4.309,-32.309c14.19,-15.679 13.59,-25.47 -2.079,-33.855c-19.567,-10.472 -26.126,-8.303 -22.047,7.295c4.886,18.68 -12.042,13.722 -22.218,-6.51c-4.021,-7.993 -9.176,-16.398 -11.458,-18.68c-6.69,-6.69 -24.389,11.533 -24.389,25.115c0,6.858 -2.988,12.466 -6.641,12.466c-10.35,0 -7.797,-30.61 3.318,-39.837c19.571,-16.242 7.618,-66.396 -15.823,-66.396c-7.659,0 -16.477,9.846 -24.242,27.066c-10.785,23.918 -11.191,30.286 -3.5,54.775c4.787,15.242 9.99,45.64 11.562,67.55c2.742,38.214 2.114,40.175 -15.429,48.139c-10.059,4.566 -20.226,8.298 -22.595,8.298c-6.825,0 -27.448,-49.771 -28.555,-68.923c-0.554,-9.558 -3.486,-17.382 -6.513,-17.386c-3.027,-0.004 -3.628,8.555 -1.328,19.017c3.786,17.233 2.232,19.411 -16.511,23.161c-12.677,2.536 -18.942,6.965 -16.182,11.433c3.246,5.253 6.53,5.274 11.728,0.078c12.446,-12.446 22.912,-8.006 37.759,16.021c9.177,14.85 19.494,23.238 28.578,23.238h14.214l-14.755,10.337c-8.403,5.886 -14.755,17.322 -14.755,26.559c0,16.452 -9.104,21.708 -16.6,9.582c-2.257,-3.653 -8.608,-6.641 -14.112,-6.641c-7.002,0 -9.378,5.487 -7.908,18.258c1.623,14.105 6.071,18.719 19.549,20.282c14.226,1.65 18.412,-1.417 22.661,-16.6c2.866,-10.242 4.495,-22.784 3.62,-27.873c-1.854,-10.793 11.058,-20.38 27.646,-20.525c7.542,-0.066 11.62,4.974 11.62,14.367c0,7.958 3.567,24.33 7.926,36.381c7.07,19.552 6.354,23.586 -6.641,37.417c-8.01,8.526 -14.562,18.297 -14.556,21.714c0.006,3.417 7.473,-2.469 16.6,-13.08c16.939,-19.698 21.88,-46.373 9.952,-53.743c-14.826,-9.162 -6.379,-36.041 16.902,-53.799c20.034,-15.282 22.928,-20.749 19.426,-36.693c-4.905,-22.337 2.183,-38.467 10.877,-24.75c7.894,12.46 7.372,57.119 -0.727,62.125c-8.766,5.418 -8.401,30.282 0.99,67.587c7.35,29.183 7.938,29.737 15.882,14.895c4.538,-8.478 6.604,-19.71 4.59,-24.954c-2.366,-6.163 -0.351,-8.41 5.695,-6.347c6.346,2.166 8.658,11.002 7.179,27.463c-2.382,26.526 3.761,29.653 34.945,17.796c18.557,-7.054 24.004,3.486 9.366,18.126c-5.793,5.793 -2.444,12.542 13.72,27.642c15.366,14.355 20.782,16.774 19.245,8.601c-1.176,-6.257 -8.843,-14.322 -17.038,-17.928c-16.027,-7.05 -19.986,-16.686 -6.852,-16.686c10.27,0 64.987,53.407 64.987,63.428c0,4.151 -5.766,12.767 -12.816,19.146c-12.569,11.373 -12.407,11.951 8.298,29.862c26.19,22.652 78.878,53.551 91.318,53.551c5.106,0 24.502,7.701 43.108,17.115c41.061,20.777 59.075,47.671 53.78,80.296c-3.462,21.343 -2.051,23.77 18.942,32.542c12.476,5.214 29.503,9.494 37.839,9.51c20.432,0.044 49.322,25.638 54.454,48.245c3.224,14.202 0.425,22.155 -12.282,34.857c-14.135,14.135 -22.539,16.458 -59.527,16.458c-23.687,0 -44.913,2.988 -47.17,6.641c-6.765,10.949 -44.62,6.75 -74.494,-8.262zM142.291,549.445c0,-21.366 -1.739,-23.406 -21.58,-25.319c-21.196,-2.045 -21.58,-1.593 -21.58,25.319c0,26.912 0.384,27.364 21.58,25.319c19.84,-1.914 21.58,-3.954 21.58,-25.319zM218.646,549.445c0,-25.926 -0.554,-26.559 -23.238,-26.559c-22.684,0 -23.238,0.631 -23.238,26.559c0,25.926 0.554,26.559 23.238,26.559c22.684,0 23.238,-0.631 23.238,-26.559zM429.853,551.102c-1.886,-22.782 -3.755,-24.898 -21.978,-24.898c-18.223,0 -20.094,2.118 -21.978,24.898c-2.034,24.567 -1.741,24.898 21.978,24.898c23.719,0 24.013,-0.33 21.978,-24.898zM218.646,479.727c0,-22.133 -1.108,-23.238 -23.238,-23.238c-21.27,0 -23.238,1.648 -23.238,19.458c0,14.898 3.499,20.13 14.939,22.335c30.222,5.822 31.539,5.047 31.539,-18.553zM504.147,479.46c0,-16.838 -2.898,-22.972 -10.857,-22.972c-10.929,0 -42.259,-29.172 -42.259,-39.35c0,-7.362 36.781,-14.322 51.384,-9.726c10.53,3.317 10.646,2.802 1.149,-5.16c-5.799,-4.864 -9.352,-12.375 -7.896,-16.691c1.456,-4.316 -3.401,-11.085 -10.79,-15.042c-7.71,-4.126 -11.874,-11.255 -9.774,-16.731c2.802,-7.302 -2.706,-6.463 -23.486,3.576c-14.931,7.214 -27.147,15.814 -27.147,19.113c0,3.299 -5.227,7.363 -11.62,9.034c-8.742,2.286 -7.923,3.227 3.318,3.808c8.898,0.46 14.939,-3.077 14.939,-8.742c0,-5.231 5.862,-11.372 13.027,-13.648c13.222,-4.196 40.087,6.139 40.087,15.426c0,9.178 -15.705,21.013 -27.885,21.013c-14.85,0 -16.351,25.287 -1.835,30.858c7.554,2.898 9.052,9.558 5.91,26.299c-5.778,30.796 -1.185,38.886 22.986,40.509c19.503,1.31 20.742,0.02 20.742,-21.58zM145.61,476.408c0,-18.339 -1.843,-19.918 -23.238,-19.918c-21.395,0 -23.238,1.58 -23.238,19.918c0,18.339 1.843,19.918 23.238,19.918c21.395,0 23.238,-1.58 23.238,-19.918zM431.113,476.408c0,-18.339 -1.843,-19.918 -23.238,-19.918c-21.395,0 -23.238,1.58 -23.238,19.918c0,18.339 1.843,19.918 23.238,19.918c21.395,0 23.238,-1.58 23.238,-19.918zM285.042,353.576c0,-14.058 -3.082,-16.6 -20.154,-16.6c-17.79,0 -19.355,1.49 -13.355,12.702c6.275,11.727 16.202,18.677 28.529,19.974c2.74,0.288 4.979,-6.944 4.979,-16.074zM343.154,351.915c9.558,-14.418 9.177,-14.939 -10.827,-14.939c-17.841,0 -20.73,2.381 -20.73,17.085c0,21.065 16.933,19.913 31.554,-2.146zM283.824,288.839c2.49,-21.654 -6.923,-23.395 -25.581,-4.737c-15.772,15.772 -11.31,27.954 9.168,25.037c10.036,-1.431 14.94,-7.495 16.413,-20.298zM492.526,214.144c1.486,-17.814 4.002,-19.918 23.79,-19.918c26.346,0 54.228,-27.829 54.228,-54.123c0,-23.586 20.223,-55.255 38.158,-59.755c17.541,-4.402 48.155,13.218 48.155,27.715c0,13.573 -8.23,12.257 -21.699,-3.474c-6.254,-7.302 -14.17,-13.278 -17.593,-13.278c-12.593,0 -33.745,35.62 -33.745,56.823c0,13.841 -6.563,29.922 -17.925,43.922c-9.858,12.15 -18.81,23.322 -19.89,24.826c-1.08,1.504 -9.199,-0.558 -18.042,-4.588c-13.698,-6.241 -17.634,-5.172 -26.589,7.22c-10.444,14.452 -10.501,14.417 -8.85,-5.371z" /></svg>