<svg xmlns="http://www.w3.org/2000/svg" viewBox="0 0 770 964" width="770" height="964"><path d="M316.695,103.072c-1.592,-4.574 -1.374,-4.529 -1.111,-4.486c0.678,2.75 0.871,5.737 1.88,8.388c0.726,1.87 2.073,3.418 3.134,5.054c1.687,2.553 2.792,5.106 4.143,7.806c3.9,7.854 7.995,15.27 11.081,23.559c3.808,10.214 5.683,20.814 8.288,31.408c1.875,7.711 5.009,15.084 6.936,22.79c1.153,4.618 2.649,9.253 4.143,13.824c1.537,4.77 3.562,9.775 6.455,13.925c3.032,4.381 5.104,9.25 7.705,13.872c4.047,7.177 5.59,15.033 6.503,23.173c0.821,7.417 0.63,15.846 -0.721,23.169c-0.673,3.718 -2.841,6.369 -4.528,9.739c-0.624,1.201 -0.918,3.134 -1.975,4.002c-1.927,-2.118 -3.134,-4.772 -4.816,-7.038c-1.639,-2.118 -2.503,-3.469 -3.614,-6.071c-1.495,-3.668 -3.567,-6.419 -5.542,-9.739c-1.875,-3.184 -3.947,-4.868 -6.403,-7.372c-4.821,-4.817 -8.143,-11.708 -11.181,-17.68c-2.551,-4.868 -5.25,-9.403 -8.186,-13.974c-1.206,-1.884 -1.447,-2.602 -2.941,-4.052c-0.721,-0.732 -1.152,-1.574 -1.782,-2.318c-2.168,-2.602 -5.344,-5.638 -6.503,-8.822c-0.769,-2.318 -1.49,-4.636 -2.408,-7.088c-3.322,-8.526 -8.671,-15.897 -12.671,-24.086c-4.141,-8.624 -9.202,-16.626 -13.537,-25.101c-2.505,-5.009 -4.192,-10.115 -5.927,-15.417c-4.043,-12.19 -11.128,-23.805 -18.738,-34.014c-4.578,-6.16 -8.961,-11.847 -14.455,-17.199c-3.712,-3.556 -6.794,-7.225 -9.442,-11.61c-1.541,-2.501 -2.605,-4.336 -2.648,-7.173c-0.044,-2.504 0.131,-5.067 0.088,-7.571c-0.143,-3.793 -1.013,-7.075 -2.215,-10.594c-1.447,-3.99 -2.167,-8.227 -3.374,-12.279c-1.398,-4.628 -3.178,-9.685 -5.105,-14.07c-1.88,-4.15 -3.904,-7.372 -3.279,-12.142c0.48,-4.238 2.36,-7.323 5.158,-10.408c1.299,-1.486 2.265,-3.32 3.755,-4.571c1.639,-1.438 2.943,-2.502 4.433,-4.138c3.134,-3.432 6.894,-3.715 11.374,-3.804c4.288,-0.043 9.104,-0.539 13.344,-0.043c3.179,0.398 6.12,3.284 8.24,5.452c5.009,5.153 8.474,12.133 11.993,18.353c3.034,5.399 4.864,10.838 7.177,16.525c5.879,14.595 13.588,28.376 19.223,43.119c1.397,3.556 2.796,7.075 4.383,10.494c0.581,1.163 1.386,2.465 1.735,3.716c0.48,2.168 -0.097,3.049 1.927,4.486z" /> <path d="M715.031,67.735c-0.173,3.52 -0.62,7.608 0,11.176c0.346,1.921 2.128,3.704 -0.137,5.588c-3.374,2.737 -9.639,0.618 -13.489,1.238c-2.704,0.532 -4.433,1.357 -7.327,1.4c-5.729,0.049 -8.712,3.135 -8.623,8.623c0.047,2.837 -0.344,3.604 -1.347,5.922c-0.774,1.772 -1.591,4.906 -2.846,6.356c-0.819,0.918 -2.17,1.45 -2.987,2.318c-0.669,0.718 -1.052,1.61 -1.734,2.354c-1.394,1.351 -3.76,2.974 -5.394,3.47c-1.021,-1.969 0.383,-5.24 1.003,-7.173c0.626,-1.883 0.962,-3.271 1.494,-5.253c1.154,-4.678 2.463,-8.381 2.505,-13.301c0.048,-5.476 -1.351,-6.015 -6.648,-5.972c-4.433,0 -8.816,0 -13.249,0c-5.637,0 -11.417,-0.415 -17.006,-0.043c-2.552,0.15 -4.334,1.264 -6.935,1.388c-2.601,0.113 -4.096,0.731 -6.601,1.351c-10.984,2.602 -23.992,1.747 -35.461,1.251c1.687,-0.346 2.072,1.14 3.519,1.388c1.305,0.291 2.409,-0.124 3.76,0.248c0.961,0.372 1.639,0.992 2.889,1.116c1.878,0.205 3.517,-0.248 5.349,0.248c2.455,0.62 4.815,1.152 6.983,2.02c2.266,0.966 3.904,2.204 5.928,3.32c3.802,2.268 7.369,5.116 11.031,7.62c3.658,2.551 8.281,4.186 12.233,6.256c2.648,1.437 5.156,2.985 7.709,4.385c0.915,0.447 1.399,1.189 2.216,1.685c0.817,0.507 2.027,0.755 2.745,1.251c4.623,3.32 8.575,7.173 13.632,9.974c4.048,2.268 7.952,5.142 12.528,5.638c2.843,0.235 4.433,1.394 7.327,1.351c2.889,-0.124 6.456,-0.496 9.201,0.124c0.098,2.788 -3.999,5.54 -5.541,7.757c-2.358,3.37 -4.237,6.553 -7.704,9.057c-1.978,1.401 -4.721,3.483 -7.279,2.987c-1.395,-0.321 -1.928,-1.189 -3.227,-1.437c-1.495,-0.453 -3.807,0.043 -5.349,0.043c-3.225,0.049 -5.105,-1.103 -7.946,-1.351c-3.133,-0.308 -5.685,-0.432 -8.671,-1.3c-3.087,-0.868 -6.168,-1.685 -9.301,-2.553c-1.538,-0.372 -2.311,-0.496 -3.61,-1.116c-0.822,-0.359 -1.98,-1.227 -2.649,-1.351c-5.156,-1.686 -10.504,-4.102 -15.324,-7.274c-4.962,-3.284 -10.984,-5.687 -16.233,-8.338c-4.866,-2.416 -10.648,-4.77 -15.897,-6.269c-4.288,-1.264 -8.383,-2.814 -12.718,-4.052c-2.265,-0.496 -4.337,-0.496 -6.553,-0.992c-2.214,-0.444 -3.806,-2.018 -5.974,-2.514c-2.891,-0.62 -5.784,0 -8.721,-0.744c-2.455,-0.62 -4.382,-0.372 -6.935,-0.62c-2.264,-0.248 -4.336,-0.62 -6.456,-0.992c-1.062,-0.78 -2.265,-1.276 -3.807,-1.4c-21.727,-2.119 -44.225,-1.92 -65.856,1.834c-18.886,3.322 -36.808,10.495 -55.886,13.296c-0.433,0.124 -0.664,0.283 -1.013,0.372c-20.859,-4.048 -41.624,-8.15 -59.353,-20.478c-0.962,-0.742 -1.928,-0.866 -2.889,-1.238c1.538,-2.553 3.081,-5.054 5.105,-7.372c7.952,-8.961 17.103,-15.854 26.833,-22.593c6.651,-4.63 13.829,-8.718 20.813,-12.671c3.664,-2.07 7.759,-2.69 11.369,-4.907c3.421,-2.118 7.373,-2.304 11.031,-4.188c5.158,-2.7 13.253,-4.744 18.935,-5.736c3.662,-0.67 7.081,-1.636 10.743,-2.504c4.095,-0.941 8.24,-0.817 12.335,-1.685c3.274,-0.667 6.793,-0.915 9.97,-1.783c3.327,-0.915 6.601,-2.786 9.975,-3.902c5.637,-1.871 10.502,-4.137 15.992,-6.69c4.725,-2.168 8.191,-4.684 13.296,-5.922c14.838,-3.457 29.053,-4.077 44.229,-3.953c16.766,0.235 33.096,6.369 49.814,5.253c4.527,-0.308 9.008,0.868 13.584,0.992c3.808,0.124 7.375,0.372 11.177,0.868c5.061,0.496 10.022,0 14.983,0.744c5.157,0.719 10.791,3.321 15.8,4.907c3.229,1.016 5.637,1.388 8.868,1.636c3.803,0.432 7.177,2.316 10.889,2.936c4.72,0.816 8.818,1.498 13.441,2.886c4.24,1.302 5.974,2.467 8.961,5.403c2.264,2.217 4.194,5.351 5.297,8.338c1.495,4.287 -0.644,6.987 -0.817,11.274z" /> <path d="M165.367,286.819c-1.975,1.586 -3.036,3.47 -4.576,5.638c-2.505,3.617 -5.013,7.286 -7.566,10.891c-2.168,3.036 -2.939,6.072 -4.721,9.256c-1.254,2.168 -2.553,3.654 -3.519,6.021c-1.104,2.8 -3.176,4.87 -4.335,7.521c-0.909,2.069 -0.48,4.336 -1.347,6.356c-0.966,2.081 -2.12,3.804 -2.941,6.021c-1.492,4.196 -2.506,8.483 -3.948,12.671c-1.784,5.2 -3.183,11.272 -3.952,16.624c-0.821,5.833 -2.276,12.19 -2.408,18.112c-0.145,5.778 -1.254,11.563 -2.846,16.718c-0.219,0.67 -0.219,2.068 -0.393,2.936c-0.289,1.401 -0.578,2.119 -1.154,3.618c-1.063,3.035 -2.17,6.07 -3.231,9.106c-1.056,2.948 -2.36,5.105 -3.902,7.855c-1.345,2.504 -1.537,4.672 -3.417,7.274c-0.919,1.3 -2.554,2.935 -3.134,4.385c-0.493,1.253 -0.049,2.17 -0.625,3.47c-1.058,2.354 -4.335,3.494 -6.6,4.238c-4.048,1.364 -7.759,1.116 -11.85,1.116c-2.701,0 -7.326,1.809 -9.494,0.124c1.014,-2.7 3.374,-5.289 5.061,-7.656c1.682,-2.403 1.73,-4.287 3.081,-6.739c2.247,-4.046 2.072,-8.966 2.553,-13.537c0.568,-5.785 -0.305,-11.224 -0.393,-16.911c0,-0.916 0.486,-2.068 0.529,-2.936c0.042,-0.954 -0.22,-1.796 -0.132,-2.788c0.339,-2.936 0.522,-5.871 0.871,-8.858c0.528,-4.39 1.832,-9.147 1.875,-13.633c0,-4.386 -0.306,-8.908 0.043,-13.344c0.144,-2.365 0.144,-4.385 0.63,-6.801c0.481,-2.318 1.442,-4.535 2.313,-6.889c0.673,-1.785 1.974,-2.899 2.841,-4.535c0.595,-1.153 0.42,-1.995 0.769,-2.987c0.485,-1.349 1.446,-1.982 1.975,-3.233c0.558,-1.337 -0.386,-2.417 0.821,-3.655c-6.167,9.632 -12.864,20.857 -21.295,28.327c-1.928,1.736 -3.229,2.602 -4.864,4.672c-1.59,2.031 -3.517,2.886 -5.109,4.868c-3.515,4.385 -6.456,9.341 -9.682,13.974c-2.505,3.669 -5.008,7.273 -7.566,10.891c-3.032,4.323 -3.369,5.773 1.111,8.858c4.047,2.788 7.85,3.853 12.335,5.538c1.923,0.667 3.227,1.287 5.154,1.783c1.927,0.584 5.442,1.302 6.503,3.284c-1.351,1.101 -4.047,2.08 -5.927,2.452c-1.009,0.167 -1.975,-0.081 -2.936,0.043c-1.254,0.124 -2.407,0.992 -3.614,1.116c-1.928,0.186 -4.962,-0.928 -6.889,-1.3c-2.455,-0.483 -3.324,-0.63 -5.589,-2.266c-4.432,-3.233 -8.72,-2.553 -12.042,2.119c-1.687,2.367 -3.374,3.271 -5.301,5.204c-2.746,2.788 -4.529,9.157 -8.721,10.408c-2.793,0.817 -3.274,-1.734 -4.673,-3.085c-2.552,-2.553 -6.166,-4.522 -9.152,-6.406c-3.614,-2.254 -7.081,-2.068 -9.682,-5.773c-1.88,-2.602 -3.326,-5.972 -3.855,-9.106c-0.678,-4.152 -0.63,-6.22 0.721,-10.408c1.494,-4.628 3.277,-8.333 5.301,-12.718c1.635,-3.372 1.97,-7.274 3.85,-10.594c1.544,-2.837 2.655,-4.956 3.712,-8.189c1.544,-5.009 2.601,-11.178 4.961,-15.8c2.263,-4.478 5.542,-8.282 7.95,-12.718c1.832,-3.321 3.615,-6.493 5.687,-9.677c2.551,-3.755 4.143,-8.14 6.984,-11.659c10.503,-13.056 14.841,-30.014 24.185,-43.84c8.528,-12.575 17.199,-23.853 28.52,-34.062c3.902,-3.507 7.998,-4.858 12.478,-7.509c5.252,-3.085 9.875,-5.737 14.648,-9.305c2.791,-2.119 6.215,-3.706 8.911,-5.972c2.553,-2.07 4.721,-4.871 7.129,-7.137c3.032,-2.886 5.302,-6.354 8.431,-9.155c2.744,-2.553 5.589,-4.77 8.19,-7.421c4.142,-4.1 10.405,-9.54 15.559,-12.24c3.615,-1.933 6.023,-5.068 9.73,-6.654c3.903,-1.685 6.748,-4.721 10.503,-6.504c7.278,-3.47 14.743,-7.039 22.357,-9.876c11.079,-4.088 21.967,-7.706 33.817,-9.057c3.086,-0.372 6.025,-0.124 8.961,0c-0.232,0.966 -0.625,1.847 -0.625,3.085c0,21.151 -8.192,40.226 -16.623,59.303c-30.015,19.609 -50.776,47.503 -70.432,76.99z" /> <path d="M312.033,457.412c-0.306,-1.834 -0.263,-3.568 -0.349,-5.352c-0.043,-1.834 -0.913,-2.354 -1.782,-4.002c-0.769,-1.586 -0.625,-2.788 -0.673,-4.571c0,-5.341 1.107,-10.99 2.746,-16.04c1.639,-4.868 2.024,-9.824 3.034,-14.791c0.63,-3.036 2.168,-5.488 3.374,-8.289c1.447,-3.47 2.936,-6.987 4.383,-10.556c3.712,-8.958 8.335,-17.585 15.945,-23.651c5.975,-4.721 11.326,-10.643 16.142,-16.576c1.735,-2.168 4.335,-4.907 5.297,-7.62c0.349,-0.992 -0.089,-1.884 0.63,-2.739c-0.132,-0.043 -0.305,0 -0.438,-0.09c1.061,-2.886 3.567,-5.439 5.254,-8.005c4.48,-6.739 10.407,-12.328 15.319,-18.737c3.759,-4.969 7.274,-10.023 10.888,-15.079c1.447,-1.982 1.782,-4.002 2.746,-6.256c1.207,-2.801 2.648,-5.538 3.807,-8.426c5.249,-12.816 6.36,-27.271 5.537,-41.048c-0.089,-1.933 -0.817,-3.519 -1.009,-5.39c-0.132,-1.685 0.042,-3.618 0.042,-5.253c0,-2.553 0,-5.054 0,-7.607c0,-5.452 -2.072,-10.594 -3.471,-15.805c-2.746,-10.408 -10.841,-16.281 -19.026,-22.447c-4,-2.987 -8.383,-5.736 -10.936,-10.209c-2.313,-4.138 -4.48,-8.14 -5.734,-12.767c-1.687,-6.021 -5.734,-11.274 -7.224,-17.391c-0.773,-3.184 -2.215,-6.22 -2.749,-9.442c1.592,-0.372 1.735,-0.868 3.326,-0.496c4.383,1.116 8.911,2.168 13.344,3.085c4.576,0.992 9.249,1.4 13.825,2.318c3.902,0.868 8.48,0.62 12.19,2.02c3.374,1.251 6.744,2.899 10.119,4.138c2.986,1.116 5.057,2.837 7.705,4.486c1.735,1.116 3.374,1.685 4.966,3.036c2.746,2.403 5.346,4.385 7.514,7.372c2.505,3.47 5.734,6.307 7.519,10.258c1.299,2.886 1.587,6.269 2.553,9.292c1.347,4.188 2.794,8.388 3.85,12.671c0.871,3.47 2.215,6.938 2.846,10.457c0.673,4.188 2.12,7.992 2.746,12.178c1.494,10.173 3.374,20.284 4.673,30.495c0.678,4.969 0.173,10.122 0.173,15.129c0,6.604 0.089,12.863 -2.024,19.223c-3.514,10.457 -7.465,20.766 -10.936,31.173c-1.299,3.804 -1.682,7.892 -3.177,11.61c-0.673,1.685 -1.687,3.172 -2.648,4.721c-1.927,3.134 -3.134,6.504 -5.399,9.442c-3.369,4.336 -7.562,8.005 -11.031,12.24c-3.567,4.486 -6.167,8.723 -8.528,13.824c-6.36,13.829 -11.802,28.232 -19.319,41.435c-6.12,10.842 -12.233,22.641 -14.838,34.783c-1.009,4.672 -1.394,9.292 -2.072,13.97c-0.626,4.052 -1.73,8.189 -1.682,12.24c0.132,7.421 -0.532,14.935 0.769,22.208c1.159,6.889 1.687,13.728 3.177,20.473c1.687,7.421 4.383,15.469 8.143,22.262c1.975,3.655 5.109,6.84 7.614,10.16c2.889,3.853 6.36,7.571 9.825,10.94c3.279,3.284 5.927,6.121 10.022,8.289c5.927,3.134 11.705,6.69 17.969,9.008c5.399,1.969 11.031,3.953 16.575,5.588c2.986,0.868 7.61,1.116 10.115,3.134c-0.817,0.248 -1.682,0.124 -2.553,0.124c-3.85,-0.043 -7.705,0 -11.562,0c-9.537,0 -19.176,0.248 -28.713,0.042c-6.936,-0.124 -13.637,-2.403 -20.382,-3.705c-6.648,-1.3 -13.344,-4.486 -19.366,-7.47c-4.768,-2.367 -9.442,-5.155 -14.017,-7.855c-5.057,-2.948 -8.911,-7.186 -12.671,-11.56c-1.782,-2.119 -3.902,-3.804 -5.442,-6.071c-1.351,-1.933 -2.365,-4.052 -3.759,-6.021c-3.038,-4.336 -5.639,-9.057 -7.807,-13.925c-4.721,-10.605 -8.528,-22.929 -10.31,-34.395c-1.154,-7.274 -2.696,-14.598 -3.467,-21.925c-0.481,-4.088 -0.966,-8.14 -1.639,-12.23z" /> <path d="M417.777,367.348c3.417,3.767 5.056,5.117 6.263,6.703c1.344,1.734 2.6,3.755 3.902,5.538c1.347,1.833 2.698,3.815 3.707,5.835c1.352,2.553 3.374,4.434 4.721,6.938c1.014,1.884 1.399,3.904 2.701,5.638c0.962,0.817 1.832,1.659 2.601,2.651c0.818,1.302 1.592,2.651 2.265,4.002c3.032,5.062 6.936,9.685 10.07,14.739c1.442,2.354 2.889,4.77 4.288,7.274c1.923,3.519 4.674,6.455 6.601,10.023c1.586,2.937 2.743,6.072 4.335,9.008c1.826,3.519 4.143,6.754 5.778,10.359c4.721,10.215 11.081,19.128 16.863,28.717c5.349,8.866 10.888,17.919 15.704,27.025c2.553,4.816 3.904,10.069 6.6,14.888c1.977,3.369 3.759,6.79 5.639,10.209c5.009,8.959 9.154,18.547 12.816,28.136c1.204,3.085 2.169,6.602 2.986,9.824c1.214,4.621 0.868,9.254 0.868,13.975c0,3.421 0.388,7.038 0.042,10.408c-0.199,1.921 -0.926,3.655 -1.016,5.588c-0.385,6.026 -0.186,12.383 -1.103,18.305c-0.722,4.679 -1.681,8.333 -1.639,13.253c0.05,2.75 -0.705,4.77 -0.966,7.372c-0.148,1.202 0.822,3.84 -0.817,4.336c-3.757,-1.388 -6.022,-5.873 -8.911,-8.426c-1.975,-1.784 -3.469,-4.051 -5.249,-6.071c-4.481,-5.055 -7.998,-11.843 -11.229,-17.678c-2.889,-5.303 -5.489,-10.791 -8.768,-15.946c-1.251,-1.969 -2.12,-4.236 -3.226,-6.256c-1.496,-2.652 -2.505,-5.254 -3.952,-7.954c-1.302,-2.404 -3.177,-4.388 -4.576,-6.84c-1.687,-2.984 -2.746,-5.018 -5.154,-7.47c-2.216,-2.266 -2.989,-5.067 -4.821,-7.47c-1.832,-2.452 -3.755,-4.62 -5.442,-7.222c-4.144,-6.553 -9.344,-12.581 -13.296,-19.271c-3.95,-6.745 -7.517,-13.582 -11.757,-20.137c-1.975,-3.049 -2.6,-6.604 -4.335,-9.788c-1.251,-2.219 -2.939,-4.286 -4,-6.604c-0.664,-1.45 -0.577,-2.837 -1.057,-4.287c-0.48,-1.45 -1.399,-2.318 -2.072,-3.618c-1.206,-2.452 -1.879,-4.77 -3.326,-7.173c-3.419,-5.833 -6.553,-11.853 -9.634,-17.825c-3.614,-6.986 -8.143,-13.442 -10.791,-20.863c-2.601,-7.514 -5.299,-14.787 -6.841,-22.593c-1.294,-6.647 -0.28,-13.29 0.393,-19.944c0.335,-3.134 0.48,-6.739 1.782,-9.638c1.399,-3.036 2.939,-5.971 4.433,-8.958c1.447,-2.837 2.216,-5.972 3.567,-8.858c0.768,-1.736 1.922,-3.372 2.648,-5.155c0.721,-1.871 0.626,-3.372 2.408,-4.672z" /> <path d="M508.664,491.652c0.173,1.116 2.798,2.85 3.614,3.667c1.832,1.783 3.807,3.284 5.782,4.868c3.995,3.184 8.721,6.021 13.008,8.858c1.976,1.251 4.096,2.553 6.068,3.754c3.231,1.982 6.216,2.651 9.589,4.101c4.576,1.933 8.671,4.77 12.959,7.222c4.817,2.75 10.214,5.488 14.55,9.057c7.129,5.835 12.859,13.734 18.305,21.103c4.528,6.17 8.575,13.296 12.528,19.944c3.562,6.021 6.456,12.478 8.19,19.223c3.948,15.271 2.889,32.568 -0.917,47.791c-0.817,3.085 -2.024,5.873 -2.745,9.008c-1.116,5.018 -4.048,10.408 -6.12,15.175c-2.12,4.868 -4.623,9.589 -6.696,14.502c-1.202,2.75 -2.553,5.452 -3.519,8.289c-1.202,3.667 -1.928,7.46 -3.708,10.94c-2.508,4.907 -6.408,8.623 -8.911,13.632c-4.486,8.858 -8.094,18.645 -11.661,27.894c-0.817,2.168 -2.312,3.853 -3.129,5.972c-0.817,2.168 -0.768,4.336 -1.687,6.504c-1.542,3.754 -3.231,7.323 -4.528,11.176c-3.133,9.442 -4.721,20.478 -4.623,30.448c0.042,6.455 -1.399,14.502 0.966,20.524c0.966,2.504 1.016,4.956 2.215,7.421c1.687,3.284 4.336,5.922 6.12,9.206c7.033,13.392 17.92,25.966 32.039,32.134c9.537,4.138 19.319,6.739 29.241,9.739c10.983,3.222 23.173,2.07 34.062,5.724c-2.986,2.899 -8.961,2.602 -12.623,3.233c-11.271,1.982 -22.352,2.119 -33.722,2.119c-10.408,0 -22.502,1.685 -32.52,-2.02c-4.726,-1.734 -9.734,-3.667 -13.925,-6.555c-6.503,-4.535 -13.584,-9.155 -18.353,-15.464c-13.734,-18.262 -23.223,-39.749 -24.135,-62.774c-0.483,-12.377 1.25,-24.285 3.033,-36.519c0.434,-3.134 1.447,-6.121 2.024,-9.206c0.62,-3.618 1.103,-7.088 2.168,-10.605c1.639,-5.352 3.033,-10.891 5.105,-16.142c1.832,-4.622 3.327,-9.392 5.399,-13.922c1.347,-2.936 1.832,-5.922 3.418,-8.822c2.216,-3.953 3.086,-8.672 4.623,-12.864c2.072,-5.786 3.039,-11.808 4.918,-17.584c1.394,-4.336 2.12,-8.623 3.033,-13.103c0.718,-3.667 0.62,-7.372 1.542,-11.026c2.553,-10.122 2.745,-20.572 4.913,-30.74c1.255,-5.638 0.669,-11.56 0.669,-17.343c0,-2.07 0.173,-4.188 -0.173,-6.256c-0.434,-2.553 -1.88,-4.633 -2.841,-6.987c-1.687,-4.138 -3.519,-7.558 -6.214,-11.126c-3.081,-4.052 -6.937,-7.222 -10.168,-11.077c-3.227,-3.953 -7.85,-6.269 -11.417,-9.775c-3.562,-3.519 -6.36,-9.442 -8.142,-13.877c-3.61,-9.155 -6.068,-18.79 -9.009,-28.134c-0.961,-2.886 -1.539,-5.922 -2.313,-8.871c-0.349,-1.116 -1.927,-3.902 -6.263,-12.43z" /> <path d="M614.395,678.986c3.467,4.721 7.417,5.971 10.21,8.289c2.7,2.315 4.916,6.219 6.743,9.155c2.653,4.29 5.926,8.192 8.724,12.43c4.283,6.31 7.9,13.099 12.283,19.319c4.673,6.553 10.167,12.481 14.55,19.271c4.911,7.561 10.55,14.694 15.271,22.4c1.832,2.987 2.459,6.307 3.76,9.491c1.249,3.135 3.322,5.837 4.961,8.723c5.832,10.114 9.297,22.116 13.97,32.808c4.24,9.776 8.046,19.988 12.863,29.528c4.528,9.014 8.43,18.507 12.43,27.799c4.048,9.447 6.551,18.935 11.512,27.992c1.976,3.669 4.048,7.274 6.168,10.842c2.36,3.904 5.687,7.62 7.469,11.808c2.17,5.109 4,10.35 6.553,15.417c1.011,2.02 1.933,4.101 2.987,6.121c1.639,3.184 2.17,6.256 3.471,9.54c1.009,2.465 2.359,5.253 3.658,7.372c-1.879,0.137 -4.673,-2.142 -6.312,-3.134c-1.923,-1.067 -3.898,-2.046 -5.73,-3.284c-3.231,-2.119 -7.082,-5.057 -9.734,-7.943c-7.033,-7.661 -14.162,-15.085 -20.858,-23.126c-2.702,-3.232 -5.253,-6.318 -7.759,-9.638c-1.976,-2.602 -3.519,-5.551 -5.634,-7.954c-2.653,-2.935 -4.677,-6.491 -6.893,-9.775c-1.831,-2.787 -3.707,-5.439 -5.249,-8.375c-1.062,-2.119 -2.506,-3.556 -3.807,-5.538c-2.118,-3.184 -3.614,-6.79 -5.83,-9.974c-2.553,-3.718 -4.673,-7.67 -7.129,-11.424c-5.442,-8.288 -10.36,-17.105 -16.09,-25.146c-3.518,-5.061 -6.601,-10.934 -10.695,-15.469c-2.07,-2.367 -4.19,-4.385 -6.022,-6.938c-2.36,-3.419 -4.336,-7.174 -7.081,-10.308c-1.976,-2.267 -4.434,-3.951 -6.168,-6.455c-0.965,-1.302 -1.737,-2.751 -2.505,-4.188c-1.687,-2.998 -3.326,-5.737 -5.494,-8.388c-1.637,-2.033 -2.551,-4.338 -3.902,-6.604c-1.73,-2.936 -3.658,-5.5 -5.009,-8.672c-2.022,-4.868 -4.19,-9.589 -6.455,-14.31c-1.453,-2.985 -1.453,-6.207 -2.456,-9.292c-1.207,-3.555 -2.649,-7.173 -4.096,-10.643c-2.937,-7.177 -5.146,-13.97 -5.057,-21.825c0.097,-5.826 0.288,-11.079 1.639,-16.717c0.576,-2.354 1.688,-4.287 2.456,-6.504c1.056,-2.986 1.303,-6.17 2.455,-9.206c1.101,-2.848 1.79,-4.434 1.832,-7.47z" /> <path d="M338.932,324.747c2.614,1.065 0.641,2.985 -0.132,3.853c-2.263,2.703 -5.057,5.254 -7.898,7.274c-4.677,3.222 -9.782,6.455 -13.974,10.209c-3.904,3.47 -7.562,6.605 -12.287,9.008c-3.275,1.723 -8.961,2.106 -12.283,0.372c-3.905,-2.081 -7.422,-4.337 -11.614,-6.071c-2.744,-1.165 -5.971,-1.55 -8.431,-3.284c-1.49,-1.065 -2.265,-1.882 -3.995,-2.75c-1.639,-0.78 -2.988,-1.351 -4.335,-2.602c-2.941,-2.664 -5.735,-5.401 -8.383,-8.388c-4.384,-5.014 -8.383,-10.353 -12.238,-15.756c-2.696,-3.703 -5.635,-8.237 -7.417,-12.475c-3.566,-8.432 -4.972,-16.477 -4.623,-25.583c0.338,-9.248 3.66,-17.489 6.553,-26.112c1.009,-3.135 1.976,-6.308 2.889,-9.442c0.53,-14.837 7.033,-27.029 13.922,-39.988c5.206,-9.68 10.84,-27.746 19.704,-34.35c1.446,-1.065 3.902,-0.618 5.013,0.62c7.945,8.475 11.271,24.476 9.056,35.553c-2.024,10.214 -5.927,19.704 -7.566,30.112c-0.192,1.401 -0.458,2.75 -0.721,4.101c0.816,1.785 1.302,4.387 1.302,5.873c-0.096,2.651 0.87,4.77 0.913,7.323c0.047,2.9 0.612,5.538 0.918,8.388c0.193,2.267 0.805,4.437 1.154,6.703c0.625,3.951 0.578,8.139 1.832,11.992c1.059,3.383 2.601,6.853 3.952,10.173c1.442,3.754 2.889,7.087 5.154,10.457c4.24,6.361 9.589,11.464 15.657,16.185c7.807,6.122 18.357,8.485 27.894,8.574z" /> <path d="M450.234,349.806c-2.458,-3.928 13.199,-1.035 15.752,-0.992c7.226,0.248 15.369,1.734 22.305,3.667c5.83,1.685 11.079,5.106 16.718,7.509c5.686,2.403 10.695,6.356 15.704,9.974c2.408,1.734 5.109,3.072 7.421,5.005c3.467,2.899 6.792,6.119 10.21,9.106c4.917,4.242 8.863,9.545 12.959,14.55c3.952,4.867 8.384,10.306 11.081,15.944c3.517,7.327 6.844,13.78 9.397,21.537c1.928,5.932 2.745,11.704 2.745,17.924c0,2.837 -0.285,5.302 -0.768,8.09c-0.483,3.135 0.05,6.307 -0.346,9.491c-0.384,2.553 -1.238,5.054 -1.634,7.607c-0.359,2.899 0.174,5.787 -0.222,8.723c-0.87,5.877 -0.82,11.415 -2.652,17.151c-0.286,1.016 -0.434,3.543 -1.054,4.287c-1.25,1.475 -0.915,0.213 -1.832,0.124c-3.081,-0.246 -6.837,-1.758 -9.824,-2.75c-1.639,-0.569 -3.133,-1.424 -4.82,-1.92c-2.072,-0.68 -4.384,-0.68 -6.408,-1.3c-0.257,-1.201 -0.257,-2.403 0.089,-3.519c0.336,-1.349 0.421,-2.316 0.682,-3.667c0.529,-3.233 1.922,-5.068 1.88,-8.388c-0.048,-4.581 0.438,-9.351 0.042,-13.922c-0.199,-2.75 -0.768,-5.638 -1.202,-8.388c-0.526,-3.618 -0.725,-7.372 -1.542,-10.99c-2.458,-11.081 -9.682,-22.889 -18.691,-29.679c-4.871,-3.667 -9.494,-7.99 -14.648,-11.274c-5.106,-3.222 -11.176,-5.34 -16.575,-8.09c-5.346,-2.69 -11.369,-4.473 -16.33,-7.943c-2.798,-1.92 -6.264,-3.085 -8.288,-5.922c-0.474,-0.669 -0.429,-1.548 -0.867,-2.168c-0.678,-0.966 -1.687,-1.214 -2.558,-1.834c-1.345,-0.854 -2.504,-1.921 -3.658,-3.172c-1.832,-1.92 -3.279,-2.752 -5.494,-4.238c-1.784,-1.202 -2.938,-3.036 -4.673,-4.336c-2.12,-1.587 -3.952,-2.938 -5.927,-4.721c-1.638,-1.438 -3.754,-2.355 -5.105,-4.138c-1.928,-2.503 -0.674,-4.002 0.673,-6.356c1.447,-2.551 3.279,-5.005 4.528,-7.656c0.676,-1.45 0.773,-3.459 2.941,-3.37z" /> <path d="M458.618,635.466c-0.288,-1.685 0.829,-3.086 0.961,-4.672c0.084,-1.165 -0.131,-2.452 -0.089,-3.568c0.192,-3.419 0.678,-7.793 1.639,-11.026c1.832,-6.119 4.192,-12.524 9.446,-16.576c2.068,-1.672 2.168,-0.992 4.721,-0.372c1.832,0.47 3.9,0.594 5.635,1.586c1.494,0.819 3.662,1.969 5.013,3.085c3.37,2.703 5.057,7.039 7.898,10.173c1.64,1.833 4.372,4.721 4.721,7.421c0.245,2.068 -1.395,2.602 -2.408,4.088c-1.154,1.785 -1.347,4.287 -2.313,6.121c-0.769,1.586 -2.024,2.986 -2.841,4.622c-1.592,3.331 -2.788,7.086 -2.746,10.791c0.042,2.602 0.042,5.204 0.042,7.806c0,6.161 1.297,12.097 5.297,17.151c4.336,5.486 9.589,11.037 15.512,14.791c3.374,2.119 7.181,3.173 10.648,5.155c0.623,0.333 3.401,2.031 3.662,2.651c0.288,0.819 -0.917,5.018 -1.351,5.638c-0.433,0.718 -1.588,0.842 -2.12,1.834c-0.433,0.954 -0.48,1.796 -1.009,2.788c-0.918,1.586 -1.974,3.074 -2.841,4.622c-1.301,2.341 -1.013,3.654 -3.902,1.969c-2.263,-1.351 -4.239,-3.173 -6.263,-4.721c-2.216,-1.736 -4.864,-3.036 -7.229,-4.672c-2.408,-1.685 -5.056,-2.948 -7.657,-4.336c-1.83,-1.054 -3.182,-2.454 -4.864,-3.754c-2.653,-2.067 -4.577,-4.522 -6.601,-7.222c-1.735,-2.218 -3.904,-4.388 -5.206,-6.84c-1.154,-2.268 -2.794,-4.289 -3.707,-6.555c-0.774,-1.784 -1.207,-3.754 -1.88,-5.588c-0.918,-2.55 -2.36,-4.669 -2.798,-7.47c-0.289,-1.933 -0.757,-3.754 -1.106,-5.687c-0.81,-4.871 -0.721,-9.69 -0.721,-14.695c0,-2.168 -0.22,-4.436 0.173,-6.604c0.48,-2.85 1.634,-5.638 2.36,-8.388c0.626,-2.403 1.059,-9.39 3.952,-10.01z" /> <path d="M765.369,759.574c1.338,5.589 1.116,11.078 1.116,16.765c0.048,20.426 0.529,41.289 -8.382,60.122c-2.214,4.728 -3.902,9.932 -5.541,14.888c-0.725,2.119 -0.86,4.336 -1.542,6.455c-0.721,2.403 -2.115,4.571 -3.081,6.938c-1.592,3.853 -2.745,7.558 -4.673,11.225c-1.163,2.168 -2.142,4.336 -1.832,6.84c0,-4.525 -0.817,-10.161 0,-14.597c0.148,-1.015 0.843,-1.413 1.016,-2.651c0.274,-1.884 -0.259,-3.705 0.137,-5.638c0.865,-4.765 1.681,-9.584 2.697,-14.305l1.734,3.134c-0.194,-9.009 4.712,-17.293 4.623,-26.448c-0.049,-5.733 -0.086,-11.607 -0.817,-17.343c-0.284,-2.318 -0.668,-4.574 -1.25,-6.84c-4.385,-17.974 -8.962,-35.99 -19.897,-51.359c-2.653,-3.666 -5.109,-7.756 -8.335,-10.94c-1.738,-1.684 -3.52,-3.085 -5.159,-4.868c-1.587,-1.783 -3.42,-2.452 -5.154,-3.902c-3.035,-2.553 -5.591,-5.302 -9.057,-7.372c-6.456,-3.902 -13.829,-8.672 -21.006,-11.026c-4.48,-1.436 -9.009,-2.762 -13.632,-3.754c-1.544,-0.496 -3.133,-0.868 -4.721,-1.116c-4.578,-0.718 -9.206,-1.09 -13.734,-1.834c-2.695,-0.434 -4.432,-0.63 -5.922,-2.7c-1.399,-1.92 -2.029,-4.336 -3.231,-6.356c-1.878,-3.121 -5.346,-5.638 -7.706,-8.524c-1.735,-2.119 -5.64,-5.403 -6.408,-8.24c-0.868,-3.32 2.553,-2.7 4.673,-2.7c3.61,0.047 7.416,-0.29 11.031,-0.042c3.42,0.235 7.081,1.176 10.408,1.92c2.744,0.62 5.345,0.744 8.186,1.116c9.829,1.25 19.851,2.217 29.293,5.302c4.96,1.636 10.505,3.135 15.128,5.538c3.179,1.672 6.168,3.84 9.201,5.773c7.902,5.109 15.128,11.572 22.305,17.68c5.253,4.391 8.963,10.215 13.203,15.517c4.24,5.349 8.475,10.452 10.983,16.858c2.072,5.404 3.995,10.842 5.346,16.43z" /></svg>