<svg xmlns="http://www.w3.org/2000/svg" viewBox="0 0 925 832" width="925" height="832"><path d="M436.193,816.884c-16.88,-16.88 -22.138,-66.832 -7.958,-75.597c4.643,-2.868 7.958,5.221 7.958,19.424c0,13.388 3.581,24.342 7.958,24.342c4.377,0 7.958,-5.372 7.958,-11.937c0,-15.837 7.788,-15.089 20.754,1.99c9.392,12.374 10.6,10.601 10.823,-15.915c0.243,-28.887 -0.643,-29.841 -27.795,-29.841c-21.504,0 -29.841,-4.179 -35.738,-17.905c-4.23,-9.847 -14.837,-26.856 -23.57,-37.797c-10.333,-12.945 -14.202,-26.149 -11.079,-37.797c5.26,-19.619 18.86,-24.537 18.86,-6.819c0,11.082 22.859,24.412 29.858,17.413c7.288,-7.287 -31.21,-52.37 -44.725,-52.37c-7.58,0 -18.078,-4.296 -23.33,-9.548c-11.878,-11.878 -12.466,-48.011 -0.968,-59.509c14.293,-14.293 -27.638,-86.677 -64.242,-110.903c-35.419,-23.44 -110.946,-42.15 -171.842,-42.568c-40.276,-0.27 -40.563,-0.09 -51.007,31.55c-5.778,17.506 -13.513,31.83 -17.189,31.83c-10.718,0 -7.774,-61.97 3.116,-65.601c5.84,-1.943 -1.805,-13.457 -18.913,-28.477c-47.879,-42.038 -52.954,-66.917 -34.367,-168.519c6.549,-35.806 39.942,-97.465 65.498,-120.945c17.707,-16.269 19.039,-16.536 11.952,-2.396c-44.587,88.925 -44.622,106.785 -0.149,78.457c18.402,-11.721 29.841,-25.185 29.841,-35.123c0,-19.519 26.149,-72.479 42.477,-86.028c17.327,-14.381 22.756,1.244 9.66,27.803c-6.197,12.566 -13.63,32.461 -16.517,44.208c-4.939,20.095 -3.44,21.517 25.321,24.026l30.571,2.666l-64.501,29.942l3.295,48.535c4.429,65.237 29.672,115.185 69.708,137.927c17.206,9.775 33.952,17.831 37.212,17.905c3.259,0.09 13.37,-15.7 22.464,-35.05c24.446,-52.006 37.238,-52.35 32.971,-0.89c-3.2,38.579 -1.735,43.127 18.31,56.906c11.981,8.235 36.109,30.079 53.617,48.541c25.733,27.137 34.588,32.09 46.228,25.863c19.716,-10.551 58.017,-9.692 69.263,1.553c7.039,7.039 17.678,0.838 44.388,-25.863c19.322,-19.315 43.622,-40.98 54.005,-48.141c16.047,-11.069 18.695,-19.118 17.673,-53.712c-0.66,-22.38 1.822,-40.693 5.518,-40.693c9.93,0 31.493,33.32 31.493,48.665c0,30.055 38.613,24.204 78.279,-11.861c25.498,-23.182 38.733,-57.981 44.742,-117.637l5.085,-50.466l-68.425,-31.83l29.841,-2.473c35.288,-2.918 38.331,-16.531 14.657,-65.536c-16.201,-33.531 -10.37,-47.924 10.825,-26.728c18.19,18.19 44.146,71.245 44.146,90.233c0,14.371 36.406,41.596 53.631,40.109c8.418,-0.726 3.243,-27.573 -10.328,-53.593c-18.687,-35.821 -12.981,-46.806 9.022,-17.38c32.038,42.846 41.687,65.058 53.821,123.882c15.188,73.633 9.782,101.021 -27.723,140.445c-21.012,22.088 -28.359,35.156 -22.862,40.653c10.082,10.081 10.341,44.759 0.45,60.399c-6.196,9.797 -8.249,9.146 -12.561,-3.979c-17.948,-54.663 -21.506,-59.457 -44.089,-59.457c-12.421,0 -49.902,4.064 -83.296,9.029c-74.482,11.078 -124.737,41.877 -153.459,94.048c-16.791,30.5 -18.258,38.759 -10.524,59.247c7.206,19.09 6.605,27.443 -3.029,42.147c-6.61,10.086 -18.684,18.337 -26.832,18.337c-17.088,0 -35.528,25.249 -43.594,59.68l-5.591,23.874l19.961,-23.874c10.978,-13.13 20.091,-26.558 20.247,-29.841c0.156,-3.283 3.867,-5.968 8.244,-5.968c16.958,0 8.17,52.728 -11.937,71.618c-17.051,16.02 -19.895,25.706 -19.895,67.792c0,37.464 -3.45,52.225 -14.553,62.273c-19.02,17.213 -29.75,16.613 -49.107,-2.743zM468.021,609.519c0,-14.202 -3.315,-22.293 -7.958,-19.424c-4.375,2.707 -7.958,13.658 -7.958,24.342c0,10.684 3.581,19.424 7.958,19.424c4.375,0 7.958,-10.953 7.958,-24.342zM127.471,319.246c2.349,-2.35 -0.284,-17.569 -5.856,-33.819c-5.572,-16.25 -12.681,-50.136 -15.801,-75.302c-3.12,-25.166 -7.773,-45.754 -10.342,-45.754c-2.569,0 -16.48,11.446 -30.913,25.434c-27.844,26.988 -33.249,53.925 -17.678,88.099c13.451,29.524 65.639,56.296 80.592,41.345zM858.551,300.257c30.663,-30.663 31.65,-71.662 2.639,-109.699c-11.342,-14.868 -24.671,-25.682 -29.623,-24.032c-4.952,1.65 -13.165,29.593 -18.253,62.093c-5.088,32.5 -11.868,67.148 -15.071,76.994c-5.064,15.578 -3.035,17.905 15.612,17.905c13.081,0 30.5,-9.067 44.694,-23.261z" /></svg>