<svg xmlns="http://www.w3.org/2000/svg" viewBox="0 0 852 524" width="852" height="524"><path d="M756.383,329.077c5.392,3.138 3.641,5.724 1.566,6.708c-2.038,0.984 -4.189,1.322 -6.229,2.258c-4.151,1.753 -5.281,3.564 -9.944,3.532c-5.465,0 -13.224,-1.003 -18.653,0.375c-2.223,0.553 -3.318,1.688 -5.101,2.624c-2.623,1.312 -5.866,1.819 -8.634,3.28c-3.496,1.854 -8.122,6.959 -9.324,10.857c-1.166,3.934 1.093,9.981 2.04,13.842c1.201,4.95 3.859,8.81 8.086,11.874c3.168,2.256 8.231,3.896 11.802,4.88c2.367,0.656 12.309,0.871 12.458,5.097c-2.151,2.372 -5.064,1.935 -7.978,1.903c-5.065,-0.095 -10.092,0.094 -15.156,-0.375c-7.761,-0.721 -16.795,-1.048 -24.008,-4.328c-4.153,-1.893 -7.14,-4.693 -10.637,-7.504c-2.042,-1.677 -4.336,-3.766 -6.996,-3.391c-2.294,0.29 -5.755,2.725 -7.795,3.785c-6.011,3.13 -10.164,8.34 -16.467,11.404c-3.313,1.601 -6.372,3.682 -9.324,5.827c-2.222,1.603 -5.211,4.413 -6.704,6.596c-4.518,6.665 4.917,19.096 7.467,25.353c2.006,4.845 3.753,9.765 6.377,14.282c1.058,1.818 7.906,9.032 7.25,11.038c-1.165,3.662 -15.3,-0.095 -17.485,-0.375c-11.694,-1.604 -13.479,-13.956 -18.616,-23.025c-2.079,-3.61 -4.593,-7.581 -8.308,-9.764c-2.659,-1.565 -5.792,-1.827 -8.634,-2.952c-3.97,-1.526 -6.668,-3.822 -11.002,-2.838c-1.677,0.393 -3.35,0.861 -5.027,1.236c-4.88,1.058 -9.509,3.429 -14.135,5.902c-7.139,3.828 -17.086,6.126 -21.056,13.592c-1.459,2.725 -3.495,6.267 -3.899,9.358c-0.692,5.395 0.692,10.457 1.968,15.63c1.824,7.394 4.117,14.648 8.308,21.13c2.366,3.641 5.61,6.517 8.743,9.581c2.259,2.221 7.72,5.574 7.541,9.069c-2.078,0.028 -4.555,-1.282 -6.667,-1.751c-5.9,-1.274 -10.126,-2.621 -15.263,-5.864c-6.011,-3.792 -11.732,-7.983 -13.589,-15.159c-3.026,-11.694 -5.831,-23.496 -13.007,-33.549c-1.567,-2.22 -3.972,-7.327 -6.121,-8.816c-1.567,-1.031 -3.569,-0.408 -5.282,-0.375c-3.752,0.114 -6.738,1.115 -10.309,1.678c-4.043,0.58 -7.069,0.403 -11.075,1.892c-2.624,0.994 -5.138,1.789 -7.688,3.101c-2.731,1.386 -6.52,2.483 -8.451,4.956c-1.676,2.155 -2.513,6.229 -3.28,8.712c-1.567,5.281 -1.241,11.656 -2.661,17.192c-2.004,7.615 -0.364,16.07 1.895,23.79c1.273,4.368 0.549,8.855 1.677,13.005c0.838,2.915 2.987,5.397 4.044,8.274c-2.588,0.994 -7.689,0.375 -10.383,-0.094c-6.303,-1.125 -9.509,-4.406 -13.335,-9.399c-2.988,-3.901 -8.671,-8.852 -9.873,-13.845c-0.984,-4.009 0.114,-8.384 -0.58,-12.421c-0.471,-2.915 -1.059,-5.538 -1.238,-8.526c-0.329,-5.719 -1.607,-11.006 -1.493,-16.796c0.074,-3.347 -0.472,-7.497 -1.566,-10.598c-1.749,-4.883 -9.4,-3.385 -13.334,-2.297c-5.355,1.495 -7.105,5.391 -8.525,10.132c-0.947,3.129 -2.042,6.22 -3.17,9.321c-2.115,5.795 -2.371,11.366 -3.535,17.306c-1.419,7.284 0.221,19.015 -5.864,24.626c-3.896,3.636 -13.224,6.334 -18.178,4.807c2.296,-4.338 2.44,-10.235 4.08,-14.9c2.949,-8.269 4.08,-16.649 5.901,-25.175c1.969,-9.179 2.88,-17.85 0.731,-26.956c-1.604,-6.886 -2.186,-9.361 -9.69,-9.293c-5.355,0.037 -12.167,-1.06 -16.866,1.892c-3.752,2.328 -4.372,7.249 -6.557,10.602c-2.075,3.241 -4.151,6.594 -5.864,10.492c-1.968,4.414 -3.279,9.801 -5.974,13.772c-6.085,8.85 -15.921,14.717 -25.538,18.688c-5.903,2.473 -11.222,4.224 -17.414,5.902c-3.681,0.899 -6.74,0.805 -10.456,1.274c4.224,-0.58 8.632,-6.595 11.474,-9.472c4.044,-4.117 7.943,-8.089 11.585,-12.643c3.715,-4.665 6.265,-10.893 9.288,-16.139c2.806,-4.807 6.815,-9.873 7.943,-15.298c0.874,-4.045 1.458,-9.253 1.53,-13.442c0.074,-2.586 0.476,-4.993 -1.128,-6.999c-1.312,-1.637 -4.736,-3.408 -6.704,-3.971c-1.383,-0.374 -2.694,0.095 -3.97,-0.28c-0.984,-0.252 -1.857,-0.994 -2.624,-1.274c-4.592,-1.388 -11.584,-4.161 -14.536,1.198c-2.805,5.064 -5.134,10.164 -8.669,15.008c-11.732,15.994 -24.153,29.361 -41.494,39.161c3.645,-6.883 7.176,-14.028 10.456,-21.093c2.585,-5.649 6.009,-10.71 7.722,-16.612c1.275,-4.445 2.988,-8.671 4.736,-12.933c1.423,-3.428 2.004,-6.996 3.28,-10.528c1.931,-5.541 2.332,-9.617 -2.695,-13.298c-4.665,-3.391 -8.779,-5.902 -13.953,-8.526c-2.951,-1.49 -3.751,-1.883 -6.995,-2.726c-3.388,-0.861 -5.72,-1.203 -9.362,-1.236c-7.431,-0.038 -9.728,2.37 -14.025,8.16c-6.156,8.304 -12.967,13.222 -21.857,18.395c-9.362,5.462 -19.273,11.617 -29.618,15.008c1.275,-1.386 2.477,-3.822 3.424,-5.536c1.965,-3.641 4.334,-6.228 6.811,-9.581c3.242,-4.447 7.176,-7.866 10.309,-12.279c2.259,-3.135 5.245,-6.19 7.213,-9.506c1.348,-2.182 1.677,-4.665 2.805,-6.886c6.776,-13.151 -0.293,-30.671 -11.148,-39.197c-4.591,-3.57 -9.69,-6.961 -14.827,-9.724c-3.424,-1.866 -7.213,-3.579 -10.965,-4.704c-4.518,-1.351 -8.017,-3.684 -12.314,-5.398c-11.038,-4.338 -21.383,-8.958 -32.968,-11.731c-2.695,-0.655 -5.098,-1.818 -7.722,-2.661c-3.169,-0.918 -6.301,-0.823 -9.581,-1.198c-5.537,-0.656 -11.657,-1.641 -17.122,-2.877c-1.493,-0.327 -2.768,-0.655 -4.08,-1.498c1.894,-2.437 7.359,-1.688 9.873,-1.968c4.88,-0.542 9.362,-1.266 14.316,-1.198c9.945,0.061 20.073,-0.689 30.017,-0.033c13.261,0.805 26.777,2.987 39.054,8.309c7.833,3.388 16.468,6.89 23.353,12.025c6.413,4.809 12.424,10.527 18.362,16.063c4.918,4.589 10.637,8.017 15.956,11.661c3.096,2.147 6.266,3.647 9.472,5.463c4.408,2.546 8.307,6.332 12.715,8.993c7.905,4.767 15.229,8.711 23.606,12.458c3.862,1.715 6.848,4.817 10.965,6.053c2.187,0.691 3.936,0.805 6.121,1.751c14.828,6.521 29.435,14.098 44.955,18.905c6.849,2.155 13.771,3.792 20.582,6.089c7.178,2.435 13.772,5.901 21.166,7.504c15.445,3.421 30.2,0.938 45.755,0.469c5.284,-0.142 10.238,-1.635 15.52,-1.603c4.298,0.038 8.197,-0.384 12.458,-1.133c9.4,-1.602 18.836,-1.415 28.16,-3.129c6.011,-1.088 12.277,-3.026 18.325,-3.495c8.562,-0.767 16.796,-4.552 25.465,-5.864c9.251,-1.422 17.776,-5.217 26.92,-7.072c4.445,-0.908 9.108,-1.817 13.442,-3.129c3.387,-1.012 6.082,-4.189 9.288,-5.968c3.39,-1.855 7.143,-1.826 10.821,-3.353c12.276,-5.174 26.083,-8.528 37.594,-15.265c9.001,-5.283 18.399,-10.124 26.486,-16.757c2.476,-2.007 6.154,-3.422 8.377,-5.463c1.422,-1.302 1.567,-3.054 2.916,-4.441c2.55,-2.51 6.45,-4.047 9.144,-6.557c1.821,-1.716 2.731,-3.43 4.954,-4.704c3.17,-1.854 6.192,-4.113 9.362,-5.864c8.27,-4.562 19.489,-3.468 28.56,-1.865c2.988,0.56 5.718,-0.095 8.634,0.28c2.403,0.29 4.408,1.471 6.848,1.751c3.06,0.312 5.938,-0.376 8.961,0.28c1.423,0.262 0.877,1.947 3.28,1.198z" /> <path d="M240.92,238.613c-0.402,2.079 -2.403,2.914 -3.899,4.15c-5.828,4.769 -12.314,7.757 -19.162,11.039c-23.024,11.036 -49.362,12.238 -74.462,11.293c-13.77,-0.469 -37.487,-3.129 -43.716,-17.96c-1.276,-2.988 -1.713,-6.557 -5.573,-7.1c-1.094,-0.094 -2.185,0.28 -3.28,0.469c-6.412,0.984 -12.896,1.527 -19.379,2.221c-16.029,1.64 -37.996,6.962 -52.057,-3.971c-4.736,-3.644 -10.747,-9.069 -13.733,-14.317c-2.768,-4.769 -2.259,-10.639 -4.154,-15.739c-1.021,-2.697 -2.44,-4.59 1.276,-5.94c2.367,-0.843 6.084,-0.843 8.669,-1.461c8.669,-2.006 17.522,-1.968 26.375,-3.57c0.947,-2.838 -2.514,-9.22 -2.805,-12.315c-0.767,-7.4 7.103,-11.003 12.568,-14.063c6.011,-3.391 12.933,-5.94 19.527,-7.757c4.626,-1.312 9.653,-1.855 14.245,-3.353c0.11,-4.085 3.899,-6.924 5.901,-10.201c5.319,-8.74 15.919,-11.511 25.354,-14.315c8.233,-2.407 17.85,-2.334 26.301,-3.391c6.484,-0.843 12.859,-1.498 19.416,-1.64c9.873,-0.187 19.781,0.187 29.654,0.067c3.678,-0.033 5.793,1.714 9.107,1.714c4.954,0.033 10.674,-3.204 15.484,-4.479c10.528,-2.801 25.21,-4.037 35.372,0.563c4.191,1.93 8.524,4.189 12.568,6.344c3.679,1.968 4.88,2.155 9.362,2.155c6.922,-0.033 21.966,-2.988 25.609,5.574c1.713,4.037 -0.837,5.35 -3.899,7.138c-5.647,3.28 -10.855,8.451 -16.977,10.602c-3.133,1.088 -5.501,2.51 -8.743,3.495c-2.878,0.936 -4.991,3.419 -7.869,4.226c-2.004,0.563 -4.153,-0.375 -6.048,0.469c-0.037,2.624 2.987,4.189 4.191,6.268c1.747,2.988 3.314,7.214 3.57,10.635c0.438,5.687 -1.385,7.691 -5.355,11.658c-1.858,1.855 -7.177,3.861 -8.197,5.864c2.332,3.064 2.952,5.322 4.153,8.92c1.677,5.173 1.604,4.704 -0.583,9.69c-4.08,9.182 -10.929,17.924 -8.816,17.012z" /> <path d="M284.687,76.19c-17.269,8.226 -17.377,8.6 -17.449,9.069c-3.059,0.694 -5.61,1.705 -8.743,1.892c-8.414,0.435 -16.976,-0.034 -25.391,-0.034c-11.805,0 -23.788,0.655 -35.556,-0.094c-4.516,-0.291 -9.58,-1.199 -13.697,-3.129c-8.562,-4.041 -9.582,-15.772 -3.17,-22.62c4.954,-5.321 12.606,-6.333 19.417,-7.176c0.073,-0.983 -0.183,-2.801 0.254,-3.644c1.275,-2.437 5.757,-3.055 8.307,-3.898c8.488,-2.586 16.865,-5.725 25.427,-7.908c17.084,-4.411 34.898,-4.562 52.02,-8.018c0.473,-2.332 -0.511,-4.955 0.473,-7.176c0.873,-2.044 3.571,-4.264 5.064,-5.978c8.268,-9.695 20.217,-14.66 32.859,-14.754c4.442,-0.034 8.924,0.127 13.368,0.033c3.317,-0.036 5.975,-0.954 9.218,-1.423c7.468,-1.04 15.775,-0.094 23.316,-0.094c13.153,0 26.703,-1.126 39.709,1.423c8.633,1.678 18.797,3.936 26.666,8.274c2.693,1.526 6.774,3.823 9.324,5.864c1.058,0.833 1.386,1.958 2.514,2.801c3.461,2.69 6.377,0.938 10.383,0.469c9.251,-1.133 19.125,-0.093 28.487,-0.187c21.312,-0.217 39.964,10.532 58.36,20.113c7.36,3.858 13.663,6.596 21.458,8.375c-0.366,1.751 -2.478,2.117 -4.044,3.101c-4.883,3.017 -9.399,6.333 -14.573,8.957c-11.367,5.828 -24.408,12.827 -37.086,14.972c-10.638,1.771 -21.421,0.783 -32.132,0.749c-14.5,-0.036 -29.618,1.602 -43.934,-1.423c-6.556,-1.348 -13.076,-3.175 -19.453,-5.246c-3.534,-1.218 -7.397,-1.903 -11.112,-0.843c-5.863,1.708 -9.726,8.125 -15.299,10.749c-7.396,3.513 -17.159,3.419 -25.173,4.262c-6.45,0.656 -13.117,0.656 -19.564,0c-14.754,-1.413 -29.507,-3.86 -44.225,-5.639c-5.537,-0.657 -10.528,-1.761 -16.029,-1.855z" /> <path d="M618.951,90.192c-0.328,-0.067 -0.656,-0.187 -0.947,-0.28c0.618,-7.176 21.166,-9.65 25.829,-10.344c9.363,-1.453 18.834,-1.93 28.307,-1.968c9.545,-0.033 17.705,-0.563 26.448,3.644c4.554,2.192 6.447,4.299 11.621,4.262c22.659,-0.187 45.246,-2.079 68.014,-1.678c8.853,0.094 17.777,0.936 25.866,4.844c4.991,2.435 12.314,5.574 16.357,9.397c2.587,2.483 2.731,6.23 6.192,7.757c6.265,2.773 14.172,0.28 20.219,4.665c0.694,0.469 4.699,3.101 4.773,4.01c0.179,2.041 -6.958,5.79 -8.562,6.848c-17.158,11.585 -41.311,20.509 -61.639,12.566c-1.714,-0.656 -3.863,-0.936 -5.501,-1.714c-1.677,-0.843 -3.535,-3.316 -5.536,-3.167c-1.202,0.067 -2.731,1.93 -3.678,2.51c-4.191,2.661 -10.128,3.495 -14.865,4.665c-9.254,2.297 -19.162,6.924 -28.925,5.574c-1.857,-0.28 -3.715,-1.564 -5.573,-1.387c-1.857,0.187 -4.154,2.549 -5.901,3.28c-5.537,2.258 -12.678,2.51 -18.506,3.391c-11.183,1.751 -23.716,1.892 -34.753,-0.843c-7.467,-1.816 -14.754,-6.081 -22.221,-7.504c-2.878,-0.563 -5.975,0 -8.925,-0.033c-12.458,-0.067 -25.682,-2.407 -37.96,-4.554c-13.114,-2.297 -25.354,-8.74 -35.301,-17.483c-2.112,-1.855 -10.564,-8.309 -9.69,-11.767c0.506,-2.183 3.35,-2.773 5.208,-3.795c15.627,-8.637 29.507,-18.979 47.94,-18.795c6.776,0.066 13.589,-0.187 20.327,0c3.678,0.094 7.067,2.041 1.386,7.87z" /></svg>