<svg xmlns="http://www.w3.org/2000/svg" viewBox="0 0 666 928" width="666" height="928"><path d="M332.604,0c56.736,0.196 110.325,7.616 162.82,22.906c67.914,26.212 135.534,51.116 162.254,164.406c16.798,84.08 14.987,147.397 -74.035,210.035c-72.052,46.01 -150.052,77.328 -218.98,130.594c-7.384,8.566 -58.839,59.348 5.277,68.93c25.24,1.482 37.098,-5.949 53.098,-10.555c31.656,-30.516 24.23,-1.652 14.016,12.832l-0.008,0.008c-24.564,29.208 -61.327,64.16 -139.457,55.93c-53.608,-15.028 -70.744,-66.774 -40.566,-132.41c51.918,-79.818 86.236,-81.464 172.934,-162.422c31.024,-26.212 47.02,-55.04 38.918,-121.816c-2.62,-30.856 -8.232,-69.607 -31.828,-106.035c-30.476,-37.946 -69.093,-62.51 -148.867,-60.992c-31.152,3.758 -92.189,-0.953 -136.215,62.641c-25.368,43.856 -13.166,84.079 23.598,111.937c43.348,25.41 81.292,-4.607 125.484,-19.797c9.882,-4.942 18.448,-5.576 31.66,-3.926c12.366,-1.196 23.214,10.052 5.574,16.168c-18.108,8.23 -24.224,23.383 -22.918,44.023c-6.928,44.32 3.972,83.741 -56.52,114.891c-25.072,5.946 -111.979,24.565 -175.633,-16.969c-83.406,-48.794 -99.912,-140.132 -67.918,-228.52c28.194,-62.68 70.07,-103.71 178.254,-139.504c48.9,-8.29 94.931,-12.508 139.059,-12.355zM320.155,711.195c20.874,-0.436 42.013,12.495 61.344,42.488c12.198,29.336 22.246,73.017 4.094,124.977c-25.2,49.26 -87.882,79.441 -129.922,2.457c-20.768,-45.5 -12.029,-84.082 -2.453,-122.324h0.008c19.956,-29.441 43.273,-47.104 66.93,-47.598z" /></svg>