<svg xmlns="http://www.w3.org/2000/svg" width="480" height="272" viewBox="0 0 4800 2720"><path d="M2265 2714c-16-2-81-9-143-15-96-10-112-14-108-28 21-74 106-414 104-416-5-4-536 140-543 146-6 7 132 133 180 165 21 14 25 22 20 43-4 14-8 27-9 28-5 5-222-58-333-97-451-158-861-396-1310-764L0 1676l17-25c50-80 201-284 298-406 365-456 734-774 1150-991l128-67 19 23c18 22 18 22-45 89-34 37-73 81-85 99-22 30-22 32-5 39 10 4 182 75 383 159s366 151 368 150c1-2-16-164-38-361-23-196-39-359-38-361 5-4 167-24 198-24 23 0 49 34 210 268 100 147 187 271 191 276 5 5 59-95 124-230 64-131 117-240 119-241 4-4 234 75 266 92l27 14 7 243c4 134 9 244 11 246 1 2 90-49 197-112 106-63 201-118 209-121 14-5 124 73 227 162l33 28-107 175c-59 96-119 196-135 222l-27 46 136 6c76 4 188 9 250 12 95 5 112 4 112-9 0-8-11-57-25-108-22-87-23-95-8-106 9-7 22-13 27-12 22 1 260 295 380 469 71 102 226 345 226 354 0 8-240 219-348 306-104 83-370 265-473 323-46 26-47 26-64 6-18-19-18-21 13-65 18-24 32-48 32-52 0-9-321-45-328-37-3 3 19 62 49 131 30 70 55 130 57 134 3 9-199 95-329 141l-95 33-64-52c-72-58-76-56-86 24-3 28-9 56-13 62-9 15-171 48-321 67-169 22-152 29-185-75-16-49-31-90-35-90-3 0-43 43-90 95l-85 95-70-1c-38-1-83-4-100-5m709-521c217-54 402-241 461-468 27-107 15-314-24-383-7-13-12-8-25 22-22 52-131 158-190 184-248 110-529-43-566-309-14-97 11-210 63-283l20-29-39 7c-214 40-423 235-488 456-26 85-31 222-12 310 46 221 220 415 433 484 110 36 246 39 367 9m-1344-225c114-106 207-197 206-202-3-11-658-227-665-220-9 9 31 191 64 290 31 93 104 253 143 312 8 13 21 21 29 18s108-92 223-198m2559-286c23-109 38-252 27-252-13 0-388 191-384 196 3 2 74 52 159 109l154 106 11-28c7-16 21-74 33-131m-2650-415c189-34 343-66 343-72 0-16-496-624-507-622-18 5-103 181-139 287-44 134-65 239-74 368-7 98-7 102 13 101 11 0 175-28 364-62"/></svg>