<svg xmlns="http://www.w3.org/2000/svg" width="447.305" height="438.601" viewBox="0 0 4473.052 4386.014"><path d="M384.043 3776.014v-610h2070v1220h-310v-770h-510v770h-1250zm800-65v-255h-510v248c0 137 3 252 7 255 3 4 118 7 255 7h248Zm1460-165v-380h360c198 0 360-3 360-7-1-5-39-39-85-78-47-38-85-71-85-72 0-2 225-3 500-3h500v920h-450v-630h-510v630h-590zm-2644-579c12-11 1384-1151 1406-1169 15-12 100 56 710 564 381 317 702 585 713 595 19 19-13 19-1410 19-802 0-1425-4-1419-9m2813-272c-79-66-150-126-157-133-13-13-21-5 569-497l176-147 534 445c294 245 536 447 538 449s-338 4-756 4h-759zm-831-693c-279-232-510-425-514-429s284-7 639-7h647v645l-122 100c-67 55-126 103-132 106-6 4-239-183-518-415m572-131v-175h-370v350h370zm-1390-214v-91h108l107 1-35 30c-19 16-68 57-107 90l-73 60zm1940-26v-65l227-2 228-3-89-75-90-75 57-3 57-3v-189h-170v71c0 39-4 69-8 67-5-1-54-41-110-88l-101-85-1-47v-48h1090v610h-130v-390h-190v390h-770zm-2880-560v-305h547c305 0 543 4 538 9-6 4-170 142-366 305l-357 296h-362zm390-80v-95h-170v88c0 49 3 92 7 95 3 4 42 7 85 7h78zm300 361c14-13 255-215 536-449l511-425 534 445c294 245 536 447 538 449s-479 4-1070 4h-1074Zm2050-461c0-6 670-565 684-571 9-3 607 486 681 557 19 19 8 19-673 19-380 0-692-2-692-5m-2880-320c0-6 670-565 684-571 9-3 607 486 681 557 19 19 8 19-673 19-380 0-692-2-692-5"/></svg>