<svg xmlns="http://www.w3.org/2000/svg" width="386" height="392" viewBox="0 0 3860 3920"><path d="M1046 3904c-3-9-6-17-6-19s35-22 78-45c266-138 404-373 346-588-7-23-6-23 52-17 101 12 159-22 205-118 115-243 19-769-218-1182-35-62-57-88-94-113-27-18-53-32-57-32-5 0-30 75-57 168-26 92-53 172-59 178-7 7-97 16-226 23-293 15-300 15-300-8 0-15 39-34 188-96l189-77 41-147c23-80 42-151 42-157 0-10-221-164-235-164-3 0-100 63-215 140s-213 140-218 140c-4 0-35-33-67-72-33-40-144-175-247-300S0 1187 0 1182s6-14 13-20c9-8 78 40 266 183l255 194 28-20c26-19 28-24 23-72-18-175-23-292-12-299 25-16 34-4 86 120 30 70 57 130 61 135 3 4 54-24 112-62l105-69 310 204c274 181 316 205 369 215 77 14 148-1 192-41 18-16 32-33 32-38s-70-69-155-141c-137-117-154-134-145-152 6-10 12-19 14-19 1 0 31 12 67 26 35 15 109 44 163 65l99 39-6-83c-5-77-11-95-98-282-50-110-92-201-93-202-4-6-153 31-162 40-6 7-44 90-85 185-63 146-77 172-94 170-23-3-23 1-10-199l7-126-312 66-313 65-56-62-56-62-199 70c-198 70-217 73-215 35 0-5 65-61 145-124 79-63 143-118 142-122-2-4-45-56-97-114-84-96-92-108-79-122 14-13 40 0 250 136l235 151 79-16c43-10 83-20 87-24s-17-78-48-165c-84-240-66-246 105-32 67 83 126 154 131 155 5 2 110-17 233-43l224-48-34-75c-19-42-39-81-44-87-6-7-166-77-356-156-190-78-349-149-351-157-3-7-1-18 4-23 7-7 610 118 703 146 9 3 80-41 168-105 84-60 152-104 152-97 0 8-3 16-6 20-4 3-34 67-69 142l-63 136 110 237c60 130 113 240 117 244 4 5 90-21 191-57 181-63 201-66 199-30 0 6-65 62-145 125s-150 120-156 127c-7 9-7 22 2 43 16 39 82 65 148 57 95-11 124-31 278-190 80-82 141-153 137-157s-123-51-263-104c-140-54-258-101-263-105-4-4 24-126 63-272 39-145 75-281 81-301 7-28 15-38 29-38 19 0 20 8 20 238v239l162 63c136 53 163 60 172 48 71-93 440-548 445-548 3 0 12 4 20 9 15 9 0 41-206 438-51 100-90 183-86 186 4 2 100-29 213-68 194-69 205-72 214-54 6 12 6 23 0 28-5 4-85 69-179 143-145 115-315 275-315 297 0 3 57 41 126 84l126 78 230-108 231-107 159-198c141-176 161-196 177-186 18 11 18 14-6 77-105 278-122 326-115 332 4 3 60 25 125 49 105 38 117 45 117 66 0 22-4 24-47 24-109 1-350 21-376 31-21 9-26 16-21 31 3 10 48 107 100 215 88 182 93 197 77 209s-21 10-43-15c-14-15-79-88-145-161s-128-143-138-156-25-24-32-24-52 19-99 41c-74 36-85 44-81 63 3 11 21 88 40 170 18 81 35 149 37 150 2 2 112 63 245 137 134 74 243 139 243 144 0 35-21 32-334-55-175-49-320-91-322-93-2-1-28-105-57-230-30-125-56-229-58-231-16-14-298-186-306-186-5 0-32 24-60 52-140 142-236 560-168 727l18 44 57-63 56-62 56 35 56 36 114-131c62-72 116-136 119-141 4-5 15-5 27 2 20 11 19 16-49 182-37 95-67 175-64 178 2 4 67 47 144 95 126 79 140 90 130 108-6 11-17 17-27 14-139-41-456-126-462-124-4 2-69 76-144 165-113 134-142 176-171 244-79 183-111 350-102 532 15 320 163 578 434 759 48 33 88 63 87 69-1 5-2 14-2 19-1 6-47 10-114 10-109 0-112-1-177-37-39-21-99-70-147-117-95-95-142-182-178-328-27-110-36-99-36 44 0 166 44 287 141 388l48 50h-625l57-60c56-58 99-131 118-198 12-42 2-41-28 4-49 71-152 154-256 205l-100 49h-121c-102 0-123-3-128-16m857-1376c34-136-3-311-93-446-41-61-86-109-95-100-3 3 8 35 24 71 42 92 95 263 123 389 13 60 26 108 29 108 4 0 9-10 12-22m277-348 31-40-26-35c-15-19-37-60-50-90l-22-56-7 41c-3 22-4 59 0 83 6 42 33 137 39 137 2 0 17-18 35-40"/></svg>