<svg xmlns="http://www.w3.org/2000/svg" width="446.871" height="443.92" viewBox="0 0 4468.709 4439.199"><path d="M3019.332 4418c-53-27-100-86-131-165-35-87-33-248 5-398 25-101 129-423 145-453 14-25 242 340 319 511 34 76 37 89 37 177 0 83-4 102-27 150-40 81-90 134-160 169-74 37-127 40-188 9m-727-12c-157-74-240-276-183-446 48-143 287-579 310-565s154 387 192 544c46 198 3 377-114 461-54 39-128 41-205 6m-701-153c-104-37-210-184-231-321-24-154 32-256 241-438 99-87 299-244 309-244 25 0 16 518-12 704-12 83-63 196-110 245-35 36-101 71-134 70-11 0-39-7-63-16m2124-107c-67-25-126-96-161-196-27-77-37-237-26-429 13-217 31-412 41-429 5-10 44 23 128 108 231 231 352 395 372 503 28 149-65 348-196 419-64 34-110 41-158 24m-2752-415c-98-60-147-216-110-346 14-46 28-69 71-111 86-83 375-268 392-250 8 7-14 209-37 341-36 210-76 293-170 356-51 34-101 38-146 10m89-1123c-130-163-243-365-251-446-15-165 138-362 281-362 61 0 105 32 142 105 29 56 30 65 29 174-1 96-7 137-32 232-37 138-101 341-112 352-4 5-30-20-57-55m857-25c-220-255-404-510-435-604-13-38-16-74-13-138 3-74 9-98 39-162 43-88 102-152 172-185 62-28 89-30 142-5 78 35 152 147 178 269 14 65 14 717 0 840l-8 72zm1847 12c-11-37-47-377-58-561-19-288 1-400 93-516 34-43 101-78 149-78 88 1 188 85 247 208 35 74 37 82 37 182 0 101-1 107-36 175-64 122-263 409-402 580-22 27-25 28-30 10m-656-400c-51-133-115-338-135-436-29-144-30-180-6-265 57-208 182-289 331-214 150 77 234 272 183 427-38 117-225 457-312 567l-20 27zm-638-22c-127-194-245-429-266-529-48-228 196-482 378-394 82 40 150 165 162 300 9 99-71 403-170 648l-34 84zm-1838-1269c-177-27-309-89-406-191-117-123-170-262-204-535-21-175-21-178 14-178 62 0 270 32 366 56 236 59 400 181 488 365 49 100 79 205 96 332 16 112 14 154-5 161-28 11-257 4-349-10m3455-21c0-57 29-659 36-730 4-47 10-63 20-63 36 0 131 57 184 110 200 200 199 469-2 616-47 35-155 85-210 98-27 6-28 5-28-31"/></svg>