<svg xmlns="http://www.w3.org/2000/svg" width="398.093" height="398.6" viewBox="0 0 3980.932 3986"><path d="M1658 3922c-16-54-19-95-19-258v-194l-75-22c-129-38-298-115-388-177l-43-30-107 104c-108 105-163 148-239 187-58 29-62 28-52-23 16-86 68-192 168-340l50-73-41-39c-89-87-212-253-268-365-13-24-23-45-25-47-1-1-62 13-136 32-149 38-255 52-323 42l-46-7 23-31c34-46 155-130 280-194 61-31 114-58 116-60s-3-29-12-61c-28-99-40-192-46-351l-6-154-113-29c-136-35-243-78-308-124l-48-34 30-11c16-6 36-13 44-16 34-12 233-22 330-16l105 7 37-112c43-132 99-253 156-341l41-63-88-87c-48-48-108-114-133-148-52-68-95-150-85-160 24-24 210 56 361 157l89 59 77-73c86-82 222-178 318-226 50-25 62-36 57-49-4-9-20-69-37-132-33-125-51-331-30-344 31-19 150 139 237 313 44 88 48 93 73 87 139-29 179-36 257-46 49-6 131-10 182-9 52 1 96-1 99-4s12-34 20-68c34-148 90-288 142-358l25-34 13 24q37.5 72 33 318l-3 164 89 27c127 37 229 83 334 146l90 54 90-89c49-49 118-111 153-137 61-45 146-89 155-80 3 2-2 31-11 65-19 74-76 189-150 300-64 97-69 73 42 195 64 71 154 200 205 296 24 44 31 51 50 46 102-30 217-56 296-65 89-11 181-7 181 8 0 4-21 28-47 53-58 56-156 120-280 181l-91 46 14 53c30 114 46 237 46 370l1 137 51 12c153 35 330 106 395 157 23 19 23 20 5 29-61 32-230 45-419 34l-70-5-21 75c-41 138-114 299-190 414l-17 26 104 107c105 108 163 185 192 255 15 35 15 37-2 37-63 0-218-71-356-163l-79-54-91 80c-93 83-259 198-331 230l-41 18 23 79c13 43 30 112 38 154 18 83 22 266 6 266-38 0-153-156-235-319-40-81-49-92-68-88-168 40-242 49-385 51l-152 1-11 40c-52 204-107 342-162 409l-24 29zm492-609c39-5 103-16 142-25l70-16-15-47c-9-26-19-50-23-55-3-4-38 0-76 9s-127 19-199 22l-130 7-7 49c-4 28-5 53-2 58 7 11 151 10 240-2m-467-80c15-69 15-67-21-75-56-12-201-74-273-116-37-21-69-38-70-37 0 2-16 22-34 46-19 24-32 44-30 46 38 26 121 73 181 100 64 30 208 83 230 85 3 1 11-22 17-49m943-71c89-45 261-171 311-226 17-20 16-21-23-57-22-20-44-36-48-36-5 0-21 14-38 31-45 47-165 136-232 172l-60 32 22 53c11 28 22 52 24 52 1 0 22-10 44-21m-417-169c28-7 53-15 56-19 4-3 1-40-7-81-15-85-18-198-5-218 10-17 105 84 157 168 20 33 39 60 41 60 29 0 193-112 247-169l29-30-27-33c-91-114-158-228-133-228 30 0 127 35 202 72s80 39 93 21c38-51 122-244 122-281 0-12-21-25-78-44-78-28-192-92-192-108 0-19 161-49 264-50h49l-6-107c-6-99-27-216-40-229-3-3-32 0-64 7-67 14-227 18-240 6-15-16 172-170 229-189 21-7-73-157-150-240l-44-47-70 60c-68 57-174 117-186 105s20-115 62-199l45-87-42-25c-60-35-185-91-230-103-35-10-39-9-47 11-5 12-23 56-40 98s-45 95-62 119l-32 43-14-33c-19-47-32-133-32-214v-69l-112 6c-62 3-139 11-171 18l-59 12 6 36c13 83 19 268 8 274-14 9-112-99-157-172-20-34-40-61-44-61-25 0-203 124-250 174l-24 25 35 39c64 70 147 207 134 220-11 10-127-28-208-69-91-46-80-51-135 56-45 89-85 194-79 210 2 7 17 16 33 19 45 12 174 74 211 103l35 27-36 12c-44 15-171 34-232 34-42 0-43 1-47 38-6 45 7 189 23 255l11 49 37-7c70-13 180-21 230-15l52 5-31 36c-22 28-155 126-208 156-16 8 83 164 149 235l44 47 77-62c71-58 172-117 182-106 11 10-22 111-64 196-53 107-58 93 60 153 49 25 191 80 205 80 1 0 13-28 25-62 26-74 71-163 99-198l20-25 11 30c19 51 30 124 30 208v80l118-5c64-3 140-11 167-18m-1111-183c-59-65-139-178-167-234-12-24-24-43-28-43-13 0-99 39-99 45 0 33 123 216 202 301l62 66 39-41 38-42zm2084-217c58-113 111-265 97-279-6-5-31-12-56-16l-47-7-22 69c-22 70-82 200-121 266-23 37-23 37-4 51 11 8 31 23 45 34l25 21 17-22c10-12 40-65 66-117M792 2327c17-7 32-14 32-16s-5-19-10-38c-19-66-31-164-32-262-1-108 2-104-73-110l-40-3-3 100c-3 95 13 228 39 318 11 41 13 41 87 11m2532-442c-13-145-39-265-56-258-6 2-31 10-54 17-39 12-41 14-36 43 18 101 36 250 36 308 0 74 0 73 75 80 28 3 31 0 38-37 4-22 3-91-3-153M827 1654c11-54 66-185 111-263l44-77-46-36-46-36-24 38c-67 108-174 365-158 380 7 7 65 21 92 22 16 1 23-6 27-28m2321-232 47-20-32-57c-46-81-84-137-150-217-85-106-83-105-124-59-19 21-34 43-35 48 0 4 23 33 51 64 52 56 132 170 163 230 9 17 20 32 25 32s29-9 55-21m-1970-335c61-56 176-138 231-166 22-11 41-21 43-23s-37-96-44-104c-2-2-43 20-91 49-96 58-188 128-242 184l-35 36 40 34c21 20 41 35 43 36 1 0 26-21 55-46m1529-162c30-41 30-42 11-57-73-56-378-184-396-167-4 4-10 30-13 58l-7 51 68 21c71 22 233 98 269 126 26 20 32 18 68-32m-958-128c33-8 119-17 192-21l131-6 6-30c3-16 6-42 6-58v-29h-78c-120 0-349 34-370 55-8 8 30 105 41 105 7-1 39-7 72-16"/><path d="M1903 2532c-210-31-400-209-444-416-40-188 4-359 126-496 166-186 431-237 659-125 44 21 89 56 141 107 116 117 159 221 159 392 0 165-52 282-178 402-70 66-157 111-258 132-75 16-119 17-205 4"/></svg>