<svg xmlns="http://www.w3.org/2000/svg" width="485.853" height="476.776" viewBox="0 0 4858.532 4767.758"><path d="M259.532 4488c-127-157-240-294-251-304-19-18-18-22 130-365l150-347 53-280 52-279 352-573c193-314 354-571 358-570s192 235 418 520c225 285 413 519 417 521 5 1 16-84 26-190s23-246 29-311l11-119 560-804c308-442 562-803 565-804 3 0 135 451 294 1003 159 551 291 1004 292 1005 1 2 132-73 291-166 158-94 288-170 289-169s19 262 40 580l38 577 91 88c49 48 158 153 242 233l152 146-83 82-83 83-159-153c-88-84-210-202-272-263l-113-110-28-413c-15-227-29-414-32-416-2-2-108 139-236 314l-231 318 134 111c73 61 136 115 139 120s-69 77-160 161c-91 83-165 155-165 158s88 55 195 115 194 111 192 112c-5 5-1490 375-1493 371-2-1 122-138 275-302l279-300 45-196 44-196 221-311 221-310-227-785c-125-432-228-784-229-783-2 1-4 245-5 542-1 296-4 604-6 684l-3 146-327 138c-180 77-328 140-329 140-1 1 41 192 93 426l94 424-57 93c-54 90-57 93-74 76-9-10-102-131-205-268-638-847-1047-1385-1050-1382-2 2 59 178 136 393 77 214 140 394 140 400 0 7-75 52-167 102-93 50-192 104-221 120l-53 29 345 464 346 464-139 139-138 138-466 103c-256 56-477 105-491 109-23 6-44-18-256-279m475-3486c-206-31-388-219-414-427-21-168 29-315 147-431 105-103 206-144 357-144 151 1 265 51 369 163 65 70 101 141 121 235 18 88 18 122 0 210-21 96-57 166-126 240-116 123-283 180-454 154"/></svg>