<svg xmlns="http://www.w3.org/2000/svg" width="467.723" height="419.22" viewBox="0 0 4677.225 4192.203"><path d="M328.608 4183.688c-77-10-128-27-180-62-61-40-96-89-123-167l-22-66-3-1015c-2-670 1-1039 8-1085 17-113 76-223 174-321 90-90 141-123 249-163l72-26 1800-3c1295-2 1819 0 1867 9 170 28 349 163 438 331 69 128 64 49 68 1158 2 637-1 1033-7 1081-28 208-121 304-321 328-96 12-3928 13-4020 1m2300-760v-320h640v-580h-640v-640h-580v640h-640v580h640v640h580zm-1670-2380v-110h680v220h-680zm2080 0v-110h680v220h-680zm-1913-302c9-199 40-320 107-421 96-145 314-247 621-292 166-24 459-35 673-25 319 15 520 54 686 134 242 115 323 262 339 614l4 82h-355l-7-42c-37-238-175-357-480-414-82-16-149-19-375-19s-293 3-375 19c-285 53-416 154-470 361-8 32-15 67-15 77 0 17-14 18-179 18h-178z"/></svg>