<svg xmlns="http://www.w3.org/2000/svg" viewBox="0 0 1024 1024" width="1024" height="1024"><path d="M161.252,359.786l183.178,488.784c-128.108,-60.61 -216.43,-188.552 -216.43,-336.578c0,-54.224 11.944,-105.698 33.252,-152.206zM742.012,614.028l-38.312,124.632l-138.78,-402.018c23.114,-1.178 43.948,-3.55 43.948,-3.55c20.694,-2.388 18.256,-32.004 -2.446,-30.822c0,0 -62.204,4.752 -102.35,4.752c-37.734,0 -101.134,-4.752 -101.134,-4.752c-20.71,-1.18 -23.14,29.63 -2.438,30.822c0,0 19.59,2.366 40.278,3.55l59.822,159.65l-84.044,245.456l-139.834,-405.106c23.142,-1.182 43.952,-3.55 43.952,-3.55c20.674,-2.388 18.232,-32.004 -2.458,-30.822c0,0 -62.186,4.752 -102.34,4.752c-7.206,0 -15.702,-0.172 -24.712,-0.454c68.658,-101.522 186.684,-168.568 320.844,-168.568c99.968,0 190.992,37.226 259.308,98.196c-1.656,-0.098 -3.272,-0.302 -4.976,-0.302c-37.72,0 -64.486,32.002 -64.486,66.376c0,30.822 18.262,56.896 37.72,87.716c14.6,24.906 31.654,56.908 31.654,103.142c0,32 -12.636,69.15 -29.216,120.9zM636.772,859.646c0.776,1.85 1.732,3.552 2.75,5.154c-39.914,13.682 -82.802,21.2 -127.518,21.2c-37.694,0 -74.072,-5.38 -108.488,-15.238l115.226,-326.058zM896,511.994c0,137.97 -76.776,258.43 -190.938,323.258l117.286,-330.272c21.91,-53.354 29.202,-96.02 29.202,-133.95c0,-13.772 -0.936,-26.548 -2.588,-38.458c29.978,53.262 47.038,114.392 47.038,179.422zM1024,512c0,282.77 -229.23,512 -512,512c-282.77,0 -512,-229.23 -512,-512c0,-282.77 229.23,-512 512,-512c282.77,0 512,229.23 512,512zM960,512c0,-247.424 -200.576,-448 -448,-448c-247.424,0 -448,200.576 -448,448c0,247.424 200.576,448 448,448c247.424,0 448,-200.576 448,-448z" /></svg>