<svg xmlns="http://www.w3.org/2000/svg" viewBox="0 0 820 820" width="820" height="820"><path d="M751.3,183.5c43.129,64.867 68.3,142.868 68.3,226.5c0,83.632 -25.17,161.636 -68.3,226.5c-73.376,110.356 -199.021,183.1 -341.3,183.1c-142.279,0 -267.927,-72.744 -341.3,-183.1c-43.13,-64.864 -68.3,-142.867 -68.3,-226.5c0,-83.633 25.17,-161.633 68.3,-226.5c73.373,-110.355 199.021,-183.1 341.3,-183.1c142.279,0 267.924,72.746 341.3,183.1zM385.8,57.8c-14.579,5.123 -33.584,14.184 -53.7,34.3c-27.378,27.378 -51.622,87.867 -68.7,169.4c43.225,14.887 91.034,26.9 146.6,26.9c57.33,0 106.273,-14.38 150.6,-30.1c-20.308,-101.016 -56.77,-155.866 -89,-180.6c-35.183,-27.001 -61.6,-26.1 -61.6,-26.1c-8.78,0 -15.581,5.581 -24.2,6.2zM130.8,193.9c14.265,11.152 35.047,25.843 84.5,48.6c15.578,-69.871 36.45,-123.083 63.6,-157.5c-59.025,23.87 -109.592,59.385 -148.1,108.9zM607.7,239.6c42.377,-21.391 69.142,-37.698 80.4,-46.7c-38.153,-48.639 -87.725,-83.88 -145.8,-107.6c27.125,34.712 49.941,84.081 65.4,154.3zM619.4,291.3c4.617,35.694 8.2,73.751 8.2,118.7c0,49.195 -10.292,77.251 -15.8,115.5c61.9,26.655 90.403,46.082 107.8,59.8c29.595,-52.117 48.8,-110.965 48.8,-175.3c0,-64.894 -19.425,-124.27 -49.5,-176.7c-14.24,11.394 -43.863,31.908 -99.5,58zM51.6,410c0,64.335 19.205,123.183 48.8,175.3c17.397,-13.718 45.9,-33.145 107.8,-59.8c-5.508,-38.249 -15.8,-66.305 -15.8,-115.5c0,-49.237 10.283,-77.328 15.8,-115.6c-61.832,-26.628 -90.27,-45.962 -107.7,-59.7c-29.609,52.128 -48.9,110.949 -48.9,175.3zM410,339.6c-57.568,0 -107.896,-11.395 -153.5,-26.1c-4.16,32.864 -12.9,54.092 -12.9,96.5c0,42.408 8.74,63.636 12.9,96.5c45.606,-14.706 95.929,-26.1 153.5,-26.1c57.571,0 107.894,11.394 153.5,26.1c4.16,-32.864 12.9,-54.092 12.9,-96.5c0,-39.234 -3.373,-71.112 -7,-102.2c-47.365,16.115 -98.162,31.8 -159.4,31.8zM263.4,558.5c17.078,81.533 41.322,142.022 68.7,169.4c20.116,20.116 39.121,29.177 53.7,34.3c8.619,0.619 15.42,6.2 24.2,6.2c8.78,0 15.581,-5.581 24.2,-6.2c14.579,-5.123 33.584,-14.184 53.7,-34.3c27.378,-27.378 51.622,-87.867 68.7,-169.4c-43.225,-14.886 -91.034,-26.9 -146.6,-26.9c-55.566,0 -103.375,12.014 -146.6,26.9zM130.8,626.1c38.508,49.516 89.075,85.029 148.1,108.9c-27.15,-34.417 -48.022,-87.629 -63.6,-157.5c-49.453,22.757 -70.235,37.448 -84.5,48.6zM541.1,735c59.024,-23.871 109.591,-59.384 148.1,-108.9c-14.265,-11.152 -35.047,-25.843 -84.5,-48.6c-15.578,69.871 -36.45,123.083 -63.6,157.5z" /></svg>