<svg xmlns="http://www.w3.org/2000/svg" viewBox="0 0 872 1024" width="872" height="1024"><path d="M226.8,202.2c22.8,0 33.8,14.6 41.2,27.6c0,0 101,176 101.6,177c-6,10.6 -159.4,282 -159.4,282c-7.4,13.6 -18.2,28.6 -40.2,28.6h-147.6c-8.8,0 -15.4,-4 -19.2,-10c-3.8,-6.2 -4,-14.4 0,-22.6l156.8,-277.2c0.2,-0.2 0.2,-0.4 0,-0.8l-99.8,-172.8c-4,-8.2 -4.6,-16.2 -0.8,-22.6c3.8,-6 11.4,-9.2 20.2,-9.2z" /> <path d="M849.4,0c8.8,0 15.8,3.4 19.6,9.4c3.8,6.4 3.6,14.6 -0.4,22.8l-327,578.2c-0.2,0.4 -0.2,0.6 0,1l208,380.6c4.2,8.2 4.4,16.4 0.4,22.8c-3.8,6 -10.8,9.4 -19.6,9.4h-147.6c-22.6,0 -33.8,-15.2 -41.2,-28.2c0,0 -209.2,-384 -209.8,-385c10.4,-18.6 328.6,-582.8 328.6,-582.8c8,-14.4 17.6,-28.2 39.6,-28.2z" /></svg>