<svg xmlns="http://www.w3.org/2000/svg" viewBox="0 0 784 758" width="784" height="758"><path d="M515.5,198.1l226.9,56l-150.6,178.8l16.8,233.2l-216.6,-88.1l-216.6,88.1l16.8,-233.2l-150.6,-178.8l226.9,-56l101.8,-163.6l21.7,-35zM234.4,116.5l-40.8,30.8l-59.4,-78.7l40.9,-30.8zM649.8,68.6l-59.4,78.7l-40.9,-30.8l59.4,-78.7zM301,242.8l-167.2,41.3l111,131.7l-12.4,171.9l159.6,-64.9l159.6,64.9l-12.4,-171.9l111,-131.7l-167.2,-41.3l-91,-146.4zM111.7,482.6l-96,30.1l-15.4,-48.9l96,-30zM783.7,463.8l-15.4,48.9l-96,-30.1l15.4,-48.8zM417.6,659.9v97.3h-51.2v-97.3z" /></svg>