<svg xmlns="http://www.w3.org/2000/svg" viewBox="0 0 772 944" width="772" height="944"><path d="M449.605,942.577c1.864,-2.036 34.863,-12.681 73.328,-23.648c38.465,-10.967 71.999,-23.011 74.522,-26.765c2.523,-3.754 6.759,-10.429 9.415,-14.831c3.996,-6.624 7.51,-5.893 20.392,4.241c8.562,6.734 19.729,12.244 24.817,12.244c9.674,0 92.255,-46.035 109.388,-60.978c6.859,-5.982 9.895,-6.51 9.895,-1.72c0,8.329 -62.729,69.656 -90.569,88.545c-17.922,12.16 -22.004,12.839 -41.388,6.891c-16.608,-5.097 -27.452,-5.009 -47.621,0.383c-14.366,3.842 -41.545,7.929 -60.399,9.081c-18.854,1.156 -45.732,3.933 -59.728,6.179c-13.996,2.248 -23.92,2.41 -22.054,0.376zM284.623,884.845c-7.54,-8.046 -20.718,-18.781 -29.285,-23.853c-13.477,-7.981 -15.107,-11.724 -12.094,-27.782c3.829,-20.416 -0.052,-22.421 -23.174,-11.896c-13.614,6.202 -16.701,4.607 -44.833,-23.177c-27.416,-27.075 -31.388,-29.21 -42.901,-23.047c-9.894,5.294 -15.518,5.275 -25.548,-0.052c-13.815,-7.397 -70.689,-69.328 -93.333,-101.638l-13.818,-19.715l19.715,13.677c10.843,7.522 35.344,25.937 54.445,40.921c23.313,18.287 40.114,27.243 51.106,27.243c12.167,0 23.532,7.266 44.224,28.274c25.825,26.22 29.843,28.274 55.293,28.274c37.609,0 47.09,6.406 51.647,34.897c2.114,13.199 8.668,34.921 14.575,48.271c5.907,13.35 10.052,24.273 9.213,24.273c-0.834,0 -7.693,-6.583 -15.233,-14.629zM372.392,884.062c2.096,-6.921 13.419,-27.278 25.163,-45.238c24.902,-38.078 52.87,-112.023 63.682,-168.37c5.113,-26.651 7.533,-84.845 7.408,-178.126c-0.206,-134.814 -0.571,-139.531 -14.58,-175.298c-14.304,-36.53 -98.14,-169.289 -126.091,-199.673c-21.068,-22.901 -19.286,-65.885 3.979,-95.97l16.538,-21.386l43.208,3.634c31.955,2.685 48.44,7.151 63.302,17.144c11.054,7.431 23.523,13.511 27.711,13.511c4.188,0 22.31,15.684 40.269,34.852c31.754,33.892 52.023,74.232 67.304,133.953c5.83,22.782 -2.119,197.795 -13.167,289.886c-8.371,69.782 -22.054,106.44 -86.773,232.466c-24.685,48.067 -125.542,183.696 -117.95,158.616zM449.04,889.189c0,-6.834 10.729,-14.802 14.65,-10.88c1.426,1.426 -1.29,5.807 -6.031,9.742c-5.375,4.46 -8.62,4.889 -8.62,1.139zM330.181,844.717c-3.791,-11.871 -13.786,-33.035 -22.214,-47.03c-8.428,-13.995 -20.021,-38.17 -25.763,-53.72c-5.744,-15.551 -20.175,-46.303 -32.07,-68.34c-16.646,-30.836 -21.434,-45.817 -20.781,-65.03c0.59,-17.373 1.575,-20.142 3.232,-9.108c1.462,9.688 7.548,18.209 15.658,21.904c17.902,8.157 50.356,85.566 82.19,196.041c12.302,42.694 12.091,63.942 -0.283,25.283zM477.315,857.89c0,-4.082 23.565,-58.456 33.443,-77.166c2.963,-5.613 14.801,-8.978 34.997,-9.948c47.855,-2.299 53.524,-5.062 75.241,-36.668c62.606,-91.118 72.09,-103.106 68.123,-86.105c-2.155,9.239 -10.149,32.066 -17.764,50.726c-7.615,18.66 -17.807,45.379 -22.649,59.376c-10.627,30.717 -20.672,39.583 -44.835,39.583c-17.267,0 -32.616,9.403 -37.047,22.696c-1.36,4.067 -7.885,3.874 -20.766,-0.616c-18.046,-6.291 -19.775,-5.581 -43.765,17.964c-13.738,13.482 -24.978,22.554 -24.978,20.158z" /></svg>