<svg xmlns="http://www.w3.org/2000/svg" viewBox="0 0 994 970" width="994" height="970"><path d="M644.526,187.647c1.533,-0.246 2.865,0.738 4.246,1.332c3.405,1.533 6.767,2.913 10.128,4.544c3.897,1.828 8.003,3.159 11.902,4.989c6.476,3.014 12.701,6.471 19.217,9.385c16.5,7.26 31.862,16.006 45.351,28.06c10.766,9.631 20.549,19.508 28.894,31.319c6.572,9.289 13.289,18.624 18.278,28.894c2.469,5.093 4.345,10.522 6.717,15.661c2.619,5.631 4.743,10.522 5.979,16.549c1.033,4.989 2.667,9.781 3.458,14.821c0.884,5.335 1.48,10.666 2.469,16.006c1.033,6.024 1.38,11.856 1.287,17.931c-0.04,7.26 0.589,14.423 0.884,21.685c0.541,13.633 -2.663,27.466 -5.139,40.851c-2.865,15.016 -4.837,30.18 -7.356,45.247c-1.041,5.928 -3.212,11.61 -4.544,17.439c-1.336,5.928 -2.72,11.803 -4.693,17.583c-1.485,4.246 -2.619,8.647 -4.201,12.896c-2.32,6.471 -5.58,12.399 -8.842,18.378c-2.768,5.185 -4.642,10.666 -6.917,16.102c-2.619,6.27 -5.973,12.249 -9.284,18.177c-6.767,12.054 -14.278,23.07 -23.417,33.394c-4.15,4.647 -9.088,8.35 -13.388,12.746c-3.26,3.361 -6.075,6.917 -9.682,9.877c-9.631,7.958 -20.698,15.067 -32.551,19.172c-7.064,2.417 -14.027,3.804 -20.944,6.717c-7.802,3.357 -16.353,5.481 -24.698,7.163c-7.31,1.433 -14.72,2.566 -22.081,3.753c-4.099,0.589 -8.204,1.086 -12.249,1.63c-6.425,0.84 -12.696,2.469 -19.022,3.753c-7.556,1.578 -15.263,2.958 -22.915,3.853c-8.647,1.086 -17.343,0.988 -25.985,2.171c-16.152,2.276 -32.998,2.074 -49.151,-0.514c-14.77,-2.276 -29.049,-6.425 -43.127,-11.415c-6.767,-2.373 -13.535,-4.492 -19.904,-7.706c-6.819,-3.405 -13.341,-7.557 -19.911,-11.364c-6.075,-3.506 -11.163,-8.143 -16.65,-12.399c-5.134,-3.999 -10.471,-7.706 -15.605,-11.757c-13.489,-10.519 -26.527,-22.225 -36.56,-36.158c-15.313,-21.286 -25.094,-46.085 -33.64,-70.734c-4.842,-14.078 -7.706,-28.752 -12.053,-42.977c-1.779,-5.631 -3.704,-11.163 -5.185,-16.845c-0.988,-3.751 -1.679,-7.556 -2.667,-11.259c-0.884,-3.458 -2.271,-6.864 -3.014,-10.374c-1.186,-5.778 -1.726,-11.856 -2.619,-17.685c-0.884,-5.631 -1.38,-11.259 -1.38,-16.942c0.04,-6.42 0.083,-12.791 0.888,-19.166c0.787,-6.522 2.768,-12.596 3.897,-19.016c2.03,-11.61 4.743,-23.166 7.46,-34.678c2.328,-9.877 5.733,-18.821 10.329,-27.859c2.417,-4.788 4.939,-9.535 7.11,-14.473c2.619,-5.979 6.174,-11.013 10.027,-16.303c7.757,-10.621 16.65,-21.885 27.516,-29.541c10.375,-7.31 22.131,-12.449 33.394,-18.032c7.757,-3.853 15.163,-8.642 22.774,-12.792c3.753,-2.025 7.214,-4.596 11.214,-6.075c3.853,-1.48 7.163,-3.554 10.821,-5.334c4.246,-2.127 8.939,-3.014 13.434,-4.497c4.497,-1.48 8.546,-3.357 12.843,-5.281c4.447,-1.977 9.535,-2.574 14.177,-3.999c4.201,-1.287 8.546,-2.32 12.896,-3.361c4.055,-0.94 8.345,-1.433 12.495,-1.679c2.869,-0.206 6.618,-0.594 9.487,0.04c0.206,1.872 0,3.853 0.04,5.727c0,2.522 0.642,2.913 1.635,5.04c0.984,2.122 0.835,4.693 1.578,6.917c0.888,2.663 1.533,5.631 2.522,8.249c1.332,3.507 4.788,6.818 7.064,9.729c3.159,4.055 4.299,8.448 6.917,12.696c4.492,7.31 8.987,14.67 12.348,22.578c3.95,9.334 8.842,18.327 12.203,27.859c3.058,8.692 4.15,18.131 3.111,27.265c-0.246,2.474 -0.742,4.989 -1.48,7.31c-0.94,2.421 -1.828,4.843 -2.667,7.316c-0.738,2.763 -1.134,5.581 -1.234,8.444c-1.234,10.225 -8.249,18.524 -11.013,28.306c-2.469,8.647 -7.952,15.811 -9.239,24.848c-1.533,10.471 -0.84,21.091 -1.731,31.616c-0.514,5.436 -1.332,10.821 -1.876,16.252c-0.541,5.637 -0.409,11.364 -0.888,16.992c-0.738,9.832 0.462,19.121 2.522,28.7c2.32,10.821 5.139,20.845 9.832,30.878c2.913,6.27 6.767,11.505 10.42,17.337c3.115,5.04 6.129,9.535 10.225,13.832c7.711,8.198 14.67,16.992 22.081,25.442c4.842,5.527 8.797,10.519 12.299,16.988c2.276,4.201 4.544,8.15 7.064,12.203c-0.742,-4.788 1.533,-9.385 4.201,-13.289c2.714,-3.897 6.123,-7.31 8.792,-11.259c3.308,-4.788 6.521,-9.682 10.174,-14.278c7.853,-9.781 11.61,-21.979 16.303,-33.49c2.373,-5.778 4.989,-11.46 7.115,-17.337c2.812,-7.711 3.704,-15.906 5.134,-23.96c1.234,-6.864 1.485,-13.781 2.373,-20.698c0.888,-6.813 0.694,-13.685 -0.286,-20.498c-0.94,-6.917 -2.714,-13.685 -4.15,-20.452c-1.332,-6.174 -2.118,-12.5 -3.999,-18.524c-2.812,-9.139 -4.396,-18.623 -7.602,-27.663c-3.263,-9.238 -8.104,-18.519 -12.946,-27.064c-4.939,-8.747 -11.656,-16.896 -15.61,-26.135c-4.195,-9.832 -9.973,-18.278 -10.471,-29.34c-0.246,-4.597 -0.246,-9.19 0.694,-13.685c1.134,-5.385 3.656,-9.928 6.276,-14.67c4.15,-7.46 7.757,-15.906 10.917,-23.813c1.384,-3.405 3.704,-6.27 4.843,-9.781c0.84,-2.663 1.234,-5.581 1.432,-8.345c0.206,-2.57 1.041,-4.647 1.828,-7.064c0.84,-2.469 1.138,-5.035 2.226,-7.46c1.872,-4.099 3.95,-8.003 6.42,-11.856c2.47,-3.902 6.275,-7.064 8.448,-11.118c1.234,-2.32 1.828,-3.208 4.396,-3.558c2.175,-0.286 3.41,-1.134 5.235,-2.074c1.679,-0.84 4.544,-1.086 6.522,-0.462c1.189,0.409 1.828,1.287 2.619,2.127c1.086,1.234 1.881,1.735 3.159,2.716c1.041,0.795 1.977,2.127 3.159,2.667c2.373,1.041 7.46,0.94 0.888,-4.099z" /> <path d="M386.054,133.704c-8.694,4.195 -9.133,6.716 -9.973,7.556c-1.929,1.802 -6.62,1.842 -9.239,2.171c-10.426,1.287 -20.899,-2.222 -30.878,-4.788c-3.461,-0.891 -4.89,-1.63 -7.46,-4.099c-3.206,-3.016 -6.815,-5.88 -9.631,-9.241c-6.522,-7.856 -8.642,-17.189 -10.918,-26.918c-2.516,-10.968 -4.642,-21.096 -11.655,-30.23c-6.821,-8.944 -15.61,-16.845 -23.813,-24.503c-5.532,-5.085 -11.067,-10.024 -16.051,-15.655c-4.401,-4.945 -8.15,-10.326 -12.003,-15.711c-2.869,-4.1 -5.785,-7.803 -8.944,-11.656c-0.589,-0.791 -0.937,-1.665 -1.925,-2.127c0.796,1.187 3.014,2.518 4.35,3.656c3.803,3.26 7.505,6.717 11.214,10.078c9.187,8.492 18.126,17.434 29.49,22.966c11.409,5.631 23.762,9.78 36.011,13.238c5.778,1.634 12.054,2.617 17.388,5.385c2.818,1.435 5.481,3.064 8.249,4.497c8.104,4.249 15.957,9.238 22.92,15.217c2.618,2.217 5.189,4.493 7.46,7.059c3.213,3.658 4.694,8.15 6.425,12.546c2.321,5.88 4.443,11.757 6.42,17.736c1.134,3.406 2.584,6.567 2.667,10.174c0.123,4.202 -0.083,8.449 -0.083,12.65z" /> <path d="M689.381,129.258c0,-9.682 1.234,-19.217 3.159,-28.7c3.656,-18.131 22.528,-28.402 39.373,-32.158c8.003,-1.828 15.856,-2.469 23.613,-5.436c9.334,-3.558 18.77,-9.385 25.191,-17.238c3.361,-4.055 5.04,-9.877 6.917,-14.72c2.522,-6.275 5.532,-12.449 9.436,-17.982c2.517,-3.66 5.334,-7.013 8.3,-10.374c1.626,-1.779 5.088,-4.843 5.385,-7.655c-0.594,0.514 -0.694,1.086 -0.988,1.779c-1.38,3.208 -2.768,6.567 -4.15,9.832c-5.733,13.633 -10.866,27.316 -18.182,40.303c-5.527,9.832 -9.631,19.91 -10.866,31.175c-0.84,8.048 -1.626,16.89 -6.471,23.757c-5.035,7.167 -12.746,12.3 -18.869,18.524c-7.115,7.214 -14.228,13.931 -23.709,17.886c-10.129,4.246 -19.861,0.988 -29.1,-3.753c-6.864,-3.507 -14.57,-8.396 -22.477,-8.842z" /> <path d="M591.554,109.5c-9.636,1.876 -13.834,7.609 -20.698,5.035c-5.829,-2.171 -12.003,-8.836 -15.712,-13.529c-2.965,-3.859 -2.074,-7.118 -0.94,-11.61c1.779,-7.064 3.704,-14.225 5.778,-21.142c3.011,-10.078 9.682,-17.439 16.153,-25.442c6.075,-7.607 9.928,-17.389 13.781,-26.231c1.486,-3.406 2.422,-7.066 3.955,-10.374c0.49,-0.984 1.165,-1.678 1.679,-2.566c0.597,-1.085 0.514,-2.021 0.514,-3.308c0,9.334 0.198,18.081 1.977,27.265c1.43,7.511 3.459,13.436 7.013,20.107c2.863,5.385 4.602,10.173 4.642,16.398c0.052,6.962 -0.299,14.77 -2.417,21.388c-1.928,5.927 -6.427,8.344 -10.078,13.037c-2.519,3.215 -1.88,4.947 -3.159,8.255c-0.395,1.037 -1.436,2.387 -2.469,2.716z" /> <path d="M507.264,113.113c0.639,9.436 -2.074,9.088 -6.671,9.682c-2.022,0.246 -3.956,-0.325 -5.928,-0.694c-8.248,-1.384 -16.599,-0.396 -24.551,-3.458c-6.968,-2.671 -12.946,-8.696 -17.49,-14.474c-3.949,-5.044 -7.013,-10.968 -8.692,-17.097c-1.973,-7.16 -1.239,-14.77 -1.279,-22.126c-0.08,-3.16 -0.123,-6.277 0.083,-9.436c0.396,-5.681 2.671,-10.917 3.212,-16.599c0.891,-9.781 -2.175,-19.508 -1.38,-29.289c0.246,-2.817 1.741,-5.68 1.578,-8.448c3.904,5.778 9.436,9.877 14.324,14.821c3.904,3.949 7.756,8.145 11.019,12.741c7.11,9.982 9.633,22.477 13.535,33.937c2.171,6.374 4.546,12.695 7.26,18.92c2.617,6.125 4.547,12.544 7.46,18.574c1.728,3.607 3.948,7.013 5.727,10.62c0.545,0.988 0.497,2.114 1.784,2.32z" /> <path d="M781.854,257.592c7.706,-0.206 14.67,-4.299 21.835,-7.013c9.729,-3.704 19.262,-7.361 28.7,-11.757c12.299,-5.778 24.893,-11.313 35.565,-19.855c4.989,-3.999 9.484,-8.054 13.289,-13.238c1.432,-1.925 2.865,-3.607 5.088,-4.743c1.626,-0.787 6.963,-3.159 8.747,-1.578c2.663,2.368 -4.544,7.752 -5.286,8.495c-5.19,5.185 -6.225,8.054 -7.853,15.364c-0.642,5.481 -2.223,10.717 -4.693,15.655c-1.881,2.72 -4.15,5.04 -6.818,7.013c-5.139,4.15 -8.3,8.104 -11.164,14.078c-2.32,4.893 -4.492,9.637 -8.938,13.043c-5.979,4.544 -14.078,5.877 -21.196,7.409c-7.11,1.485 -14.57,4.201 -21.931,2.913c-7.556,-1.384 -13.137,-6.618 -18.87,-11.313c-2.271,-1.872 -9.682,-6.225 -10.717,-9.979c1.432,0 2.714,2.667 4.246,-4.492z" /> <path d="M812.329,359.942c5.089,0.123 10.129,0.462 15.268,0.84c9.385,0.694 18.573,2.913 28.054,3.507c9.19,0.541 18.278,1.186 27.466,1.981c17.343,1.38 37.544,-1.09 53.351,7.602c1.679,0.888 7.209,3.361 7.259,6.225c0.083,3.809 -4.788,7.115 -7.511,8.893c-5.825,3.804 -13.283,4.055 -19.955,5.185c-12.546,2.074 -26.03,4.893 -38.776,3.263c-14.867,-1.881 -29.049,-7.556 -43.715,-10.522c-4.693,-0.988 -8.993,-2.619 -13.34,-4.544c-2.025,-0.94 -5.677,-2.074 -6.963,-4.299c-0.988,-1.779 -1.332,-5.139 -1.134,-7.163c2.025,-0.84 4.246,-1.332 0,-10.968z" /> <path d="M750.439,638.998c0,-0.514 0,-1.041 0,-1.533c-0.329,1.533 0.94,2.619 1.677,3.753c3.902,5.778 7.361,11.706 11.61,17.238c8.746,11.41 20.503,19.362 30.774,29.244c11.907,11.46 21.639,24.551 32.41,37.047c8.295,9.682 17.533,18.623 24.894,29.145c5.088,7.265 9.334,15.118 14.129,22.623c5.481,8.546 11.259,16.896 16.89,25.345c4.15,6.174 8.204,12.348 12.203,18.623c0.694,1.972 1.872,3.506 3.554,4.544c-1.726,-1.779 -3.999,-2.865 -6.075,-4.15c-6.567,-3.999 -12.992,-8.204 -19.217,-12.696c-21.436,-15.514 -42.579,-31.763 -62.092,-49.643c-8.842,-8.054 -17.685,-16.057 -26.477,-24.11c-4.492,-4.195 -9.139,-8.3 -13.038,-12.992c-3.709,-4.544 -6.968,-9.385 -10.917,-13.685c-4.351,-4.738 -8.993,-9.088 -13.633,-13.484c-4.251,-3.999 -11.169,-8.842 -11.957,-14.917c-0.541,-4.299 -1.779,-8.448 -1.925,-12.791c-0.206,-4.351 0.787,-8.642 1.881,-12.843c0.835,-3.458 1.48,-8.003 3.357,-11.067c2.025,-3.212 4.989,-2.768 11.957,-3.651z" /> <path d="M776.468,590.536c1.828,-0.329 3.8,1.134 5.286,1.925c4.046,2.417 8.099,4.843 12.102,7.26c6.671,3.507 13.335,6.968 20.006,10.374c12.203,6.471 24.498,13.043 36.455,19.955c17.634,10.179 34.38,21.835 52.164,31.813c10.027,5.631 20.348,10.671 30.284,16.449c5.385,3.062 10.867,5.973 15.212,10.42c2.768,2.82 6.425,8.647 -0.541,7.706c-11.757,-1.626 -23.709,-7.655 -34.822,-11.61c-19.418,-6.864 -38.038,-14.078 -56.416,-23.463c-18.524,-9.484 -36.749,-18.966 -56.017,-26.773c-4.788,-1.972 -9.484,-4.05 -14.123,-6.321c-4.893,-2.025 -9.535,-4.492 -13.982,-7.31c-2.421,-2.074 -5.088,-3.95 -3.902,-7.209c1.186,-1.735 2.074,-3.607 2.714,-5.583c0.742,-2.373 1.433,-4.693 2.074,-7.064c2.175,-5.089 5.928,-4.492 3.507,-10.57z" /> <path d="M815.936,502.608c0.409,-3.014 10.225,0.84 10.375,0.884c7.505,2.276 14.965,4.743 22.276,7.658c14.129,5.581 28.602,10.273 42.779,15.805c25.688,10.078 49.945,23.96 74.392,36.656c7.46,3.853 14.917,7.757 22.282,11.706c1.234,0.64 6.717,2.716 6.567,4.345c-3.603,0.84 -7.899,-0.206 -11.41,-0.738c-11.067,-1.735 -22.03,-4.396 -33.094,-6.225c-9.733,-1.63 -19.463,-3.014 -29.195,-4.492c-17.238,-2.623 -34.279,-5.532 -51.325,-9.241c-11.559,-2.517 -23.212,-4.591 -34.033,-9.58c-4.15,-1.925 -7.952,-3.263 -12.352,-4.447c-5.185,-1.433 -9.385,-6.225 -10.078,-11.61c-0.84,-6.522 3.159,-13.781 6.522,-19.067c1.582,-2.417 3.809,-4.843 4.743,-7.556c0.988,-2.768 0.589,-5.631 -8.448,-4.099z" /> <path d="M846.468,435.325c-0.84,-2.619 1.925,-1.63 3.308,-1.279c4.693,1.332 9.184,3.751 13.781,5.335c10.62,3.651 21.538,6.471 32.305,9.781c12.153,3.804 24.698,6.917 36.752,11.118c12.102,4.246 23.859,9.334 35.514,14.57c6.225,2.768 12.153,6.225 18.428,8.792c2.025,0.84 4.195,1.679 6.42,1.925c-9.973,1.731 -20.648,1.086 -30.672,0.84c-20.353,-0.541 -40.656,-1.726 -60.908,-4.299c-15.811,-2.025 -31.073,-5.235 -46.683,-8.099c-9.385,-1.779 -20.102,-1.433 -29.094,-4.596c0.988,-1.925 2.865,-2.812 2.865,-5.385c0,-3.607 -0.04,-6.225 1.828,-9.729c3.95,-7.31 9.781,-13.832 16.153,-18.971z" /> <path d="M702.871,682.067c6.214,4.888 7.596,11.264 0.04,14.177c-5.733,2.27 -10.177,2.716 -15.514,6.42c-6.174,4.296 -10.963,10.077 -17.634,13.781c-7.757,4.349 -17.046,5.386 -25.688,6.374c-12.102,1.38 -24.211,2.422 -36.258,3.902c-24.506,3.014 -49.054,3.097 -73.702,3.014c-26.281,-0.15 -52.461,-3.951 -78.541,-6.917c-21.538,-2.417 -41.891,-7.854 -61.6,-16.942c-19.613,-9.038 -39.223,-18.57 -57.646,-29.883c-5.235,-3.211 -8.693,-6.818 -13.043,-10.968c-0.935,-0.936 -2.021,-2.615 -3.308,-1.582c4.647,5.04 12.45,7.411 18.725,9.682c16.102,5.88 32.308,12.596 49.004,16.747c19.859,4.938 40.603,7.262 61.007,8.15c11.013,0.492 22.03,0.742 32.998,1.828c11.853,1.133 23.608,3.111 35.415,4.591c25.541,3.266 50.44,1.385 75.727,-3.159c20.402,-3.652 40.458,-9.136 61.007,-11.952c16.254,-2.275 34.084,-2.618 49.397,-8.992c1.381,-0.579 3.261,-1.626 4.693,-0.742c-0.691,0.757 -1.533,0.431 -2.417,0.84c-1.134,0.545 -1.331,1.512 -2.667,1.635z" /> <path d="M307.982,196.932c-8.1,-1.487 -10.719,-5.243 -2.271,-9.289c6.521,-3.064 11.757,-4.541 17.634,-8.35c6.818,-4.449 11.757,-9.389 19.412,-13.388c8.842,-4.694 20.11,-7.409 30.581,-9.729c14.621,-3.261 29.391,-5.976 44.111,-8.692c29.984,-5.435 60.461,-7.606 90.991,-8.3c32.65,-0.69 65.06,2.671 97.069,6.917c26.426,3.502 51.078,9.973 74.044,19.508c22.869,9.49 45.201,20.156 65.207,32.359c5.729,3.458 9.237,6.766 13.633,10.672c0.988,0.839 1.928,2.254 3.607,1.925c-4.597,-4.596 -13.389,-8.255 -20.402,-11.313c-18.132,-8.003 -36.508,-16.006 -56.119,-21.835c-23.217,-7.014 -48.162,-11.512 -72.809,-14.078c-13.34,-1.383 -26.678,-2.32 -40.012,-3.554c-14.376,-1.336 -28.653,-2.913 -43.076,-3.853c-31.169,-2.075 -61.651,0.693 -92.026,6.666c-24.557,4.843 -48.17,11.706 -72.371,17.835c-19.166,4.789 -40.359,9.335 -57.4,17.736c-1.53,0.787 -3.564,1.987 -5.436,1.824c0.742,-0.738 1.774,-0.738 2.714,-1.279c1.234,-0.649 1.335,-1.317 2.913,-1.779z" /> <path d="M573.637,359.008c1.533,1.433 2.373,1.433 3.607,3.458c3.902,6.225 7.904,12.449 11.711,18.77c9.928,16.5 11.604,37.595 11.751,56.461c0.083,12.896 -2.32,24.995 -5.677,37.394c-2.276,8.546 -4.743,16.599 -9.733,24.006c-3.554,4.893 -7.361,9.535 -11.364,14.033c-2.865,3.405 -5.677,6.813 -8.546,10.174c-1.726,1.828 -5.829,6.864 -8.741,7.064c-0.246,-1.138 0.409,-2.226 0.246,-3.263c-0.286,-2.171 -3.115,-4.544 -4.447,-6.024c-3.062,-3.558 -6.42,-6.917 -9.586,-10.374c-9.58,-10.375 -18.273,-21.538 -25.436,-33.736c-6.374,-10.872 -11.118,-21.492 -9.682,-34.434c1.332,-11.559 5.829,-23.166 10.374,-33.885c4.788,-11.315 9.239,-24.602 17.337,-34.038c3.308,-3.804 7.361,-6.27 11.41,-9.239c4.35,-3.159 8.401,-6.671 12.746,-9.832c3.955,-2.913 8.893,-5.431 13.981,-5.431c0.163,0.589 0.206,1.13 0.04,8.888z" /> <path d="M283.776,231.612c-2.027,-0.044 -3.064,2.723 -3.704,4.055c-1.243,2.717 -2.373,5.234 -4.447,7.46c-3.161,3.36 -9.19,5.285 -13.289,7.31c-3.407,1.679 -7.114,4.245 -10.867,5.185c-3.804,0.944 -6.52,0.448 -9.385,-2.074c-5.435,-4.693 -11.51,-8.346 -17.091,-12.843c-3.955,-3.16 -7.064,-6.964 -11.214,-9.877c-5.832,-3.952 -12.249,-6.864 -18.378,-10.278c-6.471,-3.506 -12.896,-7.165 -19.121,-11.062c-8.148,-5.139 -15.509,-11.022 -24.105,-15.463c-13.089,-6.818 -26.678,-12.746 -39.469,-20.206c-9.829,-5.682 -19.41,-12.003 -28.402,-18.92c-5.925,-4.546 -11.265,-9.73 -16.992,-14.423c-1.436,-1.19 -6.286,-3.71 -5.877,-5.682c17.538,3.259 33.54,11.262 49.049,19.658c10.971,5.883 22.281,10.722 33.64,15.856c15.168,6.818 30.038,14.276 45.447,20.65c15.463,6.371 30.878,12.992 46.632,18.524c12.546,4.396 25.293,8.048 37.645,13.088c8.987,3.657 19.613,7.805 26.969,14.423z" /> <path d="M241.582,348.219c-4.542,-10.272 -3.405,-10.918 -1.972,-10.918c1.281,11.214 -6.371,21.886 -12.299,30.482c-3.015,4.291 -5.235,8.249 -6.522,13.284c-0.54,2.22 -0.988,4.1 -2.913,5.286c-1.778,1.055 -4.745,0.637 -6.717,0.514c-4.5,-0.097 -8.941,-0.515 -13.388,-0.884c-9.781,-0.692 -19.514,-3.461 -28.848,-6.374c-26.281,-8.201 -54.043,-9.733 -80.274,-17.781c-8.195,-2.521 -16.399,-4.694 -24.744,-6.671c-13.781,-3.211 -28.357,-5.184 -41.841,-9.631c-5.979,-1.976 -11.511,-4.492 -17.238,-7.115c-1.627,-0.738 -4.742,-1.48 -5.436,-3.308c4.099,-1.972 11.957,0.892 16.102,1.433c8.944,1.239 17.882,1.779 26.875,2.619c13.58,1.331 27.019,3.903 40.605,5.481c17.733,1.974 35.864,0.928 53.645,0.888c19.859,0 39.619,-0.246 59.424,0.94c9.781,0.519 19.268,0.971 29.049,0.888c5.58,-0.056 10.966,0.884 16.498,0.884z" /> <path d="M237.09,446.076c9.878,0.441 8.998,6.42 9.038,9.535c0.149,6.219 0.351,12.591 -0.589,18.77c-0.795,5.185 -2.574,10.174 -3.704,15.313c-0.989,4.345 -1.534,8.743 -4.201,12.399c-3.115,4.394 -8.6,3.524 -13.388,3.062c-5.042,-0.493 -9.682,-1.473 -14.771,-1.679c-3.257,-0.08 -6.422,-0.265 -9.682,-0.594c-12.449,-1.174 -24.749,-1.094 -37.193,-1.134c-10.179,-0.045 -20.302,-0.677 -30.431,-0.84c-11.409,-0.206 -22.77,-0.123 -34.134,-0.123c-17.338,0.093 -35.173,0.246 -52.36,-2.025c-1.682,-0.202 -7.513,-0.545 -8.546,-2.373c0.939,-2.816 7.751,-3.013 10.273,-3.607c6.422,-1.534 12.893,-2.821 19.313,-4.201c11.067,-2.417 21.834,-5.678 32.701,-8.837c12.596,-3.709 25.342,-6.671 38.038,-9.883c25.538,-6.374 50.333,-15.759 76.221,-20.698c6.324,-1.185 13.092,-2.394 19.608,-2.271c1.34,0.044 2.969,0.492 3.809,-0.84z" /> <path d="M247.005,561.845c2.614,-0.252 0.739,-7.165 -0.94,-6.471c-1.788,0.69 -0.501,2.716 0.04,3.95c6.57,14.92 19.508,27.072 24.351,42.779c0.927,3.109 4.187,13.291 -0.163,15.409c-2.42,1.187 -7.408,-0.346 -9.781,-0.94c-0.643,-0.148 -3.802,-0.594 -4.642,-1.234c-0.94,-0.747 -1.234,-2.965 -1.828,-4.055c-1.386,-0.149 -3.706,1.31 -5.139,1.679c-4.395,1.042 -8.887,1.63 -13.283,2.768c-14.968,4.003 -29.442,9.384 -44.56,12.942c-18.124,4.299 -36.302,7.416 -54.632,10.575c-16.051,2.767 -32.5,5.481 -48.311,9.58c-10.567,2.764 -20.348,6.968 -31.215,8.893c-11.067,1.973 -22.923,1.872 -34.188,2.667c-3.755,0.246 -7.46,0.166 -11.164,0.206c-1.287,0 -2.866,0.308 -4.055,-0.206c-1.283,-0.593 -1.727,-1.719 -3.458,-1.679c1.729,-0.053 4.404,1.032 5.784,1.726c1.384,-1.386 2.271,-3.012 3.853,-4.299c2.959,-1.777 6.122,-3.262 9.43,-4.396c6.371,-2.224 12.693,-4.444 19.067,-6.768c13.733,-5.28 27.217,-11.064 41.148,-15.901c17.239,-6.029 34.33,-12.404 50.98,-19.96c27.562,-12.495 52.41,-30.38 81.504,-39.121c5.979,-1.884 12.054,-3.215 18.228,-4.055c3.511,-0.492 6.97,-1.231 10.375,-2.171c1.033,-0.392 2.36,-0.691 2.566,-1.925z" /> <path d="M288.269,674.904c0.206,1.384 0.84,1.679 1.779,2.869c3.999,4.693 7.958,9.431 12.054,14.078c4.788,5.431 10.128,10.918 13.981,17.137c1.38,2.276 3.405,4.989 4.195,7.562c-11.113,4.299 -22.869,6.321 -33.295,12.495c-3.853,2.619 -7.602,5.481 -11.163,8.501c-5.089,4.15 -10.57,7.751 -16.399,10.816c-11.364,6.03 -23.709,9.535 -34.725,16.252c-12.153,7.411 -23.96,14.67 -37.148,20.206c-10.766,4.544 -21.441,8.448 -31.667,14.129c-8.546,4.738 -16.795,9.928 -25.538,14.423c-3.357,1.731 -7.556,3.308 -10.57,5.778c4.3,-8.396 13.289,-13.73 20.549,-19.212c18.524,-14.078 36.508,-29.196 54.239,-44.212c20.303,-17.193 41.148,-33.787 61.646,-50.734c8.35,-6.864 15.61,-14.719 23.367,-22.177c3.656,-3.506 7.214,-6.917 10.621,-10.672c0.988,0.163 1.582,0.84 -1.925,2.768z" /> <path d="M407.613,759.282c-3.457,-0.395 -6.074,-1.38 -8.842,-2.074c0.839,1.385 7.96,1.718 9.586,2.127c8.002,1.875 15.46,6.417 22.428,10.522c8.245,4.885 15.855,11.012 25.04,13.877c-1.332,2.819 -6.173,5.981 -8.15,8.204c-6.963,7.653 -12.099,16.741 -18.228,24.99c-9.089,12.153 -21.337,21.097 -31.763,31.963c-8.591,8.888 -16.252,18.57 -24.054,28.156c-7.46,9.139 -15.565,17.484 -23.418,26.276c-6.717,7.508 -11.113,15.862 -16.102,24.554c-2.565,4.492 -5.288,8.1 -8.939,11.751c-1.981,1.978 -4.547,3.808 -5.883,6.374c-1.53,-1.036 5.554,-13.225 5.637,-13.388c4,-8.591 7.556,-17.435 11.952,-25.883c6.174,-11.81 13.877,-22.676 20.006,-34.479c6.569,-12.596 10.822,-25.885 15.017,-39.319c7.36,-23.421 12.941,-50.884 29.888,-69.753c1.183,-1.328 3.206,-7.36 5.825,-3.902z" /> <path d="M533.233,775.43h-8.546c5.778,0.083 11.61,-0.64 17.388,-1.086c10.522,-0.787 20.995,-1.63 31.517,-1.679c6.321,-0.04 12.746,-0.329 19.016,0.84c0.594,1.48 -3.212,3.656 -4.099,4.351c-7.064,5.778 -11.957,14.621 -16.006,22.722c-7.46,14.966 -11.856,31.415 -16.845,47.271c-4.497,14.227 -9.385,28.26 -13.832,42.486c-3.111,9.781 -6.129,19.611 -8.396,29.688c-2.171,9.729 -3.212,19.754 -5.481,29.49c-1.679,7.214 -3.361,14.375 -5.286,21.487c-1.828,-3.014 -1.134,-14.177 -1.234,-16.006c-0.409,-7.11 -1.086,-14.129 -1.977,-21.19c-2.118,-16.992 -4.492,-33.244 -4.989,-50.386c-0.369,-12.992 -0.409,-26.035 -0.94,-39.028c-0.694,-17.781 -3.26,-35.415 -5.035,-53.148c-0.795,-7.808 -1.977,-16.006 -2.175,-23.864c4.396,-0.462 9.586,2.175 13.49,3.563z" /> <path d="M700.148,745.793c0.083,-0.694 -0.163,-0.94 -0.694,-0.84c-0.84,2.469 -0.286,6.129 -0.163,8.642c0.514,11.957 3.458,24.95 5.877,36.508c3.563,16.744 7.958,33.295 12.746,49.742c3.753,12.842 6.425,25.247 8.3,38.53c1.679,12.352 3.753,24.453 6.522,36.605c1.779,7.904 3.853,15.906 4.842,23.955c0.246,2.324 1.332,6.869 0,8.893c-1.731,-2.32 -2.816,-4.939 -3.308,-7.853c-1.784,-7.658 -4.104,-15.217 -6.917,-22.623c-7.605,-20.156 -19.02,-39.126 -29.047,-58.143c-8.993,-16.942 -17.835,-33.838 -27.415,-50.482c-5.088,-8.893 -9.34,-19.016 -15.856,-27.07c-0.642,-0.742 -3.507,-3.014 -3.507,-4.492c0,-0.988 1.582,-3.955 1.981,-4.596c3.204,-5.089 9.238,-8.792 13.832,-12.3c6.471,-4.893 13.238,-7.904 32.797,-14.473z" /></svg>