<svg xmlns="http://www.w3.org/2000/svg" viewBox="0 0 2568 1024" width="2568" height="1024"><path d="M343.011,169.4l-0.693,5.056c-0.854,6.18 -33.16,114.692 -66.994,225.011c-3.728,12.152 -13.149,43.549 -20.938,69.771c-7.788,26.225 -17.233,57.371 -20.989,69.22l-5.742,18.112v131.281c0,102.775 -0.167,127.525 -2.286,133.744c-0.605,7.237 -1.512,8.556 -2.87,8.928c-8.489,2.321 -98.2,1.181 -99.712,-1.268c-1.979,-3.2 -1.684,-194.537 0.342,-221.638c1.754,-23.462 1.473,-43.558 -6.565,-75.625c-4.545,-16.85 -11.201,-37.032 -20.534,-63.173c-8.098,-22.682 -22.71,-66.638 -32.469,-97.679c-70.498,-224.243 -66.756,-211.077 -60.021,-211.133c46.437,-0.398 103.794,-0.121 104.417,0.502c0.446,0.449 15.544,55.21 33.55,121.692c18.006,66.482 33.034,121.825 33.397,122.98c0.363,1.155 10.931,-37.567 23.487,-86.051c26.322,-101.64 41.09,-157.757 41.655,-158.273c1.177,-1.077 14.268,-1.326 57.047,-1.084l47.349,0.267l-1.042,7.559c-0.044,0.321 -0.179,0.935 -0.388,1.8z" /> <path d="M845.123,328.651l94.195,-1.258v495.098l-1.086,0.223v6.628l-6.396,1.314c-7.717,1.581 -79.134,1.479 -84.89,-0.126c-3.516,-0.979 -4.07,-4.184 -4.07,-23.58v-22.445l-13.373,13.022c-30.769,29.96 -63.98,43.909 -94.77,39.809h-0.002c-23.381,-3.112 -37.025,-12.135 -46.391,-30.671c-11.759,-23.276 -11.752,-23.138 -11.752,-254.875v-216.289h1.086v-6.851h94.316l0.998,199.347c1.082,216.568 0.759,211.514 13.722,214.768c11.903,2.988 25.064,-3.394 41.488,-20.113l14.666,-14.929l0.577,-183.227l0.595,-188.993l1.065,-0.014l0.021,-6.838z" /> <path d="M605.891,426.329c3.958,16.985 4.335,29.972 4.337,148.847c0,93.2 -0.295,129.758 -4.47,152.375c-2.24,16.555 -5.957,25.618 -12.115,38.651c-14.254,30.172 -46.486,56.752 -80.118,66.078c-14.8,4.103 -40.534,6.501 -53.23,4.961c-42.169,-5.121 -80.908,-29.934 -99.572,-63.782c-19.027,-34.507 -20.764,-52.582 -19.643,-204.51c0.726,-98.6 1.059,-119.767 3.889,-133.951c0.735,-6.003 1.707,-10.029 3.033,-14.815c11.12,-40.169 32.646,-67.568 66.071,-84.083c45.868,-22.666 95.305,-19.708 138.586,8.291c27.553,17.824 44.298,43.598 53.233,81.939zM498.339,736.003c6.696,-5.107 10.633,-8.284 13.015,-20.154c2.342,-18.811 2.598,-53.852 3.058,-125.553c0.698,-108.131 0.31,-126.506 -2.972,-141.26c-4.421,-19.882 -12.179,-29.375 -27.336,-33.457c-19.445,-5.237 -37.256,5.759 -43.635,26.813c-3.869,42.074 -3.525,256.623 0.954,272.059c3.596,12.382 15.278,25.954 23.934,27.801c11.249,2.4 25.076,-0.221 32.983,-6.249z" /> <path d="M2252.368,530.432c-2.156,-5.623 0.849,-70.822 3.707,-80.308c6.71,-22.292 20.94,-33.141 43.388,-33.141c18.687,0 30.464,7.191 38.446,23.401c5.061,10.272 5.619,14.603 6.324,52.472l0.726,41.281h-45.57c-39.297,0 -45.816,-0.561 -47.021,-3.705z" /> <path d="M1999.809,586.463c0.476,124.769 0.158,138.248 -3.489,148.772c-2.802,8.082 -6.4,13.17 -11.919,16.861c-13.945,9.328 -34.19,6.349 -52.619,-7.703l-8.14,-6.177v-296.598l8.14,-6.177c10.927,-8.333 22.267,-12.645 32.488,-13.01c13.14,-0.472 24.448,5.559 30.525,17.806c4.233,8.524 4.519,16.183 5.014,146.226z" /> <path d="M2559.879,306.631c7.195,86.234 8.905,139.918 7.621,239.409c-1.535,119.078 -9.108,223.957 -20.422,282.851c-11.958,62.242 -40.262,115.319 -76.815,144.037c-28.243,22.192 -58.319,32.09 -105.596,34.76c-14.068,0.795 -31.86,1.93 -39.537,2.523c-27.299,2.11 -173.373,8.033 -253.5,10.282c-119.092,3.34 -327.418,4.531 -440.719,2.519c-54.363,-0.965 -118.724,-2.47 -143.03,-3.344c-163.185,-5.87 -275.22,-12.145 -297.605,-16.668c-31.908,-6.444 -67.566,-28.036 -88.26,-53.442c-33.167,-40.716 -50.833,-90.118 -59.41,-166.159c-19.946,-176.788 -19.504,-382.909 1.188,-553.515c9.061,-74.717 31.608,-128.734 69.452,-166.396c21.596,-21.494 42.349,-33.527 70.022,-40.604c59.882,-15.315 528.751,-27.511 813.939,-21.173c164.729,3.661 342.735,11.252 390.044,16.631c61.184,6.959 104.147,38.646 133.876,98.747c22.448,45.379 29.671,80.702 38.751,189.544zM1424.274,267.192l52.982,-0.654l-1.307,-87.069l-305.829,-1.235v88.304l103.493,1.307l0.581,280.246c0.316,154.133 1.056,281.527 1.672,283.153c0.86,2.282 11.642,2.814 47.167,2.326l45.932,-0.581l2.326,-565.143l52.982,-0.654zM1749.214,591.117v-243.035h-83.725v374.946l-18.024,17.952c-14.307,14.224 -20.326,18.508 -29.143,20.931c-14.989,4.116 -24.415,1.29 -30.597,-9.231c-4.663,-7.94 -4.754,-11.512 -5.377,-206.333l-0.654,-198.265h-83.653v210.547c0,229.283 0.244,234.225 13.082,256.335c14.029,24.15 46.956,31.718 81.618,18.75c16.739,-6.263 36.353,-19.813 52.91,-36.63c7.635,-7.754 15.221,-14.098 16.861,-14.098c2.244,0 2.979,6.336 2.979,25.583v25.583h83.725v-243.035zM2075.758,799.411c14.154,-31.539 14.173,-32.279 14.175,-209.457c0,-145.453 -0.351,-163.382 -3.998,-179.078c-11.691,-50.323 -37.207,-72.357 -80.018,-69.117c-24.009,1.814 -42.928,11.372 -65.557,33.213c-9.835,9.491 -18.666,17.298 -19.624,17.298c-0.958,0 -1.744,-48.142 -1.744,-106.982v-106.982h-83.725v655.845h83.725v-22.094c0,-14.645 0.904,-22.094 2.616,-22.094c1.421,0 10.828,7.719 20.931,17.224c32.56,30.631 60.768,39.09 95.935,28.708c13.477,-3.976 29.911,-20.061 37.283,-36.485zM2429.99,702.169l1.381,-33.143h-86.195l-1.091,29.653c-1.207,33.771 -4.67,45.339 -16.933,56.107c-13.086,11.489 -37.12,12.284 -52.765,1.744c-18.597,-12.533 -23.243,-33.72 -22.313,-102.621l0.654,-48.84l178.497,-1.235l-1.235,-72.678c-1.367,-81.039 -3.058,-93.339 -16.717,-122.099c-20.245,-42.628 -68.557,-68.806 -117.229,-67.808c-13.629,0.279 -27.269,2.721 -40.337,7.486c-45.098,16.443 -71.743,46.077 -82.49,91.865c-3.795,16.183 -4.214,30.737 -4.214,149.354c0,145.479 0.533,151.416 15.408,181.185c26.501,53.035 92.89,80.69 153.205,63.812c44.797,-12.538 75.79,-43.102 87.432,-86.269c1.988,-7.377 4.198,-28.288 4.942,-46.514z" /></svg>