<svg xmlns="http://www.w3.org/2000/svg" viewBox="0 0 1010 1024" width="1010" height="1024"><path d="M503.074,816.525c-3.424,-0.535 -5.778,1.605 -8.346,3.317c-4.173,2.782 -22.791,16.264 -24.931,18.725c-6.313,7.062 -7.811,16.157 4.494,14.231c6.634,-1.07 32.528,-32.528 28.89,-36.273zM640.142,704.281c-41.837,35.952 -60.991,87.313 -88.276,134.286c-2.889,5.029 -14.445,12.519 -6.099,19.474c11.877,9.951 65.378,8.667 82.07,7.383c5.564,-0.428 19.688,-1.926 22.256,-5.457v-153.332c-0.749,-6.527 -5.457,-6.313 -9.844,-2.461zM703.166,688.98c-5.992,-2.14 -9.095,1.498 -13.589,3.531c-2.889,1.284 -6.848,2.033 -7.49,3.852c-1.926,5.35 0.642,11.556 2.568,16.478c3.21,8.132 3.959,17.227 9.202,24.931l39.269,122.623l2.354,3.103l4.708,-0.428c13.589,-5.564 28.034,-9.523 42.051,-13.589c17.762,-5.136 42.051,-3.638 37.343,-30.816l-116.417,-129.792zM1003.411,371.615l4.815,27.178c0,0 1.605,16.585 1.07,17.12c-46.438,45.689 -298.533,236.472 -298.533,236.472c-3.638,10.807 16.692,25.787 23.647,34.133c36.808,44.084 72.975,88.811 111.495,131.397c11.449,21.293 0,34.454 -17.762,45.582c-38.413,24.289 -140.599,36.701 -187.573,38.413c-53.608,1.926 -133.323,-5.778 -185.219,-19.474c-10.058,-2.675 -16.264,-10.379 -27.499,-7.918c-5.35,1.177 -22.363,19.902 -28.462,24.717c-43.014,34.454 -86.457,68.695 -129.792,102.614c-19.153,14.98 -26.215,25.038 -52.752,20.865c-35.952,-5.671 -83.033,-22.47 -120.376,-30.923c-16.264,-3.638 -38.199,-10.486 -53.287,-12.84c-9.844,-1.498 -28.141,2.889 -33.491,-4.922c-4.173,-5.992 -12.519,-40.232 -7.597,-45.796c2.033,-2.354 16.478,-7.811 21.186,-10.807c171.523,-107.643 340.798,-218.175 510.93,-326.674c59.386,-37.878 118.878,-73.296 178.264,-111.067c57.46,-36.594 114.491,-76.399 171.309,-112.672c7.062,-4.494 12.626,-6.848 17.441,-9.737c2.675,-1.605 7.062,-6.955 11.021,-8.774c5.136,-2.354 24.931,7.062 31.779,8.774c16.05,4.066 33.598,6.634 49.755,9.951c3.103,0.642 6.634,2.889 9.523,4.28z" /> <path d="M513.56,485.999c5.029,-7.169 -9.737,-14.552 -13.696,-18.939c-34.561,-38.092 -64.736,-87.42 -88.383,-133.216c-40.981,-78.967 -78.646,-226.735 -67.946,-315.225c2.14,-17.548 15.515,-26.322 25.252,-8.774c-0.642,22.149 0,43.977 0,66.127c1.284,113.314 44.94,225.879 104.754,321.324c12.519,19.902 43.121,61.312 60.349,76.078c11.021,9.523 25.573,9.416 37.343,26.536c7.811,11.449 -1.284,13.054 -8.56,21.293c-90.844,20.758 -183.721,34.882 -275.314,52.859c-18.297,3.531 -37.664,17.334 -51.789,-2.568c-2.996,-4.173 -6.848,-13.91 -6.848,-18.618c0,-4.708 5.671,-8.453 2.675,-13.375l-40.874,-41.302c-75.65,-97.478 -120.804,-204.8 -147.126,-324.855c-10.379,-47.294 -12.091,-100.26 -10.807,-148.517c0.535,-19.046 14.98,-35.845 26.75,-14.445c-2.247,44.833 -3.852,88.811 3.317,133.109c20.865,129.578 87.634,287.726 182.544,380.068c6.206,6.099 13.054,11.449 22.256,9.416c67.839,-12.519 135.356,-27.606 203.195,-39.804c7.383,-1.284 39.911,-2.889 42.907,-7.169z" /></svg>