<svg xmlns="http://www.w3.org/2000/svg" viewBox="0 0 596 1024" width="596" height="1024"><path d="M279.153,590.513c-1.512,-1.512 -1.512,-6.047 -3.83,-7.357c-3.124,-1.814 -7.66,0 -10.986,-1.109c-2.52,-0.806 -3.326,-5.443 -6.652,-7.055c-6.35,-3.024 -14.715,0.202 -20.762,-1.613c-2.721,-0.806 -4.132,-4.233 -6.551,-5.543c-11.691,-6.551 -34.066,-0.907 -47.068,0.605c-8.466,6.249 14.715,8.265 18.847,8.769c4.435,0.605 9.172,-0.504 13.606,0c7.559,1.109 11.389,7.861 18.041,9.474c6.45,1.512 15.017,-0.605 19.654,1.008c2.822,1.008 3.326,6.047 7.861,7.559c4.435,1.411 10.784,-0.302 13.909,1.613c2.016,1.209 2.62,6.249 5.241,8.567c0.605,0.504 12.397,8.869 13.102,9.172c8.063,3.124 11.792,1.31 17.839,11.49c2.117,3.628 1.31,7.357 2.923,10.784c3.628,7.458 16.428,21.165 18.545,27.918c1.613,5.241 0,10.683 1.209,16.025c1.713,8.265 8.365,23.786 6.148,31.043c-0.907,3.024 -4.636,4.132 -5.644,6.45c-1.512,3.225 -0.504,7.055 -1.613,10.381c-0.403,1.209 -10.986,20.561 -11.792,21.871c-0.403,0.605 -10.885,9.575 -11.591,9.877c-3.729,1.613 -8.567,0.806 -13.002,2.52c-4.233,1.613 -6.753,6.047 -12.397,6.753c-5.241,0.706 -27.918,-7.156 -23.685,-15.219c3.528,-1.613 8.769,-8.265 11.288,-9.373c4.636,-2.117 14.211,0.806 16.428,-2.52c1.512,-4.334 0,-9.172 1.915,-13.506c1.31,-3.124 6.047,-3.024 7.156,-6.753c0.907,-2.923 0.907,-18.847 0,-21.77c-1.209,-4.031 -7.055,-4.334 -8.063,-7.458c-1.209,-3.729 0.806,-8.567 -1.109,-12.699c-1.512,-3.225 -7.055,-3.931 -9.373,-6.148c-3.326,-3.124 -7.257,-10.683 -11.187,-12.901c-4.334,-2.419 -9.474,-1.613 -14.211,-4.636c-3.931,-2.52 -5.241,-7.66 -8.567,-8.668c-3.931,-1.209 -58.054,-1.31 -63.395,-0.302c-5.543,1.008 -7.559,7.761 -11.288,9.373c-3.931,1.713 -8.869,0.202 -12.598,2.52c-12.699,7.761 -29.43,31.849 -41.323,42.633c-2.318,2.016 -7.257,2.318 -8.97,5.644c-2.721,5.543 1.31,10.482 0.706,12.8c-0.706,2.822 -6.753,2.721 -8.567,5.14c-2.721,3.528 -1.008,10.986 -3.326,15.219c-1.31,2.419 -5.543,2.419 -6.551,5.946c-1.109,3.729 -2.721,26.809 -2.016,30.74c0.302,2.016 0.907,3.124 2.62,4.233c17.033,-5.039 9.272,-22.072 13.203,-33.26c1.109,-3.124 6.148,-3.628 7.458,-6.249c1.613,-3.326 0.403,-8.164 1.613,-12.195c1.31,-4.233 6.753,-6.753 7.559,-9.776c0.706,-2.62 -1.209,-5.543 -0.504,-7.458c0.605,-1.713 14.513,-12.498 17.235,-15.32c5.443,-5.644 16.932,-20.863 22.677,-24.29c4.636,-2.721 10.079,-0.806 14.715,-2.016c5.241,-1.411 9.373,-8.97 14.211,-9.877c5.745,-1.109 47.672,-0.605 51.301,1.613c1.411,0.907 2.016,3.83 3.931,4.939c3.427,2.016 8.265,2.923 10.885,4.737c13.405,9.575 29.027,25.6 21.165,43.238c-12.195,27.011 -19.855,-9.575 -34.268,-12.901c-12.397,0.907 -30.942,-2.52 -41.726,4.031c-8.365,5.039 -15.219,17.94 -22.375,24.491l-13.506,24.088l-1.713,49.083c1.209,4.334 7.156,5.342 8.466,7.66c2.117,3.729 1.411,9.877 3.528,15.017c7.156,17.537 26.608,36.586 41.121,48.479c10.28,8.466 12.397,7.257 22.375,11.994c3.528,1.713 4.636,7.257 6.45,7.761c4.535,1.109 10.482,-1.008 16.126,0.706c4.535,1.411 6.35,6.854 11.087,7.761c7.156,1.411 38.501,0.907 46.261,0c7.559,-1.008 14.816,-5.14 4.535,-9.373c-14.917,-6.047 -35.578,0.706 -48.781,-2.52c-2.318,-0.605 -3.024,-7.66 -6.753,-9.172c-7.66,-3.225 -17.235,1.411 -21.468,-0.605c-4.233,-2.016 -10.079,-13.304 -15.017,-16.126c-4.535,-2.62 -9.272,-0.806 -13.707,-3.528c-2.117,-1.31 -10.583,-12.195 -13.909,-15.42c-1.613,-1.512 -5.443,-3.225 -5.745,-3.729c-1.613,-2.822 0.907,-9.071 -1.209,-13.405c-2.721,-5.644 -15.824,-3.528 -9.676,-18.646l-8.466,-4.939l0.907,-50.394c3.024,-5.443 12.498,-9.676 15.42,-13.808c3.124,-4.334 1.814,-10.079 4.132,-13.102c2.62,-3.326 9.373,-2.217 11.792,-4.535c2.52,-2.318 1.613,-10.683 9.575,-7.962c9.272,8.869 6.854,16.328 0.202,25.6c-2.117,2.923 -5.846,2.721 -6.954,6.753c-1.512,5.342 -1.512,26.205 -0.605,31.95c0.706,4.233 20.057,31.043 23.887,34.57c1.411,1.209 26.003,15.32 27.515,15.521c8.869,1.411 22.274,0 30.135,0.706c3.225,0.302 5.946,3.427 8.769,3.427c2.823,0 7.357,-4.535 12.296,-5.039c7.66,-0.706 10.683,2.923 19.956,-0.504c1.713,-0.605 17.335,-9.575 18.041,-10.28c1.613,-1.613 1.31,-5.241 3.931,-7.257c2.822,-2.217 7.66,-1.008 11.792,-3.528c4.132,-2.52 23.08,-19.049 23.887,-22.778c0.706,-3.326 -0.403,-8.466 0.706,-10.482c1.008,-1.814 16.328,-12.498 16.932,-13.606c3.024,-5.039 0.706,-12.598 2.016,-18.243c1.209,-5.443 6.954,-7.66 7.861,-10.986c1.109,-3.931 -0.202,-8.668 0.706,-13.102c1.109,-5.342 6.148,-9.575 7.458,-16.63c2.419,-12.598 2.016,-37.191 -13.002,-41.424c0.403,4.334 3.024,6.45 3.528,11.187c0.605,6.148 -1.512,10.381 -1.814,15.521c-0.202,3.729 2.721,7.257 1.512,11.691c-1.512,5.14 -9.071,4.737 -10.683,8.466c-2.721,6.45 0.302,14.715 -1.512,20.762c-1.209,3.83 -7.458,5.846 -8.265,12.598c-0.706,5.745 3.326,11.288 0.907,16.227c-1.613,3.225 -17.537,12.397 -19.049,15.42c-2.016,4.233 0.706,12.598 -2.419,14.816c-3.729,1.713 -8.769,-0.403 -12.195,1.613c-3.426,2.016 -13.203,14.413 -16.227,16.428c-3.628,2.419 -8.466,1.814 -11.792,3.628c-3.628,2.016 -3.528,6.551 -9.272,7.962c-5.443,1.209 -58.961,1.008 -62.488,-0.504l-31.95,-30.035c0.302,-7.66 -5.543,-26.205 -1.008,-32.05c16.126,-9.978 7.761,11.792 11.187,16.63c3.124,2.822 7.761,0.706 11.389,2.419c2.419,1.109 2.52,5.342 5.543,6.652c3.628,1.512 42.23,2.117 44.145,0.907c1.008,-0.706 0.605,-5.241 3.124,-6.854c3.931,-2.52 10.986,-0.806 15.723,-2.721c0.605,-0.202 9.575,-8.567 9.877,-9.172c2.117,-4.334 -0.504,-11.591 2.419,-16.126c1.713,-2.62 8.567,-2.419 10.18,-7.458c3.326,-10.784 -8.466,-19.351 8.164,-24.491c5.14,-4.535 0.806,-10.683 0.605,-16.428c-0.202,-7.357 3.024,-13.304 -2.318,-19.956c-1.713,-2.217 -5.543,-2.52 -6.753,-5.443c-2.318,-5.443 2.52,-12.699 0.302,-19.049c-1.209,-3.628 -6.148,-3.024 -8.466,-5.846c-4.031,-4.939 -2.217,-13.002 -3.729,-15.622c-0.403,-0.806 -3.528,-1.31 -4.737,-2.923c-6.45,-7.962 -26.104,-30.438 -33.764,-35.175c-4.636,-2.822 -12.699,-1.008 -15.723,-4.031zM104.791,534.173c10.683,1.915 13.808,-16.227 18.646,-23.685c4.535,-133.039 0.907,-269.707 1.915,-404.258c-0.504,-14.614 11.893,-32.454 24.29,-39.408c3.628,-2.016 23.181,-9.272 26.507,-9.272c7.257,0 27.616,9.676 33.562,14.413c10.079,8.164 16.529,24.794 17.335,37.694c4.233,122.154 -7.357,247.735 3.024,368.882c0.504,6.249 -6.047,16.932 6.551,17.638c13.707,0.806 7.66,-10.381 7.861,-16.428c0,-3.225 3.024,-6.551 3.326,-11.893c7.257,-141.405 -7.458,-288.454 2.117,-430.06c3.83,-5.543 4.838,-11.389 8.97,-16.831c7.055,-9.373 28.12,-20.762 39.609,-20.762c11.489,0 36.183,14.312 41.928,23.685c3.225,5.241 5.644,14.614 8.769,20.561v442.457c2.52,8.869 -1.512,22.274 8.668,25.802c6.249,2.117 9.978,1.713 10.28,-5.342c5.644,-132.636 -0.504,-268.699 2.016,-402.646c3.528,-18.041 12.296,-33.26 29.531,-41.02c3.124,-1.411 19.553,-6.35 22.375,-6.148c1.713,0.202 18.444,5.846 20.661,6.854c16.529,7.861 27.213,27.515 28.825,45.254c-3.225,186.356 4.334,373.317 0,559.672c0,3.225 -5.241,40.013 5.846,26.507c0.806,-0.907 10.986,-18.646 11.288,-19.754c3.729,-19.553 0,-65.109 0,-87.887c0,-26.205 -1.613,-49.386 5.241,-75.591c5.039,-19.351 23.08,-34.369 42.431,-38.501c15.42,-3.225 40.416,11.792 48.479,24.794c2.822,4.435 10.583,26.91 10.583,30.74v42.23c0,0 -1.613,132.132 -1.613,140.296c-0.403,57.65 -0.504,94.438 -16.831,150.375c-8.769,29.833 -19.654,45.254 -42.028,66.52c-57.751,54.929 -139.49,93.934 -219.313,93.934c-79.823,0 -111.874,6.753 -175.269,-20.964c-32.151,-14.009 -88.189,-60.069 -106.028,-90.205c-22.677,-38.4 -30.438,-85.569 -32.957,-129.713v-67.124c4.939,-8.97 1.613,-14.715 1.613,-23.181c0.504,-142.917 -6.551,-294.098 0,-435.805c1.109,-24.391 4.334,-52.309 29.833,-63.093c15.924,-6.753 26.406,-7.559 42.028,0c11.591,5.543 29.833,24.189 29.833,37.392v303.874z" /></svg>