<svg xmlns="http://www.w3.org/2000/svg" viewBox="0 0 918 1024" width="918" height="1024"><path d="M108.394,0.325l-2.057,47.844c0.974,4.113 16.886,4.113 17.86,0l-2.057,-47.844h102.184c-1.624,9.201 -8.551,45.896 0,50.118c6.278,3.031 14.288,1.299 15.371,-6.278l-3.572,-43.731h102.184l-3.572,43.731c1.082,7.577 9.093,9.417 15.371,6.278c8.443,-4.113 1.515,-40.917 0,-50.118h102.184l-2.057,47.844c0.974,4.113 16.886,4.113 17.86,0l-2.057,-47.844h102.184c-1.624,9.201 -8.551,45.896 0,50.118c6.278,3.031 14.288,1.299 15.371,-6.278l-3.572,-43.731h98.72v43.731c0.866,7.577 8.876,9.417 15.154,6.278c8.443,-4.113 4.979,-40.917 3.356,-50.118h98.72l-2.057,47.844c0.974,4.113 16.886,4.113 17.86,0l-2.057,-47.844h100.127c0.541,1.407 0,2.381 0,2.923v39.293c0,10.933 7.361,5.629 7.794,7.902v42.216h-7.794v183.692l-2.923,2.923h-92.333c-5.629,0 -2.923,-7.685 -2.923,-8.876v-179.687c-5.737,-1.732 -12.881,-3.789 -17.752,1.299l-0.866,293.345h-94.282l-2.598,-3.247l1.732,-284.577c0,-2.923 -0.216,-6.278 -1.732,-7.794c-3.031,-3.031 -9.201,-1.948 -14.072,0l-1.299,399.208l-1.948,2.598c-4.871,3.031 -11.474,-0.216 -17.211,-0.216c-19.917,-0.108 -54.664,3.464 -72.091,0.974c-2.923,-0.433 -5.629,-1.515 -7.577,-3.897v-388.925c0,-1.191 2.49,-2.273 0.649,-6.278c-3.897,-8.443 -18.835,-5.737 -18.402,4.222l1.624,496.629c-3.897,8.984 -12.448,3.356 -20.134,3.247c-19.592,-0.325 -39.51,-0.216 -59.102,0c-6.278,0 -12.232,4.222 -18.185,-0.325c-2.706,-2.598 -0.433,-4.871 -0.433,-6.386v-499.877c-5.737,-1.732 -12.881,-3.789 -17.752,1.299c2.923,196.898 -3.572,394.121 0,591.019c0.108,8.768 6.711,19.484 -4.979,22.515l-90.385,-1.84c-6.386,-5.088 -0.866,-22.732 -0.649,-30.525c4.222,-191.702 -3.464,-383.946 0,-575.648c0.325,-11.258 -17.969,-12.556 -19.159,-1.624c-0.325,2.923 1.515,7.469 1.515,11.474c-2.165,229.155 2.057,458.419 -0.216,687.682c0,3.68 3.68,16.562 -2.814,16.562h-92.333l-2.923,-2.923v-709.223c0,-1.191 2.49,-2.273 0.649,-6.278c-3.897,-8.443 -18.835,-5.737 -18.402,4.222c1.84,230.454 -2.165,461.125 0,691.579c0.325,38.102 6.603,84.107 2.165,121.776c-0.325,2.814 -0.216,5.088 -3.031,6.819h-92.333c-5.629,0 -2.923,-7.685 -2.923,-8.876v-818.009c-6.17,-1.948 -11.474,-3.031 -17.427,0.325l-0.433,2.598l2.057,930.151h-102.292c-0.541,-1.407 1.948,-2.381 1.948,-2.923v-923.332c0,-10.933 -7.469,-4.655 -7.902,-6.928v-42.107c0,0 5.629,0 6.928,-0.974c1.299,-0.974 0.974,-4.546 0.974,-4.979v-39.293c0,-0.649 -0.541,-1.515 0,-2.923h100.127z" /></svg>