<svg xmlns="http://www.w3.org/2000/svg" viewBox="0 0 1024 886" width="1024" height="886"><path d="M142.492,732.224c2.626,3.232 21.207,14.946 25.247,15.754c28.882,5.453 59.38,-31.205 42.515,-59.683c-19.187,-32.316 -61.703,-27.973 -74.932,6.362c-4.847,12.522 -1.212,27.266 7.271,37.466zM41.707,501.067c-17.269,16.966 -18.581,37.264 -2.525,55.441c15.249,17.269 33.224,20.803 52.311,6.766c27.367,-20.197 23.631,-48.877 -2.929,-67.459c-16.36,-11.512 -33.022,-8.18 -46.858,5.352zM878.984,414.724l-282.761,-36.254l-6.766,6.766c1.818,14.542 2.323,29.084 2.02,43.828c0,6.665 -4.14,17.067 -0.303,22.621c3.333,4.645 18.682,-2.222 24.035,-2.727c73.922,-6.665 147.238,-16.259 220.958,-24.742c7.271,-0.808 15.047,0.505 22.621,-0.202c2.525,-0.303 24.439,-3.736 20.197,-9.291zM560.675,376.854c-24.136,-5.049 -48.776,-8.483 -73.316,-11.411c-62.712,-7.574 -125.526,-16.36 -188.339,-21.207c-12.017,-0.909 -17.37,-8.887 -28.68,1.818c-19.49,18.682 -40.596,45.848 -59.178,66.55c-5.756,6.362 -9.493,10.402 -15.148,17.168c-2.424,2.929 -6.665,3.736 -9.291,7.877c-3.434,5.554 -0.808,38.678 -1.01,48.473c-0.101,5.958 -5.554,14.946 3.131,17.572c10.604,3.232 37.365,-5.251 49.382,-7.069c83.112,-12.118 167.637,-19.49 251.153,-28.781c22.217,-2.525 44.636,-6.665 66.853,-9.291l3.736,-2.02l0.606,-79.779zM503.82,98.536c-5.554,-5.554 -24.641,23.429 -27.569,26.66c-3.736,4.039 -29.69,26.761 -25.751,30.397c3.131,0 6.564,-0.505 9.594,0.909c3.333,1.616 7.776,15.148 12.421,10.604c5.453,-5.352 8.988,-22.318 12.522,-29.387c6.362,-12.825 17.673,-24.136 18.783,-39.284zM560.978,90.861c-24.54,-7.978 -23.631,4.847 -32.013,22.318c-9.594,19.894 -20.702,49.382 -31.205,67.863c-2.121,3.837 -9.796,4.948 -6.362,12.623c0.606,1.212 15.35,18.581 17.471,20.803c6.968,7.17 21.712,9.897 10.301,22.217c-2.323,2.525 -14.946,11.007 -17.774,10.2l-21.51,-26.357c-6.564,-1.212 -8.382,18.581 -15.855,20.096l-20.197,-6.766c-6.463,-10.2 15.047,-31.912 14.441,-37.163c-7.17,-10.503 -16.158,-16.562 -20.096,-29.589l-134.413,143.804c0,8.685 33.123,7.776 40.798,8.786c58.269,7.675 117.043,16.461 175.514,22.621c13.229,1.414 28.276,3.232 40.899,1.919v-253.273zM458.881,103.08c2.424,-2.323 7.574,-4.342 8.483,-7.776c2.929,-10.907 -16.158,-4.544 -21.51,-4.342c-38.375,1.212 -77.052,-1.818 -115.427,0.808c-28.175,16.764 -52.412,37.062 -79.274,55.946c-38.375,26.963 -77.86,52.715 -116.74,79.476c-20.601,14.138 -39.486,31.003 -61.299,43.525c-5.15,2.929 -18.178,3.333 -14.946,13.33c1.01,3.232 19.288,4.645 23.732,4.948c16.36,1.212 34.84,0.404 51.2,2.121c41,4.342 86.343,17.572 127.849,17.067c2.323,0 4.443,-0.101 6.564,-1.212c15.855,-13.027 27.973,-30.599 42.01,-45.646c48.372,-51.503 98.563,-109.368 149.359,-158.245zM560.978,489.959c-1.919,-6.261 -30.397,-1.616 -36.961,-0.707c-102.905,13.936 -206.012,25.852 -308.816,39.789c-10.604,1.414 -26.761,-3.03 -31.407,10.604l0.303,94.725c5.756,12.017 18.682,7.776 28.175,13.835c3.837,2.424 21.409,22.217 23.025,26.458c4.241,11.007 9.19,28.377 7.372,39.991c-3.333,20.904 -14.34,38.173 -31.205,50.594c-27.367,20.197 -72.003,9.392 -92.402,-16.764c-15.552,-19.995 -16.158,-61.905 -0.808,-82.203c1.919,-2.525 15.855,-16.865 17.976,-18.178c7.372,-4.443 19.086,-1.818 21.914,-10.402v-99.269c-28.074,-8.584 -24.035,16.865 -32.619,32.316c-9.392,16.764 -41.909,29.892 -60.592,28.478c-86.848,-6.463 -84.929,-132.191 -0.303,-136.937c19.591,-1.111 49.786,10.301 60.087,27.67c5.554,9.291 1.212,20.904 17.976,20.096c24.035,-1.111 14.643,-14.239 14.34,-29.488c-0.404,-17.774 -3.434,-50.695 8.584,-63.924c13.734,-15.148 29.892,-29.084 43.727,-43.929c10.705,-11.411 21.51,-23.328 31.205,-35.042c-1.313,-2.727 -3.434,-4.039 -6.362,-4.645c-25.751,-5.15 -53.927,-3.03 -79.779,-5.958c-39.789,-4.443 -79.981,-14.138 -120.174,-18.884c-10.503,-1.212 -29.185,4.241 -31.306,-10.705c-2.727,-18.783 17.976,-23.631 30.296,-32.316c90.686,-64.328 180.664,-129.969 273.471,-191.268c8.685,-5.756 9.695,-12.219 22.722,-13.431c45.141,-4.241 103.814,0 150.671,0c46.857,0 9.594,2.121 12.825,1.616c3.535,-0.505 22.015,-18.985 26.054,-23.429c6.564,-7.069 14.542,-19.591 21.106,-26.559c21.207,-22.52 44.535,-11.209 28.175,20.5c-4.241,8.281 -15.754,16.057 -12.825,26.66c2.323,6.766 17.471,-0.606 25.045,1.616c4.039,1.212 10.301,9.493 10.705,14.037c-1.01,84.424 1.717,168.95 0.202,253.273c0,5.857 -5.251,18.682 1.818,22.823c3.333,1.919 25.146,2.02 31.205,3.03c69.378,10.907 139.664,16.461 209.445,24.742c34.84,4.14 70.185,12.32 105.228,16.663c18.884,2.323 56.249,1.313 71.599,6.463c13.027,4.342 18.077,18.884 6.261,28.074c-7.372,5.756 -37.567,4.342 -49.483,5.756c-113.206,12.623 -228.633,26.458 -341.232,43.525c-7.574,1.111 -25.55,0.707 -31.104,3.131c-9.796,4.241 -3.938,16.764 -3.736,24.641c1.717,85.333 -0.808,170.97 -0.909,256.404c-4.342,19.187 -51.503,3.03 -57.36,11.209l1.111,107.449c-0.909,3.837 -30.397,6.564 -32.114,-1.919l1.616,-100.683l-2.929,-6.564h-41.909c-1.919,0 -4.14,1.717 -7.17,0c-5.049,-2.727 -4.645,-24.641 -0.505,-28.68c6.968,-6.867 41,3.636 51.301,-1.616c0.808,-21.914 -6.16,-30.902 23.126,-26.963c17.875,2.424 0,22.621 10.402,27.67c4.342,2.121 21.106,2.323 24.742,-1.919v-251.456h0.202z" /></svg>