<svg xmlns="http://www.w3.org/2000/svg" viewBox="0 0 1018 1024" width="1018" height="1024"><path d="M1017.827,43.432h-24.506c-2.407,0 -13.785,6.783 -16.629,8.752c-17.723,12.691 -37.525,47.699 -44.636,68.814c-26.475,78.003 -25.6,190.25 -17.176,271.973c0.766,7.111 6.674,26.256 4.048,31.508c-6.455,12.909 -34.024,-12.034 -41.135,-14.769c-9.737,-3.829 -31.179,-7.33 -35.118,-7.33c-4.267,0 -18.817,0 -23.303,0.438c-5.47,0.438 -26.256,6.892 -28.663,7.439c-14.003,2.844 -27.132,8.643 -39.932,14.769c-2.407,7.877 -7.002,15.973 -9.846,23.193c-28.007,72.971 -51.966,146.926 -79.644,220.116c-3.72,9.956 -8.424,20.021 -12.691,29.757c0.109,7.658 24.397,6.674 30.961,7.986c80.738,16.191 213.662,54.591 245.607,138.831c16.301,42.995 27.569,94.414 42.338,138.94c4.485,13.456 11.487,26.366 14.769,40.26h-953.436l3.063,-1.86c0.328,-0.438 -1.203,-3.063 -0.547,-4.814c14.222,-42.338 32.164,-87.74 44.089,-130.407c7.986,-28.444 5.251,-43.214 23.85,-69.251c46.058,-64.656 157.867,-95.945 232.26,-111.48c8.424,-1.75 27.569,1.094 27.679,-9.737c-3.063,-9.737 -9.409,-20.239 -12.909,-29.648c-3.282,-8.971 -5.798,-20.677 -9.19,-29.757c-26.147,-71.221 -53.388,-140.362 -78.441,-212.021c-9.518,-4.704 -20.786,-11.597 -31.289,-13.566c-4.814,-0.875 -31.945,-8.096 -35.446,-8.424c-3.282,-0.328 -19.145,-0.547 -23.412,-0.547c-4.376,0 -28.663,5.361 -33.477,7.221c-11.268,4.595 -20.896,15.535 -33.039,17.942c-18.379,3.61 -6.783,-20.239 -5.689,-29.429c10.612,-84.13 15.644,-243.966 -29.538,-317.265c-1.094,-1.75 -9.846,-12.8 -11.815,-15.316c-4.704,-5.908 -23.412,-22.099 -30.414,-22.099h-24.506c-0.219,-11.05 16.41,-17.285 24.506,-23.74c9.518,-7.768 15.754,-19.474 28.882,-18.926c18.489,0.766 50.981,11.487 64.547,24.397c64.109,60.39 79.644,173.074 81.832,259.391c0.109,5.142 -1.094,29.21 1.86,31.07c7.221,-2.188 15.207,0.656 21.005,0.328c4.376,-0.219 17.395,0.547 20.677,1.203c5.032,1.094 37.087,4.267 43.214,5.798c6.892,1.75 19.692,7.221 25.709,6.345c8.096,-1.313 33.915,-20.021 44.636,-24.944c105.026,-48.246 244.294,-38.838 339.911,26.803c10.065,-1.969 19.364,-5.798 29.21,-8.205c6.345,-1.532 23.85,-6.674 28.554,-7.111c5.579,-0.438 21.333,-3.282 25.272,-3.501c4.157,-0.219 24.178,0.985 30.961,3.173c3.391,-2.188 2.954,-50.653 3.61,-58.202c4.267,-52.622 15.644,-117.279 37.962,-165.197c14.113,-30.304 41.354,-70.236 74.284,-83.255c4.595,-1.86 38.509,-9.627 41.791,-9.19c2.297,0.328 3.063,0.875 4.923,1.969c3.829,2.188 41.682,32.602 42.995,35.118c1.094,1.969 1.532,4.048 1.203,6.345z" /></svg>