<?xml version="1.0" standalone="no"?>
<!DOCTYPE svg PUBLIC "-//W3C//DTD SVG 20010904//EN"
 "http://www.w3.org/TR/2001/REC-SVG-20010904/DTD/svg10.dtd">
<svg version="1.0" xmlns="http://www.w3.org/2000/svg"
 width="204.000000pt" height="203.000000pt" viewBox="0 0 204.000000 203.000000"
 preserveAspectRatio="xMidYMid meet">
<metadata>
Created by potrace 1.16, written by Peter Selinger 2001-2019
</metadata>
<g transform="translate(0.000000,203.000000) scale(0.100000,-0.100000)"
fill="#000000" stroke="none">
<path d="M1055 1830 c-3 -5 -25 -10 -49 -10 -24 0 -56 -7 -72 -15 -40 -20
-148 -133 -165 -172 -8 -18 -17 -33 -21 -33 -5 0 -8 -6 -8 -12 0 -10 -23 -12
-92 -10 -88 3 -95 5 -121 33 -24 24 -36 29 -78 29 -44 0 -53 -4 -89 -40 -24
-24 -40 -49 -40 -64 0 -13 -10 -38 -23 -57 -39 -59 -47 -88 -47 -166 0 -66 4
-85 35 -149 19 -40 35 -76 35 -80 0 -3 8 -14 18 -23 31 -29 39 -53 28 -78 -6
-12 -14 -23 -18 -23 -5 0 -8 -5 -8 -11 0 -6 -13 -31 -30 -56 -16 -24 -30 -47
-30 -51 0 -4 -11 -24 -25 -44 -21 -31 -25 -48 -25 -110 0 -57 5 -78 20 -98 11
-14 20 -29 20 -33 0 -14 54 -56 72 -57 9 0 20 -4 23 -10 4 -6 72 -10 170 -10
l165 0 6 -26 c4 -14 2 -30 -5 -37 -6 -6 -11 -21 -11 -33 0 -12 -6 -24 -12 -27
-10 -4 -10 -7 0 -18 6 -7 12 -24 12 -39 0 -14 8 -35 18 -48 16 -20 27 -23 92
-24 48 -1 87 -8 111 -20 55 -26 125 -23 186 7 28 15 57 33 63 40 7 8 19 15 26
15 12 0 45 41 80 101 6 11 18 27 27 37 10 10 17 24 17 30 0 9 41 12 144 12 86
0 147 4 151 10 3 6 28 10 54 10 57 0 89 27 98 84 3 20 10 39 14 42 13 7 11
211 -1 219 -5 3 -10 15 -10 26 0 24 -32 99 -42 99 -5 0 -8 6 -8 13 0 6 -9 23
-20 37 -26 34 -25 40 10 40 27 0 58 14 119 51 29 19 30 102 1 139 -15 19 -20
41 -20 93 0 38 -4 67 -10 67 -5 0 -10 10 -10 23 0 24 -57 87 -78 87 -7 0 -12
4 -12 8 0 20 -101 37 -222 37 l-127 0 -10 41 c-6 23 -17 47 -26 54 -8 7 -15
17 -15 22 0 23 -116 151 -158 176 -26 15 -68 16 -77 2z m93 -83 c6 -5 12 -14
12 -19 0 -5 13 -23 28 -39 15 -17 37 -47 47 -67 11 -20 22 -39 25 -42 3 -3 10
-14 17 -26 10 -18 8 -22 -21 -32 -18 -7 -42 -12 -54 -12 -11 0 -24 -4 -27 -10
-3 -5 -19 -10 -35 -10 -16 0 -32 -4 -35 -10 -3 -5 -19 -10 -35 -10 -16 0 -32
5 -35 10 -3 6 -17 10 -30 10 -13 0 -25 3 -27 8 -5 11 -100 42 -129 42 -40 0
-52 21 -34 57 25 50 90 118 137 141 61 31 162 36 196 9z m-456 -312 c-2 -44
-8 -84 -13 -89 -5 -6 -9 -26 -9 -46 0 -32 -8 -44 -69 -101 -76 -70 -125 -109
-138 -109 -4 0 -14 -9 -21 -21 -11 -17 -16 -18 -28 -8 -17 14 -54 86 -54 106
0 7 -3 13 -8 13 -9 0 -26 39 -43 97 -9 33 -9 51 1 87 16 59 34 75 58 52 25
-22 109 -22 134 1 10 9 18 25 18 35 0 10 7 30 16 44 16 23 22 25 88 22 l71 -3
-3 -80z m158 45 c0 -5 11 -10 24 -10 14 0 28 -4 31 -10 3 -5 17 -10 31 -10 15
0 24 -6 24 -15 0 -9 -9 -15 -25 -15 -14 0 -25 -4 -25 -10 0 -5 -9 -10 -20 -10
-11 0 -20 -4 -20 -10 0 -5 -9 -10 -19 -10 -11 0 -21 -3 -23 -7 -4 -11 -63 -43
-77 -43 -14 0 -15 67 -1 75 6 3 10 19 10 34 0 15 5 32 12 39 14 14 78 16 78 2z
m785 -24 c76 -26 105 -74 105 -173 0 -29 -3 -33 -27 -33 -61 -1 -103 -78 -71
-129 9 -15 9 -23 -2 -36 -12 -14 -24 -5 -117 87 -69 68 -103 110 -103 125 0
12 -4 25 -10 28 -5 3 -10 19 -10 35 0 16 -4 32 -10 35 -5 3 -10 22 -10 41 l0
34 108 0 c64 0 123 -6 147 -14z m-329 -7 c4 -6 10 -25 14 -43 4 -17 11 -39 15
-48 5 -13 2 -18 -8 -18 -8 0 -17 3 -19 8 -4 10 -128 72 -147 73 -15 1 -3 5 79
27 48 14 58 14 66 1z m-199 -68 c72 -36 150 -71 157 -71 4 0 27 -14 52 -30 41
-29 44 -34 44 -75 0 -24 5 -47 10 -50 6 -4 10 -68 10 -159 l0 -152 -43 -42
c-23 -23 -48 -42 -55 -42 -7 0 -12 -4 -12 -9 0 -5 -8 -11 -17 -15 -10 -3 -31
-14 -48 -25 -16 -11 -37 -20 -45 -20 -8 -1 -26 -10 -40 -21 -14 -11 -35 -20
-47 -20 -13 0 -23 -4 -23 -10 0 -5 -16 -10 -35 -10 -19 0 -35 3 -35 8 0 4 -15
13 -32 21 -18 8 -42 22 -53 31 -11 9 -27 20 -35 24 -15 6 -38 21 -102 66 -44
30 -48 52 -48 270 0 171 2 178 63 209 15 8 27 18 27 23 0 4 5 8 10 8 6 0 28
11 50 25 22 14 47 25 55 25 8 0 25 5 38 12 48 24 57 28 76 28 11 0 23 5 26 10
8 13 7 13 52 -9z m441 -319 c17 -20 32 -41 32 -47 0 -13 -47 -58 -102 -99
l-38 -27 0 137 0 136 38 -32 c20 -18 52 -48 70 -68z m-902 -68 l5 -149 -34 33
c-18 17 -36 32 -40 32 -16 0 -107 73 -107 86 0 7 17 26 37 41 20 15 57 47 82
70 25 23 47 40 49 39 1 -2 5 -70 8 -152z m-134 -114 c4 0 23 -16 42 -35 20
-19 39 -35 43 -35 4 0 22 -14 40 -32 31 -30 33 -36 33 -100 0 -39 4 -68 10
-68 14 0 13 -43 -2 -58 -15 -15 -284 -17 -293 -2 -3 6 -13 10 -21 10 -8 0 -27
12 -41 27 -37 36 -44 120 -15 185 12 24 28 51 37 58 8 7 15 19 15 26 0 8 3 14
8 14 4 0 13 15 21 33 24 56 28 57 74 16 23 -22 45 -39 49 -39z m1158 15 c0 -5
9 -21 20 -35 11 -14 20 -37 20 -52 0 -15 5 -30 10 -33 6 -3 10 -35 10 -70 0
-35 -4 -67 -10 -70 -5 -3 -10 -18 -10 -33 -1 -33 -21 -62 -44 -62 -9 0 -16 -4
-16 -8 0 -14 -271 -34 -286 -21 -14 11 -9 66 7 84 5 5 9 19 9 32 0 13 5 23 10
23 6 0 10 11 10 24 0 14 5 28 10 31 6 3 10 16 10 29 0 31 28 86 48 94 9 3 33
21 52 39 19 19 51 47 70 63 l35 29 22 -27 c13 -15 23 -31 23 -37z m-830 -245
c8 -9 29 -23 47 -30 41 -18 26 -40 -26 -40 -20 0 -42 -5 -48 -11 -6 -6 -23 -9
-39 -7 -26 3 -29 7 -32 43 -2 22 -8 44 -13 50 -10 10 -12 48 -3 58 7 7 94 -40
114 -63z m492 16 c-5 -11 -17 -47 -27 -78 -17 -56 -19 -57 -49 -51 -17 3 -35
10 -40 14 -6 5 -20 9 -33 9 -13 0 -23 5 -23 10 0 6 -12 10 -26 10 -31 0 -24
13 19 36 63 33 122 66 152 83 26 15 31 16 33 3 2 -8 0 -24 -6 -36z m-307 -116
c3 -5 15 -10 25 -10 11 0 35 -9 55 -20 20 -11 44 -20 54 -20 24 0 91 -28 90
-38 0 -4 -9 -20 -20 -37 -10 -16 -22 -37 -26 -45 -11 -24 -69 -74 -110 -94
-21 -10 -46 -22 -55 -27 -27 -14 -80 -9 -113 10 -28 16 -30 22 -33 85 -4 85
-28 116 -92 116 -29 0 -40 4 -40 15 0 11 12 15 49 15 28 0 53 5 56 10 3 6 19
10 35 10 16 0 32 5 35 10 3 6 17 10 30 10 13 0 27 5 30 10 3 6 10 10 15 10 5
0 12 -4 15 -10z"/>
<path d="M990 1210 c-8 -5 -38 -10 -67 -10 -44 0 -58 -5 -89 -32 -36 -32 -36
-33 -32 -98 3 -36 1 -77 -4 -90 -20 -54 15 -110 67 -110 6 0 22 -12 36 -26 13
-14 36 -32 51 -40 31 -16 78 -19 78 -4 0 6 14 10 30 10 38 0 63 14 118 65 l42
39 0 118 c0 143 -10 168 -71 168 -21 0 -41 5 -44 10 -8 13 -95 13 -115 0z"/>
</g>
</svg>
