solid OpenSCAD_Model
  facet normal 1 0 0
    outer loop
      vertex 52.435936 0 11
      vertex 52.435936 77 0
      vertex 52.435936 77 11
    endloop
  endfacet
  facet normal 1 0 0
    outer loop
      vertex 52.435936 77 0
      vertex 52.435936 0 11
      vertex 52.435936 0 0
    endloop
  endfacet
  facet normal 0 0 1
    outer loop
      vertex 52.435936 77 11
      vertex 50.435936 75 11
      vertex 52.435936 0 11
    endloop
  endfacet
  facet normal 0 0 1
    outer loop
      vertex 52.435936 77 11
      vertex 2 75 11
      vertex 50.435936 75 11
    endloop
  endfacet
  facet normal 0 0 1
    outer loop
      vertex 2 75 11
      vertex 0 77 11
      vertex 2 2 11
    endloop
  endfacet
  facet normal 0 0 1
    outer loop
      vertex 0 77 11
      vertex 2 75 11
      vertex 52.435936 77 11
    endloop
  endfacet
  facet normal 0 0 1
    outer loop
      vertex 50.435936 2 11
      vertex 52.435936 0 11
      vertex 50.435936 75 11
    endloop
  endfacet
  facet normal 0 0 1
    outer loop
      vertex 2 2 11
      vertex 52.435936 0 11
      vertex 50.435936 2 11
    endloop
  endfacet
  facet normal 0 0 1
    outer loop
      vertex 2 2 11
      vertex 0 0 11
      vertex 52.435936 0 11
    endloop
  endfacet
  facet normal 0 0 1
    outer loop
      vertex 0 0 11
      vertex 2 2 11
      vertex 0 77 11
    endloop
  endfacet
  facet normal 0 0 -1
    outer loop
      vertex 0 0 0
      vertex 52.435936 77 0
      vertex 52.435936 0 0
    endloop
  endfacet
  facet normal 0 0 -1
    outer loop
      vertex 52.435936 77 0
      vertex 0 0 0
      vertex 0 77 0
    endloop
  endfacet
  facet normal -1 0 0
    outer loop
      vertex 0 0 0
      vertex 0 77 11
      vertex 0 77 0
    endloop
  endfacet
  facet normal -1 0 0
    outer loop
      vertex 0 77 11
      vertex 0 0 0
      vertex 0 0 11
    endloop
  endfacet
  facet normal 0 1 0
    outer loop
      vertex 52.435936 77 0
      vertex 0 77 11
      vertex 52.435936 77 11
    endloop
  endfacet
  facet normal 0 1 0
    outer loop
      vertex 0 77 11
      vertex 52.435936 77 0
      vertex 0 77 0
    endloop
  endfacet
  facet normal 0 -1 0
    outer loop
      vertex 0 0 0
      vertex 52.435936 0 11
      vertex 0 0 11
    endloop
  endfacet
  facet normal 0 -1 0
    outer loop
      vertex 52.435936 0 11
      vertex 0 0 0
      vertex 52.435936 0 0
    endloop
  endfacet
  facet normal -1 0 0
    outer loop
      vertex 50.435936 2 2
      vertex 50.435936 75 11
      vertex 50.435936 75 2
    endloop
  endfacet
  facet normal -1 0 0
    outer loop
      vertex 50.435936 75 11
      vertex 50.435936 2 2
      vertex 50.435936 2 11
    endloop
  endfacet
  facet normal 0 0 1
    outer loop
      vertex 2 75 2
      vertex 50.435936 2 2
      vertex 50.435936 75 2
    endloop
  endfacet
  facet normal 0 0 1
    outer loop
      vertex 50.435936 2 2
      vertex 2 75 2
      vertex 2 2 2
    endloop
  endfacet
  facet normal 1 0 0
    outer loop
      vertex 2 2 11
      vertex 2 75 2
      vertex 2 75 11
    endloop
  endfacet
  facet normal 1 0 0
    outer loop
      vertex 2 75 2
      vertex 2 2 11
      vertex 2 2 2
    endloop
  endfacet
  facet normal 0 -1 0
    outer loop
      vertex 2 75 2
      vertex 50.435936 75 11
      vertex 2 75 11
    endloop
  endfacet
  facet normal 0 -1 0
    outer loop
      vertex 50.435936 75 11
      vertex 2 75 2
      vertex 50.435936 75 2
    endloop
  endfacet
  facet normal 0 1 0
    outer loop
      vertex 50.435936 2 2
      vertex 2 2 11
      vertex 50.435936 2 11
    endloop
  endfacet
  facet normal 0 1 0
    outer loop
      vertex 2 2 11
      vertex 50.435936 2 2
      vertex 2 2 2
    endloop
  endfacet
endsolid OpenSCAD_Model
