solid OpenSCAD_Model
  facet normal 1 0 0
    outer loop
      vertex 101 0 18.5
      vertex 101 153 0
      vertex 101 153 18.5
    endloop
  endfacet
  facet normal 1 0 0
    outer loop
      vertex 101 153 0
      vertex 101 0 18.5
      vertex 101 0 0
    endloop
  endfacet
  facet normal 0 0 1
    outer loop
      vertex 101 153 18.5
      vertex 99 151 18.5
      vertex 101 0 18.5
    endloop
  endfacet
  facet normal 0 0 1
    outer loop
      vertex 101 153 18.5
      vertex 2 151 18.5
      vertex 99 151 18.5
    endloop
  endfacet
  facet normal 0 0 1
    outer loop
      vertex 2 151 18.5
      vertex 0 153 18.5
      vertex 2 2 18.5
    endloop
  endfacet
  facet normal 0 0 1
    outer loop
      vertex 0 153 18.5
      vertex 2 151 18.5
      vertex 101 153 18.5
    endloop
  endfacet
  facet normal 0 0 1
    outer loop
      vertex 99 2 18.5
      vertex 101 0 18.5
      vertex 99 151 18.5
    endloop
  endfacet
  facet normal 0 0 1
    outer loop
      vertex 2 2 18.5
      vertex 101 0 18.5
      vertex 99 2 18.5
    endloop
  endfacet
  facet normal 0 0 1
    outer loop
      vertex 2 2 18.5
      vertex 0 0 18.5
      vertex 101 0 18.5
    endloop
  endfacet
  facet normal 0 0 1
    outer loop
      vertex 0 0 18.5
      vertex 2 2 18.5
      vertex 0 153 18.5
    endloop
  endfacet
  facet normal 0 0 -1
    outer loop
      vertex 0 0 0
      vertex 101 153 0
      vertex 101 0 0
    endloop
  endfacet
  facet normal 0 0 -1
    outer loop
      vertex 101 153 0
      vertex 0 0 0
      vertex 0 153 0
    endloop
  endfacet
  facet normal -1 0 0
    outer loop
      vertex 0 0 0
      vertex 0 153 18.5
      vertex 0 153 0
    endloop
  endfacet
  facet normal -1 0 0
    outer loop
      vertex 0 153 18.5
      vertex 0 0 0
      vertex 0 0 18.5
    endloop
  endfacet
  facet normal 0 1 0
    outer loop
      vertex 101 153 0
      vertex 0 153 18.5
      vertex 101 153 18.5
    endloop
  endfacet
  facet normal 0 1 0
    outer loop
      vertex 0 153 18.5
      vertex 101 153 0
      vertex 0 153 0
    endloop
  endfacet
  facet normal 0 -1 0
    outer loop
      vertex 0 0 0
      vertex 101 0 18.5
      vertex 0 0 18.5
    endloop
  endfacet
  facet normal 0 -1 0
    outer loop
      vertex 101 0 18.5
      vertex 0 0 0
      vertex 101 0 0
    endloop
  endfacet
  facet normal -1 0 0
    outer loop
      vertex 99 2 2
      vertex 99 151 18.5
      vertex 99 151 2
    endloop
  endfacet
  facet normal -1 0 0
    outer loop
      vertex 99 151 18.5
      vertex 99 2 2
      vertex 99 2 18.5
    endloop
  endfacet
  facet normal 0 0 1
    outer loop
      vertex 2 151 2
      vertex 99 2 2
      vertex 99 151 2
    endloop
  endfacet
  facet normal 0 0 1
    outer loop
      vertex 99 2 2
      vertex 2 151 2
      vertex 2 2 2
    endloop
  endfacet
  facet normal 1 0 0
    outer loop
      vertex 2 2 18.5
      vertex 2 151 2
      vertex 2 151 18.5
    endloop
  endfacet
  facet normal 1 0 0
    outer loop
      vertex 2 151 2
      vertex 2 2 18.5
      vertex 2 2 2
    endloop
  endfacet
  facet normal 0 -1 0
    outer loop
      vertex 2 151 2
      vertex 99 151 18.5
      vertex 2 151 18.5
    endloop
  endfacet
  facet normal 0 -1 0
    outer loop
      vertex 99 151 18.5
      vertex 2 151 2
      vertex 99 151 2
    endloop
  endfacet
  facet normal 0 1 0
    outer loop
      vertex 99 2 2
      vertex 2 2 18.5
      vertex 99 2 18.5
    endloop
  endfacet
  facet normal 0 1 0
    outer loop
      vertex 2 2 18.5
      vertex 99 2 2
      vertex 2 2 2
    endloop
  endfacet
endsolid OpenSCAD_Model
