<?xml version="1.0" encoding="UTF-8"?>
<svg id="Layer_2" data-name="Layer 2" xmlns="http://www.w3.org/2000/svg" viewBox="0 0 456.57 605.47">
  <defs>
    <style>
      .cls-1 {
        fill: none;
        stroke: #fff;
        stroke-miterlimit: 10;
        stroke-width: 5px;
      }
    </style>
  </defs>
  <g id="Layer_1-2" data-name="Layer 1">
    <path class="cls-1" d="M298.28,595.68l-62.45-71.7c-4.46-5.12-14.35-5.11-18.02.6l-40.97,66.52c-1.83,2.85-10.97,11.86-14.89,11.86H29.96c-19.88,0-19.92-7.35-24.38-14.45-5.63-8.97-2.54-23.61,1.27-31.76,21.22-45.34,58.02-114.28,72.21-140.63,2.92-5.42.39-12.13-5.35-14.34-20.26-7.8-61.31-30.16-64.48-83.94-3.39-57.49,65.38-85.33,98.76-99.66,3.95-1.7,6.4-5.68,6.14-9.97l-1.78-29.16c-.02-.41-.07-.81-.15-1.22l-6.14-33.53c-.97-5.31-5.92-8.96-11.28-8.27-18.42,2.38-57.81,2.32-63.25-40.21-4.38-34.27,39.94-44.73,58.8-47.62,4.63-.71,8.14-4.49,8.59-9.15.58-6.03,2.09-14,5.97-18.84C122.89-2.22,162.96,3.36,209.21,3.15c40.01-.18,80.95-5.43,99.91,17.18,9.68,11.54,7.83,32.18,9.04,57.64,2.19,45.72,1.29,94.38.82,112.71-.11,4.45,2.67,8.44,6.87,9.88,27.4,9.38,124.97,47.13,128.14,110.07,2.43,48.34-49.45,72.24-72.23,80.37-5.57,1.99-8.28,8.26-5.91,13.68,0,0,63.03,143.04,66.53,150.92,1.16,2.61,4.2,17.93,3.01,25.69s.44,21.69-32.94,21.69c-25.88,0-81.53-.55-101.62,0-3.04.08-10.56-4.99-12.55-7.29Z"/>
  </g>
</svg>