solid OpenSCAD_Model
  facet normal 0 0 1
    outer loop
      vertex 41.25 2 6.5
      vertex 15.75 2 6.5
      vertex 41.25 1.6999998 6.5
    endloop
  endfacet
  facet normal 0 0 1
    outer loop
      vertex 41.25 1.6999998 6.5
      vertex 45.324894 0 6.5
      vertex 45.324894 1.6999998 6.5
    endloop
  endfacet
  facet normal 0 0 1
    outer loop
      vertex 15.75 1.6999998 6.5
      vertex 41.25 1.6999998 6.5
      vertex 15.75 2 6.5
    endloop
  endfacet
  facet normal 0 0 1
    outer loop
      vertex 41.25 1.6999998 6.5
      vertex 15.75 1.6999998 6.5
      vertex 45.324894 0 6.5
    endloop
  endfacet
  facet normal 0 0 1
    outer loop
      vertex 11.7751045 0 6.5
      vertex 15.75 1.6999998 6.5
      vertex 11.7751045 1.6999998 6.5
    endloop
  endfacet
  facet normal 0 0 1
    outer loop
      vertex 15.75 1.6999998 6.5
      vertex 11.7751045 0 6.5
      vertex 45.324894 0 6.5
    endloop
  endfacet
  facet normal 0 0 1
    outer loop
      vertex 15.75 45.8 6.5
      vertex 41.25 45.5 6.5
      vertex 41.25 45.8 6.5
    endloop
  endfacet
  facet normal 0 0 1
    outer loop
      vertex 41.25 45.5 6.5
      vertex 15.75 45.8 6.5
      vertex 15.75 45.5 6.5
    endloop
  endfacet
  facet normal 0 0 1
    outer loop
      vertex 0 35.824894 6.5
      vertex 1.6999998 11.7751045 6.5
      vertex 1.6999998 35.824894 6.5
    endloop
  endfacet
  facet normal 0 0 1
    outer loop
      vertex 1.6999998 11.7751045 6.5
      vertex 0 35.824894 6.5
      vertex 0 11.7751045 6.5
    endloop
  endfacet
  facet normal 0 0 1
    outer loop
      vertex 11.7751045 47.5 6.5
      vertex 45.324894 46 6.5
      vertex 45.324894 47.5 6.5
    endloop
  endfacet
  facet normal 0 0 1
    outer loop
      vertex 45.324894 46 6.5
      vertex 11.7751045 47.5 6.5
      vertex 11.7751045 46 6.5
    endloop
  endfacet
  facet normal 0 0 1
    outer loop
      vertex 55.5 35.824894 6.5
      vertex 57 11.7751045 6.5
      vertex 57 35.824894 6.5
    endloop
  endfacet
  facet normal 0 0 1
    outer loop
      vertex 57 11.7751045 6.5
      vertex 55.5 35.824894 6.5
      vertex 55.5 11.7751045 6.5
    endloop
  endfacet
  facet normal -0.9238792 -0.38268423 0
    outer loop
      vertex 2.1393404 2.1393404 1.5
      vertex 1.6999998 3.1999998 10.799998
      vertex 1.6999998 3.1999998 1.5
    endloop
  endfacet
  facet normal -0.9238792 -0.38268423 0
    outer loop
      vertex 1.6999998 3.1999998 10.799998
      vertex 2.1393404 2.1393404 1.5
      vertex 2.1393404 2.1393404 10.799998
    endloop
  endfacet
  facet normal 0 1 0
    outer loop
      vertex 53.8 45.8 10.799998
      vertex 41.25 45.8 6.799999
      vertex 3.1999998 45.8 10.799998
    endloop
  endfacet
  facet normal 0 1 0
    outer loop
      vertex 53.8 45.8 10.799998
      vertex 41.25 45.8 6.5
      vertex 41.25 45.8 6.799999
    endloop
  endfacet
  facet normal 0 1 0
    outer loop
      vertex 41.25 45.8 6.5
      vertex 53.8 45.8 1.5
      vertex 15.75 45.8 6.5
    endloop
  endfacet
  facet normal 0 1 0
    outer loop
      vertex 53.8 45.8 1.5
      vertex 41.25 45.8 6.5
      vertex 53.8 45.8 10.799998
    endloop
  endfacet
  facet normal 0 1 0
    outer loop
      vertex 15.75 45.8 6.799999
      vertex 3.1999998 45.8 10.799998
      vertex 41.25 45.8 6.799999
    endloop
  endfacet
  facet normal 0 1 0
    outer loop
      vertex 15.75 45.8 6.5
      vertex 3.1999998 45.8 10.799998
      vertex 15.75 45.8 6.799999
    endloop
  endfacet
  facet normal 0 1 0
    outer loop
      vertex 15.75 45.8 6.5
      vertex 3.1999998 45.8 1.5
      vertex 3.1999998 45.8 10.799998
    endloop
  endfacet
  facet normal 0 1 0
    outer loop
      vertex 3.1999998 45.8 1.5
      vertex 15.75 45.8 6.5
      vertex 53.8 45.8 1.5
    endloop
  endfacet
  facet normal -0.38268423 -0.9238792 0
    outer loop
      vertex 2.1393404 2.1393404 1.5
      vertex 3.1999998 1.6999998 10.799998
      vertex 2.1393404 2.1393404 10.799998
    endloop
  endfacet
  facet normal -0.38268423 -0.9238792 0
    outer loop
      vertex 3.1999998 1.6999998 10.799998
      vertex 2.1393404 2.1393404 1.5
      vertex 3.1999998 1.6999998 1.5
    endloop
  endfacet
  facet normal 0.9238786 -0.38268566 0
    outer loop
      vertex 54.860657 2.1393404 10.799998
      vertex 55.3 3.1999998 1.5
      vertex 55.3 3.1999998 10.799998
    endloop
  endfacet
  facet normal 0.9238786 -0.38268566 0
    outer loop
      vertex 55.3 3.1999998 1.5
      vertex 54.860657 2.1393404 10.799998
      vertex 54.860657 2.1393404 1.5
    endloop
  endfacet
  facet normal 1 0 0
    outer loop
      vertex 55.3 3.1999998 10.799998
      vertex 55.3 44.3 1.5
      vertex 55.3 44.3 10.799998
    endloop
  endfacet
  facet normal 1 0 0
    outer loop
      vertex 55.3 44.3 1.5
      vertex 55.3 3.1999998 10.799998
      vertex 55.3 3.1999998 1.5
    endloop
  endfacet
  facet normal 0.38268623 0.9238784 0
    outer loop
      vertex 54.860657 45.360657 1.5
      vertex 53.8 45.8 10.799998
      vertex 54.860657 45.360657 10.799998
    endloop
  endfacet
  facet normal 0.38268623 0.9238784 0
    outer loop
      vertex 53.8 45.8 10.799998
      vertex 54.860657 45.360657 1.5
      vertex 53.8 45.8 1.5
    endloop
  endfacet
  facet normal 0.38268483 -0.92387897 0
    outer loop
      vertex 53.8 1.6999998 1.5
      vertex 54.860657 2.1393404 10.799998
      vertex 53.8 1.6999998 10.799998
    endloop
  endfacet
  facet normal 0.38268483 -0.92387897 0
    outer loop
      vertex 54.860657 2.1393404 10.799998
      vertex 53.8 1.6999998 1.5
      vertex 54.860657 2.1393404 1.5
    endloop
  endfacet
  facet normal 0 -1 0
    outer loop
      vertex 3.1999998 1.6999998 10.799998
      vertex 15.75 1.6999998 6.8
      vertex 53.8 1.6999998 10.799998
    endloop
  endfacet
  facet normal 0 -1 0
    outer loop
      vertex 3.1999998 1.6999998 10.799998
      vertex 11.7751045 1.6999998 6.5
      vertex 15.75 1.6999998 6.8
    endloop
  endfacet
  facet normal 0 -1 0
    outer loop
      vertex 3.1999998 1.6999998 10.799998
      vertex 11.351951 1.6999998 6.3716373
      vertex 11.7751045 1.6999998 6.5
    endloop
  endfacet
  facet normal 0 -1 0
    outer loop
      vertex 3.1999998 1.6999998 10.799998
      vertex 10.83329 1.6999998 6.094408
      vertex 11.351951 1.6999998 6.3716373
    endloop
  endfacet
  facet normal 0 -1 0
    outer loop
      vertex 3.1999998 1.6999998 10.799998
      vertex 10.37868 1.6999998 5.721319
      vertex 10.83329 1.6999998 6.094408
    endloop
  endfacet
  facet normal 0 -1 0
    outer loop
      vertex 3.1999998 1.6999998 10.799998
      vertex 10.005591 1.6999998 5.2667093
      vertex 10.37868 1.6999998 5.721319
    endloop
  endfacet
  facet normal 0 -1 0
    outer loop
      vertex 3.1999998 1.6999998 10.799998
      vertex 9.728362 1.6999998 4.748049
      vertex 10.005591 1.6999998 5.2667093
    endloop
  endfacet
  facet normal 0 -1 0
    outer loop
      vertex 3.1999998 1.6999998 1.5
      vertex 9.728362 1.6999998 4.748049
      vertex 3.1999998 1.6999998 10.799998
    endloop
  endfacet
  facet normal 0 -1 0
    outer loop
      vertex 9.728362 1.6999998 4.748049
      vertex 3.1999998 1.6999998 1.5
      vertex 9.557645 1.6999998 4.1852703
    endloop
  endfacet
  facet normal 0 -1 0
    outer loop
      vertex 9.557645 1.6999998 4.1852703
      vertex 3.1999998 1.6999998 1.5
      vertex 9.5 1.6999998 3.5999994
    endloop
  endfacet
  facet normal 0 -1 0
    outer loop
      vertex 9.5 1.6999998 3.5999994
      vertex 3.1999998 1.6999998 1.5
      vertex 9.5 1.6999998 1.5
    endloop
  endfacet
  facet normal 0 -1 0
    outer loop
      vertex 41.25 1.6999998 6.8
      vertex 53.8 1.6999998 10.799998
      vertex 15.75 1.6999998 6.8
    endloop
  endfacet
  facet normal 0 -1 0
    outer loop
      vertex 45.324894 1.6999998 6.5
      vertex 41.25 1.6999998 6.8
      vertex 41.25 1.6999998 6.5
    endloop
  endfacet
  facet normal 0 -1 0
    outer loop
      vertex 41.25 1.6999998 6.8
      vertex 45.324894 1.6999998 6.5
      vertex 53.8 1.6999998 10.799998
    endloop
  endfacet
  facet normal 0 -1 0
    outer loop
      vertex 45.748047 1.6999998 6.3716373
      vertex 53.8 1.6999998 10.799998
      vertex 45.324894 1.6999998 6.5
    endloop
  endfacet
  facet normal 0 -1 0
    outer loop
      vertex 46.26671 1.6999998 6.094408
      vertex 53.8 1.6999998 10.799998
      vertex 45.748047 1.6999998 6.3716373
    endloop
  endfacet
  facet normal 0 -1 0
    outer loop
      vertex 46.72132 1.6999998 5.721319
      vertex 53.8 1.6999998 10.799998
      vertex 46.26671 1.6999998 6.094408
    endloop
  endfacet
  facet normal 0 -1 0
    outer loop
      vertex 47.094406 1.6999998 5.2667093
      vertex 53.8 1.6999998 10.799998
      vertex 46.72132 1.6999998 5.721319
    endloop
  endfacet
  facet normal 0 -1 0
    outer loop
      vertex 47.371635 1.6999998 4.748049
      vertex 53.8 1.6999998 10.799998
      vertex 47.094406 1.6999998 5.2667093
    endloop
  endfacet
  facet normal 0 -1 0
    outer loop
      vertex 53.8 1.6999998 1.5
      vertex 47.371635 1.6999998 4.748049
      vertex 47.542355 1.6999998 4.1852703
    endloop
  endfacet
  facet normal 0 -1 0
    outer loop
      vertex 53.8 1.6999998 1.5
      vertex 47.542355 1.6999998 4.1852703
      vertex 47.6 1.6999998 3.5999994
    endloop
  endfacet
  facet normal 0 -1 0
    outer loop
      vertex 53.8 1.6999998 1.5
      vertex 47.6 1.6999998 3.5999994
      vertex 47.6 1.6999998 1.5
    endloop
  endfacet
  facet normal 0 -1 0
    outer loop
      vertex 47.371635 1.6999998 4.748049
      vertex 53.8 1.6999998 1.5
      vertex 53.8 1.6999998 10.799998
    endloop
  endfacet
  facet normal 0 -1 0
    outer loop
      vertex 15.75 1.6999998 6.8
      vertex 11.7751045 1.6999998 6.5
      vertex 15.75 1.6999998 6.5
    endloop
  endfacet
  facet normal -1 0 0
    outer loop
      vertex 1.6999998 9.5 1.5
      vertex 1.6999998 3.1999998 1.5
      vertex 1.6999998 9.5 3.5999994
    endloop
  endfacet
  facet normal -1 0 0
    outer loop
      vertex 1.6999998 38.1 3.5999994
      vertex 1.6999998 44.3 1.5
      vertex 1.6999998 38.1 1.5
    endloop
  endfacet
  facet normal -1 0 0
    outer loop
      vertex 1.6999998 38.042355 4.1852703
      vertex 1.6999998 44.3 1.5
      vertex 1.6999998 38.1 3.5999994
    endloop
  endfacet
  facet normal -1 0 0
    outer loop
      vertex 1.6999998 37.871635 4.748049
      vertex 1.6999998 44.3 1.5
      vertex 1.6999998 38.042355 4.1852703
    endloop
  endfacet
  facet normal -1 0 0
    outer loop
      vertex 1.6999998 44.3 1.5
      vertex 1.6999998 37.871635 4.748049
      vertex 1.6999998 44.3 10.799998
    endloop
  endfacet
  facet normal -1 0 0
    outer loop
      vertex 1.6999998 37.594406 5.2667093
      vertex 1.6999998 44.3 10.799998
      vertex 1.6999998 37.871635 4.748049
    endloop
  endfacet
  facet normal -1 0 0
    outer loop
      vertex 1.6999998 37.22132 5.721319
      vertex 1.6999998 44.3 10.799998
      vertex 1.6999998 37.594406 5.2667093
    endloop
  endfacet
  facet normal -1 0 0
    outer loop
      vertex 1.6999998 36.76671 6.094408
      vertex 1.6999998 44.3 10.799998
      vertex 1.6999998 37.22132 5.721319
    endloop
  endfacet
  facet normal -1 0 0
    outer loop
      vertex 1.6999998 36.248047 6.3716373
      vertex 1.6999998 44.3 10.799998
      vertex 1.6999998 36.76671 6.094408
    endloop
  endfacet
  facet normal -1 0 0
    outer loop
      vertex 1.6999998 35.824894 6.5
      vertex 1.6999998 44.3 10.799998
      vertex 1.6999998 36.248047 6.3716373
    endloop
  endfacet
  facet normal -1 0 0
    outer loop
      vertex 1.6999998 11.7751045 6.5
      vertex 1.6999998 44.3 10.799998
      vertex 1.6999998 35.824894 6.5
    endloop
  endfacet
  facet normal -1 0 0
    outer loop
      vertex 1.6999998 3.1999998 1.5
      vertex 1.6999998 9.557645 4.1852703
      vertex 1.6999998 9.5 3.5999994
    endloop
  endfacet
  facet normal -1 0 0
    outer loop
      vertex 1.6999998 3.1999998 1.5
      vertex 1.6999998 9.728362 4.748049
      vertex 1.6999998 9.557645 4.1852703
    endloop
  endfacet
  facet normal -1 0 0
    outer loop
      vertex 1.6999998 3.1999998 10.799998
      vertex 1.6999998 9.728362 4.748049
      vertex 1.6999998 3.1999998 1.5
    endloop
  endfacet
  facet normal -1 0 0
    outer loop
      vertex 1.6999998 9.728362 4.748049
      vertex 1.6999998 3.1999998 10.799998
      vertex 1.6999998 10.005591 5.2667093
    endloop
  endfacet
  facet normal -1 0 0
    outer loop
      vertex 1.6999998 10.005591 5.2667093
      vertex 1.6999998 3.1999998 10.799998
      vertex 1.6999998 10.37868 5.721319
    endloop
  endfacet
  facet normal -1 0 0
    outer loop
      vertex 1.6999998 11.7751045 6.5
      vertex 1.6999998 3.1999998 10.799998
      vertex 1.6999998 44.3 10.799998
    endloop
  endfacet
  facet normal -1 0 0
    outer loop
      vertex 1.6999998 11.351951 6.3716373
      vertex 1.6999998 3.1999998 10.799998
      vertex 1.6999998 11.7751045 6.5
    endloop
  endfacet
  facet normal -1 0 0
    outer loop
      vertex 1.6999998 10.83329 6.094408
      vertex 1.6999998 3.1999998 10.799998
      vertex 1.6999998 11.351951 6.3716373
    endloop
  endfacet
  facet normal -1 0 0
    outer loop
      vertex 1.6999998 10.37868 5.721319
      vertex 1.6999998 3.1999998 10.799998
      vertex 1.6999998 10.83329 6.094408
    endloop
  endfacet
  facet normal -0.92387897 0.38268483 0
    outer loop
      vertex 1.6999998 44.3 1.5
      vertex 2.1393404 45.360657 10.799998
      vertex 2.1393404 45.360657 1.5
    endloop
  endfacet
  facet normal -0.92387897 0.38268483 0
    outer loop
      vertex 2.1393404 45.360657 10.799998
      vertex 1.6999998 44.3 1.5
      vertex 1.6999998 44.3 10.799998
    endloop
  endfacet
  facet normal -0.38268566 0.9238786 0
    outer loop
      vertex 3.1999998 45.8 1.5
      vertex 2.1393404 45.360657 10.799998
      vertex 3.1999998 45.8 10.799998
    endloop
  endfacet
  facet normal -0.38268566 0.9238786 0
    outer loop
      vertex 2.1393404 45.360657 10.799998
      vertex 3.1999998 45.8 1.5
      vertex 2.1393404 45.360657 1.5
    endloop
  endfacet
  facet normal 0.9238784 0.38268623 0
    outer loop
      vertex 55.3 44.3 10.799998
      vertex 54.860657 45.360657 1.5
      vertex 54.860657 45.360657 10.799998
    endloop
  endfacet
  facet normal 0.9238784 0.38268623 0
    outer loop
      vertex 54.860657 45.360657 1.5
      vertex 55.3 44.3 10.799998
      vertex 55.3 44.3 1.5
    endloop
  endfacet
  facet normal -1 0 0
    outer loop
      vertex 41.25 1.6999998 6.8
      vertex 41.25 2 6.5
      vertex 41.25 1.6999998 6.5
    endloop
  endfacet
  facet normal 1 0 0
    outer loop
      vertex 15.75 2 6.5
      vertex 15.75 1.6999998 6.8
      vertex 15.75 1.6999998 6.5
    endloop
  endfacet
  facet normal 0 -0.70710677 -0.70710677
    outer loop
      vertex 15.75 2 6.5
      vertex 41.25 1.6999998 6.8
      vertex 15.75 1.6999998 6.8
    endloop
  endfacet
  facet normal 0 -0.70710677 -0.70710677
    outer loop
      vertex 41.25 1.6999998 6.8
      vertex 15.75 2 6.5
      vertex 41.25 2 6.5
    endloop
  endfacet
  facet normal 1 0 0
    outer loop
      vertex 15.75 45.8 6.5
      vertex 15.75 45.8 6.799999
      vertex 15.75 45.5 6.5
    endloop
  endfacet
  facet normal 0 0.70710677 -0.70710677
    outer loop
      vertex 41.25 45.5 6.5
      vertex 15.75 45.8 6.799999
      vertex 41.25 45.8 6.799999
    endloop
  endfacet
  facet normal 0 0.70710677 -0.70710677
    outer loop
      vertex 15.75 45.8 6.799999
      vertex 41.25 45.5 6.5
      vertex 15.75 45.5 6.5
    endloop
  endfacet
  facet normal -1 0 0
    outer loop
      vertex 41.25 45.8 6.799999
      vertex 41.25 45.8 6.5
      vertex 41.25 45.5 6.5
    endloop
  endfacet
  facet normal 0 0 1
    outer loop
      vertex 0 9.5 1.5
      vertex 1.6999998 3.1999998 1.5
      vertex 1.6999998 9.5 1.5
    endloop
  endfacet
  facet normal 0 0 1
    outer loop
      vertex 0.40192413 1.5 1.5
      vertex 1.6999998 3.1999998 1.5
      vertex 0 3 1.5
    endloop
  endfacet
  facet normal 0 0 1
    outer loop
      vertex 1.6999998 3.1999998 1.5
      vertex 0 9.5 1.5
      vertex 0 3 1.5
    endloop
  endfacet
  facet normal 0 0 1
    outer loop
      vertex 1.6999998 3.1999998 1.5
      vertex 0.40192413 1.5 1.5
      vertex 1.5 0.40192413 1.5
    endloop
  endfacet
  facet normal 0 0 1
    outer loop
      vertex 3.1999998 1.6999998 1.5
      vertex 9.5 0 1.5
      vertex 9.5 1.6999998 1.5
    endloop
  endfacet
  facet normal 0 0 1
    outer loop
      vertex 3.1999998 1.6999998 1.5
      vertex 3 0 1.5
      vertex 9.5 0 1.5
    endloop
  endfacet
  facet normal 0 0 1
    outer loop
      vertex 1.5 0.40192413 1.5
      vertex 3.1999998 1.6999998 1.5
      vertex 2.1393404 2.1393404 1.5
    endloop
  endfacet
  facet normal 0 0 1
    outer loop
      vertex 1.5 0.40192413 1.5
      vertex 2.1393404 2.1393404 1.5
      vertex 1.6999998 3.1999998 1.5
    endloop
  endfacet
  facet normal 0 0 1
    outer loop
      vertex 3.1999998 1.6999998 1.5
      vertex 1.5 0.40192413 1.5
      vertex 3 0 1.5
    endloop
  endfacet
  facet normal 0 0 1
    outer loop
      vertex 9.5 47.5 1.5
      vertex 3.1999998 45.8 1.5
      vertex 9.5 46 1.5
    endloop
  endfacet
  facet normal 0 0 1
    outer loop
      vertex 3 47.5 1.5
      vertex 3.1999998 45.8 1.5
      vertex 9.5 47.5 1.5
    endloop
  endfacet
  facet normal 0 0 1
    outer loop
      vertex 1.5 47.098076 1.5
      vertex 3.1999998 45.8 1.5
      vertex 3 47.5 1.5
    endloop
  endfacet
  facet normal 0 0 1
    outer loop
      vertex 3.1999998 45.8 1.5
      vertex 1.5 47.098076 1.5
      vertex 2.1393404 45.360657 1.5
    endloop
  endfacet
  facet normal 0 0 1
    outer loop
      vertex 0.40192413 46 1.5
      vertex 2.1393404 45.360657 1.5
      vertex 1.5 47.098076 1.5
    endloop
  endfacet
  facet normal 0 0 1
    outer loop
      vertex 2.1393404 45.360657 1.5
      vertex 0.40192413 46 1.5
      vertex 1.6999998 44.3 1.5
    endloop
  endfacet
  facet normal 0 0 1
    outer loop
      vertex 1.6999998 44.3 1.5
      vertex 0.40192413 46 1.5
      vertex 0 44.5 1.5
    endloop
  endfacet
  facet normal 0 0 1
    outer loop
      vertex 0 38.1 1.5
      vertex 1.6999998 44.3 1.5
      vertex 0 44.5 1.5
    endloop
  endfacet
  facet normal 0 0 1
    outer loop
      vertex 1.6999998 44.3 1.5
      vertex 0 38.1 1.5
      vertex 1.6999998 38.1 1.5
    endloop
  endfacet
  facet normal 0 0 1
    outer loop
      vertex 55.3 44.3 1.5
      vertex 57 44.5 1.5
      vertex 56.598076 46 1.5
    endloop
  endfacet
  facet normal 0 0 1
    outer loop
      vertex 54.860657 45.360657 1.5
      vertex 56.598076 46 1.5
      vertex 55.5 47.098076 1.5
    endloop
  endfacet
  facet normal 0 0 1
    outer loop
      vertex 57 44.5 1.5
      vertex 55.3 44.3 1.5
      vertex 57 38.1 1.5
    endloop
  endfacet
  facet normal 0 0 1
    outer loop
      vertex 57 38.1 1.5
      vertex 55.3 44.3 1.5
      vertex 55.5 38.1 1.5
    endloop
  endfacet
  facet normal 0 0 1
    outer loop
      vertex 55.5 38.1 1.5
      vertex 55.3 44.3 1.5
      vertex 55.5 9.5 1.5
    endloop
  endfacet
  facet normal 0 0 1
    outer loop
      vertex 55.3 3.1999998 1.5
      vertex 55.5 9.5 1.5
      vertex 55.3 44.3 1.5
    endloop
  endfacet
  facet normal 0 0 1
    outer loop
      vertex 56.598076 46 1.5
      vertex 54.860657 45.360657 1.5
      vertex 55.3 44.3 1.5
    endloop
  endfacet
  facet normal 0 0 1
    outer loop
      vertex 53.8 45.8 1.5
      vertex 55.5 47.098076 1.5
      vertex 54 47.5 1.5
    endloop
  endfacet
  facet normal 0 0 1
    outer loop
      vertex 55.5 47.098076 1.5
      vertex 53.8 45.8 1.5
      vertex 54.860657 45.360657 1.5
    endloop
  endfacet
  facet normal 0 0 1
    outer loop
      vertex 47.6 47.5 1.5
      vertex 53.8 45.8 1.5
      vertex 54 47.5 1.5
    endloop
  endfacet
  facet normal 0 0 1
    outer loop
      vertex 47.6 46 1.5
      vertex 53.8 45.8 1.5
      vertex 47.6 47.5 1.5
    endloop
  endfacet
  facet normal 0 0 1
    outer loop
      vertex 9.5 46 1.5
      vertex 53.8 45.8 1.5
      vertex 47.6 46 1.5
    endloop
  endfacet
  facet normal 0 0 1
    outer loop
      vertex 53.8 45.8 1.5
      vertex 9.5 46 1.5
      vertex 3.1999998 45.8 1.5
    endloop
  endfacet
  facet normal 0 0 1
    outer loop
      vertex 55.5 9.5 1.5
      vertex 57 3 1.5
      vertex 57 9.5 1.5
    endloop
  endfacet
  facet normal 0 0 1
    outer loop
      vertex 55.5 0.40192413 1.5
      vertex 57 3 1.5
      vertex 55.5 9.5 1.5
    endloop
  endfacet
  facet normal 0 0 1
    outer loop
      vertex 57 3 1.5
      vertex 55.5 0.40192413 1.5
      vertex 56.598076 1.5 1.5
    endloop
  endfacet
  facet normal 0 0 1
    outer loop
      vertex 55.5 9.5 1.5
      vertex 55.3 3.1999998 1.5
      vertex 55.5 0.40192413 1.5
    endloop
  endfacet
  facet normal 0 0 1
    outer loop
      vertex 54.860657 2.1393404 1.5
      vertex 55.5 0.40192413 1.5
      vertex 55.3 3.1999998 1.5
    endloop
  endfacet
  facet normal 0 0 1
    outer loop
      vertex 53.8 1.6999998 1.5
      vertex 55.5 0.40192413 1.5
      vertex 54.860657 2.1393404 1.5
    endloop
  endfacet
  facet normal 0 0 1
    outer loop
      vertex 55.5 0.40192413 1.5
      vertex 53.8 1.6999998 1.5
      vertex 54 0 1.5
    endloop
  endfacet
  facet normal 0 0 1
    outer loop
      vertex 47.6 0 1.5
      vertex 53.8 1.6999998 1.5
      vertex 47.6 1.6999998 1.5
    endloop
  endfacet
  facet normal 0 0 1
    outer loop
      vertex 53.8 1.6999998 1.5
      vertex 47.6 0 1.5
      vertex 54 0 1.5
    endloop
  endfacet
  facet normal -0.88192165 0 0.47139603
    outer loop
      vertex 9.728362 0 4.748049
      vertex 10.005591 1.6999998 5.2667093
      vertex 9.728362 1.6999998 4.748049
    endloop
  endfacet
  facet normal -0.88192165 0 0.47139603
    outer loop
      vertex 10.005591 1.6999998 5.2667093
      vertex 9.728362 0 4.748049
      vertex 10.005591 0 5.2667093
    endloop
  endfacet
  facet normal 1 0 0
    outer loop
      vertex 47.6 0 3.5999994
      vertex 47.6 1.6999998 1.5
      vertex 47.6 1.6999998 3.5999994
    endloop
  endfacet
  facet normal 1 0 0
    outer loop
      vertex 47.6 1.6999998 1.5
      vertex 47.6 0 3.5999994
      vertex 47.6 0 1.5
    endloop
  endfacet
  facet normal 0.77301353 0 0.6343896
    outer loop
      vertex 46.72132 0 5.721319
      vertex 47.094406 1.6999998 5.2667093
      vertex 46.72132 1.6999998 5.721319
    endloop
  endfacet
  facet normal 0.77301353 0 0.6343896
    outer loop
      vertex 47.094406 1.6999998 5.2667093
      vertex 46.72132 0 5.721319
      vertex 47.094406 0 5.2667093
    endloop
  endfacet
  facet normal -0.63439345 0 0.7730103
    outer loop
      vertex 10.37868 1.6999998 5.721319
      vertex 10.83329 0 6.094408
      vertex 10.83329 1.6999998 6.094408
    endloop
  endfacet
  facet normal -0.63439345 0 0.7730103
    outer loop
      vertex 10.83329 0 6.094408
      vertex 10.37868 1.6999998 5.721319
      vertex 10.37868 0 5.721319
    endloop
  endfacet
  facet normal 0.88192165 0 0.47139603
    outer loop
      vertex 47.094406 0 5.2667093
      vertex 47.371635 1.6999998 4.748049
      vertex 47.094406 1.6999998 5.2667093
    endloop
  endfacet
  facet normal 0.88192165 0 0.47139603
    outer loop
      vertex 47.371635 1.6999998 4.748049
      vertex 47.094406 0 5.2667093
      vertex 47.371635 0 4.748049
    endloop
  endfacet
  facet normal 0.29028597 0 0.95693994
    outer loop
      vertex 45.324894 1.6999998 6.5
      vertex 45.748047 0 6.3716373
      vertex 45.748047 1.6999998 6.3716373
    endloop
  endfacet
  facet normal 0.29028597 0 0.95693994
    outer loop
      vertex 45.748047 0 6.3716373
      vertex 45.324894 1.6999998 6.5
      vertex 45.324894 0 6.5
    endloop
  endfacet
  facet normal -0.7730103 0 0.63439345
    outer loop
      vertex 10.005591 0 5.2667093
      vertex 10.37868 1.6999998 5.721319
      vertex 10.005591 1.6999998 5.2667093
    endloop
  endfacet
  facet normal -0.7730103 0 0.63439345
    outer loop
      vertex 10.37868 1.6999998 5.721319
      vertex 10.005591 0 5.2667093
      vertex 10.37868 0 5.721319
    endloop
  endfacet
  facet normal 0.63439107 0 0.7730123
    outer loop
      vertex 46.26671 1.6999998 6.094408
      vertex 46.72132 0 5.721319
      vertex 46.72132 1.6999998 5.721319
    endloop
  endfacet
  facet normal 0.63439107 0 0.7730123
    outer loop
      vertex 46.72132 0 5.721319
      vertex 46.26671 1.6999998 6.094408
      vertex 46.26671 0 6.094408
    endloop
  endfacet
  facet normal 0.9951848 0 0.0980167
    outer loop
      vertex 47.542355 0 4.1852703
      vertex 47.6 1.6999998 3.5999994
      vertex 47.542355 1.6999998 4.1852703
    endloop
  endfacet
  facet normal 0.9951848 0 0.0980167
    outer loop
      vertex 47.6 1.6999998 3.5999994
      vertex 47.542355 0 4.1852703
      vertex 47.6 0 3.5999994
    endloop
  endfacet
  facet normal -0.9951846 0 0.09801831
    outer loop
      vertex 9.5 0 3.5999994
      vertex 9.557645 1.6999998 4.1852703
      vertex 9.5 1.6999998 3.5999994
    endloop
  endfacet
  facet normal -0.9951846 0 0.09801831
    outer loop
      vertex 9.557645 1.6999998 4.1852703
      vertex 9.5 0 3.5999994
      vertex 9.557645 0 4.1852703
    endloop
  endfacet
  facet normal 0.95693934 0 0.29028803
    outer loop
      vertex 47.371635 0 4.748049
      vertex 47.542355 1.6999998 4.1852703
      vertex 47.371635 1.6999998 4.748049
    endloop
  endfacet
  facet normal 0.95693934 0 0.29028803
    outer loop
      vertex 47.542355 1.6999998 4.1852703
      vertex 47.371635 0 4.748049
      vertex 47.542355 0 4.1852703
    endloop
  endfacet
  facet normal 0 -1 0
    outer loop
      vertex 3 0 0
      vertex 9.5 0 1.5
      vertex 3 0 1.5
    endloop
  endfacet
  facet normal 0 -1 0
    outer loop
      vertex 9.5 0 1.5
      vertex 3 0 0
      vertex 47.6 0 1.5
    endloop
  endfacet
  facet normal 0 -1 0
    outer loop
      vertex 54 0 0
      vertex 47.6 0 1.5
      vertex 3 0 0
    endloop
  endfacet
  facet normal 0 -1 0
    outer loop
      vertex 47.6 0 1.5
      vertex 54 0 0
      vertex 54 0 1.5
    endloop
  endfacet
  facet normal 0 -1 0
    outer loop
      vertex 10.83329 0 6.094408
      vertex 11.7751045 0 6.5
      vertex 11.351951 0 6.3716373
    endloop
  endfacet
  facet normal 0 -1 0
    outer loop
      vertex 11.7751045 0 6.5
      vertex 9.5 0 1.5
      vertex 45.324894 0 6.5
    endloop
  endfacet
  facet normal 0 -1 0
    outer loop
      vertex 11.7751045 0 6.5
      vertex 10.83329 0 6.094408
      vertex 9.5 0 3.5999994
    endloop
  endfacet
  facet normal 0 -1 0
    outer loop
      vertex 47.6 0 1.5
      vertex 45.324894 0 6.5
      vertex 9.5 0 1.5
    endloop
  endfacet
  facet normal 0 -1 0
    outer loop
      vertex 9.5 0 3.5999994
      vertex 10.83329 0 6.094408
      vertex 10.37868 0 5.721319
    endloop
  endfacet
  facet normal 0 -1 0
    outer loop
      vertex 47.6 0 3.5999994
      vertex 45.324894 0 6.5
      vertex 47.6 0 1.5
    endloop
  endfacet
  facet normal 0 -1 0
    outer loop
      vertex 9.5 0 3.5999994
      vertex 10.37868 0 5.721319
      vertex 10.005591 0 5.2667093
    endloop
  endfacet
  facet normal 0 -1 0
    outer loop
      vertex 46.26671 0 6.094408
      vertex 45.324894 0 6.5
      vertex 47.6 0 3.5999994
    endloop
  endfacet
  facet normal 0 -1 0
    outer loop
      vertex 9.5 0 3.5999994
      vertex 10.005591 0 5.2667093
      vertex 9.728362 0 4.748049
    endloop
  endfacet
  facet normal 0 -1 0
    outer loop
      vertex 45.324894 0 6.5
      vertex 46.26671 0 6.094408
      vertex 45.748047 0 6.3716373
    endloop
  endfacet
  facet normal 0 -1 0
    outer loop
      vertex 9.5 0 3.5999994
      vertex 9.728362 0 4.748049
      vertex 9.557645 0 4.1852703
    endloop
  endfacet
  facet normal 0 -1 0
    outer loop
      vertex 46.26671 0 6.094408
      vertex 47.6 0 3.5999994
      vertex 46.72132 0 5.721319
    endloop
  endfacet
  facet normal 0 -1 0
    outer loop
      vertex 11.7751045 0 6.5
      vertex 9.5 0 3.5999994
      vertex 9.5 0 1.5
    endloop
  endfacet
  facet normal 0 -1 0
    outer loop
      vertex 46.72132 0 5.721319
      vertex 47.6 0 3.5999994
      vertex 47.094406 0 5.2667093
    endloop
  endfacet
  facet normal 0 -1 0
    outer loop
      vertex 47.094406 0 5.2667093
      vertex 47.6 0 3.5999994
      vertex 47.371635 0 4.748049
    endloop
  endfacet
  facet normal 0 -1 0
    outer loop
      vertex 47.371635 0 4.748049
      vertex 47.6 0 3.5999994
      vertex 47.542355 0 4.1852703
    endloop
  endfacet
  facet normal -0.95694023 0 0.29028508
    outer loop
      vertex 9.557645 0 4.1852703
      vertex 9.728362 1.6999998 4.748049
      vertex 9.557645 1.6999998 4.1852703
    endloop
  endfacet
  facet normal -0.95694023 0 0.29028508
    outer loop
      vertex 9.728362 1.6999998 4.748049
      vertex 9.557645 0 4.1852703
      vertex 9.728362 0 4.748049
    endloop
  endfacet
  facet normal 0.47139537 0 0.881922
    outer loop
      vertex 45.748047 1.6999998 6.3716373
      vertex 46.26671 0 6.094408
      vertex 46.26671 1.6999998 6.094408
    endloop
  endfacet
  facet normal 0.47139537 0 0.881922
    outer loop
      vertex 46.26671 0 6.094408
      vertex 45.748047 1.6999998 6.3716373
      vertex 45.748047 0 6.3716373
    endloop
  endfacet
  facet normal -1 0 0
    outer loop
      vertex 9.5 0 1.5
      vertex 9.5 1.6999998 3.5999994
      vertex 9.5 1.6999998 1.5
    endloop
  endfacet
  facet normal -1 0 0
    outer loop
      vertex 9.5 1.6999998 3.5999994
      vertex 9.5 0 1.5
      vertex 9.5 0 3.5999994
    endloop
  endfacet
  facet normal -0.47139603 0 0.88192165
    outer loop
      vertex 10.83329 1.6999998 6.094408
      vertex 11.351951 0 6.3716373
      vertex 11.351951 1.6999998 6.3716373
    endloop
  endfacet
  facet normal -0.47139603 0 0.88192165
    outer loop
      vertex 11.351951 0 6.3716373
      vertex 10.83329 1.6999998 6.094408
      vertex 10.83329 0 6.094408
    endloop
  endfacet
  facet normal -0.29028535 0 0.9569401
    outer loop
      vertex 11.351951 1.6999998 6.3716373
      vertex 11.7751045 0 6.5
      vertex 11.7751045 1.6999998 6.5
    endloop
  endfacet
  facet normal -0.29028535 0 0.9569401
    outer loop
      vertex 11.7751045 0 6.5
      vertex 11.351951 1.6999998 6.3716373
      vertex 11.351951 0 6.3716373
    endloop
  endfacet
  facet normal -0.88192165 0 0.47139603
    outer loop
      vertex 9.728362 46 4.748049
      vertex 10.005591 47.5 5.2667093
      vertex 9.728362 47.5 4.748049
    endloop
  endfacet
  facet normal -0.88192165 0 0.47139603
    outer loop
      vertex 10.005591 47.5 5.2667093
      vertex 9.728362 46 4.748049
      vertex 10.005591 46 5.2667093
    endloop
  endfacet
  facet normal 1 0 0
    outer loop
      vertex 47.6 46 3.5999994
      vertex 47.6 47.5 1.5
      vertex 47.6 47.5 3.5999994
    endloop
  endfacet
  facet normal 1 0 0
    outer loop
      vertex 47.6 47.5 1.5
      vertex 47.6 46 3.5999994
      vertex 47.6 46 1.5
    endloop
  endfacet
  facet normal 0.77301353 0 0.6343896
    outer loop
      vertex 46.72132 46 5.721319
      vertex 47.094406 47.5 5.2667093
      vertex 46.72132 47.5 5.721319
    endloop
  endfacet
  facet normal 0.77301353 0 0.6343896
    outer loop
      vertex 47.094406 47.5 5.2667093
      vertex 46.72132 46 5.721319
      vertex 47.094406 46 5.2667093
    endloop
  endfacet
  facet normal -1 0 0
    outer loop
      vertex 9.5 46 1.5
      vertex 9.5 47.5 3.5999994
      vertex 9.5 47.5 1.5
    endloop
  endfacet
  facet normal -1 0 0
    outer loop
      vertex 9.5 47.5 3.5999994
      vertex 9.5 46 1.5
      vertex 9.5 46 3.5999994
    endloop
  endfacet
  facet normal 0.95693934 0 0.29028803
    outer loop
      vertex 47.371635 46 4.748049
      vertex 47.542355 47.5 4.1852703
      vertex 47.371635 47.5 4.748049
    endloop
  endfacet
  facet normal 0.95693934 0 0.29028803
    outer loop
      vertex 47.542355 47.5 4.1852703
      vertex 47.371635 46 4.748049
      vertex 47.542355 46 4.1852703
    endloop
  endfacet
  facet normal -0.63439345 0 0.7730103
    outer loop
      vertex 10.37868 47.5 5.721319
      vertex 10.83329 46 6.094408
      vertex 10.83329 47.5 6.094408
    endloop
  endfacet
  facet normal -0.63439345 0 0.7730103
    outer loop
      vertex 10.83329 46 6.094408
      vertex 10.37868 47.5 5.721319
      vertex 10.37868 46 5.721319
    endloop
  endfacet
  facet normal 0.88192165 0 0.47139603
    outer loop
      vertex 47.094406 46 5.2667093
      vertex 47.371635 47.5 4.748049
      vertex 47.094406 47.5 5.2667093
    endloop
  endfacet
  facet normal 0.88192165 0 0.47139603
    outer loop
      vertex 47.371635 47.5 4.748049
      vertex 47.094406 46 5.2667093
      vertex 47.371635 46 4.748049
    endloop
  endfacet
  facet normal 0.29028597 0 0.95693994
    outer loop
      vertex 45.324894 47.5 6.5
      vertex 45.748047 46 6.3716373
      vertex 45.748047 47.5 6.3716373
    endloop
  endfacet
  facet normal 0.29028597 0 0.95693994
    outer loop
      vertex 45.748047 46 6.3716373
      vertex 45.324894 47.5 6.5
      vertex 45.324894 46 6.5
    endloop
  endfacet
  facet normal -0.7730103 0 0.63439345
    outer loop
      vertex 10.005591 46 5.2667093
      vertex 10.37868 47.5 5.721319
      vertex 10.005591 47.5 5.2667093
    endloop
  endfacet
  facet normal -0.7730103 0 0.63439345
    outer loop
      vertex 10.37868 47.5 5.721319
      vertex 10.005591 46 5.2667093
      vertex 10.37868 46 5.721319
    endloop
  endfacet
  facet normal 0.63439107 0 0.7730123
    outer loop
      vertex 46.26671 47.5 6.094408
      vertex 46.72132 46 5.721319
      vertex 46.72132 47.5 5.721319
    endloop
  endfacet
  facet normal 0.63439107 0 0.7730123
    outer loop
      vertex 46.72132 46 5.721319
      vertex 46.26671 47.5 6.094408
      vertex 46.26671 46 6.094408
    endloop
  endfacet
  facet normal 0.9951848 0 0.0980167
    outer loop
      vertex 47.542355 46 4.1852703
      vertex 47.6 47.5 3.5999994
      vertex 47.542355 47.5 4.1852703
    endloop
  endfacet
  facet normal 0.9951848 0 0.0980167
    outer loop
      vertex 47.6 47.5 3.5999994
      vertex 47.542355 46 4.1852703
      vertex 47.6 46 3.5999994
    endloop
  endfacet
  facet normal -0.9951846 0 0.09801831
    outer loop
      vertex 9.5 46 3.5999994
      vertex 9.557645 47.5 4.1852703
      vertex 9.5 47.5 3.5999994
    endloop
  endfacet
  facet normal -0.9951846 0 0.09801831
    outer loop
      vertex 9.557645 47.5 4.1852703
      vertex 9.5 46 3.5999994
      vertex 9.557645 46 4.1852703
    endloop
  endfacet
  facet normal 0 -1 0
    outer loop
      vertex 10.83329 46 6.094408
      vertex 11.7751045 46 6.5
      vertex 11.351951 46 6.3716373
    endloop
  endfacet
  facet normal 0 -1 0
    outer loop
      vertex 11.7751045 46 6.5
      vertex 9.5 46 1.5
      vertex 45.324894 46 6.5
    endloop
  endfacet
  facet normal 0 -1 0
    outer loop
      vertex 11.7751045 46 6.5
      vertex 10.83329 46 6.094408
      vertex 9.5 46 3.5999994
    endloop
  endfacet
  facet normal 0 -1 0
    outer loop
      vertex 47.6 46 1.5
      vertex 45.324894 46 6.5
      vertex 9.5 46 1.5
    endloop
  endfacet
  facet normal 0 -1 0
    outer loop
      vertex 9.5 46 3.5999994
      vertex 10.83329 46 6.094408
      vertex 10.37868 46 5.721319
    endloop
  endfacet
  facet normal 0 -1 0
    outer loop
      vertex 47.6 46 3.5999994
      vertex 45.324894 46 6.5
      vertex 47.6 46 1.5
    endloop
  endfacet
  facet normal 0 -1 0
    outer loop
      vertex 9.5 46 3.5999994
      vertex 10.37868 46 5.721319
      vertex 10.005591 46 5.2667093
    endloop
  endfacet
  facet normal 0 -1 0
    outer loop
      vertex 46.26671 46 6.094408
      vertex 45.324894 46 6.5
      vertex 47.6 46 3.5999994
    endloop
  endfacet
  facet normal 0 -1 0
    outer loop
      vertex 9.5 46 3.5999994
      vertex 10.005591 46 5.2667093
      vertex 9.728362 46 4.748049
    endloop
  endfacet
  facet normal 0 -1 0
    outer loop
      vertex 45.324894 46 6.5
      vertex 46.26671 46 6.094408
      vertex 45.748047 46 6.3716373
    endloop
  endfacet
  facet normal 0 -1 0
    outer loop
      vertex 9.5 46 3.5999994
      vertex 9.728362 46 4.748049
      vertex 9.557645 46 4.1852703
    endloop
  endfacet
  facet normal 0 -1 0
    outer loop
      vertex 46.26671 46 6.094408
      vertex 47.6 46 3.5999994
      vertex 46.72132 46 5.721319
    endloop
  endfacet
  facet normal 0 -1 0
    outer loop
      vertex 11.7751045 46 6.5
      vertex 9.5 46 3.5999994
      vertex 9.5 46 1.5
    endloop
  endfacet
  facet normal 0 -1 0
    outer loop
      vertex 46.72132 46 5.721319
      vertex 47.6 46 3.5999994
      vertex 47.094406 46 5.2667093
    endloop
  endfacet
  facet normal 0 -1 0
    outer loop
      vertex 47.094406 46 5.2667093
      vertex 47.6 46 3.5999994
      vertex 47.371635 46 4.748049
    endloop
  endfacet
  facet normal 0 -1 0
    outer loop
      vertex 47.371635 46 4.748049
      vertex 47.6 46 3.5999994
      vertex 47.542355 46 4.1852703
    endloop
  endfacet
  facet normal -0.95694023 0 0.29028508
    outer loop
      vertex 9.557645 46 4.1852703
      vertex 9.728362 47.5 4.748049
      vertex 9.557645 47.5 4.1852703
    endloop
  endfacet
  facet normal -0.95694023 0 0.29028508
    outer loop
      vertex 9.728362 47.5 4.748049
      vertex 9.557645 46 4.1852703
      vertex 9.728362 46 4.748049
    endloop
  endfacet
  facet normal 0.47139537 0 0.881922
    outer loop
      vertex 45.748047 47.5 6.3716373
      vertex 46.26671 46 6.094408
      vertex 46.26671 47.5 6.094408
    endloop
  endfacet
  facet normal 0.47139537 0 0.881922
    outer loop
      vertex 46.26671 46 6.094408
      vertex 45.748047 47.5 6.3716373
      vertex 45.748047 46 6.3716373
    endloop
  endfacet
  facet normal -0.47139603 0 0.88192165
    outer loop
      vertex 10.83329 47.5 6.094408
      vertex 11.351951 46 6.3716373
      vertex 11.351951 47.5 6.3716373
    endloop
  endfacet
  facet normal -0.47139603 0 0.88192165
    outer loop
      vertex 11.351951 46 6.3716373
      vertex 10.83329 47.5 6.094408
      vertex 10.83329 46 6.094408
    endloop
  endfacet
  facet normal -0.29028535 0 0.9569401
    outer loop
      vertex 11.351951 47.5 6.3716373
      vertex 11.7751045 46 6.5
      vertex 11.7751045 47.5 6.5
    endloop
  endfacet
  facet normal -0.29028535 0 0.9569401
    outer loop
      vertex 11.7751045 46 6.5
      vertex 11.351951 47.5 6.3716373
      vertex 11.351951 46 6.3716373
    endloop
  endfacet
  facet normal 0 -0.29028535 0.9569401
    outer loop
      vertex 0 11.7751045 6.5
      vertex 1.6999998 11.351951 6.3716373
      vertex 1.6999998 11.7751045 6.5
    endloop
  endfacet
  facet normal 0 -0.29028535 0.9569401
    outer loop
      vertex 1.6999998 11.351951 6.3716373
      vertex 0 11.7751045 6.5
      vertex 0 11.351951 6.3716373
    endloop
  endfacet
  facet normal 0 -0.95694023 0.29028508
    outer loop
      vertex 0 9.557645 4.1852703
      vertex 1.6999998 9.728362 4.748049
      vertex 0 9.728362 4.748049
    endloop
  endfacet
  facet normal 0 -0.95694023 0.29028508
    outer loop
      vertex 1.6999998 9.728362 4.748049
      vertex 0 9.557645 4.1852703
      vertex 1.6999998 9.557645 4.1852703
    endloop
  endfacet
  facet normal 0 0.47139537 0.881922
    outer loop
      vertex 0 36.76671 6.094408
      vertex 1.6999998 36.248047 6.3716373
      vertex 1.6999998 36.76671 6.094408
    endloop
  endfacet
  facet normal 0 0.47139537 0.881922
    outer loop
      vertex 1.6999998 36.248047 6.3716373
      vertex 0 36.76671 6.094408
      vertex 0 36.248047 6.3716373
    endloop
  endfacet
  facet normal 0 -0.88192165 0.47139603
    outer loop
      vertex 0 9.728362 4.748049
      vertex 1.6999998 10.005591 5.2667093
      vertex 0 10.005591 5.2667093
    endloop
  endfacet
  facet normal 0 -0.88192165 0.47139603
    outer loop
      vertex 1.6999998 10.005591 5.2667093
      vertex 0 9.728362 4.748049
      vertex 1.6999998 9.728362 4.748049
    endloop
  endfacet
  facet normal 0 0.63439107 0.7730123
    outer loop
      vertex 0 37.22132 5.721319
      vertex 1.6999998 36.76671 6.094408
      vertex 1.6999998 37.22132 5.721319
    endloop
  endfacet
  facet normal 0 0.63439107 0.7730123
    outer loop
      vertex 1.6999998 36.76671 6.094408
      vertex 0 37.22132 5.721319
      vertex 0 36.76671 6.094408
    endloop
  endfacet
  facet normal 0 -1 0
    outer loop
      vertex 0 9.5 1.5
      vertex 1.6999998 9.5 3.5999994
      vertex 0 9.5 3.5999994
    endloop
  endfacet
  facet normal 0 -1 0
    outer loop
      vertex 1.6999998 9.5 3.5999994
      vertex 0 9.5 1.5
      vertex 1.6999998 9.5 1.5
    endloop
  endfacet
  facet normal 0 -0.9951846 0.09801831
    outer loop
      vertex 0 9.5 3.5999994
      vertex 1.6999998 9.557645 4.1852703
      vertex 0 9.557645 4.1852703
    endloop
  endfacet
  facet normal 0 -0.9951846 0.09801831
    outer loop
      vertex 1.6999998 9.557645 4.1852703
      vertex 0 9.5 3.5999994
      vertex 1.6999998 9.5 3.5999994
    endloop
  endfacet
  facet normal 0 0.77301353 0.6343896
    outer loop
      vertex 1.6999998 37.594406 5.2667093
      vertex 0 37.22132 5.721319
      vertex 1.6999998 37.22132 5.721319
    endloop
  endfacet
  facet normal 0 0.77301353 0.6343896
    outer loop
      vertex 0 37.22132 5.721319
      vertex 1.6999998 37.594406 5.2667093
      vertex 0 37.594406 5.2667093
    endloop
  endfacet
  facet normal 0 -0.7730103 0.63439345
    outer loop
      vertex 0 10.005591 5.2667093
      vertex 1.6999998 10.37868 5.721319
      vertex 0 10.37868 5.721319
    endloop
  endfacet
  facet normal 0 -0.7730103 0.63439345
    outer loop
      vertex 1.6999998 10.37868 5.721319
      vertex 0 10.005591 5.2667093
      vertex 1.6999998 10.005591 5.2667093
    endloop
  endfacet
  facet normal 0 -0.63439345 0.7730103
    outer loop
      vertex 0 10.83329 6.094408
      vertex 1.6999998 10.37868 5.721319
      vertex 1.6999998 10.83329 6.094408
    endloop
  endfacet
  facet normal 0 -0.63439345 0.7730103
    outer loop
      vertex 1.6999998 10.37868 5.721319
      vertex 0 10.83329 6.094408
      vertex 0 10.37868 5.721319
    endloop
  endfacet
  facet normal 0 0.29028597 0.95693994
    outer loop
      vertex 0 36.248047 6.3716373
      vertex 1.6999998 35.824894 6.5
      vertex 1.6999998 36.248047 6.3716373
    endloop
  endfacet
  facet normal 0 0.29028597 0.95693994
    outer loop
      vertex 1.6999998 35.824894 6.5
      vertex 0 36.248047 6.3716373
      vertex 0 35.824894 6.5
    endloop
  endfacet
  facet normal 0 0.88192165 0.47139603
    outer loop
      vertex 1.6999998 37.871635 4.748049
      vertex 0 37.594406 5.2667093
      vertex 1.6999998 37.594406 5.2667093
    endloop
  endfacet
  facet normal 0 0.88192165 0.47139603
    outer loop
      vertex 0 37.594406 5.2667093
      vertex 1.6999998 37.871635 4.748049
      vertex 0 37.871635 4.748049
    endloop
  endfacet
  facet normal 0 1 0
    outer loop
      vertex 1.6999998 38.1 1.5
      vertex 0 38.1 3.5999994
      vertex 1.6999998 38.1 3.5999994
    endloop
  endfacet
  facet normal 0 1 0
    outer loop
      vertex 0 38.1 3.5999994
      vertex 1.6999998 38.1 1.5
      vertex 0 38.1 1.5
    endloop
  endfacet
  facet normal 0 0.9951848 0.0980167
    outer loop
      vertex 1.6999998 38.1 3.5999994
      vertex 0 38.042355 4.1852703
      vertex 1.6999998 38.042355 4.1852703
    endloop
  endfacet
  facet normal 0 0.9951848 0.0980167
    outer loop
      vertex 0 38.042355 4.1852703
      vertex 1.6999998 38.1 3.5999994
      vertex 0 38.1 3.5999994
    endloop
  endfacet
  facet normal -1 0 0
    outer loop
      vertex 0 44.5 0
      vertex 0 38.1 1.5
      vertex 0 44.5 1.5
    endloop
  endfacet
  facet normal -1 0 0
    outer loop
      vertex 0 35.824894 6.5
      vertex 0 38.1 3.5999994
      vertex 0 38.1 1.5
    endloop
  endfacet
  facet normal -1 0 0
    outer loop
      vertex 0 38.1 3.5999994
      vertex 0 35.824894 6.5
      vertex 0 38.042355 4.1852703
    endloop
  endfacet
  facet normal -1 0 0
    outer loop
      vertex 0 38.042355 4.1852703
      vertex 0 35.824894 6.5
      vertex 0 37.871635 4.748049
    endloop
  endfacet
  facet normal -1 0 0
    outer loop
      vertex 0 37.871635 4.748049
      vertex 0 35.824894 6.5
      vertex 0 37.594406 5.2667093
    endloop
  endfacet
  facet normal -1 0 0
    outer loop
      vertex 0 37.594406 5.2667093
      vertex 0 35.824894 6.5
      vertex 0 37.22132 5.721319
    endloop
  endfacet
  facet normal -1 0 0
    outer loop
      vertex 0 37.22132 5.721319
      vertex 0 35.824894 6.5
      vertex 0 36.76671 6.094408
    endloop
  endfacet
  facet normal -1 0 0
    outer loop
      vertex 0 36.76671 6.094408
      vertex 0 35.824894 6.5
      vertex 0 36.248047 6.3716373
    endloop
  endfacet
  facet normal -1 0 0
    outer loop
      vertex 0 38.1 1.5
      vertex 0 11.7751045 6.5
      vertex 0 35.824894 6.5
    endloop
  endfacet
  facet normal -1 0 0
    outer loop
      vertex 0 9.5 1.5
      vertex 0 38.1 1.5
      vertex 0 44.5 0
    endloop
  endfacet
  facet normal -1 0 0
    outer loop
      vertex 0 38.1 1.5
      vertex 0 9.5 1.5
      vertex 0 11.7751045 6.5
    endloop
  endfacet
  facet normal -1 0 0
    outer loop
      vertex 0 9.5 3.5999994
      vertex 0 11.7751045 6.5
      vertex 0 9.5 1.5
    endloop
  endfacet
  facet normal -1 0 0
    outer loop
      vertex 0 10.83329 6.094408
      vertex 0 11.7751045 6.5
      vertex 0 9.5 3.5999994
    endloop
  endfacet
  facet normal -1 0 0
    outer loop
      vertex 0 11.7751045 6.5
      vertex 0 10.83329 6.094408
      vertex 0 11.351951 6.3716373
    endloop
  endfacet
  facet normal -1 0 0
    outer loop
      vertex 0 10.83329 6.094408
      vertex 0 9.5 3.5999994
      vertex 0 10.37868 5.721319
    endloop
  endfacet
  facet normal -1 0 0
    outer loop
      vertex 0 10.37868 5.721319
      vertex 0 9.5 3.5999994
      vertex 0 10.005591 5.2667093
    endloop
  endfacet
  facet normal -1 0 0
    outer loop
      vertex 0 10.005591 5.2667093
      vertex 0 9.5 3.5999994
      vertex 0 9.728362 4.748049
    endloop
  endfacet
  facet normal -1 0 0
    outer loop
      vertex 0 3 0
      vertex 0 9.5 1.5
      vertex 0 44.5 0
    endloop
  endfacet
  facet normal -1 0 0
    outer loop
      vertex 0 9.5 1.5
      vertex 0 3 0
      vertex 0 3 1.5
    endloop
  endfacet
  facet normal -1 0 0
    outer loop
      vertex 0 9.728362 4.748049
      vertex 0 9.5 3.5999994
      vertex 0 9.557645 4.1852703
    endloop
  endfacet
  facet normal 0 -0.47139603 0.88192165
    outer loop
      vertex 0 11.351951 6.3716373
      vertex 1.6999998 10.83329 6.094408
      vertex 1.6999998 11.351951 6.3716373
    endloop
  endfacet
  facet normal 0 -0.47139603 0.88192165
    outer loop
      vertex 1.6999998 10.83329 6.094408
      vertex 0 11.351951 6.3716373
      vertex 0 10.83329 6.094408
    endloop
  endfacet
  facet normal 0 0.95693934 0.29028803
    outer loop
      vertex 1.6999998 38.042355 4.1852703
      vertex 0 37.871635 4.748049
      vertex 1.6999998 37.871635 4.748049
    endloop
  endfacet
  facet normal 0 0.95693934 0.29028803
    outer loop
      vertex 0 37.871635 4.748049
      vertex 1.6999998 38.042355 4.1852703
      vertex 0 38.042355 4.1852703
    endloop
  endfacet
  facet normal 0 -0.29028535 0.9569401
    outer loop
      vertex 55.5 11.7751045 6.5
      vertex 57 11.351951 6.3716373
      vertex 57 11.7751045 6.5
    endloop
  endfacet
  facet normal 0 -0.29028535 0.9569401
    outer loop
      vertex 57 11.351951 6.3716373
      vertex 55.5 11.7751045 6.5
      vertex 55.5 11.351951 6.3716373
    endloop
  endfacet
  facet normal 0 -0.95694023 0.29028508
    outer loop
      vertex 55.5 9.557645 4.1852703
      vertex 57 9.728362 4.748049
      vertex 55.5 9.728362 4.748049
    endloop
  endfacet
  facet normal 0 -0.95694023 0.29028508
    outer loop
      vertex 57 9.728362 4.748049
      vertex 55.5 9.557645 4.1852703
      vertex 57 9.557645 4.1852703
    endloop
  endfacet
  facet normal 0 0.47139537 0.881922
    outer loop
      vertex 55.5 36.76671 6.094408
      vertex 57 36.248047 6.3716373
      vertex 57 36.76671 6.094408
    endloop
  endfacet
  facet normal 0 0.47139537 0.881922
    outer loop
      vertex 57 36.248047 6.3716373
      vertex 55.5 36.76671 6.094408
      vertex 55.5 36.248047 6.3716373
    endloop
  endfacet
  facet normal 0 -0.88192165 0.47139603
    outer loop
      vertex 55.5 9.728362 4.748049
      vertex 57 10.005591 5.2667093
      vertex 55.5 10.005591 5.2667093
    endloop
  endfacet
  facet normal 0 -0.88192165 0.47139603
    outer loop
      vertex 57 10.005591 5.2667093
      vertex 55.5 9.728362 4.748049
      vertex 57 9.728362 4.748049
    endloop
  endfacet
  facet normal -1 0 0
    outer loop
      vertex 55.5 35.824894 6.5
      vertex 55.5 38.1 3.5999994
      vertex 55.5 38.1 1.5
    endloop
  endfacet
  facet normal -1 0 0
    outer loop
      vertex 55.5 38.1 3.5999994
      vertex 55.5 35.824894 6.5
      vertex 55.5 38.042355 4.1852703
    endloop
  endfacet
  facet normal -1 0 0
    outer loop
      vertex 55.5 38.042355 4.1852703
      vertex 55.5 35.824894 6.5
      vertex 55.5 37.871635 4.748049
    endloop
  endfacet
  facet normal -1 0 0
    outer loop
      vertex 55.5 37.871635 4.748049
      vertex 55.5 35.824894 6.5
      vertex 55.5 37.594406 5.2667093
    endloop
  endfacet
  facet normal -1 0 0
    outer loop
      vertex 55.5 37.594406 5.2667093
      vertex 55.5 35.824894 6.5
      vertex 55.5 37.22132 5.721319
    endloop
  endfacet
  facet normal -1 0 0
    outer loop
      vertex 55.5 37.22132 5.721319
      vertex 55.5 35.824894 6.5
      vertex 55.5 36.76671 6.094408
    endloop
  endfacet
  facet normal -1 0 0
    outer loop
      vertex 55.5 36.76671 6.094408
      vertex 55.5 35.824894 6.5
      vertex 55.5 36.248047 6.3716373
    endloop
  endfacet
  facet normal -1 0 0
    outer loop
      vertex 55.5 38.1 1.5
      vertex 55.5 11.7751045 6.5
      vertex 55.5 35.824894 6.5
    endloop
  endfacet
  facet normal -1 0 0
    outer loop
      vertex 55.5 9.5 1.5
      vertex 55.5 11.7751045 6.5
      vertex 55.5 38.1 1.5
    endloop
  endfacet
  facet normal -1 0 0
    outer loop
      vertex 55.5 9.5 3.5999994
      vertex 55.5 11.7751045 6.5
      vertex 55.5 9.5 1.5
    endloop
  endfacet
  facet normal -1 0 0
    outer loop
      vertex 55.5 10.83329 6.094408
      vertex 55.5 11.7751045 6.5
      vertex 55.5 9.5 3.5999994
    endloop
  endfacet
  facet normal -1 0 0
    outer loop
      vertex 55.5 11.7751045 6.5
      vertex 55.5 10.83329 6.094408
      vertex 55.5 11.351951 6.3716373
    endloop
  endfacet
  facet normal -1 0 0
    outer loop
      vertex 55.5 10.83329 6.094408
      vertex 55.5 9.5 3.5999994
      vertex 55.5 10.37868 5.721319
    endloop
  endfacet
  facet normal -1 0 0
    outer loop
      vertex 55.5 10.37868 5.721319
      vertex 55.5 9.5 3.5999994
      vertex 55.5 10.005591 5.2667093
    endloop
  endfacet
  facet normal -1 0 0
    outer loop
      vertex 55.5 10.005591 5.2667093
      vertex 55.5 9.5 3.5999994
      vertex 55.5 9.728362 4.748049
    endloop
  endfacet
  facet normal -1 0 0
    outer loop
      vertex 55.5 9.728362 4.748049
      vertex 55.5 9.5 3.5999994
      vertex 55.5 9.557645 4.1852703
    endloop
  endfacet
  facet normal 0 -1 0
    outer loop
      vertex 55.5 9.5 1.5
      vertex 57 9.5 3.5999994
      vertex 55.5 9.5 3.5999994
    endloop
  endfacet
  facet normal 0 -1 0
    outer loop
      vertex 57 9.5 3.5999994
      vertex 55.5 9.5 1.5
      vertex 57 9.5 1.5
    endloop
  endfacet
  facet normal 0 -0.9951846 0.09801831
    outer loop
      vertex 55.5 9.5 3.5999994
      vertex 57 9.557645 4.1852703
      vertex 55.5 9.557645 4.1852703
    endloop
  endfacet
  facet normal 0 -0.9951846 0.09801831
    outer loop
      vertex 57 9.557645 4.1852703
      vertex 55.5 9.5 3.5999994
      vertex 57 9.5 3.5999994
    endloop
  endfacet
  facet normal 0 0.77301353 0.6343896
    outer loop
      vertex 57 37.594406 5.2667093
      vertex 55.5 37.22132 5.721319
      vertex 57 37.22132 5.721319
    endloop
  endfacet
  facet normal 0 0.77301353 0.6343896
    outer loop
      vertex 55.5 37.22132 5.721319
      vertex 57 37.594406 5.2667093
      vertex 55.5 37.594406 5.2667093
    endloop
  endfacet
  facet normal 0 -0.7730103 0.63439345
    outer loop
      vertex 55.5 10.005591 5.2667093
      vertex 57 10.37868 5.721319
      vertex 55.5 10.37868 5.721319
    endloop
  endfacet
  facet normal 0 -0.7730103 0.63439345
    outer loop
      vertex 57 10.37868 5.721319
      vertex 55.5 10.005591 5.2667093
      vertex 57 10.005591 5.2667093
    endloop
  endfacet
  facet normal 0 -0.63439345 0.7730103
    outer loop
      vertex 55.5 10.83329 6.094408
      vertex 57 10.37868 5.721319
      vertex 57 10.83329 6.094408
    endloop
  endfacet
  facet normal 0 -0.63439345 0.7730103
    outer loop
      vertex 57 10.37868 5.721319
      vertex 55.5 10.83329 6.094408
      vertex 55.5 10.37868 5.721319
    endloop
  endfacet
  facet normal 0 0.29028597 0.95693994
    outer loop
      vertex 55.5 36.248047 6.3716373
      vertex 57 35.824894 6.5
      vertex 57 36.248047 6.3716373
    endloop
  endfacet
  facet normal 0 0.29028597 0.95693994
    outer loop
      vertex 57 35.824894 6.5
      vertex 55.5 36.248047 6.3716373
      vertex 55.5 35.824894 6.5
    endloop
  endfacet
  facet normal 0 0.88192165 0.47139603
    outer loop
      vertex 57 37.871635 4.748049
      vertex 55.5 37.594406 5.2667093
      vertex 57 37.594406 5.2667093
    endloop
  endfacet
  facet normal 0 0.88192165 0.47139603
    outer loop
      vertex 55.5 37.594406 5.2667093
      vertex 57 37.871635 4.748049
      vertex 55.5 37.871635 4.748049
    endloop
  endfacet
  facet normal 0 1 0
    outer loop
      vertex 57 38.1 1.5
      vertex 55.5 38.1 3.5999994
      vertex 57 38.1 3.5999994
    endloop
  endfacet
  facet normal 0 1 0
    outer loop
      vertex 55.5 38.1 3.5999994
      vertex 57 38.1 1.5
      vertex 55.5 38.1 1.5
    endloop
  endfacet
  facet normal 0 0.9951848 0.0980167
    outer loop
      vertex 57 38.1 3.5999994
      vertex 55.5 38.042355 4.1852703
      vertex 57 38.042355 4.1852703
    endloop
  endfacet
  facet normal 0 0.9951848 0.0980167
    outer loop
      vertex 55.5 38.042355 4.1852703
      vertex 57 38.1 3.5999994
      vertex 55.5 38.1 3.5999994
    endloop
  endfacet
  facet normal 0 -0.47139603 0.88192165
    outer loop
      vertex 55.5 11.351951 6.3716373
      vertex 57 10.83329 6.094408
      vertex 57 11.351951 6.3716373
    endloop
  endfacet
  facet normal 0 -0.47139603 0.88192165
    outer loop
      vertex 57 10.83329 6.094408
      vertex 55.5 11.351951 6.3716373
      vertex 55.5 10.83329 6.094408
    endloop
  endfacet
  facet normal 0 0.95693934 0.29028803
    outer loop
      vertex 57 38.042355 4.1852703
      vertex 55.5 37.871635 4.748049
      vertex 57 37.871635 4.748049
    endloop
  endfacet
  facet normal 0 0.95693934 0.29028803
    outer loop
      vertex 55.5 37.871635 4.748049
      vertex 57 38.042355 4.1852703
      vertex 55.5 38.042355 4.1852703
    endloop
  endfacet
  facet normal 0 0.63439107 0.7730123
    outer loop
      vertex 55.5 37.22132 5.721319
      vertex 57 36.76671 6.094408
      vertex 57 37.22132 5.721319
    endloop
  endfacet
  facet normal 0 0.63439107 0.7730123
    outer loop
      vertex 57 36.76671 6.094408
      vertex 55.5 37.22132 5.721319
      vertex 55.5 36.76671 6.094408
    endloop
  endfacet
  facet normal 0.70710677 -0.70710677 0
    outer loop
      vertex 55.5 0.40192413 1.5
      vertex 56.598076 1.5 0
      vertex 56.598076 1.5 1.5
    endloop
  endfacet
  facet normal 0.70710677 -0.70710677 0
    outer loop
      vertex 56.598076 1.5 0
      vertex 55.5 0.40192413 1.5
      vertex 55.5 0.40192413 0
    endloop
  endfacet
  facet normal 0.70710677 0.70710677 0
    outer loop
      vertex 56.598076 46 1.5
      vertex 55.5 47.098076 0
      vertex 55.5 47.098076 1.5
    endloop
  endfacet
  facet normal 0.70710677 0.70710677 0
    outer loop
      vertex 55.5 47.098076 0
      vertex 56.598076 46 1.5
      vertex 56.598076 46 0
    endloop
  endfacet
  facet normal -0.70710677 0.70710677 0
    outer loop
      vertex 0.40192413 46 0
      vertex 1.5 47.098076 1.5
      vertex 1.5 47.098076 0
    endloop
  endfacet
  facet normal -0.70710677 0.70710677 0
    outer loop
      vertex 1.5 47.098076 1.5
      vertex 0.40192413 46 0
      vertex 0.40192413 46 1.5
    endloop
  endfacet
  facet normal -0.70710677 -0.70710677 0
    outer loop
      vertex 1.5 0.40192413 0
      vertex 0.40192413 1.5 1.5
      vertex 0.40192413 1.5 0
    endloop
  endfacet
  facet normal -0.70710677 -0.70710677 0
    outer loop
      vertex 0.40192413 1.5 1.5
      vertex 1.5 0.40192413 0
      vertex 1.5 0.40192413 1.5
    endloop
  endfacet
  facet normal 0 1 0
    outer loop
      vertex 54 47.5 0
      vertex 47.6 47.5 1.5
      vertex 54 47.5 1.5
    endloop
  endfacet
  facet normal 0 1 0
    outer loop
      vertex 47.6 47.5 1.5
      vertex 54 47.5 0
      vertex 9.5 47.5 1.5
    endloop
  endfacet
  facet normal 0 1 0
    outer loop
      vertex 3 47.5 0
      vertex 9.5 47.5 1.5
      vertex 54 47.5 0
    endloop
  endfacet
  facet normal 0 1 0
    outer loop
      vertex 9.5 47.5 1.5
      vertex 3 47.5 0
      vertex 3 47.5 1.5
    endloop
  endfacet
  facet normal 0 1 0
    outer loop
      vertex 46.26671 47.5 6.094408
      vertex 45.324894 47.5 6.5
      vertex 45.748047 47.5 6.3716373
    endloop
  endfacet
  facet normal 0 1 0
    outer loop
      vertex 45.324894 47.5 6.5
      vertex 47.6 47.5 1.5
      vertex 11.7751045 47.5 6.5
    endloop
  endfacet
  facet normal 0 1 0
    outer loop
      vertex 45.324894 47.5 6.5
      vertex 46.26671 47.5 6.094408
      vertex 47.6 47.5 3.5999994
    endloop
  endfacet
  facet normal 0 1 0
    outer loop
      vertex 9.5 47.5 1.5
      vertex 11.7751045 47.5 6.5
      vertex 47.6 47.5 1.5
    endloop
  endfacet
  facet normal 0 1 0
    outer loop
      vertex 47.6 47.5 3.5999994
      vertex 46.26671 47.5 6.094408
      vertex 46.72132 47.5 5.721319
    endloop
  endfacet
  facet normal 0 1 0
    outer loop
      vertex 9.5 47.5 3.5999994
      vertex 11.7751045 47.5 6.5
      vertex 9.5 47.5 1.5
    endloop
  endfacet
  facet normal 0 1 0
    outer loop
      vertex 47.6 47.5 3.5999994
      vertex 46.72132 47.5 5.721319
      vertex 47.094406 47.5 5.2667093
    endloop
  endfacet
  facet normal 0 1 0
    outer loop
      vertex 10.83329 47.5 6.094408
      vertex 11.7751045 47.5 6.5
      vertex 9.5 47.5 3.5999994
    endloop
  endfacet
  facet normal 0 1 0
    outer loop
      vertex 47.6 47.5 3.5999994
      vertex 47.094406 47.5 5.2667093
      vertex 47.371635 47.5 4.748049
    endloop
  endfacet
  facet normal 0 1 0
    outer loop
      vertex 11.7751045 47.5 6.5
      vertex 10.83329 47.5 6.094408
      vertex 11.351951 47.5 6.3716373
    endloop
  endfacet
  facet normal 0 1 0
    outer loop
      vertex 47.6 47.5 3.5999994
      vertex 47.371635 47.5 4.748049
      vertex 47.542355 47.5 4.1852703
    endloop
  endfacet
  facet normal 0 1 0
    outer loop
      vertex 10.83329 47.5 6.094408
      vertex 9.5 47.5 3.5999994
      vertex 10.37868 47.5 5.721319
    endloop
  endfacet
  facet normal 0 1 0
    outer loop
      vertex 45.324894 47.5 6.5
      vertex 47.6 47.5 3.5999994
      vertex 47.6 47.5 1.5
    endloop
  endfacet
  facet normal 0 1 0
    outer loop
      vertex 10.37868 47.5 5.721319
      vertex 9.5 47.5 3.5999994
      vertex 10.005591 47.5 5.2667093
    endloop
  endfacet
  facet normal 0 1 0
    outer loop
      vertex 10.005591 47.5 5.2667093
      vertex 9.5 47.5 3.5999994
      vertex 9.728362 47.5 4.748049
    endloop
  endfacet
  facet normal 0 1 0
    outer loop
      vertex 9.728362 47.5 4.748049
      vertex 9.5 47.5 3.5999994
      vertex 9.557645 47.5 4.1852703
    endloop
  endfacet
  facet normal 0.96592575 0.25881925 0
    outer loop
      vertex 57 44.5 1.5
      vertex 56.598076 46 0
      vertex 56.598076 46 1.5
    endloop
  endfacet
  facet normal 0.96592575 0.25881925 0
    outer loop
      vertex 56.598076 46 0
      vertex 57 44.5 1.5
      vertex 57 44.5 0
    endloop
  endfacet
  facet normal 0.25881925 -0.96592575 0
    outer loop
      vertex 54 0 0
      vertex 55.5 0.40192413 1.5
      vertex 54 0 1.5
    endloop
  endfacet
  facet normal 0.25881925 -0.96592575 0
    outer loop
      vertex 55.5 0.40192413 1.5
      vertex 54 0 0
      vertex 55.5 0.40192413 0
    endloop
  endfacet
  facet normal -0.25881925 -0.96592575 0
    outer loop
      vertex 1.5 0.40192413 0
      vertex 3 0 1.5
      vertex 1.5 0.40192413 1.5
    endloop
  endfacet
  facet normal -0.25881925 -0.96592575 0
    outer loop
      vertex 3 0 1.5
      vertex 1.5 0.40192413 0
      vertex 3 0 0
    endloop
  endfacet
  facet normal -0.96592575 -0.25881925 0
    outer loop
      vertex 0.40192413 1.5 0
      vertex 0 3 1.5
      vertex 0 3 0
    endloop
  endfacet
  facet normal -0.96592575 -0.25881925 0
    outer loop
      vertex 0 3 1.5
      vertex 0.40192413 1.5 0
      vertex 0.40192413 1.5 1.5
    endloop
  endfacet
  facet normal -0.25881925 0.96592575 0
    outer loop
      vertex 3 47.5 0
      vertex 1.5 47.098076 1.5
      vertex 3 47.5 1.5
    endloop
  endfacet
  facet normal -0.25881925 0.96592575 0
    outer loop
      vertex 1.5 47.098076 1.5
      vertex 3 47.5 0
      vertex 1.5 47.098076 0
    endloop
  endfacet
  facet normal -0.96592575 0.25881925 0
    outer loop
      vertex 0 44.5 0
      vertex 0.40192413 46 1.5
      vertex 0.40192413 46 0
    endloop
  endfacet
  facet normal -0.96592575 0.25881925 0
    outer loop
      vertex 0.40192413 46 1.5
      vertex 0 44.5 0
      vertex 0 44.5 1.5
    endloop
  endfacet
  facet normal 0 0 -1
    outer loop
      vertex 54 0 0
      vertex 57 3 0
      vertex 56.598076 1.5 0
    endloop
  endfacet
  facet normal 0 0 -1
    outer loop
      vertex 57 3 0
      vertex 54 0 0
      vertex 57 44.5 0
    endloop
  endfacet
  facet normal 0 0 -1
    outer loop
      vertex 54 0 0
      vertex 56.598076 1.5 0
      vertex 55.5 0.40192413 0
    endloop
  endfacet
  facet normal 0 0 -1
    outer loop
      vertex 54 47.5 0
      vertex 57 44.5 0
      vertex 54 0 0
    endloop
  endfacet
  facet normal 0 0 -1
    outer loop
      vertex 57 44.5 0
      vertex 54 47.5 0
      vertex 56.598076 46 0
    endloop
  endfacet
  facet normal 0 0 -1
    outer loop
      vertex 56.598076 46 0
      vertex 54 47.5 0
      vertex 55.5 47.098076 0
    endloop
  endfacet
  facet normal 0 0 -1
    outer loop
      vertex 3 0 0
      vertex 54 47.5 0
      vertex 54 0 0
    endloop
  endfacet
  facet normal 0 0 -1
    outer loop
      vertex 3 0 0
      vertex 3 47.5 0
      vertex 54 47.5 0
    endloop
  endfacet
  facet normal 0 0 -1
    outer loop
      vertex 0 3 0
      vertex 3 0 0
      vertex 1.5 0.40192413 0
    endloop
  endfacet
  facet normal 0 0 -1
    outer loop
      vertex 3 0 0
      vertex 0 3 0
      vertex 3 47.5 0
    endloop
  endfacet
  facet normal 0 0 -1
    outer loop
      vertex 0 3 0
      vertex 1.5 0.40192413 0
      vertex 0.40192413 1.5 0
    endloop
  endfacet
  facet normal 0 0 -1
    outer loop
      vertex 0 44.5 0
      vertex 3 47.5 0
      vertex 0 3 0
    endloop
  endfacet
  facet normal 0 0 -1
    outer loop
      vertex 3 47.5 0
      vertex 0 44.5 0
      vertex 1.5 47.098076 0
    endloop
  endfacet
  facet normal 0 0 -1
    outer loop
      vertex 1.5 47.098076 0
      vertex 0 44.5 0
      vertex 0.40192413 46 0
    endloop
  endfacet
  facet normal 1 0 0
    outer loop
      vertex 57 35.824894 6.5
      vertex 57 38.1 3.5999994
      vertex 57 38.042355 4.1852703
    endloop
  endfacet
  facet normal 1 0 0
    outer loop
      vertex 57 38.1 1.5
      vertex 57 44.5 0
      vertex 57 44.5 1.5
    endloop
  endfacet
  facet normal 1 0 0
    outer loop
      vertex 57 35.824894 6.5
      vertex 57 38.042355 4.1852703
      vertex 57 37.871635 4.748049
    endloop
  endfacet
  facet normal 1 0 0
    outer loop
      vertex 57 35.824894 6.5
      vertex 57 37.871635 4.748049
      vertex 57 37.594406 5.2667093
    endloop
  endfacet
  facet normal 1 0 0
    outer loop
      vertex 57 35.824894 6.5
      vertex 57 37.594406 5.2667093
      vertex 57 37.22132 5.721319
    endloop
  endfacet
  facet normal 1 0 0
    outer loop
      vertex 57 35.824894 6.5
      vertex 57 37.22132 5.721319
      vertex 57 36.76671 6.094408
    endloop
  endfacet
  facet normal 1 0 0
    outer loop
      vertex 57 35.824894 6.5
      vertex 57 36.76671 6.094408
      vertex 57 36.248047 6.3716373
    endloop
  endfacet
  facet normal 1 0 0
    outer loop
      vertex 57 38.1 3.5999994
      vertex 57 35.824894 6.5
      vertex 57 38.1 1.5
    endloop
  endfacet
  facet normal 1 0 0
    outer loop
      vertex 57 11.7751045 6.5
      vertex 57 38.1 1.5
      vertex 57 35.824894 6.5
    endloop
  endfacet
  facet normal 1 0 0
    outer loop
      vertex 57 9.5 1.5
      vertex 57 38.1 1.5
      vertex 57 11.7751045 6.5
    endloop
  endfacet
  facet normal 1 0 0
    outer loop
      vertex 57 10.83329 6.094408
      vertex 57 11.7751045 6.5
      vertex 57 11.351951 6.3716373
    endloop
  endfacet
  facet normal 1 0 0
    outer loop
      vertex 57 11.7751045 6.5
      vertex 57 10.83329 6.094408
      vertex 57 9.5 3.5999994
    endloop
  endfacet
  facet normal 1 0 0
    outer loop
      vertex 57 9.5 3.5999994
      vertex 57 10.83329 6.094408
      vertex 57 10.37868 5.721319
    endloop
  endfacet
  facet normal 1 0 0
    outer loop
      vertex 57 9.5 3.5999994
      vertex 57 10.37868 5.721319
      vertex 57 10.005591 5.2667093
    endloop
  endfacet
  facet normal 1 0 0
    outer loop
      vertex 57 9.5 3.5999994
      vertex 57 10.005591 5.2667093
      vertex 57 9.728362 4.748049
    endloop
  endfacet
  facet normal 1 0 0
    outer loop
      vertex 57 9.5 3.5999994
      vertex 57 9.728362 4.748049
      vertex 57 9.557645 4.1852703
    endloop
  endfacet
  facet normal 1 0 0
    outer loop
      vertex 57 11.7751045 6.5
      vertex 57 9.5 3.5999994
      vertex 57 9.5 1.5
    endloop
  endfacet
  facet normal 1 0 0
    outer loop
      vertex 57 38.1 1.5
      vertex 57 9.5 1.5
      vertex 57 44.5 0
    endloop
  endfacet
  facet normal 1 0 0
    outer loop
      vertex 57 3 0
      vertex 57 9.5 1.5
      vertex 57 3 1.5
    endloop
  endfacet
  facet normal 1 0 0
    outer loop
      vertex 57 9.5 1.5
      vertex 57 3 0
      vertex 57 44.5 0
    endloop
  endfacet
  facet normal 0.25881925 0.96592575 0
    outer loop
      vertex 55.5 47.098076 0
      vertex 54 47.5 1.5
      vertex 55.5 47.098076 1.5
    endloop
  endfacet
  facet normal 0.25881925 0.96592575 0
    outer loop
      vertex 54 47.5 1.5
      vertex 55.5 47.098076 0
      vertex 54 47.5 0
    endloop
  endfacet
  facet normal 0.96592575 -0.25881925 0
    outer loop
      vertex 56.598076 1.5 1.5
      vertex 57 3 0
      vertex 57 3 1.5
    endloop
  endfacet
  facet normal 0.96592575 -0.25881925 0
    outer loop
      vertex 57 3 0
      vertex 56.598076 1.5 1.5
      vertex 56.598076 1.5 0
    endloop
  endfacet
  facet normal 0 0 1
    outer loop
      vertex 54 44.5 10.799998
      vertex 55.3 44.3 10.799998
      vertex 54.860657 45.360657 10.799998
    endloop
  endfacet
  facet normal 0 0 1
    outer loop
      vertex 55.3 44.3 10.799998
      vertex 54 44.5 10.799998
      vertex 55.3 3.1999998 10.799998
    endloop
  endfacet
  facet normal 0 0 1
    outer loop
      vertex 54 3 10.799998
      vertex 55.3 3.1999998 10.799998
      vertex 54 44.5 10.799998
    endloop
  endfacet
  facet normal 0 0 1
    outer loop
      vertex 53.8 45.8 10.799998
      vertex 54 44.5 10.799998
      vertex 54.860657 45.360657 10.799998
    endloop
  endfacet
  facet normal 0 0 1
    outer loop
      vertex 3.1999998 45.8 10.799998
      vertex 54 44.5 10.799998
      vertex 53.8 45.8 10.799998
    endloop
  endfacet
  facet normal 0 0 1
    outer loop
      vertex 3.1999998 45.8 10.799998
      vertex 3 44.5 10.799998
      vertex 54 44.5 10.799998
    endloop
  endfacet
  facet normal 0 0 1
    outer loop
      vertex 1.6999998 44.3 10.799998
      vertex 3 44.5 10.799998
      vertex 2.1393404 45.360657 10.799998
    endloop
  endfacet
  facet normal 0 0 1
    outer loop
      vertex 2.1393404 45.360657 10.799998
      vertex 3 44.5 10.799998
      vertex 3.1999998 45.8 10.799998
    endloop
  endfacet
  facet normal 0 0 1
    outer loop
      vertex 55.3 3.1999998 10.799998
      vertex 54 3 10.799998
      vertex 54.860657 2.1393404 10.799998
    endloop
  endfacet
  facet normal 0 0 1
    outer loop
      vertex 54 3 10.799998
      vertex 53.8 1.6999998 10.799998
      vertex 54.860657 2.1393404 10.799998
    endloop
  endfacet
  facet normal 0 0 1
    outer loop
      vertex 54 3 10.799998
      vertex 3.1999998 1.6999998 10.799998
      vertex 53.8 1.6999998 10.799998
    endloop
  endfacet
  facet normal 0 0 1
    outer loop
      vertex 3 3 10.799998
      vertex 3.1999998 1.6999998 10.799998
      vertex 54 3 10.799998
    endloop
  endfacet
  facet normal 0 0 1
    outer loop
      vertex 3 3 10.799998
      vertex 2.1393404 2.1393404 10.799998
      vertex 3.1999998 1.6999998 10.799998
    endloop
  endfacet
  facet normal 0 0 1
    outer loop
      vertex 3 44.5 10.799998
      vertex 1.6999998 44.3 10.799998
      vertex 3 3 10.799998
    endloop
  endfacet
  facet normal 0 0 1
    outer loop
      vertex 1.6999998 3.1999998 10.799998
      vertex 3 3 10.799998
      vertex 1.6999998 44.3 10.799998
    endloop
  endfacet
  facet normal 0 0 1
    outer loop
      vertex 3 3 10.799998
      vertex 1.6999998 3.1999998 10.799998
      vertex 2.1393404 2.1393404 10.799998
    endloop
  endfacet
  facet normal -1 0 0
    outer loop
      vertex 54 3 2
      vertex 54 44.5 10.799998
      vertex 54 44.5 2
    endloop
  endfacet
  facet normal -1 0 0
    outer loop
      vertex 54 44.5 10.799998
      vertex 54 3 2
      vertex 54 3 10.799998
    endloop
  endfacet
  facet normal 0 0 1
    outer loop
      vertex 3 44.5 2
      vertex 54 3 2
      vertex 54 44.5 2
    endloop
  endfacet
  facet normal 0 0 1
    outer loop
      vertex 54 3 2
      vertex 3 44.5 2
      vertex 3 3 2
    endloop
  endfacet
  facet normal 1 0 0
    outer loop
      vertex 3 3 10.799998
      vertex 3 44.5 2
      vertex 3 44.5 10.799998
    endloop
  endfacet
  facet normal 1 0 0
    outer loop
      vertex 3 44.5 2
      vertex 3 3 10.799998
      vertex 3 3 2
    endloop
  endfacet
  facet normal 0 -1 0
    outer loop
      vertex 3 44.5 2
      vertex 54 44.5 10.799998
      vertex 3 44.5 10.799998
    endloop
  endfacet
  facet normal 0 -1 0
    outer loop
      vertex 54 44.5 10.799998
      vertex 3 44.5 2
      vertex 54 44.5 2
    endloop
  endfacet
  facet normal 0 1 0
    outer loop
      vertex 54 3 2
      vertex 3 3 10.799998
      vertex 54 3 10.799998
    endloop
  endfacet
  facet normal 0 1 0
    outer loop
      vertex 3 3 10.799998
      vertex 54 3 2
      vertex 3 3 2
    endloop
  endfacet
endsolid OpenSCAD_Model
