solid OpenSCAD_Model
  facet normal -1 0 0
    outer loop
      vertex 70 0 12.299999
      vertex 70 95.2 13.799998
      vertex 70 95.2 12.299999
    endloop
  endfacet
  facet normal -1 0 0
    outer loop
      vertex 70 95.2 13.799998
      vertex 70 0 12.299999
      vertex 70 0 13.799998
    endloop
  endfacet
  facet normal -1 0 0
    outer loop
      vertex 70 3 2
      vertex 70 95 10.799999
      vertex 70 95 2
    endloop
  endfacet
  facet normal -1 0 0
    outer loop
      vertex 70 95 10.799999
      vertex 70 3 2
      vertex 70 3 10.799999
    endloop
  endfacet
  facet normal 0 0 1
    outer loop
      vertex 70 3 10.799999
      vertex 71.5 96.5 10.799999
      vertex 70 95 10.799999
    endloop
  endfacet
  facet normal 0 0 1
    outer loop
      vertex 71.5 96.5 10.799999
      vertex 3 95 10.799999
      vertex 70 95 10.799999
    endloop
  endfacet
  facet normal 0 0 1
    outer loop
      vertex 1.5 96.5 10.799999
      vertex 3 3 10.799999
      vertex 3 95 10.799999
    endloop
  endfacet
  facet normal 0 0 1
    outer loop
      vertex 1.5 96.5 10.799999
      vertex 3 95 10.799999
      vertex 71.5 96.5 10.799999
    endloop
  endfacet
  facet normal 0 0 1
    outer loop
      vertex 3 3 10.799999
      vertex 1.5 96.5 10.799999
      vertex 1.5 0.40192413 10.799999
    endloop
  endfacet
  facet normal 0 0 1
    outer loop
      vertex 3 3 10.799999
      vertex 1.5 0.40192413 10.799999
      vertex 3 0 10.799999
    endloop
  endfacet
  facet normal 0 0 1
    outer loop
      vertex 71.5 96.5 10.799999
      vertex 70 3 10.799999
      vertex 71.5 0.40192413 10.799999
    endloop
  endfacet
  facet normal 0 0 1
    outer loop
      vertex 70 3 10.799999
      vertex 70 0 10.799999
      vertex 71.5 0.40192413 10.799999
    endloop
  endfacet
  facet normal 0 0 1
    outer loop
      vertex 3 3 10.799999
      vertex 70 0 10.799999
      vertex 70 3 10.799999
    endloop
  endfacet
  facet normal 0 0 1
    outer loop
      vertex 70 0 10.799999
      vertex 3 3 10.799999
      vertex 3 0 10.799999
    endloop
  endfacet
  facet normal 1 0 0
    outer loop
      vertex 3 0 13.799998
      vertex 3 95.2 12.299999
      vertex 3 95.2 13.799998
    endloop
  endfacet
  facet normal 1 0 0
    outer loop
      vertex 3 95.2 12.299999
      vertex 3 0 13.799998
      vertex 3 0 12.299999
    endloop
  endfacet
  facet normal 1 0 0
    outer loop
      vertex 3 3 10.799999
      vertex 3 95 2
      vertex 3 95 10.799999
    endloop
  endfacet
  facet normal 1 0 0
    outer loop
      vertex 3 95 2
      vertex 3 3 10.799999
      vertex 3 3 2
    endloop
  endfacet
  facet normal 0 -1 0
    outer loop
      vertex 3 95.2 12.299999
      vertex 70 95.2 13.799998
      vertex 3 95.2 13.799998
    endloop
  endfacet
  facet normal 0 -1 0
    outer loop
      vertex 70 95.2 13.799998
      vertex 3 95.2 12.299999
      vertex 70 95.2 12.299999
    endloop
  endfacet
  facet normal 0 0 -1
    outer loop
      vertex 3 0 12.299999
      vertex 2 0.26794943 12.299999
      vertex 3 95.2 12.299999
    endloop
  endfacet
  facet normal 0 0 -1
    outer loop
      vertex 70 95.2 12.299999
      vertex 71 0.26794943 12.299999
      vertex 70 0 12.299999
    endloop
  endfacet
  facet normal 0 0 -1
    outer loop
      vertex 71 0.26794943 12.299999
      vertex 70 95.2 12.299999
      vertex 71 96 12.299999
    endloop
  endfacet
  facet normal 0 0 -1
    outer loop
      vertex 3 95.2 12.299999
      vertex 71 96 12.299999
      vertex 70 95.2 12.299999
    endloop
  endfacet
  facet normal 0 0 -1
    outer loop
      vertex 3 95.2 12.299999
      vertex 2 96 12.299999
      vertex 71 96 12.299999
    endloop
  endfacet
  facet normal 0 0 -1
    outer loop
      vertex 2 96 12.299999
      vertex 3 95.2 12.299999
      vertex 2 0.26794943 12.299999
    endloop
  endfacet
  facet normal 0.70710677 0 -0.70710677
    outer loop
      vertex 2 96 12.299999
      vertex 1.5 0.40192413 11.799999
      vertex 1.5 96.5 11.799999
    endloop
  endfacet
  facet normal 0.70710677 0 -0.70710677
    outer loop
      vertex 1.5 0.40192413 11.799999
      vertex 2 96 12.299999
      vertex 2 0.26794943 12.299999
    endloop
  endfacet
  facet normal -0.70710677 0 -0.70710677
    outer loop
      vertex 71.5 0.40192413 11.799999
      vertex 71 96 12.299999
      vertex 71.5 96.5 11.799999
    endloop
  endfacet
  facet normal -0.70710677 0 -0.70710677
    outer loop
      vertex 71 96 12.299999
      vertex 71.5 0.40192413 11.799999
      vertex 71 0.26794943 12.299999
    endloop
  endfacet
  facet normal 1 0 0
    outer loop
      vertex 1.5 0.40192413 11.799999
      vertex 1.5 96.5 10.799999
      vertex 1.5 96.5 11.799999
    endloop
  endfacet
  facet normal 1 0 0
    outer loop
      vertex 1.5 96.5 10.799999
      vertex 1.5 0.40192413 11.799999
      vertex 1.5 0.40192413 10.799999
    endloop
  endfacet
  facet normal -1 0 0
    outer loop
      vertex 71.5 0.40192413 10.799999
      vertex 71.5 96.5 11.799999
      vertex 71.5 96.5 10.799999
    endloop
  endfacet
  facet normal -1 0 0
    outer loop
      vertex 71.5 96.5 11.799999
      vertex 71.5 0.40192413 10.799999
      vertex 71.5 0.40192413 11.799999
    endloop
  endfacet
  facet normal 0 -0.70710677 -0.70710677
    outer loop
      vertex 1.5 96.5 11.799999
      vertex 71 96 12.299999
      vertex 2 96 12.299999
    endloop
  endfacet
  facet normal 0 -0.70710677 -0.70710677
    outer loop
      vertex 71 96 12.299999
      vertex 1.5 96.5 11.799999
      vertex 71.5 96.5 11.799999
    endloop
  endfacet
  facet normal 0 -1 0
    outer loop
      vertex 1.5 96.5 10.799999
      vertex 71.5 96.5 11.799999
      vertex 1.5 96.5 11.799999
    endloop
  endfacet
  facet normal 0 -1 0
    outer loop
      vertex 71.5 96.5 11.799999
      vertex 1.5 96.5 10.799999
      vertex 71.5 96.5 10.799999
    endloop
  endfacet
  facet normal 0.70710677 -0.70710677 0
    outer loop
      vertex 71.5 0.40192413 11.799999
      vertex 72.598076 1.5 13.799998
      vertex 71.5 0.40192413 13.799998
    endloop
  endfacet
  facet normal 0.70710677 -0.70710677 0
    outer loop
      vertex 71.5 0.40192413 10.799999
      vertex 72.598076 1.5 13.799998
      vertex 71.5 0.40192413 11.799999
    endloop
  endfacet
  facet normal 0.70710677 -0.70710677 0
    outer loop
      vertex 72.598076 1.5 13.799998
      vertex 71.5 0.40192413 10.799999
      vertex 72.598076 1.5 0
    endloop
  endfacet
  facet normal 0.70710677 -0.70710677 0
    outer loop
      vertex 72.598076 1.5 0
      vertex 71.5 0.40192413 10.799999
      vertex 71.5 0.40192413 0
    endloop
  endfacet
  facet normal -1 0 0
    outer loop
      vertex 0 3 0
      vertex 0 95 13.799998
      vertex 0 95 0
    endloop
  endfacet
  facet normal -1 0 0
    outer loop
      vertex 0 95 13.799998
      vertex 0 3 0
      vertex 0 3 13.799998
    endloop
  endfacet
  facet normal 0.25881925 0.96592575 0
    outer loop
      vertex 71.5 97.598076 0
      vertex 70 98 13.799998
      vertex 71.5 97.598076 13.799998
    endloop
  endfacet
  facet normal 0.25881925 0.96592575 0
    outer loop
      vertex 70 98 13.799998
      vertex 71.5 97.598076 0
      vertex 70 98 0
    endloop
  endfacet
  facet normal -0.96592575 -0.25881925 0
    outer loop
      vertex 0.40192413 1.5 0
      vertex 0 3 13.799998
      vertex 0 3 0
    endloop
  endfacet
  facet normal -0.96592575 -0.25881925 0
    outer loop
      vertex 0 3 13.799998
      vertex 0.40192413 1.5 0
      vertex 0.40192413 1.5 13.799998
    endloop
  endfacet
  facet normal 0 0 -1
    outer loop
      vertex 70 0 0
      vertex 73 3 0
      vertex 72.598076 1.5 0
    endloop
  endfacet
  facet normal 0 0 -1
    outer loop
      vertex 0 3 0
      vertex 73 3 0
      vertex 70 0 0
    endloop
  endfacet
  facet normal 0 0 -1
    outer loop
      vertex 70 0 0
      vertex 72.598076 1.5 0
      vertex 71.5 0.40192413 0
    endloop
  endfacet
  facet normal 0 0 -1
    outer loop
      vertex 73 3 0
      vertex 0 3 0
      vertex 73 95 0
    endloop
  endfacet
  facet normal 0 0 -1
    outer loop
      vertex 73 95 0
      vertex 70 98 0
      vertex 72.598076 96.5 0
    endloop
  endfacet
  facet normal 0 0 -1
    outer loop
      vertex 72.598076 96.5 0
      vertex 70 98 0
      vertex 71.5 97.598076 0
    endloop
  endfacet
  facet normal 0 0 -1
    outer loop
      vertex 0 3 0
      vertex 70 0 0
      vertex 3 0 0
    endloop
  endfacet
  facet normal 0 0 -1
    outer loop
      vertex 0 95 0
      vertex 73 95 0
      vertex 0 3 0
    endloop
  endfacet
  facet normal 0 0 -1
    outer loop
      vertex 0 3 0
      vertex 3 0 0
      vertex 1.5 0.40192413 0
    endloop
  endfacet
  facet normal 0 0 -1
    outer loop
      vertex 73 95 0
      vertex 0 95 0
      vertex 70 98 0
    endloop
  endfacet
  facet normal 0 0 -1
    outer loop
      vertex 0 3 0
      vertex 1.5 0.40192413 0
      vertex 0.40192413 1.5 0
    endloop
  endfacet
  facet normal 0 0 -1
    outer loop
      vertex 70 98 0
      vertex 0 95 0
      vertex 3 98 0
    endloop
  endfacet
  facet normal 0 0 -1
    outer loop
      vertex 3 98 0
      vertex 0 95 0
      vertex 1.5 97.598076 0
    endloop
  endfacet
  facet normal 0 0 -1
    outer loop
      vertex 1.5 97.598076 0
      vertex 0 95 0
      vertex 0.40192413 96.5 0
    endloop
  endfacet
  facet normal 0.70710677 0.70710677 0
    outer loop
      vertex 72.598076 96.5 13.799998
      vertex 71.5 97.598076 0
      vertex 71.5 97.598076 13.799998
    endloop
  endfacet
  facet normal 0.70710677 0.70710677 0
    outer loop
      vertex 71.5 97.598076 0
      vertex 72.598076 96.5 13.799998
      vertex 72.598076 96.5 0
    endloop
  endfacet
  facet normal 0.96592575 0.25881925 0
    outer loop
      vertex 73 95 13.799998
      vertex 72.598076 96.5 0
      vertex 72.598076 96.5 13.799998
    endloop
  endfacet
  facet normal 0.96592575 0.25881925 0
    outer loop
      vertex 72.598076 96.5 0
      vertex 73 95 13.799998
      vertex 73 95 0
    endloop
  endfacet
  facet normal 0.96592575 -0.25881925 0
    outer loop
      vertex 72.598076 1.5 13.799998
      vertex 73 3 0
      vertex 73 3 13.799998
    endloop
  endfacet
  facet normal 0.96592575 -0.25881925 0
    outer loop
      vertex 73 3 0
      vertex 72.598076 1.5 13.799998
      vertex 72.598076 1.5 0
    endloop
  endfacet
  facet normal -0.70710677 0.70710677 0
    outer loop
      vertex 0.40192413 96.5 0
      vertex 1.5 97.598076 13.799998
      vertex 1.5 97.598076 0
    endloop
  endfacet
  facet normal -0.70710677 0.70710677 0
    outer loop
      vertex 1.5 97.598076 13.799998
      vertex 0.40192413 96.5 0
      vertex 0.40192413 96.5 13.799998
    endloop
  endfacet
  facet normal -0.70710677 -0.70710677 0
    outer loop
      vertex 1.5 0.40192413 10.799999
      vertex 0.40192413 1.5 0
      vertex 1.5 0.40192413 0
    endloop
  endfacet
  facet normal -0.70710677 -0.70710677 0
    outer loop
      vertex 0.40192413 1.5 0
      vertex 1.5 0.40192413 10.799999
      vertex 0.40192413 1.5 13.799998
    endloop
  endfacet
  facet normal -0.70710677 -0.70710677 0
    outer loop
      vertex 1.5 0.40192413 11.799999
      vertex 0.40192413 1.5 13.799998
      vertex 1.5 0.40192413 10.799999
    endloop
  endfacet
  facet normal -0.70710677 -0.70710677 0
    outer loop
      vertex 0.40192413 1.5 13.799998
      vertex 1.5 0.40192413 11.799999
      vertex 1.5 0.40192413 13.799998
    endloop
  endfacet
  facet normal 0.25881925 -0.96592575 0
    outer loop
      vertex 70 0 0
      vertex 71.5 0.40192413 10.799999
      vertex 70 0 10.799999
    endloop
  endfacet
  facet normal 0.25881925 -0.96592575 0
    outer loop
      vertex 71.5 0.40192413 10.799999
      vertex 70 0 0
      vertex 71.5 0.40192413 0
    endloop
  endfacet
  facet normal 0.25881925 -0.96592575 0
    outer loop
      vertex 71 0.26794943 12.299999
      vertex 70 0 13.799998
      vertex 70 0 12.299999
    endloop
  endfacet
  facet normal 0.25881925 -0.96592575 -6.3970775e-9
    outer loop
      vertex 70 0 13.799998
      vertex 71 0.26794943 12.299999
      vertex 71.5 0.40192413 13.799998
    endloop
  endfacet
  facet normal 0.25881922 -0.96592575 0
    outer loop
      vertex 71.5 0.40192413 13.799998
      vertex 71 0.26794943 12.299999
      vertex 71.5 0.40192413 11.799999
    endloop
  endfacet
  facet normal 0 0 1
    outer loop
      vertex 3 98 13.799998
      vertex 70 95.2 13.799998
      vertex 70 98 13.799998
    endloop
  endfacet
  facet normal 0 0 1
    outer loop
      vertex 3 98 13.799998
      vertex 3 95.2 13.799998
      vertex 70 95.2 13.799998
    endloop
  endfacet
  facet normal 0 0 1
    outer loop
      vertex 1.5 97.598076 13.799998
      vertex 3 95.2 13.799998
      vertex 3 98 13.799998
    endloop
  endfacet
  facet normal 0 0 1
    outer loop
      vertex 0.40192413 96.5 13.799998
      vertex 3 95.2 13.799998
      vertex 1.5 97.598076 13.799998
    endloop
  endfacet
  facet normal 0 0 1
    outer loop
      vertex 0 3 13.799998
      vertex 3 95.2 13.799998
      vertex 0 95 13.799998
    endloop
  endfacet
  facet normal 0 0 1
    outer loop
      vertex 3 95.2 13.799998
      vertex 0.40192413 96.5 13.799998
      vertex 0 95 13.799998
    endloop
  endfacet
  facet normal 0 0 1
    outer loop
      vertex 3 95.2 13.799998
      vertex 0 3 13.799998
      vertex 3 0 13.799998
    endloop
  endfacet
  facet normal 0 0 1
    outer loop
      vertex 3 0 13.799998
      vertex 0 3 13.799998
      vertex 1.5 0.40192413 13.799998
    endloop
  endfacet
  facet normal 0 0 1
    outer loop
      vertex 1.5 0.40192413 13.799998
      vertex 0 3 13.799998
      vertex 0.40192413 1.5 13.799998
    endloop
  endfacet
  facet normal 0 0 1
    outer loop
      vertex 70 95.2 13.799998
      vertex 73 95 13.799998
      vertex 72.598076 96.5 13.799998
    endloop
  endfacet
  facet normal 0 0 1
    outer loop
      vertex 73 95 13.799998
      vertex 70 95.2 13.799998
      vertex 73 3 13.799998
    endloop
  endfacet
  facet normal 0 0 1
    outer loop
      vertex 70 95.2 13.799998
      vertex 72.598076 96.5 13.799998
      vertex 71.5 97.598076 13.799998
    endloop
  endfacet
  facet normal 0 0 1
    outer loop
      vertex 70 0 13.799998
      vertex 73 3 13.799998
      vertex 70 95.2 13.799998
    endloop
  endfacet
  facet normal 0 0 1
    outer loop
      vertex 70 95.2 13.799998
      vertex 71.5 97.598076 13.799998
      vertex 70 98 13.799998
    endloop
  endfacet
  facet normal 0 0 1
    outer loop
      vertex 73 3 13.799998
      vertex 70 0 13.799998
      vertex 72.598076 1.5 13.799998
    endloop
  endfacet
  facet normal 0 0 1
    outer loop
      vertex 72.598076 1.5 13.799998
      vertex 70 0 13.799998
      vertex 71.5 0.40192413 13.799998
    endloop
  endfacet
  facet normal 1 0 0
    outer loop
      vertex 73 3 13.799998
      vertex 73 95 0
      vertex 73 95 13.799998
    endloop
  endfacet
  facet normal 1 0 0
    outer loop
      vertex 73 95 0
      vertex 73 3 13.799998
      vertex 73 3 0
    endloop
  endfacet
  facet normal 0 -1 0
    outer loop
      vertex 3 0 0
      vertex 70 0 10.799999
      vertex 3 0 10.799999
    endloop
  endfacet
  facet normal 0 -1 0
    outer loop
      vertex 70 0 10.799999
      vertex 3 0 0
      vertex 70 0 0
    endloop
  endfacet
  facet normal -0.96592575 0.25881925 0
    outer loop
      vertex 0 95 0
      vertex 0.40192413 96.5 13.799998
      vertex 0.40192413 96.5 0
    endloop
  endfacet
  facet normal -0.96592575 0.25881925 0
    outer loop
      vertex 0.40192413 96.5 13.799998
      vertex 0 95 0
      vertex 0 95 13.799998
    endloop
  endfacet
  facet normal -0.25881925 -0.96592575 0
    outer loop
      vertex 1.5 0.40192413 0
      vertex 3 0 10.799999
      vertex 1.5 0.40192413 10.799999
    endloop
  endfacet
  facet normal -0.25881925 -0.96592575 0
    outer loop
      vertex 3 0 10.799999
      vertex 1.5 0.40192413 0
      vertex 3 0 0
    endloop
  endfacet
  facet normal -0.25881925 -0.96592575 -6.3970775e-9
    outer loop
      vertex 1.5 0.40192413 13.799998
      vertex 2 0.26794943 12.299999
      vertex 3 0 13.799998
    endloop
  endfacet
  facet normal -0.25881922 -0.96592575 0
    outer loop
      vertex 2 0.26794943 12.299999
      vertex 1.5 0.40192413 13.799998
      vertex 1.5 0.40192413 11.799999
    endloop
  endfacet
  facet normal -0.25881925 -0.96592575 0
    outer loop
      vertex 3 0 13.799998
      vertex 2 0.26794943 12.299999
      vertex 3 0 12.299999
    endloop
  endfacet
  facet normal 0 1 0
    outer loop
      vertex 70 98 0
      vertex 3 98 13.799998
      vertex 70 98 13.799998
    endloop
  endfacet
  facet normal 0 1 0
    outer loop
      vertex 3 98 13.799998
      vertex 70 98 0
      vertex 3 98 0
    endloop
  endfacet
  facet normal -0.25881925 0.96592575 0
    outer loop
      vertex 3 98 0
      vertex 1.5 97.598076 13.799998
      vertex 3 98 13.799998
    endloop
  endfacet
  facet normal -0.25881925 0.96592575 0
    outer loop
      vertex 1.5 97.598076 13.799998
      vertex 3 98 0
      vertex 1.5 97.598076 0
    endloop
  endfacet
  facet normal 0 0 1
    outer loop
      vertex 3 95 2
      vertex 70 3 2
      vertex 70 95 2
    endloop
  endfacet
  facet normal 0 0 1
    outer loop
      vertex 70 3 2
      vertex 3 95 2
      vertex 3 3 2
    endloop
  endfacet
  facet normal 0 -1 0
    outer loop
      vertex 3 95 2
      vertex 70 95 10.799999
      vertex 3 95 10.799999
    endloop
  endfacet
  facet normal 0 -1 0
    outer loop
      vertex 70 95 10.799999
      vertex 3 95 2
      vertex 70 95 2
    endloop
  endfacet
  facet normal 0 1 0
    outer loop
      vertex 70 3 2
      vertex 3 3 10.799999
      vertex 70 3 10.799999
    endloop
  endfacet
  facet normal 0 1 0
    outer loop
      vertex 3 3 10.799999
      vertex 70 3 2
      vertex 3 3 2
    endloop
  endfacet
endsolid OpenSCAD_Model
