solid OpenSCAD_Model
  facet normal -1 0 0
    outer loop
      vertex 70 0 11.099999
      vertex 70 95.2 12.599998
      vertex 70 95.2 11.099999
    endloop
  endfacet
  facet normal -1 0 0
    outer loop
      vertex 70 95.2 12.599998
      vertex 70 0 11.099999
      vertex 70 0 12.599998
    endloop
  endfacet
  facet normal -1 0 0
    outer loop
      vertex 70 3 2
      vertex 70 95 9.599999
      vertex 70 95 2
    endloop
  endfacet
  facet normal -1 0 0
    outer loop
      vertex 70 95 9.599999
      vertex 70 3 2
      vertex 70 3 9.599999
    endloop
  endfacet
  facet normal 0 0 1
    outer loop
      vertex 70 3 9.599999
      vertex 71.5 96.5 9.599999
      vertex 70 95 9.599999
    endloop
  endfacet
  facet normal 0 0 1
    outer loop
      vertex 71.5 96.5 9.599999
      vertex 3 95 9.599999
      vertex 70 95 9.599999
    endloop
  endfacet
  facet normal 0 0 1
    outer loop
      vertex 1.5 96.5 9.599999
      vertex 3 3 9.599999
      vertex 3 95 9.599999
    endloop
  endfacet
  facet normal 0 0 1
    outer loop
      vertex 1.5 96.5 9.599999
      vertex 3 95 9.599999
      vertex 71.5 96.5 9.599999
    endloop
  endfacet
  facet normal 0 0 1
    outer loop
      vertex 3 3 9.599999
      vertex 1.5 96.5 9.599999
      vertex 1.5 0.40192413 9.599999
    endloop
  endfacet
  facet normal 0 0 1
    outer loop
      vertex 3 3 9.599999
      vertex 1.5 0.40192413 9.599999
      vertex 3 0 9.599999
    endloop
  endfacet
  facet normal 0 0 1
    outer loop
      vertex 71.5 96.5 9.599999
      vertex 70 3 9.599999
      vertex 71.5 0.40192413 9.599999
    endloop
  endfacet
  facet normal 0 0 1
    outer loop
      vertex 70 3 9.599999
      vertex 70 0 9.599999
      vertex 71.5 0.40192413 9.599999
    endloop
  endfacet
  facet normal 0 0 1
    outer loop
      vertex 3 3 9.599999
      vertex 70 0 9.599999
      vertex 70 3 9.599999
    endloop
  endfacet
  facet normal 0 0 1
    outer loop
      vertex 70 0 9.599999
      vertex 3 3 9.599999
      vertex 3 0 9.599999
    endloop
  endfacet
  facet normal 1 0 0
    outer loop
      vertex 3 0 12.599998
      vertex 3 95.2 11.099999
      vertex 3 95.2 12.599998
    endloop
  endfacet
  facet normal 1 0 0
    outer loop
      vertex 3 95.2 11.099999
      vertex 3 0 12.599998
      vertex 3 0 11.099999
    endloop
  endfacet
  facet normal 1 0 0
    outer loop
      vertex 3 3 9.599999
      vertex 3 95 2
      vertex 3 95 9.599999
    endloop
  endfacet
  facet normal 1 0 0
    outer loop
      vertex 3 95 2
      vertex 3 3 9.599999
      vertex 3 3 2
    endloop
  endfacet
  facet normal 0 -1 0
    outer loop
      vertex 3 95.2 11.099999
      vertex 70 95.2 12.599998
      vertex 3 95.2 12.599998
    endloop
  endfacet
  facet normal 0 -1 0
    outer loop
      vertex 70 95.2 12.599998
      vertex 3 95.2 11.099999
      vertex 70 95.2 11.099999
    endloop
  endfacet
  facet normal 0.70710677 0 -0.70710677
    outer loop
      vertex 2 96 11.099999
      vertex 1.5 0.40192413 10.599999
      vertex 1.5 96.5 10.599999
    endloop
  endfacet
  facet normal 0.70710677 0 -0.70710677
    outer loop
      vertex 1.5 0.40192413 10.599999
      vertex 2 96 11.099999
      vertex 2 0.26794943 11.099999
    endloop
  endfacet
  facet normal -0.70710677 0 -0.70710677
    outer loop
      vertex 71.5 0.40192413 10.599999
      vertex 71 96 11.099999
      vertex 71.5 96.5 10.599999
    endloop
  endfacet
  facet normal -0.70710677 0 -0.70710677
    outer loop
      vertex 71 96 11.099999
      vertex 71.5 0.40192413 10.599999
      vertex 71 0.26794943 11.099999
    endloop
  endfacet
  facet normal 1 0 0
    outer loop
      vertex 1.5 0.40192413 10.599999
      vertex 1.5 96.5 9.599999
      vertex 1.5 96.5 10.599999
    endloop
  endfacet
  facet normal 1 0 0
    outer loop
      vertex 1.5 96.5 9.599999
      vertex 1.5 0.40192413 10.599999
      vertex 1.5 0.40192413 9.599999
    endloop
  endfacet
  facet normal 0 -0.70710677 -0.70710677
    outer loop
      vertex 1.5 96.5 10.599999
      vertex 71 96 11.099999
      vertex 2 96 11.099999
    endloop
  endfacet
  facet normal 0 -0.70710677 -0.70710677
    outer loop
      vertex 71 96 11.099999
      vertex 1.5 96.5 10.599999
      vertex 71.5 96.5 10.599999
    endloop
  endfacet
  facet normal 0 0 -1
    outer loop
      vertex 3 0 11.099999
      vertex 2 0.26794943 11.099999
      vertex 3 95.2 11.099999
    endloop
  endfacet
  facet normal 0 0 -1
    outer loop
      vertex 70 95.2 11.099999
      vertex 71 0.26794943 11.099999
      vertex 70 0 11.099999
    endloop
  endfacet
  facet normal 0 0 -1
    outer loop
      vertex 71 0.26794943 11.099999
      vertex 70 95.2 11.099999
      vertex 71 96 11.099999
    endloop
  endfacet
  facet normal 0 0 -1
    outer loop
      vertex 3 95.2 11.099999
      vertex 71 96 11.099999
      vertex 70 95.2 11.099999
    endloop
  endfacet
  facet normal 0 0 -1
    outer loop
      vertex 3 95.2 11.099999
      vertex 2 96 11.099999
      vertex 71 96 11.099999
    endloop
  endfacet
  facet normal 0 0 -1
    outer loop
      vertex 2 96 11.099999
      vertex 3 95.2 11.099999
      vertex 2 0.26794943 11.099999
    endloop
  endfacet
  facet normal 0 -1 0
    outer loop
      vertex 1.5 96.5 9.599999
      vertex 71.5 96.5 10.599999
      vertex 1.5 96.5 10.599999
    endloop
  endfacet
  facet normal 0 -1 0
    outer loop
      vertex 71.5 96.5 10.599999
      vertex 1.5 96.5 9.599999
      vertex 71.5 96.5 9.599999
    endloop
  endfacet
  facet normal -1 0 0
    outer loop
      vertex 71.5 0.40192413 9.599999
      vertex 71.5 96.5 10.599999
      vertex 71.5 96.5 9.599999
    endloop
  endfacet
  facet normal -1 0 0
    outer loop
      vertex 71.5 96.5 10.599999
      vertex 71.5 0.40192413 9.599999
      vertex 71.5 0.40192413 10.599999
    endloop
  endfacet
  facet normal -0.96592575 -0.25881925 0
    outer loop
      vertex 0.40192413 1.5 0
      vertex 0 3 12.599998
      vertex 0 3 0
    endloop
  endfacet
  facet normal -0.96592575 -0.25881925 0
    outer loop
      vertex 0 3 12.599998
      vertex 0.40192413 1.5 0
      vertex 0.40192413 1.5 12.599998
    endloop
  endfacet
  facet normal -0.70710677 0.70710677 0
    outer loop
      vertex 0.40192413 96.5 0
      vertex 1.5 97.598076 12.599998
      vertex 1.5 97.598076 0
    endloop
  endfacet
  facet normal -0.70710677 0.70710677 0
    outer loop
      vertex 1.5 97.598076 12.599998
      vertex 0.40192413 96.5 0
      vertex 0.40192413 96.5 12.599998
    endloop
  endfacet
  facet normal -1 0 0
    outer loop
      vertex 0 3 0
      vertex 0 95 12.599998
      vertex 0 95 0
    endloop
  endfacet
  facet normal -1 0 0
    outer loop
      vertex 0 95 12.599998
      vertex 0 3 0
      vertex 0 3 12.599998
    endloop
  endfacet
  facet normal 1 0 0
    outer loop
      vertex 73 3 12.599998
      vertex 73 95 0
      vertex 73 95 12.599998
    endloop
  endfacet
  facet normal 1 0 0
    outer loop
      vertex 73 95 0
      vertex 73 3 12.599998
      vertex 73 3 0
    endloop
  endfacet
  facet normal 0.70710677 0.70710677 0
    outer loop
      vertex 72.598076 96.5 12.599998
      vertex 71.5 97.598076 0
      vertex 71.5 97.598076 12.599998
    endloop
  endfacet
  facet normal 0.70710677 0.70710677 0
    outer loop
      vertex 71.5 97.598076 0
      vertex 72.598076 96.5 12.599998
      vertex 72.598076 96.5 0
    endloop
  endfacet
  facet normal -0.96592575 0.25881925 0
    outer loop
      vertex 0 95 0
      vertex 0.40192413 96.5 12.599998
      vertex 0.40192413 96.5 0
    endloop
  endfacet
  facet normal -0.96592575 0.25881925 0
    outer loop
      vertex 0.40192413 96.5 12.599998
      vertex 0 95 0
      vertex 0 95 12.599998
    endloop
  endfacet
  facet normal 0.96592575 0.25881925 0
    outer loop
      vertex 73 95 12.599998
      vertex 72.598076 96.5 0
      vertex 72.598076 96.5 12.599998
    endloop
  endfacet
  facet normal 0.96592575 0.25881925 0
    outer loop
      vertex 72.598076 96.5 0
      vertex 73 95 12.599998
      vertex 73 95 0
    endloop
  endfacet
  facet normal 0 -1 0
    outer loop
      vertex 3 0 0
      vertex 70 0 9.599999
      vertex 3 0 9.599999
    endloop
  endfacet
  facet normal 0 -1 0
    outer loop
      vertex 70 0 9.599999
      vertex 3 0 0
      vertex 70 0 0
    endloop
  endfacet
  facet normal 0 1 0
    outer loop
      vertex 70 98 0
      vertex 3 98 12.599998
      vertex 70 98 12.599998
    endloop
  endfacet
  facet normal 0 1 0
    outer loop
      vertex 3 98 12.599998
      vertex 70 98 0
      vertex 3 98 0
    endloop
  endfacet
  facet normal -0.70710677 -0.70710677 0
    outer loop
      vertex 1.5 0.40192413 9.599999
      vertex 0.40192413 1.5 0
      vertex 1.5 0.40192413 0
    endloop
  endfacet
  facet normal -0.70710677 -0.70710677 0
    outer loop
      vertex 0.40192413 1.5 0
      vertex 1.5 0.40192413 9.599999
      vertex 0.40192413 1.5 12.599998
    endloop
  endfacet
  facet normal -0.70710677 -0.70710677 0
    outer loop
      vertex 1.5 0.40192413 10.599999
      vertex 0.40192413 1.5 12.599998
      vertex 1.5 0.40192413 9.599999
    endloop
  endfacet
  facet normal -0.70710677 -0.70710677 0
    outer loop
      vertex 0.40192413 1.5 12.599998
      vertex 1.5 0.40192413 10.599999
      vertex 1.5 0.40192413 12.599998
    endloop
  endfacet
  facet normal 0.96592575 -0.25881925 0
    outer loop
      vertex 72.598076 1.5 12.599998
      vertex 73 3 0
      vertex 73 3 12.599998
    endloop
  endfacet
  facet normal 0.96592575 -0.25881925 0
    outer loop
      vertex 73 3 0
      vertex 72.598076 1.5 12.599998
      vertex 72.598076 1.5 0
    endloop
  endfacet
  facet normal -0.25881925 0.96592575 0
    outer loop
      vertex 3 98 0
      vertex 1.5 97.598076 12.599998
      vertex 3 98 12.599998
    endloop
  endfacet
  facet normal -0.25881925 0.96592575 0
    outer loop
      vertex 1.5 97.598076 12.599998
      vertex 3 98 0
      vertex 1.5 97.598076 0
    endloop
  endfacet
  facet normal -0.25881925 -0.96592575 -6.3970775e-9
    outer loop
      vertex 1.5 0.40192413 12.599998
      vertex 2 0.26794943 11.099999
      vertex 3 0 12.599998
    endloop
  endfacet
  facet normal -0.25881922 -0.96592575 0
    outer loop
      vertex 2 0.26794943 11.099999
      vertex 1.5 0.40192413 12.599998
      vertex 1.5 0.40192413 10.599999
    endloop
  endfacet
  facet normal -0.25881925 -0.96592575 0
    outer loop
      vertex 3 0 12.599998
      vertex 2 0.26794943 11.099999
      vertex 3 0 11.099999
    endloop
  endfacet
  facet normal -0.25881925 -0.96592575 0
    outer loop
      vertex 1.5 0.40192413 0
      vertex 3 0 9.599999
      vertex 1.5 0.40192413 9.599999
    endloop
  endfacet
  facet normal -0.25881925 -0.96592575 0
    outer loop
      vertex 3 0 9.599999
      vertex 1.5 0.40192413 0
      vertex 3 0 0
    endloop
  endfacet
  facet normal 0.25881925 0.96592575 0
    outer loop
      vertex 71.5 97.598076 0
      vertex 70 98 12.599998
      vertex 71.5 97.598076 12.599998
    endloop
  endfacet
  facet normal 0.25881925 0.96592575 0
    outer loop
      vertex 70 98 12.599998
      vertex 71.5 97.598076 0
      vertex 70 98 0
    endloop
  endfacet
  facet normal 0 0 -1
    outer loop
      vertex 70 0 0
      vertex 73 3 0
      vertex 72.598076 1.5 0
    endloop
  endfacet
  facet normal 0 0 -1
    outer loop
      vertex 0 3 0
      vertex 73 3 0
      vertex 70 0 0
    endloop
  endfacet
  facet normal 0 0 -1
    outer loop
      vertex 70 0 0
      vertex 72.598076 1.5 0
      vertex 71.5 0.40192413 0
    endloop
  endfacet
  facet normal 0 0 -1
    outer loop
      vertex 73 3 0
      vertex 0 3 0
      vertex 73 95 0
    endloop
  endfacet
  facet normal 0 0 -1
    outer loop
      vertex 73 95 0
      vertex 70 98 0
      vertex 72.598076 96.5 0
    endloop
  endfacet
  facet normal 0 0 -1
    outer loop
      vertex 72.598076 96.5 0
      vertex 70 98 0
      vertex 71.5 97.598076 0
    endloop
  endfacet
  facet normal 0 0 -1
    outer loop
      vertex 0 3 0
      vertex 70 0 0
      vertex 3 0 0
    endloop
  endfacet
  facet normal 0 0 -1
    outer loop
      vertex 0 95 0
      vertex 73 95 0
      vertex 0 3 0
    endloop
  endfacet
  facet normal 0 0 -1
    outer loop
      vertex 0 3 0
      vertex 3 0 0
      vertex 1.5 0.40192413 0
    endloop
  endfacet
  facet normal 0 0 -1
    outer loop
      vertex 73 95 0
      vertex 0 95 0
      vertex 70 98 0
    endloop
  endfacet
  facet normal 0 0 -1
    outer loop
      vertex 0 3 0
      vertex 1.5 0.40192413 0
      vertex 0.40192413 1.5 0
    endloop
  endfacet
  facet normal 0 0 -1
    outer loop
      vertex 70 98 0
      vertex 0 95 0
      vertex 3 98 0
    endloop
  endfacet
  facet normal 0 0 -1
    outer loop
      vertex 3 98 0
      vertex 0 95 0
      vertex 1.5 97.598076 0
    endloop
  endfacet
  facet normal 0 0 -1
    outer loop
      vertex 1.5 97.598076 0
      vertex 0 95 0
      vertex 0.40192413 96.5 0
    endloop
  endfacet
  facet normal 0.70710677 -0.70710677 0
    outer loop
      vertex 71.5 0.40192413 10.599999
      vertex 72.598076 1.5 12.599998
      vertex 71.5 0.40192413 12.599998
    endloop
  endfacet
  facet normal 0.70710677 -0.70710677 0
    outer loop
      vertex 71.5 0.40192413 9.599999
      vertex 72.598076 1.5 12.599998
      vertex 71.5 0.40192413 10.599999
    endloop
  endfacet
  facet normal 0.70710677 -0.70710677 0
    outer loop
      vertex 72.598076 1.5 12.599998
      vertex 71.5 0.40192413 9.599999
      vertex 72.598076 1.5 0
    endloop
  endfacet
  facet normal 0.70710677 -0.70710677 0
    outer loop
      vertex 72.598076 1.5 0
      vertex 71.5 0.40192413 9.599999
      vertex 71.5 0.40192413 0
    endloop
  endfacet
  facet normal 0.25881925 -0.96592575 0
    outer loop
      vertex 70 0 0
      vertex 71.5 0.40192413 9.599999
      vertex 70 0 9.599999
    endloop
  endfacet
  facet normal 0.25881925 -0.96592575 0
    outer loop
      vertex 71.5 0.40192413 9.599999
      vertex 70 0 0
      vertex 71.5 0.40192413 0
    endloop
  endfacet
  facet normal 0.25881925 -0.96592575 0
    outer loop
      vertex 71 0.26794943 11.099999
      vertex 70 0 12.599998
      vertex 70 0 11.099999
    endloop
  endfacet
  facet normal 0.25881925 -0.96592575 -6.3970775e-9
    outer loop
      vertex 70 0 12.599998
      vertex 71 0.26794943 11.099999
      vertex 71.5 0.40192413 12.599998
    endloop
  endfacet
  facet normal 0.25881922 -0.96592575 0
    outer loop
      vertex 71.5 0.40192413 12.599998
      vertex 71 0.26794943 11.099999
      vertex 71.5 0.40192413 10.599999
    endloop
  endfacet
  facet normal 0 0 1
    outer loop
      vertex 3 98 12.599998
      vertex 70 95.2 12.599998
      vertex 70 98 12.599998
    endloop
  endfacet
  facet normal 0 0 1
    outer loop
      vertex 3 98 12.599998
      vertex 3 95.2 12.599998
      vertex 70 95.2 12.599998
    endloop
  endfacet
  facet normal 0 0 1
    outer loop
      vertex 1.5 97.598076 12.599998
      vertex 3 95.2 12.599998
      vertex 3 98 12.599998
    endloop
  endfacet
  facet normal 0 0 1
    outer loop
      vertex 0.40192413 96.5 12.599998
      vertex 3 95.2 12.599998
      vertex 1.5 97.598076 12.599998
    endloop
  endfacet
  facet normal 0 0 1
    outer loop
      vertex 0 3 12.599998
      vertex 3 95.2 12.599998
      vertex 0 95 12.599998
    endloop
  endfacet
  facet normal 0 0 1
    outer loop
      vertex 3 95.2 12.599998
      vertex 0.40192413 96.5 12.599998
      vertex 0 95 12.599998
    endloop
  endfacet
  facet normal 0 0 1
    outer loop
      vertex 3 95.2 12.599998
      vertex 0 3 12.599998
      vertex 3 0 12.599998
    endloop
  endfacet
  facet normal 0 0 1
    outer loop
      vertex 3 0 12.599998
      vertex 0 3 12.599998
      vertex 1.5 0.40192413 12.599998
    endloop
  endfacet
  facet normal 0 0 1
    outer loop
      vertex 1.5 0.40192413 12.599998
      vertex 0 3 12.599998
      vertex 0.40192413 1.5 12.599998
    endloop
  endfacet
  facet normal 0 0 1
    outer loop
      vertex 70 95.2 12.599998
      vertex 73 95 12.599998
      vertex 72.598076 96.5 12.599998
    endloop
  endfacet
  facet normal 0 0 1
    outer loop
      vertex 73 95 12.599998
      vertex 70 95.2 12.599998
      vertex 73 3 12.599998
    endloop
  endfacet
  facet normal 0 0 1
    outer loop
      vertex 70 95.2 12.599998
      vertex 72.598076 96.5 12.599998
      vertex 71.5 97.598076 12.599998
    endloop
  endfacet
  facet normal 0 0 1
    outer loop
      vertex 70 0 12.599998
      vertex 73 3 12.599998
      vertex 70 95.2 12.599998
    endloop
  endfacet
  facet normal 0 0 1
    outer loop
      vertex 70 95.2 12.599998
      vertex 71.5 97.598076 12.599998
      vertex 70 98 12.599998
    endloop
  endfacet
  facet normal 0 0 1
    outer loop
      vertex 73 3 12.599998
      vertex 70 0 12.599998
      vertex 72.598076 1.5 12.599998
    endloop
  endfacet
  facet normal 0 0 1
    outer loop
      vertex 72.598076 1.5 12.599998
      vertex 70 0 12.599998
      vertex 71.5 0.40192413 12.599998
    endloop
  endfacet
  facet normal 0 0 1
    outer loop
      vertex 3 95 2
      vertex 70 3 2
      vertex 70 95 2
    endloop
  endfacet
  facet normal 0 0 1
    outer loop
      vertex 70 3 2
      vertex 3 95 2
      vertex 3 3 2
    endloop
  endfacet
  facet normal 0 -1 0
    outer loop
      vertex 3 95 2
      vertex 70 95 9.599999
      vertex 3 95 9.599999
    endloop
  endfacet
  facet normal 0 -1 0
    outer loop
      vertex 70 95 9.599999
      vertex 3 95 2
      vertex 70 95 2
    endloop
  endfacet
  facet normal 0 1 0
    outer loop
      vertex 70 3 2
      vertex 3 3 9.599999
      vertex 70 3 9.599999
    endloop
  endfacet
  facet normal 0 1 0
    outer loop
      vertex 3 3 9.599999
      vertex 70 3 2
      vertex 3 3 2
    endloop
  endfacet
endsolid OpenSCAD_Model
