solid OpenSCAD_Model
  facet normal 0.8628563 0.35740662 0.35740662
    outer loop
      vertex 29.414213 195.41422 39
      vertex 29.414213 194 40.414215
      vertex 30 194 39
    endloop
  endfacet
  facet normal -0.38268268 0.92387986 0
    outer loop
      vertex 2 196 2
      vertex 0.5857868 195.41422 39
      vertex 2 196 39
    endloop
  endfacet
  facet normal -0.38268268 0.92387986 0
    outer loop
      vertex 0.5857868 195.41422 39
      vertex 2 196 2
      vertex 0.5857868 195.41422 2
    endloop
  endfacet
  facet normal 0.38268372 -0.9238794 0
    outer loop
      vertex 28 0 2
      vertex 29.414213 0.5857868 39
      vertex 28 0 39
    endloop
  endfacet
  facet normal 0.38268372 -0.9238794 0
    outer loop
      vertex 29.414213 0.5857868 39
      vertex 28 0 2
      vertex 29.414213 0.5857868 2
    endloop
  endfacet
  facet normal 0.3574061 -0.3574061 0.86285675
    outer loop
      vertex 28 2 41
      vertex 28 0.5857868 40.414215
      vertex 29.414213 2 40.414215
    endloop
  endfacet
  facet normal -0.57735056 0.5773497 -0.57735056
    outer loop
      vertex 2 195.41422 0.5857868
      vertex 0.5857868 194 0.5857868
      vertex 0.5857868 195.41422 2
    endloop
  endfacet
  facet normal 0 0.38268223 0.92388004
    outer loop
      vertex 2 195.41422 40.414215
      vertex 28 194 41
      vertex 28 195.41422 40.414215
    endloop
  endfacet
  facet normal 0 0.38268223 0.92388004
    outer loop
      vertex 28 194 41
      vertex 2 195.41422 40.414215
      vertex 2 194 41
    endloop
  endfacet
  facet normal 0 -1 0
    outer loop
      vertex 2 0 2
      vertex 28 0 39
      vertex 2 0 39
    endloop
  endfacet
  facet normal 0 -1 0
    outer loop
      vertex 28 0 39
      vertex 2 0 2
      vertex 28 0 2
    endloop
  endfacet
  facet normal -0.9238794 0 -0.38268372
    outer loop
      vertex 0.5857868 2 0.5857868
      vertex 0 194 2
      vertex 0.5857868 194 0.5857868
    endloop
  endfacet
  facet normal -0.9238794 0 -0.38268372
    outer loop
      vertex 0 194 2
      vertex 0.5857868 2 0.5857868
      vertex 0 2 2
    endloop
  endfacet
  facet normal -0.86285603 -0.357407 -0.357407
    outer loop
      vertex 0.5857868 0.5857868 2
      vertex 0 2 2
      vertex 0.5857868 2 0.5857868
    endloop
  endfacet
  facet normal 0.35740706 0.35740656 -0.86285615
    outer loop
      vertex 29.414213 194 0.5857868
      vertex 28 194 0
      vertex 28 195.41422 0.5857868
    endloop
  endfacet
  facet normal -0.86285615 -0.35740706 0.35740656
    outer loop
      vertex 0.5857868 2 40.414215
      vertex 0 2 39
      vertex 0.5857868 0.5857868 39
    endloop
  endfacet
  facet normal 0.86285603 -0.357407 -0.357407
    outer loop
      vertex 30 2 2
      vertex 29.414213 0.5857868 2
      vertex 29.414213 2 0.5857868
    endloop
  endfacet
  facet normal -1 0 0
    outer loop
      vertex 0 2 2
      vertex 0 194 39
      vertex 0 194 2
    endloop
  endfacet
  facet normal -1 0 0
    outer loop
      vertex 0 194 39
      vertex 0 2 2
      vertex 0 2 39
    endloop
  endfacet
  facet normal 0.57735056 -0.57735056 0.5773497
    outer loop
      vertex 29.414213 2 40.414215
      vertex 28 0.5857868 40.414215
      vertex 29.414213 0.5857868 39
    endloop
  endfacet
  facet normal -0.38268372 -0.9238794 0
    outer loop
      vertex 0.5857868 0.5857868 2
      vertex 2 0 39
      vertex 0.5857868 0.5857868 39
    endloop
  endfacet
  facet normal -0.38268372 -0.9238794 0
    outer loop
      vertex 2 0 39
      vertex 0.5857868 0.5857868 2
      vertex 2 0 2
    endloop
  endfacet
  facet normal 0 -0.9238794 -0.38268372
    outer loop
      vertex 2 0.5857868 0.5857868
      vertex 28 0 2
      vertex 2 0 2
    endloop
  endfacet
  facet normal 0 -0.9238794 -0.38268372
    outer loop
      vertex 28 0 2
      vertex 2 0.5857868 0.5857868
      vertex 28 0.5857868 0.5857868
    endloop
  endfacet
  facet normal 1 0 0
    outer loop
      vertex 30 2 39
      vertex 30 194 2
      vertex 30 194 39
    endloop
  endfacet
  facet normal 1 0 0
    outer loop
      vertex 30 194 2
      vertex 30 2 39
      vertex 30 2 2
    endloop
  endfacet
  facet normal 0.57735026 -0.57735026 -0.57735026
    outer loop
      vertex 29.414213 0.5857868 2
      vertex 28 0.5857868 0.5857868
      vertex 29.414213 2 0.5857868
    endloop
  endfacet
  facet normal -0.38268372 0 -0.9238794
    outer loop
      vertex 0.5857868 2 0.5857868
      vertex 2 194 0
      vertex 2 2 0
    endloop
  endfacet
  facet normal -0.38268372 0 -0.9238794
    outer loop
      vertex 2 194 0
      vertex 0.5857868 2 0.5857868
      vertex 0.5857868 194 0.5857868
    endloop
  endfacet
  facet normal 0.357407 -0.86285603 -0.357407
    outer loop
      vertex 29.414213 0.5857868 2
      vertex 28 0 2
      vertex 28 0.5857868 0.5857868
    endloop
  endfacet
  facet normal 0.35740706 -0.86285615 0.35740656
    outer loop
      vertex 28 0.5857868 40.414215
      vertex 28 0 39
      vertex 29.414213 0.5857868 39
    endloop
  endfacet
  facet normal -0.92387956 0.3826833 0
    outer loop
      vertex 0 194 2
      vertex 0.5857868 195.41422 39
      vertex 0.5857868 195.41422 2
    endloop
  endfacet
  facet normal -0.92387956 0.3826833 0
    outer loop
      vertex 0.5857868 195.41422 39
      vertex 0 194 2
      vertex 0 194 39
    endloop
  endfacet
  facet normal 0 0.3826833 -0.92387956
    outer loop
      vertex 2 194 0
      vertex 28 195.41422 0.5857868
      vertex 28 194 0
    endloop
  endfacet
  facet normal 0 0.3826833 -0.92387956
    outer loop
      vertex 28 195.41422 0.5857868
      vertex 2 194 0
      vertex 2 195.41422 0.5857868
    endloop
  endfacet
  facet normal 0.92387956 0.3826833 0
    outer loop
      vertex 30 194 39
      vertex 29.414213 195.41422 2
      vertex 29.414213 195.41422 39
    endloop
  endfacet
  facet normal 0.92387956 0.3826833 0
    outer loop
      vertex 29.414213 195.41422 2
      vertex 30 194 39
      vertex 30 194 2
    endloop
  endfacet
  facet normal 0.357407 -0.357407 -0.86285603
    outer loop
      vertex 29.414213 2 0.5857868
      vertex 28 0.5857868 0.5857868
      vertex 28 2 0
    endloop
  endfacet
  facet normal 0 -0.38268372 -0.9238794
    outer loop
      vertex 2 0.5857868 0.5857868
      vertex 28 2 0
      vertex 28 0.5857868 0.5857868
    endloop
  endfacet
  facet normal 0 -0.38268372 -0.9238794
    outer loop
      vertex 28 2 0
      vertex 2 0.5857868 0.5857868
      vertex 2 2 0
    endloop
  endfacet
  facet normal 0.9238794 -0.38268372 0
    outer loop
      vertex 29.414213 0.5857868 39
      vertex 30 2 2
      vertex 30 2 39
    endloop
  endfacet
  facet normal 0.9238794 -0.38268372 0
    outer loop
      vertex 30 2 2
      vertex 29.414213 0.5857868 39
      vertex 29.414213 0.5857868 2
    endloop
  endfacet
  facet normal 0.38268268 0 0.92387986
    outer loop
      vertex 28 194 41
      vertex 29.414213 2 40.414215
      vertex 29.414213 194 40.414215
    endloop
  endfacet
  facet normal 0.38268268 0 0.92387986
    outer loop
      vertex 29.414213 2 40.414215
      vertex 28 194 41
      vertex 28 2 41
    endloop
  endfacet
  facet normal 0.9238794 0 -0.38268372
    outer loop
      vertex 30 2 2
      vertex 29.414213 194 0.5857868
      vertex 30 194 2
    endloop
  endfacet
  facet normal 0.9238794 0 -0.38268372
    outer loop
      vertex 29.414213 194 0.5857868
      vertex 30 2 2
      vertex 29.414213 2 0.5857868
    endloop
  endfacet
  facet normal 0.38268372 0 -0.9238794
    outer loop
      vertex 28 2 0
      vertex 29.414213 194 0.5857868
      vertex 29.414213 2 0.5857868
    endloop
  endfacet
  facet normal 0.38268372 0 -0.9238794
    outer loop
      vertex 29.414213 194 0.5857868
      vertex 28 2 0
      vertex 28 194 0
    endloop
  endfacet
  facet normal -0.9238794 -0.38268372 0
    outer loop
      vertex 0.5857868 0.5857868 2
      vertex 0 2 39
      vertex 0 2 2
    endloop
  endfacet
  facet normal -0.9238794 -0.38268372 0
    outer loop
      vertex 0 2 39
      vertex 0.5857868 0.5857868 2
      vertex 0.5857868 0.5857868 39
    endloop
  endfacet
  facet normal -0.38268268 0 0.92387986
    outer loop
      vertex 0.5857868 194 40.414215
      vertex 2 2 41
      vertex 2 194 41
    endloop
  endfacet
  facet normal -0.38268268 0 0.92387986
    outer loop
      vertex 2 2 41
      vertex 0.5857868 194 40.414215
      vertex 0.5857868 2 40.414215
    endloop
  endfacet
  facet normal -0.3574061 -0.3574061 0.86285675
    outer loop
      vertex 2 2 41
      vertex 0.5857868 2 40.414215
      vertex 2 0.5857868 40.414215
    endloop
  endfacet
  facet normal -0.57735056 -0.57735056 0.5773497
    outer loop
      vertex 0.5857868 2 40.414215
      vertex 0.5857868 0.5857868 39
      vertex 2 0.5857868 40.414215
    endloop
  endfacet
  facet normal 0.86285615 0.35740656 -0.35740706
    outer loop
      vertex 30 194 2
      vertex 29.414213 194 0.5857868
      vertex 29.414213 195.41422 2
    endloop
  endfacet
  facet normal 0 1 0
    outer loop
      vertex 28 196 2
      vertex 2 196 39
      vertex 28 196 39
    endloop
  endfacet
  facet normal 0 1 0
    outer loop
      vertex 2 196 39
      vertex 28 196 2
      vertex 2 196 2
    endloop
  endfacet
  facet normal 0.3574062 0.86285686 0.3574057
    outer loop
      vertex 28 196 39
      vertex 28 195.41422 40.414215
      vertex 29.414213 195.41422 39
    endloop
  endfacet
  facet normal -0.3574062 0.86285686 0.3574057
    outer loop
      vertex 2 196 39
      vertex 0.5857868 195.41422 39
      vertex 2 195.41422 40.414215
    endloop
  endfacet
  facet normal 0.38268268 0.92387986 0
    outer loop
      vertex 29.414213 195.41422 2
      vertex 28 196 39
      vertex 29.414213 195.41422 39
    endloop
  endfacet
  facet normal 0.38268268 0.92387986 0
    outer loop
      vertex 28 196 39
      vertex 29.414213 195.41422 2
      vertex 28 196 2
    endloop
  endfacet
  facet normal -0.357407 -0.86285603 -0.357407
    outer loop
      vertex 2 0 2
      vertex 0.5857868 0.5857868 2
      vertex 2 0.5857868 0.5857868
    endloop
  endfacet
  facet normal 0 0 -1
    outer loop
      vertex 2 2 0
      vertex 28 194 0
      vertex 28 2 0
    endloop
  endfacet
  facet normal 0 0 -1
    outer loop
      vertex 28 194 0
      vertex 2 2 0
      vertex 2 194 0
    endloop
  endfacet
  facet normal -0.57735026 -0.57735026 -0.57735026
    outer loop
      vertex 2 0.5857868 0.5857868
      vertex 0.5857868 0.5857868 2
      vertex 0.5857868 2 0.5857868
    endloop
  endfacet
  facet normal -0.357407 -0.357407 -0.86285603
    outer loop
      vertex 2 0.5857868 0.5857868
      vertex 0.5857868 2 0.5857868
      vertex 2 2 0
    endloop
  endfacet
  facet normal -0.35740706 -0.86285615 0.35740656
    outer loop
      vertex 2 0.5857868 40.414215
      vertex 0.5857868 0.5857868 39
      vertex 2 0 39
    endloop
  endfacet
  facet normal 0 -0.92387956 0.3826833
    outer loop
      vertex 2 0 39
      vertex 28 0.5857868 40.414215
      vertex 2 0.5857868 40.414215
    endloop
  endfacet
  facet normal 0 -0.92387956 0.3826833
    outer loop
      vertex 28 0.5857868 40.414215
      vertex 2 0 39
      vertex 28 0 39
    endloop
  endfacet
  facet normal -0.8628563 0.35740662 0.35740662
    outer loop
      vertex 0.5857868 195.41422 39
      vertex 0 194 39
      vertex 0.5857868 194 40.414215
    endloop
  endfacet
  facet normal -0.92387956 0 0.3826833
    outer loop
      vertex 0 2 39
      vertex 0.5857868 194 40.414215
      vertex 0 194 39
    endloop
  endfacet
  facet normal -0.92387956 0 0.3826833
    outer loop
      vertex 0.5857868 194 40.414215
      vertex 0 2 39
      vertex 0.5857868 2 40.414215
    endloop
  endfacet
  facet normal 0.86285615 -0.35740706 0.35740656
    outer loop
      vertex 29.414213 2 40.414215
      vertex 29.414213 0.5857868 39
      vertex 30 2 39
    endloop
  endfacet
  facet normal 0 -0.38268268 0.92387986
    outer loop
      vertex 2 2 41
      vertex 28 0.5857868 40.414215
      vertex 28 2 41
    endloop
  endfacet
  facet normal 0 -0.38268268 0.92387986
    outer loop
      vertex 28 0.5857868 40.414215
      vertex 2 2 41
      vertex 2 0.5857868 40.414215
    endloop
  endfacet
  facet normal 0.5773508 0.57735 0.57735
    outer loop
      vertex 29.414213 195.41422 39
      vertex 28 195.41422 40.414215
      vertex 29.414213 194 40.414215
    endloop
  endfacet
  facet normal -0.3574061 0.86285675 -0.3574061
    outer loop
      vertex 2 195.41422 0.5857868
      vertex 0.5857868 195.41422 2
      vertex 2 196 2
    endloop
  endfacet
  facet normal 0 0 1
    outer loop
      vertex 28 194 41
      vertex 27 193 41
      vertex 28 2 41
    endloop
  endfacet
  facet normal 0 0 1
    outer loop
      vertex 28 194 41
      vertex 3 193 41
      vertex 27 193 41
    endloop
  endfacet
  facet normal 0 0 1
    outer loop
      vertex 3 193 41
      vertex 2 194 41
      vertex 3 3 41
    endloop
  endfacet
  facet normal 0 0 1
    outer loop
      vertex 2 194 41
      vertex 3 193 41
      vertex 28 194 41
    endloop
  endfacet
  facet normal 0 0 1
    outer loop
      vertex 27 3 41
      vertex 28 2 41
      vertex 27 193 41
    endloop
  endfacet
  facet normal 0 0 1
    outer loop
      vertex 3 3 41
      vertex 28 2 41
      vertex 27 3 41
    endloop
  endfacet
  facet normal 0 0 1
    outer loop
      vertex 3 3 41
      vertex 2 2 41
      vertex 28 2 41
    endloop
  endfacet
  facet normal 0 0 1
    outer loop
      vertex 2 2 41
      vertex 3 3 41
      vertex 2 194 41
    endloop
  endfacet
  facet normal 0.3574062 0.3574057 0.86285686
    outer loop
      vertex 28 195.41422 40.414215
      vertex 28 194 41
      vertex 29.414213 194 40.414215
    endloop
  endfacet
  facet normal -0.5773508 0.57735 0.57735
    outer loop
      vertex 0.5857868 195.41422 39
      vertex 0.5857868 194 40.414215
      vertex 2 195.41422 40.414215
    endloop
  endfacet
  facet normal -0.3574062 0.3574057 0.86285686
    outer loop
      vertex 2 195.41422 40.414215
      vertex 0.5857868 194 40.414215
      vertex 2 194 41
    endloop
  endfacet
  facet normal -0.86285615 0.35740656 -0.35740706
    outer loop
      vertex 0.5857868 194 0.5857868
      vertex 0 194 2
      vertex 0.5857868 195.41422 2
    endloop
  endfacet
  facet normal 0 0.92387986 -0.38268268
    outer loop
      vertex 28 195.41422 0.5857868
      vertex 2 196 2
      vertex 28 196 2
    endloop
  endfacet
  facet normal 0 0.92387986 -0.38268268
    outer loop
      vertex 2 196 2
      vertex 28 195.41422 0.5857868
      vertex 2 195.41422 0.5857868
    endloop
  endfacet
  facet normal -0.35740706 0.35740656 -0.86285615
    outer loop
      vertex 2 194 0
      vertex 0.5857868 194 0.5857868
      vertex 2 195.41422 0.5857868
    endloop
  endfacet
  facet normal 0.3574061 0.86285675 -0.3574061
    outer loop
      vertex 29.414213 195.41422 2
      vertex 28 195.41422 0.5857868
      vertex 28 196 2
    endloop
  endfacet
  facet normal 0.57735056 0.5773497 -0.57735056
    outer loop
      vertex 29.414213 194 0.5857868
      vertex 28 195.41422 0.5857868
      vertex 29.414213 195.41422 2
    endloop
  endfacet
  facet normal 0.92387956 0 0.3826833
    outer loop
      vertex 29.414213 2 40.414215
      vertex 30 194 39
      vertex 29.414213 194 40.414215
    endloop
  endfacet
  facet normal 0.92387956 0 0.3826833
    outer loop
      vertex 30 194 39
      vertex 29.414213 2 40.414215
      vertex 30 2 39
    endloop
  endfacet
  facet normal 0 0.92388004 0.38268223
    outer loop
      vertex 28 196 39
      vertex 2 195.41422 40.414215
      vertex 28 195.41422 40.414215
    endloop
  endfacet
  facet normal 0 0.92388004 0.38268223
    outer loop
      vertex 2 195.41422 40.414215
      vertex 28 196 39
      vertex 2 196 39
    endloop
  endfacet
  facet normal -1 0 0
    outer loop
      vertex 27 3 2
      vertex 27 193 41
      vertex 27 193 2
    endloop
  endfacet
  facet normal -1 0 0
    outer loop
      vertex 27 193 41
      vertex 27 3 2
      vertex 27 3 41
    endloop
  endfacet
  facet normal 0 0 1
    outer loop
      vertex 3 193 2
      vertex 27 3 2
      vertex 27 193 2
    endloop
  endfacet
  facet normal 0 0 1
    outer loop
      vertex 27 3 2
      vertex 3 193 2
      vertex 3 3 2
    endloop
  endfacet
  facet normal 1 0 0
    outer loop
      vertex 3 3 41
      vertex 3 193 2
      vertex 3 193 41
    endloop
  endfacet
  facet normal 1 0 0
    outer loop
      vertex 3 193 2
      vertex 3 3 41
      vertex 3 3 2
    endloop
  endfacet
  facet normal 0 -1 0
    outer loop
      vertex 3 193 2
      vertex 27 193 41
      vertex 3 193 41
    endloop
  endfacet
  facet normal 0 -1 0
    outer loop
      vertex 27 193 41
      vertex 3 193 2
      vertex 27 193 2
    endloop
  endfacet
  facet normal 0 1 0
    outer loop
      vertex 27 3 2
      vertex 3 3 41
      vertex 27 3 41
    endloop
  endfacet
  facet normal 0 1 0
    outer loop
      vertex 3 3 41
      vertex 27 3 2
      vertex 3 3 2
    endloop
  endfacet
endsolid OpenSCAD_Model
