solid OpenSCAD_Model
  facet normal -0.3574061 0.86285675 -0.3574061
    outer loop
      vertex 2 86.414215 0.5857868
      vertex 0.5857868 86.414215 2
      vertex 2 87 2
    endloop
  endfacet
  facet normal 0 -0.9238794 -0.38268372
    outer loop
      vertex 2 0.5857868 0.5857868
      vertex 172 0 2
      vertex 2 0 2
    endloop
  endfacet
  facet normal 0 -0.9238794 -0.38268372
    outer loop
      vertex 172 0 2
      vertex 2 0.5857868 0.5857868
      vertex 172 0.5857868 0.5857868
    endloop
  endfacet
  facet normal -0.38268372 -0.9238794 0
    outer loop
      vertex 0.5857868 0.5857868 2
      vertex 2 0 39
      vertex 0.5857868 0.5857868 39
    endloop
  endfacet
  facet normal -0.38268372 -0.9238794 0
    outer loop
      vertex 2 0 39
      vertex 0.5857868 0.5857868 2
      vertex 2 0 2
    endloop
  endfacet
  facet normal -0.38268372 0 -0.9238794
    outer loop
      vertex 0.5857868 2 0.5857868
      vertex 2 85 0
      vertex 2 2 0
    endloop
  endfacet
  facet normal -0.38268372 0 -0.9238794
    outer loop
      vertex 2 85 0
      vertex 0.5857868 2 0.5857868
      vertex 0.5857868 85 0.5857868
    endloop
  endfacet
  facet normal -0.8628563 0.35740662 0.35740662
    outer loop
      vertex 0.5857868 86.414215 39
      vertex 0 85 39
      vertex 0.5857868 85 40.414215
    endloop
  endfacet
  facet normal -0.86285603 -0.357407 -0.357407
    outer loop
      vertex 0.5857868 0.5857868 2
      vertex 0 2 2
      vertex 0.5857868 2 0.5857868
    endloop
  endfacet
  facet normal -0.38268268 0.92387986 0
    outer loop
      vertex 2 87 2
      vertex 0.5857868 86.414215 39
      vertex 2 87 39
    endloop
  endfacet
  facet normal -0.38268268 0.92387986 0
    outer loop
      vertex 0.5857868 86.414215 39
      vertex 2 87 2
      vertex 0.5857868 86.414215 2
    endloop
  endfacet
  facet normal -0.57735056 0.5773497 -0.57735056
    outer loop
      vertex 2 86.414215 0.5857868
      vertex 0.5857868 85 0.5857868
      vertex 0.5857868 86.414215 2
    endloop
  endfacet
  facet normal -0.35740706 0.35740656 -0.86285615
    outer loop
      vertex 2 85 0
      vertex 0.5857868 85 0.5857868
      vertex 2 86.414215 0.5857868
    endloop
  endfacet
  facet normal 0 0.3826833 -0.92387956
    outer loop
      vertex 2 85 0
      vertex 172 86.414215 0.5857868
      vertex 172 85 0
    endloop
  endfacet
  facet normal 0 0.3826833 -0.92387956
    outer loop
      vertex 172 86.414215 0.5857868
      vertex 2 85 0
      vertex 2 86.414215 0.5857868
    endloop
  endfacet
  facet normal 0 -0.92387956 0.3826833
    outer loop
      vertex 2 0 39
      vertex 172 0.5857868 40.414215
      vertex 2 0.5857868 40.414215
    endloop
  endfacet
  facet normal 0 -0.92387956 0.3826833
    outer loop
      vertex 172 0.5857868 40.414215
      vertex 2 0 39
      vertex 172 0 39
    endloop
  endfacet
  facet normal -0.92387956 0 0.3826833
    outer loop
      vertex 0 2 39
      vertex 0.5857868 85 40.414215
      vertex 0 85 39
    endloop
  endfacet
  facet normal -0.92387956 0 0.3826833
    outer loop
      vertex 0.5857868 85 40.414215
      vertex 0 2 39
      vertex 0.5857868 2 40.414215
    endloop
  endfacet
  facet normal 0.35740662 -0.8628563 0.35740662
    outer loop
      vertex 172 0.5857868 40.414215
      vertex 172 0 39
      vertex 173.41422 0.5857868 39
    endloop
  endfacet
  facet normal 0.38268223 0 0.92388004
    outer loop
      vertex 172 85 41
      vertex 173.41422 2 40.414215
      vertex 173.41422 85 40.414215
    endloop
  endfacet
  facet normal 0.38268223 0 0.92388004
    outer loop
      vertex 173.41422 2 40.414215
      vertex 172 85 41
      vertex 172 2 41
    endloop
  endfacet
  facet normal 0 0.92387986 -0.38268268
    outer loop
      vertex 172 86.414215 0.5857868
      vertex 2 87 2
      vertex 172 87 2
    endloop
  endfacet
  facet normal 0 0.92387986 -0.38268268
    outer loop
      vertex 2 87 2
      vertex 172 86.414215 0.5857868
      vertex 2 86.414215 0.5857868
    endloop
  endfacet
  facet normal 0.35740656 -0.35740706 -0.86285615
    outer loop
      vertex 173.41422 2 0.5857868
      vertex 172 0.5857868 0.5857868
      vertex 172 2 0
    endloop
  endfacet
  facet normal 0.35740575 0.86285704 0.35740575
    outer loop
      vertex 172 87 39
      vertex 172 86.414215 40.414215
      vertex 173.41422 86.414215 39
    endloop
  endfacet
  facet normal -0.5773508 0.57735 0.57735
    outer loop
      vertex 0.5857868 86.414215 39
      vertex 0.5857868 85 40.414215
      vertex 2 86.414215 40.414215
    endloop
  endfacet
  facet normal 0 -0.38268268 0.92387986
    outer loop
      vertex 2 2 41
      vertex 172 0.5857868 40.414215
      vertex 172 2 41
    endloop
  endfacet
  facet normal 0 -0.38268268 0.92387986
    outer loop
      vertex 172 0.5857868 40.414215
      vertex 2 2 41
      vertex 2 0.5857868 40.414215
    endloop
  endfacet
  facet normal 0.92387986 0 -0.38268268
    outer loop
      vertex 174 2 2
      vertex 173.41422 85 0.5857868
      vertex 174 85 2
    endloop
  endfacet
  facet normal 0.92387986 0 -0.38268268
    outer loop
      vertex 173.41422 85 0.5857868
      vertex 174 2 2
      vertex 173.41422 2 0.5857868
    endloop
  endfacet
  facet normal -0.9238794 0 -0.38268372
    outer loop
      vertex 0.5857868 2 0.5857868
      vertex 0 85 2
      vertex 0.5857868 85 0.5857868
    endloop
  endfacet
  facet normal -0.9238794 0 -0.38268372
    outer loop
      vertex 0 85 2
      vertex 0.5857868 2 0.5857868
      vertex 0 2 2
    endloop
  endfacet
  facet normal -0.86285615 0.35740656 -0.35740706
    outer loop
      vertex 0.5857868 85 0.5857868
      vertex 0 85 2
      vertex 0.5857868 86.414215 2
    endloop
  endfacet
  facet normal -1 0 0
    outer loop
      vertex 0 2 2
      vertex 0 85 39
      vertex 0 85 2
    endloop
  endfacet
  facet normal -1 0 0
    outer loop
      vertex 0 85 39
      vertex 0 2 2
      vertex 0 2 39
    endloop
  endfacet
  facet normal -0.35740706 -0.86285615 0.35740656
    outer loop
      vertex 2 0.5857868 40.414215
      vertex 0.5857868 0.5857868 39
      vertex 2 0 39
    endloop
  endfacet
  facet normal -0.357407 -0.86285603 -0.357407
    outer loop
      vertex 2 0 2
      vertex 0.5857868 0.5857868 2
      vertex 2 0.5857868 0.5857868
    endloop
  endfacet
  facet normal 0.3574057 0.86285686 -0.3574062
    outer loop
      vertex 173.41422 86.414215 2
      vertex 172 86.414215 0.5857868
      vertex 172 87 2
    endloop
  endfacet
  facet normal 0.86285675 -0.3574061 -0.3574061
    outer loop
      vertex 174 2 2
      vertex 173.41422 0.5857868 2
      vertex 173.41422 2 0.5857868
    endloop
  endfacet
  facet normal 0 -0.38268372 -0.9238794
    outer loop
      vertex 2 0.5857868 0.5857868
      vertex 172 2 0
      vertex 172 0.5857868 0.5857868
    endloop
  endfacet
  facet normal 0 -0.38268372 -0.9238794
    outer loop
      vertex 172 2 0
      vertex 2 0.5857868 0.5857868
      vertex 2 2 0
    endloop
  endfacet
  facet normal 0 0 1
    outer loop
      vertex 172 85 41
      vertex 171 84 41
      vertex 172 2 41
    endloop
  endfacet
  facet normal 0 0 1
    outer loop
      vertex 172 85 41
      vertex 3 84 41
      vertex 171 84 41
    endloop
  endfacet
  facet normal 0 0 1
    outer loop
      vertex 3 84 41
      vertex 2 85 41
      vertex 3 3 41
    endloop
  endfacet
  facet normal 0 0 1
    outer loop
      vertex 2 85 41
      vertex 3 84 41
      vertex 172 85 41
    endloop
  endfacet
  facet normal 0 0 1
    outer loop
      vertex 171 3 41
      vertex 172 2 41
      vertex 171 84 41
    endloop
  endfacet
  facet normal 0 0 1
    outer loop
      vertex 3 3 41
      vertex 172 2 41
      vertex 171 3 41
    endloop
  endfacet
  facet normal 0 0 1
    outer loop
      vertex 3 3 41
      vertex 2 2 41
      vertex 172 2 41
    endloop
  endfacet
  facet normal 0 0 1
    outer loop
      vertex 2 2 41
      vertex 3 3 41
      vertex 2 85 41
    endloop
  endfacet
  facet normal -0.3574062 0.3574057 0.86285686
    outer loop
      vertex 2 86.414215 40.414215
      vertex 0.5857868 85 40.414215
      vertex 2 85 41
    endloop
  endfacet
  facet normal 0 0.92388004 0.38268223
    outer loop
      vertex 172 87 39
      vertex 2 86.414215 40.414215
      vertex 172 86.414215 40.414215
    endloop
  endfacet
  facet normal 0 0.92388004 0.38268223
    outer loop
      vertex 2 86.414215 40.414215
      vertex 172 87 39
      vertex 2 87 39
    endloop
  endfacet
  facet normal 0 0.38268223 0.92388004
    outer loop
      vertex 2 86.414215 40.414215
      vertex 172 85 41
      vertex 172 86.414215 40.414215
    endloop
  endfacet
  facet normal 0 0.38268223 0.92388004
    outer loop
      vertex 172 85 41
      vertex 2 86.414215 40.414215
      vertex 2 85 41
    endloop
  endfacet
  facet normal -0.3574062 0.86285686 0.3574057
    outer loop
      vertex 2 87 39
      vertex 0.5857868 86.414215 39
      vertex 2 86.414215 40.414215
    endloop
  endfacet
  facet normal -0.357407 -0.357407 -0.86285603
    outer loop
      vertex 2 0.5857868 0.5857868
      vertex 0.5857868 2 0.5857868
      vertex 2 2 0
    endloop
  endfacet
  facet normal -0.57735026 -0.57735026 -0.57735026
    outer loop
      vertex 2 0.5857868 0.5857868
      vertex 0.5857868 0.5857868 2
      vertex 0.5857868 2 0.5857868
    endloop
  endfacet
  facet normal -0.92387956 0.3826833 0
    outer loop
      vertex 0 85 2
      vertex 0.5857868 86.414215 39
      vertex 0.5857868 86.414215 2
    endloop
  endfacet
  facet normal -0.92387956 0.3826833 0
    outer loop
      vertex 0.5857868 86.414215 39
      vertex 0 85 2
      vertex 0 85 39
    endloop
  endfacet
  facet normal -0.9238794 -0.38268372 0
    outer loop
      vertex 0.5857868 0.5857868 2
      vertex 0 2 39
      vertex 0 2 2
    endloop
  endfacet
  facet normal -0.9238794 -0.38268372 0
    outer loop
      vertex 0 2 39
      vertex 0.5857868 0.5857868 2
      vertex 0.5857868 0.5857868 39
    endloop
  endfacet
  facet normal 0.35740656 -0.86285615 -0.35740706
    outer loop
      vertex 173.41422 0.5857868 2
      vertex 172 0 2
      vertex 172 0.5857868 0.5857868
    endloop
  endfacet
  facet normal 0.5773497 -0.57735056 -0.57735056
    outer loop
      vertex 173.41422 0.5857868 2
      vertex 172 0.5857868 0.5857868
      vertex 173.41422 2 0.5857868
    endloop
  endfacet
  facet normal 0 0 -1
    outer loop
      vertex 2 2 0
      vertex 172 85 0
      vertex 172 2 0
    endloop
  endfacet
  facet normal 0 0 -1
    outer loop
      vertex 172 85 0
      vertex 2 2 0
      vertex 2 85 0
    endloop
  endfacet
  facet normal 0.92388004 0 0.38268223
    outer loop
      vertex 173.41422 2 40.414215
      vertex 174 85 39
      vertex 173.41422 85 40.414215
    endloop
  endfacet
  facet normal 0.92388004 0 0.38268223
    outer loop
      vertex 174 85 39
      vertex 173.41422 2 40.414215
      vertex 174 2 39
    endloop
  endfacet
  facet normal 0.3826833 -0.92387956 0
    outer loop
      vertex 172 0 2
      vertex 173.41422 0.5857868 39
      vertex 172 0 39
    endloop
  endfacet
  facet normal 0.3826833 -0.92387956 0
    outer loop
      vertex 173.41422 0.5857868 39
      vertex 172 0 2
      vertex 173.41422 0.5857868 2
    endloop
  endfacet
  facet normal -0.86285615 -0.35740706 0.35740656
    outer loop
      vertex 0.5857868 2 40.414215
      vertex 0 2 39
      vertex 0.5857868 0.5857868 39
    endloop
  endfacet
  facet normal -0.57735056 -0.57735056 0.5773497
    outer loop
      vertex 0.5857868 2 40.414215
      vertex 0.5857868 0.5857868 39
      vertex 2 0.5857868 40.414215
    endloop
  endfacet
  facet normal 0.3574057 -0.3574062 0.86285686
    outer loop
      vertex 172 2 41
      vertex 172 0.5857868 40.414215
      vertex 173.41422 2 40.414215
    endloop
  endfacet
  facet normal 0.57735 -0.5773508 0.57735
    outer loop
      vertex 173.41422 2 40.414215
      vertex 172 0.5857868 40.414215
      vertex 173.41422 0.5857868 39
    endloop
  endfacet
  facet normal 0.92387986 -0.38268268 0
    outer loop
      vertex 173.41422 0.5857868 39
      vertex 174 2 2
      vertex 174 2 39
    endloop
  endfacet
  facet normal 0.92387986 -0.38268268 0
    outer loop
      vertex 174 2 2
      vertex 173.41422 0.5857868 39
      vertex 173.41422 0.5857868 2
    endloop
  endfacet
  facet normal 0.86285686 -0.3574062 0.3574057
    outer loop
      vertex 173.41422 2 40.414215
      vertex 173.41422 0.5857868 39
      vertex 174 2 39
    endloop
  endfacet
  facet normal 1 0 0
    outer loop
      vertex 174 2 39
      vertex 174 85 2
      vertex 174 85 39
    endloop
  endfacet
  facet normal 1 0 0
    outer loop
      vertex 174 85 2
      vertex 174 2 39
      vertex 174 2 2
    endloop
  endfacet
  facet normal 0 -1 0
    outer loop
      vertex 2 0 2
      vertex 172 0 39
      vertex 2 0 39
    endloop
  endfacet
  facet normal 0 -1 0
    outer loop
      vertex 172 0 39
      vertex 2 0 2
      vertex 172 0 2
    endloop
  endfacet
  facet normal 0.92388004 0.38268223 0
    outer loop
      vertex 174 85 39
      vertex 173.41422 86.414215 2
      vertex 173.41422 86.414215 39
    endloop
  endfacet
  facet normal 0.92388004 0.38268223 0
    outer loop
      vertex 173.41422 86.414215 2
      vertex 174 85 39
      vertex 174 85 2
    endloop
  endfacet
  facet normal 0.57735 0.57735 -0.5773508
    outer loop
      vertex 173.41422 85 0.5857868
      vertex 172 86.414215 0.5857868
      vertex 173.41422 86.414215 2
    endloop
  endfacet
  facet normal 0.86285686 0.3574057 -0.3574062
    outer loop
      vertex 174 85 2
      vertex 173.41422 85 0.5857868
      vertex 173.41422 86.414215 2
    endloop
  endfacet
  facet normal -0.38268268 0 0.92387986
    outer loop
      vertex 0.5857868 85 40.414215
      vertex 2 2 41
      vertex 2 85 41
    endloop
  endfacet
  facet normal -0.38268268 0 0.92387986
    outer loop
      vertex 2 2 41
      vertex 0.5857868 85 40.414215
      vertex 0.5857868 2 40.414215
    endloop
  endfacet
  facet normal -0.3574061 -0.3574061 0.86285675
    outer loop
      vertex 2 2 41
      vertex 0.5857868 2 40.414215
      vertex 2 0.5857868 40.414215
    endloop
  endfacet
  facet normal 0.57735026 0.57735026 0.57735026
    outer loop
      vertex 173.41422 86.414215 39
      vertex 172 86.414215 40.414215
      vertex 173.41422 85 40.414215
    endloop
  endfacet
  facet normal 0.35740575 0.35740575 0.86285704
    outer loop
      vertex 172 86.414215 40.414215
      vertex 172 85 41
      vertex 173.41422 85 40.414215
    endloop
  endfacet
  facet normal 0.3826833 0 -0.92387956
    outer loop
      vertex 172 2 0
      vertex 173.41422 85 0.5857868
      vertex 173.41422 2 0.5857868
    endloop
  endfacet
  facet normal 0.3826833 0 -0.92387956
    outer loop
      vertex 173.41422 85 0.5857868
      vertex 172 2 0
      vertex 172 85 0
    endloop
  endfacet
  facet normal 0.35740662 0.35740662 -0.8628563
    outer loop
      vertex 173.41422 85 0.5857868
      vertex 172 85 0
      vertex 172 86.414215 0.5857868
    endloop
  endfacet
  facet normal 0.38268223 0.92388004 0
    outer loop
      vertex 173.41422 86.414215 2
      vertex 172 87 39
      vertex 173.41422 86.414215 39
    endloop
  endfacet
  facet normal 0.38268223 0.92388004 0
    outer loop
      vertex 172 87 39
      vertex 173.41422 86.414215 2
      vertex 172 87 2
    endloop
  endfacet
  facet normal 0 1 0
    outer loop
      vertex 172 87 2
      vertex 2 87 39
      vertex 172 87 39
    endloop
  endfacet
  facet normal 0 1 0
    outer loop
      vertex 2 87 39
      vertex 172 87 2
      vertex 2 87 2
    endloop
  endfacet
  facet normal 0.86285704 0.35740575 0.35740575
    outer loop
      vertex 173.41422 86.414215 39
      vertex 173.41422 85 40.414215
      vertex 174 85 39
    endloop
  endfacet
  facet normal -1 0 0
    outer loop
      vertex 171 3 2
      vertex 171 84 41
      vertex 171 84 2
    endloop
  endfacet
  facet normal -1 0 0
    outer loop
      vertex 171 84 41
      vertex 171 3 2
      vertex 171 3 41
    endloop
  endfacet
  facet normal 0 0 1
    outer loop
      vertex 3 84 2
      vertex 171 3 2
      vertex 171 84 2
    endloop
  endfacet
  facet normal 0 0 1
    outer loop
      vertex 171 3 2
      vertex 3 84 2
      vertex 3 3 2
    endloop
  endfacet
  facet normal 1 0 0
    outer loop
      vertex 3 3 41
      vertex 3 84 2
      vertex 3 84 41
    endloop
  endfacet
  facet normal 1 0 0
    outer loop
      vertex 3 84 2
      vertex 3 3 41
      vertex 3 3 2
    endloop
  endfacet
  facet normal 0 -1 0
    outer loop
      vertex 3 84 2
      vertex 171 84 41
      vertex 3 84 41
    endloop
  endfacet
  facet normal 0 -1 0
    outer loop
      vertex 171 84 41
      vertex 3 84 2
      vertex 171 84 2
    endloop
  endfacet
  facet normal 0 1 0
    outer loop
      vertex 171 3 2
      vertex 3 3 41
      vertex 171 3 41
    endloop
  endfacet
  facet normal 0 1 0
    outer loop
      vertex 3 3 41
      vertex 171 3 2
      vertex 3 3 2
    endloop
  endfacet
endsolid OpenSCAD_Model
