solid OpenSCAD_Model
  facet normal -0.3574061 0.86285675 -0.3574061
    outer loop
      vertex 2 282.4142 0.5857868
      vertex 0.5857868 282.4142 2
      vertex 2 283 2
    endloop
  endfacet
  facet normal 0.92387986 0 0.38268268
    outer loop
      vertex 173.41422 2 10.414213
      vertex 174 281 9
      vertex 173.41422 281 10.414213
    endloop
  endfacet
  facet normal 0.92387986 0 0.38268268
    outer loop
      vertex 174 281 9
      vertex 173.41422 2 10.414213
      vertex 174 2 9
    endloop
  endfacet
  facet normal -0.86285615 0.35740656 -0.35740706
    outer loop
      vertex 0.5857868 281 0.5857868
      vertex 0 281 2
      vertex 0.5857868 282.4142 2
    endloop
  endfacet
  facet normal 0.57735 0.57735 0.5773508
    outer loop
      vertex 173.41422 282.4142 9
      vertex 172 282.4142 10.414213
      vertex 173.41422 281 10.414213
    endloop
  endfacet
  facet normal -0.9238794 -0.38268372 0
    outer loop
      vertex 0.5857868 0.5857868 2
      vertex 0 2 9
      vertex 0 2 2
    endloop
  endfacet
  facet normal -0.9238794 -0.38268372 0
    outer loop
      vertex 0 2 9
      vertex 0.5857868 0.5857868 2
      vertex 0.5857868 0.5857868 9
    endloop
  endfacet
  facet normal 0.38268223 0.92388004 0
    outer loop
      vertex 173.41422 282.4142 2
      vertex 172 283 9
      vertex 173.41422 282.4142 9
    endloop
  endfacet
  facet normal 0.38268223 0.92388004 0
    outer loop
      vertex 172 283 9
      vertex 173.41422 282.4142 2
      vertex 172 283 2
    endloop
  endfacet
  facet normal -1 0 0
    outer loop
      vertex 0 2 2
      vertex 0 281 9
      vertex 0 281 2
    endloop
  endfacet
  facet normal -1 0 0
    outer loop
      vertex 0 281 9
      vertex 0 2 2
      vertex 0 2 9
    endloop
  endfacet
  facet normal -0.38268372 0 -0.9238794
    outer loop
      vertex 0.5857868 2 0.5857868
      vertex 2 281 0
      vertex 2 2 0
    endloop
  endfacet
  facet normal -0.38268372 0 -0.9238794
    outer loop
      vertex 2 281 0
      vertex 0.5857868 2 0.5857868
      vertex 0.5857868 281 0.5857868
    endloop
  endfacet
  facet normal 0 0 1
    outer loop
      vertex 172 281 11
      vertex 153 141.5 11
      vertex 172 2 11
    endloop
  endfacet
  facet normal 0 0 1
    outer loop
      vertex 172 281 11
      vertex 151.55774 155.22217 11
      vertex 153 141.5 11
    endloop
  endfacet
  facet normal 0 0 1
    outer loop
      vertex 172 281 11
      vertex 147.294 168.34462 11
      vertex 151.55774 155.22217 11
    endloop
  endfacet
  facet normal 0 0 1
    outer loop
      vertex 172 281 11
      vertex 140.39513 180.29382 11
      vertex 147.294 168.34462 11
    endloop
  endfacet
  facet normal 0 0 1
    outer loop
      vertex 172 281 11
      vertex 131.16261 190.54756 11
      vertex 140.39513 180.29382 11
    endloop
  endfacet
  facet normal 0 0 1
    outer loop
      vertex 172 281 11
      vertex 120 198.65767 11
      vertex 131.16261 190.54756 11
    endloop
  endfacet
  facet normal 0 0 1
    outer loop
      vertex 172 281 11
      vertex 107.39512 204.26973 11
      vertex 120 198.65767 11
    endloop
  endfacet
  facet normal 0 0 1
    outer loop
      vertex 172 281 11
      vertex 93.89888 207.13844 11
      vertex 107.39512 204.26973 11
    endloop
  endfacet
  facet normal 0 0 1
    outer loop
      vertex 172 281 11
      vertex 80.10112 207.13844 11
      vertex 93.89888 207.13844 11
    endloop
  endfacet
  facet normal 0 0 1
    outer loop
      vertex 2 281 11
      vertex 80.10112 207.13844 11
      vertex 172 281 11
    endloop
  endfacet
  facet normal 0 0 1
    outer loop
      vertex 80.10112 207.13844 11
      vertex 2 281 11
      vertex 66.60487 204.26973 11
    endloop
  endfacet
  facet normal 0 0 1
    outer loop
      vertex 22.442257 155.22217 11
      vertex 2 281 11
      vertex 21 141.5 11
    endloop
  endfacet
  facet normal 0 0 1
    outer loop
      vertex 26.706 168.34462 11
      vertex 2 281 11
      vertex 22.442257 155.22217 11
    endloop
  endfacet
  facet normal 0 0 1
    outer loop
      vertex 33.604877 180.29382 11
      vertex 2 281 11
      vertex 26.706 168.34462 11
    endloop
  endfacet
  facet normal 0 0 1
    outer loop
      vertex 42.83738 190.54756 11
      vertex 2 281 11
      vertex 33.604877 180.29382 11
    endloop
  endfacet
  facet normal 0 0 1
    outer loop
      vertex 54 198.65767 11
      vertex 2 281 11
      vertex 42.83738 190.54756 11
    endloop
  endfacet
  facet normal 0 0 1
    outer loop
      vertex 66.60487 204.26973 11
      vertex 2 281 11
      vertex 54 198.65767 11
    endloop
  endfacet
  facet normal 0 0 1
    outer loop
      vertex 151.55774 127.77783 11
      vertex 172 2 11
      vertex 153 141.5 11
    endloop
  endfacet
  facet normal 0 0 1
    outer loop
      vertex 147.294 114.65538 11
      vertex 172 2 11
      vertex 151.55774 127.77783 11
    endloop
  endfacet
  facet normal 0 0 1
    outer loop
      vertex 140.39513 102.70618 11
      vertex 172 2 11
      vertex 147.294 114.65538 11
    endloop
  endfacet
  facet normal 0 0 1
    outer loop
      vertex 131.16261 92.45244 11
      vertex 172 2 11
      vertex 140.39513 102.70618 11
    endloop
  endfacet
  facet normal 0 0 1
    outer loop
      vertex 120 84.34232 11
      vertex 172 2 11
      vertex 131.16261 92.45244 11
    endloop
  endfacet
  facet normal 0 0 1
    outer loop
      vertex 107.39512 78.73027 11
      vertex 172 2 11
      vertex 120 84.34232 11
    endloop
  endfacet
  facet normal 0 0 1
    outer loop
      vertex 93.89888 75.86156 11
      vertex 172 2 11
      vertex 107.39512 78.73027 11
    endloop
  endfacet
  facet normal 0 0 1
    outer loop
      vertex 80.10112 75.86156 11
      vertex 172 2 11
      vertex 93.89888 75.86156 11
    endloop
  endfacet
  facet normal 0 0 1
    outer loop
      vertex 2 2 11
      vertex 80.10112 75.86156 11
      vertex 66.60487 78.73027 11
    endloop
  endfacet
  facet normal 0 0 1
    outer loop
      vertex 2 2 11
      vertex 66.60487 78.73027 11
      vertex 54 84.34232 11
    endloop
  endfacet
  facet normal 0 0 1
    outer loop
      vertex 2 2 11
      vertex 21 141.5 11
      vertex 2 281 11
    endloop
  endfacet
  facet normal 0 0 1
    outer loop
      vertex 80.10112 75.86156 11
      vertex 2 2 11
      vertex 172 2 11
    endloop
  endfacet
  facet normal 0 0 1
    outer loop
      vertex 42.83738 92.45244 11
      vertex 2 2 11
      vertex 54 84.34232 11
    endloop
  endfacet
  facet normal 0 0 1
    outer loop
      vertex 33.604877 102.70618 11
      vertex 2 2 11
      vertex 42.83738 92.45244 11
    endloop
  endfacet
  facet normal 0 0 1
    outer loop
      vertex 26.706 114.65538 11
      vertex 2 2 11
      vertex 33.604877 102.70618 11
    endloop
  endfacet
  facet normal 0 0 1
    outer loop
      vertex 22.442257 127.77783 11
      vertex 2 2 11
      vertex 26.706 114.65538 11
    endloop
  endfacet
  facet normal 0 0 1
    outer loop
      vertex 21 141.5 11
      vertex 2 2 11
      vertex 22.442257 127.77783 11
    endloop
  endfacet
  facet normal 0.3826833 -0.92387956 0
    outer loop
      vertex 172 0 2
      vertex 173.41422 0.5857868 9
      vertex 172 0 9
    endloop
  endfacet
  facet normal 0.3826833 -0.92387956 0
    outer loop
      vertex 173.41422 0.5857868 9
      vertex 172 0 2
      vertex 173.41422 0.5857868 2
    endloop
  endfacet
  facet normal -0.57735056 0.5773497 -0.57735056
    outer loop
      vertex 2 282.4142 0.5857868
      vertex 0.5857868 281 0.5857868
      vertex 0.5857868 282.4142 2
    endloop
  endfacet
  facet normal 0.5773497 -0.57735056 -0.57735056
    outer loop
      vertex 173.41422 0.5857868 2
      vertex 172 0.5857868 0.5857868
      vertex 173.41422 2 0.5857868
    endloop
  endfacet
  facet normal 0.35740656 -0.35740706 -0.86285615
    outer loop
      vertex 173.41422 2 0.5857868
      vertex 172 0.5857868 0.5857868
      vertex 172 2 0
    endloop
  endfacet
  facet normal 0 -1 0
    outer loop
      vertex 2 0 2
      vertex 172 0 9
      vertex 2 0 9
    endloop
  endfacet
  facet normal 0 -1 0
    outer loop
      vertex 172 0 9
      vertex 2 0 2
      vertex 172 0 2
    endloop
  endfacet
  facet normal 0 1 0
    outer loop
      vertex 172 283 2
      vertex 2 283 9
      vertex 172 283 9
    endloop
  endfacet
  facet normal 0 1 0
    outer loop
      vertex 2 283 9
      vertex 172 283 2
      vertex 2 283 2
    endloop
  endfacet
  facet normal -0.57735056 0.5773497 0.57735056
    outer loop
      vertex 0.5857868 282.4142 9
      vertex 0.5857868 281 10.414213
      vertex 2 282.4142 10.414213
    endloop
  endfacet
  facet normal 0.86285675 -0.3574061 0.3574061
    outer loop
      vertex 173.41422 2 10.414213
      vertex 173.41422 0.5857868 9
      vertex 174 2 9
    endloop
  endfacet
  facet normal 0.86285686 0.3574057 0.3574062
    outer loop
      vertex 173.41422 282.4142 9
      vertex 173.41422 281 10.414213
      vertex 174 281 9
    endloop
  endfacet
  facet normal -0.3574061 0.86285675 0.3574061
    outer loop
      vertex 2 283 9
      vertex 0.5857868 282.4142 9
      vertex 2 282.4142 10.414213
    endloop
  endfacet
  facet normal 0.3574057 0.86285686 -0.3574062
    outer loop
      vertex 173.41422 282.4142 2
      vertex 172 282.4142 0.5857868
      vertex 172 283 2
    endloop
  endfacet
  facet normal 0 0.92387986 -0.38268268
    outer loop
      vertex 172 282.4142 0.5857868
      vertex 2 283 2
      vertex 172 283 2
    endloop
  endfacet
  facet normal 0 0.92387986 -0.38268268
    outer loop
      vertex 2 283 2
      vertex 172 282.4142 0.5857868
      vertex 2 282.4142 0.5857868
    endloop
  endfacet
  facet normal -0.9238794 0 -0.38268372
    outer loop
      vertex 0.5857868 2 0.5857868
      vertex 0 281 2
      vertex 0.5857868 281 0.5857868
    endloop
  endfacet
  facet normal -0.9238794 0 -0.38268372
    outer loop
      vertex 0 281 2
      vertex 0.5857868 2 0.5857868
      vertex 0 2 2
    endloop
  endfacet
  facet normal -0.9238794 0 0.38268372
    outer loop
      vertex 0 2 9
      vertex 0.5857868 281 10.414213
      vertex 0 281 9
    endloop
  endfacet
  facet normal -0.9238794 0 0.38268372
    outer loop
      vertex 0.5857868 281 10.414213
      vertex 0 2 9
      vertex 0.5857868 2 10.414213
    endloop
  endfacet
  facet normal -0.86285615 0.35740656 0.35740706
    outer loop
      vertex 0.5857868 282.4142 9
      vertex 0 281 9
      vertex 0.5857868 281 10.414213
    endloop
  endfacet
  facet normal 0.5773497 -0.57735056 0.57735056
    outer loop
      vertex 173.41422 2 10.414213
      vertex 172 0.5857868 10.414213
      vertex 173.41422 0.5857868 9
    endloop
  endfacet
  facet normal -0.38268372 -0.9238794 0
    outer loop
      vertex 0.5857868 0.5857868 2
      vertex 2 0 9
      vertex 0.5857868 0.5857868 9
    endloop
  endfacet
  facet normal -0.38268372 -0.9238794 0
    outer loop
      vertex 2 0 9
      vertex 0.5857868 0.5857868 2
      vertex 2 0 2
    endloop
  endfacet
  facet normal -0.357407 -0.86285603 0.357407
    outer loop
      vertex 2 0.5857868 10.414213
      vertex 0.5857868 0.5857868 9
      vertex 2 0 9
    endloop
  endfacet
  facet normal -0.357407 -0.357407 -0.86285603
    outer loop
      vertex 2 0.5857868 0.5857868
      vertex 0.5857868 2 0.5857868
      vertex 2 2 0
    endloop
  endfacet
  facet normal 0 0.3826833 -0.92387956
    outer loop
      vertex 2 281 0
      vertex 172 282.4142 0.5857868
      vertex 172 281 0
    endloop
  endfacet
  facet normal 0 0.3826833 -0.92387956
    outer loop
      vertex 172 282.4142 0.5857868
      vertex 2 281 0
      vertex 2 282.4142 0.5857868
    endloop
  endfacet
  facet normal 0 0 -1
    outer loop
      vertex 2 2 0
      vertex 172 281 0
      vertex 172 2 0
    endloop
  endfacet
  facet normal 0 0 -1
    outer loop
      vertex 172 281 0
      vertex 2 2 0
      vertex 2 281 0
    endloop
  endfacet
  facet normal 0.3826833 0 -0.92387956
    outer loop
      vertex 172 2 0
      vertex 173.41422 281 0.5857868
      vertex 173.41422 2 0.5857868
    endloop
  endfacet
  facet normal 0.3826833 0 -0.92387956
    outer loop
      vertex 173.41422 281 0.5857868
      vertex 172 2 0
      vertex 172 281 0
    endloop
  endfacet
  facet normal -0.86285603 -0.357407 -0.357407
    outer loop
      vertex 0.5857868 0.5857868 2
      vertex 0 2 2
      vertex 0.5857868 2 0.5857868
    endloop
  endfacet
  facet normal -0.38268372 0 0.9238794
    outer loop
      vertex 0.5857868 281 10.414213
      vertex 2 2 11
      vertex 2 281 11
    endloop
  endfacet
  facet normal -0.38268372 0 0.9238794
    outer loop
      vertex 2 2 11
      vertex 0.5857868 281 10.414213
      vertex 0.5857868 2 10.414213
    endloop
  endfacet
  facet normal 0.35740656 -0.35740706 0.86285615
    outer loop
      vertex 172 2 11
      vertex 172 0.5857868 10.414213
      vertex 173.41422 2 10.414213
    endloop
  endfacet
  facet normal 0.35740656 -0.86285615 -0.35740706
    outer loop
      vertex 173.41422 0.5857868 2
      vertex 172 0 2
      vertex 172 0.5857868 0.5857868
    endloop
  endfacet
  facet normal 0 -0.38268372 0.9238794
    outer loop
      vertex 2 2 11
      vertex 172 0.5857868 10.414213
      vertex 172 2 11
    endloop
  endfacet
  facet normal 0 -0.38268372 0.9238794
    outer loop
      vertex 172 0.5857868 10.414213
      vertex 2 2 11
      vertex 2 0.5857868 10.414213
    endloop
  endfacet
  facet normal 0.35740662 0.35740662 -0.8628563
    outer loop
      vertex 173.41422 281 0.5857868
      vertex 172 281 0
      vertex 172 282.4142 0.5857868
    endloop
  endfacet
  facet normal 0.57735 0.57735 -0.5773508
    outer loop
      vertex 173.41422 281 0.5857868
      vertex 172 282.4142 0.5857868
      vertex 173.41422 282.4142 2
    endloop
  endfacet
  facet normal -0.92387956 0.3826833 0
    outer loop
      vertex 0 281 2
      vertex 0.5857868 282.4142 9
      vertex 0.5857868 282.4142 2
    endloop
  endfacet
  facet normal -0.92387956 0.3826833 0
    outer loop
      vertex 0.5857868 282.4142 9
      vertex 0 281 2
      vertex 0 281 9
    endloop
  endfacet
  facet normal -0.35740706 0.35740656 0.86285615
    outer loop
      vertex 2 282.4142 10.414213
      vertex 0.5857868 281 10.414213
      vertex 2 281 11
    endloop
  endfacet
  facet normal -0.357407 -0.357407 0.86285603
    outer loop
      vertex 2 2 11
      vertex 0.5857868 2 10.414213
      vertex 2 0.5857868 10.414213
    endloop
  endfacet
  facet normal 0.35740656 -0.86285615 0.35740706
    outer loop
      vertex 172 0.5857868 10.414213
      vertex 172 0 9
      vertex 173.41422 0.5857868 9
    endloop
  endfacet
  facet normal 0 0.3826833 0.92387956
    outer loop
      vertex 2 282.4142 10.414213
      vertex 172 281 11
      vertex 172 282.4142 10.414213
    endloop
  endfacet
  facet normal 0 0.3826833 0.92387956
    outer loop
      vertex 172 281 11
      vertex 2 282.4142 10.414213
      vertex 2 281 11
    endloop
  endfacet
  facet normal 1 0 0
    outer loop
      vertex 174 2 9
      vertex 174 281 2
      vertex 174 281 9
    endloop
  endfacet
  facet normal 1 0 0
    outer loop
      vertex 174 281 2
      vertex 174 2 9
      vertex 174 2 2
    endloop
  endfacet
  facet normal 0.86285686 0.3574057 -0.3574062
    outer loop
      vertex 174 281 2
      vertex 173.41422 281 0.5857868
      vertex 173.41422 282.4142 2
    endloop
  endfacet
  facet normal 0 -0.9238794 -0.38268372
    outer loop
      vertex 2 0.5857868 0.5857868
      vertex 172 0 2
      vertex 2 0 2
    endloop
  endfacet
  facet normal 0 -0.9238794 -0.38268372
    outer loop
      vertex 172 0 2
      vertex 2 0.5857868 0.5857868
      vertex 172 0.5857868 0.5857868
    endloop
  endfacet
  facet normal 0.92387986 0 -0.38268268
    outer loop
      vertex 174 2 2
      vertex 173.41422 281 0.5857868
      vertex 174 281 2
    endloop
  endfacet
  facet normal 0.92387986 0 -0.38268268
    outer loop
      vertex 173.41422 281 0.5857868
      vertex 174 2 2
      vertex 173.41422 2 0.5857868
    endloop
  endfacet
  facet normal 0 -0.38268372 -0.9238794
    outer loop
      vertex 2 0.5857868 0.5857868
      vertex 172 2 0
      vertex 172 0.5857868 0.5857868
    endloop
  endfacet
  facet normal 0 -0.38268372 -0.9238794
    outer loop
      vertex 172 2 0
      vertex 2 0.5857868 0.5857868
      vertex 2 2 0
    endloop
  endfacet
  facet normal -0.38268268 0.92387986 0
    outer loop
      vertex 2 283 2
      vertex 0.5857868 282.4142 9
      vertex 2 283 9
    endloop
  endfacet
  facet normal -0.38268268 0.92387986 0
    outer loop
      vertex 0.5857868 282.4142 9
      vertex 2 283 2
      vertex 0.5857868 282.4142 2
    endloop
  endfacet
  facet normal -0.57735026 -0.57735026 0.57735026
    outer loop
      vertex 0.5857868 2 10.414213
      vertex 0.5857868 0.5857868 9
      vertex 2 0.5857868 10.414213
    endloop
  endfacet
  facet normal -0.86285603 -0.357407 0.357407
    outer loop
      vertex 0.5857868 2 10.414213
      vertex 0 2 9
      vertex 0.5857868 0.5857868 9
    endloop
  endfacet
  facet normal 0 -0.9238794 0.38268372
    outer loop
      vertex 2 0 9
      vertex 172 0.5857868 10.414213
      vertex 2 0.5857868 10.414213
    endloop
  endfacet
  facet normal 0 -0.9238794 0.38268372
    outer loop
      vertex 172 0.5857868 10.414213
      vertex 2 0 9
      vertex 172 0 9
    endloop
  endfacet
  facet normal 0.35740662 0.35740662 0.8628563
    outer loop
      vertex 172 282.4142 10.414213
      vertex 172 281 11
      vertex 173.41422 281 10.414213
    endloop
  endfacet
  facet normal 0.3826833 0 0.92387956
    outer loop
      vertex 172 281 11
      vertex 173.41422 2 10.414213
      vertex 173.41422 281 10.414213
    endloop
  endfacet
  facet normal 0.3826833 0 0.92387956
    outer loop
      vertex 173.41422 2 10.414213
      vertex 172 281 11
      vertex 172 2 11
    endloop
  endfacet
  facet normal 0.3574057 0.86285686 0.3574062
    outer loop
      vertex 172 283 9
      vertex 172 282.4142 10.414213
      vertex 173.41422 282.4142 9
    endloop
  endfacet
  facet normal -0.35740706 0.35740656 -0.86285615
    outer loop
      vertex 2 281 0
      vertex 0.5857868 281 0.5857868
      vertex 2 282.4142 0.5857868
    endloop
  endfacet
  facet normal -0.357407 -0.86285603 -0.357407
    outer loop
      vertex 2 0 2
      vertex 0.5857868 0.5857868 2
      vertex 2 0.5857868 0.5857868
    endloop
  endfacet
  facet normal -0.57735026 -0.57735026 -0.57735026
    outer loop
      vertex 2 0.5857868 0.5857868
      vertex 0.5857868 0.5857868 2
      vertex 0.5857868 2 0.5857868
    endloop
  endfacet
  facet normal 0.92387986 -0.38268268 0
    outer loop
      vertex 173.41422 0.5857868 9
      vertex 174 2 2
      vertex 174 2 9
    endloop
  endfacet
  facet normal 0.92387986 -0.38268268 0
    outer loop
      vertex 174 2 2
      vertex 173.41422 0.5857868 9
      vertex 173.41422 0.5857868 2
    endloop
  endfacet
  facet normal 0.86285675 -0.3574061 -0.3574061
    outer loop
      vertex 174 2 2
      vertex 173.41422 0.5857868 2
      vertex 173.41422 2 0.5857868
    endloop
  endfacet
  facet normal 0 0.92387986 0.38268268
    outer loop
      vertex 172 283 9
      vertex 2 282.4142 10.414213
      vertex 172 282.4142 10.414213
    endloop
  endfacet
  facet normal 0 0.92387986 0.38268268
    outer loop
      vertex 2 282.4142 10.414213
      vertex 172 283 9
      vertex 2 283 9
    endloop
  endfacet
  facet normal 0.92388004 0.38268223 0
    outer loop
      vertex 174 281 9
      vertex 173.41422 282.4142 2
      vertex 173.41422 282.4142 9
    endloop
  endfacet
  facet normal 0.92388004 0.38268223 0
    outer loop
      vertex 173.41422 282.4142 2
      vertex 174 281 9
      vertex 174 281 2
    endloop
  endfacet
  facet normal 0 -1 0
    outer loop
      vertex 80.10112 207.13844 6
      vertex 93.89888 207.13844 11
      vertex 80.10112 207.13844 11
    endloop
  endfacet
  facet normal 0 -1 0
    outer loop
      vertex 93.89888 207.13844 11
      vertex 80.10112 207.13844 6
      vertex 93.89888 207.13844 6
    endloop
  endfacet
  facet normal -0.74314463 0.66913086 0
    outer loop
      vertex 131.16261 92.45244 6
      vertex 140.39513 102.70618 11
      vertex 140.39513 102.70618 6
    endloop
  endfacet
  facet normal -0.74314463 0.66913086 0
    outer loop
      vertex 140.39513 102.70618 11
      vertex 131.16261 92.45244 6
      vertex 131.16261 92.45244 11
    endloop
  endfacet
  facet normal -0.99452186 -0.104528666 0
    outer loop
      vertex 153 141.5 6
      vertex 151.55774 155.22217 11
      vertex 151.55774 155.22217 6
    endloop
  endfacet
  facet normal -0.99452186 -0.104528666 0
    outer loop
      vertex 151.55774 155.22217 11
      vertex 153 141.5 6
      vertex 153 141.5 11
    endloop
  endfacet
  facet normal -0.86602527 -0.50000024 0
    outer loop
      vertex 147.294 168.34462 6
      vertex 140.39513 180.29382 11
      vertex 140.39513 180.29382 6
    endloop
  endfacet
  facet normal -0.86602527 -0.50000024 0
    outer loop
      vertex 140.39513 180.29382 11
      vertex 147.294 168.34462 6
      vertex 147.294 168.34462 11
    endloop
  endfacet
  facet normal -0.406737 -0.9135453 0
    outer loop
      vertex 107.39512 204.26973 6
      vertex 120 198.65767 11
      vertex 107.39512 204.26973 11
    endloop
  endfacet
  facet normal -0.406737 -0.9135453 0
    outer loop
      vertex 120 198.65767 11
      vertex 107.39512 204.26973 6
      vertex 120 198.65767 6
    endloop
  endfacet
  facet normal -0.99452186 0.104528666 0
    outer loop
      vertex 151.55774 127.77783 6
      vertex 153 141.5 11
      vertex 153 141.5 6
    endloop
  endfacet
  facet normal -0.99452186 0.104528666 0
    outer loop
      vertex 153 141.5 11
      vertex 151.55774 127.77783 6
      vertex 151.55774 127.77783 11
    endloop
  endfacet
  facet normal -0.9510567 -0.30901632 0
    outer loop
      vertex 151.55774 155.22217 6
      vertex 147.294 168.34462 11
      vertex 147.294 168.34462 6
    endloop
  endfacet
  facet normal -0.9510567 -0.30901632 0
    outer loop
      vertex 147.294 168.34462 11
      vertex 151.55774 155.22217 6
      vertex 151.55774 155.22217 11
    endloop
  endfacet
  facet normal -0.58778536 0.80901694 0
    outer loop
      vertex 131.16261 92.45244 6
      vertex 120 84.34232 11
      vertex 131.16261 92.45244 11
    endloop
  endfacet
  facet normal -0.58778536 0.80901694 0
    outer loop
      vertex 120 84.34232 11
      vertex 131.16261 92.45244 6
      vertex 120 84.34232 6
    endloop
  endfacet
  facet normal -0.40673652 0.9135455 0
    outer loop
      vertex 120 84.34232 6
      vertex 107.39512 78.73027 11
      vertex 120 84.34232 11
    endloop
  endfacet
  facet normal -0.40673652 0.9135455 0
    outer loop
      vertex 107.39512 78.73027 11
      vertex 120 84.34232 6
      vertex 107.39512 78.73027 6
    endloop
  endfacet
  facet normal 0.20791154 -0.9781476 0
    outer loop
      vertex 66.60487 204.26973 6
      vertex 80.10112 207.13844 11
      vertex 66.60487 204.26973 11
    endloop
  endfacet
  facet normal 0.20791154 -0.9781476 0
    outer loop
      vertex 80.10112 207.13844 11
      vertex 66.60487 204.26973 6
      vertex 80.10112 207.13844 6
    endloop
  endfacet
  facet normal 0 1 0
    outer loop
      vertex 93.89888 75.86156 6
      vertex 80.10112 75.86156 11
      vertex 93.89888 75.86156 11
    endloop
  endfacet
  facet normal 0 1 0
    outer loop
      vertex 80.10112 75.86156 11
      vertex 93.89888 75.86156 6
      vertex 80.10112 75.86156 6
    endloop
  endfacet
  facet normal -0.20791164 -0.9781476 0
    outer loop
      vertex 93.89888 207.13844 6
      vertex 107.39512 204.26973 11
      vertex 93.89888 207.13844 11
    endloop
  endfacet
  facet normal -0.20791164 -0.9781476 0
    outer loop
      vertex 107.39512 204.26973 11
      vertex 93.89888 207.13844 6
      vertex 107.39512 204.26973 6
    endloop
  endfacet
  facet normal -0.74314463 -0.66913086 0
    outer loop
      vertex 140.39513 180.29382 6
      vertex 131.16261 190.54756 11
      vertex 131.16261 190.54756 6
    endloop
  endfacet
  facet normal -0.74314463 -0.66913086 0
    outer loop
      vertex 131.16261 190.54756 11
      vertex 140.39513 180.29382 6
      vertex 140.39513 180.29382 11
    endloop
  endfacet
  facet normal 0 0 1
    outer loop
      vertex 99.5 141.5 6
      vertex 153 141.5 6
      vertex 151.55774 155.22217 6
    endloop
  endfacet
  facet normal 0 0 1
    outer loop
      vertex 99.226845 144.09889 6
      vertex 151.55774 155.22217 6
      vertex 147.294 168.34462 6
    endloop
  endfacet
  facet normal 0 0 1
    outer loop
      vertex 153 141.5 6
      vertex 99.5 141.5 6
      vertex 151.55774 127.77783 6
    endloop
  endfacet
  facet normal 0 0 1
    outer loop
      vertex 98.41932 146.58421 6
      vertex 147.294 168.34462 6
      vertex 140.39513 180.29382 6
    endloop
  endfacet
  facet normal 0 0 1
    outer loop
      vertex 99.226845 138.90111 6
      vertex 151.55774 127.77783 6
      vertex 99.5 141.5 6
    endloop
  endfacet
  facet normal 0 0 1
    outer loop
      vertex 97.11271 148.84732 6
      vertex 140.39513 180.29382 6
      vertex 131.16261 190.54756 6
    endloop
  endfacet
  facet normal 0 0 1
    outer loop
      vertex 151.55774 127.77783 6
      vertex 99.226845 138.90111 6
      vertex 147.294 114.65538 6
    endloop
  endfacet
  facet normal 0 0 1
    outer loop
      vertex 95.364136 150.7893 6
      vertex 131.16261 190.54756 6
      vertex 120 198.65767 6
    endloop
  endfacet
  facet normal 0 0 1
    outer loop
      vertex 98.41932 136.41579 6
      vertex 147.294 114.65538 6
      vertex 99.226845 138.90111 6
    endloop
  endfacet
  facet normal 0 0 1
    outer loop
      vertex 93.25 152.32532 6
      vertex 120 198.65767 6
      vertex 107.39512 204.26973 6
    endloop
  endfacet
  facet normal 0 0 1
    outer loop
      vertex 147.294 114.65538 6
      vertex 98.41932 136.41579 6
      vertex 140.39513 102.70618 6
    endloop
  endfacet
  facet normal 0 0 1
    outer loop
      vertex 97.11271 134.15268 6
      vertex 140.39513 102.70618 6
      vertex 98.41932 136.41579 6
    endloop
  endfacet
  facet normal 0 0 1
    outer loop
      vertex 151.55774 155.22217 6
      vertex 99.226845 144.09889 6
      vertex 99.5 141.5 6
    endloop
  endfacet
  facet normal 0 0 1
    outer loop
      vertex 147.294 168.34462 6
      vertex 98.41932 146.58421 6
      vertex 99.226845 144.09889 6
    endloop
  endfacet
  facet normal 0 0 1
    outer loop
      vertex 140.39513 180.29382 6
      vertex 97.11271 148.84732 6
      vertex 98.41932 146.58421 6
    endloop
  endfacet
  facet normal 0 0 1
    outer loop
      vertex 131.16261 190.54756 6
      vertex 95.364136 150.7893 6
      vertex 97.11271 148.84732 6
    endloop
  endfacet
  facet normal 0 0 1
    outer loop
      vertex 90.86271 153.3882 6
      vertex 107.39512 204.26973 6
      vertex 93.89888 207.13844 6
    endloop
  endfacet
  facet normal 0 0 1
    outer loop
      vertex 120 198.65767 6
      vertex 93.25 152.32532 6
      vertex 95.364136 150.7893 6
    endloop
  endfacet
  facet normal 0 0 1
    outer loop
      vertex 107.39512 204.26973 6
      vertex 90.86271 153.3882 6
      vertex 93.25 152.32532 6
    endloop
  endfacet
  facet normal 0 0 1
    outer loop
      vertex 93.89888 207.13844 6
      vertex 88.3066 153.93152 6
      vertex 90.86271 153.3882 6
    endloop
  endfacet
  facet normal 0 0 1
    outer loop
      vertex 93.89888 207.13844 6
      vertex 85.69339 153.93152 6
      vertex 88.3066 153.93152 6
    endloop
  endfacet
  facet normal 0 0 1
    outer loop
      vertex 80.10112 207.13844 6
      vertex 85.69339 153.93152 6
      vertex 93.89888 207.13844 6
    endloop
  endfacet
  facet normal 0 0 1
    outer loop
      vertex 85.69339 153.93152 6
      vertex 80.10112 207.13844 6
      vertex 83.13728 153.3882 6
    endloop
  endfacet
  facet normal 0 0 1
    outer loop
      vertex 66.60487 204.26973 6
      vertex 83.13728 153.3882 6
      vertex 80.10112 207.13844 6
    endloop
  endfacet
  facet normal 0 0 1
    outer loop
      vertex 83.13728 153.3882 6
      vertex 66.60487 204.26973 6
      vertex 80.75 152.32532 6
    endloop
  endfacet
  facet normal 0 0 1
    outer loop
      vertex 54 198.65767 6
      vertex 80.75 152.32532 6
      vertex 66.60487 204.26973 6
    endloop
  endfacet
  facet normal 0 0 1
    outer loop
      vertex 80.75 152.32532 6
      vertex 54 198.65767 6
      vertex 78.635864 150.7893 6
    endloop
  endfacet
  facet normal 0 0 1
    outer loop
      vertex 42.83738 190.54756 6
      vertex 78.635864 150.7893 6
      vertex 54 198.65767 6
    endloop
  endfacet
  facet normal 0 0 1
    outer loop
      vertex 78.635864 150.7893 6
      vertex 42.83738 190.54756 6
      vertex 76.88728 148.84732 6
    endloop
  endfacet
  facet normal 0 0 1
    outer loop
      vertex 33.604877 180.29382 6
      vertex 76.88728 148.84732 6
      vertex 42.83738 190.54756 6
    endloop
  endfacet
  facet normal 0 0 1
    outer loop
      vertex 140.39513 102.70618 6
      vertex 97.11271 134.15268 6
      vertex 131.16261 92.45244 6
    endloop
  endfacet
  facet normal 0 0 1
    outer loop
      vertex 95.364136 132.2107 6
      vertex 131.16261 92.45244 6
      vertex 97.11271 134.15268 6
    endloop
  endfacet
  facet normal 0 0 1
    outer loop
      vertex 131.16261 92.45244 6
      vertex 95.364136 132.2107 6
      vertex 120 84.34232 6
    endloop
  endfacet
  facet normal 0 0 1
    outer loop
      vertex 93.25 130.67468 6
      vertex 120 84.34232 6
      vertex 95.364136 132.2107 6
    endloop
  endfacet
  facet normal 0 0 1
    outer loop
      vertex 120 84.34232 6
      vertex 93.25 130.67468 6
      vertex 107.39512 78.73027 6
    endloop
  endfacet
  facet normal 0 0 1
    outer loop
      vertex 90.86271 129.61179 6
      vertex 107.39512 78.73027 6
      vertex 93.25 130.67468 6
    endloop
  endfacet
  facet normal 0 0 1
    outer loop
      vertex 107.39512 78.73027 6
      vertex 90.86271 129.61179 6
      vertex 93.89888 75.86156 6
    endloop
  endfacet
  facet normal 0 0 1
    outer loop
      vertex 88.3066 129.06848 6
      vertex 93.89888 75.86156 6
      vertex 90.86271 129.61179 6
    endloop
  endfacet
  facet normal 0 0 1
    outer loop
      vertex 85.69339 129.06848 6
      vertex 93.89888 75.86156 6
      vertex 88.3066 129.06848 6
    endloop
  endfacet
  facet normal 0 0 1
    outer loop
      vertex 80.10112 75.86156 6
      vertex 85.69339 129.06848 6
      vertex 83.13728 129.61179 6
    endloop
  endfacet
  facet normal 0 0 1
    outer loop
      vertex 66.60487 78.73027 6
      vertex 83.13728 129.61179 6
      vertex 80.75 130.67468 6
    endloop
  endfacet
  facet normal 0 0 1
    outer loop
      vertex 85.69339 129.06848 6
      vertex 80.10112 75.86156 6
      vertex 93.89888 75.86156 6
    endloop
  endfacet
  facet normal 0 0 1
    outer loop
      vertex 54 84.34232 6
      vertex 80.75 130.67468 6
      vertex 78.635864 132.2107 6
    endloop
  endfacet
  facet normal 0 0 1
    outer loop
      vertex 42.83738 92.45244 6
      vertex 78.635864 132.2107 6
      vertex 76.88728 134.15268 6
    endloop
  endfacet
  facet normal 0 0 1
    outer loop
      vertex 33.604877 102.70618 6
      vertex 76.88728 134.15268 6
      vertex 75.58068 136.41579 6
    endloop
  endfacet
  facet normal 0 0 1
    outer loop
      vertex 26.706 114.65538 6
      vertex 75.58068 136.41579 6
      vertex 74.773155 138.90111 6
    endloop
  endfacet
  facet normal 0 0 1
    outer loop
      vertex 22.442257 127.77783 6
      vertex 74.773155 138.90111 6
      vertex 74.5 141.5 6
    endloop
  endfacet
  facet normal 0 0 1
    outer loop
      vertex 76.88728 148.84732 6
      vertex 33.604877 180.29382 6
      vertex 75.58068 146.58421 6
    endloop
  endfacet
  facet normal 0 0 1
    outer loop
      vertex 83.13728 129.61179 6
      vertex 66.60487 78.73027 6
      vertex 80.10112 75.86156 6
    endloop
  endfacet
  facet normal 0 0 1
    outer loop
      vertex 26.706 168.34462 6
      vertex 75.58068 146.58421 6
      vertex 33.604877 180.29382 6
    endloop
  endfacet
  facet normal 0 0 1
    outer loop
      vertex 80.75 130.67468 6
      vertex 54 84.34232 6
      vertex 66.60487 78.73027 6
    endloop
  endfacet
  facet normal 0 0 1
    outer loop
      vertex 75.58068 146.58421 6
      vertex 26.706 168.34462 6
      vertex 74.773155 144.09889 6
    endloop
  endfacet
  facet normal 0 0 1
    outer loop
      vertex 78.635864 132.2107 6
      vertex 42.83738 92.45244 6
      vertex 54 84.34232 6
    endloop
  endfacet
  facet normal 0 0 1
    outer loop
      vertex 22.442257 155.22217 6
      vertex 74.773155 144.09889 6
      vertex 26.706 168.34462 6
    endloop
  endfacet
  facet normal 0 0 1
    outer loop
      vertex 76.88728 134.15268 6
      vertex 33.604877 102.70618 6
      vertex 42.83738 92.45244 6
    endloop
  endfacet
  facet normal 0 0 1
    outer loop
      vertex 74.773155 144.09889 6
      vertex 22.442257 155.22217 6
      vertex 74.5 141.5 6
    endloop
  endfacet
  facet normal 0 0 1
    outer loop
      vertex 75.58068 136.41579 6
      vertex 26.706 114.65538 6
      vertex 33.604877 102.70618 6
    endloop
  endfacet
  facet normal 0 0 1
    outer loop
      vertex 21 141.5 6
      vertex 74.5 141.5 6
      vertex 22.442257 155.22217 6
    endloop
  endfacet
  facet normal 0 0 1
    outer loop
      vertex 74.773155 138.90111 6
      vertex 22.442257 127.77783 6
      vertex 26.706 114.65538 6
    endloop
  endfacet
  facet normal 0 0 1
    outer loop
      vertex 74.5 141.5 6
      vertex 21 141.5 6
      vertex 22.442257 127.77783 6
    endloop
  endfacet
  facet normal 0.95105654 -0.30901694 0
    outer loop
      vertex 22.442257 155.22217 11
      vertex 26.706 168.34462 6
      vertex 26.706 168.34462 11
    endloop
  endfacet
  facet normal 0.95105654 -0.30901694 0
    outer loop
      vertex 26.706 168.34462 6
      vertex 22.442257 155.22217 11
      vertex 22.442257 155.22217 6
    endloop
  endfacet
  facet normal -0.587785 -0.8090172 0
    outer loop
      vertex 120 198.65767 6
      vertex 131.16261 190.54756 11
      vertex 120 198.65767 11
    endloop
  endfacet
  facet normal -0.587785 -0.8090172 0
    outer loop
      vertex 131.16261 190.54756 11
      vertex 120 198.65767 6
      vertex 131.16261 190.54756 6
    endloop
  endfacet
  facet normal 0.58778507 0.8090171 0
    outer loop
      vertex 54 84.34232 6
      vertex 42.83738 92.45244 11
      vertex 54 84.34232 11
    endloop
  endfacet
  facet normal 0.58778507 0.8090171 0
    outer loop
      vertex 42.83738 92.45244 11
      vertex 54 84.34232 6
      vertex 42.83738 92.45244 6
    endloop
  endfacet
  facet normal 0.9945219 -0.10452839 0
    outer loop
      vertex 21 141.5 11
      vertex 22.442257 155.22217 6
      vertex 22.442257 155.22217 11
    endloop
  endfacet
  facet normal 0.9945219 -0.10452839 0
    outer loop
      vertex 22.442257 155.22217 6
      vertex 21 141.5 11
      vertex 21 141.5 6
    endloop
  endfacet
  facet normal 0.8660253 -0.5000001 0
    outer loop
      vertex 26.706 168.34462 11
      vertex 33.604877 180.29382 6
      vertex 33.604877 180.29382 11
    endloop
  endfacet
  facet normal 0.8660253 -0.5000001 0
    outer loop
      vertex 33.604877 180.29382 6
      vertex 26.706 168.34462 11
      vertex 26.706 168.34462 6
    endloop
  endfacet
  facet normal 0.8660253 0.5000001 0
    outer loop
      vertex 33.604877 102.70618 11
      vertex 26.706 114.65538 6
      vertex 26.706 114.65538 11
    endloop
  endfacet
  facet normal 0.8660253 0.5000001 0
    outer loop
      vertex 26.706 114.65538 6
      vertex 33.604877 102.70618 11
      vertex 33.604877 102.70618 6
    endloop
  endfacet
  facet normal 0.40673673 0.9135454 0
    outer loop
      vertex 66.60487 78.73027 6
      vertex 54 84.34232 11
      vertex 66.60487 78.73027 11
    endloop
  endfacet
  facet normal 0.40673673 0.9135454 0
    outer loop
      vertex 54 84.34232 11
      vertex 66.60487 78.73027 6
      vertex 54 84.34232 6
    endloop
  endfacet
  facet normal -0.20791164 0.9781476 0
    outer loop
      vertex 107.39512 78.73027 6
      vertex 93.89888 75.86156 11
      vertex 107.39512 78.73027 11
    endloop
  endfacet
  facet normal -0.20791164 0.9781476 0
    outer loop
      vertex 93.89888 75.86156 11
      vertex 107.39512 78.73027 6
      vertex 93.89888 75.86156 6
    endloop
  endfacet
  facet normal -0.86602527 0.50000024 0
    outer loop
      vertex 140.39513 102.70618 6
      vertex 147.294 114.65538 11
      vertex 147.294 114.65538 6
    endloop
  endfacet
  facet normal -0.86602527 0.50000024 0
    outer loop
      vertex 147.294 114.65538 11
      vertex 140.39513 102.70618 6
      vertex 140.39513 102.70618 11
    endloop
  endfacet
  facet normal 0.9945219 0.10452839 0
    outer loop
      vertex 22.442257 127.77783 11
      vertex 21 141.5 6
      vertex 21 141.5 11
    endloop
  endfacet
  facet normal 0.9945219 0.10452839 0
    outer loop
      vertex 21 141.5 6
      vertex 22.442257 127.77783 11
      vertex 22.442257 127.77783 6
    endloop
  endfacet
  facet normal 0.4067372 -0.9135452 0
    outer loop
      vertex 54 198.65767 6
      vertex 66.60487 204.26973 11
      vertex 54 198.65767 11
    endloop
  endfacet
  facet normal 0.4067372 -0.9135452 0
    outer loop
      vertex 66.60487 204.26973 11
      vertex 54 198.65767 6
      vertex 66.60487 204.26973 6
    endloop
  endfacet
  facet normal 0.95105654 0.30901694 0
    outer loop
      vertex 26.706 114.65538 11
      vertex 22.442257 127.77783 6
      vertex 22.442257 127.77783 11
    endloop
  endfacet
  facet normal 0.95105654 0.30901694 0
    outer loop
      vertex 22.442257 127.77783 6
      vertex 26.706 114.65538 11
      vertex 26.706 114.65538 6
    endloop
  endfacet
  facet normal -0.9510567 0.30901632 0
    outer loop
      vertex 147.294 114.65538 6
      vertex 151.55774 127.77783 11
      vertex 151.55774 127.77783 6
    endloop
  endfacet
  facet normal -0.9510567 0.30901632 0
    outer loop
      vertex 151.55774 127.77783 11
      vertex 147.294 114.65538 6
      vertex 147.294 114.65538 11
    endloop
  endfacet
  facet normal 0.74314505 -0.6691304 0
    outer loop
      vertex 33.604877 180.29382 11
      vertex 42.83738 190.54756 6
      vertex 42.83738 190.54756 11
    endloop
  endfacet
  facet normal 0.74314505 -0.6691304 0
    outer loop
      vertex 42.83738 190.54756 6
      vertex 33.604877 180.29382 11
      vertex 33.604877 180.29382 6
    endloop
  endfacet
  facet normal 0.5877847 -0.80901736 0
    outer loop
      vertex 42.83738 190.54756 6
      vertex 54 198.65767 11
      vertex 42.83738 190.54756 11
    endloop
  endfacet
  facet normal 0.5877847 -0.80901736 0
    outer loop
      vertex 54 198.65767 11
      vertex 42.83738 190.54756 6
      vertex 54 198.65767 6
    endloop
  endfacet
  facet normal 0.20791154 0.9781476 0
    outer loop
      vertex 80.10112 75.86156 6
      vertex 66.60487 78.73027 11
      vertex 80.10112 75.86156 11
    endloop
  endfacet
  facet normal 0.20791154 0.9781476 0
    outer loop
      vertex 66.60487 78.73027 11
      vertex 80.10112 75.86156 6
      vertex 66.60487 78.73027 6
    endloop
  endfacet
  facet normal 0.74314505 0.6691304 0
    outer loop
      vertex 42.83738 92.45244 11
      vertex 33.604877 102.70618 6
      vertex 33.604877 102.70618 11
    endloop
  endfacet
  facet normal 0.74314505 0.6691304 0
    outer loop
      vertex 33.604877 102.70618 6
      vertex 42.83738 92.45244 11
      vertex 42.83738 92.45244 6
    endloop
  endfacet
  facet normal 0.95105696 0.30901557 0
    outer loop
      vertex 75.58068 136.41579 6
      vertex 74.773155 138.90111 2
      vertex 74.773155 138.90111 6
    endloop
  endfacet
  facet normal 0.95105696 0.30901557 0
    outer loop
      vertex 74.773155 138.90111 2
      vertex 75.58068 136.41579 6
      vertex 75.58068 136.41579 2
    endloop
  endfacet
  facet normal -0.8660247 0.5000013 0
    outer loop
      vertex 97.11271 134.15268 2
      vertex 98.41932 136.41579 6
      vertex 98.41932 136.41579 2
    endloop
  endfacet
  facet normal -0.8660247 0.5000013 0
    outer loop
      vertex 98.41932 136.41579 6
      vertex 97.11271 134.15268 2
      vertex 97.11271 134.15268 6
    endloop
  endfacet
  facet normal -0.99452186 -0.1045287 0
    outer loop
      vertex 99.5 141.5 2
      vertex 99.226845 144.09889 6
      vertex 99.226845 144.09889 2
    endloop
  endfacet
  facet normal -0.99452186 -0.1045287 0
    outer loop
      vertex 99.226845 144.09889 6
      vertex 99.5 141.5 2
      vertex 99.5 141.5 6
    endloop
  endfacet
  facet normal 0.99452186 -0.1045287 0
    outer loop
      vertex 74.5 141.5 6
      vertex 74.773155 144.09889 2
      vertex 74.773155 144.09889 6
    endloop
  endfacet
  facet normal 0.99452186 -0.1045287 0
    outer loop
      vertex 74.773155 144.09889 2
      vertex 74.5 141.5 6
      vertex 74.5 141.5 2
    endloop
  endfacet
  facet normal -0.99452186 0.1045287 0
    outer loop
      vertex 99.226845 138.90111 2
      vertex 99.5 141.5 6
      vertex 99.5 141.5 2
    endloop
  endfacet
  facet normal -0.99452186 0.1045287 0
    outer loop
      vertex 99.5 141.5 6
      vertex 99.226845 138.90111 2
      vertex 99.226845 138.90111 6
    endloop
  endfacet
  facet normal -0.40673867 0.91354454 0
    outer loop
      vertex 93.25 130.67468 2
      vertex 90.86271 129.61179 6
      vertex 93.25 130.67468 6
    endloop
  endfacet
  facet normal -0.40673867 0.91354454 0
    outer loop
      vertex 90.86271 129.61179 6
      vertex 93.25 130.67468 2
      vertex 90.86271 129.61179 2
    endloop
  endfacet
  facet normal -0.40673378 -0.91354674 0
    outer loop
      vertex 90.86271 153.3882 2
      vertex 93.25 152.32532 6
      vertex 90.86271 153.3882 6
    endloop
  endfacet
  facet normal -0.40673378 -0.91354674 0
    outer loop
      vertex 93.25 152.32532 6
      vertex 90.86271 153.3882 2
      vertex 93.25 152.32532 2
    endloop
  endfacet
  facet normal -0.7431446 -0.66913086 0
    outer loop
      vertex 97.11271 148.84732 2
      vertex 95.364136 150.7893 6
      vertex 95.364136 150.7893 2
    endloop
  endfacet
  facet normal -0.7431446 -0.66913086 0
    outer loop
      vertex 95.364136 150.7893 6
      vertex 97.11271 148.84732 2
      vertex 97.11271 148.84732 6
    endloop
  endfacet
  facet normal -0.95105696 -0.30901557 0
    outer loop
      vertex 99.226845 144.09889 2
      vertex 98.41932 146.58421 6
      vertex 98.41932 146.58421 2
    endloop
  endfacet
  facet normal -0.95105696 -0.30901557 0
    outer loop
      vertex 98.41932 146.58421 6
      vertex 99.226845 144.09889 2
      vertex 99.226845 144.09889 6
    endloop
  endfacet
  facet normal -0.8660247 -0.5000013 0
    outer loop
      vertex 98.41932 146.58421 2
      vertex 97.11271 148.84732 6
      vertex 97.11271 148.84732 2
    endloop
  endfacet
  facet normal -0.8660247 -0.5000013 0
    outer loop
      vertex 97.11271 148.84732 6
      vertex 98.41932 146.58421 2
      vertex 98.41932 146.58421 6
    endloop
  endfacet
  facet normal 0 0 1
    outer loop
      vertex 99.226845 144.09889 2
      vertex 99.226845 138.90111 2
      vertex 99.5 141.5 2
    endloop
  endfacet
  facet normal 0 0 1
    outer loop
      vertex 98.41932 146.58421 2
      vertex 99.226845 138.90111 2
      vertex 99.226845 144.09889 2
    endloop
  endfacet
  facet normal 0 0 1
    outer loop
      vertex 98.41932 146.58421 2
      vertex 98.41932 136.41579 2
      vertex 99.226845 138.90111 2
    endloop
  endfacet
  facet normal 0 0 1
    outer loop
      vertex 97.11271 148.84732 2
      vertex 98.41932 136.41579 2
      vertex 98.41932 146.58421 2
    endloop
  endfacet
  facet normal 0 0 1
    outer loop
      vertex 97.11271 148.84732 2
      vertex 97.11271 134.15268 2
      vertex 98.41932 136.41579 2
    endloop
  endfacet
  facet normal 0 0 1
    outer loop
      vertex 95.364136 150.7893 2
      vertex 97.11271 134.15268 2
      vertex 97.11271 148.84732 2
    endloop
  endfacet
  facet normal 0 0 1
    outer loop
      vertex 95.364136 150.7893 2
      vertex 95.364136 132.2107 2
      vertex 97.11271 134.15268 2
    endloop
  endfacet
  facet normal 0 0 1
    outer loop
      vertex 93.25 152.32532 2
      vertex 95.364136 132.2107 2
      vertex 95.364136 150.7893 2
    endloop
  endfacet
  facet normal 0 0 1
    outer loop
      vertex 93.25 152.32532 2
      vertex 93.25 130.67468 2
      vertex 95.364136 132.2107 2
    endloop
  endfacet
  facet normal 0 0 1
    outer loop
      vertex 90.86271 153.3882 2
      vertex 93.25 130.67468 2
      vertex 93.25 152.32532 2
    endloop
  endfacet
  facet normal 0 0 1
    outer loop
      vertex 90.86271 153.3882 2
      vertex 90.86271 129.61179 2
      vertex 93.25 130.67468 2
    endloop
  endfacet
  facet normal 0 0 1
    outer loop
      vertex 88.3066 153.93152 2
      vertex 90.86271 129.61179 2
      vertex 90.86271 153.3882 2
    endloop
  endfacet
  facet normal 0 0 1
    outer loop
      vertex 88.3066 153.93152 2
      vertex 88.3066 129.06848 2
      vertex 90.86271 129.61179 2
    endloop
  endfacet
  facet normal 0 0 1
    outer loop
      vertex 85.69339 153.93152 2
      vertex 88.3066 129.06848 2
      vertex 88.3066 153.93152 2
    endloop
  endfacet
  facet normal 0 0 1
    outer loop
      vertex 85.69339 153.93152 2
      vertex 85.69339 129.06848 2
      vertex 88.3066 129.06848 2
    endloop
  endfacet
  facet normal 0 0 1
    outer loop
      vertex 83.13728 153.3882 2
      vertex 85.69339 129.06848 2
      vertex 85.69339 153.93152 2
    endloop
  endfacet
  facet normal 0 0 1
    outer loop
      vertex 83.13728 153.3882 2
      vertex 83.13728 129.61179 2
      vertex 85.69339 129.06848 2
    endloop
  endfacet
  facet normal 0 0 1
    outer loop
      vertex 80.75 152.32532 2
      vertex 83.13728 129.61179 2
      vertex 83.13728 153.3882 2
    endloop
  endfacet
  facet normal 0 0 1
    outer loop
      vertex 80.75 152.32532 2
      vertex 80.75 130.67468 2
      vertex 83.13728 129.61179 2
    endloop
  endfacet
  facet normal 0 0 1
    outer loop
      vertex 78.635864 150.7893 2
      vertex 80.75 130.67468 2
      vertex 80.75 152.32532 2
    endloop
  endfacet
  facet normal 0 0 1
    outer loop
      vertex 78.635864 150.7893 2
      vertex 78.635864 132.2107 2
      vertex 80.75 130.67468 2
    endloop
  endfacet
  facet normal 0 0 1
    outer loop
      vertex 76.88728 148.84732 2
      vertex 78.635864 132.2107 2
      vertex 78.635864 150.7893 2
    endloop
  endfacet
  facet normal 0 0 1
    outer loop
      vertex 76.88728 148.84732 2
      vertex 76.88728 134.15268 2
      vertex 78.635864 132.2107 2
    endloop
  endfacet
  facet normal 0 0 1
    outer loop
      vertex 75.58068 146.58421 2
      vertex 76.88728 134.15268 2
      vertex 76.88728 148.84732 2
    endloop
  endfacet
  facet normal 0 0 1
    outer loop
      vertex 75.58068 146.58421 2
      vertex 75.58068 136.41579 2
      vertex 76.88728 134.15268 2
    endloop
  endfacet
  facet normal 0 0 1
    outer loop
      vertex 74.773155 144.09889 2
      vertex 75.58068 136.41579 2
      vertex 75.58068 146.58421 2
    endloop
  endfacet
  facet normal 0 0 1
    outer loop
      vertex 74.773155 144.09889 2
      vertex 74.773155 138.90111 2
      vertex 75.58068 136.41579 2
    endloop
  endfacet
  facet normal 0 0 1
    outer loop
      vertex 74.773155 138.90111 2
      vertex 74.773155 144.09889 2
      vertex 74.5 141.5 2
    endloop
  endfacet
  facet normal -0.7431446 0.66913086 0
    outer loop
      vertex 95.364136 132.2107 2
      vertex 97.11271 134.15268 6
      vertex 97.11271 134.15268 2
    endloop
  endfacet
  facet normal -0.7431446 0.66913086 0
    outer loop
      vertex 97.11271 134.15268 6
      vertex 95.364136 132.2107 2
      vertex 95.364136 132.2107 6
    endloop
  endfacet
  facet normal 0.58778554 0.80901676 0
    outer loop
      vertex 80.75 130.67468 2
      vertex 78.635864 132.2107 6
      vertex 80.75 130.67468 6
    endloop
  endfacet
  facet normal 0.58778554 0.80901676 0
    outer loop
      vertex 78.635864 132.2107 6
      vertex 80.75 130.67468 2
      vertex 78.635864 132.2107 2
    endloop
  endfacet
  facet normal 0.58778554 -0.80901676 0
    outer loop
      vertex 78.635864 150.7893 2
      vertex 80.75 152.32532 6
      vertex 78.635864 150.7893 6
    endloop
  endfacet
  facet normal 0.58778554 -0.80901676 0
    outer loop
      vertex 80.75 152.32532 6
      vertex 78.635864 150.7893 2
      vertex 80.75 152.32532 2
    endloop
  endfacet
  facet normal -0.58778554 -0.80901676 0
    outer loop
      vertex 93.25 152.32532 2
      vertex 95.364136 150.7893 6
      vertex 93.25 152.32532 6
    endloop
  endfacet
  facet normal -0.58778554 -0.80901676 0
    outer loop
      vertex 95.364136 150.7893 6
      vertex 93.25 152.32532 2
      vertex 95.364136 150.7893 2
    endloop
  endfacet
  facet normal 0 -1 0
    outer loop
      vertex 85.69339 153.93152 2
      vertex 88.3066 153.93152 6
      vertex 85.69339 153.93152 6
    endloop
  endfacet
  facet normal 0 -1 0
    outer loop
      vertex 88.3066 153.93152 6
      vertex 85.69339 153.93152 2
      vertex 88.3066 153.93152 2
    endloop
  endfacet
  facet normal 0 1 0
    outer loop
      vertex 88.3066 129.06848 2
      vertex 85.69339 129.06848 6
      vertex 88.3066 129.06848 6
    endloop
  endfacet
  facet normal 0 1 0
    outer loop
      vertex 85.69339 129.06848 6
      vertex 88.3066 129.06848 2
      vertex 85.69339 129.06848 2
    endloop
  endfacet
  facet normal 0.2079126 -0.9781474 0
    outer loop
      vertex 83.13728 153.3882 2
      vertex 85.69339 153.93152 6
      vertex 83.13728 153.3882 6
    endloop
  endfacet
  facet normal 0.2079126 -0.9781474 0
    outer loop
      vertex 85.69339 153.93152 6
      vertex 83.13728 153.3882 2
      vertex 85.69339 153.93152 2
    endloop
  endfacet
  facet normal 0.40673488 -0.91354626 0
    outer loop
      vertex 80.75 152.32532 2
      vertex 83.13728 153.3882 6
      vertex 80.75 152.32532 6
    endloop
  endfacet
  facet normal 0.40673488 -0.91354626 0
    outer loop
      vertex 83.13728 153.3882 6
      vertex 80.75 152.32532 2
      vertex 83.13728 153.3882 2
    endloop
  endfacet
  facet normal -0.95105696 0.30901557 0
    outer loop
      vertex 98.41932 136.41579 2
      vertex 99.226845 138.90111 6
      vertex 99.226845 138.90111 2
    endloop
  endfacet
  facet normal -0.95105696 0.30901557 0
    outer loop
      vertex 99.226845 138.90111 6
      vertex 98.41932 136.41579 2
      vertex 98.41932 136.41579 6
    endloop
  endfacet
  facet normal -0.2079126 -0.9781474 0
    outer loop
      vertex 88.3066 153.93152 2
      vertex 90.86271 153.3882 6
      vertex 88.3066 153.93152 6
    endloop
  endfacet
  facet normal -0.2079126 -0.9781474 0
    outer loop
      vertex 90.86271 153.3882 6
      vertex 88.3066 153.93152 2
      vertex 90.86271 153.3882 2
    endloop
  endfacet
  facet normal 0.74314314 -0.6691325 0
    outer loop
      vertex 76.88728 148.84732 6
      vertex 78.635864 150.7893 2
      vertex 78.635864 150.7893 6
    endloop
  endfacet
  facet normal 0.74314314 -0.6691325 0
    outer loop
      vertex 78.635864 150.7893 2
      vertex 76.88728 148.84732 6
      vertex 76.88728 148.84732 2
    endloop
  endfacet
  facet normal 0.99452186 0.1045287 0
    outer loop
      vertex 74.773155 138.90111 6
      vertex 74.5 141.5 2
      vertex 74.5 141.5 6
    endloop
  endfacet
  facet normal 0.99452186 0.1045287 0
    outer loop
      vertex 74.5 141.5 2
      vertex 74.773155 138.90111 6
      vertex 74.773155 138.90111 2
    endloop
  endfacet
  facet normal -0.207907 0.9781486 0
    outer loop
      vertex 90.86271 129.61179 2
      vertex 88.3066 129.06848 6
      vertex 90.86271 129.61179 6
    endloop
  endfacet
  facet normal -0.207907 0.9781486 0
    outer loop
      vertex 88.3066 129.06848 6
      vertex 90.86271 129.61179 2
      vertex 88.3066 129.06848 2
    endloop
  endfacet
  facet normal 0.40673974 0.91354406 0
    outer loop
      vertex 83.13728 129.61179 2
      vertex 80.75 130.67468 6
      vertex 83.13728 129.61179 6
    endloop
  endfacet
  facet normal 0.40673974 0.91354406 0
    outer loop
      vertex 80.75 130.67468 6
      vertex 83.13728 129.61179 2
      vertex 80.75 130.67468 2
    endloop
  endfacet
  facet normal 0.207907 0.9781486 0
    outer loop
      vertex 85.69339 129.06848 2
      vertex 83.13728 129.61179 6
      vertex 85.69339 129.06848 6
    endloop
  endfacet
  facet normal 0.207907 0.9781486 0
    outer loop
      vertex 83.13728 129.61179 6
      vertex 85.69339 129.06848 2
      vertex 83.13728 129.61179 2
    endloop
  endfacet
  facet normal 0.8660259 0.4999991 0
    outer loop
      vertex 76.88728 134.15268 6
      vertex 75.58068 136.41579 2
      vertex 75.58068 136.41579 6
    endloop
  endfacet
  facet normal 0.8660259 0.4999991 0
    outer loop
      vertex 75.58068 136.41579 2
      vertex 76.88728 134.15268 6
      vertex 76.88728 134.15268 2
    endloop
  endfacet
  facet normal -0.58778554 0.80901676 0
    outer loop
      vertex 95.364136 132.2107 2
      vertex 93.25 130.67468 6
      vertex 95.364136 132.2107 6
    endloop
  endfacet
  facet normal -0.58778554 0.80901676 0
    outer loop
      vertex 93.25 130.67468 6
      vertex 95.364136 132.2107 2
      vertex 93.25 130.67468 2
    endloop
  endfacet
  facet normal 0.74314314 0.6691325 0
    outer loop
      vertex 78.635864 132.2107 6
      vertex 76.88728 134.15268 2
      vertex 76.88728 134.15268 6
    endloop
  endfacet
  facet normal 0.74314314 0.6691325 0
    outer loop
      vertex 76.88728 134.15268 2
      vertex 78.635864 132.2107 6
      vertex 78.635864 132.2107 2
    endloop
  endfacet
  facet normal 0.95105696 -0.30901557 0
    outer loop
      vertex 74.773155 144.09889 6
      vertex 75.58068 146.58421 2
      vertex 75.58068 146.58421 6
    endloop
  endfacet
  facet normal 0.95105696 -0.30901557 0
    outer loop
      vertex 75.58068 146.58421 2
      vertex 74.773155 144.09889 6
      vertex 74.773155 144.09889 2
    endloop
  endfacet
  facet normal 0.8660259 -0.4999991 0
    outer loop
      vertex 75.58068 146.58421 6
      vertex 76.88728 148.84732 2
      vertex 76.88728 148.84732 6
    endloop
  endfacet
  facet normal 0.8660259 -0.4999991 0
    outer loop
      vertex 76.88728 148.84732 2
      vertex 75.58068 146.58421 6
      vertex 75.58068 146.58421 2
    endloop
  endfacet
endsolid OpenSCAD_Model
