solid OpenSCAD_Model
  facet normal 0.8628571 -0.3574057 -0.3574057
    outer loop
      vertex 97.598076 1.5 3
      vertex 96.83712 1.1628828 1.5
      vertex 97.598076 3 1.5
    endloop
  endfacet
  facet normal 0 -0.70710677 -0.70710677
    outer loop
      vertex 3 1.5 0.40192413
      vertex 95 0.40192413 1.5
      vertex 3 0.40192413 1.5
    endloop
  endfacet
  facet normal 0 -0.70710677 -0.70710677
    outer loop
      vertex 95 0.40192413 1.5
      vertex 3 1.5 0.40192413
      vertex 95 1.5 0.40192413
    endloop
  endfacet
  facet normal 0.250563 -0.250563 -0.935113
    outer loop
      vertex 96.5 3 0.40192413
      vertex 95 1.5 0.40192413
      vertex 95 3 0
    endloop
  endfacet
  facet normal -0.69340175 0.69340175 -0.19592872
    outer loop
      vertex 1.1628828 63.337116 1.5
      vertex 0.40192413 63 3
      vertex 1.5 64.098076 3
    endloop
  endfacet
  facet normal 0 -0.96592575 -0.25881925
    outer loop
      vertex 3 0.40192413 1.5
      vertex 95 0 3
      vertex 3 0 3
    endloop
  endfacet
  facet normal 0 -0.96592575 -0.25881925
    outer loop
      vertex 95 0 3
      vertex 3 0.40192413 1.5
      vertex 95 0.40192413 1.5
    endloop
  endfacet
  facet normal -0.86285615 0.35740682 -0.35740682
    outer loop
      vertex 1.1628828 63.337116 1.5
      vertex 0.40192413 61.5 1.5
      vertex 0.40192413 63 3
    endloop
  endfacet
  facet normal 0.70710677 0 0.70710677
    outer loop
      vertex 96.5 3 37.598076
      vertex 97.598076 61.5 36.5
      vertex 96.5 61.5 37.598076
    endloop
  endfacet
  facet normal 0.70710677 0 0.70710677
    outer loop
      vertex 97.598076 61.5 36.5
      vertex 96.5 3 37.598076
      vertex 97.598076 3 36.5
    endloop
  endfacet
  facet normal 0.250563 0.935113 0.250563
    outer loop
      vertex 95 64.5 35
      vertex 95 64.098076 36.5
      vertex 96.5 64.098076 35
    endloop
  endfacet
  facet normal 1 0 0
    outer loop
      vertex 98 3 35
      vertex 98 61.5 3
      vertex 98 61.5 35
    endloop
  endfacet
  facet normal 1 0 0
    outer loop
      vertex 98 61.5 3
      vertex 98 3 35
      vertex 98 3 3
    endloop
  endfacet
  facet normal -0.250563 0.935113 -0.250563
    outer loop
      vertex 3 64.098076 1.5
      vertex 1.5 64.098076 3
      vertex 3 64.5 3
    endloop
  endfacet
  facet normal -0.70710677 0 -0.70710677
    outer loop
      vertex 1.5 3 0.40192413
      vertex 0.40192413 61.5 1.5
      vertex 1.5 61.5 0.40192413
    endloop
  endfacet
  facet normal -0.70710677 0 -0.70710677
    outer loop
      vertex 0.40192413 61.5 1.5
      vertex 1.5 3 0.40192413
      vertex 0.40192413 3 1.5
    endloop
  endfacet
  facet normal 0.250563 0.935113 -0.250563
    outer loop
      vertex 96.5 64.098076 3
      vertex 95 64.098076 1.5
      vertex 95 64.5 3
    endloop
  endfacet
  facet normal 0.250563 -0.935113 -0.250563
    outer loop
      vertex 96.5 0.40192413 3
      vertex 95 0 3
      vertex 95 0.40192413 1.5
    endloop
  endfacet
  facet normal 0 -0.25881925 -0.96592575
    outer loop
      vertex 3 1.5 0.40192413
      vertex 95 3 0
      vertex 95 1.5 0.40192413
    endloop
  endfacet
  facet normal 0 -0.25881925 -0.96592575
    outer loop
      vertex 95 3 0
      vertex 3 1.5 0.40192413
      vertex 3 3 0
    endloop
  endfacet
  facet normal 0.25881925 -0.96592575 0
    outer loop
      vertex 95 0 3
      vertex 96.5 0.40192413 35
      vertex 95 0 35
    endloop
  endfacet
  facet normal 0.25881925 -0.96592575 0
    outer loop
      vertex 96.5 0.40192413 35
      vertex 95 0 3
      vertex 96.5 0.40192413 3
    endloop
  endfacet
  facet normal 0.693402 -0.693402 0.19592702
    outer loop
      vertex 96.83712 1.1628828 36.5
      vertex 96.5 0.40192413 35
      vertex 97.598076 1.5 35
    endloop
  endfacet
  facet normal -0.96592575 0 -0.25881925
    outer loop
      vertex 0.40192413 3 1.5
      vertex 0 61.5 3
      vertex 0.40192413 61.5 1.5
    endloop
  endfacet
  facet normal -0.96592575 0 -0.25881925
    outer loop
      vertex 0 61.5 3
      vertex 0.40192413 3 1.5
      vertex 0 3 3
    endloop
  endfacet
  facet normal -1 0 0
    outer loop
      vertex 0 3 3
      vertex 0 61.5 35
      vertex 0 61.5 3
    endloop
  endfacet
  facet normal -1 0 0
    outer loop
      vertex 0 61.5 35
      vertex 0 3 3
      vertex 0 3 35
    endloop
  endfacet
  facet normal -0.86285627 -0.35740668 -0.35740668
    outer loop
      vertex 1.1628828 1.1628828 1.5
      vertex 0.40192413 1.5 3
      vertex 0.40192413 3 1.5
    endloop
  endfacet
  facet normal -0.25881925 0 -0.96592575
    outer loop
      vertex 1.5 3 0.40192413
      vertex 3 61.5 0
      vertex 3 3 0
    endloop
  endfacet
  facet normal -0.25881925 0 -0.96592575
    outer loop
      vertex 3 61.5 0
      vertex 1.5 3 0.40192413
      vertex 1.5 61.5 0.40192413
    endloop
  endfacet
  facet normal 0.862857 0.3574058 -0.3574058
    outer loop
      vertex 97.598076 61.5 1.5
      vertex 96.83712 63.337116 1.5
      vertex 97.598076 63 3
    endloop
  endfacet
  facet normal -0.69340175 0.69340175 0.19592872
    outer loop
      vertex 1.5 64.098076 35
      vertex 0.40192413 63 35
      vertex 1.1628828 63.337116 36.5
    endloop
  endfacet
  facet normal 0.96592575 0 0.25881925
    outer loop
      vertex 97.598076 3 36.5
      vertex 98 61.5 35
      vertex 97.598076 61.5 36.5
    endloop
  endfacet
  facet normal 0.96592575 0 0.25881925
    outer loop
      vertex 98 61.5 35
      vertex 97.598076 3 36.5
      vertex 98 3 35
    endloop
  endfacet
  facet normal -0.35740668 -0.86285627 -0.35740668
    outer loop
      vertex 1.5 0.40192413 3
      vertex 1.1628828 1.1628828 1.5
      vertex 3 0.40192413 1.5
    endloop
  endfacet
  facet normal 0.28108418 -0.67859846 -0.67859846
    outer loop
      vertex 96.83712 1.1628828 1.5
      vertex 95 0.40192413 1.5
      vertex 95 1.5 0.40192413
    endloop
  endfacet
  facet normal 0.4109778 0.4109778 0.8137533
    outer loop
      vertex 96.83712 63.337116 36.5
      vertex 95 63 37.598076
      vertex 96.5 61.5 37.598076
    endloop
  endfacet
  facet normal -0.70710677 0.70710677 0
    outer loop
      vertex 0.40192413 63 3
      vertex 1.5 64.098076 35
      vertex 1.5 64.098076 3
    endloop
  endfacet
  facet normal -0.70710677 0.70710677 0
    outer loop
      vertex 1.5 64.098076 35
      vertex 0.40192413 63 3
      vertex 0.40192413 63 35
    endloop
  endfacet
  facet normal 0.25881925 0.96592575 0
    outer loop
      vertex 96.5 64.098076 3
      vertex 95 64.5 35
      vertex 96.5 64.098076 35
    endloop
  endfacet
  facet normal 0.25881925 0.96592575 0
    outer loop
      vertex 95 64.5 35
      vertex 96.5 64.098076 3
      vertex 95 64.5 3
    endloop
  endfacet
  facet normal -0.935113 0.250563 -0.250563
    outer loop
      vertex 0.40192413 61.5 1.5
      vertex 0 61.5 3
      vertex 0.40192413 63 3
    endloop
  endfacet
  facet normal 0.69340193 0.69340193 -0.19592744
    outer loop
      vertex 96.83712 63.337116 1.5
      vertex 96.5 64.098076 3
      vertex 97.598076 63 3
    endloop
  endfacet
  facet normal 0 -1 0
    outer loop
      vertex 3 0 3
      vertex 95 0 35
      vertex 3 0 35
    endloop
  endfacet
  facet normal 0 -1 0
    outer loop
      vertex 95 0 35
      vertex 3 0 3
      vertex 95 0 3
    endloop
  endfacet
  facet normal -0.6934018 -0.6934018 -0.19592829
    outer loop
      vertex 1.5 0.40192413 3
      vertex 0.40192413 1.5 3
      vertex 1.1628828 1.1628828 1.5
    endloop
  endfacet
  facet normal 0.4109777 -0.4109777 -0.8137534
    outer loop
      vertex 96.83712 1.1628828 1.5
      vertex 95 1.5 0.40192413
      vertex 96.5 3 0.40192413
    endloop
  endfacet
  facet normal -0.86285615 0.35740682 0.35740682
    outer loop
      vertex 0.40192413 63 35
      vertex 0.40192413 61.5 36.5
      vertex 1.1628828 63.337116 36.5
    endloop
  endfacet
  facet normal -0.70710677 0 0.70710677
    outer loop
      vertex 0.40192413 3 36.5
      vertex 1.5 61.5 37.598076
      vertex 0.40192413 61.5 36.5
    endloop
  endfacet
  facet normal -0.70710677 0 0.70710677
    outer loop
      vertex 1.5 61.5 37.598076
      vertex 0.40192413 3 36.5
      vertex 1.5 3 37.598076
    endloop
  endfacet
  facet normal 0.96592575 0.25881925 0
    outer loop
      vertex 98 61.5 35
      vertex 97.598076 63 3
      vertex 97.598076 63 35
    endloop
  endfacet
  facet normal 0.96592575 0.25881925 0
    outer loop
      vertex 97.598076 63 3
      vertex 98 61.5 35
      vertex 98 61.5 3
    endloop
  endfacet
  facet normal 0.70710677 -0.70710677 0
    outer loop
      vertex 96.5 0.40192413 35
      vertex 97.598076 1.5 3
      vertex 97.598076 1.5 35
    endloop
  endfacet
  facet normal 0.70710677 -0.70710677 0
    outer loop
      vertex 97.598076 1.5 3
      vertex 96.5 0.40192413 35
      vertex 96.5 0.40192413 3
    endloop
  endfacet
  facet normal 0 0.96592575 -0.25881925
    outer loop
      vertex 95 64.098076 1.5
      vertex 3 64.5 3
      vertex 95 64.5 3
    endloop
  endfacet
  facet normal 0 0.96592575 -0.25881925
    outer loop
      vertex 3 64.5 3
      vertex 95 64.098076 1.5
      vertex 3 64.098076 1.5
    endloop
  endfacet
  facet normal -0.25881925 0.96592575 0
    outer loop
      vertex 3 64.5 3
      vertex 1.5 64.098076 35
      vertex 3 64.5 35
    endloop
  endfacet
  facet normal -0.25881925 0.96592575 0
    outer loop
      vertex 1.5 64.098076 35
      vertex 3 64.5 3
      vertex 1.5 64.098076 3
    endloop
  endfacet
  facet normal 0.2810845 0.67859834 -0.67859834
    outer loop
      vertex 96.83712 63.337116 1.5
      vertex 95 63 0.40192413
      vertex 95 64.098076 1.5
    endloop
  endfacet
  facet normal 0 1 0
    outer loop
      vertex 95 64.5 3
      vertex 3 64.5 35
      vertex 95 64.5 35
    endloop
  endfacet
  facet normal 0 1 0
    outer loop
      vertex 3 64.5 35
      vertex 95 64.5 3
      vertex 3 64.5 3
    endloop
  endfacet
  facet normal 0.935113 0.250563 -0.250563
    outer loop
      vertex 98 61.5 3
      vertex 97.598076 61.5 1.5
      vertex 97.598076 63 3
    endloop
  endfacet
  facet normal -0.935113 -0.250563 -0.250563
    outer loop
      vertex 0.40192413 1.5 3
      vertex 0 3 3
      vertex 0.40192413 3 1.5
    endloop
  endfacet
  facet normal -0.67859834 0.28108472 -0.67859834
    outer loop
      vertex 1.5 61.5 0.40192413
      vertex 0.40192413 61.5 1.5
      vertex 1.1628828 63.337116 1.5
    endloop
  endfacet
  facet normal -0.250563 -0.250563 -0.935113
    outer loop
      vertex 3 1.5 0.40192413
      vertex 1.5 3 0.40192413
      vertex 3 3 0
    endloop
  endfacet
  facet normal 0.6785986 -0.2810836 -0.6785986
    outer loop
      vertex 96.83712 1.1628828 1.5
      vertex 96.5 3 0.40192413
      vertex 97.598076 3 1.5
    endloop
  endfacet
  facet normal 0.693402 -0.693402 -0.19592702
    outer loop
      vertex 97.598076 1.5 3
      vertex 96.5 0.40192413 3
      vertex 96.83712 1.1628828 1.5
    endloop
  endfacet
  facet normal 0.35740626 -0.8628566 -0.35740626
    outer loop
      vertex 96.5 0.40192413 3
      vertex 95 0.40192413 1.5
      vertex 96.83712 1.1628828 1.5
    endloop
  endfacet
  facet normal 0.8628571 -0.3574057 0.3574057
    outer loop
      vertex 97.598076 3 36.5
      vertex 96.83712 1.1628828 36.5
      vertex 97.598076 1.5 35
    endloop
  endfacet
  facet normal -0.250563 -0.935113 0.250563
    outer loop
      vertex 3 0.40192413 36.5
      vertex 1.5 0.40192413 35
      vertex 3 0 35
    endloop
  endfacet
  facet normal 0.96592575 -0.25881925 0
    outer loop
      vertex 97.598076 1.5 35
      vertex 98 3 3
      vertex 98 3 35
    endloop
  endfacet
  facet normal 0.96592575 -0.25881925 0
    outer loop
      vertex 98 3 3
      vertex 97.598076 1.5 35
      vertex 97.598076 1.5 3
    endloop
  endfacet
  facet normal 0.6785985 0.28108373 -0.6785985
    outer loop
      vertex 97.598076 61.5 1.5
      vertex 96.5 61.5 0.40192413
      vertex 96.83712 63.337116 1.5
    endloop
  endfacet
  facet normal -0.2810849 0.6785983 -0.6785983
    outer loop
      vertex 3 63 0.40192413
      vertex 1.1628828 63.337116 1.5
      vertex 3 64.098076 1.5
    endloop
  endfacet
  facet normal -0.357407 0.862856 -0.357407
    outer loop
      vertex 3 64.098076 1.5
      vertex 1.1628828 63.337116 1.5
      vertex 1.5 64.098076 3
    endloop
  endfacet
  facet normal -0.41097817 0.41097817 -0.81375295
    outer loop
      vertex 1.5 61.5 0.40192413
      vertex 1.1628828 63.337116 1.5
      vertex 3 63 0.40192413
    endloop
  endfacet
  facet normal -0.250563 0.250563 -0.935113
    outer loop
      vertex 3 61.5 0
      vertex 1.5 61.5 0.40192413
      vertex 3 63 0.40192413
    endloop
  endfacet
  facet normal -0.96592575 0.25881925 0
    outer loop
      vertex 0 61.5 3
      vertex 0.40192413 63 35
      vertex 0.40192413 63 3
    endloop
  endfacet
  facet normal -0.96592575 0.25881925 0
    outer loop
      vertex 0.40192413 63 35
      vertex 0 61.5 3
      vertex 0 61.5 35
    endloop
  endfacet
  facet normal 0.25881925 0 -0.96592575
    outer loop
      vertex 95 3 0
      vertex 96.5 61.5 0.40192413
      vertex 96.5 3 0.40192413
    endloop
  endfacet
  facet normal 0.25881925 0 -0.96592575
    outer loop
      vertex 96.5 61.5 0.40192413
      vertex 95 3 0
      vertex 95 61.5 0
    endloop
  endfacet
  facet normal -0.67859834 -0.28108457 -0.67859834
    outer loop
      vertex 1.1628828 1.1628828 1.5
      vertex 0.40192413 3 1.5
      vertex 1.5 3 0.40192413
    endloop
  endfacet
  facet normal -0.41097805 -0.41097805 -0.81375307
    outer loop
      vertex 3 1.5 0.40192413
      vertex 1.1628828 1.1628828 1.5
      vertex 1.5 3 0.40192413
    endloop
  endfacet
  facet normal -0.67859834 0.28108472 0.67859834
    outer loop
      vertex 1.1628828 63.337116 36.5
      vertex 0.40192413 61.5 36.5
      vertex 1.5 61.5 37.598076
    endloop
  endfacet
  facet normal 0.935113 -0.250563 -0.250563
    outer loop
      vertex 98 3 3
      vertex 97.598076 1.5 3
      vertex 97.598076 3 1.5
    endloop
  endfacet
  facet normal 0.70710677 0.70710677 0
    outer loop
      vertex 97.598076 63 35
      vertex 96.5 64.098076 3
      vertex 96.5 64.098076 35
    endloop
  endfacet
  facet normal 0.70710677 0.70710677 0
    outer loop
      vertex 96.5 64.098076 3
      vertex 97.598076 63 35
      vertex 97.598076 63 3
    endloop
  endfacet
  facet normal 0.3574066 0.8628563 -0.3574066
    outer loop
      vertex 96.83712 63.337116 1.5
      vertex 95 64.098076 1.5
      vertex 96.5 64.098076 3
    endloop
  endfacet
  facet normal -0.96592575 -0.25881925 0
    outer loop
      vertex 0.40192413 1.5 3
      vertex 0 3 35
      vertex 0 3 3
    endloop
  endfacet
  facet normal -0.96592575 -0.25881925 0
    outer loop
      vertex 0 3 35
      vertex 0.40192413 1.5 3
      vertex 0.40192413 1.5 35
    endloop
  endfacet
  facet normal -0.28108457 -0.67859834 -0.67859834
    outer loop
      vertex 3 0.40192413 1.5
      vertex 1.1628828 1.1628828 1.5
      vertex 3 1.5 0.40192413
    endloop
  endfacet
  facet normal -0.70710677 -0.70710677 0
    outer loop
      vertex 1.5 0.40192413 3
      vertex 0.40192413 1.5 35
      vertex 0.40192413 1.5 3
    endloop
  endfacet
  facet normal -0.70710677 -0.70710677 0
    outer loop
      vertex 0.40192413 1.5 35
      vertex 1.5 0.40192413 3
      vertex 1.5 0.40192413 35
    endloop
  endfacet
  facet normal 0.250563 -0.250563 0.935113
    outer loop
      vertex 95 3 38
      vertex 95 1.5 37.598076
      vertex 96.5 3 37.598076
    endloop
  endfacet
  facet normal -0.35740668 -0.86285627 0.35740668
    outer loop
      vertex 3 0.40192413 36.5
      vertex 1.1628828 1.1628828 36.5
      vertex 1.5 0.40192413 35
    endloop
  endfacet
  facet normal 0.35740626 -0.8628566 0.35740626
    outer loop
      vertex 96.83712 1.1628828 36.5
      vertex 95 0.40192413 36.5
      vertex 96.5 0.40192413 35
    endloop
  endfacet
  facet normal 0 0.70710677 0.70710677
    outer loop
      vertex 95 64.098076 36.5
      vertex 3 63 37.598076
      vertex 95 63 37.598076
    endloop
  endfacet
  facet normal 0 0.70710677 0.70710677
    outer loop
      vertex 3 63 37.598076
      vertex 95 64.098076 36.5
      vertex 3 64.098076 36.5
    endloop
  endfacet
  facet normal 0.935113 0.250563 0.250563
    outer loop
      vertex 97.598076 63 35
      vertex 97.598076 61.5 36.5
      vertex 98 61.5 35
    endloop
  endfacet
  facet normal 0 0.25881925 0.96592575
    outer loop
      vertex 95 63 37.598076
      vertex 93.5 61.5 38
      vertex 95 61.5 38
    endloop
  endfacet
  facet normal 0 0.25881925 0.96592575
    outer loop
      vertex 95 63 37.598076
      vertex 4.5 61.5 38
      vertex 93.5 61.5 38
    endloop
  endfacet
  facet normal 0 0.25881925 0.96592575
    outer loop
      vertex 3 63 37.598076
      vertex 4.5 61.5 38
      vertex 95 63 37.598076
    endloop
  endfacet
  facet normal 0 0.25881925 0.96592575
    outer loop
      vertex 4.5 61.5 38
      vertex 3 63 37.598076
      vertex 3 61.5 38
    endloop
  endfacet
  facet normal 0.70710677 0 -0.70710677
    outer loop
      vertex 97.598076 3 1.5
      vertex 96.5 61.5 0.40192413
      vertex 97.598076 61.5 1.5
    endloop
  endfacet
  facet normal 0.70710677 0 -0.70710677
    outer loop
      vertex 96.5 61.5 0.40192413
      vertex 97.598076 3 1.5
      vertex 96.5 3 0.40192413
    endloop
  endfacet
  facet normal -0.25881925 -0.96592575 0
    outer loop
      vertex 1.5 0.40192413 3
      vertex 3 0 35
      vertex 1.5 0.40192413 35
    endloop
  endfacet
  facet normal -0.25881925 -0.96592575 0
    outer loop
      vertex 3 0 35
      vertex 1.5 0.40192413 3
      vertex 3 0 3
    endloop
  endfacet
  facet normal -0.250563 -0.935113 -0.250563
    outer loop
      vertex 3 0 3
      vertex 1.5 0.40192413 3
      vertex 3 0.40192413 1.5
    endloop
  endfacet
  facet normal 0.4109777 -0.4109777 0.8137534
    outer loop
      vertex 96.5 3 37.598076
      vertex 95 1.5 37.598076
      vertex 96.83712 1.1628828 36.5
    endloop
  endfacet
  facet normal 0 -0.25881925 0.96592575
    outer loop
      vertex 93.5 3 38
      vertex 95 1.5 37.598076
      vertex 95 3 38
    endloop
  endfacet
  facet normal 0 -0.25881925 0.96592575
    outer loop
      vertex 4.5 3 38
      vertex 95 1.5 37.598076
      vertex 93.5 3 38
    endloop
  endfacet
  facet normal 0 -0.25881925 0.96592575
    outer loop
      vertex 3 1.5 37.598076
      vertex 4.5 3 38
      vertex 3 3 38
    endloop
  endfacet
  facet normal 0 -0.25881925 0.96592575
    outer loop
      vertex 4.5 3 38
      vertex 3 1.5 37.598076
      vertex 95 1.5 37.598076
    endloop
  endfacet
  facet normal 0 -0.70710677 0.70710677
    outer loop
      vertex 3 0.40192413 36.5
      vertex 95 1.5 37.598076
      vertex 3 1.5 37.598076
    endloop
  endfacet
  facet normal 0 -0.70710677 0.70710677
    outer loop
      vertex 95 1.5 37.598076
      vertex 3 0.40192413 36.5
      vertex 95 0.40192413 36.5
    endloop
  endfacet
  facet normal 0.28108418 -0.67859846 0.67859846
    outer loop
      vertex 95 1.5 37.598076
      vertex 95 0.40192413 36.5
      vertex 96.83712 1.1628828 36.5
    endloop
  endfacet
  facet normal 0 -0.96592575 0.25881925
    outer loop
      vertex 3 0 35
      vertex 95 0.40192413 36.5
      vertex 3 0.40192413 36.5
    endloop
  endfacet
  facet normal 0 -0.96592575 0.25881925
    outer loop
      vertex 95 0.40192413 36.5
      vertex 3 0 35
      vertex 95 0 35
    endloop
  endfacet
  facet normal 0.250563 -0.935113 0.250563
    outer loop
      vertex 95 0.40192413 36.5
      vertex 95 0 35
      vertex 96.5 0.40192413 35
    endloop
  endfacet
  facet normal 0.3574066 0.8628563 0.3574066
    outer loop
      vertex 96.5 64.098076 35
      vertex 95 64.098076 36.5
      vertex 96.83712 63.337116 36.5
    endloop
  endfacet
  facet normal -0.357407 0.862856 0.357407
    outer loop
      vertex 1.5 64.098076 35
      vertex 1.1628828 63.337116 36.5
      vertex 3 64.098076 36.5
    endloop
  endfacet
  facet normal 0 0 -1
    outer loop
      vertex 3 3 0
      vertex 95 61.5 0
      vertex 95 3 0
    endloop
  endfacet
  facet normal 0 0 -1
    outer loop
      vertex 95 61.5 0
      vertex 3 3 0
      vertex 3 61.5 0
    endloop
  endfacet
  facet normal 0.4109778 0.4109778 -0.8137533
    outer loop
      vertex 96.5 61.5 0.40192413
      vertex 95 63 0.40192413
      vertex 96.83712 63.337116 1.5
    endloop
  endfacet
  facet normal 0 0.70710677 -0.70710677
    outer loop
      vertex 95 63 0.40192413
      vertex 3 64.098076 1.5
      vertex 95 64.098076 1.5
    endloop
  endfacet
  facet normal 0 0.70710677 -0.70710677
    outer loop
      vertex 3 64.098076 1.5
      vertex 95 63 0.40192413
      vertex 3 63 0.40192413
    endloop
  endfacet
  facet normal -0.935113 0.250563 0.250563
    outer loop
      vertex 0.40192413 63 35
      vertex 0 61.5 35
      vertex 0.40192413 61.5 36.5
    endloop
  endfacet
  facet normal -0.28108457 -0.67859834 0.67859834
    outer loop
      vertex 3 1.5 37.598076
      vertex 1.1628828 1.1628828 36.5
      vertex 3 0.40192413 36.5
    endloop
  endfacet
  facet normal -0.96592575 0 0.25881925
    outer loop
      vertex 0 3 35
      vertex 0.40192413 61.5 36.5
      vertex 0 61.5 35
    endloop
  endfacet
  facet normal -0.96592575 0 0.25881925
    outer loop
      vertex 0.40192413 61.5 36.5
      vertex 0 3 35
      vertex 0.40192413 3 36.5
    endloop
  endfacet
  facet normal 0.935113 -0.250563 0.250563
    outer loop
      vertex 97.598076 3 36.5
      vertex 97.598076 1.5 35
      vertex 98 3 35
    endloop
  endfacet
  facet normal 0.2810845 0.67859834 0.67859834
    outer loop
      vertex 95 64.098076 36.5
      vertex 95 63 37.598076
      vertex 96.83712 63.337116 36.5
    endloop
  endfacet
  facet normal 0.6785985 0.28108373 0.6785985
    outer loop
      vertex 96.83712 63.337116 36.5
      vertex 96.5 61.5 37.598076
      vertex 97.598076 61.5 36.5
    endloop
  endfacet
  facet normal 0 0 1
    outer loop
      vertex 94.56066 3.4393406 38
      vertex 95 3 38
      vertex 95 4.5 38
    endloop
  endfacet
  facet normal 0 0 1
    outer loop
      vertex 95 3 38
      vertex 94.56066 3.4393406 38
      vertex 93.5 3 38
    endloop
  endfacet
  facet normal 0 0 1
    outer loop
      vertex 3 61.5 38
      vertex 3.4393406 61.06066 38
      vertex 4.5 61.5 38
    endloop
  endfacet
  facet normal 0 0 1
    outer loop
      vertex 3.4393406 61.06066 38
      vertex 3 61.5 38
      vertex 3 60 38
    endloop
  endfacet
  facet normal 0 0 1
    outer loop
      vertex 3.4393406 3.4393406 38
      vertex 3 3 38
      vertex 4.5 3 38
    endloop
  endfacet
  facet normal 0 0 1
    outer loop
      vertex 3 3 38
      vertex 3.4393406 3.4393406 38
      vertex 3 4.5 38
    endloop
  endfacet
  facet normal 0 0 1
    outer loop
      vertex 95 61.5 38
      vertex 94.56066 61.06066 38
      vertex 95 60 38
    endloop
  endfacet
  facet normal 0 0 1
    outer loop
      vertex 94.56066 61.06066 38
      vertex 95 61.5 38
      vertex 93.5 61.5 38
    endloop
  endfacet
  facet normal 0.250563 0.250563 -0.935113
    outer loop
      vertex 96.5 61.5 0.40192413
      vertex 95 61.5 0
      vertex 95 63 0.40192413
    endloop
  endfacet
  facet normal 0 0.25881925 -0.96592575
    outer loop
      vertex 3 61.5 0
      vertex 95 63 0.40192413
      vertex 95 61.5 0
    endloop
  endfacet
  facet normal 0 0.25881925 -0.96592575
    outer loop
      vertex 95 63 0.40192413
      vertex 3 61.5 0
      vertex 3 63 0.40192413
    endloop
  endfacet
  facet normal 0.96592575 0 -0.25881925
    outer loop
      vertex 98 3 3
      vertex 97.598076 61.5 1.5
      vertex 98 61.5 3
    endloop
  endfacet
  facet normal 0.96592575 0 -0.25881925
    outer loop
      vertex 97.598076 61.5 1.5
      vertex 98 3 3
      vertex 97.598076 3 1.5
    endloop
  endfacet
  facet normal -0.935113 -0.250563 0.250563
    outer loop
      vertex 0.40192413 3 36.5
      vertex 0 3 35
      vertex 0.40192413 1.5 35
    endloop
  endfacet
  facet normal -0.250563 -0.250563 0.935113
    outer loop
      vertex 3 3 38
      vertex 1.5 3 37.598076
      vertex 3 1.5 37.598076
    endloop
  endfacet
  facet normal -0.250563 0.250563 0.935113
    outer loop
      vertex 3 63 37.598076
      vertex 1.5 61.5 37.598076
      vertex 3 61.5 38
    endloop
  endfacet
  facet normal -0.41097817 0.41097817 0.81375295
    outer loop
      vertex 3 63 37.598076
      vertex 1.1628828 63.337116 36.5
      vertex 1.5 61.5 37.598076
    endloop
  endfacet
  facet normal 0 0.96592575 0.25881925
    outer loop
      vertex 95 64.5 35
      vertex 3 64.098076 36.5
      vertex 95 64.098076 36.5
    endloop
  endfacet
  facet normal 0 0.96592575 0.25881925
    outer loop
      vertex 3 64.098076 36.5
      vertex 95 64.5 35
      vertex 3 64.5 35
    endloop
  endfacet
  facet normal -0.250563 0.935113 0.250563
    outer loop
      vertex 3 64.5 35
      vertex 1.5 64.098076 35
      vertex 3 64.098076 36.5
    endloop
  endfacet
  facet normal 0.862857 0.3574058 0.3574058
    outer loop
      vertex 97.598076 63 35
      vertex 96.83712 63.337116 36.5
      vertex 97.598076 61.5 36.5
    endloop
  endfacet
  facet normal 0.69340193 0.69340193 0.19592744
    outer loop
      vertex 97.598076 63 35
      vertex 96.5 64.098076 35
      vertex 96.83712 63.337116 36.5
    endloop
  endfacet
  facet normal 0.250563 0.250563 0.935113
    outer loop
      vertex 95 63 37.598076
      vertex 95 61.5 38
      vertex 96.5 61.5 37.598076
    endloop
  endfacet
  facet normal 0.6785986 -0.2810836 0.6785986
    outer loop
      vertex 97.598076 3 36.5
      vertex 96.5 3 37.598076
      vertex 96.83712 1.1628828 36.5
    endloop
  endfacet
  facet normal -0.67859834 -0.28108457 0.67859834
    outer loop
      vertex 1.5 3 37.598076
      vertex 0.40192413 3 36.5
      vertex 1.1628828 1.1628828 36.5
    endloop
  endfacet
  facet normal -0.41097805 -0.41097805 0.81375307
    outer loop
      vertex 1.5 3 37.598076
      vertex 1.1628828 1.1628828 36.5
      vertex 3 1.5 37.598076
    endloop
  endfacet
  facet normal -0.2810849 0.6785983 0.6785983
    outer loop
      vertex 3 64.098076 36.5
      vertex 1.1628828 63.337116 36.5
      vertex 3 63 37.598076
    endloop
  endfacet
  facet normal 0.25881925 0 0.96592575
    outer loop
      vertex 95 60 38
      vertex 96.5 61.5 37.598076
      vertex 95 61.5 38
    endloop
  endfacet
  facet normal 0.25881925 0 0.96592575
    outer loop
      vertex 96.5 61.5 37.598076
      vertex 95 60 38
      vertex 96.5 3 37.598076
    endloop
  endfacet
  facet normal 0.25881925 0 0.96592575
    outer loop
      vertex 95 4.5 38
      vertex 96.5 3 37.598076
      vertex 95 60 38
    endloop
  endfacet
  facet normal 0.25881925 0 0.96592575
    outer loop
      vertex 96.5 3 37.598076
      vertex 95 4.5 38
      vertex 95 3 38
    endloop
  endfacet
  facet normal -0.86285627 -0.35740668 0.35740668
    outer loop
      vertex 0.40192413 3 36.5
      vertex 0.40192413 1.5 35
      vertex 1.1628828 1.1628828 36.5
    endloop
  endfacet
  facet normal -0.6934018 -0.6934018 0.19592829
    outer loop
      vertex 1.1628828 1.1628828 36.5
      vertex 0.40192413 1.5 35
      vertex 1.5 0.40192413 35
    endloop
  endfacet
  facet normal -0.25881925 0 0.96592575
    outer loop
      vertex 1.5 61.5 37.598076
      vertex 3 60 38
      vertex 3 61.5 38
    endloop
  endfacet
  facet normal -0.25881925 0 0.96592575
    outer loop
      vertex 3 60 38
      vertex 1.5 61.5 37.598076
      vertex 3 4.5 38
    endloop
  endfacet
  facet normal -0.25881925 0 0.96592575
    outer loop
      vertex 1.5 3 37.598076
      vertex 3 4.5 38
      vertex 1.5 61.5 37.598076
    endloop
  endfacet
  facet normal -0.25881925 0 0.96592575
    outer loop
      vertex 3 4.5 38
      vertex 1.5 3 37.598076
      vertex 3 3 38
    endloop
  endfacet
  facet normal -0.38268363 0 0.92387944
    outer loop
      vertex 93.5 60 2
      vertex 94.56066 4.5 2.4393406
      vertex 94.56066 60 2.4393406
    endloop
  endfacet
  facet normal -0.38268363 0 0.92387944
    outer loop
      vertex 94.56066 4.5 2.4393406
      vertex 93.5 60 2
      vertex 93.5 4.5 2
    endloop
  endfacet
  facet normal 0.5773506 -0.5773496 0.5773506
    outer loop
      vertex 4.5 61.06066 2.4393406
      vertex 3.4393406 61.06066 3.5
      vertex 3.4393406 60 2.4393406
    endloop
  endfacet
  facet normal 0 -0.38268363 0.92387944
    outer loop
      vertex 4.5 61.06066 2.4393406
      vertex 93.5 60 2
      vertex 93.5 61.06066 2.4393406
    endloop
  endfacet
  facet normal 0 -0.38268363 0.92387944
    outer loop
      vertex 93.5 60 2
      vertex 4.5 61.06066 2.4393406
      vertex 4.5 60 2
    endloop
  endfacet
  facet normal -0.92388004 -0.38268223 0
    outer loop
      vertex 95 60 3.5
      vertex 94.56066 61.06066 38
      vertex 94.56066 61.06066 3.5
    endloop
  endfacet
  facet normal -0.92388004 -0.38268223 0
    outer loop
      vertex 94.56066 61.06066 38
      vertex 95 60 3.5
      vertex 95 60 38
    endloop
  endfacet
  facet normal 0.9238792 0.38268423 0
    outer loop
      vertex 3.4393406 3.4393406 38
      vertex 3 4.5 3.5
      vertex 3 4.5 38
    endloop
  endfacet
  facet normal 0.9238792 0.38268423 0
    outer loop
      vertex 3 4.5 3.5
      vertex 3.4393406 3.4393406 38
      vertex 3.4393406 3.4393406 3.5
    endloop
  endfacet
  facet normal 0.38268423 0.9238792 0
    outer loop
      vertex 4.5 3 3.5
      vertex 3.4393406 3.4393406 38
      vertex 4.5 3 38
    endloop
  endfacet
  facet normal 0.38268423 0.9238792 0
    outer loop
      vertex 3.4393406 3.4393406 38
      vertex 4.5 3 3.5
      vertex 3.4393406 3.4393406 3.5
    endloop
  endfacet
  facet normal -0.38268363 0.92387944 0
    outer loop
      vertex 94.56066 3.4393406 3.5
      vertex 93.5 3 38
      vertex 94.56066 3.4393406 38
    endloop
  endfacet
  facet normal -0.38268363 0.92387944 0
    outer loop
      vertex 93.5 3 38
      vertex 94.56066 3.4393406 3.5
      vertex 93.5 3 3.5
    endloop
  endfacet
  facet normal 0.35740748 -0.35740682 0.86285585
    outer loop
      vertex 4.5 60 2
      vertex 4.5 61.06066 2.4393406
      vertex 3.4393406 60 2.4393406
    endloop
  endfacet
  facet normal 0 0.38268423 0.9238792
    outer loop
      vertex 4.5 4.5 2
      vertex 93.5 3.4393406 2.4393406
      vertex 93.5 4.5 2
    endloop
  endfacet
  facet normal 0 0.38268423 0.9238792
    outer loop
      vertex 93.5 3.4393406 2.4393406
      vertex 4.5 4.5 2
      vertex 4.5 3.4393406 2.4393406
    endloop
  endfacet
  facet normal -1 0 0
    outer loop
      vertex 95 4.5 3.5
      vertex 95 60 38
      vertex 95 60 3.5
    endloop
  endfacet
  facet normal -1 0 0
    outer loop
      vertex 95 60 38
      vertex 95 4.5 3.5
      vertex 95 4.5 38
    endloop
  endfacet
  facet normal 0 0 1
    outer loop
      vertex 4.5 60 2
      vertex 93.5 4.5 2
      vertex 93.5 60 2
    endloop
  endfacet
  facet normal 0 0 1
    outer loop
      vertex 93.5 4.5 2
      vertex 4.5 60 2
      vertex 4.5 4.5 2
    endloop
  endfacet
  facet normal -0.9238798 0 0.38268283
    outer loop
      vertex 94.56066 4.5 2.4393406
      vertex 95 60 3.5
      vertex 94.56066 60 2.4393406
    endloop
  endfacet
  facet normal -0.9238798 0 0.38268283
    outer loop
      vertex 95 60 3.5
      vertex 94.56066 4.5 2.4393406
      vertex 95 4.5 3.5
    endloop
  endfacet
  facet normal 0.9238792 0 0.38268423
    outer loop
      vertex 3 4.5 3.5
      vertex 3.4393406 60 2.4393406
      vertex 3 60 3.5
    endloop
  endfacet
  facet normal 0.9238792 0 0.38268423
    outer loop
      vertex 3.4393406 60 2.4393406
      vertex 3 4.5 3.5
      vertex 3.4393406 4.5 2.4393406
    endloop
  endfacet
  facet normal 0.86285585 -0.35740682 0.35740748
    outer loop
      vertex 3.4393406 60 2.4393406
      vertex 3.4393406 61.06066 3.5
      vertex 3 60 3.5
    endloop
  endfacet
  facet normal 0.3574074 0.3574074 0.8628557
    outer loop
      vertex 4.5 3.4393406 2.4393406
      vertex 4.5 4.5 2
      vertex 3.4393406 4.5 2.4393406
    endloop
  endfacet
  facet normal -0.8628568 -0.3574057 0.35740632
    outer loop
      vertex 95 60 3.5
      vertex 94.56066 61.06066 3.5
      vertex 94.56066 60 2.4393406
    endloop
  endfacet
  facet normal -0.5773499 -0.5773499 0.577351
    outer loop
      vertex 94.56066 60 2.4393406
      vertex 94.56066 61.06066 3.5
      vertex 93.5 61.06066 2.4393406
    endloop
  endfacet
  facet normal -0.8628566 0.35740623 0.35740623
    outer loop
      vertex 95 4.5 3.5
      vertex 94.56066 4.5 2.4393406
      vertex 94.56066 3.4393406 3.5
    endloop
  endfacet
  facet normal 1 0 0
    outer loop
      vertex 3 4.5 38
      vertex 3 60 3.5
      vertex 3 60 38
    endloop
  endfacet
  facet normal 1 0 0
    outer loop
      vertex 3 60 3.5
      vertex 3 4.5 38
      vertex 3 4.5 3.5
    endloop
  endfacet
  facet normal 0.92387944 -0.38268363 0
    outer loop
      vertex 3 60 38
      vertex 3.4393406 61.06066 3.5
      vertex 3.4393406 61.06066 38
    endloop
  endfacet
  facet normal 0.92387944 -0.38268363 0
    outer loop
      vertex 3.4393406 61.06066 3.5
      vertex 3 60 38
      vertex 3 60 3.5
    endloop
  endfacet
  facet normal -0.3574069 -0.3574069 0.8628561
    outer loop
      vertex 94.56066 60 2.4393406
      vertex 93.5 61.06066 2.4393406
      vertex 93.5 60 2
    endloop
  endfacet
  facet normal -0.5773496 0.5773506 0.5773506
    outer loop
      vertex 94.56066 3.4393406 3.5
      vertex 94.56066 4.5 2.4393406
      vertex 93.5 3.4393406 2.4393406
    endloop
  endfacet
  facet normal 0 1 0
    outer loop
      vertex 93.5 3 3.5
      vertex 4.5 3 38
      vertex 93.5 3 38
    endloop
  endfacet
  facet normal 0 1 0
    outer loop
      vertex 4.5 3 38
      vertex 93.5 3 3.5
      vertex 4.5 3 3.5
    endloop
  endfacet
  facet normal -0.38268223 -0.92388004 0
    outer loop
      vertex 93.5 61.5 3.5
      vertex 94.56066 61.06066 38
      vertex 93.5 61.5 38
    endloop
  endfacet
  facet normal -0.38268223 -0.92388004 0
    outer loop
      vertex 94.56066 61.06066 38
      vertex 93.5 61.5 3.5
      vertex 94.56066 61.06066 3.5
    endloop
  endfacet
  facet normal 0.35740623 -0.8628566 0.35740623
    outer loop
      vertex 4.5 61.06066 2.4393406
      vertex 4.5 61.5 3.5
      vertex 3.4393406 61.06066 3.5
    endloop
  endfacet
  facet normal -0.35740682 0.86285585 0.35740748
    outer loop
      vertex 94.56066 3.4393406 3.5
      vertex 93.5 3.4393406 2.4393406
      vertex 93.5 3 3.5
    endloop
  endfacet
  facet normal 0.3574074 0.8628557 0.3574074
    outer loop
      vertex 4.5 3 3.5
      vertex 4.5 3.4393406 2.4393406
      vertex 3.4393406 3.4393406 3.5
    endloop
  endfacet
  facet normal 0 -0.9238798 0.38268283
    outer loop
      vertex 4.5 61.06066 2.4393406
      vertex 93.5 61.5 3.5
      vertex 4.5 61.5 3.5
    endloop
  endfacet
  facet normal 0 -0.9238798 0.38268283
    outer loop
      vertex 93.5 61.5 3.5
      vertex 4.5 61.06066 2.4393406
      vertex 93.5 61.06066 2.4393406
    endloop
  endfacet
  facet normal -0.35740682 0.35740748 0.86285585
    outer loop
      vertex 94.56066 4.5 2.4393406
      vertex 93.5 4.5 2
      vertex 93.5 3.4393406 2.4393406
    endloop
  endfacet
  facet normal -0.9238798 0.38268283 0
    outer loop
      vertex 94.56066 3.4393406 3.5
      vertex 95 4.5 38
      vertex 95 4.5 3.5
    endloop
  endfacet
  facet normal -0.9238798 0.38268283 0
    outer loop
      vertex 95 4.5 38
      vertex 94.56066 3.4393406 3.5
      vertex 94.56066 3.4393406 38
    endloop
  endfacet
  facet normal 0.8628557 0.3574074 0.3574074
    outer loop
      vertex 3.4393406 3.4393406 3.5
      vertex 3.4393406 4.5 2.4393406
      vertex 3 4.5 3.5
    endloop
  endfacet
  facet normal -0.3574057 -0.8628568 0.35740632
    outer loop
      vertex 94.56066 61.06066 3.5
      vertex 93.5 61.5 3.5
      vertex 93.5 61.06066 2.4393406
    endloop
  endfacet
  facet normal 0.38268283 -0.9238798 0
    outer loop
      vertex 3.4393406 61.06066 3.5
      vertex 4.5 61.5 38
      vertex 3.4393406 61.06066 38
    endloop
  endfacet
  facet normal 0.38268283 -0.9238798 0
    outer loop
      vertex 4.5 61.5 38
      vertex 3.4393406 61.06066 3.5
      vertex 4.5 61.5 3.5
    endloop
  endfacet
  facet normal 0.38268423 0 0.9238792
    outer loop
      vertex 3.4393406 60 2.4393406
      vertex 4.5 4.5 2
      vertex 4.5 60 2
    endloop
  endfacet
  facet normal 0.38268423 0 0.9238792
    outer loop
      vertex 4.5 4.5 2
      vertex 3.4393406 60 2.4393406
      vertex 3.4393406 4.5 2.4393406
    endloop
  endfacet
  facet normal 0.57735026 0.57735026 0.57735026
    outer loop
      vertex 4.5 3.4393406 2.4393406
      vertex 3.4393406 4.5 2.4393406
      vertex 3.4393406 3.4393406 3.5
    endloop
  endfacet
  facet normal 0 -1 0
    outer loop
      vertex 4.5 61.5 3.5
      vertex 93.5 61.5 38
      vertex 4.5 61.5 38
    endloop
  endfacet
  facet normal 0 -1 0
    outer loop
      vertex 93.5 61.5 38
      vertex 4.5 61.5 3.5
      vertex 93.5 61.5 3.5
    endloop
  endfacet
  facet normal 0 0.9238792 0.38268423
    outer loop
      vertex 93.5 3.4393406 2.4393406
      vertex 4.5 3 3.5
      vertex 93.5 3 3.5
    endloop
  endfacet
  facet normal 0 0.9238792 0.38268423
    outer loop
      vertex 4.5 3 3.5
      vertex 93.5 3.4393406 2.4393406
      vertex 4.5 3.4393406 2.4393406
    endloop
  endfacet
endsolid OpenSCAD_Model
