<?xml version="1.0" encoding="UTF-8"?>
<svg id="Layer_1" data-name="Layer 1" xmlns="http://www.w3.org/2000/svg" viewBox="0 0 612 792">
  <defs>
    <style>
      .cls-1 {
        fill: #3b51a3;
      }
    </style>
  </defs>
  <path class="cls-1" d="M245.74,247.34c-12.79,8.76-27.53,49.69-39.15,63.59-29.77,6.47-89.48,72.13-89.48,72.13,0,0-22.11.87-25.33,14.39-2.75,11.54,51.44,95.71,60.62,100.13,5.55,2.68,330.45,4.97,343.33-1.54,20.84-13.94,37.82-40.15,45.58-62.3-2.9-35.46-23.03-108.1-42.62-138.6-2.95-4.59-12.84-11.42-21.79-.64-13.74,16.54-23.8,81.63-23.8,81.63,0,0-24.74-106.32-43.36-138.24-6.44-11.04-12.45-11.18-20.05,5.47-11.53,25.26-20.33,83.91-22.73,108.72-8.2-8.19-21.99-15.14-34.17-10.08-3.32-17.66-4.95-50.93-9.84-68.7s-36.28-92.01-77.21-25.97Z"/>
</svg>