solid OpenSCAD_Model
  facet normal 0.83146924 0.5555708 0
    outer loop
      vertex 51.89776 244.0987 17
      vertex 51.46421 244.74754 0
      vertex 51.46421 244.74754 17
    endloop
  endfacet
  facet normal 0.83146924 0.5555708 0
    outer loop
      vertex 51.46421 244.74754 0
      vertex 51.89776 244.0987 17
      vertex 51.89776 244.0987 0
    endloop
  endfacet
  facet normal 0 -1 0
    outer loop
      vertex 2 0 0
      vertex 50.05 0 17
      vertex 2 0 17
    endloop
  endfacet
  facet normal 0 -1 0
    outer loop
      vertex 50.05 0 17
      vertex 2 0 0
      vertex 50.05 0 0
    endloop
  endfacet
  facet normal 1 0 0
    outer loop
      vertex 52.05 2 17
      vertex 52.05 243.33333 0
      vertex 52.05 243.33333 17
    endloop
  endfacet
  facet normal 1 0 0
    outer loop
      vertex 52.05 243.33333 0
      vertex 52.05 2 17
      vertex 52.05 2 0
    endloop
  endfacet
  facet normal -0.83147097 0.5555682 0
    outer loop
      vertex 0.1522417 244.0987 0
      vertex 0.5857868 244.74754 17
      vertex 0.5857868 244.74754 0
    endloop
  endfacet
  facet normal -0.83147097 0.5555682 0
    outer loop
      vertex 0.5857868 244.74754 17
      vertex 0.1522417 244.0987 0
      vertex 0.1522417 244.0987 17
    endloop
  endfacet
  facet normal 0.5555705 -0.8314694 0
    outer loop
      vertex 50.815365 0.1522417 0
      vertex 51.46421 0.5857868 17
      vertex 50.815365 0.1522417 17
    endloop
  endfacet
  facet normal 0.5555705 -0.8314694 0
    outer loop
      vertex 51.46421 0.5857868 17
      vertex 50.815365 0.1522417 0
      vertex 51.46421 0.5857868 0
    endloop
  endfacet
  facet normal -1 0 0
    outer loop
      vertex 0 2 0
      vertex 0 243.33333 17
      vertex 0 243.33333 0
    endloop
  endfacet
  facet normal -1 0 0
    outer loop
      vertex 0 243.33333 17
      vertex 0 2 0
      vertex 0 2 17
    endloop
  endfacet
  facet normal 0 0 -1
    outer loop
      vertex 50.05 0 0
      vertex 52.05 2 0
      vertex 51.89776 1.2346334 0
    endloop
  endfacet
  facet normal 0 0 -1
    outer loop
      vertex 52.05 2 0
      vertex 0 2 0
      vertex 52.05 243.33333 0
    endloop
  endfacet
  facet normal 0 0 -1
    outer loop
      vertex 50.05 0 0
      vertex 51.89776 1.2346334 0
      vertex 51.46421 0.5857868 0
    endloop
  endfacet
  facet normal 0 0 -1
    outer loop
      vertex 0 243.33333 0
      vertex 52.05 243.33333 0
      vertex 0 2 0
    endloop
  endfacet
  facet normal 0 0 -1
    outer loop
      vertex 50.05 0 0
      vertex 51.46421 0.5857868 0
      vertex 50.815365 0.1522417 0
    endloop
  endfacet
  facet normal 0 0 -1
    outer loop
      vertex 50.05 245.33333 0
      vertex 52.05 243.33333 0
      vertex 0 243.33333 0
    endloop
  endfacet
  facet normal 0 0 -1
    outer loop
      vertex 52.05 2 0
      vertex 50.05 0 0
      vertex 0 2 0
    endloop
  endfacet
  facet normal 0 0 -1
    outer loop
      vertex 52.05 243.33333 0
      vertex 50.05 245.33333 0
      vertex 51.89776 244.0987 0
    endloop
  endfacet
  facet normal 0 0 -1
    outer loop
      vertex 0 2 0
      vertex 50.05 0 0
      vertex 2 0 0
    endloop
  endfacet
  facet normal 0 0 -1
    outer loop
      vertex 51.89776 244.0987 0
      vertex 50.05 245.33333 0
      vertex 51.46421 244.74754 0
    endloop
  endfacet
  facet normal 0 0 -1
    outer loop
      vertex 0 2 0
      vertex 2 0 0
      vertex 1.2346334 0.1522417 0
    endloop
  endfacet
  facet normal 0 0 -1
    outer loop
      vertex 51.46421 244.74754 0
      vertex 50.05 245.33333 0
      vertex 50.815365 245.18109 0
    endloop
  endfacet
  facet normal 0 0 -1
    outer loop
      vertex 0 2 0
      vertex 1.2346334 0.1522417 0
      vertex 0.5857868 0.5857868 0
    endloop
  endfacet
  facet normal 0 0 -1
    outer loop
      vertex 50.05 245.33333 0
      vertex 0 243.33333 0
      vertex 2 245.33333 0
    endloop
  endfacet
  facet normal 0 0 -1
    outer loop
      vertex 0 2 0
      vertex 0.5857868 0.5857868 0
      vertex 0.1522417 1.2346334 0
    endloop
  endfacet
  facet normal 0 0 -1
    outer loop
      vertex 2 245.33333 0
      vertex 0 243.33333 0
      vertex 1.2346334 245.18109 0
    endloop
  endfacet
  facet normal 0 0 -1
    outer loop
      vertex 1.2346334 245.18109 0
      vertex 0 243.33333 0
      vertex 0.5857868 244.74754 0
    endloop
  endfacet
  facet normal 0 0 -1
    outer loop
      vertex 0.5857868 244.74754 0
      vertex 0 243.33333 0
      vertex 0.1522417 244.0987 0
    endloop
  endfacet
  facet normal 0.9807853 -0.19509017 0
    outer loop
      vertex 51.89776 1.2346334 17
      vertex 52.05 2 0
      vertex 52.05 2 17
    endloop
  endfacet
  facet normal 0.9807853 -0.19509017 0
    outer loop
      vertex 52.05 2 0
      vertex 51.89776 1.2346334 17
      vertex 51.89776 1.2346334 0
    endloop
  endfacet
  facet normal -0.83146983 -0.55556995 0
    outer loop
      vertex 0.5857868 0.5857868 0
      vertex 0.1522417 1.2346334 17
      vertex 0.1522417 1.2346334 0
    endloop
  endfacet
  facet normal -0.83146983 -0.55556995 0
    outer loop
      vertex 0.1522417 1.2346334 17
      vertex 0.5857868 0.5857868 0
      vertex 0.5857868 0.5857868 17
    endloop
  endfacet
  facet normal -0.19508547 0.98078626 0
    outer loop
      vertex 2 245.33333 0
      vertex 1.2346334 245.18109 17
      vertex 2 245.33333 17
    endloop
  endfacet
  facet normal -0.19508547 0.98078626 0
    outer loop
      vertex 1.2346334 245.18109 17
      vertex 2 245.33333 0
      vertex 1.2346334 245.18109 0
    endloop
  endfacet
  facet normal 0.98078525 0.19509041 0
    outer loop
      vertex 52.05 243.33333 17
      vertex 51.89776 244.0987 0
      vertex 51.89776 244.0987 17
    endloop
  endfacet
  facet normal 0.98078525 0.19509041 0
    outer loop
      vertex 51.89776 244.0987 0
      vertex 52.05 243.33333 17
      vertex 52.05 243.33333 0
    endloop
  endfacet
  facet normal -0.55557245 0.8314681 0
    outer loop
      vertex 1.2346334 245.18109 0
      vertex 0.5857868 244.74754 17
      vertex 1.2346334 245.18109 17
    endloop
  endfacet
  facet normal -0.55557245 0.8314681 0
    outer loop
      vertex 0.5857868 244.74754 17
      vertex 1.2346334 245.18109 0
      vertex 0.5857868 244.74754 0
    endloop
  endfacet
  facet normal 0.19509159 -0.980785 0
    outer loop
      vertex 50.05 0 0
      vertex 50.815365 0.1522417 17
      vertex 50.05 0 17
    endloop
  endfacet
  facet normal 0.19509159 -0.980785 0
    outer loop
      vertex 50.815365 0.1522417 17
      vertex 50.05 0 0
      vertex 50.815365 0.1522417 0
    endloop
  endfacet
  facet normal 0.55557305 0.83146775 0
    outer loop
      vertex 51.46421 244.74754 0
      vertex 50.815365 245.18109 17
      vertex 51.46421 244.74754 17
    endloop
  endfacet
  facet normal 0.55557305 0.83146775 0
    outer loop
      vertex 50.815365 245.18109 17
      vertex 51.46421 244.74754 0
      vertex 50.815365 245.18109 0
    endloop
  endfacet
  facet normal 0.8314681 -0.55557245 0
    outer loop
      vertex 51.46421 0.5857868 17
      vertex 51.89776 1.2346334 0
      vertex 51.89776 1.2346334 17
    endloop
  endfacet
  facet normal 0.8314681 -0.55557245 0
    outer loop
      vertex 51.89776 1.2346334 0
      vertex 51.46421 0.5857868 17
      vertex 51.46421 0.5857868 0
    endloop
  endfacet
  facet normal 0.1950857 0.9807862 0
    outer loop
      vertex 50.815365 245.18109 0
      vertex 50.05 245.33333 17
      vertex 50.815365 245.18109 17
    endloop
  endfacet
  facet normal 0.1950857 0.9807862 0
    outer loop
      vertex 50.05 245.33333 17
      vertex 50.815365 245.18109 0
      vertex 50.05 245.33333 0
    endloop
  endfacet
  facet normal -0.19509135 -0.9807851 0
    outer loop
      vertex 1.2346334 0.1522417 0
      vertex 2 0 17
      vertex 1.2346334 0.1522417 17
    endloop
  endfacet
  facet normal -0.19509135 -0.9807851 0
    outer loop
      vertex 2 0 17
      vertex 1.2346334 0.1522417 0
      vertex 2 0 0
    endloop
  endfacet
  facet normal 0 1 0
    outer loop
      vertex 50.05 245.33333 0
      vertex 2 245.33333 17
      vertex 50.05 245.33333 17
    endloop
  endfacet
  facet normal 0 1 0
    outer loop
      vertex 2 245.33333 17
      vertex 50.05 245.33333 0
      vertex 2 245.33333 0
    endloop
  endfacet
  facet normal -0.980785 0.19509159 0
    outer loop
      vertex 0 243.33333 0
      vertex 0.1522417 244.0987 17
      vertex 0.1522417 244.0987 0
    endloop
  endfacet
  facet normal -0.980785 0.19509159 0
    outer loop
      vertex 0.1522417 244.0987 17
      vertex 0 243.33333 0
      vertex 0 243.33333 17
    endloop
  endfacet
  facet normal -0.9807851 -0.19509135 0
    outer loop
      vertex 0.1522417 1.2346334 0
      vertex 0 2 17
      vertex 0 2 0
    endloop
  endfacet
  facet normal -0.9807851 -0.19509135 0
    outer loop
      vertex 0 2 17
      vertex 0.1522417 1.2346334 0
      vertex 0.1522417 1.2346334 17
    endloop
  endfacet
  facet normal -0.55556995 -0.83146983 0
    outer loop
      vertex 0.5857868 0.5857868 0
      vertex 1.2346334 0.1522417 17
      vertex 0.5857868 0.5857868 17
    endloop
  endfacet
  facet normal -0.55556995 -0.83146983 0
    outer loop
      vertex 1.2346334 0.1522417 17
      vertex 0.5857868 0.5857868 0
      vertex 1.2346334 0.1522417 0
    endloop
  endfacet
  facet normal 0 0 1
    outer loop
      vertex 2 245.33333 17
      vertex 50.05 243.33333 17
      vertex 50.05 245.33333 17
    endloop
  endfacet
  facet normal 0 0 1
    outer loop
      vertex 2 245.33333 17
      vertex 2 243.33333 17
      vertex 50.05 243.33333 17
    endloop
  endfacet
  facet normal 0 0 1
    outer loop
      vertex 1.2346334 245.18109 17
      vertex 2 243.33333 17
      vertex 2 245.33333 17
    endloop
  endfacet
  facet normal 0 0 1
    outer loop
      vertex 2 243.33333 17
      vertex 0 243.33333 17
      vertex 2 2 17
    endloop
  endfacet
  facet normal 0 0 1
    outer loop
      vertex 0.5857868 244.74754 17
      vertex 2 243.33333 17
      vertex 1.2346334 245.18109 17
    endloop
  endfacet
  facet normal 0 0 1
    outer loop
      vertex 0 2 17
      vertex 2 2 17
      vertex 0 243.33333 17
    endloop
  endfacet
  facet normal 0 0 1
    outer loop
      vertex 0.1522417 244.0987 17
      vertex 2 243.33333 17
      vertex 0.5857868 244.74754 17
    endloop
  endfacet
  facet normal 0 0 1
    outer loop
      vertex 0.1522417 1.2346334 17
      vertex 2 2 17
      vertex 0 2 17
    endloop
  endfacet
  facet normal 0 0 1
    outer loop
      vertex 2 243.33333 17
      vertex 0.1522417 244.0987 17
      vertex 0 243.33333 17
    endloop
  endfacet
  facet normal 0 0 1
    outer loop
      vertex 2 2 17
      vertex 1.2346334 0.1522417 17
      vertex 2 0 17
    endloop
  endfacet
  facet normal 0 0 1
    outer loop
      vertex 2 2 17
      vertex 0.5857868 0.5857868 17
      vertex 1.2346334 0.1522417 17
    endloop
  endfacet
  facet normal 0 0 1
    outer loop
      vertex 2 2 17
      vertex 0.1522417 1.2346334 17
      vertex 0.5857868 0.5857868 17
    endloop
  endfacet
  facet normal 0 0 1
    outer loop
      vertex 50.05 243.33333 17
      vertex 52.05 243.33333 17
      vertex 51.89776 244.0987 17
    endloop
  endfacet
  facet normal 0 0 1
    outer loop
      vertex 52.05 243.33333 17
      vertex 50.05 243.33333 17
      vertex 52.05 2 17
    endloop
  endfacet
  facet normal 0 0 1
    outer loop
      vertex 50.05 243.33333 17
      vertex 51.89776 244.0987 17
      vertex 51.46421 244.74754 17
    endloop
  endfacet
  facet normal 0 0 1
    outer loop
      vertex 50.05 2 17
      vertex 52.05 2 17
      vertex 50.05 243.33333 17
    endloop
  endfacet
  facet normal 0 0 1
    outer loop
      vertex 50.05 243.33333 17
      vertex 51.46421 244.74754 17
      vertex 50.815365 245.18109 17
    endloop
  endfacet
  facet normal 0 0 1
    outer loop
      vertex 52.05 2 17
      vertex 50.05 2 17
      vertex 51.89776 1.2346334 17
    endloop
  endfacet
  facet normal 0 0 1
    outer loop
      vertex 50.05 243.33333 17
      vertex 50.815365 245.18109 17
      vertex 50.05 245.33333 17
    endloop
  endfacet
  facet normal 0 0 1
    outer loop
      vertex 51.89776 1.2346334 17
      vertex 50.05 2 17
      vertex 51.46421 0.5857868 17
    endloop
  endfacet
  facet normal 0 0 1
    outer loop
      vertex 51.46421 0.5857868 17
      vertex 50.05 2 17
      vertex 50.815365 0.1522417 17
    endloop
  endfacet
  facet normal 0 0 1
    outer loop
      vertex 50.05 2 17
      vertex 50.05 0 17
      vertex 50.815365 0.1522417 17
    endloop
  endfacet
  facet normal 0 0 1
    outer loop
      vertex 2 2 17
      vertex 50.05 0 17
      vertex 50.05 2 17
    endloop
  endfacet
  facet normal 0 0 1
    outer loop
      vertex 50.05 0 17
      vertex 2 2 17
      vertex 2 0 17
    endloop
  endfacet
  facet normal -1 0 0
    outer loop
      vertex 50.05 2 2
      vertex 50.05 243.33333 17
      vertex 50.05 243.33333 2
    endloop
  endfacet
  facet normal -1 0 0
    outer loop
      vertex 50.05 243.33333 17
      vertex 50.05 2 2
      vertex 50.05 2 17
    endloop
  endfacet
  facet normal 0 0 1
    outer loop
      vertex 2 243.33333 2
      vertex 50.05 2 2
      vertex 50.05 243.33333 2
    endloop
  endfacet
  facet normal 0 0 1
    outer loop
      vertex 50.05 2 2
      vertex 2 243.33333 2
      vertex 2 2 2
    endloop
  endfacet
  facet normal 1 0 0
    outer loop
      vertex 2 2 17
      vertex 2 243.33333 2
      vertex 2 243.33333 17
    endloop
  endfacet
  facet normal 1 0 0
    outer loop
      vertex 2 243.33333 2
      vertex 2 2 17
      vertex 2 2 2
    endloop
  endfacet
  facet normal 0 -1 0
    outer loop
      vertex 2 243.33333 2
      vertex 50.05 243.33333 17
      vertex 2 243.33333 17
    endloop
  endfacet
  facet normal 0 -1 0
    outer loop
      vertex 50.05 243.33333 17
      vertex 2 243.33333 2
      vertex 50.05 243.33333 2
    endloop
  endfacet
  facet normal 0 1 0
    outer loop
      vertex 50.05 2 2
      vertex 2 2 17
      vertex 50.05 2 17
    endloop
  endfacet
  facet normal 0 1 0
    outer loop
      vertex 2 2 17
      vertex 50.05 2 2
      vertex 2 2 2
    endloop
  endfacet
endsolid OpenSCAD_Model
