solid OpenSCAD_Model
  facet normal 0 0 1
    outer loop
      vertex 0 46.34156 7.25
      vertex 1.6999998 12.925104 7.25
      vertex 1.6999998 46.34156 7.25
    endloop
  endfacet
  facet normal 0 0 1
    outer loop
      vertex 1.6999998 12.925104 7.25
      vertex 0 46.34156 7.25
      vertex 0 12.925104 7.25
    endloop
  endfacet
  facet normal 0 0 1
    outer loop
      vertex 12.925104 1.6999998 7.25
      vertex 40.424896 0 7.25
      vertex 40.424896 1.6999998 7.25
    endloop
  endfacet
  facet normal 0 0 1
    outer loop
      vertex 40.424896 0 7.25
      vertex 12.925104 1.6999998 7.25
      vertex 12.925104 0 7.25
    endloop
  endfacet
  facet normal 0 0 1
    outer loop
      vertex 40.424896 59.166664 7.25
      vertex 40.3052 57.666668 7.25
      vertex 40.424896 57.666668 7.25
    endloop
  endfacet
  facet normal 0 0 1
    outer loop
      vertex 40.424896 59.166664 7.25
      vertex 39.7578 57.666668 7.25
      vertex 40.3052 57.666668 7.25
    endloop
  endfacet
  facet normal 0 0 1
    outer loop
      vertex 40.424896 59.166664 7.25
      vertex 13.592196 57.666668 7.25
      vertex 39.7578 57.666668 7.25
    endloop
  endfacet
  facet normal 0 0 1
    outer loop
      vertex 12.925104 59.166664 7.25
      vertex 13.592196 57.666668 7.25
      vertex 40.424896 59.166664 7.25
    endloop
  endfacet
  facet normal 0 0 1
    outer loop
      vertex 13.592196 57.666668 7.25
      vertex 12.925104 59.166664 7.25
      vertex 13.044802 57.666668 7.25
    endloop
  endfacet
  facet normal 0 0 1
    outer loop
      vertex 13.044802 57.666668 7.25
      vertex 12.925104 59.166664 7.25
      vertex 12.925104 57.666668 7.25
    endloop
  endfacet
  facet normal 0 0 1
    outer loop
      vertex 51.75 46.34156 7.25
      vertex 53.25 12.925104 7.25
      vertex 53.25 46.34156 7.25
    endloop
  endfacet
  facet normal 0 0 1
    outer loop
      vertex 53.25 12.925104 7.25
      vertex 51.75 46.34156 7.25
      vertex 51.75 12.925104 7.25
    endloop
  endfacet
  facet normal -0.92387897 0.38268483 0
    outer loop
      vertex 1.6999998 55.966667 2.25
      vertex 2.1393404 57.027325 12.299998
      vertex 2.1393404 57.027325 2.25
    endloop
  endfacet
  facet normal -0.92387897 0.38268483 0
    outer loop
      vertex 2.1393404 57.027325 12.299998
      vertex 1.6999998 55.966667 2.25
      vertex 1.6999998 55.966667 12.299998
    endloop
  endfacet
  facet normal 1 0 0
    outer loop
      vertex 51.55 3.1999998 12.299998
      vertex 51.55 55.966667 2.25
      vertex 51.55 55.966667 12.299998
    endloop
  endfacet
  facet normal 1 0 0
    outer loop
      vertex 51.55 55.966667 2.25
      vertex 51.55 3.1999998 12.299998
      vertex 51.55 3.1999998 2.25
    endloop
  endfacet
  facet normal -0.38268566 0.9238786 0
    outer loop
      vertex 3.1999998 57.466667 2.25
      vertex 2.1393404 57.027325 12.299998
      vertex 3.1999998 57.466667 12.299998
    endloop
  endfacet
  facet normal -0.38268566 0.9238786 0
    outer loop
      vertex 2.1393404 57.027325 12.299998
      vertex 3.1999998 57.466667 2.25
      vertex 2.1393404 57.027325 2.25
    endloop
  endfacet
  facet normal 0.38268623 0.9238784 0
    outer loop
      vertex 51.110657 57.027325 2.25
      vertex 50.05 57.466667 12.299998
      vertex 51.110657 57.027325 12.299998
    endloop
  endfacet
  facet normal 0.38268623 0.9238784 0
    outer loop
      vertex 50.05 57.466667 12.299998
      vertex 51.110657 57.027325 2.25
      vertex 50.05 57.466667 2.25
    endloop
  endfacet
  facet normal -1 0 0
    outer loop
      vertex 1.6999998 10.65 2.25
      vertex 1.6999998 3.1999998 2.25
      vertex 1.6999998 10.65 4.3499994
    endloop
  endfacet
  facet normal -1 0 0
    outer loop
      vertex 1.6999998 48.616665 4.3499994
      vertex 1.6999998 55.966667 2.25
      vertex 1.6999998 48.616665 2.25
    endloop
  endfacet
  facet normal -1 0 0
    outer loop
      vertex 1.6999998 48.55902 4.9352703
      vertex 1.6999998 55.966667 2.25
      vertex 1.6999998 48.616665 4.3499994
    endloop
  endfacet
  facet normal -1 0 0
    outer loop
      vertex 1.6999998 48.388306 5.498049
      vertex 1.6999998 55.966667 2.25
      vertex 1.6999998 48.55902 4.9352703
    endloop
  endfacet
  facet normal -1 0 0
    outer loop
      vertex 1.6999998 55.966667 2.25
      vertex 1.6999998 48.388306 5.498049
      vertex 1.6999998 55.966667 12.299998
    endloop
  endfacet
  facet normal -1 0 0
    outer loop
      vertex 1.6999998 48.111076 6.0167093
      vertex 1.6999998 55.966667 12.299998
      vertex 1.6999998 48.388306 5.498049
    endloop
  endfacet
  facet normal -1 0 0
    outer loop
      vertex 1.6999998 47.737984 6.471319
      vertex 1.6999998 55.966667 12.299998
      vertex 1.6999998 48.111076 6.0167093
    endloop
  endfacet
  facet normal -1 0 0
    outer loop
      vertex 1.6999998 47.283375 6.844408
      vertex 1.6999998 55.966667 12.299998
      vertex 1.6999998 47.737984 6.471319
    endloop
  endfacet
  facet normal -1 0 0
    outer loop
      vertex 1.6999998 46.764717 7.1216373
      vertex 1.6999998 55.966667 12.299998
      vertex 1.6999998 47.283375 6.844408
    endloop
  endfacet
  facet normal -1 0 0
    outer loop
      vertex 1.6999998 46.34156 7.25
      vertex 1.6999998 55.966667 12.299998
      vertex 1.6999998 46.764717 7.1216373
    endloop
  endfacet
  facet normal -1 0 0
    outer loop
      vertex 1.6999998 12.925104 7.25
      vertex 1.6999998 55.966667 12.299998
      vertex 1.6999998 46.34156 7.25
    endloop
  endfacet
  facet normal -1 0 0
    outer loop
      vertex 1.6999998 3.1999998 2.25
      vertex 1.6999998 10.707644 4.9352703
      vertex 1.6999998 10.65 4.3499994
    endloop
  endfacet
  facet normal -1 0 0
    outer loop
      vertex 1.6999998 3.1999998 2.25
      vertex 1.6999998 10.878362 5.498049
      vertex 1.6999998 10.707644 4.9352703
    endloop
  endfacet
  facet normal -1 0 0
    outer loop
      vertex 1.6999998 3.1999998 12.299998
      vertex 1.6999998 10.878362 5.498049
      vertex 1.6999998 3.1999998 2.25
    endloop
  endfacet
  facet normal -1 0 0
    outer loop
      vertex 1.6999998 10.878362 5.498049
      vertex 1.6999998 3.1999998 12.299998
      vertex 1.6999998 11.155591 6.0167093
    endloop
  endfacet
  facet normal -1 0 0
    outer loop
      vertex 1.6999998 11.155591 6.0167093
      vertex 1.6999998 3.1999998 12.299998
      vertex 1.6999998 11.52868 6.471319
    endloop
  endfacet
  facet normal -1 0 0
    outer loop
      vertex 1.6999998 11.52868 6.471319
      vertex 1.6999998 3.1999998 12.299998
      vertex 1.6999998 11.98329 6.844408
    endloop
  endfacet
  facet normal -1 0 0
    outer loop
      vertex 1.6999998 12.925104 7.25
      vertex 1.6999998 3.1999998 12.299998
      vertex 1.6999998 55.966667 12.299998
    endloop
  endfacet
  facet normal -1 0 0
    outer loop
      vertex 1.6999998 12.50195 7.1216373
      vertex 1.6999998 3.1999998 12.299998
      vertex 1.6999998 12.925104 7.25
    endloop
  endfacet
  facet normal -1 0 0
    outer loop
      vertex 1.6999998 11.98329 6.844408
      vertex 1.6999998 3.1999998 12.299998
      vertex 1.6999998 12.50195 7.1216373
    endloop
  endfacet
  facet normal 0.9238784 0.38268623 0
    outer loop
      vertex 51.55 55.966667 12.299998
      vertex 51.110657 57.027325 2.25
      vertex 51.110657 57.027325 12.299998
    endloop
  endfacet
  facet normal 0.9238784 0.38268623 0
    outer loop
      vertex 51.110657 57.027325 2.25
      vertex 51.55 55.966667 12.299998
      vertex 51.55 55.966667 2.25
    endloop
  endfacet
  facet normal 0 -1 0
    outer loop
      vertex 3.1999998 1.6999998 12.299998
      vertex 12.925104 1.6999998 7.25
      vertex 50.05 1.6999998 12.299998
    endloop
  endfacet
  facet normal 0 -1 0
    outer loop
      vertex 3.1999998 1.6999998 12.299998
      vertex 12.50195 1.6999998 7.1216373
      vertex 12.925104 1.6999998 7.25
    endloop
  endfacet
  facet normal 0 -1 0
    outer loop
      vertex 3.1999998 1.6999998 12.299998
      vertex 11.98329 1.6999998 6.844408
      vertex 12.50195 1.6999998 7.1216373
    endloop
  endfacet
  facet normal 0 -1 0
    outer loop
      vertex 3.1999998 1.6999998 12.299998
      vertex 11.52868 1.6999998 6.471319
      vertex 11.98329 1.6999998 6.844408
    endloop
  endfacet
  facet normal 0 -1 0
    outer loop
      vertex 3.1999998 1.6999998 12.299998
      vertex 11.155591 1.6999998 6.0167093
      vertex 11.52868 1.6999998 6.471319
    endloop
  endfacet
  facet normal 0 -1 0
    outer loop
      vertex 3.1999998 1.6999998 12.299998
      vertex 10.878362 1.6999998 5.498049
      vertex 11.155591 1.6999998 6.0167093
    endloop
  endfacet
  facet normal 0 -1 0
    outer loop
      vertex 3.1999998 1.6999998 2.25
      vertex 10.878362 1.6999998 5.498049
      vertex 3.1999998 1.6999998 12.299998
    endloop
  endfacet
  facet normal 0 -1 0
    outer loop
      vertex 10.878362 1.6999998 5.498049
      vertex 3.1999998 1.6999998 2.25
      vertex 10.707644 1.6999998 4.9352703
    endloop
  endfacet
  facet normal 0 -1 0
    outer loop
      vertex 10.707644 1.6999998 4.9352703
      vertex 3.1999998 1.6999998 2.25
      vertex 10.65 1.6999998 4.3499994
    endloop
  endfacet
  facet normal 0 -1 0
    outer loop
      vertex 10.65 1.6999998 4.3499994
      vertex 3.1999998 1.6999998 2.25
      vertex 10.65 1.6999998 2.25
    endloop
  endfacet
  facet normal 0 -1 0
    outer loop
      vertex 40.424896 1.6999998 7.25
      vertex 50.05 1.6999998 12.299998
      vertex 12.925104 1.6999998 7.25
    endloop
  endfacet
  facet normal 0 -1 0
    outer loop
      vertex 40.84805 1.6999998 7.1216373
      vertex 50.05 1.6999998 12.299998
      vertex 40.424896 1.6999998 7.25
    endloop
  endfacet
  facet normal 0 -1 0
    outer loop
      vertex 41.36671 1.6999998 6.844408
      vertex 50.05 1.6999998 12.299998
      vertex 40.84805 1.6999998 7.1216373
    endloop
  endfacet
  facet normal 0 -1 0
    outer loop
      vertex 41.82132 1.6999998 6.471319
      vertex 50.05 1.6999998 12.299998
      vertex 41.36671 1.6999998 6.844408
    endloop
  endfacet
  facet normal 0 -1 0
    outer loop
      vertex 42.19441 1.6999998 6.0167093
      vertex 50.05 1.6999998 12.299998
      vertex 41.82132 1.6999998 6.471319
    endloop
  endfacet
  facet normal 0 -1 0
    outer loop
      vertex 42.471638 1.6999998 5.498049
      vertex 50.05 1.6999998 12.299998
      vertex 42.19441 1.6999998 6.0167093
    endloop
  endfacet
  facet normal 0 -1 0
    outer loop
      vertex 50.05 1.6999998 2.25
      vertex 42.471638 1.6999998 5.498049
      vertex 42.642357 1.6999998 4.9352703
    endloop
  endfacet
  facet normal 0 -1 0
    outer loop
      vertex 50.05 1.6999998 2.25
      vertex 42.642357 1.6999998 4.9352703
      vertex 42.7 1.6999998 4.3499994
    endloop
  endfacet
  facet normal 0 -1 0
    outer loop
      vertex 50.05 1.6999998 2.25
      vertex 42.7 1.6999998 4.3499994
      vertex 42.7 1.6999998 2.25
    endloop
  endfacet
  facet normal 0 -1 0
    outer loop
      vertex 42.471638 1.6999998 5.498049
      vertex 50.05 1.6999998 2.25
      vertex 50.05 1.6999998 12.299998
    endloop
  endfacet
  facet normal 0.38268483 -0.92387897 0
    outer loop
      vertex 50.05 1.6999998 2.25
      vertex 51.110657 2.1393404 12.299998
      vertex 50.05 1.6999998 12.299998
    endloop
  endfacet
  facet normal 0.38268483 -0.92387897 0
    outer loop
      vertex 51.110657 2.1393404 12.299998
      vertex 50.05 1.6999998 2.25
      vertex 51.110657 2.1393404 2.25
    endloop
  endfacet
  facet normal 0.9238786 -0.38268566 0
    outer loop
      vertex 51.110657 2.1393404 12.299998
      vertex 51.55 3.1999998 2.25
      vertex 51.55 3.1999998 12.299998
    endloop
  endfacet
  facet normal 0.9238786 -0.38268566 0
    outer loop
      vertex 51.55 3.1999998 2.25
      vertex 51.110657 2.1393404 12.299998
      vertex 51.110657 2.1393404 2.25
    endloop
  endfacet
  facet normal 0 1 0
    outer loop
      vertex 50.05 57.466667 2.25
      vertex 3.1999998 57.466667 12.299998
      vertex 50.05 57.466667 12.299998
    endloop
  endfacet
  facet normal 0 1 0
    outer loop
      vertex 3.1999998 57.466667 12.299998
      vertex 50.05 57.466667 2.25
      vertex 3.1999998 57.466667 2.25
    endloop
  endfacet
  facet normal -0.38268423 -0.9238792 0
    outer loop
      vertex 2.1393404 2.1393404 2.25
      vertex 3.1999998 1.6999998 12.299998
      vertex 2.1393404 2.1393404 12.299998
    endloop
  endfacet
  facet normal -0.38268423 -0.9238792 0
    outer loop
      vertex 3.1999998 1.6999998 12.299998
      vertex 2.1393404 2.1393404 2.25
      vertex 3.1999998 1.6999998 2.25
    endloop
  endfacet
  facet normal -0.9238792 -0.38268423 0
    outer loop
      vertex 2.1393404 2.1393404 2.25
      vertex 1.6999998 3.1999998 12.299998
      vertex 1.6999998 3.1999998 2.25
    endloop
  endfacet
  facet normal -0.9238792 -0.38268423 0
    outer loop
      vertex 1.6999998 3.1999998 12.299998
      vertex 2.1393404 2.1393404 2.25
      vertex 2.1393404 2.1393404 12.299998
    endloop
  endfacet
  facet normal 0 0 1
    outer loop
      vertex 10.65 59.166664 2.25
      vertex 3.1999998 57.466667 2.25
      vertex 10.65 57.666668 2.25
    endloop
  endfacet
  facet normal 0 0 1
    outer loop
      vertex 3 59.166664 2.25
      vertex 3.1999998 57.466667 2.25
      vertex 10.65 59.166664 2.25
    endloop
  endfacet
  facet normal 0 0 1
    outer loop
      vertex 1.5 58.76474 2.25
      vertex 3.1999998 57.466667 2.25
      vertex 3 59.166664 2.25
    endloop
  endfacet
  facet normal 0 0 1
    outer loop
      vertex 3.1999998 57.466667 2.25
      vertex 1.5 58.76474 2.25
      vertex 2.1393404 57.027325 2.25
    endloop
  endfacet
  facet normal 0 0 1
    outer loop
      vertex 0.40192413 57.666664 2.25
      vertex 2.1393404 57.027325 2.25
      vertex 1.5 58.76474 2.25
    endloop
  endfacet
  facet normal 0 0 1
    outer loop
      vertex 2.1393404 57.027325 2.25
      vertex 0.40192413 57.666664 2.25
      vertex 1.6999998 55.966667 2.25
    endloop
  endfacet
  facet normal 0 0 1
    outer loop
      vertex 1.6999998 55.966667 2.25
      vertex 0.40192413 57.666664 2.25
      vertex 0 56.166664 2.25
    endloop
  endfacet
  facet normal 0 0 1
    outer loop
      vertex 0 48.616665 2.25
      vertex 1.6999998 55.966667 2.25
      vertex 0 56.166664 2.25
    endloop
  endfacet
  facet normal 0 0 1
    outer loop
      vertex 1.6999998 55.966667 2.25
      vertex 0 48.616665 2.25
      vertex 1.6999998 48.616665 2.25
    endloop
  endfacet
  facet normal 0 0 1
    outer loop
      vertex 51.55 55.966667 2.25
      vertex 53.25 56.166664 2.25
      vertex 52.848076 57.666664 2.25
    endloop
  endfacet
  facet normal 0 0 1
    outer loop
      vertex 51.110657 57.027325 2.25
      vertex 52.848076 57.666664 2.25
      vertex 51.75 58.76474 2.25
    endloop
  endfacet
  facet normal 0 0 1
    outer loop
      vertex 53.25 56.166664 2.25
      vertex 51.55 55.966667 2.25
      vertex 53.25 48.616665 2.25
    endloop
  endfacet
  facet normal 0 0 1
    outer loop
      vertex 53.25 48.616665 2.25
      vertex 51.55 55.966667 2.25
      vertex 51.75 48.616665 2.25
    endloop
  endfacet
  facet normal 0 0 1
    outer loop
      vertex 51.75 48.616665 2.25
      vertex 51.55 55.966667 2.25
      vertex 51.75 10.65 2.25
    endloop
  endfacet
  facet normal 0 0 1
    outer loop
      vertex 51.55 3.1999998 2.25
      vertex 51.75 10.65 2.25
      vertex 51.55 55.966667 2.25
    endloop
  endfacet
  facet normal 0 0 1
    outer loop
      vertex 52.848076 57.666664 2.25
      vertex 51.110657 57.027325 2.25
      vertex 51.55 55.966667 2.25
    endloop
  endfacet
  facet normal 0 0 1
    outer loop
      vertex 50.05 57.466667 2.25
      vertex 51.75 58.76474 2.25
      vertex 50.25 59.166664 2.25
    endloop
  endfacet
  facet normal 0 0 1
    outer loop
      vertex 51.75 58.76474 2.25
      vertex 50.05 57.466667 2.25
      vertex 51.110657 57.027325 2.25
    endloop
  endfacet
  facet normal 0 0 1
    outer loop
      vertex 42.7 59.166664 2.25
      vertex 50.05 57.466667 2.25
      vertex 50.25 59.166664 2.25
    endloop
  endfacet
  facet normal 0 0 1
    outer loop
      vertex 42.7 57.666668 2.25
      vertex 50.05 57.466667 2.25
      vertex 42.7 59.166664 2.25
    endloop
  endfacet
  facet normal 0 0 1
    outer loop
      vertex 42.69813 57.666668 2.25
      vertex 50.05 57.466667 2.25
      vertex 42.7 57.666668 2.25
    endloop
  endfacet
  facet normal 0 0 1
    outer loop
      vertex 42.693844 57.666668 2.25
      vertex 50.05 57.466667 2.25
      vertex 42.69813 57.666668 2.25
    endloop
  endfacet
  facet normal 0 0 1
    outer loop
      vertex 42.6882 57.666668 2.25
      vertex 50.05 57.466667 2.25
      vertex 42.693844 57.666668 2.25
    endloop
  endfacet
  facet normal 0 0 1
    outer loop
      vertex 42.681656 57.666668 2.25
      vertex 50.05 57.466667 2.25
      vertex 42.6882 57.666668 2.25
    endloop
  endfacet
  facet normal 0 0 1
    outer loop
      vertex 42.674385 57.666668 2.25
      vertex 50.05 57.466667 2.25
      vertex 42.681656 57.666668 2.25
    endloop
  endfacet
  facet normal 0 0 1
    outer loop
      vertex 42.66641 57.666668 2.25
      vertex 50.05 57.466667 2.25
      vertex 42.674385 57.666668 2.25
    endloop
  endfacet
  facet normal 0 0 1
    outer loop
      vertex 42.657658 57.666668 2.25
      vertex 50.05 57.466667 2.25
      vertex 42.66641 57.666668 2.25
    endloop
  endfacet
  facet normal 0 0 1
    outer loop
      vertex 42.647976 57.666668 2.25
      vertex 50.05 57.466667 2.25
      vertex 42.657658 57.666668 2.25
    endloop
  endfacet
  facet normal 0 0 1
    outer loop
      vertex 10.702023 57.666668 2.25
      vertex 50.05 57.466667 2.25
      vertex 42.647976 57.666668 2.25
    endloop
  endfacet
  facet normal 0 0 1
    outer loop
      vertex 3.1999998 57.466667 2.25
      vertex 10.702023 57.666668 2.25
      vertex 10.692344 57.666668 2.25
    endloop
  endfacet
  facet normal 0 0 1
    outer loop
      vertex 3.1999998 57.466667 2.25
      vertex 10.692344 57.666668 2.25
      vertex 10.683592 57.666668 2.25
    endloop
  endfacet
  facet normal 0 0 1
    outer loop
      vertex 3.1999998 57.466667 2.25
      vertex 10.683592 57.666668 2.25
      vertex 10.675615 57.666668 2.25
    endloop
  endfacet
  facet normal 0 0 1
    outer loop
      vertex 3.1999998 57.466667 2.25
      vertex 10.675615 57.666668 2.25
      vertex 10.668343 57.666668 2.25
    endloop
  endfacet
  facet normal 0 0 1
    outer loop
      vertex 3.1999998 57.466667 2.25
      vertex 10.668343 57.666668 2.25
      vertex 10.661798 57.666668 2.25
    endloop
  endfacet
  facet normal 0 0 1
    outer loop
      vertex 3.1999998 57.466667 2.25
      vertex 10.661798 57.666668 2.25
      vertex 10.656157 57.666668 2.25
    endloop
  endfacet
  facet normal 0 0 1
    outer loop
      vertex 3.1999998 57.466667 2.25
      vertex 10.656157 57.666668 2.25
      vertex 10.651869 57.666668 2.25
    endloop
  endfacet
  facet normal 0 0 1
    outer loop
      vertex 3.1999998 57.466667 2.25
      vertex 10.651869 57.666668 2.25
      vertex 10.65 57.666668 2.25
    endloop
  endfacet
  facet normal 0 0 1
    outer loop
      vertex 10.702023 57.666668 2.25
      vertex 3.1999998 57.466667 2.25
      vertex 50.05 57.466667 2.25
    endloop
  endfacet
  facet normal 0 0 1
    outer loop
      vertex 51.75 10.65 2.25
      vertex 53.25 3 2.25
      vertex 53.25 10.65 2.25
    endloop
  endfacet
  facet normal 0 0 1
    outer loop
      vertex 51.75 0.40192413 2.25
      vertex 53.25 3 2.25
      vertex 51.75 10.65 2.25
    endloop
  endfacet
  facet normal 0 0 1
    outer loop
      vertex 53.25 3 2.25
      vertex 51.75 0.40192413 2.25
      vertex 52.848076 1.5 2.25
    endloop
  endfacet
  facet normal 0 0 1
    outer loop
      vertex 51.75 10.65 2.25
      vertex 51.55 3.1999998 2.25
      vertex 51.75 0.40192413 2.25
    endloop
  endfacet
  facet normal 0 0 1
    outer loop
      vertex 51.110657 2.1393404 2.25
      vertex 51.75 0.40192413 2.25
      vertex 51.55 3.1999998 2.25
    endloop
  endfacet
  facet normal 0 0 1
    outer loop
      vertex 50.05 1.6999998 2.25
      vertex 51.75 0.40192413 2.25
      vertex 51.110657 2.1393404 2.25
    endloop
  endfacet
  facet normal 0 0 1
    outer loop
      vertex 51.75 0.40192413 2.25
      vertex 50.05 1.6999998 2.25
      vertex 50.25 0 2.25
    endloop
  endfacet
  facet normal 0 0 1
    outer loop
      vertex 42.7 0 2.25
      vertex 50.05 1.6999998 2.25
      vertex 42.7 1.6999998 2.25
    endloop
  endfacet
  facet normal 0 0 1
    outer loop
      vertex 50.05 1.6999998 2.25
      vertex 42.7 0 2.25
      vertex 50.25 0 2.25
    endloop
  endfacet
  facet normal 0 0 1
    outer loop
      vertex 0 10.65 2.25
      vertex 1.6999998 3.1999998 2.25
      vertex 1.6999998 10.65 2.25
    endloop
  endfacet
  facet normal 0 0 1
    outer loop
      vertex 0.40192413 1.5 2.25
      vertex 1.6999998 3.1999998 2.25
      vertex 0 3 2.25
    endloop
  endfacet
  facet normal 0 0 1
    outer loop
      vertex 1.6999998 3.1999998 2.25
      vertex 0 10.65 2.25
      vertex 0 3 2.25
    endloop
  endfacet
  facet normal 0 0 1
    outer loop
      vertex 1.6999998 3.1999998 2.25
      vertex 0.40192413 1.5 2.25
      vertex 1.5 0.40192413 2.25
    endloop
  endfacet
  facet normal 0 0 1
    outer loop
      vertex 3.1999998 1.6999998 2.25
      vertex 10.65 0 2.25
      vertex 10.65 1.6999998 2.25
    endloop
  endfacet
  facet normal 0 0 1
    outer loop
      vertex 3.1999998 1.6999998 2.25
      vertex 3 0 2.25
      vertex 10.65 0 2.25
    endloop
  endfacet
  facet normal 0 0 1
    outer loop
      vertex 1.5 0.40192413 2.25
      vertex 3.1999998 1.6999998 2.25
      vertex 2.1393404 2.1393404 2.25
    endloop
  endfacet
  facet normal 0 0 1
    outer loop
      vertex 1.5 0.40192413 2.25
      vertex 2.1393404 2.1393404 2.25
      vertex 1.6999998 3.1999998 2.25
    endloop
  endfacet
  facet normal 0 0 1
    outer loop
      vertex 3.1999998 1.6999998 2.25
      vertex 1.5 0.40192413 2.25
      vertex 3 0 2.25
    endloop
  endfacet
  facet normal -0.88192165 0 0.47139603
    outer loop
      vertex 10.878362 0 5.498049
      vertex 11.155591 1.6999998 6.0167093
      vertex 10.878362 1.6999998 5.498049
    endloop
  endfacet
  facet normal -0.88192165 0 0.47139603
    outer loop
      vertex 11.155591 1.6999998 6.0167093
      vertex 10.878362 0 5.498049
      vertex 11.155591 0 6.0167093
    endloop
  endfacet
  facet normal 1 0 0
    outer loop
      vertex 42.7 0 4.3499994
      vertex 42.7 1.6999998 2.25
      vertex 42.7 1.6999998 4.3499994
    endloop
  endfacet
  facet normal 1 0 0
    outer loop
      vertex 42.7 1.6999998 2.25
      vertex 42.7 0 4.3499994
      vertex 42.7 0 2.25
    endloop
  endfacet
  facet normal 0.7730103 0 0.63439345
    outer loop
      vertex 41.82132 0 6.471319
      vertex 42.19441 1.6999998 6.0167093
      vertex 41.82132 1.6999998 6.471319
    endloop
  endfacet
  facet normal 0.7730103 0 0.63439345
    outer loop
      vertex 42.19441 1.6999998 6.0167093
      vertex 41.82132 0 6.471319
      vertex 42.19441 0 6.0167093
    endloop
  endfacet
  facet normal -1 0 0
    outer loop
      vertex 10.65 0 2.25
      vertex 10.65 1.6999998 4.3499994
      vertex 10.65 1.6999998 2.25
    endloop
  endfacet
  facet normal -1 0 0
    outer loop
      vertex 10.65 1.6999998 4.3499994
      vertex 10.65 0 2.25
      vertex 10.65 0 4.3499994
    endloop
  endfacet
  facet normal 0.95693934 0 0.29028803
    outer loop
      vertex 42.471638 0 5.498049
      vertex 42.642357 1.6999998 4.9352703
      vertex 42.471638 1.6999998 5.498049
    endloop
  endfacet
  facet normal 0.95693934 0 0.29028803
    outer loop
      vertex 42.642357 1.6999998 4.9352703
      vertex 42.471638 0 5.498049
      vertex 42.642357 0 4.9352703
    endloop
  endfacet
  facet normal -0.63439345 0 0.7730103
    outer loop
      vertex 11.52868 1.6999998 6.471319
      vertex 11.98329 0 6.844408
      vertex 11.98329 1.6999998 6.844408
    endloop
  endfacet
  facet normal -0.63439345 0 0.7730103
    outer loop
      vertex 11.98329 0 6.844408
      vertex 11.52868 1.6999998 6.471319
      vertex 11.52868 0 6.471319
    endloop
  endfacet
  facet normal 0.88192165 0 0.47139603
    outer loop
      vertex 42.19441 0 6.0167093
      vertex 42.471638 1.6999998 5.498049
      vertex 42.19441 1.6999998 6.0167093
    endloop
  endfacet
  facet normal 0.88192165 0 0.47139603
    outer loop
      vertex 42.471638 1.6999998 5.498049
      vertex 42.19441 0 6.0167093
      vertex 42.471638 0 5.498049
    endloop
  endfacet
  facet normal 0.29028597 0 0.95693994
    outer loop
      vertex 40.424896 1.6999998 7.25
      vertex 40.84805 0 7.1216373
      vertex 40.84805 1.6999998 7.1216373
    endloop
  endfacet
  facet normal 0.29028597 0 0.95693994
    outer loop
      vertex 40.84805 0 7.1216373
      vertex 40.424896 1.6999998 7.25
      vertex 40.424896 0 7.25
    endloop
  endfacet
  facet normal -0.7730103 0 0.63439345
    outer loop
      vertex 11.155591 0 6.0167093
      vertex 11.52868 1.6999998 6.471319
      vertex 11.155591 1.6999998 6.0167093
    endloop
  endfacet
  facet normal -0.7730103 0 0.63439345
    outer loop
      vertex 11.52868 1.6999998 6.471319
      vertex 11.155591 0 6.0167093
      vertex 11.52868 0 6.471319
    endloop
  endfacet
  facet normal 0.6343942 0 0.77300966
    outer loop
      vertex 41.36671 1.6999998 6.844408
      vertex 41.82132 0 6.471319
      vertex 41.82132 1.6999998 6.471319
    endloop
  endfacet
  facet normal 0.6343942 0 0.77300966
    outer loop
      vertex 41.82132 0 6.471319
      vertex 41.36671 1.6999998 6.844408
      vertex 41.36671 0 6.844408
    endloop
  endfacet
  facet normal 0.9951848 0 0.0980167
    outer loop
      vertex 42.642357 0 4.9352703
      vertex 42.7 1.6999998 4.3499994
      vertex 42.642357 1.6999998 4.9352703
    endloop
  endfacet
  facet normal 0.9951848 0 0.0980167
    outer loop
      vertex 42.7 1.6999998 4.3499994
      vertex 42.642357 0 4.9352703
      vertex 42.7 0 4.3499994
    endloop
  endfacet
  facet normal -0.9951846 0 0.09801831
    outer loop
      vertex 10.65 0 4.3499994
      vertex 10.707644 1.6999998 4.9352703
      vertex 10.65 1.6999998 4.3499994
    endloop
  endfacet
  facet normal -0.9951846 0 0.09801831
    outer loop
      vertex 10.707644 1.6999998 4.9352703
      vertex 10.65 0 4.3499994
      vertex 10.707644 0 4.9352703
    endloop
  endfacet
  facet normal 0 -1 0
    outer loop
      vertex 3 0 0
      vertex 10.65 0 2.25
      vertex 3 0 2.25
    endloop
  endfacet
  facet normal 0 -1 0
    outer loop
      vertex 10.65 0 2.25
      vertex 3 0 0
      vertex 42.7 0 2.25
    endloop
  endfacet
  facet normal 0 -1 0
    outer loop
      vertex 50.25 0 0
      vertex 42.7 0 2.25
      vertex 3 0 0
    endloop
  endfacet
  facet normal 0 -1 0
    outer loop
      vertex 42.7 0 2.25
      vertex 50.25 0 0
      vertex 50.25 0 2.25
    endloop
  endfacet
  facet normal 0 -1 0
    outer loop
      vertex 11.98329 0 6.844408
      vertex 12.925104 0 7.25
      vertex 12.50195 0 7.1216373
    endloop
  endfacet
  facet normal 0 -1 0
    outer loop
      vertex 12.925104 0 7.25
      vertex 10.65 0 2.25
      vertex 40.424896 0 7.25
    endloop
  endfacet
  facet normal 0 -1 0
    outer loop
      vertex 12.925104 0 7.25
      vertex 11.98329 0 6.844408
      vertex 10.65 0 4.3499994
    endloop
  endfacet
  facet normal 0 -1 0
    outer loop
      vertex 42.7 0 2.25
      vertex 40.424896 0 7.25
      vertex 10.65 0 2.25
    endloop
  endfacet
  facet normal 0 -1 0
    outer loop
      vertex 10.65 0 4.3499994
      vertex 11.98329 0 6.844408
      vertex 11.52868 0 6.471319
    endloop
  endfacet
  facet normal 0 -1 0
    outer loop
      vertex 42.7 0 4.3499994
      vertex 40.424896 0 7.25
      vertex 42.7 0 2.25
    endloop
  endfacet
  facet normal 0 -1 0
    outer loop
      vertex 10.65 0 4.3499994
      vertex 11.52868 0 6.471319
      vertex 11.155591 0 6.0167093
    endloop
  endfacet
  facet normal 0 -1 0
    outer loop
      vertex 41.36671 0 6.844408
      vertex 40.424896 0 7.25
      vertex 42.7 0 4.3499994
    endloop
  endfacet
  facet normal 0 -1 0
    outer loop
      vertex 10.65 0 4.3499994
      vertex 11.155591 0 6.0167093
      vertex 10.878362 0 5.498049
    endloop
  endfacet
  facet normal 0 -1 0
    outer loop
      vertex 40.424896 0 7.25
      vertex 41.36671 0 6.844408
      vertex 40.84805 0 7.1216373
    endloop
  endfacet
  facet normal 0 -1 0
    outer loop
      vertex 10.65 0 4.3499994
      vertex 10.878362 0 5.498049
      vertex 10.707644 0 4.9352703
    endloop
  endfacet
  facet normal 0 -1 0
    outer loop
      vertex 41.36671 0 6.844408
      vertex 42.7 0 4.3499994
      vertex 41.82132 0 6.471319
    endloop
  endfacet
  facet normal 0 -1 0
    outer loop
      vertex 12.925104 0 7.25
      vertex 10.65 0 4.3499994
      vertex 10.65 0 2.25
    endloop
  endfacet
  facet normal 0 -1 0
    outer loop
      vertex 41.82132 0 6.471319
      vertex 42.7 0 4.3499994
      vertex 42.19441 0 6.0167093
    endloop
  endfacet
  facet normal 0 -1 0
    outer loop
      vertex 42.19441 0 6.0167093
      vertex 42.7 0 4.3499994
      vertex 42.471638 0 5.498049
    endloop
  endfacet
  facet normal 0 -1 0
    outer loop
      vertex 42.471638 0 5.498049
      vertex 42.7 0 4.3499994
      vertex 42.642357 0 4.9352703
    endloop
  endfacet
  facet normal -0.95694023 0 0.29028508
    outer loop
      vertex 10.707644 0 4.9352703
      vertex 10.878362 1.6999998 5.498049
      vertex 10.707644 1.6999998 4.9352703
    endloop
  endfacet
  facet normal -0.95694023 0 0.29028508
    outer loop
      vertex 10.878362 1.6999998 5.498049
      vertex 10.707644 0 4.9352703
      vertex 10.878362 0 5.498049
    endloop
  endfacet
  facet normal 0.47139537 0 0.881922
    outer loop
      vertex 40.84805 1.6999998 7.1216373
      vertex 41.36671 0 6.844408
      vertex 41.36671 1.6999998 6.844408
    endloop
  endfacet
  facet normal 0.47139537 0 0.881922
    outer loop
      vertex 41.36671 0 6.844408
      vertex 40.84805 1.6999998 7.1216373
      vertex 40.84805 0 7.1216373
    endloop
  endfacet
  facet normal -0.47139603 0 0.88192165
    outer loop
      vertex 11.98329 1.6999998 6.844408
      vertex 12.50195 0 7.1216373
      vertex 12.50195 1.6999998 7.1216373
    endloop
  endfacet
  facet normal -0.47139603 0 0.88192165
    outer loop
      vertex 12.50195 0 7.1216373
      vertex 11.98329 1.6999998 6.844408
      vertex 11.98329 0 6.844408
    endloop
  endfacet
  facet normal -0.29028535 0 0.9569401
    outer loop
      vertex 12.50195 1.6999998 7.1216373
      vertex 12.925104 0 7.25
      vertex 12.925104 1.6999998 7.25
    endloop
  endfacet
  facet normal -0.29028535 0 0.9569401
    outer loop
      vertex 12.925104 0 7.25
      vertex 12.50195 1.6999998 7.1216373
      vertex 12.50195 0 7.1216373
    endloop
  endfacet
  facet normal 0.9951848 0 0.0980167
    outer loop
      vertex 42.642357 57.666668 4.9352703
      vertex 42.7 59.166664 4.3499994
      vertex 42.642357 59.166664 4.9352703
    endloop
  endfacet
  facet normal 0.9951848 0 0.0980167
    outer loop
      vertex 42.7 59.166664 4.3499994
      vertex 42.642357 57.666668 4.9352703
      vertex 42.7 57.666668 4.3499994
    endloop
  endfacet
  facet normal 0 -1 0
    outer loop
      vertex 42.69813 57.666668 2.25
      vertex 42.7 57.666668 4.3499994
      vertex 42.642357 57.666668 4.9352703
    endloop
  endfacet
  facet normal 0 -1 0
    outer loop
      vertex 42.7 57.666668 4.3499994
      vertex 42.69813 57.666668 2.25
      vertex 42.7 57.666668 2.25
    endloop
  endfacet
  facet normal 0.95693934 0 0.29028803
    outer loop
      vertex 42.471638 57.666668 5.498049
      vertex 42.642357 59.166664 4.9352703
      vertex 42.471638 59.166664 5.498049
    endloop
  endfacet
  facet normal 0.95693934 0 0.29028803
    outer loop
      vertex 42.642357 59.166664 4.9352703
      vertex 42.471638 57.666668 5.498049
      vertex 42.642357 57.666668 4.9352703
    endloop
  endfacet
  facet normal 0 -1 0
    outer loop
      vertex 42.693844 57.666668 2.25
      vertex 42.642357 57.666668 4.9352703
      vertex 42.471638 57.666668 5.498049
    endloop
  endfacet
  facet normal 0 -1 0
    outer loop
      vertex 42.642357 57.666668 4.9352703
      vertex 42.693844 57.666668 2.25
      vertex 42.69813 57.666668 2.25
    endloop
  endfacet
  facet normal -0.9951846 0 0.09801831
    outer loop
      vertex 10.65 57.666668 4.3499994
      vertex 10.707644 59.166664 4.9352703
      vertex 10.65 59.166664 4.3499994
    endloop
  endfacet
  facet normal -0.9951846 0 0.09801831
    outer loop
      vertex 10.707644 59.166664 4.9352703
      vertex 10.65 57.666668 4.3499994
      vertex 10.707644 57.666668 4.9352703
    endloop
  endfacet
  facet normal 0.6343942 0 0.77300966
    outer loop
      vertex 41.36671 59.166664 6.844408
      vertex 41.82132 57.666668 6.471319
      vertex 41.82132 59.166664 6.471319
    endloop
  endfacet
  facet normal 0.6343942 0 0.77300966
    outer loop
      vertex 41.82132 57.666668 6.471319
      vertex 41.36671 59.166664 6.844408
      vertex 41.36671 57.666668 6.844408
    endloop
  endfacet
  facet normal 0 -1 0
    outer loop
      vertex 10.702023 57.666668 2.25
      vertex 39.7578 57.666668 7.25
      vertex 13.592196 57.666668 7.25
    endloop
  endfacet
  facet normal 0 -1 0
    outer loop
      vertex 39.7578 57.666668 7.25
      vertex 10.702023 57.666668 2.25
      vertex 42.647976 57.666668 2.25
    endloop
  endfacet
  facet normal 0 -1 0
    outer loop
      vertex 42.647976 57.666668 2.25
      vertex 40.3052 57.666668 7.25
      vertex 39.7578 57.666668 7.25
    endloop
  endfacet
  facet normal 0 -1 0
    outer loop
      vertex 40.3052 57.666668 7.25
      vertex 42.647976 57.666668 2.25
      vertex 42.657658 57.666668 2.25
    endloop
  endfacet
  facet normal 0 -1 0
    outer loop
      vertex 42.674385 57.666668 2.25
      vertex 41.82132 57.666668 6.471319
      vertex 41.36671 57.666668 6.844408
    endloop
  endfacet
  facet normal 0 -1 0
    outer loop
      vertex 41.82132 57.666668 6.471319
      vertex 42.674385 57.666668 2.25
      vertex 42.681656 57.666668 2.25
    endloop
  endfacet
  facet normal 0.29028597 0 0.95693994
    outer loop
      vertex 40.424896 59.166664 7.25
      vertex 40.84805 57.666668 7.1216373
      vertex 40.84805 59.166664 7.1216373
    endloop
  endfacet
  facet normal 0.29028597 0 0.95693994
    outer loop
      vertex 40.84805 57.666668 7.1216373
      vertex 40.424896 59.166664 7.25
      vertex 40.424896 57.666668 7.25
    endloop
  endfacet
  facet normal -1 0 0
    outer loop
      vertex 10.65 57.666668 2.25
      vertex 10.65 59.166664 4.3499994
      vertex 10.65 59.166664 2.25
    endloop
  endfacet
  facet normal -1 0 0
    outer loop
      vertex 10.65 59.166664 4.3499994
      vertex 10.65 57.666668 2.25
      vertex 10.65 57.666668 4.3499994
    endloop
  endfacet
  facet normal 0 -1 0
    outer loop
      vertex 40.3052 57.666668 7.25
      vertex 40.84805 57.666668 7.1216373
      vertex 40.424896 57.666668 7.25
    endloop
  endfacet
  facet normal 0 -1 0
    outer loop
      vertex 42.657658 57.666668 2.25
      vertex 40.84805 57.666668 7.1216373
      vertex 40.3052 57.666668 7.25
    endloop
  endfacet
  facet normal 0 -1 0
    outer loop
      vertex 40.84805 57.666668 7.1216373
      vertex 42.657658 57.666668 2.25
      vertex 42.66641 57.666668 2.25
    endloop
  endfacet
  facet normal -0.7730103 0 0.63439345
    outer loop
      vertex 11.155591 57.666668 6.0167093
      vertex 11.52868 59.166664 6.471319
      vertex 11.155591 59.166664 6.0167093
    endloop
  endfacet
  facet normal -0.7730103 0 0.63439345
    outer loop
      vertex 11.52868 59.166664 6.471319
      vertex 11.155591 57.666668 6.0167093
      vertex 11.52868 57.666668 6.471319
    endloop
  endfacet
  facet normal 0 -1 0
    outer loop
      vertex 10.668343 57.666668 2.25
      vertex 11.155591 57.666668 6.0167093
      vertex 10.661798 57.666668 2.25
    endloop
  endfacet
  facet normal 0 -1 0
    outer loop
      vertex 11.155591 57.666668 6.0167093
      vertex 10.668343 57.666668 2.25
      vertex 11.52868 57.666668 6.471319
    endloop
  endfacet
  facet normal 0 -1 0
    outer loop
      vertex 10.661798 57.666668 2.25
      vertex 10.878362 57.666668 5.498049
      vertex 10.656157 57.666668 2.25
    endloop
  endfacet
  facet normal 0 -1 0
    outer loop
      vertex 10.878362 57.666668 5.498049
      vertex 10.661798 57.666668 2.25
      vertex 11.155591 57.666668 6.0167093
    endloop
  endfacet
  facet normal 0 -1 0
    outer loop
      vertex 10.683592 57.666668 2.25
      vertex 11.98329 57.666668 6.844408
      vertex 10.675615 57.666668 2.25
    endloop
  endfacet
  facet normal 0 -1 0
    outer loop
      vertex 11.98329 57.666668 6.844408
      vertex 10.683592 57.666668 2.25
      vertex 12.50195 57.666668 7.1216373
    endloop
  endfacet
  facet normal 0 -1 0
    outer loop
      vertex 10.651869 57.666668 2.25
      vertex 10.65 57.666668 4.3499994
      vertex 10.65 57.666668 2.25
    endloop
  endfacet
  facet normal 0 -1 0
    outer loop
      vertex 10.65 57.666668 4.3499994
      vertex 10.651869 57.666668 2.25
      vertex 10.707644 57.666668 4.9352703
    endloop
  endfacet
  facet normal 0.47139537 0 0.881922
    outer loop
      vertex 40.84805 59.166664 7.1216373
      vertex 41.36671 57.666668 6.844408
      vertex 41.36671 59.166664 6.844408
    endloop
  endfacet
  facet normal 0.47139537 0 0.881922
    outer loop
      vertex 41.36671 57.666668 6.844408
      vertex 40.84805 59.166664 7.1216373
      vertex 40.84805 57.666668 7.1216373
    endloop
  endfacet
  facet normal 0.88192165 0 0.47139603
    outer loop
      vertex 42.19441 57.666668 6.0167093
      vertex 42.471638 59.166664 5.498049
      vertex 42.19441 59.166664 6.0167093
    endloop
  endfacet
  facet normal 0.88192165 0 0.47139603
    outer loop
      vertex 42.471638 59.166664 5.498049
      vertex 42.19441 57.666668 6.0167093
      vertex 42.471638 57.666668 5.498049
    endloop
  endfacet
  facet normal 0 -1 0
    outer loop
      vertex 42.6882 57.666668 2.25
      vertex 42.471638 57.666668 5.498049
      vertex 42.19441 57.666668 6.0167093
    endloop
  endfacet
  facet normal 0 -1 0
    outer loop
      vertex 42.471638 57.666668 5.498049
      vertex 42.6882 57.666668 2.25
      vertex 42.693844 57.666668 2.25
    endloop
  endfacet
  facet normal 0 -1 0
    outer loop
      vertex 10.702023 57.666668 2.25
      vertex 13.044802 57.666668 7.25
      vertex 10.692344 57.666668 2.25
    endloop
  endfacet
  facet normal 0 -1 0
    outer loop
      vertex 13.044802 57.666668 7.25
      vertex 10.702023 57.666668 2.25
      vertex 13.592196 57.666668 7.25
    endloop
  endfacet
  facet normal -0.88192165 0 0.47139603
    outer loop
      vertex 10.878362 57.666668 5.498049
      vertex 11.155591 59.166664 6.0167093
      vertex 10.878362 59.166664 5.498049
    endloop
  endfacet
  facet normal -0.88192165 0 0.47139603
    outer loop
      vertex 11.155591 59.166664 6.0167093
      vertex 10.878362 57.666668 5.498049
      vertex 11.155591 57.666668 6.0167093
    endloop
  endfacet
  facet normal 0 -1 0
    outer loop
      vertex 12.50195 57.666668 7.1216373
      vertex 13.044802 57.666668 7.25
      vertex 12.925104 57.666668 7.25
    endloop
  endfacet
  facet normal 0 -1 0
    outer loop
      vertex 10.692344 57.666668 2.25
      vertex 12.50195 57.666668 7.1216373
      vertex 10.683592 57.666668 2.25
    endloop
  endfacet
  facet normal 0 -1 0
    outer loop
      vertex 12.50195 57.666668 7.1216373
      vertex 10.692344 57.666668 2.25
      vertex 13.044802 57.666668 7.25
    endloop
  endfacet
  facet normal 0 -1 0
    outer loop
      vertex 10.656157 57.666668 2.25
      vertex 10.707644 57.666668 4.9352703
      vertex 10.651869 57.666668 2.25
    endloop
  endfacet
  facet normal 0 -1 0
    outer loop
      vertex 10.707644 57.666668 4.9352703
      vertex 10.656157 57.666668 2.25
      vertex 10.878362 57.666668 5.498049
    endloop
  endfacet
  facet normal 0 -1 0
    outer loop
      vertex 42.681656 57.666668 2.25
      vertex 42.19441 57.666668 6.0167093
      vertex 41.82132 57.666668 6.471319
    endloop
  endfacet
  facet normal 0 -1 0
    outer loop
      vertex 42.19441 57.666668 6.0167093
      vertex 42.681656 57.666668 2.25
      vertex 42.6882 57.666668 2.25
    endloop
  endfacet
  facet normal 0.7730103 0 0.63439345
    outer loop
      vertex 41.82132 57.666668 6.471319
      vertex 42.19441 59.166664 6.0167093
      vertex 41.82132 59.166664 6.471319
    endloop
  endfacet
  facet normal 0.7730103 0 0.63439345
    outer loop
      vertex 42.19441 59.166664 6.0167093
      vertex 41.82132 57.666668 6.471319
      vertex 42.19441 57.666668 6.0167093
    endloop
  endfacet
  facet normal 1 0 0
    outer loop
      vertex 42.7 57.666668 4.3499994
      vertex 42.7 59.166664 2.25
      vertex 42.7 59.166664 4.3499994
    endloop
  endfacet
  facet normal 1 0 0
    outer loop
      vertex 42.7 59.166664 2.25
      vertex 42.7 57.666668 4.3499994
      vertex 42.7 57.666668 2.25
    endloop
  endfacet
  facet normal 0 -1 0
    outer loop
      vertex 10.675615 57.666668 2.25
      vertex 11.52868 57.666668 6.471319
      vertex 10.668343 57.666668 2.25
    endloop
  endfacet
  facet normal 0 -1 0
    outer loop
      vertex 11.52868 57.666668 6.471319
      vertex 10.675615 57.666668 2.25
      vertex 11.98329 57.666668 6.844408
    endloop
  endfacet
  facet normal -0.95694023 0 0.29028508
    outer loop
      vertex 10.707644 57.666668 4.9352703
      vertex 10.878362 59.166664 5.498049
      vertex 10.707644 59.166664 4.9352703
    endloop
  endfacet
  facet normal -0.95694023 0 0.29028508
    outer loop
      vertex 10.878362 59.166664 5.498049
      vertex 10.707644 57.666668 4.9352703
      vertex 10.878362 57.666668 5.498049
    endloop
  endfacet
  facet normal 0 -1 0
    outer loop
      vertex 42.66641 57.666668 2.25
      vertex 41.36671 57.666668 6.844408
      vertex 40.84805 57.666668 7.1216373
    endloop
  endfacet
  facet normal 0 -1 0
    outer loop
      vertex 41.36671 57.666668 6.844408
      vertex 42.66641 57.666668 2.25
      vertex 42.674385 57.666668 2.25
    endloop
  endfacet
  facet normal -0.47139603 0 0.88192165
    outer loop
      vertex 11.98329 59.166664 6.844408
      vertex 12.50195 57.666668 7.1216373
      vertex 12.50195 59.166664 7.1216373
    endloop
  endfacet
  facet normal -0.47139603 0 0.88192165
    outer loop
      vertex 12.50195 57.666668 7.1216373
      vertex 11.98329 59.166664 6.844408
      vertex 11.98329 57.666668 6.844408
    endloop
  endfacet
  facet normal -0.29028535 0 0.9569401
    outer loop
      vertex 12.50195 59.166664 7.1216373
      vertex 12.925104 57.666668 7.25
      vertex 12.925104 59.166664 7.25
    endloop
  endfacet
  facet normal -0.29028535 0 0.9569401
    outer loop
      vertex 12.925104 57.666668 7.25
      vertex 12.50195 59.166664 7.1216373
      vertex 12.50195 57.666668 7.1216373
    endloop
  endfacet
  facet normal -0.63439345 0 0.7730103
    outer loop
      vertex 11.52868 59.166664 6.471319
      vertex 11.98329 57.666668 6.844408
      vertex 11.98329 59.166664 6.844408
    endloop
  endfacet
  facet normal -0.63439345 0 0.7730103
    outer loop
      vertex 11.98329 57.666668 6.844408
      vertex 11.52868 59.166664 6.471319
      vertex 11.52868 57.666668 6.471319
    endloop
  endfacet
  facet normal 0 -0.29028535 0.9569401
    outer loop
      vertex 0 12.925104 7.25
      vertex 1.6999998 12.50195 7.1216373
      vertex 1.6999998 12.925104 7.25
    endloop
  endfacet
  facet normal 0 -0.29028535 0.9569401
    outer loop
      vertex 1.6999998 12.50195 7.1216373
      vertex 0 12.925104 7.25
      vertex 0 12.50195 7.1216373
    endloop
  endfacet
  facet normal 0 -0.95694023 0.29028508
    outer loop
      vertex 0 10.707644 4.9352703
      vertex 1.6999998 10.878362 5.498049
      vertex 0 10.878362 5.498049
    endloop
  endfacet
  facet normal 0 -0.95694023 0.29028508
    outer loop
      vertex 1.6999998 10.878362 5.498049
      vertex 0 10.707644 4.9352703
      vertex 1.6999998 10.707644 4.9352703
    endloop
  endfacet
  facet normal 0 0.47139806 0.8819206
    outer loop
      vertex 0 47.283375 6.844408
      vertex 1.6999998 46.764717 7.1216373
      vertex 1.6999998 47.283375 6.844408
    endloop
  endfacet
  facet normal 0 0.47139806 0.8819206
    outer loop
      vertex 1.6999998 46.764717 7.1216373
      vertex 0 47.283375 6.844408
      vertex 0 46.764717 7.1216373
    endloop
  endfacet
  facet normal 0 -0.88192165 0.47139603
    outer loop
      vertex 0 10.878362 5.498049
      vertex 1.6999998 11.155591 6.0167093
      vertex 0 11.155591 6.0167093
    endloop
  endfacet
  facet normal 0 -0.88192165 0.47139603
    outer loop
      vertex 1.6999998 11.155591 6.0167093
      vertex 0 10.878362 5.498049
      vertex 1.6999998 10.878362 5.498049
    endloop
  endfacet
  facet normal 0 0.6343942 0.77300966
    outer loop
      vertex 0 47.737984 6.471319
      vertex 1.6999998 47.283375 6.844408
      vertex 1.6999998 47.737984 6.471319
    endloop
  endfacet
  facet normal 0 0.6343942 0.77300966
    outer loop
      vertex 1.6999998 47.283375 6.844408
      vertex 0 47.737984 6.471319
      vertex 0 47.283375 6.844408
    endloop
  endfacet
  facet normal 0 -1 0
    outer loop
      vertex 0 10.65 2.25
      vertex 1.6999998 10.65 4.3499994
      vertex 0 10.65 4.3499994
    endloop
  endfacet
  facet normal 0 -1 0
    outer loop
      vertex 1.6999998 10.65 4.3499994
      vertex 0 10.65 2.25
      vertex 1.6999998 10.65 2.25
    endloop
  endfacet
  facet normal 0 -0.9951846 0.09801831
    outer loop
      vertex 0 10.65 4.3499994
      vertex 1.6999998 10.707644 4.9352703
      vertex 0 10.707644 4.9352703
    endloop
  endfacet
  facet normal 0 -0.9951846 0.09801831
    outer loop
      vertex 1.6999998 10.707644 4.9352703
      vertex 0 10.65 4.3499994
      vertex 1.6999998 10.65 4.3499994
    endloop
  endfacet
  facet normal 0 0.77300715 0.6343973
    outer loop
      vertex 1.6999998 48.111076 6.0167093
      vertex 0 47.737984 6.471319
      vertex 1.6999998 47.737984 6.471319
    endloop
  endfacet
  facet normal 0 0.77300715 0.6343973
    outer loop
      vertex 0 47.737984 6.471319
      vertex 1.6999998 48.111076 6.0167093
      vertex 0 48.111076 6.0167093
    endloop
  endfacet
  facet normal 0 -0.7730103 0.63439345
    outer loop
      vertex 0 11.155591 6.0167093
      vertex 1.6999998 11.52868 6.471319
      vertex 0 11.52868 6.471319
    endloop
  endfacet
  facet normal 0 -0.7730103 0.63439345
    outer loop
      vertex 1.6999998 11.52868 6.471319
      vertex 0 11.155591 6.0167093
      vertex 1.6999998 11.155591 6.0167093
    endloop
  endfacet
  facet normal 0 -0.63439345 0.7730103
    outer loop
      vertex 0 11.98329 6.844408
      vertex 1.6999998 11.52868 6.471319
      vertex 1.6999998 11.98329 6.844408
    endloop
  endfacet
  facet normal 0 -0.63439345 0.7730103
    outer loop
      vertex 1.6999998 11.52868 6.471319
      vertex 0 11.98329 6.844408
      vertex 0 11.52868 6.471319
    endloop
  endfacet
  facet normal 0 0.29028356 0.95694065
    outer loop
      vertex 0 46.764717 7.1216373
      vertex 1.6999998 46.34156 7.25
      vertex 1.6999998 46.764717 7.1216373
    endloop
  endfacet
  facet normal 0 0.29028356 0.95694065
    outer loop
      vertex 1.6999998 46.34156 7.25
      vertex 0 46.764717 7.1216373
      vertex 0 46.34156 7.25
    endloop
  endfacet
  facet normal 0 0.88192165 0.47139603
    outer loop
      vertex 1.6999998 48.388306 5.498049
      vertex 0 48.111076 6.0167093
      vertex 1.6999998 48.111076 6.0167093
    endloop
  endfacet
  facet normal 0 0.88192165 0.47139603
    outer loop
      vertex 0 48.111076 6.0167093
      vertex 1.6999998 48.388306 5.498049
      vertex 0 48.388306 5.498049
    endloop
  endfacet
  facet normal 0 1 0
    outer loop
      vertex 1.6999998 48.616665 2.25
      vertex 0 48.616665 4.3499994
      vertex 1.6999998 48.616665 4.3499994
    endloop
  endfacet
  facet normal 0 1 0
    outer loop
      vertex 0 48.616665 4.3499994
      vertex 1.6999998 48.616665 2.25
      vertex 0 48.616665 2.25
    endloop
  endfacet
  facet normal 0 0.9951848 0.0980167
    outer loop
      vertex 1.6999998 48.616665 4.3499994
      vertex 0 48.55902 4.9352703
      vertex 1.6999998 48.55902 4.9352703
    endloop
  endfacet
  facet normal 0 0.9951848 0.0980167
    outer loop
      vertex 0 48.55902 4.9352703
      vertex 1.6999998 48.616665 4.3499994
      vertex 0 48.616665 4.3499994
    endloop
  endfacet
  facet normal -1 0 0
    outer loop
      vertex 0 56.166664 0
      vertex 0 48.616665 2.25
      vertex 0 56.166664 2.25
    endloop
  endfacet
  facet normal -1 0 0
    outer loop
      vertex 0 46.34156 7.25
      vertex 0 48.616665 4.3499994
      vertex 0 48.616665 2.25
    endloop
  endfacet
  facet normal -1 0 0
    outer loop
      vertex 0 48.616665 4.3499994
      vertex 0 46.34156 7.25
      vertex 0 48.55902 4.9352703
    endloop
  endfacet
  facet normal -1 0 0
    outer loop
      vertex 0 48.55902 4.9352703
      vertex 0 46.34156 7.25
      vertex 0 48.388306 5.498049
    endloop
  endfacet
  facet normal -1 0 0
    outer loop
      vertex 0 48.388306 5.498049
      vertex 0 46.34156 7.25
      vertex 0 48.111076 6.0167093
    endloop
  endfacet
  facet normal -1 0 0
    outer loop
      vertex 0 48.111076 6.0167093
      vertex 0 46.34156 7.25
      vertex 0 47.737984 6.471319
    endloop
  endfacet
  facet normal -1 0 0
    outer loop
      vertex 0 47.737984 6.471319
      vertex 0 46.34156 7.25
      vertex 0 47.283375 6.844408
    endloop
  endfacet
  facet normal -1 0 0
    outer loop
      vertex 0 47.283375 6.844408
      vertex 0 46.34156 7.25
      vertex 0 46.764717 7.1216373
    endloop
  endfacet
  facet normal -1 0 0
    outer loop
      vertex 0 48.616665 2.25
      vertex 0 12.925104 7.25
      vertex 0 46.34156 7.25
    endloop
  endfacet
  facet normal -1 0 0
    outer loop
      vertex 0 10.65 2.25
      vertex 0 48.616665 2.25
      vertex 0 56.166664 0
    endloop
  endfacet
  facet normal -1 0 0
    outer loop
      vertex 0 48.616665 2.25
      vertex 0 10.65 2.25
      vertex 0 12.925104 7.25
    endloop
  endfacet
  facet normal -1 0 0
    outer loop
      vertex 0 10.65 4.3499994
      vertex 0 12.925104 7.25
      vertex 0 10.65 2.25
    endloop
  endfacet
  facet normal -1 0 0
    outer loop
      vertex 0 11.98329 6.844408
      vertex 0 12.925104 7.25
      vertex 0 10.65 4.3499994
    endloop
  endfacet
  facet normal -1 0 0
    outer loop
      vertex 0 12.925104 7.25
      vertex 0 11.98329 6.844408
      vertex 0 12.50195 7.1216373
    endloop
  endfacet
  facet normal -1 0 0
    outer loop
      vertex 0 11.98329 6.844408
      vertex 0 10.65 4.3499994
      vertex 0 11.52868 6.471319
    endloop
  endfacet
  facet normal -1 0 0
    outer loop
      vertex 0 11.52868 6.471319
      vertex 0 10.65 4.3499994
      vertex 0 11.155591 6.0167093
    endloop
  endfacet
  facet normal -1 0 0
    outer loop
      vertex 0 11.155591 6.0167093
      vertex 0 10.65 4.3499994
      vertex 0 10.878362 5.498049
    endloop
  endfacet
  facet normal -1 0 0
    outer loop
      vertex 0 3 0
      vertex 0 10.65 2.25
      vertex 0 56.166664 0
    endloop
  endfacet
  facet normal -1 0 0
    outer loop
      vertex 0 10.65 2.25
      vertex 0 3 0
      vertex 0 3 2.25
    endloop
  endfacet
  facet normal -1 0 0
    outer loop
      vertex 0 10.878362 5.498049
      vertex 0 10.65 4.3499994
      vertex 0 10.707644 4.9352703
    endloop
  endfacet
  facet normal 0 -0.47139603 0.88192165
    outer loop
      vertex 0 12.50195 7.1216373
      vertex 1.6999998 11.98329 6.844408
      vertex 1.6999998 12.50195 7.1216373
    endloop
  endfacet
  facet normal 0 -0.47139603 0.88192165
    outer loop
      vertex 1.6999998 11.98329 6.844408
      vertex 0 12.50195 7.1216373
      vertex 0 11.98329 6.844408
    endloop
  endfacet
  facet normal 0 0.9569411 0.2902821
    outer loop
      vertex 1.6999998 48.55902 4.9352703
      vertex 0 48.388306 5.498049
      vertex 1.6999998 48.388306 5.498049
    endloop
  endfacet
  facet normal 0 0.9569411 0.2902821
    outer loop
      vertex 0 48.388306 5.498049
      vertex 1.6999998 48.55902 4.9352703
      vertex 0 48.55902 4.9352703
    endloop
  endfacet
  facet normal 0 -0.29028535 0.9569401
    outer loop
      vertex 51.75 12.925104 7.25
      vertex 53.25 12.50195 7.1216373
      vertex 53.25 12.925104 7.25
    endloop
  endfacet
  facet normal 0 -0.29028535 0.9569401
    outer loop
      vertex 53.25 12.50195 7.1216373
      vertex 51.75 12.925104 7.25
      vertex 51.75 12.50195 7.1216373
    endloop
  endfacet
  facet normal 0 -0.95694023 0.29028508
    outer loop
      vertex 51.75 10.707644 4.9352703
      vertex 53.25 10.878362 5.498049
      vertex 51.75 10.878362 5.498049
    endloop
  endfacet
  facet normal 0 -0.95694023 0.29028508
    outer loop
      vertex 53.25 10.878362 5.498049
      vertex 51.75 10.707644 4.9352703
      vertex 53.25 10.707644 4.9352703
    endloop
  endfacet
  facet normal 0 0.47139806 0.8819206
    outer loop
      vertex 51.75 47.283375 6.844408
      vertex 53.25 46.764717 7.1216373
      vertex 53.25 47.283375 6.844408
    endloop
  endfacet
  facet normal 0 0.47139806 0.8819206
    outer loop
      vertex 53.25 46.764717 7.1216373
      vertex 51.75 47.283375 6.844408
      vertex 51.75 46.764717 7.1216373
    endloop
  endfacet
  facet normal 0 -0.88192165 0.47139603
    outer loop
      vertex 51.75 10.878362 5.498049
      vertex 53.25 11.155591 6.0167093
      vertex 51.75 11.155591 6.0167093
    endloop
  endfacet
  facet normal 0 -0.88192165 0.47139603
    outer loop
      vertex 53.25 11.155591 6.0167093
      vertex 51.75 10.878362 5.498049
      vertex 53.25 10.878362 5.498049
    endloop
  endfacet
  facet normal -1 0 0
    outer loop
      vertex 51.75 46.34156 7.25
      vertex 51.75 48.616665 4.3499994
      vertex 51.75 48.616665 2.25
    endloop
  endfacet
  facet normal -1 0 0
    outer loop
      vertex 51.75 48.616665 4.3499994
      vertex 51.75 46.34156 7.25
      vertex 51.75 48.55902 4.9352703
    endloop
  endfacet
  facet normal -1 0 0
    outer loop
      vertex 51.75 48.55902 4.9352703
      vertex 51.75 46.34156 7.25
      vertex 51.75 48.388306 5.498049
    endloop
  endfacet
  facet normal -1 0 0
    outer loop
      vertex 51.75 48.388306 5.498049
      vertex 51.75 46.34156 7.25
      vertex 51.75 48.111076 6.0167093
    endloop
  endfacet
  facet normal -1 0 0
    outer loop
      vertex 51.75 48.111076 6.0167093
      vertex 51.75 46.34156 7.25
      vertex 51.75 47.737984 6.471319
    endloop
  endfacet
  facet normal -1 0 0
    outer loop
      vertex 51.75 47.737984 6.471319
      vertex 51.75 46.34156 7.25
      vertex 51.75 47.283375 6.844408
    endloop
  endfacet
  facet normal -1 0 0
    outer loop
      vertex 51.75 47.283375 6.844408
      vertex 51.75 46.34156 7.25
      vertex 51.75 46.764717 7.1216373
    endloop
  endfacet
  facet normal -1 0 0
    outer loop
      vertex 51.75 48.616665 2.25
      vertex 51.75 12.925104 7.25
      vertex 51.75 46.34156 7.25
    endloop
  endfacet
  facet normal -1 0 0
    outer loop
      vertex 51.75 10.65 2.25
      vertex 51.75 12.925104 7.25
      vertex 51.75 48.616665 2.25
    endloop
  endfacet
  facet normal -1 0 0
    outer loop
      vertex 51.75 10.65 4.3499994
      vertex 51.75 12.925104 7.25
      vertex 51.75 10.65 2.25
    endloop
  endfacet
  facet normal -1 0 0
    outer loop
      vertex 51.75 11.98329 6.844408
      vertex 51.75 12.925104 7.25
      vertex 51.75 10.65 4.3499994
    endloop
  endfacet
  facet normal -1 0 0
    outer loop
      vertex 51.75 12.925104 7.25
      vertex 51.75 11.98329 6.844408
      vertex 51.75 12.50195 7.1216373
    endloop
  endfacet
  facet normal -1 0 0
    outer loop
      vertex 51.75 11.98329 6.844408
      vertex 51.75 10.65 4.3499994
      vertex 51.75 11.52868 6.471319
    endloop
  endfacet
  facet normal -1 0 0
    outer loop
      vertex 51.75 11.52868 6.471319
      vertex 51.75 10.65 4.3499994
      vertex 51.75 11.155591 6.0167093
    endloop
  endfacet
  facet normal -1 0 0
    outer loop
      vertex 51.75 11.155591 6.0167093
      vertex 51.75 10.65 4.3499994
      vertex 51.75 10.878362 5.498049
    endloop
  endfacet
  facet normal -1 0 0
    outer loop
      vertex 51.75 10.878362 5.498049
      vertex 51.75 10.65 4.3499994
      vertex 51.75 10.707644 4.9352703
    endloop
  endfacet
  facet normal 0 -1 0
    outer loop
      vertex 51.75 10.65 2.25
      vertex 53.25 10.65 4.3499994
      vertex 51.75 10.65 4.3499994
    endloop
  endfacet
  facet normal 0 -1 0
    outer loop
      vertex 53.25 10.65 4.3499994
      vertex 51.75 10.65 2.25
      vertex 53.25 10.65 2.25
    endloop
  endfacet
  facet normal 0 -0.9951846 0.09801831
    outer loop
      vertex 51.75 10.65 4.3499994
      vertex 53.25 10.707644 4.9352703
      vertex 51.75 10.707644 4.9352703
    endloop
  endfacet
  facet normal 0 -0.9951846 0.09801831
    outer loop
      vertex 53.25 10.707644 4.9352703
      vertex 51.75 10.65 4.3499994
      vertex 53.25 10.65 4.3499994
    endloop
  endfacet
  facet normal 0 0.77300715 0.6343973
    outer loop
      vertex 53.25 48.111076 6.0167093
      vertex 51.75 47.737984 6.471319
      vertex 53.25 47.737984 6.471319
    endloop
  endfacet
  facet normal 0 0.77300715 0.6343973
    outer loop
      vertex 51.75 47.737984 6.471319
      vertex 53.25 48.111076 6.0167093
      vertex 51.75 48.111076 6.0167093
    endloop
  endfacet
  facet normal 0 0.9951848 0.0980167
    outer loop
      vertex 53.25 48.616665 4.3499994
      vertex 51.75 48.55902 4.9352703
      vertex 53.25 48.55902 4.9352703
    endloop
  endfacet
  facet normal 0 0.9951848 0.0980167
    outer loop
      vertex 51.75 48.55902 4.9352703
      vertex 53.25 48.616665 4.3499994
      vertex 51.75 48.616665 4.3499994
    endloop
  endfacet
  facet normal 0 -0.7730103 0.63439345
    outer loop
      vertex 51.75 11.155591 6.0167093
      vertex 53.25 11.52868 6.471319
      vertex 51.75 11.52868 6.471319
    endloop
  endfacet
  facet normal 0 -0.7730103 0.63439345
    outer loop
      vertex 53.25 11.52868 6.471319
      vertex 51.75 11.155591 6.0167093
      vertex 53.25 11.155591 6.0167093
    endloop
  endfacet
  facet normal 0 -0.63439345 0.7730103
    outer loop
      vertex 51.75 11.98329 6.844408
      vertex 53.25 11.52868 6.471319
      vertex 53.25 11.98329 6.844408
    endloop
  endfacet
  facet normal 0 -0.63439345 0.7730103
    outer loop
      vertex 53.25 11.52868 6.471319
      vertex 51.75 11.98329 6.844408
      vertex 51.75 11.52868 6.471319
    endloop
  endfacet
  facet normal 0 0.29028356 0.95694065
    outer loop
      vertex 51.75 46.764717 7.1216373
      vertex 53.25 46.34156 7.25
      vertex 53.25 46.764717 7.1216373
    endloop
  endfacet
  facet normal 0 0.29028356 0.95694065
    outer loop
      vertex 53.25 46.34156 7.25
      vertex 51.75 46.764717 7.1216373
      vertex 51.75 46.34156 7.25
    endloop
  endfacet
  facet normal 0 0.88192165 0.47139603
    outer loop
      vertex 53.25 48.388306 5.498049
      vertex 51.75 48.111076 6.0167093
      vertex 53.25 48.111076 6.0167093
    endloop
  endfacet
  facet normal 0 0.88192165 0.47139603
    outer loop
      vertex 51.75 48.111076 6.0167093
      vertex 53.25 48.388306 5.498049
      vertex 51.75 48.388306 5.498049
    endloop
  endfacet
  facet normal 0 1 0
    outer loop
      vertex 53.25 48.616665 2.25
      vertex 51.75 48.616665 4.3499994
      vertex 53.25 48.616665 4.3499994
    endloop
  endfacet
  facet normal 0 1 0
    outer loop
      vertex 51.75 48.616665 4.3499994
      vertex 53.25 48.616665 2.25
      vertex 51.75 48.616665 2.25
    endloop
  endfacet
  facet normal 0 -0.47139603 0.88192165
    outer loop
      vertex 51.75 12.50195 7.1216373
      vertex 53.25 11.98329 6.844408
      vertex 53.25 12.50195 7.1216373
    endloop
  endfacet
  facet normal 0 -0.47139603 0.88192165
    outer loop
      vertex 53.25 11.98329 6.844408
      vertex 51.75 12.50195 7.1216373
      vertex 51.75 11.98329 6.844408
    endloop
  endfacet
  facet normal 0 0.9569411 0.2902821
    outer loop
      vertex 53.25 48.55902 4.9352703
      vertex 51.75 48.388306 5.498049
      vertex 53.25 48.388306 5.498049
    endloop
  endfacet
  facet normal 0 0.9569411 0.2902821
    outer loop
      vertex 51.75 48.388306 5.498049
      vertex 53.25 48.55902 4.9352703
      vertex 51.75 48.55902 4.9352703
    endloop
  endfacet
  facet normal 0 0.6343942 0.77300966
    outer loop
      vertex 51.75 47.737984 6.471319
      vertex 53.25 47.283375 6.844408
      vertex 53.25 47.737984 6.471319
    endloop
  endfacet
  facet normal 0 0.6343942 0.77300966
    outer loop
      vertex 53.25 47.283375 6.844408
      vertex 51.75 47.737984 6.471319
      vertex 51.75 47.283375 6.844408
    endloop
  endfacet
  facet normal -1 0 0
    outer loop
      vertex 24.5 5 2
      vertex 24.5 23.5 12.299998
      vertex 24.5 23.5 2
    endloop
  endfacet
  facet normal -1 0 0
    outer loop
      vertex 24.5 23.5 12.299998
      vertex 24.5 5 2
      vertex 24.5 5 12.299998
    endloop
  endfacet
  facet normal 0 0 1
    outer loop
      vertex 6 23.5 2
      vertex 24.5 5 2
      vertex 24.5 23.5 2
    endloop
  endfacet
  facet normal 0 0 1
    outer loop
      vertex 24.5 5 2
      vertex 6 23.5 2
      vertex 6 5 2
    endloop
  endfacet
  facet normal 1 0 0
    outer loop
      vertex 6 5 12.299998
      vertex 6 23.5 2
      vertex 6 23.5 12.299998
    endloop
  endfacet
  facet normal 1 0 0
    outer loop
      vertex 6 23.5 2
      vertex 6 5 12.299998
      vertex 6 5 2
    endloop
  endfacet
  facet normal 0 -1 0
    outer loop
      vertex 6 23.5 2
      vertex 24.5 23.5 12.299998
      vertex 6 23.5 12.299998
    endloop
  endfacet
  facet normal 0 -1 0
    outer loop
      vertex 24.5 23.5 12.299998
      vertex 6 23.5 2
      vertex 24.5 23.5 2
    endloop
  endfacet
  facet normal 0 1 0
    outer loop
      vertex 24.5 5 2
      vertex 6 5 12.299998
      vertex 24.5 5 12.299998
    endloop
  endfacet
  facet normal 0 1 0
    outer loop
      vertex 6 5 12.299998
      vertex 24.5 5 2
      vertex 6 5 2
    endloop
  endfacet
  facet normal -1 0 0
    outer loop
      vertex 48 5 2
      vertex 48 23.5 12.299998
      vertex 48 23.5 2
    endloop
  endfacet
  facet normal -1 0 0
    outer loop
      vertex 48 23.5 12.299998
      vertex 48 5 2
      vertex 48 5 12.299998
    endloop
  endfacet
  facet normal 0 0 1
    outer loop
      vertex 29.5 23.5 2
      vertex 48 5 2
      vertex 48 23.5 2
    endloop
  endfacet
  facet normal 0 0 1
    outer loop
      vertex 48 5 2
      vertex 29.5 23.5 2
      vertex 29.5 5 2
    endloop
  endfacet
  facet normal 1 0 0
    outer loop
      vertex 29.5 5 12.299998
      vertex 29.5 23.5 2
      vertex 29.5 23.5 12.299998
    endloop
  endfacet
  facet normal 1 0 0
    outer loop
      vertex 29.5 23.5 2
      vertex 29.5 5 12.299998
      vertex 29.5 5 2
    endloop
  endfacet
  facet normal 0 -1 0
    outer loop
      vertex 29.5 23.5 2
      vertex 48 23.5 12.299998
      vertex 29.5 23.5 12.299998
    endloop
  endfacet
  facet normal 0 -1 0
    outer loop
      vertex 48 23.5 12.299998
      vertex 29.5 23.5 2
      vertex 48 23.5 2
    endloop
  endfacet
  facet normal 0 1 0
    outer loop
      vertex 48 5 2
      vertex 29.5 5 12.299998
      vertex 48 5 12.299998
    endloop
  endfacet
  facet normal 0 1 0
    outer loop
      vertex 29.5 5 12.299998
      vertex 48 5 2
      vertex 29.5 5 2
    endloop
  endfacet
  facet normal -1 0 0
    outer loop
      vertex 48 30.416666 2
      vertex 48 48.916664 12.299998
      vertex 48 48.916664 2
    endloop
  endfacet
  facet normal -1 0 0
    outer loop
      vertex 48 48.916664 12.299998
      vertex 48 30.416666 2
      vertex 48 30.416666 12.299998
    endloop
  endfacet
  facet normal 0 0 1
    outer loop
      vertex 29.5 48.916664 2
      vertex 48 30.416666 2
      vertex 48 48.916664 2
    endloop
  endfacet
  facet normal 0 0 1
    outer loop
      vertex 48 30.416666 2
      vertex 29.5 48.916664 2
      vertex 29.5 30.416666 2
    endloop
  endfacet
  facet normal 1 0 0
    outer loop
      vertex 29.5 30.416666 12.299998
      vertex 29.5 48.916664 2
      vertex 29.5 48.916664 12.299998
    endloop
  endfacet
  facet normal 1 0 0
    outer loop
      vertex 29.5 48.916664 2
      vertex 29.5 30.416666 12.299998
      vertex 29.5 30.416666 2
    endloop
  endfacet
  facet normal 0 -1 0
    outer loop
      vertex 29.5 48.916664 2
      vertex 48 48.916664 12.299998
      vertex 29.5 48.916664 12.299998
    endloop
  endfacet
  facet normal 0 -1 0
    outer loop
      vertex 48 48.916664 12.299998
      vertex 29.5 48.916664 2
      vertex 48 48.916664 2
    endloop
  endfacet
  facet normal 0 1 0
    outer loop
      vertex 48 30.416666 2
      vertex 29.5 30.416666 12.299998
      vertex 48 30.416666 12.299998
    endloop
  endfacet
  facet normal 0 1 0
    outer loop
      vertex 29.5 30.416666 12.299998
      vertex 48 30.416666 2
      vertex 29.5 30.416666 2
    endloop
  endfacet
  facet normal -1 0 0
    outer loop
      vertex 21.5 37.666664 8
      vertex 21.5 56.166664 12.299998
      vertex 21.5 56.166664 8
    endloop
  endfacet
  facet normal -1 0 0
    outer loop
      vertex 21.5 56.166664 12.299998
      vertex 21.5 37.666664 8
      vertex 21.5 37.666664 12.299998
    endloop
  endfacet
  facet normal 0 0 1
    outer loop
      vertex 3 56.166664 8
      vertex 21.5 37.666664 8
      vertex 21.5 56.166664 8
    endloop
  endfacet
  facet normal 0 0 1
    outer loop
      vertex 21.5 37.666664 8
      vertex 3 56.166664 8
      vertex 3 37.666664 8
    endloop
  endfacet
  facet normal 1 0 0
    outer loop
      vertex 3 37.666664 12.299998
      vertex 3 56.166664 8
      vertex 3 56.166664 12.299998
    endloop
  endfacet
  facet normal 1 0 0
    outer loop
      vertex 3 56.166664 8
      vertex 3 37.666664 12.299998
      vertex 3 37.666664 8
    endloop
  endfacet
  facet normal 0 -1 0
    outer loop
      vertex 3 56.166664 8
      vertex 21.5 56.166664 12.299998
      vertex 3 56.166664 12.299998
    endloop
  endfacet
  facet normal 0 -1 0
    outer loop
      vertex 21.5 56.166664 12.299998
      vertex 3 56.166664 8
      vertex 21.5 56.166664 8
    endloop
  endfacet
  facet normal 0 1 0
    outer loop
      vertex 21.5 37.666664 8
      vertex 3 37.666664 12.299998
      vertex 21.5 37.666664 12.299998
    endloop
  endfacet
  facet normal 0 1 0
    outer loop
      vertex 3 37.666664 12.299998
      vertex 21.5 37.666664 8
      vertex 3 37.666664 8
    endloop
  endfacet
  facet normal -0.96592575 0.25881925 0
    outer loop
      vertex 0 56.166664 0
      vertex 0.40192413 57.666664 2.25
      vertex 0.40192413 57.666664 0
    endloop
  endfacet
  facet normal -0.96592575 0.25881925 0
    outer loop
      vertex 0.40192413 57.666664 2.25
      vertex 0 56.166664 0
      vertex 0 56.166664 2.25
    endloop
  endfacet
  facet normal 0.70710677 0.70710677 0
    outer loop
      vertex 52.848076 57.666664 2.25
      vertex 51.75 58.76474 0
      vertex 51.75 58.76474 2.25
    endloop
  endfacet
  facet normal 0.70710677 0.70710677 0
    outer loop
      vertex 51.75 58.76474 0
      vertex 52.848076 57.666664 2.25
      vertex 52.848076 57.666664 0
    endloop
  endfacet
  facet normal -0.25881925 0.96592575 0
    outer loop
      vertex 3 59.166664 0
      vertex 1.5 58.76474 2.25
      vertex 3 59.166664 2.25
    endloop
  endfacet
  facet normal -0.25881925 0.96592575 0
    outer loop
      vertex 1.5 58.76474 2.25
      vertex 3 59.166664 0
      vertex 1.5 58.76474 0
    endloop
  endfacet
  facet normal 0.96592575 -0.25881925 0
    outer loop
      vertex 52.848076 1.5 2.25
      vertex 53.25 3 0
      vertex 53.25 3 2.25
    endloop
  endfacet
  facet normal 0.96592575 -0.25881925 0
    outer loop
      vertex 53.25 3 0
      vertex 52.848076 1.5 2.25
      vertex 52.848076 1.5 0
    endloop
  endfacet
  facet normal 0 1 0
    outer loop
      vertex 50.25 59.166664 0
      vertex 42.7 59.166664 2.25
      vertex 50.25 59.166664 2.25
    endloop
  endfacet
  facet normal 0 1 0
    outer loop
      vertex 42.7 59.166664 2.25
      vertex 50.25 59.166664 0
      vertex 10.65 59.166664 2.25
    endloop
  endfacet
  facet normal 0 1 0
    outer loop
      vertex 3 59.166664 0
      vertex 10.65 59.166664 2.25
      vertex 50.25 59.166664 0
    endloop
  endfacet
  facet normal 0 1 0
    outer loop
      vertex 10.65 59.166664 2.25
      vertex 3 59.166664 0
      vertex 3 59.166664 2.25
    endloop
  endfacet
  facet normal 0 1 0
    outer loop
      vertex 41.36671 59.166664 6.844408
      vertex 40.424896 59.166664 7.25
      vertex 40.84805 59.166664 7.1216373
    endloop
  endfacet
  facet normal 0 1 0
    outer loop
      vertex 40.424896 59.166664 7.25
      vertex 42.7 59.166664 2.25
      vertex 12.925104 59.166664 7.25
    endloop
  endfacet
  facet normal 0 1 0
    outer loop
      vertex 40.424896 59.166664 7.25
      vertex 41.36671 59.166664 6.844408
      vertex 42.7 59.166664 4.3499994
    endloop
  endfacet
  facet normal 0 1 0
    outer loop
      vertex 10.65 59.166664 2.25
      vertex 12.925104 59.166664 7.25
      vertex 42.7 59.166664 2.25
    endloop
  endfacet
  facet normal 0 1 0
    outer loop
      vertex 42.7 59.166664 4.3499994
      vertex 41.36671 59.166664 6.844408
      vertex 41.82132 59.166664 6.471319
    endloop
  endfacet
  facet normal 0 1 0
    outer loop
      vertex 10.65 59.166664 4.3499994
      vertex 12.925104 59.166664 7.25
      vertex 10.65 59.166664 2.25
    endloop
  endfacet
  facet normal 0 1 0
    outer loop
      vertex 42.7 59.166664 4.3499994
      vertex 41.82132 59.166664 6.471319
      vertex 42.19441 59.166664 6.0167093
    endloop
  endfacet
  facet normal 0 1 0
    outer loop
      vertex 11.98329 59.166664 6.844408
      vertex 12.925104 59.166664 7.25
      vertex 10.65 59.166664 4.3499994
    endloop
  endfacet
  facet normal 0 1 0
    outer loop
      vertex 42.7 59.166664 4.3499994
      vertex 42.19441 59.166664 6.0167093
      vertex 42.471638 59.166664 5.498049
    endloop
  endfacet
  facet normal 0 1 0
    outer loop
      vertex 12.925104 59.166664 7.25
      vertex 11.98329 59.166664 6.844408
      vertex 12.50195 59.166664 7.1216373
    endloop
  endfacet
  facet normal 0 1 0
    outer loop
      vertex 42.7 59.166664 4.3499994
      vertex 42.471638 59.166664 5.498049
      vertex 42.642357 59.166664 4.9352703
    endloop
  endfacet
  facet normal 0 1 0
    outer loop
      vertex 11.98329 59.166664 6.844408
      vertex 10.65 59.166664 4.3499994
      vertex 11.52868 59.166664 6.471319
    endloop
  endfacet
  facet normal 0 1 0
    outer loop
      vertex 40.424896 59.166664 7.25
      vertex 42.7 59.166664 4.3499994
      vertex 42.7 59.166664 2.25
    endloop
  endfacet
  facet normal 0 1 0
    outer loop
      vertex 11.52868 59.166664 6.471319
      vertex 10.65 59.166664 4.3499994
      vertex 11.155591 59.166664 6.0167093
    endloop
  endfacet
  facet normal 0 1 0
    outer loop
      vertex 11.155591 59.166664 6.0167093
      vertex 10.65 59.166664 4.3499994
      vertex 10.878362 59.166664 5.498049
    endloop
  endfacet
  facet normal 0 1 0
    outer loop
      vertex 10.878362 59.166664 5.498049
      vertex 10.65 59.166664 4.3499994
      vertex 10.707644 59.166664 4.9352703
    endloop
  endfacet
  facet normal -0.96592575 -0.25881925 0
    outer loop
      vertex 0.40192413 1.5 0
      vertex 0 3 2.25
      vertex 0 3 0
    endloop
  endfacet
  facet normal -0.96592575 -0.25881925 0
    outer loop
      vertex 0 3 2.25
      vertex 0.40192413 1.5 0
      vertex 0.40192413 1.5 2.25
    endloop
  endfacet
  facet normal 0.96592575 0.25881925 0
    outer loop
      vertex 53.25 56.166664 2.25
      vertex 52.848076 57.666664 0
      vertex 52.848076 57.666664 2.25
    endloop
  endfacet
  facet normal 0.96592575 0.25881925 0
    outer loop
      vertex 52.848076 57.666664 0
      vertex 53.25 56.166664 2.25
      vertex 53.25 56.166664 0
    endloop
  endfacet
  facet normal 1 0 0
    outer loop
      vertex 53.25 46.34156 7.25
      vertex 53.25 48.616665 4.3499994
      vertex 53.25 48.55902 4.9352703
    endloop
  endfacet
  facet normal 1 0 0
    outer loop
      vertex 53.25 48.616665 2.25
      vertex 53.25 56.166664 0
      vertex 53.25 56.166664 2.25
    endloop
  endfacet
  facet normal 1 0 0
    outer loop
      vertex 53.25 46.34156 7.25
      vertex 53.25 48.55902 4.9352703
      vertex 53.25 48.388306 5.498049
    endloop
  endfacet
  facet normal 1 0 0
    outer loop
      vertex 53.25 46.34156 7.25
      vertex 53.25 48.388306 5.498049
      vertex 53.25 48.111076 6.0167093
    endloop
  endfacet
  facet normal 1 0 0
    outer loop
      vertex 53.25 46.34156 7.25
      vertex 53.25 48.111076 6.0167093
      vertex 53.25 47.737984 6.471319
    endloop
  endfacet
  facet normal 1 0 0
    outer loop
      vertex 53.25 46.34156 7.25
      vertex 53.25 47.737984 6.471319
      vertex 53.25 47.283375 6.844408
    endloop
  endfacet
  facet normal 1 0 0
    outer loop
      vertex 53.25 46.34156 7.25
      vertex 53.25 47.283375 6.844408
      vertex 53.25 46.764717 7.1216373
    endloop
  endfacet
  facet normal 1 0 0
    outer loop
      vertex 53.25 48.616665 4.3499994
      vertex 53.25 46.34156 7.25
      vertex 53.25 48.616665 2.25
    endloop
  endfacet
  facet normal 1 0 0
    outer loop
      vertex 53.25 12.925104 7.25
      vertex 53.25 48.616665 2.25
      vertex 53.25 46.34156 7.25
    endloop
  endfacet
  facet normal 1 0 0
    outer loop
      vertex 53.25 10.65 2.25
      vertex 53.25 48.616665 2.25
      vertex 53.25 12.925104 7.25
    endloop
  endfacet
  facet normal 1 0 0
    outer loop
      vertex 53.25 11.98329 6.844408
      vertex 53.25 12.925104 7.25
      vertex 53.25 12.50195 7.1216373
    endloop
  endfacet
  facet normal 1 0 0
    outer loop
      vertex 53.25 12.925104 7.25
      vertex 53.25 11.98329 6.844408
      vertex 53.25 10.65 4.3499994
    endloop
  endfacet
  facet normal 1 0 0
    outer loop
      vertex 53.25 10.65 4.3499994
      vertex 53.25 11.98329 6.844408
      vertex 53.25 11.52868 6.471319
    endloop
  endfacet
  facet normal 1 0 0
    outer loop
      vertex 53.25 10.65 4.3499994
      vertex 53.25 11.52868 6.471319
      vertex 53.25 11.155591 6.0167093
    endloop
  endfacet
  facet normal 1 0 0
    outer loop
      vertex 53.25 10.65 4.3499994
      vertex 53.25 11.155591 6.0167093
      vertex 53.25 10.878362 5.498049
    endloop
  endfacet
  facet normal 1 0 0
    outer loop
      vertex 53.25 10.65 4.3499994
      vertex 53.25 10.878362 5.498049
      vertex 53.25 10.707644 4.9352703
    endloop
  endfacet
  facet normal 1 0 0
    outer loop
      vertex 53.25 12.925104 7.25
      vertex 53.25 10.65 4.3499994
      vertex 53.25 10.65 2.25
    endloop
  endfacet
  facet normal 1 0 0
    outer loop
      vertex 53.25 48.616665 2.25
      vertex 53.25 10.65 2.25
      vertex 53.25 56.166664 0
    endloop
  endfacet
  facet normal 1 0 0
    outer loop
      vertex 53.25 3 0
      vertex 53.25 10.65 2.25
      vertex 53.25 3 2.25
    endloop
  endfacet
  facet normal 1 0 0
    outer loop
      vertex 53.25 10.65 2.25
      vertex 53.25 3 0
      vertex 53.25 56.166664 0
    endloop
  endfacet
  facet normal 0 0 -1
    outer loop
      vertex 50.25 0 0
      vertex 53.25 3 0
      vertex 52.848076 1.5 0
    endloop
  endfacet
  facet normal 0 0 -1
    outer loop
      vertex 0 3 0
      vertex 53.25 3 0
      vertex 50.25 0 0
    endloop
  endfacet
  facet normal 0 0 -1
    outer loop
      vertex 50.25 0 0
      vertex 52.848076 1.5 0
      vertex 51.75 0.40192413 0
    endloop
  endfacet
  facet normal 0 0 -1
    outer loop
      vertex 53.25 3 0
      vertex 0 3 0
      vertex 53.25 56.166664 0
    endloop
  endfacet
  facet normal 0 0 -1
    outer loop
      vertex 53.25 56.166664 0
      vertex 50.25 59.166664 0
      vertex 52.848076 57.666664 0
    endloop
  endfacet
  facet normal 0 0 -1
    outer loop
      vertex 52.848076 57.666664 0
      vertex 50.25 59.166664 0
      vertex 51.75 58.76474 0
    endloop
  endfacet
  facet normal 0 0 -1
    outer loop
      vertex 0 3 0
      vertex 50.25 0 0
      vertex 3 0 0
    endloop
  endfacet
  facet normal 0 0 -1
    outer loop
      vertex 0 56.166664 0
      vertex 53.25 56.166664 0
      vertex 0 3 0
    endloop
  endfacet
  facet normal 0 0 -1
    outer loop
      vertex 0 3 0
      vertex 3 0 0
      vertex 1.5 0.40192413 0
    endloop
  endfacet
  facet normal 0 0 -1
    outer loop
      vertex 53.25 56.166664 0
      vertex 0 56.166664 0
      vertex 50.25 59.166664 0
    endloop
  endfacet
  facet normal 0 0 -1
    outer loop
      vertex 0 3 0
      vertex 1.5 0.40192413 0
      vertex 0.40192413 1.5 0
    endloop
  endfacet
  facet normal 0 0 -1
    outer loop
      vertex 50.25 59.166664 0
      vertex 0 56.166664 0
      vertex 3 59.166664 0
    endloop
  endfacet
  facet normal 0 0 -1
    outer loop
      vertex 3 59.166664 0
      vertex 0 56.166664 0
      vertex 1.5 58.76474 0
    endloop
  endfacet
  facet normal 0 0 -1
    outer loop
      vertex 1.5 58.76474 0
      vertex 0 56.166664 0
      vertex 0.40192413 57.666664 0
    endloop
  endfacet
  facet normal -0.25881925 -0.96592575 0
    outer loop
      vertex 1.5 0.40192413 0
      vertex 3 0 2.25
      vertex 1.5 0.40192413 2.25
    endloop
  endfacet
  facet normal -0.25881925 -0.96592575 0
    outer loop
      vertex 3 0 2.25
      vertex 1.5 0.40192413 0
      vertex 3 0 0
    endloop
  endfacet
  facet normal 0.25881925 0.96592575 0
    outer loop
      vertex 51.75 58.76474 0
      vertex 50.25 59.166664 2.25
      vertex 51.75 58.76474 2.25
    endloop
  endfacet
  facet normal 0.25881925 0.96592575 0
    outer loop
      vertex 50.25 59.166664 2.25
      vertex 51.75 58.76474 0
      vertex 50.25 59.166664 0
    endloop
  endfacet
  facet normal -0.70710677 -0.70710677 0
    outer loop
      vertex 1.5 0.40192413 0
      vertex 0.40192413 1.5 2.25
      vertex 0.40192413 1.5 0
    endloop
  endfacet
  facet normal -0.70710677 -0.70710677 0
    outer loop
      vertex 0.40192413 1.5 2.25
      vertex 1.5 0.40192413 0
      vertex 1.5 0.40192413 2.25
    endloop
  endfacet
  facet normal -0.70710677 0.70710677 0
    outer loop
      vertex 0.40192413 57.666664 0
      vertex 1.5 58.76474 2.25
      vertex 1.5 58.76474 0
    endloop
  endfacet
  facet normal -0.70710677 0.70710677 0
    outer loop
      vertex 1.5 58.76474 2.25
      vertex 0.40192413 57.666664 0
      vertex 0.40192413 57.666664 2.25
    endloop
  endfacet
  facet normal 0.70710677 -0.70710677 0
    outer loop
      vertex 51.75 0.40192413 2.25
      vertex 52.848076 1.5 0
      vertex 52.848076 1.5 2.25
    endloop
  endfacet
  facet normal 0.70710677 -0.70710677 0
    outer loop
      vertex 52.848076 1.5 0
      vertex 51.75 0.40192413 2.25
      vertex 51.75 0.40192413 0
    endloop
  endfacet
  facet normal 0.25881925 -0.96592575 0
    outer loop
      vertex 50.25 0 0
      vertex 51.75 0.40192413 2.25
      vertex 50.25 0 2.25
    endloop
  endfacet
  facet normal 0.25881925 -0.96592575 0
    outer loop
      vertex 51.75 0.40192413 2.25
      vertex 50.25 0 0
      vertex 51.75 0.40192413 0
    endloop
  endfacet
  facet normal 0 0 1
    outer loop
      vertex 29.5 30.416666 12.299998
      vertex 48 23.5 12.299998
      vertex 48 30.416666 12.299998
    endloop
  endfacet
  facet normal 0 0 1
    outer loop
      vertex 48 23.5 12.299998
      vertex 29.5 30.416666 12.299998
      vertex 29.5 23.5 12.299998
    endloop
  endfacet
  facet normal 0 0 1
    outer loop
      vertex 50.05 57.466667 12.299998
      vertex 51.55 55.966667 12.299998
      vertex 51.110657 57.027325 12.299998
    endloop
  endfacet
  facet normal 0 0 1
    outer loop
      vertex 51.55 55.966667 12.299998
      vertex 48 30.416666 12.299998
      vertex 51.55 3.1999998 12.299998
    endloop
  endfacet
  facet normal 0 0 1
    outer loop
      vertex 51.55 55.966667 12.299998
      vertex 50.05 57.466667 12.299998
      vertex 48 48.916664 12.299998
    endloop
  endfacet
  facet normal 0 0 1
    outer loop
      vertex 48 23.5 12.299998
      vertex 51.55 3.1999998 12.299998
      vertex 48 30.416666 12.299998
    endloop
  endfacet
  facet normal 0 0 1
    outer loop
      vertex 51.55 55.966667 12.299998
      vertex 48 48.916664 12.299998
      vertex 48 30.416666 12.299998
    endloop
  endfacet
  facet normal 0 0 1
    outer loop
      vertex 50.05 57.466667 12.299998
      vertex 29.5 48.916664 12.299998
      vertex 48 48.916664 12.299998
    endloop
  endfacet
  facet normal 0 0 1
    outer loop
      vertex 21.5 37.666664 12.299998
      vertex 29.5 30.416666 12.299998
      vertex 29.5 48.916664 12.299998
    endloop
  endfacet
  facet normal 0 0 1
    outer loop
      vertex 24.5 23.5 12.299998
      vertex 29.5 30.416666 12.299998
      vertex 21.5 37.666664 12.299998
    endloop
  endfacet
  facet normal 0 0 1
    outer loop
      vertex 29.5 23.5 12.299998
      vertex 24.5 23.5 12.299998
      vertex 29.5 5 12.299998
    endloop
  endfacet
  facet normal 0 0 1
    outer loop
      vertex 21.5 37.666664 12.299998
      vertex 29.5 48.916664 12.299998
      vertex 21.5 56.166664 12.299998
    endloop
  endfacet
  facet normal 0 0 1
    outer loop
      vertex 50.05 57.466667 12.299998
      vertex 21.5 56.166664 12.299998
      vertex 29.5 48.916664 12.299998
    endloop
  endfacet
  facet normal 0 0 1
    outer loop
      vertex 3.1999998 57.466667 12.299998
      vertex 21.5 56.166664 12.299998
      vertex 50.05 57.466667 12.299998
    endloop
  endfacet
  facet normal 0 0 1
    outer loop
      vertex 3.1999998 57.466667 12.299998
      vertex 3 56.166664 12.299998
      vertex 21.5 56.166664 12.299998
    endloop
  endfacet
  facet normal 0 0 1
    outer loop
      vertex 1.6999998 55.966667 12.299998
      vertex 3 56.166664 12.299998
      vertex 2.1393404 57.027325 12.299998
    endloop
  endfacet
  facet normal 0 0 1
    outer loop
      vertex 2.1393404 57.027325 12.299998
      vertex 3 56.166664 12.299998
      vertex 3.1999998 57.466667 12.299998
    endloop
  endfacet
  facet normal 0 0 1
    outer loop
      vertex 48 5 12.299998
      vertex 51.55 3.1999998 12.299998
      vertex 48 23.5 12.299998
    endloop
  endfacet
  facet normal 0 0 1
    outer loop
      vertex 50.05 1.6999998 12.299998
      vertex 51.55 3.1999998 12.299998
      vertex 48 5 12.299998
    endloop
  endfacet
  facet normal 0 0 1
    outer loop
      vertex 51.55 3.1999998 12.299998
      vertex 50.05 1.6999998 12.299998
      vertex 51.110657 2.1393404 12.299998
    endloop
  endfacet
  facet normal 0 0 1
    outer loop
      vertex 29.5 5 12.299998
      vertex 50.05 1.6999998 12.299998
      vertex 48 5 12.299998
    endloop
  endfacet
  facet normal 0 0 1
    outer loop
      vertex 24.5 5 12.299998
      vertex 29.5 5 12.299998
      vertex 24.5 23.5 12.299998
    endloop
  endfacet
  facet normal 0 0 1
    outer loop
      vertex 24.5 5 12.299998
      vertex 50.05 1.6999998 12.299998
      vertex 29.5 5 12.299998
    endloop
  endfacet
  facet normal 0 0 1
    outer loop
      vertex 3.1999998 1.6999998 12.299998
      vertex 24.5 5 12.299998
      vertex 6 5 12.299998
    endloop
  endfacet
  facet normal 0 0 1
    outer loop
      vertex 24.5 5 12.299998
      vertex 3.1999998 1.6999998 12.299998
      vertex 50.05 1.6999998 12.299998
    endloop
  endfacet
  facet normal 0 0 1
    outer loop
      vertex 29.5 30.416666 12.299998
      vertex 24.5 23.5 12.299998
      vertex 29.5 23.5 12.299998
    endloop
  endfacet
  facet normal 0 0 1
    outer loop
      vertex 21.5 37.666664 12.299998
      vertex 6 23.5 12.299998
      vertex 24.5 23.5 12.299998
    endloop
  endfacet
  facet normal 0 0 1
    outer loop
      vertex 1.6999998 3.1999998 12.299998
      vertex 6 5 12.299998
      vertex 6 23.5 12.299998
    endloop
  endfacet
  facet normal 0 0 1
    outer loop
      vertex 3 37.666664 12.299998
      vertex 6 23.5 12.299998
      vertex 21.5 37.666664 12.299998
    endloop
  endfacet
  facet normal 0 0 1
    outer loop
      vertex 1.6999998 3.1999998 12.299998
      vertex 6 23.5 12.299998
      vertex 3 37.666664 12.299998
    endloop
  endfacet
  facet normal 0 0 1
    outer loop
      vertex 3 56.166664 12.299998
      vertex 1.6999998 55.966667 12.299998
      vertex 3 37.666664 12.299998
    endloop
  endfacet
  facet normal 0 0 1
    outer loop
      vertex 1.6999998 3.1999998 12.299998
      vertex 3 37.666664 12.299998
      vertex 1.6999998 55.966667 12.299998
    endloop
  endfacet
  facet normal 0 0 1
    outer loop
      vertex 6 5 12.299998
      vertex 1.6999998 3.1999998 12.299998
      vertex 3.1999998 1.6999998 12.299998
    endloop
  endfacet
  facet normal 0 0 1
    outer loop
      vertex 3.1999998 1.6999998 12.299998
      vertex 1.6999998 3.1999998 12.299998
      vertex 2.1393404 2.1393404 12.299998
    endloop
  endfacet
endsolid OpenSCAD_Model
