solid OpenSCAD_Model
  facet normal 1 0 0
    outer loop
      vertex 63 0 73
      vertex 63 284 0
      vertex 63 284 73
    endloop
  endfacet
  facet normal 1 0 0
    outer loop
      vertex 63 284 0
      vertex 63 0 73
      vertex 63 0 0
    endloop
  endfacet
  facet normal 0 0 1
    outer loop
      vertex 63 284 73
      vertex 60 281 73
      vertex 63 0 73
    endloop
  endfacet
  facet normal 0 0 1
    outer loop
      vertex 63 284 73
      vertex 3 281 73
      vertex 60 281 73
    endloop
  endfacet
  facet normal 0 0 1
    outer loop
      vertex 3 281 73
      vertex 0 284 73
      vertex 3 3 73
    endloop
  endfacet
  facet normal 0 0 1
    outer loop
      vertex 0 284 73
      vertex 3 281 73
      vertex 63 284 73
    endloop
  endfacet
  facet normal 0 0 1
    outer loop
      vertex 60 3 73
      vertex 63 0 73
      vertex 60 281 73
    endloop
  endfacet
  facet normal 0 0 1
    outer loop
      vertex 3 3 73
      vertex 63 0 73
      vertex 60 3 73
    endloop
  endfacet
  facet normal 0 0 1
    outer loop
      vertex 3 3 73
      vertex 0 0 73
      vertex 63 0 73
    endloop
  endfacet
  facet normal 0 0 1
    outer loop
      vertex 0 0 73
      vertex 3 3 73
      vertex 0 284 73
    endloop
  endfacet
  facet normal 0 0 -1
    outer loop
      vertex 0 0 0
      vertex 63 284 0
      vertex 63 0 0
    endloop
  endfacet
  facet normal 0 0 -1
    outer loop
      vertex 63 284 0
      vertex 0 0 0
      vertex 0 284 0
    endloop
  endfacet
  facet normal -1 0 0
    outer loop
      vertex 0 0 0
      vertex 0 284 73
      vertex 0 284 0
    endloop
  endfacet
  facet normal -1 0 0
    outer loop
      vertex 0 284 73
      vertex 0 0 0
      vertex 0 0 73
    endloop
  endfacet
  facet normal 0 1 0
    outer loop
      vertex 63 284 0
      vertex 0 284 73
      vertex 63 284 73
    endloop
  endfacet
  facet normal 0 1 0
    outer loop
      vertex 0 284 73
      vertex 63 284 0
      vertex 0 284 0
    endloop
  endfacet
  facet normal 0 -1 0
    outer loop
      vertex 0 0 0
      vertex 63 0 73
      vertex 0 0 73
    endloop
  endfacet
  facet normal 0 -1 0
    outer loop
      vertex 63 0 73
      vertex 0 0 0
      vertex 63 0 0
    endloop
  endfacet
  facet normal -1 0 0
    outer loop
      vertex 60 3 2
      vertex 60 281 73
      vertex 60 281 2
    endloop
  endfacet
  facet normal -1 0 0
    outer loop
      vertex 60 281 73
      vertex 60 3 2
      vertex 60 3 73
    endloop
  endfacet
  facet normal 0 0 1
    outer loop
      vertex 3 281 2
      vertex 60 3 2
      vertex 60 281 2
    endloop
  endfacet
  facet normal 0 0 1
    outer loop
      vertex 60 3 2
      vertex 3 281 2
      vertex 3 3 2
    endloop
  endfacet
  facet normal 1 0 0
    outer loop
      vertex 3 3 73
      vertex 3 281 2
      vertex 3 281 73
    endloop
  endfacet
  facet normal 1 0 0
    outer loop
      vertex 3 281 2
      vertex 3 3 73
      vertex 3 3 2
    endloop
  endfacet
  facet normal 0 -1 0
    outer loop
      vertex 3 281 2
      vertex 60 281 73
      vertex 3 281 73
    endloop
  endfacet
  facet normal 0 -1 0
    outer loop
      vertex 60 281 73
      vertex 3 281 2
      vertex 60 281 2
    endloop
  endfacet
  facet normal 0 1 0
    outer loop
      vertex 60 3 2
      vertex 3 3 73
      vertex 60 3 73
    endloop
  endfacet
  facet normal 0 1 0
    outer loop
      vertex 3 3 73
      vertex 60 3 2
      vertex 3 3 2
    endloop
  endfacet
endsolid OpenSCAD_Model
