solid OpenSCAD_Model
  facet normal 0 0 1
    outer loop
      vertex 0 35.824894 22.5
      vertex 1.6999998 11.7751045 22.5
      vertex 1.6999998 35.824894 22.5
    endloop
  endfacet
  facet normal 0 0 1
    outer loop
      vertex 1.6999998 11.7751045 22.5
      vertex 0 35.824894 22.5
      vertex 0 11.7751045 22.5
    endloop
  endfacet
  facet normal 0 0 1
    outer loop
      vertex 11.7751045 1.6999998 22.5
      vertex 215.32489 0 22.5
      vertex 215.32489 1.6999998 22.5
    endloop
  endfacet
  facet normal 0 0 1
    outer loop
      vertex 215.32489 0 22.5
      vertex 11.7751045 1.6999998 22.5
      vertex 11.7751045 0 22.5
    endloop
  endfacet
  facet normal 0 0 1
    outer loop
      vertex 11.7751045 47.5 22.5
      vertex 215.32489 46 22.5
      vertex 215.32489 47.5 22.5
    endloop
  endfacet
  facet normal 0 0 1
    outer loop
      vertex 215.32489 46 22.5
      vertex 11.7751045 47.5 22.5
      vertex 11.7751045 46 22.5
    endloop
  endfacet
  facet normal 0 0 1
    outer loop
      vertex 225.5 35.824894 22.5
      vertex 227 11.7751045 22.5
      vertex 227 35.824894 22.5
    endloop
  endfacet
  facet normal 0 0 1
    outer loop
      vertex 227 11.7751045 22.5
      vertex 225.5 35.824894 22.5
      vertex 225.5 11.7751045 22.5
    endloop
  endfacet
  facet normal 0 -1 0
    outer loop
      vertex 3.1999998 1.6999998 30.3
      vertex 11.7751045 1.6999998 22.5
      vertex 223.8 1.6999998 30.3
    endloop
  endfacet
  facet normal 0 -1 0
    outer loop
      vertex 3.1999998 1.6999998 30.3
      vertex 11.351951 1.6999998 22.371637
      vertex 11.7751045 1.6999998 22.5
    endloop
  endfacet
  facet normal 0 -1 0
    outer loop
      vertex 3.1999998 1.6999998 30.3
      vertex 10.83329 1.6999998 22.094408
      vertex 11.351951 1.6999998 22.371637
    endloop
  endfacet
  facet normal 0 -1 0
    outer loop
      vertex 3.1999998 1.6999998 30.3
      vertex 10.37868 1.6999998 21.72132
      vertex 10.83329 1.6999998 22.094408
    endloop
  endfacet
  facet normal 0 -1 0
    outer loop
      vertex 3.1999998 1.6999998 30.3
      vertex 10.005591 1.6999998 21.266708
      vertex 10.37868 1.6999998 21.72132
    endloop
  endfacet
  facet normal 0 -1 0
    outer loop
      vertex 3.1999998 1.6999998 30.3
      vertex 9.728362 1.6999998 20.748049
      vertex 10.005591 1.6999998 21.266708
    endloop
  endfacet
  facet normal 0 -1 0
    outer loop
      vertex 3.1999998 1.6999998 17.5
      vertex 9.728362 1.6999998 20.748049
      vertex 3.1999998 1.6999998 30.3
    endloop
  endfacet
  facet normal 0 -1 0
    outer loop
      vertex 9.728362 1.6999998 20.748049
      vertex 3.1999998 1.6999998 17.5
      vertex 9.557645 1.6999998 20.18527
    endloop
  endfacet
  facet normal 0 -1 0
    outer loop
      vertex 9.557645 1.6999998 20.18527
      vertex 3.1999998 1.6999998 17.5
      vertex 9.5 1.6999998 19.599998
    endloop
  endfacet
  facet normal 0 -1 0
    outer loop
      vertex 9.5 1.6999998 19.599998
      vertex 3.1999998 1.6999998 17.5
      vertex 9.5 1.6999998 17.5
    endloop
  endfacet
  facet normal 0 -1 0
    outer loop
      vertex 215.32489 1.6999998 22.5
      vertex 223.8 1.6999998 30.3
      vertex 11.7751045 1.6999998 22.5
    endloop
  endfacet
  facet normal 0 -1 0
    outer loop
      vertex 215.74805 1.6999998 22.371637
      vertex 223.8 1.6999998 30.3
      vertex 215.32489 1.6999998 22.5
    endloop
  endfacet
  facet normal 0 -1 0
    outer loop
      vertex 216.26671 1.6999998 22.094408
      vertex 223.8 1.6999998 30.3
      vertex 215.74805 1.6999998 22.371637
    endloop
  endfacet
  facet normal 0 -1 0
    outer loop
      vertex 216.72131 1.6999998 21.72132
      vertex 223.8 1.6999998 30.3
      vertex 216.26671 1.6999998 22.094408
    endloop
  endfacet
  facet normal 0 -1 0
    outer loop
      vertex 217.0944 1.6999998 21.266708
      vertex 223.8 1.6999998 30.3
      vertex 216.72131 1.6999998 21.72132
    endloop
  endfacet
  facet normal 0 -1 0
    outer loop
      vertex 217.37164 1.6999998 20.748049
      vertex 223.8 1.6999998 30.3
      vertex 217.0944 1.6999998 21.266708
    endloop
  endfacet
  facet normal 0 -1 0
    outer loop
      vertex 223.8 1.6999998 17.5
      vertex 217.37164 1.6999998 20.748049
      vertex 217.54236 1.6999998 20.18527
    endloop
  endfacet
  facet normal 0 -1 0
    outer loop
      vertex 223.8 1.6999998 17.5
      vertex 217.54236 1.6999998 20.18527
      vertex 217.6 1.6999998 19.599998
    endloop
  endfacet
  facet normal 0 -1 0
    outer loop
      vertex 223.8 1.6999998 17.5
      vertex 217.6 1.6999998 19.599998
      vertex 217.6 1.6999998 17.5
    endloop
  endfacet
  facet normal 0 -1 0
    outer loop
      vertex 217.37164 1.6999998 20.748049
      vertex 223.8 1.6999998 17.5
      vertex 223.8 1.6999998 30.3
    endloop
  endfacet
  facet normal 0 1 0
    outer loop
      vertex 223.8 45.8 17.5
      vertex 3.1999998 45.8 30.3
      vertex 223.8 45.8 30.3
    endloop
  endfacet
  facet normal 0 1 0
    outer loop
      vertex 3.1999998 45.8 30.3
      vertex 223.8 45.8 17.5
      vertex 3.1999998 45.8 17.5
    endloop
  endfacet
  facet normal 0.382686 -0.9238785 0
    outer loop
      vertex 223.8 1.6999998 17.5
      vertex 224.86066 2.1393404 30.3
      vertex 223.8 1.6999998 30.3
    endloop
  endfacet
  facet normal 0.382686 -0.9238785 0
    outer loop
      vertex 224.86066 2.1393404 30.3
      vertex 223.8 1.6999998 17.5
      vertex 224.86066 2.1393404 17.5
    endloop
  endfacet
  facet normal -0.38268423 -0.9238792 0
    outer loop
      vertex 2.1393404 2.1393404 17.5
      vertex 3.1999998 1.6999998 30.3
      vertex 2.1393404 2.1393404 30.3
    endloop
  endfacet
  facet normal -0.38268423 -0.9238792 0
    outer loop
      vertex 3.1999998 1.6999998 30.3
      vertex 2.1393404 2.1393404 17.5
      vertex 3.1999998 1.6999998 17.5
    endloop
  endfacet
  facet normal 0.38268742 0.9238779 0
    outer loop
      vertex 224.86066 45.360657 17.5
      vertex 223.8 45.8 30.3
      vertex 224.86066 45.360657 30.3
    endloop
  endfacet
  facet normal 0.38268742 0.9238779 0
    outer loop
      vertex 223.8 45.8 30.3
      vertex 224.86066 45.360657 17.5
      vertex 223.8 45.8 17.5
    endloop
  endfacet
  facet normal 0.9238774 -0.3826885 0
    outer loop
      vertex 224.86066 2.1393404 30.3
      vertex 225.3 3.1999998 17.5
      vertex 225.3 3.1999998 30.3
    endloop
  endfacet
  facet normal 0.9238774 -0.3826885 0
    outer loop
      vertex 225.3 3.1999998 17.5
      vertex 224.86066 2.1393404 30.3
      vertex 224.86066 2.1393404 17.5
    endloop
  endfacet
  facet normal 0.9238772 0.3826891 0
    outer loop
      vertex 225.3 44.3 30.3
      vertex 224.86066 45.360657 17.5
      vertex 224.86066 45.360657 30.3
    endloop
  endfacet
  facet normal 0.9238772 0.3826891 0
    outer loop
      vertex 224.86066 45.360657 17.5
      vertex 225.3 44.3 30.3
      vertex 225.3 44.3 17.5
    endloop
  endfacet
  facet normal -1 0 0
    outer loop
      vertex 1.6999998 9.5 17.5
      vertex 1.6999998 3.1999998 17.5
      vertex 1.6999998 9.5 19.599998
    endloop
  endfacet
  facet normal -1 0 0
    outer loop
      vertex 1.6999998 38.1 19.599998
      vertex 1.6999998 44.3 17.5
      vertex 1.6999998 38.1 17.5
    endloop
  endfacet
  facet normal -1 0 0
    outer loop
      vertex 1.6999998 38.042355 20.18527
      vertex 1.6999998 44.3 17.5
      vertex 1.6999998 38.1 19.599998
    endloop
  endfacet
  facet normal -1 0 0
    outer loop
      vertex 1.6999998 37.871635 20.748049
      vertex 1.6999998 44.3 17.5
      vertex 1.6999998 38.042355 20.18527
    endloop
  endfacet
  facet normal -1 0 0
    outer loop
      vertex 1.6999998 44.3 17.5
      vertex 1.6999998 37.871635 20.748049
      vertex 1.6999998 44.3 30.3
    endloop
  endfacet
  facet normal -1 0 0
    outer loop
      vertex 1.6999998 37.594406 21.266708
      vertex 1.6999998 44.3 30.3
      vertex 1.6999998 37.871635 20.748049
    endloop
  endfacet
  facet normal -1 0 0
    outer loop
      vertex 1.6999998 37.22132 21.72132
      vertex 1.6999998 44.3 30.3
      vertex 1.6999998 37.594406 21.266708
    endloop
  endfacet
  facet normal -1 0 0
    outer loop
      vertex 1.6999998 36.76671 22.094408
      vertex 1.6999998 44.3 30.3
      vertex 1.6999998 37.22132 21.72132
    endloop
  endfacet
  facet normal -1 0 0
    outer loop
      vertex 1.6999998 36.248047 22.371637
      vertex 1.6999998 44.3 30.3
      vertex 1.6999998 36.76671 22.094408
    endloop
  endfacet
  facet normal -1 0 0
    outer loop
      vertex 1.6999998 35.824894 22.5
      vertex 1.6999998 44.3 30.3
      vertex 1.6999998 36.248047 22.371637
    endloop
  endfacet
  facet normal -1 0 0
    outer loop
      vertex 1.6999998 11.7751045 22.5
      vertex 1.6999998 44.3 30.3
      vertex 1.6999998 35.824894 22.5
    endloop
  endfacet
  facet normal -1 0 0
    outer loop
      vertex 1.6999998 3.1999998 17.5
      vertex 1.6999998 9.557645 20.18527
      vertex 1.6999998 9.5 19.599998
    endloop
  endfacet
  facet normal -1 0 0
    outer loop
      vertex 1.6999998 3.1999998 17.5
      vertex 1.6999998 9.728362 20.748049
      vertex 1.6999998 9.557645 20.18527
    endloop
  endfacet
  facet normal -1 0 0
    outer loop
      vertex 1.6999998 3.1999998 30.3
      vertex 1.6999998 9.728362 20.748049
      vertex 1.6999998 3.1999998 17.5
    endloop
  endfacet
  facet normal -1 0 0
    outer loop
      vertex 1.6999998 9.728362 20.748049
      vertex 1.6999998 3.1999998 30.3
      vertex 1.6999998 10.005591 21.266708
    endloop
  endfacet
  facet normal -1 0 0
    outer loop
      vertex 1.6999998 10.005591 21.266708
      vertex 1.6999998 3.1999998 30.3
      vertex 1.6999998 10.37868 21.72132
    endloop
  endfacet
  facet normal -1 0 0
    outer loop
      vertex 1.6999998 11.7751045 22.5
      vertex 1.6999998 3.1999998 30.3
      vertex 1.6999998 44.3 30.3
    endloop
  endfacet
  facet normal -1 0 0
    outer loop
      vertex 1.6999998 11.351951 22.371637
      vertex 1.6999998 3.1999998 30.3
      vertex 1.6999998 11.7751045 22.5
    endloop
  endfacet
  facet normal -1 0 0
    outer loop
      vertex 1.6999998 10.83329 22.094408
      vertex 1.6999998 3.1999998 30.3
      vertex 1.6999998 11.351951 22.371637
    endloop
  endfacet
  facet normal -1 0 0
    outer loop
      vertex 1.6999998 10.37868 21.72132
      vertex 1.6999998 3.1999998 30.3
      vertex 1.6999998 10.83329 22.094408
    endloop
  endfacet
  facet normal 1 0 0
    outer loop
      vertex 225.3 3.1999998 30.3
      vertex 225.3 44.3 17.5
      vertex 225.3 44.3 30.3
    endloop
  endfacet
  facet normal 1 0 0
    outer loop
      vertex 225.3 44.3 17.5
      vertex 225.3 3.1999998 30.3
      vertex 225.3 3.1999998 17.5
    endloop
  endfacet
  facet normal -0.9238792 -0.38268423 0
    outer loop
      vertex 2.1393404 2.1393404 17.5
      vertex 1.6999998 3.1999998 30.3
      vertex 1.6999998 3.1999998 17.5
    endloop
  endfacet
  facet normal -0.9238792 -0.38268423 0
    outer loop
      vertex 1.6999998 3.1999998 30.3
      vertex 2.1393404 2.1393404 17.5
      vertex 2.1393404 2.1393404 30.3
    endloop
  endfacet
  facet normal -0.92387897 0.38268483 0
    outer loop
      vertex 1.6999998 44.3 17.5
      vertex 2.1393404 45.360657 30.3
      vertex 2.1393404 45.360657 17.5
    endloop
  endfacet
  facet normal -0.92387897 0.38268483 0
    outer loop
      vertex 2.1393404 45.360657 30.3
      vertex 1.6999998 44.3 17.5
      vertex 1.6999998 44.3 30.3
    endloop
  endfacet
  facet normal -0.38268566 0.9238786 0
    outer loop
      vertex 3.1999998 45.8 17.5
      vertex 2.1393404 45.360657 30.3
      vertex 3.1999998 45.8 30.3
    endloop
  endfacet
  facet normal -0.38268566 0.9238786 0
    outer loop
      vertex 2.1393404 45.360657 30.3
      vertex 3.1999998 45.8 17.5
      vertex 2.1393404 45.360657 17.5
    endloop
  endfacet
  facet normal 0 0 1
    outer loop
      vertex 0 9.5 17.5
      vertex 1.6999998 3.1999998 17.5
      vertex 1.6999998 9.5 17.5
    endloop
  endfacet
  facet normal 0 0 1
    outer loop
      vertex 0.40192413 1.5 17.5
      vertex 1.6999998 3.1999998 17.5
      vertex 0 3 17.5
    endloop
  endfacet
  facet normal 0 0 1
    outer loop
      vertex 1.6999998 3.1999998 17.5
      vertex 0 9.5 17.5
      vertex 0 3 17.5
    endloop
  endfacet
  facet normal 0 0 1
    outer loop
      vertex 1.6999998 3.1999998 17.5
      vertex 0.40192413 1.5 17.5
      vertex 1.5 0.40192413 17.5
    endloop
  endfacet
  facet normal 0 0 1
    outer loop
      vertex 3.1999998 1.6999998 17.5
      vertex 9.5 0 17.5
      vertex 9.5 1.6999998 17.5
    endloop
  endfacet
  facet normal 0 0 1
    outer loop
      vertex 3.1999998 1.6999998 17.5
      vertex 3 0 17.5
      vertex 9.5 0 17.5
    endloop
  endfacet
  facet normal 0 0 1
    outer loop
      vertex 1.5 0.40192413 17.5
      vertex 3.1999998 1.6999998 17.5
      vertex 2.1393404 2.1393404 17.5
    endloop
  endfacet
  facet normal 0 0 1
    outer loop
      vertex 1.5 0.40192413 17.5
      vertex 2.1393404 2.1393404 17.5
      vertex 1.6999998 3.1999998 17.5
    endloop
  endfacet
  facet normal 0 0 1
    outer loop
      vertex 3.1999998 1.6999998 17.5
      vertex 1.5 0.40192413 17.5
      vertex 3 0 17.5
    endloop
  endfacet
  facet normal 0 0 1
    outer loop
      vertex 9.5 47.5 17.5
      vertex 3.1999998 45.8 17.5
      vertex 9.5 46 17.5
    endloop
  endfacet
  facet normal 0 0 1
    outer loop
      vertex 3 47.5 17.5
      vertex 3.1999998 45.8 17.5
      vertex 9.5 47.5 17.5
    endloop
  endfacet
  facet normal 0 0 1
    outer loop
      vertex 1.5 47.098076 17.5
      vertex 3.1999998 45.8 17.5
      vertex 3 47.5 17.5
    endloop
  endfacet
  facet normal 0 0 1
    outer loop
      vertex 3.1999998 45.8 17.5
      vertex 1.5 47.098076 17.5
      vertex 2.1393404 45.360657 17.5
    endloop
  endfacet
  facet normal 0 0 1
    outer loop
      vertex 0.40192413 46 17.5
      vertex 2.1393404 45.360657 17.5
      vertex 1.5 47.098076 17.5
    endloop
  endfacet
  facet normal 0 0 1
    outer loop
      vertex 2.1393404 45.360657 17.5
      vertex 0.40192413 46 17.5
      vertex 1.6999998 44.3 17.5
    endloop
  endfacet
  facet normal 0 0 1
    outer loop
      vertex 1.6999998 44.3 17.5
      vertex 0.40192413 46 17.5
      vertex 0 44.5 17.5
    endloop
  endfacet
  facet normal 0 0 1
    outer loop
      vertex 0 38.1 17.5
      vertex 1.6999998 44.3 17.5
      vertex 0 44.5 17.5
    endloop
  endfacet
  facet normal 0 0 1
    outer loop
      vertex 1.6999998 44.3 17.5
      vertex 0 38.1 17.5
      vertex 1.6999998 38.1 17.5
    endloop
  endfacet
  facet normal 0 0 1
    outer loop
      vertex 225.3 44.3 17.5
      vertex 227 44.5 17.5
      vertex 226.59808 46 17.5
    endloop
  endfacet
  facet normal 0 0 1
    outer loop
      vertex 224.86066 45.360657 17.5
      vertex 226.59808 46 17.5
      vertex 225.5 47.098076 17.5
    endloop
  endfacet
  facet normal 0 0 1
    outer loop
      vertex 227 44.5 17.5
      vertex 225.3 44.3 17.5
      vertex 227 38.1 17.5
    endloop
  endfacet
  facet normal 0 0 1
    outer loop
      vertex 227 38.1 17.5
      vertex 225.3 44.3 17.5
      vertex 225.5 38.1 17.5
    endloop
  endfacet
  facet normal 0 0 1
    outer loop
      vertex 225.5 38.1 17.5
      vertex 225.3 44.3 17.5
      vertex 225.5 9.5 17.5
    endloop
  endfacet
  facet normal 0 0 1
    outer loop
      vertex 225.3 3.1999998 17.5
      vertex 225.5 9.5 17.5
      vertex 225.3 44.3 17.5
    endloop
  endfacet
  facet normal 0 0 1
    outer loop
      vertex 226.59808 46 17.5
      vertex 224.86066 45.360657 17.5
      vertex 225.3 44.3 17.5
    endloop
  endfacet
  facet normal 0 0 1
    outer loop
      vertex 223.8 45.8 17.5
      vertex 225.5 47.098076 17.5
      vertex 224 47.5 17.5
    endloop
  endfacet
  facet normal 0 0 1
    outer loop
      vertex 225.5 47.098076 17.5
      vertex 223.8 45.8 17.5
      vertex 224.86066 45.360657 17.5
    endloop
  endfacet
  facet normal 0 0 1
    outer loop
      vertex 217.6 47.5 17.5
      vertex 223.8 45.8 17.5
      vertex 224 47.5 17.5
    endloop
  endfacet
  facet normal 0 0 1
    outer loop
      vertex 217.6 46 17.5
      vertex 223.8 45.8 17.5
      vertex 217.6 47.5 17.5
    endloop
  endfacet
  facet normal 0 0 1
    outer loop
      vertex 9.5 46 17.5
      vertex 223.8 45.8 17.5
      vertex 217.6 46 17.5
    endloop
  endfacet
  facet normal 0 0 1
    outer loop
      vertex 223.8 45.8 17.5
      vertex 9.5 46 17.5
      vertex 3.1999998 45.8 17.5
    endloop
  endfacet
  facet normal 0 0 1
    outer loop
      vertex 225.5 9.5 17.5
      vertex 227 3 17.5
      vertex 227 9.5 17.5
    endloop
  endfacet
  facet normal 0 0 1
    outer loop
      vertex 225.5 0.40192413 17.5
      vertex 227 3 17.5
      vertex 225.5 9.5 17.5
    endloop
  endfacet
  facet normal 0 0 1
    outer loop
      vertex 227 3 17.5
      vertex 225.5 0.40192413 17.5
      vertex 226.59808 1.5 17.5
    endloop
  endfacet
  facet normal 0 0 1
    outer loop
      vertex 225.5 9.5 17.5
      vertex 225.3 3.1999998 17.5
      vertex 225.5 0.40192413 17.5
    endloop
  endfacet
  facet normal 0 0 1
    outer loop
      vertex 224.86066 2.1393404 17.5
      vertex 225.5 0.40192413 17.5
      vertex 225.3 3.1999998 17.5
    endloop
  endfacet
  facet normal 0 0 1
    outer loop
      vertex 223.8 1.6999998 17.5
      vertex 225.5 0.40192413 17.5
      vertex 224.86066 2.1393404 17.5
    endloop
  endfacet
  facet normal 0 0 1
    outer loop
      vertex 225.5 0.40192413 17.5
      vertex 223.8 1.6999998 17.5
      vertex 224 0 17.5
    endloop
  endfacet
  facet normal 0 0 1
    outer loop
      vertex 217.6 0 17.5
      vertex 223.8 1.6999998 17.5
      vertex 217.6 1.6999998 17.5
    endloop
  endfacet
  facet normal 0 0 1
    outer loop
      vertex 223.8 1.6999998 17.5
      vertex 217.6 0 17.5
      vertex 224 0 17.5
    endloop
  endfacet
  facet normal 0.9569411 0 0.2902821
    outer loop
      vertex 217.37164 0 20.748049
      vertex 217.54236 1.6999998 20.18527
      vertex 217.37164 1.6999998 20.748049
    endloop
  endfacet
  facet normal 0.9569411 0 0.2902821
    outer loop
      vertex 217.54236 1.6999998 20.18527
      vertex 217.37164 0 20.748049
      vertex 217.54236 0 20.18527
    endloop
  endfacet
  facet normal 0 -1 0
    outer loop
      vertex 0 0 0
      vertex 3 0 10
      vertex 0 0 10
    endloop
  endfacet
  facet normal 0 -1 0
    outer loop
      vertex 3 0 10
      vertex 0 0 0
      vertex 224 0 10
    endloop
  endfacet
  facet normal 0 -1 0
    outer loop
      vertex 227 0 0
      vertex 224 0 10
      vertex 0 0 0
    endloop
  endfacet
  facet normal 0 -1 0
    outer loop
      vertex 224 0 10
      vertex 227 0 0
      vertex 227 0 10
    endloop
  endfacet
  facet normal 0 -1 0
    outer loop
      vertex 3 0 10
      vertex 9.5 0 17.5
      vertex 3 0 17.5
    endloop
  endfacet
  facet normal 0 -1 0
    outer loop
      vertex 9.5 0 17.5
      vertex 3 0 10
      vertex 217.6 0 17.5
    endloop
  endfacet
  facet normal 0 -1 0
    outer loop
      vertex 224 0 10
      vertex 217.6 0 17.5
      vertex 3 0 10
    endloop
  endfacet
  facet normal 0 -1 0
    outer loop
      vertex 217.6 0 17.5
      vertex 224 0 10
      vertex 224 0 17.5
    endloop
  endfacet
  facet normal 0 -1 0
    outer loop
      vertex 10.83329 0 22.094408
      vertex 11.7751045 0 22.5
      vertex 11.351951 0 22.371637
    endloop
  endfacet
  facet normal 0 -1 0
    outer loop
      vertex 11.7751045 0 22.5
      vertex 9.5 0 17.5
      vertex 215.32489 0 22.5
    endloop
  endfacet
  facet normal 0 -1 0
    outer loop
      vertex 11.7751045 0 22.5
      vertex 10.83329 0 22.094408
      vertex 9.5 0 19.599998
    endloop
  endfacet
  facet normal 0 -1 0
    outer loop
      vertex 217.6 0 17.5
      vertex 215.32489 0 22.5
      vertex 9.5 0 17.5
    endloop
  endfacet
  facet normal 0 -1 0
    outer loop
      vertex 9.5 0 19.599998
      vertex 10.83329 0 22.094408
      vertex 10.37868 0 21.72132
    endloop
  endfacet
  facet normal 0 -1 0
    outer loop
      vertex 217.6 0 19.599998
      vertex 215.32489 0 22.5
      vertex 217.6 0 17.5
    endloop
  endfacet
  facet normal 0 -1 0
    outer loop
      vertex 9.5 0 19.599998
      vertex 10.37868 0 21.72132
      vertex 10.005591 0 21.266708
    endloop
  endfacet
  facet normal 0 -1 0
    outer loop
      vertex 216.26671 0 22.094408
      vertex 215.32489 0 22.5
      vertex 217.6 0 19.599998
    endloop
  endfacet
  facet normal 0 -1 0
    outer loop
      vertex 9.5 0 19.599998
      vertex 10.005591 0 21.266708
      vertex 9.728362 0 20.748049
    endloop
  endfacet
  facet normal 0 -1 0
    outer loop
      vertex 215.32489 0 22.5
      vertex 216.26671 0 22.094408
      vertex 215.74805 0 22.371637
    endloop
  endfacet
  facet normal 0 -1 0
    outer loop
      vertex 9.5 0 19.599998
      vertex 9.728362 0 20.748049
      vertex 9.557645 0 20.18527
    endloop
  endfacet
  facet normal 0 -1 0
    outer loop
      vertex 216.26671 0 22.094408
      vertex 217.6 0 19.599998
      vertex 216.72131 0 21.72132
    endloop
  endfacet
  facet normal 0 -1 0
    outer loop
      vertex 11.7751045 0 22.5
      vertex 9.5 0 19.599998
      vertex 9.5 0 17.5
    endloop
  endfacet
  facet normal 0 -1 0
    outer loop
      vertex 216.72131 0 21.72132
      vertex 217.6 0 19.599998
      vertex 217.0944 0 21.266708
    endloop
  endfacet
  facet normal 0 -1 0
    outer loop
      vertex 217.0944 0 21.266708
      vertex 217.6 0 19.599998
      vertex 217.37164 0 20.748049
    endloop
  endfacet
  facet normal 0 -1 0
    outer loop
      vertex 217.37164 0 20.748049
      vertex 217.6 0 19.599998
      vertex 217.54236 0 20.18527
    endloop
  endfacet
  facet normal -0.63439345 0 0.7730103
    outer loop
      vertex 10.37868 1.6999998 21.72132
      vertex 10.83329 0 22.094408
      vertex 10.83329 1.6999998 22.094408
    endloop
  endfacet
  facet normal -0.63439345 0 0.7730103
    outer loop
      vertex 10.83329 0 22.094408
      vertex 10.37868 1.6999998 21.72132
      vertex 10.37868 0 21.72132
    endloop
  endfacet
  facet normal -0.95694023 0 0.29028508
    outer loop
      vertex 9.557645 0 20.18527
      vertex 9.728362 1.6999998 20.748049
      vertex 9.557645 1.6999998 20.18527
    endloop
  endfacet
  facet normal -0.95694023 0 0.29028508
    outer loop
      vertex 9.728362 1.6999998 20.748049
      vertex 9.557645 0 20.18527
      vertex 9.728362 0 20.748049
    endloop
  endfacet
  facet normal 0.7730078 0 0.63439655
    outer loop
      vertex 216.72131 0 21.72132
      vertex 217.0944 1.6999998 21.266708
      vertex 216.72131 1.6999998 21.72132
    endloop
  endfacet
  facet normal 0.7730078 0 0.63439655
    outer loop
      vertex 217.0944 1.6999998 21.266708
      vertex 216.72131 0 21.72132
      vertex 217.0944 0 21.266708
    endloop
  endfacet
  facet normal 0.88191587 0 0.4714068
    outer loop
      vertex 217.0944 0 21.266708
      vertex 217.37164 1.6999998 20.748049
      vertex 217.0944 1.6999998 21.266708
    endloop
  endfacet
  facet normal 0.88191587 0 0.4714068
    outer loop
      vertex 217.37164 1.6999998 20.748049
      vertex 217.0944 0 21.266708
      vertex 217.37164 0 20.748049
    endloop
  endfacet
  facet normal -0.77301097 0 0.6343927
    outer loop
      vertex 10.005591 0 21.266708
      vertex 10.37868 1.6999998 21.72132
      vertex 10.005591 1.6999998 21.266708
    endloop
  endfacet
  facet normal -0.77301097 0 0.6343927
    outer loop
      vertex 10.37868 1.6999998 21.72132
      vertex 10.005591 0 21.266708
      vertex 10.37868 0 21.72132
    endloop
  endfacet
  facet normal 0.47139537 0 0.881922
    outer loop
      vertex 215.74805 1.6999998 22.371637
      vertex 216.26671 0 22.094408
      vertex 216.26671 1.6999998 22.094408
    endloop
  endfacet
  facet normal 0.47139537 0 0.881922
    outer loop
      vertex 216.26671 0 22.094408
      vertex 215.74805 1.6999998 22.371637
      vertex 215.74805 0 22.371637
    endloop
  endfacet
  facet normal -0.29028535 0 0.9569401
    outer loop
      vertex 11.351951 1.6999998 22.371637
      vertex 11.7751045 0 22.5
      vertex 11.7751045 1.6999998 22.5
    endloop
  endfacet
  facet normal -0.29028535 0 0.9569401
    outer loop
      vertex 11.7751045 0 22.5
      vertex 11.351951 1.6999998 22.371637
      vertex 11.351951 0 22.371637
    endloop
  endfacet
  facet normal -1 0 0
    outer loop
      vertex 9.5 0 17.5
      vertex 9.5 1.6999998 19.599998
      vertex 9.5 1.6999998 17.5
    endloop
  endfacet
  facet normal -1 0 0
    outer loop
      vertex 9.5 1.6999998 19.599998
      vertex 9.5 0 17.5
      vertex 9.5 0 19.599998
    endloop
  endfacet
  facet normal 0.63439745 0 0.77300704
    outer loop
      vertex 216.26671 1.6999998 22.094408
      vertex 216.72131 0 21.72132
      vertex 216.72131 1.6999998 21.72132
    endloop
  endfacet
  facet normal 0.63439745 0 0.77300704
    outer loop
      vertex 216.72131 0 21.72132
      vertex 216.26671 1.6999998 22.094408
      vertex 216.26671 0 22.094408
    endloop
  endfacet
  facet normal -0.8819213 0 0.4713967
    outer loop
      vertex 9.728362 0 20.748049
      vertex 10.005591 1.6999998 21.266708
      vertex 9.728362 1.6999998 20.748049
    endloop
  endfacet
  facet normal -0.8819213 0 0.4713967
    outer loop
      vertex 10.005591 1.6999998 21.266708
      vertex 9.728362 0 20.748049
      vertex 10.005591 0 21.266708
    endloop
  endfacet
  facet normal -0.9951846 0 0.09801815
    outer loop
      vertex 9.5 0 19.599998
      vertex 9.557645 1.6999998 20.18527
      vertex 9.5 1.6999998 19.599998
    endloop
  endfacet
  facet normal -0.9951846 0 0.09801815
    outer loop
      vertex 9.557645 1.6999998 20.18527
      vertex 9.5 0 19.599998
      vertex 9.557645 0 20.18527
    endloop
  endfacet
  facet normal 0.9951841 0 0.09802297
    outer loop
      vertex 217.54236 0 20.18527
      vertex 217.6 1.6999998 19.599998
      vertex 217.54236 1.6999998 20.18527
    endloop
  endfacet
  facet normal 0.9951841 0 0.09802297
    outer loop
      vertex 217.6 1.6999998 19.599998
      vertex 217.54236 0 20.18527
      vertex 217.6 0 19.599998
    endloop
  endfacet
  facet normal 1 0 0
    outer loop
      vertex 217.6 0 19.599998
      vertex 217.6 1.6999998 17.5
      vertex 217.6 1.6999998 19.599998
    endloop
  endfacet
  facet normal 1 0 0
    outer loop
      vertex 217.6 1.6999998 17.5
      vertex 217.6 0 19.599998
      vertex 217.6 0 17.5
    endloop
  endfacet
  facet normal 0.29028356 0 0.95694065
    outer loop
      vertex 215.32489 1.6999998 22.5
      vertex 215.74805 0 22.371637
      vertex 215.74805 1.6999998 22.371637
    endloop
  endfacet
  facet normal 0.29028356 0 0.95694065
    outer loop
      vertex 215.74805 0 22.371637
      vertex 215.32489 1.6999998 22.5
      vertex 215.32489 0 22.5
    endloop
  endfacet
  facet normal -0.47139603 0 0.88192165
    outer loop
      vertex 10.83329 1.6999998 22.094408
      vertex 11.351951 0 22.371637
      vertex 11.351951 1.6999998 22.371637
    endloop
  endfacet
  facet normal -0.47139603 0 0.88192165
    outer loop
      vertex 11.351951 0 22.371637
      vertex 10.83329 1.6999998 22.094408
      vertex 10.83329 0 22.094408
    endloop
  endfacet
  facet normal 0.9569411 0 0.2902821
    outer loop
      vertex 217.37164 46 20.748049
      vertex 217.54236 47.5 20.18527
      vertex 217.37164 47.5 20.748049
    endloop
  endfacet
  facet normal 0.9569411 0 0.2902821
    outer loop
      vertex 217.54236 47.5 20.18527
      vertex 217.37164 46 20.748049
      vertex 217.54236 46 20.18527
    endloop
  endfacet
  facet normal 0 -1 0
    outer loop
      vertex 10.83329 46 22.094408
      vertex 11.7751045 46 22.5
      vertex 11.351951 46 22.371637
    endloop
  endfacet
  facet normal 0 -1 0
    outer loop
      vertex 11.7751045 46 22.5
      vertex 9.5 46 17.5
      vertex 215.32489 46 22.5
    endloop
  endfacet
  facet normal 0 -1 0
    outer loop
      vertex 11.7751045 46 22.5
      vertex 10.83329 46 22.094408
      vertex 9.5 46 19.599998
    endloop
  endfacet
  facet normal 0 -1 0
    outer loop
      vertex 217.6 46 17.5
      vertex 215.32489 46 22.5
      vertex 9.5 46 17.5
    endloop
  endfacet
  facet normal 0 -1 0
    outer loop
      vertex 9.5 46 19.599998
      vertex 10.83329 46 22.094408
      vertex 10.37868 46 21.72132
    endloop
  endfacet
  facet normal 0 -1 0
    outer loop
      vertex 217.6 46 19.599998
      vertex 215.32489 46 22.5
      vertex 217.6 46 17.5
    endloop
  endfacet
  facet normal 0 -1 0
    outer loop
      vertex 9.5 46 19.599998
      vertex 10.37868 46 21.72132
      vertex 10.005591 46 21.266708
    endloop
  endfacet
  facet normal 0 -1 0
    outer loop
      vertex 216.26671 46 22.094408
      vertex 215.32489 46 22.5
      vertex 217.6 46 19.599998
    endloop
  endfacet
  facet normal 0 -1 0
    outer loop
      vertex 9.5 46 19.599998
      vertex 10.005591 46 21.266708
      vertex 9.728362 46 20.748049
    endloop
  endfacet
  facet normal 0 -1 0
    outer loop
      vertex 215.32489 46 22.5
      vertex 216.26671 46 22.094408
      vertex 215.74805 46 22.371637
    endloop
  endfacet
  facet normal 0 -1 0
    outer loop
      vertex 9.5 46 19.599998
      vertex 9.728362 46 20.748049
      vertex 9.557645 46 20.18527
    endloop
  endfacet
  facet normal 0 -1 0
    outer loop
      vertex 216.26671 46 22.094408
      vertex 217.6 46 19.599998
      vertex 216.72131 46 21.72132
    endloop
  endfacet
  facet normal 0 -1 0
    outer loop
      vertex 11.7751045 46 22.5
      vertex 9.5 46 19.599998
      vertex 9.5 46 17.5
    endloop
  endfacet
  facet normal 0 -1 0
    outer loop
      vertex 216.72131 46 21.72132
      vertex 217.6 46 19.599998
      vertex 217.0944 46 21.266708
    endloop
  endfacet
  facet normal 0 -1 0
    outer loop
      vertex 217.0944 46 21.266708
      vertex 217.6 46 19.599998
      vertex 217.37164 46 20.748049
    endloop
  endfacet
  facet normal 0 -1 0
    outer loop
      vertex 217.37164 46 20.748049
      vertex 217.6 46 19.599998
      vertex 217.54236 46 20.18527
    endloop
  endfacet
  facet normal -0.63439345 0 0.7730103
    outer loop
      vertex 10.37868 47.5 21.72132
      vertex 10.83329 46 22.094408
      vertex 10.83329 47.5 22.094408
    endloop
  endfacet
  facet normal -0.63439345 0 0.7730103
    outer loop
      vertex 10.83329 46 22.094408
      vertex 10.37868 47.5 21.72132
      vertex 10.37868 46 21.72132
    endloop
  endfacet
  facet normal -0.95694023 0 0.29028508
    outer loop
      vertex 9.557645 46 20.18527
      vertex 9.728362 47.5 20.748049
      vertex 9.557645 47.5 20.18527
    endloop
  endfacet
  facet normal -0.95694023 0 0.29028508
    outer loop
      vertex 9.728362 47.5 20.748049
      vertex 9.557645 46 20.18527
      vertex 9.728362 46 20.748049
    endloop
  endfacet
  facet normal 0.7730078 0 0.63439655
    outer loop
      vertex 216.72131 46 21.72132
      vertex 217.0944 47.5 21.266708
      vertex 216.72131 47.5 21.72132
    endloop
  endfacet
  facet normal 0.7730078 0 0.63439655
    outer loop
      vertex 217.0944 47.5 21.266708
      vertex 216.72131 46 21.72132
      vertex 217.0944 46 21.266708
    endloop
  endfacet
  facet normal 0.88191587 0 0.4714068
    outer loop
      vertex 217.0944 46 21.266708
      vertex 217.37164 47.5 20.748049
      vertex 217.0944 47.5 21.266708
    endloop
  endfacet
  facet normal 0.88191587 0 0.4714068
    outer loop
      vertex 217.37164 47.5 20.748049
      vertex 217.0944 46 21.266708
      vertex 217.37164 46 20.748049
    endloop
  endfacet
  facet normal -0.77301097 0 0.6343927
    outer loop
      vertex 10.005591 46 21.266708
      vertex 10.37868 47.5 21.72132
      vertex 10.005591 47.5 21.266708
    endloop
  endfacet
  facet normal -0.77301097 0 0.6343927
    outer loop
      vertex 10.37868 47.5 21.72132
      vertex 10.005591 46 21.266708
      vertex 10.37868 46 21.72132
    endloop
  endfacet
  facet normal 0.47139537 0 0.881922
    outer loop
      vertex 215.74805 47.5 22.371637
      vertex 216.26671 46 22.094408
      vertex 216.26671 47.5 22.094408
    endloop
  endfacet
  facet normal 0.47139537 0 0.881922
    outer loop
      vertex 216.26671 46 22.094408
      vertex 215.74805 47.5 22.371637
      vertex 215.74805 46 22.371637
    endloop
  endfacet
  facet normal -0.29028535 0 0.9569401
    outer loop
      vertex 11.351951 47.5 22.371637
      vertex 11.7751045 46 22.5
      vertex 11.7751045 47.5 22.5
    endloop
  endfacet
  facet normal -0.29028535 0 0.9569401
    outer loop
      vertex 11.7751045 46 22.5
      vertex 11.351951 47.5 22.371637
      vertex 11.351951 46 22.371637
    endloop
  endfacet
  facet normal -0.47139603 0 0.88192165
    outer loop
      vertex 10.83329 47.5 22.094408
      vertex 11.351951 46 22.371637
      vertex 11.351951 47.5 22.371637
    endloop
  endfacet
  facet normal -0.47139603 0 0.88192165
    outer loop
      vertex 11.351951 46 22.371637
      vertex 10.83329 47.5 22.094408
      vertex 10.83329 46 22.094408
    endloop
  endfacet
  facet normal -1 0 0
    outer loop
      vertex 9.5 46 17.5
      vertex 9.5 47.5 19.599998
      vertex 9.5 47.5 17.5
    endloop
  endfacet
  facet normal -1 0 0
    outer loop
      vertex 9.5 47.5 19.599998
      vertex 9.5 46 17.5
      vertex 9.5 46 19.599998
    endloop
  endfacet
  facet normal 0.63439745 0 0.77300704
    outer loop
      vertex 216.26671 47.5 22.094408
      vertex 216.72131 46 21.72132
      vertex 216.72131 47.5 21.72132
    endloop
  endfacet
  facet normal 0.63439745 0 0.77300704
    outer loop
      vertex 216.72131 46 21.72132
      vertex 216.26671 47.5 22.094408
      vertex 216.26671 46 22.094408
    endloop
  endfacet
  facet normal -0.8819213 0 0.4713967
    outer loop
      vertex 9.728362 46 20.748049
      vertex 10.005591 47.5 21.266708
      vertex 9.728362 47.5 20.748049
    endloop
  endfacet
  facet normal -0.8819213 0 0.4713967
    outer loop
      vertex 10.005591 47.5 21.266708
      vertex 9.728362 46 20.748049
      vertex 10.005591 46 21.266708
    endloop
  endfacet
  facet normal -0.9951846 0 0.09801815
    outer loop
      vertex 9.5 46 19.599998
      vertex 9.557645 47.5 20.18527
      vertex 9.5 47.5 19.599998
    endloop
  endfacet
  facet normal -0.9951846 0 0.09801815
    outer loop
      vertex 9.557645 47.5 20.18527
      vertex 9.5 46 19.599998
      vertex 9.557645 46 20.18527
    endloop
  endfacet
  facet normal 0.9951841 0 0.09802297
    outer loop
      vertex 217.54236 46 20.18527
      vertex 217.6 47.5 19.599998
      vertex 217.54236 47.5 20.18527
    endloop
  endfacet
  facet normal 0.9951841 0 0.09802297
    outer loop
      vertex 217.6 47.5 19.599998
      vertex 217.54236 46 20.18527
      vertex 217.6 46 19.599998
    endloop
  endfacet
  facet normal 1 0 0
    outer loop
      vertex 217.6 46 19.599998
      vertex 217.6 47.5 17.5
      vertex 217.6 47.5 19.599998
    endloop
  endfacet
  facet normal 1 0 0
    outer loop
      vertex 217.6 47.5 17.5
      vertex 217.6 46 19.599998
      vertex 217.6 46 17.5
    endloop
  endfacet
  facet normal 0.29028356 0 0.95694065
    outer loop
      vertex 215.32489 47.5 22.5
      vertex 215.74805 46 22.371637
      vertex 215.74805 47.5 22.371637
    endloop
  endfacet
  facet normal 0.29028356 0 0.95694065
    outer loop
      vertex 215.74805 46 22.371637
      vertex 215.32489 47.5 22.5
      vertex 215.32489 46 22.5
    endloop
  endfacet
  facet normal 0 -0.29028535 0.9569401
    outer loop
      vertex 0 11.7751045 22.5
      vertex 1.6999998 11.351951 22.371637
      vertex 1.6999998 11.7751045 22.5
    endloop
  endfacet
  facet normal 0 -0.29028535 0.9569401
    outer loop
      vertex 1.6999998 11.351951 22.371637
      vertex 0 11.7751045 22.5
      vertex 0 11.351951 22.371637
    endloop
  endfacet
  facet normal 0 -0.95694023 0.29028508
    outer loop
      vertex 0 9.557645 20.18527
      vertex 1.6999998 9.728362 20.748049
      vertex 0 9.728362 20.748049
    endloop
  endfacet
  facet normal 0 -0.95694023 0.29028508
    outer loop
      vertex 1.6999998 9.728362 20.748049
      vertex 0 9.557645 20.18527
      vertex 1.6999998 9.557645 20.18527
    endloop
  endfacet
  facet normal 0 0.47139537 0.881922
    outer loop
      vertex 0 36.76671 22.094408
      vertex 1.6999998 36.248047 22.371637
      vertex 1.6999998 36.76671 22.094408
    endloop
  endfacet
  facet normal 0 0.47139537 0.881922
    outer loop
      vertex 1.6999998 36.248047 22.371637
      vertex 0 36.76671 22.094408
      vertex 0 36.248047 22.371637
    endloop
  endfacet
  facet normal 0 -0.8819213 0.4713967
    outer loop
      vertex 0 9.728362 20.748049
      vertex 1.6999998 10.005591 21.266708
      vertex 0 10.005591 21.266708
    endloop
  endfacet
  facet normal 0 -0.8819213 0.4713967
    outer loop
      vertex 1.6999998 10.005591 21.266708
      vertex 0 9.728362 20.748049
      vertex 1.6999998 9.728362 20.748049
    endloop
  endfacet
  facet normal -1 0 0
    outer loop
      vertex 0 47.5 0
      vertex 0 44.5 10
      vertex 0 47.5 10
    endloop
  endfacet
  facet normal -1 0 0
    outer loop
      vertex 0 44.5 10
      vertex 0 38.1 17.5
      vertex 0 44.5 17.5
    endloop
  endfacet
  facet normal -1 0 0
    outer loop
      vertex 0 9.5 17.5
      vertex 0 44.5 10
      vertex 0 47.5 0
    endloop
  endfacet
  facet normal -1 0 0
    outer loop
      vertex 0 35.824894 22.5
      vertex 0 38.1 19.599998
      vertex 0 38.1 17.5
    endloop
  endfacet
  facet normal -1 0 0
    outer loop
      vertex 0 38.1 19.599998
      vertex 0 35.824894 22.5
      vertex 0 38.042355 20.18527
    endloop
  endfacet
  facet normal -1 0 0
    outer loop
      vertex 0 38.042355 20.18527
      vertex 0 35.824894 22.5
      vertex 0 37.871635 20.748049
    endloop
  endfacet
  facet normal -1 0 0
    outer loop
      vertex 0 37.871635 20.748049
      vertex 0 35.824894 22.5
      vertex 0 37.594406 21.266708
    endloop
  endfacet
  facet normal -1 0 0
    outer loop
      vertex 0 37.594406 21.266708
      vertex 0 35.824894 22.5
      vertex 0 37.22132 21.72132
    endloop
  endfacet
  facet normal -1 0 0
    outer loop
      vertex 0 37.22132 21.72132
      vertex 0 35.824894 22.5
      vertex 0 36.76671 22.094408
    endloop
  endfacet
  facet normal -1 0 0
    outer loop
      vertex 0 36.76671 22.094408
      vertex 0 35.824894 22.5
      vertex 0 36.248047 22.371637
    endloop
  endfacet
  facet normal -1 0 0
    outer loop
      vertex 0 38.1 17.5
      vertex 0 11.7751045 22.5
      vertex 0 35.824894 22.5
    endloop
  endfacet
  facet normal -1 0 0
    outer loop
      vertex 0 44.5 10
      vertex 0 9.5 17.5
      vertex 0 38.1 17.5
    endloop
  endfacet
  facet normal -1 0 0
    outer loop
      vertex 0 38.1 17.5
      vertex 0 9.5 17.5
      vertex 0 11.7751045 22.5
    endloop
  endfacet
  facet normal -1 0 0
    outer loop
      vertex 0 9.5 19.599998
      vertex 0 11.7751045 22.5
      vertex 0 9.5 17.5
    endloop
  endfacet
  facet normal -1 0 0
    outer loop
      vertex 0 10.83329 22.094408
      vertex 0 11.7751045 22.5
      vertex 0 9.5 19.599998
    endloop
  endfacet
  facet normal -1 0 0
    outer loop
      vertex 0 11.7751045 22.5
      vertex 0 10.83329 22.094408
      vertex 0 11.351951 22.371637
    endloop
  endfacet
  facet normal -1 0 0
    outer loop
      vertex 0 10.83329 22.094408
      vertex 0 9.5 19.599998
      vertex 0 10.37868 21.72132
    endloop
  endfacet
  facet normal -1 0 0
    outer loop
      vertex 0 10.37868 21.72132
      vertex 0 9.5 19.599998
      vertex 0 10.005591 21.266708
    endloop
  endfacet
  facet normal -1 0 0
    outer loop
      vertex 0 10.005591 21.266708
      vertex 0 9.5 19.599998
      vertex 0 9.728362 20.748049
    endloop
  endfacet
  facet normal -1 0 0
    outer loop
      vertex 0 47.5 0
      vertex 0 3 10
      vertex 0 9.5 17.5
    endloop
  endfacet
  facet normal -1 0 0
    outer loop
      vertex 0 0 0
      vertex 0 3 10
      vertex 0 47.5 0
    endloop
  endfacet
  facet normal -1 0 0
    outer loop
      vertex 0 3 10
      vertex 0 0 0
      vertex 0 0 10
    endloop
  endfacet
  facet normal -1 0 0
    outer loop
      vertex 0 9.728362 20.748049
      vertex 0 9.5 19.599998
      vertex 0 9.557645 20.18527
    endloop
  endfacet
  facet normal -1 0 0
    outer loop
      vertex 0 9.5 17.5
      vertex 0 3 10
      vertex 0 3 17.5
    endloop
  endfacet
  facet normal 0 -1 0
    outer loop
      vertex 0 9.5 17.5
      vertex 1.6999998 9.5 19.599998
      vertex 0 9.5 19.599998
    endloop
  endfacet
  facet normal 0 -1 0
    outer loop
      vertex 1.6999998 9.5 19.599998
      vertex 0 9.5 17.5
      vertex 1.6999998 9.5 17.5
    endloop
  endfacet
  facet normal 0 -0.9951846 0.09801815
    outer loop
      vertex 0 9.5 19.599998
      vertex 1.6999998 9.557645 20.18527
      vertex 0 9.557645 20.18527
    endloop
  endfacet
  facet normal 0 -0.9951846 0.09801815
    outer loop
      vertex 1.6999998 9.557645 20.18527
      vertex 0 9.5 19.599998
      vertex 1.6999998 9.5 19.599998
    endloop
  endfacet
  facet normal 0 0.7730141 0.63438874
    outer loop
      vertex 1.6999998 37.594406 21.266708
      vertex 0 37.22132 21.72132
      vertex 1.6999998 37.22132 21.72132
    endloop
  endfacet
  facet normal 0 0.7730141 0.63438874
    outer loop
      vertex 0 37.22132 21.72132
      vertex 1.6999998 37.594406 21.266708
      vertex 0 37.594406 21.266708
    endloop
  endfacet
  facet normal 0 0.9951848 0.098016545
    outer loop
      vertex 1.6999998 38.1 19.599998
      vertex 0 38.042355 20.18527
      vertex 1.6999998 38.042355 20.18527
    endloop
  endfacet
  facet normal 0 0.9951848 0.098016545
    outer loop
      vertex 0 38.042355 20.18527
      vertex 1.6999998 38.1 19.599998
      vertex 0 38.1 19.599998
    endloop
  endfacet
  facet normal 0 -0.77301097 0.6343927
    outer loop
      vertex 0 10.005591 21.266708
      vertex 1.6999998 10.37868 21.72132
      vertex 0 10.37868 21.72132
    endloop
  endfacet
  facet normal 0 -0.77301097 0.6343927
    outer loop
      vertex 1.6999998 10.37868 21.72132
      vertex 0 10.005591 21.266708
      vertex 1.6999998 10.005591 21.266708
    endloop
  endfacet
  facet normal 0 -0.63439345 0.7730103
    outer loop
      vertex 0 10.83329 22.094408
      vertex 1.6999998 10.37868 21.72132
      vertex 1.6999998 10.83329 22.094408
    endloop
  endfacet
  facet normal 0 -0.63439345 0.7730103
    outer loop
      vertex 1.6999998 10.37868 21.72132
      vertex 0 10.83329 22.094408
      vertex 0 10.37868 21.72132
    endloop
  endfacet
  facet normal 0 0.29028597 0.95693994
    outer loop
      vertex 0 36.248047 22.371637
      vertex 1.6999998 35.824894 22.5
      vertex 1.6999998 36.248047 22.371637
    endloop
  endfacet
  facet normal 0 0.29028597 0.95693994
    outer loop
      vertex 1.6999998 35.824894 22.5
      vertex 0 36.248047 22.371637
      vertex 0 35.824894 22.5
    endloop
  endfacet
  facet normal 0 0.8819213 0.4713967
    outer loop
      vertex 1.6999998 37.871635 20.748049
      vertex 0 37.594406 21.266708
      vertex 1.6999998 37.594406 21.266708
    endloop
  endfacet
  facet normal 0 0.8819213 0.4713967
    outer loop
      vertex 0 37.594406 21.266708
      vertex 1.6999998 37.871635 20.748049
      vertex 0 37.871635 20.748049
    endloop
  endfacet
  facet normal 0 1 0
    outer loop
      vertex 1.6999998 38.1 17.5
      vertex 0 38.1 19.599998
      vertex 1.6999998 38.1 19.599998
    endloop
  endfacet
  facet normal 0 1 0
    outer loop
      vertex 0 38.1 19.599998
      vertex 1.6999998 38.1 17.5
      vertex 0 38.1 17.5
    endloop
  endfacet
  facet normal 0 -0.47139603 0.88192165
    outer loop
      vertex 0 11.351951 22.371637
      vertex 1.6999998 10.83329 22.094408
      vertex 1.6999998 11.351951 22.371637
    endloop
  endfacet
  facet normal 0 -0.47139603 0.88192165
    outer loop
      vertex 1.6999998 10.83329 22.094408
      vertex 0 11.351951 22.371637
      vertex 0 10.83329 22.094408
    endloop
  endfacet
  facet normal 0 0.95693934 0.29028803
    outer loop
      vertex 1.6999998 38.042355 20.18527
      vertex 0 37.871635 20.748049
      vertex 1.6999998 37.871635 20.748049
    endloop
  endfacet
  facet normal 0 0.95693934 0.29028803
    outer loop
      vertex 0 37.871635 20.748049
      vertex 1.6999998 38.042355 20.18527
      vertex 0 38.042355 20.18527
    endloop
  endfacet
  facet normal 0 0.63439107 0.7730123
    outer loop
      vertex 0 37.22132 21.72132
      vertex 1.6999998 36.76671 22.094408
      vertex 1.6999998 37.22132 21.72132
    endloop
  endfacet
  facet normal 0 0.63439107 0.7730123
    outer loop
      vertex 1.6999998 36.76671 22.094408
      vertex 0 37.22132 21.72132
      vertex 0 36.76671 22.094408
    endloop
  endfacet
  facet normal 0 -0.29028535 0.9569401
    outer loop
      vertex 225.5 11.7751045 22.5
      vertex 227 11.351951 22.371637
      vertex 227 11.7751045 22.5
    endloop
  endfacet
  facet normal 0 -0.29028535 0.9569401
    outer loop
      vertex 227 11.351951 22.371637
      vertex 225.5 11.7751045 22.5
      vertex 225.5 11.351951 22.371637
    endloop
  endfacet
  facet normal 0 -0.95694023 0.29028508
    outer loop
      vertex 225.5 9.557645 20.18527
      vertex 227 9.728362 20.748049
      vertex 225.5 9.728362 20.748049
    endloop
  endfacet
  facet normal 0 -0.95694023 0.29028508
    outer loop
      vertex 227 9.728362 20.748049
      vertex 225.5 9.557645 20.18527
      vertex 227 9.557645 20.18527
    endloop
  endfacet
  facet normal 0 0.47139537 0.881922
    outer loop
      vertex 225.5 36.76671 22.094408
      vertex 227 36.248047 22.371637
      vertex 227 36.76671 22.094408
    endloop
  endfacet
  facet normal 0 0.47139537 0.881922
    outer loop
      vertex 227 36.248047 22.371637
      vertex 225.5 36.76671 22.094408
      vertex 225.5 36.248047 22.371637
    endloop
  endfacet
  facet normal 0 -0.8819213 0.4713967
    outer loop
      vertex 225.5 9.728362 20.748049
      vertex 227 10.005591 21.266708
      vertex 225.5 10.005591 21.266708
    endloop
  endfacet
  facet normal 0 -0.8819213 0.4713967
    outer loop
      vertex 227 10.005591 21.266708
      vertex 225.5 9.728362 20.748049
      vertex 227 9.728362 20.748049
    endloop
  endfacet
  facet normal 0 -1 0
    outer loop
      vertex 225.5 9.5 17.5
      vertex 227 9.5 19.599998
      vertex 225.5 9.5 19.599998
    endloop
  endfacet
  facet normal 0 -1 0
    outer loop
      vertex 227 9.5 19.599998
      vertex 225.5 9.5 17.5
      vertex 227 9.5 17.5
    endloop
  endfacet
  facet normal 0 -0.9951846 0.09801815
    outer loop
      vertex 225.5 9.5 19.599998
      vertex 227 9.557645 20.18527
      vertex 225.5 9.557645 20.18527
    endloop
  endfacet
  facet normal 0 -0.9951846 0.09801815
    outer loop
      vertex 227 9.557645 20.18527
      vertex 225.5 9.5 19.599998
      vertex 227 9.5 19.599998
    endloop
  endfacet
  facet normal 0 0.7730141 0.63438874
    outer loop
      vertex 227 37.594406 21.266708
      vertex 225.5 37.22132 21.72132
      vertex 227 37.22132 21.72132
    endloop
  endfacet
  facet normal 0 0.7730141 0.63438874
    outer loop
      vertex 225.5 37.22132 21.72132
      vertex 227 37.594406 21.266708
      vertex 225.5 37.594406 21.266708
    endloop
  endfacet
  facet normal 0 0.9951848 0.098016545
    outer loop
      vertex 227 38.1 19.599998
      vertex 225.5 38.042355 20.18527
      vertex 227 38.042355 20.18527
    endloop
  endfacet
  facet normal 0 0.9951848 0.098016545
    outer loop
      vertex 225.5 38.042355 20.18527
      vertex 227 38.1 19.599998
      vertex 225.5 38.1 19.599998
    endloop
  endfacet
  facet normal 0 -0.77301097 0.6343927
    outer loop
      vertex 225.5 10.005591 21.266708
      vertex 227 10.37868 21.72132
      vertex 225.5 10.37868 21.72132
    endloop
  endfacet
  facet normal 0 -0.77301097 0.6343927
    outer loop
      vertex 227 10.37868 21.72132
      vertex 225.5 10.005591 21.266708
      vertex 227 10.005591 21.266708
    endloop
  endfacet
  facet normal 0 -0.63439345 0.7730103
    outer loop
      vertex 225.5 10.83329 22.094408
      vertex 227 10.37868 21.72132
      vertex 227 10.83329 22.094408
    endloop
  endfacet
  facet normal 0 -0.63439345 0.7730103
    outer loop
      vertex 227 10.37868 21.72132
      vertex 225.5 10.83329 22.094408
      vertex 225.5 10.37868 21.72132
    endloop
  endfacet
  facet normal 0 0.29028597 0.95693994
    outer loop
      vertex 225.5 36.248047 22.371637
      vertex 227 35.824894 22.5
      vertex 227 36.248047 22.371637
    endloop
  endfacet
  facet normal 0 0.29028597 0.95693994
    outer loop
      vertex 227 35.824894 22.5
      vertex 225.5 36.248047 22.371637
      vertex 225.5 35.824894 22.5
    endloop
  endfacet
  facet normal 0 0.8819213 0.4713967
    outer loop
      vertex 227 37.871635 20.748049
      vertex 225.5 37.594406 21.266708
      vertex 227 37.594406 21.266708
    endloop
  endfacet
  facet normal 0 0.8819213 0.4713967
    outer loop
      vertex 225.5 37.594406 21.266708
      vertex 227 37.871635 20.748049
      vertex 225.5 37.871635 20.748049
    endloop
  endfacet
  facet normal 0 1 0
    outer loop
      vertex 227 38.1 17.5
      vertex 225.5 38.1 19.599998
      vertex 227 38.1 19.599998
    endloop
  endfacet
  facet normal 0 1 0
    outer loop
      vertex 225.5 38.1 19.599998
      vertex 227 38.1 17.5
      vertex 225.5 38.1 17.5
    endloop
  endfacet
  facet normal -1 0 0
    outer loop
      vertex 225.5 35.824894 22.5
      vertex 225.5 38.1 19.599998
      vertex 225.5 38.1 17.5
    endloop
  endfacet
  facet normal -1 0 0
    outer loop
      vertex 225.5 38.1 19.599998
      vertex 225.5 35.824894 22.5
      vertex 225.5 38.042355 20.18527
    endloop
  endfacet
  facet normal -1 0 0
    outer loop
      vertex 225.5 38.042355 20.18527
      vertex 225.5 35.824894 22.5
      vertex 225.5 37.871635 20.748049
    endloop
  endfacet
  facet normal -1 0 0
    outer loop
      vertex 225.5 37.871635 20.748049
      vertex 225.5 35.824894 22.5
      vertex 225.5 37.594406 21.266708
    endloop
  endfacet
  facet normal -1 0 0
    outer loop
      vertex 225.5 37.594406 21.266708
      vertex 225.5 35.824894 22.5
      vertex 225.5 37.22132 21.72132
    endloop
  endfacet
  facet normal -1 0 0
    outer loop
      vertex 225.5 37.22132 21.72132
      vertex 225.5 35.824894 22.5
      vertex 225.5 36.76671 22.094408
    endloop
  endfacet
  facet normal -1 0 0
    outer loop
      vertex 225.5 36.76671 22.094408
      vertex 225.5 35.824894 22.5
      vertex 225.5 36.248047 22.371637
    endloop
  endfacet
  facet normal -1 0 0
    outer loop
      vertex 225.5 38.1 17.5
      vertex 225.5 11.7751045 22.5
      vertex 225.5 35.824894 22.5
    endloop
  endfacet
  facet normal -1 0 0
    outer loop
      vertex 225.5 9.5 17.5
      vertex 225.5 11.7751045 22.5
      vertex 225.5 38.1 17.5
    endloop
  endfacet
  facet normal -1 0 0
    outer loop
      vertex 225.5 9.5 19.599998
      vertex 225.5 11.7751045 22.5
      vertex 225.5 9.5 17.5
    endloop
  endfacet
  facet normal -1 0 0
    outer loop
      vertex 225.5 10.83329 22.094408
      vertex 225.5 11.7751045 22.5
      vertex 225.5 9.5 19.599998
    endloop
  endfacet
  facet normal -1 0 0
    outer loop
      vertex 225.5 11.7751045 22.5
      vertex 225.5 10.83329 22.094408
      vertex 225.5 11.351951 22.371637
    endloop
  endfacet
  facet normal -1 0 0
    outer loop
      vertex 225.5 10.83329 22.094408
      vertex 225.5 9.5 19.599998
      vertex 225.5 10.37868 21.72132
    endloop
  endfacet
  facet normal -1 0 0
    outer loop
      vertex 225.5 10.37868 21.72132
      vertex 225.5 9.5 19.599998
      vertex 225.5 10.005591 21.266708
    endloop
  endfacet
  facet normal -1 0 0
    outer loop
      vertex 225.5 10.005591 21.266708
      vertex 225.5 9.5 19.599998
      vertex 225.5 9.728362 20.748049
    endloop
  endfacet
  facet normal -1 0 0
    outer loop
      vertex 225.5 9.728362 20.748049
      vertex 225.5 9.5 19.599998
      vertex 225.5 9.557645 20.18527
    endloop
  endfacet
  facet normal 0 -0.47139603 0.88192165
    outer loop
      vertex 225.5 11.351951 22.371637
      vertex 227 10.83329 22.094408
      vertex 227 11.351951 22.371637
    endloop
  endfacet
  facet normal 0 -0.47139603 0.88192165
    outer loop
      vertex 227 10.83329 22.094408
      vertex 225.5 11.351951 22.371637
      vertex 225.5 10.83329 22.094408
    endloop
  endfacet
  facet normal 0 0.95693934 0.29028803
    outer loop
      vertex 227 38.042355 20.18527
      vertex 225.5 37.871635 20.748049
      vertex 227 37.871635 20.748049
    endloop
  endfacet
  facet normal 0 0.95693934 0.29028803
    outer loop
      vertex 225.5 37.871635 20.748049
      vertex 227 38.042355 20.18527
      vertex 225.5 38.042355 20.18527
    endloop
  endfacet
  facet normal 0 0.63439107 0.7730123
    outer loop
      vertex 225.5 37.22132 21.72132
      vertex 227 36.76671 22.094408
      vertex 227 37.22132 21.72132
    endloop
  endfacet
  facet normal 0 0.63439107 0.7730123
    outer loop
      vertex 227 36.76671 22.094408
      vertex 225.5 37.22132 21.72132
      vertex 225.5 36.76671 22.094408
    endloop
  endfacet
  facet normal 0 0 1
    outer loop
      vertex 3 34.5 12
      vertex 112.5 13 12
      vertex 112.5 34.5 12
    endloop
  endfacet
  facet normal 0 0 1
    outer loop
      vertex 112.5 13 12
      vertex 3 34.5 12
      vertex 3 13 12
    endloop
  endfacet
  facet normal 0 -0.3090166 0.95105666
    outer loop
      vertex 3 38.567368 12.864546
      vertex 112.5 36.579117 12.218525
      vertex 112.5 38.567368 12.864546
    endloop
  endfacet
  facet normal 0 -0.3090166 0.95105666
    outer loop
      vertex 112.5 36.579117 12.218525
      vertex 3 38.567368 12.864546
      vertex 3 36.579117 12.218525
    endloop
  endfacet
  facet normal 0 -0.6691307 0.7431448
    outer loop
      vertex 3 41.93145 15.308695
      vertex 112.5 40.377853 13.90983
      vertex 112.5 41.93145 15.308695
    endloop
  endfacet
  facet normal 0 -0.6691307 0.7431448
    outer loop
      vertex 112.5 40.377853 13.90983
      vertex 3 41.93145 15.308695
      vertex 3 40.377853 13.90983
    endloop
  endfacet
  facet normal 1 0 0
    outer loop
      vertex 3 34.5 12
      vertex 3 44.445217 20.954716
      vertex 3 44.472824 30.3
    endloop
  endfacet
  facet normal 1 0 0
    outer loop
      vertex 3 44.445217 20.954716
      vertex 3 34.5 12
      vertex 3 44.010567 18.90983
    endloop
  endfacet
  facet normal 1 0 0
    outer loop
      vertex 3 44.010567 18.90983
      vertex 3 34.5 12
      vertex 3 43.160255 17
    endloop
  endfacet
  facet normal 1 0 0
    outer loop
      vertex 3 43.160255 17
      vertex 3 34.5 12
      vertex 3 41.93145 15.308695
    endloop
  endfacet
  facet normal 1 0 0
    outer loop
      vertex 3 41.93145 15.308695
      vertex 3 34.5 12
      vertex 3 40.377853 13.90983
    endloop
  endfacet
  facet normal 1 0 0
    outer loop
      vertex 3 40.377853 13.90983
      vertex 3 34.5 12
      vertex 3 38.567368 12.864546
    endloop
  endfacet
  facet normal 1 0 0
    outer loop
      vertex 3 38.567368 12.864546
      vertex 3 34.5 12
      vertex 3 36.579117 12.218525
    endloop
  endfacet
  facet normal 1 0 0
    outer loop
      vertex 3 44.472824 30.3
      vertex 3 13 12
      vertex 3 34.5 12
    endloop
  endfacet
  facet normal 1 0 0
    outer loop
      vertex 3 3.0271764 30.3
      vertex 3 13 12
      vertex 3 44.472824 30.3
    endloop
  endfacet
  facet normal 1 0 0
    outer loop
      vertex 3 3.054782 20.954716
      vertex 3 13 12
      vertex 3 3.0271764 30.3
    endloop
  endfacet
  facet normal 1 0 0
    outer loop
      vertex 3 13 12
      vertex 3 3.054782 20.954716
      vertex 3 10.920883 12.218525
    endloop
  endfacet
  facet normal 1 0 0
    outer loop
      vertex 3 10.920883 12.218525
      vertex 3 3.054782 20.954716
      vertex 3 8.932634 12.864546
    endloop
  endfacet
  facet normal 1 0 0
    outer loop
      vertex 3 8.932634 12.864546
      vertex 3 3.054782 20.954716
      vertex 3 7.1221476 13.90983
    endloop
  endfacet
  facet normal 1 0 0
    outer loop
      vertex 3 5.568552 15.308695
      vertex 3 3.054782 20.954716
      vertex 3 4.3397465 17
    endloop
  endfacet
  facet normal 1 0 0
    outer loop
      vertex 3 4.3397465 17
      vertex 3 3.054782 20.954716
      vertex 3 3.4894352 18.90983
    endloop
  endfacet
  facet normal 1 0 0
    outer loop
      vertex 3 7.1221476 13.90983
      vertex 3 3.054782 20.954716
      vertex 3 5.568552 15.308695
    endloop
  endfacet
  facet normal 0 0.30901685 0.95105654
    outer loop
      vertex 3 10.920883 12.218525
      vertex 112.5 8.932634 12.864546
      vertex 112.5 10.920883 12.218525
    endloop
  endfacet
  facet normal 0 0.30901685 0.95105654
    outer loop
      vertex 112.5 8.932634 12.864546
      vertex 3 10.920883 12.218525
      vertex 3 8.932634 12.864546
    endloop
  endfacet
  facet normal 0 0.10452891 0.99452186
    outer loop
      vertex 3 13 12
      vertex 112.5 10.920883 12.218525
      vertex 112.5 13 12
    endloop
  endfacet
  facet normal 0 0.10452891 0.99452186
    outer loop
      vertex 112.5 10.920883 12.218525
      vertex 3 13 12
      vertex 3 10.920883 12.218525
    endloop
  endfacet
  facet normal 0 -0.8090169 0.58778536
    outer loop
      vertex 3 41.93145 15.308695
      vertex 112.5 43.160255 17
      vertex 3 43.160255 17
    endloop
  endfacet
  facet normal 0 -0.8090169 0.58778536
    outer loop
      vertex 112.5 43.160255 17
      vertex 3 41.93145 15.308695
      vertex 112.5 41.93145 15.308695
    endloop
  endfacet
  facet normal 0 0.8090169 0.58778536
    outer loop
      vertex 112.5 5.568552 15.308695
      vertex 3 4.3397465 17
      vertex 112.5 4.3397465 17
    endloop
  endfacet
  facet normal 0 0.8090169 0.58778536
    outer loop
      vertex 3 4.3397465 17
      vertex 112.5 5.568552 15.308695
      vertex 3 5.568552 15.308695
    endloop
  endfacet
  facet normal 0 0.9781477 0.20791143
    outer loop
      vertex 112.5 3.4894352 18.90983
      vertex 3 3.054782 20.954716
      vertex 112.5 3.054782 20.954716
    endloop
  endfacet
  facet normal 0 0.9781477 0.20791143
    outer loop
      vertex 3 3.054782 20.954716
      vertex 112.5 3.4894352 18.90983
      vertex 3 3.4894352 18.90983
    endloop
  endfacet
  facet normal 0 0.9135454 0.4067367
    outer loop
      vertex 112.5 4.3397465 17
      vertex 3 3.4894352 18.90983
      vertex 112.5 3.4894352 18.90983
    endloop
  endfacet
  facet normal 0 0.9135454 0.4067367
    outer loop
      vertex 3 3.4894352 18.90983
      vertex 112.5 4.3397465 17
      vertex 3 4.3397465 17
    endloop
  endfacet
  facet normal 0 -0.9781479 0.20791012
    outer loop
      vertex 3 44.010567 18.90983
      vertex 112.5 44.445217 20.954716
      vertex 3 44.445217 20.954716
    endloop
  endfacet
  facet normal 0 -0.9781479 0.20791012
    outer loop
      vertex 112.5 44.445217 20.954716
      vertex 3 44.010567 18.90983
      vertex 112.5 44.010567 18.90983
    endloop
  endfacet
  facet normal 0 -0.4999999 0.86602545
    outer loop
      vertex 3 40.377853 13.90983
      vertex 112.5 38.567368 12.864546
      vertex 112.5 40.377853 13.90983
    endloop
  endfacet
  facet normal 0 -0.4999999 0.86602545
    outer loop
      vertex 112.5 38.567368 12.864546
      vertex 3 40.377853 13.90983
      vertex 3 38.567368 12.864546
    endloop
  endfacet
  facet normal 0 0.49999973 0.86602557
    outer loop
      vertex 3 8.932634 12.864546
      vertex 112.5 7.1221476 13.90983
      vertex 112.5 8.932634 12.864546
    endloop
  endfacet
  facet normal 0 0.49999973 0.86602557
    outer loop
      vertex 112.5 7.1221476 13.90983
      vertex 3 8.932634 12.864546
      vertex 3 7.1221476 13.90983
    endloop
  endfacet
  facet normal 0 -0.9135454 0.4067367
    outer loop
      vertex 3 43.160255 17
      vertex 112.5 44.010567 18.90983
      vertex 3 44.010567 18.90983
    endloop
  endfacet
  facet normal 0 -0.9135454 0.4067367
    outer loop
      vertex 112.5 44.010567 18.90983
      vertex 3 43.160255 17
      vertex 112.5 43.160255 17
    endloop
  endfacet
  facet normal 0 -0.99999565 0.0029540937
    outer loop
      vertex 3 44.445217 20.954716
      vertex 112.5 44.472824 30.3
      vertex 3 44.472824 30.3
    endloop
  endfacet
  facet normal 0 -0.99999565 0.0029540937
    outer loop
      vertex 112.5 44.472824 30.3
      vertex 3 44.445217 20.954716
      vertex 112.5 44.445217 20.954716
    endloop
  endfacet
  facet normal 0 0.66913086 0.7431446
    outer loop
      vertex 3 7.1221476 13.90983
      vertex 112.5 5.568552 15.308695
      vertex 112.5 7.1221476 13.90983
    endloop
  endfacet
  facet normal 0 0.66913086 0.7431446
    outer loop
      vertex 112.5 5.568552 15.308695
      vertex 3 7.1221476 13.90983
      vertex 3 5.568552 15.308695
    endloop
  endfacet
  facet normal 0 0.99999565 0.0029539408
    outer loop
      vertex 112.5 3.054782 20.954716
      vertex 3 3.0271764 30.3
      vertex 112.5 3.0271764 30.3
    endloop
  endfacet
  facet normal 0 0.99999565 0.0029539408
    outer loop
      vertex 3 3.0271764 30.3
      vertex 112.5 3.054782 20.954716
      vertex 3 3.054782 20.954716
    endloop
  endfacet
  facet normal 0 -0.10452891 0.99452186
    outer loop
      vertex 3 36.579117 12.218525
      vertex 112.5 34.5 12
      vertex 112.5 36.579117 12.218525
    endloop
  endfacet
  facet normal 0 -0.10452891 0.99452186
    outer loop
      vertex 112.5 34.5 12
      vertex 3 36.579117 12.218525
      vertex 3 34.5 12
    endloop
  endfacet
  facet normal -1 0 0
    outer loop
      vertex 112.5 34.5 12
      vertex 112.5 44.445217 20.954716
      vertex 112.5 44.010567 18.90983
    endloop
  endfacet
  facet normal -1 0 0
    outer loop
      vertex 112.5 34.5 12
      vertex 112.5 44.010567 18.90983
      vertex 112.5 43.160255 17
    endloop
  endfacet
  facet normal -1 0 0
    outer loop
      vertex 112.5 34.5 12
      vertex 112.5 43.160255 17
      vertex 112.5 41.93145 15.308695
    endloop
  endfacet
  facet normal -1 0 0
    outer loop
      vertex 112.5 34.5 12
      vertex 112.5 41.93145 15.308695
      vertex 112.5 40.377853 13.90983
    endloop
  endfacet
  facet normal -1 0 0
    outer loop
      vertex 112.5 34.5 12
      vertex 112.5 40.377853 13.90983
      vertex 112.5 38.567368 12.864546
    endloop
  endfacet
  facet normal -1 0 0
    outer loop
      vertex 112.5 34.5 12
      vertex 112.5 38.567368 12.864546
      vertex 112.5 36.579117 12.218525
    endloop
  endfacet
  facet normal -1 0 0
    outer loop
      vertex 112.5 44.445217 20.954716
      vertex 112.5 34.5 12
      vertex 112.5 44.472824 30.3
    endloop
  endfacet
  facet normal -1 0 0
    outer loop
      vertex 112.5 13 12
      vertex 112.5 44.472824 30.3
      vertex 112.5 34.5 12
    endloop
  endfacet
  facet normal -1 0 0
    outer loop
      vertex 112.5 3.054782 20.954716
      vertex 112.5 13 12
      vertex 112.5 10.920883 12.218525
    endloop
  endfacet
  facet normal -1 0 0
    outer loop
      vertex 112.5 3.054782 20.954716
      vertex 112.5 10.920883 12.218525
      vertex 112.5 8.932634 12.864546
    endloop
  endfacet
  facet normal -1 0 0
    outer loop
      vertex 112.5 3.054782 20.954716
      vertex 112.5 8.932634 12.864546
      vertex 112.5 7.1221476 13.90983
    endloop
  endfacet
  facet normal -1 0 0
    outer loop
      vertex 112.5 3.054782 20.954716
      vertex 112.5 7.1221476 13.90983
      vertex 112.5 5.568552 15.308695
    endloop
  endfacet
  facet normal -1 0 0
    outer loop
      vertex 112.5 3.054782 20.954716
      vertex 112.5 5.568552 15.308695
      vertex 112.5 4.3397465 17
    endloop
  endfacet
  facet normal -1 0 0
    outer loop
      vertex 112.5 3.054782 20.954716
      vertex 112.5 4.3397465 17
      vertex 112.5 3.4894352 18.90983
    endloop
  endfacet
  facet normal -1 0 0
    outer loop
      vertex 112.5 13 12
      vertex 112.5 3.054782 20.954716
      vertex 112.5 3.0271764 30.3
    endloop
  endfacet
  facet normal -1 0 0
    outer loop
      vertex 112.5 13 12
      vertex 112.5 3.0271764 30.3
      vertex 112.5 44.472824 30.3
    endloop
  endfacet
  facet normal 0 0 1
    outer loop
      vertex 114.5 34.5 12
      vertex 224 13 12
      vertex 224 34.5 12
    endloop
  endfacet
  facet normal 0 0 1
    outer loop
      vertex 224 13 12
      vertex 114.5 34.5 12
      vertex 114.5 13 12
    endloop
  endfacet
  facet normal 0 -0.3090166 0.95105666
    outer loop
      vertex 114.5 38.567368 12.864546
      vertex 224 36.579117 12.218525
      vertex 224 38.567368 12.864546
    endloop
  endfacet
  facet normal 0 -0.3090166 0.95105666
    outer loop
      vertex 224 36.579117 12.218525
      vertex 114.5 38.567368 12.864546
      vertex 114.5 36.579117 12.218525
    endloop
  endfacet
  facet normal 0 -0.6691307 0.7431448
    outer loop
      vertex 114.5 41.93145 15.308695
      vertex 224 40.377853 13.90983
      vertex 224 41.93145 15.308695
    endloop
  endfacet
  facet normal 0 -0.6691307 0.7431448
    outer loop
      vertex 224 40.377853 13.90983
      vertex 114.5 41.93145 15.308695
      vertex 114.5 40.377853 13.90983
    endloop
  endfacet
  facet normal 1 0 0
    outer loop
      vertex 114.5 34.5 12
      vertex 114.5 44.445217 20.954716
      vertex 114.5 44.472824 30.3
    endloop
  endfacet
  facet normal 1 0 0
    outer loop
      vertex 114.5 44.445217 20.954716
      vertex 114.5 34.5 12
      vertex 114.5 44.010567 18.90983
    endloop
  endfacet
  facet normal 1 0 0
    outer loop
      vertex 114.5 44.010567 18.90983
      vertex 114.5 34.5 12
      vertex 114.5 43.160255 17
    endloop
  endfacet
  facet normal 1 0 0
    outer loop
      vertex 114.5 43.160255 17
      vertex 114.5 34.5 12
      vertex 114.5 41.93145 15.308695
    endloop
  endfacet
  facet normal 1 0 0
    outer loop
      vertex 114.5 41.93145 15.308695
      vertex 114.5 34.5 12
      vertex 114.5 40.377853 13.90983
    endloop
  endfacet
  facet normal 1 0 0
    outer loop
      vertex 114.5 40.377853 13.90983
      vertex 114.5 34.5 12
      vertex 114.5 38.567368 12.864546
    endloop
  endfacet
  facet normal 1 0 0
    outer loop
      vertex 114.5 38.567368 12.864546
      vertex 114.5 34.5 12
      vertex 114.5 36.579117 12.218525
    endloop
  endfacet
  facet normal 1 0 0
    outer loop
      vertex 114.5 44.472824 30.3
      vertex 114.5 13 12
      vertex 114.5 34.5 12
    endloop
  endfacet
  facet normal 1 0 0
    outer loop
      vertex 114.5 3.0271764 30.3
      vertex 114.5 13 12
      vertex 114.5 44.472824 30.3
    endloop
  endfacet
  facet normal 1 0 0
    outer loop
      vertex 114.5 3.054782 20.954716
      vertex 114.5 13 12
      vertex 114.5 3.0271764 30.3
    endloop
  endfacet
  facet normal 1 0 0
    outer loop
      vertex 114.5 13 12
      vertex 114.5 3.054782 20.954716
      vertex 114.5 10.920883 12.218525
    endloop
  endfacet
  facet normal 1 0 0
    outer loop
      vertex 114.5 10.920883 12.218525
      vertex 114.5 3.054782 20.954716
      vertex 114.5 8.932634 12.864546
    endloop
  endfacet
  facet normal 1 0 0
    outer loop
      vertex 114.5 8.932634 12.864546
      vertex 114.5 3.054782 20.954716
      vertex 114.5 7.1221476 13.90983
    endloop
  endfacet
  facet normal 1 0 0
    outer loop
      vertex 114.5 5.568552 15.308695
      vertex 114.5 3.054782 20.954716
      vertex 114.5 4.3397465 17
    endloop
  endfacet
  facet normal 1 0 0
    outer loop
      vertex 114.5 4.3397465 17
      vertex 114.5 3.054782 20.954716
      vertex 114.5 3.4894352 18.90983
    endloop
  endfacet
  facet normal 1 0 0
    outer loop
      vertex 114.5 7.1221476 13.90983
      vertex 114.5 3.054782 20.954716
      vertex 114.5 5.568552 15.308695
    endloop
  endfacet
  facet normal 0 -0.10452891 0.99452186
    outer loop
      vertex 114.5 36.579117 12.218525
      vertex 224 34.5 12
      vertex 224 36.579117 12.218525
    endloop
  endfacet
  facet normal 0 -0.10452891 0.99452186
    outer loop
      vertex 224 34.5 12
      vertex 114.5 36.579117 12.218525
      vertex 114.5 34.5 12
    endloop
  endfacet
  facet normal 0 0.30901685 0.95105654
    outer loop
      vertex 114.5 10.920883 12.218525
      vertex 224 8.932634 12.864546
      vertex 224 10.920883 12.218525
    endloop
  endfacet
  facet normal 0 0.30901685 0.95105654
    outer loop
      vertex 224 8.932634 12.864546
      vertex 114.5 10.920883 12.218525
      vertex 114.5 8.932634 12.864546
    endloop
  endfacet
  facet normal 0 0.10452891 0.99452186
    outer loop
      vertex 114.5 13 12
      vertex 224 10.920883 12.218525
      vertex 224 13 12
    endloop
  endfacet
  facet normal 0 0.10452891 0.99452186
    outer loop
      vertex 224 10.920883 12.218525
      vertex 114.5 13 12
      vertex 114.5 10.920883 12.218525
    endloop
  endfacet
  facet normal 0 -0.8090169 0.58778536
    outer loop
      vertex 114.5 41.93145 15.308695
      vertex 224 43.160255 17
      vertex 114.5 43.160255 17
    endloop
  endfacet
  facet normal 0 -0.8090169 0.58778536
    outer loop
      vertex 224 43.160255 17
      vertex 114.5 41.93145 15.308695
      vertex 224 41.93145 15.308695
    endloop
  endfacet
  facet normal 0 0.8090169 0.58778536
    outer loop
      vertex 224 5.568552 15.308695
      vertex 114.5 4.3397465 17
      vertex 224 4.3397465 17
    endloop
  endfacet
  facet normal 0 0.8090169 0.58778536
    outer loop
      vertex 114.5 4.3397465 17
      vertex 224 5.568552 15.308695
      vertex 114.5 5.568552 15.308695
    endloop
  endfacet
  facet normal 0 0.9781477 0.20791143
    outer loop
      vertex 224 3.4894352 18.90983
      vertex 114.5 3.054782 20.954716
      vertex 224 3.054782 20.954716
    endloop
  endfacet
  facet normal 0 0.9781477 0.20791143
    outer loop
      vertex 114.5 3.054782 20.954716
      vertex 224 3.4894352 18.90983
      vertex 114.5 3.4894352 18.90983
    endloop
  endfacet
  facet normal 0 0.9135454 0.4067367
    outer loop
      vertex 224 4.3397465 17
      vertex 114.5 3.4894352 18.90983
      vertex 224 3.4894352 18.90983
    endloop
  endfacet
  facet normal 0 0.9135454 0.4067367
    outer loop
      vertex 114.5 3.4894352 18.90983
      vertex 224 4.3397465 17
      vertex 114.5 4.3397465 17
    endloop
  endfacet
  facet normal 0 -0.9781479 0.20791012
    outer loop
      vertex 114.5 44.010567 18.90983
      vertex 224 44.445217 20.954716
      vertex 114.5 44.445217 20.954716
    endloop
  endfacet
  facet normal 0 -0.9781479 0.20791012
    outer loop
      vertex 224 44.445217 20.954716
      vertex 114.5 44.010567 18.90983
      vertex 224 44.010567 18.90983
    endloop
  endfacet
  facet normal 0 -0.4999999 0.86602545
    outer loop
      vertex 114.5 40.377853 13.90983
      vertex 224 38.567368 12.864546
      vertex 224 40.377853 13.90983
    endloop
  endfacet
  facet normal 0 -0.4999999 0.86602545
    outer loop
      vertex 224 38.567368 12.864546
      vertex 114.5 40.377853 13.90983
      vertex 114.5 38.567368 12.864546
    endloop
  endfacet
  facet normal 0 0.49999973 0.86602557
    outer loop
      vertex 114.5 8.932634 12.864546
      vertex 224 7.1221476 13.90983
      vertex 224 8.932634 12.864546
    endloop
  endfacet
  facet normal 0 0.49999973 0.86602557
    outer loop
      vertex 224 7.1221476 13.90983
      vertex 114.5 8.932634 12.864546
      vertex 114.5 7.1221476 13.90983
    endloop
  endfacet
  facet normal 0 -0.9135454 0.4067367
    outer loop
      vertex 114.5 43.160255 17
      vertex 224 44.010567 18.90983
      vertex 114.5 44.010567 18.90983
    endloop
  endfacet
  facet normal 0 -0.9135454 0.4067367
    outer loop
      vertex 224 44.010567 18.90983
      vertex 114.5 43.160255 17
      vertex 224 43.160255 17
    endloop
  endfacet
  facet normal 0 -0.99999565 0.0029540937
    outer loop
      vertex 114.5 44.445217 20.954716
      vertex 224 44.472824 30.3
      vertex 114.5 44.472824 30.3
    endloop
  endfacet
  facet normal 0 -0.99999565 0.0029540937
    outer loop
      vertex 224 44.472824 30.3
      vertex 114.5 44.445217 20.954716
      vertex 224 44.445217 20.954716
    endloop
  endfacet
  facet normal 0 0.66913086 0.7431446
    outer loop
      vertex 114.5 7.1221476 13.90983
      vertex 224 5.568552 15.308695
      vertex 224 7.1221476 13.90983
    endloop
  endfacet
  facet normal 0 0.66913086 0.7431446
    outer loop
      vertex 224 5.568552 15.308695
      vertex 114.5 7.1221476 13.90983
      vertex 114.5 5.568552 15.308695
    endloop
  endfacet
  facet normal 0 0.99999565 0.0029539408
    outer loop
      vertex 224 3.054782 20.954716
      vertex 114.5 3.0271764 30.3
      vertex 224 3.0271764 30.3
    endloop
  endfacet
  facet normal 0 0.99999565 0.0029539408
    outer loop
      vertex 114.5 3.0271764 30.3
      vertex 224 3.054782 20.954716
      vertex 114.5 3.054782 20.954716
    endloop
  endfacet
  facet normal -1 0 0
    outer loop
      vertex 224 34.5 12
      vertex 224 44.445217 20.954716
      vertex 224 44.010567 18.90983
    endloop
  endfacet
  facet normal -1 0 0
    outer loop
      vertex 224 34.5 12
      vertex 224 44.010567 18.90983
      vertex 224 43.160255 17
    endloop
  endfacet
  facet normal -1 0 0
    outer loop
      vertex 224 34.5 12
      vertex 224 43.160255 17
      vertex 224 41.93145 15.308695
    endloop
  endfacet
  facet normal -1 0 0
    outer loop
      vertex 224 34.5 12
      vertex 224 41.93145 15.308695
      vertex 224 40.377853 13.90983
    endloop
  endfacet
  facet normal -1 0 0
    outer loop
      vertex 224 34.5 12
      vertex 224 40.377853 13.90983
      vertex 224 38.567368 12.864546
    endloop
  endfacet
  facet normal -1 0 0
    outer loop
      vertex 224 34.5 12
      vertex 224 38.567368 12.864546
      vertex 224 36.579117 12.218525
    endloop
  endfacet
  facet normal -1 0 0
    outer loop
      vertex 224 44.445217 20.954716
      vertex 224 34.5 12
      vertex 224 44.472824 30.3
    endloop
  endfacet
  facet normal -1 0 0
    outer loop
      vertex 224 13 12
      vertex 224 44.472824 30.3
      vertex 224 34.5 12
    endloop
  endfacet
  facet normal -1 0 0
    outer loop
      vertex 224 3.054782 20.954716
      vertex 224 13 12
      vertex 224 10.920883 12.218525
    endloop
  endfacet
  facet normal -1 0 0
    outer loop
      vertex 224 3.054782 20.954716
      vertex 224 10.920883 12.218525
      vertex 224 8.932634 12.864546
    endloop
  endfacet
  facet normal -1 0 0
    outer loop
      vertex 224 3.054782 20.954716
      vertex 224 8.932634 12.864546
      vertex 224 7.1221476 13.90983
    endloop
  endfacet
  facet normal -1 0 0
    outer loop
      vertex 224 3.054782 20.954716
      vertex 224 7.1221476 13.90983
      vertex 224 5.568552 15.308695
    endloop
  endfacet
  facet normal -1 0 0
    outer loop
      vertex 224 3.054782 20.954716
      vertex 224 5.568552 15.308695
      vertex 224 4.3397465 17
    endloop
  endfacet
  facet normal -1 0 0
    outer loop
      vertex 224 3.054782 20.954716
      vertex 224 4.3397465 17
      vertex 224 3.4894352 18.90983
    endloop
  endfacet
  facet normal -1 0 0
    outer loop
      vertex 224 13 12
      vertex 224 3.054782 20.954716
      vertex 224 3.0271764 30.3
    endloop
  endfacet
  facet normal -1 0 0
    outer loop
      vertex 224 13 12
      vertex 224 3.0271764 30.3
      vertex 224 44.472824 30.3
    endloop
  endfacet
  facet normal 0 1 0
    outer loop
      vertex 227 47.5 0
      vertex 224 47.5 10
      vertex 227 47.5 10
    endloop
  endfacet
  facet normal 0 1 0
    outer loop
      vertex 224 47.5 10
      vertex 227 47.5 0
      vertex 3 47.5 10
    endloop
  endfacet
  facet normal 0 1 0
    outer loop
      vertex 0 47.5 0
      vertex 3 47.5 10
      vertex 227 47.5 0
    endloop
  endfacet
  facet normal 0 1 0
    outer loop
      vertex 3 47.5 10
      vertex 0 47.5 0
      vertex 0 47.5 10
    endloop
  endfacet
  facet normal 0 1 0
    outer loop
      vertex 224 47.5 10
      vertex 217.6 47.5 17.5
      vertex 224 47.5 17.5
    endloop
  endfacet
  facet normal 0 1 0
    outer loop
      vertex 217.6 47.5 17.5
      vertex 224 47.5 10
      vertex 9.5 47.5 17.5
    endloop
  endfacet
  facet normal 0 1 0
    outer loop
      vertex 3 47.5 10
      vertex 9.5 47.5 17.5
      vertex 224 47.5 10
    endloop
  endfacet
  facet normal 0 1 0
    outer loop
      vertex 9.5 47.5 17.5
      vertex 3 47.5 10
      vertex 3 47.5 17.5
    endloop
  endfacet
  facet normal 0 1 0
    outer loop
      vertex 216.26671 47.5 22.094408
      vertex 215.32489 47.5 22.5
      vertex 215.74805 47.5 22.371637
    endloop
  endfacet
  facet normal 0 1 0
    outer loop
      vertex 215.32489 47.5 22.5
      vertex 217.6 47.5 17.5
      vertex 11.7751045 47.5 22.5
    endloop
  endfacet
  facet normal 0 1 0
    outer loop
      vertex 215.32489 47.5 22.5
      vertex 216.26671 47.5 22.094408
      vertex 217.6 47.5 19.599998
    endloop
  endfacet
  facet normal 0 1 0
    outer loop
      vertex 9.5 47.5 17.5
      vertex 11.7751045 47.5 22.5
      vertex 217.6 47.5 17.5
    endloop
  endfacet
  facet normal 0 1 0
    outer loop
      vertex 217.6 47.5 19.599998
      vertex 216.26671 47.5 22.094408
      vertex 216.72131 47.5 21.72132
    endloop
  endfacet
  facet normal 0 1 0
    outer loop
      vertex 9.5 47.5 19.599998
      vertex 11.7751045 47.5 22.5
      vertex 9.5 47.5 17.5
    endloop
  endfacet
  facet normal 0 1 0
    outer loop
      vertex 217.6 47.5 19.599998
      vertex 216.72131 47.5 21.72132
      vertex 217.0944 47.5 21.266708
    endloop
  endfacet
  facet normal 0 1 0
    outer loop
      vertex 10.83329 47.5 22.094408
      vertex 11.7751045 47.5 22.5
      vertex 9.5 47.5 19.599998
    endloop
  endfacet
  facet normal 0 1 0
    outer loop
      vertex 217.6 47.5 19.599998
      vertex 217.0944 47.5 21.266708
      vertex 217.37164 47.5 20.748049
    endloop
  endfacet
  facet normal 0 1 0
    outer loop
      vertex 11.7751045 47.5 22.5
      vertex 10.83329 47.5 22.094408
      vertex 11.351951 47.5 22.371637
    endloop
  endfacet
  facet normal 0 1 0
    outer loop
      vertex 217.6 47.5 19.599998
      vertex 217.37164 47.5 20.748049
      vertex 217.54236 47.5 20.18527
    endloop
  endfacet
  facet normal 0 1 0
    outer loop
      vertex 10.83329 47.5 22.094408
      vertex 9.5 47.5 19.599998
      vertex 10.37868 47.5 21.72132
    endloop
  endfacet
  facet normal 0 1 0
    outer loop
      vertex 215.32489 47.5 22.5
      vertex 217.6 47.5 19.599998
      vertex 217.6 47.5 17.5
    endloop
  endfacet
  facet normal 0 1 0
    outer loop
      vertex 10.37868 47.5 21.72132
      vertex 9.5 47.5 19.599998
      vertex 10.005591 47.5 21.266708
    endloop
  endfacet
  facet normal 0 1 0
    outer loop
      vertex 10.005591 47.5 21.266708
      vertex 9.5 47.5 19.599998
      vertex 9.728362 47.5 20.748049
    endloop
  endfacet
  facet normal 0 1 0
    outer loop
      vertex 9.728362 47.5 20.748049
      vertex 9.5 47.5 19.599998
      vertex 9.557645 47.5 20.18527
    endloop
  endfacet
  facet normal 0.25881925 0.96592575 0
    outer loop
      vertex 225.5 47.098076 10
      vertex 224 47.5 17.5
      vertex 225.5 47.098076 17.5
    endloop
  endfacet
  facet normal 0.25881925 0.96592575 0
    outer loop
      vertex 224 47.5 17.5
      vertex 225.5 47.098076 10
      vertex 224 47.5 10
    endloop
  endfacet
  facet normal -0.25881925 0.96592575 0
    outer loop
      vertex 3 47.5 10
      vertex 1.5 47.098076 17.5
      vertex 3 47.5 17.5
    endloop
  endfacet
  facet normal -0.25881925 0.96592575 0
    outer loop
      vertex 1.5 47.098076 17.5
      vertex 3 47.5 10
      vertex 1.5 47.098076 10
    endloop
  endfacet
  facet normal -0.25881925 -0.96592575 0
    outer loop
      vertex 1.5 0.40192413 10
      vertex 3 0 17.5
      vertex 1.5 0.40192413 17.5
    endloop
  endfacet
  facet normal -0.25881925 -0.96592575 0
    outer loop
      vertex 3 0 17.5
      vertex 1.5 0.40192413 10
      vertex 3 0 10
    endloop
  endfacet
  facet normal 1 0 0
    outer loop
      vertex 227 35.824894 22.5
      vertex 227 38.1 19.599998
      vertex 227 38.042355 20.18527
    endloop
  endfacet
  facet normal 1 0 0
    outer loop
      vertex 227 44.5 17.5
      vertex 227 38.1 17.5
      vertex 227 44.5 10
    endloop
  endfacet
  facet normal 1 0 0
    outer loop
      vertex 227 44.5 10
      vertex 227 47.5 0
      vertex 227 47.5 10
    endloop
  endfacet
  facet normal 1 0 0
    outer loop
      vertex 227 9.5 17.5
      vertex 227 44.5 10
      vertex 227 38.1 17.5
    endloop
  endfacet
  facet normal 1 0 0
    outer loop
      vertex 227 35.824894 22.5
      vertex 227 38.042355 20.18527
      vertex 227 37.871635 20.748049
    endloop
  endfacet
  facet normal 1 0 0
    outer loop
      vertex 227 35.824894 22.5
      vertex 227 37.871635 20.748049
      vertex 227 37.594406 21.266708
    endloop
  endfacet
  facet normal 1 0 0
    outer loop
      vertex 227 35.824894 22.5
      vertex 227 37.594406 21.266708
      vertex 227 37.22132 21.72132
    endloop
  endfacet
  facet normal 1 0 0
    outer loop
      vertex 227 35.824894 22.5
      vertex 227 37.22132 21.72132
      vertex 227 36.76671 22.094408
    endloop
  endfacet
  facet normal 1 0 0
    outer loop
      vertex 227 35.824894 22.5
      vertex 227 36.76671 22.094408
      vertex 227 36.248047 22.371637
    endloop
  endfacet
  facet normal 1 0 0
    outer loop
      vertex 227 38.1 19.599998
      vertex 227 35.824894 22.5
      vertex 227 38.1 17.5
    endloop
  endfacet
  facet normal 1 0 0
    outer loop
      vertex 227 11.7751045 22.5
      vertex 227 38.1 17.5
      vertex 227 35.824894 22.5
    endloop
  endfacet
  facet normal 1 0 0
    outer loop
      vertex 227 9.5 17.5
      vertex 227 38.1 17.5
      vertex 227 11.7751045 22.5
    endloop
  endfacet
  facet normal 1 0 0
    outer loop
      vertex 227 10.83329 22.094408
      vertex 227 11.7751045 22.5
      vertex 227 11.351951 22.371637
    endloop
  endfacet
  facet normal 1 0 0
    outer loop
      vertex 227 11.7751045 22.5
      vertex 227 10.83329 22.094408
      vertex 227 9.5 19.599998
    endloop
  endfacet
  facet normal 1 0 0
    outer loop
      vertex 227 9.5 19.599998
      vertex 227 10.83329 22.094408
      vertex 227 10.37868 21.72132
    endloop
  endfacet
  facet normal 1 0 0
    outer loop
      vertex 227 9.5 19.599998
      vertex 227 10.37868 21.72132
      vertex 227 10.005591 21.266708
    endloop
  endfacet
  facet normal 1 0 0
    outer loop
      vertex 227 9.5 19.599998
      vertex 227 10.005591 21.266708
      vertex 227 9.728362 20.748049
    endloop
  endfacet
  facet normal 1 0 0
    outer loop
      vertex 227 9.5 19.599998
      vertex 227 9.728362 20.748049
      vertex 227 9.557645 20.18527
    endloop
  endfacet
  facet normal 1 0 0
    outer loop
      vertex 227 11.7751045 22.5
      vertex 227 9.5 19.599998
      vertex 227 9.5 17.5
    endloop
  endfacet
  facet normal 1 0 0
    outer loop
      vertex 227 44.5 10
      vertex 227 9.5 17.5
      vertex 227 47.5 0
    endloop
  endfacet
  facet normal 1 0 0
    outer loop
      vertex 227 3 10
      vertex 227 9.5 17.5
      vertex 227 3 17.5
    endloop
  endfacet
  facet normal 1 0 0
    outer loop
      vertex 227 9.5 17.5
      vertex 227 3 10
      vertex 227 47.5 0
    endloop
  endfacet
  facet normal 1 0 0
    outer loop
      vertex 227 0 0
      vertex 227 3 10
      vertex 227 0 10
    endloop
  endfacet
  facet normal 1 0 0
    outer loop
      vertex 227 3 10
      vertex 227 0 0
      vertex 227 47.5 0
    endloop
  endfacet
  facet normal -0.70710677 -0.70710677 0
    outer loop
      vertex 1.5 0.40192413 10
      vertex 0.40192413 1.5 17.5
      vertex 0.40192413 1.5 10
    endloop
  endfacet
  facet normal -0.70710677 -0.70710677 0
    outer loop
      vertex 0.40192413 1.5 17.5
      vertex 1.5 0.40192413 10
      vertex 1.5 0.40192413 17.5
    endloop
  endfacet
  facet normal -0.70710677 0.70710677 0
    outer loop
      vertex 0.40192413 46 10
      vertex 1.5 47.098076 17.5
      vertex 1.5 47.098076 10
    endloop
  endfacet
  facet normal -0.70710677 0.70710677 0
    outer loop
      vertex 1.5 47.098076 17.5
      vertex 0.40192413 46 10
      vertex 0.40192413 46 17.5
    endloop
  endfacet
  facet normal -0.96592575 0.25881925 0
    outer loop
      vertex 0 44.5 10
      vertex 0.40192413 46 17.5
      vertex 0.40192413 46 10
    endloop
  endfacet
  facet normal -0.96592575 0.25881925 0
    outer loop
      vertex 0.40192413 46 17.5
      vertex 0 44.5 10
      vertex 0 44.5 17.5
    endloop
  endfacet
  facet normal 0.7071043 0.7071092 0
    outer loop
      vertex 226.59808 46 10
      vertex 225.5 47.098076 17.5
      vertex 226.59808 46 17.5
    endloop
  endfacet
  facet normal 0.7071043 0.7071092 0
    outer loop
      vertex 225.5 47.098076 17.5
      vertex 226.59808 46 10
      vertex 225.5 47.098076 10
    endloop
  endfacet
  facet normal 0 0 1
    outer loop
      vertex 224 44.472824 30.3
      vertex 225.3 44.3 30.3
      vertex 224.86066 45.360657 30.3
    endloop
  endfacet
  facet normal 0 0 1
    outer loop
      vertex 225.3 44.3 30.3
      vertex 224 44.472824 30.3
      vertex 225.3 3.1999998 30.3
    endloop
  endfacet
  facet normal 0 0 1
    outer loop
      vertex 224 3.0271764 30.3
      vertex 225.3 3.1999998 30.3
      vertex 224 44.472824 30.3
    endloop
  endfacet
  facet normal 0 0 1
    outer loop
      vertex 223.8 45.8 30.3
      vertex 224 44.472824 30.3
      vertex 224.86066 45.360657 30.3
    endloop
  endfacet
  facet normal 0 0 1
    outer loop
      vertex 223.8 45.8 30.3
      vertex 114.5 44.472824 30.3
      vertex 224 44.472824 30.3
    endloop
  endfacet
  facet normal 0 0 1
    outer loop
      vertex 114.5 44.472824 30.3
      vertex 112.5 44.472824 30.3
      vertex 114.5 3.0271764 30.3
    endloop
  endfacet
  facet normal 0 0 1
    outer loop
      vertex 223.8 45.8 30.3
      vertex 112.5 44.472824 30.3
      vertex 114.5 44.472824 30.3
    endloop
  endfacet
  facet normal 0 0 1
    outer loop
      vertex 3.1999998 45.8 30.3
      vertex 112.5 44.472824 30.3
      vertex 223.8 45.8 30.3
    endloop
  endfacet
  facet normal 0 0 1
    outer loop
      vertex 3.1999998 45.8 30.3
      vertex 3 44.472824 30.3
      vertex 112.5 44.472824 30.3
    endloop
  endfacet
  facet normal 0 0 1
    outer loop
      vertex 1.6999998 44.3 30.3
      vertex 3 44.472824 30.3
      vertex 2.1393404 45.360657 30.3
    endloop
  endfacet
  facet normal 0 0 1
    outer loop
      vertex 2.1393404 45.360657 30.3
      vertex 3 44.472824 30.3
      vertex 3.1999998 45.8 30.3
    endloop
  endfacet
  facet normal 0 0 1
    outer loop
      vertex 225.3 3.1999998 30.3
      vertex 224 3.0271764 30.3
      vertex 224.86066 2.1393404 30.3
    endloop
  endfacet
  facet normal 0 0 1
    outer loop
      vertex 224 3.0271764 30.3
      vertex 223.8 1.6999998 30.3
      vertex 224.86066 2.1393404 30.3
    endloop
  endfacet
  facet normal 0 0 1
    outer loop
      vertex 114.5 3.0271764 30.3
      vertex 223.8 1.6999998 30.3
      vertex 224 3.0271764 30.3
    endloop
  endfacet
  facet normal 0 0 1
    outer loop
      vertex 112.5 3.0271764 30.3
      vertex 114.5 3.0271764 30.3
      vertex 112.5 44.472824 30.3
    endloop
  endfacet
  facet normal 0 0 1
    outer loop
      vertex 112.5 3.0271764 30.3
      vertex 223.8 1.6999998 30.3
      vertex 114.5 3.0271764 30.3
    endloop
  endfacet
  facet normal 0 0 1
    outer loop
      vertex 112.5 3.0271764 30.3
      vertex 3.1999998 1.6999998 30.3
      vertex 223.8 1.6999998 30.3
    endloop
  endfacet
  facet normal 0 0 1
    outer loop
      vertex 3 3.0271764 30.3
      vertex 3.1999998 1.6999998 30.3
      vertex 112.5 3.0271764 30.3
    endloop
  endfacet
  facet normal 0 0 1
    outer loop
      vertex 3 3.0271764 30.3
      vertex 2.1393404 2.1393404 30.3
      vertex 3.1999998 1.6999998 30.3
    endloop
  endfacet
  facet normal 0 0 1
    outer loop
      vertex 3 44.472824 30.3
      vertex 1.6999998 44.3 30.3
      vertex 3 3.0271764 30.3
    endloop
  endfacet
  facet normal 0 0 1
    outer loop
      vertex 1.6999998 3.1999998 30.3
      vertex 3 3.0271764 30.3
      vertex 1.6999998 44.3 30.3
    endloop
  endfacet
  facet normal 0 0 1
    outer loop
      vertex 3 3.0271764 30.3
      vertex 1.6999998 3.1999998 30.3
      vertex 2.1393404 2.1393404 30.3
    endloop
  endfacet
  facet normal 0.965927 0.25881466 0
    outer loop
      vertex 227 44.5 17.5
      vertex 226.59808 46 10
      vertex 226.59808 46 17.5
    endloop
  endfacet
  facet normal 0.965927 0.25881466 0
    outer loop
      vertex 226.59808 46 10
      vertex 227 44.5 17.5
      vertex 227 44.5 10
    endloop
  endfacet
  facet normal 0.7071043 -0.7071092 0
    outer loop
      vertex 225.5 0.40192413 10
      vertex 226.59808 1.5 17.5
      vertex 225.5 0.40192413 17.5
    endloop
  endfacet
  facet normal 0.7071043 -0.7071092 0
    outer loop
      vertex 226.59808 1.5 17.5
      vertex 225.5 0.40192413 10
      vertex 226.59808 1.5 10
    endloop
  endfacet
  facet normal -0.96592575 -0.25881925 0
    outer loop
      vertex 0.40192413 1.5 10
      vertex 0 3 17.5
      vertex 0 3 10
    endloop
  endfacet
  facet normal -0.96592575 -0.25881925 0
    outer loop
      vertex 0 3 17.5
      vertex 0.40192413 1.5 10
      vertex 0.40192413 1.5 17.5
    endloop
  endfacet
  facet normal 0.965927 -0.25881466 0
    outer loop
      vertex 226.59808 1.5 17.5
      vertex 227 3 10
      vertex 227 3 17.5
    endloop
  endfacet
  facet normal 0.965927 -0.25881466 0
    outer loop
      vertex 227 3 10
      vertex 226.59808 1.5 17.5
      vertex 226.59808 1.5 10
    endloop
  endfacet
  facet normal 0.25881925 -0.96592575 0
    outer loop
      vertex 224 0 10
      vertex 225.5 0.40192413 17.5
      vertex 224 0 17.5
    endloop
  endfacet
  facet normal 0.25881925 -0.96592575 0
    outer loop
      vertex 225.5 0.40192413 17.5
      vertex 224 0 10
      vertex 225.5 0.40192413 10
    endloop
  endfacet
  facet normal 0 0 -1
    outer loop
      vertex 0 0 0
      vertex 227 47.5 0
      vertex 227 0 0
    endloop
  endfacet
  facet normal 0 0 -1
    outer loop
      vertex 227 47.5 0
      vertex 0 0 0
      vertex 0 47.5 0
    endloop
  endfacet
  facet normal 0 0 1
    outer loop
      vertex 226.59808 1.5 10
      vertex 227 0 10
      vertex 227 3 10
    endloop
  endfacet
  facet normal 0 0 1
    outer loop
      vertex 225.5 0.40192413 10
      vertex 227 0 10
      vertex 226.59808 1.5 10
    endloop
  endfacet
  facet normal 0 0 1
    outer loop
      vertex 227 0 10
      vertex 225.5 0.40192413 10
      vertex 224 0 10
    endloop
  endfacet
  facet normal 0 0 1
    outer loop
      vertex 227 47.5 10
      vertex 226.59808 46 10
      vertex 227 44.5 10
    endloop
  endfacet
  facet normal 0 0 1
    outer loop
      vertex 227 47.5 10
      vertex 225.5 47.098076 10
      vertex 226.59808 46 10
    endloop
  endfacet
  facet normal 0 0 1
    outer loop
      vertex 225.5 47.098076 10
      vertex 227 47.5 10
      vertex 224 47.5 10
    endloop
  endfacet
  facet normal 0 0 1
    outer loop
      vertex 0 47.5 10
      vertex 1.5 47.098076 10
      vertex 3 47.5 10
    endloop
  endfacet
  facet normal 0 0 1
    outer loop
      vertex 0 47.5 10
      vertex 0.40192413 46 10
      vertex 1.5 47.098076 10
    endloop
  endfacet
  facet normal 0 0 1
    outer loop
      vertex 0.40192413 46 10
      vertex 0 47.5 10
      vertex 0 44.5 10
    endloop
  endfacet
  facet normal 0 0 1
    outer loop
      vertex 1.5 0.40192413 10
      vertex 0 0 10
      vertex 3 0 10
    endloop
  endfacet
  facet normal 0 0 1
    outer loop
      vertex 0.40192413 1.5 10
      vertex 0 0 10
      vertex 1.5 0.40192413 10
    endloop
  endfacet
  facet normal 0 0 1
    outer loop
      vertex 0 0 10
      vertex 0.40192413 1.5 10
      vertex 0 3 10
    endloop
  endfacet
endsolid OpenSCAD_Model
