<?xml version="1.0" encoding="UTF-8"?><svg id="Layer_1" xmlns="http://www.w3.org/2000/svg" viewBox="0 0 405.79 708.66"><defs><style>.cls-1{fill:#dd8f67;}</style></defs><path class="cls-1" d="M379.11,163.62c-11.5-5.68-23.48-11.55-30.09-23.78l-.27-.32c-1.36-6.33-4.75-10.66-11.52-11.63.66,3.97,2.36,6.9,5.01,8.89-2.65-1.99-4.35-4.93-5.01-8.89l-.06-.07c-.46-6.89-4.47-10.69-10.82-12.47,0,0,0,0,0,0l-.1-.12c.11-7.62-3.23-12.83-10.62-15.2,0,0,0,0,0,0-.38-.74-.6-1.53-.64-2.36-11.12-10.9-22.87-20.66-38.59-24.51-6.34-1.55-7.51-7.14-6.97-12.87,1.2-12.67-.59-25.28-.68-37.92-.11-14.61-2.56-17.65-17.48-22.38-1.82.56-4.2.56-5.39,1.75-15.02,15.05-29.38,30.61-35.16,51.95-4.45,3.79-7.44,3.31-9.73-2.55-9.62-24.67-28.65-38.52-53.29-45.84-3.83-1.14-7.64-1.5-11.58-1.11,0,3.3-1.99,5.12-4.55,6.89,2.56-1.77,4.55-3.59,4.54-6.89-9.22-.93-14.45,4.71-18.41,11.75-5.27,9.37-9.56,19.17-9.7,30.23,0,0,0,0,0,0-.81,1.67-1.98,3.25-2.39,5.01-2.96,12.94-2.91,12.95-16.13,12.04-7.1,1.65-14.44,2.66-21.26,5.1-11.69,4.18-15.99,12.44-11.97,23.94,2.32,6.64.9,10.65-3.69,15.49-9.82,10.35-7.99,22.85,3.76,30.84,14.76,10.05,14.58,10.95,5.22,26.13-15.88,25.79-29.04,52.98-39.91,81.27-2.08,5.42-3.35,11.29-7.7,15.61-.54,14.59-4.63,28.64-5.8,43.25-2.56,32.07,2.1,62.94,10.8,93.52,1.19,4.2,2.15,8.47,3.22,12.7,1.99,3.85,4.23,7.58,5.92,11.55,6.08,14.28,4.94,16.7-10.54,23.55-.42,1.93-.85,3.85-1.27,5.78-9.23,3.72-8.91,14.33-14.77,20.47-.32,9.66-.63,19.31-.95,28.97,2.54,10.09,7.93,18.71,15.5,25.48,10.96,9.81,13.3,21.8,11.48,35.5-.38,2.85-.05,5.84.28,8.72,2.56,22.37.21,44.67-1.37,66.93-.43,6.03-1.85,12.5-6.1,17.58-.28,2.9-.57,5.8-.85,8.69-.85,1.01-1.71,2.03-2.56,3.04-.57,3.91-1.15,7.83-1.71,11.74-.61.81-1.22,1.63-1.84,2.45-.29,3.07-.59,6.14-.89,9.22.2.79.25,1.59.15,2.4,0,0,0,0,0,0-.1,2.97-.19,5.95-.29,8.92,1.86.18,3.73.35,5.59.53.53,3.35,2.38,5.4,5.78,5.95,0,0,.2-.18.2-.18,26.34-2.56,52.68.75,78.98.16,42.91-.96,85.79-.48,128.68-.63,23.42-.08,46.83,1.08,70.2.37,14.02-.43,28.27-.61,42.05-4.3,1.16.27,2.32.54,3.49.81.38-1.65.76-3.3,1.13-4.96.52-17.75-2.15-34.7-9.7-51.1-3.81-8.28-5.53-17.59-6.31-27.02-2.18-26.41,1.54-52.85-.98-79.22-.64-6.68,3.18-10.85,7.66-14.96,8.86-8.13,15.3-17.63,16.98-29.99,3.92-28.79-6.41-47.07-34.06-58.52-5.86-2.43-6.86-6.24-6.21-11.54.56-4.56,3.2-8.16,5.59-11.84,7-10.76,12.35-22.26,15.35-34.76,8.27-34.52,6.85-68.97-2.08-103.04-6.65-25.37-7.19-25.75,18.78-26.92,12.6-.56,22.96-2.73,28.36-15.71,1.44-3.45,4.73-6.13,7.16-9.17,0,0,.35-1.08.35-1.08.9-1.14,1.79-2.28,2.69-3.43.04-1.16.09-2.32.13-3.49-1.31.68-2.16,1.62-1.85,3.22.08.02.16.03.23.05-.08-.02-.16-.03-.23-.05-.3-1.61.55-2.55,1.86-3.22.14-.71.36-1.41.65-2.07h0c.82-1.12,1.64-2.24,2.47-3.36,0,0,0,0,0,0l.05-.11c.43-5.34.41-10.77,1.37-16.02,3.35-18.41-.43-24.45-17.58-32.92Z"/><path class="cls-1" d="M403.38,180.45c-.08,3.06-.17,6.11-.24,9.17,2.74-2.99,2.8-6.04.24-9.17Z"/><path class="cls-1" d="M399.2,207.21c1.91-1.56,2.56-3.68,2.69-6.03-2.37,1.35-3.01,3.47-2.69,6.03Z"/></svg>