<?xml version="1.0" encoding="UTF-8"?><svg id="Layer_1" xmlns="http://www.w3.org/2000/svg" viewBox="0 0 449.55 265.24"><defs><style>.cls-1{fill:#82be6c;}</style></defs><path class="cls-1" d="M449.55,116.77c0-4.57-3.7-8.27-8.27-8.27-.54,0-1.07.06-1.58.16-.06-.1-.12-.19-.17-.31l-.1.09c-8,.38-16.09-.98-24.01,1.14-8.25.29-16.51,1-24.75.77-8.74-.24-11.76-3.74-9.95-11.91,4.23-19.08-5.41-48.22-11.02-56.35-1.99-2.65-4.87-4.59-6.17-7.79v.03c-2.05-1.89-4.02-7.2-11.04-11.79-3.93-1.73-11.9-6.47-15.66-8.06-9.04-3.39-25.89-11.12-32.03-11.99-3.06-.18-11.08-2.47-15.36-1.98-1.26-.16-2.52-.33-3.78-.49-17.14.9-34.34-.46-51.47,2.23-8.49,1.33-16.99,2.19-25.17,5.02-10.84,3.76-21.71,7.41-32.57,11.1-.95.55-1.9,1.11-2.85,1.66-3.81,1.5-7.63,3-11.44,4.5-4.05,2.07-8.1,4.15-12.14,6.22-1.3.75-2.61,1.51-3.91,2.26-4.03,2.01-8.07,4.03-12.1,6.04-3.9,2.99-26.06,16.6-35.69,21.32-3.05,2.51-4.38,2.87-8.56,6.08l.04-.1c-5.2,5.24-10.81,8.43-16.16,12.72-15.98,12.82-50.52,39.31-51.72,39.85-2.08,1.32-15.12,13.27-20.66,19.28-.42,1.58-.83,3.17-1.25,4.75,11.13,1.22,224.77,108.3,237.92,108.74,8.74,4.17,15.66,7.05,23.09,8.39,5.46.92,42.47,5.3,60.51,5.15,20.81-.17,41.06-1.97,59.47-12.87,1.4-.83,3.11-1.13,4.68-1.68l.33-.58.66.05c6.99-3.71,18.85-11.05,20.13-17.05,2.67-5.57,13.53-24.43-1.57-40.86-.81-.88-9.44-11.46-10.86-16.04-.36-.59-5.17-8.64-4.73-14.29-.58-7.77,4.76-11.06,10.72-13.37,4.57-1.77,9.45-1.99,14.48-1.55,9.09.8,18.17,2.74,27.38,1.31.02-.1.05-.19.07-.28,4.09-.5,7.26-3.98,7.26-8.21v-23.05Z"/></svg>