<?xml version="1.0" encoding="UTF-8"?><svg id="Layer_1" xmlns="http://www.w3.org/2000/svg" viewBox="0 0 450.64 261.55"><defs><style>.cls-1{fill:#1f1b1b;}</style></defs><path class="cls-1" d="M445,161.21c-.9-.93-1.58-2.08-2.36-3.12-2.48-.4-4.97-.81-7.45-1.21-3.09,3.59,1.88,2.71,2.62,4.87-22.25-.59-13.13-.1-16.7-14.52-1.31-.23-3.01-.43-3.24-1.85-1.38-8.73-7.68-14.34-12.88-20.62-12.27-13.36,18.02-10.13,14.5-23.02-1.46-.75-3.41-1.13-4.31-2.3-5.88-7.63-13.96-7.13-21.89-5.62-11.79,1.41-27.47,3.2-34.18-9.23-1.71-3.73-6.22-4.88-8.93-7.85-8.55-7.76,3.27-13.38.26-24.54h0c.26-.73.53-1.46.79-2.19-1.35-2.03-2.69-4.07-4.04-6.1-9.78-3.47-31.46-3.71-41.92-5.97-23.5-15.76-51.05-23.81-77.25-32.69-4.01-1.49-8.76.95-11.95-2.29-15.92-1.98-31.91-2.87-47.95-2.94-1.14,1.47-2.45,1.95-4.04.67-40.9,3.14-80.99,18.13-112.68,44.12-29.33,20.19-10.14,43.16,14.26,55.23,2.45-.13,4.47,1.05,6.53,2.13,7.72,4.05,8.1,4.75,3.75,11.88-1.63,2.67.68-1.13-2.71,8.32-1.79,6.74-5.41,10.85-13.08,11.29-14.45,1.94-26.25,12.58-39.66,17.62-.33,2.88-2.3,4.84-4.46,6.16-7.35,4.48-11.15,11.54-14.53,18.99-.37-.04-.76-.07-1.14-.11-2.99,10.87,13.01,25.19,23.1,26.52,3.5,10.03,52.65,31.36,64.8,33.94,20.98,5.82,20.49,23.1,45.97,20.97,1.39-1.85,3.27-2.3,5.32-1.53,11.08,4.14,22.92,4.11,34.37,4.97,14.76,1.66,29.84-2.59,44.63-1.91,5.02.15,9.9-.32,14.83-1.46,12.02-2.77,24.4-1.06,36.46-2.31,21.25-2.2,42.53,2.29,63.69-1.33,3.41-.58,7.63-1.31,8.87,3.87,5.21.84,10.41.98,15.6-.08,6.68-22.5,26.11-11.46,42.55-20.89,13.32-5.31,28.38,6.86,24.22-16.85-14.92-7.22-9.34-29.24,3.95-35.67,5.64-2.73,11.36-5.13,17.63-5.92,5.95-8.83,5.84-9.99-1.38-17.41Z"/></svg>