<?xml version="1.0" encoding="UTF-8"?><svg id="Layer_1" xmlns="http://www.w3.org/2000/svg" viewBox="0 0 366.94 415.68"><defs><style>.cls-1{fill:#3e8f5b;}</style></defs><path class="cls-1" d="M366.16,129.52c-.36,3.13-.58,6.29-1.23,9.35-2.5.79-3.77,2.72-4.63,5.03-17.51,18.43-24.82-46.63-34.51-27.36-3.38,8.21-3.76,17.02-5.37,25.61-1.86.75-3.43,1.72-3.02,4.14-15.7,31.8-44.95,8.82-45.9,24.71-1.06,15.52.68,31.14.04,46.73,1.23,15.67-7.44,40,11.58,47.32,17.93,5.21,32.61,18.46,50.35,23.1.1,1.65.29,3.51,1.82,4.29,9.89,5.03,16.55,14.91,28.1,15.61-.22,2.61,1.18,3.98,3.53,4.65.86,20.77-13.6,14.33-27.98,17.52-19.79,5.37-36.02-20.24-56.37-23.25-18.19-5.24-40.87,2.35-42.3,27.51-3.08,9.02,4.34,22.33-5.16,27.94-30.29,16.27-7.97-30.04-43.23,4.26-3.34,3.1-8.97,3.46-10.4,8.77-15.93,1.84-28.02,15.61-45.15,14.13-6.6,1.14-10.58,8.34-15.92,11.99-15.85,5.83-40.88-23.13-44.41,4.27,1.21,5.3-2.36,6.79-6.7,8.83-24.08,7.2-11.41-26.17-49.18-20.48-6.6,2.49-10.53-4.55-15.82-3.19-18.22-30.76,27.29-41.63,30.89-67.59,1.7-23.37,36.64-29.14,52.72-42.51,32.05-20.29,62.74-47.43,76.02-83.05,8.48-5.15,4.72-13.14,6.43-20.95,1.81-3.37,3.21-6.69-1.13-9.3-20.04-9.18-33.5,21.62-38.9,36.85-9.91,4.92-14.99,2.65-18.14-8.14-9.4-31.41,9.87-61,35.21-77.88,10.01-5.74,19.38-5.67,28.69,1.39,6.53,6.47,10.17,2.95,18.07,2.35,8.68,2.19,23.67-33.99,22.36-42.5-.81-9.83-12.87.96-18.48.1-1.77-2.3-2.79-.93-3.75.76-3.35.36-6.7.72-10.05,1.09-18.03-5.02-18.9-32.76-1.87-41.45,28.54-21.2,53.91-5.73,62.27-20.33C254.23,3.27,275.43-1.54,293.51.41c4.02,1.27,9.35-.49,12.74,1.82,1.55,5.96,8.23,10.04,5.12,16.71-14.73,12.08-31.89,27.36-27.66,48.71.92,4.93.34,9.89-1.2,14.69-7.64,2.98-25.38.03-16.7,13.53,3.95,4.74,18.66,20.71,22.9,10.44,4.51-12.2,11.23-22.71,18.53-33.2,10.84-19.29,25.32-6.91,40.78-1.8-.91,6.14,4.37,8.2,6.59,12.77,3.09,10.31,8.13,20.04,8.97,31.01.19,2.54.08,5.53,3.29,6.49-.24,2.64-.48,5.29-.72,7.93Z"/></svg>