<?xml version="1.0" encoding="UTF-8"?><svg id="Layer_1" xmlns="http://www.w3.org/2000/svg" viewBox="0 0 200.06 289.94"><defs><style>.cls-1{fill:#55aec6;}</style></defs><path class="cls-1" d="M92.27,3.53c14.09-6.85,24.46-1.38,25.43-2.7,16.04,4.59,26.33,21.69,27.19,37.84-.02,1.07,1.28,10.03-.29,15.31-9.64,21.82,4.18,20.27,17.37,8.73,4.07-3.56,4.77-3.18,8.73-7.22,2.47-2.53,6.01-3.25,8.68-5.4,3.2-1.93,3.58-.57,4.09,1.84,8.31,22.29-.24,25.67-12.45,42.69-4.48,3.5-15.53,3.82-13.99,11.28.95,3.48,4.1,4.57,7.07,3.87,7.56-1.78,14.33-4.31,22.09-7.31q2.83-1.1,5.22-2.24c10.44,0,9.06,9.43,7.75,15.64-.4,1.9-4.5,5.14-5.14,5.64-9.24,7.26-18.66,13.82-31.2,13.93-3.87.03-4.62,3.46-3.58,6.73,3.76,11.82,23.67,10.19,33.2,13.65,14.81,5.39-.18,8.01-3.55,10.18-10.81,3.47-21,10.09-33.09,6.14-4.09-1.4-4.73,2.09-3.59,4.62,2.56,5.63,7.64,9.36,7.94,16.8,1.62,39.77-22.05,72.93-52.3,96.39-15.54-2.62-23.1-23.3-33.94-33.55-5.78-7.89-10.32-16.75-14.63-25.3.64-.92.5-1.57-.64-1.87.13-2.72-.43-5.31-1.41-7.82q-.1-1.31-.45-3.75c-.12-9.02,4.9-17.07,3.78-26.29-2.09-2.89-5.19-3.18-8.37-3.27l.16.07c-1.35.52-2.7,1.04-4.05,1.56-2.21,1.09-2.08.31-4.19,1.18-2.13.75-3.57,1.27-5.7,2.02-1.84,1.32-10.1,4.03-12.66,5.03-6.35,1.89-10.46,2.66-15.08,5.65-16.06.17-10.58-17.03-5.55-24.67,4.8-7.31,10.72-12.87,17.73-17.19,7.17-4.42,13.83-5.82,20.3-9.68,2.51-.56,4.61-2.19,7.47-2.1,2.66.09,5.45-1.14,5.62-4.44-.79-6.86-15.02-8.96-20.37-12.54-9.51-5.95-5.36-6.87-14.3-15.16-2.91-2.69-.69-4.25,2.13-5.72,7.83-5.27,17.38.56,26.2-1.41,6.54.77,9.6-7.6,4.22-11.44-10.3-10.47-26.34-20.86-23.16-37.83,2.3-4.85,6.26-5.52,10.96-4.37,5.98,5.28,13.3,8.46,19.94,12.7,6,5.41,12.16-.18,9.31-7.17-4.84-15.98-3.18-33.07,4.63-47.64,4.47-8.33,10.13-8.62,16.45-11.38Z"/></svg>