<?xml version="1.0" encoding="UTF-8" standalone="no"?>
<svg xmlns:rdf="http://www.w3.org/1999/02/22-rdf-syntax-ns#" xmlns="http://www.w3.org/2000/svg" height="909.38" viewBox="0 0 1308.75 909.375" width="1308.8" version="1.1" xmlns:cc="http://creativecommons.org/ns#" xmlns:dc="http://purl.org/dc/elements/1.1/">
<path d="m1061.7 908.4c-42.489-6.5837-77.732-37.771-89.235-78.965l-2.5583-9.1615-16.317 0.25522-16.317 0.25522-2.2934 7.9468c-29.95 103.82-180.18 103.83-209.69 0.01l-2.2655-7.9688-74.999-0.23992-74.999-0.23994-0.60548 3.2275c-14.084 75.073-110.86 109.7-173.04 61.92-18.986-14.589-40.312-48.242-40.312-63.615 0-2.0063-33.576-2.3506-34.138-0.35002-30.96 110.08-181.31 113.08-211.98 4.2188l-1.5187-5.3906h-17.17c-24.062 0-31.994-3.2498-37.667-15.433l-2.1994-4.7232-0.0092-49.36-0.0092-49.36-16.172-0.35708c-31.68-0.7-36.688-7.32-36.166-47.83 0.3475-26.96 1.0121-29.61 9.175-36.59l3.787-3.25v-174.87-174.88l-3.516-2.6c-9.7389-7.21-11.463-11.97-11.475-31.73-0.012657-22.15 2.7474-28.78 14.483-34.78l5.5318-2.8292 204.68-0.24476 204.68-0.24477v-58.583-58.583h-5.4616c-11.182 0-12.797-4.6728-12.797-37.031 0-26.21 0.54944-29.808 5.3289-34.895l2-2.144h228.38c202.07 0 228.61 0.16295 230.4 1.4144 12.455 8.724 8.3932 71.62-4.6801 72.465l-4.422 0.28574v58.532 58.532l210.23 0.24449 210.23 0.2445 4.3804 2.1784c22.062 10.972 22.652 59.207 0.845 69.04l-3.8192 1.7222v173.63 173.63l4.8927 3.6497c3.4422 2.5677 5.7352 5.2967 7.7344 9.2052l2.8417 5.5555v24.911c0 27.982-0.2947 29.468-7.4023 37.336-5.58 6.1764-11.163 8.0616-25.144 8.4903l-11.922 0.36556-0.2658 49.36c-0.2996 55.644-0.064 53.783-7.797 61.516-7.2135 7.2134-8.6503 7.4952-39.852 7.8159l-27.696 0.28463-1.7216 6.7466c-13.705 53.707-67.659 89.649-121.95 81.237zm35.336-23.769c65.812-16.695 84.581-101.92 31.807-144.43-46.928-37.801-117.47-14.395-132.28 43.892-15.366 60.466 40.008 115.88 100.47 100.54zm-28.773-49.638c-39.879-13.226-30.087-71.279 11.616-68.865 36.409 2.1077 45.649 51.895 12.455 67.106-6.3562 2.9128-18.021 3.7653-24.07 1.759zm23.003-4.9246c26.492-11.889 23.888-51.1-3.9563-59.557-21.082-6.4035-41.171 8.5205-41.171 30.585 0 23.667 23.43 38.709 45.128 28.972zm-611.8 54.447c53.521-9.3333 83.716-68.231 60.07-117.17-24.615-50.944-91.623-63.102-131.75-23.906-58.361 57.004-8.5359 155.06 71.681 141.08zm-20.069-50.224c-37.529-7.3567-37.254-61.509 0.35152-69.278 38.47-7.9482 58.063 46.936 23.337 65.372-7.977 4.2348-15.601 5.4921-23.688 3.9068zm18.158-4.6513c16.91-6.327 25.313-26.441 17.913-42.879-11.11-24.681-45.985-25.493-57.872-1.3477-12.815 26.031 12.804 54.386 39.958 44.227zm367.8 53.882c63.074-13.028 88.081-89.345 44.873-136.94-39.612-43.637-112.21-32.006-136.65 21.893-27.524 60.703 26.572 128.52 91.775 115.05zm-25.028-46.839c-17.106-4.7841-28.191-21.961-25.356-39.289 5.6173-34.33 51.986-40.67 66.87-9.1424 12.521 26.521-13.077 56.384-41.514 48.431zm16.324-2.7967c28.499-4.6199 33.886-45.462 7.8574-59.574-30.886-16.746-62.144 24.217-38.256 50.133 5.9253 6.4282 17.816 11.372 24.826 10.322 1.0312-0.15455 3.5392-0.55078 5.5732-0.8805zm-598.82 47.325c63.058-16.07 83.706-97.643 35.71-141.08-53.732-48.627-138.66-11.174-138.65 61.146 0.005 53.688 50.887 93.198 102.94 79.933zm-31.3-46.655c-35.767-12.687-29.031-65.362 8.7462-68.394 31.766-2.5498 50.119 35.702 28.424 59.24-8.7426 9.4846-24.971 13.482-37.17 9.1547zm25.198-4.3858c16.608-8.2949 22.905-26.754 14.78-43.331-14.712-30.02-60.305-19.251-60.364 14.258-0.0413 23.605 24.805 39.452 45.583 29.074zm1046.1-170.17v-18.75h-624.84-624.84v18.75 18.75h624.84 624.84v-18.75zm-15.938-217.5v-189.38h-610.31-610.31v189.38 189.38h610.31 610.31v-189.38zm-1217.2 111.88c-0.344-0.35-0.626-5.62-0.626-11.72v-11.094h607.53 607.53l-0.2633 11.484-0.2632 11.484-606.64 0.2351c-333.65 0.1293-606.92-0.0465-607.27-0.39063zm1204.5-12.032v-6.5625h-598.13-598.12l-0.28502 5.52c-0.15676 3.036-0.06441 6.0949 0.20523 6.7976 0.41326 1.0769 94.395 1.2406 598.41 1.0425l597.92-0.23511v-6.5625zm-1204.2-37.97v-18.75h607.03 607.03v18.75 18.75h-607.03-607.03v-18.75zm1205.4 0.70312-0.2651-10.547-598.83-0.23511-598.83-0.2351v10.782 10.782h599.09 599.09l-0.265-10.547zm-1156.6-143.2v-85.312h93.281 93.281v85.312 85.312h-93.281-93.281v-85.312zm240 0v-85.312h93.281 93.281v85.312 85.312h-93.281-93.281v-85.312zm233.44-0.9375v-85.312h93.281 93.281v85.312 85.312h-93.281-93.281v-85.312zm230.31 84.68c-0.34375-0.34375-0.625-38.685-0.625-85.203v-84.578l2.1094-0.57204c1.1602-0.31463 43.137-0.56262 93.281-0.55111l91.172 0.0209v85.754 85.754h-92.656c-50.961 0-92.938-0.28125-93.281-0.625zm239.4-85.62v-85.312h93.281 93.281v85.312 85.312h-93.281-93.281v-85.312zm243.92-125.52c0.1632-5.0962 0.1602-9.9478-0.01-10.781-0.276-1.3937-50.692-1.5154-627.89-1.5154h-627.59v10.781 10.781h627.59 627.59l0.2966-9.2659zm-439.15-109.56 0.2403-70.547h-193.13-193.13v70.783 70.783l192.89-0.2366 192.89-0.23662 0.24031-70.547zm-287.58 3.5156v-52.5h93.281 93.281v52.5 52.5h-93.281-93.281v-52.5zm318.75-90.469v-9.8438h-226.88-226.88v9.8438 9.8438h226.88 226.88v-9.8438z"/>
</svg>
