<?xml version="1.0" encoding="UTF-8"?><svg id="Layer_1" xmlns="http://www.w3.org/2000/svg" viewBox="0 0 376.65 708.66"><defs><style>.cls-1{fill:#616934;}</style></defs><path class="cls-1" d="M375.4,88.76c-1.76-20.55-5.94-40.62-12.92-60.06-.77-2.15-1.74-4.25-.3-6.48-.4-2.1-.82-4.21-1.24-6.32-6.92.54-14.75-3.78-20.33,3.84-.79,9.32-6.08,16.82-10.02,24.87-.19,1.52-.39,3.04-.58,4.57-1.95,14.48-10.22,26.2-16.92,38.6-1.04,1.93-2.77,3.96-5.48,2.9-2.73-1.07-1.93-3.75-2.13-5.92-.47-4.99-.95-9.97-1.43-14.95-3.56-3.11-1.79-7.83-3.48-11.51-1.77-3.84.44-10.11-5.81-11.14-6.62-1.09-13.75-3.21-19.58,2.25-3.64,3.4-6.97,7.19-10.07,11.1-3.08,3.89-6.45,6.54-11.63,4.86-6.4-2.07-3.63-7.35-3.86-11.56,1.23-7.79.43-15.53-1.15-23.14-1.41-6.79-3.56-13.42-11.38-15.74h0c-12.79-6.93-10.06-5.1-23.55,10.04-4.57-2.57-2.41-7.39-3.3-10.93-3-11.88-18.48-20.77-29.78-7.21-6.96,8.36-15.02,15.65-18.86,26.66-5.31,15.24-19.56,21.3-33.18,26.56-11.31,4.37-19.14,11.58-25.97,21.21-4.58,6.46-8.82,13.15-16.2,17.89-9.8,6.29-11.85,18.41-14.32,28.97-2.25,9.61-4.41,18.61-12.05,25.53-1.95,1.77-3.38,4.5-4.2,7.06-6.1,19.02-18.11,33.57-33.77,45.47-2.26,1.71-3.81,3.96-4.49,6.76.02,2.53-.41,4.84-3.02,6.06h0c-.08,2.36-.81,4.32-3.19,5.28l-.02.04c-.06,9.28-5,17.58-4.95,27,.13,25.18-2.26,50.47,3.18,75.4,1.52,6.95.57,13.4-.81,20.32-3.7,18.46-6.29,37.11-3.17,56.06,3.64,22.15,6.92,44.36,10.55,66.51.58,3.55-.07,6.32-2.52,8.78-14.18,14.23-15.16,31.62-11.86,49.97,1.57,8.71,6.66,15.18,14.24,19.37,5.95,3.29,7.83,7.69,8.08,14.48.76,20.17-.32,40.37.71,60.46,1.04,20.23-3.09,39.03-9.88,57.68-1.24,3.4-1.29,7.23-1.89,10.86.24,5.65-2.31,11.56,1.57,16.88,1.86.22,3.73.4,5.6.57h305.51c.03-.48.07-.95.1-1.43-.59-1.23-1.8-2.53-1.67-3.68,1.67-14.19-3.54-26.95-7.31-40.2-3.61-12.71-10.27-25.02-9.28-38.63,1.36-18.8-.05-37.6,1.48-56.44,1.02-12.52,4.46-23.03,12.03-32.67,6.13-7.81,8.58-16.82,9.65-26.76,1.28-11.82-3.33-22.68-3.67-34.12-3.44-1.79-6.88-3.59-10.32-5.39-3.51-3.59-3.76-8.26-3.81-12.77-.29-23.76.59-47.57-.9-71.25-1-15.91-1-31.73-.72-47.59.18-10.08.82-20.16-2.49-29.95-.66-1.95.57-3.47,2.19-4.57-2.85-8.58-5.7-17.16-8.7-26.19,12.04-3.51,21.35,4.88,31.83,4.12,1.47-5.99,6.7-10.41,7.12-16.86-.31-.02-.61-.02-.91,0,.3-.02.6-.02.91,0,0,0,.09-.02.09-.02q3.07-12.39,17.86-13.56c3.65-8.04,8.94-15.37,10.25-24.38,1.05-6.27-1-13.17,3.81-18.68.47-6.57.93-13.14,1.4-19.72h0c1.4-5.3,2.21-10.76,1.18-16.14-1.57-8.2-.88-16.23.54-24.31.58-19.58.88-39.17-.79-58.71Z"/></svg>