<?xml version="1.0" encoding="UTF-8"?><svg id="Layer_1" xmlns="http://www.w3.org/2000/svg" viewBox="0 0 516.53 385"><defs><style>.cls-1{fill:#6f9c77;stroke:#fff;stroke-linecap:round;stroke-linejoin:round;stroke-width:.5px;}</style></defs><polygon class="cls-1" points="486.51 242.03 485.76 242.83 485.46 244.63 484.41 245.68 484.16 246.38 483.61 246.73 482.81 246.73 482.16 246.48 481.91 246.03 481.06 245.98 480.56 246.33 479.46 248.83 478.31 250.08 477.26 251.03 475.56 251.93 475.31 252.13 475.21 252.23 474.86 252.33 474.71 252.38 474.61 252.53 474.61 253.58 474.41 253.93 474.01 254.03 473.51 254.13 472.21 254.58 471.81 254.78 471.36 255.28 471.01 256.43 469.61 257.78 469.01 258.63 467.71 258.93 466.86 261.68 466.01 262.38 465.76 262.48 465.11 262.88 464.71 263.13 464.46 263.28 464.46 263.38 464.31 263.48 464.06 263.48 463.76 263.48 463.56 263.53 463.11 264.03 463.06 267.53 462.76 268.58 462.66 268.63 462.26 268.58 462.16 268.68 462.06 269.88 461.51 270.83 461.41 271.53 460.96 272.13 460.96 272.43 461.06 272.68 461.06 272.98 460.61 273.38 459.86 273.83 459.31 274.28 459.71 275.18 459.31 275.58 457.91 276.23 457.31 276.63 455.71 278.88 455.41 279.13 455.06 279.23 454.71 279.28 454.36 279.33 453.96 279.53 453.11 280.23 452.41 280.48 451.46 280.38 451.16 280.53 450.86 280.53 449.81 280.43 449.46 280.38 449.21 280.38 448.86 280.43 448.76 280.43 448.76 280.53 448.51 280.63 448.51 280.93 449.46 282.23 449.51 282.78 449.21 282.98 448.76 283.13 446.36 283.73 446.01 283.78 445.66 283.93 444.56 285.03 444.21 285.48 442.51 286.83 442.06 287.88 441.56 288.18 440.86 288.13 440.06 287.78 439.66 287.28 439.26 286.18 438.81 285.68 438.11 285.43 437.16 285.33 436.16 285.38 435.36 285.48 432.96 285.48 432.46 285.53 431.86 285.68 430.26 285.88 429.61 285.98 428.56 286.33 427.91 286.48 426.96 286.53 426.56 286.23 426.16 285.68 425.71 285.28 425.21 285.48 424.41 285.18 423.71 284.83 422.96 284.63 421.96 284.83 421.31 285.33 421.36 285.93 421.61 286.53 421.66 287.13 421.01 288.18 420.81 289.18 420.66 289.53 420.36 289.73 419.46 289.68 418.36 289.53 417.46 289.53 417.11 290.03 415.86 289.68 415.21 289.28 414.41 287.53 414.06 287.28 413.46 287.13 412.66 287.08 412.41 287.18 412.26 287.43 411.76 287.33 411.31 287.18 410.96 287.03 410.66 286.83 409.86 286.93 409.36 287.18 408.91 287.53 408.11 287.93 407.96 288.08 407.71 288.23 407.26 288.28 406.76 288.28 406.46 288.33 406.16 288.38 405.81 288.48 404.56 289.03 403.91 289.38 403.66 289.68 403.46 290.13 402.96 290.48 400.96 291.38 400.16 291.98 399.56 292.28 398.56 292.68 396.66 293.28 396.36 293.33 396.01 293.28 395.91 293.03 395.91 292.68 395.81 292.38 395.11 292.13 394.26 291.63 393.96 291.63 392.56 291.83 391.81 291.83 391.01 291.73 390.31 291.63 389.71 291.48 389.01 291.58 388.31 291.68 387.66 291.63 387.11 291.48 386.76 291.18 386.16 290.38 385.76 290.33 385.36 290.03 385.11 289.58 384.81 289.18 384.16 289.18 384.01 288.83 383.66 288.38 383.11 288.03 382.26 287.88 381.76 287.93 381.06 288.23 380.71 288.28 380.16 288.28 379.51 288.38 378.96 288.38 378.56 288.33 378.06 288.18 377.71 288.18 377.31 288.23 376.46 288.43 375.46 288.58 373.56 289.08 372.91 289.48 372.46 290.03 371.86 291.63 371.36 291.93 368.86 292.78 368.56 292.88 368.31 293.08 367.91 293.43 367.66 293.58 367.11 293.73 365.26 294.13 364.71 294.13 363.86 294.13 363.16 294.43 362.41 294.83 360.96 295.18 359.91 295.78 359.21 295.78 358.56 295.43 358.46 294.88 358.76 293.78 358.51 293.88 358.41 293.93 358.31 293.93 358.26 294.08 358.01 293.73 358.21 292.98 357.96 292.63 357.76 292.53 357.16 292.43 356.96 292.33 356.91 292.18 357.01 292.03 357.16 291.93 357.26 291.68 357.41 291.53 357.61 291.43 357.86 291.38 358.21 291.33 358.21 291.23 357.96 291.08 358.01 290.33 358.11 289.98 358.61 289.83 359.21 289.68 359.46 289.33 359.51 288.58 359.31 288.33 358.51 287.98 358.26 287.73 358.26 287.58 358.41 287.48 358.61 287.38 358.76 287.33 358.76 286.13 358.96 285.48 359.51 285.53 359.66 285.43 359.61 285.23 359.51 285.03 359.46 285.08 358.96 284.93 358.86 284.83 358.81 284.73 358.71 284.63 358.46 284.53 358.31 284.68 358.11 284.73 357.81 284.78 357.46 284.73 357.16 284.68 357.11 284.63 357.16 284.48 357.21 284.23 357.46 283.93 358.01 283.78 358.71 283.73 359.21 283.78 359.16 283.48 358.86 283.23 358.51 283.03 358.26 282.83 358.21 282.48 358.51 282.18 359.21 281.58 359.41 281.33 359.41 281.08 359.11 280.88 358.46 280.88 358.01 280.98 357.71 281.23 357.21 281.73 357.06 281.48 356.56 280.53 356.36 280.38 355.96 280.08 355.26 280.08 354.86 279.68 354.96 279.28 355.71 279.43 356.71 278.98 356.96 278.78 357.06 277.93 357.46 277.28 357.61 277.13 358.26 276.83 358.36 276.58 358.21 276.23 358.26 275.98 358.66 275.63 360.21 275.18 360.76 274.83 362.31 273.13 362.41 272.83 362.31 272.53 361.91 272.73 361.41 273.13 361.01 273.28 360.71 273.33 359.76 273.38 359.26 273.43 358.91 273.53 358.51 273.53 357.96 273.48 357.46 273.38 357.06 273.23 356.81 272.98 356.71 272.78 357.56 272.83 358.01 272.48 358.26 271.58 358.11 271.38 357.51 270.88 357.46 270.68 357.76 270.58 358.21 270.68 358.56 270.88 358.76 270.98 359.21 270.78 359.51 270.58 360.01 270.08 360.11 270.08 360.51 270.18 360.76 269.08 360.66 268.53 360.01 268.48 359.76 267.88 358.76 268.48 358.31 268.48 358.26 268.28 358.46 267.78 358.11 267.93 357.31 268.18 356.96 268.38 356.01 267.88 356.31 267.28 356.91 266.63 356.96 266.08 356.36 266.43 356.01 266.73 355.81 267.08 355.56 268.08 355.31 268.43 354.71 268.63 353.66 268.83 353.71 268.63 353.71 268.43 353.61 268.23 353.41 268.08 354.31 267.93 354.71 267.58 354.76 267.18 354.41 266.83 354.26 266.93 354.01 266.98 353.71 266.98 353.41 266.83 353.21 266.93 352.91 267.08 352.16 267.23 351.96 266.88 351.91 265.78 351.46 266.93 351.41 267.48 352.16 267.78 352.56 267.68 353.06 267.33 353.41 267.23 353.71 267.38 353.56 267.63 353.21 267.83 352.91 267.98 352.66 267.88 352.26 268.68 352.01 268.78 351.46 268.08 351.16 267.98 350.86 268.13 350.61 268.48 350.41 269.08 350.26 269.18 349.86 269.28 349.16 269.43 348.86 269.08 349.16 268.78 349.66 268.53 349.91 268.23 349.96 267.78 350.16 267.48 350.56 267.08 350.61 266.93 350.41 266.73 349.86 266.83 349.96 266.38 351.16 264.83 351.66 263.68 352.31 263.23 352.56 263.03 352.71 262.38 353.36 261.88 353.66 260.93 353.91 260.68 354.11 260.53 354.81 260.23 355.06 260.03 355.41 259.58 355.71 259.33 354.21 259.68 353.26 260.63 352.16 262.48 350.91 263.73 350.41 264.73 350.21 264.93 349.91 265.18 349.31 265.53 349.11 265.73 349.16 266.03 348.81 265.63 348.81 264.78 348.66 264.33 348.51 264.18 348.41 264.18 348.26 264.18 348.01 264.08 347.86 263.93 348.06 263.78 348.26 263.63 348.26 263.53 347.96 263.08 348.71 261.03 348.66 260.68 347.41 261.43 346.96 261.83 347.16 262.18 347.56 261.88 347.61 261.73 347.71 262.13 346.51 262.98 346.16 263.43 345.61 263.28 345.21 263.23 344.86 263.08 344.66 262.88 344.66 262.63 344.91 262.43 345.66 262.03 345.21 261.88 344.81 261.93 344.46 262.08 344.11 262.03 343.86 261.83 343.81 261.53 343.96 261.23 344.36 261.13 343.96 260.68 343.71 260.23 343.71 259.73 344.21 258.48 344.16 258.18 343.61 258.43 343.56 257.73 343.71 257.33 344.36 257.03 344.36 256.63 344.11 256.03 343.91 256.03 343.61 256.63 343.61 256.83 343.41 256.83 343.56 255.73 343.46 255.18 342.86 254.88 342.81 254.98 342.66 255.13 342.61 255.18 342.11 254.58 342.01 254.88 341.81 255.23 341.46 255.53 341.01 255.73 340.71 255.98 340.61 256.33 340.81 256.63 341.36 256.63 341.26 256.93 341.01 257.18 340.36 257.68 339.91 258.18 339.56 258.38 339.01 258.38 338.31 257.88 337.91 257.18 337.81 256.53 338.16 256.03 338.51 255.88 339.46 255.58 339.91 255.38 340.26 255.18 340.56 254.93 340.76 254.68 340.86 254.38 341.26 253.93 342.06 253.48 342.71 252.98 342.61 252.48 342.56 252.58 342.41 252.73 342.36 252.78 341.91 252.58 341.86 251.98 341.36 251.78 340.86 253.68 340.36 254.13 338.61 255.08 337.56 255.93 335.31 256.98 334.56 257.13 334.21 256.83 334.16 256.03 333.96 256.18 333.61 256.28 333.26 256.28 332.21 255.98 332.01 256.08 331.91 256.33 331.71 256.63 331.41 256.28 331.46 255.03 331.21 254.83 330.66 254.98 330.16 255.28 329.96 255.38 329.56 254.93 329.51 254.78 329.56 254.63 329.76 254.33 329.76 254.13 329.66 254.13 329.51 254.13 329.36 254.08 329.26 254.03 329.01 253.78 328.71 253.58 328.41 253.53 328.01 253.73 327.76 253.48 327.66 251.63 327.51 251.43 327.26 251.43 327.06 251.48 326.81 251.58 326.41 251.48 326.16 251.38 325.86 251.23 325.66 251.03 325.56 250.83 324.61 250.98 324.26 250.68 323.96 250.38 323.31 250.48 323.11 250.28 322.91 249.73 322.86 249.48 323.06 249.23 323.41 249.13 323.86 249.13 324.11 249.03 324.21 248.78 324.06 248.58 323.71 248.38 323.21 248.33 322.76 248.38 322.56 248.58 322.36 249.03 322.01 248.98 321.86 248.93 321.51 249.23 321.41 249.48 321.41 250.08 321.66 251.03 321.21 252.03 320.91 252.38 320.41 252.48 320.21 252.28 320.31 251.53 320.21 251.23 319.61 251.48 319.11 251.78 318.46 252.48 318.21 252.48 318.21 252.23 318.01 252.13 317.76 252.18 317.51 252.38 317.26 252.38 317.46 251.98 318.26 251.28 318.46 250.88 318.76 250.53 319.26 250.23 319.66 249.93 319.56 249.58 319.06 249.38 318.46 249.43 317.91 249.63 317.51 249.88 317.36 250.28 317.31 250.83 317.11 251.28 316.51 251.53 316.46 251.28 316.11 251.28 315.71 251.48 315.56 251.73 315.51 252.08 315.46 252.23 315.31 252.38 315.16 252.48 314.71 252.58 314.61 252.63 314.51 252.78 314.01 252.98 313.86 253.13 313.96 253.23 314.16 253.28 314.31 253.28 314.36 253.23 314.76 253.33 315.11 253.33 315.21 253.43 315.06 253.73 314.61 254.03 313.91 254.38 313.61 254.68 314.51 254.83 314.51 254.98 314.36 255.13 314.21 255.18 313.41 255.18 312.96 255.38 312.71 255.58 312.61 255.83 312.66 256.13 312.41 255.93 312.21 255.73 312.16 255.48 312.31 255.28 313.01 254.88 313.11 254.78 312.46 254.03 312.21 253.63 312.51 253.43 312.76 253.38 312.91 253.28 312.91 253.18 312.76 253.08 312.56 253.03 312.46 253.13 312.41 253.33 311.76 253.63 311.61 253.83 311.81 253.98 311.96 254.18 312.01 254.78 311.96 254.98 311.81 255.03 311.21 255.13 310.96 255.18 310.41 254.98 310.06 255.03 309.81 255.23 309.76 255.48 309.86 255.63 310.36 255.83 310.46 255.93 310.36 256.23 310.21 256.53 310.71 256.43 310.71 256.63 310.56 256.83 310.21 256.93 309.76 256.93 309.41 256.88 309.36 256.68 309.36 256.48 309.11 256.28 308.91 256.08 308.66 255.73 308.41 255.53 306.91 254.68 306.26 254.08 305.81 253.78 305.46 253.43 305.81 253.08 306.36 252.83 306.66 252.58 306.31 252.63 306.01 252.68 305.71 252.63 305.41 252.58 305.31 252.68 305.21 252.73 305.06 252.73 304.91 252.78 304.81 252.53 304.46 252.13 304.46 251.88 304.56 251.63 304.71 251.53 304.66 251.43 301.66 249.53 301.56 249.48 301.81 248.98 301.86 248.93 301.66 248.83 300.61 248.43 299.16 247.23 298.46 246.98 297.86 247.13 297.26 247.03 295.91 246.43 295.76 246.43 295.61 246.38 295.16 246.33 295.21 246.38 295.11 246.43 294.91 246.43 294.81 246.43 294.66 246.43 294.66 246.38 294.61 246.28 294.46 246.23 293.76 246.23 293.36 246.18 293.21 246.08 293.16 245.93 293.01 245.78 292.81 245.73 292.76 245.68 292.56 245.33 292.06 245.08 290.86 244.78 289.76 244.53 289.46 244.38 288.76 243.63 288.71 242.98 288.51 242.83 288.06 242.73 287.81 242.88 287.76 243.08 287.81 243.33 287.01 242.98 286.66 242.83 286.76 242.63 287.56 242.33 287.76 242.13 287.81 241.88 287.01 241.13 286.56 241.08 286.26 240.98 286.21 240.78 286.41 240.63 286.76 240.78 287.06 240.73 287.36 240.58 287.76 240.28 287.81 240.23 286.11 239.48 285.71 239.18 285.91 238.83 285.66 238.93 285.46 238.93 285.31 238.88 285.01 238.83 284.26 238.93 284.06 238.98 283.66 238.88 283.26 238.73 282.96 238.53 282.86 238.38 282.96 238.13 283.26 237.93 283.66 237.93 284.16 238.08 284.51 238.08 284.96 237.93 285.36 237.73 285.46 237.53 285.01 237.38 282.91 237.38 282.06 237.23 281.96 237.03 282.21 236.83 282.61 236.63 282.96 236.63 283.36 236.73 283.86 236.88 284.31 236.93 284.76 236.88 284.31 236.58 283.56 236.28 282.71 236.13 281.91 236.23 282.01 235.88 281.91 234.88 281.86 234.73 281.71 234.58 281.66 234.38 281.81 234.23 282.16 234.13 282.31 234.08 282.41 233.98 282.46 233.68 282.36 233.38 282.16 233.08 281.81 232.88 281.36 232.73 280.96 232.78 280.26 233.03 280.86 231.83 280.86 231.63 280.61 231.38 280.31 230.83 280.16 230.73 279.26 230.53 278.66 229.98 278.16 229.33 277.61 228.83 277.26 228.78 276.36 229.03 275.56 229.13 275.46 229.08 275.36 228.68 275.21 228.53 274.91 228.38 274.56 228.03 274.46 227.83 274.91 227.08 275.41 227.03 275.76 227.13 276.06 227.08 276.31 226.68 276.46 226.73 276.66 226.78 276.81 226.78 276.91 226.58 277.51 226.18 277.81 225.38 278.06 225.18 278.61 224.88 278.86 224.53 278.86 224.18 278.46 223.78 278.26 223.93 278.11 224.13 277.96 224.48 277.11 224.28 276.81 224.48 276.71 224.88 276.31 225.33 276.01 224.93 275.91 224.68 275.86 224.43 275.71 224.38 275.46 224.53 274.51 225.18 274.26 225.23 273.91 225.23 273.81 225.08 273.96 224.78 274.46 224.28 276.11 223.03 276.31 222.63 276.01 222.63 274.91 223.03 274.76 222.73 275.01 222.43 275.46 222.13 275.66 221.83 275.41 221.63 274.86 221.58 273.66 221.58 273.31 221.58 272.76 221.48 272.46 221.48 271.46 221.48 271.01 221.33 270.76 221.13 270.86 220.93 271.46 220.88 270.91 220.53 270.66 219.78 270.31 219.43 270.21 219.48 269.81 219.73 269.56 219.53 268.81 219.28 268.41 219.08 268.41 219.43 267.86 219.18 267.91 218.88 268.66 218.28 267.96 217.98 267.51 218.23 267.36 218.73 267.31 219.08 266.91 218.98 266.86 218.78 266.91 218.58 266.71 218.43 266.36 218.33 266.11 218.28 265.91 218.18 265.91 217.93 266.01 217.88 266.61 217.43 266.71 217.38 266.91 217.23 267.26 216.93 267.51 216.83 267.96 216.88 268.16 216.73 268.36 216.43 268.56 216.23 268.91 215.98 269.06 215.68 268.96 215.48 268.41 215.53 268.31 215.33 268.66 214.53 268.71 213.88 268.66 213.63 268.41 213.38 268.06 213.68 267.06 216.08 266.56 215.78 266.36 215.28 266.36 214.28 266.01 214.38 265.91 214.38 265.56 214.18 265.56 213.93 265.86 213.73 266.36 213.68 266.91 213.63 267.01 213.98 267.06 214.73 267.31 214.73 267.71 213.28 267.51 212.83 267.26 213.03 267.01 213.13 266.71 213.18 266.36 213.28 265.51 213.58 265.21 213.68 265.91 211.48 265.91 210.78 265.66 210.78 265.66 211.08 265.46 211.43 265.16 211.78 264.86 211.98 264.46 212.08 264.06 212.18 263.71 212.13 263.61 211.93 263.76 211.58 264.01 211.28 264.11 210.98 263.81 210.68 263.51 210.53 263.11 210.48 262.76 210.38 262.46 210.13 262.46 210.68 261.86 209.98 261.76 209.78 261.61 209.68 260.76 209.58 260.61 209.48 260.71 209.33 261.51 208.78 261.71 208.58 261.81 208.33 261.76 208.08 261.51 207.88 261.11 208.33 260.81 208.63 260.41 208.78 260.61 207.78 260.66 207.78 261.01 207.63 261.16 207.53 261.26 207.43 261.11 207.38 260.96 207.38 260.81 207.33 260.76 207.38 260.41 207.13 260.16 206.78 259.91 205.88 259.61 206.23 259.66 210.18 259.46 210.58 259.01 210.88 258.56 210.98 258.36 210.83 258.56 210.63 259.01 210.48 259.01 210.33 258.36 210.23 258.21 209.88 258.36 209.43 258.91 208.58 258.76 208.33 258.11 208.18 257.51 208.88 257.41 209.13 257.61 209.68 257.66 209.98 257.41 210.13 256.71 209.98 256.66 209.38 256.96 208.28 256.51 208.53 256.16 209.23 255.81 209.43 255.51 209.38 255.31 209.23 255.16 209.08 255.06 208.68 254.91 208.53 254.76 208.43 254.66 208.28 254.46 207.93 254.46 207.78 254.56 207.48 254.61 207.23 254.66 207.13 254.76 207.08 254.91 207.03 255.11 207.03 255.81 206.53 256.06 206.28 256.06 205.98 255.91 206.03 255.56 206.08 255.56 205.33 255.36 205.33 255.21 205.53 255.01 205.53 254.71 205.48 254.46 205.33 254.26 205.68 254.86 206.18 254.66 206.48 253.61 206.13 253.21 205.93 253.06 205.63 252.91 205.48 252.66 205.33 252.51 205.18 252.71 204.98 252.91 204.98 253.21 205.08 253.41 205.18 253.51 205.28 253.66 205.03 253.41 204.88 252.96 204.78 252.61 204.63 252.31 204.33 252.26 204.03 252.41 203.38 252.71 203.43 252.81 203.48 253.06 203.23 253.11 202.93 253.06 202.33 253.66 202.73 253.46 204.03 254.01 204.43 254.31 203.78 254.51 203.48 254.91 203.28 254.96 203.33 255.01 203.33 255.11 203.38 255.01 203.03 254.61 202.53 254.11 202.03 253.66 201.83 253.51 201.73 253.61 201.48 253.81 201.23 254.01 201.08 254.31 201.08 255.46 201.08 255.56 201.08 255.86 200.93 256.06 200.88 256.21 200.93 256.51 201.08 256.61 201.08 257.11 201.03 257.11 200.83 256.96 200.58 256.96 200.38 257.21 200.28 258.41 199.98 258.71 199.88 258.91 199.73 259.11 199.53 259.21 199.33 259.36 199.43 259.91 199.63 259.86 199.28 259.36 198.83 259.21 198.58 259.36 198.33 259.66 198.08 259.86 197.83 259.71 197.58 258.01 199.43 257.31 199.88 256.66 200.18 255.61 200.53 254.56 200.73 254.01 200.48 253.76 200.48 253.26 201.13 253.06 201.33 252.81 201.48 252.66 201.53 252.06 201.53 251.66 201.63 250.86 202.13 250.26 202.23 249.86 202.23 249.31 202.08 249.11 202.08 248.76 202.18 248.61 202.13 248.56 201.98 248.51 201.83 248.61 201.73 248.91 201.38 248.96 201.18 248.96 200.28 248.56 200.58 247.51 202.88 247.16 202.88 246.86 202.93 246.66 203.03 246.51 203.18 246.36 202.83 245.36 201.73 245.46 201.63 245.86 201.63 246.81 201.48 247.01 201.48 247.11 201.48 247.16 201.23 247.06 201.18 246.81 201.08 245.76 200.93 245.51 200.88 245.26 200.88 244.96 200.83 244.86 200.68 244.71 200.38 244.26 200.58 243.36 200.13 243.01 199.83 242.86 199.53 243.01 199.38 243.46 199.08 243.56 198.98 243.56 198.18 243.26 197.53 243.01 197.23 242.66 197.03 242.06 197.03 241.86 197.28 241.71 197.58 241.31 197.78 241.41 195.78 241.51 195.58 241.66 195.38 242.11 195.08 242.21 195.03 243.56 194.33 244.56 193.68 244.71 193.53 244.51 193.18 243.71 193.03 243.56 192.78 243.46 192.48 243.31 192.23 242.96 192.03 242.46 192.03 241.31 192.73 241.16 192.78 240.91 192.78 240.61 192.78 240.41 192.78 240.26 192.68 240.21 192.48 240.16 192.28 240.21 192.13 240.01 192.33 239.71 192.48 239.36 192.58 238.96 192.53 238.61 192.48 238.21 192.63 237.86 192.83 237.71 192.98 237.81 193.48 237.76 193.68 237.51 193.93 237.21 194.03 236.86 194.13 236.56 194.28 236.36 194.43 236.16 194.43 236.16 194.28 236.11 194.18 235.91 194.03 235.11 195.33 235.31 195.63 235.16 196.13 234.86 196.63 234.56 196.93 233.71 195.68 233.61 195.28 233.76 195.23 234.56 195.68 234.76 195.43 234.66 195.13 234.46 194.93 234.11 194.73 233.66 194.68 233.11 194.68 232.66 194.73 232.36 194.73 231.91 194.63 231.81 194.58 231.26 194.33 230.81 194.23 230.16 194.18 229.81 194.23 229.51 194.13 229.26 193.83 229.06 194.13 228.61 193.98 227.91 193.48 227.76 193.68 227.46 193.88 227.16 194.03 227.01 193.88 226.91 193.13 226.81 192.98 226.46 192.88 226.11 192.93 225.81 192.88 225.71 192.58 225.61 192.43 225.36 192.33 225.01 192.28 224.61 192.23 224.21 192.33 223.61 192.53 223.36 192.58 223.16 192.53 223.01 192.28 222.86 192.23 222.91 192.23 222.66 192.23 222.41 192.23 222.36 192.28 222.31 192.38 222.11 192.38 221.86 192.33 221.71 192.23 221.51 192.18 221.36 192.13 221.16 192.18 221.06 192.38 221.26 193.18 220.96 193.13 220.76 192.98 220.66 192.83 220.61 192.68 220.36 192.68 220.21 192.93 219.86 192.98 219.41 192.88 218.86 192.88 218.26 192.98 218.11 193.08 218.31 193.83 218.46 194.08 218.51 194.38 218.21 194.63 217.86 194.83 217.46 194.93 217.11 194.93 216.76 194.78 216.36 194.68 215.81 194.68 215.31 194.58 215.11 194.33 215.16 194.03 215.26 193.78 215.46 193.58 215.81 193.38 217.16 192.83 217.71 192.53 217.96 192.03 217.56 192.08 217.26 192.13 216.66 192.38 216.81 191.78 217.06 191.58 217.56 191.63 218.11 191.08 218.26 190.43 218.21 189.13 217.86 189.33 217.71 189.53 217.76 190.08 217.11 191.13 216.56 190.98 216.21 190.48 216.01 189.93 216.01 189.53 215.81 189.53 215.76 189.68 215.56 189.98 215.36 189.53 215.66 188.83 215.36 188.48 214.91 190.43 214.46 190.78 214.31 190.48 214.36 190.18 214.71 189.63 214.76 189.33 214.71 188.28 214.46 188.28 214.51 188.83 214.41 189.08 214.06 189.23 213.71 188.58 213.61 187.88 213.26 188.28 212.96 189.88 212.76 189.88 212.81 188.38 212.61 188.23 212.46 188.38 212.31 188.73 212.06 188.98 211.96 189.38 211.86 189.53 211.61 189.53 211.61 188.93 211.41 188.93 211.16 189.53 210.96 189.63 210.61 189.73 210.41 189.63 210.21 189.48 209.91 189.33 209.61 189.43 209.36 189.48 209.16 189.58 209.01 189.78 209.01 189.93 209.16 190.03 209.36 190.13 209.46 190.28 209.36 190.38 209.16 190.38 208.91 190.33 208.81 190.18 208.76 189.98 208.71 189.83 208.56 189.68 208.36 189.53 208.61 189.43 208.91 189.28 209.01 189.08 208.41 188.98 208.11 188.68 207.81 188.63 207.61 188.68 206.86 189.13 206.41 189.58 206.21 190.08 205.86 190.08 205.11 191.23 205.01 190.78 205.11 190.28 205.56 189.33 204.96 189.53 204.66 189.98 204.51 190.43 204.26 190.78 204.31 190.13 204.41 189.88 205.16 189.08 205.31 188.83 205.31 188.48 205.11 188.48 204.91 188.88 204.46 189.33 203.91 189.78 203.41 190.08 202.61 190.28 202.36 190.03 202.16 189.63 201.66 189.33 201.21 189.88 200.46 189.78 200.16 189.68 199.91 189.43 199.51 189.73 199.11 189.78 198.86 189.63 198.81 189.23 198.76 189.43 198.71 189.83 198.66 189.98 198.46 190.03 198.26 190.08 198.06 190.03 198.01 189.93 197.86 189.78 197.51 189.68 197.11 189.58 196.71 189.53 196.56 189.58 196.41 189.73 196.26 189.88 195.91 189.53 195.86 189.43 195.96 190.23 195.91 190.63 195.61 190.78 195.36 189.88 195.01 189.58 194.11 189.43 193.76 189.43 193.61 189.43 193.26 189.78 193.26 190.03 193.16 190.13 192.76 190.08 192.56 190.13 192.21 190.28 192.11 190.33 192.26 190.58 192.21 190.68 192.06 190.78 190.26 191.33 190.21 191.18 190.16 191.03 190.01 190.93 189.86 190.93 189.46 190.98 189.46 191.08 189.51 191.18 189.41 191.33 189.01 191.33 188.66 191.33 188.41 191.33 188.16 191.53 188.06 191.83 188.06 192.03 187.96 192.13 187.51 191.93 187.31 191.78 187.01 191.28 186.51 190.88 186.06 190.28 185.96 189.93 185.81 189.88 185.66 189.88 185.56 189.98 185.61 190.13 185.76 190.48 185.81 190.63 185.71 190.93 185.26 191.23 185.06 191.73 184.31 192.58 183.91 191.93 183.66 191.93 183.51 192.18 183.46 192.48 183.51 192.73 183.56 192.78 183.76 193.03 183.96 193.33 184.31 195.33 184.26 195.78 184.01 196.03 183.71 196.28 183.36 196.83 183.06 197.03 182.76 196.83 182.41 196.33 182.31 196.18 181.86 196.23 181.16 196.48 180.81 196.53 180.16 196.73 179.81 197.23 179.66 198.28 179.86 198.28 180.76 198.08 181.66 198.58 182.31 199.43 182.81 200.98 182.76 201.43 182.41 201.83 181.36 202.13 180.96 202.13 180.66 202.03 180.41 201.88 180.26 201.73 180.06 201.73 180.06 202.13 179.76 202.48 179.01 203.18 178.61 203.68 178.41 203.78 177.91 203.88 177.76 203.93 177.06 204.38 176.61 204.93 176.06 206.18 175.91 205.93 175.51 205.53 175.26 205.33 175.01 205.33 174.76 205.58 174.61 205.68 174.36 205.78 174.61 206.03 175.06 206.43 175.26 206.73 175.31 206.98 175.26 207.18 175.01 207.63 175.06 208.73 174.81 209.03 174.71 208.98 174.46 208.98 174.21 208.98 173.96 209.03 173.86 209.08 173.56 209.43 173.36 209.43 173.26 209.23 173.31 209.03 173.31 208.88 173.11 208.68 172.31 210.78 171.66 211.38 171.36 210.78 172.31 208.28 172.91 207.83 174.21 207.03 173.11 207.23 172.31 207.83 171.56 208.53 170.81 209.03 170.81 208.73 170.96 208.53 171.46 208.18 170.71 208.28 170.31 208.58 169.76 209.33 169.31 209.68 169.16 209.88 169.16 210.13 169.26 210.33 169.41 210.48 169.66 210.53 169.71 210.53 168.76 210.53 168.31 210.58 168.11 210.63 167.06 210.93 166.66 210.98 166.66 211.08 167.11 211.18 167.71 211.18 168.26 211.13 168.71 210.98 168.91 211.33 169.01 211.73 168.91 212.08 168.36 212.63 168.26 213.13 167.91 213.38 167.41 213.43 166.36 213.43 165.91 213.53 164.96 214.18 164.56 214.28 165.36 214.08 166.11 213.78 166.91 213.63 167.76 213.83 168.11 214.38 167.96 214.63 167.86 214.68 167.36 214.63 166.86 214.63 166.46 214.73 164.21 215.38 162.81 215.93 162.41 216.23 162.16 216.88 161.96 217.23 161.71 217.48 161.66 217.53 161.56 217.53 161.31 217.53 161.26 217.53 160.91 217.78 160.81 217.88 160.81 218.03 160.96 218.03 161.31 217.98 161.46 217.93 161.41 218.23 161.26 218.48 160.81 218.43 159.61 218.38 159.36 218.43 159.41 217.93 159.56 217.73 161.36 216.63 162.01 216.13 162.26 215.68 161.91 215.83 160.91 216.33 160.41 216.43 159.91 216.23 158.46 215.28 158.21 215.03 158.11 214.68 158.16 213.98 158.06 213.68 157.81 213.43 157.41 213.33 157.41 213.63 157.71 214.18 157.91 218.03 157.51 218.68 156.81 218.53 156.41 218.28 156.21 217.93 155.91 217.03 155.91 216.73 156.06 216.48 156.26 216.33 156.71 216.18 156.91 216.08 156.36 215.88 156.01 215.58 155.71 215.18 155.36 214.08 155.06 213.73 154.61 213.68 154.61 213.13 154.51 213.03 154.26 213.03 154.06 212.98 153.91 212.88 153.81 212.73 153.81 213.48 153.56 213.38 153.31 213.18 153.06 212.98 152.96 212.83 153.06 212.68 153.21 212.58 153.41 212.43 153.41 212.23 152.86 212.53 152.51 212.63 152.36 212.48 152.26 212.28 151.86 211.93 151.56 211.28 150.71 210.43 150.36 209.58 150.01 209.18 149.06 208.48 148.61 207.98 148.51 207.43 148.66 206.28 148.46 206.28 148.06 206.83 147.86 206.58 147.91 206.18 147.86 205.98 147.71 206.28 147.46 206.48 147.01 206.43 146.76 206.68 146.66 207.03 146.61 207.33 146.26 206.88 146.26 205.98 146.56 205.08 147.01 204.63 147.11 204.78 147.21 204.98 147.16 205.18 147.01 205.33 147.26 205.28 147.86 205.23 148.06 205.13 148.11 204.98 147.76 204.63 147.66 204.43 147.71 204.28 148.01 204.13 148.06 204.03 147.96 203.93 147.71 203.73 147.66 203.63 147.51 203.48 147.16 203.48 146.81 203.58 146.61 203.68 146.26 203.18 146.21 203.03 146.26 202.83 146.51 202.53 146.61 202.33 144.56 204.43 144.46 203.88 144.51 203.63 144.16 203.63 144.16 204.83 144.41 205.18 144.36 205.33 143.96 205.48 143.96 205.58 145.26 206.08 145.61 207.03 145.46 208.13 144.96 209.03 144.86 208.93 144.66 208.78 144.56 208.68 144.41 209.13 144.46 209.33 144.81 209.53 145.81 209.13 146.21 209.03 146.21 209.73 146.66 209.13 146.91 208.83 147.46 208.68 147.36 209.58 147.21 209.98 146.81 210.33 146.71 210.38 146.31 210.43 146.21 210.48 145.61 211.48 145.21 211.33 145.21 211.08 145.36 210.78 145.41 210.48 145.21 210.83 145.01 211.33 144.76 211.83 144.26 212.03 143.81 211.93 143.61 211.63 143.56 210.83 143.51 210.58 143.36 210.33 143.31 210.08 143.46 209.83 143.61 209.63 143.76 209.23 143.76 209.03 143.56 207.73 143.76 207.33 143.91 207.38 144.26 207.43 144.41 207.43 144.41 207.13 144.26 206.88 144.06 206.63 143.76 206.38 143.61 206.58 143.41 206.78 143.16 206.93 142.96 207.03 142.76 207.03 142.76 206.53 142.61 206.33 142.26 206.43 141.71 207.33 141.61 207.68 141.31 208.08 140.86 208.48 140.31 208.68 141.46 207.28 141.41 206.98 141.06 206.98 140.86 207.23 140.71 207.53 140.71 207.73 140.51 207.88 140.16 207.93 139.91 208.08 140.11 208.38 139.96 208.33 139.86 208.28 139.81 208.23 139.71 208.18 139.46 208.18 139.66 208.58 139.66 208.73 139.36 208.78 139.01 208.78 138.76 208.63 138.61 208.48 138.76 208.33 138.86 207.98 138.66 207.43 138.36 206.88 138.06 206.63 138.11 206.78 138.06 206.93 137.91 207.08 137.66 207.13 136.96 205.73 136.86 205.28 137.06 205.48 137.31 205.88 137.46 206.08 137.66 205.88 137.81 205.98 137.86 206.08 138.06 206.08 138.06 205.83 138.01 205.58 137.86 205.38 137.56 205.23 137.41 205.03 137.36 204.53 137.26 204.33 137.06 204.18 136.36 203.88 136.21 203.68 136.26 202.88 136.11 202.88 135.76 202.93 135.61 202.98 135.81 202.58 135.81 202.43 135.61 202.23 135.16 202.48 134.66 202.28 134.11 201.88 133.41 201.63 133.06 201.63 132.86 201.73 132.61 201.78 132.21 201.63 131.96 201.43 131.86 201.18 131.86 200.88 132.01 200.68 131.66 200.58 131.26 200.58 130.41 200.58 130.61 200.38 130.86 200.23 131.21 200.18 131.61 200.28 132.01 200.13 132.11 200.08 132.26 199.98 132.26 199.83 132.21 199.73 132.21 199.63 132.36 199.38 132.56 199.23 133.11 198.98 133.31 198.78 132.96 198.78 132.31 198.98 131.81 199.23 131.26 199.03 131.11 198.98 131.01 198.88 131.16 198.78 131.46 198.78 131.81 198.88 132.01 198.93 132.26 198.38 132.81 198.38 133.46 198.43 134.01 198.28 134.26 198.28 134.66 198.48 135.56 198.58 136.46 198.58 136.86 198.53 137.01 198.53 137.71 198.68 138.06 198.68 138.21 198.53 138.11 198.33 137.86 198.13 137.56 198.08 136.66 198.03 136.21 197.98 136.06 197.83 136.16 197.68 136.86 197.13 137.31 197.18 137.96 197.48 138.36 197.58 138.71 197.48 139.01 197.38 139.31 197.18 139.46 197.03 138.46 197.23 138.01 197.08 137.66 196.88 137.41 196.63 137.26 196.33 136.61 196.43 136.01 196.38 135.46 196.38 135.01 196.63 134.56 196.48 133.91 196.33 133.51 196.23 133.66 196.08 133.46 195.93 133.36 195.83 133.21 195.78 133.06 195.88 132.91 196.03 132.86 196.18 132.81 196.33 132.61 196.33 132.36 196.18 132.26 196.33 132.06 196.53 131.61 196.43 131.36 196.13 131.41 195.78 131.56 195.48 131.61 195.18 131.26 195.33 130.96 195.53 130.61 195.98 130.41 195.98 130.41 195.68 130.26 195.78 130.21 195.88 130.21 195.48 131.16 194.33 131.41 193.83 131.21 193.83 131.01 194.08 130.66 194.13 129.81 194.03 129.31 193.88 129.06 193.88 129.01 193.98 128.96 194.08 128.61 194.43 128.36 194.03 128.81 192.13 128.01 192.68 127.56 192.73 127.21 192.48 127.21 191.68 127.11 191.23 126.61 191.23 126.61 189.48 126.81 189.03 126.96 188.88 127.46 188.58 127.61 188.33 127.51 188.18 127.26 187.73 127.21 187.48 127.06 187.68 127.01 188.13 126.81 188.28 126.51 188.28 126.26 188.18 126.11 188.08 126.01 187.98 125.76 188.28 125.86 188.93 125.76 189.23 125.61 189.23 125.21 188.88 124.81 188.68 124.56 188.43 124.56 188.08 125.16 187.18 125.26 186.63 124.81 186.33 124.76 187.03 124.51 187.33 123.96 187.58 123.96 187.23 123.51 185.88 124.16 180.63 124.81 175.38 124.56 175.38 124.46 175.58 124.26 175.73 124.01 175.83 123.76 175.73 123.71 175.48 123.86 174.83 123.76 174.58 123.61 174.58 123.71 174.78 123.76 174.93 123.66 175.08 123.36 175.18 123.61 175.48 123.26 176.18 123.51 176.48 123.81 176.73 123.91 176.93 123.81 177.08 123.41 177.43 123.36 177.48 123.26 177.48 122.86 177.48 122.61 177.58 122.51 177.73 122.56 177.93 122.66 178.08 123.06 178.18 123.51 178.23 123.91 178.33 124.16 178.53 124.11 178.73 123.66 179.53 123.51 179.73 123.56 181.48 123.41 181.83 123.06 182.13 122.91 182.33 122.86 182.93 122.56 183.23 122.71 183.18 123.06 183.13 123.16 183.13 123.01 183.63 122.96 183.83 122.46 183.68 121.96 183.78 121.66 184.08 121.61 184.43 121.41 184.33 121.36 184.23 121.21 184.23 121.21 184.68 121.01 184.68 120.71 184.53 120.56 184.68 120.41 185.28 119.61 186.13 119.36 185.78 119.36 184.98 119.21 184.68 118.81 184.78 118.46 184.43 118.26 183.93 118.21 183.58 118.16 183.48 117.86 183.28 117.81 183.23 117.81 183.08 117.96 182.88 118.01 182.78 118.36 180.93 118.96 180.03 119.46 178.53 119.21 178.13 119.11 178.63 117.41 181.88 117.31 182.38 117.16 182.58 116.81 182.68 116.56 182.68 116.31 182.63 116.06 182.63 115.81 182.68 115.81 182.83 115.96 183.08 116.11 183.28 116.21 183.28 116.06 183.48 115.91 183.58 115.21 183.63 115.61 181.43 115.31 181.68 114.86 182.23 114.61 182.48 114.31 182.43 114.11 182.43 114.01 182.63 114.06 182.83 114.16 182.88 114.36 182.88 114.61 182.78 114.81 183.68 114.76 183.98 114.21 183.83 114.21 183.73 114.26 183.48 114.21 183.43 114.16 183.38 113.96 183.38 113.76 183.38 113.66 183.28 113.51 183.13 113.46 182.58 113.26 182.58 113.16 182.93 112.46 184.03 112.31 183.88 112.26 183.83 112.06 184.03 111.76 184.18 111.41 184.33 110.96 184.38 110.61 184.33 110.51 184.23 110.61 184.13 110.66 183.93 110.61 183.83 110.41 183.88 110.21 183.98 110.11 184.13 109.16 183.63 109.76 182.78 110.76 181.88 111.26 181.23 110.76 181.43 110.16 182.03 109.66 182.28 109.71 182.18 109.66 181.98 109.66 181.88 109.11 182.18 108.41 182.73 107.86 183.03 107.71 182.68 107.36 182.73 107.16 182.68 107.06 182.48 107.11 182.28 106.86 182.58 106.76 182.83 106.56 183.08 106.16 183.28 105.91 183.18 105.86 183.03 105.91 182.93 106.16 182.78 105.86 182.33 105.71 182.28 105.36 182.48 105.61 182.18 106.46 181.83 106.56 181.63 106.26 181.43 105.86 181.53 105.16 181.88 105.21 182.03 105.16 182.28 105.11 182.28 104.61 182.43 104.36 182.58 104.46 182.73 104.71 182.88 104.61 183.03 104.36 183.08 103.91 183.13 103.71 183.18 103.26 183.58 103.01 183.73 103.01 183.48 103.41 182.88 102.96 183.03 102.56 183.48 102.21 183.53 101.91 183.38 101.91 183.08 102.11 182.83 102.31 182.63 103.06 182.33 103.11 182.23 102.51 182.18 102.31 182.03 102.31 181.73 102.41 181.13 102.66 181.18 102.91 181.18 103.16 181.13 103.41 181.03 103.41 181.18 103.41 181.33 103.31 181.48 103.21 181.63 105.41 179.68 105.41 179.53 105.26 179.43 104.96 179.38 104.81 179.38 104.56 179.53 104.01 179.93 103.61 180.83 103.51 180.73 103.26 180.58 103.21 180.48 102.91 180.58 102.61 180.63 102.41 180.53 102.21 180.38 102.56 180.13 102.76 179.83 103.01 179.13 102.66 179.38 102.41 179.23 102.51 179.13 102.66 178.83 102.41 178.83 98.71 182.08 98.31 182.58 98.11 182.48 98.21 182.23 98.76 181.48 99.01 181.28 100.86 180.08 102.41 178.23 101.91 178.33 101.61 178.53 101.06 179.03 100.46 179.88 99.61 180.53 99.36 180.68 99.11 180.78 98.96 180.88 98.91 181.08 98.76 181.23 98.21 181.78 97.91 181.93 97.71 181.73 97.71 182.08 97.61 182.33 97.36 182.53 96.96 182.68 96.96 182.38 96.76 182.38 96.76 182.58 96.56 182.58 96.66 181.53 96.86 181.08 97.16 180.63 96.91 180.73 96.56 180.98 96.36 181.13 95.91 181.28 95.71 181.23 95.66 181.03 95.81 180.68 95.51 180.83 95.46 181.03 95.41 181.18 95.21 181.33 94.86 181.43 94.76 181.33 94.66 181.23 94.51 181.08 94.36 180.93 93.91 180.48 93.86 180.38 93.96 180.33 94.21 180.28 94.56 180.28 94.81 180.28 94.66 180.18 94.61 180.03 94.66 179.88 94.81 179.73 94.46 179.88 94.36 179.98 94.26 180.08 93.91 179.83 93.86 179.73 93.66 179.73 93.46 180.08 93.26 180.08 93.26 179.68 93.11 179.68 93.06 180.83 92.81 181.38 91.66 181.83 90.91 182.18 90.41 182.33 90.56 181.88 90.06 182.03 89.96 181.98 89.91 181.73 89.76 181.53 89.46 181.48 89.16 181.53 88.91 181.78 88.81 182.08 88.66 181.83 88.56 181.53 88.36 181.33 87.86 181.43 88.06 180.53 87.91 180.18 87.26 179.98 86.91 180.48 86.61 180.33 86.51 180.18 86.41 180.18 86.11 180.38 85.41 179.23 84.91 178.98 83.96 179.38 83.56 178.93 82.91 178.78 82.16 178.93 81.51 179.13 80.76 179.58 80.56 179.73 80.46 179.93 80.51 180.03 80.46 180.08 80.26 180.23 79.61 180.48 79.46 180.28 79.11 180.38 78.76 180.58 78.46 180.68 78.41 180.53 78.61 179.98 78.71 179.93 78.81 179.98 78.96 179.98 79.01 179.88 78.96 179.78 78.91 179.73 78.86 179.68 78.81 179.68 78.76 179.58 78.61 179.58 78.46 179.53 78.36 179.53 78.31 179.43 78.36 179.38 78.41 179.33 78.46 179.08 78.61 178.73 78.61 178.53 78.41 178.63 78.26 178.78 78.11 178.88 78.06 179.03 77.86 179.03 77.86 178.73 77.56 178.53 77.11 178.43 76.51 178.53 76.21 178.68 75.96 178.83 75.76 178.98 75.46 178.88 74.71 178.48 74.51 178.48 73.81 178.53 73.46 178.53 73.21 178.48 71.86 178.08 71.61 178.03 71.31 178.18 71.16 178.33 71.26 178.53 71.46 178.73 71.56 178.88 71.46 179.03 71.26 179.03 71.01 179.03 70.81 178.93 70.76 178.73 70.96 178.33 71.01 178.13 70.91 177.88 70.66 177.58 70.61 177.33 70.46 177.28 70.16 177.38 69.56 177.58 68.71 177.63 68.16 177.63 67.81 177.48 67.61 177.28 67.51 177.03 67.56 176.78 67.86 176.43 67.81 176.23 67.66 176.03 67.56 175.88 67.51 175.73 67.26 175.58 66.51 175.23 66.36 175.18 66.21 175.23 65.91 175.18 65.31 175.13 64.66 175.08 64.41 174.98 64.36 174.58 64.11 174.48 63.56 174.38 62.11 173.63 61.11 173.28 58.86 172.88 56.61 172.43 56.46 172.33 56.41 172.18 56.16 172.08 55.91 172.03 55.66 171.93 55.36 171.68 54.76 171.08 54.41 170.83 52.46 169.93 52.01 169.58 52.06 169.33 52.36 169.08 52.56 168.63 53.51 169.08 54.01 169.23 54.26 168.93 53.96 168.18 53.96 167.78 54.41 167.48 54.31 167.33 54.41 167.23 54.56 167.18 54.61 167.03 54.66 166.83 54.91 166.63 54.96 166.53 54.71 166.28 54.31 165.98 54.06 165.68 54.41 165.43 54.61 165.53 54.91 165.68 55.21 165.73 55.36 165.58 55.31 165.38 54.81 164.78 54.46 164.13 54.36 164.08 53.91 164.03 53.81 163.98 54.06 163.63 54.21 163.53 54.36 163.43 54.56 163.23 54.61 163.03 54.56 162.78 54.46 162.63 54.06 162.38 53.81 162.28 53.61 162.28 53.51 162.23 53.46 161.53 53.56 161.33 53.71 161.13 53.86 161.43 53.86 161.58 54.11 161.48 54.81 161.13 54.36 160.83 53.96 160.23 53.86 159.58 54.16 159.13 54.26 159.03 54.21 158.88 54.11 158.78 54.06 158.68 54.06 158.08 54.16 157.98 54.66 157.93 54.81 157.83 54.81 157.73 54.66 157.33 54.61 157.18 54.46 157.23 54.01 157.38 53.86 157.43 54.26 156.48 54.41 155.98 54.16 155.58 54.06 155.23 54.16 154.73 54.16 154.38 53.71 154.38 53.56 154.08 53.76 153.83 54.06 153.58 54.26 153.23 54.26 152.48 54.06 152.13 53.71 151.88 53.46 151.88 53.16 151.83 52.86 151.83 52.76 151.93 52.66 152.18 52.46 152.28 52.21 152.33 51.96 152.43 51.31 152.83 51.01 152.98 50.51 153.13 50.41 152.98 50.26 152.78 50.06 152.58 49.86 152.48 49.76 152.33 49.86 152.28 50.16 152.18 50.16 151.88 49.91 151.78 49.81 151.73 49.86 151.58 49.91 151.48 49.96 151.33 49.96 150.93 49.96 150.78 50.11 150.73 50.36 150.98 50.51 150.83 50.71 150.73 50.91 150.63 51.26 150.63 50.86 150.33 51.06 150.18 51.21 150.08 51.26 150.13 51.16 149.93 50.91 149.58 50.86 149.43 50.76 149.03 50.56 148.78 49.76 148.23 49.06 147.68 48.76 147.33 48.66 147.03 48.41 146.73 47.91 146.53 47.41 146.38 47.16 146.23 46.81 145.58 45.96 145.03 44.86 144.68 43.71 144.48 42.71 144.43 42.26 144.48 41.81 144.63 41.46 144.88 41.01 145.43 40.71 145.63 40.41 145.68 40.11 145.68 39.81 145.68 39.51 145.83 39.31 145.98 38.96 146.28 37.91 146.93 37.41 147.08 36.81 146.98 36.46 146.78 35.56 145.98 35.36 145.68 35.16 145.53 33.91 144.83 33.51 144.53 33.26 144.23 33.16 143.88 33.16 142.93 33.26 142.48 33.46 142.03 34.26 140.83 34.41 140.43 34.46 139.93 34.41 139.68 34.16 139.33 34.11 139.08 34.11 138.88 34.26 138.18 34.11 136.13 34.01 135.88 33.81 135.68 33.56 135.53 33.36 135.38 33.21 135.13 33.36 134.48 33.21 133.93 32.26 132.53 32.06 132.08 32.01 131.03 32.06 130.58 33.01 128.08 33.01 127.23 33.11 126.93 33.16 126.78 33.21 126.68 33.46 126.43 33.51 126.33 33.61 125.98 33.51 125.68 33.41 125.53 33.21 125.28 33.16 125.13 33.16 124.93 33.31 124.73 33.36 124.58 33.21 124.28 33.06 123.98 33.06 123.78 33.51 123.73 34.46 124.18 34.46 124.28 34.46 124.38 34.36 124.48 34.16 124.58 34.01 124.88 34.01 125.23 34.21 125.58 34.46 125.78 34.81 125.68 34.96 125.73 34.96 125.88 34.81 126.08 35.51 125.93 36.71 125.23 37.46 125.08 38.31 125.23 38.81 125.68 39.61 126.73 39.81 126.88 40.16 127.08 40.51 127.18 40.86 127.23 41.41 127.13 41.71 126.93 41.91 126.73 42.31 126.48 42.26 126.18 42.26 125.93 42.81 125.78 42.81 125.43 42.91 125.13 43.31 124.98 43.31 125.13 43.46 125.28 43.66 125.33 44.01 125.38 45.21 125.18 45.71 124.68 46.06 124.03 46.61 123.58 47.01 123.43 47.26 123.38 47.66 123.38 47.76 123.33 47.91 123.23 48.06 123.13 48.11 123.03 48.26 122.83 48.71 122.73 49.21 122.68 49.61 122.53 49.86 122.28 50.01 122.03 50.26 121.88 50.81 121.83 51.06 121.73 52.86 120.38 53.01 120.28 54.36 119.68 54.61 119.53 55.46 119.38 55.76 119.33 56.56 118.98 57.16 118.78 57.61 118.18 57.96 117.98 56.71 120.93 56.61 121.03 56.21 121.23 56.11 121.38 56.06 121.48 55.81 121.73 55.76 121.83 55.76 121.98 55.91 122.18 55.91 122.28 55.86 122.93 55.91 123.23 56.11 123.48 56.51 123.68 56.91 123.78 57.26 123.73 57.66 123.03 58.26 122.73 59.51 122.23 60.51 120.88 61.11 120.58 62.11 121.08 62.46 121.98 61.76 123.78 62.11 124.63 62.46 124.88 62.96 125.08 63.51 125.28 64.11 125.38 64.66 125.33 65.91 124.83 67.11 124.58 67.46 124.38 67.56 123.93 67.56 123.53 67.31 122.93 67.31 122.68 67.31 122.48 67.41 122.23 68.31 121.43 68.66 121.33 69.26 121.23 69.56 120.98 69.81 120.73 70.26 120.48 71.31 120.18 71.91 120.23 72.21 120.23 72.91 119.23 73.01 119.18 73.11 119.18 73.21 119.18 73.31 119.13 73.36 119.03 73.41 118.78 73.46 118.73 74.01 118.43 74.16 118.28 74.31 117.78 74.56 117.38 74.76 116.83 75.06 116.53 75.56 116.38 76.16 116.33 76.31 116.38 76.56 116.48 76.61 116.53 76.81 116.53 77.06 116.43 77.21 116.43 77.36 116.38 77.56 116.33 77.76 116.18 78.01 115.73 78.36 115.23 78.86 114.88 79.41 114.83 79.46 114.73 79.76 114.43 80.21 114.73 80.56 114.68 81.31 114.23 81.51 114.18 82.11 114.13 82.36 114.13 82.36 114.03 82.31 113.58 82.46 113.38 82.91 113.88 83.11 114.03 83.21 113.88 83.26 113.53 83.31 113.23 83.51 112.98 83.81 112.68 83.81 113.08 83.86 113.28 83.96 113.53 84.11 113.28 84.16 113.08 84.21 112.58 84.36 112.58 84.56 112.73 84.71 112.83 84.91 112.93 85.01 113.28 85.16 113.38 85.36 113.38 85.51 113.28 85.86 113.33 86.11 113.23 86.31 113.03 86.51 112.88 86.56 112.83 86.71 112.78 86.81 112.73 86.91 112.63 86.86 112.48 86.71 112.23 86.71 112.13 87.01 111.88 87.36 112.08 87.76 112.48 88.21 112.78 88.21 112.03 88.46 112.38 88.71 112.53 89.06 112.48 90.06 112.03 90.16 111.93 90.16 111.78 90.01 111.68 89.86 111.58 89.76 111.48 89.36 111.23 87.46 111.03 86.91 110.83 87.36 110.73 87.31 110.38 87.31 110.13 88.06 110.28 88.01 110.13 88.06 109.98 88.11 109.83 88.21 109.68 88.51 109.83 88.86 109.83 89.31 109.73 89.76 109.68 90.21 109.73 90.56 109.88 90.76 110.08 90.91 110.28 91.16 110.03 91.31 109.78 91.36 109.88 91.51 110.08 91.81 109.78 91.91 109.68 92.31 109.88 93.91 109.78 94.66 109.88 94.71 109.83 94.81 109.63 94.81 109.58 94.41 109.48 94.21 109.28 94.26 109.13 94.51 109.03 94.96 108.98 95.26 108.83 95.51 108.73 95.81 108.63 96.41 108.78 96.51 109.78 96.96 109.98 96.76 109.63 96.71 109.23 96.71 108.78 96.76 108.43 97.21 107.63 97.26 107.28 96.76 107.38 96.71 107.18 96.71 106.88 96.86 106.68 97.16 106.63 97.51 106.68 99.01 108.13 99.21 108.23 99.41 108.23 99.46 107.93 99.41 107.58 99.31 107.38 99.81 106.98 100.41 106.68 100.81 106.38 100.86 105.93 101.26 106.23 101.41 106.43 101.46 106.63 102.06 106.48 102.31 106.68 102.66 107.48 102.81 107.48 102.81 107.28 103.01 107.28 103.06 107.43 103.11 107.48 103.41 107.58 103.66 107.13 104.16 107.23 105.36 107.88 106.06 108.08 106.51 108.13 106.86 108.03 107.11 107.93 107.41 107.83 107.71 107.88 107.91 108.13 108.01 108.08 108.11 108.03 108.31 107.98 108.41 108.38 108.91 108.53 110.81 108.68 111.01 108.73 111.06 108.88 111.11 109.08 111.16 109.23 111.36 109.38 111.66 109.48 111.61 109.23 111.71 109.03 111.96 108.88 112.71 108.78 112.96 108.63 113.16 108.43 113.46 108.33 114.11 108.23 114.56 108.48 115.01 109.33 115.36 109.18 115.31 108.83 114.86 108.18 114.91 107.38 114.86 106.98 114.46 106.98 114.31 106.73 114.26 106.28 113.51 105.48 113.46 105.33 113.31 105.23 112.81 104.93 112.66 104.78 112.61 104.58 112.61 104.33 112.71 104.13 112.86 103.93 112.71 103.98 112.26 104.13 112.41 103.63 112.86 103.48 113.51 103.58 114.21 103.83 115.06 104.18 115.66 104.58 116.61 105.38 116.81 105.18 117.11 105.38 117.36 105.63 117.61 106.13 118.06 105.88 117.86 105.48 117.41 105.13 117.01 104.88 117.36 104.73 118.36 104.43 118.81 104.33 118.81 104.28 117.96 104.33 116.96 104.33 115.96 104.18 115.11 103.88 114.41 103.48 113.91 103.03 113.06 101.98 113.46 102.08 113.81 102.28 114.06 102.48 114.21 102.68 114.46 102.68 114.41 102.43 114.16 102.03 114.21 101.88 114.61 101.78 114.91 101.88 115.11 102.03 115.21 102.23 115.26 102.78 115.51 102.63 115.91 102.38 116.61 102.38 116.61 102.13 116.36 101.98 116.01 101.88 115.61 101.78 115.46 101.58 115.36 101.33 115.41 101.18 115.71 101.28 116.91 101.83 117.51 102.13 117.81 102.28 118.21 102.38 117.91 102.23 116.96 101.63 116.76 101.38 116.61 101.23 116.51 101.18 116.16 101.08 116.01 101.03 115.81 100.63 115.96 100.18 115.96 99.78 115.21 99.48 115.41 99.28 115.61 99.28 115.81 99.33 116.11 99.38 116.36 99.33 117.01 99.03 117.51 99.13 117.66 99.33 117.61 99.88 118.21 99.78 118.46 99.93 118.66 100.18 119.01 100.43 119.36 99.88 119.51 99.78 119.66 99.73 119.91 99.63 120.11 99.58 120.21 99.63 120.36 99.68 120.41 99.73 120.41 99.78 121.26 99.78 121.46 99.83 121.71 99.98 121.81 100.08 121.91 100.23 122.21 100.28 122.21 99.98 122.56 100.03 122.66 99.98 122.76 99.83 122.96 99.78 123.26 99.78 123.51 99.88 123.76 99.88 124.21 99.73 125.06 99.13 125.66 99.18 125.91 99.28 126.01 99.18 126.01 98.78 126.21 98.63 126.76 98.68 127.26 98.83 127.36 99.13 127.76 99.08 128.01 99.18 128.26 99.33 128.61 99.48 128.86 99.48 129.91 99.48 130.06 99.38 130.11 99.23 130.21 99.03 130.51 98.93 131.21 98.93 131.51 98.93 131.81 98.83 131.91 98.88 132.01 98.93 132.21 98.93 132.46 98.18 132.76 97.78 133.11 97.58 133.56 97.73 133.86 98.08 134.26 98.73 134.21 98.08 134.31 97.83 134.71 97.68 135.11 97.78 135.41 97.93 136.86 98.88 137.16 99.28 137.41 100.83 137.21 101.33 136.36 101.53 135.71 101.68 135.06 101.93 134.51 102.23 134.26 102.48 134.26 102.58 134.21 102.58 133.31 102.83 131.41 102.83 131.16 103.28 131.11 104.28 131.36 105.23 132.16 106.03 133.71 106.48 134.46 106.58 135.11 106.73 136.41 107.08 137.21 107.28 138.61 107.33 140.46 107.73 140.96 107.88 141.41 108.13 141.86 108.28 142.51 108.28 143.16 108.18 145.16 107.83 151.11 106.23 151.76 106.13 152.56 106.18 153.01 106.48 154.11 108.53 154.56 108.88 155.51 109.48 155.76 109.58 156.31 109.58 157.46 109.68 157.91 109.63 158.41 109.48 158.51 109.38 159.06 108.93 159.51 108.73 160.56 108.83 160.91 109.23 161.16 109.48 161.41 110.23 161.21 112.68 161.31 113.33 163.16 115.53 165.96 117.93 166.86 118.48 168.01 118.88 169.31 119.08 170.41 119.03 172.41 118.68 173.41 118.53 173.91 118.58 174.36 118.78 175.41 119.63 175.86 119.88 176.46 120.13 177.21 120.33 178.31 120.43 179.26 120.38 180.16 120.13 184.56 118.48 187.56 116.83 188.76 116.43 189.91 116.23 192.16 115.88 193.21 115.63 194.66 115.03 195.31 114.98 195.71 115.38 196.76 118.88 196.81 119.78 196.51 121.48 196.66 121.83 197.01 121.93 197.16 121.98 199.26 122.28 199.71 122.33 200.01 122.48 201.66 123.58 202.36 123.88 203.26 124.13 206.26 124.63 206.61 124.58 206.91 124.43 212.51 120.43 212.96 119.98 213.16 119.48 213.21 118.48 213.36 117.88 213.61 117.43 215.26 116.28 215.81 115.53 217.76 113.78 218.21 113.58 226.36 114.78 234.66 115.93 235.86 115.93 236.36 115.88 237.96 115.48 238.26 115.38 246.21 112.53 246.86 112.48 247.76 112.68 249.36 113.23 250.31 113.48 251.06 113.48 256.16 112.58 256.81 112.53 257.36 112.73 259.96 114.53 266.81 112.03 269.61 111.03 275.26 114.23 275.91 114.48 276.66 114.48 280.11 113.73 282.16 115.58 287.36 118.48 292.46 121.48 293.66 122.58 296.01 126.03 297.11 129.88 295.71 135.23 294.26 140.58 294.26 140.93 294.61 141.23 299.81 143.73 300.46 143.93 301.11 143.93 309.36 143.23 310.21 142.98 310.61 142.43 310.86 141.23 311.11 140.58 314.41 136.08 321.61 140.08 328.91 144.13 332.26 146.23 333.31 146.53 333.36 146.53 333.66 146.63 337.01 147.03 337.86 147.28 338.41 147.58 339.66 148.83 340.71 149.28 342.41 149.38 344.31 149.23 346.06 149.23 354.71 149.98 355.31 150.13 357.71 151.18 358.46 151.33 359.96 151.28 370.51 149.68 371.06 153.58 371.56 157.48 376.16 163.98 376.61 164.13 377.41 164.13 378.61 163.98 379.16 163.88 383.26 163.18 384.31 163.13 388.46 166.83 399.56 172.43 401.36 173.78 404.26 176.58 404.86 177.48 405.31 177.93 405.96 178.18 411.01 178.58 411.71 178.48 420.46 173.78 423.36 174.58 423.86 174.88 424.36 177.43 424.86 178.38 425.81 179.18 428.51 180.78 429.36 181.08 438.61 183.43 439.41 183.73 439.96 184.13 445.21 190.38 447.56 191.58 447.86 191.93 445.11 196.28 442.36 200.63 442.46 201.03 443.21 201.48 444.21 201.93 450.01 204.73 451.66 205.08 459.76 204.28 461.01 204.28 464.81 204.58 465.31 204.68 465.56 204.83 465.66 205.08 467.11 208.83 466.61 209.53 464.11 211.98 463.86 212.83 464.26 217.98 460.91 224.68 457.86 231.53 457.91 232.13 458.41 232.73 463.11 236.28 465.76 231.98 468.46 234.88 470.66 236.18 475.11 237.73 475.96 237.93 476.76 237.98 480.46 237.88 481.21 237.73 485.91 234.13 486.21 238.08 486.51 242.03 486.51 242.03"/></svg>