<?xml version="1.0" encoding="UTF-8"?><svg id="Layer_1" xmlns="http://www.w3.org/2000/svg" viewBox="0 0 348.09 708.66"><defs><style>.cls-1{fill:#0e5270;}</style></defs><path class="cls-1" d="M347.73,500.16c.54-12.46-3.86-23.79-7.97-35.19-1.3-2.09-4.67-6.1-6.71-6.79-9.3-3.16-7.31-10.02-6.51-16.71.24-5.04-.48-9.64-.72-14.47,1.68-10.53,1.16-21.03-.44-31.52.45-.42.9-.85,1.36-1.27,2.23-1.27,2.05-2.7.28-4.24-.41-3.51-.72-7.01.1-10.51-1.06-5.85-1.08-11.75-.91-17.65-.18-1.06-.37-2.11-.55-3.17-1.49-1.59-1.69-3.45-1.14-5.46-.48-1.99-.96-3.99-1.44-5.98-1.73-.24-2.11-1.65-2.6-2.97,0,0,0,0,0,0-.19-5.85-4.65-11.84.55-17.53,4.15-2.17,5.18-3.64,8.52-3.75,2.55-11.31,1.71-22.14-4.55-32.2-1.61-3.02-3.13-7.48-8.42-5.56-2.47-2.91-4.94-5.81-7.41-8.72-.9-.02-1.8-.04-2.7-.06,0,0,0,0,0,0,.9.02,1.8.04,2.7.06-.64-16.33,2.81-21.02,18.01-24.48,0,0,5.39-2.98,5.17-6.5,0,0,.5-.32.5-.32.89.08,1.19-.34.97-1.18.21-.44.44-.86.71-1.26,3.96-1.24,4.97-4.82,6.39-8.07.09-4.85,1.77-10.45-.1-14.37-2.78-5.83-1.84-9.57,1.33-14.64,6.65-10.65,2.51-24.19-10.1-25.6-2.92-.94-5.26-1.21-6.2-3.99,8-7.2,9.37-15.52,4.13-24.62-1.6-4.24-4.71-3.37-7.16-3.88-3.58-.75-5.68-2.18-5.39-6.08-.28-.31-.41-.67-.4-1.08-1.34-.04-2.69-.09-4.03-.13-.43-.47-.86-.95-1.3-1.42.62-6.6.74-13-6.84-16.12,0,0-.03-.11-.03-.1-.1-1.32-.19-2.64-.29-3.96-2.03-3.36-4.52-6.48-5.33-10.46-.44-.83-.88-1.67-1.31-2.5-1.72-1.56-2.38-3.54-2.33-5.81.15-1.53.07-2.71.1-4.06,3.73-7.22,10.22-12.72,12.92-20.58.45-8.02.89-16.04,1.34-24.06-1.22-3.95-1.49-8.12-2.4-12.14-1.76-7.8-7.11-13.1-10.71-19.57-.21-.42-.39-.86-.54-1.31-.49-13.15-.55-13.23-9.73-12.55-2.15-.29-4.71.07-6.37-.99-10.37-6.62-19.91-6.01-28.85,2.54-.97,2.73.38,5.27.56,7.91-.08,1.52-.17,3.05-.25,4.58-.13,1.26-.26,2.53-.38,3.79,0,0-.33.44-.33.43-10.04,1.75-17.91-1.54-23.17-10.32-1.28-2.13-3.39-1.63-4.94-2.57-2.34-1.42-3.43-3.07-6.34-5.3-6.05-.16-12.08-2.48-18.19.53-2.01.99-4.88.74-6.53-1.79-1.14-3.64-4.2-2.82-6.75-2.72-6.61.26-13.21.73-19.81,1.11,0,0-.29-.1-.29-.1-1.2-3.66-4.24-2.59-6.76-2.5-7.79.27-15.57.82-23.36,1-4.96.11-9.66.72-13.69,3.9-2.11,4.54-9.97,2.81-10.23,9.37-1.86.03-3.72.06-5.58.09-2.31,3.79-3.4,8.69-8.81,9.64-.28-.92-.56-1.84-.83-2.76q-.62-2.3-1.91-3.88c-.1-.75-.19-1.5-.29-2.25,1.01-2.93,1.22-6.03.86-9.24-.96-2.09-5.68-2.52-6.14-2.69-1.13,0-2.27,0-3.4,0-7.65.46-12.66-2.71-19.7,5.84-3.72,3.64-6.89,6.41-11.59,10.47-6.5,4.88-7.76,10.74-10.09,17.12-5.9,16.16-3.38,31.26,6.5,44.8,4.7,6.44,5.39,12.41,2.44,19.2-6.14,14.12-15.71,25.84-26.17,36.94-9.29,9.86-13.02,16.22-8.24,24.15,3.14,5.21-6.12,11.24-6.88,11.16-.25.12-.48.28-.68.46-3.88,8.76-5.15,17.39,1.1,25.73,1.04,1.39.48,2.79-.56,4.01-.42,2.11-.84,4.22-1.25,6.34-.98,3.49,2.09,17.72,5.79,23.39,2.26,3.47,4.7,6.85,7.34,10.03,1.79,2.16-1.06,3.53-.4,6.04s3.85,3.46,4.85,6.12c1.42,3.79-6.04,15.12-5.33,18.22.3.68.59,1.35.88,2.02,1.56,4.34-1.05,7.79-2.98,11-5.05,8.4-4.32,16.14.64,24.3,1.87,3.07,5.63,5.32,5.41,9.4-.39,7.29-.15,14.82-1.98,21.77-2.61,9.92-3.29,19.72-2.89,29.86.71,18.42,1.01,36.86,1.32,55.3.06,3.91-.42,7.66-1.48,11.44-.84,3-1.88,1.41-4.66,2.13-1.58,3.82-3.16,7.63-4.74,11.45-1.43,5.43-1.73,6.39-2.39,10.11-.14.32-3.33,3.9-4.35,5.91-7.42,14.49-6.94,39.34,8.13,53.34,6.87,6.38,11.39,13.96,9.89,24.17-1.44,9.78-.44,19.66.08,29.5.85,15.98,1.3,32.05-.33,47.93-1.84,17.89-8.98,34.69-13.16,52.15-2.39,9.99-3.99,19.14.59,28.61,4.82,4.22,7.95,5.12,15.27,4.86,1.72-.06,269.18-.06,298.53,0,5.83.01,10.3-1.36,13.12-6.66-.08-3.94-.17-7.89-.25-11.83-.13-4.01-.25-8.02-.38-12.03-1.84-7.66-3.25-15.63-4.46-23.2-1.52-5.14-3.49-9.13-7.79-12.04-1.16-3.17-7.55-20.18-5.45-30.62,1.53-7.62,2.58-15.09,1.09-22.41-1.71-8.41-.84-16.47-.09-24.77.5-5.49,1.16-11.29-1.92-16.5h0c-.03-.89-.05-1.78-.08-2.68,2.73-3.02,5.46-6.05,8.19-9.08,5.21-.1,7.38-5.05,11.36-7.12,6.07-.17,6.26-6.49,9.77-9.34,2.3-6.65.89-13.48.96-20.23Z"/></svg>