<?xml version="1.0" encoding="UTF-8"?>
<svg id="Layer_1" data-name="Layer 1" xmlns="http://www.w3.org/2000/svg" viewBox="0 0 144 144">
  <defs>
    <style>
      .cls-1 {
        fill: #719fb6;
      }
    </style>
  </defs>
  <path class="cls-1" d="M41.73,71.31c9.34,3.55,24.29,14.25,28.7,23.26,1.51,3.21,1.95,6.79,3.93,9.78,2.4,4.37,8.44,5.15,10.52,9.7.81,1.73.73,4.16.4,6.75-.51,4.4-1.76,9.15-6.53,9.39-5.76-.02-8.54-6.44-14.29-1.9-2.38,1.75-4.45,4.14-6.99,5.65-4.01,2.3-8.2,3.68-12.23,6.02-2.18,1.21-4.33,2.63-6.73,3.39-6.22,2.25-9.19-1.84-13.93-4.72-4.65-2.45-11.23-2.04-16.49-1.32C.72,138.21.02,131.26,0,125.83s.09-26.99.05-32.71c-.01-2.27-.07-5.73-.05-8.75.01-2.05,1.94-3.66,4.06-4.03,2.37-.2,4.9.56,7.31.29,3.02-.24,5.8-2.18,9.06-3.2,2.63-.92,5.5-1.04,8.09-2.01,5.02-2.3,6.72-6.4,13.04-4.16l.16.05Z"/>
</svg>