<?xml version="1.0" encoding="UTF-8"?>
<svg id="Layer_1" data-name="Layer 1" xmlns="http://www.w3.org/2000/svg" viewBox="0 0 144 144">
  <defs>
    <style>
      .cls-1 {
        fill: #b5454d;
      }
    </style>
  </defs>
  <path class="cls-1" d="M.15,112.38c-.08,7.72.14,17.12.04,25.47.18,1.78-.77,4.91,1.27,5.72,10.84-.6,21.61-2.96,32.7-3.12,3.7-.12,7.42-.49,11.09-.15,3.28.25,6.28,1.6,9.6,1.54,2.24.03,5.06-.62,6.77-1.1,4.82-.98,10.2-2.19,14.91-1.38,4.52.88,8.9,3.9,13.41,4.6,7.53.43,6.44-3.28,5.82-9-.06-5.53-5.26-7.61-7.81-11.65-1.12-3.59.91-7.98-.37-11.68-.81-2.68-3.34-5.1-3.62-7.66-.52-3.78,5.62-14.75,1.78-16.95-7.58-3.68-15.92,14.11-20.28,18.6-1.06,1.39-2.88.71-4.61.8-4.36-.11-11.04-.28-15.48-.39-2.77-.21-4.09.24-5.53-.44-.99-.77-1.17-2.68.17-3.93,2.4-1.92,6.69-3.46,9.38-3.86,2.87.33,6.73,2.8,8.12-1.13.77-3.05-.36-8.3-.99-10.7-.2-.6-.49-1.07-.96-1.48-8.98-7.15-12.45-9.12-24.46-9.01-14.49-.35-26.34,2.22-30.44,17.96-1.19,5.91-.39,12.79-.51,18.74v.19Z"/>
</svg>