solid OpenSCAD_Model
  facet normal -0.38268268 0.92387986 0
    outer loop
      vertex 2 264 2
      vertex 0.5857868 263.4142 23.5
      vertex 2 264 23.5
    endloop
  endfacet
  facet normal -0.38268268 0.92387986 0
    outer loop
      vertex 0.5857868 263.4142 23.5
      vertex 2 264 2
      vertex 0.5857868 263.4142 2
    endloop
  endfacet
  facet normal 0.92387986 -0.38268268 0
    outer loop
      vertex 87.414215 0.5857868 23.5
      vertex 88 2 2
      vertex 88 2 23.5
    endloop
  endfacet
  facet normal 0.92387986 -0.38268268 0
    outer loop
      vertex 88 2 2
      vertex 87.414215 0.5857868 23.5
      vertex 87.414215 0.5857868 2
    endloop
  endfacet
  facet normal 0 -0.9238794 0.38268372
    outer loop
      vertex 2 0 23.5
      vertex 86 0.5857868 24.914213
      vertex 2 0.5857868 24.914213
    endloop
  endfacet
  facet normal 0 -0.9238794 0.38268372
    outer loop
      vertex 86 0.5857868 24.914213
      vertex 2 0 23.5
      vertex 86 0 23.5
    endloop
  endfacet
  facet normal 1 0 0
    outer loop
      vertex 88 2 23.5
      vertex 88 262 2
      vertex 88 262 23.5
    endloop
  endfacet
  facet normal 1 0 0
    outer loop
      vertex 88 262 2
      vertex 88 2 23.5
      vertex 88 2 2
    endloop
  endfacet
  facet normal 0 1 0
    outer loop
      vertex 86 264 2
      vertex 2 264 23.5
      vertex 86 264 23.5
    endloop
  endfacet
  facet normal 0 1 0
    outer loop
      vertex 2 264 23.5
      vertex 86 264 2
      vertex 2 264 2
    endloop
  endfacet
  facet normal 0.35740656 -0.86285615 -0.35740706
    outer loop
      vertex 87.414215 0.5857868 2
      vertex 86 0 2
      vertex 86 0.5857868 0.5857868
    endloop
  endfacet
  facet normal -0.92387956 0.3826833 0
    outer loop
      vertex 0 262 2
      vertex 0.5857868 263.4142 23.5
      vertex 0.5857868 263.4142 2
    endloop
  endfacet
  facet normal -0.92387956 0.3826833 0
    outer loop
      vertex 0.5857868 263.4142 23.5
      vertex 0 262 2
      vertex 0 262 23.5
    endloop
  endfacet
  facet normal 0.5773497 -0.57735056 -0.57735056
    outer loop
      vertex 87.414215 0.5857868 2
      vertex 86 0.5857868 0.5857868
      vertex 87.414215 2 0.5857868
    endloop
  endfacet
  facet normal 0.86285686 0.3574057 -0.3574062
    outer loop
      vertex 88 262 2
      vertex 87.414215 262 0.5857868
      vertex 87.414215 263.4142 2
    endloop
  endfacet
  facet normal 0.86285675 -0.3574061 0.3574061
    outer loop
      vertex 87.414215 2 24.914213
      vertex 87.414215 0.5857868 23.5
      vertex 88 2 23.5
    endloop
  endfacet
  facet normal -0.9238794 -0.38268372 0
    outer loop
      vertex 0.5857868 0.5857868 2
      vertex 0 2 23.5
      vertex 0 2 2
    endloop
  endfacet
  facet normal -0.9238794 -0.38268372 0
    outer loop
      vertex 0 2 23.5
      vertex 0.5857868 0.5857868 2
      vertex 0.5857868 0.5857868 23.5
    endloop
  endfacet
  facet normal 0 0 -1
    outer loop
      vertex 2 2 0
      vertex 86 262 0
      vertex 86 2 0
    endloop
  endfacet
  facet normal 0 0 -1
    outer loop
      vertex 86 262 0
      vertex 2 2 0
      vertex 2 262 0
    endloop
  endfacet
  facet normal -0.357407 -0.86285603 0.357407
    outer loop
      vertex 2 0.5857868 24.914213
      vertex 0.5857868 0.5857868 23.5
      vertex 2 0 23.5
    endloop
  endfacet
  facet normal -0.38268372 -0.9238794 0
    outer loop
      vertex 0.5857868 0.5857868 2
      vertex 2 0 23.5
      vertex 0.5857868 0.5857868 23.5
    endloop
  endfacet
  facet normal -0.38268372 -0.9238794 0
    outer loop
      vertex 2 0 23.5
      vertex 0.5857868 0.5857868 2
      vertex 2 0 2
    endloop
  endfacet
  facet normal 0.3826833 0 -0.92387956
    outer loop
      vertex 86 2 0
      vertex 87.414215 262 0.5857868
      vertex 87.414215 2 0.5857868
    endloop
  endfacet
  facet normal 0.3826833 0 -0.92387956
    outer loop
      vertex 87.414215 262 0.5857868
      vertex 86 2 0
      vertex 86 262 0
    endloop
  endfacet
  facet normal 0.92387986 0 0.38268268
    outer loop
      vertex 87.414215 2 24.914213
      vertex 88 262 23.5
      vertex 87.414215 262 24.914213
    endloop
  endfacet
  facet normal 0.92387986 0 0.38268268
    outer loop
      vertex 88 262 23.5
      vertex 87.414215 2 24.914213
      vertex 88 2 23.5
    endloop
  endfacet
  facet normal 0.35740656 -0.35740706 -0.86285615
    outer loop
      vertex 87.414215 2 0.5857868
      vertex 86 0.5857868 0.5857868
      vertex 86 2 0
    endloop
  endfacet
  facet normal 0 -0.9238794 -0.38268372
    outer loop
      vertex 2 0.5857868 0.5857868
      vertex 86 0 2
      vertex 2 0 2
    endloop
  endfacet
  facet normal 0 -0.9238794 -0.38268372
    outer loop
      vertex 86 0 2
      vertex 2 0.5857868 0.5857868
      vertex 86 0.5857868 0.5857868
    endloop
  endfacet
  facet normal -0.86285615 0.35740656 0.35740706
    outer loop
      vertex 0.5857868 263.4142 23.5
      vertex 0 262 23.5
      vertex 0.5857868 262 24.914213
    endloop
  endfacet
  facet normal -0.357407 -0.357407 -0.86285603
    outer loop
      vertex 2 0.5857868 0.5857868
      vertex 0.5857868 2 0.5857868
      vertex 2 2 0
    endloop
  endfacet
  facet normal 0.3826833 0 0.92387956
    outer loop
      vertex 86 262 25.5
      vertex 87.414215 2 24.914213
      vertex 87.414215 262 24.914213
    endloop
  endfacet
  facet normal 0.3826833 0 0.92387956
    outer loop
      vertex 87.414215 2 24.914213
      vertex 86 262 25.5
      vertex 86 2 25.5
    endloop
  endfacet
  facet normal -1 0 0
    outer loop
      vertex 0 2 2
      vertex 0 262 23.5
      vertex 0 262 2
    endloop
  endfacet
  facet normal -1 0 0
    outer loop
      vertex 0 262 23.5
      vertex 0 2 2
      vertex 0 2 23.5
    endloop
  endfacet
  facet normal 0 -0.38268372 -0.9238794
    outer loop
      vertex 2 0.5857868 0.5857868
      vertex 86 2 0
      vertex 86 0.5857868 0.5857868
    endloop
  endfacet
  facet normal 0 -0.38268372 -0.9238794
    outer loop
      vertex 86 2 0
      vertex 2 0.5857868 0.5857868
      vertex 2 2 0
    endloop
  endfacet
  facet normal 0.57735 0.57735 -0.5773508
    outer loop
      vertex 87.414215 262 0.5857868
      vertex 86 263.4142 0.5857868
      vertex 87.414215 263.4142 2
    endloop
  endfacet
  facet normal 0.35740662 0.35740662 0.8628563
    outer loop
      vertex 86 263.4142 24.914213
      vertex 86 262 25.5
      vertex 87.414215 262 24.914213
    endloop
  endfacet
  facet normal 0.35740662 0.35740662 -0.8628563
    outer loop
      vertex 87.414215 262 0.5857868
      vertex 86 262 0
      vertex 86 263.4142 0.5857868
    endloop
  endfacet
  facet normal -0.57735026 -0.57735026 -0.57735026
    outer loop
      vertex 2 0.5857868 0.5857868
      vertex 0.5857868 0.5857868 2
      vertex 0.5857868 2 0.5857868
    endloop
  endfacet
  facet normal 0 0 1
    outer loop
      vertex 86 262 25.5
      vertex 85 259 25.5
      vertex 86 2 25.5
    endloop
  endfacet
  facet normal 0 0 1
    outer loop
      vertex 86 262 25.5
      vertex 84.414215 260.4142 25.5
      vertex 85 259 25.5
    endloop
  endfacet
  facet normal 0 0 1
    outer loop
      vertex 86 262 25.5
      vertex 83 261 25.5
      vertex 84.414215 260.4142 25.5
    endloop
  endfacet
  facet normal 0 0 1
    outer loop
      vertex 86 262 25.5
      vertex 5 261 25.5
      vertex 83 261 25.5
    endloop
  endfacet
  facet normal 0 0 1
    outer loop
      vertex 3 259 25.5
      vertex 2 262 25.5
      vertex 3 5 25.5
    endloop
  endfacet
  facet normal 0 0 1
    outer loop
      vertex 3.5857868 260.4142 25.5
      vertex 2 262 25.5
      vertex 3 259 25.5
    endloop
  endfacet
  facet normal 0 0 1
    outer loop
      vertex 5 261 25.5
      vertex 2 262 25.5
      vertex 3.5857868 260.4142 25.5
    endloop
  endfacet
  facet normal 0 0 1
    outer loop
      vertex 2 262 25.5
      vertex 5 261 25.5
      vertex 86 262 25.5
    endloop
  endfacet
  facet normal 0 0 1
    outer loop
      vertex 85 5 25.5
      vertex 86 2 25.5
      vertex 85 259 25.5
    endloop
  endfacet
  facet normal 0 0 1
    outer loop
      vertex 84.414215 3.5857868 25.5
      vertex 86 2 25.5
      vertex 85 5 25.5
    endloop
  endfacet
  facet normal 0 0 1
    outer loop
      vertex 83 3 25.5
      vertex 86 2 25.5
      vertex 84.414215 3.5857868 25.5
    endloop
  endfacet
  facet normal 0 0 1
    outer loop
      vertex 5 3 25.5
      vertex 86 2 25.5
      vertex 83 3 25.5
    endloop
  endfacet
  facet normal 0 0 1
    outer loop
      vertex 5 3 25.5
      vertex 2 2 25.5
      vertex 86 2 25.5
    endloop
  endfacet
  facet normal 0 0 1
    outer loop
      vertex 3.5857868 3.5857868 25.5
      vertex 2 2 25.5
      vertex 5 3 25.5
    endloop
  endfacet
  facet normal 0 0 1
    outer loop
      vertex 3 5 25.5
      vertex 2 2 25.5
      vertex 3.5857868 3.5857868 25.5
    endloop
  endfacet
  facet normal 0 0 1
    outer loop
      vertex 2 2 25.5
      vertex 3 5 25.5
      vertex 2 262 25.5
    endloop
  endfacet
  facet normal 0.92388004 0.38268223 0
    outer loop
      vertex 88 262 23.5
      vertex 87.414215 263.4142 2
      vertex 87.414215 263.4142 23.5
    endloop
  endfacet
  facet normal 0.92388004 0.38268223 0
    outer loop
      vertex 87.414215 263.4142 2
      vertex 88 262 23.5
      vertex 88 262 2
    endloop
  endfacet
  facet normal -0.357407 -0.357407 0.86285603
    outer loop
      vertex 2 2 25.5
      vertex 0.5857868 2 24.914213
      vertex 2 0.5857868 24.914213
    endloop
  endfacet
  facet normal 0.35740656 -0.86285615 0.35740706
    outer loop
      vertex 86 0.5857868 24.914213
      vertex 86 0 23.5
      vertex 87.414215 0.5857868 23.5
    endloop
  endfacet
  facet normal -0.357407 -0.86285603 -0.357407
    outer loop
      vertex 2 0 2
      vertex 0.5857868 0.5857868 2
      vertex 2 0.5857868 0.5857868
    endloop
  endfacet
  facet normal -0.86285603 -0.357407 -0.357407
    outer loop
      vertex 0.5857868 0.5857868 2
      vertex 0 2 2
      vertex 0.5857868 2 0.5857868
    endloop
  endfacet
  facet normal 0 0.3826833 -0.92387956
    outer loop
      vertex 2 262 0
      vertex 86 263.4142 0.5857868
      vertex 86 262 0
    endloop
  endfacet
  facet normal 0 0.3826833 -0.92387956
    outer loop
      vertex 86 263.4142 0.5857868
      vertex 2 262 0
      vertex 2 263.4142 0.5857868
    endloop
  endfacet
  facet normal -0.57735056 0.5773497 0.57735056
    outer loop
      vertex 0.5857868 263.4142 23.5
      vertex 0.5857868 262 24.914213
      vertex 2 263.4142 24.914213
    endloop
  endfacet
  facet normal 0.38268223 0.92388004 0
    outer loop
      vertex 87.414215 263.4142 2
      vertex 86 264 23.5
      vertex 87.414215 263.4142 23.5
    endloop
  endfacet
  facet normal 0.38268223 0.92388004 0
    outer loop
      vertex 86 264 23.5
      vertex 87.414215 263.4142 2
      vertex 86 264 2
    endloop
  endfacet
  facet normal 0.3574057 0.86285686 0.3574062
    outer loop
      vertex 86 264 23.5
      vertex 86 263.4142 24.914213
      vertex 87.414215 263.4142 23.5
    endloop
  endfacet
  facet normal 0.92387986 0 -0.38268268
    outer loop
      vertex 88 2 2
      vertex 87.414215 262 0.5857868
      vertex 88 262 2
    endloop
  endfacet
  facet normal 0.92387986 0 -0.38268268
    outer loop
      vertex 87.414215 262 0.5857868
      vertex 88 2 2
      vertex 87.414215 2 0.5857868
    endloop
  endfacet
  facet normal 0.86285675 -0.3574061 -0.3574061
    outer loop
      vertex 88 2 2
      vertex 87.414215 0.5857868 2
      vertex 87.414215 2 0.5857868
    endloop
  endfacet
  facet normal -0.38268372 0 -0.9238794
    outer loop
      vertex 0.5857868 2 0.5857868
      vertex 2 262 0
      vertex 2 2 0
    endloop
  endfacet
  facet normal -0.38268372 0 -0.9238794
    outer loop
      vertex 2 262 0
      vertex 0.5857868 2 0.5857868
      vertex 0.5857868 262 0.5857868
    endloop
  endfacet
  facet normal 0 -0.38268372 0.9238794
    outer loop
      vertex 2 2 25.5
      vertex 86 0.5857868 24.914213
      vertex 86 2 25.5
    endloop
  endfacet
  facet normal 0 -0.38268372 0.9238794
    outer loop
      vertex 86 0.5857868 24.914213
      vertex 2 2 25.5
      vertex 2 0.5857868 24.914213
    endloop
  endfacet
  facet normal -0.38268372 0 0.9238794
    outer loop
      vertex 0.5857868 262 24.914213
      vertex 2 2 25.5
      vertex 2 262 25.5
    endloop
  endfacet
  facet normal -0.38268372 0 0.9238794
    outer loop
      vertex 2 2 25.5
      vertex 0.5857868 262 24.914213
      vertex 0.5857868 2 24.914213
    endloop
  endfacet
  facet normal 0 -1 0
    outer loop
      vertex 2 0 2
      vertex 86 0 23.5
      vertex 2 0 23.5
    endloop
  endfacet
  facet normal 0 -1 0
    outer loop
      vertex 86 0 23.5
      vertex 2 0 2
      vertex 86 0 2
    endloop
  endfacet
  facet normal 0.3826833 -0.92387956 0
    outer loop
      vertex 86 0 2
      vertex 87.414215 0.5857868 23.5
      vertex 86 0 23.5
    endloop
  endfacet
  facet normal 0.3826833 -0.92387956 0
    outer loop
      vertex 87.414215 0.5857868 23.5
      vertex 86 0 2
      vertex 87.414215 0.5857868 2
    endloop
  endfacet
  facet normal -0.57735056 0.5773497 -0.57735056
    outer loop
      vertex 2 263.4142 0.5857868
      vertex 0.5857868 262 0.5857868
      vertex 0.5857868 263.4142 2
    endloop
  endfacet
  facet normal -0.35740706 0.35740656 -0.86285615
    outer loop
      vertex 2 262 0
      vertex 0.5857868 262 0.5857868
      vertex 2 263.4142 0.5857868
    endloop
  endfacet
  facet normal 0 0.92387986 0.38268268
    outer loop
      vertex 86 264 23.5
      vertex 2 263.4142 24.914213
      vertex 86 263.4142 24.914213
    endloop
  endfacet
  facet normal 0 0.92387986 0.38268268
    outer loop
      vertex 2 263.4142 24.914213
      vertex 86 264 23.5
      vertex 2 264 23.5
    endloop
  endfacet
  facet normal -0.3574061 0.86285675 0.3574061
    outer loop
      vertex 2 264 23.5
      vertex 0.5857868 263.4142 23.5
      vertex 2 263.4142 24.914213
    endloop
  endfacet
  facet normal 0.35740656 -0.35740706 0.86285615
    outer loop
      vertex 86 2 25.5
      vertex 86 0.5857868 24.914213
      vertex 87.414215 2 24.914213
    endloop
  endfacet
  facet normal 0.5773497 -0.57735056 0.57735056
    outer loop
      vertex 87.414215 2 24.914213
      vertex 86 0.5857868 24.914213
      vertex 87.414215 0.5857868 23.5
    endloop
  endfacet
  facet normal 0.57735 0.57735 0.5773508
    outer loop
      vertex 87.414215 263.4142 23.5
      vertex 86 263.4142 24.914213
      vertex 87.414215 262 24.914213
    endloop
  endfacet
  facet normal 0.3574057 0.86285686 -0.3574062
    outer loop
      vertex 87.414215 263.4142 2
      vertex 86 263.4142 0.5857868
      vertex 86 264 2
    endloop
  endfacet
  facet normal 0 0.92387986 -0.38268268
    outer loop
      vertex 86 263.4142 0.5857868
      vertex 2 264 2
      vertex 86 264 2
    endloop
  endfacet
  facet normal 0 0.92387986 -0.38268268
    outer loop
      vertex 2 264 2
      vertex 86 263.4142 0.5857868
      vertex 2 263.4142 0.5857868
    endloop
  endfacet
  facet normal -0.3574061 0.86285675 -0.3574061
    outer loop
      vertex 2 263.4142 0.5857868
      vertex 0.5857868 263.4142 2
      vertex 2 264 2
    endloop
  endfacet
  facet normal -0.86285603 -0.357407 0.357407
    outer loop
      vertex 0.5857868 2 24.914213
      vertex 0 2 23.5
      vertex 0.5857868 0.5857868 23.5
    endloop
  endfacet
  facet normal -0.57735026 -0.57735026 0.57735026
    outer loop
      vertex 0.5857868 2 24.914213
      vertex 0.5857868 0.5857868 23.5
      vertex 2 0.5857868 24.914213
    endloop
  endfacet
  facet normal -0.9238794 0 -0.38268372
    outer loop
      vertex 0.5857868 2 0.5857868
      vertex 0 262 2
      vertex 0.5857868 262 0.5857868
    endloop
  endfacet
  facet normal -0.9238794 0 -0.38268372
    outer loop
      vertex 0 262 2
      vertex 0.5857868 2 0.5857868
      vertex 0 2 2
    endloop
  endfacet
  facet normal -0.86285615 0.35740656 -0.35740706
    outer loop
      vertex 0.5857868 262 0.5857868
      vertex 0 262 2
      vertex 0.5857868 263.4142 2
    endloop
  endfacet
  facet normal -0.35740706 0.35740656 0.86285615
    outer loop
      vertex 2 263.4142 24.914213
      vertex 0.5857868 262 24.914213
      vertex 2 262 25.5
    endloop
  endfacet
  facet normal 0 0.3826833 0.92387956
    outer loop
      vertex 2 263.4142 24.914213
      vertex 86 262 25.5
      vertex 86 263.4142 24.914213
    endloop
  endfacet
  facet normal 0 0.3826833 0.92387956
    outer loop
      vertex 86 262 25.5
      vertex 2 263.4142 24.914213
      vertex 2 262 25.5
    endloop
  endfacet
  facet normal 0.86285686 0.3574057 0.3574062
    outer loop
      vertex 87.414215 263.4142 23.5
      vertex 87.414215 262 24.914213
      vertex 88 262 23.5
    endloop
  endfacet
  facet normal -0.9238794 0 0.38268372
    outer loop
      vertex 0 2 23.5
      vertex 0.5857868 262 24.914213
      vertex 0 262 23.5
    endloop
  endfacet
  facet normal -0.9238794 0 0.38268372
    outer loop
      vertex 0.5857868 262 24.914213
      vertex 0 2 23.5
      vertex 0.5857868 2 24.914213
    endloop
  endfacet
  facet normal 0 1 0
    outer loop
      vertex 83 3 4
      vertex 5 3 25.5
      vertex 83 3 25.5
    endloop
  endfacet
  facet normal 0 1 0
    outer loop
      vertex 5 3 25.5
      vertex 83 3 4
      vertex 5 3 4
    endloop
  endfacet
  facet normal 0.38268268 -0.92387986 0
    outer loop
      vertex 3.5857868 260.4142 4
      vertex 5 261 25.5
      vertex 3.5857868 260.4142 25.5
    endloop
  endfacet
  facet normal 0.38268268 -0.92387986 0
    outer loop
      vertex 5 261 25.5
      vertex 3.5857868 260.4142 4
      vertex 5 261 4
    endloop
  endfacet
  facet normal -0.92387986 0.38268268 0
    outer loop
      vertex 84.414215 3.5857868 4
      vertex 85 5 25.5
      vertex 85 5 4
    endloop
  endfacet
  facet normal -0.92387986 0.38268268 0
    outer loop
      vertex 85 5 25.5
      vertex 84.414215 3.5857868 4
      vertex 84.414215 3.5857868 25.5
    endloop
  endfacet
  facet normal -1 0 0
    outer loop
      vertex 85 5 4
      vertex 85 259 25.5
      vertex 85 259 4
    endloop
  endfacet
  facet normal -1 0 0
    outer loop
      vertex 85 259 25.5
      vertex 85 5 4
      vertex 85 5 25.5
    endloop
  endfacet
  facet normal 0 -1 0
    outer loop
      vertex 5 261 4
      vertex 83 261 25.5
      vertex 5 261 25.5
    endloop
  endfacet
  facet normal 0 -1 0
    outer loop
      vertex 83 261 25.5
      vertex 5 261 4
      vertex 83 261 4
    endloop
  endfacet
  facet normal -0.35740656 0.86285615 0.35740706
    outer loop
      vertex 84.414215 3.5857868 4
      vertex 83 3.5857868 2.5857868
      vertex 83 3 4
    endloop
  endfacet
  facet normal 0.92387956 -0.3826833 0
    outer loop
      vertex 3 259 25.5
      vertex 3.5857868 260.4142 4
      vertex 3.5857868 260.4142 25.5
    endloop
  endfacet
  facet normal 0.92387956 -0.3826833 0
    outer loop
      vertex 3.5857868 260.4142 4
      vertex 3 259 25.5
      vertex 3 259 4
    endloop
  endfacet
  facet normal -0.5773497 0.57735056 0.57735056
    outer loop
      vertex 84.414215 3.5857868 4
      vertex 84.414215 5 2.5857868
      vertex 83 3.5857868 2.5857868
    endloop
  endfacet
  facet normal -0.86285686 -0.3574057 0.3574062
    outer loop
      vertex 85 259 4
      vertex 84.414215 260.4142 4
      vertex 84.414215 259 2.5857868
    endloop
  endfacet
  facet normal 0.9238794 0.38268372 0
    outer loop
      vertex 3.5857868 3.5857868 25.5
      vertex 3 5 4
      vertex 3 5 25.5
    endloop
  endfacet
  facet normal 0.9238794 0.38268372 0
    outer loop
      vertex 3 5 4
      vertex 3.5857868 3.5857868 25.5
      vertex 3.5857868 3.5857868 4
    endloop
  endfacet
  facet normal 0 0 1
    outer loop
      vertex 5 259 2
      vertex 83 5 2
      vertex 83 259 2
    endloop
  endfacet
  facet normal 0 0 1
    outer loop
      vertex 83 5 2
      vertex 5 259 2
      vertex 5 5 2
    endloop
  endfacet
  facet normal 0.38268372 0.9238794 0
    outer loop
      vertex 5 3 4
      vertex 3.5857868 3.5857868 25.5
      vertex 5 3 25.5
    endloop
  endfacet
  facet normal 0.38268372 0.9238794 0
    outer loop
      vertex 3.5857868 3.5857868 25.5
      vertex 5 3 4
      vertex 3.5857868 3.5857868 4
    endloop
  endfacet
  facet normal -0.3826833 0 0.92387956
    outer loop
      vertex 83 259 2
      vertex 84.414215 5 2.5857868
      vertex 84.414215 259 2.5857868
    endloop
  endfacet
  facet normal -0.3826833 0 0.92387956
    outer loop
      vertex 84.414215 5 2.5857868
      vertex 83 259 2
      vertex 83 5 2
    endloop
  endfacet
  facet normal -0.35740656 0.35740706 0.86285615
    outer loop
      vertex 84.414215 5 2.5857868
      vertex 83 5 2
      vertex 83 3.5857868 2.5857868
    endloop
  endfacet
  facet normal 0 0.9238794 0.38268372
    outer loop
      vertex 83 3.5857868 2.5857868
      vertex 5 3 4
      vertex 83 3 4
    endloop
  endfacet
  facet normal 0 0.9238794 0.38268372
    outer loop
      vertex 5 3 4
      vertex 83 3.5857868 2.5857868
      vertex 5 3.5857868 2.5857868
    endloop
  endfacet
  facet normal 0.357407 0.357407 0.86285603
    outer loop
      vertex 5 3.5857868 2.5857868
      vertex 5 5 2
      vertex 3.5857868 5 2.5857868
    endloop
  endfacet
  facet normal 1 0 0
    outer loop
      vertex 3 5 25.5
      vertex 3 259 4
      vertex 3 259 25.5
    endloop
  endfacet
  facet normal 1 0 0
    outer loop
      vertex 3 259 4
      vertex 3 5 25.5
      vertex 3 5 4
    endloop
  endfacet
  facet normal 0 0.38268372 0.9238794
    outer loop
      vertex 5 5 2
      vertex 83 3.5857868 2.5857868
      vertex 83 5 2
    endloop
  endfacet
  facet normal 0 0.38268372 0.9238794
    outer loop
      vertex 83 3.5857868 2.5857868
      vertex 5 5 2
      vertex 5 3.5857868 2.5857868
    endloop
  endfacet
  facet normal -0.57735 -0.57735 0.5773508
    outer loop
      vertex 84.414215 259 2.5857868
      vertex 84.414215 260.4142 4
      vertex 83 260.4142 2.5857868
    endloop
  endfacet
  facet normal -0.35740662 -0.35740662 0.8628563
    outer loop
      vertex 84.414215 259 2.5857868
      vertex 83 260.4142 2.5857868
      vertex 83 259 2
    endloop
  endfacet
  facet normal 0.57735026 0.57735026 0.57735026
    outer loop
      vertex 5 3.5857868 2.5857868
      vertex 3.5857868 5 2.5857868
      vertex 3.5857868 3.5857868 4
    endloop
  endfacet
  facet normal -0.92388004 -0.38268223 0
    outer loop
      vertex 85 259 4
      vertex 84.414215 260.4142 25.5
      vertex 84.414215 260.4142 4
    endloop
  endfacet
  facet normal -0.92388004 -0.38268223 0
    outer loop
      vertex 84.414215 260.4142 25.5
      vertex 85 259 4
      vertex 85 259 25.5
    endloop
  endfacet
  facet normal 0.357407 0.86285603 0.357407
    outer loop
      vertex 5 3 4
      vertex 5 3.5857868 2.5857868
      vertex 3.5857868 3.5857868 4
    endloop
  endfacet
  facet normal 0.86285603 0.357407 0.357407
    outer loop
      vertex 3.5857868 3.5857868 4
      vertex 3.5857868 5 2.5857868
      vertex 3 5 4
    endloop
  endfacet
  facet normal 0 -0.3826833 0.92387956
    outer loop
      vertex 5 260.4142 2.5857868
      vertex 83 259 2
      vertex 83 260.4142 2.5857868
    endloop
  endfacet
  facet normal 0 -0.3826833 0.92387956
    outer loop
      vertex 83 259 2
      vertex 5 260.4142 2.5857868
      vertex 5 259 2
    endloop
  endfacet
  facet normal -0.38268223 -0.92388004 0
    outer loop
      vertex 83 261 4
      vertex 84.414215 260.4142 25.5
      vertex 83 261 25.5
    endloop
  endfacet
  facet normal -0.38268223 -0.92388004 0
    outer loop
      vertex 84.414215 260.4142 25.5
      vertex 83 261 4
      vertex 84.414215 260.4142 4
    endloop
  endfacet
  facet normal -0.92387986 0 0.38268268
    outer loop
      vertex 84.414215 5 2.5857868
      vertex 85 259 4
      vertex 84.414215 259 2.5857868
    endloop
  endfacet
  facet normal -0.92387986 0 0.38268268
    outer loop
      vertex 85 259 4
      vertex 84.414215 5 2.5857868
      vertex 85 5 4
    endloop
  endfacet
  facet normal -0.86285675 0.3574061 0.3574061
    outer loop
      vertex 85 5 4
      vertex 84.414215 5 2.5857868
      vertex 84.414215 3.5857868 4
    endloop
  endfacet
  facet normal 0.38268372 0 0.9238794
    outer loop
      vertex 3.5857868 259 2.5857868
      vertex 5 5 2
      vertex 5 259 2
    endloop
  endfacet
  facet normal 0.38268372 0 0.9238794
    outer loop
      vertex 5 5 2
      vertex 3.5857868 259 2.5857868
      vertex 3.5857868 5 2.5857868
    endloop
  endfacet
  facet normal 0.9238794 0 0.38268372
    outer loop
      vertex 3 5 4
      vertex 3.5857868 259 2.5857868
      vertex 3 259 4
    endloop
  endfacet
  facet normal 0.9238794 0 0.38268372
    outer loop
      vertex 3.5857868 259 2.5857868
      vertex 3 5 4
      vertex 3.5857868 5 2.5857868
    endloop
  endfacet
  facet normal -0.3826833 0.92387956 0
    outer loop
      vertex 84.414215 3.5857868 4
      vertex 83 3 25.5
      vertex 84.414215 3.5857868 25.5
    endloop
  endfacet
  facet normal -0.3826833 0.92387956 0
    outer loop
      vertex 83 3 25.5
      vertex 84.414215 3.5857868 4
      vertex 83 3 4
    endloop
  endfacet
  facet normal 0.57735056 -0.5773497 0.57735056
    outer loop
      vertex 5 260.4142 2.5857868
      vertex 3.5857868 260.4142 4
      vertex 3.5857868 259 2.5857868
    endloop
  endfacet
  facet normal 0.35740706 -0.35740656 0.86285615
    outer loop
      vertex 5 259 2
      vertex 5 260.4142 2.5857868
      vertex 3.5857868 259 2.5857868
    endloop
  endfacet
  facet normal -0.3574057 -0.86285686 0.3574062
    outer loop
      vertex 84.414215 260.4142 4
      vertex 83 261 4
      vertex 83 260.4142 2.5857868
    endloop
  endfacet
  facet normal 0 -0.92387986 0.38268268
    outer loop
      vertex 5 260.4142 2.5857868
      vertex 83 261 4
      vertex 5 261 4
    endloop
  endfacet
  facet normal 0 -0.92387986 0.38268268
    outer loop
      vertex 83 261 4
      vertex 5 260.4142 2.5857868
      vertex 83 260.4142 2.5857868
    endloop
  endfacet
  facet normal 0.3574061 -0.86285675 0.3574061
    outer loop
      vertex 5 260.4142 2.5857868
      vertex 5 261 4
      vertex 3.5857868 260.4142 4
    endloop
  endfacet
  facet normal 0.86285615 -0.35740656 0.35740706
    outer loop
      vertex 3.5857868 259 2.5857868
      vertex 3.5857868 260.4142 4
      vertex 3 259 4
    endloop
  endfacet
endsolid OpenSCAD_Model
