<?xml version="1.0" standalone="no"?>
<!DOCTYPE svg PUBLIC "-//W3C//DTD SVG 1.1//EN" "http://www.w3.org/Graphics/SVG/1.1/DTD/svg11.dtd">
<!--Generator: Xara Designer (www.xara.com), SVG filter version: 6.0.0.4-->
<svg stroke-width="0.501" stroke-linejoin="bevel" fill-rule="evenodd" xmlns:xlink="http://www.w3.org/1999/xlink" xmlns="http://www.w3.org/2000/svg" version="1.1" overflow="visible" width="595.277pt" height="841.891pt" viewBox="0 0 595.277 841.891">
 <defs>
	</defs>
 <g id="Document" fill="none" stroke="black" font-family="Times New Roman" font-size="16" transform="scale(1 -1)">
  <g id="Spread" transform="translate(0 -841.891)">
   <g id="Layer 1">
    <path d="M 108.358,677.718 C 106.553,678.979 104.325,680.767 103.785,681.842 C 103.453,682.5 103.247,683.211 103.137,683.939 C 102.519,686.024 102.506,688.244 103.018,690.226 L 102.95,690.394 C 104.548,695.44 106.075,700.44 106.295,704.569 C 90.907,693.688 81.284,690.696 70.912,683.157 C 70.461,682.741 69.94,682.363 69.345,682.028 C 67.869,680.998 66.038,680.46 64.155,680.663 C 62.531,680.839 60.363,681.24 59.419,681.845 C 57.272,683.217 55.408,685.977 54.79,687.634 C 54.256,689.066 53.962,690.438 53.643,691.615 C 53.348,692.917 53.167,694.269 53.48,695.756 C 53.86,697.545 54.341,700.14 55.689,701.653 C 56.507,702.575 57.536,703.203 58.691,703.429 C 58.649,703.444 58.604,703.441 58.559,703.438 C 59.913,704.161 61.318,704.542 62.658,704.503 C 73.989,705.87 87.166,708.195 96.708,712.837 C 84.982,720.479 77.015,736.051 76.513,751.23 C 75.67,776.702 104.542,782.445 119.194,815.253 C 121.583,777.508 137.032,780.694 129.864,739.127 C 147.701,755.37 125.565,765.882 148.816,793.275 C 142.287,755.212 154.23,761.518 151.843,739.286 C 150.597,727.695 144.311,719.179 136.027,713.945 C 136.721,713.572 135.57,714.189 136.271,713.832 C 146.693,716.191 152.724,723.803 155.092,734.056 C 158.226,719.882 153.124,712.264 136.837,713.548 C 145.621,709.725 154.364,706.106 162.94,703.332 C 163.011,703.34 163.178,703.27 163.344,703.202 C 164.504,703.318 166.5,702.656 167.911,702.055 C 170.249,701.055 171.68,698.756 171.969,696.195 C 172.488,691.653 167.205,684.702 162.859,682.719 C 160.277,681.538 157.44,680.773 155.199,680.626 C 152.425,680.446 150.245,681.808 149.363,684.078 C 149.073,684.193 148.375,685.867 147.542,687.209 C 140.464,693.454 132.63,698.945 124.29,703.931 C 124.991,702.918 127.227,699.593 128.409,697.265 C 129.219,695.669 129.829,693.948 130.431,692.29 L 130.504,692.052 L 130.52,691.997 C 131.413,690.066 131.929,687.76 131.915,685.569 C 131.89,681.017 125.215,675.121 118.737,674.944 C 115.064,674.842 111.108,675.796 108.358,677.718 Z M 131.003,685.574 C 131.006,686.193 130.965,686.82 130.878,687.469 L 129.673,687.376 L 129.274,687.37 L 129.364,685.957 C 129.358,685.022 129.008,684.012 128.402,683.023 L 128.337,682.935 L 129.032,682.644 L 129.127,682.605 L 129.049,682.415 L 128.954,682.454 L 128.166,682.707 L 127.311,681.563 C 126.47,680.616 125.417,679.734 124.241,679.011 L 123.208,678.425 C 123.237,678.347 123.238,678.177 123.251,678.089 L 123.267,677.988 L 123.066,677.955 L 123.049,678.056 L 122.974,678.336 L 122.392,678.058 C 121.112,677.517 119.753,677.181 118.402,677.144 C 117.634,677.123 116.852,677.156 116.075,677.244 L 115.548,677.342 L 115.517,677.259 L 115.046,676.156 L 116.046,675.971 C 116.934,675.87 117.829,675.832 118.712,675.856 C 124.863,676.024 130.98,681.669 131.003,685.574 Z M 114.812,676.2 L 115.165,677.211 L 115.218,677.403 L 113.78,677.669 C 113.032,677.864 112.309,678.11 111.631,678.409 L 110,679.315 L 108.994,678.395 L 109.891,677.837 C 110.953,677.25 112.158,676.787 113.431,676.455 L 114.812,676.2 Z M 122.228,678.537 L 122.813,678.841 L 122.593,679.274 L 122.427,679.534 L 121.831,679.226 C 120.753,678.77 119.607,678.489 118.47,678.459 C 117.824,678.44 117.167,678.469 116.514,678.543 L 116.029,678.632 L 115.728,677.825 L 116.129,677.75 C 116.882,677.665 117.641,677.632 118.389,677.653 C 119.696,677.688 121.003,678.015 122.228,678.537 Z M 115.356,677.894 L 115.424,678.139 L 115.629,678.706 L 114.582,678.9 C 113.953,679.063 113.344,679.271 112.772,679.521 L 111.298,680.32 C 111.238,680.265 111.142,680.161 111.08,680.122 L 110.964,680.084 L 110.873,680.063 L 110.399,679.673 L 111.841,678.873 C 112.492,678.587 113.188,678.35 113.908,678.162 L 115.356,677.894 Z M 108.798,678.526 L 109.721,679.475 L 107.433,681.242 C 106.728,681.856 106.158,682.445 105.94,682.88 L 105.648,683.527 L 104.218,683.284 L 104.262,683.097 C 104.351,682.807 104.463,682.523 104.601,682.252 C 104.911,681.632 106.112,680.548 107.482,679.493 L 108.798,678.526 Z M 121.666,679.705 L 122.129,679.946 L 121.984,680.13 C 121.868,680.275 121.762,680.424 121.716,680.544 L 121.636,680.709 L 121.073,680.452 C 120.185,680.125 119.254,679.939 118.344,679.957 C 117.827,679.966 117.303,680.013 116.785,680.095 L 116.696,680.117 L 116.475,679.602 L 116.237,679.11 L 116.566,679.049 C 117.195,678.977 117.831,678.95 118.457,678.967 C 119.55,678.997 120.643,679.269 121.666,679.705 Z M 123.082,678.98 L 123.994,679.454 C 125.117,680.148 126.116,680.99 126.914,681.885 L 127.656,682.871 L 126.936,683.103 L 126.716,683.168 L 125.977,682.18 C 125.269,681.38 124.38,680.637 123.388,680.029 L 122.761,679.706 L 122.815,679.623 L 123.082,678.98 Z M 115.814,679.188 L 116.263,680.217 L 115.26,680.453 C 114.766,680.608 114.291,680.797 113.848,681.02 L 112.832,681.659 L 111.94,680.896 L 111.711,680.691 L 112.982,679.986 C 113.526,679.747 114.107,679.549 114.71,679.392 L 115.814,679.188 Z M 110.097,679.84 L 110.634,680.333 L 110.868,680.437 L 110.992,680.553 L 109.239,681.906 C 108.644,682.423 108.162,682.922 107.977,683.292 C 107.867,683.508 107.777,683.733 107.705,683.964 L 107.683,684.058 L 107.488,684.01 L 106.171,683.665 L 106.395,683.109 C 106.762,682.378 108.474,680.968 110.038,679.874 L 110.097,679.84 Z M 122.488,680.132 L 123.141,680.472 C 124.079,681.051 124.914,681.754 125.579,682.502 L 126.199,683.324 L 125.319,683.588 L 124.554,682.679 C 123.943,682.061 123.191,681.494 122.363,681.041 L 122.048,680.897 L 122.374,680.311 L 122.488,680.132 Z M 120.927,680.938 L 121.419,681.165 L 120.947,682.155 L 120.821,682.09 C 120.17,681.815 119.479,681.646 118.792,681.628 C 118.405,681.617 118.011,681.634 117.617,681.679 L 117.43,681.713 L 117.401,681.613 C 117.292,681.388 117.159,681.183 117.056,680.949 L 116.903,680.595 L 118.353,680.465 C 119.217,680.449 120.094,680.627 120.927,680.938 Z M 116.482,680.688 L 117.027,681.788 L 116.457,681.893 C 116.078,681.991 115.712,682.116 115.366,682.268 L 114.416,682.796 L 114.255,682.637 C 114.168,682.555 114.102,682.497 114.077,682.486 C 114.038,682.467 113.87,682.45 113.744,682.44 L 113.236,682.005 L 114.08,681.474 C 114.497,681.265 114.946,681.086 115.412,680.94 L 116.482,680.688 Z M 111.369,680.9 L 112.476,681.92 L 111.16,683.065 C 110.711,683.506 110.348,683.929 110.218,684.24 L 110.085,684.738 C 109.998,684.705 109.934,684.681 109.921,684.683 C 109.828,684.686 109.745,684.744 109.681,684.822 L 109.602,684.899 C 109.485,684.881 109.386,684.857 109.278,684.825 L 109.175,684.794 L 109.131,684.735 C 109.029,684.601 108.886,684.411 108.818,684.369 C 108.781,684.345 108.695,684.315 108.582,684.282 L 108.221,684.187 L 108.432,683.521 C 108.659,683.069 109.518,682.294 110.488,681.546 L 111.369,680.9 Z M 121.825,681.352 L 122.134,681.494 C 122.907,681.922 123.606,682.451 124.173,683.021 L 124.84,683.805 L 123.684,684.359 L 123.323,683.874 C 122.896,683.39 122.36,682.941 121.76,682.574 L 121.315,682.345 L 121.614,681.809 L 121.825,681.352 Z M 67.437,682.106 L 68.103,682.473 L 67.477,683.576 L 66.708,683.152 C 66.243,682.961 65.754,682.825 65.252,682.75 L 64.064,682.726 L 64.196,681.656 L 64.262,681.646 C 65.363,681.527 66.45,681.701 67.437,682.106 Z M 63.947,681.697 L 63.714,682.719 C 62.336,682.868 60.55,683.203 59.793,683.689 L 59.336,684.059 L 58.987,683.424 L 59.238,683.198 C 59.471,683.006 59.709,682.831 59.952,682.677 C 60.311,682.447 60.972,682.234 61.752,682.057 L 63.947,681.697 Z M 155.067,681.762 L 155.117,681.885 L 155.072,681.939 C 154.966,682.1 155.023,682.222 155.128,682.365 L 155.262,682.541 L 155.333,682.699 L 154.735,682.711 C 153.78,682.815 152.95,683.165 152.291,683.708 L 151.757,684.247 L 150.9,683.542 L 150.986,683.409 C 151.714,682.504 152.786,681.919 154.097,681.78 L 155.067,681.762 Z M 155.287,681.783 L 156.784,681.971 C 157.953,682.18 159.225,682.524 160.527,683.007 L 160.392,683.743 L 158.787,683.235 C 157.7,682.939 156.651,682.752 155.729,682.691 L 155.623,682.693 L 155.586,682.62 C 155.524,682.507 155.465,682.412 155.369,682.284 L 155.287,682.178 L 155.271,682.031 C 155.311,681.979 155.338,681.939 155.341,681.918 L 155.287,681.783 Z M 120.648,682.567 L 120.731,682.611 L 120.687,682.704 L 120.39,683.559 L 119.753,683.352 C 119.53,683.3 119.304,683.269 119.079,683.264 L 118.094,683.375 L 117.647,682.341 L 117.593,682.199 L 117.67,682.184 C 118.039,682.142 118.411,682.126 118.779,682.136 C 119.417,682.153 120.053,682.313 120.648,682.567 Z M 112.854,682.266 L 113.109,682.495 C 113.28,682.645 113.451,682.787 113.56,682.848 C 113.584,682.862 113.755,682.876 113.883,682.888 L 114.07,683.061 L 113.251,683.693 C 112.89,684.006 112.593,684.314 112.475,684.551 L 112.274,685.18 L 112.043,685.113 C 111.847,685.049 110.907,684.716 110.747,684.754 L 110.604,684.784 L 110.687,684.439 C 110.786,684.203 111.1,683.838 111.514,683.432 L 112.854,682.266 Z M 117.199,682.272 L 117.456,682.845 L 117.74,683.416 L 117.553,683.436 C 117.058,683.566 116.593,683.765 116.209,684.034 L 115.97,684.218 L 115.093,683.474 C 115.054,683.437 114.976,683.36 114.881,683.263 L 114.788,683.168 L 115.576,682.731 C 115.893,682.593 116.232,682.476 116.585,682.385 L 117.199,682.272 Z M 68.31,682.588 L 68.835,682.877 C 69.27,683.187 69.67,683.545 70.023,683.947 C 72.037,686.229 71.789,691.529 70.142,695.117 L 70.079,695.18 L 70.009,695.252 L 69.96,695.385 C 69.908,695.496 69.84,695.6 69.756,695.691 C 69.733,695.717 69.71,695.74 69.676,695.773 L 69.641,695.825 C 69.617,695.865 69.589,695.903 69.56,695.94 L 69.52,695.989 C 69.506,696.017 69.492,696.046 69.475,696.087 C 69.441,696.165 69.407,696.253 69.36,696.372 C 69.317,696.479 69.264,696.613 69.206,696.745 C 69.116,696.869 69.024,696.989 68.93,697.104 L 67.677,698.497 L 67.362,698.056 L 67.237,697.92 L 68.227,696.819 C 68.818,696.102 69.317,695.163 69.696,694.116 L 69.747,693.94 L 70.193,694.016 L 70.293,694.035 L 70.33,693.833 L 70.229,693.814 L 69.822,693.685 L 70.171,692.481 C 70.424,691.356 70.542,690.18 70.5,689.068 L 70.382,688.057 L 70.445,688.015 C 70.501,687.967 70.556,687.909 70.653,687.81 L 70.726,687.738 L 70.584,687.592 L 70.51,687.663 L 70.353,687.799 L 70.313,687.462 C 70.103,686.442 69.719,685.543 69.133,684.878 C 68.802,684.503 68.429,684.167 68.021,683.877 L 67.765,683.736 L 68.31,682.588 Z M 121.07,682.787 L 121.505,683.013 C 122.05,683.351 122.535,683.758 122.921,684.191 L 123.227,684.595 L 122.34,685.119 L 122.061,684.742 C 121.919,684.581 121.76,684.427 121.587,684.283 L 120.625,683.696 L 120.946,683.009 L 121.07,682.787 Z M 160.62,683.034 L 162.386,683.755 C 166.436,685.603 171.281,692.174 170.837,696.065 C 170.774,696.626 170.648,697.164 170.468,697.669 L 170.228,698.148 L 169.093,697.273 L 169.228,696.965 C 169.397,696.489 169.514,695.986 169.573,695.468 C 169.676,694.554 169.483,693.51 169.079,692.431 L 168.894,692.029 L 169.183,692.11 L 169.254,692.134 L 169.303,691.992 L 169.232,691.967 C 169.091,691.913 169.015,691.88 168.937,691.859 L 168.807,691.843 L 168.325,690.798 C 167.732,689.709 166.97,688.635 166.127,687.672 L 165.105,686.624 L 165.42,686.262 L 165.476,686.211 L 165.374,686.099 L 165.318,686.15 L 164.966,686.481 L 164.813,686.324 C 163.91,685.498 162.967,684.831 162.074,684.424 L 160.576,683.813 L 160.601,683.634 L 160.62,683.034 Z M 155.503,683.073 L 155.577,683.235 L 156.01,684.09 L 155.793,684.096 C 154.986,684.183 154.283,684.48 153.725,684.939 L 153.27,685.4 L 152.184,684.598 L 152.049,684.488 L 152.531,684.001 C 153.136,683.502 153.901,683.181 154.783,683.086 L 155.503,683.073 Z M 155.822,683.084 L 157.131,683.248 C 158.133,683.426 159.22,683.721 160.314,684.116 L 160.19,684.849 L 159.204,684.537 C 158.29,684.288 157.408,684.129 156.632,684.079 L 156.326,684.084 L 155.822,683.084 Z M 127.857,683.138 L 127.947,683.258 C 128.52,684.183 128.85,685.116 128.855,685.96 L 128.766,687.363 L 128.04,687.354 L 127.615,687.314 C 127.681,686.823 127.711,686.355 127.708,685.893 C 127.706,685.497 127.631,685.085 127.493,684.668 L 126.94,683.501 L 127.199,683.415 L 127.857,683.138 Z M 64.003,683.229 L 65.176,683.254 C 65.638,683.323 66.087,683.449 66.515,683.623 L 67.235,684.021 L 66.829,684.803 L 66.253,684.485 C 65.861,684.324 65.447,684.209 65.022,684.146 L 63.957,684.123 L 63.952,683.814 L 63.97,683.511 L 64.003,683.229 Z M 63.644,683.245 L 63.619,683.377 C 63.589,683.562 63.564,683.746 63.572,683.841 L 63.605,683.947 L 63.575,684.141 L 61.876,684.421 C 61.275,684.558 60.737,684.732 60.415,684.939 L 59.879,685.364 L 59.545,684.542 L 60.067,684.118 C 60.387,683.912 60.964,683.727 61.633,683.574 L 63.644,683.245 Z M 114.449,683.411 L 114.892,683.819 L 115.683,684.439 L 115.458,684.613 C 115.22,684.82 115.02,685.027 114.937,685.192 C 114.847,685.37 114.789,685.563 114.756,685.758 L 114.754,685.808 L 113.457,685.525 L 112.759,685.321 L 112.93,684.78 C 113.012,684.617 113.257,684.365 113.581,684.083 L 114.449,683.411 Z M 104.165,683.514 L 105.576,683.858 L 105.423,684.506 C 105.332,685.068 105.313,685.638 105.353,686.185 L 105.484,686.943 L 104.196,687.035 L 103.981,685.787 C 103.94,685.199 103.958,684.587 104.055,683.986 L 104.165,683.514 Z M 58.793,683.598 L 59.083,684.265 L 58.519,684.722 C 58.117,685.118 57.742,685.553 57.406,685.996 L 56.971,686.646 L 56.584,686.329 L 57.319,685.231 C 57.692,684.739 58.109,684.255 58.553,683.816 L 58.793,683.598 Z M 150.825,683.656 L 151.654,684.37 L 151.216,685.038 C 150.944,685.557 150.762,686.146 150.687,686.789 C 150.486,688.491 151.355,690.724 151.966,692.375 L 152.285,693.097 L 151.89,693.206 C 151.722,692.881 151.575,692.552 151.447,692.203 C 150.694,690.157 149.763,687.721 149.973,685.935 C 150.049,685.277 150.231,684.675 150.506,684.147 L 150.825,683.656 Z M 126.451,683.665 L 126.998,684.798 C 127.127,685.176 127.198,685.545 127.2,685.896 C 127.202,686.336 127.172,686.783 127.114,687.228 L 127.097,687.319 L 126.089,687.28 L 126.157,686.74 C 126.18,686.363 126.179,685.985 126.151,685.614 C 126.127,685.293 126.043,684.963 125.909,684.632 L 125.543,683.968 L 126.451,683.665 Z M 119.662,683.852 L 119.855,683.915 L 119.581,684.464 L 119.145,684.389 L 118.532,684.457 L 118.292,683.86 L 119.066,683.773 C 119.266,683.778 119.467,683.805 119.662,683.852 Z M 117.978,683.896 L 118.271,684.486 L 118.166,684.498 C 117.849,684.581 117.548,684.709 117.298,684.883 L 117.04,685.083 L 116.699,684.837 L 116.366,684.555 L 116.502,684.451 C 116.831,684.221 117.239,684.046 117.682,683.929 L 117.978,683.896 Z M 120.027,683.972 L 120.224,684.039 L 120.171,684.194 L 120.138,684.29 L 120.33,684.355 L 120.362,684.26 L 120.412,684.151 L 121.254,684.668 L 121.895,685.383 L 121.577,685.572 L 121.488,685.621 L 121.586,685.798 L 121.675,685.749 L 122.027,685.583 L 122.171,685.874 C 122.218,686.006 122.243,686.135 122.244,686.256 L 122.151,686.96 L 121.809,686.926 L 121.462,686.842 L 121.526,686.344 C 121.523,685.684 120.835,684.93 120.004,684.583 L 119.864,684.539 L 120.027,683.972 Z M 106.067,683.989 L 107.591,684.449 L 107.54,684.667 C 107.462,685.142 107.447,685.624 107.481,686.088 L 107.611,686.836 L 107.082,686.828 L 105.992,686.906 L 105.861,686.15 C 105.825,685.644 105.841,685.118 105.925,684.601 L 106.067,683.989 Z M 125.068,684.162 L 125.423,684.789 C 125.545,685.085 125.621,685.374 125.643,685.652 C 125.668,686 125.67,686.356 125.648,686.711 L 125.579,687.26 L 124.909,687.236 L 124.235,687.169 L 124.37,686.139 C 124.368,685.895 124.322,685.642 124.239,685.388 L 123.916,684.7 L 125.068,684.162 Z M 67.548,684.193 L 67.725,684.29 C 68.1,684.558 68.445,684.869 68.751,685.215 C 69.28,685.816 69.629,686.648 69.821,687.602 L 69.882,688.149 L 69.48,688.409 L 69.345,688.479 L 69.303,688.127 C 69.125,687.266 68.8,686.506 68.303,685.944 C 68.023,685.627 67.707,685.343 67.363,685.098 L 67.17,684.991 L 67.548,684.193 Z M 160.521,684.201 L 161.916,684.769 C 162.787,685.167 163.703,685.817 164.579,686.623 L 164.693,686.739 L 164.335,687.076 L 164.274,687.138 C 163.511,686.44 162.719,685.88 161.967,685.537 C 161.515,685.331 161.054,685.143 160.59,684.976 L 160.42,684.922 L 160.432,684.827 L 160.521,684.201 Z M 159.105,684.903 L 160.122,685.225 L 160.012,685.831 L 159.864,685.77 C 159.128,685.533 158.414,685.368 157.781,685.292 C 157.542,685.263 157.312,685.255 157.089,685.265 L 156.956,685.283 L 156.517,684.458 L 156.607,684.457 C 157.355,684.505 158.213,684.659 159.105,684.903 Z M 156.198,684.464 L 156.634,685.326 L 156.446,685.351 C 156.035,685.445 155.662,685.608 155.338,685.831 L 154.669,686.525 L 154.54,686.435 L 153.563,685.639 L 153.966,685.232 C 154.47,684.816 155.106,684.549 155.841,684.471 L 156.198,684.464 Z M 108.092,684.599 L 108.575,684.733 L 108.62,684.794 C 108.719,684.926 108.847,685.1 108.928,685.158 C 109.03,685.233 109.746,685.421 109.879,685.308 C 109.939,685.257 109.951,685.217 109.98,685.168 L 109.942,685.371 C 109.906,685.759 109.921,686.149 109.974,686.522 L 110.06,686.873 L 108.126,686.844 L 107.988,686.051 C 107.958,685.63 107.972,685.192 108.041,684.762 L 108.092,684.599 Z M 151.941,684.617 L 152.047,684.708 C 152.363,684.975 152.699,685.223 153.02,685.484 L 153.13,685.584 L 152.815,686.064 C 152.585,686.503 152.431,687.002 152.367,687.546 C 152.324,687.904 152.339,688.291 152.392,688.691 L 152.409,688.771 L 151.929,688.562 L 151.131,688.291 L 151.092,688.111 C 151.032,687.661 151.016,687.23 151.063,686.833 C 151.132,686.241 151.297,685.698 151.547,685.222 L 151.941,684.617 Z M 63.923,684.628 L 64.947,684.649 C 65.331,684.707 65.705,684.811 66.061,684.957 L 66.596,685.252 L 66.44,685.553 L 66.098,686.275 L 65.524,686.014 C 65.196,685.908 64.853,685.839 64.503,685.813 L 63.771,685.848 L 63.871,684.954 L 63.923,684.628 Z M 63.501,684.669 L 63.341,685.887 L 61.953,686.207 C 61.468,686.35 61.034,686.519 60.777,686.702 L 60.463,686.981 L 60.388,686.904 C 60.324,686.887 60.246,686.895 60.171,686.916 L 60.124,686.793 L 60.134,686.707 C 60.178,686.555 60.239,686.34 60.235,686.266 C 60.233,686.234 60.214,686.173 60.185,686.096 L 60.088,685.856 L 60.689,685.368 C 60.953,685.199 61.43,685.044 61.989,684.917 L 63.501,684.669 Z M 116.097,684.763 L 116.513,685.087 L 116.803,685.275 L 116.475,685.641 C 116.353,685.882 116.318,686.154 116.336,686.406 L 116.406,686.648 L 115.341,686.79 L 115.31,686.717 C 115.205,686.341 115.189,685.824 115.393,685.421 C 115.438,685.331 115.582,685.18 115.782,685.007 L 116.097,684.763 Z M 59.261,684.773 L 59.524,685.535 L 59.56,685.632 L 59.34,685.81 C 59,686.144 58.683,686.512 58.4,686.884 L 57.991,687.497 L 57.897,687.401 L 57.367,686.969 L 57.811,686.304 C 58.13,685.883 58.487,685.469 58.867,685.094 L 59.261,684.773 Z M 119.131,684.898 L 119.454,684.972 L 119.422,685.102 L 119.363,685.648 L 119.064,685.651 C 118.933,685.671 118.807,685.711 118.697,685.765 C 118.579,685.822 118.486,685.904 118.416,686 L 118.39,686.056 L 117.471,685.394 L 117.591,685.302 C 117.785,685.165 118.03,685.061 118.296,684.991 L 118.51,684.967 L 118.553,685.052 L 118.59,685.147 L 118.78,685.072 L 118.731,684.95 L 119.131,684.898 Z M 123.453,684.917 L 123.744,685.514 C 123.82,685.73 123.859,685.942 123.862,686.142 L 123.733,687.118 L 122.654,687.01 L 122.753,686.253 C 122.751,686.088 122.721,685.919 122.665,685.748 L 122.489,685.367 L 123.453,684.917 Z M 119.857,685.08 L 120.437,685.435 C 120.815,685.749 121.016,686.104 121.018,686.347 L 120.969,686.722 L 120.576,686.628 L 120.352,686.52 L 120.331,686.27 C 120.304,686.172 120.253,686.081 120.192,686.002 C 120.13,685.922 120.044,685.839 119.875,685.749 L 119.856,685.205 L 119.857,685.08 Z M 110.8,685.168 L 111.192,685.255 L 112.199,685.543 L 112.169,686.261 C 112.189,686.544 112.238,686.815 112.308,687.059 L 112.362,687.188 L 111.494,687.337 L 110.708,687.389 C 110.504,686.818 110.388,686.115 110.449,685.431 L 110.497,685.231 L 110.7,685.198 L 110.8,685.168 Z M 160.375,685.305 L 160.459,685.332 C 160.913,685.496 161.366,685.68 161.809,685.883 C 162.174,686.049 162.548,686.268 162.922,686.53 L 164.028,687.427 L 163.664,687.844 L 162.981,687.251 C 162.677,687.023 162.371,686.828 162.073,686.678 L 160.298,685.948 L 160.375,685.305 Z M 66.953,685.449 L 67.066,685.512 C 67.379,685.734 67.667,685.993 67.921,686.281 C 68.36,686.78 68.652,687.472 68.811,688.268 L 68.862,688.723 L 68.228,689.023 L 68.166,688.739 C 67.985,688.065 67.689,687.48 67.259,687.059 L 66.488,686.463 L 66.824,685.724 L 66.953,685.449 Z M 117.249,685.564 L 118.301,686.245 L 118.273,686.31 L 118.268,686.444 L 117.968,686.506 L 116.905,686.59 L 116.845,686.37 C 116.833,686.203 116.854,686.02 116.93,685.871 C 116.944,685.843 117.015,685.76 117.156,685.637 L 117.249,685.564 Z M 157.148,685.644 L 157.735,685.668 C 158.342,685.741 159.033,685.9 159.747,686.13 L 159.943,686.211 L 159.921,686.339 L 159.852,687.058 L 159.729,687.014 C 159.183,686.865 158.655,686.771 158.189,686.742 L 157.756,686.787 L 157.148,685.644 Z M 112.7,685.67 L 113.685,685.869 L 114.745,686.023 L 114.732,686.338 L 114.823,686.858 L 114.289,686.929 C 114.108,686.952 113.973,686.924 113.816,686.94 L 112.875,687.099 L 112.793,686.903 C 112.735,686.697 112.695,686.466 112.677,686.225 L 112.7,685.67 Z M 156.823,685.681 L 157.516,686.812 L 157.206,686.845 C 156.907,686.935 156.64,687.079 156.411,687.267 L 156.115,687.569 C 155.904,687.411 155.706,687.256 155.499,687.104 L 154.979,686.741 L 155.553,686.143 C 155.839,685.945 156.169,685.801 156.536,685.719 L 156.823,685.681 Z M 153.413,685.84 L 154.13,686.49 L 154.481,686.76 L 154.251,687.212 C 154.176,687.403 154.118,687.607 154.077,687.821 C 154.023,688.101 154.014,688.406 154.037,688.723 L 154.112,689.207 L 153.375,689.053 L 152.828,688.931 L 152.769,688.654 C 152.718,688.279 152.704,687.92 152.743,687.59 C 152.801,687.096 152.939,686.645 153.147,686.249 L 153.413,685.84 Z M 59.744,686.137 L 59.799,686.285 L 59.779,686.353 C 59.734,686.498 59.677,686.681 59.677,686.783 C 59.676,686.896 59.792,687.196 59.934,687.346 L 60.006,687.389 L 59.936,687.452 C 59.672,687.734 59.428,688.043 59.212,688.354 L 59.037,688.641 L 58.605,688.114 L 58.357,687.865 L 58.806,687.193 C 59.073,686.842 59.37,686.496 59.687,686.182 L 59.744,686.137 Z M 119.308,686.164 L 119.297,686.278 L 118.836,686.335 L 118.921,686.222 L 119.308,686.164 Z M 65.368,686.498 L 65.883,686.733 L 65.667,687.193 C 65.595,687.359 65.527,687.527 65.467,687.699 L 65.434,687.792 L 65.4,687.853 L 65.116,687.696 C 64.876,687.597 64.623,687.526 64.362,687.487 L 63.73,687.473 L 63.749,687.364 C 63.765,687.257 63.774,687.18 63.77,687.161 C 63.766,687.142 63.731,687.088 63.695,687.033 L 63.653,686.973 L 63.696,686.527 L 63.696,686.343 C 64.28,686.268 64.845,686.329 65.368,686.498 Z M 160.251,686.342 L 161.903,687.015 C 162.191,687.161 162.484,687.349 162.776,687.569 L 163.403,688.116 L 162.775,688.584 C 162.304,688.15 161.829,687.815 161.379,687.61 L 160.207,687.186 L 160.251,686.342 Z M 63.696,686.345 L 63.524,686.368 C 63.572,686.357 63.634,686.347 63.696,686.345 Z M 63.272,686.425 L 63.233,686.744 C 63.216,686.909 63.206,687.068 63.23,687.121 L 63.311,687.241 L 63.288,687.499 L 62.46,687.652 C 62.094,687.735 61.762,687.843 61.559,687.974 L 61.157,688.299 L 61.09,688.07 C 61.02,687.839 60.941,687.613 60.845,687.442 L 60.77,687.388 L 61.074,687.117 C 61.276,686.972 61.653,686.825 62.097,686.695 L 63.272,686.425 Z M 56.44,686.547 L 56.794,686.913 L 56.527,687.313 C 56.283,687.738 56.09,688.139 55.963,688.481 C 55.738,689.079 55.566,689.662 55.416,690.222 L 55.304,690.654 L 54.92,690.63 L 55.09,689.974 C 55.264,689.33 55.459,688.667 55.716,687.98 C 55.856,687.605 56.07,687.164 56.342,686.693 L 56.44,686.547 Z M 119.234,686.799 L 119.247,686.912 L 119.114,686.883 L 119.041,686.824 L 119.234,686.799 Z M 164.858,686.909 L 165.854,687.934 C 166.671,688.87 167.408,689.913 167.983,690.964 L 168.307,691.66 L 168.183,691.633 L 167.534,691.567 L 167.227,690.9 C 166.727,689.983 166.086,689.079 165.377,688.269 L 164.482,687.351 L 164.609,687.194 L 164.858,686.909 Z M 66.273,686.935 L 66.903,687.423 C 67.271,687.782 67.528,688.304 67.684,688.913 L 67.754,689.343 L 66.969,689.873 L 66.75,689.187 C 66.649,688.963 66.522,688.76 66.37,688.588 C 66.199,688.395 66.006,688.221 65.774,688.044 L 66.273,686.935 Z M 118.413,686.961 L 118.881,687.337 L 119.323,687.438 L 119.607,688.075 L 119.22,688.107 C 118.786,688.098 118.322,687.899 117.91,687.728 C 117.722,687.65 117.59,687.554 117.476,687.443 L 117.374,687.334 L 117.183,687.099 L 117.242,687.094 C 117.547,687.067 117.884,687.074 118.183,687.02 L 118.413,686.961 Z M 154.795,687.001 L 155.326,687.408 L 155.915,687.88 L 155.853,687.955 C 155.712,688.224 155.619,688.529 155.58,688.862 C 155.476,689.737 155.921,690.875 156.22,691.687 C 156.463,692.34 156.839,692.843 157.252,693.309 L 157.659,693.748 L 156.996,694.334 L 156.273,693.496 C 156.021,693.187 155.785,692.872 155.581,692.534 L 155.537,692.367 L 155.465,692.233 L 155.079,691.433 C 154.898,690.866 154.692,690.232 154.553,689.595 L 154.624,689.602 C 154.866,689.631 155.105,689.614 155.347,689.617 L 155.422,689.62 L 155.428,689.47 L 155.353,689.467 L 154.506,689.289 L 154.415,688.709 C 154.393,688.419 154.4,688.143 154.449,687.891 L 154.795,687.001 Z M 120.178,687.021 L 120.801,687.255 L 120.733,687.443 C 120.617,687.641 120.409,687.811 120.13,687.934 L 119.844,687.324 L 120.082,687.142 L 120.178,687.021 Z M 110.115,687.095 L 110.198,687.439 L 110.111,687.446 L 110.125,687.609 L 110.247,687.602 L 110.632,688.384 L 111.245,689.157 L 110.328,689.44 C 110.222,689.478 110.069,689.512 109.924,689.557 L 109.669,689.682 L 109.468,689.432 C 109.154,689.036 108.846,688.619 108.574,688.16 C 108.426,687.912 108.295,687.595 108.187,687.2 L 108.747,687.165 L 110.115,687.095 Z M 159.628,687.379 L 159.815,687.447 L 159.787,687.747 L 159.787,688.187 L 159.026,688.052 C 158.551,688.022 158.141,688.154 157.835,688.406 L 157.734,688.53 L 157.108,688.158 L 156.716,687.993 L 156.453,687.808 L 156.653,687.559 C 156.844,687.401 157.07,687.281 157.323,687.205 L 157.731,687.164 L 158.157,687.859 L 158.196,687.923 L 158.324,687.845 L 158.285,687.781 L 157.945,687.142 L 158.164,687.12 C 158.602,687.147 159.105,687.237 159.628,687.379 Z M 116.601,687.156 L 116.983,687.663 C 117.159,687.862 117.372,688.055 117.715,688.198 C 118.084,688.352 118.657,688.605 119.207,688.616 C 119.406,688.621 119.606,688.605 119.818,688.562 L 120.086,689.148 L 120.02,689.169 C 119.758,689.22 119.481,689.244 119.199,689.238 C 118.467,689.22 117.695,688.886 117.046,688.616 C 116.614,688.436 116.353,688.2 116.114,687.932 L 115.769,687.505 L 115.591,687.25 L 115.654,687.246 L 116.601,687.156 Z M 107.677,687.212 L 107.709,687.391 C 107.823,687.789 107.971,688.141 108.137,688.42 C 108.42,688.898 108.745,689.338 109.07,689.75 L 109.344,690.089 L 108.804,690.32 L 108.65,690.33 C 108.446,690.348 108.321,690.388 108.179,690.458 L 107.94,690.584 L 107.634,690.206 C 107.258,689.731 106.891,689.232 106.566,688.683 C 106.388,688.384 106.23,688.003 106.107,687.571 L 106.056,687.275 L 106.266,687.276 L 107.677,687.212 Z M 104.237,687.269 L 105.543,687.273 L 105.622,687.727 C 105.757,688.197 105.931,688.613 106.126,688.943 C 106.464,689.511 106.849,690.034 107.236,690.523 L 107.48,690.824 L 106.646,691.251 L 106.057,690.523 C 105.614,689.964 105.181,689.378 104.797,688.732 C 104.592,688.385 104.408,687.943 104.267,687.441 L 104.237,687.269 Z M 57.155,687.287 L 57.522,687.665 L 57.749,687.862 L 57.659,687.996 C 57.453,688.354 57.29,688.691 57.183,688.981 C 56.996,689.484 56.85,689.974 56.724,690.444 L 56.602,690.917 L 56.267,690.862 C 56.132,690.743 56.036,690.703 55.917,690.686 L 55.823,690.682 L 55.909,690.351 C 56.055,689.806 56.221,689.242 56.441,688.66 C 56.56,688.338 56.743,687.958 56.976,687.556 L 57.155,687.287 Z M 115.731,688.266 C 116.003,688.574 116.325,688.867 116.849,689.085 C 117.472,689.345 118.34,689.726 119.185,689.747 C 119.496,689.754 119.807,689.728 120.107,689.67 L 120.238,689.629 L 120.296,690.121 C 120.3,690.334 120.303,690.544 120.374,690.782 L 120.284,690.817 C 119.866,690.898 119.427,690.937 118.98,690.927 C 117.804,690.896 116.577,690.363 115.575,689.945 C 115.053,689.727 114.681,689.457 114.37,689.157 L 114.076,688.847 L 113.787,688.489 L 114.035,688.381 L 114.129,688.344 L 114.054,688.154 L 113.959,688.192 L 113.638,688.306 L 113.531,688.173 C 113.348,687.941 113.168,687.699 113.002,687.411 L 113.722,687.334 C 113.916,687.328 114.034,687.361 114.246,687.356 L 115.002,687.296 C 115.226,687.673 115.517,687.997 115.731,688.266 Z M 121.312,687.356 L 122.007,687.495 L 121.764,688.095 C 121.562,688.444 121.203,688.736 120.754,688.938 L 120.612,688.947 L 120.346,688.397 C 120.703,688.239 120.995,688.004 121.172,687.701 L 121.312,687.356 Z M 112.474,687.456 L 112.571,687.69 L 113.13,688.486 L 111.752,688.977 L 111.053,688.098 L 110.797,687.572 L 111.904,687.513 L 112.474,687.456 Z M 122.52,687.575 L 123.661,687.674 C 123.527,688.19 123.335,688.667 123.097,689.076 L 122.843,689.37 L 122.133,688.949 L 122.051,688.891 L 121.935,689.056 L 122.017,689.114 L 122.668,689.572 L 122.425,689.854 C 122.148,690.084 121.822,690.284 121.46,690.446 L 120.875,690.63 L 120.812,690.427 C 120.806,690.29 120.843,689.994 120.839,689.875 L 120.74,689.472 L 120.963,689.402 C 121.495,689.164 121.94,688.807 122.206,688.351 L 122.52,687.575 Z M 160.187,687.581 L 161.221,687.955 C 161.434,688.052 161.653,688.181 161.872,688.334 L 162.493,688.838 L 161.966,689.216 L 161.099,688.616 L 160.184,688.286 L 160.171,687.896 L 160.187,687.581 Z M 129.5,687.585 L 130.839,687.668 L 130.519,689.304 C 130.2,690.518 129.737,691.672 129.161,692.661 L 129.056,692.806 L 128.992,692.767 C 128.846,692.681 128.702,692.603 128.613,692.578 C 128.574,692.567 128.431,692.609 128.326,692.64 L 128.176,692.577 L 128.087,692.489 C 127.975,692.379 127.901,692.322 127.802,692.263 L 127.738,692.226 L 128.419,690.826 C 128.825,689.824 129.114,688.726 129.26,687.6 L 129.5,687.585 Z M 128.741,687.617 L 128.444,689.132 C 128.308,689.649 128.142,690.152 127.948,690.632 L 127.293,691.977 L 126.205,691.364 L 126.33,691.191 C 126.762,690.446 127.11,689.584 127.348,688.676 L 127.547,687.661 L 127.725,687.661 L 128.741,687.617 Z M 164.244,687.647 L 165.104,688.531 C 165.788,689.315 166.404,690.187 166.884,691.065 L 167.107,691.543 L 166.599,691.546 L 166.27,691.491 L 166.117,691.114 C 165.753,690.373 165.273,689.636 164.731,688.97 L 163.909,688.064 L 164.244,687.647 Z M 127.028,687.664 L 126.855,688.546 C 126.628,689.411 126.298,690.23 125.889,690.935 L 125.766,691.105 L 124.924,690.595 C 125.089,690.379 125.228,690.157 125.343,689.927 C 125.647,689.311 125.877,688.603 126.017,687.865 L 126.041,687.669 L 127.028,687.664 Z M 125.528,687.672 L 125.516,687.769 C 125.385,688.464 125.169,689.127 124.886,689.702 C 124.785,689.904 124.662,690.098 124.521,690.284 L 124.473,690.337 L 123.282,689.63 L 123.538,689.332 C 123.799,688.882 124.009,688.362 124.152,687.815 L 124.169,687.679 L 125.528,687.672 Z M 60.497,687.696 L 60.627,687.984 L 60.857,688.558 L 60.338,689.151 C 60.167,689.377 60.015,689.606 59.891,689.823 L 59.815,689.977 L 59.415,689.745 L 59.108,689.498 C 59.396,688.952 59.813,688.331 60.3,687.808 L 60.497,687.696 Z M 63.642,687.977 L 64.287,687.99 C 64.506,688.024 64.719,688.083 64.922,688.166 L 65.171,688.304 L 64.898,688.907 L 64.669,689.455 L 64.586,689.409 C 64.263,689.278 63.908,689.221 63.544,689.261 L 63.463,689.273 L 63.563,688.417 C 63.569,688.372 63.587,688.275 63.609,688.156 L 63.642,687.977 Z M 63.234,688.039 L 63.103,689.332 L 62.825,689.377 C 62.583,689.432 62.359,689.505 62.216,689.597 L 61.813,689.923 L 61.322,688.817 L 61.833,688.403 C 61.977,688.31 62.248,688.222 62.571,688.149 L 63.234,688.039 Z M 156.196,688.126 L 156.708,688.401 C 156.873,688.478 157.04,688.547 157.23,688.646 L 157.475,688.85 C 157.366,689.047 157.304,689.252 157.279,689.475 C 157.207,690.059 157.503,690.804 157.691,691.32 C 157.852,691.751 158.101,692.083 158.368,692.388 C 158.619,692.653 158.898,692.973 159.25,693.291 L 159.135,693.719 C 159.094,693.859 159.119,693.96 159.096,694.079 L 158.951,694.487 L 158.849,694.411 L 158.068,693.606 L 158.178,693.492 L 158.233,693.441 L 158.129,693.33 L 158.074,693.382 L 157.954,693.488 L 157.532,693.053 C 157.138,692.608 156.795,692.145 156.575,691.555 C 156.263,690.703 155.866,689.668 155.956,688.906 C 155.989,688.624 156.067,688.366 156.196,688.126 Z M 58.122,688.217 L 58.899,688.867 L 58.652,689.274 C 58.497,689.569 58.378,689.847 58.301,690.082 L 58.043,691.04 L 57.281,690.791 L 57.165,690.771 L 57.216,690.575 C 57.339,690.118 57.479,689.647 57.661,689.159 C 57.761,688.89 57.914,688.574 58.122,688.217 Z M 165.768,691.265 L 165.831,691.418 L 165.725,691.401 L 164.763,691.321 L 164.535,690.825 C 164.385,690.55 164.214,690.276 164.026,690.011 L 162.986,688.824 L 163.635,688.319 C 164.482,689.158 165.249,690.213 165.768,691.265 Z M 159.001,688.43 L 159.788,688.57 L 159.788,688.663 L 159.844,689.068 L 159.564,689.019 C 159.251,688.998 158.977,689.086 158.766,689.265 L 158.187,688.801 L 158.066,688.71 C 158.31,688.506 158.626,688.406 159.001,688.43 Z M 151.171,688.481 L 152.486,689.137 L 152.65,689.916 C 152.877,690.738 153.188,691.554 153.444,692.246 L 153.703,692.754 L 153.292,692.821 L 152.653,692.995 L 152.321,692.243 C 152.008,691.399 151.648,690.443 151.388,689.5 L 151.171,688.481 Z M 65.513,688.499 L 65.988,688.925 C 66.238,689.208 66.402,689.606 66.493,690.066 L 66.507,690.204 L 65.794,690.758 L 65.682,690.41 C 65.613,690.26 65.528,690.125 65.426,690.009 C 65.312,689.878 65.182,689.762 65.041,689.661 L 64.955,689.614 L 65.304,688.916 L 65.513,688.499 Z M 69.909,688.53 L 69.991,689.111 C 70.028,690.159 69.918,691.274 69.682,692.345 L 69.341,693.533 L 69.043,693.438 L 68.886,693.385 L 69.186,692.357 C 69.399,691.409 69.499,690.418 69.462,689.481 L 69.39,688.86 L 69.909,688.53 Z M 160.197,688.692 L 160.941,688.961 L 161.64,689.449 L 161.481,689.564 L 161.418,689.604 L 161.497,689.73 L 161.56,689.691 L 161.785,689.56 L 162.516,690.399 L 162.899,691.098 L 162.818,691.087 L 162.744,691.071 L 162.714,691.218 L 162.787,691.233 L 162.995,691.273 L 163.043,691.36 L 163.063,691.432 L 162.478,691.278 L 162.385,691.235 L 162.359,691.068 C 162.104,690.371 161.443,689.635 160.881,689.378 L 160.261,689.153 L 160.199,688.745 L 160.197,688.692 Z M 113.303,688.7 L 113.692,689.181 C 114.103,689.649 114.592,690.088 115.379,690.415 C 116.354,690.823 117.676,691.403 118.966,691.435 C 119.441,691.446 119.916,691.407 120.372,691.317 L 120.583,691.251 L 120.832,691.806 L 121.025,692.289 L 119.463,692.494 C 119.064,692.501 118.658,692.466 118.252,692.401 L 117.519,692.239 L 117.591,692.033 C 117.667,691.846 117.752,691.675 117.849,691.532 L 117.904,691.446 L 117.732,691.336 L 117.677,691.422 L 117.216,692.171 L 117.038,692.132 C 116.239,691.91 115.465,691.623 114.777,691.372 C 114.533,691.283 114.31,691.186 114.106,691.08 L 113.991,691.005 L 113.901,690.822 L 113.795,690.877 L 113.541,690.741 C 113.195,690.503 112.903,690.238 112.628,689.959 L 112.005,689.27 L 113.303,688.7 Z M 162.682,689.045 L 163.714,690.227 C 163.891,690.476 164.051,690.732 164.191,690.989 L 164.33,691.285 L 164.052,691.263 L 163.358,691.163 L 162.829,690.184 L 162.116,689.371 L 162.682,689.045 Z M 157.793,689.051 L 158.419,689.5 L 158.519,689.581 L 158.4,689.969 C 158.355,690.367 158.56,690.873 158.662,691.153 C 158.767,691.433 158.927,691.647 159.098,691.841 L 159.569,692.326 L 159.391,692.897 L 158.648,692.132 C 158.399,691.848 158.183,691.556 158.047,691.189 C 157.835,690.609 157.597,689.989 157.655,689.521 C 157.674,689.347 157.722,689.19 157.793,689.051 Z M 61.074,689.081 L 61.651,690.098 L 61.408,690.375 C 61.295,690.524 61.195,690.676 61.109,690.827 L 60.977,690.748 C 60.833,690.657 60.764,690.53 60.656,690.466 L 60.257,690.234 L 60.339,690.065 C 60.452,689.87 60.589,689.663 60.744,689.459 L 61.074,689.081 Z M 68.909,689.145 L 68.952,689.527 C 68.983,690.401 68.891,691.332 68.695,692.226 L 68.407,693.227 L 67.994,693.088 L 68.236,692.104 C 68.373,691.339 68.415,690.548 68.349,689.806 L 68.296,689.496 L 68.5,689.352 L 68.909,689.145 Z M 152.899,689.266 L 153.242,689.349 L 154.158,689.516 L 154.186,689.696 C 154.33,690.35 154.544,691.001 154.717,691.546 L 155.097,692.38 L 154.378,692.644 L 154.093,692.69 L 153.8,692.115 C 153.537,691.403 153.234,690.603 153.016,689.814 L 152.899,689.266 Z M 159.539,689.397 L 159.899,689.46 L 159.913,689.555 L 160.016,689.983 L 159.799,690.064 L 159.488,689.878 L 159.06,689.524 L 159.246,689.427 C 159.334,689.4 159.432,689.39 159.539,689.397 Z M 111.513,689.485 L 112.264,690.314 C 112.556,690.613 112.874,690.9 113.257,691.164 L 113.013,691.299 C 112.772,691.453 112.554,691.616 112.345,691.792 L 112.12,692.014 L 111.802,691.845 C 111.462,691.616 111.167,691.369 110.899,691.11 L 110.393,690.576 L 109.972,690.056 L 109.969,690.005 L 111.43,689.522 L 111.513,689.485 Z M 160.327,689.582 L 160.723,689.723 C 161.049,689.872 161.406,690.213 161.674,690.593 L 161.909,691.018 L 161.842,690.989 L 161.195,690.72 L 161.167,690.579 C 161.073,690.398 160.895,690.233 160.779,690.163 C 160.684,690.109 160.593,690.069 160.515,690.035 L 160.327,689.582 Z M 59.028,689.683 L 59.213,689.85 L 59.699,690.219 L 59.602,690.42 C 59.489,690.721 59.402,691.016 59.326,691.297 L 59.307,691.372 L 58.536,691.172 L 58.785,690.24 L 59.028,689.683 Z M 64.393,689.882 L 64.469,689.936 L 64.185,690.542 C 63.946,690.437 63.708,690.399 63.465,690.424 L 63.349,690.443 L 63.359,690.168 L 63.402,689.799 L 63.598,689.767 C 63.873,689.738 64.145,689.78 64.393,689.882 Z M 67.834,689.825 L 67.843,689.883 C 67.9,690.562 67.862,691.293 67.738,692 L 67.495,693.005 L 66.786,692.923 L 66.915,692.484 C 67.043,691.911 67.104,691.311 67.082,690.742 L 67.029,690.301 L 67.776,689.867 L 67.834,689.825 Z M 63.068,689.853 L 63.075,690.488 L 63.008,690.499 C 62.848,690.535 62.697,690.584 62.597,690.649 C 62.397,690.775 62.215,690.962 62.068,691.156 L 61.931,691.392 L 61.531,691.122 L 61.561,691.061 C 61.772,690.697 62.121,690.262 62.492,690.026 C 62.573,689.973 62.734,689.921 62.931,689.875 L 63.068,689.853 Z M 158.857,689.854 L 159.316,690.224 L 159.581,690.381 C 159.558,690.506 159.577,690.643 159.638,690.774 C 159.707,690.924 159.822,691.09 159.958,691.234 L 159.835,691.479 L 159.698,691.914 L 159.379,691.585 C 159.226,691.412 159.098,691.239 159.018,691.021 C 158.881,690.648 158.746,690.286 158.776,690.013 L 158.857,689.854 Z M 123.083,689.862 L 124.195,690.642 L 124.041,690.814 C 123.684,691.147 123.259,691.44 122.783,691.686 L 121.467,692.173 L 121.372,691.917 L 121.048,691.105 L 121.669,690.91 C 122.071,690.73 122.44,690.505 122.757,690.24 L 123.083,689.862 Z M 64.709,690.107 L 65.044,690.346 C 65.118,690.43 65.181,690.534 65.231,690.652 L 65.284,690.832 L 64.809,691.116 L 64.719,690.923 L 64.412,690.704 L 64.709,690.107 Z M 109.624,690.436 L 110.009,690.91 C 110.348,691.297 110.718,691.67 111.165,692.014 L 111.735,692.396 L 111.117,693.007 L 110.801,693.321 L 110.037,692.81 C 109.538,692.426 109.123,692.008 108.739,691.57 L 108.176,690.875 L 108.555,690.717 L 108.643,690.717 C 108.902,690.712 108.981,690.687 109.294,690.559 L 109.624,690.436 Z M 60.112,690.531 L 60.405,690.755 C 60.472,690.803 60.457,690.843 60.534,690.926 C 60.612,691.01 60.702,691.078 60.786,691.154 L 60.912,691.251 L 60.611,692.297 C 60.53,692.657 60.477,693.04 60.566,693.466 C 60.659,693.907 60.8,694.672 61.189,695.108 L 61.658,695.477 L 61.507,695.724 C 61.379,695.886 61.281,696 61.188,696.122 L 60.965,696.469 C 60.742,696.35 60.54,696.193 60.368,695.999 C 59.905,695.478 59.72,694.543 59.55,693.741 C 59.439,693.213 59.499,692.723 59.615,692.214 L 59.758,691.712 L 59.873,691.73 L 59.973,691.75 L 60.014,691.55 L 59.914,691.53 L 59.818,691.504 L 60.08,690.599 L 60.112,690.531 Z M 66.549,690.581 L 66.572,690.792 C 66.58,691.046 66.571,691.307 66.546,691.571 L 66.256,692.885 L 65.688,692.901 L 65.887,692.018 L 65.845,691.037 L 66.549,690.581 Z M 159.982,690.612 L 160.204,690.742 L 160.149,690.858 L 159.982,690.612 Z M 160.591,690.872 L 160.863,690.977 L 160.787,691.167 L 160.717,691.182 C 160.671,691.184 160.614,691.175 160.549,691.157 L 160.488,691.121 L 160.554,691.011 L 160.591,690.872 Z M 54.854,690.883 L 55.226,690.955 L 55.004,691.813 C 54.881,692.354 54.782,692.903 54.746,693.468 L 54.745,694.251 L 54.318,694.387 L 54.319,693.679 C 54.357,693.069 54.464,692.465 54.602,691.854 L 54.854,690.883 Z M 124.628,690.922 L 125.532,691.432 L 125.375,691.651 C 124.787,692.331 123.984,692.897 123.048,693.317 L 122.104,693.676 L 121.824,693.131 L 121.642,692.645 L 123.016,692.138 C 123.533,691.872 124,691.55 124.395,691.179 L 124.628,690.922 Z M 63.991,691.012 L 63.978,691.117 L 63.934,691.21 L 64.119,691.298 L 64.182,691.166 L 64.337,691.26 L 64.411,691.435 L 64.244,691.573 L 63.898,691.931 L 63.819,691.851 C 63.726,691.795 63.62,691.762 63.513,691.753 L 63.3,691.797 L 63.331,690.961 L 63.519,690.931 C 63.673,690.915 63.827,690.939 63.991,691.012 Z M 63.081,691.008 L 63.091,691.892 L 62.955,691.985 L 62.864,692.085 C 62.702,692 62.526,691.801 62.353,691.679 L 62.474,691.465 C 62.588,691.314 62.728,691.168 62.871,691.078 L 63.081,691.008 Z M 65.344,691.033 L 65.349,691.104 L 65.231,691.197 L 65.152,691.259 L 65.276,691.418 L 65.357,691.355 L 65.378,691.977 L 65.173,692.916 L 64.952,692.923 L 64.878,692.922 L 65.03,692.245 C 65.055,691.994 65.046,691.741 64.996,691.512 L 64.955,691.375 L 65.344,691.033 Z M 55.726,691.056 L 55.956,691.102 C 56.1,691.243 56.138,691.252 56.402,691.302 L 56.498,691.315 L 56.377,691.781 C 56.273,692.236 56.191,692.699 56.161,693.177 L 56.16,693.811 L 55.454,694.026 L 55.253,694.09 L 55.254,693.501 C 55.288,692.975 55.38,692.457 55.498,691.937 L 55.726,691.056 Z M 107.686,691.079 L 108.354,691.902 C 108.756,692.361 109.196,692.805 109.726,693.213 L 110.435,693.688 L 109.878,694.243 L 109.342,693.921 C 108.864,693.601 108.452,693.254 108.076,692.889 L 107.366,692.141 L 106.798,691.439 L 107.515,691.151 L 107.686,691.079 Z M 161.215,691.112 L 161.709,691.304 L 162.027,691.364 L 162.085,691.691 L 162.014,691.89 L 161.901,691.805 L 161.84,691.759 L 161.749,691.879 L 161.809,691.925 L 161.957,692.048 L 161.92,692.152 C 161.832,692.28 161.715,692.381 161.575,692.441 L 161.379,692.51 L 160.779,691.545 L 161.012,691.472 C 161.089,691.413 161.152,691.334 161.192,691.245 L 161.215,691.112 Z M 57.088,691.184 L 57.205,691.22 L 57.948,691.435 L 57.755,692.334 C 57.688,692.7 57.638,693.071 57.633,693.452 L 57.645,693.556 L 57.403,693.548 C 57.177,693.561 56.951,693.593 56.722,693.641 L 56.67,693.209 C 56.696,692.771 56.773,692.339 56.872,691.904 L 57.044,691.239 L 57.088,691.184 Z M 113.538,691.333 L 113.868,691.531 C 114.092,691.647 114.335,691.754 114.603,691.852 C 115.277,692.097 116.067,692.392 116.903,692.623 L 117,692.645 L 116.742,693.327 C 116.71,693.416 116.657,693.55 116.612,693.683 L 116.588,693.775 L 115.758,693.551 C 114.769,693.228 113.823,692.824 112.983,692.475 L 112.486,692.21 L 112.734,691.952 L 113.538,691.333 Z M 163.436,691.36 L 164.457,691.558 L 164.549,691.755 C 164.741,692.26 164.834,692.744 164.787,693.158 C 164.76,693.396 164.707,693.625 164.627,693.845 L 163.386,692.917 L 163.452,692.785 C 163.509,692.623 163.549,692.453 163.57,692.279 C 163.587,692.123 163.58,691.958 163.552,691.787 L 163.436,691.36 Z M 160.3,691.437 L 160.443,691.522 L 160.612,691.562 L 161.191,692.575 L 160.941,692.616 C 160.759,692.595 160.551,692.518 160.363,692.423 L 160.038,692.211 L 160.227,691.561 L 160.3,691.437 Z M 162.415,691.437 L 163.102,691.569 L 163.174,691.82 C 163.201,691.967 163.208,692.107 163.194,692.235 L 163.042,692.659 L 162.321,692.12 L 162.461,691.733 L 162.415,691.437 Z M 58.451,691.518 L 59.239,691.635 L 59.12,692.09 C 58.995,692.641 58.919,693.214 59.052,693.846 C 59.209,694.591 59.413,695.691 59.988,696.338 C 60.204,696.581 60.454,696.776 60.737,696.923 L 60.533,697.41 L 60.281,697.939 L 59.547,697.446 C 59.376,697.28 59.228,697.077 59.098,696.851 L 58.9,696.423 L 59.505,695.943 L 59.594,695.894 L 59.496,695.715 L 59.407,695.764 L 58.755,696.107 L 58.267,694.498 L 58.181,693.779 L 58.164,693.574 L 58.141,693.461 C 58.146,693.12 58.191,692.78 58.255,692.435 L 58.451,691.518 Z M 61.344,691.588 L 61.704,691.868 L 61.555,692.389 C 61.502,692.621 61.466,692.876 61.526,693.159 C 61.58,693.416 61.672,693.932 61.936,694.226 L 62.185,694.423 L 61.913,695.041 L 61.569,694.768 C 61.304,694.472 61.187,693.939 61.065,693.361 C 60.997,693.039 61.034,692.739 61.105,692.418 L 61.344,691.588 Z M 164.905,691.632 L 165.979,691.779 L 166.197,692.306 C 166.419,692.989 166.504,693.637 166.402,694.182 L 166.137,695.027 L 165.627,694.626 L 164.928,694.083 L 164.986,693.967 C 165.074,693.724 165.133,693.466 165.163,693.202 C 165.216,692.733 165.119,692.2 164.905,691.632 Z M 125.977,691.683 L 127.011,692.267 L 127.068,692.295 L 126.67,692.85 C 125.963,693.667 125,694.346 123.878,694.85 L 122.773,695.234 C 122.613,694.866 122.504,694.499 122.339,694.133 L 123.256,693.782 C 124.256,693.335 125.122,692.724 125.765,691.979 L 125.977,691.683 Z M 166.412,691.839 L 166.476,691.848 C 166.701,691.884 166.995,691.857 167.24,691.839 L 167.496,692.379 C 167.824,693.244 167.982,694.075 167.901,694.791 C 167.854,695.201 167.763,695.597 167.629,695.97 L 167.547,696.134 L 167.495,696.095 L 166.456,695.249 C 166.607,694.922 166.71,694.593 166.774,694.253 C 166.887,693.649 166.8,692.949 166.567,692.221 L 166.412,691.839 Z M 167.67,691.86 L 168.262,691.889 L 168.416,691.934 L 168.713,692.536 C 169.105,693.571 169.294,694.567 169.197,695.426 C 169.141,695.918 169.031,696.392 168.871,696.839 L 168.772,697.036 L 167.853,696.359 L 167.985,696.097 C 168.128,695.695 168.227,695.272 168.277,694.834 C 168.364,694.064 168.202,693.183 167.862,692.275 L 167.67,691.86 Z M 64.515,691.941 L 64.523,692.207 C 64.485,692.593 64.355,692.992 64.151,693.241 L 63.918,693.429 L 63.88,693.214 L 64.042,693.004 C 64.086,692.937 64.124,692.849 64.15,692.759 C 64.177,692.67 64.197,692.559 64.191,692.445 L 64.171,692.36 L 64.515,691.941 Z M 62.136,692.206 L 62.48,692.475 L 62.634,692.552 L 62.599,693.002 L 62.738,693.297 L 62.577,693.538 L 62.402,693.933 L 62.316,693.887 C 62.177,693.732 62.107,693.447 62.024,693.054 C 61.987,692.875 62.006,692.704 62.049,692.51 L 62.136,692.206 Z M 63.477,692.261 L 63.544,692.3 L 63.463,692.385 L 63.407,692.288 L 63.477,692.261 Z M 162.258,692.297 L 162.963,692.881 L 162.91,693.029 C 162.759,693.254 162.555,693.431 162.308,693.536 L 162.102,693.608 L 161.815,693.21 L 161.584,692.838 L 161.725,692.788 C 161.939,692.698 162.11,692.548 162.234,692.363 L 162.258,692.297 Z M 127.527,692.527 L 127.767,692.649 L 127.865,692.738 C 128.084,692.935 128.192,692.992 128.475,692.907 L 128.584,692.868 L 128.908,693.012 L 128.441,693.661 C 127.342,694.928 125.708,695.919 123.804,696.517 L 123.462,696.604 L 123.017,695.719 L 124.087,695.314 C 125.271,694.784 126.298,694.061 127.059,693.179 L 127.527,692.527 Z M 159.906,692.574 L 160.192,692.762 C 160.416,692.875 160.666,692.966 160.897,692.992 C 161.008,693.005 161.157,692.98 161.306,692.938 L 161.383,692.911 L 161.624,693.333 L 161.866,693.691 L 161.692,693.752 C 161.498,693.805 161.328,693.835 161.225,693.823 C 160.771,693.77 160.221,693.51 159.825,693.25 L 159.687,693.147 L 159.906,692.574 Z M 155.182,692.604 L 155.257,692.73 C 155.474,693.091 155.724,693.422 155.984,693.741 L 156.712,694.585 L 156.361,694.992 L 156.092,695.315 L 155.992,695.27 L 155.434,694.688 C 155.1,694.308 154.785,693.918 154.507,693.498 L 154.232,692.961 L 154.599,692.856 C 154.769,692.798 154.947,692.724 155.182,692.604 Z M 112.102,692.606 L 112.786,692.944 C 113.613,693.289 114.577,693.701 115.6,694.035 L 116.545,694.289 L 116.603,694.872 L 116.603,695.52 L 115.153,695.129 C 113.972,694.744 112.843,694.262 111.844,693.845 L 111.162,693.509 L 111.396,693.318 C 111.495,693.212 111.611,693.12 111.712,693.011 L 112.102,692.606 Z M 117.353,692.723 L 118.181,692.906 C 118.613,692.974 119.046,693.011 119.474,693.002 L 121.218,692.774 L 121.785,693.76 L 121.023,693.954 C 120.304,694.095 119.55,694.16 118.786,694.142 C 118.282,694.128 117.771,694.061 117.264,693.957 L 117.009,693.855 L 117.353,692.723 Z M 64.85,693.004 L 64.849,693.124 L 64.95,693.125 L 65.062,693.137 L 64.747,693.726 L 64.277,694.207 L 64.149,693.99 L 64.543,693.566 L 64.85,693.004 Z M 153.851,693.043 L 154.191,693.707 C 154.483,694.149 154.812,694.553 155.154,694.943 L 155.558,695.426 C 155.323,695.628 155.261,695.671 155.216,695.886 L 155.206,695.945 L 155.013,696.114 L 154.279,695.324 C 153.879,694.87 153.502,694.405 153.169,693.901 L 152.782,693.242 L 153.04,693.192 L 153.851,693.043 Z M 163.275,693.139 L 163.561,693.376 L 164.5,694.099 L 164.329,694.439 C 164.083,694.804 163.75,695.093 163.344,695.267 L 163.17,695.058 C 163.088,694.958 163.021,694.878 162.991,694.839 L 162.334,693.929 L 162.456,693.886 C 162.778,693.748 163.036,693.521 163.224,693.241 L 163.275,693.139 Z M 65.604,693.197 L 66.142,693.258 L 65.906,693.798 C 65.793,694.009 65.667,694.203 65.53,694.37 L 64.835,695.081 L 64.679,694.872 L 64.547,694.655 L 65.139,694.049 L 65.604,693.197 Z M 66.671,693.317 L 67.349,693.394 L 67.118,693.982 C 66.975,694.277 66.814,694.547 66.634,694.786 L 65.555,695.993 L 65.306,695.714 L 65.142,695.494 L 65.922,694.695 C 66.223,694.329 66.477,693.851 66.671,693.317 Z M 152.387,693.32 L 152.853,694.111 C 153.2,694.636 153.59,695.116 153.998,695.579 L 154.728,696.365 L 154.479,696.585 L 153.705,695.752 C 153.238,695.222 152.802,694.683 152.418,694.103 L 152.003,693.397 L 152.387,693.32 Z M 67.848,693.506 L 68.279,693.625 L 67.802,694.707 C 67.606,695.071 67.388,695.403 67.151,695.692 C 66.862,696.044 66.553,696.385 66.214,696.731 L 65.896,696.374 L 67.041,695.092 C 67.231,694.839 67.406,694.549 67.56,694.233 L 67.848,693.506 Z M 63.398,693.511 L 63.526,693.823 L 63.279,694.004 L 62.924,694.079 L 63.06,693.755 L 63.195,693.544 L 63.398,693.511 Z M 159.547,693.515 L 159.607,693.56 C 159.753,693.657 159.918,693.752 160.092,693.84 L 160.479,694.004 L 160.604,695.309 L 160.631,695.448 L 160.076,695.213 C 159.826,695.087 159.59,694.95 159.381,694.812 L 159.156,694.643 L 159.358,694.186 C 159.421,694.04 159.397,693.913 159.458,693.747 L 159.547,693.515 Z M 68.773,693.761 L 68.876,693.79 L 69.249,693.854 L 69.235,693.905 C 68.877,694.904 68.403,695.805 67.835,696.494 L 66.892,697.542 L 66.657,697.284 L 66.527,697.134 L 66.599,697.066 C 66.928,696.729 67.246,696.377 67.543,696.015 C 67.793,695.712 68.023,695.362 68.231,694.979 L 68.773,693.761 Z M 57.676,693.81 L 57.774,694.632 C 57.907,695.121 58.059,695.719 58.28,696.294 L 58.319,696.377 L 57.694,696.837 L 57.425,697.053 L 57.27,696.654 C 57.053,695.965 56.903,695.223 56.763,694.556 L 56.727,694.049 L 56.956,693.97 C 57.155,693.91 57.355,693.857 57.545,693.822 L 57.676,693.81 Z M 110.729,693.862 L 111.647,694.315 C 113.62,695.138 116.234,696.28 118.764,696.345 C 119.705,696.368 120.642,696.288 121.539,696.113 L 122.817,695.79 L 123.283,696.649 L 122.331,696.891 C 121.32,697.088 120.259,697.181 119.181,697.155 C 116.346,697.084 113.381,695.796 110.996,694.802 C 110.679,694.67 110.385,694.53 110.099,694.377 L 110.729,693.862 Z M 157.792,693.893 L 157.873,693.981 C 158.094,694.216 158.332,694.456 158.595,694.693 L 158.817,694.861 L 158.794,694.928 L 158.544,695.845 L 157.979,695.383 L 157.177,694.533 L 157.792,693.893 Z M 162.084,694.016 L 162.733,694.98 L 163.035,695.376 L 162.378,695.608 C 162.066,695.693 161.786,695.741 161.608,695.721 L 160.902,695.553 L 160.876,695.445 L 160.649,694.073 L 161.181,694.199 C 161.344,694.218 161.565,694.18 161.796,694.117 L 162.084,694.016 Z M 122.039,694.22 L 122.538,695.275 L 122.567,695.329 L 121.452,695.612 C 120.592,695.78 119.691,695.859 118.777,695.836 C 118.173,695.82 117.562,695.74 116.955,695.615 L 116.82,695.579 L 116.944,694.834 L 116.944,694.396 L 117.17,694.457 C 117.702,694.565 118.24,694.636 118.773,694.65 C 119.566,694.669 120.353,694.602 121.109,694.454 L 122.039,694.22 Z M 56.204,694.227 L 56.264,694.661 C 56.399,695.299 56.55,696.067 56.784,696.807 L 57.038,697.45 L 56.702,697.918 L 56.295,698.45 L 55.972,697.625 C 55.712,696.797 55.533,695.91 55.366,695.12 L 55.278,694.48 L 55.856,694.347 L 56.204,694.227 Z M 63.724,694.305 L 63.78,694.44 L 63.868,694.575 L 63.305,694.985 C 63.145,695.077 62.983,695.138 62.823,695.172 L 62.441,695.186 L 62.689,694.645 L 63.106,694.607 C 63.25,694.578 63.394,694.524 63.533,694.445 L 63.724,694.305 Z M 165.526,694.95 L 165.983,695.304 L 165.649,695.848 C 165.461,696.082 165.243,696.289 164.998,696.462 L 164.325,696.805 L 163.844,696.136 C 163.846,696.048 163.847,695.923 163.838,695.896 C 163.828,695.872 163.779,695.805 163.707,695.713 L 163.584,695.56 L 164.143,695.214 C 164.335,695.05 164.502,694.861 164.644,694.651 L 164.823,694.347 C 165.031,694.481 165.314,694.775 165.526,694.95 Z M 54.78,694.586 L 54.867,695.225 C 55.19,696.75 55.59,698.88 56.687,700.116 C 57.1,700.579 57.578,700.952 58.101,701.231 L 58.813,701.53 L 58.47,702.394 L 57.879,702.144 C 57.34,701.856 56.849,701.471 56.427,700.996 C 55.296,699.726 54.851,697.454 54.447,695.551 L 54.326,694.661 L 54.78,694.586 Z M 156.915,694.808 L 157.715,695.655 L 158.435,696.245 L 158.421,696.3 L 158.54,696.32 L 158.932,696.562 L 158.673,697.727 L 158.577,697.671 C 158.219,697.436 157.908,697.199 157.668,696.984 C 157.235,696.595 156.846,696.2 156.482,695.813 L 156.263,695.578 L 156.393,695.452 L 156.915,694.808 Z M 64.145,695 L 64.329,695.282 L 64.473,695.452 L 64.413,695.513 C 64.021,695.854 63.62,696.147 63.245,696.364 L 63.075,696.429 L 63.042,695.886 L 63.044,695.785 L 62.843,695.781 L 62.841,695.882 L 62.821,696.527 L 62.452,696.669 C 62.189,696.724 61.926,696.732 61.675,696.697 L 61.462,696.629 L 61.546,696.478 L 61.617,696.385 C 61.715,696.27 61.844,696.145 61.931,696.041 L 62.174,695.659 L 62.283,695.693 C 62.699,695.751 63.145,695.665 63.559,695.426 L 64.145,695 Z M 159,695 L 159.163,695.123 C 159.386,695.271 159.638,695.418 159.905,695.552 L 160.719,695.895 L 160.867,696.656 L 160.916,697.01 L 160.893,697.106 L 160.659,697.04 C 159.948,696.762 159.239,696.357 158.664,695.944 L 158.746,695.577 L 159,695 Z M 166.28,695.537 L 167.294,696.326 L 167.409,696.407 L 167.107,697.009 C 166.893,697.326 166.642,697.61 166.354,697.854 L 165.485,698.391 L 165.256,698.099 L 164.547,697.113 L 165.218,696.771 C 165.492,696.577 165.735,696.346 165.944,696.086 L 166.28,695.537 Z M 155.795,695.631 L 156.206,696.073 C 156.576,696.466 156.974,696.87 157.414,697.267 C 157.665,697.491 157.988,697.738 158.359,697.983 L 158.586,698.114 L 158.361,699.076 L 158.027,698.885 C 157.601,698.603 157.229,698.32 156.941,698.063 C 156.424,697.599 155.96,697.128 155.525,696.666 L 155.191,696.305 L 155.305,696.219 C 155.349,696.183 155.428,696.143 155.46,696.091 C 155.481,696.054 155.499,695.96 155.515,695.883 L 155.795,695.631 Z M 163.276,695.692 L 163.523,696.014 C 163.521,696.095 163.518,696.207 163.524,696.229 C 163.536,696.285 163.794,696.639 163.956,696.858 L 164.005,696.925 L 162.813,697.251 C 162.366,697.341 161.966,697.383 161.709,697.34 L 161.178,697.187 L 161.213,697.121 C 161.24,697.077 161.259,697.03 161.242,696.958 L 161.002,695.965 L 161.564,696.097 C 161.8,696.124 162.13,696.068 162.477,695.974 L 163.276,695.692 Z M 64.801,695.842 L 64.993,696.068 L 65.258,696.326 L 65.175,696.418 C 64.659,696.911 64.125,697.34 63.621,697.666 L 63.165,697.872 L 63.108,696.955 L 63.501,696.805 C 63.906,696.571 64.332,696.259 64.747,695.898 L 64.801,695.842 Z M 154.884,696.532 L 155.249,696.925 C 155.69,697.393 156.163,697.874 156.688,698.345 C 156.985,698.612 157.368,698.904 157.81,699.196 L 158.284,699.47 L 158.204,699.992 L 158.103,699.934 C 157.607,699.608 157.176,699.281 156.843,698.983 C 156.238,698.438 155.696,697.886 155.184,697.342 L 154.614,696.73 L 154.884,696.532 Z M 167.721,696.623 L 168.654,697.271 L 168.246,698.086 C 167.989,698.466 167.686,698.808 167.342,699.1 L 166.371,699.701 L 165.918,699.093 L 165.889,698.951 C 165.871,698.909 165.831,698.847 165.779,698.774 L 165.717,698.69 L 166.6,698.143 C 166.915,697.876 167.189,697.565 167.421,697.221 L 167.721,696.623 Z M 159.09,696.661 L 159.43,696.875 C 159.783,697.071 160.156,697.25 160.532,697.396 L 160.805,697.474 L 160.75,697.487 C 160.576,697.586 160.681,698.129 160.761,698.243 C 160.835,698.347 160.962,698.47 161.073,698.58 L 161.145,698.655 L 161.209,698.947 L 161.085,698.917 C 160.639,698.766 160.191,698.572 159.765,698.358 L 158.931,697.876 L 159.09,696.661 Z M 65.62,696.681 L 65.938,696.991 L 65.248,697.643 C 64.579,698.226 63.894,698.725 63.241,699.1 L 63.2,698.456 L 63.286,698.425 C 63.493,698.333 63.698,698.222 63.897,698.093 C 64.429,697.749 64.988,697.3 65.527,696.787 L 65.62,696.681 Z M 58.492,696.747 L 58.667,697.121 C 58.817,697.38 58.99,697.615 59.192,697.812 C 59.344,697.959 59.506,698.09 59.677,698.204 L 60.056,698.412 L 60.022,698.484 L 59.664,699.458 L 59.233,699.275 C 58.842,699.066 58.486,698.788 58.18,698.444 C 57.975,698.213 57.802,697.938 57.653,697.635 L 57.585,697.461 L 57.746,697.324 C 57.871,697.233 58.004,697.141 58.098,697.061 L 58.492,696.747 Z M 62.805,697.071 L 62.778,698.046 L 62.527,698.159 C 62.159,698.26 61.79,698.297 61.433,698.275 L 60.699,698.097 L 60.903,697.723 C 61.011,697.507 61.108,697.297 61.214,697.08 L 61.606,697.203 C 61.913,697.244 62.233,697.233 62.552,697.168 L 62.805,697.071 Z M 164.25,697.25 L 165.208,698.514 L 163.743,699.033 C 163.204,699.181 162.715,699.265 162.394,699.228 L 161.529,698.995 C 161.508,698.885 161.473,698.584 161.432,698.506 C 161.386,698.417 161.172,698.211 161.049,698.086 L 161.019,698.002 L 160.99,697.881 L 161.013,697.801 C 161.112,697.79 161.189,697.757 161.22,697.676 L 161.193,697.585 L 161.647,697.714 C 161.958,697.766 162.407,697.719 162.888,697.623 L 164.25,697.25 Z M 66.303,697.346 L 66.451,697.49 L 66.715,697.735 L 65.561,698.826 C 65.161,699.173 64.756,699.496 64.356,699.789 L 63.341,700.452 L 63.265,699.651 L 63.505,699.537 C 64.179,699.149 64.89,698.63 65.583,698.027 L 66.303,697.346 Z M 168.965,697.488 L 170.147,698.309 L 169.763,699.073 C 169.187,699.928 168.408,700.603 167.464,701.006 L 167.36,701.046 L 166.799,700.278 L 166.595,700.004 L 167.587,699.389 C 167.959,699.073 168.284,698.706 168.559,698.297 L 168.965,697.488 Z M 57.8,698.783 C 58.149,699.176 58.555,699.492 58.998,699.728 L 59.483,699.949 C 59.368,700.264 59.205,700.572 59.072,700.88 L 59,701.058 L 58.336,700.777 C 57.865,700.526 57.436,700.191 57.067,699.776 C 56.821,699.498 56.612,699.168 56.432,698.802 L 56.387,698.684 L 56.914,698.196 L 57.203,697.87 C 57.372,698.212 57.568,698.521 57.8,698.783 Z M 67.089,698.082 L 67.198,698.183 L 67.545,698.628 L 67.383,698.78 C 67.309,698.784 67.234,698.78 67.161,698.771 C 66.889,699.12 66.612,699.457 66.331,699.773 L 66.287,699.814 L 66.25,699.85 C 65.779,700.26 65.303,700.641 64.832,700.984 L 63.527,701.837 L 63.511,701.69 C 63.495,701.649 63.446,701.62 63.393,701.596 L 63.332,701.574 L 63.323,701.516 L 63.339,701.421 L 63.342,701.043 L 63.428,701.003 C 64.226,700.543 65.072,699.926 65.895,699.21 L 67.089,698.082 Z M 158.869,698.278 L 159.594,698.696 C 160.038,698.921 160.506,699.121 160.972,699.28 L 161.304,699.358 L 161.583,700.506 L 161.027,700.374 C 160.493,700.192 159.957,699.961 159.448,699.705 L 158.622,699.227 L 158.869,698.278 Z M 60.45,698.555 L 61.401,698.782 C 61.814,698.808 62.237,698.765 62.658,698.65 L 62.784,698.606 L 62.842,699.291 L 62.559,699.426 C 61.862,699.693 61.155,699.772 60.491,699.681 L 59.979,699.565 L 60.315,698.804 L 60.45,698.555 Z M 165.45,698.832 L 165.637,699.079 L 165.711,699.272 C 165.78,699.398 165.878,699.533 165.976,699.657 L 166.125,699.838 L 164.216,700.512 C 163.571,700.689 162.982,700.789 162.592,700.745 L 161.859,700.571 L 161.753,700.01 L 161.625,699.433 L 162.35,699.604 C 162.728,699.648 163.269,699.556 163.844,699.398 L 165.45,698.832 Z M 158.523,699.607 L 159.278,700.043 C 159.805,700.309 160.36,700.548 160.915,700.736 L 161.669,700.914 L 161.816,701.728 L 161.573,701.656 C 160.958,701.448 160.338,701.18 159.748,700.883 L 158.394,700.102 L 158.523,699.607 Z M 62.888,699.831 L 62.959,700.664 L 62.341,700.958 C 61.504,701.279 60.652,701.375 59.851,701.265 L 59.218,701.117 C 59.39,700.753 59.599,700.41 59.771,700.04 L 60.422,700.186 C 61.172,700.289 61.964,700.199 62.739,699.903 L 62.888,699.831 Z M 166.37,700.142 L 167.183,701.115 L 166.312,701.456 C 165.144,701.87 163.985,702.155 163.37,702.084 C 163.084,702.051 162.788,701.997 162.487,701.924 L 162.03,701.791 L 161.975,701.183 L 161.935,700.977 L 162.549,701.121 C 163.442,701.224 165.106,700.688 166.37,700.142 Z M 63.016,701.199 L 63.026,701.275 C 63.005,701.443 62.981,701.697 63.098,701.8 L 63.237,701.855 L 63.266,701.977 L 62.483,702.351 C 61.194,702.846 59.884,702.875 58.721,702.5 L 58.635,702.463 L 59.01,701.595 L 59.782,701.771 C 60.668,701.892 61.605,701.786 62.521,701.435 L 63.016,701.199 Z M 140.535,740.401 C 134.753,731.489 126.898,724.59 117.761,721.131 C 117.283,740.401 103.427,738.968 103.587,757.919 C 89.254,739.127 94.546,716.425 111.39,711.734 C 124.517,708.08 141.332,723.042 140.535,740.401 Z M 93.553,813.979 C 109.161,787.382 84.316,791.045 81.449,769.705 C 73.487,792.638 91.802,788.975 93.553,813.979 Z M 136.235,813.66 C 125.884,800.628 128.55,785.965 138.186,776.363 C 134.082,790.987 134.393,802.081 136.235,813.66 Z" fill-rule="evenodd" fill="#000000" stroke-width="0.509" stroke="none" marker-start="none" marker-end="none" stroke-miterlimit="79.8403193612775"/>
   </g>
  </g>
 </g>
</svg>
