<?xml version="1.0" standalone="no"?>
<!DOCTYPE svg PUBLIC "-//W3C//DTD SVG 1.1//EN" "http://www.w3.org/Graphics/SVG/1.1/DTD/svg11.dtd">
<!--Generator: Xara Designer (www.xara.com), SVG filter version: 6.0.0.4-->
<svg stroke-width="0.501" stroke-linejoin="bevel" fill-rule="evenodd" xmlns:xlink="http://www.w3.org/1999/xlink" xmlns="http://www.w3.org/2000/svg" version="1.1" overflow="visible" width="595.277pt" height="841.891pt" viewBox="0 0 595.277 841.891">
 <defs>
	</defs>
 <g id="Document" fill="none" stroke="black" font-family="Times New Roman" font-size="16" transform="scale(1 -1)">
  <g id="Spread" transform="translate(0 -841.891)">
   <g id="Layer 1">
    <path d="M 69.44,677.508 L 42.313,753.003 C 41.764,754.53 42.242,756.238 43.504,757.258 L 114.195,814.388 C 114.615,814.727 115.085,814.963 115.574,815.097 L 116.782,815.184 L 117.066,815.204 L 117.459,815.073 L 118.185,814.954 C 118.638,814.788 119.066,814.534 119.444,814.19 L 181.99,757.065 C 183.167,755.989 183.551,754.294 182.951,752.816 L 152.336,677.364 C 151.753,675.926 150.355,674.985 148.804,674.985 L 73.028,674.985 C 71.419,674.985 69.983,675.995 69.44,677.508 Z M 143.504,683.033 L 120.654,714.059 L 109.6,712.904 L 76.466,683.033 L 143.504,683.033 Z M 148.633,689.652 L 173.195,750.199 L 163.426,750.199 L 127.914,717.767 L 148.633,689.652 Z M 73.18,690.898 L 102.478,717.324 L 78.25,750.199 L 51.838,750.199 L 73.18,690.898 Z M 109.744,721.012 L 120.786,722.162 L 151.503,750.199 L 88.229,750.199 L 109.744,721.012 Z M 113.143,758.246 L 131.053,792.737 L 116.581,805.93 L 57.492,758.246 L 113.143,758.246 Z M 160.282,758.246 L 160.283,758.247 L 168.792,758.247 L 151.885,773.688 L 151.885,773.679 L 137.183,787.123 L 122.203,758.246 L 160.282,758.246 Z" fill-rule="evenodd" stroke="none" stroke-width="0.5" fill="#000000" marker-start="none" marker-end="none" stroke-miterlimit="79.8403193612775"/>
   </g>
  </g>
 </g>
</svg>
