<?xml version="1.0" standalone="no"?>
<!DOCTYPE svg PUBLIC "-//W3C//DTD SVG 1.1//EN" "http://www.w3.org/Graphics/SVG/1.1/DTD/svg11.dtd">
<!--Generator: Xara Designer (www.xara.com), SVG filter version: 6.3.0.4-->
<svg stroke-width="0.501" stroke-linejoin="bevel" fill-rule="evenodd" xmlns:xlink="http://www.w3.org/1999/xlink" xmlns="http://www.w3.org/2000/svg" version="1.1" overflow="visible" width="595.277pt" height="841.891pt" viewBox="0 0 595.277 841.891">
 <defs>
	</defs>
 <g id="Document" fill="none" stroke="black" font-family="Times New Roman" font-size="16" transform="scale(1 -1)">
  <g id="Spread" transform="translate(0 -841.891)">
   <g id="Layer 1">
    <path d="M 182.292,666.884 L 74.386,768.753 C 67.412,761.52 60.287,754.546 52.975,747.835 C 44.287,753.09 37.099,759.987 31.26,768.278 C 37.651,776.063 44.195,783.604 50.906,790.912 L 50.906,790.898 L 47.505,794.133 C 49.849,797.198 52.44,799.971 55.29,802.408 L 58.708,799.188 L 58.692,799.188 C 65.649,806.422 72.807,813.411 80.118,820.14 C 88.808,814.882 95.994,807.985 101.833,799.695 C 95.473,791.909 88.914,784.354 82.233,777.06 L 190.338,675.421 C 188.743,671.544 186.123,668.649 182.292,666.884 Z" stroke-linejoin="miter" stroke="none" fill="#000000" marker-start="none" marker-end="none"/>
   </g>
  </g>
 </g>
</svg>
