<?xml version="1.0" standalone="no"?>
<!DOCTYPE svg PUBLIC "-//W3C//DTD SVG 1.1//EN" "http://www.w3.org/Graphics/SVG/1.1/DTD/svg11.dtd">
<!--Generator: Xara Designer (www.xara.com), SVG filter version: 6.0.0.4-->
<svg stroke-width="0.501" stroke-linejoin="bevel" fill-rule="evenodd" xmlns:xlink="http://www.w3.org/1999/xlink" xmlns="http://www.w3.org/2000/svg" version="1.1" overflow="visible" width="595.277pt" height="841.891pt" viewBox="0 0 595.277 841.891">
 <defs>
	</defs>
 <g id="Document" fill="none" stroke="black" font-family="Times New Roman" font-size="16" transform="scale(1 -1)">
  <g id="Spread" transform="translate(0 -841.891)">
   <g id="Layer 1">
    <g id="Group" fill-rule="evenodd" stroke="none" stroke-width="2.756" fill="#000000" stroke-miterlimit="79.8403193612775">
     <path d="M 85.735,674.97 L 85.735,687.646 L 86.177,687.646 L 108.393,744.027 L 110.955,743.019 L 89.136,687.646 L 133.536,687.646 L 114.186,743.454 L 116.792,744.352 L 136.457,687.646 L 136.859,687.646 L 136.859,674.97 L 85.735,674.97 Z" marker-start="none" marker-end="none"/>
     <path d="M 119.752,691.399 C 118.23,692.402 117.277,693.802 116.914,695.555 C 116.61,697.004 116.787,698.371 117.42,699.638 C 113.568,699.308 109.749,699.407 106.007,699.897 C 106.579,698.613 106.695,697.247 106.348,695.825 C 105.918,694.077 104.904,692.721 103.345,691.779 C 101.779,690.843 100.109,690.584 98.367,691.008 C 96.626,691.438 95.27,692.457 94.333,694.011 C 93.391,695.571 93.121,697.241 93.551,698.982 C 93.893,700.361 94.592,701.484 95.639,702.355 C 92.123,703.574 88.75,705.155 85.576,707.073 C 85.576,705.739 85.173,704.494 84.369,703.364 C 83.316,701.909 81.872,701.033 80.07,700.74 C 78.279,700.438 76.62,700.823 75.165,701.865 C 73.71,702.918 72.834,704.362 72.542,706.158 C 72.239,707.955 72.624,709.609 73.666,711.063 C 74.531,712.265 75.672,713.075 77.045,713.466 C 74.272,716.024 71.754,718.889 69.56,722.036 C 68.998,720.769 68.088,719.783 66.837,719.082 C 65.256,718.218 63.58,718.035 61.827,718.531 C 60.08,719.033 58.746,720.08 57.876,721.651 C 57.005,723.216 56.823,724.903 57.324,726.656 C 57.826,728.408 58.868,729.73 60.438,730.606 C 61.69,731.301 63.007,731.549 64.363,731.362 C 63.497,733.39 62.742,735.495 62.114,737.678 C 61.464,739.926 60.968,742.186 60.626,744.446 C 59.579,743.57 58.333,743.085 56.912,743.013 C 55.12,742.913 53.527,743.487 52.172,744.711 C 50.821,745.928 50.077,747.449 49.989,749.24 C 49.89,751.032 50.463,752.625 51.675,753.98 C 52.899,755.336 54.42,756.07 56.211,756.169 C 57.655,756.24 58.962,755.882 60.119,755.1 C 60.323,758.93 60.946,762.694 61.954,766.332 C 60.588,765.934 59.204,766.017 57.842,766.574 C 56.178,767.246 54.982,768.443 54.271,770.117 C 53.555,771.799 53.539,773.49 54.21,775.155 C 54.878,776.82 56.074,778.016 57.755,778.726 C 59.435,779.437 61.122,779.465 62.786,778.787 C 64.093,778.258 65.107,777.409 65.818,776.257 C 67.499,779.569 69.532,782.7 71.881,785.599 C 70.535,785.769 69.345,786.348 68.336,787.336 C 67.042,788.581 66.38,790.135 66.347,791.959 C 66.313,793.778 66.92,795.355 68.165,796.643 C 69.411,797.944 70.971,798.606 72.79,798.639 C 74.614,798.672 76.184,798.06 77.485,796.82 C 78.549,795.779 79.177,794.555 79.37,793.138 C 82.285,795.536 85.488,797.636 88.938,799.383 C 87.736,800.127 86.86,801.19 86.353,802.574 C 85.719,804.255 85.791,805.947 86.546,807.601 C 87.307,809.265 88.53,810.422 90.216,811.045 C 91.892,811.679 93.589,811.612 95.243,810.857 C 96.907,810.092 98.064,808.868 98.693,807.187 C 99.189,805.853 99.25,804.525 98.869,803.224 C 102.562,804.238 106.271,804.834 109.952,805.038 C 109.159,806.189 108.796,807.49 108.862,808.94 C 108.938,810.731 109.672,812.263 111.022,813.486 C 112.367,814.721 113.96,815.3 115.745,815.211 C 117.542,815.135 119.068,814.401 120.292,813.057 C 121.527,811.712 122.105,810.125 122.022,808.328 C 121.951,806.884 121.466,805.622 120.573,804.558 C 124.359,803.991 128.057,803.021 131.596,801.675 C 131.326,803.092 131.535,804.47 132.224,805.793 C 133.051,807.38 134.357,808.466 136.092,809.011 C 137.829,809.562 139.516,809.419 141.108,808.587 C 142.696,807.76 143.781,806.46 144.332,804.718 C 144.873,802.982 144.735,801.296 143.903,799.703 C 143.252,798.446 142.31,797.52 141.108,796.93 C 144.238,794.946 147.182,792.626 149.854,790.014 C 150.152,791.347 150.858,792.483 151.949,793.409 C 153.311,794.572 154.919,795.084 156.744,794.941 C 158.557,794.786 160.067,794.032 161.231,792.659 C 162.393,791.298 162.9,789.683 162.757,787.87 C 162.613,786.051 161.848,784.535 160.481,783.373 C 159.362,782.424 158.083,781.912 156.667,781.846 C 158.777,778.726 160.574,775.337 162.001,771.722 C 162.872,772.878 164.035,773.656 165.491,774.036 C 167.232,774.494 168.902,774.252 170.472,773.325 C 172.049,772.405 173.074,771.06 173.526,769.324 C 173.983,767.588 173.741,765.913 172.815,764.348 C 171.895,762.771 170.561,761.74 168.814,761.294 C 167.458,760.93 166.152,761.002 164.901,761.493 C 165.567,757.75 165.816,754.003 165.678,750.315 C 166.901,750.998 168.241,751.241 169.685,751.043 C 171.454,750.784 172.908,749.913 174.005,748.447 C 175.092,746.992 175.527,745.356 175.268,743.581 C 175.014,741.8 174.138,740.357 172.677,739.265 C 171.222,738.168 169.58,737.738 167.81,737.998 C 166.389,738.196 165.181,738.797 164.206,739.778 C 163.319,736.146 162.051,732.63 160.431,729.284 C 161.754,729.422 163.032,729.141 164.239,728.441 C 165.793,727.543 166.808,726.181 167.271,724.423 C 167.739,722.66 167.518,720.984 166.621,719.424 C 165.711,717.875 164.361,716.861 162.597,716.399 C 160.839,715.93 159.158,716.156 157.604,717.049 C 156.303,717.809 155.388,718.868 154.87,720.235 C 152.572,717.214 149.943,714.442 147.022,711.962 C 148.34,711.532 149.414,710.722 150.224,709.543 C 151.254,708.071 151.602,706.412 151.277,704.621 C 150.951,702.83 150.042,701.397 148.559,700.382 C 147.088,699.352 145.434,699.01 143.638,699.33 C 141.852,699.66 140.425,700.57 139.399,702.042 C 138.568,703.232 138.187,704.538 138.259,705.938 C 135.03,704.169 131.563,702.719 127.892,701.628 C 128.895,700.73 129.534,699.584 129.821,698.211 C 130.179,696.453 129.854,694.794 128.851,693.267 C 127.848,691.752 126.454,690.793 124.695,690.429 C 122.942,690.076 121.278,690.401 119.752,691.399 Z M 118.39,702.51 L 117.823,705.475 C 112.251,704.88 106.579,705.271 101.102,706.671 L 100.33,703.899 C 100.716,703.877 101.112,703.811 101.509,703.717 C 101.994,703.595 102.457,703.425 102.887,703.221 C 107.897,702.185 113.122,701.92 118.39,702.51 Z M 122.061,703.254 C 122.612,703.364 123.158,703.409 123.692,703.386 C 124.707,703.612 125.715,703.871 126.734,704.169 C 130.868,705.36 134.743,707.04 138.297,709.124 L 136.55,711.631 C 131.601,708.738 126.233,706.814 120.722,705.878 L 121.141,703 C 121.433,703.105 121.736,703.183 122.061,703.254 Z M 97.618,704.598 L 98.29,707.481 C 93.071,709.162 88.084,711.791 83.581,715.363 L 81.734,713.125 C 82.104,712.948 82.462,712.739 82.821,712.491 C 83.278,712.155 83.685,711.78 84.049,711.355 C 88.188,708.441 92.774,706.158 97.618,704.598 Z M 117.305,708.192 L 110.912,741.745 L 101.846,709.328 C 106.911,708.043 112.146,707.669 117.305,708.192 Z M 134.969,713.913 L 115.387,742.109 L 120.313,708.611 C 125.412,709.487 130.384,711.251 134.969,713.913 Z M 141.114,711.129 C 141.538,711.428 141.979,711.664 142.447,711.863 C 146.851,715.076 150.659,718.983 153.751,723.376 L 151.111,724.98 C 149.893,723.265 148.538,721.607 147.06,720.031 C 144.591,717.402 141.891,715.114 139.02,713.186 L 140.58,710.722 C 140.75,710.859 140.926,710.997 141.114,711.129 Z M 98.925,710.181 L 106.69,743.255 L 85.344,717.489 C 89.505,714.199 94.113,711.764 98.925,710.181 Z M 145.043,721.926 C 146.388,723.359 147.623,724.858 148.741,726.412 L 119.338,744.226 L 137.532,715.517 C 140.215,717.33 142.734,719.463 145.043,721.926 Z M 79.557,714.911 L 81.338,717.253 C 81.089,717.484 80.847,717.71 80.599,717.941 C 76.675,721.624 73.528,725.828 71.158,730.347 L 68.59,729.069 C 68.866,728.739 69.108,728.386 69.323,728 C 69.587,727.52 69.791,727.03 69.923,726.539 C 72.564,722.142 75.821,718.234 79.557,714.911 Z M 83.024,719.463 L 103.444,746.347 L 73.633,731.571 C 75.859,727.344 78.813,723.415 82.495,719.958 C 82.671,719.788 82.847,719.628 83.024,719.463 Z M 155.311,726.021 C 155.581,726.49 155.901,726.915 156.259,727.294 C 159.004,732.062 160.966,737.286 162.029,742.727 L 158.915,743.129 C 157.84,737.645 155.785,732.31 152.732,727.405 L 155.173,725.779 C 155.217,725.861 155.262,725.939 155.311,726.021 Z M 156.171,743.476 L 122.072,747.786 L 150.428,728.937 C 153.239,733.478 155.151,738.406 156.171,743.476 Z M 67.284,731.571 L 69.874,732.988 C 67.593,738.086 66.258,743.514 65.889,748.993 L 63.024,748.877 C 63.007,748.701 62.979,748.524 62.952,748.348 C 63.217,745.052 63.811,741.734 64.765,738.439 C 65.448,736.047 66.291,733.759 67.284,731.571 Z M 72.299,734.322 L 101.719,750.481 L 68.645,749.108 C 68.998,744.043 70.221,739.039 72.299,734.322 Z M 162.316,745.509 C 162.448,746.369 162.702,747.114 162.592,746.281 C 163.286,752.007 162.999,757.904 161.61,763.769 L 158.579,762.859 C 159.852,757.331 160.123,751.622 159.384,746.011 L 162.316,745.509 Z M 155.934,762.055 L 123.114,752.161 L 156.667,746.469 C 157.339,751.66 157.091,756.946 155.934,762.055 Z M 62.798,751.704 L 65.779,751.958 C 65.746,757.442 66.672,762.936 68.551,768.172 L 65.845,769.247 C 65.79,769.159 65.735,769.07 65.68,768.994 C 63.735,763.51 62.726,757.668 62.798,751.704 Z M 68.535,752.189 L 101.851,754.967 L 71.119,767.153 C 69.389,762.314 68.529,757.249 68.535,752.189 Z M 122.292,756.56 L 155.157,764.986 C 153.685,769.903 151.337,774.604 148.13,778.847 L 122.292,756.56 Z M 103.78,759.007 L 80.66,782.645 C 80.616,782.601 80.571,782.557 80.527,782.513 C 76.978,778.732 74.223,774.494 72.255,770.002 L 103.78,759.007 Z M 119.762,760.269 L 146.217,781.217 C 145.236,782.342 144.189,783.427 143.082,784.475 C 140.337,787.049 137.349,789.203 134.208,790.945 L 119.762,760.269 Z M 107.186,761.933 L 95.639,793.023 C 91.032,791.088 86.7,788.349 82.842,784.806 L 107.186,761.933 Z M 115.949,762.644 L 131.491,792.334 C 126.767,794.533 121.741,795.856 116.66,796.297 L 115.949,762.644 Z M 111.491,763.185 L 113.595,796.457 C 108.492,796.55 103.378,795.762 98.506,794.108 L 111.491,763.185 Z M 157.835,765.676 L 160.761,766.425 C 160.712,766.711 160.668,766.998 160.646,767.285 C 158.849,773.017 156.105,778.209 152.633,782.733 L 150.23,780.666 C 153.718,776.081 156.253,770.994 157.835,765.676 Z M 78.51,784.403 C 78.582,784.481 78.653,784.552 78.719,784.623 L 76.647,786.745 C 76.554,786.674 76.471,786.619 76.377,786.558 C 72.343,782.254 69.108,777.282 66.816,771.898 L 69.631,770.912 C 71.731,775.761 74.685,780.33 78.51,784.403 Z M 148.383,782.932 L 150.764,784.822 C 150.626,785.026 150.499,785.246 150.384,785.467 C 146.481,789.859 141.841,793.524 136.732,796.297 L 135.388,793.453 C 138.788,791.585 142.012,789.269 144.972,786.492 C 146.184,785.351 147.319,784.161 148.383,782.932 Z M 94.681,795.614 L 93.622,798.457 C 93.551,798.441 93.479,798.429 93.408,798.418 C 87.819,796.065 82.842,792.78 78.604,788.79 L 80.825,786.707 C 84.986,790.565 89.682,793.536 94.681,795.614 Z M 132.769,794.781 L 134.197,797.504 C 134.109,797.565 134.026,797.631 133.949,797.697 C 128.581,800.182 122.766,801.736 116.782,802.21 L 116.715,799.058 C 122.215,798.606 127.661,797.179 132.769,794.781 Z M 113.772,799.212 L 113.97,802.287 C 113.871,802.31 113.772,802.332 113.684,802.359 C 108.845,802.436 103.912,801.814 99.029,800.408 C 98.081,800.127 97.15,799.835 96.235,799.51 L 97.431,796.655 C 102.705,798.468 108.244,799.328 113.772,799.212 Z" marker-start="none" marker-end="none"/>
    </g>
   </g>
  </g>
 </g>
</svg>
