<?xml version="1.0" standalone="no"?>
<!DOCTYPE svg PUBLIC "-//W3C//DTD SVG 1.1//EN" "http://www.w3.org/Graphics/SVG/1.1/DTD/svg11.dtd">
<!--Generator: Xara Designer (www.xara.com), SVG filter version: 6.3.0.4-->
<svg stroke-width="0.501" stroke-linejoin="bevel" fill-rule="evenodd" xmlns:xlink="http://www.w3.org/1999/xlink" xmlns="http://www.w3.org/2000/svg" version="1.1" overflow="visible" width="595.277pt" height="841.891pt" viewBox="0 0 595.277 841.891">
 <defs>
	</defs>
 <g id="Document" fill="none" stroke="black" font-family="Times New Roman" font-size="16" transform="scale(1 -1)">
  <g id="Spread" transform="translate(0 -841.891)">
   <g id="Layer 1">
    <path d="M 83.658,695.373 C 86.754,680.735 81.064,667.016 70.315,661.533 C 55.93,654.193 39.234,657.577 28.285,673.061 L 19.703,670.007 C 18.298,669.263 16.259,673.672 17.972,674.49 L 25.656,677.105 C 23.806,680.208 21.865,683.799 20.261,687.496 C 20.833,689.037 22.083,689.598 23.95,689.24 C 25.502,685.407 27.225,681.886 29.1,678.72 C 40.101,688.387 58.134,696.324 76.729,699.413 C 75.202,704.984 72.857,709.909 69.388,715.842 C 69.216,718.903 73.664,720.082 73.969,719.545 C 77.245,713.795 79.832,708.263 81.654,703.015 C 122.177,724.183 136.156,761.529 136.212,803.924 C 150.478,804.984 159.549,812.349 166.243,822.434 C 162.413,761.572 140.926,711.64 83.658,695.373 Z M 67.272,664.25 C 76.627,668.789 80.035,683.462 78.329,693.702 C 68.623,684.824 51.436,676.087 32.185,674.023 C 41.446,661.357 54.283,657.945 67.272,664.25 Z" stroke="none" stroke-width="0.2" stroke-linejoin="round" fill="#000000" stroke-linecap="round" marker-start="none" marker-end="none" stroke-miterlimit="79.8403193612775"/>
   </g>
   <g id="Layer_1"/>
  </g>
 </g>
</svg>
