<?xml version="1.0" standalone="no"?>
<!DOCTYPE svg PUBLIC "-//W3C//DTD SVG 1.1//EN" "http://www.w3.org/Graphics/SVG/1.1/DTD/svg11.dtd">
<!--Generator: Xara Designer (www.xara.com), SVG filter version: 6.0.0.4-->
<svg stroke-width="0.501" stroke-linejoin="bevel" fill-rule="evenodd" xmlns:xlink="http://www.w3.org/1999/xlink" xmlns="http://www.w3.org/2000/svg" version="1.1" overflow="visible" width="595.277pt" height="841.891pt" viewBox="0 0 595.277 841.891">
 <defs>
	</defs>
 <g id="Document" fill="none" stroke="black" font-family="Times New Roman" font-size="16" transform="scale(1 -1)">
  <g id="Spread" transform="translate(0 -841.891)">
   <g id="Layer 1">
    <path d="M 154.474,674.97 L 154.474,688.203 L 149.127,688.203 L 134.734,739.227 C 136.306,739.961 137.877,740.956 139.449,742.234 C 138.81,743.907 137.352,744.981 135.401,745.688 C 140.907,746.688 145.995,748.441 149.833,752.426 C 150.048,753.393 149.472,754.099 148.68,754.733 C 152.694,757.005 156.255,759.662 157.911,763.964 C 157.08,764.733 155.922,765.185 154.446,765.304 C 158.284,768.707 159.217,772.098 159.641,775.501 C 158.635,776.236 157.516,776.4 156.176,775.501 C 157.968,780.012 157.866,784.524 157.018,789.035 C 153.768,786.768 151.874,784.501 150.596,782.228 C 150.495,784.422 149.765,786.016 148.68,787.231 C 147.832,786.282 147.007,785.321 146.227,784.297 C 144.847,801.595 130.353,815.219 112.693,815.219 C 95.011,815.219 80.506,801.55 79.155,784.207 C 78.369,785.27 77.515,786.253 76.639,787.231 C 75.554,786.016 74.824,784.422 74.723,782.228 C 73.445,784.501 71.551,786.768 68.301,789.035 C 67.453,784.524 67.351,780.012 69.143,775.501 C 67.804,776.4 66.684,776.236 65.678,775.501 C 66.102,772.098 67.035,768.707 70.873,765.304 C 69.398,765.185 68.239,764.733 67.408,763.964 C 69.064,759.662 72.625,757.005 76.639,754.733 C 75.848,754.099 75.271,753.393 75.486,752.426 C 79.324,748.441 84.412,746.688 89.918,745.688 C 87.968,744.981 86.509,743.907 85.87,742.234 C 87.674,740.775 89.454,739.684 91.258,738.944 L 76.266,688.203 L 70.93,688.203 L 70.93,674.97 L 154.474,674.97 Z" stroke="none" fill="#000000" stroke-width="0.102" stroke-linejoin="miter" marker-start="none" marker-end="none" stroke-miterlimit="79.8403193612775"/>
   </g>
  </g>
 </g>
</svg>
