<?xml version="1.0" standalone="no"?>
<!DOCTYPE svg PUBLIC "-//W3C//DTD SVG 1.1//EN" "http://www.w3.org/Graphics/SVG/1.1/DTD/svg11.dtd">
<!--Generator: Xara Designer (www.xara.com), SVG filter version: 6.0.0.4-->
<svg stroke-width="0.501" stroke-linejoin="bevel" fill-rule="evenodd" xmlns:xlink="http://www.w3.org/1999/xlink" xmlns="http://www.w3.org/2000/svg" version="1.1" overflow="visible" width="595.277pt" height="841.891pt" viewBox="0 0 595.277 841.891">
 <defs>
	</defs>
 <g id="Document" fill="none" stroke="black" font-family="Times New Roman" font-size="16" transform="scale(1 -1)">
  <g id="Spread" transform="translate(0 -841.891)">
   <g id="Layer 1">
    <path d="M 47.459,675.356 L 96.725,674.938 L 107.163,700.824 C 109.551,707.371 114.56,707.204 116.766,700.824 L 127.621,675.774 L 175.218,675.774 L 152.254,732.554 C 146.291,746.951 153.447,748.356 165.196,747.585 C 182.698,746.45 184.034,760.98 173.011,767.493 C 160.656,774.794 148.932,780.209 132.212,786.831 C 130.238,801.317 127.202,814.387 112.59,815.222 C 97.978,816.057 92.382,799.276 92.132,785.996 C 77.917,781.99 63.668,774.936 54.271,769.33 C 43.918,763.151 38.239,747.285 61.235,748.003 C 71.32,748.322 77.986,747.285 70.421,729.214 L 47.459,675.356 Z" stroke="none" fill="#000000" stroke-linejoin="miter" marker-start="none" marker-end="none"/>
   </g>
  </g>
 </g>
</svg>
