solid OpenSCAD_Model
  facet normal -1 0 0
    outer loop
      vertex 126.2 3 27.5
      vertex 126.2 69 29
      vertex 126.2 69 27.5
    endloop
  endfacet
  facet normal -1 0 0
    outer loop
      vertex 126.2 69 29
      vertex 126.2 3 27.5
      vertex 126.2 3 29
    endloop
  endfacet
  facet normal 0 0 1
    outer loop
      vertex 0 3 26
      vertex 3 3 26
      vertex 3 30.601524 26
    endloop
  endfacet
  facet normal 0 0 1
    outer loop
      vertex 0 3 26
      vertex 3 30.601524 26
      vertex 0 30.601524 26
    endloop
  endfacet
  facet normal 0 0 1
    outer loop
      vertex 3 3 26
      vertex 0 3 26
      vertex 0.40192413 1.5 26
    endloop
  endfacet
  facet normal 0 0 1
    outer loop
      vertex 127.5 70.5 26
      vertex 94 69 26
      vertex 127.5 1.5 26
    endloop
  endfacet
  facet normal 0 0 1
    outer loop
      vertex 0.40192413 70.5 26
      vertex 94 69 26
      vertex 127.5 70.5 26
    endloop
  endfacet
  facet normal 0 0 1
    outer loop
      vertex 94 69 26
      vertex 0.40192413 70.5 26
      vertex 3 69 26
    endloop
  endfacet
  facet normal 0 0 1
    outer loop
      vertex 0 69 26
      vertex 3 69 26
      vertex 0.40192413 70.5 26
    endloop
  endfacet
  facet normal 0 0 1
    outer loop
      vertex 3 69 26
      vertex 0 69 26
      vertex 3 56.398476 26
    endloop
  endfacet
  facet normal 0 0 1
    outer loop
      vertex 3 56.398476 26
      vertex 0 69 26
      vertex 0 56.398476 26
    endloop
  endfacet
  facet normal 0 0 1
    outer loop
      vertex 94 3 26
      vertex 127.5 1.5 26
      vertex 94 69 26
    endloop
  endfacet
  facet normal 0 0 1
    outer loop
      vertex 0.40192413 1.5 26
      vertex 94 3 26
      vertex 3 3 26
    endloop
  endfacet
  facet normal 0 0 1
    outer loop
      vertex 94 3 26
      vertex 0.40192413 1.5 26
      vertex 127.5 1.5 26
    endloop
  endfacet
  facet normal 0 -1 0
    outer loop
      vertex 0 69 27.5
      vertex 126.2 69 29
      vertex 0 69 29
    endloop
  endfacet
  facet normal 0 -1 0
    outer loop
      vertex 126.2 69 29
      vertex 0 69 27.5
      vertex 126.2 69 27.5
    endloop
  endfacet
  facet normal 0 -1 0
    outer loop
      vertex 3 69 2
      vertex 94 69 26
      vertex 3 69 26
    endloop
  endfacet
  facet normal 0 -1 0
    outer loop
      vertex 94 69 26
      vertex 3 69 2
      vertex 94 69 2
    endloop
  endfacet
  facet normal 0 1 0
    outer loop
      vertex 126.2 3 27.5
      vertex 0 3 29
      vertex 126.2 3 29
    endloop
  endfacet
  facet normal 0 1 0
    outer loop
      vertex 0 3 29
      vertex 126.2 3 27.5
      vertex 0 3 27.5
    endloop
  endfacet
  facet normal 0 1 0
    outer loop
      vertex 94 3 2
      vertex 3 3 26
      vertex 94 3 26
    endloop
  endfacet
  facet normal 0 1 0
    outer loop
      vertex 3 3 26
      vertex 94 3 2
      vertex 3 3 2
    endloop
  endfacet
  facet normal -1 0 0
    outer loop
      vertex 127.5 1.5 26
      vertex 127.5 70.5 27
      vertex 127.5 70.5 26
    endloop
  endfacet
  facet normal -1 0 0
    outer loop
      vertex 127.5 70.5 27
      vertex 127.5 1.5 26
      vertex 127.5 1.5 27
    endloop
  endfacet
  facet normal -0.70710677 0 -0.70710677
    outer loop
      vertex 127.5 70.5 27
      vertex 127 2 27.5
      vertex 127 70 27.5
    endloop
  endfacet
  facet normal -0.70710677 0 -0.70710677
    outer loop
      vertex 127 2 27.5
      vertex 127.5 70.5 27
      vertex 127.5 1.5 27
    endloop
  endfacet
  facet normal 0 0.70710677 -0.70710677
    outer loop
      vertex 0.40192413 1.5 27
      vertex 127 2 27.5
      vertex 127.5 1.5 27
    endloop
  endfacet
  facet normal 0 0.70710677 -0.70710677
    outer loop
      vertex 127 2 27.5
      vertex 0.40192413 1.5 27
      vertex 0.26794943 2 27.5
    endloop
  endfacet
  facet normal 0 -0.70710677 -0.70710677
    outer loop
      vertex 0.40192413 70.5 27
      vertex 127 70 27.5
      vertex 0.26794943 70 27.5
    endloop
  endfacet
  facet normal 0 -0.70710677 -0.70710677
    outer loop
      vertex 127 70 27.5
      vertex 0.40192413 70.5 27
      vertex 127.5 70.5 27
    endloop
  endfacet
  facet normal 0 1 0
    outer loop
      vertex 127.5 1.5 26
      vertex 0.40192413 1.5 27
      vertex 127.5 1.5 27
    endloop
  endfacet
  facet normal 0 1 0
    outer loop
      vertex 0.40192413 1.5 27
      vertex 127.5 1.5 26
      vertex 0.40192413 1.5 26
    endloop
  endfacet
  facet normal 0 0 -1
    outer loop
      vertex 127 2 27.5
      vertex 126.2 3 27.5
      vertex 127 70 27.5
    endloop
  endfacet
  facet normal 0 0 -1
    outer loop
      vertex 0.26794943 2 27.5
      vertex 126.2 3 27.5
      vertex 127 2 27.5
    endloop
  endfacet
  facet normal 0 0 -1
    outer loop
      vertex 126.2 3 27.5
      vertex 0.26794943 2 27.5
      vertex 0 3 27.5
    endloop
  endfacet
  facet normal 0 0 -1
    outer loop
      vertex 126.2 69 27.5
      vertex 127 70 27.5
      vertex 126.2 3 27.5
    endloop
  endfacet
  facet normal 0 0 -1
    outer loop
      vertex 126.2 69 27.5
      vertex 0.26794943 70 27.5
      vertex 127 70 27.5
    endloop
  endfacet
  facet normal 0 0 -1
    outer loop
      vertex 0.26794943 70 27.5
      vertex 126.2 69 27.5
      vertex 0 69 27.5
    endloop
  endfacet
  facet normal 0 -1 0
    outer loop
      vertex 0.40192413 70.5 26
      vertex 127.5 70.5 27
      vertex 0.40192413 70.5 27
    endloop
  endfacet
  facet normal 0 -1 0
    outer loop
      vertex 127.5 70.5 27
      vertex 0.40192413 70.5 26
      vertex 127.5 70.5 26
    endloop
  endfacet
  facet normal -1 0 0
    outer loop
      vertex 3.4 33.5 0
      vertex 3.4 33.524563 2
      vertex 3.4 33.524563 0
    endloop
  endfacet
  facet normal -1 0 0
    outer loop
      vertex 3.4 33.524563 2
      vertex 3.4 33.5 0
      vertex 3.4 33.5 2
    endloop
  endfacet
  facet normal -1 0 0
    outer loop
      vertex 3.4 53.475437 0
      vertex 3.4 53.5 2
      vertex 3.4 53.5 0
    endloop
  endfacet
  facet normal -1 0 0
    outer loop
      vertex 3.4 53.5 2
      vertex 3.4 53.475437 0
      vertex 3.4 53.475437 2
    endloop
  endfacet
  facet normal 0 -0.9569399 0.29028624
    outer loop
      vertex 0.8159758 53.61418 23.781647
      vertex 3 53.728363 24.15805
      vertex 0.60235816 53.728363 24.15805
    endloop
  endfacet
  facet normal -4.3835752e-7 -0.95693916 0.29028857
    outer loop
      vertex 1.002352 53.557644 23.59527
      vertex 3 53.728363 24.15805
      vertex 0.8159758 53.61418 23.781647
    endloop
  endfacet
  facet normal 0 -0.9569396 0.29028714
    outer loop
      vertex 3 53.728363 24.15805
      vertex 1.002352 53.557644 23.59527
      vertex 3 53.557644 23.59527
    endloop
  endfacet
  facet normal 0 -0.8819138 0.47141075
    outer loop
      vertex 0.32934058 53.93934 24.552763
      vertex 3 54.005592 24.67671
      vertex 0.27496982 54.005592 24.67671
    endloop
  endfacet
  facet normal -0.0000072882467 -0.8819257 0.47138837
    outer loop
      vertex 0.60235816 53.728363 24.15805
      vertex 0.32934058 53.93934 24.552763
      vertex 0.55664504 53.752796 24.203762
    endloop
  endfacet
  facet normal 0.0000010670524 -0.8819233 0.47139287
    outer loop
      vertex 0.32934058 53.93934 24.552763
      vertex 0.60235816 53.728363 24.15805
      vertex 3 54.005592 24.67671
    endloop
  endfacet
  facet normal 0 -0.8819213 0.4713967
    outer loop
      vertex 3 54.005592 24.67671
      vertex 0.60235816 53.728363 24.15805
      vertex 3 53.728363 24.15805
    endloop
  endfacet
  facet normal -0.000018264189 -0.995186 0.098004565
    outer loop
      vertex 1.39 53.5 23.009998
      vertex 1.002352 53.557644 23.59527
      vertex 1.097365 53.528824 23.302635
    endloop
  endfacet
  facet normal 0 -0.9951848 0.098016545
    outer loop
      vertex 1.002352 53.557644 23.59527
      vertex 1.39 53.5 23.009998
      vertex 3 53.557644 23.59527
    endloop
  endfacet
  facet normal 0 -0.9951848 0.098016545
    outer loop
      vertex 3 53.557644 23.59527
      vertex 1.39 53.5 23.009998
      vertex 3 53.5 23.009998
    endloop
  endfacet
  facet normal 0 -0.63439107 0.7730123
    outer loop
      vertex 3 54.83329 25.50441
      vertex 0.029461432 54.378677 25.13132
      vertex 3 54.378677 25.13132
    endloop
  endfacet
  facet normal 0 -0.63439107 0.7730123
    outer loop
      vertex 0 54.83329 25.50441
      vertex 0.029461432 54.378677 25.13132
      vertex 3 54.83329 25.50441
    endloop
  endfacet
  facet normal -0.0000152218645 -0.63439167 0.7730118
    outer loop
      vertex 0 54.43976 25.181448
      vertex 0.029461432 54.378677 25.13132
      vertex 0 54.83329 25.50441
    endloop
  endfacet
  facet normal -0.0011171387 -0.63470876 0.7727506
    outer loop
      vertex 0.029461432 54.378677 25.13132
      vertex 0 54.43976 25.181448
      vertex 0.0041815187 54.425976 25.170134
    endloop
  endfacet
  facet normal 0 -0.29028392 0.9569406
    outer loop
      vertex 0 55.914726 25.952354
      vertex 3 55.35195 25.78164
      vertex 3 55.914726 25.952354
    endloop
  endfacet
  facet normal 0 -0.29028392 0.9569406
    outer loop
      vertex 3 55.35195 25.78164
      vertex 0 55.914726 25.952354
      vertex 0 55.35195 25.78164
    endloop
  endfacet
  facet normal -0.000010398458 -0.7730169 0.6343854
    outer loop
      vertex 0.27496982 54.005592 24.67671
      vertex 0.029461432 54.378677 25.13132
      vertex 0.14279617 54.166645 24.872955
    endloop
  endfacet
  facet normal 0 -0.7730141 0.63438874
    outer loop
      vertex 0.029461432 54.378677 25.13132
      vertex 0.27496982 54.005592 24.67671
      vertex 3 54.378677 25.13132
    endloop
  endfacet
  facet normal 0 -0.7730141 0.63438874
    outer loop
      vertex 3 54.378677 25.13132
      vertex 0.27496982 54.005592 24.67671
      vertex 3 54.005592 24.67671
    endloop
  endfacet
  facet normal 0 -0.09801798 0.99518466
    outer loop
      vertex 0 56.398476 26
      vertex 3 55.914726 25.952354
      vertex 3 56.398476 26
    endloop
  endfacet
  facet normal 0 -0.09801798 0.99518466
    outer loop
      vertex 3 55.914726 25.952354
      vertex 0 56.398476 26
      vertex 0 55.914726 25.952354
    endloop
  endfacet
  facet normal 0 -0.47139537 0.881922
    outer loop
      vertex 0 55.35195 25.78164
      vertex 3 54.83329 25.50441
      vertex 3 55.35195 25.78164
    endloop
  endfacet
  facet normal 0 -0.47139537 0.881922
    outer loop
      vertex 3 54.83329 25.50441
      vertex 0 55.35195 25.78164
      vertex 0 54.83329 25.50441
    endloop
  endfacet
  facet normal 0 0.9951848 0.098016545
    outer loop
      vertex 1.39 33.5 23.009998
      vertex 1.002352 33.442356 23.59527
      vertex 3 33.442356 23.59527
    endloop
  endfacet
  facet normal 0 0.9951848 0.098016545
    outer loop
      vertex 1.39 33.5 23.009998
      vertex 3 33.442356 23.59527
      vertex 3 33.5 23.009998
    endloop
  endfacet
  facet normal -0.000018264189 0.995186 0.098004565
    outer loop
      vertex 1.002352 33.442356 23.59527
      vertex 1.39 33.5 23.009998
      vertex 1.097365 33.471176 23.302635
    endloop
  endfacet
  facet normal 0 0.9569399 0.29028624
    outer loop
      vertex 3 33.271637 24.15805
      vertex 0.8159758 33.38582 23.781647
      vertex 0.60235816 33.271637 24.15805
    endloop
  endfacet
  facet normal 0 0.9569396 0.29028714
    outer loop
      vertex 1.002352 33.442356 23.59527
      vertex 3 33.271637 24.15805
      vertex 3 33.442356 23.59527
    endloop
  endfacet
  facet normal -4.3835752e-7 0.95693916 0.29028857
    outer loop
      vertex 3 33.271637 24.15805
      vertex 1.002352 33.442356 23.59527
      vertex 0.8159758 33.38582 23.781647
    endloop
  endfacet
  facet normal 0 0.8819138 0.47141075
    outer loop
      vertex 3 32.994408 24.67671
      vertex 0.32934058 33.06066 24.552763
      vertex 0.27496982 32.994408 24.67671
    endloop
  endfacet
  facet normal 0.0000010670524 0.8819233 0.47139287
    outer loop
      vertex 0.60235816 33.271637 24.15805
      vertex 0.32934058 33.06066 24.552763
      vertex 3 32.994408 24.67671
    endloop
  endfacet
  facet normal 0 0.8819213 0.4713967
    outer loop
      vertex 0.60235816 33.271637 24.15805
      vertex 3 32.994408 24.67671
      vertex 3 33.271637 24.15805
    endloop
  endfacet
  facet normal -0.0000072882467 0.8819257 0.47138837
    outer loop
      vertex 0.32934058 33.06066 24.552763
      vertex 0.60235816 33.271637 24.15805
      vertex 0.55664504 33.247204 24.203762
    endloop
  endfacet
  facet normal 0 0.63439107 0.7730123
    outer loop
      vertex 0.029461432 32.621323 25.13132
      vertex 3 32.16671 25.50441
      vertex 3 32.621323 25.13132
    endloop
  endfacet
  facet normal -0.0011171387 0.63470876 0.7727506
    outer loop
      vertex 0 32.56024 25.181448
      vertex 0.029461432 32.621323 25.13132
      vertex 0.0041815187 32.574024 25.170134
    endloop
  endfacet
  facet normal -0.0000152218645 0.63439167 0.7730118
    outer loop
      vertex 0.029461432 32.621323 25.13132
      vertex 0 32.56024 25.181448
      vertex 0 32.16671 25.50441
    endloop
  endfacet
  facet normal 0 0.63439107 0.7730123
    outer loop
      vertex 0.029461432 32.621323 25.13132
      vertex 0 32.16671 25.50441
      vertex 3 32.16671 25.50441
    endloop
  endfacet
  facet normal 0 0.4713967 0.8819213
    outer loop
      vertex 0 32.16671 25.50441
      vertex 3 31.64805 25.78164
      vertex 3 32.16671 25.50441
    endloop
  endfacet
  facet normal 0 0.4713967 0.8819213
    outer loop
      vertex 3 31.64805 25.78164
      vertex 0 32.16671 25.50441
      vertex 0 31.64805 25.78164
    endloop
  endfacet
  facet normal 0 0.09801836 0.9951846
    outer loop
      vertex 0 31.085272 25.952354
      vertex 3 30.601524 26
      vertex 3 31.085272 25.952354
    endloop
  endfacet
  facet normal 0 0.09801836 0.9951846
    outer loop
      vertex 3 30.601524 26
      vertex 0 31.085272 25.952354
      vertex 0 30.601524 26
    endloop
  endfacet
  facet normal 0 0.2902821 0.9569411
    outer loop
      vertex 0 31.64805 25.78164
      vertex 3 31.085272 25.952354
      vertex 3 31.64805 25.78164
    endloop
  endfacet
  facet normal 0 0.2902821 0.9569411
    outer loop
      vertex 3 31.085272 25.952354
      vertex 0 31.64805 25.78164
      vertex 0 31.085272 25.952354
    endloop
  endfacet
  facet normal 0 0.7730141 0.63438874
    outer loop
      vertex 0.27496982 32.994408 24.67671
      vertex 0.029461432 32.621323 25.13132
      vertex 3 32.621323 25.13132
    endloop
  endfacet
  facet normal 0 0.7730141 0.63438874
    outer loop
      vertex 0.27496982 32.994408 24.67671
      vertex 3 32.621323 25.13132
      vertex 3 32.994408 24.67671
    endloop
  endfacet
  facet normal -0.000010398458 0.7730169 0.6343854
    outer loop
      vertex 0.029461432 32.621323 25.13132
      vertex 0.27496982 32.994408 24.67671
      vertex 0.14279617 32.833355 24.872955
    endloop
  endfacet
  facet normal 0 1 0
    outer loop
      vertex 3.4 33.5 2
      vertex 3.4 33.5 0
      vertex 3 33.5 2
    endloop
  endfacet
  facet normal 0 1 0
    outer loop
      vertex 3 33.5 2
      vertex 1.39 33.5 23.009998
      vertex 3 33.5 23.009998
    endloop
  endfacet
  facet normal 0 1 0
    outer loop
      vertex 3 33.5 2
      vertex 1.39 33.5 0
      vertex 1.39 33.5 23.009998
    endloop
  endfacet
  facet normal 0 1 0
    outer loop
      vertex 1.39 33.5 0
      vertex 3 33.5 2
      vertex 3.4 33.5 0
    endloop
  endfacet
  facet normal 0 -1 0
    outer loop
      vertex 1.39 53.5 23.009998
      vertex 3 53.5 2
      vertex 3 53.5 23.009998
    endloop
  endfacet
  facet normal 0 -1 0
    outer loop
      vertex 1.39 53.5 0
      vertex 3 53.5 2
      vertex 1.39 53.5 23.009998
    endloop
  endfacet
  facet normal 0 -1 0
    outer loop
      vertex 3.4 53.5 0
      vertex 3 53.5 2
      vertex 1.39 53.5 0
    endloop
  endfacet
  facet normal 0 -1 0
    outer loop
      vertex 3 53.5 2
      vertex 3.4 53.5 0
      vertex 3.4 53.5 2
    endloop
  endfacet
  facet normal -0.47135848 -0.88194174 0.00002912919
    outer loop
      vertex 0.55664504 53.752796 24.203762
      vertex 0.8159758 53.61418 23.781647
      vertex 0.60235816 53.728363 24.15805
    endloop
  endfacet
  facet normal -0.47139537 -0.881922 0
    outer loop
      vertex 0.55664504 53.752796 0
      vertex 0.8159758 53.61418 23.781647
      vertex 0.55664504 53.752796 24.203762
    endloop
  endfacet
  facet normal -0.47139537 -0.881922 0
    outer loop
      vertex 0.8159758 53.61418 23.781647
      vertex 0.55664504 53.752796 0
      vertex 0.8159758 53.61418 0
    endloop
  endfacet
  facet normal -0.7730123 -0.634391 0
    outer loop
      vertex 0.32934058 53.93934 24.552763
      vertex 0.14279617 54.166645 24.872955
      vertex 0.14279617 54.166645 0
    endloop
  endfacet
  facet normal -0.7730123 -0.634391 0
    outer loop
      vertex 0.32934058 53.93934 24.552763
      vertex 0.14279617 54.166645 0
      vertex 0.32934058 53.93934 0
    endloop
  endfacet
  facet normal -0.7729793 -0.6344312 0.00004773267
    outer loop
      vertex 0.14279617 54.166645 24.872955
      vertex 0.32934058 53.93934 24.552763
      vertex 0.27496982 54.005592 24.67671
    endloop
  endfacet
  facet normal -0.95692796 -0.29032552 0
    outer loop
      vertex 0.0041815187 54.425976 25.170134
      vertex 0 54.43976 0
      vertex 0.0041815187 54.425976 0
    endloop
  endfacet
  facet normal -0.95692796 -0.29032552 0
    outer loop
      vertex 0 54.43976 0
      vertex 0.0041815187 54.425976 25.170134
      vertex 0 54.43976 25.181448
    endloop
  endfacet
  facet normal -0.881922 -0.47139537 0
    outer loop
      vertex 0.14279617 54.166645 24.872955
      vertex 0.0041815187 54.425976 25.170134
      vertex 0.0041815187 54.425976 0
    endloop
  endfacet
  facet normal -0.881922 -0.47139537 0
    outer loop
      vertex 0.14279617 54.166645 24.872955
      vertex 0.0041815187 54.425976 0
      vertex 0.14279617 54.166645 0
    endloop
  endfacet
  facet normal -0.8819638 -0.4713172 -0.00008769755
    outer loop
      vertex 0.0041815187 54.425976 25.170134
      vertex 0.14279617 54.166645 24.872955
      vertex 0.029461432 54.378677 25.13132
    endloop
  endfacet
  facet normal -0.29029998 -0.9569357 -0.000011467858
    outer loop
      vertex 0.8159758 53.61418 23.781647
      vertex 1.097365 53.528824 23.302635
      vertex 1.002352 53.557644 23.59527
    endloop
  endfacet
  facet normal -0.2902821 -0.9569411 0
    outer loop
      vertex 0.8159758 53.61418 0
      vertex 1.097365 53.528824 23.302635
      vertex 0.8159758 53.61418 23.781647
    endloop
  endfacet
  facet normal -0.2902821 -0.9569411 0
    outer loop
      vertex 1.097365 53.528824 23.302635
      vertex 0.8159758 53.61418 0
      vertex 1.097365 53.528824 0
    endloop
  endfacet
  facet normal -0.63439035 -0.7730129 0
    outer loop
      vertex 0.32934058 53.93934 0
      vertex 0.55664504 53.752796 24.203762
      vertex 0.32934058 53.93934 24.552763
    endloop
  endfacet
  facet normal -0.63439035 -0.7730129 0
    outer loop
      vertex 0.55664504 53.752796 24.203762
      vertex 0.32934058 53.93934 0
      vertex 0.55664504 53.752796 0
    endloop
  endfacet
  facet normal -0.09802329 -0.9951841 0
    outer loop
      vertex 1.097365 53.528824 0
      vertex 1.39 53.5 23.009998
      vertex 1.097365 53.528824 23.302635
    endloop
  endfacet
  facet normal -0.09802329 -0.9951841 0
    outer loop
      vertex 1.39 53.5 23.009998
      vertex 1.097365 53.528824 0
      vertex 1.39 53.5 0
    endloop
  endfacet
  facet normal -0.881922 0.47139537 0
    outer loop
      vertex 0.0041815187 32.574024 0
      vertex 0.14279617 32.833355 24.872955
      vertex 0.14279617 32.833355 0
    endloop
  endfacet
  facet normal -0.881922 0.47139537 0
    outer loop
      vertex 0.0041815187 32.574024 25.170134
      vertex 0.14279617 32.833355 24.872955
      vertex 0.0041815187 32.574024 0
    endloop
  endfacet
  facet normal -0.8819638 0.4713172 -0.00008769755
    outer loop
      vertex 0.14279617 32.833355 24.872955
      vertex 0.0041815187 32.574024 25.170134
      vertex 0.029461432 32.621323 25.13132
    endloop
  endfacet
  facet normal -0.95692796 0.29032552 0
    outer loop
      vertex 0 32.56024 0
      vertex 0.0041815187 32.574024 25.170134
      vertex 0.0041815187 32.574024 0
    endloop
  endfacet
  facet normal -0.95692796 0.29032552 0
    outer loop
      vertex 0.0041815187 32.574024 25.170134
      vertex 0 32.56024 0
      vertex 0 32.56024 25.181448
    endloop
  endfacet
  facet normal -0.29029998 0.9569357 -0.000011467858
    outer loop
      vertex 1.097365 33.471176 23.302635
      vertex 0.8159758 33.38582 23.781647
      vertex 1.002352 33.442356 23.59527
    endloop
  endfacet
  facet normal -0.2902821 0.9569411 0
    outer loop
      vertex 0.8159758 33.38582 0
      vertex 1.097365 33.471176 23.302635
      vertex 1.097365 33.471176 0
    endloop
  endfacet
  facet normal -0.2902821 0.9569411 0
    outer loop
      vertex 1.097365 33.471176 23.302635
      vertex 0.8159758 33.38582 0
      vertex 0.8159758 33.38582 23.781647
    endloop
  endfacet
  facet normal -0.63439035 0.7730129 0
    outer loop
      vertex 0.32934058 33.06066 0
      vertex 0.55664504 33.247204 24.203762
      vertex 0.55664504 33.247204 0
    endloop
  endfacet
  facet normal -0.63439035 0.7730129 0
    outer loop
      vertex 0.55664504 33.247204 24.203762
      vertex 0.32934058 33.06066 0
      vertex 0.32934058 33.06066 24.552763
    endloop
  endfacet
  facet normal -0.7730123 0.634391 0
    outer loop
      vertex 0.14279617 32.833355 0
      vertex 0.32934058 33.06066 24.552763
      vertex 0.32934058 33.06066 0
    endloop
  endfacet
  facet normal -0.7730123 0.634391 0
    outer loop
      vertex 0.14279617 32.833355 24.872955
      vertex 0.32934058 33.06066 24.552763
      vertex 0.14279617 32.833355 0
    endloop
  endfacet
  facet normal -0.7729793 0.6344312 0.00004773267
    outer loop
      vertex 0.32934058 33.06066 24.552763
      vertex 0.14279617 32.833355 24.872955
      vertex 0.27496982 32.994408 24.67671
    endloop
  endfacet
  facet normal -0.47135848 0.88194174 0.00002912919
    outer loop
      vertex 0.8159758 33.38582 23.781647
      vertex 0.55664504 33.247204 24.203762
      vertex 0.60235816 33.271637 24.15805
    endloop
  endfacet
  facet normal -0.47139537 0.881922 0
    outer loop
      vertex 0.55664504 33.247204 0
      vertex 0.8159758 33.38582 23.781647
      vertex 0.8159758 33.38582 0
    endloop
  endfacet
  facet normal -0.47139537 0.881922 0
    outer loop
      vertex 0.8159758 33.38582 23.781647
      vertex 0.55664504 33.247204 0
      vertex 0.55664504 33.247204 24.203762
    endloop
  endfacet
  facet normal -0.09802329 0.9951841 0
    outer loop
      vertex 1.097365 33.471176 0
      vertex 1.39 33.5 23.009998
      vertex 1.39 33.5 0
    endloop
  endfacet
  facet normal -0.09802329 0.9951841 0
    outer loop
      vertex 1.39 33.5 23.009998
      vertex 1.097365 33.471176 0
      vertex 1.097365 33.471176 23.302635
    endloop
  endfacet
  facet normal -0.85772884 0.5141024 0
    outer loop
      vertex 11.214695 37.944298 0
      vertex 11.719212 38.786034 2
      vertex 11.719212 38.786034 0
    endloop
  endfacet
  facet normal -0.85772884 0.5141024 0
    outer loop
      vertex 11.719212 38.786034 2
      vertex 11.214695 37.944298 0
      vertex 11.214695 37.944298 2
    endloop
  endfacet
  facet normal -0.51410306 -0.8577284 0
    outer loop
      vertex 7.6139674 52.319214 0
      vertex 8.455702 51.814697 2
      vertex 7.6139674 52.319214 2
    endloop
  endfacet
  facet normal -0.51410306 -0.8577284 0
    outer loop
      vertex 8.455702 51.814697 2
      vertex 7.6139674 52.319214 0
      vertex 8.455702 51.814697 0
    endloop
  endfacet
  facet normal -0.970031 -0.24298103 0
    outer loop
      vertex 12.707852 45.450905 0
      vertex 12.469402 46.402847 2
      vertex 12.469402 46.402847 0
    endloop
  endfacet
  facet normal -0.970031 -0.24298103 0
    outer loop
      vertex 12.469402 46.402847 2
      vertex 12.707852 45.450905 0
      vertex 12.707852 45.450905 2
    endloop
  endfacet
  facet normal -0.74095106 0.67155904 0
    outer loop
      vertex 9.971067 36.428932 0
      vertex 10.630104 37.156067 2
      vertex 10.630104 37.156067 0
    endloop
  endfacet
  facet normal -0.74095106 0.67155904 0
    outer loop
      vertex 10.630104 37.156067 2
      vertex 9.971067 36.428932 0
      vertex 9.971067 36.428932 2
    endloop
  endfacet
  facet normal -0.67155963 -0.7409505 0
    outer loop
      vertex 9.243932 51.230106 0
      vertex 9.971067 50.571068 2
      vertex 9.243932 51.230106 2
    endloop
  endfacet
  facet normal -0.67155963 -0.7409505 0
    outer loop
      vertex 9.971067 50.571068 2
      vertex 9.243932 51.230106 0
      vertex 9.971067 50.571068 0
    endloop
  endfacet
  facet normal -0.04906931 0.9987954 0
    outer loop
      vertex 3.8801713 33.548153 0
      vertex 3.4 33.524563 2
      vertex 3.8801713 33.548153 2
    endloop
  endfacet
  facet normal -0.04906931 0.9987954 0
    outer loop
      vertex 3.4 33.524563 2
      vertex 3.8801713 33.548153 0
      vertex 3.4 33.524563 0
    endloop
  endfacet
  facet normal -0.85772884 -0.5141024 0
    outer loop
      vertex 11.719212 48.213966 0
      vertex 11.214695 49.055702 2
      vertex 11.214695 49.055702 0
    endloop
  endfacet
  facet normal -0.85772884 -0.5141024 0
    outer loop
      vertex 11.214695 49.055702 2
      vertex 11.719212 48.213966 0
      vertex 11.719212 48.213966 2
    endloop
  endfacet
  facet normal -0.9039886 0.42755654 0
    outer loop
      vertex 11.719212 38.786034 0
      vertex 12.138795 39.673164 2
      vertex 12.138795 39.673164 0
    endloop
  endfacet
  facet normal -0.9039886 0.42755654 0
    outer loop
      vertex 12.138795 39.673164 2
      vertex 11.719212 38.786034 0
      vertex 11.719212 38.786034 2
    endloop
  endfacet
  facet normal -0.59569913 -0.80320764 0
    outer loop
      vertex 8.455702 51.814697 0
      vertex 9.243932 51.230106 2
      vertex 8.455702 51.814697 2
    endloop
  endfacet
  facet normal -0.59569913 -0.80320764 0
    outer loop
      vertex 9.243932 51.230106 2
      vertex 8.455702 51.814697 0
      vertex 9.243932 51.230106 0
    endloop
  endfacet
  facet normal -0.59570163 0.8032058 0
    outer loop
      vertex 9.243932 35.769897 0
      vertex 8.455702 35.185303 2
      vertex 9.243932 35.769897 2
    endloop
  endfacet
  facet normal -0.59570163 0.8032058 0
    outer loop
      vertex 8.455702 35.185303 2
      vertex 9.243932 35.769897 0
      vertex 8.455702 35.185303 0
    endloop
  endfacet
  facet normal -0.74095106 -0.67155904 0
    outer loop
      vertex 10.630104 49.843933 0
      vertex 9.971067 50.571068 2
      vertex 9.971067 50.571068 0
    endloop
  endfacet
  facet normal -0.74095106 -0.67155904 0
    outer loop
      vertex 9.971067 50.571068 2
      vertex 10.630104 49.843933 0
      vertex 10.630104 49.843933 2
    endloop
  endfacet
  facet normal -0.33689022 -0.94154394 0
    outer loop
      vertex 5.8028464 53.069405 0
      vertex 6.726834 52.738796 2
      vertex 5.8028464 53.069405 2
    endloop
  endfacet
  facet normal -0.33689022 -0.94154394 0
    outer loop
      vertex 6.726834 52.738796 2
      vertex 5.8028464 53.069405 0
      vertex 6.726834 52.738796 0
    endloop
  endfacet
  facet normal -0.94154435 0.33688903 0
    outer loop
      vertex 12.138795 39.673164 0
      vertex 12.469402 40.597153 2
      vertex 12.469402 40.597153 0
    endloop
  endfacet
  facet normal -0.94154435 0.33688903 0
    outer loop
      vertex 12.469402 40.597153 2
      vertex 12.138795 39.673164 0
      vertex 12.138795 39.673164 2
    endloop
  endfacet
  facet normal -0.14672941 0.9891767 0
    outer loop
      vertex 4.850903 33.692146 0
      vertex 3.8801713 33.548153 2
      vertex 4.850903 33.692146 2
    endloop
  endfacet
  facet normal -0.14672941 0.9891767 0
    outer loop
      vertex 3.8801713 33.548153 2
      vertex 4.850903 33.692146 0
      vertex 3.8801713 33.548153 0
    endloop
  endfacet
  facet normal -0.803208 -0.59569865 0
    outer loop
      vertex 11.214695 49.055702 0
      vertex 10.630104 49.843933 2
      vertex 10.630104 49.843933 0
    endloop
  endfacet
  facet normal -0.803208 -0.59569865 0
    outer loop
      vertex 10.630104 49.843933 2
      vertex 11.214695 49.055702 0
      vertex 11.214695 49.055702 2
    endloop
  endfacet
  facet normal -0.9039886 -0.42755654 0
    outer loop
      vertex 12.138795 47.326836 0
      vertex 11.719212 48.213966 2
      vertex 11.719212 48.213966 0
    endloop
  endfacet
  facet normal -0.9039886 -0.42755654 0
    outer loop
      vertex 11.719212 48.213966 2
      vertex 12.138795 47.326836 0
      vertex 12.138795 47.326836 2
    endloop
  endfacet
  facet normal -0.99879545 -0.049067877 0
    outer loop
      vertex 12.9 43.5 0
      vertex 12.851847 44.48017 2
      vertex 12.851847 44.48017 0
    endloop
  endfacet
  facet normal -0.99879545 -0.049067877 0
    outer loop
      vertex 12.851847 44.48017 2
      vertex 12.9 43.5 0
      vertex 12.9 43.5 2
    endloop
  endfacet
  facet normal -0.04906931 -0.9987954 0
    outer loop
      vertex 3.4 53.475437 0
      vertex 3.8801713 53.451847 2
      vertex 3.4 53.475437 2
    endloop
  endfacet
  facet normal -0.04906931 -0.9987954 0
    outer loop
      vertex 3.8801713 53.451847 2
      vertex 3.4 53.475437 0
      vertex 3.8801713 53.451847 0
    endloop
  endfacet
  facet normal -0.803208 0.59569865 0
    outer loop
      vertex 10.630104 37.156067 0
      vertex 11.214695 37.944298 2
      vertex 11.214695 37.944298 0
    endloop
  endfacet
  facet normal -0.803208 0.59569865 0
    outer loop
      vertex 11.214695 37.944298 2
      vertex 10.630104 37.156067 0
      vertex 10.630104 37.156067 2
    endloop
  endfacet
  facet normal -0.24297988 -0.9700313 0
    outer loop
      vertex 4.850903 53.307854 0
      vertex 5.8028464 53.069405 2
      vertex 4.850903 53.307854 2
    endloop
  endfacet
  facet normal -0.24297988 -0.9700313 0
    outer loop
      vertex 5.8028464 53.069405 2
      vertex 4.850903 53.307854 0
      vertex 5.8028464 53.069405 0
    endloop
  endfacet
  facet normal -0.4275546 -0.9039895 0
    outer loop
      vertex 6.726834 52.738796 0
      vertex 7.6139674 52.319214 2
      vertex 6.726834 52.738796 2
    endloop
  endfacet
  facet normal -0.4275546 -0.9039895 0
    outer loop
      vertex 7.6139674 52.319214 2
      vertex 6.726834 52.738796 0
      vertex 7.6139674 52.319214 0
    endloop
  endfacet
  facet normal -0.14672941 -0.9891767 0
    outer loop
      vertex 3.8801713 53.451847 0
      vertex 4.850903 53.307854 2
      vertex 3.8801713 53.451847 2
    endloop
  endfacet
  facet normal -0.14672941 -0.9891767 0
    outer loop
      vertex 4.850903 53.307854 2
      vertex 3.8801713 53.451847 0
      vertex 4.850903 53.307854 0
    endloop
  endfacet
  facet normal -0.970031 0.24298103 0
    outer loop
      vertex 12.469402 40.597153 0
      vertex 12.707852 41.549095 2
      vertex 12.707852 41.549095 0
    endloop
  endfacet
  facet normal -0.970031 0.24298103 0
    outer loop
      vertex 12.707852 41.549095 2
      vertex 12.469402 40.597153 0
      vertex 12.469402 40.597153 2
    endloop
  endfacet
  facet normal -0.94154435 -0.33688903 0
    outer loop
      vertex 12.469402 46.402847 0
      vertex 12.138795 47.326836 2
      vertex 12.138795 47.326836 0
    endloop
  endfacet
  facet normal -0.94154435 -0.33688903 0
    outer loop
      vertex 12.138795 47.326836 2
      vertex 12.469402 46.402847 0
      vertex 12.469402 46.402847 2
    endloop
  endfacet
  facet normal -0.4275546 0.9039895 0
    outer loop
      vertex 7.6139674 34.680786 0
      vertex 6.726834 34.261204 2
      vertex 7.6139674 34.680786 2
    endloop
  endfacet
  facet normal -0.4275546 0.9039895 0
    outer loop
      vertex 6.726834 34.261204 2
      vertex 7.6139674 34.680786 0
      vertex 6.726834 34.261204 0
    endloop
  endfacet
  facet normal -0.9891766 -0.14673008 0
    outer loop
      vertex 12.851847 44.48017 0
      vertex 12.707852 45.450905 2
      vertex 12.707852 45.450905 0
    endloop
  endfacet
  facet normal -0.9891766 -0.14673008 0
    outer loop
      vertex 12.707852 45.450905 2
      vertex 12.851847 44.48017 0
      vertex 12.851847 44.48017 2
    endloop
  endfacet
  facet normal -0.6715575 0.74095243 0
    outer loop
      vertex 9.971067 36.428932 0
      vertex 9.243932 35.769897 2
      vertex 9.971067 36.428932 2
    endloop
  endfacet
  facet normal -0.6715575 0.74095243 0
    outer loop
      vertex 9.243932 35.769897 2
      vertex 9.971067 36.428932 0
      vertex 9.243932 35.769897 0
    endloop
  endfacet
  facet normal -0.99879545 0.049067877 0
    outer loop
      vertex 12.851847 42.51983 0
      vertex 12.9 43.5 2
      vertex 12.9 43.5 0
    endloop
  endfacet
  facet normal -0.99879545 0.049067877 0
    outer loop
      vertex 12.9 43.5 2
      vertex 12.851847 42.51983 0
      vertex 12.851847 42.51983 2
    endloop
  endfacet
  facet normal -0.33689022 0.94154394 0
    outer loop
      vertex 6.726834 34.261204 0
      vertex 5.8028464 33.930595 2
      vertex 6.726834 34.261204 2
    endloop
  endfacet
  facet normal -0.33689022 0.94154394 0
    outer loop
      vertex 5.8028464 33.930595 2
      vertex 6.726834 34.261204 0
      vertex 5.8028464 33.930595 0
    endloop
  endfacet
  facet normal -0.24297988 0.9700313 0
    outer loop
      vertex 5.8028464 33.930595 0
      vertex 4.850903 33.692146 2
      vertex 5.8028464 33.930595 2
    endloop
  endfacet
  facet normal -0.24297988 0.9700313 0
    outer loop
      vertex 4.850903 33.692146 2
      vertex 5.8028464 33.930595 0
      vertex 4.850903 33.692146 0
    endloop
  endfacet
  facet normal -0.9891766 0.14673008 0
    outer loop
      vertex 12.707852 41.549095 0
      vertex 12.851847 42.51983 2
      vertex 12.851847 42.51983 0
    endloop
  endfacet
  facet normal -0.9891766 0.14673008 0
    outer loop
      vertex 12.851847 42.51983 2
      vertex 12.707852 41.549095 0
      vertex 12.707852 41.549095 2
    endloop
  endfacet
  facet normal -0.51410306 0.8577284 0
    outer loop
      vertex 8.455702 35.185303 0
      vertex 7.6139674 34.680786 2
      vertex 8.455702 35.185303 2
    endloop
  endfacet
  facet normal -0.51410306 0.8577284 0
    outer loop
      vertex 7.6139674 34.680786 2
      vertex 8.455702 35.185303 0
      vertex 7.6139674 34.680786 0
    endloop
  endfacet
  facet normal -1 0 0
    outer loop
      vertex 94 3 2
      vertex 94 69 26
      vertex 94 69 2
    endloop
  endfacet
  facet normal -1 0 0
    outer loop
      vertex 94 69 26
      vertex 94 3 2
      vertex 94 3 26
    endloop
  endfacet
  facet normal 0 0 1
    outer loop
      vertex 12.851847 42.51983 2
      vertex 94 69 2
      vertex 12.9 43.5 2
    endloop
  endfacet
  facet normal 0 0 1
    outer loop
      vertex 94 69 2
      vertex 12.851847 44.48017 2
      vertex 12.9 43.5 2
    endloop
  endfacet
  facet normal 0 0 1
    outer loop
      vertex 94 69 2
      vertex 12.707852 45.450905 2
      vertex 12.851847 44.48017 2
    endloop
  endfacet
  facet normal 0 0 1
    outer loop
      vertex 94 69 2
      vertex 12.469402 46.402847 2
      vertex 12.707852 45.450905 2
    endloop
  endfacet
  facet normal 0 0 1
    outer loop
      vertex 94 69 2
      vertex 12.138795 47.326836 2
      vertex 12.469402 46.402847 2
    endloop
  endfacet
  facet normal 0 0 1
    outer loop
      vertex 94 69 2
      vertex 11.719212 48.213966 2
      vertex 12.138795 47.326836 2
    endloop
  endfacet
  facet normal 0 0 1
    outer loop
      vertex 94 69 2
      vertex 11.214695 49.055702 2
      vertex 11.719212 48.213966 2
    endloop
  endfacet
  facet normal 0 0 1
    outer loop
      vertex 3 69 2
      vertex 11.214695 49.055702 2
      vertex 94 69 2
    endloop
  endfacet
  facet normal 0 0 1
    outer loop
      vertex 11.214695 49.055702 2
      vertex 3 69 2
      vertex 10.630104 49.843933 2
    endloop
  endfacet
  facet normal 0 0 1
    outer loop
      vertex 10.630104 49.843933 2
      vertex 3 69 2
      vertex 9.971067 50.571068 2
    endloop
  endfacet
  facet normal 0 0 1
    outer loop
      vertex 9.971067 50.571068 2
      vertex 3 69 2
      vertex 9.243932 51.230106 2
    endloop
  endfacet
  facet normal 0 0 1
    outer loop
      vertex 9.243932 51.230106 2
      vertex 3 69 2
      vertex 8.455702 51.814697 2
    endloop
  endfacet
  facet normal 0 0 1
    outer loop
      vertex 8.455702 51.814697 2
      vertex 3 69 2
      vertex 7.6139674 52.319214 2
    endloop
  endfacet
  facet normal 0 0 1
    outer loop
      vertex 7.6139674 52.319214 2
      vertex 3 69 2
      vertex 6.726834 52.738796 2
    endloop
  endfacet
  facet normal 0 0 1
    outer loop
      vertex 6.726834 52.738796 2
      vertex 3 69 2
      vertex 5.8028464 53.069405 2
    endloop
  endfacet
  facet normal 0 0 1
    outer loop
      vertex 5.8028464 53.069405 2
      vertex 3 69 2
      vertex 4.850903 53.307854 2
    endloop
  endfacet
  facet normal 0 0 1
    outer loop
      vertex 4.850903 53.307854 2
      vertex 3 69 2
      vertex 3.8801713 53.451847 2
    endloop
  endfacet
  facet normal 0 0 1
    outer loop
      vertex 3.8801713 53.451847 2
      vertex 3 69 2
      vertex 3.4 53.5 2
    endloop
  endfacet
  facet normal 0 0 1
    outer loop
      vertex 3.4 53.5 2
      vertex 3 69 2
      vertex 3 53.5 2
    endloop
  endfacet
  facet normal 0 0 1
    outer loop
      vertex 94 69 2
      vertex 12.851847 42.51983 2
      vertex 94 3 2
    endloop
  endfacet
  facet normal 0 0 1
    outer loop
      vertex 12.707852 41.549095 2
      vertex 94 3 2
      vertex 12.851847 42.51983 2
    endloop
  endfacet
  facet normal 0 0 1
    outer loop
      vertex 12.469402 40.597153 2
      vertex 94 3 2
      vertex 12.707852 41.549095 2
    endloop
  endfacet
  facet normal 0 0 1
    outer loop
      vertex 12.138795 39.673164 2
      vertex 94 3 2
      vertex 12.469402 40.597153 2
    endloop
  endfacet
  facet normal 0 0 1
    outer loop
      vertex 11.719212 38.786034 2
      vertex 94 3 2
      vertex 12.138795 39.673164 2
    endloop
  endfacet
  facet normal 0 0 1
    outer loop
      vertex 11.214695 37.944298 2
      vertex 94 3 2
      vertex 11.719212 38.786034 2
    endloop
  endfacet
  facet normal 0 0 1
    outer loop
      vertex 3 3 2
      vertex 11.214695 37.944298 2
      vertex 10.630104 37.156067 2
    endloop
  endfacet
  facet normal 0 0 1
    outer loop
      vertex 3 3 2
      vertex 10.630104 37.156067 2
      vertex 9.971067 36.428932 2
    endloop
  endfacet
  facet normal 0 0 1
    outer loop
      vertex 3 3 2
      vertex 9.971067 36.428932 2
      vertex 9.243932 35.769897 2
    endloop
  endfacet
  facet normal 0 0 1
    outer loop
      vertex 3 3 2
      vertex 9.243932 35.769897 2
      vertex 8.455702 35.185303 2
    endloop
  endfacet
  facet normal 0 0 1
    outer loop
      vertex 3 3 2
      vertex 8.455702 35.185303 2
      vertex 7.6139674 34.680786 2
    endloop
  endfacet
  facet normal 0 0 1
    outer loop
      vertex 3 3 2
      vertex 7.6139674 34.680786 2
      vertex 6.726834 34.261204 2
    endloop
  endfacet
  facet normal 0 0 1
    outer loop
      vertex 3 3 2
      vertex 6.726834 34.261204 2
      vertex 5.8028464 33.930595 2
    endloop
  endfacet
  facet normal 0 0 1
    outer loop
      vertex 3 3 2
      vertex 5.8028464 33.930595 2
      vertex 4.850903 33.692146 2
    endloop
  endfacet
  facet normal 0 0 1
    outer loop
      vertex 3 3 2
      vertex 4.850903 33.692146 2
      vertex 3.8801713 33.548153 2
    endloop
  endfacet
  facet normal 0 0 1
    outer loop
      vertex 3.4 33.5 2
      vertex 3.8801713 33.548153 2
      vertex 3.4 33.524563 2
    endloop
  endfacet
  facet normal 0 0 1
    outer loop
      vertex 3 3 2
      vertex 3.8801713 33.548153 2
      vertex 3.4 33.5 2
    endloop
  endfacet
  facet normal 0 0 1
    outer loop
      vertex 3 3 2
      vertex 3.4 33.5 2
      vertex 3 33.5 2
    endloop
  endfacet
  facet normal 0 0 1
    outer loop
      vertex 11.214695 37.944298 2
      vertex 3 3 2
      vertex 94 3 2
    endloop
  endfacet
  facet normal 0 0 1
    outer loop
      vertex 3.8801713 53.451847 2
      vertex 3.4 53.5 2
      vertex 3.4 53.475437 2
    endloop
  endfacet
  facet normal 1 0 0
    outer loop
      vertex 3 30.601524 26
      vertex 3 33.5 23.009998
      vertex 3 33.442356 23.59527
    endloop
  endfacet
  facet normal 1 0 0
    outer loop
      vertex 3 30.601524 26
      vertex 3 33.442356 23.59527
      vertex 3 33.271637 24.15805
    endloop
  endfacet
  facet normal 1 0 0
    outer loop
      vertex 3 30.601524 26
      vertex 3 33.271637 24.15805
      vertex 3 32.994408 24.67671
    endloop
  endfacet
  facet normal 1 0 0
    outer loop
      vertex 3 30.601524 26
      vertex 3 32.994408 24.67671
      vertex 3 32.621323 25.13132
    endloop
  endfacet
  facet normal 1 0 0
    outer loop
      vertex 3 30.601524 26
      vertex 3 32.621323 25.13132
      vertex 3 32.16671 25.50441
    endloop
  endfacet
  facet normal 1 0 0
    outer loop
      vertex 3 30.601524 26
      vertex 3 32.16671 25.50441
      vertex 3 31.64805 25.78164
    endloop
  endfacet
  facet normal 1 0 0
    outer loop
      vertex 3 30.601524 26
      vertex 3 31.64805 25.78164
      vertex 3 31.085272 25.952354
    endloop
  endfacet
  facet normal 1 0 0
    outer loop
      vertex 3 33.5 23.009998
      vertex 3 30.601524 26
      vertex 3 33.5 2
    endloop
  endfacet
  facet normal 1 0 0
    outer loop
      vertex 3 3 2
      vertex 3 30.601524 26
      vertex 3 3 26
    endloop
  endfacet
  facet normal 1 0 0
    outer loop
      vertex 3 30.601524 26
      vertex 3 3 2
      vertex 3 33.5 2
    endloop
  endfacet
  facet normal 1 0 0
    outer loop
      vertex 3 53.5 23.009998
      vertex 3 69 26
      vertex 3 56.398476 26
    endloop
  endfacet
  facet normal 1 0 0
    outer loop
      vertex 3 55.35195 25.78164
      vertex 3 56.398476 26
      vertex 3 55.914726 25.952354
    endloop
  endfacet
  facet normal 1 0 0
    outer loop
      vertex 3 56.398476 26
      vertex 3 55.35195 25.78164
      vertex 3 53.5 23.009998
    endloop
  endfacet
  facet normal 1 0 0
    outer loop
      vertex 3 53.5 23.009998
      vertex 3 55.35195 25.78164
      vertex 3 54.83329 25.50441
    endloop
  endfacet
  facet normal 1 0 0
    outer loop
      vertex 3 53.5 23.009998
      vertex 3 54.83329 25.50441
      vertex 3 54.378677 25.13132
    endloop
  endfacet
  facet normal 1 0 0
    outer loop
      vertex 3 53.5 23.009998
      vertex 3 54.378677 25.13132
      vertex 3 54.005592 24.67671
    endloop
  endfacet
  facet normal 1 0 0
    outer loop
      vertex 3 53.5 23.009998
      vertex 3 54.005592 24.67671
      vertex 3 53.728363 24.15805
    endloop
  endfacet
  facet normal 1 0 0
    outer loop
      vertex 3 53.5 23.009998
      vertex 3 53.728363 24.15805
      vertex 3 53.557644 23.59527
    endloop
  endfacet
  facet normal 1 0 0
    outer loop
      vertex 3 69 26
      vertex 3 53.5 23.009998
      vertex 3 69 2
    endloop
  endfacet
  facet normal 1 0 0
    outer loop
      vertex 3 69 2
      vertex 3 53.5 23.009998
      vertex 3 53.5 2
    endloop
  endfacet
  facet normal -0.70710677 0.70710677 0
    outer loop
      vertex 0.40192413 70.5 26
      vertex 1.5 71.598076 0
      vertex 0.40192413 70.5 0
    endloop
  endfacet
  facet normal -0.70710677 0.70710677 0
    outer loop
      vertex 1.5 71.598076 0
      vertex 0.40192413 70.5 26
      vertex 1.5 71.598076 29
    endloop
  endfacet
  facet normal -0.70710677 0.70710677 0
    outer loop
      vertex 0.40192413 70.5 27
      vertex 1.5 71.598076 29
      vertex 0.40192413 70.5 26
    endloop
  endfacet
  facet normal -0.70710677 0.70710677 0
    outer loop
      vertex 1.5 71.598076 29
      vertex 0.40192413 70.5 27
      vertex 0.40192413 70.5 29
    endloop
  endfacet
  facet normal 1 0 0
    outer loop
      vertex 129 3 29
      vertex 129 69 0
      vertex 129 69 29
    endloop
  endfacet
  facet normal 1 0 0
    outer loop
      vertex 129 69 0
      vertex 129 3 29
      vertex 129 3 0
    endloop
  endfacet
  facet normal 0.965927 0.25881466 0
    outer loop
      vertex 129 69 29
      vertex 128.59808 70.5 0
      vertex 128.59808 70.5 29
    endloop
  endfacet
  facet normal 0.965927 0.25881466 0
    outer loop
      vertex 128.59808 70.5 0
      vertex 129 69 29
      vertex 129 69 0
    endloop
  endfacet
  facet normal 0.25881925 0.96592575 0
    outer loop
      vertex 127.5 71.598076 0
      vertex 126 72 29
      vertex 127.5 71.598076 29
    endloop
  endfacet
  facet normal 0.25881925 0.96592575 0
    outer loop
      vertex 126 72 29
      vertex 127.5 71.598076 0
      vertex 126 72 0
    endloop
  endfacet
  facet normal 0 1 0
    outer loop
      vertex 126 72 0
      vertex 3 72 29
      vertex 126 72 29
    endloop
  endfacet
  facet normal 0 1 0
    outer loop
      vertex 3 72 29
      vertex 126 72 0
      vertex 3 72 0
    endloop
  endfacet
  facet normal 0 0 1
    outer loop
      vertex 126.2 69 29
      vertex 129 69 29
      vertex 128.59808 70.5 29
    endloop
  endfacet
  facet normal 0 0 1
    outer loop
      vertex 129 69 29
      vertex 126.2 69 29
      vertex 129 3 29
    endloop
  endfacet
  facet normal 0 0 1
    outer loop
      vertex 126.2 69 29
      vertex 128.59808 70.5 29
      vertex 127.5 71.598076 29
    endloop
  endfacet
  facet normal 0 0 1
    outer loop
      vertex 126.2 3 29
      vertex 129 3 29
      vertex 126.2 69 29
    endloop
  endfacet
  facet normal 0 0 1
    outer loop
      vertex 129 3 29
      vertex 126.2 3 29
      vertex 128.59808 1.5 29
    endloop
  endfacet
  facet normal 0 0 1
    outer loop
      vertex 126 72 29
      vertex 126.2 69 29
      vertex 127.5 71.598076 29
    endloop
  endfacet
  facet normal 0 0 1
    outer loop
      vertex 3 72 29
      vertex 126.2 69 29
      vertex 126 72 29
    endloop
  endfacet
  facet normal 0 0 1
    outer loop
      vertex 0 69 29
      vertex 3 72 29
      vertex 1.5 71.598076 29
    endloop
  endfacet
  facet normal 0 0 1
    outer loop
      vertex 0 69 29
      vertex 1.5 71.598076 29
      vertex 0.40192413 70.5 29
    endloop
  endfacet
  facet normal 0 0 1
    outer loop
      vertex 3 72 29
      vertex 0 69 29
      vertex 126.2 69 29
    endloop
  endfacet
  facet normal 0 0 1
    outer loop
      vertex 128.59808 1.5 29
      vertex 126.2 3 29
      vertex 127.5 0.40192413 29
    endloop
  endfacet
  facet normal 0 0 1
    outer loop
      vertex 126.2 3 29
      vertex 126 0 29
      vertex 127.5 0.40192413 29
    endloop
  endfacet
  facet normal 0 0 1
    outer loop
      vertex 126.2 3 29
      vertex 3 0 29
      vertex 126 0 29
    endloop
  endfacet
  facet normal 0 0 1
    outer loop
      vertex 0 3 29
      vertex 3 0 29
      vertex 126.2 3 29
    endloop
  endfacet
  facet normal 0 0 1
    outer loop
      vertex 3 0 29
      vertex 0 3 29
      vertex 1.5 0.40192413 29
    endloop
  endfacet
  facet normal 0 0 1
    outer loop
      vertex 1.5 0.40192413 29
      vertex 0 3 29
      vertex 0.40192413 1.5 29
    endloop
  endfacet
  facet normal -1 0 0
    outer loop
      vertex 0 30.601524 26
      vertex 0 32.56024 25.181448
      vertex 0 32.56024 0
    endloop
  endfacet
  facet normal -1 0 0
    outer loop
      vertex 0 32.56024 25.181448
      vertex 0 30.601524 26
      vertex 0 32.16671 25.50441
    endloop
  endfacet
  facet normal -1 0 0
    outer loop
      vertex 0 32.16671 25.50441
      vertex 0 30.601524 26
      vertex 0 31.64805 25.78164
    endloop
  endfacet
  facet normal -1 0 0
    outer loop
      vertex 0 31.64805 25.78164
      vertex 0 30.601524 26
      vertex 0 31.085272 25.952354
    endloop
  endfacet
  facet normal -1 0 0
    outer loop
      vertex 0 3 0
      vertex 0 30.601524 26
      vertex 0 32.56024 0
    endloop
  endfacet
  facet normal -1 0 0
    outer loop
      vertex 0 30.601524 26
      vertex 0 3 0
      vertex 0 3 26
    endloop
  endfacet
  facet normal -1 0 0
    outer loop
      vertex 0 69 0
      vertex 0 56.398476 26
      vertex 0 69 26
    endloop
  endfacet
  facet normal -1 0 0
    outer loop
      vertex 0 54.43976 0
      vertex 0 56.398476 26
      vertex 0 69 0
    endloop
  endfacet
  facet normal -1 0 0
    outer loop
      vertex 0 55.35195 25.78164
      vertex 0 56.398476 26
      vertex 0 54.43976 25.181448
    endloop
  endfacet
  facet normal -1 0 0
    outer loop
      vertex 0 56.398476 26
      vertex 0 55.35195 25.78164
      vertex 0 55.914726 25.952354
    endloop
  endfacet
  facet normal -1 0 0
    outer loop
      vertex 0 56.398476 26
      vertex 0 54.43976 0
      vertex 0 54.43976 25.181448
    endloop
  endfacet
  facet normal -1 0 0
    outer loop
      vertex 0 55.35195 25.78164
      vertex 0 54.43976 25.181448
      vertex 0 54.83329 25.50441
    endloop
  endfacet
  facet normal 0.7071043 -0.7071092 0
    outer loop
      vertex 127.5 0.40192413 0
      vertex 128.59808 1.5 29
      vertex 127.5 0.40192413 29
    endloop
  endfacet
  facet normal 0.7071043 -0.7071092 0
    outer loop
      vertex 128.59808 1.5 29
      vertex 127.5 0.40192413 0
      vertex 128.59808 1.5 0
    endloop
  endfacet
  facet normal 0 -1 0
    outer loop
      vertex 3 0 0
      vertex 126 0 29
      vertex 3 0 29
    endloop
  endfacet
  facet normal 0 -1 0
    outer loop
      vertex 126 0 29
      vertex 3 0 0
      vertex 126 0 0
    endloop
  endfacet
  facet normal 0.965927 -0.25881466 0
    outer loop
      vertex 128.59808 1.5 29
      vertex 129 3 0
      vertex 129 3 29
    endloop
  endfacet
  facet normal 0.965927 -0.25881466 0
    outer loop
      vertex 129 3 0
      vertex 128.59808 1.5 29
      vertex 128.59808 1.5 0
    endloop
  endfacet
  facet normal 0.25881925 -0.96592575 0
    outer loop
      vertex 126 0 0
      vertex 127.5 0.40192413 29
      vertex 126 0 29
    endloop
  endfacet
  facet normal 0.25881925 -0.96592575 0
    outer loop
      vertex 127.5 0.40192413 29
      vertex 126 0 0
      vertex 127.5 0.40192413 0
    endloop
  endfacet
  facet normal -0.96592575 0.25881925 0
    outer loop
      vertex 0 69 0
      vertex 0.40192413 70.5 26
      vertex 0.40192413 70.5 0
    endloop
  endfacet
  facet normal -0.96592575 0.25881925 0
    outer loop
      vertex 0.40192413 70.5 26
      vertex 0 69 0
      vertex 0 69 26
    endloop
  endfacet
  facet normal -0.96592575 0.25881922 0
    outer loop
      vertex 0.26794943 70 27.5
      vertex 0.40192413 70.5 29
      vertex 0.40192413 70.5 27
    endloop
  endfacet
  facet normal -0.96592575 0.25881925 0
    outer loop
      vertex 0 69 29
      vertex 0.26794943 70 27.5
      vertex 0 69 27.5
    endloop
  endfacet
  facet normal -0.96592575 0.25881925 -6.3970735e-9
    outer loop
      vertex 0.26794943 70 27.5
      vertex 0 69 29
      vertex 0.40192413 70.5 29
    endloop
  endfacet
  facet normal -0.25881925 -0.96592575 0
    outer loop
      vertex 1.5 0.40192413 0
      vertex 3 0 29
      vertex 1.5 0.40192413 29
    endloop
  endfacet
  facet normal -0.25881925 -0.96592575 0
    outer loop
      vertex 3 0 29
      vertex 1.5 0.40192413 0
      vertex 3 0 0
    endloop
  endfacet
  facet normal -0.25881925 0.96592575 0
    outer loop
      vertex 3 72 0
      vertex 1.5 71.598076 29
      vertex 3 72 29
    endloop
  endfacet
  facet normal -0.25881925 0.96592575 0
    outer loop
      vertex 1.5 71.598076 29
      vertex 3 72 0
      vertex 1.5 71.598076 0
    endloop
  endfacet
  facet normal -0.96592575 -0.25881925 0
    outer loop
      vertex 0.40192413 1.5 0
      vertex 0 3 26
      vertex 0 3 0
    endloop
  endfacet
  facet normal -0.96592575 -0.25881925 0
    outer loop
      vertex 0 3 26
      vertex 0.40192413 1.5 0
      vertex 0.40192413 1.5 26
    endloop
  endfacet
  facet normal -0.96592575 -0.25881925 0
    outer loop
      vertex 0.26794943 2 27.5
      vertex 0 3 29
      vertex 0 3 27.5
    endloop
  endfacet
  facet normal -0.96592575 -0.25881922 0
    outer loop
      vertex 0.40192413 1.5 29
      vertex 0.26794943 2 27.5
      vertex 0.40192413 1.5 27
    endloop
  endfacet
  facet normal -0.96592575 -0.25881925 -6.3970735e-9
    outer loop
      vertex 0.26794943 2 27.5
      vertex 0.40192413 1.5 29
      vertex 0 3 29
    endloop
  endfacet
  facet normal 0.7071043 0.7071092 0
    outer loop
      vertex 128.59808 70.5 0
      vertex 127.5 71.598076 29
      vertex 128.59808 70.5 29
    endloop
  endfacet
  facet normal 0.7071043 0.7071092 0
    outer loop
      vertex 127.5 71.598076 29
      vertex 128.59808 70.5 0
      vertex 127.5 71.598076 0
    endloop
  endfacet
  facet normal -0.70710677 -0.70710677 0
    outer loop
      vertex 1.5 0.40192413 0
      vertex 0.40192413 1.5 26
      vertex 0.40192413 1.5 0
    endloop
  endfacet
  facet normal -0.70710677 -0.70710677 0
    outer loop
      vertex 1.5 0.40192413 29
      vertex 0.40192413 1.5 26
      vertex 1.5 0.40192413 0
    endloop
  endfacet
  facet normal -0.70710677 -0.70710677 0
    outer loop
      vertex 0.40192413 1.5 26
      vertex 1.5 0.40192413 29
      vertex 0.40192413 1.5 27
    endloop
  endfacet
  facet normal -0.70710677 -0.70710677 0
    outer loop
      vertex 0.40192413 1.5 27
      vertex 1.5 0.40192413 29
      vertex 0.40192413 1.5 29
    endloop
  endfacet
  facet normal 0 0 -1
    outer loop
      vertex 126 0 0
      vertex 129 3 0
      vertex 128.59808 1.5 0
    endloop
  endfacet
  facet normal 0 0 -1
    outer loop
      vertex 129 3 0
      vertex 126 0 0
      vertex 129 69 0
    endloop
  endfacet
  facet normal 0 0 -1
    outer loop
      vertex 126 0 0
      vertex 128.59808 1.5 0
      vertex 127.5 0.40192413 0
    endloop
  endfacet
  facet normal 0 0 -1
    outer loop
      vertex 126 72 0
      vertex 129 69 0
      vertex 126 0 0
    endloop
  endfacet
  facet normal 0 0 -1
    outer loop
      vertex 129 69 0
      vertex 126 72 0
      vertex 128.59808 70.5 0
    endloop
  endfacet
  facet normal 0 0 -1
    outer loop
      vertex 128.59808 70.5 0
      vertex 126 72 0
      vertex 127.5 71.598076 0
    endloop
  endfacet
  facet normal 0 0 -1
    outer loop
      vertex 12.851847 42.51983 0
      vertex 126 72 0
      vertex 126 0 0
    endloop
  endfacet
  facet normal 0 0 -1
    outer loop
      vertex 126 72 0
      vertex 12.851847 42.51983 0
      vertex 12.9 43.5 0
    endloop
  endfacet
  facet normal 0 0 -1
    outer loop
      vertex 126 0 0
      vertex 12.707852 41.549095 0
      vertex 12.851847 42.51983 0
    endloop
  endfacet
  facet normal 0 0 -1
    outer loop
      vertex 126 0 0
      vertex 12.469402 40.597153 0
      vertex 12.707852 41.549095 0
    endloop
  endfacet
  facet normal 0 0 -1
    outer loop
      vertex 126 0 0
      vertex 12.138795 39.673164 0
      vertex 12.469402 40.597153 0
    endloop
  endfacet
  facet normal 0 0 -1
    outer loop
      vertex 126 0 0
      vertex 11.719212 38.786034 0
      vertex 12.138795 39.673164 0
    endloop
  endfacet
  facet normal 0 0 -1
    outer loop
      vertex 126 0 0
      vertex 11.214695 37.944298 0
      vertex 11.719212 38.786034 0
    endloop
  endfacet
  facet normal 0 0 -1
    outer loop
      vertex 3 0 0
      vertex 11.214695 37.944298 0
      vertex 126 0 0
    endloop
  endfacet
  facet normal 0 0 -1
    outer loop
      vertex 11.214695 37.944298 0
      vertex 3 0 0
      vertex 10.630104 37.156067 0
    endloop
  endfacet
  facet normal 0 0 -1
    outer loop
      vertex 10.630104 37.156067 0
      vertex 3 0 0
      vertex 9.971067 36.428932 0
    endloop
  endfacet
  facet normal 0 0 -1
    outer loop
      vertex 9.971067 36.428932 0
      vertex 3 0 0
      vertex 9.243932 35.769897 0
    endloop
  endfacet
  facet normal 0 0 -1
    outer loop
      vertex 9.243932 35.769897 0
      vertex 3 0 0
      vertex 8.455702 35.185303 0
    endloop
  endfacet
  facet normal 0 0 -1
    outer loop
      vertex 8.455702 35.185303 0
      vertex 3 0 0
      vertex 7.6139674 34.680786 0
    endloop
  endfacet
  facet normal 0 0 -1
    outer loop
      vertex 7.6139674 34.680786 0
      vertex 3 0 0
      vertex 6.726834 34.261204 0
    endloop
  endfacet
  facet normal 0 0 -1
    outer loop
      vertex 0 3 0
      vertex 6.726834 34.261204 0
      vertex 3 0 0
    endloop
  endfacet
  facet normal 0 0 -1
    outer loop
      vertex 6.726834 34.261204 0
      vertex 0 3 0
      vertex 5.8028464 33.930595 0
    endloop
  endfacet
  facet normal 0 0 -1
    outer loop
      vertex 5.8028464 33.930595 0
      vertex 0 3 0
      vertex 4.850903 33.692146 0
    endloop
  endfacet
  facet normal 0 0 -1
    outer loop
      vertex 4.850903 33.692146 0
      vertex 0 3 0
      vertex 3.8801713 33.548153 0
    endloop
  endfacet
  facet normal 0 0 -1
    outer loop
      vertex 0 3 0
      vertex 3 0 0
      vertex 1.5 0.40192413 0
    endloop
  endfacet
  facet normal 0 0 -1
    outer loop
      vertex 0 32.56024 0
      vertex 3.8801713 33.548153 0
      vertex 0 3 0
    endloop
  endfacet
  facet normal 0 0 -1
    outer loop
      vertex 3.8801713 33.548153 0
      vertex 0 32.56024 0
      vertex 3.4 33.5 0
    endloop
  endfacet
  facet normal 0 0 -1
    outer loop
      vertex 3.4 33.5 0
      vertex 0 32.56024 0
      vertex 1.39 33.5 0
    endloop
  endfacet
  facet normal 0 0 -1
    outer loop
      vertex 1.39 33.5 0
      vertex 0 32.56024 0
      vertex 1.097365 33.471176 0
    endloop
  endfacet
  facet normal 0 0 -1
    outer loop
      vertex 0 3 0
      vertex 1.5 0.40192413 0
      vertex 0.40192413 1.5 0
    endloop
  endfacet
  facet normal 0 0 -1
    outer loop
      vertex 1.097365 33.471176 0
      vertex 0 32.56024 0
      vertex 0.8159758 33.38582 0
    endloop
  endfacet
  facet normal 0 0 -1
    outer loop
      vertex 0.8159758 33.38582 0
      vertex 0 32.56024 0
      vertex 0.55664504 33.247204 0
    endloop
  endfacet
  facet normal 0 0 -1
    outer loop
      vertex 0.55664504 33.247204 0
      vertex 0 32.56024 0
      vertex 0.32934058 33.06066 0
    endloop
  endfacet
  facet normal 0 0 -1
    outer loop
      vertex 0.32934058 33.06066 0
      vertex 0 32.56024 0
      vertex 0.14279617 32.833355 0
    endloop
  endfacet
  facet normal 0 0 -1
    outer loop
      vertex 0.14279617 32.833355 0
      vertex 0 32.56024 0
      vertex 0.0041815187 32.574024 0
    endloop
  endfacet
  facet normal 0 0 -1
    outer loop
      vertex 12.851847 44.48017 0
      vertex 126 72 0
      vertex 12.9 43.5 0
    endloop
  endfacet
  facet normal 0 0 -1
    outer loop
      vertex 12.707852 45.450905 0
      vertex 126 72 0
      vertex 12.851847 44.48017 0
    endloop
  endfacet
  facet normal 0 0 -1
    outer loop
      vertex 12.469402 46.402847 0
      vertex 126 72 0
      vertex 12.707852 45.450905 0
    endloop
  endfacet
  facet normal 0 0 -1
    outer loop
      vertex 12.138795 47.326836 0
      vertex 126 72 0
      vertex 12.469402 46.402847 0
    endloop
  endfacet
  facet normal 0 0 -1
    outer loop
      vertex 11.719212 48.213966 0
      vertex 126 72 0
      vertex 12.138795 47.326836 0
    endloop
  endfacet
  facet normal 0 0 -1
    outer loop
      vertex 11.214695 49.055702 0
      vertex 126 72 0
      vertex 11.719212 48.213966 0
    endloop
  endfacet
  facet normal 0 0 -1
    outer loop
      vertex 3 72 0
      vertex 11.214695 49.055702 0
      vertex 10.630104 49.843933 0
    endloop
  endfacet
  facet normal 0 0 -1
    outer loop
      vertex 3 72 0
      vertex 10.630104 49.843933 0
      vertex 9.971067 50.571068 0
    endloop
  endfacet
  facet normal 0 0 -1
    outer loop
      vertex 3 72 0
      vertex 9.971067 50.571068 0
      vertex 9.243932 51.230106 0
    endloop
  endfacet
  facet normal 0 0 -1
    outer loop
      vertex 3 72 0
      vertex 9.243932 51.230106 0
      vertex 8.455702 51.814697 0
    endloop
  endfacet
  facet normal 0 0 -1
    outer loop
      vertex 3 72 0
      vertex 8.455702 51.814697 0
      vertex 7.6139674 52.319214 0
    endloop
  endfacet
  facet normal 0 0 -1
    outer loop
      vertex 3 72 0
      vertex 7.6139674 52.319214 0
      vertex 6.726834 52.738796 0
    endloop
  endfacet
  facet normal 0 0 -1
    outer loop
      vertex 3 72 0
      vertex 6.726834 52.738796 0
      vertex 5.8028464 53.069405 0
    endloop
  endfacet
  facet normal 0 0 -1
    outer loop
      vertex 0 69 0
      vertex 5.8028464 53.069405 0
      vertex 4.850903 53.307854 0
    endloop
  endfacet
  facet normal 0 0 -1
    outer loop
      vertex 0 69 0
      vertex 4.850903 53.307854 0
      vertex 3.8801713 53.451847 0
    endloop
  endfacet
  facet normal 0 0 -1
    outer loop
      vertex 3.4 53.5 0
      vertex 3.8801713 53.451847 0
      vertex 3.4 53.475437 0
    endloop
  endfacet
  facet normal 0 0 -1
    outer loop
      vertex 0 69 0
      vertex 3.8801713 53.451847 0
      vertex 3.4 53.5 0
    endloop
  endfacet
  facet normal 0 0 -1
    outer loop
      vertex 11.214695 49.055702 0
      vertex 3 72 0
      vertex 126 72 0
    endloop
  endfacet
  facet normal 0 0 -1
    outer loop
      vertex 5.8028464 53.069405 0
      vertex 0 69 0
      vertex 3 72 0
    endloop
  endfacet
  facet normal 0 0 -1
    outer loop
      vertex 0 54.43976 0
      vertex 3.4 53.5 0
      vertex 1.39 53.5 0
    endloop
  endfacet
  facet normal 0 0 -1
    outer loop
      vertex 0 54.43976 0
      vertex 1.39 53.5 0
      vertex 1.097365 53.528824 0
    endloop
  endfacet
  facet normal 0 0 -1
    outer loop
      vertex 0 54.43976 0
      vertex 1.097365 53.528824 0
      vertex 0.8159758 53.61418 0
    endloop
  endfacet
  facet normal 0 0 -1
    outer loop
      vertex 0 54.43976 0
      vertex 0.8159758 53.61418 0
      vertex 0.55664504 53.752796 0
    endloop
  endfacet
  facet normal 0 0 -1
    outer loop
      vertex 3 72 0
      vertex 0 69 0
      vertex 1.5 71.598076 0
    endloop
  endfacet
  facet normal 0 0 -1
    outer loop
      vertex 0 54.43976 0
      vertex 0.55664504 53.752796 0
      vertex 0.32934058 53.93934 0
    endloop
  endfacet
  facet normal 0 0 -1
    outer loop
      vertex 0 54.43976 0
      vertex 0.32934058 53.93934 0
      vertex 0.14279617 54.166645 0
    endloop
  endfacet
  facet normal 0 0 -1
    outer loop
      vertex 0 54.43976 0
      vertex 0.14279617 54.166645 0
      vertex 0.0041815187 54.425976 0
    endloop
  endfacet
  facet normal 0 0 -1
    outer loop
      vertex 3.4 53.5 0
      vertex 0 54.43976 0
      vertex 0 69 0
    endloop
  endfacet
  facet normal 0 0 -1
    outer loop
      vertex 1.5 71.598076 0
      vertex 0 69 0
      vertex 0.40192413 70.5 0
    endloop
  endfacet
  facet normal 0 0 -1
    outer loop
      vertex 3.8801713 33.548153 0
      vertex 3.4 33.5 0
      vertex 3.4 33.524563 0
    endloop
  endfacet
endsolid OpenSCAD_Model
