solid OpenSCAD_Model
  facet normal 0 -1 0
    outer loop
      vertex 1.8000008 95 71.5
      vertex 53.6 95 73
      vertex 1.8000008 95 73
    endloop
  endfacet
  facet normal 0 -1 0
    outer loop
      vertex 53.6 95 73
      vertex 1.8000008 95 71.5
      vertex 53.6 95 71.5
    endloop
  endfacet
  facet normal 0 -1 0
    outer loop
      vertex 21 95 2
      vertex 51.6 95 70
      vertex 21 95 70
    endloop
  endfacet
  facet normal 0 -1 0
    outer loop
      vertex 51.6 95 70
      vertex 21 95 2
      vertex 51.6 95 2
    endloop
  endfacet
  facet normal 0 0 1
    outer loop
      vertex 2.5000005 25.525055 70
      vertex 1.0000006 25.525055 70
      vertex 2.5000005 9.5 70
    endloop
  endfacet
  facet normal 0 0 1
    outer loop
      vertex 19.5 9.5 70
      vertex 21 25.525055 70
      vertex 19.5 25.525055 70
    endloop
  endfacet
  facet normal 0 0 1
    outer loop
      vertex 51.6 2 70
      vertex 53.6 2 70
      vertex 53.6 25.525055 70
    endloop
  endfacet
  facet normal 0 0 1
    outer loop
      vertex 51.6 2 70
      vertex 53.6 25.525055 70
      vertex 51.6 25.525055 70
    endloop
  endfacet
  facet normal 0 0 1
    outer loop
      vertex 53.6 2 70
      vertex 51.6 2 70
      vertex 53.185787 1 70
    endloop
  endfacet
  facet normal 0 0 1
    outer loop
      vertex 21 2 70
      vertex 53.185787 1 70
      vertex 51.6 2 70
    endloop
  endfacet
  facet normal 0 0 1
    outer loop
      vertex 21 25.525055 70
      vertex 19.5 9.5 70
      vertex 21 2 70
    endloop
  endfacet
  facet normal 0 0 1
    outer loop
      vertex 2.5000005 9.5 70
      vertex 21 2 70
      vertex 19.5 9.5 70
    endloop
  endfacet
  facet normal 0 0 1
    outer loop
      vertex 21 2 70
      vertex 1.0000006 1 70
      vertex 53.185787 1 70
    endloop
  endfacet
  facet normal 0 0 1
    outer loop
      vertex 2.5000005 9.5 70
      vertex 1.0000006 1 70
      vertex 21 2 70
    endloop
  endfacet
  facet normal 0 0 1
    outer loop
      vertex 1.0000006 1 70
      vertex 2.5000005 9.5 70
      vertex 1.0000006 25.525055 70
    endloop
  endfacet
  facet normal 0 0 1
    outer loop
      vertex 53.185787 96 70
      vertex 21 95 70
      vertex 51.6 95 70
    endloop
  endfacet
  facet normal 0 0 1
    outer loop
      vertex 21 95 70
      vertex 19.5 87.5 70
      vertex 21 75.474945 70
    endloop
  endfacet
  facet normal 0 0 1
    outer loop
      vertex 21 95 70
      vertex 2.5000005 87.5 70
      vertex 19.5 87.5 70
    endloop
  endfacet
  facet normal 0 0 1
    outer loop
      vertex 1.0000006 96 70
      vertex 21 95 70
      vertex 53.185787 96 70
    endloop
  endfacet
  facet normal 0 0 1
    outer loop
      vertex 1.0000006 96 70
      vertex 2.5000005 87.5 70
      vertex 21 95 70
    endloop
  endfacet
  facet normal 0 0 1
    outer loop
      vertex 1.0000006 75.474945 70
      vertex 2.5000005 87.5 70
      vertex 1.0000006 96 70
    endloop
  endfacet
  facet normal 0 0 1
    outer loop
      vertex 2.5000005 87.5 70
      vertex 1.0000006 75.474945 70
      vertex 2.5000005 75.474945 70
    endloop
  endfacet
  facet normal 0 0 1
    outer loop
      vertex 51.6 95 70
      vertex 53.6 95 70
      vertex 53.185787 96 70
    endloop
  endfacet
  facet normal 0 0 1
    outer loop
      vertex 53.6 95 70
      vertex 51.6 95 70
      vertex 53.6 75.474945 70
    endloop
  endfacet
  facet normal 0 0 1
    outer loop
      vertex 53.6 75.474945 70
      vertex 51.6 95 70
      vertex 51.6 75.474945 70
    endloop
  endfacet
  facet normal 0 0 1
    outer loop
      vertex 21 75.474945 70
      vertex 19.5 87.5 70
      vertex 19.5 75.474945 70
    endloop
  endfacet
  facet normal 0 1 0
    outer loop
      vertex 53.6 2 71.5
      vertex 1.8000008 2 73
      vertex 53.6 2 73
    endloop
  endfacet
  facet normal 0 1 0
    outer loop
      vertex 1.8000008 2 73
      vertex 53.6 2 71.5
      vertex 1.8000008 2 71.5
    endloop
  endfacet
  facet normal 0 1 0
    outer loop
      vertex 51.6 2 2
      vertex 21 2 70
      vertex 51.6 2 70
    endloop
  endfacet
  facet normal 0 1 0
    outer loop
      vertex 21 2 70
      vertex 51.6 2 2
      vertex 21 2 2
    endloop
  endfacet
  facet normal 1 0 0
    outer loop
      vertex 1.8000008 2 73
      vertex 1.8000008 25.5 71.5
      vertex 1.8000008 25.5 73
    endloop
  endfacet
  facet normal 1 0 0
    outer loop
      vertex 1.8000008 25.5 71.5
      vertex 1.8000008 2 73
      vertex 1.8000008 2 71.5
    endloop
  endfacet
  facet normal 1 0 0
    outer loop
      vertex 1.8000008 75.5 73
      vertex 1.8000008 95 71.5
      vertex 1.8000008 95 73
    endloop
  endfacet
  facet normal 1 0 0
    outer loop
      vertex 1.8000008 95 71.5
      vertex 1.8000008 75.5 73
      vertex 1.8000008 75.5 71.5
    endloop
  endfacet
  facet normal 0 -1 0
    outer loop
      vertex 1.0000006 96 70
      vertex 53.185787 96 71
      vertex 1.0000006 96 71
    endloop
  endfacet
  facet normal 0 -1 0
    outer loop
      vertex 53.185787 96 71
      vertex 1.0000006 96 70
      vertex 53.185787 96 70
    endloop
  endfacet
  facet normal 0 1 0
    outer loop
      vertex 53.185787 1 70
      vertex 1.0000006 1 71
      vertex 53.185787 1 71
    endloop
  endfacet
  facet normal 0 1 0
    outer loop
      vertex 1.0000006 1 71
      vertex 53.185787 1 70
      vertex 1.0000006 1 70
    endloop
  endfacet
  facet normal 0 0 -1
    outer loop
      vertex 53.392895 1.5 71.5
      vertex 1.8000008 2 71.5
      vertex 53.6 2 71.5
    endloop
  endfacet
  facet normal 0 0 -1
    outer loop
      vertex 1.5000006 1.5 71.5
      vertex 1.8000008 2 71.5
      vertex 53.392895 1.5 71.5
    endloop
  endfacet
  facet normal 0 0 -1
    outer loop
      vertex 1.5000006 25.5 71.5
      vertex 1.8000008 2 71.5
      vertex 1.5000006 1.5 71.5
    endloop
  endfacet
  facet normal 0 0 -1
    outer loop
      vertex 1.8000008 2 71.5
      vertex 1.5000006 25.5 71.5
      vertex 1.8000008 25.5 71.5
    endloop
  endfacet
  facet normal 0 0 -1
    outer loop
      vertex 1.8000008 75.5 71.5
      vertex 1.5000006 75.5 71.5
      vertex 1.8000008 95 71.5
    endloop
  endfacet
  facet normal 0 0 -1
    outer loop
      vertex 1.8000008 95 71.5
      vertex 53.392895 95.5 71.5
      vertex 53.6 95 71.5
    endloop
  endfacet
  facet normal 0 0 -1
    outer loop
      vertex 1.8000008 95 71.5
      vertex 1.5000006 95.5 71.5
      vertex 53.392895 95.5 71.5
    endloop
  endfacet
  facet normal 0 0 -1
    outer loop
      vertex 1.5000006 95.5 71.5
      vertex 1.8000008 95 71.5
      vertex 1.5000006 75.5 71.5
    endloop
  endfacet
  facet normal 0 0.70710677 -0.70710677
    outer loop
      vertex 53.185787 1 71
      vertex 1.5000006 1.5 71.5
      vertex 53.392895 1.5 71.5
    endloop
  endfacet
  facet normal 0 0.70710677 -0.70710677
    outer loop
      vertex 1.5000006 1.5 71.5
      vertex 53.185787 1 71
      vertex 1.0000006 1 71
    endloop
  endfacet
  facet normal 1 0 0
    outer loop
      vertex 1.0000006 75.5 70.51
      vertex 1.0000006 96 71
      vertex 1.0000006 75.5 71
    endloop
  endfacet
  facet normal 1 0 0
    outer loop
      vertex 1.0000006 96 71
      vertex 1.0000006 75.5 70.51
      vertex 1.0000006 96 70
    endloop
  endfacet
  facet normal 1 0 0
    outer loop
      vertex 1.0000006 96 70
      vertex 1.0000006 75.5 70.51
      vertex 1.0000006 75.474945 70
    endloop
  endfacet
  facet normal 1 0 0
    outer loop
      vertex 1.0000006 25.5 71
      vertex 1.0000006 1 71
      vertex 1.0000006 25.5 70.51
    endloop
  endfacet
  facet normal 1 0 0
    outer loop
      vertex 1.0000006 1 70
      vertex 1.0000006 25.5 70.51
      vertex 1.0000006 1 71
    endloop
  endfacet
  facet normal 1 0 0
    outer loop
      vertex 1.0000006 25.5 70.51
      vertex 1.0000006 1 70
      vertex 1.0000006 25.525055 70
    endloop
  endfacet
  facet normal 0.70710677 0 -0.70710677
    outer loop
      vertex 1.0000006 75.5 71
      vertex 1.5000006 95.5 71.5
      vertex 1.5000006 75.5 71.5
    endloop
  endfacet
  facet normal 0.70710677 0 -0.70710677
    outer loop
      vertex 1.5000006 95.5 71.5
      vertex 1.0000006 75.5 71
      vertex 1.0000006 96 71
    endloop
  endfacet
  facet normal 0.70710677 0 -0.70710677
    outer loop
      vertex 1.5000006 1.5 71.5
      vertex 1.0000006 25.5 71
      vertex 1.5000006 25.5 71.5
    endloop
  endfacet
  facet normal 0.70710677 0 -0.70710677
    outer loop
      vertex 1.0000006 25.5 71
      vertex 1.5000006 1.5 71.5
      vertex 1.0000006 1 71
    endloop
  endfacet
  facet normal 0 -0.70710677 -0.70710677
    outer loop
      vertex 53.185787 96 71
      vertex 1.5000006 95.5 71.5
      vertex 1.0000006 96 71
    endloop
  endfacet
  facet normal 0 -0.70710677 -0.70710677
    outer loop
      vertex 1.5000006 95.5 71.5
      vertex 53.185787 96 71
      vertex 53.392895 95.5 71.5
    endloop
  endfacet
  facet normal 0 -1 0
    outer loop
      vertex 5.722046e-7 75.5 73
      vertex 1.5000006 75.5 71.5
      vertex 1.8000008 75.5 73
    endloop
  endfacet
  facet normal 0 -1 0
    outer loop
      vertex 5.722046e-7 75.5 73
      vertex 1.0000006 75.5 71
      vertex 1.5000006 75.5 71.5
    endloop
  endfacet
  facet normal 0 -1 0
    outer loop
      vertex 5.722046e-7 75.5 70.51
      vertex 1.0000006 75.5 71
      vertex 5.722046e-7 75.5 73
    endloop
  endfacet
  facet normal 0 -1 0
    outer loop
      vertex 1.0000006 75.5 71
      vertex 5.722046e-7 75.5 70.51
      vertex 1.0000006 75.5 70.51
    endloop
  endfacet
  facet normal 0 -1 0
    outer loop
      vertex 1.8000008 75.5 73
      vertex 1.5000006 75.5 71.5
      vertex 1.8000008 75.5 71.5
    endloop
  endfacet
  facet normal 0 1 0
    outer loop
      vertex 1.5000006 25.5 71.5
      vertex 1.8000008 25.5 73
      vertex 1.8000008 25.5 71.5
    endloop
  endfacet
  facet normal 0 1 0
    outer loop
      vertex 1.8000008 25.5 73
      vertex 1.5000006 25.5 71.5
      vertex 5.722046e-7 25.5 73
    endloop
  endfacet
  facet normal 0 1 0
    outer loop
      vertex 1.0000006 25.5 71
      vertex 5.722046e-7 25.5 73
      vertex 1.5000006 25.5 71.5
    endloop
  endfacet
  facet normal 0 1 0
    outer loop
      vertex 5.722046e-7 25.5 70.51
      vertex 1.0000006 25.5 71
      vertex 1.0000006 25.5 70.51
    endloop
  endfacet
  facet normal 0 1 0
    outer loop
      vertex 1.0000006 25.5 71
      vertex 5.722046e-7 25.5 70.51
      vertex 5.722046e-7 25.5 73
    endloop
  endfacet
  facet normal 0 -0.85772884 0.5141024
    outer loop
      vertex 51.6 71.28674 56.620743
      vertex 53.6 72.548035 58.725082
      vertex 51.6 72.548035 58.725082
    endloop
  endfacet
  facet normal 0 -0.85772884 0.5141024
    outer loop
      vertex 53.6 72.548035 58.725082
      vertex 51.6 71.28674 56.620743
      vertex 53.6 71.28674 56.620743
    endloop
  endfacet
  facet normal 0 -0.85772884 0.5141024
    outer loop
      vertex 5.722046e-7 71.28674 56.620743
      vertex 2.5000005 72.548035 58.725082
      vertex 5.722046e-7 72.548035 58.725082
    endloop
  endfacet
  facet normal 0 -0.85772884 0.5141024
    outer loop
      vertex 2.5000005 72.548035 58.725082
      vertex 5.722046e-7 71.28674 56.620743
      vertex 2.5000005 71.28674 56.620743
    endloop
  endfacet
  facet normal 0 -0.85772884 0.5141024
    outer loop
      vertex 19.5 71.28674 56.620743
      vertex 21 72.548035 58.725082
      vertex 19.5 72.548035 58.725082
    endloop
  endfacet
  facet normal 0 -0.85772884 0.5141024
    outer loop
      vertex 21 72.548035 58.725082
      vertex 19.5 71.28674 56.620743
      vertex 21 71.28674 56.620743
    endloop
  endfacet
  facet normal 0 -0.9987954 0.049068745
    outer loop
      vertex 51.6 75.379616 68.05957
      vertex 53.6 75.474945 70
      vertex 51.6 75.474945 70
    endloop
  endfacet
  facet normal 0 -0.9987954 0.049068745
    outer loop
      vertex 53.6 75.474945 70
      vertex 51.6 75.379616 68.05957
      vertex 53.6 75.379616 68.05957
    endloop
  endfacet
  facet normal 0 -0.99879545 0.049067933
    outer loop
      vertex 5.722046e-7 75.5 70.51
      vertex 1.0000006 75.474945 70
      vertex 1.0000006 75.5 70.51
    endloop
  endfacet
  facet normal 3.2838363e-7 -0.9987954 0.049068578
    outer loop
      vertex 5.722046e-7 75.379616 68.05957
      vertex 1.0000006 75.474945 70
      vertex 5.722046e-7 75.5 70.51
    endloop
  endfacet
  facet normal 0 -0.9987954 0.049068745
    outer loop
      vertex 2.5000005 75.379616 68.05957
      vertex 1.0000006 75.474945 70
      vertex 5.722046e-7 75.379616 68.05957
    endloop
  endfacet
  facet normal 0 -0.9987954 0.049068745
    outer loop
      vertex 1.0000006 75.474945 70
      vertex 2.5000005 75.379616 68.05957
      vertex 2.5000005 75.474945 70
    endloop
  endfacet
  facet normal 0 -0.9987954 0.049068745
    outer loop
      vertex 19.5 75.379616 68.05957
      vertex 21 75.474945 70
      vertex 19.5 75.474945 70
    endloop
  endfacet
  facet normal 0 -0.9987954 0.049068745
    outer loop
      vertex 21 75.474945 70
      vertex 19.5 75.379616 68.05957
      vertex 21 75.379616 68.05957
    endloop
  endfacet
  facet normal 0 -0.80320764 0.5956992
    outer loop
      vertex 51.6 69.825264 54.650166
      vertex 53.6 71.28674 56.620743
      vertex 51.6 71.28674 56.620743
    endloop
  endfacet
  facet normal 0 -0.80320764 0.5956992
    outer loop
      vertex 53.6 71.28674 56.620743
      vertex 51.6 69.825264 54.650166
      vertex 53.6 69.825264 54.650166
    endloop
  endfacet
  facet normal 0 -0.80320764 0.5956992
    outer loop
      vertex 5.722046e-7 69.825264 54.650166
      vertex 2.5000005 71.28674 56.620743
      vertex 5.722046e-7 71.28674 56.620743
    endloop
  endfacet
  facet normal 0 -0.80320764 0.5956992
    outer loop
      vertex 2.5000005 71.28674 56.620743
      vertex 5.722046e-7 69.825264 54.650166
      vertex 2.5000005 69.825264 54.650166
    endloop
  endfacet
  facet normal 0 -0.80320764 0.5956992
    outer loop
      vertex 19.5 69.825264 54.650166
      vertex 21 71.28674 56.620743
      vertex 19.5 71.28674 56.620743
    endloop
  endfacet
  facet normal 0 -0.80320764 0.5956992
    outer loop
      vertex 21 71.28674 56.620743
      vertex 19.5 69.825264 54.650166
      vertex 21 69.825264 54.650166
    endloop
  endfacet
  facet normal 0 -0.9415438 0.33689058
    outer loop
      vertex 51.6 73.596985 60.942913
      vertex 53.6 74.42351 63.252884
      vertex 51.6 74.42351 63.252884
    endloop
  endfacet
  facet normal 0 -0.9415438 0.33689058
    outer loop
      vertex 53.6 74.42351 63.252884
      vertex 51.6 73.596985 60.942913
      vertex 53.6 73.596985 60.942913
    endloop
  endfacet
  facet normal 0 -0.9415438 0.33689058
    outer loop
      vertex 5.722046e-7 73.596985 60.942913
      vertex 2.5000005 74.42351 63.252884
      vertex 5.722046e-7 74.42351 63.252884
    endloop
  endfacet
  facet normal 0 -0.9415438 0.33689058
    outer loop
      vertex 2.5000005 74.42351 63.252884
      vertex 5.722046e-7 73.596985 60.942913
      vertex 2.5000005 73.596985 60.942913
    endloop
  endfacet
  facet normal 0 -0.9415438 0.33689058
    outer loop
      vertex 19.5 73.596985 60.942913
      vertex 21 74.42351 63.252884
      vertex 19.5 74.42351 63.252884
    endloop
  endfacet
  facet normal 0 -0.9415438 0.33689058
    outer loop
      vertex 21 74.42351 63.252884
      vertex 19.5 73.596985 60.942913
      vertex 21 73.596985 60.942913
    endloop
  endfacet
  facet normal 0 -0.9700314 0.24297975
    outer loop
      vertex 51.6 74.42351 63.252884
      vertex 53.6 75.01963 65.632744
      vertex 51.6 75.01963 65.632744
    endloop
  endfacet
  facet normal 0 -0.9700314 0.24297975
    outer loop
      vertex 53.6 75.01963 65.632744
      vertex 51.6 74.42351 63.252884
      vertex 53.6 74.42351 63.252884
    endloop
  endfacet
  facet normal 0 -0.9700314 0.24297975
    outer loop
      vertex 5.722046e-7 74.42351 63.252884
      vertex 2.5000005 75.01963 65.632744
      vertex 5.722046e-7 75.01963 65.632744
    endloop
  endfacet
  facet normal 0 -0.9700314 0.24297975
    outer loop
      vertex 2.5000005 75.01963 65.632744
      vertex 5.722046e-7 74.42351 63.252884
      vertex 2.5000005 74.42351 63.252884
    endloop
  endfacet
  facet normal 0 -0.9700314 0.24297975
    outer loop
      vertex 19.5 74.42351 63.252884
      vertex 21 75.01963 65.632744
      vertex 19.5 75.01963 65.632744
    endloop
  endfacet
  facet normal 0 -0.9700314 0.24297975
    outer loop
      vertex 21 75.01963 65.632744
      vertex 19.5 74.42351 63.252884
      vertex 21 74.42351 63.252884
    endloop
  endfacet
  facet normal 0 0.3368897 0.9415441
    outer loop
      vertex 51.6 43.24288 46.58649
      vertex 53.6 40.932915 47.41301
      vertex 53.6 43.24288 46.58649
    endloop
  endfacet
  facet normal 0 0.3368897 0.9415441
    outer loop
      vertex 53.6 40.932915 47.41301
      vertex 51.6 43.24288 46.58649
      vertex 51.6 40.932915 47.41301
    endloop
  endfacet
  facet normal 0 0.3368897 0.9415441
    outer loop
      vertex 5.722046e-7 43.24288 46.58649
      vertex 2.5000005 40.932915 47.41301
      vertex 2.5000005 43.24288 46.58649
    endloop
  endfacet
  facet normal 0 0.3368897 0.9415441
    outer loop
      vertex 2.5000005 40.932915 47.41301
      vertex 5.722046e-7 43.24288 46.58649
      vertex 5.722046e-7 40.932915 47.41301
    endloop
  endfacet
  facet normal 0 0.3368897 0.9415441
    outer loop
      vertex 19.5 43.24288 46.58649
      vertex 21 40.932915 47.41301
      vertex 21 43.24288 46.58649
    endloop
  endfacet
  facet normal 0 0.3368897 0.9415441
    outer loop
      vertex 21 40.932915 47.41301
      vertex 19.5 43.24288 46.58649
      vertex 19.5 40.932915 47.41301
    endloop
  endfacet
  facet normal 0 -0.14673011 0.9891766
    outer loop
      vertex 51.6 55.37726 45.990368
      vertex 53.6 52.950428 45.630383
      vertex 53.6 55.37726 45.990368
    endloop
  endfacet
  facet normal 0 -0.14673011 0.9891766
    outer loop
      vertex 53.6 52.950428 45.630383
      vertex 51.6 55.37726 45.990368
      vertex 51.6 52.950428 45.630383
    endloop
  endfacet
  facet normal 0 -0.14673011 0.9891766
    outer loop
      vertex 5.722046e-7 55.37726 45.990368
      vertex 2.5000005 52.950428 45.630383
      vertex 2.5000005 55.37726 45.990368
    endloop
  endfacet
  facet normal 0 -0.14673011 0.9891766
    outer loop
      vertex 2.5000005 52.950428 45.630383
      vertex 5.722046e-7 55.37726 45.990368
      vertex 5.722046e-7 52.950428 45.630383
    endloop
  endfacet
  facet normal 0 -0.14673011 0.9891766
    outer loop
      vertex 19.5 55.37726 45.990368
      vertex 21 52.950428 45.630383
      vertex 21 55.37726 45.990368
    endloop
  endfacet
  facet normal 0 -0.14673011 0.9891766
    outer loop
      vertex 21 52.950428 45.630383
      vertex 19.5 55.37726 45.990368
      vertex 19.5 52.950428 45.630383
    endloop
  endfacet
  facet normal 0 0.67155886 0.74095124
    outer loop
      vertex 51.6 34.640167 51.18474
      vertex 53.6 32.82233 52.83233
      vertex 53.6 34.640167 51.18474
    endloop
  endfacet
  facet normal 0 0.67155886 0.74095124
    outer loop
      vertex 53.6 32.82233 52.83233
      vertex 51.6 34.640167 51.18474
      vertex 51.6 32.82233 52.83233
    endloop
  endfacet
  facet normal 0 0.67155886 0.74095124
    outer loop
      vertex 5.722046e-7 34.640167 51.18474
      vertex 2.5000005 32.82233 52.83233
      vertex 2.5000005 34.640167 51.18474
    endloop
  endfacet
  facet normal 0 0.67155886 0.74095124
    outer loop
      vertex 2.5000005 32.82233 52.83233
      vertex 5.722046e-7 34.640167 51.18474
      vertex 5.722046e-7 32.82233 52.83233
    endloop
  endfacet
  facet normal 0 0.67155886 0.74095124
    outer loop
      vertex 19.5 34.640167 51.18474
      vertex 21 32.82233 52.83233
      vertex 21 34.640167 51.18474
    endloop
  endfacet
  facet normal 0 0.67155886 0.74095124
    outer loop
      vertex 21 32.82233 52.83233
      vertex 19.5 34.640167 51.18474
      vertex 19.5 32.82233 52.83233
    endloop
  endfacet
  facet normal 0 0.99879545 0.049067765
    outer loop
      vertex 53.6 25.620382 68.05957
      vertex 51.6 25.525055 70
      vertex 53.6 25.525055 70
    endloop
  endfacet
  facet normal 0 0.99879545 0.049067765
    outer loop
      vertex 51.6 25.525055 70
      vertex 53.6 25.620382 68.05957
      vertex 51.6 25.620382 68.05957
    endloop
  endfacet
  facet normal 0 0.99879545 0.049067933
    outer loop
      vertex 1.0000006 25.525055 70
      vertex 5.722046e-7 25.5 70.51
      vertex 1.0000006 25.5 70.51
    endloop
  endfacet
  facet normal 0 0.99879545 0.049067765
    outer loop
      vertex 5.722046e-7 25.620382 68.05957
      vertex 1.0000006 25.525055 70
      vertex 2.5000005 25.620382 68.05957
    endloop
  endfacet
  facet normal -6.810978e-8 0.99879545 0.049067803
    outer loop
      vertex 1.0000006 25.525055 70
      vertex 5.722046e-7 25.620382 68.05957
      vertex 5.722046e-7 25.5 70.51
    endloop
  endfacet
  facet normal 0 0.99879545 0.049067765
    outer loop
      vertex 2.5000005 25.525055 70
      vertex 2.5000005 25.620382 68.05957
      vertex 1.0000006 25.525055 70
    endloop
  endfacet
  facet normal 0 0.99879545 0.049067765
    outer loop
      vertex 21 25.620382 68.05957
      vertex 19.5 25.525055 70
      vertex 21 25.525055 70
    endloop
  endfacet
  facet normal 0 0.99879545 0.049067765
    outer loop
      vertex 19.5 25.525055 70
      vertex 21 25.620382 68.05957
      vertex 19.5 25.620382 68.05957
    endloop
  endfacet
  facet normal 0 0.24297975 0.9700314
    outer loop
      vertex 51.6 45.62274 45.990368
      vertex 53.6 43.24288 46.58649
      vertex 53.6 45.62274 45.990368
    endloop
  endfacet
  facet normal 0 0.24297975 0.9700314
    outer loop
      vertex 53.6 43.24288 46.58649
      vertex 51.6 45.62274 45.990368
      vertex 51.6 43.24288 46.58649
    endloop
  endfacet
  facet normal 0 0.24297975 0.9700314
    outer loop
      vertex 5.722046e-7 45.62274 45.990368
      vertex 2.5000005 43.24288 46.58649
      vertex 2.5000005 45.62274 45.990368
    endloop
  endfacet
  facet normal 0 0.24297975 0.9700314
    outer loop
      vertex 2.5000005 43.24288 46.58649
      vertex 5.722046e-7 45.62274 45.990368
      vertex 5.722046e-7 43.24288 46.58649
    endloop
  endfacet
  facet normal 0 0.24297975 0.9700314
    outer loop
      vertex 19.5 45.62274 45.990368
      vertex 21 43.24288 46.58649
      vertex 21 45.62274 45.990368
    endloop
  endfacet
  facet normal 0 0.24297975 0.9700314
    outer loop
      vertex 21 43.24288 46.58649
      vertex 19.5 45.62274 45.990368
      vertex 19.5 43.24288 46.58649
    endloop
  endfacet
  facet normal 0 0.80320764 0.5956992
    outer loop
      vertex 53.6 31.17474 54.650166
      vertex 51.6 29.71326 56.620743
      vertex 53.6 29.71326 56.620743
    endloop
  endfacet
  facet normal 0 0.80320764 0.5956992
    outer loop
      vertex 51.6 29.71326 56.620743
      vertex 53.6 31.17474 54.650166
      vertex 51.6 31.17474 54.650166
    endloop
  endfacet
  facet normal 0 0.80320764 0.5956992
    outer loop
      vertex 2.5000005 31.17474 54.650166
      vertex 5.722046e-7 29.71326 56.620743
      vertex 2.5000005 29.71326 56.620743
    endloop
  endfacet
  facet normal 0 0.80320764 0.5956992
    outer loop
      vertex 5.722046e-7 29.71326 56.620743
      vertex 2.5000005 31.17474 54.650166
      vertex 5.722046e-7 31.17474 54.650166
    endloop
  endfacet
  facet normal 0 0.80320764 0.5956992
    outer loop
      vertex 21 31.17474 54.650166
      vertex 19.5 29.71326 56.620743
      vertex 21 29.71326 56.620743
    endloop
  endfacet
  facet normal 0 0.80320764 0.5956992
    outer loop
      vertex 19.5 29.71326 56.620743
      vertex 21 31.17474 54.650166
      vertex 19.5 31.17474 54.650166
    endloop
  endfacet
  facet normal 0 0.85772884 0.5141024
    outer loop
      vertex 2.5000005 29.71326 56.620743
      vertex 5.722046e-7 28.45197 58.725082
      vertex 2.5000005 28.45197 58.725082
    endloop
  endfacet
  facet normal 0 0.85772884 0.5141024
    outer loop
      vertex 5.722046e-7 28.45197 58.725082
      vertex 2.5000005 29.71326 56.620743
      vertex 5.722046e-7 29.71326 56.620743
    endloop
  endfacet
  facet normal 0 0.85772884 0.5141024
    outer loop
      vertex 53.6 29.71326 56.620743
      vertex 51.6 28.45197 58.725082
      vertex 53.6 28.45197 58.725082
    endloop
  endfacet
  facet normal 0 0.85772884 0.5141024
    outer loop
      vertex 51.6 28.45197 58.725082
      vertex 53.6 29.71326 56.620743
      vertex 51.6 29.71326 56.620743
    endloop
  endfacet
  facet normal 0 0.85772884 0.5141024
    outer loop
      vertex 21 29.71326 56.620743
      vertex 19.5 28.45197 58.725082
      vertex 21 28.45197 58.725082
    endloop
  endfacet
  facet normal 0 0.85772884 0.5141024
    outer loop
      vertex 19.5 28.45197 58.725082
      vertex 21 29.71326 56.620743
      vertex 19.5 29.71326 56.620743
    endloop
  endfacet
  facet normal 0 0.5141031 0.8577284
    outer loop
      vertex 51.6 38.71508 48.461967
      vertex 53.6 36.610744 49.72326
      vertex 53.6 38.71508 48.461967
    endloop
  endfacet
  facet normal 0 0.5141031 0.8577284
    outer loop
      vertex 53.6 36.610744 49.72326
      vertex 51.6 38.71508 48.461967
      vertex 51.6 36.610744 49.72326
    endloop
  endfacet
  facet normal 0 0.5141031 0.8577284
    outer loop
      vertex 5.722046e-7 38.71508 48.461967
      vertex 2.5000005 36.610744 49.72326
      vertex 2.5000005 38.71508 48.461967
    endloop
  endfacet
  facet normal 0 0.5141031 0.8577284
    outer loop
      vertex 2.5000005 36.610744 49.72326
      vertex 5.722046e-7 38.71508 48.461967
      vertex 5.722046e-7 36.610744 49.72326
    endloop
  endfacet
  facet normal 0 0.5141031 0.8577284
    outer loop
      vertex 19.5 38.71508 48.461967
      vertex 21 36.610744 49.72326
      vertex 21 38.71508 48.461967
    endloop
  endfacet
  facet normal 0 0.5141031 0.8577284
    outer loop
      vertex 21 36.610744 49.72326
      vertex 19.5 38.71508 48.461967
      vertex 19.5 36.610744 49.72326
    endloop
  endfacet
  facet normal 0 -0.9891765 0.14673033
    outer loop
      vertex 51.6 75.01963 65.632744
      vertex 53.6 75.379616 68.05957
      vertex 51.6 75.379616 68.05957
    endloop
  endfacet
  facet normal 0 -0.9891765 0.14673033
    outer loop
      vertex 53.6 75.379616 68.05957
      vertex 51.6 75.01963 65.632744
      vertex 53.6 75.01963 65.632744
    endloop
  endfacet
  facet normal 0 -0.9891765 0.14673033
    outer loop
      vertex 5.722046e-7 75.01963 65.632744
      vertex 2.5000005 75.379616 68.05957
      vertex 5.722046e-7 75.379616 68.05957
    endloop
  endfacet
  facet normal 0 -0.9891765 0.14673033
    outer loop
      vertex 2.5000005 75.379616 68.05957
      vertex 5.722046e-7 75.01963 65.632744
      vertex 2.5000005 75.01963 65.632744
    endloop
  endfacet
  facet normal 0 -0.9891765 0.14673033
    outer loop
      vertex 19.5 75.01963 65.632744
      vertex 21 75.379616 68.05957
      vertex 19.5 75.379616 68.05957
    endloop
  endfacet
  facet normal 0 -0.9891765 0.14673033
    outer loop
      vertex 21 75.379616 68.05957
      vertex 19.5 75.01963 65.632744
      vertex 21 75.01963 65.632744
    endloop
  endfacet
  facet normal 0 -0.42755517 0.90398926
    outer loop
      vertex 5.722046e-7 62.28492 48.461967
      vertex 2.5000005 60.067085 47.41301
      vertex 2.5000005 62.28492 48.461967
    endloop
  endfacet
  facet normal 0 -0.42755517 0.90398926
    outer loop
      vertex 2.5000005 60.067085 47.41301
      vertex 5.722046e-7 62.28492 48.461967
      vertex 5.722046e-7 60.067085 47.41301
    endloop
  endfacet
  facet normal 0 -0.42755517 0.90398926
    outer loop
      vertex 51.6 62.28492 48.461967
      vertex 53.6 60.067085 47.41301
      vertex 53.6 62.28492 48.461967
    endloop
  endfacet
  facet normal 0 -0.42755517 0.90398926
    outer loop
      vertex 53.6 60.067085 47.41301
      vertex 51.6 62.28492 48.461967
      vertex 51.6 60.067085 47.41301
    endloop
  endfacet
  facet normal 0 -0.42755517 0.90398926
    outer loop
      vertex 19.5 62.28492 48.461967
      vertex 21 60.067085 47.41301
      vertex 21 62.28492 48.461967
    endloop
  endfacet
  facet normal 0 -0.42755517 0.90398926
    outer loop
      vertex 21 60.067085 47.41301
      vertex 19.5 62.28492 48.461967
      vertex 19.5 60.067085 47.41301
    endloop
  endfacet
  facet normal 0 -0.90399015 0.42755324
    outer loop
      vertex 51.6 72.548035 58.725082
      vertex 53.6 73.596985 60.942913
      vertex 51.6 73.596985 60.942913
    endloop
  endfacet
  facet normal 0 -0.90399015 0.42755324
    outer loop
      vertex 53.6 73.596985 60.942913
      vertex 51.6 72.548035 58.725082
      vertex 53.6 72.548035 58.725082
    endloop
  endfacet
  facet normal 0 -0.90399015 0.42755324
    outer loop
      vertex 5.722046e-7 72.548035 58.725082
      vertex 2.5000005 73.596985 60.942913
      vertex 5.722046e-7 73.596985 60.942913
    endloop
  endfacet
  facet normal 0 -0.90399015 0.42755324
    outer loop
      vertex 2.5000005 73.596985 60.942913
      vertex 5.722046e-7 72.548035 58.725082
      vertex 2.5000005 72.548035 58.725082
    endloop
  endfacet
  facet normal 0 -0.90399015 0.42755324
    outer loop
      vertex 19.5 72.548035 58.725082
      vertex 21 73.596985 60.942913
      vertex 19.5 73.596985 60.942913
    endloop
  endfacet
  facet normal 0 -0.90399015 0.42755324
    outer loop
      vertex 21 73.596985 60.942913
      vertex 19.5 72.548035 58.725082
      vertex 21 72.548035 58.725082
    endloop
  endfacet
  facet normal 0 0.14673011 0.9891766
    outer loop
      vertex 51.6 48.049572 45.630383
      vertex 53.6 45.62274 45.990368
      vertex 53.6 48.049572 45.630383
    endloop
  endfacet
  facet normal 0 0.14673011 0.9891766
    outer loop
      vertex 53.6 45.62274 45.990368
      vertex 51.6 48.049572 45.630383
      vertex 51.6 45.62274 45.990368
    endloop
  endfacet
  facet normal 0 0.14673011 0.9891766
    outer loop
      vertex 5.722046e-7 48.049572 45.630383
      vertex 2.5000005 45.62274 45.990368
      vertex 2.5000005 48.049572 45.630383
    endloop
  endfacet
  facet normal 0 0.14673011 0.9891766
    outer loop
      vertex 2.5000005 45.62274 45.990368
      vertex 5.722046e-7 48.049572 45.630383
      vertex 5.722046e-7 45.62274 45.990368
    endloop
  endfacet
  facet normal 0 0.14673011 0.9891766
    outer loop
      vertex 19.5 48.049572 45.630383
      vertex 21 45.62274 45.990368
      vertex 21 48.049572 45.630383
    endloop
  endfacet
  facet normal 0 0.14673011 0.9891766
    outer loop
      vertex 21 45.62274 45.990368
      vertex 19.5 48.049572 45.630383
      vertex 19.5 45.62274 45.990368
    endloop
  endfacet
  facet normal 0 0.049068652 0.9987954
    outer loop
      vertex 51.6 50.5 45.51
      vertex 53.6 48.049572 45.630383
      vertex 53.6 50.5 45.51
    endloop
  endfacet
  facet normal 0 0.049068652 0.9987954
    outer loop
      vertex 53.6 48.049572 45.630383
      vertex 51.6 50.5 45.51
      vertex 51.6 48.049572 45.630383
    endloop
  endfacet
  facet normal 0 0.049068652 0.9987954
    outer loop
      vertex 5.722046e-7 50.5 45.51
      vertex 2.5000005 48.049572 45.630383
      vertex 2.5000005 50.5 45.51
    endloop
  endfacet
  facet normal 0 0.049068652 0.9987954
    outer loop
      vertex 2.5000005 48.049572 45.630383
      vertex 5.722046e-7 50.5 45.51
      vertex 5.722046e-7 48.049572 45.630383
    endloop
  endfacet
  facet normal 0 0.049068652 0.9987954
    outer loop
      vertex 19.5 50.5 45.51
      vertex 21 48.049572 45.630383
      vertex 21 50.5 45.51
    endloop
  endfacet
  facet normal 0 0.049068652 0.9987954
    outer loop
      vertex 21 48.049572 45.630383
      vertex 19.5 50.5 45.51
      vertex 19.5 48.049572 45.630383
    endloop
  endfacet
  facet normal 0 0.9415443 0.3368892
    outer loop
      vertex 53.6 27.403011 60.942913
      vertex 51.6 26.576492 63.252884
      vertex 53.6 26.576492 63.252884
    endloop
  endfacet
  facet normal 0 0.9415443 0.3368892
    outer loop
      vertex 51.6 26.576492 63.252884
      vertex 53.6 27.403011 60.942913
      vertex 51.6 27.403011 60.942913
    endloop
  endfacet
  facet normal 0 0.9415443 0.3368892
    outer loop
      vertex 2.5000005 27.403011 60.942913
      vertex 5.722046e-7 26.576492 63.252884
      vertex 2.5000005 26.576492 63.252884
    endloop
  endfacet
  facet normal 0 0.9415443 0.3368892
    outer loop
      vertex 5.722046e-7 26.576492 63.252884
      vertex 2.5000005 27.403011 60.942913
      vertex 5.722046e-7 27.403011 60.942913
    endloop
  endfacet
  facet normal 0 0.9415443 0.3368892
    outer loop
      vertex 21 27.403011 60.942913
      vertex 19.5 26.576492 63.252884
      vertex 21 26.576492 63.252884
    endloop
  endfacet
  facet normal 0 0.9415443 0.3368892
    outer loop
      vertex 19.5 26.576492 63.252884
      vertex 21 27.403011 60.942913
      vertex 19.5 27.403011 60.942913
    endloop
  endfacet
  facet normal 0 -0.6715581 0.74095196
    outer loop
      vertex 5.722046e-7 68.17767 52.83233
      vertex 2.5000005 66.35983 51.18474
      vertex 2.5000005 68.17767 52.83233
    endloop
  endfacet
  facet normal 0 -0.6715581 0.74095196
    outer loop
      vertex 2.5000005 66.35983 51.18474
      vertex 5.722046e-7 68.17767 52.83233
      vertex 5.722046e-7 66.35983 51.18474
    endloop
  endfacet
  facet normal 0 -0.6715581 0.74095196
    outer loop
      vertex 51.6 68.17767 52.83233
      vertex 53.6 66.35983 51.18474
      vertex 53.6 68.17767 52.83233
    endloop
  endfacet
  facet normal 0 -0.6715581 0.74095196
    outer loop
      vertex 53.6 66.35983 51.18474
      vertex 51.6 68.17767 52.83233
      vertex 51.6 66.35983 51.18474
    endloop
  endfacet
  facet normal 0 -0.6715581 0.74095196
    outer loop
      vertex 19.5 68.17767 52.83233
      vertex 21 66.35983 51.18474
      vertex 21 68.17767 52.83233
    endloop
  endfacet
  facet normal 0 -0.6715581 0.74095196
    outer loop
      vertex 21 66.35983 51.18474
      vertex 19.5 68.17767 52.83233
      vertex 19.5 66.35983 51.18474
    endloop
  endfacet
  facet normal 0 0.42755517 0.90398926
    outer loop
      vertex 51.6 40.932915 47.41301
      vertex 53.6 38.71508 48.461967
      vertex 53.6 40.932915 47.41301
    endloop
  endfacet
  facet normal 0 0.42755517 0.90398926
    outer loop
      vertex 53.6 38.71508 48.461967
      vertex 51.6 40.932915 47.41301
      vertex 51.6 38.71508 48.461967
    endloop
  endfacet
  facet normal 0 0.42755517 0.90398926
    outer loop
      vertex 5.722046e-7 40.932915 47.41301
      vertex 2.5000005 38.71508 48.461967
      vertex 2.5000005 40.932915 47.41301
    endloop
  endfacet
  facet normal 0 0.42755517 0.90398926
    outer loop
      vertex 2.5000005 38.71508 48.461967
      vertex 5.722046e-7 40.932915 47.41301
      vertex 5.722046e-7 38.71508 48.461967
    endloop
  endfacet
  facet normal 0 0.42755517 0.90398926
    outer loop
      vertex 19.5 40.932915 47.41301
      vertex 21 38.71508 48.461967
      vertex 21 40.932915 47.41301
    endloop
  endfacet
  facet normal 0 0.42755517 0.90398926
    outer loop
      vertex 21 38.71508 48.461967
      vertex 19.5 40.932915 47.41301
      vertex 19.5 38.71508 48.461967
    endloop
  endfacet
  facet normal 0 -0.049068652 0.9987954
    outer loop
      vertex 51.6 52.950428 45.630383
      vertex 53.6 50.5 45.51
      vertex 53.6 52.950428 45.630383
    endloop
  endfacet
  facet normal 0 -0.049068652 0.9987954
    outer loop
      vertex 53.6 50.5 45.51
      vertex 51.6 52.950428 45.630383
      vertex 51.6 50.5 45.51
    endloop
  endfacet
  facet normal 0 -0.049068652 0.9987954
    outer loop
      vertex 5.722046e-7 52.950428 45.630383
      vertex 2.5000005 50.5 45.51
      vertex 2.5000005 52.950428 45.630383
    endloop
  endfacet
  facet normal 0 -0.049068652 0.9987954
    outer loop
      vertex 2.5000005 50.5 45.51
      vertex 5.722046e-7 52.950428 45.630383
      vertex 5.722046e-7 50.5 45.51
    endloop
  endfacet
  facet normal 0 -0.049068652 0.9987954
    outer loop
      vertex 19.5 52.950428 45.630383
      vertex 21 50.5 45.51
      vertex 21 52.950428 45.630383
    endloop
  endfacet
  facet normal 0 -0.049068652 0.9987954
    outer loop
      vertex 21 50.5 45.51
      vertex 19.5 52.950428 45.630383
      vertex 19.5 50.5 45.51
    endloop
  endfacet
  facet normal 0 0.9891764 0.1467311
    outer loop
      vertex 2.5000005 25.98037 65.632744
      vertex 5.722046e-7 25.620382 68.05957
      vertex 2.5000005 25.620382 68.05957
    endloop
  endfacet
  facet normal 0 0.9891764 0.1467311
    outer loop
      vertex 5.722046e-7 25.620382 68.05957
      vertex 2.5000005 25.98037 65.632744
      vertex 5.722046e-7 25.98037 65.632744
    endloop
  endfacet
  facet normal 0 0.9891764 0.1467311
    outer loop
      vertex 53.6 25.98037 65.632744
      vertex 51.6 25.620382 68.05957
      vertex 53.6 25.620382 68.05957
    endloop
  endfacet
  facet normal 0 0.9891764 0.1467311
    outer loop
      vertex 51.6 25.620382 68.05957
      vertex 53.6 25.98037 65.632744
      vertex 51.6 25.98037 65.632744
    endloop
  endfacet
  facet normal 0 0.9891764 0.1467311
    outer loop
      vertex 21 25.98037 65.632744
      vertex 19.5 25.620382 68.05957
      vertex 21 25.620382 68.05957
    endloop
  endfacet
  facet normal 0 0.9891764 0.1467311
    outer loop
      vertex 19.5 25.620382 68.05957
      vertex 21 25.98037 65.632744
      vertex 19.5 25.98037 65.632744
    endloop
  endfacet
  facet normal 0 0.90398896 0.42755577
    outer loop
      vertex 53.6 28.45197 58.725082
      vertex 51.6 27.403011 60.942913
      vertex 53.6 27.403011 60.942913
    endloop
  endfacet
  facet normal 0 0.90398896 0.42755577
    outer loop
      vertex 51.6 27.403011 60.942913
      vertex 53.6 28.45197 58.725082
      vertex 51.6 28.45197 58.725082
    endloop
  endfacet
  facet normal 0 0.90398896 0.42755577
    outer loop
      vertex 2.5000005 28.45197 58.725082
      vertex 5.722046e-7 27.403011 60.942913
      vertex 2.5000005 27.403011 60.942913
    endloop
  endfacet
  facet normal 0 0.90398896 0.42755577
    outer loop
      vertex 5.722046e-7 27.403011 60.942913
      vertex 2.5000005 28.45197 58.725082
      vertex 5.722046e-7 28.45197 58.725082
    endloop
  endfacet
  facet normal 0 0.90398896 0.42755577
    outer loop
      vertex 21 28.45197 58.725082
      vertex 19.5 27.403011 60.942913
      vertex 21 27.403011 60.942913
    endloop
  endfacet
  facet normal 0 0.90398896 0.42755577
    outer loop
      vertex 19.5 27.403011 60.942913
      vertex 21 28.45197 58.725082
      vertex 19.5 28.45197 58.725082
    endloop
  endfacet
  facet normal 0 -0.74095124 0.67155886
    outer loop
      vertex 51.6 68.17767 52.83233
      vertex 53.6 69.825264 54.650166
      vertex 51.6 69.825264 54.650166
    endloop
  endfacet
  facet normal 0 -0.74095124 0.67155886
    outer loop
      vertex 53.6 69.825264 54.650166
      vertex 51.6 68.17767 52.83233
      vertex 53.6 68.17767 52.83233
    endloop
  endfacet
  facet normal 0 -0.74095124 0.67155886
    outer loop
      vertex 5.722046e-7 68.17767 52.83233
      vertex 2.5000005 69.825264 54.650166
      vertex 5.722046e-7 69.825264 54.650166
    endloop
  endfacet
  facet normal 0 -0.74095124 0.67155886
    outer loop
      vertex 2.5000005 69.825264 54.650166
      vertex 5.722046e-7 68.17767 52.83233
      vertex 2.5000005 68.17767 52.83233
    endloop
  endfacet
  facet normal 0 -0.74095124 0.67155886
    outer loop
      vertex 19.5 68.17767 52.83233
      vertex 21 69.825264 54.650166
      vertex 19.5 69.825264 54.650166
    endloop
  endfacet
  facet normal 0 -0.74095124 0.67155886
    outer loop
      vertex 21 69.825264 54.650166
      vertex 19.5 68.17767 52.83233
      vertex 21 68.17767 52.83233
    endloop
  endfacet
  facet normal 0 -0.3368897 0.9415441
    outer loop
      vertex 5.722046e-7 60.067085 47.41301
      vertex 2.5000005 57.75712 46.58649
      vertex 2.5000005 60.067085 47.41301
    endloop
  endfacet
  facet normal 0 -0.3368897 0.9415441
    outer loop
      vertex 2.5000005 57.75712 46.58649
      vertex 5.722046e-7 60.067085 47.41301
      vertex 5.722046e-7 57.75712 46.58649
    endloop
  endfacet
  facet normal 0 -0.3368897 0.9415441
    outer loop
      vertex 51.6 60.067085 47.41301
      vertex 53.6 57.75712 46.58649
      vertex 53.6 60.067085 47.41301
    endloop
  endfacet
  facet normal 0 -0.3368897 0.9415441
    outer loop
      vertex 53.6 57.75712 46.58649
      vertex 51.6 60.067085 47.41301
      vertex 51.6 57.75712 46.58649
    endloop
  endfacet
  facet normal 0 -0.3368897 0.9415441
    outer loop
      vertex 19.5 60.067085 47.41301
      vertex 21 57.75712 46.58649
      vertex 21 60.067085 47.41301
    endloop
  endfacet
  facet normal 0 -0.3368897 0.9415441
    outer loop
      vertex 21 57.75712 46.58649
      vertex 19.5 60.067085 47.41301
      vertex 19.5 57.75712 46.58649
    endloop
  endfacet
  facet normal 0 0.74095124 0.67155886
    outer loop
      vertex 53.6 32.82233 52.83233
      vertex 51.6 31.17474 54.650166
      vertex 53.6 31.17474 54.650166
    endloop
  endfacet
  facet normal 0 0.74095124 0.67155886
    outer loop
      vertex 51.6 31.17474 54.650166
      vertex 53.6 32.82233 52.83233
      vertex 51.6 32.82233 52.83233
    endloop
  endfacet
  facet normal 0 0.74095124 0.67155886
    outer loop
      vertex 2.5000005 32.82233 52.83233
      vertex 5.722046e-7 31.17474 54.650166
      vertex 2.5000005 31.17474 54.650166
    endloop
  endfacet
  facet normal 0 0.74095124 0.67155886
    outer loop
      vertex 5.722046e-7 31.17474 54.650166
      vertex 2.5000005 32.82233 52.83233
      vertex 5.722046e-7 32.82233 52.83233
    endloop
  endfacet
  facet normal 0 0.74095124 0.67155886
    outer loop
      vertex 21 32.82233 52.83233
      vertex 19.5 31.17474 54.650166
      vertex 21 31.17474 54.650166
    endloop
  endfacet
  facet normal 0 0.74095124 0.67155886
    outer loop
      vertex 19.5 31.17474 54.650166
      vertex 21 32.82233 52.83233
      vertex 19.5 32.82233 52.83233
    endloop
  endfacet
  facet normal 0 0.5956992 0.80320764
    outer loop
      vertex 51.6 36.610744 49.72326
      vertex 53.6 34.640167 51.18474
      vertex 53.6 36.610744 49.72326
    endloop
  endfacet
  facet normal 0 0.5956992 0.80320764
    outer loop
      vertex 53.6 34.640167 51.18474
      vertex 51.6 36.610744 49.72326
      vertex 51.6 34.640167 51.18474
    endloop
  endfacet
  facet normal 0 0.5956992 0.80320764
    outer loop
      vertex 5.722046e-7 36.610744 49.72326
      vertex 2.5000005 34.640167 51.18474
      vertex 2.5000005 36.610744 49.72326
    endloop
  endfacet
  facet normal 0 0.5956992 0.80320764
    outer loop
      vertex 2.5000005 34.640167 51.18474
      vertex 5.722046e-7 36.610744 49.72326
      vertex 5.722046e-7 34.640167 51.18474
    endloop
  endfacet
  facet normal 0 0.5956992 0.80320764
    outer loop
      vertex 19.5 36.610744 49.72326
      vertex 21 34.640167 51.18474
      vertex 21 36.610744 49.72326
    endloop
  endfacet
  facet normal 0 0.5956992 0.80320764
    outer loop
      vertex 21 34.640167 51.18474
      vertex 19.5 36.610744 49.72326
      vertex 19.5 34.640167 51.18474
    endloop
  endfacet
  facet normal 0 0.9700314 0.24297975
    outer loop
      vertex 53.6 26.576492 63.252884
      vertex 51.6 25.98037 65.632744
      vertex 53.6 25.98037 65.632744
    endloop
  endfacet
  facet normal 0 0.9700314 0.24297975
    outer loop
      vertex 51.6 25.98037 65.632744
      vertex 53.6 26.576492 63.252884
      vertex 51.6 26.576492 63.252884
    endloop
  endfacet
  facet normal 0 0.9700314 0.24297975
    outer loop
      vertex 2.5000005 26.576492 63.252884
      vertex 5.722046e-7 25.98037 65.632744
      vertex 2.5000005 25.98037 65.632744
    endloop
  endfacet
  facet normal 0 0.9700314 0.24297975
    outer loop
      vertex 5.722046e-7 25.98037 65.632744
      vertex 2.5000005 26.576492 63.252884
      vertex 5.722046e-7 26.576492 63.252884
    endloop
  endfacet
  facet normal 0 0.9700314 0.24297975
    outer loop
      vertex 21 26.576492 63.252884
      vertex 19.5 25.98037 65.632744
      vertex 21 25.98037 65.632744
    endloop
  endfacet
  facet normal 0 0.9700314 0.24297975
    outer loop
      vertex 19.5 25.98037 65.632744
      vertex 21 26.576492 63.252884
      vertex 19.5 26.576492 63.252884
    endloop
  endfacet
  facet normal 0 -0.24297975 0.9700314
    outer loop
      vertex 5.722046e-7 57.75712 46.58649
      vertex 2.5000005 55.37726 45.990368
      vertex 2.5000005 57.75712 46.58649
    endloop
  endfacet
  facet normal 0 -0.24297975 0.9700314
    outer loop
      vertex 2.5000005 55.37726 45.990368
      vertex 5.722046e-7 57.75712 46.58649
      vertex 5.722046e-7 55.37726 45.990368
    endloop
  endfacet
  facet normal 0 -0.24297975 0.9700314
    outer loop
      vertex 51.6 57.75712 46.58649
      vertex 53.6 55.37726 45.990368
      vertex 53.6 57.75712 46.58649
    endloop
  endfacet
  facet normal 0 -0.24297975 0.9700314
    outer loop
      vertex 53.6 55.37726 45.990368
      vertex 51.6 57.75712 46.58649
      vertex 51.6 55.37726 45.990368
    endloop
  endfacet
  facet normal 0 -0.24297975 0.9700314
    outer loop
      vertex 19.5 57.75712 46.58649
      vertex 21 55.37726 45.990368
      vertex 21 57.75712 46.58649
    endloop
  endfacet
  facet normal 0 -0.24297975 0.9700314
    outer loop
      vertex 21 55.37726 45.990368
      vertex 19.5 57.75712 46.58649
      vertex 19.5 55.37726 45.990368
    endloop
  endfacet
  facet normal 0 -0.5956984 0.8032082
    outer loop
      vertex 5.722046e-7 66.35983 51.18474
      vertex 2.5000005 64.38925 49.72326
      vertex 2.5000005 66.35983 51.18474
    endloop
  endfacet
  facet normal 0 -0.5956984 0.8032082
    outer loop
      vertex 2.5000005 64.38925 49.72326
      vertex 5.722046e-7 66.35983 51.18474
      vertex 5.722046e-7 64.38925 49.72326
    endloop
  endfacet
  facet normal 0 -0.5956984 0.8032082
    outer loop
      vertex 51.6 66.35983 51.18474
      vertex 53.6 64.38925 49.72326
      vertex 53.6 66.35983 51.18474
    endloop
  endfacet
  facet normal 0 -0.5956984 0.8032082
    outer loop
      vertex 53.6 64.38925 49.72326
      vertex 51.6 66.35983 51.18474
      vertex 51.6 64.38925 49.72326
    endloop
  endfacet
  facet normal 0 -0.5956984 0.8032082
    outer loop
      vertex 19.5 66.35983 51.18474
      vertex 21 64.38925 49.72326
      vertex 21 66.35983 51.18474
    endloop
  endfacet
  facet normal 0 -0.5956984 0.8032082
    outer loop
      vertex 21 64.38925 49.72326
      vertex 19.5 66.35983 51.18474
      vertex 19.5 64.38925 49.72326
    endloop
  endfacet
  facet normal 0 -0.5141038 0.857728
    outer loop
      vertex 5.722046e-7 64.38925 49.72326
      vertex 2.5000005 62.28492 48.461967
      vertex 2.5000005 64.38925 49.72326
    endloop
  endfacet
  facet normal 0 -0.5141038 0.857728
    outer loop
      vertex 2.5000005 62.28492 48.461967
      vertex 5.722046e-7 64.38925 49.72326
      vertex 5.722046e-7 62.28492 48.461967
    endloop
  endfacet
  facet normal 0 -0.5141038 0.857728
    outer loop
      vertex 51.6 64.38925 49.72326
      vertex 53.6 62.28492 48.461967
      vertex 53.6 64.38925 49.72326
    endloop
  endfacet
  facet normal 0 -0.5141038 0.857728
    outer loop
      vertex 53.6 62.28492 48.461967
      vertex 51.6 64.38925 49.72326
      vertex 51.6 62.28492 48.461967
    endloop
  endfacet
  facet normal 0 -0.5141038 0.857728
    outer loop
      vertex 19.5 64.38925 49.72326
      vertex 21 62.28492 48.461967
      vertex 21 64.38925 49.72326
    endloop
  endfacet
  facet normal 0 -0.5141038 0.857728
    outer loop
      vertex 21 62.28492 48.461967
      vertex 19.5 64.38925 49.72326
      vertex 19.5 62.28492 48.461967
    endloop
  endfacet
  facet normal 0 0 1
    outer loop
      vertex 21 95 2
      vertex 51.6 2 2
      vertex 51.6 95 2
    endloop
  endfacet
  facet normal 0 0 1
    outer loop
      vertex 51.6 2 2
      vertex 21 95 2
      vertex 21 2 2
    endloop
  endfacet
  facet normal 1 0 0
    outer loop
      vertex 21 75.379616 68.05957
      vertex 21 95 70
      vertex 21 75.474945 70
    endloop
  endfacet
  facet normal 1 0 0
    outer loop
      vertex 21 75.01963 65.632744
      vertex 21 95 70
      vertex 21 75.379616 68.05957
    endloop
  endfacet
  facet normal 1 0 0
    outer loop
      vertex 21 74.42351 63.252884
      vertex 21 95 70
      vertex 21 75.01963 65.632744
    endloop
  endfacet
  facet normal 1 0 0
    outer loop
      vertex 21 73.596985 60.942913
      vertex 21 95 70
      vertex 21 74.42351 63.252884
    endloop
  endfacet
  facet normal 1 0 0
    outer loop
      vertex 21 72.548035 58.725082
      vertex 21 95 70
      vertex 21 73.596985 60.942913
    endloop
  endfacet
  facet normal 1 0 0
    outer loop
      vertex 21 71.28674 56.620743
      vertex 21 95 70
      vertex 21 72.548035 58.725082
    endloop
  endfacet
  facet normal 1 0 0
    outer loop
      vertex 21 95 70
      vertex 21 71.28674 56.620743
      vertex 21 95 2
    endloop
  endfacet
  facet normal 1 0 0
    outer loop
      vertex 21 69.825264 54.650166
      vertex 21 95 2
      vertex 21 71.28674 56.620743
    endloop
  endfacet
  facet normal 1 0 0
    outer loop
      vertex 21 68.17767 52.83233
      vertex 21 95 2
      vertex 21 69.825264 54.650166
    endloop
  endfacet
  facet normal 1 0 0
    outer loop
      vertex 21 66.35983 51.18474
      vertex 21 95 2
      vertex 21 68.17767 52.83233
    endloop
  endfacet
  facet normal 1 0 0
    outer loop
      vertex 21 64.38925 49.72326
      vertex 21 95 2
      vertex 21 66.35983 51.18474
    endloop
  endfacet
  facet normal 1 0 0
    outer loop
      vertex 21 62.28492 48.461967
      vertex 21 95 2
      vertex 21 64.38925 49.72326
    endloop
  endfacet
  facet normal 1 0 0
    outer loop
      vertex 21 60.067085 47.41301
      vertex 21 95 2
      vertex 21 62.28492 48.461967
    endloop
  endfacet
  facet normal 1 0 0
    outer loop
      vertex 21 57.75712 46.58649
      vertex 21 95 2
      vertex 21 60.067085 47.41301
    endloop
  endfacet
  facet normal 1 0 0
    outer loop
      vertex 21 55.37726 45.990368
      vertex 21 95 2
      vertex 21 57.75712 46.58649
    endloop
  endfacet
  facet normal 1 0 0
    outer loop
      vertex 21 52.950428 45.630383
      vertex 21 95 2
      vertex 21 55.37726 45.990368
    endloop
  endfacet
  facet normal 1 0 0
    outer loop
      vertex 21 50.5 45.51
      vertex 21 95 2
      vertex 21 52.950428 45.630383
    endloop
  endfacet
  facet normal 1 0 0
    outer loop
      vertex 21 2 2
      vertex 21 50.5 45.51
      vertex 21 48.049572 45.630383
    endloop
  endfacet
  facet normal 1 0 0
    outer loop
      vertex 21 2 2
      vertex 21 48.049572 45.630383
      vertex 21 45.62274 45.990368
    endloop
  endfacet
  facet normal 1 0 0
    outer loop
      vertex 21 2 2
      vertex 21 45.62274 45.990368
      vertex 21 43.24288 46.58649
    endloop
  endfacet
  facet normal 1 0 0
    outer loop
      vertex 21 2 2
      vertex 21 43.24288 46.58649
      vertex 21 40.932915 47.41301
    endloop
  endfacet
  facet normal 1 0 0
    outer loop
      vertex 21 2 2
      vertex 21 40.932915 47.41301
      vertex 21 38.71508 48.461967
    endloop
  endfacet
  facet normal 1 0 0
    outer loop
      vertex 21 2 2
      vertex 21 38.71508 48.461967
      vertex 21 36.610744 49.72326
    endloop
  endfacet
  facet normal 1 0 0
    outer loop
      vertex 21 2 2
      vertex 21 36.610744 49.72326
      vertex 21 34.640167 51.18474
    endloop
  endfacet
  facet normal 1 0 0
    outer loop
      vertex 21 2 70
      vertex 21 25.620382 68.05957
      vertex 21 25.525055 70
    endloop
  endfacet
  facet normal 1 0 0
    outer loop
      vertex 21 2 70
      vertex 21 25.98037 65.632744
      vertex 21 25.620382 68.05957
    endloop
  endfacet
  facet normal 1 0 0
    outer loop
      vertex 21 2 70
      vertex 21 26.576492 63.252884
      vertex 21 25.98037 65.632744
    endloop
  endfacet
  facet normal 1 0 0
    outer loop
      vertex 21 2 70
      vertex 21 27.403011 60.942913
      vertex 21 26.576492 63.252884
    endloop
  endfacet
  facet normal 1 0 0
    outer loop
      vertex 21 2 70
      vertex 21 28.45197 58.725082
      vertex 21 27.403011 60.942913
    endloop
  endfacet
  facet normal 1 0 0
    outer loop
      vertex 21 2 70
      vertex 21 29.71326 56.620743
      vertex 21 28.45197 58.725082
    endloop
  endfacet
  facet normal 1 0 0
    outer loop
      vertex 21 2 2
      vertex 21 29.71326 56.620743
      vertex 21 2 70
    endloop
  endfacet
  facet normal 1 0 0
    outer loop
      vertex 21 29.71326 56.620743
      vertex 21 2 2
      vertex 21 31.17474 54.650166
    endloop
  endfacet
  facet normal 1 0 0
    outer loop
      vertex 21 31.17474 54.650166
      vertex 21 2 2
      vertex 21 32.82233 52.83233
    endloop
  endfacet
  facet normal 1 0 0
    outer loop
      vertex 21 32.82233 52.83233
      vertex 21 2 2
      vertex 21 34.640167 51.18474
    endloop
  endfacet
  facet normal 1 0 0
    outer loop
      vertex 21 50.5 45.51
      vertex 21 2 2
      vertex 21 95 2
    endloop
  endfacet
  facet normal -1 0 0
    outer loop
      vertex 51.6 71.28674 56.620743
      vertex 51.6 95 70
      vertex 51.6 95 2
    endloop
  endfacet
  facet normal -1 0 0
    outer loop
      vertex 51.6 95 70
      vertex 51.6 75.379616 68.05957
      vertex 51.6 75.474945 70
    endloop
  endfacet
  facet normal -1 0 0
    outer loop
      vertex 51.6 95 70
      vertex 51.6 75.01963 65.632744
      vertex 51.6 75.379616 68.05957
    endloop
  endfacet
  facet normal -1 0 0
    outer loop
      vertex 51.6 95 70
      vertex 51.6 74.42351 63.252884
      vertex 51.6 75.01963 65.632744
    endloop
  endfacet
  facet normal -1 0 0
    outer loop
      vertex 51.6 95 70
      vertex 51.6 73.596985 60.942913
      vertex 51.6 74.42351 63.252884
    endloop
  endfacet
  facet normal -1 0 0
    outer loop
      vertex 51.6 95 70
      vertex 51.6 72.548035 58.725082
      vertex 51.6 73.596985 60.942913
    endloop
  endfacet
  facet normal -1 0 0
    outer loop
      vertex 51.6 95 70
      vertex 51.6 71.28674 56.620743
      vertex 51.6 72.548035 58.725082
    endloop
  endfacet
  facet normal -1 0 0
    outer loop
      vertex 51.6 95 2
      vertex 51.6 69.825264 54.650166
      vertex 51.6 71.28674 56.620743
    endloop
  endfacet
  facet normal -1 0 0
    outer loop
      vertex 51.6 95 2
      vertex 51.6 68.17767 52.83233
      vertex 51.6 69.825264 54.650166
    endloop
  endfacet
  facet normal -1 0 0
    outer loop
      vertex 51.6 95 2
      vertex 51.6 66.35983 51.18474
      vertex 51.6 68.17767 52.83233
    endloop
  endfacet
  facet normal -1 0 0
    outer loop
      vertex 51.6 95 2
      vertex 51.6 64.38925 49.72326
      vertex 51.6 66.35983 51.18474
    endloop
  endfacet
  facet normal -1 0 0
    outer loop
      vertex 51.6 95 2
      vertex 51.6 62.28492 48.461967
      vertex 51.6 64.38925 49.72326
    endloop
  endfacet
  facet normal -1 0 0
    outer loop
      vertex 51.6 95 2
      vertex 51.6 60.067085 47.41301
      vertex 51.6 62.28492 48.461967
    endloop
  endfacet
  facet normal -1 0 0
    outer loop
      vertex 51.6 95 2
      vertex 51.6 57.75712 46.58649
      vertex 51.6 60.067085 47.41301
    endloop
  endfacet
  facet normal -1 0 0
    outer loop
      vertex 51.6 95 2
      vertex 51.6 55.37726 45.990368
      vertex 51.6 57.75712 46.58649
    endloop
  endfacet
  facet normal -1 0 0
    outer loop
      vertex 51.6 95 2
      vertex 51.6 52.950428 45.630383
      vertex 51.6 55.37726 45.990368
    endloop
  endfacet
  facet normal -1 0 0
    outer loop
      vertex 51.6 95 2
      vertex 51.6 50.5 45.51
      vertex 51.6 52.950428 45.630383
    endloop
  endfacet
  facet normal -1 0 0
    outer loop
      vertex 51.6 2 2
      vertex 51.6 50.5 45.51
      vertex 51.6 95 2
    endloop
  endfacet
  facet normal -1 0 0
    outer loop
      vertex 51.6 50.5 45.51
      vertex 51.6 2 2
      vertex 51.6 48.049572 45.630383
    endloop
  endfacet
  facet normal -1 0 0
    outer loop
      vertex 51.6 48.049572 45.630383
      vertex 51.6 2 2
      vertex 51.6 45.62274 45.990368
    endloop
  endfacet
  facet normal -1 0 0
    outer loop
      vertex 51.6 45.62274 45.990368
      vertex 51.6 2 2
      vertex 51.6 43.24288 46.58649
    endloop
  endfacet
  facet normal -1 0 0
    outer loop
      vertex 51.6 43.24288 46.58649
      vertex 51.6 2 2
      vertex 51.6 40.932915 47.41301
    endloop
  endfacet
  facet normal -1 0 0
    outer loop
      vertex 51.6 40.932915 47.41301
      vertex 51.6 2 2
      vertex 51.6 38.71508 48.461967
    endloop
  endfacet
  facet normal -1 0 0
    outer loop
      vertex 51.6 38.71508 48.461967
      vertex 51.6 2 2
      vertex 51.6 36.610744 49.72326
    endloop
  endfacet
  facet normal -1 0 0
    outer loop
      vertex 51.6 36.610744 49.72326
      vertex 51.6 2 2
      vertex 51.6 34.640167 51.18474
    endloop
  endfacet
  facet normal -1 0 0
    outer loop
      vertex 51.6 2 2
      vertex 51.6 32.82233 52.83233
      vertex 51.6 34.640167 51.18474
    endloop
  endfacet
  facet normal -1 0 0
    outer loop
      vertex 51.6 2 2
      vertex 51.6 31.17474 54.650166
      vertex 51.6 32.82233 52.83233
    endloop
  endfacet
  facet normal -1 0 0
    outer loop
      vertex 51.6 2 2
      vertex 51.6 29.71326 56.620743
      vertex 51.6 31.17474 54.650166
    endloop
  endfacet
  facet normal -1 0 0
    outer loop
      vertex 51.6 2 70
      vertex 51.6 29.71326 56.620743
      vertex 51.6 2 2
    endloop
  endfacet
  facet normal -1 0 0
    outer loop
      vertex 51.6 29.71326 56.620743
      vertex 51.6 2 70
      vertex 51.6 28.45197 58.725082
    endloop
  endfacet
  facet normal -1 0 0
    outer loop
      vertex 51.6 28.45197 58.725082
      vertex 51.6 2 70
      vertex 51.6 27.403011 60.942913
    endloop
  endfacet
  facet normal -1 0 0
    outer loop
      vertex 51.6 27.403011 60.942913
      vertex 51.6 2 70
      vertex 51.6 26.576492 63.252884
    endloop
  endfacet
  facet normal -1 0 0
    outer loop
      vertex 51.6 26.576492 63.252884
      vertex 51.6 2 70
      vertex 51.6 25.98037 65.632744
    endloop
  endfacet
  facet normal -1 0 0
    outer loop
      vertex 51.6 25.98037 65.632744
      vertex 51.6 2 70
      vertex 51.6 25.620382 68.05957
    endloop
  endfacet
  facet normal -1 0 0
    outer loop
      vertex 51.6 25.620382 68.05957
      vertex 51.6 2 70
      vertex 51.6 25.525055 70
    endloop
  endfacet
  facet normal 0 -1 0
    outer loop
      vertex 2.5000005 87.5 11
      vertex 19.5 87.5 70
      vertex 2.5000005 87.5 70
    endloop
  endfacet
  facet normal 0 -1 0
    outer loop
      vertex 19.5 87.5 70
      vertex 2.5000005 87.5 11
      vertex 19.5 87.5 11
    endloop
  endfacet
  facet normal 0 0 1
    outer loop
      vertex 2.5000005 87.5 11
      vertex 19.5 9.5 11
      vertex 19.5 87.5 11
    endloop
  endfacet
  facet normal 0 0 1
    outer loop
      vertex 19.5 9.5 11
      vertex 2.5000005 87.5 11
      vertex 2.5000005 9.5 11
    endloop
  endfacet
  facet normal 0 1 0
    outer loop
      vertex 19.5 9.5 11
      vertex 2.5000005 9.5 70
      vertex 19.5 9.5 70
    endloop
  endfacet
  facet normal 0 1 0
    outer loop
      vertex 2.5000005 9.5 70
      vertex 19.5 9.5 11
      vertex 2.5000005 9.5 11
    endloop
  endfacet
  facet normal 1 0 0
    outer loop
      vertex 2.5000005 75.379616 68.05957
      vertex 2.5000005 87.5 70
      vertex 2.5000005 75.474945 70
    endloop
  endfacet
  facet normal 1 0 0
    outer loop
      vertex 2.5000005 75.01963 65.632744
      vertex 2.5000005 87.5 70
      vertex 2.5000005 75.379616 68.05957
    endloop
  endfacet
  facet normal 1 0 0
    outer loop
      vertex 2.5000005 74.42351 63.252884
      vertex 2.5000005 87.5 70
      vertex 2.5000005 75.01963 65.632744
    endloop
  endfacet
  facet normal 1 0 0
    outer loop
      vertex 2.5000005 73.596985 60.942913
      vertex 2.5000005 87.5 70
      vertex 2.5000005 74.42351 63.252884
    endloop
  endfacet
  facet normal 1 0 0
    outer loop
      vertex 2.5000005 72.548035 58.725082
      vertex 2.5000005 87.5 70
      vertex 2.5000005 73.596985 60.942913
    endloop
  endfacet
  facet normal 1 0 0
    outer loop
      vertex 2.5000005 71.28674 56.620743
      vertex 2.5000005 87.5 70
      vertex 2.5000005 72.548035 58.725082
    endloop
  endfacet
  facet normal 1 0 0
    outer loop
      vertex 2.5000005 87.5 70
      vertex 2.5000005 71.28674 56.620743
      vertex 2.5000005 87.5 11
    endloop
  endfacet
  facet normal 1 0 0
    outer loop
      vertex 2.5000005 69.825264 54.650166
      vertex 2.5000005 87.5 11
      vertex 2.5000005 71.28674 56.620743
    endloop
  endfacet
  facet normal 1 0 0
    outer loop
      vertex 2.5000005 68.17767 52.83233
      vertex 2.5000005 87.5 11
      vertex 2.5000005 69.825264 54.650166
    endloop
  endfacet
  facet normal 1 0 0
    outer loop
      vertex 2.5000005 66.35983 51.18474
      vertex 2.5000005 87.5 11
      vertex 2.5000005 68.17767 52.83233
    endloop
  endfacet
  facet normal 1 0 0
    outer loop
      vertex 2.5000005 64.38925 49.72326
      vertex 2.5000005 87.5 11
      vertex 2.5000005 66.35983 51.18474
    endloop
  endfacet
  facet normal 1 0 0
    outer loop
      vertex 2.5000005 62.28492 48.461967
      vertex 2.5000005 87.5 11
      vertex 2.5000005 64.38925 49.72326
    endloop
  endfacet
  facet normal 1 0 0
    outer loop
      vertex 2.5000005 60.067085 47.41301
      vertex 2.5000005 87.5 11
      vertex 2.5000005 62.28492 48.461967
    endloop
  endfacet
  facet normal 1 0 0
    outer loop
      vertex 2.5000005 57.75712 46.58649
      vertex 2.5000005 87.5 11
      vertex 2.5000005 60.067085 47.41301
    endloop
  endfacet
  facet normal 1 0 0
    outer loop
      vertex 2.5000005 55.37726 45.990368
      vertex 2.5000005 87.5 11
      vertex 2.5000005 57.75712 46.58649
    endloop
  endfacet
  facet normal 1 0 0
    outer loop
      vertex 2.5000005 52.950428 45.630383
      vertex 2.5000005 87.5 11
      vertex 2.5000005 55.37726 45.990368
    endloop
  endfacet
  facet normal 1 0 0
    outer loop
      vertex 2.5000005 50.5 45.51
      vertex 2.5000005 87.5 11
      vertex 2.5000005 52.950428 45.630383
    endloop
  endfacet
  facet normal 1 0 0
    outer loop
      vertex 2.5000005 9.5 11
      vertex 2.5000005 50.5 45.51
      vertex 2.5000005 48.049572 45.630383
    endloop
  endfacet
  facet normal 1 0 0
    outer loop
      vertex 2.5000005 9.5 11
      vertex 2.5000005 48.049572 45.630383
      vertex 2.5000005 45.62274 45.990368
    endloop
  endfacet
  facet normal 1 0 0
    outer loop
      vertex 2.5000005 9.5 11
      vertex 2.5000005 45.62274 45.990368
      vertex 2.5000005 43.24288 46.58649
    endloop
  endfacet
  facet normal 1 0 0
    outer loop
      vertex 2.5000005 9.5 11
      vertex 2.5000005 43.24288 46.58649
      vertex 2.5000005 40.932915 47.41301
    endloop
  endfacet
  facet normal 1 0 0
    outer loop
      vertex 2.5000005 9.5 11
      vertex 2.5000005 40.932915 47.41301
      vertex 2.5000005 38.71508 48.461967
    endloop
  endfacet
  facet normal 1 0 0
    outer loop
      vertex 2.5000005 9.5 11
      vertex 2.5000005 38.71508 48.461967
      vertex 2.5000005 36.610744 49.72326
    endloop
  endfacet
  facet normal 1 0 0
    outer loop
      vertex 2.5000005 9.5 11
      vertex 2.5000005 36.610744 49.72326
      vertex 2.5000005 34.640167 51.18474
    endloop
  endfacet
  facet normal 1 0 0
    outer loop
      vertex 2.5000005 9.5 70
      vertex 2.5000005 25.620382 68.05957
      vertex 2.5000005 25.525055 70
    endloop
  endfacet
  facet normal 1 0 0
    outer loop
      vertex 2.5000005 9.5 70
      vertex 2.5000005 25.98037 65.632744
      vertex 2.5000005 25.620382 68.05957
    endloop
  endfacet
  facet normal 1 0 0
    outer loop
      vertex 2.5000005 9.5 70
      vertex 2.5000005 26.576492 63.252884
      vertex 2.5000005 25.98037 65.632744
    endloop
  endfacet
  facet normal 1 0 0
    outer loop
      vertex 2.5000005 9.5 70
      vertex 2.5000005 27.403011 60.942913
      vertex 2.5000005 26.576492 63.252884
    endloop
  endfacet
  facet normal 1 0 0
    outer loop
      vertex 2.5000005 9.5 70
      vertex 2.5000005 28.45197 58.725082
      vertex 2.5000005 27.403011 60.942913
    endloop
  endfacet
  facet normal 1 0 0
    outer loop
      vertex 2.5000005 9.5 70
      vertex 2.5000005 29.71326 56.620743
      vertex 2.5000005 28.45197 58.725082
    endloop
  endfacet
  facet normal 1 0 0
    outer loop
      vertex 2.5000005 9.5 11
      vertex 2.5000005 29.71326 56.620743
      vertex 2.5000005 9.5 70
    endloop
  endfacet
  facet normal 1 0 0
    outer loop
      vertex 2.5000005 29.71326 56.620743
      vertex 2.5000005 9.5 11
      vertex 2.5000005 31.17474 54.650166
    endloop
  endfacet
  facet normal 1 0 0
    outer loop
      vertex 2.5000005 31.17474 54.650166
      vertex 2.5000005 9.5 11
      vertex 2.5000005 32.82233 52.83233
    endloop
  endfacet
  facet normal 1 0 0
    outer loop
      vertex 2.5000005 32.82233 52.83233
      vertex 2.5000005 9.5 11
      vertex 2.5000005 34.640167 51.18474
    endloop
  endfacet
  facet normal 1 0 0
    outer loop
      vertex 2.5000005 50.5 45.51
      vertex 2.5000005 9.5 11
      vertex 2.5000005 87.5 11
    endloop
  endfacet
  facet normal -1 0 0
    outer loop
      vertex 19.5 71.28674 56.620743
      vertex 19.5 87.5 70
      vertex 19.5 87.5 11
    endloop
  endfacet
  facet normal -1 0 0
    outer loop
      vertex 19.5 87.5 70
      vertex 19.5 75.379616 68.05957
      vertex 19.5 75.474945 70
    endloop
  endfacet
  facet normal -1 0 0
    outer loop
      vertex 19.5 87.5 70
      vertex 19.5 75.01963 65.632744
      vertex 19.5 75.379616 68.05957
    endloop
  endfacet
  facet normal -1 0 0
    outer loop
      vertex 19.5 87.5 70
      vertex 19.5 74.42351 63.252884
      vertex 19.5 75.01963 65.632744
    endloop
  endfacet
  facet normal -1 0 0
    outer loop
      vertex 19.5 87.5 70
      vertex 19.5 73.596985 60.942913
      vertex 19.5 74.42351 63.252884
    endloop
  endfacet
  facet normal -1 0 0
    outer loop
      vertex 19.5 87.5 70
      vertex 19.5 72.548035 58.725082
      vertex 19.5 73.596985 60.942913
    endloop
  endfacet
  facet normal -1 0 0
    outer loop
      vertex 19.5 87.5 70
      vertex 19.5 71.28674 56.620743
      vertex 19.5 72.548035 58.725082
    endloop
  endfacet
  facet normal -1 0 0
    outer loop
      vertex 19.5 87.5 11
      vertex 19.5 69.825264 54.650166
      vertex 19.5 71.28674 56.620743
    endloop
  endfacet
  facet normal -1 0 0
    outer loop
      vertex 19.5 87.5 11
      vertex 19.5 68.17767 52.83233
      vertex 19.5 69.825264 54.650166
    endloop
  endfacet
  facet normal -1 0 0
    outer loop
      vertex 19.5 87.5 11
      vertex 19.5 66.35983 51.18474
      vertex 19.5 68.17767 52.83233
    endloop
  endfacet
  facet normal -1 0 0
    outer loop
      vertex 19.5 87.5 11
      vertex 19.5 64.38925 49.72326
      vertex 19.5 66.35983 51.18474
    endloop
  endfacet
  facet normal -1 0 0
    outer loop
      vertex 19.5 87.5 11
      vertex 19.5 62.28492 48.461967
      vertex 19.5 64.38925 49.72326
    endloop
  endfacet
  facet normal -1 0 0
    outer loop
      vertex 19.5 87.5 11
      vertex 19.5 60.067085 47.41301
      vertex 19.5 62.28492 48.461967
    endloop
  endfacet
  facet normal -1 0 0
    outer loop
      vertex 19.5 87.5 11
      vertex 19.5 57.75712 46.58649
      vertex 19.5 60.067085 47.41301
    endloop
  endfacet
  facet normal -1 0 0
    outer loop
      vertex 19.5 87.5 11
      vertex 19.5 55.37726 45.990368
      vertex 19.5 57.75712 46.58649
    endloop
  endfacet
  facet normal -1 0 0
    outer loop
      vertex 19.5 87.5 11
      vertex 19.5 52.950428 45.630383
      vertex 19.5 55.37726 45.990368
    endloop
  endfacet
  facet normal -1 0 0
    outer loop
      vertex 19.5 87.5 11
      vertex 19.5 50.5 45.51
      vertex 19.5 52.950428 45.630383
    endloop
  endfacet
  facet normal -1 0 0
    outer loop
      vertex 19.5 9.5 11
      vertex 19.5 50.5 45.51
      vertex 19.5 87.5 11
    endloop
  endfacet
  facet normal -1 0 0
    outer loop
      vertex 19.5 50.5 45.51
      vertex 19.5 9.5 11
      vertex 19.5 48.049572 45.630383
    endloop
  endfacet
  facet normal -1 0 0
    outer loop
      vertex 19.5 48.049572 45.630383
      vertex 19.5 9.5 11
      vertex 19.5 45.62274 45.990368
    endloop
  endfacet
  facet normal -1 0 0
    outer loop
      vertex 19.5 45.62274 45.990368
      vertex 19.5 9.5 11
      vertex 19.5 43.24288 46.58649
    endloop
  endfacet
  facet normal -1 0 0
    outer loop
      vertex 19.5 43.24288 46.58649
      vertex 19.5 9.5 11
      vertex 19.5 40.932915 47.41301
    endloop
  endfacet
  facet normal -1 0 0
    outer loop
      vertex 19.5 40.932915 47.41301
      vertex 19.5 9.5 11
      vertex 19.5 38.71508 48.461967
    endloop
  endfacet
  facet normal -1 0 0
    outer loop
      vertex 19.5 38.71508 48.461967
      vertex 19.5 9.5 11
      vertex 19.5 36.610744 49.72326
    endloop
  endfacet
  facet normal -1 0 0
    outer loop
      vertex 19.5 36.610744 49.72326
      vertex 19.5 9.5 11
      vertex 19.5 34.640167 51.18474
    endloop
  endfacet
  facet normal -1 0 0
    outer loop
      vertex 19.5 9.5 11
      vertex 19.5 32.82233 52.83233
      vertex 19.5 34.640167 51.18474
    endloop
  endfacet
  facet normal -1 0 0
    outer loop
      vertex 19.5 9.5 11
      vertex 19.5 31.17474 54.650166
      vertex 19.5 32.82233 52.83233
    endloop
  endfacet
  facet normal -1 0 0
    outer loop
      vertex 19.5 9.5 11
      vertex 19.5 29.71326 56.620743
      vertex 19.5 31.17474 54.650166
    endloop
  endfacet
  facet normal -1 0 0
    outer loop
      vertex 19.5 9.5 70
      vertex 19.5 29.71326 56.620743
      vertex 19.5 9.5 11
    endloop
  endfacet
  facet normal -1 0 0
    outer loop
      vertex 19.5 29.71326 56.620743
      vertex 19.5 9.5 70
      vertex 19.5 28.45197 58.725082
    endloop
  endfacet
  facet normal -1 0 0
    outer loop
      vertex 19.5 28.45197 58.725082
      vertex 19.5 9.5 70
      vertex 19.5 27.403011 60.942913
    endloop
  endfacet
  facet normal -1 0 0
    outer loop
      vertex 19.5 27.403011 60.942913
      vertex 19.5 9.5 70
      vertex 19.5 26.576492 63.252884
    endloop
  endfacet
  facet normal -1 0 0
    outer loop
      vertex 19.5 26.576492 63.252884
      vertex 19.5 9.5 70
      vertex 19.5 25.98037 65.632744
    endloop
  endfacet
  facet normal -1 0 0
    outer loop
      vertex 19.5 25.98037 65.632744
      vertex 19.5 9.5 70
      vertex 19.5 25.620382 68.05957
    endloop
  endfacet
  facet normal -1 0 0
    outer loop
      vertex 19.5 25.620382 68.05957
      vertex 19.5 9.5 70
      vertex 19.5 25.525055 70
    endloop
  endfacet
  facet normal 0.3826833 -0.92387956 0
    outer loop
      vertex 51.6 0 0
      vertex 53.014214 0.5857868 73
      vertex 51.6 0 73
    endloop
  endfacet
  facet normal 0.3826833 -0.92387956 0
    outer loop
      vertex 53.014214 0.5857868 73
      vertex 51.6 0 0
      vertex 53.014214 0.5857868 0
    endloop
  endfacet
  facet normal -1 0 0
    outer loop
      vertex 5.722046e-7 71.28674 56.620743
      vertex 5.722046e-7 95 73
      vertex 5.722046e-7 95 0
    endloop
  endfacet
  facet normal -1 0 0
    outer loop
      vertex 5.722046e-7 95 73
      vertex 5.722046e-7 75.379616 68.05957
      vertex 5.722046e-7 75.5 70.51
    endloop
  endfacet
  facet normal -1 0 0
    outer loop
      vertex 5.722046e-7 95 73
      vertex 5.722046e-7 75.01963 65.632744
      vertex 5.722046e-7 75.379616 68.05957
    endloop
  endfacet
  facet normal -1 0 0
    outer loop
      vertex 5.722046e-7 95 73
      vertex 5.722046e-7 74.42351 63.252884
      vertex 5.722046e-7 75.01963 65.632744
    endloop
  endfacet
  facet normal -1 0 0
    outer loop
      vertex 5.722046e-7 95 73
      vertex 5.722046e-7 73.596985 60.942913
      vertex 5.722046e-7 74.42351 63.252884
    endloop
  endfacet
  facet normal -1 0 0
    outer loop
      vertex 5.722046e-7 95 73
      vertex 5.722046e-7 72.548035 58.725082
      vertex 5.722046e-7 73.596985 60.942913
    endloop
  endfacet
  facet normal -1 0 0
    outer loop
      vertex 5.722046e-7 95 73
      vertex 5.722046e-7 71.28674 56.620743
      vertex 5.722046e-7 72.548035 58.725082
    endloop
  endfacet
  facet normal -1 0 0
    outer loop
      vertex 5.722046e-7 95 0
      vertex 5.722046e-7 69.825264 54.650166
      vertex 5.722046e-7 71.28674 56.620743
    endloop
  endfacet
  facet normal -1 0 0
    outer loop
      vertex 5.722046e-7 95 0
      vertex 5.722046e-7 68.17767 52.83233
      vertex 5.722046e-7 69.825264 54.650166
    endloop
  endfacet
  facet normal -1 0 0
    outer loop
      vertex 5.722046e-7 95 0
      vertex 5.722046e-7 66.35983 51.18474
      vertex 5.722046e-7 68.17767 52.83233
    endloop
  endfacet
  facet normal -1 0 0
    outer loop
      vertex 5.722046e-7 95 0
      vertex 5.722046e-7 64.38925 49.72326
      vertex 5.722046e-7 66.35983 51.18474
    endloop
  endfacet
  facet normal -1 0 0
    outer loop
      vertex 5.722046e-7 95 0
      vertex 5.722046e-7 62.28492 48.461967
      vertex 5.722046e-7 64.38925 49.72326
    endloop
  endfacet
  facet normal -1 0 0
    outer loop
      vertex 5.722046e-7 95 0
      vertex 5.722046e-7 60.067085 47.41301
      vertex 5.722046e-7 62.28492 48.461967
    endloop
  endfacet
  facet normal -1 0 0
    outer loop
      vertex 5.722046e-7 95 0
      vertex 5.722046e-7 57.75712 46.58649
      vertex 5.722046e-7 60.067085 47.41301
    endloop
  endfacet
  facet normal -1 0 0
    outer loop
      vertex 5.722046e-7 95 0
      vertex 5.722046e-7 55.37726 45.990368
      vertex 5.722046e-7 57.75712 46.58649
    endloop
  endfacet
  facet normal -1 0 0
    outer loop
      vertex 5.722046e-7 95 0
      vertex 5.722046e-7 52.950428 45.630383
      vertex 5.722046e-7 55.37726 45.990368
    endloop
  endfacet
  facet normal -1 0 0
    outer loop
      vertex 5.722046e-7 95 0
      vertex 5.722046e-7 50.5 45.51
      vertex 5.722046e-7 52.950428 45.630383
    endloop
  endfacet
  facet normal -1 0 0
    outer loop
      vertex 5.722046e-7 2 0
      vertex 5.722046e-7 50.5 45.51
      vertex 5.722046e-7 95 0
    endloop
  endfacet
  facet normal -1 0 0
    outer loop
      vertex 5.722046e-7 50.5 45.51
      vertex 5.722046e-7 2 0
      vertex 5.722046e-7 48.049572 45.630383
    endloop
  endfacet
  facet normal -1 0 0
    outer loop
      vertex 5.722046e-7 48.049572 45.630383
      vertex 5.722046e-7 2 0
      vertex 5.722046e-7 45.62274 45.990368
    endloop
  endfacet
  facet normal -1 0 0
    outer loop
      vertex 5.722046e-7 45.62274 45.990368
      vertex 5.722046e-7 2 0
      vertex 5.722046e-7 43.24288 46.58649
    endloop
  endfacet
  facet normal -1 0 0
    outer loop
      vertex 5.722046e-7 43.24288 46.58649
      vertex 5.722046e-7 2 0
      vertex 5.722046e-7 40.932915 47.41301
    endloop
  endfacet
  facet normal -1 0 0
    outer loop
      vertex 5.722046e-7 40.932915 47.41301
      vertex 5.722046e-7 2 0
      vertex 5.722046e-7 38.71508 48.461967
    endloop
  endfacet
  facet normal -1 0 0
    outer loop
      vertex 5.722046e-7 38.71508 48.461967
      vertex 5.722046e-7 2 0
      vertex 5.722046e-7 36.610744 49.72326
    endloop
  endfacet
  facet normal -1 0 0
    outer loop
      vertex 5.722046e-7 36.610744 49.72326
      vertex 5.722046e-7 2 0
      vertex 5.722046e-7 34.640167 51.18474
    endloop
  endfacet
  facet normal -1 0 0
    outer loop
      vertex 5.722046e-7 2 0
      vertex 5.722046e-7 32.82233 52.83233
      vertex 5.722046e-7 34.640167 51.18474
    endloop
  endfacet
  facet normal -1 0 0
    outer loop
      vertex 5.722046e-7 2 0
      vertex 5.722046e-7 31.17474 54.650166
      vertex 5.722046e-7 32.82233 52.83233
    endloop
  endfacet
  facet normal -1 0 0
    outer loop
      vertex 5.722046e-7 2 0
      vertex 5.722046e-7 29.71326 56.620743
      vertex 5.722046e-7 31.17474 54.650166
    endloop
  endfacet
  facet normal -1 0 0
    outer loop
      vertex 5.722046e-7 2 73
      vertex 5.722046e-7 29.71326 56.620743
      vertex 5.722046e-7 2 0
    endloop
  endfacet
  facet normal -1 0 0
    outer loop
      vertex 5.722046e-7 29.71326 56.620743
      vertex 5.722046e-7 2 73
      vertex 5.722046e-7 28.45197 58.725082
    endloop
  endfacet
  facet normal -1 0 0
    outer loop
      vertex 5.722046e-7 28.45197 58.725082
      vertex 5.722046e-7 2 73
      vertex 5.722046e-7 27.403011 60.942913
    endloop
  endfacet
  facet normal -1 0 0
    outer loop
      vertex 5.722046e-7 27.403011 60.942913
      vertex 5.722046e-7 2 73
      vertex 5.722046e-7 26.576492 63.252884
    endloop
  endfacet
  facet normal -1 0 0
    outer loop
      vertex 5.722046e-7 26.576492 63.252884
      vertex 5.722046e-7 2 73
      vertex 5.722046e-7 25.98037 65.632744
    endloop
  endfacet
  facet normal -1 0 0
    outer loop
      vertex 5.722046e-7 25.98037 65.632744
      vertex 5.722046e-7 2 73
      vertex 5.722046e-7 25.620382 68.05957
    endloop
  endfacet
  facet normal -1 0 0
    outer loop
      vertex 5.722046e-7 25.620382 68.05957
      vertex 5.722046e-7 2 73
      vertex 5.722046e-7 25.5 70.51
    endloop
  endfacet
  facet normal -1 0 0
    outer loop
      vertex 5.722046e-7 25.5 70.51
      vertex 5.722046e-7 2 73
      vertex 5.722046e-7 25.5 73
    endloop
  endfacet
  facet normal -1 0 0
    outer loop
      vertex 5.722046e-7 95 73
      vertex 5.722046e-7 75.5 70.51
      vertex 5.722046e-7 75.5 73
    endloop
  endfacet
  facet normal 0 0 1
    outer loop
      vertex 51.6 97 73
      vertex 53.6 95 73
      vertex 53.014214 96.414215 73
    endloop
  endfacet
  facet normal 0 0 1
    outer loop
      vertex 1.8000008 95 73
      vertex 51.6 97 73
      vertex 2.0000005 97 73
    endloop
  endfacet
  facet normal 0 0 1
    outer loop
      vertex 51.6 97 73
      vertex 1.8000008 95 73
      vertex 53.6 95 73
    endloop
  endfacet
  facet normal 0 0 1
    outer loop
      vertex 0.5857874 96.414215 73
      vertex 1.8000008 95 73
      vertex 2.0000005 97 73
    endloop
  endfacet
  facet normal 0 0 1
    outer loop
      vertex 5.722046e-7 95 73
      vertex 1.8000008 95 73
      vertex 0.5857874 96.414215 73
    endloop
  endfacet
  facet normal 0 0 1
    outer loop
      vertex 1.8000008 95 73
      vertex 5.722046e-7 95 73
      vertex 1.8000008 75.5 73
    endloop
  endfacet
  facet normal 0 0 1
    outer loop
      vertex 1.8000008 75.5 73
      vertex 5.722046e-7 95 73
      vertex 5.722046e-7 75.5 73
    endloop
  endfacet
  facet normal 0 0 1
    outer loop
      vertex 5.722046e-7 2 73
      vertex 1.8000008 2 73
      vertex 1.8000008 25.5 73
    endloop
  endfacet
  facet normal 0 0 1
    outer loop
      vertex 5.722046e-7 2 73
      vertex 1.8000008 25.5 73
      vertex 5.722046e-7 25.5 73
    endloop
  endfacet
  facet normal 0 0 1
    outer loop
      vertex 1.8000008 2 73
      vertex 5.722046e-7 2 73
      vertex 0.5857874 0.5857868 73
    endloop
  endfacet
  facet normal 0 0 1
    outer loop
      vertex 53.6 2 73
      vertex 51.6 0 73
      vertex 53.014214 0.5857868 73
    endloop
  endfacet
  facet normal 0 0 1
    outer loop
      vertex 1.8000008 2 73
      vertex 51.6 0 73
      vertex 53.6 2 73
    endloop
  endfacet
  facet normal 0 0 1
    outer loop
      vertex 51.6 0 73
      vertex 1.8000008 2 73
      vertex 2.0000005 0 73
    endloop
  endfacet
  facet normal 0 0 1
    outer loop
      vertex 2.0000005 0 73
      vertex 1.8000008 2 73
      vertex 0.5857874 0.5857868 73
    endloop
  endfacet
  facet normal 0.92388153 -0.38267863 0
    outer loop
      vertex 53.6 2 73
      vertex 53.392895 1.5 71.5
      vertex 53.6 2 71.5
    endloop
  endfacet
  facet normal 0.92387986 -0.38268268 0.0000015819929
    outer loop
      vertex 53.014214 0.5857868 73
      vertex 53.392895 1.5 71.5
      vertex 53.6 2 73
    endloop
  endfacet
  facet normal 0.9238788 -0.38268518 0
    outer loop
      vertex 53.185787 1 71
      vertex 53.014214 0.5857868 73
      vertex 53.185787 1 70
    endloop
  endfacet
  facet normal 0.92387897 -0.38268474 1.10952264e-7
    outer loop
      vertex 53.392895 1.5 71.5
      vertex 53.014214 0.5857868 73
      vertex 53.185787 1 71
    endloop
  endfacet
  facet normal 0.9238803 -0.38268164 0
    outer loop
      vertex 53.185787 1 70
      vertex 53.6 2 0
      vertex 53.6 2 70
    endloop
  endfacet
  facet normal 0.9238788 -0.38268518 0
    outer loop
      vertex 53.014214 0.5857868 0
      vertex 53.185787 1 70
      vertex 53.014214 0.5857868 73
    endloop
  endfacet
  facet normal 0.92387986 -0.38268268 -1.745224e-8
    outer loop
      vertex 53.185787 1 70
      vertex 53.014214 0.5857868 0
      vertex 53.6 2 0
    endloop
  endfacet
  facet normal 0.38268223 0.92388004 0
    outer loop
      vertex 53.014214 96.414215 0
      vertex 51.6 97 73
      vertex 53.014214 96.414215 73
    endloop
  endfacet
  facet normal 0.38268223 0.92388004 0
    outer loop
      vertex 51.6 97 73
      vertex 53.014214 96.414215 0
      vertex 51.6 97 0
    endloop
  endfacet
  facet normal 0 1 0
    outer loop
      vertex 51.6 97 0
      vertex 2.0000005 97 73
      vertex 51.6 97 73
    endloop
  endfacet
  facet normal 0 1 0
    outer loop
      vertex 2.0000005 97 73
      vertex 51.6 97 0
      vertex 2.0000005 97 0
    endloop
  endfacet
  facet normal -0.92387956 0.3826833 0
    outer loop
      vertex 5.722046e-7 95 0
      vertex 0.5857874 96.414215 73
      vertex 0.5857874 96.414215 0
    endloop
  endfacet
  facet normal -0.92387956 0.3826833 0
    outer loop
      vertex 0.5857874 96.414215 73
      vertex 5.722046e-7 95 0
      vertex 5.722046e-7 95 73
    endloop
  endfacet
  facet normal 0.92387944 0.3826837 0
    outer loop
      vertex 53.185787 96 70
      vertex 53.014214 96.414215 73
      vertex 53.185787 96 71
    endloop
  endfacet
  facet normal 0.9238791 0.38268447 -1.9138751e-7
    outer loop
      vertex 53.014214 96.414215 73
      vertex 53.392895 95.5 71.5
      vertex 53.185787 96 71
    endloop
  endfacet
  facet normal 0.92388004 0.38268223 0.0000014099521
    outer loop
      vertex 53.6 95 73
      vertex 53.392895 95.5 71.5
      vertex 53.014214 96.414215 73
    endloop
  endfacet
  facet normal 0.92388153 0.38267863 0
    outer loop
      vertex 53.392895 95.5 71.5
      vertex 53.6 95 73
      vertex 53.6 95 71.5
    endloop
  endfacet
  facet normal 0.92387944 0.3826837 0
    outer loop
      vertex 53.014214 96.414215 73
      vertex 53.185787 96 70
      vertex 53.014214 96.414215 0
    endloop
  endfacet
  facet normal 0.9238803 0.38268164 -1.42539545e-8
    outer loop
      vertex 53.6 95 70
      vertex 53.014214 96.414215 0
      vertex 53.185787 96 70
    endloop
  endfacet
  facet normal 0.92388004 0.38268223 0
    outer loop
      vertex 53.014214 96.414215 0
      vertex 53.6 95 70
      vertex 53.6 95 0
    endloop
  endfacet
  facet normal 1 0 0
    outer loop
      vertex 53.6 75.379616 68.05957
      vertex 53.6 95 70
      vertex 53.6 75.474945 70
    endloop
  endfacet
  facet normal 1 0 0
    outer loop
      vertex 53.6 75.01963 65.632744
      vertex 53.6 95 70
      vertex 53.6 75.379616 68.05957
    endloop
  endfacet
  facet normal 1 0 0
    outer loop
      vertex 53.6 74.42351 63.252884
      vertex 53.6 95 70
      vertex 53.6 75.01963 65.632744
    endloop
  endfacet
  facet normal 1 0 0
    outer loop
      vertex 53.6 73.596985 60.942913
      vertex 53.6 95 70
      vertex 53.6 74.42351 63.252884
    endloop
  endfacet
  facet normal 1 0 0
    outer loop
      vertex 53.6 72.548035 58.725082
      vertex 53.6 95 70
      vertex 53.6 73.596985 60.942913
    endloop
  endfacet
  facet normal 1 0 0
    outer loop
      vertex 53.6 71.28674 56.620743
      vertex 53.6 95 70
      vertex 53.6 72.548035 58.725082
    endloop
  endfacet
  facet normal 1 0 0
    outer loop
      vertex 53.6 95 70
      vertex 53.6 71.28674 56.620743
      vertex 53.6 95 0
    endloop
  endfacet
  facet normal 1 0 0
    outer loop
      vertex 53.6 69.825264 54.650166
      vertex 53.6 95 0
      vertex 53.6 71.28674 56.620743
    endloop
  endfacet
  facet normal 1 0 0
    outer loop
      vertex 53.6 68.17767 52.83233
      vertex 53.6 95 0
      vertex 53.6 69.825264 54.650166
    endloop
  endfacet
  facet normal 1 0 0
    outer loop
      vertex 53.6 66.35983 51.18474
      vertex 53.6 95 0
      vertex 53.6 68.17767 52.83233
    endloop
  endfacet
  facet normal 1 0 0
    outer loop
      vertex 53.6 64.38925 49.72326
      vertex 53.6 95 0
      vertex 53.6 66.35983 51.18474
    endloop
  endfacet
  facet normal 1 0 0
    outer loop
      vertex 53.6 62.28492 48.461967
      vertex 53.6 95 0
      vertex 53.6 64.38925 49.72326
    endloop
  endfacet
  facet normal 1 0 0
    outer loop
      vertex 53.6 60.067085 47.41301
      vertex 53.6 95 0
      vertex 53.6 62.28492 48.461967
    endloop
  endfacet
  facet normal 1 0 0
    outer loop
      vertex 53.6 57.75712 46.58649
      vertex 53.6 95 0
      vertex 53.6 60.067085 47.41301
    endloop
  endfacet
  facet normal 1 0 0
    outer loop
      vertex 53.6 55.37726 45.990368
      vertex 53.6 95 0
      vertex 53.6 57.75712 46.58649
    endloop
  endfacet
  facet normal 1 0 0
    outer loop
      vertex 53.6 52.950428 45.630383
      vertex 53.6 95 0
      vertex 53.6 55.37726 45.990368
    endloop
  endfacet
  facet normal 1 0 0
    outer loop
      vertex 53.6 50.5 45.51
      vertex 53.6 95 0
      vertex 53.6 52.950428 45.630383
    endloop
  endfacet
  facet normal 1 0 0
    outer loop
      vertex 53.6 2 0
      vertex 53.6 50.5 45.51
      vertex 53.6 48.049572 45.630383
    endloop
  endfacet
  facet normal 1 0 0
    outer loop
      vertex 53.6 2 0
      vertex 53.6 48.049572 45.630383
      vertex 53.6 45.62274 45.990368
    endloop
  endfacet
  facet normal 1 0 0
    outer loop
      vertex 53.6 2 0
      vertex 53.6 45.62274 45.990368
      vertex 53.6 43.24288 46.58649
    endloop
  endfacet
  facet normal 1 0 0
    outer loop
      vertex 53.6 2 0
      vertex 53.6 43.24288 46.58649
      vertex 53.6 40.932915 47.41301
    endloop
  endfacet
  facet normal 1 0 0
    outer loop
      vertex 53.6 2 0
      vertex 53.6 40.932915 47.41301
      vertex 53.6 38.71508 48.461967
    endloop
  endfacet
  facet normal 1 0 0
    outer loop
      vertex 53.6 2 0
      vertex 53.6 38.71508 48.461967
      vertex 53.6 36.610744 49.72326
    endloop
  endfacet
  facet normal 1 0 0
    outer loop
      vertex 53.6 2 0
      vertex 53.6 36.610744 49.72326
      vertex 53.6 34.640167 51.18474
    endloop
  endfacet
  facet normal 1 0 0
    outer loop
      vertex 53.6 2 70
      vertex 53.6 25.620382 68.05957
      vertex 53.6 25.525055 70
    endloop
  endfacet
  facet normal 1 0 0
    outer loop
      vertex 53.6 2 70
      vertex 53.6 25.98037 65.632744
      vertex 53.6 25.620382 68.05957
    endloop
  endfacet
  facet normal 1 0 0
    outer loop
      vertex 53.6 2 70
      vertex 53.6 26.576492 63.252884
      vertex 53.6 25.98037 65.632744
    endloop
  endfacet
  facet normal 1 0 0
    outer loop
      vertex 53.6 2 70
      vertex 53.6 27.403011 60.942913
      vertex 53.6 26.576492 63.252884
    endloop
  endfacet
  facet normal 1 0 0
    outer loop
      vertex 53.6 2 70
      vertex 53.6 28.45197 58.725082
      vertex 53.6 27.403011 60.942913
    endloop
  endfacet
  facet normal 1 0 0
    outer loop
      vertex 53.6 2 70
      vertex 53.6 29.71326 56.620743
      vertex 53.6 28.45197 58.725082
    endloop
  endfacet
  facet normal 1 0 0
    outer loop
      vertex 53.6 2 70
      vertex 53.6 31.17474 54.650166
      vertex 53.6 29.71326 56.620743
    endloop
  endfacet
  facet normal 1 0 0
    outer loop
      vertex 53.6 2 0
      vertex 53.6 31.17474 54.650166
      vertex 53.6 2 70
    endloop
  endfacet
  facet normal 1 0 0
    outer loop
      vertex 53.6 31.17474 54.650166
      vertex 53.6 2 0
      vertex 53.6 32.82233 52.83233
    endloop
  endfacet
  facet normal 1 0 0
    outer loop
      vertex 53.6 32.82233 52.83233
      vertex 53.6 2 0
      vertex 53.6 34.640167 51.18474
    endloop
  endfacet
  facet normal 1 0 0
    outer loop
      vertex 53.6 50.5 45.51
      vertex 53.6 2 0
      vertex 53.6 95 0
    endloop
  endfacet
  facet normal 0 -1 0
    outer loop
      vertex 2.0000005 0 0
      vertex 51.6 0 73
      vertex 2.0000005 0 73
    endloop
  endfacet
  facet normal 0 -1 0
    outer loop
      vertex 51.6 0 73
      vertex 2.0000005 0 0
      vertex 51.6 0 0
    endloop
  endfacet
  facet normal -0.38268375 -0.9238794 0
    outer loop
      vertex 0.5857874 0.5857868 0
      vertex 2.0000005 0 73
      vertex 0.5857874 0.5857868 73
    endloop
  endfacet
  facet normal -0.38268375 -0.9238794 0
    outer loop
      vertex 2.0000005 0 73
      vertex 0.5857874 0.5857868 0
      vertex 2.0000005 0 0
    endloop
  endfacet
  facet normal -0.9238794 -0.38268375 0
    outer loop
      vertex 0.5857874 0.5857868 0
      vertex 5.722046e-7 2 73
      vertex 5.722046e-7 2 0
    endloop
  endfacet
  facet normal -0.9238794 -0.38268375 0
    outer loop
      vertex 5.722046e-7 2 73
      vertex 0.5857874 0.5857868 0
      vertex 0.5857874 0.5857868 73
    endloop
  endfacet
  facet normal 0 0 -1
    outer loop
      vertex 51.6 0 0
      vertex 53.6 2 0
      vertex 53.014214 0.5857868 0
    endloop
  endfacet
  facet normal 0 0 -1
    outer loop
      vertex 5.722046e-7 2 0
      vertex 53.6 2 0
      vertex 51.6 0 0
    endloop
  endfacet
  facet normal 0 0 -1
    outer loop
      vertex 53.6 2 0
      vertex 5.722046e-7 2 0
      vertex 53.6 95 0
    endloop
  endfacet
  facet normal 0 0 -1
    outer loop
      vertex 53.6 95 0
      vertex 51.6 97 0
      vertex 53.014214 96.414215 0
    endloop
  endfacet
  facet normal 0 0 -1
    outer loop
      vertex 5.722046e-7 2 0
      vertex 51.6 0 0
      vertex 2.0000005 0 0
    endloop
  endfacet
  facet normal 0 0 -1
    outer loop
      vertex 5.722046e-7 95 0
      vertex 53.6 95 0
      vertex 5.722046e-7 2 0
    endloop
  endfacet
  facet normal 0 0 -1
    outer loop
      vertex 5.722046e-7 2 0
      vertex 2.0000005 0 0
      vertex 0.5857874 0.5857868 0
    endloop
  endfacet
  facet normal 0 0 -1
    outer loop
      vertex 53.6 95 0
      vertex 5.722046e-7 95 0
      vertex 51.6 97 0
    endloop
  endfacet
  facet normal 0 0 -1
    outer loop
      vertex 51.6 97 0
      vertex 5.722046e-7 95 0
      vertex 2.0000005 97 0
    endloop
  endfacet
  facet normal 0 0 -1
    outer loop
      vertex 2.0000005 97 0
      vertex 5.722046e-7 95 0
      vertex 0.5857874 96.414215 0
    endloop
  endfacet
  facet normal -0.3826827 0.92387986 0
    outer loop
      vertex 2.0000005 97 0
      vertex 0.5857874 96.414215 73
      vertex 2.0000005 97 73
    endloop
  endfacet
  facet normal -0.3826827 0.92387986 0
    outer loop
      vertex 0.5857874 96.414215 73
      vertex 2.0000005 97 0
      vertex 0.5857874 96.414215 0
    endloop
  endfacet
endsolid OpenSCAD_Model
