solid OpenSCAD_Model
  facet normal 0 -1 0
    outer loop
      vertex 2.0000005 95.2 71.5
      vertex 52.4 95.2 73
      vertex 2.0000005 95.2 73
    endloop
  endfacet
  facet normal 0 -1 0
    outer loop
      vertex 52.4 95.2 73
      vertex 2.0000005 95.2 71.5
      vertex 52.4 95.2 71.5
    endloop
  endfacet
  facet normal 0 0 1
    outer loop
      vertex 53.4 96 70
      vertex 52.4 95 70
      vertex 53.4 75.75216 70
    endloop
  endfacet
  facet normal 0 0 1
    outer loop
      vertex 53.4 96 70
      vertex 2.0000005 95 70
      vertex 52.4 95 70
    endloop
  endfacet
  facet normal 0 0 1
    outer loop
      vertex 1.0000004 96 70
      vertex 2.0000005 95 70
      vertex 53.4 96 70
    endloop
  endfacet
  facet normal 0 0 1
    outer loop
      vertex 1.0000004 75.75216 70
      vertex 2.0000005 95 70
      vertex 1.0000004 96 70
    endloop
  endfacet
  facet normal 0 0 1
    outer loop
      vertex 2.0000005 95 70
      vertex 1.0000004 75.75216 70
      vertex 2.0000005 75.75216 70
    endloop
  endfacet
  facet normal 0 0 1
    outer loop
      vertex 53.4 75.75216 70
      vertex 52.4 95 70
      vertex 52.4 75.75216 70
    endloop
  endfacet
  facet normal 0 0 1
    outer loop
      vertex 1.0000004 25.247839 70
      vertex 2.0000005 2 70
      vertex 2.0000005 25.247839 70
    endloop
  endfacet
  facet normal 0 0 1
    outer loop
      vertex 2.0000005 2 70
      vertex 1.0000004 25.247839 70
      vertex 1.0000004 0.41421396 70
    endloop
  endfacet
  facet normal 0 0 1
    outer loop
      vertex 2.0000005 2 70
      vertex 1.0000004 0.41421396 70
      vertex 2.0000005 0 70
    endloop
  endfacet
  facet normal 0 0 1
    outer loop
      vertex 52.4 2 70
      vertex 53.4 25.247839 70
      vertex 52.4 25.247839 70
    endloop
  endfacet
  facet normal 0 0 1
    outer loop
      vertex 53.4 25.247839 70
      vertex 52.4 2 70
      vertex 53.4 0.41421396 70
    endloop
  endfacet
  facet normal 0 0 1
    outer loop
      vertex 52.4 2 70
      vertex 52.4 0 70
      vertex 53.4 0.41421396 70
    endloop
  endfacet
  facet normal 0 0 1
    outer loop
      vertex 2.0000005 2 70
      vertex 52.4 0 70
      vertex 52.4 2 70
    endloop
  endfacet
  facet normal 0 0 1
    outer loop
      vertex 52.4 0 70
      vertex 2.0000005 2 70
      vertex 2.0000005 0 70
    endloop
  endfacet
  facet normal 1 0 0
    outer loop
      vertex 2.0000005 23.277851 72.66735
      vertex 2.0000005 24.483242 71.5
      vertex 2.0000005 24.035534 72.04553
    endloop
  endfacet
  facet normal 1 0 0
    outer loop
      vertex 2.0000005 22.655504 73
      vertex 2.0000005 24.483242 71.5
      vertex 2.0000005 23.277851 72.66735
    endloop
  endfacet
  facet normal 1 0 0
    outer loop
      vertex 2.0000005 0 71.5
      vertex 2.0000005 22.655504 73
      vertex 2.0000005 0 73
    endloop
  endfacet
  facet normal 1 0 0
    outer loop
      vertex 2.0000005 22.655504 73
      vertex 2.0000005 0 71.5
      vertex 2.0000005 24.483242 71.5
    endloop
  endfacet
  facet normal 1 0 0
    outer loop
      vertex 2.0000005 78.3445 73
      vertex 2.0000005 95.2 71.5
      vertex 2.0000005 95.2 73
    endloop
  endfacet
  facet normal 1 0 0
    outer loop
      vertex 2.0000005 76.51676 71.5
      vertex 2.0000005 78.3445 73
      vertex 2.0000005 77.72215 72.66735
    endloop
  endfacet
  facet normal 1 0 0
    outer loop
      vertex 2.0000005 76.51676 71.5
      vertex 2.0000005 77.72215 72.66735
      vertex 2.0000005 76.96446 72.04553
    endloop
  endfacet
  facet normal 1 0 0
    outer loop
      vertex 2.0000005 78.3445 73
      vertex 2.0000005 76.51676 71.5
      vertex 2.0000005 95.2 71.5
    endloop
  endfacet
  facet normal 1 0 0
    outer loop
      vertex 2.0000005 75.27876 67.379654
      vertex 2.0000005 75.01963 65.632744
      vertex 2.0000005 75.27876 67.191414
    endloop
  endfacet
  facet normal 1 0 0
    outer loop
      vertex 2.0000005 75.54425 69.17371
      vertex 2.0000005 75.27876 67.191414
      vertex 2.0000005 75.54425 68.95925
    endloop
  endfacet
  facet normal 1 0 0
    outer loop
      vertex 2.0000005 75.54425 68.95925
      vertex 2.0000005 95 70
      vertex 2.0000005 75.75216 70
    endloop
  endfacet
  facet normal 1 0 0
    outer loop
      vertex 2.0000005 75.54425 68.95925
      vertex 2.0000005 75.75216 70
      vertex 2.0000005 75.59608 69.48545
    endloop
  endfacet
  facet normal 1 0 0
    outer loop
      vertex 2.0000005 95 70
      vertex 2.0000005 75.54425 68.95925
      vertex 2.0000005 75.27876 67.191414
    endloop
  endfacet
  facet normal 1 0 0
    outer loop
      vertex 2.0000005 75.01963 65.632744
      vertex 2.0000005 95 70
      vertex 2.0000005 75.27876 67.191414
    endloop
  endfacet
  facet normal 1 0 0
    outer loop
      vertex 2.0000005 74.42351 63.252884
      vertex 2.0000005 95 70
      vertex 2.0000005 75.01963 65.632744
    endloop
  endfacet
  facet normal 1 0 0
    outer loop
      vertex 2.0000005 73.596985 60.942913
      vertex 2.0000005 95 70
      vertex 2.0000005 74.42351 63.252884
    endloop
  endfacet
  facet normal 1 0 0
    outer loop
      vertex 2.0000005 72.548035 58.725082
      vertex 2.0000005 95 70
      vertex 2.0000005 73.596985 60.942913
    endloop
  endfacet
  facet normal 1 0 0
    outer loop
      vertex 2.0000005 71.28674 56.620743
      vertex 2.0000005 95 70
      vertex 2.0000005 72.548035 58.725082
    endloop
  endfacet
  facet normal 1 0 0
    outer loop
      vertex 2.0000005 95 70
      vertex 2.0000005 71.28674 56.620743
      vertex 2.0000005 95 2
    endloop
  endfacet
  facet normal 1 0 0
    outer loop
      vertex 2.0000005 69.825264 54.65017
      vertex 2.0000005 95 2
      vertex 2.0000005 71.28674 56.620743
    endloop
  endfacet
  facet normal 1 0 0
    outer loop
      vertex 2.0000005 68.17767 52.83233
      vertex 2.0000005 95 2
      vertex 2.0000005 69.825264 54.65017
    endloop
  endfacet
  facet normal 1 0 0
    outer loop
      vertex 2.0000005 66.35983 51.18474
      vertex 2.0000005 95 2
      vertex 2.0000005 68.17767 52.83233
    endloop
  endfacet
  facet normal 1 0 0
    outer loop
      vertex 2.0000005 64.38925 49.72326
      vertex 2.0000005 95 2
      vertex 2.0000005 66.35983 51.18474
    endloop
  endfacet
  facet normal 1 0 0
    outer loop
      vertex 2.0000005 62.28492 48.461967
      vertex 2.0000005 95 2
      vertex 2.0000005 64.38925 49.72326
    endloop
  endfacet
  facet normal 1 0 0
    outer loop
      vertex 2.0000005 60.067085 47.413013
      vertex 2.0000005 95 2
      vertex 2.0000005 62.28492 48.461967
    endloop
  endfacet
  facet normal 1 0 0
    outer loop
      vertex 2.0000005 57.75712 46.58649
      vertex 2.0000005 95 2
      vertex 2.0000005 60.067085 47.413013
    endloop
  endfacet
  facet normal 1 0 0
    outer loop
      vertex 2.0000005 55.37726 45.990368
      vertex 2.0000005 95 2
      vertex 2.0000005 57.75712 46.58649
    endloop
  endfacet
  facet normal 1 0 0
    outer loop
      vertex 2.0000005 52.950428 45.630383
      vertex 2.0000005 95 2
      vertex 2.0000005 55.37726 45.990368
    endloop
  endfacet
  facet normal 1 0 0
    outer loop
      vertex 2.0000005 50.5 45.51
      vertex 2.0000005 95 2
      vertex 2.0000005 52.950428 45.630383
    endloop
  endfacet
  facet normal 1 0 0
    outer loop
      vertex 2.0000005 2 2
      vertex 2.0000005 50.5 45.51
      vertex 2.0000005 48.049572 45.630383
    endloop
  endfacet
  facet normal 1 0 0
    outer loop
      vertex 2.0000005 2 2
      vertex 2.0000005 48.049572 45.630383
      vertex 2.0000005 45.62274 45.990368
    endloop
  endfacet
  facet normal 1 0 0
    outer loop
      vertex 2.0000005 2 2
      vertex 2.0000005 45.62274 45.990368
      vertex 2.0000005 43.24288 46.58649
    endloop
  endfacet
  facet normal 1 0 0
    outer loop
      vertex 2.0000005 2 2
      vertex 2.0000005 43.24288 46.58649
      vertex 2.0000005 40.932915 47.413013
    endloop
  endfacet
  facet normal 1 0 0
    outer loop
      vertex 2.0000005 2 2
      vertex 2.0000005 40.932915 47.413013
      vertex 2.0000005 38.71508 48.461967
    endloop
  endfacet
  facet normal 1 0 0
    outer loop
      vertex 2.0000005 2 2
      vertex 2.0000005 38.71508 48.461967
      vertex 2.0000005 36.610744 49.72326
    endloop
  endfacet
  facet normal 1 0 0
    outer loop
      vertex 2.0000005 2 2
      vertex 2.0000005 36.610744 49.72326
      vertex 2.0000005 34.640167 51.18474
    endloop
  endfacet
  facet normal 1 0 0
    outer loop
      vertex 2.0000005 25.72124 67.191414
      vertex 2.0000005 25.98037 65.632744
      vertex 2.0000005 25.72124 67.379654
    endloop
  endfacet
  facet normal 1 0 0
    outer loop
      vertex 2.0000005 25.455753 68.95925
      vertex 2.0000005 25.72124 67.191414
      vertex 2.0000005 25.455753 69.17371
    endloop
  endfacet
  facet normal 1 0 0
    outer loop
      vertex 2.0000005 25.247839 70
      vertex 2.0000005 25.455753 68.95925
      vertex 2.0000005 25.403927 69.48545
    endloop
  endfacet
  facet normal 1 0 0
    outer loop
      vertex 2.0000005 2 70
      vertex 2.0000005 25.455753 68.95925
      vertex 2.0000005 25.247839 70
    endloop
  endfacet
  facet normal 1 0 0
    outer loop
      vertex 2.0000005 25.455753 68.95925
      vertex 2.0000005 2 70
      vertex 2.0000005 25.72124 67.191414
    endloop
  endfacet
  facet normal 1 0 0
    outer loop
      vertex 2.0000005 25.72124 67.191414
      vertex 2.0000005 2 70
      vertex 2.0000005 25.98037 65.632744
    endloop
  endfacet
  facet normal 1 0 0
    outer loop
      vertex 2.0000005 2 70
      vertex 2.0000005 26.576492 63.252884
      vertex 2.0000005 25.98037 65.632744
    endloop
  endfacet
  facet normal 1 0 0
    outer loop
      vertex 2.0000005 2 70
      vertex 2.0000005 27.403011 60.942913
      vertex 2.0000005 26.576492 63.252884
    endloop
  endfacet
  facet normal 1 0 0
    outer loop
      vertex 2.0000005 2 70
      vertex 2.0000005 28.45197 58.725082
      vertex 2.0000005 27.403011 60.942913
    endloop
  endfacet
  facet normal 1 0 0
    outer loop
      vertex 2.0000005 2 70
      vertex 2.0000005 29.71326 56.620743
      vertex 2.0000005 28.45197 58.725082
    endloop
  endfacet
  facet normal 1 0 0
    outer loop
      vertex 2.0000005 2 2
      vertex 2.0000005 29.71326 56.620743
      vertex 2.0000005 2 70
    endloop
  endfacet
  facet normal 1 0 0
    outer loop
      vertex 2.0000005 29.71326 56.620743
      vertex 2.0000005 2 2
      vertex 2.0000005 31.17474 54.65017
    endloop
  endfacet
  facet normal 1 0 0
    outer loop
      vertex 2.0000005 31.17474 54.65017
      vertex 2.0000005 2 2
      vertex 2.0000005 32.82233 52.83233
    endloop
  endfacet
  facet normal 1 0 0
    outer loop
      vertex 2.0000005 32.82233 52.83233
      vertex 2.0000005 2 2
      vertex 2.0000005 34.640167 51.18474
    endloop
  endfacet
  facet normal 1 0 0
    outer loop
      vertex 2.0000005 50.5 45.51
      vertex 2.0000005 2 2
      vertex 2.0000005 95 2
    endloop
  endfacet
  facet normal -1 0 0
    outer loop
      vertex 52.4 24.483242 71.5
      vertex 52.4 23.277851 72.66735
      vertex 52.4 24.035534 72.04553
    endloop
  endfacet
  facet normal -1 0 0
    outer loop
      vertex 52.4 24.483242 71.5
      vertex 52.4 22.655504 73
      vertex 52.4 23.277851 72.66735
    endloop
  endfacet
  facet normal -1 0 0
    outer loop
      vertex 52.4 0 71.5
      vertex 52.4 22.655504 73
      vertex 52.4 24.483242 71.5
    endloop
  endfacet
  facet normal -1 0 0
    outer loop
      vertex 52.4 22.655504 73
      vertex 52.4 0 71.5
      vertex 52.4 0 73
    endloop
  endfacet
  facet normal -1 0 0
    outer loop
      vertex 52.4 95.2 71.5
      vertex 52.4 78.3445 73
      vertex 52.4 95.2 73
    endloop
  endfacet
  facet normal -1 0 0
    outer loop
      vertex 52.4 76.51676 71.5
      vertex 52.4 78.3445 73
      vertex 52.4 95.2 71.5
    endloop
  endfacet
  facet normal -1 0 0
    outer loop
      vertex 52.4 78.3445 73
      vertex 52.4 76.51676 71.5
      vertex 52.4 77.72215 72.66735
    endloop
  endfacet
  facet normal -1 0 0
    outer loop
      vertex 52.4 77.72215 72.66735
      vertex 52.4 76.51676 71.5
      vertex 52.4 76.96446 72.04553
    endloop
  endfacet
  facet normal -1 0 0
    outer loop
      vertex 52.4 71.28674 56.620743
      vertex 52.4 95 70
      vertex 52.4 95 2
    endloop
  endfacet
  facet normal -1 0 0
    outer loop
      vertex 52.4 75.54425 68.95925
      vertex 52.4 95 70
      vertex 52.4 75.27876 67.191414
    endloop
  endfacet
  facet normal -1 0 0
    outer loop
      vertex 52.4 75.75216 70
      vertex 52.4 75.54425 68.95925
      vertex 52.4 75.59608 69.48545
    endloop
  endfacet
  facet normal -1 0 0
    outer loop
      vertex 52.4 75.54425 68.95925
      vertex 52.4 75.27876 67.191414
      vertex 52.4 75.54425 69.17371
    endloop
  endfacet
  facet normal -1 0 0
    outer loop
      vertex 52.4 95 70
      vertex 52.4 75.54425 68.95925
      vertex 52.4 75.75216 70
    endloop
  endfacet
  facet normal -1 0 0
    outer loop
      vertex 52.4 75.27876 67.191414
      vertex 52.4 75.01963 65.632744
      vertex 52.4 75.27876 67.379654
    endloop
  endfacet
  facet normal -1 0 0
    outer loop
      vertex 52.4 95 70
      vertex 52.4 75.01963 65.632744
      vertex 52.4 75.27876 67.191414
    endloop
  endfacet
  facet normal -1 0 0
    outer loop
      vertex 52.4 95 70
      vertex 52.4 74.42351 63.252884
      vertex 52.4 75.01963 65.632744
    endloop
  endfacet
  facet normal -1 0 0
    outer loop
      vertex 52.4 95 70
      vertex 52.4 73.596985 60.942913
      vertex 52.4 74.42351 63.252884
    endloop
  endfacet
  facet normal -1 0 0
    outer loop
      vertex 52.4 95 70
      vertex 52.4 72.548035 58.725082
      vertex 52.4 73.596985 60.942913
    endloop
  endfacet
  facet normal -1 0 0
    outer loop
      vertex 52.4 95 70
      vertex 52.4 71.28674 56.620743
      vertex 52.4 72.548035 58.725082
    endloop
  endfacet
  facet normal -1 0 0
    outer loop
      vertex 52.4 95 2
      vertex 52.4 69.825264 54.65017
      vertex 52.4 71.28674 56.620743
    endloop
  endfacet
  facet normal -1 0 0
    outer loop
      vertex 52.4 95 2
      vertex 52.4 68.17767 52.83233
      vertex 52.4 69.825264 54.65017
    endloop
  endfacet
  facet normal -1 0 0
    outer loop
      vertex 52.4 95 2
      vertex 52.4 66.35983 51.18474
      vertex 52.4 68.17767 52.83233
    endloop
  endfacet
  facet normal -1 0 0
    outer loop
      vertex 52.4 95 2
      vertex 52.4 64.38925 49.72326
      vertex 52.4 66.35983 51.18474
    endloop
  endfacet
  facet normal -1 0 0
    outer loop
      vertex 52.4 95 2
      vertex 52.4 62.28492 48.461967
      vertex 52.4 64.38925 49.72326
    endloop
  endfacet
  facet normal -1 0 0
    outer loop
      vertex 52.4 95 2
      vertex 52.4 60.067085 47.413013
      vertex 52.4 62.28492 48.461967
    endloop
  endfacet
  facet normal -1 0 0
    outer loop
      vertex 52.4 95 2
      vertex 52.4 57.75712 46.58649
      vertex 52.4 60.067085 47.413013
    endloop
  endfacet
  facet normal -1 0 0
    outer loop
      vertex 52.4 95 2
      vertex 52.4 55.37726 45.990368
      vertex 52.4 57.75712 46.58649
    endloop
  endfacet
  facet normal -1 0 0
    outer loop
      vertex 52.4 95 2
      vertex 52.4 52.950428 45.630383
      vertex 52.4 55.37726 45.990368
    endloop
  endfacet
  facet normal -1 0 0
    outer loop
      vertex 52.4 95 2
      vertex 52.4 50.5 45.51
      vertex 52.4 52.950428 45.630383
    endloop
  endfacet
  facet normal -1 0 0
    outer loop
      vertex 52.4 2 2
      vertex 52.4 50.5 45.51
      vertex 52.4 95 2
    endloop
  endfacet
  facet normal -1 0 0
    outer loop
      vertex 52.4 50.5 45.51
      vertex 52.4 2 2
      vertex 52.4 48.049572 45.630383
    endloop
  endfacet
  facet normal -1 0 0
    outer loop
      vertex 52.4 48.049572 45.630383
      vertex 52.4 2 2
      vertex 52.4 45.62274 45.990368
    endloop
  endfacet
  facet normal -1 0 0
    outer loop
      vertex 52.4 45.62274 45.990368
      vertex 52.4 2 2
      vertex 52.4 43.24288 46.58649
    endloop
  endfacet
  facet normal -1 0 0
    outer loop
      vertex 52.4 43.24288 46.58649
      vertex 52.4 2 2
      vertex 52.4 40.932915 47.413013
    endloop
  endfacet
  facet normal -1 0 0
    outer loop
      vertex 52.4 40.932915 47.413013
      vertex 52.4 2 2
      vertex 52.4 38.71508 48.461967
    endloop
  endfacet
  facet normal -1 0 0
    outer loop
      vertex 52.4 38.71508 48.461967
      vertex 52.4 2 2
      vertex 52.4 36.610744 49.72326
    endloop
  endfacet
  facet normal -1 0 0
    outer loop
      vertex 52.4 25.455753 68.95925
      vertex 52.4 25.247839 70
      vertex 52.4 25.403927 69.48545
    endloop
  endfacet
  facet normal -1 0 0
    outer loop
      vertex 52.4 2 70
      vertex 52.4 25.455753 68.95925
      vertex 52.4 25.72124 67.191414
    endloop
  endfacet
  facet normal -1 0 0
    outer loop
      vertex 52.4 2 70
      vertex 52.4 25.72124 67.191414
      vertex 52.4 25.98037 65.632744
    endloop
  endfacet
  facet normal -1 0 0
    outer loop
      vertex 52.4 36.610744 49.72326
      vertex 52.4 2 2
      vertex 52.4 34.640167 51.18474
    endloop
  endfacet
  facet normal -1 0 0
    outer loop
      vertex 52.4 2 2
      vertex 52.4 32.82233 52.83233
      vertex 52.4 34.640167 51.18474
    endloop
  endfacet
  facet normal -1 0 0
    outer loop
      vertex 52.4 2 2
      vertex 52.4 31.17474 54.65017
      vertex 52.4 32.82233 52.83233
    endloop
  endfacet
  facet normal -1 0 0
    outer loop
      vertex 52.4 2 2
      vertex 52.4 29.71326 56.620743
      vertex 52.4 31.17474 54.65017
    endloop
  endfacet
  facet normal -1 0 0
    outer loop
      vertex 52.4 2 70
      vertex 52.4 29.71326 56.620743
      vertex 52.4 2 2
    endloop
  endfacet
  facet normal -1 0 0
    outer loop
      vertex 52.4 29.71326 56.620743
      vertex 52.4 2 70
      vertex 52.4 28.45197 58.725082
    endloop
  endfacet
  facet normal -1 0 0
    outer loop
      vertex 52.4 28.45197 58.725082
      vertex 52.4 2 70
      vertex 52.4 27.403011 60.942913
    endloop
  endfacet
  facet normal -1 0 0
    outer loop
      vertex 52.4 27.403011 60.942913
      vertex 52.4 2 70
      vertex 52.4 26.576492 63.252884
    endloop
  endfacet
  facet normal -1 0 0
    outer loop
      vertex 52.4 26.576492 63.252884
      vertex 52.4 2 70
      vertex 52.4 25.98037 65.632744
    endloop
  endfacet
  facet normal -1 0 0
    outer loop
      vertex 52.4 25.455753 68.95925
      vertex 52.4 2 70
      vertex 52.4 25.247839 70
    endloop
  endfacet
  facet normal -1 0 0
    outer loop
      vertex 52.4 25.98037 65.632744
      vertex 52.4 25.72124 67.191414
      vertex 52.4 25.72124 67.379654
    endloop
  endfacet
  facet normal -1 0 0
    outer loop
      vertex 52.4 25.72124 67.191414
      vertex 52.4 25.455753 68.95925
      vertex 52.4 25.455753 69.17371
    endloop
  endfacet
  facet normal 0 -1 0
    outer loop
      vertex 1.0000004 96 70
      vertex 53.4 96 71
      vertex 1.0000004 96 71
    endloop
  endfacet
  facet normal 0 -1 0
    outer loop
      vertex 53.4 96 71
      vertex 1.0000004 96 70
      vertex 53.4 96 70
    endloop
  endfacet
  facet normal 0 -0.70710677 -0.70710677
    outer loop
      vertex 1.0000004 96 71
      vertex 52.9 95.5 71.5
      vertex 1.5000004 95.5 71.5
    endloop
  endfacet
  facet normal 0 -0.70710677 -0.70710677
    outer loop
      vertex 52.9 95.5 71.5
      vertex 1.0000004 96 71
      vertex 53.4 96 71
    endloop
  endfacet
  facet normal -0.70710677 0 -0.70710677
    outer loop
      vertex 53.4 76.18879 71
      vertex 52.9 95.5 71.5
      vertex 53.4 96 71
    endloop
  endfacet
  facet normal -0.70710677 0 -0.70710677
    outer loop
      vertex 52.9 95.5 71.5
      vertex 53.4 76.18879 71
      vertex 52.9 76.51676 71.5
    endloop
  endfacet
  facet normal -0.7070815 0.000077173056 -0.7071321
    outer loop
      vertex 52.9 76.51676 71.5
      vertex 53.4 76.18879 71
      vertex 53.11215 76.34265 71.28785
    endloop
  endfacet
  facet normal -0.7070815 -0.00007717433 -0.7071321
    outer loop
      vertex 53.4 24.811207 71
      vertex 52.9 24.483242 71.5
      vertex 53.11215 24.657349 71.28785
    endloop
  endfacet
  facet normal -0.70710677 0 -0.70710677
    outer loop
      vertex 53.4 0.41421396 71
      vertex 52.9 24.483242 71.5
      vertex 53.4 24.811207 71
    endloop
  endfacet
  facet normal -0.70710677 0 -0.70710677
    outer loop
      vertex 52.9 24.483242 71.5
      vertex 53.4 0.41421396 71
      vertex 52.9 0.20710698 71.5
    endloop
  endfacet
  facet normal 0.70710677 0 -0.70710677
    outer loop
      vertex 1.0000004 76.18879 71
      vertex 1.5000004 95.5 71.5
      vertex 1.5000004 76.51676 71.5
    endloop
  endfacet
  facet normal 0.7070957 0.000033763892 -0.70711786
    outer loop
      vertex 1.0000004 76.18879 71
      vertex 1.5000004 76.51676 71.5
      vertex 1.2878515 76.34265 71.28785
    endloop
  endfacet
  facet normal 0.70710677 0 -0.70710677
    outer loop
      vertex 1.5000004 95.5 71.5
      vertex 1.0000004 76.18879 71
      vertex 1.0000004 96 71
    endloop
  endfacet
  facet normal 0.7070957 -0.00003376445 -0.70711786
    outer loop
      vertex 1.5000004 24.483242 71.5
      vertex 1.0000004 24.811207 71
      vertex 1.2878515 24.657349 71.28785
    endloop
  endfacet
  facet normal 0.70710677 0 -0.70710677
    outer loop
      vertex 1.5000004 24.483242 71.5
      vertex 1.0000004 0.41421396 71
      vertex 1.0000004 24.811207 71
    endloop
  endfacet
  facet normal 0.70710677 0 -0.70710677
    outer loop
      vertex 1.0000004 0.41421396 71
      vertex 1.5000004 24.483242 71.5
      vertex 1.5000004 0.20710698 71.5
    endloop
  endfacet
  facet normal -1 0 0
    outer loop
      vertex 53.4 96 70
      vertex 53.4 76.18879 71
      vertex 53.4 96 71
    endloop
  endfacet
  facet normal -1 0 0
    outer loop
      vertex 53.4 75.75216 70
      vertex 53.4 76.18879 71
      vertex 53.4 96 70
    endloop
  endfacet
  facet normal -1 0 0
    outer loop
      vertex 53.4 76.18879 71
      vertex 53.4 75.75216 70
      vertex 53.4 75.8806 70.423416
    endloop
  endfacet
  facet normal -1 0 0
    outer loop
      vertex 53.4 25.247839 70
      vertex 53.4 24.811207 71
      vertex 53.4 25.119396 70.423416
    endloop
  endfacet
  facet normal -1 0 0
    outer loop
      vertex 53.4 0.41421396 70
      vertex 53.4 24.811207 71
      vertex 53.4 25.247839 70
    endloop
  endfacet
  facet normal -1 0 0
    outer loop
      vertex 53.4 24.811207 71
      vertex 53.4 0.41421396 70
      vertex 53.4 0.41421396 71
    endloop
  endfacet
  facet normal 0 0 -1
    outer loop
      vertex 2.0000005 76.51676 71.5
      vertex 1.5000004 76.51676 71.5
      vertex 2.0000005 95.2 71.5
    endloop
  endfacet
  facet normal 0 0 -1
    outer loop
      vertex 52.4 95.2 71.5
      vertex 52.9 76.51676 71.5
      vertex 52.4 76.51676 71.5
    endloop
  endfacet
  facet normal 0 0 -1
    outer loop
      vertex 52.9 76.51676 71.5
      vertex 52.4 95.2 71.5
      vertex 52.9 95.5 71.5
    endloop
  endfacet
  facet normal 0 0 -1
    outer loop
      vertex 2.0000005 95.2 71.5
      vertex 52.9 95.5 71.5
      vertex 52.4 95.2 71.5
    endloop
  endfacet
  facet normal 0 0 -1
    outer loop
      vertex 2.0000005 95.2 71.5
      vertex 1.5000004 95.5 71.5
      vertex 52.9 95.5 71.5
    endloop
  endfacet
  facet normal 0 0 -1
    outer loop
      vertex 1.5000004 95.5 71.5
      vertex 2.0000005 95.2 71.5
      vertex 1.5000004 76.51676 71.5
    endloop
  endfacet
  facet normal 0 0 -1
    outer loop
      vertex 1.5000004 0.20710698 71.5
      vertex 2.0000005 24.483242 71.5
      vertex 2.0000005 0 71.5
    endloop
  endfacet
  facet normal 0 0 -1
    outer loop
      vertex 2.0000005 24.483242 71.5
      vertex 1.5000004 0.20710698 71.5
      vertex 1.5000004 24.483242 71.5
    endloop
  endfacet
  facet normal 0 0 -1
    outer loop
      vertex 52.4 24.483242 71.5
      vertex 52.9 0.20710698 71.5
      vertex 52.4 0 71.5
    endloop
  endfacet
  facet normal 0 0 -1
    outer loop
      vertex 52.9 0.20710698 71.5
      vertex 52.4 24.483242 71.5
      vertex 52.9 24.483242 71.5
    endloop
  endfacet
  facet normal 1 0 0
    outer loop
      vertex 1.0000004 76.18879 71
      vertex 1.0000004 96 70
      vertex 1.0000004 96 71
    endloop
  endfacet
  facet normal 1 0 0
    outer loop
      vertex 1.0000004 75.75216 70
      vertex 1.0000004 76.18879 71
      vertex 1.0000004 75.8806 70.423416
    endloop
  endfacet
  facet normal 1 0 0
    outer loop
      vertex 1.0000004 76.18879 71
      vertex 1.0000004 75.75216 70
      vertex 1.0000004 96 70
    endloop
  endfacet
  facet normal 1 0 0
    outer loop
      vertex 1.0000004 24.811207 71
      vertex 1.0000004 25.247839 70
      vertex 1.0000004 25.119396 70.423416
    endloop
  endfacet
  facet normal 1 0 0
    outer loop
      vertex 1.0000004 0.41421396 70
      vertex 1.0000004 24.811207 71
      vertex 1.0000004 0.41421396 71
    endloop
  endfacet
  facet normal 1 0 0
    outer loop
      vertex 1.0000004 24.811207 71
      vertex 1.0000004 0.41421396 70
      vertex 1.0000004 25.247839 70
    endloop
  endfacet
  facet normal 0 -0.6343921 0.7730114
    outer loop
      vertex 52.4 77.72215 72.66735
      vertex 54.4 76.96446 72.04553
      vertex 54.4 77.72215 72.66735
    endloop
  endfacet
  facet normal 0 -0.6343921 0.7730114
    outer loop
      vertex 54.4 76.96446 72.04553
      vertex 52.4 77.72215 72.66735
      vertex 52.4 76.96446 72.04553
    endloop
  endfacet
  facet normal 0 -0.6343921 0.7730114
    outer loop
      vertex 3.8146973e-7 77.72215 72.66735
      vertex 2.0000005 76.96446 72.04553
      vertex 2.0000005 77.72215 72.66735
    endloop
  endfacet
  facet normal 0 -0.6343921 0.7730114
    outer loop
      vertex 2.0000005 76.96446 72.04553
      vertex 3.8146973e-7 77.72215 72.66735
      vertex 3.8146973e-7 76.96446 72.04553
    endloop
  endfacet
  facet normal 0 -0.7730148 0.634388
    outer loop
      vertex 3.8146973e-7 76.96446 72.04553
      vertex 1.5000004 76.51676 71.5
      vertex 2.0000005 76.96446 72.04553
    endloop
  endfacet
  facet normal 0 -0.7730121 0.63439125
    outer loop
      vertex 1.2878515 76.34265 71.28785
      vertex 3.8146973e-7 76.96446 72.04553
      vertex 3.8146973e-7 76.34265 71.28785
    endloop
  endfacet
  facet normal 0.000005206731 -0.77300775 0.63439655
    outer loop
      vertex 3.8146973e-7 76.96446 72.04553
      vertex 1.2878515 76.34265 71.28785
      vertex 1.5000004 76.51676 71.5
    endloop
  endfacet
  facet normal 0 -0.7730148 0.634388
    outer loop
      vertex 2.0000005 76.96446 72.04553
      vertex 1.5000004 76.51676 71.5
      vertex 2.0000005 76.51676 71.5
    endloop
  endfacet
  facet normal 0 -0.7730148 0.634388
    outer loop
      vertex 52.9 76.51676 71.5
      vertex 52.4 76.96446 72.04553
      vertex 52.4 76.51676 71.5
    endloop
  endfacet
  facet normal 0 -0.7730148 0.634388
    outer loop
      vertex 52.4 76.96446 72.04553
      vertex 52.9 76.51676 71.5
      vertex 54.4 76.96446 72.04553
    endloop
  endfacet
  facet normal -0.000005206745 -0.77300775 0.63439655
    outer loop
      vertex 53.11215 76.34265 71.28785
      vertex 54.4 76.96446 72.04553
      vertex 52.9 76.51676 71.5
    endloop
  endfacet
  facet normal 0 -0.7730121 0.63439125
    outer loop
      vertex 54.4 76.96446 72.04553
      vertex 53.11215 76.34265 71.28785
      vertex 54.4 76.34265 71.28785
    endloop
  endfacet
  facet normal 0 -0.99518466 0.09801783
    outer loop
      vertex 52.4 75.54425 68.95925
      vertex 54.4 75.59608 69.48545
      vertex 52.4 75.59608 69.48545
    endloop
  endfacet
  facet normal 0 -0.99518466 0.09801783
    outer loop
      vertex 54.4 75.59608 69.48545
      vertex 52.4 75.54425 68.95925
      vertex 54.4 75.54425 68.95925
    endloop
  endfacet
  facet normal 0 -0.99518466 0.09801783
    outer loop
      vertex 3.8146973e-7 75.54425 68.95925
      vertex 2.0000005 75.59608 69.48545
      vertex 3.8146973e-7 75.59608 69.48545
    endloop
  endfacet
  facet normal 0 -0.99518466 0.09801783
    outer loop
      vertex 2.0000005 75.59608 69.48545
      vertex 3.8146973e-7 75.54425 68.95925
      vertex 2.0000005 75.54425 68.95925
    endloop
  endfacet
  facet normal 0 -0.8819171 0.47140455
    outer loop
      vertex 53.4 76.18879 71
      vertex 54.4 76.34265 71.28785
      vertex 53.11215 76.34265 71.28785
    endloop
  endfacet
  facet normal 0 -0.88192195 0.47139543
    outer loop
      vertex 54.4 75.8806 70.423416
      vertex 53.4 76.18879 71
      vertex 53.4 75.8806 70.423416
    endloop
  endfacet
  facet normal 0.0000022508762 -0.88192034 0.47139847
    outer loop
      vertex 53.4 76.18879 71
      vertex 54.4 75.8806 70.423416
      vertex 54.4 76.34265 71.28785
    endloop
  endfacet
  facet normal 0 -0.8819171 0.47140455
    outer loop
      vertex 3.8146973e-7 76.34265 71.28785
      vertex 1.0000004 76.18879 71
      vertex 1.2878515 76.34265 71.28785
    endloop
  endfacet
  facet normal -0.0000022508762 -0.88192034 0.47139847
    outer loop
      vertex 3.8146973e-7 75.8806 70.423416
      vertex 1.0000004 76.18879 71
      vertex 3.8146973e-7 76.34265 71.28785
    endloop
  endfacet
  facet normal 0 -0.88192195 0.47139543
    outer loop
      vertex 1.0000004 76.18879 71
      vertex 3.8146973e-7 75.8806 70.423416
      vertex 1.0000004 75.8806 70.423416
    endloop
  endfacet
  facet normal 0 -0.47139555 0.8819219
    outer loop
      vertex 52.4 78.3445 73
      vertex 54.4 77.72215 72.66735
      vertex 54.4 78.3445 73
    endloop
  endfacet
  facet normal 0 -0.47139555 0.8819219
    outer loop
      vertex 54.4 77.72215 72.66735
      vertex 52.4 78.3445 73
      vertex 52.4 77.72215 72.66735
    endloop
  endfacet
  facet normal 0 -0.47139555 0.8819219
    outer loop
      vertex 3.8146973e-7 78.3445 73
      vertex 2.0000005 77.72215 72.66735
      vertex 2.0000005 78.3445 73
    endloop
  endfacet
  facet normal 0 -0.47139555 0.8819219
    outer loop
      vertex 2.0000005 77.72215 72.66735
      vertex 3.8146973e-7 78.3445 73
      vertex 3.8146973e-7 77.72215 72.66735
    endloop
  endfacet
  facet normal 0 -0.95694274 0.29027674
    outer loop
      vertex 52.4 75.75216 70
      vertex 52.4 75.59608 69.48545
      vertex 53.4 75.75216 70
    endloop
  endfacet
  facet normal 0 -0.95694095 0.29028255
    outer loop
      vertex 53.4 75.75216 70
      vertex 54.4 75.8806 70.423416
      vertex 53.4 75.8806 70.423416
    endloop
  endfacet
  facet normal 0 -0.95694274 0.29027674
    outer loop
      vertex 54.4 75.59608 69.48545
      vertex 53.4 75.75216 70
      vertex 52.4 75.59608 69.48545
    endloop
  endfacet
  facet normal 0.0000014740024 -0.95694196 0.29027936
    outer loop
      vertex 53.4 75.75216 70
      vertex 54.4 75.59608 69.48545
      vertex 54.4 75.8806 70.423416
    endloop
  endfacet
  facet normal 0 -0.95694095 0.29028255
    outer loop
      vertex 3.8146973e-7 75.8806 70.423416
      vertex 1.0000004 75.75216 70
      vertex 1.0000004 75.8806 70.423416
    endloop
  endfacet
  facet normal -0.0000014740025 -0.95694196 0.29027936
    outer loop
      vertex 3.8146973e-7 75.59608 69.48545
      vertex 1.0000004 75.75216 70
      vertex 3.8146973e-7 75.8806 70.423416
    endloop
  endfacet
  facet normal 0 -0.95694274 0.29027674
    outer loop
      vertex 2.0000005 75.59608 69.48545
      vertex 1.0000004 75.75216 70
      vertex 3.8146973e-7 75.59608 69.48545
    endloop
  endfacet
  facet normal 0 -0.95694274 0.29027674
    outer loop
      vertex 1.0000004 75.75216 70
      vertex 2.0000005 75.59608 69.48545
      vertex 2.0000005 75.75216 70
    endloop
  endfacet
  facet normal 0 1 0
    outer loop
      vertex 54.4 75.54425 68.95925
      vertex 52.4 75.54425 69.17371
      vertex 54.4 75.54425 69.17371
    endloop
  endfacet
  facet normal 0 1 0
    outer loop
      vertex 52.4 75.54425 69.17371
      vertex 54.4 75.54425 68.95925
      vertex 52.4 75.54425 68.95925
    endloop
  endfacet
  facet normal 0 1 0
    outer loop
      vertex 2.0000005 75.54425 68.95925
      vertex 3.8146973e-7 75.54425 69.17371
      vertex 2.0000005 75.54425 69.17371
    endloop
  endfacet
  facet normal 0 1 0
    outer loop
      vertex 3.8146973e-7 75.54425 69.17371
      vertex 2.0000005 75.54425 68.95925
      vertex 3.8146973e-7 75.54425 68.95925
    endloop
  endfacet
  facet normal 0 -0.9911504 0.1327439
    outer loop
      vertex 3.8146973e-7 75.27876 67.191414
      vertex 2.0000005 75.54425 69.17371
      vertex 3.8146973e-7 75.54425 69.17371
    endloop
  endfacet
  facet normal 0 -0.9911504 0.1327439
    outer loop
      vertex 2.0000005 75.54425 69.17371
      vertex 3.8146973e-7 75.27876 67.191414
      vertex 2.0000005 75.27876 67.191414
    endloop
  endfacet
  facet normal 0 -0.9911504 0.1327439
    outer loop
      vertex 52.4 75.27876 67.191414
      vertex 54.4 75.54425 69.17371
      vertex 52.4 75.54425 69.17371
    endloop
  endfacet
  facet normal 0 -0.9911504 0.1327439
    outer loop
      vertex 54.4 75.54425 69.17371
      vertex 52.4 75.27876 67.191414
      vertex 54.4 75.27876 67.191414
    endloop
  endfacet
  facet normal 0 1 0
    outer loop
      vertex 2.0000005 75.27876 67.191414
      vertex 3.8146973e-7 75.27876 67.379654
      vertex 2.0000005 75.27876 67.379654
    endloop
  endfacet
  facet normal 0 1 0
    outer loop
      vertex 3.8146973e-7 75.27876 67.379654
      vertex 2.0000005 75.27876 67.191414
      vertex 3.8146973e-7 75.27876 67.191414
    endloop
  endfacet
  facet normal 0 1 0
    outer loop
      vertex 54.4 75.27876 67.191414
      vertex 52.4 75.27876 67.379654
      vertex 54.4 75.27876 67.379654
    endloop
  endfacet
  facet normal 0 1 0
    outer loop
      vertex 52.4 75.27876 67.379654
      vertex 54.4 75.27876 67.191414
      vertex 52.4 75.27876 67.191414
    endloop
  endfacet
  facet normal 0 0.63439596 0.7730083
    outer loop
      vertex 52.4 24.035534 72.04553
      vertex 54.4 23.277851 72.66735
      vertex 54.4 24.035534 72.04553
    endloop
  endfacet
  facet normal 0 0.63439596 0.7730083
    outer loop
      vertex 54.4 23.277851 72.66735
      vertex 52.4 24.035534 72.04553
      vertex 52.4 23.277851 72.66735
    endloop
  endfacet
  facet normal 0 0.63439596 0.7730083
    outer loop
      vertex 3.8146973e-7 24.035534 72.04553
      vertex 2.0000005 23.277851 72.66735
      vertex 2.0000005 24.035534 72.04553
    endloop
  endfacet
  facet normal 0 0.63439596 0.7730083
    outer loop
      vertex 2.0000005 23.277851 72.66735
      vertex 3.8146973e-7 24.035534 72.04553
      vertex 3.8146973e-7 23.277851 72.66735
    endloop
  endfacet
  facet normal 0 0.7730095 0.63439447
    outer loop
      vertex 1.5000004 24.483242 71.5
      vertex 2.0000005 24.035534 72.04553
      vertex 2.0000005 24.483242 71.5
    endloop
  endfacet
  facet normal 0 0.7730095 0.63439447
    outer loop
      vertex 2.0000005 24.035534 72.04553
      vertex 1.5000004 24.483242 71.5
      vertex 3.8146973e-7 24.035534 72.04553
    endloop
  endfacet
  facet normal -0.0000013833668 0.7730113 0.6343922
    outer loop
      vertex 1.2878515 24.657349 71.28785
      vertex 3.8146973e-7 24.035534 72.04553
      vertex 1.5000004 24.483242 71.5
    endloop
  endfacet
  facet normal 0 0.7730102 0.63439363
    outer loop
      vertex 3.8146973e-7 24.035534 72.04553
      vertex 1.2878515 24.657349 71.28785
      vertex 3.8146973e-7 24.657349 71.28785
    endloop
  endfacet
  facet normal 0 0.7730095 0.63439447
    outer loop
      vertex 54.4 24.035534 72.04553
      vertex 52.9 24.483242 71.5
      vertex 52.4 24.035534 72.04553
    endloop
  endfacet
  facet normal 0 0.7730102 0.63439363
    outer loop
      vertex 53.11215 24.657349 71.28785
      vertex 54.4 24.035534 72.04553
      vertex 54.4 24.657349 71.28785
    endloop
  endfacet
  facet normal 0.0000013833704 0.7730113 0.6343922
    outer loop
      vertex 54.4 24.035534 72.04553
      vertex 53.11215 24.657349 71.28785
      vertex 52.9 24.483242 71.5
    endloop
  endfacet
  facet normal 0 0.7730095 0.63439447
    outer loop
      vertex 52.4 24.035534 72.04553
      vertex 52.9 24.483242 71.5
      vertex 52.4 24.483242 71.5
    endloop
  endfacet
  facet normal 0 0.99518466 0.09801783
    outer loop
      vertex 54.4 25.455753 68.95925
      vertex 52.4 25.403927 69.48545
      vertex 54.4 25.403927 69.48545
    endloop
  endfacet
  facet normal 0 0.99518466 0.09801783
    outer loop
      vertex 52.4 25.403927 69.48545
      vertex 54.4 25.455753 68.95925
      vertex 52.4 25.455753 68.95925
    endloop
  endfacet
  facet normal 0 0.99518466 0.09801783
    outer loop
      vertex 2.0000005 25.455753 68.95925
      vertex 3.8146973e-7 25.403927 69.48545
      vertex 2.0000005 25.403927 69.48545
    endloop
  endfacet
  facet normal 0 0.99518466 0.09801783
    outer loop
      vertex 3.8146973e-7 25.403927 69.48545
      vertex 2.0000005 25.455753 68.95925
      vertex 3.8146973e-7 25.455753 68.95925
    endloop
  endfacet
  facet normal 0 0.88192195 0.47139546
    outer loop
      vertex 54.4 24.657349 71.28785
      vertex 53.4 24.811207 71
      vertex 53.11215 24.657349 71.28785
    endloop
  endfacet
  facet normal 6.8886927e-9 0.88192195 0.47139543
    outer loop
      vertex 54.4 25.119396 70.423416
      vertex 53.4 24.811207 71
      vertex 54.4 24.657349 71.28785
    endloop
  endfacet
  facet normal 0 0.88192195 0.47139543
    outer loop
      vertex 53.4 24.811207 71
      vertex 54.4 25.119396 70.423416
      vertex 53.4 25.119396 70.423416
    endloop
  endfacet
  facet normal 0 0.88192195 0.47139546
    outer loop
      vertex 1.0000004 24.811207 71
      vertex 3.8146973e-7 24.657349 71.28785
      vertex 1.2878515 24.657349 71.28785
    endloop
  endfacet
  facet normal 0 0.88192195 0.47139543
    outer loop
      vertex 3.8146973e-7 25.119396 70.423416
      vertex 1.0000004 24.811207 71
      vertex 1.0000004 25.119396 70.423416
    endloop
  endfacet
  facet normal -6.8886927e-9 0.88192195 0.47139543
    outer loop
      vertex 1.0000004 24.811207 71
      vertex 3.8146973e-7 25.119396 70.423416
      vertex 3.8146973e-7 24.657349 71.28785
    endloop
  endfacet
  facet normal 0 0.47139442 0.8819225
    outer loop
      vertex 52.4 23.277851 72.66735
      vertex 54.4 22.655504 73
      vertex 54.4 23.277851 72.66735
    endloop
  endfacet
  facet normal 0 0.47139442 0.8819225
    outer loop
      vertex 54.4 22.655504 73
      vertex 52.4 23.277851 72.66735
      vertex 52.4 22.655504 73
    endloop
  endfacet
  facet normal 0 0.47139442 0.8819225
    outer loop
      vertex 3.8146973e-7 23.277851 72.66735
      vertex 2.0000005 22.655504 73
      vertex 2.0000005 23.277851 72.66735
    endloop
  endfacet
  facet normal 0 0.47139442 0.8819225
    outer loop
      vertex 2.0000005 22.655504 73
      vertex 3.8146973e-7 23.277851 72.66735
      vertex 3.8146973e-7 22.655504 73
    endloop
  endfacet
  facet normal 0 0.95693976 0.2902865
    outer loop
      vertex 54.4 25.119396 70.423416
      vertex 53.4 25.247839 70
      vertex 53.4 25.119396 70.423416
    endloop
  endfacet
  facet normal 3.4591856e-9 0.95693976 0.2902865
    outer loop
      vertex 54.4 25.403927 69.48545
      vertex 53.4 25.247839 70
      vertex 54.4 25.119396 70.423416
    endloop
  endfacet
  facet normal 0 0.95693976 0.29028648
    outer loop
      vertex 52.4 25.403927 69.48545
      vertex 53.4 25.247839 70
      vertex 54.4 25.403927 69.48545
    endloop
  endfacet
  facet normal 0 0.95693976 0.29028648
    outer loop
      vertex 53.4 25.247839 70
      vertex 52.4 25.403927 69.48545
      vertex 52.4 25.247839 70
    endloop
  endfacet
  facet normal 0 0.95693976 0.2902865
    outer loop
      vertex 1.0000004 25.247839 70
      vertex 3.8146973e-7 25.119396 70.423416
      vertex 1.0000004 25.119396 70.423416
    endloop
  endfacet
  facet normal 0 0.95693976 0.29028648
    outer loop
      vertex 3.8146973e-7 25.403927 69.48545
      vertex 1.0000004 25.247839 70
      vertex 2.0000005 25.403927 69.48545
    endloop
  endfacet
  facet normal -3.4591858e-9 0.95693976 0.2902865
    outer loop
      vertex 1.0000004 25.247839 70
      vertex 3.8146973e-7 25.403927 69.48545
      vertex 3.8146973e-7 25.119396 70.423416
    endloop
  endfacet
  facet normal 0 0.95693976 0.29028648
    outer loop
      vertex 2.0000005 25.247839 70
      vertex 2.0000005 25.403927 69.48545
      vertex 1.0000004 25.247839 70
    endloop
  endfacet
  facet normal 0 -1 0
    outer loop
      vertex 52.4 25.455753 68.95925
      vertex 54.4 25.455753 69.17371
      vertex 52.4 25.455753 69.17371
    endloop
  endfacet
  facet normal 0 -1 0
    outer loop
      vertex 54.4 25.455753 69.17371
      vertex 52.4 25.455753 68.95925
      vertex 54.4 25.455753 68.95925
    endloop
  endfacet
  facet normal 0 -1 0
    outer loop
      vertex 3.8146973e-7 25.455753 68.95925
      vertex 2.0000005 25.455753 69.17371
      vertex 3.8146973e-7 25.455753 69.17371
    endloop
  endfacet
  facet normal 0 -1 0
    outer loop
      vertex 2.0000005 25.455753 69.17371
      vertex 3.8146973e-7 25.455753 68.95925
      vertex 2.0000005 25.455753 68.95925
    endloop
  endfacet
  facet normal 0 0.9911505 0.13274296
    outer loop
      vertex 2.0000005 25.72124 67.191414
      vertex 3.8146973e-7 25.455753 69.17371
      vertex 2.0000005 25.455753 69.17371
    endloop
  endfacet
  facet normal 0 0.9911505 0.13274296
    outer loop
      vertex 3.8146973e-7 25.455753 69.17371
      vertex 2.0000005 25.72124 67.191414
      vertex 3.8146973e-7 25.72124 67.191414
    endloop
  endfacet
  facet normal 0 0.9911505 0.13274296
    outer loop
      vertex 54.4 25.72124 67.191414
      vertex 52.4 25.455753 69.17371
      vertex 54.4 25.455753 69.17371
    endloop
  endfacet
  facet normal 0 0.9911505 0.13274296
    outer loop
      vertex 52.4 25.455753 69.17371
      vertex 54.4 25.72124 67.191414
      vertex 52.4 25.72124 67.191414
    endloop
  endfacet
  facet normal 0 -1 0
    outer loop
      vertex 3.8146973e-7 25.72124 67.191414
      vertex 2.0000005 25.72124 67.379654
      vertex 3.8146973e-7 25.72124 67.379654
    endloop
  endfacet
  facet normal 0 -1 0
    outer loop
      vertex 2.0000005 25.72124 67.379654
      vertex 3.8146973e-7 25.72124 67.191414
      vertex 2.0000005 25.72124 67.191414
    endloop
  endfacet
  facet normal 0 -1 0
    outer loop
      vertex 52.4 25.72124 67.191414
      vertex 54.4 25.72124 67.379654
      vertex 52.4 25.72124 67.379654
    endloop
  endfacet
  facet normal 0 -1 0
    outer loop
      vertex 54.4 25.72124 67.379654
      vertex 52.4 25.72124 67.191414
      vertex 54.4 25.72124 67.191414
    endloop
  endfacet
  facet normal 0 -0.24297975 0.9700314
    outer loop
      vertex 52.4 57.75712 46.58649
      vertex 54.4 55.37726 45.990368
      vertex 54.4 57.75712 46.58649
    endloop
  endfacet
  facet normal 0 -0.24297975 0.9700314
    outer loop
      vertex 54.4 55.37726 45.990368
      vertex 52.4 57.75712 46.58649
      vertex 52.4 55.37726 45.990368
    endloop
  endfacet
  facet normal 0 -0.24297975 0.9700314
    outer loop
      vertex 3.8146973e-7 57.75712 46.58649
      vertex 2.0000005 55.37726 45.990368
      vertex 2.0000005 57.75712 46.58649
    endloop
  endfacet
  facet normal 0 -0.24297975 0.9700314
    outer loop
      vertex 2.0000005 55.37726 45.990368
      vertex 3.8146973e-7 57.75712 46.58649
      vertex 3.8146973e-7 55.37726 45.990368
    endloop
  endfacet
  facet normal 0 0.8032071 0.5956999
    outer loop
      vertex 2.0000005 31.17474 54.65017
      vertex 3.8146973e-7 29.71326 56.620743
      vertex 2.0000005 29.71326 56.620743
    endloop
  endfacet
  facet normal 0 0.8032071 0.5956999
    outer loop
      vertex 3.8146973e-7 29.71326 56.620743
      vertex 2.0000005 31.17474 54.65017
      vertex 3.8146973e-7 31.17474 54.65017
    endloop
  endfacet
  facet normal 0 0.8032071 0.5956999
    outer loop
      vertex 54.4 31.17474 54.65017
      vertex 52.4 29.71326 56.620743
      vertex 54.4 29.71326 56.620743
    endloop
  endfacet
  facet normal 0 0.8032071 0.5956999
    outer loop
      vertex 52.4 29.71326 56.620743
      vertex 54.4 31.17474 54.65017
      vertex 52.4 31.17474 54.65017
    endloop
  endfacet
  facet normal 0 0.85772884 0.5141024
    outer loop
      vertex 54.4 29.71326 56.620743
      vertex 52.4 28.45197 58.725082
      vertex 54.4 28.45197 58.725082
    endloop
  endfacet
  facet normal 0 0.85772884 0.5141024
    outer loop
      vertex 52.4 28.45197 58.725082
      vertex 54.4 29.71326 56.620743
      vertex 52.4 29.71326 56.620743
    endloop
  endfacet
  facet normal 0 0.85772884 0.5141024
    outer loop
      vertex 2.0000005 29.71326 56.620743
      vertex 3.8146973e-7 28.45197 58.725082
      vertex 2.0000005 28.45197 58.725082
    endloop
  endfacet
  facet normal 0 0.85772884 0.5141024
    outer loop
      vertex 3.8146973e-7 28.45197 58.725082
      vertex 2.0000005 29.71326 56.620743
      vertex 3.8146973e-7 29.71326 56.620743
    endloop
  endfacet
  facet normal 0 -0.74095196 0.6715581
    outer loop
      vertex 3.8146973e-7 68.17767 52.83233
      vertex 2.0000005 69.825264 54.65017
      vertex 3.8146973e-7 69.825264 54.65017
    endloop
  endfacet
  facet normal 0 -0.74095196 0.6715581
    outer loop
      vertex 2.0000005 69.825264 54.65017
      vertex 3.8146973e-7 68.17767 52.83233
      vertex 2.0000005 68.17767 52.83233
    endloop
  endfacet
  facet normal 0 -0.74095196 0.6715581
    outer loop
      vertex 52.4 68.17767 52.83233
      vertex 54.4 69.825264 54.65017
      vertex 52.4 69.825264 54.65017
    endloop
  endfacet
  facet normal 0 -0.74095196 0.6715581
    outer loop
      vertex 54.4 69.825264 54.65017
      vertex 52.4 68.17767 52.83233
      vertex 54.4 68.17767 52.83233
    endloop
  endfacet
  facet normal 0 0.98917645 0.14673094
    outer loop
      vertex 2.0000005 25.98037 65.632744
      vertex 3.8146973e-7 25.72124 67.379654
      vertex 2.0000005 25.72124 67.379654
    endloop
  endfacet
  facet normal 0 0.98917645 0.14673094
    outer loop
      vertex 3.8146973e-7 25.72124 67.379654
      vertex 2.0000005 25.98037 65.632744
      vertex 3.8146973e-7 25.98037 65.632744
    endloop
  endfacet
  facet normal 0 0.98917645 0.14673094
    outer loop
      vertex 54.4 25.98037 65.632744
      vertex 52.4 25.72124 67.379654
      vertex 54.4 25.72124 67.379654
    endloop
  endfacet
  facet normal 0 0.98917645 0.14673094
    outer loop
      vertex 52.4 25.72124 67.379654
      vertex 54.4 25.98037 65.632744
      vertex 52.4 25.98037 65.632744
    endloop
  endfacet
  facet normal 0 -0.90399015 0.42755324
    outer loop
      vertex 3.8146973e-7 72.548035 58.725082
      vertex 2.0000005 73.596985 60.942913
      vertex 3.8146973e-7 73.596985 60.942913
    endloop
  endfacet
  facet normal 0 -0.90399015 0.42755324
    outer loop
      vertex 2.0000005 73.596985 60.942913
      vertex 3.8146973e-7 72.548035 58.725082
      vertex 2.0000005 72.548035 58.725082
    endloop
  endfacet
  facet normal 0 -0.90399015 0.42755324
    outer loop
      vertex 52.4 72.548035 58.725082
      vertex 54.4 73.596985 60.942913
      vertex 52.4 73.596985 60.942913
    endloop
  endfacet
  facet normal 0 -0.90399015 0.42755324
    outer loop
      vertex 54.4 73.596985 60.942913
      vertex 52.4 72.548035 58.725082
      vertex 54.4 72.548035 58.725082
    endloop
  endfacet
  facet normal 0 -0.14673011 0.9891766
    outer loop
      vertex 52.4 55.37726 45.990368
      vertex 54.4 52.950428 45.630383
      vertex 54.4 55.37726 45.990368
    endloop
  endfacet
  facet normal 0 -0.14673011 0.9891766
    outer loop
      vertex 54.4 52.950428 45.630383
      vertex 52.4 55.37726 45.990368
      vertex 52.4 52.950428 45.630383
    endloop
  endfacet
  facet normal 0 -0.14673011 0.9891766
    outer loop
      vertex 3.8146973e-7 55.37726 45.990368
      vertex 2.0000005 52.950428 45.630383
      vertex 2.0000005 55.37726 45.990368
    endloop
  endfacet
  facet normal 0 -0.14673011 0.9891766
    outer loop
      vertex 2.0000005 52.950428 45.630383
      vertex 3.8146973e-7 55.37726 45.990368
      vertex 3.8146973e-7 52.950428 45.630383
    endloop
  endfacet
  facet normal 0 -0.9891763 0.146732
    outer loop
      vertex 52.4 75.01963 65.632744
      vertex 54.4 75.27876 67.379654
      vertex 52.4 75.27876 67.379654
    endloop
  endfacet
  facet normal 0 -0.9891763 0.146732
    outer loop
      vertex 54.4 75.27876 67.379654
      vertex 52.4 75.01963 65.632744
      vertex 54.4 75.01963 65.632744
    endloop
  endfacet
  facet normal 0 -0.9891763 0.146732
    outer loop
      vertex 3.8146973e-7 75.01963 65.632744
      vertex 2.0000005 75.27876 67.379654
      vertex 3.8146973e-7 75.27876 67.379654
    endloop
  endfacet
  facet normal 0 -0.9891763 0.146732
    outer loop
      vertex 2.0000005 75.27876 67.379654
      vertex 3.8146973e-7 75.01963 65.632744
      vertex 2.0000005 75.01963 65.632744
    endloop
  endfacet
  facet normal 0 -0.5956984 0.8032082
    outer loop
      vertex 3.8146973e-7 66.35983 51.18474
      vertex 2.0000005 64.38925 49.72326
      vertex 2.0000005 66.35983 51.18474
    endloop
  endfacet
  facet normal 0 -0.5956984 0.8032082
    outer loop
      vertex 2.0000005 64.38925 49.72326
      vertex 3.8146973e-7 66.35983 51.18474
      vertex 3.8146973e-7 64.38925 49.72326
    endloop
  endfacet
  facet normal 0 -0.5956984 0.8032082
    outer loop
      vertex 52.4 66.35983 51.18474
      vertex 54.4 64.38925 49.72326
      vertex 54.4 66.35983 51.18474
    endloop
  endfacet
  facet normal 0 -0.5956984 0.8032082
    outer loop
      vertex 54.4 64.38925 49.72326
      vertex 52.4 66.35983 51.18474
      vertex 52.4 64.38925 49.72326
    endloop
  endfacet
  facet normal 0 0.049068652 0.9987954
    outer loop
      vertex 52.4 50.5 45.51
      vertex 54.4 48.049572 45.630383
      vertex 54.4 50.5 45.51
    endloop
  endfacet
  facet normal 0 0.049068652 0.9987954
    outer loop
      vertex 54.4 48.049572 45.630383
      vertex 52.4 50.5 45.51
      vertex 52.4 48.049572 45.630383
    endloop
  endfacet
  facet normal 0 0.049068652 0.9987954
    outer loop
      vertex 3.8146973e-7 50.5 45.51
      vertex 2.0000005 48.049572 45.630383
      vertex 2.0000005 50.5 45.51
    endloop
  endfacet
  facet normal 0 0.049068652 0.9987954
    outer loop
      vertex 2.0000005 48.049572 45.630383
      vertex 3.8146973e-7 50.5 45.51
      vertex 3.8146973e-7 48.049572 45.630383
    endloop
  endfacet
  facet normal 0 0.4275539 0.90398985
    outer loop
      vertex 3.8146973e-7 40.932915 47.413013
      vertex 2.0000005 38.71508 48.461967
      vertex 2.0000005 40.932915 47.413013
    endloop
  endfacet
  facet normal 0 0.4275539 0.90398985
    outer loop
      vertex 2.0000005 38.71508 48.461967
      vertex 3.8146973e-7 40.932915 47.413013
      vertex 3.8146973e-7 38.71508 48.461967
    endloop
  endfacet
  facet normal 0 0.4275539 0.90398985
    outer loop
      vertex 52.4 40.932915 47.413013
      vertex 54.4 38.71508 48.461967
      vertex 54.4 40.932915 47.413013
    endloop
  endfacet
  facet normal 0 0.4275539 0.90398985
    outer loop
      vertex 54.4 38.71508 48.461967
      vertex 52.4 40.932915 47.413013
      vertex 52.4 38.71508 48.461967
    endloop
  endfacet
  facet normal 0 0.9415443 0.3368892
    outer loop
      vertex 54.4 27.403011 60.942913
      vertex 52.4 26.576492 63.252884
      vertex 54.4 26.576492 63.252884
    endloop
  endfacet
  facet normal 0 0.9415443 0.3368892
    outer loop
      vertex 52.4 26.576492 63.252884
      vertex 54.4 27.403011 60.942913
      vertex 52.4 27.403011 60.942913
    endloop
  endfacet
  facet normal 0 0.9415443 0.3368892
    outer loop
      vertex 2.0000005 27.403011 60.942913
      vertex 3.8146973e-7 26.576492 63.252884
      vertex 2.0000005 26.576492 63.252884
    endloop
  endfacet
  facet normal 0 0.9415443 0.3368892
    outer loop
      vertex 3.8146973e-7 26.576492 63.252884
      vertex 2.0000005 27.403011 60.942913
      vertex 3.8146973e-7 27.403011 60.942913
    endloop
  endfacet
  facet normal 0 -0.9700314 0.24297975
    outer loop
      vertex 52.4 74.42351 63.252884
      vertex 54.4 75.01963 65.632744
      vertex 52.4 75.01963 65.632744
    endloop
  endfacet
  facet normal 0 -0.9700314 0.24297975
    outer loop
      vertex 54.4 75.01963 65.632744
      vertex 52.4 74.42351 63.252884
      vertex 54.4 74.42351 63.252884
    endloop
  endfacet
  facet normal 0 -0.9700314 0.24297975
    outer loop
      vertex 3.8146973e-7 74.42351 63.252884
      vertex 2.0000005 75.01963 65.632744
      vertex 3.8146973e-7 75.01963 65.632744
    endloop
  endfacet
  facet normal 0 -0.9700314 0.24297975
    outer loop
      vertex 2.0000005 75.01963 65.632744
      vertex 3.8146973e-7 74.42351 63.252884
      vertex 2.0000005 74.42351 63.252884
    endloop
  endfacet
  facet normal 0 -0.8032071 0.5956999
    outer loop
      vertex 3.8146973e-7 69.825264 54.65017
      vertex 2.0000005 71.28674 56.620743
      vertex 3.8146973e-7 71.28674 56.620743
    endloop
  endfacet
  facet normal 0 -0.8032071 0.5956999
    outer loop
      vertex 2.0000005 71.28674 56.620743
      vertex 3.8146973e-7 69.825264 54.65017
      vertex 2.0000005 69.825264 54.65017
    endloop
  endfacet
  facet normal 0 -0.8032071 0.5956999
    outer loop
      vertex 52.4 69.825264 54.65017
      vertex 54.4 71.28674 56.620743
      vertex 52.4 71.28674 56.620743
    endloop
  endfacet
  facet normal 0 -0.8032071 0.5956999
    outer loop
      vertex 54.4 71.28674 56.620743
      vertex 52.4 69.825264 54.65017
      vertex 54.4 69.825264 54.65017
    endloop
  endfacet
  facet normal 0 -0.5141038 0.857728
    outer loop
      vertex 52.4 64.38925 49.72326
      vertex 54.4 62.28492 48.461967
      vertex 54.4 64.38925 49.72326
    endloop
  endfacet
  facet normal 0 -0.5141038 0.857728
    outer loop
      vertex 54.4 62.28492 48.461967
      vertex 52.4 64.38925 49.72326
      vertex 52.4 62.28492 48.461967
    endloop
  endfacet
  facet normal 0 -0.5141038 0.857728
    outer loop
      vertex 3.8146973e-7 64.38925 49.72326
      vertex 2.0000005 62.28492 48.461967
      vertex 2.0000005 64.38925 49.72326
    endloop
  endfacet
  facet normal 0 -0.5141038 0.857728
    outer loop
      vertex 2.0000005 62.28492 48.461967
      vertex 3.8146973e-7 64.38925 49.72326
      vertex 3.8146973e-7 62.28492 48.461967
    endloop
  endfacet
  facet normal 0 0.33689108 0.94154364
    outer loop
      vertex 3.8146973e-7 43.24288 46.58649
      vertex 2.0000005 40.932915 47.413013
      vertex 2.0000005 43.24288 46.58649
    endloop
  endfacet
  facet normal 0 0.33689108 0.94154364
    outer loop
      vertex 2.0000005 40.932915 47.413013
      vertex 3.8146973e-7 43.24288 46.58649
      vertex 3.8146973e-7 40.932915 47.413013
    endloop
  endfacet
  facet normal 0 0.33689108 0.94154364
    outer loop
      vertex 52.4 43.24288 46.58649
      vertex 54.4 40.932915 47.413013
      vertex 54.4 43.24288 46.58649
    endloop
  endfacet
  facet normal 0 0.33689108 0.94154364
    outer loop
      vertex 54.4 40.932915 47.413013
      vertex 52.4 43.24288 46.58649
      vertex 52.4 40.932915 47.413013
    endloop
  endfacet
  facet normal 0 0.5141031 0.8577284
    outer loop
      vertex 3.8146973e-7 38.71508 48.461967
      vertex 2.0000005 36.610744 49.72326
      vertex 2.0000005 38.71508 48.461967
    endloop
  endfacet
  facet normal 0 0.5141031 0.8577284
    outer loop
      vertex 2.0000005 36.610744 49.72326
      vertex 3.8146973e-7 38.71508 48.461967
      vertex 3.8146973e-7 36.610744 49.72326
    endloop
  endfacet
  facet normal 0 0.5141031 0.8577284
    outer loop
      vertex 52.4 38.71508 48.461967
      vertex 54.4 36.610744 49.72326
      vertex 54.4 38.71508 48.461967
    endloop
  endfacet
  facet normal 0 0.5141031 0.8577284
    outer loop
      vertex 54.4 36.610744 49.72326
      vertex 52.4 38.71508 48.461967
      vertex 52.4 36.610744 49.72326
    endloop
  endfacet
  facet normal 0 -0.4275539 0.90398985
    outer loop
      vertex 52.4 62.28492 48.461967
      vertex 54.4 60.067085 47.413013
      vertex 54.4 62.28492 48.461967
    endloop
  endfacet
  facet normal 0 -0.4275539 0.90398985
    outer loop
      vertex 54.4 60.067085 47.413013
      vertex 52.4 62.28492 48.461967
      vertex 52.4 60.067085 47.413013
    endloop
  endfacet
  facet normal 0 -0.4275539 0.90398985
    outer loop
      vertex 3.8146973e-7 62.28492 48.461967
      vertex 2.0000005 60.067085 47.413013
      vertex 2.0000005 62.28492 48.461967
    endloop
  endfacet
  facet normal 0 -0.4275539 0.90398985
    outer loop
      vertex 2.0000005 60.067085 47.413013
      vertex 3.8146973e-7 62.28492 48.461967
      vertex 3.8146973e-7 60.067085 47.413013
    endloop
  endfacet
  facet normal 0 -0.85772884 0.5141024
    outer loop
      vertex 3.8146973e-7 71.28674 56.620743
      vertex 2.0000005 72.548035 58.725082
      vertex 3.8146973e-7 72.548035 58.725082
    endloop
  endfacet
  facet normal 0 -0.85772884 0.5141024
    outer loop
      vertex 2.0000005 72.548035 58.725082
      vertex 3.8146973e-7 71.28674 56.620743
      vertex 2.0000005 71.28674 56.620743
    endloop
  endfacet
  facet normal 0 -0.85772884 0.5141024
    outer loop
      vertex 52.4 71.28674 56.620743
      vertex 54.4 72.548035 58.725082
      vertex 52.4 72.548035 58.725082
    endloop
  endfacet
  facet normal 0 -0.85772884 0.5141024
    outer loop
      vertex 54.4 72.548035 58.725082
      vertex 52.4 71.28674 56.620743
      vertex 54.4 71.28674 56.620743
    endloop
  endfacet
  facet normal 0 -0.049068652 0.9987954
    outer loop
      vertex 52.4 52.950428 45.630383
      vertex 54.4 50.5 45.51
      vertex 54.4 52.950428 45.630383
    endloop
  endfacet
  facet normal 0 -0.049068652 0.9987954
    outer loop
      vertex 54.4 50.5 45.51
      vertex 52.4 52.950428 45.630383
      vertex 52.4 50.5 45.51
    endloop
  endfacet
  facet normal 0 -0.049068652 0.9987954
    outer loop
      vertex 3.8146973e-7 52.950428 45.630383
      vertex 2.0000005 50.5 45.51
      vertex 2.0000005 52.950428 45.630383
    endloop
  endfacet
  facet normal 0 -0.049068652 0.9987954
    outer loop
      vertex 2.0000005 50.5 45.51
      vertex 3.8146973e-7 52.950428 45.630383
      vertex 3.8146973e-7 50.5 45.51
    endloop
  endfacet
  facet normal 0 -0.6715581 0.74095196
    outer loop
      vertex 3.8146973e-7 68.17767 52.83233
      vertex 2.0000005 66.35983 51.18474
      vertex 2.0000005 68.17767 52.83233
    endloop
  endfacet
  facet normal 0 -0.6715581 0.74095196
    outer loop
      vertex 2.0000005 66.35983 51.18474
      vertex 3.8146973e-7 68.17767 52.83233
      vertex 3.8146973e-7 66.35983 51.18474
    endloop
  endfacet
  facet normal 0 -0.6715581 0.74095196
    outer loop
      vertex 52.4 68.17767 52.83233
      vertex 54.4 66.35983 51.18474
      vertex 54.4 68.17767 52.83233
    endloop
  endfacet
  facet normal 0 -0.6715581 0.74095196
    outer loop
      vertex 54.4 66.35983 51.18474
      vertex 52.4 68.17767 52.83233
      vertex 52.4 66.35983 51.18474
    endloop
  endfacet
  facet normal 0 0.9700314 0.24297975
    outer loop
      vertex 54.4 26.576492 63.252884
      vertex 52.4 25.98037 65.632744
      vertex 54.4 25.98037 65.632744
    endloop
  endfacet
  facet normal 0 0.9700314 0.24297975
    outer loop
      vertex 52.4 25.98037 65.632744
      vertex 54.4 26.576492 63.252884
      vertex 52.4 26.576492 63.252884
    endloop
  endfacet
  facet normal 0 0.9700314 0.24297975
    outer loop
      vertex 2.0000005 26.576492 63.252884
      vertex 3.8146973e-7 25.98037 65.632744
      vertex 2.0000005 25.98037 65.632744
    endloop
  endfacet
  facet normal 0 0.9700314 0.24297975
    outer loop
      vertex 3.8146973e-7 25.98037 65.632744
      vertex 2.0000005 26.576492 63.252884
      vertex 3.8146973e-7 26.576492 63.252884
    endloop
  endfacet
  facet normal 0 -0.9415438 0.33689058
    outer loop
      vertex 3.8146973e-7 73.596985 60.942913
      vertex 2.0000005 74.42351 63.252884
      vertex 3.8146973e-7 74.42351 63.252884
    endloop
  endfacet
  facet normal 0 -0.9415438 0.33689058
    outer loop
      vertex 2.0000005 74.42351 63.252884
      vertex 3.8146973e-7 73.596985 60.942913
      vertex 2.0000005 73.596985 60.942913
    endloop
  endfacet
  facet normal 0 -0.9415438 0.33689058
    outer loop
      vertex 52.4 73.596985 60.942913
      vertex 54.4 74.42351 63.252884
      vertex 52.4 74.42351 63.252884
    endloop
  endfacet
  facet normal 0 -0.9415438 0.33689058
    outer loop
      vertex 54.4 74.42351 63.252884
      vertex 52.4 73.596985 60.942913
      vertex 54.4 73.596985 60.942913
    endloop
  endfacet
  facet normal 0 0.74095196 0.6715581
    outer loop
      vertex 2.0000005 32.82233 52.83233
      vertex 3.8146973e-7 31.17474 54.65017
      vertex 2.0000005 31.17474 54.65017
    endloop
  endfacet
  facet normal 0 0.74095196 0.6715581
    outer loop
      vertex 3.8146973e-7 31.17474 54.65017
      vertex 2.0000005 32.82233 52.83233
      vertex 3.8146973e-7 32.82233 52.83233
    endloop
  endfacet
  facet normal 0 0.74095196 0.6715581
    outer loop
      vertex 54.4 32.82233 52.83233
      vertex 52.4 31.17474 54.65017
      vertex 54.4 31.17474 54.65017
    endloop
  endfacet
  facet normal 0 0.74095196 0.6715581
    outer loop
      vertex 52.4 31.17474 54.65017
      vertex 54.4 32.82233 52.83233
      vertex 52.4 32.82233 52.83233
    endloop
  endfacet
  facet normal 0 -0.33689108 0.94154364
    outer loop
      vertex 52.4 60.067085 47.413013
      vertex 54.4 57.75712 46.58649
      vertex 54.4 60.067085 47.413013
    endloop
  endfacet
  facet normal 0 -0.33689108 0.94154364
    outer loop
      vertex 54.4 57.75712 46.58649
      vertex 52.4 60.067085 47.413013
      vertex 52.4 57.75712 46.58649
    endloop
  endfacet
  facet normal 0 -0.33689108 0.94154364
    outer loop
      vertex 3.8146973e-7 60.067085 47.413013
      vertex 2.0000005 57.75712 46.58649
      vertex 2.0000005 60.067085 47.413013
    endloop
  endfacet
  facet normal 0 -0.33689108 0.94154364
    outer loop
      vertex 2.0000005 57.75712 46.58649
      vertex 3.8146973e-7 60.067085 47.413013
      vertex 3.8146973e-7 57.75712 46.58649
    endloop
  endfacet
  facet normal 0 0.67155886 0.74095124
    outer loop
      vertex 3.8146973e-7 34.640167 51.18474
      vertex 2.0000005 32.82233 52.83233
      vertex 2.0000005 34.640167 51.18474
    endloop
  endfacet
  facet normal 0 0.67155886 0.74095124
    outer loop
      vertex 2.0000005 32.82233 52.83233
      vertex 3.8146973e-7 34.640167 51.18474
      vertex 3.8146973e-7 32.82233 52.83233
    endloop
  endfacet
  facet normal 0 0.67155886 0.74095124
    outer loop
      vertex 52.4 34.640167 51.18474
      vertex 54.4 32.82233 52.83233
      vertex 54.4 34.640167 51.18474
    endloop
  endfacet
  facet normal 0 0.67155886 0.74095124
    outer loop
      vertex 54.4 32.82233 52.83233
      vertex 52.4 34.640167 51.18474
      vertex 52.4 32.82233 52.83233
    endloop
  endfacet
  facet normal 0 0.5956992 0.80320764
    outer loop
      vertex 3.8146973e-7 36.610744 49.72326
      vertex 2.0000005 34.640167 51.18474
      vertex 2.0000005 36.610744 49.72326
    endloop
  endfacet
  facet normal 0 0.5956992 0.80320764
    outer loop
      vertex 2.0000005 34.640167 51.18474
      vertex 3.8146973e-7 36.610744 49.72326
      vertex 3.8146973e-7 34.640167 51.18474
    endloop
  endfacet
  facet normal 0 0.5956992 0.80320764
    outer loop
      vertex 52.4 36.610744 49.72326
      vertex 54.4 34.640167 51.18474
      vertex 54.4 36.610744 49.72326
    endloop
  endfacet
  facet normal 0 0.5956992 0.80320764
    outer loop
      vertex 54.4 34.640167 51.18474
      vertex 52.4 36.610744 49.72326
      vertex 52.4 34.640167 51.18474
    endloop
  endfacet
  facet normal 0 0.24297975 0.9700314
    outer loop
      vertex 3.8146973e-7 45.62274 45.990368
      vertex 2.0000005 43.24288 46.58649
      vertex 2.0000005 45.62274 45.990368
    endloop
  endfacet
  facet normal 0 0.24297975 0.9700314
    outer loop
      vertex 2.0000005 43.24288 46.58649
      vertex 3.8146973e-7 45.62274 45.990368
      vertex 3.8146973e-7 43.24288 46.58649
    endloop
  endfacet
  facet normal 0 0.24297975 0.9700314
    outer loop
      vertex 52.4 45.62274 45.990368
      vertex 54.4 43.24288 46.58649
      vertex 54.4 45.62274 45.990368
    endloop
  endfacet
  facet normal 0 0.24297975 0.9700314
    outer loop
      vertex 54.4 43.24288 46.58649
      vertex 52.4 45.62274 45.990368
      vertex 52.4 43.24288 46.58649
    endloop
  endfacet
  facet normal 0 0.90398896 0.42755577
    outer loop
      vertex 2.0000005 28.45197 58.725082
      vertex 3.8146973e-7 27.403011 60.942913
      vertex 2.0000005 27.403011 60.942913
    endloop
  endfacet
  facet normal 0 0.90398896 0.42755577
    outer loop
      vertex 3.8146973e-7 27.403011 60.942913
      vertex 2.0000005 28.45197 58.725082
      vertex 3.8146973e-7 28.45197 58.725082
    endloop
  endfacet
  facet normal 0 0.90398896 0.42755577
    outer loop
      vertex 54.4 28.45197 58.725082
      vertex 52.4 27.403011 60.942913
      vertex 54.4 27.403011 60.942913
    endloop
  endfacet
  facet normal 0 0.90398896 0.42755577
    outer loop
      vertex 52.4 27.403011 60.942913
      vertex 54.4 28.45197 58.725082
      vertex 52.4 28.45197 58.725082
    endloop
  endfacet
  facet normal 0 0.14673011 0.9891766
    outer loop
      vertex 52.4 48.049572 45.630383
      vertex 54.4 45.62274 45.990368
      vertex 54.4 48.049572 45.630383
    endloop
  endfacet
  facet normal 0 0.14673011 0.9891766
    outer loop
      vertex 54.4 45.62274 45.990368
      vertex 52.4 48.049572 45.630383
      vertex 52.4 45.62274 45.990368
    endloop
  endfacet
  facet normal 0 0.14673011 0.9891766
    outer loop
      vertex 3.8146973e-7 48.049572 45.630383
      vertex 2.0000005 45.62274 45.990368
      vertex 2.0000005 48.049572 45.630383
    endloop
  endfacet
  facet normal 0 0.14673011 0.9891766
    outer loop
      vertex 2.0000005 45.62274 45.990368
      vertex 3.8146973e-7 48.049572 45.630383
      vertex 3.8146973e-7 45.62274 45.990368
    endloop
  endfacet
  facet normal 0 -1 0
    outer loop
      vertex 2.0000005 95 2
      vertex 52.4 95 70
      vertex 2.0000005 95 70
    endloop
  endfacet
  facet normal 0 -1 0
    outer loop
      vertex 52.4 95 70
      vertex 2.0000005 95 2
      vertex 52.4 95 2
    endloop
  endfacet
  facet normal 0 0 1
    outer loop
      vertex 2.0000005 95 2
      vertex 52.4 2 2
      vertex 52.4 95 2
    endloop
  endfacet
  facet normal 0 0 1
    outer loop
      vertex 52.4 2 2
      vertex 2.0000005 95 2
      vertex 2.0000005 2 2
    endloop
  endfacet
  facet normal 0 1 0
    outer loop
      vertex 52.4 2 2
      vertex 2.0000005 2 70
      vertex 52.4 2 70
    endloop
  endfacet
  facet normal 0 1 0
    outer loop
      vertex 2.0000005 2 70
      vertex 52.4 2 2
      vertex 2.0000005 2 2
    endloop
  endfacet
  facet normal 0.38268375 -0.9238794 0
    outer loop
      vertex 52.4 0 70
      vertex 52.4 0 0
      vertex 53.4 0.41421396 70
    endloop
  endfacet
  facet normal 0.38268375 -0.9238794 0
    outer loop
      vertex 52.9 0.20710698 71.5
      vertex 52.4 0 73
      vertex 52.4 0 71.5
    endloop
  endfacet
  facet normal 0.38268417 -0.9238792 1.6859343e-7
    outer loop
      vertex 52.4 0 73
      vertex 52.9 0.20710698 71.5
      vertex 53.814213 0.5857868 73
    endloop
  endfacet
  facet normal 0.382684 -0.9238793 2.9627907e-7
    outer loop
      vertex 53.4 0.41421396 71
      vertex 53.814213 0.5857868 73
      vertex 52.9 0.20710698 71.5
    endloop
  endfacet
  facet normal 0.3826852 -0.9238788 0
    outer loop
      vertex 53.4 0.41421396 70
      vertex 53.814213 0.5857868 73
      vertex 53.4 0.41421396 71
    endloop
  endfacet
  facet normal 0.38268417 -0.9238792 -7.2254327e-9
    outer loop
      vertex 53.814213 0.5857868 0
      vertex 53.4 0.41421396 70
      vertex 52.4 0 0
    endloop
  endfacet
  facet normal 0.3826852 -0.9238788 0
    outer loop
      vertex 53.4 0.41421396 70
      vertex 53.814213 0.5857868 0
      vertex 53.814213 0.5857868 73
    endloop
  endfacet
  facet normal -1 0 0
    outer loop
      vertex 3.8146973e-7 71.28674 56.620743
      vertex 3.8146973e-7 95 73
      vertex 3.8146973e-7 95 0
    endloop
  endfacet
  facet normal -1 0 0
    outer loop
      vertex 3.8146973e-7 75.01963 65.632744
      vertex 3.8146973e-7 95 73
      vertex 3.8146973e-7 74.42351 63.252884
    endloop
  endfacet
  facet normal -1 0 0
    outer loop
      vertex 3.8146973e-7 75.27876 67.191414
      vertex 3.8146973e-7 95 73
      vertex 3.8146973e-7 75.01963 65.632744
    endloop
  endfacet
  facet normal -1 0 0
    outer loop
      vertex 3.8146973e-7 75.54425 68.95925
      vertex 3.8146973e-7 78.3445 73
      vertex 3.8146973e-7 75.27876 67.191414
    endloop
  endfacet
  facet normal -1 0 0
    outer loop
      vertex 3.8146973e-7 76.96446 72.04553
      vertex 3.8146973e-7 78.3445 73
      vertex 3.8146973e-7 75.54425 68.95925
    endloop
  endfacet
  facet normal -1 0 0
    outer loop
      vertex 3.8146973e-7 76.96446 72.04553
      vertex 3.8146973e-7 75.54425 68.95925
      vertex 3.8146973e-7 76.34265 71.28785
    endloop
  endfacet
  facet normal -1 0 0
    outer loop
      vertex 3.8146973e-7 75.8806 70.423416
      vertex 3.8146973e-7 75.54425 68.95925
      vertex 3.8146973e-7 75.59608 69.48545
    endloop
  endfacet
  facet normal -1 0 0
    outer loop
      vertex 3.8146973e-7 75.54425 68.95925
      vertex 3.8146973e-7 75.27876 67.191414
      vertex 3.8146973e-7 75.54425 69.17371
    endloop
  endfacet
  facet normal -1 0 0
    outer loop
      vertex 3.8146973e-7 76.34265 71.28785
      vertex 3.8146973e-7 75.54425 68.95925
      vertex 3.8146973e-7 75.8806 70.423416
    endloop
  endfacet
  facet normal -1 0 0
    outer loop
      vertex 3.8146973e-7 75.27876 67.191414
      vertex 3.8146973e-7 75.01963 65.632744
      vertex 3.8146973e-7 75.27876 67.379654
    endloop
  endfacet
  facet normal -1 0 0
    outer loop
      vertex 3.8146973e-7 78.3445 73
      vertex 3.8146973e-7 76.96446 72.04553
      vertex 3.8146973e-7 77.72215 72.66735
    endloop
  endfacet
  facet normal -1 0 0
    outer loop
      vertex 3.8146973e-7 95 73
      vertex 3.8146973e-7 75.27876 67.191414
      vertex 3.8146973e-7 78.3445 73
    endloop
  endfacet
  facet normal -1 0 0
    outer loop
      vertex 3.8146973e-7 95 73
      vertex 3.8146973e-7 73.596985 60.942913
      vertex 3.8146973e-7 74.42351 63.252884
    endloop
  endfacet
  facet normal -1 0 0
    outer loop
      vertex 3.8146973e-7 95 73
      vertex 3.8146973e-7 72.548035 58.725082
      vertex 3.8146973e-7 73.596985 60.942913
    endloop
  endfacet
  facet normal -1 0 0
    outer loop
      vertex 3.8146973e-7 95 73
      vertex 3.8146973e-7 71.28674 56.620743
      vertex 3.8146973e-7 72.548035 58.725082
    endloop
  endfacet
  facet normal -1 0 0
    outer loop
      vertex 3.8146973e-7 95 0
      vertex 3.8146973e-7 69.825264 54.65017
      vertex 3.8146973e-7 71.28674 56.620743
    endloop
  endfacet
  facet normal -1 0 0
    outer loop
      vertex 3.8146973e-7 95 0
      vertex 3.8146973e-7 68.17767 52.83233
      vertex 3.8146973e-7 69.825264 54.65017
    endloop
  endfacet
  facet normal -1 0 0
    outer loop
      vertex 3.8146973e-7 95 0
      vertex 3.8146973e-7 66.35983 51.18474
      vertex 3.8146973e-7 68.17767 52.83233
    endloop
  endfacet
  facet normal -1 0 0
    outer loop
      vertex 3.8146973e-7 95 0
      vertex 3.8146973e-7 64.38925 49.72326
      vertex 3.8146973e-7 66.35983 51.18474
    endloop
  endfacet
  facet normal -1 0 0
    outer loop
      vertex 3.8146973e-7 95 0
      vertex 3.8146973e-7 62.28492 48.461967
      vertex 3.8146973e-7 64.38925 49.72326
    endloop
  endfacet
  facet normal -1 0 0
    outer loop
      vertex 3.8146973e-7 95 0
      vertex 3.8146973e-7 60.067085 47.413013
      vertex 3.8146973e-7 62.28492 48.461967
    endloop
  endfacet
  facet normal -1 0 0
    outer loop
      vertex 3.8146973e-7 95 0
      vertex 3.8146973e-7 57.75712 46.58649
      vertex 3.8146973e-7 60.067085 47.413013
    endloop
  endfacet
  facet normal -1 0 0
    outer loop
      vertex 3.8146973e-7 95 0
      vertex 3.8146973e-7 55.37726 45.990368
      vertex 3.8146973e-7 57.75712 46.58649
    endloop
  endfacet
  facet normal -1 0 0
    outer loop
      vertex 3.8146973e-7 95 0
      vertex 3.8146973e-7 52.950428 45.630383
      vertex 3.8146973e-7 55.37726 45.990368
    endloop
  endfacet
  facet normal -1 0 0
    outer loop
      vertex 3.8146973e-7 95 0
      vertex 3.8146973e-7 50.5 45.51
      vertex 3.8146973e-7 52.950428 45.630383
    endloop
  endfacet
  facet normal -1 0 0
    outer loop
      vertex 3.8146973e-7 2 0
      vertex 3.8146973e-7 50.5 45.51
      vertex 3.8146973e-7 95 0
    endloop
  endfacet
  facet normal -1 0 0
    outer loop
      vertex 3.8146973e-7 50.5 45.51
      vertex 3.8146973e-7 2 0
      vertex 3.8146973e-7 48.049572 45.630383
    endloop
  endfacet
  facet normal -1 0 0
    outer loop
      vertex 3.8146973e-7 48.049572 45.630383
      vertex 3.8146973e-7 2 0
      vertex 3.8146973e-7 45.62274 45.990368
    endloop
  endfacet
  facet normal -1 0 0
    outer loop
      vertex 3.8146973e-7 45.62274 45.990368
      vertex 3.8146973e-7 2 0
      vertex 3.8146973e-7 43.24288 46.58649
    endloop
  endfacet
  facet normal -1 0 0
    outer loop
      vertex 3.8146973e-7 43.24288 46.58649
      vertex 3.8146973e-7 2 0
      vertex 3.8146973e-7 40.932915 47.413013
    endloop
  endfacet
  facet normal -1 0 0
    outer loop
      vertex 3.8146973e-7 40.932915 47.413013
      vertex 3.8146973e-7 2 0
      vertex 3.8146973e-7 38.71508 48.461967
    endloop
  endfacet
  facet normal -1 0 0
    outer loop
      vertex 3.8146973e-7 38.71508 48.461967
      vertex 3.8146973e-7 2 0
      vertex 3.8146973e-7 36.610744 49.72326
    endloop
  endfacet
  facet normal -1 0 0
    outer loop
      vertex 3.8146973e-7 25.455753 68.95925
      vertex 3.8146973e-7 25.119396 70.423416
      vertex 3.8146973e-7 25.403927 69.48545
    endloop
  endfacet
  facet normal -1 0 0
    outer loop
      vertex 3.8146973e-7 22.655504 73
      vertex 3.8146973e-7 25.455753 68.95925
      vertex 3.8146973e-7 25.72124 67.191414
    endloop
  endfacet
  facet normal -1 0 0
    outer loop
      vertex 3.8146973e-7 22.655504 73
      vertex 3.8146973e-7 25.72124 67.191414
      vertex 3.8146973e-7 25.98037 65.632744
    endloop
  endfacet
  facet normal -1 0 0
    outer loop
      vertex 3.8146973e-7 25.455753 68.95925
      vertex 3.8146973e-7 22.655504 73
      vertex 3.8146973e-7 25.119396 70.423416
    endloop
  endfacet
  facet normal -1 0 0
    outer loop
      vertex 3.8146973e-7 25.119396 70.423416
      vertex 3.8146973e-7 22.655504 73
      vertex 3.8146973e-7 24.657349 71.28785
    endloop
  endfacet
  facet normal -1 0 0
    outer loop
      vertex 3.8146973e-7 2 73
      vertex 3.8146973e-7 25.98037 65.632744
      vertex 3.8146973e-7 26.576492 63.252884
    endloop
  endfacet
  facet normal -1 0 0
    outer loop
      vertex 3.8146973e-7 24.657349 71.28785
      vertex 3.8146973e-7 22.655504 73
      vertex 3.8146973e-7 24.035534 72.04553
    endloop
  endfacet
  facet normal -1 0 0
    outer loop
      vertex 3.8146973e-7 24.035534 72.04553
      vertex 3.8146973e-7 22.655504 73
      vertex 3.8146973e-7 23.277851 72.66735
    endloop
  endfacet
  facet normal -1 0 0
    outer loop
      vertex 3.8146973e-7 2 73
      vertex 3.8146973e-7 26.576492 63.252884
      vertex 3.8146973e-7 27.403011 60.942913
    endloop
  endfacet
  facet normal -1 0 0
    outer loop
      vertex 3.8146973e-7 36.610744 49.72326
      vertex 3.8146973e-7 2 0
      vertex 3.8146973e-7 34.640167 51.18474
    endloop
  endfacet
  facet normal -1 0 0
    outer loop
      vertex 3.8146973e-7 2 0
      vertex 3.8146973e-7 32.82233 52.83233
      vertex 3.8146973e-7 34.640167 51.18474
    endloop
  endfacet
  facet normal -1 0 0
    outer loop
      vertex 3.8146973e-7 2 0
      vertex 3.8146973e-7 31.17474 54.65017
      vertex 3.8146973e-7 32.82233 52.83233
    endloop
  endfacet
  facet normal -1 0 0
    outer loop
      vertex 3.8146973e-7 2 0
      vertex 3.8146973e-7 29.71326 56.620743
      vertex 3.8146973e-7 31.17474 54.65017
    endloop
  endfacet
  facet normal -1 0 0
    outer loop
      vertex 3.8146973e-7 2 73
      vertex 3.8146973e-7 29.71326 56.620743
      vertex 3.8146973e-7 2 0
    endloop
  endfacet
  facet normal -1 0 0
    outer loop
      vertex 3.8146973e-7 29.71326 56.620743
      vertex 3.8146973e-7 2 73
      vertex 3.8146973e-7 28.45197 58.725082
    endloop
  endfacet
  facet normal -1 0 0
    outer loop
      vertex 3.8146973e-7 28.45197 58.725082
      vertex 3.8146973e-7 2 73
      vertex 3.8146973e-7 27.403011 60.942913
    endloop
  endfacet
  facet normal -1 0 0
    outer loop
      vertex 3.8146973e-7 25.98037 65.632744
      vertex 3.8146973e-7 2 73
      vertex 3.8146973e-7 22.655504 73
    endloop
  endfacet
  facet normal -1 0 0
    outer loop
      vertex 3.8146973e-7 25.98037 65.632744
      vertex 3.8146973e-7 25.72124 67.191414
      vertex 3.8146973e-7 25.72124 67.379654
    endloop
  endfacet
  facet normal -1 0 0
    outer loop
      vertex 3.8146973e-7 25.72124 67.191414
      vertex 3.8146973e-7 25.455753 68.95925
      vertex 3.8146973e-7 25.455753 69.17371
    endloop
  endfacet
  facet normal 0 0 1
    outer loop
      vertex 3.8146973e-7 2 73
      vertex 2.0000005 0 73
      vertex 2.0000005 22.655504 73
    endloop
  endfacet
  facet normal 0 0 1
    outer loop
      vertex 3.8146973e-7 2 73
      vertex 2.0000005 22.655504 73
      vertex 3.8146973e-7 22.655504 73
    endloop
  endfacet
  facet normal 0 0 1
    outer loop
      vertex 2.0000005 0 73
      vertex 3.8146973e-7 2 73
      vertex 0.5857872 0.5857868 73
    endloop
  endfacet
  facet normal 0 0 1
    outer loop
      vertex 2.0000005 97 73
      vertex 52.4 95.2 73
      vertex 52.4 97 73
    endloop
  endfacet
  facet normal 0 0 1
    outer loop
      vertex 2.0000005 97 73
      vertex 2.0000005 95.2 73
      vertex 52.4 95.2 73
    endloop
  endfacet
  facet normal 0 0 1
    outer loop
      vertex 0.5857872 96.414215 73
      vertex 2.0000005 95.2 73
      vertex 2.0000005 97 73
    endloop
  endfacet
  facet normal 0 0 1
    outer loop
      vertex 2.0000005 95.2 73
      vertex 0.5857872 96.414215 73
      vertex 3.8146973e-7 95 73
    endloop
  endfacet
  facet normal 0 0 1
    outer loop
      vertex 2.0000005 95.2 73
      vertex 3.8146973e-7 95 73
      vertex 2.0000005 78.3445 73
    endloop
  endfacet
  facet normal 0 0 1
    outer loop
      vertex 2.0000005 78.3445 73
      vertex 3.8146973e-7 95 73
      vertex 3.8146973e-7 78.3445 73
    endloop
  endfacet
  facet normal 0 0 1
    outer loop
      vertex 52.4 95.2 73
      vertex 54.4 95 73
      vertex 53.814213 96.414215 73
    endloop
  endfacet
  facet normal 0 0 1
    outer loop
      vertex 52.4 95.2 73
      vertex 53.814213 96.414215 73
      vertex 52.4 97 73
    endloop
  endfacet
  facet normal 0 0 1
    outer loop
      vertex 52.4 78.3445 73
      vertex 54.4 95 73
      vertex 52.4 95.2 73
    endloop
  endfacet
  facet normal 0 0 1
    outer loop
      vertex 54.4 95 73
      vertex 52.4 78.3445 73
      vertex 54.4 78.3445 73
    endloop
  endfacet
  facet normal 0 0 1
    outer loop
      vertex 52.4 22.655504 73
      vertex 54.4 2 73
      vertex 54.4 22.655504 73
    endloop
  endfacet
  facet normal 0 0 1
    outer loop
      vertex 52.4 0 73
      vertex 54.4 2 73
      vertex 52.4 22.655504 73
    endloop
  endfacet
  facet normal 0 0 1
    outer loop
      vertex 54.4 2 73
      vertex 52.4 0 73
      vertex 53.814213 0.5857868 73
    endloop
  endfacet
  facet normal 0.92387897 -0.3826848 0
    outer loop
      vertex 53.814213 0.5857868 73
      vertex 54.4 2 0
      vertex 54.4 2 73
    endloop
  endfacet
  facet normal 0.92387897 -0.3826848 0
    outer loop
      vertex 54.4 2 0
      vertex 53.814213 0.5857868 73
      vertex 53.814213 0.5857868 0
    endloop
  endfacet
  facet normal 0.3826831 0.9238797 0
    outer loop
      vertex 53.814213 96.414215 0
      vertex 52.4 97 73
      vertex 53.814213 96.414215 73
    endloop
  endfacet
  facet normal 0.3826831 0.9238797 0
    outer loop
      vertex 52.4 97 73
      vertex 53.814213 96.414215 0
      vertex 52.4 97 0
    endloop
  endfacet
  facet normal 0 1 0
    outer loop
      vertex 52.4 97 0
      vertex 2.0000005 97 73
      vertex 52.4 97 73
    endloop
  endfacet
  facet normal 0 1 0
    outer loop
      vertex 2.0000005 97 73
      vertex 52.4 97 0
      vertex 2.0000005 97 0
    endloop
  endfacet
  facet normal -0.9238796 0.38268328 0
    outer loop
      vertex 3.8146973e-7 95 0
      vertex 0.5857872 96.414215 73
      vertex 0.5857872 96.414215 0
    endloop
  endfacet
  facet normal -0.9238796 0.38268328 0
    outer loop
      vertex 0.5857872 96.414215 73
      vertex 3.8146973e-7 95 0
      vertex 3.8146973e-7 95 73
    endloop
  endfacet
  facet normal 0.92387915 0.38268435 0
    outer loop
      vertex 54.4 95 73
      vertex 53.814213 96.414215 0
      vertex 53.814213 96.414215 73
    endloop
  endfacet
  facet normal 0.92387915 0.38268435 0
    outer loop
      vertex 53.814213 96.414215 0
      vertex 54.4 95 73
      vertex 54.4 95 0
    endloop
  endfacet
  facet normal 1 0 0
    outer loop
      vertex 54.4 75.27876 67.379654
      vertex 54.4 75.01963 65.632744
      vertex 54.4 75.27876 67.191414
    endloop
  endfacet
  facet normal 1 0 0
    outer loop
      vertex 54.4 75.54425 69.17371
      vertex 54.4 75.27876 67.191414
      vertex 54.4 75.54425 68.95925
    endloop
  endfacet
  facet normal 1 0 0
    outer loop
      vertex 54.4 75.27876 67.191414
      vertex 54.4 95 73
      vertex 54.4 78.3445 73
    endloop
  endfacet
  facet normal 1 0 0
    outer loop
      vertex 54.4 76.96446 72.04553
      vertex 54.4 78.3445 73
      vertex 54.4 77.72215 72.66735
    endloop
  endfacet
  facet normal 1 0 0
    outer loop
      vertex 54.4 78.3445 73
      vertex 54.4 76.96446 72.04553
      vertex 54.4 75.54425 68.95925
    endloop
  endfacet
  facet normal 1 0 0
    outer loop
      vertex 54.4 75.54425 68.95925
      vertex 54.4 76.96446 72.04553
      vertex 54.4 76.34265 71.28785
    endloop
  endfacet
  facet normal 1 0 0
    outer loop
      vertex 54.4 75.54425 68.95925
      vertex 54.4 76.34265 71.28785
      vertex 54.4 75.8806 70.423416
    endloop
  endfacet
  facet normal 1 0 0
    outer loop
      vertex 54.4 75.54425 68.95925
      vertex 54.4 75.8806 70.423416
      vertex 54.4 75.59608 69.48545
    endloop
  endfacet
  facet normal 1 0 0
    outer loop
      vertex 54.4 78.3445 73
      vertex 54.4 75.54425 68.95925
      vertex 54.4 75.27876 67.191414
    endloop
  endfacet
  facet normal 1 0 0
    outer loop
      vertex 54.4 95 73
      vertex 54.4 75.27876 67.191414
      vertex 54.4 75.01963 65.632744
    endloop
  endfacet
  facet normal 1 0 0
    outer loop
      vertex 54.4 95 73
      vertex 54.4 75.01963 65.632744
      vertex 54.4 74.42351 63.252884
    endloop
  endfacet
  facet normal 1 0 0
    outer loop
      vertex 54.4 73.596985 60.942913
      vertex 54.4 95 73
      vertex 54.4 74.42351 63.252884
    endloop
  endfacet
  facet normal 1 0 0
    outer loop
      vertex 54.4 72.548035 58.725082
      vertex 54.4 95 73
      vertex 54.4 73.596985 60.942913
    endloop
  endfacet
  facet normal 1 0 0
    outer loop
      vertex 54.4 71.28674 56.620743
      vertex 54.4 95 73
      vertex 54.4 72.548035 58.725082
    endloop
  endfacet
  facet normal 1 0 0
    outer loop
      vertex 54.4 95 73
      vertex 54.4 71.28674 56.620743
      vertex 54.4 95 0
    endloop
  endfacet
  facet normal 1 0 0
    outer loop
      vertex 54.4 69.825264 54.65017
      vertex 54.4 95 0
      vertex 54.4 71.28674 56.620743
    endloop
  endfacet
  facet normal 1 0 0
    outer loop
      vertex 54.4 68.17767 52.83233
      vertex 54.4 95 0
      vertex 54.4 69.825264 54.65017
    endloop
  endfacet
  facet normal 1 0 0
    outer loop
      vertex 54.4 66.35983 51.18474
      vertex 54.4 95 0
      vertex 54.4 68.17767 52.83233
    endloop
  endfacet
  facet normal 1 0 0
    outer loop
      vertex 54.4 64.38925 49.72326
      vertex 54.4 95 0
      vertex 54.4 66.35983 51.18474
    endloop
  endfacet
  facet normal 1 0 0
    outer loop
      vertex 54.4 62.28492 48.461967
      vertex 54.4 95 0
      vertex 54.4 64.38925 49.72326
    endloop
  endfacet
  facet normal 1 0 0
    outer loop
      vertex 54.4 60.067085 47.413013
      vertex 54.4 95 0
      vertex 54.4 62.28492 48.461967
    endloop
  endfacet
  facet normal 1 0 0
    outer loop
      vertex 54.4 57.75712 46.58649
      vertex 54.4 95 0
      vertex 54.4 60.067085 47.413013
    endloop
  endfacet
  facet normal 1 0 0
    outer loop
      vertex 54.4 55.37726 45.990368
      vertex 54.4 95 0
      vertex 54.4 57.75712 46.58649
    endloop
  endfacet
  facet normal 1 0 0
    outer loop
      vertex 54.4 52.950428 45.630383
      vertex 54.4 95 0
      vertex 54.4 55.37726 45.990368
    endloop
  endfacet
  facet normal 1 0 0
    outer loop
      vertex 54.4 50.5 45.51
      vertex 54.4 95 0
      vertex 54.4 52.950428 45.630383
    endloop
  endfacet
  facet normal 1 0 0
    outer loop
      vertex 54.4 2 0
      vertex 54.4 50.5 45.51
      vertex 54.4 48.049572 45.630383
    endloop
  endfacet
  facet normal 1 0 0
    outer loop
      vertex 54.4 2 0
      vertex 54.4 48.049572 45.630383
      vertex 54.4 45.62274 45.990368
    endloop
  endfacet
  facet normal 1 0 0
    outer loop
      vertex 54.4 2 0
      vertex 54.4 45.62274 45.990368
      vertex 54.4 43.24288 46.58649
    endloop
  endfacet
  facet normal 1 0 0
    outer loop
      vertex 54.4 2 0
      vertex 54.4 43.24288 46.58649
      vertex 54.4 40.932915 47.413013
    endloop
  endfacet
  facet normal 1 0 0
    outer loop
      vertex 54.4 2 0
      vertex 54.4 40.932915 47.413013
      vertex 54.4 38.71508 48.461967
    endloop
  endfacet
  facet normal 1 0 0
    outer loop
      vertex 54.4 2 0
      vertex 54.4 38.71508 48.461967
      vertex 54.4 36.610744 49.72326
    endloop
  endfacet
  facet normal 1 0 0
    outer loop
      vertex 54.4 2 0
      vertex 54.4 36.610744 49.72326
      vertex 54.4 34.640167 51.18474
    endloop
  endfacet
  facet normal 1 0 0
    outer loop
      vertex 54.4 25.72124 67.191414
      vertex 54.4 25.98037 65.632744
      vertex 54.4 25.72124 67.379654
    endloop
  endfacet
  facet normal 1 0 0
    outer loop
      vertex 54.4 25.455753 68.95925
      vertex 54.4 25.72124 67.191414
      vertex 54.4 25.455753 69.17371
    endloop
  endfacet
  facet normal 1 0 0
    outer loop
      vertex 54.4 25.119396 70.423416
      vertex 54.4 25.455753 68.95925
      vertex 54.4 25.403927 69.48545
    endloop
  endfacet
  facet normal 1 0 0
    outer loop
      vertex 54.4 22.655504 73
      vertex 54.4 25.455753 68.95925
      vertex 54.4 25.119396 70.423416
    endloop
  endfacet
  facet normal 1 0 0
    outer loop
      vertex 54.4 25.455753 68.95925
      vertex 54.4 22.655504 73
      vertex 54.4 25.72124 67.191414
    endloop
  endfacet
  facet normal 1 0 0
    outer loop
      vertex 54.4 22.655504 73
      vertex 54.4 25.119396 70.423416
      vertex 54.4 24.657349 71.28785
    endloop
  endfacet
  facet normal 1 0 0
    outer loop
      vertex 54.4 22.655504 73
      vertex 54.4 24.657349 71.28785
      vertex 54.4 24.035534 72.04553
    endloop
  endfacet
  facet normal 1 0 0
    outer loop
      vertex 54.4 25.72124 67.191414
      vertex 54.4 22.655504 73
      vertex 54.4 25.98037 65.632744
    endloop
  endfacet
  facet normal 1 0 0
    outer loop
      vertex 54.4 22.655504 73
      vertex 54.4 24.035534 72.04553
      vertex 54.4 23.277851 72.66735
    endloop
  endfacet
  facet normal 1 0 0
    outer loop
      vertex 54.4 2 73
      vertex 54.4 25.98037 65.632744
      vertex 54.4 22.655504 73
    endloop
  endfacet
  facet normal 1 0 0
    outer loop
      vertex 54.4 25.98037 65.632744
      vertex 54.4 2 73
      vertex 54.4 26.576492 63.252884
    endloop
  endfacet
  facet normal 1 0 0
    outer loop
      vertex 54.4 26.576492 63.252884
      vertex 54.4 2 73
      vertex 54.4 27.403011 60.942913
    endloop
  endfacet
  facet normal 1 0 0
    outer loop
      vertex 54.4 2 73
      vertex 54.4 28.45197 58.725082
      vertex 54.4 27.403011 60.942913
    endloop
  endfacet
  facet normal 1 0 0
    outer loop
      vertex 54.4 2 73
      vertex 54.4 29.71326 56.620743
      vertex 54.4 28.45197 58.725082
    endloop
  endfacet
  facet normal 1 0 0
    outer loop
      vertex 54.4 2 0
      vertex 54.4 29.71326 56.620743
      vertex 54.4 2 73
    endloop
  endfacet
  facet normal 1 0 0
    outer loop
      vertex 54.4 29.71326 56.620743
      vertex 54.4 2 0
      vertex 54.4 31.17474 54.65017
    endloop
  endfacet
  facet normal 1 0 0
    outer loop
      vertex 54.4 31.17474 54.65017
      vertex 54.4 2 0
      vertex 54.4 32.82233 52.83233
    endloop
  endfacet
  facet normal 1 0 0
    outer loop
      vertex 54.4 32.82233 52.83233
      vertex 54.4 2 0
      vertex 54.4 34.640167 51.18474
    endloop
  endfacet
  facet normal 1 0 0
    outer loop
      vertex 54.4 50.5 45.51
      vertex 54.4 2 0
      vertex 54.4 95 0
    endloop
  endfacet
  facet normal 0 -1 0
    outer loop
      vertex 2.0000005 0 0
      vertex 52.4 0 70
      vertex 2.0000005 0 70
    endloop
  endfacet
  facet normal 0 -1 0
    outer loop
      vertex 52.4 0 70
      vertex 2.0000005 0 0
      vertex 52.4 0 0
    endloop
  endfacet
  facet normal -0.3826837 -0.92387944 1.6211802e-8
    outer loop
      vertex 0.5857872 0.5857868 73
      vertex 1.5000004 0.20710698 71.5
      vertex 2.0000005 0 73
    endloop
  endfacet
  facet normal -0.38268372 -0.9238794 -6.060352e-9
    outer loop
      vertex 0.5857872 0.5857868 73
      vertex 1.0000004 0.41421396 71
      vertex 1.5000004 0.20710698 71.5
    endloop
  endfacet
  facet normal -0.38268372 -0.92387944 0
    outer loop
      vertex 0.5857872 0.5857868 73
      vertex 1.0000004 0.41421396 70
      vertex 1.0000004 0.41421396 71
    endloop
  endfacet
  facet normal -0.38268372 -0.92387944 0
    outer loop
      vertex 0.5857872 0.5857868 0
      vertex 1.0000004 0.41421396 70
      vertex 0.5857872 0.5857868 73
    endloop
  endfacet
  facet normal -0.3826837 -0.92387944 -6.093138e-11
    outer loop
      vertex 0.5857872 0.5857868 0
      vertex 2.0000005 0 70
      vertex 1.0000004 0.41421396 70
    endloop
  endfacet
  facet normal -0.3826837 -0.92387944 0
    outer loop
      vertex 2.0000005 0 70
      vertex 0.5857872 0.5857868 0
      vertex 2.0000005 0 0
    endloop
  endfacet
  facet normal -0.38268366 -0.92387944 0
    outer loop
      vertex 2.0000005 0 73
      vertex 1.5000004 0.20710698 71.5
      vertex 2.0000005 0 71.5
    endloop
  endfacet
  facet normal -0.9238794 -0.38268372 0
    outer loop
      vertex 0.5857872 0.5857868 0
      vertex 3.8146973e-7 2 73
      vertex 3.8146973e-7 2 0
    endloop
  endfacet
  facet normal -0.9238794 -0.38268372 0
    outer loop
      vertex 3.8146973e-7 2 73
      vertex 0.5857872 0.5857868 0
      vertex 0.5857872 0.5857868 73
    endloop
  endfacet
  facet normal 0 0 -1
    outer loop
      vertex 52.4 0 0
      vertex 54.4 2 0
      vertex 53.814213 0.5857868 0
    endloop
  endfacet
  facet normal 0 0 -1
    outer loop
      vertex 3.8146973e-7 2 0
      vertex 54.4 2 0
      vertex 52.4 0 0
    endloop
  endfacet
  facet normal 0 0 -1
    outer loop
      vertex 54.4 2 0
      vertex 3.8146973e-7 2 0
      vertex 54.4 95 0
    endloop
  endfacet
  facet normal 0 0 -1
    outer loop
      vertex 54.4 95 0
      vertex 52.4 97 0
      vertex 53.814213 96.414215 0
    endloop
  endfacet
  facet normal 0 0 -1
    outer loop
      vertex 3.8146973e-7 2 0
      vertex 52.4 0 0
      vertex 2.0000005 0 0
    endloop
  endfacet
  facet normal 0 0 -1
    outer loop
      vertex 3.8146973e-7 95 0
      vertex 54.4 95 0
      vertex 3.8146973e-7 2 0
    endloop
  endfacet
  facet normal 0 0 -1
    outer loop
      vertex 3.8146973e-7 2 0
      vertex 2.0000005 0 0
      vertex 0.5857872 0.5857868 0
    endloop
  endfacet
  facet normal 0 0 -1
    outer loop
      vertex 54.4 95 0
      vertex 3.8146973e-7 95 0
      vertex 52.4 97 0
    endloop
  endfacet
  facet normal 0 0 -1
    outer loop
      vertex 52.4 97 0
      vertex 3.8146973e-7 95 0
      vertex 2.0000005 97 0
    endloop
  endfacet
  facet normal 0 0 -1
    outer loop
      vertex 2.0000005 97 0
      vertex 3.8146973e-7 95 0
      vertex 0.5857872 96.414215 0
    endloop
  endfacet
  facet normal -0.38268265 0.92387986 0
    outer loop
      vertex 2.0000005 97 0
      vertex 0.5857872 96.414215 73
      vertex 2.0000005 97 73
    endloop
  endfacet
  facet normal -0.38268265 0.92387986 0
    outer loop
      vertex 0.5857872 96.414215 73
      vertex 2.0000005 97 0
      vertex 0.5857872 96.414215 0
    endloop
  endfacet
endsolid OpenSCAD_Model
