solid OpenSCAD_Model
  facet normal 0 -1 0
    outer loop
      vertex 2.0000007 95.2 71.5
      vertex 30.8 95.2 73
      vertex 2.0000007 95.2 73
    endloop
  endfacet
  facet normal 0 -1 0
    outer loop
      vertex 30.8 95.2 73
      vertex 2.0000007 95.2 71.5
      vertex 30.8 95.2 71.5
    endloop
  endfacet
  facet normal 0 0 1
    outer loop
      vertex 31.8 96 70
      vertex 30.8 95 70
      vertex 31.8 75.75216 70
    endloop
  endfacet
  facet normal 0 0 1
    outer loop
      vertex 31.8 96 70
      vertex 2.0000007 95 70
      vertex 30.8 95 70
    endloop
  endfacet
  facet normal 0 0 1
    outer loop
      vertex 1.0000007 96 70
      vertex 2.0000007 95 70
      vertex 31.8 96 70
    endloop
  endfacet
  facet normal 0 0 1
    outer loop
      vertex 1.0000007 75.75216 70
      vertex 2.0000007 95 70
      vertex 1.0000007 96 70
    endloop
  endfacet
  facet normal 0 0 1
    outer loop
      vertex 2.0000007 95 70
      vertex 1.0000007 75.75216 70
      vertex 2.0000007 75.75216 70
    endloop
  endfacet
  facet normal 0 0 1
    outer loop
      vertex 31.8 75.75216 70
      vertex 30.8 95 70
      vertex 30.8 75.75216 70
    endloop
  endfacet
  facet normal 0 0 1
    outer loop
      vertex 1.0000007 25.247839 70
      vertex 2.0000007 2 70
      vertex 2.0000007 25.247839 70
    endloop
  endfacet
  facet normal 0 0 1
    outer loop
      vertex 2.0000007 2 70
      vertex 1.0000007 25.247839 70
      vertex 1.0000007 0.41421396 70
    endloop
  endfacet
  facet normal 0 0 1
    outer loop
      vertex 2.0000007 2 70
      vertex 1.0000007 0.41421396 70
      vertex 2.0000007 0 70
    endloop
  endfacet
  facet normal 0 0 1
    outer loop
      vertex 30.8 2 70
      vertex 31.8 25.247839 70
      vertex 30.8 25.247839 70
    endloop
  endfacet
  facet normal 0 0 1
    outer loop
      vertex 31.8 25.247839 70
      vertex 30.8 2 70
      vertex 31.8 0.41421396 70
    endloop
  endfacet
  facet normal 0 0 1
    outer loop
      vertex 30.8 2 70
      vertex 30.8 0 70
      vertex 31.8 0.41421396 70
    endloop
  endfacet
  facet normal 0 0 1
    outer loop
      vertex 2.0000007 2 70
      vertex 30.8 0 70
      vertex 30.8 2 70
    endloop
  endfacet
  facet normal 0 0 1
    outer loop
      vertex 30.8 0 70
      vertex 2.0000007 2 70
      vertex 2.0000007 0 70
    endloop
  endfacet
  facet normal 1 0 0
    outer loop
      vertex 2.0000007 23.277851 72.66735
      vertex 2.0000007 24.483242 71.5
      vertex 2.0000007 24.035534 72.04553
    endloop
  endfacet
  facet normal 1 0 0
    outer loop
      vertex 2.0000007 22.655504 73
      vertex 2.0000007 24.483242 71.5
      vertex 2.0000007 23.277851 72.66735
    endloop
  endfacet
  facet normal 1 0 0
    outer loop
      vertex 2.0000007 0 71.5
      vertex 2.0000007 22.655504 73
      vertex 2.0000007 0 73
    endloop
  endfacet
  facet normal 1 0 0
    outer loop
      vertex 2.0000007 22.655504 73
      vertex 2.0000007 0 71.5
      vertex 2.0000007 24.483242 71.5
    endloop
  endfacet
  facet normal 1 0 0
    outer loop
      vertex 2.0000007 78.3445 73
      vertex 2.0000007 95.2 71.5
      vertex 2.0000007 95.2 73
    endloop
  endfacet
  facet normal 1 0 0
    outer loop
      vertex 2.0000007 76.51676 71.5
      vertex 2.0000007 78.3445 73
      vertex 2.0000007 77.72215 72.66735
    endloop
  endfacet
  facet normal 1 0 0
    outer loop
      vertex 2.0000007 76.51676 71.5
      vertex 2.0000007 77.72215 72.66735
      vertex 2.0000007 76.96446 72.04553
    endloop
  endfacet
  facet normal 1 0 0
    outer loop
      vertex 2.0000007 78.3445 73
      vertex 2.0000007 76.51676 71.5
      vertex 2.0000007 95.2 71.5
    endloop
  endfacet
  facet normal 1 0 0
    outer loop
      vertex 2.0000007 75.27876 67.379654
      vertex 2.0000007 75.01963 65.632744
      vertex 2.0000007 75.27876 67.191414
    endloop
  endfacet
  facet normal 1 0 0
    outer loop
      vertex 2.0000007 75.54425 69.17371
      vertex 2.0000007 75.27876 67.191414
      vertex 2.0000007 75.54425 68.95925
    endloop
  endfacet
  facet normal 1 0 0
    outer loop
      vertex 2.0000007 75.54425 68.95925
      vertex 2.0000007 95 70
      vertex 2.0000007 75.75216 70
    endloop
  endfacet
  facet normal 1 0 0
    outer loop
      vertex 2.0000007 75.54425 68.95925
      vertex 2.0000007 75.75216 70
      vertex 2.0000007 75.59608 69.48545
    endloop
  endfacet
  facet normal 1 0 0
    outer loop
      vertex 2.0000007 95 70
      vertex 2.0000007 75.54425 68.95925
      vertex 2.0000007 75.27876 67.191414
    endloop
  endfacet
  facet normal 1 0 0
    outer loop
      vertex 2.0000007 75.01963 65.632744
      vertex 2.0000007 95 70
      vertex 2.0000007 75.27876 67.191414
    endloop
  endfacet
  facet normal 1 0 0
    outer loop
      vertex 2.0000007 74.42351 63.252884
      vertex 2.0000007 95 70
      vertex 2.0000007 75.01963 65.632744
    endloop
  endfacet
  facet normal 1 0 0
    outer loop
      vertex 2.0000007 73.596985 60.942913
      vertex 2.0000007 95 70
      vertex 2.0000007 74.42351 63.252884
    endloop
  endfacet
  facet normal 1 0 0
    outer loop
      vertex 2.0000007 72.548035 58.725082
      vertex 2.0000007 95 70
      vertex 2.0000007 73.596985 60.942913
    endloop
  endfacet
  facet normal 1 0 0
    outer loop
      vertex 2.0000007 71.28674 56.620743
      vertex 2.0000007 95 70
      vertex 2.0000007 72.548035 58.725082
    endloop
  endfacet
  facet normal 1 0 0
    outer loop
      vertex 2.0000007 95 70
      vertex 2.0000007 71.28674 56.620743
      vertex 2.0000007 95 2
    endloop
  endfacet
  facet normal 1 0 0
    outer loop
      vertex 2.0000007 69.825264 54.65017
      vertex 2.0000007 95 2
      vertex 2.0000007 71.28674 56.620743
    endloop
  endfacet
  facet normal 1 0 0
    outer loop
      vertex 2.0000007 68.17767 52.83233
      vertex 2.0000007 95 2
      vertex 2.0000007 69.825264 54.65017
    endloop
  endfacet
  facet normal 1 0 0
    outer loop
      vertex 2.0000007 66.35983 51.18474
      vertex 2.0000007 95 2
      vertex 2.0000007 68.17767 52.83233
    endloop
  endfacet
  facet normal 1 0 0
    outer loop
      vertex 2.0000007 64.38925 49.72326
      vertex 2.0000007 95 2
      vertex 2.0000007 66.35983 51.18474
    endloop
  endfacet
  facet normal 1 0 0
    outer loop
      vertex 2.0000007 62.28492 48.461967
      vertex 2.0000007 95 2
      vertex 2.0000007 64.38925 49.72326
    endloop
  endfacet
  facet normal 1 0 0
    outer loop
      vertex 2.0000007 60.067085 47.413013
      vertex 2.0000007 95 2
      vertex 2.0000007 62.28492 48.461967
    endloop
  endfacet
  facet normal 1 0 0
    outer loop
      vertex 2.0000007 57.75712 46.58649
      vertex 2.0000007 95 2
      vertex 2.0000007 60.067085 47.413013
    endloop
  endfacet
  facet normal 1 0 0
    outer loop
      vertex 2.0000007 55.37726 45.990368
      vertex 2.0000007 95 2
      vertex 2.0000007 57.75712 46.58649
    endloop
  endfacet
  facet normal 1 0 0
    outer loop
      vertex 2.0000007 52.950428 45.630383
      vertex 2.0000007 95 2
      vertex 2.0000007 55.37726 45.990368
    endloop
  endfacet
  facet normal 1 0 0
    outer loop
      vertex 2.0000007 50.5 45.51
      vertex 2.0000007 95 2
      vertex 2.0000007 52.950428 45.630383
    endloop
  endfacet
  facet normal 1 0 0
    outer loop
      vertex 2.0000007 2 2
      vertex 2.0000007 50.5 45.51
      vertex 2.0000007 48.049572 45.630383
    endloop
  endfacet
  facet normal 1 0 0
    outer loop
      vertex 2.0000007 2 2
      vertex 2.0000007 48.049572 45.630383
      vertex 2.0000007 45.62274 45.990368
    endloop
  endfacet
  facet normal 1 0 0
    outer loop
      vertex 2.0000007 2 2
      vertex 2.0000007 45.62274 45.990368
      vertex 2.0000007 43.24288 46.58649
    endloop
  endfacet
  facet normal 1 0 0
    outer loop
      vertex 2.0000007 2 2
      vertex 2.0000007 43.24288 46.58649
      vertex 2.0000007 40.932915 47.413013
    endloop
  endfacet
  facet normal 1 0 0
    outer loop
      vertex 2.0000007 2 2
      vertex 2.0000007 40.932915 47.413013
      vertex 2.0000007 38.71508 48.461967
    endloop
  endfacet
  facet normal 1 0 0
    outer loop
      vertex 2.0000007 2 2
      vertex 2.0000007 38.71508 48.461967
      vertex 2.0000007 36.610744 49.72326
    endloop
  endfacet
  facet normal 1 0 0
    outer loop
      vertex 2.0000007 2 2
      vertex 2.0000007 36.610744 49.72326
      vertex 2.0000007 34.640167 51.18474
    endloop
  endfacet
  facet normal 1 0 0
    outer loop
      vertex 2.0000007 25.72124 67.191414
      vertex 2.0000007 25.98037 65.632744
      vertex 2.0000007 25.72124 67.379654
    endloop
  endfacet
  facet normal 1 0 0
    outer loop
      vertex 2.0000007 25.455753 68.95925
      vertex 2.0000007 25.72124 67.191414
      vertex 2.0000007 25.455753 69.17371
    endloop
  endfacet
  facet normal 1 0 0
    outer loop
      vertex 2.0000007 25.247839 70
      vertex 2.0000007 25.455753 68.95925
      vertex 2.0000007 25.403927 69.48545
    endloop
  endfacet
  facet normal 1 0 0
    outer loop
      vertex 2.0000007 2 70
      vertex 2.0000007 25.455753 68.95925
      vertex 2.0000007 25.247839 70
    endloop
  endfacet
  facet normal 1 0 0
    outer loop
      vertex 2.0000007 25.455753 68.95925
      vertex 2.0000007 2 70
      vertex 2.0000007 25.72124 67.191414
    endloop
  endfacet
  facet normal 1 0 0
    outer loop
      vertex 2.0000007 25.72124 67.191414
      vertex 2.0000007 2 70
      vertex 2.0000007 25.98037 65.632744
    endloop
  endfacet
  facet normal 1 0 0
    outer loop
      vertex 2.0000007 2 70
      vertex 2.0000007 26.576492 63.252884
      vertex 2.0000007 25.98037 65.632744
    endloop
  endfacet
  facet normal 1 0 0
    outer loop
      vertex 2.0000007 2 70
      vertex 2.0000007 27.403011 60.942913
      vertex 2.0000007 26.576492 63.252884
    endloop
  endfacet
  facet normal 1 0 0
    outer loop
      vertex 2.0000007 2 70
      vertex 2.0000007 28.45197 58.725082
      vertex 2.0000007 27.403011 60.942913
    endloop
  endfacet
  facet normal 1 0 0
    outer loop
      vertex 2.0000007 2 70
      vertex 2.0000007 29.71326 56.620743
      vertex 2.0000007 28.45197 58.725082
    endloop
  endfacet
  facet normal 1 0 0
    outer loop
      vertex 2.0000007 2 2
      vertex 2.0000007 29.71326 56.620743
      vertex 2.0000007 2 70
    endloop
  endfacet
  facet normal 1 0 0
    outer loop
      vertex 2.0000007 29.71326 56.620743
      vertex 2.0000007 2 2
      vertex 2.0000007 31.17474 54.65017
    endloop
  endfacet
  facet normal 1 0 0
    outer loop
      vertex 2.0000007 31.17474 54.65017
      vertex 2.0000007 2 2
      vertex 2.0000007 32.82233 52.83233
    endloop
  endfacet
  facet normal 1 0 0
    outer loop
      vertex 2.0000007 32.82233 52.83233
      vertex 2.0000007 2 2
      vertex 2.0000007 34.640167 51.18474
    endloop
  endfacet
  facet normal 1 0 0
    outer loop
      vertex 2.0000007 50.5 45.51
      vertex 2.0000007 2 2
      vertex 2.0000007 95 2
    endloop
  endfacet
  facet normal -1 0 0
    outer loop
      vertex 30.8 24.483242 71.5
      vertex 30.8 23.277851 72.66735
      vertex 30.8 24.035534 72.04553
    endloop
  endfacet
  facet normal -1 0 0
    outer loop
      vertex 30.8 24.483242 71.5
      vertex 30.8 22.655504 73
      vertex 30.8 23.277851 72.66735
    endloop
  endfacet
  facet normal -1 0 0
    outer loop
      vertex 30.8 0 71.5
      vertex 30.8 22.655504 73
      vertex 30.8 24.483242 71.5
    endloop
  endfacet
  facet normal -1 0 0
    outer loop
      vertex 30.8 22.655504 73
      vertex 30.8 0 71.5
      vertex 30.8 0 73
    endloop
  endfacet
  facet normal -1 0 0
    outer loop
      vertex 30.8 95.2 71.5
      vertex 30.8 78.3445 73
      vertex 30.8 95.2 73
    endloop
  endfacet
  facet normal -1 0 0
    outer loop
      vertex 30.8 76.51676 71.5
      vertex 30.8 78.3445 73
      vertex 30.8 95.2 71.5
    endloop
  endfacet
  facet normal -1 0 0
    outer loop
      vertex 30.8 78.3445 73
      vertex 30.8 76.51676 71.5
      vertex 30.8 77.72215 72.66735
    endloop
  endfacet
  facet normal -1 0 0
    outer loop
      vertex 30.8 77.72215 72.66735
      vertex 30.8 76.51676 71.5
      vertex 30.8 76.96446 72.04553
    endloop
  endfacet
  facet normal -1 0 0
    outer loop
      vertex 30.8 71.28674 56.620743
      vertex 30.8 95 70
      vertex 30.8 95 2
    endloop
  endfacet
  facet normal -1 0 0
    outer loop
      vertex 30.8 75.54425 68.95925
      vertex 30.8 95 70
      vertex 30.8 75.27876 67.191414
    endloop
  endfacet
  facet normal -1 0 0
    outer loop
      vertex 30.8 75.75216 70
      vertex 30.8 75.54425 68.95925
      vertex 30.8 75.59608 69.48545
    endloop
  endfacet
  facet normal -1 0 0
    outer loop
      vertex 30.8 75.54425 68.95925
      vertex 30.8 75.27876 67.191414
      vertex 30.8 75.54425 69.17371
    endloop
  endfacet
  facet normal -1 0 0
    outer loop
      vertex 30.8 95 70
      vertex 30.8 75.54425 68.95925
      vertex 30.8 75.75216 70
    endloop
  endfacet
  facet normal -1 0 0
    outer loop
      vertex 30.8 75.27876 67.191414
      vertex 30.8 75.01963 65.632744
      vertex 30.8 75.27876 67.379654
    endloop
  endfacet
  facet normal -1 0 0
    outer loop
      vertex 30.8 95 70
      vertex 30.8 75.01963 65.632744
      vertex 30.8 75.27876 67.191414
    endloop
  endfacet
  facet normal -1 0 0
    outer loop
      vertex 30.8 95 70
      vertex 30.8 74.42351 63.252884
      vertex 30.8 75.01963 65.632744
    endloop
  endfacet
  facet normal -1 0 0
    outer loop
      vertex 30.8 95 70
      vertex 30.8 73.596985 60.942913
      vertex 30.8 74.42351 63.252884
    endloop
  endfacet
  facet normal -1 0 0
    outer loop
      vertex 30.8 95 70
      vertex 30.8 72.548035 58.725082
      vertex 30.8 73.596985 60.942913
    endloop
  endfacet
  facet normal -1 0 0
    outer loop
      vertex 30.8 95 70
      vertex 30.8 71.28674 56.620743
      vertex 30.8 72.548035 58.725082
    endloop
  endfacet
  facet normal -1 0 0
    outer loop
      vertex 30.8 95 2
      vertex 30.8 69.825264 54.65017
      vertex 30.8 71.28674 56.620743
    endloop
  endfacet
  facet normal -1 0 0
    outer loop
      vertex 30.8 95 2
      vertex 30.8 68.17767 52.83233
      vertex 30.8 69.825264 54.65017
    endloop
  endfacet
  facet normal -1 0 0
    outer loop
      vertex 30.8 95 2
      vertex 30.8 66.35983 51.18474
      vertex 30.8 68.17767 52.83233
    endloop
  endfacet
  facet normal -1 0 0
    outer loop
      vertex 30.8 95 2
      vertex 30.8 64.38925 49.72326
      vertex 30.8 66.35983 51.18474
    endloop
  endfacet
  facet normal -1 0 0
    outer loop
      vertex 30.8 95 2
      vertex 30.8 62.28492 48.461967
      vertex 30.8 64.38925 49.72326
    endloop
  endfacet
  facet normal -1 0 0
    outer loop
      vertex 30.8 95 2
      vertex 30.8 60.067085 47.413013
      vertex 30.8 62.28492 48.461967
    endloop
  endfacet
  facet normal -1 0 0
    outer loop
      vertex 30.8 95 2
      vertex 30.8 57.75712 46.58649
      vertex 30.8 60.067085 47.413013
    endloop
  endfacet
  facet normal -1 0 0
    outer loop
      vertex 30.8 95 2
      vertex 30.8 55.37726 45.990368
      vertex 30.8 57.75712 46.58649
    endloop
  endfacet
  facet normal -1 0 0
    outer loop
      vertex 30.8 95 2
      vertex 30.8 52.950428 45.630383
      vertex 30.8 55.37726 45.990368
    endloop
  endfacet
  facet normal -1 0 0
    outer loop
      vertex 30.8 95 2
      vertex 30.8 50.5 45.51
      vertex 30.8 52.950428 45.630383
    endloop
  endfacet
  facet normal -1 0 0
    outer loop
      vertex 30.8 2 2
      vertex 30.8 50.5 45.51
      vertex 30.8 95 2
    endloop
  endfacet
  facet normal -1 0 0
    outer loop
      vertex 30.8 50.5 45.51
      vertex 30.8 2 2
      vertex 30.8 48.049572 45.630383
    endloop
  endfacet
  facet normal -1 0 0
    outer loop
      vertex 30.8 48.049572 45.630383
      vertex 30.8 2 2
      vertex 30.8 45.62274 45.990368
    endloop
  endfacet
  facet normal -1 0 0
    outer loop
      vertex 30.8 45.62274 45.990368
      vertex 30.8 2 2
      vertex 30.8 43.24288 46.58649
    endloop
  endfacet
  facet normal -1 0 0
    outer loop
      vertex 30.8 43.24288 46.58649
      vertex 30.8 2 2
      vertex 30.8 40.932915 47.413013
    endloop
  endfacet
  facet normal -1 0 0
    outer loop
      vertex 30.8 40.932915 47.413013
      vertex 30.8 2 2
      vertex 30.8 38.71508 48.461967
    endloop
  endfacet
  facet normal -1 0 0
    outer loop
      vertex 30.8 38.71508 48.461967
      vertex 30.8 2 2
      vertex 30.8 36.610744 49.72326
    endloop
  endfacet
  facet normal -1 0 0
    outer loop
      vertex 30.8 25.455753 68.95925
      vertex 30.8 25.247839 70
      vertex 30.8 25.403927 69.48545
    endloop
  endfacet
  facet normal -1 0 0
    outer loop
      vertex 30.8 2 70
      vertex 30.8 25.455753 68.95925
      vertex 30.8 25.72124 67.191414
    endloop
  endfacet
  facet normal -1 0 0
    outer loop
      vertex 30.8 2 70
      vertex 30.8 25.72124 67.191414
      vertex 30.8 25.98037 65.632744
    endloop
  endfacet
  facet normal -1 0 0
    outer loop
      vertex 30.8 36.610744 49.72326
      vertex 30.8 2 2
      vertex 30.8 34.640167 51.18474
    endloop
  endfacet
  facet normal -1 0 0
    outer loop
      vertex 30.8 2 2
      vertex 30.8 32.82233 52.83233
      vertex 30.8 34.640167 51.18474
    endloop
  endfacet
  facet normal -1 0 0
    outer loop
      vertex 30.8 2 2
      vertex 30.8 31.17474 54.65017
      vertex 30.8 32.82233 52.83233
    endloop
  endfacet
  facet normal -1 0 0
    outer loop
      vertex 30.8 2 2
      vertex 30.8 29.71326 56.620743
      vertex 30.8 31.17474 54.65017
    endloop
  endfacet
  facet normal -1 0 0
    outer loop
      vertex 30.8 2 70
      vertex 30.8 29.71326 56.620743
      vertex 30.8 2 2
    endloop
  endfacet
  facet normal -1 0 0
    outer loop
      vertex 30.8 29.71326 56.620743
      vertex 30.8 2 70
      vertex 30.8 28.45197 58.725082
    endloop
  endfacet
  facet normal -1 0 0
    outer loop
      vertex 30.8 28.45197 58.725082
      vertex 30.8 2 70
      vertex 30.8 27.403011 60.942913
    endloop
  endfacet
  facet normal -1 0 0
    outer loop
      vertex 30.8 27.403011 60.942913
      vertex 30.8 2 70
      vertex 30.8 26.576492 63.252884
    endloop
  endfacet
  facet normal -1 0 0
    outer loop
      vertex 30.8 26.576492 63.252884
      vertex 30.8 2 70
      vertex 30.8 25.98037 65.632744
    endloop
  endfacet
  facet normal -1 0 0
    outer loop
      vertex 30.8 25.455753 68.95925
      vertex 30.8 2 70
      vertex 30.8 25.247839 70
    endloop
  endfacet
  facet normal -1 0 0
    outer loop
      vertex 30.8 25.98037 65.632744
      vertex 30.8 25.72124 67.191414
      vertex 30.8 25.72124 67.379654
    endloop
  endfacet
  facet normal -1 0 0
    outer loop
      vertex 30.8 25.72124 67.191414
      vertex 30.8 25.455753 68.95925
      vertex 30.8 25.455753 69.17371
    endloop
  endfacet
  facet normal 0 -1 0
    outer loop
      vertex 1.0000007 96 70
      vertex 31.8 96 71
      vertex 1.0000007 96 71
    endloop
  endfacet
  facet normal 0 -1 0
    outer loop
      vertex 31.8 96 71
      vertex 1.0000007 96 70
      vertex 31.8 96 70
    endloop
  endfacet
  facet normal 0 -0.70710677 -0.70710677
    outer loop
      vertex 1.0000007 96 71
      vertex 31.3 95.5 71.5
      vertex 1.5000007 95.5 71.5
    endloop
  endfacet
  facet normal 0 -0.70710677 -0.70710677
    outer loop
      vertex 31.3 95.5 71.5
      vertex 1.0000007 96 71
      vertex 31.8 96 71
    endloop
  endfacet
  facet normal -0.70710677 0 -0.70710677
    outer loop
      vertex 31.8 76.18879 71
      vertex 31.3 95.5 71.5
      vertex 31.8 96 71
    endloop
  endfacet
  facet normal -0.70710677 0 -0.70710677
    outer loop
      vertex 31.3 95.5 71.5
      vertex 31.8 76.18879 71
      vertex 31.3 76.51676 71.5
    endloop
  endfacet
  facet normal -0.70710677 0 -0.70710677
    outer loop
      vertex 31.3 76.51676 71.5
      vertex 31.8 76.18879 71
      vertex 31.51215 76.34265 71.28785
    endloop
  endfacet
  facet normal -0.70710677 0 -0.70710677
    outer loop
      vertex 31.8 24.811207 71
      vertex 31.3 24.483242 71.5
      vertex 31.51215 24.657349 71.28785
    endloop
  endfacet
  facet normal -0.70710677 0 -0.70710677
    outer loop
      vertex 31.8 0.41421396 71
      vertex 31.3 24.483242 71.5
      vertex 31.8 24.811207 71
    endloop
  endfacet
  facet normal -0.70710677 0 -0.70710677
    outer loop
      vertex 31.3 24.483242 71.5
      vertex 31.8 0.41421396 71
      vertex 31.3 0.20710698 71.5
    endloop
  endfacet
  facet normal 0.70710677 0 -0.70710677
    outer loop
      vertex 1.0000007 76.18879 71
      vertex 1.5000007 95.5 71.5
      vertex 1.5000007 76.51676 71.5
    endloop
  endfacet
  facet normal 0.7070957 0.000033763892 -0.70711786
    outer loop
      vertex 1.0000007 76.18879 71
      vertex 1.5000007 76.51676 71.5
      vertex 1.2878518 76.34265 71.28785
    endloop
  endfacet
  facet normal 0.70710677 0 -0.70710677
    outer loop
      vertex 1.5000007 95.5 71.5
      vertex 1.0000007 76.18879 71
      vertex 1.0000007 96 71
    endloop
  endfacet
  facet normal 0.7070957 -0.00003376445 -0.70711786
    outer loop
      vertex 1.5000007 24.483242 71.5
      vertex 1.0000007 24.811207 71
      vertex 1.2878518 24.657349 71.28785
    endloop
  endfacet
  facet normal 0.70710677 0 -0.70710677
    outer loop
      vertex 1.5000007 24.483242 71.5
      vertex 1.0000007 0.41421396 71
      vertex 1.0000007 24.811207 71
    endloop
  endfacet
  facet normal 0.70710677 0 -0.70710677
    outer loop
      vertex 1.0000007 0.41421396 71
      vertex 1.5000007 24.483242 71.5
      vertex 1.5000007 0.20710698 71.5
    endloop
  endfacet
  facet normal -1 0 0
    outer loop
      vertex 31.8 96 70
      vertex 31.8 76.18879 71
      vertex 31.8 96 71
    endloop
  endfacet
  facet normal -1 0 0
    outer loop
      vertex 31.8 75.75216 70
      vertex 31.8 76.18879 71
      vertex 31.8 96 70
    endloop
  endfacet
  facet normal -1 0 0
    outer loop
      vertex 31.8 76.18879 71
      vertex 31.8 75.75216 70
      vertex 31.8 75.8806 70.423416
    endloop
  endfacet
  facet normal -1 0 0
    outer loop
      vertex 31.8 25.247839 70
      vertex 31.8 24.811207 71
      vertex 31.8 25.119396 70.423416
    endloop
  endfacet
  facet normal -1 0 0
    outer loop
      vertex 31.8 0.41421396 70
      vertex 31.8 24.811207 71
      vertex 31.8 25.247839 70
    endloop
  endfacet
  facet normal -1 0 0
    outer loop
      vertex 31.8 24.811207 71
      vertex 31.8 0.41421396 70
      vertex 31.8 0.41421396 71
    endloop
  endfacet
  facet normal 0 0 -1
    outer loop
      vertex 2.0000007 76.51676 71.5
      vertex 1.5000007 76.51676 71.5
      vertex 2.0000007 95.2 71.5
    endloop
  endfacet
  facet normal 0 0 -1
    outer loop
      vertex 30.8 95.2 71.5
      vertex 31.3 76.51676 71.5
      vertex 30.8 76.51676 71.5
    endloop
  endfacet
  facet normal 0 0 -1
    outer loop
      vertex 31.3 76.51676 71.5
      vertex 30.8 95.2 71.5
      vertex 31.3 95.5 71.5
    endloop
  endfacet
  facet normal 0 0 -1
    outer loop
      vertex 2.0000007 95.2 71.5
      vertex 31.3 95.5 71.5
      vertex 30.8 95.2 71.5
    endloop
  endfacet
  facet normal 0 0 -1
    outer loop
      vertex 2.0000007 95.2 71.5
      vertex 1.5000007 95.5 71.5
      vertex 31.3 95.5 71.5
    endloop
  endfacet
  facet normal 0 0 -1
    outer loop
      vertex 1.5000007 95.5 71.5
      vertex 2.0000007 95.2 71.5
      vertex 1.5000007 76.51676 71.5
    endloop
  endfacet
  facet normal 0 0 -1
    outer loop
      vertex 1.5000007 0.20710698 71.5
      vertex 2.0000007 24.483242 71.5
      vertex 2.0000007 0 71.5
    endloop
  endfacet
  facet normal 0 0 -1
    outer loop
      vertex 2.0000007 24.483242 71.5
      vertex 1.5000007 0.20710698 71.5
      vertex 1.5000007 24.483242 71.5
    endloop
  endfacet
  facet normal 0 0 -1
    outer loop
      vertex 30.8 24.483242 71.5
      vertex 31.3 0.20710698 71.5
      vertex 30.8 0 71.5
    endloop
  endfacet
  facet normal 0 0 -1
    outer loop
      vertex 31.3 0.20710698 71.5
      vertex 30.8 24.483242 71.5
      vertex 31.3 24.483242 71.5
    endloop
  endfacet
  facet normal 1 0 0
    outer loop
      vertex 1.0000007 76.18879 71
      vertex 1.0000007 96 70
      vertex 1.0000007 96 71
    endloop
  endfacet
  facet normal 1 0 0
    outer loop
      vertex 1.0000007 75.75216 70
      vertex 1.0000007 76.18879 71
      vertex 1.0000007 75.8806 70.423416
    endloop
  endfacet
  facet normal 1 0 0
    outer loop
      vertex 1.0000007 76.18879 71
      vertex 1.0000007 75.75216 70
      vertex 1.0000007 96 70
    endloop
  endfacet
  facet normal 1 0 0
    outer loop
      vertex 1.0000007 24.811207 71
      vertex 1.0000007 25.247839 70
      vertex 1.0000007 25.119396 70.423416
    endloop
  endfacet
  facet normal 1 0 0
    outer loop
      vertex 1.0000007 0.41421396 70
      vertex 1.0000007 24.811207 71
      vertex 1.0000007 0.41421396 71
    endloop
  endfacet
  facet normal 1 0 0
    outer loop
      vertex 1.0000007 24.811207 71
      vertex 1.0000007 0.41421396 70
      vertex 1.0000007 25.247839 70
    endloop
  endfacet
  facet normal 0 -0.6343921 0.7730114
    outer loop
      vertex 30.8 77.72215 72.66735
      vertex 32.8 76.96446 72.04553
      vertex 32.8 77.72215 72.66735
    endloop
  endfacet
  facet normal 0 -0.6343921 0.7730114
    outer loop
      vertex 32.8 76.96446 72.04553
      vertex 30.8 77.72215 72.66735
      vertex 30.8 76.96446 72.04553
    endloop
  endfacet
  facet normal 0 -0.6343921 0.7730114
    outer loop
      vertex 7.6293946e-7 77.72215 72.66735
      vertex 2.0000007 76.96446 72.04553
      vertex 2.0000007 77.72215 72.66735
    endloop
  endfacet
  facet normal 0 -0.6343921 0.7730114
    outer loop
      vertex 2.0000007 76.96446 72.04553
      vertex 7.6293946e-7 77.72215 72.66735
      vertex 7.6293946e-7 76.96446 72.04553
    endloop
  endfacet
  facet normal 0 -0.7730148 0.634388
    outer loop
      vertex 31.3 76.51676 71.5
      vertex 30.8 76.96446 72.04553
      vertex 30.8 76.51676 71.5
    endloop
  endfacet
  facet normal 0 -0.7730148 0.634388
    outer loop
      vertex 30.8 76.96446 72.04553
      vertex 31.3 76.51676 71.5
      vertex 32.8 76.96446 72.04553
    endloop
  endfacet
  facet normal -0.0000052067203 -0.77300775 0.63439655
    outer loop
      vertex 31.51215 76.34265 71.28785
      vertex 32.8 76.96446 72.04553
      vertex 31.3 76.51676 71.5
    endloop
  endfacet
  facet normal 0 -0.7730121 0.63439125
    outer loop
      vertex 32.8 76.96446 72.04553
      vertex 31.51215 76.34265 71.28785
      vertex 32.8 76.34265 71.28785
    endloop
  endfacet
  facet normal 0 -0.7730148 0.634388
    outer loop
      vertex 7.6293946e-7 76.96446 72.04553
      vertex 1.5000007 76.51676 71.5
      vertex 2.0000007 76.96446 72.04553
    endloop
  endfacet
  facet normal 0 -0.7730121 0.63439125
    outer loop
      vertex 1.2878518 76.34265 71.28785
      vertex 7.6293946e-7 76.96446 72.04553
      vertex 7.6293946e-7 76.34265 71.28785
    endloop
  endfacet
  facet normal 0.000005206731 -0.77300775 0.63439655
    outer loop
      vertex 7.6293946e-7 76.96446 72.04553
      vertex 1.2878518 76.34265 71.28785
      vertex 1.5000007 76.51676 71.5
    endloop
  endfacet
  facet normal 0 -0.7730148 0.634388
    outer loop
      vertex 2.0000007 76.96446 72.04553
      vertex 1.5000007 76.51676 71.5
      vertex 2.0000007 76.51676 71.5
    endloop
  endfacet
  facet normal 0 -0.99518466 0.09801783
    outer loop
      vertex 30.8 75.54425 68.95925
      vertex 32.8 75.59608 69.48545
      vertex 30.8 75.59608 69.48545
    endloop
  endfacet
  facet normal 0 -0.99518466 0.09801783
    outer loop
      vertex 32.8 75.59608 69.48545
      vertex 30.8 75.54425 68.95925
      vertex 32.8 75.54425 68.95925
    endloop
  endfacet
  facet normal 0 -0.99518466 0.09801783
    outer loop
      vertex 7.6293946e-7 75.54425 68.95925
      vertex 2.0000007 75.59608 69.48545
      vertex 7.6293946e-7 75.59608 69.48545
    endloop
  endfacet
  facet normal 0 -0.99518466 0.09801783
    outer loop
      vertex 2.0000007 75.59608 69.48545
      vertex 7.6293946e-7 75.54425 68.95925
      vertex 2.0000007 75.54425 68.95925
    endloop
  endfacet
  facet normal 0 -0.8819171 0.47140455
    outer loop
      vertex 31.8 76.18879 71
      vertex 32.8 76.34265 71.28785
      vertex 31.51215 76.34265 71.28785
    endloop
  endfacet
  facet normal 0 -0.88192195 0.47139543
    outer loop
      vertex 32.8 75.8806 70.423416
      vertex 31.8 76.18879 71
      vertex 31.8 75.8806 70.423416
    endloop
  endfacet
  facet normal 0.0000022508762 -0.88192034 0.47139847
    outer loop
      vertex 31.8 76.18879 71
      vertex 32.8 75.8806 70.423416
      vertex 32.8 76.34265 71.28785
    endloop
  endfacet
  facet normal 0 -0.8819171 0.47140455
    outer loop
      vertex 7.6293946e-7 76.34265 71.28785
      vertex 1.0000007 76.18879 71
      vertex 1.2878518 76.34265 71.28785
    endloop
  endfacet
  facet normal -0.0000022508764 -0.88192034 0.47139847
    outer loop
      vertex 7.6293946e-7 75.8806 70.423416
      vertex 1.0000007 76.18879 71
      vertex 7.6293946e-7 76.34265 71.28785
    endloop
  endfacet
  facet normal 0 -0.88192195 0.47139543
    outer loop
      vertex 1.0000007 76.18879 71
      vertex 7.6293946e-7 75.8806 70.423416
      vertex 1.0000007 75.8806 70.423416
    endloop
  endfacet
  facet normal 0 -0.47139555 0.8819219
    outer loop
      vertex 7.6293946e-7 78.3445 73
      vertex 2.0000007 77.72215 72.66735
      vertex 2.0000007 78.3445 73
    endloop
  endfacet
  facet normal 0 -0.47139555 0.8819219
    outer loop
      vertex 2.0000007 77.72215 72.66735
      vertex 7.6293946e-7 78.3445 73
      vertex 7.6293946e-7 77.72215 72.66735
    endloop
  endfacet
  facet normal 0 -0.47139555 0.8819219
    outer loop
      vertex 30.8 78.3445 73
      vertex 32.8 77.72215 72.66735
      vertex 32.8 78.3445 73
    endloop
  endfacet
  facet normal 0 -0.47139555 0.8819219
    outer loop
      vertex 32.8 77.72215 72.66735
      vertex 30.8 78.3445 73
      vertex 30.8 77.72215 72.66735
    endloop
  endfacet
  facet normal 0 -0.95694274 0.29027674
    outer loop
      vertex 30.8 75.75216 70
      vertex 30.8 75.59608 69.48545
      vertex 31.8 75.75216 70
    endloop
  endfacet
  facet normal 0 -0.95694095 0.29028255
    outer loop
      vertex 31.8 75.75216 70
      vertex 32.8 75.8806 70.423416
      vertex 31.8 75.8806 70.423416
    endloop
  endfacet
  facet normal 0 -0.95694274 0.29027674
    outer loop
      vertex 32.8 75.59608 69.48545
      vertex 31.8 75.75216 70
      vertex 30.8 75.59608 69.48545
    endloop
  endfacet
  facet normal 0.0000014740024 -0.95694196 0.29027936
    outer loop
      vertex 31.8 75.75216 70
      vertex 32.8 75.59608 69.48545
      vertex 32.8 75.8806 70.423416
    endloop
  endfacet
  facet normal 0 -0.95694095 0.29028255
    outer loop
      vertex 7.6293946e-7 75.8806 70.423416
      vertex 1.0000007 75.75216 70
      vertex 1.0000007 75.8806 70.423416
    endloop
  endfacet
  facet normal -0.0000014740025 -0.95694196 0.29027936
    outer loop
      vertex 7.6293946e-7 75.59608 69.48545
      vertex 1.0000007 75.75216 70
      vertex 7.6293946e-7 75.8806 70.423416
    endloop
  endfacet
  facet normal 0 -0.95694274 0.29027674
    outer loop
      vertex 2.0000007 75.59608 69.48545
      vertex 1.0000007 75.75216 70
      vertex 7.6293946e-7 75.59608 69.48545
    endloop
  endfacet
  facet normal 0 -0.95694274 0.29027674
    outer loop
      vertex 1.0000007 75.75216 70
      vertex 2.0000007 75.59608 69.48545
      vertex 2.0000007 75.75216 70
    endloop
  endfacet
  facet normal 0 1 0
    outer loop
      vertex 32.8 75.54425 68.95925
      vertex 30.8 75.54425 69.17371
      vertex 32.8 75.54425 69.17371
    endloop
  endfacet
  facet normal 0 1 0
    outer loop
      vertex 30.8 75.54425 69.17371
      vertex 32.8 75.54425 68.95925
      vertex 30.8 75.54425 68.95925
    endloop
  endfacet
  facet normal 0 1 0
    outer loop
      vertex 2.0000007 75.54425 68.95925
      vertex 7.6293946e-7 75.54425 69.17371
      vertex 2.0000007 75.54425 69.17371
    endloop
  endfacet
  facet normal 0 1 0
    outer loop
      vertex 7.6293946e-7 75.54425 69.17371
      vertex 2.0000007 75.54425 68.95925
      vertex 7.6293946e-7 75.54425 68.95925
    endloop
  endfacet
  facet normal 0 -0.9911504 0.1327439
    outer loop
      vertex 7.6293946e-7 75.27876 67.191414
      vertex 2.0000007 75.54425 69.17371
      vertex 7.6293946e-7 75.54425 69.17371
    endloop
  endfacet
  facet normal 0 -0.9911504 0.1327439
    outer loop
      vertex 2.0000007 75.54425 69.17371
      vertex 7.6293946e-7 75.27876 67.191414
      vertex 2.0000007 75.27876 67.191414
    endloop
  endfacet
  facet normal 0 -0.9911504 0.1327439
    outer loop
      vertex 30.8 75.27876 67.191414
      vertex 32.8 75.54425 69.17371
      vertex 30.8 75.54425 69.17371
    endloop
  endfacet
  facet normal 0 -0.9911504 0.1327439
    outer loop
      vertex 32.8 75.54425 69.17371
      vertex 30.8 75.27876 67.191414
      vertex 32.8 75.27876 67.191414
    endloop
  endfacet
  facet normal 0 1 0
    outer loop
      vertex 2.0000007 75.27876 67.191414
      vertex 7.6293946e-7 75.27876 67.379654
      vertex 2.0000007 75.27876 67.379654
    endloop
  endfacet
  facet normal 0 1 0
    outer loop
      vertex 7.6293946e-7 75.27876 67.379654
      vertex 2.0000007 75.27876 67.191414
      vertex 7.6293946e-7 75.27876 67.191414
    endloop
  endfacet
  facet normal 0 1 0
    outer loop
      vertex 32.8 75.27876 67.191414
      vertex 30.8 75.27876 67.379654
      vertex 32.8 75.27876 67.379654
    endloop
  endfacet
  facet normal 0 1 0
    outer loop
      vertex 30.8 75.27876 67.379654
      vertex 32.8 75.27876 67.191414
      vertex 30.8 75.27876 67.191414
    endloop
  endfacet
  facet normal 0 0.63439596 0.7730083
    outer loop
      vertex 30.8 24.035534 72.04553
      vertex 32.8 23.277851 72.66735
      vertex 32.8 24.035534 72.04553
    endloop
  endfacet
  facet normal 0 0.63439596 0.7730083
    outer loop
      vertex 32.8 23.277851 72.66735
      vertex 30.8 24.035534 72.04553
      vertex 30.8 23.277851 72.66735
    endloop
  endfacet
  facet normal 0 0.63439596 0.7730083
    outer loop
      vertex 7.6293946e-7 24.035534 72.04553
      vertex 2.0000007 23.277851 72.66735
      vertex 2.0000007 24.035534 72.04553
    endloop
  endfacet
  facet normal 0 0.63439596 0.7730083
    outer loop
      vertex 2.0000007 23.277851 72.66735
      vertex 7.6293946e-7 24.035534 72.04553
      vertex 7.6293946e-7 23.277851 72.66735
    endloop
  endfacet
  facet normal 0 0.7730095 0.63439447
    outer loop
      vertex 32.8 24.035534 72.04553
      vertex 31.3 24.483242 71.5
      vertex 30.8 24.035534 72.04553
    endloop
  endfacet
  facet normal 0 0.7730102 0.63439363
    outer loop
      vertex 31.51215 24.657349 71.28785
      vertex 32.8 24.035534 72.04553
      vertex 32.8 24.657349 71.28785
    endloop
  endfacet
  facet normal 0.0000013833638 0.7730113 0.6343922
    outer loop
      vertex 32.8 24.035534 72.04553
      vertex 31.51215 24.657349 71.28785
      vertex 31.3 24.483242 71.5
    endloop
  endfacet
  facet normal 0 0.7730095 0.63439447
    outer loop
      vertex 30.8 24.035534 72.04553
      vertex 31.3 24.483242 71.5
      vertex 30.8 24.483242 71.5
    endloop
  endfacet
  facet normal 0 0.7730095 0.63439447
    outer loop
      vertex 1.5000007 24.483242 71.5
      vertex 2.0000007 24.035534 72.04553
      vertex 2.0000007 24.483242 71.5
    endloop
  endfacet
  facet normal 0 0.7730095 0.63439447
    outer loop
      vertex 2.0000007 24.035534 72.04553
      vertex 1.5000007 24.483242 71.5
      vertex 7.6293946e-7 24.035534 72.04553
    endloop
  endfacet
  facet normal -0.0000013833668 0.7730113 0.6343922
    outer loop
      vertex 1.2878518 24.657349 71.28785
      vertex 7.6293946e-7 24.035534 72.04553
      vertex 1.5000007 24.483242 71.5
    endloop
  endfacet
  facet normal 0 0.7730102 0.63439363
    outer loop
      vertex 7.6293946e-7 24.035534 72.04553
      vertex 1.2878518 24.657349 71.28785
      vertex 7.6293946e-7 24.657349 71.28785
    endloop
  endfacet
  facet normal 0 0.99518466 0.09801783
    outer loop
      vertex 32.8 25.455753 68.95925
      vertex 30.8 25.403927 69.48545
      vertex 32.8 25.403927 69.48545
    endloop
  endfacet
  facet normal 0 0.99518466 0.09801783
    outer loop
      vertex 30.8 25.403927 69.48545
      vertex 32.8 25.455753 68.95925
      vertex 30.8 25.455753 68.95925
    endloop
  endfacet
  facet normal 0 0.99518466 0.09801783
    outer loop
      vertex 2.0000007 25.455753 68.95925
      vertex 7.6293946e-7 25.403927 69.48545
      vertex 2.0000007 25.403927 69.48545
    endloop
  endfacet
  facet normal 0 0.99518466 0.09801783
    outer loop
      vertex 7.6293946e-7 25.403927 69.48545
      vertex 2.0000007 25.455753 68.95925
      vertex 7.6293946e-7 25.455753 68.95925
    endloop
  endfacet
  facet normal 0 0.88192195 0.47139546
    outer loop
      vertex 32.8 24.657349 71.28785
      vertex 31.8 24.811207 71
      vertex 31.51215 24.657349 71.28785
    endloop
  endfacet
  facet normal 6.8886927e-9 0.88192195 0.47139543
    outer loop
      vertex 32.8 25.119396 70.423416
      vertex 31.8 24.811207 71
      vertex 32.8 24.657349 71.28785
    endloop
  endfacet
  facet normal 0 0.88192195 0.47139543
    outer loop
      vertex 31.8 24.811207 71
      vertex 32.8 25.119396 70.423416
      vertex 31.8 25.119396 70.423416
    endloop
  endfacet
  facet normal 0 0.88192195 0.47139546
    outer loop
      vertex 1.0000007 24.811207 71
      vertex 7.6293946e-7 24.657349 71.28785
      vertex 1.2878518 24.657349 71.28785
    endloop
  endfacet
  facet normal 0 0.88192195 0.47139543
    outer loop
      vertex 7.6293946e-7 25.119396 70.423416
      vertex 1.0000007 24.811207 71
      vertex 1.0000007 25.119396 70.423416
    endloop
  endfacet
  facet normal -6.888693e-9 0.88192195 0.47139543
    outer loop
      vertex 1.0000007 24.811207 71
      vertex 7.6293946e-7 25.119396 70.423416
      vertex 7.6293946e-7 24.657349 71.28785
    endloop
  endfacet
  facet normal 0 0.47139442 0.8819225
    outer loop
      vertex 7.6293946e-7 23.277851 72.66735
      vertex 2.0000007 22.655504 73
      vertex 2.0000007 23.277851 72.66735
    endloop
  endfacet
  facet normal 0 0.47139442 0.8819225
    outer loop
      vertex 2.0000007 22.655504 73
      vertex 7.6293946e-7 23.277851 72.66735
      vertex 7.6293946e-7 22.655504 73
    endloop
  endfacet
  facet normal 0 0.47139442 0.8819225
    outer loop
      vertex 30.8 23.277851 72.66735
      vertex 32.8 22.655504 73
      vertex 32.8 23.277851 72.66735
    endloop
  endfacet
  facet normal 0 0.47139442 0.8819225
    outer loop
      vertex 32.8 22.655504 73
      vertex 30.8 23.277851 72.66735
      vertex 30.8 22.655504 73
    endloop
  endfacet
  facet normal 0 0.95693976 0.2902865
    outer loop
      vertex 32.8 25.119396 70.423416
      vertex 31.8 25.247839 70
      vertex 31.8 25.119396 70.423416
    endloop
  endfacet
  facet normal 3.4591856e-9 0.95693976 0.2902865
    outer loop
      vertex 32.8 25.403927 69.48545
      vertex 31.8 25.247839 70
      vertex 32.8 25.119396 70.423416
    endloop
  endfacet
  facet normal 0 0.95693976 0.29028648
    outer loop
      vertex 30.8 25.403927 69.48545
      vertex 31.8 25.247839 70
      vertex 32.8 25.403927 69.48545
    endloop
  endfacet
  facet normal 0 0.95693976 0.29028648
    outer loop
      vertex 31.8 25.247839 70
      vertex 30.8 25.403927 69.48545
      vertex 30.8 25.247839 70
    endloop
  endfacet
  facet normal 0 0.95693976 0.2902865
    outer loop
      vertex 1.0000007 25.247839 70
      vertex 7.6293946e-7 25.119396 70.423416
      vertex 1.0000007 25.119396 70.423416
    endloop
  endfacet
  facet normal 0 0.95693976 0.29028648
    outer loop
      vertex 7.6293946e-7 25.403927 69.48545
      vertex 1.0000007 25.247839 70
      vertex 2.0000007 25.403927 69.48545
    endloop
  endfacet
  facet normal -3.4591858e-9 0.95693976 0.2902865
    outer loop
      vertex 1.0000007 25.247839 70
      vertex 7.6293946e-7 25.403927 69.48545
      vertex 7.6293946e-7 25.119396 70.423416
    endloop
  endfacet
  facet normal 0 0.95693976 0.29028648
    outer loop
      vertex 2.0000007 25.247839 70
      vertex 2.0000007 25.403927 69.48545
      vertex 1.0000007 25.247839 70
    endloop
  endfacet
  facet normal 0 -1 0
    outer loop
      vertex 30.8 25.455753 68.95925
      vertex 32.8 25.455753 69.17371
      vertex 30.8 25.455753 69.17371
    endloop
  endfacet
  facet normal 0 -1 0
    outer loop
      vertex 32.8 25.455753 69.17371
      vertex 30.8 25.455753 68.95925
      vertex 32.8 25.455753 68.95925
    endloop
  endfacet
  facet normal 0 -1 0
    outer loop
      vertex 7.6293946e-7 25.455753 68.95925
      vertex 2.0000007 25.455753 69.17371
      vertex 7.6293946e-7 25.455753 69.17371
    endloop
  endfacet
  facet normal 0 -1 0
    outer loop
      vertex 2.0000007 25.455753 69.17371
      vertex 7.6293946e-7 25.455753 68.95925
      vertex 2.0000007 25.455753 68.95925
    endloop
  endfacet
  facet normal 0 0.9911505 0.13274296
    outer loop
      vertex 2.0000007 25.72124 67.191414
      vertex 7.6293946e-7 25.455753 69.17371
      vertex 2.0000007 25.455753 69.17371
    endloop
  endfacet
  facet normal 0 0.9911505 0.13274296
    outer loop
      vertex 7.6293946e-7 25.455753 69.17371
      vertex 2.0000007 25.72124 67.191414
      vertex 7.6293946e-7 25.72124 67.191414
    endloop
  endfacet
  facet normal 0 0.9911505 0.13274296
    outer loop
      vertex 32.8 25.72124 67.191414
      vertex 30.8 25.455753 69.17371
      vertex 32.8 25.455753 69.17371
    endloop
  endfacet
  facet normal 0 0.9911505 0.13274296
    outer loop
      vertex 30.8 25.455753 69.17371
      vertex 32.8 25.72124 67.191414
      vertex 30.8 25.72124 67.191414
    endloop
  endfacet
  facet normal 0 -1 0
    outer loop
      vertex 7.6293946e-7 25.72124 67.191414
      vertex 2.0000007 25.72124 67.379654
      vertex 7.6293946e-7 25.72124 67.379654
    endloop
  endfacet
  facet normal 0 -1 0
    outer loop
      vertex 2.0000007 25.72124 67.379654
      vertex 7.6293946e-7 25.72124 67.191414
      vertex 2.0000007 25.72124 67.191414
    endloop
  endfacet
  facet normal 0 -1 0
    outer loop
      vertex 30.8 25.72124 67.191414
      vertex 32.8 25.72124 67.379654
      vertex 30.8 25.72124 67.379654
    endloop
  endfacet
  facet normal 0 -1 0
    outer loop
      vertex 32.8 25.72124 67.379654
      vertex 30.8 25.72124 67.191414
      vertex 32.8 25.72124 67.191414
    endloop
  endfacet
  facet normal 0 -0.24297975 0.9700314
    outer loop
      vertex 30.8 57.75712 46.58649
      vertex 32.8 55.37726 45.990368
      vertex 32.8 57.75712 46.58649
    endloop
  endfacet
  facet normal 0 -0.24297975 0.9700314
    outer loop
      vertex 32.8 55.37726 45.990368
      vertex 30.8 57.75712 46.58649
      vertex 30.8 55.37726 45.990368
    endloop
  endfacet
  facet normal 0 -0.24297975 0.9700314
    outer loop
      vertex 7.6293946e-7 57.75712 46.58649
      vertex 2.0000007 55.37726 45.990368
      vertex 2.0000007 57.75712 46.58649
    endloop
  endfacet
  facet normal 0 -0.24297975 0.9700314
    outer loop
      vertex 2.0000007 55.37726 45.990368
      vertex 7.6293946e-7 57.75712 46.58649
      vertex 7.6293946e-7 55.37726 45.990368
    endloop
  endfacet
  facet normal 0 0.8032071 0.5956999
    outer loop
      vertex 2.0000007 31.17474 54.65017
      vertex 7.6293946e-7 29.71326 56.620743
      vertex 2.0000007 29.71326 56.620743
    endloop
  endfacet
  facet normal 0 0.8032071 0.5956999
    outer loop
      vertex 7.6293946e-7 29.71326 56.620743
      vertex 2.0000007 31.17474 54.65017
      vertex 7.6293946e-7 31.17474 54.65017
    endloop
  endfacet
  facet normal 0 0.8032071 0.5956999
    outer loop
      vertex 32.8 31.17474 54.65017
      vertex 30.8 29.71326 56.620743
      vertex 32.8 29.71326 56.620743
    endloop
  endfacet
  facet normal 0 0.8032071 0.5956999
    outer loop
      vertex 30.8 29.71326 56.620743
      vertex 32.8 31.17474 54.65017
      vertex 30.8 31.17474 54.65017
    endloop
  endfacet
  facet normal 0 0.85772884 0.5141024
    outer loop
      vertex 2.0000007 29.71326 56.620743
      vertex 7.6293946e-7 28.45197 58.725082
      vertex 2.0000007 28.45197 58.725082
    endloop
  endfacet
  facet normal 0 0.85772884 0.5141024
    outer loop
      vertex 7.6293946e-7 28.45197 58.725082
      vertex 2.0000007 29.71326 56.620743
      vertex 7.6293946e-7 29.71326 56.620743
    endloop
  endfacet
  facet normal 0 0.85772884 0.5141024
    outer loop
      vertex 32.8 29.71326 56.620743
      vertex 30.8 28.45197 58.725082
      vertex 32.8 28.45197 58.725082
    endloop
  endfacet
  facet normal 0 0.85772884 0.5141024
    outer loop
      vertex 30.8 28.45197 58.725082
      vertex 32.8 29.71326 56.620743
      vertex 30.8 29.71326 56.620743
    endloop
  endfacet
  facet normal 0 -0.74095196 0.6715581
    outer loop
      vertex 7.6293946e-7 68.17767 52.83233
      vertex 2.0000007 69.825264 54.65017
      vertex 7.6293946e-7 69.825264 54.65017
    endloop
  endfacet
  facet normal 0 -0.74095196 0.6715581
    outer loop
      vertex 2.0000007 69.825264 54.65017
      vertex 7.6293946e-7 68.17767 52.83233
      vertex 2.0000007 68.17767 52.83233
    endloop
  endfacet
  facet normal 0 -0.74095196 0.6715581
    outer loop
      vertex 30.8 68.17767 52.83233
      vertex 32.8 69.825264 54.65017
      vertex 30.8 69.825264 54.65017
    endloop
  endfacet
  facet normal 0 -0.74095196 0.6715581
    outer loop
      vertex 32.8 69.825264 54.65017
      vertex 30.8 68.17767 52.83233
      vertex 32.8 68.17767 52.83233
    endloop
  endfacet
  facet normal 0 0.98917645 0.14673094
    outer loop
      vertex 32.8 25.98037 65.632744
      vertex 30.8 25.72124 67.379654
      vertex 32.8 25.72124 67.379654
    endloop
  endfacet
  facet normal 0 0.98917645 0.14673094
    outer loop
      vertex 30.8 25.72124 67.379654
      vertex 32.8 25.98037 65.632744
      vertex 30.8 25.98037 65.632744
    endloop
  endfacet
  facet normal 0 0.98917645 0.14673094
    outer loop
      vertex 2.0000007 25.98037 65.632744
      vertex 7.6293946e-7 25.72124 67.379654
      vertex 2.0000007 25.72124 67.379654
    endloop
  endfacet
  facet normal 0 0.98917645 0.14673094
    outer loop
      vertex 7.6293946e-7 25.72124 67.379654
      vertex 2.0000007 25.98037 65.632744
      vertex 7.6293946e-7 25.98037 65.632744
    endloop
  endfacet
  facet normal 0 0.9700314 0.24297975
    outer loop
      vertex 32.8 26.576492 63.252884
      vertex 30.8 25.98037 65.632744
      vertex 32.8 25.98037 65.632744
    endloop
  endfacet
  facet normal 0 0.9700314 0.24297975
    outer loop
      vertex 30.8 25.98037 65.632744
      vertex 32.8 26.576492 63.252884
      vertex 30.8 26.576492 63.252884
    endloop
  endfacet
  facet normal 0 0.9700314 0.24297975
    outer loop
      vertex 2.0000007 26.576492 63.252884
      vertex 7.6293946e-7 25.98037 65.632744
      vertex 2.0000007 25.98037 65.632744
    endloop
  endfacet
  facet normal 0 0.9700314 0.24297975
    outer loop
      vertex 7.6293946e-7 25.98037 65.632744
      vertex 2.0000007 26.576492 63.252884
      vertex 7.6293946e-7 26.576492 63.252884
    endloop
  endfacet
  facet normal 0 -0.90399015 0.42755324
    outer loop
      vertex 7.6293946e-7 72.548035 58.725082
      vertex 2.0000007 73.596985 60.942913
      vertex 7.6293946e-7 73.596985 60.942913
    endloop
  endfacet
  facet normal 0 -0.90399015 0.42755324
    outer loop
      vertex 2.0000007 73.596985 60.942913
      vertex 7.6293946e-7 72.548035 58.725082
      vertex 2.0000007 72.548035 58.725082
    endloop
  endfacet
  facet normal 0 -0.90399015 0.42755324
    outer loop
      vertex 30.8 72.548035 58.725082
      vertex 32.8 73.596985 60.942913
      vertex 30.8 73.596985 60.942913
    endloop
  endfacet
  facet normal 0 -0.90399015 0.42755324
    outer loop
      vertex 32.8 73.596985 60.942913
      vertex 30.8 72.548035 58.725082
      vertex 32.8 72.548035 58.725082
    endloop
  endfacet
  facet normal 0 -0.9891763 0.146732
    outer loop
      vertex 30.8 75.01963 65.632744
      vertex 32.8 75.27876 67.379654
      vertex 30.8 75.27876 67.379654
    endloop
  endfacet
  facet normal 0 -0.9891763 0.146732
    outer loop
      vertex 32.8 75.27876 67.379654
      vertex 30.8 75.01963 65.632744
      vertex 32.8 75.01963 65.632744
    endloop
  endfacet
  facet normal 0 -0.9891763 0.146732
    outer loop
      vertex 7.6293946e-7 75.01963 65.632744
      vertex 2.0000007 75.27876 67.379654
      vertex 7.6293946e-7 75.27876 67.379654
    endloop
  endfacet
  facet normal 0 -0.9891763 0.146732
    outer loop
      vertex 2.0000007 75.27876 67.379654
      vertex 7.6293946e-7 75.01963 65.632744
      vertex 2.0000007 75.01963 65.632744
    endloop
  endfacet
  facet normal 0 -0.5956984 0.8032082
    outer loop
      vertex 7.6293946e-7 66.35983 51.18474
      vertex 2.0000007 64.38925 49.72326
      vertex 2.0000007 66.35983 51.18474
    endloop
  endfacet
  facet normal 0 -0.5956984 0.8032082
    outer loop
      vertex 2.0000007 64.38925 49.72326
      vertex 7.6293946e-7 66.35983 51.18474
      vertex 7.6293946e-7 64.38925 49.72326
    endloop
  endfacet
  facet normal 0 -0.5956984 0.8032082
    outer loop
      vertex 30.8 66.35983 51.18474
      vertex 32.8 64.38925 49.72326
      vertex 32.8 66.35983 51.18474
    endloop
  endfacet
  facet normal 0 -0.5956984 0.8032082
    outer loop
      vertex 32.8 64.38925 49.72326
      vertex 30.8 66.35983 51.18474
      vertex 30.8 64.38925 49.72326
    endloop
  endfacet
  facet normal 0 0.049068652 0.9987954
    outer loop
      vertex 7.6293946e-7 50.5 45.51
      vertex 2.0000007 48.049572 45.630383
      vertex 2.0000007 50.5 45.51
    endloop
  endfacet
  facet normal 0 0.049068652 0.9987954
    outer loop
      vertex 2.0000007 48.049572 45.630383
      vertex 7.6293946e-7 50.5 45.51
      vertex 7.6293946e-7 48.049572 45.630383
    endloop
  endfacet
  facet normal 0 0.049068652 0.9987954
    outer loop
      vertex 30.8 50.5 45.51
      vertex 32.8 48.049572 45.630383
      vertex 32.8 50.5 45.51
    endloop
  endfacet
  facet normal 0 0.049068652 0.9987954
    outer loop
      vertex 32.8 48.049572 45.630383
      vertex 30.8 50.5 45.51
      vertex 30.8 48.049572 45.630383
    endloop
  endfacet
  facet normal 0 0.4275539 0.90398985
    outer loop
      vertex 30.8 40.932915 47.413013
      vertex 32.8 38.71508 48.461967
      vertex 32.8 40.932915 47.413013
    endloop
  endfacet
  facet normal 0 0.4275539 0.90398985
    outer loop
      vertex 32.8 38.71508 48.461967
      vertex 30.8 40.932915 47.413013
      vertex 30.8 38.71508 48.461967
    endloop
  endfacet
  facet normal 0 0.4275539 0.90398985
    outer loop
      vertex 7.6293946e-7 40.932915 47.413013
      vertex 2.0000007 38.71508 48.461967
      vertex 2.0000007 40.932915 47.413013
    endloop
  endfacet
  facet normal 0 0.4275539 0.90398985
    outer loop
      vertex 2.0000007 38.71508 48.461967
      vertex 7.6293946e-7 40.932915 47.413013
      vertex 7.6293946e-7 38.71508 48.461967
    endloop
  endfacet
  facet normal 0 0.9415443 0.3368892
    outer loop
      vertex 32.8 27.403011 60.942913
      vertex 30.8 26.576492 63.252884
      vertex 32.8 26.576492 63.252884
    endloop
  endfacet
  facet normal 0 0.9415443 0.3368892
    outer loop
      vertex 30.8 26.576492 63.252884
      vertex 32.8 27.403011 60.942913
      vertex 30.8 27.403011 60.942913
    endloop
  endfacet
  facet normal 0 0.9415443 0.3368892
    outer loop
      vertex 2.0000007 27.403011 60.942913
      vertex 7.6293946e-7 26.576492 63.252884
      vertex 2.0000007 26.576492 63.252884
    endloop
  endfacet
  facet normal 0 0.9415443 0.3368892
    outer loop
      vertex 7.6293946e-7 26.576492 63.252884
      vertex 2.0000007 27.403011 60.942913
      vertex 7.6293946e-7 27.403011 60.942913
    endloop
  endfacet
  facet normal 0 0.24297975 0.9700314
    outer loop
      vertex 7.6293946e-7 45.62274 45.990368
      vertex 2.0000007 43.24288 46.58649
      vertex 2.0000007 45.62274 45.990368
    endloop
  endfacet
  facet normal 0 0.24297975 0.9700314
    outer loop
      vertex 2.0000007 43.24288 46.58649
      vertex 7.6293946e-7 45.62274 45.990368
      vertex 7.6293946e-7 43.24288 46.58649
    endloop
  endfacet
  facet normal 0 0.24297975 0.9700314
    outer loop
      vertex 30.8 45.62274 45.990368
      vertex 32.8 43.24288 46.58649
      vertex 32.8 45.62274 45.990368
    endloop
  endfacet
  facet normal 0 0.24297975 0.9700314
    outer loop
      vertex 32.8 43.24288 46.58649
      vertex 30.8 45.62274 45.990368
      vertex 30.8 43.24288 46.58649
    endloop
  endfacet
  facet normal 0 -0.9700314 0.24297975
    outer loop
      vertex 30.8 74.42351 63.252884
      vertex 32.8 75.01963 65.632744
      vertex 30.8 75.01963 65.632744
    endloop
  endfacet
  facet normal 0 -0.9700314 0.24297975
    outer loop
      vertex 32.8 75.01963 65.632744
      vertex 30.8 74.42351 63.252884
      vertex 32.8 74.42351 63.252884
    endloop
  endfacet
  facet normal 0 -0.9700314 0.24297975
    outer loop
      vertex 7.6293946e-7 74.42351 63.252884
      vertex 2.0000007 75.01963 65.632744
      vertex 7.6293946e-7 75.01963 65.632744
    endloop
  endfacet
  facet normal 0 -0.9700314 0.24297975
    outer loop
      vertex 2.0000007 75.01963 65.632744
      vertex 7.6293946e-7 74.42351 63.252884
      vertex 2.0000007 74.42351 63.252884
    endloop
  endfacet
  facet normal 0 -0.8032071 0.5956999
    outer loop
      vertex 7.6293946e-7 69.825264 54.65017
      vertex 2.0000007 71.28674 56.620743
      vertex 7.6293946e-7 71.28674 56.620743
    endloop
  endfacet
  facet normal 0 -0.8032071 0.5956999
    outer loop
      vertex 2.0000007 71.28674 56.620743
      vertex 7.6293946e-7 69.825264 54.65017
      vertex 2.0000007 69.825264 54.65017
    endloop
  endfacet
  facet normal 0 -0.8032071 0.5956999
    outer loop
      vertex 30.8 69.825264 54.65017
      vertex 32.8 71.28674 56.620743
      vertex 30.8 71.28674 56.620743
    endloop
  endfacet
  facet normal 0 -0.8032071 0.5956999
    outer loop
      vertex 32.8 71.28674 56.620743
      vertex 30.8 69.825264 54.65017
      vertex 32.8 69.825264 54.65017
    endloop
  endfacet
  facet normal 0 -0.5141038 0.857728
    outer loop
      vertex 30.8 64.38925 49.72326
      vertex 32.8 62.28492 48.461967
      vertex 32.8 64.38925 49.72326
    endloop
  endfacet
  facet normal 0 -0.5141038 0.857728
    outer loop
      vertex 32.8 62.28492 48.461967
      vertex 30.8 64.38925 49.72326
      vertex 30.8 62.28492 48.461967
    endloop
  endfacet
  facet normal 0 -0.5141038 0.857728
    outer loop
      vertex 7.6293946e-7 64.38925 49.72326
      vertex 2.0000007 62.28492 48.461967
      vertex 2.0000007 64.38925 49.72326
    endloop
  endfacet
  facet normal 0 -0.5141038 0.857728
    outer loop
      vertex 2.0000007 62.28492 48.461967
      vertex 7.6293946e-7 64.38925 49.72326
      vertex 7.6293946e-7 62.28492 48.461967
    endloop
  endfacet
  facet normal 0 0.33689108 0.94154364
    outer loop
      vertex 30.8 43.24288 46.58649
      vertex 32.8 40.932915 47.413013
      vertex 32.8 43.24288 46.58649
    endloop
  endfacet
  facet normal 0 0.33689108 0.94154364
    outer loop
      vertex 32.8 40.932915 47.413013
      vertex 30.8 43.24288 46.58649
      vertex 30.8 40.932915 47.413013
    endloop
  endfacet
  facet normal 0 0.33689108 0.94154364
    outer loop
      vertex 7.6293946e-7 43.24288 46.58649
      vertex 2.0000007 40.932915 47.413013
      vertex 2.0000007 43.24288 46.58649
    endloop
  endfacet
  facet normal 0 0.33689108 0.94154364
    outer loop
      vertex 2.0000007 40.932915 47.413013
      vertex 7.6293946e-7 43.24288 46.58649
      vertex 7.6293946e-7 40.932915 47.413013
    endloop
  endfacet
  facet normal 0 0.5141031 0.8577284
    outer loop
      vertex 7.6293946e-7 38.71508 48.461967
      vertex 2.0000007 36.610744 49.72326
      vertex 2.0000007 38.71508 48.461967
    endloop
  endfacet
  facet normal 0 0.5141031 0.8577284
    outer loop
      vertex 2.0000007 36.610744 49.72326
      vertex 7.6293946e-7 38.71508 48.461967
      vertex 7.6293946e-7 36.610744 49.72326
    endloop
  endfacet
  facet normal 0 0.5141031 0.8577284
    outer loop
      vertex 30.8 38.71508 48.461967
      vertex 32.8 36.610744 49.72326
      vertex 32.8 38.71508 48.461967
    endloop
  endfacet
  facet normal 0 0.5141031 0.8577284
    outer loop
      vertex 32.8 36.610744 49.72326
      vertex 30.8 38.71508 48.461967
      vertex 30.8 36.610744 49.72326
    endloop
  endfacet
  facet normal 0 -0.4275539 0.90398985
    outer loop
      vertex 30.8 62.28492 48.461967
      vertex 32.8 60.067085 47.413013
      vertex 32.8 62.28492 48.461967
    endloop
  endfacet
  facet normal 0 -0.4275539 0.90398985
    outer loop
      vertex 32.8 60.067085 47.413013
      vertex 30.8 62.28492 48.461967
      vertex 30.8 60.067085 47.413013
    endloop
  endfacet
  facet normal 0 -0.4275539 0.90398985
    outer loop
      vertex 7.6293946e-7 62.28492 48.461967
      vertex 2.0000007 60.067085 47.413013
      vertex 2.0000007 62.28492 48.461967
    endloop
  endfacet
  facet normal 0 -0.4275539 0.90398985
    outer loop
      vertex 2.0000007 60.067085 47.413013
      vertex 7.6293946e-7 62.28492 48.461967
      vertex 7.6293946e-7 60.067085 47.413013
    endloop
  endfacet
  facet normal 0 -0.85772884 0.5141024
    outer loop
      vertex 7.6293946e-7 71.28674 56.620743
      vertex 2.0000007 72.548035 58.725082
      vertex 7.6293946e-7 72.548035 58.725082
    endloop
  endfacet
  facet normal 0 -0.85772884 0.5141024
    outer loop
      vertex 2.0000007 72.548035 58.725082
      vertex 7.6293946e-7 71.28674 56.620743
      vertex 2.0000007 71.28674 56.620743
    endloop
  endfacet
  facet normal 0 -0.85772884 0.5141024
    outer loop
      vertex 30.8 71.28674 56.620743
      vertex 32.8 72.548035 58.725082
      vertex 30.8 72.548035 58.725082
    endloop
  endfacet
  facet normal 0 -0.85772884 0.5141024
    outer loop
      vertex 32.8 72.548035 58.725082
      vertex 30.8 71.28674 56.620743
      vertex 32.8 71.28674 56.620743
    endloop
  endfacet
  facet normal 0 -0.049068652 0.9987954
    outer loop
      vertex 30.8 52.950428 45.630383
      vertex 32.8 50.5 45.51
      vertex 32.8 52.950428 45.630383
    endloop
  endfacet
  facet normal 0 -0.049068652 0.9987954
    outer loop
      vertex 32.8 50.5 45.51
      vertex 30.8 52.950428 45.630383
      vertex 30.8 50.5 45.51
    endloop
  endfacet
  facet normal 0 -0.049068652 0.9987954
    outer loop
      vertex 7.6293946e-7 52.950428 45.630383
      vertex 2.0000007 50.5 45.51
      vertex 2.0000007 52.950428 45.630383
    endloop
  endfacet
  facet normal 0 -0.049068652 0.9987954
    outer loop
      vertex 2.0000007 50.5 45.51
      vertex 7.6293946e-7 52.950428 45.630383
      vertex 7.6293946e-7 50.5 45.51
    endloop
  endfacet
  facet normal 0 -0.6715581 0.74095196
    outer loop
      vertex 7.6293946e-7 68.17767 52.83233
      vertex 2.0000007 66.35983 51.18474
      vertex 2.0000007 68.17767 52.83233
    endloop
  endfacet
  facet normal 0 -0.6715581 0.74095196
    outer loop
      vertex 2.0000007 66.35983 51.18474
      vertex 7.6293946e-7 68.17767 52.83233
      vertex 7.6293946e-7 66.35983 51.18474
    endloop
  endfacet
  facet normal 0 -0.6715581 0.74095196
    outer loop
      vertex 30.8 68.17767 52.83233
      vertex 32.8 66.35983 51.18474
      vertex 32.8 68.17767 52.83233
    endloop
  endfacet
  facet normal 0 -0.6715581 0.74095196
    outer loop
      vertex 32.8 66.35983 51.18474
      vertex 30.8 68.17767 52.83233
      vertex 30.8 66.35983 51.18474
    endloop
  endfacet
  facet normal 0 -0.9415438 0.33689058
    outer loop
      vertex 7.6293946e-7 73.596985 60.942913
      vertex 2.0000007 74.42351 63.252884
      vertex 7.6293946e-7 74.42351 63.252884
    endloop
  endfacet
  facet normal 0 -0.9415438 0.33689058
    outer loop
      vertex 2.0000007 74.42351 63.252884
      vertex 7.6293946e-7 73.596985 60.942913
      vertex 2.0000007 73.596985 60.942913
    endloop
  endfacet
  facet normal 0 -0.9415438 0.33689058
    outer loop
      vertex 30.8 73.596985 60.942913
      vertex 32.8 74.42351 63.252884
      vertex 30.8 74.42351 63.252884
    endloop
  endfacet
  facet normal 0 -0.9415438 0.33689058
    outer loop
      vertex 32.8 74.42351 63.252884
      vertex 30.8 73.596985 60.942913
      vertex 32.8 73.596985 60.942913
    endloop
  endfacet
  facet normal 0 0.74095196 0.6715581
    outer loop
      vertex 2.0000007 32.82233 52.83233
      vertex 7.6293946e-7 31.17474 54.65017
      vertex 2.0000007 31.17474 54.65017
    endloop
  endfacet
  facet normal 0 0.74095196 0.6715581
    outer loop
      vertex 7.6293946e-7 31.17474 54.65017
      vertex 2.0000007 32.82233 52.83233
      vertex 7.6293946e-7 32.82233 52.83233
    endloop
  endfacet
  facet normal 0 0.74095196 0.6715581
    outer loop
      vertex 32.8 32.82233 52.83233
      vertex 30.8 31.17474 54.65017
      vertex 32.8 31.17474 54.65017
    endloop
  endfacet
  facet normal 0 0.74095196 0.6715581
    outer loop
      vertex 30.8 31.17474 54.65017
      vertex 32.8 32.82233 52.83233
      vertex 30.8 32.82233 52.83233
    endloop
  endfacet
  facet normal 0 -0.33689108 0.94154364
    outer loop
      vertex 30.8 60.067085 47.413013
      vertex 32.8 57.75712 46.58649
      vertex 32.8 60.067085 47.413013
    endloop
  endfacet
  facet normal 0 -0.33689108 0.94154364
    outer loop
      vertex 32.8 57.75712 46.58649
      vertex 30.8 60.067085 47.413013
      vertex 30.8 57.75712 46.58649
    endloop
  endfacet
  facet normal 0 -0.33689108 0.94154364
    outer loop
      vertex 7.6293946e-7 60.067085 47.413013
      vertex 2.0000007 57.75712 46.58649
      vertex 2.0000007 60.067085 47.413013
    endloop
  endfacet
  facet normal 0 -0.33689108 0.94154364
    outer loop
      vertex 2.0000007 57.75712 46.58649
      vertex 7.6293946e-7 60.067085 47.413013
      vertex 7.6293946e-7 57.75712 46.58649
    endloop
  endfacet
  facet normal 0 0.67155886 0.74095124
    outer loop
      vertex 7.6293946e-7 34.640167 51.18474
      vertex 2.0000007 32.82233 52.83233
      vertex 2.0000007 34.640167 51.18474
    endloop
  endfacet
  facet normal 0 0.67155886 0.74095124
    outer loop
      vertex 2.0000007 32.82233 52.83233
      vertex 7.6293946e-7 34.640167 51.18474
      vertex 7.6293946e-7 32.82233 52.83233
    endloop
  endfacet
  facet normal 0 0.67155886 0.74095124
    outer loop
      vertex 30.8 34.640167 51.18474
      vertex 32.8 32.82233 52.83233
      vertex 32.8 34.640167 51.18474
    endloop
  endfacet
  facet normal 0 0.67155886 0.74095124
    outer loop
      vertex 32.8 32.82233 52.83233
      vertex 30.8 34.640167 51.18474
      vertex 30.8 32.82233 52.83233
    endloop
  endfacet
  facet normal 0 0.5956992 0.80320764
    outer loop
      vertex 7.6293946e-7 36.610744 49.72326
      vertex 2.0000007 34.640167 51.18474
      vertex 2.0000007 36.610744 49.72326
    endloop
  endfacet
  facet normal 0 0.5956992 0.80320764
    outer loop
      vertex 2.0000007 34.640167 51.18474
      vertex 7.6293946e-7 36.610744 49.72326
      vertex 7.6293946e-7 34.640167 51.18474
    endloop
  endfacet
  facet normal 0 0.5956992 0.80320764
    outer loop
      vertex 30.8 36.610744 49.72326
      vertex 32.8 34.640167 51.18474
      vertex 32.8 36.610744 49.72326
    endloop
  endfacet
  facet normal 0 0.5956992 0.80320764
    outer loop
      vertex 32.8 34.640167 51.18474
      vertex 30.8 36.610744 49.72326
      vertex 30.8 34.640167 51.18474
    endloop
  endfacet
  facet normal 0 -0.14673011 0.9891766
    outer loop
      vertex 30.8 55.37726 45.990368
      vertex 32.8 52.950428 45.630383
      vertex 32.8 55.37726 45.990368
    endloop
  endfacet
  facet normal 0 -0.14673011 0.9891766
    outer loop
      vertex 32.8 52.950428 45.630383
      vertex 30.8 55.37726 45.990368
      vertex 30.8 52.950428 45.630383
    endloop
  endfacet
  facet normal 0 -0.14673011 0.9891766
    outer loop
      vertex 7.6293946e-7 55.37726 45.990368
      vertex 2.0000007 52.950428 45.630383
      vertex 2.0000007 55.37726 45.990368
    endloop
  endfacet
  facet normal 0 -0.14673011 0.9891766
    outer loop
      vertex 2.0000007 52.950428 45.630383
      vertex 7.6293946e-7 55.37726 45.990368
      vertex 7.6293946e-7 52.950428 45.630383
    endloop
  endfacet
  facet normal 0 0.90398896 0.42755577
    outer loop
      vertex 32.8 28.45197 58.725082
      vertex 30.8 27.403011 60.942913
      vertex 32.8 27.403011 60.942913
    endloop
  endfacet
  facet normal 0 0.90398896 0.42755577
    outer loop
      vertex 30.8 27.403011 60.942913
      vertex 32.8 28.45197 58.725082
      vertex 30.8 28.45197 58.725082
    endloop
  endfacet
  facet normal 0 0.90398896 0.42755577
    outer loop
      vertex 2.0000007 28.45197 58.725082
      vertex 7.6293946e-7 27.403011 60.942913
      vertex 2.0000007 27.403011 60.942913
    endloop
  endfacet
  facet normal 0 0.90398896 0.42755577
    outer loop
      vertex 7.6293946e-7 27.403011 60.942913
      vertex 2.0000007 28.45197 58.725082
      vertex 7.6293946e-7 28.45197 58.725082
    endloop
  endfacet
  facet normal 0 0.14673011 0.9891766
    outer loop
      vertex 7.6293946e-7 48.049572 45.630383
      vertex 2.0000007 45.62274 45.990368
      vertex 2.0000007 48.049572 45.630383
    endloop
  endfacet
  facet normal 0 0.14673011 0.9891766
    outer loop
      vertex 2.0000007 45.62274 45.990368
      vertex 7.6293946e-7 48.049572 45.630383
      vertex 7.6293946e-7 45.62274 45.990368
    endloop
  endfacet
  facet normal 0 0.14673011 0.9891766
    outer loop
      vertex 30.8 48.049572 45.630383
      vertex 32.8 45.62274 45.990368
      vertex 32.8 48.049572 45.630383
    endloop
  endfacet
  facet normal 0 0.14673011 0.9891766
    outer loop
      vertex 32.8 45.62274 45.990368
      vertex 30.8 48.049572 45.630383
      vertex 30.8 45.62274 45.990368
    endloop
  endfacet
  facet normal 0 -1 0
    outer loop
      vertex 2.0000007 95 2
      vertex 30.8 95 70
      vertex 2.0000007 95 70
    endloop
  endfacet
  facet normal 0 -1 0
    outer loop
      vertex 30.8 95 70
      vertex 2.0000007 95 2
      vertex 30.8 95 2
    endloop
  endfacet
  facet normal 0 0 1
    outer loop
      vertex 2.0000007 95 2
      vertex 30.8 2 2
      vertex 30.8 95 2
    endloop
  endfacet
  facet normal 0 0 1
    outer loop
      vertex 30.8 2 2
      vertex 2.0000007 95 2
      vertex 2.0000007 2 2
    endloop
  endfacet
  facet normal 0 1 0
    outer loop
      vertex 30.8 2 2
      vertex 2.0000007 2 70
      vertex 30.8 2 70
    endloop
  endfacet
  facet normal 0 1 0
    outer loop
      vertex 2.0000007 2 70
      vertex 30.8 2 2
      vertex 2.0000007 2 2
    endloop
  endfacet
  facet normal -0.92387956 0.3826833 0
    outer loop
      vertex 7.6293946e-7 95 0
      vertex 0.5857876 96.414215 73
      vertex 0.5857876 96.414215 0
    endloop
  endfacet
  facet normal -0.92387956 0.3826833 0
    outer loop
      vertex 0.5857876 96.414215 73
      vertex 7.6293946e-7 95 0
      vertex 7.6293946e-7 95 73
    endloop
  endfacet
  facet normal -1 0 0
    outer loop
      vertex 7.6293946e-7 71.28674 56.620743
      vertex 7.6293946e-7 95 73
      vertex 7.6293946e-7 95 0
    endloop
  endfacet
  facet normal -1 0 0
    outer loop
      vertex 7.6293946e-7 75.01963 65.632744
      vertex 7.6293946e-7 95 73
      vertex 7.6293946e-7 74.42351 63.252884
    endloop
  endfacet
  facet normal -1 0 0
    outer loop
      vertex 7.6293946e-7 75.27876 67.191414
      vertex 7.6293946e-7 95 73
      vertex 7.6293946e-7 75.01963 65.632744
    endloop
  endfacet
  facet normal -1 0 0
    outer loop
      vertex 7.6293946e-7 75.54425 68.95925
      vertex 7.6293946e-7 78.3445 73
      vertex 7.6293946e-7 75.27876 67.191414
    endloop
  endfacet
  facet normal -1 0 0
    outer loop
      vertex 7.6293946e-7 76.96446 72.04553
      vertex 7.6293946e-7 78.3445 73
      vertex 7.6293946e-7 75.54425 68.95925
    endloop
  endfacet
  facet normal -1 0 0
    outer loop
      vertex 7.6293946e-7 76.96446 72.04553
      vertex 7.6293946e-7 75.54425 68.95925
      vertex 7.6293946e-7 76.34265 71.28785
    endloop
  endfacet
  facet normal -1 0 0
    outer loop
      vertex 7.6293946e-7 75.8806 70.423416
      vertex 7.6293946e-7 75.54425 68.95925
      vertex 7.6293946e-7 75.59608 69.48545
    endloop
  endfacet
  facet normal -1 0 0
    outer loop
      vertex 7.6293946e-7 75.54425 68.95925
      vertex 7.6293946e-7 75.27876 67.191414
      vertex 7.6293946e-7 75.54425 69.17371
    endloop
  endfacet
  facet normal -1 0 0
    outer loop
      vertex 7.6293946e-7 76.34265 71.28785
      vertex 7.6293946e-7 75.54425 68.95925
      vertex 7.6293946e-7 75.8806 70.423416
    endloop
  endfacet
  facet normal -1 0 0
    outer loop
      vertex 7.6293946e-7 75.27876 67.191414
      vertex 7.6293946e-7 75.01963 65.632744
      vertex 7.6293946e-7 75.27876 67.379654
    endloop
  endfacet
  facet normal -1 0 0
    outer loop
      vertex 7.6293946e-7 78.3445 73
      vertex 7.6293946e-7 76.96446 72.04553
      vertex 7.6293946e-7 77.72215 72.66735
    endloop
  endfacet
  facet normal -1 0 0
    outer loop
      vertex 7.6293946e-7 95 73
      vertex 7.6293946e-7 75.27876 67.191414
      vertex 7.6293946e-7 78.3445 73
    endloop
  endfacet
  facet normal -1 0 0
    outer loop
      vertex 7.6293946e-7 95 73
      vertex 7.6293946e-7 73.596985 60.942913
      vertex 7.6293946e-7 74.42351 63.252884
    endloop
  endfacet
  facet normal -1 0 0
    outer loop
      vertex 7.6293946e-7 95 73
      vertex 7.6293946e-7 72.548035 58.725082
      vertex 7.6293946e-7 73.596985 60.942913
    endloop
  endfacet
  facet normal -1 0 0
    outer loop
      vertex 7.6293946e-7 95 73
      vertex 7.6293946e-7 71.28674 56.620743
      vertex 7.6293946e-7 72.548035 58.725082
    endloop
  endfacet
  facet normal -1 0 0
    outer loop
      vertex 7.6293946e-7 95 0
      vertex 7.6293946e-7 69.825264 54.65017
      vertex 7.6293946e-7 71.28674 56.620743
    endloop
  endfacet
  facet normal -1 0 0
    outer loop
      vertex 7.6293946e-7 95 0
      vertex 7.6293946e-7 68.17767 52.83233
      vertex 7.6293946e-7 69.825264 54.65017
    endloop
  endfacet
  facet normal -1 0 0
    outer loop
      vertex 7.6293946e-7 95 0
      vertex 7.6293946e-7 66.35983 51.18474
      vertex 7.6293946e-7 68.17767 52.83233
    endloop
  endfacet
  facet normal -1 0 0
    outer loop
      vertex 7.6293946e-7 95 0
      vertex 7.6293946e-7 64.38925 49.72326
      vertex 7.6293946e-7 66.35983 51.18474
    endloop
  endfacet
  facet normal -1 0 0
    outer loop
      vertex 7.6293946e-7 95 0
      vertex 7.6293946e-7 62.28492 48.461967
      vertex 7.6293946e-7 64.38925 49.72326
    endloop
  endfacet
  facet normal -1 0 0
    outer loop
      vertex 7.6293946e-7 95 0
      vertex 7.6293946e-7 60.067085 47.413013
      vertex 7.6293946e-7 62.28492 48.461967
    endloop
  endfacet
  facet normal -1 0 0
    outer loop
      vertex 7.6293946e-7 95 0
      vertex 7.6293946e-7 57.75712 46.58649
      vertex 7.6293946e-7 60.067085 47.413013
    endloop
  endfacet
  facet normal -1 0 0
    outer loop
      vertex 7.6293946e-7 95 0
      vertex 7.6293946e-7 55.37726 45.990368
      vertex 7.6293946e-7 57.75712 46.58649
    endloop
  endfacet
  facet normal -1 0 0
    outer loop
      vertex 7.6293946e-7 95 0
      vertex 7.6293946e-7 52.950428 45.630383
      vertex 7.6293946e-7 55.37726 45.990368
    endloop
  endfacet
  facet normal -1 0 0
    outer loop
      vertex 7.6293946e-7 95 0
      vertex 7.6293946e-7 50.5 45.51
      vertex 7.6293946e-7 52.950428 45.630383
    endloop
  endfacet
  facet normal -1 0 0
    outer loop
      vertex 7.6293946e-7 2 0
      vertex 7.6293946e-7 50.5 45.51
      vertex 7.6293946e-7 95 0
    endloop
  endfacet
  facet normal -1 0 0
    outer loop
      vertex 7.6293946e-7 50.5 45.51
      vertex 7.6293946e-7 2 0
      vertex 7.6293946e-7 48.049572 45.630383
    endloop
  endfacet
  facet normal -1 0 0
    outer loop
      vertex 7.6293946e-7 48.049572 45.630383
      vertex 7.6293946e-7 2 0
      vertex 7.6293946e-7 45.62274 45.990368
    endloop
  endfacet
  facet normal -1 0 0
    outer loop
      vertex 7.6293946e-7 45.62274 45.990368
      vertex 7.6293946e-7 2 0
      vertex 7.6293946e-7 43.24288 46.58649
    endloop
  endfacet
  facet normal -1 0 0
    outer loop
      vertex 7.6293946e-7 43.24288 46.58649
      vertex 7.6293946e-7 2 0
      vertex 7.6293946e-7 40.932915 47.413013
    endloop
  endfacet
  facet normal -1 0 0
    outer loop
      vertex 7.6293946e-7 40.932915 47.413013
      vertex 7.6293946e-7 2 0
      vertex 7.6293946e-7 38.71508 48.461967
    endloop
  endfacet
  facet normal -1 0 0
    outer loop
      vertex 7.6293946e-7 38.71508 48.461967
      vertex 7.6293946e-7 2 0
      vertex 7.6293946e-7 36.610744 49.72326
    endloop
  endfacet
  facet normal -1 0 0
    outer loop
      vertex 7.6293946e-7 25.455753 68.95925
      vertex 7.6293946e-7 25.119396 70.423416
      vertex 7.6293946e-7 25.403927 69.48545
    endloop
  endfacet
  facet normal -1 0 0
    outer loop
      vertex 7.6293946e-7 22.655504 73
      vertex 7.6293946e-7 25.455753 68.95925
      vertex 7.6293946e-7 25.72124 67.191414
    endloop
  endfacet
  facet normal -1 0 0
    outer loop
      vertex 7.6293946e-7 22.655504 73
      vertex 7.6293946e-7 25.72124 67.191414
      vertex 7.6293946e-7 25.98037 65.632744
    endloop
  endfacet
  facet normal -1 0 0
    outer loop
      vertex 7.6293946e-7 25.455753 68.95925
      vertex 7.6293946e-7 22.655504 73
      vertex 7.6293946e-7 25.119396 70.423416
    endloop
  endfacet
  facet normal -1 0 0
    outer loop
      vertex 7.6293946e-7 25.119396 70.423416
      vertex 7.6293946e-7 22.655504 73
      vertex 7.6293946e-7 24.657349 71.28785
    endloop
  endfacet
  facet normal -1 0 0
    outer loop
      vertex 7.6293946e-7 2 73
      vertex 7.6293946e-7 25.98037 65.632744
      vertex 7.6293946e-7 26.576492 63.252884
    endloop
  endfacet
  facet normal -1 0 0
    outer loop
      vertex 7.6293946e-7 24.657349 71.28785
      vertex 7.6293946e-7 22.655504 73
      vertex 7.6293946e-7 24.035534 72.04553
    endloop
  endfacet
  facet normal -1 0 0
    outer loop
      vertex 7.6293946e-7 24.035534 72.04553
      vertex 7.6293946e-7 22.655504 73
      vertex 7.6293946e-7 23.277851 72.66735
    endloop
  endfacet
  facet normal -1 0 0
    outer loop
      vertex 7.6293946e-7 2 73
      vertex 7.6293946e-7 26.576492 63.252884
      vertex 7.6293946e-7 27.403011 60.942913
    endloop
  endfacet
  facet normal -1 0 0
    outer loop
      vertex 7.6293946e-7 36.610744 49.72326
      vertex 7.6293946e-7 2 0
      vertex 7.6293946e-7 34.640167 51.18474
    endloop
  endfacet
  facet normal -1 0 0
    outer loop
      vertex 7.6293946e-7 2 0
      vertex 7.6293946e-7 32.82233 52.83233
      vertex 7.6293946e-7 34.640167 51.18474
    endloop
  endfacet
  facet normal -1 0 0
    outer loop
      vertex 7.6293946e-7 2 0
      vertex 7.6293946e-7 31.17474 54.65017
      vertex 7.6293946e-7 32.82233 52.83233
    endloop
  endfacet
  facet normal -1 0 0
    outer loop
      vertex 7.6293946e-7 2 0
      vertex 7.6293946e-7 29.71326 56.620743
      vertex 7.6293946e-7 31.17474 54.65017
    endloop
  endfacet
  facet normal -1 0 0
    outer loop
      vertex 7.6293946e-7 2 73
      vertex 7.6293946e-7 29.71326 56.620743
      vertex 7.6293946e-7 2 0
    endloop
  endfacet
  facet normal -1 0 0
    outer loop
      vertex 7.6293946e-7 29.71326 56.620743
      vertex 7.6293946e-7 2 73
      vertex 7.6293946e-7 28.45197 58.725082
    endloop
  endfacet
  facet normal -1 0 0
    outer loop
      vertex 7.6293946e-7 28.45197 58.725082
      vertex 7.6293946e-7 2 73
      vertex 7.6293946e-7 27.403011 60.942913
    endloop
  endfacet
  facet normal -1 0 0
    outer loop
      vertex 7.6293946e-7 25.98037 65.632744
      vertex 7.6293946e-7 2 73
      vertex 7.6293946e-7 22.655504 73
    endloop
  endfacet
  facet normal -1 0 0
    outer loop
      vertex 7.6293946e-7 25.98037 65.632744
      vertex 7.6293946e-7 25.72124 67.191414
      vertex 7.6293946e-7 25.72124 67.379654
    endloop
  endfacet
  facet normal -1 0 0
    outer loop
      vertex 7.6293946e-7 25.72124 67.191414
      vertex 7.6293946e-7 25.455753 68.95925
      vertex 7.6293946e-7 25.455753 69.17371
    endloop
  endfacet
  facet normal 0 1 0
    outer loop
      vertex 30.8 97 0
      vertex 2.0000007 97 73
      vertex 30.8 97 73
    endloop
  endfacet
  facet normal 0 1 0
    outer loop
      vertex 2.0000007 97 73
      vertex 30.8 97 0
      vertex 2.0000007 97 0
    endloop
  endfacet
  facet normal -0.38268268 0.92387986 0
    outer loop
      vertex 2.0000007 97 0
      vertex 0.5857876 96.414215 73
      vertex 2.0000007 97 73
    endloop
  endfacet
  facet normal -0.38268268 0.92387986 0
    outer loop
      vertex 0.5857876 96.414215 73
      vertex 2.0000007 97 0
      vertex 0.5857876 96.414215 0
    endloop
  endfacet
  facet normal 1 0 0
    outer loop
      vertex 32.8 75.27876 67.379654
      vertex 32.8 75.01963 65.632744
      vertex 32.8 75.27876 67.191414
    endloop
  endfacet
  facet normal 1 0 0
    outer loop
      vertex 32.8 75.54425 69.17371
      vertex 32.8 75.27876 67.191414
      vertex 32.8 75.54425 68.95925
    endloop
  endfacet
  facet normal 1 0 0
    outer loop
      vertex 32.8 75.27876 67.191414
      vertex 32.8 95 73
      vertex 32.8 78.3445 73
    endloop
  endfacet
  facet normal 1 0 0
    outer loop
      vertex 32.8 76.96446 72.04553
      vertex 32.8 78.3445 73
      vertex 32.8 77.72215 72.66735
    endloop
  endfacet
  facet normal 1 0 0
    outer loop
      vertex 32.8 78.3445 73
      vertex 32.8 76.96446 72.04553
      vertex 32.8 75.54425 68.95925
    endloop
  endfacet
  facet normal 1 0 0
    outer loop
      vertex 32.8 75.54425 68.95925
      vertex 32.8 76.96446 72.04553
      vertex 32.8 76.34265 71.28785
    endloop
  endfacet
  facet normal 1 0 0
    outer loop
      vertex 32.8 75.54425 68.95925
      vertex 32.8 76.34265 71.28785
      vertex 32.8 75.8806 70.423416
    endloop
  endfacet
  facet normal 1 0 0
    outer loop
      vertex 32.8 75.54425 68.95925
      vertex 32.8 75.8806 70.423416
      vertex 32.8 75.59608 69.48545
    endloop
  endfacet
  facet normal 1 0 0
    outer loop
      vertex 32.8 78.3445 73
      vertex 32.8 75.54425 68.95925
      vertex 32.8 75.27876 67.191414
    endloop
  endfacet
  facet normal 1 0 0
    outer loop
      vertex 32.8 95 73
      vertex 32.8 75.27876 67.191414
      vertex 32.8 75.01963 65.632744
    endloop
  endfacet
  facet normal 1 0 0
    outer loop
      vertex 32.8 95 73
      vertex 32.8 75.01963 65.632744
      vertex 32.8 74.42351 63.252884
    endloop
  endfacet
  facet normal 1 0 0
    outer loop
      vertex 32.8 73.596985 60.942913
      vertex 32.8 95 73
      vertex 32.8 74.42351 63.252884
    endloop
  endfacet
  facet normal 1 0 0
    outer loop
      vertex 32.8 72.548035 58.725082
      vertex 32.8 95 73
      vertex 32.8 73.596985 60.942913
    endloop
  endfacet
  facet normal 1 0 0
    outer loop
      vertex 32.8 71.28674 56.620743
      vertex 32.8 95 73
      vertex 32.8 72.548035 58.725082
    endloop
  endfacet
  facet normal 1 0 0
    outer loop
      vertex 32.8 95 73
      vertex 32.8 71.28674 56.620743
      vertex 32.8 95 0
    endloop
  endfacet
  facet normal 1 0 0
    outer loop
      vertex 32.8 69.825264 54.65017
      vertex 32.8 95 0
      vertex 32.8 71.28674 56.620743
    endloop
  endfacet
  facet normal 1 0 0
    outer loop
      vertex 32.8 68.17767 52.83233
      vertex 32.8 95 0
      vertex 32.8 69.825264 54.65017
    endloop
  endfacet
  facet normal 1 0 0
    outer loop
      vertex 32.8 66.35983 51.18474
      vertex 32.8 95 0
      vertex 32.8 68.17767 52.83233
    endloop
  endfacet
  facet normal 1 0 0
    outer loop
      vertex 32.8 64.38925 49.72326
      vertex 32.8 95 0
      vertex 32.8 66.35983 51.18474
    endloop
  endfacet
  facet normal 1 0 0
    outer loop
      vertex 32.8 62.28492 48.461967
      vertex 32.8 95 0
      vertex 32.8 64.38925 49.72326
    endloop
  endfacet
  facet normal 1 0 0
    outer loop
      vertex 32.8 60.067085 47.413013
      vertex 32.8 95 0
      vertex 32.8 62.28492 48.461967
    endloop
  endfacet
  facet normal 1 0 0
    outer loop
      vertex 32.8 57.75712 46.58649
      vertex 32.8 95 0
      vertex 32.8 60.067085 47.413013
    endloop
  endfacet
  facet normal 1 0 0
    outer loop
      vertex 32.8 55.37726 45.990368
      vertex 32.8 95 0
      vertex 32.8 57.75712 46.58649
    endloop
  endfacet
  facet normal 1 0 0
    outer loop
      vertex 32.8 52.950428 45.630383
      vertex 32.8 95 0
      vertex 32.8 55.37726 45.990368
    endloop
  endfacet
  facet normal 1 0 0
    outer loop
      vertex 32.8 50.5 45.51
      vertex 32.8 95 0
      vertex 32.8 52.950428 45.630383
    endloop
  endfacet
  facet normal 1 0 0
    outer loop
      vertex 32.8 2 0
      vertex 32.8 50.5 45.51
      vertex 32.8 48.049572 45.630383
    endloop
  endfacet
  facet normal 1 0 0
    outer loop
      vertex 32.8 2 0
      vertex 32.8 48.049572 45.630383
      vertex 32.8 45.62274 45.990368
    endloop
  endfacet
  facet normal 1 0 0
    outer loop
      vertex 32.8 2 0
      vertex 32.8 45.62274 45.990368
      vertex 32.8 43.24288 46.58649
    endloop
  endfacet
  facet normal 1 0 0
    outer loop
      vertex 32.8 2 0
      vertex 32.8 43.24288 46.58649
      vertex 32.8 40.932915 47.413013
    endloop
  endfacet
  facet normal 1 0 0
    outer loop
      vertex 32.8 2 0
      vertex 32.8 40.932915 47.413013
      vertex 32.8 38.71508 48.461967
    endloop
  endfacet
  facet normal 1 0 0
    outer loop
      vertex 32.8 2 0
      vertex 32.8 38.71508 48.461967
      vertex 32.8 36.610744 49.72326
    endloop
  endfacet
  facet normal 1 0 0
    outer loop
      vertex 32.8 2 0
      vertex 32.8 36.610744 49.72326
      vertex 32.8 34.640167 51.18474
    endloop
  endfacet
  facet normal 1 0 0
    outer loop
      vertex 32.8 25.72124 67.191414
      vertex 32.8 25.98037 65.632744
      vertex 32.8 25.72124 67.379654
    endloop
  endfacet
  facet normal 1 0 0
    outer loop
      vertex 32.8 25.455753 68.95925
      vertex 32.8 25.72124 67.191414
      vertex 32.8 25.455753 69.17371
    endloop
  endfacet
  facet normal 1 0 0
    outer loop
      vertex 32.8 25.119396 70.423416
      vertex 32.8 25.455753 68.95925
      vertex 32.8 25.403927 69.48545
    endloop
  endfacet
  facet normal 1 0 0
    outer loop
      vertex 32.8 22.655504 73
      vertex 32.8 25.455753 68.95925
      vertex 32.8 25.119396 70.423416
    endloop
  endfacet
  facet normal 1 0 0
    outer loop
      vertex 32.8 25.455753 68.95925
      vertex 32.8 22.655504 73
      vertex 32.8 25.72124 67.191414
    endloop
  endfacet
  facet normal 1 0 0
    outer loop
      vertex 32.8 22.655504 73
      vertex 32.8 25.119396 70.423416
      vertex 32.8 24.657349 71.28785
    endloop
  endfacet
  facet normal 1 0 0
    outer loop
      vertex 32.8 22.655504 73
      vertex 32.8 24.657349 71.28785
      vertex 32.8 24.035534 72.04553
    endloop
  endfacet
  facet normal 1 0 0
    outer loop
      vertex 32.8 25.72124 67.191414
      vertex 32.8 22.655504 73
      vertex 32.8 25.98037 65.632744
    endloop
  endfacet
  facet normal 1 0 0
    outer loop
      vertex 32.8 22.655504 73
      vertex 32.8 24.035534 72.04553
      vertex 32.8 23.277851 72.66735
    endloop
  endfacet
  facet normal 1 0 0
    outer loop
      vertex 32.8 2 73
      vertex 32.8 25.98037 65.632744
      vertex 32.8 22.655504 73
    endloop
  endfacet
  facet normal 1 0 0
    outer loop
      vertex 32.8 25.98037 65.632744
      vertex 32.8 2 73
      vertex 32.8 26.576492 63.252884
    endloop
  endfacet
  facet normal 1 0 0
    outer loop
      vertex 32.8 26.576492 63.252884
      vertex 32.8 2 73
      vertex 32.8 27.403011 60.942913
    endloop
  endfacet
  facet normal 1 0 0
    outer loop
      vertex 32.8 2 73
      vertex 32.8 28.45197 58.725082
      vertex 32.8 27.403011 60.942913
    endloop
  endfacet
  facet normal 1 0 0
    outer loop
      vertex 32.8 2 73
      vertex 32.8 29.71326 56.620743
      vertex 32.8 28.45197 58.725082
    endloop
  endfacet
  facet normal 1 0 0
    outer loop
      vertex 32.8 2 0
      vertex 32.8 29.71326 56.620743
      vertex 32.8 2 73
    endloop
  endfacet
  facet normal 1 0 0
    outer loop
      vertex 32.8 29.71326 56.620743
      vertex 32.8 2 0
      vertex 32.8 31.17474 54.65017
    endloop
  endfacet
  facet normal 1 0 0
    outer loop
      vertex 32.8 31.17474 54.65017
      vertex 32.8 2 0
      vertex 32.8 32.82233 52.83233
    endloop
  endfacet
  facet normal 1 0 0
    outer loop
      vertex 32.8 32.82233 52.83233
      vertex 32.8 2 0
      vertex 32.8 34.640167 51.18474
    endloop
  endfacet
  facet normal 1 0 0
    outer loop
      vertex 32.8 50.5 45.51
      vertex 32.8 2 0
      vertex 32.8 95 0
    endloop
  endfacet
  facet normal 0.92387986 -0.38268268 0
    outer loop
      vertex 32.214214 0.5857868 73
      vertex 32.8 2 0
      vertex 32.8 2 73
    endloop
  endfacet
  facet normal 0.92387986 -0.38268268 0
    outer loop
      vertex 32.8 2 0
      vertex 32.214214 0.5857868 73
      vertex 32.214214 0.5857868 0
    endloop
  endfacet
  facet normal 0.92388004 0.38268223 0
    outer loop
      vertex 32.8 95 73
      vertex 32.214214 96.414215 0
      vertex 32.214214 96.414215 73
    endloop
  endfacet
  facet normal 0.92388004 0.38268223 0
    outer loop
      vertex 32.214214 96.414215 0
      vertex 32.8 95 73
      vertex 32.8 95 0
    endloop
  endfacet
  facet normal -0.38268375 -0.9238794 1.9277497e-9
    outer loop
      vertex 0.5857876 0.5857868 73
      vertex 1.5000007 0.20710698 71.5
      vertex 2.0000007 0 73
    endloop
  endfacet
  facet normal -0.38268375 -0.9238794 3.3877485e-9
    outer loop
      vertex 0.5857876 0.5857868 73
      vertex 1.0000007 0.41421396 71
      vertex 1.5000007 0.20710698 71.5
    endloop
  endfacet
  facet normal -0.38268375 -0.9238794 0
    outer loop
      vertex 0.5857876 0.5857868 73
      vertex 1.0000007 0.41421396 70
      vertex 1.0000007 0.41421396 71
    endloop
  endfacet
  facet normal -0.38268375 -0.9238794 0
    outer loop
      vertex 0.5857876 0.5857868 0
      vertex 1.0000007 0.41421396 70
      vertex 0.5857876 0.5857868 73
    endloop
  endfacet
  facet normal -0.38268375 -0.9238794 -1.1683923e-10
    outer loop
      vertex 0.5857876 0.5857868 0
      vertex 2.0000007 0 70
      vertex 1.0000007 0.41421396 70
    endloop
  endfacet
  facet normal -0.38268375 -0.9238794 0
    outer loop
      vertex 2.0000007 0 70
      vertex 0.5857876 0.5857868 0
      vertex 2.0000007 0 0
    endloop
  endfacet
  facet normal -0.38268375 -0.9238794 0
    outer loop
      vertex 2.0000007 0 73
      vertex 1.5000007 0.20710698 71.5
      vertex 2.0000007 0 71.5
    endloop
  endfacet
  facet normal 0.38268375 -0.9238794 0
    outer loop
      vertex 30.8 0 70
      vertex 30.8 0 0
      vertex 31.8 0.41421396 70
    endloop
  endfacet
  facet normal 0.38268375 -0.9238794 0
    outer loop
      vertex 31.3 0.20710698 71.5
      vertex 30.8 0 73
      vertex 30.8 0 71.5
    endloop
  endfacet
  facet normal 0.3826833 -0.92387956 -1.7549014e-7
    outer loop
      vertex 30.8 0 73
      vertex 31.3 0.20710698 71.5
      vertex 32.214214 0.5857868 73
    endloop
  endfacet
  facet normal 0.3826835 -0.9238795 -3.0839936e-7
    outer loop
      vertex 31.8 0.41421396 71
      vertex 32.214214 0.5857868 73
      vertex 31.3 0.20710698 71.5
    endloop
  endfacet
  facet normal 0.3826822 -0.92388004 0
    outer loop
      vertex 31.8 0.41421396 70
      vertex 32.214214 0.5857868 73
      vertex 31.8 0.41421396 71
    endloop
  endfacet
  facet normal 0.3826833 -0.92387956 7.521006e-9
    outer loop
      vertex 32.214214 0.5857868 0
      vertex 31.8 0.41421396 70
      vertex 30.8 0 0
    endloop
  endfacet
  facet normal 0.3826822 -0.92388004 0
    outer loop
      vertex 31.8 0.41421396 70
      vertex 32.214214 0.5857868 0
      vertex 32.214214 0.5857868 73
    endloop
  endfacet
  facet normal 0.38268223 0.92388004 0
    outer loop
      vertex 32.214214 96.414215 0
      vertex 30.8 97 73
      vertex 32.214214 96.414215 73
    endloop
  endfacet
  facet normal 0.38268223 0.92388004 0
    outer loop
      vertex 30.8 97 73
      vertex 32.214214 96.414215 0
      vertex 30.8 97 0
    endloop
  endfacet
  facet normal 0 0 -1
    outer loop
      vertex 30.8 0 0
      vertex 32.8 2 0
      vertex 32.214214 0.5857868 0
    endloop
  endfacet
  facet normal 0 0 -1
    outer loop
      vertex 32.8 2 0
      vertex 7.6293946e-7 2 0
      vertex 32.8 95 0
    endloop
  endfacet
  facet normal 0 0 -1
    outer loop
      vertex 32.8 2 0
      vertex 30.8 0 0
      vertex 7.6293946e-7 2 0
    endloop
  endfacet
  facet normal 0 0 -1
    outer loop
      vertex 7.6293946e-7 95 0
      vertex 32.8 95 0
      vertex 7.6293946e-7 2 0
    endloop
  endfacet
  facet normal 0 0 -1
    outer loop
      vertex 7.6293946e-7 2 0
      vertex 30.8 0 0
      vertex 2.0000007 0 0
    endloop
  endfacet
  facet normal 0 0 -1
    outer loop
      vertex 30.8 97 0
      vertex 32.8 95 0
      vertex 7.6293946e-7 95 0
    endloop
  endfacet
  facet normal 0 0 -1
    outer loop
      vertex 7.6293946e-7 2 0
      vertex 2.0000007 0 0
      vertex 0.5857876 0.5857868 0
    endloop
  endfacet
  facet normal 0 0 -1
    outer loop
      vertex 32.8 95 0
      vertex 30.8 97 0
      vertex 32.214214 96.414215 0
    endloop
  endfacet
  facet normal 0 0 -1
    outer loop
      vertex 30.8 97 0
      vertex 7.6293946e-7 95 0
      vertex 2.0000007 97 0
    endloop
  endfacet
  facet normal 0 0 -1
    outer loop
      vertex 2.0000007 97 0
      vertex 7.6293946e-7 95 0
      vertex 0.5857876 96.414215 0
    endloop
  endfacet
  facet normal 0 -1 0
    outer loop
      vertex 2.0000007 0 0
      vertex 30.8 0 70
      vertex 2.0000007 0 70
    endloop
  endfacet
  facet normal 0 -1 0
    outer loop
      vertex 30.8 0 70
      vertex 2.0000007 0 0
      vertex 30.8 0 0
    endloop
  endfacet
  facet normal 0 0 1
    outer loop
      vertex 30.8 22.655504 73
      vertex 32.8 2 73
      vertex 32.8 22.655504 73
    endloop
  endfacet
  facet normal 0 0 1
    outer loop
      vertex 30.8 0 73
      vertex 32.8 2 73
      vertex 30.8 22.655504 73
    endloop
  endfacet
  facet normal 0 0 1
    outer loop
      vertex 32.8 2 73
      vertex 30.8 0 73
      vertex 32.214214 0.5857868 73
    endloop
  endfacet
  facet normal 0 0 1
    outer loop
      vertex 2.0000007 97 73
      vertex 30.8 95.2 73
      vertex 30.8 97 73
    endloop
  endfacet
  facet normal 0 0 1
    outer loop
      vertex 2.0000007 97 73
      vertex 2.0000007 95.2 73
      vertex 30.8 95.2 73
    endloop
  endfacet
  facet normal 0 0 1
    outer loop
      vertex 0.5857876 96.414215 73
      vertex 2.0000007 95.2 73
      vertex 2.0000007 97 73
    endloop
  endfacet
  facet normal 0 0 1
    outer loop
      vertex 2.0000007 95.2 73
      vertex 0.5857876 96.414215 73
      vertex 7.6293946e-7 95 73
    endloop
  endfacet
  facet normal 0 0 1
    outer loop
      vertex 2.0000007 95.2 73
      vertex 7.6293946e-7 95 73
      vertex 2.0000007 78.3445 73
    endloop
  endfacet
  facet normal 0 0 1
    outer loop
      vertex 2.0000007 78.3445 73
      vertex 7.6293946e-7 95 73
      vertex 7.6293946e-7 78.3445 73
    endloop
  endfacet
  facet normal 0 0 1
    outer loop
      vertex 30.8 95.2 73
      vertex 32.8 95 73
      vertex 32.214214 96.414215 73
    endloop
  endfacet
  facet normal 0 0 1
    outer loop
      vertex 30.8 95.2 73
      vertex 32.214214 96.414215 73
      vertex 30.8 97 73
    endloop
  endfacet
  facet normal 0 0 1
    outer loop
      vertex 30.8 78.3445 73
      vertex 32.8 95 73
      vertex 30.8 95.2 73
    endloop
  endfacet
  facet normal 0 0 1
    outer loop
      vertex 32.8 95 73
      vertex 30.8 78.3445 73
      vertex 32.8 78.3445 73
    endloop
  endfacet
  facet normal 0 0 1
    outer loop
      vertex 7.6293946e-7 2 73
      vertex 2.0000007 0 73
      vertex 2.0000007 22.655504 73
    endloop
  endfacet
  facet normal 0 0 1
    outer loop
      vertex 7.6293946e-7 2 73
      vertex 2.0000007 22.655504 73
      vertex 7.6293946e-7 22.655504 73
    endloop
  endfacet
  facet normal 0 0 1
    outer loop
      vertex 2.0000007 0 73
      vertex 7.6293946e-7 2 73
      vertex 0.5857876 0.5857868 73
    endloop
  endfacet
  facet normal -0.9238794 -0.38268375 0
    outer loop
      vertex 0.5857876 0.5857868 0
      vertex 7.6293946e-7 2 73
      vertex 7.6293946e-7 2 0
    endloop
  endfacet
  facet normal -0.9238794 -0.38268375 0
    outer loop
      vertex 7.6293946e-7 2 73
      vertex 0.5857876 0.5857868 0
      vertex 0.5857876 0.5857868 73
    endloop
  endfacet
endsolid OpenSCAD_Model
