solid OpenSCAD_Model
  facet normal 0 -1 0
    outer loop
      vertex 2 95.2 71.5
      vertex 35 95.2 73
      vertex 2 95.2 73
    endloop
  endfacet
  facet normal 0 -1 0
    outer loop
      vertex 35 95.2 73
      vertex 2 95.2 71.5
      vertex 35 95.2 71.5
    endloop
  endfacet
  facet normal 0 0 1
    outer loop
      vertex 36 96 70
      vertex 35 95 70
      vertex 36 75.75216 70
    endloop
  endfacet
  facet normal 0 0 1
    outer loop
      vertex 36 96 70
      vertex 2 95 70
      vertex 35 95 70
    endloop
  endfacet
  facet normal 0 0 1
    outer loop
      vertex 1 96 70
      vertex 2 95 70
      vertex 36 96 70
    endloop
  endfacet
  facet normal 0 0 1
    outer loop
      vertex 1 75.75216 70
      vertex 2 95 70
      vertex 1 96 70
    endloop
  endfacet
  facet normal 0 0 1
    outer loop
      vertex 2 95 70
      vertex 1 75.75216 70
      vertex 2 75.75216 70
    endloop
  endfacet
  facet normal 0 0 1
    outer loop
      vertex 36 75.75216 70
      vertex 35 95 70
      vertex 35 75.75216 70
    endloop
  endfacet
  facet normal 0 0 1
    outer loop
      vertex 1 25.247839 70
      vertex 2 2 70
      vertex 2 25.247839 70
    endloop
  endfacet
  facet normal 0 0 1
    outer loop
      vertex 2 2 70
      vertex 1 25.247839 70
      vertex 1 0.41421396 70
    endloop
  endfacet
  facet normal 0 0 1
    outer loop
      vertex 2 2 70
      vertex 1 0.41421396 70
      vertex 2 0 70
    endloop
  endfacet
  facet normal 0 0 1
    outer loop
      vertex 35 2 70
      vertex 36 25.247839 70
      vertex 35 25.247839 70
    endloop
  endfacet
  facet normal 0 0 1
    outer loop
      vertex 36 25.247839 70
      vertex 35 2 70
      vertex 36 0.41421396 70
    endloop
  endfacet
  facet normal 0 0 1
    outer loop
      vertex 35 2 70
      vertex 35 0 70
      vertex 36 0.41421396 70
    endloop
  endfacet
  facet normal 0 0 1
    outer loop
      vertex 2 2 70
      vertex 35 0 70
      vertex 35 2 70
    endloop
  endfacet
  facet normal 0 0 1
    outer loop
      vertex 35 0 70
      vertex 2 2 70
      vertex 2 0 70
    endloop
  endfacet
  facet normal 1 0 0
    outer loop
      vertex 2 23.277851 72.66735
      vertex 2 24.483242 71.5
      vertex 2 24.035534 72.04553
    endloop
  endfacet
  facet normal 1 0 0
    outer loop
      vertex 2 22.655504 73
      vertex 2 24.483242 71.5
      vertex 2 23.277851 72.66735
    endloop
  endfacet
  facet normal 1 0 0
    outer loop
      vertex 2 0 71.5
      vertex 2 22.655504 73
      vertex 2 0 73
    endloop
  endfacet
  facet normal 1 0 0
    outer loop
      vertex 2 22.655504 73
      vertex 2 0 71.5
      vertex 2 24.483242 71.5
    endloop
  endfacet
  facet normal 1 0 0
    outer loop
      vertex 2 78.3445 73
      vertex 2 95.2 71.5
      vertex 2 95.2 73
    endloop
  endfacet
  facet normal 1 0 0
    outer loop
      vertex 2 76.51676 71.5
      vertex 2 78.3445 73
      vertex 2 77.72215 72.66735
    endloop
  endfacet
  facet normal 1 0 0
    outer loop
      vertex 2 76.51676 71.5
      vertex 2 77.72215 72.66735
      vertex 2 76.96446 72.04553
    endloop
  endfacet
  facet normal 1 0 0
    outer loop
      vertex 2 78.3445 73
      vertex 2 76.51676 71.5
      vertex 2 95.2 71.5
    endloop
  endfacet
  facet normal 1 0 0
    outer loop
      vertex 2 75.27876 67.379654
      vertex 2 75.01963 65.632744
      vertex 2 75.27876 67.191414
    endloop
  endfacet
  facet normal 1 0 0
    outer loop
      vertex 2 75.54425 69.17371
      vertex 2 75.27876 67.191414
      vertex 2 75.54425 68.95925
    endloop
  endfacet
  facet normal 1 0 0
    outer loop
      vertex 2 75.54425 68.95925
      vertex 2 95 70
      vertex 2 75.75216 70
    endloop
  endfacet
  facet normal 1 0 0
    outer loop
      vertex 2 75.54425 68.95925
      vertex 2 75.75216 70
      vertex 2 75.59608 69.48545
    endloop
  endfacet
  facet normal 1 0 0
    outer loop
      vertex 2 95 70
      vertex 2 75.54425 68.95925
      vertex 2 75.27876 67.191414
    endloop
  endfacet
  facet normal 1 0 0
    outer loop
      vertex 2 75.01963 65.632744
      vertex 2 95 70
      vertex 2 75.27876 67.191414
    endloop
  endfacet
  facet normal 1 0 0
    outer loop
      vertex 2 74.42351 63.252884
      vertex 2 95 70
      vertex 2 75.01963 65.632744
    endloop
  endfacet
  facet normal 1 0 0
    outer loop
      vertex 2 73.596985 60.942913
      vertex 2 95 70
      vertex 2 74.42351 63.252884
    endloop
  endfacet
  facet normal 1 0 0
    outer loop
      vertex 2 72.548035 58.725082
      vertex 2 95 70
      vertex 2 73.596985 60.942913
    endloop
  endfacet
  facet normal 1 0 0
    outer loop
      vertex 2 71.28674 56.620743
      vertex 2 95 70
      vertex 2 72.548035 58.725082
    endloop
  endfacet
  facet normal 1 0 0
    outer loop
      vertex 2 95 70
      vertex 2 71.28674 56.620743
      vertex 2 95 2
    endloop
  endfacet
  facet normal 1 0 0
    outer loop
      vertex 2 69.825264 54.65017
      vertex 2 95 2
      vertex 2 71.28674 56.620743
    endloop
  endfacet
  facet normal 1 0 0
    outer loop
      vertex 2 68.17767 52.83233
      vertex 2 95 2
      vertex 2 69.825264 54.65017
    endloop
  endfacet
  facet normal 1 0 0
    outer loop
      vertex 2 66.35983 51.18474
      vertex 2 95 2
      vertex 2 68.17767 52.83233
    endloop
  endfacet
  facet normal 1 0 0
    outer loop
      vertex 2 64.38925 49.72326
      vertex 2 95 2
      vertex 2 66.35983 51.18474
    endloop
  endfacet
  facet normal 1 0 0
    outer loop
      vertex 2 62.28492 48.461967
      vertex 2 95 2
      vertex 2 64.38925 49.72326
    endloop
  endfacet
  facet normal 1 0 0
    outer loop
      vertex 2 60.067085 47.413013
      vertex 2 95 2
      vertex 2 62.28492 48.461967
    endloop
  endfacet
  facet normal 1 0 0
    outer loop
      vertex 2 57.75712 46.58649
      vertex 2 95 2
      vertex 2 60.067085 47.413013
    endloop
  endfacet
  facet normal 1 0 0
    outer loop
      vertex 2 55.37726 45.990368
      vertex 2 95 2
      vertex 2 57.75712 46.58649
    endloop
  endfacet
  facet normal 1 0 0
    outer loop
      vertex 2 52.950428 45.630383
      vertex 2 95 2
      vertex 2 55.37726 45.990368
    endloop
  endfacet
  facet normal 1 0 0
    outer loop
      vertex 2 50.5 45.51
      vertex 2 95 2
      vertex 2 52.950428 45.630383
    endloop
  endfacet
  facet normal 1 0 0
    outer loop
      vertex 2 2 2
      vertex 2 50.5 45.51
      vertex 2 48.049572 45.630383
    endloop
  endfacet
  facet normal 1 0 0
    outer loop
      vertex 2 2 2
      vertex 2 48.049572 45.630383
      vertex 2 45.62274 45.990368
    endloop
  endfacet
  facet normal 1 0 0
    outer loop
      vertex 2 2 2
      vertex 2 45.62274 45.990368
      vertex 2 43.24288 46.58649
    endloop
  endfacet
  facet normal 1 0 0
    outer loop
      vertex 2 2 2
      vertex 2 43.24288 46.58649
      vertex 2 40.932915 47.413013
    endloop
  endfacet
  facet normal 1 0 0
    outer loop
      vertex 2 2 2
      vertex 2 40.932915 47.413013
      vertex 2 38.71508 48.461967
    endloop
  endfacet
  facet normal 1 0 0
    outer loop
      vertex 2 2 2
      vertex 2 38.71508 48.461967
      vertex 2 36.610744 49.72326
    endloop
  endfacet
  facet normal 1 0 0
    outer loop
      vertex 2 2 2
      vertex 2 36.610744 49.72326
      vertex 2 34.640167 51.18474
    endloop
  endfacet
  facet normal 1 0 0
    outer loop
      vertex 2 25.72124 67.191414
      vertex 2 25.98037 65.632744
      vertex 2 25.72124 67.379654
    endloop
  endfacet
  facet normal 1 0 0
    outer loop
      vertex 2 25.455753 68.95925
      vertex 2 25.72124 67.191414
      vertex 2 25.455753 69.17371
    endloop
  endfacet
  facet normal 1 0 0
    outer loop
      vertex 2 25.247839 70
      vertex 2 25.455753 68.95925
      vertex 2 25.403927 69.48545
    endloop
  endfacet
  facet normal 1 0 0
    outer loop
      vertex 2 2 70
      vertex 2 25.455753 68.95925
      vertex 2 25.247839 70
    endloop
  endfacet
  facet normal 1 0 0
    outer loop
      vertex 2 25.455753 68.95925
      vertex 2 2 70
      vertex 2 25.72124 67.191414
    endloop
  endfacet
  facet normal 1 0 0
    outer loop
      vertex 2 25.72124 67.191414
      vertex 2 2 70
      vertex 2 25.98037 65.632744
    endloop
  endfacet
  facet normal 1 0 0
    outer loop
      vertex 2 2 70
      vertex 2 26.576492 63.252884
      vertex 2 25.98037 65.632744
    endloop
  endfacet
  facet normal 1 0 0
    outer loop
      vertex 2 2 70
      vertex 2 27.403011 60.942913
      vertex 2 26.576492 63.252884
    endloop
  endfacet
  facet normal 1 0 0
    outer loop
      vertex 2 2 70
      vertex 2 28.45197 58.725082
      vertex 2 27.403011 60.942913
    endloop
  endfacet
  facet normal 1 0 0
    outer loop
      vertex 2 2 70
      vertex 2 29.71326 56.620743
      vertex 2 28.45197 58.725082
    endloop
  endfacet
  facet normal 1 0 0
    outer loop
      vertex 2 2 2
      vertex 2 29.71326 56.620743
      vertex 2 2 70
    endloop
  endfacet
  facet normal 1 0 0
    outer loop
      vertex 2 29.71326 56.620743
      vertex 2 2 2
      vertex 2 31.17474 54.65017
    endloop
  endfacet
  facet normal 1 0 0
    outer loop
      vertex 2 31.17474 54.65017
      vertex 2 2 2
      vertex 2 32.82233 52.83233
    endloop
  endfacet
  facet normal 1 0 0
    outer loop
      vertex 2 32.82233 52.83233
      vertex 2 2 2
      vertex 2 34.640167 51.18474
    endloop
  endfacet
  facet normal 1 0 0
    outer loop
      vertex 2 50.5 45.51
      vertex 2 2 2
      vertex 2 95 2
    endloop
  endfacet
  facet normal -1 0 0
    outer loop
      vertex 35 24.483242 71.5
      vertex 35 23.277851 72.66735
      vertex 35 24.035534 72.04553
    endloop
  endfacet
  facet normal -1 0 0
    outer loop
      vertex 35 24.483242 71.5
      vertex 35 22.655504 73
      vertex 35 23.277851 72.66735
    endloop
  endfacet
  facet normal -1 0 0
    outer loop
      vertex 35 0 71.5
      vertex 35 22.655504 73
      vertex 35 24.483242 71.5
    endloop
  endfacet
  facet normal -1 0 0
    outer loop
      vertex 35 22.655504 73
      vertex 35 0 71.5
      vertex 35 0 73
    endloop
  endfacet
  facet normal -1 0 0
    outer loop
      vertex 35 95.2 71.5
      vertex 35 78.3445 73
      vertex 35 95.2 73
    endloop
  endfacet
  facet normal -1 0 0
    outer loop
      vertex 35 76.51676 71.5
      vertex 35 78.3445 73
      vertex 35 95.2 71.5
    endloop
  endfacet
  facet normal -1 0 0
    outer loop
      vertex 35 78.3445 73
      vertex 35 76.51676 71.5
      vertex 35 77.72215 72.66735
    endloop
  endfacet
  facet normal -1 0 0
    outer loop
      vertex 35 77.72215 72.66735
      vertex 35 76.51676 71.5
      vertex 35 76.96446 72.04553
    endloop
  endfacet
  facet normal -1 0 0
    outer loop
      vertex 35 71.28674 56.620743
      vertex 35 95 70
      vertex 35 95 2
    endloop
  endfacet
  facet normal -1 0 0
    outer loop
      vertex 35 75.54425 68.95925
      vertex 35 95 70
      vertex 35 75.27876 67.191414
    endloop
  endfacet
  facet normal -1 0 0
    outer loop
      vertex 35 75.75216 70
      vertex 35 75.54425 68.95925
      vertex 35 75.59608 69.48545
    endloop
  endfacet
  facet normal -1 0 0
    outer loop
      vertex 35 75.54425 68.95925
      vertex 35 75.27876 67.191414
      vertex 35 75.54425 69.17371
    endloop
  endfacet
  facet normal -1 0 0
    outer loop
      vertex 35 95 70
      vertex 35 75.54425 68.95925
      vertex 35 75.75216 70
    endloop
  endfacet
  facet normal -1 0 0
    outer loop
      vertex 35 75.27876 67.191414
      vertex 35 75.01963 65.632744
      vertex 35 75.27876 67.379654
    endloop
  endfacet
  facet normal -1 0 0
    outer loop
      vertex 35 95 70
      vertex 35 75.01963 65.632744
      vertex 35 75.27876 67.191414
    endloop
  endfacet
  facet normal -1 0 0
    outer loop
      vertex 35 95 70
      vertex 35 74.42351 63.252884
      vertex 35 75.01963 65.632744
    endloop
  endfacet
  facet normal -1 0 0
    outer loop
      vertex 35 95 70
      vertex 35 73.596985 60.942913
      vertex 35 74.42351 63.252884
    endloop
  endfacet
  facet normal -1 0 0
    outer loop
      vertex 35 95 70
      vertex 35 72.548035 58.725082
      vertex 35 73.596985 60.942913
    endloop
  endfacet
  facet normal -1 0 0
    outer loop
      vertex 35 95 70
      vertex 35 71.28674 56.620743
      vertex 35 72.548035 58.725082
    endloop
  endfacet
  facet normal -1 0 0
    outer loop
      vertex 35 95 2
      vertex 35 69.825264 54.65017
      vertex 35 71.28674 56.620743
    endloop
  endfacet
  facet normal -1 0 0
    outer loop
      vertex 35 95 2
      vertex 35 68.17767 52.83233
      vertex 35 69.825264 54.65017
    endloop
  endfacet
  facet normal -1 0 0
    outer loop
      vertex 35 95 2
      vertex 35 66.35983 51.18474
      vertex 35 68.17767 52.83233
    endloop
  endfacet
  facet normal -1 0 0
    outer loop
      vertex 35 95 2
      vertex 35 64.38925 49.72326
      vertex 35 66.35983 51.18474
    endloop
  endfacet
  facet normal -1 0 0
    outer loop
      vertex 35 95 2
      vertex 35 62.28492 48.461967
      vertex 35 64.38925 49.72326
    endloop
  endfacet
  facet normal -1 0 0
    outer loop
      vertex 35 95 2
      vertex 35 60.067085 47.413013
      vertex 35 62.28492 48.461967
    endloop
  endfacet
  facet normal -1 0 0
    outer loop
      vertex 35 95 2
      vertex 35 57.75712 46.58649
      vertex 35 60.067085 47.413013
    endloop
  endfacet
  facet normal -1 0 0
    outer loop
      vertex 35 95 2
      vertex 35 55.37726 45.990368
      vertex 35 57.75712 46.58649
    endloop
  endfacet
  facet normal -1 0 0
    outer loop
      vertex 35 95 2
      vertex 35 52.950428 45.630383
      vertex 35 55.37726 45.990368
    endloop
  endfacet
  facet normal -1 0 0
    outer loop
      vertex 35 95 2
      vertex 35 50.5 45.51
      vertex 35 52.950428 45.630383
    endloop
  endfacet
  facet normal -1 0 0
    outer loop
      vertex 35 2 2
      vertex 35 50.5 45.51
      vertex 35 95 2
    endloop
  endfacet
  facet normal -1 0 0
    outer loop
      vertex 35 50.5 45.51
      vertex 35 2 2
      vertex 35 48.049572 45.630383
    endloop
  endfacet
  facet normal -1 0 0
    outer loop
      vertex 35 48.049572 45.630383
      vertex 35 2 2
      vertex 35 45.62274 45.990368
    endloop
  endfacet
  facet normal -1 0 0
    outer loop
      vertex 35 45.62274 45.990368
      vertex 35 2 2
      vertex 35 43.24288 46.58649
    endloop
  endfacet
  facet normal -1 0 0
    outer loop
      vertex 35 43.24288 46.58649
      vertex 35 2 2
      vertex 35 40.932915 47.413013
    endloop
  endfacet
  facet normal -1 0 0
    outer loop
      vertex 35 40.932915 47.413013
      vertex 35 2 2
      vertex 35 38.71508 48.461967
    endloop
  endfacet
  facet normal -1 0 0
    outer loop
      vertex 35 38.71508 48.461967
      vertex 35 2 2
      vertex 35 36.610744 49.72326
    endloop
  endfacet
  facet normal -1 0 0
    outer loop
      vertex 35 25.455753 68.95925
      vertex 35 25.247839 70
      vertex 35 25.403927 69.48545
    endloop
  endfacet
  facet normal -1 0 0
    outer loop
      vertex 35 2 70
      vertex 35 25.455753 68.95925
      vertex 35 25.72124 67.191414
    endloop
  endfacet
  facet normal -1 0 0
    outer loop
      vertex 35 2 70
      vertex 35 25.72124 67.191414
      vertex 35 25.98037 65.632744
    endloop
  endfacet
  facet normal -1 0 0
    outer loop
      vertex 35 36.610744 49.72326
      vertex 35 2 2
      vertex 35 34.640167 51.18474
    endloop
  endfacet
  facet normal -1 0 0
    outer loop
      vertex 35 2 2
      vertex 35 32.82233 52.83233
      vertex 35 34.640167 51.18474
    endloop
  endfacet
  facet normal -1 0 0
    outer loop
      vertex 35 2 2
      vertex 35 31.17474 54.65017
      vertex 35 32.82233 52.83233
    endloop
  endfacet
  facet normal -1 0 0
    outer loop
      vertex 35 2 2
      vertex 35 29.71326 56.620743
      vertex 35 31.17474 54.65017
    endloop
  endfacet
  facet normal -1 0 0
    outer loop
      vertex 35 2 70
      vertex 35 29.71326 56.620743
      vertex 35 2 2
    endloop
  endfacet
  facet normal -1 0 0
    outer loop
      vertex 35 29.71326 56.620743
      vertex 35 2 70
      vertex 35 28.45197 58.725082
    endloop
  endfacet
  facet normal -1 0 0
    outer loop
      vertex 35 28.45197 58.725082
      vertex 35 2 70
      vertex 35 27.403011 60.942913
    endloop
  endfacet
  facet normal -1 0 0
    outer loop
      vertex 35 27.403011 60.942913
      vertex 35 2 70
      vertex 35 26.576492 63.252884
    endloop
  endfacet
  facet normal -1 0 0
    outer loop
      vertex 35 26.576492 63.252884
      vertex 35 2 70
      vertex 35 25.98037 65.632744
    endloop
  endfacet
  facet normal -1 0 0
    outer loop
      vertex 35 25.455753 68.95925
      vertex 35 2 70
      vertex 35 25.247839 70
    endloop
  endfacet
  facet normal -1 0 0
    outer loop
      vertex 35 25.98037 65.632744
      vertex 35 25.72124 67.191414
      vertex 35 25.72124 67.379654
    endloop
  endfacet
  facet normal -1 0 0
    outer loop
      vertex 35 25.72124 67.191414
      vertex 35 25.455753 68.95925
      vertex 35 25.455753 69.17371
    endloop
  endfacet
  facet normal 0 -1 0
    outer loop
      vertex 1 96 70
      vertex 36 96 71
      vertex 1 96 71
    endloop
  endfacet
  facet normal 0 -1 0
    outer loop
      vertex 36 96 71
      vertex 1 96 70
      vertex 36 96 70
    endloop
  endfacet
  facet normal 0 -0.70710677 -0.70710677
    outer loop
      vertex 1 96 71
      vertex 35.5 95.5 71.5
      vertex 1.5 95.5 71.5
    endloop
  endfacet
  facet normal 0 -0.70710677 -0.70710677
    outer loop
      vertex 35.5 95.5 71.5
      vertex 1 96 71
      vertex 36 96 71
    endloop
  endfacet
  facet normal -0.70710677 0 -0.70710677
    outer loop
      vertex 36 76.18879 71
      vertex 35.5 95.5 71.5
      vertex 36 96 71
    endloop
  endfacet
  facet normal -0.70710677 0 -0.70710677
    outer loop
      vertex 35.5 95.5 71.5
      vertex 36 76.18879 71
      vertex 35.5 76.51676 71.5
    endloop
  endfacet
  facet normal -0.70710677 0 -0.70710677
    outer loop
      vertex 35.5 76.51676 71.5
      vertex 36 76.18879 71
      vertex 35.71215 76.34265 71.28785
    endloop
  endfacet
  facet normal -0.70710677 0 -0.70710677
    outer loop
      vertex 36 24.811207 71
      vertex 35.5 24.483242 71.5
      vertex 35.71215 24.657349 71.28785
    endloop
  endfacet
  facet normal -0.70710677 0 -0.70710677
    outer loop
      vertex 36 0.41421396 71
      vertex 35.5 24.483242 71.5
      vertex 36 24.811207 71
    endloop
  endfacet
  facet normal -0.70710677 0 -0.70710677
    outer loop
      vertex 35.5 24.483242 71.5
      vertex 36 0.41421396 71
      vertex 35.5 0.20710698 71.5
    endloop
  endfacet
  facet normal 0.70710677 0 -0.70710677
    outer loop
      vertex 1 76.18879 71
      vertex 1.5 95.5 71.5
      vertex 1.5 76.51676 71.5
    endloop
  endfacet
  facet normal 0.7070957 0.000033763892 -0.70711786
    outer loop
      vertex 1 76.18879 71
      vertex 1.5 76.51676 71.5
      vertex 1.2878511 76.34265 71.28785
    endloop
  endfacet
  facet normal 0.70710677 0 -0.70710677
    outer loop
      vertex 1.5 95.5 71.5
      vertex 1 76.18879 71
      vertex 1 96 71
    endloop
  endfacet
  facet normal 0.7070957 -0.00003376445 -0.70711786
    outer loop
      vertex 1.5 24.483242 71.5
      vertex 1 24.811207 71
      vertex 1.2878511 24.657349 71.28785
    endloop
  endfacet
  facet normal 0.70710677 0 -0.70710677
    outer loop
      vertex 1.5 24.483242 71.5
      vertex 1 0.41421396 71
      vertex 1 24.811207 71
    endloop
  endfacet
  facet normal 0.70710677 0 -0.70710677
    outer loop
      vertex 1 0.41421396 71
      vertex 1.5 24.483242 71.5
      vertex 1.5 0.20710698 71.5
    endloop
  endfacet
  facet normal -1 0 0
    outer loop
      vertex 36 96 70
      vertex 36 76.18879 71
      vertex 36 96 71
    endloop
  endfacet
  facet normal -1 0 0
    outer loop
      vertex 36 75.75216 70
      vertex 36 76.18879 71
      vertex 36 96 70
    endloop
  endfacet
  facet normal -1 0 0
    outer loop
      vertex 36 76.18879 71
      vertex 36 75.75216 70
      vertex 36 75.8806 70.423416
    endloop
  endfacet
  facet normal -1 0 0
    outer loop
      vertex 36 25.247839 70
      vertex 36 24.811207 71
      vertex 36 25.119396 70.423416
    endloop
  endfacet
  facet normal -1 0 0
    outer loop
      vertex 36 0.41421396 70
      vertex 36 24.811207 71
      vertex 36 25.247839 70
    endloop
  endfacet
  facet normal -1 0 0
    outer loop
      vertex 36 24.811207 71
      vertex 36 0.41421396 70
      vertex 36 0.41421396 71
    endloop
  endfacet
  facet normal 0 0 -1
    outer loop
      vertex 2 76.51676 71.5
      vertex 1.5 76.51676 71.5
      vertex 2 95.2 71.5
    endloop
  endfacet
  facet normal 0 0 -1
    outer loop
      vertex 35 95.2 71.5
      vertex 35.5 76.51676 71.5
      vertex 35 76.51676 71.5
    endloop
  endfacet
  facet normal 0 0 -1
    outer loop
      vertex 35.5 76.51676 71.5
      vertex 35 95.2 71.5
      vertex 35.5 95.5 71.5
    endloop
  endfacet
  facet normal 0 0 -1
    outer loop
      vertex 2 95.2 71.5
      vertex 35.5 95.5 71.5
      vertex 35 95.2 71.5
    endloop
  endfacet
  facet normal 0 0 -1
    outer loop
      vertex 2 95.2 71.5
      vertex 1.5 95.5 71.5
      vertex 35.5 95.5 71.5
    endloop
  endfacet
  facet normal 0 0 -1
    outer loop
      vertex 1.5 95.5 71.5
      vertex 2 95.2 71.5
      vertex 1.5 76.51676 71.5
    endloop
  endfacet
  facet normal 0 0 -1
    outer loop
      vertex 35 24.483242 71.5
      vertex 35.5 0.20710698 71.5
      vertex 35 0 71.5
    endloop
  endfacet
  facet normal 0 0 -1
    outer loop
      vertex 35.5 0.20710698 71.5
      vertex 35 24.483242 71.5
      vertex 35.5 24.483242 71.5
    endloop
  endfacet
  facet normal 0 0 -1
    outer loop
      vertex 1.5 0.20710698 71.5
      vertex 2 24.483242 71.5
      vertex 2 0 71.5
    endloop
  endfacet
  facet normal 0 0 -1
    outer loop
      vertex 2 24.483242 71.5
      vertex 1.5 0.20710698 71.5
      vertex 1.5 24.483242 71.5
    endloop
  endfacet
  facet normal 1 0 0
    outer loop
      vertex 1 76.18879 71
      vertex 1 96 70
      vertex 1 96 71
    endloop
  endfacet
  facet normal 1 0 0
    outer loop
      vertex 1 75.75216 70
      vertex 1 76.18879 71
      vertex 1 75.8806 70.423416
    endloop
  endfacet
  facet normal 1 0 0
    outer loop
      vertex 1 76.18879 71
      vertex 1 75.75216 70
      vertex 1 96 70
    endloop
  endfacet
  facet normal 1 0 0
    outer loop
      vertex 1 24.811207 71
      vertex 1 25.247839 70
      vertex 1 25.119396 70.423416
    endloop
  endfacet
  facet normal 1 0 0
    outer loop
      vertex 1 0.41421396 70
      vertex 1 24.811207 71
      vertex 1 0.41421396 71
    endloop
  endfacet
  facet normal 1 0 0
    outer loop
      vertex 1 24.811207 71
      vertex 1 0.41421396 70
      vertex 1 25.247839 70
    endloop
  endfacet
  facet normal 0 -0.6343921 0.7730114
    outer loop
      vertex 0 77.72215 72.66735
      vertex 2 76.96446 72.04553
      vertex 2 77.72215 72.66735
    endloop
  endfacet
  facet normal 0 -0.6343921 0.7730114
    outer loop
      vertex 2 76.96446 72.04553
      vertex 0 77.72215 72.66735
      vertex 0 76.96446 72.04553
    endloop
  endfacet
  facet normal 0 -0.6343921 0.7730114
    outer loop
      vertex 35 77.72215 72.66735
      vertex 37 76.96446 72.04553
      vertex 37 77.72215 72.66735
    endloop
  endfacet
  facet normal 0 -0.6343921 0.7730114
    outer loop
      vertex 37 76.96446 72.04553
      vertex 35 77.72215 72.66735
      vertex 35 76.96446 72.04553
    endloop
  endfacet
  facet normal 0 -0.7730148 0.634388
    outer loop
      vertex 0 76.96446 72.04553
      vertex 1.5 76.51676 71.5
      vertex 2 76.96446 72.04553
    endloop
  endfacet
  facet normal 0 -0.7730121 0.63439125
    outer loop
      vertex 1.2878511 76.34265 71.28785
      vertex 0 76.96446 72.04553
      vertex 0 76.34265 71.28785
    endloop
  endfacet
  facet normal 0.000005206731 -0.77300775 0.63439655
    outer loop
      vertex 0 76.96446 72.04553
      vertex 1.2878511 76.34265 71.28785
      vertex 1.5 76.51676 71.5
    endloop
  endfacet
  facet normal 0 -0.7730148 0.634388
    outer loop
      vertex 2 76.96446 72.04553
      vertex 1.5 76.51676 71.5
      vertex 2 76.51676 71.5
    endloop
  endfacet
  facet normal 0 -0.7730148 0.634388
    outer loop
      vertex 35.5 76.51676 71.5
      vertex 35 76.96446 72.04553
      vertex 35 76.51676 71.5
    endloop
  endfacet
  facet normal 0 -0.7730148 0.634388
    outer loop
      vertex 35 76.96446 72.04553
      vertex 35.5 76.51676 71.5
      vertex 37 76.96446 72.04553
    endloop
  endfacet
  facet normal -0.0000052067203 -0.77300775 0.63439655
    outer loop
      vertex 35.71215 76.34265 71.28785
      vertex 37 76.96446 72.04553
      vertex 35.5 76.51676 71.5
    endloop
  endfacet
  facet normal 0 -0.7730121 0.63439125
    outer loop
      vertex 37 76.96446 72.04553
      vertex 35.71215 76.34265 71.28785
      vertex 37 76.34265 71.28785
    endloop
  endfacet
  facet normal 0 -0.99518466 0.09801783
    outer loop
      vertex 35 75.54425 68.95925
      vertex 37 75.59608 69.48545
      vertex 35 75.59608 69.48545
    endloop
  endfacet
  facet normal 0 -0.99518466 0.09801783
    outer loop
      vertex 37 75.59608 69.48545
      vertex 35 75.54425 68.95925
      vertex 37 75.54425 68.95925
    endloop
  endfacet
  facet normal 0 -0.99518466 0.09801783
    outer loop
      vertex 0 75.54425 68.95925
      vertex 2 75.59608 69.48545
      vertex 0 75.59608 69.48545
    endloop
  endfacet
  facet normal 0 -0.99518466 0.09801783
    outer loop
      vertex 2 75.59608 69.48545
      vertex 0 75.54425 68.95925
      vertex 2 75.54425 68.95925
    endloop
  endfacet
  facet normal 0 -0.8819171 0.47140455
    outer loop
      vertex 36 76.18879 71
      vertex 37 76.34265 71.28785
      vertex 35.71215 76.34265 71.28785
    endloop
  endfacet
  facet normal 0 -0.88192195 0.47139543
    outer loop
      vertex 37 75.8806 70.423416
      vertex 36 76.18879 71
      vertex 36 75.8806 70.423416
    endloop
  endfacet
  facet normal 0.0000022508762 -0.88192034 0.47139847
    outer loop
      vertex 36 76.18879 71
      vertex 37 75.8806 70.423416
      vertex 37 76.34265 71.28785
    endloop
  endfacet
  facet normal 0 -0.8819171 0.47140455
    outer loop
      vertex 0 76.34265 71.28785
      vertex 1 76.18879 71
      vertex 1.2878511 76.34265 71.28785
    endloop
  endfacet
  facet normal -0.0000022508762 -0.88192034 0.47139847
    outer loop
      vertex 0 75.8806 70.423416
      vertex 1 76.18879 71
      vertex 0 76.34265 71.28785
    endloop
  endfacet
  facet normal 0 -0.88192195 0.47139543
    outer loop
      vertex 1 76.18879 71
      vertex 0 75.8806 70.423416
      vertex 1 75.8806 70.423416
    endloop
  endfacet
  facet normal 0 -0.47139555 0.8819219
    outer loop
      vertex 35 78.3445 73
      vertex 37 77.72215 72.66735
      vertex 37 78.3445 73
    endloop
  endfacet
  facet normal 0 -0.47139555 0.8819219
    outer loop
      vertex 37 77.72215 72.66735
      vertex 35 78.3445 73
      vertex 35 77.72215 72.66735
    endloop
  endfacet
  facet normal 0 -0.47139555 0.8819219
    outer loop
      vertex 0 78.3445 73
      vertex 2 77.72215 72.66735
      vertex 2 78.3445 73
    endloop
  endfacet
  facet normal 0 -0.47139555 0.8819219
    outer loop
      vertex 2 77.72215 72.66735
      vertex 0 78.3445 73
      vertex 0 77.72215 72.66735
    endloop
  endfacet
  facet normal 0 -0.95694274 0.29027674
    outer loop
      vertex 35 75.75216 70
      vertex 35 75.59608 69.48545
      vertex 36 75.75216 70
    endloop
  endfacet
  facet normal 0 -0.95694095 0.29028255
    outer loop
      vertex 36 75.75216 70
      vertex 37 75.8806 70.423416
      vertex 36 75.8806 70.423416
    endloop
  endfacet
  facet normal 0 -0.95694274 0.29027674
    outer loop
      vertex 37 75.59608 69.48545
      vertex 36 75.75216 70
      vertex 35 75.59608 69.48545
    endloop
  endfacet
  facet normal 0.0000014740024 -0.95694196 0.29027936
    outer loop
      vertex 36 75.75216 70
      vertex 37 75.59608 69.48545
      vertex 37 75.8806 70.423416
    endloop
  endfacet
  facet normal 0 -0.95694095 0.29028255
    outer loop
      vertex 0 75.8806 70.423416
      vertex 1 75.75216 70
      vertex 1 75.8806 70.423416
    endloop
  endfacet
  facet normal -0.0000014740024 -0.95694196 0.29027936
    outer loop
      vertex 0 75.59608 69.48545
      vertex 1 75.75216 70
      vertex 0 75.8806 70.423416
    endloop
  endfacet
  facet normal 0 -0.95694274 0.29027674
    outer loop
      vertex 2 75.59608 69.48545
      vertex 1 75.75216 70
      vertex 0 75.59608 69.48545
    endloop
  endfacet
  facet normal 0 -0.95694274 0.29027674
    outer loop
      vertex 1 75.75216 70
      vertex 2 75.59608 69.48545
      vertex 2 75.75216 70
    endloop
  endfacet
  facet normal 0 1 0
    outer loop
      vertex 37 75.54425 68.95925
      vertex 35 75.54425 69.17371
      vertex 37 75.54425 69.17371
    endloop
  endfacet
  facet normal 0 1 0
    outer loop
      vertex 35 75.54425 69.17371
      vertex 37 75.54425 68.95925
      vertex 35 75.54425 68.95925
    endloop
  endfacet
  facet normal 0 1 0
    outer loop
      vertex 2 75.54425 68.95925
      vertex 0 75.54425 69.17371
      vertex 2 75.54425 69.17371
    endloop
  endfacet
  facet normal 0 1 0
    outer loop
      vertex 0 75.54425 69.17371
      vertex 2 75.54425 68.95925
      vertex 0 75.54425 68.95925
    endloop
  endfacet
  facet normal 0 -0.9911504 0.1327439
    outer loop
      vertex 0 75.27876 67.191414
      vertex 2 75.54425 69.17371
      vertex 0 75.54425 69.17371
    endloop
  endfacet
  facet normal 0 -0.9911504 0.1327439
    outer loop
      vertex 2 75.54425 69.17371
      vertex 0 75.27876 67.191414
      vertex 2 75.27876 67.191414
    endloop
  endfacet
  facet normal 0 -0.9911504 0.1327439
    outer loop
      vertex 35 75.27876 67.191414
      vertex 37 75.54425 69.17371
      vertex 35 75.54425 69.17371
    endloop
  endfacet
  facet normal 0 -0.9911504 0.1327439
    outer loop
      vertex 37 75.54425 69.17371
      vertex 35 75.27876 67.191414
      vertex 37 75.27876 67.191414
    endloop
  endfacet
  facet normal 0 1 0
    outer loop
      vertex 2 75.27876 67.191414
      vertex 0 75.27876 67.379654
      vertex 2 75.27876 67.379654
    endloop
  endfacet
  facet normal 0 1 0
    outer loop
      vertex 0 75.27876 67.379654
      vertex 2 75.27876 67.191414
      vertex 0 75.27876 67.191414
    endloop
  endfacet
  facet normal 0 1 0
    outer loop
      vertex 37 75.27876 67.191414
      vertex 35 75.27876 67.379654
      vertex 37 75.27876 67.379654
    endloop
  endfacet
  facet normal 0 1 0
    outer loop
      vertex 35 75.27876 67.379654
      vertex 37 75.27876 67.191414
      vertex 35 75.27876 67.191414
    endloop
  endfacet
  facet normal 0 0.63439596 0.7730083
    outer loop
      vertex 0 24.035534 72.04553
      vertex 2 23.277851 72.66735
      vertex 2 24.035534 72.04553
    endloop
  endfacet
  facet normal 0 0.63439596 0.7730083
    outer loop
      vertex 2 23.277851 72.66735
      vertex 0 24.035534 72.04553
      vertex 0 23.277851 72.66735
    endloop
  endfacet
  facet normal 0 0.63439596 0.7730083
    outer loop
      vertex 35 24.035534 72.04553
      vertex 37 23.277851 72.66735
      vertex 37 24.035534 72.04553
    endloop
  endfacet
  facet normal 0 0.63439596 0.7730083
    outer loop
      vertex 37 23.277851 72.66735
      vertex 35 24.035534 72.04553
      vertex 35 23.277851 72.66735
    endloop
  endfacet
  facet normal 0 0.7730095 0.63439447
    outer loop
      vertex 1.5 24.483242 71.5
      vertex 2 24.035534 72.04553
      vertex 2 24.483242 71.5
    endloop
  endfacet
  facet normal 0 0.7730095 0.63439447
    outer loop
      vertex 2 24.035534 72.04553
      vertex 1.5 24.483242 71.5
      vertex 0 24.035534 72.04553
    endloop
  endfacet
  facet normal -0.0000013833667 0.7730113 0.6343922
    outer loop
      vertex 1.2878511 24.657349 71.28785
      vertex 0 24.035534 72.04553
      vertex 1.5 24.483242 71.5
    endloop
  endfacet
  facet normal 0 0.7730102 0.63439363
    outer loop
      vertex 0 24.035534 72.04553
      vertex 1.2878511 24.657349 71.28785
      vertex 0 24.657349 71.28785
    endloop
  endfacet
  facet normal 0 0.7730095 0.63439447
    outer loop
      vertex 37 24.035534 72.04553
      vertex 35.5 24.483242 71.5
      vertex 35 24.035534 72.04553
    endloop
  endfacet
  facet normal 0 0.7730102 0.63439363
    outer loop
      vertex 35.71215 24.657349 71.28785
      vertex 37 24.035534 72.04553
      vertex 37 24.657349 71.28785
    endloop
  endfacet
  facet normal 0.0000013833638 0.7730113 0.6343922
    outer loop
      vertex 37 24.035534 72.04553
      vertex 35.71215 24.657349 71.28785
      vertex 35.5 24.483242 71.5
    endloop
  endfacet
  facet normal 0 0.7730095 0.63439447
    outer loop
      vertex 35 24.035534 72.04553
      vertex 35.5 24.483242 71.5
      vertex 35 24.483242 71.5
    endloop
  endfacet
  facet normal 0 0.99518466 0.09801783
    outer loop
      vertex 37 25.455753 68.95925
      vertex 35 25.403927 69.48545
      vertex 37 25.403927 69.48545
    endloop
  endfacet
  facet normal 0 0.99518466 0.09801783
    outer loop
      vertex 35 25.403927 69.48545
      vertex 37 25.455753 68.95925
      vertex 35 25.455753 68.95925
    endloop
  endfacet
  facet normal 0 0.99518466 0.09801783
    outer loop
      vertex 2 25.455753 68.95925
      vertex 0 25.403927 69.48545
      vertex 2 25.403927 69.48545
    endloop
  endfacet
  facet normal 0 0.99518466 0.09801783
    outer loop
      vertex 0 25.403927 69.48545
      vertex 2 25.455753 68.95925
      vertex 0 25.455753 68.95925
    endloop
  endfacet
  facet normal 0 0.88192195 0.47139546
    outer loop
      vertex 37 24.657349 71.28785
      vertex 36 24.811207 71
      vertex 35.71215 24.657349 71.28785
    endloop
  endfacet
  facet normal 6.8886927e-9 0.88192195 0.47139543
    outer loop
      vertex 37 25.119396 70.423416
      vertex 36 24.811207 71
      vertex 37 24.657349 71.28785
    endloop
  endfacet
  facet normal 0 0.88192195 0.47139543
    outer loop
      vertex 36 24.811207 71
      vertex 37 25.119396 70.423416
      vertex 36 25.119396 70.423416
    endloop
  endfacet
  facet normal 0 0.88192195 0.47139546
    outer loop
      vertex 1 24.811207 71
      vertex 0 24.657349 71.28785
      vertex 1.2878511 24.657349 71.28785
    endloop
  endfacet
  facet normal 0 0.88192195 0.47139543
    outer loop
      vertex 0 25.119396 70.423416
      vertex 1 24.811207 71
      vertex 1 25.119396 70.423416
    endloop
  endfacet
  facet normal -6.8886927e-9 0.88192195 0.47139543
    outer loop
      vertex 1 24.811207 71
      vertex 0 25.119396 70.423416
      vertex 0 24.657349 71.28785
    endloop
  endfacet
  facet normal 0 0.47139442 0.8819225
    outer loop
      vertex 35 23.277851 72.66735
      vertex 37 22.655504 73
      vertex 37 23.277851 72.66735
    endloop
  endfacet
  facet normal 0 0.47139442 0.8819225
    outer loop
      vertex 37 22.655504 73
      vertex 35 23.277851 72.66735
      vertex 35 22.655504 73
    endloop
  endfacet
  facet normal 0 0.47139442 0.8819225
    outer loop
      vertex 0 23.277851 72.66735
      vertex 2 22.655504 73
      vertex 2 23.277851 72.66735
    endloop
  endfacet
  facet normal 0 0.47139442 0.8819225
    outer loop
      vertex 2 22.655504 73
      vertex 0 23.277851 72.66735
      vertex 0 22.655504 73
    endloop
  endfacet
  facet normal 0 0.95693976 0.2902865
    outer loop
      vertex 37 25.119396 70.423416
      vertex 36 25.247839 70
      vertex 36 25.119396 70.423416
    endloop
  endfacet
  facet normal 3.4591856e-9 0.95693976 0.2902865
    outer loop
      vertex 37 25.403927 69.48545
      vertex 36 25.247839 70
      vertex 37 25.119396 70.423416
    endloop
  endfacet
  facet normal 0 0.95693976 0.29028648
    outer loop
      vertex 35 25.403927 69.48545
      vertex 36 25.247839 70
      vertex 37 25.403927 69.48545
    endloop
  endfacet
  facet normal 0 0.95693976 0.29028648
    outer loop
      vertex 36 25.247839 70
      vertex 35 25.403927 69.48545
      vertex 35 25.247839 70
    endloop
  endfacet
  facet normal 0 0.95693976 0.2902865
    outer loop
      vertex 1 25.247839 70
      vertex 0 25.119396 70.423416
      vertex 1 25.119396 70.423416
    endloop
  endfacet
  facet normal 0 0.95693976 0.29028648
    outer loop
      vertex 0 25.403927 69.48545
      vertex 1 25.247839 70
      vertex 2 25.403927 69.48545
    endloop
  endfacet
  facet normal -3.4591856e-9 0.95693976 0.2902865
    outer loop
      vertex 1 25.247839 70
      vertex 0 25.403927 69.48545
      vertex 0 25.119396 70.423416
    endloop
  endfacet
  facet normal 0 0.95693976 0.29028648
    outer loop
      vertex 2 25.247839 70
      vertex 2 25.403927 69.48545
      vertex 1 25.247839 70
    endloop
  endfacet
  facet normal 0 -1 0
    outer loop
      vertex 35 25.455753 68.95925
      vertex 37 25.455753 69.17371
      vertex 35 25.455753 69.17371
    endloop
  endfacet
  facet normal 0 -1 0
    outer loop
      vertex 37 25.455753 69.17371
      vertex 35 25.455753 68.95925
      vertex 37 25.455753 68.95925
    endloop
  endfacet
  facet normal 0 -1 0
    outer loop
      vertex 0 25.455753 68.95925
      vertex 2 25.455753 69.17371
      vertex 0 25.455753 69.17371
    endloop
  endfacet
  facet normal 0 -1 0
    outer loop
      vertex 2 25.455753 69.17371
      vertex 0 25.455753 68.95925
      vertex 2 25.455753 68.95925
    endloop
  endfacet
  facet normal 0 0.9911505 0.13274296
    outer loop
      vertex 2 25.72124 67.191414
      vertex 0 25.455753 69.17371
      vertex 2 25.455753 69.17371
    endloop
  endfacet
  facet normal 0 0.9911505 0.13274296
    outer loop
      vertex 0 25.455753 69.17371
      vertex 2 25.72124 67.191414
      vertex 0 25.72124 67.191414
    endloop
  endfacet
  facet normal 0 0.9911505 0.13274296
    outer loop
      vertex 37 25.72124 67.191414
      vertex 35 25.455753 69.17371
      vertex 37 25.455753 69.17371
    endloop
  endfacet
  facet normal 0 0.9911505 0.13274296
    outer loop
      vertex 35 25.455753 69.17371
      vertex 37 25.72124 67.191414
      vertex 35 25.72124 67.191414
    endloop
  endfacet
  facet normal 0 -1 0
    outer loop
      vertex 0 25.72124 67.191414
      vertex 2 25.72124 67.379654
      vertex 0 25.72124 67.379654
    endloop
  endfacet
  facet normal 0 -1 0
    outer loop
      vertex 2 25.72124 67.379654
      vertex 0 25.72124 67.191414
      vertex 2 25.72124 67.191414
    endloop
  endfacet
  facet normal 0 -1 0
    outer loop
      vertex 35 25.72124 67.191414
      vertex 37 25.72124 67.379654
      vertex 35 25.72124 67.379654
    endloop
  endfacet
  facet normal 0 -1 0
    outer loop
      vertex 37 25.72124 67.379654
      vertex 35 25.72124 67.191414
      vertex 37 25.72124 67.191414
    endloop
  endfacet
  facet normal 0 -0.24297975 0.9700314
    outer loop
      vertex 35 57.75712 46.58649
      vertex 37 55.37726 45.990368
      vertex 37 57.75712 46.58649
    endloop
  endfacet
  facet normal 0 -0.24297975 0.9700314
    outer loop
      vertex 37 55.37726 45.990368
      vertex 35 57.75712 46.58649
      vertex 35 55.37726 45.990368
    endloop
  endfacet
  facet normal 0 -0.24297975 0.9700314
    outer loop
      vertex 0 57.75712 46.58649
      vertex 2 55.37726 45.990368
      vertex 2 57.75712 46.58649
    endloop
  endfacet
  facet normal 0 -0.24297975 0.9700314
    outer loop
      vertex 2 55.37726 45.990368
      vertex 0 57.75712 46.58649
      vertex 0 55.37726 45.990368
    endloop
  endfacet
  facet normal 0 0.8032071 0.5956999
    outer loop
      vertex 2 31.17474 54.65017
      vertex 0 29.71326 56.620743
      vertex 2 29.71326 56.620743
    endloop
  endfacet
  facet normal 0 0.8032071 0.5956999
    outer loop
      vertex 0 29.71326 56.620743
      vertex 2 31.17474 54.65017
      vertex 0 31.17474 54.65017
    endloop
  endfacet
  facet normal 0 0.8032071 0.5956999
    outer loop
      vertex 37 31.17474 54.65017
      vertex 35 29.71326 56.620743
      vertex 37 29.71326 56.620743
    endloop
  endfacet
  facet normal 0 0.8032071 0.5956999
    outer loop
      vertex 35 29.71326 56.620743
      vertex 37 31.17474 54.65017
      vertex 35 31.17474 54.65017
    endloop
  endfacet
  facet normal 0 0.85772884 0.5141024
    outer loop
      vertex 37 29.71326 56.620743
      vertex 35 28.45197 58.725082
      vertex 37 28.45197 58.725082
    endloop
  endfacet
  facet normal 0 0.85772884 0.5141024
    outer loop
      vertex 35 28.45197 58.725082
      vertex 37 29.71326 56.620743
      vertex 35 29.71326 56.620743
    endloop
  endfacet
  facet normal 0 0.85772884 0.5141024
    outer loop
      vertex 2 29.71326 56.620743
      vertex 0 28.45197 58.725082
      vertex 2 28.45197 58.725082
    endloop
  endfacet
  facet normal 0 0.85772884 0.5141024
    outer loop
      vertex 0 28.45197 58.725082
      vertex 2 29.71326 56.620743
      vertex 0 29.71326 56.620743
    endloop
  endfacet
  facet normal 0 -0.74095196 0.6715581
    outer loop
      vertex 0 68.17767 52.83233
      vertex 2 69.825264 54.65017
      vertex 0 69.825264 54.65017
    endloop
  endfacet
  facet normal 0 -0.74095196 0.6715581
    outer loop
      vertex 2 69.825264 54.65017
      vertex 0 68.17767 52.83233
      vertex 2 68.17767 52.83233
    endloop
  endfacet
  facet normal 0 -0.74095196 0.6715581
    outer loop
      vertex 35 68.17767 52.83233
      vertex 37 69.825264 54.65017
      vertex 35 69.825264 54.65017
    endloop
  endfacet
  facet normal 0 -0.74095196 0.6715581
    outer loop
      vertex 37 69.825264 54.65017
      vertex 35 68.17767 52.83233
      vertex 37 68.17767 52.83233
    endloop
  endfacet
  facet normal 0 0.98917645 0.14673094
    outer loop
      vertex 2 25.98037 65.632744
      vertex 0 25.72124 67.379654
      vertex 2 25.72124 67.379654
    endloop
  endfacet
  facet normal 0 0.98917645 0.14673094
    outer loop
      vertex 0 25.72124 67.379654
      vertex 2 25.98037 65.632744
      vertex 0 25.98037 65.632744
    endloop
  endfacet
  facet normal 0 0.98917645 0.14673094
    outer loop
      vertex 37 25.98037 65.632744
      vertex 35 25.72124 67.379654
      vertex 37 25.72124 67.379654
    endloop
  endfacet
  facet normal 0 0.98917645 0.14673094
    outer loop
      vertex 35 25.72124 67.379654
      vertex 37 25.98037 65.632744
      vertex 35 25.98037 65.632744
    endloop
  endfacet
  facet normal 0 -0.90399015 0.42755324
    outer loop
      vertex 0 72.548035 58.725082
      vertex 2 73.596985 60.942913
      vertex 0 73.596985 60.942913
    endloop
  endfacet
  facet normal 0 -0.90399015 0.42755324
    outer loop
      vertex 2 73.596985 60.942913
      vertex 0 72.548035 58.725082
      vertex 2 72.548035 58.725082
    endloop
  endfacet
  facet normal 0 -0.90399015 0.42755324
    outer loop
      vertex 35 72.548035 58.725082
      vertex 37 73.596985 60.942913
      vertex 35 73.596985 60.942913
    endloop
  endfacet
  facet normal 0 -0.90399015 0.42755324
    outer loop
      vertex 37 73.596985 60.942913
      vertex 35 72.548035 58.725082
      vertex 37 72.548035 58.725082
    endloop
  endfacet
  facet normal 0 -0.14673011 0.9891766
    outer loop
      vertex 35 55.37726 45.990368
      vertex 37 52.950428 45.630383
      vertex 37 55.37726 45.990368
    endloop
  endfacet
  facet normal 0 -0.14673011 0.9891766
    outer loop
      vertex 37 52.950428 45.630383
      vertex 35 55.37726 45.990368
      vertex 35 52.950428 45.630383
    endloop
  endfacet
  facet normal 0 -0.14673011 0.9891766
    outer loop
      vertex 0 55.37726 45.990368
      vertex 2 52.950428 45.630383
      vertex 2 55.37726 45.990368
    endloop
  endfacet
  facet normal 0 -0.14673011 0.9891766
    outer loop
      vertex 2 52.950428 45.630383
      vertex 0 55.37726 45.990368
      vertex 0 52.950428 45.630383
    endloop
  endfacet
  facet normal 0 -0.9891763 0.146732
    outer loop
      vertex 35 75.01963 65.632744
      vertex 37 75.27876 67.379654
      vertex 35 75.27876 67.379654
    endloop
  endfacet
  facet normal 0 -0.9891763 0.146732
    outer loop
      vertex 37 75.27876 67.379654
      vertex 35 75.01963 65.632744
      vertex 37 75.01963 65.632744
    endloop
  endfacet
  facet normal 0 -0.9891763 0.146732
    outer loop
      vertex 0 75.01963 65.632744
      vertex 2 75.27876 67.379654
      vertex 0 75.27876 67.379654
    endloop
  endfacet
  facet normal 0 -0.9891763 0.146732
    outer loop
      vertex 2 75.27876 67.379654
      vertex 0 75.01963 65.632744
      vertex 2 75.01963 65.632744
    endloop
  endfacet
  facet normal 0 -0.5956984 0.8032082
    outer loop
      vertex 0 66.35983 51.18474
      vertex 2 64.38925 49.72326
      vertex 2 66.35983 51.18474
    endloop
  endfacet
  facet normal 0 -0.5956984 0.8032082
    outer loop
      vertex 2 64.38925 49.72326
      vertex 0 66.35983 51.18474
      vertex 0 64.38925 49.72326
    endloop
  endfacet
  facet normal 0 -0.5956984 0.8032082
    outer loop
      vertex 35 66.35983 51.18474
      vertex 37 64.38925 49.72326
      vertex 37 66.35983 51.18474
    endloop
  endfacet
  facet normal 0 -0.5956984 0.8032082
    outer loop
      vertex 37 64.38925 49.72326
      vertex 35 66.35983 51.18474
      vertex 35 64.38925 49.72326
    endloop
  endfacet
  facet normal 0 0.049068652 0.9987954
    outer loop
      vertex 35 50.5 45.51
      vertex 37 48.049572 45.630383
      vertex 37 50.5 45.51
    endloop
  endfacet
  facet normal 0 0.049068652 0.9987954
    outer loop
      vertex 37 48.049572 45.630383
      vertex 35 50.5 45.51
      vertex 35 48.049572 45.630383
    endloop
  endfacet
  facet normal 0 0.049068652 0.9987954
    outer loop
      vertex 0 50.5 45.51
      vertex 2 48.049572 45.630383
      vertex 2 50.5 45.51
    endloop
  endfacet
  facet normal 0 0.049068652 0.9987954
    outer loop
      vertex 2 48.049572 45.630383
      vertex 0 50.5 45.51
      vertex 0 48.049572 45.630383
    endloop
  endfacet
  facet normal 0 0.4275539 0.90398985
    outer loop
      vertex 35 40.932915 47.413013
      vertex 37 38.71508 48.461967
      vertex 37 40.932915 47.413013
    endloop
  endfacet
  facet normal 0 0.4275539 0.90398985
    outer loop
      vertex 37 38.71508 48.461967
      vertex 35 40.932915 47.413013
      vertex 35 38.71508 48.461967
    endloop
  endfacet
  facet normal 0 0.4275539 0.90398985
    outer loop
      vertex 0 40.932915 47.413013
      vertex 2 38.71508 48.461967
      vertex 2 40.932915 47.413013
    endloop
  endfacet
  facet normal 0 0.4275539 0.90398985
    outer loop
      vertex 2 38.71508 48.461967
      vertex 0 40.932915 47.413013
      vertex 0 38.71508 48.461967
    endloop
  endfacet
  facet normal 0 0.9415443 0.3368892
    outer loop
      vertex 2 27.403011 60.942913
      vertex 0 26.576492 63.252884
      vertex 2 26.576492 63.252884
    endloop
  endfacet
  facet normal 0 0.9415443 0.3368892
    outer loop
      vertex 0 26.576492 63.252884
      vertex 2 27.403011 60.942913
      vertex 0 27.403011 60.942913
    endloop
  endfacet
  facet normal 0 0.9415443 0.3368892
    outer loop
      vertex 37 27.403011 60.942913
      vertex 35 26.576492 63.252884
      vertex 37 26.576492 63.252884
    endloop
  endfacet
  facet normal 0 0.9415443 0.3368892
    outer loop
      vertex 35 26.576492 63.252884
      vertex 37 27.403011 60.942913
      vertex 35 27.403011 60.942913
    endloop
  endfacet
  facet normal 0 0.24297975 0.9700314
    outer loop
      vertex 0 45.62274 45.990368
      vertex 2 43.24288 46.58649
      vertex 2 45.62274 45.990368
    endloop
  endfacet
  facet normal 0 0.24297975 0.9700314
    outer loop
      vertex 2 43.24288 46.58649
      vertex 0 45.62274 45.990368
      vertex 0 43.24288 46.58649
    endloop
  endfacet
  facet normal 0 0.24297975 0.9700314
    outer loop
      vertex 35 45.62274 45.990368
      vertex 37 43.24288 46.58649
      vertex 37 45.62274 45.990368
    endloop
  endfacet
  facet normal 0 0.24297975 0.9700314
    outer loop
      vertex 37 43.24288 46.58649
      vertex 35 45.62274 45.990368
      vertex 35 43.24288 46.58649
    endloop
  endfacet
  facet normal 0 -0.9700314 0.24297975
    outer loop
      vertex 35 74.42351 63.252884
      vertex 37 75.01963 65.632744
      vertex 35 75.01963 65.632744
    endloop
  endfacet
  facet normal 0 -0.9700314 0.24297975
    outer loop
      vertex 37 75.01963 65.632744
      vertex 35 74.42351 63.252884
      vertex 37 74.42351 63.252884
    endloop
  endfacet
  facet normal 0 -0.9700314 0.24297975
    outer loop
      vertex 0 74.42351 63.252884
      vertex 2 75.01963 65.632744
      vertex 0 75.01963 65.632744
    endloop
  endfacet
  facet normal 0 -0.9700314 0.24297975
    outer loop
      vertex 2 75.01963 65.632744
      vertex 0 74.42351 63.252884
      vertex 2 74.42351 63.252884
    endloop
  endfacet
  facet normal 0 -0.8032071 0.5956999
    outer loop
      vertex 0 69.825264 54.65017
      vertex 2 71.28674 56.620743
      vertex 0 71.28674 56.620743
    endloop
  endfacet
  facet normal 0 -0.8032071 0.5956999
    outer loop
      vertex 2 71.28674 56.620743
      vertex 0 69.825264 54.65017
      vertex 2 69.825264 54.65017
    endloop
  endfacet
  facet normal 0 -0.8032071 0.5956999
    outer loop
      vertex 35 69.825264 54.65017
      vertex 37 71.28674 56.620743
      vertex 35 71.28674 56.620743
    endloop
  endfacet
  facet normal 0 -0.8032071 0.5956999
    outer loop
      vertex 37 71.28674 56.620743
      vertex 35 69.825264 54.65017
      vertex 37 69.825264 54.65017
    endloop
  endfacet
  facet normal 0 -0.5141038 0.857728
    outer loop
      vertex 35 64.38925 49.72326
      vertex 37 62.28492 48.461967
      vertex 37 64.38925 49.72326
    endloop
  endfacet
  facet normal 0 -0.5141038 0.857728
    outer loop
      vertex 37 62.28492 48.461967
      vertex 35 64.38925 49.72326
      vertex 35 62.28492 48.461967
    endloop
  endfacet
  facet normal 0 -0.5141038 0.857728
    outer loop
      vertex 0 64.38925 49.72326
      vertex 2 62.28492 48.461967
      vertex 2 64.38925 49.72326
    endloop
  endfacet
  facet normal 0 -0.5141038 0.857728
    outer loop
      vertex 2 62.28492 48.461967
      vertex 0 64.38925 49.72326
      vertex 0 62.28492 48.461967
    endloop
  endfacet
  facet normal 0 0.33689108 0.94154364
    outer loop
      vertex 35 43.24288 46.58649
      vertex 37 40.932915 47.413013
      vertex 37 43.24288 46.58649
    endloop
  endfacet
  facet normal 0 0.33689108 0.94154364
    outer loop
      vertex 37 40.932915 47.413013
      vertex 35 43.24288 46.58649
      vertex 35 40.932915 47.413013
    endloop
  endfacet
  facet normal 0 0.33689108 0.94154364
    outer loop
      vertex 0 43.24288 46.58649
      vertex 2 40.932915 47.413013
      vertex 2 43.24288 46.58649
    endloop
  endfacet
  facet normal 0 0.33689108 0.94154364
    outer loop
      vertex 2 40.932915 47.413013
      vertex 0 43.24288 46.58649
      vertex 0 40.932915 47.413013
    endloop
  endfacet
  facet normal 0 0.5141031 0.8577284
    outer loop
      vertex 0 38.71508 48.461967
      vertex 2 36.610744 49.72326
      vertex 2 38.71508 48.461967
    endloop
  endfacet
  facet normal 0 0.5141031 0.8577284
    outer loop
      vertex 2 36.610744 49.72326
      vertex 0 38.71508 48.461967
      vertex 0 36.610744 49.72326
    endloop
  endfacet
  facet normal 0 0.5141031 0.8577284
    outer loop
      vertex 35 38.71508 48.461967
      vertex 37 36.610744 49.72326
      vertex 37 38.71508 48.461967
    endloop
  endfacet
  facet normal 0 0.5141031 0.8577284
    outer loop
      vertex 37 36.610744 49.72326
      vertex 35 38.71508 48.461967
      vertex 35 36.610744 49.72326
    endloop
  endfacet
  facet normal 0 -0.4275539 0.90398985
    outer loop
      vertex 35 62.28492 48.461967
      vertex 37 60.067085 47.413013
      vertex 37 62.28492 48.461967
    endloop
  endfacet
  facet normal 0 -0.4275539 0.90398985
    outer loop
      vertex 37 60.067085 47.413013
      vertex 35 62.28492 48.461967
      vertex 35 60.067085 47.413013
    endloop
  endfacet
  facet normal 0 -0.4275539 0.90398985
    outer loop
      vertex 0 62.28492 48.461967
      vertex 2 60.067085 47.413013
      vertex 2 62.28492 48.461967
    endloop
  endfacet
  facet normal 0 -0.4275539 0.90398985
    outer loop
      vertex 2 60.067085 47.413013
      vertex 0 62.28492 48.461967
      vertex 0 60.067085 47.413013
    endloop
  endfacet
  facet normal 0 -0.85772884 0.5141024
    outer loop
      vertex 0 71.28674 56.620743
      vertex 2 72.548035 58.725082
      vertex 0 72.548035 58.725082
    endloop
  endfacet
  facet normal 0 -0.85772884 0.5141024
    outer loop
      vertex 2 72.548035 58.725082
      vertex 0 71.28674 56.620743
      vertex 2 71.28674 56.620743
    endloop
  endfacet
  facet normal 0 -0.85772884 0.5141024
    outer loop
      vertex 35 71.28674 56.620743
      vertex 37 72.548035 58.725082
      vertex 35 72.548035 58.725082
    endloop
  endfacet
  facet normal 0 -0.85772884 0.5141024
    outer loop
      vertex 37 72.548035 58.725082
      vertex 35 71.28674 56.620743
      vertex 37 71.28674 56.620743
    endloop
  endfacet
  facet normal 0 -0.049068652 0.9987954
    outer loop
      vertex 35 52.950428 45.630383
      vertex 37 50.5 45.51
      vertex 37 52.950428 45.630383
    endloop
  endfacet
  facet normal 0 -0.049068652 0.9987954
    outer loop
      vertex 37 50.5 45.51
      vertex 35 52.950428 45.630383
      vertex 35 50.5 45.51
    endloop
  endfacet
  facet normal 0 -0.049068652 0.9987954
    outer loop
      vertex 0 52.950428 45.630383
      vertex 2 50.5 45.51
      vertex 2 52.950428 45.630383
    endloop
  endfacet
  facet normal 0 -0.049068652 0.9987954
    outer loop
      vertex 2 50.5 45.51
      vertex 0 52.950428 45.630383
      vertex 0 50.5 45.51
    endloop
  endfacet
  facet normal 0 -0.6715581 0.74095196
    outer loop
      vertex 0 68.17767 52.83233
      vertex 2 66.35983 51.18474
      vertex 2 68.17767 52.83233
    endloop
  endfacet
  facet normal 0 -0.6715581 0.74095196
    outer loop
      vertex 2 66.35983 51.18474
      vertex 0 68.17767 52.83233
      vertex 0 66.35983 51.18474
    endloop
  endfacet
  facet normal 0 -0.6715581 0.74095196
    outer loop
      vertex 35 68.17767 52.83233
      vertex 37 66.35983 51.18474
      vertex 37 68.17767 52.83233
    endloop
  endfacet
  facet normal 0 -0.6715581 0.74095196
    outer loop
      vertex 37 66.35983 51.18474
      vertex 35 68.17767 52.83233
      vertex 35 66.35983 51.18474
    endloop
  endfacet
  facet normal 0 0.9700314 0.24297975
    outer loop
      vertex 2 26.576492 63.252884
      vertex 0 25.98037 65.632744
      vertex 2 25.98037 65.632744
    endloop
  endfacet
  facet normal 0 0.9700314 0.24297975
    outer loop
      vertex 0 25.98037 65.632744
      vertex 2 26.576492 63.252884
      vertex 0 26.576492 63.252884
    endloop
  endfacet
  facet normal 0 0.9700314 0.24297975
    outer loop
      vertex 37 26.576492 63.252884
      vertex 35 25.98037 65.632744
      vertex 37 25.98037 65.632744
    endloop
  endfacet
  facet normal 0 0.9700314 0.24297975
    outer loop
      vertex 35 25.98037 65.632744
      vertex 37 26.576492 63.252884
      vertex 35 26.576492 63.252884
    endloop
  endfacet
  facet normal 0 -0.9415438 0.33689058
    outer loop
      vertex 0 73.596985 60.942913
      vertex 2 74.42351 63.252884
      vertex 0 74.42351 63.252884
    endloop
  endfacet
  facet normal 0 -0.9415438 0.33689058
    outer loop
      vertex 2 74.42351 63.252884
      vertex 0 73.596985 60.942913
      vertex 2 73.596985 60.942913
    endloop
  endfacet
  facet normal 0 -0.9415438 0.33689058
    outer loop
      vertex 35 73.596985 60.942913
      vertex 37 74.42351 63.252884
      vertex 35 74.42351 63.252884
    endloop
  endfacet
  facet normal 0 -0.9415438 0.33689058
    outer loop
      vertex 37 74.42351 63.252884
      vertex 35 73.596985 60.942913
      vertex 37 73.596985 60.942913
    endloop
  endfacet
  facet normal 0 0.74095196 0.6715581
    outer loop
      vertex 2 32.82233 52.83233
      vertex 0 31.17474 54.65017
      vertex 2 31.17474 54.65017
    endloop
  endfacet
  facet normal 0 0.74095196 0.6715581
    outer loop
      vertex 0 31.17474 54.65017
      vertex 2 32.82233 52.83233
      vertex 0 32.82233 52.83233
    endloop
  endfacet
  facet normal 0 0.74095196 0.6715581
    outer loop
      vertex 37 32.82233 52.83233
      vertex 35 31.17474 54.65017
      vertex 37 31.17474 54.65017
    endloop
  endfacet
  facet normal 0 0.74095196 0.6715581
    outer loop
      vertex 35 31.17474 54.65017
      vertex 37 32.82233 52.83233
      vertex 35 32.82233 52.83233
    endloop
  endfacet
  facet normal 0 -0.33689108 0.94154364
    outer loop
      vertex 35 60.067085 47.413013
      vertex 37 57.75712 46.58649
      vertex 37 60.067085 47.413013
    endloop
  endfacet
  facet normal 0 -0.33689108 0.94154364
    outer loop
      vertex 37 57.75712 46.58649
      vertex 35 60.067085 47.413013
      vertex 35 57.75712 46.58649
    endloop
  endfacet
  facet normal 0 -0.33689108 0.94154364
    outer loop
      vertex 0 60.067085 47.413013
      vertex 2 57.75712 46.58649
      vertex 2 60.067085 47.413013
    endloop
  endfacet
  facet normal 0 -0.33689108 0.94154364
    outer loop
      vertex 2 57.75712 46.58649
      vertex 0 60.067085 47.413013
      vertex 0 57.75712 46.58649
    endloop
  endfacet
  facet normal 0 0.67155886 0.74095124
    outer loop
      vertex 35 34.640167 51.18474
      vertex 37 32.82233 52.83233
      vertex 37 34.640167 51.18474
    endloop
  endfacet
  facet normal 0 0.67155886 0.74095124
    outer loop
      vertex 37 32.82233 52.83233
      vertex 35 34.640167 51.18474
      vertex 35 32.82233 52.83233
    endloop
  endfacet
  facet normal 0 0.67155886 0.74095124
    outer loop
      vertex 0 34.640167 51.18474
      vertex 2 32.82233 52.83233
      vertex 2 34.640167 51.18474
    endloop
  endfacet
  facet normal 0 0.67155886 0.74095124
    outer loop
      vertex 2 32.82233 52.83233
      vertex 0 34.640167 51.18474
      vertex 0 32.82233 52.83233
    endloop
  endfacet
  facet normal 0 0.5956992 0.80320764
    outer loop
      vertex 0 36.610744 49.72326
      vertex 2 34.640167 51.18474
      vertex 2 36.610744 49.72326
    endloop
  endfacet
  facet normal 0 0.5956992 0.80320764
    outer loop
      vertex 2 34.640167 51.18474
      vertex 0 36.610744 49.72326
      vertex 0 34.640167 51.18474
    endloop
  endfacet
  facet normal 0 0.5956992 0.80320764
    outer loop
      vertex 35 36.610744 49.72326
      vertex 37 34.640167 51.18474
      vertex 37 36.610744 49.72326
    endloop
  endfacet
  facet normal 0 0.5956992 0.80320764
    outer loop
      vertex 37 34.640167 51.18474
      vertex 35 36.610744 49.72326
      vertex 35 34.640167 51.18474
    endloop
  endfacet
  facet normal 0 0.90398896 0.42755577
    outer loop
      vertex 2 28.45197 58.725082
      vertex 0 27.403011 60.942913
      vertex 2 27.403011 60.942913
    endloop
  endfacet
  facet normal 0 0.90398896 0.42755577
    outer loop
      vertex 0 27.403011 60.942913
      vertex 2 28.45197 58.725082
      vertex 0 28.45197 58.725082
    endloop
  endfacet
  facet normal 0 0.90398896 0.42755577
    outer loop
      vertex 37 28.45197 58.725082
      vertex 35 27.403011 60.942913
      vertex 37 27.403011 60.942913
    endloop
  endfacet
  facet normal 0 0.90398896 0.42755577
    outer loop
      vertex 35 27.403011 60.942913
      vertex 37 28.45197 58.725082
      vertex 35 28.45197 58.725082
    endloop
  endfacet
  facet normal 0 0.14673011 0.9891766
    outer loop
      vertex 35 48.049572 45.630383
      vertex 37 45.62274 45.990368
      vertex 37 48.049572 45.630383
    endloop
  endfacet
  facet normal 0 0.14673011 0.9891766
    outer loop
      vertex 37 45.62274 45.990368
      vertex 35 48.049572 45.630383
      vertex 35 45.62274 45.990368
    endloop
  endfacet
  facet normal 0 0.14673011 0.9891766
    outer loop
      vertex 0 48.049572 45.630383
      vertex 2 45.62274 45.990368
      vertex 2 48.049572 45.630383
    endloop
  endfacet
  facet normal 0 0.14673011 0.9891766
    outer loop
      vertex 2 45.62274 45.990368
      vertex 0 48.049572 45.630383
      vertex 0 45.62274 45.990368
    endloop
  endfacet
  facet normal 0 -1 0
    outer loop
      vertex 2 95 2
      vertex 35 95 70
      vertex 2 95 70
    endloop
  endfacet
  facet normal 0 -1 0
    outer loop
      vertex 35 95 70
      vertex 2 95 2
      vertex 35 95 2
    endloop
  endfacet
  facet normal 0 0 1
    outer loop
      vertex 2 95 2
      vertex 35 2 2
      vertex 35 95 2
    endloop
  endfacet
  facet normal 0 0 1
    outer loop
      vertex 35 2 2
      vertex 2 95 2
      vertex 2 2 2
    endloop
  endfacet
  facet normal 0 1 0
    outer loop
      vertex 35 2 2
      vertex 2 2 70
      vertex 35 2 70
    endloop
  endfacet
  facet normal 0 1 0
    outer loop
      vertex 2 2 70
      vertex 35 2 2
      vertex 2 2 2
    endloop
  endfacet
  facet normal 0.92387986 -0.38268268 0
    outer loop
      vertex 36.414215 0.5857868 73
      vertex 37 2 0
      vertex 37 2 73
    endloop
  endfacet
  facet normal 0.92387986 -0.38268268 0
    outer loop
      vertex 37 2 0
      vertex 36.414215 0.5857868 73
      vertex 36.414215 0.5857868 0
    endloop
  endfacet
  facet normal -0.92387956 0.3826833 0
    outer loop
      vertex 0 95 0
      vertex 0.5857868 96.414215 73
      vertex 0.5857868 96.414215 0
    endloop
  endfacet
  facet normal -0.92387956 0.3826833 0
    outer loop
      vertex 0.5857868 96.414215 73
      vertex 0 95 0
      vertex 0 95 73
    endloop
  endfacet
  facet normal 0 -1 0
    outer loop
      vertex 2 0 0
      vertex 35 0 70
      vertex 2 0 70
    endloop
  endfacet
  facet normal 0 -1 0
    outer loop
      vertex 35 0 70
      vertex 2 0 0
      vertex 35 0 0
    endloop
  endfacet
  facet normal 1 0 0
    outer loop
      vertex 37 75.27876 67.379654
      vertex 37 75.01963 65.632744
      vertex 37 75.27876 67.191414
    endloop
  endfacet
  facet normal 1 0 0
    outer loop
      vertex 37 75.54425 69.17371
      vertex 37 75.27876 67.191414
      vertex 37 75.54425 68.95925
    endloop
  endfacet
  facet normal 1 0 0
    outer loop
      vertex 37 75.27876 67.191414
      vertex 37 95 73
      vertex 37 78.3445 73
    endloop
  endfacet
  facet normal 1 0 0
    outer loop
      vertex 37 76.96446 72.04553
      vertex 37 78.3445 73
      vertex 37 77.72215 72.66735
    endloop
  endfacet
  facet normal 1 0 0
    outer loop
      vertex 37 78.3445 73
      vertex 37 76.96446 72.04553
      vertex 37 75.54425 68.95925
    endloop
  endfacet
  facet normal 1 0 0
    outer loop
      vertex 37 75.54425 68.95925
      vertex 37 76.96446 72.04553
      vertex 37 76.34265 71.28785
    endloop
  endfacet
  facet normal 1 0 0
    outer loop
      vertex 37 75.54425 68.95925
      vertex 37 76.34265 71.28785
      vertex 37 75.8806 70.423416
    endloop
  endfacet
  facet normal 1 0 0
    outer loop
      vertex 37 75.54425 68.95925
      vertex 37 75.8806 70.423416
      vertex 37 75.59608 69.48545
    endloop
  endfacet
  facet normal 1 0 0
    outer loop
      vertex 37 78.3445 73
      vertex 37 75.54425 68.95925
      vertex 37 75.27876 67.191414
    endloop
  endfacet
  facet normal 1 0 0
    outer loop
      vertex 37 95 73
      vertex 37 75.27876 67.191414
      vertex 37 75.01963 65.632744
    endloop
  endfacet
  facet normal 1 0 0
    outer loop
      vertex 37 95 73
      vertex 37 75.01963 65.632744
      vertex 37 74.42351 63.252884
    endloop
  endfacet
  facet normal 1 0 0
    outer loop
      vertex 37 73.596985 60.942913
      vertex 37 95 73
      vertex 37 74.42351 63.252884
    endloop
  endfacet
  facet normal 1 0 0
    outer loop
      vertex 37 72.548035 58.725082
      vertex 37 95 73
      vertex 37 73.596985 60.942913
    endloop
  endfacet
  facet normal 1 0 0
    outer loop
      vertex 37 71.28674 56.620743
      vertex 37 95 73
      vertex 37 72.548035 58.725082
    endloop
  endfacet
  facet normal 1 0 0
    outer loop
      vertex 37 95 73
      vertex 37 71.28674 56.620743
      vertex 37 95 0
    endloop
  endfacet
  facet normal 1 0 0
    outer loop
      vertex 37 69.825264 54.65017
      vertex 37 95 0
      vertex 37 71.28674 56.620743
    endloop
  endfacet
  facet normal 1 0 0
    outer loop
      vertex 37 68.17767 52.83233
      vertex 37 95 0
      vertex 37 69.825264 54.65017
    endloop
  endfacet
  facet normal 1 0 0
    outer loop
      vertex 37 66.35983 51.18474
      vertex 37 95 0
      vertex 37 68.17767 52.83233
    endloop
  endfacet
  facet normal 1 0 0
    outer loop
      vertex 37 64.38925 49.72326
      vertex 37 95 0
      vertex 37 66.35983 51.18474
    endloop
  endfacet
  facet normal 1 0 0
    outer loop
      vertex 37 62.28492 48.461967
      vertex 37 95 0
      vertex 37 64.38925 49.72326
    endloop
  endfacet
  facet normal 1 0 0
    outer loop
      vertex 37 60.067085 47.413013
      vertex 37 95 0
      vertex 37 62.28492 48.461967
    endloop
  endfacet
  facet normal 1 0 0
    outer loop
      vertex 37 57.75712 46.58649
      vertex 37 95 0
      vertex 37 60.067085 47.413013
    endloop
  endfacet
  facet normal 1 0 0
    outer loop
      vertex 37 55.37726 45.990368
      vertex 37 95 0
      vertex 37 57.75712 46.58649
    endloop
  endfacet
  facet normal 1 0 0
    outer loop
      vertex 37 52.950428 45.630383
      vertex 37 95 0
      vertex 37 55.37726 45.990368
    endloop
  endfacet
  facet normal 1 0 0
    outer loop
      vertex 37 50.5 45.51
      vertex 37 95 0
      vertex 37 52.950428 45.630383
    endloop
  endfacet
  facet normal 1 0 0
    outer loop
      vertex 37 2 0
      vertex 37 50.5 45.51
      vertex 37 48.049572 45.630383
    endloop
  endfacet
  facet normal 1 0 0
    outer loop
      vertex 37 2 0
      vertex 37 48.049572 45.630383
      vertex 37 45.62274 45.990368
    endloop
  endfacet
  facet normal 1 0 0
    outer loop
      vertex 37 2 0
      vertex 37 45.62274 45.990368
      vertex 37 43.24288 46.58649
    endloop
  endfacet
  facet normal 1 0 0
    outer loop
      vertex 37 2 0
      vertex 37 43.24288 46.58649
      vertex 37 40.932915 47.413013
    endloop
  endfacet
  facet normal 1 0 0
    outer loop
      vertex 37 2 0
      vertex 37 40.932915 47.413013
      vertex 37 38.71508 48.461967
    endloop
  endfacet
  facet normal 1 0 0
    outer loop
      vertex 37 2 0
      vertex 37 38.71508 48.461967
      vertex 37 36.610744 49.72326
    endloop
  endfacet
  facet normal 1 0 0
    outer loop
      vertex 37 2 0
      vertex 37 36.610744 49.72326
      vertex 37 34.640167 51.18474
    endloop
  endfacet
  facet normal 1 0 0
    outer loop
      vertex 37 25.72124 67.191414
      vertex 37 25.98037 65.632744
      vertex 37 25.72124 67.379654
    endloop
  endfacet
  facet normal 1 0 0
    outer loop
      vertex 37 25.455753 68.95925
      vertex 37 25.72124 67.191414
      vertex 37 25.455753 69.17371
    endloop
  endfacet
  facet normal 1 0 0
    outer loop
      vertex 37 25.119396 70.423416
      vertex 37 25.455753 68.95925
      vertex 37 25.403927 69.48545
    endloop
  endfacet
  facet normal 1 0 0
    outer loop
      vertex 37 22.655504 73
      vertex 37 25.455753 68.95925
      vertex 37 25.119396 70.423416
    endloop
  endfacet
  facet normal 1 0 0
    outer loop
      vertex 37 25.455753 68.95925
      vertex 37 22.655504 73
      vertex 37 25.72124 67.191414
    endloop
  endfacet
  facet normal 1 0 0
    outer loop
      vertex 37 22.655504 73
      vertex 37 25.119396 70.423416
      vertex 37 24.657349 71.28785
    endloop
  endfacet
  facet normal 1 0 0
    outer loop
      vertex 37 22.655504 73
      vertex 37 24.657349 71.28785
      vertex 37 24.035534 72.04553
    endloop
  endfacet
  facet normal 1 0 0
    outer loop
      vertex 37 25.72124 67.191414
      vertex 37 22.655504 73
      vertex 37 25.98037 65.632744
    endloop
  endfacet
  facet normal 1 0 0
    outer loop
      vertex 37 22.655504 73
      vertex 37 24.035534 72.04553
      vertex 37 23.277851 72.66735
    endloop
  endfacet
  facet normal 1 0 0
    outer loop
      vertex 37 2 73
      vertex 37 25.98037 65.632744
      vertex 37 22.655504 73
    endloop
  endfacet
  facet normal 1 0 0
    outer loop
      vertex 37 25.98037 65.632744
      vertex 37 2 73
      vertex 37 26.576492 63.252884
    endloop
  endfacet
  facet normal 1 0 0
    outer loop
      vertex 37 26.576492 63.252884
      vertex 37 2 73
      vertex 37 27.403011 60.942913
    endloop
  endfacet
  facet normal 1 0 0
    outer loop
      vertex 37 2 73
      vertex 37 28.45197 58.725082
      vertex 37 27.403011 60.942913
    endloop
  endfacet
  facet normal 1 0 0
    outer loop
      vertex 37 2 73
      vertex 37 29.71326 56.620743
      vertex 37 28.45197 58.725082
    endloop
  endfacet
  facet normal 1 0 0
    outer loop
      vertex 37 2 0
      vertex 37 29.71326 56.620743
      vertex 37 2 73
    endloop
  endfacet
  facet normal 1 0 0
    outer loop
      vertex 37 29.71326 56.620743
      vertex 37 2 0
      vertex 37 31.17474 54.65017
    endloop
  endfacet
  facet normal 1 0 0
    outer loop
      vertex 37 31.17474 54.65017
      vertex 37 2 0
      vertex 37 32.82233 52.83233
    endloop
  endfacet
  facet normal 1 0 0
    outer loop
      vertex 37 32.82233 52.83233
      vertex 37 2 0
      vertex 37 34.640167 51.18474
    endloop
  endfacet
  facet normal 1 0 0
    outer loop
      vertex 37 50.5 45.51
      vertex 37 2 0
      vertex 37 95 0
    endloop
  endfacet
  facet normal -1 0 0
    outer loop
      vertex 0 71.28674 56.620743
      vertex 0 95 73
      vertex 0 95 0
    endloop
  endfacet
  facet normal -1 0 0
    outer loop
      vertex 0 75.01963 65.632744
      vertex 0 95 73
      vertex 0 74.42351 63.252884
    endloop
  endfacet
  facet normal -1 0 0
    outer loop
      vertex 0 75.27876 67.191414
      vertex 0 95 73
      vertex 0 75.01963 65.632744
    endloop
  endfacet
  facet normal -1 0 0
    outer loop
      vertex 0 75.54425 68.95925
      vertex 0 78.3445 73
      vertex 0 75.27876 67.191414
    endloop
  endfacet
  facet normal -1 0 0
    outer loop
      vertex 0 76.96446 72.04553
      vertex 0 78.3445 73
      vertex 0 75.54425 68.95925
    endloop
  endfacet
  facet normal -1 0 0
    outer loop
      vertex 0 76.96446 72.04553
      vertex 0 75.54425 68.95925
      vertex 0 76.34265 71.28785
    endloop
  endfacet
  facet normal -1 0 0
    outer loop
      vertex 0 75.8806 70.423416
      vertex 0 75.54425 68.95925
      vertex 0 75.59608 69.48545
    endloop
  endfacet
  facet normal -1 0 0
    outer loop
      vertex 0 75.54425 68.95925
      vertex 0 75.27876 67.191414
      vertex 0 75.54425 69.17371
    endloop
  endfacet
  facet normal -1 0 0
    outer loop
      vertex 0 76.34265 71.28785
      vertex 0 75.54425 68.95925
      vertex 0 75.8806 70.423416
    endloop
  endfacet
  facet normal -1 0 0
    outer loop
      vertex 0 75.27876 67.191414
      vertex 0 75.01963 65.632744
      vertex 0 75.27876 67.379654
    endloop
  endfacet
  facet normal -1 0 0
    outer loop
      vertex 0 78.3445 73
      vertex 0 76.96446 72.04553
      vertex 0 77.72215 72.66735
    endloop
  endfacet
  facet normal -1 0 0
    outer loop
      vertex 0 95 73
      vertex 0 75.27876 67.191414
      vertex 0 78.3445 73
    endloop
  endfacet
  facet normal -1 0 0
    outer loop
      vertex 0 95 73
      vertex 0 73.596985 60.942913
      vertex 0 74.42351 63.252884
    endloop
  endfacet
  facet normal -1 0 0
    outer loop
      vertex 0 95 73
      vertex 0 72.548035 58.725082
      vertex 0 73.596985 60.942913
    endloop
  endfacet
  facet normal -1 0 0
    outer loop
      vertex 0 95 73
      vertex 0 71.28674 56.620743
      vertex 0 72.548035 58.725082
    endloop
  endfacet
  facet normal -1 0 0
    outer loop
      vertex 0 95 0
      vertex 0 69.825264 54.65017
      vertex 0 71.28674 56.620743
    endloop
  endfacet
  facet normal -1 0 0
    outer loop
      vertex 0 95 0
      vertex 0 68.17767 52.83233
      vertex 0 69.825264 54.65017
    endloop
  endfacet
  facet normal -1 0 0
    outer loop
      vertex 0 95 0
      vertex 0 66.35983 51.18474
      vertex 0 68.17767 52.83233
    endloop
  endfacet
  facet normal -1 0 0
    outer loop
      vertex 0 95 0
      vertex 0 64.38925 49.72326
      vertex 0 66.35983 51.18474
    endloop
  endfacet
  facet normal -1 0 0
    outer loop
      vertex 0 95 0
      vertex 0 62.28492 48.461967
      vertex 0 64.38925 49.72326
    endloop
  endfacet
  facet normal -1 0 0
    outer loop
      vertex 0 95 0
      vertex 0 60.067085 47.413013
      vertex 0 62.28492 48.461967
    endloop
  endfacet
  facet normal -1 0 0
    outer loop
      vertex 0 95 0
      vertex 0 57.75712 46.58649
      vertex 0 60.067085 47.413013
    endloop
  endfacet
  facet normal -1 0 0
    outer loop
      vertex 0 95 0
      vertex 0 55.37726 45.990368
      vertex 0 57.75712 46.58649
    endloop
  endfacet
  facet normal -1 0 0
    outer loop
      vertex 0 95 0
      vertex 0 52.950428 45.630383
      vertex 0 55.37726 45.990368
    endloop
  endfacet
  facet normal -1 0 0
    outer loop
      vertex 0 95 0
      vertex 0 50.5 45.51
      vertex 0 52.950428 45.630383
    endloop
  endfacet
  facet normal -1 0 0
    outer loop
      vertex 0 2 0
      vertex 0 50.5 45.51
      vertex 0 95 0
    endloop
  endfacet
  facet normal -1 0 0
    outer loop
      vertex 0 50.5 45.51
      vertex 0 2 0
      vertex 0 48.049572 45.630383
    endloop
  endfacet
  facet normal -1 0 0
    outer loop
      vertex 0 48.049572 45.630383
      vertex 0 2 0
      vertex 0 45.62274 45.990368
    endloop
  endfacet
  facet normal -1 0 0
    outer loop
      vertex 0 45.62274 45.990368
      vertex 0 2 0
      vertex 0 43.24288 46.58649
    endloop
  endfacet
  facet normal -1 0 0
    outer loop
      vertex 0 43.24288 46.58649
      vertex 0 2 0
      vertex 0 40.932915 47.413013
    endloop
  endfacet
  facet normal -1 0 0
    outer loop
      vertex 0 40.932915 47.413013
      vertex 0 2 0
      vertex 0 38.71508 48.461967
    endloop
  endfacet
  facet normal -1 0 0
    outer loop
      vertex 0 38.71508 48.461967
      vertex 0 2 0
      vertex 0 36.610744 49.72326
    endloop
  endfacet
  facet normal -1 0 0
    outer loop
      vertex 0 25.455753 68.95925
      vertex 0 25.119396 70.423416
      vertex 0 25.403927 69.48545
    endloop
  endfacet
  facet normal -1 0 0
    outer loop
      vertex 0 22.655504 73
      vertex 0 25.455753 68.95925
      vertex 0 25.72124 67.191414
    endloop
  endfacet
  facet normal -1 0 0
    outer loop
      vertex 0 22.655504 73
      vertex 0 25.72124 67.191414
      vertex 0 25.98037 65.632744
    endloop
  endfacet
  facet normal -1 0 0
    outer loop
      vertex 0 25.455753 68.95925
      vertex 0 22.655504 73
      vertex 0 25.119396 70.423416
    endloop
  endfacet
  facet normal -1 0 0
    outer loop
      vertex 0 25.119396 70.423416
      vertex 0 22.655504 73
      vertex 0 24.657349 71.28785
    endloop
  endfacet
  facet normal -1 0 0
    outer loop
      vertex 0 2 73
      vertex 0 25.98037 65.632744
      vertex 0 26.576492 63.252884
    endloop
  endfacet
  facet normal -1 0 0
    outer loop
      vertex 0 24.657349 71.28785
      vertex 0 22.655504 73
      vertex 0 24.035534 72.04553
    endloop
  endfacet
  facet normal -1 0 0
    outer loop
      vertex 0 24.035534 72.04553
      vertex 0 22.655504 73
      vertex 0 23.277851 72.66735
    endloop
  endfacet
  facet normal -1 0 0
    outer loop
      vertex 0 2 73
      vertex 0 26.576492 63.252884
      vertex 0 27.403011 60.942913
    endloop
  endfacet
  facet normal -1 0 0
    outer loop
      vertex 0 36.610744 49.72326
      vertex 0 2 0
      vertex 0 34.640167 51.18474
    endloop
  endfacet
  facet normal -1 0 0
    outer loop
      vertex 0 2 0
      vertex 0 32.82233 52.83233
      vertex 0 34.640167 51.18474
    endloop
  endfacet
  facet normal -1 0 0
    outer loop
      vertex 0 2 0
      vertex 0 31.17474 54.65017
      vertex 0 32.82233 52.83233
    endloop
  endfacet
  facet normal -1 0 0
    outer loop
      vertex 0 2 0
      vertex 0 29.71326 56.620743
      vertex 0 31.17474 54.65017
    endloop
  endfacet
  facet normal -1 0 0
    outer loop
      vertex 0 2 73
      vertex 0 29.71326 56.620743
      vertex 0 2 0
    endloop
  endfacet
  facet normal -1 0 0
    outer loop
      vertex 0 29.71326 56.620743
      vertex 0 2 73
      vertex 0 28.45197 58.725082
    endloop
  endfacet
  facet normal -1 0 0
    outer loop
      vertex 0 28.45197 58.725082
      vertex 0 2 73
      vertex 0 27.403011 60.942913
    endloop
  endfacet
  facet normal -1 0 0
    outer loop
      vertex 0 25.98037 65.632744
      vertex 0 2 73
      vertex 0 22.655504 73
    endloop
  endfacet
  facet normal -1 0 0
    outer loop
      vertex 0 25.98037 65.632744
      vertex 0 25.72124 67.191414
      vertex 0 25.72124 67.379654
    endloop
  endfacet
  facet normal -1 0 0
    outer loop
      vertex 0 25.72124 67.191414
      vertex 0 25.455753 68.95925
      vertex 0 25.455753 69.17371
    endloop
  endfacet
  facet normal -0.38268268 0.92387986 0
    outer loop
      vertex 2 97 0
      vertex 0.5857868 96.414215 73
      vertex 2 97 73
    endloop
  endfacet
  facet normal -0.38268268 0.92387986 0
    outer loop
      vertex 0.5857868 96.414215 73
      vertex 2 97 0
      vertex 0.5857868 96.414215 0
    endloop
  endfacet
  facet normal 0 1 0
    outer loop
      vertex 35 97 0
      vertex 2 97 73
      vertex 35 97 73
    endloop
  endfacet
  facet normal 0 1 0
    outer loop
      vertex 2 97 73
      vertex 35 97 0
      vertex 2 97 0
    endloop
  endfacet
  facet normal -0.9238794 -0.38268372 0
    outer loop
      vertex 0.5857868 0.5857868 0
      vertex 0 2 73
      vertex 0 2 0
    endloop
  endfacet
  facet normal -0.9238794 -0.38268372 0
    outer loop
      vertex 0 2 73
      vertex 0.5857868 0.5857868 0
      vertex 0.5857868 0.5857868 73
    endloop
  endfacet
  facet normal 0.38268223 0.92388004 0
    outer loop
      vertex 36.414215 96.414215 0
      vertex 35 97 73
      vertex 36.414215 96.414215 73
    endloop
  endfacet
  facet normal 0.38268223 0.92388004 0
    outer loop
      vertex 35 97 73
      vertex 36.414215 96.414215 0
      vertex 35 97 0
    endloop
  endfacet
  facet normal 0.38268375 -0.9238794 0
    outer loop
      vertex 35 0 70
      vertex 35 0 0
      vertex 36 0.41421396 70
    endloop
  endfacet
  facet normal 0.38268375 -0.9238794 0
    outer loop
      vertex 35.5 0.20710698 71.5
      vertex 35 0 73
      vertex 35 0 71.5
    endloop
  endfacet
  facet normal 0.3826833 -0.92387956 -1.7549014e-7
    outer loop
      vertex 35 0 73
      vertex 35.5 0.20710698 71.5
      vertex 36.414215 0.5857868 73
    endloop
  endfacet
  facet normal 0.3826835 -0.9238795 -3.0839936e-7
    outer loop
      vertex 36 0.41421396 71
      vertex 36.414215 0.5857868 73
      vertex 35.5 0.20710698 71.5
    endloop
  endfacet
  facet normal 0.3826822 -0.92388004 0
    outer loop
      vertex 36 0.41421396 70
      vertex 36.414215 0.5857868 73
      vertex 36 0.41421396 71
    endloop
  endfacet
  facet normal 0.3826833 -0.92387956 7.521006e-9
    outer loop
      vertex 36.414215 0.5857868 0
      vertex 36 0.41421396 70
      vertex 35 0 0
    endloop
  endfacet
  facet normal 0.3826822 -0.92388004 0
    outer loop
      vertex 36 0.41421396 70
      vertex 36.414215 0.5857868 0
      vertex 36.414215 0.5857868 73
    endloop
  endfacet
  facet normal 0.92388004 0.38268223 0
    outer loop
      vertex 37 95 73
      vertex 36.414215 96.414215 0
      vertex 36.414215 96.414215 73
    endloop
  endfacet
  facet normal 0.92388004 0.38268223 0
    outer loop
      vertex 36.414215 96.414215 0
      vertex 37 95 73
      vertex 37 95 0
    endloop
  endfacet
  facet normal 0 0 -1
    outer loop
      vertex 35 0 0
      vertex 37 2 0
      vertex 36.414215 0.5857868 0
    endloop
  endfacet
  facet normal 0 0 -1
    outer loop
      vertex 37 2 0
      vertex 0 2 0
      vertex 37 95 0
    endloop
  endfacet
  facet normal 0 0 -1
    outer loop
      vertex 37 2 0
      vertex 35 0 0
      vertex 0 2 0
    endloop
  endfacet
  facet normal 0 0 -1
    outer loop
      vertex 0 95 0
      vertex 37 95 0
      vertex 0 2 0
    endloop
  endfacet
  facet normal 0 0 -1
    outer loop
      vertex 0 2 0
      vertex 35 0 0
      vertex 2 0 0
    endloop
  endfacet
  facet normal 0 0 -1
    outer loop
      vertex 35 97 0
      vertex 37 95 0
      vertex 0 95 0
    endloop
  endfacet
  facet normal 0 0 -1
    outer loop
      vertex 0 2 0
      vertex 2 0 0
      vertex 0.5857868 0.5857868 0
    endloop
  endfacet
  facet normal 0 0 -1
    outer loop
      vertex 37 95 0
      vertex 35 97 0
      vertex 36.414215 96.414215 0
    endloop
  endfacet
  facet normal 0 0 -1
    outer loop
      vertex 35 97 0
      vertex 0 95 0
      vertex 2 97 0
    endloop
  endfacet
  facet normal 0 0 -1
    outer loop
      vertex 2 97 0
      vertex 0 95 0
      vertex 0.5857868 96.414215 0
    endloop
  endfacet
  facet normal 0 0 1
    outer loop
      vertex 35 22.655504 73
      vertex 37 2 73
      vertex 37 22.655504 73
    endloop
  endfacet
  facet normal 0 0 1
    outer loop
      vertex 35 0 73
      vertex 37 2 73
      vertex 35 22.655504 73
    endloop
  endfacet
  facet normal 0 0 1
    outer loop
      vertex 37 2 73
      vertex 35 0 73
      vertex 36.414215 0.5857868 73
    endloop
  endfacet
  facet normal 0 0 1
    outer loop
      vertex 2 97 73
      vertex 35 95.2 73
      vertex 35 97 73
    endloop
  endfacet
  facet normal 0 0 1
    outer loop
      vertex 2 97 73
      vertex 2 95.2 73
      vertex 35 95.2 73
    endloop
  endfacet
  facet normal 0 0 1
    outer loop
      vertex 0.5857868 96.414215 73
      vertex 2 95.2 73
      vertex 2 97 73
    endloop
  endfacet
  facet normal 0 0 1
    outer loop
      vertex 2 95.2 73
      vertex 0.5857868 96.414215 73
      vertex 0 95 73
    endloop
  endfacet
  facet normal 0 0 1
    outer loop
      vertex 2 95.2 73
      vertex 0 95 73
      vertex 2 78.3445 73
    endloop
  endfacet
  facet normal 0 0 1
    outer loop
      vertex 2 78.3445 73
      vertex 0 95 73
      vertex 0 78.3445 73
    endloop
  endfacet
  facet normal 0 0 1
    outer loop
      vertex 35 95.2 73
      vertex 37 95 73
      vertex 36.414215 96.414215 73
    endloop
  endfacet
  facet normal 0 0 1
    outer loop
      vertex 35 95.2 73
      vertex 36.414215 96.414215 73
      vertex 35 97 73
    endloop
  endfacet
  facet normal 0 0 1
    outer loop
      vertex 35 78.3445 73
      vertex 37 95 73
      vertex 35 95.2 73
    endloop
  endfacet
  facet normal 0 0 1
    outer loop
      vertex 37 95 73
      vertex 35 78.3445 73
      vertex 37 78.3445 73
    endloop
  endfacet
  facet normal 0 0 1
    outer loop
      vertex 0 2 73
      vertex 2 0 73
      vertex 2 22.655504 73
    endloop
  endfacet
  facet normal 0 0 1
    outer loop
      vertex 0 2 73
      vertex 2 22.655504 73
      vertex 0 22.655504 73
    endloop
  endfacet
  facet normal 0 0 1
    outer loop
      vertex 2 0 73
      vertex 0 2 73
      vertex 0.5857868 0.5857868 73
    endloop
  endfacet
  facet normal -0.38268372 -0.9238794 -3.4485563e-9
    outer loop
      vertex 0.5857868 0.5857868 73
      vertex 1.5 0.20710698 71.5
      vertex 2 0 73
    endloop
  endfacet
  facet normal -0.38268372 -0.9238794 -6.060352e-9
    outer loop
      vertex 0.5857868 0.5857868 73
      vertex 1 0.41421396 71
      vertex 1.5 0.20710698 71.5
    endloop
  endfacet
  facet normal -0.38268372 -0.92387944 0
    outer loop
      vertex 0.5857868 0.5857868 73
      vertex 1 0.41421396 70
      vertex 1 0.41421396 71
    endloop
  endfacet
  facet normal -0.38268372 -0.92387944 0
    outer loop
      vertex 0.5857868 0.5857868 0
      vertex 1 0.41421396 70
      vertex 0.5857868 0.5857868 73
    endloop
  endfacet
  facet normal -0.38268375 -0.9238794 2.0901403e-10
    outer loop
      vertex 0.5857868 0.5857868 0
      vertex 2 0 70
      vertex 1 0.41421396 70
    endloop
  endfacet
  facet normal -0.38268372 -0.9238794 0
    outer loop
      vertex 2 0 70
      vertex 0.5857868 0.5857868 0
      vertex 2 0 0
    endloop
  endfacet
  facet normal -0.38268375 -0.9238794 0
    outer loop
      vertex 2 0 73
      vertex 1.5 0.20710698 71.5
      vertex 2 0 71.5
    endloop
  endfacet
endsolid OpenSCAD_Model
