solid OpenSCAD_Model
  facet normal 0.92388004 0.38268223 0
    outer loop
      vertex 43.8 140.5 2.999999
      vertex 43.507107 141.2071 1.2999992
      vertex 43.507107 141.2071 2.999999
    endloop
  endfacet
  facet normal 0.92388004 0.38268223 0
    outer loop
      vertex 43.507107 141.2071 1.2999992
      vertex 43.8 140.5 2.999999
      vertex 43.8 140.5 1.2999992
    endloop
  endfacet
  facet normal 0.38268223 0.92388004 0
    outer loop
      vertex 43.507107 141.2071 1.2999992
      vertex 42.8 141.5 2.999999
      vertex 43.507107 141.2071 2.999999
    endloop
  endfacet
  facet normal 0.382684 0.9238793 8.5871983e-7
    outer loop
      vertex 42.800003 141.5 1.2999992
      vertex 42.8 141.5 2.999999
      vertex 43.507107 141.2071 1.2999992
    endloop
  endfacet
  facet normal 0 1 0
    outer loop
      vertex 42.8 141.5 2.999999
      vertex 42.800003 141.5 1.2999992
      vertex 42.8 141.5 0.009999275
    endloop
  endfacet
  facet normal 0.9238824 -0.3826764 0
    outer loop
      vertex 43.75868 1.9002458 2.999999
      vertex 43.668182 1.6817642 1.2999992
      vertex 43.75868 1.9002458 1.2999992
    endloop
  endfacet
  facet normal 0.9238806 -0.38268092 6.834613e-7
    outer loop
      vertex 43.668182 1.6817642 1.2999992
      vertex 43.75868 1.9002458 2.999999
      vertex 43.507107 1.2928934 2.999999
    endloop
  endfacet
  facet normal 0.92388016 -0.38268194 -6.859689e-7
    outer loop
      vertex 43.507107 1.2928934 0.28189453
      vertex 43.8 2 1.1681815
      vertex 43.668182 1.6817642 1.2999992
    endloop
  endfacet
  facet normal 0.92387986 -0.38268268 0
    outer loop
      vertex 43.8 2 1.1681815
      vertex 43.507107 1.2928934 0.28189453
      vertex 43.8 2 0.055667754
    endloop
  endfacet
  facet normal 0.9238795 -0.38268346 0
    outer loop
      vertex 43.507107 1.2928934 0.28189453
      vertex 43.668182 1.6817642 1.2999992
      vertex 43.507107 1.2928934 2.999999
    endloop
  endfacet
  facet normal -1 0 0
    outer loop
      vertex 1.1999998 8.299991 1.2999992
      vertex 1.1999998 140.5 2.999999
      vertex 1.1999998 140.5 1.2999992
    endloop
  endfacet
  facet normal -1 0 0
    outer loop
      vertex 1.1999998 140.5 2.999999
      vertex 1.1999998 8.299991 1.2999992
      vertex 1.1999998 8.299991 2.999999
    endloop
  endfacet
  facet normal -1 0 0
    outer loop
      vertex 1.1999998 2.4524014 1.2999992
      vertex 1.1999998 2 1.2573465
      vertex 1.1999998 2 1.2999992
    endloop
  endfacet
  facet normal 0 -1 0
    outer loop
      vertex 42.461388 1 1.2999992
      vertex 2.1999998 1 2.999999
      vertex 2.1999998 1 1.2999992
    endloop
  endfacet
  facet normal 0 -1 0
    outer loop
      vertex 2.1999998 1 2.999999
      vertex 42.461388 1 1.2999992
      vertex 42.8 1 2.999999
    endloop
  endfacet
  facet normal 0 -1 0
    outer loop
      vertex 42.8 1 2.999999
      vertex 42.461388 1 1.2999992
      vertex 42.8 1 0.96138686
    endloop
  endfacet
  facet normal 0.3826833 -0.92387956 0
    outer loop
      vertex 42.8 1 0.96138686
      vertex 43.507107 1.2928934 2.999999
      vertex 42.8 1 2.999999
    endloop
  endfacet
  facet normal 0.3826833 -0.92387956 0
    outer loop
      vertex 43.507107 1.2928934 2.999999
      vertex 42.8 1 0.96138686
      vertex 43.507107 1.2928934 0.28189453
    endloop
  endfacet
  facet normal -0.38268375 -0.9238794 0
    outer loop
      vertex 1.5755374 1.258661 1.2999992
      vertex 2.1999998 1 2.999999
      vertex 1.5755374 1.258661 2.999999
    endloop
  endfacet
  facet normal -0.38268375 -0.9238794 0
    outer loop
      vertex 2.1999998 1 2.999999
      vertex 1.5755374 1.258661 1.2999992
      vertex 2.1999998 1 1.2999992
    endloop
  endfacet
  facet normal 0 0 1
    outer loop
      vertex 37 132.5 2.999999
      vertex 43.8 2.674988 2.999999
      vertex 43.8 140.5 2.999999
    endloop
  endfacet
  facet normal 0 0 1
    outer loop
      vertex 42.8 141.5 2.999999
      vertex 43.8 140.5 2.999999
      vertex 43.507107 141.2071 2.999999
    endloop
  endfacet
  facet normal 0 0 1
    outer loop
      vertex 37 10 2.999999
      vertex 43.8 2.674988 2.999999
      vertex 37 132.5 2.999999
    endloop
  endfacet
  facet normal 0 0 1
    outer loop
      vertex 43.8 140.5 2.999999
      vertex 42.8 141.5 2.999999
      vertex 37 132.5 2.999999
    endloop
  endfacet
  facet normal 0 0 1
    outer loop
      vertex 42.8 1 2.999999
      vertex 43.8 2.674988 2.999999
      vertex 37 10 2.999999
    endloop
  endfacet
  facet normal 0 0 1
    outer loop
      vertex 43.8 2.674988 2.999999
      vertex 42.8 1 2.999999
      vertex 43.75868 1.9002458 2.999999
    endloop
  endfacet
  facet normal 0 0 1
    outer loop
      vertex 42.8 141.5 2.999999
      vertex 10 132.5 2.999999
      vertex 37 132.5 2.999999
    endloop
  endfacet
  facet normal 0 0 1
    outer loop
      vertex 1.1999998 140.5 2.999999
      vertex 10 132.5 2.999999
      vertex 2.1999998 141.5 2.999999
    endloop
  endfacet
  facet normal 0 0 1
    outer loop
      vertex 2.1999998 141.5 2.999999
      vertex 10 132.5 2.999999
      vertex 42.8 141.5 2.999999
    endloop
  endfacet
  facet normal 0 0 1
    outer loop
      vertex 43.75868 1.9002458 2.999999
      vertex 42.8 1 2.999999
      vertex 43.507107 1.2928934 2.999999
    endloop
  endfacet
  facet normal 0 0 1
    outer loop
      vertex 10 10 2.999999
      vertex 42.8 1 2.999999
      vertex 37 10 2.999999
    endloop
  endfacet
  facet normal 0 0 1
    outer loop
      vertex 10 10 2.999999
      vertex 2.1999998 1 2.999999
      vertex 42.8 1 2.999999
    endloop
  endfacet
  facet normal 0 0 1
    outer loop
      vertex 1.1999998 8.299991 2.999999
      vertex 10 132.5 2.999999
      vertex 1.1999998 140.5 2.999999
    endloop
  endfacet
  facet normal 0 0 1
    outer loop
      vertex 10 10 2.999999
      vertex 1.1999998 8.299991 2.999999
      vertex 2.1999998 1 2.999999
    endloop
  endfacet
  facet normal 0 0 1
    outer loop
      vertex 1.1999998 140.5 2.999999
      vertex 2.1999998 141.5 2.999999
      vertex 1.4928932 141.2071 2.999999
    endloop
  endfacet
  facet normal 0 0 1
    outer loop
      vertex 10 132.5 2.999999
      vertex 1.1999998 8.299991 2.999999
      vertex 10 10 2.999999
    endloop
  endfacet
  facet normal 0 0 1
    outer loop
      vertex 2.1999998 1 2.999999
      vertex 1.1999998 8.299991 2.999999
      vertex 1.5755374 1.258661 2.999999
    endloop
  endfacet
  facet normal 0 1 0
    outer loop
      vertex 44.6 141.5 0
      vertex 42.8 141.5 0.009999275
      vertex 44.6 141.5 0.009999275
    endloop
  endfacet
  facet normal 0 1 0
    outer loop
      vertex 42.8 141.5 0.009999275
      vertex 44.6 141.5 0
      vertex 2.1999998 141.5 0.009999275
    endloop
  endfacet
  facet normal 0 1 0
    outer loop
      vertex 0 141.5 0
      vertex 2.1999998 141.5 0.009999275
      vertex 44.6 141.5 0
    endloop
  endfacet
  facet normal 0 1 0
    outer loop
      vertex 2.1999998 141.5 0.009999275
      vertex 0 141.5 0
      vertex 0 141.5 0.009999275
    endloop
  endfacet
  facet normal 0 1 0
    outer loop
      vertex 42.8 141.5 0.009999275
      vertex 2.1999998 141.5 2.999999
      vertex 42.8 141.5 2.999999
    endloop
  endfacet
  facet normal 0 1 0
    outer loop
      vertex 2.1999998 141.5 2.999999
      vertex 42.8 141.5 0.009999275
      vertex 2.1999998 141.5 0.009999275
    endloop
  endfacet
  facet normal -0.92387927 -0.38268402 0
    outer loop
      vertex 1.1999998 2 1.2999992
      vertex 1.1999998 2 1.2573465
      vertex 1.255222 1.8666822 1.2999992
    endloop
  endfacet
  facet normal -0.38268268 0.92387986 5.3669805e-7
    outer loop
      vertex 2.1999998 141.5 2.999999
      vertex 2.1999974 141.5 1.2999992
      vertex 1.4928932 141.2071 2.999999
    endloop
  endfacet
  facet normal 0 1 0
    outer loop
      vertex 2.1999974 141.5 1.2999992
      vertex 2.1999998 141.5 2.999999
      vertex 2.1999998 141.5 0.009999275
    endloop
  endfacet
  facet normal -0.38268378 0.9238794 0
    outer loop
      vertex 1.4928932 141.2071 2.999999
      vertex 2.1999974 141.5 1.2999992
      vertex 1.4928932 141.2071 1.2999992
    endloop
  endfacet
  facet normal 1 0 0
    outer loop
      vertex 43.8 2.674988 2.999999
      vertex 43.8 140.5 1.2999992
      vertex 43.8 140.5 2.999999
    endloop
  endfacet
  facet normal 1 0 0
    outer loop
      vertex 43.8 140.5 1.2999992
      vertex 43.8 2.674988 2.999999
      vertex 43.8 2.674988 1.2999992
    endloop
  endfacet
  facet normal 1 0 0
    outer loop
      vertex 43.8 2 1.1681815
      vertex 43.8 12.257221 1.0227269
      vertex 43.8 13.799999 1.1681815
    endloop
  endfacet
  facet normal 1 0 0
    outer loop
      vertex 43.8 12.257221 1.0227269
      vertex 43.8 2 1.1681815
      vertex 43.8 2 0.055667754
    endloop
  endfacet
  facet normal -0.92387956 0.3826833 0
    outer loop
      vertex 1.1999998 140.5 1.2999992
      vertex 1.4928932 141.2071 2.999999
      vertex 1.4928932 141.2071 1.2999992
    endloop
  endfacet
  facet normal -0.92387956 0.3826833 0
    outer loop
      vertex 1.4928932 141.2071 2.999999
      vertex 1.1999998 140.5 1.2999992
      vertex 1.1999998 140.5 2.999999
    endloop
  endfacet
  facet normal 0 0 -1
    outer loop
      vertex 21 20.392303 0
      vertex 17 30.784609 0
      vertex 22.5 21.25833 0
    endloop
  endfacet
  facet normal 0 0 -1
    outer loop
      vertex 17 30.784609 0
      vertex 21 20.392303 0
      vertex 15.5 29.918583 0
    endloop
  endfacet
  facet normal 0 0 -1
    outer loop
      vertex 21 41.176914 0
      vertex 17 51.569218 0
      vertex 22.5 42.04294 0
    endloop
  endfacet
  facet normal 0 0 -1
    outer loop
      vertex 17 51.569218 0
      vertex 21 41.176914 0
      vertex 15.5 50.703194 0
    endloop
  endfacet
  facet normal 0 0 -1
    outer loop
      vertex 21 61.961525 0
      vertex 17 72.35383 0
      vertex 22.5 62.82755 0
    endloop
  endfacet
  facet normal 0 0 -1
    outer loop
      vertex 17 72.35383 0
      vertex 21 61.961525 0
      vertex 15.5 71.4878 0
    endloop
  endfacet
  facet normal 0 0 -1
    outer loop
      vertex 21 82.74613 0
      vertex 18.811977 90 0
      vertex 22.5 83.61216 0
    endloop
  endfacet
  facet normal 0 0 -1
    outer loop
      vertex 15.499999 92.272415 0
      vertex 18.811977 90 0
      vertex 21 82.74613 0
    endloop
  endfacet
  facet normal 0 0 -1
    outer loop
      vertex 18.811977 90 0
      vertex 15.499999 92.272415 0
      vertex 17 93.138435 0
    endloop
  endfacet
  facet normal 0 0 -1
    outer loop
      vertex 21 103.53075 0
      vertex 17 113.92305 0
      vertex 22.5 104.39677 0
    endloop
  endfacet
  facet normal 0 0 -1
    outer loop
      vertex 17 113.92305 0
      vertex 21 103.53075 0
      vertex 15.499999 113.05702 0
    endloop
  endfacet
  facet normal 0 0 -1
    outer loop
      vertex 21 124.31535 0
      vertex 18.851942 131.5 0
      vertex 22.5 125.18138 0
    endloop
  endfacet
  facet normal 0 0 -1
    outer loop
      vertex 18.851942 131.5 0
      vertex 21 124.31535 0
      vertex 16.851942 131.5 0
    endloop
  endfacet
  facet normal 0 0 -1
    outer loop
      vertex 33.5 125.18138 0
      vertex 36 126.0474 0
      vertex 35 124.31535 0
    endloop
  endfacet
  facet normal 0 0 -1
    outer loop
      vertex 36 122.583305 0
      vertex 33.5 123.449326 0
      vertex 35 124.31535 0
    endloop
  endfacet
  facet normal 0 0 -1
    outer loop
      vertex 33.5 125.18138 0
      vertex 35 124.31535 0
      vertex 33.5 123.449326 0
    endloop
  endfacet
  facet normal 0 0 -1
    outer loop
      vertex 36 126.0474 0
      vertex 33.5 125.18138 0
      vertex 36 129.5115 0
    endloop
  endfacet
  facet normal 0 0 -1
    outer loop
      vertex 22.5 123.449326 0
      vertex 33.5 125.18138 0
      vertex 33.5 123.449326 0
    endloop
  endfacet
  facet normal 0 0 -1
    outer loop
      vertex 22.5 123.449326 0
      vertex 22.5 125.18138 0
      vertex 33.5 125.18138 0
    endloop
  endfacet
  facet normal 0 0 -1
    outer loop
      vertex 22.5 123.449326 0
      vertex 21 124.31535 0
      vertex 22.5 125.18138 0
    endloop
  endfacet
  facet normal 0 0 -1
    outer loop
      vertex 22.5 123.449326 0
      vertex 18.34357 119.71429 0
      vertex 21 124.31535 0
    endloop
  endfacet
  facet normal 0 0 -1
    outer loop
      vertex 17 113.92305 0
      vertex 18.34357 119.71429 0
      vertex 22.5 123.449326 0
    endloop
  endfacet
  facet normal 0 0 -1
    outer loop
      vertex 15.499999 114.78907 0
      vertex 17 113.92305 0
      vertex 15.499999 113.05702 0
    endloop
  endfacet
  facet normal 0 0 -1
    outer loop
      vertex 17 113.92305 0
      vertex 15.499999 114.78907 0
      vertex 18.34357 119.71429 0
    endloop
  endfacet
  facet normal 0 0 -1
    outer loop
      vertex 11 113.05702 0
      vertex 15.499999 114.78907 0
      vertex 15.499999 113.05702 0
    endloop
  endfacet
  facet normal 0 0 -1
    outer loop
      vertex 15.499999 114.78907 0
      vertex 11 113.05702 0
      vertex 11 114.78907 0
    endloop
  endfacet
  facet normal 0 0 -1
    outer loop
      vertex 34.95261 120.933334 0
      vertex 36 122.583305 0
      vertex 36 119.1192 0
    endloop
  endfacet
  facet normal 0 0 -1
    outer loop
      vertex 33.5 123.449326 0
      vertex 36 122.583305 0
      vertex 34.95261 120.933334 0
    endloop
  endfacet
  facet normal 0 0 -1
    outer loop
      vertex 33.5 104.39677 0
      vertex 36 105.262794 0
      vertex 35 103.53075 0
    endloop
  endfacet
  facet normal 0 0 -1
    outer loop
      vertex 33.5 104.39677 0
      vertex 35 103.53075 0
      vertex 33.5 102.66472 0
    endloop
  endfacet
  facet normal 0 0 -1
    outer loop
      vertex 36 105.262794 0
      vertex 33.5 104.39677 0
      vertex 36 108.7269 0
    endloop
  endfacet
  facet normal 0 0 -1
    outer loop
      vertex 22.5 102.66472 0
      vertex 33.5 104.39677 0
      vertex 33.5 102.66472 0
    endloop
  endfacet
  facet normal 0 0 -1
    outer loop
      vertex 22.5 102.66472 0
      vertex 22.5 104.39677 0
      vertex 33.5 104.39677 0
    endloop
  endfacet
  facet normal 0 0 -1
    outer loop
      vertex 22.5 102.66472 0
      vertex 21 103.53075 0
      vertex 22.5 104.39677 0
    endloop
  endfacet
  facet normal 0 0 -1
    outer loop
      vertex 22.5 102.66472 0
      vertex 17.806824 98 0
      vertex 21 103.53075 0
    endloop
  endfacet
  facet normal 0 0 -1
    outer loop
      vertex 17 93.138435 0
      vertex 17.806824 98 0
      vertex 22.5 102.66472 0
    endloop
  endfacet
  facet normal 0 0 -1
    outer loop
      vertex 15.499999 94.00446 0
      vertex 17 93.138435 0
      vertex 15.499999 92.272415 0
    endloop
  endfacet
  facet normal 0 0 -1
    outer loop
      vertex 17 93.138435 0
      vertex 15.499999 94.00446 0
      vertex 17.806824 98 0
    endloop
  endfacet
  facet normal 0 0 -1
    outer loop
      vertex 11 92.272415 0
      vertex 15.499999 94.00446 0
      vertex 15.499999 92.272415 0
    endloop
  endfacet
  facet normal 0 0 -1
    outer loop
      vertex 15.499999 94.00446 0
      vertex 11 92.272415 0
      vertex 11 94.00446 0
    endloop
  endfacet
  facet normal 0 0 -1
    outer loop
      vertex 33.5 102.66472 0
      vertex 36 101.79869 0
      vertex 36 98.33459 0
    endloop
  endfacet
  facet normal 0 0 -1
    outer loop
      vertex 36 101.79869 0
      vertex 33.5 102.66472 0
      vertex 35 103.53075 0
    endloop
  endfacet
  facet normal 0 0 -1
    outer loop
      vertex 33.5 83.61216 0
      vertex 36 84.47819 0
      vertex 35 82.74613 0
    endloop
  endfacet
  facet normal 0 0 -1
    outer loop
      vertex 33.5 83.61216 0
      vertex 35 82.74613 0
      vertex 33.5 81.88011 0
    endloop
  endfacet
  facet normal 0 0 -1
    outer loop
      vertex 36 84.47819 0
      vertex 33.5 83.61216 0
      vertex 36 87.94228 0
    endloop
  endfacet
  facet normal 0 0 -1
    outer loop
      vertex 22.5 81.88011 0
      vertex 33.5 83.61216 0
      vertex 33.5 81.88011 0
    endloop
  endfacet
  facet normal 0 0 -1
    outer loop
      vertex 22.5 81.88011 0
      vertex 22.5 83.61216 0
      vertex 33.5 83.61216 0
    endloop
  endfacet
  facet normal 0 0 -1
    outer loop
      vertex 22.5 81.88011 0
      vertex 21 82.74613 0
      vertex 22.5 83.61216 0
    endloop
  endfacet
  facet normal 0 0 -1
    outer loop
      vertex 17 72.35383 0
      vertex 21 82.74613 0
      vertex 22.5 81.88011 0
    endloop
  endfacet
  facet normal 0 0 -1
    outer loop
      vertex 15.5 73.21986 0
      vertex 17 72.35383 0
      vertex 15.5 71.4878 0
    endloop
  endfacet
  facet normal 0 0 -1
    outer loop
      vertex 17 72.35383 0
      vertex 15.5 73.21986 0
      vertex 21 82.74613 0
    endloop
  endfacet
  facet normal 0 0 -1
    outer loop
      vertex 11 71.4878 0
      vertex 15.5 73.21986 0
      vertex 15.5 71.4878 0
    endloop
  endfacet
  facet normal 0 0 -1
    outer loop
      vertex 15.5 73.21986 0
      vertex 11 71.4878 0
      vertex 11 73.21986 0
    endloop
  endfacet
  facet normal 0 0 -1
    outer loop
      vertex 33.5 81.88011 0
      vertex 36 81.014084 0
      vertex 36 77.54998 0
    endloop
  endfacet
  facet normal 0 0 -1
    outer loop
      vertex 36 81.014084 0
      vertex 33.5 81.88011 0
      vertex 35 82.74613 0
    endloop
  endfacet
  facet normal 0 0 -1
    outer loop
      vertex 33.5 62.82755 0
      vertex 36 63.693573 0
      vertex 35 61.961525 0
    endloop
  endfacet
  facet normal 0 0 -1
    outer loop
      vertex 33.5 62.82755 0
      vertex 35 61.961525 0
      vertex 33.5 61.095497 0
    endloop
  endfacet
  facet normal 0 0 -1
    outer loop
      vertex 36 63.693573 0
      vertex 33.5 62.82755 0
      vertex 36 67.15768 0
    endloop
  endfacet
  facet normal 0 0 -1
    outer loop
      vertex 22.5 61.095497 0
      vertex 33.5 62.82755 0
      vertex 33.5 61.095497 0
    endloop
  endfacet
  facet normal 0 0 -1
    outer loop
      vertex 22.5 61.095497 0
      vertex 22.5 62.82755 0
      vertex 33.5 62.82755 0
    endloop
  endfacet
  facet normal 0 0 -1
    outer loop
      vertex 22.5 61.095497 0
      vertex 21 61.961525 0
      vertex 22.5 62.82755 0
    endloop
  endfacet
  facet normal 0 0 -1
    outer loop
      vertex 17 51.569218 0
      vertex 21 61.961525 0
      vertex 22.5 61.095497 0
    endloop
  endfacet
  facet normal 0 0 -1
    outer loop
      vertex 15.5 52.435246 0
      vertex 17 51.569218 0
      vertex 15.5 50.703194 0
    endloop
  endfacet
  facet normal 0 0 -1
    outer loop
      vertex 17 51.569218 0
      vertex 15.5 52.435246 0
      vertex 21 61.961525 0
    endloop
  endfacet
  facet normal 0 0 -1
    outer loop
      vertex 11 50.703194 0
      vertex 15.5 52.435246 0
      vertex 15.5 50.703194 0
    endloop
  endfacet
  facet normal 0 0 -1
    outer loop
      vertex 15.5 52.435246 0
      vertex 11 50.703194 0
      vertex 11 52.435246 0
    endloop
  endfacet
  facet normal 0 0 -1
    outer loop
      vertex 33.5 61.095497 0
      vertex 36 60.229473 0
      vertex 36 56.76537 0
    endloop
  endfacet
  facet normal 0 0 -1
    outer loop
      vertex 36 60.229473 0
      vertex 33.5 61.095497 0
      vertex 35 61.961525 0
    endloop
  endfacet
  facet normal 0 0 -1
    outer loop
      vertex 33.5 42.04294 0
      vertex 36 42.908966 0
      vertex 35 41.176914 0
    endloop
  endfacet
  facet normal 0 0 -1
    outer loop
      vertex 33.5 42.04294 0
      vertex 35 41.176914 0
      vertex 33.5 40.31089 0
    endloop
  endfacet
  facet normal 0 0 -1
    outer loop
      vertex 36 42.908966 0
      vertex 33.5 42.04294 0
      vertex 36 46.373066 0
    endloop
  endfacet
  facet normal 0 0 -1
    outer loop
      vertex 22.5 40.31089 0
      vertex 33.5 42.04294 0
      vertex 33.5 40.31089 0
    endloop
  endfacet
  facet normal 0 0 -1
    outer loop
      vertex 22.5 40.31089 0
      vertex 22.5 42.04294 0
      vertex 33.5 42.04294 0
    endloop
  endfacet
  facet normal 0 0 -1
    outer loop
      vertex 22.5 40.31089 0
      vertex 21 41.176914 0
      vertex 22.5 42.04294 0
    endloop
  endfacet
  facet normal 0 0 -1
    outer loop
      vertex 17 30.784609 0
      vertex 21 41.176914 0
      vertex 22.5 40.31089 0
    endloop
  endfacet
  facet normal 0 0 -1
    outer loop
      vertex 15.5 31.650635 0
      vertex 17 30.784609 0
      vertex 15.5 29.918583 0
    endloop
  endfacet
  facet normal 0 0 -1
    outer loop
      vertex 17 30.784609 0
      vertex 15.5 31.650635 0
      vertex 21 41.176914 0
    endloop
  endfacet
  facet normal 0 0 -1
    outer loop
      vertex 11 29.918583 0
      vertex 15.5 31.650635 0
      vertex 15.5 29.918583 0
    endloop
  endfacet
  facet normal 0 0 -1
    outer loop
      vertex 15.5 31.650635 0
      vertex 11 29.918583 0
      vertex 11 31.650635 0
    endloop
  endfacet
  facet normal 0 0 -1
    outer loop
      vertex 33.5 40.31089 0
      vertex 36 39.444862 0
      vertex 36 35.980762 0
    endloop
  endfacet
  facet normal 0 0 -1
    outer loop
      vertex 36 39.444862 0
      vertex 33.5 40.31089 0
      vertex 35 41.176914 0
    endloop
  endfacet
  facet normal 0 0 -1
    outer loop
      vertex 33.5 21.25833 0
      vertex 36 22.124355 0
      vertex 35 20.392303 0
    endloop
  endfacet
  facet normal 0 0 -1
    outer loop
      vertex 33.5 21.25833 0
      vertex 35 20.392303 0
      vertex 33.5 19.52628 0
    endloop
  endfacet
  facet normal 0 0 -1
    outer loop
      vertex 36 22.124355 0
      vertex 33.5 21.25833 0
      vertex 36 25.588457 0
    endloop
  endfacet
  facet normal 0 0 -1
    outer loop
      vertex 22.5 19.52628 0
      vertex 33.5 21.25833 0
      vertex 33.5 19.52628 0
    endloop
  endfacet
  facet normal 0 0 -1
    outer loop
      vertex 22.5 19.52628 0
      vertex 22.5 21.25833 0
      vertex 33.5 21.25833 0
    endloop
  endfacet
  facet normal 0 0 -1
    outer loop
      vertex 22.5 19.52628 0
      vertex 21 20.392303 0
      vertex 22.5 21.25833 0
    endloop
  endfacet
  facet normal 0 0 -1
    outer loop
      vertex 17.57735 11 0
      vertex 21 20.392303 0
      vertex 22.5 19.52628 0
    endloop
  endfacet
  facet normal 0 0 -1
    outer loop
      vertex 21 20.392303 0
      vertex 17.57735 11 0
      vertex 15.577351 11 0
    endloop
  endfacet
  facet normal 0 0 -1
    outer loop
      vertex 33.5 19.52628 0
      vertex 36 18.660254 0
      vertex 36 15.196152 0
    endloop
  endfacet
  facet normal 0 0 -1
    outer loop
      vertex 36 18.660254 0
      vertex 33.5 19.52628 0
      vertex 35 20.392303 0
    endloop
  endfacet
  facet normal 0 0 -1
    outer loop
      vertex 43.667107 0 0
      vertex 17.57735 11 0
      vertex 36 11 0
    endloop
  endfacet
  facet normal 0 0 -1
    outer loop
      vertex 0.97666645 0 0
      vertex 17.57735 11 0
      vertex 43.667107 0 0
    endloop
  endfacet
  facet normal 0 0 -1
    outer loop
      vertex 17.57735 11 0
      vertex 0.97666645 0 0
      vertex 15.577351 11 0
    endloop
  endfacet
  facet normal 0 0 -1
    outer loop
      vertex 0 14.65001 0
      vertex 11 29.918583 0
      vertex 11 11 0
    endloop
  endfacet
  facet normal 0 0 -1
    outer loop
      vertex 11 29.918583 0
      vertex 0 14.65001 0
      vertex 11 31.650635 0
    endloop
  endfacet
  facet normal 0 0 -1
    outer loop
      vertex 11 31.650635 0
      vertex 0 14.65001 0
      vertex 11 50.703194 0
    endloop
  endfacet
  facet normal 0 0 -1
    outer loop
      vertex 11 50.703194 0
      vertex 0 14.65001 0
      vertex 11 52.435246 0
    endloop
  endfacet
  facet normal 0 0 -1
    outer loop
      vertex 11 52.435246 0
      vertex 0 14.65001 0
      vertex 11 71.4878 0
    endloop
  endfacet
  facet normal 0 0 -1
    outer loop
      vertex 11 71.4878 0
      vertex 0 14.65001 0
      vertex 11 73.21986 0
    endloop
  endfacet
  facet normal 0 0 -1
    outer loop
      vertex 0 141.5 0
      vertex 11 73.21986 0
      vertex 0 14.65001 0
    endloop
  endfacet
  facet normal 0 0 -1
    outer loop
      vertex 11 73.21986 0
      vertex 0 141.5 0
      vertex 11 92.272415 0
    endloop
  endfacet
  facet normal 0 0 -1
    outer loop
      vertex 11 92.272415 0
      vertex 0 141.5 0
      vertex 11 94.00446 0
    endloop
  endfacet
  facet normal 0 0 -1
    outer loop
      vertex 11 94.00446 0
      vertex 0 141.5 0
      vertex 11 113.05702 0
    endloop
  endfacet
  facet normal 0 0 -1
    outer loop
      vertex 0 14.65001 0
      vertex 11 11 0
      vertex 0.97666645 0 0
    endloop
  endfacet
  facet normal 0 0 -1
    outer loop
      vertex 15.577351 11 0
      vertex 0.97666645 0 0
      vertex 11 11 0
    endloop
  endfacet
  facet normal 0 0 -1
    outer loop
      vertex 36 11 0
      vertex 44.6 11.527275 0
      vertex 44.228436 5.953795 0
    endloop
  endfacet
  facet normal 0 0 -1
    outer loop
      vertex 36 11 0
      vertex 44.228436 5.953795 0
      vertex 43.667107 0 0
    endloop
  endfacet
  facet normal 0 0 -1
    outer loop
      vertex 44.6 11.527275 0
      vertex 36 11 0
      vertex 36 15.196152 0
    endloop
  endfacet
  facet normal 0 0 -1
    outer loop
      vertex 44.6 11.527275 0
      vertex 36 15.196152 0
      vertex 36 18.660254 0
    endloop
  endfacet
  facet normal 0 0 -1
    outer loop
      vertex 44.6 11.527275 0
      vertex 36 18.660254 0
      vertex 36 22.124355 0
    endloop
  endfacet
  facet normal 0 0 -1
    outer loop
      vertex 44.6 11.527275 0
      vertex 36 22.124355 0
      vertex 36 25.588457 0
    endloop
  endfacet
  facet normal 0 0 -1
    outer loop
      vertex 44.6 11.527275 0
      vertex 36 25.588457 0
      vertex 36 35.980762 0
    endloop
  endfacet
  facet normal 0 0 -1
    outer loop
      vertex 44.6 11.527275 0
      vertex 36 35.980762 0
      vertex 36 39.444862 0
    endloop
  endfacet
  facet normal 0 0 -1
    outer loop
      vertex 44.6 11.527275 0
      vertex 36 39.444862 0
      vertex 36 42.908966 0
    endloop
  endfacet
  facet normal 0 0 -1
    outer loop
      vertex 44.6 11.527275 0
      vertex 36 42.908966 0
      vertex 36 46.373066 0
    endloop
  endfacet
  facet normal 0 0 -1
    outer loop
      vertex 44.6 11.527275 0
      vertex 36 46.373066 0
      vertex 36 56.76537 0
    endloop
  endfacet
  facet normal 0 0 -1
    outer loop
      vertex 44.6 11.527275 0
      vertex 36 56.76537 0
      vertex 36 60.229473 0
    endloop
  endfacet
  facet normal 0 0 -1
    outer loop
      vertex 44.6 11.527275 0
      vertex 36 60.229473 0
      vertex 36 63.693573 0
    endloop
  endfacet
  facet normal 0 0 -1
    outer loop
      vertex 44.6 11.527275 0
      vertex 36 63.693573 0
      vertex 36 67.15768 0
    endloop
  endfacet
  facet normal 0 0 -1
    outer loop
      vertex 36 77.54998 0
      vertex 44.6 11.527275 0
      vertex 36 67.15768 0
    endloop
  endfacet
  facet normal 0 0 -1
    outer loop
      vertex 44.6 11.527275 0
      vertex 36 77.54998 0
      vertex 44.6 141.5 0
    endloop
  endfacet
  facet normal 0 0 -1
    outer loop
      vertex 36 81.014084 0
      vertex 44.6 141.5 0
      vertex 36 77.54998 0
    endloop
  endfacet
  facet normal 0 0 -1
    outer loop
      vertex 36 84.47819 0
      vertex 44.6 141.5 0
      vertex 36 81.014084 0
    endloop
  endfacet
  facet normal 0 0 -1
    outer loop
      vertex 36 87.94228 0
      vertex 44.6 141.5 0
      vertex 36 84.47819 0
    endloop
  endfacet
  facet normal 0 0 -1
    outer loop
      vertex 36 98.33459 0
      vertex 44.6 141.5 0
      vertex 36 87.94228 0
    endloop
  endfacet
  facet normal 0 0 -1
    outer loop
      vertex 36 101.79869 0
      vertex 44.6 141.5 0
      vertex 36 98.33459 0
    endloop
  endfacet
  facet normal 0 0 -1
    outer loop
      vertex 36 105.262794 0
      vertex 44.6 141.5 0
      vertex 36 101.79869 0
    endloop
  endfacet
  facet normal 0 0 -1
    outer loop
      vertex 36 108.7269 0
      vertex 44.6 141.5 0
      vertex 36 105.262794 0
    endloop
  endfacet
  facet normal 0 0 -1
    outer loop
      vertex 36 119.1192 0
      vertex 44.6 141.5 0
      vertex 36 108.7269 0
    endloop
  endfacet
  facet normal 0 0 -1
    outer loop
      vertex 36 122.583305 0
      vertex 44.6 141.5 0
      vertex 36 119.1192 0
    endloop
  endfacet
  facet normal 0 0 -1
    outer loop
      vertex 36 126.0474 0
      vertex 44.6 141.5 0
      vertex 36 122.583305 0
    endloop
  endfacet
  facet normal 0 0 -1
    outer loop
      vertex 36 129.5115 0
      vertex 44.6 141.5 0
      vertex 36 126.0474 0
    endloop
  endfacet
  facet normal 0 0 -1
    outer loop
      vertex 36 131.5 0
      vertex 44.6 141.5 0
      vertex 36 129.5115 0
    endloop
  endfacet
  facet normal 0 0 -1
    outer loop
      vertex 18.851942 131.5 0
      vertex 44.6 141.5 0
      vertex 36 131.5 0
    endloop
  endfacet
  facet normal 0 0 -1
    outer loop
      vertex 0 141.5 0
      vertex 18.851942 131.5 0
      vertex 16.851942 131.5 0
    endloop
  endfacet
  facet normal 0 0 -1
    outer loop
      vertex 0 141.5 0
      vertex 16.851942 131.5 0
      vertex 11 131.5 0
    endloop
  endfacet
  facet normal 0 0 -1
    outer loop
      vertex 11 113.05702 0
      vertex 0 141.5 0
      vertex 11 114.78907 0
    endloop
  endfacet
  facet normal 0 0 -1
    outer loop
      vertex 18.851942 131.5 0
      vertex 0 141.5 0
      vertex 44.6 141.5 0
    endloop
  endfacet
  facet normal 0 0 -1
    outer loop
      vertex 11 114.78907 0
      vertex 0 141.5 0
      vertex 11 131.5 0
    endloop
  endfacet
  facet normal -0.9985808 -0.05325765 0
    outer loop
      vertex 1.5755374 1.258661 1.2999992
      vertex 1.1999998 8.299991 2.999999
      vertex 1.1999998 8.299991 1.2999992
    endloop
  endfacet
  facet normal -0.9985808 -0.05325765 0
    outer loop
      vertex 1.1999998 8.299991 2.999999
      vertex 1.5755374 1.258661 1.2999992
      vertex 1.5755374 1.258661 2.999999
    endloop
  endfacet
  facet normal 0 0 1
    outer loop
      vertex 1.255222 1.8666822 1.2999992
      vertex 1.1999998 2.4524014 1.2999992
      vertex 1.1999998 2 1.2999992
    endloop
  endfacet
  facet normal 0 0 1
    outer loop
      vertex 0.33333302 11.644799 1.2999992
      vertex 1.1999998 8.299991 1.2999992
      vertex 1.1999998 140.5 1.2999992
    endloop
  endfacet
  facet normal 0 0 1
    outer loop
      vertex 0.33333302 141.5 1.2999992
      vertex 1.4928932 141.2071 1.2999992
      vertex 2.1999974 141.5 1.2999992
    endloop
  endfacet
  facet normal 0 0 1
    outer loop
      vertex 0.33333302 141.5 1.2999992
      vertex 1.1999998 140.5 1.2999992
      vertex 1.4928932 141.2071 1.2999992
    endloop
  endfacet
  facet normal 0 0 1
    outer loop
      vertex 0.33333302 11.644799 1.2999992
      vertex 1.1999998 140.5 1.2999992
      vertex 0.33333302 141.5 1.2999992
    endloop
  endfacet
  facet normal 0 0 1
    outer loop
      vertex 1.1999998 8.299991 1.2999992
      vertex 0.33333302 11.644799 1.2999992
      vertex 1.1999998 2.4524014 1.2999992
    endloop
  endfacet
  facet normal 0 0 1
    outer loop
      vertex 2.1999998 1 1.2999992
      vertex 42.398533 0.33333302 1.2999992
      vertex 42.461388 1 1.2999992
    endloop
  endfacet
  facet normal 0 0 1
    outer loop
      vertex 2.1999998 1 1.2999992
      vertex 1.3997873 0.33333302 1.2999992
      vertex 42.398533 0.33333302 1.2999992
    endloop
  endfacet
  facet normal 0 0 1
    outer loop
      vertex 1.5755374 1.258661 1.2999992
      vertex 1.3997873 0.33333302 1.2999992
      vertex 2.1999998 1 1.2999992
    endloop
  endfacet
  facet normal 0 0 1
    outer loop
      vertex 1.5755374 1.258661 1.2999992
      vertex 1.255222 1.8666822 1.2999992
      vertex 1.3997873 0.33333302 1.2999992
    endloop
  endfacet
  facet normal 0 0 1
    outer loop
      vertex 1.1999998 2.4524014 1.2999992
      vertex 1.5755374 1.258661 1.2999992
      vertex 1.1999998 8.299991 1.2999992
    endloop
  endfacet
  facet normal 0 0 1
    outer loop
      vertex 1.5755374 1.258661 1.2999992
      vertex 1.1999998 2.4524014 1.2999992
      vertex 1.255222 1.8666822 1.2999992
    endloop
  endfacet
  facet normal 0 0 1
    outer loop
      vertex 43.8 140.5 1.2999992
      vertex 44.266666 6.5272803 1.2999992
      vertex 44.266666 141.5 1.2999992
    endloop
  endfacet
  facet normal 0 0 1
    outer loop
      vertex 44.266666 6.5272803 1.2999992
      vertex 43.8 140.5 1.2999992
      vertex 43.8 2.674988 1.2999992
    endloop
  endfacet
  facet normal 0 0 1
    outer loop
      vertex 44.266666 141.5 1.2999992
      vertex 43.507107 141.2071 1.2999992
      vertex 43.8 140.5 1.2999992
    endloop
  endfacet
  facet normal 0 0 1
    outer loop
      vertex 43.507107 141.2071 1.2999992
      vertex 44.266666 141.5 1.2999992
      vertex 42.800003 141.5 1.2999992
    endloop
  endfacet
  facet normal 0 0 1
    outer loop
      vertex 44.266666 6.5272803 1.2999992
      vertex 43.8 2.674988 1.2999992
      vertex 43.853737 0.33333302 1.2999992
    endloop
  endfacet
  facet normal 0 0 1
    outer loop
      vertex 43.75868 1.9002458 1.2999992
      vertex 43.853737 0.33333302 1.2999992
      vertex 43.8 2.674988 1.2999992
    endloop
  endfacet
  facet normal 0 0 1
    outer loop
      vertex 43.668182 1.6817642 1.2999992
      vertex 43.853737 0.33333302 1.2999992
      vertex 43.75868 1.9002458 1.2999992
    endloop
  endfacet
  facet normal 0 0 1
    outer loop
      vertex 43.853737 0.33333302 1.2999992
      vertex 43.668182 1.6817642 1.2999992
      vertex 43.668182 0.33333302 1.2999992
    endloop
  endfacet
  facet normal 0.9985807 -0.053259205 0
    outer loop
      vertex 43.75868 1.9002458 2.999999
      vertex 43.8 2.674988 1.2999992
      vertex 43.8 2.674988 2.999999
    endloop
  endfacet
  facet normal 0.9985807 -0.053259205 0
    outer loop
      vertex 43.8 2.674988 1.2999992
      vertex 43.75868 1.9002458 2.999999
      vertex 43.75868 1.9002458 1.2999992
    endloop
  endfacet
  facet normal 0 1 0
    outer loop
      vertex 0 141.5 0.009999275
      vertex 0 141.5 0.9666662
      vertex 0.33333302 141.5 1.2999992
    endloop
  endfacet
  facet normal -0.70710677 0 0.70710677
    outer loop
      vertex 0 14.65001 0.9666662
      vertex 0.33333302 141.5 1.2999992
      vertex 0 141.5 0.9666662
    endloop
  endfacet
  facet normal -0.7071069 -1.757653e-8 0.7071067
    outer loop
      vertex 0.33333302 11.644799 1.2999992
      vertex 0 14.65001 0.9666662
      vertex 0.20034721 11.644799 1.1670134
    endloop
  endfacet
  facet normal -0.70710677 0 0.70710677
    outer loop
      vertex 0 14.65001 0.9666662
      vertex 0.33333302 11.644799 1.2999992
      vertex 0.33333302 141.5 1.2999992
    endloop
  endfacet
  facet normal 0 1 0
    outer loop
      vertex 44.6 141.5 0.009999275
      vertex 44.266666 141.5 1.2999992
      vertex 44.6 141.5 0.9666662
    endloop
  endfacet
  facet normal 0 0 0
    outer loop
      vertex 0 141.5 0
      vertex 0 141.5 0.9666662
      vertex 0 141.5 0.009999275
    endloop
  endfacet
  facet normal -1 0 0
    outer loop
      vertex 0 14.65001 0
      vertex 0 141.5 0.9666662
      vertex 0 141.5 0
    endloop
  endfacet
  facet normal -1 0 0
    outer loop
      vertex 0 141.5 0.9666662
      vertex 0 14.65001 0
      vertex 0 14.65001 0.9666662
    endloop
  endfacet
  facet normal 0 -0.70710677 0.70710677
    outer loop
      vertex 1.0978812 0 0.9666662
      vertex 42.398533 0.33333302 1.2999992
      vertex 1.3997873 0.33333302 1.2999992
    endloop
  endfacet
  facet normal 0 -0.70710677 0.70710677
    outer loop
      vertex 42.398533 0.33333302 1.2999992
      vertex 1.0978812 0 0.9666662
      vertex 42.70044 0 0.9666662
    endloop
  endfacet
  facet normal 0 -0.7071067 0.7071068
    outer loop
      vertex 43.853737 0.33333302 1.2999992
      vertex 43.668182 0.33333302 1.2999992
      vertex 43.84214 0.15937516 1.1260414
    endloop
  endfacet
  facet normal 0 -1 0
    outer loop
      vertex 0.97666645 0 0
      vertex 1.0978812 0 0.9666662
      vertex 0.97666645 0 0.8454515
    endloop
  endfacet
  facet normal 0 -1 0
    outer loop
      vertex 1.0978812 0 0.9666662
      vertex 0.97666645 0 0
      vertex 42.70044 0 0.9666662
    endloop
  endfacet
  facet normal 0 -1 0
    outer loop
      vertex 42.70044 0 0.9666662
      vertex 0.97666645 0 0
      vertex 43.667107 0 0
    endloop
  endfacet
  facet normal 0.7071078 0 0.70710576
    outer loop
      vertex 44.266666 141.5 1.2999992
      vertex 44.6 11.527275 0.9666662
      vertex 44.6 141.5 0.9666662
    endloop
  endfacet
  facet normal 0.7071078 0 0.70710576
    outer loop
      vertex 44.6 11.527275 0.9666662
      vertex 44.266666 141.5 1.2999992
      vertex 44.266666 6.5272803 1.2999992
    endloop
  endfacet
  facet normal 0 1 0
    outer loop
      vertex 2.1999998 141.5 0.009999275
      vertex 0.33333302 141.5 1.2999992
      vertex 2.1999974 141.5 1.2999992
    endloop
  endfacet
  facet normal 0 1 0
    outer loop
      vertex 0.33333302 141.5 1.2999992
      vertex 2.1999998 141.5 0.009999275
      vertex 0 141.5 0.009999275
    endloop
  endfacet
  facet normal 0 1 0
    outer loop
      vertex 42.8 141.5 0.009999275
      vertex 44.266666 141.5 1.2999992
      vertex 44.6 141.5 0.009999275
    endloop
  endfacet
  facet normal 0 1 0
    outer loop
      vertex 44.266666 141.5 1.2999992
      vertex 42.8 141.5 0.009999275
      vertex 42.800003 141.5 1.2999992
    endloop
  endfacet
  facet normal 0 0 0
    outer loop
      vertex 44.6 141.5 0.9666662
      vertex 44.6 141.5 0
      vertex 44.6 141.5 0.009999275
    endloop
  endfacet
  facet normal 1 0 0
    outer loop
      vertex 44.6 141.5 0.9666662
      vertex 44.6 13.799999 0.36818126
      vertex 44.6 141.5 0
    endloop
  endfacet
  facet normal 1 0 0
    outer loop
      vertex 44.6 11.527275 0.9666662
      vertex 44.6 13.799999 0.36818126
      vertex 44.6 141.5 0.9666662
    endloop
  endfacet
  facet normal 1 0 0
    outer loop
      vertex 44.6 13.799999 0.36818126
      vertex 44.6 11.527275 0.9666662
      vertex 44.6 11.527275 0.36818126
    endloop
  endfacet
  facet normal 1 0 0
    outer loop
      vertex 44.6 11.527275 0
      vertex 44.6 13.799999 0.36818126
      vertex 44.6 13.469404 0.33701244
    endloop
  endfacet
  facet normal 1 0 0
    outer loop
      vertex 44.6 11.527275 0
      vertex 44.6 13.469404 0.33701244
      vertex 44.6 11.527275 0.15390694
    endloop
  endfacet
  facet normal 1 0 0
    outer loop
      vertex 44.6 13.799999 0.36818126
      vertex 44.6 11.527275 0
      vertex 44.6 141.5 0
    endloop
  endfacet
  facet normal -0.7055407 -0.066518955 0.7055406
    outer loop
      vertex 0.20034721 11.644799 1.1670134
      vertex 1.1999998 2.4524014 1.2999992
      vertex 0.33333302 11.644799 1.2999992
    endloop
  endfacet
  facet normal -0.70554066 -0.06651895 0.70554066
    outer loop
      vertex 0.97666645 0 0.8454515
      vertex 1.1999998 2.4524014 1.2999992
      vertex 0.20034721 11.644799 1.1670134
    endloop
  endfacet
  facet normal -0.70554006 -0.06651914 0.7055412
    outer loop
      vertex 0.97666645 0 0.8454515
      vertex 1.255222 1.8666822 1.2999992
      vertex 1.1999998 2 1.2573465
    endloop
  endfacet
  facet normal -0.7055411 -0.066518836 0.70554024
    outer loop
      vertex 1.1999998 2.4524014 1.2999992
      vertex 0.97666645 0 0.8454515
      vertex 1.1999998 2 1.2573465
    endloop
  endfacet
  facet normal -0.70554066 -0.06651892 0.70554066
    outer loop
      vertex 1.255222 1.8666822 1.2999992
      vertex 0.97666645 0 0.8454515
      vertex 1.3997873 0.33333302 1.2999992
    endloop
  endfacet
  facet normal -0.70554066 -0.06651895 0.70554066
    outer loop
      vertex 1.3997873 0.33333302 1.2999992
      vertex 0.97666645 0 0.8454515
      vertex 1.0978812 0 0.9666662
    endloop
  endfacet
  facet normal -0.70710725 0 -0.7071063
    outer loop
      vertex 44.6 11.527275 0.36818126
      vertex 43.8 13.799999 1.1681815
      vertex 44.6 13.799999 0.36818126
    endloop
  endfacet
  facet normal -0.70710725 0 -0.7071063
    outer loop
      vertex 44.6 11.527275 0.36818126
      vertex 43.8 2 1.1681815
      vertex 43.8 13.799999 1.1681815
    endloop
  endfacet
  facet normal -0.70710856 -4.0089878e-7 -0.70710504
    outer loop
      vertex 43.84214 0.15937516 1.1260414
      vertex 43.668182 1.6817642 1.2999992
      vertex 43.8 2 1.1681815
    endloop
  endfacet
  facet normal -0.70710564 -2.6847943e-7 -0.7071079
    outer loop
      vertex 43.84214 0.15937516 1.1260414
      vertex 43.8 2 1.1681815
      vertex 44.6 11.527275 0.36818126
    endloop
  endfacet
  facet normal -0.70710677 0 -0.70710677
    outer loop
      vertex 43.668182 1.6817642 1.2999992
      vertex 43.84214 0.15937516 1.1260414
      vertex 43.668182 0.33333302 1.2999992
    endloop
  endfacet
  facet normal 0.70554113 -0.066519015 0.7055402
    outer loop
      vertex 43.8 13.799999 1.1681815
      vertex 44.6 13.469404 0.33701244
      vertex 44.6 13.799999 0.36818126
    endloop
  endfacet
  facet normal 0.70554113 -0.06651903 0.7055402
    outer loop
      vertex 44.6 13.469404 0.33701244
      vertex 43.8 13.799999 1.1681815
      vertex 43.8 12.257221 1.0227269
    endloop
  endfacet
  facet normal 0.705541 -0.06651891 0.7055403
    outer loop
      vertex 43.8 12.257221 1.0227269
      vertex 44.6 11.527275 0.15390694
      vertex 44.6 13.469404 0.33701244
    endloop
  endfacet
  facet normal 0.70554113 -0.06651867 0.7055402
    outer loop
      vertex 44.6 11.527275 0.15390694
      vertex 43.8 12.257221 1.0227269
      vertex 44.228436 5.953795 0
    endloop
  endfacet
  facet normal 0.7055394 -0.06651907 0.7055419
    outer loop
      vertex 43.8 2 0.055667754
      vertex 44.228436 5.953795 0
      vertex 43.8 12.257221 1.0227269
    endloop
  endfacet
  facet normal 0.70553213 -0.06651817 0.70554924
    outer loop
      vertex 43.8 2 0.055667754
      vertex 43.667107 0 0
      vertex 44.228436 5.953795 0
    endloop
  endfacet
  facet normal 0.7055413 -0.06651853 0.70554
    outer loop
      vertex 43.507107 1.2928934 0.28189453
      vertex 43.667107 0 0
      vertex 43.8 2 0.055667754
    endloop
  endfacet
  facet normal 0.7055401 -0.066518925 0.70554113
    outer loop
      vertex 42.8 1 0.96138686
      vertex 43.667107 0 0
      vertex 43.507107 1.2928934 0.28189453
    endloop
  endfacet
  facet normal 0.7055403 -0.066518635 0.705541
    outer loop
      vertex 42.8 1 0.96138686
      vertex 42.70044 0 0.9666662
      vertex 43.667107 0 0
    endloop
  endfacet
  facet normal 0.70554143 -0.06651993 0.7055398
    outer loop
      vertex 42.398533 0.33333302 1.2999992
      vertex 42.8 1 0.96138686
      vertex 42.461388 1 1.2999992
    endloop
  endfacet
  facet normal 0.7055403 -0.066518635 0.705541
    outer loop
      vertex 42.8 1 0.96138686
      vertex 42.398533 0.33333302 1.2999992
      vertex 42.70044 0 0.9666662
    endloop
  endfacet
  facet normal -0.99778515 -0.066518955 0
    outer loop
      vertex 0 14.65001 0
      vertex 0.20034721 11.644799 1.1670134
      vertex 0 14.65001 0.9666662
    endloop
  endfacet
  facet normal -0.99778515 -0.06651895 4.926099e-9
    outer loop
      vertex 0.97666645 0 0
      vertex 0.20034721 11.644799 1.1670134
      vertex 0 14.65001 0
    endloop
  endfacet
  facet normal -0.99778515 -0.06651895 0
    outer loop
      vertex 0.20034721 11.644799 1.1670134
      vertex 0.97666645 0 0
      vertex 0.97666645 0 0.8454515
    endloop
  endfacet
  facet normal 0.9977852 -0.06651858 0
    outer loop
      vertex 44.6 11.527275 0
      vertex 44.6 11.527275 0.15390694
      vertex 44.228436 5.953795 0
    endloop
  endfacet
  facet normal 0.99778515 -0.06651883 0
    outer loop
      vertex 44.266666 6.5272803 1.2999992
      vertex 44.6 11.527275 0.36818126
      vertex 44.6 11.527275 0.9666662
    endloop
  endfacet
  facet normal 0.99778515 -0.06651896 0.00000288268
    outer loop
      vertex 43.84214 0.15937516 1.1260414
      vertex 44.266666 6.5272803 1.2999992
      vertex 43.853737 0.33333302 1.2999992
    endloop
  endfacet
  facet normal 0.99778515 -0.06651888 -2.7672826e-7
    outer loop
      vertex 44.266666 6.5272803 1.2999992
      vertex 43.84214 0.15937516 1.1260414
      vertex 44.6 11.527275 0.36818126
    endloop
  endfacet
  facet normal 1 0 0
    outer loop
      vertex 37 10 3
      vertex 37 132.5 2.999999
      vertex 37 132.5 3
    endloop
  endfacet
  facet normal 1 0 0
    outer loop
      vertex 37 132.5 2.999999
      vertex 37 10 3
      vertex 37 10 2.999999
    endloop
  endfacet
  facet normal -1 0 0
    outer loop
      vertex 10 10 2.999999
      vertex 10 132.5 3
      vertex 10 132.5 2.999999
    endloop
  endfacet
  facet normal -1 0 0
    outer loop
      vertex 10 132.5 3
      vertex 10 10 2.999999
      vertex 10 10 3
    endloop
  endfacet
  facet normal 0 1 0
    outer loop
      vertex 37 132.5 2.999999
      vertex 10 132.5 3
      vertex 37 132.5 3
    endloop
  endfacet
  facet normal 0 1 0
    outer loop
      vertex 10 132.5 3
      vertex 37 132.5 2.999999
      vertex 10 132.5 2.999999
    endloop
  endfacet
  facet normal 0 -1 0
    outer loop
      vertex 10 10 2.999999
      vertex 37 10 3
      vertex 10 10 3
    endloop
  endfacet
  facet normal 0 -1 0
    outer loop
      vertex 37 10 3
      vertex 10 10 2.999999
      vertex 37 10 2.999999
    endloop
  endfacet
  facet normal -1 0 0
    outer loop
      vertex 36 129.5115 0
      vertex 36 131.5 3
      vertex 36 131.5 0
    endloop
  endfacet
  facet normal -1 0 0
    outer loop
      vertex 36 131.5 3
      vertex 36 129.5115 0
      vertex 36 129.5115 3
    endloop
  endfacet
  facet normal -1 0 0
    outer loop
      vertex 36 11 0
      vertex 36 15.196152 3
      vertex 36 15.196152 0
    endloop
  endfacet
  facet normal -1 0 0
    outer loop
      vertex 36 15.196152 3
      vertex 36 11 0
      vertex 36 11 3
    endloop
  endfacet
  facet normal -1 0 0
    outer loop
      vertex 36 108.7269 0
      vertex 36 119.1192 3
      vertex 36 119.1192 0
    endloop
  endfacet
  facet normal -1 0 0
    outer loop
      vertex 36 119.1192 3
      vertex 36 108.7269 0
      vertex 36 108.7269 3
    endloop
  endfacet
  facet normal -1 0 0
    outer loop
      vertex 36 87.94228 0
      vertex 36 98.33459 3
      vertex 36 98.33459 0
    endloop
  endfacet
  facet normal -1 0 0
    outer loop
      vertex 36 98.33459 3
      vertex 36 87.94228 0
      vertex 36 87.94228 3
    endloop
  endfacet
  facet normal -1 0 0
    outer loop
      vertex 36 67.15768 0
      vertex 36 77.54998 3
      vertex 36 77.54998 0
    endloop
  endfacet
  facet normal -1 0 0
    outer loop
      vertex 36 77.54998 3
      vertex 36 67.15768 0
      vertex 36 67.15768 3
    endloop
  endfacet
  facet normal -1 0 0
    outer loop
      vertex 36 46.373066 0
      vertex 36 56.76537 3
      vertex 36 56.76537 0
    endloop
  endfacet
  facet normal -1 0 0
    outer loop
      vertex 36 56.76537 3
      vertex 36 46.373066 0
      vertex 36 46.373066 3
    endloop
  endfacet
  facet normal -1 0 0
    outer loop
      vertex 36 25.588457 0
      vertex 36 35.980762 3
      vertex 36 35.980762 0
    endloop
  endfacet
  facet normal -1 0 0
    outer loop
      vertex 36 35.980762 3
      vertex 36 25.588457 0
      vertex 36 25.588457 3
    endloop
  endfacet
  facet normal -1 0 0
    outer loop
      vertex 36 101.79869 0
      vertex 36 105.262794 3
      vertex 36 105.262794 0
    endloop
  endfacet
  facet normal -1 0 0
    outer loop
      vertex 36 105.262794 3
      vertex 36 101.79869 0
      vertex 36 101.79869 3
    endloop
  endfacet
  facet normal -1 0 0
    outer loop
      vertex 36 122.583305 0
      vertex 36 126.0474 3
      vertex 36 126.0474 0
    endloop
  endfacet
  facet normal -1 0 0
    outer loop
      vertex 36 126.0474 3
      vertex 36 122.583305 0
      vertex 36 122.583305 3
    endloop
  endfacet
  facet normal -1 0 0
    outer loop
      vertex 36 81.014084 0
      vertex 36 84.47819 3
      vertex 36 84.47819 0
    endloop
  endfacet
  facet normal -1 0 0
    outer loop
      vertex 36 84.47819 3
      vertex 36 81.014084 0
      vertex 36 81.014084 3
    endloop
  endfacet
  facet normal -1 0 0
    outer loop
      vertex 36 60.229473 0
      vertex 36 63.693573 3
      vertex 36 63.693573 0
    endloop
  endfacet
  facet normal -1 0 0
    outer loop
      vertex 36 63.693573 3
      vertex 36 60.229473 0
      vertex 36 60.229473 3
    endloop
  endfacet
  facet normal -1 0 0
    outer loop
      vertex 36 39.444862 0
      vertex 36 42.908966 3
      vertex 36 42.908966 0
    endloop
  endfacet
  facet normal -1 0 0
    outer loop
      vertex 36 42.908966 3
      vertex 36 39.444862 0
      vertex 36 39.444862 3
    endloop
  endfacet
  facet normal -1 0 0
    outer loop
      vertex 36 18.660254 0
      vertex 36 22.124355 3
      vertex 36 22.124355 0
    endloop
  endfacet
  facet normal -1 0 0
    outer loop
      vertex 36 22.124355 3
      vertex 36 18.660254 0
      vertex 36 18.660254 3
    endloop
  endfacet
  facet normal 1 0 0
    outer loop
      vertex 11 114.78907 3
      vertex 11 131.5 0
      vertex 11 131.5 3
    endloop
  endfacet
  facet normal 1 0 0
    outer loop
      vertex 11 131.5 0
      vertex 11 114.78907 3
      vertex 11 114.78907 0
    endloop
  endfacet
  facet normal 1 0 0
    outer loop
      vertex 11 11 3
      vertex 11 29.918583 0
      vertex 11 29.918583 3
    endloop
  endfacet
  facet normal 1 0 0
    outer loop
      vertex 11 29.918583 0
      vertex 11 11 3
      vertex 11 11 0
    endloop
  endfacet
  facet normal 1 0 0
    outer loop
      vertex 11 94.00446 3
      vertex 11 113.05702 0
      vertex 11 113.05702 3
    endloop
  endfacet
  facet normal 1 0 0
    outer loop
      vertex 11 113.05702 0
      vertex 11 94.00446 3
      vertex 11 94.00446 0
    endloop
  endfacet
  facet normal 1 0 0
    outer loop
      vertex 11 73.21986 3
      vertex 11 92.272415 0
      vertex 11 92.272415 3
    endloop
  endfacet
  facet normal 1 0 0
    outer loop
      vertex 11 92.272415 0
      vertex 11 73.21986 3
      vertex 11 73.21986 0
    endloop
  endfacet
  facet normal 1 0 0
    outer loop
      vertex 11 52.435246 3
      vertex 11 71.4878 0
      vertex 11 71.4878 3
    endloop
  endfacet
  facet normal 1 0 0
    outer loop
      vertex 11 71.4878 0
      vertex 11 52.435246 3
      vertex 11 52.435246 0
    endloop
  endfacet
  facet normal 1 0 0
    outer loop
      vertex 11 31.650635 3
      vertex 11 50.703194 0
      vertex 11 50.703194 3
    endloop
  endfacet
  facet normal 1 0 0
    outer loop
      vertex 11 50.703194 0
      vertex 11 31.650635 3
      vertex 11 31.650635 0
    endloop
  endfacet
  facet normal 0 -1 0
    outer loop
      vertex 11 131.5 0
      vertex 16.851942 131.5 3
      vertex 11 131.5 3
    endloop
  endfacet
  facet normal 0 -1 0
    outer loop
      vertex 16.851942 131.5 3
      vertex 11 131.5 0
      vertex 16.851942 131.5 0
    endloop
  endfacet
  facet normal 0 -1 0
    outer loop
      vertex 18.851942 131.5 0
      vertex 36 131.5 3
      vertex 18.851942 131.5 3
    endloop
  endfacet
  facet normal 0 -1 0
    outer loop
      vertex 36 131.5 3
      vertex 18.851942 131.5 0
      vertex 36 131.5 0
    endloop
  endfacet
  facet normal 0 1 0
    outer loop
      vertex 15.577351 11 0
      vertex 11 11 3
      vertex 15.577351 11 3
    endloop
  endfacet
  facet normal 0 1 0
    outer loop
      vertex 11 11 3
      vertex 15.577351 11 0
      vertex 11 11 0
    endloop
  endfacet
  facet normal 0 1 0
    outer loop
      vertex 36 11 0
      vertex 17.57735 11 3
      vertex 36 11 3
    endloop
  endfacet
  facet normal 0 1 0
    outer loop
      vertex 17.57735 11 3
      vertex 36 11 0
      vertex 17.57735 11 0
    endloop
  endfacet
  facet normal 0.8660253 0.5000002 0
    outer loop
      vertex 22.5 125.18138 3
      vertex 18.851942 131.5 0
      vertex 18.851942 131.5 3
    endloop
  endfacet
  facet normal 0.8660253 0.5000002 0
    outer loop
      vertex 18.851942 131.5 0
      vertex 22.5 125.18138 3
      vertex 22.5 125.18138 0
    endloop
  endfacet
  facet normal -0.86602527 0.5000003 0
    outer loop
      vertex 33.5 125.18138 0
      vertex 36 129.5115 3
      vertex 36 129.5115 0
    endloop
  endfacet
  facet normal -0.86602527 0.5000003 0
    outer loop
      vertex 36 129.5115 3
      vertex 33.5 125.18138 0
      vertex 33.5 125.18138 3
    endloop
  endfacet
  facet normal 0 1 0
    outer loop
      vertex 33.5 125.18138 0
      vertex 22.5 125.18138 3
      vertex 33.5 125.18138 3
    endloop
  endfacet
  facet normal 0 1 0
    outer loop
      vertex 22.5 125.18138 3
      vertex 33.5 125.18138 0
      vertex 22.5 125.18138 0
    endloop
  endfacet
  facet normal -0.8660254 -0.5 0
    outer loop
      vertex 21 124.31535 0
      vertex 16.851942 131.5 3
      vertex 16.851942 131.5 0
    endloop
  endfacet
  facet normal -0.8660254 -0.5 0
    outer loop
      vertex 16.851942 131.5 3
      vertex 21 124.31535 0
      vertex 21 124.31535 3
    endloop
  endfacet
  facet normal -0.8660252 0.5000003 0
    outer loop
      vertex 18.34357 119.71429 0
      vertex 21 124.31535 3
      vertex 21 124.31535 0
    endloop
  endfacet
  facet normal -0.8660252 0.5000003 0
    outer loop
      vertex 21 124.31535 3
      vertex 18.34357 119.71429 0
      vertex 18.34357 119.71429 3
    endloop
  endfacet
  facet normal -0.8660257 0.49999952 0
    outer loop
      vertex 15.499999 114.78907 0
      vertex 18.34357 119.71429 3
      vertex 18.34357 119.71429 0
    endloop
  endfacet
  facet normal -0.8660257 0.49999952 0
    outer loop
      vertex 18.34357 119.71429 3
      vertex 15.499999 114.78907 0
      vertex 15.499999 114.78907 3
    endloop
  endfacet
  facet normal 0 1 0
    outer loop
      vertex 15.499999 114.78907 0
      vertex 11 114.78907 3
      vertex 15.499999 114.78907 3
    endloop
  endfacet
  facet normal 0 1 0
    outer loop
      vertex 11 114.78907 3
      vertex 15.499999 114.78907 0
      vertex 11 114.78907 0
    endloop
  endfacet
  facet normal 0.86602503 0.5000006 0
    outer loop
      vertex 36 122.583305 3
      vertex 35 124.31535 0
      vertex 35 124.31535 3
    endloop
  endfacet
  facet normal 0.86602503 0.5000006 0
    outer loop
      vertex 35 124.31535 0
      vertex 36 122.583305 3
      vertex 36 122.583305 0
    endloop
  endfacet
  facet normal 0.86602503 -0.5000006 0
    outer loop
      vertex 35 124.31535 3
      vertex 36 126.0474 0
      vertex 36 126.0474 3
    endloop
  endfacet
  facet normal 0.86602503 -0.5000006 0
    outer loop
      vertex 36 126.0474 0
      vertex 35 124.31535 3
      vertex 35 124.31535 0
    endloop
  endfacet
  facet normal -0.8660254 -0.5 0
    outer loop
      vertex 36 119.1192 0
      vertex 34.95261 120.933334 3
      vertex 34.95261 120.933334 0
    endloop
  endfacet
  facet normal -0.8660254 -0.5 0
    outer loop
      vertex 34.95261 120.933334 3
      vertex 36 119.1192 0
      vertex 36 119.1192 3
    endloop
  endfacet
  facet normal -0.8660256 0.4999996 0
    outer loop
      vertex 33.5 104.39677 0
      vertex 36 108.7269 3
      vertex 36 108.7269 0
    endloop
  endfacet
  facet normal -0.8660256 0.4999996 0
    outer loop
      vertex 36 108.7269 3
      vertex 33.5 104.39677 0
      vertex 33.5 104.39677 3
    endloop
  endfacet
  facet normal 0 1 0
    outer loop
      vertex 33.5 104.39677 0
      vertex 22.5 104.39677 3
      vertex 33.5 104.39677 3
    endloop
  endfacet
  facet normal 0 1 0
    outer loop
      vertex 22.5 104.39677 3
      vertex 33.5 104.39677 0
      vertex 22.5 104.39677 0
    endloop
  endfacet
  facet normal 0.8660255 0.49999985 0
    outer loop
      vertex 22.5 104.39677 3
      vertex 17 113.92305 0
      vertex 17 113.92305 3
    endloop
  endfacet
  facet normal 0.8660255 0.49999985 0
    outer loop
      vertex 17 113.92305 0
      vertex 22.5 104.39677 3
      vertex 22.5 104.39677 0
    endloop
  endfacet
  facet normal 0.8660253 -0.5000002 0
    outer loop
      vertex 17 113.92305 3
      vertex 22.5 123.449326 0
      vertex 22.5 123.449326 3
    endloop
  endfacet
  facet normal 0.8660253 -0.5000002 0
    outer loop
      vertex 22.5 123.449326 0
      vertex 17 113.92305 3
      vertex 17 113.92305 0
    endloop
  endfacet
  facet normal 0 -1 0
    outer loop
      vertex 22.5 123.449326 0
      vertex 33.5 123.449326 3
      vertex 22.5 123.449326 3
    endloop
  endfacet
  facet normal 0 -1 0
    outer loop
      vertex 33.5 123.449326 3
      vertex 22.5 123.449326 0
      vertex 33.5 123.449326 0
    endloop
  endfacet
  facet normal -0.86602515 -0.5000005 0
    outer loop
      vertex 34.95261 120.933334 0
      vertex 33.5 123.449326 3
      vertex 33.5 123.449326 0
    endloop
  endfacet
  facet normal -0.86602515 -0.5000005 0
    outer loop
      vertex 33.5 123.449326 3
      vertex 34.95261 120.933334 0
      vertex 34.95261 120.933334 3
    endloop
  endfacet
  facet normal 0 -1 0
    outer loop
      vertex 11 113.05702 0
      vertex 15.499999 113.05702 3
      vertex 11 113.05702 3
    endloop
  endfacet
  facet normal 0 -1 0
    outer loop
      vertex 15.499999 113.05702 3
      vertex 11 113.05702 0
      vertex 15.499999 113.05702 0
    endloop
  endfacet
  facet normal -0.86602527 -0.50000024 0
    outer loop
      vertex 21 103.53075 0
      vertex 15.499999 113.05702 3
      vertex 15.499999 113.05702 0
    endloop
  endfacet
  facet normal -0.86602527 -0.50000024 0
    outer loop
      vertex 15.499999 113.05702 3
      vertex 21 103.53075 0
      vertex 21 103.53075 3
    endloop
  endfacet
  facet normal -0.8660255 0.4999998 0
    outer loop
      vertex 17.806824 98 0
      vertex 21 103.53075 3
      vertex 21 103.53075 0
    endloop
  endfacet
  facet normal -0.8660255 0.4999998 0
    outer loop
      vertex 21 103.53075 3
      vertex 17.806824 98 0
      vertex 17.806824 98 3
    endloop
  endfacet
  facet normal -0.8660254 0.50000006 0
    outer loop
      vertex 15.499999 94.00446 0
      vertex 17.806824 98 3
      vertex 17.806824 98 0
    endloop
  endfacet
  facet normal -0.8660254 0.50000006 0
    outer loop
      vertex 17.806824 98 3
      vertex 15.499999 94.00446 0
      vertex 15.499999 94.00446 3
    endloop
  endfacet
  facet normal 0 1 0
    outer loop
      vertex 15.499999 94.00446 0
      vertex 11 94.00446 3
      vertex 15.499999 94.00446 3
    endloop
  endfacet
  facet normal 0 1 0
    outer loop
      vertex 11 94.00446 3
      vertex 15.499999 94.00446 0
      vertex 11 94.00446 0
    endloop
  endfacet
  facet normal 0.866026 0.49999896 0
    outer loop
      vertex 36 101.79869 3
      vertex 35 103.53075 0
      vertex 35 103.53075 3
    endloop
  endfacet
  facet normal 0.866026 0.49999896 0
    outer loop
      vertex 35 103.53075 0
      vertex 36 101.79869 3
      vertex 36 101.79869 0
    endloop
  endfacet
  facet normal 0.86602503 -0.5000006 0
    outer loop
      vertex 35 103.53075 3
      vertex 36 105.262794 0
      vertex 36 105.262794 3
    endloop
  endfacet
  facet normal 0.86602503 -0.5000006 0
    outer loop
      vertex 36 105.262794 0
      vertex 35 103.53075 3
      vertex 35 103.53075 0
    endloop
  endfacet
  facet normal -0.86602527 0.5000003 0
    outer loop
      vertex 33.5 83.61216 0
      vertex 36 87.94228 3
      vertex 36 87.94228 0
    endloop
  endfacet
  facet normal -0.86602527 0.5000003 0
    outer loop
      vertex 36 87.94228 3
      vertex 33.5 83.61216 0
      vertex 33.5 83.61216 3
    endloop
  endfacet
  facet normal 0 1 0
    outer loop
      vertex 33.5 83.61216 0
      vertex 22.5 83.61216 3
      vertex 33.5 83.61216 3
    endloop
  endfacet
  facet normal 0 1 0
    outer loop
      vertex 22.5 83.61216 3
      vertex 33.5 83.61216 0
      vertex 22.5 83.61216 0
    endloop
  endfacet
  facet normal 0.8660253 0.5000001 0
    outer loop
      vertex 22.5 83.61216 3
      vertex 18.811977 90 0
      vertex 18.811977 90 3
    endloop
  endfacet
  facet normal 0.8660253 0.5000001 0
    outer loop
      vertex 18.811977 90 0
      vertex 22.5 83.61216 3
      vertex 22.5 83.61216 0
    endloop
  endfacet
  facet normal 0.86602527 0.5000002 0
    outer loop
      vertex 18.811977 90 3
      vertex 17 93.138435 0
      vertex 17 93.138435 3
    endloop
  endfacet
  facet normal 0.86602527 0.5000002 0
    outer loop
      vertex 17 93.138435 0
      vertex 18.811977 90 3
      vertex 18.811977 90 0
    endloop
  endfacet
  facet normal 0.8660255 -0.49999985 0
    outer loop
      vertex 17 93.138435 3
      vertex 22.5 102.66472 0
      vertex 22.5 102.66472 3
    endloop
  endfacet
  facet normal 0.8660255 -0.49999985 0
    outer loop
      vertex 22.5 102.66472 0
      vertex 17 93.138435 3
      vertex 17 93.138435 0
    endloop
  endfacet
  facet normal 0 -1 0
    outer loop
      vertex 22.5 102.66472 0
      vertex 33.5 102.66472 3
      vertex 22.5 102.66472 3
    endloop
  endfacet
  facet normal 0 -1 0
    outer loop
      vertex 33.5 102.66472 3
      vertex 22.5 102.66472 0
      vertex 33.5 102.66472 0
    endloop
  endfacet
  facet normal -0.8660256 -0.4999996 0
    outer loop
      vertex 36 98.33459 0
      vertex 33.5 102.66472 3
      vertex 33.5 102.66472 0
    endloop
  endfacet
  facet normal -0.8660256 -0.4999996 0
    outer loop
      vertex 33.5 102.66472 3
      vertex 36 98.33459 0
      vertex 36 98.33459 3
    endloop
  endfacet
  facet normal 0 -1 0
    outer loop
      vertex 11 92.272415 0
      vertex 15.499999 92.272415 3
      vertex 11 92.272415 3
    endloop
  endfacet
  facet normal 0 -1 0
    outer loop
      vertex 15.499999 92.272415 3
      vertex 11 92.272415 0
      vertex 15.499999 92.272415 0
    endloop
  endfacet
  facet normal -0.86602545 -0.4999999 0
    outer loop
      vertex 21 82.74613 0
      vertex 15.499999 92.272415 3
      vertex 15.499999 92.272415 0
    endloop
  endfacet
  facet normal -0.86602545 -0.4999999 0
    outer loop
      vertex 15.499999 92.272415 3
      vertex 21 82.74613 0
      vertex 21 82.74613 3
    endloop
  endfacet
  facet normal -0.8660253 0.5000002 0
    outer loop
      vertex 15.5 73.21986 0
      vertex 21 82.74613 3
      vertex 21 82.74613 0
    endloop
  endfacet
  facet normal -0.8660253 0.5000002 0
    outer loop
      vertex 21 82.74613 3
      vertex 15.5 73.21986 0
      vertex 15.5 73.21986 3
    endloop
  endfacet
  facet normal 0 1 0
    outer loop
      vertex 15.5 73.21986 0
      vertex 11 73.21986 3
      vertex 15.5 73.21986 3
    endloop
  endfacet
  facet normal 0 1 0
    outer loop
      vertex 11 73.21986 3
      vertex 15.5 73.21986 0
      vertex 11 73.21986 0
    endloop
  endfacet
  facet normal 0.866026 -0.49999896 0
    outer loop
      vertex 35 82.74613 3
      vertex 36 84.47819 0
      vertex 36 84.47819 3
    endloop
  endfacet
  facet normal 0.866026 -0.49999896 0
    outer loop
      vertex 36 84.47819 0
      vertex 35 82.74613 3
      vertex 35 82.74613 0
    endloop
  endfacet
  facet normal 0.86602503 0.5000006 0
    outer loop
      vertex 36 81.014084 3
      vertex 35 82.74613 0
      vertex 35 82.74613 3
    endloop
  endfacet
  facet normal 0.86602503 0.5000006 0
    outer loop
      vertex 35 82.74613 0
      vertex 36 81.014084 3
      vertex 36 81.014084 0
    endloop
  endfacet
  facet normal -0.86602545 0.49999994 0
    outer loop
      vertex 33.5 62.82755 0
      vertex 36 67.15768 3
      vertex 36 67.15768 0
    endloop
  endfacet
  facet normal -0.86602545 0.49999994 0
    outer loop
      vertex 36 67.15768 3
      vertex 33.5 62.82755 0
      vertex 33.5 62.82755 3
    endloop
  endfacet
  facet normal 0 1 0
    outer loop
      vertex 33.5 62.82755 0
      vertex 22.5 62.82755 3
      vertex 33.5 62.82755 3
    endloop
  endfacet
  facet normal 0 1 0
    outer loop
      vertex 22.5 62.82755 3
      vertex 33.5 62.82755 0
      vertex 22.5 62.82755 0
    endloop
  endfacet
  facet normal 0.8660254 0.5 0
    outer loop
      vertex 22.5 62.82755 3
      vertex 17 72.35383 0
      vertex 17 72.35383 3
    endloop
  endfacet
  facet normal 0.8660254 0.5 0
    outer loop
      vertex 17 72.35383 0
      vertex 22.5 62.82755 3
      vertex 22.5 62.82755 0
    endloop
  endfacet
  facet normal 0.8660255 -0.49999985 0
    outer loop
      vertex 17 72.35383 3
      vertex 22.5 81.88011 0
      vertex 22.5 81.88011 3
    endloop
  endfacet
  facet normal 0.8660255 -0.49999985 0
    outer loop
      vertex 22.5 81.88011 0
      vertex 17 72.35383 3
      vertex 17 72.35383 0
    endloop
  endfacet
  facet normal 0 -1 0
    outer loop
      vertex 22.5 81.88011 0
      vertex 33.5 81.88011 3
      vertex 22.5 81.88011 3
    endloop
  endfacet
  facet normal 0 -1 0
    outer loop
      vertex 33.5 81.88011 3
      vertex 22.5 81.88011 0
      vertex 33.5 81.88011 0
    endloop
  endfacet
  facet normal -0.8660256 -0.4999996 0
    outer loop
      vertex 36 77.54998 0
      vertex 33.5 81.88011 3
      vertex 33.5 81.88011 0
    endloop
  endfacet
  facet normal -0.8660256 -0.4999996 0
    outer loop
      vertex 33.5 81.88011 3
      vertex 36 77.54998 0
      vertex 36 77.54998 3
    endloop
  endfacet
  facet normal 0.8660255 0.49999976 0
    outer loop
      vertex 36 60.229473 3
      vertex 35 61.961525 0
      vertex 35 61.961525 3
    endloop
  endfacet
  facet normal 0.8660255 0.49999976 0
    outer loop
      vertex 35 61.961525 0
      vertex 36 60.229473 3
      vertex 36 60.229473 0
    endloop
  endfacet
  facet normal 0.86602503 -0.5000006 0
    outer loop
      vertex 35 61.961525 3
      vertex 36 63.693573 0
      vertex 36 63.693573 3
    endloop
  endfacet
  facet normal 0.86602503 -0.5000006 0
    outer loop
      vertex 36 63.693573 0
      vertex 35 61.961525 3
      vertex 35 61.961525 0
    endloop
  endfacet
  facet normal 0 -1 0
    outer loop
      vertex 11 71.4878 0
      vertex 15.5 71.4878 3
      vertex 11 71.4878 3
    endloop
  endfacet
  facet normal 0 -1 0
    outer loop
      vertex 15.5 71.4878 3
      vertex 11 71.4878 0
      vertex 15.5 71.4878 0
    endloop
  endfacet
  facet normal -0.8660253 -0.5000002 0
    outer loop
      vertex 21 61.961525 0
      vertex 15.5 71.4878 3
      vertex 15.5 71.4878 0
    endloop
  endfacet
  facet normal -0.8660253 -0.5000002 0
    outer loop
      vertex 15.5 71.4878 3
      vertex 21 61.961525 0
      vertex 21 61.961525 3
    endloop
  endfacet
  facet normal -0.8660254 0.5 0
    outer loop
      vertex 15.5 52.435246 0
      vertex 21 61.961525 3
      vertex 21 61.961525 0
    endloop
  endfacet
  facet normal -0.8660254 0.5 0
    outer loop
      vertex 21 61.961525 3
      vertex 15.5 52.435246 0
      vertex 15.5 52.435246 3
    endloop
  endfacet
  facet normal 0 1 0
    outer loop
      vertex 15.5 52.435246 0
      vertex 11 52.435246 3
      vertex 15.5 52.435246 3
    endloop
  endfacet
  facet normal 0 1 0
    outer loop
      vertex 11 52.435246 3
      vertex 15.5 52.435246 0
      vertex 11 52.435246 0
    endloop
  endfacet
  facet normal 0.8660254 0.5 0
    outer loop
      vertex 22.5 42.04294 3
      vertex 17 51.569218 0
      vertex 17 51.569218 3
    endloop
  endfacet
  facet normal 0.8660254 0.5 0
    outer loop
      vertex 17 51.569218 0
      vertex 22.5 42.04294 3
      vertex 22.5 42.04294 0
    endloop
  endfacet
  facet normal 0.8660254 -0.5 0
    outer loop
      vertex 17 51.569218 3
      vertex 22.5 61.095497 0
      vertex 22.5 61.095497 3
    endloop
  endfacet
  facet normal 0.8660254 -0.5 0
    outer loop
      vertex 22.5 61.095497 0
      vertex 17 51.569218 3
      vertex 17 51.569218 0
    endloop
  endfacet
  facet normal 0 -1 0
    outer loop
      vertex 22.5 61.095497 0
      vertex 33.5 61.095497 3
      vertex 22.5 61.095497 3
    endloop
  endfacet
  facet normal 0 -1 0
    outer loop
      vertex 33.5 61.095497 3
      vertex 22.5 61.095497 0
      vertex 33.5 61.095497 0
    endloop
  endfacet
  facet normal -0.86602545 -0.49999994 0
    outer loop
      vertex 36 56.76537 0
      vertex 33.5 61.095497 3
      vertex 33.5 61.095497 0
    endloop
  endfacet
  facet normal -0.86602545 -0.49999994 0
    outer loop
      vertex 33.5 61.095497 3
      vertex 36 56.76537 0
      vertex 36 56.76537 3
    endloop
  endfacet
  facet normal -0.86602545 0.49999994 0
    outer loop
      vertex 33.5 42.04294 0
      vertex 36 46.373066 3
      vertex 36 46.373066 0
    endloop
  endfacet
  facet normal -0.86602545 0.49999994 0
    outer loop
      vertex 36 46.373066 3
      vertex 33.5 42.04294 0
      vertex 33.5 42.04294 3
    endloop
  endfacet
  facet normal 0 1 0
    outer loop
      vertex 33.5 42.04294 0
      vertex 22.5 42.04294 3
      vertex 33.5 42.04294 3
    endloop
  endfacet
  facet normal 0 1 0
    outer loop
      vertex 22.5 42.04294 3
      vertex 33.5 42.04294 0
      vertex 22.5 42.04294 0
    endloop
  endfacet
  facet normal 0.8660255 0.49999976 0
    outer loop
      vertex 36 39.444862 3
      vertex 35 41.176914 0
      vertex 35 41.176914 3
    endloop
  endfacet
  facet normal 0.8660255 0.49999976 0
    outer loop
      vertex 35 41.176914 0
      vertex 36 39.444862 3
      vertex 36 39.444862 0
    endloop
  endfacet
  facet normal 0.8660255 -0.49999976 0
    outer loop
      vertex 35 41.176914 3
      vertex 36 42.908966 0
      vertex 36 42.908966 3
    endloop
  endfacet
  facet normal 0.8660255 -0.49999976 0
    outer loop
      vertex 36 42.908966 0
      vertex 35 41.176914 3
      vertex 35 41.176914 0
    endloop
  endfacet
  facet normal 0 -1 0
    outer loop
      vertex 11 50.703194 0
      vertex 15.5 50.703194 3
      vertex 11 50.703194 3
    endloop
  endfacet
  facet normal 0 -1 0
    outer loop
      vertex 15.5 50.703194 3
      vertex 11 50.703194 0
      vertex 15.5 50.703194 0
    endloop
  endfacet
  facet normal -0.8660254 -0.5 0
    outer loop
      vertex 21 41.176914 0
      vertex 15.5 50.703194 3
      vertex 15.5 50.703194 0
    endloop
  endfacet
  facet normal -0.8660254 -0.5 0
    outer loop
      vertex 15.5 50.703194 3
      vertex 21 41.176914 0
      vertex 21 41.176914 3
    endloop
  endfacet
  facet normal -0.8660254 0.5 0
    outer loop
      vertex 15.5 31.650635 0
      vertex 21 41.176914 3
      vertex 21 41.176914 0
    endloop
  endfacet
  facet normal -0.8660254 0.5 0
    outer loop
      vertex 21 41.176914 3
      vertex 15.5 31.650635 0
      vertex 15.5 31.650635 3
    endloop
  endfacet
  facet normal 0 1 0
    outer loop
      vertex 15.5 31.650635 0
      vertex 11 31.650635 3
      vertex 15.5 31.650635 3
    endloop
  endfacet
  facet normal 0 1 0
    outer loop
      vertex 11 31.650635 3
      vertex 15.5 31.650635 0
      vertex 11 31.650635 0
    endloop
  endfacet
  facet normal 0.8660254 0.5 0
    outer loop
      vertex 22.5 21.25833 3
      vertex 17 30.784609 0
      vertex 17 30.784609 3
    endloop
  endfacet
  facet normal 0.8660254 0.5 0
    outer loop
      vertex 17 30.784609 0
      vertex 22.5 21.25833 3
      vertex 22.5 21.25833 0
    endloop
  endfacet
  facet normal 0.86602545 -0.4999999 0
    outer loop
      vertex 17 30.784609 3
      vertex 22.5 40.31089 0
      vertex 22.5 40.31089 3
    endloop
  endfacet
  facet normal 0.86602545 -0.4999999 0
    outer loop
      vertex 22.5 40.31089 0
      vertex 17 30.784609 3
      vertex 17 30.784609 0
    endloop
  endfacet
  facet normal 0 -1 0
    outer loop
      vertex 22.5 40.31089 0
      vertex 33.5 40.31089 3
      vertex 22.5 40.31089 3
    endloop
  endfacet
  facet normal 0 -1 0
    outer loop
      vertex 33.5 40.31089 3
      vertex 22.5 40.31089 0
      vertex 33.5 40.31089 0
    endloop
  endfacet
  facet normal -0.86602545 -0.49999994 0
    outer loop
      vertex 36 35.980762 0
      vertex 33.5 40.31089 3
      vertex 33.5 40.31089 0
    endloop
  endfacet
  facet normal -0.86602545 -0.49999994 0
    outer loop
      vertex 33.5 40.31089 3
      vertex 36 35.980762 0
      vertex 36 35.980762 3
    endloop
  endfacet
  facet normal -0.86602545 0.49999994 0
    outer loop
      vertex 33.5 21.25833 0
      vertex 36 25.588457 3
      vertex 36 25.588457 0
    endloop
  endfacet
  facet normal -0.86602545 0.49999994 0
    outer loop
      vertex 36 25.588457 3
      vertex 33.5 21.25833 0
      vertex 33.5 21.25833 3
    endloop
  endfacet
  facet normal 0 1 0
    outer loop
      vertex 33.5 21.25833 0
      vertex 22.5 21.25833 3
      vertex 33.5 21.25833 3
    endloop
  endfacet
  facet normal 0 1 0
    outer loop
      vertex 22.5 21.25833 3
      vertex 33.5 21.25833 0
      vertex 22.5 21.25833 0
    endloop
  endfacet
  facet normal 0.86602527 0.5000002 0
    outer loop
      vertex 36 18.660254 3
      vertex 35 20.392303 0
      vertex 35 20.392303 3
    endloop
  endfacet
  facet normal 0.86602527 0.5000002 0
    outer loop
      vertex 35 20.392303 0
      vertex 36 18.660254 3
      vertex 36 18.660254 0
    endloop
  endfacet
  facet normal 0.8660255 -0.49999976 0
    outer loop
      vertex 35 20.392303 3
      vertex 36 22.124355 0
      vertex 36 22.124355 3
    endloop
  endfacet
  facet normal 0.8660255 -0.49999976 0
    outer loop
      vertex 36 22.124355 0
      vertex 35 20.392303 3
      vertex 35 20.392303 0
    endloop
  endfacet
  facet normal 0 -1 0
    outer loop
      vertex 11 29.918583 0
      vertex 15.5 29.918583 3
      vertex 11 29.918583 3
    endloop
  endfacet
  facet normal 0 -1 0
    outer loop
      vertex 15.5 29.918583 3
      vertex 11 29.918583 0
      vertex 15.5 29.918583 0
    endloop
  endfacet
  facet normal -0.8660254 -0.5 0
    outer loop
      vertex 21 20.392303 0
      vertex 15.5 29.918583 3
      vertex 15.5 29.918583 0
    endloop
  endfacet
  facet normal -0.8660254 -0.5 0
    outer loop
      vertex 15.5 29.918583 3
      vertex 21 20.392303 0
      vertex 21 20.392303 3
    endloop
  endfacet
  facet normal -0.8660254 0.50000006 0
    outer loop
      vertex 15.577351 11 0
      vertex 21 20.392303 3
      vertex 21 20.392303 0
    endloop
  endfacet
  facet normal -0.8660254 0.50000006 0
    outer loop
      vertex 21 20.392303 3
      vertex 15.577351 11 0
      vertex 15.577351 11 3
    endloop
  endfacet
  facet normal 0.86602545 -0.49999997 0
    outer loop
      vertex 17.57735 11 3
      vertex 22.5 19.52628 0
      vertex 22.5 19.52628 3
    endloop
  endfacet
  facet normal 0.86602545 -0.49999997 0
    outer loop
      vertex 22.5 19.52628 0
      vertex 17.57735 11 3
      vertex 17.57735 11 0
    endloop
  endfacet
  facet normal 0 -1 0
    outer loop
      vertex 22.5 19.52628 0
      vertex 33.5 19.52628 3
      vertex 22.5 19.52628 3
    endloop
  endfacet
  facet normal 0 -1 0
    outer loop
      vertex 33.5 19.52628 3
      vertex 22.5 19.52628 0
      vertex 33.5 19.52628 0
    endloop
  endfacet
  facet normal -0.86602545 -0.49999994 0
    outer loop
      vertex 36 15.196152 0
      vertex 33.5 19.52628 3
      vertex 33.5 19.52628 0
    endloop
  endfacet
  facet normal -0.86602545 -0.49999994 0
    outer loop
      vertex 33.5 19.52628 3
      vertex 36 15.196152 0
      vertex 36 15.196152 3
    endloop
  endfacet
  facet normal 0 0 1
    outer loop
      vertex 18.34357 119.71429 3
      vertex 22.5 123.449326 3
      vertex 21 124.31535 3
    endloop
  endfacet
  facet normal 0 0 1
    outer loop
      vertex 18.34357 119.71429 3
      vertex 17 113.92305 3
      vertex 22.5 123.449326 3
    endloop
  endfacet
  facet normal 0 0 1
    outer loop
      vertex 17 113.92305 3
      vertex 18.34357 119.71429 3
      vertex 15.499999 114.78907 3
    endloop
  endfacet
  facet normal 0 0 1
    outer loop
      vertex 17.806824 98 3
      vertex 22.5 102.66472 3
      vertex 21 103.53075 3
    endloop
  endfacet
  facet normal 0 0 1
    outer loop
      vertex 17.806824 98 3
      vertex 17 93.138435 3
      vertex 22.5 102.66472 3
    endloop
  endfacet
  facet normal 0 0 1
    outer loop
      vertex 17 93.138435 3
      vertex 17.806824 98 3
      vertex 15.499999 94.00446 3
    endloop
  endfacet
  facet normal 0 0 1
    outer loop
      vertex 21 82.74613 3
      vertex 17 72.35383 3
      vertex 22.5 81.88011 3
    endloop
  endfacet
  facet normal 0 0 1
    outer loop
      vertex 17 72.35383 3
      vertex 21 82.74613 3
      vertex 15.5 73.21986 3
    endloop
  endfacet
  facet normal 0 0 1
    outer loop
      vertex 21 61.961525 3
      vertex 17 51.569218 3
      vertex 22.5 61.095497 3
    endloop
  endfacet
  facet normal 0 0 1
    outer loop
      vertex 17 51.569218 3
      vertex 21 61.961525 3
      vertex 15.5 52.435246 3
    endloop
  endfacet
  facet normal 0 0 1
    outer loop
      vertex 21 41.176914 3
      vertex 17 30.784609 3
      vertex 22.5 40.31089 3
    endloop
  endfacet
  facet normal 0 0 1
    outer loop
      vertex 17 30.784609 3
      vertex 21 41.176914 3
      vertex 15.5 31.650635 3
    endloop
  endfacet
  facet normal 0 0 1
    outer loop
      vertex 21 20.392303 3
      vertex 17.57735 11 3
      vertex 22.5 19.52628 3
    endloop
  endfacet
  facet normal 0 0 1
    outer loop
      vertex 17.57735 11 3
      vertex 21 20.392303 3
      vertex 15.577351 11 3
    endloop
  endfacet
  facet normal 0 0 1
    outer loop
      vertex 33.5 19.52628 3
      vertex 36 18.660254 3
      vertex 35 20.392303 3
    endloop
  endfacet
  facet normal 0 0 1
    outer loop
      vertex 33.5 19.52628 3
      vertex 35 20.392303 3
      vertex 33.5 21.25833 3
    endloop
  endfacet
  facet normal 0 0 1
    outer loop
      vertex 36 18.660254 3
      vertex 33.5 19.52628 3
      vertex 36 15.196152 3
    endloop
  endfacet
  facet normal 0 0 1
    outer loop
      vertex 22.5 21.25833 3
      vertex 33.5 19.52628 3
      vertex 33.5 21.25833 3
    endloop
  endfacet
  facet normal 0 0 1
    outer loop
      vertex 22.5 21.25833 3
      vertex 22.5 19.52628 3
      vertex 33.5 19.52628 3
    endloop
  endfacet
  facet normal 0 0 1
    outer loop
      vertex 22.5 21.25833 3
      vertex 21 20.392303 3
      vertex 22.5 19.52628 3
    endloop
  endfacet
  facet normal 0 0 1
    outer loop
      vertex 17 30.784609 3
      vertex 21 20.392303 3
      vertex 22.5 21.25833 3
    endloop
  endfacet
  facet normal 0 0 1
    outer loop
      vertex 15.5 29.918583 3
      vertex 17 30.784609 3
      vertex 15.5 31.650635 3
    endloop
  endfacet
  facet normal 0 0 1
    outer loop
      vertex 17 30.784609 3
      vertex 15.5 29.918583 3
      vertex 21 20.392303 3
    endloop
  endfacet
  facet normal 0 0 1
    outer loop
      vertex 11 31.650635 3
      vertex 15.5 29.918583 3
      vertex 15.5 31.650635 3
    endloop
  endfacet
  facet normal 0 0 1
    outer loop
      vertex 15.5 29.918583 3
      vertex 11 31.650635 3
      vertex 11 29.918583 3
    endloop
  endfacet
  facet normal 0 0 1
    outer loop
      vertex 33.5 21.25833 3
      vertex 36 22.124355 3
      vertex 36 25.588457 3
    endloop
  endfacet
  facet normal 0 0 1
    outer loop
      vertex 36 22.124355 3
      vertex 33.5 21.25833 3
      vertex 35 20.392303 3
    endloop
  endfacet
  facet normal 0 0 1
    outer loop
      vertex 33.5 40.31089 3
      vertex 36 39.444862 3
      vertex 35 41.176914 3
    endloop
  endfacet
  facet normal 0 0 1
    outer loop
      vertex 33.5 40.31089 3
      vertex 35 41.176914 3
      vertex 33.5 42.04294 3
    endloop
  endfacet
  facet normal 0 0 1
    outer loop
      vertex 36 39.444862 3
      vertex 33.5 40.31089 3
      vertex 36 35.980762 3
    endloop
  endfacet
  facet normal 0 0 1
    outer loop
      vertex 22.5 42.04294 3
      vertex 33.5 40.31089 3
      vertex 33.5 42.04294 3
    endloop
  endfacet
  facet normal 0 0 1
    outer loop
      vertex 22.5 42.04294 3
      vertex 22.5 40.31089 3
      vertex 33.5 40.31089 3
    endloop
  endfacet
  facet normal 0 0 1
    outer loop
      vertex 22.5 42.04294 3
      vertex 21 41.176914 3
      vertex 22.5 40.31089 3
    endloop
  endfacet
  facet normal 0 0 1
    outer loop
      vertex 17 51.569218 3
      vertex 21 41.176914 3
      vertex 22.5 42.04294 3
    endloop
  endfacet
  facet normal 0 0 1
    outer loop
      vertex 15.5 50.703194 3
      vertex 17 51.569218 3
      vertex 15.5 52.435246 3
    endloop
  endfacet
  facet normal 0 0 1
    outer loop
      vertex 17 51.569218 3
      vertex 15.5 50.703194 3
      vertex 21 41.176914 3
    endloop
  endfacet
  facet normal 0 0 1
    outer loop
      vertex 11 52.435246 3
      vertex 15.5 50.703194 3
      vertex 15.5 52.435246 3
    endloop
  endfacet
  facet normal 0 0 1
    outer loop
      vertex 15.5 50.703194 3
      vertex 11 52.435246 3
      vertex 11 50.703194 3
    endloop
  endfacet
  facet normal 0 0 1
    outer loop
      vertex 33.5 42.04294 3
      vertex 36 42.908966 3
      vertex 36 46.373066 3
    endloop
  endfacet
  facet normal 0 0 1
    outer loop
      vertex 36 42.908966 3
      vertex 33.5 42.04294 3
      vertex 35 41.176914 3
    endloop
  endfacet
  facet normal 0 0 1
    outer loop
      vertex 33.5 61.095497 3
      vertex 36 60.229473 3
      vertex 35 61.961525 3
    endloop
  endfacet
  facet normal 0 0 1
    outer loop
      vertex 33.5 61.095497 3
      vertex 35 61.961525 3
      vertex 33.5 62.82755 3
    endloop
  endfacet
  facet normal 0 0 1
    outer loop
      vertex 36 60.229473 3
      vertex 33.5 61.095497 3
      vertex 36 56.76537 3
    endloop
  endfacet
  facet normal 0 0 1
    outer loop
      vertex 22.5 62.82755 3
      vertex 33.5 61.095497 3
      vertex 33.5 62.82755 3
    endloop
  endfacet
  facet normal 0 0 1
    outer loop
      vertex 22.5 62.82755 3
      vertex 22.5 61.095497 3
      vertex 33.5 61.095497 3
    endloop
  endfacet
  facet normal 0 0 1
    outer loop
      vertex 22.5 62.82755 3
      vertex 21 61.961525 3
      vertex 22.5 61.095497 3
    endloop
  endfacet
  facet normal 0 0 1
    outer loop
      vertex 17 72.35383 3
      vertex 21 61.961525 3
      vertex 22.5 62.82755 3
    endloop
  endfacet
  facet normal 0 0 1
    outer loop
      vertex 15.5 71.4878 3
      vertex 17 72.35383 3
      vertex 15.5 73.21986 3
    endloop
  endfacet
  facet normal 0 0 1
    outer loop
      vertex 17 72.35383 3
      vertex 15.5 71.4878 3
      vertex 21 61.961525 3
    endloop
  endfacet
  facet normal 0 0 1
    outer loop
      vertex 11 73.21986 3
      vertex 15.5 71.4878 3
      vertex 15.5 73.21986 3
    endloop
  endfacet
  facet normal 0 0 1
    outer loop
      vertex 15.5 71.4878 3
      vertex 11 73.21986 3
      vertex 11 71.4878 3
    endloop
  endfacet
  facet normal 0 0 1
    outer loop
      vertex 33.5 62.82755 3
      vertex 36 63.693573 3
      vertex 36 67.15768 3
    endloop
  endfacet
  facet normal 0 0 1
    outer loop
      vertex 36 63.693573 3
      vertex 33.5 62.82755 3
      vertex 35 61.961525 3
    endloop
  endfacet
  facet normal 0 0 1
    outer loop
      vertex 33.5 81.88011 3
      vertex 36 81.014084 3
      vertex 35 82.74613 3
    endloop
  endfacet
  facet normal 0 0 1
    outer loop
      vertex 33.5 81.88011 3
      vertex 35 82.74613 3
      vertex 33.5 83.61216 3
    endloop
  endfacet
  facet normal 0 0 1
    outer loop
      vertex 36 81.014084 3
      vertex 33.5 81.88011 3
      vertex 36 77.54998 3
    endloop
  endfacet
  facet normal 0 0 1
    outer loop
      vertex 22.5 83.61216 3
      vertex 33.5 81.88011 3
      vertex 33.5 83.61216 3
    endloop
  endfacet
  facet normal 0 0 1
    outer loop
      vertex 22.5 83.61216 3
      vertex 22.5 81.88011 3
      vertex 33.5 81.88011 3
    endloop
  endfacet
  facet normal 0 0 1
    outer loop
      vertex 22.5 83.61216 3
      vertex 21 82.74613 3
      vertex 22.5 81.88011 3
    endloop
  endfacet
  facet normal 0 0 1
    outer loop
      vertex 18.811977 90 3
      vertex 21 82.74613 3
      vertex 22.5 83.61216 3
    endloop
  endfacet
  facet normal 0 0 1
    outer loop
      vertex 15.499999 92.272415 3
      vertex 18.811977 90 3
      vertex 17 93.138435 3
    endloop
  endfacet
  facet normal 0 0 1
    outer loop
      vertex 15.499999 92.272415 3
      vertex 17 93.138435 3
      vertex 15.499999 94.00446 3
    endloop
  endfacet
  facet normal 0 0 1
    outer loop
      vertex 18.811977 90 3
      vertex 15.499999 92.272415 3
      vertex 21 82.74613 3
    endloop
  endfacet
  facet normal 0 0 1
    outer loop
      vertex 11 94.00446 3
      vertex 15.499999 92.272415 3
      vertex 15.499999 94.00446 3
    endloop
  endfacet
  facet normal 0 0 1
    outer loop
      vertex 15.499999 92.272415 3
      vertex 11 94.00446 3
      vertex 11 92.272415 3
    endloop
  endfacet
  facet normal 0 0 1
    outer loop
      vertex 33.5 83.61216 3
      vertex 36 84.47819 3
      vertex 36 87.94228 3
    endloop
  endfacet
  facet normal 0 0 1
    outer loop
      vertex 36 84.47819 3
      vertex 33.5 83.61216 3
      vertex 35 82.74613 3
    endloop
  endfacet
  facet normal 0 0 1
    outer loop
      vertex 33.5 102.66472 3
      vertex 36 101.79869 3
      vertex 35 103.53075 3
    endloop
  endfacet
  facet normal 0 0 1
    outer loop
      vertex 33.5 102.66472 3
      vertex 35 103.53075 3
      vertex 33.5 104.39677 3
    endloop
  endfacet
  facet normal 0 0 1
    outer loop
      vertex 36 101.79869 3
      vertex 33.5 102.66472 3
      vertex 36 98.33459 3
    endloop
  endfacet
  facet normal 0 0 1
    outer loop
      vertex 22.5 104.39677 3
      vertex 33.5 102.66472 3
      vertex 33.5 104.39677 3
    endloop
  endfacet
  facet normal 0 0 1
    outer loop
      vertex 22.5 104.39677 3
      vertex 22.5 102.66472 3
      vertex 33.5 102.66472 3
    endloop
  endfacet
  facet normal 0 0 1
    outer loop
      vertex 22.5 104.39677 3
      vertex 21 103.53075 3
      vertex 22.5 102.66472 3
    endloop
  endfacet
  facet normal 0 0 1
    outer loop
      vertex 17 113.92305 3
      vertex 21 103.53075 3
      vertex 22.5 104.39677 3
    endloop
  endfacet
  facet normal 0 0 1
    outer loop
      vertex 15.499999 113.05702 3
      vertex 17 113.92305 3
      vertex 15.499999 114.78907 3
    endloop
  endfacet
  facet normal 0 0 1
    outer loop
      vertex 17 113.92305 3
      vertex 15.499999 113.05702 3
      vertex 21 103.53075 3
    endloop
  endfacet
  facet normal 0 0 1
    outer loop
      vertex 11 114.78907 3
      vertex 15.499999 113.05702 3
      vertex 15.499999 114.78907 3
    endloop
  endfacet
  facet normal 0 0 1
    outer loop
      vertex 15.499999 113.05702 3
      vertex 11 114.78907 3
      vertex 11 113.05702 3
    endloop
  endfacet
  facet normal 0 0 1
    outer loop
      vertex 33.5 104.39677 3
      vertex 36 105.262794 3
      vertex 36 108.7269 3
    endloop
  endfacet
  facet normal 0 0 1
    outer loop
      vertex 36 105.262794 3
      vertex 33.5 104.39677 3
      vertex 35 103.53075 3
    endloop
  endfacet
  facet normal 0 0 1
    outer loop
      vertex 33.5 123.449326 3
      vertex 36 122.583305 3
      vertex 35 124.31535 3
    endloop
  endfacet
  facet normal 0 0 1
    outer loop
      vertex 36 122.583305 3
      vertex 34.95261 120.933334 3
      vertex 36 119.1192 3
    endloop
  endfacet
  facet normal 0 0 1
    outer loop
      vertex 33.5 125.18138 3
      vertex 36 126.0474 3
      vertex 36 129.5115 3
    endloop
  endfacet
  facet normal 0 0 1
    outer loop
      vertex 36 126.0474 3
      vertex 33.5 125.18138 3
      vertex 35 124.31535 3
    endloop
  endfacet
  facet normal 0 0 1
    outer loop
      vertex 33.5 123.449326 3
      vertex 35 124.31535 3
      vertex 33.5 125.18138 3
    endloop
  endfacet
  facet normal 0 0 1
    outer loop
      vertex 36 122.583305 3
      vertex 33.5 123.449326 3
      vertex 34.95261 120.933334 3
    endloop
  endfacet
  facet normal 0 0 1
    outer loop
      vertex 22.5 125.18138 3
      vertex 33.5 123.449326 3
      vertex 33.5 125.18138 3
    endloop
  endfacet
  facet normal 0 0 1
    outer loop
      vertex 22.5 125.18138 3
      vertex 22.5 123.449326 3
      vertex 33.5 123.449326 3
    endloop
  endfacet
  facet normal 0 0 1
    outer loop
      vertex 22.5 125.18138 3
      vertex 21 124.31535 3
      vertex 22.5 123.449326 3
    endloop
  endfacet
  facet normal 0 0 1
    outer loop
      vertex 18.851942 131.5 3
      vertex 21 124.31535 3
      vertex 22.5 125.18138 3
    endloop
  endfacet
  facet normal 0 0 1
    outer loop
      vertex 21 124.31535 3
      vertex 18.851942 131.5 3
      vertex 16.851942 131.5 3
    endloop
  endfacet
  facet normal 0 0 1
    outer loop
      vertex 36 129.5115 3
      vertex 37 132.5 3
      vertex 36 131.5 3
    endloop
  endfacet
  facet normal 0 0 1
    outer loop
      vertex 37 132.5 3
      vertex 18.851942 131.5 3
      vertex 36 131.5 3
    endloop
  endfacet
  facet normal 0 0 1
    outer loop
      vertex 10 132.5 3
      vertex 18.851942 131.5 3
      vertex 37 132.5 3
    endloop
  endfacet
  facet normal 0 0 1
    outer loop
      vertex 18.851942 131.5 3
      vertex 10 132.5 3
      vertex 16.851942 131.5 3
    endloop
  endfacet
  facet normal 0 0 1
    outer loop
      vertex 10 132.5 3
      vertex 11 114.78907 3
      vertex 11 131.5 3
    endloop
  endfacet
  facet normal 0 0 1
    outer loop
      vertex 11 114.78907 3
      vertex 10 132.5 3
      vertex 11 113.05702 3
    endloop
  endfacet
  facet normal 0 0 1
    outer loop
      vertex 11 113.05702 3
      vertex 10 132.5 3
      vertex 11 94.00446 3
    endloop
  endfacet
  facet normal 0 0 1
    outer loop
      vertex 11 94.00446 3
      vertex 10 132.5 3
      vertex 11 92.272415 3
    endloop
  endfacet
  facet normal 0 0 1
    outer loop
      vertex 11 92.272415 3
      vertex 10 132.5 3
      vertex 11 73.21986 3
    endloop
  endfacet
  facet normal 0 0 1
    outer loop
      vertex 11 73.21986 3
      vertex 10 132.5 3
      vertex 11 71.4878 3
    endloop
  endfacet
  facet normal 0 0 1
    outer loop
      vertex 11 71.4878 3
      vertex 10 132.5 3
      vertex 11 52.435246 3
    endloop
  endfacet
  facet normal 0 0 1
    outer loop
      vertex 10 10 3
      vertex 11 52.435246 3
      vertex 10 132.5 3
    endloop
  endfacet
  facet normal 0 0 1
    outer loop
      vertex 11 52.435246 3
      vertex 10 10 3
      vertex 11 50.703194 3
    endloop
  endfacet
  facet normal 0 0 1
    outer loop
      vertex 11 50.703194 3
      vertex 10 10 3
      vertex 11 31.650635 3
    endloop
  endfacet
  facet normal 0 0 1
    outer loop
      vertex 11 31.650635 3
      vertex 10 10 3
      vertex 11 29.918583 3
    endloop
  endfacet
  facet normal 0 0 1
    outer loop
      vertex 16.851942 131.5 3
      vertex 10 132.5 3
      vertex 11 131.5 3
    endloop
  endfacet
  facet normal 0 0 1
    outer loop
      vertex 36 126.0474 3
      vertex 37 132.5 3
      vertex 36 129.5115 3
    endloop
  endfacet
  facet normal 0 0 1
    outer loop
      vertex 36 122.583305 3
      vertex 37 132.5 3
      vertex 36 126.0474 3
    endloop
  endfacet
  facet normal 0 0 1
    outer loop
      vertex 36 119.1192 3
      vertex 37 132.5 3
      vertex 36 122.583305 3
    endloop
  endfacet
  facet normal 0 0 1
    outer loop
      vertex 36 108.7269 3
      vertex 37 132.5 3
      vertex 36 119.1192 3
    endloop
  endfacet
  facet normal 0 0 1
    outer loop
      vertex 36 105.262794 3
      vertex 37 132.5 3
      vertex 36 108.7269 3
    endloop
  endfacet
  facet normal 0 0 1
    outer loop
      vertex 36 101.79869 3
      vertex 37 132.5 3
      vertex 36 105.262794 3
    endloop
  endfacet
  facet normal 0 0 1
    outer loop
      vertex 36 98.33459 3
      vertex 37 132.5 3
      vertex 36 101.79869 3
    endloop
  endfacet
  facet normal 0 0 1
    outer loop
      vertex 36 87.94228 3
      vertex 37 132.5 3
      vertex 36 98.33459 3
    endloop
  endfacet
  facet normal 0 0 1
    outer loop
      vertex 37 132.5 3
      vertex 36 87.94228 3
      vertex 37 10 3
    endloop
  endfacet
  facet normal 0 0 1
    outer loop
      vertex 36 84.47819 3
      vertex 37 10 3
      vertex 36 87.94228 3
    endloop
  endfacet
  facet normal 0 0 1
    outer loop
      vertex 36 81.014084 3
      vertex 37 10 3
      vertex 36 84.47819 3
    endloop
  endfacet
  facet normal 0 0 1
    outer loop
      vertex 36 77.54998 3
      vertex 37 10 3
      vertex 36 81.014084 3
    endloop
  endfacet
  facet normal 0 0 1
    outer loop
      vertex 36 67.15768 3
      vertex 37 10 3
      vertex 36 77.54998 3
    endloop
  endfacet
  facet normal 0 0 1
    outer loop
      vertex 36 63.693573 3
      vertex 37 10 3
      vertex 36 67.15768 3
    endloop
  endfacet
  facet normal 0 0 1
    outer loop
      vertex 36 60.229473 3
      vertex 37 10 3
      vertex 36 63.693573 3
    endloop
  endfacet
  facet normal 0 0 1
    outer loop
      vertex 36 56.76537 3
      vertex 37 10 3
      vertex 36 60.229473 3
    endloop
  endfacet
  facet normal 0 0 1
    outer loop
      vertex 36 46.373066 3
      vertex 37 10 3
      vertex 36 56.76537 3
    endloop
  endfacet
  facet normal 0 0 1
    outer loop
      vertex 36 42.908966 3
      vertex 37 10 3
      vertex 36 46.373066 3
    endloop
  endfacet
  facet normal 0 0 1
    outer loop
      vertex 36 39.444862 3
      vertex 37 10 3
      vertex 36 42.908966 3
    endloop
  endfacet
  facet normal 0 0 1
    outer loop
      vertex 36 35.980762 3
      vertex 37 10 3
      vertex 36 39.444862 3
    endloop
  endfacet
  facet normal 0 0 1
    outer loop
      vertex 36 25.588457 3
      vertex 37 10 3
      vertex 36 35.980762 3
    endloop
  endfacet
  facet normal 0 0 1
    outer loop
      vertex 36 22.124355 3
      vertex 37 10 3
      vertex 36 25.588457 3
    endloop
  endfacet
  facet normal 0 0 1
    outer loop
      vertex 36 18.660254 3
      vertex 37 10 3
      vertex 36 22.124355 3
    endloop
  endfacet
  facet normal 0 0 1
    outer loop
      vertex 36 15.196152 3
      vertex 37 10 3
      vertex 36 18.660254 3
    endloop
  endfacet
  facet normal 0 0 1
    outer loop
      vertex 36 11 3
      vertex 37 10 3
      vertex 36 15.196152 3
    endloop
  endfacet
  facet normal 0 0 1
    outer loop
      vertex 17.57735 11 3
      vertex 37 10 3
      vertex 36 11 3
    endloop
  endfacet
  facet normal 0 0 1
    outer loop
      vertex 10 10 3
      vertex 17.57735 11 3
      vertex 15.577351 11 3
    endloop
  endfacet
  facet normal 0 0 1
    outer loop
      vertex 10 10 3
      vertex 15.577351 11 3
      vertex 11 11 3
    endloop
  endfacet
  facet normal 0 0 1
    outer loop
      vertex 17.57735 11 3
      vertex 10 10 3
      vertex 37 10 3
    endloop
  endfacet
  facet normal 0 0 1
    outer loop
      vertex 11 29.918583 3
      vertex 10 10 3
      vertex 11 11 3
    endloop
  endfacet
endsolid OpenSCAD_Model
