solid OpenSCAD_Model
  facet normal -1 0 0
    outer loop
      vertex 65.5 0 15.5
      vertex 65.5 137.7 17
      vertex 65.5 137.7 15.5
    endloop
  endfacet
  facet normal -1 0 0
    outer loop
      vertex 65.5 137.7 17
      vertex 65.5 0 15.5
      vertex 65.5 0 17
    endloop
  endfacet
  facet normal 0 0 1
    outer loop
      vertex 64 136 14
      vertex 66.5 0.41421396 14
      vertex 66.5 138.5 14
    endloop
  endfacet
  facet normal 0 0 1
    outer loop
      vertex 66.5 0.41421396 14
      vertex 64 136 14
      vertex 64 2 14
    endloop
  endfacet
  facet normal 0 0 1
    outer loop
      vertex 1 138.5 14
      vertex 64 136 14
      vertex 66.5 138.5 14
    endloop
  endfacet
  facet normal 0 0 1
    outer loop
      vertex 1 0.41421396 14
      vertex 2 2 14
      vertex 2 136 14
    endloop
  endfacet
  facet normal 0 0 1
    outer loop
      vertex 64 136 14
      vertex 1 138.5 14
      vertex 2 136 14
    endloop
  endfacet
  facet normal 0 0 1
    outer loop
      vertex 1 0.41421396 14
      vertex 2 136 14
      vertex 1 138.5 14
    endloop
  endfacet
  facet normal 0 0 1
    outer loop
      vertex 2 2 14
      vertex 1 0.41421396 14
      vertex 2 0 14
    endloop
  endfacet
  facet normal 0 0 1
    outer loop
      vertex 66.5 0.41421396 14
      vertex 64 2 14
      vertex 65.5 0 14
    endloop
  endfacet
  facet normal 0 0 1
    outer loop
      vertex 64 2 14
      vertex 51.64847 0 14
      vertex 65.5 0 14
    endloop
  endfacet
  facet normal 0 0 1
    outer loop
      vertex 50.75 2 14
      vertex 51.64847 0 14
      vertex 64 2 14
    endloop
  endfacet
  facet normal 0 0 1
    outer loop
      vertex 50.75 0.99 14
      vertex 51.64847 0 14
      vertex 50.75 2 14
    endloop
  endfacet
  facet normal 0 0 1
    outer loop
      vertex 51.194427 0.15853046 14
      vertex 51.64847 0 14
      vertex 50.75 0.99 14
    endloop
  endfacet
  facet normal 0 0 1
    outer loop
      vertex 51.64847 0 14
      vertex 51.367317 0.06612133 14
      vertex 51.55491 0.009215584 14
    endloop
  endfacet
  facet normal 0 0 1
    outer loop
      vertex 51.64847 0 14
      vertex 51.194427 0.15853046 14
      vertex 51.367317 0.06612133 14
    endloop
  endfacet
  facet normal 0 0 1
    outer loop
      vertex 51.194427 0.15853046 14
      vertex 50.75 0.99 14
      vertex 51.042892 0.28289342 14
    endloop
  endfacet
  facet normal 0 0 1
    outer loop
      vertex 51.042892 0.28289342 14
      vertex 50.75 0.99 14
      vertex 50.91853 0.43443036 14
    endloop
  endfacet
  facet normal 0 0 1
    outer loop
      vertex 50.91853 0.43443036 14
      vertex 50.75 0.99 14
      vertex 50.82612 0.6073172 14
    endloop
  endfacet
  facet normal 0 0 1
    outer loop
      vertex 50.82612 0.6073172 14
      vertex 50.75 0.99 14
      vertex 50.769215 0.7949097 14
    endloop
  endfacet
  facet normal 0 0 1
    outer loop
      vertex 19.851528 0 14
      vertex 20.75 0.99 14
      vertex 20.75 2 14
    endloop
  endfacet
  facet normal 0 0 1
    outer loop
      vertex 20.75 0.99 14
      vertex 19.851528 0 14
      vertex 20.730785 0.7949097 14
    endloop
  endfacet
  facet normal 0 0 1
    outer loop
      vertex 20.730785 0.7949097 14
      vertex 19.851528 0 14
      vertex 20.67388 0.6073172 14
    endloop
  endfacet
  facet normal 0 0 1
    outer loop
      vertex 20.67388 0.6073172 14
      vertex 19.851528 0 14
      vertex 20.58147 0.43443036 14
    endloop
  endfacet
  facet normal 0 0 1
    outer loop
      vertex 20.58147 0.43443036 14
      vertex 19.851528 0 14
      vertex 20.457108 0.28289342 14
    endloop
  endfacet
  facet normal 0 0 1
    outer loop
      vertex 20.457108 0.28289342 14
      vertex 19.851528 0 14
      vertex 20.30557 0.15853046 14
    endloop
  endfacet
  facet normal 0 0 1
    outer loop
      vertex 20.30557 0.15853046 14
      vertex 19.851528 0 14
      vertex 20.132683 0.06612133 14
    endloop
  endfacet
  facet normal 0 0 1
    outer loop
      vertex 20.132683 0.06612133 14
      vertex 19.851528 0 14
      vertex 19.945091 0.009215584 14
    endloop
  endfacet
  facet normal 0 0 1
    outer loop
      vertex 2 2 14
      vertex 19.851528 0 14
      vertex 20.75 2 14
    endloop
  endfacet
  facet normal 0 0 1
    outer loop
      vertex 19.851528 0 14
      vertex 2 2 14
      vertex 2 0 14
    endloop
  endfacet
  facet normal 1 0 0
    outer loop
      vertex 2 0 17
      vertex 2 137.7 15.5
      vertex 2 137.7 17
    endloop
  endfacet
  facet normal 1 0 0
    outer loop
      vertex 2 137.7 15.5
      vertex 2 0 17
      vertex 2 0 15.5
    endloop
  endfacet
  facet normal 1 0 0
    outer loop
      vertex 2 2 14
      vertex 2 136 2
      vertex 2 136 14
    endloop
  endfacet
  facet normal 1 0 0
    outer loop
      vertex 2 136 2
      vertex 2 2 14
      vertex 2 2 2
    endloop
  endfacet
  facet normal 0 -1 0
    outer loop
      vertex 2 137.7 15.5
      vertex 65.5 137.7 17
      vertex 2 137.7 17
    endloop
  endfacet
  facet normal 0 -1 0
    outer loop
      vertex 65.5 137.7 17
      vertex 2 137.7 15.5
      vertex 65.5 137.7 15.5
    endloop
  endfacet
  facet normal 0 0 -1
    outer loop
      vertex 2 0 15.5
      vertex 1.5 0.20710698 15.5
      vertex 2 137.7 15.5
    endloop
  endfacet
  facet normal 0 0 -1
    outer loop
      vertex 65.5 137.7 15.5
      vertex 66 0.20710698 15.5
      vertex 65.5 0 15.5
    endloop
  endfacet
  facet normal 0 0 -1
    outer loop
      vertex 66 0.20710698 15.5
      vertex 65.5 137.7 15.5
      vertex 66 138 15.5
    endloop
  endfacet
  facet normal 0 0 -1
    outer loop
      vertex 2 137.7 15.5
      vertex 66 138 15.5
      vertex 65.5 137.7 15.5
    endloop
  endfacet
  facet normal 0 0 -1
    outer loop
      vertex 2 137.7 15.5
      vertex 1.5 138 15.5
      vertex 66 138 15.5
    endloop
  endfacet
  facet normal 0 0 -1
    outer loop
      vertex 1.5 138 15.5
      vertex 2 137.7 15.5
      vertex 1.5 0.20710698 15.5
    endloop
  endfacet
  facet normal 0.70710677 0 -0.70710677
    outer loop
      vertex 1.5 138 15.5
      vertex 1 0.41421396 15
      vertex 1 138.5 15
    endloop
  endfacet
  facet normal 0.70710677 0 -0.70710677
    outer loop
      vertex 1 0.41421396 15
      vertex 1.5 138 15.5
      vertex 1.5 0.20710698 15.5
    endloop
  endfacet
  facet normal -0.70710677 0 -0.70710677
    outer loop
      vertex 66.5 0.41421396 15
      vertex 66 138 15.5
      vertex 66.5 138.5 15
    endloop
  endfacet
  facet normal -0.70710677 0 -0.70710677
    outer loop
      vertex 66 138 15.5
      vertex 66.5 0.41421396 15
      vertex 66 0.20710698 15.5
    endloop
  endfacet
  facet normal 1 0 0
    outer loop
      vertex 1 0.41421396 15
      vertex 1 138.5 14
      vertex 1 138.5 15
    endloop
  endfacet
  facet normal 1 0 0
    outer loop
      vertex 1 138.5 14
      vertex 1 0.41421396 15
      vertex 1 0.41421396 14
    endloop
  endfacet
  facet normal -1 0 0
    outer loop
      vertex 66.5 0.41421396 14
      vertex 66.5 138.5 15
      vertex 66.5 138.5 14
    endloop
  endfacet
  facet normal -1 0 0
    outer loop
      vertex 66.5 138.5 15
      vertex 66.5 0.41421396 14
      vertex 66.5 0.41421396 15
    endloop
  endfacet
  facet normal 0 -0.70710677 -0.70710677
    outer loop
      vertex 1 138.5 15
      vertex 66 138 15.5
      vertex 1.5 138 15.5
    endloop
  endfacet
  facet normal 0 -0.70710677 -0.70710677
    outer loop
      vertex 66 138 15.5
      vertex 1 138.5 15
      vertex 66.5 138.5 15
    endloop
  endfacet
  facet normal 0 -1 0
    outer loop
      vertex 1 138.5 14
      vertex 66.5 138.5 15
      vertex 1 138.5 15
    endloop
  endfacet
  facet normal 0 -1 0
    outer loop
      vertex 66.5 138.5 15
      vertex 1 138.5 14
      vertex 66.5 138.5 14
    endloop
  endfacet
  facet normal 0 -1 0
    outer loop
      vertex 50.725437 2.5 0
      vertex 50.75 2.5 2
      vertex 50.725437 2.5 2
    endloop
  endfacet
  facet normal 0 -1 0
    outer loop
      vertex 50.75 2.5 2
      vertex 50.725437 2.5 0
      vertex 50.75 2.5 0
    endloop
  endfacet
  facet normal 0 -1 0
    outer loop
      vertex 20.75 2.5 0
      vertex 20.774563 2.5 2
      vertex 20.75 2.5 2
    endloop
  endfacet
  facet normal 0 -1 0
    outer loop
      vertex 20.774563 2.5 2
      vertex 20.75 2.5 0
      vertex 20.774563 2.5 0
    endloop
  endfacet
  facet normal -1 0 0
    outer loop
      vertex 50.75 2.5 0
      vertex 50.75 2 2
      vertex 50.75 2.5 2
    endloop
  endfacet
  facet normal -1 0 0
    outer loop
      vertex 50.75 0.99 0
      vertex 50.75 2 2
      vertex 50.75 2.5 0
    endloop
  endfacet
  facet normal -1 0 0
    outer loop
      vertex 50.75 0.99 14
      vertex 50.75 2 2
      vertex 50.75 0.99 0
    endloop
  endfacet
  facet normal -1 0 0
    outer loop
      vertex 50.75 2 2
      vertex 50.75 0.99 14
      vertex 50.75 2 14
    endloop
  endfacet
  facet normal 1 0 0
    outer loop
      vertex 20.75 2 14
      vertex 20.75 0.99 14
      vertex 20.75 2 2
    endloop
  endfacet
  facet normal 1 0 0
    outer loop
      vertex 20.75 2 2
      vertex 20.75 2.5 0
      vertex 20.75 2.5 2
    endloop
  endfacet
  facet normal 1 0 0
    outer loop
      vertex 20.75 2 2
      vertex 20.75 0.99 0
      vertex 20.75 2.5 0
    endloop
  endfacet
  facet normal 1 0 0
    outer loop
      vertex 20.75 0.99 0
      vertex 20.75 2 2
      vertex 20.75 0.99 14
    endloop
  endfacet
  facet normal 0.09802162 -0.9951843 0
    outer loop
      vertex 19.851528 0 0
      vertex 19.945091 0.009215584 14
      vertex 19.851528 0 14
    endloop
  endfacet
  facet normal 0.09802162 -0.9951843 0
    outer loop
      vertex 19.945091 0.009215584 14
      vertex 19.851528 0 0
      vertex 19.945091 0.009215584 0
    endloop
  endfacet
  facet normal 0.95694005 -0.29028553 0
    outer loop
      vertex 20.67388 0.6073172 14
      vertex 20.730785 0.7949097 0
      vertex 20.730785 0.7949097 14
    endloop
  endfacet
  facet normal 0.95694005 -0.29028553 0
    outer loop
      vertex 20.730785 0.7949097 0
      vertex 20.67388 0.6073172 14
      vertex 20.67388 0.6073172 0
    endloop
  endfacet
  facet normal 0.6343927 -0.7730109 0
    outer loop
      vertex 20.30557 0.15853046 0
      vertex 20.457108 0.28289342 14
      vertex 20.30557 0.15853046 14
    endloop
  endfacet
  facet normal 0.6343927 -0.7730109 0
    outer loop
      vertex 20.457108 0.28289342 14
      vertex 20.30557 0.15853046 0
      vertex 20.457108 0.28289342 0
    endloop
  endfacet
  facet normal 0.88192296 -0.47139353 0
    outer loop
      vertex 20.58147 0.43443036 14
      vertex 20.67388 0.6073172 0
      vertex 20.67388 0.6073172 14
    endloop
  endfacet
  facet normal 0.88192296 -0.47139353 0
    outer loop
      vertex 20.67388 0.6073172 0
      vertex 20.58147 0.43443036 14
      vertex 20.58147 0.43443036 0
    endloop
  endfacet
  facet normal 0.9951848 -0.0980167 0
    outer loop
      vertex 20.730785 0.7949097 14
      vertex 20.75 0.99 0
      vertex 20.75 0.99 14
    endloop
  endfacet
  facet normal 0.9951848 -0.0980167 0
    outer loop
      vertex 20.75 0.99 0
      vertex 20.730785 0.7949097 14
      vertex 20.730785 0.7949097 0
    endloop
  endfacet
  facet normal 0.77301097 -0.6343927 0
    outer loop
      vertex 20.457108 0.28289342 14
      vertex 20.58147 0.43443036 0
      vertex 20.58147 0.43443036 14
    endloop
  endfacet
  facet normal 0.77301097 -0.6343927 0
    outer loop
      vertex 20.58147 0.43443036 0
      vertex 20.457108 0.28289342 14
      vertex 20.457108 0.28289342 0
    endloop
  endfacet
  facet normal 0.2902869 -0.95693964 0
    outer loop
      vertex 19.945091 0.009215584 0
      vertex 20.132683 0.06612133 14
      vertex 19.945091 0.009215584 14
    endloop
  endfacet
  facet normal 0.2902869 -0.95693964 0
    outer loop
      vertex 20.132683 0.06612133 14
      vertex 19.945091 0.009215584 0
      vertex 20.132683 0.06612133 0
    endloop
  endfacet
  facet normal 0.47139147 -0.8819241 0
    outer loop
      vertex 20.132683 0.06612133 0
      vertex 20.30557 0.15853046 14
      vertex 20.132683 0.06612133 14
    endloop
  endfacet
  facet normal 0.47139147 -0.8819241 0
    outer loop
      vertex 20.30557 0.15853046 14
      vertex 20.132683 0.06612133 0
      vertex 20.30557 0.15853046 0
    endloop
  endfacet
  facet normal -0.77301097 -0.6343927 0
    outer loop
      vertex 51.042892 0.28289342 0
      vertex 50.91853 0.43443036 14
      vertex 50.91853 0.43443036 0
    endloop
  endfacet
  facet normal -0.77301097 -0.6343927 0
    outer loop
      vertex 50.91853 0.43443036 14
      vertex 51.042892 0.28289342 0
      vertex 51.042892 0.28289342 14
    endloop
  endfacet
  facet normal -0.9569428 -0.29027662 0
    outer loop
      vertex 50.82612 0.6073172 0
      vertex 50.769215 0.7949097 14
      vertex 50.769215 0.7949097 0
    endloop
  endfacet
  facet normal -0.9569428 -0.29027662 0
    outer loop
      vertex 50.769215 0.7949097 14
      vertex 50.82612 0.6073172 0
      vertex 50.82612 0.6073172 14
    endloop
  endfacet
  facet normal -0.47138742 -0.88192624 0
    outer loop
      vertex 51.194427 0.15853046 0
      vertex 51.367317 0.06612133 14
      vertex 51.194427 0.15853046 14
    endloop
  endfacet
  facet normal -0.47138742 -0.88192624 0
    outer loop
      vertex 51.367317 0.06612133 14
      vertex 51.194427 0.15853046 0
      vertex 51.367317 0.06612133 0
    endloop
  endfacet
  facet normal -0.63439745 -0.77300704 0
    outer loop
      vertex 51.042892 0.28289342 0
      vertex 51.194427 0.15853046 14
      vertex 51.042892 0.28289342 14
    endloop
  endfacet
  facet normal -0.63439745 -0.77300704 0
    outer loop
      vertex 51.194427 0.15853046 14
      vertex 51.042892 0.28289342 0
      vertex 51.194427 0.15853046 0
    endloop
  endfacet
  facet normal -0.09802162 -0.9951843 0
    outer loop
      vertex 51.55491 0.009215584 0
      vertex 51.64847 0 14
      vertex 51.55491 0.009215584 14
    endloop
  endfacet
  facet normal -0.09802162 -0.9951843 0
    outer loop
      vertex 51.64847 0 14
      vertex 51.55491 0.009215584 0
      vertex 51.64847 0 0
    endloop
  endfacet
  facet normal -0.88191897 -0.4714011 0
    outer loop
      vertex 50.91853 0.43443036 0
      vertex 50.82612 0.6073172 14
      vertex 50.82612 0.6073172 0
    endloop
  endfacet
  facet normal -0.88191897 -0.4714011 0
    outer loop
      vertex 50.82612 0.6073172 14
      vertex 50.91853 0.43443036 0
      vertex 50.91853 0.43443036 14
    endloop
  endfacet
  facet normal -0.2902869 -0.95693964 0
    outer loop
      vertex 51.367317 0.06612133 0
      vertex 51.55491 0.009215584 14
      vertex 51.367317 0.06612133 14
    endloop
  endfacet
  facet normal -0.2902869 -0.95693964 0
    outer loop
      vertex 51.55491 0.009215584 14
      vertex 51.367317 0.06612133 0
      vertex 51.55491 0.009215584 0
    endloop
  endfacet
  facet normal -0.9951848 -0.0980167 0
    outer loop
      vertex 50.769215 0.7949097 0
      vertex 50.75 0.99 14
      vertex 50.75 0.99 0
    endloop
  endfacet
  facet normal -0.9951848 -0.0980167 0
    outer loop
      vertex 50.75 0.99 14
      vertex 50.769215 0.7949097 0
      vertex 50.769215 0.7949097 14
    endloop
  endfacet
  facet normal -0.9891761 -0.14673321 0
    outer loop
      vertex 50.677773 3.4702568 0
      vertex 50.461777 4.9263544 2
      vertex 50.461777 4.9263544 0
    endloop
  endfacet
  facet normal -0.9891761 -0.14673321 0
    outer loop
      vertex 50.461777 4.9263544 2
      vertex 50.677773 3.4702568 0
      vertex 50.677773 3.4702568 2
    endloop
  endfacet
  facet normal -0.9987955 -0.04906663 0
    outer loop
      vertex 50.725437 2.5 0
      vertex 50.677773 3.4702568 2
      vertex 50.677773 3.4702568 0
    endloop
  endfacet
  facet normal -0.9987955 -0.04906663 0
    outer loop
      vertex 50.677773 3.4702568 2
      vertex 50.725437 2.5 0
      vertex 50.725437 2.5 2
    endloop
  endfacet
  facet normal -0.9700313 -0.24297981 0
    outer loop
      vertex 50.461777 4.9263544 0
      vertex 50.104103 6.35427 2
      vertex 50.104103 6.35427 0
    endloop
  endfacet
  facet normal -0.9700313 -0.24297981 0
    outer loop
      vertex 50.104103 6.35427 2
      vertex 50.461777 4.9263544 0
      vertex 50.461777 4.9263544 2
    endloop
  endfacet
  facet normal -0.14673077 -0.98917645 0
    outer loop
      vertex 37.220257 16.92777 0
      vertex 38.676353 16.711779 2
      vertex 37.220257 16.92777 2
    endloop
  endfacet
  facet normal -0.14673077 -0.98917645 0
    outer loop
      vertex 38.676353 16.711779 2
      vertex 37.220257 16.92777 0
      vertex 38.676353 16.711779 0
    endloop
  endfacet
  facet normal -0.5141024 -0.85772884 0
    outer loop
      vertex 42.82095 15.228819 0
      vertex 44.083553 14.472044 2
      vertex 42.82095 15.228819 2
    endloop
  endfacet
  facet normal -0.5141024 -0.85772884 0
    outer loop
      vertex 44.083553 14.472044 2
      vertex 42.82095 15.228819 0
      vertex 44.083553 14.472044 0
    endloop
  endfacet
  facet normal 0.514103 -0.8577285 0
    outer loop
      vertex 27.416447 14.472044 0
      vertex 28.679049 15.228819 2
      vertex 27.416447 14.472044 2
    endloop
  endfacet
  facet normal 0.514103 -0.8577285 0
    outer loop
      vertex 28.679049 15.228819 2
      vertex 27.416447 14.472044 0
      vertex 28.679049 15.228819 0
    endloop
  endfacet
  facet normal -0.33689073 -0.94154376 0
    outer loop
      vertex 40.10427 16.354105 0
      vertex 41.49025 15.858192 2
      vertex 40.10427 16.354105 2
    endloop
  endfacet
  facet normal -0.33689073 -0.94154376 0
    outer loop
      vertex 41.49025 15.858192 2
      vertex 40.10427 16.354105 0
      vertex 41.49025 15.858192 0
    endloop
  endfacet
  facet normal -0.80320716 -0.59569985 0
    outer loop
      vertex 48.222046 10.333553 0
      vertex 47.345158 11.515899 2
      vertex 47.345158 11.515899 0
    endloop
  endfacet
  facet normal -0.80320716 -0.59569985 0
    outer loop
      vertex 47.345158 11.515899 2
      vertex 48.222046 10.333553 0
      vertex 48.222046 10.333553 2
    endloop
  endfacet
  facet normal 0.14673077 -0.98917645 0
    outer loop
      vertex 32.823647 16.711779 0
      vertex 34.279743 16.92777 2
      vertex 32.823647 16.711779 2
    endloop
  endfacet
  facet normal 0.14673077 -0.98917645 0
    outer loop
      vertex 34.279743 16.92777 2
      vertex 32.823647 16.711779 0
      vertex 34.279743 16.92777 0
    endloop
  endfacet
  facet normal -0.90399 -0.42755368 0
    outer loop
      vertex 49.608192 7.7402506 0
      vertex 48.97882 9.0709505 2
      vertex 48.97882 9.0709505 0
    endloop
  endfacet
  facet normal -0.90399 -0.42755368 0
    outer loop
      vertex 48.97882 9.0709505 2
      vertex 49.608192 7.7402506 0
      vertex 49.608192 7.7402506 2
    endloop
  endfacet
  facet normal 0.2429795 -0.97003144 0
    outer loop
      vertex 31.39573 16.354105 0
      vertex 32.823647 16.711779 2
      vertex 31.39573 16.354105 2
    endloop
  endfacet
  facet normal 0.2429795 -0.97003144 0
    outer loop
      vertex 32.823647 16.711779 2
      vertex 31.39573 16.354105 0
      vertex 32.823647 16.711779 0
    endloop
  endfacet
  facet normal -0.9415443 -0.33688918 0
    outer loop
      vertex 50.104103 6.35427 0
      vertex 49.608192 7.7402506 2
      vertex 49.608192 7.7402506 0
    endloop
  endfacet
  facet normal -0.9415443 -0.33688918 0
    outer loop
      vertex 49.608192 7.7402506 2
      vertex 50.104103 6.35427 0
      vertex 50.104103 6.35427 2
    endloop
  endfacet
  facet normal -0.5956991 -0.8032077 0
    outer loop
      vertex 44.083553 14.472044 0
      vertex 45.2659 13.595157 2
      vertex 44.083553 14.472044 2
    endloop
  endfacet
  facet normal -0.5956991 -0.8032077 0
    outer loop
      vertex 45.2659 13.595157 2
      vertex 44.083553 14.472044 0
      vertex 45.2659 13.595157 0
    endloop
  endfacet
  facet normal 0.9415435 -0.33689147 0
    outer loop
      vertex 21.395893 6.35427 2
      vertex 21.891808 7.7402506 0
      vertex 21.891808 7.7402506 2
    endloop
  endfacet
  facet normal 0.9415435 -0.33689147 0
    outer loop
      vertex 21.891808 7.7402506 0
      vertex 21.395893 6.35427 2
      vertex 21.395893 6.35427 0
    endloop
  endfacet
  facet normal 0.67155904 -0.74095106 0
    outer loop
      vertex 25.143398 12.606602 0
      vertex 26.2341 13.595157 2
      vertex 25.143398 12.606602 2
    endloop
  endfacet
  facet normal 0.67155904 -0.74095106 0
    outer loop
      vertex 26.2341 13.595157 2
      vertex 25.143398 12.606602 0
      vertex 26.2341 13.595157 0
    endloop
  endfacet
  facet normal -0.67155904 -0.74095106 0
    outer loop
      vertex 45.2659 13.595157 0
      vertex 46.3566 12.606602 2
      vertex 45.2659 13.595157 2
    endloop
  endfacet
  facet normal -0.67155904 -0.74095106 0
    outer loop
      vertex 46.3566 12.606602 2
      vertex 45.2659 13.595157 0
      vertex 46.3566 12.606602 0
    endloop
  endfacet
  facet normal 0.5956991 -0.8032077 0
    outer loop
      vertex 26.2341 13.595157 0
      vertex 27.416447 14.472044 2
      vertex 26.2341 13.595157 2
    endloop
  endfacet
  facet normal 0.5956991 -0.8032077 0
    outer loop
      vertex 27.416447 14.472044 2
      vertex 26.2341 13.595157 0
      vertex 27.416447 14.472044 0
    endloop
  endfacet
  facet normal -0.740951 -0.6715591 0
    outer loop
      vertex 47.345158 11.515899 0
      vertex 46.3566 12.606602 2
      vertex 46.3566 12.606602 0
    endloop
  endfacet
  facet normal -0.740951 -0.6715591 0
    outer loop
      vertex 46.3566 12.606602 2
      vertex 47.345158 11.515899 0
      vertex 47.345158 11.515899 2
    endloop
  endfacet
  facet normal 0.3368903 -0.9415439 0
    outer loop
      vertex 30.009748 15.858192 0
      vertex 31.39573 16.354105 2
      vertex 30.009748 15.858192 2
    endloop
  endfacet
  facet normal 0.3368903 -0.9415439 0
    outer loop
      vertex 31.39573 16.354105 2
      vertex 30.009748 15.858192 0
      vertex 31.39573 16.354105 0
    endloop
  endfacet
  facet normal -0.049067877 -0.99879545 0
    outer loop
      vertex 35.75 17 0
      vertex 37.220257 16.92777 2
      vertex 35.75 17 2
    endloop
  endfacet
  facet normal -0.049067877 -0.99879545 0
    outer loop
      vertex 37.220257 16.92777 2
      vertex 35.75 17 0
      vertex 37.220257 16.92777 0
    endloop
  endfacet
  facet normal 0.049067877 -0.99879545 0
    outer loop
      vertex 34.279743 16.92777 0
      vertex 35.75 17 2
      vertex 34.279743 16.92777 2
    endloop
  endfacet
  facet normal 0.049067877 -0.99879545 0
    outer loop
      vertex 35.75 17 2
      vertex 34.279743 16.92777 0
      vertex 35.75 17 0
    endloop
  endfacet
  facet normal 0.85772866 -0.5141027 0
    outer loop
      vertex 22.52118 9.0709505 2
      vertex 23.277954 10.333553 0
      vertex 23.277954 10.333553 2
    endloop
  endfacet
  facet normal 0.85772866 -0.5141027 0
    outer loop
      vertex 23.277954 10.333553 0
      vertex 22.52118 9.0709505 2
      vertex 22.52118 9.0709505 0
    endloop
  endfacet
  facet normal 0.9987955 -0.04906663 0
    outer loop
      vertex 20.774563 2.5 2
      vertex 20.822227 3.4702568 0
      vertex 20.822227 3.4702568 2
    endloop
  endfacet
  facet normal 0.9987955 -0.04906663 0
    outer loop
      vertex 20.822227 3.4702568 0
      vertex 20.774563 2.5 2
      vertex 20.774563 2.5 0
    endloop
  endfacet
  facet normal 0.98917645 -0.14673068 0
    outer loop
      vertex 20.822227 3.4702568 2
      vertex 21.03822 4.9263544 0
      vertex 21.03822 4.9263544 2
    endloop
  endfacet
  facet normal 0.98917645 -0.14673068 0
    outer loop
      vertex 21.03822 4.9263544 0
      vertex 20.822227 3.4702568 2
      vertex 20.822227 3.4702568 0
    endloop
  endfacet
  facet normal 0.90399 -0.42755368 0
    outer loop
      vertex 21.891808 7.7402506 2
      vertex 22.52118 9.0709505 0
      vertex 22.52118 9.0709505 2
    endloop
  endfacet
  facet normal 0.90399 -0.42755368 0
    outer loop
      vertex 22.52118 9.0709505 0
      vertex 21.891808 7.7402506 2
      vertex 21.891808 7.7402506 0
    endloop
  endfacet
  facet normal -0.85772866 -0.5141027 0
    outer loop
      vertex 48.97882 9.0709505 0
      vertex 48.222046 10.333553 2
      vertex 48.222046 10.333553 0
    endloop
  endfacet
  facet normal -0.85772866 -0.5141027 0
    outer loop
      vertex 48.222046 10.333553 2
      vertex 48.97882 9.0709505 0
      vertex 48.97882 9.0709505 2
    endloop
  endfacet
  facet normal 0.9700313 -0.24297981 0
    outer loop
      vertex 21.03822 4.9263544 2
      vertex 21.395893 6.35427 0
      vertex 21.395893 6.35427 2
    endloop
  endfacet
  facet normal 0.9700313 -0.24297981 0
    outer loop
      vertex 21.395893 6.35427 0
      vertex 21.03822 4.9263544 2
      vertex 21.03822 4.9263544 0
    endloop
  endfacet
  facet normal -0.2429795 -0.97003144 0
    outer loop
      vertex 38.676353 16.711779 0
      vertex 40.10427 16.354105 2
      vertex 38.676353 16.711779 2
    endloop
  endfacet
  facet normal -0.2429795 -0.97003144 0
    outer loop
      vertex 40.10427 16.354105 2
      vertex 38.676353 16.711779 0
      vertex 40.10427 16.354105 0
    endloop
  endfacet
  facet normal 0.740951 -0.6715591 0
    outer loop
      vertex 24.154842 11.515899 2
      vertex 25.143398 12.606602 0
      vertex 25.143398 12.606602 2
    endloop
  endfacet
  facet normal 0.740951 -0.6715591 0
    outer loop
      vertex 25.143398 12.606602 0
      vertex 24.154842 11.515899 2
      vertex 24.154842 11.515899 0
    endloop
  endfacet
  facet normal 0.80320716 -0.59569985 0
    outer loop
      vertex 23.277954 10.333553 2
      vertex 24.154842 11.515899 0
      vertex 24.154842 11.515899 2
    endloop
  endfacet
  facet normal 0.80320716 -0.59569985 0
    outer loop
      vertex 24.154842 11.515899 0
      vertex 23.277954 10.333553 2
      vertex 23.277954 10.333553 0
    endloop
  endfacet
  facet normal -0.42755473 -0.90398943 0
    outer loop
      vertex 41.49025 15.858192 0
      vertex 42.82095 15.228819 2
      vertex 41.49025 15.858192 2
    endloop
  endfacet
  facet normal -0.42755473 -0.90398943 0
    outer loop
      vertex 42.82095 15.228819 2
      vertex 41.49025 15.858192 0
      vertex 42.82095 15.228819 0
    endloop
  endfacet
  facet normal 0.42755473 -0.90398943 0
    outer loop
      vertex 28.679049 15.228819 0
      vertex 30.009748 15.858192 2
      vertex 28.679049 15.228819 2
    endloop
  endfacet
  facet normal 0.42755473 -0.90398943 0
    outer loop
      vertex 30.009748 15.858192 2
      vertex 28.679049 15.228819 0
      vertex 30.009748 15.858192 0
    endloop
  endfacet
  facet normal -1 0 0
    outer loop
      vertex 64 2 2
      vertex 64 136 14
      vertex 64 136 2
    endloop
  endfacet
  facet normal -1 0 0
    outer loop
      vertex 64 136 14
      vertex 64 2 2
      vertex 64 2 14
    endloop
  endfacet
  facet normal 0 0 1
    outer loop
      vertex 45.2659 13.595157 2
      vertex 64 2 2
      vertex 64 136 2
    endloop
  endfacet
  facet normal 0 0 1
    outer loop
      vertex 64 2 2
      vertex 50.677773 3.4702568 2
      vertex 50.75 2.5 2
    endloop
  endfacet
  facet normal 0 0 1
    outer loop
      vertex 50.75 2.5 2
      vertex 50.677773 3.4702568 2
      vertex 50.725437 2.5 2
    endloop
  endfacet
  facet normal 0 0 1
    outer loop
      vertex 64 2 2
      vertex 50.461777 4.9263544 2
      vertex 50.677773 3.4702568 2
    endloop
  endfacet
  facet normal 0 0 1
    outer loop
      vertex 64 2 2
      vertex 50.104103 6.35427 2
      vertex 50.461777 4.9263544 2
    endloop
  endfacet
  facet normal 0 0 1
    outer loop
      vertex 64 2 2
      vertex 49.608192 7.7402506 2
      vertex 50.104103 6.35427 2
    endloop
  endfacet
  facet normal 0 0 1
    outer loop
      vertex 64 2 2
      vertex 48.97882 9.0709505 2
      vertex 49.608192 7.7402506 2
    endloop
  endfacet
  facet normal 0 0 1
    outer loop
      vertex 64 2 2
      vertex 48.222046 10.333553 2
      vertex 48.97882 9.0709505 2
    endloop
  endfacet
  facet normal 0 0 1
    outer loop
      vertex 64 2 2
      vertex 47.345158 11.515899 2
      vertex 48.222046 10.333553 2
    endloop
  endfacet
  facet normal 0 0 1
    outer loop
      vertex 64 2 2
      vertex 46.3566 12.606602 2
      vertex 47.345158 11.515899 2
    endloop
  endfacet
  facet normal 0 0 1
    outer loop
      vertex 64 2 2
      vertex 45.2659 13.595157 2
      vertex 46.3566 12.606602 2
    endloop
  endfacet
  facet normal 0 0 1
    outer loop
      vertex 64 136 2
      vertex 44.083553 14.472044 2
      vertex 45.2659 13.595157 2
    endloop
  endfacet
  facet normal 0 0 1
    outer loop
      vertex 64 136 2
      vertex 42.82095 15.228819 2
      vertex 44.083553 14.472044 2
    endloop
  endfacet
  facet normal 0 0 1
    outer loop
      vertex 64 136 2
      vertex 41.49025 15.858192 2
      vertex 42.82095 15.228819 2
    endloop
  endfacet
  facet normal 0 0 1
    outer loop
      vertex 64 136 2
      vertex 40.10427 16.354105 2
      vertex 41.49025 15.858192 2
    endloop
  endfacet
  facet normal 0 0 1
    outer loop
      vertex 64 136 2
      vertex 38.676353 16.711779 2
      vertex 40.10427 16.354105 2
    endloop
  endfacet
  facet normal 0 0 1
    outer loop
      vertex 64 136 2
      vertex 37.220257 16.92777 2
      vertex 38.676353 16.711779 2
    endloop
  endfacet
  facet normal 0 0 1
    outer loop
      vertex 64 136 2
      vertex 35.75 17 2
      vertex 37.220257 16.92777 2
    endloop
  endfacet
  facet normal 0 0 1
    outer loop
      vertex 2 136 2
      vertex 35.75 17 2
      vertex 64 136 2
    endloop
  endfacet
  facet normal 0 0 1
    outer loop
      vertex 35.75 17 2
      vertex 2 136 2
      vertex 34.279743 16.92777 2
    endloop
  endfacet
  facet normal 0 0 1
    outer loop
      vertex 34.279743 16.92777 2
      vertex 2 136 2
      vertex 32.823647 16.711779 2
    endloop
  endfacet
  facet normal 0 0 1
    outer loop
      vertex 32.823647 16.711779 2
      vertex 2 136 2
      vertex 31.39573 16.354105 2
    endloop
  endfacet
  facet normal 0 0 1
    outer loop
      vertex 31.39573 16.354105 2
      vertex 2 136 2
      vertex 30.009748 15.858192 2
    endloop
  endfacet
  facet normal 0 0 1
    outer loop
      vertex 30.009748 15.858192 2
      vertex 2 136 2
      vertex 28.679049 15.228819 2
    endloop
  endfacet
  facet normal 0 0 1
    outer loop
      vertex 28.679049 15.228819 2
      vertex 2 136 2
      vertex 27.416447 14.472044 2
    endloop
  endfacet
  facet normal 0 0 1
    outer loop
      vertex 27.416447 14.472044 2
      vertex 2 136 2
      vertex 26.2341 13.595157 2
    endloop
  endfacet
  facet normal 0 0 1
    outer loop
      vertex 2 2 2
      vertex 26.2341 13.595157 2
      vertex 2 136 2
    endloop
  endfacet
  facet normal 0 0 1
    outer loop
      vertex 26.2341 13.595157 2
      vertex 2 2 2
      vertex 25.143398 12.606602 2
    endloop
  endfacet
  facet normal 0 0 1
    outer loop
      vertex 25.143398 12.606602 2
      vertex 2 2 2
      vertex 24.154842 11.515899 2
    endloop
  endfacet
  facet normal 0 0 1
    outer loop
      vertex 24.154842 11.515899 2
      vertex 2 2 2
      vertex 23.277954 10.333553 2
    endloop
  endfacet
  facet normal 0 0 1
    outer loop
      vertex 23.277954 10.333553 2
      vertex 2 2 2
      vertex 22.52118 9.0709505 2
    endloop
  endfacet
  facet normal 0 0 1
    outer loop
      vertex 20.822227 3.4702568 2
      vertex 20.75 2.5 2
      vertex 20.774563 2.5 2
    endloop
  endfacet
  facet normal 0 0 1
    outer loop
      vertex 22.52118 9.0709505 2
      vertex 2 2 2
      vertex 21.891808 7.7402506 2
    endloop
  endfacet
  facet normal 0 0 1
    outer loop
      vertex 21.891808 7.7402506 2
      vertex 2 2 2
      vertex 21.395893 6.35427 2
    endloop
  endfacet
  facet normal 0 0 1
    outer loop
      vertex 21.395893 6.35427 2
      vertex 2 2 2
      vertex 21.03822 4.9263544 2
    endloop
  endfacet
  facet normal 0 0 1
    outer loop
      vertex 21.03822 4.9263544 2
      vertex 2 2 2
      vertex 20.822227 3.4702568 2
    endloop
  endfacet
  facet normal 0 0 1
    outer loop
      vertex 20.822227 3.4702568 2
      vertex 2 2 2
      vertex 20.75 2.5 2
    endloop
  endfacet
  facet normal 0 0 1
    outer loop
      vertex 20.75 2.5 2
      vertex 2 2 2
      vertex 20.75 2 2
    endloop
  endfacet
  facet normal 0 0 1
    outer loop
      vertex 64 2 2
      vertex 50.75 2.5 2
      vertex 50.75 2 2
    endloop
  endfacet
  facet normal 0 -1 0
    outer loop
      vertex 2 136 2
      vertex 64 136 14
      vertex 2 136 14
    endloop
  endfacet
  facet normal 0 -1 0
    outer loop
      vertex 64 136 14
      vertex 2 136 2
      vertex 64 136 2
    endloop
  endfacet
  facet normal 0 1 0
    outer loop
      vertex 64 2 2
      vertex 50.75 2 14
      vertex 64 2 14
    endloop
  endfacet
  facet normal 0 1 0
    outer loop
      vertex 50.75 2 14
      vertex 64 2 2
      vertex 50.75 2 2
    endloop
  endfacet
  facet normal 0 1 0
    outer loop
      vertex 20.75 2 2
      vertex 2 2 14
      vertex 20.75 2 14
    endloop
  endfacet
  facet normal 0 1 0
    outer loop
      vertex 2 2 14
      vertex 20.75 2 2
      vertex 2 2 2
    endloop
  endfacet
  facet normal -0.9238794 -0.38268372 0
    outer loop
      vertex 0.5857868 0.5857868 0
      vertex 0 2 17
      vertex 0 2 0
    endloop
  endfacet
  facet normal -0.9238794 -0.38268372 0
    outer loop
      vertex 0 2 17
      vertex 0.5857868 0.5857868 0
      vertex 0.5857868 0.5857868 17
    endloop
  endfacet
  facet normal 0 1 0
    outer loop
      vertex 65.5 139.5 0
      vertex 2 139.5 17
      vertex 65.5 139.5 17
    endloop
  endfacet
  facet normal 0 1 0
    outer loop
      vertex 2 139.5 17
      vertex 65.5 139.5 0
      vertex 2 139.5 0
    endloop
  endfacet
  facet normal 0 0 1
    outer loop
      vertex 2 139.5 17
      vertex 65.5 137.7 17
      vertex 65.5 139.5 17
    endloop
  endfacet
  facet normal 0 0 1
    outer loop
      vertex 2 139.5 17
      vertex 2 137.7 17
      vertex 65.5 137.7 17
    endloop
  endfacet
  facet normal 0 0 1
    outer loop
      vertex 0.5857868 138.91422 17
      vertex 2 137.7 17
      vertex 2 139.5 17
    endloop
  endfacet
  facet normal 0 0 1
    outer loop
      vertex 2 137.7 17
      vertex 0.5857868 138.91422 17
      vertex 0 137.5 17
    endloop
  endfacet
  facet normal 0 0 1
    outer loop
      vertex 0 2 17
      vertex 2 137.7 17
      vertex 0 137.5 17
    endloop
  endfacet
  facet normal 0 0 1
    outer loop
      vertex 2 137.7 17
      vertex 0 2 17
      vertex 2 0 17
    endloop
  endfacet
  facet normal 0 0 1
    outer loop
      vertex 2 0 17
      vertex 0 2 17
      vertex 0.5857868 0.5857868 17
    endloop
  endfacet
  facet normal 0 0 1
    outer loop
      vertex 65.5 137.7 17
      vertex 67.5 137.5 17
      vertex 66.914215 138.91422 17
    endloop
  endfacet
  facet normal 0 0 1
    outer loop
      vertex 67.5 137.5 17
      vertex 65.5 137.7 17
      vertex 67.5 2 17
    endloop
  endfacet
  facet normal 0 0 1
    outer loop
      vertex 65.5 137.7 17
      vertex 66.914215 138.91422 17
      vertex 65.5 139.5 17
    endloop
  endfacet
  facet normal 0 0 1
    outer loop
      vertex 65.5 0 17
      vertex 67.5 2 17
      vertex 65.5 137.7 17
    endloop
  endfacet
  facet normal 0 0 1
    outer loop
      vertex 67.5 2 17
      vertex 65.5 0 17
      vertex 66.914215 0.5857868 17
    endloop
  endfacet
  facet normal -0.38268372 -0.9238794 -3.4485563e-9
    outer loop
      vertex 0.5857868 0.5857868 17
      vertex 1.5 0.20710698 15.5
      vertex 2 0 17
    endloop
  endfacet
  facet normal -0.38268372 -0.9238794 -6.060352e-9
    outer loop
      vertex 0.5857868 0.5857868 17
      vertex 1 0.41421396 15
      vertex 1.5 0.20710698 15.5
    endloop
  endfacet
  facet normal -0.38268372 -0.92387944 0
    outer loop
      vertex 0.5857868 0.5857868 17
      vertex 1 0.41421396 14
      vertex 1 0.41421396 15
    endloop
  endfacet
  facet normal -0.38268372 -0.92387944 0
    outer loop
      vertex 0.5857868 0.5857868 0
      vertex 1 0.41421396 14
      vertex 0.5857868 0.5857868 17
    endloop
  endfacet
  facet normal -0.38268372 -0.9238794 7.389764e-10
    outer loop
      vertex 2 0 0
      vertex 1 0.41421396 14
      vertex 0.5857868 0.5857868 0
    endloop
  endfacet
  facet normal -0.38268375 -0.9238794 0
    outer loop
      vertex 1 0.41421396 14
      vertex 2 0 0
      vertex 2 0 14
    endloop
  endfacet
  facet normal -0.38268375 -0.9238794 0
    outer loop
      vertex 2 0 17
      vertex 1.5 0.20710698 15.5
      vertex 2 0 15.5
    endloop
  endfacet
  facet normal 0.92387986 -0.38268268 0
    outer loop
      vertex 66.914215 0.5857868 17
      vertex 67.5 2 0
      vertex 67.5 2 17
    endloop
  endfacet
  facet normal 0.92387986 -0.38268268 0
    outer loop
      vertex 67.5 2 0
      vertex 66.914215 0.5857868 17
      vertex 66.914215 0.5857868 0
    endloop
  endfacet
  facet normal 1 0 0
    outer loop
      vertex 67.5 2 17
      vertex 67.5 137.5 0
      vertex 67.5 137.5 17
    endloop
  endfacet
  facet normal 1 0 0
    outer loop
      vertex 67.5 137.5 0
      vertex 67.5 2 17
      vertex 67.5 2 0
    endloop
  endfacet
  facet normal 0.38268223 0.92388004 0
    outer loop
      vertex 66.914215 138.91422 0
      vertex 65.5 139.5 17
      vertex 66.914215 138.91422 17
    endloop
  endfacet
  facet normal 0.38268223 0.92388004 0
    outer loop
      vertex 65.5 139.5 17
      vertex 66.914215 138.91422 0
      vertex 65.5 139.5 0
    endloop
  endfacet
  facet normal 0.38268375 -0.9238794 0
    outer loop
      vertex 65.5 0 14
      vertex 65.5 0 0
      vertex 66.5 0.41421396 14
    endloop
  endfacet
  facet normal 0.38268375 -0.9238794 0
    outer loop
      vertex 66 0.20710698 15.5
      vertex 65.5 0 17
      vertex 65.5 0 15.5
    endloop
  endfacet
  facet normal 0.3826833 -0.92387956 -1.7549014e-7
    outer loop
      vertex 65.5 0 17
      vertex 66 0.20710698 15.5
      vertex 66.914215 0.5857868 17
    endloop
  endfacet
  facet normal 0.3826835 -0.9238795 -3.0839936e-7
    outer loop
      vertex 66.5 0.41421396 15
      vertex 66.914215 0.5857868 17
      vertex 66 0.20710698 15.5
    endloop
  endfacet
  facet normal 0.3826822 -0.92388004 0
    outer loop
      vertex 66.5 0.41421396 14
      vertex 66.914215 0.5857868 17
      vertex 66.5 0.41421396 15
    endloop
  endfacet
  facet normal 0.3826833 -0.92387956 3.760503e-8
    outer loop
      vertex 66.914215 0.5857868 0
      vertex 66.5 0.41421396 14
      vertex 65.5 0 0
    endloop
  endfacet
  facet normal 0.3826822 -0.92388004 0
    outer loop
      vertex 66.5 0.41421396 14
      vertex 66.914215 0.5857868 0
      vertex 66.914215 0.5857868 17
    endloop
  endfacet
  facet normal 0 -1 0
    outer loop
      vertex 51.64847 0 0
      vertex 65.5 0 14
      vertex 51.64847 0 14
    endloop
  endfacet
  facet normal 0 -1 0
    outer loop
      vertex 65.5 0 14
      vertex 51.64847 0 0
      vertex 65.5 0 0
    endloop
  endfacet
  facet normal 0 -1 0
    outer loop
      vertex 2 0 0
      vertex 19.851528 0 14
      vertex 2 0 14
    endloop
  endfacet
  facet normal 0 -1 0
    outer loop
      vertex 19.851528 0 14
      vertex 2 0 0
      vertex 19.851528 0 0
    endloop
  endfacet
  facet normal -1 0 0
    outer loop
      vertex 0 2 0
      vertex 0 137.5 17
      vertex 0 137.5 0
    endloop
  endfacet
  facet normal -1 0 0
    outer loop
      vertex 0 137.5 17
      vertex 0 2 0
      vertex 0 2 17
    endloop
  endfacet
  facet normal -0.92387956 0.3826833 0
    outer loop
      vertex 0 137.5 0
      vertex 0.5857868 138.91422 17
      vertex 0.5857868 138.91422 0
    endloop
  endfacet
  facet normal -0.92387956 0.3826833 0
    outer loop
      vertex 0.5857868 138.91422 17
      vertex 0 137.5 0
      vertex 0 137.5 17
    endloop
  endfacet
  facet normal -0.38268268 0.92387986 0
    outer loop
      vertex 2 139.5 0
      vertex 0.5857868 138.91422 17
      vertex 2 139.5 17
    endloop
  endfacet
  facet normal -0.38268268 0.92387986 0
    outer loop
      vertex 0.5857868 138.91422 17
      vertex 2 139.5 0
      vertex 0.5857868 138.91422 0
    endloop
  endfacet
  facet normal 0 0 -1
    outer loop
      vertex 19.851528 0 0
      vertex 20.75 0.99 0
      vertex 20.730785 0.7949097 0
    endloop
  endfacet
  facet normal 0 0 -1
    outer loop
      vertex 65.5 0 0
      vertex 67.5 2 0
      vertex 66.914215 0.5857868 0
    endloop
  endfacet
  facet normal 0 0 -1
    outer loop
      vertex 67.5 2 0
      vertex 45.2659 13.595157 0
      vertex 67.5 137.5 0
    endloop
  endfacet
  facet normal 0 0 -1
    outer loop
      vertex 50.461777 4.9263544 0
      vertex 67.5 2 0
      vertex 65.5 0 0
    endloop
  endfacet
  facet normal 0 0 -1
    outer loop
      vertex 67.5 2 0
      vertex 46.3566 12.606602 0
      vertex 45.2659 13.595157 0
    endloop
  endfacet
  facet normal 0 0 -1
    outer loop
      vertex 50.677773 3.4702568 0
      vertex 65.5 0 0
      vertex 51.64847 0 0
    endloop
  endfacet
  facet normal 0 0 -1
    outer loop
      vertex 51.367317 0.06612133 0
      vertex 51.64847 0 0
      vertex 51.55491 0.009215584 0
    endloop
  endfacet
  facet normal 0 0 -1
    outer loop
      vertex 51.194427 0.15853046 0
      vertex 51.64847 0 0
      vertex 51.367317 0.06612133 0
    endloop
  endfacet
  facet normal 0 0 -1
    outer loop
      vertex 51.64847 0 0
      vertex 51.194427 0.15853046 0
      vertex 50.75 0.99 0
    endloop
  endfacet
  facet normal 0 0 -1
    outer loop
      vertex 50.75 0.99 0
      vertex 51.194427 0.15853046 0
      vertex 51.042892 0.28289342 0
    endloop
  endfacet
  facet normal 0 0 -1
    outer loop
      vertex 50.75 0.99 0
      vertex 51.042892 0.28289342 0
      vertex 50.91853 0.43443036 0
    endloop
  endfacet
  facet normal 0 0 -1
    outer loop
      vertex 50.75 0.99 0
      vertex 50.91853 0.43443036 0
      vertex 50.82612 0.6073172 0
    endloop
  endfacet
  facet normal 0 0 -1
    outer loop
      vertex 50.75 0.99 0
      vertex 50.82612 0.6073172 0
      vertex 50.769215 0.7949097 0
    endloop
  endfacet
  facet normal 0 0 -1
    outer loop
      vertex 51.64847 0 0
      vertex 50.75 0.99 0
      vertex 50.75 2.5 0
    endloop
  endfacet
  facet normal 0 0 -1
    outer loop
      vertex 51.64847 0 0
      vertex 50.75 2.5 0
      vertex 50.677773 3.4702568 0
    endloop
  endfacet
  facet normal 0 0 -1
    outer loop
      vertex 50.677773 3.4702568 0
      vertex 50.75 2.5 0
      vertex 50.725437 2.5 0
    endloop
  endfacet
  facet normal 0 0 -1
    outer loop
      vertex 65.5 0 0
      vertex 50.677773 3.4702568 0
      vertex 50.461777 4.9263544 0
    endloop
  endfacet
  facet normal 0 0 -1
    outer loop
      vertex 67.5 2 0
      vertex 50.461777 4.9263544 0
      vertex 50.104103 6.35427 0
    endloop
  endfacet
  facet normal 0 0 -1
    outer loop
      vertex 67.5 2 0
      vertex 50.104103 6.35427 0
      vertex 49.608192 7.7402506 0
    endloop
  endfacet
  facet normal 0 0 -1
    outer loop
      vertex 67.5 2 0
      vertex 49.608192 7.7402506 0
      vertex 48.97882 9.0709505 0
    endloop
  endfacet
  facet normal 0 0 -1
    outer loop
      vertex 67.5 2 0
      vertex 48.97882 9.0709505 0
      vertex 48.222046 10.333553 0
    endloop
  endfacet
  facet normal 0 0 -1
    outer loop
      vertex 67.5 2 0
      vertex 48.222046 10.333553 0
      vertex 47.345158 11.515899 0
    endloop
  endfacet
  facet normal 0 0 -1
    outer loop
      vertex 67.5 2 0
      vertex 47.345158 11.515899 0
      vertex 46.3566 12.606602 0
    endloop
  endfacet
  facet normal 0 0 -1
    outer loop
      vertex 44.083553 14.472044 0
      vertex 67.5 137.5 0
      vertex 45.2659 13.595157 0
    endloop
  endfacet
  facet normal 0 0 -1
    outer loop
      vertex 42.82095 15.228819 0
      vertex 67.5 137.5 0
      vertex 44.083553 14.472044 0
    endloop
  endfacet
  facet normal 0 0 -1
    outer loop
      vertex 41.49025 15.858192 0
      vertex 67.5 137.5 0
      vertex 42.82095 15.228819 0
    endloop
  endfacet
  facet normal 0 0 -1
    outer loop
      vertex 40.10427 16.354105 0
      vertex 67.5 137.5 0
      vertex 41.49025 15.858192 0
    endloop
  endfacet
  facet normal 0 0 -1
    outer loop
      vertex 38.676353 16.711779 0
      vertex 67.5 137.5 0
      vertex 40.10427 16.354105 0
    endloop
  endfacet
  facet normal 0 0 -1
    outer loop
      vertex 37.220257 16.92777 0
      vertex 67.5 137.5 0
      vertex 38.676353 16.711779 0
    endloop
  endfacet
  facet normal 0 0 -1
    outer loop
      vertex 35.75 17 0
      vertex 67.5 137.5 0
      vertex 37.220257 16.92777 0
    endloop
  endfacet
  facet normal 0 0 -1
    outer loop
      vertex 67.5 137.5 0
      vertex 65.5 139.5 0
      vertex 66.914215 138.91422 0
    endloop
  endfacet
  facet normal 0 0 -1
    outer loop
      vertex 0 137.5 0
      vertex 67.5 137.5 0
      vertex 35.75 17 0
    endloop
  endfacet
  facet normal 0 0 -1
    outer loop
      vertex 0 137.5 0
      vertex 35.75 17 0
      vertex 34.279743 16.92777 0
    endloop
  endfacet
  facet normal 0 0 -1
    outer loop
      vertex 0 137.5 0
      vertex 34.279743 16.92777 0
      vertex 32.823647 16.711779 0
    endloop
  endfacet
  facet normal 0 0 -1
    outer loop
      vertex 0 137.5 0
      vertex 32.823647 16.711779 0
      vertex 31.39573 16.354105 0
    endloop
  endfacet
  facet normal 0 0 -1
    outer loop
      vertex 0 137.5 0
      vertex 31.39573 16.354105 0
      vertex 30.009748 15.858192 0
    endloop
  endfacet
  facet normal 0 0 -1
    outer loop
      vertex 0 137.5 0
      vertex 30.009748 15.858192 0
      vertex 28.679049 15.228819 0
    endloop
  endfacet
  facet normal 0 0 -1
    outer loop
      vertex 0 137.5 0
      vertex 28.679049 15.228819 0
      vertex 27.416447 14.472044 0
    endloop
  endfacet
  facet normal 0 0 -1
    outer loop
      vertex 0 137.5 0
      vertex 27.416447 14.472044 0
      vertex 26.2341 13.595157 0
    endloop
  endfacet
  facet normal 0 0 -1
    outer loop
      vertex 0 2 0
      vertex 26.2341 13.595157 0
      vertex 25.143398 12.606602 0
    endloop
  endfacet
  facet normal 0 0 -1
    outer loop
      vertex 0 2 0
      vertex 25.143398 12.606602 0
      vertex 24.154842 11.515899 0
    endloop
  endfacet
  facet normal 0 0 -1
    outer loop
      vertex 0 2 0
      vertex 24.154842 11.515899 0
      vertex 23.277954 10.333553 0
    endloop
  endfacet
  facet normal 0 0 -1
    outer loop
      vertex 0 2 0
      vertex 23.277954 10.333553 0
      vertex 22.52118 9.0709505 0
    endloop
  endfacet
  facet normal 0 0 -1
    outer loop
      vertex 0 2 0
      vertex 22.52118 9.0709505 0
      vertex 21.891808 7.7402506 0
    endloop
  endfacet
  facet normal 0 0 -1
    outer loop
      vertex 0 2 0
      vertex 21.891808 7.7402506 0
      vertex 21.395893 6.35427 0
    endloop
  endfacet
  facet normal 0 0 -1
    outer loop
      vertex 20.75 2.5 0
      vertex 20.822227 3.4702568 0
      vertex 20.774563 2.5 0
    endloop
  endfacet
  facet normal 0 0 -1
    outer loop
      vertex 19.851528 0 0
      vertex 20.730785 0.7949097 0
      vertex 20.67388 0.6073172 0
    endloop
  endfacet
  facet normal 0 0 -1
    outer loop
      vertex 19.851528 0 0
      vertex 20.67388 0.6073172 0
      vertex 20.58147 0.43443036 0
    endloop
  endfacet
  facet normal 0 0 -1
    outer loop
      vertex 20.75 0.99 0
      vertex 19.851528 0 0
      vertex 20.75 2.5 0
    endloop
  endfacet
  facet normal 0 0 -1
    outer loop
      vertex 19.851528 0 0
      vertex 20.58147 0.43443036 0
      vertex 20.457108 0.28289342 0
    endloop
  endfacet
  facet normal 0 0 -1
    outer loop
      vertex 19.851528 0 0
      vertex 20.457108 0.28289342 0
      vertex 20.30557 0.15853046 0
    endloop
  endfacet
  facet normal 0 0 -1
    outer loop
      vertex 20.75 2.5 0
      vertex 19.851528 0 0
      vertex 20.822227 3.4702568 0
    endloop
  endfacet
  facet normal 0 0 -1
    outer loop
      vertex 19.851528 0 0
      vertex 20.30557 0.15853046 0
      vertex 20.132683 0.06612133 0
    endloop
  endfacet
  facet normal 0 0 -1
    outer loop
      vertex 19.851528 0 0
      vertex 20.132683 0.06612133 0
      vertex 19.945091 0.009215584 0
    endloop
  endfacet
  facet normal 0 0 -1
    outer loop
      vertex 2 0 0
      vertex 20.822227 3.4702568 0
      vertex 19.851528 0 0
    endloop
  endfacet
  facet normal 0 0 -1
    outer loop
      vertex 20.822227 3.4702568 0
      vertex 2 0 0
      vertex 21.03822 4.9263544 0
    endloop
  endfacet
  facet normal 0 0 -1
    outer loop
      vertex 2 0 0
      vertex 21.395893 6.35427 0
      vertex 21.03822 4.9263544 0
    endloop
  endfacet
  facet normal 0 0 -1
    outer loop
      vertex 0 2 0
      vertex 21.395893 6.35427 0
      vertex 2 0 0
    endloop
  endfacet
  facet normal 0 0 -1
    outer loop
      vertex 26.2341 13.595157 0
      vertex 0 2 0
      vertex 0 137.5 0
    endloop
  endfacet
  facet normal 0 0 -1
    outer loop
      vertex 0 2 0
      vertex 2 0 0
      vertex 0.5857868 0.5857868 0
    endloop
  endfacet
  facet normal 0 0 -1
    outer loop
      vertex 67.5 137.5 0
      vertex 0 137.5 0
      vertex 65.5 139.5 0
    endloop
  endfacet
  facet normal 0 0 -1
    outer loop
      vertex 65.5 139.5 0
      vertex 0 137.5 0
      vertex 2 139.5 0
    endloop
  endfacet
  facet normal 0 0 -1
    outer loop
      vertex 2 139.5 0
      vertex 0 137.5 0
      vertex 0.5857868 138.91422 0
    endloop
  endfacet
  facet normal 0.92388004 0.38268223 0
    outer loop
      vertex 67.5 137.5 17
      vertex 66.914215 138.91422 0
      vertex 66.914215 138.91422 17
    endloop
  endfacet
  facet normal 0.92388004 0.38268223 0
    outer loop
      vertex 66.914215 138.91422 0
      vertex 67.5 137.5 17
      vertex 67.5 137.5 0
    endloop
  endfacet
endsolid OpenSCAD_Model
